# .PCD v0.7 - Point Cloud Data file format
VERSION 0.7
FIELDS x y z
SIZE 4 4 4
TYPE F F F
COUNT 1 1 1
WIDTH 218
HEIGHT 1
VIEWPOINT 0 0 0 1
POINTS 218
DATA ascii
-17.449854 32.916233 -7.506922
-17.428024 32.972504 -7.583855
-17.474447 32.946274 -7.405145
-17.534027 32.918953 -6.949726
-17.706049 32.933411 -6.887489
-17.740211 32.924362 -6.821808
-17.550844 32.901524 -7.284375
-17.493486 32.914825 -7.288233
-17.760201 32.911980 -6.787883
-17.519457 32.883717 -7.355886
-17.486357 32.837463 -6.650364
-17.437876 32.955696 -7.424310
-17.646437 32.929855 -6.878557
-17.373693 32.922112 -7.436108
-17.305090 32.970196 -7.648703
-17.440397 32.938797 -7.477994
-17.341633 32.979485 -7.651741
-17.442287 32.914146 -7.206711
-17.408972 32.988506 -7.624747
-17.383553 33.016182 -7.421244
-17.555161 32.952557 -7.095862
-17.435646 33.008053 -7.558490
-17.449657 32.969894 -7.691933
-17.665968 32.894619 -6.771587
-17.370800 32.912342 -7.486084
-17.417707 32.956303 -7.334442
-17.449522 33.006462 -7.190052
-17.595175 33.105305 -7.749475
-17.598522 33.048733 -7.109279
-17.503946 32.916821 -7.279631
-17.605474 32.912518 -6.862023
-17.615637 33.087383 -7.802549
-17.581833 33.046116 -7.152256
-17.381905 33.014194 -7.469223
-17.422390 33.050739 -7.313906
-17.528212 33.025246 -7.192472
-17.510132 32.943195 -6.938176
-17.519493 33.015747 -7.265715
-17.625629 33.007755 -6.848729
-17.545898 33.041973 -6.935577
-17.569208 32.786533 -7.332831
-17.526886 32.853504 -7.364514
-17.446695 32.901943 -7.567320
-17.439344 32.832119 -7.407598
-17.543577 32.813599 -7.137832
-17.700607 32.815918 -6.952810
-17.583611 32.809925 -7.260406
-17.548824 32.947128 -7.697132
-17.504421 32.822884 -7.467417
-17.541901 32.868889 -7.290597
-17.499231 32.884174 -7.549275
-17.443151 32.827293 -7.429117
-17.536606 32.940708 -7.347099
-17.498709 32.999451 -7.585833
-17.450321 32.918434 -7.391463
-17.722834 32.810047 -6.911613
-17.486219 32.869186 -7.283247
-17.566055 32.847565 -7.005589
-17.524012 32.813282 -7.180980
-17.567030 32.817989 -7.184226
-18.371717 32.896965 -6.984849
-17.628063 32.816212 -6.931043
-17.688393 32.896294 -6.922487
-17.555321 32.943474 -7.632586
-17.494509 32.999508 -7.706003
-17.515629 32.909855 -7.459291
-17.687292 33.063431 -7.792171
-17.445482 32.909363 -7.410685
-17.555210 32.954510 -7.277915
-17.623779 33.006813 -7.702956
-17.502382 32.972569 -7.531310
-17.458521 33.004074 -7.374442
-17.740095 32.892239 -6.900449
-17.536173 32.980137 -7.084836
-17.494947 32.951134 -7.266257
-17.560854 32.926857 -6.980126
-17.631109 32.893543 -6.911721
-17.576756 32.974228 -7.217760
-17.809587 33.076088 -7.828290
-17.709810 32.982059 -6.911300
-17.688457 32.850185 -6.834898
-17.750710 32.890068 -6.859152
-17.519112 32.995106 -7.445051
-17.454458 32.992729 -7.397561
-17.772034 32.877029 -6.840315
-17.735767 32.972782 -6.878097
-17.598305 32.981468 -7.175397
-17.647472 32.974236 -6.898849
-17.710287 32.928486 -6.825915
-17.770109 32.972878 -6.850998
-17.785202 32.958393 -6.832580
-17.442892 32.859734 -7.442173
-17.409653 32.911469 -7.537185
-17.864367 32.980457 -7.902431
-17.455318 32.879578 -7.368569
-17.407143 32.926682 -7.540811
-18.317831 32.933796 -7.503235
-17.418739 32.993549 -7.686458
-17.435282 32.940765 -7.417479
-18.225571 33.036602 -7.902001
-17.524466 32.878544 -7.083388
-17.544462 32.880318 -7.053200
-17.409763 32.992432 -7.521994
-17.328823 32.973202 -7.423057
-17.449688 32.957466 -7.349066
-17.353312 32.962463 -7.353828
-17.408762 33.006248 -7.523222
-17.603146 33.096302 -7.800871
-17.311028 33.035816 -7.538497
-17.527542 33.101234 -7.765750
-17.395052 32.980587 -7.238765
-17.448725 33.023586 -7.410845
-17.527042 32.954781 -7.068779
-17.457191 32.951763 -7.036549
-17.520958 32.951866 -7.024916
-17.885788 33.176407 -7.915031
-17.329140 33.050137 -7.404944
-17.457153 33.038002 -7.340431
-17.357935 33.041679 -7.336249
-17.875147 33.191082 -7.907593
-17.499874 32.974697 -6.934679
-17.408049 33.059559 -7.229948
-17.538328 33.033482 -7.059874
-17.541258 33.030151 -7.024029
-17.457321 33.027031 -7.015959
-17.345085 33.131222 -7.400918
-17.369289 33.120914 -7.324575
-17.513031 33.049381 -6.924318
-17.402233 33.132812 -7.205973
-17.467602 33.102844 -7.001449
-17.543379 33.127338 -6.922859
-17.522095 32.795147 -7.486910
-17.499310 32.863544 -7.242862
-18.422977 32.860298 -7.278991
-17.571568 32.951752 -7.583832
-17.471693 32.988991 -7.640686
-17.536098 32.878735 -7.474669
-17.551716 32.808281 -7.155319
-17.154865 33.004242 -7.570810
-17.439060 32.905125 -7.458055
-17.517363 32.946823 -7.232756
-17.696833 32.858589 -6.841515
-17.491219 32.991344 -7.702569
-17.404423 32.981800 -7.654472
-17.954969 33.119274 -7.877701
-17.381317 32.993572 -7.657295
-17.617567 33.107773 -7.743987
-18.147200 33.074894 -7.947831
-17.450924 32.987900 -7.444186
-17.631643 32.910244 -7.093959
-17.516394 33.028458 -7.207005
-17.457748 33.076084 -7.679288
-17.716446 32.939072 -6.829416
-17.538685 33.087830 -7.720550
-18.057510 33.155388 -7.848910
-18.034252 33.200916 -7.901609
-18.305676 33.213940 -7.552064
-18.400633 33.148773 -7.178249
-18.347128 33.218796 -7.514379
-18.735210 32.861519 -7.599823
-18.469980 32.855297 -7.541126
-18.706364 32.842396 -7.651261
-18.572113 32.837803 -7.631345
-18.780533 32.848427 -7.476648
-18.506048 32.868629 -7.484285
-18.731913 32.859718 -7.583109
-17.657713 32.773605 -7.046512
-18.621376 32.846745 -7.526946
-17.678917 32.778542 -7.027169
-17.629011 32.822464 -7.001789
-17.701742 32.803524 -6.922749
-17.640284 32.823433 -6.976562
-17.680866 32.773899 -6.978012
-17.765099 32.765446 -6.933149
-17.712252 32.772438 -6.947657
-17.770153 32.836636 -6.857373
-17.629587 32.882538 -6.979639
-18.104563 32.912659 -6.888137
-17.711691 32.867817 -6.907275
-17.657841 32.890923 -6.966816
-18.116682 32.845715 -6.892394
-17.744080 32.817612 -6.899253
-17.669781 32.830029 -6.950001
-17.708755 32.830730 -6.924414
-18.170706 32.890301 -6.921048
-17.790051 32.906250 -6.847378
-17.714113 32.785446 -6.922122
-17.678198 32.964645 -6.993957
-17.736851 32.938828 -6.901890
-17.872932 32.849216 -6.820576
-17.693552 32.967407 -6.969830
-18.208818 32.878319 -6.915383
-17.751146 32.881386 -6.884418
-17.697884 32.901649 -6.949075
-18.170094 32.875839 -6.913771
-17.726328 32.897911 -6.916050
-17.803503 32.972900 -6.832421
-17.754345 32.825794 -6.855861
-17.718845 32.847099 -6.907542
-17.761017 32.839714 -6.867730
-17.930193 32.933220 -6.831637
-17.754116 32.944000 -6.865739
-17.716068 32.970661 -6.941855
-18.281847 32.900753 -6.945627
-17.747423 32.968479 -6.909165
-17.773703 32.893375 -6.851197
-17.744631 32.917957 -6.906469
-17.780926 32.907364 -6.860904
-17.781113 32.837494 -6.838447
-17.757534 32.859001 -6.871955
-17.816288 32.847775 -6.822386
-17.776712 32.956715 -6.834864
-17.740040 32.977791 -6.885777
-17.775738 32.966721 -6.838662
-17.792345 32.904190 -6.830775
-17.764629 32.922157 -6.859879
-17.829216 32.913738 -6.812353
-17.804733 32.971439 -6.822495
