# .PCD v0.7 - Point Cloud Data file format
VERSION 0.7
FIELDS x y z
SIZE 4 4 4
TYPE F F F
COUNT 1 1 1
WIDTH 36
HEIGHT 1
VIEWPOINT 0 0 0 1
POINTS 36
DATA ascii
-18.708435 31.537477 -4.861907
-18.646477 31.462215 -4.842096
-18.722578 31.655008 -4.872633
-18.670561 31.565510 -4.844717
-18.683128 31.687208 -4.852663
-18.754984 31.828819 -4.875079
-18.759176 31.899105 -4.868536
-18.759356 31.777885 -4.869335
-18.717268 31.797104 -4.870885
-18.697044 31.844332 -4.857953
-18.704620 31.917677 -4.851649
-18.710812 31.798138 -4.846266
-18.744987 31.974548 -4.881712
-18.751154 32.113453 -4.880689
-18.698946 31.995739 -4.859915
-18.748301 32.252892 -4.877938
-18.710794 31.497557 -4.837702
-18.694731 31.536743 -4.834698
-18.748674 31.587973 -4.855625
-18.675686 31.576260 -4.831378
-18.726959 31.628618 -4.849918
-18.707943 31.670536 -4.842208
-18.684807 31.709930 -4.835831
-18.502827 31.645609 -4.861803
-18.735804 31.759222 -4.857554
-18.706877 31.798662 -4.848401
-18.779768 31.867409 -4.854223
-18.752565 31.911308 -4.839305
-18.803312 32.023857 -4.869306
-18.768583 32.061104 -4.858499
-18.768230 32.078236 -4.871823
-18.804489 32.113777 -4.873000
-18.748373 32.124905 -4.857193
-18.795666 32.172394 -4.854930
-18.801931 32.205196 -4.881598
-18.770802 32.255600 -4.871595
