# .PCD v0.7 - Point Cloud Data file format
VERSION 0.7
FIELDS x y z
SIZE 4 4 4
TYPE F F F
COUNT 1 1 1
WIDTH 12
HEIGHT 1
VIEWPOINT 0 0 0 1
POINTS 12
DATA ascii
-19.840992 31.765320 -5.233043
-19.830160 31.847162 -5.277800
-19.621944 31.672829 -5.205043
-19.850840 31.939785 -5.243412
-19.092760 31.699528 -5.675095
-19.002235 31.668533 -5.694740
-18.983095 31.660484 -5.661661
-20.407490 32.184078 -5.597593
-20.404716 32.277721 -5.572503
-20.562220 32.286179 -5.631219
-19.069151 31.740084 -5.600072
-19.129133 31.729668 -5.642236
