# .PCD v0.7 - Point Cloud Data file format
VERSION 0.7
FIELDS x y z
SIZE 4 4 4
TYPE F F F
COUNT 1 1 1
WIDTH 13
HEIGHT 1
VIEWPOINT 0 0 0 1
POINTS 13
DATA ascii
-12.830173 31.416414 -3.341008
-12.794696 31.367878 -3.349338
-12.795628 31.350092 -3.310608
-12.799186 31.291067 -3.341250
-12.742013 31.283924 -3.264452
-12.892689 31.393854 -3.346475
-12.656208 31.355770 -3.155840
-12.707894 31.276604 -3.194696
-13.081154 31.333456 -3.472415
-12.782556 31.236626 -3.262171
-13.101612 31.282030 -3.477524
-12.997023 31.184956 -3.435626
-13.123960 31.232471 -3.485285
