# .PCD v0.7 - Point Cloud Data file format
VERSION 0.7
FIELDS x y z
SIZE 4 4 4
TYPE F F F
COUNT 1 1 1
WIDTH 113
HEIGHT 1
VIEWPOINT 0 0 0 1
POINTS 113
DATA ascii
-10.278358 34.533043 -1.565204
-10.238686 34.545219 -1.530332
-10.150614 34.550056 -1.461096
-10.235255 34.390125 -1.546040
-10.137239 34.403576 -1.460932
-10.266608 34.792576 -1.650342
-10.259310 34.747799 -1.704021
-10.231667 34.714413 -1.687501
-10.274206 34.634830 -1.642566
-10.247787 34.550877 -1.685615
-10.248883 34.559135 -1.637215
-10.254772 34.721493 -1.644471
-10.217499 34.494781 -1.663874
-10.224018 34.646145 -1.677426
-10.261003 34.447548 -1.636933
-10.265032 34.541210 -1.601444
-10.236291 34.378151 -1.668441
-10.240820 34.344147 -1.629287
-10.240415 34.471989 -1.631979
-10.221922 34.270596 -1.667737
-10.214845 34.409367 -1.657467
-10.252124 34.275204 -1.602796
-10.229055 34.216908 -1.624173
-10.246867 34.164062 -1.579880
-10.217896 34.138195 -1.666510
-10.255173 34.362240 -1.701371
-10.282618 34.625801 -1.744490
-10.239834 34.393501 -1.708770
-10.280510 34.385963 -1.677208
-10.269016 34.459587 -1.729324
-10.275611 34.225323 -1.664413
-10.257617 34.309071 -1.722965
-10.312056 34.496151 -1.601793
-10.328650 34.426117 -1.596326
-10.217243 34.793690 -1.598125
-10.299371 34.291199 -1.570652
-10.216237 34.623272 -1.601420
-10.242920 34.786190 -1.606472
-10.233354 34.644005 -1.599245
-10.223776 34.723198 -1.438215
-10.219854 34.528732 -1.594733
-10.209019 34.397503 -1.593026
-10.222911 34.511234 -1.599213
-10.296520 34.624111 -1.618287
-10.212368 34.763840 -1.631963
-10.243407 34.636749 -1.587371
-10.285793 34.714985 -1.614148
-10.292585 34.310829 -1.650655
-10.209249 34.556377 -1.629733
-10.313721 34.417011 -1.692439
-10.239326 34.369499 -1.579038
-10.235744 34.707573 -1.602687
-10.252876 34.296288 -1.589089
-10.248740 34.518703 -1.593144
-10.201953 34.345840 -1.579075
-10.210872 34.294353 -1.568802
-10.253341 34.421959 -1.595997
-10.271756 34.660580 -1.601982
-10.206106 34.495075 -1.595892
-10.224096 34.748451 -1.633491
-10.184852 34.230560 -1.605029
-10.209308 34.410378 -1.586280
-10.253968 34.547405 -1.591758
-10.300613 34.792282 -1.636039
-10.222483 34.642525 -1.602110
-10.211487 34.511086 -1.606768
-10.249221 34.694103 -1.596504
-10.209019 34.625103 -1.638120
-10.304814 34.442093 -1.708117
-10.262234 34.568016 -1.624358
-10.303613 34.606274 -1.683637
-10.251060 34.522312 -1.625497
-10.262837 34.672146 -1.641496
-10.214575 34.573357 -1.597458
-10.262254 34.352657 -1.616091
-10.245624 34.674381 -1.614819
-10.206641 34.531567 -1.600598
-10.276500 34.758205 -1.633234
-10.211945 34.687134 -1.613959
-10.259183 34.471447 -1.629362
-10.222157 34.349709 -1.597586
-10.202132 34.643078 -1.620609
-10.224550 34.764141 -1.615228
-10.254554 34.606419 -1.622919
-10.213724 34.480846 -1.605403
-10.184511 34.335583 -1.588550
-10.205851 34.606438 -1.608232
-10.266378 34.793716 -1.610984
-10.219098 34.741375 -1.638508
-10.309458 34.461430 -1.707042
-10.315756 34.541969 -1.708969
-10.357211 34.548855 -1.693201
-10.296640 34.569736 -1.633443
-10.310147 34.479984 -1.710847
-10.326981 34.736393 -1.708604
-10.302196 34.663456 -1.626894
-10.314708 34.552288 -1.698694
-10.259995 34.593784 -1.619968
-10.344430 34.528847 -1.701712
-10.294737 34.583344 -1.644296
-10.309114 34.505985 -1.709031
-10.296620 34.653927 -1.634771
-10.323155 34.781193 -1.720895
-10.309813 34.557537 -1.693387
-10.260611 34.623306 -1.624055
-10.293794 34.612022 -1.645101
-10.292789 34.661697 -1.631050
-10.261379 34.659546 -1.622423
-10.322367 34.554535 -1.691244
-10.287122 34.556782 -1.704597
-10.290903 34.594303 -1.677841
-10.276058 34.686043 -1.628958
-10.273506 34.694050 -1.622350
