# .PCD v0.7 - Point Cloud Data file format
VERSION 0.7
FIELDS x y z
SIZE 4 4 4
TYPE F F F
COUNT 1 1 1
WIDTH 11
HEIGHT 1
VIEWPOINT 0 0 0 1
POINTS 11
DATA ascii
-14.443637 35.653133 -3.245307
-14.519408 35.763821 -3.242743
-14.567562 35.652966 -3.299407
-14.579498 35.854046 -3.245412
-14.426507 35.813866 -3.248243
-14.573986 35.831207 -3.288426
-14.543225 35.984047 -3.239129
-14.605426 36.053799 -3.269789
-14.615896 36.258877 -3.254337
-14.565317 36.390347 -3.252081
-14.517436 36.534004 -3.247490
