# .PCD v0.7 - Point Cloud Data file format
VERSION 0.7
FIELDS x y z
SIZE 4 4 4
TYPE F F F
COUNT 1 1 1
WIDTH 27
HEIGHT 1
VIEWPOINT 0 0 0 1
POINTS 27
DATA ascii
-12.376625 36.211235 -2.496424
-12.457523 36.229591 -2.400739
-12.330826 35.988544 -2.449368
-12.335008 36.282902 -2.472911
-12.386518 35.920982 -2.451523
-12.325375 35.797733 -2.482408
-12.365101 36.044704 -2.455249
-12.436633 35.855209 -2.502642
-12.410032 36.117275 -2.439637
-12.386839 36.038029 -2.429767
-12.411553 35.826477 -2.474483
-12.359016 35.980927 -2.414073
-12.350863 35.935425 -2.409575
-12.333967 35.839863 -2.523309
-12.251699 35.864521 -2.525953
-12.363832 35.928837 -2.533109
-12.273097 35.943226 -2.541439
-12.397154 36.022297 -2.541912
-12.442889 36.195042 -2.506016
-12.431699 36.530582 -2.509375
-12.324807 36.086323 -2.539864
-12.388280 36.302486 -2.488410
-12.317044 36.520428 -2.516593
-12.316158 36.376610 -2.477896
-12.373761 36.000813 -2.506532
-12.346691 36.146530 -2.478566
-12.351462 36.288837 -2.574369
