# .PCD v0.7 - Point Cloud Data file format
VERSION 0.7
FIELDS x y z
SIZE 4 4 4
TYPE F F F
COUNT 1 1 1
WIDTH 59
HEIGHT 1
VIEWPOINT 0 0 0 1
POINTS 59
DATA ascii
-13.371104 35.853531 -4.694356
-13.282916 35.898693 -4.674516
-13.362398 35.857849 -4.687474
-13.194637 35.922680 -4.653683
-13.432638 35.826385 -4.695796
-13.274239 35.899590 -4.669942
-13.104018 35.936279 -4.630932
-13.344884 35.861759 -4.680969
-13.183414 35.923466 -4.650704
-13.014709 35.944759 -4.609265
-13.415100 35.837673 -4.703622
-13.254179 35.903389 -4.665033
-13.092483 35.929676 -4.631321
-12.923068 35.962105 -4.585146
-13.324686 35.858772 -4.691101
-13.163329 35.915012 -4.648031
-13.000747 35.952202 -4.610540
-13.232846 35.912838 -4.677989
-13.071609 35.937630 -4.630410
-13.139573 35.919254 -4.662419
-12.978306 35.947456 -4.612535
-13.045958 35.949780 -4.647472
-12.785301 35.996918 -4.505338
-12.568628 36.035378 -4.402880
-12.323005 36.117943 -4.265318
-12.297169 36.076599 -4.239864
-12.232041 36.141216 -4.258410
-12.273006 36.124851 -4.331439
-12.203185 36.092796 -4.229809
-12.135835 36.153664 -4.249727
-12.179135 36.145615 -4.325995
-12.112973 36.121609 -4.219592
-12.041810 36.148796 -4.240115
-12.089388 36.119080 -4.168508
-12.019587 36.143112 -4.208206
-11.952877 36.207073 -4.234619
-11.996705 36.150421 -4.160404
-11.929382 36.200142 -4.199414
-11.904956 36.202461 -4.152888
-11.835172 36.218819 -4.187604
-11.964701 36.148502 -4.114679
-11.871156 36.173634 -4.107755
-11.845041 36.173405 -4.081956
-11.821114 36.178188 -4.017814
-11.333919 36.271904 -3.897461
-11.242994 36.312679 -3.896828
-11.094133 36.329845 -3.816944
-11.150048 36.357174 -3.896643
-11.244810 36.325161 -3.999526
-9.406563 35.043961 -3.214399
-9.863154 36.657112 -3.430683
-9.825811 36.626152 -3.375016
-9.792631 36.637081 -3.330197
-9.768331 36.679131 -3.428925
-9.739540 36.673637 -3.379023
-9.304412 35.296322 -3.256693
-9.699492 36.659077 -3.333642
-9.674162 36.662136 -3.305664
-9.648835 36.680897 -3.306482
