# .PCD v0.7 - Point Cloud Data file format
VERSION 0.7
FIELDS x y z
SIZE 4 4 4
TYPE F F F
COUNT 1 1 1
WIDTH 112
HEIGHT 1
VIEWPOINT 0 0 0 1
POINTS 112
DATA ascii
-6.319793 32.883457 -0.059777
-6.285957 32.875462 -0.042647
-6.230905 32.862175 -0.015506
-6.340875 32.832394 -0.063837
-6.314707 32.825813 -0.047196
-6.267147 32.810246 -0.025759
-6.488913 32.845818 -0.112985
-6.560388 32.835545 -0.144317
-6.204676 32.759777 -0.007108
-6.361110 32.782307 -0.066085
-6.343091 32.777988 -0.050167
-6.307022 32.759991 -0.039628
-6.512938 32.800850 -0.114591
-6.583578 32.792442 -0.149522
-6.244041 32.708168 -0.022682
-6.711905 32.805641 -0.197294
-6.389373 32.732441 -0.076792
-6.375473 32.730015 -0.058337
-6.544946 32.755333 -0.127555
-6.346061 32.710976 -0.050717
-6.604200 32.751762 -0.151210
-6.288352 32.657845 -0.044891
-6.731598 32.764668 -0.201992
-6.422129 32.683525 -0.091967
-6.415488 32.683571 -0.075315
-6.569932 32.712055 -0.129640
-6.401212 32.664040 -0.081236
-6.633211 32.709476 -0.162940
-6.753583 32.725254 -0.209218
-6.448212 32.634773 -0.098814
-6.471611 32.639210 -0.111723
-6.606051 32.669064 -0.146459
-6.436800 32.617924 -0.088926
-6.660965 32.669231 -0.174172
-6.771100 32.685394 -0.210054
-6.490418 32.588356 -0.124124
-6.500598 32.595161 -0.112633
-6.651608 32.628311 -0.174373
-6.501467 32.575394 -0.131129
-6.690090 32.629616 -0.184562
-6.804243 32.646774 -0.230084
-6.561757 32.554504 -0.155295
-6.678033 32.587574 -0.177176
-6.704551 32.590458 -0.176237
-6.820460 32.607563 -0.226943
-6.671672 32.521057 -0.264782
-6.723668 32.548985 -0.205683
-6.754692 32.553707 -0.214621
-6.850112 32.570446 -0.240090
-6.808252 32.517189 -0.288337
-6.811169 32.520012 -0.263241
-6.890463 32.534420 -0.270251
-6.240962 32.746151 0.020929
-6.298401 32.744255 -0.002925
-6.357895 32.767773 -0.021495
-6.318399 32.735973 -0.010534
-6.483519 32.779034 -0.073445
-6.268529 32.700600 0.012299
-6.490841 32.767361 -0.082467
-6.333435 32.700623 -0.018653
-6.384785 32.722439 -0.035266
-6.357787 32.693237 -0.030866
-6.507156 32.738842 -0.079965
-6.304738 32.656612 -0.006508
-6.517069 32.728840 -0.094689
-6.362648 32.658001 -0.026002
-6.412628 32.678528 -0.050454
-6.656722 32.750889 -0.141772
-6.394742 32.650982 -0.046000
-6.535139 32.699547 -0.091085
-6.539506 32.690475 -0.101552
-6.345223 32.613293 -0.030884
-6.409865 32.619030 -0.059026
-6.436742 32.634995 -0.059309
-6.680293 32.713665 -0.155135
-6.427117 32.609604 -0.054863
-6.566617 32.661644 -0.106866
-6.568703 32.652527 -0.118202
-6.379952 32.571209 -0.045908
-6.432857 32.577042 -0.055818
-6.703196 32.677616 -0.165638
-6.465202 32.592358 -0.072762
-6.469093 32.571220 -0.075325
-6.593850 32.623299 -0.116088
-6.593967 32.616734 -0.126866
-6.464741 32.538097 -0.132097
-6.482037 32.541149 -0.090699
-6.727777 32.642040 -0.179441
-6.497093 32.550888 -0.091848
-6.529449 32.536869 -0.123627
-6.634852 32.588161 -0.144432
-6.620395 32.580585 -0.138604
-6.534842 32.506210 -0.198062
-6.569352 32.513653 -0.181430
-6.747010 32.606594 -0.182635
-6.579216 32.520546 -0.182608
-6.659379 32.551842 -0.147768
-6.613551 32.510586 -0.208255
-6.651555 32.545712 -0.157110
-6.639778 32.486080 -0.248408
-6.761554 32.570095 -0.178076
-6.640494 32.488132 -0.243749
-6.696243 32.518188 -0.171034
-6.676420 32.481850 -0.261092
-6.686271 32.512455 -0.179304
-6.796624 32.538708 -0.205864
-6.768685 32.494438 -0.250335
-6.762483 32.490028 -0.267389
-6.828691 32.506744 -0.229201
-6.839133 32.473251 -0.329067
-6.813309 32.464916 -0.316182
-6.884340 32.482418 -0.290832
