# .PCD v0.7 - Point Cloud Data file format
VERSION 0.7
FIELDS x y z
SIZE 4 4 4
TYPE F F F
COUNT 1 1 1
WIDTH 35
HEIGHT 1
VIEWPOINT 0 0 0 1
POINTS 35
DATA ascii
-6.107074 37.113754 -0.004956
-6.000723 37.108452 0.050349
-5.964401 36.983677 0.029204
-6.068064 36.789639 0.025364
-6.061536 36.659954 0.055962
-6.014332 36.708092 0.022748
-6.055013 36.548981 0.004232
-6.079816 36.481846 -0.000140
-5.951010 36.645287 0.034305
-6.036233 36.529705 0.020311
-5.950104 36.544540 0.061362
-6.062057 36.984367 -0.085509
-6.063574 36.911514 0.015130
-6.103677 36.686043 -0.060399
-6.173997 36.562244 -0.087356
-5.999501 36.851330 0.030986
-6.025145 36.649982 -0.035455
-6.127421 36.454624 -0.077967
-6.052033 36.617386 -0.002739
-6.034174 36.622955 -0.068316
-6.023028 36.466938 -0.018525
-6.029238 36.500443 -0.037492
-6.091980 36.768181 -0.067919
-6.038568 36.877239 -0.013917
-5.996196 36.855171 0.021969
-5.975451 36.870255 0.011528
-6.074311 36.396770 -0.033924
-6.093862 36.884178 0.043042
-6.096255 37.081573 -0.078186
-6.091445 37.074223 -0.072268
-6.079109 36.784603 0.021918
-6.085412 36.729259 -0.034434
-6.074594 36.629986 -0.060054
-6.068881 36.615902 -0.084589
-6.055245 36.537022 -0.100152
