# .PCD v0.7 - Point Cloud Data file format
VERSION 0.7
FIELDS x y z
SIZE 4 4 4
TYPE F F F
COUNT 1 1 1
WIDTH 1967
HEIGHT 1
VIEWPOINT 0 0 0 1
POINTS 1967
DATA ascii
2.298183 12.035942 1.026053
2.275563 11.838702 1.087831
2.275163 12.046998 1.059512
2.303572 11.923015 0.986959
2.148244 12.003494 1.406270
2.082469 12.101383 1.581050
2.342243 11.619985 0.981620
2.270781 11.685092 1.144367
2.255827 11.853959 1.116032
2.266130 12.055054 1.062275
2.096556 12.109695 1.490061
2.254526 12.046793 1.094944
2.292426 11.755014 1.047002
2.135976 11.817784 1.454432
2.086567 11.943513 1.622197
2.297794 11.420154 1.040950
2.262615 11.535522 1.198206
2.256867 11.708136 1.169501
2.247733 11.870125 1.119035
2.245661 12.080818 1.106141
2.091348 11.933379 1.533796
2.247037 11.874556 1.146616
1.893728 12.027917 2.018605
2.070737 12.009177 1.636221
2.274500 11.587384 1.104226
2.119739 11.638104 1.497304
2.079125 11.773573 1.658973
2.213336 12.028346 1.187978
1.848298 12.101838 2.190704
2.246544 11.724174 1.172528
2.249583 11.557595 1.219287
2.060621 12.049809 1.619519
2.236705 11.901561 1.155430
2.084656 11.767550 1.573960
2.052976 12.059487 1.649273
2.244450 11.719665 1.196229
1.836957 12.094554 2.111701
2.063954 11.834092 1.669641
2.253594 11.424277 1.157483
1.896144 11.863245 2.047116
2.099128 11.463967 1.536155
2.067312 11.609173 1.691727
2.207889 11.868655 1.239577
1.849702 11.936219 2.209041
2.240247 11.580861 1.223032
2.056963 11.885049 1.657111
2.235835 11.746836 1.200909
2.055267 11.899709 1.682770
2.234981 11.566895 1.242087
2.074255 11.603348 1.611190
1.824177 12.035669 2.228212
2.055515 11.673177 1.700064
1.844311 11.937399 2.136768
1.896858 11.704884 2.072760
2.195766 11.706347 1.284875
2.048371 11.442557 1.718977
2.049594 11.980016 1.676383
1.851896 11.781369 2.226227
2.010352 11.994831 1.734407
2.214189 11.411291 1.268984
2.045023 11.714521 1.689033
2.223693 11.584374 1.243753
2.054646 11.743570 1.712764
2.061167 11.446956 1.644217
1.832438 11.885246 2.246652
2.058406 11.536623 1.732375
1.849010 11.788225 2.160080
1.806161 12.018160 2.237290
1.890377 11.546237 2.094396
2.193925 11.570788 1.330274
2.012470 11.847479 1.767858
2.050626 11.817233 1.704345
1.859571 11.652872 2.249735
1.820929 12.001236 2.271908
2.048986 11.584487 1.724977
2.204445 11.419871 1.283535
2.044108 11.578516 1.737737
1.838540 11.741530 2.263016
1.848734 11.638885 2.179360
1.812020 11.871304 2.256323
2.173476 11.412523 1.371279
2.002592 11.687230 1.793303
2.046428 11.659901 1.730351
1.870739 11.535036 2.273704
1.826221 11.845365 2.282547
2.029346 11.422658 1.750646
2.029355 11.416366 1.760097
1.818393 11.972132 2.289375
1.839719 11.596771 2.275815
1.838565 11.479585 2.191640
1.810142 11.716532 2.269832
2.008316 11.565228 1.824979
2.046455 11.516134 1.755794
1.828290 11.690895 2.291895
1.821354 11.807948 2.295271
1.825014 11.605814 2.296129
1.987247 11.403029 1.843709
1.833854 11.557044 2.305531
1.821370 11.648459 2.299648
1.839279 11.537619 2.318948
2.156516 12.268249 1.162125
2.184701 12.262743 1.159219
2.150244 12.088402 1.218994
2.177795 12.078408 1.220488
2.131409 12.289366 1.188887
1.946498 12.390853 1.764000
2.147670 11.928317 1.272045
1.936136 12.274985 1.754425
2.174956 11.915202 1.276207
2.294590 11.560481 0.922609
2.138263 12.226998 1.298280
2.131707 12.119395 1.242262
1.956031 12.225801 1.806533
2.147833 11.781791 1.322520
1.943034 12.116649 1.790702
2.327615 11.477913 0.938266
2.118272 12.319519 1.218467
2.296708 11.771883 0.937084
2.164233 11.749582 1.328284
1.908601 12.343064 1.767626
2.301841 11.448610 0.981763
2.270457 12.076832 0.940960
2.131428 12.049818 1.349593
2.129061 11.953897 1.291575
1.965830 12.070863 1.846695
2.090783 12.331936 1.380308
2.132492 11.619050 1.367766
1.946268 11.959881 1.823932
2.121496 12.153293 1.267907
2.284553 11.575186 0.963020
2.282509 11.617057 0.996922
1.905847 12.323748 1.899277
2.151707 11.591826 1.374029
1.915530 12.177559 1.801115
2.261765 11.912918 1.002339
2.127034 11.890766 1.398416
2.128032 11.805378 1.338469
2.225607 12.233008 1.007986
1.960629 11.899149 1.878394
2.091048 12.163354 1.427820
2.127505 11.483666 1.412028
2.284294 11.722230 0.950875
1.936836 11.791713 1.849991
2.125520 11.995914 1.314669
2.288681 11.456607 1.018489
2.276706 11.485579 1.052758
1.912601 12.161045 1.933785
1.926171 12.031110 1.833703
2.159704 11.477082 1.423560
2.249649 11.753868 1.060445
2.115713 11.728518 1.442028
2.117422 11.646045 1.381061
1.899613 12.253124 1.816409
2.220246 12.066502 1.066302
2.122084 12.217401 1.272381
2.091682 12.010117 1.474242
1.953222 11.734114 1.907935
2.274988 11.575693 1.004436
1.937990 11.653666 1.880201
2.273497 11.868079 0.922769
2.120780 11.835853 1.357386
1.908814 11.988849 1.960196
1.927121 11.875605 1.861043
2.248744 11.623149 1.115058
2.051239 12.310603 1.507468
2.113475 11.508817 1.421763
2.108294 11.582517 1.483714
1.912277 12.103341 1.846784
2.215816 11.913897 1.120771
2.116047 12.035606 1.314961
2.091838 11.864795 1.516398
1.873013 12.255022 2.028611
2.311771 11.636376 0.854270
1.953905 11.596458 1.938917
2.271767 11.446426 1.055622
1.887720 12.352529 1.812130
2.262307 11.708948 0.976359
1.940627 11.527538 1.909166
2.113436 11.681805 1.396763
1.907145 11.832535 1.986320
1.921935 11.718229 1.885549
2.049892 12.147058 1.547607
2.237671 11.483762 1.165214
2.112904 11.465456 1.527199
1.917528 11.950755 1.872731
2.204964 11.756998 1.172163
2.118371 11.884325 1.356314
1.874938 12.091721 2.054047
2.083633 11.710468 1.555370
1.901342 12.194966 1.840587
2.259566 11.572289 1.026423
2.106756 11.538533 1.434968
1.925426 11.586086 1.911658
1.912960 11.698939 2.015847
2.049314 11.992532 1.587518
1.823467 12.358684 2.121488
1.922435 11.803624 1.898275
2.195918 11.614267 1.220113
2.108054 11.720937 1.393417
1.873567 11.931358 2.074708
2.072717 11.563913 1.590060
2.293931 11.372568 0.965014
1.909941 12.039096 1.866382
2.267027 11.458635 1.073767
2.104565 11.409358 1.471409
2.046612 11.843629 1.623304
1.932020 11.468330 1.938833
1.908150 11.556903 2.039256
1.829139 12.200274 2.142924
1.918227 11.652277 1.919061
2.191019 11.484094 1.265586
2.101640 11.573796 1.428598
1.871899 11.782557 2.095767
2.071891 11.441586 1.626448
1.912193 11.877888 1.887123
2.044518 11.706380 1.657447
1.830319 12.042287 2.161386
1.921584 11.522595 1.941280
2.112249 11.461603 1.465638
1.876067 11.654178 2.120374
1.916774 11.736029 1.909801
2.036821 11.565989 1.688446
1.835239 11.902650 2.181877
1.878957 11.531858 2.143705
1.917342 11.594203 1.928721
2.042827 11.456124 1.724030
1.840392 11.773299 2.202455
1.921891 11.467035 1.949111
1.835638 11.631433 2.215572
2.158901 12.427754 1.268409
2.313066 12.178011 0.884954
2.122675 12.372094 1.314519
2.233928 12.365435 1.050606
2.285895 12.033966 0.943243
2.198207 12.305937 1.186792
2.125488 12.282152 1.355801
2.167168 12.286153 1.312615
2.296711 12.012472 0.939318
2.287637 12.010153 0.921602
1.957712 12.472250 1.832078
2.132521 12.329883 1.288631
2.140908 12.240401 1.355351
2.273872 11.873308 0.989034
2.277315 12.244117 0.969620
2.231571 12.198905 1.106282
2.198259 12.152989 1.233621
2.111933 12.096954 1.385833
2.155231 12.118446 1.350896
2.281831 11.855437 0.990476
2.012508 12.409995 1.745684
2.285472 11.867304 0.971044
2.153709 12.294347 1.266318
1.970344 12.336710 1.861116
1.911718 12.309766 1.922574
2.124817 12.155354 1.328551
1.913806 12.356892 1.900246
2.128768 12.063352 1.388261
2.257146 11.717953 1.032445
2.154030 11.978229 1.387484
2.121578 11.967741 1.418898
2.198945 12.010190 1.278387
1.909261 12.399576 1.849019
2.221660 12.032377 1.155857
2.266227 12.069293 1.027363
2.297449 11.870952 0.931801
2.277617 11.724006 1.038375
2.045015 12.331194 1.650215
2.323595 11.738791 0.928232
2.014161 12.252337 1.773758
2.274221 11.720566 1.017895
2.150553 12.131904 1.310009
1.983679 12.209540 1.888972
1.924674 12.166721 1.940819
2.140324 12.029478 1.370149
1.925600 12.210441 1.920736
2.121695 11.907563 1.420875
2.260432 11.598087 1.073720
2.146049 11.836040 1.422910
2.114158 11.816340 1.446861
2.187291 11.858591 1.317665
1.929889 12.271314 1.878529
2.214481 11.882409 1.202589
2.288244 11.726616 0.983351
2.277018 11.606558 1.082654
2.260024 11.912855 1.081244
1.949075 12.347299 1.834031
2.317682 11.610714 0.978557
2.049660 12.178933 1.684456
2.019650 12.110646 1.802222
2.273232 11.596159 1.061642
1.977026 12.053002 1.906436
2.151163 11.983546 1.352527
2.302873 11.720431 0.948817
1.925299 12.011204 1.952897
2.128057 11.868940 1.404887
1.935895 12.075109 1.941298
2.121049 11.771957 1.453153
2.270991 11.496722 1.113443
2.143153 11.707756 1.456681
2.177651 11.718865 1.355960
2.119961 11.693560 1.477448
1.942243 12.134704 1.903112
2.210878 11.747325 1.245260
2.278916 11.498797 1.126004
2.281307 11.593665 1.030643
2.089104 12.089067 1.597583
1.957282 12.199781 1.861732
2.251302 11.762665 1.132167
2.313712 11.492620 1.026335
2.044633 12.020300 1.713368
2.015508 11.961688 1.825799
2.351670 11.501079 0.915298
2.278679 11.488254 1.104376
1.977463 11.917341 1.927185
2.142133 11.831596 1.390838
1.828018 12.303020 2.282834
2.302357 11.599087 1.001017
1.928885 11.870547 1.965458
2.128865 11.736928 1.439806
1.925260 11.903750 1.949321
2.117491 11.639309 1.482622
2.143660 11.593044 1.490550
2.118359 11.567215 1.503693
2.178465 11.600666 1.394038
1.936864 11.975217 1.918968
2.204552 11.614401 1.288009
2.284310 11.481642 1.076543
1.965237 12.061320 1.887462
2.087069 11.935832 1.632662
2.245716 11.628642 1.179417
2.045196 11.879847 1.742481
1.879540 12.253901 2.182621
2.010278 11.819787 1.847939
1.975423 11.787028 1.945418
1.834956 12.154442 2.297135
2.139974 11.698544 1.428427
1.928713 11.734525 1.976424
2.303753 11.484945 1.049549
2.122812 11.604734 1.472680
1.935280 11.784837 1.969268
2.120478 11.524152 1.513081
2.149806 11.491934 1.524381
2.125609 11.460277 1.532356
2.179067 11.490625 1.430586
1.939413 11.838606 1.937575
2.209479 11.505898 1.329565
1.957283 11.904081 1.905838
2.084703 11.793447 1.664886
2.246968 11.510732 1.224826
2.043392 11.745733 1.771081
1.886843 12.107398 2.203373
2.014404 11.701570 1.874353
1.976897 11.671276 1.965751
1.938048 11.622277 1.994108
1.833534 12.002989 2.306305
2.135336 11.570839 1.463499
2.124112 11.489254 1.504886
1.939727 11.662783 1.985568
1.947704 11.720264 1.958828
1.955427 11.769296 1.926271
2.081800 11.657824 1.697291
2.043168 11.621098 1.798404
2.014703 11.586097 1.897609
1.980545 11.563808 1.986865
1.893097 11.967056 2.223130
1.938638 11.500195 2.006132
2.143894 11.468963 1.500077
1.946379 11.551792 2.003770
1.948228 11.597857 1.977008
1.962937 11.654517 1.950298
2.044122 11.506326 1.825278
2.077257 11.529550 1.726644
1.890041 11.820850 2.236287
1.963555 11.536777 1.971159
1.887366 11.681619 2.249973
2.177071 12.333597 1.200387
2.296186 12.205517 0.979370
2.142589 12.364874 1.412758
2.177974 12.182096 1.238366
2.282015 12.048095 1.028689
1.975031 12.434426 1.736468
2.184384 12.415025 1.290111
2.193005 12.304931 1.192469
2.142073 12.218078 1.449022
2.179730 12.039854 1.274744
2.350021 12.103502 0.908788
2.276373 11.911021 1.075965
1.983543 12.285462 1.758769
2.316322 11.789635 0.933490
2.189254 12.270840 1.333735
2.189539 12.148084 1.233361
2.143396 12.084406 1.484717
2.175915 11.898268 1.308166
1.942237 12.337773 1.989207
2.271564 11.784103 1.121200
2.331581 11.942621 0.962586
1.992006 12.144666 1.779562
1.993377 12.354118 1.736353
2.313679 11.665385 0.977277
2.203232 12.278268 1.163958
2.221288 12.327533 1.204478
2.182192 12.116023 1.374364
2.186007 12.000307 1.272305
1.982054 12.411454 1.876081
2.136343 11.946244 1.516169
2.178960 11.775834 1.341732
1.952655 12.211984 2.010992
2.270179 11.668718 1.162556
1.995696 12.421035 1.685807
1.998227 12.010259 1.799860
2.314812 11.795676 1.012933
2.000218 12.209439 1.760658
2.315005 11.552361 1.018798
2.195438 12.114285 1.208644
2.263295 12.378320 1.069497
2.215946 12.167301 1.252154
2.329780 11.671907 0.955060
2.175417 11.971670 1.411340
2.191972 11.877633 1.309798
1.990869 12.274515 1.902448
2.132863 11.819706 1.546182
2.172268 11.644547 1.371290
1.946302 12.065369 2.025115
2.219824 12.250175 1.136746
2.268287 11.558225 1.202546
2.006044 12.280382 1.715899
1.999710 11.873919 1.816425
2.305549 11.667002 1.059326
2.002911 12.067092 1.783089
2.022293 12.359106 1.782474
2.190280 11.968998 1.250470
2.258770 12.211583 1.124314
2.209973 12.017343 1.295830
2.324549 11.551760 1.000503
2.168577 11.836385 1.446369
2.176796 11.729689 1.342094
1.993651 12.134955 1.926002
2.131325 11.701811 1.577822
1.945051 11.933936 2.040445
2.169257 11.526763 1.400974
2.214021 12.092136 1.184384
2.005986 11.755933 1.836148
2.007464 12.129183 1.740770
2.022967 12.363007 1.667181
2.307163 11.560534 1.105103
2.351369 11.694468 0.947063
2.004135 11.931234 1.802930
2.024368 12.209483 1.810521
2.188173 11.834748 1.289681
2.252675 12.055827 1.174344
2.205754 11.877732 1.337811
1.781429 12.165738 2.337574
2.124092 11.583584 1.604503
2.168619 11.719352 1.481978
1.984244 11.982791 1.942559
2.179511 11.616812 1.376989
1.943380 11.810170 2.055533
2.330295 11.550855 0.963626
2.065698 12.286948 1.691417
2.206816 11.944271 1.230114
2.011358 11.643231 1.855333
2.008072 11.992414 1.765593
2.031204 12.222463 1.699860
2.012806 11.812426 1.825405
2.342318 11.568668 0.997032
2.024620 12.064960 1.837683
2.181920 11.702835 1.327019
2.199608 11.747703 1.376711
2.240149 11.897855 1.222389
1.796716 12.048939 2.350171
2.163026 11.599300 1.513947
1.985659 11.857981 1.964455
2.184397 11.512981 1.409802
1.797991 12.209493 2.302539
1.954497 11.715120 2.078658
1.814839 12.395338 2.248965
2.200319 11.805575 1.271800
2.072257 12.145225 1.726285
2.005967 11.519604 1.868602
2.012779 11.867855 1.790150
2.010382 11.686760 1.843476
2.023582 12.061291 1.725229
2.018797 11.919609 1.861154
2.184222 11.590360 1.362749
1.797197 11.909337 2.350975
2.191038 11.618516 1.412870
2.234288 11.760747 1.267257
1.993174 11.751323 1.989032
1.957560 11.611510 2.096035
1.811033 12.085450 2.316360
1.846970 12.355824 2.286869
1.817582 12.243627 2.259080
2.200675 11.686036 1.313643
2.014268 11.744928 1.813638
2.062508 11.985070 1.753814
2.009366 11.569148 1.862017
2.028978 11.935617 1.754309
2.187014 11.485749 1.398605
2.019954 11.794394 1.886793
2.191185 11.508847 1.449884
1.989937 11.633721 2.007713
2.236954 11.644860 1.309661
1.812668 11.948883 2.321108
1.857080 12.215363 2.305973
1.824236 12.109170 2.272454
2.013839 11.625202 1.834684
2.194487 11.563281 1.351506
2.029252 11.808399 1.780489
2.062027 11.850492 1.783163
2.021999 11.677526 1.911269
2.228210 11.518939 1.350244
1.816442 11.825616 2.330166
1.863920 12.079214 2.322669
1.832399 11.985541 2.287399
2.019062 11.520344 1.858545
2.027684 11.687173 1.805342
2.062967 11.723966 1.812961
2.018474 11.561311 1.932787
1.824049 11.715936 2.341786
1.859884 11.930261 2.331885
1.837336 11.864434 2.300814
2.027934 11.573599 1.829815
2.053166 11.591984 1.836647
1.827422 11.605804 2.350405
1.838939 11.743966 2.311136
1.860271 11.799163 2.345520
1.845909 11.640641 2.326663
1.861643 11.678303 2.359553
2.214578 12.320457 1.043304
2.221483 12.336050 1.088633
2.209388 12.165612 1.085513
2.218537 12.197143 1.133872
2.052968 12.354971 1.547960
2.201983 12.021663 1.125017
2.226656 12.301470 1.027298
2.204510 12.047021 1.176823
2.053827 12.284616 1.599322
2.037244 12.179438 1.568536
2.260486 12.221393 1.016885
2.201929 11.893631 1.162735
2.209874 11.933289 1.218669
2.212507 12.135923 1.072802
2.057462 12.155735 1.630739
2.039055 12.045065 1.593278
2.244450 12.064212 1.065898
2.099988 12.347462 1.488632
2.211673 11.787916 1.200369
1.828047 12.280826 2.118439
1.854207 12.366415 2.165678
2.212979 11.823185 1.258880
2.218227 12.011836 1.116189
2.234504 12.287141 0.991312
2.034374 12.236736 1.541093
2.058805 12.033173 1.659208
2.050310 11.929827 1.620512
2.326467 11.595450 0.989155
2.240368 11.936492 1.111195
2.095807 12.197616 1.522815
2.206179 11.666963 1.234469
1.851346 12.221644 2.173862
1.829010 12.132646 2.124053
2.129227 12.412246 1.364137
2.201247 11.696548 1.295168
2.212862 11.878306 1.156426
2.053721 12.129966 1.574131
2.307954 12.140152 0.942675
2.222452 12.125713 1.040634
2.060634 11.915688 1.686653
2.328909 11.659659 0.866601
2.301579 11.428033 0.980873
2.061243 12.365619 1.495676
2.053175 11.811072 1.643020
2.295673 11.458567 1.032188
2.241837 11.820728 1.155764
2.092692 12.061585 1.555654
1.838091 12.318063 2.101991
2.204302 11.553031 1.266889
1.853088 12.094677 2.186503
1.836779 12.004926 2.132680
2.122920 12.252561 1.403256
2.202960 11.595646 1.331458
2.211717 11.758740 1.195542
2.052922 11.996029 1.599808
2.224688 11.997390 1.086801
2.060717 11.803310 1.713204
1.894835 12.300496 2.073463
2.284407 11.974825 0.995641
2.345262 11.570316 0.889779
2.044551 12.186879 1.523338
2.051979 11.691999 1.664947
2.263263 12.295117 0.954595
2.233121 11.697498 1.196662
2.095747 11.942658 1.589200
1.837250 12.166822 2.108206
1.857762 11.979197 2.199815
1.844873 11.887333 2.143811
2.182924 11.471869 1.362392
2.120955 12.108725 1.442818
2.211028 11.646939 1.232321
2.050892 11.868683 1.625330
2.057110 11.692005 1.737472
1.890849 12.152452 2.086298
2.221936 11.869460 1.131599
2.275023 11.840721 1.043886
1.921631 12.381703 1.955551
2.323449 11.445688 0.937195
2.310418 11.430507 0.956450
1.845317 12.359160 2.059392
2.062731 12.081308 1.558840
2.053591 11.582535 1.685976
2.251503 12.134750 1.008346
2.174345 12.328596 1.280361
2.240608 11.600554 1.238608
2.094071 11.822742 1.618543
1.862648 11.871067 2.214501
1.839577 12.031725 2.117788
1.854989 11.780145 2.155699
2.123695 11.983021 1.480684
2.051145 11.579766 1.759852
2.219536 11.550509 1.268460
2.061436 11.762409 1.652691
1.893794 12.026742 2.103716
2.218217 11.746738 1.173408
2.082134 12.318829 1.476794
2.271171 11.720366 1.090531
1.928766 12.244651 1.979236
1.847629 12.212302 2.072224
2.060786 11.946782 1.587857
2.235627 11.979447 1.058888
2.087807 11.701926 1.646128
1.868151 11.768992 2.230171
2.168462 12.170968 1.325906
1.847294 11.913630 2.130173
1.864296 11.676455 2.167919
2.120796 11.855250 1.514435
2.052039 11.636316 1.674082
1.897842 11.911257 2.121545
2.215863 11.632862 1.212794
2.069053 12.152234 1.508735
2.263231 11.602379 1.135282
2.316940 11.431712 0.915840
1.928553 12.106149 2.000112
1.849597 12.074909 2.083938
2.060824 11.826248 1.615883
1.870354 11.667589 2.242731
2.233953 11.851785 1.106460
2.088641 11.597493 1.675209
1.965911 12.326642 1.862334
1.849500 11.794453 2.140450
2.160672 12.020164 1.367235
1.871345 11.575498 2.178945
2.055720 11.533664 1.697615
2.117062 11.733670 1.547205
1.905874 11.808420 2.142401
2.319062 11.735645 0.979540
2.224132 11.536917 1.252190
2.073909 12.025507 1.544455
2.238235 11.467001 1.176680
1.926863 11.970484 2.017696
1.855652 11.953839 2.099371
1.870229 12.270656 2.034715
2.062266 11.710978 1.643235
2.235588 11.737005 1.152999
1.866724 11.706982 2.160671
1.974788 12.190531 1.892407
2.163176 11.894952 1.408345
1.907229 11.700560 2.157664
2.115744 11.622099 1.579906
2.315463 11.619950 1.028855
2.078311 11.905467 1.577927
1.935492 11.861951 2.042785
1.860878 11.838061 2.114260
1.870166 12.128889 2.051177
2.055835 11.593670 1.666606
2.227927 11.617630 1.194905
1.872497 11.603549 2.173479
1.969563 12.041574 1.914709
2.158738 11.766994 1.446258
2.072000 11.777381 1.606551
2.281172 11.470672 1.076145
1.937456 11.747499 2.062718
1.871100 11.739678 2.132782
1.866794 11.988700 2.064086
2.240103 11.528857 1.237505
1.972055 11.914158 1.939939
2.151131 11.641591 1.482627
2.066276 11.658042 1.634846
1.934808 11.633939 2.080019
1.874284 11.633984 2.147854
1.874112 11.877036 2.082799
1.971890 11.790773 1.964365
2.156055 11.540838 1.519087
2.070376 11.558324 1.664375
1.880218 11.770164 2.102236
1.974130 11.678291 1.988286
1.886930 11.670244 2.122221
1.891272 11.570283 2.139882
2.271289 12.231509 0.972410
2.272809 12.107274 1.021416
2.331247 12.066969 0.920296
2.314129 12.179134 0.921453
2.232871 12.219216 1.092200
2.193286 12.184988 1.290154
2.121048 12.214124 1.462535
2.264267 11.979281 1.067379
2.318446 11.938036 0.969407
2.029766 12.300027 1.741289
2.307839 12.050213 0.967643
2.231799 12.096870 1.135679
2.190830 12.060740 1.326743
2.170376 12.189468 1.311228
2.070376 12.279201 1.536192
2.326427 12.121433 0.888142
2.298531 12.160690 0.971909
2.125724 12.094060 1.498282
1.935839 12.304797 1.975061
2.262798 11.864629 1.110999
2.007370 12.341159 1.754363
2.308619 11.816628 1.015552
2.279810 12.221219 0.953890
2.206182 12.200772 1.206958
2.029566 12.171547 1.765378
2.299196 11.926805 1.011625
2.180928 12.084702 1.346796
2.228318 11.975493 1.176468
2.189756 11.947256 1.362993
2.085731 12.175891 1.569818
2.155194 12.195923 1.333833
2.321594 12.000515 0.935166
2.288842 12.028907 1.014188
2.128455 11.978242 1.531359
2.281244 12.147368 1.004139
1.894993 12.362351 2.061031
2.014739 12.221056 1.777226
1.939404 12.175816 1.995192
2.259896 11.755662 1.152758
2.345062 11.784761 0.916605
2.307128 11.716580 1.057763
2.281909 12.105423 0.997231
2.205254 12.081765 1.245557
2.038944 12.065460 1.790372
2.292683 11.814369 1.053172
2.045765 12.236755 1.643062
2.171139 12.258589 1.343686
2.176390 11.963808 1.378658
2.227502 11.865619 1.216019
2.184888 11.831287 1.396185
2.085460 12.055926 1.598537
2.171014 12.095910 1.367458
2.314791 11.884755 0.979131
2.281720 11.912290 1.053661
2.169457 12.186407 1.311857
2.006044 12.275782 1.793237
2.270408 12.018183 1.042440
1.896431 12.231238 2.076360
2.122451 11.857577 1.561282
2.023102 12.112068 1.800602
2.344649 11.685779 0.961201
2.009177 12.322313 1.718127
1.942045 12.053971 2.014266
2.271326 11.979840 1.038849
2.256016 11.649283 1.192981
2.294306 11.604747 1.098530
2.208319 11.973172 1.282805
2.039632 11.952694 1.812997
1.993684 12.332594 1.789062
2.287394 11.705441 1.092630
2.057777 12.135133 1.673257
2.167175 12.125154 1.371604
2.176380 11.853857 1.410367
2.185909 11.730623 1.429200
2.221609 11.752520 1.253411
2.175432 11.986852 1.398459
2.088433 11.946162 1.628002
2.173663 12.077648 1.346158
2.303911 11.769574 1.022161
2.285348 11.809721 1.092179
2.336128 11.438978 0.948071
2.013189 12.158470 1.812459
2.271143 11.906889 1.078563
1.895024 12.103283 2.089066
2.029612 12.003662 1.822880
1.859263 12.271888 2.158109
2.117238 11.742603 1.589184
2.019082 12.217641 1.743917
2.270113 11.871228 1.078841
2.335186 11.579553 1.004675
1.940583 11.933626 2.032008
2.313911 11.534040 1.139289
2.201776 11.857719 1.317340
2.270165 11.568389 1.233146
2.038931 11.843783 1.834548
2.009001 12.221442 1.809437
2.284255 11.606564 1.130047
2.065583 12.032291 1.700853
2.166363 12.005593 1.398712
2.348459 11.760912 0.916059
2.171223 11.743433 1.438753
2.346469 11.751763 0.920139
2.335517 11.457318 0.928820
2.174240 11.874047 1.426114
2.173559 11.618777 1.457256
2.219253 11.652934 1.289142
2.087714 11.836636 1.655689
2.167333 11.955492 1.377711
2.299562 11.667211 1.061664
2.279341 11.701221 1.127605
2.025900 12.054088 1.833548
2.272661 11.801301 1.112681
1.826426 12.347704 2.248352
2.024302 12.108492 1.767101
1.873704 12.172404 2.177949
1.905855 12.000379 2.108689
2.030879 11.891170 1.840960
2.359869 11.575546 0.946355
2.272341 11.772520 1.116300
2.112519 11.636401 1.617202
2.299818 11.452321 1.043930
2.192394 11.744526 1.349663
1.945162 11.828573 2.052033
2.232559 11.436341 1.266345
2.038611 11.740938 1.854947
2.014633 12.105290 1.826327
2.059404 11.913212 1.721808
2.286465 11.515203 1.166800
2.162692 11.888286 1.423586
2.346288 11.659481 0.954990
2.345298 11.654138 0.960292
2.163769 11.634874 1.466497
2.169831 11.762929 1.452779
2.165865 11.851222 1.407561
2.180836 11.533101 1.489238
2.225436 11.565569 1.324855
2.081276 11.726113 1.678834
2.302811 11.577806 1.100411
2.277755 11.600043 1.161997
2.025236 11.937607 1.850045
1.832421 12.233621 2.257478
2.267364 11.693934 1.145600
2.029521 12.005736 1.789962
1.878237 12.063390 2.191354
2.025285 11.778729 1.857055
1.908311 11.892278 2.124298
2.265434 11.669309 1.151453
2.322704 11.446128 0.985682
2.332601 11.429448 0.956006
2.088344 11.511057 1.637264
2.190577 11.646109 1.380443
1.953533 11.733327 2.074385
2.023909 11.998068 1.843493
2.036404 11.639584 1.873846
2.066239 11.818455 1.747953
2.168179 11.788261 1.450131
2.346213 11.563562 0.991397
2.348552 11.564736 0.999028
2.356204 11.514822 0.939854
2.170857 11.550139 1.495637
2.161705 11.652951 1.477264
2.163055 11.748976 1.437123
2.197356 11.445587 1.352644
2.079925 11.626141 1.703420
2.270739 11.453174 1.135360
2.277934 11.509266 1.195202
1.842856 12.132589 2.271411
2.026384 11.829702 1.866137
2.269691 11.599515 1.177771
2.025901 11.895419 1.808404
1.880917 11.954957 2.203661
2.028489 11.683001 1.876068
1.911683 11.791659 2.139546
2.264406 11.575031 1.186735
2.202451 11.568596 1.413450
2.026242 11.888182 1.857414
2.036569 11.546412 1.893933
1.953015 11.632353 2.091535
2.061011 11.712330 1.768619
2.164010 11.683208 1.473181
2.313228 11.438751 1.025989
2.305832 11.429708 1.035785
2.156914 11.647516 1.463653
2.142170 11.427549 1.514824
2.161330 11.557714 1.502660
2.063795 11.512445 1.722275
1.851388 12.033969 2.283464
2.028446 11.729280 1.881870
2.271911 11.509686 1.207972
2.024140 11.791848 1.827228
1.883103 11.851471 2.214848
2.021445 11.577179 1.889902
2.241509 11.461908 1.217530
1.919906 11.702818 2.159141
2.168641 11.443036 1.436227
2.027334 11.783031 1.872315
2.052984 11.607524 1.787452
2.154762 11.574928 1.494075
1.940793 11.520586 2.101961
2.170934 11.573658 1.494925
2.148993 11.453821 1.523849
1.855201 11.932685 2.292114
2.064299 11.426515 1.746539
2.026428 11.629436 1.896669
2.026542 11.698647 1.847148
1.889193 11.760501 2.229644
2.019587 11.484611 1.906447
1.926252 11.615467 2.177248
2.028342 11.681560 1.885635
2.038934 11.500231 1.803391
2.146814 11.473779 1.513759
2.145448 11.456687 1.514376
1.858182 11.834867 2.301282
2.031311 11.541404 1.913210
2.026655 11.608203 1.866044
1.893429 11.670108 2.243345
1.905768 11.496371 2.178716
2.021943 11.574152 1.895692
1.865474 11.748297 2.313601
2.011352 11.500796 1.876741
1.902002 11.590042 2.260587
2.018272 11.475492 1.905693
1.861470 11.649660 2.318736
1.888252 11.482776 2.261353
2.230993 12.348305 1.086264
2.269290 12.297659 0.999173
2.291009 12.312813 0.969785
2.117049 12.381857 1.400271
2.223661 12.207022 1.129506
2.257756 12.148745 1.040150
2.275322 12.241662 1.016809
2.069030 12.293072 1.527485
2.279732 12.164791 1.015250
2.127899 12.258075 1.430339
2.123728 12.339046 1.395890
2.226120 12.090523 1.169083
2.143976 12.392035 1.304302
2.260146 12.028608 1.078889
2.120899 12.353539 1.423936
1.914058 12.417974 1.907343
2.291570 12.172668 0.970035
2.269943 12.108943 1.062039
1.918183 12.470831 1.887780
2.140322 12.326626 1.373575
2.076437 12.178604 1.559033
2.152199 12.431729 1.311390
2.130518 12.131792 1.457585
2.274598 12.032641 1.056791
2.228149 11.976233 1.208698
2.129667 12.211091 1.426617
2.141814 12.248212 1.343970
2.260653 11.910873 1.115705
2.110684 12.204128 1.456255
1.873063 12.340690 2.030561
1.927252 12.294441 1.922978
1.907450 12.401722 1.926777
2.188811 12.300205 1.226328
2.292607 12.048496 1.017001
2.264946 11.984085 1.105253
2.308558 12.013381 0.993394
1.927434 12.340554 1.905639
2.081424 12.066903 1.587056
1.936540 12.413234 1.869170
2.132359 12.176299 1.406171
2.162782 12.309541 1.352521
2.131755 12.009364 1.483705
2.271248 11.910896 1.097070
2.336356 11.748639 0.995940
2.223764 11.860711 1.245804
2.131110 12.084994 1.456791
1.940332 12.345750 1.839506
2.258828 11.798635 1.150235
1.985312 12.437231 1.729997
2.114978 12.087672 1.488375
2.148265 12.129349 1.382901
1.949772 12.482376 1.826710
2.316807 12.062972 0.976020
1.876296 12.216114 2.044299
1.937367 12.174395 1.939216
1.917958 12.282549 1.949949
2.366397 11.612736 0.874019
2.186456 12.160388 1.270119
2.279016 11.912376 1.059810
2.349470 11.723022 0.896888
2.262166 11.867446 1.147167
2.294254 11.880720 1.039127
1.945518 12.230661 1.927216
2.076351 11.945059 1.612310
1.948295 12.290232 1.891022
2.138504 12.059291 1.439409
2.135208 11.895149 1.508526
2.146811 12.152127 1.386752
2.270994 11.799371 1.135602
2.359700 11.666372 0.901257
2.222857 11.755954 1.279921
2.333985 11.645326 1.035868
2.131535 11.964211 1.484195
2.260533 11.694424 1.182980
1.949593 12.223117 1.864770
2.312896 11.852792 0.927072
2.110610 11.963617 1.518481
2.147716 12.005075 1.417287
1.886648 12.112465 2.063081
1.992481 12.300000 1.759374
1.958915 12.351530 1.850704
2.303525 11.925010 1.024523
1.944596 12.053841 1.951934
1.921465 12.157964 1.968576
2.369790 11.500022 0.889854
2.367256 11.519619 0.914646
2.360164 11.571329 0.982820
2.279401 11.802294 1.101587
2.257052 11.756304 1.186794
2.188047 12.034621 1.310915
2.291178 11.766273 1.083523
1.946886 12.100280 1.940203
2.077675 11.839968 1.638127
1.956870 12.168901 1.911836
2.145048 11.949226 1.471031
2.126765 11.770436 1.529862
2.266525 11.688432 1.170698
2.155411 12.037838 1.423546
2.216470 11.649231 1.312291
2.321204 11.536781 1.074307
2.137976 11.859632 1.513405
2.254560 11.586431 1.214908
1.891833 12.003759 2.078034
2.115355 11.858677 1.549419
1.961274 12.112329 1.892015
2.145351 11.886842 1.450586
1.962561 12.219634 1.872548
1.994636 12.164087 1.786998
2.299152 11.809826 1.069807
1.951945 11.941495 1.965923
2.367351 11.575680 0.887114
1.924573 12.041048 1.987273
2.325609 11.439374 1.018659
2.256750 11.654828 1.223350
2.272906 11.687705 1.140862
2.360997 11.540013 0.984968
2.181841 11.904172 1.348850
2.288450 11.661503 1.125099
2.080868 11.740714 1.664693
1.949254 11.980110 1.954015
2.369108 11.514709 0.884576
1.956109 12.040349 1.926590
2.126136 11.664107 1.552919
2.139714 11.827751 1.499573
2.269786 11.593149 1.206274
2.222328 11.562700 1.345323
2.335776 11.446348 0.983745
2.158997 11.924862 1.458588
2.135135 11.745099 1.537761
1.889117 11.888552 2.088486
2.242088 11.474482 1.243090
2.112304 11.749051 1.577498
1.959836 11.985416 1.910496
1.973190 12.108676 1.896991
2.141622 11.771550 1.483163
2.340946 11.672060 1.022004
1.954677 11.830096 1.977316
1.930396 11.933796 2.005469
2.002236 12.046579 1.814021
2.358958 11.472026 0.931467
2.289715 11.691407 1.112903
2.259163 11.563013 1.259404
2.274505 11.590234 1.178970
2.180582 11.790673 1.385387
2.066494 11.624435 1.683149
1.959575 11.878316 1.971991
2.296983 11.573112 1.166143
1.963367 11.933813 1.946344
2.128657 11.565252 1.575435
2.134346 11.715405 1.526538
2.379755 11.484152 0.877996
2.237995 11.460495 1.235416
2.193551 11.437528 1.371482
1.897171 11.795888 2.105013
2.151070 11.801935 1.488902
2.129095 11.633146 1.560679
2.107368 11.641821 1.603654
1.958983 11.869990 1.930243
1.972219 11.985040 1.915467
2.136874 11.661570 1.512970
1.959277 11.724536 1.989458
1.934938 11.832206 2.024181
2.332544 11.562030 1.066728
2.289672 11.590836 1.153946
2.002075 11.922565 1.838988
2.231558 11.438909 1.290409
2.248385 11.464104 1.212739
2.054870 11.515997 1.701909
2.171543 11.671581 1.419465
1.962496 11.771471 1.986264
2.258738 11.435001 1.200521
1.960340 11.814417 1.959648
2.108698 11.445202 1.590502
2.128445 11.603451 1.551901
1.904376 11.706697 2.122018
2.150457 11.695941 1.520136
2.136820 11.544829 1.587056
2.096935 11.533540 1.627661
1.969732 11.774563 1.955183
1.974566 11.874336 1.935881
1.962594 11.624636 2.002117
1.936250 11.727735 2.041422
2.138094 11.563241 1.544148
2.257860 11.460341 1.190463
2.002795 11.807859 1.862738
1.964533 11.669925 2.000212
2.181147 11.582129 1.455539
1.967650 11.719750 1.979065
1.896149 11.598665 2.129132
2.141393 11.524758 1.582526
2.139230 11.581093 1.546573
1.963312 11.661762 1.971133
1.977345 11.768764 1.955445
1.974315 11.540015 2.019264
1.935242 11.627856 2.056739
2.115413 11.442099 1.566679
1.991459 11.683599 1.880100
1.967931 11.572793 2.014039
2.150950 11.448082 1.481239
1.968398 11.616614 1.994218
1.892157 11.502864 2.138895
2.123865 11.468679 1.571170
1.924402 11.518422 2.065573
1.979226 11.668518 1.974650
2.002864 11.595148 1.908238
1.976178 11.531664 2.013191
1.978743 11.568305 1.991541
2.223975 12.321068 1.183107
2.234326 12.187234 1.154190
2.227389 12.202343 1.224839
2.061848 12.337838 1.587741
2.061773 12.355118 1.647704
2.309557 12.123862 0.894160
2.193028 12.291072 1.222967
2.233313 12.067575 1.196639
2.225283 12.082527 1.264495
2.071766 12.224397 1.620892
2.049628 12.209005 1.670106
2.204605 12.200439 1.248521
2.301972 12.264966 0.960671
2.196339 12.175102 1.263521
2.233484 11.955982 1.237479
1.871649 12.366405 2.117148
2.345310 11.820890 0.993319
2.211750 11.956306 1.300366
2.070280 12.099089 1.650196
2.019500 12.282631 1.690652
1.871561 12.324594 2.153472
2.064223 12.114406 1.701132
1.816688 12.341544 2.257685
2.209889 12.091821 1.285766
2.304766 12.152377 1.006641
2.328479 11.928885 0.986798
2.037386 12.253387 1.681714
2.192751 12.055486 1.301242
2.332499 11.919583 0.992558
2.363249 11.715863 0.972475
2.224951 11.839458 1.275185
2.159603 12.260761 1.332562
1.874582 12.238748 2.132996
2.334891 11.714302 1.036613
2.216481 11.857203 1.336962
2.197082 12.211752 1.273767
2.077777 11.995708 1.681616
2.030041 12.177624 1.720601
1.873721 12.203713 2.164958
1.845052 12.385946 2.167858
2.308400 12.236325 0.950133
2.066427 12.005030 1.726702
1.829424 12.238729 2.274796
2.207388 11.978454 1.320224
2.322800 12.017879 0.998121
2.042249 12.142737 1.706669
2.294452 12.028436 1.050109
2.323469 11.821592 1.030528
1.995113 12.366131 1.771063
2.258191 12.249327 1.069946
2.200238 11.956928 1.338880
2.320691 11.805879 1.034630
2.168816 12.156194 1.368767
2.348827 11.607075 1.016029
2.040710 12.316403 1.699837
2.225812 11.739047 1.314090
1.868189 12.103814 2.142861
2.327030 11.613783 1.078587
2.209817 11.750778 1.370167
2.203539 12.102080 1.308471
2.325304 12.058290 0.881422
1.830201 12.289335 2.214352
2.074202 11.881933 1.707543
1.851609 12.266925 2.178250
1.876742 12.089417 2.176478
2.039566 12.075193 1.749027
2.313978 12.124907 0.991030
2.068046 11.901509 1.750757
1.841116 12.139400 2.289989
2.195690 11.858699 1.350743
2.315317 11.903308 1.037838
2.194212 12.235859 1.282880
2.052467 12.042345 1.732212
2.253481 12.129822 1.110623
2.284860 11.910194 1.091561
1.997197 12.245819 1.794042
2.315633 11.715594 1.072431
2.316731 11.705758 1.074702
2.193661 11.843202 1.372808
2.168966 12.046127 1.403082
2.032577 12.178592 1.715949
2.316931 11.484164 1.058572
2.214721 11.631690 1.348009
1.880347 12.005350 2.165004
2.030455 12.365717 1.694979
2.199490 11.986183 1.339738
2.333321 11.531797 1.119418
2.198555 11.643446 1.401639
2.364429 11.556655 0.906847
2.359525 11.544245 0.906220
1.837880 12.178682 2.228868
2.303272 12.002843 1.028828
1.859131 12.156292 2.190325
1.875633 11.976576 2.186673
1.840204 12.344534 2.198745
2.066030 11.767253 1.731739
2.037133 11.961267 1.772006
2.060502 11.790687 1.771269
1.843050 12.029510 2.299186
2.192470 11.754871 1.382112
2.196361 12.118546 1.312884
2.305896 11.791132 1.075681
2.249526 12.015100 1.149680
2.279050 11.805142 1.130466
2.054903 11.937201 1.754967
2.010201 12.149614 1.821486
2.304909 11.612715 1.111711
2.311289 11.605849 1.112841
2.184692 11.734047 1.404917
2.168984 11.939741 1.435825
1.958342 12.325126 1.865956
2.128490 12.138052 1.464240
2.038550 12.068731 1.737581
2.215648 11.540108 1.382125
2.035432 12.243821 1.714074
2.200206 11.881834 1.369600
1.881799 11.897052 2.180406
2.197083 11.551867 1.433458
2.352520 11.460302 0.948757
2.341796 11.870327 0.965354
2.354805 11.453955 0.948943
1.841853 12.068218 2.241605
2.297848 11.888324 1.065959
1.865185 12.050411 2.200934
1.842393 12.219712 2.203652
1.881965 11.881600 2.202312
2.037827 11.857575 1.795724
1.829254 12.107105 2.317394
2.062758 11.665008 1.756577
2.057003 11.690285 1.792867
1.844435 11.924557 2.307263
2.191716 11.999390 1.341704
2.188200 11.654534 1.411558
2.304818 11.693990 1.112325
2.254736 11.918344 1.186700
2.008910 12.035537 1.841520
2.269559 11.699370 1.167985
2.054024 11.831893 1.775094
2.273001 11.491332 1.147721
2.322236 11.529039 1.150147
2.162962 11.831717 1.465286
1.970683 12.227485 1.890154
2.176416 11.631495 1.434610
2.131485 12.031886 1.494733
2.046309 11.970183 1.760057
2.039432 12.128137 1.732503
2.192081 11.429835 1.410327
2.194120 11.771096 1.397816
1.885494 11.797883 2.196595
2.340565 11.771667 1.006085
2.173770 11.440354 1.458762
2.363200 11.578700 0.999020
2.369187 11.511864 0.929500
1.835266 12.310448 2.208862
2.287702 11.776550 1.099769
1.847705 11.966327 2.256374
1.868975 11.945444 2.211310
1.856657 12.121877 2.217072
1.884066 11.786269 2.214973
1.832770 12.000356 2.323668
2.036164 11.757538 1.818018
1.850104 11.832715 2.320125
2.053376 11.593555 1.812890
2.067577 11.579026 1.783113
2.193218 11.894334 1.369875
2.240965 11.804006 1.219902
2.296874 11.592284 1.146527
2.184295 11.559324 1.440230
2.009830 11.931508 1.861943
2.270579 11.610475 1.203361
2.048057 11.724222 1.792685
1.969126 12.111615 1.906091
2.137019 11.937243 1.523971
2.160488 11.732665 1.495032
2.189264 11.558411 1.467725
2.051703 11.870745 1.780649
2.043869 12.020302 1.751416
2.355583 11.647923 0.979951
2.189686 11.670779 1.424823
2.336239 11.446677 1.007570
2.330664 11.667153 1.044072
2.327042 11.456336 1.038184
1.890242 11.704360 2.215655
1.843272 12.193688 2.214301
2.287766 11.679271 1.133476
1.858373 12.009282 2.222590
1.871824 11.845768 2.221414
1.852646 11.868814 2.271269
1.887090 11.695687 2.228456
1.824799 12.075986 2.341857
1.835403 11.897072 2.330464
1.848315 11.733051 2.328093
2.026648 11.650034 1.836268
2.061189 11.516904 1.838109
2.187856 11.784716 1.395604
2.238755 11.707628 1.253357
2.046279 11.464568 1.798822
2.299605 11.507432 1.181029
2.169390 11.456439 1.464657
2.010329 11.833312 1.883292
2.260793 11.512969 1.237333
2.045712 11.628233 1.811814
1.824454 12.035444 2.340996
1.972178 12.010340 1.925172
2.127576 11.827238 1.549145
2.146461 11.626307 1.518936
2.050173 11.768564 1.798006
2.156883 11.436841 1.490666
2.048207 11.915229 1.769154
2.356654 11.558105 1.015741
2.183348 11.571938 1.450350
2.333077 11.580806 1.080216
2.369069 11.529261 0.998216
1.855992 12.093328 2.224537
1.888824 11.608303 2.229386
2.287668 11.586579 1.165212
1.866145 11.912003 2.232800
1.872773 11.747562 2.230039
1.888287 11.609291 2.241711
1.825388 11.964162 2.344192
1.856573 11.773870 2.284637
1.840343 11.801090 2.338838
2.036816 11.406485 1.848348
2.034026 11.570102 1.861478
2.180993 11.680764 1.419465
2.239600 11.618765 1.286294
2.011094 11.738435 1.902216
2.049190 11.544854 1.831931
1.974216 11.911637 1.942724
1.821635 11.924666 2.346033
2.125168 11.732428 1.573619
2.159596 11.555618 1.550019
2.043061 11.662568 1.812025
2.051601 11.815449 1.786618
2.325518 11.441476 1.050134
2.171465 11.472910 1.473393
2.300584 11.460715 1.114249
1.817519 12.041617 2.343972
1.859878 11.982587 2.229125
2.309836 11.523209 1.197426
1.884587 11.513532 2.241286
1.877511 11.661013 2.242645
1.869254 11.811090 2.240021
1.828224 11.861466 2.347311
1.900553 11.537864 2.260949
1.849302 11.667642 2.290459
2.180401 11.587254 1.444260
2.245635 11.540170 1.317369
2.011549 11.458223 1.873206
2.000398 11.633515 1.916490
2.027967 11.434635 1.842370
1.977638 11.820051 1.961504
2.120919 11.637265 1.597405
2.137326 11.446713 1.571196
2.044171 11.573729 1.829788
2.048991 11.713114 1.801197
1.823042 11.936751 2.346885
1.862328 11.875685 2.232640
1.871946 11.716006 2.248166
1.881296 11.575207 2.254515
1.865462 11.599660 2.314790
2.197776 11.518454 1.471819
2.010830 11.561082 1.941178
1.978636 11.729395 1.977603
2.129808 11.561668 1.625039
2.038842 11.479059 1.844655
2.044087 11.612606 1.815143
1.871416 11.782811 2.242837
1.874122 11.624941 2.255585
1.877536 11.484312 2.260299
1.993479 11.456739 1.949786
1.972279 11.632719 1.990456
2.099031 11.443847 1.638914
2.052353 11.530748 1.833336
1.873850 11.685946 2.246900
1.889864 11.555195 2.273393
1.976008 11.552658 2.008148
2.031238 11.419304 1.838447
1.876420 11.594536 2.253482
1.961224 11.454356 2.015427
1.896759 11.530272 2.273511
2.225718 12.340867 1.162059
2.223670 12.348661 1.176800
2.248508 12.316708 1.117964
2.171184 12.375115 1.318788
2.148266 12.381281 1.355053
2.216524 12.263606 1.189659
2.210121 12.265675 1.202347
2.236326 12.237300 1.146219
2.245608 12.336149 1.109871
2.260268 12.320990 1.084183
2.231935 12.357171 1.166948
2.158812 12.295655 1.344589
2.141852 12.304267 1.377943
2.193825 12.360048 1.260468
2.147276 12.382417 1.368918
2.221151 12.199111 1.218535
2.209841 12.197614 1.229163
2.232148 12.166860 1.173348
2.062372 12.358461 1.584310
2.231361 12.256676 1.140720
2.246431 12.241159 1.114193
2.266568 12.330785 1.046579
2.268857 12.322141 1.034709
2.211845 12.272044 1.193790
2.233052 12.361067 1.141288
2.162846 12.231467 1.371853
2.147107 12.239006 1.402686
2.184131 12.284042 1.288477
2.220143 12.348689 1.192833
2.143104 12.307364 1.393254
2.220382 12.132314 1.245770
2.209886 12.130102 1.254717
2.069300 12.297317 1.610489
2.233967 12.102569 1.200770
2.238739 12.194735 1.172230
2.247180 12.176132 1.144980
1.985230 12.341887 1.756668
2.252343 12.253159 1.079026
2.217805 12.209275 1.223769
2.256526 12.244085 1.068268
2.087236 12.338456 1.529205
2.147010 12.382803 1.366779
2.216619 12.278727 1.171103
2.291753 12.326087 0.986303
2.296336 12.323106 0.979087
1.940803 12.407728 1.920258
2.160646 12.163841 1.397554
2.151441 12.173516 1.427085
2.185747 12.217399 1.318002
2.243247 12.365494 1.117497
2.206786 12.269449 1.224019
1.985326 12.403541 1.770043
2.145859 12.240546 1.419832
2.218211 12.066545 1.273078
2.211115 12.066124 1.280531
2.076217 12.236176 1.636670
2.229552 12.034842 1.226630
2.232413 12.125134 1.201531
1.985270 12.272064 1.774867
2.243083 12.106647 1.174130
2.255986 12.188884 1.113292
2.218011 12.141810 1.251768
2.263592 12.183451 1.102643
2.247804 12.323899 1.122128
2.095574 12.278138 1.556914
2.143497 12.308390 1.394744
2.220994 12.214636 1.203262
1.936759 12.335469 1.936314
2.157382 12.097788 1.422065
2.280016 12.249571 1.023067
2.286010 12.247416 1.017381
2.144994 12.103417 1.448199
2.116568 12.326043 1.465886
2.178900 12.147205 1.346113
1.965722 12.388663 1.867165
2.242699 12.295531 1.152149
2.209835 12.205481 1.256673
1.980674 12.327446 1.787447
2.150233 12.379065 1.366972
2.144964 12.172796 1.445033
2.210143 11.997884 1.297558
2.152411 12.375033 1.369777
2.206519 11.998352 1.303941
2.066587 12.163877 1.655983
2.225819 11.970057 1.251564
2.227751 12.057812 1.230674
1.989224 12.206477 1.794358
2.238351 12.040224 1.202852
2.246762 12.118086 1.145267
2.213249 12.073536 1.278886
2.250036 12.108779 1.134166
2.227982 12.241622 1.155031
2.083606 12.202479 1.578908
2.146675 12.243063 1.422080
1.941078 12.274117 1.957740
2.212146 12.141629 1.232793
2.156693 12.034244 1.446763
2.266373 12.173495 1.058719
2.268801 12.169502 1.052077
2.144688 12.037666 1.470455
1.972312 12.378160 1.781126
2.116335 12.258926 1.494713
2.178457 12.082805 1.373681
1.964019 12.319315 1.886694
2.227534 12.217681 1.184252
1.981201 12.258219 1.806835
1.842829 12.319823 2.160988
2.198246 12.131777 1.285177
1.983073 12.369952 1.801895
2.144146 12.304000 1.396353
2.204503 11.933537 1.321385
2.137332 12.101024 1.467492
2.203106 11.934116 1.327617
2.059124 12.094451 1.676330
2.144168 12.298956 1.399732
2.222912 11.906415 1.276425
2.225853 11.995343 1.257901
1.989940 12.139603 1.811640
2.233870 11.975255 1.229891
2.206513 12.006602 1.304472
2.243101 12.051949 1.176782
2.252864 12.047527 1.165561
2.230356 12.176573 1.190216
2.082063 12.137794 1.603680
1.943141 12.210808 1.977723
2.141034 12.171798 1.447669
2.157599 11.973873 1.470883
2.210058 12.076810 1.262122
2.269950 12.111978 1.094166
2.269314 12.106738 1.087753
2.148227 11.977049 1.493582
1.974758 12.310340 1.803222
2.107121 12.185821 1.519343
2.176044 12.019740 1.399714
1.961833 12.251226 1.906645
1.830040 12.361136 2.175608
2.228495 12.151799 1.217895
1.979769 12.190317 1.824675
2.202306 12.071293 1.315636
1.837971 12.244129 2.169775
1.982046 12.301236 1.825050
2.144421 12.237469 1.426358
2.201446 11.871691 1.345383
2.138793 12.038484 1.491603
2.064752 12.037582 1.700044
2.203951 11.874648 1.351305
2.220767 11.844805 1.300768
2.145495 12.230860 1.430927
2.222203 11.931505 1.284846
1.990175 12.073980 1.829326
2.236374 11.915758 1.257980
2.236561 11.986908 1.206403
2.206332 11.943651 1.330347
2.242830 11.979749 1.194649
2.083030 12.076508 1.628204
1.939246 12.145498 1.994444
2.228511 12.110890 1.222402
2.009869 12.347254 1.740595
2.135673 12.103825 1.473161
2.147872 11.907091 1.492549
2.211387 12.015627 1.291548
1.968976 12.356686 1.798882
2.140632 11.909431 1.513073
2.261847 12.039163 1.121584
2.258988 12.041664 1.127464
1.978896 12.246636 1.826752
2.107566 12.121644 1.547238
1.960070 12.184629 1.927347
2.168308 11.953471 1.424515
1.822023 12.283243 2.182595
2.220850 12.084169 1.249274
1.980574 12.124381 1.843965
1.836982 12.175418 2.181032
2.196157 12.005892 1.344413
1.979190 12.232058 1.847515
2.061898 11.975318 1.720742
2.194741 11.808912 1.368000
2.145451 12.172978 1.455860
2.135697 11.974777 1.513991
2.190592 11.806940 1.371596
2.214975 11.782263 1.323732
2.217082 11.869596 1.311439
2.144510 12.163557 1.461850
1.994326 12.012589 1.848303
2.225439 11.850054 1.282168
2.197546 11.878955 1.353959
1.936109 12.082229 2.010662
2.230010 11.921874 1.236022
2.238028 11.916083 1.224535
2.085396 12.016050 1.654256
2.220933 12.042365 1.254204
2.014820 12.282385 1.768603
2.138201 12.041566 1.500060
2.145964 11.846922 1.515199
1.971366 12.291609 1.822142
2.205143 11.949284 1.318300
1.802494 12.295586 2.307428
2.137290 11.846586 1.532591
2.256106 11.979409 1.160061
1.975298 12.177724 1.845161
2.255134 11.973628 1.154912
1.828238 12.335885 2.194505
2.105609 12.057313 1.572835
1.828121 12.356189 2.233460
1.960834 12.123289 1.949413
2.170641 11.895773 1.451751
1.827871 12.221356 2.200223
2.213530 12.017089 1.279389
1.981180 12.062999 1.863585
1.835073 12.106480 2.191942
2.188515 11.940571 1.371235
2.056646 11.912900 1.739142
2.134268 11.913343 1.536220
1.982496 12.169072 1.872724
2.197745 11.752312 1.392713
2.140655 12.104694 1.482954
2.197070 11.751227 1.395239
2.216093 11.726096 1.347333
2.212287 11.808232 1.336767
2.134899 12.092660 1.488906
1.989424 11.946116 1.862656
2.223304 11.790295 1.308107
1.930236 12.018263 2.025845
2.194065 11.817469 1.378790
2.233289 11.866262 1.265206
2.237813 11.857737 1.253187
2.077728 11.951175 1.674915
2.214875 11.977915 1.285002
2.132942 11.976847 1.523017
2.141318 11.786055 1.536813
2.005952 12.207065 1.790766
1.970179 12.224700 1.844445
2.206237 11.890809 1.346455
2.136115 11.786607 1.553135
1.820595 12.262235 2.203426
1.972458 12.110851 1.863067
2.253141 11.918059 1.192235
2.254826 11.913882 1.187697
1.825611 12.374317 2.198701
1.957359 12.059477 1.966891
2.100506 11.992641 1.598237
2.163510 11.833348 1.475201
1.828115 12.288200 2.253235
1.829572 12.157946 2.215289
1.976779 11.997111 1.879118
2.216683 11.958226 1.311102
1.838014 12.043855 2.206090
2.052722 11.852212 1.758646
2.186944 11.880495 1.398777
1.979835 12.104095 1.894679
2.130171 11.850313 1.557836
2.190878 11.691343 1.414480
2.133886 12.037749 1.508511
2.188792 11.689434 1.415477
1.853384 12.339996 2.174571
2.210476 11.665906 1.368183
2.210907 11.750510 1.362203
2.130376 12.027676 1.515913
1.984034 11.880907 1.877423
2.219268 11.730972 1.332933
1.933757 11.961778 2.045987
2.192587 11.758797 1.402200
2.224755 11.802569 1.293286
2.078043 11.892958 1.699005
2.230525 11.794821 1.280349
2.132508 11.916595 1.547611
2.139178 11.728593 1.558188
2.212301 11.916207 1.316331
1.973246 12.162567 1.866779
2.004515 12.140567 1.816357
2.197530 11.827065 1.372085
2.133952 11.727296 1.572909
1.818369 12.194593 2.217193
1.976713 12.052253 1.885663
1.820308 12.303570 2.211092
2.244371 11.854767 1.223600
1.956214 11.998577 1.987842
2.244646 11.849764 1.217533
2.101472 11.933212 1.624358
2.159793 11.774563 1.498758
1.816983 12.213667 2.263222
1.826266 12.090031 2.226266
1.973228 11.934213 1.896173
2.209055 11.894756 1.339522
2.050059 11.794152 1.778831
1.835130 11.977442 2.217831
2.177819 11.817108 1.425245
2.182041 11.631711 1.434710
1.981089 12.043350 1.917926
2.126832 11.789321 1.578949
2.136274 11.979140 1.536162
2.183092 11.630146 1.435901
2.198985 11.604676 1.387803
1.853610 12.271156 2.197214
2.199726 11.687520 1.385114
1.922748 11.896963 2.057835
2.211514 11.671618 1.355954
1.982153 11.820284 1.894322
2.127181 11.964421 1.544026
2.186145 11.699317 1.424724
2.075120 11.833452 1.720875
2.223466 11.745794 1.320744
2.230147 11.738280 1.308152
2.133392 11.670199 1.578184
2.126678 11.854043 1.570558
1.968260 12.096532 1.886855
2.206415 11.854110 1.345017
2.196141 11.769339 1.397515
2.133457 11.670256 1.592524
2.008739 12.079668 1.843509
1.819174 12.132798 2.233510
1.967418 11.984653 1.900730
1.815925 12.234913 2.225428
1.950852 11.937056 2.005805
2.245073 11.798504 1.254194
2.243192 11.792491 1.248700
2.094724 11.870425 1.646957
2.153339 11.715080 1.521279
1.819855 12.153331 2.284699
1.826060 12.027062 2.240215
1.970915 11.872094 1.912307
2.049065 11.738362 1.798856
2.204410 11.833437 1.367288
1.845663 11.923678 2.237850
2.180418 11.762708 1.452391
2.121116 11.730023 1.599364
2.185214 11.577462 1.457307
1.975609 11.978581 1.938420
2.180378 11.573006 1.455669
2.127523 11.913538 1.560179
2.201753 11.550787 1.411242
2.189661 11.628960 1.407860
1.921636 11.840217 2.075827
1.844190 12.195695 2.212018
2.203679 11.613170 1.378550
1.986918 11.764589 1.913546
2.126490 11.904573 1.571903
2.180101 11.639484 1.446406
2.070228 11.775282 1.741208
2.214125 11.685120 1.345942
2.223464 11.679207 1.333962
2.132573 11.614469 1.600661
2.125173 11.795364 1.593957
1.967191 12.034729 1.908223
2.199967 11.794174 1.373693
2.192515 11.711506 1.423094
2.127568 11.610919 1.610492
1.821717 12.072374 2.250092
1.970604 11.927629 1.922132
1.816797 12.172214 2.242165
2.005318 12.014511 1.867562
1.944910 11.875848 2.022159
2.238632 11.738573 1.282874
2.144986 11.656035 1.542685
2.093302 11.812694 1.672379
2.237180 11.734053 1.278141
1.829865 11.969270 2.257482
1.819058 12.090217 2.303195
1.969955 11.813552 1.931146
2.043586 11.680510 1.817579
2.194799 11.771310 1.394167
1.841234 11.860096 2.248813
2.122933 11.674039 1.620849
2.173560 11.518039 1.476074
2.167902 11.699840 1.475789
2.173539 11.516191 1.474473
1.968569 11.914794 1.956536
2.122615 11.853066 1.585067
2.193670 11.493198 1.430965
1.918626 11.783908 2.092705
2.190267 11.574058 1.431869
1.843134 12.131133 2.232198
2.204717 11.559759 1.403321
1.983470 11.704949 1.928065
2.181542 11.585713 1.470335
2.061830 11.714383 1.761005
2.114659 11.837734 1.596146
2.209107 11.628318 1.371593
2.220267 11.622872 1.360303
2.122991 11.556949 1.618427
2.122678 11.737355 1.616587
1.962813 11.972538 1.926948
2.198251 11.737754 1.401984
1.825613 12.015525 2.269381
2.183902 11.651018 1.446185
2.120691 11.552253 1.627690
1.814455 12.110074 2.258282
1.963828 11.865290 1.938561
1.943957 11.819150 2.042596
1.999427 11.950101 1.888892
2.087232 11.752849 1.694049
1.830434 11.910189 2.272527
2.229881 11.679437 1.311278
2.142009 11.599296 1.565733
2.231496 11.676161 1.306317
1.817703 12.029263 2.321682
1.967005 11.754498 1.946846
2.040685 11.625158 1.836487
2.191668 11.714067 1.420927
2.117966 11.616781 1.640758
1.840386 11.800200 2.262330
2.168961 11.463184 1.496327
2.167600 11.459615 1.493619
2.164596 11.642553 1.500100
1.962378 11.853993 1.976173
2.123351 11.796344 1.609914
1.913289 11.726544 2.107707
2.178703 11.515582 1.452656
2.196293 11.501627 1.424304
1.975536 11.643249 1.941281
1.838500 12.064742 2.251419
2.168973 11.526055 1.488752
2.058597 11.658487 1.781176
2.117301 11.782428 1.623706
2.200034 11.570942 1.396702
2.206147 11.563739 1.382504
2.119695 11.501966 1.638180
1.961943 11.914934 1.947806
2.116107 11.676926 1.637073
1.822114 11.954017 2.282283
2.187643 11.676302 1.428092
1.818849 12.053812 2.278753
2.178705 11.594169 1.469384
2.111985 11.493126 1.644196
1.962859 11.806746 1.957396
1.939767 11.761165 2.060812
1.997113 11.889378 1.912777
1.826357 11.848998 2.283823
2.135245 11.543425 1.586554
2.079763 11.694032 1.715789
2.222296 11.621981 1.338338
2.220845 11.617462 1.333605
1.963568 11.696707 1.962961
2.036867 11.569577 1.855048
2.179166 11.653049 1.445920
2.107105 11.556639 1.657834
1.844098 11.743318 2.279168
2.160730 11.587427 1.524402
1.960176 11.796520 1.997525
2.109810 11.732289 1.630930
1.917490 11.674852 2.128515
2.175103 11.461909 1.475274
1.972931 11.586596 1.957318
2.190947 11.446589 1.446657
2.163960 11.471557 1.509840
2.056356 11.603776 1.803713
1.841941 12.005951 2.276099
2.108324 11.721389 1.648048
2.194355 11.515356 1.420316
2.203698 11.509443 1.408338
2.123187 11.450107 1.661103
1.954748 11.852952 1.965069
2.112973 11.621980 1.659268
1.826354 11.899562 2.301907
1.816780 11.994971 2.294782
2.179971 11.619744 1.454724
2.171271 11.537213 1.492730
1.959992 11.748639 1.975116
1.937747 11.706038 2.080053
1.989743 11.826900 1.933751
1.827340 11.791413 2.299625
2.126653 11.487092 1.606682
2.079849 11.640374 1.740201
2.219106 11.567495 1.366274
2.216746 11.562744 1.361197
2.027014 11.512912 1.869931
1.961463 11.640640 1.980180
2.178460 11.600112 1.472017
2.101980 11.501188 1.676891
1.832639 11.679328 2.285680
2.154126 11.531604 1.547668
1.959303 11.740772 2.019981
1.915317 11.621530 2.146908
2.112224 11.679687 1.657218
1.962112 11.526006 1.968648
2.047580 11.547388 1.821387
1.836168 11.942035 2.293701
2.103601 11.665120 1.672420
2.192665 11.463096 1.445647
1.954630 11.797388 1.985422
2.198850 11.454994 1.431872
2.108422 11.566214 1.679932
1.822790 11.840808 2.315983
1.958387 11.693158 1.993516
2.167662 11.483536 1.515343
2.178013 11.566033 1.481738
1.928854 11.648694 2.095693
1.827767 11.735989 2.315420
2.069063 11.581176 1.759293
1.985449 11.767518 1.956096
2.205065 11.509314 1.390491
2.209909 11.507329 1.387750
2.024449 11.459959 1.889168
1.960189 11.585710 1.997317
2.170611 11.543512 1.496198
2.103143 11.448271 1.697937
1.911658 11.568287 2.163346
2.139329 11.473687 1.567825
1.956033 11.684871 2.040138
1.835856 11.623709 2.302929
2.103768 11.621541 1.678184
1.952556 11.468042 1.980657
2.040545 11.492370 1.839324
1.835812 11.884117 2.316155
2.095639 11.607568 1.694573
1.956750 11.743785 2.007228
2.098405 11.509054 1.698525
1.954955 11.637216 2.011226
1.929068 11.595529 2.116381
2.162545 11.507030 1.504420
1.821803 11.677088 2.327196
2.060948 11.525427 1.780593
1.987396 11.713416 1.981608
2.200805 11.456403 1.417228
2.206489 11.455550 1.414409
1.959412 11.531369 2.015634
1.907498 11.514453 2.178592
2.160936 11.486451 1.519679
1.839437 11.570474 2.320511
1.954170 11.629792 2.061816
2.102031 11.567419 1.701895
1.955275 11.416438 1.999499
2.039895 11.440826 1.861263
1.947032 11.685300 2.022929
2.090835 11.552202 1.718503
2.081521 11.449676 1.713498
1.948658 11.582370 2.027039
1.925578 11.542326 2.135250
2.162251 11.455587 1.531256
1.823568 11.623381 2.344080
2.042807 11.465271 1.796479
1.975250 11.652480 1.999566
1.945311 11.472235 2.025900
1.904267 11.462696 2.195772
2.087968 11.509679 1.719925
1.947187 11.573857 2.080150
1.946350 11.631893 2.043257
1.812662 11.671128 2.358010
2.075180 11.493146 1.738709
1.945082 11.528225 2.043882
1.924739 11.490723 2.154727
1.965343 11.593504 2.018971
1.934771 11.414934 2.037117
2.086077 11.457359 1.742775
1.945674 11.521168 2.102152
1.938795 11.576270 2.059979
1.926427 11.467927 2.052415
1.828159 11.711416 2.379771
1.919345 11.437958 2.172475
1.966721 11.541558 2.044455
1.934468 11.464619 2.117490
1.927027 11.520031 2.073710
1.925085 11.415743 2.070702
1.961635 11.487039 2.065494
1.916319 11.406758 2.128801
1.924796 11.469455 2.093252
1.955153 11.433544 2.086600
1.915192 11.416076 2.108004
