# .PCD v0.7 - Point Cloud Data file format
VERSION 0.7
FIELDS x y z
SIZE 4 4 4
TYPE F F F
COUNT 1 1 1
WIDTH 27
HEIGHT 1
VIEWPOINT 0 0 0 1
POINTS 27
DATA ascii
-6.638319 41.523544 -0.272596
-6.615760 41.596001 -0.273266
-6.484456 41.394985 -0.218055
-6.612331 41.687271 -0.269550
-6.477396 41.473679 -0.214263
-6.819582 41.972214 -0.291386
-6.614506 41.785431 -0.263886
-6.465937 41.549583 -0.209064
-6.810482 42.071838 -0.286676
-6.611755 41.883202 -0.256580
-6.413051 41.587955 -0.212276
-6.855238 42.226551 -0.271149
-6.627170 42.001743 -0.245444
-6.686934 42.169964 -0.292678
-6.605579 42.084980 -0.238791
-6.665174 41.891342 -0.273224
-6.659452 42.254585 -0.287378
-6.581240 42.169662 -0.231446
-6.631023 41.961044 -0.263573
-6.538219 42.235058 -0.227256
-6.648736 42.361683 -0.277148
-6.876898 42.253536 -0.304883
-6.619050 42.052258 -0.248920
-6.864735 42.349854 -0.295519
-6.805999 42.566090 -0.308634
-6.583978 42.122299 -0.236466
-6.573983 42.221165 -0.218311
