# .PCD v0.7 - Point Cloud Data file format
VERSION 0.7
FIELDS x y z
SIZE 4 4 4
TYPE F F F
COUNT 1 1 1
WIDTH 31
HEIGHT 1
VIEWPOINT 0 0 0 1
POINTS 31
DATA ascii
-13.010183 44.739861 -2.811001
-13.007657 44.798157 -2.836086
-13.015244 44.846371 -2.856154
-13.029558 44.888866 -2.873914
-13.053027 44.922714 -2.886836
-12.929447 45.126770 -2.880632
-13.003341 45.031494 -2.841939
-13.016294 45.041489 -2.850725
-12.921653 45.088268 -2.870798
-13.060719 45.005573 -2.847771
-12.953199 45.049862 -2.874720
-13.072209 45.012741 -2.854564
-13.009030 45.000900 -2.843014
-12.924420 45.012249 -2.864552
-13.032650 44.976463 -2.857525
-12.925529 45.072403 -2.876869
-13.061771 44.978039 -2.854948
-13.008565 44.923618 -2.843494
-13.023078 44.959469 -2.839815
-12.939868 44.997192 -2.868212
-12.951153 44.909512 -2.865723
-13.062469 44.894482 -2.857508
-13.031525 44.893768 -2.841614
-13.038421 44.813225 -2.847303
-12.932450 45.446144 -2.920387
-12.994126 45.227737 -2.861210
-13.029078 45.195900 -2.881171
-13.058289 45.205189 -2.932712
-12.945587 44.758942 -2.830574
-12.961125 44.859131 -2.835188
-12.995744 44.810860 -2.851887
