# .PCD v0.7 - Point Cloud Data file format
VERSION 0.7
FIELDS x y z
SIZE 4 4 4
TYPE F F F
COUNT 1 1 1
WIDTH 167
HEIGHT 1
VIEWPOINT 0 0 0 1
POINTS 167
DATA ascii
-13.861605 44.099464 -5.909842
-13.762508 44.136803 -6.395878
-13.859487 44.504498 -5.750827
-13.798729 44.262569 -6.410153
-13.756566 44.130970 -6.476762
-13.812578 44.400299 -6.408281
-13.821330 44.236343 -6.505947
-13.839756 44.602840 -5.769242
-13.928085 44.616726 -5.632406
-13.892554 44.340317 -6.538250
-13.740548 44.520641 -6.183057
-13.891747 44.641842 -5.701511
-13.783904 44.546677 -6.046198
-13.596869 44.198689 -6.325933
-14.032600 43.924450 -6.489664
-13.653253 44.295712 -6.036644
-13.633612 44.385250 -6.164321
-13.669328 44.408440 -6.034104
-13.748857 44.581383 -5.860560
-13.842453 44.173084 -6.472188
-13.987794 44.552467 -5.553803
-13.848458 44.252773 -6.520195
-13.821952 44.617714 -5.902085
-13.937091 44.457737 -5.645746
-13.812298 44.371765 -6.413158
-14.007662 44.644897 -5.567799
-13.742668 44.506599 -5.907070
-14.138237 44.602116 -5.534899
-13.762229 44.475182 -6.082645
-13.812378 44.461346 -6.446707
-13.940475 44.579422 -5.647517
-13.771743 44.604309 -5.915905
-14.033104 44.613327 -5.513708
-13.689440 44.419655 -6.453114
-13.866123 44.501904 -5.722224
-13.963617 44.596790 -5.505763
-13.738438 44.573662 -5.937500
-13.718594 44.458298 -6.199002
-13.872220 44.626156 -5.724434
-13.937819 44.521191 -5.537682
-13.733631 44.583744 -6.193967
-13.719382 44.515739 -5.990037
-13.797565 44.252529 -6.470586
-13.959328 44.621502 -5.552883
-13.756894 44.607067 -6.009517
-13.766233 44.460564 -6.410130
-14.048451 45.152584 -5.514008
-14.207335 45.191761 -5.549268
-14.062749 45.238701 -5.519289
-14.724788 44.421207 -5.694747
-14.024023 45.202892 -5.539905
-14.728206 44.551178 -5.702801
-13.853109 44.377506 -5.821274
-14.094196 44.152580 -5.676193
-13.986634 44.538116 -5.582258
-14.071658 44.333721 -5.596545
-13.828259 44.613548 -5.775700
-13.983690 44.407047 -5.635109
-14.087432 44.215565 -5.673566
-14.197845 44.334354 -5.575978
-13.987299 44.561703 -5.586992
-13.694424 44.490608 -6.171694
-13.932079 44.384239 -5.716498
-13.706446 44.242123 -6.421828
-13.731102 44.234810 -6.397882
-14.003620 44.652386 -5.587384
-13.750036 44.494217 -5.959518
-13.796342 44.650818 -5.887586
-13.772310 44.503632 -5.928347
-13.729675 44.587162 -6.066083
-14.016686 44.605404 -5.555617
-13.967958 44.511139 -5.601855
-13.958489 44.620247 -5.611906
-13.990314 44.595089 -5.594231
-14.279245 44.317657 -5.632101
-13.691443 44.518044 -6.173726
-14.019374 44.643246 -5.605991
-13.717144 44.238228 -6.405265
-13.668210 44.581951 -6.281708
-13.897320 44.636009 -5.676180
-13.679808 44.599792 -6.246027
-14.073930 44.653263 -5.632502
-13.783994 44.653412 -5.914040
-14.057897 44.660603 -5.585879
-13.694841 44.584663 -6.196636
-13.984056 44.629864 -5.611922
-13.723700 44.560776 -6.062971
-13.676629 44.535748 -6.240366
-13.693131 44.370605 -6.464721
-13.706525 44.348274 -6.470718
-14.029422 44.657841 -5.620941
-14.242435 44.527355 -5.610315
-13.714208 44.289494 -6.415415
-13.683781 44.556065 -6.286493
-14.128072 44.656528 -5.636045
-14.030639 44.675777 -5.646289
-13.724581 44.515442 -6.433783
-14.255157 44.634514 -5.620045
-14.325189 44.636566 -5.668695
-14.774395 44.471279 -5.701671
-13.782045 43.942188 -5.917832
-13.916607 44.534557 -5.583065
-13.851785 44.644180 -5.670435
-13.804541 44.658253 -5.760816
-13.952275 44.651154 -5.603730
-14.100789 44.481041 -5.523837
-13.806203 44.657585 -5.870982
-13.884749 44.551510 -5.613249
-13.790994 44.657104 -5.902463
-14.123480 44.646683 -5.538114
-13.793066 44.536667 -5.749428
-13.758929 43.949375 -6.004102
-13.933477 44.626358 -5.586345
-13.923067 44.650368 -5.636508
-14.176258 44.633141 -5.590615
-13.836118 44.646927 -5.765618
-13.820717 44.650578 -5.787902
-13.788105 44.656174 -5.829633
-13.978349 44.654911 -5.625869
-13.909617 44.538303 -5.592379
-14.465977 43.890812 -5.674096
-13.935414 44.637486 -5.568856
-14.224225 44.641815 -5.637731
-13.808485 44.635906 -5.730505
-13.820922 44.659172 -5.714930
-13.948198 44.651360 -5.610785
-13.980798 44.660873 -5.608323
-13.957824 44.537399 -5.519403
-13.788675 44.490261 -5.734480
-13.782351 43.943115 -5.919086
-13.830906 44.523640 -5.683055
-13.820625 44.656887 -5.816580
-14.446414 43.889523 -5.660859
-14.266495 44.541370 -5.575435
-14.398592 44.621368 -5.615357
-13.920033 44.646416 -5.599184
-13.993834 44.647842 -5.539934
-13.807810 44.663651 -5.755111
-13.830838 44.662724 -5.729916
-13.870314 44.658951 -5.690258
-14.366454 44.479019 -5.586307
-14.295603 44.640846 -5.599585
-14.423578 43.888817 -5.627491
-14.454973 44.608231 -5.667119
-13.968341 44.658127 -5.637787
-14.415976 43.887012 -5.656724
-14.039202 44.663109 -5.579330
-14.355733 44.607727 -5.656787
-14.488432 43.882275 -5.686325
-14.347252 44.454170 -5.586606
-14.089540 44.653107 -5.624817
-14.443412 44.599419 -5.652756
-14.573197 44.584053 -5.775569
-14.046791 45.175129 -5.528168
-14.316253 44.493412 -5.577718
-14.489108 44.628876 -5.691613
-14.423712 44.586937 -5.628264
-14.418451 44.604084 -5.642731
-14.471005 44.608986 -5.669870
-14.473105 44.606537 -5.687596
-14.397581 44.611046 -5.637633
-14.528010 44.599831 -5.720276
-14.453963 44.607101 -5.682421
-14.588762 44.602196 -5.783555
-14.594343 44.583385 -5.681208
-14.573214 44.595032 -5.776144
-14.650037 44.583633 -5.727479
