# .PCD v0.7 - Point Cloud Data file format
VERSION 0.7
FIELDS x y z
SIZE 4 4 4
TYPE F F F
COUNT 1 1 1
WIDTH 276
HEIGHT 1
VIEWPOINT 0 0 0 1
POINTS 276
DATA ascii
-15.490505 44.428524 -3.997258
-15.434953 44.395554 -4.232984
-15.487073 44.531750 -4.025448
-15.445501 44.488052 -4.262805
-15.373021 44.383461 -4.367414
-15.497062 44.623215 -4.051075
-15.489485 44.758568 -4.183290
-15.432036 44.596207 -4.289724
-15.462753 44.491024 -4.117512
-15.382111 44.483376 -4.397310
-15.509946 44.712032 -4.074322
-15.489528 44.847813 -4.207694
-15.430170 44.693985 -4.314947
-15.455357 44.596039 -4.146025
-15.402899 44.476002 -4.233270
-15.565693 44.455181 -4.001024
-15.489944 44.932842 -4.229214
-15.492161 44.817863 -4.098074
-15.408778 44.803570 -4.338983
-15.449661 44.699657 -4.172237
-15.492949 45.016361 -4.250512
-15.398776 44.582474 -4.262863
-15.525196 44.587040 -4.038024
-15.494969 44.908501 -4.117924
-15.420472 44.889599 -4.363021
-15.447628 44.796448 -4.197453
-15.490594 45.099789 -4.268740
-15.389428 44.688869 -4.290798
-15.508077 44.699127 -4.071618
-15.475617 45.011486 -4.138288
-15.413954 44.984066 -4.383680
-15.437594 44.897751 -4.220524
-15.481130 45.187614 -4.286879
-15.393251 44.785606 -4.316895
-15.499594 45.085823 -4.154902
-15.516661 44.792027 -4.102300
-15.435156 45.061077 -4.404069
-15.439781 44.988537 -4.241134
-15.479227 45.269924 -4.304367
-15.496872 45.175392 -4.171711
-15.377419 44.894135 -4.340433
-15.419510 45.158218 -4.421988
-15.485559 44.908672 -4.131448
-15.454694 45.070778 -4.260644
-15.485775 45.267506 -4.186422
-15.403988 44.971233 -4.363888
-15.504533 44.990311 -4.156996
-15.447125 45.164375 -4.279280
-15.386586 45.076916 -4.384035
-15.513680 45.077847 -4.181264
-15.453536 45.249149 -4.295282
-15.399678 45.160553 -4.404405
-15.520369 45.164776 -4.203626
-15.502816 45.265415 -4.224545
-15.369769 44.471531 -4.254452
-15.364374 44.396988 -4.293661
-15.456756 44.415218 -4.095420
-15.692337 44.300529 -3.963553
-15.440337 44.494064 -4.073987
-15.348990 44.508133 -4.330446
-15.447177 44.511917 -4.139209
-15.318460 44.480579 -4.378772
-15.501618 44.578751 -4.043575
-15.398680 44.436829 -4.244623
-15.467933 44.624546 -4.018576
-15.437186 44.581059 -4.116156
-15.334459 44.613899 -4.365142
-15.694147 44.409863 -3.972740
-15.441429 44.603580 -4.180740
-15.501461 44.657738 -4.080741
-15.388413 44.539864 -4.289058
-15.667971 44.679035 -3.964039
-15.372490 44.743092 -4.346076
-15.423197 44.677704 -4.158774
-15.330617 44.706875 -4.395904
-15.487845 44.747955 -4.117054
-15.479698 44.702957 -4.060932
-15.503884 44.808708 -4.008115
-15.429812 44.698574 -4.220416
-15.387456 44.630424 -4.329630
-15.496701 44.744705 -4.009707
-15.459838 44.789440 -4.093945
-15.528728 44.875313 -4.024078
-15.379539 44.821159 -4.372219
-15.422206 44.758980 -4.197370
-15.475605 44.834766 -4.152639
-15.498002 44.888874 -4.041330
-15.421497 44.786568 -4.256471
-15.475614 44.786022 -4.101804
-15.500838 44.816608 -4.048172
-15.387283 44.718674 -4.367359
-15.597526 44.817234 -3.978896
-15.454257 44.870609 -4.128543
-15.374291 44.909164 -4.397467
-15.406381 44.851803 -4.235184
-15.471955 44.912338 -4.184348
-15.486982 44.972221 -4.073362
-15.417963 44.870350 -4.290914
-15.456047 44.880802 -4.142637
-15.481990 44.908146 -4.089018
-15.526484 44.951633 -4.029048
-15.361004 44.829262 -4.405470
-15.448163 44.949810 -4.161782
-15.431549 44.864517 -4.472526
-15.403771 44.930237 -4.268949
-15.460917 44.992607 -4.215712
-15.475873 45.052456 -4.103319
-15.416653 44.948448 -4.323193
-15.458154 44.954094 -4.177645
-15.517713 45.028385 -4.063186
-15.482277 44.979801 -4.124152
-15.447049 45.022686 -4.192718
-15.369198 44.904213 -4.438691
-15.456884 45.066071 -4.243958
-15.390531 45.016201 -4.302474
-15.486227 45.113319 -4.128138
-15.410628 45.028584 -4.353572
-15.527750 45.109325 -4.037343
-15.467347 45.020603 -4.210950
-15.508648 45.104141 -4.095938
-15.470774 45.060280 -4.159091
-15.423299 45.114037 -4.223907
-15.453298 45.138386 -4.271482
-15.389433 45.089085 -4.333394
-15.463976 45.199112 -4.156485
-15.403162 45.109001 -4.382594
-15.507187 45.191799 -4.070610
-15.453683 45.104603 -4.244514
-15.494953 45.181953 -4.128183
-15.462162 45.137978 -4.191763
-15.443352 45.166534 -4.248293
-15.443598 45.213051 -4.297158
-15.393009 45.157730 -4.361265
-15.465700 45.263920 -4.179561
-15.411503 45.173443 -4.408848
-15.503868 45.258907 -4.098186
-15.447517 45.180676 -4.275650
-15.491857 45.250038 -4.155730
-15.426363 45.247005 -4.275702
-15.447529 45.218052 -4.224015
-15.449943 45.272717 -4.320052
-15.478621 45.317913 -4.200057
-15.384801 45.235195 -4.388943
-15.398062 45.254070 -4.433927
-15.434837 45.260246 -4.305672
-15.487087 45.317440 -4.181961
-15.423983 45.315857 -4.299649
-15.450887 45.282619 -4.251258
-15.558147 45.325699 -4.209785
-15.390974 45.300072 -4.413185
-15.408574 45.315884 -4.457266
-15.572353 45.320946 -4.194984
-15.442680 45.322704 -4.330571
-15.509751 45.318253 -4.313367
-15.481714 45.325432 -4.273773
-15.601499 44.144405 -3.808985
-15.368807 44.761570 -4.184715
-15.614154 44.144054 -3.798062
-15.418174 44.602154 -4.041245
-15.382215 44.477940 -4.160666
-15.320351 44.653542 -4.353544
-15.341337 44.868664 -4.248270
-15.416447 45.022636 -4.091824
-15.387584 44.722946 -4.113488
-15.400053 44.950943 -4.183788
-15.431567 44.410744 -4.049464
-15.362182 44.593845 -4.229867
-15.463963 44.836811 -4.009223
-15.326046 44.956390 -4.302923
-15.635246 44.142181 -3.789851
-15.417604 45.077995 -4.140962
-15.379476 44.806328 -4.170112
-15.624905 44.120327 -3.851726
-15.423793 45.136814 -4.135922
-15.379503 45.040585 -4.244240
-15.438999 44.933281 -4.075467
-15.355702 44.686077 -4.289402
-15.318826 45.029514 -4.352335
-15.398294 45.155258 -4.194858
-15.448251 45.048531 -4.046079
-15.353876 44.912102 -4.231462
-15.410030 45.204975 -4.188234
-15.373026 45.109505 -4.295039
-15.425674 45.011494 -4.132122
-15.333219 44.797413 -4.350050
-15.308248 45.104275 -4.399671
-15.385860 45.223209 -4.244300
-15.382934 44.831032 -4.161503
-15.452389 45.157356 -4.058751
-15.432270 45.124180 -4.100610
-15.351674 44.981297 -4.279327
-15.371890 44.742218 -4.246127
-15.411079 45.256336 -4.232353
-15.366135 45.176491 -4.342972
-15.470841 44.979458 -4.034729
-15.401407 45.100800 -4.190451
-15.319646 44.890961 -4.403996
-15.379080 45.283077 -4.289313
-15.375957 44.913239 -4.213818
-15.450313 45.211288 -4.103634
-15.414655 45.199131 -4.152305
-15.329903 45.073250 -4.332657
-15.358130 44.834778 -4.300038
-15.429700 45.286350 -4.267480
-15.452787 45.059544 -4.090729
-15.346758 45.257885 -4.393356
-15.391897 45.169262 -4.238414
-15.453174 45.140804 -4.066728
-15.420645 45.285713 -4.314597
-15.353871 45.011333 -4.268614
-15.434916 45.278751 -4.153092
-15.414446 45.251743 -4.195013
-15.326877 45.138580 -4.374799
-15.347448 44.920723 -4.351001
-15.483364 45.276699 -4.288217
-15.432063 45.141148 -4.143915
-15.362950 45.294453 -4.429273
-15.383231 45.234554 -4.284899
-15.464576 45.088341 -4.476212
-15.461261 45.187897 -4.105703
-15.473083 45.277306 -4.335347
-15.465230 45.294537 -4.180803
-15.418671 45.297512 -4.233314
-15.339003 45.098034 -4.318222
-15.318983 45.208847 -4.417048
-15.333237 45.007317 -4.399874
-15.467771 45.282246 -4.085400
-15.528401 45.278725 -4.312746
-15.429754 45.198204 -4.186687
-15.383842 45.288071 -4.325476
-15.426193 45.278038 -4.450531
-15.428391 45.277744 -4.161287
-15.473466 45.286655 -4.249781
-15.335440 45.164478 -4.359667
-15.517803 45.287109 -4.198767
-15.351988 45.046482 -4.435060
-15.509413 45.285885 -4.105045
-15.423075 45.259090 -4.228839
-15.432794 45.284340 -4.346351
-15.459672 45.295399 -4.185467
-15.521352 45.285145 -4.269279
-15.375524 45.095600 -4.298211
-15.566736 45.283371 -4.218235
-15.319392 45.245331 -4.403551
-15.414338 45.029213 -4.457038
-15.433290 45.298744 -4.262741
-15.482124 45.282570 -4.368670
-15.515479 45.286396 -4.199828
-15.570300 45.285473 -4.289504
-15.349144 45.194515 -4.347367
-15.352417 45.264736 -4.429129
-15.461068 45.294113 -4.166482
-15.495504 45.281509 -4.276219
-15.516361 45.288445 -4.135273
-15.347649 45.173183 -4.416254
-15.569550 45.279736 -4.214947
-15.394951 45.273327 -4.451635
-15.329796 45.281036 -4.391334
-15.523709 45.275795 -4.174982
-15.534547 45.290707 -4.298078
-15.574546 45.281059 -4.146089
-15.371465 45.201332 -4.444152
-15.561627 45.283165 -4.193279
-15.357083 45.308575 -4.417069
-15.618390 45.289406 -4.162927
-15.615122 45.277634 -4.206291
-15.416536 45.299969 -4.432100
-15.492695 44.685081 -4.373095
-15.840912 44.472744 -3.913469
-15.836157 44.461235 -3.912466
-15.486902 44.695164 -4.394680
-15.830308 44.452827 -3.912954
-15.483314 44.730827 -4.427636
-15.543359 44.694759 -4.360302
-15.518113 44.659698 -4.449763
-15.563863 44.659969 -4.466943
