# .PCD v0.7 - Point Cloud Data file format
VERSION 0.7
FIELDS x y z
SIZE 4 4 4
TYPE F F F
COUNT 1 1 1
WIDTH 1841
HEIGHT 1
VIEWPOINT 0 0 0 1
POINTS 1841
DATA ascii
1.163902 -1.582557 1.015426
1.147269 -1.565787 1.398452
1.119150 -1.539292 2.283495
1.134490 -1.560928 1.616468
1.104163 -1.534345 2.308513
1.132081 -1.577731 1.195461
1.111881 -1.581693 1.000480
1.096237 -1.563917 1.376505
1.078874 -1.549269 2.004531
1.073117 -1.541404 2.250541
1.082460 -1.562058 1.588520
1.061155 -1.543453 2.281552
1.078055 -1.577870 1.173516
1.068896 -1.591808 0.992518
1.056258 -1.576025 1.368540
1.024063 -1.538520 2.210593
1.034645 -1.556282 1.777573
1.032857 -1.555383 1.976575
1.035452 -1.569177 1.566566
1.016129 -1.547561 2.249597
1.031057 -1.585992 1.158562
1.022891 -1.594929 0.982566
1.006225 -1.573151 1.347595
0.984056 -1.545619 2.188632
0.995659 -1.567382 1.765609
0.983821 -1.556501 1.943627
0.990446 -1.576290 1.546610
0.970086 -1.547669 2.212646
0.981034 -1.586119 1.139615
0.975875 -1.595051 0.969616
0.964222 -1.578259 1.334637
0.945059 -1.555716 2.169669
0.952639 -1.569489 1.744654
0.944839 -1.570600 1.928662
0.940409 -1.574414 1.519664
0.928071 -1.553771 2.186688
0.954704 -1.607018 0.782633
0.935029 -1.591237 1.124662
0.926848 -1.591178 0.956670
0.922220 -1.583368 1.322679
0.904041 -1.559816 2.145711
0.914651 -1.579588 1.733689
0.897800 -1.569713 1.897712
0.886058 -1.559874 2.162730
0.892381 -1.574533 1.495715
0.908701 -1.611139 0.771680
0.890021 -1.595353 1.109707
0.889881 -1.605279 0.954703
0.881223 -1.589476 1.312720
0.860000 -1.557922 2.114758
0.872634 -1.581694 1.714733
0.856799 -1.577816 1.878752
0.845034 -1.562973 2.135772
0.847361 -1.576646 1.474762
0.848035 -1.605463 1.099747
0.836190 -1.585590 1.294770
0.824012 -1.569014 2.101791
0.831621 -1.584797 1.697775
0.812773 -1.579924 1.852798
0.805024 -1.569071 2.113811
0.807375 -1.587750 1.462799
0.799206 -1.594688 1.288804
0.805038 -1.612575 1.087789
0.780964 -1.565116 2.069839
0.790599 -1.584901 1.679818
0.762987 -1.568172 2.084856
0.763361 -1.590862 1.444844
0.762218 -1.602786 1.281840
0.745977 -1.575206 2.058871
0.748569 -1.583006 1.659864
0.726393 -1.605961 1.439876
0.701912 -1.566310 2.023922
0.707537 -1.580109 1.639909
0.680666 -1.575247 1.773940
0.681359 -1.603074 1.417925
0.673556 -1.590200 1.634940
0.668939 -1.579398 2.018950
0.642916 -1.573467 2.013980
0.646702 -1.591339 1.769967
0.638578 -1.601294 1.629971
0.629913 -1.579494 1.996991
0.606922 -1.581560 2.002014
0.608708 -1.599437 1.758004
0.592892 -1.580587 1.978030
0.569924 -1.588655 1.989050
0.558905 -1.589676 1.970061
0.532907 -1.590748 1.971088
0.522900 -1.593769 1.958097
0.496909 -1.596842 1.960123
1.527580 -1.537581 0.909040
1.525592 -1.542586 0.908040
1.490601 -1.542686 0.917077
1.494577 -1.548658 0.879070
1.464592 -1.547748 0.897102
1.467603 -1.552739 0.894096
1.423567 -1.539859 0.895149
1.427559 -1.549833 0.862140
1.405999 -1.547094 1.285164
1.428731 -1.573879 0.963127
1.423780 -1.568920 1.022135
1.398569 -1.548918 0.874171
1.393567 -1.545935 0.880177
1.384940 -1.553118 1.215183
1.364562 -1.545013 0.879208
1.362944 -1.546189 1.237210
1.372571 -1.558979 0.852193
1.370997 -1.560174 1.252195
1.363051 -1.552230 1.323207
1.343969 -1.547251 1.259229
1.361760 -1.569082 1.005200
1.364713 -1.575046 0.946194
1.346584 -1.560056 0.863220
1.326927 -1.556269 1.197243
1.302320 -1.538535 1.615277
1.312963 -1.559320 1.224256
1.338660 -1.592074 0.854213
1.288363 -1.537594 1.658293
1.302032 -1.554387 1.302270
1.306975 -1.561340 1.231261
1.301138 -1.562428 1.382267
1.293976 -1.557381 1.242277
1.303747 -1.571234 0.990260
1.271371 -1.532650 1.679313
1.286344 -1.554571 1.598286
1.301695 -1.575212 0.931260
1.273316 -1.559589 1.559298
1.271924 -1.562412 1.181298
1.255339 -1.552657 1.599320
1.255941 -1.560466 1.203315
1.243384 -1.552710 1.642332
1.245017 -1.557535 1.283328
1.244956 -1.562501 1.212326
1.247123 -1.565567 1.363322
1.238960 -1.560521 1.221333
1.255768 -1.583362 0.981304
1.225400 -1.548772 1.668353
1.244687 -1.578362 0.918318
1.217488 -1.543839 1.764364
1.232347 -1.562712 1.582339
1.220306 -1.564724 1.539351
1.222934 -1.571541 1.169345
1.204325 -1.556787 1.578371
1.207956 -1.571593 1.191360
1.189354 -1.553845 1.614388
1.193019 -1.564671 1.269379
1.191099 -1.565711 1.342381
1.192972 -1.573639 1.202375
1.191976 -1.572645 1.208376
1.198751 -1.583511 0.967364
1.167560 -1.544010 1.835416
1.174397 -1.555903 1.650403
1.156420 -1.534988 1.726432
1.190687 -1.583505 0.907372
1.173319 -1.562863 1.558401
1.164273 -1.562867 1.515410
1.173944 -1.580671 1.158391
1.152310 -1.560919 1.556424
1.129949 -1.537297 2.222459
1.158961 -1.579721 1.177408
1.130894 -1.541265 2.160456
1.139341 -1.558971 1.591438
1.125859 -1.548255 2.109458
1.140087 -1.568843 1.325433
1.144032 -1.574800 1.258426
1.142976 -1.579772 1.192424
1.143730 -1.582656 0.952422
1.140980 -1.581777 1.191425
1.119464 -1.554088 1.721462
1.123388 -1.561034 1.631454
1.135682 -1.586651 0.896428
1.121319 -1.569998 1.543452
1.117278 -1.570990 1.502456
1.116907 -1.575818 1.138454
1.104304 -1.567042 1.537471
1.121642 -1.594663 0.839439
1.084940 -1.544410 2.198503
1.074626 -1.532311 1.932519
1.085890 -1.549379 2.138499
1.104936 -1.578860 1.158465
1.091330 -1.564093 1.570486
1.066783 -1.538396 2.066525
1.090078 -1.572973 1.309483
1.090016 -1.575941 1.242482
1.088946 -1.577911 1.171482
1.095739 -1.589784 0.944469
1.072455 -1.559208 1.702508
1.072370 -1.563165 1.611506
1.080947 -1.577933 1.172490
1.060702 -1.549363 1.961526
1.086690 -1.593782 0.888476
1.054725 -1.546394 1.991533
1.064240 -1.567124 1.478513
1.068307 -1.573136 1.526506
1.048575 -1.544346 1.854541
1.065896 -1.577952 1.124506
1.056293 -1.571166 1.519519
1.026843 -1.530544 2.145570
1.029806 -1.537510 2.092564
1.038672 -1.552408 1.927547
1.067639 -1.597807 0.830494
1.055923 -1.580988 1.143515
1.046334 -1.573209 1.553529
1.026803 -1.551501 2.054560
1.047094 -1.583087 1.300523
1.033661 -1.566400 1.881546
1.042017 -1.582068 1.230529
1.047737 -1.593912 0.934517
1.040944 -1.584036 1.156529
1.023530 -1.557380 1.780560
1.027455 -1.566324 1.686552
1.024367 -1.569290 1.595554
1.014703 -1.556483 1.947570
1.033967 -1.589059 1.165534
1.009723 -1.553510 1.974577
1.030663 -1.589930 0.875537
1.011613 -1.561445 1.849571
1.016230 -1.570249 1.463562
1.013277 -1.571277 1.505564
1.023917 -1.589065 1.118544
1.006265 -1.570293 1.497572
0.988867 -1.544643 2.134603
0.986802 -1.544620 2.073605
0.993659 -1.557521 1.904592
1.006556 -1.582957 0.792565
1.004907 -1.582121 1.127567
1.019660 -1.607938 0.826539
0.994292 -1.569340 1.526585
1.000089 -1.587210 1.287570
0.977773 -1.551623 2.028611
0.981629 -1.564532 1.858601
0.986981 -1.577210 1.211589
0.991927 -1.585163 1.139580
0.999736 -1.598040 0.925565
0.984458 -1.573437 1.673593
0.977525 -1.562499 1.765606
0.981386 -1.580405 1.587593
0.969702 -1.562601 1.933614
0.983563 -1.589017 0.784586
0.967734 -1.563619 1.961616
0.981957 -1.591197 1.153587
0.966605 -1.566561 1.831615
0.969216 -1.572371 1.447610
0.985687 -1.601053 0.871578
0.976914 -1.593189 1.107591
0.962260 -1.572410 1.489617
0.962261 -1.575407 1.482615
0.946865 -1.552749 2.114643
0.945804 -1.552725 2.056643
0.949647 -1.562632 1.882635
0.972623 -1.608052 0.793588
0.960913 -1.589238 1.117610
0.946266 -1.569461 1.503635
0.968661 -1.612075 0.819591
0.933761 -1.555736 2.009655
0.951062 -1.585337 1.269622
0.933515 -1.565614 1.750650
0.950716 -1.596169 0.913617
0.938441 -1.575554 1.654640
0.946928 -1.591281 1.127623
0.945004 -1.588324 1.206627
0.936640 -1.573652 1.848643
0.924697 -1.567718 1.918658
0.931359 -1.579533 1.567646
0.944602 -1.605124 0.782619
0.920716 -1.565740 1.941664
0.920578 -1.566677 1.808663
0.924208 -1.575489 1.434655
0.933962 -1.597325 1.144634
0.938691 -1.606179 0.864625
0.929903 -1.594313 1.096640
0.900822 -1.549862 2.084692
0.915239 -1.575528 1.464664
0.913252 -1.575539 1.476666
0.904807 -1.560831 2.041682
0.905633 -1.566743 1.861678
0.917916 -1.595351 1.106652
0.924612 -1.609179 0.782638
0.902256 -1.573575 1.486678
0.921619 -1.614185 0.776638
0.904043 -1.584460 1.255672
0.889747 -1.558848 1.990699
0.918660 -1.615210 0.812641
0.891517 -1.571724 1.739691
0.895437 -1.580667 1.640682
0.908733 -1.605283 0.908656
0.901920 -1.594399 1.113669
0.887611 -1.571777 1.828695
0.899008 -1.594447 1.197672
0.879684 -1.569835 1.903704
0.880317 -1.573663 1.545701
0.903627 -1.617235 0.777656
0.875696 -1.566855 1.922710
0.877571 -1.570788 1.793706
0.882213 -1.581601 1.425696
0.891686 -1.608305 0.856673
0.886908 -1.600428 1.087681
0.883955 -1.599459 1.135685
0.857804 -1.552970 2.061735
0.872239 -1.581641 1.451706
0.860778 -1.560940 2.016728
0.866649 -1.577846 1.850714
0.867256 -1.581662 1.467711
0.874924 -1.602466 1.098693
0.860262 -1.581684 1.473718
0.850758 -1.567951 1.980735
0.862054 -1.592572 1.247711
0.851533 -1.580832 1.733728
0.848401 -1.576786 1.618733
0.862726 -1.606406 0.900703
0.859930 -1.602510 1.104708
0.842602 -1.574895 1.814740
0.853000 -1.596568 1.186719
0.836680 -1.573948 1.891747
0.837317 -1.578777 1.534744
0.836575 -1.577896 1.781745
0.834705 -1.574964 1.913748
0.840213 -1.586712 1.415737
0.840895 -1.600550 1.077729
0.819816 -1.563069 2.049769
0.820773 -1.566044 2.001767
0.833257 -1.591745 1.444741
0.839972 -1.608578 1.130726
0.823629 -1.579954 1.828757
0.824272 -1.590778 1.461751
0.832929 -1.608578 1.089734
0.818259 -1.586794 1.459759
0.805727 -1.566065 1.958783
0.820049 -1.595684 1.237753
0.807517 -1.581946 1.718773
0.806396 -1.580896 1.605775
0.814919 -1.604629 1.091754
0.803638 -1.589003 1.815774
0.811018 -1.605683 1.182758
0.796693 -1.582055 1.885784
0.800216 -1.591819 1.407776
0.796579 -1.585001 1.770783
0.796329 -1.586887 1.527782
0.793710 -1.582072 1.902787
0.778796 -1.565172 2.028811
0.780768 -1.571147 1.986806
0.787220 -1.586863 1.424792
0.777580 -1.574068 1.800808
0.793975 -1.612703 1.124772
0.775245 -1.587907 1.446803
0.773230 -1.584909 1.439807
0.768750 -1.577165 1.954816
0.779052 -1.600793 1.229793
0.760462 -1.572065 1.694826
0.763374 -1.580007 1.589820
0.766005 -1.605803 1.172804
0.752540 -1.580112 1.748831
0.759215 -1.595928 1.398816
0.750305 -1.585007 1.512831
0.739795 -1.571274 2.014848
0.740756 -1.574250 1.969846
0.749239 -1.596965 1.418826
0.737576 -1.579171 1.785847
0.735250 -1.596011 1.432841
0.728748 -1.582270 1.941855
0.733261 -1.596021 1.443843
0.718446 -1.572175 1.681870
0.723367 -1.583112 1.577860
0.721231 -1.604032 1.394852
0.704474 -1.568231 1.718886
0.710320 -1.593116 1.508868
0.699778 -1.573375 1.995889
0.707219 -1.596075 1.404870
0.692529 -1.573283 1.758896
0.694242 -1.599118 1.419882
0.686724 -1.581378 1.924899
0.689259 -1.599140 1.435887
0.681466 -1.581276 1.679904
0.685380 -1.591215 1.571895
0.668488 -1.576328 1.713919
0.681229 -1.607139 1.387891
0.666548 -1.578358 1.765921
0.658579 -1.563413 1.834936
0.672342 -1.603220 1.505903
0.657740 -1.569480 1.971934
0.655535 -1.580381 1.748931
0.646710 -1.582482 1.910939
0.642456 -1.582380 1.669944
0.648390 -1.598314 1.565930
0.630496 -1.583430 1.705955
0.621590 -1.570512 1.828971
0.624538 -1.579470 1.756963
0.621704 -1.577556 1.919967
0.620741 -1.575577 1.959969
0.618546 -1.588480 1.740965
0.607694 -1.582584 1.897979
0.610513 -1.600473 1.679968
0.597535 -1.597523 1.708982
0.587607 -1.579604 1.824001
0.584610 -1.579614 1.827004
0.585754 -1.583671 1.954001
0.585550 -1.585577 1.755000
0.582685 -1.577656 1.904007
0.582569 -1.599578 1.736997
0.571717 -1.592683 1.897011
0.554666 -1.597702 1.836027
0.547742 -1.585770 1.940039
0.549724 -1.591749 1.907035
0.550655 -1.594712 1.834032
0.532699 -1.591786 1.885052
0.513735 -1.598847 1.902068
0.512764 -1.595866 1.937070
1.423455 -1.558486 1.082985
1.395616 -1.544657 1.299017
1.363434 -1.557651 1.064040
1.337604 -1.548814 1.274068
1.314451 -1.567788 1.052081
1.282958 -1.537147 1.691123
1.295783 -1.553011 1.454105
1.285614 -1.558957 1.255111
1.265463 -1.575926 1.041122
1.250808 -1.566136 1.442140
1.233964 -1.547279 1.667164
1.227589 -1.559113 1.228164
1.210448 -1.576078 1.025172
1.196782 -1.565283 1.418190
1.184966 -1.556411 1.643204
1.182619 -1.574239 1.215199
1.418834 -1.550656 1.181941
1.412821 -1.545672 1.181950
1.426817 -1.548634 1.173930
1.447788 -1.547574 1.154902
1.416751 -1.554646 1.114942
1.427689 -1.562602 1.054925
1.357792 -1.548814 1.159024
1.352789 -1.548827 1.157031
1.422593 -1.562597 0.984933
1.365788 -1.551791 1.151013
1.410747 -1.554663 1.114951
1.390777 -1.554721 1.136978
1.356730 -1.557801 1.097024
1.335266 -1.553963 1.503055
1.364666 -1.564764 1.038013
1.304780 -1.553950 1.144097
1.344142 -1.549918 1.420045
1.296334 -1.547083 1.568110
1.298777 -1.555964 1.138105
1.355067 -1.559870 1.346028
1.315796 -1.563919 1.137080
1.361590 -1.569756 0.973017
1.349723 -1.556819 1.097036
1.304312 -1.551056 1.545099
1.332756 -1.558869 1.118059
1.278343 -1.553129 1.564134
1.318263 -1.551009 1.509081
1.304728 -1.565934 1.084095
1.332212 -1.552962 1.468062
1.277227 -1.554109 1.478137
1.306658 -1.570914 1.024093
1.257786 -1.564071 1.132161
1.245316 -1.555211 1.543180
1.290139 -1.559056 1.404119
1.247772 -1.565095 1.121174
1.243743 -1.540304 1.889187
1.256758 -1.563069 1.115163
1.251289 -1.556189 1.522173
1.295715 -1.562958 1.083111
1.296053 -1.566021 1.328110
1.277746 -1.565011 1.102134
1.297568 -1.571921 0.957106
1.225304 -1.553262 1.539209
1.265245 -1.557144 1.488154
1.249711 -1.569076 1.069172
1.277193 -1.558102 1.448138
1.241562 -1.533279 1.770193
1.225211 -1.559242 1.460209
1.211794 -1.574190 1.122223
1.244463 -1.546246 1.673187
1.248634 -1.572063 1.008174
1.192289 -1.560344 1.517254
1.229096 -1.557211 1.380205
1.185676 -1.535448 1.853269
1.197772 -1.575223 1.105242
1.190771 -1.545448 1.904260
1.205749 -1.570200 1.098233
1.195245 -1.556330 1.493251
1.246731 -1.576085 1.073176
1.177291 -1.559385 1.521275
1.226740 -1.572142 1.088204
1.205691 -1.546393 1.843240
1.224978 -1.555201 1.298211
1.240564 -1.578069 0.946184
1.208202 -1.556288 1.462234
1.198710 -1.576208 1.058242
1.226182 -1.564232 1.432208
1.180497 -1.528432 1.736279
1.170171 -1.558381 1.436286
1.163787 -1.580314 1.109289
1.126311 -1.529730 2.338354
1.195634 -1.579201 0.998246
1.193464 -1.556377 1.658256
1.137242 -1.559482 1.488331
1.174073 -1.560352 1.361281
1.141735 -1.574366 1.083321
1.128156 -1.535693 2.213350
1.132283 -1.566499 1.505337
1.147237 -1.564452 1.475317
1.128107 -1.537682 2.173350
1.154737 -1.575331 1.083304
1.111216 -1.537748 2.254373
1.189702 -1.575232 1.057257
1.171711 -1.572283 1.070282
1.150042 -1.548607 2.104318
1.162211 -1.568406 1.449296
1.168962 -1.559345 1.282289
1.146698 -1.580343 1.045314
1.169137 -1.561377 1.408289
1.185565 -1.585212 0.937260
1.141543 -1.549533 1.733330
1.123169 -1.566502 1.423350
1.082282 -1.535838 2.309414
1.108744 -1.575455 1.090367
1.139617 -1.581346 0.985325
1.138439 -1.559517 1.638332
1.087218 -1.564608 1.464400
1.125069 -1.567478 1.348348
1.096741 -1.585482 1.070382
1.081236 -1.563628 1.480409
1.083137 -1.542805 2.189412
1.067191 -1.544856 2.225433
1.083091 -1.545795 2.149412
1.097213 -1.568579 1.453386
1.099700 -1.573472 1.063381
1.141709 -1.585357 1.047322
1.125726 -1.584403 1.061344
1.124587 -1.562581 1.743351
1.081898 -1.526771 2.044418
1.064798 -1.556782 1.911434
1.109172 -1.567540 1.426371
1.094673 -1.580477 1.030387
1.118121 -1.565508 1.392359
1.119976 -1.571472 1.273355
1.092530 -1.555658 1.715397
1.131566 -1.592353 0.928334
1.075152 -1.570625 1.406417
1.048318 -1.555925 2.300458
1.062733 -1.579574 1.078431
1.035718 -1.554845 1.858475
1.090617 -1.588474 0.975392
1.048275 -1.581524 0.735451
1.046630 -1.553800 1.795461
1.058920 -1.543828 2.030447
1.040208 -1.572728 1.445464
1.083411 -1.561657 1.617409
1.032196 -1.561752 1.458478
1.043676 -1.556815 1.824464
1.074054 -1.571609 1.333419
1.027044 -1.532941 2.144493
1.033034 -1.543918 2.115482
1.045721 -1.588613 1.053453
1.013102 -1.537987 2.177511
1.043158 -1.563715 1.426463
1.055709 -1.584586 1.052441
1.087675 -1.582496 1.031398
1.055597 -1.554770 1.770449
1.071535 -1.558714 1.716427
1.075707 -1.586532 1.047413
1.015744 -1.553904 1.881503
1.045948 -1.547866 2.044465
1.055123 -1.563677 1.401448
1.052697 -1.593588 1.026443
1.071110 -1.570629 1.378424
1.053801 -1.549816 1.932454
1.038235 -1.580545 0.709466
1.041499 -1.556788 1.694468
1.020225 -1.581590 0.700490
1.066966 -1.576609 1.260429
1.076555 -1.595497 0.918411
0.991191 -1.540061 2.241541
1.020739 -1.587683 1.070488
1.024115 -1.568755 1.386489
1.043809 -1.553842 1.931467
0.993721 -1.566952 1.841532
1.003275 -1.586643 0.729513
1.001612 -1.558914 1.776523
1.015910 -1.550937 2.013506
0.989188 -1.567863 1.444537
1.041617 -1.594602 0.967459
0.998652 -1.560929 1.802527
0.989162 -1.570856 1.419537
0.988048 -1.544040 2.129546
1.032390 -1.564788 1.600480
0.983978 -1.542039 2.081552
0.971084 -1.546091 2.152568
1.025043 -1.576736 1.319487
0.996700 -1.590739 1.037521
0.997146 -1.569833 1.409527
1.010580 -1.559884 1.751511
0.975734 -1.561005 1.863558
1.006693 -1.587713 1.038509
1.041678 -1.589616 1.023461
1.022511 -1.560839 1.698495
1.025691 -1.589661 1.033483
0.996911 -1.548989 2.019533
1.010118 -1.570793 1.387509
1.018238 -1.586597 0.703494
1.002677 -1.594717 1.013513
1.022088 -1.572754 1.361493
0.990222 -1.582670 0.699533
1.008802 -1.558932 1.919515
0.999513 -1.568897 1.685525
0.971210 -1.583718 0.689559
0.953194 -1.552157 2.224592
0.974726 -1.590802 1.058552
0.978103 -1.572874 1.373553
1.017970 -1.584737 1.251496
1.024545 -1.598633 0.908483
0.993766 -1.551968 1.907537
0.973206 -1.588710 0.677556
0.944669 -1.566073 1.808601
0.957597 -1.564026 1.759584
0.945167 -1.569975 1.428599
0.969887 -1.555053 1.992570
0.947045 -1.553144 2.113601
0.950610 -1.561049 1.775594
0.990603 -1.596735 0.957531
0.930065 -1.553193 2.128624
0.944153 -1.577971 1.402599
0.939952 -1.546149 2.058613
0.934720 -1.567109 1.845615
0.986399 -1.574908 1.591543
0.979047 -1.584856 1.310550
0.950696 -1.597858 1.024585
0.963549 -1.561003 1.730577
0.991221 -1.586666 0.693533
0.951127 -1.573950 1.391590
0.979511 -1.568950 1.686554
0.961692 -1.594829 1.027571
0.991658 -1.590746 1.010531
0.980689 -1.595778 1.023545
0.952896 -1.554101 2.002594
0.966111 -1.576906 1.374570
0.967211 -1.583730 0.692566
0.956671 -1.598837 1.004577
0.977081 -1.577871 1.350555
0.913170 -1.557256 2.200647
0.943215 -1.586793 0.690598
0.960783 -1.562055 1.903582
0.932727 -1.596912 1.050610
0.949477 -1.568024 1.664595
0.926207 -1.588836 0.680621
0.935103 -1.579985 1.363612
0.964942 -1.583874 1.236571
0.952783 -1.564075 1.900593
0.967508 -1.593781 0.895565
0.907174 -1.579074 1.419650
0.927204 -1.592831 0.671619
0.913580 -1.568139 1.742645
0.896618 -1.564193 1.778669
0.927880 -1.562160 1.977627
0.899991 -1.550261 2.083668
0.909610 -1.570154 1.761650
0.899949 -1.555251 2.042667
0.886028 -1.556302 2.099686
0.892697 -1.570215 1.826673
0.898133 -1.582088 1.383662
0.944607 -1.603856 0.950594
0.909127 -1.582058 1.379648
0.923563 -1.573107 1.721631
0.924992 -1.576994 1.289628
0.903676 -1.599979 1.009650
0.938386 -1.579031 1.578609
0.913661 -1.592953 1.012639
0.944218 -1.590790 0.687598
0.936509 -1.576061 1.675613
0.949673 -1.600856 1.005588
0.929652 -1.591910 1.007618
0.920091 -1.579024 1.359634
0.908881 -1.559213 1.985655
0.909651 -1.598960 0.993643
0.932070 -1.581987 1.338617
0.925229 -1.594841 0.688623
0.871136 -1.560360 2.173706
0.885695 -1.594034 1.036677
0.916780 -1.569168 1.891642
0.906479 -1.576135 1.654654
0.888068 -1.578106 1.345678
0.907763 -1.566190 1.885656
0.912912 -1.582009 1.222644
0.866166 -1.584180 1.407707
0.922528 -1.604900 0.892625
0.870562 -1.571249 1.727705
0.856621 -1.575295 1.763723
0.884861 -1.566270 1.959687
0.858969 -1.554365 2.063725
0.848650 -1.567325 1.800736
0.866594 -1.575264 1.743710
0.857926 -1.559357 2.021725
0.842994 -1.559409 2.072746
0.854118 -1.587201 1.366723
0.896596 -1.605981 0.941661
0.880547 -1.577217 1.705691
0.895510 -1.583167 1.666669
0.867123 -1.589167 1.366705
0.856651 -1.600101 0.994716
0.887032 -1.594095 1.289677
0.902657 -1.601979 0.995654
0.872679 -1.605061 1.005694
0.887353 -1.577163 1.561682
0.889674 -1.605015 1.002671
0.878090 -1.586133 1.348692
0.865865 -1.563322 1.969715
0.886045 -1.582106 1.323682
0.862629 -1.598082 0.982709
0.829092 -1.560464 2.144765
0.841672 -1.593148 1.024739
0.844048 -1.579220 1.332740
0.871767 -1.573284 1.878705
0.855421 -1.569264 1.629728
0.864753 -1.571301 1.872715
0.826160 -1.589283 1.396762
0.867922 -1.591127 1.216706
0.828548 -1.575357 1.712763
0.880563 -1.620012 0.892681
0.818959 -1.560466 2.047780
0.839828 -1.566384 1.938751
0.817698 -1.586408 1.802775
0.812590 -1.577406 1.740784
0.813883 -1.558467 1.995788
0.824580 -1.580371 1.727768
0.799950 -1.559516 2.043806
0.813116 -1.595307 1.353779
0.836518 -1.577329 1.687753
0.847464 -1.578290 1.645738
0.819075 -1.584289 1.344774
0.837991 -1.589221 1.272747
0.856639 -1.602099 0.985719
0.845661 -1.607130 0.992733
0.836083 -1.591242 1.337750
0.821840 -1.565435 1.951776
0.846053 -1.590211 1.317737
0.790077 -1.566563 2.125818
0.837315 -1.574291 1.543753
0.807077 -1.593317 1.330789
0.826752 -1.576399 1.865767
0.814426 -1.577370 1.621783
0.820732 -1.572413 1.858777
0.785139 -1.590388 1.382820
0.785520 -1.575465 1.695824
0.776924 -1.560571 2.025840
0.799822 -1.572485 1.926806
0.823936 -1.600242 1.212766
0.776895 -1.569561 1.986838
0.760933 -1.565612 2.022860
0.775502 -1.569491 1.694839
0.790473 -1.573444 1.665819
0.804443 -1.579399 1.631799
0.765067 -1.590427 1.330849
0.780087 -1.594389 1.337828
0.794071 -1.594349 1.325809
0.796007 -1.599330 1.268805
0.748028 -1.564664 2.096879
0.781838 -1.571536 1.941832
0.804047 -1.594318 1.308796
0.791295 -1.575407 1.530818
0.764060 -1.594427 1.318851
0.768395 -1.575486 1.605851
0.747143 -1.597485 1.374873
0.742481 -1.572572 1.675887
0.738926 -1.568666 2.014893
0.761838 -1.582582 1.921859
0.735865 -1.570662 1.965897
0.735488 -1.573591 1.679897
0.722933 -1.574707 2.008914
0.778935 -1.605358 1.205830
0.752479 -1.581541 1.657872
0.764445 -1.585501 1.624855
0.739083 -1.600494 1.325886
0.725072 -1.599529 1.319905
0.753066 -1.599454 1.315868
0.752997 -1.601440 1.259867
0.764054 -1.601421 1.302853
0.743858 -1.582633 1.937885
0.749307 -1.583516 1.526878
0.725070 -1.602527 1.312906
0.706107 -1.593589 1.358934
0.726384 -1.578593 1.594911
0.693579 -1.579715 1.737955
0.702473 -1.576674 1.664944
0.697891 -1.567767 1.993953
0.711734 -1.564703 1.882935
0.696855 -1.575759 1.951953
0.681894 -1.574806 1.982973
0.684507 -1.583724 1.676967
0.693463 -1.574696 1.661958
0.711462 -1.583644 1.643932
0.722421 -1.584607 1.611917
0.723048 -1.604527 1.294912
0.699805 -1.576741 1.913950
0.708331 -1.594622 1.525935
0.687392 -1.585693 1.589966
0.691656 -1.569738 1.817965
0.653539 -1.576815 1.717014
0.664470 -1.581770 1.655998
0.660888 -1.573860 1.983006
0.673725 -1.568799 1.871989
0.653791 -1.567864 1.923017
0.653440 -1.575797 1.646016
0.643482 -1.585826 1.658027
0.671447 -1.585745 1.631989
0.686443 -1.594700 1.610967
0.632947 -1.570946 2.034045
0.649698 -1.556862 1.877027
0.666326 -1.597731 1.519995
0.619555 -1.586902 1.712061
0.651637 -1.570839 1.805022
0.649637 -1.569844 1.807026
0.651436 -1.601788 1.594015
0.628481 -1.589863 1.651049
0.620860 -1.573959 1.965064
0.633714 -1.571900 1.861047
0.616792 -1.574957 1.913069
0.602837 -1.578001 1.941088
0.618466 -1.588887 1.643064
0.605489 -1.594923 1.648080
0.634458 -1.593840 1.627041
0.646432 -1.596803 1.602025
0.598963 -1.582032 2.027093
0.618767 -1.578945 1.888067
0.584553 -1.591991 1.703111
0.611626 -1.572941 1.796080
0.610637 -1.573945 1.802081
0.585869 -1.582049 1.959113
0.599740 -1.582988 1.861094
0.579784 -1.579051 1.902122
0.566838 -1.586092 1.929139
0.561936 -1.583123 2.008147
0.580764 -1.583042 1.881122
0.578678 -1.589029 1.806125
0.547846 -1.582144 1.945168
0.575688 -1.590038 1.812129
0.560718 -1.583086 1.848151
0.544808 -1.591141 1.899171
0.529841 -1.594185 1.918191
0.525931 -1.589214 1.995198
0.543776 -1.590138 1.879174
0.543705 -1.599121 1.809174
0.511856 -1.590236 1.940219
0.537702 -1.597137 1.811183
0.525742 -1.593178 1.849200
0.508814 -1.598233 1.893222
0.492958 -1.602299 1.993243
1.510492 -1.546312 0.915198
1.446256 -1.552873 0.911253
1.471335 -1.547303 0.918452
1.382681 -1.557315 0.907140
1.413001 -1.549484 1.247048
1.492735 -1.544384 0.925080
1.402904 -1.548679 0.910468
1.468305 -1.548851 0.915094
1.526841 -1.541790 0.924739
1.365523 -1.570605 1.141384
1.363462 -1.608420 0.919951
1.356188 -1.559014 1.240782
1.367574 -1.558248 0.854399
1.426595 -1.547420 0.917036
1.386907 -1.550024 1.197095
1.390376 -1.550691 1.253155
1.370518 -1.583992 0.917175
1.402044 -1.549738 0.909940
1.461119 -1.547842 0.915852
1.293800 -1.565585 1.130245
1.325925 -1.550490 1.507721
1.293477 -1.559636 1.229356
1.410840 -1.542972 1.257522
1.373893 -1.562219 0.913828
1.323900 -1.553573 1.188891
1.329298 -1.555096 1.241851
1.344061 -1.535971 1.574117
1.344107 -1.557289 0.906644
1.394518 -1.549040 0.905724
1.284574 -1.562532 1.603006
1.229226 -1.565297 1.122933
1.255946 -1.546502 1.490515
1.365905 -1.554368 1.256544
1.239129 -1.565756 1.222718
1.352420 -1.549837 1.249197
1.408361 -1.550102 1.262498
1.269351 -1.563667 1.184533
1.273993 -1.562480 1.233351
1.385110 -1.540354 1.309782
1.285064 -1.541104 1.561724
1.287385 -1.565613 0.904332
1.342502 -1.562829 0.900401
1.231177 -1.515695 1.860115
1.223939 -1.560100 1.585227
1.338216 -1.563511 0.961051
1.302989 -1.555183 1.242136
1.185929 -1.572711 1.216066
1.198134 -1.551301 1.481049
1.172290 -1.572693 1.119603
1.297576 -1.559070 1.242792
1.343502 -1.552336 1.246307
1.266193 -1.556813 1.612391
1.214070 -1.561663 1.221653
1.214087 -1.569890 1.178985
1.306877 -1.539838 1.634743
1.330722 -1.547646 1.300196
1.228265 -1.546855 1.550232
1.302214 -1.548704 1.634668
1.306252 -1.594929 0.903177
1.180793 -1.527241 1.853571
1.167014 -1.559913 1.571358
1.249746 -1.563308 1.232538
1.105329 -1.587835 0.894457
1.134996 -1.580220 1.211306
1.085584 -1.582878 0.795111
1.145737 -1.562066 1.476615
1.114569 -1.576280 1.114087
1.239260 -1.560929 1.233157
1.283203 -1.556782 1.231955
1.205421 -1.554509 1.592630
1.135822 -1.579043 0.847757
1.278601 -1.555493 1.292503
1.221529 -1.534595 1.955902
1.163163 -1.570280 1.214950
1.251912 -1.545402 1.621091
1.154760 -1.570802 1.171394
1.245735 -1.552640 1.618008
1.172355 -1.551410 1.539616
1.124535 -1.530986 1.839931
1.114811 -1.562923 1.559375
1.290509 -1.551540 1.634025
1.160948 -1.530478 2.215028
1.280475 -1.537122 1.691094
1.196641 -1.571316 1.224947
1.079214 -1.578604 1.202301
1.061076 -1.602026 0.896689
1.141807 -1.557946 1.952969
1.189866 -1.571177 1.229461
1.030059 -1.584818 0.795373
1.065445 -1.586290 1.114400
1.089800 -1.565518 1.467959
1.150883 -1.557031 1.577766
1.231663 -1.568633 1.223490
1.221040 -1.556278 1.281746
1.194097 -1.546422 1.606362
1.116294 -1.583111 1.212257
1.099993 -1.573927 1.165638
1.077406 -1.592453 0.891188
1.189026 -1.555658 1.600315
1.122681 -1.560790 1.533894
1.118780 -1.510831 2.338489
1.069304 -1.572605 1.554377
1.184528 -1.589889 0.954057
1.082270 -1.549793 1.844340
1.229267 -1.553458 1.612567
1.227247 -1.541457 1.676238
1.032517 -1.586362 1.199280
1.140157 -1.572996 1.213185
1.011060 -1.607186 0.895754
1.087580 -1.557537 1.934897
1.132047 -1.569938 1.219618
0.982201 -1.595549 0.797666
1.031767 -1.563349 1.457097
1.006519 -1.583059 1.107555
1.182318 -1.524495 2.018815
1.101665 -1.564472 1.568873
1.171371 -1.567029 1.208773
1.143761 -1.515878 2.296120
1.096155 -1.590478 0.888009
1.174531 -1.566123 1.276812
1.139232 -1.546980 1.591399
1.064344 -1.585894 1.204270
1.057351 -1.532825 2.040056
1.051488 -1.582983 1.162834
1.034003 -1.606617 0.891355
1.133137 -1.557541 1.582504
1.072878 -1.519753 2.329465
1.064214 -1.557882 1.518991
1.129097 -1.589088 0.948083
1.020881 -1.577803 1.547306
1.173462 -1.556192 2.021569
1.170639 -1.539464 1.657212
1.176621 -1.561797 1.596941
0.985495 -1.592155 1.196165
1.089586 -1.519557 2.076326
1.028349 -1.554038 1.833602
1.089841 -1.579561 1.205321
1.046547 -1.526853 2.173133
0.961798 -1.611271 0.893701
1.023402 -1.540223 1.902408
1.080233 -1.572600 1.213621
1.052968 -1.569917 1.557813
0.939299 -1.610399 0.802884
1.121475 -1.576609 1.200066
0.975932 -1.561797 1.447134
0.959990 -1.595597 1.109879
1.122514 -1.568969 1.267819
1.098715 -1.528555 2.290290
1.046095 -1.596810 0.884137
1.092512 -1.555898 1.585439
1.012232 -1.587698 1.196245
1.049983 -1.530985 1.897158
1.010946 -1.538807 2.030887
0.995677 -1.580274 1.155799
1.084929 -1.565939 1.571597
0.982379 -1.609110 0.888366
1.021620 -1.518871 2.311167
1.031337 -1.599559 0.897485
1.078783 -1.593390 0.945095
1.012051 -1.559738 1.509975
0.970062 -1.576517 1.535982
1.120430 -1.543278 1.643131
1.116462 -1.558556 1.574092
1.044586 -1.528397 2.066230
0.933716 -1.589868 1.187866
0.994597 -1.568525 1.916498
1.039757 -1.587055 1.198520
0.912117 -1.612346 0.892500
0.971800 -1.550876 1.817567
0.994312 -1.529919 2.160199
1.161770 -1.561706 2.028156
1.033630 -1.581411 1.209663
1.001191 -1.569895 1.544629
1.071155 -1.569694 1.258651
0.865993 -1.576227 0.793117
1.068961 -1.582570 1.191330
1.074977 -1.517592 2.099774
0.999613 -1.605510 0.882175
1.040809 -1.523225 2.261140
0.930108 -1.573311 1.447342
0.905461 -1.593599 1.104828
1.027716 -1.559713 1.941936
1.041128 -1.557783 1.573347
0.909666 -1.561809 0.835463
0.960547 -1.586458 1.186998
0.966412 -1.543437 2.022505
1.009624 -1.549551 1.900424
0.950657 -1.590657 1.155863
0.935410 -1.614859 0.886260
1.035644 -1.573453 1.561730
0.983684 -1.606324 0.897498
1.072159 -1.545679 1.630836
0.919994 -1.574157 1.523540
1.028144 -1.595728 0.942015
0.994432 -1.589018 0.681811
1.017149 -1.596315 0.865499
0.962480 -1.564117 1.502955
0.997445 -1.532783 2.050988
0.893421 -1.603444 1.189805
1.067366 -1.568161 1.562334
0.947399 -1.570703 1.905142
0.991153 -1.591289 1.191406
0.864567 -1.614099 0.891197
0.978179 -1.575719 1.200403
0.921854 -1.553340 1.809460
0.948517 -1.537627 2.155136
1.099342 -1.556397 1.993297
1.032622 -1.536987 1.972598
0.952238 -1.573319 1.534487
1.025144 -1.576443 1.253513
1.030005 -1.527544 2.087747
1.015427 -1.583799 1.179358
0.994280 -1.529331 2.249990
0.951591 -1.611478 0.879156
0.982780 -1.568503 1.932849
0.993389 -1.561973 1.564162
0.826926 -1.595480 0.799369
0.858805 -1.600208 1.104788
0.877755 -1.573087 1.440250
0.917360 -1.596655 1.184910
0.893215 -1.615357 0.852304
0.913956 -1.536850 2.000933
1.071303 -1.533361 2.058206
0.955425 -1.544203 1.880057
1.065104 -1.525602 2.111425
0.903703 -1.596402 1.153770
0.983499 -1.572637 1.545514
0.884120 -1.613266 0.883006
1.030096 -1.557857 1.625765
0.935474 -1.610202 0.896371
0.874427 -1.577856 1.517199
0.948802 -1.595419 0.682662
0.978652 -1.598898 0.938919
1.009690 -1.555978 1.951465
0.971745 -1.605910 0.862520
0.914713 -1.567206 1.495727
0.954781 -1.542122 2.043786
0.845288 -1.603468 1.184423
0.898429 -1.569227 1.891684
1.017712 -1.574880 1.549435
0.942549 -1.595528 1.184306
0.804596 -1.592920 0.882311
0.937816 -1.589358 1.201343
0.985681 -1.541196 1.960349
0.899668 -1.540975 2.146011
0.871909 -1.555809 1.801367
0.906697 -1.578127 1.526201
0.979040 -1.582152 1.249331
0.981678 -1.532275 2.069610
0.949035 -1.536146 2.240811
0.932622 -1.567368 1.916481
0.961472 -1.582019 1.168242
0.900163 -1.610012 0.873909
0.945951 -1.567030 1.557035
1.026520 -1.539349 2.043894
0.873366 -1.544652 1.997508
0.871255 -1.602370 1.180750
0.822557 -1.579864 0.840265
0.828978 -1.575230 1.435068
0.811073 -1.605933 1.105789
0.907474 -1.547467 1.869850
0.984094 -1.560816 1.615369
1.015521 -1.530735 2.089383
0.937233 -1.579631 1.536417
0.853505 -1.595696 1.149502
0.830896 -1.581187 1.511695
0.842596 -1.626093 0.883993
0.930966 -1.600776 0.935615
0.887103 -1.613101 0.895205
0.903010 -1.600840 0.683472
0.966460 -1.568493 1.943507
0.906688 -1.541719 2.026315
0.923886 -1.612870 0.859565
0.871844 -1.578261 1.495699
0.856226 -1.574360 1.886196
0.802272 -1.608595 1.182014
0.893550 -1.597864 1.176119
0.965072 -1.577180 1.533470
0.888861 -1.590525 1.196092
0.940188 -1.547101 1.950124
0.999004 -1.568523 1.956448
0.933852 -1.587771 1.244080
0.860994 -1.581954 1.517876
0.853318 -1.545801 2.139822
0.827123 -1.562214 1.799183
0.937132 -1.539190 2.056368
0.887949 -1.572136 1.906128
0.981343 -1.543435 2.028493
0.901718 -1.538447 2.227485
0.897561 -1.567292 1.547667
0.854178 -1.615617 0.871744
0.832546 -1.551536 1.993044
0.920410 -1.598958 1.166443
0.824267 -1.603228 1.175344
0.862321 -1.553070 1.864620
0.935268 -1.560338 1.601958
0.785099 -1.585341 1.437082
0.750838 -1.585001 1.092947
0.965774 -1.534889 2.067303
0.887422 -1.579314 1.523101
0.790816 -1.590794 1.511375
0.887414 -1.607912 0.935372
0.840536 -1.614707 0.893829
0.810362 -1.604736 1.150376
0.917542 -1.569238 1.926171
0.863003 -1.546329 2.015886
0.880683 -1.623086 0.857488
0.812810 -1.578731 1.879757
0.823590 -1.578405 1.488340
0.759557 -1.614588 1.181659
0.848592 -1.604414 1.171935
0.912693 -1.575453 1.516230
0.847780 -1.600297 1.195847
0.896962 -1.553560 1.941784
0.885023 -1.585031 1.235552
0.949388 -1.572562 1.936360
0.818022 -1.588183 1.513530
0.807160 -1.546661 2.131359
0.937217 -1.547307 2.014015
0.778068 -1.563493 1.791976
0.844490 -1.577676 1.896748
0.887782 -1.539194 2.035008
0.854287 -1.572657 1.541272
0.790187 -1.555687 1.987523
0.855916 -1.542380 2.217178
0.799835 -1.603609 0.864046
0.871410 -1.601301 1.158265
0.782561 -1.610174 1.172962
0.891532 -1.563856 1.593461
0.823214 -1.567468 1.866552
0.746333 -1.589334 1.503641
0.738427 -1.587060 1.433746
0.844616 -1.613973 0.934006
0.917146 -1.538770 2.047143
0.838430 -1.577860 1.509661
0.767220 -1.613782 1.151260
0.819154 -1.549960 2.005416
0.868556 -1.570050 1.907854
0.772943 -1.584361 1.877158
0.712507 -1.609451 1.174889
0.779771 -1.584671 1.486082
0.801304 -1.604417 1.164496
0.802077 -1.601866 1.192410
0.848442 -1.550154 1.925171
0.866427 -1.582459 1.507155
0.843550 -1.592897 1.234210
0.772976 -1.589895 1.505038
0.896620 -1.571197 1.913157
0.891481 -1.548510 1.997484
0.763145 -1.551986 2.128062
0.799328 -1.579500 1.886262
0.842049 -1.540397 2.018490
0.812926 -1.581563 1.538995
0.734336 -1.569691 1.790726
0.811915 -1.545023 2.206660
0.739709 -1.616296 1.170624
0.823000 -1.601585 1.148915
0.847565 -1.566454 1.583927
0.773520 -1.562132 1.851930
0.709150 -1.602331 1.507357
0.791094 -1.600827 0.926177
0.871016 -1.544129 2.029918
0.794269 -1.584435 1.502424
0.698592 -1.601391 1.439766
0.724358 -1.574961 1.859181
0.771322 -1.545538 1.986696
0.704845 -1.582335 1.132889
0.821973 -1.571292 1.893415
0.733388 -1.583467 1.479522
0.762378 -1.613399 1.193199
0.799608 -1.594340 1.227619
0.804821 -1.554715 1.915755
0.757562 -1.611743 1.161298
0.819371 -1.585655 1.495892
0.731971 -1.595820 1.500543
0.849526 -1.551895 1.985845
0.847797 -1.572999 1.894901
0.754916 -1.580250 1.874653
0.702031 -1.548988 1.963737
0.804875 -1.555654 2.017324
0.717291 -1.553718 2.121668
0.766012 -1.578573 1.529338
0.768681 -1.550378 2.200292
0.687972 -1.568480 1.784181
0.804882 -1.569762 1.576363
0.687895 -1.603081 1.158676
0.778205 -1.609131 1.144805
0.667330 -1.603336 1.502615
0.728330 -1.562856 1.843404
0.752211 -1.590580 1.497017
0.824955 -1.549431 2.013701
0.682418 -1.576079 1.852448
0.721536 -1.532691 1.960553
0.781272 -1.580346 1.886083
0.692233 -1.592199 1.480258
0.763652 -1.609220 1.230354
0.752668 -1.540276 1.888675
0.702062 -1.582690 1.173718
0.700355 -1.587615 1.142010
0.811025 -1.561556 1.979388
0.693506 -1.608117 1.502308
0.771920 -1.586950 1.483542
0.662758 -1.552561 1.959982
0.801703 -1.577202 1.880626
0.711788 -1.581710 1.865014
0.751471 -1.541615 1.986349
0.725146 -1.584378 1.526840
0.766240 -1.577282 1.572795
0.645990 -1.577240 1.787005
0.733604 -1.612710 1.138420
0.627748 -1.609852 1.502089
0.684424 -1.564290 1.836847
0.646730 -1.585808 1.855852
0.711765 -1.599403 1.493681
0.688813 -1.551797 1.969367
0.735507 -1.580458 1.871530
0.597000 -1.579536 1.419080
0.649142 -1.596293 1.478839
0.713130 -1.547886 1.886203
0.646948 -1.602152 1.490448
0.729138 -1.595288 1.477337
0.623485 -1.556139 1.956236
0.667636 -1.578436 1.852141
0.757057 -1.583100 1.868373
0.708769 -1.546090 1.975877
0.727600 -1.584807 1.569236
0.684676 -1.592095 1.525451
0.602359 -1.578436 1.784448
0.607987 -1.591177 1.855196
0.643481 -1.569047 1.835313
0.647723 -1.552885 1.960571
0.669710 -1.605558 1.488293
0.692542 -1.582909 1.861950
0.676254 -1.557956 1.886709
0.596373 -1.574492 1.459407
0.610752 -1.615008 1.494099
0.587244 -1.562978 1.958505
0.629150 -1.585837 1.850590
0.687804 -1.605322 1.473151
0.685574 -1.586003 1.561511
0.646474 -1.600366 1.525940
0.666421 -1.547583 1.963184
0.562715 -1.587694 1.790155
0.569667 -1.593501 1.853311
0.610923 -1.562897 1.962083
0.602471 -1.573870 1.832793
0.629172 -1.613346 1.485918
0.647898 -1.582752 1.849326
0.688177 -1.556106 1.963402
0.683020 -1.561229 1.939011
0.639148 -1.567108 1.886174
0.563593 -1.601262 1.477783
0.553150 -1.574281 1.965927
0.590666 -1.593243 1.849047
0.648452 -1.595164 1.560973
0.645093 -1.613610 1.467960
0.592309 -1.573030 1.500229
0.627734 -1.555168 1.958653
0.661563 -1.576397 1.829100
0.530134 -1.595063 1.850475
0.571583 -1.566547 1.957355
0.565122 -1.584786 1.838432
0.605683 -1.584134 1.838634
0.644476 -1.556963 1.947763
0.643987 -1.563059 1.929103
0.598425 -1.569008 1.880430
0.516981 -1.581068 1.969203
0.551390 -1.596837 1.845315
0.586507 -1.556391 1.947884
0.623310 -1.590793 1.828999
0.495571 -1.604530 1.855809
0.538843 -1.584564 1.968126
0.469281 -1.566631 1.767979
0.606186 -1.569448 1.925435
0.565915 -1.590841 1.835144
0.605531 -1.568588 1.944527
0.563605 -1.582505 1.887049
0.513959 -1.604034 1.844696
0.560042 -1.576593 1.533491
0.550433 -1.570291 1.950610
0.578362 -1.589789 1.814353
0.454084 -1.597668 1.845562
0.473593 -1.560797 1.807880
0.569602 -1.576608 1.922734
0.530302 -1.606595 1.839962
0.565890 -1.577450 1.938157
0.522487 -1.582507 1.880223
0.434118 -1.559636 1.940170
0.476434 -1.610190 1.845027
0.509111 -1.570478 1.940803
0.412156 -1.584005 1.830902
0.538034 -1.599677 1.810115
0.451522 -1.559299 1.929137
0.531621 -1.578233 1.913759
0.436273 -1.566770 1.811213
0.489278 -1.607651 1.832197
0.474376 -1.557498 1.849220
0.397511 -1.559630 1.939047
0.522163 -1.577216 1.924488
0.467443 -1.564912 1.925634
0.499294 -1.611136 1.809880
0.413655 -1.559699 1.924118
0.397575 -1.570997 1.813543
0.436807 -1.558761 1.846240
0.475312 -1.563940 1.898169
0.425610 -1.558366 1.910426
0.377023 -1.564659 1.925332
0.449121 -1.561009 1.880952
0.400567 -1.565630 1.848550
0.434385 -1.566048 1.889480
0.387322 -1.561824 1.906650
0.413657 -1.567907 1.880186
0.392127 -1.562562 1.875519
0.375837 -1.564469 1.870906
1.385389 -1.579202 1.074056
1.457804 -1.571845 0.947710
1.368033 -1.555886 1.237745
1.322759 -1.579564 1.068131
1.418082 -1.572686 1.082557
1.390619 -1.573723 0.944427
1.282499 -1.585098 0.885388
1.304862 -1.559343 1.232138
1.398667 -1.546452 1.300766
1.261114 -1.579798 1.062097
1.305492 -1.570350 1.420748
1.353417 -1.574461 1.074951
1.326384 -1.575203 0.940791
1.224706 -1.591370 0.887475
1.430987 -1.572225 1.002935
1.250429 -1.570358 1.231192
1.339864 -1.552330 1.294846
1.293448 -1.556417 1.617912
1.204015 -1.581245 1.058679
1.252009 -1.577452 1.415344
1.286274 -1.568716 1.064015
1.264184 -1.575284 0.938843
1.159704 -1.586870 0.884497
1.384770 -1.573217 1.083011
1.370246 -1.576187 1.000099
1.186167 -1.568065 1.223259
1.282167 -1.558005 1.289790
1.226915 -1.551896 1.601968
1.155997 -1.593286 1.059094
1.364944 -1.546748 1.357779
1.195217 -1.578160 1.406774
1.287999 -1.568133 1.429265
1.237161 -1.580967 1.063549
1.207744 -1.579556 0.937573
1.322948 -1.574684 1.074034
1.234950 -1.564322 1.799935
1.100674 -1.586415 0.884179
1.306594 -1.575660 0.995211
1.134752 -1.577570 1.223864
1.426593 -1.572851 1.083975
1.408137 -1.561152 1.053848
1.226956 -1.566318 1.285686
1.166792 -1.552191 1.591751
1.102089 -1.595265 1.056374
1.311481 -1.554936 1.351431
1.259805 -1.547454 1.678229
1.145906 -1.585660 1.401943
1.229879 -1.569216 1.417852
1.182346 -1.585202 1.059078
1.325171 -1.564510 1.446545
1.155145 -1.587154 0.939178
1.189536 -1.576197 1.797020
1.263438 -1.576729 1.066882
1.244745 -1.573885 0.990044
1.051937 -1.597330 0.888650
1.187799 -1.550786 1.992096
1.028403 -1.609255 0.762058
1.366726 -1.580035 1.076243
1.354414 -1.571153 1.051700
1.081942 -1.585323 1.223504
1.170759 -1.568795 1.280232
1.110275 -1.554894 1.583341
1.050147 -1.596979 1.053416
1.254230 -1.558684 1.344164
1.089637 -1.583298 1.393100
1.193098 -1.539257 1.656982
1.181263 -1.580590 1.414253
1.131392 -1.592756 1.057467
1.271135 -1.572017 1.436177
1.126107 -1.564647 1.773127
1.225045 -1.563406 1.819807
1.096865 -1.586727 0.936769
1.207426 -1.581254 1.060548
1.192766 -1.580515 0.989475
0.999992 -1.601772 0.890965
1.348843 -1.549517 1.415098
1.294715 -1.571159 1.045410
0.981085 -1.617022 0.765114
1.295599 -1.571094 1.061458
1.115398 -1.570157 1.274604
1.023885 -1.582030 1.217834
1.057430 -1.558872 1.578657
1.003596 -1.604760 1.054365
1.042940 -1.602291 0.755408
1.200183 -1.562942 1.337591
1.040870 -1.587716 1.387978
1.145317 -1.549515 1.653209
1.123433 -1.577680 1.401501
1.078655 -1.596658 1.053760
1.211672 -1.572411 1.422848
1.176797 -1.572902 1.812993
1.156257 -1.588962 1.056950
1.047071 -1.592945 0.937961
1.139110 -1.583417 0.987802
1.117475 -1.527219 2.240686
1.309537 -1.565871 1.441101
1.293596 -1.554060 1.406649
1.227121 -1.544369 1.739925
0.944987 -1.600724 0.891190
1.234830 -1.569125 1.040000
0.932051 -1.620002 0.767996
1.241158 -1.579433 1.055242
1.106392 -1.529474 2.281527
1.166947 -1.541160 2.067069
1.061423 -1.573288 1.269977
0.971218 -1.584806 1.216073
0.949685 -1.600780 1.050193
1.007209 -1.565394 1.575901
0.999707 -1.616483 0.759510
1.145695 -1.564247 1.330843
0.991811 -1.590169 1.382743
1.057088 -1.583063 0.700366
1.073616 -1.583373 1.394577
1.090510 -1.551047 1.643504
1.027588 -1.598320 1.049691
0.960599 -1.590781 0.657985
1.159672 -1.578524 1.414175
1.108783 -1.556376 1.782170
1.210780 -1.563339 1.836209
1.103558 -1.593930 1.052309
1.070497 -1.532582 2.232412
1.090485 -1.591548 0.987994
0.998516 -1.599945 0.940089
1.240168 -1.557350 1.397901
1.174356 -1.547748 1.728098
1.251939 -1.572051 1.428011
1.183620 -1.575779 1.037328
0.897525 -1.607520 0.894201
0.883893 -1.622926 0.769770
1.186680 -1.586720 1.049965
1.018333 -1.549629 1.953035
1.059412 -1.537565 2.278520
1.100975 -1.526485 2.034148
1.013636 -1.580303 1.270001
0.922157 -1.589989 1.216114
0.906339 -1.609077 1.051836
1.264060 -1.539261 1.816778
0.940671 -1.586994 1.375292
1.093322 -1.566273 1.323919
0.950605 -1.620604 0.760467
1.015240 -1.599019 0.705458
1.023358 -1.586115 1.387478
0.955056 -1.567278 1.570990
1.040506 -1.554700 1.637461
0.978311 -1.603650 1.047736
0.980179 -1.573314 1.749300
0.910540 -1.592844 0.661928
1.101882 -1.576686 1.400498
1.062101 -1.563713 1.774013
1.162360 -1.574054 1.826484
1.012893 -1.521366 2.205893
1.046118 -1.589676 1.044463
1.191986 -1.565718 1.393002
1.039053 -1.595103 0.987145
1.011081 -1.610081 0.751247
1.103919 -1.519619 2.280653
0.945368 -1.598709 0.939075
1.121446 -1.550147 1.716218
1.195138 -1.576055 1.415676
1.133207 -1.580255 1.035409
0.847109 -1.608752 0.896113
1.135406 -1.594515 1.045379
1.055017 -1.535502 2.030086
1.006939 -1.536951 2.265372
0.966693 -1.550618 1.944968
0.961187 -1.580217 1.264961
1.212317 -1.543570 1.803891
0.858400 -1.609136 1.050339
0.896965 -1.594461 1.374897
1.047834 -1.576051 1.322883
0.868501 -1.586936 1.213016
1.146749 -1.534358 2.144210
0.899825 -1.620997 0.760322
0.966351 -1.602994 0.708397
0.975831 -1.591326 1.383296
0.935453 -1.577132 1.744695
0.927788 -1.602231 1.043378
0.991888 -1.560123 1.632416
0.907018 -1.573395 1.569983
1.052106 -1.583452 1.392648
1.014144 -1.569222 1.765865
0.886791 -1.637091 0.674247
0.974427 -1.533908 2.209332
1.101522 -1.567260 1.801666
1.137609 -1.564239 1.381983
1.002164 -1.602205 1.044479
0.987908 -1.594658 0.984945
1.059496 -1.528663 2.272378
1.074830 -1.556355 1.709981
0.960889 -1.614418 0.751336
0.898889 -1.605376 0.941963
1.141960 -1.515423 2.340162
1.140559 -1.580705 1.404157
1.083523 -1.583689 1.032323
1.198860 -1.569786 1.838826
1.078152 -1.592315 1.036658
0.801978 -1.616127 0.900934
1.012153 -1.547828 2.030981
0.957667 -1.539572 2.258176
1.164288 -1.550211 1.793799
0.916654 -1.553228 1.939882
0.909024 -1.576129 1.258573
0.850668 -1.594475 1.370182
0.811847 -1.610964 1.049837
1.000413 -1.581190 1.319689
1.100214 -1.542690 2.136114
0.855461 -1.628380 0.763024
0.915636 -1.602256 0.710172
0.824942 -1.598122 1.217956
0.923240 -1.587536 1.372939
0.887744 -1.577582 1.736138
0.881675 -1.607016 1.043049
0.966365 -1.570803 1.755374
0.942977 -1.563580 1.627257
1.000357 -1.584517 1.383574
0.855408 -1.572198 1.564784
0.929593 -1.537807 2.203744
1.088989 -1.569661 1.376917
1.045996 -1.564411 1.782619
1.008047 -1.526255 2.252912
0.952379 -1.605722 1.040424
0.939681 -1.598728 0.984794
1.027087 -1.561719 1.703814
0.914196 -1.621237 0.752235
1.094378 -1.522305 2.325008
0.851714 -1.608178 0.943623
1.029498 -1.579800 1.027145
1.084046 -1.580716 1.390483
1.146368 -1.577351 1.824274
1.113962 -1.551374 1.779506
1.023669 -1.593644 1.029928
0.958916 -1.544488 2.014682
0.910722 -1.542764 2.252781
0.873459 -1.562532 1.941602
0.809037 -1.601606 1.370540
0.864846 -1.585566 1.260413
0.769047 -1.616185 1.051193
0.980267 -1.613323 0.735603
0.950077 -1.581828 1.314465
0.879025 -1.593188 1.370443
0.846839 -1.583664 1.735318
0.864626 -1.599552 0.711837
0.777663 -1.601009 1.218641
0.837972 -1.614492 1.042658
0.920846 -1.576816 1.750026
0.896139 -1.566696 1.622848
0.949041 -1.582568 1.373210
0.888579 -1.543965 2.201935
1.033768 -1.563338 1.364622
0.997570 -1.569167 1.771439
0.808060 -1.576221 1.563548
1.142250 -1.530257 2.221877
0.966170 -1.535728 2.248426
0.973808 -1.557320 1.688437
0.902004 -1.605302 1.036133
0.891012 -1.599846 0.984468
0.866659 -1.623204 0.751845
1.043156 -1.523009 2.303737
0.987725 -1.591915 1.028900
0.806074 -1.613737 0.946339
1.034165 -1.587569 1.381645
1.082329 -1.567346 1.793516
1.064983 -1.553244 1.767141
0.973775 -1.597242 1.024878
0.913248 -1.549519 2.009281
0.763537 -1.599449 1.366585
0.863632 -1.544977 2.247333
1.003068 -1.547506 2.108370
0.821465 -1.592825 1.263004
0.819957 -1.555036 1.928062
0.901961 -1.583109 1.310052
0.929822 -1.616763 0.734645
0.803059 -1.586304 1.731538
0.829891 -1.590824 1.361835
0.933032 -1.619988 0.757754
0.875652 -1.579886 1.742395
0.794485 -1.621828 1.044255
0.989335 -1.569137 1.360129
0.842432 -1.542255 2.192033
0.729835 -1.601017 1.218161
0.900899 -1.586047 1.365946
0.851050 -1.572419 1.621477
1.095101 -1.534125 2.205422
0.948743 -1.572031 1.759154
0.923999 -1.543235 2.243824
0.929484 -1.563050 1.684948
0.761401 -1.578140 1.562073
0.845843 -1.603444 0.984951
0.856808 -1.611096 1.033760
0.939822 -1.593047 1.026459
0.996922 -1.530606 2.290517
0.980817 -1.587035 1.369602
1.030124 -1.570917 1.777625
1.020376 -1.560255 1.759735
0.929572 -1.608878 1.023852
1.077113 -1.521070 2.334710
0.865539 -1.549984 2.000735
0.721506 -1.604695 1.365843
0.951687 -1.543977 2.090833
0.854129 -1.580389 1.304290
0.777979 -1.600167 1.264608
0.767441 -1.601260 1.738884
0.774172 -1.556897 1.925474
0.885284 -1.625367 0.734430
0.788154 -1.598040 1.361205
0.882790 -1.617306 0.757306
0.832207 -1.585563 1.737801
0.747855 -1.618826 1.040363
0.945011 -1.574867 1.356634
0.801274 -1.547439 2.190174
1.057783 -1.550783 2.205002
0.858515 -1.596430 1.364623
0.802024 -1.569989 1.613871
0.878080 -1.544637 2.232115
0.688609 -1.612792 1.224908
0.902755 -1.577290 1.750774
0.885055 -1.568862 1.680474
0.802060 -1.608810 0.986428
0.808655 -1.611327 1.030289
0.950719 -1.533288 2.274893
0.715833 -1.579856 1.561471
0.893306 -1.595948 1.025016
0.972086 -1.560027 1.747140
0.929218 -1.589107 1.360602
0.976240 -1.570762 1.760633
1.028850 -1.527356 2.314549
0.681655 -1.609524 1.366837
0.877853 -1.607770 1.017648
0.822053 -1.554605 1.997079
0.911158 -1.554164 2.088271
0.713703 -1.579231 1.715161
0.809876 -1.584995 1.302736
0.732262 -1.600895 1.263939
0.746164 -1.604350 1.359528
0.736697 -1.574790 1.939331
1.001493 -1.539769 2.172288
0.764661 -1.556556 2.196174
0.787703 -1.586536 1.729938
0.899155 -1.577857 1.352096
0.833251 -1.545833 2.221279
0.806248 -1.589718 1.352001
0.758862 -1.574391 1.613195
0.856366 -1.580657 1.741289
0.841058 -1.571657 1.674708
0.757431 -1.609325 0.986617
0.849011 -1.599491 1.024383
0.906776 -1.540401 2.264410
0.765938 -1.618685 1.029784
0.672269 -1.585092 1.564956
0.926123 -1.560368 1.736347
0.879477 -1.590986 1.350370
0.929102 -1.577372 1.749451
0.987250 -1.541014 2.307319
0.641809 -1.614360 1.367824
0.861342 -1.548478 2.069378
0.831276 -1.611817 1.014280
0.774672 -1.552137 1.986249
0.671703 -1.579570 1.712011
0.769741 -1.593835 1.305068
0.707160 -1.614045 1.361798
0.958382 -1.545764 2.161599
0.689061 -1.604246 1.264185
0.856608 -1.581284 1.349222
0.746948 -1.593635 1.729177
0.690616 -1.574701 1.936620
0.791001 -1.548521 2.213279
0.765933 -1.599774 1.351417
0.811315 -1.584742 1.733715
0.795629 -1.571647 1.668879
0.712050 -1.572623 1.606392
0.806350 -1.605725 1.025782
0.860270 -1.541138 2.248664
0.883688 -1.566990 1.730678
0.634422 -1.602171 1.576758
0.830515 -1.590704 1.340876
0.881532 -1.582112 1.737167
0.604090 -1.623716 1.372956
0.933170 -1.536655 2.276899
0.818346 -1.552227 2.062558
0.634453 -1.586964 1.714918
0.730977 -1.554745 1.983471
0.784930 -1.616798 1.011976
0.727647 -1.598047 1.305251
0.911351 -1.544682 2.143748
0.662917 -1.613763 1.357847
0.814741 -1.588600 1.347592
0.702127 -1.592665 1.721199
0.633462 -1.547430 1.907856
0.724325 -1.608010 1.350848
0.767487 -1.589617 1.727080
0.751719 -1.574399 1.664111
0.671853 -1.580431 1.609674
0.765642 -1.611694 1.026943
0.815244 -1.543576 2.234911
0.840289 -1.568836 1.722739
0.587837 -1.598080 1.574816
0.785233 -1.597676 1.336590
0.831300 -1.583263 1.723906
0.773199 -1.551482 2.051603
0.887390 -1.542337 2.261460
0.598227 -1.598016 1.722031
0.872661 -1.554702 2.139942
0.689905 -1.559895 1.982610
0.687492 -1.606912 1.307595
0.773415 -1.592824 1.345662
0.621956 -1.618835 1.357973
0.658395 -1.591489 1.714094
0.598509 -1.565779 1.925489
0.679139 -1.608931 1.346088
0.704448 -1.566959 1.651876
0.717674 -1.581765 1.711066
0.630123 -1.585497 1.611915
0.799877 -1.574061 1.718761
0.742024 -1.604303 1.333050
0.557725 -1.595149 1.718468
0.730891 -1.553131 2.044550
0.786275 -1.588429 1.715412
0.824568 -1.548919 2.118830
0.839970 -1.545353 2.243988
0.638525 -1.592482 1.298047
0.731941 -1.596066 1.343676
0.645297 -1.558790 1.976630
0.615902 -1.591093 1.707920
0.664615 -1.572884 1.651941
0.638219 -1.615067 1.345283
0.675920 -1.586301 1.705184
0.556699 -1.568737 1.929605
0.759211 -1.578379 1.713737
0.591785 -1.595843 1.619220
0.522484 -1.606074 1.725458
0.687669 -1.551059 2.034290
0.700863 -1.615510 1.332662
0.783472 -1.553539 2.109842
0.739609 -1.590928 1.704885
0.793021 -1.546411 2.224294
0.691854 -1.601076 1.342682
0.605640 -1.563517 1.979617
0.575265 -1.593229 1.705770
0.628282 -1.584015 1.658063
0.718654 -1.582628 1.709708
0.632080 -1.585209 1.697093
0.514633 -1.570788 1.932673
0.550637 -1.598884 1.620231
0.485158 -1.611370 1.730237
0.744812 -1.558651 2.103641
0.642442 -1.545482 2.019958
0.654184 -1.614756 1.325929
0.653922 -1.610590 1.345830
0.692137 -1.589635 1.692143
0.564853 -1.564673 1.977414
0.540065 -1.605217 1.711826
0.671341 -1.571413 1.693150
0.585747 -1.582566 1.652827
0.591202 -1.592422 1.695364
0.475919 -1.577059 1.941736
0.607347 -1.557397 2.027010
0.645606 -1.587149 1.680216
0.525198 -1.569413 1.980407
0.499282 -1.606378 1.709623
0.635265 -1.580733 1.695062
0.549673 -1.594622 1.660003
0.548198 -1.590216 1.687099
0.435563 -1.580663 1.948767
0.567840 -1.560394 2.024800
0.600718 -1.587343 1.670331
0.487400 -1.576685 1.987419
0.595395 -1.582887 1.690803
0.510416 -1.600741 1.690317
0.388115 -1.557574 1.928338
0.622160 -1.563400 2.075929
0.530446 -1.566836 2.027660
0.450626 -1.587616 1.998629
0.562804 -1.602866 1.674959
0.557639 -1.588484 1.691616
0.584296 -1.566347 2.070491
0.491517 -1.567806 2.024221
0.519521 -1.593249 1.690390
0.522078 -1.611085 1.673292
0.543617 -1.561986 2.058763
0.453721 -1.572360 2.025976
0.505539 -1.567823 2.056608
