# .PCD v0.7 - Point Cloud Data file format
VERSION 0.7
FIELDS x y z
SIZE 4 4 4
TYPE F F F
COUNT 1 1 1
WIDTH 2827
HEIGHT 1
VIEWPOINT 0 0 0 1
POINTS 2827
DATA ascii
2.267201 -1.478905 1.617283
2.266209 -1.495891 1.582276
2.233268 -1.485021 1.666317
2.237409 -1.490067 1.786310
2.239195 -1.505947 1.545300
2.202277 -1.491102 1.660347
2.187214 -1.498106 1.584360
2.158699 -1.480424 2.084399
2.131790 -1.481537 2.168427
2.163300 -1.509197 1.637380
2.159874 -1.508016 1.240384
2.149394 -1.501287 1.746398
2.083953 -1.468757 2.355484
2.075015 -1.463815 2.426496
2.127131 -1.503227 1.494421
2.111628 -1.494504 1.984442
2.108600 -1.495498 1.955445
2.082876 -1.479712 2.255480
2.108255 -1.500338 1.619443
2.044055 -1.463917 2.464529
2.076681 -1.493624 2.037480
2.080152 -1.496373 1.532474
2.076716 -1.494188 1.128479
2.056723 -1.487705 2.092504
2.039732 -1.485758 2.106523
2.012090 -1.466018 2.493562
2.043185 -1.494491 1.569515
2.054350 -1.504523 1.699498
2.065853 -1.513257 1.209481
2.010898 -1.473925 2.293559
1.988159 -1.466115 2.559587
1.991904 -1.474978 2.296579
1.993999 -1.478012 2.378576
2.020063 -1.498494 1.445537
1.972047 -1.464110 2.459605
2.018562 -1.501720 1.907538
2.017591 -1.501736 1.934539
1.999843 -1.488913 2.204564
2.010211 -1.502583 1.574546
1.956994 -1.468123 2.400620
1.984623 -1.495847 1.980577
1.982094 -1.494617 1.485579
1.972694 -1.496911 2.045588
1.956691 -1.492958 2.052608
1.924035 -1.471228 2.432653
1.926147 -1.474269 2.529649
1.950132 -1.494722 1.522613
1.952271 -1.497774 1.645610
1.937892 -1.489105 2.252629
1.957093 -1.507669 1.452600
1.909122 -1.475303 2.504667
1.907871 -1.484183 2.245664
1.892007 -1.472302 2.404686
1.935043 -1.505710 1.411624
1.902942 -1.482231 2.317670
1.920806 -1.496104 2.154644
1.934528 -1.507927 1.862624
1.922538 -1.503969 1.882638
1.907136 -1.495839 1.524658
1.880961 -1.477305 2.348696
1.914109 -1.511790 1.459644
1.899581 -1.501055 1.930664
1.889661 -1.504114 1.998673
1.881665 -1.502140 2.007683
1.842068 -1.474464 2.458738
1.851018 -1.483406 2.388725
1.836172 -1.475525 2.553744
1.870241 -1.502979 1.606694
1.864875 -1.500283 2.210702
1.822049 -1.475509 2.438759
1.819985 -1.483476 2.358757
1.847786 -1.506283 2.112717
1.835868 -1.499361 2.207733
1.830932 -1.495408 2.277740
1.838450 -1.502162 1.806729
1.805153 -1.478598 2.529776
1.828478 -1.503200 1.830739
1.812948 -1.490471 2.306762
1.811509 -1.497268 1.875760
1.802603 -1.504326 1.946766
1.799609 -1.504338 1.952769
1.777053 -1.487619 2.413801
1.776990 -1.492585 2.341799
1.756106 -1.476714 2.491829
1.785831 -1.504475 2.161784
1.753025 -1.485675 2.393828
1.766728 -1.506479 2.060803
1.748963 -1.493649 2.314828
1.763853 -1.510539 2.168804
1.758916 -1.506585 2.237811
1.733108 -1.484768 2.474849
1.741915 -1.497642 2.259833
1.708011 -1.493783 2.361871
1.687070 -1.483878 2.442898
1.707971 -1.502754 2.301867
1.707778 -1.505664 2.112866
1.688014 -1.497834 2.354890
1.682944 -1.503810 2.274893
1.674101 -1.497911 2.437905
1.678861 -1.507779 2.186895
1.667862 -1.499819 2.207911
1.640975 -1.500942 2.312939
1.631077 -1.500016 2.411950
1.626147 -1.496066 2.487957
1.631914 -1.502937 2.250947
1.620980 -1.503996 2.310958
1.603041 -1.498080 2.383980
2.308546 -1.489069 1.378193
2.241898 -1.498407 1.726252
2.225562 -1.504295 1.350265
2.180026 -1.494647 1.875311
2.121313 -1.472971 2.247376
2.122804 -1.488718 1.657367
2.125526 -1.504565 1.312358
2.089992 -1.498884 1.827394
2.037285 -1.483187 2.188450
2.011410 -1.469335 2.364480
2.035784 -1.496948 1.611445
2.045529 -1.514782 1.285428
2.003960 -1.503111 1.781472
1.954248 -1.490400 2.129524
1.939395 -1.480521 2.316542
1.948751 -1.501177 1.565524
1.914905 -1.500345 1.733556
1.866365 -1.486709 2.266607
1.885245 -1.504579 2.084582
1.833867 -1.501559 1.690631
1.801357 -1.497879 2.225662
1.797175 -1.501804 2.019665
1.758573 -1.478124 2.517711
1.732328 -1.503058 2.180724
1.693554 -1.489289 2.465766
1.631532 -1.498446 2.415820
2.355098 -1.487189 1.434693
2.298184 -1.483357 1.505771
2.251265 -1.486497 1.561834
2.311148 -1.481321 1.486754
2.262198 -1.482459 1.521820
2.312974 -1.496280 1.330748
2.254062 -1.495452 1.397828
2.200741 -1.489719 1.910902
2.143950 -1.480911 2.082982
2.269078 -1.495419 1.412808
2.174264 -1.506698 1.527934
2.137862 -1.489909 2.001988
2.205087 -1.484596 1.440897
2.178179 -1.496678 1.485931
2.145854 -1.482891 2.009979
2.218418 -1.486620 1.681878
2.216682 -1.488671 1.872881
2.202921 -1.499566 1.290896
2.174756 -1.482798 1.938939
2.165043 -1.507685 1.365946
2.170560 -1.491771 1.777942
2.104671 -1.492966 1.859032
2.057891 -1.490132 2.027096
2.043099 -1.484032 1.456117
2.168034 -1.501682 1.373943
2.133980 -1.480952 2.110995
2.049797 -1.494135 1.951106
2.090992 -1.477890 1.390053
2.064073 -1.487971 1.430087
2.082126 -1.474120 2.233067
2.103148 -1.475068 2.248038
2.058798 -1.492114 1.957094
2.011388 -1.462360 2.450166
2.023281 -1.471306 2.354148
2.128646 -1.499899 1.829997
2.123384 -1.497867 1.641005
2.103881 -1.504825 1.257029
2.084703 -1.491030 1.890059
2.049254 -1.466235 2.344114
2.017036 -1.495087 1.391149
2.058968 -1.503960 1.323090
1.968444 -1.464484 2.488224
2.055439 -1.461256 2.491107
2.067483 -1.493037 1.725082
2.016617 -1.499194 1.813149
1.972821 -1.496349 1.970209
2.026417 -1.467329 2.465144
1.973098 -1.502215 1.426207
2.068982 -1.504939 1.335076
1.959715 -1.493366 1.898228
1.925469 -1.467605 2.504281
2.042934 -1.492187 2.062115
1.992069 -1.504159 1.401181
2.024013 -1.500067 1.368138
1.990053 -1.479355 2.175190
1.972733 -1.497335 1.905209
2.013080 -1.481299 2.192159
1.938204 -1.475523 2.295262
1.934331 -1.472557 2.394268
1.950039 -1.510264 1.369236
2.033585 -1.505144 1.781125
1.961172 -1.470459 2.282232
1.992632 -1.494267 1.837183
1.981958 -1.516162 1.298191
1.897391 -1.473666 2.437318
2.016862 -1.515053 1.229144
2.019315 -1.499137 1.594145
1.970375 -1.469474 2.434220
1.982446 -1.502258 1.686195
1.929557 -1.502419 1.768266
1.894773 -1.505549 1.922313
1.886676 -1.501555 1.859325
1.937342 -1.473556 2.404263
1.842365 -1.468814 2.431393
1.990977 -1.519144 1.309178
1.894542 -1.471709 2.557322
1.950009 -1.515261 1.341235
1.953881 -1.500417 2.013234
1.910005 -1.488562 2.128296
1.884651 -1.497560 1.850328
1.937046 -1.493496 2.149259
1.859271 -1.480749 2.340367
1.863157 -1.484716 2.248361
1.877526 -1.469753 2.550345
1.826333 -1.480848 2.386412
1.885122 -1.479655 2.233332
1.900548 -1.492503 1.784308
1.936499 -1.502394 1.729257
1.919241 -1.498395 1.547281
1.889316 -1.477682 2.381327
1.880349 -1.495520 1.633334
1.831447 -1.492670 1.712401
1.807608 -1.501759 1.814431
1.802663 -1.499783 1.858439
1.783349 -1.486967 2.390468
1.860299 -1.484756 2.357365
1.810444 -1.471921 2.490436
1.799567 -1.495777 1.797444
1.859795 -1.499659 1.958361
1.832957 -1.496761 2.083398
1.862008 -1.503690 2.107357
1.799137 -1.498883 2.212444
1.785209 -1.487938 2.286465
1.757271 -1.486024 2.336504
1.795438 -1.471961 2.487456
1.820104 -1.494824 2.196416
1.815475 -1.492721 1.736423
1.851435 -1.503613 1.685371
1.817282 -1.489868 2.338421
1.717299 -1.497135 2.339555
1.781235 -1.489959 2.306470
1.739391 -1.480104 2.441529
1.698245 -1.498177 2.299580
1.728085 -1.505065 2.167538
1.722177 -1.500101 2.245547
1.750885 -1.497972 2.033509
1.778931 -1.503904 2.056469
1.778747 -1.505869 1.916469
1.729401 -1.483132 2.444542
1.746049 -1.501014 2.149514
1.744230 -1.497057 2.292518
1.653250 -1.506299 2.291639
1.712207 -1.502138 2.268560
1.675354 -1.490269 2.400613
1.632183 -1.501346 2.252668
1.647090 -1.499291 2.188648
1.665368 -1.494298 2.404625
1.673180 -1.503240 2.249612
1.609300 -1.496439 2.354700
1.595302 -1.497478 2.355719
2.361367 -1.464255 1.283458
2.323774 -1.495827 1.440806
2.219632 -1.503723 1.416467
2.293095 -1.488404 1.360401
2.212813 -1.479909 1.731833
2.280416 -1.498392 1.464397
2.114939 -1.508734 1.391003
2.330781 -1.486829 1.508630
2.171822 -1.503683 1.873882
2.197602 -1.502668 1.342909
2.089845 -1.523039 1.247033
2.111629 -1.489606 1.702415
2.296531 -1.488572 1.442835
2.209913 -1.477289 1.829614
2.173229 -1.501935 1.435989
2.017176 -1.511501 1.367947
2.067281 -1.467874 2.157203
2.066158 -1.503542 1.833110
2.085866 -1.501737 1.317565
2.210843 -1.506242 1.426890
1.982638 -1.523210 1.225486
2.011767 -1.495065 1.672658
2.106306 -1.481673 1.792999
2.138515 -1.493979 1.908057
2.079088 -1.487783 2.307348
2.074764 -1.507994 1.410173
2.195732 -1.476796 1.921292
1.986137 -1.442842 2.392386
1.939175 -1.525843 1.353311
2.112293 -1.492054 1.441952
1.985054 -1.515838 1.808514
1.981856 -1.481143 2.126953
1.997076 -1.512838 1.301459
2.094782 -1.500249 1.395501
2.061683 -1.457611 2.274787
1.862112 -1.506615 1.197798
1.904962 -1.491835 1.636830
2.049271 -1.503976 1.874834
2.019981 -1.493887 1.766750
1.987075 -1.491644 2.263896
1.971244 -1.448532 2.528437
1.977620 -1.509814 1.384015
2.099635 -1.482932 1.886281
2.053905 -1.476298 2.370989
2.122376 -1.499386 1.949033
1.913082 -1.457140 2.362353
1.835102 -1.516697 1.325962
2.021270 -1.499927 1.416753
1.887206 -1.512259 1.771036
1.884336 -1.481790 2.084711
2.003702 -1.505915 1.374185
2.098413 -1.500618 1.453804
1.972646 -1.465903 2.234431
1.969442 -1.437141 2.474899
1.955346 -1.505836 1.837419
1.906641 -1.500298 2.228999
1.821667 -1.501258 1.616259
1.914780 -1.489554 1.727728
1.879959 -1.452477 2.480953
1.908668 -1.528643 1.372058
2.049044 -1.453498 2.393266
2.008755 -1.489160 1.852942
2.101440 -1.478641 1.982587
1.964966 -1.481851 2.324427
2.027359 -1.502632 1.907754
2.110019 -1.492974 1.971863
1.833110 -1.463853 2.324300
2.019426 -1.496266 1.452080
1.939104 -1.510194 1.396129
2.042951 -1.474332 2.441270
1.803066 -1.514145 1.742006
1.925216 -1.517320 1.359406
2.009452 -1.509234 1.427513
1.794918 -1.485911 2.048174
1.890509 -1.445911 2.432878
1.889028 -1.474106 2.198732
1.860636 -1.503889 1.797828
1.829429 -1.508249 2.197865
1.826538 -1.491082 1.698961
1.727463 -1.497720 1.586604
1.796528 -1.511089 1.336715
1.808033 -1.466500 2.452860
1.963878 -1.461238 2.351606
2.012071 -1.482720 1.946998
1.911980 -1.486483 1.814443
2.034223 -1.436688 2.510036
1.888792 -1.491859 2.289325
1.925787 -1.499096 1.861502
2.014140 -1.498531 1.927789
1.763639 -1.474470 2.295819
1.936612 -1.502604 1.431251
1.873362 -1.530592 1.383056
1.954726 -1.479981 2.390655
2.047533 -1.473474 2.500439
1.735780 -1.526906 1.724559
1.820745 -1.506286 1.330972
1.919843 -1.513921 1.401036
1.816105 -1.455789 2.394645
1.709312 -1.487269 2.014224
1.807120 -1.479976 2.163786
1.780918 -1.508114 1.768647
1.749920 -1.510764 2.161539
1.882618 -1.467259 2.311586
1.666242 -1.518110 1.579283
1.734572 -1.477794 2.423717
1.875048 -1.440578 2.504284
1.927850 -1.486950 1.912079
1.962635 -1.450013 2.474814
1.830522 -1.491944 1.786461
1.812226 -1.499966 2.253142
1.844156 -1.505844 1.828591
1.926955 -1.505499 1.888239
1.853313 -1.505997 1.410286
1.682164 -1.473508 2.254401
1.878216 -1.490300 2.350582
1.771575 -1.519339 1.350417
1.955791 -1.478977 2.444042
1.640337 -1.513930 1.685369
1.846496 -1.527754 1.382058
1.741052 -1.461740 2.356223
1.724129 -1.481179 2.124618
1.675009 -1.514326 2.129996
1.719892 -1.526808 1.754162
1.888980 -1.458825 2.435443
1.809596 -1.476629 2.279255
1.841535 -1.485561 1.874956
1.802871 -1.452180 2.465009
1.660028 -1.484420 2.390347
1.763168 -1.504774 1.768018
1.737600 -1.506663 2.218758
1.760594 -1.507957 1.793530
1.833940 -1.503503 1.844525
1.764118 -1.500485 1.384161
1.625529 -1.488523 2.238383
1.801544 -1.499640 2.310478
1.880388 -1.491295 2.401012
1.671741 -1.469566 2.322553
1.612369 -1.525448 2.110139
1.653708 -1.490801 2.099185
1.623688 -1.511135 1.710842
1.814770 -1.464753 2.394938
1.764834 -1.489271 1.846542
1.737329 -1.484926 2.245814
1.729745 -1.458993 2.423500
1.810717 -1.455513 2.531264
1.670335 -1.495436 1.728877
1.667111 -1.512563 2.187058
1.578170 -1.481556 2.347865
1.700256 -1.525640 1.776929
1.745156 -1.501754 1.802560
1.732786 -1.510364 2.277953
1.798130 -1.495971 2.350961
1.604370 -1.475982 2.290679
1.750473 -1.476641 2.365182
1.566622 -1.481810 2.054669
1.654992 -1.480233 2.201217
1.658653 -1.465440 2.382844
1.611746 -1.509618 1.715961
1.734007 -1.462240 2.482978
1.588418 -1.510172 2.145381
1.609847 -1.514057 1.734476
1.475414 -1.481172 2.162408
1.652838 -1.508375 2.232361
1.722897 -1.503229 2.307630
1.685160 -1.483799 2.332191
1.513989 -1.499944 2.044623
1.588287 -1.469710 2.343017
1.660082 -1.467524 2.434417
1.516585 -1.509379 2.110366
1.431882 -1.481274 2.280151
1.575087 -1.507002 2.187677
1.654920 -1.513991 2.272062
1.463490 -1.475212 2.215490
1.610263 -1.480919 2.288199
1.456418 -1.458267 2.393749
1.516508 -1.519670 2.164647
1.578477 -1.514437 2.227407
1.454840 -1.476812 2.268826
1.459135 -1.486836 2.314698
2.306005 -1.508825 1.380313
2.208858 -1.523653 1.366128
2.237082 -1.542163 1.632940
2.313753 -1.503088 1.468455
2.094114 -1.522403 1.342563
2.071236 -1.544152 1.150031
2.154386 -1.508508 1.823248
2.219970 -1.534629 1.197832
2.130941 -1.542045 1.603455
1.989087 -1.522608 1.322088
1.992214 -1.558998 1.142941
2.062690 -1.519062 1.800079
2.108202 -1.530804 1.176748
2.035024 -1.545202 1.579162
2.190030 -1.527009 1.655821
2.271741 -1.532753 1.232902
2.072015 -1.527816 2.056130
2.150546 -1.497767 1.922389
1.910944 -1.537399 1.313905
2.034048 -1.489929 2.243126
2.032459 -1.548285 1.168484
1.958783 -1.516878 1.766186
2.215968 -1.510944 1.533160
1.924382 -1.533009 1.543212
2.104990 -1.539502 1.635075
2.162306 -1.532763 1.209833
2.004490 -1.513280 1.402017
1.980633 -1.528943 2.021095
2.349602 -1.532345 1.263263
2.005182 -1.468017 2.564640
2.061331 -1.507172 1.895824
1.940817 -1.494504 2.205558
1.944203 -1.553779 1.154629
1.861496 -1.515567 1.735679
1.843672 -1.537641 1.525441
2.123315 -1.519468 1.512945
2.008245 -1.541079 1.605709
2.165827 -1.530308 1.686695
2.075905 -1.544036 1.196204
1.962228 -1.475380 2.579167
1.912311 -1.516594 1.383395
2.048436 -1.514969 2.102820
1.901578 -1.536779 1.996326
2.039550 -1.473314 2.368006
1.929850 -1.478710 2.533628
2.230089 -1.530095 1.235070
2.147868 -1.497626 2.027292
1.972304 -1.512657 1.866925
1.855366 -1.498609 2.174161
2.227668 -1.504610 1.620916
1.773624 -1.548502 1.513036
2.018769 -1.515037 1.484977
1.910517 -1.536829 1.575000
1.774793 -1.518368 1.712402
2.072612 -1.535433 1.657202
1.981612 -1.546650 1.177743
1.878138 -1.480719 2.540653
1.965279 -1.521842 2.070350
1.846292 -1.535535 1.378230
1.824092 -1.542456 1.970214
1.952614 -1.478991 2.330827
1.841727 -1.475975 2.487865
2.131937 -1.535376 1.215203
2.059898 -1.505105 1.996398
1.875531 -1.510466 1.833260
1.774611 -1.504915 2.145456
2.138839 -1.512687 1.599226
1.923102 -1.513174 1.460275
1.821775 -1.535075 1.548546
1.977471 -1.535924 1.625557
1.903550 -1.557619 1.166216
2.158475 -1.531708 1.707558
1.793105 -1.481289 2.499863
2.037228 -1.513142 2.155053
1.885395 -1.528094 2.040505
2.046053 -1.465780 2.507630
1.736969 -1.536871 1.936236
1.765056 -1.480009 2.453477
1.875134 -1.487927 2.300933
2.032005 -1.537008 1.193247
1.976440 -1.512740 1.969064
2.148292 -1.488777 2.134284
1.792797 -1.513801 1.808566
2.038408 -1.509780 1.569906
1.862292 -1.533421 1.454627
1.695854 -1.508767 2.119374
1.760209 -1.552590 1.539755
1.890334 -1.539045 1.598288
2.055153 -1.530799 1.668628
1.957459 -1.522580 2.122408
1.969270 -1.475870 2.473696
1.718396 -1.487778 2.470508
1.802388 -1.529995 2.006645
1.663195 -1.538919 1.911466
1.695474 -1.485677 2.425498
1.951508 -1.547498 1.178918
1.889203 -1.513216 1.935546
1.799839 -1.496452 2.272794
2.058985 -1.492855 2.096206
1.712868 -1.515754 1.783463
1.952531 -1.511495 1.546403
1.611975 -1.504757 2.085190
1.797522 -1.534146 1.567000
1.974715 -1.542882 1.644332
1.874420 -1.526683 2.085685
1.885038 -1.477534 2.429852
1.728836 -1.535154 1.980067
2.041595 -1.513547 2.198747
1.649687 -1.496111 2.446691
1.629458 -1.492695 2.400262
1.800292 -1.509969 1.900930
1.719527 -1.497043 2.237540
1.980480 -1.500890 2.067338
1.863890 -1.509696 1.520931
1.802475 -1.536714 2.058291
1.810877 -1.484203 2.396389
1.871209 -1.533973 1.604827
1.658704 -1.540677 1.956174
1.950053 -1.516469 2.151769
1.581524 -1.501360 2.422579
1.564095 -1.496554 2.375723
1.721967 -1.510829 1.873538
1.901176 -1.505139 2.036255
1.654889 -1.508551 2.218555
1.796790 -1.520187 1.508159
1.741480 -1.491936 2.367533
1.714236 -1.530846 2.015339
1.783020 -1.532419 1.574299
1.869420 -1.523274 2.114992
1.515583 -1.507258 2.399289
1.823546 -1.507154 2.004820
1.661211 -1.523465 1.860252
1.614380 -1.483848 2.479660
1.574216 -1.502347 2.179804
1.719320 -1.520468 1.488691
1.846754 -1.480820 2.547259
1.674012 -1.498346 2.339375
1.641055 -1.534144 1.985561
1.794574 -1.532067 2.081774
1.746862 -1.507981 1.974208
1.550954 -1.489643 2.452030
1.774204 -1.483682 2.506253
1.604909 -1.502092 2.309185
1.678290 -1.511360 1.948952
1.716816 -1.536361 2.046522
1.704560 -1.487803 2.471089
1.540314 -1.505990 2.282545
1.631310 -1.530261 2.001242
1.644673 -1.497157 2.443305
1.577374 -1.496967 2.407548
1.521099 -1.506556 2.384451
2.240632 -1.458474 1.549700
2.258551 -1.489822 1.591629
2.147456 -1.488371 1.190333
2.115482 -1.484045 1.185001
2.138993 -1.464268 1.538280
2.164720 -1.501845 1.579074
2.058275 -1.501566 1.187547
2.285659 -1.461683 1.478853
2.021556 -1.490060 1.184971
2.130808 -1.442822 1.975413
2.039248 -1.465395 1.527206
2.304587 -1.480879 1.598226
2.176476 -1.484882 2.050045
2.051088 -1.498128 1.558782
1.970208 -1.511398 1.184311
2.167295 -1.459693 1.467257
2.041156 -1.449970 1.956898
2.125262 -1.491482 1.189864
1.943434 -1.465423 1.516648
2.206661 -1.492990 1.586075
2.076105 -1.491551 2.021442
2.336793 -1.454040 1.405312
2.181558 -1.442012 1.909605
1.946755 -1.496887 1.540867
1.865581 -1.504340 1.176932
2.060687 -1.461578 1.457945
1.951568 -1.454108 1.937063
2.042235 -1.506978 1.189733
1.865548 -1.475769 1.510444
2.098435 -1.495808 1.569952
1.985223 -1.500503 1.997195
2.096824 -1.456699 1.897440
2.211559 -1.452822 1.395468
1.856812 -1.500738 1.527112
1.937403 -1.411470 2.415033
1.788372 -1.515293 1.174775
2.268418 -1.485695 1.581222
1.864588 -1.456544 1.916800
1.770931 -1.510949 1.186185
2.251467 -1.434818 1.844309
1.969428 -1.468294 1.452675
1.950323 -1.513686 1.187561
1.768728 -1.468970 1.498288
2.105814 -1.491142 2.028530
1.998328 -1.497376 1.554922
1.901457 -1.511482 1.975492
2.391980 -1.455959 1.325438
2.111576 -1.488931 1.177893
1.997459 -1.459426 1.877410
2.105088 -1.457578 1.389456
1.856834 -1.417815 2.387472
1.772392 -1.505051 1.514885
1.715634 -1.527057 1.173277
1.855959 -1.500156 1.117813
2.179566 -1.502278 1.573689
1.773992 -1.453858 1.895365
1.696166 -1.517891 1.187415
1.891689 -1.481499 1.449780
2.148847 -1.443420 1.827207
1.995066 -1.415824 2.352057
1.845983 -1.506377 1.183150
2.022446 -1.505920 2.010195
1.900245 -1.498349 1.540653
1.804523 -1.507980 1.946528
2.031746 -1.507582 1.179795
2.257243 -1.453068 1.318358
1.895749 -1.454718 1.854824
1.797001 -1.436013 2.375253
2.005645 -1.464449 1.385005
1.704082 -1.520092 1.508243
1.776873 -1.509146 1.121696
1.716073 -1.472124 1.890038
2.068449 -1.501736 1.558504
1.793419 -1.476008 1.439913
2.046483 -1.448814 1.810770
2.141548 -1.486128 2.018423
1.917059 -1.428200 2.331936
1.640686 -1.496044 1.493930
1.776968 -1.523194 1.183819
1.931545 -1.510752 1.986527
1.825010 -1.511195 1.533443
2.072839 -1.413545 2.289466
1.717711 -1.508570 1.923053
1.950847 -1.522420 1.181415
1.728758 -1.445663 2.355915
1.818353 -1.465308 1.843555
2.155875 -1.466428 1.317780
1.922685 -1.476944 1.383558
1.630290 -1.527495 1.499339
2.215680 -1.444321 1.760162
2.233426 -1.494221 1.564611
1.628237 -1.464626 1.867841
1.703117 -1.518792 1.125125
1.960721 -1.498184 1.543692
1.718171 -1.483442 1.436185
2.057511 -1.500899 2.003174
1.948912 -1.452956 1.793738
1.836105 -1.435503 2.307545
1.571461 -1.502902 1.489565
2.113836 -1.501425 1.168060
1.693249 -1.525642 1.181430
1.834113 -1.508301 1.959729
1.729242 -1.505345 1.519262
1.660984 -1.531825 1.916127
1.982587 -1.424349 2.266347
1.644773 -1.442023 2.322627
1.740745 -1.471933 1.830889
1.830606 -1.503007 1.176295
2.052801 -1.474166 1.315786
1.815141 -1.467792 1.374214
1.571438 -1.479539 1.862067
2.107947 -1.452142 1.745506
2.135637 -1.505084 1.556354
1.867020 -1.498853 1.531978
1.657987 -1.501945 1.437177
1.960652 -1.503312 1.978822
1.858009 -1.457107 1.780095
1.765147 -1.448758 2.291885
2.016203 -1.508480 1.169498
2.185221 -1.490066 2.009610
1.745704 -1.507368 1.935229
1.664270 -1.520418 1.514311
1.588171 -1.456180 2.311704
1.892714 -1.430087 2.240647
1.554597 -1.508779 1.879022
1.650505 -1.465991 1.811106
1.767609 -1.525233 1.179965
1.505192 -1.484999 1.851205
1.964211 -1.488127 1.316055
1.754684 -1.491299 1.378779
2.026723 -1.503800 1.543896
2.006060 -1.458356 1.731125
1.790666 -1.510935 1.525810
1.584228 -1.506881 1.434069
1.869410 -1.506086 1.956990
2.051374 -1.424671 2.200005
1.682813 -1.448387 2.264823
1.779768 -1.467895 1.769943
2.091087 -1.499561 1.991767
1.677068 -1.519780 1.923299
1.591266 -1.526549 1.506203
1.498720 -1.527730 1.871575
1.814843 -1.441166 2.224427
1.592537 -1.483148 1.807704
1.686535 -1.528925 1.179455
1.438729 -1.486490 1.838944
1.671822 -1.493607 1.375275
1.845032 -1.473825 1.308318
1.921101 -1.499602 1.530818
1.909523 -1.463973 1.719195
1.712966 -1.518248 1.519285
1.608691 -1.452605 2.243495
1.781238 -1.507913 1.936787
1.955863 -1.431872 2.176014
1.672927 -1.452304 1.746745
1.994099 -1.503888 1.970646
1.583505 -1.509157 1.895288
1.422838 -1.525195 1.850755
1.732975 -1.447527 2.203070
1.524480 -1.489045 1.798074
1.377642 -1.491564 1.828547
1.602068 -1.504561 1.374414
1.841526 -1.510367 1.526841
1.773995 -1.493057 1.312476
1.639191 -1.524460 1.513270
1.812407 -1.464770 1.704807
1.699540 -1.509948 1.917987
1.904733 -1.507968 1.952791
1.613789 -1.471703 1.745716
1.872170 -1.444607 2.159529
1.522947 -1.523349 1.885784
1.398618 -1.470564 2.256791
1.757248 -1.530538 1.176673
1.446430 -1.483580 1.783209
1.650621 -1.448970 2.180242
1.739073 -1.499188 1.512735
1.688093 -1.495115 1.310248
1.622500 -1.512594 1.901827
1.711127 -1.458541 1.689097
1.821529 -1.514314 1.937606
1.343451 -1.479329 2.244186
1.548956 -1.483673 1.740452
1.463161 -1.536248 1.877098
1.788343 -1.453286 2.142653
1.674852 -1.532419 1.178131
1.675291 -1.516797 1.511980
1.419262 -1.476361 2.202691
1.617245 -1.508236 1.312763
1.532341 -1.501932 1.876505
1.289083 -1.486798 2.232364
1.726249 -1.507012 1.914120
1.479191 -1.489924 1.733052
1.695475 -1.451625 2.117498
1.616455 -1.535967 1.513921
1.354147 -1.477959 2.184250
1.491237 -1.531552 1.880821
1.666559 -1.525783 1.910040
1.585357 -1.496335 1.687691
1.448243 -1.474194 2.140869
1.303672 -1.492052 2.180816
1.419325 -1.529650 1.865709
1.581377 -1.519639 1.889716
1.496122 -1.487758 1.673590
1.385698 -1.481815 2.129873
1.510417 -1.523449 1.878126
1.475851 -1.474416 2.078548
1.330407 -1.494274 2.124729
1.450395 -1.534198 1.872244
1.408948 -1.481171 2.067893
1.336363 -1.480494 2.052988
2.320904 -1.455763 1.435618
2.265051 -1.501304 1.244166
2.343760 -1.457616 1.358335
2.244536 -1.470023 1.357791
2.148524 -1.500835 1.239424
2.244110 -1.500418 1.243384
2.208197 -1.451544 1.828089
2.107205 -1.463378 1.424519
2.255746 -1.457214 1.276480
2.207176 -1.499291 1.614762
2.240187 -1.452879 1.758000
2.277220 -1.502753 1.631677
2.282007 -1.444130 1.683590
2.230634 -1.495247 1.230140
2.060029 -1.514070 1.238031
2.131926 -1.471271 1.354935
2.141764 -1.509690 1.242697
2.108674 -1.456096 1.812348
2.014817 -1.471703 1.421808
2.130889 -1.522600 1.609551
2.152691 -1.466419 1.278875
2.318700 -1.440568 1.604387
2.143224 -1.463534 1.746873
2.172640 -1.509669 1.619721
2.231952 -1.497563 1.617225
2.166627 -1.447263 1.671081
2.137673 -1.509624 1.232308
1.969968 -1.522639 1.236147
2.029797 -1.475407 1.352523
1.897800 -1.495097 1.135677
2.051867 -1.521130 1.243194
2.018322 -1.464684 1.800362
1.927160 -1.478575 1.418469
2.020955 -1.521212 1.592933
2.058766 -1.421274 2.264932
2.062959 -1.480730 1.281760
2.218496 -1.457903 1.600497
2.108394 -1.514923 2.059221
2.046900 -1.469855 1.735111
2.111172 -1.429695 2.205061
2.072252 -1.516234 1.608354
2.148841 -1.518798 1.613340
2.065763 -1.454820 1.661909
2.047643 -1.523006 1.235092
1.947528 -1.487485 1.353434
1.823148 -1.509600 1.140285
2.125659 -1.511102 1.220927
1.935700 -1.473788 1.789773
1.959381 -1.528309 1.242343
2.141654 -1.510884 2.071333
2.081017 -1.487419 1.203544
1.858512 -1.496678 1.419975
1.972870 -1.428419 2.242222
2.216743 -1.516338 1.611482
1.919778 -1.519920 1.578579
1.969145 -1.489072 1.284215
2.017282 -1.524662 2.038331
2.098901 -1.457012 1.589839
2.012445 -1.433900 2.180065
1.948071 -1.471788 1.722991
1.976678 -1.521211 1.597356
2.077953 -1.436931 2.121277
2.037983 -1.516306 1.600683
1.953753 -1.528369 1.236140
1.980447 -1.469494 1.657351
1.833836 -1.465836 1.770547
1.756134 -1.524743 1.145300
2.039042 -1.527298 1.226804
2.128683 -1.437349 2.051443
2.053318 -1.524664 2.053758
1.989273 -1.498053 1.208131
1.902945 -1.445172 2.229476
1.758966 -1.487870 1.412582
2.105026 -1.517148 1.600339
1.830518 -1.525008 1.567038
1.858620 -1.480216 1.281831
2.091801 -1.519194 2.052991
1.924758 -1.530908 2.015077
1.994138 -1.461482 1.582618
1.935123 -1.447988 2.165597
1.849475 -1.468571 1.709151
1.885609 -1.526777 1.587041
1.987172 -1.449310 2.104745
1.760365 -1.528173 1.082995
1.938949 -1.517200 1.589442
1.723709 -1.546908 1.231175
1.829846 -1.508338 1.231444
1.885668 -1.473009 1.648105
1.771435 -1.485512 1.767640
2.129310 -1.515443 2.047600
1.961274 -1.531614 2.032569
1.934134 -1.524718 1.227770
1.824342 -1.453831 2.210358
2.029725 -1.447114 2.035286
1.706327 -1.512123 1.416495
1.876902 -1.491486 1.210252
2.007282 -1.523489 1.593743
1.734161 -1.519027 1.552639
1.780729 -1.491716 1.285299
1.997635 -1.525680 2.032934
1.829011 -1.531010 1.990284
1.900345 -1.469507 1.577923
1.857586 -1.461027 2.152019
1.789545 -1.491345 1.709465
1.798409 -1.531049 1.577219
1.902231 -1.459680 2.089446
1.850659 -1.523699 1.582031
1.700780 -1.508237 1.354089
1.682917 -1.481229 1.752762
1.758265 -1.523067 1.234771
1.805491 -1.483937 1.643595
1.746771 -1.458965 2.191689
2.041325 -1.528763 2.033961
1.873586 -1.537960 2.013944
1.700159 -1.540829 1.239981
1.830259 -1.518617 1.229188
1.628942 -1.514611 1.413667
1.943398 -1.461892 2.022712
1.796049 -1.502700 1.215962
1.915289 -1.527943 1.587392
1.679225 -1.544518 1.551850
1.906082 -1.530229 2.013397
1.709235 -1.506327 1.289616
1.748350 -1.539219 1.972295
1.771275 -1.462981 2.130667
1.684408 -1.475965 1.691560
1.823592 -1.486355 1.576922
1.706086 -1.526653 1.565693
1.953514 -1.417042 2.494869
1.807119 -1.460250 2.068692
1.782405 -1.541000 1.580328
1.620929 -1.495516 1.750109
1.624523 -1.513310 1.353520
1.699150 -1.546177 1.240113
1.715930 -1.483577 1.635389
1.667698 -1.460728 2.169669
1.949311 -1.534313 2.016610
1.785423 -1.540517 1.992832
1.762643 -1.538162 1.234814
1.601023 -1.546836 1.542990
1.853931 -1.470405 2.009584
1.823538 -1.530364 1.579735
1.718037 -1.513043 1.221299
1.826380 -1.539836 1.999541
1.635447 -1.514498 1.292267
1.659082 -1.536091 1.948514
1.684030 -1.462129 2.109026
1.625442 -1.495358 1.691331
1.633088 -1.534423 1.559105
1.734300 -1.488753 1.572084
1.868440 -1.429014 2.474715
1.717451 -1.461110 2.048501
1.685275 -1.532000 1.567599
1.547644 -1.497425 1.739740
1.615032 -1.481546 2.166022
1.640580 -1.492931 1.631245
1.866549 -1.543757 2.004009
1.690395 -1.533070 1.967971
1.686124 -1.547113 1.238813
1.718846 -1.517518 1.567161
1.748507 -1.463119 1.985660
1.728204 -1.532350 1.974948
1.571163 -1.530378 1.925280
1.629256 -1.482481 2.106515
1.553451 -1.499600 1.685198
1.660162 -1.500565 1.571185
1.480597 -1.501252 1.732100
1.657341 -1.481067 2.046413
1.781633 -1.436554 2.452099
1.619244 -1.546565 1.565328
1.523866 -1.466196 2.133707
1.776750 -1.543454 1.985679
1.572011 -1.503092 1.628620
1.624999 -1.549160 1.958754
1.669562 -1.547862 1.573575
1.656330 -1.542358 1.963476
1.678718 -1.480193 1.981014
1.512248 -1.549447 1.917902
1.536240 -1.469417 2.078707
1.483993 -1.505146 1.679006
1.555264 -1.463884 2.015827
1.584686 -1.508760 1.568910
1.474939 -1.487659 2.132838
1.707482 -1.450782 2.437334
1.681659 -1.534734 1.963670
1.536759 -1.539418 1.935003
1.491452 -1.500802 1.621369
1.596513 -1.554359 1.569839
1.571264 -1.537470 1.944125
1.596912 -1.483144 1.967467
1.440766 -1.552374 1.902428
1.483061 -1.488267 2.075845
1.414450 -1.493998 2.120879
1.506075 -1.489212 2.019537
1.635810 -1.566096 1.969896
1.478327 -1.556080 1.929278
1.502315 -1.543375 1.932854
1.416605 -1.492339 2.064116
1.523812 -1.491102 1.959875
1.351998 -1.497951 2.107766
1.429844 -1.487407 2.003852
1.546562 -1.555374 1.949119
1.437323 -1.550976 1.923474
1.350385 -1.494373 2.051081
1.448888 -1.494751 1.948835
1.368870 -1.496568 1.997358
1.476752 -1.558358 1.938539
1.381546 -1.500834 1.941484
2.334311 -1.579717 1.284896
2.321594 -1.624482 1.268218
2.237744 -1.595254 1.289401
2.251208 -1.578477 1.655149
2.210968 -1.629878 1.268998
2.253628 -1.629638 1.623482
2.135130 -1.601677 1.290967
2.162323 -1.596036 1.652518
2.105939 -1.632998 1.270243
2.156964 -1.642171 1.616506
2.026382 -1.600928 1.291878
2.044097 -1.590810 1.640149
1.998583 -1.630880 1.268898
2.045830 -1.638341 1.605011
1.925231 -1.600431 1.292494
2.034759 -1.578496 2.076245
1.943488 -1.591060 1.631753
1.895186 -1.624879 1.268891
2.059027 -1.641980 2.030067
1.945733 -1.637451 1.595433
1.843869 -1.611172 1.295723
1.939719 -1.583924 2.059200
1.934371 -1.511653 2.552750
1.844114 -1.586695 1.621690
1.821415 -1.641302 1.271521
1.958050 -1.641664 2.008495
1.848421 -1.635492 1.585599
1.732038 -1.592615 1.293450
1.913851 -1.552791 2.548108
1.992422 -1.633005 2.505657
1.836491 -1.578098 2.037012
1.855546 -1.524273 2.528856
1.764356 -1.597459 1.618806
1.869029 -1.645621 1.993008
1.756947 -1.634243 1.577621
1.899833 -1.636667 2.476162
1.831686 -1.564155 2.528250
1.761674 -1.591824 2.028239
1.756388 -1.516579 2.489075
1.691692 -1.609618 1.616797
1.781824 -1.648997 1.976363
1.678387 -1.640529 1.572078
1.819070 -1.646673 2.454042
1.737354 -1.561159 2.496958
1.670919 -1.589132 2.010965
1.687102 -1.530175 2.470948
1.600744 -1.601789 1.607940
1.695349 -1.648910 1.959234
1.730075 -1.645553 2.425786
1.658699 -1.567997 2.476355
1.592785 -1.592803 1.997999
1.603804 -1.530129 2.441569
1.601602 -1.637207 1.936869
1.642141 -1.642018 2.396160
1.587553 -1.578711 2.461988
1.539277 -1.541569 2.425980
1.498836 -1.577984 1.975241
1.544340 -1.658394 1.934359
1.561842 -1.640289 2.371476
1.516170 -1.586450 2.446234
1.470577 -1.548485 2.407973
1.494369 -1.649726 2.355768
1.432616 -1.579828 2.419049
1.388030 -1.537875 2.374149
1.417862 -1.646326 2.332722
1.350247 -1.568718 2.389199
1.335011 -1.554633 2.366831
2.286452 -1.524110 1.329687
2.219199 -1.506534 1.278171
2.246954 -1.480295 1.640879
2.182711 -1.532711 1.333980
2.100266 -1.503425 1.281243
2.212745 -1.530934 1.687470
2.131502 -1.482399 1.634514
2.301427 -1.482406 1.437667
2.084312 -1.541318 1.337042
2.290319 -1.522078 1.348390
2.151765 -1.464188 2.080124
2.005543 -1.512187 1.287215
2.100883 -1.529773 1.677378
2.025432 -1.485711 1.628960
2.197098 -1.490770 1.437888
2.287532 -1.472263 1.511161
2.290399 -1.514563 1.343524
1.972622 -1.535244 1.338323
2.173763 -1.520977 1.345590
2.246888 -1.511633 1.684631
2.202646 -1.463804 1.789364
2.092524 -1.518344 1.124696
2.041247 -1.465939 2.060331
1.918767 -1.523993 1.293351
2.095245 -1.521521 2.095462
1.998371 -1.531845 1.669446
1.922105 -1.487863 1.623119
2.075832 -1.482296 1.432074
1.849167 -1.541200 1.105714
2.209887 -1.495992 1.512701
2.045730 -1.519468 1.188009
2.193913 -1.526321 1.341925
2.118419 -1.496490 1.248147
2.076215 -1.527531 1.345234
1.889853 -1.546538 1.343187
2.134394 -1.512293 1.671818
2.112592 -1.478778 1.782958
2.207955 -1.466805 1.864169
1.949425 -1.477882 2.049504
1.810883 -1.513870 1.295851
1.998150 -1.525690 2.078511
1.900860 -1.532713 1.662121
1.994156 -1.496760 1.434340
1.837858 -1.497366 1.621686
2.195645 -1.526836 1.666729
2.092915 -1.490265 1.505118
1.779328 -1.558097 1.115996
1.957694 -1.528639 1.193758
2.087484 -1.528558 1.338223
2.043266 -1.517577 1.253228
1.974420 -1.527475 1.342993
1.782419 -1.533417 1.342138
2.047559 -1.524844 1.664881
2.084615 -1.449018 2.212737
2.017485 -1.483330 1.773050
2.020338 -1.502820 2.556788
2.102014 -1.468277 1.848147
1.853758 -1.482250 2.034582
1.737051 -1.527509 1.302751
1.908246 -1.530798 2.063432
1.814012 -1.537320 1.656969
2.087177 -1.516439 2.086890
1.901174 -1.501354 1.433495
2.086251 -1.527420 1.652764
1.736633 -1.490181 1.613233
1.994462 -1.493478 1.500217
1.840734 -1.510522 1.196351
1.983863 -1.527447 1.333862
1.950389 -1.521744 1.255333
2.131378 -1.506183 2.077437
1.898054 -1.543996 1.345389
1.990022 -1.454699 2.192871
1.949792 -1.528584 1.653978
1.837585 -1.431724 2.494875
1.929578 -1.508702 2.530730
1.922474 -1.485710 1.762805
1.816014 -1.530829 1.140054
2.020055 -1.481938 1.841176
2.060593 -1.436339 2.273146
1.872290 -1.521485 1.109825
1.755648 -1.479229 2.017558
1.656818 -1.532232 1.307481
1.824144 -1.538523 2.050571
1.743043 -1.551740 1.656782
1.993052 -1.522894 2.068158
1.828899 -1.517029 1.436588
1.981860 -1.526797 1.639407
1.904110 -1.497226 1.497079
1.652190 -1.492416 1.609637
1.776056 -1.529925 1.203771
1.901746 -1.539366 1.332719
1.829787 -1.501482 1.253685
2.044156 -1.520288 2.060659
1.847868 -1.516452 2.509648
1.783496 -1.525963 1.339797
1.905736 -1.464926 2.178377
1.847886 -1.523371 1.641805
1.828920 -1.486263 1.753229
1.922309 -1.481778 1.826581
1.760354 -1.558475 1.146403
1.982775 -1.451435 2.258124
1.807979 -1.541972 1.116389
1.733577 -1.535633 2.032210
1.680528 -1.490997 2.010048
1.649912 -1.543235 1.647762
1.888836 -1.518444 2.042023
1.731899 -1.508466 1.432772
1.884204 -1.526366 1.626807
1.833520 -1.512601 1.497002
1.602785 -1.523468 1.618336
1.710527 -1.547707 1.209972
1.946220 -1.501509 2.535865
1.953888 -1.530639 2.041399
1.758678 -1.516324 2.482560
1.823304 -1.472363 2.162338
1.774587 -1.536165 1.637392
1.755209 -1.498135 1.748684
1.828239 -1.479905 1.812567
1.896241 -1.457836 2.239044
1.997886 -1.492908 2.537472
1.748525 -1.554387 1.148792
1.728969 -1.549472 1.121506
1.652407 -1.537685 2.019323
1.588823 -1.485109 1.993305
1.569518 -1.542954 1.641559
1.811679 -1.531829 2.029787
1.674640 -1.530454 1.437267
1.798506 -1.532195 1.617758
1.742060 -1.509472 1.491804
1.521624 -1.523107 1.615215
1.860710 -1.509646 2.508945
1.697303 -1.534992 1.261742
1.685551 -1.527241 2.466719
1.857654 -1.530965 2.018742
1.740963 -1.477630 2.145957
1.644914 -1.551893 1.342855
1.672059 -1.522791 1.622922
1.670674 -1.498848 1.740786
1.756713 -1.492058 1.806953
1.811559 -1.461447 2.218417
1.909945 -1.503610 2.508043
1.582321 -1.546241 2.011070
1.721023 -1.529319 2.009469
1.519219 -1.496266 1.988524
1.716900 -1.537208 1.609415
1.671235 -1.519605 1.490909
1.649327 -1.547576 1.326140
1.767300 -1.509018 2.475887
1.606768 -1.527476 2.443290
1.660557 -1.479786 2.129998
1.765972 -1.531214 1.997910
1.611220 -1.540572 1.621840
1.598947 -1.505591 1.735332
1.666408 -1.486298 1.793172
1.736693 -1.470887 2.203396
1.811072 -1.501624 2.470947
1.489921 -1.530487 1.988684
1.637902 -1.530824 1.991516
1.454994 -1.509141 1.985820
1.602279 -1.528806 1.490806
1.638440 -1.541955 1.600902
1.693583 -1.519724 2.455983
1.537437 -1.534358 2.428659
1.677436 -1.531202 1.976911
1.525990 -1.509658 1.729513
1.592886 -1.489945 1.784242
1.660161 -1.474893 2.185533
1.738947 -1.518113 2.451931
1.441074 -1.554468 1.991161
1.551906 -1.524042 1.971318
1.380303 -1.510042 1.976567
1.566196 -1.550208 1.594732
1.472578 -1.543351 2.416213
1.616772 -1.526838 2.432605
1.600116 -1.490819 2.179047
1.615473 -1.550302 1.970040
1.534364 -1.505646 1.782724
1.651365 -1.518119 2.419750
1.488786 -1.538269 1.963714
1.383414 -1.523706 2.379865
1.540112 -1.529601 2.408509
1.455080 -1.503235 2.098601
1.509656 -1.476187 2.150647
1.471073 -1.514163 1.777202
1.513585 -1.530045 1.940243
1.584752 -1.534002 2.403457
1.431085 -1.554050 1.959169
1.474643 -1.540407 2.393361
1.388214 -1.507513 2.087501
1.456368 -1.494184 2.147266
1.452695 -1.544416 1.932567
1.501843 -1.531608 2.373737
1.389724 -1.529476 2.360301
1.396070 -1.503022 2.137625
1.321912 -1.508331 2.075807
1.405736 -1.512681 2.331749
1.342483 -1.515940 2.132419
1.335065 -1.545420 2.352630
1.361174 -1.541580 2.332872
2.298137 -1.664752 1.324473
2.262447 -1.623523 1.474892
2.199425 -1.676010 1.330050
2.152544 -1.625148 1.474186
2.291207 -1.658966 1.335673
2.033474 -1.630813 1.183659
2.257810 -1.612756 1.559183
2.141671 -1.620903 1.879060
2.093677 -1.676445 1.333120
2.161697 -1.678821 1.667920
2.054502 -1.631323 1.474925
2.139545 -1.625066 1.258521
2.187395 -1.664247 1.337409
1.944409 -1.638587 1.192528
2.159974 -1.622486 1.557420
1.980915 -1.665904 1.334669
2.032704 -1.619372 1.866746
2.065791 -1.685870 1.663699
2.251652 -1.632811 1.335379
1.944576 -1.625496 1.473105
2.293927 -1.665223 1.348511
2.185636 -1.676886 1.665724
2.036951 -1.625149 1.262464
2.254604 -1.616140 1.639613
2.084226 -1.666060 1.338615
2.126335 -1.607497 1.952131
1.850842 -1.638616 1.200325
2.055897 -1.623210 1.553419
1.881695 -1.661494 1.336854
1.971830 -1.689983 1.658989
1.932585 -1.620304 1.856642
1.980120 -1.584878 2.323753
2.153113 -1.640059 1.338312
2.192692 -1.671889 1.348385
1.841442 -1.617913 1.470848
2.091004 -1.684652 1.660570
1.945297 -1.630167 1.267939
2.021100 -1.699916 2.072551
2.152040 -1.620957 1.633155
1.982198 -1.663134 1.339053
2.022160 -1.607496 1.937906
2.208037 -1.678688 1.665162
1.944793 -1.612975 1.547886
2.289948 -1.659203 1.344476
1.904700 -1.660651 1.141288
1.798023 -1.667736 1.340322
1.865233 -1.678410 1.649111
2.249601 -1.630121 1.408818
1.832675 -1.617031 1.844869
1.881176 -1.585895 2.301494
2.045302 -1.636360 1.338764
2.082185 -1.667609 1.345778
1.757758 -1.624278 1.473333
1.983628 -1.678923 1.650602
1.867972 -1.643269 1.273314
1.923709 -1.698423 2.055927
2.052363 -1.622296 1.627104
2.119839 -1.613807 2.029104
1.876045 -1.653523 1.337556
2.064702 -1.697978 2.071821
1.978878 -1.658223 1.159783
1.958774 -1.641580 1.160720
1.926841 -1.609947 1.925881
2.108991 -1.684482 1.656772
1.852297 -1.615173 1.544864
2.189977 -1.666738 1.342429
1.960452 -1.577098 2.392815
2.169972 -1.651320 1.410428
1.781961 -1.684230 1.646447
1.732197 -1.607584 1.832153
1.931355 -1.621459 1.336612
1.981423 -1.665541 1.344298
1.788481 -1.588175 2.282330
2.225059 -1.668714 1.647756
1.884681 -1.674893 1.641710
2.162272 -1.623597 1.708136
1.773255 -1.638886 1.277423
1.831231 -1.697819 2.041360
1.913501 -1.697411 2.532332
1.953242 -1.622206 1.621855
2.023926 -1.618015 2.014318
1.963291 -1.695414 2.052092
1.804374 -1.669763 1.342291
2.044326 -1.638097 1.212266
1.883584 -1.656901 1.167406
2.001159 -1.678194 1.644697
1.889036 -1.662691 1.164129
2.087866 -1.682968 2.063473
1.837748 -1.613807 1.915960
1.759231 -1.611194 1.540896
2.080733 -1.663326 1.337904
1.868097 -1.580600 2.371790
2.041973 -1.630049 1.403566
1.679766 -1.665481 1.635347
1.847644 -1.627894 1.339085
1.877846 -1.657311 1.340926
1.643888 -1.605631 1.822344
2.130726 -1.678068 1.638790
1.706761 -1.596664 2.270967
1.790730 -1.669711 1.633530
2.055219 -1.619132 1.696303
1.740272 -1.693526 2.025170
1.823150 -1.696211 2.507499
2.112726 -1.605157 2.096709
1.966347 -1.692235 2.540942
1.851363 -1.614073 1.612382
1.928246 -1.617859 1.998855
1.867705 -1.693357 2.034333
1.964696 -1.655606 1.171791
1.954448 -1.642727 1.215608
1.904700 -1.677583 1.635268
1.998411 -1.692135 2.048320
1.743273 -1.608583 1.901724
1.695040 -1.629775 1.544812
1.979922 -1.661604 1.334459
1.935122 -1.574391 2.458796
1.780229 -1.584244 2.351701
1.937868 -1.623121 1.400395
1.768399 -1.634613 1.341504
1.792902 -1.661355 1.341052
2.037834 -1.685766 1.629550
1.577553 -1.622282 1.823014
1.624799 -1.600349 2.255825
1.970306 -1.629320 1.691297
1.701644 -1.665721 1.625430
1.655936 -1.691547 2.011210
2.012972 -1.604225 2.076149
1.741077 -1.700637 2.487406
1.874921 -1.693941 2.514569
1.831060 -1.612067 1.981544
1.760476 -1.610557 1.606405
1.774465 -1.689263 2.016206
1.878752 -1.661969 1.174317
1.862556 -1.643004 1.217324
1.808980 -1.671317 1.624936
1.900923 -1.691337 2.027771
1.861158 -1.663700 1.139644
1.649030 -1.598992 1.886807
1.878942 -1.654608 1.330201
1.845054 -1.576183 2.435416
1.698608 -1.589148 2.334699
1.851975 -1.627707 1.399603
2.052622 -1.699017 2.037637
1.936979 -1.683038 1.617875
1.868484 -1.619333 1.679499
1.541250 -1.600431 2.240180
1.925974 -1.609027 2.061242
1.657574 -1.697395 2.464117
1.572229 -1.686105 1.996699
1.790946 -1.699618 2.491685
1.923016 -1.693348 2.520987
1.689046 -1.620970 1.605173
1.744355 -1.612183 1.967949
1.689990 -1.689658 2.001612
1.715101 -1.664297 1.614459
1.812734 -1.693585 2.011525
1.587441 -1.619022 1.887890
1.927406 -1.569370 2.525016
1.762924 -1.580810 2.414316
1.799096 -1.663262 1.328902
1.946473 -1.691605 2.013220
1.772665 -1.634904 1.399071
1.618421 -1.592398 2.317415
1.826927 -1.667328 1.602376
1.780956 -1.619150 1.670925
1.826574 -1.601555 2.039675
1.575423 -1.694533 2.441888
1.467792 -1.605376 2.229093
1.705059 -1.698760 2.466815
1.830317 -1.692854 2.491274
1.652688 -1.603966 1.951155
1.602797 -1.681704 1.984763
1.972564 -1.688370 2.514608
1.719986 -1.688406 1.992216
1.840828 -1.572163 2.499678
1.686982 -1.588572 2.398633
1.853356 -1.693172 1.993960
1.539289 -1.592938 2.300701
1.734349 -1.660867 1.591945
1.691941 -1.613174 1.661486
1.750714 -1.608643 2.028920
1.500739 -1.695489 2.424126
1.615898 -1.691151 2.437939
1.742529 -1.693252 2.463615
1.579256 -1.608545 1.943008
1.881358 -1.693713 2.485785
1.634368 -1.684253 1.974914
1.760496 -1.576210 2.477425
1.604693 -1.587946 2.376741
1.758727 -1.689108 1.972850
1.465464 -1.595270 2.286167
1.607009 -1.606425 1.652840
1.664671 -1.603595 2.011459
1.527766 -1.680986 2.408644
1.651916 -1.687497 2.434058
1.489730 -1.593172 1.924030
1.786878 -1.692316 2.452957
1.677288 -1.574414 2.451295
1.547639 -1.675367 1.955890
1.536402 -1.595465 2.362863
1.672969 -1.687336 1.954915
1.380265 -1.581173 2.260222
1.579656 -1.595987 1.993578
1.463383 -1.691954 2.397270
1.570491 -1.686979 2.409153
1.608835 -1.584437 2.435786
1.690077 -1.683485 2.418007
1.460070 -1.593016 2.343582
1.578791 -1.674543 1.932432
1.525625 -1.616389 1.992510
1.492257 -1.685925 2.386114
1.539746 -1.588603 2.417338
1.612315 -1.690821 2.396286
1.463446 -1.584451 2.394743
1.528738 -1.688331 2.369120
1.408279 -1.600505 2.388996
2.263238 -1.626870 1.389607
2.301526 -1.677727 1.405847
2.155345 -1.625409 1.396147
2.228447 -1.607336 1.726917
2.273865 -1.615737 1.470245
2.198736 -1.681379 1.413358
2.289270 -1.667897 1.410671
2.047420 -1.638938 1.204042
2.158031 -1.637826 1.262887
2.046924 -1.620946 1.402056
2.122147 -1.609057 1.724907
2.186989 -1.630384 1.477618
2.258939 -1.636889 1.324153
2.080192 -1.669085 1.416839
2.277866 -1.612532 1.546714
2.199226 -1.680883 1.417785
2.287809 -1.673532 1.418560
1.956803 -1.640929 1.215917
1.981056 -1.662392 1.227066
2.054699 -1.635711 1.272216
2.058542 -1.653758 1.241273
2.126476 -1.694626 1.729654
1.948344 -1.618282 1.407019
2.025840 -1.614314 1.724388
2.155544 -1.637807 1.330046
2.074307 -1.623419 1.479009
2.154203 -1.612690 1.806067
2.147304 -1.658804 1.260194
2.180773 -1.620016 1.548737
1.990371 -1.674072 1.423213
2.082415 -1.670542 1.418566
2.063649 -1.581313 2.143302
2.178338 -1.670654 1.419715
1.868409 -1.643115 1.226753
1.882211 -1.670258 1.169808
1.907346 -1.677098 1.239169
1.962136 -1.637319 1.279974
2.139930 -1.689540 1.716188
1.963673 -1.653249 1.248636
1.946252 -1.650009 1.203398
2.024952 -1.693067 1.725748
1.856573 -1.617472 1.413204
2.047868 -1.631029 1.334380
1.923785 -1.609515 1.720807
1.975633 -1.621427 1.481048
2.042931 -1.604587 1.797941
2.046080 -1.657551 1.265547
2.027050 -1.650053 1.239916
2.092773 -1.631690 1.551404
2.153858 -1.604994 1.876564
1.886137 -1.663520 1.425599
1.978683 -1.663244 1.420618
2.073791 -1.668791 1.419922
1.961392 -1.580790 2.130439
2.074677 -1.574641 2.217777
1.809210 -1.667560 1.248767
2.151312 -1.688662 1.704743
1.882312 -1.645648 1.288823
2.038841 -1.689083 1.711495
2.046923 -1.698980 2.126315
1.889907 -1.668407 1.258809
1.864153 -1.656010 1.212831
1.920877 -1.682911 1.720030
1.784549 -1.631929 1.422152
1.953293 -1.629878 1.338526
1.827060 -1.604212 1.716955
1.874977 -1.613858 1.481934
1.946737 -1.605117 1.792283
1.953368 -1.657464 1.270893
1.936680 -1.651877 1.246638
1.979636 -1.616986 1.547001
2.057181 -1.607268 1.869244
1.802937 -1.666267 1.431284
1.883999 -1.660351 1.422348
1.975476 -1.665757 1.420704
1.872918 -1.588071 2.121950
2.076203 -1.692958 2.109001
1.975018 -1.575620 2.202084
2.050156 -1.688679 1.698096
2.075823 -1.572077 2.287339
1.794155 -1.645060 1.295971
1.940301 -1.685151 1.705941
1.946226 -1.693500 2.111275
1.801272 -1.666967 1.265782
1.831010 -1.681853 1.716889
1.870116 -1.635047 1.343701
1.787095 -1.612807 1.484870
1.853603 -1.602813 1.786913
1.737141 -1.600771 1.714316
1.900464 -1.546792 2.614254
1.873495 -1.666268 1.277797
1.956668 -1.602928 1.859556
1.848083 -1.652831 1.253111
1.887677 -1.617522 1.547344
2.096789 -1.684113 2.089274
1.797472 -1.659724 1.425332
1.877976 -1.660137 1.420885
1.781867 -1.586982 2.110653
1.977860 -1.692012 2.093864
1.881113 -1.574577 2.186775
1.942761 -1.677786 1.688210
1.978711 -1.572175 2.269306
1.850473 -1.688824 2.096258
1.847189 -1.682877 1.700588
1.734517 -1.671183 1.710815
1.797108 -1.648067 1.351326
1.722654 -1.629337 1.491969
1.758459 -1.595149 1.779403
1.671798 -1.618156 1.719603
1.811587 -1.551673 2.596025
1.867612 -1.604470 1.852856
1.792174 -1.607964 1.544531
2.008692 -1.692974 2.078027
1.927889 -1.693624 2.585860
1.793699 -1.662095 1.422322
1.883532 -1.689938 2.079375
1.697741 -1.589697 2.102034
1.793175 -1.575621 2.173793
1.855702 -1.682362 1.684182
1.888405 -1.574126 2.252492
1.758762 -1.682803 2.082863
1.753443 -1.675438 1.694112
1.959077 -1.681279 2.566022
1.655073 -1.672153 1.709844
1.678062 -1.596995 1.776601
1.576925 -1.602061 1.713302
1.777921 -1.600848 1.845033
1.725371 -1.622816 1.549289
1.907425 -1.687365 2.059906
1.831146 -1.686334 2.558001
1.789050 -1.683558 2.063939
1.716867 -1.584069 2.167207
1.609650 -1.583836 2.089592
1.757657 -1.669829 1.674657
1.792302 -1.566239 2.231636
1.685629 -1.690353 2.078023
1.661756 -1.663648 1.686600
1.868557 -1.682356 2.542893
1.585781 -1.582388 1.767459
1.686213 -1.591866 1.835068
1.630515 -1.606352 1.544933
1.808220 -1.677411 2.040750
1.750408 -1.690933 2.542516
2.265372 -1.630714 1.383821
1.902953 -1.680866 2.529448
2.288625 -1.666616 1.411633
1.707964 -1.686280 2.053167
1.630536 -1.579931 2.153034
1.546020 -1.600984 2.091721
1.674329 -1.667015 1.668864
1.729463 -1.585948 2.230182
1.594981 -1.678721 2.061308
1.789341 -1.691714 2.528419
1.626623 -1.610059 1.838294
1.668489 -1.689942 2.523777
2.160027 -1.631461 1.385649
1.728692 -1.684677 2.031969
2.188566 -1.606247 1.613856
2.147835 -1.660577 1.275718
2.131955 -1.654830 1.272928
1.810464 -1.678991 2.503682
2.180882 -1.665898 1.410139
1.624410 -1.682570 2.041049
1.550644 -1.578735 2.141360
1.646787 -1.584369 2.216452
1.453772 -1.582452 2.073531
1.516434 -1.675354 2.051159
1.699914 -1.686970 2.502945
1.535398 -1.592440 1.824342
1.582151 -1.682110 2.499570
2.058610 -1.628906 1.387640
1.643207 -1.680372 2.016704
2.169466 -1.592170 1.943726
2.105061 -1.620620 1.614938
2.041921 -1.655748 1.278384
2.017687 -1.640863 1.274851
1.719259 -1.675385 2.477498
2.085937 -1.671656 1.410706
1.535507 -1.670089 2.024088
2.166505 -1.678088 1.678078
1.465307 -1.566604 2.124355
1.563886 -1.578912 2.199820
1.611701 -1.678113 2.477541
1.508001 -1.681897 2.484854
1.960767 -1.626946 1.388636
1.556243 -1.671134 2.001423
2.073117 -1.593792 1.934187
2.002920 -1.616338 1.610430
1.949159 -1.656303 1.281822
1.929555 -1.645656 1.279087
1.639232 -1.678107 2.458506
1.974638 -1.658281 1.407548
2.074112 -1.685948 1.672891
1.403086 -1.577061 2.121873
1.504527 -1.594511 2.198379
1.528576 -1.671789 2.454591
1.433718 -1.679972 2.467720
1.867809 -1.623394 1.390144
1.982683 -1.597914 1.925024
1.911129 -1.614468 1.606119
1.860864 -1.656788 1.285106
1.549016 -1.666513 2.429490
1.845923 -1.650162 1.284142
1.880246 -1.654977 1.406088
1.965300 -1.675108 1.662027
1.406977 -1.565301 2.167718
1.463981 -1.683589 2.446347
1.986785 -1.553930 2.327346
2.049224 -1.689282 2.052082
1.888391 -1.595422 1.913495
1.788157 -1.629769 1.392416
1.825891 -1.617682 1.604796
1.482496 -1.677711 2.418102
1.791315 -1.653100 1.405802
1.870756 -1.673098 1.654725
1.898659 -1.556259 2.309513
1.939155 -1.679098 2.030149
1.801805 -1.594098 1.904024
1.737562 -1.611667 1.600486
1.772640 -1.661003 1.644261
1.824532 -1.567860 2.299449
1.853112 -1.684049 2.016955
1.945004 -1.674645 2.506018
1.719295 -1.594011 1.894703
1.645855 -1.599892 1.593986
1.696850 -1.667531 1.641338
1.738000 -1.564997 2.280424
1.762347 -1.682829 2.001535
1.855515 -1.680060 2.482819
1.634787 -1.588342 1.884217
1.665468 -1.571402 2.269161
1.673151 -1.676402 1.984894
1.555734 -1.584100 1.874895
1.767310 -1.683744 2.459197
1.594309 -1.578233 2.257961
1.586710 -1.670591 1.969337
1.485920 -1.585756 1.868638
1.668813 -1.670766 2.426035
1.518155 -1.575006 2.241596
1.581614 -1.666252 2.400552
1.425637 -1.551115 2.211928
1.510014 -1.675312 2.385798
2.326438 -1.568995 1.347900
2.337647 -1.562026 1.417240
2.306854 -1.591552 1.301608
2.286893 -1.579020 1.293708
2.224831 -1.573810 1.358692
2.282954 -1.586618 1.326811
2.276754 -1.578642 1.342467
2.266029 -1.547176 1.600754
2.211952 -1.592679 1.286384
2.190762 -1.586490 1.255358
2.223418 -1.557152 1.422751
2.253473 -1.610016 1.452946
2.217647 -1.603824 1.311953
2.187697 -1.582451 1.303061
2.276333 -1.592014 1.339908
2.275089 -1.581084 1.379470
2.253532 -1.575212 1.487676
2.242983 -1.605423 1.451134
2.175173 -1.579650 1.348162
2.115083 -1.567605 1.366875
2.195108 -1.599620 1.335249
2.181085 -1.564328 1.609159
2.225277 -1.601041 1.449499
2.111873 -1.592719 1.296970
2.246726 -1.563469 1.536663
2.091526 -1.585501 1.267729
2.212356 -1.560767 1.681999
2.134635 -1.567232 1.430474
2.158216 -1.615984 1.460805
2.224018 -1.555608 1.747618
2.219735 -1.603361 1.434948
2.103017 -1.592671 1.318987
2.080739 -1.576745 1.311310
2.179741 -1.588036 1.383440
2.176476 -1.595887 1.344228
2.147599 -1.572761 1.489499
2.217126 -1.621567 1.735448
2.147911 -1.610545 1.456707
2.222682 -1.617265 1.714760
2.096558 -1.599788 1.340673
2.236165 -1.625166 1.697992
2.089188 -1.590232 1.355954
2.019982 -1.568062 1.376434
2.076184 -1.560220 1.609519
2.132733 -1.608471 1.453539
2.158056 -1.573673 1.538218
2.019938 -1.595550 1.308095
1.999028 -1.587305 1.279638
2.121362 -1.567800 1.682809
2.233520 -1.616567 1.662009
2.033193 -1.563207 1.435936
2.050285 -1.608087 1.465433
2.141021 -1.570698 1.748233
2.131103 -1.613343 1.437482
2.006942 -1.590716 1.325889
2.078682 -1.596245 1.346585
1.987240 -1.576364 1.319587
2.064866 -1.574891 1.383778
2.044917 -1.568130 1.490704
2.111901 -1.547847 1.967866
2.046429 -1.607255 1.459263
2.121973 -1.628129 1.735210
2.137865 -1.537660 2.037070
2.154919 -1.562423 1.803820
2.126924 -1.623288 1.713362
1.990445 -1.589724 1.343674
1.981338 -1.577559 1.359362
2.130360 -1.623078 1.692690
1.939869 -1.577549 1.386929
1.981414 -1.559688 1.611602
2.026325 -1.600703 1.453002
2.057291 -1.570804 1.536729
1.936928 -1.600863 1.318624
1.921719 -1.597042 1.291165
2.021198 -1.565699 1.681515
2.150306 -1.633266 1.662008
1.957534 -1.576506 1.443168
1.952668 -1.602911 1.469498
2.035320 -1.563566 1.742684
2.022924 -1.603469 1.435413
1.922146 -1.594155 1.333917
1.976016 -1.577483 1.386512
1.911869 -1.587616 1.329392
1.974528 -1.587466 1.348836
1.947820 -1.564472 1.492042
2.009866 -1.545050 1.959219
2.017706 -1.620998 1.730670
1.952521 -1.605724 1.463138
2.043252 -1.541891 2.029006
2.051480 -1.559419 1.795138
2.032641 -1.625010 1.709813
2.062746 -1.541321 2.093562
2.032324 -1.621662 1.687408
1.905909 -1.589549 1.366275
1.907347 -1.596270 1.349376
1.856121 -1.578865 1.395449
1.937119 -1.601179 1.455231
1.958956 -1.566316 1.534799
1.897711 -1.565660 1.616146
2.122596 -1.632822 2.081351
1.862990 -1.611893 1.330428
2.096940 -1.632628 2.108591
1.823497 -1.586203 1.300023
2.039071 -1.621152 1.652234
1.929959 -1.565855 1.680618
2.093056 -1.541083 2.154949
1.864882 -1.571533 1.447194
1.942848 -1.562877 1.738504
1.867473 -1.604730 1.475090
1.925417 -1.598222 1.434313
1.848948 -1.605381 1.342662
1.891916 -1.581623 1.389564
1.832625 -1.592053 1.337578
1.897865 -1.598638 1.352477
1.865330 -1.567501 1.494779
2.009723 -1.512660 2.406229
1.926962 -1.555626 1.957702
1.928659 -1.620866 1.729661
1.854936 -1.596287 1.464083
1.953617 -1.546099 2.021889
2.040724 -1.510652 2.478434
1.965839 -1.564987 1.791363
1.939023 -1.622529 1.706244
1.965789 -1.538613 2.079673
1.939862 -1.621004 1.683229
1.829754 -1.597327 1.372134
1.830609 -1.603261 1.355048
2.041900 -1.630842 2.040532
1.754777 -1.561362 1.399584
1.852653 -1.603441 1.456778
1.867589 -1.562816 1.533998
2.020300 -1.628072 2.066033
1.810929 -1.564502 1.617916
2.068591 -1.635417 2.002063
2.002374 -1.632596 2.097398
1.755408 -1.588707 1.335325
1.738136 -1.579671 1.309682
1.830535 -1.555245 1.676138
1.944381 -1.621301 1.646245
1.995234 -1.539656 2.138305
1.797373 -1.587429 1.455962
1.854578 -1.562690 1.735388
1.789600 -1.609895 1.481364
1.846634 -1.605158 1.435886
1.821410 -1.594556 1.393510
1.749532 -1.589651 1.344107
1.753877 -1.593349 1.347014
1.824823 -1.609519 1.356991
1.797202 -1.583093 1.501419
1.924922 -1.522781 2.396376
1.838675 -1.618076 1.726961
1.834721 -1.553846 1.952218
1.785065 -1.609520 1.470164
1.872598 -1.560803 1.783209
1.867611 -1.550010 2.015641
1.946589 -1.513313 2.459665
1.845878 -1.617384 1.701982
1.886059 -1.547732 2.074605
1.843540 -1.613744 1.676435
1.736841 -1.585472 1.374416
1.738281 -1.592198 1.357518
1.973777 -1.521525 2.532461
1.947900 -1.632110 2.027596
1.694051 -1.579322 1.410795
1.793544 -1.571494 1.534879
1.782768 -1.616923 1.461891
1.921046 -1.622236 2.051412
1.972009 -1.635121 1.987749
1.913770 -1.635422 2.087839
1.744806 -1.580875 1.625749
1.905603 -1.540291 2.125103
1.847472 -1.613266 1.639261
1.759458 -1.567369 1.679903
1.991841 -1.509628 2.584960
1.708412 -1.577622 1.458680
1.767575 -1.559291 1.731432
1.779859 -1.621740 1.439652
1.730434 -1.584223 1.394068
1.735019 -1.600768 1.357925
1.702106 -1.567708 1.498727
1.998741 -1.622788 2.485479
1.831903 -1.522848 2.380031
1.753115 -1.614437 1.724982
1.782613 -1.554191 1.775401
1.745703 -1.550125 1.945140
1.690619 -1.594203 1.470575
1.781686 -1.549377 2.007208
1.856299 -1.514341 2.441431
1.979847 -1.629134 2.517376
1.760865 -1.615025 1.698249
1.803836 -1.550734 2.065977
1.950408 -1.630349 2.545072
1.882462 -1.520607 2.509622
1.757122 -1.611396 1.671704
1.858545 -1.631193 2.015036
1.680471 -1.593183 1.458270
1.844111 -1.632106 2.045445
1.699381 -1.559277 1.531940
1.825265 -1.633462 2.077065
1.874726 -1.630590 1.972382
1.652088 -1.568395 1.624789
1.827866 -1.546622 2.115151
1.914101 -1.521079 2.569085
1.763591 -1.612986 1.633964
1.662786 -1.548994 1.673396
1.640640 -1.586858 1.464738
1.706944 -1.577598 1.735503
1.683609 -1.604807 1.436591
1.645491 -1.587368 1.506150
1.916886 -1.633307 2.470500
1.939826 -1.634734 2.430278
1.675834 -1.617054 1.724414
1.714476 -1.566440 1.775003
1.751796 -1.530566 2.371539
1.666385 -1.552415 1.941442
1.773392 -1.517984 2.426798
1.697978 -1.548449 1.998657
1.888944 -1.630128 2.496053
1.687674 -1.623171 1.698994
1.871611 -1.639277 2.532719
1.721473 -1.550528 2.055511
1.795955 -1.520729 2.489010
1.686469 -1.621605 1.671883
1.773764 -1.632896 2.004079
1.760371 -1.631673 2.034953
1.646440 -1.583061 1.537232
1.742953 -1.632778 2.068543
1.786197 -1.629151 1.959674
1.749003 -1.551152 2.105807
1.826966 -1.520901 2.546340
1.590611 -1.582840 1.632036
1.688610 -1.619265 1.632205
1.601852 -1.564708 1.678888
1.622835 -1.569902 1.730399
1.827976 -1.635351 2.449404
1.629140 -1.557898 1.766611
1.590011 -1.606754 1.719728
1.840816 -1.629395 2.402368
1.807778 -1.636651 2.480050
1.673322 -1.537204 2.362740
1.582234 -1.545427 1.933434
1.637367 -1.566756 2.002737
1.701205 -1.529588 2.420146
1.601245 -1.612332 1.693148
1.783989 -1.637603 2.512716
1.645687 -1.553484 2.048802
1.711698 -1.520074 2.470219
1.600023 -1.611015 1.665067
1.684168 -1.625081 1.989782
1.680033 -1.632282 2.025688
1.666011 -1.634163 2.061463
1.662346 -1.542947 2.089273
1.745205 -1.522792 2.525038
1.701640 -1.629786 1.947412
1.614289 -1.621785 1.628447
1.555637 -1.576583 1.729607
1.731260 -1.624904 2.420151
1.572311 -1.575313 1.768312
1.755288 -1.632736 2.381527
1.719405 -1.631227 2.457047
1.598682 -1.542209 2.354473
1.627690 -1.536651 2.410309
1.550471 -1.555226 1.990540
1.522108 -1.560836 1.937805
1.704928 -1.639878 2.497654
1.560703 -1.543706 2.033906
1.647433 -1.535563 2.465408
1.606823 -1.625091 1.979266
1.591720 -1.621008 2.011522
1.580258 -1.624700 2.047703
1.612537 -1.569564 2.094187
1.667680 -1.524690 2.506742
1.617995 -1.624838 1.934743
1.653365 -1.629025 2.404503
1.637606 -1.628967 2.437800
1.667883 -1.630264 2.359256
1.619812 -1.632024 2.474998
1.479950 -1.556559 1.985373
1.550507 -1.536016 2.396535
1.527242 -1.549355 2.348748
1.454372 -1.566492 1.937810
1.487218 -1.541576 2.025859
1.577492 -1.542813 2.454504
1.528569 -1.621960 1.969010
1.522886 -1.641092 2.050194
1.513083 -1.615985 1.999763
1.521266 -1.551002 2.072037
1.580039 -1.635769 2.390455
1.568059 -1.638376 2.427441
1.548363 -1.635592 2.463195
1.595308 -1.641032 2.347247
1.414009 -1.560269 1.982775
1.493243 -1.556338 2.397967
1.444003 -1.571377 2.034539
1.431438 -1.524572 2.318945
1.505051 -1.543942 2.440039
1.531930 -1.540408 2.483081
1.455243 -1.555680 2.065552
1.501272 -1.632689 2.370938
1.485251 -1.644448 2.456676
1.493654 -1.638749 2.411800
1.514352 -1.638277 2.327862
1.396877 -1.526700 2.363842
1.415708 -1.523531 2.409129
1.383172 -1.550009 2.329733
1.398494 -1.568805 2.064105
1.431445 -1.635443 2.357863
1.421906 -1.635903 2.396310
1.407980 -1.636563 2.436940
1.351358 -1.553111 2.372748
1.436606 -1.633578 2.306878
2.268475 -1.439836 1.786159
2.257307 -1.464276 1.699785
2.227406 -1.455208 1.676030
2.171860 -1.444289 1.784460
2.148226 -1.460104 1.696485
2.129268 -1.457723 1.675677
2.199124 -1.472960 1.860145
2.260635 -1.431400 1.759237
2.273024 -1.456288 1.723181
2.228178 -1.441344 1.671909
2.079491 -1.448583 1.782826
2.063153 -1.468942 1.697927
2.044910 -1.466822 1.678320
2.121996 -1.425113 2.009315
2.100327 -1.475005 1.855306
2.174245 -1.442556 1.762614
2.169083 -1.456154 1.722679
2.140997 -1.451174 1.676893
1.988485 -1.451541 1.780714
1.973525 -1.471497 1.696766
2.200801 -1.420440 1.977434
1.945613 -1.460614 1.675575
2.034059 -1.431959 2.004526
2.212205 -1.470010 1.909215
2.020434 -1.487033 1.853867
2.248936 -1.441762 1.657879
2.267702 -1.434824 1.723455
2.094087 -1.486583 2.150655
2.080387 -1.445894 1.763777
2.087022 -1.468454 1.726646
2.055789 -1.458054 1.679692
1.891911 -1.443342 1.775102
1.879919 -1.465791 1.692225
1.863765 -1.463511 1.674764
2.096840 -1.418573 1.969805
1.949620 -1.438030 1.999533
2.022387 -1.394863 2.326603
2.122289 -1.479539 1.907577
1.927190 -1.486653 1.847161
2.154340 -1.445692 1.663531
2.166575 -1.435212 1.725369
2.198943 -1.459039 1.737885
1.999778 -1.490996 2.139380
1.987069 -1.445980 1.763676
1.992887 -1.466636 1.725762
1.962340 -1.456135 1.680940
1.817513 -1.452785 1.776029
1.810707 -1.479583 1.695020
2.177376 -1.417199 1.925310
2.019844 -1.432375 1.971294
1.793049 -1.475708 1.677964
1.939592 -1.403949 2.317487
1.862840 -1.439673 1.992731
2.029710 -1.479459 1.902047
1.835194 -1.483279 1.840384
2.064017 -1.449817 1.668316
2.261557 -1.443962 1.643430
2.075508 -1.438708 1.729882
2.104394 -1.462771 1.740250
2.258696 -1.436611 1.683516
1.911814 -1.495449 2.129373
1.897858 -1.443673 1.761660
2.090594 -1.477001 2.208562
1.907432 -1.468361 1.726532
1.878287 -1.457806 1.681724
1.743730 -1.460274 1.776208
2.087206 -1.423103 1.925433
1.930882 -1.433722 1.967520
1.716097 -1.477423 1.677912
1.860290 -1.412264 2.308164
1.777416 -1.439982 1.985448
2.137637 -1.476629 1.942762
1.982535 -1.387267 2.277729
1.943885 -1.485894 1.900391
2.242687 -1.415011 1.868429
1.758491 -1.488659 1.838576
2.169093 -1.448729 1.652689
1.977936 -1.453775 1.673162
1.988053 -1.443079 1.733782
2.018451 -1.468743 1.743750
1.980580 -1.499146 2.561317
2.213212 -1.456773 1.751877
2.172884 -1.446350 1.692785
1.821102 -1.449294 1.763144
1.831204 -1.504818 2.121530
2.002017 -1.483471 2.199317
1.823362 -1.469113 1.725887
1.810473 -1.471793 1.687858
1.667518 -1.462036 1.774051
2.001276 -1.428841 1.925617
1.842403 -1.430884 1.961024
1.782341 -1.419245 2.298357
1.645044 -1.483175 1.678557
1.719956 -1.461431 1.990546
2.048121 -1.480951 1.941212
1.911447 -1.404497 2.277543
1.862243 -1.491235 1.897341
2.052052 -1.390082 2.238939
2.155581 -1.425880 1.874901
1.895351 -1.456948 1.677801
2.074316 -1.449437 1.659207
1.903272 -1.444753 1.736687
1.931560 -1.470228 1.745449
1.881816 -1.497004 2.536591
2.120826 -1.461702 1.756916
2.067813 -1.439721 1.696100
1.742790 -1.452039 1.764535
1.913347 -1.487736 2.188128
1.748702 -1.474024 1.727156
1.743651 -1.503456 2.109242
1.722354 -1.463564 1.685691
2.099087 -1.477298 2.258929
1.606129 -1.476193 1.777228
1.599206 -1.501025 1.697586
1.913740 -1.430773 1.924255
1.764292 -1.436353 1.959205
1.702867 -1.423717 2.287526
1.576818 -1.488827 1.679245
1.629624 -1.449354 1.977142
1.962955 -1.486768 1.939312
1.832101 -1.412160 2.270107
1.773731 -1.487146 1.890363
1.967072 -1.398590 2.233815
2.062371 -1.428318 1.876780
2.145440 -1.473683 1.980072
1.826657 -1.468338 1.685019
1.830985 -1.454707 1.742164
1.844460 -1.467842 1.745610
1.991222 -1.456499 1.667515
2.030375 -1.463316 1.760695
1.805885 -1.512818 2.527158
1.985379 -1.446097 1.704152
1.679209 -1.465298 1.768356
1.832548 -1.494204 2.180186
1.682249 -1.486120 1.730444
1.662595 -1.504727 2.099257
1.661712 -1.478947 1.691514
2.007553 -1.481368 2.248637
1.531133 -1.474045 1.773565
1.524844 -1.497851 1.694605
1.831179 -1.433156 1.923216
1.706000 -1.455569 1.964468
1.637273 -1.437215 2.284964
1.506897 -1.489368 1.677859
1.565934 -1.459777 1.976627
1.871571 -1.482484 1.933226
1.759225 -1.422084 2.265905
1.707426 -1.501253 1.892311
1.886296 -1.406571 2.229680
1.974058 -1.429906 1.878461
2.048432 -1.470620 1.975356
1.541801 -1.503147 1.830751
1.906268 -1.455866 1.672707
1.784746 -1.487379 1.754178
1.734640 -1.439015 1.738934
1.939714 -1.461060 1.762936
1.895978 -1.441759 1.707747
1.715685 -1.512242 2.505453
1.605106 -1.466968 1.768372
2.008264 -1.393465 2.179429
1.755457 -1.503424 2.174533
1.622322 -1.501205 1.735100
1.597205 -1.488303 1.695920
1.918115 -1.484722 2.238129
1.468737 -1.482437 1.774436
1.766315 -1.448711 1.928991
1.541584 -1.416288 2.258216
1.621572 -1.448720 1.956513
1.500005 -1.467435 1.973889
1.793442 -1.487668 1.932360
2.099147 -1.474328 2.310116
1.678056 -1.422073 2.255382
1.622896 -1.492765 1.884776
1.815867 -1.422486 2.231156
1.893114 -1.436379 1.882311
1.971332 -1.482191 1.979189
1.471998 -1.504788 1.826591
1.830163 -1.461349 1.680595
1.676191 -1.455912 1.746491
1.695819 -1.477313 1.751249
1.862296 -1.467688 1.768018
1.827432 -1.455427 1.716958
1.640896 -1.522869 2.494001
1.539662 -1.472179 1.770028
1.675055 -1.504074 2.164300
1.543450 -1.493642 1.732391
1.932791 -1.408254 2.182449
1.522692 -1.483154 1.694283
1.841704 -1.494226 2.233658
1.676659 -1.437799 1.922478
1.557007 -1.456550 1.957088
1.492935 -1.442611 2.265527
2.006052 -1.475952 2.298789
1.429306 -1.465844 1.968422
1.720479 -1.496265 1.931929
1.615380 -1.437376 2.255767
1.559938 -1.503519 1.885487
1.735435 -1.423717 2.223276
1.809677 -1.436204 1.882367
1.888247 -1.487002 1.978023
1.635848 -1.491715 1.757782
1.609707 -1.482696 1.697483
1.618495 -1.473096 1.755276
1.786982 -1.473605 1.772885
1.733247 -1.440956 1.716402
1.478696 -1.481135 1.773306
1.604993 -1.512687 2.159678
1.760702 -1.496906 2.224196
1.478821 -1.499885 1.733417
1.852727 -1.416226 2.180480
1.460995 -1.491509 1.697305
1.454224 -1.524905 2.082149
1.434413 -1.455900 2.263082
1.604815 -1.441738 1.922375
1.490291 -1.462932 1.955968
1.923231 -1.484221 2.292562
1.369103 -1.474622 1.966289
1.528576 -1.424750 2.237922
1.489365 -1.504240 1.882004
1.665428 -1.434201 2.221535
1.805579 -1.487263 1.975055
1.750678 -1.455677 1.893097
1.539641 -1.481879 1.699829
1.547060 -1.472698 1.756680
1.563873 -1.493666 1.759039
1.517462 -1.499479 2.141588
1.686318 -1.504431 2.219010
1.772396 -1.419963 2.177897
1.381462 -1.522964 2.072199
1.366075 -1.457633 2.254709
1.552292 -1.462673 1.930651
1.421772 -1.462899 1.952240
1.842285 -1.488805 2.285992
1.479174 -1.450145 2.245925
1.426945 -1.511773 1.881459
1.563713 -1.408354 2.196909
1.730983 -1.492665 1.975445
1.666136 -1.448450 1.890325
1.477865 -1.489537 1.704714
1.631004 -1.491458 1.705181
1.483830 -1.479478 1.760099
1.496116 -1.495445 1.760340
1.617611 -1.472632 1.737176
1.465019 -1.520579 2.145645
1.608643 -1.503755 2.208307
1.695668 -1.424577 2.174692
1.308871 -1.469243 2.252716
1.484565 -1.464795 1.931018
1.367442 -1.476499 1.956482
1.765736 -1.495816 2.280521
1.506993 -1.505923 1.927603
1.416895 -1.459662 2.244032
1.510495 -1.429016 2.203995
1.602433 -1.459436 1.896477
1.550381 -1.479672 1.706078
1.574101 -1.485382 1.784417
1.546114 -1.471566 1.740452
1.402882 -1.531807 2.143370
1.615011 -1.422241 2.168611
1.246244 -1.472080 2.244934
1.424214 -1.472180 1.932608
1.691188 -1.500809 2.274301
1.446023 -1.514366 1.928526
1.346745 -1.455026 2.233047
1.455684 -1.446240 2.208594
1.574479 -1.486674 1.968258
1.529555 -1.458221 1.896434
1.490146 -1.489544 1.712960
1.508618 -1.489994 1.787977
1.484367 -1.479834 1.747732
1.326788 -1.521338 2.128834
1.535501 -1.415404 2.158604
1.616498 -1.503232 2.267056
1.363860 -1.479223 1.935149
1.378161 -1.513381 1.925507
1.291799 -1.469113 2.234255
1.512974 -1.498051 1.971409
1.395635 -1.457871 2.210832
1.467703 -1.464610 1.900805
1.449092 -1.499561 1.793687
1.413161 -1.528408 2.198660
1.493620 -1.448735 2.176457
1.550700 -1.512712 2.263955
1.449668 -1.503024 1.971949
1.333850 -1.463830 2.208602
1.406532 -1.470340 1.904938
1.346129 -1.528571 2.190744
1.437239 -1.463124 2.180958
1.471051 -1.502764 2.250558
1.387783 -1.507955 1.972517
1.272627 -1.467465 2.206537
1.343852 -1.473929 1.907107
1.364870 -1.457531 2.174891
1.420087 -1.524461 2.257060
1.303869 -1.464743 2.175335
1.355330 -1.527461 2.251404
2.033161 -1.498717 1.963278
2.036558 -1.484796 2.025097
2.060853 -1.490089 2.001863
1.990072 -1.504989 2.044860
1.940069 -1.498675 1.957572
1.942776 -1.485215 2.017317
2.018264 -1.496881 2.108485
1.964718 -1.486644 1.996419
1.955397 -1.465503 2.210778
1.958300 -1.475363 2.031754
1.899370 -1.505996 2.037640
2.000225 -1.490711 2.027463
1.854881 -1.501118 1.952676
1.975534 -1.474795 2.034156
1.864603 -1.494817 2.015521
1.922908 -1.494055 2.100047
1.886797 -1.497017 1.996157
1.867488 -1.469206 2.201788
2.027371 -1.491994 2.059787
1.918099 -1.506417 2.268803
1.881228 -1.486180 2.031790
1.994881 -1.480817 2.041231
1.954738 -1.463454 2.186289
1.822152 -1.516517 2.035266
1.914955 -1.495018 2.026872
1.963074 -1.500397 2.158500
1.770240 -1.502829 1.947456
1.901180 -1.487256 2.037504
1.779118 -1.496091 2.010006
1.878497 -1.474651 2.203353
1.946509 -1.501548 2.350949
1.848563 -1.507127 2.099207
1.802837 -1.498292 1.993019
1.930086 -1.484117 2.054241
1.788923 -1.477798 2.196071
1.834955 -1.514472 2.260173
1.801750 -1.493289 2.030866
1.942807 -1.464450 2.165661
1.982194 -1.492204 2.211194
1.911658 -1.484372 2.042680
1.871009 -1.468368 2.183886
1.834710 -1.499278 2.025561
1.734991 -1.514659 2.025772
1.828043 -1.444039 2.503838
1.875367 -1.501594 2.152749
1.683528 -1.496889 1.939306
1.817400 -1.488858 2.036793
1.692562 -1.491053 2.000078
1.791915 -1.474773 2.196033
1.860824 -1.508308 2.341443
1.766224 -1.509461 2.093369
1.718822 -1.496872 1.987388
1.858150 -1.497051 2.060280
1.712256 -1.485335 2.189982
1.750757 -1.518494 2.250535
1.712996 -1.485286 2.021494
1.864852 -1.471580 2.167121
1.902535 -1.501324 2.211266
1.831861 -1.489722 2.045330
1.798998 -1.481458 2.186625
1.815675 -1.447548 2.491186
1.883701 -1.504238 2.411132
1.752054 -1.499828 2.023289
1.652526 -1.513826 2.018322
1.752631 -1.456564 2.497005
1.796238 -1.507681 2.149084
1.735500 -1.487126 2.032305
1.611038 -1.488244 1.992833
1.716784 -1.482316 2.192323
1.768235 -1.503249 2.325361
1.684429 -1.511064 2.087208
1.650317 -1.507048 1.987829
1.778289 -1.499702 2.060433
1.629624 -1.484218 2.180124
1.795973 -1.448247 2.462971
1.643571 -1.494576 2.022532
1.783717 -1.475010 2.166434
1.671330 -1.523993 2.242051
1.812657 -1.497320 2.202692
1.845537 -1.446279 2.434846
1.918513 -1.512081 2.496897
1.753360 -1.492053 2.045437
1.718462 -1.482299 2.181307
1.736639 -1.454711 2.482450
1.801188 -1.509193 2.402103
1.669119 -1.458489 2.481864
1.717575 -1.512586 2.145984
1.661345 -1.492119 2.033010
1.536049 -1.488238 1.986441
1.634575 -1.480009 2.183021
1.700487 -1.522067 2.324617
1.609260 -1.513049 2.081804
1.700060 -1.500539 2.058681
1.563238 -1.494387 1.977365
1.727717 -1.464966 2.463367
1.712774 -1.483759 2.169311
1.737375 -1.504012 2.200783
1.559788 -1.486103 2.013347
1.829132 -1.510815 2.483002
1.590661 -1.525149 2.230136
1.769656 -1.456162 2.433375
1.675487 -1.491231 2.045123
1.638973 -1.481641 2.175318
1.659419 -1.460369 2.474231
1.718032 -1.511770 2.391814
1.642235 -1.516560 2.141571
1.480219 -1.522578 1.934999
1.480969 -1.510371 1.991835
1.553918 -1.475437 2.172703
1.620578 -1.523240 2.313897
1.629238 -1.506894 2.061481
1.646362 -1.466025 2.453588
1.633053 -1.481781 2.166005
1.745632 -1.512216 2.472085
1.667468 -1.514136 2.202195
1.496251 -1.495813 2.013974
1.691604 -1.460814 2.429070
1.561297 -1.479475 2.169844
1.648540 -1.524159 2.388786
1.523799 -1.499679 2.013870
1.525827 -1.478906 2.467615
1.573111 -1.524408 2.140774
1.443872 -1.533482 2.008249
1.403945 -1.514933 1.926877
1.408406 -1.508574 1.984742
1.483535 -1.478915 2.168463
1.542055 -1.524122 2.303147
1.441858 -1.521315 1.981784
1.572915 -1.471839 2.448016
1.669274 -1.518378 2.464189
1.422592 -1.507845 2.166572
1.591056 -1.514097 2.196779
1.439258 -1.513480 2.018064
1.621804 -1.471428 2.429611
1.532347 -1.495978 2.046562
1.477963 -1.467579 2.157836
1.514886 -1.475871 2.460756
1.568902 -1.523863 2.376217
1.470366 -1.519418 2.021561
1.493080 -1.516704 2.130045
1.459503 -1.511336 2.034528
1.432826 -1.506055 2.177884
1.405844 -1.533082 2.073482
1.507210 -1.484384 2.447637
1.596257 -1.525886 2.458383
1.351068 -1.507443 2.158021
1.547027 -1.474732 2.424901
1.473514 -1.509015 2.052644
1.372389 -1.516340 2.014936
1.379567 -1.544868 2.210878
1.439294 -1.506357 2.176425
1.497432 -1.529079 2.369386
1.397237 -1.515123 2.016521
1.433737 -1.531119 2.132283
1.390440 -1.511220 2.031952
1.366971 -1.510279 2.173282
1.429593 -1.523045 2.064996
1.524784 -1.531127 2.451560
1.436885 -1.505313 2.172427
1.409884 -1.515048 2.055892
1.373624 -1.510905 2.174250
1.419958 -1.523357 2.355378
1.449685 -1.528731 2.439434
1.394089 -1.535611 2.195357
1.371838 -1.508981 2.173228
2.292006 -1.523201 1.557149
2.269060 -1.509255 1.584329
2.252450 -1.524761 1.505339
2.197865 -1.531713 1.559724
2.176995 -1.518554 1.587152
2.151577 -1.526616 1.508936
2.297893 -1.515120 1.573307
2.236082 -1.534220 1.751929
2.255957 -1.514292 1.496490
2.264894 -1.503650 1.551880
2.188909 -1.495692 1.781725
2.099818 -1.534655 1.560521
2.069604 -1.511271 1.585704
2.050340 -1.522757 1.509623
2.205760 -1.525169 1.578477
2.135954 -1.537863 1.747718
2.186403 -1.522538 1.559865
2.160495 -1.520207 1.502430
2.093668 -1.499984 1.778744
2.271267 -1.512389 1.474651
2.282698 -1.513969 1.510898
2.140927 -1.473941 2.081511
2.237932 -1.530707 1.791784
2.180169 -1.500432 1.739062
1.998071 -1.527731 1.559165
1.977948 -1.513630 1.587337
1.957424 -1.522082 1.511317
2.108452 -1.526904 1.580968
2.250822 -1.486330 1.676888
2.038137 -1.538014 1.743412
2.076939 -1.513585 1.561029
2.063266 -1.520016 1.506392
2.004745 -1.505034 1.777037
2.217377 -1.519704 1.582888
2.173734 -1.516627 1.483203
2.170255 -1.506627 1.515737
2.037752 -1.470501 2.068701
2.139212 -1.534158 1.788548
2.084940 -1.503541 1.739898
2.100024 -1.540041 2.064842
1.909983 -1.529964 1.559693
1.887262 -1.511386 1.587463
2.280182 -1.512668 1.451520
1.878233 -1.529235 1.514453
2.264148 -1.506010 1.462085
2.018127 -1.530406 1.584010
2.118148 -1.479571 2.032978
2.164860 -1.499789 1.684205
1.951309 -1.544494 1.740077
1.978538 -1.509311 1.563676
1.966942 -1.516241 1.510240
1.909307 -1.500352 1.772192
2.134239 -1.533363 1.590257
2.079845 -1.519397 1.490215
2.080445 -1.512302 1.523679
2.044042 -1.436944 2.461048
1.959804 -1.482737 2.065093
2.047410 -1.540707 1.786307
2.002105 -1.513057 1.741722
2.007704 -1.545295 2.054841
2.189652 -1.475547 1.976237
1.830143 -1.536713 1.561668
2.233714 -1.495380 1.618969
1.820318 -1.527593 1.592456
2.203651 -1.533238 1.466367
1.809224 -1.544359 1.520161
2.230097 -1.520906 1.589547
2.170032 -1.511877 1.473253
1.923891 -1.528646 1.584318
2.020464 -1.478267 2.023982
1.862111 -1.542217 1.735991
2.068302 -1.500608 1.687449
2.147466 -1.534265 1.815938
1.888355 -1.524842 1.515953
1.888454 -1.508526 1.566379
1.822785 -1.500895 1.769021
2.081660 -1.530710 2.111427
2.033687 -1.529658 1.593097
1.988866 -1.520705 1.497798
1.953326 -1.440055 2.444021
1.878675 -1.489093 2.058535
1.984650 -1.511617 1.529591
1.954575 -1.540226 1.782822
1.897853 -1.500954 1.737649
1.916217 -1.548612 2.044217
2.078841 -1.468205 1.967428
2.146432 -1.506548 1.628702
2.025740 -1.535172 2.488600
1.721943 -1.511546 1.588125
2.084624 -1.516017 1.473264
1.718336 -1.533153 1.518419
2.150312 -1.537204 1.600925
2.074079 -1.512660 1.483833
1.841447 -1.530640 1.586840
1.936449 -1.484887 2.020678
1.976053 -1.500669 1.689376
1.773008 -1.538928 1.730541
2.008850 -1.438624 2.408199
1.817510 -1.519587 1.572862
1.820752 -1.539764 1.522633
2.051659 -1.535985 1.814233
1.756664 -1.515737 1.771474
1.996835 -1.540505 2.104973
1.873598 -1.448272 2.431765
1.944866 -1.531338 1.597649
2.153765 -1.481883 1.911298
1.901458 -1.521874 1.504276
1.790895 -1.488685 2.048768
1.899983 -1.514278 1.536542
1.862571 -1.537802 1.778711
1.811403 -1.499592 1.735947
1.829038 -1.550565 2.034176
2.002030 -1.484376 1.970368
2.042460 -1.500356 1.631784
2.077201 -1.438274 2.362171
1.923491 -1.532101 2.463344
2.147340 -1.533159 1.845162
1.667406 -1.533870 1.595072
1.994315 -1.517452 1.482983
1.652986 -1.546517 1.523553
2.040932 -1.526388 1.603576
1.980363 -1.511887 1.492851
2.077787 -1.531521 2.149747
1.848583 -1.485228 2.013241
1.762438 -1.535160 1.589141
1.884637 -1.498785 1.690677
1.922224 -1.443781 2.394974
1.724449 -1.523332 1.522354
1.725211 -1.508005 1.572049
1.962100 -1.540093 1.813293
1.655168 -1.493668 1.759935
1.906156 -1.541900 2.093702
1.794631 -1.455880 2.419323
1.863691 -1.535796 1.602026
1.710154 -1.488417 2.040052
1.837203 -1.539742 1.514010
2.058549 -1.485648 1.910256
1.833054 -1.529308 1.545358
2.011422 -1.528982 2.539413
1.777610 -1.535818 1.774702
1.761397 -1.529200 1.746316
1.740082 -1.546726 2.021199
1.903852 -1.478845 1.963155
1.606680 -1.548657 1.564816
1.950893 -1.499940 1.637759
1.986280 -1.443922 2.351232
2.049529 -1.532793 1.842778
1.839582 -1.541312 2.447277
1.592856 -1.534957 1.595186
1.575172 -1.542133 1.523990
1.912259 -1.523697 1.493203
1.952780 -1.528498 1.609313
1.991700 -1.538294 2.143356
1.896370 -1.514678 1.501942
1.764955 -1.485530 2.006827
1.686393 -1.536892 1.591561
1.806283 -1.503394 1.695094
1.845120 -1.454968 2.387899
1.618259 -1.542854 1.724016
1.664605 -1.524690 1.579292
1.664513 -1.540738 1.529831
1.601451 -1.514323 1.765290
1.875510 -1.541723 1.811526
1.821051 -1.544674 2.083913
1.719964 -1.462130 2.407458
1.642933 -1.498742 2.037900
1.788693 -1.543971 1.607605
1.735414 -1.519421 1.515634
1.964169 -1.487161 1.909539
1.915325 -1.529356 2.516291
1.735942 -1.514241 1.547633
1.720269 -1.558572 1.779722
1.657226 -1.503422 1.736716
2.036462 -1.443846 2.296016
1.661307 -1.550248 2.012694
1.826826 -1.486663 1.962315
1.897594 -1.447719 2.339681
1.868247 -1.505041 1.644465
1.964790 -1.538606 1.844466
1.747280 -1.536942 2.423644
2.062930 -1.527259 2.187594
1.844605 -1.538456 1.505097
1.864790 -1.527955 1.614192
1.901694 -1.540122 2.133274
1.691511 -1.493186 2.004889
1.837479 -1.537298 1.516376
1.623199 -1.549732 1.596515
1.764896 -1.459569 2.375526
1.552541 -1.551092 1.724331
1.713983 -1.492130 1.693332
1.601481 -1.535893 1.584757
1.532461 -1.517675 1.764015
1.787809 -1.537959 1.807998
1.593978 -1.545188 1.534179
1.735439 -1.544094 2.073037
1.997832 -1.526744 2.580041
1.645323 -1.468082 2.396569
1.562507 -1.493176 2.027460
1.700483 -1.535342 1.607742
1.681499 -1.542907 1.526131
1.834900 -1.538554 2.503348
1.677415 -1.531127 1.557031
1.875500 -1.487695 1.908471
1.626345 -1.540053 1.770355
1.598184 -1.518135 1.741217
1.940149 -1.444921 2.284672
1.743885 -1.486801 1.959010
1.819175 -1.457234 2.333130
1.804088 -1.521272 1.654738
1.877478 -1.540586 1.843885
1.976192 -1.533364 2.181000
1.673057 -1.549559 2.412882
1.746827 -1.522119 1.509058
1.795220 -1.539870 1.623083
1.603056 -1.479162 1.991702
1.819279 -1.545145 2.126325
1.692928 -1.467463 2.368411
1.745788 -1.525994 1.521958
1.552817 -1.552142 1.598102
1.656740 -1.512357 1.701747
1.464904 -1.520822 1.763742
1.716385 -1.546894 1.809628
1.658813 -1.546801 2.065304
1.913253 -1.534683 2.565657
1.573584 -1.472898 2.385303
1.499611 -1.502461 2.024967
1.633290 -1.543343 1.613244
1.748690 -1.538647 2.483252
1.609635 -1.545357 1.531939
1.602813 -1.532068 1.562366
1.790344 -1.489119 1.907704
1.527863 -1.519484 1.741397
1.560498 -1.550965 1.771566
1.689239 -1.511435 1.967813
1.865601 -1.459819 2.285124
1.710454 -1.507718 1.655381
1.742914 -1.465909 2.327348
1.789109 -1.535836 1.841086
1.890943 -1.538227 2.173994
1.596379 -1.555362 2.399892
1.684231 -1.535193 1.520390
1.698314 -1.521461 1.622143
1.737747 -1.547202 2.117340
1.545962 -1.497585 1.996385
1.617030 -1.470400 2.357591
1.676441 -1.533324 1.531444
1.597032 -1.525457 1.708875
1.624449 -1.530524 1.800936
1.984110 -1.527157 2.625846
1.827617 -1.536519 2.547155
1.583670 -1.548269 2.057153
1.477466 -1.448256 2.352913
1.431450 -1.505062 2.019261
1.568245 -1.551119 1.617605
1.663232 -1.538126 2.462957
1.718910 -1.497426 1.911220
1.601382 -1.498564 1.958149
1.440759 -1.556628 1.989974
1.786524 -1.468051 2.280259
1.669614 -1.471803 2.321683
1.647867 -1.521692 1.663870
1.808658 -1.540307 2.167109
1.713606 -1.541562 1.842733
1.514576 -1.552450 2.380915
1.617709 -1.543010 1.528976
1.655832 -1.543247 2.106374
1.480462 -1.502114 1.994437
1.549974 -1.478970 2.351735
1.605911 -1.536586 1.539607
1.519365 -1.518437 1.708446
1.570036 -1.551536 1.807506
1.900935 -1.535209 2.611480
1.740733 -1.535933 2.526827
1.508681 -1.547090 2.048139
1.366112 -1.507539 2.014554
1.591970 -1.547670 2.453263
1.636194 -1.493316 1.907565
1.529660 -1.500429 1.956415
1.708339 -1.472705 2.275269
1.593727 -1.474167 2.312781
1.733281 -1.545483 2.161209
1.579415 -1.526650 1.669429
1.593394 -1.556950 2.106385
1.416319 -1.508070 1.992968
1.572699 -1.544744 1.637596
1.457135 -1.458017 2.324743
1.496455 -1.548353 1.805170
1.817378 -1.537258 2.595135
1.665376 -1.542879 2.515237
1.377099 -1.492408 2.360440
1.453027 -1.566245 2.050982
1.518920 -1.551426 2.440622
1.562456 -1.492473 1.907039
1.463437 -1.504997 1.956598
1.626963 -1.471796 2.266368
1.494114 -1.447512 2.283926
1.656656 -1.547616 2.155382
1.506435 -1.523694 1.673468
1.507775 -1.543761 2.091365
1.416857 -1.491229 2.339494
1.589565 -1.545765 2.500207
1.444683 -1.551741 2.424758
1.499442 -1.502336 1.912106
1.400641 -1.511785 1.957503
1.582922 -1.548602 2.149160
1.444480 -1.471749 2.292623
1.549084 -1.471777 2.257750
1.495818 -1.541623 1.840939
1.444906 -1.552791 2.089858
1.354864 -1.497839 2.334033
1.434571 -1.507738 1.914667
1.499305 -1.537569 2.134830
1.472155 -1.466850 2.248554
1.396201 -1.497107 2.302750
1.325658 -1.492511 2.291536
1.426492 -1.495763 2.261951
1.384426 -1.563100 2.138435
1.268313 -1.503906 2.292914
1.362312 -1.503062 2.260959
1.291781 -1.497580 2.252614
