# .PCD v0.7 - Point Cloud Data file format
VERSION 0.7
FIELDS x y z
SIZE 4 4 4
TYPE F F F
COUNT 1 1 1
WIDTH 270
HEIGHT 1
VIEWPOINT 0 0 0 1
POINTS 270
DATA ascii
-23.385399 47.827293 -8.159709
-23.267488 47.824352 -8.325160
-23.244886 47.825180 -8.212374
-23.158047 47.828629 -8.533065
-23.092607 47.823002 -8.640462
-23.177088 47.834076 -8.497115
-23.180222 47.830269 -8.404876
-23.042150 47.828701 -8.767220
-23.112610 47.826344 -8.492756
-23.290794 47.836651 -8.058089
-23.044090 47.833412 -8.735378
-23.059862 47.833923 -8.593678
-23.147509 47.839359 -8.276414
-23.181084 47.832169 -8.031309
-23.281467 47.847343 -7.949467
-23.269920 47.847248 -7.838019
-23.068245 47.846977 -8.081124
-23.147062 47.852474 -7.826043
-22.972073 47.844521 -8.237627
-22.903114 47.856728 -8.439296
-22.931942 47.843704 -8.126720
-22.802603 47.843540 -8.522153
-22.903299 47.857803 -8.398518
-22.902290 47.852165 -8.312314
-22.979998 47.857758 -8.094586
-22.827387 47.847103 -8.389547
-22.749485 47.847855 -8.633420
-22.983309 47.856396 -7.985657
-23.045029 47.855999 -7.739900
-22.746569 47.850906 -8.603205
-22.777992 47.855690 -8.479999
-22.941525 47.858948 -7.978967
-22.999285 47.866707 -7.890135
-22.842220 47.856472 -8.182664
-22.996420 47.865673 -7.787661
-22.849184 47.866001 -8.068627
-22.814819 47.873051 -8.171070
-22.721416 47.858368 -8.250895
-22.813280 47.866222 -8.018725
-22.657040 47.859890 -8.350274
-22.743986 47.867725 -8.171029
-22.879913 47.874374 -7.776622
-22.696053 47.865364 -8.253512
-22.715250 47.869911 -8.213420
-22.615547 47.864697 -8.333211
-22.711779 47.869137 -8.065734
-22.621792 47.865181 -8.296408
-22.668652 47.872070 -8.235600
-22.561064 47.862560 -8.389575
-22.734852 47.881317 -8.028970
-22.594315 47.868183 -8.304636
-22.750723 47.879677 -7.930225
-22.819052 47.881237 -7.704331
-22.527794 47.872429 -8.533209
-22.726406 47.880611 -7.931050
-22.515779 47.873253 -8.501205
-22.757555 47.885590 -7.839173
-22.517162 47.868530 -8.373863
-22.771727 47.884937 -7.746188
-22.614016 47.878773 -8.112885
-22.645977 47.887917 -8.012899
-22.752693 47.889423 -7.636622
-22.572399 47.885574 -8.096840
-22.523848 47.882118 -8.184362
-22.601860 47.887730 -7.965682
-22.721575 47.890316 -7.585071
-22.531887 47.883514 -8.108330
-22.505711 47.887440 -8.190268
-22.475145 47.889435 -8.282353
-22.502739 47.885876 -8.145358
-22.664423 47.896866 -7.736980
-22.434845 47.889091 -8.266690
-22.461363 47.889606 -8.168121
-22.507771 47.889145 -8.008710
-22.451284 47.892632 -8.235161
-22.375982 47.885475 -8.316454
-22.395275 47.887211 -8.231352
-22.580072 47.891541 -7.665725
-22.501730 47.895805 -7.966021
-22.534590 47.897533 -7.877804
-22.514238 47.894966 -7.885084
-22.303156 47.884220 -8.432048
-22.304758 47.886761 -8.407424
-22.549442 47.902596 -7.794478
-22.579212 47.904491 -7.709490
-22.341925 47.894585 -8.303816
-22.412668 47.897709 -8.050406
-22.442787 47.901775 -7.958205
-22.561016 47.908627 -7.610658
-22.399307 47.900417 -7.915372
-22.450415 47.910221 -7.696729
-22.246733 47.901127 -8.196784
-22.291580 47.908821 -8.112315
-22.189459 47.898697 -8.272179
-22.197950 47.900738 -8.245504
-22.227934 47.906349 -8.171071
-22.417330 47.915447 -7.639353
-22.373857 47.919807 -7.756760
-22.151728 47.905968 -8.226981
-22.249565 47.919235 -8.000877
-22.396675 47.927544 -7.587961
-22.159853 47.915401 -7.556247
-22.154472 47.916817 -7.520028
-22.044571 47.924473 -7.936191
-22.006832 47.916000 -7.953754
-22.054008 47.919548 -7.830201
-21.975788 47.915806 -8.016365
-21.982613 47.917660 -8.001739
-21.991518 47.919525 -7.980428
-22.080784 47.925873 -7.628075
-21.917322 47.917885 -8.076753
-21.924250 47.921368 -8.075777
-21.945101 47.920773 -7.998481
-21.922741 47.918282 -8.045977
-21.983177 47.924362 -7.863725
-22.006292 47.923962 -7.772473
-21.863920 47.915466 -8.139741
-21.871605 47.918503 -8.115963
-21.888916 47.918972 -8.046996
-21.809156 47.918018 -8.208611
-23.431732 47.835224 -8.505984
-23.353031 47.838573 -8.596320
-23.462923 47.846153 -8.156445
-23.327862 47.854713 -8.209183
-23.232525 47.851963 -8.509449
-23.158573 47.843422 -8.615681
-23.217894 47.854202 -8.503029
-23.151070 47.846382 -8.603044
-23.092531 47.844826 -8.736895
-23.114273 47.852711 -8.725714
-23.288931 47.863403 -8.035949
-23.208263 47.860886 -8.329106
-23.117468 47.854698 -8.401132
-23.162676 47.854103 -8.124510
-23.188639 47.865711 -8.025933
-23.055222 47.860104 -8.485953
-23.156906 47.863934 -8.083245
-22.953804 47.868748 -8.410976
-23.046837 47.876835 -8.134080
-22.947557 47.871284 -8.408100
-22.876835 47.863144 -8.496515
-22.839531 47.867233 -8.627358
-22.842587 47.870712 -8.607436
-23.037769 47.884666 -7.983293
-22.935699 47.875626 -8.248097
-22.859161 47.871635 -8.315000
-22.924721 47.877754 -8.063292
-22.900862 47.879887 -8.165771
-22.943542 47.884670 -7.969841
-22.797867 47.877335 -8.389674
-22.920605 47.886311 -8.026678
-22.830133 47.880013 -8.217752
-22.974405 47.889359 -7.771436
-22.774111 47.875706 -8.310584
-22.705757 47.879013 -8.323667
-22.813202 47.895256 -8.070972
-22.711056 47.885597 -8.325315
-22.672079 47.881897 -8.424273
-22.659012 47.882229 -8.412039
-22.622808 47.888603 -8.532799
-22.815033 47.901779 -7.935939
-22.727205 47.895306 -8.185186
-22.621536 47.889389 -8.512603
-22.652313 47.890408 -8.246309
-22.713737 47.898300 -8.009040
-22.678295 47.898613 -8.100747
-22.746552 47.905914 -7.924982
-22.703339 47.902206 -7.974681
-22.580605 47.893227 -8.309505
-22.637438 47.901474 -8.158521
-22.758959 47.909557 -7.735678
-22.580402 47.895504 -8.243731
-22.780764 47.920479 -7.665070
-22.748890 47.913300 -7.647156
-22.512960 47.896088 -8.334260
-22.524834 47.898830 -8.259566
-22.528820 47.904484 -8.261855
-22.447960 47.889519 -8.336748
-22.735649 47.920643 -7.605726
-22.607443 47.913464 -8.016153
-22.447317 47.892822 -8.329288
-22.606647 47.913788 -7.891751
-22.525867 47.907413 -8.124316
-22.402504 47.896286 -8.435975
-22.413235 47.902008 -8.422535
-22.459600 47.905052 -8.181774
-22.505875 47.908596 -7.955598
-22.526697 47.910908 -7.875218
-22.484123 47.915043 -8.045185
-22.508358 47.916370 -7.928246
-22.400053 47.910088 -8.243396
-22.440353 47.911312 -8.096806
-22.394955 47.909641 -8.179267
-22.552870 47.922050 -7.701569
-22.584538 47.935074 -7.637050
-22.554426 47.925751 -7.619639
-22.351875 47.912975 -8.198820
-22.335262 47.913834 -8.265880
-22.344036 47.914566 -8.197546
-22.549284 47.933380 -7.582710
-22.306349 47.913284 -8.282307
-22.414921 47.924644 -7.964159
-22.300785 47.914982 -8.273363
-22.526943 47.929371 -7.540539
-22.440041 47.929615 -7.855869
-22.359085 47.922737 -8.074812
-22.521336 47.938000 -7.533741
-22.303066 47.922741 -8.130129
-22.350967 47.925747 -7.915910
-22.380983 47.930248 -7.840376
-22.342760 47.930264 -7.888471
-22.226873 47.922359 -8.179434
-22.401028 47.944725 -7.610678
-22.392422 47.948948 -7.563291
-22.316170 47.953148 -7.829661
-22.211418 47.936535 -8.030983
-22.372572 47.953846 -7.518823
-22.207672 47.944866 -7.501973
-22.169661 47.941605 -7.498969
-21.975803 47.930267 -8.021277
-22.065941 47.940624 -7.768583
-22.027573 47.935081 -7.833272
-21.979181 47.934315 -7.954502
-22.022717 47.939148 -7.812043
-21.979589 47.935135 -7.900373
-21.915321 47.931034 -8.063795
-21.925459 47.930862 -8.018814
-21.903282 47.932640 -8.041445
-21.893106 47.932381 -8.040499
-21.858961 47.929253 -8.084558
-21.845499 47.927616 -8.101401
-23.364277 47.823696 -8.375236
-23.357689 47.821964 -8.224730
-23.280369 47.834385 -7.894076
-23.254194 47.842953 -7.915747
-23.102949 47.845566 -8.296939
-23.085011 47.839497 -8.155691
-22.975321 47.854603 -8.102736
-23.038866 47.854832 -7.848425
-23.008482 47.860657 -7.873063
-22.848673 47.853027 -8.211299
-22.851437 47.857563 -8.221433
-22.878086 47.863377 -8.103211
-22.824501 47.869965 -7.808395
-22.753397 47.868793 -8.044971
-22.798349 47.878353 -7.837348
-22.668171 47.874847 -8.156958
-22.664751 47.877895 -8.166378
-22.680178 47.879459 -8.053295
-22.654417 47.890392 -7.775719
-22.594505 47.891575 -8.002993
-22.618061 47.893559 -7.805941
-22.482939 47.886059 -8.101285
-22.484291 47.891670 -8.113095
-22.503550 47.892715 -8.008375
-22.453392 47.907429 -7.777923
-22.230017 47.909256 -7.452614
-22.159739 47.909225 -7.683186
-22.104961 47.911926 -7.874494
-22.123520 47.910233 -7.719685
-22.026335 47.910011 -7.964452
-22.020380 47.912228 -7.975234
-22.036102 47.913052 -7.890299
-22.125645 47.926811 -7.444808
-22.037071 47.917622 -7.659808
-21.978485 47.917862 -7.841723
-22.006586 47.921108 -7.698969
-21.914097 47.919853 -7.930518
-21.913097 47.923641 -7.942702
-21.934408 47.926853 -7.864548
