# .PCD v0.7 - Point Cloud Data file format
VERSION 0.7
FIELDS x y z
SIZE 4 4 4
TYPE F F F
COUNT 1 1 1
WIDTH 86
HEIGHT 1
VIEWPOINT 0 0 0 1
POINTS 86
DATA ascii
-31.586174 43.640339 -10.164181
-31.712212 43.449867 -10.230727
-31.671333 43.676018 -10.183952
-31.730490 43.731972 -10.205888
-31.739403 43.823360 -10.235851
-31.747789 43.913784 -10.264491
-31.647226 43.159016 -10.145280
-31.638573 43.279125 -10.193986
-31.772827 43.231358 -10.187507
-31.795649 43.311821 -10.222227
-31.751984 43.708809 -10.112639
-31.696545 43.853588 -10.175500
-31.693705 43.944622 -10.215853
-31.754126 43.980133 -10.233389
-31.872446 43.952171 -10.133862
-31.691059 43.700974 -10.184596
-31.643442 43.820477 -10.188313
-31.738911 43.722721 -10.200811
-31.639912 43.905510 -10.237007
-31.740486 43.802155 -10.248272
-31.722467 43.885006 -10.223874
-31.749327 43.870010 -10.286779
-31.775980 43.900391 -10.231558
-31.804096 43.945431 -10.253988
-31.605394 43.452850 -10.225029
-31.624386 43.551533 -10.191845
-31.738253 43.357872 -10.190700
-31.701269 43.536461 -10.191622
-31.770138 43.420155 -10.231864
-31.675320 43.670197 -10.199106
-31.784554 43.566406 -10.094242
-31.761444 43.548042 -10.205256
-31.643869 43.824478 -10.185203
-31.665489 43.769966 -10.258662
-31.696726 43.770954 -10.212627
-31.772873 43.627621 -10.252567
-31.629017 43.918892 -10.241875
-31.691357 43.848801 -10.194037
-31.778925 43.706299 -10.229659
-31.699774 43.849533 -10.258978
-31.729750 43.865875 -10.210221
-31.703337 43.916630 -10.229910
-31.801010 43.805260 -10.234895
-31.778606 43.880024 -10.217493
-31.718216 43.978226 -10.261565
-31.799616 43.927952 -10.245118
-31.808062 43.951336 -10.239518
-31.664532 43.108257 -10.118986
-31.665665 43.379028 -10.120995
-31.682438 43.212105 -10.123564
-31.698225 43.308949 -10.139126
-31.726227 43.111980 -10.144794
-31.713911 43.392921 -10.142179
-31.660038 43.824425 -10.159513
-31.738865 43.221287 -10.147544
-31.697521 43.583572 -10.163667
-31.698290 43.604580 -10.163639
-31.677872 43.879360 -10.145749
-31.702663 43.615318 -10.159683
-31.706928 43.616978 -10.160031
-31.751667 43.316414 -10.158974
-31.694700 43.929207 -10.143315
-31.758326 43.217667 -10.224732
-31.760590 43.414909 -10.166958
-31.716387 43.799820 -10.159677
-31.762232 43.336658 -10.230766
-31.756767 43.571762 -10.164628
-31.754690 43.592964 -10.166812
-31.720512 43.885723 -10.163063
-31.754875 43.606956 -10.169849
-31.758514 43.612682 -10.169934
-31.772202 43.424065 -10.236086
-31.729540 43.949135 -10.168388
-31.779556 43.514751 -10.237326
-31.765879 43.796642 -10.173086
-31.738472 44.015633 -10.168371
-31.800024 43.605995 -10.193382
-31.798336 43.620186 -10.192627
-31.799356 43.617100 -10.191956
-31.769619 43.877647 -10.170086
-31.804827 43.625710 -10.190505
-31.774948 43.946373 -10.175162
-31.778835 44.017288 -10.175510
-31.778584 43.884857 -10.249962
-31.776726 43.967300 -10.248236
-31.796471 44.075821 -10.192221
