# .PCD v0.7 - Point Cloud Data file format
VERSION 0.7
FIELDS x y z
SIZE 4 4 4
TYPE F F F
COUNT 1 1 1
WIDTH 84
HEIGHT 1
VIEWPOINT 0 0 0 1
POINTS 84
DATA ascii
-8.085507 36.500397 -0.800370
-8.137288 36.382996 -0.770386
-8.197048 36.428864 -0.816548
-8.278294 36.615093 -0.772788
-8.189939 36.247490 -0.801358
-8.148295 36.328690 -0.764187
-8.157521 35.938507 -0.818462
-8.085461 35.981583 -0.779810
-8.114234 36.017536 -0.753572
-8.162246 36.143421 -0.694656
-8.167652 36.099209 -0.771646
-8.080396 36.296093 -0.758251
-8.182325 35.909863 -0.815770
-8.194254 35.996964 -0.752096
-8.135476 36.445164 -0.803684
-8.081509 36.459103 -0.788514
-8.175330 35.921585 -0.805066
-8.229569 36.144218 -0.814795
-8.238074 36.209686 -0.812648
-8.217475 36.163464 -0.803602
-8.191545 36.169010 -0.800229
-8.101964 36.095367 -0.800767
-8.087837 36.130898 -0.802583
-8.082555 36.111305 -0.791409
-8.199738 36.367996 -0.840876
-8.085040 36.137199 -0.777993
-8.083097 36.153473 -0.752013
-8.206925 36.508904 -0.844324
-8.162161 36.408848 -0.793109
-8.215688 36.649639 -0.862555
-8.168661 36.552845 -0.791665
-8.217594 36.807140 -0.869281
-8.177538 36.699608 -0.801435
-8.158309 36.837082 -0.808574
-8.233451 36.097397 -0.771431
-8.174188 36.167023 -0.822028
-8.085525 35.991085 -0.786068
-8.170771 36.097900 -0.810821
-8.176044 36.164528 -0.781262
-8.216733 36.312195 -0.735793
-8.152484 36.127426 -0.771389
-8.096286 36.074673 -0.720977
-8.234076 36.279770 -0.772986
-8.171159 36.121109 -0.768945
-8.259380 36.376663 -0.797878
-8.101329 36.138088 -0.733157
-8.111426 36.202854 -0.762806
-8.125750 36.286488 -0.786236
-8.278144 36.442032 -0.814198
-8.252266 36.390430 -0.792352
-8.222431 36.385380 -0.811116
-8.230096 36.476898 -0.800060
-8.243434 36.576965 -0.804618
-8.245633 36.539738 -0.790332
-8.208342 36.431599 -0.781032
-8.143257 36.303856 -0.790886
-8.192883 36.434299 -0.755085
-8.185017 36.501762 -0.748985
-8.185318 36.580441 -0.757721
-8.121710 36.439281 -0.790800
-8.111523 36.369926 -0.767854
-8.231263 36.329395 -0.788418
-8.256351 36.682785 -0.822425
-8.115078 36.223175 -0.794900
-8.192044 36.678230 -0.773128
-8.259179 36.413799 -0.799035
-8.245517 36.510033 -0.803039
-8.156466 36.318241 -0.802057
-8.145591 36.403770 -0.807881
-8.275117 36.544865 -0.837436
-8.256012 36.312180 -0.796398
-8.093022 36.401485 -0.768252
-8.217044 36.535427 -0.796234
-8.153326 36.209145 -0.805233
-8.113971 36.417450 -0.801830
-8.273851 36.636440 -0.822996
-8.240640 36.224613 -0.794224
-8.183976 36.555317 -0.807014
-8.144805 36.129719 -0.801763
-8.106988 36.497017 -0.783331
-8.229892 36.148056 -0.783354
-8.248281 36.702229 -0.811927
-8.138620 36.054398 -0.792075
-8.138581 36.571411 -0.812747
