# .PCD v0.7 - Point Cloud Data file format
VERSION 0.7
FIELDS x y z
SIZE 4 4 4
TYPE F F F
COUNT 1 1 1
WIDTH 182
HEIGHT 1
VIEWPOINT 0 0 0 1
POINTS 182
DATA ascii
-43.792526 46.090889 -15.613677
-43.558815 46.044308 -15.634937
-43.752308 46.157177 -15.609325
-43.715057 46.041126 -15.676969
-43.978882 46.158737 -15.578205
-43.739925 45.913437 -15.706765
-44.074993 46.072445 -15.746486
-43.725452 46.106422 -15.679648
-43.564548 45.969612 -15.651703
-43.835548 46.116871 -15.688321
-43.861553 46.103760 -15.470087
-43.852062 45.969746 -15.757919
-44.334785 46.102211 -15.860934
-44.159054 45.959808 -15.872734
-43.787445 45.970638 -15.721236
-44.428524 45.917339 -15.938894
-44.212292 45.903648 -15.848216
-44.163235 45.949398 -15.840016
-43.540703 45.900959 -15.574640
-43.491146 45.925301 -15.578259
-43.503960 45.934940 -15.571228
-43.699333 45.903324 -15.662992
-43.723701 45.951149 -15.681962
-43.700676 45.956547 -15.655471
-43.762043 46.034538 -15.643267
-43.967419 46.135303 -15.276614
-43.999424 46.163475 -15.241998
-44.444183 45.876556 -16.055964
-44.296963 45.883347 -15.994979
-44.547390 45.860134 -16.101305
-44.363926 45.893375 -16.017775
-44.529110 45.894173 -16.094868
-44.290833 45.870705 -15.995420
-44.252144 45.945229 -15.979666
-44.287567 45.907471 -15.987728
-44.163921 45.906597 -15.939986
-44.262974 45.933914 -15.984006
-44.231148 45.879940 -15.973474
-44.142830 45.933857 -15.933402
-44.240307 45.921726 -15.963444
-43.945518 45.891285 -15.864121
-44.209362 45.944553 -15.963532
-44.052357 45.894085 -15.901458
-44.286331 46.087753 -15.864462
-43.939472 45.919418 -15.853018
-44.043301 45.922394 -15.892355
-43.846992 45.880566 -15.827916
-43.916775 45.937725 -15.847875
-44.029049 45.947109 -15.884295
-43.875000 45.879421 -15.841835
-43.947945 45.870529 -15.871346
-43.908318 45.964058 -15.836839
-43.814465 45.891563 -15.826188
-43.995945 45.962189 -15.882340
-43.855049 45.897430 -15.837851
-43.931156 45.890350 -15.865449
-43.879040 45.977863 -15.833235
-43.819260 45.925022 -15.808841
-43.994640 45.995018 -15.868922
-43.857670 45.929977 -15.822835
-43.936596 45.923595 -15.851624
-43.806023 45.947754 -15.797940
-43.842289 45.950699 -15.816446
-43.912926 45.939907 -15.848229
-43.815166 45.900089 -15.811216
-43.781250 45.963272 -15.791904
-43.735352 45.885284 -15.785136
-43.823116 45.968719 -15.810613
-43.900223 45.961437 -15.840800
-43.813644 45.928822 -15.799856
-43.758266 45.979691 -15.784453
-43.703510 45.892101 -15.785850
-43.801155 45.984936 -15.805764
-43.876854 45.976761 -15.836438
-43.790916 45.945026 -15.796858
-43.768360 45.893597 -15.801156
-43.739265 45.996830 -15.775431
-43.798668 46.014877 -15.791826
-43.710384 45.925468 -15.766114
-43.906422 46.027428 -15.811150
-43.779533 45.966461 -15.788898
-43.748959 45.911499 -15.798485
-43.768139 46.052010 -15.740106
-43.702835 45.948826 -15.752185
-43.764069 45.986187 -15.782461
-43.599274 45.896191 -15.744132
-43.757580 45.946548 -15.782743
-43.689842 45.968468 -15.742452
-43.612602 45.913116 -15.696652
-43.664619 45.903881 -15.731469
-43.735580 45.996799 -15.781345
-43.580486 45.908142 -15.738437
-43.609310 45.907986 -15.659427
-43.740341 45.965363 -15.777726
-43.608536 45.899075 -15.703507
-43.664261 45.977905 -15.739301
-43.566093 45.903732 -15.707386
-43.701435 45.909748 -15.565781
-43.576740 45.930225 -15.722849
-43.639462 45.906643 -15.603715
-43.615341 45.905975 -15.645635
-43.732430 45.991581 -15.767990
-43.576420 45.899708 -15.708421
-43.642342 45.990147 -15.733364
-43.659634 45.905827 -15.579612
-43.559731 45.943085 -15.715734
-43.672543 45.906216 -15.543817
-43.611092 45.897232 -15.669804
-43.705864 46.002995 -15.767688
-43.616577 45.997597 -15.730125
-43.601135 45.935013 -15.722206
-43.633564 45.911053 -15.581668
-43.677238 46.070477 -15.614993
-43.649837 45.915230 -15.544052
-43.773582 46.125244 -15.472446
-43.666950 45.896305 -15.527261
-43.630997 45.905983 -15.633692
-43.679008 45.907581 -15.496580
-43.581768 45.895393 -15.701882
-43.743359 46.141243 -15.512942
-43.744995 46.161896 -15.543023
-43.822678 46.132946 -15.399779
-43.778988 46.161217 -15.441227
-43.648327 45.907032 -15.525968
-43.787922 46.129719 -15.453478
-43.765854 46.141014 -15.516932
-43.569355 45.909855 -15.694544
-43.549137 45.945709 -15.720947
-43.658100 46.096237 -15.661225
-43.730415 46.162193 -15.495624
-43.710857 46.163925 -15.542733
-43.772053 46.110004 -15.499815
-43.807213 46.151871 -15.387899
-43.745331 46.164234 -15.440058
-43.781113 46.156258 -15.433344
-43.752743 46.162846 -15.502804
-43.557529 45.979092 -15.697495
-43.803394 46.127106 -15.386118
-43.687843 46.157696 -15.617582
-43.823948 46.134201 -15.341635
-43.679893 46.167767 -15.540533
-43.779312 46.148647 -15.472639
-43.699413 46.167126 -15.491242
-43.781563 46.162384 -15.382545
-43.714367 46.168064 -15.437859
-43.750816 46.163074 -15.430353
-43.786282 46.118095 -15.466702
-43.722874 46.168571 -15.501073
-43.718708 46.154232 -15.562140
-43.803501 46.159248 -15.361322
-43.820305 46.162537 -15.319584
-43.650620 46.171516 -15.536876
-43.755768 46.161957 -15.468183
-43.664291 46.168255 -15.490533
-43.749916 46.167191 -15.382232
-43.714851 46.162098 -15.433623
-43.788685 46.155014 -15.442895
-43.682873 46.164791 -15.508056
-43.704391 46.103966 -15.544978
-43.689751 46.159870 -15.560794
-43.771980 46.163952 -15.363236
-43.620384 46.173271 -15.534977
-43.720085 46.163963 -15.471584
-43.629505 46.167294 -15.491044
-43.687153 46.168728 -15.429559
-43.731483 46.159523 -15.503435
-43.758846 46.163609 -15.444446
-43.652920 46.169521 -15.506289
-43.657921 46.162708 -15.560399
-43.588287 46.173126 -15.534456
-43.688095 46.167679 -15.474380
-43.700783 46.163151 -15.505692
-43.621525 46.171261 -15.507158
-43.723389 46.166500 -15.450120
-43.627007 46.165451 -15.560390
-43.655594 46.171494 -15.475877
-43.669086 46.165882 -15.507524
-43.689819 46.171295 -15.454424
-43.594616 46.166298 -15.560837
-43.638210 46.167522 -15.509698
-43.654190 46.172207 -15.460018
-43.608727 46.170063 -15.511379
