# .PCD v0.7 - Point Cloud Data file format
VERSION 0.7
FIELDS x y z
SIZE 4 4 4
TYPE F F F
COUNT 1 1 1
WIDTH 912
HEIGHT 1
VIEWPOINT 0 0 0 1
POINTS 912
DATA ascii
1.192880 24.071693 1.299986
1.203225 23.829191 1.307890
1.214934 23.952879 1.260973
1.184713 23.979084 1.355500
1.236459 23.881773 1.206979
1.235928 24.007915 1.233648
1.271221 23.825401 1.155614
1.267242 23.964069 1.073522
1.293548 23.908241 1.054992
1.289750 23.888393 1.043366
1.192351 23.912920 1.345809
1.188987 24.118559 1.314861
1.219938 23.906483 1.233819
1.207948 24.023973 1.264616
1.200866 23.916918 1.325681
1.251059 23.897549 1.125932
1.296034 23.888790 1.018226
1.220057 23.830708 1.280356
1.241832 23.962545 1.219322
1.249183 24.041187 1.227882
1.313982 23.944977 1.063182
1.251690 23.873142 1.239668
1.307705 23.779778 1.084998
1.265666 23.964190 1.217617
1.268512 24.055294 1.168037
1.265652 23.798275 1.232063
1.265572 23.876348 1.185223
1.289995 23.991919 1.138140
1.275749 23.735146 1.206156
1.226405 23.935701 1.315900
1.288665 23.823645 1.159974
1.226991 23.767572 1.332707
1.326918 24.014050 1.026000
1.291895 24.122168 1.218634
1.281746 24.041796 1.125778
1.331185 23.833389 1.053508
1.288298 23.920574 1.232791
1.268827 24.007793 1.269958
1.287258 23.864368 1.147904
1.254443 24.077888 1.228413
1.295855 23.761473 1.251959
1.253875 24.093117 1.307402
1.271432 23.830311 1.281707
1.260424 23.906225 1.246137
1.298059 23.714792 1.171532
1.264640 23.923592 1.319342
1.267853 23.750811 1.263783
1.218384 23.966383 1.222015
1.223328 23.852339 1.243220
1.218743 23.730333 1.258870
1.291637 23.849558 1.036732
1.292806 24.104334 0.991811
1.291362 24.051466 1.020861
1.249204 24.097733 1.100209
1.298313 23.976971 1.014891
1.278197 24.071138 1.036501
1.290551 24.020750 1.034411
1.292526 23.918665 1.046650
1.256654 23.977991 1.123316
1.230371 24.030386 1.203412
1.198525 24.097582 1.283203
1.301664 23.857882 1.037157
1.286121 23.952593 1.054673
1.292618 23.897013 1.053390
1.294824 23.798803 1.072269
1.266771 23.870020 1.148540
1.238221 23.920364 1.223872
1.200686 23.976303 1.297734
1.283168 23.824509 1.068663
1.293841 23.780436 1.071406
1.261436 23.743202 1.165650
1.243249 23.811726 1.242573
1.167093 24.133406 1.292021
1.237608 23.979912 1.113465
1.169475 24.044828 1.310190
1.225283 23.878361 1.125575
1.240872 23.815701 1.149756
1.232962 24.077608 1.104806
1.233674 24.132498 1.100669
1.257906 23.990154 1.071886
1.243382 24.001232 1.122818
1.241504 24.050980 1.119587
1.267259 23.922066 1.094258
1.231718 23.899586 1.131733
1.237815 23.959469 1.133845
1.257693 23.833450 1.108211
1.244880 23.833775 1.151401
1.244963 24.069649 1.095230
1.238253 23.876520 1.150019
1.262961 23.764997 1.130065
1.195771 24.094036 1.232697
1.240931 23.748722 1.162949
1.250823 23.990776 1.118041
1.248713 23.808331 1.169431
1.199343 24.006983 1.254275
1.238264 23.892822 1.133243
1.202346 23.924873 1.274773
1.250836 23.827650 1.157063
1.199760 23.838066 1.292317
1.241334 23.741756 1.172290
1.209628 23.770523 1.315881
1.314905 24.177481 1.024688
1.300100 24.183554 1.049709
1.313560 24.167816 1.016605
1.308488 24.176014 1.052709
1.305037 24.175129 1.068992
1.299286 24.170685 1.086978
1.256708 24.187294 1.163439
1.316890 24.132364 1.040628
1.300800 24.138683 1.066188
1.325983 24.107637 0.995650
1.306371 24.120548 1.032075
1.306700 24.129526 1.067710
1.304431 24.129580 1.086385
1.207052 24.200991 1.285558
1.219968 24.195110 1.268927
1.297986 24.125851 1.106107
1.222902 24.182259 1.255798
1.238376 24.167406 1.219674
1.253510 24.141323 1.182283
1.205888 24.185373 1.297304
1.314483 24.084484 1.054810
1.295864 24.093140 1.080703
1.326574 24.063950 1.015067
1.309203 24.077656 1.050906
1.300212 24.082476 1.081076
1.206806 24.181894 1.323325
1.299146 24.084393 1.101770
1.205884 24.156845 1.301007
1.218861 24.147934 1.282191
1.294228 24.081247 1.123016
1.206707 24.174618 1.350508
1.222916 24.139048 1.273641
1.234945 24.121538 1.236085
1.255624 24.098238 1.203222
1.209772 24.142359 1.313155
1.310822 24.038698 1.068791
1.294345 24.049330 1.097030
1.319631 24.018438 1.032238
1.307317 24.033279 1.068476
1.301850 24.038649 1.097520
1.209384 24.138203 1.340089
1.302905 24.041620 1.120934
1.208153 24.115353 1.317896
1.225554 24.105259 1.299030
1.192459 24.125868 1.359184
1.293276 24.036991 1.140914
1.218924 24.094564 1.288112
1.235522 24.077877 1.255502
1.214220 24.098896 1.330579
1.248656 24.051825 1.220764
1.291287 24.004944 1.111838
1.312800 23.994516 1.084372
1.304504 23.989716 1.085348
1.317390 23.974419 1.050681
1.306906 23.996555 1.115777
1.209139 24.094175 1.355874
1.333396 23.951466 1.015811
1.290770 23.993906 1.132341
1.207926 24.072248 1.333309
1.225366 24.058203 1.312632
1.195882 24.084400 1.378841
1.289520 23.993320 1.157459
1.219879 24.052397 1.305920
1.232705 24.034332 1.272372
1.213397 24.055321 1.344799
1.247345 24.007938 1.239533
1.285406 23.960224 1.125666
1.309468 23.948381 1.097496
1.299806 23.945932 1.101570
1.318912 23.931778 1.070068
1.210456 24.052578 1.372442
1.305694 23.951475 1.131620
1.331390 23.908276 1.036324
1.292656 23.951836 1.150486
1.209221 24.029730 1.350252
1.197788 24.043274 1.396605
1.291058 23.951609 1.176473
1.222968 24.012203 1.326079
1.216462 24.008390 1.321597
1.230470 23.991262 1.290442
1.216890 24.011749 1.361905
1.287287 23.918159 1.143814
1.246618 23.964527 1.259503
1.312365 23.904318 1.113415
1.295446 23.901798 1.116928
1.316326 23.889046 1.089015
1.207727 24.007862 1.386384
1.300148 23.906403 1.144587
1.330678 23.865767 1.055930
1.294533 23.909769 1.168636
1.205245 23.987103 1.363989
1.289774 23.909563 1.194506
1.224006 23.968859 1.340964
1.215524 23.966005 1.338757
1.232591 23.950037 1.310652
1.210748 23.966230 1.373671
1.286120 23.875854 1.158546
1.244617 23.922285 1.279644
1.307751 23.859360 1.126714
1.302273 23.862041 1.138413
1.319727 23.847557 1.108695
1.208069 23.965237 1.403006
1.299551 23.863642 1.160889
1.329612 23.823618 1.076408
1.288632 23.865061 1.182475
1.202200 23.944593 1.378060
1.285993 23.865906 1.211065
1.219534 23.925930 1.359253
1.222548 23.923901 1.354375
1.231277 23.907087 1.329059
1.209900 23.922667 1.387906
1.289859 23.834017 1.177359
1.313120 23.816916 1.144123
1.241996 23.878654 1.298967
1.301322 23.819641 1.155588
1.310905 23.803692 1.124487
1.309262 23.822119 1.180806
1.328537 23.781473 1.096890
1.204082 23.903473 1.395838
1.301077 23.825979 1.205934
1.299619 23.827765 1.236917
1.213297 23.882521 1.373586
1.225425 23.879864 1.370300
1.224672 23.863111 1.344635
1.293611 23.793102 1.195804
1.297579 23.770264 1.152626
1.310946 23.780220 1.178067
1.245259 23.837448 1.321954
1.315471 23.763145 1.146567
1.287745 23.775154 1.188207
1.280497 23.779129 1.213664
1.269088 23.780251 1.239795
1.214823 23.841759 1.392239
1.243467 23.840548 1.396102
1.228297 23.822474 1.366383
1.281143 23.748541 1.206985
1.247943 23.796696 1.343376
1.236258 23.782751 1.390645
1.226678 23.751505 1.352471
1.308957 24.180817 1.051933
1.340657 24.140739 0.987644
1.324120 24.165030 1.012680
1.333921 24.140963 1.001077
1.291616 24.151871 1.099496
1.261168 24.178480 1.189301
1.301479 24.133583 1.067219
1.327692 24.137926 1.017174
1.336367 24.094391 1.002655
1.318213 24.119282 1.029114
1.247846 24.171038 1.218214
1.332115 24.095280 1.017927
1.331954 24.094250 0.990781
1.288286 24.106548 1.114459
1.342374 24.047787 0.990730
1.259450 24.132551 1.202841
1.300660 24.089851 1.083652
1.248504 24.176895 1.229960
1.246773 24.167395 1.241165
1.325549 24.092596 1.034895
1.212549 24.169884 1.318648
1.336805 24.049492 1.018906
1.317638 24.075439 1.047983
1.251485 24.127935 1.233822
1.230731 24.156384 1.285369
1.239621 24.159761 1.264523
1.332843 24.052113 1.035876
1.332346 24.051437 1.009603
1.284643 24.062504 1.129924
1.336539 24.000885 1.004217
1.261495 24.087044 1.217666
1.299504 24.046476 1.100955
1.246014 24.131912 1.248552
1.246285 24.123304 1.256724
1.326880 24.049887 1.054038
1.211745 24.127068 1.334710
1.334443 24.005203 1.033817
1.315180 24.031391 1.066204
1.246001 24.081593 1.246067
1.227997 24.111513 1.301522
1.237829 24.114996 1.280999
1.327297 24.006941 1.051061
1.279455 24.017902 1.143867
1.327283 24.006042 1.029659
1.337338 23.956560 1.019221
1.259197 24.041586 1.229636
1.295499 24.001865 1.117656
1.240463 24.077312 1.269840
1.246009 24.087597 1.268978
1.325387 24.006865 1.072210
1.329234 23.959682 1.048127
1.308958 23.986927 1.083132
1.247419 24.038635 1.261897
1.235457 24.070698 1.295907
1.224925 24.066998 1.318544
1.283387 23.976540 1.161166
1.326142 23.963568 1.068358
1.325454 23.963377 1.048702
1.339103 23.913263 1.034175
1.252145 23.993765 1.240726
1.296248 23.959623 1.135228
1.244029 24.035374 1.288380
1.317644 23.962761 1.087250
1.240091 24.041847 1.285400
1.330661 23.916737 1.063953
1.306498 23.942881 1.101345
1.249150 23.994404 1.277218
1.230891 24.027468 1.310672
1.222818 24.023510 1.335516
1.282590 23.933737 1.177219
1.324382 23.919739 1.084457
1.323599 23.919790 1.068109
1.338020 23.868732 1.048526
1.289468 23.916550 1.150219
1.252960 23.950356 1.255354
1.242623 23.992105 1.303238
1.314268 23.919533 1.104771
1.236344 23.998041 1.304162
1.327357 23.872349 1.078531
1.308454 23.901552 1.121303
1.246175 23.949656 1.290924
1.232260 23.986597 1.329068
1.222280 23.981508 1.353634
1.280875 23.891752 1.192577
1.325132 23.877499 1.102023
1.322348 23.876659 1.088707
1.340388 23.825891 1.064668
1.293063 23.875542 1.168383
1.254690 23.906126 1.270669
1.242785 23.950321 1.319241
1.309951 23.876204 1.121966
1.238268 23.955780 1.324486
1.330352 23.830887 1.095499
1.301313 23.857912 1.137529
1.249161 23.908182 1.307892
1.233628 23.945723 1.347460
1.282924 23.850182 1.209222
1.320574 23.834282 1.116780
1.319238 23.834244 1.108289
1.328953 23.780224 1.075466
1.290650 23.833342 1.185851
1.241041 23.907406 1.334964
1.253623 23.862511 1.284645
1.316636 23.836315 1.143162
1.231697 23.911663 1.342273
1.323887 23.786543 1.109976
1.304571 23.817257 1.156562
1.243362 23.863123 1.320623
1.281184 23.807274 1.224941
1.324749 23.792807 1.136501
1.318371 23.792606 1.127271
1.288598 23.791710 1.202074
1.239296 23.864491 1.350683
1.252555 23.818893 1.298618
1.318012 23.795450 1.161547
1.332526 23.745697 1.128871
1.304644 23.775719 1.175864
1.242921 23.820885 1.335422
1.280072 23.765743 1.241484
1.334595 23.752871 1.157786
1.319989 23.751629 1.148089
1.292770 23.750231 1.221790
1.257711 23.775429 1.316083
1.329038 23.755501 1.185589
1.304715 23.734180 1.195163
1.243999 23.778278 1.352102
1.282145 23.725092 1.257750
1.309127 23.712170 1.248267
1.251962 23.732218 1.328068
1.298467 23.709044 1.190433
1.332303 24.133558 0.981698
1.323540 24.138542 1.002603
1.312622 24.141647 1.026798
1.307356 24.148174 1.052109
1.297593 24.152227 1.064810
1.264754 24.158487 1.168795
1.327041 24.089499 0.996944
1.322389 24.095497 1.018086
1.271670 24.143774 1.141659
1.285953 24.130011 1.109237
1.313148 24.098032 1.040919
1.300992 24.103226 1.064901
1.300689 24.110044 1.082973
1.237644 24.143694 1.217430
1.232280 24.146397 1.252356
1.259887 24.115009 1.182819
1.326985 24.047342 1.014875
1.271057 24.101164 1.158363
1.316573 24.050995 1.032101
1.281777 24.086834 1.126931
1.221049 24.145002 1.275881
1.306232 24.052641 1.052481
1.300758 24.060282 1.080742
1.295417 24.065981 1.098213
1.239079 24.100172 1.231907
1.223497 24.100784 1.263186
1.331883 23.998030 1.002959
1.203227 24.130116 1.344891
1.255393 24.071196 1.195975
1.321747 24.004213 1.029757
1.263959 24.057816 1.172516
1.316338 24.008055 1.047938
1.221760 24.103081 1.291725
1.276155 24.044035 1.142674
1.310075 24.009785 1.068909
1.292190 24.016392 1.093305
1.292950 24.023163 1.114183
1.232146 24.054775 1.243461
1.228800 24.058460 1.281199
1.332368 23.956314 1.022106
1.196115 24.086756 1.359039
1.252369 24.027929 1.210715
1.321133 23.961611 1.046451
1.260559 24.014889 1.188119
1.219313 24.061180 1.307336
1.310546 23.964481 1.061587
1.280334 24.002731 1.163274
1.308394 23.967222 1.082795
1.294724 23.973764 1.110226
1.291404 23.980450 1.130512
1.230796 24.010937 1.256836
1.342984 23.917931 1.019959
1.346004 23.908541 1.012236
1.219665 24.014118 1.292526
1.332882 23.915525 1.040893
1.244746 23.985067 1.223277
1.195650 24.044912 1.377816
1.315886 23.918482 1.061322
1.257737 23.973333 1.204588
1.308862 23.921921 1.075469
1.216278 24.017908 1.322070
1.275628 23.960037 1.179370
1.308903 23.923603 1.096895
1.293586 23.931643 1.125332
1.288962 23.938559 1.146117
1.338319 23.876173 1.035697
1.232767 23.967855 1.272522
1.343533 23.865728 1.028194
1.219439 23.972090 1.307992
1.323553 23.872314 1.055168
1.245450 23.943150 1.239107
1.193705 24.002520 1.394997
1.313959 23.876110 1.078505
1.256213 23.931543 1.220552
1.213822 23.976006 1.337670
1.314168 23.879606 1.093471
1.270575 23.918610 1.195969
1.307180 23.880110 1.111125
1.286515 23.896667 1.161717
1.297037 23.889114 1.142606
1.341431 23.834915 1.053477
1.234802 23.926630 1.287494
1.342394 23.823610 1.043292
1.216809 23.929409 1.321499
1.248583 23.902809 1.256530
1.324983 23.831627 1.074307
1.315250 23.835569 1.095200
1.257085 23.890404 1.238464
1.215064 23.934519 1.354720
1.309356 23.837996 1.106759
1.268294 23.877493 1.213652
1.305863 23.837208 1.124132
1.295376 23.847475 1.156121
1.284613 23.855215 1.178538
1.339500 23.792540 1.070651
1.234880 23.882404 1.302797
1.221752 23.888342 1.339998
1.246502 23.860573 1.271258
1.322124 23.789146 1.091115
1.312801 23.793680 1.110791
1.255176 23.848948 1.255280
1.213525 23.892717 1.370672
1.307248 23.794838 1.121841
1.268752 23.835760 1.232776
1.302280 23.793503 1.137624
1.287712 23.813946 1.196308
1.291413 23.804106 1.170474
1.232588 23.838455 1.315785
1.220554 23.845274 1.355438
1.246782 23.818054 1.288287
1.325363 23.747730 1.111326
1.314016 23.751276 1.128184
1.251754 23.806013 1.270855
1.215274 23.850737 1.389291
1.307948 23.752920 1.137654
1.264063 23.793987 1.248495
1.302396 23.750214 1.152563
1.301469 23.772400 1.220008
1.304624 23.762121 1.192948
1.226211 23.794426 1.328176
1.219352 23.802202 1.370872
1.243733 23.774780 1.302994
1.250728 23.763725 1.288377
1.262626 23.751110 1.267233
1.279808 23.717876 1.197354
1.268870 23.727657 1.222367
1.243087 23.751905 1.352424
1.242200 23.732969 1.318903
1.250636 23.721531 1.306228
1.259381 23.708942 1.284855
1.271010 23.685339 1.240079
1.299321 24.122396 1.081902
1.287252 24.124588 1.103611
1.212155 24.158527 1.297661
1.292282 24.078869 1.098349
1.207479 24.156031 1.304726
1.286174 24.082272 1.121040
1.212538 24.116755 1.316681
1.290406 24.036297 1.117853
1.203993 24.113068 1.320190
1.281937 24.039984 1.138231
1.339794 23.979816 1.014364
1.207840 24.072941 1.335435
1.289485 23.994759 1.137369
1.198688 24.070829 1.334569
1.278997 23.997463 1.154924
1.336099 23.937969 1.032782
1.339058 23.917221 1.020217
1.206907 24.031401 1.354947
1.284857 23.952808 1.155419
1.200944 24.030191 1.353965
1.275708 23.956209 1.172125
1.334626 23.895990 1.051069
1.335019 23.876635 1.039126
1.200809 23.988903 1.371374
1.283009 23.911160 1.174540
1.197999 23.987665 1.370627
1.274653 23.914818 1.189168
1.330421 23.854626 1.067871
1.334129 23.836021 1.058266
1.195156 23.947935 1.386236
1.198027 23.947157 1.390128
1.277491 23.870035 1.191847
1.274137 23.873869 1.207443
1.318428 23.812784 1.082616
1.328573 23.793968 1.075925
1.275630 23.828392 1.210969
1.274540 23.833021 1.226084
1.320681 23.772141 1.101990
1.327635 23.752424 1.095414
1.269138 23.786238 1.228259
1.285039 23.791431 1.249453
1.257208 23.748951 1.255176
1.270040 23.744896 1.248476
1.255197 23.707460 1.271852
1.279734 23.703043 1.273919
1.301442 24.170214 1.030057
1.301450 24.152004 1.045885
1.274596 24.176817 1.113790
1.297646 24.153603 1.057587
1.292893 24.157991 1.073563
1.277869 24.169010 1.099752
1.300310 24.147314 1.047333
1.290195 24.158564 1.090884
1.286505 24.158152 1.089398
1.294382 24.138441 1.048381
1.291675 24.144764 1.066813
1.279915 24.155630 1.095705
1.298404 24.128019 1.043985
1.245317 24.170374 1.174901
1.233785 24.181028 1.208677
1.298303 24.110868 1.065188
1.273723 24.136450 1.132619
1.296389 24.113590 1.077269
1.292942 24.117727 1.092763
1.276839 24.127832 1.116503
1.298852 24.105574 1.065301
1.232886 24.173229 1.237343
1.283090 24.116310 1.104182
1.282664 24.115747 1.105400
1.293257 24.103083 1.082601
1.294231 24.096449 1.065868
1.238876 24.154301 1.211577
1.280149 24.113283 1.112339
1.298524 24.085779 1.058177
1.249630 24.128086 1.192169
1.234025 24.138681 1.225313
1.228796 24.148293 1.251797
1.223594 24.155962 1.281450
1.293743 24.070089 1.082534
1.215049 24.154295 1.292388
1.272857 24.096081 1.151452
1.295095 24.072659 1.097318
1.277236 24.086296 1.135218
1.286879 24.075470 1.108878
1.211506 24.143230 1.271960
1.299247 24.064037 1.084016
1.228715 24.132095 1.253838
1.281528 24.074675 1.119713
1.284410 24.074877 1.123269
1.289900 24.054506 1.080284
1.288726 24.059412 1.095304
1.277125 24.071089 1.126274
1.239433 24.113575 1.232371
1.297301 24.042873 1.073219
1.244722 24.084768 1.205727
1.234316 24.097252 1.241589
1.228321 24.107571 1.269779
1.221815 24.115490 1.299915
1.289731 24.029768 1.101109
1.209763 24.111332 1.306802
1.293311 24.032185 1.115783
1.266418 24.054180 1.168424
1.290050 24.034241 1.128710
1.276176 24.044199 1.152341
1.211909 24.101700 1.290686
1.295997 24.023010 1.100892
1.223199 24.090303 1.271190
1.279925 24.032125 1.135618
1.278733 24.032270 1.138542
1.293876 24.013491 1.098053
1.289352 24.016714 1.111099
1.229886 24.072641 1.248728
1.277752 24.028391 1.142070
1.297047 24.000990 1.088279
1.243551 24.042780 1.220418
1.235445 24.054089 1.258977
1.221729 24.064859 1.284685
1.214841 24.073130 1.315675
1.292477 23.987972 1.122169
1.207291 24.069592 1.321977
1.265519 24.012892 1.187636
1.285568 23.990534 1.133248
1.284039 23.992899 1.144476
1.272395 24.002708 1.167996
1.293140 23.981619 1.116911
1.211400 24.060053 1.309039
1.221385 24.048906 1.290025
1.275607 23.990177 1.150042
1.274956 23.990776 1.154191
1.295052 23.971237 1.115070
1.288526 23.973446 1.125295
1.272513 23.986340 1.156123
1.228570 24.030783 1.269152
1.299827 23.956295 1.104689
1.246336 23.998085 1.236830
1.232980 24.012342 1.274146
1.223454 24.023060 1.302929
1.210307 24.032343 1.333034
1.289784 23.947388 1.140270
1.205326 24.027384 1.338737
1.286141 23.949795 1.154051
1.261862 23.971289 1.205730
1.288103 23.950842 1.165052
1.206327 24.018810 1.325174
1.274614 23.960447 1.187829
1.293513 23.939152 1.136001
1.219577 24.007507 1.308863
1.284087 23.946901 1.170762
1.280710 23.948112 1.173432
1.291577 23.927551 1.130597
1.293200 23.929869 1.142087
1.228765 23.990398 1.290811
1.277685 23.942301 1.174504
1.295856 23.913071 1.118628
1.249711 23.954758 1.254107
1.223878 23.981508 1.321659
1.231359 23.968859 1.290420
1.210351 23.991144 1.352617
1.292548 23.905579 1.161330
1.208322 23.984409 1.356868
1.263749 23.930294 1.226055
1.286678 23.908134 1.175223
1.209481 23.976646 1.345384
1.282990 23.908676 1.181553
1.276301 23.917725 1.206442
1.296121 23.896532 1.154984
1.210436 23.966208 1.324370
1.282397 23.905390 1.192045
1.281926 23.902960 1.185811
1.293647 23.884476 1.148357
1.293267 23.885777 1.157026
1.221968 23.948841 1.308650
1.278293 23.898666 1.190668
1.297770 23.869184 1.134310
1.224608 23.937761 1.340268
1.249359 23.910101 1.270266
1.232513 23.925678 1.307811
1.205247 23.948978 1.369123
1.284829 23.863914 1.178799
1.200294 23.941128 1.370183
1.262789 23.887154 1.246000
1.283913 23.865709 1.194060
1.206182 23.933765 1.362998
1.274303 23.874590 1.223572
1.282952 23.865637 1.201869
1.296465 23.853138 1.174446
1.213171 23.923477 1.345801
1.280312 23.859472 1.202089
1.284389 23.860472 1.210537
1.309778 23.838892 1.172294
1.309782 23.839840 1.180110
1.217904 23.906668 1.327971
1.292041 23.852425 1.212639
1.314667 23.822893 1.156542
1.223159 23.895081 1.358627
1.248133 23.866257 1.285693
1.233632 23.881575 1.325570
1.213141 23.907206 1.393638
1.291596 23.820312 1.201228
1.272867 23.844309 1.270768
1.204299 23.897221 1.391501
1.280773 23.823633 1.213754
1.201469 23.891243 1.378655
1.290599 23.829809 1.249591
1.280960 23.822498 1.219003
1.283102 23.810972 1.187249
1.213187 23.881353 1.365758
1.278704 23.815979 1.218370
1.267762 23.818462 1.220637
1.279975 23.798569 1.176956
1.218959 23.864536 1.350742
1.277976 23.798504 1.181952
1.266654 23.810881 1.217445
1.291125 23.781551 1.162090
1.217527 23.852451 1.373916
1.253542 23.835360 1.353807
1.266919 23.818213 1.311845
1.270133 23.778959 1.212406
1.247259 23.803928 1.278508
1.267615 23.783194 1.228274
1.260803 23.789486 1.254257
1.270870 23.780172 1.234513
1.279271 23.767628 1.203645
1.210939 23.838457 1.386193
1.267037 23.773205 1.229843
1.259361 23.775530 1.234813
1.280560 23.754005 1.193495
1.217294 23.823013 1.372039
1.276176 23.753283 1.196524
1.262626 23.765810 1.232129
1.283830 23.736639 1.174071
1.212783 23.809002 1.389945
1.218526 23.795101 1.352588
1.236815 23.776272 1.312359
1.269234 23.736725 1.231997
1.244517 23.761492 1.297357
1.264447 23.740192 1.248340
1.262092 23.737589 1.249545
1.255092 23.745016 1.270279
1.273261 23.725349 1.219790
1.263555 23.728584 1.245755
1.260451 23.730499 1.252946
1.233721 23.731295 1.327420
1.241558 24.179562 1.166518
1.264866 24.161459 1.124810
1.251727 24.171547 1.160493
1.244657 24.176920 1.172913
1.253033 24.168890 1.153030
1.265820 24.156158 1.124189
1.261656 24.120581 1.142592
1.242849 24.137436 1.186962
1.245331 24.129728 1.178329
1.209576 24.188532 1.262559
1.269795 24.183716 1.100963
1.270033 24.178768 1.101946
1.194376 24.156590 1.308489
1.237318 24.176857 1.185076
1.255815 24.155628 1.137640
1.264817 24.146915 1.124253
1.247884 24.126963 1.167955
1.241812 24.134771 1.190210
1.260270 24.114576 1.139961
1.263869 24.078571 1.163416
1.234147 24.095831 1.202419
1.219228 24.176903 1.235572
1.235311 24.088350 1.194247
1.208043 24.146149 1.279389
1.231858 24.175280 1.188097
1.263595 24.139946 1.113787
1.266578 24.135355 1.115928
1.186577 24.115091 1.324327
1.238025 24.134378 1.201833
1.230328 24.163187 1.200658
1.254698 24.112913 1.153625
1.262821 24.105003 1.139486
1.245414 24.083546 1.184763
1.239851 24.091814 1.208252
1.263259 24.070957 1.159453
1.253854 24.037191 1.179329
1.236357 24.053812 1.223236
1.214443 24.133701 1.250008
1.244403 24.046707 1.219367
1.204278 24.103865 1.296288
1.232022 24.131414 1.203984
1.265086 24.095863 1.129213
1.263125 24.091940 1.129904
1.188777 24.073057 1.345138
1.233757 24.091639 1.217500
1.225441 24.119179 1.213011
1.249009 24.069597 1.167672
1.263471 24.060680 1.156968
1.248031 24.041183 1.204730
1.241551 24.049330 1.227832
1.259509 24.028683 1.176351
1.256038 23.994246 1.200505
1.234400 24.010845 1.241267
1.215116 24.090288 1.267120
1.240213 24.003845 1.237472
1.202716 24.060549 1.313471
1.231273 24.087425 1.219478
1.258892 24.052086 1.142023
1.184097 24.030640 1.361639
1.264619 24.047852 1.145322
1.233116 24.048450 1.235071
1.254638 24.025520 1.186232
1.228318 24.074743 1.230413
1.264124 24.016352 1.174444
1.242306 24.005795 1.247385
1.250074 23.996504 1.224187
1.259758 23.984692 1.194670
1.230211 23.967976 1.259366
1.259073 23.949564 1.222792
1.214843 24.045826 1.284206
1.241958 23.960306 1.259853
1.202952 24.016541 1.331785
1.231038 24.043892 1.236198
1.268044 24.006758 1.160410
1.186235 23.986746 1.383167
1.270591 24.001587 1.163763
1.233360 24.004452 1.253387
1.254377 23.981064 1.203314
1.227572 24.030745 1.245898
1.260272 23.973263 1.189249
1.250323 23.952501 1.242499
1.238085 23.962000 1.265846
1.263604 23.939323 1.215259
1.226938 23.925220 1.277844
1.266652 23.904545 1.247368
1.211861 24.001925 1.299759
1.255871 23.914270 1.287864
1.200957 23.972631 1.350167
1.233887 23.998522 1.253955
1.261821 23.962048 1.173572
1.264401 23.957798 1.176558
1.240348 23.959089 1.274284
1.255438 23.936375 1.219928
1.228997 23.984791 1.262031
1.260897 23.927996 1.207076
1.259624 23.906910 1.265765
1.254602 23.914591 1.293298
1.271993 23.893614 1.238138
1.243020 23.864128 1.256360
1.226314 23.880045 1.298569
1.218846 23.956554 1.320652
1.227291 23.874521 1.295405
1.203878 23.927118 1.370357
1.234910 23.952904 1.270931
1.273659 23.915215 1.193835
1.287489 23.908356 1.202073
1.248666 23.911531 1.297890
1.267315 23.888491 1.242999
1.235848 23.937696 1.281207
1.250275 23.885328 1.219644
1.220526 23.876089 1.295339
1.232227 23.865210 1.271124
1.206987 23.952179 1.324131
1.243313 23.853064 1.243593
1.220302 23.836916 1.315873
1.236980 23.820082 1.274029
1.226683 23.909449 1.342656
1.221757 23.830931 1.314307
1.202844 23.910046 1.339332
1.213617 23.880119 1.395574
1.251290 23.903763 1.296663
1.210081 23.863440 1.352319
1.257446 23.871031 1.201999
1.254571 23.866987 1.202299
1.220823 23.871208 1.301280
1.243986 23.846922 1.249053
1.203273 23.815256 1.362793
1.248603 23.888998 1.305024
1.247619 23.838308 1.235426
1.234653 23.819233 1.290070
1.224819 23.829308 1.317869
1.246252 23.807550 1.263773
1.204860 23.906534 1.340784
1.213750 23.792397 1.332300
1.239992 23.774441 1.296651
1.206429 23.866037 1.349747
1.220224 23.785618 1.334630
1.205738 23.863604 1.359877
1.224226 23.861832 1.298719
1.204002 23.818455 1.370344
1.254349 23.825394 1.215815
1.255982 23.820097 1.218778
1.219182 23.825098 1.319524
1.243161 23.800129 1.265601
1.249135 23.792213 1.253982
1.220592 23.846024 1.307055
1.228104 23.774714 1.306494
1.217352 23.784666 1.333906
1.239673 23.762112 1.280562
1.207212 23.858706 1.360456
1.210422 23.747763 1.351478
1.231212 23.730022 1.313145
1.199767 23.820709 1.364089
1.211917 23.740736 1.352721
1.197756 23.818499 1.374679
1.220652 23.814676 1.314103
1.254306 23.776993 1.231030
1.218832 23.777828 1.337663
1.255535 23.772039 1.234840
1.241902 23.752747 1.283354
1.246486 23.745176 1.269749
1.217456 23.799446 1.321225
1.216672 23.737616 1.355334
1.196415 23.813362 1.371648
1.217997 23.767632 1.329867
1.258370 23.727673 1.249748
1.210827 23.731794 1.352818
1.219683 23.749878 1.339166
