# .PCD v0.7 - Point Cloud Data file format
VERSION 0.7
FIELDS x y z
SIZE 4 4 4
TYPE F F F
COUNT 1 1 1
WIDTH 27
HEIGHT 1
VIEWPOINT 0 0 0 1
POINTS 27
DATA ascii
0.084948 4.516394 2.928294
0.115609 4.563932 2.948082
0.173828 4.631677 2.974017
0.374040 4.495373 3.036646
0.465469 4.591208 3.084686
0.445526 4.499492 3.078172
0.558454 4.662298 3.124044
0.529550 4.531554 3.098404
0.615750 4.564639 3.120418
0.711752 4.492152 3.178020
0.830004 4.687916 3.287237
0.883462 4.522947 3.223712
-0.269184 4.330329 2.763814
-0.194392 4.375659 2.777279
0.063220 4.341851 2.907961
0.136073 4.362905 2.918231
0.211071 4.403738 2.938284
0.140906 4.344692 2.928372
0.220772 4.365899 2.935367
0.228534 4.291271 2.950025
0.316243 4.372491 2.983992
0.457486 4.322031 3.060389
0.540822 4.374036 3.091649
0.621868 4.384984 3.105893
0.637026 4.209814 3.111581
0.721205 4.254266 3.141952
0.809940 4.303947 3.175934
