# .PCD v0.7 - Point Cloud Data file format
VERSION 0.7
FIELDS x y z
SIZE 4 4 4
TYPE F F F
COUNT 1 1 1
WIDTH 15
HEIGHT 1
VIEWPOINT 0 0 0 1
POINTS 15
DATA ascii
-21.564930 30.196741 -5.645902
-21.467543 30.151144 -5.597935
-21.487993 30.216990 -5.554959
-21.634937 30.110140 -5.663257
-21.522171 30.075718 -5.616982
-21.530958 30.079592 -5.591616
-21.494389 30.137661 -5.643780
-21.495497 30.130503 -5.633786
-21.468161 30.121851 -5.596123
-21.456982 30.122545 -5.577099
-21.529352 30.206074 -5.599145
-21.485334 30.184908 -5.602662
-21.459709 30.176928 -5.568682
-21.460218 30.183638 -5.549086
-21.502394 30.246010 -5.567118
