# .PCD v0.7 - Point Cloud Data file format
VERSION 0.7
FIELDS x y z
SIZE 4 4 4
TYPE F F F
COUNT 1 1 1
WIDTH 74
HEIGHT 1
VIEWPOINT 0 0 0 1
POINTS 74
DATA ascii
-7.864026 32.373371 -0.766875
-7.970902 32.385582 -0.761986
-8.034117 32.288933 -0.841526
-8.144393 32.237507 -0.887422
-8.082807 32.398571 -0.757437
-8.137410 32.309376 -0.840967
-8.201588 32.276150 -0.896089
-8.002692 32.403858 -0.761822
-8.668249 32.167664 -1.050583
-8.108925 32.441528 -0.765374
-8.135547 32.268238 -0.877758
-8.235383 32.335072 -0.842090
-8.359395 32.281200 -0.893444
-8.099548 32.425526 -0.759575
-8.714775 32.223679 -1.058188
-8.373571 32.209129 -0.956744
-8.279586 32.278923 -0.877391
-8.321536 32.366261 -0.843219
-8.444561 32.315536 -0.898824
-8.567109 32.171890 -1.035525
-8.455592 32.246685 -0.965821
-8.365475 32.312241 -0.883460
-8.687826 32.202755 -1.044148
-8.526478 32.169159 -1.030957
-8.578664 32.273346 -0.970122
-8.618845 32.210327 -1.043489
-8.793834 32.131908 -1.119460
-8.295660 32.267475 -0.941804
-8.377388 32.212158 -0.989677
-8.745878 32.013424 -1.031839
-8.614940 32.031487 -0.984845
-8.410773 32.243008 -0.999297
-8.720766 32.083347 -1.054083
-8.599169 32.093441 -1.009150
-8.633800 32.180626 -1.088475
-8.504986 32.191471 -1.050506
-8.837427 32.021400 -1.070083
-8.553061 32.220829 -1.058241
-8.732721 32.128517 -1.110902
-8.952977 31.970669 -1.110336
-8.719549 32.190197 -1.132173
-8.912332 32.119694 -1.195254
-8.961621 32.029140 -1.131975
-8.839393 32.146065 -1.172840
-8.405705 32.050087 -0.866386
-8.420544 32.090092 -0.883796
-8.368813 32.164558 -0.920972
-8.566398 32.042404 -0.932207
-8.320097 32.236755 -0.954308
-8.546463 32.102310 -0.959369
-8.518149 32.250397 -0.975998
-8.484902 32.211731 -0.911046
-8.486668 32.204899 -0.909928
-8.658063 32.247246 -1.091786
-8.314872 32.205803 -0.846435
-8.777856 32.237343 -1.117532
-8.435764 32.223953 -0.885661
-8.806076 32.235722 -1.143629
-8.504664 32.164692 -0.912306
-8.564213 32.209274 -0.944051
-8.513405 32.157555 -0.921046
-8.729424 32.198544 -1.028481
-8.447882 32.176319 -0.887055
-8.756169 32.198315 -1.050598
-8.580166 32.166481 -0.946743
-8.973817 32.204464 -1.200702
-8.716817 32.157867 -0.988758
-9.017523 32.204395 -1.224571
-8.744725 32.158043 -1.012091
-8.938966 32.169758 -1.130165
-9.001641 32.171967 -1.181970
-8.761504 32.117458 -1.013222
-8.916241 32.132202 -1.077712
-8.965063 32.137547 -1.103127
