# .PCD v0.7 - Point Cloud Data file format
VERSION 0.7
FIELDS x y z
SIZE 4 4 4
TYPE F F F
COUNT 1 1 1
WIDTH 357
HEIGHT 1
VIEWPOINT 0 0 0 1
POINTS 357
DATA ascii
-8.734074 31.479126 -2.133621
-8.662392 31.544928 -2.210099
-8.743217 31.550997 -2.162087
-8.582438 31.474817 -2.576385
-8.705557 31.506918 -2.097006
-8.699672 31.588648 -2.236680
-8.693234 31.557808 -2.158422
-8.514295 31.526466 -2.629897
-8.766980 31.608213 -2.188858
-8.589957 31.554335 -2.596104
-8.619648 31.502626 -2.500811
-8.531400 31.527176 -2.586397
-8.708585 31.580025 -2.118886
-8.646194 31.463417 -2.411968
-8.799832 31.583778 -2.270712
-8.746821 31.587576 -2.184611
-8.540453 31.586374 -2.654463
-8.428748 31.481020 -3.017627
-8.899503 31.581526 -2.223833
-8.543974 31.529217 -2.556013
-8.641462 31.594419 -2.628599
-8.673980 31.491838 -2.334918
-8.623860 31.579657 -2.520645
-8.644435 31.543501 -2.431657
-8.797574 31.581417 -2.144069
-8.557749 31.585089 -2.608723
-8.968422 31.529383 -2.311755
-8.831769 31.593641 -2.212430
-8.649838 31.574390 -2.702401
-8.438225 31.566471 -3.031782
-8.430538 31.438528 -3.168605
-8.464688 31.529293 -2.945260
-9.049359 31.548681 -2.263690
-8.553289 31.545038 -2.526564
-8.576419 31.581030 -2.577617
-8.498723 31.494576 -2.867504
-8.680449 31.560297 -2.356315
-8.657988 31.607746 -2.451643
-8.895411 31.579229 -2.170593
-8.708624 31.588474 -2.558541
-8.659872 31.579613 -2.651099
-8.514208 31.470528 -2.778090
-9.097086 31.512396 -2.350305
-9.026543 31.520618 -2.251462
-8.814912 31.521837 -2.767917
-8.514380 31.588676 -3.077999
-8.442963 31.521513 -3.180290
-8.482898 31.600933 -2.963116
-8.597338 31.588768 -2.548391
-9.183364 31.533875 -2.301268
-8.675896 31.578125 -2.617468
-8.502878 31.574871 -2.880368
-8.720608 31.597528 -2.379530
-8.450326 31.490973 -3.146555
-8.774510 31.585596 -2.493640
-8.534506 31.532608 -2.797472
-8.829552 31.521265 -2.714606
-8.920759 31.541271 -2.742275
-9.141570 31.515322 -2.283730
-9.241653 31.490597 -2.391059
-8.950365 31.502048 -2.825724
-8.461597 31.464788 -3.115638
-8.454532 31.604713 -3.189919
-8.606867 31.577765 -3.028667
-8.711081 31.572233 -2.588724
-8.836712 31.526644 -2.672700
-8.574502 31.593945 -2.921794
-8.827255 31.583342 -2.416219
-9.343106 31.507414 -2.343582
-8.461548 31.572197 -3.156112
-8.912951 31.554468 -2.540774
-8.539398 31.607616 -2.812877
-8.979545 31.538153 -2.660887
-8.958690 31.505840 -2.765263
-9.263065 31.509933 -2.316251
-9.064828 31.521013 -2.800881
-9.385837 31.474962 -2.432137
-9.097983 31.480062 -2.887543
-8.468096 31.550009 -3.120742
-8.827751 31.509485 -3.251203
-8.754130 31.542109 -3.106190
-8.865554 31.528103 -2.639084
-8.968051 31.546860 -2.459386
-8.968015 31.507862 -2.721632
-8.668368 31.574663 -2.871943
-8.520596 31.609919 -3.190066
-9.038727 31.538788 -2.585987
-9.099179 31.487318 -2.820657
-9.123132 31.517105 -2.715240
-9.419289 31.486261 -2.353980
-9.220186 31.501753 -2.863715
-9.257936 31.456867 -2.953408
-8.496265 31.613928 -3.136097
-9.024726 31.452223 -3.357559
-8.998511 31.508148 -2.684299
-9.091204 31.530769 -2.499800
-8.893613 31.522163 -3.179329
-9.116069 31.484060 -2.774830
-8.844110 31.538774 -3.055230
-8.799025 31.546438 -2.933249
-9.183624 31.514595 -2.636555
-9.248544 31.469252 -2.878291
-9.285256 31.488684 -2.774328
-9.399505 31.472084 -2.933595
-8.602450 31.609348 -3.192426
-9.435650 31.429426 -3.025634
-9.097330 31.501558 -3.401776
-9.224862 31.511787 -2.542891
-9.146828 31.483408 -2.733892
-9.045288 31.498909 -3.259264
-9.261018 31.467937 -2.827194
-8.985816 31.516525 -3.125270
-8.927673 31.527719 -2.994441
-9.325018 31.500204 -2.685708
-9.449476 31.468018 -2.834353
-9.434126 31.434477 -2.947496
-9.591666 31.444166 -3.007630
-9.635970 31.395847 -3.105919
-9.367977 31.492128 -2.588840
-9.299510 31.462996 -2.784098
-9.205528 31.478168 -3.342267
-9.129200 31.499006 -3.197548
-9.433572 31.440731 -2.888455
-9.061491 31.509081 -3.057403
-9.502552 31.466183 -2.742745
-9.622197 31.405336 -3.018217
-9.632674 31.441891 -2.900596
-9.533463 31.462420 -2.639128
-9.466323 31.439020 -2.838826
-9.206531 31.490393 -3.125970
-9.298316 31.471708 -3.279626
-9.397702 31.443357 -3.440817
-9.626392 31.407892 -2.954415
-9.678453 31.442533 -2.802530
-9.829183 31.374832 -3.094647
-9.698909 31.440849 -2.689813
-9.660804 31.405012 -2.901076
-9.374244 31.461468 -3.203108
-9.486782 31.439812 -3.370777
-9.820657 31.382898 -3.022073
-9.679403 31.360382 -3.582613
-9.877113 31.366129 -2.967955
-9.559515 31.430302 -3.288852
-9.561406 31.395514 -3.557826
-9.815068 31.381216 -3.697212
-8.660764 31.597570 -2.453982
-8.777728 31.579775 -2.393663
-8.758801 31.581665 -2.495237
-8.570829 31.597828 -2.796661
-8.537639 31.531084 -2.982424
-8.899712 31.535427 -2.545180
-8.561869 31.586689 -2.889341
-9.007215 31.539238 -2.481404
-8.688880 31.569305 -2.856984
-8.411662 31.577295 -3.198516
-8.556417 31.598276 -3.005060
-9.006264 31.523281 -2.589800
-8.696619 31.540352 -2.959381
-9.125644 31.524433 -2.527514
-8.816783 31.538290 -2.921008
-8.501214 31.575710 -3.260714
-8.654716 31.588617 -3.063630
-9.128016 31.505930 -2.637762
-8.809176 31.523563 -3.021943
-9.253267 31.508327 -2.575289
-8.945600 31.513069 -2.988118
-8.808681 31.536001 -3.148831
-9.256289 31.488634 -2.687568
-8.918604 31.516380 -3.082289
-9.403276 31.480877 -2.629324
-9.074286 31.498005 -3.054331
-8.927077 31.523195 -3.217720
-9.403147 31.463512 -2.743979
-9.053524 31.492115 -3.154848
-9.558345 31.458740 -2.684829
-9.215343 31.476967 -3.126791
-9.064639 31.500311 -3.296613
-9.556331 31.442535 -2.801743
-9.198563 31.467340 -3.231198
-9.730732 31.431089 -2.744268
-9.368920 31.457085 -3.203736
-9.220572 31.472555 -3.384396
-9.718900 31.421173 -2.862624
-9.350186 31.447554 -3.311770
-9.916769 31.402431 -2.808029
-9.548519 31.424084 -3.293070
-9.909782 31.389641 -2.930991
-9.372238 31.456566 -3.470117
-9.524773 31.419174 -3.402970
-10.110189 31.379694 -2.875313
-9.747554 31.389124 -3.390685
-10.119175 31.355360 -3.005508
-9.717125 31.387039 -3.502426
-9.967826 31.349987 -3.495676
-9.914860 31.362129 -3.604847
-8.774600 31.591551 -2.373788
-8.764713 31.586742 -2.198923
-8.654181 31.594439 -2.572534
-8.928381 31.532948 -2.413265
-8.839578 31.588509 -2.229961
-8.738700 31.584253 -2.395614
-8.585543 31.588140 -2.799861
-8.753291 31.575296 -2.614936
-8.582454 31.575323 -2.912785
-9.015185 31.538124 -2.445384
-8.533265 31.589386 -2.991448
-8.674449 31.583467 -2.842733
-8.826044 31.582245 -2.428763
-8.741852 31.607958 -2.288378
-8.656834 31.597059 -2.663504
-8.695227 31.600149 -2.418269
-8.697068 31.549480 -2.968360
-8.566351 31.593889 -2.819568
-9.138661 31.515947 -2.483037
-9.054477 31.547760 -2.297609
-8.640977 31.563183 -3.052964
-8.971143 31.530962 -2.708495
-8.470001 31.559200 -3.041592
-8.812727 31.540098 -2.903486
-8.970798 31.534733 -2.472724
-8.846204 31.587374 -2.324809
-8.570150 31.583038 -2.935856
-8.769399 31.568716 -2.713360
-8.592186 31.579332 -2.710100
-8.785701 31.593540 -2.454590
-8.785761 31.552767 -3.014477
-8.664448 31.580639 -2.868693
-9.170222 31.527760 -2.332151
-9.267740 31.498041 -2.521374
-8.756670 31.535643 -3.120445
-9.094824 31.505093 -2.760117
-8.528235 31.582985 -3.081558
-8.933604 31.518469 -2.958998
-9.090540 31.516003 -2.512129
-8.555248 31.517939 -2.945986
-8.896482 31.534084 -2.770066
-8.654516 31.585884 -2.982137
-8.566575 31.591614 -2.847978
-8.674092 31.580580 -2.754277
-8.939984 31.535486 -2.502559
-8.900568 31.538988 -3.070649
-9.301094 31.501488 -2.371391
-9.403072 31.478209 -2.561460
-8.806917 31.534447 -2.934788
-8.868363 31.516846 -3.184991
-9.211300 31.490368 -2.809773
-8.448326 31.561668 -3.118685
-9.060410 31.498014 -3.015726
-9.201601 31.507538 -2.551002
-9.088563 31.533318 -2.404768
-8.570798 31.588741 -2.965376
-8.997505 31.527594 -2.817267
-8.797361 31.540394 -3.053918
-8.655412 31.589746 -2.895952
-9.041976 31.528179 -2.542590
-9.025754 31.520535 -3.132508
-9.408946 31.496557 -2.408442
-9.551868 31.456450 -2.604410
-8.916265 31.523523 -2.988499
-8.993900 31.491817 -3.257125
-9.335694 31.474379 -2.863980
-8.516681 31.577667 -3.167034
-8.758888 31.530767 -3.222365
-9.194668 31.478401 -3.076424
-9.341527 31.482847 -2.595601
-9.209961 31.515244 -2.446958
-8.655888 31.590322 -3.015100
-9.124839 31.504953 -2.875978
-8.906429 31.531363 -3.111279
-8.804933 31.535286 -2.967691
-9.163524 31.498159 -3.199290
-9.563413 31.463978 -2.450586
-8.921924 31.521055 -2.871996
-9.161034 31.513372 -2.586464
-9.708588 31.434561 -2.649129
-9.043396 31.503839 -3.049500
-9.123027 31.471228 -3.332162
-9.468749 31.458134 -2.920632
-8.985888 31.413893 -3.351373
-8.625120 31.559076 -3.236700
-9.339047 31.458277 -3.140907
-9.479442 31.464464 -2.640598
-9.341687 31.493704 -2.490644
-8.807384 31.537298 -3.093912
-9.257365 31.483612 -2.935233
-9.024682 31.519894 -3.173076
-8.921202 31.520113 -3.027971
-9.310146 31.476444 -3.269971
-9.296284 31.490204 -2.633459
-9.030332 31.513210 -2.927311
-9.880765 31.409445 -2.697265
-9.637049 31.423592 -2.987590
-9.283512 31.433666 -3.421990
-9.177782 31.484081 -3.113013
-8.999174 31.495163 -3.369248
-9.494143 31.436522 -3.209798
-8.740073 31.539406 -3.310983
-9.634953 31.442539 -2.689615
-9.479672 31.475243 -2.537049
-8.916313 31.531147 -3.154965
-9.402014 31.460457 -2.998829
-9.166911 31.496677 -3.245288
-9.042594 31.505177 -3.090161
-9.469620 31.452787 -3.345663
-9.794939 31.402597 -3.053549
-10.067801 31.382217 -2.748189
-9.436391 31.470299 -2.683241
-9.469547 31.383953 -3.526394
-9.169789 31.487619 -2.993141
-9.331679 31.457285 -3.185244
-9.123238 31.484272 -3.445699
-9.687469 31.395884 -3.293088
-8.861811 31.520636 -3.389977
-9.802386 31.417883 -2.741515
-9.634787 31.450344 -2.585924
-9.554249 31.439137 -3.066438
-9.038889 31.517847 -3.222146
-9.319185 31.471884 -3.322648
-9.188694 31.478363 -3.163435
-9.975014 31.374344 -3.125264
-9.660921 31.416189 -3.434913
-9.572828 31.404699 -3.589741
-9.596493 31.443518 -2.736767
-9.320561 31.459280 -3.064005
-9.493024 31.431332 -3.261441
-9.859141 31.378746 -3.367153
-9.272798 31.461306 -3.535316
-9.987544 31.390675 -2.797475
-9.000988 31.495066 -3.478498
-9.808688 31.419670 -2.640067
-9.724598 31.412094 -3.140055
-9.194095 31.486401 -3.304003
-9.487100 31.443645 -3.407656
-9.847149 31.390425 -3.522793
-9.347508 31.448616 -3.241673
-9.740216 31.385178 -3.684418
-9.762849 31.419815 -2.793007
-9.465799 31.443882 -3.132923
-9.658832 31.411814 -3.338474
-10.068968 31.346672 -3.457946
-9.441117 31.430292 -3.635752
-9.976909 31.399813 -2.694994
-9.905395 31.386446 -3.218954
-9.342962 31.466961 -3.384607
-9.672997 31.413702 -3.499592
-9.506118 31.427961 -3.320374
-9.934192 31.400364 -2.852073
-9.860464 31.376749 -3.430174
-9.644602 31.412260 -3.215863
-9.518930 31.437313 -3.476983
-9.862610 31.389187 -3.594467
-9.690362 31.397354 -3.409504
-10.139188 31.368023 -2.918237
-9.837115 31.379559 -3.304524
-9.708076 31.407629 -3.575866
-9.888650 31.367573 -3.505856
-10.045606 31.346453 -3.399552
