# .PCD v0.7 - Point Cloud Data file format
VERSION 0.7
FIELDS x y z
SIZE 4 4 4
TYPE F F F
COUNT 1 1 1
WIDTH 12
HEIGHT 1
VIEWPOINT 0 0 0 1
POINTS 12
DATA ascii
-1.445347 31.292145 -0.249801
-1.429705 31.244646 -0.238572
-1.419294 31.387140 -0.241301
-1.398783 31.265047 -0.222409
-1.372590 31.210375 -0.317051
-1.344546 31.227339 -0.301146
-1.315309 31.257584 -0.287744
-1.440625 31.456665 -0.356266
-1.456700 31.549648 -0.327693
-1.472767 31.545097 -0.299508
-1.483647 31.526985 -0.272412
-1.458109 31.536280 -0.321580
