# .PCD v0.7 - Point Cloud Data file format
VERSION 0.7
FIELDS x y z
SIZE 4 4 4
TYPE F F F
COUNT 1 1 1
WIDTH 43
HEIGHT 1
VIEWPOINT 0 0 0 1
POINTS 43
DATA ascii
-10.404295 36.481075 -3.696480
-10.807279 36.395771 -3.804989
-10.734233 36.378231 -3.745465
-10.767020 36.361061 -3.777478
-10.708290 36.384834 -3.747190
-10.699746 36.354439 -3.722034
-11.911737 36.086033 -4.198219
-11.859950 36.102043 -4.151974
-11.708509 36.117264 -4.103422
-12.427145 35.991215 -4.379396
-12.494143 35.974113 -4.398227
-12.375023 36.004276 -4.340314
-12.444725 35.993828 -4.357980
-12.321425 36.019318 -4.327044
-12.499896 35.962128 -4.389587
-12.555283 35.947655 -4.423195
-12.492361 35.969063 -4.404127
-12.445366 35.985519 -4.358445
-12.964607 35.947315 -4.600553
-12.888998 35.911816 -4.546873
-12.843592 35.939793 -4.506808
-12.827393 35.945019 -4.539223
-12.762764 35.921871 -4.488707
-12.752264 35.951534 -4.535131
-12.681521 36.003387 -4.519428
-12.667377 36.003315 -4.516989
-12.695744 35.997963 -4.512015
-12.713728 35.934353 -4.446753
-12.702733 35.988361 -4.517639
-12.697658 35.948322 -4.487138
-12.624076 36.001717 -4.475376
-12.709579 35.989349 -4.521412
-12.618694 36.021812 -4.477004
-12.640533 35.996777 -4.467117
-12.614624 35.999439 -4.485856
-12.645449 35.980709 -4.469442
-12.645311 35.947502 -4.440622
-12.661116 36.003086 -4.474538
-12.637028 36.006763 -4.486807
-12.575984 35.965199 -4.417950
-12.588120 35.964752 -4.421178
-12.594755 35.958931 -4.419333
-12.575746 35.975712 -4.432438
