# .PCD v0.7 - Point Cloud Data file format
VERSION 0.7
FIELDS x y z
SIZE 4 4 4
TYPE F F F
COUNT 1 1 1
WIDTH 14
HEIGHT 1
VIEWPOINT 0 0 0 1
POINTS 14
DATA ascii
-18.939241 31.910378 -5.519043
-18.990738 31.973944 -5.343598
-18.950342 32.012352 -5.506488
-18.986761 32.071556 -5.328759
-19.044380 32.017853 -5.258733
-18.959908 32.113338 -5.491535
-19.000666 32.166676 -5.314658
-19.056122 32.111542 -5.245788
-18.969479 32.214619 -5.475175
-19.015383 32.260601 -5.298823
-19.067867 32.205521 -5.231439
-19.024786 32.355091 -5.282408
-19.078363 32.300114 -5.217212
-19.041861 32.449398 -5.264422
