# .PCD v0.7 - Point Cloud Data file format
VERSION 0.7
FIELDS x y z
SIZE 4 4 4
TYPE F F F
COUNT 1 1 1
WIDTH 26
HEIGHT 1
VIEWPOINT 0 0 0 1
POINTS 26
DATA ascii
-2.175213 32.635601 0.758754
-2.644614 32.591999 0.587848
-2.933233 32.544849 0.485711
-2.816442 32.561619 0.535906
-3.098631 32.587505 0.423073
-2.948032 32.563366 0.497131
-3.182700 32.567089 0.531724
-3.077007 32.626400 0.457805
-3.096533 32.587078 0.441311
-3.047458 32.635792 0.505849
-3.151965 32.519627 0.464933
-2.553530 31.558245 1.339289
-3.124894 32.590275 0.512699
-2.752529 31.621099 1.244405
-2.565982 31.359688 1.329058
-3.118397 32.619038 0.522636
-2.916819 31.656765 1.178486
-2.586893 31.475718 1.305890
-2.512261 31.295502 1.359199
-2.816252 31.580395 1.186136
-2.493443 31.646021 1.299742
-2.594122 31.538166 1.313258
-3.075626 32.227669 1.099594
-2.586318 31.573704 1.315031
-2.821998 31.637035 1.190781
-2.807565 31.661373 1.196425
