# .PCD v0.7 - Point Cloud Data file format
VERSION 0.7
FIELDS x y z
SIZE 4 4 4
TYPE F F F
COUNT 1 1 1
WIDTH 13
HEIGHT 1
VIEWPOINT 0 0 0 1
POINTS 13
DATA ascii
-7.908706 34.038406 -0.775535
-7.904076 34.155003 -0.775381
-7.905061 34.275833 -0.774507
-7.942712 34.091908 -0.849838
-7.946768 34.205372 -0.854400
-7.955922 34.322517 -0.857686
-7.955475 34.437908 -0.859137
-7.866539 34.115673 -0.765632
-7.891237 34.243195 -0.770429
-7.886171 34.359879 -0.771073
-8.242368 34.268391 -0.902594
-8.320373 34.414631 -0.901387
-8.268282 34.514317 -0.892674
