# .PCD v0.7 - Point Cloud Data file format
VERSION 0.7
FIELDS x y z
SIZE 4 4 4
TYPE F F F
COUNT 1 1 1
WIDTH 139
HEIGHT 1
VIEWPOINT 0 0 0 1
POINTS 139
DATA ascii
-23.171473 31.362427 -6.583535
-23.120359 31.373556 -6.532391
-23.150600 31.449039 -6.579280
-23.365156 31.654797 -6.408530
-23.124086 31.477877 -6.519223
-23.138214 31.544739 -6.572794
-23.120876 31.580732 -6.506065
-23.128414 31.648870 -6.563471
-23.359097 31.931078 -6.423563
-23.128222 31.766825 -6.550035
-23.128483 31.890270 -6.534689
-23.325548 32.299942 -6.641469
-23.319065 32.300400 -6.655470
-23.338425 32.099155 -6.586364
-23.073380 31.928030 -6.642014
-23.305212 32.205368 -6.567050
-23.033365 32.024323 -6.621434
-23.273472 32.319965 -6.546560
-22.987083 32.116093 -6.602466
-23.054430 31.572090 -6.610175
-23.035080 31.674494 -6.590425
-22.992111 31.754662 -6.574658
-23.388659 32.206093 -6.574561
-22.903069 31.586916 -6.542358
-23.364681 32.330734 -6.554496
-22.932110 31.818035 -6.563190
-23.001984 31.805996 -6.563557
-22.950356 31.882683 -6.543754
-22.672285 31.610733 -6.706984
-22.893778 31.954082 -6.524692
-22.672575 31.743841 -6.673935
-22.659357 31.866104 -6.643314
-23.073530 31.758057 -6.457733
-22.666834 31.352427 -6.571141
-23.108353 31.856403 -6.461454
-23.035027 31.851122 -6.434186
-22.662573 31.464685 -6.538051
-23.066208 31.947491 -6.441318
-23.146111 32.086357 -6.460746
-22.995195 31.943542 -6.409703
-23.031816 32.052982 -6.416120
-23.103559 32.188126 -6.441285
-22.972267 32.078415 -6.611847
-23.060610 32.295570 -6.420538
-22.929274 32.176956 -6.592045
-22.986486 32.350311 -6.615550
-23.141001 32.655132 -6.632876
-22.755569 32.095905 -6.610751
-22.735157 32.327789 -6.616245
-22.877508 31.632040 -6.545710
-23.040407 31.914957 -6.439843
-23.018835 31.900705 -6.424100
-23.098000 32.009541 -6.447841
-22.697229 31.548393 -6.561919
-22.995836 31.919336 -6.421231
-23.101786 32.073082 -6.450909
-23.139299 32.168289 -6.460169
-22.984516 31.952436 -6.409857
-22.991383 32.005608 -6.418615
-23.206764 32.307114 -6.456674
-23.055758 32.106754 -6.425224
-22.959574 31.973543 -6.397677
-22.642311 31.606405 -6.540612
-22.956635 32.016876 -6.394193
-23.063560 32.176853 -6.422721
-23.087004 32.257454 -6.433161
-22.951866 32.107841 -6.394169
-23.113201 32.350868 -6.436924
-23.000860 32.192520 -6.404760
-23.005009 32.261269 -6.399622
-23.023891 32.338840 -6.408037
-22.889296 31.806173 -6.371301
-22.275745 31.034815 -6.226711
-22.237692 31.095364 -6.243537
-22.367130 31.303308 -6.273647
-22.360569 31.319199 -6.279341
-22.301300 31.333282 -6.249215
-22.292171 31.344793 -6.256040
-22.237318 31.362764 -6.225372
-22.228184 31.374271 -6.232197
-22.216249 31.088825 -6.306155
-22.194981 31.105619 -6.338031
-22.193947 31.105745 -6.290776
-22.194572 31.116659 -6.286857
-22.107353 31.017878 -6.290286
-22.156981 31.116083 -6.278772
-22.218473 31.272493 -6.341181
-22.131214 31.127497 -6.310581
-22.123644 31.119076 -6.267067
-22.130114 31.140564 -6.262782
-22.153225 31.296083 -6.315963
-22.233042 31.437288 -6.330908
-22.185171 31.403694 -6.336644
-22.229223 31.474182 -6.332062
-22.220678 31.505754 -6.330722
-22.083212 31.312054 -6.293103
-21.987129 31.246965 -6.376104
-21.881350 31.151905 -6.441893
-21.929234 31.195980 -6.386562
-21.841969 31.107916 -6.431857
-21.817720 31.118050 -6.483500
-21.827534 31.180235 -6.493615
-21.816212 31.127563 -6.456491
-21.819845 31.114647 -6.434214
-22.148207 30.982023 -6.287155
-22.241196 31.149225 -6.286510
-22.186518 31.186441 -6.259604
-22.241924 31.115004 -6.282579
-22.161613 31.080744 -6.309937
-22.181450 31.142309 -6.257232
-22.100304 31.100832 -6.285948
-21.992199 31.260059 -6.387401
-22.188253 31.108521 -6.269514
-22.206440 31.207165 -6.330271
-22.210392 31.092030 -6.276227
-22.139683 31.226553 -6.302941
-21.813824 31.122702 -6.477740
-22.215788 31.667189 -6.301272
-22.029415 31.371305 -6.406451
-22.176207 31.366016 -6.319977
-21.989412 31.242702 -6.340386
-21.837597 31.172266 -6.457510
-22.346060 31.240454 -6.309912
-22.288191 31.275021 -6.283564
-22.333588 31.204910 -6.301176
-22.185537 31.267141 -6.335057
-22.097736 30.871597 -6.302405
-22.332952 31.174620 -6.308565
-22.214043 31.291174 -6.262550
-22.271574 31.232834 -6.274201
-22.126257 31.293247 -6.308663
-22.267681 31.198318 -6.282434
-22.205429 31.256430 -6.250138
-22.136213 30.978411 -6.319069
-22.281807 31.183542 -6.284290
-22.206295 31.223858 -6.255605
-21.937912 31.171618 -6.406348
-22.217752 31.204073 -6.256559
-21.819765 31.111618 -6.481567
