# .PCD v0.7 - Point Cloud Data file format
VERSION 0.7
FIELDS x y z
SIZE 4 4 4
TYPE F F F
COUNT 1 1 1
WIDTH 12
HEIGHT 1
VIEWPOINT 0 0 0 1
POINTS 12
DATA ascii
-22.143745 32.220329 -6.315161
-22.059908 32.232895 -6.280095
-22.107635 32.135342 -6.329412
-22.191013 32.782391 -6.316486
-22.196320 32.789974 -6.298784
-22.026567 32.149780 -6.297850
-22.146738 32.316574 -6.348488
-22.056360 32.322021 -6.314530
-22.141996 32.812588 -6.327435
-22.218685 32.775146 -6.295960
-22.082157 32.512409 -6.332300
-22.179663 32.770550 -6.276489
