# .PCD v0.7 - Point Cloud Data file format
VERSION 0.7
FIELDS x y z
SIZE 4 4 4
TYPE F F F
COUNT 1 1 1
WIDTH 41
HEIGHT 1
VIEWPOINT 0 0 0 1
POINTS 41
DATA ascii
-22.275745 31.034815 -6.226711
-22.237692 31.095364 -6.243537
-22.228184 31.374271 -6.232197
-22.193947 31.105745 -6.290776
-22.194572 31.116659 -6.286857
-22.107353 31.017878 -6.290286
-22.156981 31.116083 -6.278772
-22.131214 31.127497 -6.310581
-22.083212 31.312054 -6.293103
-21.929234 31.195980 -6.386562
-22.148207 30.982023 -6.287155
-22.186518 31.186441 -6.259604
-22.161613 31.080744 -6.309937
-22.181450 31.142309 -6.257232
-22.188253 31.108521 -6.269514
-22.210392 31.092030 -6.276227
-22.139683 31.226553 -6.302941
-21.989412 31.242702 -6.340386
-22.097736 30.871597 -6.302405
-22.214043 31.291174 -6.262550
-22.126257 31.293247 -6.308663
-22.205429 31.256430 -6.250138
-22.136213 30.978411 -6.319069
-22.206295 31.223858 -6.255605
-22.217752 31.204073 -6.256559
-22.155596 30.946783 -6.280335
-22.268585 31.163937 -6.256272
-22.265717 31.145117 -6.258997
-22.276588 31.139645 -6.257364
-22.231806 31.224771 -6.242920
-22.135998 31.060270 -6.283811
-22.115232 31.193542 -6.276360
-21.863432 31.049032 -6.398592
-22.165939 31.235025 -6.294858
-22.177065 31.103954 -6.297991
-22.244905 30.992123 -6.236331
-22.245033 30.993795 -6.234048
-22.245834 30.994419 -6.232415
-22.152514 30.995329 -6.296304
-22.139671 31.122387 -6.294666
-22.130325 31.250139 -6.295274
