# .PCD v0.7 - Point Cloud Data file format
VERSION 0.7
FIELDS x y z
SIZE 4 4 4
TYPE F F F
COUNT 1 1 1
WIDTH 16
HEIGHT 1
VIEWPOINT 0 0 0 1
POINTS 16
DATA ascii
-18.332043 34.073822 -4.706554
-18.360630 34.623455 -4.703591
-18.323841 34.095592 -4.746554
-18.289198 33.895054 -4.687402
-18.326431 33.797707 -4.744745
-18.335386 33.792034 -4.710540
-18.356884 34.514652 -4.568487
-18.249025 33.804668 -4.696424
-18.291187 33.663120 -4.688393
-18.346142 34.946335 -4.700363
-18.379248 34.595242 -4.679413
-18.376593 34.929882 -4.673771
-18.340748 34.114746 -4.716057
-18.306820 34.546333 -4.699286
-18.365744 34.473545 -4.558196
-18.274982 34.293896 -4.692961
