# .PCD v0.7 - Point Cloud Data file format
VERSION 0.7
FIELDS x y z
SIZE 4 4 4
TYPE F F F
COUNT 1 1 1
WIDTH 39
HEIGHT 1
VIEWPOINT 0 0 0 1
POINTS 39
DATA ascii
-11.016183 44.766888 -1.922310
-11.019207 44.817314 -1.927030
-11.005686 44.785446 -1.918873
-11.017121 44.811829 -1.924577
-11.040807 44.779949 -1.955052
-11.036446 44.837646 -1.962857
-11.037930 44.793926 -1.943372
-11.041869 44.828777 -1.954905
-11.034836 44.825535 -2.007676
-10.990370 44.727474 -1.918214
-10.981612 44.820137 -1.914341
-11.029043 44.748783 -1.926105
-11.024407 44.823307 -1.929172
-11.028603 44.803749 -1.930559
-11.029648 44.834904 -1.980662
-10.893343 44.910782 -1.952425
-10.905801 44.890606 -1.928040
-10.913989 44.812042 -1.917699
-10.932058 44.836143 -1.926528
-10.936244 44.840057 -1.925060
-10.915330 44.746891 -1.920889
-10.917746 44.754242 -1.927613
-10.930763 44.762600 -1.924360
-10.925301 44.750679 -1.925369
-10.945987 44.783566 -1.930345
-10.961891 44.802185 -1.936116
-10.962152 44.810356 -1.940929
-10.966495 44.730881 -1.932938
-10.978550 44.752831 -1.941366
-10.991899 44.772259 -1.948810
-10.992904 44.770859 -1.948637
-11.019200 45.136639 -1.999630
-10.978896 45.133415 -1.983385
-11.019167 45.106281 -1.998709
-11.006037 45.085197 -2.002733
-10.961274 45.103996 -1.978467
-10.988085 45.046745 -1.988425
-11.037078 45.048462 -2.034013
-11.016287 44.989262 -1.998237
