# .PCD v0.7 - Point Cloud Data file format
VERSION 0.7
FIELDS x y z
SIZE 4 4 4
TYPE F F F
COUNT 1 1 1
WIDTH 13
HEIGHT 1
VIEWPOINT 0 0 0 1
POINTS 13
DATA ascii
-5.893738 34.624687 -0.079390
-5.889751 34.597019 -0.021014
-5.834435 34.549702 -0.012097
-5.789172 34.587612 -0.012744
-5.753311 34.551861 -0.000591
-5.761618 34.626381 0.009932
-5.919261 34.632328 -0.010193
-5.903490 34.651581 -0.071406
-5.828463 34.630348 -0.002169
-5.767337 34.646084 0.013226
-5.765755 34.544846 0.007656
-5.881223 34.637093 -0.007666
-5.796551 34.636356 0.000194
