# .PCD v0.7 - Point Cloud Data file format
VERSION 0.7
FIELDS x y z
SIZE 4 4 4
TYPE F F F
COUNT 1 1 1
WIDTH 93
HEIGHT 1
VIEWPOINT 0 0 0 1
POINTS 93
DATA ascii
-15.235667 44.278580 -3.471886
-15.248169 44.290199 -3.493348
-15.250478 44.300785 -3.487997
-15.369530 44.216652 -3.485129
-15.252533 44.463440 -3.435046
-15.251063 44.450508 -3.466604
-15.258943 44.513000 -3.462631
-15.246910 44.546543 -3.487036
-15.292968 44.486588 -3.500133
-15.251149 44.597408 -3.511225
-15.278175 44.713337 -3.445848
-15.280401 44.791721 -3.460443
-15.276464 44.786255 -3.488509
-15.277755 44.866592 -3.495343
-15.276585 44.854668 -3.528277
-15.186002 45.070950 -3.471733
-15.278146 44.935715 -3.527278
-15.274888 45.055511 -3.471320
-15.302123 45.091808 -3.491118
-15.301579 45.149784 -3.519091
-15.317737 45.195316 -3.541011
-15.266602 44.577553 -3.447323
-15.261085 44.660343 -3.490145
-15.257524 44.743290 -3.455537
-15.281385 44.715626 -3.522898
-15.285296 44.785892 -3.485090
-15.283003 44.856750 -3.523626
-15.245461 44.986973 -3.466051
-15.298630 45.005081 -3.481961
-15.303672 45.064156 -3.513037
-15.307674 45.122345 -3.542088
-15.401888 44.495403 -2.892685
-15.416726 44.458958 -2.867272
-15.375784 44.534313 -2.947678
-15.135361 45.205040 -3.455855
-15.132856 45.250519 -3.479043
-15.139977 45.134216 -3.450810
-15.128679 45.105698 -3.450569
-15.100678 44.986393 -3.433527
-15.139352 45.165054 -3.467207
-15.142321 45.165543 -3.465799
-15.125604 45.195415 -3.501925
-15.074027 44.544781 -3.328373
-15.139011 45.241211 -3.522359
-15.106942 44.702076 -3.360295
-15.155499 45.236111 -3.506983
-15.098510 44.966297 -3.476293
-15.092918 44.782631 -3.419541
-15.137331 44.724316 -3.359329
-15.141297 45.156479 -3.511902
-15.143719 45.179573 -3.521387
-15.106538 45.027332 -3.504197
-15.113163 44.602524 -3.352248
-15.145706 45.131279 -3.505315
-15.153990 45.184902 -3.519219
-15.153726 45.174759 -3.516575
-15.185045 45.111919 -3.475465
-15.094877 44.915558 -3.494873
-15.208814 45.133293 -3.476601
-15.126199 44.500862 -3.347098
-15.157021 44.641003 -3.364478
-15.213946 45.146648 -3.477795
-15.157248 44.878990 -3.456965
-15.172988 44.693459 -3.384800
-15.120651 44.799259 -3.472382
-15.210480 45.057907 -3.472329
-15.130082 44.821041 -3.474857
-15.179485 44.895454 -3.453236
-15.216344 45.067112 -3.475015
-15.164185 44.551598 -3.365436
-15.126731 44.822849 -3.486823
-15.215011 45.037876 -3.472008
-15.221473 45.080551 -3.480448
-15.220706 45.067478 -3.479270
-15.130858 44.808990 -3.487803
-15.229238 45.071156 -3.481362
-15.173938 44.781677 -3.446097
-15.127847 44.769981 -3.489207
-15.246835 45.098747 -3.488008
-15.248300 45.111744 -3.491311
-15.198639 44.607067 -3.387908
-15.179399 44.458839 -3.367905
-15.205381 44.823318 -3.461032
-15.187621 44.748348 -3.467264
-15.220345 44.852337 -3.466226
-15.188092 44.712589 -3.457317
-15.112800 43.812313 -3.281147
-15.191114 44.726448 -3.466266
-15.200110 44.694393 -3.459824
-15.112000 43.859825 -3.319856
-15.217477 44.750443 -3.468070
-15.200859 44.643543 -3.458634
-15.096187 44.089024 -3.447770
