# .PCD v0.7 - Point Cloud Data file format
VERSION 0.7
FIELDS x y z
SIZE 4 4 4
TYPE F F F
COUNT 1 1 1
WIDTH 715
HEIGHT 1
VIEWPOINT 0 0 0 1
POINTS 715
DATA ascii
2.009785 -1.465852 2.493493
1.991674 -1.477854 2.378510
1.969738 -1.463938 2.459542
1.954675 -1.467952 2.400558
1.921719 -1.471045 2.432596
1.935544 -1.488944 2.252573
1.905523 -1.484015 2.245610
1.889686 -1.472113 2.404634
1.900605 -1.482054 2.317617
1.878630 -1.477119 2.348645
1.839754 -1.474256 2.458693
1.848691 -1.483208 2.388679
1.862516 -1.500107 2.210656
1.819731 -1.475297 2.438717
1.817653 -1.483273 2.358716
1.833509 -1.499177 2.207691
1.828584 -1.495216 2.277698
1.802848 -1.478373 2.529736
1.810607 -1.490271 2.306722
1.774727 -1.487399 2.413766
1.774652 -1.492372 2.341764
1.753795 -1.476479 2.491796
1.783463 -1.504283 2.161749
1.750697 -1.485450 2.393796
1.746620 -1.493430 2.314797
1.761485 -1.510340 2.168773
1.756558 -1.506377 2.237780
1.730792 -1.484529 2.474820
1.739563 -1.497427 2.259804
1.705675 -1.493549 2.361846
1.684748 -1.483630 2.442875
1.705624 -1.502526 2.301843
1.705402 -1.505456 2.112842
1.685675 -1.497595 2.354869
1.680592 -1.503578 2.274872
1.671775 -1.497660 2.437885
1.676495 -1.507555 2.186875
1.665501 -1.499590 2.207892
1.638629 -1.500695 2.312924
1.628746 -1.499756 2.411936
1.629558 -1.502694 2.250934
1.618632 -1.503743 2.310946
1.600705 -1.497815 2.383970
1.936759 -1.480275 2.316251
1.863718 -1.486449 2.266328
1.798699 -1.497605 2.225394
1.755966 -1.477806 2.517446
1.729661 -1.502771 2.180466
1.690935 -1.488959 2.465512
1.628901 -1.498105 2.415575
2.009600 -1.461721 2.450400
1.966658 -1.463838 2.488460
2.053654 -1.460628 2.491338
2.024629 -1.466694 2.465377
1.923683 -1.466951 2.504520
1.936404 -1.474859 2.295499
1.932537 -1.471898 2.394505
1.959373 -1.469800 2.282468
1.895600 -1.473001 2.437557
1.968585 -1.468825 2.434455
1.935548 -1.472898 2.404500
1.840575 -1.468137 2.431636
1.857472 -1.480071 2.340608
1.861352 -1.484033 2.248601
1.824537 -1.480165 2.386655
1.883318 -1.478976 2.233572
1.887521 -1.477012 2.381566
1.781552 -1.486275 2.390713
1.858500 -1.484078 2.357605
1.808656 -1.471241 2.490680
1.797327 -1.498184 2.212687
1.783405 -1.487241 2.286710
1.755471 -1.485324 2.336750
1.793650 -1.471277 2.487700
1.818294 -1.494129 2.196658
1.815481 -1.489181 2.338664
1.715497 -1.496426 2.339803
1.779432 -1.489262 2.306714
1.737598 -1.479405 2.441777
1.696440 -1.497462 2.299829
1.726270 -1.504349 2.167784
1.720368 -1.499388 2.245794
1.727608 -1.482431 2.444789
1.744234 -1.500301 2.149760
1.742424 -1.496351 2.292764
1.651442 -1.505573 2.291889
1.710399 -1.501424 2.268807
1.673556 -1.489554 2.400863
1.630374 -1.500614 2.252920
1.645277 -1.498558 2.188900
1.663570 -1.493581 2.404876
1.671370 -1.502517 2.249861
1.607498 -1.495707 2.354953
1.593500 -1.496743 2.355972
2.053540 -1.451304 2.457736
1.974450 -1.462455 2.395880
1.995630 -1.456330 2.510844
1.899371 -1.473596 2.340017
1.979291 -1.467514 2.296880
1.917546 -1.464475 2.454983
1.821276 -1.478745 2.279154
1.901212 -1.475658 2.243020
2.054525 -1.456280 2.449753
1.956307 -1.466526 2.308923
2.024622 -1.457275 2.507805
1.843470 -1.472611 2.403116
1.744642 -1.470669 2.509278
1.756216 -1.491864 2.233275
1.832154 -1.487782 2.199148
1.967434 -1.463441 2.389906
1.878238 -1.476666 2.260065
1.935527 -1.463439 2.446961
1.774407 -1.482735 2.358242
1.683578 -1.479782 2.464390
1.819525 -1.463601 2.446154
1.681121 -1.494008 2.175406
1.815699 -1.465525 2.550162
1.760082 -1.495914 2.150277
1.892374 -1.475573 2.345044
1.703654 -1.471706 2.518354
1.798158 -1.481811 2.209205
1.858460 -1.473576 2.399100
1.627533 -1.492882 2.427496
1.708350 -1.492853 2.316363
1.754475 -1.477716 2.405277
1.738604 -1.468672 2.491296
1.816306 -1.483709 2.298180
1.642596 -1.483818 2.474468
1.733118 -1.495921 2.174328
1.784396 -1.483708 2.353235
1.642285 -1.498972 2.273481
1.688414 -1.486835 2.362397
1.674554 -1.480784 2.452415
1.748260 -1.496826 2.260308
1.575511 -1.486946 2.421585
1.708321 -1.488845 2.305369
1.615326 -1.487972 2.309522
1.608486 -1.487905 2.406534
1.673184 -1.499961 2.213438
1.640271 -1.498962 2.267494
1.943936 -1.479550 2.203943
1.927985 -1.474565 2.240966
1.869862 -1.490656 2.153062
1.857921 -1.483665 2.198079
1.799886 -1.500744 2.167175
2.020260 -1.454366 2.458830
1.993283 -1.449399 2.479872
1.714765 -1.491869 2.104308
1.836361 -1.467619 2.515117
1.804326 -1.468665 2.494168
1.653348 -1.478881 2.500403
1.936169 -1.461488 2.400965
1.917207 -1.460509 2.427994
1.766286 -1.476719 2.465230
2.051355 -1.452292 2.534788
1.734244 -1.476765 2.441281
1.591271 -1.487969 2.449504
1.860098 -1.472596 2.353088
1.838114 -1.465623 2.371121
1.698212 -1.483816 2.418340
1.965265 -1.460416 2.476925
1.672180 -1.487853 2.397382
1.966946 -1.477451 2.255926
1.782353 -1.466668 2.530210
1.787027 -1.481700 2.306205
1.771054 -1.477718 2.328229
1.636152 -1.493902 2.377440
1.893952 -1.473546 2.268040
1.880172 -1.466538 2.418061
1.605103 -1.493947 2.348490
1.711272 -1.472769 2.478323
1.883873 -1.486567 2.207059
1.715964 -1.490798 2.263319
1.705999 -1.488807 2.288335
1.820892 -1.484647 2.226158
1.812127 -1.481631 2.381171
1.649222 -1.485853 2.440424
1.804803 -1.494677 2.161186
1.639876 -1.491905 2.212440
1.635923 -1.493904 2.241447
1.754848 -1.498736 2.191266
1.735045 -1.486739 2.330295
1.581142 -1.488948 2.392533
1.717706 -1.493800 2.106324
1.674755 -1.496849 2.139393
1.667990 -1.496830 2.292403
2.031621 -1.454129 2.491212
1.949523 -1.458268 2.430344
1.880455 -1.468382 2.383459
1.989609 -1.458167 2.494286
1.824605 -1.467399 2.484546
1.814395 -1.479489 2.340570
1.931260 -1.476369 2.258388
1.911519 -1.466299 2.435414
1.758531 -1.479510 2.432658
1.749331 -1.488595 2.296678
1.858197 -1.487486 2.214510
1.834430 -1.473429 2.377539
1.695464 -1.491615 2.384765
1.944337 -1.467303 2.325367
1.686269 -1.496697 2.255782
1.792148 -1.500589 2.177622
1.767364 -1.484539 2.331652
1.625369 -1.494735 2.326878
1.870533 -1.465326 2.458482
2.021580 -1.458096 2.496245
1.868263 -1.476427 2.275492
1.720670 -1.475487 2.539721
1.715063 -1.501714 2.127744
1.703303 -1.495642 2.288759
1.962355 -1.471254 2.344345
1.797464 -1.475444 2.411603
1.930475 -1.461248 2.432390
1.792184 -1.482551 2.225616
1.776590 -1.469424 2.499633
1.653591 -1.481598 2.489830
1.874260 -1.475398 2.286487
1.728400 -1.485555 2.367719
1.728133 -1.495651 2.187725
1.703504 -1.474546 2.445752
1.590522 -1.488701 2.444935
1.857415 -1.474365 2.388513
1.843064 -1.498513 2.143550
1.658327 -1.491668 2.321833
1.797196 -1.485519 2.242615
1.644458 -1.487638 2.410853
1.779335 -1.480491 2.337640
1.727143 -1.497627 2.204733
1.709274 -1.489601 2.296756
1.642217 -1.498709 2.257865
2.079792 -1.456355 2.497729
2.048745 -1.453443 2.460763
1.987732 -1.462569 2.434845
1.964697 -1.461637 2.404871
1.956571 -1.473776 2.272893
1.941494 -1.478876 2.195916
1.904686 -1.470760 2.380952
1.886660 -1.471814 2.355975
1.880542 -1.484945 2.228996
1.841842 -1.468727 2.523025
1.819777 -1.466818 2.468049
1.824645 -1.478940 2.331056
1.811627 -1.481982 2.310075
1.798489 -1.489133 2.176098
1.763784 -1.472913 2.465123
1.750742 -1.476977 2.421143
1.747604 -1.486114 2.283156
1.745608 -1.494125 2.274167
1.725452 -1.496296 2.132194
1.697758 -1.484061 2.424215
1.686717 -1.488120 2.381233
1.683595 -1.501248 2.252251
1.670562 -1.498294 2.227264
1.627712 -1.489221 2.376307
1.616667 -1.492283 2.331325
2.061426 -1.449493 2.510550
1.980365 -1.458693 2.445661
2.069435 -1.450453 2.519555
1.904312 -1.468879 2.385768
1.989383 -1.459643 2.462664
1.832265 -1.479052 2.331870
1.805456 -1.469911 2.512893
1.910333 -1.467829 2.408772
1.905195 -1.470966 2.283782
1.760214 -1.487227 2.276970
1.738409 -1.477071 2.462986
1.838294 -1.477995 2.361874
1.832151 -1.480137 2.233884
1.697181 -1.499375 2.232064
1.679379 -1.488209 2.422074
1.767251 -1.486161 2.313973
1.764116 -1.491295 2.188983
1.619343 -1.496349 2.380160
1.683436 -1.460092 2.517048
1.701217 -1.495310 2.273067
1.688052 -1.492477 2.134081
1.635441 -1.481193 2.491135
1.572400 -1.489342 2.445224
2.024827 -1.455080 2.428971
2.020873 -1.455047 2.493974
1.978888 -1.455183 2.516006
1.967833 -1.472340 2.355027
1.971753 -1.475417 2.228027
1.950842 -1.469381 2.383038
1.936859 -1.463392 2.438044
1.941752 -1.466494 2.273043
1.962777 -1.484458 2.217041
1.897863 -1.461520 2.456072
1.886822 -1.480671 2.303095
1.896776 -1.490717 2.189096
1.868821 -1.475718 2.328105
1.883748 -1.487782 2.165103
1.875775 -1.482765 2.228105
1.858857 -1.473710 2.389111
1.841918 -1.471702 2.485123
1.829877 -1.474798 2.413134
1.811932 -1.465774 2.536140
1.808802 -1.485989 2.254159
1.819779 -1.501027 2.146162
1.816754 -1.498053 2.126162
1.789799 -1.481042 2.276169
1.804776 -1.494059 2.178168
1.781941 -1.470890 2.526168
1.787868 -1.485998 2.347175
1.770904 -1.478996 2.435183
1.754853 -1.480109 2.359195
1.739918 -1.473072 2.485201
1.743825 -1.500249 2.220219
1.708907 -1.474198 2.467226
1.726826 -1.496295 2.242229
1.725734 -1.495389 2.118229
1.714862 -1.494294 2.303236
1.703897 -1.487273 2.388240
1.689861 -1.491373 2.319254
1.675925 -1.484334 2.444259
1.664781 -1.499574 2.167279
1.652936 -1.490426 2.431281
1.649782 -1.495612 2.190288
1.643850 -1.500583 2.260295
1.639893 -1.495535 2.346295
1.618826 -1.492667 2.268309
1.609915 -1.491605 2.399315
1.583897 -1.491716 2.376335
2.017554 -1.460363 2.509958
2.073524 -1.452252 2.483926
1.964526 -1.477921 2.268008
2.002551 -1.458425 2.496963
1.937575 -1.471669 2.459008
1.937535 -1.478977 2.279020
1.997554 -1.466546 2.433979
1.889549 -1.489202 2.224056
1.923569 -1.468731 2.444011
1.855581 -1.477989 2.403050
1.914555 -1.471876 2.374020
1.860559 -1.490263 2.235069
1.818574 -1.500464 2.185103
1.965564 -1.475773 2.351012
1.847584 -1.478027 2.393056
1.782601 -1.488265 2.359095
1.844583 -1.485143 2.330069
1.786583 -1.501535 2.195117
1.876598 -1.470783 2.488035
1.745587 -1.507738 2.142143
1.891573 -1.483064 2.300053
1.769588 -1.483332 2.340094
1.715629 -1.500513 2.321142
1.769587 -1.490438 2.278107
1.749625 -1.476100 2.507089
1.806613 -1.480065 2.436078
1.702570 -1.500860 2.140148
1.816571 -1.486359 2.248087
1.757636 -1.478073 2.509093
1.791638 -1.473916 2.546075
1.711635 -1.501539 2.312149
1.700599 -1.497705 2.233146
1.644639 -1.506782 2.278181
1.686652 -1.488341 2.467135
1.736625 -1.488347 2.383119
1.759608 -1.501570 2.216135
1.692650 -1.486331 2.463132
1.721642 -1.480211 2.486112
1.634621 -1.500847 2.256177
1.620664 -1.495600 2.422173
1.674648 -1.499590 2.341162
1.686598 -1.501859 2.165164
1.631674 -1.497566 2.423175
1.665680 -1.496433 2.446162
1.596676 -1.499724 2.387195
1.622105 -1.505483 2.228057
1.628362 -1.495015 2.377140
1.626434 -1.494823 2.456145
1.714419 -1.484506 2.475058
1.732276 -1.501148 2.202086
1.602307 -1.503469 2.232184
1.561419 -1.498156 2.404202
1.656437 -1.495788 2.435130
1.655240 -1.499541 2.141139
1.591416 -1.497118 2.384181
2.047727 -1.466514 2.483861
2.021683 -1.465758 2.420878
1.993720 -1.467747 2.458904
1.954704 -1.469972 2.418939
1.940688 -1.475144 2.368963
1.906704 -1.472173 2.398980
1.877720 -1.481331 2.373025
1.866704 -1.486492 2.324047
1.833717 -1.482517 2.354061
1.801733 -1.491687 2.327108
1.795723 -1.497820 2.283129
1.762733 -1.492848 2.312140
1.732754 -1.503004 2.288189
1.726737 -1.507137 2.244204
1.696759 -1.505148 2.276221
1.657744 -1.506364 2.240253
1.645699 -1.503538 2.187255
2.039362 -1.462909 2.529472
1.917244 -1.481056 2.273610
1.876354 -1.468625 2.478606
1.957356 -1.469367 2.469551
1.957249 -1.479932 2.268580
1.837402 -1.471651 2.518644
1.847282 -1.495414 2.234703
1.820411 -1.474734 2.510665
1.805372 -1.479012 2.430688
2.032325 -1.466226 2.426489
1.884372 -1.479763 2.420634
1.880256 -1.488351 2.216660
1.764406 -1.479056 2.466719
1.771282 -1.500815 2.187774
1.747410 -1.481141 2.457737
1.737386 -1.488382 2.384765
1.953329 -1.475677 2.365574
1.814391 -1.490141 2.374716
1.811275 -1.498722 2.171741
1.701436 -1.491389 2.427801
1.687456 -1.496448 2.424825
1.688248 -1.498270 2.130829
1.877331 -1.484112 2.306654
1.674414 -1.499713 2.346844
1.746402 -1.498509 2.329790
1.734255 -1.500150 2.116802
1.616443 -1.498843 2.373885
1.802328 -1.490539 2.249728
1.603396 -1.501112 2.294901
1.681421 -1.507855 2.288864
2.039270 -1.467862 2.421576
1.975324 -1.468967 2.473638
1.952244 -1.475196 2.364669
1.889291 -1.474301 2.414727
1.873234 -1.485495 2.316759
2.031323 -1.462830 2.478583
1.819295 -1.487565 2.373812
1.905176 -1.481503 2.259726
1.803244 -1.499754 2.278846
1.874367 -1.472241 2.494741
1.984260 -1.477140 2.361649
1.948289 -1.469161 2.415670
1.746282 -1.495843 2.328894
1.837181 -1.494759 2.219810
1.727229 -1.507040 2.233928
1.794327 -1.475560 2.434821
1.904232 -1.483451 2.306733
1.875277 -1.480448 2.363755
1.681286 -1.507085 2.292972
1.936383 -1.472082 2.501689
1.766169 -1.503031 2.174889
1.727376 -1.478695 2.473889
1.647185 -1.506347 2.182002
1.729333 -1.488806 2.395902
1.833229 -1.494720 2.263817
1.806270 -1.491719 2.315837
1.867367 -1.475327 2.469758
1.603238 -1.505389 2.239043
1.854322 -1.470415 2.434763
1.684111 -1.499352 2.116960
1.669392 -1.493913 2.440966
1.764217 -1.502984 2.219894
1.666338 -1.501045 2.358980
1.739255 -1.499983 2.268913
1.797347 -1.484612 2.413838
1.793327 -1.483652 2.394840
1.603374 -1.500171 2.396038
1.692192 -1.507260 2.173968
1.592292 -1.500338 2.305048
1.671235 -1.506249 2.221986
1.731323 -1.493892 2.353914
1.732337 -1.495875 2.363916
1.670316 -1.503130 2.312985
1.669328 -1.506127 2.316991
1.604283 -1.505392 2.265051
2.039508 -1.487171 2.431769
1.954891 -1.495405 2.377910
1.876320 -1.504142 2.330067
1.905817 -1.488126 2.483637
1.800805 -1.513633 2.285246
1.829128 -1.494940 2.429740
1.731277 -1.522627 2.246414
1.761762 -1.506908 2.387992
1.915746 -1.508095 2.220903
1.652151 -1.521516 2.194294
1.693176 -1.515058 2.342136
1.843271 -1.518529 2.172110
1.622372 -1.519361 2.295170
1.664333 -1.511799 2.444986
1.594469 -1.515284 2.389996
2.030664 -1.490189 2.515790
1.955040 -1.498954 2.458371
1.906469 -1.503330 2.295740
1.873018 -1.498974 2.393047
1.832831 -1.510165 2.247341
1.804444 -1.507624 2.344609
1.793970 -1.502316 2.439791
1.765254 -1.517854 2.204902
1.813536 -1.552494 2.327465
1.740993 -1.518156 2.303128
1.731524 -1.513766 2.392300
1.697613 -1.523590 2.163480
1.748868 -1.558132 2.285016
1.671126 -1.519928 2.251740
1.666810 -1.519341 2.340857
2.038345 -1.408168 2.473025
1.947648 -1.479781 2.486911
1.962004 -1.419837 2.422511
2.033664 -1.476880 2.456547
1.873132 -1.489469 2.429353
1.797457 -1.427013 2.472229
1.886425 -1.428477 2.370935
1.948620 -1.480498 2.391887
1.736077 -1.437458 2.427658
1.803687 -1.499681 2.376800
1.816004 -1.438590 2.326384
1.877266 -1.491770 2.343363
1.918710 -1.435712 2.239943
1.973773 -1.483388 2.299831
1.673477 -1.444973 2.384032
1.732021 -1.507081 2.323200
1.745265 -1.444795 2.278754
1.803690 -1.500228 2.293792
1.847616 -1.449753 2.201488
1.608484 -1.447775 2.335315
1.898282 -1.492928 2.253288
1.664343 -1.514150 2.271586
1.917058 -1.412154 2.392451
1.785276 -1.414227 2.475982
1.676452 -1.449796 2.234099
1.738335 -1.510914 2.252252
1.763283 -1.449161 2.144756
1.829018 -1.504884 2.212786
1.717851 -1.424127 2.431431
1.840660 -1.422740 2.346941
1.663129 -1.511630 2.196527
1.756293 -1.511184 2.168177
1.653274 -1.417049 2.421505
1.654589 -1.435571 2.393910
1.770494 -1.435718 2.308472
1.678946 -1.509978 2.116423
1.693468 -1.438444 2.258804
1.971082 -1.461541 2.247860
1.987410 -1.486150 2.384588
1.902725 -1.474697 2.208641
1.909566 -1.495628 2.328302
1.831838 -1.482147 2.166261
1.832638 -1.503996 2.272979
1.909337 -1.497837 2.255377
1.758540 -1.510024 2.220571
1.994471 -1.441054 2.462289
1.831615 -1.455384 2.525662
1.834526 -1.506816 2.207066
1.689805 -1.519424 2.174241
1.759699 -1.463150 2.476299
1.914756 -1.451527 2.412051
1.761537 -1.513603 2.159678
1.696249 -1.474872 2.438014
1.837953 -1.460687 2.363759
1.791968 -1.445240 2.545645
1.680567 -1.510319 2.103028
1.629248 -1.481094 2.392580
1.921502 -1.439904 2.479740
1.768534 -1.472894 2.326523
1.924953 -1.465086 2.264385
1.718871 -1.451168 2.494235
1.886101 -1.446653 2.492161
1.563075 -1.485210 2.348079
1.852249 -1.454134 2.441564
1.695559 -1.479632 2.281140
1.844191 -1.474472 2.220126
1.660783 -1.466264 2.462026
1.815856 -1.460973 2.453994
1.645119 -1.466301 2.507143
1.780641 -1.464650 2.400289
1.620051 -1.480663 2.232599
1.765347 -1.482632 2.177821
1.591601 -1.470765 2.413554
1.743161 -1.470613 2.411699
1.708766 -1.472212 2.357927
1.681592 -1.481457 2.126260
1.672382 -1.479028 2.371358
1.640979 -1.480335 2.318561
1.597965 -1.480947 2.323841
2.069992 -1.471147 2.459251
2.050952 -1.467328 2.479437
2.024035 -1.476413 2.494103
1.980610 -1.478770 2.404777
1.975832 -1.476527 2.429798
1.931792 -1.476493 2.431464
1.922073 -1.492269 2.250966
1.906055 -1.488089 2.386161
1.894160 -1.485046 2.353239
1.859212 -1.489179 2.392912
1.850265 -1.502910 2.211345
1.831151 -1.483428 2.478224
1.830417 -1.483037 2.495233
1.831440 -1.492263 2.335397
1.813025 -1.479687 2.492404
1.819497 -1.496921 2.314703
1.783892 -1.495261 2.348224
1.776945 -1.508759 2.168623
1.767728 -1.503090 2.298673
1.755684 -1.488629 2.429517
1.761964 -1.496271 2.459653
1.746179 -1.489930 2.450713
1.746758 -1.507568 2.278118
1.717255 -1.506275 2.314562
1.697811 -1.507282 2.119792
1.703702 -1.510995 2.259882
1.688995 -1.499755 2.391861
1.694221 -1.506437 2.423988
1.684818 -1.503444 2.418047
1.670286 -1.511702 2.235416
1.646979 -1.511770 2.274809
1.628172 -1.506345 2.204914
1.620794 -1.506090 2.351104
1.621736 -1.510208 2.381224
1.612929 -1.504342 2.368188
2.023059 -1.415244 2.442715
1.951526 -1.430175 2.404577
1.874773 -1.437966 2.359332
1.803827 -1.439036 2.461425
1.875493 -1.417088 2.455886
1.886807 -1.443961 2.229173
1.798974 -1.444576 2.316003
1.737277 -1.446480 2.419732
1.780799 -1.423770 2.508250
1.914172 -1.428368 2.366016
1.819881 -1.416493 2.545575
1.806658 -1.429748 2.416534
1.811624 -1.453303 2.191953
1.875527 -1.428831 2.425914
1.732048 -1.454870 2.280472
1.673949 -1.454444 2.380932
1.719433 -1.438408 2.472676
1.833051 -1.433729 2.319847
1.756849 -1.432151 2.515129
1.831017 -1.423214 2.506836
1.741003 -1.441860 2.382031
1.799424 -1.439321 2.387786
1.603050 -1.453646 2.332051
1.657550 -1.456402 2.234860
1.652806 -1.445945 2.428997
1.766695 -1.446795 2.289422
1.693538 -1.445881 2.483611
1.762382 -1.435682 2.472479
1.728731 -1.451003 2.354492
1.692806 -1.451062 2.249911
1.616439 -1.444931 2.431992
1.693344 -1.445234 2.437009
1.652779 -1.455591 2.313071
1.623738 -1.450934 2.399365
2.000763 -1.422748 2.442657
2.003262 -1.432183 2.474088
1.921450 -1.432009 2.397806
1.949321 -1.467554 2.225402
1.923239 -1.442467 2.431342
1.918286 -1.459097 2.293054
1.900852 -1.425491 2.478996
1.871985 -1.452189 2.279482
1.846456 -1.441498 2.356748
1.844805 -1.433533 2.527983
1.873906 -1.474043 2.185212
1.846344 -1.452181 2.391420
1.838593 -1.469084 2.256328
1.833675 -1.438788 2.440677
1.833342 -1.436766 2.513834
1.799360 -1.461051 2.245289
1.809428 -1.448518 2.508875
1.779415 -1.453559 2.323392
1.799237 -1.478366 2.145899
1.781909 -1.449750 2.501614
1.775020 -1.462870 2.357259
1.763282 -1.479248 2.224395
1.783356 -1.452594 2.500692
1.760332 -1.447156 2.396492
1.764265 -1.447639 2.467513
1.722452 -1.463667 2.206053
1.741767 -1.461540 2.478640
1.703056 -1.455296 2.279070
1.727578 -1.482220 2.107409
1.716127 -1.461455 2.472208
1.709209 -1.474585 2.327857
1.720337 -1.464038 2.468094
1.695924 -1.457959 2.359939
1.672080 -1.472284 2.173530
1.697539 -1.459018 2.425116
1.652247 -1.468106 2.172547
1.663538 -1.463490 2.435475
1.637388 -1.463125 2.245469
1.643351 -1.464484 2.432783
1.623955 -1.467869 2.274659
1.649487 -1.467930 2.425585
1.623534 -1.460223 2.313432
1.623812 -1.461722 2.372701
1.599755 -1.473775 2.408934
1.584354 -1.473786 2.388871
1.772797 -1.516104 2.495188
1.703501 -1.529807 2.477221
1.620156 -1.529898 2.448014
1.777474 -1.517082 2.489488
1.841401 -1.473422 2.169085
1.914478 -1.458721 2.245628
1.704340 -1.528109 2.473812
1.759045 -1.478811 2.152881
1.829770 -1.462462 2.225180
1.786097 -1.509786 2.482798
1.625521 -1.528471 2.450547
1.678622 -1.481086 2.137091
1.754897 -1.472013 2.210325
1.829854 -1.502349 2.477762
1.712364 -1.520608 2.463059
1.678345 -1.476136 2.192625
1.757722 -1.518951 2.458915
1.635526 -1.527846 2.439849
1.618318 -1.492145 2.186284
1.670089 -1.519104 2.426916
1.558833 -1.530733 2.415916
1.603473 -1.535091 2.410781
