# .PCD v0.7 - Point Cloud Data file format
VERSION 0.7
FIELDS x y z
SIZE 4 4 4
TYPE F F F
COUNT 1 1 1
WIDTH 20
HEIGHT 1
VIEWPOINT 0 0 0 1
POINTS 20
DATA ascii
-8.203625 35.104458 -0.812100
-8.184248 34.999573 -0.840979
-8.211565 35.051796 -0.831755
-8.190319 34.967339 -0.848846
-8.227204 34.848614 -0.804353
-8.155319 34.821487 -0.758306
-8.303995 34.613140 -0.848653
-8.156037 34.711643 -0.797463
-8.247571 35.242912 -0.788999
-8.259205 35.193539 -0.804191
-8.258671 35.081612 -0.890634
-8.256197 35.070766 -0.875658
-8.236740 34.991535 -0.910746
-8.240964 34.784634 -0.851203
-8.237502 34.805466 -0.799202
-8.237353 34.711323 -0.855748
-8.220357 34.728352 -0.865716
-8.215920 34.662880 -0.867880
-8.207534 34.661644 -0.892740
-8.201132 34.604237 -0.889415
