# .PCD v0.7 - Point Cloud Data file format
VERSION 0.7
FIELDS x y z
SIZE 4 4 4
TYPE F F F
COUNT 1 1 1
WIDTH 33
HEIGHT 1
VIEWPOINT 0 0 0 1
POINTS 33
DATA ascii
-0.413707 18.115170 2.350873
-0.326318 18.061148 2.380769
-0.240712 18.010420 2.410840
-0.348275 17.919064 2.377346
-0.369018 18.011517 2.384616
-0.362254 18.041035 2.386442
-0.181597 18.035297 2.460509
-0.353327 18.131361 2.374233
-0.293274 18.098890 2.406060
-0.231466 18.035843 2.423734
-0.111888 18.146065 2.472552
-0.051629 18.094366 2.496707
-0.386760 18.001961 2.331820
-0.321474 17.918682 2.339544
-0.418818 17.994362 2.340369
-0.354785 17.913540 2.347266
-0.258412 18.075182 2.390693
-0.388819 18.013813 2.358323
-0.198416 18.021135 2.411961
-0.329350 17.943815 2.367973
-0.141925 17.935425 2.418287
-0.337906 18.112455 2.389494
-0.513476 18.081926 2.313732
-0.517217 18.076862 2.317436
-0.407445 17.939384 2.356645
-0.408928 17.999157 2.368889
-0.409847 17.979166 2.367181
-0.358130 17.956308 2.379425
-0.360593 17.939558 2.380383
-0.187172 18.035881 2.449303
-0.184796 18.099421 2.417686
-0.322474 18.129044 2.387438
-0.276198 18.102516 2.406161
