# .PCD v0.7 - Point Cloud Data file format
VERSION 0.7
FIELDS x y z
SIZE 4 4 4
TYPE F F F
COUNT 1 1 1
WIDTH 44
HEIGHT 1
VIEWPOINT 0 0 0 1
POINTS 44
DATA ascii
-2.067129 42.346157 1.381405
-2.091611 42.241665 1.382445
-2.047799 42.243774 1.393048
-2.074923 42.110977 1.375456
-2.029717 42.144478 1.406081
-2.057474 41.990276 1.372173
-2.015370 42.039471 1.412594
-1.888621 42.060627 1.546697
-2.028661 41.905663 1.391838
-1.999802 41.945072 1.423995
-1.984690 41.864594 1.440008
-1.986064 41.849430 1.435082
-1.969683 41.766960 1.451671
-1.930240 41.845928 1.506900
-1.969441 41.652504 1.444149
-2.135633 42.478397 1.298238
-2.132799 42.384377 1.302388
-2.135312 42.279938 1.295808
-2.132859 42.194035 1.302010
-1.944017 42.276485 1.474428
-2.130123 42.109451 1.306446
-1.954728 42.169010 1.468296
-2.129502 42.028183 1.313025
-1.962810 42.071598 1.468887
-2.127819 41.949684 1.320139
-1.980695 41.962719 1.453969
-2.119915 41.886356 1.339966
-2.037305 41.799294 1.377884
-2.123165 41.807240 1.343112
-2.063342 41.689274 1.350874
-2.120779 41.740150 1.357668
-2.197367 41.761547 1.316452
-2.089180 41.586090 1.325609
-2.181387 42.421886 1.309410
-2.217203 42.281136 1.260182
-2.230412 42.185272 1.249335
-2.206005 41.822430 1.385160
-2.199597 41.992123 1.242563
-2.212730 41.911083 1.243022
-2.202606 41.864265 1.283355
-2.173861 41.832550 1.268747
-2.224308 41.719383 1.296400
-2.204778 41.736687 1.247699
-2.194019 41.694965 1.296755
