# .PCD v0.7 - Point Cloud Data file format
VERSION 0.7
FIELDS x y z
SIZE 4 4 4
TYPE F F F
COUNT 1 1 1
WIDTH 108
HEIGHT 1
VIEWPOINT 0 0 0 1
POINTS 108
DATA ascii
-4.439761 44.134335 0.484951
-4.432405 44.035461 0.475384
-4.427198 43.624966 0.481642
-4.372252 44.074104 0.504508
-4.396664 43.826725 0.510724
-4.369534 43.975342 0.496829
-4.403232 43.372898 0.496455
-4.372236 43.570469 0.494481
-4.355745 43.344532 0.517555
-4.352278 43.316181 0.518185
-4.412182 43.779934 0.456351
-4.366869 43.738415 0.477303
-4.353540 43.725849 0.477413
-4.394496 44.164070 0.454389
-4.361207 44.156979 0.458282
-4.310349 43.999187 0.443521
-4.428587 43.452961 0.473592
-4.417974 43.727406 0.503411
-4.469951 44.200760 0.487589
-4.388104 43.455933 0.504318
-4.370387 43.702858 0.528253
-4.447425 43.606056 0.484116
-4.433216 43.779087 0.485266
-4.408115 44.144279 0.510029
-4.452035 44.153164 0.469242
-4.461747 44.021240 0.483333
-4.402514 43.588795 0.511211
-4.380951 43.744553 0.506639
-4.321934 43.950325 0.477427
-4.387971 44.085304 0.487176
-4.404294 43.975216 0.507807
-4.350990 43.539757 0.524918
-4.321469 43.797115 0.479237
-4.466504 44.150372 0.470148
-4.431106 44.088055 0.487211
-4.466739 43.974083 0.474180
-4.395033 43.998650 0.485385
-4.433272 43.916569 0.486342
-4.357025 43.861179 0.449701
-4.401468 43.852825 0.493666
-4.455079 43.677807 0.484961
-4.326781 43.794250 0.458168
-4.434796 43.775021 0.490531
-4.366858 43.745476 0.467698
-4.429936 43.630379 0.495690
-4.405541 43.726063 0.499942
-4.335985 43.656471 0.451229
-4.426630 43.591137 0.489344
-4.405208 43.582569 0.504780
-4.447562 43.604149 0.482520
-4.434950 43.669083 0.482979
-4.375595 43.670486 0.503999
-4.439593 43.441902 0.488559
-4.310805 43.624840 0.477185
-4.401181 43.551804 0.502986
-4.381385 43.530628 0.508960
-4.419112 43.569534 0.498560
-4.406380 43.626083 0.492393
-4.424383 43.594460 0.490399
-4.341812 43.550293 0.456804
-4.418932 43.400005 0.501597
-4.357328 43.467319 0.503517
-4.375534 43.507465 0.511635
-4.378834 43.587322 0.503523
-4.390539 43.526554 0.507969
-4.393570 43.559464 0.505915
-4.316396 43.501247 0.464177
-4.331592 43.365971 0.463167
-4.346604 43.417233 0.481304
-4.346971 43.493065 0.470320
-4.362229 43.473816 0.508134
-4.362030 43.511478 0.511467
-4.301507 43.573700 0.568659
-4.311988 43.317894 0.466316
-4.321897 43.347622 0.466175
-4.318803 43.427547 0.458226
-4.330360 43.368156 0.462315
-4.326619 43.397186 0.459420
-4.295766 43.291218 0.487939
-4.297226 43.410557 0.485362
-4.299856 43.302525 0.470439
-4.306760 43.326939 0.470768
-4.300436 43.371712 0.481242
-4.287892 43.369938 0.576865
-4.293776 43.428356 0.606247
-4.349414 44.184147 0.425105
-4.326172 44.097435 0.420846
-4.298906 44.074154 0.463106
-4.409254 44.077896 0.472873
-4.383720 43.925064 0.437692
-4.407316 44.139629 0.453000
-4.385818 43.967957 0.434918
-4.360056 43.857513 0.429688
-4.384799 44.028534 0.421277
-4.363479 43.902962 0.433300
-4.334445 43.839523 0.465117
-4.359857 43.974098 0.431814
-4.338017 43.884308 0.471478
-4.303733 43.883362 0.561681
-4.330124 44.005566 0.519513
-4.308221 43.913548 0.554263
-4.400127 43.590046 0.421946
-4.304521 43.979656 0.558130
-4.376609 43.549469 0.432104
-4.343709 43.615101 0.561015
-4.321827 43.566212 0.566165
-4.384607 43.439613 0.436342
-4.299128 43.522598 0.576272
