# .PCD v0.7 - Point Cloud Data file format
VERSION 0.7
FIELDS x y z
SIZE 4 4 4
TYPE F F F
COUNT 1 1 1
WIDTH 14
HEIGHT 1
VIEWPOINT 0 0 0 1
POINTS 14
DATA ascii
-8.649158 43.170902 -1.179140
-8.642123 43.252792 -1.178652
-8.643126 43.338123 -1.176916
-8.639182 43.422668 -1.173219
-8.618188 43.502449 -1.169124
-8.684878 43.105274 -1.176486
-8.661513 43.159092 -1.176998
-8.632857 43.212326 -1.176877
-8.628728 43.267895 -1.173020
-8.631828 43.324795 -1.168988
-8.626000 43.380623 -1.165064
-8.671432 43.063076 -1.148439
-8.634698 43.100060 -1.179730
-8.659051 43.143597 -1.183517
