# .PCD v0.7 - Point Cloud Data file format
VERSION 0.7
FIELDS x y z
SIZE 4 4 4
TYPE F F F
COUNT 1 1 1
WIDTH 30
HEIGHT 1
VIEWPOINT 0 0 0 1
POINTS 30
DATA ascii
-8.007849 32.253410 -0.754876
-8.495516 32.102680 -0.866489
-8.367664 32.156139 -0.860556
-8.823606 32.026634 -0.982551
-8.334202 32.210735 -0.907780
-8.830360 32.059765 -0.985506
-8.648071 32.159473 -1.010918
-7.881004 32.405296 -0.776199
-8.261417 32.227306 -0.943107
-7.931052 32.434269 -0.778487
-8.322652 32.259472 -0.951119
-8.500698 32.199551 -0.996986
-8.142868 32.282825 -0.882394
-8.143925 32.295605 -0.871730
-8.461787 32.266823 -0.949692
-8.247317 32.300720 -0.881560
-8.252378 32.310211 -0.870661
-8.470658 32.216000 -1.011292
-8.468134 32.221153 -1.010028
-8.422106 32.069004 -0.908946
-8.473078 32.071976 -0.938053
-8.327496 32.164963 -0.953458
-8.393994 32.163349 -0.976517
-8.345892 32.201309 -0.967248
-8.423887 32.196526 -0.985954
-8.775155 31.997627 -1.037366
-8.718215 32.069698 -1.074212
-8.658768 32.109833 -1.082748
-8.690023 32.137856 -1.099139
-8.677426 32.154186 -1.098665
