# .PCD v0.7 - Point Cloud Data file format
VERSION 0.7
FIELDS x y z
SIZE 4 4 4
TYPE F F F
COUNT 1 1 1
WIDTH 28
HEIGHT 1
VIEWPOINT 0 0 0 1
POINTS 28
DATA ascii
-13.574509 47.396347 -3.158175
-13.512095 47.439724 -3.142527
-13.740843 47.313675 -3.288153
-13.674259 47.303123 -3.265011
-13.576233 47.315212 -3.226410
-13.666409 47.344147 -3.247988
-13.592185 47.323315 -3.229087
-13.573532 47.356331 -3.214620
-13.596542 47.363262 -3.210171
-13.657827 47.385456 -3.230342
-13.570961 47.396416 -3.200610
-13.566481 47.399158 -3.199078
-13.615815 47.421299 -3.220329
-13.553969 47.435101 -3.189948
-13.536678 47.433922 -3.187171
-13.517366 47.469902 -3.184353
-13.485732 47.464218 -3.181854
-13.461757 47.500633 -3.183048
-13.511474 47.524590 -3.182339
-13.657904 47.304169 -3.230883
-13.680133 47.311794 -3.227029
-13.667054 47.343201 -3.212381
-13.663118 47.348713 -3.214508
-13.637448 47.378857 -3.204556
-13.632462 47.383671 -3.206032
-13.631478 47.416443 -3.188838
-13.631590 47.421761 -3.187713
-13.549288 47.480370 -3.176378
