# .PCD v0.7 - Point Cloud Data file format
VERSION 0.7
FIELDS x y z
SIZE 4 4 4
TYPE F F F
COUNT 1 1 1
WIDTH 49
HEIGHT 1
VIEWPOINT 0 0 0 1
POINTS 49
DATA ascii
-12.887985 30.991169 -3.338348
-12.982422 30.818562 -3.353127
-13.057890 30.839373 -3.381109
-12.669369 30.966957 -3.286122
-12.715303 30.940706 -3.305914
-12.683421 30.968958 -3.282095
-12.770400 30.893791 -3.320379
-12.779943 31.101465 -3.288577
-12.725523 30.959581 -3.305675
-12.681171 30.973896 -3.284211
-12.849936 31.023865 -3.291408
-12.775275 30.928015 -3.321827
-12.723178 30.968744 -3.308117
-12.940455 30.903242 -3.281797
-12.828160 30.896429 -3.339084
-12.684907 30.975790 -3.287644
-12.776211 30.936153 -3.323147
-12.976559 30.917458 -3.316307
-12.734523 30.956800 -3.306178
-12.826559 30.916891 -3.342297
-12.789516 30.925674 -3.321118
-12.835009 30.924665 -3.344268
-12.691295 31.108686 -3.255748
-12.673991 30.955561 -3.227527
-12.718411 31.055807 -3.263553
-12.671010 31.078415 -3.250304
-12.691070 31.050316 -3.238293
-12.705659 30.884542 -3.236130
-12.699553 31.007618 -3.249769
-12.748447 30.998446 -3.272026
-12.701458 31.114582 -3.245714
-12.721378 30.996750 -3.250161
-12.667792 30.989912 -3.249461
-12.779299 30.957064 -3.288463
-12.731736 30.977879 -3.272824
-12.730350 31.064114 -3.254503
-12.753572 30.933037 -3.259063
-12.700912 30.927177 -3.256315
-12.739555 31.128197 -3.258371
-12.764427 30.926565 -3.284901
-12.761255 30.998234 -3.258858
-12.788025 30.860115 -3.265117
-12.736189 30.872650 -3.268538
-12.770494 31.079062 -3.267262
-12.794106 30.963259 -3.278271
-12.801432 31.042070 -3.282892
-12.829062 30.902725 -3.287501
-12.836068 30.948576 -3.270968
-12.868650 30.948633 -3.305410
