# .PCD v0.7 - Point Cloud Data file format
VERSION 0.7
FIELDS x y z
SIZE 4 4 4
TYPE F F F
COUNT 1 1 1
WIDTH 15
HEIGHT 1
VIEWPOINT 0 0 0 1
POINTS 15
DATA ascii
-17.008968 43.282459 -4.374265
-17.067396 43.298733 -4.444008
-17.044758 43.207672 -4.421016
-17.053825 43.060452 -4.419653
-17.166515 43.055367 -4.380303
-17.092443 43.226883 -4.449232
-17.065983 43.294201 -4.377418
-17.170626 43.242146 -4.374196
-17.062704 43.218849 -4.355197
-17.136261 43.193436 -4.410971
-17.005817 43.196514 -4.341593
-17.067783 43.111893 -4.373362
-17.071167 43.223522 -4.417609
-17.070749 43.004498 -4.385600
-17.103548 43.410725 -4.464701
