# .PCD v0.7 - Point Cloud Data file format
VERSION 0.7
FIELDS x y z
SIZE 4 4 4
TYPE F F F
COUNT 1 1 1
WIDTH 24
HEIGHT 1
VIEWPOINT 0 0 0 1
POINTS 24
DATA ascii
-20.725346 33.009937 -5.595467
-20.659588 33.068321 -5.543280
-20.657001 32.853191 -5.564436
-20.643206 32.928188 -5.585053
-20.699879 33.100025 -5.628803
-20.564966 33.086807 -5.585528
-20.685972 33.252293 -5.642024
-20.575724 33.250664 -5.583267
-20.572399 33.350151 -5.616752
-20.680630 33.139122 -5.632698
-20.547705 33.112560 -5.584022
-20.670599 33.048794 -5.614053
-20.532190 33.017460 -5.570659
-20.577719 33.540752 -5.621619
-20.528540 32.943508 -5.571004
-20.632093 32.866356 -5.639605
-20.559961 32.895683 -5.583637
-20.632732 32.951385 -5.640948
-20.566603 32.988384 -5.580511
-20.592119 33.221951 -5.596839
-20.647165 33.062790 -5.654102
-20.631157 33.077309 -5.604981
-20.680958 32.966499 -5.601449
-20.658028 33.203815 -5.658102
