# .PCD v0.7 - Point Cloud Data file format
VERSION 0.7
FIELDS x y z
SIZE 4 4 4
TYPE F F F
COUNT 1 1 1
WIDTH 18
HEIGHT 1
VIEWPOINT 0 0 0 1
POINTS 18
DATA ascii
-21.080746 42.686813 -5.984455
-21.130384 42.710915 -5.953227
-21.150829 42.516685 -5.928091
-21.173647 42.475433 -5.952292
-21.163460 42.628147 -5.914385
-21.130112 42.867718 -5.978874
-21.116926 42.805683 -5.979626
-21.102020 42.731995 -5.973542
-21.092600 42.367256 -5.932168
-21.110312 42.608028 -5.929027
-21.121122 42.812988 -5.918329
-21.214218 42.758217 -5.963303
-21.164680 42.887253 -5.974814
-21.214104 42.739491 -5.964431
-21.120426 42.777061 -5.912565
-21.214399 42.724667 -5.967944
-21.172400 42.694386 -5.965679
-21.205975 42.499714 -5.935903
