# .PCD v0.7 - Point Cloud Data file format
VERSION 0.7
FIELDS x y z
SIZE 4 4 4
TYPE F F F
COUNT 1 1 1
WIDTH 11
HEIGHT 1
VIEWPOINT 0 0 0 1
POINTS 11
DATA ascii
-26.192446 44.664139 -8.789814
-27.557964 43.982880 -8.541069
-27.622665 44.050274 -8.570297
-27.696079 44.112579 -8.597707
-27.712957 44.216660 -8.630136
-26.462965 44.683029 -8.947906
-26.535742 44.678112 -8.961643
-27.665585 43.873150 -8.515343
-27.721994 43.938301 -8.547017
-27.728397 44.051758 -8.590379
-27.958054 43.956238 -8.580526
