# .PCD v0.7 - Point Cloud Data file format
VERSION 0.7
FIELDS x y z
SIZE 4 4 4
TYPE F F F
COUNT 1 1 1
WIDTH 36
HEIGHT 1
VIEWPOINT 0 0 0 1
POINTS 36
DATA ascii
-37.949085 42.967587 -12.593642
-37.966530 42.918983 -12.590338
-38.000294 42.951023 -12.621469
-37.937737 43.135754 -12.644367
-38.022793 42.873623 -12.598513
-38.054054 42.992260 -12.690415
-37.904896 43.117256 -12.520206
-37.945629 42.952690 -12.595829
-37.980701 43.007240 -12.586132
-37.963829 43.227680 -12.653811
-37.996284 42.925358 -12.618967
-38.033016 42.995338 -12.617815
-37.920254 43.181145 -12.498805
-38.002243 43.105827 -12.595516
-38.049721 42.960651 -12.686646
-37.940208 42.923626 -12.585931
-37.975391 43.309174 -12.650476
-38.050018 43.083878 -12.619411
-37.991142 42.888226 -12.608130
-38.010719 43.194553 -12.596196
-38.046925 42.933716 -12.685830
-38.053093 43.169502 -12.616313
-37.976509 42.843800 -12.604934
-38.033165 42.882198 -12.680855
-37.825150 43.155327 -12.416805
-37.871052 43.098251 -12.432203
-37.885143 43.315071 -12.448571
-37.920486 43.048737 -12.453614
-37.923691 43.261612 -12.462571
-37.975777 43.229233 -12.499417
-37.813911 42.368649 -12.451097
-37.933979 42.464001 -12.593022
-37.922745 42.446041 -12.597637
-37.899197 42.399078 -12.580129
-37.744522 42.070873 -12.336144
-37.738609 42.067966 -12.355545
