# .PCD v0.7 - Point Cloud Data file format
VERSION 0.7
FIELDS x y z
SIZE 4 4 4
TYPE F F F
COUNT 1 1 1
WIDTH 606
HEIGHT 1
VIEWPOINT 0 0 0 1
POINTS 606
DATA ascii
-41.927181 46.228905 -15.988213
-42.225063 46.193916 -16.239658
-42.189514 46.213528 -15.967941
-41.987724 46.207436 -16.127169
-41.978737 46.230587 -15.885258
-42.226719 46.215015 -16.035395
-41.998520 46.229691 -15.940817
-42.308773 46.219715 -16.242336
-42.241005 46.249496 -16.203106
-42.192753 46.233265 -16.189846
-42.324749 46.216797 -16.285069
-42.133190 46.261993 -16.152493
-42.083828 46.243927 -16.139868
-42.207577 46.231312 -16.228613
-42.020344 46.267120 -16.098526
-41.974468 46.249245 -16.090969
-42.253456 46.264065 -16.052345
-42.096748 46.242046 -16.175367
-42.302120 46.222473 -16.026670
-41.988190 46.249817 -16.122244
-42.263523 46.255135 -16.145859
-42.085777 46.248714 -15.917137
-42.197109 46.238403 -15.982809
-42.151371 46.267525 -16.091887
-42.086494 46.247963 -15.937534
-42.305286 46.225166 -16.054821
-42.028324 46.268120 -16.035208
-42.194019 46.239788 -16.005674
-42.078465 46.246395 -15.955833
-42.431114 46.192764 -16.310574
-42.417278 46.187679 -16.260313
-42.323402 46.202541 -16.254009
-42.314404 46.199078 -16.208534
-42.405907 46.185802 -16.216532
-42.410255 46.191994 -16.205029
-42.220402 46.209003 -16.200068
-42.211357 46.203392 -16.155779
-42.304184 46.196598 -16.168800
-42.310112 46.201530 -16.155912
-42.126610 46.216129 -16.151003
-42.119877 46.210842 -16.109066
-42.390984 46.186626 -16.174177
-42.205757 46.201553 -16.120758
-42.207584 46.206440 -16.106823
-42.026405 46.214630 -16.098825
-42.027336 46.213409 -16.061958
-42.444481 46.185810 -16.304279
-42.297947 46.200085 -16.133249
-42.112225 46.206154 -16.076462
-42.114517 46.211010 -16.061644
-42.294060 46.209541 -16.067373
-41.956413 46.228977 -16.061039
-41.953873 46.222385 -16.023645
-42.353817 46.201279 -16.257755
-42.199821 46.204662 -16.088791
-42.027504 46.211617 -16.035694
-42.029198 46.215691 -16.019449
-42.196358 46.211941 -16.023218
-42.296032 46.197441 -16.110413
-42.246387 46.202404 -16.205084
-42.105770 46.207134 -16.046572
-41.960587 46.225883 -16.002954
-41.967243 46.233902 -15.988077
-42.099102 46.212162 -15.979373
-42.197353 46.201874 -16.069077
-42.158730 46.210884 -16.160402
-42.017929 46.209000 -16.007679
-42.025032 46.222954 -15.945226
-42.107281 46.206192 -16.031187
-42.069546 46.214516 -16.116209
-41.923046 46.233173 -16.113852
-41.963158 46.231308 -15.982260
-41.931423 46.214989 -15.903608
-42.023243 46.211075 -15.995355
-41.990845 46.220535 -16.077509
-41.966034 46.230736 -15.971002
-41.949604 46.186729 -16.110687
-42.285542 46.175850 -16.053846
-42.218666 46.167431 -16.164709
-42.046524 46.197495 -15.907758
-42.181526 46.179245 -16.002609
-42.094166 46.196037 -15.984016
-42.063236 46.211926 -16.064802
-41.951859 46.201473 -16.067566
-42.092384 46.193085 -16.169653
-41.990009 46.193115 -15.953728
-42.145248 46.195766 -16.048624
-42.184826 46.181793 -16.159681
-42.003578 46.199478 -16.114695
-42.082439 46.187847 -16.128145
-41.910175 46.194382 -16.089563
-42.238960 46.184551 -16.033714
-42.168949 46.174149 -16.144148
-42.134525 46.184891 -15.985571
-42.012581 46.215057 -15.891637
-42.035820 46.186844 -15.960199
-41.999844 46.194843 -16.035114
-42.042572 46.193863 -16.144531
-41.924675 46.223942 -16.053665
-42.100903 46.203445 -16.028456
-41.958755 46.209625 -15.938890
-42.136398 46.186539 -16.136389
-41.948303 46.189316 -16.086798
-42.033989 46.188583 -16.104794
-42.183960 46.176605 -15.993756
-42.189224 46.189270 -16.013123
-41.872536 46.200996 -16.069294
-42.125072 46.182796 -16.125324
-42.091110 46.192516 -15.968072
-41.961884 46.208767 -15.870447
-42.001408 46.200378 -15.944909
-41.969933 46.213352 -16.019844
-41.987297 46.184700 -16.116646
-41.872532 46.212749 -16.026159
-42.048855 46.200195 -16.005539
-41.906666 46.198364 -15.915853
-42.089333 46.191242 -16.114868
-41.985092 46.187302 -16.082315
-42.139668 46.184204 -15.978055
-42.145798 46.196892 -15.995619
-41.910240 46.197922 -16.067461
-42.077133 46.186474 -16.105591
-41.843060 46.218506 -16.053116
-42.051304 46.202087 -15.952346
-41.931973 46.227276 -15.855185
-41.954327 46.197033 -15.925504
-41.920544 46.207085 -15.995955
-41.949234 46.194305 -16.097324
-42.015766 46.213722 -15.989779
-42.036812 46.187004 -16.090601
-42.101894 46.202534 -15.976753
-42.084541 46.179897 -15.959191
-41.946148 46.194881 -16.064760
-41.869904 46.200531 -16.048061
-42.024181 46.182220 -16.082226
-41.999741 46.196762 -15.932973
-41.915840 46.203587 -15.909273
-41.890175 46.222565 -15.981542
-41.912971 46.203880 -16.078873
-41.962795 46.205463 -15.966358
-42.008263 46.206467 -16.077112
-42.058887 46.207153 -15.958309
-42.058746 46.204300 -15.949321
-41.902660 46.195511 -16.044926
-41.839066 46.215027 -16.032301
-41.995670 46.202648 -16.070990
-41.954033 46.195374 -15.915372
-41.874882 46.209473 -16.059492
-41.938282 46.226887 -15.953742
-41.954819 46.197224 -16.052340
-42.006844 46.199841 -15.937570
-42.001781 46.192997 -15.929484
-41.863220 46.198097 -16.025963
-41.935921 46.186447 -16.045303
-41.917820 46.203873 -15.901377
-41.836346 46.213039 -16.040983
-41.892536 46.223522 -15.933882
-41.928078 46.218655 -16.039761
-41.978741 46.218273 -15.925405
-41.970100 46.208443 -15.917770
-41.910549 46.208836 -16.034510
-41.880043 46.211323 -16.017633
-41.932549 46.213890 -15.906425
-41.918980 46.199066 -15.899678
-41.861645 46.200478 -16.014168
-41.894035 46.217422 -15.890151
-41.885460 46.208515 -15.887005
-42.489040 46.176838 -16.287336
-42.317551 46.191376 -16.273415
-42.433292 46.187046 -16.261095
-42.342766 46.178017 -16.133026
-42.368851 46.194435 -16.065168
-42.459763 46.162441 -16.321789
-42.363754 46.182281 -16.228800
-42.291607 46.185146 -16.111084
-42.468311 46.178894 -16.214502
-42.303066 46.175953 -16.281624
-42.311462 46.198524 -16.042356
-42.407173 46.173599 -16.298199
-42.510521 46.157326 -16.311691
-42.340691 46.174702 -16.111034
-42.207527 46.197891 -16.217794
-42.312538 46.190472 -16.204653
-42.239586 46.188282 -16.088581
-42.409954 46.183052 -16.188999
-42.350143 46.178776 -16.272261
-42.466713 46.171860 -16.311281
-42.261673 46.206619 -16.022221
-42.449902 46.163448 -16.286285
-42.293575 46.183781 -16.092209
-42.160801 46.205132 -16.193544
-42.257786 46.192680 -16.178585
-42.194256 46.196419 -16.068361
-42.358303 46.191212 -16.165749
-42.202911 46.188354 -16.233158
-42.298504 46.184933 -16.248940
-42.406982 46.176048 -16.284008
-42.214134 46.212738 -16.001978
-42.387531 46.165581 -16.259890
-42.347939 46.183380 -16.092848
-42.246902 46.192890 -16.072489
-42.110996 46.207352 -16.168743
-42.212864 46.202847 -16.157526
-42.144958 46.198544 -16.047125
-42.304470 46.194351 -16.142372
-42.154865 46.194565 -16.209345
-42.353535 46.183212 -16.259855
-42.244209 46.188103 -16.224234
-42.166180 46.217823 -15.982608
-42.334129 46.171677 -16.237936
-42.290611 46.183399 -16.072117
-42.198051 46.195976 -16.052607
-42.054996 46.199600 -16.140598
-42.162617 46.206039 -16.133656
-42.201675 46.195004 -16.244106
-42.106346 46.208691 -16.029085
-42.252445 46.197483 -16.119862
-42.299660 46.186417 -16.234240
-42.098839 46.187813 -16.181221
-42.193516 46.191254 -16.201252
-42.482506 46.179768 -16.252087
-42.487934 46.173775 -16.322865
-42.469223 46.182426 -16.268209
-42.496422 46.176060 -16.273209
-42.460739 46.180347 -16.309122
-42.451199 46.179398 -16.237497
-42.493011 46.177631 -16.216228
-42.437904 46.181061 -16.253590
-42.492744 46.175655 -16.287918
-42.467495 46.179611 -16.260824
-42.429401 46.177986 -16.294472
-42.423046 46.181000 -16.223223
-42.468216 46.188129 -16.204699
-42.463783 46.177212 -16.275473
-42.410309 46.185623 -16.240713
-42.437622 46.180187 -16.247965
-42.464321 46.177853 -16.251759
-42.491829 46.174351 -16.261312
-42.402199 46.182571 -16.280674
-42.396397 46.187546 -16.210796
-42.435547 46.182770 -16.190491
-42.381760 46.186211 -16.227329
-42.434338 46.179813 -16.261753
-42.409092 46.182774 -16.234636
-42.437786 46.185337 -16.241585
-42.468616 46.177887 -16.248123
-42.464336 46.178852 -16.250658
-42.339333 46.189934 -16.286459
-42.376434 46.188103 -16.268606
-42.368801 46.191120 -16.197893
-42.407520 46.184319 -16.178444
-42.407238 46.183342 -16.250153
-42.356926 46.192726 -16.215683
-42.382004 46.186306 -16.223040
-42.407490 46.182903 -16.229555
-42.439667 46.179451 -16.235682
-42.435535 46.182354 -16.240503
-42.314400 46.197514 -16.272615
-42.346004 46.183739 -16.254295
-42.342503 46.193699 -16.184433
-42.381771 46.189857 -16.166380
-42.380150 46.186874 -16.238556
-42.329720 46.195328 -16.201832
-42.354893 46.187843 -16.211384
-42.381336 46.188416 -16.218407
-42.410320 46.180000 -16.224131
-42.408981 46.187843 -16.230272
-42.359859 46.193310 -16.084068
-42.289021 46.201080 -16.259575
-42.375729 46.199181 -16.047478
-42.322128 46.193241 -16.243128
-42.315815 46.196262 -16.171892
-42.357891 46.199356 -16.155214
-42.353432 46.188435 -16.225981
-42.303951 46.198875 -16.189711
-42.330082 46.195366 -16.199770
-42.352898 46.187954 -16.207220
-42.384663 46.184479 -16.214262
-42.378284 46.184399 -16.219131
-42.365131 46.196064 -16.090721
-42.335556 46.199795 -16.073736
-42.350945 46.207706 -16.035896
-42.295788 46.192833 -16.229580
-42.293274 46.207775 -16.160257
-42.329849 46.197922 -16.143084
-42.326313 46.188980 -16.214296
-42.278160 46.200428 -16.177532
-42.304867 46.201870 -16.189045
-42.325779 46.188499 -16.195538
-42.358490 46.188004 -16.203054
-42.364830 46.191940 -16.094816
-42.353584 46.191860 -16.209743
-42.338024 46.196613 -16.079042
-42.312595 46.209290 -16.062962
-42.239243 46.212208 -16.234001
-42.325176 46.210258 -16.023748
-42.270958 46.198364 -16.217907
-42.269379 46.215290 -16.149035
-42.306885 46.207417 -16.132309
-42.300152 46.192509 -16.203093
-42.335800 46.190632 -16.114943
-42.252365 46.200985 -16.165323
-42.277737 46.200424 -16.177305
-42.301079 46.194969 -16.186121
-42.371376 46.190701 -16.100834
-42.330978 46.188530 -16.192289
-42.367184 46.189606 -16.105536
-42.339153 46.193432 -16.084862
-42.325676 46.192364 -16.199896
-42.314247 46.204067 -16.070045
-42.287762 46.213825 -16.051262
-42.213867 46.214790 -16.220934
-42.301289 46.217777 -16.012527
-42.247066 46.205883 -16.206684
-42.282074 46.213951 -16.120667
-42.241199 46.210934 -16.134594
-42.277176 46.201008 -16.192287
-42.315685 46.209064 -16.105602
-42.229832 46.212505 -16.153690
-42.251926 46.199986 -16.165068
-42.349869 46.203133 -16.091845
-42.275829 46.198486 -16.175308
-42.306671 46.195023 -16.181953
-42.342087 46.196056 -16.097038
-42.315407 46.202881 -16.075926
-42.298176 46.192898 -16.189131
-42.291294 46.213566 -16.059273
-42.263443 46.218327 -16.040871
-42.188457 46.214378 -16.207777
-42.275532 46.220341 -16.000380
-42.222218 46.209423 -16.194952
-42.256817 46.216473 -16.109825
-42.251900 46.202526 -16.181416
-42.218235 46.219437 -16.123789
-42.289490 46.209602 -16.094313
-42.205891 46.216034 -16.142351
-42.228550 46.207466 -16.155153
-42.325172 46.209606 -16.082428
-42.251148 46.205963 -16.165922
-42.281960 46.200497 -16.172506
-42.315102 46.196548 -16.087584
-42.291676 46.213337 -16.067019
-42.274002 46.200333 -16.181053
-42.265659 46.217064 -16.049379
-42.238197 46.220852 -16.030033
-42.164940 46.219929 -16.195578
-42.197372 46.212971 -16.183224
-42.227604 46.209030 -16.171082
-42.231045 46.218040 -16.097647
-42.194759 46.227985 -16.111677
-42.264252 46.213127 -16.083502
-42.181042 46.218582 -16.130592
-42.204243 46.212975 -16.144791
-42.298553 46.208126 -16.071997
-42.225853 46.205490 -16.154993
-42.257633 46.205002 -16.162113
-42.291866 46.205967 -16.079954
-42.265987 46.212845 -16.057009
-42.249294 46.205814 -16.171606
-42.241314 46.219574 -16.038929
-42.214252 46.223385 -16.018665
-42.141987 46.229443 -16.184801
-42.172520 46.215527 -16.171465
-42.204254 46.218517 -16.161226
-42.242176 46.220615 -16.073057
-42.206165 46.218594 -16.085831
-42.169895 46.229542 -16.099890
-42.158092 46.228100 -16.119818
-42.276123 46.218594 -16.062559
-42.179394 46.215530 -16.133032
-42.233845 46.211468 -16.153088
-42.201157 46.210979 -16.145548
-42.265854 46.210449 -16.071011
-42.242249 46.222309 -16.048071
-42.222687 46.204342 -16.161177
-42.215664 46.221085 -16.028980
-42.186634 46.211945 -16.007561
-42.116596 46.229046 -16.171648
-42.148590 46.219063 -16.160126
-42.201035 46.230995 -15.965199
-42.180874 46.217133 -16.074877
-42.217857 46.225128 -16.062664
-42.180347 46.224052 -16.149942
-42.141190 46.212189 -16.085997
-42.134136 46.229641 -16.108419
-42.251385 46.221081 -16.053026
-42.156036 46.224026 -16.123146
-42.210472 46.218956 -16.143171
-42.176460 46.216469 -16.136105
-42.242073 46.216919 -16.061985
-42.199837 46.212791 -16.152599
-42.216595 46.223824 -16.038120
-42.189957 46.217602 -16.018887
-42.161343 46.209488 -15.996581
-42.092121 46.229633 -16.158915
-42.124634 46.220608 -16.148727
-42.152672 46.199738 -16.062290
-42.156006 46.226570 -16.139492
-42.192604 46.226665 -16.051796
-42.118618 46.219734 -16.074238
-42.227058 46.224598 -16.042597
-42.107346 46.220249 -16.095530
-42.131664 46.223545 -16.112600
-42.184803 46.219471 -16.133181
-42.154049 46.227947 -16.126684
-42.217888 46.222370 -16.053837
-42.192791 46.228298 -16.029026
-42.175140 46.218285 -16.143143
-42.161922 46.204147 -16.008633
-42.139256 46.214993 -15.986066
-42.066990 46.218273 -16.144510
-42.096283 46.200287 -16.133812
-42.131657 46.229095 -16.129023
-42.165916 46.218212 -16.041147
-42.130676 46.213242 -16.052002
-42.094662 46.221287 -16.062830
-42.201340 46.222122 -16.032516
-42.084351 46.226780 -16.084654
-42.105415 46.218121 -16.101128
-42.159126 46.219997 -16.123188
-42.128334 46.225475 -16.116604
-42.191814 46.222870 -16.044764
-42.163418 46.212849 -16.019239
-42.150925 46.222748 -16.134962
-42.136166 46.196678 -15.998413
-42.114918 46.217525 -15.975606
-42.043476 46.223850 -16.132298
-42.074825 46.216755 -16.124922
-42.103828 46.210739 -16.115477
-42.140594 46.214767 -16.030123
-42.108093 46.220798 -16.040237
-42.071136 46.225864 -16.050589
-42.176598 46.224628 -16.022972
-42.060810 46.230358 -16.072382
-42.136658 46.228485 -16.113676
-42.081444 46.218678 -16.089691
-42.101067 46.211075 -16.104483
-42.167099 46.227379 -16.035276
-42.137695 46.208378 -16.009106
-42.126205 46.227257 -16.125475
-42.111389 46.195194 -15.988758
-42.091881 46.220062 -15.964617
-42.019508 46.224411 -16.120859
-42.051769 46.218292 -16.113903
-42.117184 46.219280 -16.020109
-42.080452 46.218250 -16.105547
-42.082722 46.212357 -16.029072
-42.154106 46.231117 -16.013405
-42.046234 46.223446 -16.038675
-42.036808 46.227921 -16.060860
-42.108067 46.212086 -16.102024
-42.058056 46.225193 -16.079733
-42.078224 46.220547 -16.095919
-42.134983 46.199932 -16.026203
-42.114841 46.216850 -16.000515
-42.100117 46.225769 -16.116343
-42.092636 46.220665 -15.979067
-42.068871 46.224606 -15.953684
-41.995895 46.221001 -16.108389
-42.027805 46.218857 -16.102465
-42.056992 46.218773 -16.095417
-42.093739 46.220798 -16.010008
-42.060669 46.221878 -16.018671
-42.126057 46.216675 -16.003120
-42.023628 46.229012 -16.026852
-42.012814 46.225491 -16.049335
-42.034611 46.226711 -16.069630
-42.084270 46.217579 -16.092957
-42.054848 46.228062 -16.085989
-42.113457 46.210407 -16.017141
-42.091423 46.220367 -15.990471
-42.074352 46.218311 -16.106121
-42.068233 46.217209 -15.968435
-42.045406 46.224129 -15.943526
-41.973309 46.228569 -16.096619
-42.004791 46.223400 -16.091530
-42.070713 46.224339 -15.999045
-42.032612 46.217316 -16.084841
-42.036686 46.220444 -16.007175
-42.102203 46.217175 -15.993909
-41.989811 46.231037 -16.038429
-42.000084 46.231602 -16.014551
-42.060837 46.220100 -16.082884
-42.029987 46.219589 -16.076130
-42.010273 46.229259 -16.059166
-42.089310 46.218880 -16.009077
-42.067631 46.225868 -15.981402
-42.050556 46.223808 -16.097052
-42.044842 46.222729 -15.958448
-42.023331 46.231655 -15.933065
-41.949764 46.231159 -16.084318
-41.981789 46.228951 -16.080622
-42.045918 46.220863 -15.989330
-42.010220 46.231815 -16.075497
-42.013710 46.227989 -15.996326
-42.078773 46.219696 -15.983836
-41.977409 46.231174 -16.002556
-41.966774 46.233585 -16.027435
-42.037018 46.223602 -16.073757
-41.987259 46.233807 -16.048231
-42.006634 46.229111 -16.066256
-42.065426 46.216385 -15.999781
-42.043728 46.221375 -15.972049
-42.026310 46.224293 -16.088757
-42.021381 46.222260 -15.948291
-42.000256 46.230206 -15.921961
-41.927059 46.227741 -16.072237
-41.957870 46.233521 -16.069296
-42.022896 46.224415 -15.978368
-41.985828 46.229370 -16.064890
-42.055866 46.223179 -15.975101
-41.990654 46.228542 -15.985277
-41.943707 46.233143 -16.016357
-42.013157 46.223110 -16.064516
-41.953465 46.232750 -15.991144
-41.963806 46.234341 -16.038099
-41.981720 46.214649 -16.056229
-42.040272 46.215889 -15.991070
-42.019928 46.225880 -15.962951
-42.001545 46.223820 -16.079126
-41.997967 46.225788 -15.938245
-41.976807 46.230740 -15.911831
-41.904369 46.225323 -16.060184
-41.934792 46.232079 -16.058187
-41.999447 46.224945 -15.968237
-41.962440 46.235901 -16.054928
-42.032425 46.224709 -15.964998
-41.967640 46.233097 -15.974340
-41.931736 46.236309 -15.979649
-41.920639 46.232704 -16.005278
-41.989849 46.236637 -16.054752
-41.939442 46.233894 -16.027548
-41.958485 46.235176 -16.046661
-42.017406 46.223377 -15.982446
-41.996082 46.226391 -15.953738
-41.976707 46.216354 -16.069296
-41.975433 46.227303 -15.928532
-41.955616 46.248314 -15.899808
-41.881508 46.245876 -16.049690
-41.910770 46.226665 -16.046579
-41.976448 46.230503 -15.957328
-42.008560 46.223221 -15.955729
-41.938396 46.228481 -16.043262
-41.943130 46.217663 -15.963371
-41.897575 46.232265 -15.994199
-41.908291 46.248909 -15.967623
-41.916882 46.233414 -16.017776
-41.965076 46.235172 -16.045092
-41.934982 46.230713 -16.036388
-41.992695 46.226910 -15.972928
-41.971733 46.226948 -15.943217
-41.952641 46.232841 -16.061453
-41.951523 46.220825 -15.919124
-41.931667 46.249897 -15.888393
-41.857594 46.251461 -16.038385
-41.888332 46.238182 -16.037142
-41.952534 46.224022 -15.947919
-41.914917 46.226025 -16.033045
-41.922024 46.244236 -15.951598
-41.985687 46.240772 -15.945158
-41.875256 46.214817 -15.983038
-41.893372 46.227962 -16.007477
-41.884724 46.249516 -15.955260
-41.912018 46.229214 -16.027508
-41.941135 46.226692 -16.035624
-41.968433 46.225403 -15.964578
-41.948795 46.227448 -15.934394
-41.928764 46.230362 -16.052155
-41.929081 46.243401 -15.907767
-41.908157 46.244442 -15.878093
-41.835178 46.236080 -16.025051
-41.931400 46.247597 -15.936062
-41.864410 46.242767 -16.025810
-41.892311 46.220551 -16.023134
-41.962257 46.243313 -15.935081
-41.869606 46.248539 -15.996589
-41.917625 46.221237 -16.025322
-41.888500 46.222763 -16.017179
-41.944584 46.224926 -15.955336
-41.924923 46.224972 -15.925096
-41.905807 46.229862 -16.043301
-41.906033 46.244965 -15.896742
-41.907917 46.245144 -15.925838
-41.841240 46.231342 -16.014420
-41.939766 46.249832 -15.925498
-41.868214 46.248104 -16.013355
-41.874500 46.233376 -15.929682
-41.894081 46.252747 -16.016964
-41.845249 46.250107 -15.986082
-41.863136 46.254314 -16.008036
-41.901592 46.250568 -15.913420
-41.920338 46.225426 -15.947030
-41.881775 46.212395 -16.033573
-41.882126 46.252552 -15.885480
-41.915390 46.250401 -15.914961
-41.850998 46.242985 -15.917556
-41.869259 46.248299 -16.007206
-41.877254 46.243076 -15.904888
-41.896156 46.245983 -15.937051
-41.856056 46.248928 -16.025484
-41.860416 46.228230 -15.905967
-41.891445 46.242931 -15.905511
-41.846142 46.232815 -15.997923
-41.871376 46.245533 -15.927402
-41.831669 46.236443 -16.016811
-41.846943 46.227055 -15.918568
