# .PCD v0.7 - Point Cloud Data file format
VERSION 0.7
FIELDS x y z
SIZE 4 4 4
TYPE F F F
COUNT 1 1 1
WIDTH 59
HEIGHT 1
VIEWPOINT 0 0 0 1
POINTS 59
DATA ascii
-12.611643 35.931622 -4.353909
-12.738870 35.953167 -4.451992
-12.521840 35.971912 -4.347347
-12.341384 35.983368 -4.271852
-12.644268 35.965801 -4.446394
-12.097408 36.021183 -4.172533
-11.858194 36.063656 -4.090360
-12.000701 36.047844 -4.173217
-11.765456 36.089481 -4.088078
-12.150537 36.004070 -4.268841
-11.908050 36.099514 -4.175615
-11.223697 36.240837 -3.947963
-11.215800 36.202976 -3.838829
-11.131794 36.267208 -3.844783
-11.247166 36.192486 -3.846779
-11.245885 36.222336 -3.876677
-11.159933 36.251480 -3.852413
-11.154417 36.258007 -3.875987
-10.456149 33.102161 -3.639251
-10.415668 32.926777 -3.635657
-10.441651 33.100266 -3.612166
-11.183153 36.239124 -3.922967
-10.470745 33.123734 -3.621197
-10.434677 33.124340 -3.643477
-10.448718 33.083984 -3.612117
-10.417919 33.101238 -3.611684
-11.101854 36.232948 -3.771506
-10.446650 33.123802 -3.620499
-11.208704 36.246593 -3.976398
-10.451240 33.032784 -3.608373
-10.427613 33.096531 -3.614305
-10.399476 33.146427 -3.621069
-11.011430 36.265873 -3.771332
-10.421332 32.926933 -3.633770
-10.438139 33.091019 -3.618871
-10.407713 33.117260 -3.617312
-10.459811 33.087227 -3.652282
-10.446059 33.076599 -3.623382
-10.417295 33.106861 -3.620762
-10.384815 33.130783 -3.618561
-10.413590 32.928139 -3.632287
-10.423580 33.080700 -3.621610
-10.394574 33.112934 -3.620425
-10.435400 34.218307 -3.625011
-10.406582 33.126835 -3.629249
-9.814231 36.584587 -3.338463
-9.722377 36.612732 -3.337508
-9.637572 36.658710 -3.339170
-10.007742 36.551956 -3.391361
-9.928947 36.623390 -3.407696
-9.825226 36.624077 -3.413003
-9.764900 36.647377 -3.319054
-9.695513 36.633144 -3.274291
-9.613716 36.664837 -3.243606
-9.601058 36.649082 -3.273337
-9.576730 36.668190 -3.239202
-9.117142 36.813877 -3.043040
-9.039385 36.873993 -3.058509
-8.949612 36.904938 -3.067751
