# .PCD v0.7 - Point Cloud Data file format
VERSION 0.7
FIELDS x y z
SIZE 4 4 4
TYPE F F F
COUNT 1 1 1
WIDTH 103
HEIGHT 1
VIEWPOINT 0 0 0 1
POINTS 103
DATA ascii
-3.960606 35.211845 0.694924
-4.006572 35.162785 0.671969
-3.895724 35.157791 0.757645
-3.994452 35.095615 0.660563
-3.995103 35.061813 0.702951
-3.877862 34.965443 0.775375
-3.991982 34.909267 0.664338
-3.992807 34.871639 0.715181
-3.847421 34.752388 0.769051
-3.950430 34.708607 0.675072
-3.955047 34.670830 0.719845
-3.979396 35.496883 0.653435
-4.009622 35.441978 0.630102
-4.016782 35.522518 0.641516
-3.998131 35.407566 0.665658
-3.918379 35.421715 0.743092
-4.002520 35.365265 0.681413
-3.990107 35.353672 0.663036
-4.007389 35.310368 0.662901
-4.019133 35.318172 0.679803
-4.009048 35.274086 0.687373
-3.977031 35.295380 0.767832
-4.019907 35.234528 0.698672
-4.000806 35.311089 0.637870
-3.930511 35.389442 0.712829
-3.988330 35.278397 0.684992
-4.003434 35.324341 0.642386
-4.000577 35.237804 0.697681
-3.895620 35.232433 0.762254
-3.994637 35.292229 0.689823
-3.993026 35.202255 0.739858
-3.987721 35.166698 0.664836
-3.966768 35.229939 0.649491
-4.012974 35.250584 0.699908
-3.994964 35.128811 0.690362
-3.971485 35.192421 0.678553
-3.961203 35.233604 0.817779
-4.007253 35.090191 0.708814
-3.982512 35.153561 0.699527
-3.974121 35.120995 0.752667
-3.883852 35.083775 0.762022
-3.983702 35.023869 0.661895
-3.905903 34.745640 0.688391
-3.984143 34.987896 0.706424
-3.931044 34.698956 0.694237
-3.874696 34.687542 0.768963
-3.945594 34.653183 0.717892
-3.966733 34.646000 0.682553
-3.931031 34.730522 0.687247
-3.966554 34.605362 0.727100
-3.940925 34.687580 0.719159
-3.926667 34.745552 0.663008
-3.843626 34.618935 0.794206
-3.929751 34.644901 0.781827
-3.926729 34.705757 0.709346
-3.962823 34.580605 0.675666
-3.944078 34.664967 0.732493
-3.958608 34.538673 0.734740
-3.937026 34.516739 0.685695
-4.009427 35.473427 0.696355
-4.007567 35.415855 0.682049
-3.814553 35.407841 1.420816
-4.003111 35.380596 0.753985
-3.845998 35.429749 1.402919
-3.813340 35.401100 1.409577
-3.806289 35.339119 1.419071
-3.793093 35.250435 1.432917
-3.987563 35.226486 0.712013
-3.964849 35.126122 0.703058
-3.999821 35.122231 0.724535
-3.986715 35.162460 0.712057
-3.999954 35.142502 0.719008
-3.967246 35.038319 0.713017
-3.974149 35.086273 0.755994
-4.035422 35.098072 0.711528
-4.016092 35.129288 0.718550
-4.034688 35.118999 0.712698
-4.005391 35.136639 0.712728
-3.760509 35.058598 1.431475
-3.564265 34.818047 1.839869
-3.760555 34.966877 1.434766
-4.070119 35.074898 0.702793
-4.053996 35.106888 0.709857
-4.074659 35.157566 0.719993
-4.070224 35.096210 0.703587
-4.042922 35.114075 0.711024
-3.741348 34.787365 1.441427
-4.061534 35.043221 0.699899
-4.079429 35.087101 0.712881
-4.087239 35.095284 0.691165
-3.951533 34.769497 0.730086
-3.996521 34.666172 0.737170
-3.977163 34.699139 0.735355
-3.993047 34.688290 0.736077
-3.943043 34.615330 0.741176
-3.938091 34.545769 0.723251
-4.037092 34.641491 0.734713
-4.033253 34.729046 0.711533
-4.020448 34.676044 0.732648
-4.036445 34.666286 0.729396
-4.009377 34.677376 0.741255
-4.027008 34.557560 0.742073
-4.019955 34.476315 0.739496
