# .PCD v0.7 - Point Cloud Data file format
VERSION 0.7
FIELDS x y z
SIZE 4 4 4
TYPE F F F
COUNT 1 1 1
WIDTH 16
HEIGHT 1
VIEWPOINT 0 0 0 1
POINTS 16
DATA ascii
-6.179786 36.494900 -0.122885
-6.194996 37.112629 -0.131304
-6.232545 36.954617 -0.177661
-6.191422 36.697956 -0.138504
-6.207788 36.519100 -0.139897
-6.401661 37.025162 -0.146849
-6.393402 37.042431 -0.153115
-6.366857 37.064465 -0.124727
-6.183097 37.150085 -0.123503
-6.179357 36.954247 -0.130635
-6.185699 37.029568 -0.192001
-6.416369 37.093590 -0.170817
-6.406267 36.804203 -0.160605
-6.454894 37.134869 -0.188928
-6.209338 37.150078 -0.199654
-6.429197 37.219635 -0.178044
