# .PCD v0.7 - Point Cloud Data file format
VERSION 0.7
FIELDS x y z
SIZE 4 4 4
TYPE F F F
COUNT 1 1 1
WIDTH 12
HEIGHT 1
VIEWPOINT 0 0 0 1
POINTS 12
DATA ascii
-13.027513 43.034348 -2.783073
-13.041181 43.212566 -2.783943
-13.048960 43.272366 -2.782771
-13.107318 43.228924 -2.823190
-13.054977 43.505581 -2.798607
-13.017643 43.271416 -2.858136
-13.020723 43.044098 -2.805687
-13.004378 43.219593 -2.787144
-12.996337 43.421528 -2.793470
-13.014039 43.157410 -2.856109
-13.037806 43.514351 -2.810565
-13.013091 43.026630 -2.847060
