# .PCD v0.7 - Point Cloud Data file format
VERSION 0.7
FIELDS x y z
SIZE 4 4 4
TYPE F F F
COUNT 1 1 1
WIDTH 13
HEIGHT 1
VIEWPOINT 0 0 0 1
POINTS 13
DATA ascii
-16.906742 48.212837 -6.479326
-16.608292 48.253479 -6.472805
-16.757425 48.217468 -6.487344
-16.552509 48.241009 -6.312517
-16.638830 48.247128 -6.629593
-16.675406 48.226849 -6.791180
-17.081511 48.227585 -5.745006
-16.696005 48.216240 -6.549283
-17.102854 48.209972 -5.839837
-16.645248 48.222698 -6.621495
-17.005268 48.239944 -5.902059
-17.070177 48.203476 -6.041604
-16.828480 48.260632 -6.206657
