# .PCD v0.7 - Point Cloud Data file format
VERSION 0.7
FIELDS x y z
SIZE 4 4 4
TYPE F F F
COUNT 1 1 1
WIDTH 36
HEIGHT 1
VIEWPOINT 0 0 0 1
POINTS 36
DATA ascii
-19.591839 44.125107 -5.258198
-19.597273 44.405476 -5.235978
-19.608925 44.438972 -5.248247
-19.618500 44.630726 -5.237835
-19.487476 44.686951 -5.205345
-19.490915 44.712616 -5.210301
-19.610670 44.715546 -5.276256
-19.542515 44.723259 -5.243260
-19.586332 44.719666 -5.240417
-19.621830 44.743439 -5.275854
-19.498993 44.099770 -5.273648
-19.555758 44.296017 -5.283082
-19.522171 44.397747 -5.259506
-19.695009 44.323475 -5.276384
-19.553400 44.295479 -5.296142
-19.546824 44.775810 -5.288130
-19.532431 44.518784 -5.289508
-19.518192 44.471596 -5.254514
-19.520491 44.547466 -5.302190
-19.530069 44.579964 -5.274840
-19.667219 44.548038 -5.292282
-19.509182 44.290100 -5.255171
-19.540108 44.350452 -5.311051
-19.515657 44.063911 -5.264168
-19.565826 44.552475 -5.296159
-19.574562 44.736290 -5.256603
-19.584635 44.737988 -5.280462
-19.519142 44.158440 -5.251618
-19.617470 44.149685 -5.287650
-19.545153 44.369106 -5.257607
-19.537912 44.459293 -5.308122
-19.558855 44.652725 -5.263944
-19.556166 44.643764 -5.275314
-19.558321 44.764973 -5.264723
-19.561068 44.727287 -5.311523
-19.561760 44.712158 -5.315511
