# .PCD v0.7 - Point Cloud Data file format
VERSION 0.7
FIELDS x y z
SIZE 4 4 4
TYPE F F F
COUNT 1 1 1
WIDTH 90
HEIGHT 1
VIEWPOINT 0 0 0 1
POINTS 90
DATA ascii
-14.241554 35.554680 -3.258271
-14.260069 35.646248 -3.216796
-14.192227 35.600170 -3.257929
-14.315381 35.674015 -3.182091
-14.322779 35.525066 -3.232612
-14.331051 35.605633 -3.188339
-14.202556 35.599564 -3.162490
-14.332579 35.533737 -3.193956
-14.313821 35.532787 -3.180197
-14.396924 35.981247 -3.281876
-14.241220 35.951595 -3.249046
-14.228703 35.759022 -3.253526
-14.299663 36.080093 -3.189098
-14.252169 35.852489 -3.204087
-14.378188 35.685009 -3.247949
-14.533280 35.836472 -3.220310
-14.464673 35.810677 -3.223233
-14.545979 35.850399 -3.236194
-14.413106 35.807381 -3.218874
-14.541598 35.910530 -3.228401
-14.402192 35.865280 -3.211385
-14.498857 36.062328 -3.245328
-14.417777 35.966415 -3.149863
-14.346073 35.988564 -3.230621
-14.375693 35.716022 -3.229097
-14.227361 35.623447 -3.236064
-14.313130 35.878750 -3.284915
-14.246418 35.715744 -3.171863
-14.240994 35.690033 -3.245385
-14.329052 35.991196 -3.217285
-14.306136 35.856594 -3.245847
-14.305351 35.779652 -3.267647
-14.236172 35.757866 -3.187167
-14.341380 35.852558 -3.237029
-14.239823 35.972858 -3.191049
-14.448563 36.116135 -3.123822
-14.472270 36.056164 -3.138857
-14.267550 35.843594 -3.203310
-14.298816 35.780476 -3.228752
-14.397765 35.982754 -3.242003
-14.246439 35.867062 -3.174740
-14.407530 36.096214 -3.071548
-14.247456 35.884621 -3.232886
-14.309793 36.217670 -3.269739
-14.290394 36.281094 -3.208635
-14.246725 36.312149 -3.245743
-14.312139 36.041927 -3.274757
-14.304168 36.119419 -3.211078
-14.315450 36.114895 -3.269416
-14.319354 36.190502 -3.279928
-14.269341 36.340607 -3.186732
-14.296206 35.704086 -3.236046
-14.299835 35.686836 -3.204017
-14.357803 35.868889 -3.211729
-14.349501 35.920563 -3.207281
-14.345876 35.979126 -3.214723
-14.321239 35.870720 -3.183413
-14.348730 36.066448 -3.207909
-14.234140 35.776833 -3.215679
-14.236893 35.842758 -3.200796
-14.246188 35.919228 -3.197388
-14.393806 36.068855 -3.067471
-14.240399 35.993626 -3.189629
-14.431739 35.742546 -3.221779
-14.595341 35.960453 -3.233722
-14.478157 35.880913 -3.261837
-14.414443 35.643841 -3.241537
-14.504337 35.659859 -3.271500
-14.392095 35.784470 -3.214034
-14.406322 35.669933 -3.281589
-14.610073 35.878181 -3.262204
-14.428171 35.900208 -3.237074
-14.470961 35.827660 -3.290112
-14.693804 36.059219 -3.286442
-14.362721 35.980751 -3.229334
-14.433571 35.960606 -3.272878
-14.443637 35.653133 -3.245307
-14.519408 35.763821 -3.242743
-14.567562 35.652966 -3.299407
-14.579498 35.854046 -3.245412
-14.426507 35.813866 -3.248243
-14.573986 35.831207 -3.288426
-14.543225 35.984047 -3.239129
-14.605426 36.053799 -3.269789
-14.615896 36.258877 -3.254337
-14.565317 36.390347 -3.252081
-14.517436 36.534004 -3.247490
-14.394809 36.031387 -3.283793
-14.415159 36.235497 -3.280882
-14.450206 36.467545 -3.275793
