# .PCD v0.7 - Point Cloud Data file format
VERSION 0.7
FIELDS x y z
SIZE 4 4 4
TYPE F F F
COUNT 1 1 1
WIDTH 477
HEIGHT 1
VIEWPOINT 0 0 0 1
POINTS 477
DATA ascii
2.319728 1.266004 0.379587
2.936555 1.099733 0.678406
3.161918 1.072581 0.784715
3.023472 1.052196 1.049892
3.186116 0.993724 1.562380
2.765433 1.050845 1.253778
2.911053 0.999801 1.556200
2.895146 1.089746 0.795604
3.164456 1.069278 0.915903
2.606332 1.065463 1.236630
3.237523 1.079350 0.610890
2.729117 1.100397 0.799486
3.057023 1.018015 1.433207
2.708364 1.077390 1.164657
3.160239 1.123877 0.241610
3.181278 1.023549 1.093281
2.899143 1.119316 0.736534
2.958967 1.041893 1.329069
3.073772 0.976376 1.626555
3.104676 1.081872 0.844897
3.062886 1.064079 0.971996
3.361173 1.047223 0.966270
3.219725 1.097374 0.514886
3.018269 1.132782 0.393552
2.867064 1.057813 1.218999
3.008713 1.004531 1.495420
3.130723 1.017562 1.394436
3.075868 1.098894 0.772888
3.295406 1.059701 0.890260
3.225737 1.033491 1.014397
3.429466 1.075368 0.542260
2.916801 1.022245 1.352336
3.200041 1.109339 0.412928
3.080523 1.062575 0.881180
3.046757 1.038582 1.282343
3.250696 1.070435 0.808291
3.089576 0.996917 1.417714
3.431718 1.092628 0.438287
3.250392 1.031070 0.921596
3.243501 1.015615 1.351719
4.498429 -1.271814 2.933656
4.401007 -1.357593 2.896071
4.572134 -1.344224 2.935044
4.505859 -1.441483 2.917523
4.405414 -1.526315 2.877924
0.028312 -1.450668 1.678503
0.044480 -1.442562 1.683513
-0.004787 -1.417340 1.632456
0.012725 -1.436138 1.671532
0.032107 -1.445993 1.673583
-0.018322 -1.407750 1.635499
-0.000978 -1.413639 1.635544
0.015906 -1.459465 1.674679
-0.017318 -1.416119 1.630619
1.429531 1.138544 1.036956
1.530044 1.172861 0.743761
1.486910 1.133199 1.059295
1.531545 1.167654 0.887747
1.593877 1.196159 0.581273
1.590470 1.164579 0.758092
1.625523 1.191937 0.477442
1.550290 1.128825 1.083668
1.591964 1.157297 0.909067
1.526211 1.170566 0.863954
1.490731 1.141420 0.997584
1.664315 1.189849 0.598669
1.674794 1.192784 0.484744
1.426431 1.136105 1.135379
1.569147 1.170860 0.696218
1.655889 1.157271 0.774449
1.693971 1.183660 0.490810
1.607690 1.117456 1.104958
1.606681 1.192938 0.567562
1.658368 1.148907 0.933423
1.691019 1.171675 0.243722
1.634349 1.201135 0.420770
1.550149 1.132061 1.017906
1.478456 1.148683 0.935771
1.588648 1.160206 0.884286
1.738739 1.184523 0.617082
1.745238 1.185531 0.495122
1.786159 1.211549 0.256496
1.644393 1.185705 0.462749
1.547718 1.186136 0.640394
1.526975 1.167423 0.842171
1.623952 1.096878 0.079922
1.487831 1.129680 1.162736
1.637582 1.164545 0.712601
1.725287 1.150931 0.793825
1.672058 1.110052 1.130302
1.430168 1.145150 1.095677
1.767405 1.176358 0.506201
1.682121 1.189627 0.583999
1.729779 1.139480 0.959793
1.520831 1.069941 0.171381
1.855104 1.224965 0.078963
1.823438 1.202429 0.258661
1.576703 1.105662 0.207908
1.709811 1.196879 0.431199
1.611564 1.121682 1.039224
1.656077 1.150817 0.906643
1.541899 1.140322 0.955123
1.473225 1.156950 0.873007
1.896549 1.239720 -0.012722
1.811174 1.174185 0.634444
1.818680 1.177257 0.506501
1.862624 1.203326 0.262889
1.632528 1.193682 0.555952
1.722841 1.182409 0.477198
1.608200 1.172856 0.650694
1.597399 1.163042 0.864581
1.902321 1.225836 0.085235
1.548237 1.120257 1.188061
1.659313 1.205250 0.368171
1.794706 1.140587 0.811169
1.754380 1.111552 1.166788
1.707018 1.156215 0.728968
1.847839 1.170034 0.522626
1.492595 1.137736 1.120034
1.752572 1.179304 0.599358
1.542757 1.174310 0.817534
1.796180 1.126060 0.984101
1.802148 1.209762 0.191803
1.616892 1.083091 0.019024
1.945575 1.222765 0.083460
1.910896 1.198165 0.269132
1.623197 1.082456 0.211063
1.782276 1.187616 0.440572
1.682950 1.116255 1.065618
1.733469 1.146372 0.935074
1.604341 1.128948 0.974443
1.688288 1.191416 0.453271
1.981045 1.231547 -0.012296
1.539681 1.149581 0.892384
1.881600 1.160836 0.651768
1.778919 1.173959 0.039466
1.899108 1.170958 0.519919
1.591832 1.187147 0.591899
1.943097 1.194097 0.268288
1.706978 1.188372 0.570367
1.795298 1.172111 0.489561
1.983812 1.215646 0.086631
1.679653 1.165530 0.666083
1.663834 1.152660 0.884924
1.615627 1.112778 1.218429
1.884071 1.141170 0.837675
1.740796 1.201985 0.377636
1.920486 1.245916 -0.072326
1.780446 1.147866 0.746348
1.927265 1.160696 0.539017
1.929575 1.244973 -0.081281
1.555008 1.129314 1.144375
1.838994 1.176934 0.619840
1.896512 1.129485 1.026683
1.612209 1.166936 0.836919
1.647782 1.193480 0.422268
1.926311 1.231123 0.013624
1.890643 1.205541 0.196283
1.977362 1.178904 0.276389
2.026064 1.209547 0.086827
1.762304 1.113768 1.098063
1.890531 1.200172 0.237252
1.567811 1.058427 0.184825
1.860744 1.178328 0.450967
1.668424 1.198474 0.537422
1.793905 1.127987 0.953319
1.683730 1.127486 1.003906
2.067538 1.221360 -0.011883
1.761758 1.182122 0.464650
1.688339 1.207402 0.309584
1.999970 1.171358 0.684479
1.975556 1.157652 0.531264
2.058580 1.210318 -0.009996
1.955385 1.227836 0.039768
1.607145 1.139192 0.911739
1.632797 1.088346 -0.042634
1.836696 1.070927 0.253002
1.660325 1.175841 0.603250
1.788135 1.189983 0.125837
1.880738 1.166769 0.506014
1.787436 1.182024 0.586800
1.737256 1.144239 0.908308
1.752121 1.154181 0.681443
1.905089 1.094577 1.228536
1.645730 1.083894 0.005419
1.871849 1.147455 0.769861
2.005994 1.236747 -0.073905
1.811295 1.187725 0.383964
2.008695 1.148330 0.556389
2.027088 1.242825 -0.084754
1.627395 1.124819 1.175788
1.919435 1.166566 0.637231
1.970907 1.114006 1.054000
1.673664 1.152584 0.852207
1.920599 1.087258 0.086549
2.010823 1.219934 0.013026
1.978126 1.198307 0.200726
1.881944 1.062702 0.265204
1.725262 1.188203 0.431698
1.981997 1.195913 0.244734
1.949196 1.173024 0.462427
1.945408 1.254102 -0.129912
1.879151 1.208155 0.209460
1.912215 1.142362 1.001062
1.564437 1.067450 0.156073
1.745901 1.191147 0.550838
1.757146 1.118043 1.028278
1.956057 1.094007 -0.005223
1.841221 1.173807 0.477057
2.101941 1.170249 0.555015
2.089374 1.161938 0.706903
1.931101 1.074969 -0.004467
1.771847 1.202134 0.317044
2.052883 1.223629 0.041276
1.679584 1.130770 0.934122
1.892177 1.045688 0.256162
1.958302 1.242436 -0.059906
1.926608 1.218774 0.130785
1.732808 1.164504 0.616613
1.965180 1.157418 0.521426
1.983428 1.084048 1.261898
1.867882 1.173665 0.603209
2.045861 1.120353 0.880432
1.800696 1.126844 0.926572
1.839552 1.150784 0.701921
1.966189 1.233892 -0.001911
2.108510 1.233584 -0.077369
2.136067 1.158872 0.585127
1.903769 1.184413 0.395465
2.115603 1.230646 -0.087349
1.692810 1.112355 1.201103
2.034820 1.174100 0.665903
2.068235 1.109411 1.094491
1.865108 1.231281 0.056738
1.637537 1.075981 -0.036452
2.189240 1.175277 0.301495
1.759073 1.151120 0.879696
1.870707 1.073113 0.189415
1.928048 1.099737 1.161905
1.927359 1.106639 0.014912
1.807741 1.181889 0.443138
1.884571 1.076712 0.234512
2.034653 1.161699 0.473824
1.969642 1.201898 0.214926
1.977642 1.119906 1.023287
2.280514 1.211950 -0.010821
1.867828 1.213201 0.173652
1.830558 1.105575 1.053621
2.189369 1.156900 0.568391
1.823375 1.180805 0.564224
2.180772 1.149480 0.731307
1.926678 1.165458 0.491484
2.278564 1.204935 -0.011874
1.929425 1.087319 0.042811
2.252460 1.184270 0.292874
1.859353 1.195851 0.324508
1.762005 1.125288 0.961568
2.066764 1.072482 1.297269
2.049824 1.234264 -0.063454
2.313253 1.210990 0.093343
2.119267 1.100932 0.899701
2.055612 1.148035 0.538856
2.010122 1.205544 0.132166
1.816277 1.157128 0.633049
1.991280 1.187192 0.631968
1.915027 1.138233 0.970274
1.923983 1.142380 0.721341
2.058642 1.137554 0.819817
2.056708 1.223685 -0.002478
2.225484 1.143455 0.604496
1.981014 1.095200 -0.066869
2.006229 1.184081 0.408025
1.802113 1.124632 1.255799
2.120243 1.159672 0.686270
2.151610 1.091853 1.126819
2.311676 1.174927 0.315118
1.955637 1.224073 0.056202
2.362478 1.201794 0.101535
2.006428 1.085214 1.191240
2.198076 1.197781 0.211894
1.821537 1.130732 0.894933
1.979074 1.236020 -0.053601
2.155072 1.166296 0.493487
1.892229 1.172565 0.453559
2.067014 1.109359 1.055699
1.999157 1.155645 0.215813
2.280797 1.141522 0.582764
2.274173 1.134002 0.755689
1.929931 1.103984 1.091157
1.899852 1.166454 0.576568
1.963346 1.207946 0.177152
2.016139 1.155089 0.505908
2.358905 1.174957 0.301355
2.145121 1.054939 1.327567
2.224620 1.095410 0.930206
1.955847 1.191535 0.334018
1.947340 1.107929 -0.056756
2.178021 1.151583 0.562518
1.843440 1.114801 0.986965
1.900682 1.077316 0.125818
2.063742 1.165817 0.645230
2.004435 1.127702 0.999695
1.917724 1.156682 0.655611
2.043381 1.148860 0.752023
2.135073 1.117134 0.837094
2.317898 1.126019 0.623854
1.950241 1.095379 0.000187
2.241957 1.075237 1.164175
2.217670 1.146201 0.708692
1.871528 1.107110 1.283083
2.421117 1.162549 0.328586
2.088800 1.069656 1.222577
2.301555 1.186484 0.217354
2.041165 1.209845 0.055582
2.325345 1.198298 0.009542
1.940894 1.142109 0.936659
2.253510 1.154922 0.506922
2.083612 1.232836 -0.058054
2.309388 1.183960 0.274379
1.982695 1.164201 0.467004
2.374225 1.123124 0.597114
2.155400 1.092783 1.088056
2.364573 1.113512 0.779011
2.024303 1.096393 1.126616
2.466368 1.159623 0.308789
2.026267 1.178970 0.603331
2.159542 1.171604 0.532764
2.040861 1.188682 0.179456
2.281450 1.139128 0.582967
2.018366 1.162236 0.338180
2.256118 1.213018 0.138507
1.955809 1.119158 1.028605
2.088833 1.112167 1.028046
2.169171 1.158334 0.668736
2.234468 1.105630 0.862530
2.138810 1.137393 0.773453
2.265762 1.205238 -0.006496
2.219157 1.172338 0.434073
2.310088 1.127725 0.730043
1.951911 1.093512 1.317438
2.536549 1.149153 0.342062
2.178148 1.055049 1.257943
2.408033 1.172166 0.222795
2.436846 1.186052 0.008019
2.360949 1.142504 0.522382
2.023321 1.126607 0.961008
1.917702 1.071574 0.055090
2.409856 1.165599 0.283764
2.249759 1.077168 1.123436
1.966138 1.095510 -0.052511
2.082169 1.155814 0.480483
2.299102 1.187966 0.236571
2.110698 1.079821 1.156965
2.238007 1.147221 0.544015
2.127721 1.170527 0.621816
2.461880 1.172607 0.047057
1.920425 1.054497 0.169006
2.379871 1.121675 0.601345
2.354617 1.195725 0.140896
2.174826 1.183821 0.355135
2.180220 1.096586 1.059420
2.333859 1.090106 0.887927
2.257607 1.138880 0.687066
2.038247 1.100625 1.053931
2.227240 1.118927 0.792790
2.125614 1.144722 0.700647
2.446620 1.039843 1.248951
2.324613 1.159943 0.446528
2.031297 1.075902 1.350752
2.525499 1.159832 0.228288
2.460391 1.122084 0.535738
2.110732 1.111071 0.987370
2.538306 1.157203 0.295334
2.595305 1.083331 0.841926
2.211616 1.159350 0.500175
2.532693 1.048733 1.018409
2.405583 1.172621 0.243004
2.209060 1.066168 1.194379
2.346440 1.134758 0.562478
2.227169 1.157063 0.640243
2.298874 1.194046 0.189828
2.478117 1.185396 0.144439
2.287582 1.084927 1.096885
2.646071 1.072456 0.697086
2.361034 1.122374 0.708475
2.285317 1.172427 0.365627
2.129658 1.084030 1.084301
2.326666 1.100396 0.816168
2.560920 1.022071 1.296374
2.222071 1.127232 0.720031
2.428081 1.140528 0.457913
2.369824 1.019712 1.334662
2.730414 1.078666 0.657515
2.721654 1.065675 0.876394
2.216127 1.099442 1.020834
2.454456 1.039799 1.201192
2.651029 1.031083 1.052843
2.849690 1.115440 0.338299
2.531057 1.161231 0.251539
2.316077 1.143898 0.515602
2.325622 1.137573 0.658613
2.410377 1.179709 0.193290
2.542628 1.049948 0.942667
2.787429 1.057809 0.729636
2.597616 1.168053 0.146899
2.401802 1.159000 0.377118
2.232051 1.068364 1.119718
2.703164 1.010132 1.358949
2.324509 1.109707 0.741430
2.483133 1.002932 1.381090
2.938814 1.099733 0.390595
2.656249 1.077969 0.815379
2.878788 1.065075 0.683095
2.702240 1.086097 0.570639
2.882968 1.054880 0.922051
2.583743 1.026958 1.253714
2.787341 1.015348 1.093356
2.314511 1.081818 1.052209
2.987126 1.092985 0.348762
2.504272 1.171709 0.054690
2.409783 1.027798 1.268111
2.434534 1.130410 0.532095
2.744073 1.070008 0.673724
2.670973 1.034272 0.977156
2.541880 1.168319 0.198852
2.939773 1.041101 0.765203
2.484322 1.039593 1.165539
2.821449 0.983273 1.409297
2.552463 1.064196 0.871014
2.527275 1.144526 0.390629
2.600420 0.984103 1.430507
3.085215 1.077185 0.409085
2.799603 1.062250 0.851927
2.947889 1.115596 0.250945
2.849637 1.071515 0.593209
2.978341 1.014245 0.948190
2.932645 1.099828 0.331769
2.719031 1.009056 1.308212
3.167542 1.080454 0.363466
2.424895 1.063119 1.087620
2.531101 1.010976 1.315570
2.698723 1.077148 0.623770
2.890447 1.051332 0.704254
2.828287 1.022449 1.022785
3.087113 1.017387 0.798681
2.617634 1.024740 1.215059
2.980664 0.965198 1.478870
2.737228 1.072510 0.792919
2.685842 1.046502 0.903510
2.739674 0.967131 1.491021
2.443803 1.028947 1.192485
2.954944 1.044467 0.891497
2.815405 1.087999 0.506372
2.573341 1.078441 0.797414
3.097903 0.979650 1.188470
3.020023 1.057852 0.619869
3.179599 1.005265 1.005998
3.103069 1.083259 0.348404
2.851317 0.985147 1.360637
2.547248 1.045337 1.129078
2.659412 0.991100 1.365023
2.959459 1.111837 0.281177
2.704890 1.089759 0.733096
2.758934 1.006823 1.267576
2.895589 1.057742 0.829528
2.853172 1.036656 0.948195
2.857963 0.937247 1.539334
3.113273 1.021643 0.932024
2.574143 1.011082 1.239971
2.792210 1.104502 0.416586
2.986821 1.074353 0.529040
3.262790 1.066604 0.266970
3.146423 1.023266 0.637168
2.693758 1.052791 0.822792
3.011558 0.964068 1.426187
2.681587 1.026481 1.174565
2.804682 0.972095 1.424540
