# .PCD v0.7 - Point Cloud Data file format
VERSION 0.7
FIELDS x y z
SIZE 4 4 4
TYPE F F F
COUNT 1 1 1
WIDTH 31
HEIGHT 1
VIEWPOINT 0 0 0 1
POINTS 31
DATA ascii
3.128417 -2.327313 0.733331
3.071253 -2.324810 1.104138
3.097786 -2.376526 1.320108
3.138312 -2.327493 0.781711
2.947887 -2.307635 0.704638
3.033384 -2.277045 0.631216
3.059605 -2.321826 1.216474
2.893858 -2.307741 1.063404
2.906415 -2.344099 1.263659
3.142247 -2.329570 0.824972
2.948765 -2.298712 0.747178
3.086808 -2.305854 0.749166
2.973080 -2.353468 1.333182
2.877874 -2.272460 0.611324
2.887233 -2.304610 1.171775
3.054104 -2.337740 1.327357
2.752038 -2.330845 1.222005
3.037776 -2.366792 1.400568
3.180250 -2.332256 0.862514
2.972771 -2.314708 0.792229
3.130128 -2.313732 0.868639
2.923276 -2.293178 0.724414
2.804725 -2.330008 1.280675
2.888734 -2.320424 1.280707
2.739846 -2.297484 1.136015
2.876481 -2.352279 1.347880
3.011820 -2.319278 0.825725
2.962603 -2.296940 0.838954
2.738347 -2.307153 1.239076
2.843317 -2.296310 0.789199
2.805070 -2.280114 0.810355
