# .PCD v0.7 - Point Cloud Data file format
VERSION 0.7
FIELDS x y z
SIZE 4 4 4
TYPE F F F
COUNT 1 1 1
WIDTH 57
HEIGHT 1
VIEWPOINT 0 0 0 1
POINTS 57
DATA ascii
1.332652 2.426718 0.707503
1.314245 2.411165 0.704477
1.434150 2.496045 0.932696
1.651726 2.553288 1.249177
1.575349 2.536937 1.246020
1.641066 2.530634 1.257176
1.636758 2.523847 1.257176
1.790265 2.778631 1.226313
1.638243 2.507948 1.255195
2.057961 3.047108 1.168700
1.831321 2.710139 1.214471
2.218067 3.116116 1.105016
2.102532 2.960656 1.152883
2.087645 2.937194 1.234873
2.254211 3.009916 1.084183
2.286445 2.904819 1.064320
2.490673 3.153705 0.989599
2.459283 3.139405 1.004544
2.443326 3.146822 1.006509
2.439363 3.153998 1.008499
2.519765 3.041746 0.971720
2.485393 3.027483 0.988659
2.465364 3.030972 0.991618
2.463410 3.039114 0.997611
1.464089 1.286040 1.201981
1.412090 1.232110 1.189861
1.468253 1.237172 1.139941
1.507610 1.313525 1.128006
1.844321 1.521759 1.096546
1.652871 1.389175 1.137211
2.316966 1.880783 1.452304
1.543143 1.239202 1.171987
1.919481 1.530795 1.010616
1.875908 1.501627 1.027530
2.158840 1.690813 1.245990
1.846481 1.481261 1.038461
1.818879 1.450885 1.047387
2.359742 1.825615 1.450290
2.216686 1.681214 1.136027
2.891166 2.243839 1.242176
2.441956 1.859557 0.965398
2.549737 1.938642 1.349578
2.201461 1.680700 1.206971
2.189497 1.671089 1.029934
2.173862 1.651338 1.221897
2.317306 1.720163 0.991110
2.447259 1.775104 0.951305
2.203211 1.606385 1.019859
3.388237 2.314717 0.665744
3.686721 2.514962 0.526240
3.146889 2.179657 0.730348
3.650525 2.448604 0.576154
3.502848 2.417243 0.590917
3.841781 2.527966 0.474426
3.568300 2.390568 0.552977
3.690240 2.392953 0.520121
3.486363 2.291458 0.586778
