# .PCD v0.7 - Point Cloud Data file format
VERSION 0.7
FIELDS x y z
SIZE 4 4 4
TYPE F F F
COUNT 1 1 1
WIDTH 30
HEIGHT 1
VIEWPOINT 0 0 0 1
POINTS 30
DATA ascii
3.053488 -2.348611 0.939741
3.061919 -2.376068 0.923042
3.199080 -2.388602 0.834252
3.001111 -2.399082 1.513010
2.898251 -2.338376 0.902364
3.017321 -2.353827 0.907327
2.901561 -2.358017 0.890839
3.016685 -2.364715 0.802964
3.013783 -2.402632 1.402132
2.855001 -2.387446 1.465781
2.851014 -2.332663 0.870159
2.985182 -2.339589 0.860525
3.029323 -2.393280 1.294670
3.158493 -2.369288 0.850676
2.860292 -2.350802 0.775703
2.962297 -2.332475 0.684405
2.825315 -2.358119 1.451436
2.849666 -2.382021 1.351973
2.920653 -2.367148 1.438332
3.025050 -2.382690 1.175033
2.816838 -2.316504 0.825403
2.860183 -2.373796 1.247433
2.979152 -2.350353 0.818302
2.699488 -2.364516 1.307904
2.771566 -2.355508 1.390097
2.871014 -2.374450 1.374753
2.856873 -2.369418 1.134643
2.693992 -2.348335 1.201427
2.804769 -2.325396 0.786185
2.713878 -2.354868 1.326679
