# .PCD v0.7 - Point Cloud Data file format
VERSION 0.7
FIELDS x y z
SIZE 4 4 4
TYPE F F F
COUNT 1 1 1
WIDTH 84
HEIGHT 1
VIEWPOINT 0 0 0 1
POINTS 84
DATA ascii
3.116899 1.548317 3.414677
3.200107 1.522375 3.439260
3.059091 1.499293 3.395441
3.173527 1.486331 3.435085
3.248742 1.453443 3.450629
3.116717 1.441259 3.421878
3.234173 1.425315 3.461485
3.164351 1.376281 3.438280
3.300403 1.383501 3.464977
3.282818 1.358347 3.477862
3.217003 1.313265 3.461681
3.358086 1.315510 3.488321
3.335484 1.291365 3.498224
3.265668 1.247259 3.483063
3.414789 1.245514 3.512646
3.393176 1.225339 3.526577
3.303341 1.174318 3.492415
0.927215 -2.510264 2.142307
0.868846 -2.468145 2.078781
0.778780 -2.302289 2.122506
0.887178 -2.465396 2.113939
0.844005 -2.448382 2.075147
0.861589 -2.626388 2.197519
0.712962 -2.282666 2.095942
0.851275 -2.438392 2.073400
0.819344 -2.445694 2.078372
0.832661 -2.596561 2.182978
0.641921 -2.237903 2.048603
0.753503 -2.539721 2.121750
0.795709 -2.560694 2.155517
0.850260 -2.622705 2.203893
0.607517 -2.154302 2.053534
0.561490 -2.148878 1.963671
0.548627 -2.128600 2.021988
0.500600 -2.120212 1.933157
0.517253 -2.049942 2.021868
0.482374 -2.062625 1.953808
0.421491 -1.947434 1.985946
0.472930 -2.228438 2.027343
0.467427 -2.034236 1.997200
0.423245 -2.010727 1.899484
0.399548 -1.918575 1.969370
0.374647 -1.929741 1.964289
0.416555 -2.012494 1.966586
0.375589 -2.010198 1.893675
0.354777 -1.908916 1.952634
0.328754 -1.907007 1.938669
0.376823 -1.909861 1.965624
0.410237 -1.957600 1.967163
0.399964 -1.922714 1.969503
0.356136 -1.930319 1.880526
0.269021 -1.785498 1.924967
0.281766 -1.873197 1.903148
0.344722 -2.098319 1.972024
0.309962 -1.894217 1.930938
0.366464 -1.948903 1.947409
0.331040 -1.898164 1.942906
0.354269 -1.920063 1.951705
0.309299 -1.911627 1.856882
0.232429 -1.802080 1.831979
0.259750 -1.836184 1.867655
0.314225 -1.888832 1.879145
0.285156 -1.876390 1.911288
0.306462 -1.905338 1.923034
0.281445 -2.004767 1.940176
0.191523 -1.779344 1.809345
0.214684 -1.795280 1.823195
0.268210 -1.853940 1.835631
0.233810 -1.804207 1.831125
0.252069 -1.827099 1.833931
0.153788 -1.775782 1.807523
0.230580 -1.862397 1.836702
0.173819 -1.776552 1.800521
0.191999 -1.790517 1.811409
0.210422 -1.830523 1.826061
0.121782 -1.852923 1.884945
0.200714 -1.954550 1.917989
0.142918 -1.864758 1.885842
0.163414 -1.912977 1.925416
-0.526571 -4.084770 1.372591
-0.461049 -3.927142 1.373125
-0.607046 -3.973511 1.347627
-0.658763 -3.734562 1.279883
-0.732018 -3.650341 1.263648
