# .PCD v0.7 - Point Cloud Data file format
VERSION 0.7
FIELDS x y z
SIZE 4 4 4
TYPE F F F
COUNT 1 1 1
WIDTH 13
HEIGHT 1
VIEWPOINT 0 0 0 1
POINTS 13
DATA ascii
2.174105 -0.729887 2.658230
2.158076 -0.778938 2.654673
2.238262 -0.915125 2.666806
2.204323 -0.961045 2.651165
2.167392 -1.005941 2.633534
2.209721 -1.036695 2.644167
2.173728 -1.079614 2.627615
2.188799 -1.201325 2.629496
2.215706 -1.371654 2.625236
2.164750 -1.412634 2.605627
2.204066 -1.446494 2.618144
2.238677 -1.515020 2.652714
2.148116 -1.482335 2.591634
