# .PCD v0.7 - Point Cloud Data file format
VERSION 0.7
FIELDS x y z
SIZE 4 4 4
TYPE F F F
COUNT 1 1 1
WIDTH 13
HEIGHT 1
VIEWPOINT 0 0 0 1
POINTS 13
DATA ascii
-0.069386 3.427642 2.337423
0.006266 3.589317 2.448043
-0.047660 3.580374 2.388125
0.084201 3.525790 2.407958
-0.103791 3.594117 2.352483
0.035460 3.695573 2.462159
-0.022150 3.755012 2.451064
-0.005503 4.107311 2.448182
-0.077994 3.730306 2.368954
0.066083 3.761138 2.450783
0.005289 3.987776 2.421673
0.013093 3.945019 2.493141
0.109167 3.967162 2.499031
