# .PCD v0.7 - Point Cloud Data file format
VERSION 0.7
FIELDS x y z
SIZE 4 4 4
TYPE F F F
COUNT 1 1 1
WIDTH 51
HEIGHT 1
VIEWPOINT 0 0 0 1
POINTS 51
DATA ascii
1.537445 -1.687610 2.536891
1.324551 -1.470866 2.462698
1.396165 -1.576099 2.490867
1.499192 -1.712965 2.526763
1.284208 -1.487124 2.439655
1.353861 -1.594382 2.467805
1.434651 -1.709266 2.475878
1.246878 -1.505412 2.422593
1.311581 -1.613691 2.446735
1.399437 -1.737665 2.472724
1.210546 -1.523702 2.406529
1.269278 -1.630988 2.423679
1.341938 -1.737970 2.429803
1.172202 -1.540005 2.388482
1.229012 -1.651326 2.406598
1.254966 -1.695147 2.333241
1.133850 -1.555306 2.369442
1.168421 -1.641559 2.350766
1.196355 -1.686441 2.285395
1.098521 -1.573642 2.357373
1.090541 -1.603649 2.256171
1.055074 -1.579926 2.328406
0.993332 -1.557059 2.258684
0.930486 -1.526149 2.182029
1.776250 -1.744644 2.644471
1.607657 -1.621837 2.579002
1.722106 -1.766245 2.622290
1.662461 -1.717994 2.595508
1.500389 -1.575179 2.536173
1.566576 -1.650334 2.567805
1.657861 -1.776884 2.585163
1.607269 -1.735608 2.571354
1.460215 -1.598666 2.524011
1.515354 -1.665853 2.539673
1.590502 -1.779535 2.542082
1.411965 -1.613166 2.497894
1.469183 -1.686379 2.520517
1.366719 -1.629689 2.478768
1.419953 -1.701919 2.496388
1.424335 -1.757537 2.470065
1.312381 -1.635216 2.442700
1.369696 -1.714448 2.468277
1.330495 -1.716203 2.375237
1.275194 -1.658738 2.436539
1.295074 -1.693002 2.396350
1.259917 -1.700844 2.319280
1.219788 -1.659284 2.398502
1.216371 -1.663566 2.316475
1.141962 -1.621774 2.310682
1.165986 -1.667095 2.284424
1.078321 -1.602287 2.250769
