# .PCD v0.7 - Point Cloud Data file format
VERSION 0.7
FIELDS x y z
SIZE 4 4 4
TYPE F F F
COUNT 1 1 1
WIDTH 68
HEIGHT 1
VIEWPOINT 0 0 0 1
POINTS 68
DATA ascii
-0.690412 -1.936427 -0.128192
-0.694335 -1.944305 -0.049265
-0.698324 -1.941673 -0.108216
-0.680130 -1.941874 -0.090153
-0.687063 -1.946940 -0.086181
-0.729927 -1.945013 0.003907
-0.738878 -1.932571 -0.131905
-0.741815 -1.937450 -0.051946
-0.744803 -1.932833 -0.109879
-0.722623 -1.943130 0.011049
-0.728598 -1.938048 -0.090867
-0.732549 -1.936118 -0.085824
-0.734496 -1.939046 -0.000844
-0.717411 -1.945125 0.008112
-0.776418 -1.934167 0.002260
-0.718426 -1.943383 -0.060867
-0.723378 -1.943272 -0.072843
-0.730263 -1.945517 0.040171
-0.786347 -1.923731 -0.134576
-0.788235 -1.928490 0.120393
-0.790290 -1.930604 -0.054637
-0.793268 -1.924994 -0.112559
-0.709176 -1.940746 -0.029740
-0.771111 -1.940307 0.011310
-0.715101 -1.941145 0.005286
-0.716116 -1.942469 -0.057731
-0.777070 -1.933215 -0.092584
-0.783006 -1.933292 -0.087558
-0.784966 -1.937221 -0.001591
-0.766892 -1.944316 0.009351
-0.764918 -1.936564 -0.060568
-0.825901 -1.930341 0.001525
-0.769864 -1.934466 -0.071521
-0.778756 -1.942693 0.040426
-0.836804 -1.919902 -0.137311
-0.838760 -1.919777 -0.056295
-0.844721 -1.922167 -0.115304
-0.754675 -1.931944 -0.027422
-0.762609 -1.936671 -0.055447
-0.819597 -1.933491 0.011605
-0.763586 -1.938357 0.008541
-0.825545 -1.926400 -0.093291
-0.772480 -1.940210 0.085563
-0.830487 -1.924474 -0.088247
-0.833450 -1.929397 -0.002289
-0.813391 -1.934518 0.011672
-0.812402 -1.928753 -0.060266
-0.872398 -1.917506 -0.000127
-0.818337 -1.926661 -0.071217
-0.825263 -1.933871 0.040732
-0.802165 -1.926151 -0.025147
-0.809104 -1.928879 -0.053153
-0.810089 -1.930569 0.011835
-0.864111 -1.918661 0.010967
-0.870045 -1.911580 -0.093931
-0.819987 -1.934407 0.087834
-0.878958 -1.916572 -0.002951
-0.861883 -1.927718 0.012951
-0.860883 -1.920950 -0.059976
-0.867820 -1.923869 -0.069986
-0.873761 -1.927058 0.041006
-0.848666 -1.917360 -0.022853
-0.855600 -1.919102 -0.049850
-0.857590 -1.923787 0.015106
-0.864515 -1.921591 0.089164
-0.906399 -1.911924 0.015308
-0.917283 -1.908241 0.041393
-0.907087 -1.920014 0.018333
