# .PCD v0.7 - Point Cloud Data file format
VERSION 0.7
FIELDS x y z
SIZE 4 4 4
TYPE F F F
COUNT 1 1 1
WIDTH 70
HEIGHT 1
VIEWPOINT 0 0 0 1
POINTS 70
DATA ascii
0.414358 2.702263 2.926657
0.403721 2.597599 2.267776
0.378947 2.350103 2.509763
0.346630 1.987236 2.177827
0.458448 2.557257 2.249869
0.647546 3.584790 3.225893
0.514319 2.776818 2.273899
0.346414 1.880343 2.033035
0.361106 1.838440 2.030841
0.468088 2.323240 2.119200
0.493629 2.423333 2.150124
0.406457 1.951184 2.124012
0.428981 2.728217 2.395846
0.429434 2.660530 2.814342
0.445035 2.739681 2.247043
0.378510 2.336559 2.489468
0.418170 1.907259 2.120778
0.536135 2.392346 2.194201
0.458529 2.697794 2.360820
0.565907 2.477554 2.216041
0.624260 2.663329 2.219822
0.443261 2.459039 2.175867
0.351119 1.925615 2.060107
0.347732 1.886805 2.029785
0.513867 2.757172 2.274664
0.515058 2.670458 2.348008
0.493041 2.416714 2.151898
0.397224 1.928921 2.073480
0.407752 1.958661 2.117785
0.411609 2.582074 2.198377
0.518401 2.399206 2.123943
0.383911 2.332047 2.481205
0.452573 2.720139 2.251767
0.418936 2.463865 2.553505
0.565237 2.475935 2.217864
0.451723 1.969992 2.128198
0.618881 2.640766 2.208498
0.442336 2.408719 2.144221
0.353958 1.897311 2.033542
0.596143 2.487332 2.211166
0.518420 2.736647 2.274361
0.378078 1.959485 2.047211
0.393069 2.703553 2.955059
0.501250 2.422145 2.165748
0.517241 2.493654 2.136424
0.435316 2.737938 2.412618
0.414907 1.973172 2.121595
0.389453 2.382385 2.496387
0.449697 2.727535 2.253628
0.441980 2.038396 2.134305
0.340019 2.027990 2.230130
0.492606 2.801645 2.298536
0.568641 2.468436 2.216589
0.602711 2.598793 2.232854
0.437571 2.412210 2.135962
0.410578 2.264535 2.271571
0.621332 2.628264 2.207214
0.358788 1.932842 2.036494
0.513639 2.738106 2.267162
0.348400 1.827804 2.016569
0.547842 2.730683 2.244338
0.498313 2.436633 2.161593
0.424000 2.060274 2.074007
0.422556 2.019689 2.129672
0.412161 1.915604 2.113757
0.609455 2.699527 2.223507
0.566589 2.489921 2.214506
0.494831 2.143283 2.159193
0.474418 2.037998 2.153198
0.620206 2.652715 2.211199
