# .PCD v0.7 - Point Cloud Data file format
VERSION 0.7
FIELDS x y z
SIZE 4 4 4
TYPE F F F
COUNT 1 1 1
WIDTH 16
HEIGHT 1
VIEWPOINT 0 0 0 1
POINTS 16
DATA ascii
1.399516 1.311988 1.057831
1.570591 1.401854 1.153010
1.382621 1.175464 0.998413
1.419378 1.292049 0.878141
1.355190 1.096602 0.958787
1.408607 1.293826 0.893150
1.472767 1.278490 0.892409
1.420777 1.282946 0.894893
1.402594 1.080005 0.971083
1.738319 1.395325 1.295059
1.483837 1.305375 0.919471
1.460223 1.258302 0.903185
1.813768 1.387872 1.323187
1.535200 1.291815 0.931766
1.430890 1.177325 0.872568
1.414496 1.110393 0.850970
