# .PCD v0.7 - Point Cloud Data file format
VERSION 0.7
FIELDS x y z
SIZE 4 4 4
TYPE F F F
COUNT 1 1 1
WIDTH 816
HEIGHT 1
VIEWPOINT 0 0 0 1
POINTS 816
DATA ascii
1.007894 -2.017968 -0.004929
1.003901 -2.016738 -0.036912
0.976163 -2.029935 0.088084
0.975178 -2.030496 0.157084
1.012069 -2.001250 -0.094650
0.949158 -2.014352 -0.006743
0.953236 -2.025797 -0.072833
0.945167 -2.013130 -0.037726
1.016232 -2.020901 -0.010791
0.921483 -2.033301 0.087200
0.987482 -2.031486 0.037211
0.918497 -2.032851 0.153212
1.030317 -1.996882 -0.129493
1.032380 -2.004878 -0.128552
0.957423 -2.007624 -0.094554
0.892472 -2.014714 -0.009602
0.965557 -2.026670 0.166302
0.887440 -2.008240 -0.072546
0.893535 -2.022475 -0.038658
1.029516 -2.017721 -0.026629
0.957530 -2.019301 -0.010632
0.891610 -2.028864 0.381312
0.867754 -2.031146 0.396357
0.863772 -2.030675 0.085363
0.997722 -2.021994 -0.019579
0.860776 -2.029201 0.148382
0.926764 -2.026897 0.037394
0.970626 -1.995311 -0.126334
0.970681 -2.001320 -0.125374
0.835748 -2.010080 -0.011427
0.892642 -1.992075 -0.092286
0.908869 -2.028030 0.163433
0.902801 -2.016140 -0.076476
0.833776 -2.011877 -0.038436
0.831751 -2.007608 -0.073402
0.969827 -2.017142 -0.024477
0.900842 -2.019677 -0.011494
0.835889 -2.027208 0.377463
0.967962 -2.031685 0.165433
0.895954 -2.030460 0.330452
0.812044 -2.030465 0.389499
0.808050 -2.027041 0.084526
0.803028 -2.021556 0.144578
0.938037 -2.021414 -0.017428
0.870086 -2.028287 0.038524
1.003060 -2.019482 -0.083402
0.783071 -2.012419 -0.013313
0.852161 -2.026388 0.160584
0.841011 -2.000425 -0.092215
0.844073 -2.009551 -0.074286
0.780088 -2.011948 -0.074304
0.787207 -2.035883 0.669529
0.782137 -2.019217 -0.039359
0.784188 -2.029540 0.375574
0.844144 -2.018058 -0.011343
0.909116 -2.012558 -0.023297
0.848227 -2.033441 0.412550
0.978159 -2.015995 -0.040317
0.908228 -2.026070 0.163616
0.839241 -2.028817 0.327602
0.906238 -2.026967 0.273618
0.760361 -2.034765 0.383595
0.961338 -2.027750 0.163648
0.755378 -2.030386 0.083631
0.750346 -2.023877 0.140690
0.879336 -2.018824 -0.015268
0.813363 -2.023668 0.038694
0.942365 -2.016922 -0.079238
0.927272 -1.996400 -0.156064
0.924307 -1.998284 -0.173070
0.731410 -2.016748 -0.015218
0.795427 -2.020743 0.157760
0.791398 -2.011759 -0.092173
0.730436 -2.023858 0.370744
0.726399 -2.011291 -0.076169
0.792435 -2.016906 -0.073211
0.728437 -2.017568 -0.040217
0.788422 -2.013422 -0.012176
0.794517 -2.033761 0.407677
0.851415 -2.009953 -0.022140
0.792544 -2.038494 0.621654
0.918496 -2.017420 -0.037184
0.786538 -2.030162 0.326720
0.852550 -2.028436 0.162734
0.848549 -2.027355 0.273753
0.906575 -2.022510 0.212815
0.704623 -2.029078 0.376768
0.903647 -2.028146 0.164782
0.835663 -2.034615 0.419737
0.700656 -2.025734 0.081794
0.696642 -2.022202 0.136830
0.756648 -2.019045 0.038862
0.822659 -2.019220 -0.013136
0.881661 -2.012360 -0.075063
0.869603 -1.996827 -0.150929
0.807683 -2.010474 -0.118042
0.804683 -2.008509 -0.116021
0.677699 -2.013089 -0.017064
0.865618 -1.995724 -0.166913
0.741734 -2.021085 0.155886
0.679748 -2.027179 0.368841
0.674705 -2.010626 -0.077041
0.738737 -2.015118 -0.091071
0.738762 -2.018271 -0.072093
0.675755 -2.017909 -0.041094
0.736768 -2.018767 -0.012090
0.740812 -2.034078 0.402802
0.798763 -2.015314 -0.021052
0.872827 -2.034467 0.427817
0.801781 -2.030030 0.567852
0.736799 -2.033816 0.615819
0.731802 -2.025501 0.323882
0.860820 -2.017838 -0.033051
0.795841 -2.025806 0.161886
0.789814 -2.020729 0.271938
0.850913 -2.026891 0.213915
0.652926 -2.030381 0.371881
0.848981 -2.032511 0.164880
0.779939 -2.031946 0.414886
0.647920 -2.020074 0.080959
0.644933 -2.020512 0.132964
0.704969 -2.021396 0.039967
0.766965 -2.017606 -0.010994
0.822972 -2.009783 -0.070908
0.750977 -2.005865 -0.115876
0.624989 -2.009412 -0.019914
0.751020 -2.010890 -0.112912
0.630051 -2.029491 0.366940
0.691063 -2.025405 0.153973
0.685020 -2.010481 -0.089912
0.623025 -2.010959 -0.077922
0.619981 -2.004267 -0.041866
0.686071 -2.017628 -0.070965
0.686070 -2.028391 0.396970
0.681052 -2.013127 -0.012920
0.817116 -2.033821 0.425950
0.684071 -2.032133 0.611953
0.743081 -2.014691 -0.019918
0.748103 -2.034371 0.565946
0.679095 -2.024834 0.322009
0.739106 -2.019165 0.160064
0.802088 -2.010251 -0.029862
0.808152 -2.034588 0.513968
0.738164 -2.028080 0.273006
0.794245 -2.029276 0.215029
0.601203 -2.027673 0.366019
0.726228 -2.031269 0.411014
0.790250 -2.025900 0.165061
0.598271 -2.026393 0.080028
0.593237 -2.019827 0.130088
0.651250 -2.016749 0.040124
0.715330 -2.024964 -0.008926
0.769321 -2.014171 -0.066815
0.701346 -2.014210 -0.113821
0.578306 -2.023798 0.363099
0.764907 -2.597465 -0.037495
0.637349 -2.021734 0.151123
0.697353 -2.012260 -0.110798
0.632338 -2.009828 -0.089786
0.572337 -2.011573 -0.042809
0.571325 -2.008289 -0.078784
0.633378 -2.015974 -0.070833
0.629351 -2.011466 -0.012790
0.635394 -2.032693 0.393054
0.764420 -2.036154 0.424054
0.693437 -2.022027 -0.018856
0.690330 -2.023702 0.560153
0.627396 -2.025166 0.321125
0.688444 -2.024499 0.160142
0.751472 -2.020603 -0.027819
0.685458 -2.027420 0.272131
0.751459 -2.034946 0.512093
0.549478 -2.023962 0.360163
0.673526 -2.031592 0.408131
0.735520 -2.022662 0.215209
0.722014 -2.589780 0.091643
0.735546 -2.024268 0.166196
0.538431 -2.002143 0.125341
0.599542 -2.014088 0.040260
0.659598 -2.017345 -0.006746
0.715667 -2.017557 -0.062717
0.528587 -2.022098 0.360223
0.645614 -2.005599 -0.110633
0.524612 -2.009036 -0.023683
0.585638 -2.019055 0.149258
0.707629 -2.005005 -0.137612
0.645680 -2.013623 -0.107691
0.582666 -2.012160 -0.088691
0.521635 -2.007597 -0.080667
0.522661 -2.012888 -0.043707
0.582694 -2.016313 -0.069721
0.705679 -2.008889 -0.153636
0.583656 -2.027991 0.388204
0.771271 -2.602535 -0.027389
0.707670 -2.028494 0.420234
0.638687 -2.012401 -0.016664
0.576687 -2.024489 0.320243
0.638644 -2.027033 0.559245
0.635732 -2.021836 0.159279
0.696797 -2.020986 -0.024699
0.630705 -2.018769 0.271315
0.696760 -2.035290 0.510212
0.497751 -2.019250 0.354311
0.497831 -2.019022 0.077306
0.621823 -2.031906 0.405243
0.683880 -2.028615 0.167280
0.680837 -2.023029 0.216328
0.489762 -2.005435 0.122424
0.718177 -2.560445 0.044019
0.607907 -2.016698 -0.004627
0.480876 -2.022392 0.358325
0.659930 -2.008952 -0.058533
0.529808 -1.997383 0.145539
0.594973 -2.010945 -0.108560
0.656967 -2.008368 -0.133524
0.591958 -2.006997 -0.104525
0.529938 -2.004502 -0.088520
0.528947 -2.005669 -0.068525
0.530914 -2.021292 0.383368
0.655050 -2.016253 -0.149577
0.526946 -2.006116 -0.014523
0.658008 -2.035820 0.420291
0.778567 -2.597495 -0.030205
0.526986 -2.024803 0.319349
0.585921 -2.024353 0.556380
0.579965 -2.009181 0.157492
0.641020 -2.007372 -0.021479
0.580039 -2.023099 0.271394
0.639021 -2.027641 0.507393
0.451091 -2.026527 0.351358
0.569085 -2.026216 0.401398
0.630174 -2.025965 0.167415
0.630176 -2.028375 0.218399
0.500188 -2.017740 0.041451
0.557215 -2.016043 -0.002513
0.432145 -2.018681 0.355456
0.427228 -2.007632 -0.027461
0.803760 -2.586953 -0.081011
0.482171 -2.005684 0.144581
0.544288 -2.010289 -0.106446
0.424256 -2.006200 -0.083446
0.423244 -2.005512 -0.045438
0.608378 -2.021710 -0.130515
0.542307 -2.011334 -0.102449
0.483218 -2.023576 0.380453
0.600318 -2.007655 -0.143396
0.604278 -2.031144 0.417439
0.536335 -2.014073 -0.015454
0.474208 -2.012118 0.316555
0.535215 -2.024664 0.554486
0.528222 -2.001507 0.156659
0.785964 -2.605456 -0.033116
0.527295 -2.015431 0.270562
0.586331 -2.028975 0.506495
0.399315 -2.013802 0.344561
0.520398 -2.029514 0.399477
0.577444 -2.020305 0.167568
0.575440 -2.020729 0.218571
0.507528 -2.017379 -0.000411
0.384412 -2.015970 0.353582
0.379542 -2.008920 -0.029366
0.438555 -2.020956 0.143565
0.558617 -2.017658 -0.052372
0.375557 -2.004503 -0.084326
0.374543 -2.003815 -0.046317
0.432588 -2.008136 -0.087333
0.551591 -2.005114 -0.125268
0.432611 -2.012297 -0.067364
0.577930 -2.597813 0.474994
0.547605 -2.003027 -0.139245
0.553552 -2.029455 0.415564
0.427520 -2.016410 0.315626
0.481592 -2.012807 0.156681
0.535615 -2.001101 -0.015203
0.478617 -2.019752 0.271639
0.532590 -2.023304 0.504655
0.351704 -2.011925 0.073672
0.467602 -2.015811 0.394694
0.520614 -1.998660 0.166851
0.347723 -2.013280 0.114671
0.401774 -2.013378 0.042694
0.520696 -2.012087 0.219754
0.329808 -2.000219 -0.031199
0.326834 -1.997803 -0.085176
0.505913 -2.013027 -0.048229
0.444924 -2.010958 -0.102237
0.326834 -2.000109 -0.047192
0.383896 -2.006445 -0.087221
0.443936 -2.011997 -0.098243
0.384781 -2.019140 0.372695
0.383933 -2.012614 -0.066267
0.380881 -2.006043 -0.015210
0.503819 -2.025757 0.413693
0.502026 -2.557624 0.392418
0.434942 -2.020105 0.156722
0.426894 -2.014081 0.271786
0.421929 -2.022094 0.393740
0.305035 -2.015212 0.072740
0.481922 -2.027636 0.505726
0.304964 -2.022344 0.337693
0.476033 -2.016963 0.168808
0.299009 -2.008555 0.110803
0.354087 -2.013680 0.042788
0.472044 -2.018414 0.221807
0.407138 -2.013042 0.002826
0.291012 -2.017536 0.350757
0.284161 -2.006482 -0.034156
0.340124 -2.012547 0.139826
0.281182 -2.003074 -0.087126
0.280158 -2.001394 -0.048110
0.395215 -2.006289 -0.100102
0.336194 -2.003746 -0.087106
0.336229 -2.009915 -0.066152
0.393241 -2.008342 -0.095114
0.452260 -2.008805 -0.118092
0.334229 -2.011330 -0.016157
0.454121 -2.026064 0.412791
0.449300 -2.010719 -0.131100
0.388239 -2.009041 -0.012107
0.374241 -2.024379 0.391816
0.257317 -2.010503 0.071868
0.257236 -2.017610 0.333821
0.431205 -2.024949 0.504847
0.251292 -2.003829 0.107931
0.307418 -2.016973 0.042854
0.428534 -2.047724 0.225674
0.245279 -2.013805 0.348873
0.359480 -2.017359 0.004887
0.236458 -2.002764 -0.036036
0.293431 -2.012824 0.137914
0.234496 -2.002350 -0.089031
0.233457 -1.998670 -0.050000
0.346511 -2.002611 -0.097979
0.288511 -2.003045 -0.087008
0.290387 -2.020685 0.366867
0.405541 -2.010719 -0.041012
0.287515 -2.004228 -0.065015
0.344530 -2.003664 -0.092983
0.286499 -2.004620 -0.017014
0.403566 -2.007144 -0.113983
0.543807 -2.606457 0.522281
0.286416 -2.017291 0.314899
0.398590 -2.005071 -0.126959
0.339547 -2.007355 -0.010999
0.337540 -2.016711 0.155938
0.389631 -2.011085 -0.007983
0.210618 -2.008785 0.070968
0.210527 -2.015868 0.329921
0.205627 -2.008097 0.105984
0.259700 -2.012278 0.043979
0.199583 -2.015072 0.346948
0.309738 -2.007686 0.007055
0.245706 -2.007104 0.136047
0.189766 -2.001037 -0.037937
0.187779 -1.999945 -0.050925
0.187806 -2.000631 -0.089932
0.298806 -1.998925 -0.095861
0.241810 -2.000335 -0.086900
0.243674 -2.018951 0.363966
0.240813 -2.001518 -0.064907
0.356849 -2.009049 -0.037906
0.297874 -2.007972 -0.090928
0.357682 -2.021646 0.410009
0.238796 -2.000909 -0.017897
0.354876 -2.005482 -0.109878
0.239724 -2.018581 0.314975
0.350917 -2.006402 -0.122878
0.291838 -2.003660 -0.009882
0.289817 -2.012000 0.155063
0.284837 -2.019988 0.274015
0.341946 -2.011399 -0.005896
0.278816 -2.020942 0.388022
0.164934 -2.010058 0.070040
0.163860 -2.020132 0.326971
0.331969 -2.019893 0.172063
0.158918 -2.004361 0.103096
0.212001 -2.009573 0.044087
0.154894 -2.018348 0.347002
0.322984 -2.018391 0.227093
0.264079 -2.012986 0.009098
0.144083 -2.001302 -0.039858
0.199046 -2.011385 0.135098
0.142124 -2.004209 -0.052878
0.141119 -1.998901 -0.091836
0.196977 -2.019223 0.362048
0.252168 -2.005223 -0.094824
0.195153 -2.003623 -0.086841
0.195168 -2.007800 -0.064873
0.310203 -2.015363 -0.034868
0.250178 -2.005283 -0.088820
0.193150 -2.007190 -0.017863
0.193015 -2.016870 0.315071
0.307234 -2.010803 -0.106830
0.303247 -2.007723 -0.119800
0.245197 -2.009949 -0.009845
0.243112 -2.010289 0.155161
0.237099 -2.013283 0.274152
0.293221 -2.004725 -0.002756
0.233143 -2.026217 0.387062
0.119266 -2.013330 0.069094
0.116136 -2.014391 0.323098
0.283245 -2.014203 0.173195
0.113250 -2.007616 0.100150
0.166305 -2.008854 0.044172
0.109131 -2.008603 0.344156
0.216381 -2.010288 0.010204
0.274278 -2.015708 0.229201
0.099414 -2.004558 -0.041808
0.153342 -2.009649 0.133191
0.096452 -2.002158 -0.093785
0.095423 -2.000486 -0.053769
0.149464 -2.002903 -0.086757
0.150276 -2.018485 0.359134
0.205482 -2.004518 -0.093736
0.265306 -2.028227 0.411126
0.148471 -2.005086 -0.064771
0.204513 -2.008572 -0.087765
0.261488 -2.009696 -0.030738
0.147295 -2.014141 0.314171
0.146465 -2.006468 -0.018777
0.258495 -2.001127 -0.103669
0.254537 -2.002055 -0.115670
0.198528 -2.012244 -0.008781
0.196444 -2.013576 0.155217
0.189385 -2.009584 0.275263
0.245550 -2.006035 -0.000682
0.186424 -2.023495 0.386163
0.072523 -2.003597 0.067247
0.070421 -2.011637 0.319195
0.237573 -2.018492 0.174241
0.067563 -2.007877 0.098223
0.120630 -2.011140 0.045231
0.064445 -2.011874 0.344203
0.169692 -2.009589 0.012288
0.227604 -2.019011 0.231256
0.052697 -1.997825 -0.043678
0.107664 -2.011918 0.132248
0.049688 -1.991754 -0.054626
0.049744 -1.996424 -0.095664
0.104582 -2.019746 0.357199
0.218578 -2.024506 0.410234
0.102765 -1.999179 -0.087650
0.158786 -2.001819 -0.091636
0.102789 -2.005363 -0.064698
0.101762 -2.004731 -0.019690
0.101578 -2.011419 0.314268
0.213784 -2.006013 -0.027628
0.156815 -2.004879 -0.085656
0.210822 -2.001451 -0.099590
0.208878 -2.006359 -0.112625
0.151814 -2.007537 -0.007667
0.150757 -2.014854 0.155283
0.199867 -2.007330 0.001386
0.142700 -2.010876 0.276330
0.140709 -2.021756 0.384252
0.027843 -2.005858 0.066300
0.023727 -2.010901 0.317274
0.189842 -2.011791 0.175373
0.020848 -2.002134 0.095341
0.073925 -2.007422 0.045335
0.018743 -2.011140 0.343280
0.123011 -2.009888 0.014362
0.178871 -2.011316 0.232396
0.061963 -2.010186 0.131334
0.007153 -2.020073 -0.046785
0.172852 -2.021776 0.409330
0.005189 -2.017667 -0.098765
0.005162 -2.017997 -0.057766
0.058835 -2.011997 0.354332
0.057055 -1.994454 -0.087540
0.113130 -2.006103 -0.090596
0.056892 -2.014696 0.315312
0.056071 -1.998653 -0.063571
0.055062 -2.001005 -0.020587
0.111146 -2.007172 -0.083601
0.167123 -2.009320 -0.024577
0.165139 -2.001753 -0.096517
0.106142 -2.009813 -0.007611
0.161194 -2.004681 -0.108533
0.104034 -2.009128 0.154402
0.097015 -2.013168 0.278385
0.153199 -2.009630 0.003444
0.093958 -2.013022 0.382394
-0.016788 -2.016117 0.065285
-0.021985 -2.008150 0.314364
0.144142 -2.011075 0.176452
-0.024836 -2.002390 0.093407
-0.026000 -2.004391 0.341401
0.028216 -2.003696 0.045434
0.077300 -2.006171 0.015463
0.132187 -2.012622 0.235460
0.016251 -2.006443 0.129433
-0.038686 -1.993331 -0.048504
0.127136 -2.020052 0.409415
-0.040660 -1.988932 -0.099468
0.013132 -2.011255 0.352406
-0.041671 -1.991276 -0.057484
0.012505 -2.016712 -0.088650
0.011154 -2.007961 0.314434
0.066400 -1.997392 -0.089455
0.011513 -2.019911 -0.064673
0.065427 -2.001454 -0.082485
0.009364 -1.998270 -0.021497
0.120443 -2.009626 -0.021506
0.118469 -2.003059 -0.093453
0.060439 -2.007095 -0.006520
0.115505 -2.003980 -0.105456
0.059362 -2.013396 0.154437
0.051289 -2.008441 0.278491
0.107512 -2.009929 0.006513
0.049271 -2.016282 0.381435
-0.062445 -2.021379 0.064307
-0.066707 -2.004391 0.311457
0.098480 -2.016358 0.177481
-0.069394 -2.025638 0.091283
-0.069709 -2.004650 0.341460
-0.016403 -2.015961 0.045401
0.030593 -2.001458 0.016569
0.084473 -2.007924 0.237570
-0.029487 -1.997698 0.127568
0.082415 -2.018319 0.409496
-0.032569 -2.010518 0.351477
-0.033316 -1.992992 -0.087396
-0.033530 -2.011234 0.315471
-0.034310 -1.996191 -0.063419
0.021855 -2.020657 -0.089574
0.019845 -2.017733 -0.081548
-0.036215 -2.015532 -0.022570
0.073727 -2.003930 -0.018391
0.071758 -1.997362 -0.090338
0.013631 -1.985382 -0.005279
0.013678 -2.014668 0.154492
0.068774 -1.995292 -0.101318
0.005623 -2.013736 0.281515
0.060796 -2.004224 0.008627
0.003555 -2.013545 0.380522
0.052769 -2.013638 0.178569
-0.114292 -2.021670 0.311381
-0.061108 -2.014233 0.046476
-0.013955 -2.025729 0.017438
0.038803 -2.012220 0.240601
-0.074037 -2.022968 0.128425
-0.077304 -2.004756 0.348583
-0.078260 -2.006497 0.315569
-0.024891 -2.008950 -0.087417
-0.026883 -2.009026 -0.079414
0.028000 -1.997233 -0.014272
0.027205 -2.019634 -0.089451
-0.030809 -2.027643 -0.005556
-0.032075 -2.003930 0.153641
0.023241 -2.019578 -0.099446
-0.040083 -2.012014 0.282590
0.015023 -1.989511 0.010808
0.007071 -2.012924 0.180637
-0.160933 -2.030933 0.310362
-0.058758 -2.007009 0.019647
-0.007902 -2.009511 0.242686
-0.119802 -2.009219 0.126593
-0.122994 -2.000766 0.316672
-0.017523 -2.024517 -0.012429
-0.018495 -2.016927 -0.086369
-0.075694 -1.993915 -0.004227
-0.076612 -2.032206 0.155470
-0.022494 -2.010870 -0.096316
-0.084808 -2.008291 0.284677
-0.029473 -2.022788 0.012601
-0.037643 -2.010195 0.181717
-0.052620 -2.006796 0.245765
-0.219424 -1.990312 -0.057252
-0.221414 -1.988267 -0.064233
-0.222354 -1.990918 -0.108255
-0.062376 -1.996811 -0.008150
-0.122348 -2.024471 0.155587
-0.130491 -2.010571 0.286713
-0.074330 -1.994065 0.014887
-0.243315 -2.000389 0.059695
-0.082213 -2.033477 0.184584
-0.252283 -1.998617 0.081719
-0.099307 -2.007091 0.248819
-0.265110 -1.988548 -0.060190
-0.267075 -1.983158 -0.110145
-0.214031 -1.994017 -0.090183
-0.268089 -1.987517 -0.066179
-0.215074 -1.989232 -0.064142
-0.216067 -1.996551 -0.025200
-0.289024 -1.995641 0.058779
-0.126957 -2.025743 0.185696
-0.241964 -1.995285 0.047839
-0.297968 -1.998860 0.079761
-0.145012 -2.005378 0.251883
-0.311771 -1.990796 -0.062164
-0.312787 -1.984753 -0.068114
-0.259733 -1.989269 -0.091099
-0.313733 -1.985405 -0.112120
-0.260737 -1.992491 -0.064124
-0.205695 -1.996027 -0.083100
-0.261751 -1.995803 -0.026149
-0.207680 -1.998119 -0.073114
-0.335718 -1.995896 0.057832
-0.288647 -1.997550 0.047879
-0.344690 -1.993107 0.077864
-0.240567 -1.998102 0.025936
-0.300642 -1.997212 0.121896
-0.356522 -1.980024 -0.065020
-0.304461 -1.983522 -0.090994
-0.250405 -1.994290 -0.082026
-0.305466 -1.986736 -0.065019
-0.359491 -1.981000 -0.070026
-0.360417 -1.985644 -0.115065
-0.307480 -1.989053 -0.027035
-0.253399 -1.993387 -0.072015
-0.200360 -1.996064 -0.074978
-0.257421 -1.997972 -0.002046
-0.204324 -1.996022 -0.082974
-0.380437 -1.990138 0.056921
-0.334327 -1.998806 0.047912
-0.392353 -1.995356 0.075889
-0.287249 -1.997381 0.027989
-0.346338 -1.995459 0.120953
-0.405143 -1.988270 -0.068046
-0.406132 -1.988244 -0.072045
-0.351111 -1.987766 -0.092985
-0.296098 -1.991554 -0.080958
-0.352124 -1.989997 -0.065002
-0.407077 -1.987879 -0.118043
-0.354143 -1.991305 -0.028010
-0.298113 -1.987646 -0.070923
-0.244137 -1.995946 0.004071
-0.245051 -1.995341 -0.071925
-0.302263 -2.001493 0.155974
-0.303107 -1.997228 -0.001996
-0.249044 -1.989299 -0.079872
-0.256048 -2.001158 0.022040
-0.428106 -1.991393 0.055950
-0.380044 -1.992060 0.048008
-0.440022 -1.996604 0.073916
-0.331959 -1.993646 0.030061
-0.393023 -1.994710 0.119999
-0.451822 -1.987512 -0.070003
-0.341796 -1.987817 -0.079885
-0.398763 -1.991023 -0.093972
-0.453807 -1.986483 -0.074993
-0.399781 -1.992253 -0.065981
-0.453767 -1.984121 -0.119975
-0.399834 -1.989551 -0.028957
-0.344772 -1.990914 -0.069908
-0.290809 -1.997231 0.007105
-0.348927 -2.005752 0.155979
-0.290755 -1.990613 -0.069843
-0.349783 -1.997488 -0.001956
-0.293754 -1.984573 -0.076790
-0.300771 -1.994415 0.023138
-0.306875 -2.003798 0.191071
-0.475765 -1.995647 0.054950
-0.426708 -1.996325 0.049009
-0.486714 -1.994843 0.071964
-0.377649 -1.992907 0.031105
-0.440692 -1.996972 0.120016
-0.328819 -2.002522 0.266103
-0.499491 -1.987748 -0.072973
-0.388455 -1.991075 -0.079875
-0.444465 -1.986266 -0.094898
-0.445482 -1.988504 -0.065916
-0.500496 -1.983722 -0.076938
-0.501430 -1.985357 -0.122953
-0.446514 -1.988791 -0.030916
-0.391433 -1.994180 -0.068898
-0.336508 -1.994509 0.010167
-0.394641 -2.001004 0.156055
-0.335466 -1.985885 -0.066765
-0.395482 -1.994748 -0.000897
-0.339429 -1.985843 -0.074761
-0.346470 -1.991684 0.025199
-0.353555 -2.005064 0.192099
-0.523443 -1.995890 0.052978
-0.474390 -1.995586 0.049048
-0.536365 -1.999097 0.069958
-0.425320 -1.994184 0.033130
-0.486410 -1.991213 0.119095
-0.548142 -1.991988 -0.075980
-0.491179 -1.985745 -0.066863
-0.436103 -1.996336 -0.079885
-0.492131 -1.987518 -0.095878
-0.550129 -1.990975 -0.078971
-0.547149 -1.976581 -0.125852
-0.437123 -1.993438 -0.067859
-0.495164 -1.993048 -0.031920
-0.382187 -1.996784 0.013183
-0.441333 -2.000267 0.157094
-0.383099 -1.994163 -0.064797
-0.442166 -1.994003 -0.000858
-0.386083 -1.991123 -0.071770
-0.393136 -1.994956 0.027207
-0.397290 -1.999319 0.194179
-0.572127 -1.994145 0.052018
-0.522058 -1.998843 0.049049
-0.584067 -1.994337 0.068023
-0.472982 -1.998459 0.035125
-0.536043 -2.000473 0.118045
-0.539793 -1.990767 -0.096879
-0.481823 -1.988592 -0.078791
-0.750679 -2.552847 -0.110643
-0.540820 -1.991006 -0.067879
-0.542829 -1.996297 -0.032922
-0.746786 -2.530802 -0.113459
-0.483823 -1.988699 -0.066791
-0.592879 -1.964811 -0.127730
-0.428874 -1.996063 0.016221
-0.488022 -2.000520 0.157120
-0.428805 -1.989428 -0.062726
-0.488848 -1.994256 -0.000832
-0.432765 -1.990394 -0.069732
-0.438830 -1.994221 0.029243
-0.444944 -2.006594 0.196149
-0.627667 -2.020443 0.051819
-0.569758 -1.995108 0.050104
-0.631782 -1.986576 0.066108
-0.519685 -1.994719 0.036181
-0.583745 -1.996728 0.118098
-0.529497 -1.988849 -0.078768
-0.729535 -2.516528 -0.134252
-0.645507 -1.986462 -0.081891
-0.588506 -1.989253 -0.068843
-0.531492 -1.990964 -0.065785
-0.645525 -1.980445 -0.083840
-0.587600 -1.977529 -0.033743
-0.476532 -2.001336 0.018204
-0.535701 -2.002784 0.158125
-0.475478 -1.991697 -0.060718
-0.535541 -1.992507 -0.000794
-0.478470 -1.986665 -0.066674
-0.488456 -2.004504 0.031184
-0.490665 -2.001856 0.198213
-0.669507 -1.989647 0.050094
-0.617448 -1.994362 0.050129
-0.684415 -1.993839 0.064063
-0.568356 -1.996995 0.038184
-0.631442 -1.994973 0.117130
-0.575219 -1.981101 -0.077683
-0.637140 -1.990263 -0.099836
-0.637190 -1.987512 -0.068811
-0.581132 -1.998229 -0.065826
-0.640187 -1.994792 -0.035871
-0.583402 -2.000037 0.158168
-0.523255 -1.993618 0.022292
-0.523156 -1.991968 -0.058697
-0.584210 -1.994775 0.000207
-0.527113 -1.993941 -0.064712
-0.533190 -1.996760 0.033270
-0.718204 -1.986895 0.049129
-0.665160 -1.988613 0.050191
-0.732135 -1.986073 0.062139
-0.738684 -2.430964 0.041560
-0.684074 -2.004250 0.117065
-0.625851 -1.989369 -0.077737
-0.627862 -1.987484 -0.064720
-0.569950 -1.992891 0.025316
-0.569862 -1.987233 -0.056639
-0.795830 -2.555868 -0.009493
-0.571864 -1.981203 -0.061587
-0.580875 -1.997020 0.034285
-0.715833 -1.989887 0.051190
-0.664741 -1.994527 0.041233
-0.776606 -2.553041 0.026624
-0.793579 -1.974173 -0.089759
-0.648943 -2.097636 -0.059553
-0.794576 -1.972162 -0.091742
-0.797475 -1.976777 -0.141783
-0.682567 -1.995292 0.000228
-0.619545 -1.982478 -0.058584
-0.735566 -2.366891 0.037187
-0.821552 -1.987408 0.046133
-0.714422 -1.995803 0.043229
-0.838459 -1.989591 0.058114
-0.782290 -1.974244 -0.071676
-0.782252 -1.971988 -0.103658
-0.665350 -1.988439 0.031377
-0.784321 -1.974511 -0.039677
-0.667211 -1.990776 -0.052645
-0.849203 -1.981428 -0.093823
-0.849213 -1.977420 -0.094789
-0.849151 -1.974011 -0.145761
-0.675292 -1.989546 0.038369
-0.872259 -1.981660 0.045178
-0.889176 -1.983834 0.056164
-0.835900 -1.978248 -0.105705
-0.715042 -1.989728 0.035380
-0.835950 -1.977513 -0.072697
-0.838967 -1.980777 -0.041724
-0.901894 -1.977673 -0.096788
-0.724982 -1.990820 0.040373
-0.927920 -1.985936 0.044146
-0.869891 -1.988688 0.052213
-0.819663 -1.972382 -0.076558
-0.886592 -1.974491 -0.107669
-0.825622 -1.981533 -0.061635
-0.887638 -1.973769 -0.073662
-0.892628 -1.983043 -0.042741
-0.832648 -1.989066 0.000303
-0.920601 -1.982944 0.052263
-0.865520 -1.988617 0.048309
-0.875288 -1.981658 -0.077635
-0.876314 -1.978791 -0.061610
-0.815301 -1.983578 -0.047555
-0.883348 -1.985323 0.000336
-0.818282 -1.982577 -0.049546
-0.826351 -1.990362 0.043391
-0.918207 -1.987899 0.050313
-0.866124 -1.985579 0.045432
-0.864017 -1.977841 -0.045505
-0.935040 -1.983583 0.000347
-0.867993 -1.976853 -0.046497
-0.877049 -1.988634 0.045405
-0.915702 -1.978117 -0.043512
-0.921778 -1.990882 0.048381
-0.926768 -1.982898 0.047449
