# .PCD v0.7 - Point Cloud Data file format
VERSION 0.7
FIELDS x y z
SIZE 4 4 4
TYPE F F F
COUNT 1 1 1
WIDTH 1689
HEIGHT 1
VIEWPOINT 0 0 0 1
POINTS 1689
DATA ascii
-0.956048 1.731269 0.489221
-0.896977 1.709675 0.557305
-0.899657 1.723440 0.482434
-0.945565 1.731267 0.484326
-0.872573 1.737577 0.279716
-0.857242 1.732141 0.227735
-0.848641 1.717782 0.554650
-0.848296 1.721576 0.477687
-0.891181 1.724444 0.476540
-0.886488 1.723990 0.327550
-0.818202 1.730682 0.277932
-0.934084 1.727304 0.476391
-0.816209 1.736949 0.057994
-0.806898 1.731224 0.226994
-0.799951 1.721696 0.473947
-0.792230 1.705955 0.547826
-0.797973 1.740228 0.033125
-0.904446 1.729380 0.376557
-0.843846 1.730559 0.472851
-0.838154 1.729081 0.325855
-0.837687 1.732149 0.221883
-0.839179 1.739335 0.105944
-0.782333 1.748465 -0.085719
-0.777249 1.749584 -0.096681
-0.936702 1.730373 0.463445
-0.882718 1.727453 0.470658
-0.763816 1.722788 0.276132
-0.766870 1.738003 0.059262
-0.920422 1.718819 0.423404
-0.819723 1.743099 0.034081
-0.757548 1.732305 0.226262
-0.869505 1.736056 0.218801
-0.750584 1.719820 0.470184
-0.744882 1.710056 0.546116
-0.746620 1.736277 0.035349
-0.853081 1.726509 0.372797
-0.854110 1.736745 0.153885
-0.798230 1.746914 -0.042770
-0.793469 1.727710 0.467087
-0.784764 1.720213 0.322044
-0.787327 1.730247 0.220129
-0.789835 1.741403 0.106226
-0.732996 1.749494 -0.082447
-0.732759 1.756032 -0.135380
-0.728918 1.750611 -0.093414
-0.881290 1.721578 0.453642
-0.833348 1.728610 0.463930
-0.713448 1.718877 0.275359
-0.715506 1.733064 0.060482
-0.874089 1.723937 0.419703
-0.871084 1.727198 0.198738
-0.770378 1.742166 0.034332
-0.709194 1.729389 0.225489
-0.704235 1.720929 0.467443
-0.820151 1.739160 0.216094
-0.695504 1.706186 0.542339
-0.702304 1.745319 0.036680
-0.861037 1.742142 0.204949
-0.811121 1.747383 -0.000786
-0.805737 1.731615 0.370101
-0.803753 1.734841 0.152131
-0.748887 1.743969 -0.041540
-0.743084 1.721861 0.461293
-0.739435 1.726291 0.321349
-0.740987 1.734334 0.218418
-0.738471 1.733480 0.106415
-0.744566 1.755628 -0.106399
-0.742669 1.753367 -0.080411
-0.685663 1.751529 -0.080174
-0.681405 1.751054 -0.131160
-0.790140 1.745035 0.036302
-0.678566 1.745643 -0.090199
-0.782966 1.723771 0.457145
-0.831919 1.723734 0.446925
-0.667107 1.722945 0.275649
-0.823721 1.720076 0.414928
-0.666153 1.730111 0.062715
-0.827778 1.738267 0.198083
-0.721025 1.741232 0.034584
-0.662850 1.732465 0.224768
-0.657879 1.721038 0.464692
-0.769780 1.735279 0.212320
-0.815952 1.744978 0.031205
-0.649155 1.712274 0.541652
-0.650930 1.736381 0.037860
-0.807649 1.733280 0.200137
-0.760768 1.743452 -0.000561
-0.756371 1.725740 0.366301
-0.754400 1.732923 0.151372
-0.697742 1.726965 0.458588
-0.698533 1.742012 -0.039293
-0.753426 1.750117 -0.065457
-0.752370 1.749231 -0.076461
-0.690066 1.722391 0.319571
-0.692628 1.735425 0.216687
-0.689112 1.730549 0.106647
-0.696228 1.755666 -0.104142
-0.693317 1.748420 -0.079201
-0.634301 1.742555 -0.075994
-0.633062 1.748080 -0.127933
-0.739778 1.741116 0.035528
-0.632238 1.747666 -0.086930
-0.736612 1.727899 0.452435
-0.783548 1.724887 0.440193
-0.777372 1.720204 0.410175
-0.621769 1.728010 0.275945
-0.619812 1.731160 0.063974
-0.775396 1.729391 0.194267
-0.776705 1.735976 0.037318
-0.668072 1.708768 0.582565
-0.674688 1.744290 0.034863
-0.617513 1.735529 0.225043
-0.613538 1.724131 0.462962
-0.722428 1.740377 0.209625
-0.771247 1.749926 -0.056513
-0.767600 1.745074 0.028461
-0.765232 1.742878 -0.050554
-0.601777 1.708398 0.537866
-0.713429 1.742514 -0.000320
-0.604588 1.737429 0.039119
-0.708008 1.721851 0.363518
-0.758278 1.735403 0.195421
-0.706042 1.728015 0.149578
-0.649357 1.722109 0.452796
-0.652197 1.743058 -0.038035
-0.701004 1.739290 -0.075292
-0.704072 1.748179 -0.065215
-0.643714 1.723482 0.317831
-0.645270 1.736514 0.214951
-0.642770 1.733610 0.106927
-0.649895 1.758708 -0.102864
-0.645979 1.747457 -0.076958
-0.586958 1.740581 -0.072761
-0.585723 1.744095 -0.123721
-0.691420 1.740200 0.033776
-0.691265 1.733014 0.448730
-0.584895 1.745691 -0.083697
-0.735171 1.726039 0.433462
-0.732029 1.721320 0.406428
-0.730062 1.732476 0.192540
-0.729358 1.735060 0.035560
-0.573396 1.723094 0.275154
-0.573465 1.732208 0.065234
-0.622718 1.708879 0.579810
-0.626330 1.742354 0.035101
-0.569193 1.726224 0.461222
-0.569136 1.732620 0.223272
-0.674062 1.737480 0.206852
-0.719872 1.743015 -0.058313
-0.717226 1.740174 0.025678
-0.717888 1.743947 -0.051292
-0.556425 1.710486 0.537133
-0.661653 1.720955 0.360757
-0.560258 1.741472 0.040399
-0.665075 1.741576 -0.000072
-0.710915 1.735523 0.190674
-0.659696 1.729089 0.148837
-0.605011 1.724213 0.450055
-0.604847 1.741107 -0.036802
-0.655717 1.743241 -0.065009
-0.654665 1.742343 -0.075013
-0.599381 1.726549 0.318101
-0.596421 1.730674 0.107145
-0.598914 1.736601 0.213200
-0.598520 1.743746 -0.099745
-0.598629 1.745504 -0.075725
-0.542630 1.743609 -0.070491
-0.645075 1.742269 0.033045
-0.683652 1.712454 0.401594
-0.639653 1.714360 0.622824
-0.641867 1.725171 0.441912
-0.540389 1.748122 -0.121436
-0.687795 1.725190 0.426706
-0.539560 1.746722 -0.081443
-0.681696 1.728579 0.189758
-0.685032 1.742124 0.034870
-0.528046 1.724160 0.275410
-0.579381 1.713974 0.578096
-0.528127 1.734245 0.067499
-0.578971 1.737416 0.035304
-0.523829 1.724329 0.458447
-0.522777 1.729687 0.223492
-0.627705 1.736578 0.204090
-0.673526 1.746090 -0.060034
-0.670879 1.741253 0.023936
-0.672550 1.748020 -0.053008
-0.618321 1.725042 0.359032
-0.621756 1.747626 0.000222
-0.512079 1.715570 0.536425
-0.513908 1.737512 0.042608
-0.662542 1.731635 0.186892
-0.615362 1.733158 0.148117
-0.559652 1.725317 0.447311
-0.559509 1.743149 -0.035537
-0.610376 1.746303 -0.065735
-0.609328 1.744395 -0.074749
-0.552002 1.719654 0.315285
-0.553559 1.734686 0.211424
-0.551081 1.734721 0.108431
-0.552174 1.744788 -0.098485
-0.552282 1.745547 -0.074476
-0.496282 1.738634 -0.067293
-0.599726 1.741347 0.031278
-0.642338 1.723536 0.399931
-0.596314 1.718467 0.620100
-0.596504 1.727295 0.437177
-0.639404 1.720342 0.419915
-0.494042 1.745144 -0.118217
-0.491194 1.739750 -0.078255
-0.636346 1.727675 0.186991
-0.636665 1.737210 0.033078
-0.533002 1.710097 0.574307
-0.482692 1.724226 0.275656
-0.482775 1.730293 0.068704
-0.533623 1.736473 0.035538
-0.480474 1.721431 0.455651
-0.480451 1.733745 0.223762
-0.581342 1.735674 0.201329
-0.627174 1.745167 -0.061796
-0.624522 1.740343 0.021174
-0.624182 1.744101 -0.054790
-0.572962 1.724144 0.356266
-0.572380 1.738693 0.000395
-0.467726 1.716655 0.535677
-0.618195 1.737735 0.183192
-0.468557 1.735558 0.043833
-0.567995 1.727237 0.147311
-0.516304 1.726418 0.444556
-0.513158 1.737187 -0.033349
-0.563985 1.744448 -0.074506
-0.565031 1.749364 -0.066460
-0.507652 1.719731 0.314525
-0.507190 1.731773 0.209644
-0.505727 1.729783 0.108625
-0.506831 1.741820 -0.096271
-0.596976 1.718652 0.396124
-0.506939 1.747588 -0.073212
-0.550940 1.712602 0.615284
-0.451946 1.741662 -0.065022
-0.553368 1.738417 0.030497
-0.552147 1.727407 0.433417
-0.594039 1.721466 0.415170
-0.450720 1.748159 -0.114953
-0.593010 1.728755 0.185235
-0.447864 1.740777 -0.076010
-0.592325 1.740284 0.031347
-0.490669 1.714180 0.573578
-0.438338 1.721292 0.275867
-0.439448 1.736325 0.071000
-0.436111 1.718524 0.453862
-0.490291 1.741524 0.035823
-0.437110 1.734806 0.224007
-0.535979 1.732769 0.198544
-0.580816 1.744242 -0.063557
-0.577149 1.735436 0.018378
-0.577827 1.740168 -0.055582
-0.527595 1.718246 0.353451
-0.526020 1.732752 0.000584
-0.573848 1.739827 0.180451
-0.524658 1.730303 0.146576
-0.422351 1.712753 0.533884
-0.425224 1.740599 0.045119
-0.470923 1.722542 0.439762
-0.469826 1.744234 -0.033043
-0.517666 1.739414 -0.065307
-0.516616 1.737506 -0.074322
-0.463304 1.720796 0.314777
-0.464858 1.735841 0.208914
-0.462390 1.732838 0.108891
-0.555649 1.724745 0.393409
-0.463497 1.745866 -0.095996
-0.507579 1.710730 0.610500
-0.462597 1.745628 -0.071992
-0.509022 1.738482 0.029736
-0.407604 1.741692 -0.062782
-0.507788 1.729519 0.429678
-0.549680 1.725585 0.410451
-0.405369 1.743180 -0.111758
-0.547654 1.727839 0.183470
-0.402514 1.737798 -0.072794
-0.546970 1.739362 0.029581
-0.446307 1.713277 0.571810
-0.393982 1.721355 0.276109
-0.396111 1.739367 0.072266
-0.394778 1.721600 0.453118
-0.445941 1.739579 0.036043
-0.394780 1.740862 0.224298
-0.491622 1.732861 0.195784
-0.532608 1.712242 0.650423
-0.537479 1.747311 -0.065293
-0.534816 1.741515 0.015668
-0.532470 1.738242 -0.057358
-0.484246 1.717334 0.351677
-0.483692 1.739809 -0.000116
-0.525449 1.730948 0.175621
-0.480307 1.729373 0.145807
-0.381879 1.737643 0.046324
-0.377978 1.707850 0.532076
-0.427569 1.721633 0.437988
-0.426489 1.744274 -0.031808
-0.474327 1.742472 -0.066042
-0.473281 1.740553 -0.074057
-0.370749 1.708024 0.718130
-0.420967 1.724868 0.314048
-0.510274 1.715860 0.389564
-0.421514 1.738909 0.208180
-0.419047 1.733893 0.109136
-0.465237 1.712825 0.608751
-0.419157 1.745894 -0.093756
-0.418247 1.745678 -0.071752
-0.465678 1.742553 0.028011
-0.364271 1.741710 -0.059546
-0.462404 1.723644 0.424864
-0.504308 1.725920 0.181685
-0.506330 1.730693 0.406737
-0.362034 1.745205 -0.109502
-0.359172 1.735826 -0.070579
-0.500600 1.730434 0.028741
-0.406588 1.711015 0.707012
-0.401927 1.707396 0.567992
-0.352427 1.721688 0.451350
-0.351657 1.727394 0.278400
-0.401587 1.737634 0.036264
-0.350749 1.734405 0.074462
-0.489226 1.703403 0.642569
-0.349395 1.728939 0.223424
-0.448274 1.734940 0.194040
-0.489415 1.715004 0.682688
-0.445477 1.712983 0.697866
-0.492119 1.746383 -0.067058
-0.488444 1.737593 0.013878
-0.488121 1.738303 -0.058118
-0.441910 1.721407 0.350948
-0.440352 1.740860 0.000130
-0.483110 1.736033 0.172901
-0.437975 1.731429 0.146057
-0.338532 1.735686 0.047540
-0.334626 1.709922 0.532334
-0.385223 1.723720 0.436239
-0.382139 1.742315 -0.030588
-0.430987 1.747528 -0.066757
-0.429940 1.744609 -0.074781
-0.330428 1.714098 0.718411
-0.378631 1.727929 0.314309
-0.467929 1.718955 0.386825
-0.379175 1.740977 0.207430
-0.423895 1.713928 0.605987
-0.375703 1.731939 0.110352
-0.375815 1.744931 -0.092531
-0.374904 1.743716 -0.070537
-0.420311 1.737620 0.027207
-0.419044 1.725752 0.421120
-0.319912 1.735741 -0.057365
-0.460962 1.729997 0.179961
-0.459927 1.722839 0.399909
-0.317687 1.743222 -0.106281
-0.316843 1.738851 -0.068318
-0.458263 1.734503 0.027011
-0.364222 1.710144 0.702235
-0.360582 1.707487 0.566219
-0.311086 1.721764 0.450576
-0.447878 1.702518 0.638785
-0.308413 1.733438 0.076683
-0.359250 1.739684 0.036515
-0.308301 1.725457 0.278617
-0.307051 1.728998 0.223656
-0.403904 1.731032 0.191241
-0.447760 1.742455 -0.068858
-0.444017 1.712169 0.674906
-0.402117 1.718102 0.694153
-0.444078 1.733678 0.011079
-0.445785 1.743368 -0.059838
-0.398547 1.715494 0.349124
-0.397002 1.738922 -0.000655
-0.438739 1.732135 0.169102
-0.394625 1.731496 0.145293
-0.295184 1.735728 0.048777
-0.343882 1.725805 0.434485
-0.292287 1.712983 0.533597
-0.289064 1.710216 0.714599
-0.387637 1.746587 -0.067532
-0.337778 1.736358 -0.029406
-0.385580 1.738661 -0.074600
-0.426593 1.720039 0.385061
-0.336285 1.725993 0.314521
-0.379497 1.703068 0.600120
-0.334803 1.734050 0.206602
-0.332351 1.730995 0.110579
-0.332472 1.745968 -0.091285
-0.330550 1.742756 -0.069305
-0.376959 1.736682 0.026433
-0.377708 1.728836 0.419376
-0.418616 1.729075 0.178182
-0.277576 1.735767 -0.055133
-0.416569 1.726945 0.396185
-0.276370 1.749244 -0.103996
-0.415925 1.740571 0.025301
-0.322863 1.708260 0.698442
-0.273499 1.738878 -0.066081
-0.407542 1.704620 0.636027
-0.317219 1.705572 0.565438
-0.269750 1.723830 0.450823
-0.315894 1.738746 0.035741
-0.266077 1.736479 0.077945
-0.264946 1.723509 0.279835
-0.265719 1.733053 0.223922
-0.361556 1.732109 0.189482
-0.404409 1.743523 -0.070613
-0.359744 1.715240 0.688356
-0.402747 1.738744 0.009354
-0.357210 1.717566 0.348371
-0.399627 1.710320 0.668129
-0.400409 1.736442 -0.061661
-0.351628 1.731978 -0.000477
-0.396393 1.736220 0.166373
-0.351268 1.729563 0.144510
-0.253862 1.739757 0.051042
-0.301532 1.727891 0.432737
-0.249935 1.712055 0.533820
-0.248737 1.714291 0.714860
-0.344286 1.743636 -0.067326
-0.385247 1.720133 0.382287
-0.295436 1.735396 -0.028185
-0.343242 1.740706 -0.074350
-0.293932 1.724065 0.313733
-0.339159 1.704159 0.598352
-0.294476 1.737114 0.205852
-0.288995 1.730050 0.110806
-0.288109 1.741007 -0.090093
-0.288215 1.744791 -0.068055
-0.376266 1.728152 0.176403
-0.334613 1.739751 0.024694
-0.334335 1.725945 0.415584
-0.235247 1.740792 -0.052853
-0.372568 1.735635 0.024488
-0.373203 1.727052 0.392422
-0.233014 1.743271 -0.101819
-0.281520 1.712356 0.696709
-0.231162 1.741913 -0.064820
-0.367195 1.703732 0.632239
-0.228379 1.715927 0.447972
-0.276896 1.711640 0.565719
-0.225394 1.734099 0.225153
-0.273551 1.739796 0.035982
-0.222719 1.731514 0.080133
-0.319202 1.731186 0.187704
-0.222602 1.724560 0.281078
-0.361052 1.742590 -0.072387
-0.317381 1.715358 0.684588
-0.315874 1.721637 0.347637
-0.359390 1.741824 0.006620
-0.358064 1.739507 -0.063401
-0.357262 1.711446 0.663372
-0.310297 1.735024 -0.000222
-0.308912 1.724629 0.143692
-0.352015 1.730310 0.163556
-0.211526 1.743797 0.052313
-0.260182 1.726977 0.430954
-0.207587 1.712116 0.535054
-0.343905 1.721216 0.380524
-0.301942 1.745691 -0.068075
-0.253101 1.739433 -0.026914
-0.298833 1.708229 0.598614
-0.299886 1.740763 -0.075113
-0.251582 1.723127 0.313956
-0.251109 1.733184 0.205050
-0.247664 1.732091 0.112053
-0.246781 1.744040 -0.088838
-0.245869 1.744837 -0.067824
-0.333914 1.728228 0.174635
-0.292266 1.740811 0.023935
-0.290955 1.721053 0.411772
-0.192898 1.734811 -0.049680
-0.329204 1.732707 0.022695
-0.330847 1.730156 0.388684
-0.241177 1.712451 0.694932
-0.327871 1.708821 0.630505
-0.189660 1.738288 -0.098631
-0.188817 1.739940 -0.062608
-0.188056 1.719982 0.449233
-0.235553 1.711711 0.565947
-0.184048 1.732156 0.225360
-0.232226 1.746844 0.036277
-0.181388 1.732545 0.082370
-0.181274 1.727599 0.283334
-0.276849 1.732262 0.185945
-0.317690 1.740658 -0.074170
-0.276025 1.716473 0.680826
-0.274534 1.723708 0.346884
-0.316022 1.735896 0.004797
-0.315716 1.741573 -0.065150
-0.314895 1.712572 0.658615
-0.267576 1.726682 0.143939
-0.267948 1.736083 -0.000980
-0.309661 1.732395 0.160807
-0.169173 1.739839 0.053506
-0.217807 1.721075 0.428128
-0.302547 1.717310 0.377711
-0.165219 1.708198 0.534249
-0.258488 1.707319 0.596827
-0.257542 1.741808 -0.074872
-0.210760 1.740470 -0.025672
-0.257571 1.742750 -0.068862
-0.210250 1.726178 0.315212
-0.208744 1.727252 0.204224
-0.205302 1.726146 0.112227
-0.204436 1.745085 -0.088596
-0.292568 1.728303 0.172861
-0.249604 1.723147 0.409019
-0.202513 1.742875 -0.066606
-0.249922 1.743869 0.023196
-0.287513 1.703933 0.626678
-0.150565 1.738836 -0.047408
-0.287460 1.723274 0.383853
-0.286854 1.734776 0.020946
-0.148326 1.738312 -0.096404
-0.146478 1.740966 -0.060366
-0.147733 1.724036 0.450494
-0.194201 1.710792 0.565166
-0.142711 1.733203 0.226597
-0.235505 1.732327 0.185172
-0.188859 1.741896 0.036466
-0.139059 1.740586 0.083680
-0.138917 1.723650 0.284529
-0.233628 1.708621 0.673981
-0.233183 1.720781 0.346082
-0.274325 1.738725 -0.075952
-0.273668 1.738974 0.002058
-0.272345 1.736641 -0.066961
-0.272537 1.717687 0.654897
-0.226236 1.729745 0.143195
-0.225596 1.734132 -0.000767
-0.266295 1.733481 0.158055
-0.177476 1.725148 0.427389
-0.127842 1.742878 0.054762
-0.262209 1.719391 0.375953
-0.217133 1.706411 0.595046
-0.216199 1.741863 -0.075645
-0.169421 1.739507 -0.024455
-0.215220 1.740796 -0.068650
-0.167878 1.719251 0.314378
-0.167407 1.732317 0.203500
-0.163980 1.734187 0.113532
-0.251218 1.727377 0.171079
-0.162086 1.743120 -0.087384
-0.208251 1.722232 0.407237
-0.207553 1.735931 0.022350
-0.160157 1.739921 -0.066403
-0.248184 1.708022 0.624935
-0.109223 1.735863 -0.045210
-0.244494 1.732846 0.019159
-0.245091 1.722378 0.380076
-0.107002 1.742335 -0.094139
-0.104133 1.739993 -0.058143
-0.101855 1.670592 0.817253
-0.100361 1.734261 0.226840
-0.147508 1.737946 0.036654
-0.193144 1.731403 0.183395
-0.097722 1.739617 0.085897
-0.191830 1.718853 0.345291
-0.097592 1.728690 0.286805
-0.231968 1.740799 -0.078701
-0.232320 1.741050 -0.000696
-0.230995 1.733696 -0.067764
-0.230171 1.718800 0.651127
-0.184249 1.734186 -0.001554
-0.184899 1.732795 0.143438
-0.224939 1.732562 0.155258
-0.137151 1.730209 0.427645
-0.086501 1.741916 0.055964
-0.220840 1.713483 0.373108
-0.173851 1.742905 -0.075420
-0.127068 1.739552 -0.024240
-0.172863 1.739850 -0.069444
-0.126542 1.722300 0.315617
-0.126066 1.734371 0.203729
-0.122644 1.736227 0.114760
-0.209865 1.727450 0.169288
-0.120752 1.745152 -0.086157
-0.208844 1.708111 0.623134
-0.166210 1.737986 0.021578
-0.166900 1.724315 0.405465
-0.118823 1.743962 -0.066157
-0.067902 1.741886 -0.042946
-0.204160 1.737909 0.017409
-0.202723 1.722472 0.377289
-0.064662 1.744358 -0.091908
-0.062797 1.742025 -0.056919
-0.060029 1.735307 0.228048
-0.060501 1.670658 0.819462
-0.105158 1.739994 0.036882
-0.151800 1.736476 0.181647
-0.151498 1.722913 0.345528
-0.056387 1.740648 0.088110
-0.055236 1.727741 0.288004
-0.189599 1.736862 -0.080531
-0.189648 1.738766 -0.070513
-0.189955 1.739116 -0.002507
-0.143543 1.728851 0.143615
-0.050919 1.682812 0.700621
-0.142915 1.739233 -0.001291
-0.181554 1.728650 0.152445
-0.181509 1.716555 0.372343
-0.045145 1.738967 0.056150
-0.092835 1.745977 0.880052
-0.131481 1.737961 -0.076248
-0.085745 1.746588 -0.022958
-0.131520 1.742903 -0.070201
-0.086217 1.727352 0.316875
-0.084714 1.734439 0.202944
-0.169529 1.730513 0.168527
-0.081299 1.735271 0.115965
-0.078396 1.744196 -0.085947
-0.125529 1.721412 0.402652
-0.123851 1.740055 0.019817
-0.076462 1.739999 -0.064976
-0.025556 1.741913 -0.040727
-0.161798 1.735969 0.016610
-0.024328 1.742381 -0.089719
-0.160346 1.721579 0.373501
-0.022471 1.743050 -0.054701
-0.021201 1.678694 0.824746
-0.111156 1.722976 0.345739
-0.063814 1.741044 0.037106
-0.015049 1.740681 0.090324
-0.109430 1.734554 0.179848
-0.148255 1.740924 -0.082278
-0.147581 1.736194 -0.005315
-0.147284 1.737830 -0.072302
-0.012697 1.706802 0.710050
-0.102200 1.732915 0.142868
-0.101572 1.742290 -0.002048
-0.141156 1.715639 0.370544
-0.004829 1.745007 0.057415
-0.141218 1.733722 0.150703
-0.049042 1.658459 0.839445
0.000223 1.693458 0.537981
-0.090127 1.735005 -0.076062
-0.044390 1.740495 0.203210
-0.089144 1.735959 -0.071048
-0.043390 1.744627 -0.021758
-0.128174 1.731589 0.166752
-0.039963 1.738315 0.117208
-0.037043 1.740230 -0.084771
-0.039335 1.690992 0.679795
-0.082508 1.743113 0.019060
-0.035118 1.741043 -0.064752
0.014769 1.744949 -0.039490
-0.120448 1.738036 0.014844
0.018007 1.747416 -0.088453
-0.118994 1.724664 0.371745
0.019880 1.743087 -0.053482
-0.074015 1.664098 0.868404
0.020077 1.692698 0.834095
-0.023473 1.740092 0.037305
-0.069097 1.738618 0.179096
0.026293 1.739715 0.092528
-0.105874 1.733988 -0.084125
-0.106236 1.740260 -0.007063
-0.104904 1.729886 -0.073158
0.026620 1.710863 0.712293
-0.061860 1.732968 0.143078
-0.060226 1.742338 -0.001834
-0.100815 1.718712 0.369783
0.036507 1.747049 0.058648
-0.098846 1.732808 0.147914
-0.010909 1.697352 0.860014
0.041540 1.700495 0.542264
-0.003052 1.744673 -0.021550
-0.048796 1.744067 -0.077763
-0.048821 1.745020 -0.072754
0.000422 1.723368 0.117275
-0.086829 1.734654 0.165995
-0.001079 1.709020 0.685165
0.004292 1.744274 -0.084519
0.005205 1.746087 -0.064497
-0.041157 1.743172 0.018274
0.051061 1.697415 0.446279
0.057111 1.745977 -0.037262
-0.079097 1.740103 0.013077
0.059346 1.746441 -0.086249
0.009300 1.760988 0.584702
0.061217 1.743114 -0.051269
-0.035805 1.690069 0.880851
0.017862 1.744142 0.037556
0.061433 1.689760 0.837283
-0.027750 1.740685 0.178329
-0.028744 1.691197 0.655886
0.064951 1.708932 0.713474
-0.064527 1.739059 -0.086863
-0.063870 1.741337 -0.009834
-0.063574 1.742966 -0.076821
-0.021514 1.731022 0.143268
-0.018868 1.740395 -0.002639
-0.019410 1.701815 0.592030
-0.057489 1.734891 0.145148
0.028427 1.697429 0.861220
-0.008451 1.743119 -0.078564
0.081893 1.696549 0.544437
0.038303 1.740710 -0.020374
-0.007468 1.744074 -0.073549
-0.045473 1.733720 0.165200
0.039223 1.717063 0.689450
-0.000822 1.747238 0.016520
0.091322 1.715437 0.451657
0.046651 1.741310 -0.083329
0.047555 1.747133 -0.064269
-0.037744 1.741171 0.011301
0.048923 1.696232 0.566299
0.002479 1.699107 0.886136
0.100429 1.705536 0.228599
0.101769 1.689821 0.840494
0.010497 1.713207 0.663297
0.104276 1.709993 0.715688
-0.030502 1.690858 0.901918
0.109187 1.711933 0.294708
-0.023175 1.742131 -0.089621
-0.023539 1.748411 -0.012560
-0.023227 1.743028 -0.078612
0.064695 1.701633 0.419423
0.022470 1.744453 -0.003388
-0.020161 1.687483 0.622925
0.023459 1.811567 0.628278
-0.017140 1.734964 0.143357
0.068779 1.695510 0.862412
-0.012035 1.914932 0.685091
0.033873 1.747128 -0.074308
0.033905 1.744174 -0.079336
0.077214 1.711585 0.319575
0.125195 1.708573 0.550774
-0.006130 1.732792 0.163394
0.079587 1.714163 0.687632
0.131645 1.718488 0.453893
0.087976 1.747355 -0.083060
0.041546 1.744298 0.015710
0.002610 1.739237 0.009491
0.041834 1.696205 0.885314
0.089225 1.704270 0.570583
0.140753 1.709586 0.229846
0.006835 1.689961 0.900105
0.143599 1.711056 0.717901
0.143117 1.688884 0.843701
0.051878 1.709317 0.660475
0.150353 1.726818 0.099047
0.149559 1.702985 0.295834
0.018177 1.743193 -0.091398
0.019132 1.746101 -0.081366
0.018846 1.741479 -0.014406
0.105994 1.713675 0.422749
0.059323 1.689991 0.589331
0.160583 1.731166 0.063138
0.022094 1.713499 0.630387
0.109118 1.694572 0.865614
0.025273 1.693690 0.610219
0.116578 1.703646 0.319706
0.076263 1.744229 -0.080118
0.119103 1.710753 0.200778
0.076248 1.742183 -0.075136
0.165545 1.704629 0.552946
0.118927 1.713242 0.687827
0.171994 1.716558 0.454084
0.078341 1.697859 0.391491
0.043966 1.739304 0.007704
0.081181 1.694294 0.885501
0.130543 1.709310 0.574844
0.184044 1.725623 0.233217
0.045191 1.686067 0.898269
0.090586 1.716305 0.345722
0.182949 1.707137 0.718068
0.092240 1.707416 0.658666
0.185426 1.693904 0.851967
0.205376 1.831860 0.105292
0.059524 1.748274 -0.095139
0.192853 1.716007 0.301178
0.060502 1.741164 -0.083199
0.061197 1.746556 -0.017142
0.058582 1.714015 0.365566
0.147318 1.719736 0.424018
0.100578 1.710004 0.596730
0.213641 1.826240 0.065280
0.064488 1.709618 0.626571
0.065530 1.712712 0.616604
0.149485 1.689662 0.865778
0.158919 1.706694 0.321953
0.159469 1.705819 0.199941
0.206895 1.701678 0.556133
0.159281 1.710324 0.688008
0.211333 1.713617 0.455259
0.164832 1.714555 0.121044
0.120588 1.724893 0.395959
0.119512 1.693372 0.886692
0.222520 1.727081 -0.027587
0.170889 1.706368 0.577026
0.226738 1.737557 -0.078472
0.083510 1.689145 0.899497
0.226633 1.726242 -0.044574
0.227351 1.736670 0.235540
0.222303 1.702218 0.718226
0.129961 1.706376 0.344835
0.089901 1.709139 0.357683
0.185273 1.741358 0.037389
0.133578 1.710489 0.659908
0.233054 1.719889 0.103409
0.140642 1.750958 0.175288
0.226796 1.687977 0.854128
0.235161 1.723037 0.305459
0.097983 1.699106 0.362634
0.142910 1.722252 0.143036
0.188654 1.721797 0.425250
0.140941 1.705081 0.596894
0.243290 1.724252 0.065499
0.104901 1.705806 0.614745
0.105842 1.710708 0.625795
0.189835 1.686734 0.867961
0.201203 1.720726 0.326299
0.202742 1.726865 0.202356
0.204716 1.730875 -0.016609
0.199635 1.707406 0.688190
0.249226 1.703721 0.560370
0.252649 1.717663 0.458509
0.213978 1.776594 0.125861
0.162957 1.722973 0.395159
0.118635 1.702960 0.928807
0.213059 1.733471 -0.080547
0.212991 1.730306 -0.062575
0.158866 1.689461 0.886860
0.272729 1.776161 -0.027886
0.121869 1.684250 0.897652
0.212234 1.705428 0.579231
0.296645 1.904778 -0.087604
0.261617 1.703272 0.721439
0.268700 1.733723 0.236724
0.270930 1.741288 -0.043211
0.172270 1.717427 0.347154
0.132213 1.721199 0.359012
0.241335 1.840456 0.037573
0.174942 1.708580 0.659104
0.177116 1.711041 0.171111
0.267134 1.685031 0.858310
0.278360 1.732925 0.106759
0.138303 1.706171 0.362907
0.278494 1.726079 0.308709
0.180275 1.704147 0.598088
0.189112 1.767303 0.145681
0.229987 1.723860 0.426480
0.188912 1.732667 -0.004642
0.181705 1.695829 0.962040
0.286591 1.736301 0.066829
0.144233 1.706883 0.614958
0.230163 1.686789 0.872171
0.157152 1.788260 0.138736
0.148216 1.709808 0.624005
0.244069 1.729917 0.203595
0.239972 1.707479 0.689398
0.243540 1.722776 0.328535
0.267676 1.871035 -0.021024
0.292002 1.711732 0.458657
0.290568 1.700762 0.564556
0.157340 1.715070 0.158075
0.247525 1.712647 0.123453
0.242704 1.693716 0.993304
0.204308 1.722042 0.395363
0.199196 1.690525 0.890079
0.304575 2.053886 -0.103195
0.226598 1.875628 0.008842
0.281893 1.900533 -0.072690
0.161031 1.698086 0.925982
0.160181 1.687320 0.899879
0.306205 1.725152 -0.024176
0.300965 1.698345 0.722597
0.253582 1.703488 0.581426
0.308049 1.726773 0.237862
0.310432 1.731614 -0.074099
0.310313 1.725312 -0.041154
0.213609 1.718485 0.348376
0.175560 1.727280 0.358290
0.215288 1.707661 0.659304
0.269974 1.740465 0.037813
0.222395 1.735100 0.172561
0.319694 1.731963 0.108961
0.309489 1.681081 0.863493
0.180598 1.720223 0.365252
0.319843 1.721117 0.311876
0.271335 1.722931 0.426684
0.220638 1.699224 0.598252
0.226615 1.721366 0.143458
0.237127 1.779752 -0.005972
0.328926 1.737349 0.068054
0.183592 1.701968 0.614117
0.223054 1.695918 0.963255
0.270497 1.684844 0.876362
0.192712 1.724347 0.133339
0.190571 1.710891 0.624233
0.279319 1.702550 0.690556
0.284878 1.721825 0.330738
0.287417 1.731981 0.203835
0.334316 1.715772 0.462910
0.288419 1.726965 -0.015216
0.243696 1.737449 -0.083323
0.197717 1.708143 0.156220
0.244678 1.739415 -0.079300
0.333911 1.700809 0.568780
0.283054 1.690805 0.994486
0.293813 1.732697 0.125870
0.237544 1.685613 0.890233
0.245683 1.717129 0.393531
0.198527 1.684417 0.899051
0.249371 1.726602 0.010614
0.294806 1.715549 -0.079289
0.339285 1.695398 0.725767
0.298705 1.728403 -0.062153
0.203406 1.697202 0.924193
0.351518 1.735193 -0.021855
0.349377 1.727827 0.239082
0.211429 1.731577 0.000493
0.338952 1.686602 1.034703
0.294906 1.704532 0.585648
0.355748 1.742670 -0.073770
0.355635 1.735369 -0.040834
0.254945 1.719543 0.349597
0.217918 1.727358 0.357507
0.257631 1.709737 0.660540
0.313314 1.743521 0.038061
0.264748 1.735169 0.171778
0.364044 1.732006 0.111187
0.221945 1.720292 0.365465
0.350837 1.677138 0.867672
0.311681 1.718992 0.427855
0.260970 1.699284 0.600461
0.361209 1.713165 0.314016
0.228015 1.735545 -0.104392
0.229945 1.743441 -0.092311
0.268949 1.725426 0.143711
0.260077 1.955014 -0.034264
0.223942 1.700046 0.614307
0.371282 1.733396 0.069234
0.271647 1.721773 -0.005316
0.264413 1.694017 0.963451
0.311820 1.685893 0.881585
0.237053 1.733428 0.131647
0.232941 1.708983 0.623434
0.320669 1.700626 0.691751
0.374660 1.711835 0.464080
0.329754 1.733035 0.205060
0.327231 1.718875 0.332928
0.334715 1.745027 -0.014820
0.308714 1.867666 -0.093833
0.242018 1.725208 0.156601
0.307740 1.854616 -0.088954
0.323371 1.691867 0.998703
0.377227 1.703839 0.575028
0.277870 1.685670 0.894442
0.337143 1.735739 0.128111
0.238852 1.686481 0.902271
0.288022 1.719192 0.394758
0.380590 1.698440 0.730998
0.341098 1.735615 -0.079883
0.294693 1.740679 0.008962
0.379239 1.689631 1.042929
0.345014 1.744470 -0.062784
0.390722 1.723871 0.241248
0.395841 1.741239 -0.020586
0.245768 1.697301 0.924402
0.273444 1.855733 -0.004096
0.337251 1.703586 0.588847
0.399096 1.740702 -0.071578
0.296294 1.717602 0.350781
0.399977 1.737414 -0.039602
0.260298 1.723445 0.355676
0.354672 1.738573 0.038213
0.299010 1.703830 0.659686
0.307106 1.734239 0.170971
0.262296 1.717358 0.365631
0.405399 1.725034 0.114321
0.394138 1.681150 0.877915
0.302306 1.699339 0.603659
0.354031 1.718058 0.429047
0.404531 1.716200 0.318248
0.311286 1.728486 0.143938
0.304864 1.940878 -0.124197
0.264256 1.705109 0.616544
0.302841 1.926738 -0.109332
0.271076 1.725907 -0.028271
0.305740 1.697093 0.966674
0.414617 1.735445 0.070454
0.317944 1.741843 -0.005919
0.353159 1.683947 0.886762
0.362002 1.701697 0.693952
0.414998 1.708891 0.466240
0.280422 1.733505 0.129849
0.277283 1.716066 0.624704
0.371120 1.727096 0.205196
0.370561 1.721922 0.336154
0.378070 1.744079 -0.014631
0.364700 1.692939 1.002903
0.328426 1.731559 -0.084966
0.286344 1.735272 0.156894
0.318204 1.685741 0.897628
0.331400 1.739538 -0.081881
0.420559 1.703873 0.581227
0.278193 1.685571 0.903451
0.379507 1.730789 0.129265
0.417559 1.686698 1.047084
0.419943 1.692520 0.732131
0.330371 1.720268 0.394967
0.386431 1.743679 -0.080599
0.387354 1.744520 -0.062586
0.338051 1.740742 0.008166
0.433081 1.719929 0.242411
0.438195 1.736273 -0.018433
0.378583 1.702636 0.593034
0.296161 1.728714 -0.003127
0.442436 1.740744 -0.070376
0.289150 1.695411 0.924591
0.442321 1.734447 -0.037431
0.338646 1.716666 0.351972
0.341340 1.706895 0.662913
0.399020 1.740632 0.038438
0.349476 1.730309 0.170134
0.304682 1.721531 0.354868
0.305628 1.723426 0.366889
0.448738 1.725078 0.116523
0.343651 1.698407 0.605846
0.395391 1.714134 0.429206
0.437455 1.683187 0.886138
0.446897 1.709244 0.321385
0.305611 1.703187 0.617723
0.312757 1.730679 -0.109037
0.354642 1.727539 0.145133
0.311727 1.722560 -0.096113
0.316400 1.739991 -0.030933
0.457973 1.731486 0.072621
0.359312 1.735901 -0.006779
0.348110 1.694193 0.967848
0.395480 1.685999 0.892981
0.404327 1.703756 0.698170
0.458316 1.712949 0.469478
0.414467 1.728163 0.205408
0.324791 1.734586 0.128066
0.411924 1.715983 0.337295
0.319699 1.706181 0.621816
0.405047 1.689019 1.006058
0.421431 1.740124 -0.013465
0.371777 1.733627 -0.086745
0.317508 1.687642 0.906656
0.359534 1.685800 0.902825
0.374741 1.743607 -0.083643
0.328710 1.732342 0.156066
0.458857 1.688740 1.055296
0.462914 1.698924 0.585382
0.462245 1.696564 0.738365
0.422853 1.730843 0.130467
0.372740 1.716343 0.395131
0.428783 1.740728 -0.080429
0.430714 1.742580 -0.063403
0.381415 1.738806 0.007350
0.476439 1.716989 0.243587
0.481549 1.732309 -0.016267
0.339507 1.732786 -0.004888
0.421934 1.700690 0.597220
0.483799 1.731773 -0.068264
0.331512 1.694509 0.925784
0.485669 1.732492 -0.036247
0.380982 1.717722 0.354180
0.384697 1.706981 0.664118
0.442386 1.736688 0.038605
0.392839 1.728374 0.170320
0.386948 1.706446 0.612121
0.347008 1.716506 0.366022
0.348051 1.720615 0.354063
0.493082 1.724116 0.119721
0.436749 1.709201 0.430356
0.491220 1.712286 0.325619
0.480804 1.679232 0.893308
0.346946 1.704256 0.619927
0.397001 1.724600 0.145305
0.359095 1.743778 -0.113705
0.388475 1.689299 0.967995
0.360056 1.741664 -0.100718
0.501321 1.729537 0.073805
0.361754 1.746075 -0.033668
0.402681 1.731955 -0.006612
0.437803 1.686043 0.900181
0.445674 1.700830 0.700338
0.501641 1.713997 0.473689
0.446345 1.692067 1.013279
0.457821 1.726222 0.206593
0.455272 1.714031 0.340480
0.368183 1.728664 0.126216
0.499168 1.687797 1.061477
0.463792 1.735176 -0.013312
0.400856 1.686860 0.908029
0.358838 1.688711 0.910861
0.364061 1.707266 0.623034
0.418099 1.745703 -0.088424
0.502586 1.691629 0.741511
0.370081 1.727419 0.154216
0.506238 1.698962 0.591585
0.418115 1.739674 -0.085476
0.466205 1.727888 0.132642
0.416100 1.715421 0.395325
0.519758 1.720044 0.245815
0.473148 1.737779 -0.080249
0.422801 1.728864 0.006455
0.475079 1.739633 -0.063223
0.525886 1.732349 -0.014062
0.464268 1.699744 0.601410
0.529143 1.732820 -0.067045
0.385862 1.739873 -0.007610
0.530010 1.732539 -0.035042
0.423343 1.713786 0.355343
0.375879 1.694605 0.927993
0.484746 1.731744 0.038757
0.426074 1.700070 0.664251
0.388363 1.713578 0.366190
0.535426 1.720160 0.121882
0.480080 1.711265 0.432576
0.429298 1.704517 0.614302
0.436197 1.727448 0.169513
0.391426 1.717699 0.353240
0.533575 1.706332 0.328763
0.388291 1.703334 0.621113
0.526088 1.685241 0.905573
0.439363 1.720661 0.145467
0.403459 1.744855 -0.116490
0.403412 1.742740 -0.103508
0.431811 1.690368 0.973208
0.545678 1.726591 0.074984
0.447024 1.736030 -0.008371
0.480137 1.684096 0.906363
0.405139 1.740144 -0.035519
0.544970 1.714056 0.476891
0.489004 1.701892 0.704549
0.489664 1.694130 1.019500
0.539480 1.685855 1.067648
0.500183 1.721287 0.206746
0.398180 1.685801 0.912021
0.498626 1.711089 0.342656
0.544889 1.693675 0.747726
0.411533 1.729736 0.125427
0.442194 1.684929 0.912207
0.508146 1.733224 -0.012124
0.414429 1.730495 0.153449
0.461476 1.739760 -0.089275
0.407446 1.702357 0.623194
0.549595 1.693008 0.596735
0.462481 1.737734 -0.086288
0.509553 1.725944 0.133826
0.563093 1.719098 0.248007
0.459446 1.715492 0.396528
0.516518 1.731829 -0.080101
0.569233 1.728387 -0.011897
0.517451 1.731682 -0.063097
0.468155 1.731942 0.004692
0.506614 1.695797 0.605573
0.575477 1.735871 -0.065805
0.429228 1.737945 -0.009426
0.465692 1.710843 0.357514
0.575365 1.730589 -0.033850
0.419257 1.691715 0.928172
0.528106 1.727802 0.038923
0.470413 1.702141 0.667476
0.469655 1.697584 0.616430
0.430719 1.711653 0.366371
0.582740 1.727208 0.125162
0.524425 1.711331 0.434782
0.479578 1.721521 0.168662
0.429638 1.700404 0.623281
0.581876 1.715369 0.335065
0.569434 1.680290 0.912732
0.435797 1.715776 0.353430
0.484698 1.725731 0.145721
0.589018 1.724644 0.076166
0.447833 1.742930 -0.119302
0.475157 1.689446 0.977403
0.523471 1.682145 0.913548
0.448795 1.740817 -0.106315
0.491389 1.733087 -0.008191
0.448522 1.735222 -0.038362
0.587320 1.709121 0.479043
0.531342 1.699962 0.707729
0.583742 1.692872 1.079915
0.532989 1.694194 1.025702
0.586210 1.691736 0.751901
0.543539 1.718356 0.206920
0.439528 1.682880 0.915189
0.483534 1.681999 0.916375
0.542959 1.711133 0.346862
0.456900 1.730820 0.123647
0.552500 1.731282 -0.011937
0.457796 1.727568 0.152624
0.506831 1.738805 -0.088075
0.593940 1.690058 0.601915
0.506855 1.736831 -0.091092
0.451820 1.700452 0.623385
0.553901 1.723992 0.136013
0.609418 1.722151 0.251247
0.502825 1.709570 0.396678
0.563860 1.736899 -0.080840
0.617573 1.732446 -0.010640
0.513510 1.733011 0.003910
0.550947 1.695848 0.610780
0.562817 1.728737 -0.062914
0.620832 1.732919 -0.064623
0.509050 1.707911 0.358690
0.474590 1.739021 -0.011208
0.623708 1.734655 -0.033594
0.465607 1.694799 0.932415
0.514747 1.704214 0.670700
0.574464 1.727867 0.039137
0.513990 1.698645 0.620646
0.474070 1.710721 0.367564
0.568760 1.711390 0.437988
0.629079 1.727253 0.128375
0.470993 1.696483 0.624440
0.522936 1.718587 0.168837
0.627213 1.713406 0.340257
0.615741 1.682313 0.923965
0.481166 1.715865 0.352641
0.528067 1.719786 0.146870
0.636355 1.727707 0.077409
0.520469 1.694505 0.984658
0.629656 1.705178 0.482204
0.567787 1.683188 0.921764
0.492179 1.734891 -0.109167
0.494229 1.740017 -0.123114
0.536752 1.732155 -0.008991
0.574689 1.697034 0.710905
0.626052 1.690921 1.088094
0.493887 1.736305 -0.041144
0.574321 1.690263 1.030860
0.632491 1.698768 0.761176
0.481840 1.685944 0.920414
0.591865 1.725420 0.209203
0.527843 1.685043 0.924608
0.588299 1.711189 0.350072
0.500283 1.723890 0.122787
0.599850 1.733346 -0.011702
0.499186 1.716635 0.151721
0.552213 1.736903 -0.092883
0.641250 1.693083 0.611160
0.554204 1.739890 -0.090848
0.601237 1.728058 0.137266
0.653762 1.719208 0.253424
0.499154 1.706520 0.627657
0.550136 1.718635 0.399974
0.608218 1.732953 -0.080671
0.662908 1.731491 -0.008441
0.610153 1.733809 -0.063654
0.598249 1.701883 0.619050
0.558869 1.733090 0.002119
0.669169 1.735976 -0.063377
0.553382 1.708965 0.361904
0.668068 1.728703 -0.032443
0.517974 1.732092 -0.013068
0.509976 1.691895 0.934596
0.620803 1.730943 0.038375
0.558321 1.698697 0.625852
0.612119 1.706464 0.439145
0.518414 1.711793 0.368778
0.560100 1.703289 0.673901
0.675423 1.725299 0.131569
0.514335 1.695550 0.627633
0.570277 1.723663 0.169099
0.672562 1.709453 0.344431
0.662060 1.681337 0.935171
0.573407 1.721856 0.147096
0.683690 1.729770 0.078643
0.674960 1.708227 0.487438
0.667349 1.688967 1.096268
0.528515 1.719943 0.353894
0.613091 1.685219 0.931991
0.565810 1.694582 0.989868
0.619989 1.701078 0.718148
0.537554 1.732970 -0.111975
0.581124 1.727220 -0.009830
0.540590 1.742098 -0.125884
0.675802 1.697819 0.767366
0.616673 1.684343 1.035005
0.542237 1.743396 -0.043862
0.523170 1.684015 0.924590
0.637210 1.724486 0.210403
0.570179 1.682108 0.929779
0.632637 1.709243 0.353259
0.645209 1.729398 -0.010529
0.548637 1.729982 0.121061
0.545538 1.719716 0.150961
0.599565 1.739981 -0.094641
0.688575 1.693118 0.619378
0.645597 1.722108 0.139417
0.700104 1.718271 0.255628
0.601571 1.739966 -0.092632
0.544507 1.706601 0.629867
0.595495 1.716711 0.401166
0.709251 1.729538 -0.006247
0.656567 1.735017 -0.080433
0.641602 1.695941 0.623199
0.656509 1.732878 -0.064451
0.604241 1.729158 0.001293
0.713526 1.729015 -0.061235
0.599711 1.712025 0.365143
0.712431 1.720743 -0.030309
0.563354 1.729177 -0.015885
0.602636 1.700751 0.631074
0.659417 1.713516 0.444422
0.562758 1.711865 0.369983
0.667172 1.727008 0.038553
0.721768 1.722346 0.134755
0.558665 1.697621 0.630856
0.604467 1.698370 0.676064
0.558307 1.696961 0.941863
0.719891 1.709499 0.349647
0.616653 1.720744 0.168286
0.711648 1.689014 1.105471
0.719302 1.704291 0.490607
0.709369 1.681358 0.947389
0.729036 1.725821 0.080815
0.618761 1.719917 0.148288
0.611126 1.696643 0.997095
0.665315 1.701141 0.723356
0.574872 1.720019 0.355107
0.657435 1.680273 0.939154
0.720121 1.695873 0.773553
0.662943 1.691375 1.046278
0.584956 1.740185 -0.129698
0.630462 1.734300 -0.010545
0.584923 1.735062 -0.115741
0.567495 1.685078 0.930804
0.587628 1.737478 -0.046705
0.616472 1.687143 0.940036
0.681582 1.717557 0.210546
0.680968 1.711291 0.358497
0.691563 1.727462 -0.010335
0.593877 1.725793 0.151234
0.735888 1.694154 0.627603
0.746439 1.717335 0.257830
0.691939 1.721164 0.141620
0.596010 1.729062 0.120270
0.646918 1.740041 -0.094425
0.645937 1.737055 -0.096455
0.757590 1.729591 -0.004028
0.640860 1.712787 0.402340
0.589909 1.698698 0.630009
0.706897 1.743105 -0.082137
0.687930 1.694983 0.630404
0.702867 1.729939 -0.064265
0.762861 1.732085 -0.060986
0.653591 1.734247 -0.000440
0.760749 1.725814 -0.030047
0.646062 1.711094 0.367348
0.611713 1.732261 -0.017638
0.645992 1.694819 0.634222
0.705779 1.709589 0.446600
0.601011 1.693696 0.633018
0.715514 1.729080 0.038789
0.770098 1.722390 0.138974
0.608127 1.707939 0.371158
0.649815 1.696446 0.679256
0.754941 1.687051 1.115653
0.604667 1.695047 0.946060
0.767592 1.710341 0.496878
0.663997 1.722821 0.168519
0.766238 1.704541 0.354816
0.777378 1.725888 0.082034
0.754701 1.676400 0.956555
0.667108 1.721987 0.149525
0.654475 1.691724 1.001252
0.766427 1.696925 0.780773
0.709673 1.695217 0.726509
0.703736 1.681301 0.950375
0.705294 1.683449 1.051405
0.619269 1.711105 0.354235
0.676821 1.732372 -0.011351
0.612796 1.689127 0.939047
0.632341 1.737266 -0.132508
0.633298 1.736157 -0.119512
0.659796 1.684196 0.947211
0.633012 1.731552 -0.048549
0.732902 1.725631 0.212847
0.729296 1.713349 0.362734
0.741891 1.733537 -0.010056
0.794766 1.718397 0.261058
0.785186 1.697180 0.637853
0.639259 1.719871 0.150390
0.740289 1.720224 0.143832
0.693299 1.736133 -0.098248
0.693290 1.736116 -0.096249
0.643382 1.728152 0.118477
0.806935 1.728646 -0.001814
0.687222 1.709866 0.403526
0.735246 1.696029 0.637628
0.752282 1.733160 -0.082016
0.637263 1.698776 0.633227
0.753215 1.733018 -0.065012
0.812203 1.732146 -0.059763
0.700943 1.734323 -0.001225
0.809104 1.722874 -0.028853
0.692397 1.711156 0.370559
0.658078 1.731349 -0.020436
0.693309 1.696866 0.641456
0.751127 1.705662 0.448773
0.646344 1.693762 0.637226
0.817445 1.718441 0.142155
0.766846 1.735161 0.039072
0.653480 1.706015 0.372349
0.698132 1.700506 0.685511
0.813935 1.706411 0.500054
0.817536 1.710583 0.362099
0.652019 1.694128 0.951270
0.812721 1.697970 0.788992
0.712353 1.722900 0.168739
0.829702 1.731967 0.083320
0.759956 1.703261 0.735805
0.752583 1.686486 1.062647
0.715458 1.723065 0.149753
0.699841 1.685812 1.005410
0.750064 1.678346 0.959563
0.656123 1.687197 0.944230
0.668620 1.714189 0.355486
0.724182 1.730447 -0.012153
0.682698 1.743375 -0.137229
0.707096 1.687235 0.957453
0.682649 1.741256 -0.123246
0.682367 1.735646 -0.051291
0.781244 1.725706 0.214065
0.776640 1.710404 0.366924
0.790242 1.731598 -0.008855
0.844086 1.720462 0.264297
0.836503 1.698213 0.648095
0.791610 1.726296 0.146114
0.687607 1.721949 0.150627
0.743650 1.738201 -0.098004
0.744653 1.740221 -0.099983
0.690743 1.727234 0.117684
0.858272 1.730717 -0.000566
0.735554 1.711936 0.406763
0.782569 1.695076 0.644836
0.802624 1.735232 -0.081772
0.800572 1.730091 -0.065824
0.863539 1.734214 -0.058516
0.686608 1.700853 0.637469
0.861433 1.727955 -0.028576
0.742719 1.716220 0.374830
0.752303 1.737416 -0.002968
0.740629 1.697921 0.647680
0.799452 1.706726 0.453000
0.706453 1.729433 -0.022233
0.694655 1.698820 0.643489
0.814197 1.732232 0.039260
0.870757 1.724501 0.146445
0.702795 1.713085 0.375632
0.864232 1.710460 0.507315
0.746469 1.700575 0.690731
0.856059 1.690033 0.794121
0.867867 1.709630 0.368318
0.881038 1.733034 0.085559
0.763683 1.728980 0.170021
0.806278 1.701321 0.741999
0.699388 1.690219 0.955453
0.765792 1.727142 0.151014
0.749132 1.690853 1.016677
0.701433 1.688257 0.951446
0.750443 1.680307 0.962593
0.775539 1.733540 -0.013896
0.718973 1.716268 0.357731
0.730087 1.738465 -0.141057
0.731028 1.739350 -0.127045
0.827610 1.718776 0.215216
0.732743 1.736750 -0.055055
0.825969 1.710458 0.372147
0.897405 1.725538 0.267578
0.840598 1.730673 -0.008637
0.885809 1.698250 0.657317
0.839958 1.723358 0.148306
0.737949 1.727042 0.149897
0.792020 1.736299 -0.101803
0.792030 1.733281 -0.099828
0.742102 1.730325 0.116941
0.910603 1.732783 0.001685
0.836841 1.705103 0.657164
0.853969 1.737314 -0.082526
0.785909 1.712018 0.408991
0.852925 1.732176 -0.066572
0.916879 1.736286 -0.057261
0.915781 1.730030 -0.027316
0.789077 1.710282 0.377990
0.799676 1.732500 -0.004796
0.738935 1.706921 0.643757
0.851761 1.712794 0.458286
0.788962 1.696981 0.653892
0.741001 1.695890 0.647675
0.912559 1.708529 0.511515
0.757818 1.732533 -0.024976
0.923079 1.726560 0.150695
0.865550 1.732313 0.039490
0.749161 1.708164 0.376801
0.795802 1.700640 0.696954
0.923167 1.716685 0.375624
0.930383 1.730106 0.086754
0.856588 1.703375 0.750243
0.812050 1.725060 0.170205
0.751693 1.697274 0.965749
0.743794 1.679343 0.954565
0.813160 1.721209 0.152178
0.824901 1.731620 -0.014691
0.769340 1.715355 0.358951
0.880936 1.723857 0.217497
0.782409 1.739451 -0.130814
0.783470 1.740569 -0.144801
0.876297 1.710515 0.377373
0.783119 1.735845 -0.057837
0.946741 1.722605 0.270773
0.893941 1.733757 -0.008374
0.895297 1.727431 0.151587
0.787320 1.724122 0.150094
0.846377 1.741403 -0.104519
0.960945 1.729844 0.003884
0.846392 1.738393 -0.103544
0.886170 1.702149 0.665361
0.792484 1.727414 0.116143
0.837236 1.715088 0.413247
0.904338 1.733393 -0.083334
0.968223 1.734355 -0.056049
0.905295 1.730260 -0.067355
0.967127 1.728101 -0.026104
0.841398 1.715353 0.382266
0.851029 1.733586 -0.005558
0.787299 1.703004 0.646943
0.903085 1.713860 0.463524
0.838267 1.699028 0.662131
0.962876 1.707588 0.517732
0.790316 1.698952 0.653924
0.974430 1.722623 0.153891
0.919893 1.736411 0.038765
0.806208 1.726624 -0.027808
0.800481 1.713232 0.381074
0.845138 1.699713 0.702169
0.975477 1.717733 0.382866
0.982726 1.729186 0.087979
0.864399 1.727151 0.170456
0.795059 1.688372 0.967872
0.866506 1.724294 0.153442
0.879251 1.735713 -0.015416
0.931272 1.722931 0.219713
0.822686 1.719443 0.361223
0.834774 1.742565 -0.135555
0.931606 1.716579 0.383670
0.833846 1.739677 -0.149584
1.000062 1.724683 0.274027
0.835477 1.738947 -0.060579
0.947294 1.733840 -0.008137
0.946630 1.727504 0.153816
0.838677 1.725217 0.149333
1.017278 1.732921 0.006158
0.898743 1.741503 -0.107286
0.900752 1.741497 -0.106277
0.891554 1.721168 0.417539
1.025548 1.740449 -0.055747
0.845834 1.731512 0.115414
0.961677 1.740500 -0.085022
1.023460 1.732193 -0.025822
0.961634 1.736366 -0.069055
0.891740 1.713419 0.386475
0.906372 1.739692 -0.007263
0.840639 1.706086 0.652208
0.955412 1.714937 0.467766
0.892568 1.705081 0.671424
0.840632 1.701010 0.661167
1.029743 1.725683 0.159161
0.972248 1.734496 0.038981
0.861552 1.734736 -0.030496
0.850833 1.712314 0.383292
1.029804 1.716786 0.390099
1.038063 1.730266 0.090232
0.916753 1.727243 0.170690
0.918848 1.725377 0.154683
0.932604 1.736805 -0.016171
0.984631 1.721020 0.220934
0.982932 1.714633 0.389882
1.053401 1.722761 0.277246
0.876040 1.720531 0.363470
0.886218 1.739781 -0.153351
0.887158 1.740669 -0.139339
0.887862 1.737055 -0.064362
1.001633 1.734920 -0.006888
1.002969 1.729581 0.157082
1.073606 1.735000 0.008423
0.951102 1.740595 -0.109062
0.892029 1.727310 0.149587
0.953115 1.740598 -0.109053
1.079900 1.737526 -0.054532
1.015035 1.738588 -0.085803
0.941924 1.715252 0.419715
1.079789 1.735288 -0.025549
1.018965 1.742467 -0.069753
0.899207 1.730610 0.114644
0.944075 1.713492 0.390709
0.959745 1.737791 -0.009042
1.008745 1.714010 0.472995
0.891951 1.703081 0.667413
0.895973 1.709157 0.659480
1.087069 1.727757 0.163430
1.027601 1.734588 0.039225
0.904166 1.715397 0.386555
0.917904 1.740851 -0.033197
1.093401 1.730356 0.091476
0.971100 1.728333 0.171939
0.974184 1.728460 0.156953
1.039951 1.724101 0.224203
0.985965 1.735905 -0.017943
1.038262 1.714698 0.396127
0.927405 1.716615 0.365667
0.944577 1.747918 -0.159028
0.944519 1.746796 -0.144036
1.056973 1.736012 -0.006636
0.945215 1.743170 -0.067059
1.058309 1.729666 0.159326
1.126962 1.729070 0.010609
1.008466 1.743715 -0.112785
0.944395 1.725408 0.148803
1.009468 1.743709 -0.111781
1.141235 1.742631 -0.054223
1.068394 1.734668 -0.085600
1.133148 1.729364 -0.024363
0.996257 1.716333 0.423964
1.070342 1.734550 -0.070592
0.997403 1.713560 0.395945
0.954571 1.731713 0.113897
1.018093 1.742905 -0.010745
1.139423 1.719817 0.167595
1.082958 1.732681 0.039453
1.152728 1.733448 0.093760
0.960492 1.720481 0.390845
0.973271 1.741962 -0.035944
1.027454 1.729436 0.172196
1.029528 1.729549 0.158193
1.092322 1.717186 0.225363
1.043320 1.738004 -0.018689
1.000954 1.749037 -0.163789
1.001896 1.748917 -0.148786
1.111341 1.731096 -0.006456
0.984771 1.717712 0.367911
1.001596 1.743286 -0.070830
1.111660 1.724734 0.162501
1.189281 1.735164 0.012910
1.195584 1.737706 -0.053047
1.065838 1.743824 -0.115554
1.001743 1.729510 0.149068
1.190489 1.728450 -0.023142
1.065840 1.742815 -0.114563
1.131732 1.742789 -0.087281
1.131682 1.740667 -0.072298
1.053738 1.714635 0.401180
1.009949 1.729813 0.113102
1.074461 1.742010 -0.012530
1.134344 1.722768 0.038571
1.013850 1.717564 0.394030
1.027652 1.739066 -0.038757
1.083811 1.728528 0.173405
1.087882 1.730649 0.159439
1.100689 1.737113 -0.020465
1.055284 1.744031 -0.153610
1.175669 1.739211 -0.006130
1.052366 1.738133 -0.167670
1.042129 1.717807 0.371146
1.058973 1.743407 -0.074597
1.118225 1.734913 -0.117416
1.059093 1.731615 0.149317
1.190090 1.741898 -0.089053
1.117236 1.731900 -0.116444
1.188052 1.735762 -0.073111
1.069307 1.732929 0.112368
1.125863 1.730102 -0.014420
1.085038 1.737189 -0.042541
1.136193 1.719622 0.173545
1.140258 1.721733 0.160578
1.161040 1.739224 -0.021205
1.121335 1.748541 -0.078305
1.184578 1.743056 -0.121083
1.249467 1.737000 -0.089855
1.112491 1.721707 0.149453
1.190203 1.737233 -0.016104
1.122707 1.723026 0.111503
1.144415 1.736309 -0.045309
1.180722 1.745667 -0.082091
1.208780 1.740451 -0.049019
1.233465 1.735420 -0.168966
1.226554 1.725509 -0.183072
1.238125 1.736778 -0.084933
