# .PCD v0.7 - Point Cloud Data file format
VERSION 0.7
FIELDS x y z
SIZE 4 4 4
TYPE F F F
COUNT 1 1 1
WIDTH 158
HEIGHT 1
VIEWPOINT 0 0 0 1
POINTS 158
DATA ascii
2.159952 1.444752 1.649220
2.235337 1.457570 1.576609
2.257385 1.433668 1.693226
2.340796 1.445526 1.620616
2.362779 1.463084 1.255928
2.220683 1.452703 1.679388
2.394632 1.440374 1.764663
2.479222 1.482212 1.177524
2.474139 1.444386 1.680898
2.471279 1.448163 1.290894
2.366219 1.486460 1.234248
2.316153 1.437661 1.720319
2.343276 1.458074 1.304684
2.629529 1.526692 0.745604
2.497108 1.422295 1.810563
2.610623 1.486594 0.856839
2.638544 1.489323 1.229016
2.610645 1.446180 1.341178
2.598568 1.432279 1.735963
2.485660 1.478536 1.273365
2.450420 1.441404 1.788693
2.444767 1.442115 1.339617
2.336741 1.456306 1.345539
2.625479 1.413092 1.873697
2.376708 1.476975 1.322001
2.551984 1.485523 0.891574
2.764047 1.484903 0.891160
2.771041 1.474449 1.269049
2.655201 1.510073 0.838243
2.759014 1.442186 1.395454
2.735970 1.421137 1.798086
2.619064 1.473614 1.317577
2.565840 1.428273 1.842720
2.594057 1.447032 1.400051
2.437208 1.441294 1.383490
2.926523 1.509444 0.799963
2.496108 1.470993 1.365157
2.510351 1.485766 0.915382
2.800404 1.552943 0.429278
2.703370 1.486756 0.929941
2.372027 1.473375 1.412836
2.573319 1.509358 0.903947
2.345259 1.451530 1.393378
2.917505 1.477224 0.924379
2.921498 1.462561 1.316205
2.808597 1.510383 0.871617
2.900461 1.428222 1.444563
2.765430 1.470660 1.367885
2.476393 1.505634 0.965594
2.865451 1.400038 1.854041
2.684271 1.412134 1.897732
2.714519 1.431010 1.445068
2.576507 1.443158 1.442871
2.732629 1.544947 0.511905
2.980748 1.575251 0.411112
2.477757 1.483026 0.941188
2.609555 1.458026 1.404208
3.087038 1.496832 0.829144
2.634804 1.476921 0.947531
2.832882 1.470964 0.959988
2.458649 1.443401 1.442518
3.067036 1.459488 0.957454
3.083917 1.451630 1.369423
2.852908 1.571823 0.441655
2.957071 1.500695 0.901809
2.591839 1.496810 0.993708
3.040948 1.407224 1.494554
2.901885 1.455701 1.413960
2.852928 1.418960 1.498205
2.696947 1.428070 1.491903
2.755856 1.458992 1.459586
2.590229 1.470126 0.972228
2.772237 1.469066 0.984728
2.604766 1.461314 1.502191
3.262561 1.482230 0.862332
3.106477 1.532022 0.457657
2.841199 1.494819 0.965346
2.982339 1.460190 0.996172
2.577018 1.435274 1.493664
3.239521 1.445806 0.995657
2.736163 1.501011 1.031129
3.126521 1.493026 0.938098
2.807190 1.540408 0.614926
3.051314 1.441736 1.465096
2.999334 1.404891 1.555336
2.929345 1.589081 0.499054
2.737562 1.472222 1.016625
3.043556 1.537955 0.548530
2.845289 1.421938 1.554171
2.882320 1.441000 1.504588
2.718184 1.447290 1.545224
2.922651 1.462237 1.024984
2.996603 1.490082 1.001649
2.697434 1.421143 1.545717
3.138825 1.444401 1.035297
2.870575 1.493194 1.065321
2.944684 1.529811 0.633073
3.282072 1.471344 0.969118
3.372844 1.367202 1.614739
3.337722 1.336413 2.072188
3.074835 1.578458 0.520218
3.017741 1.424996 1.553657
2.881962 1.465327 1.058864
2.971744 1.400854 1.605132
2.839588 1.433263 1.591285
3.077091 1.450392 1.067171
3.151060 1.477330 1.037818
2.841750 1.414928 1.611977
3.010015 1.481400 1.099465
3.101126 1.524255 0.655363
2.983907 1.426179 1.649533
3.025393 1.452422 1.101005
3.539046 1.318077 2.169429
3.221592 1.428531 1.106171
3.309547 1.459594 1.073922
2.972170 1.395761 1.669987
3.161439 1.469592 1.138648
3.795146 1.370749 1.120854
3.252637 1.508671 0.676477
3.818867 1.355981 1.605741
3.454743 1.328678 1.732255
3.170861 1.433508 1.144059
3.745396 1.292710 2.270578
3.425103 1.497139 0.701724
4.047596 1.351148 1.181222
3.477064 1.358930 1.722759
3.661093 1.309511 1.817505
3.409097 1.325461 1.788029
3.962768 1.261349 2.375672
3.573519 1.388857 1.203441
3.269942 1.357345 1.805133
3.432065 1.371948 1.827809
4.102043 1.388843 1.146924
3.689370 1.345844 1.805125
3.627353 1.314184 1.885447
3.744058 1.356002 1.250363
3.851033 1.390438 1.200212
3.402446 1.322178 1.863913
3.664759 1.417241 1.267098
3.612418 1.352849 1.899987
3.674224 1.367763 1.296315
3.870820 1.313781 1.874104
3.816758 1.283961 1.968484
3.598727 1.305847 1.957191
4.079471 1.368760 1.256487
4.005623 1.439734 0.783315
3.791803 1.326729 1.973059
3.781113 1.275549 2.043214
4.026314 1.259131 2.160650
2.825208 -0.985325 2.819427
2.767806 -1.039094 2.789902
2.689433 -1.083695 2.739434
2.831218 -1.026040 2.825931
2.777767 -1.076824 2.798460
2.758653 -1.270476 2.762175
2.708330 -1.120500 2.756042
2.676201 -1.307126 2.712826
2.767618 -1.437951 2.760478
