# .PCD v0.7 - Point Cloud Data file format
VERSION 0.7
FIELDS x y z
SIZE 4 4 4
TYPE F F F
COUNT 1 1 1
WIDTH 531
HEIGHT 1
VIEWPOINT 0 0 0 1
POINTS 531
DATA ascii
3.864988 -1.177371 1.062505
3.347778 -1.157777 0.835583
3.523147 -1.204079 1.463531
3.239645 -1.160371 0.912154
3.403108 -1.179976 1.049245
3.143290 -1.179096 1.179775
3.177098 -1.178629 1.263686
3.086751 -1.192677 1.321278
3.154020 -1.193058 1.456779
3.244122 -1.192100 1.358000
3.004247 -1.158165 0.856998
3.149551 -1.173681 0.983340
2.900585 -1.168453 1.102852
2.851035 -1.149717 0.730671
3.193021 -1.139249 0.844796
2.905104 -1.155828 1.168272
2.964090 -1.137977 0.742041
2.841925 -1.180801 1.233403
2.924216 -1.187019 1.367616
3.008339 -1.185168 1.270901
2.771181 -1.125610 0.649252
2.926112 -1.169325 0.926066
2.797945 -1.156885 0.809498
2.713195 -1.170766 1.045089
3.115333 -1.193338 1.367998
2.619579 -1.130207 0.570751
2.982713 -1.141919 0.793234
2.666898 -1.153490 0.693853
2.735773 -1.164999 1.111177
2.771859 -1.137714 0.700345
2.644363 -1.176935 1.163859
2.768777 -1.252184 2.141391
2.723560 -1.182019 1.291106
2.776500 -1.169217 1.183904
2.600085 -1.129364 0.616269
2.629692 -1.195721 1.515818
2.668435 -1.180513 1.613845
2.776689 -1.189081 1.407647
2.615054 -1.201043 1.662943
2.726738 -1.163918 0.875535
2.611690 -1.154544 0.766786
2.880437 -1.178280 1.274992
2.534793 -1.168054 0.989305
2.773327 -1.134591 0.741823
2.835813 -1.164492 0.991682
2.648333 -1.200839 1.805824
2.455539 -1.133014 0.542718
2.476651 -1.146261 0.654284
2.551263 -1.158187 1.048512
2.580582 -1.131429 0.657740
2.563406 -1.231961 2.009181
2.454793 -1.167076 1.097319
2.538977 -1.176041 1.221430
2.599996 -1.166286 1.119070
2.434955 -1.128071 0.583299
2.455964 -1.188371 1.434048
2.530981 -1.190180 1.547372
2.612079 -1.195062 1.666589
2.587992 -1.179962 1.330050
2.550449 -1.160444 0.830713
2.435222 -1.192539 1.572264
2.685764 -1.169248 1.198436
2.431403 -1.146181 0.725103
2.609154 -1.137150 0.702745
2.651434 -1.159932 0.939945
2.358325 -1.156337 0.933640
2.469422 -1.192167 1.708121
2.299479 -1.130801 0.516674
2.418439 -1.117451 0.409875
2.314517 -1.142963 0.622329
2.384820 -1.151355 0.991640
2.443564 -1.139970 0.628278
2.638115 -1.183088 1.449846
2.397428 -1.223055 1.906343
2.510855 -1.208922 1.853648
2.441578 -1.163378 1.062031
2.369429 -1.167052 1.156629
2.295398 -1.163220 1.042338
2.275680 -1.110757 0.320466
2.378353 -1.186799 1.472283
2.283859 -1.125746 0.554186
2.470503 -1.198596 1.592250
2.310457 -1.187150 1.368856
2.579559 -1.194353 1.717427
2.438567 -1.180915 1.270847
2.510199 -1.162229 1.129638
2.284615 -1.190156 1.498153
2.264135 -1.135774 0.686305
2.499203 -1.160331 0.898765
2.445932 -1.133686 0.662755
2.436402 -1.127077 0.491940
2.217080 -1.154617 0.891412
2.275717 -1.205158 1.958117
2.321752 -1.189645 1.628963
2.161456 -1.129496 0.493405
2.121994 -1.105193 0.232205
2.477509 -1.176880 1.378860
2.247566 -1.151552 0.947323
2.282346 -1.130605 0.593379
2.164403 -1.138607 0.592253
2.327971 -1.218007 1.973531
2.255666 -1.219316 1.820145
2.272018 -1.147474 1.000325
2.351005 -1.200221 1.761714
2.220001 -1.161087 1.100551
2.155093 -1.160377 0.995119
2.316773 -1.190080 1.510243
2.432873 -1.193742 1.634196
2.150818 -1.124374 0.529848
2.235779 -1.182449 1.402096
2.160836 -1.175872 1.298871
2.275965 -1.167826 1.204017
2.420252 -1.187275 1.097364
2.303794 -1.132193 0.629494
2.289362 -1.122898 0.470779
2.140008 -1.182800 1.427052
2.149177 -1.144251 0.662606
2.080822 -1.149860 0.849177
2.183136 -1.185184 1.555732
2.141982 -1.202389 1.873814
2.326963 -1.169721 1.313778
2.158628 -1.124060 0.378965
2.027415 -1.124183 0.471156
2.355081 -1.198811 1.887105
2.111261 -1.145729 0.902092
2.145231 -1.126160 0.564127
1.998157 -1.106090 0.222744
2.033354 -1.136194 0.566925
2.197227 -1.215196 1.888179
2.115856 -1.208555 1.733033
2.224434 -1.200691 1.690255
2.148793 -1.149572 0.956808
2.092725 -1.160171 1.055140
2.017886 -1.109495 0.295681
2.174114 -1.180628 1.435125
2.298286 -1.194207 1.558815
2.027872 -1.159553 0.953720
2.109314 -1.179182 1.341706
2.150655 -1.167822 1.155556
2.024778 -1.121944 0.505450
2.050577 -1.180767 1.252177
2.208285 -1.147241 1.012500
2.115869 -1.148833 0.723193
2.164628 -1.125700 0.597280
2.158362 -1.120624 0.451407
2.016037 -1.137747 0.632355
2.005465 -1.175472 1.360836
2.206636 -1.170647 1.264226
1.969715 -1.151123 0.817552
2.051555 -1.178759 1.486454
2.022611 -1.114903 0.362778
2.239559 -1.202266 1.819455
2.022388 -1.202741 1.800300
2.028197 -1.125648 0.539582
1.999111 -1.146911 0.866471
1.918499 -1.126778 0.454490
1.899423 -1.114850 0.216865
2.075545 -1.211446 1.808738
1.911308 -1.131750 0.543524
2.086709 -1.189101 1.611113
2.031576 -1.148690 0.916270
1.994238 -1.202966 1.660632
1.963364 -1.151219 1.006879
2.056669 -1.179284 1.374592
2.150510 -1.179613 1.474817
1.942441 -1.098696 0.226985
1.904019 -1.109277 0.285111
2.029319 -1.162813 1.108126
1.991899 -1.175930 1.285213
1.907749 -1.117503 0.483977
1.903599 -1.152691 0.911380
1.932182 -1.174617 1.199750
2.098095 -1.151271 0.970789
1.991714 -1.142246 0.692825
2.089568 -1.148430 0.787908
2.054616 -1.129103 0.571579
2.039393 -1.119288 0.433885
1.896954 -1.132229 0.606924
2.084254 -1.166534 1.211779
1.893106 -1.174258 1.308266
2.111849 -1.193587 1.740133
1.850497 -1.142379 0.782180
1.913708 -1.114593 0.350139
1.941153 -1.178434 1.429836
1.903744 -1.196080 1.725884
1.910129 -1.120150 0.515130
1.887938 -1.144092 0.830903
1.802474 -1.119377 0.435064
1.952813 -1.200700 1.728418
1.786563 -1.110697 0.209356
1.972188 -1.184638 1.546595
1.922377 -1.146786 0.877655
1.799297 -1.128263 0.521992
1.885720 -1.198466 1.597060
1.941213 -1.173954 1.315100
2.040102 -1.181229 1.415146
1.928209 -1.098661 0.171511
1.918854 -1.095494 0.253683
1.847639 -1.103378 0.219107
1.859213 -1.152326 0.971171
1.917038 -1.158816 1.064579
1.882522 -1.171702 1.232642
1.801179 -1.110007 0.276399
1.980831 -1.147329 0.927285
1.809821 -1.119980 0.466177
1.829919 -1.173523 1.156058
1.882626 -1.138615 0.666238
1.790406 -1.147866 0.874881
1.774330 -1.099205 0.180877
1.939502 -1.122871 0.420068
1.933503 -1.122546 0.543164
1.978982 -1.165470 1.168088
2.007374 -1.193094 1.678421
1.798977 -1.133634 0.586140
1.784656 -1.091357 0.098050
1.689031 -1.091186 0.144866
1.943692 -1.215585 1.816555
1.749389 -1.139607 0.752503
1.822884 -1.120188 0.340200
1.791838 -1.175102 1.262536
1.837797 -1.177162 1.378152
1.810153 -1.120580 0.494377
1.780755 -1.138265 0.796337
1.791143 -1.188462 1.655414
1.844210 -1.194030 1.656873
1.700511 -1.114939 0.419427
1.874851 -1.186327 1.495785
1.806089 -1.135906 0.837263
1.688751 -1.110450 0.203610
1.784266 -1.195013 1.538394
1.702365 -1.129726 0.504208
1.932677 -1.178845 1.356502
1.829026 -1.101060 0.242722
1.843910 -1.174699 1.266305
1.735694 -1.094147 0.208645
1.809764 -1.152819 1.023006
1.756003 -1.147405 0.934543
1.778172 -1.166495 1.183029
1.869572 -1.141377 0.885744
1.865260 -1.137038 0.726836
1.709349 -1.111655 0.268541
1.702780 -1.111494 0.446653
1.731645 -1.169416 1.113364
1.779581 -1.135992 0.642568
1.836560 -1.120477 0.406380
1.832473 -1.120913 0.519440
1.676478 -1.095935 0.174166
1.695319 -1.148027 0.845091
1.659244 -1.084076 0.032531
1.872687 -1.160413 1.124472
1.899838 -1.186566 1.613838
1.701990 -1.132046 0.566392
1.828954 -1.202748 1.735165
1.722972 -1.116814 0.328506
1.654316 -1.136840 0.725756
1.735422 -1.171880 1.326517
1.684455 -1.165895 1.212031
1.709129 -1.115014 0.473727
1.692706 -1.139431 0.769435
1.755860 -1.195602 1.604963
1.603775 -1.072296 -0.027605
1.685589 -1.179866 1.588875
1.648106 -1.075687 0.008982
1.555462 -1.068943 -0.064136
1.613620 -1.115421 0.406533
1.768342 -1.175886 1.435263
1.726100 -1.143020 0.811168
1.698969 -1.195678 1.491467
1.826242 -1.171481 1.298920
1.745569 -1.169438 1.216610
1.737167 -1.101644 0.231858
1.698447 -1.075012 0.044687
1.735603 -1.100177 0.161888
1.609417 -1.127175 0.487433
1.713569 -1.148832 0.986270
1.658938 -1.101685 0.201510
1.683891 -1.161332 1.139293
1.768183 -1.133315 0.701094
1.766359 -1.135422 0.847108
1.659841 -1.143467 0.899816
1.692601 -1.136313 0.622659
1.619518 -1.111285 0.260690
1.738603 -1.116020 0.391662
1.627294 -1.157285 1.066865
1.607818 -1.106966 0.429924
1.737485 -1.119294 0.498645
1.528923 -1.076899 -0.030900
1.776442 -1.156337 1.083723
1.800365 -1.180082 1.554158
1.600217 -1.144192 0.815361
1.731406 -1.196067 1.667480
1.607988 -1.127437 0.546653
1.633089 -1.114398 0.318677
1.572310 -1.137048 0.702804
1.639073 -1.164620 1.277839
1.629232 -1.118370 0.457691
1.592217 -1.162751 1.170254
1.596561 -1.131593 0.738769
1.640340 -1.076732 0.006388
1.667470 -1.193123 1.550116
1.660630 -1.191352 1.700250
1.525072 -1.074062 -0.025620
1.584486 -1.089272 0.008602
1.683087 -1.176625 1.391325
1.606363 -1.184555 1.545820
1.529733 -1.114884 0.393620
1.633966 -1.138123 0.779400
1.474798 -1.070776 -0.060118
1.608593 -1.190289 1.439695
1.720789 -1.161096 1.240376
1.655289 -1.165220 1.171807
1.649313 -1.101218 0.221965
1.653840 -1.103827 0.157863
1.628456 -1.147880 0.955359
1.679165 -1.131610 0.679231
1.677244 -1.133495 0.815248
1.597690 -1.159208 1.100420
1.519490 -1.124622 0.471627
1.571736 -1.140569 0.869980
1.655735 -1.117515 0.380680
1.609658 -1.137644 0.604692
1.649508 -1.117637 0.478770
1.551218 -1.160267 1.036799
1.540026 -1.116324 0.418662
1.685229 -1.151309 1.046932
1.709971 -1.175653 1.500345
1.740113 -1.202540 1.744626
1.524023 -1.075527 -0.052443
1.447230 -1.076717 -0.027838
1.475674 -1.072751 0.033043
1.511128 -1.139353 0.787575
1.641948 -1.191471 1.606671
1.527067 -1.127799 0.530684
1.481193 -1.127260 0.676117
1.547752 -1.157365 1.231106
1.547308 -1.117748 0.441742
1.420568 -1.077358 0.133524
1.577017 -1.184612 1.492385
1.512486 -1.126760 0.712913
1.572681 -1.086353 0.006108
1.568129 -1.182760 1.638546
1.504998 -1.158614 1.130434
1.583619 -1.163227 1.334771
1.478570 -1.070218 0.008223
1.445349 -1.072840 -0.023574
1.539097 -1.068418 -0.052226
1.554917 -1.137242 0.753417
1.521013 -1.180163 1.495978
1.520212 -1.181914 1.388948
1.639588 -1.162860 1.198367
1.569027 -1.160015 1.128973
1.606238 -1.135870 0.662089
1.550382 -1.147934 0.927351
1.596178 -1.133565 0.786265
1.410180 -1.090554 0.185483
1.517510 -1.156103 1.064489
1.567793 -1.112017 0.367865
1.490660 -1.137678 0.843061
1.562498 -1.111976 0.458946
1.610155 -1.153330 1.018847
1.634742 -1.177371 1.459263
1.526656 -1.133938 0.584801
1.471052 -1.155230 1.003904
1.653643 -1.198876 1.681756
1.456363 -1.081218 -0.049652
1.411934 -1.079940 0.156787
1.406975 -1.076405 0.033882
1.560567 -1.187962 1.552751
1.441214 -1.145535 0.768394
1.438514 -1.083326 0.090568
1.413280 -1.130498 0.659953
1.471579 -1.156215 1.195099
1.496683 -1.180207 1.443475
1.442526 -1.128930 0.692784
1.475833 -1.073261 0.007520
1.493835 -1.182353 1.592503
1.356875 -1.083918 0.132265
1.508405 -1.162000 1.295746
1.472414 -1.074058 -0.051455
1.407845 -1.071870 0.008111
1.429890 -1.158566 1.099407
1.469794 -1.129357 0.724616
1.450027 -1.182679 1.351843
1.556328 -1.158610 1.154474
1.438702 -1.175813 1.449101
1.490832 -1.156851 1.091014
1.446052 -1.066125 0.036003
1.524202 -1.131111 0.640192
1.468248 -1.141989 0.897484
1.520135 -1.133639 0.759225
1.402298 -1.083488 0.178046
1.438323 -1.150995 1.028579
1.554416 -1.172017 1.412348
1.525958 -1.146293 0.984007
1.339419 -1.092112 0.181387
1.498673 -1.120258 0.445640
1.421690 -1.140809 0.821907
1.399981 -1.155221 0.975826
1.569179 -1.193226 1.619895
1.364878 -1.093060 0.237228
1.344151 -1.080472 0.152661
1.484230 -1.184501 1.502772
1.391445 -1.102980 0.291932
1.373786 -1.086897 0.089355
1.422389 -1.175841 1.398492
1.404503 -1.159135 1.165924
1.405082 -1.072912 0.007430
1.440256 -1.162820 1.261607
1.387715 -1.141114 0.679324
1.420562 -1.180984 1.548465
1.403843 -1.132493 0.704420
1.478101 -1.154386 1.113523
1.370695 -1.172367 1.307017
1.351727 -1.153488 1.065495
1.405291 -1.086799 0.145255
1.396609 -1.081879 0.193441
1.451234 -1.129380 0.623144
1.421734 -1.157758 1.059888
1.285907 -1.092244 0.356114
1.386341 -1.072633 0.033678
1.362424 -1.171482 1.405152
1.400224 -1.142069 0.874358
1.438013 -1.125731 0.730379
1.484195 -1.170747 1.373255
1.334493 -1.082998 0.172932
1.366182 -1.146914 0.996569
1.452848 -1.143288 0.954977
1.317723 -1.141133 0.939097
1.490803 -1.189675 1.564934
1.289046 -1.085578 0.373343
1.277643 -1.105823 0.428044
1.411927 -1.181074 1.455745
1.323615 -1.102440 0.284819
1.310390 -1.096850 0.395085
1.354170 -1.173554 1.359406
1.295190 -1.112835 0.483899
1.372108 -1.161667 1.228500
1.330323 -1.154000 1.130958
1.344209 -1.173548 1.499556
1.408983 -1.155231 1.079391
1.307576 -1.173207 1.275829
1.333811 -1.084301 0.186215
1.353609 -1.155642 1.027795
1.281618 -1.150429 1.035456
1.413975 -1.167504 1.335193
1.341288 -1.147175 0.856049
1.381120 -1.133829 0.711994
1.390839 -1.145334 0.932741
1.291195 -1.167218 1.366142
1.339048 -1.096395 0.337002
1.300097 -1.144869 0.968458
1.424555 -1.191234 1.519753
1.274944 -1.157276 0.929432
1.242333 -1.097884 0.367785
1.342649 -1.176692 1.411699
1.289981 -1.171300 1.323272
1.246500 -1.095165 0.382941
1.305948 -1.158503 1.195399
1.242411 -1.121126 0.475475
1.191149 -1.105094 0.597224
1.268260 -1.154929 1.103754
1.278984 -1.171229 1.460437
1.340835 -1.152076 1.045307
1.246434 -1.171038 1.244661
1.341672 -1.158184 1.292246
1.278389 -1.145492 0.990911
1.328800 -1.144365 0.909550
1.278225 -1.097790 0.329768
1.254261 -1.157955 0.954874
1.227046 -1.166023 1.333001
1.265679 -1.094229 0.393989
1.253948 -1.196473 1.559250
1.235762 -1.114101 0.519838
1.351199 -1.184720 1.467779
1.277413 -1.173342 1.370589
1.232863 -1.172092 1.292006
1.245842 -1.157374 1.166196
1.138289 -1.108317 0.585880
1.161421 -1.104586 0.608795
1.142011 -1.115183 0.677748
1.244227 -1.112062 0.570046
1.214760 -1.166929 1.422336
1.185607 -1.104866 0.632642
1.283552 -1.158011 1.261996
1.269632 -1.143893 1.008336
1.185295 -1.167872 1.213510
1.235550 -1.159532 0.976273
1.190671 -1.190098 1.518170
1.158808 -1.157768 1.295016
1.282883 -1.178253 1.419745
1.146548 -1.121271 0.732777
1.220261 -1.173072 1.336336
1.173712 -1.168888 1.259826
1.197521 -1.171899 1.513676
1.187320 -1.111304 0.557796
1.222375 -1.152810 1.228858
1.150486 -1.158576 1.381296
1.131688 -1.105995 0.616335
1.226775 -1.156912 0.992709
1.138342 -1.174852 1.195032
1.140029 -1.123351 0.783007
1.164838 -1.104090 0.635201
1.133480 -1.186820 1.483970
1.215569 -1.169806 1.372730
1.068468 -1.121197 0.842670
1.162085 -1.169796 1.301140
1.087554 -1.116398 0.714626
1.125719 -1.174792 1.237374
1.140301 -1.167563 1.476485
1.116954 -1.108207 0.620769
1.085054 -1.121439 0.764758
1.047661 -1.115697 0.859189
1.077290 -1.182538 1.449774
1.162450 -1.171525 1.339393
1.023240 -1.125322 0.928231
1.113042 -1.173628 1.274729
1.080002 -1.157160 1.434421
1.085514 -1.119467 0.816053
1.022803 -1.130597 0.991331
1.031887 -1.115129 0.874568
1.112370 -1.174283 1.309005
1.009296 -1.130855 1.048673
1.029191 -1.120437 0.889792
0.951615 -1.133175 1.089107
0.928259 -1.135089 1.174407
0.962268 -1.128797 1.027326
0.946008 -1.137989 1.128274
0.930866 -1.137685 1.255501
0.960800 -1.130036 1.089591
0.885825 -1.136575 1.233118
0.884445 -1.141189 1.314232
