# .PCD v0.7 - Point Cloud Data file format
VERSION 0.7
FIELDS x y z
SIZE 4 4 4
TYPE F F F
COUNT 1 1 1
WIDTH 167
HEIGHT 1
VIEWPOINT 0 0 0 1
POINTS 167
DATA ascii
3.245533 -2.151896 0.532126
3.043148 -2.092556 0.823473
3.002097 -2.065263 0.772681
2.973186 -2.052897 0.722764
2.709440 -1.919850 0.372713
2.711540 -1.928855 0.372632
2.791579 -1.992482 0.789140
2.742648 -1.979520 0.754210
2.810326 -2.027001 0.679837
2.691537 -1.945355 0.706472
2.679698 -1.944985 0.667463
2.730368 -1.981323 0.570175
3.255359 -2.396911 1.825903
2.620383 -1.925875 0.455573
2.544528 -1.881896 0.324900
2.735681 -2.040371 1.195655
2.662890 -1.987341 0.750058
2.533497 -1.887437 0.356840
2.551280 -1.907056 0.731689
2.710500 -2.047658 1.274565
2.486251 -1.881233 0.696863
2.554918 -1.931849 0.633461
2.462279 -1.866979 0.659970
2.469911 -1.881307 0.530841
2.439384 -1.859735 0.623014
2.332058 -1.773871 0.247690
2.565266 -1.969737 1.177139
2.625194 -2.020623 1.048722
2.254663 -1.727719 0.260043
2.598445 -2.002514 0.942860
2.695286 -2.083613 1.171212
2.372998 -1.834870 0.425174
2.237662 -1.734344 0.292968
2.486394 -1.945659 1.110282
2.224566 -1.730767 0.315990
2.406415 -1.880049 0.693798
2.325978 -1.820535 0.678270
2.286991 -1.785461 0.331545
2.449149 -1.938821 1.172311
2.272983 -1.800681 0.649403
2.327576 -1.844503 0.592048
2.250024 -1.788476 0.616493
2.183088 -1.740278 0.238863
2.255632 -1.802968 0.498361
2.214068 -1.772349 0.579607
2.350091 -1.890819 1.099658
2.333844 -1.881547 1.145730
2.408000 -1.943897 0.984218
2.085564 -1.676244 0.247364
2.443914 -1.978914 1.086931
2.361164 -1.912970 0.878456
2.170766 -1.763545 0.401643
2.048883 -1.662379 0.150457
2.061506 -1.674872 0.276357
2.052423 -1.672216 0.296374
2.238355 -1.830297 0.661098
2.260138 -1.854820 1.031904
2.108783 -1.721995 0.314967
2.142864 -1.757774 0.634679
2.237938 -1.853814 1.091894
2.086814 -1.731966 0.607866
2.138370 -1.774916 0.558514
2.057825 -1.715842 0.576988
1.995793 -1.665938 0.226381
1.950594 -1.632102 0.208653
2.062398 -1.729471 0.468862
2.036925 -1.709686 0.548025
2.146910 -1.809822 1.025215
2.292549 -1.932894 1.126212
2.153782 -1.817401 1.075153
2.182681 -1.847143 0.913898
1.927459 -1.623672 0.235711
2.226634 -1.887033 1.012572
2.158977 -1.837248 0.824965
1.907416 -1.623222 0.261700
1.895776 -1.611851 0.145791
2.053115 -1.754568 0.620627
1.898324 -1.618509 0.277736
1.991603 -1.700048 0.381069
1.942596 -1.659415 0.298398
2.070990 -1.780827 0.967412
1.968695 -1.688939 0.593158
2.044777 -1.773709 1.016456
1.920693 -1.669116 0.570299
1.968217 -1.711194 0.527950
1.901738 -1.659995 0.546366
1.848704 -1.616300 0.217713
2.089272 -1.839833 1.048883
1.990742 -1.757184 1.011560
1.878832 -1.652886 0.519411
1.968794 -1.738727 0.960710
1.894244 -1.665798 0.443303
1.799494 -1.579503 0.200011
2.046473 -1.814013 0.953080
2.002533 -1.776209 0.860389
1.779347 -1.570013 0.225082
1.736637 -1.535629 0.086359
1.954697 -1.746473 0.767619
1.756273 -1.564531 0.247115
1.900014 -1.697672 0.589018
1.759253 -1.568700 0.262080
1.689499 -1.505886 0.072595
1.808560 -1.615602 0.285689
1.816605 -1.629970 0.556572
1.908925 -1.719733 0.913832
1.826455 -1.637429 0.361505
1.884703 -1.709496 0.955907
1.772612 -1.612164 0.537699
1.821124 -1.656323 0.502330
1.745608 -1.596113 0.513824
1.922127 -1.767660 0.987400
1.715651 -1.570543 0.210026
1.645708 -1.506310 0.066558
1.831669 -1.690922 0.948033
1.816738 -1.678534 0.907134
1.756205 -1.617932 0.423629
1.735783 -1.600987 0.493771
1.662428 -1.530800 0.193350
1.885370 -1.748913 0.900539
1.600582 -1.474427 0.043816
1.849482 -1.719150 0.815781
1.610560 -1.488866 0.083692
1.759916 -1.641675 0.559416
1.685536 -1.573710 0.274975
1.801656 -1.690485 0.728004
1.600458 -1.494667 0.136633
1.690617 -1.585872 0.527875
1.761880 -1.661548 0.864243
1.689422 -1.589610 0.345834
1.743689 -1.654217 0.903297
1.692094 -1.609326 0.479657
1.643597 -1.564105 0.510038
1.786106 -1.715394 0.939764
1.622623 -1.553055 0.490123
1.696678 -1.637574 0.894412
1.681729 -1.625264 0.859513
1.604737 -1.549996 0.470137
1.628190 -1.571985 0.404950
1.741299 -1.688717 0.852972
1.703416 -1.659032 0.772214
1.631851 -1.589606 0.532793
1.587723 -1.555645 0.505072
1.667660 -1.641385 0.693346
1.782712 -1.763368 1.162319
1.633889 -1.612293 0.822593
1.619729 -1.606861 0.856633
1.498408 -1.491088 0.476602
1.657075 -1.661070 0.893159
1.478456 -1.482061 0.458670
1.576726 -1.591194 0.848744
1.558763 -1.576938 0.815862
1.616300 -1.639457 0.813324
1.491655 -1.517564 0.501352
1.575412 -1.607829 0.734584
1.657449 -1.717926 1.187634
1.520964 -1.571984 0.786876
1.546700 -1.597218 0.662657
1.642707 -1.703972 1.101750
1.507799 -1.564473 0.815937
1.478867 -1.559735 0.811958
1.467932 -1.552523 0.787016
1.502322 -1.593132 0.776662
1.534483 -1.665423 1.131019
1.367644 -1.484091 0.758579
1.425562 -1.619870 1.080355
1.434347 -1.633760 1.156233
1.376113 -1.574623 1.106744
