# .PCD v0.7 - Point Cloud Data file format
VERSION 0.7
FIELDS x y z
SIZE 4 4 4
TYPE F F F
COUNT 1 1 1
WIDTH 62
HEIGHT 1
VIEWPOINT 0 0 0 1
POINTS 62
DATA ascii
-1.494217 3.357349 3.868557
-0.731157 1.643003 1.705244
-0.716434 1.604199 1.698808
-0.730762 1.640042 1.701187
-1.593348 3.611082 4.287137
-1.518444 3.635248 4.153435
-0.697970 1.670142 1.720530
-1.576247 3.616676 4.251177
-0.718557 1.742032 1.713288
-0.709830 1.583110 1.711558
-0.701669 1.568251 1.705402
-0.594915 1.489421 1.688622
-0.686298 1.636285 1.716146
-1.524946 3.679926 3.731748
-1.472970 3.793457 3.823988
-1.499036 3.928699 3.784385
-1.646523 3.642029 4.091192
-0.709304 1.562128 1.709312
-0.784289 2.111392 1.718155
-0.676602 1.606352 1.716803
-1.478128 3.543191 3.761174
-1.330706 3.415321 3.502880
-1.302022 3.355916 3.379246
-0.613094 1.674115 1.700564
-0.800193 2.239391 1.705484
-0.626675 1.752971 1.702389
-0.781779 2.098423 1.716972
-0.674030 1.582461 1.707526
-0.744157 2.148562 1.736524
-1.424438 3.638180 3.825089
-1.391628 3.561693 3.711283
-0.602429 1.642280 1.692205
-0.779041 2.148562 1.706486
-0.595261 1.630771 1.652082
-1.393510 3.466691 3.811198
-0.779191 2.085442 1.716781
-0.741660 2.138600 1.734370
-0.772884 1.946671 1.699304
-1.417442 3.590985 3.768464
-1.111541 3.479393 2.768413
-0.576223 1.556956 1.648286
-0.593741 1.614369 1.688884
-0.752824 2.064732 1.711558
-1.173629 3.506147 2.740622
-0.569421 1.493971 1.650610
-0.787837 2.091370 1.715790
-0.736721 1.977873 1.710613
-0.740112 2.131586 1.736238
-1.112025 3.478406 2.773288
-0.598356 1.611256 1.693825
-0.634027 2.135852 1.706345
-1.148163 3.402119 2.771416
-0.673180 2.168559 1.700646
-0.746735 2.137562 1.732245
-1.210774 3.494625 2.961277
-1.112429 3.480404 2.781170
-0.627433 2.118031 1.693110
-0.648804 2.061921 1.684490
-0.639721 1.971075 1.675514
-1.117873 3.481622 2.763055
-0.629023 2.127901 1.702154
-0.635730 2.146834 1.701292
