# .PCD v0.7 - Point Cloud Data file format
VERSION 0.7
FIELDS x y z
SIZE 4 4 4
TYPE F F F
COUNT 1 1 1
WIDTH 18
HEIGHT 1
VIEWPOINT 0 0 0 1
POINTS 18
DATA ascii
-0.933719 -1.555875 1.436867
-0.992901 -1.612029 1.488466
-0.959839 -1.517700 1.418765
-1.013115 -1.567739 1.465405
-0.958453 -1.438757 1.362098
-0.927745 -1.459750 1.446714
-0.987882 -1.547739 1.484773
-0.935135 -1.400125 1.406796
-1.008044 -1.505523 1.466669
-0.988235 -1.570238 1.525658
-0.898721 -1.394612 1.461807
-0.944448 -1.345591 1.371807
-0.986816 -1.492389 1.474952
-0.984819 -1.567426 1.548927
-0.922721 -1.367576 1.453486
-1.010861 -1.458347 1.466739
-0.979470 -1.482465 1.492296
-0.998612 -1.439286 1.477192
