# .PCD v0.7 - Point Cloud Data file format
VERSION 0.7
FIELDS x y z
SIZE 4 4 4
TYPE F F F
COUNT 1 1 1
WIDTH 127
HEIGHT 1
VIEWPOINT 0 0 0 1
POINTS 127
DATA ascii
1.849336 -2.080483 0.240915
1.787627 -2.097070 0.346881
2.317677 -2.692520 0.300459
1.777645 -2.115534 0.542778
1.694089 -2.084643 0.335071
1.699107 -2.099891 0.234966
1.685106 -2.103101 0.529968
1.681091 -2.107296 0.687949
1.615508 -2.086289 0.326159
1.609565 -2.086525 0.229164
1.626335 -2.116771 0.906962
1.610505 -2.104768 0.522052
1.592556 -2.095830 0.669135
1.543908 -2.091968 0.318218
1.547763 -2.111360 0.891100
1.530001 -2.084215 0.226284
1.527954 -2.096393 0.512215
1.522953 -2.103474 0.656179
1.451459 -2.056761 0.072567
1.465351 -2.086616 0.309361
1.469206 -2.103943 0.874256
1.452437 -2.076899 0.221440
1.449396 -2.087032 0.502385
1.441414 -2.092048 0.639367
1.390787 -2.082278 0.300497
1.400614 -2.104591 0.861351
1.386832 -2.083645 0.219493
1.380806 -2.088736 0.496475
1.366860 -2.088662 0.624498
1.335017 -2.106265 0.850439
1.301283 -2.073374 0.486695
1.293311 -2.081280 0.609659
1.255502 -2.084832 0.831701
1.227734 -2.082948 0.597754
1.783175 -2.099560 0.477502
1.754507 -2.087639 0.349575
1.834770 -2.080532 0.338846
1.683134 -2.064347 0.173726
1.711243 -2.105060 0.702507
1.825778 -2.093967 0.403781
1.688688 -2.084402 0.467622
1.670022 -2.083498 0.341634
1.649375 -2.105992 0.844531
1.752282 -2.082403 0.332868
2.094542 -2.672572 0.212347
1.623754 -2.092852 0.684610
1.612188 -2.085281 0.461652
1.736307 -2.090836 0.397831
1.591531 -2.081365 0.333681
1.840710 -2.089250 0.320116
1.704898 -2.108486 0.781755
1.566886 -2.098808 0.829606
1.680146 -2.092786 0.683846
1.671794 -2.083288 0.327895
1.541144 -2.078182 0.171721
1.550264 -2.095685 0.671629
1.534683 -2.080160 0.454716
1.652820 -2.087722 0.392880
1.513038 -2.075246 0.326752
1.770142 -2.091167 0.318129
1.615418 -2.096295 0.765854
1.752228 -2.086140 0.316160
1.496381 -2.101661 0.818624
1.606650 -2.097641 0.673850
1.595311 -2.086178 0.322911
1.748686 -2.107692 0.683053
1.453803 -2.054454 0.076889
1.466770 -2.079506 0.655755
1.465653 -2.075109 0.170774
1.466192 -2.087063 0.450713
1.550854 -2.053579 0.097099
1.566350 -2.079606 0.386959
1.440553 -2.075131 0.319788
1.681677 -2.088067 0.315174
1.540935 -2.100153 0.755865
1.666756 -2.084036 0.312200
1.421886 -2.097511 0.806683
1.526173 -2.092473 0.659911
1.511829 -2.076070 0.317001
1.662143 -2.099724 0.698124
1.659204 -2.097519 0.669136
1.379306 -2.046381 0.074971
1.399283 -2.084365 0.644763
1.380164 -2.054029 0.167930
1.390690 -2.077954 0.443800
1.479369 -2.057522 0.098111
1.492854 -2.079506 0.381991
1.361063 -2.060017 0.311910
1.605209 -2.094981 0.313165
1.459456 -2.090997 0.742949
1.595269 -2.092953 0.310179
1.342392 -2.080334 0.789815
1.441685 -2.075307 0.645039
1.435341 -2.069968 0.311067
1.580725 -2.098380 0.659159
1.582682 -2.103588 0.689131
1.326791 -2.077218 0.631838
1.312203 -2.062844 0.435922
1.401880 -2.049471 0.099190
1.415374 -2.073411 0.377059
1.396010 -2.050165 0.056188
1.515739 -2.080891 0.309272
1.378973 -2.077848 0.730055
1.280876 -2.085232 0.782820
1.504790 -2.074859 0.305308
1.375189 -2.079187 0.636049
1.357858 -2.059878 0.306157
1.499243 -2.090235 0.647232
1.262298 -2.079096 0.621862
1.489228 -2.084420 0.674267
1.333889 -2.056317 0.371189
1.437264 -2.075814 0.306329
1.206381 -2.068081 0.767953
1.314485 -2.084745 0.723048
1.433305 -2.076782 0.302325
1.304699 -2.075066 0.626104
1.425753 -2.088116 0.638271
1.415761 -2.087312 0.667280
1.350794 -2.055731 0.301471
1.239003 -2.071614 0.711155
1.348827 -2.057700 0.297461
1.236207 -2.069950 0.616164
1.352271 -2.084003 0.629322
1.347284 -2.092217 0.661280
1.280768 -2.075894 0.620397
1.263819 -2.072080 0.648427
1.210284 -2.067783 0.610477
