# .PCD v0.7 - Point Cloud Data file format
VERSION 0.7
FIELDS x y z
SIZE 4 4 4
TYPE F F F
COUNT 1 1 1
WIDTH 14
HEIGHT 1
VIEWPOINT 0 0 0 1
POINTS 14
DATA ascii
2.796034 2.319128 3.363776
2.853975 2.261962 3.383752
2.756018 2.383509 3.326096
2.922076 2.211967 3.417502
2.823886 2.332338 3.341876
3.077285 2.221246 3.549511
2.784223 2.356693 3.347382
2.899877 2.285282 3.367488
3.213291 2.211215 3.659938
2.855115 2.305526 3.364098
2.816642 2.192671 3.342802
2.998940 2.308419 3.464315
2.900749 2.150707 3.377216
2.957475 2.087391 3.382230
