# .PCD v0.7 - Point Cloud Data file format
VERSION 0.7
FIELDS x y z
SIZE 4 4 4
TYPE F F F
COUNT 1 1 1
WIDTH 30
HEIGHT 1
VIEWPOINT 0 0 0 1
POINTS 30
DATA ascii
2.034082 -0.704019 2.537163
2.026433 -0.753701 2.544702
2.024600 -0.805576 2.561325
2.020815 -0.857392 2.575917
2.056866 -0.878217 2.543361
2.062158 -0.868348 2.543467
2.039371 -0.918912 2.618814
2.024746 -0.921168 2.530549
2.034922 -0.913445 2.534720
2.018904 -0.973946 2.549107
2.033898 -0.970371 2.560328
2.009166 -1.025607 2.563612
2.021183 -1.022943 2.573778
2.063609 -1.111702 2.522864
2.055689 -1.168450 2.543361
2.063229 -1.235707 2.584051
2.051099 -1.257064 2.509712
2.060222 -1.254292 2.509839
2.044958 -1.319918 2.538218
2.054027 -1.318154 2.541337
2.087220 -1.415915 2.526343
2.048522 -1.450706 2.493516
2.076292 -1.477597 2.541783
2.075265 -1.460460 2.525756
2.042366 -1.512575 2.523036
2.078690 -1.541295 2.488292
2.105252 -1.644053 2.523143
2.057725 -1.604745 2.510575
2.085977 -1.713307 2.485411
2.063123 -1.772707 2.503700
