# .PCD v0.7 - Point Cloud Data file format
VERSION 0.7
FIELDS x y z
SIZE 4 4 4
TYPE F F F
COUNT 1 1 1
WIDTH 372
HEIGHT 1
VIEWPOINT 0 0 0 1
POINTS 372
DATA ascii
2.331936 -2.473726 -0.012828
2.335046 -2.478664 0.000176
2.331820 -2.483889 -0.079780
2.373019 -2.482382 -0.045862
2.305273 -2.499554 0.224474
2.297194 -2.501731 0.190535
2.325813 -2.492666 0.092493
2.216142 -2.465140 -0.012127
2.217204 -2.467106 -0.002124
2.323480 -2.509459 0.206591
2.208930 -2.466374 -0.079083
2.252825 -2.523578 0.514919
2.364383 -2.479499 -0.010596
2.261971 -2.471855 -0.101218
2.249165 -2.467882 -0.044157
2.201518 -2.499848 0.217119
2.293604 -2.527368 0.422853
2.185357 -2.493108 0.187187
2.270188 -2.425009 -0.196278
2.345499 -2.507359 0.173651
2.284975 -2.458652 -0.099212
2.334152 -2.512172 0.324745
2.257308 -2.529468 0.583085
2.209976 -2.482081 0.093149
2.178272 -2.527379 0.575390
2.104345 -2.454489 -0.003497
2.103305 -2.453519 -0.011495
2.208648 -2.501882 0.201248
2.094051 -2.450776 -0.077452
2.144942 -2.515934 0.505540
2.238517 -2.464029 -0.006904
2.353467 -2.500433 0.137771
2.142089 -2.454305 -0.095569
2.134941 -2.454497 -0.142526
2.133322 -2.455297 -0.042510
2.090639 -2.489230 0.209744
2.191869 -2.530649 0.417481
2.071425 -2.476511 0.183804
2.135027 -2.552145 0.940767
2.220568 -2.489890 0.171324
2.282335 -2.472845 -0.119935
2.254525 -2.535661 0.564333
2.177271 -2.456970 -0.094570
2.180750 -2.550849 0.855646
2.224395 -2.511539 0.321401
2.157560 -2.534743 0.570707
2.099177 -2.474443 0.093783
2.110519 -2.557229 1.044937
2.066294 -2.513797 0.558004
2.004556 -2.450740 -0.011910
2.001546 -2.447761 -0.005905
1.987201 -2.438083 -0.076862
2.091714 -2.485325 0.195877
2.041050 -2.507237 0.497126
2.256050 -2.504470 0.216372
2.125743 -2.456404 -0.002262
2.239713 -2.496831 0.139433
2.031285 -2.443655 -0.091949
2.028160 -2.445797 -0.137922
2.026523 -2.446606 -0.040907
1.987780 -2.480514 0.202323
2.064745 -2.500213 0.408107
1.971632 -2.471750 0.181381
2.032068 -2.543460 0.923343
2.078073 -2.444374 -0.183035
2.240685 -2.536987 0.542614
2.110802 -2.486250 0.168962
2.158530 -2.459336 -0.111258
2.147725 -2.535010 0.553964
2.067504 -2.449307 -0.089948
2.070804 -2.541244 0.840257
2.094335 -2.484133 0.315053
2.038489 -2.512235 0.554318
1.992326 -2.462752 0.094370
2.013678 -2.560495 1.022525
1.966429 -2.509068 0.543578
1.901728 -2.438991 -0.007345
1.904759 -2.442967 -0.011347
2.130556 -2.540788 0.757094
1.887384 -2.428308 -0.076307
1.990928 -2.481580 0.191460
2.066893 -2.570898 1.038409
1.938126 -2.495526 0.487687
2.104518 -2.455065 -0.142958
2.182309 -2.541448 0.665980
2.132174 -2.489985 0.216040
2.111684 -2.551447 1.028257
2.016954 -2.447731 0.001346
1.922412 -2.426973 -0.087372
2.123893 -2.487249 0.140075
1.921311 -2.431091 -0.133349
1.925746 -2.439842 -0.039336
1.886904 -2.469768 0.195876
1.968980 -2.500415 0.402674
1.877861 -2.468916 0.178925
1.939198 -2.541652 0.908882
1.968297 -2.433699 -0.175431
2.136944 -2.540293 0.535237
1.961142 -2.427841 -0.203415
2.002963 -2.476578 0.166556
2.041689 -2.443741 -0.103637
2.022585 -2.505563 0.538572
1.973967 -2.540478 0.827821
1.949575 -2.426725 -0.084349
1.939636 -2.507484 0.542879
1.999652 -2.489316 0.313632
1.912683 -2.550801 0.998076
1.889487 -2.452015 0.093931
1.871579 -2.505274 0.530120
1.805921 -2.431175 -0.009811
1.805918 -2.431177 -0.010811
2.020619 -2.530174 0.743692
1.791595 -2.420483 -0.075773
1.882985 -2.463910 0.186021
1.960879 -2.559262 1.013979
1.845313 -2.492695 0.480221
1.992731 -2.443410 -0.134353
2.019926 -2.559635 1.013825
1.915172 -2.439971 0.004911
1.822616 -2.417188 -0.083826
2.057279 -2.521007 0.651619
2.015291 -2.475415 0.214660
1.816458 -2.415359 -0.128798
2.010044 -2.474639 0.140685
1.820870 -2.424120 -0.038786
1.785987 -2.455020 0.188407
1.844234 -2.531864 0.892395
2.076962 -2.561046 1.006682
1.868121 -2.491670 0.397227
1.773875 -2.447190 0.175446
2.007019 -2.573246 1.276961
2.075788 -2.575675 1.194754
1.857406 -2.413025 -0.166869
1.893024 -2.457922 0.164118
1.854306 -2.412124 -0.195855
2.009825 -2.510861 0.522848
1.878084 -2.535698 0.814358
1.923756 -2.501807 0.529130
1.934942 -2.436031 -0.096048
1.849817 -2.419940 -0.080794
1.847845 -2.507648 0.532412
1.891742 -2.474645 0.309198
1.808610 -2.534144 0.970611
1.791663 -2.442214 0.094462
1.775663 -2.495488 0.515637
1.712083 -2.420328 -0.011307
1.712086 -2.420326 -0.010307
1.698795 -2.411620 -0.075267
1.914703 -2.520507 0.731263
1.785123 -2.453120 0.181546
1.754465 -2.486835 0.472724
1.860884 -2.548548 0.991512
1.892275 -2.417892 -0.261881
1.918987 -2.552931 0.993377
1.879839 -2.422758 -0.125786
1.734913 -2.416262 -0.080319
1.810315 -2.425245 0.007458
1.915551 -2.473647 0.214228
1.948395 -2.512371 0.641209
1.731828 -2.420403 -0.126285
1.733157 -2.423199 -0.037280
1.691081 -2.441195 0.181902
1.909290 -2.470877 0.141251
1.748245 -2.519085 0.875896
1.766156 -2.473929 0.390743
1.686095 -2.443279 0.172938
1.980144 -2.563286 0.992245
1.903018 -2.563586 1.253516
1.966831 -2.568071 1.173344
1.764703 -2.410152 -0.161344
1.916090 -2.514038 0.517398
1.761609 -2.409249 -0.189331
1.794217 -2.450139 0.162656
1.774017 -2.515008 0.797870
1.829955 -2.499987 0.520661
1.757077 -2.415070 -0.076279
1.748895 -2.493890 0.519924
1.823046 -2.415372 -0.089489
1.711587 -2.520393 0.947111
1.700881 -2.436329 0.094961
1.678688 -2.479707 0.502131
1.786815 -2.457934 0.305732
1.622250 -2.409426 -0.010832
1.621247 -2.409443 -0.012826
1.659493 -2.470016 0.464202
1.611017 -2.404697 -0.074788
1.695318 -2.447232 0.178038
1.816834 -2.514743 0.719798
1.756804 -2.529879 0.967030
1.790465 -2.405121 -0.258348
1.789521 -2.407118 -0.250334
1.819007 -2.542209 0.972901
1.641078 -2.403402 -0.077831
1.778045 -2.410982 -0.118251
1.717569 -2.420376 0.010970
1.632909 -2.399594 -0.122800
1.653187 -2.500289 0.858362
1.639312 -2.410344 -0.036793
1.600229 -2.431325 0.175383
1.811716 -2.462918 0.213776
1.802381 -2.453175 0.141788
1.852672 -2.516577 0.634770
1.593198 -2.428420 0.170411
1.674312 -2.466070 0.386235
1.879206 -2.555573 0.973784
1.800005 -2.551910 1.231051
1.669904 -2.398290 -0.153850
1.701390 -2.441279 0.161148
1.680063 -2.503195 0.784355
1.854786 -2.552501 1.149912
1.812159 -2.500330 0.507930
1.672923 -2.407324 -0.182832
1.726959 -2.481269 0.509169
1.652938 -2.479093 0.507409
1.614523 -2.502639 0.922590
1.662286 -2.405220 -0.072778
1.587761 -2.467853 0.488600
1.736431 -2.420429 -0.082975
1.605989 -2.420487 0.094438
1.697043 -2.455047 0.303230
1.540521 -2.407434 -0.010375
1.537466 -2.403476 -0.014373
1.574640 -2.463077 0.457654
1.529267 -2.400701 -0.074338
1.603452 -2.435364 0.174512
1.714815 -2.496019 0.706299
1.658753 -2.513135 0.943516
1.700821 -2.405202 -0.248839
1.694804 -2.400251 -0.239824
1.716928 -2.522505 0.951394
1.559402 -2.404403 -0.074364
1.563173 -2.484429 0.842806
1.627798 -2.413469 0.014451
1.685325 -2.406104 -0.111745
1.510280 -2.413435 0.168822
1.552248 -2.401583 -0.119336
1.550505 -2.400426 -0.035329
1.505309 -2.414500 0.167854
1.703531 -2.440378 0.143293
1.711882 -2.452140 0.213295
1.586480 -2.459162 0.381702
1.750759 -2.504848 0.625293
1.770059 -2.529950 0.951291
1.705045 -2.544131 1.210548
1.604470 -2.423461 0.159623
1.587106 -2.490367 0.770824
1.584226 -2.397332 -0.148371
1.713247 -2.487556 0.500431
1.640138 -2.477357 0.501638
1.580128 -2.395439 -0.176356
1.749748 -2.536838 1.128433
1.564043 -2.469208 0.496867
1.525526 -2.489782 0.901036
1.501863 -2.457935 0.477041
1.573499 -2.396297 -0.069314
1.519164 -2.410549 0.094887
1.635567 -2.402637 -0.076480
1.600148 -2.440235 0.300714
1.487707 -2.449160 0.449087
1.429158 -2.363900 -0.073915
1.569768 -2.501274 0.923964
1.510535 -2.418506 0.169967
1.614808 -2.477268 0.693782
1.605024 -2.391341 -0.238357
1.602047 -2.390359 -0.230344
1.619863 -2.503739 0.929859
1.459337 -2.370596 -0.070934
1.482309 -2.480458 0.831238
1.431509 -2.410416 0.164249
1.453211 -2.369765 -0.115903
1.539004 -2.404549 0.016911
1.482983 -2.417275 -0.035889
1.596614 -2.402176 -0.105266
1.431592 -2.416418 0.165271
1.489420 -2.432353 0.374139
1.609661 -2.426519 0.143761
1.674091 -2.518165 0.934773
1.614002 -2.437332 0.212780
1.647799 -2.488126 0.615796
1.612069 -2.534324 1.191021
1.503207 -2.482426 0.760255
1.482183 -2.363538 -0.140933
1.519693 -2.418505 0.158073
1.623402 -2.480674 0.493899
1.480121 -2.364622 -0.168918
1.545175 -2.460538 0.491097
1.476106 -2.455306 0.486299
1.447703 -2.490787 0.885466
1.653843 -2.531062 1.111935
1.411845 -2.437058 0.464459
1.500943 -2.408193 -0.065867
1.443495 -2.414485 0.095320
1.403782 -2.435202 0.442496
1.512327 -2.432318 0.298168
1.547840 -2.397699 -0.071013
1.483818 -2.491372 0.906396
1.434824 -2.420447 0.167391
1.531013 -2.476323 0.686237
1.500024 -2.358572 -0.226902
1.499052 -2.358567 -0.218897
1.531917 -2.493858 0.913300
1.402374 -2.470471 0.818637
1.345522 -2.388469 0.158640
1.433863 -2.363797 0.020337
1.336475 -2.381569 0.161665
1.512922 -2.400188 -0.098813
1.410611 -2.427331 0.370551
1.585161 -2.509292 0.920222
1.522898 -2.421582 0.144217
1.520139 -2.423474 0.213240
1.554903 -2.477283 0.607260
1.519040 -2.519512 1.170468
1.421341 -2.476458 0.750676
1.438965 -2.417502 0.156509
1.527429 -2.461857 0.486349
1.459283 -2.449606 0.483523
1.388115 -2.436402 0.474707
1.362699 -2.475873 0.865870
1.333987 -2.430038 0.453856
1.559907 -2.522257 1.095408
1.335094 -2.442067 0.438892
1.427481 -2.422361 0.295591
1.453951 -2.377819 -0.064576
1.399874 -2.481444 0.888811
1.339744 -2.388600 0.162791
1.448173 -2.471361 0.678664
1.328526 -2.467407 0.809021
1.447999 -2.485926 0.897721
1.321580 -2.402422 0.363940
1.412894 -2.367368 -0.091394
1.494153 -2.493440 0.903649
1.438102 -2.413614 0.145645
1.438428 -2.423479 0.213680
1.460947 -2.460446 0.598701
1.434101 -2.511598 1.153890
1.336350 -2.459521 0.739068
1.342869 -2.383660 0.153902
1.437477 -2.444967 0.478767
1.377441 -2.442627 0.475934
1.316405 -2.441305 0.469106
1.285815 -2.470859 0.849259
1.466927 -2.509437 1.077853
1.332392 -2.390514 0.290985
1.320957 -2.473450 0.873200
1.356130 -2.448506 0.666070
1.253621 -2.459355 0.797387
1.368127 -2.480940 0.885124
1.411247 -2.485487 0.891056
1.341045 -2.381778 0.145045
1.338321 -2.387680 0.212081
1.348114 -2.498691 1.137293
1.260475 -2.452473 0.730440
1.374073 -2.450525 0.591122
1.301644 -2.439571 0.470320
1.355633 -2.436979 0.474168
1.204824 -2.455890 0.830629
1.245059 -2.466413 0.859563
1.376934 -2.494572 1.062261
1.172509 -2.433372 0.781711
1.283414 -2.453418 0.662454
1.288166 -2.468954 0.869484
1.331354 -2.478498 0.879426
1.179437 -2.431490 0.717765
1.293285 -2.447532 0.587504
1.283929 -2.441877 0.471529
1.171183 -2.461363 0.845898
1.294047 -2.488634 1.049638
1.213282 -2.462911 0.857821
1.251377 -2.464514 0.865760
1.210057 -2.473704 1.034984
1.178551 -2.462438 0.858092
1.136261 -2.474645 1.027324
