# .PCD v0.7 - Point Cloud Data file format
VERSION 0.7
FIELDS x y z
SIZE 4 4 4
TYPE F F F
COUNT 1 1 1
WIDTH 12
HEIGHT 1
VIEWPOINT 0 0 0 1
POINTS 12
DATA ascii
-1.262270 -3.549757 1.285067
-1.313670 -3.451801 1.257970
-1.448258 -3.546399 1.219574
-1.501655 -3.448483 1.193456
-1.653378 -3.516737 1.131279
-1.705728 -3.414931 1.107188
-1.844244 -3.550355 1.055259
-1.881800 -3.546719 1.040165
-1.851761 -3.443252 1.033388
-1.934047 -3.531866 1.022125
-1.880317 -3.427855 1.032428
-1.911721 -3.414327 1.017458
