# .PCD v0.7 - Point Cloud Data file format
VERSION 0.7
FIELDS x y z
SIZE 4 4 4
TYPE F F F
COUNT 1 1 1
WIDTH 21
HEIGHT 1
VIEWPOINT 0 0 0 1
POINTS 21
DATA ascii
-1.201224 -1.947011 1.377614
-1.213870 -1.961055 1.379450
-1.278842 -1.974076 1.422929
-1.285597 -1.979835 1.415971
-1.260090 -2.005144 1.404563
-1.319296 -1.941571 1.425661
-1.195435 -1.963495 1.336783
-1.218600 -1.971294 1.407607
-1.538650 -2.265890 1.647153
-1.303478 -1.975627 1.405225
-1.716770 -2.420417 1.811210
-1.278825 -2.004662 1.382788
-1.570306 -2.426467 1.752868
-1.722514 -2.425887 1.794280
-1.654572 -2.405476 1.736005
-1.318272 -1.969950 1.377570
-1.669956 -2.453752 1.796145
-1.753548 -2.458040 1.933727
-1.748319 -2.427694 1.780395
-1.681235 -2.409914 1.707121
-1.758883 -2.461567 1.826871
