# .PCD v0.7 - Point Cloud Data file format
VERSION 0.7
FIELDS x y z
SIZE 4 4 4
TYPE F F F
COUNT 1 1 1
WIDTH 48
HEIGHT 1
VIEWPOINT 0 0 0 1
POINTS 48
DATA ascii
1.577018 -2.321404 2.503552
1.707182 -2.539113 2.714103
1.626433 -2.460404 2.735416
1.388514 -2.149737 2.474673
1.393535 -2.161845 2.448294
1.623557 -2.501389 2.659136
1.624153 -2.535758 2.675187
1.498217 -2.383209 2.611740
1.403338 -2.274223 2.575951
1.591464 -2.567920 2.865080
1.537701 -2.491759 2.613424
1.271210 -2.078724 2.382042
1.176067 -1.992434 2.338482
1.236705 -2.051586 2.397890
1.539313 -2.524206 2.630529
1.428048 -2.386342 2.578649
1.343915 -2.287904 2.552555
1.350835 -2.301388 2.535134
1.281551 -2.207531 2.517979
1.459629 -2.491705 2.579433
1.291665 -2.218268 2.510873
1.092991 -1.923535 2.308767
1.244718 -2.166057 2.502482
1.462234 -2.523220 2.597568
1.355050 -2.381244 2.539828
1.278764 -2.290087 2.517524
1.287563 -2.306927 2.509004
1.223231 -2.218008 2.487705
1.483396 -2.643538 3.190056
1.151119 -2.137930 2.441183
1.219707 -2.210304 2.475166
1.115439 -2.060307 2.442703
0.945160 -1.795487 2.250701
1.176701 -2.160242 2.468718
1.291719 -2.389890 2.516611
1.219404 -2.300771 2.493255
1.218567 -2.300967 2.471241
1.164907 -2.228569 2.459448
1.055770 -2.015807 2.408111
1.095856 -2.141594 2.413144
1.450630 -2.808662 3.485045
1.151643 -2.206635 2.445350
1.049578 -2.047253 2.400181
1.452504 -2.818655 3.484739
1.111665 -2.153581 2.436996
1.002439 -2.021780 2.388024
0.990474 -2.043786 2.370386
1.045730 -2.141825 2.402447
