# .PCD v0.7 - Point Cloud Data file format
VERSION 0.7
FIELDS x y z
SIZE 4 4 4
TYPE F F F
COUNT 1 1 1
WIDTH 24
HEIGHT 1
VIEWPOINT 0 0 0 1
POINTS 24
DATA ascii
1.332652 2.426718 0.707503
1.314245 2.411165 0.704477
1.434150 2.496045 0.932696
1.651726 2.553288 1.249177
1.575349 2.536937 1.246020
1.641066 2.530634 1.257176
1.636758 2.523847 1.257176
1.790265 2.778631 1.226313
1.638243 2.507948 1.255195
2.057961 3.047108 1.168700
1.831321 2.710139 1.214471
2.218067 3.116116 1.105016
2.102532 2.960656 1.152883
2.087645 2.937194 1.234873
2.254211 3.009916 1.084183
2.286445 2.904819 1.064320
2.490673 3.153705 0.989599
2.459283 3.139405 1.004544
2.443326 3.146822 1.006509
2.439363 3.153998 1.008499
2.519765 3.041746 0.971720
2.485393 3.027483 0.988659
2.465364 3.030972 0.991618
2.463410 3.039114 0.997611
