# .PCD v0.7 - Point Cloud Data file format
VERSION 0.7
FIELDS x y z
SIZE 4 4 4
TYPE F F F
COUNT 1 1 1
WIDTH 40
HEIGHT 1
VIEWPOINT 0 0 0 1
POINTS 40
DATA ascii
0.460153 -3.583903 1.864873
0.434665 -3.510211 1.947577
0.398163 -3.729693 1.934092
0.349285 -3.474109 1.927398
0.309796 -3.678372 1.903218
0.263006 -3.403683 1.889853
0.178769 -3.323214 1.848466
0.097575 -3.219528 1.793464
0.021354 -3.129060 1.747161
-0.049885 -3.047771 1.707629
-0.117196 -2.989758 1.680621
-0.183543 -2.949962 1.664268
-0.320515 -2.991685 1.702392
0.480671 -3.814834 1.978103
0.389139 -3.768991 1.947598
0.013199 -3.027491 1.809677
0.447096 -3.483990 1.875623
-0.050396 -2.998992 1.791668
0.063410 -3.137999 1.834344
0.385482 -3.511173 1.906838
0.367531 -3.461463 1.861667
-0.113958 -2.955405 1.766864
-0.006126 -3.083301 1.803741
0.291074 -3.402007 1.851172
0.304783 -3.586123 1.926572
-0.174513 -2.899743 1.735197
-0.071661 -3.022601 1.771180
0.222265 -3.528357 1.895093
0.205612 -3.342288 1.823755
-0.135153 -2.932701 1.723003
0.143753 -3.463591 1.861667
0.125103 -3.306791 1.808967
-0.195665 -2.859969 1.684572
0.068234 -3.411947 1.835050
0.048545 -3.356979 1.842975
-0.254167 -2.800366 1.654929
-0.006258 -3.358308 1.808436
-0.029915 -3.317505 1.829204
-0.106348 -3.254889 1.803722
-0.178777 -3.181221 1.772348
