# .PCD v0.7 - Point Cloud Data file format
VERSION 0.7
FIELDS x y z
SIZE 4 4 4
TYPE F F F
COUNT 1 1 1
WIDTH 126
HEIGHT 1
VIEWPOINT 0 0 0 1
POINTS 126
DATA ascii
1.675439 1.942156 0.848229
1.914612 2.235975 0.584470
1.758183 1.946962 0.866178
1.879135 2.070978 0.543132
1.735909 1.908096 0.920413
1.709068 1.964247 0.786597
1.880240 2.032694 0.569623
1.650872 1.982361 0.711917
1.861585 1.970938 0.892622
1.975887 2.081011 0.555315
1.815725 1.902839 0.942201
1.736132 1.908260 0.907135
1.812510 1.988251 0.810031
1.969076 2.031593 0.585571
1.946731 2.235426 0.578474
1.742579 1.992296 0.728023
1.968035 1.990965 0.919054
2.084524 2.097165 0.570721
1.901487 2.026043 0.560466
1.678589 2.002414 0.645149
1.887542 1.976046 0.821673
1.830722 1.917143 0.933275
2.067799 2.037600 0.603733
1.834936 2.015478 0.537295
1.755168 1.916576 0.901152
1.833361 1.997241 0.743060
2.000239 2.033081 0.575634
1.688623 1.922178 0.863199
1.773347 2.010411 0.659260
1.997028 1.995138 0.846124
1.997803 2.251228 0.561878
1.933702 2.023536 0.550467
1.837014 1.913400 0.918989
1.926178 1.999222 0.758088
2.105937 2.042194 0.592914
1.769496 1.919008 0.879017
2.096767 1.999179 0.865273
1.878976 2.026531 0.675606
2.037428 2.032645 0.565718
2.039702 2.017392 0.780568
2.205798 2.040269 0.607992
1.867100 1.930988 0.901228
1.967945 2.019503 0.687472
1.988803 2.039396 0.532942
2.149140 2.042865 0.581080
2.148375 2.025539 0.800872
1.963804 1.934971 0.923331
2.106440 2.056698 0.547454
2.220202 2.064978 0.560816
1.677074 1.065161 1.132288
1.831395 1.114719 1.070708
1.745939 1.051693 1.163897
1.732681 1.108870 1.130291
1.936900 1.118613 1.112982
1.603592 1.050554 1.196831
1.755306 1.067128 1.130990
2.051466 1.240095 1.110680
2.403141 1.346243 1.041398
1.978514 1.137648 1.060481
2.278679 1.212223 0.983183
1.778646 1.078651 1.106175
2.443048 1.280174 0.895989
1.625534 1.058452 1.131935
2.462315 1.364172 1.023065
2.046636 1.115294 1.080982
2.320230 1.166636 0.993083
2.036709 1.176779 1.019417
2.556960 1.267341 0.923178
1.719094 1.058198 1.174993
2.332923 1.225079 0.964742
1.830802 1.103512 1.083847
2.138491 1.168735 1.052498
2.557056 1.198423 0.913297
2.590648 1.295444 0.853673
2.294565 1.324724 1.054049
2.383435 1.181599 0.975781
1.924541 1.096338 1.119833
2.403141 1.238108 0.949474
2.721534 1.282816 0.883075
2.152500 1.176598 0.980487
2.456696 1.192680 0.959530
2.261380 1.162665 1.012584
2.453887 1.233091 0.912724
2.556022 1.207160 0.936609
4.160428 1.500977 0.495486
3.568645 1.378436 0.591452
4.341949 1.553945 0.418990
3.777775 1.400818 0.503908
4.516511 1.605831 0.340353
4.299009 1.635201 0.426671
4.211185 1.484074 0.415781
4.285398 -1.029863 0.230833
4.486728 -1.098030 0.198723
4.324917 -1.142535 0.235232
3.789118 -0.979359 0.307578
4.028175 -1.145611 0.326954
4.411613 -1.133749 0.204634
3.869666 -1.081354 0.392307
2.454516 -1.215875 0.738617
2.578057 -1.199868 0.680180
2.715427 -1.171672 0.622012
2.913080 -1.161698 0.561405
2.356059 -1.232131 0.720201
2.507790 -1.238844 0.670912
2.846931 -1.309397 0.656376
2.390395 -1.291083 0.762091
3.084839 -1.319930 0.597072
2.388070 -1.317995 0.738808
2.392124 -1.234867 0.729483
2.475026 -1.200644 0.704690
2.657325 -1.389412 0.716411
2.841017 -1.389672 0.662551
2.465683 -1.405457 0.788995
2.470318 -1.435321 0.771779
2.528611 -1.379582 0.772878
2.616528 -1.346300 0.748127
2.718565 -1.316815 0.718499
2.504538 -1.442029 0.773003
2.594485 -1.412741 0.750239
2.696563 -1.387269 0.721573
2.000603 -1.288750 0.890899
2.124067 -1.283891 0.849340
1.942212 -1.317558 0.881908
2.035644 -1.300010 0.829086
1.980317 -1.334806 0.822065
2.090734 -1.484957 0.879113
