# .PCD v0.7 - Point Cloud Data file format
VERSION 0.7
FIELDS x y z
SIZE 4 4 4
TYPE F F F
COUNT 1 1 1
WIDTH 201
HEIGHT 1
VIEWPOINT 0 0 0 1
POINTS 201
DATA ascii
1.920271 0.829638 2.684370
2.044051 0.872133 2.710396
1.980556 0.805168 2.747247
2.383826 0.958567 2.922939
2.089045 0.839776 2.747406
2.306077 0.869319 2.816022
2.171519 0.819110 2.831127
2.238619 0.912205 2.807415
2.565609 1.015860 3.035915
2.232838 0.853300 2.780889
2.799866 1.052316 3.133387
2.425032 0.901151 2.854508
2.741742 1.042179 3.111141
2.646707 0.938090 2.984402
3.783036 -1.170407 3.258135
3.734490 -1.250752 3.245900
3.905962 -1.404887 3.279117
3.850445 -1.487185 3.265898
3.770953 -1.558315 3.232754
3.822881 -1.709641 3.215227
3.808196 -2.175632 3.170576
1.750799 -1.055603 2.494786
3.752456 -1.787822 3.198043
1.726780 -1.091361 2.492152
1.683757 -1.115014 2.463573
1.748183 -1.110527 2.492362
1.745513 -1.200439 2.516633
1.636750 -1.133650 2.428992
1.731187 -1.153322 2.502712
1.659483 -1.196851 2.428183
1.612772 -1.168417 2.428342
1.665183 -1.164838 2.447208
1.627494 -1.230572 2.416574
1.621205 -1.188490 2.420625
1.622499 -1.281455 2.439871
1.609249 -1.234320 2.440944
1.738439 -1.369391 2.473785
1.747345 -1.427399 2.498002
1.692500 -1.395018 2.454196
1.752885 -1.382493 2.476958
1.643462 -1.406721 2.397557
1.617604 -1.396503 2.393673
1.706957 -1.411126 2.460377
1.627509 -1.455538 2.416878
1.603668 -1.446326 2.418985
1.626080 -1.409576 2.394871
1.612158 -1.462393 2.424191
1.755245 -1.600521 2.466909
1.704618 -1.774196 2.422530
1.728285 -1.624305 2.459169
1.686394 -1.610027 2.424361
1.620848 -1.760631 2.356975
1.628519 -1.604646 2.376685
1.759747 -1.976621 2.437958
1.633533 -1.630633 2.401760
1.748829 -1.642426 2.478322
1.605621 -1.656405 2.401026
1.695909 -1.994156 2.404384
1.625120 -1.601640 2.365888
1.741470 -1.958506 2.414179
1.633091 -2.012703 2.373801
1.754299 -1.787521 2.450850
1.613216 -1.663457 2.408199
1.666719 -1.962972 2.374616
1.747195 -1.814496 2.433990
1.645619 -1.756816 2.363358
1.654493 -1.804865 2.374481
1.626721 -1.816594 2.398680
1.613664 -1.845521 2.383854
1.756408 -3.103670 2.363124
1.622892 -2.767852 2.255094
1.645971 -3.073942 2.302548
1.775111 -3.098800 2.357128
1.627784 -3.211711 2.368894
1.668676 -3.072111 2.306525
1.747243 -2.996673 2.310117
1.618790 -3.145726 2.328872
1.614039 -2.924846 2.230538
1.752746 -3.170641 2.357437
1.637405 -3.126920 2.297825
1.599922 -3.060636 2.308856
1.782294 -3.177889 2.333406
1.735393 -3.192618 2.295622
1.695722 -3.190309 2.317776
1.607173 -3.139821 2.236037
1.614135 -3.206771 2.307124
-0.404660 -3.499777 1.469358
-0.446159 -2.795885 1.494156
-0.464144 -3.307944 1.458189
-0.485118 -2.660888 1.427161
-0.547656 -3.355756 1.481261
-0.466919 -2.751141 1.453066
-0.457678 -3.193239 1.464028
-0.425580 -1.895429 1.559956
-0.442060 -2.886373 1.482968
-0.393441 -1.686618 1.607895
-0.533127 -3.217095 1.478084
-0.400638 -1.590725 1.626916
-0.518621 -2.106238 1.735107
-0.486964 -2.746362 1.420991
-0.410837 -1.883717 1.609911
-0.427956 -1.676645 1.603963
-0.455159 -3.084548 1.474881
-0.379702 -1.426904 1.633896
-0.394726 -1.455885 1.628925
-0.468850 -2.854609 1.432879
-0.425028 -1.535808 1.574975
-0.599376 -2.221130 1.833211
-0.446311 -1.600739 1.537007
-0.433069 -1.783802 1.529955
-0.411424 -1.673916 1.610930
-0.396970 -1.829015 1.609877
-0.412244 -1.424954 1.635973
-0.425267 -1.447937 1.624996
-0.392106 -1.688142 1.610891
-0.459504 -1.522861 1.566049
-0.485856 -1.609763 1.552080
-0.574592 -2.194487 1.884123
-0.438842 -1.629980 1.576989
-0.416292 -1.527096 1.628970
-0.421287 -1.751085 1.548930
-0.427662 -1.361064 1.568029
-0.438662 -1.376054 1.551049
-0.404703 -1.428216 1.636976
-0.426569 -1.669188 1.603958
-0.652141 -2.043428 2.102267
-0.406289 -1.377296 1.640999
-0.573574 -1.994668 1.721134
-0.464252 -1.583056 1.541048
-0.432667 -1.454201 1.559027
-0.466863 -1.777092 1.579999
-0.459194 -1.357128 1.569104
-0.386292 -1.422451 1.637957
-0.477263 -1.398091 1.581126
-0.430195 -1.401294 1.615043
-0.405475 -1.481400 1.629976
-0.378894 -1.356533 1.646968
-0.417471 -1.741379 1.593918
-0.442871 -1.579290 1.530014
-0.414128 -1.686437 1.606929
-0.425761 -1.334391 1.599063
-0.699589 -2.029493 2.096317
-0.632325 -2.015822 2.164198
-0.742140 -2.108527 2.438351
-0.413801 -1.404523 1.630026
-0.754179 -2.120509 2.400361
-0.445635 -1.344400 1.559104
-0.421893 -1.417497 1.570037
-0.439851 -1.675451 1.542976
-0.407417 -1.345608 1.645041
-0.361368 -1.344796 1.664963
-0.485414 -1.597327 1.560083
-0.447261 -1.303482 1.570130
-0.440493 -1.630514 1.568994
-1.126300 -3.453632 3.380452
-0.399575 -1.441727 1.642999
-1.041068 -3.151004 3.389408
-0.549899 -1.782159 1.601118
-0.793628 -2.103611 2.444395
-0.432247 -1.354622 1.584092
-0.802678 -2.112590 2.403401
-0.484225 -1.366453 1.595176
-0.454428 -1.415562 1.577106
-0.403269 -1.405785 1.642026
-1.142060 -4.240996 3.900069
-0.424908 -1.302705 1.604106
-0.384897 -1.322877 1.652032
-1.017571 -2.904411 3.497385
-0.468878 -1.586594 1.542060
-0.421061 -1.403812 1.613064
-0.545305 -1.477369 1.608235
-0.456737 -1.329713 1.569161
-0.769048 -2.088004 2.443311
-1.006027 -3.059595 3.409239
-0.427752 -1.376874 1.624094
-1.235455 -4.240033 3.926043
-0.442392 -1.261808 1.566174
-0.411427 -1.309962 1.651102
-0.792669 -2.085093 2.533330
-0.436526 -1.349906 1.563126
-1.060176 -3.023801 3.576237
-0.759795 -2.121270 2.387233
-1.131986 -2.921507 3.436393
-0.557521 -1.700580 1.599137
-0.441168 -1.312985 1.565161
-0.735177 -2.028471 2.527237
-0.426900 -1.262067 1.607167
-0.704382 -2.102640 2.446133
-1.118401 -3.373736 3.324041
-1.116534 -2.973961 3.549236
-0.442407 -1.223173 1.573234
-0.475717 -1.323072 1.594225
-1.051826 -2.758205 3.459243
-0.749893 -2.096745 2.462164
-1.026254 -2.790731 3.605090
-1.085163 -2.669399 3.379251
-0.779449 -2.086870 2.533185
-1.100754 -2.930517 3.466069
-1.033506 -2.632947 3.440115
-0.823892 -2.065015 2.537217
-1.077932 -2.586133 3.418125
