# .PCD v0.7 - Point Cloud Data file format
VERSION 0.7
FIELDS x y z
SIZE 4 4 4
TYPE F F F
COUNT 1 1 1
WIDTH 791
HEIGHT 1
VIEWPOINT 0 0 0 1
POINTS 791
DATA ascii
-0.464277 1.922002 0.432829
-0.437733 2.028156 0.453308
-0.392452 1.949571 0.322602
-0.376659 1.945589 0.433757
-0.472449 2.095917 0.382683
-0.350556 1.934971 0.189995
-0.440523 1.968125 0.405727
-0.344022 1.950905 0.318095
-0.330214 1.940900 0.430221
-0.396862 1.948468 0.354123
-0.304706 1.921389 0.083437
-0.386801 1.928497 0.397185
-0.302018 1.919312 0.187464
-0.302673 1.954910 0.612534
-0.296599 1.951229 0.315581
-0.294804 1.992532 0.006664
-0.365828 1.930865 0.158396
-0.284813 1.941200 0.428688
-0.349470 1.952788 0.352614
-0.259838 1.930860 -0.071087
-0.262563 1.959689 0.081939
-0.260864 1.952595 0.188948
-0.342520 1.944788 0.399670
-0.254257 1.957216 0.609037
-0.249193 1.954549 0.313076
-0.243072 1.950905 0.005123
-0.320302 1.934226 0.116869
-0.240477 1.949487 0.429161
-0.319418 1.931189 0.158873
-0.310767 1.934432 -0.016037
-0.218392 1.940201 -0.108641
-0.302048 1.953107 0.350101
-0.216321 1.948249 -0.139608
-0.215581 1.955186 -0.074586
-0.215066 1.950025 0.079415
-0.296085 1.941095 0.398141
-0.213412 1.948921 0.187434
-0.422712 1.928256 0.320706
-0.205739 1.946524 0.601523
-0.416989 1.940211 0.396794
-0.201763 1.954867 0.309569
-0.196669 1.954237 0.003612
-0.195060 1.947782 0.427631
-0.276188 1.955487 0.160366
-0.276043 1.956536 0.116369
-0.264353 1.935766 -0.016553
-0.259686 1.955056 0.641552
-0.173051 1.952534 -0.111148
-0.255643 1.954415 0.348583
-0.169958 1.958592 -0.142107
-0.168120 1.951530 -0.076097
-0.168685 1.956350 0.077910
-0.250720 1.946390 0.398621
-0.168015 1.951231 0.185912
-0.257752 2.065939 -0.124249
-0.379541 1.960539 0.326220
-0.254681 2.065977 -0.137218
-0.159374 1.952808 0.601018
-0.370625 1.946517 0.397282
-0.236031 1.942004 -0.047248
-0.155375 1.959174 0.308061
-0.150246 1.954566 0.002098
-0.149668 1.950073 0.426111
-0.228733 1.950813 0.159851
-0.456558 2.598131 0.205851
-0.226546 1.948881 0.114869
-0.217987 1.944096 -0.016055
-0.212262 1.954347 0.639044
-0.125580 1.947878 -0.112656
-0.209256 1.958719 0.347074
-0.122504 1.956939 -0.144611
-0.205342 1.949682 0.399101
-0.121669 1.948865 -0.078612
-0.122246 1.954674 0.075395
-0.121626 1.955544 0.185406
-0.199486 1.946351 -0.116860
-0.328978 1.940878 0.324696
-0.196387 1.941386 -0.127836
-0.328001 1.940518 0.623714
-0.325233 1.946813 0.397750
-0.111959 1.954098 0.598519
-0.189688 1.954336 -0.047741
-0.107947 1.959486 0.305560
-0.105268 1.949354 0.425578
-0.103815 1.953893 0.000586
-0.313004 1.939281 0.086850
-0.183320 1.950123 0.159325
-0.310290 1.948207 0.160900
-0.180112 1.947202 0.113352
-0.172649 1.955418 -0.016559
-0.164795 1.948639 0.634533
-0.079184 1.953213 -0.115158
-0.162880 1.964020 0.346569
-0.293806 1.994550 -0.017837
-0.076048 1.953275 -0.146126
-0.159995 1.956969 0.400590
-0.076226 1.956847 0.184888
-0.075310 1.959197 -0.081108
-0.074818 1.956001 0.072898
-0.154139 1.956678 -0.117366
-0.281595 1.945187 0.327197
-0.151070 1.956716 -0.129334
-0.279572 1.938813 0.624214
-0.278861 1.952112 0.398242
-0.065592 1.960378 0.597018
-0.143226 1.948666 -0.048262
-0.063848 1.940231 0.716013
-0.061531 1.959788 0.304051
-0.060903 1.953633 0.425053
-0.058414 1.956210 -0.000930
-0.265542 1.932609 0.088330
-0.136907 1.950435 0.159815
-0.263862 1.945523 0.161377
-0.133731 1.953520 0.111852
-0.125199 1.952751 -0.017064
-0.119464 1.957908 0.635026
-0.033828 1.962538 -0.117665
-0.116467 1.964320 0.345059
-0.030670 1.959602 -0.148636
-0.242120 1.956911 -0.015378
-0.030885 1.966148 0.184381
-0.113540 1.951265 0.399071
-0.029868 1.956519 -0.083629
-0.029464 1.964311 0.071390
-0.112479 1.939871 0.692074
-0.107695 1.954010 -0.117879
-0.234164 1.942495 0.328687
-0.103602 1.952056 -0.129840
-0.234523 1.959394 0.399720
-0.232160 1.938097 0.625709
-0.019442 1.938487 0.714484
-0.096821 1.951993 -0.049765
-0.017082 1.950671 0.592521
-0.015495 1.952915 0.424535
-0.014118 1.962095 0.301558
-0.221582 1.932133 -0.071214
-0.010966 1.954538 -0.002428
-0.090514 1.953744 0.160311
-0.219253 1.950922 0.091853
-0.218469 1.946828 0.162856
-0.089391 1.961818 0.112334
-0.217547 1.974269 -0.147090
-0.214405 1.943257 -0.123118
-0.079804 1.955065 -0.016579
-0.074100 1.962174 0.635514
-0.071033 1.960611 0.343535
0.013603 1.963875 -0.120159
-0.069182 1.955540 0.400549
-0.069117 1.942121 0.692539
0.015554 1.963454 0.182871
-0.194638 1.947241 -0.012898
0.016785 1.957942 -0.151133
0.017586 1.954854 -0.086126
0.019965 1.967647 0.068920
-0.061264 1.953340 -0.118387
-0.058205 1.955380 -0.131352
-0.188089 1.955689 0.399201
-0.186763 1.944798 0.330191
-0.184746 1.937378 0.627208
0.024890 1.944736 0.716966
-0.050442 1.958316 -0.050262
0.029895 1.954193 0.425021
0.031270 1.959955 0.593048
0.033321 1.960397 0.300061
-0.176312 1.953452 -0.069695
0.035412 1.960857 -0.003926
-0.046162 1.960036 0.160793
-0.172810 1.946236 0.093334
-0.042957 1.960131 0.110825
-0.172087 1.951136 0.164353
-0.169015 1.957611 -0.142612
-0.166023 1.951601 -0.121591
-0.034392 1.955378 -0.017094
-0.027635 1.955450 0.631999
-0.024611 1.959905 0.342028
0.060054 1.961202 -0.122666
-0.023751 1.951823 0.400028
-0.023742 1.944378 0.694027
0.061953 1.965755 0.182369
0.063188 1.962273 -0.154632
-0.148218 1.946560 -0.011408
0.064954 1.964185 -0.088609
-0.014884 1.959666 -0.118883
0.067396 1.967967 0.066426
-0.011811 1.959707 -0.131851
-0.141677 1.954979 0.399691
-0.140404 1.951088 0.333695
-0.141688 1.952538 0.688696
0.070262 1.946988 0.718455
-0.138380 1.941646 0.630709
0.075303 1.953469 0.424507
-0.004046 1.962638 -0.051761
0.078670 1.962233 0.591558
0.082788 1.968179 -0.005411
-0.128885 1.952780 -0.067193
0.081738 1.962703 0.298581
0.001244 1.962346 0.161302
-0.126395 1.945545 0.095826
0.003453 1.961439 0.110323
-0.125684 1.952441 0.165848
-0.122575 1.953937 -0.140126
-0.119600 1.949924 -0.118101
0.013004 1.959700 -0.016582
0.018669 1.967714 0.634511
0.021636 1.953098 0.401516
0.020664 1.941628 0.694500
0.022834 1.957202 0.340532
0.108444 1.968541 -0.125140
0.108382 1.966053 0.181872
0.110611 1.966605 -0.157114
-0.101795 1.947874 -0.008905
0.113402 1.966519 -0.091083
0.114843 1.968280 0.064939
0.032567 1.959994 -0.119370
-0.096198 1.947261 0.399166
0.035666 1.957036 -0.132341
-0.096258 1.950798 0.688182
0.114656 1.948232 0.718938
-0.092978 1.952382 0.336207
0.120742 1.951741 0.423997
-0.090934 1.939919 0.632217
0.042445 1.956954 -0.052267
-0.082400 1.946095 -0.063705
0.129179 1.963998 0.297095
0.128117 1.963516 0.591093
0.131246 1.969503 -0.006888
0.047646 1.967644 0.161809
0.050847 1.969749 0.109844
-0.079027 1.956854 0.099355
-0.079322 1.963742 0.167366
-0.075107 1.952266 -0.137620
-0.073139 1.948243 -0.115605
0.060437 1.964019 -0.017065
0.065186 1.958983 0.631000
0.066071 1.943877 0.696993
0.068061 1.955376 0.403019
0.070259 1.961492 0.341048
0.155919 1.968865 -0.127630
0.155808 1.968353 0.181378
-0.056402 1.953181 -0.007415
0.158054 1.968933 -0.159608
0.159858 1.965835 -0.093590
0.078967 1.966313 -0.119869
0.161307 1.965584 0.063431
-0.051818 1.951532 0.400644
-0.051930 1.960046 0.691667
0.160032 1.951477 0.721425
0.082069 1.963357 -0.133840
-0.047588 1.955660 0.339694
-0.045493 1.936179 0.633694
0.168107 1.960020 0.425510
0.089847 1.964276 -0.053753
-0.037041 1.956404 -0.062206
0.174562 1.960779 0.590584
0.177715 1.966812 -0.009396
0.094109 1.963939 0.162299
0.177594 1.968295 0.296614
-0.033908 1.965034 0.168849
-0.033585 1.954150 0.101832
0.099329 1.967064 0.108356
-0.029686 1.953577 -0.135135
-0.026712 1.950562 -0.114108
0.107833 1.971334 -0.017552
0.112599 1.961249 0.631508
0.110523 1.938122 0.696462
0.114468 1.957650 0.404517
0.117660 1.966781 0.340559
0.203421 1.963186 -0.129129
0.203264 1.966650 0.180882
-0.009971 1.954490 -0.005919
0.206524 1.969266 -0.163092
0.208339 1.964161 -0.096075
-0.007507 1.957295 0.692135
-0.006435 1.955804 0.403134
0.126415 1.967636 -0.121362
0.209751 1.967898 0.060948
0.205445 1.950721 0.721910
0.128529 1.961673 -0.134346
-0.001103 1.947944 0.341177
0.213551 1.956284 0.425991
0.001854 1.945438 0.640214
0.138271 1.969600 -0.055231
0.010378 1.959718 -0.058696
0.140532 1.965231 0.162795
0.226155 1.969129 -0.010878
0.011498 1.967323 0.170336
0.224037 1.958057 0.589110
0.227059 1.967595 0.295140
0.013833 1.957454 0.104343
0.016729 1.956891 -0.132635
0.146782 1.966367 0.107862
0.019681 1.956874 -0.111603
0.155276 1.971644 -0.017046
0.157876 1.945371 0.701978
0.160025 1.961511 0.632015
0.160873 1.959921 0.406015
0.164095 1.966059 0.340054
0.250693 1.967943 0.180389
0.251868 1.965511 -0.131611
0.037430 1.960801 -0.004403
0.035908 1.954535 0.692594
0.038019 1.950069 0.403601
0.256990 1.971606 -0.165553
0.256785 1.966484 -0.098557
0.250889 1.945961 0.722392
0.174883 1.966960 -0.121845
0.259213 1.968214 0.059476
0.176945 1.967999 -0.135822
0.046297 1.952225 0.344691
0.261908 1.965561 0.427514
0.048250 1.947691 0.643715
0.184725 1.967905 -0.055737
0.056826 1.958023 -0.056202
0.188943 1.969529 0.164317
0.057901 1.970611 0.172836
0.275551 1.977449 -0.012346
0.271508 1.953319 0.587613
0.060261 1.957747 0.106840
0.276476 1.971890 0.294670
0.192238 1.962654 0.107344
0.064175 1.957208 -0.130127
0.066142 1.954184 -0.110109
0.202713 1.972951 -0.017538
0.203295 1.943610 0.703464
0.206447 1.960763 0.632512
0.207315 1.957187 0.407510
0.211543 1.964338 0.340560
0.300119 1.971244 0.179918
0.083861 1.961100 -0.001906
0.081295 1.956779 0.695084
0.302290 1.972847 -0.135068
0.083385 1.956332 0.406096
0.296302 1.944195 0.723877
0.305470 1.969931 -0.169037
0.222297 1.971273 -0.122334
0.307222 1.971817 -0.102015
0.225381 1.971322 -0.137301
0.308701 1.965526 0.057002
0.309348 1.963829 0.428019
0.093693 1.956502 0.348205
0.094728 1.939944 0.645204
0.233175 1.969221 -0.057217
0.104237 1.962331 -0.053687
0.235409 1.964812 0.164810
0.104343 1.968898 0.174331
0.324060 1.970757 -0.013834
0.107640 1.965040 0.110359
0.240646 1.967955 0.106867
0.325939 1.970180 0.294196
0.322953 1.954597 0.588164
0.110608 1.957513 -0.127627
0.113516 1.963494 -0.107587
0.251173 1.972261 -0.018020
0.248700 1.942844 0.705951
0.254694 1.962454 0.410023
0.252925 1.954015 0.631004
0.258992 1.962615 0.340067
0.125759 1.949018 0.694552
0.130278 1.963396 -0.000404
0.348575 1.969534 0.179433
0.350753 1.972165 -0.137552
0.342692 1.945430 0.726374
0.129814 1.955600 0.407595
0.354904 1.974260 -0.172508
0.355667 1.973132 -0.104498
0.270771 1.969591 -0.123816
0.358156 1.965833 0.055529
0.274856 1.970647 -0.138772
0.357750 1.966096 0.430537
0.141099 1.958773 0.352719
0.143086 1.947192 0.652735
0.281609 1.971531 -0.057696
0.149825 1.961175 0.174810
0.283808 1.970104 0.165333
0.151652 1.965633 -0.051173
0.372515 1.970062 -0.015318
0.155078 1.964328 0.113868
0.290084 1.970259 0.106399
0.375398 1.968466 0.293722
0.158018 1.961821 -0.125111
0.374304 1.964867 0.591718
0.159997 1.957796 -0.106094
0.299642 1.969564 -0.017504
0.296049 1.949081 0.711466
0.303102 1.964723 0.412544
0.300357 1.952263 0.632512
0.171057 1.960247 0.701055
0.308381 1.968896 0.341601
0.177685 1.967695 0.001112
0.390073 1.947665 0.729882
0.175232 1.954857 0.409084
0.397010 1.969821 0.178949
0.401190 1.976493 -0.141014
0.404373 1.973582 -0.174982
0.319230 1.968903 -0.124298
0.406143 1.972455 -0.106962
0.406182 1.965362 0.431053
0.408580 1.970143 0.054068
0.325255 1.979976 -0.141226
0.187547 1.955036 0.355215
0.190505 1.946435 0.657247
0.330077 1.969839 -0.059179
0.198110 1.961925 -0.048676
0.198260 1.962466 0.176333
0.332275 1.966389 0.166850
0.424933 1.977391 -0.017757
0.202500 1.965615 0.116381
0.337534 1.968546 0.105906
0.205456 1.962124 -0.122600
0.425845 1.968754 0.293259
0.423769 1.961127 0.591243
0.206426 1.958091 -0.103593
0.346120 1.963853 -0.018010
0.343460 1.948316 0.714975
0.351502 1.966985 0.416064
0.347798 1.949509 0.633020
0.217441 1.962482 0.704558
0.356827 1.967169 0.342119
0.221610 1.959112 0.412590
0.224141 1.963981 0.003608
0.444476 1.965098 0.178452
0.450681 1.972809 -0.143489
0.453859 1.970902 -0.178457
0.368671 1.971219 -0.125767
0.457582 1.976783 -0.110414
0.453637 1.960618 0.431556
0.459034 1.970448 0.052605
0.373760 1.973284 -0.141712
0.236940 1.960310 0.359755
0.236960 1.940672 0.659744
0.380489 1.976156 -0.060635
0.245662 1.965744 0.178849
0.246528 1.965225 -0.046150
0.382661 1.973683 0.168394
0.474387 1.976694 -0.019233
0.249940 1.963894 0.119891
0.253855 1.968431 -0.121070
0.388964 1.972854 0.105459
0.476322 1.965038 0.292794
0.256794 1.970409 -0.102036
0.474222 1.958384 0.592779
0.397501 1.974170 -0.018453
0.389876 1.945541 0.718472
0.399918 1.967245 0.418583
0.262878 1.957711 0.706044
0.401111 1.964777 0.638601
0.268995 1.963371 0.415106
0.406253 1.968444 0.342649
0.272567 1.966277 0.005134
0.496887 1.970399 0.179010
0.502152 1.973136 -0.146944
0.505322 1.972231 -0.181911
0.419099 1.975537 -0.127225
0.500126 1.950862 0.432047
0.509065 1.975105 -0.112869
0.422205 1.973591 -0.143194
0.509510 1.967749 0.051139
0.284335 1.962567 0.364269
0.284399 1.936905 0.664254
0.429971 1.972459 -0.061109
0.292113 1.962013 0.180346
0.294942 1.968521 -0.043624
0.430132 1.967956 0.168898
0.524853 1.974999 -0.020699
0.298366 1.965177 0.122415
0.302303 1.967731 -0.118548
0.438449 1.968144 0.104985
0.304244 1.968704 -0.100526
0.526804 1.960317 0.292328
0.446985 1.969467 -0.017928
0.308272 1.956932 0.709534
0.447369 1.962496 0.420087
0.316344 1.970623 0.419624
0.449565 1.960017 0.640116
0.455718 1.964713 0.343175
0.320039 1.961562 0.006642
0.546370 1.964680 0.178532
0.552652 1.968450 -0.149411
0.469556 1.975851 -0.128687
0.555869 1.962547 -0.184379
0.558573 1.968410 -0.115347
0.472645 1.975906 -0.144655
0.560980 1.966052 0.049683
0.333751 1.963830 0.368804
0.333732 1.945136 0.673797
0.340470 1.970287 0.183876
0.479444 1.969761 -0.062583
0.343376 1.968812 -0.041101
0.480560 1.969241 0.170437
0.347762 1.969458 0.126952
0.575364 1.968302 -0.023167
0.349751 1.966023 -0.117038
0.487904 1.966432 0.104511
0.352675 1.970001 -0.099002
0.576302 1.952585 0.291850
0.353663 1.956150 0.713024
0.497415 1.971768 -0.018389
0.496803 1.960752 0.422614
0.363741 1.971871 0.423136
0.504161 1.961974 0.343690
0.368457 1.963850 0.008166
0.598776 1.968973 0.179086
0.605110 1.969776 -0.152858
0.519022 1.973153 -0.129162
0.610303 1.968890 -0.188804
0.611049 1.967732 -0.118795
0.523124 1.973217 -0.146119
0.383133 1.968088 0.374341
0.616402 1.972376 0.048267
0.387914 1.967554 0.185385
0.383121 1.947368 0.680334
0.531865 1.975078 -0.064023
0.530004 1.967518 0.170962
0.392806 1.970105 -0.038567
0.397192 1.969735 0.130485
0.628798 1.971618 -0.024605
0.400157 1.971327 -0.114490
0.538326 1.968721 0.104049
0.403114 1.971303 -0.096457
0.400038 1.957368 0.717526
0.548865 1.972072 -0.018842
0.410184 1.967114 0.424633
0.417857 1.968137 0.010702
0.554607 1.960241 0.344226
0.658599 1.968103 -0.156297
0.569497 1.970458 -0.130627
0.661804 1.964207 -0.192265
0.664503 1.969054 -0.121234
0.573598 1.970523 -0.147585
0.431565 1.965336 0.378860
0.435345 1.966816 0.186899
0.666949 1.961665 0.045800
0.431548 1.944587 0.686858
0.582354 1.971377 -0.065486
0.579468 1.963786 0.172488
0.442237 1.971389 -0.035032
0.446636 1.969006 0.134018
0.680299 1.966916 -0.027065
0.449608 1.971620 -0.112957
0.588799 1.966004 0.103584
0.452565 1.971594 -0.094925
0.599344 1.969361 -0.019309
0.457645 1.962353 0.427139
0.466318 1.966413 0.012220
0.710100 1.964405 -0.158763
0.619041 1.960744 -0.131111
0.716289 1.965531 -0.195701
0.718035 1.964366 -0.124681
0.481025 1.962582 0.383384
0.623172 1.957809 -0.148070
0.484792 1.966081 0.189420
0.491680 1.971669 -0.032511
0.630890 1.960651 -0.065986
0.629963 1.958055 0.173011
0.496079 1.968271 0.137539
0.500044 1.973910 -0.110424
0.638306 1.958270 0.104095
0.733812 1.962216 -0.028517
0.502031 1.969879 -0.093405
0.651816 1.968656 -0.019766
0.504114 1.955585 0.428624
0.516780 1.965694 0.013751
0.768578 1.968749 -0.163167
0.674471 1.968069 -0.133536
0.771770 1.966860 -0.200135
0.528499 1.954811 0.387879
0.773501 1.966688 -0.128116
0.678603 1.965134 -0.150494
0.534283 1.960342 0.190937
0.687301 1.969974 -0.067401
0.542154 1.968948 -0.029982
0.544536 1.964525 0.141046
0.549514 1.971191 -0.108906
0.551455 1.972159 -0.091884
0.705284 1.967950 -0.019215
0.566237 1.963965 0.015269
0.730915 1.973391 -0.134954
0.581730 1.956586 0.193433
0.733092 1.964447 -0.152934
0.592604 1.968223 -0.027454
0.739795 1.966266 -0.068862
0.595004 1.960785 0.144573
0.598022 1.962457 -0.106402
0.599962 1.963424 -0.089381
0.614740 1.955222 0.017773
0.634108 1.963853 0.196985
0.645027 1.971505 -0.024904
0.650361 1.972065 0.150157
0.651451 1.966752 -0.104842
0.653400 1.966717 -0.087821
0.670114 1.966519 0.019356
0.695516 1.964765 -0.021382
0.702916 1.964026 -0.102308
0.706886 1.964004 -0.086267
0.757365 1.965316 -0.100744
-0.455158 1.929726 0.405368
-0.409712 1.924971 0.387782
-0.444557 2.118535 0.439851
-0.389982 2.081846 0.416112
-0.363495 1.946991 0.405402
-0.343910 1.926688 0.150434
-0.344063 1.956571 0.168648
-0.316002 1.925235 0.388718
-0.316125 1.946137 0.403866
-0.309810 1.929779 -0.003214
-0.304743 1.985780 0.154244
-0.292601 1.931926 -0.018028
-0.328464 2.181525 0.183396
-0.271709 1.942346 0.391281
-0.269777 1.950274 0.403357
-0.269601 1.981909 -0.004446
-0.252253 1.941939 0.153457
-0.249318 1.946857 0.167521
-0.246259 1.935056 -0.016543
-0.232679 1.935659 -0.103408
-0.231699 1.935629 -0.098398
-0.224355 1.943472 0.392761
-0.223421 1.951410 0.402826
-0.217118 1.937051 -0.002236
-0.205908 1.946072 0.153948
-0.202974 1.950990 0.168012
-0.199928 1.945192 -0.016009
-0.196659 2.064821 -0.111159
-0.189490 1.990772 -0.100597
-0.178002 1.944602 0.393232
-0.178086 1.958542 0.402327
-0.170776 1.945192 -0.002717
-0.158539 1.941202 0.155388
-0.154594 1.948318 -0.014535
-0.155597 1.947132 0.167459
-0.139994 1.943926 -0.101424
-0.138031 1.955905 -0.097323
-0.132680 1.950714 0.395726
-0.133273 1.943807 0.688692
-0.130700 1.953687 0.400766
-0.130239 1.937809 0.689682
-0.125449 1.953324 -0.002209
-0.112206 1.948328 0.156900
-0.108247 1.949446 -0.013064
-0.108244 1.953274 0.166973
-0.094667 1.952059 -0.100916
-0.090661 1.953045 -0.096869
-0.086335 1.952837 0.397203
-0.086915 1.945937 0.688169
-0.085341 1.951820 0.400206
-0.084871 1.933937 0.689110
-0.078084 1.952462 -0.001742
-0.065864 1.951453 0.158383
-0.060883 1.947577 -0.011603
-0.061888 1.953406 0.167437
-0.047307 1.951191 -0.099449
-0.044294 1.947174 -0.095445
-0.039984 1.952958 0.398666
-0.041587 1.952052 0.689662
-0.038987 1.952948 0.400676
-0.039538 1.937044 0.691584
-0.031720 1.949596 -0.001298
-0.020533 1.955575 0.159863
-0.017566 1.959531 0.167919
-0.015556 1.954708 -0.011104
-0.001968 1.952317 -0.097989
0.001042 1.951306 -0.094966
0.005357 1.954076 0.400126
0.003768 1.952179 0.689115
0.005375 1.950083 0.399100
0.005785 1.941145 0.695064
0.013613 1.954727 -0.000812
0.025811 1.957700 0.161338
0.027784 1.958660 0.168364
0.030794 1.954836 -0.009641
0.044384 1.953452 -0.097520
0.047374 1.958441 -0.094458
0.048086 1.956283 0.691583
0.051716 1.953204 0.400581
0.051726 1.950204 0.400562
0.052139 1.941261 0.696527
0.059951 1.959860 -0.000318
0.072153 1.959824 0.162813
0.075126 1.964793 0.168874
0.078130 1.960965 -0.008131
0.091732 1.957590 -0.097023
0.094739 1.957579 -0.093993
0.093447 1.954410 0.691021
0.097041 1.958322 0.402064
0.098048 1.955311 0.404055
0.098471 1.944364 0.700008
0.107309 1.960996 0.000159
0.119494 1.963951 0.164308
0.122469 1.969926 0.169376
0.124472 1.964098 -0.007652
0.138070 1.961724 -0.096537
0.142077 1.963716 -0.093485
0.138818 1.949536 0.690440
0.143411 1.955455 0.401506
0.144412 1.951431 0.405491
0.144808 1.945466 0.703475
0.153653 1.963129 0.000631
0.165850 1.960068 0.166743
0.168862 1.960063 0.168772
0.172836 1.963230 -0.006179
0.186425 1.964864 -0.096040
0.189420 1.967852 -0.092992
0.184186 1.945662 0.689865
0.190759 1.957577 0.402987
0.191762 1.951547 0.407960
0.190173 1.939579 0.704888
0.201998 1.968258 0.001148
0.213189 1.962186 0.168225
0.217199 1.964185 0.170276
0.220164 1.967351 -0.004687
0.232761 1.962983 -0.094600
0.235780 1.960979 -0.092583
0.231514 1.948771 0.692345
0.237079 1.960693 0.404454
0.239096 1.951660 0.410418
0.236512 1.936680 0.708319
0.249350 1.964396 0.001570
0.260510 1.965316 0.169690
0.263548 1.961325 0.169694
0.266516 1.961486 -0.004287
0.281084 1.969131 -0.095109
0.283098 1.965117 -0.092114
0.278806 1.956878 0.696839
0.284419 1.960829 0.404899
0.286379 1.960768 0.414918
0.282844 1.934790 0.711744
0.296681 1.966541 0.001026
0.308850 1.963443 0.172131
0.309875 1.960453 0.171122
0.315833 1.967623 -0.002789
0.329437 1.964266 -0.093687
0.324145 1.953000 0.698239
0.332427 1.970268 -0.092623
0.331752 1.960958 0.406341
0.333715 1.958891 0.417348
0.331130 1.942887 0.718245
0.344034 1.961679 0.001438
0.357162 1.967570 0.174604
0.357196 1.963590 0.171581
0.364161 1.968758 -0.001333
0.370500 1.948131 0.698640
0.377760 1.967409 -0.093221
0.381773 1.969414 -0.092172
0.379062 1.964081 0.408798
0.383034 1.961006 0.421817
0.377466 1.938999 0.721652
0.394349 1.969827 0.001952
0.406486 1.969701 0.177072
0.406521 1.966727 0.173054
0.413483 1.972903 -0.000855
0.416829 1.946250 0.701057
0.427090 1.969555 -0.092754
0.427400 1.963214 0.410238
0.431116 1.968560 -0.091723
0.432349 1.964129 0.425289
0.442690 1.967970 0.002384
0.454823 1.967836 0.178504
0.454878 1.961869 0.173469
0.462829 1.970043 0.000580
0.477423 1.972711 -0.093276
0.475730 1.963348 0.411680
0.481449 1.971716 -0.092245
0.479685 1.959246 0.428693
0.491028 1.966113 0.002814
0.503175 1.960965 0.180904
0.504220 1.961014 0.173913
0.510177 1.963176 0.001971
0.527755 1.973861 -0.092814
0.523083 1.956479 0.413070
0.530780 1.971863 -0.091798
0.528031 1.954374 0.431104
0.541367 1.967269 0.002276
0.553495 1.963100 0.183371
0.554560 1.961163 0.174369
0.561496 1.968329 0.002463
0.577102 1.970008 -0.092392
0.579135 1.966015 -0.092397
0.592702 1.968422 0.002743
0.602893 1.958300 0.175786
0.602839 1.958233 0.185785
0.612834 1.967476 0.003917
0.626466 1.962157 -0.091996
0.628489 1.960163 -0.091989
0.641070 1.958567 0.003118
0.659199 1.954608 0.005257
0.679794 1.965318 -0.091507
0.681829 1.962330 -0.092506
0.694394 1.962727 0.003611
0.715513 1.963778 0.005802
0.732138 1.964483 -0.092054
0.736168 1.963495 -0.092024
