# .PCD v0.7 - Point Cloud Data file format
VERSION 0.7
FIELDS x y z
SIZE 4 4 4
TYPE F F F
COUNT 1 1 1
WIDTH 194
HEIGHT 1
VIEWPOINT 0 0 0 1
POINTS 194
DATA ascii
-0.368783 -2.030758 -0.072622
-0.375561 -2.033893 -0.083696
-0.376832 -2.032842 -0.062713
-0.379926 -2.030864 -0.055756
-0.384000 -2.033888 -0.044795
-0.384428 -2.029059 -0.094819
-0.386981 -2.029945 -0.048843
-0.388515 -2.033076 -0.081855
-0.392163 -2.025241 -0.115925
-0.393910 -2.028059 -0.052933
-0.416892 -2.036078 0.044823
-0.415592 -2.025432 -0.070201
-0.422439 -2.035269 0.010752
-0.422359 -2.027572 -0.083276
-0.425070 -2.034402 -0.018284
-0.423653 -2.026517 -0.060293
-0.426683 -2.027544 -0.055326
-0.429776 -2.027561 -0.046362
-0.431165 -2.025741 -0.096387
-0.433737 -2.024632 -0.050417
-0.435314 -2.023763 -0.084441
-0.438559 -2.025226 0.098539
-0.442024 -2.033127 0.145524
-0.440667 -2.021749 -0.055507
-0.438953 -2.016924 -0.118506
-0.457938 -2.032614 0.066330
-0.459105 -2.035578 0.083326
-0.459229 -2.033555 0.091319
-0.463663 -2.032759 0.047262
-0.463320 -2.025118 -0.068764
-0.469227 -2.029950 0.012187
-0.469084 -2.026248 -0.083829
-0.469492 -2.019173 -0.057851
-0.471849 -2.028085 -0.018851
-0.472522 -2.019205 -0.053886
-0.478471 -2.026272 -0.047935
-0.478885 -2.023433 -0.097951
-0.482383 -2.028338 -0.050974
-0.487355 -2.026413 0.270985
-0.483927 -2.027475 -0.087997
-0.486229 -2.023939 0.095979
-0.488782 -2.025829 0.143958
-0.491175 -2.032739 0.183953
-0.494646 -2.034662 0.225921
-0.489314 -2.023460 -0.058068
-0.489484 -2.026660 -0.122066
-0.505788 -2.037763 0.246803
-0.505885 -2.029266 0.083767
-0.506633 -2.033325 0.067769
-0.505026 -2.024235 0.089764
-0.510483 -2.025437 0.049702
-0.509186 -2.015772 -0.066317
-0.516972 -2.027641 0.013632
-0.517798 -2.025947 -0.083388
-0.518165 -2.023868 -0.055396
-0.521476 -2.032806 -0.019408
-0.523084 -2.028935 -0.054438
-0.525218 -2.021951 -0.049481
-0.527553 -2.025135 -0.099502
-0.530125 -2.024031 -0.052531
-0.531649 -2.023170 -0.091553
-0.534872 -2.024662 0.093427
-0.536450 -2.026535 0.143418
-0.537882 -2.030436 0.183414
-0.538549 -2.017323 0.225375
-0.537032 -2.020154 -0.060619
-0.536278 -2.017338 -0.125622
-0.551688 -2.022447 0.249243
-0.553586 -2.027966 0.083225
-0.554374 -2.031018 0.069223
-0.553683 -2.024953 0.088217
-0.558237 -2.023126 0.052159
-0.558832 -2.021479 -0.064859
-0.564695 -2.026331 0.014093
-0.565522 -2.024630 -0.083927
-0.565933 -2.020548 -0.053940
-0.569240 -2.027496 -0.019957
-0.570829 -2.026618 -0.053979
-0.572949 -2.017643 -0.052024
-0.576284 -2.021833 -0.101054
-0.576923 -2.016703 -0.053070
-0.584662 -2.023128 0.183875
-0.580368 -2.019871 -0.094103
-0.583223 -2.018229 0.141876
-0.582620 -2.017368 0.090878
-0.588148 -2.025051 0.227844
-0.586692 -2.020871 -0.063168
-0.584055 -2.010022 -0.128170
-0.601338 -2.022663 0.082685
-0.603110 -2.028722 0.070680
-0.602368 -2.023667 0.086677
-0.606999 -2.020823 0.055617
-0.605621 -2.017142 -0.063384
-0.612469 -2.022015 0.015558
-0.612756 -2.014210 -0.051467
-0.612374 -2.014295 -0.083465
-0.614132 -2.014139 -0.019480
-0.617665 -2.018282 -0.052511
-0.622634 -2.017356 -0.053566
-0.622121 -2.011486 -0.102577
-0.625663 -2.012402 -0.054610
-0.630451 -2.014804 0.183358
-0.629996 -2.009919 0.140349
-0.628155 -2.010558 -0.097644
-0.633269 -2.017111 0.088327
-0.634464 -2.013558 -0.065703
-0.631797 -2.004704 -0.131698
-0.647210 -2.008331 0.082158
-0.650914 -2.020413 0.071145
-0.649186 -2.012351 0.085146
-0.654780 -2.016505 0.058095
-0.652470 -2.007802 -0.061907
-0.661156 -2.024708 0.017043
-0.659202 -2.005955 -0.082983
-0.665699 -2.023874 -0.020009
-0.661533 -2.010895 -0.048995
-0.664502 -2.008946 -0.052031
-0.670430 -2.009038 -0.055093
-0.668039 -1.995135 -0.103100
-0.673446 -2.006081 -0.055131
-0.679174 -2.010519 0.182832
-0.682548 -2.018683 0.139811
-0.674026 -1.996211 -0.100161
-0.681993 -2.011822 0.085800
-0.681302 -2.001227 -0.068224
-0.682467 -2.004423 -0.135233
-0.701561 -2.025136 0.072623
-0.698836 -2.013072 0.082627
-0.700800 -2.016097 0.083613
-0.704505 -2.017208 0.061575
-0.702186 -2.008499 -0.060425
-0.708969 -2.016389 0.017525
-0.707400 -2.001537 -0.046492
-0.709868 -2.008668 -0.083505
-0.710673 -2.002514 -0.020523
-0.711351 -1.998606 -0.051539
-0.717267 -1.997702 -0.056602
-0.720591 -2.004876 -0.105624
-0.719290 -1.994731 -0.056628
-0.734640 -2.028314 0.185294
-0.730333 -2.009379 0.138298
-0.727584 -2.002971 -0.104699
-0.730766 -2.002529 0.083277
-0.727158 -1.987878 -0.070722
-0.731211 -1.999110 -0.138745
-0.748433 -2.012803 0.074117
-0.753381 -2.023849 0.083088
-0.754408 -2.020864 0.083072
-0.750383 -2.005858 0.064084
-0.750946 -2.006180 -0.058928
-0.755813 -2.007049 0.019029
-0.759105 -2.002259 -0.045016
-0.755774 -1.993311 -0.084001
-0.761359 -2.003229 -0.021036
-0.764954 -2.005358 -0.052070
-0.769877 -2.002445 -0.059125
-0.769354 -1.998555 -0.108138
-0.772878 -2.001479 -0.058166
-0.778127 -1.999065 0.136787
-0.779249 -2.002692 -0.108230
-0.781457 -1.999253 0.080751
-0.783628 -2.001669 -0.074274
-0.782892 -1.997827 -0.142277
-0.798213 -2.006503 0.075596
-0.798305 -2.005487 0.082594
-0.801263 -2.005534 0.080564
-0.800187 -1.999551 0.067564
-0.801693 -2.003879 -0.057450
-0.807487 -2.008771 0.019505
-0.806935 -1.994916 -0.042517
-0.812285 -2.007092 -0.084551
-0.813027 -2.004949 -0.021559
-0.815678 -2.004059 -0.051588
-0.822533 -2.003179 -0.061657
-0.820099 -1.994261 -0.109651
-0.823617 -1.998187 -0.058676
-0.823969 -1.984730 0.134308
-0.829973 -1.997404 -0.112742
-0.831205 -1.991966 0.078246
-0.835341 -1.997395 -0.077793
-0.849909 -2.007231 0.077088
-0.851004 -2.004232 0.083073
-0.850901 -2.000262 0.070067
-0.852946 -2.004269 0.079054
-0.855351 -2.008620 -0.055969
-0.857282 -2.002466 0.021006
-0.863473 -2.008697 -0.041047
-0.864748 -2.002671 -0.022067
-0.888282 -2.012635 0.135729
-0.880988 -1.981676 0.075751
-0.907488 -2.017033 0.079550
-0.909510 -2.018052 0.083532
-0.909452 -2.014073 0.074527
-0.913419 -2.019118 0.078496
