# .PCD v0.7 - Point Cloud Data file format
VERSION 0.7
FIELDS x y z
SIZE 4 4 4
TYPE F F F
COUNT 1 1 1
WIDTH 1129
HEIGHT 1
VIEWPOINT 0 0 0 1
POINTS 1129
DATA ascii
4.208913 -1.164459 2.015074
4.167860 -1.191040 2.040148
4.264453 -1.227334 1.324631
4.143225 -1.231707 1.249097
4.025454 -1.213138 1.945639
4.261085 -1.219449 1.399620
4.186216 -1.200523 1.377984
4.005372 -1.242973 1.972617
4.069087 -1.272870 1.271250
4.068276 -1.214008 2.091419
3.991372 -1.199054 2.066778
3.948942 -1.273286 1.204726
4.094676 -1.269345 1.351110
3.860050 -1.261062 1.885133
4.016857 -1.249409 1.337491
3.825984 -1.283702 1.897189
3.902752 -1.319784 1.227746
3.911814 -1.263021 2.021872
3.834971 -1.245093 2.005243
3.789648 -1.320307 1.169193
3.907370 -1.308994 1.295716
3.859552 -1.294454 1.298959
3.685743 -1.298884 1.819693
3.675635 -1.326817 1.836634
3.729466 -1.296710 1.938481
3.749465 -1.363870 1.187196
3.676656 -1.283118 1.942741
3.630450 -1.358346 1.133689
3.751087 -1.350041 1.250190
3.704314 -1.334538 1.261434
3.540460 -1.340088 1.768124
3.508382 -1.358724 1.767184
3.591116 -1.339975 1.877877
3.587278 -1.398864 1.144712
3.544356 -1.325487 1.893118
3.493247 -1.400669 1.105079
3.548149 -1.368626 1.223933
3.603835 -1.390209 1.206629
3.397244 -1.375327 1.716565
3.392098 -1.403294 1.723481
3.441859 -1.373111 1.812350
3.409125 -1.360826 1.841528
3.439112 -1.435044 1.107165
3.347146 -1.432896 1.073539
3.406014 -1.401898 1.190376
3.465638 -1.427506 1.168039
3.269051 -1.411767 1.671940
3.263891 -1.438718 1.672857
3.285930 -1.395327 1.795891
3.329588 -1.414729 1.765641
3.313955 -1.472518 1.076518
3.282889 -1.436415 1.162736
3.332490 -1.460875 1.130442
3.213069 -1.464282 1.044952
3.096089 -1.418702 2.291614
3.139925 -1.442206 1.627338
3.067970 -1.434352 2.271666
3.164772 -1.427863 1.751251
3.131759 -1.467105 1.621274
3.200405 -1.446142 1.711037
3.199401 -1.489255 1.092861
2.988914 -1.452424 2.240911
3.021822 -1.472793 1.587690
3.044674 -1.454420 1.706629
2.952793 -1.463950 2.209010
3.031586 -1.505905 1.585519
3.082251 -1.476700 1.661389
2.869806 -1.476993 2.181291
2.912740 -1.503502 1.552003
2.958516 -1.494417 1.679814
2.855631 -1.497797 2.160264
2.973121 -1.507383 1.616702
2.767488 -1.532771 2.118474
4.213748 -1.165853 1.882191
4.218990 -1.185459 1.745086
2.776764 -1.608657 0.505095
4.155763 -1.201352 1.926293
4.168128 -1.224143 1.823144
4.007228 -1.184323 2.410003
2.716871 -1.605399 0.931354
3.968041 -1.174408 2.565213
3.979314 -1.178762 2.635149
2.772531 -1.595905 0.599121
4.018318 -1.214467 1.812820
3.969404 -1.214161 2.482042
2.652082 -1.603706 0.934619
4.007582 -1.232886 1.674787
3.967340 -1.248043 1.853898
3.969737 -1.268723 1.751798
2.642784 -1.645550 0.916477
3.839810 -1.234045 2.562512
3.805560 -1.224408 2.483697
3.834748 -1.235202 2.328525
2.657260 -1.626818 0.949455
3.842942 -1.261338 1.750369
3.805942 -1.263150 2.401531
3.923781 -1.312173 1.152798
3.820230 -1.279622 1.613385
3.808956 -1.297117 1.794362
2.501508 -1.624654 1.391137
3.790404 -1.312554 1.689372
3.675379 -1.276009 2.473033
3.652146 -1.271537 2.408150
3.664348 -1.280122 2.249058
3.689616 -1.309501 1.699815
3.643553 -1.306164 2.322037
3.771502 -1.361358 1.118230
3.647941 -1.323558 1.557928
2.473968 -1.631507 1.421175
3.644663 -1.336129 1.731891
3.532012 -1.318259 2.398461
3.629127 -1.354622 1.634874
3.494810 -1.309622 2.329656
3.508013 -1.323236 2.178537
3.530351 -1.348599 1.644335
3.490211 -1.345305 2.247536
3.572188 -1.381822 1.017006
3.586381 -1.389174 1.073914
3.494689 -1.365744 1.511420
3.496391 -1.375352 1.677377
3.388677 -1.354511 2.322947
3.486852 -1.397928 1.587324
3.360491 -1.351014 2.267084
3.354717 -1.360392 2.109069
3.382152 -1.384842 1.595838
3.357915 -1.385713 2.185952
3.419073 -1.418037 0.987528
3.456173 -1.434639 1.045297
3.474795 -1.442605 0.981181
3.346494 -1.403989 1.464914
3.363161 -1.414764 1.629799
3.264392 -1.393014 2.260335
3.345669 -1.434259 1.541793
3.230231 -1.388458 2.205503
3.225459 -1.401860 2.053466
3.247980 -1.421265 1.552276
3.228678 -1.422174 2.127368
3.281975 -1.454448 0.960977
3.307089 -1.465897 1.010819
3.325719 -1.475875 0.951694
3.224012 -1.445114 1.579282
3.220319 -1.446525 1.430289
3.145153 -1.428588 2.200710
3.206535 -1.466625 1.496266
3.102029 -1.420935 2.144931
3.085291 -1.432200 1.991955
3.119851 -1.454770 1.510697
3.099488 -1.453637 2.066802
3.104865 -1.479719 1.537657
3.077245 -1.475863 1.386792
3.024970 -1.460165 2.142103
2.984866 -1.453566 2.092307
3.084420 -1.501211 1.458652
2.966143 -1.466820 1.943330
2.999761 -1.487389 1.474084
2.988327 -1.489351 2.020136
2.917807 -1.492912 2.090432
2.872742 -1.484270 2.042667
2.866995 -1.507704 1.906587
2.868230 -1.514949 1.965551
2.807703 -1.519630 2.037797
2.758670 -1.509958 1.992055
2.708532 -1.603614 0.763827
2.726011 -1.615294 0.888699
2.683045 -1.598707 0.851963
2.722731 -1.627067 0.840658
2.518248 -1.619608 1.234595
2.535411 -1.633030 1.294458
2.476783 -1.622562 1.321764
0.624090 -2.185346 -0.095569
0.623977 -2.189249 -0.113590
0.618377 -2.194361 -0.092605
0.612490 -2.185324 -0.090528
0.581670 -2.202398 -0.028469
0.573406 -2.201972 -0.095431
0.572326 -2.201867 -0.113426
0.556185 -2.195492 0.023686
0.574253 -2.192580 0.007608
0.566735 -2.203971 -0.094425
0.562765 -2.205953 -0.092418
0.531006 -2.216034 -0.028316
0.557376 -2.195458 0.007668
0.522738 -2.215601 -0.096278
0.519071 -2.205933 0.151799
0.521638 -2.219500 -0.113296
0.505520 -2.209129 0.022839
0.525526 -2.213232 0.006712
0.518599 -2.202224 0.195810
0.479910 -2.186074 0.228091
0.515109 -2.211587 -0.096235
0.512094 -2.219580 -0.094266
0.480337 -2.231683 -0.027176
0.505734 -2.205077 0.004848
0.472066 -2.230236 -0.097133
0.466492 -2.210577 0.153011
0.460010 -2.180931 0.407216
0.469986 -2.232127 -0.114134
0.491946 -2.187062 0.201018
0.455809 -2.228783 0.021952
0.473895 -2.222867 0.005890
0.468935 -2.214885 0.194963
0.432159 -2.210764 0.228167
0.465401 -2.229222 -0.099111
0.460469 -2.228210 -0.095083
0.428692 -2.244326 -0.027016
0.455068 -2.217711 0.002004
0.421420 -2.241883 -0.096971
0.415228 -2.209678 0.411255
0.416786 -2.231255 0.154117
0.443240 -2.204731 0.199138
0.419294 -2.250776 -0.114013
0.404167 -2.240426 0.021118
0.418761 -2.197992 0.452294
0.423219 -2.238517 0.005028
0.418285 -2.227552 0.195119
0.382485 -2.225438 0.227307
0.413760 -2.239854 -0.100940
0.408798 -2.242838 -0.097935
0.377075 -2.252976 -0.026834
0.405359 -2.237372 0.001115
0.366527 -2.230396 0.414355
0.369745 -2.258526 -0.097836
0.367106 -2.247938 0.155244
0.393563 -2.218391 0.196283
0.367676 -2.259421 -0.113832
0.352548 -2.249077 0.020299
0.356416 -2.262501 0.617220
0.373960 -2.229749 0.456313
0.376409 -2.255505 0.584155
0.372559 -2.251168 0.003182
0.368608 -2.243234 0.195252
0.331827 -2.239112 0.226456
0.363049 -2.259496 -0.103826
0.359116 -2.257492 -0.099797
0.326377 -2.272642 -0.026722
0.353730 -2.246012 -0.001703
0.316860 -2.247113 0.417482
0.318097 -2.271175 -0.098678
0.317013 -2.273077 -0.114685
0.315478 -2.259614 0.156408
0.343850 -2.239073 0.195387
0.300902 -2.261735 0.019457
0.305753 -2.277205 0.617361
0.324311 -2.242457 0.457462
0.289814 -2.235827 0.744678
0.324759 -2.268190 0.582313
0.320920 -2.262825 0.002346
0.318940 -2.256915 0.194394
0.280220 -2.245779 0.224649
0.310421 -2.269129 -0.106647
0.307465 -2.270139 -0.101640
0.274767 -2.281312 -0.025542
0.304032 -2.262674 -0.004578
0.265262 -2.254810 0.418668
0.266457 -2.282831 -0.099516
0.264834 -2.272304 0.157560
0.264400 -2.282731 -0.114507
0.292211 -2.249734 0.192556
0.250248 -2.274407 0.018609
0.255076 -2.293917 0.617489
0.273686 -2.252158 0.457632
0.239249 -2.236539 0.743901
0.270245 -2.278496 0.001480
0.271159 -2.274856 0.578513
0.267329 -2.265596 0.194574
0.230538 -2.262478 0.224773
0.259749 -2.282783 -0.109502
0.255807 -2.283793 -0.103490
0.222148 -2.291977 -0.025371
0.252391 -2.273328 -0.007410
0.250571 -2.246936 0.785776
0.214612 -2.269529 0.420808
0.213206 -2.283994 0.158721
0.212862 -2.290480 -0.100323
0.241557 -2.261407 0.189714
0.211773 -2.294392 -0.114342
0.202476 -2.300610 0.615683
0.198589 -2.289080 0.017752
0.224044 -2.263880 0.458785
0.190546 -2.260324 0.750979
0.218593 -2.292167 0.000628
0.216660 -2.281291 0.194707
0.219492 -2.291567 0.578644
0.178881 -2.277166 0.223917
0.207149 -2.289436 -0.111308
0.203185 -2.293447 -0.105314
0.170512 -2.303656 -0.025211
0.200944 -2.257684 0.787935
0.200720 -2.288996 -0.009274
0.163989 -2.280253 0.422970
0.161222 -2.302150 -0.101163
0.161582 -2.295697 0.160881
0.189910 -2.274088 0.187869
0.159134 -2.307055 -0.115183
0.146950 -2.300759 0.016912
0.149848 -2.313329 0.616840
0.173411 -2.275601 0.459941
0.139922 -2.273083 0.755130
0.166004 -2.297837 -0.000172
0.165035 -2.291986 0.194873
0.166874 -2.300259 0.575826
0.127266 -2.285860 0.223095
0.154522 -2.299090 -0.114132
0.152283 -2.272451 0.791064
0.150580 -2.300101 -0.108120
0.117885 -2.315336 -0.025048
0.147132 -2.294650 -0.012069
0.113350 -2.292992 0.426125
0.108970 -2.305397 0.162063
0.108541 -2.319823 -0.102029
0.646635 -2.170969 -0.128797
0.106497 -2.318727 -0.116014
0.137286 -2.283771 0.186053
0.646639 -2.173993 -0.124815
0.635847 -2.167011 -0.108721
0.654165 -2.227915 -0.150178
0.098201 -2.326055 0.617001
0.093340 -2.309428 0.015106
0.122765 -2.288330 0.461100
0.089300 -2.283843 0.758301
0.114308 -2.316518 -0.002045
0.113387 -2.304683 0.194037
0.113257 -2.310966 0.575010
0.075609 -2.300568 0.223247
0.102808 -2.319760 -0.117015
0.102623 -2.288225 0.795203
0.098866 -2.320772 -0.111003
0.064282 -2.325018 -0.024856
0.095470 -2.308326 -0.014909
0.061717 -2.306722 0.428280
0.057310 -2.322107 0.163199
0.055938 -2.328501 -0.102841
0.085622 -2.299463 0.184196
0.052908 -2.327404 -0.115821
0.599880 -2.201676 -0.125760
0.595987 -2.191670 -0.121681
0.597647 -2.198335 -0.179731
0.595190 -2.198950 -0.074720
0.590064 -2.198711 -0.108695
0.586960 -2.189470 -0.144625
0.045549 -2.342791 0.619141
0.040723 -2.320114 0.014283
0.072165 -2.295057 0.461293
0.038595 -2.310644 0.767372
0.574955 -2.197520 0.042389
0.061705 -2.325202 -0.002856
0.061759 -2.316391 0.194203
0.061548 -2.334707 0.577103
0.022031 -2.307263 0.222453
0.562039 -2.189348 0.028500
0.564004 -2.197394 0.033441
0.049205 -2.328421 -0.119822
0.045267 -2.329440 -0.112810
0.011635 -2.340718 -0.023711
0.042784 -2.327001 -0.017781
0.010094 -2.319465 0.431439
0.003717 -2.331812 0.164385
0.002300 -2.342173 -0.104680
0.000208 -2.348082 -0.117707
0.032986 -2.312156 0.182360
0.548237 -2.219354 -0.122624
0.546996 -2.216017 -0.176599
0.545326 -2.211356 -0.118561
0.543558 -2.213625 -0.072565
0.539403 -2.216386 -0.107563
0.539226 -2.216166 -0.143562
-0.008087 -2.357522 0.620294
-0.011926 -2.334807 0.013433
0.021499 -2.312809 0.464417
0.528552 -2.214586 0.101505
0.519575 -2.186479 0.259726
0.009131 -2.329099 0.194365
0.008061 -2.339881 -0.004702
0.523313 -2.215211 0.045525
0.006913 -2.349419 0.576262
-0.030605 -2.320977 0.222609
0.512384 -2.205040 0.029639
0.510436 -2.204064 0.035654
-0.004427 -2.340084 -0.123650
-0.007361 -2.340116 -0.115636
-0.042933 -2.347407 -0.023504
-0.010783 -2.330676 -0.020560
-0.040063 -2.392822 1.022234
-0.043473 -2.326199 0.433642
-0.048875 -2.340536 0.166570
-0.051328 -2.354858 -0.105514
-0.053385 -2.356773 -0.117517
-0.020617 -2.320845 0.179551
0.495377 -2.229699 -0.173440
0.494656 -2.230031 -0.118437
0.492716 -2.225035 -0.115397
0.492921 -2.227307 -0.071411
0.486800 -2.227053 -0.106381
-0.061625 -2.357242 0.618538
0.487587 -2.231839 -0.142416
0.480765 -2.199157 0.244831
-0.065538 -2.345502 0.012611
-0.031129 -2.326550 0.466572
0.475965 -2.223272 0.103699
0.469434 -2.200802 0.360878
0.468947 -2.200190 0.261881
-0.043518 -2.344821 0.195508
-0.045597 -2.356574 -0.005561
0.471689 -2.229910 0.048676
-0.082235 -2.331696 0.221778
-0.047748 -2.369157 0.578387
0.463180 -2.208442 0.307858
0.461738 -2.219728 0.029786
0.460791 -2.219777 0.038791
-0.058140 -2.362759 -0.126547
-0.062066 -2.362786 -0.118529
-0.096574 -2.362109 -0.023353
-0.092502 -2.371510 1.010601
-0.095145 -2.345967 0.438754
-0.064442 -2.346358 -0.023414
-0.101512 -2.354261 0.167724
-0.105926 -2.364545 -0.106328
-0.106992 -2.366465 -0.118335
-0.074226 -2.330547 0.177735
0.443759 -2.244395 -0.169290
0.444013 -2.246732 -0.115304
0.443049 -2.243737 -0.113281
0.441294 -2.241997 -0.069260
-0.115369 -2.389022 0.625584
0.435202 -2.236741 -0.104200
-0.082734 -2.335297 0.467752
-0.119184 -2.360202 0.011762
0.430132 -2.212866 0.245984
0.434979 -2.244519 -0.140249
0.425312 -2.240982 0.105826
-0.096151 -2.357543 0.195667
0.417369 -2.205894 0.263089
0.420753 -2.221546 0.363977
-0.099209 -2.366267 -0.007380
0.419098 -2.241616 0.052850
-0.135892 -2.348418 0.221917
-0.102343 -2.377882 0.577579
0.412521 -2.229179 0.311966
0.411111 -2.232427 0.030944
0.411120 -2.239492 0.040900
-0.112754 -2.372429 -0.130361
-0.115684 -2.372468 -0.121348
-0.151349 -2.393804 -0.024304
-0.118105 -2.362046 -0.026269
-0.145895 -2.346204 0.998999
-0.149795 -2.365727 0.443878
-0.156209 -2.377987 0.169822
-0.161695 -2.395218 -0.109269
-0.162772 -2.399144 -0.120289
-0.127878 -2.346261 0.176879
0.391146 -2.259088 -0.166137
0.391411 -2.259426 -0.112139
0.388534 -2.245423 -0.109037
0.390653 -2.257701 -0.067123
-0.135355 -2.348058 0.470911
-0.170951 -2.397764 0.626778
-0.173873 -2.380903 0.010879
0.384546 -2.253432 -0.104069
0.378534 -2.221570 0.246172
0.384339 -2.259214 -0.139105
-0.138143 -2.389179 0.972681
0.373704 -2.252691 0.107993
-0.150748 -2.367261 0.195851
0.368673 -2.229642 0.266167
0.370119 -2.237284 0.367115
-0.154802 -2.375962 -0.008191
0.367471 -2.257331 0.055991
-0.190446 -2.352135 0.221139
-0.158987 -2.396623 0.579716
0.360912 -2.242916 0.316121
0.359459 -2.250124 0.031073
0.357571 -2.244187 0.043120
-0.168333 -2.379107 -0.133154
-0.171287 -2.382147 -0.124159
-0.206918 -2.400508 -0.024098
-0.199440 -2.347977 0.999229
-0.204420 -2.381493 0.449024
-0.173731 -2.374731 -0.029099
-0.212831 -2.393710 0.171977
-0.217326 -2.408912 -0.110107
-0.220346 -2.407827 -0.121087
-0.182534 -2.362975 0.176020
0.342560 -2.262846 0.638089
0.335860 -2.230860 0.648324
0.338839 -2.268135 -0.107950
0.338838 -2.269141 -0.106957
0.337590 -2.265781 -0.162931
0.338065 -2.267400 -0.064941
-0.191097 -2.380826 0.476955
-0.226527 -2.405513 0.627977
0.332928 -2.266130 -0.102910
-0.230503 -2.395601 0.010039
0.328872 -2.238295 0.246297
0.332697 -2.275911 -0.137972
-0.193563 -2.369875 0.962050
-0.205339 -2.375986 0.196041
0.322083 -2.267416 0.111139
0.319508 -2.249029 0.370276
0.318052 -2.243382 0.269316
-0.209403 -2.384664 -0.010002
0.323774 -2.276924 0.665087
-0.247205 -2.384863 0.223188
0.314889 -2.267046 0.059173
-0.215567 -2.405359 0.579913
0.307872 -2.257833 0.032263
0.308306 -2.257655 0.320271
0.306932 -2.260916 0.046248
-0.225117 -2.410769 -0.138100
-0.228988 -2.405819 -0.127052
-0.263563 -2.417212 -0.023951
-0.260017 -2.393250 0.452199
-0.229353 -2.386422 -0.031924
-0.268478 -2.411450 0.175113
0.292468 -2.234957 0.698502
-0.274949 -2.422595 -0.111938
-0.276993 -2.423515 -0.122935
-0.239127 -2.372681 0.174212
0.291944 -2.272588 0.638261
0.283279 -2.241621 0.652500
0.285970 -2.280496 -0.159787
0.286234 -2.281846 -0.104795
0.285272 -2.277846 -0.103765
-0.244681 -2.387583 0.478152
0.285444 -2.282102 -0.063792
0.279215 -2.255033 0.247420
-0.287134 -2.409298 0.008204
0.281286 -2.282837 -0.101779
0.279143 -2.281608 -0.135762
-0.250102 -2.373641 0.962279
-0.260925 -2.384713 0.196234
0.266485 -2.248109 0.270524
0.270470 -2.280141 0.113295
0.273160 -2.287683 0.667251
0.266924 -2.258764 0.372457
-0.267112 -2.409353 -0.011901
-0.303810 -2.396589 0.223365
0.263256 -2.284784 0.063297
-0.274216 -2.426110 0.583041
0.257217 -2.275557 0.033383
0.255725 -2.267395 0.323451
0.254366 -2.267634 0.048448
-0.282774 -2.427441 -0.141951
-0.286702 -2.429491 -0.130946
-0.281365 -2.054236 -0.017564
-0.316635 -2.409020 0.457350
-0.288076 -2.413101 -0.034833
-0.326095 -2.426181 0.177274
0.242809 -2.256765 0.705592
-0.317536 -2.300440 -0.105971
-0.294834 -2.074624 -0.102633
0.242299 -2.287357 0.640394
-0.296808 -2.394393 0.173331
-0.300257 -2.396349 0.481343
0.232698 -2.286565 -0.100580
0.233824 -2.295823 -0.061644
0.233353 -2.296212 -0.156647
0.232662 -2.291559 -0.101612
0.230692 -2.254399 0.657661
0.227611 -2.265767 0.248589
-0.307353 -2.097270 0.008284
0.228498 -2.297326 -0.134631
0.227686 -2.295539 -0.100615
-0.319701 -2.420438 0.198267
0.222539 -2.300457 0.670401
0.215840 -2.265865 0.273643
0.217884 -2.289868 0.115473
0.216282 -2.276531 0.376575
-0.283916 -2.042368 -0.008479
-0.361441 -2.412321 0.224520
0.209707 -2.291516 0.067499
-0.332799 -2.436856 0.584231
0.205582 -2.290274 0.033524
0.203144 -2.278150 0.327624
0.202711 -2.287368 0.050557
-0.295266 -2.031611 -0.118360
-0.373229 -2.420791 0.461525
-0.293954 -1.999698 -0.107160
-0.313997 -1.932145 -0.014622
-0.294373 -1.978213 -0.028016
-0.384688 -2.437908 0.178458
0.191233 -2.264541 0.708779
-0.323334 -1.939631 -0.087627
0.190692 -2.297109 0.640567
-0.356487 -2.417100 0.172450
-0.356906 -2.415121 0.485474
0.180791 -2.302936 -0.153451
0.181054 -2.304293 -0.098459
0.181232 -2.306546 -0.059473
0.180067 -2.304294 -0.097455
0.178110 -2.266183 0.662827
0.176034 -2.271500 0.248789
-0.334755 -1.941201 0.008421
0.176087 -2.305259 -0.099443
0.175908 -2.307039 -0.133455
0.171918 -2.313238 0.673548
-0.377315 -2.433167 0.198439
0.165207 -2.280621 0.275779
0.165298 -2.299603 0.117650
0.163714 -2.284288 0.379766
-0.317657 -1.932252 -0.008605
-0.420049 -2.425049 0.224697
0.156122 -2.303251 0.070666
0.153024 -2.295000 0.034733
-0.390270 -2.429589 0.580531
0.151122 -2.297113 0.053729
0.149571 -2.288908 0.331798
-0.430799 -2.430572 0.466716
-0.358494 -1.924960 -0.014358
-0.332505 -1.920064 -0.028454
-0.443291 -2.450648 0.180633
0.139628 -2.278340 0.713925
0.139082 -2.308882 0.642725
-0.415071 -2.425816 0.170652
-0.416549 -2.435890 0.490603
0.128198 -2.314668 -0.150289
0.127501 -2.311022 -0.095260
0.127649 -2.316264 -0.058294
0.127474 -2.316029 -0.094293
0.125377 -2.289254 0.249904
0.126440 -2.294016 0.672881
-0.378200 -1.926022 0.007732
0.122506 -2.313969 -0.099257
0.122313 -2.318754 -0.132288
0.121309 -2.324025 0.676707
-0.424481 -2.406163 0.841841
-0.435887 -2.441905 0.199640
0.113627 -2.288378 0.277964
0.112685 -2.314353 0.120792
0.112084 -2.301065 0.383891
-0.362143 -1.923064 -0.009328
-0.479685 -2.441784 0.225851
0.104070 -2.247705 1.101302
0.103527 -2.316006 0.074821
0.101375 -2.311733 0.034858
0.099495 -2.311860 0.055866
-0.490430 -2.449352 0.472856
0.096953 -2.306692 0.337921
-0.407148 -1.939753 -0.014219
-0.379066 -1.920853 -0.031232
-0.504931 -2.470384 0.183775
0.088037 -2.289138 0.718089
0.087472 -2.319655 0.643888
0.084617 -2.301277 1.046035
-0.475188 -2.453665 0.494744
-0.475715 -2.443532 0.169803
-0.506316 -2.427665 0.833078
0.075557 -2.333408 -0.147174
0.075988 -2.336008 -0.056191
0.074859 -2.330772 -0.091152
0.073889 -2.326760 -0.092121
0.073765 -2.301009 0.251061
-0.427905 -1.946804 0.006836
0.071951 -2.290779 0.674150
0.070834 -2.334705 -0.098160
0.068677 -2.336477 -0.131163
0.068761 -2.325789 0.676933
-0.480004 -2.406975 0.845080
0.062051 -2.296149 0.281147
-0.497542 -2.462631 0.200775
0.060091 -2.325103 0.122959
0.058525 -2.308832 0.387082
-0.411893 -1.948837 -0.011257
-0.540307 -2.456515 0.226020
0.053470 -2.262569 1.110435
0.049931 -2.329763 0.078972
0.047779 -2.323468 0.036022
0.045944 -2.317604 0.058070
-0.552044 -2.467131 0.479010
0.042387 -2.317461 0.342096
-0.561587 -2.480758 -0.024053
0.041291 -2.280300 1.076372
-0.425662 -1.925651 -0.033037
-0.563469 -2.474142 0.186005
0.035419 -2.307966 0.726203
0.035808 -2.341463 0.648976
0.034959 -2.323149 1.056115
-0.533719 -2.457446 0.497975
-0.537358 -2.461249 0.168956
0.021288 -2.338504 -0.089963
0.020991 -2.343145 -0.143994
0.021405 -2.346737 -0.055017
0.021244 -2.346517 -0.088016
0.020190 -2.309761 0.252245
-0.586237 -2.479835 0.004061
0.016259 -2.343426 -0.097973
0.018353 -2.308609 0.683275
0.015112 -2.343208 -0.129968
0.018111 -2.344611 0.683036
0.010414 -2.312928 0.284269
-0.558133 -2.473366 0.200968
0.006531 -2.331856 0.125155
0.006875 -2.328630 0.392183
-0.567236 -2.481847 -0.021055
-0.601889 -2.467256 0.227218
0.002995 -2.341867 1.032133
-0.003666 -2.343528 0.083121
-0.004848 -2.338216 0.037160
-0.006673 -2.332367 0.061209
-0.611569 -2.470919 0.483244
-0.585905 -2.495818 -0.162070
-0.626285 -2.506458 -0.023941
-0.011185 -2.328249 0.347266
-0.590836 -2.499880 -0.149075
-0.012236 -2.286145 1.083576
-0.627113 -2.493875 0.188152
-0.590202 -2.482546 -0.050961
-0.016801 -2.354258 0.652126
-0.016531 -2.310911 1.050428
-0.018131 -2.314770 0.730399
-0.637665 -2.503742 -0.123877
-0.641716 -2.508668 -0.131892
-0.598906 -2.466979 0.168186
-0.032334 -2.354249 -0.087828
-0.032599 -2.354894 -0.140833
-0.032178 -2.356484 -0.052843
-0.031448 -2.325536 0.254372
-0.033331 -2.357265 -0.084844
-0.650886 -2.498529 0.002218
-0.037327 -2.353165 -0.096799
-0.033511 -2.359428 0.688168
-0.038534 -2.360939 -0.129847
-0.036222 -2.322430 0.690428
-0.042146 -2.318702 0.286466
-0.619726 -2.485109 0.202158
-0.047087 -2.347623 0.128289
-0.046695 -2.337412 0.395365
-0.631907 -2.503539 -0.022918
-0.666555 -2.489990 0.229349
-0.049504 -2.332635 1.027430
-0.058433 -2.346960 0.037341
-0.058238 -2.354296 0.087293
-0.060268 -2.344126 0.063369
-0.674164 -2.485708 0.489418
-0.651578 -2.516479 -0.166923
-0.692932 -2.527156 -0.023790
-0.065760 -2.341047 0.353424
-0.655465 -2.514551 -0.153893
-0.691700 -2.507620 0.191340
-0.655870 -2.503221 -0.054813
-0.067130 -2.322772 1.057576
-0.070404 -2.367056 0.655279
-0.704337 -2.525416 -0.126733
-0.708380 -2.529342 -0.134741
-0.664550 -2.486690 0.167340
-0.085920 -2.365010 -0.084662
-0.084043 -2.335307 0.255541
-0.086814 -2.374227 -0.051719
-0.087209 -2.369640 -0.138689
-0.086913 -2.368032 -0.080678
-0.086080 -2.365228 0.690363
-0.090984 -2.371904 -0.096686
-0.716486 -2.512235 0.001411
-0.092165 -2.376683 -0.128715
-0.089859 -2.346288 0.701508
-0.093792 -2.336501 0.290578
-0.686375 -2.506831 0.203302
-0.100708 -2.363396 0.131422
-0.100323 -2.356220 0.401477
-0.100105 -2.341470 1.030596
-0.698561 -2.523222 -0.025761
-0.729096 -2.494737 0.229588
-0.111813 -2.364076 0.091465
-0.112071 -2.363716 0.038467
-0.113875 -2.357898 0.066515
-0.716144 -2.523160 -0.171690
-0.119478 -2.373868 0.361441
-0.757495 -2.534873 -0.024564
-0.722090 -2.530224 -0.157711
-0.757323 -2.525364 0.194505
-0.123019 -2.379864 0.658426
-0.723513 -2.521895 -0.058646
-0.771971 -2.543100 -0.128560
-0.776042 -2.550024 -0.136588
-0.136655 -2.347085 0.256696
-0.140862 -2.389403 -0.135586
-0.730170 -2.502409 0.166519
-0.141603 -2.390759 -0.082590
-0.141421 -2.387984 -0.049571
-0.137607 -2.363033 0.691606
-0.142584 -2.392788 -0.077599
-0.776933 -2.538504 0.669517
-0.783151 -2.532938 0.000560
-0.146742 -2.385430 -0.127533
-0.146537 -2.378649 -0.095486
-0.146395 -2.348294 0.293732
-0.749961 -2.517578 0.204504
-0.155325 -2.379172 0.134556
-0.154900 -2.367019 0.405646
-0.766186 -2.538921 -0.027567
-0.796738 -2.513470 0.230764
-0.166693 -2.377480 0.039624
-0.167470 -2.385857 0.095573
-0.168449 -2.365671 0.068714
-0.826145 -2.554580 -0.024391
-0.786853 -2.548806 -0.177547
-0.175031 -2.381673 0.366645
-0.790794 -2.553888 -0.162564
-0.176621 -2.389672 0.660608
-0.825933 -2.542109 0.197699
-0.791151 -2.538589 -0.061456
-0.839571 -2.554795 -0.131337
-0.842645 -2.561729 -0.138370
-0.192289 -2.364866 0.258836
-0.190119 -2.358844 0.692882
-0.197496 -2.408157 -0.133449
-0.197004 -2.397742 -0.048377
-0.198179 -2.405557 -0.074426
-0.198194 -2.403517 -0.080412
-0.797770 -2.516134 0.165731
-0.840446 -2.539302 0.671797
-0.851774 -2.548641 -0.001238
-0.202173 -2.395397 -0.095339
-0.203341 -2.398173 -0.127354
-0.202076 -2.374091 0.297820
-0.819604 -2.539312 0.206673
-0.210926 -2.392955 0.137726
-0.210478 -2.378830 0.410830
-0.833795 -2.553619 -0.030369
-0.867397 -2.538196 0.232909
-0.222252 -2.385236 0.039827
-0.224099 -2.407643 0.100684
-0.224130 -2.392446 0.071788
-0.856494 -2.567472 -0.182368
-0.895739 -2.569286 -0.025185
-0.231632 -2.400488 0.373777
-0.231132 -2.388465 0.660867
-0.859380 -2.565565 -0.167342
-0.894526 -2.557857 0.200894
-0.861808 -2.560262 -0.065293
-0.911214 -2.575470 -0.134163
-0.914262 -2.579406 -0.141176
-0.246861 -2.373648 0.260027
-0.255096 -2.424910 -0.131301
-0.253591 -2.411505 -0.046213
-0.254803 -2.420277 -0.078269
-0.255760 -2.420321 -0.071265
-0.869420 -2.539843 0.165886
-0.910006 -2.553095 0.678009
-0.922387 -2.565339 -0.003042
-0.259834 -2.419138 -0.095239
-0.261024 -2.424911 -0.127274
-0.255627 -2.379894 0.301026
-0.890217 -2.558039 0.207855
-0.267474 -2.401738 0.140924
-0.267126 -2.403651 0.417919
-0.903384 -2.567323 -0.032158
-0.935932 -2.545945 0.234156
-0.278941 -2.411997 0.040902
-0.279724 -2.406230 0.074947
-0.281672 -2.421426 0.104851
-0.969382 -2.591982 -0.025019
-0.926063 -2.577153 -0.187131
-0.289147 -2.407303 0.379992
-0.964075 -2.568613 0.204124
-0.922072 -2.570747 0.616921
-0.931990 -2.582229 -0.172140
-0.932385 -2.571951 -0.069065
-0.984850 -2.595136 -0.137977
-0.988904 -2.601073 -0.144000
-0.302508 -2.394443 0.263138
-0.311361 -2.430053 -0.075080
-0.273752 -2.064566 -0.034717
-0.306236 -2.374742 -0.124722
-0.302689 -2.337182 -0.064476
-0.942047 -2.560558 0.166062
-0.995000 -2.583041 -0.003847
-0.316384 -2.425895 -0.095029
-0.312288 -2.404701 0.306113
-0.285417 -2.120005 -0.107050
-0.959794 -2.570783 0.209071
-0.326175 -2.433520 0.144970
-0.324703 -2.418470 0.424078
-1.006526 -2.560686 0.235363
-0.979036 -2.590993 -0.034991
-0.335463 -2.414764 0.041139
-0.337317 -2.421006 0.077105
-0.339216 -2.431225 0.110044
-1.037884 -2.593717 -0.025735
-1.000693 -2.595805 -0.192936
-0.347712 -2.422126 0.387155
-1.037699 -2.589350 0.207302
-0.990574 -2.574541 0.620192
-1.004576 -2.594903 -0.176912
-1.007016 -2.591623 -0.072876
-1.060479 -2.614808 -0.140785
-1.064524 -2.619746 -0.146801
-0.361151 -2.417233 0.266245
-0.305559 -1.938352 -0.053680
-0.305390 -1.931523 -0.029632
-0.307811 -1.947047 -0.095732
-0.305464 -1.930404 -0.046625
-1.014627 -2.574279 0.165283
-0.367831 -2.410511 0.309324
-0.309598 -1.937212 -0.071653
-1.066553 -2.591755 -0.005598
-0.311740 -1.943034 -0.095684
-1.035425 -2.593507 0.211242
-0.384732 -2.444308 0.148158
-0.382286 -2.433297 0.430234
-1.082156 -2.582414 0.237541
-1.053652 -2.608679 -0.037791
-0.332159 -1.978887 0.038169
-0.394904 -2.434796 0.080268
-0.398854 -2.455019 0.115146
-1.122611 -2.631368 -0.025628
-0.406284 -2.436957 0.394315
-1.079365 -2.620434 -0.199767
-1.113279 -2.606097 0.211512
-1.085300 -2.626518 -0.183782
-1.083641 -2.610287 -0.077675
-1.138092 -2.632473 -0.144574
-1.140110 -2.633429 -0.149572
-0.418732 -2.429029 0.268421
-0.347969 -1.919228 -0.051335
-0.349917 -1.929379 -0.028396
-0.349918 -1.920277 -0.043333
-0.425406 -2.422318 0.312500
-1.093245 -2.595982 0.165472
-1.151276 -2.627397 -0.007478
-0.444328 -2.461104 0.152307
-1.114042 -2.616233 0.214424
-0.441851 -2.447123 0.436403
-1.162796 -2.608132 0.240711
-1.133283 -2.630348 -0.040599
-0.375591 -1.961751 0.038503
-0.450326 -2.423604 0.082594
-1.161184 -2.594313 0.545809
-0.457339 -2.456832 0.120393
-1.199192 -2.645073 -0.026396
-0.465846 -2.450791 0.401483
-1.188838 -2.618848 0.214748
-1.159008 -2.641069 -0.206569
-1.161896 -2.640180 -0.189550
-1.138925 -2.584565 0.549759
-1.165303 -2.635938 -0.081503
-0.477294 -2.438830 0.270613
-0.399574 -1.949212 -0.027293
-0.483002 -2.437144 0.317652
-1.227852 -2.640107 -0.008240
-1.169811 -2.608702 0.164712
-1.188581 -2.624981 0.215681
-0.504880 -2.471900 0.155499
-0.502452 -2.466964 0.444533
-1.215934 -2.655009 -0.043418
-0.513045 -2.458380 0.085627
-0.477994 -2.260286 0.041870
-0.518929 -2.474635 0.125540
-0.525352 -2.456638 0.408705
-0.524326 -2.446506 0.809786
-0.538935 -2.461627 0.273725
-0.451478 -1.986868 -0.049311
-0.543600 -2.453958 0.321802
-0.476120 -2.078547 -0.075850
-1.256466 -2.637381 0.164881
-0.565458 -2.485708 0.159667
-0.562980 -2.474797 0.449743
-0.575883 -2.479852 0.044750
-0.575650 -2.477169 0.088770
-0.581518 -2.492441 0.130688
-0.590454 -2.497884 0.754710
-0.589975 -2.483483 0.418799
-0.580773 -2.439385 0.815086
-0.599494 -2.471434 0.275921
-0.613536 -2.503557 -0.115260
-0.613285 -2.502924 -0.064255
-0.602159 -2.462790 0.325996
-0.616172 -2.508105 -0.037278
-0.616209 -2.505013 -0.050256
-0.620370 -2.502683 -0.094223
-0.624596 -2.516437 -0.125304
-0.629035 -2.501511 0.163832
-0.624498 -2.482649 0.456957
-0.613641 -2.440091 0.787224
-0.638239 -2.492967 0.091930
-0.638442 -2.490636 0.045946
-0.643069 -2.503262 0.135879
-0.646372 -2.517384 0.709813
-0.644912 -2.486744 0.756027
-0.651456 -2.486341 0.426046
-0.662077 -2.485238 0.278095
-0.664744 -2.478619 0.331156
-0.675831 -2.512721 -0.061053
-0.678126 -2.520332 -0.113100
-0.679812 -2.522802 -0.047108
-0.679755 -2.522889 -0.035108
-0.684983 -2.520438 -0.095070
-0.690190 -2.533195 -0.125140
-0.693597 -2.515319 0.168013
-0.700821 -2.506773 0.095102
-0.705089 -2.515404 0.047057
-0.709655 -2.523073 0.142025
-0.704863 -2.514237 0.712088
-0.705475 -2.497620 0.763211
-0.725666 -2.501059 0.282257
-0.727329 -2.493454 0.336321
-0.742414 -2.529500 -0.058887
-0.745726 -2.540102 -0.110951
-0.743330 -2.529613 -0.042884
-0.746337 -2.538662 -0.033935
-0.752569 -2.537197 -0.094900
-0.753715 -2.538981 -0.123909
-0.759192 -2.533128 0.172167
-0.766404 -2.522573 0.098271
-0.770679 -2.530181 0.047232
-0.775218 -2.537899 0.148200
-0.768415 -2.525100 0.718283
-0.791243 -2.514866 0.284439
-0.790891 -2.505294 0.341508
-0.808999 -2.545285 -0.056717
-0.812295 -2.553886 -0.108766
-0.813986 -2.558383 -0.039789
-0.813932 -2.556444 -0.031775
-0.820186 -2.555954 -0.095747
-0.823332 -2.559728 -0.124762
-0.827769 -2.550941 0.177331
-0.832997 -2.539376 0.101434
-0.838257 -2.544965 0.048414
-0.842759 -2.550727 0.154395
-0.858834 -2.531689 0.288610
-0.858514 -2.527130 0.347644
-0.876557 -2.557080 -0.054510
-0.880858 -2.567681 -0.105570
-0.881529 -2.569195 -0.035576
-0.884540 -2.576216 -0.030613
-0.890786 -2.573711 -0.096570
-0.894945 -2.580486 -0.124603
-0.895322 -2.562765 0.181539
-0.901578 -2.555184 0.104619
-0.909874 -2.566741 0.049569
-0.912350 -2.570560 0.161555
-0.929434 -2.552504 0.292766
-0.927075 -2.541967 0.352835
-0.947143 -2.574861 -0.053333
-0.953471 -2.590447 -0.104422
-0.953116 -2.588985 -0.032410
-0.956099 -2.592003 -0.028419
-0.962363 -2.590481 -0.096383
-0.963495 -2.591268 -0.124385
-0.969937 -2.589573 0.187666
-0.972153 -2.571990 0.107801
-0.980464 -2.583523 0.049750
-0.981879 -2.582399 0.167769
-0.997964 -2.561336 0.295997
-1.022800 -2.604627 -0.051227
-1.028093 -2.615219 -0.102283
-1.022616 -2.595809 -0.028162
-1.027650 -2.604793 -0.027206
-1.033913 -2.602254 -0.097163
-1.035045 -2.603041 -0.125165
-1.042489 -2.604391 0.191868
-1.042696 -2.583808 0.111017
-1.052010 -2.595320 0.050970
-1.060493 -2.611209 0.174893
-1.095331 -2.615429 -0.048998
-1.099607 -2.623025 -0.100038
-1.103271 -2.628573 -0.025060
-1.105239 -2.626570 -0.025037
-1.112552 -2.628998 -0.098027
-1.117730 -2.638762 -0.126078
-1.118030 -2.620223 0.198071
-1.120306 -2.608606 0.115163
-1.130619 -2.619092 0.052127
-1.137054 -2.631048 0.183071
-1.170895 -2.631224 -0.046797
-1.177190 -2.642807 -0.097858
-1.177809 -2.641390 -0.020842
-1.181820 -2.644353 -0.023847
-1.189090 -2.640771 -0.098793
-1.195288 -2.653527 -0.126862
-1.194590 -2.637049 0.203268
-1.180902 -2.609604 0.531425
-1.197897 -2.629414 0.119335
-1.207188 -2.634884 0.053331
-1.213600 -2.646891 0.190274
-1.213745 -2.608390 0.512571
-1.266039 -2.634913 0.207581
-1.278493 -2.651212 0.122509
-0.370395 3.729738 1.941099
-0.298403 3.271297 1.909379
-0.315257 3.875573 2.057732
-0.237604 3.517987 2.050007
-0.273029 3.596932 2.035867
-0.233842 3.958381 2.099643
-0.159053 3.577858 2.084688
-0.190528 3.665759 2.076638
0.013148 2.048882 2.028096
0.020933 1.893642 2.051519
0.034183 1.844662 2.052044
0.014035 1.873596 2.047363
0.059270 2.021230 2.005900
0.030162 1.849582 2.052150
0.062970 1.886809 2.045536
0.051070 2.060007 2.019347
0.074264 1.829895 2.038980
0.055052 1.871647 2.052430
0.071225 1.838728 2.048129
0.102182 1.845322 2.005198
0.113425 1.800285 2.010767
0.094269 1.830140 2.014092
0.110434 1.800181 2.013826
0.139940 1.895467 2.093863
-0.448166 3.889867 1.930703
-0.359663 3.769313 1.921525
-0.384361 4.239453 2.088412
-0.257388 3.174858 1.911437
-0.239114 3.122792 1.924918
-0.283866 4.280783 2.096934
-0.200057 3.438491 2.064263
-0.182648 3.363562 2.064506
-0.006249 1.928516 2.034916
0.025177 2.021681 2.030953
0.025258 2.008754 2.023820
0.029841 1.913416 2.056851
0.038695 1.937636 2.039122
0.040290 1.839465 2.054119
0.041166 1.859459 2.055327
0.068328 1.995104 2.005779
0.068347 1.992125 2.003749
0.071970 1.891823 2.032730
0.081895 1.905207 1.999889
0.080368 1.828749 2.042105
0.081347 1.832971 2.021149
0.114971 1.892006 2.032835
0.119536 1.805170 2.016961
0.123261 1.847037 2.032397
4.656673 2.092075 0.727625
4.575604 2.015838 0.677790
4.644951 2.176967 0.776221
4.626691 2.037318 0.764075
