# .PCD v0.7 - Point Cloud Data file format
VERSION 0.7
FIELDS x y z
SIZE 4 4 4
TYPE F F F
COUNT 1 1 1
WIDTH 88
HEIGHT 1
VIEWPOINT 0 0 0 1
POINTS 88
DATA ascii
4.416822 -1.220284 2.736834
4.551084 -1.264002 2.092632
4.438331 -1.228490 2.776389
4.256847 -1.278858 2.647395
4.367759 -1.316852 2.025017
4.546305 -1.280103 1.947769
4.352866 -1.268786 2.579965
4.479508 -1.225447 2.508150
4.275306 -1.289151 2.695915
4.100779 -1.332437 2.562073
4.353717 -1.405337 1.491695
4.204348 -1.370644 1.967614
4.356975 -1.335009 1.882093
4.523517 -1.289327 1.803711
4.178827 -1.322465 2.491471
4.696271 -1.249503 1.711275
4.314401 -1.286935 2.546683
4.304465 -1.286169 2.425577
3.977561 -1.391935 2.497034
4.108236 -1.342834 2.613498
4.515832 -1.232947 2.460745
4.191168 -1.458148 1.440320
4.050853 -1.420403 1.914378
3.975809 -1.409575 2.729823
4.193546 -1.391830 1.828677
4.467059 -1.253638 2.363978
4.345147 -1.351229 1.748093
4.035620 -1.378055 2.420286
4.501958 -1.317500 1.654436
3.833335 -1.438499 2.419946
4.144304 -1.343664 2.468222
3.964015 -1.396462 2.545333
4.139329 -1.342864 2.348168
4.005563 -1.496077 1.381903
3.913271 -1.469108 1.868335
4.323842 -1.294768 2.375013
3.815601 -1.448216 2.646668
4.044023 -1.445605 1.781456
4.297932 -1.317389 2.291457
4.173704 -1.408115 1.695623
3.902345 -1.432624 2.355228
4.094517 -1.305589 2.969643
3.701013 -1.484040 2.351008
4.300584 -1.375544 1.595668
3.822720 -1.445088 2.479273
3.996057 -1.399505 2.283997
3.981130 -1.396381 2.393898
3.676267 -1.487800 2.575732
4.169672 -1.360490 2.311628
3.892483 -1.494389 1.732290
4.130739 -1.375142 2.220044
3.757031 -1.477240 2.284183
4.008191 -1.458975 1.644303
3.946530 -1.363163 2.886433
3.680389 -1.488722 2.412276
3.553839 -1.529349 2.515960
3.845747 -1.448174 2.215866
4.129124 -1.434454 1.546204
3.833846 -1.447048 2.327773
3.993517 -1.414290 2.236187
3.967443 -1.425896 2.151773
3.845626 -1.504832 1.594091
3.805414 -1.414728 2.808381
3.558962 -1.535299 2.357470
3.688511 -1.493724 2.263733
3.841211 -1.467021 2.174012
3.830059 -1.480568 2.096725
3.677212 -1.467286 2.741458
3.482480 -1.663940 1.094439
3.582607 -1.483205 2.766338
3.530753 -1.668912 0.993404
3.543966 -1.511847 2.669597
3.420762 -1.666917 1.159352
3.455388 -1.531780 2.700496
3.117534 -1.678625 2.057717
3.420614 -1.554400 2.605872
3.431926 -1.675501 1.103844
3.154446 -1.677058 2.005700
3.332093 -1.576352 2.637756
3.318804 -1.680842 1.446717
3.316202 -1.602924 2.556271
3.204188 -1.654278 1.939984
3.446167 -1.690030 1.044291
3.397881 -1.676625 1.352026
3.215726 -1.618916 2.580122
3.195759 -1.638480 2.494687
3.101305 -1.658493 2.525559
3.091247 -1.678014 2.445222
