# .PCD v0.7 - Point Cloud Data file format
VERSION 0.7
FIELDS x y z
SIZE 4 4 4
TYPE F F F
COUNT 1 1 1
WIDTH 887
HEIGHT 1
VIEWPOINT 0 0 0 1
POINTS 887
DATA ascii
1.995934 -0.673520 2.582758
1.971582 -0.715144 2.568438
1.946248 -0.755747 2.553128
1.918935 -0.795329 2.536811
2.002837 -0.936257 2.575980
2.006005 -0.933440 2.585121
1.976511 -0.978884 2.561613
1.973691 -0.973039 2.569741
1.958014 -1.023740 2.557338
1.930610 -1.006296 2.540324
1.936579 -1.067517 2.550032
1.895342 -1.042838 2.522965
1.895542 -1.099714 2.517677
1.954506 -1.228444 2.555813
1.913286 -1.264966 2.537375
1.905400 -1.454831 2.535026
1.875196 -1.436296 2.514021
2.430059 -2.714895 0.350061
2.379608 -2.699796 0.389683
2.433265 -2.710511 0.290227
2.430607 -2.719569 0.337005
2.310713 -2.702601 0.336615
2.270634 -2.675819 0.080545
2.267201 -2.695614 0.381164
2.437365 -2.711907 0.309313
2.235314 -2.711270 0.852527
2.310817 -2.700402 0.284695
2.298249 -2.695307 0.324642
2.187396 -2.681276 0.321326
2.354528 -2.688035 0.181611
2.184561 -2.715786 0.786686
2.157127 -2.663770 0.077200
2.446203 -2.716192 0.279388
2.154794 -2.683424 0.371835
2.236017 -2.723775 0.699260
2.312957 -2.698735 0.300824
2.123178 -2.699709 0.827187
2.189383 -2.682262 0.277369
2.290524 -2.710635 0.606349
2.186018 -2.706028 0.842992
2.181882 -2.683073 0.313258
2.084022 -2.677045 0.309959
2.231042 -2.672987 0.178188
2.345207 -2.711328 0.506133
2.078272 -2.705435 0.770412
2.038304 -2.636678 0.027108
2.050628 -2.656729 0.073857
2.050370 -2.675264 0.363546
2.319756 -2.703093 0.273874
2.113764 -2.700386 0.681045
2.188565 -2.680554 0.291462
2.032921 -2.728012 1.283457
2.016001 -2.687205 0.803953
2.276934 -2.682455 0.067651
2.075940 -2.669152 0.271062
2.057913 -2.639100 0.002377
2.076839 -2.696542 0.820660
2.100142 -2.741249 1.207136
2.171209 -2.700377 0.593886
2.076483 -2.677892 0.303889
2.160851 -2.706559 0.823682
2.171436 -2.732311 1.123368
2.243984 -2.717438 0.820674
1.967690 -2.653764 0.295842
1.977979 -2.697092 0.754191
2.120551 -2.668967 0.175723
2.218865 -2.698118 0.495634
1.930838 -2.621582 0.020943
1.935121 -2.629683 0.069842
2.067678 -2.611262 -0.033823
1.940976 -2.657072 0.353419
2.192311 -2.684009 0.268494
2.011429 -2.696134 0.668707
1.932804 -2.715416 1.256334
2.075146 -2.669425 0.284116
1.903869 -2.664647 0.777883
1.964557 -2.628755 -0.014699
1.913940 -2.708837 1.319238
2.145395 -2.658516 0.068328
1.969477 -2.658073 0.265822
1.984087 -2.717590 1.177029
1.952391 -2.628096 0.000152
1.973628 -2.689111 0.800380
1.962096 -2.657705 0.293738
2.061871 -2.694149 0.582490
2.040690 -2.685064 0.800468
2.059294 -2.720804 1.100045
1.869314 -2.646553 0.284639
2.125772 -2.704027 0.801305
1.949961 -2.716078 1.331641
1.873695 -2.678740 0.737147
2.133655 -2.732876 1.016856
2.000057 -2.644942 0.172571
1.833357 -2.613516 0.015777
1.834615 -2.618662 0.066699
2.100523 -2.687919 0.485199
1.845533 -2.649951 0.346259
2.002167 -2.720999 1.330326
2.079869 -2.675928 0.263100
1.908096 -2.683872 0.655543
1.804972 -2.599210 -0.087334
1.837646 -2.705894 1.232225
1.966715 -2.656306 0.276897
1.805657 -2.653206 0.756779
1.863015 -2.620803 -0.014923
1.807991 -2.688027 1.282226
1.870011 -2.650001 0.260628
1.882925 -2.706092 1.153878
1.865431 -2.668650 0.778330
1.847866 -2.613102 -0.001958
2.030859 -2.647581 0.068975
1.861692 -2.648544 0.284554
1.947544 -2.673894 0.569347
1.936445 -2.674687 0.782248
1.947168 -2.705286 1.075826
1.768926 -2.630354 0.273617
1.842975 -2.694315 1.296635
1.774400 -2.663418 0.721119
2.016522 -2.693670 0.784010
2.010525 -2.711385 0.993610
1.895568 -2.634921 0.169351
1.737878 -2.604457 0.010673
1.736103 -2.604650 0.063662
1.746103 -2.633821 0.338253
1.725629 -2.586791 -0.108148
1.987146 -2.676775 0.476871
1.874586 -2.613369 -0.033534
1.890192 -2.698237 1.295270
1.805773 -2.667598 0.641494
1.737536 -2.684297 1.204324
1.703404 -2.579274 -0.087279
1.967397 -2.659884 0.258896
1.860284 -2.641198 0.269765
1.707468 -2.639752 0.734732
1.758455 -2.600865 -0.014912
1.718899 -2.688464 1.255998
1.783755 -2.694626 1.131768
1.764543 -2.629945 0.255627
1.766207 -2.655240 0.758264
1.749365 -2.603093 -0.005081
1.759282 -2.631395 0.275531
1.944451 -2.716149 1.293697
1.918328 -2.631635 0.068775
1.843184 -2.659690 0.558225
1.836188 -2.665341 0.765075
1.847942 -2.700930 1.058557
1.673523 -2.616185 0.263633
1.679076 -2.649148 0.707136
1.752849 -2.693798 1.272414
1.907264 -2.677326 0.766860
1.791950 -2.598874 -0.102366
1.640580 -2.587646 0.060744
1.638372 -2.583436 0.006788
1.648667 -2.614700 0.330353
1.793069 -2.623931 0.167194
1.905309 -2.706031 0.976278
1.630094 -2.571815 -0.110109
1.771024 -2.598455 -0.032617
1.797063 -2.695721 1.271049
1.881761 -2.671660 0.469538
1.649316 -2.675881 1.184312
1.706434 -2.650356 0.628522
1.607847 -2.561322 -0.088172
1.863928 -2.649845 0.254699
1.609250 -2.619334 0.713850
1.755849 -2.623099 0.262740
1.617908 -2.663721 1.221168
1.660885 -2.585955 -0.013902
1.655846 -2.572930 -0.148731
1.687571 -2.680171 1.109778
1.667068 -2.613893 0.250661
1.666978 -2.636841 0.738321
1.650834 -2.585117 -0.007016
1.660864 -2.613255 0.266597
1.837398 -2.696509 1.263656
1.740829 -2.644495 0.547166
1.810788 -2.617720 0.069616
1.730955 -2.641943 0.745153
1.737814 -2.675415 1.033613
1.574141 -2.590985 0.251847
1.591720 -2.640928 0.695143
1.792807 -2.603701 -0.065367
1.653818 -2.674119 1.240499
1.800007 -2.658992 0.749796
1.685349 -2.575018 -0.099282
1.553069 -2.579646 0.057751
1.558231 -2.600583 0.322451
1.688567 -2.601932 0.164263
1.792146 -2.685605 0.955180
1.561131 -2.662407 1.161422
1.671472 -2.582526 -0.032609
1.696989 -2.677111 1.242096
1.771386 -2.648497 0.459544
1.610085 -2.634144 0.616581
1.752473 -2.625801 0.249713
1.520003 -2.606964 0.694927
1.659399 -2.610029 0.256728
1.527835 -2.651115 1.192235
1.591396 -2.660704 1.086909
1.568606 -2.591831 0.244826
1.576711 -2.627512 0.721315
1.562308 -2.577143 -0.009021
1.747196 -2.696113 1.244441
1.565453 -2.596123 0.257696
1.636671 -2.629637 0.729153
1.642450 -2.631352 0.538132
1.712244 -2.608809 0.070484
1.498411 -2.618633 0.679386
1.488731 -2.583851 0.242871
1.644570 -2.667078 1.016541
1.559739 -2.656516 1.211620
1.689203 -2.585868 -0.061369
1.701713 -2.645709 0.734759
1.576120 -2.527982 -0.193749
1.587727 -2.556188 -0.095173
1.470774 -2.588518 0.316558
1.592048 -2.584961 0.162345
1.473916 -2.646988 1.140599
1.603861 -2.664595 1.217118
1.688937 -2.672252 0.937079
1.583914 -2.579620 -0.031709
1.513747 -2.612920 0.603762
1.672985 -2.639402 0.452422
1.661985 -2.621796 0.246590
1.437716 -2.601665 0.678957
1.561959 -2.590947 0.249847
1.439736 -2.638562 1.165342
1.505144 -2.653373 1.069924
1.485106 -2.586833 0.241835
1.480469 -2.602134 0.701589
1.646091 -2.674558 1.217550
1.478009 -2.585039 0.250783
1.542382 -2.612343 0.713275
1.546081 -2.612176 0.527268
1.409086 -2.594345 0.663737
1.606701 -2.583894 0.070621
1.471619 -2.643986 1.185724
1.547369 -2.649688 0.996624
1.598600 -2.580034 -0.057444
1.605398 -2.629458 0.720827
1.366459 -2.529948 -0.114672
1.393670 -2.637616 1.121749
1.503546 -2.577992 0.160331
1.510744 -2.645046 1.190306
1.587713 -2.653911 0.919129
1.348202 -2.522478 -0.091740
1.425376 -2.597745 0.592932
1.568586 -2.614285 0.443597
1.339500 -2.562219 0.655543
1.555508 -2.591779 0.241847
1.477470 -2.585938 0.245864
1.356593 -2.629065 1.140478
1.415918 -2.633971 1.049190
1.384075 -2.526283 -0.144277
1.403109 -2.601933 0.689602
1.553913 -2.660103 1.194659
1.336654 -2.596235 0.655780
1.372153 -2.528294 -0.144471
1.452077 -2.596061 0.697463
1.454669 -2.599078 0.519376
1.386467 -2.631489 1.160904
1.492125 -2.538009 0.071131
1.458102 -2.637375 0.979743
1.512058 -2.611222 0.707017
1.298491 -2.538703 0.049345
1.412915 -2.527294 -0.187837
1.297380 -2.537341 -0.011659
1.315382 -2.629300 1.104942
1.286899 -2.520006 -0.116452
1.403276 -2.530856 -0.208042
1.425551 -2.635615 1.168424
1.270630 -2.515559 -0.092553
1.351913 -2.603705 0.587886
1.491453 -2.637605 0.902249
1.272112 -2.575081 0.646419
1.470174 -2.593194 0.435784
1.471988 -2.587815 0.239862
1.334616 -2.624697 1.034356
1.274439 -2.615569 1.115726
1.311636 -2.535278 -0.014342
1.306497 -2.521381 -0.144149
1.303882 -2.560512 0.667229
1.464719 -2.645669 1.172819
1.303688 -2.536286 -0.014463
1.357778 -2.564745 0.679932
1.294567 -2.524416 -0.143363
1.241422 -2.546529 0.217517
1.358292 -2.568903 0.507797
1.304269 -2.619060 1.139127
1.367844 -2.618044 0.962006
1.424707 -2.600028 0.695140
1.222366 -2.542333 0.297394
1.221955 -2.532755 0.047518
1.234143 -2.609899 1.084336
1.331280 -2.518487 -0.183677
1.216857 -2.522355 -0.015342
1.209343 -2.509066 -0.118183
1.331925 -2.531650 -0.086920
1.344324 -2.626228 1.148593
1.315625 -2.513080 -0.202763
1.317189 -2.531936 -0.030093
1.192081 -2.503620 -0.094272
1.401149 -2.626386 0.889339
1.255310 -2.614430 1.019580
1.365767 -2.557098 0.427232
1.180407 -2.574873 1.081418
1.234086 -2.529356 -0.015181
1.226905 -2.510511 -0.142907
1.234600 -2.547839 0.230505
1.377510 -2.627244 1.151103
1.353169 -2.521508 -0.227366
1.229631 -2.547844 0.230444
1.225138 -2.528366 -0.015271
1.206942 -2.496578 -0.140855
1.281415 -2.563574 0.668998
1.342398 -2.525834 -0.168575
1.166985 -2.542445 0.209683
1.340869 -2.519540 -0.271491
1.230012 -2.618741 1.122206
1.286512 -2.610847 0.950139
1.333011 -2.542258 0.074031
1.334375 -2.575781 0.680517
1.153883 -2.545308 0.292486
1.143418 -2.516795 0.044892
1.325772 -2.531548 -0.047868
1.140326 -2.511395 -0.018050
1.249662 -2.506666 -0.180439
1.130794 -2.495134 -0.119850
1.253336 -2.526799 -0.084793
1.266065 -2.617892 1.130790
1.249936 -2.544193 0.156867
1.231986 -2.496285 -0.198441
1.120532 -2.499681 -0.096065
1.238638 -2.528041 -0.029985
1.113486 -2.544542 0.615106
1.309864 -2.608135 0.874581
1.223029 -2.541868 0.230607
1.154507 -2.513467 -0.014820
1.158091 -2.536850 0.226798
1.150335 -2.502623 -0.142678
1.299231 -2.621951 1.135234
1.105461 -2.559769 0.624687
1.146582 -2.512432 -0.016895
1.147164 -2.526795 0.223878
1.270516 -2.511756 -0.221184
1.137362 -2.499706 -0.139773
1.090531 -2.528372 0.202049
1.138952 -2.578074 1.088945
1.258757 -2.513061 -0.163340
1.203384 -2.559829 0.497063
1.257199 -2.507815 -0.264278
1.180411 -2.549243 0.919133
1.073395 -2.518260 0.286082
1.256979 -2.571662 0.671642
1.251446 -2.533386 0.075209
1.071893 -2.511834 0.042129
1.069806 -2.506413 -0.021800
1.246174 -2.525723 -0.044728
1.058233 -2.484203 -0.121496
1.168027 -2.490874 -0.176103
1.171734 -2.510960 -0.082457
1.174957 -2.581312 1.101439
1.171395 -2.534276 0.156114
1.112673 -2.558326 0.559888
1.157370 -2.491465 -0.195251
1.045967 -2.487775 -0.096712
1.160059 -2.514153 -0.029652
1.043131 -2.543363 0.603278
1.216467 -2.546914 0.231539
1.211637 -2.568769 0.854201
1.145528 -2.530883 0.226893
1.082778 -2.545979 0.632811
1.080577 -2.519869 0.223219
1.081949 -2.510577 -0.014638
1.073732 -2.486765 -0.141268
1.225886 -2.622772 1.124308
1.209819 -2.556144 0.421318
1.034035 -2.549660 0.616039
1.074692 -2.520765 0.218127
1.073059 -2.505477 -0.019638
1.184833 -2.490039 -0.213771
1.133624 -2.556319 0.650333
1.060769 -2.485849 -0.138403
1.016069 -2.512303 0.194494
1.125928 -2.548793 0.491353
1.177097 -2.498315 -0.157024
1.015216 -2.572033 1.036461
1.174504 -2.491119 -0.255932
1.001898 -2.507254 0.281458
1.000341 -2.500902 0.040504
1.176889 -2.533514 0.076295
0.996281 -2.492441 -0.025384
1.162571 -2.505888 -0.042327
0.987681 -2.476276 -0.123171
1.092405 -2.480061 -0.172788
1.093114 -2.495148 -0.079072
1.033254 -2.534208 0.550443
1.092857 -2.518344 0.154501
0.976419 -2.481848 -0.098416
1.080740 -2.480678 -0.190946
1.082487 -2.500272 -0.029294
0.970766 -2.530173 0.590692
1.026367 -2.574670 0.975626
1.134959 -2.527938 0.227951
0.965668 -2.560877 1.027107
1.068035 -2.514884 0.222297
1.007365 -2.494697 -0.014192
1.007420 -2.530790 0.620228
1.009063 -2.512911 0.220510
1.001145 -2.474887 -0.140882
0.961630 -2.533515 0.605517
1.135752 -2.584224 1.096022
1.132352 -2.547135 0.416567
1.004204 -2.514761 0.213411
0.998512 -2.491554 -0.021232
1.110173 -2.483293 -0.207529
1.060235 -2.549190 0.640598
0.988175 -2.474994 -0.137037
0.946602 -2.504258 0.187840
0.999355 -2.572559 1.059374
0.948839 -2.567868 1.025759
1.049489 -2.536741 0.484688
1.101480 -2.492526 -0.152813
1.096832 -2.480402 -0.248640
0.937408 -2.511267 0.277609
1.045573 -2.565150 0.908163
1.105159 -2.556466 0.655112
0.928807 -2.487955 0.037933
0.923755 -2.476476 -0.028902
1.093311 -2.511660 0.077751
0.915123 -2.460360 -0.124688
1.090988 -2.506046 -0.040192
1.020807 -2.475228 -0.170539
1.021516 -2.489311 -0.076802
0.966786 -2.538214 0.546568
1.020320 -2.512435 0.153760
0.905854 -2.466928 -0.099929
1.009125 -2.474868 -0.187675
1.010922 -2.494390 -0.029022
0.956008 -2.565492 0.963983
0.901396 -2.522009 0.579046
1.067429 -2.536040 0.227969
0.896178 -2.529457 0.598832
0.893431 -2.546526 1.007556
0.997533 -2.508906 0.218584
0.936796 -2.482796 -0.014772
0.942005 -2.533706 0.612391
0.939535 -2.506978 0.218815
0.931578 -2.470011 -0.140598
1.058890 -2.560569 0.837525
0.933720 -2.503742 0.207812
0.930954 -2.487650 -0.021945
1.053883 -2.536157 0.412859
0.985854 -2.533028 0.629054
1.035528 -2.473533 -0.202211
0.921597 -2.472116 -0.136758
0.877134 -2.493221 0.181260
0.925121 -2.553186 1.038903
0.879510 -2.553627 1.011244
0.977019 -2.527736 0.480019
0.869914 -2.503268 0.272989
1.024840 -2.479767 -0.147454
1.021167 -2.467668 -0.242268
0.976174 -2.563061 0.900382
1.030755 -2.543345 0.645500
0.861272 -2.479010 0.035335
0.858240 -2.473509 -0.032603
0.849588 -2.456418 -0.127367
1.016740 -2.498806 0.079113
0.965006 -2.569616 1.060158
1.015377 -2.493239 -0.036819
0.951203 -2.469398 -0.168235
0.949914 -2.479482 -0.074437
0.897327 -2.526165 0.540008
0.840311 -2.464009 -0.101628
0.947774 -2.501533 0.153137
0.938495 -2.464064 -0.184275
0.940339 -2.486537 -0.027685
0.886629 -2.557364 0.954341
0.832030 -2.508830 0.566517
0.829733 -2.519385 0.591274
0.997043 -2.577875 1.073495
0.825152 -2.537244 0.990957
0.987911 -2.511077 0.224556
0.870015 -2.493009 0.215301
0.870622 -2.517550 0.600898
0.869234 -2.478920 -0.014475
0.928030 -2.504955 0.215852
0.865000 -2.465139 -0.140268
0.866231 -2.497749 0.203153
0.986483 -2.559531 0.831689
0.863423 -2.480708 -0.024583
0.975414 -2.518165 0.408312
0.918428 -2.528951 0.621348
0.812179 -2.536368 0.995828
0.852001 -2.460271 -0.135313
0.811664 -2.490206 0.175566
0.962882 -2.463777 -0.196857
0.855827 -2.542926 1.023311
0.804398 -2.494297 0.269423
0.904547 -2.518761 0.476361
0.952198 -2.470010 -0.142098
0.948504 -2.456937 -0.235892
0.794725 -2.470092 0.033759
0.960322 -2.537293 0.638797
0.902815 -2.550919 0.889779
0.791711 -2.462549 -0.036135
0.784040 -2.450505 -0.128994
0.892727 -2.552314 1.042676
0.947164 -2.496971 0.081337
0.880576 -2.456599 -0.164783
0.944786 -2.487410 -0.034522
0.877308 -2.463661 -0.071944
0.828875 -2.515122 0.533449
0.877218 -2.488636 0.152590
0.773761 -2.455098 -0.103201
0.868882 -2.456266 -0.180916
0.871767 -2.478665 -0.027313
0.817280 -2.540155 0.940902
0.765651 -2.502698 0.555885
0.764282 -2.507318 0.583779
0.919792 -2.549514 1.053186
0.803231 -2.507417 0.590335
0.803670 -2.472026 -0.015082
0.755899 -2.522926 0.972463
0.919373 -2.507173 0.223839
0.805481 -2.493105 0.214557
0.860514 -2.499008 0.213195
0.796412 -2.451276 -0.139760
0.800741 -2.492759 0.198506
0.794872 -2.467798 -0.026096
0.746817 -2.523180 0.983358
0.916068 -2.557498 0.825908
0.848022 -2.514842 0.611831
0.903921 -2.510216 0.405648
0.785416 -2.450406 -0.134865
0.744193 -2.477180 0.169073
0.791484 -2.541754 1.011593
0.895242 -2.461020 -0.191582
0.738890 -2.481309 0.264953
0.835070 -2.507767 0.471792
0.890881 -2.525225 0.631244
0.730191 -2.462156 0.031195
0.884584 -2.469230 -0.137864
0.881869 -2.457181 -0.230666
0.831451 -2.534760 0.878295
0.725196 -2.452597 -0.039679
0.826388 -2.546121 1.030040
0.716469 -2.431602 -0.130357
0.876588 -2.487123 0.082729
0.875184 -2.477587 -0.032118
0.814985 -2.455778 -0.162517
0.763405 -2.506103 0.527892
0.812732 -2.463813 -0.070687
0.706176 -2.435218 -0.103542
0.809675 -2.481740 0.151962
0.803262 -2.451468 -0.177563
0.804212 -2.470777 -0.027919
0.749911 -2.525995 0.929432
0.698265 -2.486553 0.544464
0.700833 -2.497255 0.576274
0.854398 -2.546408 1.044495
0.734841 -2.489271 0.578942
0.736093 -2.459164 -0.014574
0.692559 -2.521761 0.960770
0.736954 -2.477170 0.212118
0.792002 -2.486049 0.209687
0.847842 -2.493258 0.222310
0.730832 -2.442415 -0.139313
0.687397 -2.520077 0.974752
0.732245 -2.477781 0.194047
0.729321 -2.457889 -0.027627
0.778618 -2.496717 0.601421
0.839715 -2.536350 0.814474
0.720817 -2.441566 -0.133406
0.678697 -2.462180 0.163655
0.722222 -2.520421 0.992256
0.833416 -2.505316 0.404942
0.825613 -2.451250 -0.187171
0.677388 -2.479343 0.261303
0.769591 -2.504796 0.468109
0.664649 -2.447228 0.028778
0.819461 -2.508145 0.622786
0.662644 -2.441666 -0.042146
0.815944 -2.457458 -0.133397
0.813198 -2.445457 -0.224200
0.761074 -2.517629 0.867855
0.762022 -2.541977 1.019393
0.657937 -2.435669 -0.133097
0.747368 -2.441966 -0.159988
0.805590 -2.466769 -0.029682
0.698926 -2.498111 0.523336
0.805020 -2.474283 0.084185
0.744121 -2.448000 -0.068126
0.646632 -2.437308 -0.105249
0.743124 -2.475873 0.152335
0.736633 -2.439677 -0.174064
0.687496 -2.518900 0.920879
0.734631 -2.452921 -0.027325
0.636383 -2.482200 0.568874
0.635848 -2.481474 0.535874
0.791007 -2.542284 1.034857
0.673400 -2.488231 0.572275
0.673422 -2.467234 0.209618
0.671513 -2.448303 -0.014065
0.628243 -2.511540 0.946267
0.727491 -2.482111 0.207043
0.784308 -2.494359 0.221565
0.626981 -2.513982 0.966207
0.667261 -2.433535 -0.139834
0.667737 -2.464804 0.189601
0.663773 -2.445987 -0.029105
0.715166 -2.493700 0.595770
0.660847 -2.520302 0.982570
0.658243 -2.437707 -0.133020
0.616222 -2.457181 0.158068
0.765341 -2.517252 0.805032
0.611874 -2.459369 0.257001
0.759989 -2.447481 -0.182831
0.764916 -2.499399 0.403292
0.703098 -2.493833 0.464595
0.754014 -2.500107 0.616215
0.602098 -2.437323 0.027298
0.599128 -2.432722 -0.045657
0.749320 -2.450690 -0.129003
0.693677 -2.505545 0.859353
0.745553 -2.435715 -0.218753
0.694708 -2.524734 1.003999
0.593377 -2.420774 -0.134491
0.634456 -2.486104 0.517873
0.738981 -2.454955 -0.027180
0.683763 -2.436153 -0.157573
0.738453 -2.468443 0.085561
0.680523 -2.443185 -0.065732
0.583068 -2.422411 -0.106631
0.677565 -2.462988 0.151877
0.626065 -2.514853 0.914282
0.672036 -2.433868 -0.171658
0.672057 -2.448059 -0.026918
0.575911 -2.475189 0.563357
0.726624 -2.536167 1.025260
0.571455 -2.468361 0.525443
0.608978 -2.476159 0.563818
0.610887 -2.460324 0.208075
0.566583 -2.506871 0.956692
0.606942 -2.433427 -0.014460
0.661973 -2.468159 0.203610
0.562947 -2.498305 0.930828
0.716776 -2.482451 0.220061
0.601669 -2.415688 -0.139176
0.605236 -2.459851 0.186017
0.601215 -2.435086 -0.030562
0.652710 -2.485666 0.589245
0.598492 -2.514148 0.971011
0.553725 -2.443189 0.152681
0.593648 -2.420859 -0.132371
0.552362 -2.454412 0.253456
0.694332 -2.435740 -0.177311
0.695931 -2.506219 0.798489
0.698408 -2.492485 0.401696
0.689548 -2.490096 0.610707
0.541560 -2.429399 0.024807
0.637600 -2.480876 0.461145
0.536587 -2.415783 -0.048978
0.632326 -2.517604 0.993466
0.630225 -2.501553 0.854745
0.682685 -2.439932 -0.124504
0.680904 -2.429979 -0.213338
0.531821 -2.408862 -0.136897
0.570972 -2.472106 0.512487
0.618144 -2.422356 -0.154988
0.673382 -2.447149 -0.024728
0.616925 -2.434358 -0.064229
0.671858 -2.458635 0.088044
0.521504 -2.412523 -0.108074
0.562657 -2.501754 0.904879
0.613014 -2.455112 0.151350
0.518410 -2.472203 0.558811
0.609410 -2.425067 -0.169141
0.607460 -2.433213 -0.026295
0.661239 -2.521018 1.013870
0.509034 -2.457276 0.516019
0.508133 -2.499808 0.949226
0.546542 -2.466093 0.555369
0.547334 -2.443406 0.205762
0.546360 -2.425555 -0.014930
0.599435 -2.460237 0.201113
0.650207 -2.463554 0.218746
0.500605 -2.489118 0.917366
0.543072 -2.413840 -0.138751
0.541712 -2.443890 0.181687
0.539631 -2.425218 -0.030998
0.588264 -2.470601 0.580880
0.535131 -2.498959 0.957665
0.492217 -2.431207 0.147296
0.491818 -2.445490 0.251018
0.532058 -2.415018 -0.131888
0.628491 -2.490171 0.791112
0.629685 -2.427990 -0.172828
0.630885 -2.478563 0.399275
0.627054 -2.484113 0.606174
0.480989 -2.419510 0.023395
0.574083 -2.469925 0.457712
0.478052 -2.414849 -0.052557
0.569940 -2.506451 0.982040
0.565802 -2.488475 0.846339
0.617029 -2.425181 -0.119888
0.615227 -2.414253 -0.207700
0.473255 -2.405973 -0.138442
0.509465 -2.460128 0.508097
0.557531 -2.416533 -0.153500
0.609765 -2.438346 -0.022215
0.461946 -2.404613 -0.110521
0.553308 -2.423560 -0.061667
0.608270 -2.452806 0.089495
0.502209 -2.491693 0.897460
0.551430 -2.443235 0.150956
0.457926 -2.458181 0.552482
0.545789 -2.414274 -0.166577
0.600798 -2.518970 1.007272
0.546877 -2.430364 -0.025868
0.449578 -2.450232 0.508553
0.448708 -2.487702 0.939866
0.487774 -2.435505 0.204312
0.486084 -2.457048 0.547932
0.536886 -2.447317 0.198731
0.485776 -2.419709 -0.014433
0.588648 -2.459673 0.218180
0.440221 -2.482993 0.906870
0.483492 -2.408975 -0.139263
0.482181 -2.436947 0.178217
0.528788 -2.467594 0.575321
0.479058 -2.414330 -0.032393
0.473763 -2.487790 0.945262
0.432717 -2.424224 0.141833
0.473455 -2.409174 -0.131368
0.431296 -2.431527 0.246692
0.566557 -2.474106 0.600749
0.565028 -2.413244 -0.168192
0.423426 -2.411594 0.020974
0.564024 -2.485207 0.787539
0.566359 -2.470659 0.397765
0.511567 -2.461997 0.455229
0.509522 -2.496345 0.972622
0.419525 -2.412917 -0.056115
0.505331 -2.484483 0.841794
0.410654 -2.379099 -0.139509
0.554388 -2.418429 -0.115397
0.554588 -2.413502 -0.203315
0.450941 -2.456193 0.505578
0.495903 -2.405740 -0.150907
0.546161 -2.426527 -0.020627
0.404374 -2.399727 -0.112003
0.441766 -2.480637 0.890070
0.493699 -2.417737 -0.060159
0.400430 -2.450180 0.547064
0.543672 -2.438984 0.091114
0.488854 -2.433388 0.151518
0.541344 -2.513926 1.000755
0.486160 -2.407479 -0.164047
0.484275 -2.414525 -0.025178
0.391260 -2.480642 0.932428
0.389137 -2.439174 0.500171
0.427606 -2.453048 0.542417
0.428229 -2.430609 0.202807
0.426189 -2.408845 -0.014811
0.476339 -2.441421 0.197233
0.527086 -2.452797 0.217686
0.425917 -2.409111 -0.139853
0.378862 -2.471833 0.894480
0.422647 -2.427009 0.174820
0.469296 -2.462615 0.570813
0.419514 -2.408423 -0.034875
0.414357 -2.480689 0.935803
0.374191 -2.413266 0.137473
0.373748 -2.423606 0.244278
0.407803 -2.371374 -0.129233
0.506063 -2.471149 0.597185
0.505395 -2.410470 -0.164747
0.363865 -2.401711 0.019583
0.502527 -2.484287 0.785922
0.449125 -2.486222 0.962214
0.503812 -2.462780 0.397285
0.451035 -2.456092 0.453734
0.445826 -2.483560 0.840204
0.494762 -2.416654 -0.111971
0.393415 -2.452261 0.503078
0.436300 -2.400926 -0.149411
0.486561 -2.422705 -0.019158
0.384274 -2.477668 0.886550
0.342921 -2.440206 0.542697
0.434097 -2.411920 -0.058641
0.481074 -2.427164 0.092722
0.428273 -2.419520 0.151196
0.334812 -2.469564 0.924094
0.421466 -2.373744 -0.158988
0.424700 -2.407662 -0.025637
0.330688 -2.428118 0.491818
0.367150 -2.430971 0.533274
0.369656 -2.416716 0.201512
0.364563 -2.381013 -0.013839
0.416792 -2.431506 0.194838
0.464518 -2.434908 0.216424
0.363119 -2.412054 0.170538
0.319488 -2.458675 0.882162
0.409826 -2.453598 0.564399
0.358908 -2.385568 -0.034997
0.355959 -2.472570 0.925384
0.317212 -2.415667 0.240882
0.313679 -2.394297 0.132272
0.445569 -2.453132 0.590948
0.444750 -2.403725 -0.160218
0.391506 -2.447169 0.451321
0.437082 -2.466271 0.779635
0.440272 -2.451909 0.396868
0.383389 -2.463497 0.831996
0.334894 -2.436294 0.498831
0.435133 -2.411883 -0.108474
0.326806 -2.471661 0.881102
0.425928 -2.407912 -0.016457
0.286417 -2.433234 0.538284
0.368426 -2.369144 -0.055392
0.419458 -2.413369 0.095392
0.369689 -2.411675 0.151775
0.368118 -2.408820 -0.025227
0.270255 -2.405029 0.481711
0.310675 -2.429977 0.527733
0.311095 -2.399807 0.199290
0.356232 -2.411600 0.192654
0.405960 -2.432037 0.215895
0.261087 -2.451587 0.872734
0.305592 -2.410144 0.168008
0.351326 -2.444628 0.560004
0.293659 -2.432228 0.904618
0.256665 -2.373680 0.235180
0.388059 -2.453200 0.588368
0.330982 -2.430232 0.448078
0.378733 -2.434995 0.394609
0.376581 -2.462360 0.778111
0.325883 -2.463580 0.830422
0.276378 -2.424354 0.495507
0.269340 -2.454617 0.873896
0.230900 -2.422267 0.533974
0.369347 -2.414092 -0.015151
0.362864 -2.417567 0.097741
0.309106 -2.391819 0.151599
0.213785 -2.398023 0.475310
0.250230 -2.395871 0.516864
0.252530 -2.377905 0.197184
0.298673 -2.397692 0.190382
0.347379 -2.419171 0.215586
0.293833 -2.433640 0.554669
0.203679 -2.448523 0.864239
0.329549 -2.439234 0.584084
0.273427 -2.427380 0.448575
0.318188 -2.425129 0.394221
0.267393 -2.455627 0.827017
0.221833 -2.421452 0.494039
0.315101 -2.451414 0.774735
0.213846 -2.451658 0.870419
0.175392 -2.407283 0.528758
0.299238 -2.379746 0.098919
0.194737 -2.391907 0.512414
0.156319 -2.387026 0.468993
0.290805 -2.412305 0.215178
0.232407 -2.382453 0.540157
0.145294 -2.433403 0.852999
0.273032 -2.431289 0.580700
0.217873 -2.424506 0.448099
0.163346 -2.383395 0.485289
0.208940 -2.433573 0.818919
0.260621 -2.423303 0.395701
0.254609 -2.441493 0.772356
0.156402 -2.427582 0.861380
0.140233 -2.390969 0.508915
0.180846 -2.400632 0.542279
0.212577 -2.381147 0.568181
0.157364 -2.377481 0.440524
0.152416 -2.429692 0.818464
0.199084 -2.382345 0.390981
0.197081 -2.435613 0.771930
0.125339 -2.394698 0.538882
0.161988 -2.401368 0.572274
0.096908 -2.423769 0.816069
0.139563 -2.431738 0.771469
0.082039 -2.423868 0.771101
0.023560 -2.393881 0.765204
