# .PCD v0.7 - Point Cloud Data file format
VERSION 0.7
FIELDS x y z
SIZE 4 4 4
TYPE F F F
COUNT 1 1 1
WIDTH 28
HEIGHT 1
VIEWPOINT 0 0 0 1
POINTS 28
DATA ascii
2.837137 -0.937400 3.119680
2.801322 -0.998414 3.108766
2.839359 -1.039948 3.102864
2.741654 -1.047941 3.072433
2.814223 -1.296464 3.073520
2.799541 -1.100912 3.093881
2.823203 -1.371766 3.093076
2.761479 -1.344620 3.051121
2.730908 -1.148524 3.053411
2.753598 -1.415450 3.047444
2.798991 -1.155714 3.086693
2.726373 -1.203343 3.045162
2.827015 -1.708485 3.073965
2.753695 -1.458021 3.040119
2.747428 -1.747084 3.029038
2.771780 -1.552899 3.039946
2.735553 -1.745565 3.007917
-0.484730 -3.301545 1.429317
-0.890350 -3.365119 1.246418
-0.942829 -3.266754 1.215775
-0.978178 -3.268618 1.201355
-1.010546 -3.273473 1.175086
-1.090204 -3.267838 1.183040
-1.056762 -3.266479 1.143469
-1.140429 -3.264830 1.156425
-1.202032 -3.268356 1.111705
-1.367540 -3.253958 1.038582
-1.256605 -3.198834 1.096483
