# .PCD v0.7 - Point Cloud Data file format
VERSION 0.7
FIELDS x y z
SIZE 4 4 4
TYPE F F F
COUNT 1 1 1
WIDTH 37
HEIGHT 1
VIEWPOINT 0 0 0 1
POINTS 37
DATA ascii
2.150026 -1.657899 2.733572
2.365854 -1.836512 2.820319
2.175816 -1.613800 2.757276
1.971213 -1.471061 2.677350
2.174998 -1.633498 2.740246
2.294058 -1.837075 2.772623
2.082390 -1.682436 2.701822
2.272213 -1.851944 2.767689
2.109180 -1.638311 2.722509
1.923587 -1.502656 2.659503
2.115372 -1.662044 2.711446
3.046164 -2.513888 3.108098
1.935332 -1.448533 2.667190
2.222431 -1.863652 2.742887
2.010751 -1.702962 2.666111
2.728790 -2.184799 2.953017
2.206612 -1.885571 2.747920
1.962787 -1.512061 2.665994
2.049561 -1.667894 2.698718
1.860931 -1.521171 2.623753
2.055753 -1.690610 2.684659
1.889701 -1.479135 2.649340
2.489853 -1.955882 2.870227
2.628167 -2.205313 2.904393
2.678440 -2.251957 2.898104
1.918169 -1.544661 2.648142
1.983922 -1.689436 2.664979
2.272019 -1.749988 2.797157
1.843063 -1.507752 2.631508
2.564683 -2.086065 2.870727
2.421247 -1.988482 2.843453
2.206373 -1.772541 2.761389
2.492101 -2.119629 2.837973
2.347627 -2.015068 2.810722
2.424376 -1.972755 2.823278
2.150749 -1.803168 2.739582
2.360806 -2.008311 2.792491
