# .PCD v0.7 - Point Cloud Data file format
VERSION 0.7
FIELDS x y z
SIZE 4 4 4
TYPE F F F
COUNT 1 1 1
WIDTH 1069
HEIGHT 1
VIEWPOINT 0 0 0 1
POINTS 1069
DATA ascii
1.988496 -1.761838 3.057490
2.066420 -1.832934 3.080451
1.936817 -1.790181 3.031076
1.978620 -1.909551 3.060273
1.923992 -1.937822 3.035849
1.802152 -2.143076 2.975793
1.733702 -2.154313 2.937741
1.765399 -2.189391 2.936362
1.722855 -2.233146 2.931732
1.660891 -2.284644 2.908456
1.584274 -2.440612 2.880577
1.571431 -2.408087 2.863483
1.550092 -2.517715 2.856963
1.489818 -2.407250 2.796514
1.418084 -2.645739 2.803499
0.836503 -2.884398 -0.169008
0.837016 -2.902479 -0.096311
0.822338 -2.957254 -0.082017
0.891640 -2.998494 -0.083102
0.869448 -2.933751 -0.137585
0.828827 -2.916898 -0.031627
0.816873 -2.952015 -0.077770
0.749802 -2.831204 -0.161256
0.760329 -2.899990 0.086087
0.793208 -2.870892 -0.174734
0.796848 -2.883576 -0.192047
0.805554 -2.943473 -0.074524
0.825807 -2.933284 0.025147
0.772931 -2.933845 0.164461
0.750456 -2.847177 -0.092506
0.734788 -2.901937 -0.077215
0.773090 -2.958880 0.235931
0.729241 -2.826614 -0.212163
0.722405 -2.803129 -0.216594
0.799657 -2.932745 -0.085077
0.782098 -2.874332 -0.136687
0.782528 -2.877159 -0.177773
0.744955 -2.868675 -0.029990
0.731800 -2.999942 0.201261
0.728659 -2.889617 -0.074787
0.741436 -2.993915 0.186639
0.665260 -2.774162 -0.153372
0.708940 -2.813278 -0.186849
0.706032 -2.806627 -0.169689
0.747736 -2.994740 0.171767
0.670532 -2.829450 0.087286
0.718268 -2.883074 -0.073586
0.656758 -2.765559 -0.228232
0.649291 -2.741346 -0.256655
0.742158 -2.880964 0.022892
0.685746 -2.872342 0.162433
0.763025 -3.002552 0.142881
0.662689 -2.773887 -0.087218
0.649563 -2.838780 -0.072172
0.688605 -2.904424 0.230734
0.650086 -2.782807 -0.206588
0.714210 -2.876366 -0.087235
0.640831 -2.746233 -0.209689
0.698219 -2.815969 -0.175790
0.696720 -2.815082 -0.134764
0.649299 -2.934086 0.454482
0.664112 -2.819615 -0.029294
0.645629 -2.938481 0.198248
0.644374 -2.828429 -0.072791
0.696098 -2.927477 0.292413
0.656833 -2.942478 0.181367
0.624671 -2.745663 -0.165674
0.581327 -2.703191 -0.145098
0.630759 -2.770473 -0.183292
0.663271 -2.940285 0.165574
0.592172 -2.791579 0.089718
0.690532 -3.106814 0.548500
0.633363 -2.813808 -0.073381
0.576285 -2.705803 -0.219229
0.666088 -3.090193 0.567654
0.657061 -2.816614 0.020957
0.569774 -2.681700 -0.245646
0.638057 -3.085498 0.589424
0.605934 -2.823278 0.161146
0.671681 -2.924678 0.134250
0.585633 -2.728140 -0.083566
0.569841 -2.785936 -0.067349
0.606528 -2.840132 0.225830
0.630212 -2.809132 -0.088080
0.565461 -2.704826 -0.198133
0.558781 -2.677381 -0.201455
0.617032 -2.762126 -0.133950
0.616755 -2.757959 -0.173856
0.565148 -2.873584 0.446470
0.582074 -2.752537 -0.028116
0.564129 -2.883324 0.196116
0.565704 -2.774589 -0.069935
0.578256 -2.897266 0.519109
0.615647 -2.872181 0.284278
0.574709 -2.879236 0.177442
0.552324 -2.710694 -0.179275
0.583575 -2.890110 0.159317
0.549503 -2.702044 -0.162060
0.579670 -2.917234 0.586719
0.504696 -2.646620 -0.137139
0.602150 -3.032787 0.529800
0.512187 -2.723583 0.089950
0.555580 -2.762964 -0.072598
0.581112 -2.769758 0.018641
0.631312 -3.041123 0.494999
0.580289 -3.024383 0.551762
0.500455 -2.653314 -0.210372
0.493972 -2.628247 -0.235761
0.555725 -3.029980 0.577291
0.530175 -2.772427 0.158948
0.592976 -2.874532 0.126996
0.507409 -2.663402 -0.078406
0.488969 -2.714074 -0.062014
0.532301 -2.800297 0.221349
0.554253 -2.762333 -0.089393
0.489967 -2.645277 -0.192087
0.539345 -2.698160 -0.172832
0.484133 -2.620903 -0.194482
0.534582 -2.681103 -0.131401
0.503991 -2.685694 -0.026902
0.484093 -2.810280 0.438569
0.487528 -2.709783 -0.067771
0.485570 -2.829325 0.192988
0.498265 -2.832922 0.508238
0.538277 -2.814106 0.277252
0.496200 -2.824214 0.173337
0.503164 -2.864032 0.574575
0.474454 -2.637980 -0.174896
0.471745 -2.626362 -0.156601
0.502685 -2.821916 0.153541
0.434309 -2.606364 -0.130557
0.521898 -2.975352 0.515735
0.437728 -2.664926 0.090987
0.476741 -2.691078 -0.072252
0.503966 -2.704881 0.016806
0.549107 -2.983534 0.478917
0.499988 -2.967977 0.538674
0.430263 -2.608110 -0.202656
0.475056 -2.959529 0.563579
0.425454 -2.590130 -0.228220
0.453010 -2.708543 0.157098
0.517733 -2.835654 0.121481
0.513719 -2.885164 0.634321
0.438834 -2.628119 -0.075947
0.414679 -2.650545 -0.057841
0.454529 -2.728296 0.216707
0.475546 -2.687438 -0.089969
0.419930 -2.597030 -0.186290
0.462801 -2.628612 -0.130516
0.416543 -2.584779 -0.188989
0.462383 -2.627478 -0.169502
0.424833 -2.879271 0.888474
0.429692 -2.623074 -0.025759
0.407175 -2.743193 0.429812
0.408743 -2.758420 0.189334
0.414021 -2.651272 -0.064728
0.422900 -2.775875 0.498219
0.460385 -2.745986 0.268500
0.421783 -2.766403 0.168348
0.462393 -3.119107 1.024556
0.427108 -2.800837 0.560725
0.427489 -2.759047 0.147694
0.404183 -2.590165 -0.154091
0.404317 -2.592659 -0.172162
0.366266 -2.557261 -0.123698
0.428560 -3.111167 1.047393
0.442725 -2.915987 0.500757
0.406027 -2.636660 -0.071282
0.429767 -2.640190 0.015015
0.367661 -2.618556 0.092756
0.421958 -2.904700 0.524813
0.468089 -2.921053 0.463002
0.363576 -2.573117 -0.195162
0.397104 -2.894288 0.550778
0.353201 -2.522924 -0.217903
0.439321 -2.755579 0.114063
0.381443 -2.651978 0.155123
0.440172 -2.832095 0.620218
0.368330 -2.567810 -0.071808
0.383076 -2.669650 0.211787
0.345721 -2.600321 -0.053954
0.402300 -2.622856 -0.090746
0.354249 -2.562014 -0.181784
0.393775 -2.580301 -0.129691
0.350244 -2.540760 -0.183246
0.394918 -2.589222 -0.169933
0.362645 -2.574853 -0.024916
0.347101 -2.810817 0.868772
0.414102 -3.067281 0.977708
0.445238 -3.075680 0.941914
0.336078 -2.699556 0.424507
0.339088 -2.702971 0.187354
0.342839 -2.583890 -0.062399
0.351289 -2.722090 0.489175
0.359842 -2.843393 0.939163
0.390511 -2.696393 0.262350
0.383848 -3.048383 0.996895
0.350386 -2.705816 0.164490
0.355052 -2.735880 0.546958
0.356027 -2.700430 0.142767
0.338738 -2.550109 -0.151459
0.338914 -2.551608 -0.169504
0.349590 -3.028367 1.018044
0.360360 -2.862182 1.002797
0.367006 -2.844807 0.485125
0.296354 -2.482099 -0.116151
0.338094 -2.586388 -0.071399
0.360252 -2.580796 0.014124
0.347175 -2.834595 0.510164
0.299900 -2.564306 0.093756
0.392062 -2.856861 0.447175
0.324860 -2.833395 0.538907
0.292004 -2.489944 -0.185411
0.288348 -2.467112 -0.207835
0.310474 -2.581449 0.152528
0.365950 -2.695821 0.107149
0.367165 -2.767005 0.603441
0.304340 -2.539859 -0.068482
0.314436 -2.614205 0.207804
0.280404 -2.557308 -0.050233
0.336051 -2.579651 -0.092040
0.330045 -2.547253 -0.130235
0.285275 -2.488833 -0.177285
0.285976 -2.494925 -0.175442
0.330314 -2.553166 -0.169403
0.298727 -2.545849 -0.023562
0.276261 -2.763940 0.855545
0.334883 -2.990468 0.947195
0.364035 -2.998771 0.911382
0.270573 -2.644579 0.184459
0.265685 -2.639956 0.418631
0.279051 -2.551904 -0.060962
0.321233 -2.633803 0.254547
0.282549 -2.670506 0.481091
0.287680 -2.783244 0.919275
0.307422 -2.974798 0.969323
0.281064 -2.643360 0.160694
0.287940 -2.692373 0.538667
0.285914 -2.633882 0.137071
0.274530 -2.946797 0.988702
0.272421 -2.484064 -0.147132
0.272554 -2.486563 -0.165204
0.291257 -2.821325 0.987415
0.294744 -2.784890 0.471229
0.236032 -2.460415 -0.110955
0.296811 -2.541701 0.011746
0.274319 -2.554383 -0.070962
0.275302 -2.765696 0.496515
0.318945 -2.793877 0.432349
0.255311 -2.778697 0.527901
0.236881 -2.537381 0.096070
0.229520 -2.449192 -0.178720
0.228882 -2.448486 -0.202713
0.298755 -2.709259 0.589513
0.295870 -2.628283 0.101475
0.246808 -2.547399 0.152024
0.303200 -2.834332 1.041380
0.239833 -2.477902 -0.064245
0.248847 -2.556938 0.203901
0.273116 -2.551642 -0.093706
0.264651 -2.483205 -0.127957
0.264834 -2.491121 -0.167179
0.223675 -2.451075 -0.172669
0.224334 -2.458165 -0.170853
0.233673 -2.474751 -0.023088
0.259083 -2.903804 0.914982
0.206085 -2.703017 0.838708
0.286882 -2.920072 0.879940
0.205909 -2.588433 0.182540
0.255891 -2.571461 0.247774
0.199257 -2.580554 0.411787
0.213916 -2.481900 -0.057512
0.216958 -2.615078 0.472140
0.219411 -2.724350 0.900391
0.234832 -2.903496 0.943730
0.216380 -2.588160 0.156746
0.223132 -2.641951 0.528585
0.206092 -2.891902 0.969707
0.224154 -2.759371 0.964615
0.220298 -2.577615 0.132144
0.211665 -2.450296 -0.144616
0.212543 -2.458808 -0.163844
0.227360 -2.726272 0.458343
0.208734 -2.472305 -0.069195
0.210098 -2.724301 0.487189
0.176928 -2.433790 -0.106612
0.230653 -2.473530 0.011132
0.188896 -2.720184 0.517027
0.247977 -2.727032 0.417651
0.171663 -2.470315 0.097449
0.235728 -2.663864 0.577304
0.238181 -2.791593 1.022080
0.231118 -2.575037 0.095470
0.182966 -2.472272 0.149622
0.180069 -2.444183 -0.061719
0.189658 -2.534104 0.202133
0.208140 -2.478580 -0.093178
0.204063 -2.446370 -0.128360
0.176240 -2.456120 -0.021950
0.191227 -2.857996 0.896749
0.215517 -2.864981 0.857924
0.143781 -2.542443 0.180376
0.195196 -2.538467 0.243264
0.140115 -2.657507 0.827499
0.136279 -2.532410 0.406676
0.154749 -2.672752 0.884347
0.153302 -2.560777 0.463183
0.166650 -2.843559 0.921875
0.153949 -2.549163 0.154391
0.141116 -2.847324 0.954469
0.160444 -2.588633 0.517604
0.159814 -2.701642 0.943732
0.158736 -2.541636 0.128713
0.161726 -2.672802 0.446343
0.146468 -2.669954 0.476229
0.174035 -2.459859 0.009142
0.126186 -2.666937 0.508048
0.181577 -2.668499 0.404775
0.172778 -2.616534 0.566157
0.173905 -2.732807 0.999219
0.113540 -2.444686 0.099777
0.168834 -2.533001 0.091192
0.124827 -2.447578 0.149922
0.129094 -2.475137 0.198326
0.123946 -2.800134 0.874850
0.134753 -2.477420 0.236509
0.083342 -2.480528 0.177659
0.145894 -2.793867 0.831356
0.101888 -2.794937 0.903751
0.076123 -2.612127 0.816308
0.075776 -2.473354 0.399881
0.094127 -2.537956 0.461424
0.092365 -2.635469 0.873946
0.093560 -2.486226 0.150697
0.076859 -2.787668 0.934648
0.100376 -2.542559 0.509456
0.097380 -2.645093 0.924840
0.098357 -2.478676 0.124018
0.098552 -2.608450 0.433658
0.084672 -2.618755 0.466205
0.066209 -2.618881 0.499956
0.062344 -2.341833 -0.094844
0.112540 -2.553245 0.551459
0.112363 -2.679214 0.977247
0.116984 -2.614090 0.391811
0.057501 -2.336810 -0.159760
0.055703 -2.316136 -0.180224
0.109653 -2.488112 0.086019
0.068790 -2.420010 0.150318
0.072510 -2.438424 0.194960
0.042152 -2.380590 -0.036984
0.051961 -2.332614 -0.157548
0.051460 -2.321558 -0.158255
0.059394 -2.726294 0.848404
0.079499 -2.455775 0.232747
0.080453 -2.739135 0.809390
0.039799 -2.731357 0.882052
0.041941 -2.373099 -0.053657
0.016016 -2.567993 0.806117
0.032198 -2.593268 0.861698
0.034907 -2.472895 0.451800
0.018650 -2.448699 0.399196
0.016105 -2.737327 0.918608
0.042095 -2.479453 0.496782
0.038584 -2.616040 0.915248
0.041517 -2.320697 -0.137189
0.039684 -2.558393 0.422628
0.041521 -2.326203 -0.155343
0.024536 -2.552604 0.454601
0.006937 -2.555770 0.488280
0.037668 -2.366459 -0.069414
0.056767 -2.543581 0.548372
0.053611 -2.628870 0.958216
0.008736 -2.302541 -0.090105
0.056492 -2.555931 0.379983
0.004478 -2.306590 -0.154260
0.002553 -2.288915 -0.174804
0.011069 -2.310695 -0.052166
-0.012283 -2.338209 -0.034168
0.037023 -2.351643 -0.096841
0.033805 -2.320657 -0.126042
0.033494 -2.316593 -0.163948
-0.000651 -2.293359 -0.153804
0.008319 -2.322488 -0.019393
-0.002193 -2.283285 -0.153542
-0.001436 -2.677951 0.831312
0.022639 -2.403015 0.227811
-0.019673 -2.675020 0.863185
0.017242 -2.678542 0.787605
-0.011627 -2.333737 -0.051917
-0.042048 -2.673995 0.897941
-0.020337 -2.429170 0.445639
-0.025583 -2.542150 0.847711
-0.043300 -2.527987 0.797828
-0.037887 -2.411040 0.396870
-0.012910 -2.430674 0.488755
-0.018699 -2.575973 0.901965
-0.011167 -2.283418 -0.134498
-0.018080 -2.505447 0.412692
-0.011320 -2.292894 -0.153760
-0.048277 -2.533176 0.485550
-0.032139 -2.497678 0.443727
0.006916 -2.332112 0.005539
0.000047 -2.468429 0.531030
-0.015631 -2.321086 -0.068512
-0.044195 -2.270342 -0.084545
-0.047200 -2.268425 -0.149533
-0.051715 -2.318260 0.104186
-0.048939 -2.245815 -0.167940
-0.004470 -2.391650 0.076903
-0.040207 -2.340037 0.149815
-0.041094 -2.284448 -0.049764
-0.065043 -2.302936 -0.031525
-0.016465 -2.311221 -0.098074
-0.018584 -2.277314 -0.126188
-0.018252 -2.281289 -0.164306
-0.044332 -2.285158 -0.018698
-0.053087 -2.250139 -0.149945
-0.053600 -2.262123 -0.150270
-0.060520 -2.634755 0.815102
-0.080395 -2.367004 0.174729
-0.078025 -2.636945 0.849844
-0.098170 -2.630019 0.884776
-0.064375 -2.298445 -0.050276
-0.044002 -2.639281 0.772272
-0.073850 -2.390612 0.441357
-0.082857 -2.522382 0.842895
-0.070690 -2.362573 0.144028
-0.066063 -2.428283 0.488503
-0.098530 -2.443736 0.774760
-0.073682 -2.528985 0.886888
-0.065888 -2.355928 0.113320
-0.062033 -2.250223 -0.132900
-0.058106 -2.551835 0.929583
-0.062674 -2.247702 -0.150842
-0.053416 -2.429751 0.522744
-0.045923 -2.299726 0.004097
-0.067283 -2.283793 -0.068811
-0.093985 -2.234279 -0.079856
-0.097947 -2.231359 -0.143822
-0.103871 -2.292022 0.106592
-0.098915 -2.213789 -0.162360
-0.057827 -2.349149 0.072726
-0.092279 -2.312711 0.149247
-0.091842 -2.248286 -0.047082
-0.088824 -2.315926 0.188288
-0.115232 -2.276811 -0.029109
-0.067909 -2.268945 -0.098239
-0.069440 -2.244102 -0.125590
-0.069108 -2.248082 -0.163708
-0.094410 -2.256975 -0.018227
-0.102908 -2.215066 -0.146283
-0.103379 -2.226052 -0.146582
-0.117077 -2.579619 0.796233
-0.081708 -2.332083 0.219095
-0.130369 -2.336783 0.174253
-0.151821 -2.596301 0.875357
-0.133892 -2.587926 0.833819
-0.115323 -2.267263 -0.048728
-0.102493 -2.583063 0.753417
-0.134881 -2.433213 0.816980
-0.122351 -2.326224 0.141706
-0.126238 -2.451819 0.861642
-0.153432 -2.435346 0.777663
-0.111819 -2.520048 0.918110
-0.117465 -2.317586 0.111052
-0.111742 -2.213106 -0.131183
-0.105503 -2.404255 0.517120
-0.112639 -2.216580 -0.149288
-0.096104 -2.274490 0.002485
-0.118033 -2.248571 -0.069153
-0.143130 -2.206276 -0.075377
-0.145737 -2.194447 -0.138093
-0.151886 -2.238924 0.107753
-0.145935 -2.181916 -0.156761
-0.109778 -2.319777 0.069212
-0.141340 -2.261506 0.148346
-0.139677 -2.213279 -0.044408
-0.137928 -2.288728 0.186738
-0.162593 -2.230823 -0.026134
-0.118733 -2.235706 -0.099636
-0.118267 -2.209979 -0.125950
-0.119006 -2.215920 -0.164127
-0.150315 -2.193105 -0.143956
-0.150073 -2.187139 -0.142793
-0.143160 -2.220875 -0.017531
-0.171218 -2.535769 0.782085
-0.185790 -2.538145 0.818846
-0.178827 -2.294621 0.173114
-0.131076 -2.288781 0.214973
-0.204313 -2.538406 0.857601
-0.161632 -2.220273 -0.047722
-0.175930 -2.313778 0.431834
-0.187871 -2.426873 0.817840
-0.157027 -2.527030 0.733588
-0.171583 -2.302043 0.140075
-0.193599 -2.296844 0.389044
-0.207690 -2.413844 0.774926
-0.203785 -2.395547 0.463336
-0.188727 -2.384102 0.423855
-0.167313 -2.285325 0.107635
-0.176819 -2.374605 0.387265
-0.158637 -2.179166 -0.128530
-0.159478 -2.181618 -0.147607
-0.144403 -2.228353 0.001451
-0.165970 -2.216528 -0.068560
-0.189661 -2.163405 -0.070474
-0.164260 -2.378951 0.343398
-0.193725 -2.162531 -0.133495
-0.192781 -2.146076 -0.151049
-0.200469 -2.198864 0.109566
-0.158807 -2.268522 0.065309
-0.190698 -2.239414 0.149664
-0.187424 -2.176303 -0.041674
-0.185605 -2.251586 0.184469
-0.209138 -2.188900 -0.023258
-0.165618 -2.202663 -0.101011
-0.165993 -2.172958 -0.125220
-0.165365 -2.169957 -0.163149
-0.189939 -2.184886 -0.016821
-0.198321 -2.162142 -0.141386
-0.222104 -2.464834 0.759691
-0.197921 -2.152208 -0.139113
-0.178728 -2.251585 0.210702
-0.226342 -2.253529 0.171958
-0.209623 -2.189275 -0.046151
-0.225113 -2.288590 0.430234
-0.216265 -2.304027 0.468974
-0.219944 -2.257891 0.137994
-0.210276 -2.464084 0.713962
-0.251996 -2.349258 0.457310
-0.245423 -2.285698 0.392052
-0.260363 -2.379354 0.769553
-0.236915 -2.337762 0.415828
-0.214592 -2.239197 0.104612
-0.226122 -2.331221 0.379150
-0.205615 -2.153689 -0.147108
-0.205516 -2.145228 -0.126871
-0.190646 -2.180331 0.000487
-0.212650 -2.178536 -0.068793
-0.236920 -2.137539 -0.066032
-0.213956 -2.322468 0.332631
-0.239829 -2.132723 -0.128939
-0.239028 -2.119293 -0.145575
-0.247826 -2.175920 0.111925
-0.237329 -2.200403 0.149459
-0.207716 -2.237341 0.061872
-0.233401 -2.144405 -0.040064
-0.232980 -2.207483 0.182395
-0.256026 -2.154996 -0.020597
-0.212473 -2.168677 -0.101355
-0.212040 -2.143015 -0.125660
-0.212483 -2.141976 -0.163647
-0.243136 -2.125367 -0.137626
-0.236681 -2.147930 -0.016071
-0.242865 -2.118429 -0.135436
-0.274524 -2.227473 0.171402
-0.227998 -2.228413 0.208058
-0.255657 -2.158389 -0.044559
-0.265352 -2.276810 0.465441
-0.273984 -2.256387 0.426839
-0.266436 -2.215850 0.135882
-0.298558 -2.310073 0.451117
-0.291395 -2.232565 0.387247
-0.285822 -2.306537 0.411405
-0.252140 -2.289152 0.494381
-0.261434 -2.205150 0.102283
-0.276046 -2.300930 0.373696
-0.250618 -2.115395 -0.125298
-0.251533 -2.119823 -0.145430
-0.237807 -2.153311 -0.001032
-0.258512 -2.143637 -0.068088
-0.282223 -2.111755 -0.062564
-0.283980 -2.102994 -0.125356
-0.264778 -2.290117 0.326228
-0.293974 -2.147051 0.114472
-0.285422 -2.095505 -0.141164
-0.283137 -2.164456 0.149197
-0.254090 -2.192289 0.058845
-0.278442 -2.112599 -0.037430
-0.279164 -2.180492 0.180886
-0.301200 -2.126191 -0.018043
-0.259186 -2.130698 -0.102566
-0.257990 -2.110098 -0.126009
-0.257292 -2.105137 -0.162883
-0.281997 -2.123061 -0.015634
-0.288439 -2.099571 -0.135161
-0.288253 -2.094630 -0.133025
-0.274045 -2.198396 0.205623
-0.320336 -2.191534 0.171136
-0.300416 -2.120548 -0.043764
-0.309650 -2.230700 0.458452
-0.312622 -2.188878 0.134369
-0.319436 -2.213318 0.422765
-0.345525 -2.278976 0.447707
-0.317121 -2.407883 0.693874
-0.299297 -2.262980 0.488832
-0.333807 -2.276375 0.406963
-0.336772 -2.187537 0.384231
-0.307394 -2.173164 0.099907
-0.324018 -2.270745 0.368253
-0.295851 -2.088554 -0.124804
-0.295538 -2.087060 -0.143768
-0.282756 -2.120404 -0.002377
-0.302445 -2.109813 -0.068398
-0.325237 -2.078110 -0.057868
-0.326823 -2.065366 -0.120549
-0.313953 -2.264891 0.320643
-0.327237 -2.056922 -0.136326
-0.339013 -2.115249 0.117104
-0.328236 -2.134591 0.149772
-0.299997 -2.159287 0.055496
-0.322414 -2.078861 -0.034738
-0.325536 -2.157546 0.180264
-0.345601 -2.102442 -0.015626
-0.304394 -2.103811 -0.104074
-0.386755 -2.385062 0.773834
-0.302183 -2.082282 -0.126484
-0.326244 -2.096260 -0.015135
-0.302514 -2.078285 -0.163390
-0.375847 -2.377398 0.732189
-0.332543 -2.068848 -0.132551
-0.365780 -2.169668 0.171491
-0.332242 -2.060938 -0.129332
-0.318521 -2.155411 0.201553
-0.346006 -2.101734 -0.042490
-0.355476 -2.196611 0.453133
-0.356367 -2.151028 0.133169
-0.364261 -2.178333 0.419480
-0.391509 -2.247947 0.444304
-0.342500 -2.214882 0.479903
-0.364983 -2.355376 0.678028
-0.380764 -2.245283 0.402555
-0.352369 -2.141246 0.097538
-0.384053 -2.162573 0.384662
-0.369520 -2.229632 0.361125
-0.338956 -2.057850 -0.123189
-0.404594 -2.253444 0.747188
-0.339629 -2.056320 -0.142158
-0.326905 -2.091583 -0.002824
-0.347707 -2.083965 -0.068930
-0.368625 -2.053450 -0.054417
-0.370312 -2.042740 -0.116153
-0.360531 -2.225743 0.313453
-0.383413 -2.091501 0.119522
-0.370524 -2.029332 -0.130791
-0.372221 -2.101796 0.150438
-0.346089 -2.130334 0.053039
-0.367104 -2.062096 -0.033512
-0.368109 -2.115721 0.178181
-0.387287 -2.061796 -0.013729
-0.433283 -2.345795 0.763645
-0.345975 -2.061117 -0.104127
-0.345107 -2.047567 -0.125760
-0.370405 -2.067488 -0.014579
-0.407193 -2.123904 0.169525
-0.345424 -2.043550 -0.163665
-0.423161 -2.334046 0.720106
-0.362598 -2.125528 0.199134
-0.375619 -2.037191 -0.129907
-0.374332 -2.029320 -0.126684
-0.400618 -2.168661 0.450655
-0.387681 -2.061069 -0.041594
-0.434064 -2.207001 0.438194
-0.401628 -2.125173 0.132636
-0.409287 -2.147419 0.418085
-0.387574 -2.185875 0.475451
-0.422065 -2.198364 0.395613
-0.413373 -2.313990 0.665884
-0.395375 -2.109433 0.095180
-0.427963 -2.128717 0.383357
-0.414052 -2.188614 0.355004
-0.380905 -2.023217 -0.121458
-0.381650 -2.023661 -0.141481
-0.369927 -2.059807 -0.004181
-0.389772 -2.052296 -0.068282
-0.411856 -2.024846 -0.049854
-0.412588 -2.015158 -0.112613
-0.412887 -2.003752 -0.127306
-0.426514 -2.060802 0.121140
-0.404981 -2.182736 0.307385
-0.414094 -2.066084 0.150197
-0.389899 -2.094471 0.049786
-0.411084 -2.082935 0.176852
-0.410294 -2.033414 -0.031949
-0.431008 -2.045125 -0.011498
-0.475340 -2.295629 0.749781
-0.390371 -2.038316 -0.105735
-0.451799 -2.105150 0.170804
-0.466149 -2.282820 0.705265
-0.387031 -2.012892 -0.126029
-0.412426 -2.034826 -0.013902
-0.415611 -2.002681 -0.127165
-0.405461 -2.090691 0.195859
-0.387406 -2.009906 -0.162962
-0.415452 -1.997792 -0.123029
-0.442520 -2.134813 0.446357
-0.474664 -2.166186 0.433094
-0.431262 -2.041385 -0.040280
-0.443390 -2.087428 0.130450
-0.453545 -2.121566 0.416559
-0.430393 -2.150930 0.469175
-0.464811 -2.161468 0.390393
-0.458394 -2.263718 0.652005
-0.438210 -2.073653 0.092935
-0.456886 -2.153721 0.349728
-0.472250 -2.102928 0.383832
-0.421956 -1.990645 -0.119775
-0.422701 -1.991092 -0.139798
-0.413179 -2.033076 -0.004674
-0.430795 -2.019666 -0.068600
-0.453234 -1.999314 -0.046364
-0.453795 -1.985643 -0.109012
-0.451891 -1.968377 -0.121530
-0.467574 -2.028235 0.123823
-0.457629 -2.045387 0.151539
-0.446191 -2.133833 0.299499
-0.430553 -2.053787 0.047686
-0.450373 -2.000904 -0.029262
-0.451918 -2.046259 0.175644
-0.473316 -2.018532 -0.008986
-0.520000 -2.258522 0.740550
-0.490488 -2.064571 0.169717
-0.432555 -2.009654 -0.106168
-0.452564 -2.004262 -0.013270
-0.447785 -2.065931 0.193314
-0.510653 -2.242671 0.694117
-0.428186 -1.983274 -0.126429
-0.427491 -1.978334 -0.163303
-0.456806 -1.973149 -0.124564
-0.456776 -1.971255 -0.120510
-0.484423 -2.100989 0.442062
-0.517755 -2.136378 0.430682
-0.471185 -2.005840 -0.039510
-0.483111 -2.047816 0.129331
-0.495563 -2.089799 0.414209
-0.472185 -2.115053 0.462933
-0.507833 -2.130616 0.386009
-0.498637 -2.116870 0.343515
-0.479134 -2.039001 0.091672
-0.513137 -2.067270 0.383598
-0.503888 -2.223539 0.640852
-0.463297 -1.965061 -0.119284
-0.462971 -1.963552 -0.139247
-0.454363 -2.004424 -0.006102
-0.473121 -1.994037 -0.068115
-0.491226 -1.963936 -0.042582
-0.492990 -1.955229 -0.105373
-0.491215 -1.940961 -0.117973
-0.500082 -2.022730 0.151941
-0.510054 -2.005637 0.126226
-0.492431 -2.108869 0.294936
-0.494486 -2.026568 0.174963
-0.475024 -2.032981 0.045024
-0.491684 -1.974345 -0.027743
-0.513555 -1.990017 -0.007408
-0.529453 -2.030032 0.169464
-0.470242 -1.968190 -0.106224
-0.488868 -2.035243 0.190940
-0.554332 -2.205636 0.684892
-0.493775 -1.975682 -0.012696
-0.468401 -1.954717 -0.126851
-0.468907 -1.954736 -0.163867
-0.497191 -1.947671 -0.122068
-0.496046 -1.942819 -0.117927
-0.556533 -2.098712 0.426512
-0.527746 -2.076215 0.440513
-0.525726 -2.029143 0.128621
-0.511340 -1.975337 -0.037876
-0.537741 -2.061104 0.413775
-0.514367 -2.087266 0.459470
-0.548757 -2.096871 0.381718
-0.521520 -2.015317 0.090101
-0.542878 -2.091028 0.339988
-0.555372 -2.039611 0.384138
-0.552258 -2.202438 0.635164
-0.502468 -1.934610 -0.117645
-0.503286 -1.937034 -0.138723
-0.494306 -1.969845 -0.007359
-0.513337 -1.965489 -0.068536
-0.531624 -1.938487 -0.039086
-0.532274 -1.926834 -0.101789
-0.531672 -1.916550 -0.113505
-0.551510 -1.982102 0.128660
-0.539020 -1.987234 0.152717
-0.534612 -1.995995 0.174596
-0.535404 -2.077034 0.289580
-0.517356 -2.008285 0.042480
-0.529667 -1.938964 -0.024961
-0.550466 -1.952680 -0.004566
-0.571854 -2.006383 0.168894
-0.599575 -2.180674 0.679329
-0.530084 -2.007576 0.188484
-0.511518 -1.941588 -0.107705
-0.532890 -1.944207 -0.012030
-0.535421 -1.918273 -0.120452
-0.535491 -1.918400 -0.115454
-0.507476 -1.922254 -0.126157
-0.509084 -1.925211 -0.164260
-0.596659 -2.069043 0.423115
-0.568857 -2.046500 0.437112
-0.567057 -2.003543 0.128109
-0.550542 -1.945868 -0.037266
-0.579011 -2.034443 0.412291
-0.555366 -2.055498 0.454124
-0.588756 -2.064213 0.378403
-0.561710 -1.986718 0.087679
-0.582636 -2.053334 0.334813
-0.597742 -2.014971 0.384594
-0.541887 -1.910146 -0.117171
-0.594717 -2.160439 0.624082
-0.542548 -1.908607 -0.137139
-0.534654 -1.944302 -0.007864
-0.550168 -1.927095 -0.068667
-0.569882 -1.909144 -0.035470
-0.570663 -1.900496 -0.098256
-0.572423 -1.899122 -0.110231
-0.579524 -1.964725 0.154128
-0.588407 -1.944740 0.130503
-0.575001 -1.971436 0.174062
-0.577452 -2.046288 0.285200
-0.570215 -1.917481 -0.023577
-0.555018 -1.966794 0.040426
-0.588741 -1.924286 -0.002978
-0.611101 -1.977906 0.169475
-0.571109 -1.914789 -0.011414
-0.640019 -2.137770 0.668287
-0.568988 -1.972022 0.186260
-0.574914 -1.894875 -0.118007
-0.636992 -2.043441 0.421605
-0.550698 -1.912091 -0.109093
-0.546884 -1.897775 -0.126684
-0.577115 -1.898894 -0.114129
-0.548321 -1.896747 -0.164677
-0.609102 -2.018895 0.435660
-0.588719 -1.915462 -0.036622
-0.604889 -1.966052 0.125946
-0.621428 -2.010813 0.412719
-0.595583 -2.027838 0.450671
-0.629818 -2.033514 0.374030
-0.600716 -1.953215 0.086399
-0.623786 -2.024638 0.330384
-0.635640 -1.978502 0.384404
-0.581325 -1.885731 -0.115699
-0.581972 -1.884170 -0.136666
-0.638509 -2.125495 0.615802
-0.572719 -1.911844 -0.009166
-0.589419 -1.898658 -0.068083
-0.610520 -1.888756 -0.031114
-0.610216 -1.878134 -0.094839
-0.609874 -1.873842 -0.106722
-0.617614 -1.932308 0.154826
-0.627856 -1.920328 0.132974
-0.613122 -1.939987 0.173732
-0.608668 -1.893099 -0.022100
-0.618433 -2.013610 0.280881
-0.596287 -1.940189 0.037943
-0.627064 -1.896913 -0.001418
-0.649352 -1.949463 0.169061
-0.680912 -2.103978 0.660992
-0.674882 -2.007881 0.417385
-0.610535 -1.890347 -0.010942
-0.611657 -1.954399 0.185521
-0.613353 -1.868642 -0.111477
-0.614398 -1.871474 -0.116563
-0.592241 -1.891527 -0.110741
-0.586168 -1.870327 -0.127128
-0.586577 -1.868343 -0.165088
-0.647093 -1.985349 0.432384
-0.643186 -1.938615 0.125504
-0.628204 -1.892053 -0.035179
-0.636978 -2.004181 0.448102
-0.660520 -1.979284 0.411382
-0.671273 -2.010900 0.372431
-0.637785 -1.920782 0.084102
-0.663926 -1.995032 0.326986
-0.677136 -1.955969 0.385807
-0.620797 -1.862312 -0.115254
-0.621474 -1.861727 -0.137249
-0.612176 -1.888381 -0.009722
-0.629007 -1.878202 -0.068723
-0.647918 -1.862462 -0.028578
-0.680236 -2.088635 0.606587
-0.649804 -1.856767 -0.092452
-0.648230 -1.846552 -0.103162
-0.667413 -1.897957 0.136387
-0.657041 -1.907860 0.155296
-0.654737 -1.920453 0.174052
-0.649415 -1.875677 -0.019830
-0.665536 -1.872580 0.001057
-0.659549 -1.983952 0.276478
-0.635418 -1.909692 0.035580
-0.685463 -1.917125 0.168767
-0.715456 -1.987340 0.416734
-0.650096 -1.868922 -0.010555
-0.647556 -1.917982 0.182338
-0.652816 -1.846137 -0.115059
-0.652813 -1.844291 -0.109005
-0.630545 -1.864136 -0.111182
-0.625659 -1.847867 -0.128711
-0.688507 -1.961747 0.430814
-0.625997 -1.843918 -0.165616
-0.680415 -1.909241 0.125121
-0.666651 -1.867680 -0.034704
-0.680724 -1.988509 0.447298
-0.704867 -1.967509 0.367452
-0.697515 -1.944858 0.410139
-0.676031 -1.892354 0.082687
-0.715420 -1.927581 0.387391
-0.706404 -1.973385 0.324354
-0.656971 -1.831042 -0.114574
-0.657620 -1.829487 -0.135541
-0.687641 -1.844099 -0.026276
-0.656087 -1.876747 -0.011632
-0.668386 -1.852781 -0.069224
-0.723355 -2.059851 0.601142
-0.678394 -1.808891 -0.087263
-0.674687 -1.794784 -0.096852
-0.703555 -1.865690 0.138094
-0.695416 -1.881501 0.156825
-0.690796 -1.887103 0.172786
-0.685647 -1.845425 -0.018179
-0.704174 -1.852235 0.002418
-0.696238 -1.943464 0.271400
-0.672496 -1.877296 0.033281
-0.725073 -1.896698 0.169121
-0.752717 -1.958923 0.415320
-0.688179 -1.898483 0.181661
-0.688547 -1.844563 -0.010081
-0.676844 -1.784420 -0.110461
-0.679117 -1.789486 -0.104612
-0.667769 -1.834784 -0.112564
-0.724450 -1.926325 0.427603
-0.718666 -1.880827 0.123705
-0.706221 -1.846287 -0.034320
-0.747595 -1.950917 0.366678
-0.713081 -1.940094 0.439462
-0.740268 -1.928311 0.411366
-0.738977 -1.929064 0.319407
-0.717689 -1.873844 0.081977
-0.758103 -1.909073 0.389673
-0.686556 -1.784069 -0.112419
-0.689523 -1.790428 -0.133620
-0.713943 -1.789297 -0.021881
-0.694485 -1.851370 -0.012132
-0.700232 -1.812691 -0.068275
-0.716020 -1.787638 -0.084869
-0.764266 -2.026127 0.593845
-0.712357 -1.774530 -0.094485
-0.744240 -1.846321 0.141416
-0.736029 -1.861079 0.158174
-0.731482 -1.868649 0.173080
-0.711895 -1.789601 -0.014758
-0.740413 -1.822007 0.004068
-0.761383 -1.868418 0.169712
-0.735495 -1.915951 0.267949
-0.714185 -1.859772 0.031544
-0.788898 -1.928543 0.412965
-0.727550 -1.873031 0.180155
-0.718149 -1.798536 -0.009955
-0.716819 -1.770212 -0.103274
-0.717765 -1.771027 -0.109304
-0.765093 -1.906847 0.427921
-0.706287 -1.812404 -0.114146
-0.693718 -1.777506 -0.128111
-0.758328 -1.861429 0.124029
-0.691869 -1.768652 -0.164867
-0.784794 -1.921483 0.363291
-0.728109 -1.781588 -0.032627
-0.754739 -1.921549 0.438749
-0.778637 -1.901927 0.411889
-0.752817 -1.841578 0.080686
-0.779367 -1.904545 0.316866
-0.796545 -1.883747 0.392168
-0.723087 -1.760824 -0.111963
-0.750559 -1.767116 -0.018456
-0.722664 -1.757316 -0.132870
-0.720689 -1.795455 -0.012714
-0.736534 -1.784429 -0.068681
-0.749245 -1.755598 -0.081148
-0.749962 -1.752327 -0.091064
-0.802924 -1.986466 0.584726
-0.773475 -1.835797 0.159676
-0.771016 -1.846262 0.173488
-0.749515 -1.768335 -0.013365
-0.768114 -1.777118 0.006176
-0.796614 -1.838176 0.169364
-0.824055 -1.897223 0.410642
-0.754725 -1.838317 0.029920
-0.775702 -1.887430 0.264519
-0.762667 -1.840736 0.177862
-0.753481 -1.770336 -0.009357
-0.756491 -1.752714 -0.109000
-0.753282 -1.745010 -0.101763
-0.804714 -1.886428 0.428270
-0.733724 -1.761517 -0.112873
-0.794620 -1.833131 0.122619
-0.730153 -1.752253 -0.128600
-0.822072 -1.893119 0.361873
-0.765819 -1.762327 -0.031292
-0.792029 -1.894116 0.435304
-0.730523 -1.749295 -0.166533
-0.818130 -1.878522 0.412322
-0.791258 -1.817210 0.079154
-0.816532 -1.874146 0.313505
-0.836026 -1.859405 0.394628
-0.785079 -1.742032 -0.014939
-0.759669 -1.738596 -0.111538
-0.760276 -1.736056 -0.132478
-0.767564 -1.748383 -0.068840
-0.757040 -1.768200 -0.013150
-0.808361 -1.775193 0.145058
-0.797790 -1.781957 0.159050
-0.795219 -1.790374 0.170917
-0.800375 -1.746073 0.007871
-0.786069 -1.745129 -0.011914
-0.837464 -1.822790 0.170565
-0.861525 -1.872885 0.410109
-0.814974 -1.859967 0.261064
-0.786847 -1.784799 0.173290
-0.786760 -1.740232 -0.008695
-0.845186 -1.862979 0.427696
-0.858357 -1.864787 0.359457
-0.811225 -1.761547 0.120534
-0.831500 -1.870673 0.433735
-0.856515 -1.852182 0.412841
-0.819947 -1.773205 0.077226
-0.875602 -1.837080 0.397028
-0.855952 -1.849709 0.310963
-0.791282 -1.738019 -0.014494
-0.846067 -1.754993 0.148414
-0.836540 -1.763663 0.160346
-0.832752 -1.767103 0.171359
-0.898003 -1.848578 0.408579
-0.860871 -1.770980 0.168887
-0.814038 -1.749242 0.026080
-0.856601 -1.840487 0.259371
-0.827643 -1.768408 0.173520
-0.882664 -1.838660 0.427161
-0.897884 -1.842381 0.357855
-0.856493 -1.757000 0.120405
-0.872154 -1.851233 0.433044
-0.884103 -1.806142 0.408972
-0.896734 -1.779266 0.392529
-0.896570 -1.829299 0.310299
-0.941001 -1.836152 0.410689
-0.868189 -1.740909 0.170908
-0.905990 -1.785716 0.420525
-0.864065 -1.742153 0.172067
-0.935342 -1.817072 0.356363
-0.918453 -1.776988 0.409610
-0.936548 -1.760987 0.395833
-0.926383 -1.788183 0.305298
-0.943486 -1.760447 0.421025
-0.930636 -1.765979 0.422116
-0.954920 -1.750761 0.410142
-0.996373 -1.826991 0.558070
2.321493 2.840956 2.986799
2.370273 2.853901 3.019119
2.451592 2.863822 3.063166
2.516796 2.623655 3.088745
2.636944 2.629730 3.162087
2.568010 2.573939 3.130665
2.745167 2.617887 3.220369
2.649423 2.542024 3.159831
2.732836 2.509169 3.191015
2.754987 2.382917 3.227876
2.944662 2.435464 3.387555
2.899982 2.290490 3.282227
