# .PCD v0.7 - Point Cloud Data file format
VERSION 0.7
FIELDS x y z
SIZE 4 4 4
TYPE F F F
COUNT 1 1 1
WIDTH 27
HEIGHT 1
VIEWPOINT 0 0 0 1
POINTS 27
DATA ascii
1.712231 -1.773710 2.363418
1.706372 -1.787608 2.358280
1.677951 -1.816835 2.371168
1.663937 -1.820577 2.354262
1.683324 -1.902688 2.432890
1.642854 -1.875948 2.379702
1.660833 -1.930768 2.318712
1.703783 -2.017138 2.357013
1.632763 -1.985153 2.343240
1.618816 -2.009555 2.308036
1.584709 -2.060887 2.327676
1.616899 -2.216186 2.306081
1.532047 -2.209789 2.267105
1.536160 -2.351079 2.237012
1.503684 -2.398829 2.219680
1.499107 -2.411387 2.253554
1.538593 -2.473480 2.271214
1.489263 -2.463535 2.203899
1.474784 -2.469333 2.249985
1.449479 -2.446922 2.218590
1.461048 -2.470706 2.270122
1.513708 -2.597990 2.245675
1.457352 -2.531076 2.235296
1.470337 -2.644005 2.240510
1.438981 -2.599859 2.222504
1.432650 -2.616829 2.281339
1.382311 -2.621612 2.196829
