# .PCD v0.7 - Point Cloud Data file format
VERSION 0.7
FIELDS x y z
SIZE 4 4 4
TYPE F F F
COUNT 1 1 1
WIDTH 20
HEIGHT 1
VIEWPOINT 0 0 0 1
POINTS 20
DATA ascii
2.667493 -0.836738 3.020404
2.618371 -0.884040 2.987457
2.804726 -0.870276 3.117312
3.435173 -1.213328 4.005696
2.791644 -0.973372 3.037370
2.647277 -0.884564 3.017680
2.677134 -0.899728 3.002480
2.979744 -1.125060 3.146137
3.493055 -1.243767 3.970410
3.506029 -1.257057 3.924194
3.605690 -1.426725 3.939315
3.629640 -1.454144 3.839862
3.170071 -1.201999 3.214292
3.596455 -1.381556 4.056194
3.017788 -1.121519 3.169446
3.065386 -1.158175 3.168905
3.342409 -1.334547 3.273334
3.502613 -1.414539 3.567314
3.588424 -1.422625 3.780468
3.540743 -1.428843 3.678235
