# .PCD v0.7 - Point Cloud Data file format
VERSION 0.7
FIELDS x y z
SIZE 4 4 4
TYPE F F F
COUNT 1 1 1
WIDTH 14
HEIGHT 1
VIEWPOINT 0 0 0 1
POINTS 14
DATA ascii
2.637390 -0.878697 2.888313
2.679670 -0.863807 2.917805
2.739921 -1.167779 2.923091
2.644931 -0.916530 2.899559
2.675212 -1.214337 2.886925
2.623119 -0.856286 2.884355
2.618508 -1.262992 2.860742
2.731570 -1.330332 2.905225
2.660875 -1.373901 2.869090
2.748016 -1.329301 2.927787
2.682316 -1.372868 2.890641
2.729303 -1.285988 2.909532
2.628617 -1.420555 2.866462
2.667600 -1.329606 2.877377
