# .PCD v0.7 - Point Cloud Data file format
VERSION 0.7
FIELDS x y z
SIZE 4 4 4
TYPE F F F
COUNT 1 1 1
WIDTH 19
HEIGHT 1
VIEWPOINT 0 0 0 1
POINTS 19
DATA ascii
2.536824 -0.804966 2.828816
2.551957 -0.847300 2.874518
2.393792 -0.799212 2.790761
2.536965 -0.867013 2.851735
2.549090 -0.910321 2.895452
2.549166 -0.933196 2.889566
2.600772 -0.997930 2.831985
2.612977 -1.070104 2.869793
2.629692 -1.162725 2.820389
2.662339 -1.159669 2.951319
2.621811 -1.180616 2.819552
2.628894 -1.235829 2.854282
2.505925 -1.160195 2.811382
2.626007 -1.254729 2.855427
2.628220 -1.329839 2.893301
2.675868 -1.395594 2.841716
2.694285 -1.360838 2.885094
2.735286 -1.506261 2.943119
2.663067 -1.435073 2.808186
