# .PCD v0.7 - Point Cloud Data file format
VERSION 0.7
FIELDS x y z
SIZE 4 4 4
TYPE F F F
COUNT 1 1 1
WIDTH 34
HEIGHT 1
VIEWPOINT 0 0 0 1
POINTS 34
DATA ascii
1.104917 2.488696 2.728596
1.238034 2.705279 2.750980
1.110452 2.408492 2.728565
1.108989 2.349725 2.600442
1.099070 2.249419 2.573139
1.215605 2.419387 2.703191
1.192253 2.582972 2.723540
1.083589 2.490569 2.652087
1.204514 2.323046 2.683872
1.123876 2.553049 2.651817
1.093410 2.277463 2.674520
1.114920 2.411750 2.600428
1.232195 2.634689 2.765630
1.104552 2.172518 2.580512
1.099647 2.149307 2.606403
1.226099 2.495358 2.726280
1.195651 2.218994 2.666974
1.140993 2.110502 2.590964
1.116625 2.395925 2.652824
1.103695 2.356879 2.608549
1.089157 2.098421 2.627479
1.184710 2.404277 2.694849
1.083063 2.023282 2.580241
1.197706 2.406340 2.704045
1.111238 2.031505 2.578671
1.098454 1.945325 2.517310
1.163894 2.017726 2.596411
1.195996 2.007732 2.636857
1.070406 1.900184 2.570120
1.095367 1.869231 2.564416
1.097000 1.849239 2.544396
1.101680 1.792207 2.499338
1.129269 1.809299 2.534770
1.191397 1.844491 2.614729
