# .PCD v0.7 - Point Cloud Data file format
VERSION 0.7
FIELDS x y z
SIZE 4 4 4
TYPE F F F
COUNT 1 1 1
WIDTH 43
HEIGHT 1
VIEWPOINT 0 0 0 1
POINTS 43
DATA ascii
0.229153 2.247781 2.281619
0.220929 2.143304 2.184892
0.226027 2.141464 2.172897
0.223631 2.102566 2.152630
0.222583 2.037664 2.137196
0.247788 2.104040 2.138726
0.263639 2.114146 2.160851
0.258884 2.076675 2.223589
0.265780 2.106215 2.155806
0.272419 2.132260 2.164002
0.271771 2.107271 2.161835
0.280415 2.118006 2.223939
0.303481 2.136706 2.171145
0.307009 2.081367 2.235801
0.325438 2.194498 2.255604
0.329351 2.200526 2.260658
0.331418 2.203718 2.235685
0.335302 2.204588 2.265706
0.335054 2.151623 2.262362
0.371935 2.240100 2.275071
0.384098 2.224124 2.303015
0.385094 2.226170 2.298031
0.393557 2.266269 2.301320
0.391936 2.237224 2.306128
0.458318 2.564666 2.383473
0.432598 2.272830 2.310509
0.449371 2.288983 2.327677
0.512759 2.548540 2.381560
0.580706 2.695178 2.440735
0.493446 2.294631 2.335884
0.546662 2.446606 2.302039
0.617667 2.590307 2.358208
0.627068 2.548157 2.410983
0.733370 2.869918 2.533383
0.685461 2.612155 2.391603
0.694657 2.579919 2.458443
0.807353 2.880939 2.554724
0.775987 2.706917 2.492538
0.958068 3.159057 2.735996
0.882607 2.891323 2.517075
0.869095 2.847014 2.538754
0.850612 2.736812 2.536017
0.960303 2.902030 2.602449
