# .PCD v0.7 - Point Cloud Data file format
VERSION 0.7
FIELDS x y z
SIZE 4 4 4
TYPE F F F
COUNT 1 1 1
WIDTH 403
HEIGHT 1
VIEWPOINT 0 0 0 1
POINTS 403
DATA ascii
1.355042 1.212763 0.944444
1.420048 1.228361 0.979792
1.413831 1.207135 0.966759
1.493107 1.228024 0.662325
1.538581 1.260415 0.671734
1.483739 1.220774 1.006305
1.475600 1.200520 0.990184
1.415935 1.233673 0.952766
1.561074 1.222411 0.679961
1.604496 1.249799 0.692339
1.618848 1.248543 0.408678
1.410053 1.212151 0.902718
1.589259 1.241692 1.060121
1.638668 1.246020 0.335392
1.466133 1.231973 0.598414
1.545238 1.196972 1.016865
1.674821 1.259071 0.193518
1.288454 1.199202 1.146615
1.701125 1.263707 0.132414
1.735218 1.278213 0.046489
1.749705 1.280739 -0.021043
1.749685 1.278968 0.007995
1.480672 1.226071 0.978310
1.641832 1.223913 0.701997
1.691033 1.240909 0.420467
1.548291 1.257853 0.655306
1.702903 1.258480 0.723971
1.471929 1.203502 0.924159
1.644204 1.220973 1.082397
1.719716 1.242470 0.350473
1.537130 1.228364 0.615141
1.735341 1.240299 0.197964
1.397919 1.222224 0.843313
1.783418 1.259117 0.140539
1.347208 1.191549 1.171945
1.419772 1.235048 0.930080
1.806763 1.264506 0.049292
1.612331 1.251289 0.308516
1.834219 1.275119 -0.018835
1.835132 1.273366 0.012238
1.572699 1.235777 1.020710
1.769207 1.234303 0.432456
1.786532 1.255012 0.751143
1.616287 1.247216 0.673976
1.493969 1.259963 0.623407
1.548489 1.203000 0.953065
1.708938 1.204348 1.109990
1.645106 1.246744 0.350819
1.700063 1.194040 1.081734
1.799830 1.234890 0.364540
1.608202 1.220729 0.630893
1.694291 1.262984 0.097317
1.642986 1.121361 0.187632
1.703208 1.266276 0.127641
1.501040 1.234308 0.550866
1.676955 1.128119 0.135795
1.464852 1.214583 0.863931
1.412810 1.185958 1.201503
1.488486 1.230462 0.955736
1.709097 1.139609 0.048820
1.681596 1.239613 0.319227
1.756819 1.279339 -0.024593
1.773466 1.287292 -0.043060
1.714418 1.135123 -0.012986
1.777084 1.285953 -0.086945
1.818256 1.222990 0.750615
1.714387 1.134351 0.016042
1.633563 1.220102 1.044153
1.882941 1.246997 0.453577
1.872203 1.247533 0.778410
1.715735 1.255874 0.704632
1.567926 1.255365 0.642245
1.810728 1.210142 1.159751
1.767850 1.180416 1.106396
1.724372 1.240119 0.360847
1.921517 1.249640 0.386932
1.685141 1.215149 0.649831
1.350855 1.195513 1.098193
1.960582 1.261524 0.219147
1.786631 1.263430 0.103758
1.782656 1.257621 0.132685
1.428906 1.238386 0.899572
1.581984 1.234753 0.568913
1.534673 1.208975 0.886623
1.479390 1.178365 1.232101
1.565964 1.228967 0.987679
2.035530 1.278640 0.057642
1.771715 1.238080 0.332605
1.832427 1.266630 -0.023664
1.884387 1.204289 0.766243
1.850103 1.272583 -0.042077
2.057877 1.283471 0.021396
1.859722 1.275281 -0.086778
1.704232 1.207515 1.072922
1.968110 1.236411 0.466827
1.950995 1.232975 0.803469
1.407323 1.208793 1.232296
1.801459 1.251379 0.729875
1.703650 1.194967 1.010971
1.640912 1.246744 0.661069
1.851254 1.173958 1.140563
1.880359 1.191545 1.190514
1.452104 1.218568 0.796558
1.660193 1.244933 0.294535
1.520849 1.261471 0.603585
1.815482 1.238587 0.374253
2.004670 1.236045 0.401129
1.678188 1.254035 0.294120
2.052932 1.252949 0.226630
1.796585 1.227865 0.679873
1.727502 1.273489 0.062605
1.688066 1.137516 0.100258
1.419459 1.190927 1.127846
1.667311 1.121559 0.124654
2.076148 1.249587 0.169472
1.497723 1.231764 0.923239
1.660026 1.228147 0.585899
1.612338 1.205435 0.913576
1.784292 1.288540 -0.095539
2.126010 1.266028 0.062081
1.789207 1.288586 -0.092355
1.975080 1.198820 0.791649
1.640601 1.221408 1.016554
1.852895 1.227470 0.345716
1.551994 1.241716 0.502864
1.802223 1.211225 1.117548
1.741781 1.136344 -0.077870
2.053295 1.222811 0.480088
2.043598 1.223528 0.832976
1.477782 1.204237 1.266008
1.779319 1.184401 1.038888
1.886224 1.241855 0.755111
1.926901 1.159388 1.169496
1.784749 1.265746 0.068806
1.969517 1.182155 1.232905
1.741432 1.255371 0.689746
1.924464 1.244175 0.390237
1.747409 1.241351 0.305817
2.102636 1.227567 0.419812
1.523056 1.209926 0.817315
1.592940 1.253817 0.619366
1.764430 1.250442 0.304363
2.152255 1.243407 0.235361
1.875564 1.216263 0.698907
1.801070 1.258762 0.065471
1.990345 1.260607 0.145340
1.504655 1.194510 1.168032
2.184399 1.244114 0.179490
1.584123 1.236321 0.956448
1.739075 1.219535 0.602923
1.710585 1.211089 0.951198
1.642048 1.251223 0.262957
2.060916 1.185277 0.814929
2.219549 1.250408 0.065640
1.859012 1.271791 -0.096622
1.717237 1.212849 1.045496
1.868891 1.275873 -0.093292
1.979707 1.241192 0.365277
2.159268 1.217367 0.498024
1.877801 1.195661 1.149494
2.136195 1.210067 0.863501
1.628174 1.233063 0.516795
2.013290 1.148927 1.204776
1.563735 1.208866 1.312206
1.854107 1.168790 1.064801
1.975962 1.231353 0.781522
2.052837 1.165680 1.272124
1.694117 1.142905 0.066569
1.828256 1.248840 0.713031
2.191741 1.209993 0.436228
2.022610 1.237650 0.403909
1.834638 1.234754 0.317108
1.703397 1.269503 0.649349
2.246614 1.227817 0.243943
1.617502 1.215514 0.849804
1.820064 1.220576 0.308692
1.964473 1.205721 0.720281
1.756190 1.281646 -0.013287
1.715565 1.259284 0.230589
2.089705 1.254838 0.124018
1.706488 1.133887 0.062106
2.095745 1.256078 0.151248
2.289667 1.231606 0.190441
2.152711 1.171765 0.839411
1.661792 1.229757 0.984414
1.772715 1.189334 0.968701
1.846733 1.225157 0.628862
1.728389 1.246597 0.271208
1.815332 1.214515 1.088130
2.062934 1.223559 0.378488
1.829825 1.185423 -0.088920
2.249448 1.198773 0.512476
1.962233 1.181164 1.185741
1.790140 1.269049 0.027112
2.218029 1.185475 0.889707
2.110499 1.139552 1.245429
1.712264 1.226462 0.532984
1.945495 1.161351 1.100240
2.073614 1.221901 0.810196
2.152794 1.154364 1.320895
1.919061 1.240321 0.737463
2.291751 1.194490 0.455008
2.115790 1.225078 0.417432
2.367864 1.221393 0.254409
1.967481 1.251486 0.335855
2.048426 1.191130 0.740490
1.776538 1.254819 0.665196
1.970809 1.249431 0.327989
1.814934 1.253788 -0.012866
1.617421 1.129301 0.216132
2.196057 1.246314 0.131977
2.034940 1.272825 0.071953
2.200190 1.245520 0.157152
2.407862 1.222175 0.202816
1.662550 1.181455 1.238063
2.433551 1.221306 0.074665
1.741491 1.220183 1.012464
1.937680 1.215608 0.649297
1.867191 1.183888 1.002243
1.896904 1.200969 1.120265
2.175910 1.219137 0.396656
1.644209 1.126696 0.256175
2.359453 1.187318 0.530573
2.058374 1.170783 1.229367
1.707426 1.150282 0.026128
2.038907 1.150903 1.135762
2.165349 1.205382 0.837694
2.100063 1.261127 0.082439
2.014798 1.230830 0.764065
2.221920 1.214575 0.432391
2.473232 1.202838 0.263377
2.151182 1.180672 0.766336
2.055759 1.236859 0.347215
2.073993 1.242907 0.340824
1.875311 1.252343 0.689867
1.787916 1.202434 0.904251
2.302465 1.233765 0.138950
2.298628 1.228918 0.163868
1.688892 1.114555 0.221906
2.137482 1.261230 0.075796
1.735256 1.164815 1.267909
1.822160 1.208609 1.041550
1.952860 1.170339 1.031510
2.038534 1.208121 0.672059
1.974593 1.181361 1.150292
2.280999 1.204630 0.413601
2.302014 1.109722 1.325668
1.725558 1.118025 0.264253
2.161416 1.159446 1.276236
2.125489 1.132364 1.168083
2.383103 1.131982 1.436491
2.276821 1.195016 0.871843
1.918990 1.225530 0.576618
2.331066 1.201072 0.447463
2.100738 1.212227 0.786366
2.204602 1.248534 0.086348
2.245062 1.162123 0.789906
2.155986 1.224295 0.359975
2.175269 1.229337 0.352627
1.958313 1.236717 0.710051
1.858986 1.180716 0.924057
2.423846 1.221288 0.147445
2.474570 1.130525 0.928450
2.428978 1.223500 0.171629
2.246017 1.251659 0.078818
2.018468 1.249619 0.258818
1.822541 1.155333 1.308215
2.616193 1.165630 0.575027
1.925361 1.207243 1.082362
2.126571 1.189509 0.691426
2.053262 1.159911 1.068274
2.411093 1.093395 1.371758
2.077714 1.174003 1.194131
2.389091 1.188125 0.430650
2.594483 1.155805 1.018623
2.038082 1.239997 0.304645
2.484120 1.107604 1.486348
2.114885 1.263340 0.030049
2.661296 1.154393 0.524698
2.740774 1.175047 0.286229
2.011044 1.211939 0.595100
2.210319 1.202817 0.817434
2.267131 1.212795 0.375102
2.619692 1.123397 0.971743
2.285490 1.216814 0.365726
2.061121 1.228226 0.734879
1.962448 1.174290 0.958904
2.157735 1.253156 -0.012341
2.132718 1.245120 0.270014
2.759018 1.152350 0.599262
2.547647 1.084315 1.431768
1.906929 1.140798 1.346439
2.144878 1.142376 1.099755
2.008082 1.188638 1.111546
2.233429 1.176023 0.715416
2.186796 1.163666 1.240191
2.692119 1.124284 1.051381
2.391061 1.135942 1.382778
2.347698 1.109719 1.257341
2.146358 1.231453 0.315652
2.636032 1.100728 1.564895
2.516578 1.168366 0.946736
2.815936 1.142211 0.554341
2.913842 1.168890 0.302472
2.330793 1.193471 0.851876
2.481298 1.135361 0.850661
2.113017 1.199403 0.615915
2.371361 1.193222 0.389023
2.398724 1.201290 0.378936
2.167866 1.217753 0.761847
2.062016 1.161804 0.991638
2.624480 1.046611 1.459816
2.236138 1.227507 0.278901
2.112337 1.179234 1.152423
2.008944 1.130416 1.395254
2.645015 1.158341 0.472092
2.902102 1.131721 1.125869
2.492247 1.109505 1.428638
2.460839 1.091371 1.302568
2.770377 1.079634 1.633891
2.250679 1.215863 0.326551
2.673450 1.161318 0.998436
2.952759 1.117872 0.580412
3.028290 1.134305 0.311805
2.710168 1.155825 0.503458
2.617680 1.123104 0.887657
2.905200 1.089999 1.054233
2.220967 1.184888 0.637941
2.278594 1.204288 0.789962
2.817904 1.049044 1.550749
3.069563 1.116890 0.652619
2.162574 1.145308 1.025419
2.361376 1.218036 0.291489
2.372310 1.114660 1.185205
3.058913 1.109654 1.181638
2.407911 1.131964 1.335446
2.213717 1.162767 1.191231
2.798825 1.144092 0.497700
2.643368 1.100548 1.502148
2.591676 1.075163 1.356397
2.928249 1.062749 1.715680
2.369908 1.202359 0.339932
3.135181 1.102851 0.617001
2.813645 1.142095 1.042580
2.873977 1.144632 0.528355
3.049526 1.063768 1.095522
2.592568 1.167879 0.927454
2.519021 1.107574 1.242446
2.534737 1.115738 1.391041
2.608435 1.131894 0.805154
2.790671 1.082525 1.573460
2.330833 1.148438 1.238484
2.967697 1.121971 1.092116
2.922324 1.089751 0.968638
2.717130 1.143497 0.962986
2.786485 1.149108 0.446051
2.834914 1.162272 0.433657
2.405131 1.117630 1.110205
3.115485 1.101619 0.550043
2.881070 1.036933 1.475812
2.698900 1.106821 1.465881
2.950787 1.062584 1.651207
2.755918 1.115652 0.841428
2.469600 1.139276 1.295443
3.146457 1.103016 1.150485
3.217686 1.105277 0.579596
3.082587 1.066603 1.012376
2.891015 1.133498 1.016139
2.929545 1.124731 0.466188
2.606335 1.139711 0.719852
2.972156 1.132822 0.449613
2.675210 1.160289 0.894237
2.547163 1.104421 1.160277
2.802870 1.068192 1.350651
2.828783 1.079553 1.522594
2.599567 1.121007 1.348120
2.775138 1.168763 0.332314
2.795466 1.157173 0.386121
3.065003 1.114451 1.068317
3.137241 1.115748 0.495460
2.776721 1.129583 0.758859
3.180913 1.123832 0.476917
2.858224 1.154289 0.943659
2.958596 1.045081 1.411216
3.003780 1.062680 1.603803
3.084687 1.074321 0.922123
2.755146 1.104922 1.412655
2.938300 1.150453 0.349088
2.951638 1.133816 0.403674
3.004709 1.125978 0.982903
2.856931 1.066123 1.272303
2.905846 1.080763 1.475035
3.147301 1.139387 0.370376
3.152541 1.120723 0.427688
3.106848 1.081125 0.831565
3.201660 1.108007 1.036811
4.053336 -1.160591 2.951160
4.034418 -1.255235 2.949497
4.286937 -1.522076 3.015795
4.199131 -1.602165 2.975756
4.117178 -1.682198 2.939913
4.211636 -1.403201 2.977148
4.077592 -1.473566 2.911606
