# .PCD v0.7 - Point Cloud Data file format
VERSION 0.7
FIELDS x y z
SIZE 4 4 4
TYPE F F F
COUNT 1 1 1
WIDTH 55
HEIGHT 1
VIEWPOINT 0 0 0 1
POINTS 55
DATA ascii
0.255748 1.761716 1.960758
0.301685 1.789575 1.991374
0.247991 1.732701 1.973165
0.324446 1.879636 1.993831
0.295815 1.814724 1.991596
0.345815 1.796728 2.002657
0.291070 1.743742 1.991508
0.416785 2.088544 2.034356
0.373546 1.890788 2.007190
0.273216 1.763980 1.977627
0.339927 1.821852 2.004885
0.280409 1.717988 1.982979
0.392874 1.810791 2.022061
0.332271 1.742978 1.996668
0.468788 2.104625 2.053797
0.502701 2.237444 2.005928
0.425545 1.910803 2.031698
0.416104 2.062804 2.033801
0.437295 2.123686 1.979788
0.315332 1.769086 1.991880
0.386016 1.830960 2.021196
0.321584 1.717159 1.993127
0.504463 2.048631 2.006062
0.587880 2.344525 2.105851
0.466007 1.882478 2.008408
0.411322 2.059037 2.029577
0.468123 2.074887 2.054165
0.357461 1.772220 2.005085
0.514503 2.224733 2.079587
0.424421 1.807517 2.004978
0.459087 2.129061 2.048793
0.549710 2.036034 2.003019
0.653868 2.359711 2.126288
0.462382 2.064158 2.047828
0.499871 2.008950 2.001269
0.570586 2.228978 2.091829
0.513081 2.142143 2.071166
0.694595 2.291831 2.075366
0.493200 1.990294 1.989812
0.540311 1.976595 1.980907
0.628634 2.235180 2.109100
0.565177 2.143366 2.084345
0.593045 2.063574 2.021219
0.268892 1.737686 1.973964
0.288270 1.711925 1.982700
0.307119 1.731246 1.978879
0.327491 1.706488 1.989623
0.346249 1.731740 1.992859
0.422186 2.076349 2.028187
0.422430 2.057433 2.021000
0.472307 2.073947 2.049114
0.473293 2.076007 2.044133
0.518478 2.068610 2.058012
0.502549 1.991145 1.979264
0.549400 2.008578 2.013386
