# .PCD v0.7 - Point Cloud Data file format
VERSION 0.7
FIELDS x y z
SIZE 4 4 4
TYPE F F F
COUNT 1 1 1
WIDTH 252
HEIGHT 1
VIEWPOINT 0 0 0 1
POINTS 252
DATA ascii
-0.054276 -1.983544 -0.088541
-0.097936 -1.983802 -0.028628
-0.099646 -1.987511 -0.090650
-0.100772 -1.989656 -0.059662
-0.124947 -1.989182 0.054293
-0.091361 -1.986629 -0.074547
-0.093401 -1.989694 -0.060565
-0.096628 -1.987984 0.001437
-0.133140 -1.992494 0.121262
-0.143306 -1.983773 -0.031718
-0.144032 -1.986486 -0.092733
-0.084119 -1.989686 -0.069482
-0.145136 -1.976637 -0.060688
-0.085101 -1.991676 -0.071494
-0.092409 -1.989111 0.021505
-0.123435 -1.989156 0.039378
-0.170331 -1.990170 0.053197
-0.078049 -1.989000 -0.010394
-0.078808 -1.988754 -0.062395
-0.137784 -1.994720 0.159324
-0.136735 -1.984611 -0.075628
-0.137779 -1.980682 -0.060611
-0.080695 -1.989659 -0.082403
-0.141017 -1.985969 0.000358
-0.177522 -1.990477 0.118182
-0.121011 -1.993086 0.017428
-0.092103 -1.994247 0.042553
-0.188679 -1.982759 -0.033804
-0.127512 -1.976684 -0.067506
-0.189396 -1.983466 -0.095810
-0.190523 -1.981622 -0.062803
-0.129482 -1.979674 -0.069525
-0.159766 -2.000003 0.219254
-0.198793 -1.997056 0.240108
-0.137803 -1.992108 0.022399
-0.168832 -1.992156 0.040272
-0.214713 -1.986164 0.051127
-0.123452 -1.992006 -0.007500
-0.123206 -1.982759 -0.059455
-0.183159 -1.990718 0.158251
-0.182113 -1.983602 -0.076714
-0.125089 -1.981664 -0.079453
-0.183174 -1.985678 -0.060727
-0.186398 -1.985964 -0.000734
-0.223894 -1.992474 0.116077
-0.164209 -1.999906 0.190309
-0.166405 -1.993094 0.019336
-0.136502 -1.990253 0.044483
-0.234060 -1.985750 -0.036912
-0.173908 -1.988681 -0.067659
-0.234761 -1.978460 -0.097878
-0.203165 -1.993013 0.219199
-0.235898 -1.980618 -0.064890
-0.174890 -1.988676 -0.068661
-0.243180 -1.992066 0.239041
-0.183199 -1.996110 0.022287
-0.185904 -1.995907 0.189284
-0.213235 -1.993162 0.040176
-0.260095 -1.985173 0.050038
-0.168853 -1.993021 -0.004597
-0.227559 -1.991726 0.157155
-0.168611 -1.988769 -0.057576
-0.227497 -1.984604 -0.077812
-0.170492 -1.984678 -0.076560
-0.228552 -1.983680 -0.061809
-0.230787 -1.982968 -0.001810
-0.175492 -1.994802 0.158382
-0.208621 -1.999928 0.192217
-0.270261 -1.991482 0.113986
-0.210808 -1.990112 0.021260
-0.181906 -1.994268 0.046371
-0.279428 -1.980756 -0.038980
-0.218303 -1.984693 -0.066729
-0.280143 -1.979464 -0.099976
-0.280286 -1.978622 -0.066972
-0.191578 -2.003113 0.222309
-0.249568 -1.999041 0.221073
-0.220272 -1.984689 -0.067734
-0.288574 -1.992090 0.238946
-0.227589 -1.991122 0.022220
-0.231306 -1.998928 0.190175
-0.257610 -1.982180 0.040140
-0.213269 -1.994047 -0.001694
-0.213015 -1.986788 -0.055657
-0.305469 -1.980191 0.048970
-0.273951 -1.996747 0.157033
-0.271878 -1.976621 -0.077863
-0.273947 -1.985697 -0.061913
-0.215889 -1.985698 -0.074658
-0.276169 -1.981982 -0.002898
-0.220908 -1.998838 0.162268
-0.254010 -1.994960 0.194148
-0.315632 -1.986500 0.111917
-0.256200 -1.989135 0.022171
-0.226308 -1.990293 0.048299
-0.322787 -1.963773 -0.040983
-0.263693 -1.983716 -0.065818
-0.235981 -1.998145 0.224241
-0.326524 -1.984471 -0.103099
-0.293957 -1.992070 0.221016
-0.327663 -1.986631 -0.070112
-0.264663 -1.978712 -0.066795
-0.331975 -1.986119 0.237886
-0.272980 -1.989149 0.023136
-0.275706 -1.995955 0.190097
-0.303992 -1.983206 0.040038
-0.352862 -1.989218 0.047823
-0.258651 -1.985084 0.001258
-0.258408 -1.982823 -0.052731
-0.318324 -1.986771 0.154991
-0.317265 -1.976642 -0.078958
-0.260292 -1.980733 -0.071725
-0.319330 -1.983718 -0.062998
-0.321546 -1.978007 -0.003973
-0.266310 -1.996880 0.165183
-0.299414 -1.995002 0.196052
-0.361996 -1.982528 0.109839
-0.301588 -1.984173 0.024101
-0.271701 -1.989324 0.049209
-0.307088 -1.973748 -0.064858
-0.281375 -1.996182 0.225156
-0.339356 -1.991113 0.221924
-0.375183 -1.998783 -0.045276
-0.371893 -1.979491 -0.106169
-0.310050 -1.975745 -0.065874
-0.375032 -1.988655 -0.072223
-0.377355 -1.981159 0.236815
-0.318369 -1.987180 0.023050
-0.320099 -1.989992 0.190034
-0.350408 -1.994239 0.039882
-0.303054 -1.979131 0.004195
-0.400256 -1.996254 0.046684
-0.302808 -1.977863 -0.050798
-0.364702 -1.985809 0.153897
-0.366664 -1.997664 -0.081173
-0.303691 -1.968778 -0.068753
-0.367729 -1.998747 -0.064180
-0.311711 -1.993932 0.168102
-0.370944 -1.998033 -0.006183
-0.344807 -1.990054 0.197981
-0.411405 -2.001565 0.108632
-0.349015 -2.002212 0.024906
-0.317107 -1.990368 0.051108
-0.324796 -1.992233 0.227084
-0.357487 -1.998777 -0.066095
-0.416541 -1.971822 -0.047223
-0.385750 -1.991166 0.222824
-0.416254 -1.966526 -0.108195
-0.359461 -1.998779 -0.066100
-0.419403 -1.977691 -0.074261
-0.428787 -2.008221 0.239560
-0.364772 -1.993220 0.022919
-0.366493 -1.991043 0.190929
-0.398799 -2.001289 0.040740
-0.351478 -1.998183 0.006993
-0.352218 -1.999905 -0.050019
-0.442615 -1.973301 0.044714
-0.413106 -1.997859 0.153728
-0.408036 -1.971713 -0.081125
-0.354113 -1.999818 -0.068023
-0.409101 -1.972797 -0.064132
-0.415318 -1.986078 -0.007216
-0.357104 -1.986996 0.171042
-0.394216 -2.003125 0.201805
-0.459780 -2.004612 0.106508
-0.396399 -2.001271 0.026808
-0.361496 -1.979425 0.053071
-0.370199 -1.991289 0.227991
-0.435186 -2.010240 0.226614
-0.398873 -1.973837 -0.064053
-0.463912 -1.971867 -0.049326
-0.400844 -1.972840 -0.064052
-0.462629 -1.965564 -0.111290
-0.464769 -1.968737 -0.076312
-0.476169 -2.006286 0.239464
-0.413173 -2.003274 0.023760
-0.411892 -1.989099 0.190841
-0.441169 -1.978348 0.040770
-0.396892 -1.997248 0.009898
-0.396618 -1.989970 -0.047063
-0.489995 -1.973358 0.043609
-0.462508 -2.008924 0.154559
-0.454420 -1.970763 -0.082220
-0.395497 -1.970892 -0.063959
-0.455494 -1.972853 -0.064234
-0.407534 -2.008080 0.176819
-0.459691 -1.973134 -0.008244
-0.441646 -2.013198 0.204646
-0.500119 -1.969671 0.103608
-0.437778 -1.976331 0.026851
-0.411913 -2.002487 0.054838
-0.413618 -1.984359 0.229934
-0.445268 -1.974893 -0.064159
-0.477560 -1.988306 0.225638
-0.448243 -1.977901 -0.063182
-0.510276 -1.965919 -0.052396
-0.509994 -1.962619 -0.113379
-0.512154 -1.970790 -0.078428
-0.454552 -1.978339 0.023803
-0.463315 -2.012176 0.193602
-0.486562 -1.973414 0.040696
-0.439020 -1.974040 -0.045070
-0.440271 -1.976328 0.012916
-0.502876 -1.980984 0.151620
-0.537378 -1.973421 0.041503
-0.501800 -1.971819 -0.084331
-0.442901 -1.974966 -0.061084
-0.502871 -1.971915 -0.065333
-0.453937 -2.005162 0.179731
-0.507080 -1.975196 -0.009360
-0.482028 -1.984273 0.204712
-0.452311 -1.977558 0.055883
-0.484187 -1.977408 0.028742
-0.549489 -1.972739 0.101480
-0.465050 -2.009446 0.233684
-0.490657 -1.968960 -0.064227
-0.493641 -1.972973 -0.062256
-0.558655 -1.968977 -0.055522
-0.559515 -1.965852 -0.081507
-0.501947 -1.980409 0.023686
-0.505702 -1.993248 0.192610
-0.533949 -1.972490 0.040595
-0.485700 -1.976417 0.016815
-0.486413 -1.974120 -0.043175
-0.549261 -1.976062 0.150543
-0.585759 -1.973499 0.040393
-0.489311 -1.976044 -0.059192
-0.548174 -1.964891 -0.085396
-0.551251 -1.972986 -0.066448
-0.496341 -1.986256 0.182739
-0.552476 -1.970269 -0.010435
-0.530433 -1.987370 0.207586
-0.498720 -1.977642 0.057780
-0.532581 -1.980490 0.029617
-0.597865 -1.971817 0.099375
-0.511434 -2.003535 0.234613
-0.538036 -1.967045 -0.063319
-0.541021 -1.971058 -0.061348
-0.550076 -1.980332 0.191584
-0.548330 -1.975498 0.024613
-0.581338 -1.972577 0.040492
-0.530818 -1.968211 -0.041236
-0.532088 -1.971516 0.019744
-0.596644 -1.974156 0.150451
-0.533716 -1.969140 -0.056247
-0.541743 -1.980360 0.185676
-0.546114 -1.978739 0.059674
-0.578978 -1.977590 0.031534
-0.597712 -1.978592 0.024486
-0.578498 -1.969623 0.022653
-0.590162 -1.983483 0.190551
-0.593515 -1.977845 0.061574
