# .PCD v0.7 - Point Cloud Data file format
VERSION 0.7
FIELDS x y z
SIZE 4 4 4
TYPE F F F
COUNT 1 1 1
WIDTH 180
HEIGHT 1
VIEWPOINT 0 0 0 1
POINTS 180
DATA ascii
2.023386 -0.697325 2.620551
4.881282 -1.496655 3.762623
2.051735 -0.758518 2.670405
2.146878 -0.731203 2.695895
2.006859 -0.690539 2.660951
2.262734 -0.817239 2.705545
2.087291 -0.765535 2.645860
2.347650 -0.964805 2.720161
2.248720 -0.736347 2.695626
2.276355 -0.881455 2.742077
2.348450 -1.024987 2.746408
2.077461 -0.816768 2.656886
2.239863 -0.792594 2.707682
2.281183 -0.943689 2.768414
2.304302 -1.067223 2.722678
2.254429 -0.857804 2.748227
2.164865 -0.955053 2.656146
2.249390 -1.102454 2.687705
2.333824 -0.944811 2.733094
2.161506 -0.882132 2.665492
2.330702 -1.009022 2.758260
2.154559 -0.939361 2.682572
2.408062 -1.080924 2.737005
2.240597 -1.034297 2.684575
2.440103 -1.164109 2.801903
2.234523 -1.096500 2.707667
2.401283 -1.080534 2.744448
2.326453 -1.178358 2.705711
2.411757 -1.155722 2.789881
2.293170 -1.168953 2.690616
0.689531 -2.341135 2.007855
0.727565 -2.461300 2.029727
0.665789 -2.443320 1.999683
0.634376 -2.354164 1.997995
0.592755 -2.378381 1.933371
0.426579 -1.806551 1.895565
0.570801 -2.333230 1.958937
0.659183 -2.344638 2.011105
0.397533 -1.822501 1.936191
0.399457 -1.859565 1.936306
0.600357 -2.334661 1.985170
0.688023 -2.357146 2.016328
0.458543 -1.918084 1.946178
0.354492 -1.825605 1.920587
0.357410 -1.855653 1.919698
0.410868 -1.792982 1.915215
0.524587 -2.259731 1.905860
0.626248 -2.340155 1.989343
0.269697 -1.576392 1.897832
0.270574 -1.589395 1.904876
0.416273 -1.927145 1.943590
0.311473 -1.824709 1.903986
0.317292 -1.853739 1.906133
0.707301 -2.357700 2.007349
0.377150 -1.827034 1.936820
0.499818 -2.014674 1.964841
0.564586 -2.315179 1.955362
0.237289 -1.591497 1.901449
0.237348 -1.593513 1.896454
0.299377 -1.607890 1.893268
0.370314 -1.917226 1.923918
0.285851 -1.566879 1.879995
0.267118 -1.800900 1.841323
0.262988 -1.794857 1.858256
0.654068 -2.366696 2.003551
0.333202 -1.820139 1.916197
0.446987 -1.998739 1.941047
0.401895 -1.845518 1.942109
0.496465 -2.254230 1.892236
0.201352 -1.587655 1.875980
0.197641 -1.569673 1.861891
0.268706 -1.632965 1.912927
0.323527 -1.896323 1.894224
0.538394 -2.109329 1.974401
0.257972 -1.602944 1.911722
0.594209 -2.350702 1.980625
0.215622 -1.756020 1.804539
0.291157 -1.817241 1.900622
0.398008 -1.989805 1.924337
0.356940 -1.836613 1.922472
0.314885 -1.689438 1.921611
0.168049 -1.594769 1.873582
0.164365 -1.577795 1.857497
0.230746 -1.623099 1.891418
0.268548 -1.828478 1.820337
0.422891 -1.866064 1.941327
0.220051 -1.592088 1.888216
0.482465 -2.099372 1.958577
0.286515 -1.638419 1.919136
0.516531 -2.257747 1.894325
0.238253 -1.749424 1.820778
0.337032 -1.921929 1.852362
0.314875 -1.830703 1.907894
0.364192 -1.751978 1.927319
0.273914 -1.678555 1.903056
0.127946 -1.539994 1.798969
0.124064 -1.536007 1.796915
0.194578 -1.622218 1.882964
0.378815 -1.860142 1.928715
0.184898 -1.592216 1.877782
0.424775 -2.073432 1.928718
0.248495 -1.629543 1.901634
0.315175 -1.680953 1.926544
0.266445 -1.788837 1.857174
0.322979 -1.753066 1.924780
0.234820 -1.673669 1.891550
0.092189 -1.518164 1.764503
0.089209 -1.520171 1.767473
0.154945 -1.593384 1.842419
0.335758 -1.851225 1.914124
0.147992 -1.577363 1.853304
0.209532 -1.617675 1.882127
0.355110 -1.982541 1.841603
0.219135 -1.737985 1.798471
0.273288 -1.664075 1.902979
0.277198 -1.730184 1.897149
0.193971 -1.653803 1.866006
0.114779 -1.537591 1.771830
0.289941 -1.828326 1.886484
0.107009 -1.513592 1.771694
0.173371 -1.614796 1.873684
0.235157 -1.657184 1.893494
0.148002 -1.587007 1.786326
0.235145 -1.721292 1.885607
0.237954 -1.754474 1.808693
0.129563 -1.538019 1.781023
0.196109 -1.646304 1.880003
0.186020 -1.659461 1.817901
0.095394 -1.533148 1.772630
0.151922 -1.587484 1.812382
0.145193 -1.634594 1.791381
0.113289 -1.550642 1.771886
-0.606416 -4.139861 1.425102
-1.203445 -3.259669 1.231894
-1.234586 -3.114890 1.183650
-1.279102 -3.017052 1.153311
-1.350041 -3.101949 1.257680
-1.330800 -2.943192 1.130934
-1.403893 -3.040079 1.243281
-1.329489 -3.159412 1.269912
-1.140383 -3.309260 1.234551
-1.368371 -2.845384 1.101719
-1.397851 -2.854415 1.179487
-1.363976 -3.045614 1.237713
-1.264024 -3.110002 1.222566
-1.191049 -3.215392 1.215170
-1.409059 -2.761568 1.077500
-1.433548 -2.766614 1.155316
-1.376248 -2.896881 1.190755
-1.301629 -3.006183 1.196347
-1.240741 -3.124539 1.196828
-1.456903 -2.696734 1.061237
-1.448903 -2.913913 1.216192
-1.478465 -2.705780 1.141073
-1.409935 -2.804081 1.165611
-1.345400 -2.924350 1.178093
-1.293582 -3.052679 1.184477
-1.522004 -2.666854 1.058828
-1.476433 -2.805146 1.181132
-1.521354 -2.639968 1.126878
-1.454823 -2.737258 1.152382
-1.390248 -2.850521 1.163850
-1.340397 -2.972843 1.170210
-1.597212 -2.651959 1.063349
-1.488880 -2.678418 1.139240
-1.558236 -2.570170 1.109757
-1.500790 -2.678433 1.142160
-1.435129 -2.780699 1.150630
-1.380174 -2.884031 1.153035
-1.520635 -2.593640 1.115181
-1.537677 -2.606637 1.126047
-1.478039 -2.711888 1.138450
-1.424060 -2.810215 1.140841
-1.551460 -2.514862 1.093147
-1.577615 -2.540845 1.113930
-1.514933 -2.637096 1.124349
-1.464950 -2.734414 1.128699
-1.557940 -2.577293 1.116205
-1.505888 -2.663619 1.118576
-1.544852 -2.594842 1.109493
