# .PCD v0.7 - Point Cloud Data file format
VERSION 0.7
FIELDS x y z
SIZE 4 4 4
TYPE F F F
COUNT 1 1 1
WIDTH 168
HEIGHT 1
VIEWPOINT 0 0 0 1
POINTS 168
DATA ascii
-0.624108 -2.220692 -0.140860
-0.628019 -2.221393 -0.160874
-0.671949 -2.224930 -0.077915
-0.678717 -2.217917 -0.143805
-0.681641 -2.215615 -0.163769
-0.698960 -2.220081 -0.013821
-0.726567 -2.221167 -0.079846
-0.736013 -2.235048 0.098946
-0.733333 -2.213141 -0.146719
-0.738227 -2.217830 -0.167800
-0.663398 -2.226132 -0.067655
-0.756544 -2.223312 -0.016871
-0.669168 -2.220100 -0.134563
-0.670266 -2.222691 -0.097601
-0.783167 -2.220397 -0.082829
-0.788010 -2.232136 0.215014
-0.697482 -2.230040 0.042298
-0.791633 -2.232299 0.097995
-0.789928 -2.213355 -0.150720
-0.793840 -2.214057 -0.170734
-0.718013 -2.225383 -0.068637
-0.814141 -2.224558 -0.018890
-0.723779 -2.219338 -0.136544
-0.724881 -2.221943 -0.098582
-0.736363 -2.236079 0.096208
-0.653850 -2.225136 -0.069372
-0.656690 -2.222392 -0.117332
-0.659834 -2.222277 -0.062323
-0.838788 -2.216636 -0.084765
-0.846612 -2.231395 0.214026
-0.752103 -2.226272 0.040366
-0.849244 -2.230558 0.097024
-0.845545 -2.207566 -0.154622
-0.849458 -2.208268 -0.174637
-0.862255 -2.226358 0.460145
-0.772635 -2.223634 -0.069604
-0.869769 -2.216781 -0.021760
-0.779503 -2.218179 -0.100516
-0.780387 -2.217600 -0.137511
-0.787545 -2.238134 0.274200
-0.790998 -2.230342 0.096307
-0.707478 -2.223414 -0.068337
-0.710321 -2.219672 -0.116280
-0.714449 -2.222543 -0.062321
-0.895406 -2.211864 -0.087688
-0.806735 -2.222536 0.040431
-0.903241 -2.225646 0.213120
-0.904882 -2.224823 0.097118
-0.905129 -2.210790 -0.158680
-0.908049 -2.210489 -0.178678
-0.736704 -2.237932 0.082443
-0.920876 -2.228687 0.464102
-0.649154 -2.224742 -0.098089
-0.649239 -2.224184 -0.070076
-0.829253 -2.220908 -0.069557
-0.925402 -2.210018 -0.023650
-0.747666 -2.227084 0.088626
-0.837104 -2.218427 -0.102520
-0.836994 -2.217843 -0.139515
-0.843175 -2.236409 0.275229
-0.846627 -2.228622 0.097335
-0.763093 -2.224699 -0.067354
-0.766923 -2.221946 -0.116315
-0.769070 -2.222808 -0.062322
-0.952033 -2.206106 -0.089596
-0.864341 -2.221779 0.038442
-0.962849 -2.224907 0.212125
-0.962506 -2.221080 0.096174
-0.788078 -2.245018 0.326359
-0.959772 -2.200012 -0.161504
-0.964671 -2.204702 -0.182587
-0.880475 -2.235434 0.456268
-0.791348 -2.231227 0.084557
-0.700810 -2.219043 -0.094987
-0.703861 -2.225497 -0.067091
-0.884883 -2.216162 -0.070480
-0.708955 -2.227213 -0.023113
-0.803288 -2.227364 0.089623
-0.986989 -2.211262 -0.026680
-0.890753 -2.209673 -0.103375
-0.891635 -2.210095 -0.140388
-0.900797 -2.235692 0.276237
-0.902268 -2.222902 0.098428
-0.818724 -2.221000 -0.065291
-0.824526 -2.224225 -0.116353
-0.827662 -2.228088 -0.062410
-0.918985 -2.214025 0.037568
-0.742986 -2.231807 0.067825
-1.028073 -2.231381 0.095987
-1.029415 -2.234226 0.212955
-0.840069 -2.235960 0.434525
-0.844703 -2.245311 0.328353
-0.746181 -2.230939 0.138849
-0.935137 -2.226731 0.459410
-0.847970 -2.233541 0.087518
-0.758487 -2.225792 -0.065092
-0.756429 -2.218345 -0.092971
-0.938540 -2.206423 -0.070321
-0.762594 -2.224504 -0.021064
-0.858917 -2.224628 0.089667
-0.946388 -2.201912 -0.105250
-0.946279 -2.200331 -0.142229
-0.964376 -2.246011 0.278055
-0.964851 -2.233222 0.100246
-0.874353 -2.217290 -0.064236
-0.877186 -2.213504 -0.115178
-0.880324 -2.215351 -0.062201
-0.982554 -2.223308 0.036403
-0.796639 -2.226131 0.071923
-0.900345 -2.244617 0.331364
-0.895720 -2.232295 0.439586
-1.094006 -2.238523 0.212868
-0.800816 -2.229233 0.140882
-0.901635 -2.223832 0.089684
-0.810073 -2.215641 -0.090915
-0.812145 -2.219120 -0.060969
-1.005086 -2.221703 -0.072579
-0.815256 -2.216794 -0.018922
-0.914561 -2.219908 0.090756
-1.024007 -2.242284 0.278122
-1.022498 -2.227508 0.101350
-0.930994 -2.216572 -0.063203
-0.847218 -2.253274 0.385530
-0.933828 -2.209773 -0.115094
-0.936966 -2.211617 -0.062117
-0.853277 -2.228455 0.075910
-1.043178 -2.222569 0.035429
-0.959973 -2.247909 0.333327
-0.953377 -2.230639 0.445635
-0.855471 -2.225515 0.142970
-0.860268 -2.220763 0.413089
-0.961264 -2.225150 0.092682
-0.866710 -2.214940 -0.088878
-0.869774 -2.221437 -0.057983
-0.871892 -2.217090 -0.016903
-0.973188 -2.222174 0.090735
-1.082663 -2.236558 0.279231
-1.086111 -2.231807 0.102288
-0.903872 -2.254599 0.390530
-0.989630 -2.214860 -0.062157
-0.993450 -2.211051 -0.115098
-0.995596 -2.211889 -0.062105
-0.905966 -2.217762 0.080112
-1.018625 -2.245212 0.336388
-0.911127 -2.222815 0.146037
-0.922880 -2.234187 0.422886
-1.020903 -2.225466 0.095692
-0.922459 -2.211733 -0.054799
-0.922367 -2.210250 -0.085778
-0.926556 -2.210377 -0.014769
-1.028856 -2.213444 0.091898
-1.145298 -2.237860 0.281215
-0.956564 -2.243861 0.392728
-0.970555 -2.232127 0.084889
-1.080260 -2.248523 0.339342
-0.971742 -2.230115 0.147932
-0.979552 -2.230540 0.429965
-1.084519 -2.231795 0.098595
-0.978029 -2.203542 -0.083648
-0.984069 -2.217046 -0.052871
-0.982214 -2.204650 -0.013656
-1.016205 -2.250193 0.397636
-1.029207 -2.230454 0.088931
-1.137933 -2.241802 0.341462
-1.029397 -2.228419 0.150974
-1.092021 -2.234739 0.153876
-1.126581 -2.231743 0.402964
-1.186251 -2.227056 0.407045
