# .PCD v0.7 - Point Cloud Data file format
VERSION 0.7
FIELDS x y z
SIZE 4 4 4
TYPE F F F
COUNT 1 1 1
WIDTH 123
HEIGHT 1
VIEWPOINT 0 0 0 1
POINTS 123
DATA ascii
1.961569 1.348404 1.333348
2.044577 1.374037 1.204769
2.079922 1.353322 1.384489
1.965941 1.350810 1.430459
2.141013 1.365072 1.238684
2.023043 1.362151 1.246642
2.145515 1.321423 1.402040
1.964346 1.344324 1.519423
2.133243 1.381012 1.049968
2.274334 1.373042 1.291886
2.028409 1.362438 1.289710
2.118474 1.353134 1.283562
2.322501 1.382464 0.723992
2.304752 1.341222 1.477444
2.112859 1.348401 1.323551
2.248764 1.363042 1.339798
2.305586 1.408098 0.673438
2.050748 1.369358 1.175864
2.367858 1.351085 1.323615
2.266767 1.380543 0.754007
2.155729 1.375738 1.132970
2.027884 1.347756 1.328539
2.499579 1.432463 0.229798
2.488632 1.422324 0.358653
2.444946 1.375776 0.747970
2.274132 1.332537 1.567381
2.217045 1.374878 0.770955
2.428174 1.333138 1.530408
2.485039 1.369882 1.068944
2.354095 1.367259 1.115904
2.157068 1.372361 1.215982
2.236171 1.354266 1.379727
2.420041 1.399401 0.694382
2.237223 1.355840 1.155726
2.349237 1.347023 1.378627
2.122278 1.340643 1.371499
2.502234 1.349075 1.375678
2.368268 1.364752 0.775838
2.585251 1.393711 0.364288
2.189283 1.374267 0.793985
2.594350 1.376127 0.780078
2.251505 1.321969 1.654284
2.504264 1.409464 0.406557
2.396516 1.327392 1.624394
2.668292 1.401619 0.652493
2.349386 1.381101 0.805142
2.278271 1.399409 0.819426
2.557612 1.322076 1.584339
2.624483 1.362049 1.109926
2.416348 1.412453 0.431615
2.490466 1.367355 1.161004
2.211651 1.337485 1.226498
2.575349 1.422161 0.325786
2.338612 1.341184 1.423608
2.363556 1.358882 1.200864
2.244591 1.345457 1.430664
2.471637 1.339955 1.429613
2.562438 1.399783 0.721488
2.643636 1.343044 1.431693
2.525591 1.375066 0.814105
2.306655 1.374429 0.826073
2.789546 1.414581 0.383740
2.373829 1.321738 1.717377
2.740800 1.368485 0.810071
2.659644 1.414061 0.423736
2.528881 1.323216 1.687436
2.363756 1.380604 0.836208
2.437947 1.355257 0.824824
2.834715 1.400122 0.680591
2.719965 1.321909 1.658463
2.787876 1.360225 1.160022
2.359857 1.356438 1.286896
2.537808 1.403868 0.446576
2.618910 1.356475 1.200941
2.458993 1.335076 1.476613
2.475982 1.347957 1.237790
2.348004 1.334323 1.478580
2.609019 1.334872 1.487646
2.457858 1.407877 0.474643
2.701886 1.392171 0.746479
2.649067 1.361330 0.840996
2.406134 1.358565 0.851915
2.492203 1.313544 1.776354
2.605031 1.388507 0.809439
2.907235 1.362885 0.845117
2.671993 1.421044 0.420927
2.505071 1.387868 0.871426
2.673238 1.319023 1.756493
2.809111 1.406608 0.440739
2.593274 1.362509 0.866054
2.466252 1.346467 1.324835
3.028109 1.402693 0.714776
2.675257 1.397315 0.465586
2.774291 1.353592 1.252023
2.618328 1.348001 1.288906
2.614108 1.424307 0.504008
2.467374 1.328150 1.535590
2.585402 1.324942 1.533569
2.564358 1.391182 0.490480
2.872267 1.393609 0.780634
2.810462 1.359657 0.879101
2.554450 1.365761 0.894143
2.741454 1.380818 0.838437
2.626486 1.379126 0.898397
2.829408 1.419656 0.437031
2.988517 1.407290 0.460891
2.727709 1.352733 0.900023
2.602579 1.346466 1.376952
2.838655 1.397873 0.487727
2.739568 1.412743 0.518940
2.763702 1.343061 1.339959
2.609698 1.327903 1.606712
2.742723 1.325739 1.607718
2.729691 1.399682 0.517741
2.675905 1.351905 0.928045
2.913811 1.383210 0.876617
2.773844 1.378420 0.933513
2.741916 1.343466 1.430032
3.018049 1.398492 0.511888
2.909911 1.418348 0.541166
2.889075 1.399170 0.542871
2.835268 1.351114 0.973176
3.079315 1.414952 0.562267
