# .PCD v0.7 - Point Cloud Data file format
VERSION 0.7
FIELDS x y z
SIZE 4 4 4
TYPE F F F
COUNT 1 1 1
WIDTH 20
HEIGHT 1
VIEWPOINT 0 0 0 1
POINTS 20
DATA ascii
1.801441 -2.096015 3.034505
1.752596 -2.124093 3.016150
1.703706 -2.152263 2.999820
1.646830 -2.168520 2.967657
1.695571 -2.204420 2.992791
1.673772 -2.248215 2.979813
1.631681 -2.220503 2.964500
1.604578 -2.255708 2.940656
1.489215 -2.448451 2.896147
1.422033 -2.452395 2.862269
1.344063 -2.601449 2.806208
1.295228 -2.644524 2.808718
1.507975 -2.466065 2.900287
1.444356 -2.449505 2.868125
1.432266 -2.463485 2.861403
1.382742 -2.647176 2.834111
1.311379 -2.652304 2.808201
1.196194 -2.788328 2.751523
1.213716 -2.818773 2.758863
1.134138 -2.809551 2.728300
