# .PCD v0.7 - Point Cloud Data file format
VERSION 0.7
FIELDS x y z
SIZE 4 4 4
TYPE F F F
COUNT 1 1 1
WIDTH 15
HEIGHT 1
VIEWPOINT 0 0 0 1
POINTS 15
DATA ascii
1.320370 3.741595 0.574378
1.329548 3.746631 0.567603
1.333854 3.723246 0.606495
1.362409 3.721856 0.639061
1.417748 3.738187 0.584299
1.427018 3.746269 0.572552
1.423296 3.698895 0.611078
1.448569 3.690382 0.657525
1.445921 3.679557 0.638374
1.470787 3.682344 0.652903
1.511125 3.719784 0.593025
1.524699 3.702478 0.620158
1.536029 3.664045 0.660070
1.541375 3.670185 0.643226
1.562303 3.659011 0.653559
