# .PCD v0.7 - Point Cloud Data file format
VERSION 0.7
FIELDS x y z
SIZE 4 4 4
TYPE F F F
COUNT 1 1 1
WIDTH 23
HEIGHT 1
VIEWPOINT 0 0 0 1
POINTS 23
DATA ascii
3.664593 -1.517228 4.011354
2.656534 -1.026467 2.977227
2.722564 -1.205803 3.025704
3.277415 -1.440449 3.199655
3.484500 -1.423859 3.906390
3.509889 -1.628220 3.453363
2.618448 -1.147564 2.989808
3.378501 -1.286476 3.851705
3.525899 -1.538321 3.643727
3.552996 -1.440137 3.971181
3.459191 -1.406702 3.976902
2.976591 -1.383540 3.118564
2.979497 -1.228920 3.092622
2.626112 -1.143622 2.990833
3.494587 -1.528804 3.646192
3.513297 -1.575199 3.412522
2.941352 -1.374152 3.117918
2.972304 -1.212602 3.140053
3.585202 -1.533317 3.716227
3.518317 -1.525238 3.737520
3.446182 -1.542783 3.324468
2.952155 -1.351029 3.111348
2.819411 -1.309063 3.049272
