# .PCD v0.7 - Point Cloud Data file format
VERSION 0.7
FIELDS x y z
SIZE 4 4 4
TYPE F F F
COUNT 1 1 1
WIDTH 15
HEIGHT 1
VIEWPOINT 0 0 0 1
POINTS 15
DATA ascii
-0.565562 -3.507693 1.449189
-0.651623 -3.767580 1.401338
-0.669603 -3.742748 1.397722
-0.633712 -3.502600 1.385340
-0.630901 -3.417445 1.413955
-0.698960 -3.846946 1.398521
-0.745008 -3.950328 1.388867
-0.746540 -3.820195 1.422121
-0.744965 -3.653119 1.443254
-0.749014 -3.680530 1.372272
-0.783706 -3.825629 1.395158
-0.816551 -3.838090 1.356344
-0.589788 -3.404105 1.464198
-0.649054 -3.316354 1.432736
-0.835495 -3.932684 1.330963
