# .PCD v0.7 - Point Cloud Data file format
VERSION 0.7
FIELDS x y z
SIZE 4 4 4
TYPE F F F
COUNT 1 1 1
WIDTH 17
HEIGHT 1
VIEWPOINT 0 0 0 1
POINTS 17
DATA ascii
1.756408 -3.103670 2.363124
1.622892 -2.767852 2.255094
1.645971 -3.073942 2.302548
1.775111 -3.098800 2.357128
1.627784 -3.211711 2.368894
1.668676 -3.072111 2.306525
1.747243 -2.996673 2.310117
1.618790 -3.145726 2.328872
1.614039 -2.924846 2.230538
1.752746 -3.170641 2.357437
1.637405 -3.126920 2.297825
1.599922 -3.060636 2.308856
1.782294 -3.177889 2.333406
1.735393 -3.192618 2.295622
1.695722 -3.190309 2.317776
1.607173 -3.139821 2.236037
1.614135 -3.206771 2.307124
