# .PCD v0.7 - Point Cloud Data file format
VERSION 0.7
FIELDS x y z
SIZE 4 4 4
TYPE F F F
COUNT 1 1 1
WIDTH 287
HEIGHT 1
VIEWPOINT 0 0 0 1
POINTS 287
DATA ascii
1.007894 -2.017968 -0.004929
1.003901 -2.016738 -0.036912
0.976163 -2.029935 0.088084
0.975178 -2.030496 0.157084
1.012069 -2.001250 -0.094650
0.949158 -2.014352 -0.006743
0.953236 -2.025797 -0.072833
0.945167 -2.013130 -0.037726
1.016232 -2.020901 -0.010791
0.921483 -2.033301 0.087200
0.987482 -2.031486 0.037211
0.918497 -2.032851 0.153212
1.030317 -1.996882 -0.129493
1.032380 -2.004878 -0.128552
0.957423 -2.007624 -0.094554
0.892472 -2.014714 -0.009602
0.965557 -2.026670 0.166302
0.887440 -2.008240 -0.072546
0.893535 -2.022475 -0.038658
1.029516 -2.017721 -0.026629
0.957530 -2.019301 -0.010632
0.891610 -2.028864 0.381312
0.867754 -2.031146 0.396357
0.863772 -2.030675 0.085363
0.997722 -2.021994 -0.019579
0.860776 -2.029201 0.148382
0.926764 -2.026897 0.037394
0.970626 -1.995311 -0.126334
0.970681 -2.001320 -0.125374
0.835748 -2.010080 -0.011427
0.892642 -1.992075 -0.092286
0.908869 -2.028030 0.163433
0.902801 -2.016140 -0.076476
0.833776 -2.011877 -0.038436
0.831751 -2.007608 -0.073402
0.969827 -2.017142 -0.024477
0.900842 -2.019677 -0.011494
0.835889 -2.027208 0.377463
0.967962 -2.031685 0.165433
0.895954 -2.030460 0.330452
0.812044 -2.030465 0.389499
0.808050 -2.027041 0.084526
0.803028 -2.021556 0.144578
0.938037 -2.021414 -0.017428
0.870086 -2.028287 0.038524
1.003060 -2.019482 -0.083402
0.783071 -2.012419 -0.013313
0.852161 -2.026388 0.160584
0.841011 -2.000425 -0.092215
0.844073 -2.009551 -0.074286
0.780088 -2.011948 -0.074304
0.787207 -2.035883 0.669529
0.782137 -2.019217 -0.039359
0.784188 -2.029540 0.375574
0.844144 -2.018058 -0.011343
0.909116 -2.012558 -0.023297
0.848227 -2.033441 0.412550
0.978159 -2.015995 -0.040317
0.908228 -2.026070 0.163616
0.839241 -2.028817 0.327602
0.906238 -2.026967 0.273618
0.760361 -2.034765 0.383595
0.961338 -2.027750 0.163648
0.755378 -2.030386 0.083631
0.750346 -2.023877 0.140690
0.879336 -2.018824 -0.015268
0.813363 -2.023668 0.038694
0.942365 -2.016922 -0.079238
0.927272 -1.996400 -0.156064
0.924307 -1.998284 -0.173070
0.731410 -2.016748 -0.015218
0.795427 -2.020743 0.157760
0.791398 -2.011759 -0.092173
0.730436 -2.023858 0.370744
0.726399 -2.011291 -0.076169
0.792435 -2.016906 -0.073211
0.728437 -2.017568 -0.040217
0.788422 -2.013422 -0.012176
0.794517 -2.033761 0.407677
0.851415 -2.009953 -0.022140
0.792544 -2.038494 0.621654
0.918496 -2.017420 -0.037184
0.786538 -2.030162 0.326720
0.852550 -2.028436 0.162734
0.848549 -2.027355 0.273753
0.906575 -2.022510 0.212815
0.704623 -2.029078 0.376768
0.903647 -2.028146 0.164782
0.835663 -2.034615 0.419737
0.700656 -2.025734 0.081794
0.696642 -2.022202 0.136830
0.756648 -2.019045 0.038862
0.822659 -2.019220 -0.013136
0.881661 -2.012360 -0.075063
0.869603 -1.996827 -0.150929
0.807683 -2.010474 -0.118042
0.804683 -2.008509 -0.116021
0.677699 -2.013089 -0.017064
0.865618 -1.995724 -0.166913
0.741734 -2.021085 0.155886
0.679748 -2.027179 0.368841
0.674705 -2.010626 -0.077041
0.738737 -2.015118 -0.091071
0.738762 -2.018271 -0.072093
0.675755 -2.017909 -0.041094
0.736768 -2.018767 -0.012090
0.740812 -2.034078 0.402802
0.798763 -2.015314 -0.021052
0.872827 -2.034467 0.427817
0.801781 -2.030030 0.567852
0.736799 -2.033816 0.615819
0.731802 -2.025501 0.323882
0.860820 -2.017838 -0.033051
0.795841 -2.025806 0.161886
0.789814 -2.020729 0.271938
0.850913 -2.026891 0.213915
0.652926 -2.030381 0.371881
0.848981 -2.032511 0.164880
0.779939 -2.031946 0.414886
0.647920 -2.020074 0.080959
0.644933 -2.020512 0.132964
0.704969 -2.021396 0.039967
0.766965 -2.017606 -0.010994
0.822972 -2.009783 -0.070908
0.750977 -2.005865 -0.115876
0.624989 -2.009412 -0.019914
0.751020 -2.010890 -0.112912
0.630051 -2.029491 0.366940
0.691063 -2.025405 0.153973
0.685020 -2.010481 -0.089912
0.623025 -2.010959 -0.077922
0.619981 -2.004267 -0.041866
0.686071 -2.017628 -0.070965
0.686070 -2.028391 0.396970
0.681052 -2.013127 -0.012920
0.817116 -2.033821 0.425950
0.684071 -2.032133 0.611953
0.743081 -2.014691 -0.019918
0.748103 -2.034371 0.565946
0.679095 -2.024834 0.322009
0.739106 -2.019165 0.160064
0.802088 -2.010251 -0.029862
0.808152 -2.034588 0.513968
0.738164 -2.028080 0.273006
0.794245 -2.029276 0.215029
0.601203 -2.027673 0.366019
0.726228 -2.031269 0.411014
0.790250 -2.025900 0.165061
0.598271 -2.026393 0.080028
0.593237 -2.019827 0.130088
0.651250 -2.016749 0.040124
0.715330 -2.024964 -0.008926
0.769321 -2.014171 -0.066815
0.701346 -2.014210 -0.113821
0.578306 -2.023798 0.363099
0.764907 -2.597465 -0.037495
0.637349 -2.021734 0.151123
0.697353 -2.012260 -0.110798
0.632338 -2.009828 -0.089786
0.572337 -2.011573 -0.042809
0.571325 -2.008289 -0.078784
0.633378 -2.015974 -0.070833
0.629351 -2.011466 -0.012790
0.635394 -2.032693 0.393054
0.764420 -2.036154 0.424054
0.693437 -2.022027 -0.018856
0.690330 -2.023702 0.560153
0.627396 -2.025166 0.321125
0.688444 -2.024499 0.160142
0.751472 -2.020603 -0.027819
0.685458 -2.027420 0.272131
0.751459 -2.034946 0.512093
0.549478 -2.023962 0.360163
0.673526 -2.031592 0.408131
0.735520 -2.022662 0.215209
0.722014 -2.589780 0.091643
0.735546 -2.024268 0.166196
0.538431 -2.002143 0.125341
0.599542 -2.014088 0.040260
0.659598 -2.017345 -0.006746
0.715667 -2.017557 -0.062717
0.528587 -2.022098 0.360223
0.645614 -2.005599 -0.110633
0.524612 -2.009036 -0.023683
0.585638 -2.019055 0.149258
0.707629 -2.005005 -0.137612
0.645680 -2.013623 -0.107691
0.582666 -2.012160 -0.088691
0.521635 -2.007597 -0.080667
0.522661 -2.012888 -0.043707
0.582694 -2.016313 -0.069721
0.705679 -2.008889 -0.153636
0.583656 -2.027991 0.388204
0.771271 -2.602535 -0.027389
0.707670 -2.028494 0.420234
0.638687 -2.012401 -0.016664
0.576687 -2.024489 0.320243
0.638644 -2.027033 0.559245
0.635732 -2.021836 0.159279
0.696797 -2.020986 -0.024699
0.630705 -2.018769 0.271315
0.696760 -2.035290 0.510212
0.497751 -2.019250 0.354311
0.497831 -2.019022 0.077306
0.621823 -2.031906 0.405243
0.683880 -2.028615 0.167280
0.680837 -2.023029 0.216328
0.489762 -2.005435 0.122424
0.718177 -2.560445 0.044019
0.607907 -2.016698 -0.004627
0.480876 -2.022392 0.358325
0.659930 -2.008952 -0.058533
0.529808 -1.997383 0.145539
0.594973 -2.010945 -0.108560
0.656967 -2.008368 -0.133524
0.591958 -2.006997 -0.104525
0.529938 -2.004502 -0.088520
0.528947 -2.005669 -0.068525
0.530914 -2.021292 0.383368
0.655050 -2.016253 -0.149577
0.526946 -2.006116 -0.014523
0.658008 -2.035820 0.420291
0.778567 -2.597495 -0.030205
0.526986 -2.024803 0.319349
0.585921 -2.024353 0.556380
0.579965 -2.009181 0.157492
0.641020 -2.007372 -0.021479
0.580039 -2.023099 0.271394
0.639021 -2.027641 0.507393
0.451091 -2.026527 0.351358
0.569085 -2.026216 0.401398
0.630174 -2.025965 0.167415
0.630176 -2.028375 0.218399
0.500188 -2.017740 0.041451
0.557215 -2.016043 -0.002513
0.432145 -2.018681 0.355456
0.803760 -2.586953 -0.081011
0.482171 -2.005684 0.144581
0.544288 -2.010289 -0.106446
0.608378 -2.021710 -0.130515
0.542307 -2.011334 -0.102449
0.483218 -2.023576 0.380453
0.600318 -2.007655 -0.143396
0.604278 -2.031144 0.417439
0.536335 -2.014073 -0.015454
0.474208 -2.012118 0.316555
0.535215 -2.024664 0.554486
0.528222 -2.001507 0.156659
0.785964 -2.605456 -0.033116
0.527295 -2.015431 0.270562
0.586331 -2.028975 0.506495
0.399315 -2.013802 0.344561
0.520398 -2.029514 0.399477
0.577444 -2.020305 0.167568
0.575440 -2.020729 0.218571
0.507528 -2.017379 -0.000411
0.384412 -2.015970 0.353582
0.438555 -2.020956 0.143565
0.558617 -2.017658 -0.052372
0.551591 -2.005114 -0.125268
0.577930 -2.597813 0.474994
0.547605 -2.003027 -0.139245
0.553552 -2.029455 0.415564
0.427520 -2.016410 0.315626
0.481592 -2.012807 0.156681
0.535615 -2.001101 -0.015203
0.478617 -2.019752 0.271639
0.532590 -2.023304 0.504655
0.467602 -2.015811 0.394694
0.520614 -1.998660 0.166851
0.520696 -2.012087 0.219754
0.505913 -2.013027 -0.048229
0.384781 -2.019140 0.372695
0.503819 -2.025757 0.413693
0.502026 -2.557624 0.392418
0.434942 -2.020105 0.156722
0.426894 -2.014081 0.271786
0.421929 -2.022094 0.393740
0.481922 -2.027636 0.505726
0.476033 -2.016963 0.168808
0.472044 -2.018414 0.221807
0.454121 -2.026064 0.412791
0.374241 -2.024379 0.391816
0.431205 -2.024949 0.504847
0.428534 -2.047724 0.225674
0.543807 -2.606457 0.522281
0.357682 -2.021646 0.410009
