# .PCD v0.7 - Point Cloud Data file format
VERSION 0.7
FIELDS x y z
SIZE 4 4 4
TYPE F F F
COUNT 1 1 1
WIDTH 1327
HEIGHT 1
VIEWPOINT 0 0 0 1
POINTS 1327
DATA ascii
0.171734 1.489976 0.857908
0.207077 1.491996 0.859965
0.217593 1.518236 0.733202
0.172258 1.484913 0.847110
0.240436 1.486037 0.858949
0.247493 1.506560 0.598128
0.195065 1.506772 0.761326
0.249005 1.496499 1.021054
0.251003 1.499342 0.725072
0.207603 1.487913 0.851176
0.166568 1.492883 0.835385
0.179435 1.512328 0.791571
0.276787 1.489030 0.864014
0.283850 1.506587 0.600165
0.234396 1.519747 0.769481
0.286386 1.492542 1.020058
0.296333 1.522295 0.737315
0.241971 1.483927 0.853179
0.305479 1.526898 0.468356
0.202943 1.492873 0.840426
0.163883 1.489913 0.819532
0.313140 1.491022 0.869068
0.214805 1.508356 0.792574
0.321222 1.504623 0.601184
0.273749 1.526739 0.775581
0.326762 1.496537 1.025132
0.334719 1.518339 0.737317
0.338423 1.530911 0.368418
0.196104 1.507936 0.821729
0.278332 1.485908 0.859235
0.287956 1.528372 0.504602
0.344851 1.526943 0.469392
0.284356 1.505523 0.590403
0.238335 1.485896 0.841403
0.200274 1.486911 0.823547
0.349492 1.492023 0.873111
0.255111 1.529287 0.805799
0.357577 1.503649 0.603210
0.309140 1.516793 0.773529
0.364160 1.489568 1.025108
0.374095 1.517376 0.738344
0.376789 1.529957 0.369443
0.232442 1.513921 0.827820
0.316673 1.494868 0.868351
0.319733 1.500545 0.592395
0.324347 1.520426 0.503567
0.390168 1.544962 0.475583
0.275703 1.488869 0.848469
0.391390 1.542275 0.236555
0.279705 1.507518 0.576627
0.236669 1.482907 0.827552
0.383861 1.485055 0.873084
0.289495 1.518349 0.802737
0.397908 1.513642 0.610329
0.347509 1.516809 0.776565
0.401556 1.481618 1.023075
0.415370 1.542982 0.167578
0.306710 1.524970 0.534803
0.268786 1.517904 0.833892
0.413184 1.521004 0.369397
0.413508 1.509428 0.737310
0.352054 1.488882 0.870334
0.360067 1.511526 0.600526
0.362722 1.518466 0.504585
0.314054 1.496818 0.858576
0.429576 1.537022 0.474547
0.317072 1.508517 0.581672
0.373894 1.542711 0.276794
0.274051 1.483879 0.834601
0.279011 1.511531 0.563839
0.447605 1.587340 0.242975
0.372254 1.528884 0.360678
0.418237 1.477085 0.873048
0.323870 1.510382 0.802701
0.287028 1.521538 0.564934
0.436275 1.512662 0.613352
0.384906 1.508857 0.775530
0.343084 1.520996 0.536802
0.303141 1.514911 0.836899
0.454749 1.539053 0.166574
0.441945 1.481610 1.028109
0.451567 1.516056 0.369386
0.389428 1.487872 0.875359
0.451910 1.502459 0.738282
0.465346 1.551266 0.044680
0.397455 1.506551 0.602517
0.406025 1.536461 0.512773
0.349448 1.488830 0.860542
0.469968 1.533067 0.475543
0.353468 1.501538 0.583647
0.424152 1.574754 0.283104
0.316403 1.507546 0.566841
0.315414 1.496795 0.848755
0.409635 1.523925 0.361667
0.456603 1.478070 0.879088
0.475135 1.543409 0.236626
0.360234 1.508392 0.805717
0.364571 1.531880 0.346909
0.320433 1.506590 0.562836
0.483349 1.553698 0.003711
0.473654 1.507688 0.615339
0.421299 1.499901 0.774485
0.337523 1.505942 0.836854
0.385406 1.534994 0.543958
0.514907 1.593148 0.172061
0.479350 1.472639 1.028064
0.498865 1.536086 0.375585
0.423824 1.476900 0.875297
0.445084 1.552940 0.162932
0.444855 1.549658 0.088902
0.494278 1.506467 0.743346
0.435820 1.506561 0.606548
0.393678 1.537287 0.309978
0.522557 1.590417 0.043039
0.513207 1.566658 -0.088166
0.442434 1.524511 0.511701
0.386837 1.486800 0.867559
0.392828 1.505532 0.589716
0.452637 1.538819 0.277822
0.446025 1.515962 0.362628
0.495964 1.480058 0.885134
0.511365 1.529114 0.476538
0.353795 1.503551 0.570842
0.351818 1.489789 0.852730
0.396608 1.504401 0.808715
0.361855 1.534925 0.331111
0.520477 1.551479 0.237721
0.364699 1.536531 0.577134
0.401965 1.524920 0.347881
0.522744 1.545780 0.001670
0.512035 1.502724 0.616325
0.373005 1.532832 0.342110
0.458677 1.494921 0.776480
0.370880 1.499944 0.839840
0.422785 1.529030 0.544943
0.538449 1.543195 0.166668
0.427402 1.542905 0.150053
0.461187 1.475882 0.881325
0.537240 1.530130 0.376565
0.520736 1.471635 1.033092
0.485721 1.556031 -0.044015
0.485460 1.549994 0.163940
0.431041 1.533332 0.310978
0.495116 1.574763 0.089150
0.476174 1.509560 0.612608
0.551495 1.561929 -0.109179
0.533686 1.497501 0.744304
0.482800 1.523549 0.513726
0.550101 1.546449 0.040697
0.555588 1.562752 -0.090170
0.423218 1.480798 0.871544
0.555438 1.559257 -0.142200
0.434169 1.513517 0.597820
0.532319 1.476061 0.889131
0.435955 1.507394 0.814776
0.493326 1.534983 0.369824
0.389196 1.492571 0.572783
0.498966 1.549883 0.279949
0.401064 1.530568 0.578116
0.390201 1.487764 0.859750
0.397266 1.521950 0.333033
0.552754 1.524164 0.477526
0.441327 1.524941 0.351915
0.562853 1.548548 0.237725
0.500069 1.548552 0.006931
0.549405 1.496744 0.619303
0.602711 1.639045 -0.001521
0.408386 1.523871 0.343057
0.407220 1.499942 0.844866
0.500029 1.498914 0.783538
0.467547 1.560240 0.124222
0.459154 1.522069 0.545907
0.519872 1.555523 -0.088003
0.500537 1.478849 0.890375
0.585782 1.552276 0.167763
0.466790 1.537948 0.152034
0.581584 1.535179 0.379626
0.523863 1.552714 -0.107025
0.563109 1.472623 1.040124
0.526086 1.553111 -0.045019
0.520886 1.533041 0.163817
0.475344 1.547375 0.315123
0.524593 1.542799 0.087898
0.515548 1.506577 0.616606
0.478279 1.554428 0.004175
0.627538 1.636236 -0.118541
0.521175 1.517593 0.514698
0.576061 1.496522 0.748318
0.601398 1.563567 0.039858
0.599955 1.561864 -0.093160
0.461597 1.477786 0.877546
0.567695 1.466089 0.890070
0.599795 1.559381 -0.146181
0.473551 1.510523 0.602820
0.472327 1.500418 0.816740
0.533679 1.535019 0.372845
0.437421 1.526588 0.581105
0.439917 1.542745 0.158232
0.537349 1.541941 0.279902
0.434522 1.510522 0.585967
0.437625 1.523975 0.337076
0.426604 1.478754 0.864701
0.480710 1.520970 0.354905
0.599113 1.529205 0.481588
0.607219 1.548626 0.237743
0.553323 1.575681 0.006182
0.589775 1.493773 0.622299
0.609461 1.545967 -0.001284
0.456628 1.554882 0.352350
0.498421 1.551619 -0.011838
0.443578 1.496938 0.849865
0.455010 1.539944 0.140217
0.540403 1.496920 0.788545
0.507904 1.559299 0.125235
0.498518 1.520097 0.548913
0.562225 1.555621 -0.089983
0.540904 1.479816 0.899407
0.530893 1.604043 0.159621
0.629151 1.550352 0.167763
0.622959 1.531226 0.381611
0.569182 1.560824 -0.108938
0.472668 1.554152 0.021344
0.577361 1.573252 -0.047830
0.573153 1.558124 0.167049
0.551937 1.496602 0.618544
0.515721 1.543428 0.316111
0.602509 1.463645 1.042071
0.518660 1.550487 0.005164
0.575904 1.558914 0.087054
0.642199 1.565174 -0.116119
0.498960 1.475764 0.884554
0.567529 1.524624 0.519780
0.645736 1.565671 0.037890
0.609053 1.468060 0.899107
0.618461 1.490560 0.750289
0.650256 1.574021 -0.098044
0.644138 1.560507 -0.150157
0.506701 1.489455 0.816670
0.512924 1.508520 0.608827
0.473788 1.519626 0.582069
0.510932 1.632847 0.168032
0.574061 1.530061 0.374824
0.473027 1.512001 0.338998
0.464976 1.477723 0.872719
0.578736 1.536997 0.280880
0.473912 1.506527 0.590959
0.527016 1.536990 0.362065
0.533453 1.558334 -0.077766
0.638521 1.517267 0.480506
0.585793 1.548717 0.005973
0.559797 1.465964 1.089310
0.535457 1.557396 -0.083773
0.648631 1.538689 0.237677
0.630143 1.490793 0.626293
0.493010 1.544933 0.352286
0.479913 1.496928 0.855889
0.662745 1.564114 -0.004118
0.495819 1.552377 0.002341
0.559574 1.601780 -0.012391
0.506251 1.571007 0.145507
0.577778 1.488955 0.789499
0.501613 1.556067 -0.066627
0.548275 1.555367 0.125222
0.504645 1.558997 -0.058600
0.537876 1.518126 0.551919
0.607558 1.560730 -0.091923
0.573304 1.461860 0.897279
0.547520 1.535044 0.156054
0.669545 1.541417 0.167704
0.663349 1.523277 0.382561
0.617485 1.571965 -0.112827
0.591290 1.495611 0.623556
0.555093 1.538479 0.317090
0.521953 1.574244 0.022538
0.609573 1.542174 0.166933
0.618758 1.565333 -0.048880
0.644899 1.460630 1.049067
0.594668 1.635717 0.003905
0.617290 1.552983 0.087022
0.537348 1.470741 0.891536
0.646430 1.460074 0.902060
0.690541 1.569311 -0.120072
0.510142 1.515637 0.586057
0.605932 1.513664 0.520707
0.688136 1.557744 0.037838
0.547066 1.489441 0.823694
0.659860 1.483585 0.753250
0.518643 1.538835 0.162244
0.693649 1.567119 -0.100088
0.550329 1.497546 0.610757
0.697443 1.573683 -0.156035
0.613453 1.522099 0.376776
0.522329 1.534000 0.349211
0.503365 1.473691 0.880712
0.622088 1.538063 0.281907
0.513286 1.504523 0.596967
0.566394 1.532020 0.365043
0.583722 1.578464 -0.079577
0.668517 1.483816 0.629253
0.634111 1.558825 0.005074
0.599181 1.460950 1.095290
0.588720 1.581535 -0.085550
0.679934 1.507316 0.481441
0.515283 1.488938 0.858845
0.530385 1.537967 0.354248
0.693007 1.535766 0.237668
0.704144 1.554203 -0.006187
0.585111 1.557780 -0.011746
0.541159 1.559454 0.003423
0.533758 1.533023 0.145203
0.620154 1.487957 0.795512
0.543979 1.556134 -0.065605
0.576244 1.513151 0.554897
0.590661 1.551428 0.126208
0.545037 1.553055 -0.057630
0.612669 1.459843 0.904284
0.653914 1.562840 -0.093889
0.596823 1.551114 0.159209
0.704727 1.517332 0.383527
0.715903 1.542503 0.167726
0.661845 1.571069 -0.114820
0.630680 1.488625 0.627518
0.597446 1.539521 0.320118
0.555398 1.552276 0.023371
0.652937 1.541241 0.167942
0.663102 1.566438 -0.050856
0.603383 1.549629 0.006195
0.659652 1.550068 0.086013
0.686293 1.454631 1.054037
0.547505 1.510659 0.589037
0.685809 1.454075 0.907029
0.576733 1.466721 0.898526
0.647301 1.510698 0.523701
0.584429 1.484449 0.827673
0.731946 1.558402 -0.122150
0.564939 1.552907 0.164384
0.590697 1.496537 0.617770
0.730539 1.547834 0.035769
0.739006 1.565246 -0.104093
0.708224 1.489579 0.762316
0.654829 1.518135 0.379760
0.742822 1.568808 -0.160065
0.562712 1.530023 0.353199
0.664467 1.534113 0.283891
0.543757 1.471643 0.890720
0.608772 1.530049 0.369046
0.616172 1.554494 -0.078762
0.553682 1.500511 0.603957
0.550639 1.482940 0.862817
0.644536 1.468872 1.110377
0.710893 1.480832 0.634244
0.568750 1.533006 0.356226
0.679467 1.559912 0.005098
0.622186 1.556566 -0.084742
0.726311 1.507355 0.485456
0.737409 1.528839 0.237624
0.578569 1.547491 0.005342
0.631443 1.563881 -0.012677
0.748530 1.548303 -0.008224
0.586030 1.558086 0.150436
0.589301 1.564224 -0.065517
0.616617 1.509180 0.557884
0.660547 1.480970 0.799473
0.635008 1.553509 0.126243
0.654027 1.461795 0.915320
0.591382 1.559145 -0.057558
0.699269 1.562947 -0.095875
0.639190 1.549168 0.161210
0.747110 1.511380 0.385491
0.759293 1.535577 0.167681
0.602691 1.566364 0.024509
0.672054 1.485637 0.632512
0.706213 1.568173 -0.116831
0.638824 1.534577 0.321095
0.698301 1.541313 0.168957
0.585861 1.507675 0.593032
0.709470 1.565546 -0.052850
0.704004 1.550150 0.086028
0.725186 1.448066 0.912996
0.652694 1.561732 0.006313
0.616112 1.463683 0.907523
0.625786 1.485431 0.835702
0.689672 1.507735 0.526693
0.729694 1.449617 1.061014
0.604308 1.547951 0.166361
0.783282 1.563560 -0.127099
0.631076 1.492545 0.622757
0.698195 1.517169 0.383768
0.786381 1.562368 -0.107108
0.781901 1.550957 0.033804
0.750641 1.479604 0.765249
0.602097 1.524042 0.357168
0.587985 1.481911 0.870829
0.789198 1.564928 -0.163088
0.648163 1.522077 0.371998
0.706848 1.528181 0.283857
0.580171 1.459630 0.895644
0.668467 1.570627 -0.080611
0.592094 1.490509 0.608895
0.611102 1.534047 0.359255
0.680938 1.454894 1.111281
0.754270 1.477849 0.639234
0.671471 1.570692 -0.086610
0.722852 1.553998 0.004062
0.773686 1.507397 0.489468
0.780805 1.520910 0.237570
0.624906 1.554562 0.007420
0.675815 1.561962 -0.012678
0.797874 1.551423 -0.010191
0.623444 1.545110 0.153345
0.658975 1.509198 0.562902
0.629700 1.556273 -0.063566
0.701922 1.476978 0.804458
0.692412 1.453791 0.920272
0.678374 1.551576 0.127242
0.631759 1.554196 -0.055582
0.679590 1.540212 0.163151
0.745639 1.561056 -0.097879
0.790490 1.506422 0.388461
0.714427 1.483633 0.639511
0.644076 1.560425 0.025476
0.799701 1.522648 0.166586
0.680192 1.530624 0.323078
0.751591 1.564278 -0.118852
0.626223 1.505685 0.598035
0.741685 1.536368 0.170929
0.768552 1.448033 0.923010
0.665154 1.481424 0.841688
0.753858 1.559636 -0.053888
0.654493 1.457660 0.914494
0.695073 1.556797 0.007287
0.750371 1.549237 0.086032
0.731052 1.501767 0.529658
0.776074 1.450578 1.072035
0.649676 1.549013 0.168388
0.671460 1.487543 0.628734
0.828660 1.557676 -0.130141
0.740583 1.511206 0.386733
0.626349 1.477901 0.876816
0.834756 1.559493 -0.110125
0.793034 1.472614 0.770205
0.689546 1.517103 0.375973
0.646471 1.525058 0.363196
0.837550 1.564076 -0.168090
0.826311 1.541043 0.032731
0.620553 1.457583 0.905650
0.633465 1.489501 0.615908
0.751231 1.524237 0.285837
0.708875 1.559685 -0.079688
0.651469 1.530081 0.362239
0.795649 1.471861 0.644197
0.721324 1.448872 1.118249
0.716841 1.568788 -0.087613
0.768233 1.550082 0.004040
0.672233 1.562637 0.009503
0.818095 1.498455 0.490406
0.665811 1.543154 0.156346
0.716220 1.551028 -0.012754
0.832170 1.523991 0.239602
0.697349 1.501232 0.564853
0.845251 1.547533 -0.012217
0.678012 1.566373 -0.063466
0.717758 1.542630 0.128182
0.746300 1.475966 0.812464
0.732803 1.447763 0.928240
0.679071 1.563293 -0.055491
0.723961 1.538271 0.165149
0.789028 1.553154 -0.099934
0.835870 1.502470 0.391438
0.752824 1.472652 0.642436
0.718576 1.520671 0.324010
0.688434 1.560498 0.026491
0.665580 1.502694 0.603028
0.852042 1.528746 0.167640
0.794987 1.555375 -0.120916
0.786058 1.532436 0.171907
0.808938 1.440035 0.927958
0.705531 1.476418 0.847664
0.693881 1.451629 0.922463
0.796237 1.551731 -0.055943
0.737471 1.548859 0.008234
0.791779 1.537313 0.084945
0.690047 1.543069 0.169354
0.777439 1.499794 0.534655
0.713842 1.484537 0.635726
0.664704 1.474883 0.883810
0.823478 1.448537 1.083030
0.784959 1.508241 0.390720
0.877041 1.552810 -0.134176
0.688833 1.524079 0.368204
0.734925 1.516130 0.380980
0.690843 1.523121 0.364197
0.883135 1.554627 -0.114162
0.674857 1.485482 0.623894
0.843418 1.474611 0.779230
0.873692 1.536152 0.030696
0.885929 1.559211 -0.172127
0.793620 1.516295 0.286783
0.661957 1.453527 0.916638
0.756224 1.561789 -0.080660
0.763697 1.446830 1.128247
0.842024 1.470870 0.651198
0.759239 1.559862 -0.087675
0.812605 1.545173 0.003009
0.714613 1.557692 0.011476
0.765550 1.557139 -0.013693
0.719897 1.451203 1.171476
0.709196 1.539199 0.159328
0.742716 1.502238 0.571876
0.865503 1.492493 0.494365
0.878568 1.517061 0.240552
0.721388 1.562442 -0.062485
0.887676 1.532622 -0.014332
0.786684 1.467980 0.816413
0.772194 1.439742 0.935190
0.762124 1.539709 0.128170
0.724435 1.562379 -0.055485
0.767345 1.533316 0.168121
0.703948 1.495717 0.605987
0.839364 1.557279 -0.101895
0.797195 1.471645 0.650440
0.731799 1.557566 0.027480
0.764938 1.521714 0.328031
0.881264 1.495525 0.393388
0.853316 1.437993 0.938951
0.899435 1.522822 0.168596
0.743913 1.467426 0.851606
0.845343 1.556508 -0.123901
0.830458 1.524501 0.172851
0.735287 1.445582 0.932432
0.846587 1.553854 -0.057920
0.783842 1.546946 0.008229
0.702066 1.468871 0.889778
0.731433 1.536117 0.171310
0.840163 1.534403 0.084929
0.819827 1.491838 0.536601
0.753239 1.475530 0.641668
0.827350 1.500278 0.393665
0.868893 1.441508 1.091983
0.929392 1.553961 -0.138168
0.728242 1.513095 0.372129
0.734195 1.523156 0.368212
0.778301 1.512162 0.384960
0.700353 1.445492 0.924591
0.716254 1.479470 0.630862
0.927033 1.540275 0.029729
0.837012 1.508356 0.287728
0.802587 1.559888 -0.081666
0.932517 1.549755 -0.117200
0.937292 1.557368 -0.177143
0.810085 1.446769 1.141259
0.888411 1.466885 0.657172
0.889833 1.466629 0.784173
0.804628 1.553956 -0.088714
0.862971 1.545283 0.002015
0.755011 1.547739 0.013406
0.760273 1.447144 1.182458
0.751578 1.534231 0.163301
0.810915 1.554225 -0.013709
0.782103 1.492272 0.573807
0.913888 1.489528 0.499345
0.764777 1.556500 -0.060523
0.816570 1.438699 0.946194
0.926964 1.511138 0.241507
0.809484 1.539788 0.129180
0.765821 1.554441 -0.054539
0.837062 1.471948 0.828455
0.945006 1.540769 -0.016269
0.743309 1.490725 0.610961
0.813716 1.531380 0.170114
0.886734 1.553392 -0.103922
0.843580 1.469641 0.658434
0.773192 1.548626 0.028418
0.811296 1.521768 0.331041
0.928645 1.491569 0.397359
0.787279 1.466402 0.860611
0.896703 1.431975 0.946910
0.946809 1.517910 0.168557
0.892709 1.552631 -0.126929
0.776669 1.441539 0.942414
0.742424 1.466838 0.898777
0.881799 1.529577 0.175896
0.774771 1.536177 0.173322
0.890979 1.544945 -0.058988
0.833189 1.550036 0.009262
0.887528 1.531503 0.083910
0.797626 1.472519 0.649657
0.867208 1.489859 0.542592
0.873726 1.497319 0.397648
0.776563 1.519186 0.372191
0.916295 1.437468 1.102957
0.772618 1.511110 0.378126
0.982743 1.554125 -0.143171
0.819698 1.503186 0.388897
0.757642 1.474451 0.638836
0.742747 1.442430 0.936584
0.846981 1.551969 -0.081724
0.931803 1.458892 0.663112
0.852480 1.439733 1.150213
0.888376 1.510425 0.290749
0.987855 1.552926 -0.122180
0.974442 1.530371 0.028649
0.985680 1.549503 -0.181208
0.934245 1.456643 0.789098
0.850010 1.548050 -0.089755
0.905367 1.534356 0.001931
0.802644 1.445082 1.194455
0.799395 1.542799 0.015376
0.824475 1.487288 0.578777
0.857294 1.549322 -0.014742
0.796964 1.530281 0.166280
0.807166 1.548565 -0.059578
0.858963 1.432657 0.956156
0.853854 1.534858 0.130147
0.879453 1.463947 0.834398
0.963293 1.483572 0.503299
0.804256 1.537478 -0.052667
0.978346 1.508227 0.242482
0.990412 1.528870 -0.018365
0.785667 1.488733 0.616957
0.861090 1.529439 0.173105
0.886966 1.463638 0.665393
0.850696 1.508815 0.331945
0.817569 1.543696 0.029387
0.828653 1.461381 0.868581
0.935119 1.547505 -0.105969
0.941087 1.426942 0.956874
0.976032 1.485623 0.400311
0.782789 1.462814 0.906758
0.819063 1.436487 0.953386
0.939088 1.545740 -0.128983
0.818143 1.531232 0.175291
0.925202 1.518639 0.176812
0.999194 1.515003 0.169531
0.942340 1.544079 -0.061995
0.876599 1.539100 0.010179
0.842006 1.469510 0.657643
0.934913 1.525591 0.083864
0.916591 1.487896 0.547581
0.815946 1.509225 0.374121
0.919111 1.491356 0.401605
0.816020 1.504119 0.384081
0.865082 1.499203 0.394873
0.962709 1.429442 1.111897
1.033144 1.545264 -0.147247
0.799052 1.465437 0.645777
0.785159 1.436364 0.948551
0.897333 1.553083 -0.082711
0.980191 1.454904 0.670081
0.896877 1.433692 1.160173
0.934760 1.504487 0.292704
1.031785 1.534517 0.026674
1.038259 1.544055 -0.125257
0.840028 1.434060 1.200377
0.897374 1.545153 -0.090774
1.043052 1.548687 -0.187224
0.989650 1.457623 0.801104
0.847744 1.544876 0.017401
0.959726 1.536480 0.000947
0.870848 1.485307 0.584769
0.840348 1.524316 0.170240
0.899690 1.538394 -0.014825
0.902356 1.426619 0.966115
0.854535 1.546647 -0.058586
0.856587 1.544589 -0.052602
0.900257 1.526929 0.131088
0.925860 1.456946 0.841348
0.829036 1.485732 0.623943
1.014697 1.478614 0.508256
1.030744 1.503306 0.244438
1.046777 1.529020 -0.021373
0.907473 1.524493 0.176070
0.871035 1.455361 0.876542
0.897072 1.504866 0.334919
0.931369 1.455635 0.672334
0.864928 1.542778 0.030386
0.820160 1.453800 0.912697
0.988482 1.422897 0.968843
0.984504 1.541623 -0.108018
1.027416 1.482670 0.405283
0.863459 1.432430 0.965364
0.863515 1.527294 0.177267
0.971593 1.510711 0.177749
1.046593 1.505088 0.169447
0.994441 1.547890 -0.131970
0.921972 1.533184 0.010135
0.994708 1.542207 -0.064013
0.886406 1.463488 0.666602
0.984277 1.522688 0.083839
0.961980 1.480920 0.552527
0.860317 1.505260 0.378097
0.965499 1.485386 0.406558
0.860415 1.498132 0.390041
0.910464 1.494231 0.399838
0.844429 1.464411 0.655779
1.015113 1.428379 1.126886
0.826562 1.429307 0.959508
0.941730 1.543163 -0.082789
0.938283 1.422660 1.168092
1.087519 1.541419 -0.151289
0.986121 1.504557 0.295703
1.027589 1.447912 0.677024
0.887406 1.435955 1.218401
0.946726 1.544264 -0.091781
1.081197 1.523619 0.025579
1.092632 1.540210 -0.129299
0.891147 1.534930 0.019326
1.008119 1.528581 -0.000119
0.915238 1.478326 0.589719
1.038068 1.448628 0.808030
0.887721 1.522364 0.174230
0.954034 1.542520 -0.015793
0.949738 1.425555 0.980110
0.899916 1.540722 -0.057630
0.871405 1.480738 0.629911
0.947626 1.523009 0.132058
0.901964 1.538674 -0.052645
0.975240 1.455920 0.852341
1.066099 1.472656 0.513203
1.100148 1.525151 -0.023415
0.860524 1.448767 0.921666
1.085146 1.498392 0.246390
0.914418 1.449344 0.884500
0.909307 1.535848 0.031335
0.975765 1.447633 0.679273
0.950875 1.513545 0.177985
0.945440 1.502916 0.338906
1.035881 1.416861 0.979793
1.042828 1.547796 -0.111978
1.075818 1.473724 0.408207
0.909854 1.430352 0.980355
0.909886 1.523358 0.179240
1.023968 1.508795 0.179730
1.048798 1.547047 -0.135985
1.097993 1.497185 0.169375
0.973339 1.532279 0.011127
0.929802 1.455482 0.673544
0.903678 1.500304 0.381063
1.049071 1.541342 -0.066028
1.014356 1.480939 0.560524
1.037658 1.519795 0.083810
1.015880 1.482430 0.411532
0.903801 1.491152 0.394991
0.954866 1.485252 0.404770
0.870959 1.426222 0.974494
0.890824 1.461376 0.666763
0.926790 1.425919 1.226328
1.080964 1.447914 0.687015
0.989678 1.423566 1.186099
0.993095 1.541278 -0.083807
1.038512 1.500627 0.298667
0.998108 1.540378 -0.092814
1.150981 1.540391 -0.134316
0.941512 1.535002 0.022328
0.958627 1.469352 0.593651
1.133617 1.512739 0.023481
0.931116 1.513397 0.178162
1.064473 1.530704 -0.000112
1.096460 1.451593 0.823042
0.993149 1.415513 0.990034
1.002414 1.536614 -0.015842
0.947286 1.536804 -0.056659
0.913780 1.473753 0.634862
0.994014 1.515082 0.132994
0.951339 1.535761 -0.051667
1.023641 1.449908 0.861292
0.905885 1.448720 0.933673
0.962794 1.448315 0.895495
1.155536 1.519296 -0.026477
0.991817 1.496967 0.341858
1.000246 1.510610 0.180960
1.119521 1.464702 0.518130
0.963646 1.540954 0.032375
1.139535 1.493480 0.248337
1.028148 1.447619 0.690270
1.130201 1.470780 0.413171
1.092236 1.536911 -0.114072
0.955260 1.424287 0.993312
0.953285 1.512420 0.180155
1.075361 1.502873 0.181675
1.024714 1.529372 0.012099
1.153370 1.494280 0.171337
0.949058 1.494341 0.385018
1.097216 1.534158 -0.138096
0.980193 1.454451 0.685537
1.100447 1.535467 -0.068085
1.092018 1.518909 0.083793
1.060765 1.469972 0.564434
1.068269 1.479459 0.418502
0.952190 1.488159 0.402971
1.003264 1.479276 0.410722
0.936226 1.455347 0.676721
0.919364 1.425127 0.991493
1.130367 1.439918 0.694942
1.044468 1.537393 -0.084843
1.089895 1.495695 0.301620
1.047485 1.534486 -0.093867
1.008986 1.470356 0.602657
0.989892 1.530074 0.024288
0.983484 1.514452 0.183170
1.200211 1.524152 -0.201460
1.112873 1.519805 -0.001207
0.956152 1.466758 0.640810
1.043539 1.414439 1.006022
1.194983 1.512896 0.021461
1.054782 1.533731 -0.016872
1.000637 1.538907 -0.055645
0.998708 1.530844 -0.050708
1.042390 1.509163 0.133943
0.949262 1.443674 0.944637
1.073041 1.443888 0.871239
1.014171 1.449266 0.909501
1.045176 1.498024 0.346861
1.009041 1.531025 0.033294
1.209927 1.511428 -0.028557
1.079540 1.444601 0.701240
1.049646 1.503661 0.184900
1.180903 1.466740 0.527126
1.196941 1.487575 0.250272
1.001668 1.418215 1.007266
1.000665 1.506486 0.182107
1.149594 1.536067 -0.117095
1.185599 1.465829 0.419115
0.996430 1.490376 0.389987
1.124758 1.493945 0.183595
1.075097 1.523461 0.013045
1.026600 1.446434 0.694474
1.157562 1.536335 -0.142096
1.212755 1.491396 0.172293
1.154831 1.529600 -0.070146
1.140417 1.507999 0.083696
1.113167 1.464006 0.570377
1.116675 1.469502 0.422415
0.997594 1.479172 0.408900
1.054641 1.477304 0.417701
0.981629 1.448317 0.686668
0.963783 1.417047 1.005434
1.095861 1.530496 -0.084907
1.142289 1.488774 0.303553
1.057367 1.465370 0.609613
1.175389 1.412179 1.172729
1.098865 1.528600 -0.094922
1.250687 1.516900 -0.165537
1.039270 1.525151 0.026245
1.004514 1.465754 0.649801
1.029866 1.507497 0.187112
1.167250 1.514928 -0.002261
0.994622 1.441627 0.956622
1.101184 1.521815 -0.016974
1.050019 1.532995 -0.054697
1.256365 1.510042 0.020412
1.096742 1.509267 0.134934
1.053060 1.531960 -0.050706
1.058564 1.440241 0.918427
1.058412 1.526112 0.034250
1.089589 1.484074 0.348746
1.130936 1.439592 0.711190
1.101037 1.497730 0.187845
1.049011 1.504552 0.185087
1.276284 1.513613 -0.031571
1.256322 1.484672 0.253224
1.241315 1.462781 0.535072
1.042792 1.485419 0.393945
1.241988 1.460892 0.424055
1.204972 1.530215 -0.120160
1.126480 1.516551 0.013993
1.185120 1.495045 0.186598
1.074998 1.439412 0.704427
1.187062 1.499353 -0.142377
1.272129 1.487512 0.173250
1.213192 1.526757 -0.073175
1.048962 1.478180 0.417902
1.171537 1.465025 0.580382
1.169059 1.463541 0.428369
1.200801 1.505126 0.083667
1.103039 1.468327 0.423637
1.029030 1.441283 0.697626
1.013177 1.414947 1.023432
1.141878 1.412310 1.236005
1.152208 1.529639 -0.086915
1.109741 1.462379 0.618595
1.049877 1.459751 0.657765
1.196669 1.482852 0.306504
1.088651 1.518216 0.029196
1.154231 1.524737 -0.096954
1.076266 1.496538 0.191034
1.041979 1.439569 0.970617
1.157522 1.521949 -0.017974
1.100389 1.527086 -0.053739
1.226609 1.513069 -0.003284
1.318179 1.510852 -0.145603
1.317724 1.507191 0.019374
1.100442 1.522049 -0.050778
1.144136 1.497343 0.135844
1.105795 1.516192 0.035177
1.140961 1.478135 0.352702
1.244472 1.397647 1.037606
1.151417 1.489798 0.190785
1.102367 1.502632 0.188077
1.338663 1.507785 -0.034634
1.090157 1.478458 0.398897
1.321690 1.483792 0.256200
1.238461 1.496249 -0.120419
1.237509 1.486123 0.189511
1.128377 1.437390 0.717403
1.179866 1.509654 0.014925
1.255365 1.508576 -0.147333
1.114344 1.406569 1.290184
1.336501 1.485643 0.175204
1.273554 1.523927 -0.076222
1.098351 1.471205 0.424841
1.221452 1.455577 0.435291
1.227924 1.460063 0.588326
1.256179 1.498247 0.083593
1.155418 1.463364 0.430588
1.079409 1.438251 0.710598
1.192282 1.403250 1.250924
1.098223 1.456767 0.665735
1.161112 1.457402 0.626545
1.208584 1.524773 -0.087970
1.140027 1.512304 0.031139
1.253053 1.476933 0.310438
1.127634 1.492595 0.195994
1.213587 1.523894 -0.098979
1.194730 1.397242 1.051874
1.154761 1.523194 -0.052782
1.210914 1.513071 -0.019059
1.287973 1.511212 -0.003324
1.153817 1.517154 -0.049829
1.201505 1.494459 0.136805
1.383100 1.503366 0.017309
1.159158 1.512297 0.036135
1.197324 1.476207 0.357672
1.146756 1.489694 0.189967
1.204796 1.483871 0.194724
1.300879 1.390601 1.053530
1.142510 1.476508 0.404872
1.402040 1.501964 -0.037714
1.309770 1.505472 -0.124380
1.235232 1.504776 0.014869
1.298877 1.484235 0.192471
1.169721 1.407441 1.314179
1.321715 1.509778 -0.151354
1.145745 1.461224 0.431755
1.399877 1.480781 0.176132
1.283821 1.455639 0.443267
1.209802 1.458398 0.438534
1.322517 1.501409 0.083588
1.131810 1.433213 0.724551
1.153580 1.457765 0.677732
1.232703 1.381261 1.254747
1.215484 1.453425 0.635499
1.265945 1.520914 -0.089022
1.361950 1.421921 0.741726
1.195392 1.509396 0.034102
1.320403 1.481036 0.316440
1.251121 1.394168 1.070833
1.180032 1.484651 0.200921
1.211113 1.521322 -0.052813
1.349648 1.391966 1.227520
1.271267 1.512212 -0.019089
1.347354 1.504357 -0.004404
1.210178 1.514280 -0.049867
1.259879 1.490570 0.138755
1.297602 1.430774 0.927085
1.447504 1.494526 0.016203
1.213525 1.507405 0.037081
1.257674 1.477286 0.363659
1.203097 1.489791 0.192953
1.381563 1.411565 0.879641
1.359272 1.385545 1.071464
1.264163 1.481965 0.198689
1.192890 1.468559 0.409799
1.201256 1.395900 1.074079
1.377120 1.505678 -0.128413
1.428517 1.444943 0.559855
1.198135 1.376482 1.310940
1.297585 1.504914 0.015846
1.362258 1.480351 0.195411
1.198131 1.455240 0.440697
1.266188 1.453428 0.447477
1.374927 1.486516 0.083449
1.307083 1.395063 1.292822
1.424341 1.416931 0.754653
1.243801 1.495470 0.035980
1.237396 1.482729 0.205889
1.297541 1.378125 1.082696
1.267492 1.515437 -0.051878
1.334629 1.510372 -0.020130
1.271060 1.427083 0.976289
1.419072 1.390852 1.254474
1.265558 1.507402 -0.049939
1.410735 1.498516 -0.005483
1.322227 1.490697 0.140730
1.272866 1.507534 0.038062
1.348026 1.414774 0.935942
1.313051 1.470355 0.368585
1.254502 1.477873 0.194846
1.354501 1.417553 0.760956
1.410693 1.370509 1.084325
1.249235 1.467624 0.415775
1.325530 1.480057 0.203649
1.461945 1.420519 0.904660
1.260647 1.395796 1.097060
1.274500 1.396232 1.355064
1.495545 1.441178 0.452781
1.352985 1.494023 0.016738
1.259495 1.457261 0.452693
1.243423 1.427368 1.030485
1.411079 1.448170 0.618152
1.455697 1.501427 -0.084489
1.215795 1.391559 1.099226
1.448276 1.489692 0.084431
1.365493 1.388952 1.315750
1.484751 1.406942 0.766541
1.313114 1.504626 0.038023
1.295765 1.479801 0.211845
1.361941 1.378019 1.107666
1.376745 1.494289 -0.103275
1.327846 1.513569 -0.050917
1.325909 1.505544 -0.049977
1.397995 1.506532 -0.021191
1.382586 1.486817 0.142671
1.489497 1.387752 1.280407
1.476121 1.491681 -0.006574
1.334228 1.504677 0.038015
1.414421 1.413726 0.955901
1.317844 1.479984 0.198838
1.417889 1.414536 0.776901
1.484091 1.373407 1.112301
1.378938 1.467127 0.207526
1.311065 1.383717 1.113952
1.522373 1.407516 0.917523
1.324895 1.386145 1.372970
1.350952 1.416290 0.773170
1.419350 1.492174 0.017690
1.548989 1.420242 0.456588
1.471982 1.441799 0.470066
1.268215 1.382457 1.119142
1.389613 1.440484 0.667331
1.423907 1.379870 1.335652
1.620010 1.473261 0.182922
1.362529 1.488694 0.040880
1.443094 1.497348 -0.092287
1.350154 1.470857 0.217755
1.572126 1.416933 0.790554
1.432339 1.380894 1.136651
1.521531 1.472356 0.332259
1.383250 1.501678 -0.050033
1.465350 1.504709 -0.022243
1.554937 1.377662 1.303287
1.477815 1.408688 0.973826
1.391613 1.495794 0.038920
1.374212 1.473079 0.201760
1.486293 1.411516 0.794838
1.545518 1.362337 1.132178
1.356496 1.364668 1.125792
1.591807 1.398494 0.935405
1.378295 1.377038 1.393878
1.414343 1.413263 0.790117
1.331197 1.397325 1.049229
1.375024 1.444792 0.722558
1.615394 1.410317 0.464464
1.560409 1.463712 0.206165
1.357373 1.417054 0.787360
1.458324 1.447554 0.479342
1.651736 1.437387 0.272631
1.647751 1.429129 0.593580
1.329620 1.381318 1.146112
1.537384 1.433860 0.478964
1.488329 1.373748 1.361569
1.428877 1.488837 0.042848
1.483760 1.364839 1.151502
1.626572 1.395938 0.800356
1.444233 1.407957 1.025066
1.452980 1.489929 0.039844
1.502178 1.456603 0.387382
1.541234 1.398665 0.989711
1.621392 1.364573 1.326140
1.544709 1.398509 0.807703
1.613947 1.354252 1.156067
1.438880 1.379468 1.166861
1.443686 1.377866 1.425852
1.737063 1.465307 0.009759
1.398554 1.403225 1.075243
1.667247 1.390472 0.955285
1.480749 1.409225 0.809050
1.446637 1.449338 0.487551
1.635774 1.461865 0.210094
1.715741 1.423449 0.479477
1.416788 1.409010 0.804272
1.518723 1.437598 0.488231
1.366068 1.353285 1.152889
1.599800 1.420919 0.486823
1.722168 1.420190 0.605450
1.753080 1.448593 0.280626
1.613282 1.428300 0.651871
1.560755 1.371586 1.394506
1.669396 1.479240 0.085195
1.726927 1.421462 0.183446
1.549173 1.358736 1.176414
1.697989 1.386948 0.816230
1.500626 1.397915 1.040959
1.627418 1.427513 0.336848
1.486679 1.451874 0.444547
1.672309 1.459168 -0.008960
1.613643 1.394617 1.011629
1.706830 1.365408 1.364075
1.614115 1.392492 0.825609
1.489315 1.361397 1.182699
1.595028 1.467488 0.225397
1.697363 1.355143 1.188004
1.502103 1.367744 1.449743
1.457936 1.398154 1.095176
1.540159 1.398202 0.823931
1.754673 1.389436 0.981201
1.499063 1.432351 0.496394
1.700192 1.446975 0.213931
1.473208 1.396965 0.820153
1.792157 1.413539 0.489333
1.584129 1.428639 0.499121
1.441468 1.361087 1.190912
1.585768 1.425559 0.705101
1.691153 1.430009 0.502819
1.681699 1.417339 0.663736
1.626183 1.361478 1.419383
1.803594 1.412256 0.619316
1.837485 1.441753 0.286494
1.551257 1.465135 0.238602
1.612612 1.346641 1.199280
1.564032 1.389855 1.060858
1.853210 1.447775 0.190521
1.771427 1.374952 0.833075
1.732724 1.446698 0.348904
1.580255 1.472461 0.214637
1.686067 1.386577 1.032512
1.780286 1.353296 1.391919
1.560726 1.360255 1.213645
1.566513 1.361595 1.478657
1.516310 1.392082 1.115097
1.681546 1.380475 0.842467
1.763808 1.340069 1.209834
1.552159 1.422813 0.759296
1.606572 1.390163 0.842826
1.579416 1.439391 0.513397
1.839113 1.382407 1.005068
1.556581 1.406891 0.849176
1.662506 1.428699 0.513064
1.794544 1.452176 0.219887
1.506895 1.355930 1.220838
1.647175 1.412584 0.715960
1.886546 1.413657 0.503240
1.756590 1.413066 0.511637
1.757099 1.410386 0.677620
1.699625 1.354317 1.452272
1.617646 1.457223 0.245498
1.897000 1.410336 0.636208
1.638424 1.388786 1.085798
1.934878 1.439952 0.293380
1.689043 1.342504 1.231189
1.858838 1.371950 0.855968
1.949586 1.446012 0.193407
1.811130 1.437826 0.355767
1.697548 1.434459 0.151071
1.712319 1.438896 0.409098
1.583691 1.389990 1.140039
1.633928 1.355436 1.509564
1.769490 1.383517 1.059418
1.628164 1.351124 1.241531
1.759959 1.375450 0.864363
1.707898 1.426646 0.233006
1.863754 1.344148 1.426770
1.844253 1.331956 1.240696
1.613556 1.411829 0.771173
1.676991 1.382129 0.862714
1.631855 1.418404 0.522204
1.765256 1.456967 0.023179
1.923571 1.371367 1.029900
1.607028 1.384851 0.861979
1.578308 1.354758 1.254785
1.720567 1.406614 0.730857
1.728931 1.414742 0.523906
1.872944 1.442328 0.224739
1.973971 1.403765 0.515073
1.836994 1.406142 0.524511
1.847492 1.410437 0.696537
1.775066 1.346164 1.485146
1.681054 1.444300 0.252354
1.706846 1.378722 1.107670
1.890586 1.444786 0.085736
1.762481 1.333386 1.260059
1.983441 1.398408 0.651026
2.036273 1.437155 0.301247
1.946270 1.363956 0.877817
1.692797 1.437105 0.471296
1.897525 1.431975 0.363640
1.732434 1.470588 0.043506
1.807835 1.453743 0.155120
1.644089 1.378931 1.158915
1.787710 1.431005 0.416974
1.705351 1.349260 1.543463
1.678930 1.404834 0.786073
1.845927 1.372470 1.082265
1.694602 1.339990 1.269398
1.846374 1.372424 0.889260
1.812209 1.441848 0.243030
1.930697 1.324845 1.273554
1.958225 1.338970 1.468632
1.747420 1.371092 0.882575
1.709238 1.416440 0.538131
1.675449 1.375798 0.882863
1.801951 1.404635 0.749773
1.641752 1.342611 1.282651
2.018019 1.364325 1.058743
1.803338 1.405786 0.537775
1.972316 1.442546 0.230639
1.760815 1.445479 0.058295
2.064394 1.392885 0.526890
1.772395 1.451442 0.263334
1.867509 1.346942 1.531065
1.925406 1.400225 0.539379
1.925921 1.397491 0.710362
1.784254 1.373653 1.133567
1.846917 1.329238 1.295950
1.764179 1.429191 0.480180
2.099858 1.400520 0.672908
2.141683 1.431371 0.309079
2.042709 1.357944 0.904664
1.787404 1.444859 0.225271
1.792857 1.450715 0.044306
1.904164 1.458977 0.159069
1.713485 1.372844 1.183818
1.994898 1.431156 0.372532
1.873080 1.428132 0.426882
1.771780 1.337095 1.574325
1.753304 1.400839 0.803993
1.765041 1.328849 1.299266
1.933354 1.366404 1.111142
1.927801 1.362398 0.912114
1.892612 1.431984 0.249890
1.833820 1.370038 0.910502
1.782633 1.408472 0.553022
1.749851 1.369741 0.906771
1.884343 1.398668 0.767665
1.711179 1.333451 1.314544
1.894721 1.404863 0.554697
2.064714 1.433738 0.236487
1.841189 1.439650 0.062196
1.840804 1.436538 0.270178
1.862657 1.366581 1.160458
2.016807 1.393322 0.554247
2.027309 1.397555 0.732271
2.174796 1.390032 0.543753
1.921353 1.315127 1.324788
1.839548 1.422276 0.491079
1.785867 1.366755 1.210730
1.870748 1.443025 0.231201
2.202291 1.390605 0.692729
2.249084 1.423599 0.316908
2.219854 1.402639 0.202786
1.854195 1.333879 1.617238
1.960458 1.423260 0.437771
2.091301 1.423322 0.382388
1.833672 1.398843 0.824919
1.845475 1.321684 1.336152
2.027770 1.362333 1.144024
2.015231 1.352380 0.936960
1.993964 1.435186 0.258825
1.867025 1.404517 0.570929
1.915241 1.360999 0.935369
1.836252 1.368672 0.936700
1.972738 1.393698 0.788552
1.780614 1.321295 1.346408
1.977138 1.393920 0.570546
1.929177 1.433680 0.280086
1.946068 1.359500 1.190337
2.115209 1.387429 0.571106
2.130724 1.392627 0.754131
1.924917 1.418387 0.502982
1.863260 1.360664 1.239628
1.967089 1.445239 0.237137
1.912058 1.390867 0.842799
2.053844 1.417409 0.448643
2.192701 1.415510 0.392225
1.928911 1.313519 1.374024
2.089351 1.429363 0.267693
1.949424 1.396565 0.587804
1.996670 1.348959 0.960210
1.911677 1.356611 0.961554
2.064136 1.386748 0.808418
1.862054 1.314102 1.386296
2.077525 1.392014 0.589438
2.027483 1.348432 1.218183
2.023545 1.431836 0.290991
2.226618 1.383551 0.590960
2.010294 1.411499 0.514859
1.944649 1.355560 1.271525
2.054466 1.437419 0.243003
1.995444 1.383880 0.863678
2.146242 1.407554 0.459481
2.303091 1.409722 0.403062
2.187752 1.420550 0.276530
2.036835 1.387610 0.606663
2.002099 1.350544 0.992433
2.163542 1.380787 0.832277
2.173946 1.382091 0.608271
2.118932 1.425983 0.302860
2.029045 1.349446 1.305408
2.102661 1.406628 0.527739
2.153827 1.433644 0.248882
2.088818 1.380901 0.887572
2.258619 1.405744 0.473352
2.137224 1.384675 0.628549
2.212335 1.415133 0.313690
2.211025 1.406775 0.544635
2.312740 1.404298 0.325508
2.332634 1.402036 0.258469
2.753251 -0.978887 2.947027
2.710604 -1.032898 2.925798
2.764944 -1.089103 2.962311
2.705264 -1.184845 2.913449
2.669971 -1.087944 2.908558
2.705258 -1.138058 2.929168
2.651599 -1.235876 2.890286
2.657601 -1.191086 2.909982
2.700148 -1.392184 2.913367
2.649457 -1.438210 2.893222
