# .PCD v0.7 - Point Cloud Data file format
VERSION 0.7
FIELDS x y z
SIZE 4 4 4
TYPE F F F
COUNT 1 1 1
WIDTH 967
HEIGHT 1
VIEWPOINT 0 0 0 1
POINTS 967
DATA ascii
0.256103 1.479462 0.807605
0.263190 1.476295 0.726662
0.293469 1.481529 0.811838
0.298565 1.475357 0.729893
0.330846 1.481587 0.815079
0.332977 1.468404 0.732143
0.362843 1.518023 0.491144
0.364039 1.497123 0.552232
0.372144 1.494681 0.826296
0.369363 1.466460 0.736387
0.394377 1.494043 0.487440
0.402447 1.495189 0.554488
0.408561 1.487715 0.826559
0.403787 1.457493 0.737648
0.436568 1.521830 0.319600
0.431775 1.492109 0.490690
0.444797 1.503276 0.559730
0.445966 1.482755 0.829822
0.449023 1.480615 0.754851
0.469977 1.514792 0.269843
0.476012 1.516899 0.319874
0.469194 1.487167 0.493953
0.492105 1.527573 0.117932
0.487147 1.510361 0.565974
0.484366 1.478794 0.833089
0.485417 1.475655 0.759109
0.509402 1.511866 0.272110
0.515452 1.511965 0.321149
0.508581 1.487233 0.498209
0.526508 1.522579 0.085173
0.532553 1.523652 0.118208
0.525581 1.503406 0.567252
0.522742 1.476835 0.838348
0.521816 1.469687 0.762372
0.556765 1.530449 -0.031667
0.547839 1.505930 0.274383
0.557838 1.515046 0.323409
0.552913 1.497326 0.506454
0.567933 1.521663 0.085443
0.569020 1.517422 -0.052533
0.571994 1.518722 0.117482
0.565001 1.498455 0.570528
0.585970 1.542366 -0.126531
0.589018 1.540383 -0.119504
0.565110 1.478889 0.846615
0.557239 1.459707 0.765647
0.601191 1.532544 -0.033391
0.589260 1.504000 0.276658
0.603225 1.520135 0.327678
0.597272 1.503409 0.513714
0.610370 1.519745 0.086724
0.620358 1.535554 -0.054282
0.626290 1.542866 0.119725
0.607403 1.497512 0.574806
0.630413 1.542464 -0.128249
0.632460 1.539475 -0.121223
0.601541 1.467897 0.847901
0.598606 1.460758 0.773913
0.644628 1.531632 -0.034110
0.635623 1.512096 0.280921
0.642672 1.512183 0.327966
0.632743 1.488427 0.515010
0.659727 1.531859 0.087986
0.662821 1.530633 -0.054990
0.664773 1.530918 0.120022
0.648816 1.493559 0.579091
0.673878 1.538549 -0.129956
0.636996 1.455788 0.780186
0.676934 1.535562 -0.122923
0.640954 1.460916 0.852189
0.680015 1.514175 0.285196
0.697971 1.548763 -0.035848
0.674135 1.486480 0.520285
0.686100 1.509245 0.330257
0.698218 1.518906 0.088289
0.735969 1.585863 -0.058775
0.711205 1.530999 0.120317
0.686257 1.482576 0.579382
0.721312 1.540647 -0.132665
0.673421 1.444794 0.783474
0.725357 1.539664 -0.125635
0.683337 1.458950 0.859473
0.723438 1.511237 0.287486
0.740447 1.540830 -0.036544
0.714571 1.478514 0.524582
0.731507 1.509313 0.333547
0.751588 1.531023 0.090572
0.752700 1.527801 -0.056407
0.756628 1.530074 0.120609
0.731650 1.482631 0.585673
0.764779 1.534722 -0.133364
0.713804 1.440823 0.791755
0.722736 1.451963 0.864761
0.770801 1.537748 -0.127340
0.765872 1.505289 0.290783
0.789878 1.542923 -0.038243
0.726842 1.428346 1.169901
0.760940 1.481579 0.531864
0.772961 1.500351 0.334851
0.794048 1.523079 0.090876
0.807084 1.538919 -0.058117
0.799096 1.521126 0.120917
0.772082 1.473654 0.588973
0.760137 1.445882 0.805030
0.822141 1.550855 -0.138079
0.763125 1.445977 0.871049
0.824196 1.546862 -0.131048
0.810306 1.500342 0.294087
0.831359 1.531976 -0.038933
0.768201 1.424352 1.181188
0.801358 1.473608 0.537159
0.817391 1.495399 0.337155
0.842460 1.524159 0.092174
0.852546 1.532987 -0.058806
0.847526 1.520198 0.121225
0.817487 1.470695 0.595276
0.800543 1.437892 0.811327
0.868603 1.545931 -0.139768
0.806531 1.439993 0.878358
0.870658 1.541939 -0.132734
0.853751 1.492387 0.296397
0.811558 1.421363 1.193481
0.881793 1.532065 -0.040621
0.845778 1.467648 0.543467
0.863804 1.492459 0.340459
0.890892 1.521237 0.093486
0.902969 1.533082 -0.059498
0.891982 1.511256 0.122539
0.863884 1.467743 0.601578
0.843910 1.434927 0.821613
0.919043 1.544028 -0.141454
0.848916 1.434011 0.886649
0.917123 1.534014 -0.134419
0.903144 1.492462 0.301696
0.853939 1.414359 1.203777
0.928242 1.525137 -0.041310
0.887192 1.458674 0.547762
0.908235 1.484504 0.343765
0.935359 1.510289 0.093803
0.950433 1.525154 -0.060179
0.941396 1.509333 0.122844
0.911277 1.464789 0.608879
0.885323 1.424933 0.828915
0.969490 1.540116 -0.144137
0.896299 1.431040 0.896953
0.973538 1.538128 -0.138104
0.948586 1.483507 0.305010
0.894338 1.403336 1.211078
0.979681 1.522222 -0.042992
0.938559 1.460743 0.558062
0.957655 1.480562 0.347079
0.988762 1.511380 0.096114
0.999882 1.519230 -0.061860
0.931691 1.421966 0.841210
0.993811 1.508415 0.124157
0.955708 1.454809 0.613193
1.018939 1.534196 -0.146820
0.944667 1.429073 0.908254
1.023993 1.532210 -0.139782
0.997000 1.478564 0.309320
0.940675 1.401353 1.228368
1.031107 1.519306 -0.043678
0.984969 1.453778 0.565371
1.008061 1.477623 0.351390
1.039192 1.506451 0.097431
0.978059 1.417993 0.852507
1.058275 1.524343 -0.063546
1.006079 1.453862 0.622495
1.042254 1.500473 0.125478
0.992037 1.425097 0.919555
1.070401 1.527277 -0.148491
1.076441 1.527294 -0.142456
1.047408 1.474624 0.313633
0.989036 1.397360 1.244677
1.086541 1.517396 -0.045350
1.030394 1.443799 0.570686
1.056491 1.469666 0.354710
1.089631 1.499514 0.098754
1.024446 1.411009 0.863814
1.050510 1.441872 0.626813
1.108737 1.515410 -0.064215
1.097687 1.497550 0.125810
1.045393 1.425140 0.934868
1.094028 1.483226 -0.147144
1.114971 1.503312 -0.143122
1.096837 1.466670 0.317956
1.079782 1.438841 0.579996
1.139977 1.512475 -0.047024
1.114875 1.471749 0.361034
1.145051 1.496593 0.100082
1.071819 1.405028 0.876119
1.162179 1.509487 -0.064885
1.102923 1.435908 0.635143
1.147135 1.487600 0.127138
1.091781 1.416144 0.946180
1.146482 1.476300 -0.149814
1.158458 1.486349 -0.144795
1.149243 1.461726 0.323277
1.131182 1.432879 0.589318
1.195414 1.507555 -0.047691
1.162336 1.457769 0.363370
1.198496 1.488654 0.101419
1.124189 1.401057 0.891438
1.221608 1.507581 -0.066547
1.157315 1.431951 0.644471
1.203557 1.483674 0.128471
1.137196 1.403129 0.954502
1.229785 1.503503 -0.156483
1.234813 1.503517 -0.150455
1.202664 1.454777 0.328608
1.183576 1.426916 0.598641
1.257843 1.506655 -0.049344
1.218740 1.453830 0.369702
1.253940 1.480717 0.103761
1.216680 1.432012 0.656800
1.254194 1.471546 -0.066194
1.259996 1.476738 0.129814
1.258084 1.447828 0.333946
1.241950 1.424973 0.610973
1.322269 1.505756 -0.051993
1.277143 1.449891 0.375040
1.314361 1.476797 0.106106
1.272078 1.425045 0.667136
1.322593 1.475666 -0.067846
1.322406 1.474824 0.132159
1.320480 1.445903 0.341291
1.341544 1.447966 0.382393
1.375784 1.471873 0.107455
1.378856 1.463874 0.133510
1.381057 1.465732 -0.069489
1.374916 1.433935 0.346637
1.435219 1.479867 -0.054276
1.442208 1.467959 0.109819
1.453454 1.468855 -0.071130
1.447280 1.460963 0.134879
1.495687 1.467929 -0.055910
1.505647 1.459027 0.112183
0.206389 1.466276 0.899943
0.225604 1.474385 0.875144
0.226704 1.468877 0.810114
0.240731 1.467085 0.904212
0.250004 1.461099 0.767239
0.259962 1.467228 0.874359
0.264092 1.462718 0.808359
0.273068 1.459926 0.904411
0.278336 1.458235 0.733436
0.280339 1.458117 0.747450
0.284355 1.457942 0.767480
0.293308 1.460065 0.874565
0.302466 1.466523 0.811674
0.308716 1.478832 0.642796
0.307409 1.458731 0.908664
0.316688 1.461910 0.753750
0.316706 1.461011 0.740744
0.317694 1.453780 0.768705
0.327939 1.479980 0.613947
0.331022 1.492459 0.553048
0.328658 1.458874 0.877824
0.344190 1.487599 0.528114
0.339835 1.465334 0.813947
0.343060 1.474674 0.644026
0.340745 1.454551 0.910887
0.353048 1.458711 0.758002
0.352066 1.453822 0.743963
0.353049 1.450600 0.770950
0.363296 1.473825 0.614170
0.369403 1.487297 0.553299
0.364002 1.458675 0.882086
0.372508 1.487771 0.492323
0.373504 1.485653 0.506318
0.378623 1.505359 0.417478
0.380548 1.483439 0.529356
0.378404 1.472496 0.647274
0.379073 1.469272 0.925266
0.379222 1.464143 0.815232
0.395841 1.499560 0.383566
0.389408 1.454510 0.762244
0.389400 1.451410 0.774225
0.390431 1.454593 0.751252
0.399642 1.474647 0.617443
0.401346 1.463446 0.889392
0.406782 1.479151 0.551521
0.413971 1.499217 0.417697
0.409869 1.483584 0.496570
0.409868 1.477482 0.508532
0.420149 1.505059 0.310776
0.415895 1.479290 0.529588
0.413748 1.469316 0.650513
0.412409 1.462087 0.927465
0.418591 1.466932 0.819538
0.434323 1.506297 0.274885
0.435282 1.505963 0.315890
0.433198 1.496398 0.385817
0.445373 1.520133 0.292051
0.425762 1.451308 0.766491
0.424750 1.447227 0.776458
0.425788 1.446391 0.755460
0.437998 1.476453 0.621733
0.438695 1.464221 0.895669
0.450319 1.495056 0.419933
0.446153 1.478971 0.553806
0.447218 1.477297 0.512802
0.448237 1.479392 0.500822
0.457504 1.501917 0.311024
0.453086 1.480093 0.658865
0.446746 1.456881 0.931682
0.453254 1.476117 0.531839
0.469679 1.520596 0.224225
0.457965 1.465724 0.822815
0.473687 1.505129 0.278159
0.471554 1.496242 0.387091
0.474654 1.502814 0.316152
0.459091 1.442053 0.777676
0.463111 1.451079 0.773760
0.477728 1.497000 0.291137
0.464141 1.448152 0.763749
0.473350 1.468284 0.622936
0.487906 1.513810 0.189311
0.474046 1.457026 0.897879
0.487667 1.492883 0.423186
0.485531 1.474794 0.555062
0.484577 1.472113 0.516037
0.487599 1.479191 0.506103
0.479075 1.447703 0.932858
0.483425 1.459961 0.655958
0.495873 1.495769 0.311259
0.491613 1.474941 0.534105
0.505025 1.510453 0.225412
0.513233 1.517437 0.102509
0.498349 1.462515 0.825084
0.508910 1.491084 0.388324
0.512049 1.498957 0.281391
0.515029 1.500661 0.316424
0.522345 1.519646 0.073586
0.496439 1.441839 0.782942
0.520292 1.509233 0.123509
0.499465 1.444870 0.777982
0.516086 1.492829 0.294382
0.499507 1.434947 0.766922
0.519703 1.491007 0.636405
0.527356 1.514304 0.112589
0.526265 1.508662 0.190548
0.510390 1.453814 0.902118
0.532392 1.518299 0.111649
0.524015 1.486725 0.424404
0.514405 1.445478 0.939096
0.538606 1.516304 -0.013324
0.523935 1.471910 0.521315
0.522948 1.469009 0.509290
0.528766 1.482678 0.670418
0.527913 1.476594 0.558372
0.535235 1.493610 0.312521
0.525964 1.462791 0.533273
0.542377 1.504304 0.226635
0.549618 1.523831 0.040800
0.553594 1.516283 0.104783
0.505698 1.382417 -0.030372
0.535717 1.454321 0.826297
0.548270 1.488912 0.390585
0.550409 1.492784 0.284621
0.538786 1.453570 0.794313
0.561702 1.516503 0.074839
0.554404 1.493514 0.315654
0.512740 1.382219 -0.009322
0.541819 1.453589 0.790334
0.562667 1.511098 0.122814
0.557453 1.493651 0.297675
0.556050 1.483833 0.637614
0.543862 1.448638 0.782318
0.567725 1.510154 0.113843
0.566631 1.506517 0.190815
0.517843 1.378488 -0.044308
0.547742 1.449595 0.906354
0.570755 1.510169 0.110863
0.559359 1.477565 0.425594
0.524857 1.385255 -0.018217
0.524892 1.385496 -0.047216
0.548736 1.439268 0.943299
0.564105 1.474487 0.673613
0.525875 1.378153 -0.007252
0.565295 1.474692 0.527619
0.565310 1.473774 0.517614
0.524906 1.369230 -0.017313
0.573594 1.488460 0.312755
0.575292 1.490357 0.565784
0.568322 1.469573 0.539610
0.580724 1.501146 0.228879
0.537050 1.391885 -0.098092
0.587977 1.515697 0.041013
0.539076 1.391928 -0.104078
0.592951 1.511119 0.108021
0.543064 1.379304 -0.032124
0.588624 1.489731 0.393868
0.590763 1.492600 0.288897
0.575092 1.448110 0.828533
0.574135 1.444384 0.795503
0.603069 1.514354 0.076108
0.551100 1.383089 -0.009044
0.593778 1.485355 0.315875
0.579175 1.446363 0.795550
0.595806 1.488485 0.299907
0.602034 1.503963 0.122039
0.552180 1.381525 -0.062047
0.593403 1.476645 0.639827
0.582218 1.443395 0.789553
0.607080 1.506007 0.115085
0.605990 1.501363 0.192052
0.585084 1.446360 0.912593
0.578238 1.434378 -0.047548
0.608715 1.501317 0.436076
0.586064 1.440011 0.952563
0.614133 1.511030 0.110163
0.606331 1.488384 -0.052030
0.600442 1.469295 0.676831
0.562227 1.380139 -0.019983
0.577248 1.412015 -0.006688
0.603650 1.468491 0.531845
0.601664 1.462583 0.520796
0.619352 1.507111 -0.021828
0.614959 1.487286 0.315030
0.614683 1.483333 0.548010
0.614663 1.482172 0.567003
0.626093 1.508966 0.232234
0.609483 1.469823 -0.108122
0.628342 1.510558 0.041255
0.628544 1.508895 -0.118758
0.631302 1.503963 0.110236
0.632982 1.497527 0.399215
0.630121 1.486412 0.293126
0.645554 1.523219 -0.042556
0.612485 1.441167 0.799747
0.643419 1.513209 0.077372
0.618465 1.450862 0.834846
0.616519 1.441131 0.801774
0.650565 1.521959 -0.013530
0.636161 1.486305 0.303166
0.653651 1.526458 -0.073483
0.645403 1.505816 0.122342
0.631755 1.470445 0.643049
0.647170 1.507140 0.321366
0.620415 1.440146 0.916797
0.619572 1.435158 0.795759
0.647441 1.500845 0.117325
0.657368 1.521179 0.195516
0.656670 1.520273 -0.053500
0.647063 1.495141 0.438296
0.622396 1.435776 0.958785
0.635775 1.461102 0.680021
0.661716 1.519256 -0.053473
0.660520 1.514884 0.109496
0.664702 1.522039 -0.028436
0.663680 1.517861 -0.007467
0.651008 1.482223 0.543246
0.665717 1.516972 -0.021460
0.650027 1.477303 0.533210
0.626300 1.416390 1.116700
0.656319 1.486119 0.316300
0.663436 1.500812 0.233434
0.653039 1.475145 0.550218
0.658043 1.479962 0.570280
0.672710 1.513414 0.041566
0.678912 1.527751 -0.117310
0.679945 1.522802 -0.124333
0.675667 1.506788 0.113548
0.676343 1.499335 0.402514
0.670466 1.485225 0.297388
0.650832 1.436940 0.804980
0.688930 1.520095 -0.044289
0.695792 1.534039 0.079843
0.657838 1.441645 0.837056
0.653869 1.432902 0.806977
0.690921 1.515813 -0.012301
0.671101 1.467236 0.647292
0.677521 1.483111 0.307422
0.698022 1.526318 -0.073193
0.659766 1.436900 0.923042
0.689780 1.505670 0.121634
0.690539 1.505966 0.322645
0.656717 1.428552 0.963973
0.684396 1.488958 0.441505
0.659928 1.431889 0.805011
0.693806 1.508677 0.119678
0.692716 1.505033 0.195651
0.699028 1.519138 -0.053229
0.675120 1.457881 0.685264
0.704072 1.518112 -0.052202
0.698887 1.500743 0.108663
0.705037 1.513713 -0.006222
0.707077 1.515913 -0.030196
0.688363 1.470023 0.546420
0.708076 1.514824 -0.020196
0.688380 1.468088 0.538409
0.711795 1.513619 0.237827
0.691388 1.467956 0.552428
0.708695 1.504905 0.321756
0.666674 1.410125 1.121934
0.740110 1.563258 0.041303
0.698409 1.472773 0.571503
0.723284 1.527648 -0.121023
0.726320 1.526697 -0.128009
0.721026 1.511612 0.116872
0.714688 1.491156 0.404715
0.690174 1.434702 0.811228
0.719837 1.495995 0.304775
0.725133 1.502902 0.079845
0.745324 1.542975 -0.047788
0.693217 1.428651 0.814212
0.709448 1.460032 0.650501
0.694043 1.425295 0.972201
0.700209 1.438398 0.842316
0.729892 1.500879 0.314869
0.737297 1.517664 -0.011990
0.699113 1.432651 0.929277
0.741384 1.524188 -0.073926
0.725745 1.486757 0.445761
0.729147 1.493527 0.120816
0.732917 1.497795 0.322870
0.699276 1.426620 0.814240
0.741080 1.514856 0.198022
0.730159 1.492522 0.120817
0.713455 1.453663 0.690490
0.744405 1.518000 -0.053944
0.749435 1.519961 -0.050900
0.764426 1.542546 -0.004669
0.755280 1.522586 0.108156
0.729711 1.467796 0.552676
0.763469 1.537791 -0.033704
0.788496 1.586675 -0.022252
0.731731 1.468841 0.546695
0.751138 1.506449 0.240037
0.733743 1.466743 0.556696
0.747051 1.492743 0.321931
0.708041 1.405851 1.128182
0.763442 1.518126 0.041180
0.743790 1.470545 0.575783
0.772675 1.531543 -0.125685
0.758370 1.498440 0.120032
0.772702 1.525588 -0.131721
0.756047 1.484968 0.406943
0.728525 1.426484 0.814430
0.761192 1.489797 0.309003
0.778503 1.520727 0.082291
0.730371 1.418051 0.978395
0.750790 1.458800 0.656760
0.733564 1.424379 0.823450
0.776675 1.512848 -0.048770
0.768240 1.489701 0.317047
0.737453 1.426403 0.935489
0.775650 1.504523 -0.011825
0.767086 1.484555 0.450012
0.743580 1.435139 0.848578
0.785757 1.519041 -0.073677
0.751787 1.448442 0.695706
0.780431 1.504701 0.198210
0.785535 1.513349 0.122292
0.739630 1.420343 0.823465
0.786541 1.513328 0.124298
0.775288 1.489614 0.324091
0.788775 1.513862 -0.054688
0.789787 1.510812 -0.049700
0.791756 1.507388 -0.001707
0.770059 1.461575 0.557897
0.794797 1.508525 -0.018682
0.773081 1.463600 0.553928
0.798825 1.515668 -0.035614
0.798657 1.513433 0.107374
0.795492 1.506270 0.242315
0.775096 1.461528 0.560928
0.790413 1.488555 0.324180
0.751403 1.404539 1.138455
0.810814 1.518969 0.041481
0.812038 1.516421 -0.127530
0.786158 1.463330 0.579009
0.813742 1.517240 0.124491
0.820076 1.526477 -0.135420
0.795398 1.474780 0.409131
0.768871 1.422237 0.820663
0.803540 1.485588 0.314244
0.768698 1.413785 0.986616
0.820857 1.514566 0.083518
0.775910 1.423094 0.833713
0.792140 1.453569 0.661990
0.776792 1.421142 0.942709
0.833068 1.528721 -0.052325
0.807431 1.477357 0.453222
0.812600 1.486494 0.321305
0.789118 1.440228 0.699894
0.833033 1.524361 -0.011351
0.831114 1.518906 -0.074396
0.786951 1.429883 0.853823
0.829893 1.511201 0.121554
0.823791 1.499530 0.199449
0.781977 1.418046 0.834722
0.830901 1.509152 0.126549
0.843154 1.527723 -0.056270
0.820667 1.484426 0.325343
0.849169 1.534660 -0.050192
0.845127 1.520221 -0.000301
0.812416 1.455335 0.564125
0.836839 1.499092 0.244528
0.848172 1.520367 -0.018282
0.811433 1.450382 0.558090
0.851212 1.522534 -0.038251
0.844030 1.508278 0.106623
0.817456 1.455314 0.564156
0.833780 1.481371 0.325406
0.858177 1.519812 0.041776
0.794769 1.400228 1.147704
0.853094 1.503066 0.126648
0.868431 1.530316 -0.133103
0.837741 1.471583 0.412374
0.878469 1.544381 -0.141959
0.831539 1.457102 0.582254
0.809217 1.415986 0.826880
0.808021 1.410499 0.996844
0.848897 1.483361 0.320510
0.864208 1.509403 0.084752
0.814125 1.411900 0.947889
0.832488 1.445344 0.666192
0.816256 1.415822 0.841923
0.845763 1.468162 0.456404
0.829442 1.437985 0.707131
0.858957 1.486276 0.326588
0.881395 1.526206 -0.011047
0.880447 1.524591 -0.055063
0.887500 1.531761 -0.075979
0.822318 1.411768 0.843937
0.868150 1.494346 0.201689
0.830317 1.423617 0.860055
0.874263 1.503045 0.120776
0.876258 1.505972 0.128805
0.889510 1.526582 -0.056997
0.865040 1.476236 0.326566
0.892531 1.524500 -0.048991
0.893489 1.521055 0.000995
0.856765 1.453086 0.571384
0.877184 1.488911 0.246712
0.857785 1.451113 0.567379
0.890528 1.510207 -0.017087
0.898584 1.519403 -0.040985
0.861807 1.453082 0.569414
0.893407 1.508109 0.106920
0.882147 1.482164 0.328703
0.901533 1.511656 0.041988
0.838131 1.394924 1.155942
0.899449 1.500867 0.130913
0.845341 1.403240 1.004031
0.886102 1.473354 0.417677
0.852562 1.413712 0.835133
0.918816 1.529203 -0.137809
0.920836 1.530259 -0.144791
0.893242 1.480145 0.325758
0.874909 1.447886 0.584463
0.910567 1.506231 0.086010
0.858461 1.412585 0.960165
0.869775 1.431743 0.713340
0.873834 1.438117 0.670401
0.891107 1.467938 0.461676
0.857603 1.408537 0.851134
0.896299 1.470090 0.328717
0.923746 1.516054 -0.010856
0.927817 1.520460 -0.057807
0.933862 1.526616 -0.076735
0.915506 1.494167 0.202970
0.865668 1.406451 0.856171
0.922618 1.501788 0.131056
0.921634 1.498875 0.121032
0.873685 1.415355 0.865271
0.934871 1.519427 -0.056772
0.935879 1.516341 -0.047784
0.915412 1.478023 0.329877
0.935837 1.510884 0.003184
0.921534 1.483723 0.248945
0.898116 1.442850 0.576572
0.935874 1.507045 -0.015839
0.898126 1.440864 0.574561
0.904166 1.442851 0.573608
0.946961 1.514258 -0.042732
0.939778 1.500948 0.106151
0.926505 1.474967 0.330924
0.947894 1.506493 0.042229
0.882662 1.393967 1.012203
0.945800 1.497674 0.134167
0.882491 1.389598 1.166180
0.929451 1.466145 0.420891
0.895907 1.409433 0.843369
0.970194 1.529080 -0.141511
0.937595 1.472921 0.330977
0.897790 1.404308 0.968353
0.953913 1.498054 0.088215
0.975228 1.532139 -0.149465
0.911109 1.425497 0.719550
0.922280 1.443637 0.589720
0.932449 1.458730 0.464866
0.919179 1.435846 0.678658
0.899946 1.402248 0.860351
0.947660 1.473850 0.335041
0.972113 1.511890 -0.010600
0.980223 1.519469 -0.077510
0.982208 1.522325 -0.061481
0.962867 1.489974 0.205221
0.908012 1.399141 0.867381
0.968974 1.496610 0.132294
0.981229 1.513279 -0.057541
0.970011 1.492707 0.120277
0.923057 1.414037 0.875557
0.986241 1.516170 -0.046495
0.982192 1.504704 0.005415
0.968886 1.481521 0.252207
0.962787 1.470823 0.331110
0.986234 1.507882 -0.015543
0.942465 1.436592 0.583796
0.941476 1.432605 0.581767
0.949520 1.437609 0.578843
0.998340 1.512116 -0.045450
0.926978 1.395633 1.026475
0.987152 1.492781 0.105375
0.970864 1.465775 0.332127
0.996252 1.503327 0.042488
0.989147 1.487481 0.137355
0.969792 1.453947 0.423053
0.939248 1.404153 0.851593
0.929855 1.386244 1.178440
0.999256 1.492882 0.089444
0.956443 1.424217 0.728807
0.981943 1.464695 0.336184
0.939130 1.396030 0.975547
1.019566 1.523965 -0.146262
0.975781 1.453505 0.470085
0.961521 1.427603 0.683856
0.972649 1.442363 0.597004
0.946286 1.400908 0.874615
1.022607 1.521014 -0.153263
0.991009 1.463633 0.339229
1.020480 1.504713 -0.009369
1.030586 1.517315 -0.078239
1.009220 1.483789 0.206448
0.952354 1.393818 0.879609
1.030579 1.514176 -0.063257
1.015327 1.489411 0.135515
1.031596 1.510122 -0.058275
1.032591 1.509001 -0.045276
1.023386 1.493524 0.120584
0.969422 1.406736 0.883783
1.011225 1.471331 0.254387
1.034551 1.506526 0.006721
0.989810 1.434311 0.593055
1.032585 1.500712 -0.014325
0.989822 1.431305 0.593037
1.010160 1.461611 0.333325
0.965293 1.386346 1.035643
0.996874 1.433352 0.585089
1.046707 1.504977 -0.048222
1.023233 1.465543 0.336421
1.040532 1.491605 0.104667
1.045616 1.498154 0.042733
1.038498 1.485270 0.141619
1.016140 1.448722 0.427284
0.982594 1.395874 0.858794
0.997765 1.416959 0.736001
0.974209 1.377910 1.188648
1.022113 1.451264 0.476334
0.984470 1.391707 0.986782
1.026289 1.455467 0.341379
1.049619 1.489697 0.090706
1.010859 1.429308 0.694146
1.042903 1.477818 -0.145406
0.986626 1.388631 0.881775
1.049940 1.482866 -0.152337
1.020016 1.434106 0.602223
1.041371 1.460393 0.344492
1.066830 1.496549 -0.009161
1.058573 1.480590 0.208703
1.076940 1.507153 -0.078044
0.994691 1.384503 0.890797
1.066688 1.487212 0.137786
1.083963 1.510036 -0.066988
1.077938 1.498831 -0.044087
1.083966 1.506968 -0.060006
1.063573 1.474111 0.258693
1.072750 1.487353 0.119819
1.078897 1.494335 0.009892
1.018787 1.402421 0.893036
1.079940 1.492544 -0.014113
1.035156 1.426035 0.601260
1.037169 1.426018 0.602271
1.009616 1.383018 1.047875
1.063537 1.459380 0.336607
1.041221 1.424114 0.589282
1.071590 1.459332 0.338651
1.104095 1.505830 -0.051904
1.093971 1.490982 0.042955
1.089848 1.484063 0.144893
1.093907 1.488418 0.104940
1.064488 1.444481 0.432526
1.043094 1.412673 0.745228
1.030942 1.392549 0.870045
1.066454 1.442035 0.480524
1.032796 1.392339 1.003057
1.075634 1.452213 0.348631
1.096966 1.482515 0.091921
1.054195 1.420049 0.700331
1.026570 1.377496 1.205939
1.033967 1.384279 0.896014
1.102289 1.483696 -0.151048
1.106316 1.485750 -0.158014
1.070385 1.427831 0.608464
1.086713 1.451169 0.348685
1.106921 1.474390 0.210928
1.122200 1.496368 -0.008863
1.043037 1.380137 0.906040
1.133316 1.506993 -0.079742
1.116049 1.479009 0.140003
1.137334 1.505888 -0.069727
1.133301 1.499655 -0.043786
1.108911 1.464903 0.261884
1.137331 1.503803 -0.060740
1.133253 1.495149 0.011188
1.129130 1.486158 0.120115
1.083501 1.420744 0.610493
1.056937 1.381645 1.064128
1.135306 1.492355 -0.012818
1.080506 1.414742 0.610441
1.068151 1.395090 0.903264
1.092574 1.421827 0.597548
1.114910 1.452157 0.338841
1.086413 1.405397 0.753421
1.147328 1.489812 0.042231
1.118950 1.448116 0.340839
1.140205 1.476840 0.149118
1.155465 1.497681 -0.054681
1.115838 1.442234 0.437789
1.110782 1.433808 0.484713
1.146281 1.481237 0.104176
1.078282 1.387233 0.880273
1.076131 1.382029 1.012233
1.099535 1.410773 0.707522
1.123979 1.444955 0.355847
1.152323 1.483311 0.094219
1.083308 1.380921 0.910263
1.169684 1.496572 -0.157616
1.168706 1.491631 -0.164650
1.139062 1.448906 0.355950
1.174554 1.492191 -0.008614
1.123759 1.422548 0.614718
1.156279 1.465180 0.213134
1.091370 1.375762 0.922276
1.184670 1.500830 -0.080511
1.168402 1.474795 0.143253
1.158255 1.458686 0.265107
1.182649 1.491474 -0.042577
1.185686 1.492640 -0.061555
1.189704 1.497736 -0.072504
1.181601 1.484955 0.013380
1.184650 1.485183 -0.012604
1.178488 1.475972 0.120312
1.130848 1.411456 0.618690
1.128849 1.407437 0.620656
1.122510 1.393725 0.916547
1.138919 1.411570 0.602732
1.133742 1.400101 0.762640
1.169281 1.446909 0.343095
1.200691 1.483625 0.042470
1.189549 1.468619 0.153325
1.164183 1.433995 0.441994
1.160120 1.428550 0.490941
1.172310 1.443874 0.345092
1.210838 1.492523 -0.057427
1.129627 1.383878 0.893525
1.148869 1.406474 0.716756
1.202666 1.477121 0.095442
1.198651 1.472043 0.104391
1.174324 1.438699 0.362072
1.227064 1.492436 -0.162347
1.189413 1.440657 0.361161
1.227089 1.488494 -0.169371
1.227911 1.486008 -0.008379
1.206629 1.456969 0.215343
1.174119 1.413267 0.620925
1.237028 1.492661 -0.081294
1.220752 1.468576 0.146483
1.204593 1.447479 0.267277
1.239011 1.488289 -0.042310
1.242040 1.491469 -0.062276
1.234950 1.479754 0.015619
1.239002 1.480991 -0.011354
1.182191 1.406144 0.628924
1.179188 1.401107 0.632879
1.235859 1.472772 0.120584
1.185066 1.398770 0.774897
1.192275 1.406260 0.611975
1.208451 1.421292 0.497145
1.225649 1.442666 0.346356
1.256047 1.479436 0.042723
1.242899 1.462387 0.157557
1.215526 1.427731 0.448218
1.225666 1.437628 0.349326
1.199214 1.399173 0.724970
1.252012 1.465917 0.097622
1.223660 1.430435 0.369273
1.258028 1.468837 0.104670
1.239753 1.432398 0.367365
1.258973 1.450755 0.217567
1.287277 1.483813 -0.008098
1.283375 1.475487 -0.081169
1.227481 1.404969 0.628145
1.257937 1.442242 0.271512
1.274107 1.460360 0.148698
1.291299 1.476547 0.017878
1.298358 1.480800 -0.011063
1.232526 1.398832 0.639133
1.232527 1.396771 0.645121
1.291225 1.464579 0.119807
1.248624 1.403947 0.621243
1.258784 1.414026 0.503351
1.296238 1.456147 0.162781
1.314406 1.476239 0.042988
1.271877 1.424456 0.454477
1.278014 1.430421 0.349540
1.282029 1.431371 0.353566
1.311364 1.465709 0.098910
1.279004 1.426148 0.377520
1.316400 1.462640 0.103916
1.295109 1.425124 0.373591
1.312324 1.441532 0.219770
1.344630 1.478620 -0.007855
1.310274 1.435013 0.274722
1.337729 1.466310 -0.081964
1.329453 1.454132 0.151927
1.349655 1.471330 0.020125
1.353706 1.473610 -0.010843
1.359822 1.474255 -0.081811
1.350594 1.458369 0.120052
1.314116 1.410733 0.511598
1.353586 1.450904 0.167021
1.328218 1.420170 0.461721
1.372763 1.470038 0.043226
1.343386 1.431140 0.354857
1.369716 1.460487 0.101154
1.331340 1.416862 0.385714
1.340390 1.425109 0.357806
1.377951 1.463038 -0.066795
1.381780 1.460419 0.104210
1.354456 1.421826 0.381852
1.374681 1.440286 0.223056
1.369612 1.433755 0.279993
1.402092 1.466127 -0.083665
1.386802 1.446897 0.155151
1.389033 1.449716 -0.038825
1.413013 1.469103 0.022405
1.409118 1.463932 -0.065647
1.424202 1.469083 -0.085547
1.411964 1.451150 0.120291
1.413932 1.446645 0.172273
1.429113 1.459836 0.043421
1.423049 1.450281 0.102336
1.443320 1.460867 -0.070511
1.445149 1.454198 0.104459
1.432026 1.432044 0.226266
1.455164 1.447632 0.159464
1.462401 1.456498 -0.038453
1.460459 1.447752 -0.066516
1.477330 1.446926 0.120556
1.499477 1.461623 0.042743
1.487396 1.448047 0.104607
1.521748 1.446293 -0.038258
1.532758 1.448987 -0.009194
