# .PCD v0.7 - Point Cloud Data file format
VERSION 0.7
FIELDS x y z
SIZE 4 4 4
TYPE F F F
COUNT 1 1 1
WIDTH 23
HEIGHT 1
VIEWPOINT 0 0 0 1
POINTS 23
DATA ascii
-1.029541 3.827682 0.714282
-1.164031 4.781019 0.878229
-1.015458 3.875073 0.687917
-1.051889 4.800596 0.880483
-0.946938 3.992264 0.704149
-0.773746 3.964844 0.734395
-0.936972 4.066649 0.677197
-0.919899 3.513954 0.656302
-0.833101 3.755940 0.617672
-0.748559 4.045951 0.576645
-0.860419 4.185910 0.689581
-0.852140 3.588225 0.663965
-0.757308 3.827241 0.626365
-0.658651 4.101328 0.585241
-0.543681 4.509400 0.553026
-0.775693 4.276254 0.697640
-0.779286 3.646525 0.670455
-0.676467 3.891556 0.635016
-0.871618 4.301465 0.642159
-0.569790 4.165671 0.594968
-0.702384 3.697862 0.674891
-0.710842 4.619945 0.670287
-0.596460 4.599661 0.659057
