# .PCD v0.7 - Point Cloud Data file format
VERSION 0.7
FIELDS x y z
SIZE 4 4 4
TYPE F F F
COUNT 1 1 1
WIDTH 13
HEIGHT 1
VIEWPOINT 0 0 0 1
POINTS 13
DATA ascii
2.886468 1.515646 3.013879
2.939373 1.457704 3.032487
2.987299 1.396840 3.048029
2.945091 1.329391 3.052966
3.031253 1.334042 3.060526
2.985087 1.265658 3.061409
3.069249 1.267356 3.067908
3.031092 1.203865 3.075911
3.101287 1.197773 3.071231
3.070132 1.139173 3.085339
3.137319 1.129122 3.080591
3.112188 1.072478 3.096760
3.164400 1.058589 3.082880
