# .PCD v0.7 - Point Cloud Data file format
VERSION 0.7
FIELDS x y z
SIZE 4 4 4
TYPE F F F
COUNT 1 1 1
WIDTH 76
HEIGHT 1
VIEWPOINT 0 0 0 1
POINTS 76
DATA ascii
1.681107 1.177110 2.555819
1.756876 1.173168 2.635449
1.803983 1.196973 2.629320
2.321003 1.470777 3.409912
1.851531 1.123199 2.711847
1.927961 1.165608 2.740639
2.407691 1.370570 2.827896
2.796648 1.536526 2.981480
2.643830 1.442681 2.928887
1.872520 1.081114 2.713609
1.959043 1.128397 2.753366
2.448098 1.380149 2.863832
3.167719 1.666408 3.167077
2.480208 1.384030 2.862769
2.873323 1.567851 3.033419
2.767583 1.474665 2.993478
2.878919 1.493882 3.025877
1.901624 1.043898 2.728354
1.976974 1.084375 2.749133
3.212542 1.594271 3.169533
2.881924 1.491077 3.007059
1.999978 1.043272 2.752890
2.536824 -0.804966 2.828816
2.551957 -0.847300 2.874518
2.393792 -0.799212 2.790761
2.536965 -0.867013 2.851735
2.549090 -0.910321 2.895452
2.549166 -0.933196 2.889566
2.600772 -0.997930 2.831985
2.612977 -1.070104 2.869793
2.629692 -1.162725 2.820389
2.662339 -1.159669 2.951319
2.621811 -1.180616 2.819552
2.628894 -1.235829 2.854282
2.505925 -1.160195 2.811382
2.626007 -1.254729 2.855427
2.628220 -1.329839 2.893301
2.675868 -1.395594 2.841716
2.694285 -1.360838 2.885094
2.735286 -1.506261 2.943119
2.663067 -1.435073 2.808186
2.866838 -2.505594 2.885839
2.804117 -2.571328 2.891065
0.629664 -1.720447 1.979586
0.612631 -1.640388 1.969152
0.632987 -1.777445 1.976380
0.600091 -1.757714 2.013594
0.632159 -1.853640 2.004930
0.593963 -1.621324 1.953522
0.577056 -1.619698 2.008568
0.617123 -1.783394 1.965448
0.620132 -1.714449 1.973922
0.614324 -1.773696 2.009602
0.619474 -1.913694 2.008705
0.613470 -1.844884 2.037170
0.595355 -1.741676 2.003873
0.627912 -1.971255 2.246369
0.680149 -2.098552 2.296511
0.597593 -1.772782 2.017781
0.692445 -2.132181 2.392365
0.669464 -2.150966 2.356298
0.657371 -2.051867 2.339968
0.689633 -2.289164 2.388375
0.612341 -1.895097 2.369093
0.561115 -1.907814 2.167073
0.646559 -2.184878 2.339154
0.570162 -1.882123 2.215237
0.648639 -2.161968 2.352350
0.673725 -2.136278 2.402518
0.642779 -2.135134 2.375613
0.555354 -1.940509 2.116015
0.570423 -1.926942 2.184091
0.567495 -1.893175 2.218354
0.485031 -1.631958 2.022161
0.526383 -1.824016 2.033940
0.503445 -1.826968 2.021984
