# .PCD v0.7 - Point Cloud Data file format
VERSION 0.7
FIELDS x y z
SIZE 4 4 4
TYPE F F F
COUNT 1 1 1
WIDTH 32
HEIGHT 1
VIEWPOINT 0 0 0 1
POINTS 32
DATA ascii
-0.119850 1.732496 1.037066
-0.078379 1.769943 1.054740
-0.089728 1.710031 1.051313
-0.036985 1.795439 1.066330
-0.098956 1.657155 1.039948
-0.050308 1.745493 1.070956
0.008483 1.836834 1.088066
-0.061502 1.703583 1.067648
-0.008921 1.773969 1.086570
0.056029 1.897152 1.119943
-0.023070 1.749009 1.095347
0.020017 1.788537 1.257975
0.032396 1.789498 1.095097
0.007560 1.841568 1.267277
0.103323 1.904663 1.123471
0.018266 1.773486 1.111936
0.077803 1.824915 1.115795
0.051823 1.857040 1.281832
0.058544 1.786037 1.120422
0.125261 1.879244 1.148623
0.100258 1.927237 1.333774
0.099777 1.785623 1.120862
0.144108 1.814064 1.140517
-0.054374 1.655633 1.073291
-0.018229 1.715230 1.112037
0.014226 1.885140 1.281336
0.019984 1.730978 1.123553
0.059463 1.880918 1.283803
0.058202 1.739756 1.131025
0.103694 1.875710 1.286249
0.098394 1.758491 1.146566
0.138599 1.771264 1.158046
