# .PCD v0.7 - Point Cloud Data file format
VERSION 0.7
FIELDS x y z
SIZE 4 4 4
TYPE F F F
COUNT 1 1 1
WIDTH 102
HEIGHT 1
VIEWPOINT 0 0 0 1
POINTS 102
DATA ascii
-0.769688 -1.678419 1.516196
-0.777377 -1.646838 1.422880
-0.795900 -1.646449 1.503093
-0.807483 -1.619992 1.413715
-0.822104 -1.614480 1.489987
-0.843409 -1.603378 1.413399
-0.852150 -1.591718 1.485733
-0.872506 -1.576557 1.406212
-0.876352 -1.559744 1.473598
-0.903536 -1.553813 1.401956
-0.901513 -1.529819 1.463428
-0.935531 -1.533117 1.399663
-0.923716 -1.497824 1.451267
-0.964619 -1.506298 1.392456
-0.948836 -1.469952 1.444048
-0.992702 -1.479501 1.387234
-1.018898 -1.459982 1.339837
-1.017851 -1.448601 1.378061
-1.048036 -1.432918 1.317613
-1.051864 -1.437436 1.345562
-1.048837 -1.427929 1.377731
-1.083915 -1.416480 1.327234
-1.068350 -1.392676 1.291568
-1.079931 -1.408743 1.346358
-1.079304 -1.392706 1.285655
-2.718968 5.118816 0.901698
-2.675711 5.173682 0.983046
-2.634795 5.115712 0.926582
-2.540872 5.045407 0.987975
-2.663049 5.298427 0.919928
-2.606673 5.261411 1.006602
-2.552109 5.230387 0.977320
-2.529424 5.332224 1.033029
-2.477933 5.307176 1.001795
-2.434597 5.292994 0.973649
-2.392467 5.361081 1.030097
-2.366738 5.392635 1.006299
-1.237063 3.657782 1.568999
-1.173095 3.751463 1.599683
-1.100995 3.836290 1.626302
-1.011408 3.723277 1.655480
-1.028995 3.927089 1.656969
-0.941230 3.801100 1.680060
-0.951913 4.011976 1.685597
-0.868115 3.882944 1.707674
-0.871893 4.100892 1.716258
-0.804929 4.028457 1.762751
-0.742275 4.209851 1.834087
-0.665008 4.348586 1.887119
0.229153 2.247781 2.281619
0.220929 2.143304 2.184892
0.226027 2.141464 2.172897
0.223631 2.102566 2.152630
0.222583 2.037664 2.137196
0.247788 2.104040 2.138726
0.263639 2.114146 2.160851
0.258884 2.076675 2.223589
0.265780 2.106215 2.155806
0.272419 2.132260 2.164002
0.271771 2.107271 2.161835
0.280415 2.118006 2.223939
0.303481 2.136706 2.171145
0.307009 2.081367 2.235801
0.325438 2.194498 2.255604
0.329351 2.200526 2.260658
0.331418 2.203718 2.235685
0.335302 2.204588 2.265706
0.335054 2.151623 2.262362
0.371935 2.240100 2.275071
0.384098 2.224124 2.303015
0.385094 2.226170 2.298031
0.393557 2.266269 2.301320
0.391936 2.237224 2.306128
0.458318 2.564666 2.383473
0.432598 2.272830 2.310509
0.449371 2.288983 2.327677
0.512759 2.548540 2.381560
0.580706 2.695178 2.440735
0.493446 2.294631 2.335884
0.546662 2.446606 2.302039
0.617667 2.590307 2.358208
0.627068 2.548157 2.410983
0.733370 2.869918 2.533383
0.685461 2.612155 2.391603
0.694657 2.579919 2.458443
0.807353 2.880939 2.554724
0.775987 2.706917 2.492538
0.958068 3.159057 2.735996
0.882607 2.891323 2.517075
0.869095 2.847014 2.538754
0.850612 2.736812 2.536017
0.960303 2.902030 2.602449
1.440918 3.303066 0.941749
1.440877 3.299969 0.959732
1.467792 3.318434 0.940953
2.520392 1.340358 3.318353
2.469308 1.285817 3.298928
2.515084 1.306454 3.293307
2.157425 1.086344 3.095353
2.169322 1.035719 3.087485
2.256034 1.019821 3.184241
2.234440 0.953865 3.132119
