# .PCD v0.7 - Point Cloud Data file format
VERSION 0.7
FIELDS x y z
SIZE 4 4 4
TYPE F F F
COUNT 1 1 1
WIDTH 26
HEIGHT 1
VIEWPOINT 0 0 0 1
POINTS 26
DATA ascii
-0.261011 2.397146 1.870669
-0.281804 2.473933 1.871597
-0.257759 2.564993 1.888769
-0.254352 2.432214 1.873097
-0.247224 2.421225 1.879946
-0.206879 2.390832 1.864630
-0.246813 2.478196 1.883657
-0.225992 2.495386 1.885907
-0.190945 2.500291 1.844007
-0.196935 2.402197 1.845763
-0.230749 2.377374 1.883396
-0.238974 3.273443 1.880623
-0.238459 2.543272 1.887457
-0.288854 3.259668 1.902346
-0.154934 2.400341 1.870788
-0.188602 2.373370 1.840390
-0.185161 2.428424 1.840079
-0.164199 2.432665 1.838166
-0.175041 2.322611 1.833752
-0.139999 2.682213 1.978323
-0.149392 2.532570 1.940431
-0.173754 2.489594 1.838832
-0.212992 3.191051 1.857539
-0.144523 2.543319 1.966550
-0.138285 2.617316 1.973476
-0.133098 2.504429 1.969060
