# .PCD v0.7 - Point Cloud Data file format
VERSION 0.7
FIELDS x y z
SIZE 4 4 4
TYPE F F F
COUNT 1 1 1
WIDTH 17
HEIGHT 1
VIEWPOINT 0 0 0 1
POINTS 17
DATA ascii
1.629630 -1.155080 2.541937
1.617277 -1.196256 2.555674
1.553398 -1.166903 2.480888
1.551652 -1.385693 2.447359
1.608999 -1.452133 2.528884
1.529316 -1.424887 2.458124
1.591701 -1.499402 2.551586
1.523047 -1.481234 2.495766
1.533010 -1.616780 2.441753
1.509719 -1.663067 2.463475
1.538288 -1.531904 2.457552
1.588952 -1.623280 2.527897
1.509781 -1.818862 2.435308
1.527040 -1.588190 2.485198
1.515777 -1.705977 2.451301
1.524542 -1.837843 2.437293
1.575568 -1.916755 2.573814
