# .PCD v0.7 - Point Cloud Data file format
VERSION 0.7
FIELDS x y z
SIZE 4 4 4
TYPE F F F
COUNT 1 1 1
WIDTH 41
HEIGHT 1
VIEWPOINT 0 0 0 1
POINTS 41
DATA ascii
-0.826006 3.375411 -0.198883
-0.830649 3.448458 -0.203666
-0.818903 3.435454 -0.221873
-0.794428 3.454303 -0.202205
-0.755418 3.431141 -0.204848
-0.702002 3.259846 -0.190008
-0.723651 3.398037 -0.219403
-0.689840 3.357907 -0.228003
-0.679635 3.320781 -0.198231
-0.620589 3.149344 -0.136475
-0.639654 3.282599 -0.196922
-0.594135 3.130339 -0.180927
-0.610839 3.252498 -0.208428
-0.580925 3.227379 -0.214942
-0.575772 3.206305 -0.195061
-0.538779 3.165125 -0.190716
-0.510926 3.135018 -0.199210
-0.485917 3.126917 -0.204616
-0.483821 3.117881 -0.193665
-0.379573 2.865159 -0.099787
-0.386746 2.992183 -0.090421
-0.348841 2.847078 -0.125310
-0.342355 2.948902 -0.058201
-0.325276 2.824045 -0.158731
-0.340069 2.973871 -0.048186
-0.316108 2.899887 -0.105719
-0.297669 2.797985 -0.189223
-0.313929 2.959735 -0.041626
-0.304837 2.905804 -0.091883
-0.288261 2.901814 -0.130158
-0.276009 2.865861 -0.177429
-0.264661 2.882775 -0.162573
-0.253025 2.842751 -0.177840
-0.252537 2.955610 -0.112614
-0.236018 2.859703 -0.192078
-0.229131 2.820654 -0.186264
-0.228962 2.827631 -0.176252
-0.222731 2.944517 -0.135112
-0.203758 2.842514 -0.177623
-0.200031 2.941477 -0.166483
-0.186587 2.861437 -0.179859
