# .PCD v0.7 - Point Cloud Data file format
VERSION 0.7
FIELDS x y z
SIZE 4 4 4
TYPE F F F
COUNT 1 1 1
WIDTH 243
HEIGHT 1
VIEWPOINT 0 0 0 1
POINTS 243
DATA ascii
1.550889 1.622211 1.452172
1.603590 1.608196 1.424028
1.537768 1.602627 1.444205
1.583840 1.630776 1.564273
1.697716 1.620534 1.466864
1.720377 1.625293 1.520132
1.742987 1.630247 1.087208
1.650197 1.618551 1.587258
1.769049 1.608265 1.491875
1.793201 1.636537 0.963582
1.548180 1.601947 1.481950
1.811611 1.625786 1.557606
1.697863 1.632609 1.152709
1.502322 1.603598 1.494521
1.712049 1.620340 1.527581
1.870588 1.641202 0.707985
1.850314 1.602876 1.523129
1.865579 1.620472 0.978482
1.636298 1.612217 1.527673
1.661753 1.634094 1.214282
1.902862 1.622295 1.594961
1.784587 1.634941 0.993123
1.779385 1.606073 1.552507
1.941458 1.638533 1.148426
1.611576 1.628592 1.272638
1.957788 1.644131 0.602443
1.835503 1.641531 0.775461
1.936577 1.596443 1.557375
1.991657 1.645941 1.018823
1.723436 1.618524 1.572272
1.992146 1.613864 1.630162
1.879304 1.639861 1.213792
1.856956 1.619859 1.009043
1.865590 1.604515 1.591882
1.779008 1.633639 1.010730
2.037769 1.631271 1.175688
2.082989 1.663011 0.624579
1.929025 1.649534 0.627062
1.805456 1.638029 0.836905
2.027809 1.590936 1.595667
2.082145 1.647972 0.748198
1.799690 1.611045 1.607425
2.089931 1.642713 1.044205
1.815293 1.626536 1.264796
2.082462 1.601479 1.664251
1.965634 1.630652 1.237941
1.977036 1.642302 1.050247
1.951822 1.598999 1.630141
1.779892 1.644626 1.341872
1.853338 1.621468 1.030734
1.773294 1.638456 0.900499
2.139050 1.625981 1.205025
1.782416 1.629291 1.031334
1.894352 1.645262 0.637432
2.188304 1.660008 0.639992
2.007394 1.633534 0.638976
2.027070 1.642295 0.814382
2.126018 1.586364 1.638017
1.868039 1.593759 1.634261
2.186471 1.641913 0.766522
1.909480 1.632095 1.299390
2.181264 1.629557 1.066268
2.047963 1.617441 1.261955
2.189651 1.598826 1.711696
2.067328 1.634066 1.075437
1.948637 1.647900 0.496694
1.849198 1.634422 1.363902
2.037088 1.588522 1.667252
1.977374 1.647811 1.077047
2.246330 1.618652 1.237330
1.875624 1.646975 0.650091
1.895490 1.650680 1.074446
1.976669 1.636198 0.652552
1.990992 1.640720 0.878831
2.131585 1.650381 0.663024
2.130353 1.641166 0.835828
2.223275 1.575859 1.678190
1.995752 1.625776 1.328610
2.293505 1.627243 1.097736
2.295796 1.634855 0.785837
1.932457 1.650147 0.569397
2.159156 1.620973 1.300573
2.169561 1.631722 1.106846
1.927461 1.628105 1.392079
2.293912 1.587266 1.755870
2.130307 1.580933 1.710479
1.948803 1.641086 0.944360
2.060692 1.634591 1.101055
1.956921 1.638863 0.667226
2.357592 1.611295 1.271650
1.975789 1.639424 1.099491
2.109801 1.661951 0.681873
2.086251 1.639551 0.901228
2.238874 1.648325 0.681456
2.545454 1.737547 0.708853
2.328486 1.567243 1.724453
2.090986 1.623393 1.361977
2.227680 1.631084 0.854990
2.413732 1.624894 1.132236
2.415096 1.629761 0.808251
2.016683 1.626707 1.425439
2.268376 1.618542 1.338010
2.268852 1.621464 1.135014
2.408125 1.578602 1.806172
2.041053 1.640891 0.967762
2.230503 1.574280 1.757763
2.159929 1.631251 1.132409
2.082048 1.661578 0.697410
2.070011 1.637042 1.131842
2.482807 1.607846 1.312142
2.187535 1.636413 0.923592
2.201126 1.649886 0.698941
2.358140 1.648218 0.703993
2.186247 1.616028 1.395200
2.437709 1.555611 1.772647
2.343949 1.629941 0.879486
2.538964 1.619529 1.168671
2.535424 1.618688 0.830497
2.105925 1.621324 1.458684
2.128012 1.654148 0.598360
2.374631 1.610166 1.373261
2.375113 1.613161 1.166266
2.121364 1.629796 0.985803
2.330735 1.562673 1.803903
2.554148 1.584507 1.879034
2.264164 1.625867 1.166725
2.173345 1.652467 0.716552
2.161270 1.627693 1.162983
2.281844 1.626314 0.943727
2.308393 1.646774 0.720327
2.603103 1.593506 1.348300
2.285494 1.608636 1.430438
2.557878 1.546855 1.827972
2.459242 1.622810 0.903806
2.663226 1.609225 1.202958
2.193186 1.611971 1.490807
2.229299 1.652149 0.613739
2.676694 1.615562 0.858061
2.227578 1.632539 1.014341
2.493848 1.604698 1.414651
2.502302 1.611691 1.207803
2.440918 1.552919 1.858141
2.371393 1.619481 1.202022
2.273623 1.645319 0.738784
2.258517 1.619325 1.196173
2.390136 1.619172 0.968003
2.422674 1.641672 0.742684
2.397673 1.607121 1.472895
2.752279 1.590946 1.397924
2.587509 1.618656 0.931265
2.295362 1.610452 1.532211
2.812416 1.605769 1.247553
2.822955 1.609394 0.888561
2.324866 1.624394 1.037532
2.617085 1.595239 1.456944
2.626529 1.604302 1.246157
2.487617 1.613066 1.240355
2.377890 1.638169 0.762030
2.367719 1.614859 1.235522
2.514371 1.617942 0.998512
2.546922 1.639536 0.768164
2.505917 1.596689 1.512082
2.900491 1.580410 1.447315
2.398561 1.604953 1.573505
2.718781 1.610479 0.960621
2.956644 1.594367 1.289898
2.433117 1.619171 1.065849
2.968264 1.595292 0.916830
2.759736 1.596859 1.288547
2.749310 1.585751 1.502274
2.611812 1.607591 1.282748
2.500124 1.636985 0.789516
2.486894 1.612341 1.278964
2.631641 1.608753 1.026765
2.622146 1.586203 1.555301
2.502790 1.595498 1.613691
3.026963 1.543500 2.059089
3.063663 1.571793 1.502828
2.849075 1.597338 0.988833
2.547372 1.612956 1.095161
3.121826 1.585857 1.340419
2.895469 1.579106 1.556745
2.909908 1.591320 1.338064
2.735043 1.595136 1.324938
2.612400 1.625836 0.814679
2.608084 1.605825 1.323301
2.755922 1.597578 1.055991
2.750360 1.576675 1.602597
3.005771 1.736580 0.877837
2.620973 1.588912 1.662014
3.171156 1.520613 2.127122
3.016282 1.596081 1.027537
3.233854 1.558178 1.560232
2.670594 1.608682 1.128563
3.312944 1.582230 1.400194
3.057119 1.577820 1.386344
3.057617 1.572416 1.616284
2.882189 1.591542 1.376494
2.745622 1.621607 0.846138
2.739260 1.599249 1.371694
2.912093 1.599231 1.096729
2.890510 1.569992 1.658043
2.747118 1.584251 1.714444
2.801816 1.603376 1.163992
3.182523 1.586817 1.066040
3.434918 1.553288 1.633051
3.507089 1.571582 1.460820
3.246197 1.578047 1.451226
3.220777 1.560693 1.676721
3.037349 1.583886 1.431973
2.878421 1.591587 1.425088
3.062340 1.589946 1.134135
3.046626 1.565205 1.720608
2.872329 1.571656 1.764643
2.944020 1.599022 1.203484
3.371723 1.581490 1.110748
3.721218 1.558858 1.528473
3.403887 1.550846 1.746287
3.432333 1.568346 1.513806
3.201496 1.575204 1.490462
3.023588 1.581937 1.479453
3.210619 1.573695 1.170340
3.018435 1.566851 1.827148
3.206742 1.556379 1.786079
3.070324 1.579803 1.235500
3.578906 1.575119 1.160508
3.610936 1.542840 1.827015
3.630460 1.554568 1.582331
3.389581 1.569360 1.560136
3.189691 1.576136 1.544014
3.171539 1.558996 1.893600
3.398794 1.569295 1.219048
3.373887 1.542579 1.852446
3.243474 1.578337 1.285203
3.581680 1.558528 1.630693
3.329662 1.547156 1.960965
3.371773 1.569246 1.615615
3.601948 1.562822 1.273765
3.422642 1.571887 1.335797
3.519667 1.543040 2.045681
3.562834 1.560289 1.692200
3.797174 1.544442 1.324124
3.606828 1.560448 1.387277
