# .PCD v0.7 - Point Cloud Data file format
VERSION 0.7
FIELDS x y z
SIZE 4 4 4
TYPE F F F
COUNT 1 1 1
WIDTH 25
HEIGHT 1
VIEWPOINT 0 0 0 1
POINTS 25
DATA ascii
1.252884 1.462760 1.478262
1.168829 1.324852 1.055283
1.230380 1.491110 1.470016
1.222776 1.453878 1.423301
1.183151 1.283577 1.044594
1.272061 1.472501 1.480183
1.215568 1.380715 1.384848
1.151660 1.383330 1.321775
1.174867 1.394931 1.319693
1.081413 1.244755 1.220763
1.056752 1.202786 1.170056
1.118320 1.358407 1.251905
1.039830 1.144955 1.152450
1.041644 1.131747 1.127536
1.115285 1.293228 1.217363
1.101995 1.272971 1.153502
1.044133 1.098768 1.132748
1.058141 1.097438 1.117749
1.072680 1.191443 1.148056
1.106140 1.217754 1.127873
1.087062 1.091228 1.149775
1.072860 1.137282 1.121406
1.121506 1.175443 1.113145
1.092412 1.105964 1.115593
1.361292 1.349952 1.294977
