# .PCD v0.7 - Point Cloud Data file format
VERSION 0.7
FIELDS x y z
SIZE 4 4 4
TYPE F F F
COUNT 1 1 1
WIDTH 237
HEIGHT 1
VIEWPOINT 0 0 0 1
POINTS 237
DATA ascii
2.564204 -1.727868 1.485292
2.511521 -1.717092 1.563486
2.459535 -1.709417 1.324676
2.432550 -1.715367 1.782775
2.428109 -1.718505 1.434788
2.415970 -1.711411 1.882839
2.404195 -1.711446 1.930883
2.395504 -1.716622 1.519911
2.403513 -1.726493 1.741879
2.370989 -1.708617 1.874008
2.337474 -1.704985 1.280131
2.348714 -1.716735 1.785089
2.307522 -1.711859 1.964249
2.318133 -1.722004 1.397201
2.306515 -1.713947 1.727250
2.303932 -1.711926 1.826262
2.283258 -1.700256 1.221340
2.289113 -1.708981 1.867320
2.279447 -1.711164 1.475354
2.263735 -1.705962 2.234422
2.284470 -1.724043 1.689333
2.253964 -1.708155 1.819457
2.264714 -1.714952 2.212416
2.258066 -1.713039 2.064441
2.222430 -1.701521 1.239578
2.241709 -1.719224 1.735502
2.223083 -1.706119 2.292583
2.225454 -1.709074 2.372573
2.198924 -1.705158 2.472680
2.202585 -1.710166 2.387664
2.202507 -1.712342 1.912661
2.203086 -1.716542 1.356653
2.208998 -1.722347 1.781632
2.173237 -1.698767 1.184774
2.194535 -1.716458 1.681690
2.190124 -1.715429 1.814709
2.179444 -1.711625 1.437750
2.174701 -1.708201 2.627779
2.172202 -1.712251 2.505787
2.171416 -1.719573 1.639783
2.163818 -1.715406 2.183819
2.162070 -1.715478 2.014824
2.163737 -1.719410 2.157819
2.155017 -1.714601 1.776851
2.107334 -1.692069 1.197043
2.143733 -1.723671 1.691896
2.138195 -1.719488 2.246924
2.116874 -1.703455 2.641016
2.123458 -1.711540 2.312986
2.114995 -1.717528 2.416021
2.102990 -1.707506 2.650074
2.113625 -1.718565 2.331026
2.108549 -1.717768 1.869043
2.097061 -1.713039 1.320087
2.101919 -1.717853 1.726070
2.071243 -1.699239 1.153193
2.094111 -1.717873 1.765103
2.090494 -1.717029 1.407115
2.095610 -1.723904 1.644096
2.079591 -1.706562 2.770172
2.064458 -1.698650 2.747236
2.074719 -1.711656 2.564191
2.075179 -1.712700 2.443188
2.068047 -1.714915 1.965214
2.070406 -1.719043 1.597201
2.067743 -1.721851 2.105217
2.055776 -1.712911 2.123268
2.059073 -1.720037 1.737250
2.033610 -1.695781 2.766366
2.011154 -1.695531 1.120448
2.022799 -1.700897 2.571411
2.030593 -1.711218 1.635371
2.036116 -1.714971 2.183352
2.020401 -1.708024 2.250419
2.001760 -1.703083 2.327500
2.008482 -1.710071 2.257471
1.995860 -1.699018 2.571528
2.011529 -1.716222 1.822455
2.002070 -1.712482 1.289490
2.017982 -1.726232 1.688427
1.996481 -1.714471 1.373516
1.967186 -1.691736 1.119638
2.015213 -1.731221 1.728440
1.973476 -1.699068 2.690626
1.957294 -1.688167 2.662696
1.977089 -1.707166 2.376609
1.987578 -1.719414 1.599558
1.981050 -1.716319 1.920589
1.962571 -1.700197 2.485673
1.983481 -1.726437 1.564576
1.971722 -1.720301 2.053632
1.930439 -1.685281 2.681814
1.957018 -1.714522 1.689692
1.954762 -1.711383 2.069705
1.934140 -1.702896 1.078760
1.934738 -1.697321 2.507771
1.948690 -1.720593 1.602705
1.941076 -1.712425 2.125742
1.909165 -1.693017 1.091870
1.925703 -1.710880 1.183802
1.927404 -1.708463 2.195803
1.920800 -1.710457 2.272835
1.925531 -1.716454 2.206814
1.905867 -1.699440 2.512902
1.922554 -1.717640 1.780824
1.906063 -1.708941 1.256891
1.912862 -1.714748 1.633866
1.899414 -1.704944 1.335921
1.876199 -1.691169 1.091020
1.907051 -1.716757 1.667893
1.887054 -1.704594 2.317988
1.880459 -1.697507 2.626019
1.888976 -1.708765 1.869975
1.875368 -1.694540 2.609041
1.878490 -1.707945 1.551020
1.865535 -1.696657 2.422085
1.880399 -1.715938 1.519014
1.885758 -1.722701 2.008996
1.850496 -1.690646 2.627156
1.846642 -1.691739 2.442172
1.859987 -1.708986 1.646107
1.862807 -1.713809 2.023100
1.837113 -1.696355 1.051203
1.853049 -1.710836 2.074145
1.835468 -1.698154 1.544217
1.817204 -1.693442 1.068295
1.831334 -1.701918 2.138244
1.839762 -1.714273 1.160198
1.830395 -1.706913 2.141251
1.830714 -1.706883 2.208250
1.828473 -1.709090 1.733256
1.818860 -1.698843 2.456306
1.824110 -1.711318 1.232272
1.813400 -1.701349 1.305319
1.817759 -1.705206 1.585303
1.788195 -1.688582 1.064431
1.801851 -1.699276 1.607377
1.802933 -1.704172 1.825376
1.796971 -1.698023 2.258407
1.795486 -1.698895 2.571418
1.785306 -1.689965 2.544462
1.780455 -1.701410 1.511479
1.767169 -1.690505 1.464537
1.776525 -1.695071 2.366505
1.800764 -1.722096 1.965396
1.771643 -1.693085 2.391528
1.771510 -1.693009 2.571531
1.760890 -1.697466 1.599573
1.769028 -1.709230 2.025544
1.772820 -1.713228 1.977527
1.758529 -1.703505 1.513586
1.746337 -1.701314 2.090651
1.742615 -1.701306 2.145670
1.746358 -1.705309 2.087653
1.734369 -1.697547 1.685703
1.740460 -1.705684 1.281673
1.727752 -1.689282 2.392740
1.741121 -1.709708 1.205671
1.723643 -1.693665 1.537752
1.709732 -1.688726 1.557819
1.723911 -1.701546 1.784758
1.718990 -1.699385 2.211787
1.711393 -1.696297 2.499826
1.711480 -1.697288 2.515827
1.701686 -1.697405 2.346873
1.696272 -1.698824 1.440890
1.709665 -1.711540 1.913836
1.690515 -1.692476 2.313926
1.696566 -1.697350 2.522901
1.691452 -1.697832 1.476914
1.666777 -1.683928 1.555031
1.684964 -1.703634 1.974956
1.678537 -1.702882 1.479982
1.680762 -1.705671 1.927978
1.669385 -1.703670 2.051036
1.669339 -1.704673 2.040037
1.667626 -1.704656 2.097046
1.659219 -1.693470 2.636089
1.644247 -1.683992 1.639146
1.654843 -1.694613 2.353108
1.651687 -1.697999 1.506116
1.641820 -1.691948 1.740165
1.636757 -1.692067 1.523189
1.644293 -1.696531 2.634167
1.647039 -1.702717 2.171151
1.626308 -1.688709 2.438252
1.625396 -1.688706 2.455257
1.627637 -1.693760 2.295247
1.618523 -1.696992 1.860291
1.608395 -1.683789 2.452342
1.615600 -1.696819 2.274312
1.602898 -1.697033 1.926373
1.590667 -1.694113 1.878435
1.584206 -1.693096 1.983469
1.584294 -1.694087 1.999470
1.583155 -1.689836 2.574481
1.591583 -1.703022 2.045439
1.579850 -1.692968 2.307497
1.568789 -1.687301 1.703543
1.562142 -1.684940 2.565589
1.574034 -1.701066 2.127531
1.563699 -1.698056 2.257586
1.551296 -1.686068 2.388645
1.556513 -1.695018 2.418625
1.539148 -1.679052 2.560708
1.541448 -1.687100 2.409699
1.535422 -1.685405 1.813722
1.542683 -1.700157 2.236701
1.514716 -1.679481 1.869830
1.510087 -1.685193 2.515870
1.503066 -1.681504 1.927896
1.510684 -1.691497 1.840862
1.507404 -1.689448 1.982880
1.500191 -1.682506 1.948913
1.512944 -1.697278 2.272861
1.498207 -1.689237 2.522939
1.495946 -1.691453 2.077946
1.499726 -1.699360 2.217935
1.484378 -1.690379 2.350014
1.488602 -1.698334 2.381998
1.471206 -1.681371 2.517082
1.479568 -1.694383 2.376045
1.466686 -1.696525 2.193116
1.443081 -1.684517 2.466243
1.442964 -1.695614 2.232250
1.431593 -1.682526 2.559308
1.427141 -1.682589 2.469332
1.425580 -1.686738 2.162339
1.416406 -1.689706 2.308398
1.408268 -1.683668 2.477441
1.416609 -1.694684 2.338402
1.408507 -1.687736 2.325441
1.382118 -1.686809 2.423596
1.370637 -1.686817 2.512665
1.368236 -1.687865 2.433679
1.342272 -1.680992 2.432827
1.311673 -1.690102 2.468022
