# .PCD v0.7 - Point Cloud Data file format
VERSION 0.7
FIELDS x y z
SIZE 4 4 4
TYPE F F F
COUNT 1 1 1
WIDTH 50
HEIGHT 1
VIEWPOINT 0 0 0 1
POINTS 50
DATA ascii
-0.067249 -1.501783 1.704037
-0.075119 -1.504886 1.694960
-0.099120 -1.490299 1.691815
-0.065707 -1.537078 1.694888
-0.106988 -1.495406 1.684728
-0.124256 -1.670509 1.660887
-0.082878 -1.501357 1.686885
-0.125983 -1.440584 1.636785
-0.147911 -1.657720 1.614721
-0.107145 -1.676610 1.666965
-0.132834 -1.428605 1.609775
-0.099539 -1.528611 1.681632
-0.156178 -1.627897 1.620766
-0.114712 -1.492859 1.673648
-0.155860 -1.433084 1.630564
-0.183785 -1.647263 1.604435
-0.142022 -1.665133 1.654693
-0.167722 -1.461335 1.648346
-0.128373 -1.479906 1.625582
-0.189085 -1.606374 1.602554
-0.140549 -1.431065 1.604683
-0.168938 -1.594327 1.584739
-0.162205 -1.482478 1.625278
-0.175413 -1.464782 1.640239
-0.057971 -1.538964 1.703381
-0.063086 -1.503003 1.699726
-0.071882 -1.516024 1.691461
-0.077873 -1.503065 1.687532
-0.089720 -1.514171 1.683248
-0.092985 -1.493376 1.696449
-0.111471 -1.692102 1.659894
-0.102644 -1.496251 1.674286
-0.119626 -1.656224 1.660198
-0.106470 -1.467058 1.651572
-0.129273 -1.702232 1.652530
-0.118340 -1.473165 1.647345
-0.117237 -1.418872 1.619991
-0.139864 -1.622746 1.595301
-0.128034 -1.437941 1.614626
-0.144948 -1.574730 1.585791
-0.134114 -1.438115 1.622546
-0.157663 -1.626855 1.586007
-0.147105 -1.448358 1.629256
-0.148383 -1.433576 1.645416
-0.176946 -1.640438 1.616586
-0.176514 -1.636039 1.582639
-0.163226 -1.462776 1.647875
-0.183316 -1.622800 1.639710
-0.167260 -1.457857 1.649880
-0.198919 -1.661810 1.627030
