# .PCD v0.7 - Point Cloud Data file format
VERSION 0.7
FIELDS x y z
SIZE 4 4 4
TYPE F F F
COUNT 1 1 1
WIDTH 47
HEIGHT 1
VIEWPOINT 0 0 0 1
POINTS 47
DATA ascii
-1.203445 -3.259669 1.231894
-1.234586 -3.114890 1.183650
-1.279102 -3.017052 1.153311
-1.350041 -3.101949 1.257680
-1.330800 -2.943192 1.130934
-1.403893 -3.040079 1.243281
-1.329489 -3.159412 1.269912
-1.140383 -3.309260 1.234551
-1.368371 -2.845384 1.101719
-1.397851 -2.854415 1.179487
-1.363976 -3.045614 1.237713
-1.264024 -3.110002 1.222566
-1.191049 -3.215392 1.215170
-1.409059 -2.761568 1.077500
-1.433548 -2.766614 1.155316
-1.376248 -2.896881 1.190755
-1.301629 -3.006183 1.196347
-1.240741 -3.124539 1.196828
-1.456903 -2.696734 1.061237
-1.448903 -2.913913 1.216192
-1.478465 -2.705780 1.141073
-1.409935 -2.804081 1.165611
-1.345400 -2.924350 1.178093
-1.293582 -3.052679 1.184477
-1.522004 -2.666854 1.058828
-1.476433 -2.805146 1.181132
-1.521354 -2.639968 1.126878
-1.454823 -2.737258 1.152382
-1.390248 -2.850521 1.163850
-1.340397 -2.972843 1.170210
-1.597212 -2.651959 1.063349
-1.488880 -2.678418 1.139240
-1.558236 -2.570170 1.109757
-1.500790 -2.678433 1.142160
-1.435129 -2.780699 1.150630
-1.380174 -2.884031 1.153035
-1.520635 -2.593640 1.115181
-1.537677 -2.606637 1.126047
-1.478039 -2.711888 1.138450
-1.424060 -2.810215 1.140841
-1.551460 -2.514862 1.093147
-1.577615 -2.540845 1.113930
-1.514933 -2.637096 1.124349
-1.464950 -2.734414 1.128699
-1.557940 -2.577293 1.116205
-1.505888 -2.663619 1.118576
-1.544852 -2.594842 1.109493
