# .PCD v0.7 - Point Cloud Data file format
VERSION 0.7
FIELDS x y z
SIZE 4 4 4
TYPE F F F
COUNT 1 1 1
WIDTH 365
HEIGHT 1
VIEWPOINT 0 0 0 1
POINTS 365
DATA ascii
0.143916 -1.430195 1.679436
0.134572 -1.462326 1.703541
0.126866 -1.492406 1.705623
0.116620 -1.458551 1.702909
0.102678 -1.465677 1.702122
0.091665 -1.481765 1.691278
0.077459 -1.490857 1.672484
0.084481 -1.453881 1.689499
0.069493 -1.457016 1.687734
0.058605 -1.475115 1.683883
0.051027 -1.436197 1.662122
1.612927 1.125208 1.031720
1.558982 1.105375 1.120558
1.602078 1.115853 1.069712
1.636189 1.114340 1.014758
1.550029 1.100834 1.188566
1.605163 1.113588 1.103752
1.629301 1.106794 1.081771
1.685344 1.117127 1.058936
1.720748 1.142733 0.701154
1.626376 1.098281 1.147766
1.680725 1.135811 0.810096
1.615370 1.107273 1.142820
1.763828 1.149559 0.740324
1.670489 1.106767 1.095911
1.609397 1.092734 1.213743
1.710618 1.105268 1.040974
1.737863 1.146267 0.767292
1.728853 1.149082 0.788311
1.739946 1.139248 0.768271
1.675554 1.106473 1.134965
1.692872 1.132322 0.876182
1.721954 1.146868 0.810338
1.706684 1.102694 1.114017
1.760772 1.107048 1.086146
1.811176 1.139756 0.722438
1.793385 1.164120 0.518583
1.691773 1.088184 1.173947
1.755132 1.128786 0.831317
1.684760 1.099138 1.176025
1.836519 1.168613 0.465703
1.889677 1.174500 0.362829
1.669785 1.081629 1.238906
1.741899 1.096663 1.125109
1.890640 1.172176 0.408822
1.852252 1.144560 0.763590
1.820288 1.139248 0.790533
1.789062 1.094193 1.068186
1.801290 1.137045 0.809501
1.817718 1.168746 0.431740
1.738992 1.090360 1.161112
1.821378 1.131239 0.789504
1.759282 1.121292 0.894359
1.864808 1.169003 0.414833
1.795372 1.136814 0.834540
1.825661 1.156667 0.584717
1.777126 1.088607 1.139191
2.001272 1.200696 0.091283
1.829224 1.089962 1.110297
1.878802 1.159185 0.532838
1.895632 1.128758 0.742661
1.917988 1.167248 0.398956
1.771148 1.083061 1.209188
1.834536 1.121766 0.853546
1.752174 1.086001 1.207196
1.928954 1.163696 0.479976
1.750121 1.080485 1.278168
1.675812 1.037979 0.177747
1.819309 1.086550 1.157318
1.982145 1.165610 0.373079
1.985102 1.164276 0.421083
1.942685 1.136559 0.786840
2.057384 1.207609 0.123483
2.004422 1.197345 0.135348
1.963297 1.184321 0.261206
2.001367 1.192902 0.196320
1.924230 1.179733 0.326125
1.902719 1.129230 0.812753
1.880700 1.128008 0.833718
1.903138 1.162805 0.446989
1.883471 1.089100 1.104463
1.809393 1.078235 1.192291
1.835667 1.114249 0.918578
1.902816 1.120232 0.809716
1.951251 1.160067 0.429068
1.867796 1.123760 0.857719
1.903083 1.146695 0.599923
2.005557 1.189077 0.168355
1.857536 1.078500 1.171406
1.959246 1.147234 0.546040
1.947548 1.098834 1.162700
2.120729 1.201961 0.092648
1.854534 1.075935 1.245424
2.005442 1.156328 0.411179
2.120836 1.225812 -0.028180
1.992074 1.120771 0.765924
1.925927 1.117741 0.880816
2.079795 1.212121 0.049678
1.835547 1.079833 1.249439
1.821498 1.070354 1.310356
2.032772 1.199427 0.124543
2.019405 1.153773 0.493211
2.016706 1.187792 0.206445
1.931641 1.092393 1.210692
2.066637 1.148703 0.381262
2.064060 1.141565 0.822227
2.084572 1.154385 0.433339
2.015645 1.174855 0.335387
2.064723 1.181479 0.269503
2.141913 1.186756 0.124645
2.109881 1.192551 0.138645
1.977093 1.123967 0.864999
2.022074 1.136212 0.851148
2.107816 1.189095 0.201624
1.988564 1.153859 0.462216
1.925035 1.111204 0.947846
1.929685 1.090047 1.253715
1.991862 1.086994 1.147784
2.169153 1.218208 -0.070071
2.006209 1.118218 0.840023
2.047666 1.155155 0.444340
2.140155 1.208720 -0.016158
1.986496 1.137739 0.615143
1.975145 1.127705 0.896068
2.111982 1.187259 0.175668
1.969878 1.082367 1.220766
2.176287 1.219316 -0.086006
2.124164 1.208248 0.039855
2.143251 1.217839 -0.035048
2.134234 1.211589 -0.004101
2.057660 1.142307 0.563316
1.939901 1.068806 1.282657
2.026001 1.079736 1.190854
2.105888 1.148435 0.424445
2.208347 1.206997 -0.030006
2.175261 1.201319 0.049914
1.929899 1.076650 1.297718
2.119460 1.124790 0.801317
2.138194 1.197637 0.127851
2.122129 1.184947 0.216749
2.114855 1.142854 0.507448
2.015055 1.078263 1.245884
1.944404 1.074611 0.320746
1.959512 1.026389 0.358427
1.946582 1.054098 0.252608
2.129577 1.111540 0.835289
2.090962 1.150933 0.481511
2.040662 1.089234 0.134997
2.080489 1.118925 0.898286
2.100535 1.116174 0.872294
1.986701 1.057665 0.189704
1.998133 1.067909 1.282828
2.078306 1.069896 1.178965
2.114608 1.114213 0.870326
2.077902 1.129782 0.633383
2.141122 1.142229 0.458560
2.048584 1.108634 0.920208
2.217670 1.184858 -0.016037
2.001830 1.062833 0.168808
2.049312 1.064249 1.251924
2.207642 1.190393 0.042020
2.097930 1.127344 -0.001574
2.194811 1.179888 -0.034064
2.185027 1.148416 0.587714
2.022304 1.054670 1.317843
2.127391 1.070607 1.233109
2.009290 1.062478 1.336897
2.041664 1.050210 0.408835
2.040141 1.063776 0.048924
2.319840 1.196267 -0.033737
2.006056 1.063140 0.121881
1.992981 1.053487 0.206802
2.223918 1.110797 0.826553
2.258230 1.152008 0.531898
2.104470 1.063121 1.284079
1.979936 1.036598 0.322692
2.098799 1.093105 1.003288
2.287592 1.171839 0.286106
2.173425 1.131963 0.496668
2.339473 1.155085 0.414066
2.247986 1.105535 0.868597
2.178888 1.108870 0.930526
2.213936 1.110148 0.906592
2.335451 1.147676 0.468023
2.083535 1.052750 1.322013
2.351710 1.182545 0.214292
2.198253 1.133861 0.658749
2.209052 1.098190 0.895525
2.173747 1.052781 1.215162
2.151961 1.102567 0.956482
2.282490 1.150378 0.482998
2.349103 1.186179 -0.017661
2.358840 1.184702 0.191361
2.136745 1.046125 1.286097
2.317105 1.180605 0.045287
2.284471 1.134484 0.603933
2.334183 1.186012 -0.004642
2.103710 1.037526 1.353005
2.214836 1.049488 1.266262
2.093680 1.047292 1.379078
2.349738 1.140707 0.459100
2.389209 1.177770 0.050411
2.358950 1.181324 0.237408
2.452235 1.160636 0.095393
2.321403 1.088780 0.850723
2.360696 1.135089 0.547105
2.338892 1.160300 0.368259
2.180916 1.038983 1.315189
2.195181 1.083048 1.034519
2.307785 1.137082 0.522069
2.408034 1.164029 0.295402
2.261353 1.084803 0.955650
2.445964 1.135198 0.426264
2.354436 1.088518 0.896812
2.299405 1.086104 0.929721
2.171940 1.035577 1.363188
2.305660 1.124917 0.680010
2.472179 1.170754 0.220565
2.452931 1.131798 0.483267
2.518360 1.161512 0.134573
2.246371 1.087484 0.989681
2.381949 1.132445 0.499190
2.311499 1.081161 0.923732
2.275192 1.033654 1.254355
2.468312 1.168872 0.198586
2.241130 1.033971 1.331333
2.428563 1.168819 0.048539
2.201080 1.025354 1.398224
2.381927 1.115532 0.621114
2.298581 1.067588 0.990675
2.186073 1.031076 1.427268
2.317267 1.030340 1.308454
2.513680 1.167040 0.050696
2.462198 1.124809 0.475329
2.470402 1.167471 0.248647
2.584724 1.147916 0.096682
2.285590 1.065987 1.062693
2.442340 1.144427 0.378467
2.478152 1.120186 0.565351
2.434860 1.070778 0.878944
2.283311 1.023818 1.360402
2.413218 1.122136 0.542288
2.511518 1.143174 0.302582
2.362772 1.067734 0.988848
2.403087 1.107951 0.699198
2.277317 1.022377 1.414418
2.408829 1.070057 0.962942
2.466897 1.068495 0.927017
2.568456 1.116337 0.440496
2.588670 1.151944 0.226783
2.343792 1.069402 1.022866
2.585404 1.116935 0.501543
2.493402 1.115527 0.517408
2.639883 1.139735 0.137785
2.427919 1.067134 0.956978
2.377639 1.011530 1.292527
2.558004 1.161084 0.051847
2.341547 1.014823 1.372516
2.291488 1.005193 1.437379
2.490367 1.098603 0.639323
2.403991 1.051536 1.022884
2.579024 1.150462 0.141853
2.579876 1.147611 0.258843
2.582674 1.105918 0.492554
2.380987 1.048923 1.092872
2.568765 1.134597 0.391754
2.592634 1.098273 0.582544
2.397699 1.008629 1.412635
2.523654 1.105192 0.563501
2.638970 1.129366 0.312846
2.479188 1.051664 1.027080
2.516509 1.093004 0.721427
2.518279 1.047998 0.996123
2.694942 1.095483 0.454716
2.704274 1.128642 0.161965
2.444209 1.049300 1.059039
2.607860 1.095611 0.535610
2.611815 1.080673 0.661550
2.709480 1.136718 0.145120
2.713316 1.134805 0.271122
2.556083 0.994008 1.408901
2.490377 1.032848 1.129083
2.691214 1.117761 0.402986
2.505117 0.985436 1.460802
2.637104 1.084240 0.585692
2.733764 1.032446 1.002515
2.636471 0.973196 1.398999
2.572360 0.974464 1.471918
2.639812 1.015424 1.095314
2.600778 1.012767 1.165266
2.691490 0.972806 1.468130
2.639488 0.968198 1.525052
2.728013 1.012497 1.110515
2.854199 1.013758 0.990710
2.691991 1.015083 1.149502
2.798101 1.013887 1.083650
2.897188 1.014415 1.050815
3.019900 1.058877 0.494314
2.816212 1.008024 1.068664
2.894683 1.045860 0.713072
2.714738 0.956243 1.536175
2.774220 0.995359 1.137542
2.792861 0.955005 1.464284
2.738140 0.998679 1.212534
2.813925 0.942614 1.519273
3.013079 1.044324 0.555298
2.915950 1.049399 0.640201
2.902757 1.040172 0.800126
2.767887 0.942960 1.585237
3.057977 1.047676 0.658419
2.884392 0.996402 1.164807
2.838368 0.997959 1.203769
3.026633 0.992744 1.039004
2.950517 0.991819 1.131897
3.042204 1.036937 0.610369
3.022675 0.978364 1.084923
3.192644 1.070994 0.257839
2.997590 0.994989 1.124021
3.188397 1.032073 0.514562
3.156720 1.067974 0.243783
3.065096 1.029978 0.745388
2.943580 0.982285 1.193874
2.832173 0.924039 1.586293
2.880510 0.980581 1.261782
2.932292 0.924810 1.521455
3.147227 1.030596 0.692536
3.125726 1.065350 0.310764
3.136550 1.063351 0.448780
3.006258 0.928344 1.607641
3.087359 1.033506 0.674518
3.199526 1.025514 0.583625
3.052172 1.019242 0.830368
3.250849 1.050306 0.359906
3.003849 0.961288 1.204906
3.342487 1.024348 0.659864
2.973770 0.971822 1.253953
3.090974 0.958731 1.176049
3.216651 1.014073 0.640646
3.386132 1.048334 0.269152
3.246054 0.964336 1.153348
3.342932 0.993230 0.532701
3.210567 0.998047 0.772552
3.043074 0.939197 1.221883
3.013913 0.953473 1.306952
3.424820 1.005803 0.619944
3.346663 1.009744 0.729870
3.296180 1.042584 0.328030
3.179641 0.984272 0.855476
3.245807 1.005576 0.706731
3.396990 1.000706 0.613930
3.425343 1.020569 0.373134
3.198204 0.944176 1.273252
3.419913 0.993966 0.718945
3.151126 0.952670 1.321255
3.549964 0.995545 0.692158
3.389806 0.998284 0.796946
3.416088 0.991233 0.675963
3.412983 0.977191 0.810884
3.186265 0.933359 1.367233
3.495627 1.020877 0.347351
3.546131 0.978875 0.767135
3.399006 0.971399 0.902888
3.440222 0.982691 0.746035
4.843384 -1.414678 3.145073
4.736938 -1.494832 3.101312
