# .PCD v0.7 - Point Cloud Data file format
VERSION 0.7
FIELDS x y z
SIZE 4 4 4
TYPE F F F
COUNT 1 1 1
WIDTH 410
HEIGHT 1
VIEWPOINT 0 0 0 1
POINTS 410
DATA ascii
4.137675 -2.213132 1.176848
4.055818 -2.217734 1.107558
4.103842 -2.208625 1.116025
3.894907 -2.201010 1.116977
4.051003 -2.218618 0.971201
4.036494 -2.255444 1.676146
4.110082 -2.198081 1.047739
4.099307 -2.242089 1.558735
3.490706 -1.871505 0.831959
4.178239 -2.252724 1.438640
3.792976 -2.237453 1.600264
3.847902 -2.209886 1.686739
4.058112 -2.236573 1.677757
3.845754 -2.228086 1.486725
3.899675 -2.231755 1.366242
3.802657 -2.217622 1.597726
2.540400 -2.136725 0.797636
2.610363 -2.151954 0.733572
2.516300 -2.142690 0.814288
2.505096 -2.132962 0.771929
2.412160 -2.126145 0.768657
2.565098 -2.134617 0.629618
2.476027 -2.142339 0.712507
2.395968 -2.138055 0.793447
2.367948 -2.124101 0.411942
2.470634 -2.169725 1.218555
2.414156 -2.146626 1.260645
2.492901 -2.131195 0.738533
2.381805 -2.127344 0.748048
2.296869 -2.120516 0.743897
2.289606 -2.138380 0.774839
2.350668 -2.134693 0.693593
2.441695 -2.133940 0.614755
2.462255 -2.159315 1.119186
2.525903 -2.136258 0.524823
2.350492 -2.164185 1.185723
2.482719 -2.136421 0.705196
2.369575 -2.126558 0.717665
2.274482 -2.129677 0.727438
2.189571 -2.117863 0.720272
2.371308 -2.147042 1.213799
2.442622 -2.150019 1.196684
2.175241 -2.125725 0.754083
2.450946 -2.158912 1.017811
2.246263 -2.137985 0.679031
2.317295 -2.129263 0.599876
2.149929 -2.114605 0.391633
2.334094 -2.148775 1.087231
2.398468 -2.134563 0.512909
2.232332 -2.153634 1.152917
2.365353 -2.137747 0.688442
2.257227 -2.123890 0.697975
2.071860 -2.100027 0.335419
2.249205 -2.135520 1.176938
2.323476 -2.146466 1.164891
2.311790 -2.143383 0.985690
2.047397 -2.108835 0.383084
2.224862 -2.150159 1.062600
2.122119 -2.145042 1.124243
2.275030 -2.130858 0.501059
2.242987 -2.128089 0.669594
2.055812 -2.114347 0.684126
1.978912 -2.100526 0.675075
1.979374 -2.101248 0.324045
2.141043 -2.130941 1.145312
1.976442 -2.115316 0.720083
2.205321 -2.138907 1.133113
2.026437 -2.116597 0.645692
1.958870 -2.113032 0.375779
2.204510 -2.147735 0.965105
2.090452 -2.115857 0.570460
2.119611 -2.150527 1.039033
1.987981 -2.105380 0.294054
1.968784 -2.092338 0.309737
2.038498 -2.111524 0.660690
1.963428 -2.116621 0.667762
1.900530 -2.113769 0.659948
1.884865 -2.096465 0.313632
1.891994 -2.118558 0.707841
1.932002 -2.114856 0.632290
2.101112 -2.137295 1.105564
1.869321 -2.110230 0.368447
1.982000 -2.104135 0.556827
1.922601 -2.133772 1.074249
1.890413 -2.097580 0.287594
1.883274 -2.098526 0.301493
2.044126 -2.117411 0.477608
2.024200 -2.116691 0.637330
1.943090 -2.109795 0.645279
1.859056 -2.100932 0.647180
1.800166 -2.098076 0.638425
1.785363 -2.081698 0.301126
1.934633 -2.116725 1.087220
1.791592 -2.101855 0.689315
1.829568 -2.100137 0.616742
1.770773 -2.093452 0.358951
1.882792 -2.084637 0.278290
1.877556 -2.093404 0.543265
1.904111 -2.128281 0.986792
1.979982 -2.134469 0.918756
1.856193 -2.157998 1.065335
1.804847 -2.100748 0.283347
1.786730 -2.087734 0.293048
1.931643 -2.101677 0.465918
1.922776 -2.109966 0.622826
1.844690 -2.102073 0.628816
1.765656 -2.092206 0.629788
1.710776 -2.090346 0.620094
1.708843 -2.087869 0.293024
1.839394 -2.109086 1.059803
1.711136 -2.102084 0.677137
1.743104 -2.098367 0.605474
1.680234 -2.083652 0.350602
1.897625 -2.124033 1.053540
1.795237 -2.085812 0.273016
1.797058 -2.103594 0.537117
1.765881 -2.152319 1.043996
1.810785 -2.124594 0.967417
1.878667 -2.129793 0.899262
1.709266 -2.085942 0.276913
1.701199 -2.084920 0.284794
1.833147 -2.096903 0.457471
1.749258 -2.090338 0.613396
1.636353 -2.095567 0.606025
1.684236 -2.093441 0.615606
1.824353 -2.102232 0.608373
1.737350 -2.076247 0.199143
1.626679 -2.094323 0.663887
1.791784 -2.077922 0.249801
1.661618 -2.098577 0.596290
1.801332 -2.114372 1.030114
1.710696 -2.086984 0.266793
1.679557 -2.147626 1.023726
1.705581 -2.095825 0.525769
1.720448 -2.120894 0.949094
1.786320 -2.130083 0.882921
1.745652 -2.100102 0.450213
1.594824 -2.080700 0.598279
1.670815 -2.096552 0.602277
1.728903 -2.091485 0.594964
1.717219 -2.092056 0.247762
1.710044 -2.106699 1.006774
1.614099 -2.086050 0.515426
1.636090 -2.118174 0.931868
1.693972 -2.125374 0.865576
1.651145 -2.090316 0.441829
1.650419 -2.096683 0.586850
1.628716 -2.107981 0.988611
1.545765 -2.104477 0.910546
1.600632 -2.115664 0.847226
-1.056705 2.037549 0.328513
-1.036351 2.035650 0.321902
-0.994337 2.031751 0.326111
-0.991926 2.030216 0.246118
-1.020175 2.034796 0.305061
-1.038294 2.036414 0.362144
-0.952527 2.042717 0.007614
-0.975988 2.032852 0.318503
-0.939798 2.036353 0.077699
-0.973721 2.037334 0.063546
-0.933972 2.027948 0.323708
-1.060438 2.028024 0.418090
-0.931579 2.028401 0.246731
-0.968757 2.038275 0.076606
-1.017948 2.040746 0.315387
-0.958810 2.031997 0.302673
-0.995862 2.042951 0.119619
-0.980953 2.038601 0.359753
-0.894210 2.044899 0.010240
-0.883483 2.039531 0.079313
-0.916624 2.033054 0.315121
-1.007543 2.036890 0.296700
-0.917406 2.040518 0.064157
-1.006111 2.033205 0.414692
-0.876624 2.028132 0.322308
-0.958585 2.038953 0.310984
-0.874240 2.030584 0.246348
-0.909422 2.036468 0.077208
-0.882263 2.061004 -0.171516
-0.872587 2.049574 -0.092503
-0.871372 2.050830 -0.135483
-0.900460 2.031185 0.301273
-0.935312 2.039397 0.077212
-0.934507 2.038159 0.118213
-0.895297 2.058789 -0.139476
-0.889541 2.048467 -0.081497
-0.886492 2.044512 -0.087499
-0.969213 2.039351 0.068099
-0.920576 2.031810 0.355322
-0.959654 2.036782 0.170183
-0.833874 2.038082 0.013815
-0.862290 2.036237 0.312714
-0.947747 2.029405 0.410261
-0.825148 2.037716 0.080908
-0.860082 2.040701 0.065756
-0.945151 2.033120 0.290311
-0.821288 2.030307 0.321905
-0.905447 2.051351 -0.067389
-0.902554 2.047207 -0.041392
-0.905254 2.055588 -0.107355
-0.896190 2.032178 0.305574
-0.817906 2.033760 0.246964
-0.851081 2.036665 0.076818
-0.818927 2.047190 -0.164967
-0.816284 2.052751 -0.088889
-0.843108 2.029372 0.299857
-0.814067 2.051007 -0.130883
-0.928368 2.053250 -0.060372
-0.881200 2.045337 0.117826
-0.924640 2.049901 0.000643
-0.876964 2.038605 0.074811
-0.836979 2.056981 -0.136884
-0.834236 2.052652 -0.079887
-0.922238 2.054389 -0.080301
-0.831186 2.047698 -0.085896
-0.910864 2.037566 0.064686
-0.865233 2.031994 0.352898
-0.901303 2.032985 0.167754
-0.781581 2.048254 0.015445
-0.890376 2.024610 0.404815
-0.800894 2.026449 0.309275
-0.886780 2.029335 0.284883
-0.801738 2.035893 0.066326
-0.764781 2.026915 0.081454
-0.764926 2.027497 0.319474
-0.846108 2.045553 -0.066821
-0.844915 2.047790 -0.105793
-0.847245 2.053396 -0.040766
-0.846892 2.048347 0.303220
-0.796760 2.039850 0.076411
-0.753488 2.011973 0.245464
-0.765645 2.057364 -0.161327
-0.782718 2.015576 0.297377
-0.755939 2.040942 -0.085352
-0.755745 2.046189 -0.126310
-0.869022 2.047464 -0.061807
-0.823858 2.040530 0.117382
-0.821634 2.039800 0.073397
-0.863282 2.041112 0.000204
-0.860882 2.042605 -0.080764
-0.779661 2.056172 -0.134292
-0.772881 2.039852 -0.077350
-0.772855 2.043888 -0.083317
-0.851504 2.030779 0.062245
-0.811904 2.037167 0.351496
-0.845965 2.032180 0.165321
-0.721224 2.034440 0.018968
-0.834009 2.020807 0.400368
-0.716700 2.017283 0.546915
-0.830414 2.028545 0.279461
-0.743518 2.021651 0.305838
-0.741369 2.021088 0.067839
-0.712480 2.033079 0.084054
-0.791795 2.050749 -0.067213
-0.790917 2.048589 -0.040220
-0.706546 2.019690 0.318025
-0.789599 2.048985 -0.105207
-0.783463 2.029585 0.296727
-0.739414 2.036042 0.076981
-0.707238 2.038104 0.249160
-0.706309 2.043545 -0.155815
-0.728376 2.016752 0.296957
-0.703651 2.048110 -0.081745
-0.700433 2.044368 -0.122744
-0.812683 2.043676 -0.064254
-0.768525 2.040718 0.116961
-0.807951 2.038312 -0.001245
-0.765290 2.039001 0.071977
-0.726360 2.059356 -0.132710
-0.805556 2.043810 -0.082180
-0.717558 2.039040 -0.075777
-0.721567 2.052064 -0.081715
-0.800191 2.039976 0.058854
-0.750487 2.017385 0.346976
-0.795664 2.042356 0.163928
-0.781669 2.023989 0.396939
-0.669934 2.045605 0.021596
-0.660308 2.011470 0.543463
-0.691182 2.023827 0.304404
-0.773034 2.023762 0.274018
-0.688045 2.022268 0.068409
-0.657136 2.029265 0.084606
-0.735461 2.045945 -0.066665
-0.655221 2.025857 0.317615
-0.732567 2.041791 -0.039666
-0.733267 2.045183 -0.104651
-0.725068 2.017798 0.292241
-0.683058 2.028237 0.076509
-0.647847 2.024299 0.248675
-0.647971 2.034731 -0.151271
-0.672002 2.006941 0.295471
-0.644294 2.035301 -0.078223
-0.644111 2.041545 -0.118174
-0.757352 2.044882 -0.065669
-0.709145 2.023921 0.116445
-0.753623 2.040511 -0.002662
-0.709942 2.033199 0.070508
-0.750224 2.043016 -0.083612
-0.658939 2.019562 -0.127320
-0.663234 2.036226 -0.074229
-0.658171 2.024267 -0.078271
-0.746859 2.044181 0.055442
-0.697137 2.017569 0.344535
-0.734262 2.022574 0.161405
-0.730330 2.025169 0.393483
-0.616619 2.047778 0.024173
-0.605935 2.008641 0.542014
-0.722706 2.031951 0.269609
-0.638836 2.025010 0.301964
-0.634721 2.023444 0.069979
-0.683149 2.050137 -0.067085
-0.603808 2.029440 0.086168
-0.603888 2.027025 0.317164
-0.677937 2.039374 -0.103119
-0.676220 2.032987 -0.039148
-0.675760 2.029966 0.290855
-0.629722 2.027425 0.076063
-0.593487 2.018481 0.248202
-0.595674 2.035898 -0.146711
-0.624721 2.024086 0.297104
-0.588777 2.033720 -0.113646
-0.700995 2.037092 -0.067138
-0.698272 2.035714 -0.004116
-0.658835 2.035096 0.116069
-0.654580 2.026399 0.069041
-0.696893 2.043218 -0.085047
-0.611672 2.040737 -0.126648
-0.612920 2.049433 -0.077590
-0.689482 2.033394 0.052960
-0.647818 2.024729 0.344117
-0.683936 2.027760 0.158980
-0.674939 2.016370 0.388998
-0.671699 2.021349 0.556083
-0.561269 2.040958 0.026709
-0.586481 2.024190 0.300515
-0.666312 2.026170 0.264158
-0.584405 2.028619 0.070556
-0.628803 2.044336 -0.067556
-0.547424 2.011627 0.087631
-0.550523 2.023202 0.316704
-0.623599 2.036570 -0.102566
-0.621377 2.024171 0.286386
-0.577384 2.025605 0.076606
-0.539124 2.013653 0.249745
-0.572373 2.026261 0.296679
-0.537476 2.035891 -0.110090
-0.650683 2.042291 -0.069572
-0.607508 2.035277 0.115607
-0.648972 2.044901 -0.005529
-0.603256 2.032589 0.067627
-0.640535 2.032425 -0.085547
-0.557336 2.032923 -0.124140
-0.638159 2.036584 0.051521
-0.596474 2.024904 0.342656
-0.631595 2.025947 0.157511
-0.626620 2.021533 0.387544
-0.615265 2.010578 0.546586
-0.504891 2.022143 0.029156
-0.615975 2.030359 0.260716
-0.536146 2.028365 0.299075
-0.531061 2.023797 0.072077
-0.499132 2.023790 0.089233
-0.501196 2.027367 0.316253
-0.572282 2.038764 -0.103013
-0.569010 2.019366 0.282895
-0.525044 2.022787 0.077133
-0.490824 2.024807 0.251338
-0.519003 2.017440 0.296169
-0.487343 2.031819 -0.068593
-0.483133 2.026071 -0.106595
-0.552132 2.021472 0.115077
-0.592600 2.034112 -0.007028
-0.550909 2.028784 0.066144
-0.504245 2.025775 -0.068636
-0.501982 2.019108 -0.120667
-0.581769 2.022804 0.047999
-0.544111 2.019084 0.341157
-0.503228 2.030804 -0.072587
-0.579243 2.023143 0.155035
-0.574242 2.014729 0.383036
-0.453569 2.023314 0.031703
-0.484792 2.026546 0.297597
-0.562600 2.025565 0.256234
-0.480736 2.023974 0.072605
-0.515046 2.007738 -0.065654
-0.449822 2.027957 0.090781
-0.519687 2.027540 0.281474
-0.518944 2.034960 -0.102486
-0.474718 2.025970 0.076684
-0.469671 2.019608 0.295702
-0.539240 2.023314 -0.008558
-0.502816 2.027650 0.114640
-0.497542 2.018983 0.064624
-0.494778 2.023256 0.339704
-0.530428 2.023005 0.045535
-0.528911 2.025327 0.153576
-0.524901 2.016905 0.380567
-0.511235 2.022767 0.251746
-0.471808 2.039920 -0.067955
-0.471952 2.044729 -0.037918
-0.469338 2.027725 0.279000
-0.470653 2.046147 -0.102898
-0.491644 2.029913 -0.075016
-0.449441 2.014842 0.114097
-0.491956 2.040499 -0.009933
-0.488573 2.045034 -0.091868
-0.481109 2.031200 0.043111
-0.479581 2.026510 0.152097
-0.459875 2.022964 0.248281
-0.429238 2.025698 0.150613
