# .PCD v0.7 - Point Cloud Data file format
VERSION 0.7
FIELDS x y z
SIZE 4 4 4
TYPE F F F
COUNT 1 1 1
WIDTH 971
HEIGHT 1
VIEWPOINT 0 0 0 1
POINTS 971
DATA ascii
4.210932 -2.229328 1.895240
0.134778 1.892850 0.557212
0.142691 1.981130 0.902976
0.139909 1.893005 0.540246
0.164396 1.901486 0.869485
0.179097 1.902987 0.561575
0.183562 1.899539 0.872592
0.185290 1.892154 0.543528
0.094764 1.920464 0.843320
0.208756 1.905632 0.873797
0.221819 1.893197 0.302753
0.228307 1.937085 0.573148
0.229947 1.900672 0.878915
0.239365 1.955192 0.564381
0.243132 1.892465 0.277903
0.136395 1.879754 0.827289
0.146740 1.892843 0.567444
0.252166 1.901792 0.875060
0.151006 1.890198 0.524447
0.063662 1.891698 0.803043
0.267204 1.892339 0.305051
0.268834 1.907282 0.567189
0.276357 1.898818 0.884184
0.279027 1.899423 0.554189
0.281293 1.899969 0.104186
0.182655 1.905849 0.838781
0.289514 1.892607 0.281187
0.188491 1.893441 0.893723
0.294563 1.897945 0.877287
0.191151 1.889004 0.568690
0.200193 1.934294 0.536094
0.110909 1.923790 0.815590
0.312563 1.896485 0.307357
0.208607 1.893154 0.302816
0.313279 1.897457 0.566381
0.115159 1.896548 0.593394
0.321791 1.894320 0.077385
0.322755 1.898962 0.889464
0.325691 1.893114 0.105400
0.325414 1.899565 0.558469
0.226128 1.893046 0.835948
0.336846 1.901736 0.286541
0.339935 1.901085 0.882582
0.234853 1.900571 0.901061
0.343494 1.894223 -0.028492
0.345589 1.896371 -0.046464
0.345772 1.895653 -0.082470
0.253927 2.016935 0.608058
0.242062 1.893540 0.269021
0.240829 1.885535 0.524964
0.153557 1.883093 0.798537
0.361848 1.918628 0.311819
0.360616 1.907594 0.571739
0.252995 1.891305 0.304071
0.158563 1.893713 0.593640
0.369162 1.895458 0.080674
0.167117 1.895518 0.494701
0.369198 1.891115 0.893678
0.386820 1.963298 0.109296
0.371825 1.894706 0.562706
0.078830 1.894083 0.767276
0.270545 1.891220 0.836201
0.384214 1.904879 0.289843
0.384320 1.901235 0.885843
0.389854 1.895361 -0.026211
0.281260 1.900724 0.905340
0.284850 1.906268 0.580389
0.391969 1.894516 -0.045206
0.393147 1.895800 -0.081191
0.286476 1.886697 0.269235
0.289125 1.906666 0.531415
0.295358 1.894075 0.096336
0.404023 1.900747 0.572939
0.406281 1.906785 0.311987
0.200870 1.902215 0.806972
0.299393 1.889455 0.306334
0.206836 1.919824 0.603133
0.306572 1.894307 0.071402
0.415531 1.894591 0.083937
0.119975 1.889441 0.613486
0.214546 1.894701 0.493982
0.421405 1.904416 0.109046
0.417563 1.896234 0.902998
0.421163 1.904833 0.570069
0.127111 1.923201 0.776797
0.316907 1.898362 0.841529
0.224417 1.898019 0.329058
0.428697 1.900370 0.891092
0.434570 1.912017 0.295187
0.328279 1.897250 -0.040453
0.329345 1.898354 -0.053439
0.327644 1.902860 0.911629
0.519080 2.246908 -0.037809
0.475831 2.050841 -0.049542
0.331272 1.901426 0.582624
0.454316 1.958024 -0.083369
0.335786 1.906855 0.271678
0.334540 1.902834 0.531652
0.449381 1.902883 0.577215
0.341738 1.894225 0.097609
0.244725 1.899488 0.923217
0.452655 1.906933 0.314252
0.247289 1.903396 0.807257
0.248357 1.893028 0.597175
0.347735 1.900602 0.309701
0.351977 1.888461 0.071623
0.466848 1.910748 0.086351
0.164350 1.894602 0.614794
0.259937 1.896868 0.494268
0.469746 1.911564 0.111374
0.263203 1.897885 0.235283
0.464978 1.892372 0.909238
0.471530 1.909964 0.577393
0.362317 1.896523 0.843778
0.170798 1.877521 0.757709
0.268818 1.894177 0.329292
0.271837 1.899835 0.116343
0.473115 1.894527 0.893299
0.479967 1.905152 0.298391
0.183253 1.901909 0.454956
0.375646 1.900406 -0.040155
0.373072 1.897016 0.914847
0.376722 1.899510 -0.053157
0.488564 1.908678 -0.024548
0.378624 1.908563 0.587951
0.486702 1.894795 -0.040664
0.492814 1.917117 -0.079463
0.379948 1.897829 -0.093153
0.380890 1.908973 0.535965
0.189844 1.896760 0.347951
0.383182 1.906013 0.272944
0.495744 1.905022 0.581490
0.289144 1.896656 0.924456
0.404838 1.972414 0.101560
0.499054 1.902080 0.316475
0.292734 1.897581 0.806478
0.296665 1.911153 0.604595
0.397067 1.912744 0.314075
0.427888 2.023707 0.074075
0.515211 1.911886 0.089628
0.215496 1.948676 0.630509
0.309271 1.913017 0.498677
0.516155 1.903712 0.112573
0.308627 1.891051 0.234495
0.514354 1.894486 0.919529
0.518922 1.907099 0.582634
0.408702 1.898671 0.848058
0.518473 1.896656 0.899567
0.315201 1.896334 0.330577
0.221067 1.908628 0.769244
0.319227 1.900996 0.116626
0.528357 1.903297 0.301645
0.433879 1.946612 -0.041479
0.433946 1.946720 -0.055478
0.419476 1.895159 0.920095
0.228716 1.891099 0.452142
0.535940 1.905817 -0.022308
0.426024 1.906707 0.592205
0.539027 1.908958 -0.039269
0.426327 1.895979 -0.092904
0.541194 1.914258 -0.077219
0.427303 1.906142 0.536205
0.234262 1.891935 0.346175
0.429562 1.906166 0.274206
0.333723 1.898637 0.039688
0.541167 1.897180 0.582681
0.334550 1.895812 0.927711
0.436461 1.901520 0.101203
0.547420 1.905232 0.318764
0.339133 1.899744 0.808761
0.340111 1.899323 0.603754
0.442488 1.902888 0.316256
0.247535 1.902424 0.939359
0.454593 1.928796 0.073507
0.252203 1.883956 0.612232
0.561606 1.905025 0.091830
0.563524 1.903862 0.113832
0.354717 1.904198 0.496869
0.355002 1.894211 0.234784
0.565354 1.897245 0.585813
0.563855 1.894791 0.904800
0.561786 1.887631 0.924736
0.359277 1.898283 -0.033173
0.455104 1.897826 0.851310
0.362493 1.901631 -0.077131
0.360608 1.891486 0.331800
0.267534 1.901830 0.766462
0.365610 1.901153 0.116891
0.368659 1.901843 -0.102096
0.578715 1.907432 0.306949
0.466844 1.898281 0.928382
0.468430 1.891701 -0.038700
0.470488 1.896822 -0.053651
0.584313 1.904966 -0.021053
0.276141 1.890278 0.451410
0.474408 1.907845 0.597481
0.474685 1.907291 0.539476
0.279371 1.894290 0.190447
0.588401 1.908102 -0.037009
0.479647 1.916167 -0.094458
0.591566 1.915412 -0.075939
0.280639 1.896091 0.347475
0.476956 1.905330 0.274462
0.386994 1.931822 0.039237
0.588541 1.897321 0.586938
0.380912 1.900939 0.935011
0.596777 1.909380 0.322060
0.487808 1.912684 0.102569
0.291744 1.898807 0.128549
0.387485 1.903467 0.608052
0.386542 1.900910 0.811037
0.290945 1.900596 0.939594
0.489869 1.903038 0.318517
0.497054 1.906944 0.072575
0.300485 1.907073 0.620682
0.610992 1.902165 0.095072
0.611908 1.901007 0.116070
0.401131 1.901366 0.497107
0.610241 1.892931 0.910034
0.406347 1.910387 0.235192
0.500516 1.893985 0.853530
0.613118 1.895727 0.938071
0.406642 1.902445 -0.033877
0.616716 1.901369 0.594117
0.409886 1.900799 -0.078873
0.411906 1.913635 0.336252
0.412997 1.901312 0.117156
0.315950 1.905007 0.767761
0.416034 1.904010 -0.103816
0.628093 1.906571 0.311204
0.514256 1.895426 0.933618
0.522727 1.915884 -0.039224
0.522824 1.910999 -0.054261
0.634685 1.906121 -0.019778
0.519816 1.901996 0.599683
0.636764 1.907242 -0.034760
0.326466 1.910436 0.454847
0.523065 1.909442 0.542754
0.326755 1.898460 0.189747
0.528020 1.916321 -0.094195
0.326038 1.895259 0.346726
0.638959 1.907547 -0.073747
0.525344 1.905488 0.275725
0.635921 1.896469 0.590182
0.442280 1.963020 0.037774
0.426344 1.895101 0.937218
0.646140 1.911526 0.325336
0.534211 1.904823 0.104761
0.335356 1.898763 0.940830
0.337155 1.892968 0.127762
0.434864 1.905610 0.612329
0.432964 1.898079 0.812271
0.340894 1.900208 -0.033170
0.539241 1.905177 0.322799
0.345899 1.904241 0.620916
0.546436 1.908107 0.072849
0.661345 1.905308 0.098359
0.656630 1.890069 0.915255
0.664268 1.907173 0.117389
0.353383 1.901904 -0.119092
0.450493 1.909520 0.500439
0.547909 1.894134 0.857785
0.453730 1.911549 0.235460
0.355893 1.899044 -0.005094
0.663505 1.894843 0.948327
0.665112 1.896498 0.600334
0.513254 2.144893 -0.044495
0.490832 2.041154 -0.089390
0.456354 1.899798 0.335391
0.464337 1.915483 0.117542
0.679464 1.907709 0.316479
0.487140 1.996308 -0.111745
0.364407 1.901199 0.767002
0.560674 1.889567 0.938822
0.570137 1.907029 -0.038038
0.685050 1.907275 -0.018509
0.570217 1.906151 -0.054045
0.569495 1.901609 0.542942
0.566266 1.890150 0.601842
0.689124 1.911402 -0.033458
0.372914 1.902618 0.453046
0.689328 1.907699 -0.072486
0.375366 1.910409 0.350113
0.684289 1.896605 0.595433
0.574713 1.908641 0.278010
0.372203 1.887638 0.186919
0.577413 1.913478 -0.093955
0.471736 1.894246 0.941458
0.478853 1.910147 0.036577
0.694524 1.908676 0.327564
0.379791 1.892937 0.941032
0.583599 1.903978 0.106015
0.482249 1.906760 0.615594
0.384541 1.896143 0.126048
0.481391 1.896247 0.814519
0.388281 1.901377 -0.034900
0.589608 1.909328 0.326095
0.392668 1.902991 -0.113867
0.392284 1.906396 0.623187
0.705963 1.895178 0.925546
0.594853 1.901266 0.073053
0.713700 1.909456 0.101658
0.715650 1.907333 0.118653
0.595298 1.893275 0.863028
0.401766 1.905081 -0.121802
0.499902 1.909689 0.501705
0.501136 1.907710 0.235686
0.713893 1.892958 0.958571
0.716481 1.897621 0.608605
0.415116 1.952268 -0.008375
0.507380 1.915793 -0.036233
0.505708 1.906945 0.338708
0.509631 1.912157 -0.083250
0.511731 1.912640 0.117773
0.728857 1.902846 0.320694
0.507878 1.882309 -0.104480
0.411852 1.897386 0.766232
0.611038 1.893683 0.949116
0.735435 1.904428 -0.017274
0.621504 1.911193 -0.037741
0.616899 1.897763 0.545160
0.620609 1.905319 -0.054789
0.739496 1.909547 -0.031217
0.731685 1.891751 0.598638
0.618602 1.900277 0.610190
0.736718 1.899841 -0.071304
0.624086 1.910801 0.279283
0.421775 1.907578 0.349344
0.626813 1.908634 -0.093734
0.423341 1.903805 0.452329
0.427493 1.918816 0.188451
0.740927 1.899819 0.329733
0.519144 1.892391 0.946697
0.527238 1.910312 0.035834
0.426160 1.898078 0.946322
0.635934 1.914135 0.108361
0.528666 1.900914 0.617796
0.429959 1.888302 0.125236
0.529797 1.896407 0.817777
0.455396 1.987648 -0.040901
0.639002 1.906474 0.329329
0.438670 1.907551 0.625446
0.753345 1.892311 0.931763
0.447973 1.934221 -0.120338
0.646216 1.906433 0.073355
0.764077 1.906597 0.104889
0.766026 1.905483 0.120891
0.643684 1.893418 0.868278
0.549306 1.909857 0.502965
0.458076 1.936313 -0.128270
0.550536 1.907885 0.234946
0.450693 1.896390 -0.009599
0.767873 1.894751 0.615841
0.765304 1.888077 0.968792
0.555769 1.913956 -0.036993
0.555094 1.908100 0.340975
0.559019 1.912328 -0.084990
0.558141 1.904794 0.117958
0.785179 1.913983 0.328057
0.564182 1.909526 -0.108985
0.658452 1.887818 0.955315
0.461271 1.898556 0.768505
0.784819 1.899577 -0.016065
0.662317 1.888917 0.546326
0.669896 1.906347 -0.037530
0.782046 1.892884 0.604896
0.671979 1.908489 -0.055505
0.787886 1.901685 -0.029035
0.667989 1.898408 0.616428
0.790071 1.904001 -0.070009
0.468187 1.902739 0.349555
0.674485 1.908964 0.280525
0.676196 1.906796 -0.094497
0.565534 1.890523 0.952925
0.796268 1.908976 0.334074
0.473937 1.907987 0.186618
0.473733 1.908975 0.453635
0.471568 1.895231 0.949542
0.576659 1.905487 0.034055
0.685340 1.908288 0.109567
0.577071 1.898059 0.622026
0.577218 1.892569 0.819994
0.484279 1.911489 0.124695
0.691367 1.910621 0.333624
0.482113 1.889717 -0.039483
0.800746 1.886451 0.936953
0.485083 1.903713 0.626662
0.490449 1.907361 -0.121313
0.698574 1.912602 0.073664
0.819433 1.911754 0.108198
0.820367 1.912644 0.123210
0.696035 1.900545 0.877594
0.597721 1.906020 0.504185
0.498581 1.900439 -0.128321
0.599944 1.905051 0.235179
0.819260 1.891880 0.623071
0.817674 1.888183 0.981050
0.604171 1.909117 -0.037781
0.506044 1.915598 -0.013167
0.604480 1.908254 0.343230
0.608401 1.912499 -0.086736
0.609512 1.909962 0.118259
0.832602 1.901120 0.331192
0.712787 1.896917 0.969654
0.832418 1.892024 0.610135
0.615573 1.910702 -0.110714
0.715670 1.897066 0.551653
0.842167 1.908758 -0.015719
0.722263 1.909512 -0.037246
0.722355 1.907648 -0.055260
0.513672 1.904719 0.772824
0.844230 1.908848 -0.026709
0.718372 1.897543 0.622672
0.844436 1.906163 -0.068730
0.721893 1.901115 0.281703
0.516579 1.903906 0.349816
0.614906 1.893650 0.961200
0.845663 1.903126 0.336269
0.726576 1.904954 -0.094261
0.517966 1.894378 0.953778
0.524129 1.912144 0.454920
0.524350 1.908171 0.184881
0.627049 1.905657 0.033312
0.625458 1.897203 0.626265
0.737715 1.909443 0.111835
0.627598 1.896718 0.825280
0.851096 1.887562 0.947204
0.530696 1.903649 0.123878
0.738785 1.900767 0.335785
0.537425 1.914924 -0.043012
0.533468 1.905865 0.629929
0.543815 1.919566 -0.125948
0.746977 1.904750 0.074844
0.870760 1.906799 0.124408
0.871807 1.908892 0.112428
0.742460 1.891695 0.880758
0.647116 1.905178 0.506427
0.874609 1.895999 0.633366
0.652312 1.911218 0.236487
0.553921 1.920658 -0.133889
0.870058 1.885288 0.993279
0.655555 1.910287 -0.038515
0.553459 1.908765 -0.014974
0.655854 1.911406 0.346510
0.659787 1.913675 -0.088471
0.660888 1.912122 0.119531
0.887954 1.904253 0.338478
0.882797 1.889163 0.615353
0.762196 1.892050 0.976860
0.666938 1.914877 -0.112428
0.767048 1.898216 0.555912
0.894553 1.904915 -0.014499
0.771660 1.902660 -0.036056
0.766778 1.890677 0.627858
0.898602 1.909010 -0.025451
0.771768 1.898802 -0.055084
0.899793 1.909328 -0.067444
0.561151 1.893911 0.770988
0.779229 1.914284 0.285078
0.567940 1.912067 0.352138
0.899025 1.904275 0.340530
0.664284 1.894777 0.969454
0.775968 1.899107 -0.094063
0.562386 1.888541 0.954962
0.574542 1.911312 0.456170
0.573757 1.906342 0.184119
0.678411 1.910829 0.032605
0.673858 1.894353 0.629485
0.899483 1.882697 0.953397
0.787105 1.904595 0.113038
0.679995 1.898866 0.831556
0.581101 1.903829 0.122135
0.793134 1.906912 0.341092
0.580878 1.902020 0.632141
0.585842 1.909099 -0.045809
0.796375 1.898908 0.075039
0.925124 1.907959 0.126671
0.791853 1.888833 0.886975
0.924192 1.904038 0.115637
0.592227 1.913739 -0.128747
0.694562 1.894344 0.506582
0.930971 1.898121 0.643645
0.600335 1.910816 -0.135728
0.703706 1.911388 0.236740
0.923451 1.881397 1.005501
0.706235 1.911561 0.348758
0.707927 1.914467 -0.040228
0.604860 1.909950 -0.017707
0.711183 1.912857 -0.091226
0.942334 1.902396 0.343717
0.713270 1.914291 0.119803
0.935178 1.887308 0.620584
0.813582 1.890167 0.987091
0.817437 1.895362 0.560131
0.717338 1.911047 -0.114210
0.950918 1.907084 -0.013223
0.827019 1.908841 -0.036747
0.820155 1.891813 0.635121
0.952982 1.906165 -0.023220
0.827132 1.904990 -0.056776
0.952405 1.902430 0.343763
0.953188 1.903485 -0.066241
0.828647 1.905440 0.286248
0.618326 1.914230 0.353404
0.713691 1.891918 0.975674
0.611574 1.893081 0.773234
0.611758 1.892675 0.962239
0.834324 1.909302 -0.095712
0.949860 1.878815 0.962602
0.730807 1.911010 0.030860
0.626153 1.909522 0.183402
0.723252 1.891491 0.634704
0.625974 1.908490 0.456404
0.843463 1.910761 0.115349
0.727437 1.890033 0.832721
0.632467 1.910004 0.121434
0.847506 1.909064 0.345364
0.630266 1.903174 0.635394
0.637237 1.910283 -0.048547
0.842259 1.884981 0.892185
0.979551 1.905192 0.118899
0.977521 1.901111 0.128860
0.853740 1.906091 0.075362
0.641629 1.910921 -0.132524
0.743984 1.888508 0.507777
0.983353 1.893245 0.651848
0.651732 1.912012 -0.140467
0.756112 1.909560 0.236978
0.759322 1.911635 -0.041003
0.754670 1.900717 0.349911
0.989522 1.890444 0.627854
0.655252 1.910131 -0.020459
0.995708 1.898528 0.349931
0.762586 1.909031 -0.093008
0.763667 1.910453 0.120015
0.865958 1.889280 0.998330
0.868846 1.890517 0.563336
1.007288 1.907252 -0.011967
0.766757 1.902214 -0.116039
0.875497 1.897939 0.644424
1.009340 1.907325 -0.020957
0.882405 1.909013 -0.036489
1.005791 1.898584 0.346976
0.882501 1.908169 -0.057496
1.008563 1.901648 -0.065004
0.880042 1.901602 0.287458
0.763094 1.888051 0.982882
0.668723 1.913393 0.354644
0.660161 1.890820 0.967462
0.665963 1.899234 0.779544
0.888709 1.908477 -0.096466
0.781215 1.905176 0.030056
0.776621 1.895634 0.640988
0.678559 1.909701 0.182658
0.894863 1.903910 0.117536
0.676411 1.902664 0.456607
0.776876 1.882192 0.835899
0.676688 1.895332 0.636562
0.900884 1.907204 0.350597
0.683856 1.911177 0.120691
0.894633 1.885112 0.900427
0.688631 1.910466 -0.051297
0.906126 1.903257 0.075581
1.033908 1.899282 0.130099
1.033945 1.898334 0.123091
0.695020 1.914115 -0.136244
0.800339 1.897664 0.513109
1.042704 1.896361 0.664135
0.808502 1.908724 0.238217
0.811001 1.911867 0.355255
0.702155 1.905188 -0.143275
1.041911 1.884581 0.634044
0.808755 1.899795 -0.041857
1.056062 1.902675 0.357229
0.707665 1.908318 -0.023221
0.816966 1.911213 -0.094739
0.813084 1.901611 0.120182
0.919350 1.886396 1.009553
0.923228 1.890667 0.568585
1.058693 1.896402 -0.010819
1.057184 1.890730 0.350146
0.927892 1.893070 0.651627
1.063732 1.900477 -0.018767
0.823136 1.907409 -0.118739
0.813476 1.887179 0.991111
0.936403 1.905764 0.290744
0.938781 1.910187 -0.036225
1.066932 1.902827 -0.064738
0.709533 1.892952 0.974714
0.938888 1.908350 -0.058239
0.718148 1.906559 0.354829
0.944100 1.906653 -0.097229
0.717407 1.894406 0.781754
0.827994 1.895770 0.647228
0.838582 1.913372 0.028381
0.952237 1.906077 0.119811
0.731960 1.910881 0.181919
0.729819 1.903839 0.457868
0.728060 1.898476 0.641828
0.832249 1.887333 0.844193
0.954280 1.902351 0.354801
0.737252 1.912356 0.119952
0.943058 1.875259 0.904574
1.093259 1.903455 0.132388
1.094287 1.903495 0.127393
0.740044 1.906647 -0.054082
0.962519 1.902434 0.075828
0.747432 1.911304 -0.140018
0.853736 1.896824 0.516348
0.861902 1.906898 0.238447
0.863404 1.908027 0.357467
0.751570 1.898367 -0.147092
0.866107 1.908987 -0.043529
1.111441 1.897812 0.363433
0.758089 1.901496 -0.026035
0.870375 1.907398 -0.097523
0.978590 1.892812 0.574847
0.871445 1.909790 0.121507
1.121047 1.902595 -0.010504
1.115549 1.891892 0.354407
1.124081 1.904656 -0.017476
0.984263 1.894206 0.659885
0.865852 1.887299 1.001351
1.126286 1.905001 -0.063466
0.758939 1.890099 0.979924
0.992166 1.905344 -0.035024
0.989804 1.900931 0.291945
0.878524 1.908599 -0.121479
0.992289 1.901513 -0.058052
0.771520 1.910722 0.357108
0.998485 1.902818 -0.097017
0.877425 1.885921 0.650381
0.767868 1.885581 0.782925
0.890998 1.906542 0.027568
1.006624 1.902234 0.122022
0.782386 1.904059 0.180103
0.779454 1.897627 0.646060
0.882673 1.880485 0.848372
1.009670 1.899503 0.359024
0.784235 1.903009 0.460114
0.785686 1.901525 0.118098
1.147654 1.895611 0.134563
1.153666 1.901660 0.130632
1.016917 1.897604 0.076031
0.797422 1.914854 -0.057760
0.800838 1.909495 -0.143786
0.909141 1.895990 0.519590
1.155895 1.881773 1.070529
0.917292 1.907070 0.239696
0.914820 1.900182 0.359639
1.164856 1.885949 0.368573
0.923495 1.911179 -0.045257
0.812947 1.911597 -0.152716
1.033976 1.890963 0.580075
0.927757 1.910595 -0.100245
1.177426 1.897760 -0.009302
0.925851 1.905962 0.121721
0.817456 1.912703 -0.028683
1.169948 1.884046 0.357580
1.160340 1.865298 1.001425
1.041631 1.894330 0.670135
0.919234 1.886421 1.011583
1.182474 1.898819 -0.015273
0.810334 1.889238 0.987152
1.048547 1.903516 -0.034794
1.185673 1.901173 -0.062244
1.043222 1.892089 0.294112
0.932925 1.904778 -0.123265
1.051665 1.903701 -0.058780
0.819947 1.900883 0.357257
1.058855 1.907016 -0.098726
0.932785 1.889053 0.658649
0.823279 1.886742 0.788186
0.946398 1.904729 0.025799
1.062016 1.897393 0.124225
0.828875 1.890785 0.648235
1.067046 1.898654 0.364264
0.937085 1.877636 0.854592
0.839778 1.908243 0.180392
0.838647 1.902185 0.461353
1.208021 1.895785 0.136816
0.843067 1.906706 0.118393
1.210056 1.893806 0.134809
1.075306 1.896785 0.076275
0.848839 1.908033 -0.060578
0.857237 1.911701 -0.148517
0.961557 1.889145 0.522770
1.212299 1.872875 1.084699
0.972182 1.904341 0.363919
0.972704 1.903248 0.239909
0.977887 1.908359 -0.047042
1.088368 1.886111 0.585271
0.865357 1.906783 -0.156517
0.982225 1.907132 0.122974
0.984149 1.909787 -0.103006
1.235831 1.889929 -0.008119
0.871861 1.910892 -0.031455
0.861711 1.889368 0.995383
1.242842 1.896988 -0.013039
1.246049 1.898348 -0.061017
1.102591 1.894258 0.297379
1.108927 1.904707 -0.035530
1.109057 1.900889 -0.060558
0.992300 1.909986 -0.126971
0.876339 1.903054 0.359522
1.115254 1.901192 -0.099532
0.989168 1.889196 0.665894
1.124375 1.902574 0.126524
0.876712 1.881902 0.792388
1.000800 1.899903 0.024998
0.884258 1.892932 0.654495
1.121456 1.889802 0.368428
0.996452 1.882773 0.864885
1.266410 1.889952 0.139010
0.893195 1.903420 0.179592
0.894057 1.900348 0.464584
1.272423 1.892971 0.139057
0.902437 1.914901 0.117712
1.134670 1.898969 0.076539
0.903238 1.906220 -0.063353
1.273354 1.882139 0.666000
1.274237 1.876852 0.705966
0.910647 1.906890 -0.152319
1.262746 1.854994 1.093773
1.016966 1.885309 0.525979
1.026595 1.897496 0.367101
1.028112 1.898417 0.241110
1.149799 1.888807 1.068561
1.036283 1.907551 -0.048800
0.920760 1.904978 -0.160289
1.298199 1.889111 -0.006874
1.037635 1.901305 0.123167
1.040549 1.905970 -0.104796
0.916093 1.890500 1.004628
1.299243 1.886143 -0.010891
0.927272 1.908082 -0.034235
1.306441 1.892529 -0.060818
1.158004 1.886428 0.298551
1.169307 1.903890 -0.035288
1.169440 1.900079 -0.061316
1.047702 1.905173 -0.129772
0.930736 1.901218 0.361745
1.175634 1.900380 -0.100290
1.048522 1.893326 0.676174
1.181777 1.895737 0.128709
1.162606 1.862787 0.940421
0.940626 1.897082 0.660768
1.060197 1.900100 0.023248
0.934117 1.883061 0.798644
1.184809 1.893956 0.375717
0.948626 1.897603 0.178789
0.954859 1.907079 0.115881
0.951471 1.899525 0.466824
1.194074 1.894152 0.076745
0.962634 1.909429 -0.067076
1.344971 1.878035 1.128268
0.965064 1.901080 -0.156129
1.075351 1.885467 0.531223
1.341345 1.869617 1.046190
1.082981 1.894650 0.371315
1.361897 1.895396 0.395436
1.080545 1.886583 0.241242
1.348076 1.873524 0.371222
1.203226 1.876935 1.077692
1.093681 1.903731 -0.049590
0.977166 1.903181 -0.165063
1.095034 1.897476 0.124376
1.097951 1.902163 -0.107586
0.983688 1.904275 -0.037024
1.228707 1.898068 -0.035092
1.226846 1.892257 -0.062142
1.106104 1.901361 -0.131560
0.989107 1.905386 0.365021
1.235034 1.894564 -0.101094
1.221984 1.860915 0.951646
1.244157 1.894916 0.130952
0.995030 1.893232 0.665969
1.119586 1.899288 0.022485
0.993527 1.883210 0.806896
0.824881 1.104685 0.106575
1.008018 1.899790 0.179053
1.378200 1.852427 0.675194
1.255456 1.892333 0.077976
1.011271 1.903262 0.115089
1.004915 1.889695 0.467978
1.021033 1.909634 -0.070832
1.397743 1.859744 1.056336
1.403376 1.866128 1.144407
1.024466 1.902299 -0.161873
0.775745 1.020552 0.240793
1.141384 1.890817 0.374524
1.415429 1.875696 0.377497
1.142926 1.889773 0.242518
1.264544 1.875576 0.602908
1.250705 1.854066 1.083714
1.154064 1.903927 -0.051346
1.137805 1.870908 1.054389
1.038551 1.908406 -0.170773
1.157405 1.900662 0.125650
1.274190 1.875859 0.706951
1.158349 1.900364 -0.110356
1.290095 1.894252 -0.034879
1.041095 1.901470 -0.039807
1.294228 1.894466 -0.062863
1.166503 1.899568 -0.135331
1.044532 1.898558 0.366200
1.294439 1.886746 -0.101919
1.278387 1.853048 0.960810
1.053410 1.894380 0.673216
1.179983 1.897486 0.020713
0.856265 1.095795 0.104674
1.165675 1.869208 0.887482
0.811288 1.034472 0.407069
0.835373 1.065706 0.107378
1.068416 1.900986 0.178307
1.071658 1.905456 0.114350
1.066327 1.889875 0.471229
1.456129 1.850863 1.068491
0.753649 0.949280 0.407241
1.078453 1.903826 -0.073641
1.469743 1.862219 1.164629
0.760368 0.952551 0.233291
1.321940 1.867722 0.609072
1.084867 1.902512 -0.166628
1.336905 1.884112 1.119265
1.206311 1.890958 0.244776
1.496332 1.882692 -0.004162
1.195192 1.867027 1.066589
1.215485 1.898124 -0.053146
0.899727 1.122570 0.016055
1.332600 1.865990 0.716104
1.216815 1.894844 0.125841
1.093989 1.897596 -0.174627
1.224733 1.904590 -0.114066
1.355626 1.888662 -0.064671
1.102502 1.901683 -0.043560
1.228899 1.897773 -0.138100
1.101937 1.894729 0.368402
1.360820 1.886956 -0.103665
1.354654 1.871151 0.983234
1.098791 1.875733 1.204282
0.777208 1.059530 0.244154
1.241386 1.893678 0.019924
0.782025 0.950546 0.383397
1.227067 1.867349 0.897709
1.129072 1.899639 0.113536
1.524453 1.852970 1.086760
1.128843 1.896173 0.178512
0.753220 0.903347 0.397961
1.125759 1.884047 0.474423
1.139858 1.903037 -0.077404
1.390298 1.870882 0.618353
1.395312 1.873219 1.133405
1.148269 1.903734 -0.171370
0.923143 1.100629 0.017025
1.249619 1.855150 1.076714
1.141637 1.886014 1.046518
1.277880 1.895323 -0.054928
1.405925 1.874119 0.732438
1.419485 1.892146 0.314605
1.281205 1.894034 0.127081
1.258757 1.858525 1.308780
1.283169 1.892781 -0.116928
1.160380 1.903841 -0.181323
1.162908 1.898884 -0.046344
1.163327 1.894903 0.371643
1.291318 1.891983 -0.141904
1.285073 1.880886 0.710021
1.412073 1.859287 0.992361
0.839010 1.092746 0.101667
0.778762 1.010569 0.238857
1.303802 1.887879 0.018118
1.292445 1.868487 0.909966
1.587820 1.846082 1.101938
1.190488 1.895833 0.112745
0.758736 0.867404 0.392777
1.190258 1.892363 0.178722
1.201273 1.899247 -0.081196
0.794436 1.010730 0.363941
1.329895 1.888137 0.555235
1.460690 1.868321 1.151610
1.197054 1.878154 1.054675
1.210685 1.900958 -0.177151
1.340785 1.893198 1.114330
1.342276 1.892528 -0.056708
0.760514 0.957302 0.408442
1.327110 1.862622 1.330066
1.346567 1.888987 -0.119720
0.899553 1.131674 -0.001799
1.217802 1.895041 -0.186167
1.355704 1.890192 -0.144679
1.225335 1.894097 -0.050141
1.473477 1.850420 1.003521
1.339534 1.863033 0.715095
1.363797 1.874623 0.925274
1.662134 1.849186 1.123223
1.231248 1.862851 0.832688
1.252900 1.892030 0.111953
1.252670 1.888554 0.178929
1.260688 1.892449 -0.085022
1.528066 1.863421 1.170815
0.785167 1.051557 0.243241
1.391258 1.871336 1.120356
1.256456 1.873285 1.065863
1.407467 1.893540 0.251546
1.271110 1.893166 -0.181981
0.760095 0.910375 0.398159
0.836609 1.110768 0.095858
1.390517 1.856737 1.346255
0.924993 1.108738 -0.000828
0.946017 1.131960 -0.022584
1.279232 1.887252 -0.190994
1.543821 1.851538 1.020779
1.408877 1.867170 0.728376
1.287755 1.888301 -0.052951
1.289030 1.875991 0.698990
1.286054 1.865140 1.242919
1.427195 1.868761 0.936460
1.303607 1.870995 0.847012
1.315994 1.875575 0.487078
1.334069 1.900700 -0.089696
0.791367 1.007962 0.330005
0.772803 0.983573 0.234762
1.333726 1.892374 1.091281
1.452669 1.861452 1.134503
0.846800 1.075301 0.165685
1.339502 1.895406 -0.187717
0.763630 0.871439 0.390948
1.457902 1.853845 1.365475
0.844138 1.065792 0.094611
1.352608 1.896521 -0.198663
1.613189 1.847661 1.036991
0.761402 0.952339 0.404522
1.364468 1.902454 0.384440
1.354168 1.885524 -0.056732
1.491616 1.859909 0.946622
0.901379 1.116442 0.028193
1.351474 1.860268 1.258120
1.378972 1.878141 0.862332
1.376445 1.862746 0.490202
1.530970 1.871544 1.159848
1.388193 1.874523 1.097346
1.406912 1.892640 -0.193500
0.934712 1.128879 -0.019579
1.525280 1.849944 1.385680
1.569711 1.900736 -0.132850
1.690529 1.849787 1.056268
0.760983 0.905412 0.394241
0.783204 1.028609 0.234185
1.557035 1.850052 0.957775
1.417897 1.854398 1.273312
0.838774 1.077839 0.083748
1.444411 1.869305 0.870496
0.851622 1.089592 0.124881
1.452571 1.870641 1.112541
0.795281 1.012226 0.294146
1.602625 1.853033 1.411964
0.980299 1.122304 -0.061423
0.757332 0.940410 0.393533
1.638384 1.855189 0.977084
1.490291 1.853519 1.292552
1.509844 1.859460 0.879647
1.524936 1.871762 1.130793
0.946448 1.150066 -0.044321
0.953583 1.133924 -0.021392
0.757902 0.895485 0.383274
1.568666 1.855631 1.315827
1.588230 1.860613 0.894913
0.748540 0.864203 0.564053
0.877240 1.011775 -0.036485
0.820158 0.902078 0.471614
