# .PCD v0.7 - Point Cloud Data file format
VERSION 0.7
FIELDS x y z
SIZE 4 4 4
TYPE F F F
COUNT 1 1 1
WIDTH 198
HEIGHT 1
VIEWPOINT 0 0 0 1
POINTS 198
DATA ascii
-0.219424 -1.990312 -0.057252
-0.221414 -1.988267 -0.064233
-0.222354 -1.990918 -0.108255
-0.243315 -2.000389 0.059695
-0.252283 -1.998617 0.081719
-0.265110 -1.988548 -0.060190
-0.267075 -1.983158 -0.110145
-0.214031 -1.994017 -0.090183
-0.268089 -1.987517 -0.066179
-0.215074 -1.989232 -0.064142
-0.216067 -1.996551 -0.025200
-0.289024 -1.995641 0.058779
-0.241964 -1.995285 0.047839
-0.297968 -1.998860 0.079761
-0.311771 -1.990796 -0.062164
-0.312787 -1.984753 -0.068114
-0.259733 -1.989269 -0.091099
-0.313733 -1.985405 -0.112120
-0.260737 -1.992491 -0.064124
-0.205695 -1.996027 -0.083100
-0.261751 -1.995803 -0.026149
-0.207680 -1.998119 -0.073114
-0.335718 -1.995896 0.057832
-0.288647 -1.997550 0.047879
-0.344690 -1.993107 0.077864
-0.240567 -1.998102 0.025936
-0.300642 -1.997212 0.121896
-0.356522 -1.980024 -0.065020
-0.304461 -1.983522 -0.090994
-0.250405 -1.994290 -0.082026
-0.305466 -1.986736 -0.065019
-0.359491 -1.981000 -0.070026
-0.360417 -1.985644 -0.115065
-0.307480 -1.989053 -0.027035
-0.253399 -1.993387 -0.072015
-0.200360 -1.996064 -0.074978
-0.257421 -1.997972 -0.002046
-0.204324 -1.996022 -0.082974
-0.380437 -1.990138 0.056921
-0.334327 -1.998806 0.047912
-0.392353 -1.995356 0.075889
-0.287249 -1.997381 0.027989
-0.346338 -1.995459 0.120953
-0.405143 -1.988270 -0.068046
-0.406132 -1.988244 -0.072045
-0.351111 -1.987766 -0.092985
-0.296098 -1.991554 -0.080958
-0.352124 -1.989997 -0.065002
-0.407077 -1.987879 -0.118043
-0.354143 -1.991305 -0.028010
-0.298113 -1.987646 -0.070923
-0.244137 -1.995946 0.004071
-0.245051 -1.995341 -0.071925
-0.302263 -2.001493 0.155974
-0.303107 -1.997228 -0.001996
-0.249044 -1.989299 -0.079872
-0.256048 -2.001158 0.022040
-0.428106 -1.991393 0.055950
-0.380044 -1.992060 0.048008
-0.440022 -1.996604 0.073916
-0.331959 -1.993646 0.030061
-0.393023 -1.994710 0.119999
-0.451822 -1.987512 -0.070003
-0.341796 -1.987817 -0.079885
-0.398763 -1.991023 -0.093972
-0.453807 -1.986483 -0.074993
-0.399781 -1.992253 -0.065981
-0.453767 -1.984121 -0.119975
-0.399834 -1.989551 -0.028957
-0.344772 -1.990914 -0.069908
-0.290809 -1.997231 0.007105
-0.348927 -2.005752 0.155979
-0.290755 -1.990613 -0.069843
-0.349783 -1.997488 -0.001956
-0.293754 -1.984573 -0.076790
-0.300771 -1.994415 0.023138
-0.306875 -2.003798 0.191071
-0.475765 -1.995647 0.054950
-0.426708 -1.996325 0.049009
-0.486714 -1.994843 0.071964
-0.377649 -1.992907 0.031105
-0.440692 -1.996972 0.120016
-0.328819 -2.002522 0.266103
-0.499491 -1.987748 -0.072973
-0.388455 -1.991075 -0.079875
-0.444465 -1.986266 -0.094898
-0.445482 -1.988504 -0.065916
-0.500496 -1.983722 -0.076938
-0.501430 -1.985357 -0.122953
-0.446514 -1.988791 -0.030916
-0.391433 -1.994180 -0.068898
-0.336508 -1.994509 0.010167
-0.394641 -2.001004 0.156055
-0.335466 -1.985885 -0.066765
-0.395482 -1.994748 -0.000897
-0.339429 -1.985843 -0.074761
-0.346470 -1.991684 0.025199
-0.353555 -2.005064 0.192099
-0.523443 -1.995890 0.052978
-0.474390 -1.995586 0.049048
-0.536365 -1.999097 0.069958
-0.425320 -1.994184 0.033130
-0.486410 -1.991213 0.119095
-0.548142 -1.991988 -0.075980
-0.491179 -1.985745 -0.066863
-0.436103 -1.996336 -0.079885
-0.492131 -1.987518 -0.095878
-0.550129 -1.990975 -0.078971
-0.547149 -1.976581 -0.125852
-0.437123 -1.993438 -0.067859
-0.495164 -1.993048 -0.031920
-0.382187 -1.996784 0.013183
-0.441333 -2.000267 0.157094
-0.383099 -1.994163 -0.064797
-0.442166 -1.994003 -0.000858
-0.386083 -1.991123 -0.071770
-0.393136 -1.994956 0.027207
-0.397290 -1.999319 0.194179
-0.572127 -1.994145 0.052018
-0.522058 -1.998843 0.049049
-0.584067 -1.994337 0.068023
-0.472982 -1.998459 0.035125
-0.536043 -2.000473 0.118045
-0.539793 -1.990767 -0.096879
-0.481823 -1.988592 -0.078791
-0.750679 -2.552847 -0.110643
-0.540820 -1.991006 -0.067879
-0.542829 -1.996297 -0.032922
-0.746786 -2.530802 -0.113459
-0.483823 -1.988699 -0.066791
-0.592879 -1.964811 -0.127730
-0.428874 -1.996063 0.016221
-0.488022 -2.000520 0.157120
-0.428805 -1.989428 -0.062726
-0.488848 -1.994256 -0.000832
-0.432765 -1.990394 -0.069732
-0.438830 -1.994221 0.029243
-0.444944 -2.006594 0.196149
-0.627667 -2.020443 0.051819
-0.569758 -1.995108 0.050104
-0.631782 -1.986576 0.066108
-0.519685 -1.994719 0.036181
-0.583745 -1.996728 0.118098
-0.529497 -1.988849 -0.078768
-0.729535 -2.516528 -0.134252
-0.645507 -1.986462 -0.081891
-0.588506 -1.989253 -0.068843
-0.531492 -1.990964 -0.065785
-0.645525 -1.980445 -0.083840
-0.587600 -1.977529 -0.033743
-0.476532 -2.001336 0.018204
-0.535701 -2.002784 0.158125
-0.475478 -1.991697 -0.060718
-0.535541 -1.992507 -0.000794
-0.478470 -1.986665 -0.066674
-0.488456 -2.004504 0.031184
-0.490665 -2.001856 0.198213
-0.669507 -1.989647 0.050094
-0.617448 -1.994362 0.050129
-0.684415 -1.993839 0.064063
-0.568356 -1.996995 0.038184
-0.631442 -1.994973 0.117130
-0.575219 -1.981101 -0.077683
-0.637140 -1.990263 -0.099836
-0.637190 -1.987512 -0.068811
-0.581132 -1.998229 -0.065826
-0.640187 -1.994792 -0.035871
-0.583402 -2.000037 0.158168
-0.523255 -1.993618 0.022292
-0.523156 -1.991968 -0.058697
-0.584210 -1.994775 0.000207
-0.527113 -1.993941 -0.064712
-0.533190 -1.996760 0.033270
-0.718204 -1.986895 0.049129
-0.665160 -1.988613 0.050191
-0.732135 -1.986073 0.062139
-0.738684 -2.430964 0.041560
-0.684074 -2.004250 0.117065
-0.625851 -1.989369 -0.077737
-0.627862 -1.987484 -0.064720
-0.569950 -1.992891 0.025316
-0.569862 -1.987233 -0.056639
-0.795830 -2.555868 -0.009493
-0.571864 -1.981203 -0.061587
-0.580875 -1.997020 0.034285
-0.715833 -1.989887 0.051190
-0.664741 -1.994527 0.041233
-0.776606 -2.553041 0.026624
-0.648943 -2.097636 -0.059553
-0.682567 -1.995292 0.000228
-0.619545 -1.982478 -0.058584
-0.735566 -2.366891 0.037187
-0.714422 -1.995803 0.043229
-0.665350 -1.988439 0.031377
-0.667211 -1.990776 -0.052645
-0.675292 -1.989546 0.038369
-0.715042 -1.989728 0.035380
-0.724982 -1.990820 0.040373
