# .PCD v0.7 - Point Cloud Data file format
VERSION 0.7
FIELDS x y z
SIZE 4 4 4
TYPE F F F
COUNT 1 1 1
WIDTH 76
HEIGHT 1
VIEWPOINT 0 0 0 1
POINTS 76
DATA ascii
-0.408475 -2.017359 1.587721
-0.340399 -2.099577 1.680410
-0.371328 -1.916671 1.683729
-0.407543 -1.856385 1.673924
-0.441510 -1.786189 1.665377
-0.393981 -2.007025 1.601323
-0.380865 -2.067766 1.657126
-0.410072 -1.893060 1.666250
-0.380114 -1.967079 1.672718
-0.443339 -1.832939 1.659451
-0.473368 -1.762935 1.653912
-0.432560 -1.977433 1.583991
-0.410138 -1.971951 1.582495
-0.436573 -1.805349 1.592428
-0.462413 -1.732164 1.574996
-0.488621 -1.666396 1.574373
-0.410444 -1.875157 1.594981
-0.482273 -1.632231 1.642307
-0.450431 -1.963700 1.579603
-0.471138 -1.776778 1.571091
-0.518422 -1.642190 1.561944
-0.496313 -1.711890 1.564452
-0.515258 -1.613124 1.637742
-0.451447 -1.860652 1.583263
-0.493355 -1.622735 1.639820
-0.727910 -2.282336 2.185762
-0.536597 -1.887578 1.675085
-0.478250 -1.627148 1.641999
-0.701376 -2.376998 2.181729
-0.546000 -1.586938 1.627363
-0.515307 -1.956994 1.667645
-0.462741 -1.652578 1.643650
-0.526321 -1.603587 1.633250
-0.611562 -1.720013 1.659697
-0.511521 -1.617096 1.639191
-0.588624 -1.770058 1.635727
-0.574605 -1.556720 1.613092
-0.494845 -1.638386 1.633948
-0.556078 -1.578364 1.619841
-0.542476 -1.597916 1.628619
-0.585336 -1.474642 1.545221
-0.519284 -1.594724 1.638033
-0.536259 -1.521070 1.631652
-0.527954 -1.624223 1.626239
-0.576971 -1.528777 1.582087
-0.557467 -1.459266 1.623984
-0.568808 -1.561452 1.601504
-0.609936 -1.443556 1.530982
-0.556554 -1.595823 1.603904
-0.567346 -1.505968 1.623973
-0.552132 -1.574375 1.622481
-0.582293 -1.435193 1.610559
-0.594567 -1.471092 1.536553
-0.529418 -1.476767 1.617089
-0.580848 -1.488456 1.537374
-0.638971 -1.424676 1.529408
-0.571700 -1.526771 1.540653
-0.589560 -1.466480 1.590948
-0.564797 -1.493018 1.544556
-0.610476 -1.421281 1.606856
-0.622591 -1.452168 1.531980
-0.564043 -1.476918 1.623006
-0.589106 -1.411057 1.617422
-0.610931 -1.472452 1.531716
-0.602996 -1.516835 1.538830
-0.604142 -1.409722 1.538393
-0.595908 -1.478938 1.536844
-0.869369 -2.004526 2.133803
-0.594169 -1.462857 1.615296
-0.855207 -2.041985 2.138165
-0.632189 -1.392732 1.530764
-0.839211 -2.052419 2.141258
-0.616504 -1.427408 1.583158
-0.883457 -1.926908 2.133044
-0.205916 -2.423434 1.767767
-0.254818 -2.327839 1.754441
