# .PCD v0.7 - Point Cloud Data file format
VERSION 0.7
FIELDS x y z
SIZE 4 4 4
TYPE F F F
COUNT 1 1 1
WIDTH 13
HEIGHT 1
VIEWPOINT 0 0 0 1
POINTS 13
DATA ascii
-1.998290 3.433857 1.430244
-1.821472 3.110736 1.391703
-1.758607 3.171183 1.402347
-1.822225 3.473611 1.515749
-1.601651 3.215758 1.481961
-1.620562 3.448802 1.570869
-1.603857 3.622395 1.632366
-1.133861 3.507481 1.739952
-1.434410 3.362054 1.596525
-1.193019 3.706225 1.817369
-1.461856 3.647814 1.711831
-1.193955 3.442244 1.691041
-1.293753 3.704544 1.783823
