# .PCD v0.7 - Point Cloud Data file format
VERSION 0.7
FIELDS x y z
SIZE 4 4 4
TYPE F F F
COUNT 1 1 1
WIDTH 24
HEIGHT 1
VIEWPOINT 0 0 0 1
POINTS 24
DATA ascii
0.987779 3.347649 0.809133
1.073913 3.346510 0.819188
1.081059 3.336753 0.803094
1.157202 3.333367 0.827138
1.172954 3.359669 0.814421
1.238546 3.315224 0.834051
1.239677 3.307486 0.808973
1.313079 3.280047 0.837799
0.987722 3.413760 0.732637
1.074851 3.415897 0.736951
1.077759 3.318264 0.840303
1.156202 3.296308 0.844446
1.038429 3.390491 0.733568
1.241392 3.292426 0.852747
1.166626 3.281404 0.866335
1.050728 3.387619 0.749511
1.315992 3.259451 0.854829
1.251778 3.280541 0.873668
1.389626 3.224479 0.855910
1.169105 3.266487 0.874198
1.328304 3.253609 0.874813
1.258170 3.272695 0.880603
1.400036 3.212640 0.872865
1.332794 3.239765 0.878718
