# .PCD v0.7 - Point Cloud Data file format
VERSION 0.7
FIELDS x y z
SIZE 4 4 4
TYPE F F F
COUNT 1 1 1
WIDTH 239
HEIGHT 1
VIEWPOINT 0 0 0 1
POINTS 239
DATA ascii
-0.298783 -2.009993 -0.097035
-0.304767 -2.011000 -0.094104
-0.291948 -2.009995 -0.069938
-0.296731 -2.009017 -0.083995
-0.332133 -2.015926 0.035591
-0.340580 -2.008980 -0.002516
-0.285935 -2.018018 -0.052840
-0.288524 -2.013052 -0.083876
-0.345321 -2.005081 -0.100581
-0.351315 -2.003089 -0.096652
-0.333413 -2.018934 0.077597
-0.337324 -2.016021 -0.007456
-0.338514 -2.008083 -0.071481
-0.342304 -2.005103 -0.085528
-0.283295 -2.019092 -0.083791
-0.378686 -2.011022 0.033045
-0.386267 -2.014917 0.165969
-0.387137 -2.008073 -0.005058
-0.331914 -2.015077 -0.021375
-0.331520 -2.013105 -0.053374
-0.334123 -2.010137 -0.083409
-0.391877 -2.003169 -0.103123
-0.399850 -2.009180 -0.100211
-0.345632 -2.014974 0.127476
-0.379978 -2.014031 0.076052
-0.411908 -2.018911 0.235679
-0.382910 -2.011111 -0.007990
-0.388838 -2.013984 0.151954
-0.385083 -2.007172 -0.073022
-0.326528 -2.010131 -0.033297
-0.388884 -2.003191 -0.086070
-0.329911 -2.017176 -0.081334
-0.332434 -2.019144 -0.037359
-0.426222 -2.009120 0.029492
-0.432849 -2.013018 0.165427
-0.434702 -2.009167 -0.006608
-0.380116 -2.018060 0.110076
-0.377118 -2.008192 -0.052907
-0.377522 -2.008165 -0.019909
-0.418209 -2.025935 0.282631
-0.380717 -2.009223 -0.082950
-0.440412 -2.006261 -0.106683
-0.354949 -2.019073 0.101389
-0.446407 -2.005270 -0.102753
-0.392248 -2.012071 0.129933
-0.427541 -2.013130 0.074500
-0.458461 -2.013018 0.233135
-0.428498 -2.006202 -0.008522
-0.436428 -2.015085 0.152403
-0.432649 -2.008262 -0.074573
-0.373132 -2.008220 -0.031839
-0.436446 -2.002281 -0.087621
-0.376517 -2.015263 -0.079876
-0.377071 -2.007229 -0.033885
-0.383239 -2.019097 0.145063
-0.420352 -2.018979 0.319624
-0.474769 -2.010219 0.026930
-0.479415 -2.007122 0.163884
-0.426701 -2.018157 0.109536
-0.481254 -2.001263 -0.009153
-0.423700 -2.006282 -0.053448
-0.425111 -2.009258 -0.019460
-0.463780 -2.017043 0.281096
-0.427308 -2.004312 -0.082493
-0.485959 -1.997351 -0.110216
-0.402571 -2.017169 0.104835
-0.439856 -2.018168 0.131385
-0.492949 -1.998361 -0.106296
-0.443611 -2.017005 0.357356
-0.475108 -2.013229 0.072949
-0.415200 -2.019027 0.326705
-0.506005 -2.006130 0.230580
-0.476072 -2.003297 -0.009074
-0.481018 -2.005185 0.151881
-0.480203 -2.007354 -0.077124
-0.418746 -2.005308 -0.030368
-0.484015 -2.003372 -0.089171
-0.428505 -2.022032 0.360555
-0.422139 -2.008349 -0.077409
-0.424677 -2.012319 -0.032433
-0.428853 -2.015195 0.146532
-0.468952 -2.024089 0.321064
-0.524320 -2.016318 0.024360
-0.525984 -2.002226 0.162342
-0.473298 -2.015256 0.109995
-0.527827 -1.998358 -0.010693
-0.471710 -2.008349 -0.019000
-0.509341 -2.009153 0.278564
-0.471286 -2.002375 -0.053000
-0.473897 -2.005400 -0.083031
-0.448193 -2.010266 0.107303
-0.534499 -1.998444 -0.113777
-0.485467 -2.010267 0.132853
-0.541501 -1.999454 -0.108857
-0.462843 -2.022135 0.331155
-0.522674 -2.010330 0.071397
-0.523651 -2.001392 -0.009625
-0.556573 -2.012240 0.229998
-0.528607 -2.002289 0.152329
-0.526775 -2.002446 -0.078665
-0.466351 -2.007400 -0.028917
-0.531580 -1.999465 -0.090723
-0.467766 -2.003436 -0.074939
-0.471298 -2.009410 -0.029974
-0.474469 -2.012293 0.148003
-0.513530 -2.013199 0.319542
-0.572872 -2.014418 0.021797
-0.572552 -1.995332 0.160801
-0.522867 -2.017361 0.109422
-0.578373 -2.003458 -0.013274
-0.518304 -2.002443 -0.018541
-0.518871 -2.004467 -0.053549
-0.558925 -2.012265 0.278992
-0.521486 -2.001493 -0.082582
-0.494812 -2.006365 0.109762
-0.585034 -2.003540 -0.117358
-0.532071 -2.003370 0.134311
-0.591038 -2.000549 -0.112428
-0.571247 -2.014430 0.069837
-0.508454 -2.007247 0.333620
-0.572231 -2.002489 -0.010185
-0.605124 -2.009353 0.227436
-0.576199 -1.999394 0.152779
-0.574344 -1.999540 -0.080215
-0.511959 -1.997493 -0.027449
-0.580150 -2.001558 -0.092282
-0.515372 -2.003527 -0.073488
-0.517918 -2.004502 -0.027514
-0.522062 -2.011396 0.148453
-0.621408 -2.008521 0.018234
-0.623142 -2.002439 0.161221
-0.570465 -2.016462 0.109872
-0.565461 -2.001560 -0.054088
-0.566910 -2.004538 -0.017101
-0.626930 -2.002556 -0.015834
-0.605497 -2.005378 0.277452
-0.569085 -2.001584 -0.082131
-0.541448 -2.003464 0.113223
-0.631579 -1.993634 -0.120899
-0.579679 -2.002472 0.135761
-0.637585 -1.991643 -0.115968
-0.619813 -2.011533 0.068275
-0.619802 -1.998587 -0.011735
-0.625804 -2.003499 0.154209
-0.654680 -2.005468 0.225863
-0.622909 -1.996636 -0.081776
-0.559566 -1.996588 -0.025997
-0.563978 -2.005620 -0.072048
-0.627717 -1.994653 -0.093833
-0.565542 -2.004596 -0.025063
-0.571677 -2.016501 0.150882
-0.669974 -2.003623 0.016672
-0.670709 -1.995547 0.159670
-0.619047 -2.015566 0.109311
-0.615509 -2.006634 -0.016660
-0.617032 -2.008658 -0.054679
-0.674481 -1.992658 -0.018386
-0.656087 -2.010491 0.277870
-0.618662 -2.002679 -0.082702
-0.589084 -2.003564 0.116675
-0.683115 -1.997731 -0.124491
-0.629298 -2.006577 0.138191
-0.686141 -1.987738 -0.118528
-0.667385 -2.005636 0.066725
-0.669383 -1.999687 -0.012306
-0.673389 -1.998606 0.153659
-0.708244 -2.012584 0.225248
-0.670470 -1.991732 -0.084325
-0.609173 -2.001684 -0.024567
-0.611597 -2.000713 -0.069598
-0.674292 -1.986747 -0.095371
-0.612166 -1.998690 -0.022602
-0.618294 -2.012604 0.152344
-0.813406 -2.282761 0.012095
-0.719288 -1.990657 0.159110
-0.665637 -2.008670 0.108772
-0.663631 -1.999754 -0.054219
-0.664094 -1.999735 -0.016221
-0.701658 -1.996607 0.276341
-0.724034 -1.989760 -0.020957
-0.667260 -2.001774 -0.082262
-0.638694 -2.002671 0.119103
-0.730659 -1.987828 -0.128040
-0.678893 -2.002686 0.139619
-0.905055 -2.479914 -0.159934
-0.904909 -2.575802 0.077131
-0.714968 -1.985786 -0.012833
-0.724992 -2.003715 0.155067
-0.756807 -2.003700 0.223686
-0.720033 -1.987831 -0.085896
-0.655786 -1.994781 -0.023104
-0.659211 -1.997808 -0.068146
-0.664896 -2.005710 0.152805
-0.660787 -1.997788 -0.020161
-0.725857 -1.990846 -0.096963
-0.772864 -1.998770 0.158496
-0.774057 -2.006836 0.010474
-0.804273 -2.279804 0.120235
-0.711710 -1.995833 -0.014770
-0.712210 -1.993853 -0.054778
-0.980235 -2.559942 -0.036798
-0.714839 -1.991872 -0.082811
-0.685332 -1.995774 0.122566
-0.726508 -1.997792 0.141071
-0.767530 -2.001850 0.064571
-0.771525 -2.000893 -0.014480
-0.775579 -2.000828 0.155485
-0.704395 -1.991880 -0.021663
-0.973001 -2.551018 -0.120716
-0.808360 -1.998820 0.222092
-0.714511 -2.008817 0.154235
-0.705825 -1.989903 -0.066683
-0.708408 -1.990887 -0.017709
-0.975807 -2.543032 -0.133754
-0.824438 -1.998884 0.157888
-0.763811 -2.002885 0.108625
-0.762298 -1.996936 -0.014366
-0.761785 -1.991955 -0.055364
-0.953889 -2.528053 -0.111503
-0.737961 -2.003885 0.126947
-0.778113 -2.001906 0.143463
-0.822072 -2.007966 0.062929
-0.828159 -2.002948 0.156865
-0.748993 -1.978984 -0.020192
-0.898053 -2.399069 -0.082863
-0.960351 -2.565997 0.193458
-0.759006 -1.993995 -0.015305
-0.815376 -2.003006 0.109033
-0.786568 -1.998003 0.130388
-1.044896 -2.559107 0.179430
-1.015187 -2.555191 -0.032223
-0.815690 -2.009057 0.158056
-1.020241 -2.551200 -0.024284
-0.874504 -1.975166 -0.102685
-0.931627 -1.997191 0.001646
-1.056320 -2.558211 0.164297
-0.865278 -2.004181 0.159487
-0.916000 -1.989289 -0.013130
-0.909794 -1.983345 -0.008033
