# .PCD v0.7 - Point Cloud Data file format
VERSION 0.7
FIELDS x y z
SIZE 4 4 4
TYPE F F F
COUNT 1 1 1
WIDTH 37
HEIGHT 1
VIEWPOINT 0 0 0 1
POINTS 37
DATA ascii
2.233734 -0.708246 2.621332
2.072595 -0.686323 2.569423
2.128709 -0.706030 2.582431
2.220062 -0.758049 2.619564
2.098989 -0.747925 2.567649
2.197362 -0.804916 2.607776
2.071273 -0.790806 2.556853
2.157604 -0.843877 2.577964
2.130878 -0.887742 2.564137
2.122196 -0.939488 2.571295
2.142637 -1.025825 2.565444
2.106489 -0.988270 2.573434
2.113930 -1.071684 2.561560
2.162880 -1.057519 2.574527
2.072186 -1.111577 2.543671
2.115093 -1.090396 2.546633
2.117327 -1.140422 2.549685
2.084348 -1.131168 2.539725
2.080595 -1.183276 2.540775
2.125845 -1.228554 2.527813
2.106147 -1.280292 2.535872
2.108650 -1.383801 2.528924
2.090456 -1.335011 2.547911
2.050846 -1.415743 2.502941
2.124902 -1.424534 2.530925
2.100133 -1.475781 2.523936
2.076105 -1.459392 2.512925
2.092698 -1.584113 2.531879
-1.026808 -3.042652 1.302305
-1.063780 -3.039746 1.297200
-1.101716 -3.047766 1.285019
-1.151645 -3.037827 1.266896
-1.192505 -2.901500 1.172558
-1.332890 -3.011053 1.151863
-1.360937 -2.892027 1.115574
-1.519291 -2.974465 1.073949
-1.553306 -2.872527 1.047508
