# .PCD v0.7 - Point Cloud Data file format
VERSION 0.7
FIELDS x y z
SIZE 4 4 4
TYPE F F F
COUNT 1 1 1
WIDTH 35
HEIGHT 1
VIEWPOINT 0 0 0 1
POINTS 35
DATA ascii
2.082695 -1.674922 2.618258
2.777720 -2.291001 3.618004
2.754335 -2.314406 3.516789
2.344625 -2.052466 2.844481
2.064121 -1.823706 2.708293
2.515879 -2.073499 3.525845
2.715564 -2.393422 3.062158
2.536233 -2.105097 3.479688
1.950291 -1.768927 2.667387
2.191047 -1.735317 2.727310
2.649081 -2.249347 3.153011
2.238338 -2.050471 2.776244
1.993825 -1.844828 2.677005
1.836841 -1.589234 2.639357
2.453243 -2.268981 2.836328
1.881120 -1.639107 2.647143
2.132747 -1.766431 2.702984
2.293738 -2.041387 2.794510
2.101216 -1.874739 2.726141
1.781506 -1.611331 2.612109
2.898879 -2.627466 3.035107
1.993118 -1.731063 2.700902
2.037917 -1.900861 2.698835
2.198451 -2.047437 2.738250
2.514786 -2.090497 3.508881
2.539167 -2.129141 3.472684
2.045125 -1.848827 2.694269
1.936802 -1.757161 2.673618
1.855620 -1.617344 2.644426
1.884876 -1.653170 2.637263
2.733392 -2.387444 2.927421
1.980815 -1.871954 2.665982
2.691140 -2.360067 2.988503
2.665125 -2.426625 2.907988
2.566896 -2.354016 2.900239
