# .PCD v0.7 - Point Cloud Data file format
VERSION 0.7
FIELDS x y z
SIZE 4 4 4
TYPE F F F
COUNT 1 1 1
WIDTH 36
HEIGHT 1
VIEWPOINT 0 0 0 1
POINTS 36
DATA ascii
1.385795 1.590821 1.301747
1.670580 1.887141 1.258657
1.901631 2.089180 1.176913
1.418591 1.555959 1.304297
1.684037 1.822389 1.240297
1.374501 1.602689 1.275950
1.908358 2.002723 1.159247
2.256812 2.328550 1.046471
1.636099 1.699532 1.184341
1.435666 1.599569 1.301248
1.768817 1.956945 1.231908
1.376380 1.617380 1.257918
1.320626 1.548668 1.283554
1.930188 2.044489 1.158325
1.792546 1.897104 1.220254
1.451634 1.545829 1.287517
1.458407 1.635024 1.297378
1.404820 1.570281 1.324874
1.891224 1.914748 1.114408
1.872373 2.036824 1.209860
1.373969 1.642829 1.264708
1.399084 1.657624 1.244970
1.475372 1.581246 1.282620
1.957594 2.076108 1.155638
1.430240 1.527406 1.316706
1.812428 1.884173 1.145807
1.466320 1.669311 1.308804
1.480998 1.674205 1.280466
1.915497 1.941418 1.109857
1.482974 1.608382 1.287225
1.510433 1.631263 1.273238
1.988521 2.115237 1.175791
1.997182 2.120263 1.145529
1.464301 1.515917 1.241964
1.957100 1.985503 1.098708
1.991913 2.019714 1.148346
