# .PCD v0.7 - Point Cloud Data file format
VERSION 0.7
FIELDS x y z
SIZE 4 4 4
TYPE F F F
COUNT 1 1 1
WIDTH 128
HEIGHT 1
VIEWPOINT 0 0 0 1
POINTS 128
DATA ascii
1.820715 -3.111197 2.466390
1.719643 -3.090877 2.423489
1.337612 -2.449592 2.930049
1.253211 -2.304684 2.303861
1.750554 -3.026751 2.438307
1.044959 -1.939146 2.258898
1.149581 -2.128002 2.293848
1.258080 -2.223572 2.304663
1.622568 -3.073589 2.385587
0.966422 -1.878000 2.232310
1.189034 -2.302439 2.279928
1.657501 -3.016446 2.400357
0.986760 -1.930852 2.230026
1.079446 -2.113679 2.259002
1.197920 -2.228332 2.283690
1.697491 -2.978358 2.427012
0.967735 -1.836707 2.219865
1.053211 -1.996726 2.267986
1.209830 -2.168298 2.299361
1.749480 -2.946180 2.445637
0.917659 -1.773864 2.224241
1.216048 -2.215479 2.951120
0.912223 -1.875767 2.212421
1.122842 -2.293186 2.252051
1.594463 -3.058383 2.405141
0.953722 -1.759656 2.224591
0.934528 -1.929634 2.211125
1.327291 -2.442807 2.939909
1.021279 -2.118503 2.246064
1.134758 -2.225063 2.255777
1.632462 -3.015244 2.424821
0.922505 -1.845520 2.207910
1.293363 -2.422029 2.347043
1.548866 -3.210492 0.673856
0.997018 -1.994474 2.244085
1.151689 -2.174037 2.275395
1.682502 -2.983004 2.436443
0.865954 -1.668640 2.203161
1.558696 -3.085399 0.424011
0.870450 -1.777635 2.206325
1.175668 -2.129897 2.282968
0.859014 -1.871533 2.190556
0.914495 -1.776487 2.217594
0.882305 -1.928431 2.193238
0.963890 -1.877432 2.241052
1.238284 -2.269860 2.323242
1.076582 -2.228861 2.236838
1.580427 -3.214191 0.670308
1.570463 -3.060163 2.427602
0.912492 -1.710337 2.212241
1.222219 -2.413759 2.315151
0.872298 -1.845281 2.186018
0.940835 -1.992238 2.221199
1.094549 -2.180800 2.253438
1.618546 -3.027878 2.434222
0.827705 -1.681471 2.195199
1.403016 -3.126233 0.333407
0.820225 -1.771367 2.179473
1.478478 -3.100611 0.424972
1.123555 -2.147686 2.267950
0.871281 -1.786285 2.203647
0.916666 -1.882218 2.223125
1.183096 -2.278659 2.305260
1.603046 -3.214890 0.663775
1.491199 -3.214357 0.663356
1.684014 -3.253464 2.449028
0.899394 -1.772167 2.218010
0.872280 -1.722113 2.196281
0.826054 -1.848092 2.170118
0.799901 -1.598267 2.179968
1.037387 -2.183568 2.229516
0.788461 -1.691286 2.183262
1.632598 -3.204460 0.642305
0.773980 -1.770153 2.159603
1.411421 -3.148804 0.429767
1.063441 -2.148393 2.236037
0.821075 -1.779988 2.171798
0.867442 -1.881991 2.201237
1.123901 -2.278434 2.280340
1.477091 -3.134135 0.515274
1.509788 -3.206051 0.652874
0.854159 -1.772911 2.193113
0.831094 -1.733889 2.179335
0.764623 -1.608076 2.167030
0.741228 -1.682994 2.151436
1.535340 -3.190613 0.627430
0.778836 -1.786803 2.156884
0.818206 -1.878765 2.177375
1.422094 -3.201290 0.521969
1.452815 -3.273182 0.657567
0.816903 -1.787762 2.185148
0.787877 -1.737647 2.156438
0.727390 -1.617873 2.152107
0.702960 -1.691850 2.142521
1.475355 -3.250732 0.628168
0.774630 -1.789560 2.165260
0.748677 -1.752488 2.146493
0.691127 -1.626697 2.139194
0.094362 -4.086272 1.730270
0.000580 -3.948397 1.680404
-0.430485 -3.686198 1.618718
-0.506105 -3.603488 1.595566
-0.430235 -3.341542 1.523466
-0.578726 -3.524788 1.574391
-0.500688 -3.300900 1.515053
-0.645451 -3.431036 1.547299
-0.574991 -3.287357 1.518502
-0.712072 -3.360347 1.529075
-0.653180 -3.294908 1.532844
-0.774754 -3.282641 1.509890
-0.590755 -3.124182 1.485212
-0.548468 -3.325161 1.545408
-0.721652 -3.254299 1.525446
-0.835439 -3.205936 1.490702
-0.646468 -3.047393 1.457983
-0.618936 -3.276499 1.525058
-0.783273 -3.191613 1.509164
-0.617884 -3.078277 1.487256
-0.672884 -2.882358 1.420169
-0.896076 -3.141274 1.477445
-0.707973 -3.008749 1.449555
-0.687440 -3.223840 1.504732
-0.840955 -3.120899 1.489924
-0.668684 -2.990432 1.452070
-0.756796 -2.938075 1.453273
-0.782168 -3.020316 1.464881
-0.948841 -3.058533 1.456280
-0.753962 -3.170179 1.483412
