# .PCD v0.7 - Point Cloud Data file format
VERSION 0.7
FIELDS x y z
SIZE 4 4 4
TYPE F F F
COUNT 1 1 1
WIDTH 1598
HEIGHT 1
VIEWPOINT 0 0 0 1
POINTS 1598
DATA ascii
0.555888 1.702444 0.742628
0.472840 1.695821 1.072624
0.411707 1.756014 -0.101118
0.412730 1.757022 -0.108111
0.575696 1.753602 -0.113162
0.330429 1.734568 0.415832
0.414710 1.756150 -0.149104
0.577710 1.753480 -0.094155
0.566204 1.719058 0.542712
0.491529 1.743833 0.016831
0.579771 1.755232 -0.045142
0.563839 1.689815 1.087629
0.497529 1.737732 0.248842
0.336256 1.718237 0.700815
0.341498 1.733093 0.469883
0.425717 1.750179 0.025931
0.507799 1.752339 0.051924
0.350906 1.762461 -0.141987
0.350897 1.761305 -0.104990
0.423426 1.727392 0.461859
0.588525 1.735016 0.198842
0.343266 1.714873 0.748840
0.500226 1.716815 0.450799
0.507537 1.735688 0.206879
0.343234 1.707725 1.021820
0.501280 1.712363 0.790792
0.430606 1.739296 0.209924
0.514789 1.752830 -0.101045
0.504285 1.717533 0.496818
0.357893 1.760422 -0.168959
0.517870 1.756908 -0.135021
0.433627 1.739188 0.219938
0.517830 1.753677 -0.080030
0.590313 1.717923 0.447806
0.358844 1.753551 0.033026
0.427200 1.708095 0.747824
0.357665 1.740747 0.228984
0.361787 1.746920 0.167022
0.442805 1.749854 0.015008
0.509176 1.704369 0.745805
0.608743 1.744366 0.012944
0.442628 1.730975 0.459956
0.605559 1.729240 0.294893
0.598298 1.705067 0.844804
0.441400 1.712781 0.746901
0.615808 1.743869 0.094969
0.439257 1.698443 1.072853
0.376054 1.760428 -0.025871
0.601196 1.700391 0.751803
0.517209 1.694763 1.081814
0.454827 1.750089 -0.101937
0.457977 1.757053 -0.108904
0.620835 1.748633 -0.111000
0.609432 1.715084 0.546872
0.621827 1.747536 -0.092999
0.537850 1.746832 0.018035
0.623874 1.748286 -0.043989
0.464147 1.765105 -0.151855
0.376794 1.736528 0.417064
0.542776 1.735735 0.251026
0.380569 1.716224 0.702024
0.384754 1.730118 0.471083
0.469839 1.743221 0.026109
0.553000 1.749364 0.052103
0.394019 1.755385 -0.107802
0.466713 1.726417 0.465050
0.397176 1.763482 -0.145764
0.383459 1.707949 0.750014
0.635770 1.732978 0.203015
0.548690 1.723721 0.458018
0.543500 1.706396 0.793952
0.552742 1.731691 0.210055
0.550703 1.722489 0.502023
0.478038 1.746258 0.211153
0.388672 1.709654 1.027044
0.562058 1.753823 -0.100850
0.405341 1.770428 -0.173707
0.564073 1.754925 -0.134839
0.476768 1.732241 0.220109
0.564039 1.751691 -0.079848
0.402042 1.750619 0.031222
0.635524 1.712910 0.452963
0.470525 1.707094 0.753014
0.401915 1.738773 0.229187
0.488046 1.748882 0.014203
0.553464 1.701344 0.752978
0.407072 1.746932 0.166234
0.653897 1.739390 0.016097
0.642659 1.706038 0.853971
0.653932 1.733178 0.299081
0.474387 1.688615 1.075981
0.486900 1.728989 0.461144
0.484684 1.709791 0.750082
0.663074 1.743850 0.097140
0.482639 1.698417 1.080043
0.560511 1.690733 1.090978
0.653701 1.713090 0.552028
0.503261 1.759065 -0.103706
0.648514 1.698300 0.760972
0.420131 1.751485 -0.028694
0.670123 1.750593 -0.110818
0.505287 1.760056 -0.111695
0.672179 1.752469 -0.091806
0.583009 1.741860 0.019199
0.672127 1.748259 -0.042817
0.508320 1.762168 -0.152677
0.419982 1.730571 0.416246
0.586958 1.730771 0.252185
0.425935 1.724199 0.471254
0.518307 1.753183 0.026339
0.598180 1.745392 0.053265
0.426931 1.716165 0.705236
0.425806 1.707972 0.754200
0.509891 1.719449 0.467206
0.441400 1.761383 -0.110580
0.586805 1.704404 0.799108
0.443487 1.766504 -0.148556
0.683037 1.731946 0.207171
0.593948 1.720709 0.462178
0.593914 1.717527 0.504170
0.599010 1.730682 0.212224
0.607184 1.747865 -0.100700
0.524289 1.744252 0.211333
0.431958 1.704649 1.028220
0.449498 1.766497 -0.176528
0.613422 1.759888 -0.135645
0.524200 1.739201 0.223320
0.610247 1.749715 -0.080683
0.514891 1.708073 0.759198
0.682800 1.710850 0.460119
0.446225 1.746667 0.030402
0.445156 1.736826 0.229370
0.535427 1.754874 0.013409
0.599813 1.701278 0.761153
0.698125 1.729218 0.301219
0.702154 1.739362 0.018259
0.454438 1.750908 0.165451
0.518843 1.692554 1.087174
0.532189 1.727980 0.464324
0.530044 1.710755 0.755270
0.708189 1.736888 0.098274
0.702128 1.719010 0.559208
0.526974 1.696381 1.085219
0.549461 1.757091 -0.104527
0.718319 1.748583 -0.109661
0.697884 1.699161 0.773145
0.467486 1.756482 -0.030475
0.719316 1.747475 -0.089660
0.719325 1.746266 -0.041663
0.552488 1.758067 -0.113511
0.631283 1.742835 0.020381
0.553448 1.757225 -0.154510
0.464178 1.725595 0.416425
0.636354 1.736706 0.254384
0.469128 1.719240 0.472430
0.563469 1.749223 0.026510
0.648552 1.751330 0.053468
0.554151 1.718466 0.471391
0.469079 1.705989 0.757394
0.472237 1.715143 0.707433
0.634169 1.706324 0.807299
0.729150 1.724952 0.211318
0.488623 1.762565 -0.151365
0.486502 1.755441 -0.113394
0.639156 1.715528 0.508341
0.638068 1.712734 0.466330
0.648353 1.734617 0.216424
0.472154 1.696518 1.076381
0.570545 1.744258 0.212525
0.659616 1.757779 -0.101475
0.557058 1.701115 0.763357
0.567291 1.731270 0.224478
0.475127 1.695664 1.027392
0.493548 1.758583 -0.179355
0.660540 1.754913 -0.136479
0.733188 1.715738 0.468308
0.662641 1.757629 -0.081464
0.493548 1.750669 0.028624
0.490435 1.737845 0.230575
0.581600 1.751904 0.012590
0.648217 1.705168 0.772349
0.561120 1.689564 1.094344
0.746369 1.728179 0.305383
0.752412 1.740303 0.021434
0.498509 1.741963 0.164621
0.579497 1.728945 0.466521
0.759515 1.740808 0.100458
0.748334 1.714993 0.564357
0.576364 1.710709 0.760460
0.511630 1.752556 -0.032294
0.768522 1.747544 -0.108495
0.596624 1.754114 -0.106346
0.769554 1.746222 -0.040496
0.770563 1.748414 -0.088487
0.680599 1.746800 0.021572
0.599689 1.757086 -0.114326
0.601668 1.757230 -0.156318
0.512571 1.730536 0.418649
0.683573 1.734696 0.256552
0.513410 1.719260 0.475622
0.512388 1.706004 0.762581
0.694666 1.745365 0.053618
0.680502 1.707274 0.815470
0.601481 1.720421 0.476584
0.609587 1.743253 0.026675
0.778425 1.725898 0.216481
0.518538 1.714104 0.710629
0.688528 1.719446 0.513530
0.685334 1.711693 0.472499
0.531660 1.752508 -0.116212
0.533736 1.757639 -0.155189
0.514453 1.694531 1.082558
0.694545 1.731628 0.219582
0.602391 1.702087 0.770539
0.615678 1.738298 0.212685
0.706698 1.750801 -0.100327
0.615594 1.733235 0.226671
0.707697 1.749695 -0.081326
0.783442 1.713634 0.476465
0.709683 1.750899 -0.136316
0.541788 1.759596 -0.183151
0.525720 1.706478 1.039637
0.539766 1.749697 0.027813
0.535634 1.734876 0.230756
0.693449 1.701147 0.779499
0.794589 1.726151 0.308531
0.627733 1.746941 0.011753
0.801624 1.739273 0.024586
0.545766 1.741962 0.163816
0.623636 1.721981 0.468671
0.797681 1.717910 0.571519
0.807692 1.737800 0.102600
0.622661 1.709670 0.765634
0.644866 1.755119 -0.107163
0.820765 1.748475 -0.108334
0.819723 1.745398 -0.086344
0.820782 1.746171 -0.040339
0.559885 1.753558 -0.035096
0.648989 1.761080 -0.117133
0.726653 1.737838 0.022706
0.652971 1.761186 -0.159118
0.728704 1.728740 0.257688
0.560844 1.729490 0.419841
0.559756 1.722245 0.478817
0.557780 1.709979 0.768775
0.743866 1.743340 0.054775
0.657862 1.745247 0.026856
0.646664 1.715436 0.479737
0.827602 1.721856 0.220617
0.555704 1.690577 1.087714
0.734695 1.713440 0.517668
0.734662 1.713616 0.478668
0.564797 1.711073 0.713805
0.742725 1.727604 0.222730
0.579866 1.751519 -0.119025
0.580876 1.753674 -0.158015
0.648691 1.701038 0.778705
0.667063 1.744208 0.214885
0.756920 1.750775 -0.101164
0.661770 1.729256 0.227827
0.758944 1.750648 -0.082158
0.758878 1.749897 -0.137161
0.590022 1.760618 -0.186962
0.570954 1.700452 1.041800
0.580792 1.729915 0.230919
0.585884 1.743738 0.025976
0.843809 1.724110 0.311668
0.852821 1.737214 0.026727
0.678031 1.749902 0.010938
0.672948 1.722915 0.471848
0.858897 1.735736 0.104740
0.594006 1.740944 0.163998
0.671004 1.710587 0.772808
0.869881 1.743474 -0.107211
0.869864 1.741375 -0.085216
0.693027 1.752137 -0.109006
0.869869 1.739166 -0.039222
0.608061 1.750564 -0.036923
0.777895 1.737774 0.024865
0.697072 1.754100 -0.118988
0.700045 1.754230 -0.160978
0.777926 1.726699 0.260835
0.603919 1.716284 0.480967
0.608052 1.725469 0.422007
0.602013 1.705990 0.772931
0.694972 1.716385 0.484903
0.793024 1.739328 0.054913
0.878823 1.719770 0.226750
0.709127 1.746187 0.027030
0.786085 1.718327 0.523837
0.783949 1.713543 0.485818
0.791943 1.725563 0.226873
0.694986 1.700002 0.785859
0.614146 1.711981 0.717991
0.630190 1.756497 -0.121828
0.632179 1.757639 -0.161818
0.714217 1.739221 0.215027
0.807101 1.748754 -0.101022
0.712094 1.732190 0.231001
0.811137 1.751841 -0.138002
0.808049 1.744648 -0.082030
0.895073 1.724025 0.316802
0.627009 1.727941 0.231081
0.639199 1.758628 -0.190791
0.637286 1.751677 0.025183
0.906059 1.737117 0.029864
0.725088 1.740931 0.011066
0.911136 1.735665 0.105872
0.723243 1.722831 0.476010
0.643301 1.742912 0.164179
0.925182 1.747355 -0.106063
0.924173 1.743063 -0.038077
0.927230 1.748213 -0.084056
0.743210 1.750123 -0.110854
0.831249 1.743680 0.026031
0.748351 1.757065 -0.120820
0.659357 1.753521 -0.039738
0.752342 1.758182 -0.163805
0.830231 1.728602 0.263987
0.651262 1.719258 0.485139
0.647305 1.704979 0.779086
0.655256 1.721461 0.423159
0.743257 1.716341 0.490053
0.844260 1.739281 0.055053
0.937250 1.727546 0.232911
0.754156 1.736266 0.026140
0.842143 1.722513 0.230002
0.678311 1.751526 -0.124681
0.665558 1.715842 0.725177
0.859322 1.748699 -0.100883
0.682434 1.759633 -0.165645
0.761313 1.731243 0.215147
0.760273 1.728180 0.233136
0.861271 1.747836 -0.138880
0.861312 1.746576 -0.082884
0.677354 1.731881 0.233260
0.688390 1.757647 -0.194632
0.958252 1.735048 0.032977
0.685443 1.747693 0.023330
0.778407 1.744846 0.010233
0.963336 1.733592 0.108984
0.770406 1.716827 0.478133
0.693503 1.739874 0.163333
0.978340 1.744292 -0.105955
0.977308 1.741201 -0.081966
0.976300 1.738011 -0.036976
0.795490 1.753074 -0.112697
0.881329 1.735660 0.027135
0.798509 1.754060 -0.122686
0.707504 1.749545 -0.041596
0.802493 1.755185 -0.166672
0.881451 1.726539 0.266110
0.699532 1.718219 0.489291
0.692520 1.699983 0.783218
0.792525 1.715280 0.496189
0.708673 1.727321 0.427344
0.897518 1.740197 0.056185
0.807456 1.739181 0.026296
0.895444 1.724398 0.235137
0.730612 1.755485 -0.128511
0.915607 1.751575 -0.101742
0.809471 1.725156 0.235262
0.732590 1.756637 -0.169502
0.713762 1.709793 0.728309
0.813577 1.731158 0.217289
0.916612 1.750476 -0.084743
0.917550 1.750720 -0.140740
0.725553 1.728881 0.233398
0.739638 1.759637 -0.199473
1.015513 1.735885 0.036094
0.732538 1.740734 0.022452
1.018596 1.734470 0.111096
0.829602 1.742813 0.009363
0.822738 1.718713 0.483277
0.744778 1.740819 0.163487
1.030418 1.737254 -0.104875
1.032473 1.738100 -0.080869
1.032509 1.736886 -0.035872
0.847671 1.751036 -0.114570
0.934563 1.735579 0.029254
0.851728 1.754007 -0.125551
0.758715 1.748520 -0.044452
0.854686 1.754151 -0.168544
0.747779 1.716191 0.492425
0.950696 1.737128 0.056291
0.757860 1.722288 0.428470
0.861756 1.742080 0.027438
0.966704 1.745560 -0.101653
0.860693 1.723095 0.238381
0.781790 1.753474 -0.132376
0.866874 1.733066 0.218424
0.784823 1.757609 -0.173356
0.969664 1.745692 -0.141647
0.969736 1.745418 -0.084648
0.776855 1.730817 0.235545
0.789730 1.753654 -0.203355
0.784796 1.741683 0.020597
0.882853 1.743747 0.008491
1.090700 1.740065 -0.104769
1.091754 1.740924 -0.079765
0.796998 1.738752 0.163619
0.988777 1.734491 0.030356
0.901891 1.750965 -0.116448
0.903865 1.749979 -0.127446
0.811984 1.750458 -0.046309
0.908880 1.753091 -0.171427
0.798035 1.714121 0.497550
1.004893 1.735041 0.057386
0.912891 1.737055 0.027535
0.811156 1.722166 0.432606
1.021864 1.742476 -0.102564
0.913955 1.723000 0.241496
0.921134 1.732958 0.220539
1.022855 1.740374 -0.085568
0.833969 1.751448 -0.135254
1.022759 1.739652 -0.142571
0.839056 1.758554 -0.178222
0.828077 1.728767 0.236665
0.843978 1.755602 -0.208219
0.835972 1.738663 0.018713
0.939146 1.746628 0.007614
0.849195 1.735694 0.163733
1.044958 1.731368 0.032440
0.956069 1.748904 -0.118347
0.960120 1.751882 -0.130331
0.961992 1.748061 -0.174339
0.865155 1.747411 -0.049197
0.969149 1.737936 0.027643
1.080085 1.742334 -0.102477
1.081076 1.740237 -0.086482
0.890281 1.756358 -0.140119
1.081959 1.738499 -0.143486
0.894268 1.758490 -0.183105
0.880301 1.726700 0.238772
0.889188 1.737606 0.017823
0.900245 1.758519 -0.213093
0.994339 1.744540 0.006705
0.902373 1.731626 0.163830
1.012248 1.746812 -0.120260
1.017317 1.750777 -0.133240
1.018163 1.745978 -0.177253
0.920402 1.748327 -0.051086
1.025364 1.736826 0.027729
0.941282 1.745373 -0.143058
0.948417 1.755450 -0.187015
0.934544 1.725606 0.239870
0.944404 1.736523 0.015920
1.049472 1.739462 0.005771
0.954316 1.751490 -0.218017
0.961749 1.737438 0.164952
1.061168 1.731868 -0.121238
1.075493 1.748661 -0.136168
1.062921 1.723121 -0.178263
0.977612 1.747219 -0.053993
1.000557 1.748238 -0.146957
1.001468 1.747442 -0.190958
1.001641 1.736404 0.015008
1.031682 1.739176 -0.055944
1.058765 1.748139 -0.151884
1.054662 1.725382 0.013038
1.091908 1.739027 -0.058880
1.116898 1.744046 -0.155841
1.115432 1.726473 -0.231901
-0.929348 1.750467 0.447898
-0.916530 1.759392 0.334061
-0.875110 1.748556 0.444289
-0.878340 1.761643 0.183358
-0.863285 1.756479 0.330439
-0.943374 1.745892 0.496814
-0.827577 1.761317 0.105739
-0.827119 1.762690 0.183760
-0.822883 1.748638 0.441691
-0.812058 1.755550 0.328826
-0.899377 1.759044 0.233241
-0.899030 1.756294 0.327227
-0.806660 1.771281 -0.013022
-0.892154 1.746981 0.493213
-0.787292 1.775614 -0.052836
-0.779368 1.764353 0.107143
-0.773871 1.757758 0.183136
-0.771661 1.748716 0.440095
-0.855286 1.765114 0.104624
-0.761822 1.753633 0.326208
-0.848154 1.759106 0.232638
-0.847793 1.756383 0.323624
-0.839924 1.746078 0.489611
-0.754430 1.768309 -0.009633
-0.743513 1.776292 -0.132487
-0.741589 1.776199 -0.120471
-0.916429 1.761441 0.284191
-0.826675 1.771686 0.035899
-0.736055 1.772650 -0.050452
-0.728124 1.758413 0.107505
-0.906223 1.752402 0.543212
-0.721629 1.753820 0.183524
-0.720424 1.745808 0.437484
-0.804048 1.764177 0.104021
-0.709563 1.745729 0.323565
-0.802991 1.775351 -0.044888
-0.796547 1.753479 0.320006
-0.795910 1.756184 0.231028
-0.884554 1.759195 0.320423
-0.790703 1.747174 0.486012
-0.705206 1.769343 -0.007225
-0.693278 1.774320 -0.129094
-0.690354 1.772222 -0.116086
-0.866203 1.763523 0.281601
-0.775436 1.770742 0.036301
-0.685825 1.770681 -0.047057
-0.682929 1.767451 0.108951
-0.852964 1.745536 0.536574
-0.676286 1.738712 0.584799
-0.673407 1.754879 0.183930
-0.670187 1.743904 0.434883
-0.755822 1.766238 0.103427
-0.665371 1.752791 0.322989
-0.755494 1.773695 -0.081521
-0.756299 1.776913 -0.109503
-0.841663 1.770129 0.081837
-0.750740 1.769404 -0.043515
-0.746309 1.752569 0.317406
-0.745679 1.754256 0.230419
-0.833307 1.759299 0.315830
-0.739452 1.742290 0.481388
-0.657992 1.772380 -0.004809
-0.829760 1.768977 0.102925
-0.644045 1.773351 -0.125692
-0.814962 1.759615 0.278978
-0.643136 1.774248 -0.112676
-0.726210 1.770791 0.037703
-0.719088 1.741541 0.580557
-0.639614 1.775715 -0.044629
-0.630058 1.736826 0.580173
-0.803738 1.745646 0.531971
-0.633689 1.764516 0.109339
-0.625189 1.755934 0.185345
-0.623985 1.746980 0.434298
-0.885237 1.754955 0.329446
-0.705575 1.762311 0.102809
-0.618141 1.750877 0.321373
-0.706258 1.774742 -0.080106
-0.707062 1.777959 -0.108088
-0.790420 1.767200 0.081227
-0.703519 1.772447 -0.042100
-0.878030 1.759157 0.304536
-0.698069 1.752668 0.313807
-0.697457 1.756327 0.229836
-0.782049 1.755411 0.311214
-0.691229 1.741388 0.478782
-0.607745 1.766431 -0.002432
-0.779517 1.768055 0.101325
-0.858645 1.760581 0.126692
-0.596825 1.772376 -0.121298
-0.763713 1.754712 0.276357
-0.767404 1.774205 -0.043534
-0.767471 1.775133 -0.034527
-0.592897 1.770280 -0.108280
-0.766100 1.777525 -0.084499
-0.675968 1.765850 0.039083
-0.671857 1.742664 0.574963
-0.756514 1.744759 0.527352
-0.590370 1.770765 -0.042250
-0.583833 1.734938 0.576554
-0.586466 1.764573 0.110744
-0.578969 1.757001 0.185751
-0.838027 1.759040 0.326860
-0.575752 1.743077 0.432682
-0.660368 1.768367 0.103240
-0.569898 1.746970 0.319757
-0.658831 1.778001 -0.105682
-0.658031 1.775784 -0.077691
-0.743200 1.772264 0.080659
-0.653867 1.758745 0.312231
-0.826772 1.758276 0.298944
-0.654279 1.771502 -0.040692
-0.652256 1.760389 0.230252
-0.732797 1.753522 0.306607
-0.645022 1.742477 0.477184
-0.561526 1.767477 -0.000023
-0.729264 1.764140 0.099710
-0.810417 1.762657 0.125103
-0.811180 1.765912 0.092121
-0.716491 1.755795 0.274761
-0.714673 1.744483 0.571704
-0.551610 1.778415 -0.118855
-0.718161 1.772267 -0.043140
-0.717217 1.773205 -0.035123
-0.547677 1.773322 -0.105861
-0.719875 1.784584 -0.085056
-0.708287 1.742870 0.523741
-0.629747 1.769910 0.039511
-0.623597 1.736806 0.568329
-0.539625 1.735041 0.573944
-0.543138 1.769815 -0.039845
-0.539225 1.760646 0.111125
-0.785757 1.750163 0.322218
-0.532754 1.758064 0.187166
-0.528532 1.742167 0.432091
-0.786141 1.771916 -0.032631
-0.610104 1.760453 0.102608
-0.783305 1.770733 -0.008615
-0.526709 1.753039 0.320188
-0.693960 1.767335 0.081034
-0.611598 1.780053 -0.104259
-0.609788 1.773841 -0.076292
-0.779865 1.772182 -0.065579
-0.777518 1.758395 0.293353
-0.606037 1.768561 -0.039300
-0.603603 1.750854 0.309600
-0.603001 1.754484 0.228630
-0.686578 1.757613 0.304032
-0.600829 1.748566 0.475618
-0.765452 1.744335 0.561357
-0.684048 1.772213 0.098160
-0.515305 1.769528 0.002402
-0.762177 1.763747 0.122514
-0.760916 1.764013 0.088524
-0.671290 1.760869 0.274188
-0.667431 1.744621 0.565109
-0.503361 1.771464 -0.115483
-0.670986 1.776273 -0.035704
-0.671944 1.780323 -0.042680
-0.669614 1.778655 -0.084677
-0.501451 1.773365 -0.102450
-0.663079 1.746977 0.520163
-0.578380 1.737919 0.564734
-0.581505 1.764976 0.040891
-0.496422 1.737147 0.571348
-0.496905 1.767869 -0.037449
-0.494009 1.762709 0.112546
-0.739532 1.752264 0.318625
-0.486533 1.757134 0.188573
-0.736887 1.770998 -0.034224
-0.732375 1.744338 0.568639
-0.484345 1.748246 0.432538
-0.483514 1.757114 0.320610
-0.733046 1.768818 -0.010207
-0.562861 1.759534 0.102016
-0.646727 1.768412 0.080449
-0.562341 1.772112 -0.101891
-0.561543 1.768898 -0.073908
-0.558368 1.748955 0.306984
-0.730618 1.773253 -0.066154
-0.726242 1.753525 0.287747
-0.559797 1.768629 -0.038892
-0.557790 1.756558 0.229046
-0.637308 1.751737 0.299411
-0.551566 1.739691 0.471981
-0.716187 1.743492 0.552769
-0.633778 1.764310 0.096530
-0.468059 1.762591 0.004772
-0.711921 1.758840 0.120901
-0.710651 1.760113 0.085920
-0.622032 1.754978 0.271569
-0.619172 1.740767 0.558499
-0.621676 1.771402 -0.042316
-0.623750 1.777340 -0.035285
-0.456118 1.764509 -0.111111
-0.617866 1.746084 0.517551
-0.623384 1.781718 -0.084249
-0.535183 1.742024 0.562154
-0.453209 1.736258 0.568736
-0.453201 1.764413 -0.098084
-0.535282 1.767040 0.042320
-0.452695 1.772921 -0.035006
-0.692300 1.751366 0.316024
-0.445743 1.753796 0.112914
-0.687158 1.745459 0.564038
-0.440291 1.752218 0.188957
-0.689639 1.771080 -0.035817
-0.438116 1.744346 0.431931
-0.684793 1.767904 -0.011799
-0.437263 1.750219 0.318978
-0.598474 1.763498 0.079834
-0.516632 1.764615 0.101473
-0.517113 1.775171 -0.100460
-0.682361 1.772338 -0.067746
-0.675957 1.745660 0.282117
-0.516316 1.771958 -0.072477
-0.514156 1.754048 0.305424
-0.513563 1.768693 -0.037476
-0.512575 1.757637 0.229462
-0.591074 1.751840 0.296820
-0.506334 1.735804 0.469359
-0.667929 1.742644 0.545182
-0.586535 1.766400 0.094965
-0.420811 1.757658 0.007168
-0.666696 1.761924 0.119319
-0.663401 1.764214 0.082364
-0.577823 1.757062 0.270980
-0.574969 1.746881 0.554943
-0.575483 1.770427 -0.035913
-0.572641 1.745203 0.513948
-0.575442 1.773472 -0.041888
-0.412910 1.771561 -0.108654
-0.574123 1.774789 -0.082868
-0.411011 1.737364 0.567138
-0.488925 1.736168 0.556529
-0.409984 1.767467 -0.095659
-0.490045 1.765117 0.042715
-0.407460 1.769985 -0.032610
-0.647077 1.752467 0.313429
-0.401521 1.753869 0.114326
-0.639895 1.737609 0.557390
-0.642383 1.773174 -0.038386
-0.395065 1.750297 0.190364
-0.639565 1.770980 -0.012377
-0.394034 1.748322 0.317367
-0.391856 1.735469 0.429293
-0.553250 1.764573 0.080249
-0.471393 1.760697 0.101856
-0.636112 1.773422 -0.069331
-0.633765 1.757750 0.279588
-0.469063 1.765023 -0.070100
-0.468849 1.766239 -0.098090
-0.468924 1.753151 0.303833
-0.468318 1.766770 -0.037077
-0.545837 1.753953 0.293246
-0.466335 1.754732 0.228864
-0.462134 1.738901 0.468793
-0.621682 1.741789 0.538585
-0.541297 1.767493 0.093382
-0.378611 1.762717 0.009606
-0.619449 1.760020 0.117723
-0.533602 1.758159 0.269390
-0.617160 1.768310 0.079808
-0.528690 1.738042 0.547292
-0.526399 1.740330 0.510329
-0.530205 1.772547 -0.041485
-0.527221 1.765510 -0.035515
-0.446722 1.738282 0.553939
-0.369850 1.745455 0.567593
-0.528883 1.777869 -0.083433
-0.366655 1.763622 -0.105281
-0.364748 1.764525 -0.092255
-0.443802 1.761194 0.044113
-0.600832 1.750584 0.309828
-0.361204 1.762057 -0.030236
-0.359310 1.757949 0.114760
-0.594664 1.735740 0.552781
-0.597141 1.775261 -0.039964
-0.591293 1.765078 -0.013992
-0.350854 1.753378 0.191810
-0.350831 1.751413 0.317804
-0.348670 1.739556 0.430739
-0.508018 1.766660 0.079680
-0.426140 1.755792 0.101240
-0.590873 1.778507 -0.070884
-0.584476 1.750891 0.273976
-0.425700 1.753254 0.302239
-0.427650 1.778304 -0.097608
-0.424830 1.765093 -0.068686
-0.423082 1.766843 -0.035653
-0.421094 1.750831 0.228257
-0.498568 1.748079 0.289633
-0.418931 1.740002 0.468209
-0.574423 1.739941 0.531999
-0.496053 1.767590 0.091799
-0.574214 1.761114 0.116141
-0.333370 1.758790 0.012009
-0.487354 1.753267 0.267778
-0.570900 1.768422 0.076227
-0.484477 1.742167 0.543736
-0.483188 1.741446 0.507740
-0.482941 1.766633 -0.041096
-0.403494 1.736411 0.550333
-0.485004 1.775594 -0.037043
-0.481617 1.771953 -0.083044
-0.323440 1.768686 -0.102825
-0.399571 1.759271 0.045516
-0.320517 1.765593 -0.089820
-0.556599 1.748694 0.307216
-0.317989 1.765125 -0.027795
-0.553477 1.740848 0.550200
-0.316090 1.758031 0.116178
-0.549877 1.773359 -0.041549
-0.546048 1.767171 -0.015561
-0.307631 1.750464 0.193207
-0.308621 1.750508 0.318207
-0.461754 1.758759 0.079049
-0.305468 1.740656 0.431169
-0.543608 1.773599 -0.071491
-0.383943 1.764873 0.101715
-0.540241 1.753007 0.270400
-0.381464 1.751365 0.300646
-0.380594 1.765168 -0.067264
-0.381391 1.770378 -0.095232
-0.455336 1.748190 0.287040
-0.378901 1.754910 0.229693
-0.378841 1.766927 -0.035230
-0.375714 1.739116 0.466616
-0.530193 1.743081 0.526433
-0.448776 1.759701 0.090180
-0.528969 1.759215 0.114543
-0.290157 1.761863 0.014455
-0.525644 1.766530 0.073630
-0.442106 1.748378 0.266166
-0.439966 1.739567 0.505134
-0.440241 1.741307 0.539148
-0.437725 1.764687 -0.036685
-0.361301 1.740526 0.548774
-0.438714 1.770713 -0.040646
-0.438389 1.778038 -0.083588
-0.280216 1.770756 -0.100385
-0.277285 1.761658 -0.086427
-0.355337 1.760360 0.045951
-0.512381 1.750799 0.305645
-0.508205 1.732006 0.543551
-0.275776 1.767196 -0.025363
-0.272875 1.760117 0.117621
-0.502599 1.767464 -0.043156
-0.501816 1.770258 -0.016124
-0.267435 1.756604 0.318663
-0.418534 1.760845 0.079477
-0.263409 1.750556 0.194645
-0.496325 1.766704 -0.073105
-0.339695 1.761975 0.101121
-0.496005 1.756127 0.266839
-0.338235 1.751478 0.299067
-0.337149 1.769458 -0.093810
-0.336359 1.766248 -0.065825
-0.412120 1.752298 0.285487
-0.334603 1.766009 -0.033808
-0.334670 1.755016 0.229125
-0.332498 1.737228 0.466024
-0.482902 1.735253 0.518815
-0.485744 1.763314 0.112982
-0.405543 1.762803 0.088619
-0.247949 1.764939 0.016899
-0.398882 1.747481 0.265575
-0.479379 1.764645 0.071050
-0.397776 1.742674 0.504566
-0.398035 1.743430 0.536572
-0.393453 1.764805 -0.040258
-0.393482 1.766781 -0.037242
-0.393126 1.772129 -0.083200
-0.236991 1.769826 -0.096961
-0.470172 1.753904 0.304070
-0.313135 1.766441 0.047414
-0.466011 1.735119 0.541978
-0.234075 1.768734 -0.083940
-0.232552 1.770283 -0.023907
-0.230654 1.759207 0.119036
-0.459354 1.771568 -0.045713
-0.456558 1.769363 -0.017701
-0.373280 1.757949 0.078894
-0.221202 1.752649 0.196087
-0.452079 1.770802 -0.074651
-0.451765 1.758253 0.263278
-0.296475 1.765070 0.101573
-0.295007 1.749589 0.298481
-0.294145 1.771328 -0.064368
-0.292895 1.765544 -0.092403
-0.368881 1.751420 0.282901
-0.292390 1.773097 -0.033334
-0.291458 1.755110 0.230554
-0.440484 1.758426 0.111377
-0.361297 1.760906 0.088035
-0.437666 1.737398 0.514268
-0.208347 1.741715 0.722175
-0.203705 1.760027 0.019309
-0.356681 1.753584 0.265037
-0.436139 1.767756 0.068489
-0.354540 1.737805 0.501952
-0.354818 1.746569 0.533021
-0.349198 1.763905 -0.040831
-0.349228 1.765882 -0.037816
-0.424894 1.744040 0.300428
-0.347863 1.768223 -0.082787
-0.194771 1.771905 -0.094517
-0.423778 1.733260 0.537372
-0.269909 1.766531 0.048846
-0.190824 1.762818 -0.081546
-0.189323 1.769368 -0.021475
-0.188449 1.763302 0.120498
-0.413069 1.764680 -0.047319
-0.411281 1.762474 -0.019317
-0.331064 1.761042 0.079336
-0.408824 1.769906 -0.076239
-0.254248 1.767177 0.101014
-0.254834 1.758688 0.298957
-0.405473 1.749400 0.258658
-0.250682 1.771628 -0.090931
-0.326670 1.756535 0.281360
-0.249898 1.769420 -0.062938
-0.249147 1.772195 -0.032906
-0.249241 1.755214 0.230981
-0.319060 1.762017 0.086464
-0.396236 1.757539 0.109802
-0.394433 1.738544 0.509701
-0.314453 1.750694 0.264435
-0.160801 1.689005 0.703258
-0.161510 1.767113 0.021798
-0.389847 1.758883 0.065872
-0.160754 1.728090 0.558548
-0.248059 1.833007 0.790644
-0.307991 1.770994 -0.040365
-0.306992 1.767982 -0.038378
-0.382565 1.732388 0.534772
-0.383690 1.749151 0.298874
-0.305636 1.774321 -0.083318
-0.155992 1.716998 0.839536
-0.152554 1.776997 -0.093042
-0.226654 1.760636 0.049240
-0.148611 1.766903 -0.079078
-0.146078 1.766467 -0.020050
-0.369815 1.764788 -0.048892
-0.367026 1.760579 -0.019895
-0.287824 1.761152 0.078771
-0.364557 1.768016 -0.077817
-0.211003 1.763285 0.101426
-0.363262 1.757521 0.256140
-0.132579 1.726116 0.432819
-0.207669 1.772519 -0.062482
-0.207445 1.774729 -0.090464
-0.283441 1.757659 0.279805
-0.207024 1.755323 0.231416
-0.205913 1.772291 -0.031463
-0.354007 1.760650 0.108246
-0.275815 1.763136 0.084910
-0.353260 1.748664 0.508191
-0.271216 1.747812 0.263852
-0.122599 1.732196 0.559982
-0.119273 1.762208 0.024202
-0.346598 1.761004 0.063319
-0.121881 1.725011 0.718948
-0.342375 1.735510 0.533199
-0.188859 1.691625 0.734154
-0.264742 1.771102 -0.040925
-0.340446 1.747282 0.296292
-0.263753 1.771090 -0.038915
-0.262377 1.769422 -0.082918
-0.115797 1.714143 0.837939
-0.109319 1.776091 -0.090596
-0.187675 1.719976 0.821393
-0.184437 1.762734 0.050693
-0.106406 1.772995 -0.076588
-0.103859 1.767561 -0.017598
-0.263814 1.790771 0.807305
-0.326565 1.766901 -0.050442
-0.099476 1.732078 0.317207
-0.324804 1.769688 -0.021400
-0.245583 1.757257 0.079174
-0.320297 1.769131 -0.079363
-0.169799 1.768391 0.101894
-0.320024 1.758652 0.253585
-0.091364 1.721231 0.434221
-0.165212 1.774825 -0.089025
-0.165452 1.776616 -0.061011
-0.240195 1.756796 0.277242
-0.163690 1.776397 -0.030992
-0.310756 1.758771 0.106668
-0.233579 1.763249 0.084345
-0.231041 1.756917 0.264337
-0.081423 1.734317 0.561438
-0.304361 1.763121 0.061764
-0.079700 1.724141 0.720393
-0.152219 1.734193 0.538853
-0.077625 1.713279 0.837343
-0.299239 1.749396 0.295729
-0.149869 1.718671 0.744777
-0.220470 1.764213 -0.040522
-0.220506 1.772204 -0.039461
-0.219122 1.769535 -0.083470
-0.221426 1.726906 0.808250
-0.147503 1.721114 0.820827
-0.142223 1.765838 0.052161
-0.210951 1.700239 0.768152
-0.283298 1.767026 -0.052999
-0.058259 1.731201 0.317645
-0.282554 1.769805 -0.022967
-0.203355 1.760374 0.078637
-0.277026 1.766250 -0.080943
-0.051331 1.747067 0.203829
-0.275753 1.754800 0.250009
-0.123216 1.775719 -0.059572
-0.049183 1.724347 0.436702
-0.121978 1.778937 -0.088536
-0.120409 1.766513 -0.030609
-0.122461 1.732826 0.466155
-0.268529 1.760885 0.106119
-0.191335 1.761369 0.083772
-0.042219 1.731451 0.560842
-0.262117 1.766249 0.059223
-0.112054 1.740318 0.539330
-0.038536 1.724265 0.722842
-0.038460 1.713415 0.837772
-0.259037 1.754520 0.294184
-0.259095 1.727876 0.787019
-0.109707 1.719796 0.746217
-0.179246 1.769325 -0.041050
-0.178241 1.767321 -0.040054
-0.107301 1.719271 0.818246
-0.175864 1.766646 -0.083038
-0.180233 1.728062 0.805695
-0.172888 1.716323 0.773681
-0.021632 1.775733 0.126360
-0.018147 1.748303 0.321211
-0.240038 1.767150 -0.054549
-0.238281 1.766932 -0.024530
-0.161136 1.763488 0.079108
-0.234783 1.770369 -0.082471
-0.085832 1.736218 0.293562
-0.009994 1.719194 0.204075
-0.233534 1.760938 0.247497
-0.009067 1.736448 0.441233
-0.079740 1.778045 -0.087090
-0.080126 1.710998 0.461449
-0.225248 1.752018 0.104504
-0.150119 1.768496 0.082264
-0.002031 1.731587 0.561285
-0.147464 1.730463 0.495039
0.006428 1.751519 0.031481
-0.218862 1.765379 0.057670
-0.000325 1.715538 0.840210
-0.070836 1.738467 0.537763
-0.142630 1.733323 0.516114
0.002649 1.721403 0.724276
-0.216876 1.728049 0.782466
-0.068507 1.716944 0.745646
-0.135993 1.767443 -0.040603
-0.067123 1.719419 0.817686
-0.138966 1.719253 0.799072
-0.134999 1.770445 -0.040569
-0.133623 1.769766 -0.083563
-0.133744 1.720448 0.775135
0.020865 1.753879 -0.011345
0.019796 1.729868 0.125478
-0.198629 1.676094 0.785265
0.022066 1.746434 0.321642
-0.197798 1.774282 -0.057049
-0.197043 1.770056 -0.026070
-0.192534 1.775501 -0.084986
-0.043550 1.725366 0.291945
0.031166 1.730309 0.206616
0.033153 1.731583 0.442668
-0.039057 1.733813 0.233053
-0.040120 1.741069 0.470115
-0.184044 1.762146 0.103020
0.037170 1.727724 0.561695
-0.106164 1.713627 0.491361
0.037856 1.712688 0.839617
-0.178480 1.727085 0.522849
-0.176602 1.762512 0.056098
0.051277 1.842659 0.032645
-0.029629 1.737614 0.537211
0.043857 1.715553 0.724696
-0.100404 1.733483 0.513575
-0.028322 1.715088 0.746078
-0.173643 1.726232 0.777917
-0.026920 1.717587 0.815118
-0.093744 1.767570 -0.041144
-0.093760 1.771569 -0.041114
-0.097774 1.719412 0.797523
-0.090361 1.768894 -0.084101
0.059664 1.757505 -0.079890
0.060550 1.757405 -0.065880
-0.015458 1.747192 0.055398
-0.093580 1.722588 0.775591
0.061882 1.758989 0.128163
-0.164771 1.718094 0.800953
0.066725 1.849046 -0.013142
0.063263 1.747566 0.323113
-0.155534 1.772413 -0.058610
-0.153779 1.769192 -0.027612
-0.004461 1.748478 0.294551
-0.150279 1.776632 -0.086523
-0.000971 1.790893 0.102885
0.073267 1.750420 0.211237
0.001136 1.736935 0.234524
-0.071119 1.728379 0.267840
0.000065 1.741200 0.471564
0.075298 1.737702 0.447189
-0.142831 1.767273 0.102503
0.077404 1.721884 0.560109
-0.067103 1.734719 0.496951
0.077017 1.711832 0.841056
-0.063050 1.734449 0.261974
-0.143719 1.794075 0.539731
-0.135954 1.730508 0.484335
0.088942 1.733750 0.036280
0.010599 1.732770 0.535626
-0.133354 1.766659 0.053598
-0.059190 1.733637 0.512032
0.011850 1.714228 0.747523
0.086021 1.714692 0.728170
0.012259 1.716741 0.814552
-0.130358 1.718442 0.770331
-0.056556 1.717591 0.793967
-0.054395 1.720737 0.775013
0.026395 1.831317 0.057480
0.102856 1.768636 -0.078321
-0.126601 1.720244 0.799388
0.102816 1.747518 -0.062471
0.103102 1.758120 0.129625
0.105321 1.756133 -0.008376
0.103454 1.748701 0.324578
-0.112249 1.769560 -0.061159
-0.111490 1.761330 -0.029210
0.036746 1.749618 0.295024
0.040508 1.736035 0.101951
-0.105979 1.769775 -0.088091
0.115460 1.751544 0.214727
0.045796 1.758188 -0.053842
-0.029996 1.748506 0.269447
0.043297 1.747062 0.237074
0.041278 1.738346 0.472009
0.047082 1.752403 -0.082872
0.116551 1.726853 0.447584
0.051148 1.867054 -0.031993
0.116571 1.722017 0.562560
-0.026901 1.734866 0.496402
0.116177 1.710981 0.842502
-0.099013 1.718393 0.517657
-0.022803 1.728589 0.261382
-0.021343 1.759915 0.079612
0.049816 1.727920 0.535037
-0.091992 1.728102 0.285787
0.133041 1.761885 0.038987
-0.093779 1.739657 0.483870
-0.018007 1.736782 0.512518
0.051412 1.717886 0.816007
0.051999 1.716367 0.749997
0.127163 1.715824 0.732654
-0.016362 1.716756 0.792414
-0.016173 1.713902 0.772394
-0.088158 1.720616 0.767816
-0.086348 1.711428 0.794771
0.144125 1.758757 -0.075918
0.067016 1.741443 0.058289
0.143325 1.755253 0.131067
0.145014 1.755651 -0.060928
0.147513 1.764269 -0.006833
0.144677 1.745851 0.325033
0.005825 1.758011 0.078904
0.077948 1.751763 0.295509
0.081624 1.760174 0.102595
0.157684 1.747681 0.217188
0.010226 1.747650 0.268896
0.084482 1.750192 0.239568
0.093587 1.873399 -0.059474
-0.062402 1.731569 0.235140
0.082482 1.735491 0.473461
0.155727 1.724155 0.565031
0.095836 1.884646 -0.092372
0.088836 1.752133 -0.026391
0.158727 1.727991 0.451083
0.012265 1.738000 0.497869
0.154337 1.709131 0.843934
0.018683 1.805054 0.079391
0.017307 1.747711 0.263976
-0.058914 1.734511 0.521226
0.090974 1.734068 0.536555
-0.051741 1.723251 0.284204
0.021207 1.734939 0.510950
0.175252 1.763019 0.041484
-0.052546 1.737823 0.481319
0.091577 1.719047 0.816480
0.092208 1.709526 0.750414
0.168345 1.711977 0.735109
0.030996 1.765970 -0.041763
0.023960 1.719043 0.774891
0.023846 1.714934 0.789861
0.032061 1.754981 -0.042830
-0.048179 1.712579 0.794211
0.035409 1.764295 -0.084728
-0.045901 1.715819 0.762258
0.186331 1.762889 -0.073397
0.109196 1.753588 0.058862
0.188229 1.760795 -0.059389
0.186534 1.758403 0.132592
0.184891 1.741996 0.326476
0.189753 1.760403 -0.004369
0.047998 1.771154 0.079480
0.120179 1.748918 0.295978
0.122858 1.758319 0.103058
0.199887 1.747825 0.219683
0.052435 1.751807 0.268409
0.195916 1.722309 0.566492
0.126689 1.751339 0.241066
0.123682 1.733642 0.474927
0.129319 1.748459 -0.051950
0.193482 1.709283 0.846398
0.130566 1.753679 -0.081901
-0.020177 1.735726 0.233649
0.199887 1.729124 0.455576
0.132024 1.766289 -0.026791
0.053522 1.729169 0.496280
-0.016988 1.743717 0.097732
-0.019719 1.734661 0.520672
0.060162 1.754210 0.077498
0.058563 1.740865 0.263401
0.131197 1.729232 0.535990
-0.012579 1.733386 0.284724
0.216509 1.754155 0.043908
0.062435 1.732109 0.509406
-0.007601 1.768108 0.048011
0.131779 1.714221 0.815917
-0.010356 1.742984 0.480836
0.133351 1.711673 0.753912
0.063180 1.712214 0.773296
-0.009993 1.711742 0.792642
0.077819 1.870174 -0.046484
0.210523 1.708133 0.738583
0.065009 1.718099 0.790361
0.080760 1.893213 -0.050287
0.081313 1.856516 -0.092545
-0.004690 1.715000 0.759724
0.152381 1.762736 0.060430
0.226771 1.752546 0.134026
0.230549 1.768041 -0.071841
0.231426 1.766937 -0.056837
0.226100 1.740150 0.327951
0.231981 1.760550 -0.002869
0.088329 1.748295 0.079784
0.161408 1.747082 0.295448
0.165083 1.759474 0.103561
0.241116 1.741970 0.222133
0.235119 1.718472 0.566933
0.231638 1.706436 0.848835
0.093686 1.747973 0.266861
0.164862 1.733790 0.477413
0.168894 1.752491 0.242570
0.172491 1.763613 -0.051337
0.020972 1.752879 0.233246
0.174734 1.772844 -0.082250
0.093697 1.731317 0.497764
0.174268 1.765440 -0.026301
0.024034 1.789865 0.097534
0.019504 1.730823 0.519097
0.242089 1.726282 0.458060
0.099735 1.748010 0.264932
0.102385 1.758367 0.077019
0.171397 1.727394 0.536452
0.028594 1.742534 0.285265
0.170930 1.715381 0.817389
0.103660 1.730285 0.507875
0.258735 1.752300 0.046398
0.037126 1.886291 0.045369
0.173499 1.711821 0.757390
0.030906 1.737168 0.477271
0.028190 1.709903 0.792073
0.103364 1.710380 0.773756
0.105194 1.717273 0.789827
0.114549 1.751255 -0.040899
0.252656 1.709280 0.744098
0.117527 1.766295 -0.044759
0.118957 1.755593 -0.085821
0.036521 1.714187 0.757198
0.193614 1.759882 0.061897
0.271801 1.763188 -0.070382
0.268999 1.750703 0.135518
0.273672 1.764088 -0.055353
0.267284 1.741302 0.330452
0.273245 1.752699 -0.001429
0.058553 1.835217 -0.073761
0.058325 1.814959 -0.037904
0.131528 1.758459 0.079362
0.202609 1.747237 0.296939
0.207307 1.760634 0.104069
0.270806 1.703605 0.850290
0.276277 1.719626 0.570438
0.062125 1.760378 -0.095252
0.284303 1.744122 0.225667
0.206042 1.733945 0.479906
0.135929 1.745141 0.266338
0.215698 1.772780 -0.051762
0.210141 1.744645 0.244007
0.063169 1.760041 0.232788
0.059700 1.731987 0.518574
0.134891 1.730474 0.499245
0.217992 1.771003 -0.081749
0.216533 1.760597 -0.025833
0.065473 1.749026 0.095724
0.284250 1.727431 0.462577
0.140980 1.742167 0.265378
0.144601 1.763530 0.076552
0.212590 1.727566 0.536946
0.069779 1.748688 0.285790
0.211105 1.712550 0.818852
0.067387 1.708080 0.790521
0.214630 1.713972 0.761899
0.076928 1.765439 0.043970
0.300988 1.745451 0.048862
0.145876 1.729462 0.507370
0.143481 1.714522 0.778263
0.074157 1.734358 0.474757
0.146394 1.714457 0.789298
0.293808 1.707436 0.748586
0.158765 1.762430 -0.042299
0.159782 1.765456 -0.045266
0.162165 1.767764 -0.087225
0.315033 1.762341 -0.067866
0.078723 1.714377 0.755697
0.236862 1.758048 0.062402
0.312225 1.749871 0.137036
0.308502 1.737467 0.331926
0.315922 1.757230 -0.051888
0.316454 1.756862 0.000121
0.099036 1.781352 -0.072669
0.243843 1.744412 0.296416
0.097875 1.745084 -0.035933
0.173765 1.757619 0.079858
0.310929 1.704762 0.854788
0.317442 1.720794 0.572948
0.251556 1.758808 0.104588
0.111917 1.882652 -0.106813
0.325548 1.735278 0.228110
0.177157 1.744310 0.265825
0.248235 1.732109 0.482403
0.099887 1.733149 0.519058
0.252346 1.743802 0.246510
0.257971 1.764934 -0.050307
0.175079 1.729633 0.500721
0.259748 1.765764 -0.025278
0.261232 1.772167 -0.081222
0.106441 1.756227 0.230270
0.107686 1.755190 0.095266
0.326446 1.723593 0.466067
0.182188 1.743331 0.265878
0.187877 1.759709 0.075041
0.254758 1.729733 0.539472
0.110990 1.750854 0.285292
0.251263 1.712725 0.820342
0.106551 1.709247 0.790996
0.182645 1.713688 0.779729
0.255815 1.709143 0.764368
0.345176 1.751617 0.051442
0.188072 1.730639 0.507885
0.121201 1.765624 0.041494
0.117384 1.734547 0.473272
0.187564 1.715639 0.789803
0.200998 1.765597 -0.042772
0.335985 1.701603 0.753068
0.202046 1.764629 -0.046766
0.204439 1.763928 -0.087746
0.357281 1.757496 -0.065382
0.349714 1.734638 0.333413
0.279100 1.755209 0.063895
0.354461 1.746039 0.138527
0.120906 1.716565 0.755216
0.358175 1.751386 -0.049410
0.359685 1.755024 0.002637
0.286042 1.745582 0.297937
0.141359 1.767514 -0.073263
0.350077 1.701928 0.858254
0.140100 1.754261 -0.038366
0.215017 1.752780 0.080322
0.359541 1.728950 0.578520
0.292799 1.754975 0.105064
0.146697 1.754717 -0.099290
0.368731 1.737442 0.231656
0.140127 1.727330 0.517500
0.219395 1.742490 0.265323
0.293572 1.739967 0.247988
0.290407 1.732272 0.485920
0.216266 1.729802 0.502221
0.301216 1.763098 -0.048794
0.302508 1.763322 -0.079779
0.149920 1.758366 0.093792
0.148701 1.752407 0.228749
0.303012 1.761936 -0.024777
0.367653 1.716756 0.469532
0.224391 1.744496 0.267397
0.294992 1.722918 0.538920
0.230150 1.753883 0.074513
0.292415 1.712903 0.822849
0.152242 1.745026 0.284746
0.145724 1.708420 0.791464
0.222844 1.708869 0.780187
0.295990 1.705315 0.766838
0.387421 1.745780 0.053925
0.229287 1.728823 0.507374
0.163469 1.762800 0.039980
0.228770 1.711833 0.789280
0.159622 1.731737 0.471762
0.243263 1.762769 -0.043279
0.378108 1.701761 0.759593
0.245322 1.760805 -0.047268
0.247683 1.768111 -0.089194
0.391896 1.735812 0.335943
0.396651 1.748207 0.141063
0.321319 1.755376 0.065413
0.400524 1.755668 -0.063860
0.402381 1.756563 -0.047830
0.402929 1.752199 0.004154
0.164128 1.713770 0.753720
0.390180 1.704088 0.863769
0.398732 1.723119 0.580970
0.328282 1.740765 0.298425
0.257263 1.751958 0.079831
0.184619 1.770700 -0.075721
0.184333 1.763452 -0.040770
0.336047 1.752157 0.105578
0.180298 1.729495 0.519002
0.411916 1.738613 0.235201
0.190905 1.770915 -0.102646
0.330633 1.724446 0.487366
0.260639 1.738670 0.264802
0.257468 1.726976 0.503708
0.336768 1.741140 0.250529
0.344469 1.761276 -0.048273
0.345755 1.764506 -0.080240
0.192180 1.756548 0.092291
0.345269 1.758110 -0.024282
0.413754 1.726928 0.476173
0.191940 1.753598 0.227280
0.266625 1.741675 0.267896
0.336164 1.723092 0.541432
0.332573 1.711082 0.825336
0.193452 1.747203 0.284261
0.184908 1.705597 0.791923
0.273377 1.757067 0.074062
0.263013 1.706042 0.782664
0.338111 1.707480 0.772377
0.430621 1.747954 0.056477
0.270492 1.727006 0.507869
0.206736 1.762993 0.037506
0.271876 1.719007 0.793860
0.201798 1.736919 0.472311
0.285541 1.755939 -0.042806
0.421239 1.700930 0.766131
0.286605 1.753978 -0.047806
0.432147 1.726996 0.336391
0.438872 1.746387 0.142579
0.290956 1.765291 -0.089682
0.443766 1.753846 -0.062332
0.365548 1.755558 0.066962
0.445612 1.754735 -0.045302
0.447146 1.754385 0.005720
0.206340 1.711977 0.752226
0.431291 1.705259 0.869295
0.438953 1.716312 0.581434
0.369511 1.736949 0.298914
0.299515 1.748134 0.080327
0.227894 1.770892 -0.078193
0.227589 1.766645 -0.043222
0.378270 1.752340 0.106104
0.221487 1.730677 0.519516
0.456115 1.737794 0.238752
0.373785 1.726618 0.491920
0.297697 1.720158 0.504162
0.234182 1.771106 -0.105117
0.379956 1.743319 0.253081
0.303863 1.739865 0.264345
0.386731 1.755447 -0.046785
0.389011 1.760682 -0.078726
0.388523 1.757301 -0.024748
0.234435 1.753728 0.091789
0.456906 1.727099 0.481718
0.306876 1.733850 0.268344
0.378326 1.725276 0.543974
0.224993 1.714756 0.796480
0.234217 1.746789 0.225753
0.372772 1.705279 0.825804
0.314651 1.750248 0.073529
0.234732 1.738393 0.282709
0.304111 1.711204 0.788211
0.380240 1.707652 0.777909
0.474833 1.747131 0.060029
0.313652 1.731190 0.510434
0.248010 1.758176 0.035981
0.313085 1.714213 0.793344
0.478222 1.743178 0.342074
0.329778 1.761138 -0.044223
0.244052 1.731121 0.470794
0.465349 1.702104 0.773699
0.331837 1.761182 -0.049198
0.483102 1.744583 0.144126
0.334222 1.763478 -0.090157
0.489983 1.758045 -0.060723
0.406816 1.747739 0.067430
0.490834 1.756930 -0.043718
0.489393 1.749567 0.007224
0.470424 1.702433 0.873776
0.248537 1.711182 0.751745
0.482064 1.721490 0.587013
0.413708 1.739146 0.300485
0.342761 1.746321 0.080855
0.271185 1.768090 -0.080678
0.270857 1.765837 -0.044693
0.421509 1.750533 0.106636
0.261719 1.724867 0.518978
0.339843 1.724334 0.507719
0.498341 1.730971 0.242246
0.416962 1.725804 0.495461
0.276477 1.765292 -0.106633
0.422195 1.737505 0.254577
0.346123 1.734061 0.263837
0.429981 1.753637 -0.046252
0.432282 1.755870 -0.078212
0.264174 1.711944 0.796951
0.276713 1.748921 0.090282
0.413907 1.704460 0.830321
0.420525 1.722473 0.545490
0.500095 1.722283 0.486239
0.432789 1.753496 -0.024215
0.350093 1.733038 0.269881
0.275960 1.735574 0.283203
0.277489 1.741991 0.224259
0.358874 1.754449 0.073109
0.345276 1.709393 0.790719
0.422394 1.704836 0.782427
0.520050 1.747326 0.062605
0.354910 1.723399 0.508903
0.292272 1.758378 0.034532
0.520427 1.739369 0.344589
0.355240 1.714408 0.795878
0.373040 1.759332 -0.044693
0.526311 1.744779 0.145678
0.508470 1.700278 0.781242
0.288272 1.731331 0.470348
0.375108 1.759382 -0.050667
0.377503 1.760678 -0.091632
0.511526 1.702608 0.880305
0.536201 1.761249 -0.059116
0.452024 1.749930 0.070016
0.538037 1.763140 -0.042080
0.536606 1.753779 0.008851
0.525206 1.722681 0.591573
0.292663 1.717375 0.755340
0.454931 1.734334 0.301979
0.384038 1.737504 0.081321
0.313136 1.762030 -0.046190
0.314470 1.766293 -0.083150
0.302903 1.725053 0.520497
0.465745 1.749737 0.107193
0.382019 1.724523 0.510255
0.546463 1.741170 0.247924
0.460127 1.724988 0.500007
0.320750 1.768507 -0.110059
0.390300 1.740259 0.265435
0.466414 1.734701 0.257124
0.304356 1.708135 0.798433
0.474242 1.750836 -0.045706
0.456991 1.709641 0.836905
0.461716 1.718664 0.547994
0.476036 1.751692 -0.023676
0.477547 1.755080 -0.078641
0.318968 1.746112 0.089794
0.393276 1.737231 0.271455
0.544264 1.719471 0.491791
0.319162 1.738770 0.283768
0.386392 1.710566 0.796251
0.321691 1.748197 0.223854
0.401146 1.748645 0.072607
0.465513 1.705018 0.788983
0.566241 1.751532 0.065223
0.399082 1.725599 0.511479
0.563638 1.736578 0.346128
0.396418 1.711610 0.797386
0.336530 1.760593 0.032103
0.552625 1.702787 0.886838
0.552576 1.699457 0.789809
0.416333 1.752531 -0.045186
0.575476 1.754004 0.148364
0.330506 1.727537 0.469858
0.418395 1.753582 -0.051154
0.581444 1.759455 -0.057546
0.495260 1.747125 0.071552
0.422775 1.760892 -0.093057
0.581298 1.755330 -0.039570
0.581831 1.753988 0.010433
0.566401 1.716881 0.594072
0.335857 1.715590 0.755878
0.501090 1.741546 0.304615
0.430214 1.748718 0.081980
0.344084 1.725244 0.522021
0.357770 1.760495 -0.084640
0.357424 1.760245 -0.048643
0.509992 1.746947 0.107744
0.425188 1.724715 0.513809
0.589688 1.734364 0.251443
0.502320 1.720181 0.503522
0.509604 1.733891 0.260675
0.344520 1.707331 0.799941
0.498159 1.705846 0.839415
0.435506 1.743474 0.266033
0.364058 1.761709 -0.111555
0.521443 1.759057 -0.045051
0.505892 1.718875 0.550565
0.523765 1.760295 -0.078016
0.522263 1.754909 -0.023063
0.436501 1.734431 0.272991
0.589406 1.719663 0.498378
0.364187 1.753331 0.088413
0.427565 1.706766 0.798757
0.361408 1.734974 0.283281
0.364949 1.745411 0.222386
0.446388 1.749862 0.072193
0.506656 1.701202 0.794493
0.609487 1.744730 0.067743
0.444243 1.729811 0.514086
0.608823 1.735788 0.349710
0.439586 1.709822 0.799931
0.594753 1.699986 0.892372
0.379821 1.754802 0.030616
0.618724 1.747213 0.149885
