# .PCD v0.7 - Point Cloud Data file format
VERSION 0.7
FIELDS x y z
SIZE 4 4 4
TYPE F F F
COUNT 1 1 1
WIDTH 16
HEIGHT 1
VIEWPOINT 0 0 0 1
POINTS 16
DATA ascii
3.318759 -2.335696 0.919203
3.230940 -2.348656 1.275700
3.174188 -2.332304 1.228633
3.180634 -2.341637 1.335565
3.186340 -2.349098 1.214499
3.140414 -2.314549 0.999668
3.155846 -2.328911 1.111584
3.118059 -2.309187 0.883624
3.101991 -2.334338 1.283308
3.047328 -2.321831 1.224212
3.014545 -2.316524 1.188131
3.016067 -2.326736 1.284033
3.012002 -2.330229 1.480991
3.002709 -2.323339 1.168007
2.987181 -2.311227 1.075069
2.932394 -2.312461 1.232843
