# .PCD v0.7 - Point Cloud Data file format
VERSION 0.7
FIELDS x y z
SIZE 4 4 4
TYPE F F F
COUNT 1 1 1
WIDTH 764
HEIGHT 1
VIEWPOINT 0 0 0 1
POINTS 764
DATA ascii
0.579413 -2.314609 -0.235551
0.572614 -2.305856 -0.211375
0.529224 -2.288118 -0.069393
0.514399 -2.278488 -0.228394
0.509300 -2.273844 -0.205315
0.513664 -2.303433 -0.142109
0.466917 -2.257075 -0.066333
0.567126 -2.308924 -0.160713
0.568714 -2.312641 -0.202821
0.467263 -2.313938 0.042022
0.451293 -2.243545 -0.221219
0.450693 -2.267416 -0.136901
0.444752 -2.231767 -0.197944
0.440834 -2.287010 0.169529
0.406569 -2.226247 -0.062227
0.503932 -2.275865 -0.156615
0.503131 -2.271414 -0.197514
0.507548 -2.300048 -0.132270
0.414994 -2.354634 0.304220
0.407076 -2.282002 0.043162
0.390322 -2.206792 -0.213934
0.389780 -2.230584 -0.131613
0.385480 -2.199123 -0.191757
0.381149 -2.262078 0.169476
0.472042 -2.276214 -0.009990
0.472373 -2.311854 0.034979
0.551437 -2.306056 -0.172068
0.349822 -2.200709 -0.059207
0.440512 -2.232789 -0.152196
0.444916 -2.260004 -0.128933
0.441914 -2.238545 -0.193367
0.355949 -2.322594 0.300395
0.348055 -2.248144 0.043399
0.333029 -2.174330 -0.207704
0.329636 -2.173791 -0.185721
0.331632 -2.196970 -0.127362
0.327294 -2.284278 0.484260
0.322857 -2.232237 0.168611
0.411987 -2.242311 -0.008788
0.411993 -2.282862 0.034030
0.493572 -2.282003 -0.122129
0.490292 -2.270047 -0.111817
0.487719 -2.266938 -0.168788
0.391247 -2.281596 0.226888
0.384974 -2.224173 -0.126659
0.293766 -2.179256 -0.056277
0.381132 -2.202086 -0.148064
0.299567 -2.294801 0.296500
0.381058 -2.200749 -0.188044
0.292895 -2.228683 0.044278
0.467556 -2.279345 0.041678
0.472315 -2.312331 0.026765
0.287181 -2.381087 0.628913
0.278197 -2.149070 -0.202636
0.371626 -2.315924 0.281640
0.277062 -2.168675 -0.123200
0.274959 -2.146535 -0.180590
0.269339 -2.252218 0.477483
0.354448 -2.214645 -0.007713
0.265458 -2.203526 0.168749
0.552280 -2.319532 -0.123530
0.352907 -2.249988 0.033239
0.434123 -2.253162 -0.122072
0.431510 -2.245299 -0.110870
0.537988 -2.292402 -0.150948
0.426994 -2.228049 -0.166449
0.334497 -2.257866 0.224861
0.238977 -2.140920 -0.051802
0.325582 -2.173682 -0.144927
0.244763 -2.272201 0.293492
0.325555 -2.171388 -0.183877
0.327451 -2.195607 -0.123544
0.409755 -2.255591 0.040615
0.236770 -2.196104 0.044561
0.412172 -2.280341 0.024912
0.227826 -2.330606 0.614682
0.226030 -2.128051 -0.197640
0.315443 -2.298219 0.278448
0.223430 -2.141444 -0.120037
0.221732 -2.126431 -0.175633
0.214826 -2.238699 0.476218
0.390696 -2.285988 0.278587
0.311941 -2.386152 0.610948
0.298663 -2.190149 -0.006686
0.211123 -2.174048 0.167970
0.489358 -2.284336 -0.125353
0.297248 -2.224428 0.032297
0.484154 -2.274477 -0.077113
0.385218 -2.322251 0.266446
0.375946 -2.220468 -0.120861
0.478320 -2.266527 -0.151993
0.372571 -2.209536 -0.109578
0.369886 -2.207478 -0.165577
0.478588 -2.311965 0.008764
0.279378 -2.273626 0.533848
0.467012 -2.286511 0.086387
0.276189 -2.215927 0.221377
0.272396 -2.153506 -0.141983
0.273679 -2.170336 -0.121458
0.188731 -2.227376 0.288157
0.186599 -2.123780 -0.049913
0.271376 -2.151141 -0.180943
0.183762 -2.161791 0.044956
0.350735 -2.221738 0.039858
0.353956 -2.249499 0.022074
0.174469 -2.303918 0.606835
0.174931 -2.106133 -0.192585
0.259397 -2.266419 0.272696
0.172140 -2.122471 -0.116070
0.169955 -2.100446 -0.170458
0.333628 -2.254127 0.273803
0.160646 -2.221186 0.474101
0.252855 -2.344763 0.597442
0.244553 -2.156785 -0.005350
0.158750 -2.144780 0.168235
0.429167 -2.252419 -0.126206
0.148826 -2.263690 0.850858
0.425573 -2.247691 -0.078092
0.241542 -2.186823 0.030738
0.327064 -2.292247 0.259594
0.317891 -2.183184 -0.107480
0.319483 -2.191906 -0.120723
0.417419 -2.230585 -0.151733
0.313825 -2.173010 -0.163256
0.416963 -2.273799 0.005077
0.224244 -2.243829 0.527064
0.409420 -2.260714 0.083397
0.221987 -2.185394 0.218633
0.137462 -2.198051 0.284438
0.219386 -2.131355 -0.138954
0.219398 -2.139025 -0.119173
0.218888 -2.122023 -0.177701
0.135816 -2.098797 -0.046746
0.296304 -2.193281 0.039026
0.127841 -2.393531 1.008776
0.395354 -2.290565 0.325461
0.132660 -2.141713 0.045969
0.403165 -2.328497 0.239418
0.296960 -2.215797 0.020363
0.123087 -2.277442 0.600027
0.204670 -2.230733 0.267101
0.123688 -2.073225 -0.186178
0.279169 -2.275830 0.581636
0.121431 -2.096511 -0.112871
0.120737 -2.080663 -0.166426
0.278755 -2.232546 0.270763
0.197466 -2.306768 0.585899
0.106951 -2.185560 0.468548
0.191767 -2.132565 -0.004253
0.107769 -2.123661 0.168285
0.369036 -2.206527 -0.125629
0.366086 -2.206820 -0.078654
0.095457 -2.237978 0.843010
0.189393 -2.167628 0.030692
0.275058 -2.356717 0.581205
0.270657 -2.265442 0.253690
0.262641 -2.151762 -0.106223
0.263544 -2.156422 -0.119355
0.359428 -2.195896 -0.151451
0.260856 -2.150802 -0.162241
0.360236 -2.250076 0.001053
0.171511 -2.221328 0.522109
0.352831 -2.235017 0.080435
0.170338 -2.160163 0.217778
0.086053 -2.170742 0.280672
0.168572 -2.114994 -0.118049
0.167751 -2.104321 -0.135748
0.168470 -2.105117 -0.174781
0.156375 -2.280720 0.905338
0.086181 -2.071920 -0.043494
0.075853 -2.375942 1.000698
0.341206 -2.272977 0.320296
0.243384 -2.171012 0.039047
0.083690 -2.119819 0.047075
0.344269 -2.295415 0.231641
0.242805 -2.184315 0.017640
0.072542 -2.253059 0.593180
0.154744 -2.397685 0.989872
0.151992 -2.194232 0.261573
0.075760 -2.049555 -0.181997
0.225713 -2.250188 0.574748
0.072548 -2.072720 -0.109698
0.225739 -2.200048 0.266087
0.071193 -2.051883 -0.161108
0.144731 -2.285177 0.577922
0.142382 -2.115686 -0.002315
0.055892 -2.154212 0.463919
0.058590 -2.104744 0.169308
0.313928 -2.187050 -0.127737
0.310571 -2.179317 -0.079531
0.139318 -2.147585 0.029714
0.043054 -2.212401 0.836189
0.217946 -2.315529 0.567728
0.215859 -2.230742 0.247059
0.305633 -2.171586 -0.151397
0.211507 -2.131712 -0.105231
0.212968 -2.142401 -0.119536
0.209004 -2.126730 -0.160138
0.303938 -2.220432 -0.001771
0.119520 -2.201948 0.518089
0.297679 -2.203445 0.077683
0.119700 -2.135002 0.215952
0.038166 -2.148812 0.278803
0.287513 -2.285604 0.627414
0.298152 -2.349170 0.550658
0.024933 -2.334050 0.982378
0.118244 -2.075471 -0.132444
0.118412 -2.095079 -0.116020
0.118046 -2.075200 -0.171455
0.038295 -2.048209 -0.040299
0.102578 -2.248809 0.892668
0.284574 -2.236107 0.313681
0.191089 -2.140763 0.038331
0.035500 -2.087951 0.047509
0.191731 -2.164192 0.016638
0.287200 -2.264508 0.223846
0.022984 -2.228778 0.586359
0.101729 -2.380964 0.979753
0.100268 -2.170925 0.257682
0.174501 -2.233835 0.569633
0.027455 -2.030889 -0.177954
0.024729 -2.048030 -0.106469
0.094023 -2.262802 0.571010
0.172629 -2.168599 0.262399
0.024790 -2.034365 -0.157078
0.092425 -2.080674 -0.001825
0.005572 -2.125984 0.460222
0.261148 -2.162802 -0.128656
0.257797 -2.155061 -0.080449
0.008902 -2.079761 0.169526
0.089086 -2.116525 0.029081
0.163399 -2.279617 0.555149
0.162888 -2.198215 0.240406
-0.009142 -2.172637 0.823816
0.252139 -2.143312 -0.151203
0.162156 -2.118360 -0.119405
0.160062 -2.102640 -0.103958
0.249174 -2.183884 -0.005355
0.157940 -2.105719 -0.159097
0.243518 -2.171975 0.074961
0.067742 -2.155320 0.507902
0.069503 -2.116946 0.214938
-0.024264 -2.306612 0.971663
0.234094 -2.259915 0.618528
-0.010531 -2.124801 0.276003
0.240919 -2.322090 0.538762
0.231592 -2.203561 0.307005
0.070100 -2.077303 -0.115017
0.051961 -2.214174 0.880136
0.069457 -2.063708 -0.130624
0.069780 -2.056468 -0.169422
-0.008296 -2.033641 -0.037351
0.140321 -2.116671 0.037470
-0.012023 -2.073230 0.048448
0.140145 -2.138004 0.014829
-0.025277 -2.188454 0.576053
0.232604 -2.239902 0.217919
0.048669 -2.340920 0.961345
0.051879 -2.142895 0.253988
0.122110 -2.195166 0.559179
-0.018668 -2.009436 -0.172786
0.122628 -2.373463 0.956092
0.121934 -2.144413 0.259545
0.042237 -2.229241 0.561437
-0.022480 -2.028422 -0.103370
-0.022242 -2.011837 -0.151886
0.044031 -2.063914 0.000156
0.208743 -2.133595 -0.129407
-0.042850 -2.098933 0.456529
0.104946 -2.269345 0.944966
0.206013 -2.130906 -0.081338
0.040355 -2.091651 0.029299
-0.038301 -2.061042 0.170599
0.110826 -2.256043 0.546249
0.112309 -2.172982 0.235585
-0.058122 -2.153494 0.819877
0.111281 -2.077806 -0.102761
0.200271 -2.120169 -0.152120
0.112258 -2.095415 -0.119278
0.109077 -2.081893 -0.157929
0.196681 -2.156592 -0.008160
0.192615 -2.149837 0.073026
0.018937 -2.133234 0.504036
-0.072445 -2.267087 0.956339
0.021217 -2.087002 0.213317
0.183071 -2.241519 0.611477
-0.055892 -2.096063 0.273399
0.184127 -2.276906 0.523419
0.179430 -2.173139 0.301297
0.022636 -2.039087 -0.128382
0.022294 -2.052602 -0.112784
0.002602 -2.199998 0.876026
0.022397 -2.025828 -0.166004
-0.053957 -2.007104 -0.035015
0.090991 -2.086700 0.036818
-0.072148 -2.167502 0.571194
-0.058713 -2.047568 0.049744
0.090556 -2.111964 0.012055
0.178872 -2.204299 0.210343
-0.002318 -2.311285 0.948670
0.003780 -2.123961 0.251043
0.073246 -2.174033 0.554268
0.069549 -2.345593 0.941318
-0.063987 -1.991009 -0.169687
-0.006667 -2.196936 0.551877
0.073364 -2.118412 0.256786
-0.067411 -2.005000 -0.100116
-0.067353 -1.990447 -0.147694
-0.002900 -2.041242 0.001345
0.053796 -2.229541 0.928578
0.157815 -2.111511 -0.131329
0.156057 -2.108921 -0.082252
-0.090557 -2.075031 0.454766
-0.007366 -2.066846 0.028543
0.060128 -2.233678 0.538354
-0.084650 -2.031352 0.171029
0.062127 -2.142760 0.229934
0.149617 -2.094136 -0.152920
0.062837 -2.062010 -0.102810
0.063499 -2.070576 -0.119064
0.144896 -2.376918 0.928233
-0.106852 -2.131354 0.815048
0.145791 -2.134461 -0.011079
0.060516 -2.054103 -0.156623
0.142478 -2.130789 0.071027
-0.118689 -2.239930 0.945679
-0.028978 -2.112274 0.501163
0.134021 -2.223305 0.604461
-0.101577 -2.071361 0.271686
-0.025965 -2.068257 0.213390
0.129514 -2.152001 0.297363
0.130478 -2.254270 0.514479
-0.023922 -2.020025 -0.110281
-0.045892 -2.163573 0.863607
-0.023980 -2.011526 -0.125033
-0.024193 -2.011278 -0.164044
0.043015 -2.064907 0.036957
-0.118619 -2.141558 0.565506
-0.099638 -1.980617 -0.031664
-0.103332 -2.021052 0.050103
-0.051439 -2.271608 0.930332
0.042083 -2.084060 0.010368
0.126255 -2.166837 0.203855
0.113285 -2.268794 0.984067
0.024973 -2.145857 0.546587
-0.043223 -2.091038 0.246544
0.016866 -2.312736 0.925715
-0.054607 -2.164762 0.543341
0.025773 -2.105572 0.254665
-0.109251 -1.971635 -0.165543
-0.112342 -1.981597 -0.096847
-0.111476 -1.969153 -0.143479
-0.048995 -2.020661 0.002497
0.004917 -2.198089 0.915987
0.106826 -2.077021 -0.081849
0.108227 -2.084574 -0.132076
-0.053113 -2.042215 0.027818
-0.136120 -2.049282 0.452097
0.009579 -2.197187 0.526895
0.014338 -2.119828 0.226112
-0.129555 -2.008811 0.171273
0.101066 -2.066316 -0.152626
0.016939 -2.042921 -0.118726
0.016109 -2.036376 -0.101533
0.089777 -2.349876 0.912409
-0.154446 -2.107322 0.810303
0.013931 -2.026487 -0.155284
-0.164391 -2.217946 0.937883
0.093481 -2.096785 0.068496
0.095521 -2.104350 -0.014739
0.084182 -2.189920 0.594895
-0.075148 -2.094481 0.498229
-0.146144 -2.057825 0.270657
-0.072139 -2.049579 0.212487
0.080906 -2.126947 0.292576
0.078578 -2.234805 0.505484
-0.068969 -1.998554 -0.109084
-0.093696 -2.142485 0.857754
-0.069126 -1.991085 -0.122866
-0.163142 -2.115821 0.560847
-0.069140 -1.987884 -0.160786
-0.003264 -2.047245 0.036007
-0.099644 -2.244279 0.918653
-0.143343 -1.967334 -0.028681
-0.147440 -2.000643 0.051296
0.064933 -2.243391 0.971285
-0.004812 -2.061344 0.009561
0.076447 -2.144685 0.197970
-0.088988 -2.080381 0.244405
-0.022507 -2.119833 0.540870
-0.100236 -2.140875 0.536597
-0.033677 -2.278040 0.909208
-0.020373 -2.073789 0.252137
-0.151327 -1.949516 -0.161270
-0.155958 -1.967305 -0.094830
-0.155598 -1.947878 -0.139251
-0.041992 -2.166817 0.903430
-0.094027 -1.999180 0.003701
0.060539 -2.058807 -0.132818
0.058961 -2.067240 -0.084061
-0.098271 -2.022694 0.027961
-0.181940 -2.038730 0.453977
-0.172035 -1.980464 0.171732
-0.039415 -2.165918 0.517317
-0.032914 -2.102974 0.222130
0.053543 -2.051596 -0.153687
-0.029632 -2.010838 -0.100231
-0.030253 -2.010258 -0.117227
0.035147 -2.316824 0.894786
-0.200071 -2.083468 0.805589
0.045544 -2.074944 0.066639
0.035670 -2.152589 0.583477
0.046365 -2.072376 -0.017313
-0.032879 -2.001882 -0.154019
-0.188796 -2.032396 0.269024
-0.122002 -2.072644 0.495424
-0.116800 -2.024022 0.211821
0.034027 -2.105090 0.288730
-0.205501 -2.088205 0.554280
-0.113330 -1.981165 -0.107988
0.027370 -2.206367 0.495777
-0.113360 -1.971735 -0.120709
-0.140686 -2.123519 0.852860
0.016670 -2.204829 0.953905
-0.146715 -2.215058 0.907058
-0.113003 -1.963558 -0.158475
-0.049040 -2.022657 0.036284
-0.190087 -1.974319 0.051698
-0.186669 -1.949086 -0.025530
-0.050924 -2.041685 0.007686
0.027753 -2.120670 0.193169
-0.068582 -2.101021 0.536968
-0.134740 -2.056683 0.241674
-0.082646 -2.236382 0.889942
-0.147195 -2.120977 0.531734
-0.193479 -1.928412 -0.157016
-0.066678 -2.057082 0.250175
-0.197701 -1.941177 -0.091418
-0.196609 -1.924853 -0.134926
-0.088375 -2.152901 0.898379
-0.137772 -1.973808 0.005051
0.013638 -2.036100 -0.134626
0.012080 -2.030553 -0.083457
-0.141895 -1.996263 0.027342
-0.086192 -2.143963 0.510502
-0.079567 -2.078170 0.218407
-0.224483 -2.000131 0.448759
-0.216527 -1.965075 0.173790
0.006916 -2.024938 -0.154373
-0.075114 -1.995334 -0.100211
-0.074728 -1.994803 -0.118199
-0.010931 -2.140741 0.579351
-0.016684 -2.273875 0.873501
-0.076265 -1.984576 -0.152923
-0.001481 -2.054199 0.064775
0.000242 -2.052719 -0.019199
-0.246486 -2.068753 0.805602
-0.232152 -2.015985 0.268121
-0.165841 -2.037938 0.490053
-0.160077 -1.993548 0.210332
-0.012383 -2.077243 0.284081
-0.248380 -2.066677 0.550535
-0.029993 -2.194858 0.947722
-0.192259 -2.191087 0.898336
-0.231540 -1.958160 0.052812
-0.021821 -2.164988 0.483489
-0.156457 -1.950487 -0.118469
-0.157617 -1.962801 -0.106849
-0.186047 -2.096621 0.846237
-0.156255 -1.944311 -0.156296
-0.093583 -1.995146 0.035676
-0.228859 -1.928939 -0.022297
-0.096286 -2.012082 0.006131
-0.020990 -2.084583 0.186739
-0.177857 -2.037251 0.239853
-0.114090 -2.075194 0.531296
-0.190779 -2.096291 0.525063
-0.130942 -2.210090 0.878246
-0.111621 -2.035488 0.248388
-0.230521 -1.865676 -0.149417
-0.240202 -1.925034 -0.088308
-0.233702 -1.863082 -0.128356
-0.134192 -2.131971 0.891557
-0.180297 -1.958572 0.006119
-0.183696 -1.971995 0.026689
-0.032412 -2.001512 -0.134058
-0.033924 -2.008960 -0.084271
-0.132574 -2.117018 0.502855
-0.125459 -2.056453 0.214615
-0.258897 -1.947863 0.175936
-0.271429 -2.003661 0.453222
-0.038820 -1.999404 -0.154065
-0.118880 -1.969989 -0.098865
-0.118776 -1.973418 -0.117975
-0.056826 -2.107731 0.569867
-0.046901 -2.025548 0.062176
-0.067818 -2.234107 0.855152
-0.121079 -1.960134 -0.152613
-0.046698 -2.030985 -0.022017
-0.273020 -1.980646 0.264836
-0.209475 -2.025480 0.489025
-0.289711 -2.027898 0.795460
-0.202480 -1.977257 0.210436
-0.290199 -2.044248 0.546840
-0.058152 -2.066602 0.281948
-0.236379 -2.162143 0.886791
-0.076492 -2.170731 0.936971
-0.230871 -2.087048 0.846109
-0.199500 -1.938654 -0.104497
-0.197911 -1.930214 -0.154247
-0.198567 -1.929333 -0.116210
-0.273829 -1.939952 0.053993
-0.136999 -1.978799 0.035759
-0.070711 -2.144862 0.475598
-0.271654 -1.916784 -0.019304
-0.139460 -1.992722 0.005306
-0.067715 -2.073830 0.182602
-0.220103 -2.006815 0.236387
-0.158366 -2.058600 0.528375
-0.234311 -2.070656 0.519435
-0.154123 -2.008058 0.245812
-0.178842 -2.190963 0.869355
-0.274221 -1.865480 -0.147795
-0.276942 -1.872258 -0.084000
-0.178779 -2.108120 0.883848
-0.277702 -1.866869 -0.126859
-0.222316 -1.936408 0.008415
-0.227261 -1.957669 0.026731
-0.077322 -1.992031 -0.136204
-0.078530 -1.995483 -0.086297
-0.177896 -2.089174 0.495261
-0.170216 -2.032841 0.210905
-0.302330 -1.931592 0.178055
-0.311549 -1.959274 0.448235
-0.160925 -1.953199 -0.117755
-0.161027 -1.949766 -0.098644
-0.082785 -1.977001 -0.154818
-0.101729 -2.086974 0.564049
-0.090817 -2.003079 0.060425
-0.163629 -1.944935 -0.151545
-0.314180 -1.961434 0.264064
-0.091217 -2.003444 -0.024625
-0.117168 -2.208727 0.842417
-0.251593 -1.993986 0.484602
-0.332345 -2.025854 0.544030
-0.335663 -2.019369 0.798314
-0.245643 -1.957921 0.210638
-0.103059 -2.044959 0.278161
-0.235047 -1.872598 -0.110799
-0.242171 -1.925432 -0.104474
-0.314886 -1.918818 0.054287
-0.179054 -1.957562 0.036016
-0.236747 -1.878322 -0.149005
-0.117999 -2.116835 0.466972
-0.307000 -1.859071 -0.015821
-0.182314 -1.969366 0.003617
-0.113600 -2.052105 0.177811
-0.200941 -2.033073 0.523750
-0.263126 -1.986397 0.233623
-0.275132 -2.036137 0.511116
-0.222560 -2.156996 0.855962
-0.196870 -1.983666 0.244157
-0.313393 -1.844624 -0.144482
-0.319195 -1.866163 -0.082174
-0.316741 -1.844046 -0.122483
-0.265070 -1.924200 0.009413
-0.269463 -1.938453 0.026946
-0.121189 -1.968617 -0.137914
-0.122411 -1.972089 -0.087007
-0.221816 -2.068541 0.489478
-0.212853 -2.007408 0.207283
-0.345309 -1.922391 0.179969
-0.144588 -2.065393 0.558288
-0.203571 -1.934576 -0.097565
-0.354927 -1.942944 0.449366
-0.204288 -1.935916 -0.117620
-0.127198 -1.960600 -0.155738
-0.134733 -1.980630 0.058688
-0.355645 -1.946229 0.263175
-0.205560 -1.921754 -0.151218
-0.135592 -1.986992 -0.026544
-0.293372 -1.970620 0.481948
-0.165631 -2.184475 0.830674
-0.372782 -1.998526 0.539522
-0.376878 -1.989896 0.792868
-0.146309 -2.014442 0.274668
-0.288296 -1.944687 0.211671
-0.351393 -1.876997 0.055276
-0.221635 -1.943322 0.036069
-0.278948 -1.875372 -0.110261
-0.279136 -1.875632 -0.101267
-0.277246 -1.862315 -0.147862
-0.224578 -1.951116 0.002793
-0.164228 -2.087911 0.458400
-0.349266 -1.853005 -0.012988
-0.242039 -2.001604 0.517331
-0.157754 -2.020511 0.173343
-0.303727 -1.960168 0.231071
-0.318844 -2.024719 0.510080
-0.268003 -2.132031 0.845298
-0.239008 -1.964352 0.242368
-0.301752 -1.871342 0.010722
-0.165381 -1.949786 -0.087728
-0.163793 -1.941340 -0.138483
-0.312045 -1.924240 0.027016
-0.264700 -2.034884 0.481111
-0.252822 -1.973145 0.202966
-0.187787 -2.047877 0.554417
-0.377926 -1.856673 0.177743
-0.396164 -1.924761 0.449583
-0.243383 -1.896526 -0.096758
-0.168892 -1.934400 -0.156328
-0.245228 -1.912820 -0.117276
-0.177071 -1.963364 0.057825
-0.395369 -1.921150 0.262620
-0.412638 -1.976305 0.535872
-0.244970 -1.877793 -0.148225
-0.178364 -1.962632 -0.029200
-0.335820 -1.955333 0.482054
-0.211637 -2.154364 0.817142
-0.188110 -1.991074 0.270990
-0.329093 -1.920526 0.211065
-0.317574 -1.847519 -0.107727
-0.391640 -1.857997 0.056535
-0.263747 -1.923092 0.035319
-0.319029 -1.851662 -0.099863
-0.209446 -2.071209 0.452489
-0.267435 -1.927801 0.001130
-0.284294 -1.984252 0.515490
-0.200609 -1.998059 0.168630
-0.346188 -1.944905 0.230179
-0.360240 -1.997275 0.503565
-0.280258 -1.946159 0.241565
-0.312142 -2.103149 0.833777
-0.342385 -1.857326 0.011818
-0.348605 -1.883375 0.025968
-0.207441 -1.928575 -0.088459
-0.206158 -1.924125 -0.139336
-0.307639 -2.014369 0.475359
-0.296234 -1.957748 0.200061
-0.230818 -2.028358 0.549620
-0.418807 -1.845692 0.180754
-0.282981 -1.868564 -0.095240
-0.283532 -1.867891 -0.116233
-0.212545 -1.921104 -0.157307
-0.439893 -1.912514 0.452605
-0.435855 -1.906055 0.261756
-0.219091 -1.942101 0.056096
-0.451284 -1.951187 0.532334
-0.285530 -1.862771 -0.148107
-0.220375 -1.941357 -0.031928
-0.378270 -1.940066 0.482169
-0.229762 -1.965731 0.267385
-0.258896 -2.127247 0.805527
-0.361762 -1.855747 0.206792
-0.301400 -1.883170 0.035218
-0.253239 -2.036473 0.443141
-0.324902 -1.958935 0.510915
-0.310305 -1.917566 0.000082
-0.387570 -1.928710 0.228334
-0.244323 -1.973589 0.164985
-0.400921 -1.972974 0.498972
-0.355759 -2.079464 0.826119
-0.322721 -1.930899 0.240674
-0.381527 -1.836454 0.014148
-0.248067 -1.901476 -0.088989
-0.270922 -1.996962 0.542214
-0.246418 -1.892052 -0.139714
-0.386778 -1.850456 0.025676
-0.350677 -1.994899 0.470588
-0.338362 -1.938460 0.197296
-0.457980 -1.825777 0.182067
-0.322728 -1.847970 -0.115945
-0.323011 -1.846573 -0.094896
-0.469053 -1.861335 0.257892
-0.491816 -1.937062 0.531445
-0.252732 -1.888041 -0.157652
-0.261561 -1.926839 0.054197
-0.472376 -1.859672 0.445000
-0.271145 -1.949510 0.265523
-0.263993 -1.928033 -0.033895
-0.419091 -1.916862 0.480553
-0.304603 -2.105348 0.795784
-0.404211 -1.852640 0.208548
-0.341188 -1.858171 0.035658
-0.366422 -1.944715 0.510007
-0.345295 -1.868819 -0.000715
-0.297028 -2.013910 0.437445
-0.429127 -1.914557 0.227434
-0.440717 -1.949792 0.495363
-0.285972 -1.948264 0.160395
-0.364447 -1.918752 0.240704
-0.399872 -2.061839 0.820284
-0.313556 -1.984620 0.540231
-0.389894 -1.964653 0.464188
-0.288621 -1.873402 -0.089476
-0.287202 -1.866977 -0.140291
-0.379358 -1.917271 0.194610
-0.531037 -1.919014 0.529703
-0.291111 -1.857165 -0.157029
-0.302537 -1.904721 0.053532
-0.511340 -1.837707 0.445392
-0.312426 -1.932284 0.262707
-0.303225 -1.896011 -0.035247
-0.460897 -1.905751 0.482569
-0.444911 -1.839659 0.210637
-0.350003 -2.079487 0.786180
-0.379216 -1.836329 0.036032
-0.407459 -1.924508 0.508300
-0.385485 -1.849773 -0.002447
-0.483689 -1.941548 0.495277
-0.340954 -1.993365 0.431703
-0.461704 -1.861855 0.222817
-0.329305 -1.931916 0.157538
-0.397946 -1.864963 0.236088
-0.352750 -1.954368 0.533825
-0.432517 -1.952367 0.462223
-0.327175 -1.845496 -0.089937
-0.413232 -1.868483 0.189840
-0.569208 -1.900096 0.528993
-0.339229 -1.865846 0.051410
-0.551777 -1.821730 0.447580
-0.353865 -1.917104 0.260830
-0.492352 -1.852953 0.472962
-0.342573 -1.865979 -0.037657
-0.393088 -2.049762 0.774715
-0.446673 -1.906465 0.506541
-0.522391 -1.917461 0.490716
-0.382191 -1.963966 0.424252
-0.371500 -1.913672 0.154749
-0.437061 -1.845004 0.235395
-0.391360 -1.929223 0.528275
-0.473178 -1.928103 0.456643
-0.453621 -1.852425 0.188018
-0.378275 -1.844887 0.049739
-0.393404 -1.890028 0.258337
-0.530303 -1.831058 0.472353
-0.438013 -2.030095 0.767944
-0.491140 -1.904236 0.509262
-0.561366 -1.896440 0.488067
-0.424168 -1.943646 0.419534
-0.475044 -1.823144 0.234778
-0.410865 -1.884576 0.150322
-0.433018 -1.917048 0.527318
-0.512974 -1.904986 0.453045
-0.426910 -1.849299 0.253316
-0.569588 -1.813151 0.473617
-0.479008 -1.998600 0.757573
-0.519071 -1.844619 0.496890
-0.592644 -1.853781 0.480163
-0.465680 -1.917339 0.414011
-0.473356 -1.900924 0.524500
-0.551523 -1.878917 0.447557
-0.467395 -1.834279 0.252470
-0.557257 -1.825737 0.496191
-0.521654 -1.975114 0.749957
-0.505451 -1.894191 0.408415
-0.506852 -1.861095 0.516465
-0.595373 -1.805877 0.495530
-0.564476 -1.953672 0.743286
-0.543528 -1.836202 0.511959
-0.603614 -1.923419 0.733922
-0.579169 -1.810431 0.508497
-0.647075 -1.909138 0.732044
