# .PCD v0.7 - Point Cloud Data file format
VERSION 0.7
FIELDS x y z
SIZE 4 4 4
TYPE F F F
COUNT 1 1 1
WIDTH 12
HEIGHT 1
VIEWPOINT 0 0 0 1
POINTS 12
DATA ascii
0.357173 -3.001096 0.015512
0.227223 -2.985031 -0.023493
0.096359 -2.999983 -0.062526
-0.030550 -3.009935 -0.092562
0.292513 -2.991138 0.009532
0.285549 -2.991145 0.012533
0.159594 -3.005084 -0.023511
0.215924 -2.994195 0.008529
-0.035897 -3.002042 -0.105570
-0.046235 -3.004147 -0.117593
-0.125780 -3.019183 -0.139673
-0.123115 -3.013292 -0.148695
