# .PCD v0.7 - Point Cloud Data file format
VERSION 0.7
FIELDS x y z
SIZE 4 4 4
TYPE F F F
COUNT 1 1 1
WIDTH 44
HEIGHT 1
VIEWPOINT 0 0 0 1
POINTS 44
DATA ascii
0.010440 -1.538789 1.788044
0.003618 -1.564891 1.784138
-0.021960 -1.536168 1.778862
-0.031699 -1.554346 1.763899
-0.055336 -1.530567 1.767665
-0.065028 -1.536806 1.738646
-0.004045 -1.543626 1.789949
-0.009912 -1.546716 1.783934
-0.086514 -1.474224 1.698249
-0.098272 -1.502361 1.694323
-0.037412 -1.531045 1.773724
-0.043287 -1.539122 1.770732
-0.119036 -1.498451 1.722210
0.010877 -1.555112 1.791036
-0.068770 -1.510492 1.747481
-0.075492 -1.483747 1.706331
-0.226151 -2.683015 3.062937
-0.013659 -1.560403 1.782935
-0.022492 -1.537537 1.771793
-0.102738 -1.691140 1.672099
-0.100030 -1.468046 1.698154
-0.107986 -1.502010 1.724264
-0.048025 -1.544823 1.767701
-0.055848 -1.519972 1.751559
0.008220 -1.594830 1.791140
-0.075151 -1.701355 1.706218
-0.206805 -2.672952 3.054684
-0.006578 -1.553988 1.785899
-0.080252 -1.488425 1.705317
-0.086109 -1.466545 1.692202
-0.028140 -1.578252 1.777893
-0.110511 -1.681765 1.686971
-0.039953 -1.537387 1.771688
-0.112717 -1.495710 1.718221
-0.053457 -1.734576 1.761404
-0.062532 -1.561640 1.765687
-0.071238 -1.476956 1.708323
-0.217328 -2.671985 3.061328
-0.230393 -2.703878 3.116372
-0.087691 -1.648216 1.678909
-0.094745 -1.484282 1.686259
-0.102745 -1.480245 1.718214
-0.123301 -1.686378 1.721892
-0.197107 -2.619899 3.038969
