# .PCD v0.7 - Point Cloud Data file format
VERSION 0.7
FIELDS x y z
SIZE 4 4 4
TYPE F F F
COUNT 1 1 1
WIDTH 57
HEIGHT 1
VIEWPOINT 0 0 0 1
POINTS 57
DATA ascii
1.664598 -1.559724 2.596603
1.772596 -1.665927 2.644253
1.830362 -1.734470 2.664980
1.579001 -1.542513 2.568410
1.619412 -1.582135 2.577277
1.713432 -1.682391 2.612908
1.768212 -1.750956 2.632618
1.535830 -1.565926 2.551087
1.578259 -1.609575 2.565929
1.663296 -1.706878 2.595540
1.709062 -1.769467 2.606253
1.493655 -1.589341 2.534766
1.525056 -1.624002 2.536629
1.601089 -1.716336 2.558235
1.623784 -1.757930 2.539012
1.447459 -1.607755 2.512467
1.480861 -1.645443 2.520312
1.547900 -1.733827 2.535907
1.575640 -1.783457 2.527639
1.396204 -1.617136 2.479216
1.423603 -1.650840 2.481065
1.488651 -1.741288 2.501631
1.348989 -1.632564 2.455935
1.386416 -1.678322 2.477729
1.400231 -1.711669 2.418527
1.304740 -1.647994 2.436665
1.330125 -1.681744 2.441502
1.316802 -1.683033 2.339442
1.241407 -1.639349 2.382509
1.243629 -1.642009 2.346495
1.162917 -1.603578 2.293509
1.173202 -1.619319 2.277425
1.862759 -1.743497 2.657430
1.809008 -1.765434 2.625849
1.510734 -1.481035 2.511231
1.492487 -1.468432 2.507313
1.762374 -1.794351 2.604209
1.473815 -1.501778 2.493776
1.455670 -1.492180 2.489819
1.696332 -1.799301 2.552798
1.435880 -1.521551 2.476328
1.417785 -1.512925 2.470360
1.402008 -1.545318 2.464845
1.382914 -1.535674 2.455886
1.369114 -1.569107 2.456365
1.346016 -1.556448 2.439429
1.328093 -1.583909 2.434968
1.315216 -1.584254 2.434904
1.287036 -1.596669 2.410600
1.265038 -1.586990 2.393631
1.239830 -1.600420 2.375327
1.220944 -1.595728 2.362304
1.177201 -1.579059 2.307332
1.146107 -1.558268 2.267478
1.113486 -1.552638 2.233409
1.095753 -1.552958 2.222326
1.073284 -1.559391 2.209136
