# .PCD v0.7 - Point Cloud Data file format
VERSION 0.7
FIELDS x y z
SIZE 4 4 4
TYPE F F F
COUNT 1 1 1
WIDTH 32
HEIGHT 1
VIEWPOINT 0 0 0 1
POINTS 32
DATA ascii
2.261045 -0.615483 1.004395
2.321983 -0.635887 0.976745
2.200372 -0.630431 1.026700
2.283896 -0.663007 1.055771
2.223320 -0.658305 0.993260
2.362757 -0.705290 0.998779
2.135432 -0.663376 1.000862
2.132070 -0.666810 1.070858
2.226103 -0.705007 1.038796
2.272115 -0.728640 1.018229
2.192262 -0.734651 1.029765
1.982142 -0.670545 1.073931
2.137636 -0.723411 1.082279
2.143107 -0.737125 1.010105
2.835881 -1.001448 1.653520
2.001776 -0.727034 1.094252
2.074719 -0.757367 1.061424
2.031169 -0.775789 1.205590
1.869844 -0.722529 1.103281
1.987163 -0.772703 1.096945
1.991622 -0.780398 1.030840
1.819911 -0.745306 1.093459
1.872295 -0.770088 1.115844
1.943278 -0.806511 1.084983
1.820695 -0.771923 1.159224
1.864649 -0.813681 1.122523
1.764888 -0.771120 1.072651
1.874158 -0.828404 1.058320
1.722250 -0.776861 1.108929
1.832806 -0.848387 1.116468
1.755225 -0.815743 1.078340
1.673213 -0.801599 1.089089
