# .PCD v0.7 - Point Cloud Data file format
VERSION 0.7
FIELDS x y z
SIZE 4 4 4
TYPE F F F
COUNT 1 1 1
WIDTH 764
HEIGHT 1
VIEWPOINT 0 0 0 1
POINTS 764
DATA ascii
1.817553 -2.642398 0.701176
2.005817 -2.623837 0.649075
2.133951 -2.640279 0.685786
2.285185 -2.656321 0.716811
1.901259 -2.612872 0.514936
1.867785 -2.561061 -0.090505
2.028175 -2.640274 0.547640
1.773471 -2.620353 1.076276
2.125625 -2.597018 0.010977
2.158918 -2.645741 0.562423
2.161636 -2.652827 0.570461
2.121778 -2.596901 0.000935
2.026917 -2.679623 1.458715
1.895359 -2.653947 1.323955
1.983101 -2.603528 0.185096
1.750301 -2.606138 0.676995
2.140926 -2.660236 1.205279
1.723047 -2.571763 0.246652
1.834145 -2.567361 0.030147
1.753524 -2.637015 1.196083
1.974168 -2.619696 0.450031
1.947365 -2.577188 -0.074330
2.136324 -2.667832 1.016227
1.689223 -2.531295 -0.128763
1.937951 -2.577988 -0.042428
2.085671 -2.608282 0.220569
1.970992 -2.645682 1.156061
1.977298 -2.655457 0.894125
2.081738 -2.613161 0.208531
1.818437 -2.620574 1.100085
1.797731 -2.579881 0.344785
1.811050 -2.612891 0.775981
1.681760 -2.584036 0.480233
1.910476 -2.592520 0.123299
1.786639 -2.570295 0.150647
1.645623 -2.527251 -0.063229
1.798144 -2.598138 0.503815
1.917174 -2.623320 0.532424
1.678332 -2.609820 1.056248
2.050702 -2.634862 0.550237
2.016328 -2.585131 0.009781
2.011582 -2.581987 -0.002275
2.049587 -2.638837 0.552229
2.003584 -2.577679 -0.066369
1.923838 -2.669858 1.430589
2.057803 -2.679587 1.566416
1.875922 -2.589694 0.178927
1.794183 -2.646246 1.300857
2.031995 -2.647307 1.173080
1.645316 -2.587359 0.664855
1.610221 -2.523068 -0.234619
2.032107 -2.660048 0.996086
1.870959 -2.606964 0.441904
1.839204 -2.558343 -0.071513
1.651448 -2.625299 1.174978
1.840496 -2.572425 -0.043484
1.592875 -2.518780 -0.122802
1.983262 -2.601576 0.216451
1.870886 -2.636003 1.130968
1.868398 -2.635555 0.874927
1.974557 -2.600321 0.199355
1.592093 -2.536139 0.125216
1.724193 -2.614066 1.080063
1.700382 -2.571321 0.340731
1.672299 -2.523834 -0.149638
1.708982 -2.598184 0.760869
1.806267 -2.577776 0.121160
1.669825 -2.524711 -0.188666
1.701861 -2.589596 0.493771
1.555091 -2.522892 -0.059200
1.810266 -2.602482 0.517248
1.660412 -2.525623 -0.083761
1.942620 -2.618994 0.538045
1.578494 -2.589164 1.034159
1.909085 -2.571302 0.008593
1.943481 -2.626012 0.536051
1.898601 -2.559001 -0.005535
1.956736 -2.669870 1.536291
1.890560 -2.555695 -0.067631
1.819015 -2.652043 1.399421
1.772813 -2.572969 0.172780
1.926024 -2.635463 1.142896
1.691275 -2.629498 1.275713
1.928052 -2.646270 0.975917
1.516163 -2.507588 -0.243660
1.772680 -2.597364 0.433809
1.513951 -2.506556 -0.225684
1.630776 -2.534017 0.031910
1.525650 -2.542577 0.242490
1.554350 -2.613722 1.155896
1.767090 -2.617224 1.101797
1.878087 -2.586792 0.211266
1.502451 -2.509419 -0.116805
1.765382 -2.619815 0.857765
1.867506 -2.582482 0.191143
1.504652 -2.529847 0.125243
1.628241 -2.598510 1.056975
1.579894 -2.514412 -0.144681
1.481019 -2.535736 0.461001
1.612849 -2.585639 0.747777
1.591256 -2.541153 0.144477
1.577467 -2.513290 -0.183711
1.836681 -2.598179 0.525825
1.711194 -2.587853 0.504115
1.488489 -2.573777 1.015132
1.458954 -2.503375 -0.054290
1.567107 -2.513173 -0.080821
1.823353 -2.577043 0.006630
1.840448 -2.611272 0.519876
1.813826 -2.567765 -0.009485
1.861610 -2.662328 1.508206
1.723907 -2.642513 1.375340
1.828873 -2.629870 1.115792
1.595254 -2.616950 1.252623
1.823225 -2.625476 0.953715
1.673598 -2.580748 0.425682
1.640786 -2.526129 -0.067746
1.426805 -2.495261 -0.235664
1.420752 -2.488127 -0.217733
1.538447 -2.523598 0.032869
1.778891 -2.573174 0.206136
1.630729 -2.520779 -0.123866
1.668207 -2.601590 1.074671
1.435333 -2.533214 0.240474
1.633414 -2.528974 -0.042826
1.668389 -2.603244 0.840660
1.460256 -2.602240 1.137832
1.769326 -2.569886 0.183025
1.413129 -2.497091 -0.111809
1.421129 -2.526670 0.126305
1.540034 -2.591178 1.037976
1.604146 -2.537454 0.117858
1.504259 -2.535157 0.329507
1.487657 -2.499002 -0.140723
1.406185 -2.545789 0.458163
1.502901 -2.532840 0.142480
1.741453 -2.587663 0.515740
1.483254 -2.496830 -0.178776
1.627593 -2.591654 0.495172
1.737561 -2.591543 0.502697
1.486434 -2.516069 -0.079726
1.375477 -2.497205 -0.050228
1.630792 -2.633045 1.352279
1.575747 -2.533778 0.162538
1.725150 -2.610102 1.084602
1.732941 -2.619087 0.937686
1.504115 -2.607545 1.232588
1.554270 -2.522868 -0.066724
1.337576 -2.477944 -0.227671
1.367748 -2.553062 0.635743
1.337319 -2.478964 -0.210672
1.455873 -2.522448 0.033939
1.541356 -2.511444 -0.121878
1.577072 -2.593179 1.052634
1.546947 -2.524713 -0.043804
1.347136 -2.518914 0.238477
1.572396 -2.586710 0.824564
1.329695 -2.488927 -0.106749
1.335827 -2.515450 0.126342
1.434840 -2.551381 1.006770
1.516761 -2.530169 0.115866
1.421750 -2.533007 0.326575
1.399377 -2.484707 -0.135723
1.416617 -2.521588 0.140501
1.649190 -2.578236 0.506686
1.325767 -2.540695 0.453254
1.425466 -2.548319 0.464630
1.400730 -2.492687 -0.174707
1.315406 -2.545224 0.980170
1.616434 -2.528604 0.004259
1.644396 -2.581085 0.488632
1.613705 -2.529503 -0.015773
1.396258 -2.498722 -0.076750
1.292073 -2.489043 -0.047169
1.537874 -2.617584 1.326215
1.603729 -2.520156 -0.070894
1.640847 -2.606654 0.919630
1.494214 -2.533648 0.157615
1.632059 -2.601635 1.059536
1.416957 -2.598253 1.213595
1.484472 -2.545782 0.410525
1.465969 -2.510567 -0.064728
1.585646 -2.540098 0.196926
1.247538 -2.452615 -0.218691
1.365769 -2.503102 0.034914
1.478553 -2.564564 1.023502
1.247280 -2.453634 -0.201693
1.454055 -2.499170 -0.119871
1.277750 -2.534712 0.625720
1.458651 -2.513410 -0.043808
1.577142 -2.537831 0.167827
1.263773 -2.510752 0.237533
1.248300 -2.479823 -0.102669
1.274514 -2.564357 1.097717
1.255395 -2.509367 0.126431
1.434303 -2.525024 0.114929
1.337484 -2.521814 0.322616
1.319859 -2.480650 -0.132623
1.327539 -2.503268 0.137487
1.237795 -2.520401 0.445253
1.438764 -2.550688 0.469010
1.343429 -2.547571 0.712714
1.340289 -2.536095 0.455660
1.312590 -2.472404 -0.168710
1.532919 -2.526426 0.002308
1.239908 -2.545262 0.969313
1.527380 -2.520247 -0.018759
1.453683 -2.609370 1.306251
1.311939 -2.487536 -0.074707
1.518308 -2.513928 -0.071868
1.205014 -2.466790 -0.043158
1.548862 -2.590230 0.901572
1.409878 -2.525450 0.153654
1.538187 -2.585152 1.033456
1.396310 -2.531483 0.404516
1.501270 -2.532896 0.192962
1.379685 -2.498327 -0.063712
1.174865 -2.453750 -0.213512
1.286259 -2.499048 0.037011
1.493783 -2.531653 0.160874
1.369684 -2.489982 -0.117832
1.391444 -2.550958 0.794491
1.373434 -2.499194 -0.044782
1.174538 -2.457769 -0.196514
1.195474 -2.525579 0.618783
1.185310 -2.505729 0.237641
1.167966 -2.467755 -0.097581
1.192267 -2.556220 1.084779
1.170352 -2.488167 0.126462
1.277157 -2.543263 0.976974
1.470944 -2.548565 0.487640
1.342363 -2.500632 0.112875
1.251383 -2.504580 0.318632
1.236593 -2.466501 -0.128571
1.355519 -2.541517 0.459057
1.250073 -2.499265 0.135605
1.161413 -2.513429 0.441383
1.262869 -2.532087 0.448777
1.259282 -2.534382 0.702751
1.444717 -2.512129 0.000296
1.457488 -2.544174 0.460482
1.162694 -2.535256 0.956431
1.233179 -2.464355 -0.165613
1.447781 -2.522179 -0.021666
1.433955 -2.505735 -0.073833
1.226824 -2.468335 -0.072679
1.129437 -2.464854 -0.039016
1.435937 -2.548441 1.000270
1.326634 -2.514287 0.148701
1.241196 -2.560645 1.171578
1.322720 -2.532577 0.399676
1.416005 -2.521679 0.188983
1.299290 -2.490249 -0.062630
1.312284 -2.545206 0.984596
1.203119 -2.480901 0.038060
1.316832 -2.554026 0.786638
1.411410 -2.526509 0.153930
1.290265 -2.482931 -0.116738
1.295899 -2.497192 -0.044666
1.098406 -2.445793 -0.206381
1.098137 -2.447812 -0.190383
1.119008 -2.522611 0.613909
1.105108 -2.491663 0.235725
1.087751 -2.451696 -0.093495
1.200866 -2.537280 0.962099
1.095886 -2.483256 0.126613
1.111074 -2.546118 1.071848
1.388659 -2.539425 0.479693
1.268707 -2.502736 0.113034
1.275271 -2.532432 0.449136
1.172117 -2.493534 0.314725
1.363363 -2.503022 -0.000638
1.182663 -2.520012 0.441857
1.376212 -2.537055 0.448548
1.162046 -2.463588 -0.125421
1.171739 -2.490246 0.133709
1.085117 -2.504463 0.435510
1.182853 -2.530410 0.695876
1.084618 -2.521231 0.941536
1.356899 -2.495815 -0.024715
1.157674 -2.459419 -0.161474
1.350687 -2.493578 -0.074790
1.156150 -2.470525 -0.070485
1.055964 -2.458975 -0.035855
1.250151 -2.511313 0.145825
1.241522 -2.519475 0.393743
1.159099 -2.548512 1.154633
1.339498 -2.519699 0.185105
1.213286 -2.467028 -0.061619
1.236951 -2.541248 0.968729
1.331116 -2.517426 0.148005
1.234761 -2.538893 0.773691
1.208104 -2.465812 -0.115682
1.127670 -2.474966 0.039197
1.209922 -2.473970 -0.045655
1.024976 -2.436922 -0.200220
1.023713 -2.438915 -0.184233
1.041676 -2.514626 0.609021
1.026892 -2.477657 0.234829
1.019080 -2.452949 -0.089280
1.124658 -2.528306 0.947222
1.021547 -2.473354 0.126761
1.308422 -2.528344 0.471767
1.027226 -2.524946 1.054883
1.186601 -2.484617 0.111088
1.198916 -2.526460 0.441256
1.299778 -2.535074 0.438667
1.284002 -2.494974 -0.002551
1.099609 -2.490676 0.312892
1.103608 -2.502968 0.432946
1.100221 -2.487415 0.132888
1.012756 -2.496609 0.431678
1.086686 -2.452661 -0.121285
1.009525 -2.507292 0.927671
1.280423 -2.492842 -0.027595
1.107490 -2.524470 0.688008
1.297571 -2.549664 0.855670
1.081369 -2.446467 -0.157349
1.271341 -2.484531 -0.075704
1.078865 -2.458544 -0.069371
1.280300 -2.542384 0.963476
1.166192 -2.489144 0.140856
0.983504 -2.452132 -0.031685
1.165165 -2.511511 0.389862
1.254488 -2.498500 0.181121
1.080069 -2.533466 1.137720
1.160720 -2.534272 0.951848
1.144546 -2.472273 -0.060408
1.157578 -2.526897 0.762799
1.250881 -2.506352 0.142078
1.136547 -2.463981 -0.114504
1.138366 -2.473137 -0.046478
1.054219 -2.469090 0.040352
0.952518 -2.430082 -0.195050
0.953171 -2.435126 -0.179042
0.964500 -2.501648 0.602132
1.046795 -2.507287 0.929322
0.944826 -2.438060 -0.085133
0.952548 -2.468762 0.233974
1.236843 -2.529502 0.465940
0.950153 -2.465535 0.126940
0.951964 -2.517016 1.043012
1.114112 -2.480763 0.110253
1.115160 -2.499290 0.429286
0.939362 -2.494489 0.915861
1.201922 -2.475858 -0.004502
1.221543 -2.526050 0.427760
1.034056 -2.503191 0.428143
1.224167 -2.545769 0.844820
1.024050 -2.472462 0.130010
0.941423 -2.487789 0.427855
1.027157 -2.485827 0.311057
1.198360 -2.473726 -0.030545
1.015203 -2.447841 -0.119108
1.026611 -2.501384 0.677073
1.009912 -2.440647 -0.155171
1.194056 -2.473544 -0.077597
1.007425 -2.451726 -0.067194
1.201168 -2.533328 0.943557
1.094717 -2.486313 0.137031
0.911161 -2.441295 -0.028518
1.087993 -2.497528 0.383969
1.177240 -2.486513 0.177226
1.007670 -2.529612 1.126880
1.079933 -2.512173 0.930910
1.072129 -2.465423 -0.060244
1.088027 -2.527117 0.755993
1.167965 -2.483210 0.135116
1.061232 -2.453058 -0.113374
1.062134 -2.459187 -0.046359
0.981864 -2.459248 0.041517
0.884052 -2.422353 -0.188839
0.882787 -2.424346 -0.172853
0.976463 -2.501484 0.917506
0.887537 -2.480679 0.594242
1.155812 -2.511411 0.456998
0.876281 -2.435328 -0.081924
0.882090 -2.462979 0.235159
0.878863 -2.453726 0.127116
1.039807 -2.469866 0.109392
0.881435 -2.516228 1.037192
1.152726 -2.542933 0.834988
1.046546 -2.502539 0.423490
0.866397 -2.475617 0.902016
1.141530 -2.508983 0.415829
1.128482 -2.470980 -0.006352
0.958950 -2.487269 0.421272
0.873011 -2.482052 0.424062
0.953617 -2.466672 0.129194
1.124936 -2.468847 -0.033395
0.954822 -2.476985 0.308218
0.944731 -2.442055 -0.115922
0.954300 -2.493537 0.669234
0.941361 -2.437913 -0.151963
1.115844 -2.459541 -0.078504
0.938897 -2.448989 -0.065988
1.125019 -2.524358 0.924670
1.020502 -2.473415 0.133170
0.840769 -2.432518 -0.025332
1.105771 -2.482687 0.174396
1.016560 -2.492707 0.380139
0.938227 -2.526842 1.117070
1.005795 -2.501266 0.915047
0.997882 -2.451533 -0.059105
1.013835 -2.515216 0.746129
1.096520 -2.480381 0.129285
0.990796 -2.447267 -0.113190
0.989835 -2.448346 -0.047197
0.909581 -2.447414 0.041679
0.815609 -2.414630 -0.183631
0.812450 -2.412574 -0.167666
0.899682 -2.478506 0.898614
1.080638 -2.497484 0.450121
0.815280 -2.469848 0.589402
0.806922 -2.424581 -0.077728
0.811449 -2.446025 0.128333
0.813597 -2.459253 0.235362
1.075816 -2.521948 0.820089
0.970367 -2.464103 0.108585
1.068254 -2.501104 0.405974
0.976189 -2.496743 0.415670
1.057071 -2.464161 -0.007183
0.800001 -2.470935 0.893242
0.810165 -2.507419 1.027360
1.050735 -2.454950 -0.036259
0.890565 -2.481532 0.415475
0.804679 -2.473323 0.420266
0.884248 -2.458914 0.127387
0.883477 -2.468177 0.306388
0.872537 -2.425228 -0.112759
0.884006 -2.483752 0.663414
1.045425 -2.453747 -0.080324
0.869156 -2.421087 -0.147800
0.864812 -2.429110 -0.064847
1.048998 -2.510396 0.905781
0.949233 -2.462600 0.129340
1.033469 -2.472843 0.170553
0.944365 -2.478868 0.375297
0.770549 -2.416750 -0.022147
0.936554 -2.493493 0.900237
0.940756 -2.499347 0.735275
0.927483 -2.443751 -0.057924
1.024229 -2.471536 0.123442
0.921394 -2.439512 -0.111998
0.921406 -2.442613 -0.047995
0.840251 -2.436664 0.042872
0.747269 -2.402916 -0.178425
0.746948 -2.406935 -0.162429
0.834314 -2.472847 0.888849
1.013100 -2.496768 0.445331
0.738674 -2.409866 -0.074521
0.746875 -2.464126 0.585601
0.745004 -2.440357 0.128557
1.004587 -2.512126 0.808253
0.741541 -2.439433 0.233523
0.900026 -2.455322 0.106763
0.734786 -2.459283 0.883480
0.905035 -2.482931 0.407837
0.995081 -2.489233 0.396117
0.985754 -2.454349 -0.009016
0.822282 -2.471802 0.409676
0.983181 -2.455237 -0.039048
0.738365 -2.463651 0.416490
0.814035 -2.445139 0.125568
0.739848 -2.499645 1.019534
0.812320 -2.452377 0.303557
0.805111 -2.417535 -0.109545
0.975062 -2.445961 -0.082146
0.813759 -2.472973 0.656592
0.802694 -2.415417 -0.145576
0.797467 -2.418416 -0.062632
0.973074 -2.493442 0.885890
0.880826 -2.456871 0.126539
0.877883 -2.475189 0.372517
0.963107 -2.465058 0.167729
0.706964 -2.415163 -0.018892
0.865490 -2.479677 0.884404
0.870548 -2.487563 0.726451
0.954892 -2.463774 0.118629
0.860111 -2.435052 -0.057712
0.851194 -2.423738 -0.110818
0.853979 -2.436913 -0.048784
0.772825 -2.429972 0.044082
0.942917 -2.482982 0.438507
0.688413 -2.411457 -0.174119
0.766180 -2.460118 0.876049
0.687113 -2.415450 -0.159135
0.930693 -2.490234 0.794385
0.677934 -2.414358 -0.071237
0.677786 -2.425671 0.128770
0.680404 -2.460464 0.582817
0.673371 -2.422723 0.233726
0.830813 -2.440575 0.105953
0.669604 -2.446639 0.873715
0.925766 -2.482471 0.387301
0.915464 -2.443570 -0.010841
0.834839 -2.471152 0.400012
0.912976 -2.441457 -0.041872
0.755981 -2.462132 0.404897
0.672132 -2.450988 0.412712
0.747665 -2.437472 0.123788
0.747879 -2.446760 0.301800
0.905750 -2.436208 -0.083959
0.740595 -2.413922 -0.107303
0.668778 -2.483851 1.008698
0.746358 -2.467279 0.651798
0.737258 -2.408779 -0.143343
0.901028 -2.479600 0.869041
0.733933 -2.415828 -0.061379
0.812581 -2.445147 0.122738
0.894764 -2.456331 0.164925
0.809599 -2.464468 0.368714
0.645254 -2.418634 -0.015621
0.797344 -2.467947 0.870601
0.803234 -2.478865 0.719657
0.885635 -2.453021 0.113814
0.791825 -2.423335 -0.057514
0.783906 -2.412047 -0.110608
0.785730 -2.424196 -0.049585
0.707486 -2.419338 0.045314
0.876520 -2.477304 0.432723
0.703750 -2.456549 0.867311
0.866223 -2.487606 0.786622
0.614384 -2.418093 0.129022
0.609142 -2.443130 0.866998
0.765375 -2.434936 0.105181
0.614167 -2.447807 0.579036
0.609846 -2.420146 0.233974
0.770399 -2.467531 0.394249
0.846225 -2.430824 -0.012656
0.855583 -2.470692 0.378472
0.844701 -2.430735 -0.044676
0.689690 -2.452469 0.400114
0.607870 -2.439381 0.408953
0.682376 -2.425839 0.123019
0.837495 -2.423488 -0.084762
0.680630 -2.434077 0.300007
0.677126 -2.408342 -0.105052
0.682854 -2.464694 0.648044
0.677553 -2.412298 -0.141050
0.602487 -2.474195 1.001912
0.834726 -2.473919 0.855256
0.747242 -2.436508 0.119966
0.668575 -2.407197 -0.061150
0.827485 -2.445636 0.161131
0.742403 -2.450777 0.363920
0.731181 -2.456275 0.857818
0.736074 -2.465171 0.710863
0.817373 -2.443299 0.108008
0.726466 -2.413702 -0.056285
0.720494 -2.410560 -0.050354
0.721361 -2.410488 -0.110348
0.644995 -2.414785 0.046574
0.810202 -2.468635 0.426937
0.640489 -2.446962 0.857561
0.800982 -2.476959 0.776848
0.548758 -2.436626 0.860279
0.551061 -2.407522 0.129272
0.699185 -2.419279 0.104400
0.790224 -2.465047 0.370696
0.702350 -2.449818 0.386445
0.782701 -2.429235 -0.014409
0.551027 -2.427701 0.236268
0.548762 -2.441187 0.577257
0.778353 -2.423071 -0.047461
0.625432 -2.441862 0.394351
0.545541 -2.429832 0.406213
0.773114 -2.416874 -0.087524
0.618150 -2.412236 0.121260
0.617292 -2.424500 0.298256
0.617658 -2.451064 0.642271
0.534404 -2.458493 0.992103
0.764736 -2.458144 0.838425
0.682020 -2.423874 0.116194
0.762187 -2.434999 0.158356
0.679943 -2.446220 0.361176
0.667862 -2.449686 0.847064
0.672690 -2.458589 0.705108
0.753056 -2.434685 0.103244
0.664908 -2.413172 -0.057018
0.660715 -2.412985 -0.110072
0.658890 -2.412032 -0.051089
0.744979 -2.455997 0.421162
0.579090 -2.442433 0.848826
0.736706 -2.467344 0.768082
0.489359 -2.430156 0.854568
0.637712 -2.414753 0.103667
0.716529 -2.413579 -0.016194
0.723088 -2.451358 0.361897
0.639937 -2.445262 0.380698
0.714092 -2.411463 -0.050224
0.564109 -2.432338 0.390620
0.484591 -2.426594 0.572493
0.486017 -2.427366 0.404498
0.709696 -2.411293 -0.089280
0.560351 -2.420815 0.120562
0.554823 -2.419956 0.297508
0.554301 -2.443492 0.637512
0.618754 -2.412299 0.113441
0.700365 -2.454530 0.826655
0.696983 -2.421368 0.154581
0.613815 -2.429572 0.357390
0.612185 -2.456087 0.700381
0.604675 -2.439103 0.834308
0.686925 -2.419029 0.098457
0.680628 -2.448392 0.416391
0.520563 -2.440987 0.843120
0.675274 -2.462813 0.761344
0.431904 -2.425741 0.848874
0.574425 -2.403186 0.102911
0.574957 -2.424637 0.372925
0.655030 -2.411053 -0.017931
0.659757 -2.444777 0.354137
0.652610 -2.408937 -0.052962
0.500893 -2.419772 0.385863
0.426679 -2.437188 0.574783
0.649149 -2.410792 -0.091007
0.491070 -2.430928 0.632754
0.558289 -2.408805 0.110714
0.637082 -2.447947 0.813893
0.636375 -2.422870 0.152851
0.552481 -2.420054 0.354654
0.548995 -2.442510 0.693603
0.544214 -2.436599 0.826558
0.624567 -2.412471 0.093687
0.616538 -2.430786 0.410599
0.457638 -2.420411 0.830341
0.613978 -2.454279 0.752579
0.371001 -2.403224 0.838116
0.513685 -2.415112 0.367152
0.594697 -2.428145 0.346321
0.431682 -2.424463 0.628993
0.573886 -2.438366 0.802087
0.576895 -2.420390 0.150086
0.492101 -2.413558 0.351879
0.489594 -2.437049 0.688856
0.483935 -2.429110 0.816800
0.556178 -2.424292 0.405842
0.553627 -2.447788 0.745820
0.401028 -2.423032 0.825620
0.313794 -2.390827 0.831397
0.531597 -2.413577 0.338533
0.511650 -2.430827 0.790302
0.429317 -2.427569 0.683096
0.423773 -2.417628 0.806043
0.497749 -2.419857 0.402103
0.494408 -2.436327 0.738075
0.340332 -2.394530 0.811869
0.450532 -2.418319 0.778532
0.367682 -2.395045 0.672334
0.364706 -2.402177 0.795300
0.437918 -2.433950 0.733354
0.386874 -2.390742 0.761738
0.381346 -2.434582 0.729625
0.329423 -2.389352 0.753998
2.344418 -0.816052 2.633584
2.301356 -0.859985 2.606971
2.268296 -0.905991 2.592350
2.298238 -0.971070 2.612586
2.233227 -0.950001 2.576754
2.251166 -1.011014 2.584022
2.201175 -0.995049 2.566153
2.212101 -1.053028 2.566448
2.187171 -1.048215 2.576477
2.189081 -1.102152 2.567810
2.254082 -1.129923 2.569276
2.213007 -1.169955 2.551731
2.286189 -1.142169 2.609848
2.182970 -1.215071 2.548139
2.180709 -1.377916 2.528665
2.231059 -1.175041 2.567383
2.180433 -1.421936 2.529119
2.159971 -1.264234 2.552505
2.146777 -1.427110 2.531020
2.191978 -1.215028 2.544849
2.170978 -1.265130 2.543205
2.160033 -1.321325 2.556495
2.590102 -2.591367 0.243692
2.551986 -2.593204 0.104640
2.532362 -2.617201 0.518361
2.645321 -2.588041 0.146303
2.526782 -2.622488 0.651302
2.464742 -2.588885 0.241667
2.418518 -2.576798 0.105792
2.548479 -2.599431 0.354140
2.403946 -2.604682 0.507471
2.523900 -2.584544 0.144305
2.395338 -2.604947 0.635474
2.548213 -2.620249 0.545893
2.660909 -2.594433 0.107807
2.394759 -2.623682 0.713249
2.345334 -2.582390 0.238714
2.629343 -2.600329 0.187730
2.304105 -2.572317 0.106822
2.424079 -2.591949 0.349209
2.302641 -2.613086 0.501350
2.447603 -2.624344 0.819842
2.404464 -2.578058 0.142365
2.282987 -2.602372 0.624487
2.533438 -2.583991 0.106915
2.420780 -2.607711 0.532025
2.418133 -2.605958 0.660056
2.289648 -2.628188 1.129206
2.277414 -2.618120 0.700300
2.276178 -2.636400 1.248113
2.231980 -2.580900 0.237722
2.496847 -2.584867 0.180906
2.489867 -2.603515 0.453692
2.186652 -2.559875 0.107970
2.613217 -2.592467 0.212360
2.610257 -2.594487 0.213334
2.312698 -2.590419 0.344224
2.339341 -2.628177 1.161813
2.190245 -2.605544 0.492441
2.327220 -2.614772 0.802954
2.284009 -2.566602 0.140505
2.168561 -2.589823 0.612642
2.415013 -2.579519 0.105968
2.316440 -2.612116 0.522969
2.304764 -2.602371 0.646098
2.435935 -2.610979 0.682615
2.435641 -2.617744 0.555522
2.174250 -2.614535 1.103374
2.153997 -2.600596 0.685518
2.313332 -2.646229 1.360606
2.380408 -2.579358 0.175978
2.165908 -2.633764 1.226151
2.109510 -2.561470 0.234969
2.214777 -2.544666 0.008775
2.376466 -2.599977 0.445741
2.077201 -2.549412 0.109113
2.492756 -2.584989 0.208462
2.379178 -2.629418 0.906407
2.493837 -2.593935 0.204349
2.195246 -2.576937 0.338407
2.220928 -2.613517 1.133007
2.225916 -2.619171 0.791914
2.075811 -2.591035 0.483637
2.027687 -2.529742 -0.088649
2.178614 -2.566081 0.138530
2.293518 -2.564101 0.106177
2.195964 -2.594584 0.509202
2.322227 -2.612164 0.541606
2.071918 -2.610885 1.083439
2.460411 -2.618583 0.565071
2.453328 -2.611488 0.551160
2.036563 -2.582073 0.671770
2.201992 -2.638555 1.332719
2.266978 -2.573852 0.171069
2.000071 -2.549009 0.234152
2.049544 -2.618145 1.200367
2.105317 -2.535215 0.010920
2.270099 -2.600437 0.439758
2.261544 -2.610494 1.158686
1.970770 -2.539952 0.110264
2.376313 -2.578507 0.204569
2.267796 -2.622827 0.889514
2.365301 -2.574476 0.195623
2.079769 -2.559478 0.333658
2.120610 -2.613840 1.111034
2.106452 -2.598628 0.774201
1.966339 -2.573521 0.474889
2.062091 -2.545640 0.135820
2.183060 -2.555631 0.105318
