# .PCD v0.7 - Point Cloud Data file format
VERSION 0.7
FIELDS x y z
SIZE 4 4 4
TYPE F F F
COUNT 1 1 1
WIDTH 49
HEIGHT 1
VIEWPOINT 0 0 0 1
POINTS 49
DATA ascii
1.675439 1.942156 0.848229
1.914612 2.235975 0.584470
1.758183 1.946962 0.866178
1.879135 2.070978 0.543132
1.735909 1.908096 0.920413
1.709068 1.964247 0.786597
1.880240 2.032694 0.569623
1.650872 1.982361 0.711917
1.861585 1.970938 0.892622
1.975887 2.081011 0.555315
1.815725 1.902839 0.942201
1.736132 1.908260 0.907135
1.812510 1.988251 0.810031
1.969076 2.031593 0.585571
1.946731 2.235426 0.578474
1.742579 1.992296 0.728023
1.968035 1.990965 0.919054
2.084524 2.097165 0.570721
1.901487 2.026043 0.560466
1.678589 2.002414 0.645149
1.887542 1.976046 0.821673
1.830722 1.917143 0.933275
2.067799 2.037600 0.603733
1.834936 2.015478 0.537295
1.755168 1.916576 0.901152
1.833361 1.997241 0.743060
2.000239 2.033081 0.575634
1.688623 1.922178 0.863199
1.773347 2.010411 0.659260
1.997028 1.995138 0.846124
1.997803 2.251228 0.561878
1.933702 2.023536 0.550467
1.837014 1.913400 0.918989
1.926178 1.999222 0.758088
2.105937 2.042194 0.592914
1.769496 1.919008 0.879017
2.096767 1.999179 0.865273
1.878976 2.026531 0.675606
2.037428 2.032645 0.565718
2.039702 2.017392 0.780568
2.205798 2.040269 0.607992
1.867100 1.930988 0.901228
1.967945 2.019503 0.687472
1.988803 2.039396 0.532942
2.149140 2.042865 0.581080
2.148375 2.025539 0.800872
1.963804 1.934971 0.923331
2.106440 2.056698 0.547454
2.220202 2.064978 0.560816
