# .PCD v0.7 - Point Cloud Data file format
VERSION 0.7
FIELDS x y z
SIZE 4 4 4
TYPE F F F
COUNT 1 1 1
WIDTH 141
HEIGHT 1
VIEWPOINT 0 0 0 1
POINTS 141
DATA ascii
-21.349230 30.512779 -5.875767
-22.083399 30.849491 -5.592638
-21.384216 30.527960 -5.946698
-22.033144 30.861523 -5.552499
-21.260193 30.509054 -5.862481
-21.329096 30.478434 -5.830925
-21.994633 30.859398 -5.564750
-21.273806 30.515955 -5.939109
-21.309855 30.459726 -5.884960
-21.940535 30.866035 -5.531743
-21.228172 30.533941 -5.831824
-21.241381 30.476372 -5.821174
-22.053825 30.827160 -5.538292
-21.895287 30.860420 -5.542778
-21.283909 30.566820 -5.897334
-21.978340 30.855341 -5.638595
-21.823931 30.838232 -5.578468
-21.295256 30.694828 -5.899420
-21.308268 30.626657 -5.850189
-21.864931 30.849207 -5.631268
-21.626350 30.862865 -5.702379
-21.770630 30.850840 -5.619048
-21.345663 30.497540 -5.896056
-21.649317 30.742731 -5.734374
-21.278299 30.595364 -5.960605
-21.333406 30.535469 -5.965560
-22.057535 30.863724 -5.532415
-21.763748 30.867146 -5.643073
-21.272213 30.640764 -5.923569
-21.250666 30.519997 -5.958564
-22.033756 30.849247 -5.645331
-21.967140 30.857132 -5.524143
-21.698376 30.870846 -5.626804
-22.003210 30.865437 -5.634133
-21.254292 30.564297 -5.917000
-21.972466 30.860435 -5.619664
-21.279337 30.646643 -5.943416
-21.919941 30.860979 -5.618534
-21.288277 30.630352 -5.862890
-21.897411 30.861065 -5.598799
-21.395748 30.513048 -5.945598
-21.310919 30.716976 -5.889321
-21.853834 30.865679 -5.597329
-21.362688 30.534370 -5.924549
-21.833563 30.867502 -5.575382
-21.365906 30.533865 -5.913868
-21.792793 30.871811 -5.573822
-21.256533 30.504292 -5.921995
-21.280703 30.515568 -5.904852
-21.745089 30.883762 -5.670964
-21.747860 30.878313 -5.663181
-21.688633 30.882151 -5.636121
-21.674456 30.879782 -5.646483
-21.377123 30.521761 -5.945997
-21.371506 30.530277 -5.948165
-21.367672 30.499304 -5.916536
-21.956974 30.862906 -5.651222
-21.317556 30.523678 -5.931387
-21.308725 30.527451 -5.935052
-21.892035 30.869293 -5.635237
-21.300135 30.497908 -5.908451
-21.267523 30.529795 -5.914477
-21.254049 30.528938 -5.918247
-21.826927 30.873684 -5.619273
-21.779238 30.879934 -5.661811
-21.696247 30.883028 -5.685826
-21.676767 30.877674 -5.692553
-21.769775 30.880398 -5.601047
-21.705400 30.881052 -5.648854
-21.636869 30.888908 -5.665526
-21.620073 30.882309 -5.669384
-21.760517 30.736780 -5.739948
-21.325953 30.547634 -5.946929
-21.336878 30.492443 -5.876606
-21.255322 30.536749 -5.935892
-21.256462 30.574041 -5.951495
-21.821222 30.870445 -5.614872
-21.376326 30.548748 -5.942473
-21.272949 30.589712 -5.886744
-21.245882 30.607243 -5.911910
-21.756788 30.870924 -5.593476
-21.300400 30.534204 -5.929516
-21.584381 30.870758 -5.699088
-21.245062 30.531988 -5.908728
-21.265377 30.612175 -5.935823
-21.323490 30.723143 -5.936526
-21.306171 30.615316 -5.835882
-21.306767 30.685114 -5.871464
-21.227222 30.526712 -5.883704
-21.237398 30.589605 -5.849474
-21.245695 30.525337 -5.838729
-21.312868 30.540773 -5.918464
-21.342617 30.665302 -5.964179
-21.250490 30.653229 -5.813245
-21.266991 30.590845 -5.805187
-21.335966 30.607882 -5.883129
-21.221809 30.517448 -5.882160
-21.259344 30.584379 -5.961287
-21.244989 30.586048 -5.845589
-21.257631 30.652454 -5.923667
-21.528822 30.739870 -5.932976
-21.680655 30.758692 -5.928411
-21.232637 30.522913 -5.953931
-21.237482 30.585789 -5.915675
-21.242882 30.647053 -5.877099
-21.370771 30.480549 -5.934741
-21.224884 30.514984 -5.919932
-21.219143 30.571718 -5.890218
-21.245264 30.634640 -5.856167
-21.337364 30.452621 -5.918980
-21.306063 30.659388 -5.941269
-21.210625 30.492334 -5.901074
-21.213602 30.552938 -5.870058
-21.272402 30.507324 -5.934859
-21.188438 30.550663 -5.909939
-21.205839 30.611950 -5.872601
-21.957777 30.838985 -5.735313
-21.226839 30.559107 -5.918364
-21.392540 30.523970 -5.962797
-21.280787 30.488150 -5.915136
-21.289860 30.492060 -5.889874
-21.251951 30.549843 -5.941396
-21.253271 30.542675 -5.931432
-21.226530 30.533619 -5.893432
-21.215591 30.534138 -5.874259
-21.286711 30.618547 -5.897014
-21.242893 30.596891 -5.900012
-21.217808 30.588535 -5.865715
-21.218494 30.595201 -5.846105
-21.259714 30.658106 -5.864509
-21.273884 30.507938 -5.979411
-21.242989 30.556971 -5.985053
-21.204960 30.536358 -5.964852
-21.233282 30.604942 -5.955705
-21.210592 30.591644 -5.935077
-21.238474 30.659597 -5.923021
-21.215183 30.648485 -5.904076
-21.374678 30.521997 -5.949891
-21.276533 30.536493 -5.930581
-21.258524 30.579214 -5.895096
-21.279505 30.638760 -5.849344
