# .PCD v0.7 - Point Cloud Data file format
VERSION 0.7
FIELDS x y z
SIZE 4 4 4
TYPE F F F
COUNT 1 1 1
WIDTH 33
HEIGHT 1
VIEWPOINT 0 0 0 1
POINTS 33
DATA ascii
-18.293467 32.375156 -4.907851
-18.311787 32.331306 -4.896230
-18.232910 32.355259 -4.867837
-18.163263 32.380791 -4.849294
-18.213659 32.239124 -4.872297
-18.273895 32.031387 -4.904667
-18.269819 32.095211 -4.923016
-18.231329 32.120316 -4.878246
-18.254057 31.882938 -4.899277
-18.143017 32.062389 -4.857746
-18.135302 32.129704 -4.876931
-18.115013 32.125237 -4.858010
-18.127172 31.908474 -4.858914
-18.272730 31.652683 -4.860523
-18.140574 31.854948 -4.833735
-18.266586 31.592157 -4.887235
-18.139589 31.680210 -4.814332
-18.126722 31.625900 -4.833554
-18.129377 31.549889 -4.829292
-18.248377 32.070580 -4.918968
-18.271246 32.153946 -4.940177
-18.248320 32.006943 -4.897604
-18.246159 31.724779 -4.763881
-18.234892 32.199356 -4.761795
-18.240871 32.129013 -4.786861
-18.259130 31.555294 -4.883556
-18.257471 31.985920 -4.896416
-18.249243 31.943228 -4.896189
-18.127735 31.573618 -4.820797
-18.252506 31.874142 -4.894640
-18.275566 31.802671 -4.872955
-18.123125 31.898769 -4.826963
-18.168825 31.800699 -4.834753
