# .PCD v0.7 - Point Cloud Data file format
VERSION 0.7
FIELDS x y z
SIZE 4 4 4
TYPE F F F
COUNT 1 1 1
WIDTH 127
HEIGHT 1
VIEWPOINT 0 0 0 1
POINTS 127
DATA ascii
-12.977587 31.378794 -3.529022
-12.873975 31.280615 -3.487275
-13.000217 31.329462 -3.537461
-12.706532 31.379477 -3.293141
-12.692110 31.336988 -3.258234
-12.736939 31.299253 -3.286264
-12.726705 31.220488 -3.356640
-12.893098 31.279758 -3.437836
-12.957098 31.252380 -3.489359
-12.768287 31.428263 -3.350271
-12.714669 31.387949 -3.258867
-12.877711 31.427818 -3.398228
-12.694371 31.351101 -3.210992
-12.837089 31.391535 -3.323431
-12.713523 31.399441 -3.275263
-12.819522 31.357264 -3.279408
-12.672440 31.358339 -3.198558
-12.735404 31.294731 -3.221290
-12.871736 31.338717 -3.336635
-12.742460 31.419409 -3.312137
-12.713091 31.320007 -3.338837
-12.736559 31.260473 -3.198979
-12.954423 31.331404 -3.440451
-12.702712 31.379097 -3.234722
-12.740879 31.305998 -3.248677
-12.725817 31.288408 -3.331695
-12.784202 31.241293 -3.241222
-12.991544 31.314529 -3.477724
-12.736992 31.371912 -3.217128
-12.678054 31.326483 -3.295025
-12.707871 31.344917 -3.215982
-12.731708 31.269699 -3.211463
-12.750607 31.261156 -3.341099
-12.912683 31.252441 -3.404986
-12.765555 31.344389 -3.232050
-12.710072 31.310516 -3.192755
-12.770148 31.246220 -3.242616
-12.778704 31.234653 -3.352055
-12.795737 31.319000 -3.249588
-12.756490 31.286619 -3.228882
-12.906898 31.258307 -3.414668
-12.815963 31.212864 -3.377223
-12.882289 31.310043 -3.350467
-12.729299 31.235310 -3.287069
-12.756666 31.251682 -3.201224
-12.972320 31.306705 -3.459908
-12.810048 31.227810 -3.370118
-12.938810 31.275730 -3.439119
-12.767285 31.309851 -3.241793
-12.729244 31.360447 -3.238539
-12.812542 31.396648 -3.335701
-12.699512 31.317041 -3.207922
-12.738183 31.338074 -3.228835
-12.786368 31.354284 -3.252421
-12.742182 31.313957 -3.268368
-12.803749 31.338459 -3.262599
-12.761150 31.294973 -3.278240
-12.817883 31.320040 -3.262579
-12.788870 31.282864 -3.306048
-12.839128 31.307806 -3.282178
-12.769342 31.235252 -3.233142
-12.801414 31.227575 -3.270591
-12.895372 31.296021 -3.351341
-12.831564 31.220015 -3.302620
-12.849092 31.199966 -3.305897
-12.950337 31.233500 -3.473996
-12.739012 31.349274 -3.262955
-12.693335 31.349255 -3.255044
-12.746502 31.313755 -3.404284
-12.753112 31.328703 -3.250597
-12.707150 31.328299 -3.244632
-12.695606 31.350338 -3.259581
-12.708620 31.284149 -3.265006
-12.749030 31.347500 -3.382420
-12.768694 31.389294 -3.388417
-12.712866 31.310715 -3.268737
-12.786200 31.369556 -3.290293
-12.725453 31.270159 -3.261582
-12.773572 31.313375 -3.252587
-12.769506 31.298855 -3.407762
-12.732936 31.314589 -3.259068
-12.714332 31.332401 -3.265951
-12.746752 31.357964 -3.259363
-12.786293 31.345879 -3.422604
-12.801812 31.395367 -3.289393
-12.784954 31.372845 -3.390594
-12.732388 31.293978 -3.273400
-12.784457 31.338963 -3.245767
-12.780201 31.281246 -3.333666
-12.758746 31.302849 -3.274930
-12.729486 31.312065 -3.263067
-12.796244 31.288515 -3.420942
-12.758003 31.336578 -3.247448
-12.804405 31.330559 -3.425275
-12.821513 31.372238 -3.437058
-12.777432 31.298162 -3.331344
-12.845919 31.305904 -3.439953
-12.845993 31.305843 -3.435830
-12.776547 31.284855 -3.270837
-12.778238 31.321117 -3.254528
-12.821553 31.277609 -3.430702
-12.826294 31.317764 -3.432095
-12.837575 31.357313 -3.438473
-12.839895 31.321091 -3.433725
-12.865686 31.293247 -3.442362
-12.871536 31.297361 -3.449196
-12.846379 31.267849 -3.441647
-12.849627 31.307505 -3.443753
-12.855924 31.344410 -3.444748
-12.861878 31.310520 -3.445121
-12.898806 31.296120 -3.479720
-12.860994 31.326839 -3.449169
-12.892664 31.325243 -3.458766
-12.899755 31.293514 -3.470061
-12.872575 31.260378 -3.454277
-12.869101 31.294464 -3.448099
-12.874629 31.332138 -3.452229
-12.890608 31.307804 -3.473504
-12.918955 31.286070 -3.484760
-12.876319 31.310638 -3.448149
-12.925119 31.327099 -3.496852
-12.928321 31.290304 -3.492130
-12.915837 31.302944 -3.495787
-12.941998 31.281097 -3.499483
-12.910486 31.313738 -3.494982
-12.945473 31.317499 -3.504070
-12.955711 31.288948 -3.514394
