# .PCD v0.7 - Point Cloud Data file format
VERSION 0.7
FIELDS x y z
SIZE 4 4 4
TYPE F F F
COUNT 1 1 1
WIDTH 60
HEIGHT 1
VIEWPOINT 0 0 0 1
POINTS 60
DATA ascii
-10.359159 36.387077 -1.653126
-10.289859 36.453854 -1.625368
-10.131866 36.443211 -1.624766
-10.150544 36.536518 -1.679863
-10.237858 36.228008 -1.723562
-10.382019 36.672543 -1.708627
-10.221823 36.426926 -1.664734
-10.268169 36.601784 -1.743786
-10.167194 36.523930 -1.639923
-10.227111 36.750309 -1.710620
-10.348992 36.503529 -1.658834
-10.231402 36.369637 -1.747273
-10.209183 36.355881 -1.715439
-10.251853 36.108181 -1.710940
-10.199509 36.174221 -1.715254
-10.219322 36.582043 -1.688101
-10.189995 36.573181 -1.648883
-10.216763 36.223064 -1.685678
-10.168319 36.688007 -1.662692
-10.195438 36.401157 -1.647953
-10.188637 36.370571 -1.648754
-10.142825 36.492317 -1.627834
-10.132076 36.446484 -1.635753
-10.362804 36.711296 -1.711424
-10.193251 36.598831 -1.753613
-10.197846 36.812656 -1.711472
-10.362829 36.406429 -1.710045
-10.157890 36.139397 -1.741784
-10.171386 36.192524 -1.688283
-10.322736 36.512489 -1.697473
-10.128978 36.219875 -1.634039
-10.155079 36.291386 -1.715311
-10.168996 36.344879 -1.663980
-10.165506 36.410027 -1.742247
-10.180206 36.505402 -1.672177
-10.123581 36.426708 -1.659722
-10.199661 36.660484 -1.690810
-10.128635 36.593037 -1.664884
-10.153449 36.772373 -1.675191
-10.166361 36.182205 -1.688683
-10.175838 36.316460 -1.688261
-10.185493 36.454445 -1.687948
-10.196477 36.603664 -1.685883
-10.152892 36.077396 -1.618895
-10.166921 36.193367 -1.631721
-10.168777 36.306782 -1.647075
-10.174838 36.425743 -1.660518
-10.173080 36.543026 -1.674957
-10.171829 36.665668 -1.689318
-10.151546 36.864479 -1.638131
-10.156022 36.110733 -1.616414
-10.191300 36.240086 -1.636988
-10.189436 36.351830 -1.659670
-10.199812 36.476017 -1.681002
-10.234547 36.729362 -1.679484
-10.058706 36.393024 -1.678284
-10.117021 36.320614 -1.669319
-10.186709 36.230320 -1.666410
-10.182440 36.676487 -1.640219
-10.229256 36.829212 -1.658557
