# .PCD v0.7 - Point Cloud Data file format
VERSION 0.7
FIELDS x y z
SIZE 4 4 4
TYPE F F F
COUNT 1 1 1
WIDTH 191
HEIGHT 1
VIEWPOINT 0 0 0 1
POINTS 191
DATA ascii
-6.883360 32.683624 -0.383389
-7.119776 32.690987 -0.430931
-6.605289 32.752151 -0.275930
-6.895808 32.617706 -0.382066
-6.746070 32.748688 -0.284634
-7.172968 32.630421 -0.468061
-6.634181 32.678177 -0.285143
-6.918033 32.551537 -0.388474
-7.160189 32.576420 -0.431954
-6.799758 32.676220 -0.315132
-6.673164 32.604649 -0.303265
-6.383703 32.739365 -0.152136
-7.210829 32.517815 -0.465280
-6.946579 32.484608 -0.401253
-6.819004 32.608776 -0.308788
-7.208721 32.696381 -0.491495
-6.705332 32.533363 -0.314298
-7.251736 32.462498 -0.487466
-6.438330 32.656109 -0.175241
-6.868275 32.541821 -0.333056
-6.378768 32.618431 -0.196296
-6.865999 32.742130 -0.355746
-6.875667 32.742741 -0.346206
-6.817750 32.479507 -0.251915
-6.476346 32.578167 -0.181090
-6.435936 32.538513 -0.224391
-7.195326 32.680233 -0.489085
-6.931150 32.668056 -0.396839
-6.921245 32.669521 -0.365812
-6.553483 32.498867 -0.223839
-7.230751 32.617142 -0.502076
-6.968288 32.601135 -0.409113
-6.952009 32.600670 -0.369087
-7.263628 32.556004 -0.511245
-7.003440 32.534882 -0.417320
-7.025370 32.530609 -0.416676
-7.287645 32.497570 -0.510227
-7.055552 32.469521 -0.444163
-7.056119 32.464581 -0.417499
-6.421362 32.786423 -0.093549
-6.388020 32.778011 -0.095154
-6.422317 32.720680 -0.101963
-6.456268 32.726883 -0.107042
-6.494732 32.669613 -0.122310
-6.448047 32.663887 -0.098211
-6.972144 32.715416 -0.309914
-6.970882 32.709541 -0.316581
-6.497029 32.608353 -0.120571
-6.536218 32.613251 -0.141042
-6.999354 32.670063 -0.320631
-6.996905 32.664791 -0.323269
-6.575701 32.554344 -0.176616
-6.628883 32.558666 -0.218201
-7.021538 32.625355 -0.321997
-7.023423 32.621147 -0.329233
-6.724012 32.505508 -0.314471
-6.739613 32.509033 -0.318101
-7.054038 32.581127 -0.335287
-7.046140 32.577801 -0.328907
-7.090355 32.538757 -0.355434
-7.084690 32.535389 -0.349132
-7.140345 32.497868 -0.394119
-7.138633 32.495216 -0.390236
-7.237330 32.462734 -0.497297
-7.230144 32.459877 -0.483821
-6.630199 32.753220 -0.173905
-6.702420 32.746799 -0.213488
-6.654655 32.698650 -0.181025
-6.745945 32.697460 -0.240399
-6.666174 32.765984 -0.193904
-6.349139 32.771030 -0.066921
-6.687694 32.643787 -0.197739
-6.442564 32.745270 -0.102223
-6.775432 32.650375 -0.248684
-6.736404 32.729469 -0.220173
-6.703924 32.712563 -0.204985
-6.402512 32.709156 -0.086763
-7.195038 32.694130 -0.394648
-7.178319 32.687645 -0.395335
-6.722098 32.591488 -0.215189
-6.804456 32.602444 -0.256719
-6.500616 32.686707 -0.130388
-6.771052 32.678692 -0.231828
-6.748090 32.661297 -0.225189
-6.477755 32.648102 -0.132582
-7.222198 32.654713 -0.409009
-7.194339 32.646572 -0.395328
-6.828412 32.556812 -0.257907
-6.802354 32.540024 -0.287571
-6.556116 32.630245 -0.155895
-6.517968 32.547409 -0.234970
-6.807079 32.628578 -0.242675
-6.429990 32.525433 -0.205789
-6.793551 32.610188 -0.246518
-6.523500 32.590645 -0.142916
-7.242112 32.615993 -0.413934
-7.206570 32.605801 -0.389030
-6.893918 32.513115 -0.310000
-6.900191 32.492634 -0.382473
-6.500356 32.491730 -0.181011
-6.843169 32.580872 -0.253129
-6.618957 32.575752 -0.189475
-6.832718 32.561741 -0.257935
-6.650794 32.537304 -0.248866
-7.256974 32.577679 -0.410470
-7.238730 32.565727 -0.412738
-7.010695 32.474255 -0.429704
-6.915133 32.533630 -0.309720
-6.748773 32.526264 -0.301731
-6.919310 32.516014 -0.331071
-7.287560 32.539768 -0.429508
-6.763133 32.488571 -0.337808
-7.265419 32.525455 -0.426842
-7.026445 32.492676 -0.418292
-6.832640 32.479504 -0.363092
-7.029021 32.475071 -0.434398
-7.306214 32.487499 -0.459751
-7.083517 32.452450 -0.457491
-6.404368 32.760738 -0.122539
-6.360468 32.746143 -0.115410
-6.435872 32.718178 -0.135444
-6.388971 32.703445 -0.121998
-6.475739 32.678207 -0.160618
-6.435822 32.662586 -0.153358
-6.509511 32.637474 -0.175087
-6.455702 32.621254 -0.146608
-6.426095 32.584229 -0.197208
-6.540784 32.599117 -0.185953
-6.502715 32.583286 -0.175608
-6.510778 32.550217 -0.272751
-6.599120 32.563641 -0.234504
-6.594818 32.553280 -0.268900
-6.682478 32.535461 -0.321787
-6.665540 32.522720 -0.334552
-6.485345 32.777077 -0.189801
-6.505182 32.774590 -0.195945
-6.503788 32.738369 -0.192117
-6.524893 32.735527 -0.201302
-6.521449 32.700848 -0.191616
-6.547259 32.696712 -0.208860
-6.550100 32.663971 -0.204986
-6.561309 32.657738 -0.203774
-6.579649 32.628063 -0.221712
-6.603092 32.621887 -0.238382
-6.618514 32.594231 -0.250553
-6.636994 32.586246 -0.262510
-6.681758 32.566399 -0.315572
-6.717740 32.559708 -0.356167
-6.748151 32.540874 -0.387425
-6.763325 32.529640 -0.396422
-6.779759 32.510494 -0.405565
-6.400722 32.757732 -0.122018
-6.539726 32.767273 -0.182521
-6.428117 32.716549 -0.136489
-6.562983 32.729916 -0.191606
-6.455070 32.674999 -0.148793
-6.585402 32.693272 -0.199808
-6.482939 32.634655 -0.163485
-6.610466 32.656868 -0.210218
-6.507780 32.594162 -0.171861
-6.461263 32.551556 -0.235074
-6.635984 32.621067 -0.221821
-6.563494 32.560017 -0.222987
-6.515026 32.519398 -0.278387
-6.657649 32.585838 -0.226227
-6.646478 32.531994 -0.316684
-6.691607 32.552818 -0.249093
-6.754128 32.525810 -0.316606
-6.821234 32.503391 -0.392600
-6.334984 32.777164 -0.090223
-6.369295 32.735615 -0.108014
-6.400259 32.695484 -0.118821
-6.443857 32.656197 -0.147801
-6.464868 32.617138 -0.145124
-6.429488 32.587814 -0.177877
-6.453673 32.545685 -0.247716
-6.511728 32.581078 -0.177071
-6.509653 32.555828 -0.255281
-6.594721 32.554398 -0.264115
-6.550899 32.521091 -0.281170
-6.657637 32.526024 -0.321177
-6.441553 32.569683 -0.157963
-6.419723 32.575031 -0.136227
-6.465442 32.564560 -0.169136
-6.980443 32.499443 -0.371836
-7.009808 32.493423 -0.369205
-7.041858 32.493046 -0.378863
-7.071331 32.489864 -0.379223
-7.101367 32.487152 -0.380784
-7.134151 32.492031 -0.400476
-7.164042 32.492889 -0.407343
