# .PCD v0.7 - Point Cloud Data file format
VERSION 0.7
FIELDS x y z
SIZE 4 4 4
TYPE F F F
COUNT 1 1 1
WIDTH 31
HEIGHT 1
VIEWPOINT 0 0 0 1
POINTS 31
DATA ascii
-3.062928 32.499294 0.489286
-3.070657 32.509613 0.548639
-3.069917 32.508953 0.580271
-3.013204 32.532963 0.480986
-3.122718 32.437405 0.604813
-3.053886 32.451874 0.523189
-3.154792 32.467953 0.659488
-3.176264 32.484657 0.731305
-2.225634 32.375168 0.741355
-1.858657 32.427620 0.888021
-2.206694 32.423504 0.759534
-2.369854 32.407291 0.680174
-2.679498 32.402084 0.569960
-2.770072 32.371399 0.507270
-3.077322 32.459900 0.466093
-3.141106 32.401714 0.490948
-3.136980 32.445782 0.494722
-3.136357 32.401070 0.407468
-2.452555 31.249168 1.332241
-3.123685 32.453228 0.519569
-2.420489 31.272264 1.363099
-2.296631 31.031389 1.357098
-3.118288 32.464603 0.520051
-2.488131 31.405127 1.298185
-2.603525 31.324568 1.293121
-2.060258 30.634014 1.461559
-2.493244 31.435764 1.283406
-2.612950 31.373322 1.289062
-3.244727 32.410748 0.679071
-2.603384 31.380865 1.286587
-3.014349 31.887186 1.069267
