# .PCD v0.7 - Point Cloud Data file format
VERSION 0.7
FIELDS x y z
SIZE 4 4 4
TYPE F F F
COUNT 1 1 1
WIDTH 24
HEIGHT 1
VIEWPOINT 0 0 0 1
POINTS 24
DATA ascii
-1.668415 35.755478 1.663934
-1.600242 35.718685 1.667293
-1.672052 35.706879 1.665550
-1.655544 35.638573 1.665135
-1.772117 35.633148 1.617875
-1.735805 35.563244 1.638325
-1.668987 35.326553 1.564156
-1.669530 35.211521 1.575875
-1.690610 35.255455 1.603305
-1.659065 35.099571 1.584945
-1.676437 35.135983 1.636186
-1.656479 34.967087 1.605694
-1.626608 35.169918 1.732330
-1.642034 35.013695 1.676921
-1.663805 35.054024 1.720785
-1.805939 35.124870 1.611851
-1.623960 34.873562 1.721684
-1.777279 34.963799 1.615799
-1.853298 35.017029 1.594224
-1.919828 35.074234 1.555643
-1.595753 34.692238 1.683590
-1.725842 34.648945 1.626023
-1.580338 34.601578 1.680389
-1.701843 34.554825 1.632005
