# .PCD v0.7 - Point Cloud Data file format
VERSION 0.7
FIELDS x y z
SIZE 4 4 4
TYPE F F F
COUNT 1 1 1
WIDTH 121
HEIGHT 1
VIEWPOINT 0 0 0 1
POINTS 121
DATA ascii
-9.179818 47.654972 -1.546072
-9.283054 47.738682 -1.547845
-9.326448 47.773933 -1.578423
-9.397213 47.941948 -1.575893
-9.180958 47.707249 -1.523629
-9.251653 47.777809 -1.542990
-9.341247 47.958500 -1.531147
-9.278657 48.031498 -1.517502
-9.173854 47.775223 -1.509141
-9.265345 47.952286 -1.494417
-9.057570 47.726780 -1.491276
-9.192183 47.945377 -1.457594
-9.336134 47.731617 -1.571271
-9.318918 47.738426 -1.558060
-9.298495 47.754688 -1.527754
-9.266273 47.747845 -1.520760
-9.226168 47.739067 -1.498384
-9.193897 47.736298 -1.492028
-9.383050 47.813808 -1.600682
-9.319309 47.823933 -1.566435
-9.293434 47.871689 -1.575800
-9.272883 47.850525 -1.525103
-9.336136 47.789162 -1.577677
-9.232492 47.871231 -1.543134
-9.223520 47.871464 -1.484692
-9.298830 47.819397 -1.534708
-9.183123 47.882053 -1.504353
-9.146079 47.860390 -1.456145
-9.219312 47.803612 -1.507728
-9.095778 47.846260 -1.482906
-9.224279 47.990570 -1.515491
-9.146811 47.791786 -1.479802
-9.417139 47.865963 -1.633979
-9.397551 47.801018 -1.603317
-9.383635 47.884918 -1.600457
-9.422689 47.881485 -1.610732
-9.362070 47.807117 -1.576543
-9.397475 47.860439 -1.615779
-9.416775 47.868973 -1.628719
-9.343869 47.894913 -1.570770
-9.385764 47.886463 -1.579742
-9.331477 47.818184 -1.547461
-9.368897 47.878361 -1.580111
-9.385435 47.880947 -1.596070
-9.295756 47.892956 -1.545731
-9.346761 47.888474 -1.550973
-9.277209 47.799427 -1.532154
-9.320122 47.872456 -1.557315
-9.391419 47.879490 -1.612948
-9.344342 47.879963 -1.568111
-9.371951 47.973167 -1.566720
-9.298719 47.877544 -1.527597
-9.273374 47.925724 -1.503211
-9.232718 47.790611 -1.512237
-9.267191 47.858589 -1.537602
-9.364972 47.893391 -1.576652
-9.290740 47.862110 -1.549232
-9.316216 47.952206 -1.544394
-9.283389 47.907276 -1.482269
-9.181303 47.770893 -1.498356
-9.190546 47.873161 -1.503962
-9.211507 47.840771 -1.520874
-9.314167 47.876480 -1.554899
-9.328741 48.030819 -1.560412
-9.235087 47.839294 -1.532644
-9.279281 47.955040 -1.509210
-9.191611 47.834896 -1.492872
-9.115422 47.828587 -1.502311
-9.155182 47.817001 -1.506442
-9.259231 47.850651 -1.537682
-9.282711 48.022610 -1.526315
-9.185020 47.822433 -1.513008
-9.240975 47.953888 -1.475561
-9.144359 47.818008 -1.471792
-9.211277 47.832783 -1.517348
-9.087075 47.775398 -1.501822
-9.109985 47.768936 -1.514452
-9.215869 47.981636 -1.507484
-9.151288 47.880390 -1.481223
-9.141811 47.784206 -1.514358
-9.160883 47.955593 -1.483174
-9.084205 47.748535 -1.504530
-9.279010 47.928925 -1.589485
-9.300687 47.925526 -1.595409
-9.235990 47.888882 -1.597136
-9.271042 47.906666 -1.583101
-9.286503 47.920742 -1.591648
-9.200697 47.861595 -1.593928
-9.226120 47.857582 -1.596449
-9.246188 47.877983 -1.597464
-9.175928 47.851330 -1.576008
-9.197112 47.835159 -1.588698
-9.271471 47.917271 -1.581398
-9.238288 47.913708 -1.600119
-9.214268 47.848164 -1.593128
-9.145361 47.829628 -1.568156
-9.187802 47.889549 -1.586133
-9.169732 47.815781 -1.577178
-9.226769 47.859348 -1.598336
-9.209017 47.885151 -1.592890
-9.184450 47.818684 -1.588096
-9.117273 47.810173 -1.557327
-9.161880 47.870190 -1.571804
-9.146069 47.799770 -1.561194
-9.202275 47.836269 -1.585077
-9.184656 47.861202 -1.581116
-9.162162 47.802933 -1.572117
-9.132063 47.840706 -1.566761
-9.119700 47.778736 -1.551950
-9.174081 47.805962 -1.578735
-9.159071 47.836140 -1.570826
-9.137645 47.779980 -1.560257
-9.094436 47.759693 -1.539725
-9.151511 47.784203 -1.564689
-9.133780 47.809349 -1.563517
-9.112378 47.757072 -1.550493
-9.129284 47.760609 -1.552223
-9.112399 47.788822 -1.549378
-9.089211 47.734497 -1.540034
-9.106687 47.735104 -1.542034
-9.089080 47.763237 -1.539881
