# .PCD v0.7 - Point Cloud Data file format
VERSION 0.7
FIELDS x y z
SIZE 4 4 4
TYPE F F F
COUNT 1 1 1
WIDTH 15
HEIGHT 1
VIEWPOINT 0 0 0 1
POINTS 15
DATA ascii
-19.115377 44.686901 -5.351490
-19.124815 44.794437 -5.366236
-19.136169 44.900608 -5.380298
-19.169361 44.989326 -5.321299
-19.142477 45.006630 -5.392209
-19.027723 44.972866 -5.268375
-18.972042 45.118019 -5.291878
-19.123018 44.653393 -5.321557
-19.069723 44.536068 -5.311984
-19.218704 44.672024 -5.361455
-19.110672 44.788868 -5.322077
-19.114939 44.585812 -5.350386
-19.139833 44.854340 -5.367062
-19.078901 45.052853 -5.316340
-19.137356 45.056793 -5.353467
