# .PCD v0.7 - Point Cloud Data file format
VERSION 0.7
FIELDS x y z
SIZE 4 4 4
TYPE F F F
COUNT 1 1 1
WIDTH 31
HEIGHT 1
VIEWPOINT 0 0 0 1
POINTS 31
DATA ascii
-2.096934 35.921913 -0.530737
-2.095714 35.936775 -0.302242
-2.036341 35.921986 -0.478221
-1.927684 35.892014 -0.497365
-2.039374 35.881149 -0.244901
-1.972687 35.946754 -0.423864
-1.859528 35.930161 -0.439820
-1.911466 35.940876 -0.369314
-2.182899 35.928749 -0.283112
-2.092626 35.787670 -0.506975
-2.197050 35.948086 -0.304284
-1.923895 35.722622 -0.469407
-2.039037 35.757504 -0.453259
-2.205637 35.959644 -0.322924
-2.214354 35.963146 -0.359732
-1.978798 35.762321 -0.396778
-2.078846 35.799984 -0.376508
-2.149117 35.900574 -0.275915
-2.155520 35.897106 -0.314459
-2.017193 35.827267 -0.321425
-2.090744 35.914875 -0.262485
-2.219280 35.835869 -0.461721
-2.227601 35.845089 -0.480926
-2.233870 35.826477 -0.496949
-2.236887 35.809227 -0.530694
-2.179624 35.793976 -0.448043
-2.027726 35.621201 -0.588742
-2.181458 35.777718 -0.483700
-2.120239 35.796486 -0.434511
-2.022815 35.602745 -0.483896
-2.054245 35.829697 -0.383317
