# .PCD v0.7 - Point Cloud Data file format
VERSION 0.7
FIELDS x y z
SIZE 4 4 4
TYPE F F F
COUNT 1 1 1
WIDTH 13
HEIGHT 1
VIEWPOINT 0 0 0 1
POINTS 13
DATA ascii
-6.008447 37.114521 -0.140879
-6.006495 37.149254 -0.154146
-6.021835 37.190060 -0.158303
-5.985704 36.959229 -0.114594
-5.984668 36.995800 -0.140759
-5.989599 37.005451 -0.113115
-6.035284 37.033375 -0.145934
-5.987906 37.041142 -0.140958
-6.029696 37.078514 -0.150940
-5.990714 37.083401 -0.142964
-5.986876 37.079185 -0.126082
-6.058003 37.121613 -0.145520
-6.005764 37.114964 -0.150149
