# .PCD v0.7 - Point Cloud Data file format
VERSION 0.7
FIELDS x y z
SIZE 4 4 4
TYPE F F F
COUNT 1 1 1
WIDTH 96
HEIGHT 1
VIEWPOINT 0 0 0 1
POINTS 96
DATA ascii
-10.038103 35.993073 -1.588223
-9.950134 36.020611 -1.548813
-9.967074 36.246716 -1.567472
-9.973169 36.288136 -1.572688
-10.083141 35.957653 -1.607668
-9.950206 35.954273 -1.582667
-10.069816 35.861771 -1.579179
-9.967852 36.049828 -1.538419
-10.061116 36.035686 -1.600190
-9.972442 36.058388 -1.566510
-10.085371 36.099121 -1.584911
-10.067104 36.134861 -1.606232
-9.942452 36.081249 -1.550378
-9.974065 36.152210 -1.568931
-10.066673 36.333496 -1.637455
-10.085428 36.546349 -1.616691
-9.912737 36.601700 -1.612575
-10.058584 36.211002 -1.606980
-9.920400 36.281334 -1.612763
-9.954119 36.505764 -1.581732
-9.932270 36.175701 -1.585819
-9.924616 36.362896 -1.556006
-10.023746 35.943462 -1.645193
-9.943664 35.946949 -1.616267
-10.040421 36.139591 -1.646904
-10.027249 36.128517 -1.612916
-10.045875 36.186176 -1.633461
-10.041252 36.178642 -1.641085
-9.890160 35.969807 -1.581273
-10.045897 36.199265 -1.617069
-10.063882 36.269501 -1.634055
-10.005194 36.188835 -1.601683
-9.906096 36.095200 -1.587809
-9.943604 36.179821 -1.605226
-9.969743 36.189014 -1.601431
-10.060865 36.392982 -1.655011
-9.887754 36.133171 -1.601465
-9.906524 36.202553 -1.611271
-9.903097 36.176315 -1.573142
-9.887115 36.310078 -1.629454
-10.084132 36.260151 -1.616257
-9.980098 36.233875 -1.592995
-10.051243 35.819870 -1.632829
-10.093444 36.216183 -1.630023
-9.949671 36.283241 -1.544971
-10.033107 36.627396 -1.659202
-10.058692 35.887604 -1.575881
-10.048826 36.249142 -1.586742
-9.948779 35.847752 -1.559354
-9.957836 36.230244 -1.561252
-10.030882 36.690044 -1.702995
-10.095207 36.263805 -1.598112
-10.053609 35.993122 -1.591058
-9.952896 36.188774 -1.587558
-10.095417 36.245026 -1.620201
-9.990233 35.997211 -1.550752
-9.939904 36.247017 -1.534380
-10.021339 36.237217 -1.586124
-9.947849 36.228298 -1.552698
-9.951285 36.053150 -1.532084
-10.006515 36.634525 -1.610874
-9.918662 35.955570 -1.517763
-9.922560 36.602211 -1.577973
-9.907472 36.667061 -1.560410
-10.024811 36.731998 -1.624191
-9.990911 36.748863 -1.563758
-9.973761 36.643383 -1.561468
-10.100888 36.277985 -1.628561
-10.014445 36.204487 -1.682045
-9.999603 36.205204 -1.623217
-10.076873 36.417427 -1.550320
-10.076361 36.171448 -1.626768
-10.011865 36.275784 -1.665049
-10.009401 36.151077 -1.599791
-10.035648 36.067135 -1.634522
-10.008949 36.351883 -1.660146
-10.109666 36.073322 -1.621397
-9.995656 35.963795 -1.638685
-10.006989 36.454857 -1.638634
-9.957409 36.047298 -1.568637
-9.923051 35.907104 -1.559867
-9.875116 35.936916 -1.584654
-9.964751 36.021400 -1.579573
-9.912277 35.936050 -1.595037
-9.913243 35.992893 -1.555470
-9.956630 36.105053 -1.572819
-9.962970 35.985062 -1.566898
-9.868663 35.922253 -1.559468
-9.996614 36.226665 -1.593117
-9.824169 35.867115 -1.592071
-9.895658 36.062313 -1.556044
-9.882801 35.883247 -1.586903
-9.934122 36.196815 -1.567328
-9.915852 35.905567 -1.591914
-9.836762 36.065571 -1.596883
-9.875759 35.901310 -1.557510
