# .PCD v0.7 - Point Cloud Data file format
VERSION 0.7
FIELDS x y z
SIZE 4 4 4
TYPE F F F
COUNT 1 1 1
WIDTH 42
HEIGHT 1
VIEWPOINT 0 0 0 1
POINTS 42
DATA ascii
-12.167961 35.720482 -2.367680
-12.113507 35.839123 -2.410684
-12.106047 36.014515 -2.432867
-12.146998 35.795666 -2.438355
-12.151847 35.972069 -2.442805
-12.267137 35.955448 -2.362123
-12.067063 36.053493 -2.343499
-12.129276 36.006638 -2.509297
-12.189449 36.021458 -2.509045
-12.134771 36.092983 -2.456724
-12.132142 36.047791 -2.470251
-11.991180 36.044052 -2.439255
-12.257768 36.485443 -2.471397
-12.232985 35.901470 -2.475607
-12.033124 36.034714 -2.441631
-12.124399 36.018135 -2.497599
-12.125844 36.435883 -2.442929
-12.060302 35.828617 -2.457564
-12.112348 36.080219 -2.446904
-12.184732 36.057835 -2.508006
-12.224012 36.037033 -2.353885
-11.995013 36.046021 -2.421815
-12.133520 36.083267 -2.464032
-11.995614 36.027321 -2.443212
-12.359195 36.288506 -2.448919
-12.196825 35.836720 -2.464721
-12.225137 36.160580 -2.466649
-12.206261 35.794987 -2.482371
-12.137453 35.818607 -2.438075
-12.185358 36.193241 -2.413639
-12.229116 36.250771 -2.479301
-12.157902 35.793713 -2.451154
-12.192283 36.298523 -2.419260
-12.225171 35.987156 -2.506010
-12.182812 35.891392 -2.476173
-12.221316 36.119453 -2.458925
-12.213671 36.054081 -2.438113
-12.166678 35.944389 -2.462232
-12.096733 35.825298 -2.470171
-12.162278 36.109520 -2.425841
-12.148400 36.023544 -2.415412
-12.056640 35.836254 -2.474124
