# .PCD v0.7 - Point Cloud Data file format
VERSION 0.7
FIELDS x y z
SIZE 4 4 4
TYPE F F F
COUNT 1 1 1
WIDTH 20
HEIGHT 1
VIEWPOINT 0 0 0 1
POINTS 20
DATA ascii
1.845270 -0.784392 2.636038
1.818702 -0.819357 2.618853
1.788141 -0.851298 2.597671
1.760580 -0.884252 2.578490
1.732020 -0.916213 2.560310
1.725377 -0.959373 2.574117
1.785081 -1.257851 2.594797
1.805087 -1.232939 2.608009
1.725634 -1.273638 2.547622
1.759574 -1.256834 2.578818
1.746942 -1.303023 2.596571
1.755879 -1.539999 2.567248
1.691447 -1.552832 2.526070
1.760401 -1.556140 2.574239
1.698752 -1.483788 2.511568
1.727852 -1.596245 2.576968
1.695118 -1.547086 2.546232
1.681380 -1.764866 2.507829
1.678797 -1.662794 2.487548
1.714899 -1.808158 2.540748
