# .PCD v0.7 - Point Cloud Data file format
VERSION 0.7
FIELDS x y z
SIZE 4 4 4
TYPE F F F
COUNT 1 1 1
WIDTH 108
HEIGHT 1
VIEWPOINT 0 0 0 1
POINTS 108
DATA ascii
1.806416 -0.601677 2.491078
1.786668 -0.636510 2.477976
1.772933 -0.674438 2.474849
1.746189 -0.706199 2.453777
1.723451 -0.739028 2.439693
1.701722 -0.772886 2.428603
1.682997 -0.807773 2.420501
1.781069 -0.861210 2.471042
4.046803 -2.200386 1.032449
3.919099 -2.214387 1.032585
3.903481 -2.219848 0.982896
3.624611 -2.185724 0.957270
3.884714 -2.197181 0.916325
3.776537 -2.219945 1.520115
3.907578 -2.239747 1.614044
3.833688 -2.212857 1.411322
3.680900 -2.206464 0.938353
3.507916 -2.194593 0.942426
3.597008 -2.178477 0.830662
3.430018 -2.174440 0.923686
3.892966 -2.218668 1.294528
3.848029 -2.238801 1.521484
3.543009 -2.226343 1.560481
3.471318 -2.190115 0.896814
3.400445 -2.170237 0.801055
3.672516 -2.191245 0.820040
3.375329 -2.197935 1.406943
3.468603 -2.183576 0.844086
3.473399 -2.213527 1.477912
3.351415 -2.213773 1.496880
3.406532 -2.187870 1.299181
3.452977 -2.174972 0.785499
3.437855 -2.190735 1.186441
3.287801 -2.204023 1.421314
3.432864 -2.220772 1.405282
2.077621 -2.086970 0.287991
2.020650 -2.114206 0.634963
2.012610 -2.111719 0.689996
1.978076 -2.079944 0.278260
1.988051 -2.097533 0.343133
2.063806 -2.114984 0.616101
2.008298 -2.080743 0.260423
2.076045 -2.118986 0.619253
1.979441 -2.081809 0.265481
1.928098 -2.112097 0.617186
1.926031 -2.111661 0.678194
1.990127 -2.113104 0.624275
2.488026 -2.722077 0.342247
1.898491 -2.094541 0.337356
2.019324 -2.102198 0.529474
1.963246 -2.106930 0.603372
1.895812 -2.131129 1.053149
2.081551 -2.112398 0.449538
1.911749 -2.073777 0.256681
1.947858 -2.122950 1.039314
2.054510 -2.115749 0.594576
1.972494 -2.109917 0.604531
1.930959 -2.132122 1.057297
1.837535 -2.106003 0.600430
1.830460 -2.100589 0.663479
1.896580 -2.110019 0.608502
2.363492 -2.707040 0.329584
1.812936 -2.092549 0.331565
1.873687 -2.104889 0.592584
1.923791 -2.101171 0.519689
1.926275 -2.113156 0.953616
1.893146 -2.070589 0.235936
2.004389 -2.121465 0.886651
2.375713 -2.684906 0.317956
1.862284 -2.123835 1.021489
1.977031 -2.106389 0.440785
1.836387 -2.122934 1.030555
1.879956 -2.107853 0.590739
2.370897 -2.719918 0.319747
1.956981 -2.114715 0.583782
1.753892 -2.104551 0.653624
1.886427 -2.124839 1.025627
1.743977 -2.092909 0.582717
1.812032 -2.110961 0.595680
1.943567 -2.136702 1.017687
1.787133 -2.102863 0.582786
1.831245 -2.096159 0.510919
1.841713 -2.117072 0.938775
1.904849 -2.117367 0.868885
1.774692 -2.117711 1.001731
1.878498 -2.101403 0.434034
1.796394 -2.108826 0.580925
1.671312 -2.098507 0.641859
1.864429 -2.111685 0.573006
1.802853 -2.126710 1.005807
1.722463 -2.100896 0.580950
1.811004 -2.072421 0.211355
1.844985 -2.124561 0.994977
1.700575 -2.097842 0.573020
1.746706 -2.098163 0.504103
1.754147 -2.114988 0.922988
1.811304 -2.115288 0.853106
1.786974 -2.100423 0.428246
1.709849 -2.105788 0.569143
1.721279 -2.127604 0.987989
1.774882 -2.108666 0.563225
1.762413 -2.126464 0.978150
1.667582 -2.109900 0.906218
1.722759 -2.114228 0.839311
1.690338 -2.107657 0.554421
1.677845 -2.123365 0.960358
1.583006 -2.100815 0.889469
1.640212 -2.115177 0.826491
