# .PCD v0.7 - Point Cloud Data file format
VERSION 0.7
FIELDS x y z
SIZE 4 4 4
TYPE F F F
COUNT 1 1 1
WIDTH 577
HEIGHT 1
VIEWPOINT 0 0 0 1
POINTS 577
DATA ascii
1.717277 -1.534265 1.295398
1.731247 -1.538220 1.224390
1.753218 -1.538175 1.156380
1.768188 -1.542130 1.085371
1.660273 -1.535281 1.299420
1.733244 -1.540227 1.230387
1.676266 -1.540270 1.284410
1.649261 -1.539266 1.271422
1.698253 -1.534248 1.255405
1.663231 -1.545222 1.202412
1.679202 -1.544179 1.134406
1.646369 -1.526441 1.549430
1.676337 -1.535387 1.469413
1.697174 -1.554135 1.067392
1.570441 -1.515566 1.730468
1.596256 -1.545280 1.273439
1.665230 -1.549230 1.209408
1.590248 -1.549269 1.253439
1.610250 -1.548270 1.259431
1.629236 -1.541249 1.230428
1.578424 -1.522544 1.693460
1.594401 -1.521511 1.642454
1.602219 -1.557227 1.186429
1.614380 -1.523475 1.590445
1.613189 -1.555183 1.117425
1.534421 -1.530553 1.692473
1.557387 -1.537497 1.608459
1.581352 -1.536442 1.524450
1.600317 -1.539386 1.439440
1.618158 -1.556139 1.045422
1.518425 -1.532565 1.706478
1.526236 -1.547277 1.243465
1.527232 -1.553270 1.231461
1.595213 -1.555232 1.186432
1.539230 -1.548267 1.229459
1.561219 -1.544249 1.205453
1.523408 -1.535542 1.668474
1.540388 -1.536512 1.622466
1.531202 -1.557228 1.162457
1.563370 -1.543480 1.576452
1.538462 -1.524629 1.809474
1.468399 -1.528546 1.656500
1.542173 -1.559186 1.096451
1.492368 -1.540494 1.578483
1.516335 -1.543442 1.499471
1.439595 -1.519855 2.143517
1.529299 -1.544387 1.413465
1.452401 -1.534557 1.666503
1.539140 -1.555143 1.023454
1.460217 -1.548274 1.214491
1.456212 -1.546268 1.203493
1.447540 -1.523774 2.012511
1.530198 -1.561234 1.166453
1.477214 -1.555267 1.206479
1.434557 -1.512805 2.058523
1.499204 -1.551251 1.185473
1.451382 -1.530533 1.626505
1.479493 -1.519702 1.903500
1.461529 -1.520759 1.989507
1.457486 -1.520696 1.887509
1.469364 -1.533505 1.584496
1.472189 -1.566232 1.146474
1.486345 -1.536474 1.537487
1.418386 -1.540547 1.637512
1.468440 -1.526626 1.775500
1.427348 -1.540491 1.548508
1.472156 -1.559189 1.075478
1.444313 -1.539438 1.466502
1.382572 -1.523846 2.104537
1.380571 -1.525846 2.102536
1.398384 -1.546555 1.640516
1.401199 -1.553271 1.186510
1.462282 -1.550389 1.390487
1.471126 -1.560147 1.005477
1.395198 -1.548272 1.186516
1.395615 -1.504919 2.222543
1.458179 -1.556234 1.140485
1.384516 -1.524766 1.973535
1.409194 -1.551265 1.178508
1.385541 -1.526804 2.034534
1.399367 -1.543533 1.604517
1.423574 -1.524850 2.117519
1.430186 -1.550251 1.159500
1.432483 -1.539707 1.890506
1.357659 -1.506996 2.333557
1.402508 -1.527754 1.957525
1.380615 -1.504925 2.225549
1.413348 -1.543505 1.561511
1.396466 -1.525693 1.857529
1.399169 -1.557231 1.119508
1.427328 -1.542474 1.514506
1.366371 -1.548548 1.616527
1.407423 -1.535626 1.751518
1.392564 -1.522847 2.101532
1.368331 -1.545490 1.524528
1.410144 -1.565193 1.059498
1.333555 -1.532841 2.077550
1.383297 -1.545437 1.443522
1.320545 -1.525830 2.056560
1.340183 -1.551269 1.163536
1.332360 -1.542542 1.599545
1.335182 -1.551268 1.161538
1.398267 -1.555388 1.369510
1.351605 -1.522919 2.207550
1.405113 -1.565150 0.989501
1.330499 -1.530759 1.946553
1.325517 -1.526789 1.992558
1.348179 -1.554263 1.155532
1.393164 -1.557233 1.119511
1.339348 -1.545525 1.573541
1.373173 -1.557250 1.141519
1.356551 -1.523837 2.077548
1.316649 -1.525993 2.317563
1.312662 -1.522014 2.349567
1.365460 -1.535694 1.851537
1.342487 -1.528742 1.921550
1.300695 -1.531065 2.428566
1.334604 -1.521922 2.208558
1.354332 -1.546499 1.535535
1.344455 -1.537690 1.838544
1.339156 -1.560230 1.101532
1.311355 -1.550539 1.589550
1.375318 -1.556473 1.499520
1.332544 -1.524834 2.067558
1.346408 -1.541619 1.726542
1.277534 -1.531826 2.039576
1.317320 -1.556487 1.507544
1.347131 -1.567192 1.042525
1.267525 -1.531815 2.020580
1.287172 -1.556268 1.148557
1.326284 -1.552434 1.424543
1.278344 -1.549534 1.572565
1.259708 -1.530097 2.469585
1.281169 -1.558265 1.142559
1.292584 -1.523904 2.169575
1.275482 -1.534749 1.916576
1.272500 -1.533778 1.962578
1.337254 -1.562386 1.350533
1.298169 -1.566262 1.141547
1.344103 -1.572152 0.977524
1.332152 -1.559231 1.101537
1.286334 -1.553518 1.549560
1.315160 -1.561247 1.122543
1.262644 -1.529002 2.318585
1.257625 -1.524974 2.272590
1.242668 -1.530041 2.376593
1.289472 -1.535733 1.895570
1.304441 -1.534684 1.819564
1.305539 -1.536833 2.059563
1.280587 -1.527912 2.179579
1.260341 -1.555534 1.568570
1.300318 -1.553493 1.513554
1.287147 -1.568231 1.088551
1.284436 -1.538679 1.807570
1.314301 -1.555466 1.472548
1.228518 -1.537815 2.011595
1.277529 -1.530827 2.042579
1.259304 -1.556481 1.482570
1.284391 -1.543612 1.699568
1.289121 -1.573193 1.028548
1.240164 -1.566268 1.136572
1.220510 -1.543805 1.993595
1.211688 -1.536080 2.432604
1.227329 -1.557526 1.547583
1.272273 -1.561432 1.408563
1.230158 -1.567263 1.125576
1.238565 -1.527892 2.137598
1.225468 -1.542742 1.893594
1.223485 -1.541769 1.936595
1.239155 -1.565258 1.119574
1.233320 -1.558512 1.526581
1.278142 -1.565232 1.087558
1.278242 -1.568384 1.332556
1.206622 -1.528984 2.277610
1.209608 -1.532962 2.243607
1.260149 -1.567246 1.106564
1.192647 -1.535024 2.337613
1.241459 -1.545727 1.874586
1.280091 -1.574153 0.961552
1.264436 -1.555686 1.814570
1.207326 -1.555527 1.543594
1.245520 -1.536822 2.026590
1.222566 -1.527897 2.142605
1.247305 -1.559489 1.492575
1.232136 -1.571230 1.073574
1.259289 -1.560462 1.452570
1.223416 -1.535668 1.774600
1.192512 -1.556816 2.003600
1.207292 -1.561478 1.464591
1.228517 -1.541823 2.024595
1.194156 -1.576269 1.126587
1.226376 -1.548607 1.677591
1.231109 -1.574193 1.012573
1.160665 -1.537061 2.390626
1.177499 -1.559800 1.974605
1.174314 -1.562518 1.521604
1.211257 -1.559427 1.384591
1.194555 -1.541889 2.122609
1.167446 -1.537729 1.857623
1.180148 -1.577261 1.109593
1.172469 -1.547760 1.908615
1.188143 -1.572256 1.102593
1.177302 -1.558503 1.497606
1.155602 -1.531971 2.243632
1.157588 -1.534947 2.206629
1.136619 -1.530000 2.285641
1.229134 -1.578233 1.077573
1.159314 -1.561523 1.525612
1.209139 -1.574246 1.092583
1.187443 -1.548719 1.847608
1.207222 -1.557377 1.302595
1.180558 -1.544897 2.132614
1.223082 -1.580155 0.950574
1.190289 -1.558482 1.466601
1.197510 -1.549820 2.012604
1.181127 -1.578232 1.062593
1.208277 -1.566460 1.436589
1.162395 -1.530656 1.740630
1.152277 -1.560472 1.440616
1.182508 -1.554822 2.011608
1.146146 -1.582269 1.113605
1.107639 -1.532039 2.342653
1.178100 -1.581195 1.002593
1.175365 -1.558606 1.662609
1.119296 -1.561509 1.492630
1.156244 -1.562424 1.365614
1.126998 -1.576051 0.756618
1.124133 -1.576257 1.087619
1.109587 -1.537961 2.217649
1.114303 -1.568521 1.509628
1.129291 -1.566500 1.479623
1.109571 -1.539936 2.177648
1.137133 -1.577255 1.087613
1.092604 -1.539989 2.258655
1.172122 -1.577233 1.061599
1.154126 -1.574244 1.074608
1.131543 -1.550890 2.108633
1.144279 -1.570481 1.453615
1.151210 -1.561376 1.286618
1.129117 -1.582233 1.049614
1.151261 -1.563454 1.412617
1.168073 -1.587159 0.941595
1.123392 -1.551661 1.737636
1.105267 -1.568471 1.427633
1.063622 -1.538028 2.313669
1.091132 -1.577267 1.094633
1.122089 -1.583197 0.989618
1.120352 -1.561602 1.642632
1.080992 -1.583054 0.749634
1.069281 -1.566503 1.468650
1.107234 -1.569425 1.352632
1.079124 -1.587256 1.074633
1.063287 -1.565513 1.484653
1.064572 -1.544953 2.193665
1.048587 -1.546978 2.229671
1.064556 -1.547928 2.153664
1.079277 -1.570494 1.457643
1.082119 -1.575252 1.067639
1.124114 -1.587235 1.051615
1.108119 -1.586246 1.065622
1.106393 -1.564669 1.747636
1.063509 -1.528863 2.048676
1.046460 -1.558784 1.915665
1.091264 -1.569475 1.430640
1.077105 -1.582232 1.034637
1.100250 -1.567453 1.396637
1.102202 -1.573379 1.277633
1.074379 -1.557657 1.719654
1.114065 -1.594163 0.932615
1.057255 -1.572469 1.410652
1.029616 -1.558027 2.304673
1.045123 -1.581267 1.082652
1.017435 -1.556755 1.862679
1.073081 -1.590199 0.979636
1.030982 -1.583057 0.739657
1.028409 -1.555714 1.799675
1.040502 -1.545858 2.034677
1.022269 -1.574499 1.449666
1.065337 -1.563598 1.621656
1.014272 -1.563508 1.462676
1.025420 -1.558733 1.828675
1.056223 -1.573424 1.337653
1.008546 -1.534934 2.148697
1.014536 -1.545915 2.119687
1.028112 -1.590255 1.057654
0.994560 -1.539957 2.181699
1.025259 -1.565486 1.430671
1.038110 -1.586253 1.056653
1.070101 -1.584234 1.035641
1.037397 -1.556697 1.774672
1.053376 -1.560661 1.720663
1.058108 -1.588246 1.051643
0.997442 -1.555773 1.885689
1.027507 -1.549869 2.048680
1.037248 -1.565469 1.405667
1.035100 -1.595237 1.030649
1.053240 -1.572452 1.382656
1.035461 -1.551798 1.936676
1.020969 -1.582043 0.713663
1.023365 -1.558653 1.698677
1.002965 -1.583040 0.704670
1.049192 -1.578380 1.264654
1.059055 -1.597166 0.922639
0.972584 -1.542000 2.245708
1.003116 -1.589270 1.074666
1.006241 -1.570465 1.390677
1.025460 -1.555799 1.935678
0.975424 -1.568751 1.845691
0.985975 -1.588062 0.733675
0.983396 -1.560710 1.780693
0.997491 -1.552854 2.017692
0.971262 -1.569507 1.448692
1.024073 -1.596203 0.971654
0.980406 -1.562727 1.806693
0.971253 -1.572491 1.423691
0.969536 -1.545931 2.133708
1.014325 -1.566596 1.604677
0.965516 -1.543902 2.085711
0.952546 -1.547948 2.156714
1.007213 -1.578423 1.323673
0.979100 -1.592253 1.041675
0.979247 -1.571483 1.413688
0.992385 -1.561693 1.755689
0.957430 -1.562768 1.867703
0.989100 -1.589252 1.042673
1.024094 -1.591237 1.027658
1.004363 -1.562658 1.702684
1.008098 -1.591246 1.037665
0.978491 -1.550861 2.023702
0.992238 -1.572468 1.391683
1.000963 -1.588043 0.707670
0.985090 -1.596238 1.017671
1.004227 -1.574450 1.365677
0.972960 -1.584046 0.703684
0.990451 -1.560797 1.923691
0.981357 -1.570654 1.689689
0.953955 -1.585043 0.693691
0.934573 -1.553995 2.228719
0.957106 -1.592270 1.062685
0.960231 -1.574465 1.377695
1.000183 -1.586382 1.255672
1.007046 -1.600169 0.912660
0.975444 -1.553792 1.911702
0.955950 -1.590035 0.681688
0.926405 -1.567739 1.812714
0.939384 -1.565707 1.763710
0.927251 -1.571504 1.432711
0.951477 -1.556849 1.996711
0.928526 -1.554927 2.117722
0.932390 -1.562718 1.779715
0.973064 -1.598206 0.961676
0.911531 -1.554939 2.132728
0.926241 -1.579488 1.406707
0.921502 -1.547894 2.062729
0.916418 -1.568763 1.849718
0.968317 -1.576598 1.595692
0.961204 -1.586426 1.314689
0.933090 -1.599254 1.028692
0.945371 -1.562688 1.734710
0.973954 -1.588042 0.697682
0.933235 -1.575480 1.395707
0.961354 -1.570658 1.690699
0.944091 -1.596254 1.031690
0.974083 -1.592238 1.014680
0.963089 -1.597248 1.027681
0.934479 -1.555858 2.006719
0.948228 -1.578467 1.378699
0.949952 -1.585046 0.696694
0.939081 -1.600240 1.008690
0.959218 -1.579451 1.354694
0.894559 -1.558986 2.204734
0.925951 -1.588049 0.694703
0.942439 -1.563795 1.907711
0.915099 -1.598273 1.054701
0.931343 -1.569649 1.668712
0.908947 -1.590045 0.684709
0.917222 -1.581466 1.367711
0.947171 -1.585382 1.240696
0.934437 -1.565795 1.904714
0.950034 -1.595171 0.899689
0.889244 -1.580505 1.423723
0.909943 -1.594040 0.675707
0.895372 -1.569703 1.746728
0.878386 -1.565729 1.782737
0.909466 -1.563846 1.981726
0.881507 -1.551916 2.087745
0.891380 -1.571716 1.765728
0.881491 -1.556891 2.046741
0.867514 -1.557928 2.103747
0.874406 -1.571759 1.830735
0.880228 -1.583484 1.387726
0.927056 -1.605210 0.954693
0.891226 -1.583480 1.383721
0.905363 -1.574689 1.725721
0.907189 -1.578422 1.293718
0.886079 -1.601253 1.013712
0.920306 -1.580598 1.582711
0.896079 -1.594253 1.016713
0.926947 -1.592047 0.691702
0.918345 -1.577658 1.679714
0.932077 -1.602243 1.009693
0.912077 -1.593247 1.011707
0.902217 -1.580466 1.363719
0.890467 -1.560854 1.989736
0.892072 -1.600242 0.997711
0.914208 -1.583451 1.342713
0.907947 -1.596051 0.692707
0.852543 -1.561976 2.177751
0.868087 -1.595273 1.040724
0.898429 -1.570795 1.895727
0.888334 -1.577650 1.658727
0.870209 -1.579463 1.349733
0.889425 -1.567793 1.889733
0.895159 -1.583383 1.226721
0.848234 -1.585505 1.411739
0.905029 -1.606178 0.896703
0.852361 -1.572701 1.731745
0.838376 -1.576726 1.767749
0.866454 -1.567842 1.963743
0.840494 -1.555910 2.067761
0.830389 -1.568750 1.804757
0.848367 -1.576712 1.747745
0.839477 -1.560885 2.025759
0.824498 -1.560919 2.076764
0.836216 -1.588482 1.370743
0.879047 -1.607213 0.945714
0.862352 -1.578686 1.709738
0.877337 -1.584660 1.670729
0.849216 -1.590480 1.370736
0.839068 -1.601252 0.998734
0.869186 -1.595429 1.293725
0.885068 -1.603245 0.999714
0.855073 -1.606256 1.009724
0.869293 -1.578596 1.565736
0.872071 -1.606251 1.006718
0.860208 -1.587467 1.352734
0.847455 -1.564851 1.973753
0.868197 -1.583450 1.327734
0.845061 -1.599244 0.986733
0.810525 -1.561965 2.148770
0.824077 -1.594273 1.028745
0.826199 -1.580463 1.336753
0.853419 -1.574794 1.882746
0.837317 -1.570644 1.633755
0.846415 -1.572792 1.876750
0.808225 -1.590505 1.400754
0.850152 -1.592387 1.220736
0.810350 -1.576699 1.716762
0.863026 -1.621186 0.896714
0.800483 -1.561907 2.051776
0.821440 -1.567837 1.942764
0.799388 -1.587757 1.806760
0.794361 -1.578719 1.744768
0.795461 -1.559876 1.999779
0.806356 -1.581709 1.731761
0.781480 -1.560908 2.047785
0.795207 -1.596481 1.357757
0.818339 -1.578683 1.691759
0.829322 -1.579655 1.649754
0.801201 -1.585475 1.348761
0.820173 -1.590427 1.276751
0.839059 -1.603247 0.989735
0.828062 -1.608253 0.996737
0.818199 -1.592468 1.341751
0.803442 -1.566848 1.955772
0.828190 -1.591454 1.321747
0.771513 -1.567960 2.129785
0.819279 -1.575594 1.547760
0.789195 -1.594468 1.334761
0.808408 -1.577793 1.869764
0.796309 -1.578645 1.625768
0.802404 -1.573790 1.862769
0.767214 -1.591503 1.386772
0.767338 -1.576695 1.699782
0.758468 -1.561899 2.029795
0.781430 -1.573835 1.930778
0.806146 -1.601392 1.216751
0.758453 -1.570875 1.990790
0.742467 -1.566900 2.026799
0.757335 -1.570696 1.698791
0.772324 -1.574675 1.669782
0.786311 -1.580652 1.635773
0.747191 -1.591474 1.334782
0.762195 -1.595476 1.341774
0.776190 -1.595466 1.329769
0.778167 -1.600430 1.272765
0.729496 -1.565947 2.100806
0.763434 -1.572846 1.945788
0.786183 -1.595454 1.312765
0.773269 -1.576592 1.534782
0.746185 -1.595466 1.322782
0.750298 -1.576641 1.609792
0.729208 -1.598503 1.378787
0.724325 -1.573688 1.679805
0.720460 -1.569896 2.018809
0.743425 -1.583835 1.925792
0.717441 -1.571866 1.969810
0.717326 -1.574691 1.683808
0.704458 -1.575895 2.012813
0.761140 -1.606394 1.209771
0.734318 -1.582675 1.661797
0.746305 -1.586652 1.628790
0.721187 -1.601474 1.329791
0.707184 -1.600473 1.323797
0.735182 -1.600465 1.319786
0.735160 -1.602431 1.263785
0.746177 -1.602455 1.306781
0.725430 -1.583847 1.941801
0.731264 -1.584594 1.530798
0.707180 -1.603468 1.316797
0.688197 -1.594499 1.362810
0.708289 -1.579639 1.598812
0.675347 -1.580732 1.741825
0.684316 -1.577686 1.668823
0.679447 -1.568888 1.997831
0.693402 -1.565817 1.886827
0.678431 -1.576862 1.955826
0.663443 -1.575883 1.986833
0.666322 -1.584696 1.680827
0.675314 -1.575686 1.665829
0.693308 -1.584671 1.647816
0.704295 -1.585650 1.615811
0.705170 -1.605456 1.298800
0.681414 -1.577837 1.917826
0.690260 -1.595599 1.529813
0.669284 -1.586641 1.593827
0.673373 -1.570779 1.821835
0.635333 -1.577724 1.720846
0.646309 -1.582685 1.659839
0.642439 -1.574885 1.986846
0.655394 -1.569815 1.875844
0.635414 -1.568849 1.926852
0.635303 -1.576681 1.649848
0.625310 -1.586690 1.661846
0.653299 -1.586669 1.635835
0.668292 -1.595653 1.614824
0.614458 -1.571920 2.037860
0.631391 -1.557821 1.880862
0.648254 -1.598601 1.523832
0.601329 -1.587725 1.715858
0.633363 -1.571776 1.808855
0.631364 -1.570778 1.810856
0.633284 -1.602648 1.597836
0.610304 -1.590687 1.654853
0.602427 -1.574878 1.968866
0.615385 -1.572813 1.864862
0.598406 -1.575847 1.916867
0.584418 -1.578866 1.944871
0.600300 -1.589683 1.646858
0.587303 -1.595688 1.651860
0.616294 -1.594670 1.630849
0.628284 -1.597653 1.605843
0.580452 -1.582919 2.030871
0.600395 -1.579831 1.891866
0.566322 -1.592724 1.706872
0.593355 -1.573775 1.799874
0.592358 -1.574779 1.805874
0.567422 -1.582879 1.962879
0.581382 -1.583817 1.864873
0.561398 -1.579845 1.905884
0.548410 -1.586863 1.932885
0.543441 -1.583912 2.011889
0.562388 -1.583831 1.884882
0.560358 -1.589785 1.809881
0.529412 -1.582874 1.948898
0.557360 -1.590789 1.815882
0.542373 -1.583813 1.851892
0.526394 -1.591847 1.902894
0.511402 -1.594861 1.921899
0.507432 -1.589908 1.998904
0.525384 -1.590834 1.882897
0.525356 -1.599791 1.812893
0.493407 -1.590876 1.943912
0.519356 -1.597793 1.814897
0.507370 -1.593818 1.852904
0.490389 -1.598848 1.896909
0.474429 -1.602910 1.996913
