# .PCD v0.7 - Point Cloud Data file format
VERSION 0.7
FIELDS x y z
SIZE 4 4 4
TYPE F F F
COUNT 1 1 1
WIDTH 26
HEIGHT 1
VIEWPOINT 0 0 0 1
POINTS 26
DATA ascii
-0.764444 -1.672985 1.432655
-0.785890 -1.674512 1.513879
-0.793480 -1.642991 1.420547
-0.811969 -1.642471 1.500773
-0.823472 -1.616058 1.411385
-0.838041 -1.610431 1.487665
-0.859316 -1.599326 1.411084
-0.867986 -1.587577 1.483417
-0.888298 -1.572419 1.403900
-0.892055 -1.555539 1.471279
-0.919226 -1.549580 1.399653
-0.917091 -1.525544 1.461108
-0.951126 -1.528783 1.397369
-0.939162 -1.493493 1.448943
-0.980098 -1.501878 1.390166
-0.964163 -1.465549 1.441724
-0.998385 -1.473017 1.328882
-1.008064 -1.474998 1.384947
-0.989141 -1.439640 1.436461
-1.034186 -1.455437 1.337556
-1.033084 -1.444028 1.375773
-1.063211 -1.428300 1.315336
-1.067047 -1.432780 1.343290
-1.063974 -1.423258 1.375452
-1.099007 -1.411737 1.324972
-1.083364 -1.388022 1.289281
