# .PCD v0.7 - Point Cloud Data file format
VERSION 0.7
FIELDS x y z
SIZE 4 4 4
TYPE F F F
COUNT 1 1 1
WIDTH 457
HEIGHT 1
VIEWPOINT 0 0 0 1
POINTS 457
DATA ascii
3.196475 -2.759719 0.749236
3.191597 -2.782202 0.731803
3.370136 -2.757636 0.811826
3.011157 -2.731436 0.727425
3.096562 -2.806011 1.359493
3.000307 -2.753950 0.712046
3.266222 -2.795758 0.870761
3.204068 -2.753153 0.790367
3.038112 -2.838537 1.373818
2.844942 -2.709873 0.708566
2.940287 -2.796711 1.325805
2.830109 -2.732414 0.694222
2.672704 -2.612248 0.218874
3.098107 -2.786275 0.850189
3.028803 -2.731797 0.766593
2.871760 -2.822373 1.339060
2.691802 -2.693117 0.691674
2.782893 -2.777450 1.289886
3.122646 -2.686263 0.327823
2.590736 -2.627025 0.184001
3.217808 -2.760550 0.831758
2.853360 -2.672511 0.311809
2.659820 -2.701866 0.676178
2.995869 -2.794427 1.375530
2.545960 -2.613804 0.219146
3.123168 -2.726835 0.445786
2.917737 -2.755993 0.825244
2.859513 -2.707364 0.742675
2.715454 -2.808045 1.306230
3.155635 -2.802313 0.978362
2.527429 -2.656533 0.671427
2.628465 -2.754144 1.253832
3.047536 -2.741190 0.804957
2.667618 -2.622759 0.261461
2.689233 -2.644599 0.305762
2.918286 -2.838443 1.474303
2.499502 -2.669217 0.656976
2.833401 -2.772318 1.334579
2.950015 -2.702137 0.434894
2.754469 -2.731429 0.804251
2.706311 -2.687660 0.722698
3.049491 -2.797211 1.424400
3.232901 -2.752145 0.580743
3.256387 -2.764014 0.858873
2.548880 -2.772936 1.267014
2.984301 -2.778991 0.950467
2.387270 -2.635572 0.656290
2.803581 -2.654488 0.309179
2.467830 -2.713972 1.213445
2.886302 -2.723703 0.779098
2.536769 -2.618437 0.257617
2.547250 -2.628396 0.301755
2.757843 -2.817276 1.435338
2.688067 -2.757905 1.298625
2.374603 -2.666968 0.648109
2.782842 -2.674343 0.424861
2.591094 -2.697895 0.781043
2.545955 -2.655087 0.699485
2.894108 -2.783018 1.383544
3.058702 -2.728561 0.564864
3.102283 -2.759449 0.833232
2.827055 -2.759399 0.927510
2.389324 -2.736697 1.229692
2.649460 -2.630536 0.299102
2.331487 -2.692317 1.183233
2.946328 -2.670359 0.348546
2.724965 -2.696202 0.753001
2.593207 -2.781240 1.391064
2.537578 -2.730596 1.259417
2.641863 -2.662196 0.417921
3.080072 -2.811459 1.089695
2.405751 -2.633201 0.680310
2.442823 -2.671126 0.760832
2.746741 -2.768704 1.343596
2.898552 -2.707773 0.550904
2.921804 -2.725322 0.799154
2.678813 -2.739698 0.904453
2.799389 -2.842559 1.565820
2.770627 -2.619801 0.186016
2.252995 -2.715024 1.200466
2.511455 -2.615364 0.291058
2.984766 -2.795610 1.424330
2.781118 -2.641607 0.334452
2.206215 -2.674468 1.155990
2.570620 -2.666592 0.727778
2.442684 -2.750933 1.351775
2.387025 -2.696276 1.220041
2.916672 -2.785092 1.058622
2.495732 -2.637136 0.408726
2.318814 -2.662942 0.747797
2.599276 -2.745394 1.302434
2.736317 -2.679020 0.535771
2.768545 -2.705743 0.772138
2.642819 -2.813427 1.521605
2.524448 -2.709097 0.879197
2.831339 -2.779457 1.379380
2.637053 -2.624578 0.322413
2.426337 -2.639802 0.705514
2.257693 -2.676569 1.187783
2.310382 -2.734256 1.320608
2.761338 -2.761569 1.030526
2.850891 -2.860672 1.703100
2.456851 -2.722982 1.263233
2.588140 -2.654064 0.522581
2.607107 -2.670280 0.742831
2.491207 -2.780248 1.476243
2.379071 -2.676363 0.854798
2.486627 -2.581294 0.179798
2.680876 -2.758237 1.335277
2.514153 -2.621275 0.312472
2.295150 -2.619822 0.685269
2.612988 -2.735959 1.002307
2.140478 -2.663618 1.160551
2.173915 -2.703669 1.286160
2.700320 -2.834524 1.655877
2.313308 -2.689585 1.222788
2.452040 -2.634951 0.510399
2.460773 -2.641583 0.716524
2.349675 -2.749844 1.435840
2.253917 -2.659281 0.836551
2.528305 -2.728088 1.287981
2.475696 -2.713156 0.977039
2.551705 -2.803343 1.608513
2.187955 -2.668859 1.188447
2.343761 -2.637423 0.697484
2.224339 -2.731091 1.403537
2.391888 -2.705587 1.248699
2.337331 -2.683376 0.950616
2.418247 -2.780844 1.568194
2.105024 -2.712221 1.373166
2.257419 -2.678073 1.208277
2.223271 -2.675148 0.933439
2.293858 -2.761154 1.531846
2.135080 -2.658318 1.172908
2.162277 -2.726651 1.489228
-1.022527 1.863117 0.470269
-0.984235 1.872849 0.395514
-0.969148 1.866266 0.462633
-1.022888 1.865002 0.486849
-0.930838 1.871025 0.390897
-0.909676 1.853428 0.451086
-0.905577 1.890083 0.191041
-0.964514 1.844956 0.630295
-0.965464 1.861164 0.478259
-0.874382 1.858208 0.384336
-0.889445 1.893986 0.159152
-0.962397 1.877490 0.345250
-0.853227 1.845586 0.442519
-1.029280 1.860812 0.492393
-0.872253 1.909260 0.001248
-0.847098 1.878296 0.184499
-1.011193 1.851357 0.587535
-0.846031 1.904332 -0.008546
-0.825002 1.858358 0.379707
-0.909037 1.857323 0.470674
-0.833998 1.886206 0.156582
-0.839962 1.918918 -0.097530
-0.914985 1.888988 0.208572
-0.907988 1.875677 0.341648
-0.919989 1.901494 0.113513
-0.837943 1.917923 -0.098512
-0.803850 1.848714 0.435889
-0.972865 1.856979 0.485796
-0.815786 1.899505 -0.001306
-0.777717 1.821846 0.647145
-0.795694 1.878478 0.179892
-0.953763 1.844512 0.579954
-0.896774 1.914090 0.010661
-0.860741 1.843207 0.618059
-1.062814 1.868711 0.545822
-0.792599 1.900570 -0.009129
-0.772577 1.853520 0.375122
-0.854608 1.850474 0.463092
-0.782588 1.884401 0.153982
-0.783480 1.906179 -0.099070
-0.944571 1.876141 0.293969
-0.863538 1.892731 0.111948
-0.859550 1.884191 0.203994
-0.853563 1.870862 0.338063
-0.780453 1.905194 -0.099044
-1.040622 1.864573 0.499981
-0.750410 1.842855 0.428318
-0.933456 1.885807 0.216035
-0.916438 1.852142 0.479214
-0.765388 1.901713 -0.003919
-0.730345 1.822940 0.641518
-0.744273 1.875658 0.175301
-0.838287 1.899349 0.009127
-0.901384 1.847652 0.576332
-0.806298 1.833331 0.609492
-0.996310 1.851912 0.537310
-0.722152 1.845672 0.370537
-0.742199 1.902782 -0.010738
-0.730148 1.877600 0.151409
-0.800170 1.844619 0.455520
-0.826171 1.907139 -0.046794
-0.800129 1.863041 0.334487
-0.732060 1.905408 -0.100663
-0.811125 1.890946 0.111352
-0.905183 1.907196 0.063209
-0.886112 1.867352 0.290415
-0.805113 1.879389 0.200419
-0.730043 1.905417 -0.100647
-0.817065 1.909916 -0.103729
-0.818069 1.913821 -0.122744
-0.981180 1.856753 0.493412
-0.698979 1.837985 0.420740
-0.876001 1.877024 0.212476
-0.711931 1.893936 -0.006478
-0.858982 1.843299 0.470658
-0.680911 1.811037 0.632941
-0.689792 1.862852 0.170764
-0.841891 1.829805 0.566809
-0.786885 1.901569 0.008521
-0.753864 1.824453 0.602920
-0.872903 1.910089 0.009446
-0.672734 1.840814 0.365949
-0.689750 1.896003 -0.012303
-0.940913 1.854072 0.533708
-0.678701 1.868790 0.148843
-0.749766 1.842752 0.449920
-0.956879 1.892575 0.223538
-0.774772 1.911364 -0.047402
-0.746682 1.854210 0.329924
-0.680626 1.902634 -0.102242
-0.757686 1.885162 0.110781
-0.753699 1.877574 0.197827
-0.834723 1.869536 0.289802
-0.843672 1.890470 0.063700
-0.678610 1.902648 -0.101225
-0.763633 1.908164 -0.103308
-0.765650 1.914067 -0.122335
-0.923743 1.849920 0.486840
-0.649557 1.833109 0.414156
-0.823598 1.878217 0.210874
-0.661507 1.892138 -0.009063
-0.809610 1.847434 0.467032
-0.924638 1.883798 0.243788
-0.642412 1.868008 0.167144
-0.733439 1.895793 0.006956
-0.791509 1.832929 0.563196
-0.706488 1.825554 0.598300
-0.814418 1.897352 0.009915
-0.625331 1.837948 0.362349
-0.637280 1.885221 -0.013848
-0.814382 1.914903 -0.090113
-0.630295 1.867965 0.147246
-0.883477 1.850230 0.528141
-0.698336 1.837882 0.443344
-0.721317 1.902605 -0.046959
-0.892354 1.872830 0.221044
-0.811334 1.925633 -0.154106
-0.801233 1.904849 -0.116994
-0.696263 1.850370 0.327339
-0.631208 1.901846 -0.103832
-0.705245 1.879366 0.109213
-0.700241 1.868758 0.193273
-0.781295 1.865718 0.287225
-0.792276 1.893684 0.064094
-0.629201 1.904859 -0.102821
-0.714226 1.912305 -0.121920
-0.713227 1.910388 -0.103908
-0.866286 1.839085 0.480287
-0.600130 1.829228 0.407579
-0.769148 1.870416 0.208314
-0.756166 1.838576 0.460468
-0.609034 1.882349 -0.011605
-0.882191 1.908944 0.013072
-0.866178 1.876020 0.242238
-0.590952 1.860179 0.162594
-0.680995 1.891008 0.005391
-0.739080 1.827060 0.558623
-0.763006 1.896572 0.010322
-0.579952 1.839074 0.359732
-0.588863 1.883414 -0.015437
-0.581873 1.864133 0.144663
-0.759936 1.910157 -0.088675
-0.649932 1.836001 0.437749
-0.668863 1.894835 -0.046516
-0.826016 1.840389 0.522596
-0.841981 1.879015 0.220421
-0.752833 1.911925 -0.150622
-0.646845 1.846522 0.324755
-0.748812 1.905099 -0.114578
-0.580756 1.895062 -0.105392
-0.842853 1.895110 0.010392
-0.654818 1.875559 0.108636
-0.649810 1.863932 0.190699
-0.576708 1.890089 -0.103347
-0.738833 1.887907 0.064530
-0.726834 1.855904 0.284677
-0.661785 1.904620 -0.103475
-0.816916 1.843222 0.477663
-0.661775 1.906544 -0.121479
-0.844811 1.921485 -0.132659
-0.704736 1.832710 0.454894
-0.717729 1.868594 0.205732
-0.559607 1.881539 -0.014182
-0.823717 1.899211 0.015536
-0.810743 1.873224 0.241672
-0.542517 1.854339 0.159023
-0.687644 1.819180 0.553056
-0.629548 1.885218 0.004830
-0.710578 1.895789 0.009747
-0.538403 1.875619 -0.015986
-0.533434 1.857299 0.142096
-0.707508 1.909399 -0.086250
-0.600507 1.832120 0.432174
-0.618431 1.892050 -0.046089
-0.786527 1.870220 0.218868
-0.772591 1.836531 0.519023
-0.702429 1.915161 -0.149218
-0.598431 1.843665 0.322171
-0.529269 1.882283 -0.105921
-0.606409 1.874739 0.108045
-0.698407 1.908325 -0.114174
-0.790449 1.898340 0.012799
-0.598353 1.856103 0.187148
-0.526241 1.881305 -0.103893
-0.686390 1.882121 0.064967
-0.676419 1.854072 0.284095
-0.798448 1.923692 -0.134299
-0.609317 1.895854 -0.103019
-0.764495 1.839363 0.473085
-0.610329 1.901778 -0.120038
-0.795381 1.923506 -0.183274
-0.787336 1.911771 -0.128195
-0.665271 1.858776 0.203180
-0.511159 1.873724 -0.016744
-0.655326 1.830837 0.451308
-0.771307 1.901436 0.016948
-0.756296 1.866418 0.240115
-0.495086 1.849491 0.155450
-0.640256 1.819289 0.550454
-0.579110 1.882415 0.003265
-0.657102 1.883015 0.010210
-0.490978 1.872801 -0.017564
-0.484988 1.850465 0.140537
-0.655057 1.902638 -0.083805
-0.569002 1.889257 -0.045661
-0.732066 1.860416 0.217320
-0.718134 1.827672 0.514477
-0.551010 1.837803 0.319591
-0.648965 1.907416 -0.145761
-0.554931 1.861932 0.107512
-0.482876 1.887466 -0.108523
-0.646973 1.905561 -0.111741
-0.737010 1.893570 0.014235
-0.550941 1.854256 0.184561
-0.624961 1.843237 0.281545
-0.479842 1.884491 -0.105490
-0.634947 1.876329 0.066407
-0.560891 1.896994 -0.119605
-0.559888 1.894067 -0.102591
-0.711041 1.829503 0.467533
-0.740960 1.911974 -0.129822
-0.739916 1.914788 -0.177817
-0.731869 1.903042 -0.123736
-0.615850 1.855943 0.201603
-0.606914 1.827954 0.446724
-0.461694 1.865910 -0.019288
-0.714817 1.889683 0.019416
-0.701830 1.858611 0.239565
-0.529649 1.873611 0.002705
-0.605648 1.878224 0.010648
-0.443529 1.866981 -0.019133
-0.602588 1.895870 -0.082355
-0.518536 1.882466 -0.045213
-0.680626 1.855594 0.215745
-0.665688 1.822802 0.510915
-0.596479 1.895661 -0.143302
-0.506484 1.856107 0.106943
-0.434413 1.880666 -0.109080
-0.594493 1.895797 -0.110285
-0.685577 1.891786 0.015656
-0.502496 1.849412 0.181992
-0.431370 1.875688 -0.107042
-0.663647 1.829625 0.464923
-0.584493 1.869526 0.066845
-0.576542 1.842389 0.280958
-0.513476 1.899193 -0.120200
-0.512474 1.896263 -0.103186
-0.688514 1.908227 -0.125391
-0.688491 1.917037 -0.174403
-0.681458 1.908274 -0.121332
-0.416278 1.866079 -0.020883
-0.567429 1.856102 0.200016
-0.660340 1.879916 0.021884
-0.649379 1.852791 0.239014
-0.481201 1.867797 0.002148
-0.557225 1.876416 0.011072
-0.553141 1.889087 -0.079913
-0.470084 1.875662 -0.044767
-0.630193 1.851766 0.215179
-0.548062 1.896876 -0.141882
-0.386955 1.873855 -0.110630
-0.545053 1.892016 -0.107847
-0.631078 1.876019 0.018139
-0.383915 1.869879 -0.107593
-0.614220 1.824748 0.461353
-0.462998 1.885472 -0.102722
-0.527093 1.835539 0.279406
-0.461970 1.884418 -0.118711
-0.535059 1.867712 0.067282
-0.635044 1.900476 -0.121928
-0.634000 1.904306 -0.168925
-0.630010 1.902512 -0.117888
-0.517972 1.847264 0.198468
-0.609911 1.879119 0.023317
-0.599958 1.850956 0.239442
-0.434788 1.868966 0.000567
-0.506762 1.869613 0.011531
-0.502677 1.882300 -0.078454
-0.422634 1.868850 -0.044321
-0.580761 1.847931 0.214614
-0.496579 1.887109 -0.138407
-0.496624 1.891222 -0.106414
-0.580639 1.873221 0.019580
-0.413511 1.873677 -0.102247
-0.413499 1.874623 -0.117249
-0.486611 1.860892 0.067727
-0.583588 1.894710 -0.118475
-0.582543 1.898546 -0.165472
-0.577534 1.892751 -0.114420
-0.559461 1.873320 0.024767
-0.548497 1.844122 0.238905
-0.458306 1.861798 0.011983
-0.455246 1.879495 -0.077019
-0.531313 1.841091 0.214062
-0.449146 1.884311 -0.136972
-0.446132 1.878435 -0.104934
-0.530174 1.864420 0.021040
-0.532116 1.885942 -0.114008
-0.531073 1.890785 -0.161006
-0.527084 1.888973 -0.110967
-0.508995 1.864519 0.027230
-0.405768 1.869698 -0.074546
-0.400682 1.876518 -0.134511
-0.397671 1.871633 -0.103474
-0.482748 1.861600 0.022473
-0.482669 1.882156 -0.110556
-0.480598 1.881014 -0.156536
-0.477631 1.883186 -0.107511
-0.460557 1.861700 0.028676
-0.434307 1.858779 0.023924
-0.435235 1.878357 -0.107114
-0.433181 1.883219 -0.153102
-0.428161 1.874395 -0.104042
-0.385755 1.868561 -0.103636
-0.384706 1.872426 -0.149632
-0.381728 1.870582 -0.101601
4.077033 -1.451137 3.603647
3.993485 -1.530731 3.566738
4.042939 -1.278012 3.629598
4.139169 -1.818817 3.630875
4.093185 -1.671109 3.594047
4.017559 -1.740602 3.563125
