# .PCD v0.7 - Point Cloud Data file format
VERSION 0.7
FIELDS x y z
SIZE 4 4 4
TYPE F F F
COUNT 1 1 1
WIDTH 13
HEIGHT 1
VIEWPOINT 0 0 0 1
POINTS 13
DATA ascii
-1.827723 3.036450 1.230294
-1.731263 2.913805 1.245345
-1.794143 3.195910 1.342096
-1.720820 2.924308 1.261439
-1.711094 3.072671 1.304034
-1.720464 2.922113 1.259368
-1.729218 3.285871 1.374195
-1.687883 3.025542 1.286576
-1.721105 2.918931 1.256283
-1.725947 3.272652 1.374002
-1.694520 3.031327 1.289558
-1.730618 3.276408 1.378954
-1.030095 3.565060 1.691059
