# .PCD v0.7 - Point Cloud Data file format
VERSION 0.7
FIELDS x y z
SIZE 4 4 4
TYPE F F F
COUNT 1 1 1
WIDTH 67
HEIGHT 1
VIEWPOINT 0 0 0 1
POINTS 67
DATA ascii
1.793408 2.098118 2.922107
2.199164 2.184725 3.168978
1.834734 2.050281 2.909413
2.263534 2.146971 3.197990
2.007353 2.145914 3.037406
1.878169 2.005348 2.902754
2.345540 2.125674 3.250928
2.370180 2.095523 3.206912
2.078749 2.122153 3.065524
1.936243 1.975900 2.918066
2.308060 2.001182 3.146698
2.315192 1.965517 3.081967
2.182376 2.126359 3.137452
1.999527 1.949277 2.941332
2.319592 1.922025 3.112207
2.349602 1.911641 3.076412
2.218344 2.064785 3.116709
2.066987 1.924505 2.971556
2.373728 1.878512 3.134422
2.425401 1.888564 3.120504
2.234693 1.988767 3.073156
2.141622 1.902572 3.008694
2.446534 1.847418 3.181463
2.498122 1.861555 3.162610
2.271891 1.932048 3.059508
2.225682 1.888283 3.061774
2.341231 1.899348 3.087605
2.306520 1.867167 3.107824
2.421959 1.873309 3.130590
2.388361 1.844041 3.154835
2.514015 1.852973 3.186449
3.482421 1.740223 3.615855
3.605931 1.703324 3.699944
3.666771 1.876440 3.791049
3.652434 1.628318 3.707070
3.634178 1.759396 3.716131
3.349075 1.746440 3.590475
3.744191 1.708924 3.785364
3.522799 1.752101 3.631226
3.423128 1.683900 3.619252
3.841845 1.647782 3.841713
3.654174 1.710269 3.715195
3.510555 1.626009 3.663855
3.744527 1.646416 3.758673
2.117608 -2.743111 2.734550
2.003939 -2.723825 2.673914
1.902475 -2.715811 2.628924
1.803027 -2.704817 2.583917
1.702551 -2.687778 2.534985
1.608157 -2.673851 2.491897
1.514770 -2.655950 2.448819
1.553915 -2.503986 2.451720
1.424407 -2.637069 2.405679
1.465505 -2.484065 2.405552
1.345250 -2.634475 2.380144
1.268100 -2.630894 2.354573
1.474878 -2.941171 2.509288
-2.556182 4.714127 0.914403
-2.568444 5.151576 1.077354
-2.456196 4.714941 0.982021
-2.320165 4.703390 1.028989
-2.610820 5.086184 1.035968
-2.441259 5.258624 1.135648
-2.724429 5.320107 1.035905
-2.096260 4.706745 1.135710
-1.986562 4.596665 1.219650
-1.907289 4.698062 1.232374
