# .PCD v0.7 - Point Cloud Data file format
VERSION 0.7
FIELDS x y z
SIZE 4 4 4
TYPE F F F
COUNT 1 1 1
WIDTH 22
HEIGHT 1
VIEWPOINT 0 0 0 1
POINTS 22
DATA ascii
1.685057 -2.549660 2.414077
1.631979 -2.583433 2.410859
1.537354 -2.550750 2.350058
1.625857 -2.719790 2.366083
1.496217 -2.603370 2.367155
1.581687 -2.779490 2.388018
1.585775 -2.851506 2.388950
1.517677 -2.762475 2.329382
1.489099 -2.756284 2.341971
1.470400 -2.791834 2.307230
1.463521 -2.809439 2.332848
1.426188 -2.855566 2.330090
1.418244 -2.877085 2.353612
1.633835 -2.905851 2.459289
1.662759 -2.841888 2.478910
1.519215 -2.846161 2.386139
1.604251 -2.881480 2.456066
1.546146 -2.781139 2.397758
1.558761 -3.016024 2.405252
1.501628 -2.845089 2.424753
1.488647 -2.822797 2.382909
1.495273 -3.068937 2.426385
