# .PCD v0.7 - Point Cloud Data file format
VERSION 0.7
FIELDS x y z
SIZE 4 4 4
TYPE F F F
COUNT 1 1 1
WIDTH 16
HEIGHT 1
VIEWPOINT 0 0 0 1
POINTS 16
DATA ascii
-1.548514 2.180535 1.680223
-1.498071 2.211789 1.679129
-1.451820 2.251894 1.686054
-1.419104 2.313607 1.709010
-1.433814 2.439463 1.696015
-1.366572 2.342828 1.709862
-1.384643 2.488555 1.708996
-1.328129 2.522807 1.714896
-1.272690 2.561995 1.723803
-1.217242 2.601149 1.733685
-1.429628 2.603732 1.756078
-1.393949 2.694509 1.797164
-1.371958 2.819968 1.860857
-1.326146 2.907747 1.899754
-1.325368 3.108563 2.011687
-1.298789 3.267719 2.096739
