# .PCD v0.7 - Point Cloud Data file format
VERSION 0.7
FIELDS x y z
SIZE 4 4 4
TYPE F F F
COUNT 1 1 1
WIDTH 14
HEIGHT 1
VIEWPOINT 0 0 0 1
POINTS 14
DATA ascii
-0.419504 -1.220102 1.486887
-0.441945 -1.201585 1.480952
-0.432420 -1.223220 1.463205
-0.464147 -1.202250 1.448351
-0.464375 -1.182042 1.474053
-0.455907 -1.208751 1.459157
-0.485622 -1.186846 1.445297
-0.484800 -1.160505 1.466182
-0.478369 -1.189152 1.450258
-0.501255 -1.131728 1.448471
-0.498858 -1.168525 1.439354
-0.520670 -1.110246 1.441583
-0.540119 -1.091826 1.436595
-0.325440 -1.254748 1.537699
