# .PCD v0.7 - Point Cloud Data file format
VERSION 0.7
FIELDS x y z
SIZE 4 4 4
TYPE F F F
COUNT 1 1 1
WIDTH 59
HEIGHT 1
VIEWPOINT 0 0 0 1
POINTS 59
DATA ascii
0.833960 -1.902936 2.242914
0.774416 -1.886020 2.208058
0.820278 -2.004188 2.267935
0.735696 -1.927205 2.168148
0.700171 -1.960339 2.192231
0.686384 -2.127693 2.201218
0.599824 -2.030697 2.093480
0.559323 -2.068837 2.123590
0.551190 -2.263131 2.102542
0.476603 -2.174133 2.013796
0.435066 -2.207257 2.038903
1.040965 -1.720211 2.327066
0.987234 -1.718264 2.287297
1.038900 -1.673658 2.332118
0.960644 -1.758467 2.303338
1.002782 -1.839699 2.368010
0.923022 -1.783625 2.300449
0.926902 -1.792600 2.277415
0.884229 -1.802707 2.261575
0.878360 -1.795741 2.281614
0.850623 -1.829879 2.268661
0.866925 -1.872083 2.345506
0.811985 -1.847020 2.263788
0.895051 -1.798202 2.238489
0.978817 -1.836808 2.328998
0.867525 -1.842443 2.265509
0.901986 -1.790722 2.248431
0.826908 -1.859591 2.261642
0.873900 -1.965797 2.303196
0.872472 -1.831968 2.276476
0.795368 -1.899822 2.283695
0.791002 -1.895645 2.200723
0.854391 -1.871963 2.210468
0.827851 -1.844105 2.270656
0.752415 -1.919818 2.208843
0.816816 -1.899147 2.221577
0.819533 -1.935545 2.362479
0.711807 -1.937976 2.210984
0.776220 -1.919312 2.225713
0.744721 -1.962572 2.258748
0.772528 -2.054622 2.239386
0.689639 -1.974456 2.137962
0.528774 -2.192914 2.035171
0.652136 -2.009697 2.163034
0.477173 -2.201044 2.024364
0.486374 -2.277246 2.079115
0.428621 -2.223223 2.028505
0.418553 -2.198142 1.996617
0.502012 -2.181526 2.031246
0.378023 -2.236369 2.019677
0.456479 -2.208731 2.043358
0.521715 -2.167925 2.015141
0.449692 -2.346969 2.068970
0.417014 -2.263020 2.080359
0.481211 -2.206170 2.040195
0.374810 -2.233781 1.962621
0.434654 -2.223357 2.046336
0.332352 -2.281065 1.997650
0.341967 -2.291398 1.941498
