# .PCD v0.7 - Point Cloud Data file format
VERSION 0.7
FIELDS x y z
SIZE 4 4 4
TYPE F F F
COUNT 1 1 1
WIDTH 19
HEIGHT 1
VIEWPOINT 0 0 0 1
POINTS 19
DATA ascii
0.927752 -3.067579 1.926133
0.875152 -3.136840 1.960850
0.912381 -3.108594 1.942330
0.947629 -3.091400 1.930737
0.833752 -3.092461 1.919653
0.891047 -3.154581 1.954509
0.921325 -3.124188 1.915010
0.794392 -3.074180 1.891271
0.732458 -3.701812 1.826631
0.785297 -3.540766 1.833968
0.822223 -3.405781 1.848143
0.867774 -3.210435 1.948634
0.914214 -3.453413 1.957030
0.714733 -3.608017 1.863726
0.762659 -3.494095 1.888749
0.767136 -3.126021 1.881420
0.809515 -3.343983 1.885974
0.713595 -3.224327 1.922962
0.707817 -3.228547 1.812951
