# .PCD v0.7 - Point Cloud Data file format
VERSION 0.7
FIELDS x y z
SIZE 4 4 4
TYPE F F F
COUNT 1 1 1
WIDTH 272
HEIGHT 1
VIEWPOINT 0 0 0 1
POINTS 272
DATA ascii
2.490016 -2.516325 0.232954
2.398503 -2.524358 0.382856
2.559268 -2.506077 0.078343
2.352452 -2.496375 0.225454
2.382975 -2.555067 0.685684
2.347683 -2.486537 -0.037422
2.482239 -2.516785 0.266321
2.458573 -2.529089 0.493786
2.272008 -2.513263 0.373127
2.279866 -2.555367 0.886897
2.418642 -2.488381 0.075738
2.238902 -2.495525 0.221431
2.267597 -2.552621 0.669698
2.219000 -2.471049 -0.034956
2.403171 -2.548111 0.713660
2.346707 -2.495687 0.255919
2.206662 -2.581868 1.184383
2.336127 -2.522864 0.481883
2.148521 -2.500156 0.363545
2.153568 -2.539613 0.864390
2.490782 -2.508938 0.183080
2.290016 -2.473690 0.074152
2.311137 -2.556830 0.992692
2.139207 -2.528009 0.649553
2.123351 -2.485597 0.215797
2.474523 -2.524115 0.297390
2.097334 -2.455494 -0.033397
2.295828 -2.552584 0.696456
2.068422 -2.444780 -0.118281
2.428398 -2.553155 0.742143
2.239195 -2.496677 0.248880
2.099440 -2.576843 1.157612
2.247666 -2.568164 1.220843
2.357321 -2.448684 -0.098899
2.215672 -2.511602 0.469241
2.393384 -2.543255 0.586088
2.369208 -2.501074 0.178262
2.030015 -2.486090 0.355081
2.352710 -2.477665 -0.033101
2.040261 -2.530918 0.843735
2.173414 -2.465964 0.072414
2.033794 -2.521595 0.634880
2.192869 -2.546955 0.968008
2.012787 -2.475706 0.211236
2.344020 -2.505914 0.284924
2.156268 -2.458316 -0.077556
1.984675 -2.444958 -0.030938
2.157459 -2.515749 0.670729
1.963765 -2.441272 -0.115039
2.314075 -2.548437 0.720263
2.119669 -2.482631 0.240390
1.990190 -2.562802 1.130229
2.150444 -2.575235 1.196654
2.473947 -2.516800 0.315197
2.461673 -2.488725 -0.001030
2.272952 -2.530852 0.570489
2.100211 -2.501378 0.457632
2.442609 -2.484139 0.006991
2.247633 -2.490218 0.173601
2.237113 -2.471906 -0.035918
2.444403 -2.514536 0.284987
1.921514 -2.479084 0.348440
2.058791 -2.453243 0.070932
1.876813 -2.391181 -0.279832
1.929916 -2.521359 0.826176
1.929376 -2.514230 0.621285
2.233522 -2.501785 0.275082
2.085557 -2.543278 0.948196
1.906211 -2.463812 0.206822
2.044603 -2.445697 -0.077009
1.867992 -2.423404 -0.029024
2.060075 -2.520347 0.656670
2.223262 -2.562225 1.070184
1.855044 -2.424837 -0.110263
2.190735 -2.528637 0.695959
2.198457 -2.575581 1.234554
2.011133 -2.472603 0.232859
2.046219 -2.569172 1.168975
1.883937 -2.547765 1.102940
2.148078 -2.455463 -0.097080
2.350495 -2.506487 0.300472
2.339039 -2.478031 -0.002719
1.977143 -2.433974 -0.188198
2.330044 -2.481230 0.001069
2.356473 -2.549801 0.735111
2.155510 -2.517495 0.555987
1.984725 -2.486211 0.447260
2.136055 -2.481339 0.168975
2.329878 -2.508467 0.276179
2.116440 -2.451226 -0.037127
2.339215 -2.545263 0.677091
1.953185 -2.445496 0.069350
1.807981 -2.458025 0.340372
1.818561 -2.501692 0.806056
1.824942 -2.498793 0.606051
2.113021 -2.483572 0.262765
1.971252 -2.525423 0.923940
1.793618 -2.440907 0.201844
1.931915 -2.428134 -0.075236
1.804383 -2.535386 1.339014
2.108982 -2.547265 1.043779
1.957685 -2.513845 0.640055
1.772363 -2.421819 -0.026738
1.754355 -2.413332 -0.106600
2.088391 -2.528033 0.677073
2.099253 -2.576498 1.206625
2.275555 -2.584684 1.269409
1.900570 -2.454595 0.225671
1.777664 -2.525702 1.074968
1.938012 -2.553963 1.137667
2.255641 -2.562500 1.174069
2.040416 -2.445835 -0.096613
2.235014 -2.495206 0.286890
2.221411 -2.466285 -0.005290
2.210434 -2.465361 -0.004348
2.257156 -2.558175 0.715851
2.049048 -2.510242 0.544357
1.865389 -2.413606 -0.182280
2.026471 -2.468419 0.163562
1.883234 -2.478050 0.437744
2.206323 -2.490442 0.267817
2.204813 -2.513565 0.654188
2.004819 -2.438473 -0.039560
1.832638 -2.384950 -0.289455
1.847556 -2.431760 0.068043
1.707442 -2.445017 0.334104
2.007512 -2.475447 0.253190
1.728495 -2.489469 0.593657
1.862923 -2.508650 0.901719
1.718196 -2.492169 0.789636
1.698053 -2.434032 0.198366
1.830274 -2.419492 -0.074715
2.007676 -2.542490 1.022094
1.713136 -2.536575 1.318222
1.852281 -2.499324 0.622773
1.662658 -2.395258 -0.024501
1.980013 -2.513384 0.656744
1.990071 -2.562203 1.173263
2.166425 -2.578282 1.233683
2.154373 -2.560575 1.149238
1.685347 -2.516909 1.053589
1.831772 -2.534810 1.107566
1.793000 -2.434587 0.218618
2.123550 -2.485919 0.273288
2.107775 -2.452534 -0.007714
1.936759 -2.438243 -0.095169
1.926970 -2.424645 -0.199780
2.091820 -2.446498 -0.009603
2.121839 -2.520089 0.684222
1.942591 -2.497912 0.530963
1.761512 -2.394994 -0.249406
1.773741 -2.415075 -0.179077
2.097780 -2.481415 0.260241
1.776723 -2.457834 0.426711
1.919877 -2.456584 0.160158
2.112383 -2.521293 0.643055
1.906211 -2.432681 -0.042144
1.732889 -2.373647 -0.281780
1.746932 -2.419014 0.066763
1.905991 -2.467361 0.244673
1.624036 -2.465056 0.578848
1.613913 -2.435992 0.327752
1.761565 -2.494997 0.882455
1.610482 -2.431179 0.195810
1.614817 -2.472586 0.771635
1.735640 -2.413831 -0.074234
1.898365 -2.521544 0.996033
1.751853 -2.483843 0.606599
1.882633 -2.509875 0.640076
2.043111 -2.541444 1.119054
1.885862 -2.546954 1.141010
2.059260 -2.567937 1.199167
1.727515 -2.510626 1.076714
1.592034 -2.504084 1.031392
1.698459 -2.426579 0.212200
1.997132 -2.436782 -0.010003
2.016068 -2.475674 0.260788
1.826041 -2.414690 -0.093096
1.998824 -2.438564 -0.151186
2.023478 -2.518491 0.665439
1.986235 -2.436594 -0.015091
1.841107 -2.485665 0.519635
1.992225 -2.468348 0.251884
2.001941 -2.502799 0.625872
1.808508 -2.408467 -0.213084
1.816279 -2.441704 0.155930
1.675210 -2.439654 0.416661
1.800574 -2.415925 -0.044308
1.797439 -2.444229 0.234746
1.660325 -2.419307 0.067082
1.536572 -2.456764 0.567530
1.663196 -2.479347 0.863323
1.522408 -2.461151 0.757410
1.796034 -2.504717 0.972887
1.656426 -2.471396 0.591364
1.939811 -2.526474 1.092794
1.780228 -2.492274 0.620970
1.778648 -2.521605 1.106172
1.948104 -2.547452 1.161058
1.642196 -2.508903 1.057118
1.503664 -2.488352 1.011376
1.914559 -2.464464 0.249405
1.614920 -2.427625 0.207520
1.891490 -2.423063 -0.011307
1.737409 -2.415054 -0.091807
1.895159 -2.425901 -0.151515
1.924131 -2.512819 0.644839
1.886644 -2.428721 -0.019586
1.739606 -2.465347 0.506662
1.890662 -2.457360 0.245501
1.902492 -2.494444 0.612391
1.718680 -2.427811 0.151735
1.588693 -2.437639 0.411089
1.720008 -2.425120 -0.046315
1.698896 -2.428112 0.225635
1.569815 -2.466774 0.846129
1.701681 -2.493003 0.952621
1.443983 -2.467970 0.749566
1.559969 -2.449927 0.575516
1.842491 -2.513582 1.068522
1.683814 -2.476706 0.602854
1.685377 -2.510608 1.079886
1.842924 -2.530090 1.125899
1.551880 -2.493999 1.033044
1.423295 -2.483766 0.994985
1.809026 -2.443240 0.237425
1.798882 -2.418257 -0.013848
1.800519 -2.418166 -0.152950
1.822756 -2.498129 0.623618
1.786038 -2.413818 -0.024776
1.646118 -2.453090 0.495446
1.808027 -2.483045 0.598098
1.788091 -2.440342 0.238381
1.634101 -2.426960 0.149130
1.615384 -2.428030 0.218006
1.480411 -2.453246 0.830028
1.611311 -2.481331 0.933407
1.482508 -2.451694 0.565883
1.743161 -2.492627 1.042586
1.590378 -2.461224 0.586782
1.597086 -2.501692 1.055577
1.750682 -2.524042 1.098410
1.464555 -2.481179 1.010930
1.714515 -2.433066 0.227105
1.716301 -2.423460 -0.015696
1.723348 -2.479491 0.603599
1.702483 -2.416897 -0.029544
1.709551 -2.463628 0.583124
1.556602 -2.440916 0.486281
1.694511 -2.427345 0.232192
1.523916 -2.469745 0.916237
1.388003 -2.429613 0.811339
1.658799 -2.486928 1.023170
1.496938 -2.439670 0.568979
1.506792 -2.485711 1.029562
1.651452 -2.502780 1.065507
1.386197 -2.477551 0.993530
1.619984 -2.417903 0.217013
1.621064 -2.452312 0.570921
1.625948 -2.460855 0.583620
1.613963 -2.427344 0.226594
1.441511 -2.460195 0.900041
1.573425 -2.477242 1.003929
1.425473 -2.477881 1.007305
1.562180 -2.490753 1.038331
1.537578 -2.446068 0.560570
1.538522 -2.450363 0.567409
1.491041 -2.466559 0.984771
1.348125 -2.474216 0.988929
1.477890 -2.482846 1.014048
1.413637 -2.459993 0.968503
1.396576 -2.473985 0.990847
