# .PCD v0.7 - Point Cloud Data file format
VERSION 0.7
FIELDS x y z
SIZE 4 4 4
TYPE F F F
COUNT 1 1 1
WIDTH 41
HEIGHT 1
VIEWPOINT 0 0 0 1
POINTS 41
DATA ascii
0.429604 3.068212 1.910161
0.516367 3.133349 1.963142
0.449010 2.548007 1.841580
0.376534 2.140610 1.817938
0.571540 3.168144 2.960749
0.524434 2.636835 1.914762
0.643035 3.167511 2.977950
0.433697 2.162714 1.850330
0.486168 2.158001 1.861405
0.449250 3.009974 1.901430
0.420833 2.989452 2.012182
0.531291 3.065078 1.945977
0.463534 2.650634 1.847257
0.370949 2.097178 1.905968
0.455264 2.959987 1.899795
0.393964 2.111537 1.802091
0.405332 3.099366 2.007419
0.468375 2.845826 1.920459
0.544266 2.744429 1.918237
0.636592 3.158313 2.865983
0.536222 3.025047 1.947447
0.452134 2.147490 1.843414
0.450934 2.942901 1.900549
0.479930 3.084017 1.998152
0.538778 2.853239 1.929446
0.613573 3.210549 2.826552
0.398645 2.098520 1.802867
0.431014 1.931108 1.771908
0.527949 2.999032 1.939095
0.503605 2.143769 1.851273
0.541062 2.996071 1.944041
0.609111 3.329566 2.818877
0.456774 2.139460 1.845241
0.429762 2.008931 1.784756
0.395126 2.099547 1.794819
0.431509 2.090947 1.782646
0.507227 2.136754 1.851106
0.496692 2.080637 1.853466
0.455141 2.155398 1.846360
0.505389 2.173657 1.855469
0.506552 2.157686 1.853278
