# .PCD v0.7 - Point Cloud Data file format
VERSION 0.7
FIELDS x y z
SIZE 4 4 4
TYPE F F F
COUNT 1 1 1
WIDTH 614
HEIGHT 1
VIEWPOINT 0 0 0 1
POINTS 614
DATA ascii
3.146104 -2.274308 1.335844
3.094109 -2.240551 1.074986
2.970334 -2.259053 1.285166
2.888894 -2.230030 0.716501
2.753933 -2.209475 0.999928
2.739540 -2.224040 0.693624
2.654585 -2.228952 1.193715
2.605754 -2.198584 0.969001
2.600189 -2.216905 0.670964
2.526603 -2.228929 1.159421
2.472557 -2.193486 0.941516
2.403538 -2.225804 1.127215
2.346349 -2.206252 0.633314
2.226977 -2.179937 0.893041
2.220884 -2.191897 0.612918
2.168429 -2.144619 0.447938
2.163304 -2.205436 1.061783
2.122631 -2.181393 0.874378
2.109400 -2.186344 0.596988
2.084915 -2.164658 0.443040
2.063067 -2.205923 1.038210
2.004259 -2.165028 0.850141
2.003890 -2.178713 0.581187
1.974266 -2.153994 0.432075
1.954842 -2.193529 1.009276
1.906871 -2.164372 0.832632
1.856580 -2.187978 0.984682
1.812428 -2.160657 0.816163
0.021393 -0.758626 -0.001687
0.013257 -0.750158 0.050082
0.006727 -0.767760 -0.000861
0.005811 -0.772780 -0.001825
0.001198 -0.754134 0.063906
-0.002361 -0.762307 0.050925
-0.008856 -0.782912 -0.000991
-0.008611 -0.807935 -0.002726
-0.015461 -0.756302 0.063624
-0.017909 -0.784455 0.051868
0.015899 -1.540387 -0.053809
0.016484 -1.583069 -0.022361
-0.032055 -0.770458 0.064466
-0.008750 -1.585437 0.258167
0.001038 -2.050301 -0.028115
-0.001807 -2.052815 -0.077175
-0.003790 -2.051398 -0.034222
-0.012940 -2.074366 0.374921
-0.048647 -0.786611 0.065325
-0.022010 -2.057069 0.112443
-0.036902 -2.067981 0.333266
-0.045761 -2.047640 -0.027267
-0.047632 -2.044150 -0.077363
-0.050567 -2.048746 -0.034374
-0.059664 -2.073766 0.373788
-0.067860 -2.046413 0.113238
-0.083659 -2.069355 0.334155
-0.091548 -2.043976 -0.027400
-0.093431 -2.042472 -0.076476
-0.105393 -2.066173 0.370615
-0.096361 -2.044081 -0.034516
-0.103348 -2.055367 0.145485
-0.114628 -2.043770 0.113093
-0.130463 -2.059735 0.333942
-0.138333 -2.043306 -0.026522
-0.141165 -2.045812 -0.076582
-0.152112 -2.062573 0.368464
-0.143136 -2.041419 -0.034657
-0.150081 -2.054734 0.144364
-0.161412 -2.042113 0.113964
-0.178238 -2.057108 0.334779
-0.185089 -2.043640 -0.026629
-0.197858 -2.058951 0.367342
-0.187954 -2.041141 -0.076737
-0.188952 -2.032746 -0.034827
-0.195825 -2.053088 0.143261
-0.208195 -2.040452 0.114840
-0.216595 -2.041744 0.090645
-0.224055 -2.045472 0.334583
-0.231904 -2.037961 -0.025789
-0.244586 -2.057331 0.366220
-0.234690 -2.045465 -0.076800
-0.236632 -2.041090 -0.035874
-0.242576 -2.049444 0.142122
-0.254932 -2.046777 0.115802
-0.263364 -2.038077 0.090515
-0.270805 -2.046820 0.335500
-0.278625 -2.042279 -0.025840
-0.291281 -2.058700 0.365141
-0.280505 -2.034772 -0.076970
-0.283352 -2.041417 -0.036962
-0.289303 -2.046790 0.141006
-0.302665 -2.049114 0.116708
-0.311024 -2.045429 0.089470
-0.318558 -2.051162 0.338426
-0.326383 -2.041600 -0.024958
-0.337027 -2.042087 0.361920
-0.330106 -2.038738 -0.037074
-0.337013 -2.049137 0.140917
-0.349460 -2.041443 0.117550
-0.357770 -2.038772 0.088324
-0.365317 -2.047513 0.339307
-0.468964 -2.597743 0.172876
-0.466696 -2.028539 -0.024302
-0.468478 -2.029035 -0.078355
-0.472307 -2.032712 -0.039398
-0.499925 -2.037778 0.086057
-0.513458 -2.024848 -0.024397
-0.517227 -2.026350 -0.078485
-0.523967 -2.031487 0.137471
-0.519076 -2.028018 -0.039501
-0.539510 -2.032738 0.121126
-0.546679 -2.030105 0.084931
-0.561224 -2.019159 -0.024524
-0.571684 -2.029823 0.136380
-0.565942 -2.026670 -0.079581
-0.565837 -2.020330 -0.040622
-0.586311 -2.024048 0.121997
-0.594446 -2.023426 0.084799
-0.610945 -2.021479 -0.024619
-0.620415 -2.029153 0.136281
-0.612734 -2.017965 -0.079705
-0.614569 -2.016649 -0.041746
-0.633090 -2.015363 0.121876
-0.642178 -2.019750 0.083700
-0.658737 -2.015774 -0.023732
-0.666201 -2.015470 0.135145
-0.661485 -2.016268 -0.079804
-0.662332 -2.012950 -0.041841
-0.681865 -2.015669 0.123796
-0.690911 -2.015077 0.082579
-0.710450 -2.019098 -0.023849
-0.718868 -2.025815 0.135065
-0.713175 -2.020593 -0.080912
-0.715966 -2.022300 -0.043950
-0.732605 -2.016993 0.124686
-0.742603 -2.022409 0.082500
-0.758238 -2.010394 -0.023972
-0.767616 -2.018142 0.133929
-0.757038 -1.999859 -0.081047
-0.762773 -2.010588 -0.044075
-0.782386 -2.010308 0.125539
-0.793324 -2.019740 0.081365
-0.807997 -2.005695 -0.024094
-0.817362 -2.014460 0.133816
-0.808743 -2.001175 -0.082161
-0.809559 -1.997878 -0.045195
-0.834136 -2.012621 0.127438
-0.843077 -2.013054 0.081237
-0.859724 -2.004014 -0.024220
-0.863126 -1.996776 0.131691
-0.860448 -2.000495 -0.083278
-0.863242 -1.999214 -0.046339
-0.887875 -2.013951 0.129295
-0.890836 -2.001367 0.080121
-0.911462 -2.000329 -0.024353
-0.926727 -2.022162 0.133530
-0.913157 -1.998818 -0.084416
-0.916928 -2.001546 -0.047466
-0.942547 -1.997699 0.078993
3.320410 -2.288285 0.935988
3.198188 -2.306448 1.554245
3.132180 -2.276193 0.902471
3.269701 -2.334715 1.346785
3.172024 -2.324833 1.221726
3.157971 -2.288720 1.130540
3.172788 -2.288971 1.246649
3.025245 -2.297301 1.501924
3.168031 -2.322308 1.345368
3.089674 -2.315554 1.292441
3.007621 -2.273758 1.204493
2.960704 -2.266788 0.732854
2.787606 -2.243846 0.839967
2.837722 -2.294438 1.138343
2.832519 -2.258279 1.056301
2.792591 -2.256488 0.678734
2.811356 -2.255488 0.703903
2.834940 -2.283839 1.237085
2.692254 -2.262906 1.397604
2.761482 -2.276079 1.193234
2.645276 -2.239555 0.817064
2.674508 -2.268202 1.096298
2.683244 -2.241993 1.022388
2.722149 -2.253142 1.133758
2.657206 -2.251139 0.655940
2.679993 -2.252116 0.679152
2.693802 -2.272505 1.193253
2.550159 -2.253616 1.356743
2.626305 -2.267730 1.154463
2.587473 -2.218439 0.635131
2.550259 -2.268834 1.068614
2.505919 -2.229238 0.793252
2.582886 -2.236805 1.097993
2.555932 -2.236626 0.995710
2.566622 -2.266115 1.154586
2.506087 -2.266327 1.121858
2.404040 -2.232318 1.311919
2.465570 -2.232394 1.071454
2.393759 -2.235179 0.558689
2.443424 -2.258704 1.116989
2.353499 -2.205583 0.603099
2.271260 -2.225782 0.545121
2.259145 -2.218477 0.755029
2.294561 -2.200567 0.505422
2.308738 -2.223872 0.610387
2.285882 -2.224923 0.596156
2.238992 -2.195140 0.587657
2.189345 -2.244631 0.986960
2.204877 -2.215375 0.923185
2.189034 -2.198095 0.495049
2.156752 -2.216345 0.531671
2.133723 -2.202089 0.734481
2.196290 -2.214405 0.589971
2.181431 -2.223435 0.579792
2.206923 -2.234823 1.046020
2.155273 -2.236019 1.024410
2.134478 -2.188657 0.574331
2.136523 -2.209024 0.994265
2.077001 -2.232183 0.960566
2.092379 -2.252023 1.238664
2.099483 -2.207902 0.901854
2.083494 -2.190614 0.483719
2.048219 -2.206884 0.520312
2.031298 -2.201619 0.720145
2.094841 -2.210891 0.571676
2.069929 -2.207960 0.561443
2.108636 -2.234305 1.017745
2.056943 -2.233509 0.999156
2.037963 -2.187142 0.563100
2.040127 -2.204510 0.973055
1.975602 -2.223692 0.939318
2.000060 -2.201403 0.882623
1.984113 -2.243576 1.210326
1.981938 -2.183117 0.473470
1.930838 -2.197132 0.705893
1.997348 -2.205364 0.555467
1.973432 -2.204438 0.547235
2.012316 -2.232785 0.991523
1.942417 -2.179618 0.550934
1.952605 -2.222013 0.970899
1.947705 -2.198980 0.952915
1.909630 -2.200876 0.866479
1.882200 -2.221179 0.921147
1.871828 -2.224126 1.178021
1.908965 -2.217269 0.961313
1.860226 -2.216474 0.947767
1.857279 -2.193442 0.933811
0.068906 -1.504396 -0.058174
0.067766 -1.503548 -0.034174
0.069871 -1.563663 -0.014529
0.069328 -2.060209 0.067406
0.064376 -1.613622 -0.029864
0.062402 -1.585507 -0.049702
0.064044 -1.574892 0.012377
0.053397 -2.058294 -0.092695
0.052221 -2.060497 -0.060715
0.049059 -2.059697 -0.030730
0.062811 -1.673531 -0.048245
0.058738 -1.638517 -0.053051
0.004978 -0.796579 0.088901
0.022659 -2.064446 0.070071
0.045128 -2.057848 -0.012759
0.039405 -2.059630 -0.051809
0.038542 -2.053471 -0.077777
0.009296 -0.786389 0.057030
0.031356 -2.062852 0.137126
0.041142 -2.056965 0.001215
0.004540 -2.074900 0.287897
0.005652 -2.046526 -0.088932
0.004514 -2.056726 -0.058002
0.002359 -2.056918 -0.029016
0.034271 -2.063002 0.161138
0.033584 -2.047546 -0.070778
0.031689 -2.056491 -0.080847
-0.013945 -2.076675 0.395772
0.015386 -1.979871 0.284551
0.005448 -2.081234 0.335851
-0.023053 -2.058678 0.072816
-0.001544 -2.059058 -0.013066
-0.006157 -2.052666 -0.078057
-0.006317 -2.049832 -0.052039
-0.014316 -2.063076 0.137834
-0.005557 -2.048169 -0.000027
-0.039031 -2.053732 -0.087258
-0.042114 -2.077155 0.290588
-0.020533 -2.070527 0.360756
-0.010664 -2.077672 0.388768
-0.041209 -2.052952 -0.054265
-0.011394 -2.061216 0.159859
-0.043366 -2.050140 -0.026259
-0.012092 -2.047732 -0.073068
-0.015020 -2.047688 -0.082086
-0.055352 -2.063435 0.167590
-0.059597 -2.074921 0.396499
-0.040211 -2.074456 0.333608
-0.029973 -2.076164 0.293653
-0.046274 -2.047258 -0.013267
-0.047929 -2.061069 0.111638
-0.070726 -2.059917 0.075516
-0.052986 -2.051030 -0.053334
-0.043697 -2.053823 0.074705
-0.053849 -2.047873 -0.078320
-0.060984 -2.060298 0.137565
-0.050235 -2.047357 -0.002296
-0.066171 -2.073769 0.361456
-0.085747 -2.048953 -0.084509
-0.056299 -2.077904 0.387485
-0.089798 -2.064401 0.291381
-0.087915 -2.050175 -0.051529
-0.057065 -2.057428 0.158604
-0.090053 -2.050359 -0.024542
-0.057785 -2.042918 -0.075315
-0.061720 -2.038877 -0.084313
-0.101030 -2.062666 0.169321
-0.105248 -2.073166 0.397237
-0.070256 -2.049641 0.027571
-0.086851 -2.070681 0.331351
-0.076636 -2.065380 0.290441
-0.092944 -2.048465 -0.013553
-0.094582 -2.062280 0.110352
-0.117445 -2.048152 0.078316
-0.099685 -2.045233 -0.053573
-0.091328 -2.059029 0.072387
-0.100550 -2.042073 -0.078558
-0.106665 -2.057520 0.138314
-0.097892 -2.048562 -0.003585
-0.101963 -2.069135 0.386271
-0.112832 -2.066010 0.361231
-0.132465 -2.043172 -0.081743
-0.133636 -2.044394 -0.048756
-0.136475 -2.058655 0.294147
-0.103737 -2.050644 0.157374
-0.136755 -2.045578 -0.022781
-0.105435 -2.045103 -0.078609
-0.118176 -2.049062 0.060300
-0.108378 -2.043063 -0.086613
-0.147697 -2.062901 0.171050
-0.151892 -2.071415 0.397979
-0.116916 -2.047830 0.024311
-0.133485 -2.068904 0.329092
-0.125233 -2.071609 0.288117
-0.139622 -2.047670 -0.013815
-0.141251 -2.058490 0.109109
-0.164111 -2.055391 0.082005
-0.146361 -2.044428 -0.054833
-0.137022 -2.047219 0.069204
-0.147226 -2.042266 -0.079824
-0.153333 -2.054738 0.138067
-0.147610 -2.063358 0.384049
-0.144576 -2.041755 -0.005805
-0.158495 -2.059244 0.361017
-0.180139 -2.049394 -0.079050
-0.180328 -2.045614 -0.046025
-0.184119 -2.062917 0.297852
-0.150390 -2.049857 0.156115
-0.183436 -2.047794 -0.021055
-0.151122 -2.042284 -0.080847
-0.164849 -2.045267 0.059064
-0.155049 -2.043247 -0.088876
-0.194365 -2.061128 0.171804
-0.197523 -2.080668 0.400664
-0.163596 -2.041025 0.022097
-0.180128 -2.066132 0.327851
-0.172872 -2.065825 0.284890
-0.186298 -2.047873 -0.014073
-0.187920 -2.054698 0.107877
-0.210796 -2.054623 0.084756
-0.213955 -2.054865 0.118738
-0.193033 -2.045620 -0.056095
-0.193891 -2.046456 -0.081106
-0.184653 -2.053419 0.066901
-0.200001 -2.053961 0.138819
-0.193270 -2.054586 0.382859
-0.191242 -2.042952 -0.007066
-0.205135 -2.059487 0.361762
-0.225858 -2.043600 -0.077255
-0.227032 -2.042834 -0.043255
-0.196051 -2.049064 0.154873
-0.231779 -2.062179 0.301602
-0.229153 -2.042012 -0.018260
-0.198771 -2.046464 -0.084133
-0.212493 -2.049473 0.057780
-0.201723 -2.043430 -0.091128
-0.243185 -2.075909 0.401453
-0.240049 -2.056349 0.172593
-0.210254 -2.040210 0.018853
-0.227750 -2.070368 0.327568
-0.220504 -2.066051 0.283634
-0.234590 -2.050904 0.106657
-0.232993 -2.041076 -0.014272
-0.257497 -2.047854 0.087558
-0.260639 -2.051092 0.120522
-0.239726 -2.039812 -0.057299
-0.239604 -2.038648 -0.081292
-0.232317 -2.048620 0.064683
-0.246662 -2.054176 0.138574
-0.238928 -2.043806 0.380694
-0.250799 -2.053724 0.362564
-0.237910 -2.042140 -0.009304
-0.272566 -2.040816 -0.074475
-0.273734 -2.041053 -0.040481
-0.242712 -2.048281 0.154636
-0.274855 -2.039222 -0.016473
-0.279446 -2.058440 0.305383
-0.245467 -2.038646 -0.086321
-0.259163 -2.047673 0.056553
-0.247418 -2.038606 -0.093330
-0.287870 -2.062138 0.401319
-0.285735 -2.052576 0.174387
-0.257912 -2.039405 0.016615
-0.274403 -2.062586 0.325383
-0.268137 -2.065268 0.281395
-0.279671 -2.041276 -0.014508
-0.280279 -2.040098 0.104502
-0.304188 -2.045084 0.090346
-0.306323 -2.048306 0.121314
-0.286292 -2.035835 -0.082505
-0.287391 -2.042004 -0.058552
-0.352127 -2.600113 0.067260
-0.292358 -2.043386 0.138421
-0.284576 -2.041037 0.380486
-0.297446 -2.053971 0.364331
-0.285568 -2.043330 -0.011549
-0.337067 -2.140305 -0.041482
-0.290355 -2.050493 0.153384
-0.337197 -2.136472 -0.017455
-0.326114 -2.055689 0.308174
-0.295074 -2.054821 -0.090678
-0.305837 -2.044872 0.055343
-0.298024 -2.052785 -0.097678
-0.421689 -2.612382 0.212818
-0.304577 -2.039592 0.014387
-0.319088 -2.044788 0.322290
-0.315782 -2.059485 0.279204
-0.401672 -2.515650 -0.028426
-0.416118 -2.603745 0.120891
-0.354807 -2.064332 0.093970
-0.353004 -2.046530 0.123105
-0.325659 -2.037998 0.059301
-0.340014 -2.045609 0.139180
-0.335150 -2.066318 0.385068
-0.342132 -2.037189 0.363238
-0.418351 -2.578718 -0.028959
-0.337028 -2.043699 0.152211
-0.373778 -2.053947 0.311964
-0.439799 -2.553403 0.057113
-0.378102 -2.042022 0.177025
-0.370660 -2.071059 0.325865
-0.365390 -2.069718 0.278901
-0.375588 -2.043514 0.103032
-0.490947 -2.599386 0.166529
-0.488948 -2.602496 0.181514
-0.431317 -2.098287 0.322390
-0.419296 -2.071293 0.325648
-0.411077 -2.047911 0.274856
-0.460384 -2.031655 -0.065261
-0.461554 -2.027920 -0.029237
-0.436162 -2.032343 -0.098148
-0.437139 -2.026305 -0.104108
-0.468421 -2.026067 -0.015236
-0.476135 -2.029742 -0.064296
-0.475057 -2.020580 -0.086224
-0.508094 -2.026869 -0.062415
-0.472324 -2.017071 -0.018178
-0.506293 -2.015126 -0.026319
-0.509346 -2.023276 -0.007391
-0.494542 -2.030655 0.050630
-0.482866 -2.020507 -0.101247
-0.484836 -2.017479 -0.106232
-0.496247 -2.027328 0.003654
-0.538771 -2.024401 0.129495
-0.516620 -2.027109 0.099574
-0.540649 -2.027240 0.106465
-0.514139 -2.012257 -0.015309
-0.522844 -2.018923 -0.065393
-0.523734 -2.021764 -0.087419
-0.528727 -2.026470 0.141535
-0.519291 -2.032761 0.049528
-0.556790 -2.025077 -0.060583
-0.556962 -2.021352 -0.023554
-0.521983 -2.017259 -0.020367
-0.559023 -2.025492 -0.005593
-0.525704 -2.025520 0.148562
-0.564828 -2.024905 0.182398
-0.543209 -2.026845 0.048476
-0.531539 -2.020675 -0.104431
-0.534486 -2.024642 -0.110473
-0.544921 -2.022513 0.001510
-0.588431 -2.029628 0.131276
-0.591314 -2.032483 0.110243
-0.566275 -2.027312 0.098391
-0.564788 -2.019452 -0.016547
-0.573504 -2.024114 -0.066615
-0.570443 -2.012940 -0.088519
-0.574426 -2.014671 0.141462
-0.567966 -2.025949 0.047403
-0.606473 -2.030286 -0.058799
-0.607630 -2.028568 -0.021788
-0.605737 -2.017697 -0.003696
-0.570653 -2.017440 -0.022543
-0.576347 -2.028738 0.148356
-0.613499 -2.027140 0.185211
-0.590894 -2.021036 0.047352
-0.579241 -2.010846 -0.106524
-0.585155 -2.022814 -0.113637
-0.593594 -2.017689 -0.001622
-0.639094 -2.030858 0.133094
-0.639017 -2.026716 0.114127
-0.613961 -2.017508 0.097304
-0.616443 -2.025657 -0.016772
-0.620212 -2.013283 -0.068689
-0.620124 -2.012124 -0.089680
-0.627058 -2.026907 0.143189
-0.617631 -2.023139 0.045257
-0.654188 -2.024488 -0.056911
-0.654356 -2.018777 -0.018865
-0.656410 -2.019906 -0.002880
-0.622299 -2.021621 -0.025749
-0.626996 -2.031954 0.148161
-0.661182 -2.020356 0.186108
-0.643533 -2.028241 0.046122
-0.630891 -2.016011 -0.110735
-0.633850 -2.016984 -0.115752
-0.647225 -2.023878 -0.004846
-0.685792 -2.024064 0.134000
-0.686720 -2.018940 0.117038
-0.664615 -2.019710 0.096125
-0.664144 -2.016840 -0.017855
-0.669898 -2.010467 -0.069823
-0.669811 -2.010306 -0.090822
-0.675735 -2.021115 0.143082
-0.667301 -2.019326 0.043130
-0.699932 -2.008691 -0.053926
-0.705049 -2.016999 -0.016007
-0.704122 -2.012112 -0.000964
-0.673962 -2.020808 -0.027904
-0.709865 -2.018588 0.188974
-0.675674 -2.022156 0.147086
-0.692220 -2.021432 0.045026
-0.679587 -2.008173 -0.113823
-0.682546 -2.010145 -0.118848
-0.698886 -2.025066 -0.007012
-0.735474 -2.021287 0.135875
-0.736410 -2.017177 0.120906
-0.716268 -2.021914 0.094953
-0.713834 -2.012035 -0.017963
-0.718597 -2.004646 -0.070919
-0.719501 -2.005479 -0.092929
-0.726405 -2.017335 0.143963
-0.748643 -2.002894 -0.052018
-0.715985 -2.008501 0.040075
-0.752770 -2.008210 -0.013072
-0.750844 -2.002312 0.000983
-0.768472 -2.040858 0.192624
-0.721666 -2.009980 -0.029956
-0.725343 -2.017357 0.145980
-0.742895 -2.017628 0.043911
-0.730269 -2.004339 -0.116936
-0.729264 -1.996298 -0.121868
-0.786153 -2.018512 0.137759
-0.745601 -2.008236 -0.009006
-0.789083 -2.018423 0.124751
-0.761540 -2.003214 -0.019022
-0.763966 -2.009104 0.093927
-0.770273 -2.002825 -0.073044
-0.772176 -2.005667 -0.094073
-0.778073 -2.017565 0.145821
-0.801327 -2.005108 -0.050176
-0.803470 -2.005429 -0.010182
-0.802529 -2.002528 0.002845
-0.767650 -2.005691 0.037958
-0.816173 -2.028070 0.193603
-0.771354 -2.004156 -0.032041
-0.777005 -2.014572 0.145864
-0.788616 -1.999806 0.042938
-0.783928 -2.007504 -0.121105
-0.784913 -2.001477 -0.125057
-0.837830 -2.017739 0.139634
-0.836799 -2.009651 0.128704
-0.798265 -2.005416 -0.012119
-0.814642 -2.002301 0.092855
-0.814216 -2.001415 -0.019141
-0.820885 -1.996833 -0.096121
-0.822949 -2.001006 -0.075161
-0.829745 -2.014785 0.146714
-0.851041 -1.997311 -0.048231
-0.852191 -1.996641 -0.007226
-0.854222 -1.999743 0.004743
-0.821305 -2.005884 0.035823
-0.829661 -2.013779 0.144740
-0.824028 -1.999341 -0.034131
-0.843268 -2.004009 0.041770
-0.834625 -1.999665 -0.124162
-0.837588 -2.000635 -0.129177
-0.884548 -2.004948 0.141634
-0.888490 -2.003893 0.132634
-0.851926 -2.005595 -0.015248
-0.878231 -2.025545 0.092507
-0.867887 -2.001610 -0.020268
-0.873646 -1.994177 -0.077218
-0.883494 -2.015032 -0.099422
-0.878444 -2.002994 0.147703
-0.912670 -2.015543 -0.047527
-0.918784 -2.024899 -0.005620
-0.907902 -2.000953 0.005612
-0.876955 -2.008082 0.033676
-0.877699 -1.997526 -0.036237
-0.899916 -2.008218 0.040607
-0.894257 -2.007836 -0.129365
-0.892260 -1.998798 -0.133282
-0.912549 -2.015795 -0.018469
-0.917997 -1.994703 0.091690
-0.928519 -2.013824 -0.021504
-0.921688 -1.984244 0.031792
-0.957567 -2.012427 0.039453
-0.968688 -1.982896 0.090698
