# .PCD v0.7 - Point Cloud Data file format
VERSION 0.7
FIELDS x y z
SIZE 4 4 4
TYPE F F F
COUNT 1 1 1
WIDTH 97
HEIGHT 1
VIEWPOINT 0 0 0 1
POINTS 97
DATA ascii
1.574051 -2.334184 2.499928
1.704191 -2.551569 2.710821
1.623551 -2.472723 2.732047
1.385707 -2.162358 2.470874
1.390687 -2.174527 2.444517
1.620553 -2.513860 2.655862
1.365505 -2.134352 2.457878
1.621128 -2.548184 2.671990
1.495296 -2.395631 2.608342
1.400500 -2.286617 2.572414
1.588599 -2.579893 2.861988
1.534663 -2.504210 2.610225
1.268389 -2.091383 2.378220
1.173297 -2.005079 2.334572
1.233930 -2.064168 2.394047
1.536258 -2.536612 2.627401
1.425091 -2.398736 2.575337
1.341040 -2.300261 2.549116
1.347927 -2.313789 2.531718
1.278728 -2.219893 2.514431
1.097353 -1.911954 2.320454
1.456558 -2.504120 2.576321
1.288824 -2.230647 2.507341
1.090267 -1.936133 2.304799
1.241926 -2.178398 2.498886
1.459148 -2.535590 2.594525
1.352060 -2.393619 2.536587
1.275852 -2.302425 2.514164
1.284624 -2.319293 2.505672
1.220368 -2.230348 2.484247
1.480782 -2.654640 3.187253
1.148297 -2.150282 2.437628
1.216840 -2.222658 2.471698
0.945446 -1.806410 2.255652
1.112704 -2.072615 2.439016
0.942520 -1.808023 2.246615
1.173882 -2.172557 2.465186
1.216457 -2.313074 2.489986
1.215598 -2.313315 2.467974
1.162005 -2.240882 2.456079
1.053049 -2.028112 2.404393
1.093003 -2.153924 2.409660
1.448137 -2.819058 3.482643
1.148751 -2.218954 2.441952
1.046815 -2.059558 2.396541
1.449999 -2.829053 3.482357
1.108823 -2.165871 2.433524
0.999692 -2.034046 2.384381
0.911921 -1.930196 2.351406
0.909961 -1.931937 2.345364
0.987687 -2.056067 2.366806
-1.237583 -3.166511 1.245676
-1.268728 -3.140753 1.234656
-1.285550 -3.083210 1.224413
-1.298852 -3.121725 1.212527
-1.314682 -3.055517 1.214442
-1.282757 -2.886357 1.156293
-1.342767 -3.032582 1.194420
-1.383030 -3.122937 1.228040
-1.294393 -2.824638 1.136257
-1.303177 -2.764015 1.118080
-1.393910 -3.021491 1.180121
-1.321554 -2.804832 1.120137
-1.429278 -3.052850 1.212370
-1.327292 -2.732515 1.112206
-1.353751 -2.715085 1.109824
-1.390375 -2.836072 1.126663
-1.353454 -2.711785 1.098108
-1.469342 -2.970737 1.192032
-1.383070 -2.695723 1.111613
-1.407441 -2.673226 1.105371
-1.390280 -2.676847 1.081457
-1.412314 -2.680061 1.101377
-1.511603 -2.899758 1.177375
-1.584755 -3.003759 1.135466
-1.438852 -2.658943 1.111016
-1.451197 -2.648209 1.088642
-1.547777 -2.821800 1.159899
-1.622811 -2.919741 1.116174
-1.531579 -2.652516 1.102921
-1.662965 -2.841785 1.099713
-1.534135 -2.530513 1.065624
3.497384 1.807970 3.690573
3.593100 1.754799 3.743439
3.681352 1.737210 3.722409
3.676951 1.692573 3.785273
3.737013 1.616188 3.804054
3.842132 1.608637 3.818071
3.547366 1.443087 3.687371
3.815005 1.546974 3.841882
3.688944 1.475669 3.774559
3.926066 1.543420 3.870915
3.854259 1.460432 3.843642
3.740072 1.399175 3.791366
4.012062 1.475264 3.927761
3.886602 1.369845 3.840400
4.097121 1.404134 3.984607
