# .PCD v0.7 - Point Cloud Data file format
VERSION 0.7
FIELDS x y z
SIZE 4 4 4
TYPE F F F
COUNT 1 1 1
WIDTH 307
HEIGHT 1
VIEWPOINT 0 0 0 1
POINTS 307
DATA ascii
0.370439 -2.031084 -0.126581
0.366603 -2.036131 -0.052712
0.364935 -2.033336 -0.104728
0.354093 -2.028800 -0.063892
0.350097 -2.029167 -0.102999
0.347783 -2.029938 -0.049043
0.333014 -2.037463 0.066563
0.331338 -2.037653 0.013505
0.325550 -2.040675 0.087359
0.322934 -2.030477 -0.125628
0.318170 -2.032497 -0.052737
0.315461 -2.029719 -0.102775
0.306723 -2.025138 -0.066892
0.301747 -2.024493 -0.106006
0.300339 -2.031291 -0.051114
0.284681 -2.034777 0.062530
0.282925 -2.033026 0.013500
0.277223 -2.033020 0.085399
0.276745 -2.039267 0.102306
0.273520 -2.023852 -0.124624
0.269701 -2.032871 -0.052811
0.267028 -2.024108 -0.101763
0.254276 -2.043810 0.292812
0.258382 -2.020470 -0.069890
0.249274 -2.041585 0.214708
0.253389 -2.018840 -0.107989
0.252005 -2.023639 -0.053069
0.246770 -2.047444 0.274590
0.237370 -2.027127 0.059600
0.233558 -2.023409 0.014554
0.229826 -2.031385 0.083383
0.230281 -2.040658 0.101268
0.220842 -2.046865 0.325049
0.225080 -2.019248 -0.123618
0.221354 -2.022254 -0.052718
0.220527 -2.025515 -0.101799
0.207894 -2.041193 0.290835
0.211990 -2.018836 -0.072880
0.201850 -2.038985 0.214710
0.206981 -2.016221 -0.109964
0.199493 -2.042772 0.269623
0.204624 -2.020008 -0.055051
0.189059 -2.023457 0.055600
0.186091 -2.023809 0.014517
0.182523 -2.023744 0.080463
0.181984 -2.029035 0.100382
0.174433 -2.047252 0.323034
0.178571 -2.021661 -0.123661
0.173938 -2.017657 -0.052681
0.172124 -2.015935 -0.099711
0.161573 -2.035568 0.287910
0.164646 -2.014196 -0.075839
0.154410 -2.038391 0.214691
0.159625 -2.012582 -0.112937
0.157301 -2.011385 -0.056951
0.151323 -2.032081 0.263731
0.142738 -2.018820 0.051665
0.139603 -2.023244 0.015523
0.136146 -2.020137 0.078514
0.135539 -2.029441 0.099375
0.128116 -2.041633 0.320114
0.130218 -2.010073 -0.122535
0.127470 -2.017079 -0.052671
0.126631 -2.016370 -0.099695
0.116133 -2.037976 0.285898
0.118329 -2.006577 -0.078725
0.107915 -2.039832 0.215673
0.113259 -2.006978 -0.114851
0.110897 -2.011766 -0.059952
0.103977 -2.032437 0.259709
0.095468 -2.011178 0.047762
0.093185 -2.016688 0.016625
0.090749 -2.017550 0.076580
0.088200 -2.023830 0.097442
0.081838 -2.033022 0.317247
0.083804 -2.002518 -0.121417
0.081028 -2.014509 -0.052625
0.079285 -2.003803 -0.098524
0.069842 -2.030367 0.283018
0.072902 -2.007976 -0.081713
0.067931 -1.999379 -0.117707
0.060617 -2.029241 0.214817
0.064606 -2.000170 -0.061771
0.057757 -2.022800 0.254862
0.051016 -2.014593 0.044769
0.046796 -2.010124 0.016735
0.044379 -2.013957 0.074647
0.042839 -2.016265 0.096589
0.036403 -2.035443 0.315247
0.038394 -1.993982 -0.120254
0.034705 -2.003933 -0.053453
0.025405 -2.031802 0.281056
0.032821 -2.001256 -0.097469
0.025718 -1.990362 -0.084457
0.050472 -2.555658 -0.159123
0.015255 -2.022681 0.213953
0.019355 -1.984596 -0.063500
0.011404 -2.023184 0.250876
0.004763 -2.004979 0.040933
-0.000862 -2.000371 0.071891
0.001144 -2.023592 0.017580
-0.003528 -2.010695 0.095694
-0.009845 -2.024847 0.312426
-0.007092 -1.994438 -0.120214
-0.009253 -2.045393 -0.054977
-0.020844 -2.021208 0.278237
-0.012688 -2.001727 -0.096429
-0.016588 -2.069767 -0.091496
-0.031175 -2.019145 0.215031
-0.025146 -1.990037 -0.065510
-0.023805 -1.991205 -0.122517
-0.034891 -2.018576 0.246972
-0.041381 -1.986373 0.037238
-0.043380 -2.159940 0.074684
-0.044595 -2.044065 0.018326
-0.048905 -2.005145 0.094827
-0.055265 -2.024298 0.311485
-0.052577 -1.994901 -0.120168
-0.056152 -1.995855 -0.053235
-0.065197 -2.015658 0.276393
-0.059054 -1.991195 -0.095240
-0.064137 -1.995193 -0.091403
-0.077009 -2.587557 0.271800
-0.070554 -1.990459 -0.068459
-0.069194 -1.989627 -0.125437
-0.079197 -2.013000 0.243131
-0.085863 -1.992809 0.034223
-0.090744 -2.003257 0.067980
-0.090528 -1.999530 0.019023
-0.097631 -2.478916 0.111892
-0.099651 -2.021753 0.309601
-0.097037 -1.992383 -0.120050
-0.100656 -1.997338 -0.053176
-0.119550 -2.596223 0.349787
-0.102596 -1.994690 -0.095190
-0.108476 -1.988635 -0.094222
-0.121052 -2.013116 0.216258
-0.114987 -1.991900 -0.071396
-0.124453 -2.004419 0.239323
-0.130289 -1.994253 0.031287
-0.134071 -1.993730 0.066229
-0.135027 -1.999033 0.020117
-0.137772 -2.002088 0.093038
-0.143950 -2.012217 0.307830
-0.152897 -2.005577 0.271733
-0.167525 -2.013601 0.217299
-0.182737 -2.268183 0.265244
-0.189627 -2.028714 0.308654
-0.197317 -2.004062 0.270851
-0.212962 -2.010106 0.218428
-0.216156 -2.002279 0.232484
-0.232754 -2.008177 0.305083
-0.242739 -2.003542 0.269940
0.364060 -2.020597 -0.110139
0.358516 -2.030535 -0.020239
0.356121 -2.022648 -0.105171
0.317824 -2.026763 0.002737
0.316588 -2.022621 -0.107228
0.310061 -2.027543 -0.018281
0.308644 -2.021672 -0.102230
0.282909 -2.035793 0.199613
0.270358 -2.023787 0.005707
0.269101 -2.017662 -0.103239
0.350615 -2.030423 -0.027813
0.348001 -2.022856 -0.082748
0.265464 -2.033260 0.148616
0.345770 -2.026258 -0.043781
0.261596 -2.018575 -0.015247
0.260168 -2.014719 -0.098213
0.319238 -2.028554 0.082183
0.234490 -2.034802 0.201588
0.221907 -2.018823 0.008728
0.303163 -2.027424 -0.027822
0.220639 -2.011707 -0.100208
0.300543 -2.018862 -0.082745
0.218018 -2.022267 0.149697
0.298318 -2.023261 -0.043787
0.214136 -2.012599 -0.013217
0.213682 -2.012770 -0.094221
0.207675 -2.042574 0.375505
0.274573 -2.031863 0.113122
0.271799 -2.025548 0.082178
0.187048 -2.030824 0.204604
0.175436 -2.013861 0.011758
0.174147 -2.003764 -0.096148
0.254721 -2.018419 -0.028767
0.253086 -2.016881 -0.081755
0.171583 -2.023274 0.150671
0.250868 -2.020267 -0.043787
0.168663 -2.014639 -0.010251
0.248755 -2.035619 0.286077
0.167204 -2.008817 -0.091198
0.161255 -2.036558 0.375547
0.231698 -2.038039 0.328048
0.226152 -2.021842 0.111192
0.225345 -2.018549 0.082222
0.139617 -2.021834 0.205681
0.128969 -2.007907 0.014809
0.208260 -2.012431 -0.028728
0.127669 -1.996818 -0.093087
0.205628 -2.008898 -0.081697
0.125142 -2.018291 0.151713
0.203407 -2.011292 -0.042719
0.122200 -2.008678 -0.008199
0.201346 -2.031599 0.285098
0.153108 -2.472583 -0.117678
0.115831 -2.028539 0.374619
0.185290 -2.031999 0.325092
0.179896 -2.018557 0.082212
0.179724 -2.021839 0.110182
0.092190 -2.021871 0.208681
0.084514 -2.029958 0.017599
0.161816 -2.009441 -0.029706
0.082199 -2.002879 -0.090141
0.160160 -2.004921 -0.081664
0.079689 -2.015324 0.153746
0.157945 -2.009313 -0.042705
0.156903 -2.031596 0.285092
0.077733 -2.016723 -0.006272
0.074239 -1.992955 -0.083042
0.070412 -2.026537 0.374644
0.137896 -2.023967 0.322166
0.134278 -2.016842 0.109229
0.133448 -2.013584 0.083259
0.046739 -2.014905 0.210760
0.037707 -1.997946 -0.087078
0.037040 -2.001020 0.020895
0.115357 -1.998469 -0.029596
0.114684 -1.992953 -0.081545
0.034243 -2.010354 0.154808
0.111476 -2.031600 0.285096
0.111483 -2.001352 -0.041623
0.031257 -1.996786 -0.003062
0.028778 -2.000014 -0.081094
0.025978 -2.026552 0.375659
0.092487 -2.032971 0.322089
0.087850 -2.007845 0.107325
0.087002 -2.002608 0.083375
0.005352 -2.577461 0.262247
0.073967 -2.073468 -0.033303
-0.007770 -1.995021 -0.084025
-0.008425 -1.999088 0.023938
-0.009037 -2.578738 0.188229
0.069233 -1.996991 -0.081568
0.065054 -2.019603 0.284226
0.066030 -2.001389 -0.041608
-0.013213 -1.998846 -0.001057
-0.017464 -2.022564 0.375721
-0.015718 -1.994099 -0.077011
0.047074 -2.019945 0.318232
0.042409 -1.994855 0.105471
0.044623 -2.107661 0.085382
-0.044154 -2.016015 0.216800
-0.052895 -1.997151 0.025989
-0.052258 -1.988103 -0.080924
-0.054667 -2.010445 0.157862
0.024466 -1.997527 -0.031547
0.023781 -1.995028 -0.082524
0.019624 -2.012624 0.284318
0.020574 -1.997433 -0.041544
-0.058673 -1.996913 0.000996
-0.061894 -2.015584 0.375823
-0.060203 -1.992181 -0.073958
0.001661 -2.013946 0.316319
-0.001958 -2.111924 0.108364
-0.002890 -2.008686 0.084367
-0.089598 -2.008071 0.218918
-0.019003 -1.995565 -0.032495
-0.099122 -2.001497 0.158992
-0.098357 -1.996233 0.029041
-0.097724 -1.987183 -0.078872
-0.020687 -1.993081 -0.082471
-0.027761 -2.581364 0.354808
-0.022907 -1.990482 -0.041442
-0.103144 -1.994986 0.003057
-0.110330 -2.088746 0.389134
-0.104688 -1.987270 -0.070866
-0.041773 -2.009953 0.314394
-0.046473 -1.998914 0.103501
-0.047348 -2.000731 0.084483
-0.136037 -2.006155 0.222987
-0.142586 -1.996554 0.160090
-0.063470 -1.987622 -0.032375
-0.142833 -1.988320 0.032170
-0.066144 -1.988143 -0.082378
-0.069255 -2.011703 0.286403
-0.068357 -1.989541 -0.041388
-0.147616 -1.992067 0.005137
-0.088180 -2.028008 0.316263
-0.090917 -1.996956 0.102567
-0.091802 -1.995784 0.084579
-0.181483 -2.008234 0.226022
-0.188032 -2.002630 0.162086
-0.108915 -1.984677 -0.033293
-0.113689 -2.011744 0.286453
-0.110606 -1.986201 -0.083307
-0.112821 -1.986606 -0.041307
-0.131612 -2.007011 0.312523
-0.136254 -1.994844 0.084645
-0.136351 -1.992006 0.101673
-0.226930 -2.003322 0.229137
-0.159119 -2.006803 0.287562
-0.177021 -2.002043 0.310636
-0.180797 -1.989062 0.100767
-0.203555 -2.002859 0.287668
-0.222437 -1.998092 0.309748
-0.247998 -1.999931 0.288772
