# .PCD v0.7 - Point Cloud Data file format
VERSION 0.7
FIELDS x y z
SIZE 4 4 4
TYPE F F F
COUNT 1 1 1
WIDTH 443
HEIGHT 1
VIEWPOINT 0 0 0 1
POINTS 443
DATA ascii
0.869940 2.559741 -0.243139
2.602381 2.164028 2.051677
2.509478 1.873302 1.981306
2.585692 2.050104 2.007042
2.586095 2.160157 1.979583
2.488052 2.097925 1.978244
2.382710 1.824678 1.956754
2.341760 1.631735 1.984390
3.303859 2.112174 2.883056
2.454129 1.969447 1.913312
2.366426 1.725832 1.910156
2.313407 1.535484 1.931651
2.414798 1.674208 1.915543
2.234152 1.310055 1.930687
2.303261 1.454858 1.896196
2.228436 1.241591 1.902333
2.332806 1.399583 1.893329
2.214793 1.171858 1.869872
2.245869 1.125636 1.874053
2.240501 1.318623 1.955024
2.324195 1.148511 1.949300
3.313270 -2.209893 1.166424
3.749961 -2.521291 0.378404
3.450762 -2.386017 0.010699
3.497143 -2.418895 0.071031
3.446637 -2.391843 -0.047400
3.400231 -2.393219 0.244051
3.471849 -2.452653 0.358503
3.351567 -2.393289 0.638495
3.409935 -2.457415 0.786753
3.711191 -2.512731 1.271907
3.658196 -2.460356 -0.062489
3.224628 -2.343113 0.067251
3.605380 -2.429968 -0.078911
3.194652 -2.322721 0.008028
3.607552 -2.433369 -0.168919
3.183245 -2.321800 -0.045111
3.668850 -2.493419 0.652470
3.114465 -2.303751 0.224206
3.579719 -2.460870 0.231579
3.179943 -2.358369 0.336618
3.476562 -2.412015 0.191666
3.092574 -2.318816 0.595856
3.590832 -2.506428 0.687413
3.135699 -2.374425 0.739984
3.360377 -2.379461 -0.056550
2.962950 -2.261938 0.063621
2.940055 -2.244314 0.005464
3.319793 -2.355671 -0.073873
3.303398 -2.344701 -0.156001
2.912180 -2.230947 -0.042786
3.365390 -2.405415 0.608383
2.850660 -2.213543 0.206607
3.309473 -2.390977 0.219760
2.919315 -2.273063 0.317019
3.184732 -2.323800 0.178722
3.562541 -2.415398 0.123483
3.312698 -2.430652 0.649541
2.903835 -2.305082 0.700622
3.488434 -2.389945 -0.195271
3.471208 -2.380953 -0.286424
3.440331 -2.364644 -0.172669
3.101933 -2.309257 -0.051218
3.045912 -2.271945 -0.068629
3.048918 -2.275395 -0.144626
3.091112 -2.323454 0.567605
3.455884 -2.416972 0.094150
2.655177 -2.164143 0.192548
2.669504 -2.181355 0.297606
3.029604 -2.301336 0.207973
3.498200 -2.468508 0.550325
3.387905 -2.403131 0.562465
2.927244 -2.245426 0.167127
3.053593 -2.355210 0.612900
3.290323 -2.348593 0.118631
3.648526 -2.423804 -0.442798
3.662946 -2.434843 -0.362697
3.626605 -2.419464 -0.292019
3.211751 -2.316379 -0.179124
3.179080 -2.295906 -0.264379
3.172873 -2.296766 -0.159452
2.521923 -2.118478 0.001216
2.540810 -2.135229 0.057329
2.513472 -2.120535 -0.039910
2.823455 -2.229202 0.528000
3.622149 -2.461273 -0.054371
3.724878 -2.537049 0.435361
3.160926 -2.327861 0.091187
2.468517 -2.109415 0.180638
2.505502 -2.146922 0.285823
3.209747 -2.384023 0.517403
3.103441 -2.316473 0.525609
2.442050 -2.114256 0.489303
2.479991 -2.161973 0.626425
2.998231 -2.253329 0.111750
3.400252 -2.381261 0.050523
3.019512 -2.482400 1.819625
3.292176 -2.308917 -0.400298
3.364064 -2.360067 -0.333800
3.440286 -2.427953 0.517704
2.935653 -2.228716 -0.163864
3.332781 -2.344484 -0.268059
2.347695 -2.069733 0.055421
2.329841 -2.053948 -0.000686
2.903926 -2.212860 -0.146133
2.401678 -2.134400 0.917690
2.605262 -2.142001 -0.040102
2.596308 -2.136166 -0.060170
2.593105 -2.136877 -0.126223
2.613712 -2.165101 0.496882
3.315170 -2.375605 -0.046493
2.290802 -2.052356 0.168856
3.390851 -2.437048 0.407012
2.890008 -2.238908 0.088518
2.302146 -2.068649 0.269883
2.943331 -2.300786 0.487743
2.263442 -2.054120 0.460532
2.832777 -2.223309 0.490972
2.506321 -2.119526 0.147860
2.310617 -2.109554 0.598709
2.847005 -2.258069 0.993933
3.359425 -2.481959 0.991338
3.113456 -2.297861 0.051629
3.033583 -2.241772 -0.370966
3.077933 -2.275787 -0.306676
2.482128 -2.148300 0.926419
3.145686 -2.338608 0.485757
2.199567 -2.033775 0.052846
2.180639 -2.016024 -0.002259
3.036441 -2.252506 -0.244001
2.676457 -2.139982 -0.225397
2.237639 -2.084691 0.870017
2.447218 -2.111428 -0.036833
2.168961 -2.013206 -0.037387
2.414676 -2.087335 -0.057054
2.418581 -2.092841 -0.119055
2.423164 -2.107369 0.468953
2.828394 -2.296839 0.981400
3.102943 -2.525972 1.738111
2.130314 -2.001716 0.157239
2.170430 -2.043128 0.261432
3.017891 -2.279547 -0.038418
3.096130 -2.346745 0.383071
3.061500 -2.337778 1.009779
2.111263 -2.008136 0.435981
2.616973 -2.158399 0.463795
2.315367 -2.055886 0.138973
2.154363 -2.060690 0.572129
2.391377 -2.131906 0.518372
2.571466 -2.135652 0.102368
3.056886 -2.381637 0.925371
2.839508 -2.207969 0.050943
2.328481 -2.113307 0.885771
2.053192 -1.989716 0.050355
2.032193 -1.970034 -0.003762
2.083571 -2.034642 0.825471
2.520660 -2.115834 -0.140134
2.859789 -2.238906 0.453995
2.499028 -2.101074 -0.212296
2.258052 -2.045788 -0.032682
2.028708 -1.973969 -0.036839
2.495013 -2.100746 -0.126334
2.235739 -2.028361 -0.053828
2.241658 -2.035827 -0.111818
2.253791 -2.055944 0.445237
2.600525 -2.219121 0.925168
1.989024 -1.957437 0.147811
2.022006 -1.994068 0.249952
2.485395 -2.127515 0.085361
2.223838 -2.052302 0.174863
2.816672 -2.260596 0.950345
1.969130 -1.963813 0.413541
2.483893 -2.145824 0.435237
2.870476 -2.320800 1.560606
2.300901 -2.147808 0.945166
2.430533 -2.105540 0.440888
2.012204 -2.015360 0.548697
2.161079 -2.013063 0.132380
2.911442 -2.364280 1.511769
2.216788 -2.073630 0.494644
2.456624 -2.148643 0.893925
2.166325 -2.060500 0.841153
1.919979 -1.950210 0.047992
1.907197 -1.937267 -0.006074
2.606042 -2.132748 0.052640
1.942619 -1.989170 0.785053
2.333683 -2.058154 -0.130008
2.624575 -2.161581 0.428684
2.569494 -2.105586 -0.317640
2.593488 -2.126203 -0.260497
2.106628 -2.001908 -0.030231
1.897525 -1.936415 -0.036192
2.317096 -2.046255 -0.198129
2.317243 -2.048759 -0.118138
2.085349 -1.985449 -0.051371
2.584813 -2.124834 -0.206588
2.101619 -2.010952 0.423685
2.086065 -1.988099 -0.105388
2.439874 -2.186388 0.890422
1.601484 -1.675508 1.053235
1.869226 -1.928470 0.139534
1.892938 -1.956385 0.240625
2.292345 -2.062947 0.083463
2.072480 -2.007370 0.169322
2.562384 -2.145828 -0.027011
1.850419 -1.933749 0.395284
2.595002 -2.189669 0.897148
2.147902 -2.101738 0.905609
2.308504 -2.095609 0.416445
1.883279 -1.977604 0.527371
2.256088 -2.052261 0.419131
1.927349 -2.031778 0.926546
2.014732 -1.967949 0.125902
2.070685 -2.031448 0.475145
2.284495 -2.097167 0.850180
2.203843 -2.019911 0.094699
2.022416 -2.017128 0.802688
2.071046 -2.086007 1.965885
1.791733 -1.909527 0.046699
1.779950 -1.896548 -0.007354
1.812698 -1.945330 0.747759
2.437900 -2.097428 0.052833
1.769160 -1.892734 -0.035463
2.176260 -2.016501 -0.121641
1.965273 -1.959680 -0.027668
2.450477 -2.121350 0.411840
2.383596 -2.053920 -0.297537
2.148291 -1.993974 -0.185820
1.951180 -1.948994 -0.048763
2.406676 -2.076566 -0.242422
2.151588 -1.999352 -0.110813
1.944613 -1.943882 -0.099811
1.964646 -1.972463 0.404271
2.395912 -2.071235 -0.191509
2.279420 -2.159664 1.971749
2.245911 -2.131501 1.938548
1.752297 -1.895387 0.132323
1.773956 -1.921362 0.232404
2.259532 -2.128163 0.846627
1.822224 -2.017731 1.931445
1.939372 -1.969828 0.163950
2.134948 -2.018222 0.081853
1.629875 -1.683030 1.055410
1.731507 -1.896651 0.376079
2.416980 -2.142398 0.855307
2.214500 -1.983325 1.749137
1.766380 -1.941447 0.509183
2.008030 -2.060242 0.869180
1.809675 -1.997579 0.894332
2.400586 -2.125579 0.328179
2.139955 -2.040134 0.398778
2.095687 -2.000508 0.399536
1.900153 -1.946829 0.120634
1.932544 -1.987983 0.456754
2.116157 -2.038521 0.806538
2.052461 -1.974969 0.092164
1.878247 -1.964714 0.763290
1.974513 -2.083143 1.921695
1.698023 -1.911028 0.716583
2.262260 -2.046298 0.054055
2.371338 -2.156567 0.777621
1.835016 -1.920071 -0.024988
2.020598 -1.966747 -0.113190
2.261682 -2.057498 0.391996
1.819862 -1.907414 -0.046081
2.002820 -1.950906 -0.175295
1.838714 -1.935604 0.386982
2.207645 -1.999896 -0.277294
2.009276 -1.960175 -0.103279
1.809151 -1.898441 -0.095150
2.225678 -2.019680 -0.226220
2.219062 -2.018211 -0.177286
2.161725 -2.148425 1.917364
2.094211 -2.071440 0.807006
1.732421 -2.004567 1.883414
1.812240 -1.931068 0.158661
1.983436 -1.969269 0.080347
1.686607 -1.701619 1.056847
1.685612 -1.948500 0.856151
1.857607 -1.998993 0.827771
2.237638 -2.084110 0.812533
2.201949 -2.041920 -0.016667
1.989648 -1.992059 0.382279
1.760543 -1.892431 0.114311
1.965955 -1.970804 0.384150
2.214778 -2.062647 0.312364
1.804524 -1.948182 0.439461
1.976275 -1.997011 0.772115
1.918331 -1.937456 0.089786
1.760639 -1.932503 0.732066
1.721052 -1.888920 -0.023171
2.091456 -1.988963 0.054384
1.885292 -1.927321 -0.105568
1.718758 -1.897526 0.369776
1.702809 -1.873358 -0.044280
2.103380 -2.009676 0.375403
2.193993 -2.100249 0.740856
1.868523 -1.912460 -0.165667
1.864645 -1.910022 -0.096689
2.056177 -1.959055 -0.260853
2.066975 -1.971050 -0.210808
2.064485 -1.972434 -0.164845
1.608443 -1.687187 1.037984
1.947084 -2.022143 0.772554
1.858469 -1.937470 0.080038
1.743958 -1.966658 0.799597
2.086668 -2.039946 0.778001
1.758793 -1.735784 1.061349
1.858618 -1.953367 0.368946
1.837978 -1.932998 0.368848
2.043345 -1.992216 -0.012247
1.696857 -1.920743 0.426326
2.057454 -2.015820 0.300776
1.854676 -1.965935 0.742838
1.411667 -1.628345 1.030104
1.793280 -1.901623 0.086506
1.236324 -1.547652 1.010642
1.656158 -1.905882 0.705962
1.757971 -1.886603 -0.098837
1.954350 -1.953560 0.055958
1.746333 -1.876595 -0.156910
1.745613 -1.878047 -0.090923
1.961328 -1.970342 0.361945
2.033741 -2.047368 0.707276
1.922981 -1.925598 -0.246244
1.930773 -1.936681 -0.198230
1.922050 -1.930242 -0.153283
1.812063 -1.976448 0.740223
1.735302 -1.898569 0.078805
1.932342 -1.982817 0.740527
1.718026 -1.895919 0.354640
1.741878 -1.924227 0.357716
1.900973 -1.948969 -0.008677
1.728738 -1.922942 0.711600
1.916275 -1.973456 0.290352
1.819016 -1.910051 0.056617
1.833357 -1.933533 0.349642
1.882464 -1.994189 0.676809
1.792607 -1.886014 -0.231553
1.788016 -1.884467 -0.184593
1.790736 -1.890661 -0.143604
1.696363 -1.943173 0.715037
1.817896 -1.958534 0.717291
1.763456 -1.900529 -0.005007
1.636621 -1.909962 0.691549
1.784121 -1.931785 0.281035
1.701055 -1.877987 0.057401
1.709312 -1.893565 0.336411
1.756650 -1.957225 0.651531
1.697012 -1.918375 0.690099
1.196532 -1.798650 1.874278
1.218341 -1.817377 1.870289
1.310941 -1.838756 1.882163
1.453957 -1.909671 1.902266
1.418987 -1.875714 1.897098
1.272005 -1.842184 1.890631
1.244237 -1.831823 1.845357
1.123510 -1.795795 1.896250
1.377314 -1.906114 1.868308
0.858908 -1.419636 1.132799
1.201197 -1.831386 1.852816
0.832182 -1.395213 1.394683
1.061757 -1.787714 1.861526
1.131342 -1.818531 1.814029
0.843232 -1.381683 1.023794
0.836448 -1.435769 1.419319
0.881405 -1.412809 1.019927
0.853520 -1.378573 1.008850
0.817058 -1.389854 1.003300
0.809568 -1.393260 1.320213
-2.057155 3.710570 1.755132
-1.753056 4.695566 1.830279
-1.669805 4.819579 1.866093
-0.040862 1.902799 1.816863
0.000989 1.951781 1.811383
0.005198 1.903618 1.822736
-0.026066 1.860625 1.810449
0.043939 1.949663 1.812214
0.050191 1.893556 1.818454
0.013726 1.980536 1.809906
0.016911 1.859499 1.811291
0.087932 1.950475 1.817066
0.096263 1.893327 1.825282
0.127116 2.451027 1.851506
0.152366 2.567067 1.845930
0.058708 1.981399 1.810753
-0.009153 1.831284 1.815189
0.060942 1.865274 1.818208
0.130882 1.945341 1.816829
0.141279 1.884189 1.823982
0.187320 2.448778 1.858223
0.210481 2.567852 1.850688
0.028567 2.012222 1.812459
0.031768 1.830184 1.813024
0.104697 1.978283 1.808529
0.175945 1.955975 1.832779
0.104944 1.862113 1.818992
0.139007 2.392838 1.841872
0.246499 2.445522 1.863911
-0.004591 1.811102 1.810085
0.181500 2.637676 1.849925
0.267568 2.562659 1.852354
0.076624 2.022007 1.817397
0.074787 1.837942 1.819957
0.150754 1.988966 1.820473
0.148958 1.859909 1.821773
0.101959 2.345709 1.838597
0.197202 2.401505 1.853725
0.035400 1.827803 1.822153
0.304636 2.431339 1.862438
0.325669 2.558443 1.854009
0.242633 2.635484 1.850606
0.048499 2.065935 1.811283
0.124668 2.026803 1.820252
0.115675 1.828894 1.811659
0.197810 1.994683 1.828331
0.157072 2.349472 1.843397
0.503547 3.697542 1.921148
0.253293 2.391342 1.851317
0.076259 1.818811 1.809858
0.212719 2.703284 1.851838
0.304804 2.640203 1.856354
0.106729 2.323383 1.841470
0.099587 2.074734 1.813175
0.173717 2.029605 1.821059
0.212221 2.364110 1.856324
0.589923 3.699180 1.928683
0.118260 1.831533 1.817837
0.278972 2.718923 1.862707
0.159818 2.333109 1.848345
0.366967 2.641914 1.861041
0.151720 2.087445 1.820097
0.266283 2.359905 1.855987
0.676304 3.704749 1.939241
0.568330 3.864838 1.936185
0.212860 2.335911 1.848110
0.254145 2.808778 1.859222
0.346219 2.730575 1.870494
0.204878 2.102108 1.829021
0.660757 3.869439 1.942686
0.265925 2.339641 1.851871
0.326453 2.821436 1.864988
0.398781 2.839004 1.875794
