# .PCD v0.7 - Point Cloud Data file format
VERSION 0.7
FIELDS x y z
SIZE 4 4 4
TYPE F F F
COUNT 1 1 1
WIDTH 14
HEIGHT 1
VIEWPOINT 0 0 0 1
POINTS 14
DATA ascii
-1.353082 1.833328 1.536322
-1.389692 1.868534 1.487196
-1.392137 1.962575 1.538710
-1.423657 1.974117 1.475158
-1.365338 2.017500 1.558336
-1.349239 1.860840 1.544694
-1.387784 2.020271 1.487561
-1.325422 2.055790 1.565572
-1.391369 2.133156 1.548362
-1.483657 2.259717 1.560160
-1.363645 2.199981 1.575150
-1.371991 2.199980 1.500182
-1.323782 2.249138 1.590553
-1.380785 2.341552 1.576484
