# .PCD v0.7 - Point Cloud Data file format
VERSION 0.7
FIELDS x y z
SIZE 4 4 4
TYPE F F F
COUNT 1 1 1
WIDTH 195
HEIGHT 1
VIEWPOINT 0 0 0 1
POINTS 195
DATA ascii
-1.228986 2.283986 0.565385
-1.238838 2.304139 0.523424
-1.174647 2.306002 0.517691
-1.166778 2.292857 0.556672
-1.147570 2.333935 0.231907
-1.106455 2.294881 0.509929
-1.218280 2.322081 0.461648
-1.119473 2.330899 0.225012
-1.103571 2.297736 0.547953
-1.098611 2.362619 0.003220
-1.167581 2.295574 0.577754
-1.083366 2.335809 0.226183
-1.165396 2.342689 0.252944
-1.041259 2.286769 0.502174
-1.067563 2.356520 0.013328
-1.148087 2.312950 0.455902
-1.052277 2.323769 0.221268
-1.164087 2.352981 0.167988
-1.033359 2.282633 0.536192
-1.053095 2.370900 -0.104556
-1.052070 2.371919 -0.110548
-1.033407 2.361493 -0.000507
-1.098373 2.288461 0.568018
-1.011153 2.321689 0.219436
-1.200749 2.326064 0.397804
-1.174388 2.285372 0.585757
-0.979069 2.281659 0.496423
-1.096195 2.334565 0.247203
-1.000364 2.348394 0.010585
-1.079893 2.301835 0.449148
-0.988081 2.319649 0.217529
-1.094893 2.344848 0.165248
-0.971149 2.285527 0.527474
-0.985903 2.361772 -0.105300
-0.983871 2.362792 -0.112286
-0.965209 2.350372 -0.003246
-1.034172 2.287351 0.560299
-1.063244 2.362324 0.010460
-0.948950 2.322580 0.213722
-1.129556 2.315937 0.393078
-1.110191 2.286255 0.579050
-0.917878 2.276554 0.490688
-1.047019 2.367462 -0.038444
-1.027995 2.327446 0.242487
-0.936171 2.344274 0.008867
-1.012697 2.294715 0.444429
-0.921887 2.307535 0.213790
-1.122033 2.334396 0.256187
-1.027707 2.336721 0.163525
-0.909945 2.285426 0.519763
-1.035624 2.377790 -0.138350
-1.029664 2.373727 -0.123339
-0.919707 2.351653 -0.107026
-0.919670 2.358676 -0.114997
-1.106076 2.366230 0.007387
-0.902007 2.347261 -0.006956
-0.967960 2.277253 0.550572
-0.995048 2.353199 0.008744
-0.884745 2.314476 0.207998
-1.175165 2.330019 0.333042
-1.055356 2.296814 0.388347
-1.072343 2.344834 0.103459
-0.857681 2.272454 0.484964
-1.041978 2.280146 0.570345
-0.978829 2.358332 -0.038159
-0.951508 2.292603 0.440712
-0.962790 2.325331 0.237788
-0.861691 2.305430 0.210074
-0.870974 2.335159 0.007145
-1.050833 2.322272 0.252471
-0.961512 2.331597 0.161819
-0.967430 2.369662 -0.138060
-1.147840 2.336204 0.264193
-0.963470 2.370599 -0.123037
-0.856505 2.349540 -0.108728
-0.856471 2.354566 -0.116707
-1.036884 2.360096 0.007687
-0.836807 2.335155 -0.009688
-0.907760 2.280148 0.544876
-0.930850 2.352081 0.007047
-1.028495 2.366439 -0.093249
-0.820533 2.307378 0.202284
-0.993166 2.299691 0.386655
-1.102965 2.322887 0.330349
-1.019156 2.372726 -0.179180
-1.119927 2.365936 0.038441
-1.003154 2.334704 0.103746
-0.977777 2.274043 0.563627
-0.914638 2.356210 -0.037858
-1.010266 2.367580 -0.142158
-0.802498 2.304328 0.207361
-0.886305 2.281502 0.434984
-0.807779 2.325054 0.005415
-0.896589 2.315223 0.234068
-0.896321 2.320486 0.160089
-0.985636 2.320154 0.249773
-0.901238 2.363538 -0.136765
-0.897276 2.362481 -0.122750
-1.077647 2.328077 0.262489
-0.793309 2.341434 -0.109449
-1.053772 2.279917 0.582410
-0.794267 2.351465 -0.119414
-1.076694 2.362970 0.006632
-0.966692 2.345972 0.007966
-0.775602 2.332061 -0.013397
-0.866657 2.345970 0.006335
-0.958306 2.354309 -0.090961
-0.754324 2.284291 0.196520
-0.926968 2.289584 0.382935
-0.952972 2.367597 -0.175883
-1.031771 2.310764 0.328638
-0.937965 2.329584 0.104040
-1.044739 2.348798 0.040727
-0.917580 2.277938 0.558936
-0.844449 2.330096 -0.036620
-0.944081 2.360455 -0.139868
-0.827116 2.280400 0.432272
-0.747576 2.323958 0.002711
-0.830381 2.298133 0.228324
-0.831124 2.308381 0.158361
-0.919439 2.310047 0.247053
-0.835049 2.348426 -0.135501
-1.008455 2.315961 0.260770
-0.832080 2.354370 -0.122462
-0.732109 2.334339 -0.111171
-0.988573 2.272815 0.576694
-0.732069 2.340372 -0.121147
-0.903502 2.344858 0.008269
-1.006502 2.354842 0.007935
-0.713397 2.323970 -0.016117
-1.005924 2.367400 -0.149014
-0.799459 2.323873 0.004579
-1.002659 2.374639 -0.217970
-0.895120 2.353189 -0.088657
-0.692110 2.271212 0.190783
-0.992843 2.369415 -0.159942
-0.862770 2.282480 0.380222
-0.886786 2.360474 -0.172588
-0.873775 2.323472 0.104330
-0.961569 2.296653 0.325920
-0.975551 2.339671 0.043023
-0.782250 2.326994 -0.037323
-0.879892 2.358337 -0.137562
-0.775190 2.312033 0.226657
-0.772935 2.311280 0.157664
-0.853231 2.301947 0.243347
-0.773854 2.347324 -0.135200
-0.765888 2.335267 -0.121208
-0.943257 2.313849 0.259079
-0.928380 2.276711 0.573005
-0.838307 2.336751 0.008559
-0.937315 2.341722 0.010218
-0.938739 2.363272 -0.144703
-0.742261 2.333780 0.002908
-0.939476 2.380512 -0.213638
-0.827928 2.340077 -0.086377
-0.924662 2.360287 -0.154647
-0.821597 2.353360 -0.169293
-0.808578 2.315366 0.104623
-0.910365 2.335553 0.045326
-0.897374 2.296542 0.325236
-0.725060 2.333898 -0.037005
-0.814700 2.350227 -0.135270
-0.702966 2.265965 0.219838
-0.795041 2.304852 0.241651
-0.710660 2.335227 -0.133928
-0.706689 2.337177 -0.121899
-0.877061 2.301750 0.257357
-0.847502 2.220291 0.660178
-0.874130 2.339610 0.012523
-0.774111 2.327652 0.008846
-0.871553 2.354153 -0.140408
-0.766741 2.337974 -0.084077
-0.871298 2.366389 -0.207358
-0.860479 2.357170 -0.150340
-0.758407 2.344260 -0.167010
-0.748389 2.312271 0.104916
-0.835185 2.295437 0.325543
-0.842168 2.321447 0.046609
-0.752506 2.347129 -0.133968
-0.816873 2.304648 0.257672
-0.714920 2.327563 0.009148
-0.806937 2.325506 0.014804
-0.807373 2.347041 -0.135114
-0.704550 2.330878 -0.081787
-0.805113 2.357276 -0.202061
-0.796295 2.351062 -0.146041
-0.698216 2.346164 -0.164693
-0.777978 2.311347 0.048894
-0.747752 2.330409 0.017127
-0.743185 2.339938 -0.130814
-0.740928 2.348172 -0.196770
-0.732108 2.339963 -0.141757
-0.717790 2.312252 0.051209
-0.682999 2.337848 -0.127509
