# .PCD v0.7 - Point Cloud Data file format
VERSION 0.7
FIELDS x y z
SIZE 4 4 4
TYPE F F F
COUNT 1 1 1
WIDTH 56
HEIGHT 1
VIEWPOINT 0 0 0 1
POINTS 56
DATA ascii
-0.250206 1.913934 1.833890
-0.242735 1.963934 1.824889
-0.218848 1.844753 1.816267
-0.202962 1.907652 1.826170
-0.204568 1.955700 1.819301
-0.200550 1.958686 1.815247
-0.197326 1.971654 1.821229
-0.163622 1.739639 1.711191
-0.156616 1.906360 1.823471
-0.161103 1.962410 1.822665
-0.156241 1.959411 1.809584
-0.151841 1.982358 1.821571
-0.124069 1.751370 1.718617
-0.146663 2.006355 1.812546
-0.116907 1.955138 1.813982
-0.101649 1.784257 1.709350
-0.110964 1.957127 1.802895
-0.105561 1.982072 1.812872
-0.099232 2.015048 1.808851
-0.067631 1.849026 1.716980
-0.063739 1.900934 1.748044
-0.060192 1.985775 1.809193
-0.051791 2.023732 1.806153
-0.025697 1.827786 1.697287
-0.018592 1.840756 1.690207
-0.011034 1.875675 1.704175
-0.003553 2.021425 1.794412
0.032281 1.875383 1.699508
0.045732 1.916301 1.695398
0.136427 2.294351 1.823933
0.140216 2.268323 1.823812
0.173128 2.339068 1.825482
0.187691 2.286973 1.819130
0.189586 2.269953 1.822060
0.216879 2.380720 1.829916
0.226487 2.334657 1.825654
0.239148 2.290570 1.822350
0.238681 2.255604 1.809268
0.270841 2.351332 1.815013
0.277194 2.294322 1.798771
0.275856 2.145530 1.711407
0.272191 2.103612 1.688355
0.325958 2.328915 1.807107
0.341143 2.461792 1.799209
0.312942 2.147274 1.692834
0.393302 2.445382 1.793364
0.358424 2.164910 1.691172
0.431149 2.514063 1.791957
0.446589 2.435946 1.792518
0.472110 2.587703 1.795516
0.486330 2.498616 1.786065
0.471077 2.272981 1.681700
0.533427 2.580192 1.792551
0.533771 2.442290 1.751180
0.591497 2.670691 1.784892
0.592663 2.567695 1.787603
