# .PCD v0.7 - Point Cloud Data file format
VERSION 0.7
FIELDS x y z
SIZE 4 4 4
TYPE F F F
COUNT 1 1 1
WIDTH 27
HEIGHT 1
VIEWPOINT 0 0 0 1
POINTS 27
DATA ascii
0.940594 2.576853 1.687087
0.954437 2.625604 1.633694
0.921852 2.327817 1.681876
0.928874 2.353563 1.624187
0.902477 2.255711 1.678921
1.010968 2.580304 1.701126
1.063044 2.711761 1.697825
0.932330 2.214728 1.617359
1.022565 2.425616 1.687122
0.921600 2.181437 1.635895
0.925756 2.165487 1.634704
1.069674 2.549911 1.694704
0.918497 2.208578 1.623178
0.921633 2.189477 1.633950
1.170912 2.710820 2.279825
1.017136 2.272774 1.675100
1.077182 2.402129 1.685781
0.990803 2.200666 1.668119
1.002836 2.197625 1.680097
1.005333 2.266680 1.677914
0.996701 2.222656 1.674356
1.073580 2.265144 1.686962
1.047331 2.187056 1.678896
1.058898 2.249150 1.679641
1.050560 2.164092 1.678607
1.052255 2.207096 1.680107
0.996223 1.919950 1.665216
