# .PCD v0.7 - Point Cloud Data file format
VERSION 0.7
FIELDS x y z
SIZE 4 4 4
TYPE F F F
COUNT 1 1 1
WIDTH 19
HEIGHT 1
VIEWPOINT 0 0 0 1
POINTS 19
DATA ascii
3.760770 -2.585974 0.711397
3.612607 -2.573265 0.823152
3.633884 -2.604005 1.063998
3.542333 -2.557626 0.684182
3.592840 -2.625569 1.114680
3.562201 -2.624858 1.055652
3.481896 -2.616002 1.412505
3.501803 -2.627232 1.173433
3.435953 -2.582992 1.152749
3.453507 -2.604442 1.279590
3.416542 -2.579483 1.023769
3.437199 -2.619672 1.128411
3.402465 -2.609046 1.074440
3.295530 -2.592377 1.364349
3.270131 -2.584893 1.237406
3.177966 -2.605616 1.658098
3.221469 -2.675211 1.799478
3.170485 -2.617122 1.789953
3.149148 -2.632499 1.913779
