# .PCD v0.7 - Point Cloud Data file format
VERSION 0.7
FIELDS x y z
SIZE 4 4 4
TYPE F F F
COUNT 1 1 1
WIDTH 75
HEIGHT 1
VIEWPOINT 0 0 0 1
POINTS 75
DATA ascii
2.587147 -0.832277 2.886027
2.571214 -0.828226 2.907070
2.612985 -0.845300 2.839959
2.591686 -0.903060 2.841035
2.597342 -0.971206 2.872030
2.676011 -1.001657 2.815808
2.715613 -1.071094 2.842691
2.673677 -1.067665 2.833811
2.671674 -1.068645 2.833817
2.670360 -1.126553 2.826811
2.670331 -1.137672 2.853809
2.652363 -1.134461 2.843861
2.678982 -1.204779 2.867781
2.665968 -1.214765 2.890818
2.715720 -1.240016 2.851666
2.727451 -1.303566 2.952612
2.678446 -1.299627 2.847759
2.748606 -1.435153 2.842487
2.900909 -2.310013 2.851888
2.957025 -2.466439 2.860415
2.890450 -2.413113 2.899697
3.006302 -2.590641 2.831021
2.825782 -2.583199 2.835477
0.700951 -1.530444 2.071197
0.728523 -1.608705 2.080851
0.721506 -1.636626 2.066781
0.660283 -1.529117 2.043344
0.688805 -1.614457 2.065962
0.723321 -1.694676 2.063575
0.714419 -1.684605 2.059637
0.765690 -1.797060 2.081082
0.728176 -1.727773 2.071442
0.660143 -1.598910 1.992109
0.607834 -1.500519 1.979624
0.712313 -1.732509 2.035472
0.620584 -1.557594 1.972384
0.652109 -1.636827 1.976001
0.729895 -1.815805 2.061112
0.648141 -1.634825 1.979021
0.712124 -1.785656 2.053275
0.666816 -1.688077 2.000770
0.713122 -1.794512 2.025239
0.634202 -1.635952 2.012061
0.587841 -1.540653 2.009555
0.658807 -1.712033 1.994705
0.744471 -1.914930 2.056691
0.603499 -1.610849 2.020250
0.631053 -1.688041 2.020878
0.657703 -1.754956 1.974545
0.630036 -1.693080 2.027862
0.639877 -1.723109 2.020719
0.652682 -1.759134 2.009544
0.664508 -1.788187 2.005398
0.637591 -1.814197 2.023368
0.759112 -2.147050 2.392704
0.733542 -2.083747 2.367028
1.696752 1.187008 2.613501
1.775726 1.197760 2.656139
1.736907 1.160810 2.640690
1.822830 1.172489 2.694377
1.816716 1.160219 2.727280
2.503673 1.541253 3.637949
2.367574 1.447122 3.496543
2.418582 1.428353 2.954784
1.959699 1.143566 2.830245
1.911918 1.109697 2.802753
2.833143 1.630116 3.200604
2.741701 1.565596 3.118659
1.993914 1.106423 2.850324
1.937193 1.070632 2.810766
3.142446 1.744574 3.335243
2.755275 1.513051 3.060477
3.153589 1.712574 3.337143
2.010273 1.058431 2.847229
3.048661 1.600489 3.194860
