# .PCD v0.7 - Point Cloud Data file format
VERSION 0.7
FIELDS x y z
SIZE 4 4 4
TYPE F F F
COUNT 1 1 1
WIDTH 37
HEIGHT 1
VIEWPOINT 0 0 0 1
POINTS 37
DATA ascii
1.185267 1.673975 2.267887
1.226732 1.939225 2.267955
1.208101 1.701083 2.264567
1.167358 1.699032 2.296868
1.196819 1.774877 2.256265
1.130457 1.542599 2.284211
1.168730 1.627502 2.238461
1.125784 1.472019 2.223840
1.338600 2.468491 2.512808
1.339063 2.424211 2.533425
1.387000 2.546881 2.597929
1.392086 2.441743 2.518833
1.351403 2.316894 2.462549
1.393006 2.573071 2.572432
1.363034 2.371984 2.457273
1.386734 2.428029 2.461115
1.275982 2.298881 2.467662
1.385093 2.365119 2.719563
1.150659 1.799289 2.409119
1.371466 2.217894 2.724981
1.166761 1.799593 2.390203
1.399326 2.385531 2.587032
1.383620 2.243066 2.613481
1.085674 1.614894 2.373242
1.392474 2.144462 2.673442
1.132591 1.736176 2.385657
1.357563 2.136080 2.762427
1.378982 2.221987 2.691494
1.335822 2.058393 2.434633
1.126123 1.595924 2.388294
1.292369 1.896292 2.404813
1.308952 2.059156 2.426718
1.281277 1.920041 2.411172
1.313634 1.966461 2.581736
1.264364 1.806019 2.396908
1.240681 1.677935 2.377549
1.256788 1.790863 2.389944
