# .PCD v0.7 - Point Cloud Data file format
VERSION 0.7
FIELDS x y z
SIZE 4 4 4
TYPE F F F
COUNT 1 1 1
WIDTH 42
HEIGHT 1
VIEWPOINT 0 0 0 1
POINTS 42
DATA ascii
0.646983 3.202409 1.904967
0.384835 1.837269 0.992774
0.403643 1.847916 1.040978
0.414077 1.852897 0.965072
0.663744 2.928059 1.778780
0.673335 2.969103 1.783302
0.654236 2.880030 1.773177
0.662136 2.892063 1.777350
0.427312 1.830711 0.993868
0.445128 1.839347 1.042047
0.751385 2.990381 1.828868
0.744630 2.963296 1.830522
0.763026 3.027434 1.834350
0.750653 2.964345 1.831559
0.626503 2.449145 1.831007
0.615491 2.353041 1.831836
0.693766 2.579335 1.785810
0.754776 2.745504 2.264049
0.755955 2.726444 2.270832
0.759925 2.729439 2.274884
0.759974 2.726475 2.271849
0.996526 3.538459 2.650373
0.987321 3.441985 2.685210
0.759332 2.569000 1.785976
0.637315 2.140930 1.778457
0.711364 2.382118 1.735586
0.636589 2.114900 1.781152
0.639554 2.118906 1.783212
0.638706 2.106948 1.779069
0.711676 2.337741 1.770076
0.920936 2.983522 2.674583
0.696401 2.257457 1.783077
0.673337 2.089683 1.746028
0.669757 2.051685 1.743573
0.672704 2.057701 1.744657
0.675762 2.051667 1.750602
0.723789 2.176314 1.733265
0.999355 2.979212 2.683895
0.745892 2.146761 1.803038
0.744229 2.114724 1.805663
0.741374 2.101734 1.802500
0.747372 2.100682 1.812518
