# .PCD v0.7 - Point Cloud Data file format
VERSION 0.7
FIELDS x y z
SIZE 4 4 4
TYPE F F F
COUNT 1 1 1
WIDTH 30
HEIGHT 1
VIEWPOINT 0 0 0 1
POINTS 30
DATA ascii
1.747693 2.183899 1.585130
1.484095 1.803522 1.306648
1.475266 1.775139 1.324304
1.565342 1.813004 1.343520
1.528180 1.879309 1.304230
1.490890 1.835272 1.300206
1.553636 1.788636 1.358077
2.168731 2.414883 1.238137
2.200646 2.415104 1.194162
1.582430 1.750264 1.330976
1.571931 1.732815 1.343373
1.622910 1.905510 1.345732
1.571067 1.842700 1.333122
1.355665 1.719146 1.544075
1.562504 1.929151 1.339446
1.614090 1.952596 1.284958
1.638903 1.839674 1.326267
1.598485 1.790803 1.326348
1.579470 1.862304 1.321000
1.721934 1.983508 1.328398
1.602112 1.991164 1.340442
1.273178 1.576461 1.350470
1.622388 1.827183 1.323858
1.746992 1.919547 1.313895
1.610676 1.910382 1.313293
1.795621 2.118213 1.309803
1.359816 1.598930 1.394071
1.660734 1.880117 1.318051
1.818351 2.043236 1.290545
1.376160 1.543043 1.373344
