# .PCD v0.7 - Point Cloud Data file format
VERSION 0.7
FIELDS x y z
SIZE 4 4 4
TYPE F F F
COUNT 1 1 1
WIDTH 25
HEIGHT 1
VIEWPOINT 0 0 0 1
POINTS 25
DATA ascii
-1.304555 1.922613 1.780589
-1.315868 2.178403 1.709526
-1.359210 2.266334 1.750402
-1.292570 2.256375 1.746524
-1.291611 2.266576 1.730646
-1.268321 2.338331 1.785575
-1.274603 2.362281 1.782833
-1.342621 2.520801 1.743442
-1.322793 2.631502 1.799819
-1.421920 2.842554 1.850940
-1.309225 2.779815 1.795614
-1.425060 2.239406 1.812398
-1.431581 2.212332 1.812071
-1.303007 2.152187 1.715807
-1.342295 2.179555 1.727015
-1.309577 2.130126 1.714539
-1.280584 2.232123 1.751872
-1.320813 2.252512 1.759992
-1.283016 2.202220 1.741525
-1.313926 2.364932 1.735359
-1.254132 2.312117 1.786954
-1.304523 2.338280 1.803106
-1.264789 2.298004 1.785769
-1.306079 2.483335 1.800840
-1.257056 2.524892 1.811541
