# .PCD v0.7 - Point Cloud Data file format
VERSION 0.7
FIELDS x y z
SIZE 4 4 4
TYPE F F F
COUNT 1 1 1
WIDTH 60
HEIGHT 1
VIEWPOINT 0 0 0 1
POINTS 60
DATA ascii
0.125236 2.060227 1.788282
0.126997 2.078181 1.796438
0.162607 2.069534 1.795373
0.170943 2.055703 1.784253
0.171889 2.060713 1.784297
0.195237 2.132921 1.788932
0.211417 2.061052 1.788303
0.216691 2.048172 1.779189
0.218658 2.052175 1.781225
0.247992 2.130428 1.786912
0.258221 2.050524 1.782206
0.262326 2.047585 1.779179
0.265392 2.045603 1.780161
0.299845 2.120956 1.778821
0.306053 2.038996 1.775090
0.307181 2.032053 1.769027
0.310208 2.032037 1.774026
0.350677 2.111447 1.771719
0.408188 2.126815 1.785829
0.739140 2.579106 1.740716
0.745329 2.570117 1.743627
0.990320 3.206266 2.143320
0.797104 2.558516 1.737468
0.800426 2.538532 1.735278
0.864401 2.589898 1.750688
0.850228 2.523946 1.723083
0.856434 2.512907 1.730972
0.980710 2.729727 1.764867
0.923499 2.560308 1.742335
0.904211 2.498307 1.716771
0.061653 2.003129 1.804417
0.105311 1.993252 1.800162
0.078518 2.040083 1.801469
0.147979 1.977396 1.790856
0.190846 2.121512 1.788794
0.125225 2.025251 1.790156
0.190638 1.964494 1.785564
0.170888 2.018348 1.785899
0.239609 2.099641 1.779404
0.233306 1.949585 1.779248
0.195914 2.081468 1.776278
0.215558 2.006443 1.779599
0.288365 2.079729 1.773018
0.243617 2.070531 1.773970
0.260248 1.989542 1.770250
0.336112 2.059782 1.768626
0.290329 2.053605 1.767610
0.335041 2.029695 1.756194
0.687566 2.631333 1.876484
0.695498 2.440056 1.754851
0.791712 2.592245 1.736591
0.744226 2.411037 1.746335
0.870620 3.110453 2.135205
0.848551 2.557176 1.730975
0.761758 2.507905 1.740793
0.782621 2.573008 1.732218
0.900381 2.511115 1.720281
0.817514 2.486825 1.737294
0.836430 2.533963 1.721580
0.892221 2.503860 1.716994
