# .PCD v0.7 - Point Cloud Data file format
VERSION 0.7
FIELDS x y z
SIZE 4 4 4
TYPE F F F
COUNT 1 1 1
WIDTH 447
HEIGHT 1
VIEWPOINT 0 0 0 1
POINTS 447
DATA ascii
-0.022691 -2.046506 -0.103210
-0.029650 -2.043402 -0.117162
-0.069437 -2.045774 -0.100082
-0.072537 -2.037476 -0.030989
-0.028436 -2.038570 -0.103947
-0.076387 -2.044670 -0.114054
-0.032410 -2.040629 -0.099957
-0.080520 -2.040864 0.003999
-0.069339 -2.041799 0.000133
-0.115273 -2.029026 -0.096797
-0.118297 -2.039725 -0.027893
-0.075186 -2.040807 -0.102847
-0.121462 -2.047483 0.148046
-0.121163 -2.043916 -0.110932
-0.036173 -2.041629 -0.104806
-0.079182 -2.037877 -0.097808
-0.125282 -2.044095 0.006082
-0.080246 -2.045714 -0.013879
-0.040155 -2.046857 -0.083846
-0.139491 -2.041391 0.231154
-0.071145 -2.041099 0.026292
-0.115102 -2.039033 0.001273
-0.162005 -2.032285 -0.093716
-0.165056 -2.036991 -0.023752
-0.119975 -2.032039 -0.101651
-0.169217 -2.045739 0.151178
-0.083029 -2.035574 -0.032627
-0.082939 -2.035863 -0.104633
-0.168931 -2.037189 -0.106749
-0.038982 -2.037141 -0.058586
-0.124934 -2.037112 -0.096689
-0.126024 -2.038937 -0.013700
-0.085932 -2.040085 -0.083667
-0.172056 -2.037341 0.008262
-0.043886 -2.036602 -0.115571
-0.132214 -2.050089 0.201213
-0.046916 -2.036993 -0.077566
-0.185246 -2.042623 0.233251
-0.195394 -2.046365 0.405245
-0.156110 -2.039043 0.185380
-0.115908 -2.039315 0.026418
-0.071944 -2.034328 0.045527
-0.161858 -2.036267 0.002412
-0.208755 -2.030529 -0.091588
-0.211810 -2.035242 -0.020625
-0.127010 -2.044796 0.171397
-0.166709 -2.034275 -0.100561
-0.128680 -2.037076 -0.105535
-0.215012 -2.035980 0.154384
-0.214700 -2.032439 -0.103593
-0.129763 -2.037790 -0.033536
-0.084711 -2.041345 -0.060516
-0.171681 -2.036358 -0.094570
-0.171811 -2.029166 -0.012494
-0.218807 -2.036580 0.010380
-0.132708 -2.031312 -0.083467
-0.089645 -2.032809 -0.117422
-0.177986 -2.046300 0.201359
-0.092669 -2.035207 -0.078437
-0.231024 -2.036830 0.233416
-0.149959 -2.041345 0.216488
-0.243170 -2.040604 0.408414
-0.116686 -2.037531 0.044603
-0.202843 -2.044276 0.187436
-0.162662 -2.037546 0.027546
-0.119795 -2.034410 0.132645
-0.207605 -2.037490 0.003507
-0.254519 -2.026773 -0.088444
-0.257584 -2.029484 -0.017461
-0.172785 -2.038987 0.169562
-0.212474 -2.029502 -0.099407
-0.260481 -2.023683 -0.100400
-0.175438 -2.032290 -0.106378
-0.175540 -2.030007 -0.033351
-0.262759 -2.036225 0.157490
-0.131469 -2.036541 -0.063357
-0.217447 -2.031584 -0.093416
-0.264580 -2.030810 0.012542
-0.219505 -2.041388 -0.012506
-0.179433 -2.035534 -0.083400
-0.135403 -2.029010 -0.119276
-0.223784 -2.034498 0.200583
-0.138424 -2.032407 -0.080301
-0.142784 -2.041576 0.240633
-0.276786 -2.036052 0.235527
-0.196703 -2.043566 0.217574
-0.288020 -2.015789 0.407766
-0.248622 -2.038500 0.189599
-0.163425 -2.038739 0.043700
-0.209413 -2.035762 0.027672
-0.165540 -2.035601 0.130740
-0.254373 -2.031724 0.005671
-0.301249 -2.031006 -0.086383
-0.218566 -2.031184 0.168745
-0.304341 -2.026725 -0.014329
-0.260214 -2.028733 -0.098291
-0.221187 -2.031504 -0.106265
-0.308189 -2.032919 -0.098388
-0.308531 -2.032456 0.160630
-0.222274 -2.032214 -0.034266
-0.178211 -2.035740 -0.065241
-0.310343 -2.028036 0.014672
-0.264209 -2.025810 -0.092252
-0.265280 -2.034597 -0.012335
-0.225208 -2.027748 -0.083217
-0.182134 -2.030201 -0.122180
-0.269841 -2.040078 0.443642
-0.269545 -2.032700 0.200704
-0.185180 -2.027607 -0.082145
-0.188546 -2.039771 0.239756
-0.236765 -2.040689 0.416702
-0.322564 -2.030261 0.236687
-0.242478 -2.038778 0.218725
-0.294416 -2.027711 0.190809
-0.255177 -2.031968 0.027813
-0.210171 -2.037933 0.041814
-0.213281 -2.034786 0.127857
-0.300138 -2.027949 0.007810
-0.347989 -2.033234 -0.084305
-0.352063 -2.033964 -0.011300
-0.265319 -2.029380 0.167868
-0.305965 -2.027950 -0.097182
-0.354943 -2.031158 -0.095270
-0.268911 -2.034712 -0.107191
-0.355294 -2.029687 0.163759
-0.269038 -2.025416 -0.035094
-0.223980 -2.028932 -0.067070
-0.310945 -2.028030 -0.091172
-0.311060 -2.025812 -0.011146
-0.358076 -2.031264 0.016741
-0.271944 -2.028950 -0.084125
-0.228503 -2.044281 0.376807
-0.228891 -2.024398 -0.124016
-0.315323 -2.025898 0.200873
-0.231920 -2.026802 -0.084032
-0.234309 -2.037971 0.239877
-0.282532 -2.038871 0.415821
-0.368324 -2.030473 0.238782
-0.288250 -2.033976 0.218874
-0.342139 -2.035942 0.193827
-0.255931 -2.035126 0.040943
-0.301938 -2.027175 0.027963
-0.259054 -2.027968 0.126026
-0.346888 -2.027162 0.008918
-0.394753 -2.028468 -0.081159
-0.398834 -2.027196 -0.008134
-0.313042 -2.035574 0.166908
-0.353693 -2.031160 -0.097114
-0.315655 -2.033911 -0.108083
-0.314784 -2.025599 -0.036997
-0.402686 -2.031395 -0.092173
-0.403046 -2.029925 0.167855
-0.270734 -2.024113 -0.069919
-0.404827 -2.031483 0.018835
-0.358666 -2.034249 -0.090135
-0.357807 -2.025015 -0.011039
-0.319662 -2.035162 -0.084086
-0.275268 -2.040448 0.373947
-0.362056 -2.032104 0.201908
-0.275634 -2.022590 -0.125896
-0.278666 -2.025002 -0.084912
-0.281072 -2.034161 0.239017
-0.414086 -2.030680 0.240873
-0.329308 -2.032044 0.413990
-0.335012 -2.031182 0.220001
-0.388909 -2.031156 0.195972
-0.301718 -2.023317 0.040160
-0.347701 -2.023372 0.028097
-0.306811 -2.022144 0.123187
-0.395603 -2.035388 0.010933
-0.442504 -2.025691 -0.079035
-0.446578 -2.028425 -0.005052
-0.359803 -2.031760 0.166044
-0.400450 -2.027371 -0.095980
-0.448461 -2.024619 -0.089013
-0.362405 -2.031105 -0.108958
-0.450788 -2.034158 0.171906
-0.363500 -2.030798 -0.037949
-0.451580 -2.030688 0.019936
-0.406407 -2.034464 -0.089040
-0.318467 -2.024303 -0.071820
-0.406521 -2.033230 -0.010024
-0.366419 -2.030355 -0.084941
-0.323026 -2.037624 0.372076
-0.408818 -2.029295 0.202031
-0.323333 -2.032770 -0.128898
-0.325417 -2.021188 -0.086775
-0.326852 -2.026342 0.238192
-0.460851 -2.027877 0.241994
-0.380791 -2.024380 0.221164
-0.436656 -2.033377 0.199044
-0.395429 -2.028581 0.029141
-0.348465 -2.022506 0.039266
-0.441382 -2.027598 0.013103
-0.355519 -2.031337 0.122194
-0.489259 -2.023904 -0.076927
-0.493339 -2.026655 -0.000944
-0.406556 -2.030942 0.165145
-0.448191 -2.027582 -0.094889
-0.496198 -2.027835 -0.086955
-0.498546 -2.033386 0.176005
-0.409264 -2.025981 -0.038808
-0.409165 -2.025295 -0.109805
-0.498352 -2.023898 0.022095
-0.453280 -2.029424 -0.009894
-0.366185 -2.029477 -0.074775
-0.453177 -2.026670 -0.087870
-0.413173 -2.027553 -0.084819
-0.456560 -2.032495 0.203091
-0.369810 -2.026782 0.369281
-0.371078 -2.028947 -0.131762
-0.508594 -2.033092 0.245030
-0.373131 -2.027362 -0.089740
-0.372615 -2.023518 0.237313
-0.427545 -2.024577 0.222254
-0.484405 -2.035594 0.202111
-0.396196 -2.025693 0.038328
-0.444161 -2.030780 0.029213
-0.490120 -2.028804 0.014183
-0.402277 -2.027508 0.120326
-0.541099 -2.022875 0.002182
-0.455286 -2.036135 0.165186
-0.495933 -2.027777 -0.094802
-0.546092 -2.028105 0.024138
-0.457004 -2.026167 -0.039719
-0.456906 -2.024483 -0.110705
-0.546320 -2.027610 0.180151
-0.501025 -2.029616 -0.009807
-0.500921 -2.026874 -0.086783
-0.413915 -2.031646 -0.077703
-0.460912 -2.027740 -0.085730
-0.504311 -2.032680 0.203178
-0.417826 -2.026124 -0.133642
-0.417567 -2.023948 0.367403
-0.554380 -2.025276 0.246193
-0.419376 -2.020704 0.237434
-0.420873 -2.025541 -0.091629
-0.476271 -2.032784 0.224262
-0.532163 -2.034796 0.204206
-0.490927 -2.024966 0.029359
-0.443944 -2.022866 0.036448
-0.537877 -2.026011 0.016297
-0.451012 -2.028682 0.118406
-0.502057 -2.029306 0.164341
-0.505731 -2.030351 -0.040673
-0.593104 -2.018815 0.183323
-0.504653 -2.021666 -0.111589
-0.548775 -2.028803 -0.009714
-0.461666 -2.026822 -0.079565
-0.507677 -2.020928 -0.085575
-0.552071 -2.030870 0.204281
-0.465564 -2.025290 -0.136545
-0.605103 -2.035491 0.249173
-0.468097 -2.030909 0.239421
-0.468613 -2.024715 -0.093531
-0.524035 -2.028975 0.225387
-0.579935 -2.030002 0.207337
-0.491684 -2.024043 0.035524
-0.539666 -2.027164 0.030423
-0.498760 -2.027846 0.116501
-0.546851 -2.017467 0.163542
-0.509409 -2.024982 -0.082460
-0.636352 -2.171312 0.217965
-0.515851 -2.030087 0.239514
-0.516364 -2.019885 -0.095397
-0.569819 -2.021154 0.226546
-0.540434 -2.024215 0.034609
-0.681289 -2.014730 -0.067503
-0.672671 -2.569713 0.140227
-0.686373 -2.019494 0.010458
-0.739716 -2.580537 0.202035
-0.687254 -2.010676 -0.075452
-0.690386 -2.017699 0.030484
-0.646178 -2.021459 -0.083479
-0.563627 -2.023248 0.238668
-0.619573 -2.022346 0.228617
-0.731038 -2.013929 -0.065421
-0.681176 -2.012588 0.021672
-0.736131 -2.016709 0.014561
-0.737988 -2.014877 -0.073421
-0.689944 -2.017524 -0.093372
-0.739143 -2.015881 0.031575
-0.650889 -2.017182 -0.115298
-0.691967 -2.008636 -0.082276
-0.693069 -2.012344 -0.008309
-0.651940 -2.010453 -0.087225
-0.609407 -2.015411 0.238823
-0.686914 -2.025698 0.030675
-0.732906 -2.017788 0.023694
-0.782777 -2.015129 -0.063361
-0.784899 -2.010906 0.017690
-0.788739 -2.013083 -0.070332
-0.788899 -2.014071 0.033663
-0.739693 -2.015710 -0.092281
-0.795113 -2.026695 0.202548
-0.743803 -2.016521 -0.008279
-0.699641 -2.013349 -0.116185
-0.744682 -2.016822 -0.082285
-0.701732 -2.019030 -0.045238
-0.745133 -2.017575 0.207722
-0.702676 -2.009626 -0.088141
-0.654669 -2.009446 -0.090062
-0.659552 -2.009923 -0.147062
-0.663589 -2.016354 -0.103121
-0.734692 -2.014874 0.031857
-0.689656 -2.021715 0.030869
-0.782662 -2.014966 0.024792
-0.836503 -2.020320 -0.062345
-0.836645 -2.013116 0.021735
-0.838501 -2.008271 -0.068216
-0.840646 -2.014262 0.035729
-0.743860 -2.010135 0.161925
-0.790438 -2.014885 -0.092203
-0.794550 -2.014693 -0.008191
-0.750488 -2.014179 -0.047118
-0.753349 -2.021517 -0.118195
-0.797412 -2.020012 -0.081247
-0.753410 -2.011792 -0.089091
-0.707379 -2.015603 -0.093049
-0.711271 -2.013068 -0.151020
-0.713338 -2.010511 -0.104988
-0.820808 -1.998944 0.221020
-0.784449 -2.010040 0.031975
-0.737424 -2.013868 0.030018
-0.883293 -2.008494 -0.060163
-0.834409 -2.014156 0.026868
-0.887409 -2.008309 0.024848
-0.893226 -2.015469 -0.066225
-0.892399 -2.013448 0.037801
-0.795601 -2.010304 0.161993
-0.843176 -2.014061 -0.092127
-0.745518 -2.007631 0.108098
-0.847285 -2.017867 -0.008157
-0.848623 -2.021937 0.210813
-0.801233 -2.012340 -0.048031
-0.848169 -2.015191 -0.080132
-0.802116 -2.011673 -0.119027
-0.807130 -2.015954 -0.091064
-0.760100 -2.017745 -0.096998
-0.763000 -2.013218 -0.153950
-0.765065 -2.012659 -0.107939
-0.838175 -2.015214 0.031989
-0.788170 -2.012026 0.029105
-0.884180 -2.006334 0.029010
-0.939168 -2.005500 0.027937
-0.947138 -2.015638 0.039839
-0.845360 -2.006451 0.161096
-0.891945 -2.007220 -0.091996
-0.798248 -2.010792 0.107134
-0.896063 -2.007032 -0.006985
-0.897934 -2.008351 -0.080001
-0.855952 -2.017499 -0.050017
-0.854847 -2.013828 -0.120984
-0.858874 -2.014114 -0.091981
-0.811837 -2.015889 -0.099912
-0.815727 -2.013356 -0.157884
-0.816800 -2.011802 -0.110864
-0.888934 -2.010373 0.032100
-0.942886 -2.019533 0.030937
-0.840909 -2.009175 0.027200
-0.895130 -1.996593 0.160259
-0.847018 -1.999926 0.105308
-0.905720 -2.007647 -0.050856
-0.863579 -2.013027 -0.102820
-0.866478 -2.006493 -0.160751
-0.867555 -2.002946 -0.112710
-0.944665 -2.013552 0.033128
-0.891665 -2.004322 0.026310
-0.900755 -1.998070 0.103390
-0.956486 -1.999223 0.102437
3.160403 -2.193204 0.849396
3.054137 -2.176724 1.155198
3.041171 -2.199546 1.394060
3.176073 -2.156759 0.819204
3.036049 -2.172455 1.261481
2.886740 -2.166701 1.115809
3.187689 -2.197663 0.946049
2.894761 -2.198475 1.353682
3.006107 -2.180473 0.866361
2.932667 -2.183766 1.412153
3.034613 -2.162828 0.798790
2.876629 -2.161415 1.220106
3.015990 -2.178156 1.362672
2.838288 -2.133279 0.667131
2.729324 -2.154698 1.079454
3.024250 -2.186675 0.910652
2.720353 -2.167376 1.298373
2.998532 -2.193094 1.483556
2.849668 -2.170513 0.835988
2.710060 -2.180388 0.776279
3.068397 -2.165519 0.912181
2.789258 -2.177679 1.367797
2.872137 -2.147918 0.772415
3.059379 -2.183766 0.945072
2.858565 -2.165101 1.318302
2.701211 -2.131371 1.170778
2.994877 -2.170871 1.464954
2.693809 -2.125396 0.648782
2.874797 -2.178708 0.880279
2.586891 -2.145716 1.048124
2.847151 -2.182960 1.430187
2.578600 -2.177474 0.756947
2.917922 -2.157580 0.884796
2.940994 -2.191180 1.495708
2.908934 -2.174777 0.910690
2.723132 -2.161062 1.280949
2.852435 -2.162802 1.421592
2.582350 -2.137498 0.637426
2.461466 -2.145743 1.021794
2.691751 -2.161845 1.375859
2.477482 -2.168316 1.233728
2.588745 -2.165632 0.790309
2.789616 -2.177039 1.439348
2.615177 -2.146094 0.734718
2.524418 -2.163549 1.286149
2.716998 -2.155743 1.380243
2.606902 -2.168777 0.824587
2.467331 -2.141390 1.118100
2.345023 -2.145786 0.998485
2.359036 -2.163307 1.202437
2.645943 -2.141724 0.836105
2.648222 -2.162919 1.387015
2.644066 -2.168809 0.849970
2.493687 -2.143203 0.718397
2.399983 -2.153504 1.247859
2.462234 -2.142025 1.209320
2.481443 -2.161831 0.799273
2.351873 -2.139423 1.092796
2.455914 -2.161718 1.300207
2.245579 -2.156306 1.172168
2.518450 -2.132809 0.813788
2.517604 -2.159847 0.821654
2.293538 -2.154493 1.218563
2.476070 -2.144682 1.309614
2.353769 -2.142034 1.182018
2.239415 -2.134454 1.066513
2.341480 -2.155669 1.262917
2.415966 -2.138885 0.797467
2.409405 -2.154762 1.303375
2.187093 -2.150479 1.187289
2.361597 -2.136669 1.276327
2.249297 -2.141059 1.156730
2.231041 -2.149643 1.228636
2.299991 -2.152709 1.266071
2.263113 -2.137676 1.250039
2.141822 -2.133088 1.129467
2.197560 -2.150672 1.231784
