# .PCD v0.7 - Point Cloud Data file format
VERSION 0.7
FIELDS x y z
SIZE 4 4 4
TYPE F F F
COUNT 1 1 1
WIDTH 699
HEIGHT 1
VIEWPOINT 0 0 0 1
POINTS 699
DATA ascii
-1.149880 2.203009 0.500550
-1.088309 2.202675 0.494948
-1.086738 2.223274 0.218036
-1.070539 2.218463 0.209122
-1.031802 2.199236 0.508307
-1.023633 2.192364 0.487333
-1.022105 2.218964 0.214445
-1.122541 2.207473 0.440180
-1.026755 2.236349 0.012479
-1.020637 2.234455 -0.007488
-1.007965 2.222135 0.203551
-1.086806 2.226302 0.230487
-0.968161 2.195907 0.498720
-0.961998 2.186007 0.480723
-0.955360 2.201660 0.210824
-1.058945 2.206141 0.436592
-0.960054 2.226052 0.009885
-0.964880 2.241278 -0.116090
-0.955972 2.227137 -0.010083
-0.955800 2.238350 -0.106040
-1.052260 2.216811 0.160674
-0.938150 2.199866 0.196934
-1.016031 2.208044 0.224881
-0.904463 2.185564 0.489114
-0.902390 2.182615 0.475117
-0.895754 2.198272 0.207219
-0.992242 2.194832 0.429992
-1.101238 2.206868 0.380747
-0.897393 2.217698 0.008280
-0.896095 2.221988 -0.116697
-0.892297 2.218796 -0.012681
-0.998346 2.230806 -0.035913
-0.989655 2.214460 0.159083
-0.888035 2.221048 -0.106645
-0.877544 2.199490 0.191349
-0.981230 2.222899 0.001171
-0.963148 2.186919 0.521159
-0.842747 2.175211 0.469502
-0.954442 2.208678 0.221300
-0.840753 2.175208 0.479517
-1.027748 2.170259 0.536085
-0.834099 2.191893 0.203623
-0.930606 2.188455 0.425385
-1.044424 2.219777 0.235173
-0.835741 2.211321 0.006682
-1.038672 2.209511 0.378172
-0.838535 2.224578 -0.119288
-0.829605 2.208433 -0.016286
-0.937547 2.231630 -0.124500
-0.934713 2.226457 -0.035500
-0.930082 2.214064 0.158486
-0.828425 2.218654 -0.108240
-1.036068 2.229161 0.103265
-0.930437 2.229729 -0.136460
-0.815861 2.190111 0.185743
-0.917588 2.218549 -0.000413
-1.022698 2.231531 0.000362
-0.903558 2.186518 0.514566
-0.787179 2.174754 0.464893
-0.780074 2.166808 0.470913
-0.889762 2.201330 0.216714
-0.778539 2.192439 0.201017
-0.971267 2.180825 0.532511
-0.870998 2.185043 0.421784
-0.978755 2.211441 0.232580
-0.774046 2.199931 0.005073
-0.974024 2.203159 0.375581
-0.774809 2.211211 -0.119891
-0.984164 2.241128 -0.088342
-0.767924 2.200045 -0.018883
-0.875927 2.228251 -0.124090
-0.873081 2.221074 -0.035097
-0.866414 2.206697 0.156897
-0.766741 2.209267 -0.109841
-0.964269 2.207883 0.102661
-0.867790 2.223356 -0.135053
-0.757237 2.186688 0.181146
-1.075855 2.213311 0.321406
-0.853889 2.206182 -0.001021
-1.065576 2.215594 0.243482
-0.840874 2.178138 0.505969
-0.957052 2.227194 0.000787
-0.730545 2.167298 0.459270
-0.723486 2.167351 0.464321
-0.827082 2.192949 0.212119
-0.720937 2.190992 0.198424
-0.913740 2.186388 0.528929
-0.812398 2.182608 0.419186
-0.718484 2.201469 0.003477
-0.909979 2.193125 0.227976
-0.905229 2.181839 0.369966
-0.719257 2.214756 -0.122481
-0.921372 2.231882 -0.141952
-0.913359 2.217826 -0.084953
-0.712365 2.202586 -0.021475
-0.812220 2.215877 -0.123693
-0.919309 2.237977 -0.172914
-0.810403 2.211687 -0.034695
-0.806780 2.200277 0.155290
-0.710160 2.209818 -0.111434
-0.903695 2.209480 0.103084
-0.807148 2.216953 -0.134653
-0.699632 2.186243 0.176559
-1.011256 2.213955 0.319841
-0.796331 2.209748 -0.002602
-0.783278 2.176689 0.500372
-0.995836 2.200289 0.240886
-0.891340 2.213841 0.001185
-1.001481 2.217701 0.042917
-0.673910 2.160827 0.454657
-0.987235 2.216942 0.001009
-0.665839 2.161895 0.456720
-0.768470 2.190514 0.208525
-0.663261 2.179534 0.195799
-0.848993 2.170017 0.520315
-0.754784 2.178152 0.415580
-0.660868 2.199015 0.001885
-0.661608 2.207308 -0.124092
-0.847696 2.187388 0.369391
-0.849397 2.195712 0.226409
-0.857706 2.223503 -0.139545
-0.655760 2.201127 -0.025070
-0.854820 2.223398 -0.083524
-0.970808 2.243497 -0.161772
-0.853584 2.222615 -0.169520
-0.753851 2.215231 -0.035279
-0.747128 2.192844 0.153686
-0.753629 2.216445 -0.124275
-0.652529 2.205366 -0.113033
-0.842059 2.204074 0.103492
-0.747539 2.215524 -0.133235
-0.643013 2.182773 0.172959
-0.957676 2.232574 -0.140727
-0.941494 2.196635 0.317244
-0.737714 2.206307 -0.003197
-0.723591 2.166253 0.492760
-0.934246 2.199888 0.240306
-0.829707 2.209436 0.001598
-0.938887 2.217312 0.045342
-0.924872 2.189251 0.543333
-0.620330 2.159316 0.450045
-0.924630 2.215553 0.002432
-0.711897 2.192046 0.205938
-0.607144 2.152435 0.449118
-0.609717 2.183026 0.193206
-0.789352 2.164582 0.513716
-0.698191 2.176672 0.412983
-0.605261 2.196532 -0.000716
-0.787040 2.179960 0.365791
-0.603980 2.204848 -0.126678
-0.789776 2.192277 0.223818
-0.797087 2.220082 -0.137132
-0.598098 2.193663 -0.027674
-0.791123 2.212003 -0.081120
-0.690550 2.193368 0.153097
-0.793997 2.223184 -0.167098
-0.694201 2.208789 -0.034874
-0.695007 2.212997 -0.123866
-0.900039 2.225174 -0.155361
-0.594871 2.197900 -0.113636
-0.898912 2.228311 -0.207342
-0.782443 2.200636 0.103901
-0.689926 2.212066 -0.132833
-0.586375 2.178294 0.168361
-0.893025 2.226196 -0.136308
-0.877839 2.190240 0.315660
-0.680114 2.205846 -0.004782
-0.749155 2.126538 0.681857
-0.665947 2.160783 0.486160
-0.871600 2.193483 0.239715
-0.769078 2.206008 0.002015
-0.874227 2.210929 0.046764
-0.566732 2.155792 0.446432
-0.862204 2.180845 0.537735
-0.845125 2.147742 0.643722
-0.861994 2.210147 0.004846
-0.653221 2.182586 0.202330
-0.553595 2.156909 0.444534
-0.554084 2.177524 0.190600
-0.538981 2.119283 0.752515
-0.641555 2.170183 0.409374
-0.733818 2.170087 0.511138
-0.550681 2.197026 -0.002308
-0.549392 2.204346 -0.128275
-0.730476 2.181473 0.365204
-0.732174 2.189809 0.222222
-0.735417 2.211657 -0.134724
-0.542462 2.188168 -0.030279
-0.633922 2.187882 0.151491
-0.733557 2.214539 -0.079698
-0.637610 2.208307 -0.034463
-0.639456 2.217511 -0.124444
-0.732329 2.214757 -0.163690
-0.839448 2.224747 -0.151939
-0.538219 2.191414 -0.115238
-0.837313 2.227894 -0.202913
-0.722812 2.196184 0.104312
-0.530722 2.170791 0.164750
-0.632327 2.212598 -0.133410
-0.610786 2.130687 0.720460
-0.831420 2.224774 -0.131882
-0.815200 2.186819 0.315088
-0.621450 2.198383 -0.006381
-0.694605 2.129019 0.679266
-0.612402 2.164256 0.482569
-0.808923 2.184067 0.238120
-0.710454 2.201548 0.002420
-0.514138 2.152248 0.442815
-0.811559 2.201511 0.049168
-0.802579 2.176394 0.533140
-0.789626 2.157237 0.643157
-0.800339 2.201719 0.007248
-0.598652 2.184074 0.199739
-0.497939 2.150395 0.437932
-0.498402 2.166012 0.187978
-0.487375 2.113718 0.746888
-0.585908 2.161673 0.405755
-0.677205 2.166594 0.506538
-0.491920 2.178544 -0.003932
-0.491702 2.194859 -0.129876
-0.673531 2.184340 0.219627
-0.670814 2.174005 0.363610
-0.677823 2.211183 -0.133308
-0.487884 2.190650 -0.032860
-0.578326 2.186372 0.150898
-0.579943 2.198820 -0.034072
-0.580752 2.204038 -0.124060
-0.674932 2.210069 -0.077290
-0.672680 2.208299 -0.161282
-0.484644 2.192891 -0.117829
-0.778843 2.223306 -0.147515
-0.775677 2.222460 -0.197497
-0.664169 2.189710 0.104714
-0.573617 2.198121 -0.132029
-0.476111 2.169269 0.160158
-0.560291 2.137108 0.718863
-0.770800 2.221333 -0.128465
-0.565851 2.196876 -0.006973
-0.754552 2.180367 0.314497
-0.642111 2.137465 0.678688
-0.556758 2.157742 0.476961
-0.461523 2.146692 0.439196
-0.652837 2.198066 0.002828
-0.749318 2.183607 0.237546
-0.751947 2.199054 0.050585
-0.742911 2.166934 0.527532
-0.731014 2.154753 0.640572
-0.741758 2.203252 0.008674
-0.541986 2.175572 0.196132
-0.444326 2.147849 0.432332
-0.438874 2.118108 0.744277
-0.445828 2.166459 0.185380
-0.531300 2.158137 0.404153
-0.620550 2.158092 0.500924
-0.439361 2.180995 -0.005524
-0.438095 2.192327 -0.132478
-0.617932 2.181829 0.218028
-0.614171 2.166499 0.361001
-0.423648 2.104193 0.758347
-0.432199 2.180131 -0.035473
-0.620222 2.210697 -0.131886
-0.522695 2.180851 0.150296
-0.525136 2.200525 -0.123657
-0.525376 2.201297 -0.034654
-0.616282 2.203589 -0.075883
-0.618152 2.214786 -0.159856
-0.428976 2.184369 -0.118435
-0.717166 2.212859 -0.143112
-0.507704 2.134542 0.715253
-0.608591 2.190196 0.105127
-0.519057 2.201598 -0.131608
-0.422496 2.165722 0.157556
-0.714012 2.214012 -0.192086
-0.708093 2.207892 -0.124066
-0.509198 2.190369 -0.008571
-0.589585 2.141902 0.677098
-0.501084 2.148218 0.470348
-0.694916 2.175891 0.313913
-0.409943 2.145114 0.436588
-0.596228 2.195562 0.003237
-0.692734 2.183107 0.236956
-0.684245 2.157450 0.522923
-0.693356 2.199571 0.053013
-0.674461 2.159232 0.640005
-0.683136 2.198769 0.011083
-0.487370 2.172036 0.193532
-0.389312 2.116499 0.740657
-0.393224 2.162893 0.183773
-0.390711 2.145288 0.427737
-0.478698 2.153574 0.401537
-0.564912 2.151566 0.496316
-0.386784 2.181435 -0.007119
-0.561302 2.177314 0.216434
-0.557527 2.159978 0.359401
-0.381415 2.184806 -0.134068
-0.469092 2.177299 0.149690
-0.370038 2.103618 0.751763
-0.563594 2.205185 -0.129486
-0.379646 2.184573 -0.038053
-0.468682 2.188776 -0.034270
-0.469496 2.195002 -0.124256
-0.559667 2.200075 -0.073474
-0.559474 2.204291 -0.156459
-0.375376 2.183822 -0.121025
-0.455082 2.127968 0.710633
-0.658553 2.210374 -0.139694
-0.369898 2.164157 0.153957
-0.463412 2.195071 -0.131210
-0.550928 2.181687 0.105526
-0.655404 2.212528 -0.188663
-0.650516 2.209393 -0.119638
-0.454548 2.181829 -0.009187
-0.536010 2.141337 0.675501
-0.447478 2.145656 0.466749
-0.358318 2.138530 0.431967
-0.638333 2.176373 0.314333
-0.539585 2.189046 0.003637
-0.635102 2.177603 0.236360
-0.629672 2.156910 0.521325
-0.633684 2.191088 0.055421
-0.339739 2.114882 0.737044
-0.433746 2.167481 0.191932
-0.625517 2.196270 0.012504
-0.612692 2.141761 0.633401
-0.340575 2.155322 0.181162
-0.338080 2.140711 0.423139
-0.426093 2.150000 0.399935
-0.511331 2.152007 0.493733
-0.334183 2.179867 -0.008707
-0.504997 2.165406 0.359831
-0.504620 2.166789 0.214836
-0.329859 2.188236 -0.136646
-0.414448 2.170746 0.149098
-0.320572 2.115985 0.750206
-0.326003 2.179015 -0.040644
-0.506952 2.199668 -0.128067
-0.415078 2.186221 -0.033856
-0.415917 2.196452 -0.124828
-0.504036 2.194545 -0.072062
-0.322782 2.183256 -0.122605
-0.502832 2.198773 -0.155038
-0.403483 2.124369 0.707034
-0.601969 2.210861 -0.136258
-0.408781 2.190529 -0.131792
-0.495294 2.176150 0.105943
-0.315238 2.158601 0.149380
-0.597775 2.207023 -0.184241
-0.592885 2.203886 -0.116214
-0.400939 2.179275 -0.010766
-0.306664 2.128932 0.428357
-0.481378 2.135772 0.671916
-0.394896 2.146073 0.463176
-0.580692 2.170853 0.313762
-0.579487 2.173069 0.235778
-0.575066 2.153361 0.517742
-0.482928 2.181519 0.004059
-0.576076 2.188567 0.057862
-0.291154 2.109241 0.732427
-0.374249 2.106378 0.785211
-0.379059 2.154922 0.188330
-0.568907 2.191741 0.014930
-0.288962 2.149725 0.178567
-0.558131 2.143190 0.632839
-0.372423 2.138421 0.396331
-0.284422 2.133124 0.417555
-0.456675 2.142443 0.489136
-0.280483 2.165292 -0.010316
-0.452067 2.168209 0.214262
-0.449338 2.155847 0.358242
-0.275192 2.179673 -0.138228
-0.360789 2.160172 0.147496
-0.272329 2.168442 -0.043240
-0.452370 2.199116 -0.126634
-0.361478 2.183651 -0.034431
-0.267994 2.117366 0.745646
-0.361281 2.189893 -0.124410
-0.449447 2.192990 -0.070632
-0.352935 2.124740 0.705449
-0.448232 2.195220 -0.152616
-0.269170 2.180683 -0.124175
-0.543299 2.200348 -0.132838
-0.355176 2.186961 -0.131371
-0.440670 2.169585 0.107357
-0.262604 2.152008 0.146791
-0.540155 2.202501 -0.179806
-0.257132 2.131297 0.426775
-0.347344 2.177701 -0.011337
-0.535262 2.199361 -0.112778
-0.427755 2.129179 0.669325
-0.341225 2.135490 0.457577
-0.521468 2.148786 0.515150
-0.521991 2.157325 0.313174
-0.429344 2.179951 0.004484
-0.522844 2.165528 0.235197
-0.521512 2.189008 0.060295
-0.241586 2.107594 0.728834
-0.320528 2.090785 0.775600
-0.326492 2.156328 0.186764
-0.238443 2.155102 0.178001
-0.512292 2.188202 0.016364
-0.503530 2.139610 0.631261
-0.320854 2.137805 0.395752
-0.231772 2.125515 0.412966
-0.405110 2.141838 0.486552
-0.227886 2.163695 -0.011888
-0.398435 2.160630 0.212668
-0.395722 2.150256 0.357656
-0.223634 2.182078 -0.140797
-0.309222 2.159563 0.147916
-0.396680 2.184559 -0.124239
-0.219706 2.163849 -0.045821
-0.302287 2.113111 0.700827
-0.307869 2.180067 -0.034006
-0.215304 2.105748 0.737047
-0.393804 2.185429 -0.068211
-0.305625 2.183332 -0.124979
-0.216512 2.171091 -0.125773
-0.392594 2.188662 -0.150191
-0.302598 2.186372 -0.130944
-0.487703 2.197797 -0.129406
-0.387089 2.169002 0.107788
-0.210989 2.147398 0.143203
-0.484567 2.200948 -0.175370
-0.207583 2.131652 0.425188
-0.293699 2.170118 -0.012924
-0.375156 2.125566 0.666742
-0.480701 2.200799 -0.109338
-0.289627 2.131869 0.454990
-0.467873 2.145196 0.513567
-0.470302 2.167938 0.235628
-0.468441 2.159736 0.314613
-0.374717 2.174379 0.004906
-0.194033 2.104919 0.726223
-0.464859 2.180457 0.061715
-0.272116 2.107108 0.777059
-0.273867 2.150726 0.184178
-0.186799 2.146483 0.175403
-0.456671 2.182639 0.018788
-0.270301 2.138170 0.395171
-0.447911 2.136025 0.629696
-0.352525 2.140225 0.484976
-0.180201 2.126884 0.409401
-0.176279 2.160083 -0.014471
-0.345872 2.162026 0.212102
-0.343125 2.146646 0.357073
-0.170986 2.174479 -0.143385
-0.256616 2.155953 0.147338
-0.252734 2.112453 0.699237
-0.343111 2.185975 -0.122798
-0.167071 2.158245 -0.048401
-0.254208 2.170475 -0.034598
-0.163691 2.102100 0.732469
-0.340207 2.182842 -0.066784
-0.253049 2.183735 -0.125546
-0.163948 2.174489 -0.128326
-0.339004 2.187078 -0.148761
-0.328836 2.099518 0.802034
-0.333434 2.158408 0.108189
-0.432088 2.193233 -0.125977
-0.247928 2.176788 -0.130527
-0.159396 2.145774 0.140628
-0.157975 2.125000 0.422582
-0.428928 2.192384 -0.170956
-0.323543 2.118935 0.664144
-0.241106 2.168513 -0.013496
-0.425073 2.194232 -0.105916
-0.238045 2.131240 0.451417
-0.415279 2.141591 0.510980
-0.415662 2.159353 0.236037
-0.322148 2.174778 0.005337
-0.413846 2.158146 0.315049
-0.410263 2.177873 0.064146
-0.221527 2.104455 0.772473
-0.136196 2.141843 0.173811
-0.222289 2.150101 0.182604
-0.219722 2.135525 0.394582
-0.402045 2.176059 0.020205
-0.393248 2.125425 0.627103
-0.300883 2.130605 0.480368
-0.128597 2.124243 0.405826
-0.124664 2.155457 -0.016055
-0.292180 2.147425 0.210493
-0.290481 2.137026 0.356474
-0.205025 2.153324 0.146757
-0.203188 2.112781 0.698653
-0.118376 2.171866 -0.144955
-0.116527 2.161613 -0.050969
-0.290518 2.183374 -0.122376
-0.202635 2.169852 -0.034173
-0.200382 2.172125 -0.125149
-0.286593 2.178242 -0.065360
-0.112285 2.163867 -0.129928
-0.278171 2.086878 0.794412
-0.285410 2.185483 -0.147328
-0.280828 2.153791 0.109606
-0.377464 2.186650 -0.122559
-0.195288 2.169179 -0.131116
-0.108382 2.120333 0.420985
-0.106830 2.149145 0.138079
-0.374343 2.191801 -0.167516
-0.271933 2.113289 0.662553
-0.189557 2.171891 -0.015057
-0.187429 2.124592 0.448818
-0.363694 2.137963 0.509389
-0.369444 2.188654 -0.102486
-0.363097 2.159740 0.236468
-0.268471 2.162175 0.005735
-0.360253 2.155534 0.316477
-0.355634 2.171278 0.066567
-0.170930 2.100788 0.768887
-0.085647 2.144191 0.172242
-0.170685 2.146466 0.181023
-0.170159 2.133862 0.393991
-0.348446 2.172456 0.022629
-0.250335 2.131952 0.479793
-0.339647 2.122797 0.626535
-0.076983 2.120590 0.402250
-0.073070 2.153820 -0.017627
-0.241638 2.149784 0.209920
-0.238931 2.139381 0.356911
-0.153563 2.104109 0.695043
-0.153424 2.149685 0.146177
-0.066789 2.171237 -0.147526
-0.151026 2.165221 -0.034758
-0.063864 2.152986 -0.053553
-0.235895 2.179774 -0.120938
-0.230807 2.107164 0.799879
-0.147776 2.169505 -0.125719
-0.232940 2.168628 -0.062950
-0.059653 2.159242 -0.132501
-0.231764 2.176872 -0.144914
-0.229273 2.155154 0.111039
-0.058792 2.116659 0.418393
-0.143708 2.168551 -0.131689
-0.324935 2.192039 -0.120111
-0.056238 2.146492 0.135496
-0.320731 2.186198 -0.164098
-0.137909 2.162257 -0.015657
-0.220351 2.111628 0.661979
-0.136840 2.121931 0.446235
-0.312113 2.135321 0.508805
-0.315832 2.183047 -0.099068
-0.309412 2.145128 0.235856
-0.215894 2.162551 0.006173
-0.305571 2.142923 0.315882
-0.300959 2.158670 0.068971
-0.036018 2.135523 0.170635
-0.120121 2.146813 0.179448
-0.118499 2.123205 0.392392
-0.295843 2.167837 0.024045
-0.199714 2.124296 0.477191
-0.287063 2.121148 0.626965
-0.022487 2.152165 -0.019207
-0.189014 2.144147 0.209340
-0.187328 2.134726 0.357327
-0.102865 2.150023 0.146602
-0.015096 2.157594 -0.149132
-0.099409 2.159575 -0.034344
-0.013269 2.150334 -0.056135
-0.181198 2.100487 0.795275
-0.183262 2.172147 -0.119526
-0.096195 2.168866 -0.126290
-0.181382 2.169990 -0.061517
-0.009117 2.163593 -0.135064
-0.179203 2.179245 -0.143470
-0.092090 2.162909 -0.131274
-0.176650 2.149517 0.111459
-0.271298 2.183424 -0.116700
-0.003603 2.141845 0.131926
-0.267134 2.183583 -0.160666
-0.170784 2.108940 0.662387
-0.086302 2.158614 -0.017236
-0.086241 2.118260 0.443651
-0.261546 2.133661 0.508220
-0.262249 2.182427 -0.095628
-0.258873 2.147477 0.236284
-0.164326 2.162908 0.006604
-0.252982 2.140276 0.318310
-0.248403 2.161034 0.071415
0.014573 2.132850 0.169056
-0.068924 2.120520 0.391803
-0.068490 2.140156 0.177862
-0.238856 2.091890 0.820271
-0.242221 2.162210 0.026470
-0.149129 2.121625 0.475608
-0.235471 2.117479 0.627384
0.028082 2.152502 -0.021779
-0.137412 2.140491 0.208761
-0.136725 2.129053 0.357734
-0.052223 2.140354 0.145999
0.035482 2.156936 -0.151707
-0.048830 2.157915 -0.034923
0.038304 2.151677 -0.058696
-0.130631 2.165508 -0.118108
-0.045601 2.165210 -0.126876
-0.128790 2.168347 -0.060082
0.042528 2.155937 -0.136650
-0.127570 2.170600 -0.142067
-0.040523 2.164259 -0.131836
-0.125060 2.146857 0.112884
-0.216667 2.177802 -0.113267
0.046989 2.139167 0.130347
-0.213506 2.176956 -0.157245
-0.210890 2.121001 0.504600
-0.034704 2.155956 -0.017810
-0.209585 2.168786 -0.091239
-0.208283 2.142816 0.236691
-0.113715 2.156248 0.007007
-0.201380 2.135617 0.318726
-0.196807 2.156380 0.073830
-0.018887 2.134474 0.176264
-0.099601 2.124934 0.475037
-0.190643 2.160559 0.027894
-0.182873 2.114806 0.627818
0.079718 2.145831 -0.023361
-0.086834 2.138817 0.208183
-0.002625 2.134665 0.146402
-0.086127 2.124369 0.358147
0.087114 2.151274 -0.154286
0.002766 2.155247 -0.034496
0.089866 2.154010 -0.061254
-0.079009 2.158850 -0.116696
0.005993 2.163553 -0.128446
-0.077130 2.156687 -0.058685
0.094082 2.159273 -0.139205
-0.074908 2.159947 -0.139658
-0.074480 2.144180 0.114302
0.011101 2.158597 -0.132418
-0.163006 2.167162 -0.109855
-0.161354 2.122305 0.506022
-0.160887 2.170306 -0.152828
0.015887 2.153284 -0.019390
-0.156703 2.141148 0.238118
-0.157011 2.169138 -0.088798
-0.061101 2.152590 0.007439
-0.149817 2.135938 0.321161
-0.144203 2.152721 0.076259
0.031713 2.130789 0.174683
-0.139057 2.157894 0.030318
-0.131213 2.103118 0.627216
-0.038246 2.133121 0.207577
-0.036546 2.120667 0.358556
0.047972 2.130974 0.145821
0.138670 2.154604 -0.157841
0.054382 2.150571 -0.035072
-0.027499 2.167184 -0.116235
-0.027568 2.155001 -0.057272
0.057617 2.157881 -0.129026
0.145739 2.150597 -0.141791
-0.024394 2.166274 -0.139212
-0.023906 2.142491 0.115725
0.062692 2.156924 -0.132986
-0.111767 2.117606 0.505427
-0.111419 2.164498 -0.107431
-0.109292 2.166644 -0.150407
0.067494 2.149605 -0.019964
-0.105089 2.135470 0.238536
-0.104401 2.164475 -0.085371
-0.011544 2.151901 0.007856
-0.098216 2.131249 0.323582
-0.092626 2.151039 0.079688
-0.088471 2.154214 0.031732
0.012299 2.135422 0.208013
0.104967 2.147875 -0.034651
0.023146 2.156497 -0.114839
0.024010 2.154318 -0.055837
0.109207 2.156198 -0.129594
0.027231 2.159594 -0.137796
0.026703 2.136794 0.116138
0.114283 2.155241 -0.133554
-0.059830 2.161822 -0.105004
-0.056726 2.167973 -0.146959
-0.055517 2.132770 0.238948
-0.053781 2.155788 -0.081972
0.040068 2.147213 0.008280
-0.047636 2.128545 0.325003
-0.042019 2.144344 0.082095
-0.037883 2.150523 0.033149
0.074770 2.150810 -0.114414
0.075655 2.145624 -0.054419
0.078835 2.155905 -0.136363
-0.009258 2.160131 -0.102575
-0.006147 2.165284 -0.144532
-0.006919 2.125051 0.240345
-0.002254 2.161101 -0.079509
0.090679 2.141514 0.007704
0.008565 2.140639 0.084527
0.012686 2.148824 0.034588
0.125333 2.149107 -0.113971
0.130408 2.154208 -0.135912
0.042341 2.154434 -0.100136
0.045449 2.159586 -0.141094
0.048379 2.149391 -0.076097
0.059170 2.132920 0.086953
0.064273 2.145117 0.036034
0.093914 2.151722 -0.096687
0.097016 2.157880 -0.138642
0.099923 2.150681 -0.073636
0.147651 2.146153 -0.135228
