# .PCD v0.7 - Point Cloud Data file format
VERSION 0.7
FIELDS x y z
SIZE 4 4 4
TYPE F F F
COUNT 1 1 1
WIDTH 19
HEIGHT 1
VIEWPOINT 0 0 0 1
POINTS 19
DATA ascii
2.943043 -0.937983 3.611199
2.909388 -0.996855 3.596188
2.761523 -0.981867 3.583390
2.875764 -1.054751 3.582184
2.840183 -1.110640 3.567190
2.806610 -1.167580 3.556198
2.776047 -1.225592 3.550199
2.754464 -1.286792 3.557189
2.726927 -1.345901 3.558193
2.696431 -1.402983 3.557206
2.672915 -1.463199 3.565209
2.670840 -1.607549 3.499148
2.651340 -1.672846 3.512143
2.649322 -1.676760 3.502124
2.619890 -1.736965 3.513142
2.622905 -1.734995 3.514158
2.599452 -1.800253 3.525162
2.588471 -1.798153 3.525164
2.586921 -1.874700 3.553138
