# .PCD v0.7 - Point Cloud Data file format
VERSION 0.7
FIELDS x y z
SIZE 4 4 4
TYPE F F F
COUNT 1 1 1
WIDTH 1272
HEIGHT 1
VIEWPOINT 0 0 0 1
POINTS 1272
DATA ascii
-0.251390 2.131694 0.626349
-0.260406 2.105969 0.566119
-0.246276 1.951360 0.546032
-0.191092 1.929910 0.483253
-0.190180 1.910336 0.562115
-0.197826 1.908404 0.534080
-0.198067 1.926529 0.517217
-0.227952 2.116715 0.554484
-0.221231 1.919695 0.569036
-0.219223 1.905103 0.787952
-0.209041 1.921126 0.543127
-0.145794 1.918207 0.563523
-0.143355 1.922887 0.478573
-0.143032 1.914561 0.792530
-0.182427 1.981082 0.487804
-0.132068 1.917436 0.299609
-0.153527 1.920257 0.537518
-0.151433 1.923462 0.515558
-0.168088 1.909229 0.503354
-0.175595 1.915604 0.568362
-0.172696 1.907013 0.790332
-0.163501 1.922032 0.542490
-0.143698 1.911407 0.273513
-0.104317 1.923659 0.207867
-0.102313 1.921068 0.562883
-0.145812 1.922153 0.303629
-0.097868 1.926792 0.476955
-0.115367 1.920160 0.246798
-0.096566 1.920484 0.791936
-0.129407 1.915684 0.274692
-0.087866 1.934291 0.301079
-0.109130 1.927114 0.539915
-0.132471 1.913153 0.473674
-0.106861 1.922350 0.513895
-0.131108 1.918478 0.568731
-0.127886 1.913189 0.210695
-0.122785 1.921089 0.507797
-0.118990 1.923912 0.541850
-0.099276 1.917272 0.273902
-0.126150 1.907916 0.792702
-0.116388 1.932162 0.244916
-0.057113 1.942582 0.207373
-0.058021 1.932910 0.566313
-0.101479 1.932002 0.306047
-0.050319 1.928731 0.475336
-0.069196 1.940057 0.247304
-0.085184 1.931537 0.276153
-0.049736 1.909450 0.785214
-0.044921 1.924708 0.086326
-0.063692 1.919489 0.067182
-0.064627 1.928980 0.540272
-0.042210 1.929188 0.299392
-0.087683 1.923311 0.571103
-0.086062 1.920028 0.478086
-0.061359 1.925242 0.513268
-0.063045 1.917905 0.825218
-0.078268 1.921949 0.509148
-0.082491 1.920046 0.214098
-0.074641 1.921296 0.065146
-0.029981 2.169681 0.000261
-0.073494 1.926798 0.542223
-0.052463 1.922912 0.039293
-0.053103 1.936145 0.277400
-0.080710 1.912769 0.798090
-0.069760 1.928055 0.246244
-0.070835 1.912752 0.826154
-0.060153 1.975945 0.016677
-0.031580 1.975145 -0.072165
-0.013383 1.928795 0.563624
-0.056950 1.931854 0.307388
-0.010509 1.940491 0.205713
-0.003030 2.070101 -0.125287
0.004265 2.198906 -0.076275
-0.051451 1.921535 0.093342
-0.041166 1.924107 0.042423
-0.022512 1.933968 0.245616
-0.002837 1.933655 0.474736
-0.039639 1.931413 0.276502
0.005841 2.036411 -0.145472
0.001440 1.934602 0.085754
-0.002397 1.921356 0.787665
-0.018347 1.929358 0.067603
-0.019138 1.931852 0.541642
0.003322 1.930069 0.298746
-0.043248 1.928157 0.573480
-0.017560 1.921790 0.825595
-0.039636 1.925897 0.482486
-0.014906 1.931147 0.512667
-0.031816 1.926825 0.512540
-0.029236 1.928166 0.065546
-0.035192 1.932934 0.217558
0.011945 1.940436 -0.000128
-0.029035 1.930651 0.543592
-0.013524 1.913646 0.855567
-0.008466 1.931008 0.276702
-0.005445 1.950820 0.038859
-0.024304 1.931913 0.248621
-0.034080 1.909668 0.799425
-0.026332 1.914603 0.828509
-0.010794 2.114620 -0.078941
-0.012007 2.024657 -0.089617
-0.012873 1.976912 -0.127979
-0.013753 1.930807 0.018694
0.013565 1.948122 -0.089024
0.031204 1.926659 0.562947
0.014692 1.937009 -0.071096
-0.010417 1.932738 0.308750
0.036140 1.936401 0.203037
0.038278 1.922800 -0.118064
0.033639 2.230001 -0.148799
0.033769 1.910420 0.873864
-0.005178 1.935412 0.094798
0.041636 1.942491 -0.066891
0.006037 1.942000 0.043915
0.023963 1.937855 0.245997
0.000765 1.933597 -0.051179
0.005932 1.930292 0.275840
0.008819 2.114387 -0.132788
0.044797 1.931587 0.472073
0.049179 1.941176 -0.140857
0.047925 1.938499 0.084126
0.016246 2.246430 -0.115765
0.028942 1.943257 0.068057
0.025572 1.923715 0.540913
0.045184 1.922287 0.786024
0.001358 1.925015 0.573788
0.048837 1.931943 0.298097
0.005949 1.923756 0.484809
0.030716 1.928027 0.511982
0.029000 1.922688 0.825947
0.013671 1.929683 0.514899
0.016999 1.944039 0.067006
0.012970 1.917186 0.852820
0.030963 1.916489 0.857918
0.010404 1.929788 0.219873
0.016653 1.924541 0.541885
0.060476 1.943375 -0.002748
0.038116 1.929894 0.277039
0.040240 1.943691 0.038144
0.022317 1.928800 0.248944
0.019267 1.912467 0.830832
0.012571 1.905553 0.801742
0.030169 1.932291 -0.069988
0.031220 1.934414 -0.083966
0.032358 1.939730 -0.123920
0.033547 1.943688 0.021139
0.075753 1.926508 0.563274
0.061058 1.952031 -0.090646
0.034145 1.931585 0.309070
0.062048 1.947917 -0.072667
0.077319 1.910254 0.874184
0.083684 1.938314 0.201400
0.066410 1.948409 -0.128634
0.087412 1.946761 -0.122527
0.040385 1.934265 0.096126
0.089136 1.946405 -0.069514
0.052668 1.937871 0.045229
0.046747 1.930953 -0.117862
0.040404 1.908500 0.881979
0.070518 1.938750 0.244346
0.052413 1.934165 0.277212
0.048149 1.942483 -0.049763
0.096558 1.951094 -0.144428
0.045000 1.919854 0.573081
0.092387 1.931505 0.470430
0.050431 1.942863 -0.095746
0.095462 1.940408 0.082498
0.071085 1.925575 0.542270
0.075576 1.939135 0.068378
0.095278 1.937821 0.298489
0.092780 1.922203 0.785382
0.074573 1.922567 0.825289
0.059349 1.923551 0.515199
0.057548 1.916040 0.853149
0.053389 1.929630 0.489211
0.078263 1.929938 0.511354
0.075515 1.916335 0.859253
0.063718 1.935925 0.066298
0.062147 1.927400 0.543250
0.057821 1.936664 0.223281
0.083580 1.933746 0.278410
0.107988 1.946280 -0.004371
0.086883 1.939581 0.036464
0.068768 1.933664 0.251330
0.065727 1.917328 0.835219
0.059021 1.910399 0.808130
0.076526 1.942169 -0.070567
0.078542 1.946302 -0.083523
0.079818 1.944619 -0.123528
0.121311 1.926369 0.563614
0.079211 1.936522 0.024430
0.107670 1.948907 -0.091320
0.080536 1.939447 0.311476
0.108601 1.947793 -0.073320
0.120931 1.907092 0.873488
0.132254 1.939239 0.199770
0.113937 1.950310 -0.130265
0.086829 1.939123 0.098510
0.134944 1.948668 -0.125159
0.135775 1.942287 -0.071196
0.083894 1.910309 0.885320
0.099195 1.938735 0.046583
0.098807 1.942032 0.278617
0.094042 1.943831 -0.116413
0.094612 1.946344 -0.048387
0.118027 1.941642 0.244722
0.090529 1.920702 0.575429
0.116611 1.926420 0.544617
0.144149 1.949999 -0.147082
0.142018 1.940284 0.081844
0.097878 1.947734 -0.093355
0.139045 1.927397 0.468749
0.142746 1.942712 0.298878
0.123084 1.942030 0.067753
0.141345 1.924131 0.784759
0.103071 1.917899 0.854504
0.121224 1.919467 0.823616
0.106720 1.932411 0.520618
0.124748 1.933815 0.511729
0.121118 1.914194 0.860579
0.110130 1.942794 0.066695
0.099980 1.927488 0.492544
0.107658 1.929253 0.544604
0.104468 1.931524 0.225593
0.131023 1.939629 0.279806
0.155522 1.948186 -0.007004
0.115295 1.934522 0.253684
0.110378 1.912169 0.836516
0.135381 1.943493 0.035853
0.106412 1.918249 0.815542
0.124085 1.942053 -0.070214
0.125128 1.944168 -0.083191
0.127334 1.946501 -0.123160
0.166866 1.926225 0.563951
0.125710 1.938373 0.026790
0.126032 1.941285 0.313828
0.166332 1.913922 0.877875
0.154347 1.942786 -0.093018
0.156197 1.945675 -0.072983
0.132364 1.938964 0.099847
0.160546 1.947178 -0.130943
0.182534 1.947568 -0.127816
0.180799 1.941157 0.198142
0.129253 1.919133 0.890722
0.184235 1.948205 -0.073796
0.145719 1.939592 0.047935
0.134977 1.924517 0.578788
0.145384 1.940902 0.278954
0.164526 1.944516 0.244087
0.141592 1.943704 -0.115061
0.141249 1.941194 -0.046078
0.163125 1.928278 0.546975
0.143482 1.943564 -0.091047
0.190823 1.943873 -0.148782
0.188335 1.940567 0.298198
0.190539 1.943198 0.080222
0.169613 1.942893 0.068104
0.188451 1.936314 0.470178
0.148533 1.921730 0.858869
0.165614 1.916012 0.863922
0.188981 1.922041 0.783096
0.167773 1.920337 0.824967
0.152370 1.927258 0.521920
0.156720 1.940657 0.067025
0.153326 1.924123 0.542906
0.172365 1.931706 0.512066
0.146637 1.922347 0.494854
0.150866 1.938367 0.228987
0.177593 1.938488 0.281142
0.202118 1.946060 -0.008677
0.162729 1.940392 0.256077
0.182883 1.946379 0.035224
0.156980 1.910025 0.839847
0.153141 1.910114 0.817831
0.171600 1.943930 -0.069849
0.171769 1.939020 -0.081884
0.173876 1.946359 -0.122818
0.212391 1.927066 0.565292
0.211842 1.915761 0.880224
0.174189 1.942255 0.029176
0.172603 1.940144 0.315164
0.203770 1.950710 -0.094598
0.202786 1.943538 -0.073656
0.171879 1.913927 0.892000
0.179858 1.941835 0.101218
0.207173 1.943040 -0.131630
0.229232 1.948059 0.197546
0.231054 1.950486 -0.131440
0.231823 1.947099 -0.076456
0.179515 1.924341 0.580115
0.192882 1.943775 0.280323
0.194223 1.942480 0.049312
0.188123 1.943544 -0.112720
0.188738 1.944061 -0.044708
0.208712 1.926119 0.548295
0.213084 1.945421 0.243449
0.190922 1.948422 -0.088664
0.238017 1.947078 0.079597
0.236847 1.943463 0.298574
0.240292 1.949807 -0.152379
0.218119 1.945786 0.068479
0.193192 1.916574 0.858161
0.237063 1.935230 0.468525
0.212104 1.918854 0.868284
0.214340 1.920201 0.826308
0.198916 1.927102 0.525261
0.199791 1.927966 0.546275
0.219848 1.935581 0.513442
0.237616 1.919947 0.783437
0.194102 1.926194 0.500231
0.206177 1.946569 0.067430
0.224119 1.939339 0.282488
0.199399 1.939234 0.233349
0.210173 1.945247 0.259459
0.252554 1.954006 -0.011253
0.204317 1.919854 0.848265
0.230505 1.943259 0.034550
0.199621 1.912940 0.824193
0.220061 1.948819 -0.069460
0.220189 1.945907 -0.081480
0.221427 1.946228 -0.122471
0.260811 1.933941 0.568693
0.256378 1.915576 0.882547
0.218113 1.940969 0.317502
0.221707 1.943104 0.032529
0.251323 1.950584 -0.095254
0.216366 1.915730 0.896339
0.252203 1.951455 -0.075240
0.228339 1.945718 0.102599
0.255619 1.948938 -0.133236
0.279585 1.952390 -0.134076
0.278799 1.948980 0.195911
0.226964 1.929192 0.584496
0.280335 1.950004 -0.079084
0.240381 1.946649 0.280689
0.242679 1.947359 0.050700
0.235662 1.943396 -0.110375
0.256183 1.929974 0.551668
0.237171 1.949939 -0.043314
0.261570 1.949311 0.243828
0.283393 1.943316 0.298909
0.238543 1.944275 -0.086346
0.286528 1.949977 0.077968
0.238646 1.920391 0.862520
0.288764 1.954716 -0.155994
0.256723 1.914668 0.870580
0.266579 1.950671 0.068865
0.285687 1.933130 0.467862
0.245459 1.926940 0.528599
0.246325 1.928818 0.547620
0.261914 1.920077 0.827653
0.266493 1.931447 0.512751
0.253710 1.947437 0.067781
0.286156 1.921838 0.784802
0.241630 1.927042 0.504584
0.246901 1.941084 0.236708
0.272601 1.943221 0.283867
0.249942 1.915679 0.851568
0.257747 1.944111 0.260796
0.278906 1.951149 0.033956
0.301169 1.951910 -0.013918
0.247150 1.913779 0.830546
0.267572 1.950689 -0.070103
0.268952 1.947090 -0.122121
0.268722 1.946782 -0.080123
0.301922 1.915403 0.884875
0.306464 1.928785 0.567986
0.265647 1.941832 0.318852
0.269206 1.944954 0.034886
0.260939 1.913534 0.899648
0.299889 1.950477 -0.096905
0.300743 1.952341 -0.075885
0.275839 1.947568 0.104955
0.271556 1.926004 0.585796
0.305111 1.952847 -0.134853
0.328314 1.951887 0.195286
0.330137 1.954330 -0.137700
0.330820 1.954937 -0.081688
0.287911 1.947509 0.282038
0.302727 1.929812 0.554002
0.284110 1.948266 -0.108991
0.291172 1.950233 0.052069
0.283758 1.946768 -0.041001
0.310140 1.949201 0.243176
0.286016 1.947120 -0.083984
0.332816 1.950208 0.300311
0.285223 1.919237 0.864848
0.303268 1.914498 0.874914
0.335132 1.947863 0.077300
0.315095 1.952551 0.069226
0.339329 1.955647 -0.158627
0.292827 1.930656 0.549968
0.309410 1.922930 0.831015
0.294000 1.927807 0.531955
0.336191 1.937044 0.469251
0.300227 1.948280 0.068121
0.314099 1.929316 0.513078
0.290118 1.929894 0.509953
0.320149 1.943078 0.285206
0.294482 1.938927 0.240035
0.337657 1.926770 0.787205
0.297472 1.916519 0.856917
0.305286 1.943953 0.264136
0.327467 1.951033 0.033302
0.350748 1.951824 -0.016565
0.295660 1.915622 0.837909
0.317075 1.953582 -0.069729
0.316223 1.948638 -0.079770
0.317490 1.947971 -0.122768
0.347531 1.912232 0.886179
0.353993 1.929636 0.570331
0.312202 1.940663 0.321177
0.305487 1.912333 0.902960
0.317717 1.946823 0.036246
0.348408 1.952363 -0.098547
0.349341 1.950220 -0.076554
0.324287 1.952437 0.106335
0.318047 1.927824 0.590142
0.355607 1.956767 -0.136467
0.379666 1.956238 -0.140336
0.336405 1.950380 0.283403
0.351171 1.934666 0.558381
0.377954 1.948795 0.193616
0.381341 1.957864 -0.084311
0.331666 1.947112 -0.107660
0.332265 1.948633 -0.039642
0.339722 1.950099 0.053414
0.357773 1.945060 0.243485
0.331748 1.920068 0.868187
0.381395 1.949085 0.300647
0.349834 1.913328 0.878239
0.334621 1.943977 -0.081659
0.386536 1.956802 0.075726
0.363648 1.952423 0.069570
0.339415 1.928496 0.551285
0.389873 1.957579 -0.162256
0.357044 1.919800 0.831333
0.341541 1.927642 0.536293
0.349682 1.953163 0.069506
0.361652 1.929171 0.514415
0.386757 1.937959 0.469616
0.337695 1.927722 0.515278
0.370551 1.950974 0.287619
0.344792 1.950809 0.244476
0.344006 1.916334 0.862248
0.385377 1.919644 0.786494
0.354784 1.946833 0.266508
0.376976 1.953935 0.031672
0.401269 1.954749 -0.019189
0.343243 1.913448 0.844234
0.366555 1.957475 -0.070351
0.365720 1.951524 -0.079399
0.395950 1.918072 0.892563
0.367932 1.953873 -0.122369
0.399634 1.924460 0.570618
0.349951 1.914102 0.909289
0.360621 1.946516 0.324562
0.366253 1.946670 0.039589
0.370828 1.951256 0.108656
0.398921 1.955277 -0.100171
0.363596 1.926635 0.592457
0.399791 1.956134 -0.078158
0.406117 1.959680 -0.138092
0.384015 1.947235 0.283717
0.397833 1.928492 0.560667
0.432125 1.963206 -0.144921
0.430886 1.958766 -0.086958
0.389150 1.955977 0.054803
0.381692 1.954509 -0.038252
0.382060 1.955005 -0.106249
0.428531 1.948705 0.192970
0.377390 1.914883 0.870474
0.397327 1.915148 0.884587
0.408242 1.949965 0.243874
0.384930 1.955869 -0.080222
0.430937 1.949971 0.301000
0.436139 1.954691 0.075058
0.415078 1.959341 0.069978
0.386983 1.927340 0.553613
0.439463 1.956485 -0.165918
0.404613 1.918640 0.834660
0.389124 1.925479 0.539615
0.399178 1.956047 0.069874
0.413111 1.935084 0.516818
0.437337 1.937866 0.469969
0.387204 1.929579 0.520640
0.418216 1.944818 0.288910
0.392426 1.945640 0.247775
0.392553 1.916172 0.868590
0.435938 1.920543 0.788855
0.403371 1.944687 0.268834
0.427504 1.955841 0.031039
0.453754 1.959695 -0.020790
0.393684 1.918292 0.854624
0.415097 1.957336 -0.070013
0.442527 1.915892 0.895874
0.416199 1.955420 -0.079019
0.396438 1.915910 0.914629
0.447287 1.919306 0.571916
0.418500 1.953776 -0.123016
0.408134 1.947353 0.326900
0.416683 1.952553 0.041983
0.407272 1.918412 0.593708
0.419392 1.950112 0.109988
0.449323 1.957017 -0.078807
0.450437 1.958202 -0.101792
0.456641 1.961586 -0.139728
0.431615 1.944075 0.285027
0.445437 1.925329 0.562978
0.424889 1.916712 0.874820
0.432509 1.959890 -0.104864
0.431217 1.955378 -0.036901
0.481790 1.958100 -0.147613
0.481500 1.956678 -0.089622
0.439682 1.956858 0.057161
0.443920 1.911959 0.888891
0.456811 1.948828 0.244203
0.478580 1.944816 0.301295
0.482026 1.953662 0.192374
0.434470 1.955730 -0.077878
0.433647 1.921167 0.554897
0.462763 1.952190 0.069259
0.486708 1.954599 0.073407
0.437637 1.926311 0.544959
0.488139 1.950359 -0.168623
0.454184 1.918518 0.837005
0.448731 1.955924 0.070217
0.460765 1.929934 0.517114
0.466780 1.943672 0.290239
0.435739 1.929411 0.525978
0.441018 1.942474 0.252092
0.440077 1.915978 0.875921
0.487030 1.931749 0.470271
0.453813 1.949556 0.273218
0.486634 1.915450 0.789172
0.479036 1.957758 0.030408
0.503399 1.955588 -0.023476
0.441278 1.915105 0.860934
0.490083 1.914716 0.900196
0.440117 1.907681 0.916878
0.465675 1.956226 -0.069670
0.467681 1.959327 -0.078635
0.499572 1.932197 0.578365
0.455683 1.946182 0.329222
0.468927 1.959664 -0.122627
0.456641 1.926252 0.600105
0.466260 1.950405 0.045311
0.468891 1.951972 0.112343
0.500934 1.961103 -0.103425
0.501756 1.963953 -0.080399
0.481144 1.944944 0.286375
0.493030 1.922153 0.566285
0.506254 1.958467 -0.141409
0.470543 1.910515 0.877094
0.481747 1.956259 -0.035546
0.491542 1.907781 0.893192
0.487375 1.948687 0.058433
0.530189 1.949540 -0.091338
0.534291 1.962046 -0.151227
0.483094 1.957762 -0.102530
0.484955 1.958609 -0.076510
0.529163 1.943707 0.301634
0.508405 1.947737 0.244550
0.532652 1.950558 0.191699
0.484031 1.929036 0.559299
0.514264 1.955095 0.069633
0.536347 1.950481 0.071718
0.485296 1.920135 0.548247
0.501834 1.913353 0.839298
0.543545 1.960364 -0.173177
0.499309 1.954812 0.070557
0.510359 1.927797 0.519440
0.517289 1.945549 0.292598
0.484353 1.925237 0.531286
0.493406 1.950364 0.257506
0.487714 1.910793 0.881215
0.540537 1.935688 0.471664
0.503398 1.947415 0.275544
0.530587 1.958674 0.028766
0.538180 1.916338 0.793531
0.487550 1.911479 0.924232
0.537682 1.911541 0.903500
0.556906 1.959544 -0.026085
0.488953 1.907911 0.867215
0.516231 1.956116 -0.070325
0.503292 1.942006 0.331520
0.550102 1.933069 0.581716
0.517284 1.956192 -0.078318
0.518594 1.953528 -0.122329
0.505174 1.926083 0.604437
0.515745 1.952250 0.048662
0.518431 1.951832 0.113681
0.551575 1.956996 -0.105109
0.550502 1.953805 -0.081137
0.518117 1.908332 0.881406
0.531694 1.944817 0.288719
0.546382 1.932054 0.572717
0.554939 1.951323 -0.143127
0.539109 1.905590 0.898503
0.531323 1.954115 -0.034223
0.539791 1.955597 0.059837
0.531745 1.951599 -0.101240
0.532606 1.951414 -0.073234
0.586551 1.961551 -0.094875
0.558916 1.949621 0.244906
0.585969 1.956967 -0.154913
0.577877 1.935563 0.300908
0.534558 1.929899 0.563650
0.583387 1.942454 0.189987
0.564899 1.950975 0.069948
0.586963 1.947367 0.071039
0.537628 1.930003 0.556671
0.551424 1.911202 0.843622
0.548957 1.949676 0.070860
0.595178 1.957283 -0.176850
0.564727 1.937727 0.523877
0.567877 1.943418 0.294927
0.542013 1.946192 0.260809
0.537712 1.934115 0.540710
0.538183 1.913624 0.890579
0.552004 1.943242 0.278846
0.534965 1.915258 0.933582
0.594094 1.936612 0.474032
0.578279 1.950506 0.028033
0.591718 1.918253 0.797907
0.539510 1.906742 0.876553
0.609518 1.957467 -0.027746
0.550918 1.936823 0.333809
0.563917 1.947940 -0.070058
0.599663 1.931923 0.584043
0.565915 1.951032 -0.078024
0.570108 1.955427 -0.122968
0.553700 1.925908 0.608766
0.567292 1.952131 0.051010
0.567106 1.944668 0.114961
0.601132 1.949684 -0.081824
0.602253 1.950882 -0.106810
0.567603 1.910157 0.888755
0.580335 1.939662 0.289013
0.595977 1.928892 0.577030
0.610366 1.959303 -0.145701
0.579943 1.948939 -0.031930
0.588483 1.947430 0.061110
0.582296 1.950457 -0.098907
0.583207 1.948280 -0.071915
0.633194 1.947506 0.304359
0.584990 1.934755 0.568023
0.638217 1.956459 -0.097565
0.640450 1.961934 -0.158516
0.608655 1.940488 0.244178
0.638804 1.950416 0.190411
0.614516 1.946831 0.070252
0.643351 1.957359 0.069483
0.590114 1.932879 0.563045
0.602024 1.909069 0.846949
0.598577 1.945532 0.071165
0.612449 1.928556 0.524136
0.617496 1.939270 0.296231
0.649744 1.958248 -0.180480
0.586379 1.926928 0.545990
0.592629 1.942041 0.265121
0.588759 1.911457 0.898906
0.600676 1.936070 0.281124
0.646752 1.932525 0.474356
0.630863 1.949419 0.027377
0.604304 1.944725 0.338220
0.590976 1.909577 0.886919
0.649282 1.927770 0.586346
0.662149 1.954391 -0.030417
0.621224 1.961938 -0.070580
0.621304 1.959989 -0.077593
0.622579 1.959337 -0.123591
0.602191 1.926719 0.614097
0.618782 1.953997 0.054367
0.616715 1.940508 0.117265
0.655581 1.955634 -0.083423
0.658616 1.961873 -0.109362
0.632803 1.943556 0.291389
0.647469 1.930752 0.582386
0.663910 1.960232 -0.147340
0.636606 1.962393 -0.098466
0.635309 1.958894 -0.031495
0.641951 1.951336 0.063492
0.632700 1.925566 0.570280
0.639511 1.961244 -0.070453
0.662104 1.945397 0.246566
0.684873 1.941394 0.304660
0.694086 1.958875 -0.162183
0.695719 1.961471 -0.101152
0.667091 1.945732 0.070593
0.641623 1.933731 0.569394
0.689540 1.941290 0.189685
0.695092 1.948247 0.068762
0.651067 1.948434 0.071533
0.672911 1.946199 0.300645
0.665047 1.926445 0.527471
0.646016 1.948922 0.271522
0.703318 1.958195 -0.185128
0.640772 1.933810 0.555399
0.656988 1.948010 0.286578
0.688223 1.960412 0.026828
0.700335 1.931434 0.476702
0.651937 1.938529 0.340495
0.700837 1.926632 0.590678
0.671859 1.956800 -0.070281
0.651707 1.926542 0.619425
0.671013 1.950825 -0.076326
0.675128 1.959240 -0.124245
0.719666 1.958394 -0.033014
0.670394 1.949857 0.057680
0.673012 1.953464 0.119724
0.710309 1.954762 -0.111071
0.683395 1.940409 0.293701
0.711139 1.956593 -0.085052
0.699046 1.928612 0.586711
0.686922 1.954757 -0.029183
0.688265 1.956262 -0.097167
0.696425 1.955260 0.064876
0.718547 1.957179 -0.150003
0.689145 1.955071 -0.068168
0.684263 1.924433 0.573612
0.740356 1.945337 0.306048
0.714742 1.941295 0.246883
0.748360 1.957389 -0.104837
0.748723 1.955826 -0.165848
0.691241 1.928548 0.574686
0.722553 1.950678 0.070989
0.747043 1.945271 0.190086
0.704601 1.949346 0.071890
0.749638 1.949188 0.067124
0.723546 1.941055 0.301941
0.716675 1.922315 0.529782
0.690412 1.927626 0.560684
0.694779 1.936729 0.274761
0.758940 1.956161 -0.188781
0.705733 1.936824 0.288823
0.738812 1.909884 0.928829
0.703494 1.937397 0.342825
0.738973 1.950281 0.025091
0.725433 1.955714 -0.070939
0.728405 1.959809 -0.076892
0.728716 1.957145 -0.123910
0.773309 1.954319 -0.035694
0.721955 1.947709 0.061002
0.722653 1.947297 0.121006
0.734994 1.937279 0.295016
0.744051 1.911924 0.933907
0.764890 1.953696 -0.112725
0.765715 1.955520 -0.085707
0.740395 1.957655 -0.027817
0.741803 1.956158 -0.095820
0.744587 1.959995 -0.065776
0.773103 1.957111 -0.151651
0.748097 1.948117 0.067163
0.791070 1.936185 0.307314
0.767372 1.937185 0.247196
0.802363 1.951752 -0.169530
0.802064 1.950308 -0.107539
0.778087 1.951610 0.072353
0.759062 1.953262 0.073268
0.754850 1.898618 0.860886
0.806209 1.949149 0.066487
0.803664 1.943234 0.189436
0.778067 1.941959 0.305299
0.743313 1.910939 0.927922
0.747298 1.936585 0.280101
0.790375 1.907726 0.935148
0.811612 1.950068 -0.192484
0.759266 1.936704 0.293169
0.755058 1.935251 0.346145
0.795522 1.951241 0.024461
0.749489 1.911074 0.922973
0.779042 1.952620 -0.071614
0.780078 1.952673 -0.076607
0.783333 1.954067 -0.124579
0.826086 1.943212 -0.037430
0.778400 1.952642 0.064398
0.775221 1.945168 0.123331
0.763098 1.890408 0.907899
0.796593 1.910757 0.943224
0.788586 1.935168 0.297333
0.817563 1.947586 -0.114443
0.820318 1.953445 -0.087386
0.792072 1.950510 -0.026546
0.793450 1.950004 -0.093543
0.802671 1.947024 0.068492
0.827731 1.954041 -0.154337
0.798254 1.953876 -0.063486
0.775688 1.904192 0.969086
0.826790 1.945174 0.249616
0.859957 1.951745 -0.174177
0.861561 1.955330 -0.111141
0.831764 1.945504 0.072643
0.813237 1.906537 0.872302
0.812720 1.948157 0.073565
0.860856 1.945072 0.064795
0.793046 1.900738 0.934164
0.803763 1.940494 0.286477
0.842988 1.903566 0.942445
0.871183 1.952100 -0.198104
0.863530 1.923302 0.604693
0.850188 1.946155 0.023765
0.802067 1.907887 0.934281
0.830720 1.945476 -0.071341
0.833702 1.948555 -0.075302
0.837005 1.947954 -0.124287
0.885622 1.946222 -0.040043
0.831008 1.948495 0.067697
0.828803 1.943047 0.125650
0.817482 1.896254 0.919293
0.844374 1.897536 0.946449
0.857777 1.921186 0.603675
0.875960 1.949379 -0.089053
0.874175 1.945544 -0.117091
0.843781 1.941356 -0.025271
0.847086 1.944884 -0.092229
0.835821 1.922091 0.987594
0.856305 1.941899 0.070806
0.849932 1.945714 -0.061204
0.883347 1.950973 -0.155998
0.886412 1.940407 0.072962
0.879352 1.927542 0.889866
0.918236 1.950291 -0.114811
0.922442 1.957815 -0.178738
0.866429 1.940044 0.073859
0.845591 1.898553 0.944492
0.910022 1.927567 0.963033
0.882328 1.922032 0.541835
0.930728 1.954117 -0.202710
0.912332 1.909100 0.605914
0.901921 1.936011 0.023030
0.855683 1.902710 0.945595
0.890235 1.948468 -0.071939
0.890256 1.948497 -0.075939
0.891606 1.944860 -0.124956
0.882702 1.939324 0.070970
0.927242 1.911771 0.831035
0.879702 1.911195 0.935793
0.912402 1.921530 0.970042
0.911447 1.914041 0.608973
0.935595 1.953581 -0.119647
0.937420 1.955409 -0.090623
0.904136 1.951352 -0.023819
0.885862 1.898731 0.587737
0.879651 1.904804 0.989764
0.906547 1.949867 -0.091816
0.908379 1.950673 -0.059798
0.942885 1.952980 -0.159607
0.961851 1.930997 0.312358
0.905596 1.915972 0.601975
0.930200 1.912375 0.891092
0.910738 1.916506 0.966026
0.980139 1.951790 -0.183413
0.955916 1.908321 0.963199
0.908559 1.924059 0.596057
0.939892 1.920952 0.547195
0.902644 1.906614 0.643909
0.992305 1.955166 -0.208316
0.970873 1.909028 0.612284
0.916982 1.912607 0.965051
0.947786 1.948419 -0.072575
0.948811 1.948457 -0.075568
0.954025 1.952902 -0.126509
0.982578 1.911084 0.489366
0.933247 1.909031 0.944120
0.987846 1.909727 0.838405
0.961213 1.906305 0.974252
0.967029 1.910916 0.615304
0.932156 1.903609 1.000091
0.943355 1.900642 0.594116
0.958270 1.907802 0.607256
1.023322 1.934988 0.315768
0.996690 1.932952 0.253618
0.961456 1.905286 0.974275
0.982923 1.902207 0.896359
0.971388 1.937147 0.304526
1.008660 1.897152 0.968459
1.001479 1.929580 0.317629
0.972583 1.935670 0.661538
0.958364 1.908836 0.601274
0.968322 1.925690 0.361436
1.007148 1.936007 0.556715
0.983514 1.931303 0.311554
1.030386 1.919979 0.188710
1.039098 1.925085 0.623814
0.971606 1.906432 0.976357
0.985893 1.901848 0.951405
1.056722 1.933253 0.498971
1.017802 1.902160 0.985580
0.986641 1.903434 1.011433
1.047467 1.905650 0.846750
1.008989 1.921739 0.307651
1.035245 1.926958 0.628834
1.015381 1.926746 0.608735
1.032267 1.934910 0.625893
1.076196 1.917835 0.315985
1.054354 1.926879 0.254937
1.022858 1.910191 0.990690
1.043404 1.904127 0.907748
1.023150 1.923954 0.308764
1.068973 1.946388 0.075145
1.020396 1.919429 0.663732
1.077824 1.914163 0.988997
1.021995 1.917539 0.364718
1.030416 1.932917 0.618879
1.060120 1.924510 0.320960
1.061902 1.924880 0.558982
1.035279 1.918115 0.314791
1.102244 1.940061 0.060277
1.096913 1.923053 0.190140
1.095786 1.916976 0.628111
1.025275 1.897226 0.988632
1.089399 1.948103 0.020279
1.055032 1.937702 0.134042
1.040519 1.895686 0.959705
1.064116 1.949214 0.083170
1.037277 1.895205 1.019695
1.117419 1.926213 0.502298
1.076321 1.901036 0.997935
1.134940 1.947375 -0.051481
1.067560 1.919668 0.311000
1.089957 1.916806 0.634105
1.114922 1.910679 0.858197
1.110012 1.902821 1.256132
1.071036 1.919613 0.614033
1.130883 1.969612 -0.097335
1.089564 1.936653 0.079235
1.084067 1.919707 0.631114
1.151380 1.938033 0.321572
1.126597 1.944041 0.258488
1.075974 1.915282 0.671048
1.084338 1.911087 1.007074
1.083669 1.923885 0.316136
1.092141 1.937637 0.373278
1.106895 1.906089 0.919151
1.134517 1.905026 0.997285
1.083170 1.919716 0.626118
1.140126 1.953767 0.330635
1.098735 1.922104 0.321207
1.162761 1.939355 -0.129368
1.121535 1.919808 0.564314
1.168006 1.945919 -0.197296
1.164862 1.937072 0.059638
1.172194 1.939266 0.192701
1.162245 1.920994 0.637541
1.093533 1.909198 1.011129
1.127536 1.943340 -0.074498
1.147211 1.935033 0.018546
1.112652 1.932611 0.136362
1.132469 1.948431 -0.075435
1.106802 1.906658 0.977182
1.102497 1.908148 1.039178
1.142659 1.908998 1.016390
1.181048 1.922202 0.507657
1.136834 1.933762 0.316512
1.155377 1.921794 0.645535
1.193754 1.934323 -0.054211
1.129609 1.916518 0.620370
1.183408 1.913710 0.870630
1.175587 1.900786 1.271516
1.146661 1.951731 -0.087319
1.134901 1.928263 -0.050539
1.145342 1.923522 0.081489
1.146559 1.920649 0.641499
1.131539 1.911130 0.678359
1.183489 1.934925 -0.170244
1.141966 1.920410 0.375470
1.183384 1.930933 0.259747
1.141944 1.904929 1.020385
1.155422 1.924712 0.077557
1.153973 1.935964 0.325640
1.169403 1.906020 0.931529
1.199990 1.906993 1.011692
1.176649 1.914087 0.075592
1.145675 1.919643 0.638497
1.187156 1.926496 0.330743
1.169068 1.933195 0.328703
1.181205 1.912736 0.568629
1.234250 1.945542 -0.134901
1.234589 1.946019 -0.202898
1.244143 1.954361 0.059222
1.223892 1.914939 0.643871
1.152137 1.903040 1.026445
1.236879 1.933294 0.193049
1.240994 1.936290 -0.228923
1.186840 1.951789 0.140931
1.167317 1.905555 0.989541
1.186249 1.934274 -0.075203
1.217630 1.943171 0.018020
1.179484 1.921146 -0.074327
1.159022 1.904972 1.052500
1.175539 1.927932 0.090709
1.204212 1.905894 1.030740
1.219920 1.920768 0.654914
1.249656 1.920265 0.513053
1.273014 1.952629 -0.057623
1.197139 1.934037 -0.018127
1.204419 1.939630 -0.086051
1.242148 1.898752 1.287901
1.251973 1.912737 0.882033
1.208181 1.943444 -0.050003
1.235714 1.928253 -0.098972
1.238838 1.931542 -0.132934
1.225463 1.947808 0.084123
1.196926 1.917110 0.689790
1.208167 1.915564 0.651836
1.207396 1.906863 1.038790
1.233644 1.943968 0.079147
1.259620 1.899871 1.023001
1.234945 1.904991 0.943914
1.201427 1.906470 0.646748
1.265628 1.947528 0.077334
1.252687 1.926507 0.336133
1.247738 1.912745 0.577025
1.314582 1.960870 -0.140330
1.308121 1.950233 -0.209439
1.304945 1.941325 0.057496
1.280651 1.901799 0.649123
1.214653 1.900921 1.044806
1.245507 1.943699 0.143227
1.226908 1.900434 1.000864
1.214658 1.896793 1.062780
1.266446 1.955586 -0.077592
1.288098 1.948299 0.017468
1.318423 1.946578 -0.236403
1.248837 1.941081 0.095228
1.246430 1.916588 -0.129960
1.264840 1.898772 1.044054
1.284493 1.917733 0.664276
1.271455 1.947226 -0.017604
1.349502 1.958870 -0.061137
1.282648 1.957884 -0.085473
1.287368 1.963709 -0.048407
1.324449 1.915809 0.895478
1.308767 1.893716 1.303261
1.326932 1.960003 -0.138236
1.285174 1.937728 0.086410
1.322866 1.953690 -0.103299
1.270745 1.911489 0.662180
1.267010 1.899716 1.053098
1.327094 1.900848 1.038403
1.299249 1.941001 0.079513
1.350178 1.930131 0.331698
1.326333 1.940172 0.266648
1.273730 1.916515 0.664239
1.307343 1.911044 0.960378
1.331272 1.942558 0.077685
1.328066 1.935669 0.342633
1.321141 1.919857 0.586501
1.376798 1.945346 -0.215072
1.278057 1.899694 1.080173
1.384343 1.951593 0.057022
1.363816 1.921036 0.664731
1.288469 1.896325 1.014200
1.279190 1.897821 1.064167
1.311102 1.940717 0.145592
1.335982 1.956687 -0.078180
1.336980 1.956689 -0.076174
1.359629 1.950441 0.015897
1.317328 1.943135 0.099642
1.388807 1.945689 0.197015
1.338364 1.953107 -0.134191
1.333261 1.901743 1.062473
1.332495 1.930794 0.328650
1.325089 1.919463 0.647547
1.356884 1.923798 0.677736
1.340936 1.950314 -0.016180
1.395681 1.924489 0.527931
1.340423 1.943768 -0.084227
1.350037 1.955670 -0.046095
1.423102 1.958043 -0.063720
1.321964 1.913967 0.709505
1.395033 1.912844 0.907867
1.362522 1.948935 0.089930
1.398326 1.959899 -0.105825
1.383238 1.895763 1.324706
1.346084 1.920589 0.677676
1.347570 1.931873 0.349754
1.339396 1.904722 1.075552
1.396048 1.944376 -0.182939
1.397565 1.901852 1.055817
1.376602 1.952221 0.081031
1.347049 1.925575 0.680723
1.396897 1.939259 0.270049
1.426638 1.935312 0.336170
1.372947 1.906006 0.971726
1.406738 1.947740 0.079153
1.365720 1.928175 0.348826
1.363447 1.888186 0.340536
1.395573 1.924968 0.596963
1.342499 1.900610 1.096553
1.356887 1.899298 1.031616
1.344667 1.896723 1.084541
1.456948 1.949740 0.055424
1.441204 1.928182 0.677220
1.377687 1.937744 0.147957
1.405574 1.954786 -0.079792
1.389781 1.947240 0.105085
1.406567 1.954780 -0.076787
1.432211 1.949581 0.015307
1.461446 1.941815 0.198404
1.398865 1.895675 1.077813
1.401039 1.929841 0.333038
1.391651 1.916447 0.656911
1.435244 1.931939 0.693236
1.410468 1.950392 -0.014781
1.395233 1.925038 0.723997
1.419739 1.957027 -0.084689
1.419584 1.954739 -0.043703
1.478130 1.930728 0.537440
1.500669 1.959279 -0.067273
1.435063 1.949047 0.093345
1.452536 1.932970 -0.143689
1.415598 1.919593 0.691069
1.453860 1.889754 1.343071
1.468664 1.907911 0.921255
1.424918 1.941026 0.360255
1.406925 1.901658 1.094920
1.443220 1.947247 0.082379
1.472018 1.903906 1.074254
1.470621 1.944561 -0.186515
1.415573 1.923555 0.695103
1.446379 1.909051 0.989165
1.464564 1.932294 0.272390
1.446044 1.939383 0.358355
1.466248 1.928752 0.354379
1.477401 1.941826 0.080516
1.406011 1.897501 1.112898
1.469098 1.925060 0.606381
1.428334 1.901311 1.049038
1.447181 1.938807 0.151359
1.419057 1.900731 1.109993
1.529589 1.947315 -0.155191
1.511836 1.922220 0.686580
1.530605 1.944885 0.054807
1.457389 1.942258 0.109437
1.482060 1.958992 -0.081333
1.483071 1.957978 -0.077334
1.509745 1.951801 0.013758
1.534158 1.933929 0.199762
1.470338 1.895671 1.097219
1.471928 1.928623 0.671444
1.461859 1.913749 0.336281
1.504837 1.926947 0.704597
1.483009 1.950518 -0.014370
1.455902 1.914922 0.732278
1.491155 1.952839 -0.042311
1.545908 1.917735 0.542737
1.508625 1.948172 0.095746
1.491041 1.922673 0.706507
1.536944 1.943322 -0.148157
1.533289 1.892837 1.368531
1.547188 1.908038 0.936690
1.473532 1.894573 1.113246
1.512877 1.941318 0.082727
1.537742 1.891834 1.087540
1.489066 1.923594 0.711512
1.518962 1.905081 1.004543
1.471500 1.895411 1.130251
1.514717 1.931398 0.364686
1.538880 1.923839 0.359751
1.556906 1.945053 0.081976
1.542705 1.921145 0.614765
1.494902 1.896245 1.064378
1.521676 1.940942 0.154788
1.488639 1.894664 1.132345
0.854327 1.058810 0.398454
1.534845 1.946426 0.114896
1.614136 1.948191 0.053290
1.589274 1.954036 0.013214
1.548272 1.939375 -0.138091
1.540905 1.890637 1.116583
1.614749 1.933164 0.201204
1.543516 1.924668 0.680820
1.552027 1.934115 0.344915
1.527384 1.914944 0.745680
1.555602 1.947624 -0.012983
0.855231 1.068721 0.411555
1.566670 1.953987 -0.039881
1.546014 1.921515 0.413815
1.581245 1.943262 0.099129
1.557714 1.912619 0.717827
1.629439 1.918965 0.552211
1.610450 1.936198 -0.112782
1.544064 1.890530 1.133627
1.554746 1.912508 0.724820
1.591408 1.942519 0.084182
1.627738 1.906176 0.953136
1.627937 1.906062 1.116142
1.547800 1.902443 1.154733
1.596473 1.904167 1.021979
0.901396 1.073875 0.206852
0.896058 1.090704 0.218945
1.633509 1.942224 0.082392
1.573269 1.901325 1.085858
1.627111 1.927375 0.627283
1.590341 1.932971 0.157129
1.571859 1.905759 1.163890
1.602558 1.935422 0.119212
0.822384 0.972361 0.374799
1.697750 1.946475 0.052748
1.662033 1.943147 0.011555
1.625203 1.898770 1.144112
1.617085 1.920723 0.692212
1.597914 1.911954 0.757062
1.626622 1.930221 0.350313
1.635085 1.950844 -0.012514
0.978018 1.133672 0.129678
0.829168 0.988352 0.390970
1.662768 1.944489 0.102596
0.827172 0.993272 0.396018
0.897572 1.079610 0.228950
1.627397 1.896637 1.162137
1.728861 1.934819 -0.077156
0.888212 1.017877 0.311483
1.623200 1.904463 1.177172
0.830089 0.999275 0.402083
1.670948 1.942728 0.085630
1.677929 1.905290 1.042444
0.942725 1.092746 0.172273
0.902894 1.067727 0.222912
0.904282 1.047793 0.215784
0.890990 1.010682 0.198463
1.723946 1.949608 0.083943
1.653671 1.904421 1.108330
1.667882 1.932134 0.160559
0.886048 1.023537 0.353541
1.687950 1.942694 0.125736
0.812861 0.916221 0.362464
1.702096 1.938362 -0.085230
1.705058 1.939361 -0.078207
1.021860 1.134966 0.038973
1.750549 1.946505 0.011068
0.886929 1.028274 0.391609
0.932014 1.077275 0.210159
0.813777 0.925134 0.375558
0.962764 1.061366 0.124204
1.704355 1.930336 -0.081257
0.925033 1.068867 0.251084
0.995949 1.131284 0.070861
0.815701 0.934106 0.382652
0.886107 1.017383 0.223559
0.807809 0.928949 0.385586
1.087805 1.176579 -0.040382
0.869937 0.948587 0.298019
1.758475 1.945060 0.086129
0.878691 0.991304 0.214365
0.958830 1.056955 0.170200
0.875158 0.967300 0.205186
1.023330 1.121797 0.058956
0.997100 1.122038 0.105836
0.860849 0.949163 0.336004
0.992464 1.110093 0.084743
1.069999 1.178237 -0.039413
1.084215 1.143935 0.038425
1.081005 1.164038 0.015551
0.935298 1.030285 0.205945
1.069874 1.177936 0.002600
0.906657 1.001551 0.241624
1.066135 1.168961 -0.011472
1.040555 1.123937 0.073116
0.863781 0.946989 0.216063
1.117450 1.175165 -0.066160
1.038831 1.114986 0.060058
1.131566 1.162232 -0.042178
1.012173 1.086220 0.104751
0.989835 1.055964 0.085450
1.105788 1.160783 -0.044275
1.100845 1.155660 -0.038334
1.081055 1.135023 0.004447
1.101022 1.151643 -0.038340
1.092063 1.141294 -0.009450
