# .PCD v0.7 - Point Cloud Data file format
VERSION 0.7
FIELDS x y z
SIZE 4 4 4
TYPE F F F
COUNT 1 1 1
WIDTH 13
HEIGHT 1
VIEWPOINT 0 0 0 1
POINTS 13
DATA ascii
2.511600 -1.262469 2.790473
2.525469 -1.214630 2.816035
2.451751 -1.218291 2.779955
2.458064 -1.308107 2.770219
2.472937 -1.259223 2.790782
2.491494 -1.546209 2.770153
2.426981 -1.584839 2.742950
2.489012 -1.629946 2.772768
2.528456 -1.599528 2.797909
2.427060 -1.612806 2.718799
2.440290 -1.862282 2.721365
2.523324 -1.923855 2.841495
2.398619 -2.069472 2.673160
