# .PCD v0.7 - Point Cloud Data file format
VERSION 0.7
FIELDS x y z
SIZE 4 4 4
TYPE F F F
COUNT 1 1 1
WIDTH 41
HEIGHT 1
VIEWPOINT 0 0 0 1
POINTS 41
DATA ascii
2.813360 -2.279783 0.952662
2.765443 -2.254999 0.680279
2.768724 -2.271325 0.838201
2.740783 -2.253061 0.654006
2.667801 -2.264214 0.921096
2.730107 -2.343526 1.381220
2.627923 -2.247368 0.653744
2.669633 -2.297166 1.378895
2.638206 -2.269673 0.816698
2.605228 -2.246440 0.631486
2.660063 -2.327315 1.377537
2.538273 -2.257516 0.895646
2.504395 -2.243609 0.631341
2.586766 -2.328814 1.332667
2.537271 -2.289402 1.338417
2.506639 -2.262015 0.794232
2.526763 -2.317498 1.330061
2.426764 -2.258656 0.875340
2.450392 -2.313030 1.286204
2.411849 -2.280586 1.302028
2.399405 -2.305629 1.285673
2.775340 -2.269152 0.743507
2.709744 -2.298914 1.284524
2.637009 -2.251387 0.609286
2.638870 -2.265916 0.724137
2.653676 -2.301631 1.306917
2.783476 -2.268075 0.593720
2.564434 -2.283453 1.244225
2.743160 -2.271922 0.634261
2.509474 -2.245111 0.592063
2.752281 -2.322731 1.295802
2.506354 -2.256634 0.703902
2.509385 -2.282094 1.261686
2.705467 -2.297481 1.176624
2.443103 -2.280945 1.214026
2.595613 -2.259780 0.615904
2.604970 -2.305257 1.253511
2.374055 -2.261516 1.218577
2.557128 -2.282081 1.139302
2.476655 -2.298746 1.219296
2.430787 -2.278622 1.110074
