# .PCD v0.7 - Point Cloud Data file format
VERSION 0.7
FIELDS x y z
SIZE 4 4 4
TYPE F F F
COUNT 1 1 1
WIDTH 551
HEIGHT 1
VIEWPOINT 0 0 0 1
POINTS 551
DATA ascii
0.531993 -1.145609 0.114719
0.526086 -1.144691 0.119775
0.525186 -1.143684 0.118840
0.503289 -1.152580 0.112707
0.521293 -1.143691 0.118888
0.529063 -1.206847 0.193954
0.524180 -1.190330 0.160204
0.526294 -1.178804 0.125393
0.499592 -1.161049 0.011602
0.496381 -1.148660 0.117804
0.519450 -1.206887 0.064969
0.502621 -1.161040 0.010622
0.526434 -1.174247 0.088486
0.523533 -1.205437 0.035004
0.532629 -1.206947 0.002010
0.503692 -1.152941 0.003772
0.538748 -1.210380 -0.036013
0.507738 -1.151842 -0.003188
0.499479 -1.158703 0.119717
0.544016 -1.304380 0.291671
0.511311 -1.236899 0.196614
0.483569 -1.178573 0.111427
0.496580 -1.159711 0.119750
0.505443 -1.220382 0.162867
0.557032 -1.310655 0.308643
0.507568 -1.210858 0.128032
0.490849 -1.209038 0.009010
0.499718 -1.234911 0.065658
0.478656 -1.179684 0.118454
0.491888 -1.207043 0.009062
0.502012 -1.248536 0.370499
0.504804 -1.236463 0.035653
0.508708 -1.208304 0.091097
0.513085 -1.265138 0.343285
0.516898 -1.244977 0.002562
0.494945 -1.199960 0.003194
0.521184 -1.263633 0.309333
0.530165 -1.307532 0.301693
0.517039 -1.239423 -0.034331
0.496010 -1.196876 -0.002732
0.531285 -1.276145 0.276185
0.474769 -1.175707 0.119565
0.539213 -1.300653 0.308852
0.548171 -1.311360 -0.107337
0.505326 -1.297274 0.285853
0.507521 -1.302020 0.202780
0.468828 -1.216598 0.111975
0.472867 -1.179745 0.121555
0.493680 -1.267469 0.167288
0.511358 -1.288513 0.301034
0.491820 -1.248928 0.131581
0.475120 -1.247020 0.006558
0.509913 -1.332987 0.067361
0.465909 -1.223741 0.120919
0.473288 -1.259526 0.370427
0.471166 -1.234052 0.008765
0.513004 -1.328524 0.036440
0.490977 -1.244359 0.093677
0.480371 -1.267095 0.341338
0.521122 -1.332022 0.002425
0.478223 -1.238989 0.003733
0.496447 -1.286689 0.313094
0.490478 -1.297425 0.295916
0.526260 -1.336428 -0.037608
0.481282 -1.238906 -0.002236
0.508544 -1.305219 0.280862
0.466006 -1.226781 0.122930
0.525248 -1.383303 -0.046310
0.793828 -1.958493 -0.122366
0.505219 -1.353678 -0.019906
0.497531 -1.287559 0.304118
0.481785 -1.321033 0.203592
0.475613 -1.310236 0.283753
0.451091 -1.250605 0.111578
0.462110 -1.227818 0.124964
0.479913 -1.313552 0.171721
0.481638 -1.300505 0.300948
0.465367 -1.302022 0.004864
0.482059 -1.307017 0.135849
0.484493 -1.335119 -0.056589
0.489546 -1.321900 -0.071378
0.449534 -1.277548 0.372249
0.480469 -1.343266 -0.046716
0.476208 -1.335967 0.066398
0.490612 -1.308663 -0.087170
0.446173 -1.252745 0.120591
0.463409 -1.293055 0.007015
0.480297 -1.335536 0.037422
0.458617 -1.295166 0.346024
0.496181 -1.338492 0.099442
0.497393 -1.360043 0.003111
0.470705 -1.305727 0.315906
0.467475 -1.292005 0.003069
0.468730 -1.328467 0.298560
0.466537 -1.281949 -0.000759
0.504528 -1.370468 -0.036005
0.480818 -1.325258 0.283664
0.445276 -1.256815 0.124590
0.471789 -1.305582 0.305943
0.460037 -1.353077 0.206220
0.457849 -1.351296 0.287254
0.450295 -1.329684 0.114543
0.460163 -1.350599 0.174279
0.443375 -1.263868 0.127540
0.460880 -1.332561 0.304576
0.468581 -1.398003 0.000591
0.468287 -1.357100 0.140224
0.430760 -1.312648 0.378832
0.473707 -1.414210 -0.052639
0.570518 -1.642989 -0.075844
0.454471 -1.369986 0.066998
0.729241 -2.004520 -0.120897
0.453346 -1.353891 0.127247
0.739312 -2.003171 -0.144847
0.470608 -1.398069 0.004616
0.457573 -1.369541 0.037024
0.436856 -1.324235 0.350692
0.468457 -1.359536 0.102227
0.458704 -1.354051 0.004275
0.440002 -1.341441 0.297454
0.475667 -1.398035 0.001657
0.453931 -1.351862 0.324338
0.473739 -1.386980 -0.002154
0.456767 -1.410643 -0.023554
0.451446 -1.354959 0.131288
0.706248 -1.969403 -0.061340
0.674298 -1.960144 -0.076279
0.448042 -1.332636 0.309642
0.714049 -2.006583 0.415188
0.708514 -1.987875 -0.163601
0.671389 -2.008675 0.291062
0.661141 -1.992380 0.405307
0.429557 -1.367686 0.114086
0.674542 -2.017006 0.245976
0.445558 -1.356025 0.135326
0.442109 -1.374663 0.311062
0.652802 -2.009734 0.562095
0.429894 -1.390979 -0.000234
0.677732 -2.009251 0.195134
0.652014 -2.006556 0.084099
0.658480 -1.995831 -0.097744
0.650453 -2.000972 -0.087838
0.429610 -1.383889 0.126901
0.730400 -2.148445 -0.129852
0.686598 -2.004218 -0.140791
0.429925 -1.386059 0.004862
0.482683 -1.532642 0.038801
0.654953 -2.017093 0.519024
0.641377 -1.941208 -0.004911
0.432987 -1.380023 0.001986
0.650204 -2.018754 0.430000
0.661997 -1.972360 0.136696
0.662123 -2.015354 0.469095
0.630464 -2.002581 -0.046830
0.637550 -1.997124 -0.077733
0.428706 -1.389989 0.132873
0.443028 -1.404008 -0.000315
0.430259 -1.376768 0.318098
0.652545 -1.968431 -0.058254
0.653659 -2.005544 -0.117811
0.660328 -2.009548 0.415217
0.621660 -2.013631 0.290059
0.621374 -2.023355 0.404937
0.406814 -1.400685 0.113694
0.622817 -2.011962 0.245112
0.418823 -1.377050 0.137104
0.636330 -2.021931 0.442036
0.605054 -2.014666 0.560090
0.408153 -1.427952 -0.002683
0.628004 -2.013225 0.195144
0.601300 -2.006503 0.082165
0.603736 -2.012928 -0.089941
0.613756 -2.015805 -0.098959
0.403874 -1.410900 0.127594
0.624823 -2.007550 -0.116801
0.409184 -1.429048 0.003330
0.606428 -2.008912 0.042157
0.603225 -2.011994 0.515160
0.856312 -2.633788 -0.189583
0.599482 -2.019644 0.425052
0.612597 -2.004237 -0.003731
0.413243 -1.427044 0.002400
0.610394 -2.013287 0.467189
0.623235 -2.010406 0.140230
0.773141 -2.589478 -0.071053
0.570305 -1.908809 0.171641
0.617463 -2.020072 0.452132
0.414305 -1.424021 0.000476
0.614791 -2.005454 -0.056709
0.608602 -2.014512 0.415216
0.571935 -2.011555 0.287151
0.569659 -2.018229 0.399072
0.569317 -2.015460 0.147089
0.571101 -2.011916 0.244178
0.592275 -2.000091 0.187413
0.585606 -2.022835 0.438087
0.556317 -2.014566 0.556153
0.730882 -2.576952 0.096171
0.572304 -2.001178 0.194379
0.560362 -2.016775 0.168118
0.739026 -2.588232 0.047043
0.555483 -2.017926 0.513138
0.549756 -2.019547 0.421115
0.740252 -2.564377 -0.010565
0.556682 -2.008200 0.464325
0.572514 -2.014409 0.142238
0.556439 -2.017931 0.178172
0.565735 -2.017988 0.449229
0.549242 -2.002582 -0.112634
0.521212 -2.003476 0.284329
0.553384 -1.994009 -0.151480
0.557866 -2.021504 0.417187
0.515963 -2.011069 0.391240
0.520379 -2.007868 0.243300
0.533889 -2.015719 0.433251
0.508576 -2.015479 0.553202
0.545538 -2.011078 0.188324
0.504125 -2.004916 -0.020698
0.503326 -2.010843 -0.092785
0.511343 -2.009778 -0.097746
0.526563 -2.021194 0.197163
0.524401 -2.011557 -0.113729
0.507133 -2.009088 -0.009724
0.504760 -2.013836 0.510259
0.530473 -2.005329 -0.129608
0.498050 -2.010415 0.415305
0.515176 -2.016132 -0.007772
0.513166 -2.011235 -0.000702
0.508944 -2.016174 0.465276
0.481342 -2.006472 -0.049696
0.489415 -2.005095 -0.075655
0.517012 -2.021931 0.448230
0.514244 -2.009154 -0.006631
0.502335 -2.109657 0.295883
0.511375 -2.006512 -0.049595
0.500536 -2.007591 -0.110647
0.505671 -2.002050 -0.147536
0.503175 -2.009413 0.414415
0.469241 -2.018985 0.388184
0.460853 -2.013373 0.549285
0.485170 -2.017647 0.431279
0.457417 -2.010862 -0.022727
0.455155 -2.010377 0.079291
0.454626 -2.009804 -0.093716
0.461647 -2.008754 -0.097676
0.456042 -2.010746 0.507356
0.458428 -2.009061 -0.009669
0.475695 -2.016565 -0.111744
0.457291 -2.008848 0.043340
0.481764 -2.012367 -0.125650
0.451327 -2.020344 0.413220
0.464477 -2.013119 -0.006674
0.461470 -2.006236 0.001425
0.459227 -2.014114 0.464359
0.432643 -2.005432 -0.050627
0.621285 -2.588868 0.565288
0.438722 -1.999084 -0.074515
0.464536 -2.009171 -0.003576
0.450831 -2.003611 -0.107537
0.460675 -2.005530 -0.046525
0.456962 -2.004088 -0.143510
0.419212 -2.006215 0.137394
0.454452 -2.018400 0.416344
0.424944 -2.012782 0.242338
0.435463 -2.010543 0.427431
0.447113 -2.016040 0.190365
0.408725 -2.011790 -0.025687
0.405460 -2.005316 0.077416
0.405933 -2.009750 -0.095662
0.413943 -2.010730 -0.097652
0.412243 -2.016571 0.161292
0.523423 -2.487569 0.620663
0.425155 -2.012122 0.197400
0.425995 -2.013569 -0.109648
0.409730 -2.011018 -0.010643
0.406598 -2.001817 0.043493
0.432064 -2.014388 -0.122624
0.413785 -2.009089 -0.006564
0.412766 -2.006222 0.002478
0.547474 -2.585117 0.587342
0.382953 -1.998389 -0.051475
0.417405 -2.004380 0.147554
0.390025 -1.996057 -0.074420
0.407324 -2.014782 0.175380
0.380058 -2.009291 0.279406
0.416825 -2.017172 -0.001636
0.401135 -2.001615 -0.105455
0.410970 -2.003561 -0.042444
0.373500 -2.012138 0.134360
0.407263 -2.005123 -0.139471
0.370842 -2.013735 0.377362
0.375243 -2.005728 0.241490
0.398403 -2.014003 0.190444
0.358750 -2.004269 0.076480
0.360032 -2.007731 -0.027579
0.357242 -2.008708 -0.096596
0.365248 -2.010704 -0.097600
0.363543 -2.012505 0.159400
0.376447 -2.007085 0.197521
0.361034 -2.008974 -0.011564
0.359885 -2.005801 0.044487
0.376300 -2.011572 -0.107568
0.383357 -2.014421 -0.118574
0.352923 -2.010121 0.404466
0.367072 -2.012075 -0.005557
0.363070 -2.000206 0.003614
0.335256 -1.994346 -0.052369
0.358621 -2.013730 0.174445
0.343318 -2.004046 -0.073483
0.367699 -2.004388 0.150606
0.332351 -2.006222 0.277498
0.368119 -2.015172 0.000442
0.351443 -1.996617 -0.103334
0.362266 -2.003576 -0.039394
0.324809 -2.009043 0.130453
0.323137 -2.011631 0.373440
0.356571 -2.000155 -0.135349
0.328529 -2.005675 0.240538
0.354035 -2.015306 0.416492
0.341027 -2.016394 0.423448
0.349698 -2.012965 0.190508
0.312338 -2.003671 -0.029474
0.310056 -1.998220 0.075614
0.309550 -2.006651 -0.098519
0.316556 -2.006675 -0.097495
0.313875 -2.010544 0.503509
0.315840 -2.013439 0.157434
0.328735 -2.008061 0.198556
0.313336 -2.006928 -0.012487
0.311189 -2.001768 0.044592
0.328598 -2.014560 -0.106562
0.307203 -2.014032 0.401457
0.333662 -2.008438 -0.115440
0.318377 -2.008043 -0.005452
0.316358 -2.005204 0.005591
0.314073 -2.014957 0.463498
0.325129 -2.016676 0.443503
0.288560 -1.998287 -0.054377
0.295622 -1.997017 -0.073336
0.311906 -2.015693 0.174464
0.320984 -2.006367 0.151625
0.285638 -2.003165 0.276587
0.319420 -2.012154 0.001532
0.303743 -1.995618 -0.101272
0.313565 -2.003590 -0.036346
0.276121 -2.002961 0.127586
0.275434 -2.013526 0.369460
0.308866 -1.998187 -0.131274
0.281815 -2.005635 0.240585
0.305321 -2.014273 0.417554
0.294309 -2.016318 0.421494
0.302980 -2.015941 0.191512
0.265640 -2.005611 -0.031456
0.263353 -1.996171 0.074689
0.268148 -2.010480 0.502553
0.261861 -2.007592 -0.100487
0.269135 -2.011371 0.155508
0.268862 -2.003646 -0.097406
0.281026 -2.007036 0.199617
0.265477 -2.001735 0.044637
0.266635 -2.009881 -0.013484
0.279903 -2.010560 -0.104460
0.259501 -2.007925 0.397588
0.284962 -2.006467 -0.111366
0.270675 -2.009025 -0.004420
0.268655 -2.001200 0.007693
0.266359 -2.012892 0.462572
0.277415 -2.015612 0.442563
0.241863 -1.998242 -0.055333
0.264204 -2.010639 0.173579
0.238932 -1.998093 0.274703
0.247927 -1.997001 -0.072291
0.271284 -2.003371 0.154715
0.270722 -2.007149 0.003648
0.257038 -1.999619 -0.099284
0.265861 -1.999602 -0.033245
0.229422 -2.003879 0.124616
0.228732 -2.010406 0.364547
0.260173 -1.993202 -0.128158
0.234110 -2.002592 0.240672
0.246605 -2.010224 0.418624
0.256606 -2.016252 0.419571
0.256265 -2.015916 0.192555
0.218948 -2.004534 -0.034399
0.217645 -2.000120 0.073675
0.215167 -2.004548 -0.101402
0.221440 -2.006302 0.153623
0.222164 -2.004616 -0.097377
0.233320 -2.002009 0.200731
0.219934 -2.005848 -0.013385
0.218775 -2.000699 0.044694
0.233201 -2.010545 -0.103417
0.213783 -2.009848 0.395602
0.237262 -2.002481 -0.108266
0.223970 -2.010006 -0.003392
0.221949 -2.006181 0.008665
0.230701 -2.013533 0.440634
0.218645 -2.010840 0.462644
0.195169 -1.997195 -0.056276
0.194211 -2.003036 0.273673
0.217495 -2.010598 0.173621
0.202223 -1.996970 -0.072249
0.224570 -2.003360 0.156757
0.224014 -2.007144 0.005690
0.211328 -2.002618 -0.097286
0.219148 -2.003628 -0.029259
0.183719 -2.005796 0.121628
0.180048 -2.002283 0.359704
0.214459 -1.998231 -0.124188
0.188394 -2.004549 0.240684
0.200879 -2.015175 0.418594
0.209557 -2.008874 0.192695
0.207901 -2.011200 0.419685
0.171944 -1.998054 0.071744
0.172257 -2.003471 -0.036344
0.169471 -2.004487 -0.103362
0.175733 -2.008232 0.151634
0.176460 -2.007585 -0.097381
0.173063 -2.004678 0.045677
0.185617 -2.000980 0.201787
0.173236 -2.009799 -0.014401
0.185507 -2.005542 -0.101306
0.167076 -2.011754 0.392614
0.190557 -2.004494 -0.105255
0.176276 -2.008970 -0.003338
0.184982 -2.009468 0.439730
0.175244 -2.003174 0.010747
0.171928 -2.009787 0.462698
0.149473 -1.998132 -0.058251
0.148499 -2.002976 0.272712
0.170791 -2.009541 0.172675
0.155527 -2.000936 -0.072267
0.176865 -2.003347 0.158797
0.176313 -2.009137 0.007702
0.164629 -2.004600 -0.096275
0.171449 -2.001636 -0.026191
0.137026 -2.004711 0.118682
0.142684 -1.998505 0.240808
0.134338 -2.003190 0.356728
0.167757 -1.997244 -0.121135
0.155163 -2.014095 0.416646
0.162848 -2.006846 0.193762
0.160186 -2.009176 0.421753
0.126237 -2.001014 0.071738
0.126559 -2.005407 -0.038335
0.124765 -2.017411 -0.106511
0.129036 -2.005161 0.149715
0.130759 -2.012537 -0.098415
0.127537 -2.005748 -0.015308
0.126366 -2.000639 0.045771
0.139897 -2.004966 0.203767
0.138808 -2.008523 -0.100311
0.120373 -2.008658 0.389694
0.144845 -2.013490 -0.103346
0.140249 -2.012431 0.440723
0.130569 -2.007948 -0.002287
0.129533 -2.004166 0.012769
0.126202 -2.010748 0.463720
0.103783 -2.001915 0.271761
0.103772 -2.003082 -0.059287
0.125078 -2.011498 0.172683
0.108834 -1.998901 -0.072202
0.130602 -2.009129 0.009737
0.129158 -2.004346 0.161820
0.117931 -2.002595 -0.094211
0.125737 -2.001644 -0.023156
0.091322 -2.007640 0.116674
0.097962 -2.003459 0.240771
0.087636 -2.005094 0.353735
0.110438 -2.015029 0.415666
0.122047 -2.002255 -0.118171
0.116142 -2.003815 0.194841
0.113463 -2.013151 0.423731
0.080540 -1.998945 0.069801
0.081844 -2.025326 -0.041588
0.084321 -2.009103 0.148691
0.076105 -1.995361 -0.107161
0.083080 -2.001502 -0.098223
0.080663 -1.999599 0.045820
0.082816 -2.024696 -0.016547
0.093194 -1.998934 0.204888
0.093101 -2.013503 -0.099349
0.075649 -2.012592 0.388670
0.099130 -2.019499 -0.100399
0.095517 -2.015392 0.441714
0.084862 -2.012909 -0.002326
0.082835 -2.003141 0.013817
0.059065 -2.004853 0.270751
0.058080 -2.001016 -0.061226
0.079375 -2.007439 0.171773
0.063138 -1.996865 -0.072141
0.083902 -2.001133 0.012884
0.082448 -2.003345 0.164868
0.072226 -2.006574 -0.093235
0.079033 -2.002648 -0.020137
0.044642 -1.995553 0.113878
0.052250 -2.002426 0.241817
0.064723 -2.013960 0.414712
0.041931 -2.003998 0.350782
0.075347 -2.002263 -0.115139
0.071413 -2.012798 0.196743
0.034837 -2.001888 0.068789
0.065754 -2.008124 0.425836
0.033199 -1.991258 -0.043068
0.037629 -2.003043 0.147809
0.029426 -1.988310 -0.108029
0.036397 -1.994465 -0.098091
0.034961 -1.996572 0.046893
0.048471 -2.003902 0.205847
0.034169 -1.989642 -0.017013
0.046420 -1.994496 -0.097046
0.028953 -2.006493 0.385787
0.050463 -1.992520 -0.095981
0.038176 -1.998884 -0.001095
0.037130 -2.000130 0.015890
0.013358 -2.003788 0.269795
0.033657 -2.013406 0.172717
0.019406 -2.016828 -0.072399
0.039181 -2.008122 0.014813
0.036733 -2.004327 0.166883
0.026508 -2.022550 -0.092436
0.007535 -2.001377 0.241860
0.032331 -2.001651 -0.017093
-0.001071 -2.009477 0.111706
0.019009 -2.012889 0.413756
-0.003773 -2.002901 0.347825
0.029623 -2.019269 -0.112353
0.026690 -2.015765 0.197728
-0.010854 -1.993830 0.067933
-0.007092 -2.012981 0.146692
-0.010738 -1.994529 0.046950
0.002754 -2.005882 0.207846
-0.015763 -2.006409 0.383814
-0.007514 -1.990843 -0.000953
-0.031359 -2.003736 0.269821
-0.008594 -2.015115 0.017701
-0.011075 -2.025372 0.173570
-0.007506 -1.998093 0.015983
-0.008988 -2.008322 0.169852
-0.038185 -2.007339 0.242799
-0.050481 -2.008814 0.345764
-0.019046 -2.029757 0.200552
-0.052762 -1.991891 0.144019
-0.042963 -2.007860 0.209841
-0.061477 -2.008337 0.382809
-0.075083 -2.006670 0.268799
-0.057732 -1.997280 0.170997
-0.054719 -2.017328 0.173745
-0.082942 -2.027342 0.246530
-0.095183 -2.002715 0.342872
-0.064708 -1.997680 0.199035
