# .PCD v0.7 - Point Cloud Data file format
VERSION 0.7
FIELDS x y z
SIZE 4 4 4
TYPE F F F
COUNT 1 1 1
WIDTH 152
HEIGHT 1
VIEWPOINT 0 0 0 1
POINTS 152
DATA ascii
-1.189079 2.321939 0.465800
-1.266034 2.336449 0.497924
-1.153868 2.331841 0.315984
-1.203696 2.300229 0.570878
-1.138776 2.356716 0.161205
-1.117691 2.313182 0.454982
-1.089528 2.267406 0.613765
-1.194663 2.330682 0.489120
-1.264588 2.320261 0.516070
-1.085491 2.324049 0.311167
-1.083458 2.360345 0.074421
-1.139363 2.302410 0.566113
-1.070399 2.350937 0.155404
-1.053347 2.315383 0.447224
-1.162447 2.366450 0.180473
-1.028192 2.266586 0.606979
-1.067347 2.377214 -0.075409
-1.066351 2.376012 -0.038413
-1.071375 2.391429 -0.117325
-1.208302 2.324503 0.497286
-1.121258 2.315933 0.478269
-1.126247 2.341144 0.255423
-1.192210 2.313478 0.510263
-1.017100 2.312257 0.306330
-1.014062 2.350556 0.071602
-1.073006 2.299602 0.560327
-0.998984 2.337167 0.149566
-1.104090 2.383801 -0.034207
-0.986972 2.309596 0.438426
-1.088030 2.351686 0.175629
-0.973914 2.281710 0.605284
-0.997959 2.367225 -0.041226
-0.998958 2.370417 -0.076208
-0.999957 2.375647 -0.118177
-1.241972 2.326555 0.451480
-1.137928 2.318719 0.490487
-1.050862 2.304160 0.469436
-1.056859 2.331347 0.252600
-1.121834 2.307681 0.505466
-1.223896 2.324294 0.506526
-0.954746 2.309437 0.302541
-1.059847 2.368623 0.020845
-1.117755 2.349483 0.182769
-0.949691 2.344743 0.069800
-1.047757 2.385421 -0.115997
-1.045736 2.383540 -0.136003
-1.003604 2.283823 0.551468
-1.105690 2.346460 0.192790
-1.032683 2.372012 -0.035034
-0.933611 2.335367 0.144797
-1.018637 2.342896 0.171819
-0.930548 2.356625 -0.078049
-0.931573 2.361428 -0.044019
-0.933568 2.367850 -0.119983
-1.169593 2.321762 0.447692
-0.987512 2.303351 0.462663
-1.066530 2.306943 0.482658
-0.992499 2.328530 0.249816
-1.053457 2.300876 0.500663
-1.152518 2.317508 0.500723
-0.893396 2.309611 0.298776
-1.078497 2.375849 -0.041910
-0.990449 2.358818 0.021031
-1.151431 2.362600 0.128040
-1.150446 2.360257 0.189028
-1.049376 2.343683 0.179973
-0.886322 2.341930 0.067022
-0.978353 2.373618 -0.114824
-0.978351 2.377730 -0.134795
-0.940239 2.277005 0.545658
-1.035292 2.335661 0.190968
-0.966305 2.367205 -0.035821
-0.871252 2.335557 0.140038
-0.953265 2.339091 0.168036
-1.041289 2.371932 -0.037803
-0.867174 2.352813 -0.079832
-0.867191 2.355624 -0.046811
-0.868178 2.361047 -0.121780
-1.096193 2.312971 0.443889
-1.000156 2.300139 0.476854
-1.032208 2.383660 -0.161690
-1.031204 2.384668 -0.162679
-0.925104 2.318722 0.247002
-0.983045 2.284091 0.493805
-1.082129 2.306717 0.494897
-1.010113 2.370037 -0.040701
-0.926079 2.355000 0.020247
-1.077029 2.342467 0.188163
-0.821929 2.332114 0.065207
-1.078022 2.350803 0.128218
-0.980986 2.335877 0.178171
-0.910953 2.363806 -0.113636
-0.910955 2.369924 -0.134594
-0.967907 2.328845 0.190171
-0.899916 2.361395 -0.036609
-0.886874 2.332287 0.164243
-0.971890 2.363117 -0.035607
-0.804815 2.350812 -0.049598
-0.802772 2.350244 -0.123596
-0.927711 2.275378 0.466953
-1.024788 2.300179 0.439059
-0.964824 2.378838 -0.158472
-0.963818 2.378847 -0.159468
-1.054864 2.378860 -0.046501
-0.864759 2.319883 0.245245
-1.012735 2.295928 0.488075
-0.912616 2.264304 0.486934
-0.858670 2.343185 0.020426
-0.939698 2.358231 -0.039519
-1.006629 2.332666 0.186354
-0.915606 2.330059 0.176380
-1.007624 2.341989 0.129415
-0.847581 2.361982 -0.113402
-0.847585 2.369101 -0.134352
-1.018646 2.381255 -0.097351
-0.901517 2.321023 0.189372
-1.014594 2.386780 -0.186299
-1.019632 2.399888 -0.208225
-0.834519 2.351582 -0.037420
-0.904491 2.353294 -0.033417
-0.896414 2.367019 -0.155292
-0.958416 2.298348 0.437298
-0.894402 2.367030 -0.156284
-0.981433 2.362053 -0.043347
-0.952411 2.303075 0.486356
-0.796294 2.338357 0.019642
-0.876332 2.357404 -0.039278
-0.942267 2.331831 0.186593
-0.853251 2.333227 0.174648
-0.938223 2.334167 0.130624
-0.948236 2.370433 -0.093161
-0.840160 2.320178 0.189609
-0.946188 2.378072 -0.202102
-0.947207 2.380946 -0.181085
-0.771128 2.343766 -0.039219
-0.838094 2.346470 -0.032203
-0.832032 2.363189 -0.153064
-0.831029 2.365197 -0.154046
-0.914042 2.356222 -0.040129
-0.811945 2.351573 -0.038062
-0.878905 2.331991 0.186843
-0.870819 2.324345 0.130811
-0.880835 2.361600 -0.088969
-0.877777 2.368237 -0.195912
-0.877788 2.369119 -0.175906
-0.775710 2.340628 -0.029999
-0.846624 2.344400 -0.037954
-0.813404 2.348769 -0.084790
-0.813377 2.364400 -0.191681
-0.813389 2.365281 -0.171675
-0.784240 2.344559 -0.035699
-0.752025 2.349920 -0.081529
