# .PCD v0.7 - Point Cloud Data file format
VERSION 0.7
FIELDS x y z
SIZE 4 4 4
TYPE F F F
COUNT 1 1 1
WIDTH 31
HEIGHT 1
VIEWPOINT 0 0 0 1
POINTS 31
DATA ascii
4.418466 -1.351064 -0.271236
4.438883 -1.363773 -0.197202
4.421313 -1.359130 -0.355336
4.412977 -1.359403 -0.426434
4.324827 -1.365476 0.142676
4.099003 -1.355435 -0.196500
4.056481 -1.352174 -0.248888
4.095978 -1.367666 -0.181704
4.075544 -1.360837 -0.357837
4.038193 -1.352468 -0.325098
4.019780 -1.351900 -0.388286
3.953101 -1.354219 0.131084
3.788119 -1.357996 -0.180686
3.727499 -1.345883 -0.229130
3.717174 -1.348172 -0.300278
3.464110 -1.341592 -0.163713
3.437558 -1.340249 -0.211968
3.459260 -1.352356 -0.279935
3.220113 -1.330848 -0.033991
3.197285 -1.322719 -0.059107
3.181309 -1.325138 0.503781
3.206182 -1.330388 0.183908
3.198660 -1.329332 -0.094193
3.207218 -1.335645 -0.151207
3.205984 -1.345109 0.334717
3.203164 -1.337780 -0.142277
3.210370 -1.351942 0.410674
3.154489 -1.330995 0.382410
3.173437 -1.342311 0.510457
3.193050 -1.350976 0.223486
3.168945 -1.341938 0.116359
