# .PCD v0.7 - Point Cloud Data file format
VERSION 0.7
FIELDS x y z
SIZE 4 4 4
TYPE F F F
COUNT 1 1 1
WIDTH 13
HEIGHT 1
VIEWPOINT 0 0 0 1
POINTS 13
DATA ascii
-1.275647 -3.201526 1.396726
-1.318577 -3.104660 1.365232
-1.454773 -3.183191 1.332538
-1.506633 -3.108433 1.311912
-1.678697 -3.284137 1.301625
-1.705736 -3.250139 1.282836
-1.766639 -3.241370 1.276867
-1.652843 -3.141882 1.249457
-1.704502 -3.239325 1.287799
-1.726597 -3.198393 1.284075
-1.728788 -3.120211 1.250588
-1.779746 -3.094386 1.240735
-1.760573 -3.093549 1.258666
