# .PCD v0.7 - Point Cloud Data file format
VERSION 0.7
FIELDS x y z
SIZE 4 4 4
TYPE F F F
COUNT 1 1 1
WIDTH 107
HEIGHT 1
VIEWPOINT 0 0 0 1
POINTS 107
DATA ascii
-1.592690 2.224405 1.629775
-1.545223 2.263617 1.635788
-1.535056 2.131185 1.585429
-1.687972 3.041237 0.925928
-1.788618 3.127871 1.067211
-1.637863 3.119646 0.940148
-1.795529 3.109358 1.147316
-1.622452 3.124947 0.924739
-1.813000 3.082162 1.227232
-1.752352 3.202338 1.168515
-3.041120 5.342258 1.523574
-2.956473 5.490134 1.536729
-1.543578 3.528459 1.031803
-1.533647 3.544409 1.011355
-1.509624 3.525150 0.981877
-1.516319 3.532099 0.943051
-1.412632 4.119205 1.315977
-0.907945 3.526943 1.735803
-0.815220 3.739705 1.759803
-0.784381 3.354261 1.647547
-0.726188 3.761938 1.769013
-0.796857 3.252286 1.665042
-0.712340 3.405492 1.668677
-0.606236 3.581936 1.685650
-0.618015 3.815954 -0.276592
-0.740321 3.357602 1.711235
-0.649508 3.523147 1.720987
-0.647032 4.760903 -0.282657
-0.520081 3.767547 -0.266637
-0.532411 3.701186 1.741078
-0.589321 4.213373 1.838724
-0.564087 3.886175 -0.266498
-0.429732 3.763746 -0.260590
-0.492344 4.205952 1.832832
-0.468378 3.859639 -0.261498
-0.400943 4.255163 1.853112
-0.498314 3.905932 -0.252525
-0.372190 3.825069 -0.255545
-0.382999 4.397278 1.853057
-0.536630 3.943792 -0.257698
-0.401430 3.859381 -0.249648
-0.430991 3.849652 -0.253944
0.675499 1.555530 1.944179
0.639724 1.475535 1.940484
1.190718 2.594429 2.070586
0.671134 1.459862 1.945633
1.251240 2.564074 2.077888
1.453851 2.889897 2.082153
0.689288 1.543730 1.940149
0.909796 1.836258 2.473450
1.039229 2.201447 2.006268
1.250335 2.599637 2.072970
1.521098 2.864857 2.088524
1.091057 2.181701 2.011546
1.571570 3.076405 2.105917
1.313494 2.575386 2.082312
1.296871 2.371654 1.987188
1.265024 2.641967 2.079218
1.110934 2.322756 2.021370
1.133520 2.473953 2.020255
1.145626 2.166056 2.021860
1.648810 3.052801 2.114363
1.332665 2.626932 2.092639
1.298777 2.410383 1.979306
1.278040 2.699293 2.072525
1.175166 2.314581 2.034798
1.204821 2.466107 2.033739
1.353951 2.697652 2.093075
1.324385 2.471252 1.995730
1.232268 2.291030 2.039096
1.270816 2.445980 2.038132
1.612255 3.022625 2.365752
3.175618 1.619776 2.301471
3.208504 1.548360 2.298221
3.242301 1.477974 2.295979
3.163940 1.411456 2.357657
2.986784 1.175851 2.329100
2.902168 1.226463 2.241752
3.014341 1.106110 2.331835
2.945562 1.160363 2.251616
2.974280 1.087645 2.250336
1.760245 -1.143613 1.256671
1.737650 -1.186935 1.255187
1.831338 -1.178801 1.266806
1.838639 -1.197991 1.320719
1.938669 -1.220587 1.283159
2.042659 -1.290508 1.358384
1.706830 -1.223487 1.248693
1.802664 -1.220337 1.264292
1.796660 -1.229937 1.312181
1.893769 -1.254644 1.271587
2.033588 -1.353553 1.374870
1.677065 -1.262002 1.243206
1.768875 -1.258003 1.257783
1.760818 -1.266691 1.308662
1.859028 -1.294366 1.267053
2.039823 -1.428128 1.401359
1.730941 -1.291775 1.249253
1.717722 -1.295619 1.299131
2.007315 -1.369025 1.303437
1.822222 -1.333151 1.262496
2.083913 -1.533609 1.455894
1.695044 -1.327479 1.242724
2.091100 -1.498288 1.378074
1.786392 -1.371888 1.258946
1.992146 -1.541104 1.421177
2.099477 -1.579820 1.406528
