# .PCD v0.7 - Point Cloud Data file format
VERSION 0.7
FIELDS x y z
SIZE 4 4 4
TYPE F F F
COUNT 1 1 1
WIDTH 29
HEIGHT 1
VIEWPOINT 0 0 0 1
POINTS 29
DATA ascii
0.934643 -1.660528 2.256091
1.012858 -1.699257 2.221899
0.966205 -1.703096 2.199063
0.954231 -1.687628 2.271190
0.922457 -1.832180 2.071239
1.004561 -1.708154 2.207196
0.941576 -1.745310 2.225935
0.890573 -1.662197 2.208562
0.998823 -2.055482 2.249734
0.881838 -1.854170 2.065265
0.910933 -1.777439 2.239876
0.962924 -1.724139 2.201264
0.937158 -2.037189 2.205046
0.850221 -1.893303 2.079160
0.838267 -1.731894 2.159387
0.937298 -1.767376 2.230130
0.907352 -1.875204 2.067354
0.950430 -1.820004 2.178802
0.907671 -1.805586 2.255031
0.863728 -1.891191 2.060417
0.911806 -1.845088 2.185801
0.810989 -1.711638 2.116883
0.881187 -1.886330 2.214681
0.950163 -1.818041 2.179179
0.826553 -1.879173 2.186908
0.910539 -1.841128 2.186191
0.915894 -1.936959 2.160648
0.880921 -1.884407 2.220055
0.869286 -1.954017 2.162706
