# .PCD v0.7 - Point Cloud Data file format
VERSION 0.7
FIELDS x y z
SIZE 4 4 4
TYPE F F F
COUNT 1 1 1
WIDTH 33
HEIGHT 1
VIEWPOINT 0 0 0 1
POINTS 33
DATA ascii
-0.642344 1.926146 1.660057
-0.639385 1.944345 1.720980
-0.621485 2.014346 1.722581
-0.587170 1.941481 1.709293
-0.637500 1.902964 1.665316
-0.578161 2.032489 1.726969
-0.616692 1.993139 1.724852
-0.659185 2.598786 1.720758
-0.658351 2.275526 1.646793
-0.653186 2.630622 1.665606
-0.571456 2.009262 1.722225
-0.595807 2.613026 1.722911
-0.621378 2.767903 1.740902
-0.635487 2.398751 1.721245
-0.659608 2.682359 1.674970
-0.584166 2.420933 1.725540
-0.559066 2.781132 1.740081
-0.620940 2.805617 1.735232
-0.561575 2.844854 1.746405
-0.637399 1.895620 1.720993
-0.627472 1.895788 1.703935
-0.574296 1.884884 1.680481
-0.656394 2.214353 1.727268
-0.714471 2.487699 1.782187
-0.595333 2.187572 1.693572
-0.612079 2.352705 1.678835
-0.569362 2.281726 1.750675
-0.707271 2.829208 1.805645
-0.690363 2.768233 1.801749
-0.584899 2.473637 1.753291
-0.586918 2.631182 1.703379
-0.606692 2.716019 1.718607
-0.559763 2.815283 1.762683
