# .PCD v0.7 - Point Cloud Data file format
VERSION 0.7
FIELDS x y z
SIZE 4 4 4
TYPE F F F
COUNT 1 1 1
WIDTH 28
HEIGHT 1
VIEWPOINT 0 0 0 1
POINTS 28
DATA ascii
2.030497 2.464674 1.638181
2.023531 2.344765 1.596194
2.038052 2.499632 1.626344
2.095402 2.314320 1.614038
2.026165 2.372712 1.578288
2.177152 2.292925 1.639958
2.037053 2.507543 1.603275
2.168077 2.417712 1.643836
2.172996 2.185989 1.606043
2.049866 2.656448 1.619375
2.141537 2.509342 1.637416
2.182773 2.322930 1.618052
2.130743 2.628141 1.631239
2.189847 2.445799 1.630935
2.193878 2.578722 1.630893
2.183797 2.329907 1.588941
1.967364 2.103316 1.600809
1.943385 1.861055 1.588846
2.095397 2.388342 1.649193
2.184012 2.448839 1.581783
2.084630 2.122145 1.649067
2.049722 1.871770 1.636014
2.104244 2.283592 1.610302
2.092282 2.031340 1.616274
2.086850 1.820091 1.631569
2.118960 2.188864 1.577487
2.092932 1.939477 1.581453
2.080425 1.733159 1.595770
