# .PCD v0.7 - Point Cloud Data file format
VERSION 0.7
FIELDS x y z
SIZE 4 4 4
TYPE F F F
COUNT 1 1 1
WIDTH 370
HEIGHT 1
VIEWPOINT 0 0 0 1
POINTS 370
DATA ascii
1.395502 1.751169 1.237268
1.393571 1.745250 1.164176
1.333691 1.742940 1.175147
1.457888 1.738218 1.250200
1.458925 1.739241 1.181210
1.492071 1.768093 0.859632
1.398035 1.738898 1.194207
1.343074 1.745739 1.195296
1.544212 1.753067 1.213553
1.555167 1.759997 1.288673
1.468359 1.766122 0.923680
1.573432 1.771129 0.875819
1.479315 1.752714 1.226545
1.405424 1.738680 1.215315
1.610630 1.782640 0.713027
1.449647 1.760272 0.980668
1.630509 1.762930 1.243845
1.540722 1.763150 0.938772
1.635504 1.759910 1.314820
1.664766 1.781106 0.898121
1.544669 1.743682 1.245545
1.675022 1.788800 0.511208
1.494671 1.761404 1.255792
1.695122 1.800847 0.375395
1.428835 1.759323 1.043707
1.688013 1.777701 0.726103
1.592022 1.775388 0.729013
1.410858 1.724550 1.230219
1.517983 1.758262 0.997770
1.704852 1.756882 1.265904
1.636010 1.782068 0.966207
1.720850 1.758829 1.341967
1.760522 1.806912 0.178578
1.631965 1.753495 1.279844
1.754134 1.782112 0.918302
1.781347 1.808901 0.526675
1.569371 1.775778 0.631070
1.659385 1.783759 0.581238
1.555040 1.746391 1.272706
1.495154 1.758295 1.061820
1.770552 1.789016 0.379376
1.583342 1.778277 0.737139
1.786329 1.791719 0.746475
1.671379 1.775412 0.745164
1.513076 1.758140 1.282873
1.607267 1.774167 1.025156
1.785189 1.752810 1.291004
1.836886 1.814537 0.081814
1.712376 1.776085 0.983272
1.812172 1.761691 1.374175
1.561620 1.776818 0.697158
1.735805 1.793620 0.400493
1.707289 1.750406 1.304944
1.855930 1.810151 0.180794
1.843499 1.781132 0.937453
1.647731 1.776849 0.643229
1.588387 1.784108 1.096343
1.763688 1.805825 0.598725
1.582669 1.779172 0.746234
1.755965 1.799752 0.257599
1.643324 1.758163 1.310031
1.862780 1.797035 0.534664
1.657718 1.773285 0.753210
1.894852 1.821183 0.393031
1.877686 1.793760 0.763668
1.770691 1.791387 0.768561
1.577426 1.748049 1.305858
1.899241 1.823226 -0.091977
1.680615 1.770157 1.043237
1.703051 1.794417 0.408546
1.876506 1.755679 1.322211
1.805701 1.784027 1.008550
1.636968 1.777866 0.710316
1.907500 1.763551 1.407381
1.849121 1.818756 0.414040
1.788625 1.747278 1.334060
1.963311 1.821402 0.184142
1.648751 1.770138 1.109271
1.749022 1.798864 0.663715
1.943854 1.785109 0.961695
1.654047 1.772171 0.762278
1.838118 1.790941 0.606667
1.721657 1.755013 1.340141
1.678274 1.798553 0.394643
1.678266 1.797236 0.416627
1.856465 1.810069 0.116912
1.959173 1.797163 0.545846
1.762002 1.796215 0.780715
1.755360 1.794724 0.328643
1.985268 1.815344 0.400122
1.850076 1.783424 0.783606
1.658732 1.751834 1.341068
1.980038 1.799789 0.783940
1.998681 1.823554 -0.096788
1.764933 1.774093 1.067453
1.792592 1.808597 0.136881
1.786421 1.795515 0.418721
1.895720 1.812876 -0.000987
1.967837 1.753538 1.354360
1.811703 1.812528 0.075964
1.893053 1.782015 1.029691
1.725274 1.789865 0.729647
2.052675 1.834145 0.080468
1.996857 1.755457 1.436448
1.874938 1.747122 1.366227
1.729048 1.775050 1.134494
1.926550 1.804882 0.421004
1.822416 1.787951 0.673713
2.062740 1.818646 0.186293
1.756328 1.794068 0.791769
1.754642 1.796674 0.401766
1.958959 1.829453 -0.098656
1.804978 1.753837 1.373290
1.937470 1.798024 0.621952
2.047209 1.787083 0.986919
1.753655 1.791298 0.427695
1.949735 1.811149 0.268117
1.969823 1.828347 0.119369
1.863677 1.816900 0.338145
1.839386 1.787234 0.796747
1.863025 1.819981 -0.084853
1.860009 1.816512 -0.052902
2.071543 1.805279 0.561167
2.081680 1.810522 0.407241
1.731079 1.742715 1.368092
1.952401 1.793410 0.806936
2.082394 1.801819 0.804163
1.843290 1.767088 1.086515
1.884985 1.811791 0.141102
1.883779 1.803609 0.432017
1.808045 1.805402 0.152964
2.064164 1.751401 1.387521
1.895119 1.807751 0.076063
1.801628 1.785919 0.742746
1.818075 1.806271 0.163996
1.984407 1.778988 1.052831
1.809363 1.774980 1.158654
1.959276 1.739995 1.396303
2.103176 1.757255 1.476681
2.029916 1.811009 0.433285
1.912767 1.790013 0.688918
1.847986 1.805800 0.412070
1.834700 1.787047 0.810832
1.880325 1.742742 1.399297
2.172154 1.819904 0.189519
1.868938 1.820356 0.447306
2.033846 1.797115 0.636129
1.862349 1.817869 -0.008780
2.047136 1.810350 0.273296
1.939702 1.797187 0.822076
2.152576 1.785066 1.012099
1.943094 1.806056 0.343158
1.867419 1.818713 -0.066764
2.068234 1.827584 0.121549
1.961394 1.825804 -0.054582
1.962426 1.826294 -0.088577
1.870377 1.818876 -0.007750
2.187915 1.811394 0.577472
2.193051 1.815699 0.417524
2.055741 1.798403 0.830205
2.187767 1.799848 0.825343
1.935602 1.771008 1.113752
1.988357 1.821000 0.146425
1.977151 1.804709 0.444216
2.100536 1.820487 -0.005491
1.920370 1.828636 0.158491
2.159503 1.744279 1.419620
1.892953 1.791944 0.761009
2.009473 1.826043 0.077527
1.930402 1.828477 0.171510
2.085739 1.780933 1.080059
1.891676 1.773919 1.182807
2.058578 1.741784 1.435528
2.136284 1.815144 0.445548
2.018089 1.801060 0.708273
1.927027 1.790995 0.835071
1.936363 1.804927 0.421236
1.976608 1.747479 1.441557
1.941353 1.804442 0.456243
2.147188 1.806197 0.654472
2.295556 1.826186 0.193840
2.044462 1.811229 0.351427
2.035056 1.796160 0.845255
1.964808 1.824979 -0.067488
2.153530 1.812577 0.278535
2.056813 1.824066 -0.055416
2.263930 1.784039 1.039306
2.173644 1.827841 0.123759
2.161092 1.799390 0.854428
2.293327 1.803538 0.589578
2.310440 1.817879 0.428782
2.032909 1.774916 1.143001
2.298125 1.798877 0.847549
2.086760 1.820196 0.151612
2.087499 1.814814 0.459569
2.005765 1.823826 0.161600
1.983283 1.793983 0.778219
2.205956 1.819793 -0.007291
2.270807 1.745063 1.461856
2.104889 1.822284 0.078669
1.986944 1.782780 1.215119
2.027774 1.832644 0.178760
2.185092 1.775905 1.105196
2.156897 1.737591 1.473678
2.366995 1.816018 0.078841
2.105468 1.792132 0.722335
2.246665 1.816293 0.457784
2.032714 1.809063 0.431486
2.027354 1.795926 0.862342
2.063943 1.738312 1.475621
2.046687 1.814506 0.473588
2.252564 1.803288 0.670647
2.058210 1.824221 -0.067308
2.140387 1.800120 0.871522
2.139860 1.806402 0.358559
2.416968 1.826478 0.197084
2.271903 1.819808 0.285866
2.270433 1.800376 0.879663
2.122250 1.767877 1.167095
2.435821 1.821083 0.440073
2.415710 1.803659 0.606824
2.421475 1.800903 0.872822
2.197135 1.826426 0.156916
2.186877 1.811919 0.472735
2.074619 1.793012 0.796396
2.097169 1.819033 0.164725
2.071271 1.775716 1.240204
2.118194 1.823792 0.185831
2.303408 1.780805 1.139502
2.214810 1.796196 0.741613
2.126079 1.807206 0.440655
2.488437 1.811359 0.078025
2.365033 1.819437 0.472065
2.128677 1.798861 0.889591
2.152033 1.819571 0.490872
2.148547 1.819620 -0.008176
2.440157 1.744688 1.600206
2.243731 1.798091 0.896710
2.256216 1.814590 0.368903
2.360950 1.797389 0.686794
2.155583 1.817539 -0.001187
2.377326 1.811033 0.290968
2.228558 1.769775 1.199343
2.376799 1.793386 0.902793
2.557235 1.814277 0.451231
2.172953 1.793049 0.815603
2.306534 1.825654 0.162131
2.193563 1.815239 0.168876
2.294262 1.809033 0.486921
2.165576 1.773625 1.269377
2.462517 1.711857 1.524833
2.216581 1.820964 0.192999
2.303730 1.809803 0.079917
2.360524 1.724191 1.552937
2.236425 1.813354 0.452965
2.323159 1.795244 0.761828
2.228021 1.794809 0.915750
2.488412 1.819596 0.486321
2.257394 1.819653 0.507094
2.362047 1.803036 0.927022
2.363605 1.810783 0.377079
2.477321 1.793486 0.704986
2.512703 1.818298 0.299340
2.506906 1.813647 0.131256
2.606068 1.753004 1.120614
2.275279 1.793070 0.836821
2.258888 1.767535 1.298501
2.316916 1.827520 0.173292
2.423591 1.820153 0.505333
2.330950 1.825151 0.202294
2.624731 1.731415 1.594421
2.425125 1.813116 0.081214
2.340793 1.810502 0.464151
2.451883 1.703061 1.585870
2.436501 1.794309 0.782057
2.344336 1.798709 0.949049
2.364767 1.815728 0.524273
2.486970 1.813993 0.387380
2.704761 1.737122 1.705668
2.387599 1.795094 0.860089
2.771357 1.764860 1.168110
2.789603 1.772993 0.948231
2.537977 1.813262 0.521489
2.448327 1.826348 0.211560
2.752046 1.721181 1.642565
2.461139 1.814666 0.477462
2.609078 1.722584 1.657455
2.480119 1.814799 0.543510
2.557514 1.755489 1.297872
2.853045 1.733789 1.765943
2.738870 1.772354 0.986296
2.950713 1.796711 0.214805
2.946933 1.773999 0.982576
2.997409 1.808966 0.493075
2.969278 1.784229 0.683726
2.897332 1.715863 1.700812
2.797727 1.762461 1.279323
2.731381 1.711300 1.708584
2.859621 1.789087 0.528726
2.703113 1.774924 1.012407
2.906154 1.783279 1.028792
3.166796 1.806215 0.510398
3.142652 1.782391 0.709071
3.056597 1.712506 1.765116
2.797577 1.772505 0.847571
2.873647 1.706937 1.769845
2.687344 1.778484 1.043552
3.052927 1.808279 0.555378
2.872374 1.789789 1.059963
2.826084 1.754167 1.384450
2.695057 1.748004 1.442226
3.065331 1.795402 0.332231
2.920123 1.788640 0.575017
3.360164 1.808491 0.530837
3.323031 1.776548 0.736386
3.094369 1.747225 1.365786
2.822647 1.776367 1.082831
2.853205 1.798045 0.605127
3.210313 1.799472 0.574613
3.033492 1.801921 0.433418
2.997739 1.771744 1.092022
2.958405 1.742050 1.424599
2.834311 1.749796 1.490564
2.868916 1.777205 0.959935
3.237726 1.792747 0.342574
3.091457 1.793776 0.601460
2.952901 1.802202 0.251374
3.543360 1.782707 0.771935
2.951987 1.763267 1.119965
3.284628 1.752009 1.425266
3.031495 1.813133 0.636711
3.196856 1.800179 0.448760
3.137627 1.751764 1.487121
2.974572 1.746583 1.539846
3.403663 1.801698 0.599063
3.434101 1.795118 0.356033
3.267796 1.794929 0.627867
3.117265 1.804479 0.264772
3.118954 1.792597 0.548654
3.165879 1.796227 0.658812
3.363290 1.779477 1.193937
3.605022 1.798922 0.625474
3.452142 1.792094 0.655248
3.307266 1.801835 0.571193
3.494810 1.781698 0.987244
3.302511 1.770896 1.226861
3.350189 1.800325 0.691282
3.553622 1.786782 0.479400
3.497593 1.804081 0.593655
3.553489 1.805424 0.727809
2.271830 -0.722038 2.546059
2.270839 -0.722005 2.543058
2.248266 -0.770897 2.537676
2.253255 -0.772964 2.544669
2.230682 -0.821855 2.539292
2.224701 -0.820799 2.533292
2.151477 -0.689626 2.503630
2.231451 -0.716886 2.544556
2.197128 -0.866658 2.523936
2.198128 -0.867677 2.525931
2.129877 -0.732500 2.496303
2.202893 -0.760635 2.525208
2.167563 -0.912509 2.513584
2.155596 -0.909411 2.502593
2.197285 -0.812624 2.531840
2.131006 -0.954300 2.496258
2.124025 -0.953269 2.492258
2.185687 -0.862559 2.532482
2.156124 -0.905324 2.514154
2.123562 -0.946077 2.493842
