# .PCD v0.7 - Point Cloud Data file format
VERSION 0.7
FIELDS x y z
SIZE 4 4 4
TYPE F F F
COUNT 1 1 1
WIDTH 39
HEIGHT 1
VIEWPOINT 0 0 0 1
POINTS 39
DATA ascii
1.679300 -2.891548 2.327973
1.724561 -3.114301 2.476596
1.526105 -2.903609 2.281981
-0.084542 -1.537953 1.745424
-0.138184 -1.892445 2.156590
-0.177913 -1.891894 2.165385
-0.099680 -1.552400 1.755073
-0.215714 -1.870166 2.152347
-0.149597 -1.810058 2.049919
-0.250569 -1.829243 2.116465
-0.642283 -4.477546 1.277057
-0.122717 -1.621306 1.821302
-0.734511 -4.394104 1.265165
-0.778789 -4.471985 1.210358
-0.580512 -4.388531 1.311467
-0.663901 -4.273922 1.285868
-0.540709 -4.311641 1.344792
-0.522370 -2.283745 1.000717
-0.540660 -2.245446 1.071913
-0.621119 -4.190965 1.313270
-0.890981 -4.617475 1.159102
-0.628746 -2.376641 1.144513
-0.577180 -4.133917 1.330516
-0.521568 -2.301503 0.958327
-0.462349 -2.280715 0.902560
-0.602704 -2.418480 1.010050
-0.571799 -2.289171 1.120182
-0.541640 -2.253052 1.119394
-0.466678 -2.292437 0.856242
-0.618899 -2.351057 1.175273
-0.569009 -2.264502 1.137977
-1.074250 -2.756695 1.260579
-1.024265 -2.620992 1.333838
-0.964021 -2.592637 1.325042
-0.996424 -2.595164 1.345649
-1.245552 -2.935574 1.202869
-1.449102 -3.277223 1.128280
-1.412741 -3.282068 1.129114
-1.375582 -3.170577 1.212173
