# .PCD v0.7 - Point Cloud Data file format
VERSION 0.7
FIELDS x y z
SIZE 4 4 4
TYPE F F F
COUNT 1 1 1
WIDTH 61
HEIGHT 1
VIEWPOINT 0 0 0 1
POINTS 61
DATA ascii
3.627943 -2.521824 0.522451
3.667161 -2.578292 0.808493
3.646295 -2.583754 1.092714
3.443118 -2.512539 0.500737
3.534799 -2.606657 1.406858
3.480268 -2.564942 0.783839
3.457229 -2.568089 1.049106
3.345646 -2.582886 1.357329
3.617790 -2.575107 0.674416
3.299369 -2.546584 0.758166
3.310050 -2.580073 1.690807
3.587496 -2.578919 1.047765
3.269175 -2.546437 1.005548
3.457417 -2.515912 0.464810
3.729176 -2.543174 0.556685
3.528300 -2.607514 1.280218
3.175564 -2.565239 1.315523
3.415930 -2.551804 0.650988
3.137777 -2.561063 1.627040
3.397474 -2.560334 1.008155
3.114212 -2.541927 0.971444
3.376220 -2.585697 1.679228
3.281642 -2.505719 0.447964
3.337228 -2.586855 1.236641
3.535399 -2.534982 0.539981
3.570598 -2.575997 0.996245
3.028554 -2.558710 1.281344
3.220091 -2.524539 0.629533
2.982585 -2.548194 1.572017
3.219493 -2.545798 0.971375
3.517810 -2.589454 1.155744
3.486287 -2.593214 1.660111
3.207016 -2.574799 1.622310
3.154174 -2.562236 1.195013
3.189015 -2.600137 1.906315
3.302807 -2.496941 0.400988
3.374621 -2.556476 0.959672
3.331814 -2.575900 1.118005
3.301069 -2.575289 1.600401
3.038811 -2.554902 1.564468
3.032818 -2.590287 1.853240
3.189666 -2.535991 0.924988
3.550828 -2.579037 0.942953
3.230475 -2.597188 1.792035
3.509479 -2.588328 1.027343
3.149839 -2.557387 1.082270
3.129909 -2.560460 1.546508
2.883636 -2.577462 1.801114
3.422241 -2.598764 1.581273
3.356909 -2.562606 0.911280
3.279556 -2.511785 0.393562
3.063297 -2.583345 1.738089
3.306528 -2.565839 0.991826
2.965782 -2.543685 1.495556
3.272056 -2.607179 1.675901
3.228056 -2.572886 1.522688
3.178017 -2.548222 0.882426
2.903139 -2.567527 1.685084
3.065984 -2.563208 1.477606
3.088901 -2.588335 1.620135
2.914780 -2.567541 1.567286
