# .PCD v0.7 - Point Cloud Data file format
VERSION 0.7
FIELDS x y z
SIZE 4 4 4
TYPE F F F
COUNT 1 1 1
WIDTH 570
HEIGHT 1
VIEWPOINT 0 0 0 1
POINTS 570
DATA ascii
0.582720 1.943006 0.742180
0.624018 1.961579 0.949654
0.676442 1.958726 0.954230
0.584471 1.944777 0.737825
0.681108 1.944765 0.597262
0.684473 1.945322 0.753304
0.594955 1.945089 0.642937
0.704852 1.956318 0.441518
0.731861 1.957879 0.959827
0.628025 1.923906 0.736288
0.736805 1.949875 0.291855
0.745375 1.966982 0.607964
0.744723 1.964505 0.765961
0.648314 1.951260 0.649524
0.756335 1.948495 0.443069
0.687016 1.959303 1.010961
0.680348 1.931056 0.745864
0.789270 1.958030 0.967441
0.699562 1.960093 0.436078
0.790291 1.944073 0.292426
0.793191 1.953642 0.768475
0.798862 1.959152 0.609532
0.710568 1.973458 0.661212
0.712022 1.961406 0.349211
0.811765 1.963521 0.178657
0.810741 1.949682 0.446651
0.580746 1.944462 0.708740
0.827607 1.949993 0.041817
0.586671 1.947412 0.731809
0.738424 1.955428 1.017515
0.844940 1.963307 -0.032998
0.747474 1.966247 0.766609
0.844700 1.954172 0.973030
0.748062 1.947248 0.438595
0.844630 1.946784 0.773021
0.859555 1.971343 0.298170
0.761033 1.965613 0.662752
0.857268 1.961336 0.615153
0.761504 1.952579 0.349740
0.864263 1.954715 0.179211
0.873071 1.962898 0.453315
0.889646 1.972822 -0.135527
0.634106 1.948605 0.719332
0.636982 1.954551 0.741369
0.791386 1.963240 0.178060
0.884080 1.948223 0.040415
0.792789 1.956554 1.027100
0.793966 1.951371 0.768102
0.800811 1.960511 0.103157
0.799507 1.942417 0.441147
0.897055 1.940923 0.778574
0.905070 1.957318 0.983668
0.914066 1.961533 0.298741
0.813498 1.957765 0.666310
0.919650 1.967530 0.621811
0.822849 1.965801 0.354403
0.930593 1.972983 0.180913
0.928503 1.960078 0.456898
0.933319 1.956113 -0.174072
0.686729 1.966795 0.406912
0.950423 1.977335 -0.214891
0.938247 1.951010 -0.137020
0.690300 1.962696 0.750960
0.684527 1.943736 0.726881
0.846814 1.963444 0.180652
0.955402 1.972533 0.039168
0.848189 1.954682 1.034691
0.947626 1.951836 1.168119
0.848362 1.949510 0.776683
0.854276 1.956717 0.102726
0.959906 1.958786 -0.037790
0.864762 1.964634 0.451852
0.954429 1.942073 0.787177
0.865875 1.960167 -0.021153
0.970403 1.965474 0.997353
0.867921 1.954921 0.670889
0.978469 1.968767 0.301416
0.976114 1.960694 0.625400
0.876322 1.958980 0.355969
0.985106 1.962175 0.181480
0.984942 1.956256 0.460486
0.900499 1.978717 -0.141784
0.996771 1.962400 -0.179410
0.737196 1.957946 0.412455
0.899686 1.966763 -0.159797
0.739703 1.958827 0.756495
0.999707 1.954280 -0.141379
1.005985 1.965572 -0.219315
0.743805 1.957884 0.742538
0.893385 1.941595 0.181139
0.896504 1.943444 -0.072836
1.013916 1.965759 0.037775
0.908505 1.961814 1.048333
0.749244 1.946864 0.446579
0.900791 1.942638 0.783237
0.906779 1.946907 0.103280
1.032253 1.980103 -0.040036
1.014780 1.946231 0.796805
0.920190 1.961805 0.456437
0.927309 1.965417 -0.021502
1.029803 1.962605 1.006968
0.928267 1.962093 0.679530
0.935719 1.963181 0.359598
1.024741 1.932816 0.623902
1.050305 1.964467 0.467163
0.779630 1.939777 0.201896
0.944117 1.949868 -0.141333
0.783708 1.941078 0.415948
1.067166 1.978726 -0.185682
0.791069 1.958957 0.764051
0.951259 1.949964 -0.161259
1.071417 1.973869 -0.224640
0.796229 1.952008 0.751102
1.075082 1.975624 -0.146600
0.966643 1.970881 0.185919
0.805806 1.963031 0.161192
0.960908 1.954718 -0.075153
1.076378 1.966004 0.036418
0.809533 1.964061 0.454243
0.968828 1.966940 1.061969
0.954220 1.935766 0.789799
0.974126 1.964177 0.103993
1.090769 1.972333 -0.042436
1.073187 1.942372 0.805408
0.976621 1.957972 0.462029
0.976850 1.948593 -0.020986
0.828569 1.965580 0.024434
1.094165 1.964746 1.019630
0.985707 1.957246 0.685131
0.993167 1.959364 0.363199
1.103946 1.962061 0.638718
1.108753 1.958639 0.471762
0.837007 1.946980 0.205520
0.840500 1.951079 0.768579
1.010521 1.962158 -0.144635
0.846987 1.959271 0.427641
1.130665 1.976996 -0.190034
1.009736 1.948206 -0.163647
0.858939 1.969829 -0.013239
1.134922 1.972145 -0.229992
0.847672 1.943123 0.758651
1.134586 1.969868 -0.149993
1.033233 1.979038 -0.078393
0.859958 1.958207 0.458781
1.015522 1.943912 0.803442
1.025238 1.961051 1.070555
1.140853 1.965253 0.035076
1.033057 1.953136 0.466616
1.145435 1.959557 0.822146
1.156235 1.973595 -0.044770
1.051165 1.973909 -0.022207
1.044111 1.955399 0.691738
1.159568 1.962885 1.030295
1.053611 1.957559 0.365827
1.164432 1.952219 0.643333
1.172441 1.961850 0.184401
0.903273 1.971223 0.211242
0.888936 1.941191 0.773092
0.903356 1.962436 0.435246
1.079913 1.976458 -0.147914
1.198144 1.979287 -0.195351
1.084095 1.970541 -0.168873
0.903044 1.942243 0.770243
0.916333 1.961375 0.464384
1.204052 1.974161 -0.154291
1.091725 1.973263 -0.079791
1.072926 1.939037 0.813037
1.089532 1.968174 1.087221
1.202341 1.959477 0.034698
1.207815 1.957699 0.832776
1.094461 1.953314 0.473251
1.218737 1.967836 -0.047140
0.936484 1.956970 0.027582
1.113628 1.973146 -0.022564
1.108483 1.958564 0.701402
1.222002 1.955005 1.039924
1.117007 1.960760 0.370480
0.947224 1.950327 0.785717
0.953762 1.959383 0.212772
1.236775 1.960415 0.655061
1.237910 1.959078 0.185059
1.247470 1.974068 0.486162
0.958783 1.957584 0.442832
1.141395 1.973704 -0.150284
0.959933 1.945168 -0.007177
1.147557 1.971803 -0.172222
0.971469 1.966010 1.181993
0.959423 1.940360 0.781842
0.970730 1.959528 0.469959
0.978018 1.968605 0.177031
1.243409 1.939338 1.235144
1.145992 1.962490 0.192771
0.981273 1.967579 -0.093944
1.152222 1.967493 -0.081173
1.272542 1.974447 -0.159606
1.139232 1.947188 0.827719
0.977295 1.955502 -0.079991
1.148947 1.961281 1.096828
1.274778 1.964753 0.034422
1.167421 1.973890 0.105988
1.269235 1.950833 0.841390
1.143019 1.929426 0.475746
1.287227 1.966100 -0.049457
1.000850 1.969214 0.029266
1.175101 1.969373 -0.022938
1.170897 1.955718 0.709039
1.290394 1.952134 1.053606
1.002568 1.951450 0.795302
1.165598 1.934886 0.369973
1.304700 1.964851 0.315726
1.307347 1.960317 0.186749
1.305976 1.959220 0.489744
1.313116 1.969623 0.666819
1.016182 1.955734 0.451435
1.205877 1.971958 -0.152630
1.035198 1.975468 -0.004372
1.213019 1.973070 -0.175559
1.028126 1.958685 0.476562
1.017788 1.939473 0.795457
1.308725 1.939435 1.252793
1.206453 1.956684 0.195384
1.047622 1.982843 -0.093242
1.201594 1.946316 0.840353
1.218683 1.968753 -0.083499
1.336448 1.965999 -0.246977
1.352952 1.988793 -0.164813
1.212296 1.960388 1.111470
1.044672 1.968767 -0.079278
1.352185 1.975054 0.033185
1.222959 1.958069 0.105548
1.340544 1.956992 0.857095
1.221260 1.952663 0.488542
1.057292 1.965406 0.031855
1.371600 1.985455 -0.053628
1.245518 1.976647 -0.024227
1.238248 1.959883 0.719720
1.059921 1.951571 0.805902
1.251789 1.969179 0.380847
1.375601 1.971305 1.079443
1.364263 1.946020 0.316313
1.380338 1.965436 0.498474
1.378787 1.960557 0.189451
1.073604 1.950881 0.459033
1.382554 1.964796 0.674500
1.273340 1.973228 -0.155952
1.094637 1.973673 -0.001755
1.078136 1.940591 0.809088
1.281489 1.974344 -0.178872
1.409624 1.979167 -0.211261
1.276844 1.962921 0.199092
1.104122 1.973038 -0.091660
1.268936 1.948453 0.855031
1.287134 1.971019 -0.085813
1.107109 1.969994 -0.077629
1.281620 1.963507 1.128166
1.408953 1.965302 -0.253268
1.289397 1.958300 0.106214
1.421682 1.969298 0.032863
1.407941 1.952130 0.868754
1.292607 1.959862 0.498257
1.117739 1.963614 0.033482
1.442081 1.982720 -0.055943
1.309020 1.968869 -0.024594
1.119254 1.953693 0.817518
1.309590 1.965053 0.732433
1.132967 1.963957 0.224645
1.318243 1.964369 0.385509
1.455708 1.969649 0.507205
1.448620 1.959300 0.322132
1.460175 1.970846 0.191239
1.458945 1.965987 0.685241
1.143931 1.953996 0.487763
1.156075 1.971878 0.001878
1.148387 1.953722 0.830819
1.156288 1.962147 0.193883
1.477169 1.969432 -0.216608
1.325429 1.935039 0.200574
1.162593 1.966236 -0.089060
1.338262 1.951591 0.870720
1.164577 1.963191 -0.076040
1.356607 1.970281 -0.088124
1.346002 1.957605 1.141805
1.483448 1.965616 -0.260548
1.487037 1.968302 -0.172512
1.365789 1.967572 0.107971
1.360003 1.959040 0.505925
1.179171 1.962824 0.035113
1.498171 1.967573 0.031600
1.514583 1.977990 -0.059246
1.174653 1.946803 0.825086
1.388399 1.982173 -0.024810
1.373030 1.956189 0.740059
1.190413 1.957125 0.228232
1.391618 1.969587 0.392233
1.523195 1.957821 0.511852
1.532633 1.967080 0.192933
1.528037 1.961543 0.327893
1.213221 1.967185 0.498475
1.218522 1.969085 0.004515
1.205795 1.944816 0.842404
1.215735 1.955315 0.199489
1.229997 1.972484 -0.088370
1.406611 1.950719 0.885392
1.416713 1.961362 0.206473
1.550694 1.963721 -0.221906
1.228022 1.962416 -0.075393
1.436026 1.979590 -0.090347
1.560580 1.960584 -0.177810
1.431282 1.958782 0.108612
1.432385 1.960227 0.515634
1.244598 1.964046 0.036779
1.579620 1.970870 0.030374
1.238967 1.950929 0.838742
1.461864 1.981435 -0.025094
1.602014 1.987331 -0.062418
1.451345 1.964371 0.754824
1.254826 1.957321 0.231886
1.258036 1.961378 1.258950
1.465046 1.968800 0.396947
1.275626 1.969392 0.494107
1.274617 1.964339 0.505096
1.607544 1.965055 0.522650
1.607108 1.961316 0.194638
1.606486 1.958775 0.332635
1.282956 1.967293 0.008166
1.471862 1.951962 -0.163002
1.277080 1.952942 0.862128
1.292037 1.972559 0.207264
1.294440 1.970706 -0.086721
1.490977 1.964148 -0.188818
1.294439 1.964648 -0.073722
1.490136 1.961591 0.210184
1.517454 1.987906 -0.093560
1.644051 1.963916 -0.183026
1.312006 1.967275 0.038458
1.495853 1.947370 0.522247
1.513689 1.968066 0.110415
1.308249 1.960060 0.855449
1.662100 1.971160 0.029153
1.536347 1.979695 -0.026373
1.522763 1.959517 0.765516
1.324228 1.961529 0.236589
1.340026 1.966534 0.504753
1.332075 1.953465 0.510671
1.346405 1.963487 0.011801
1.699507 1.971622 0.198498
1.696878 1.967051 0.339477
1.342434 1.951036 0.879782
1.559292 1.965311 -0.168164
1.372832 1.983990 -0.085937
1.566460 1.964433 -0.193097
1.368850 1.973916 -0.073979
1.572536 1.968850 0.214971
1.365644 1.951155 0.865008
1.384428 1.972515 0.040175
1.587137 1.965615 0.537115
1.592142 1.968324 0.111151
1.751545 1.975473 0.028966
1.397568 1.971754 0.242308
1.610831 1.974944 -0.026678
1.604991 1.951157 0.407275
1.409362 1.967667 0.522429
1.413380 1.970704 0.517469
1.423785 1.973749 0.014556
1.784964 1.969888 0.201270
1.428863 1.971939 0.220610
1.411778 1.950142 0.897457
1.642754 1.969627 -0.172387
1.441277 1.982215 -0.084275
1.439308 1.972146 -0.072297
1.645954 1.963733 -0.198359
1.646987 1.964066 0.218661
1.655524 1.964362 -0.097268
1.436956 1.955284 0.880701
1.455855 1.973745 0.041866
1.676575 1.971599 0.112932
1.457068 1.956905 0.244878
1.839024 1.973771 0.027749
1.836628 1.959137 -0.071276
1.462871 1.946769 0.525937
1.476816 1.959824 0.528076
1.497217 1.973976 0.018261
1.487367 1.954069 0.226166
1.514718 1.982456 -0.082572
1.511767 1.970384 -0.071604
1.734391 1.968327 0.224463
1.738023 1.961652 -0.100513
1.528288 1.972968 0.044558
1.758018 1.970859 0.113675
1.529461 1.958106 0.250569
1.548144 1.962984 0.539755
1.546220 1.953962 0.539734
1.575623 1.978222 0.022006
1.576674 1.971332 0.236019
1.828771 1.976615 0.230316
1.821518 1.957940 -0.103760
1.603718 1.973204 0.046269
1.846464 1.971137 0.115471
1.610820 1.966344 0.256339
1.865237 1.972802 -0.029365
1.612579 1.952116 0.546358
1.617621 1.948101 0.551404
1.654030 1.980462 0.025741
1.647111 1.963501 0.243676
1.679157 1.970428 0.048971
1.674339 1.947485 0.259924
1.730484 1.974675 0.030445
1.739097 1.970152 -0.077480
1.726182 1.950040 -0.068605
1.765563 1.975700 0.050768
1.770635 1.965772 0.267816
1.819876 1.980950 0.034263
1.814585 1.960371 -0.075796
1.805648 1.945282 -0.067882
1.846014 1.970930 0.053495
1.904998 1.964661 -0.074981
0.572583 1.940755 0.747092
0.608027 1.937052 0.713405
0.620888 1.936786 0.753527
0.658324 1.938096 0.718885
0.672013 1.953256 0.421086
0.679919 1.954091 0.446166
0.673191 1.936819 0.761019
0.703687 1.924164 0.719228
0.722345 1.949331 0.422531
0.720513 1.927856 0.766408
0.730238 1.949144 0.450605
0.759791 1.962033 0.194939
0.758884 1.959138 0.179913
0.764864 1.950173 0.733944
0.771687 1.940397 0.424935
0.782703 1.949851 0.783108
0.778584 1.937199 0.453981
0.812113 1.959108 0.197400
0.811217 1.955220 0.181369
0.822206 1.962476 0.009501
0.819162 1.951221 0.740446
0.821021 1.933471 0.426346
0.830893 1.935259 0.458448
0.833028 1.941896 0.788521
0.843285 1.944610 1.109646
0.853445 1.957566 0.004756
0.858484 1.939168 0.199707
0.860575 1.943303 0.181748
0.875541 1.958570 0.009961
0.870472 1.946270 0.745882
0.886245 1.956535 0.435066
0.891207 1.956323 -0.090916
0.894252 1.953341 -0.092906
0.897089 1.961305 0.470192
0.884339 1.934930 0.795945
0.898534 1.948618 1.122165
0.908767 1.958673 0.004259
0.914899 1.941391 0.183225
0.916783 1.944252 0.203259
0.926892 1.947652 0.011359
0.920806 1.937332 0.749283
0.938578 1.949611 0.437494
0.948535 1.957435 -0.091399
0.936640 1.928960 0.804379
0.951585 1.953454 -0.093394
0.948437 1.948362 0.474577
0.956770 1.954618 1.136717
0.956141 1.939752 0.004574
0.981152 1.961497 0.186925
0.985025 1.966348 0.208987
0.979058 1.943364 0.759833
0.986206 1.950754 0.012901
0.996868 1.952681 0.443026
1.001884 1.948531 -0.090978
0.993915 1.928981 0.815886
1.006714 1.951417 0.482107
1.005922 1.947553 -0.092949
1.011048 1.951639 1.147177
1.022446 1.952887 0.004230
1.037372 1.954425 0.211378
1.033364 1.938416 0.766281
1.050505 1.960878 0.013519
1.051201 1.945763 0.445462
1.054175 1.932003 0.828429
1.063024 1.946475 0.488570
1.072250 1.956703 -0.095321
1.068315 1.950653 1.159670
1.087744 1.964022 0.003857
1.091715 1.943501 0.214789
1.091658 1.937470 0.773781
1.113817 1.964993 0.015087
1.115479 1.952841 0.452055
1.131514 1.963805 -0.092773
1.116415 1.937018 0.842994
1.123327 1.944535 0.496078
1.124591 1.946672 1.171131
1.132581 1.955826 -0.095808
1.149062 1.965140 0.004388
1.157126 1.954796 0.192408
1.164955 1.964613 0.220530
1.153919 1.941514 0.784335
1.175131 1.965104 0.016609
1.193846 1.962933 -0.093250
1.185819 1.949669 1.187667
1.176699 1.934048 0.854491
1.183621 1.942597 0.503580
1.192922 1.951949 -0.096317
1.212404 1.963270 0.003912
1.216474 1.946900 0.193866
1.221293 1.953695 0.223945
1.214201 1.939561 0.793834
1.235467 1.960220 0.017090
1.236092 1.948003 0.462048
1.258174 1.963068 -0.093711
1.244110 1.942694 1.199118
1.241937 1.938064 0.870061
1.237965 1.927659 0.508956
1.261240 1.959108 -0.098707
1.275732 1.961394 0.004430
1.285770 1.954024 0.196482
1.283620 1.948794 0.227437
1.280465 1.942609 0.805402
1.299809 1.955339 0.018597
1.305360 1.955090 0.469661
1.311322 1.947686 1.218702
1.329490 1.970228 -0.095084
1.311167 1.943075 0.887662
1.319152 1.951726 0.523758
1.326575 1.957246 -0.099178
1.339074 1.956527 0.003925
1.343110 1.943126 0.197894
1.346932 1.944889 0.231936
1.350690 1.950647 0.820023
1.376085 1.969491 0.020297
1.370658 1.953175 0.476184
1.375427 1.940097 0.902171
1.400812 1.974390 -0.096481
1.380467 1.942792 0.531210
1.403883 1.969431 -0.101484
1.414379 1.965691 0.003585
1.414413 1.947258 0.200495
1.413973 1.945697 0.830509
1.423217 1.953010 0.237598
1.446422 1.967635 0.020854
1.440933 1.956267 0.483768
1.457698 1.952858 0.544886
1.486706 1.966848 0.003170
1.487714 1.950388 0.204097
1.496505 1.956126 0.243199
1.517741 1.966776 0.022415
1.507252 1.949363 0.489258
1.524012 1.943931 0.553364
1.565023 1.972022 0.002814
1.565019 1.954536 0.206728
1.571803 1.957247 0.248797
1.592062 1.965925 0.023993
1.580551 1.947463 0.496823
1.608852 1.957850 -0.098925
1.608953 1.946889 -0.104983
1.635374 1.964176 0.002318
1.632370 1.942659 0.209187
1.649098 1.957367 0.255397
1.674367 1.971096 0.025655
1.684191 1.954018 -0.099366
1.687278 1.949081 -0.107369
1.717689 1.968363 0.001970
1.716662 1.948821 0.212865
1.715448 1.941474 0.259818
1.752698 1.968266 0.026235
1.767530 1.955223 -0.101728
1.769619 1.949283 -0.109745
1.801962 1.951986 0.216524
1.847883 1.949413 -0.103160
1.849965 1.944474 -0.111171
