# .PCD v0.7 - Point Cloud Data file format
VERSION 0.7
FIELDS x y z
SIZE 4 4 4
TYPE F F F
COUNT 1 1 1
WIDTH 28
HEIGHT 1
VIEWPOINT 0 0 0 1
POINTS 28
DATA ascii
1.191573 -1.348116 2.230461
1.178971 -1.390287 2.252294
1.144844 -1.408792 2.238875
1.193166 -1.484821 2.221929
1.189132 -1.522807 2.225569
1.064464 -1.372725 2.140100
1.179591 -1.533036 2.247722
1.169523 -1.564927 2.247563
1.198773 -1.604676 2.218441
1.132195 -1.541175 2.215714
1.197364 -1.657375 2.202874
1.186668 -1.639437 2.212368
1.105844 -1.551634 2.193160
1.182250 -1.653917 2.247278
1.058127 -1.512428 2.134716
1.203137 -1.718310 2.200055
1.177920 -1.707655 2.235763
1.166035 -1.681540 2.233374
1.128865 -1.655998 2.213468
1.195642 -1.754853 2.175809
1.186748 -1.773683 2.237811
1.196818 -1.807128 2.196138
1.093145 -1.653955 2.162333
1.108294 -1.689334 2.181546
1.202561 -1.837017 2.187661
1.178207 -1.808179 2.210607
1.118202 -1.757446 2.188544
1.170394 -1.856364 2.229181
