# .PCD v0.7 - Point Cloud Data file format
VERSION 0.7
FIELDS x y z
SIZE 4 4 4
TYPE F F F
COUNT 1 1 1
WIDTH 189
HEIGHT 1
VIEWPOINT 0 0 0 1
POINTS 189
DATA ascii
2.176597 1.457171 1.409127
2.251946 1.466885 1.323557
2.062536 1.444764 1.549054
2.158691 1.445361 1.498332
2.276825 1.445029 1.447634
2.346930 1.479241 1.007095
2.138066 1.463078 1.378522
2.233136 1.456349 1.373767
2.344209 1.447772 1.356000
2.444224 1.501979 0.930670
2.153717 1.436584 1.589541
2.256881 1.436194 1.539844
2.464194 1.470219 1.038691
2.543258 1.514450 0.605221
2.235258 1.454915 1.420038
2.366070 1.476505 1.099538
2.400373 1.498540 0.964781
2.274969 1.472884 1.151302
2.321378 1.438219 1.407197
2.151273 1.457618 1.426880
2.479347 1.450620 1.410720
2.596412 1.510995 0.971491
2.242903 1.424407 1.629000
2.370501 1.496222 0.988886
2.520182 1.430693 1.547881
2.685054 1.521027 0.423975
2.616381 1.475199 1.083498
2.672598 1.502577 0.623861
2.327471 1.439759 1.458501
2.473328 1.463462 1.130076
2.502669 1.480518 0.991277
2.386175 1.468817 1.186897
2.241479 1.443431 1.468345
2.460477 1.445026 1.468959
2.271086 1.462171 1.232559
2.594044 1.527486 0.461887
2.604528 1.441481 1.459347
2.710716 1.491008 0.998027
2.593513 1.507786 0.699831
2.369965 1.431152 1.693710
2.355685 1.494887 1.017115
2.473766 1.482183 1.018406
2.491174 1.424797 1.645068
2.512458 1.499067 0.765659
2.631404 1.410549 1.590402
2.813432 1.504216 0.435587
2.743659 1.458187 1.117106
2.457572 1.442547 1.519212
2.821899 1.496726 0.647610
2.610517 1.462415 1.172797
2.641869 1.480507 1.031011
2.436381 1.499349 0.832569
2.384249 1.462073 1.273182
2.375532 1.454180 1.536114
2.568678 1.428875 1.512487
2.716393 1.513636 0.476490
2.737687 1.432336 1.512006
2.627373 1.516201 0.501318
2.855950 1.483028 1.035747
2.449955 1.476823 1.046581
2.775919 1.524937 0.313831
2.619927 1.488147 1.064203
2.603351 1.408610 1.693613
2.631742 1.489137 0.788266
2.554404 1.520778 0.528269
2.764565 1.396362 1.647043
2.565751 1.427365 1.566747
2.724845 1.523132 0.401853
2.887894 1.445166 1.158802
2.536676 1.483379 0.853069
2.610605 1.447679 1.259040
2.742731 1.452368 1.213458
2.786077 1.475494 1.072747
2.973215 1.484882 0.671343
2.459758 1.430005 1.573506
2.691844 1.415705 1.564093
2.869689 1.511839 0.496280
2.859901 1.410206 1.557564
2.755693 1.505340 0.519965
3.000207 1.467051 1.072429
2.590103 1.481756 1.094354
2.870095 1.490006 0.749220
2.654813 1.515294 0.485794
2.742156 1.475103 1.101810
2.739460 1.400395 1.755297
2.770988 1.485221 0.816989
2.673705 1.510885 0.547882
2.908717 1.380173 1.707724
2.681908 1.412168 1.619317
2.601619 1.443888 1.349308
2.741787 1.439606 1.302707
3.044118 1.431157 1.203545
2.579879 1.421782 1.631130
2.922308 1.461482 1.111407
2.884935 1.441326 1.257159
3.138533 1.471063 0.697128
2.826980 1.403517 1.622755
3.018022 1.499036 0.515001
2.915956 1.506526 0.544804
2.713306 1.471693 1.134983
3.166427 1.455085 1.116221
3.014387 1.476129 0.774917
2.877370 1.463072 1.142480
2.873582 1.385171 1.816941
2.909248 1.475311 0.844679
2.813980 1.506015 0.572614
2.738740 1.442781 1.400035
2.805105 1.479489 0.914491
2.822001 1.403940 1.685023
2.996538 1.497565 0.426193
2.878961 1.429536 1.348391
2.697007 1.407548 1.688713
3.028141 1.425280 1.301839
3.072531 1.446477 1.154125
3.060270 1.492700 0.565506
2.852484 1.463628 1.181695
2.943386 1.509695 0.520305
3.168684 1.459265 0.802645
3.022567 1.450032 1.188189
2.956259 1.497152 0.597335
3.054518 1.461412 0.873384
2.851946 1.423702 1.437575
2.941347 1.468556 0.944173
3.139891 1.479795 0.439872
3.226948 1.343750 1.846190
3.009164 1.410467 1.391003
2.834081 1.398287 1.757408
3.307376 1.345727 1.736587
2.991661 1.451565 1.228386
3.207590 1.473869 0.588199
3.490940 1.404153 1.200652
3.106527 1.487300 0.624085
3.210768 1.447517 0.906136
3.148840 1.339718 1.942191
2.985093 1.410597 1.486229
3.080585 1.454619 0.975853
3.332559 1.381198 1.396224
3.250402 1.338935 1.805691
3.549791 1.362143 1.349804
3.517395 1.334512 1.826565
3.676168 1.377197 1.250455
3.262814 1.471457 0.651838
3.298948 1.313479 2.010852
3.228379 1.337267 1.872888
3.305509 1.371318 1.491378
3.079346 1.348791 1.878526
3.570170 1.287311 1.994668
3.506735 1.358156 1.452005
3.547208 1.374466 1.291253
3.444416 1.325678 1.894601
3.748979 1.335143 1.409666
3.687536 1.299329 1.896263
3.696546 1.394772 0.899040
3.481181 1.382921 1.332285
3.266394 1.373396 1.587553
3.480972 1.293193 2.097677
3.414372 1.323971 1.963770
3.479647 1.351242 1.551177
3.220423 1.325511 1.950171
3.777199 1.260041 2.088558
3.711861 1.338116 1.518933
3.608524 1.293454 1.967293
3.428227 1.385360 1.376405
3.743503 1.414549 0.670672
4.130094 1.350230 0.859500
3.932765 1.379012 0.945123
3.411556 1.347297 1.639200
3.549290 1.397881 1.081049
3.667991 1.266894 2.187493
3.666757 1.330159 1.617025
3.564486 1.288718 2.034393
3.410366 1.315161 2.049092
3.801569 1.263194 2.055118
3.935826 1.383801 0.700502
3.941757 1.361098 1.057456
3.758480 1.262398 2.130246
3.558446 1.280861 2.124715
4.162982 1.332280 1.104422
3.746407 1.254474 2.224557
4.200189 1.352456 0.822100
2.792590 -0.889694 2.832520
2.741116 -0.944847 2.804989
2.871295 -1.001186 2.854436
2.841725 -1.063451 2.847927
2.804185 -1.121675 2.834404
2.823647 -1.190684 2.821045
2.745722 -1.170787 2.801842
2.779113 -1.247934 2.807481
2.844164 -1.478059 2.804976
