# .PCD v0.7 - Point Cloud Data file format
VERSION 0.7
FIELDS x y z
SIZE 4 4 4
TYPE F F F
COUNT 1 1 1
WIDTH 26
HEIGHT 1
VIEWPOINT 0 0 0 1
POINTS 26
DATA ascii
2.439834 -1.229617 0.737620
2.563510 -1.214251 0.679293
2.701079 -1.186769 0.621251
2.898836 -1.177833 0.560814
2.326692 -1.210581 0.743263
2.341320 -1.245334 0.719123
2.493057 -1.252842 0.669959
2.831827 -1.325209 0.655677
2.375312 -1.304486 0.761023
3.069729 -1.336996 0.596569
2.372868 -1.331374 0.737730
2.377376 -1.248266 0.728442
2.460484 -1.214478 0.703732
2.641758 -1.404226 0.715530
2.549681 -1.180611 0.673087
2.449976 -1.419270 0.787951
2.513062 -1.393726 0.771899
2.601181 -1.360907 0.747237
2.703403 -1.331957 0.717708
2.578793 -1.427226 0.749312
2.681036 -1.402290 0.720744
1.985513 -1.300095 0.889552
2.109038 -1.295883 0.848099
1.926990 -1.328583 0.880509
2.020562 -1.311516 0.827772
1.965068 -1.346010 0.820701
