# .PCD v0.7 - Point Cloud Data file format
VERSION 0.7
FIELDS x y z
SIZE 4 4 4
TYPE F F F
COUNT 1 1 1
WIDTH 722
HEIGHT 1
VIEWPOINT 0 0 0 1
POINTS 722
DATA ascii
0.643363 -1.208544 0.299928
0.639744 -1.219110 0.335876
0.601474 -1.175022 0.162806
0.602354 -1.179508 0.127747
0.654436 -1.191534 0.306329
0.621419 -1.222109 0.044063
0.620902 -1.231811 0.299998
0.610114 -1.228424 0.334179
0.630726 -1.276760 -0.044617
0.642860 -1.214605 0.301259
0.609805 -1.249855 0.015936
0.601448 -1.236135 0.168201
0.599309 -1.238613 0.130200
0.636066 -1.221800 0.309279
0.602592 -1.167571 0.130238
0.590834 -1.231470 0.044377
0.600497 -1.260069 0.300984
0.592733 -1.258703 0.339104
0.600962 -1.188672 0.135054
0.650008 -1.201654 0.308650
0.660072 -1.223988 0.269298
0.627549 -1.249879 0.307113
0.638003 -1.274568 -0.055306
0.587344 -1.273098 0.013995
0.580036 -1.262420 0.170217
0.640070 -1.283404 -0.065423
0.586046 -1.279797 0.130955
0.607504 -1.236102 0.307514
0.576559 -1.270667 0.045165
0.602613 -1.231686 0.135606
0.613215 -1.250864 0.016263
0.606653 -1.160058 0.095606
0.939638 -2.016950 0.461702
0.616419 -1.266806 0.014060
0.932052 -2.020984 0.527747
0.603008 -1.256750 0.139349
0.628577 -1.226936 0.310685
0.647858 -1.267245 0.276032
0.598962 -1.262208 0.307363
0.598183 -1.357119 -0.049030
0.628426 -1.155627 0.219749
0.589116 -1.346262 -0.045798
0.653224 -1.283886 -0.094238
0.588423 -1.347102 0.012208
0.601424 -1.193708 0.135352
0.568843 -1.309621 0.173873
0.569777 -1.320011 0.131747
0.591184 -1.271370 0.312372
0.569480 -1.328785 0.045649
0.587318 -1.268919 0.138430
0.587739 -1.271153 0.015390
0.610743 -1.231116 0.099857
0.619551 -1.252736 0.009518
0.643890 -1.299034 -0.022264
0.882818 -2.015474 0.454349
0.643652 -1.213798 0.311001
0.587912 -1.283142 0.014264
0.876220 -2.018522 0.522394
0.678560 -1.282061 -0.065149
0.580603 -1.284016 0.139362
0.603078 -1.246246 0.311826
0.601957 -1.250687 0.271792
0.935046 -2.017254 0.476198
0.633949 -1.314412 -0.074298
0.978527 -1.974746 -0.156446
0.844523 -1.995443 0.003956
0.847830 -2.003957 0.251847
0.589144 -1.323129 -0.057174
0.646219 -1.250046 -0.090422
0.594299 -1.245869 0.138928
0.620332 -1.206871 0.228365
0.650185 -1.260534 -0.123580
0.590206 -1.330991 -0.066271
0.845677 -2.017027 0.184713
0.919198 -2.023462 0.478302
0.838031 -2.013253 0.054827
0.565939 -1.298201 0.140405
0.585758 -1.339204 0.014707
0.588328 -1.256412 0.101895
0.827984 -2.012970 0.446983
0.592057 -1.270074 0.010699
0.622220 -1.239092 0.314032
0.602987 -1.203751 0.136614
0.562453 -1.304456 0.015372
0.942048 -1.958760 -0.043855
0.824424 -2.019039 0.518960
0.620065 -1.242502 0.061003
0.622894 -1.250674 0.004880
1.016965 -1.976042 -0.110420
0.574562 -1.345177 0.143800
0.584724 -1.278533 0.316737
0.880262 -2.017808 0.472793
0.579527 -1.275990 0.274826
0.928037 -1.981803 -0.122968
0.794068 -2.003531 0.250446
0.923883 -1.979421 -0.152899
0.582090 -1.291082 0.142625
0.995844 -1.974671 -0.153179
0.603047 -1.243152 0.233232
0.784710 -1.998621 0.179599
0.860310 -2.015985 0.470032
0.850938 -2.005277 0.203230
0.846932 -1.997552 0.009342
0.570048 -1.293676 0.104749
0.590078 -1.338140 0.011021
0.783445 -2.035438 0.445210
0.594674 -1.254419 0.315235
0.598954 -1.263907 0.142068
0.902696 -1.993239 -0.042812
0.768515 -2.009552 0.512685
0.586449 -1.247916 0.063383
0.834105 -2.013425 0.200320
0.594404 -1.268008 0.005072
1.259229 -2.563198 -0.144598
0.898497 -2.015778 0.482031
0.824439 -2.014367 0.469443
0.745577 -1.994237 -0.087948
0.888158 -2.008993 0.419215
0.737631 -1.992425 -0.080839
0.884240 -2.014032 0.208178
0.938171 -1.975404 -0.147560
0.578656 -1.269491 0.237280
0.812682 -2.030485 0.468384
0.801293 -2.014834 0.203661
0.857916 -2.000482 0.149613
0.854215 -1.997459 0.004673
0.720344 -2.008939 0.433211
0.577399 -1.292722 0.322066
0.720829 -2.019046 0.511095
0.574526 -1.288219 0.144132
0.567148 -1.283176 0.065270
0.586335 -1.326152 0.006576
0.846769 -2.021306 0.479529
0.911838 -2.000356 -0.102551
0.769610 -2.009913 0.466099
0.694898 -1.997797 -0.088427
0.835451 -2.014551 0.417732
0.688966 -1.997962 -0.081360
0.685294 -1.993125 -0.002253
0.754870 -1.994069 -0.096610
0.827454 -2.010624 0.205846
0.750852 -1.994958 -0.107576
0.892202 -2.009176 0.361625
0.761961 -2.036971 0.463875
0.674654 -1.997024 0.052829
0.812431 -2.023025 0.151870
0.881012 -2.023118 0.489609
0.728466 -1.989909 0.012750
0.880796 -2.027205 0.213539
0.861084 -2.007672 0.090966
0.855551 -1.996425 -0.000855
0.797099 -2.031805 0.476977
0.725023 -2.027408 0.467404
0.643165 -1.996342 -0.089820
0.778636 -2.010122 0.415426
0.643860 -2.010100 0.246046
0.635140 -1.987542 -0.081624
0.633518 -1.988666 -0.003611
0.766014 -1.987743 -0.114231
0.703171 -1.994659 -0.095029
0.766993 -1.997310 -0.144355
0.697130 -1.992570 -0.105937
0.630435 -1.998152 0.169331
0.698875 -2.010487 0.453894
0.833402 -2.004787 0.360337
0.621848 -1.989587 0.052517
0.688775 -1.999278 0.008091
0.825199 -2.020662 0.486263
0.679836 -1.998447 0.013202
0.813746 -1.998876 0.210609
0.739621 -1.996157 -0.035021
0.670731 -2.002079 0.192282
0.744353 -2.035314 0.473528
0.591419 -1.992897 -0.090195
0.588914 -1.992632 0.242873
0.731047 -2.025662 0.417782
0.588522 -1.997042 -0.082211
0.584808 -1.990184 -0.004078
0.718442 -2.000289 -0.112839
0.648369 -1.985262 -0.094300
0.713293 -1.995949 -0.140734
0.644383 -1.988165 -0.104291
0.580710 -2.000632 0.165861
0.777289 -1.990383 -0.134922
1.022916 -2.585416 -0.245418
0.575205 -1.998080 0.051941
0.777648 -2.004374 0.359966
0.641977 -2.006531 0.202553
0.634977 -1.991851 0.007783
0.571361 -2.011449 0.499873
0.566991 -2.009323 0.416938
0.778585 -2.036161 0.486607
0.695138 -2.003241 0.007400
0.628073 -1.994025 0.014836
0.686879 -1.992764 -0.032391
0.623058 -2.009565 0.190727
0.740696 -1.990437 -0.088509
0.542692 -1.992400 -0.091643
0.544289 -2.005093 0.242223
0.536757 -1.991591 -0.082566
0.538186 -2.000648 -0.006683
0.662646 -1.989943 -0.109095
0.599731 -1.991796 -0.093833
0.669223 -2.011273 0.202615
0.656488 -1.983629 -0.135956
0.595722 -1.992699 -0.103800
0.529902 -1.995118 0.162495
0.723617 -1.991033 -0.130330
0.525451 -1.995602 0.051526
0.714260 -1.973498 -0.175030
0.590154 -1.999071 0.202219
0.583211 -1.987398 0.007414
0.524611 -2.014906 0.498351
0.643977 -1.997838 0.153047
0.519241 -2.012752 0.412426
0.718610 -2.018696 0.480470
0.640342 -1.994850 0.009107
0.577353 -1.993575 0.015406
0.633125 -1.987377 -0.029729
0.571240 -2.003075 0.188379
0.695444 -1.997285 0.007924
0.693839 -1.997568 0.097947
0.568550 -2.014916 0.459296
0.687993 -1.989071 -0.083909
0.491927 -1.986934 -0.092014
0.496526 -2.004569 0.240757
0.488045 -1.992089 -0.084033
0.489454 -2.000143 -0.008138
0.614349 -1.998829 0.201368
0.552102 -1.999315 -0.093395
0.611976 -1.992511 -0.107564
0.609906 -1.995155 -0.134575
0.549088 -2.000207 -0.103374
0.483207 -2.000570 0.159944
0.549551 -2.013860 0.441516
0.672969 -1.994646 -0.125812
0.476703 -1.994093 0.050082
0.666719 -1.987067 -0.171660
0.542454 -2.003563 0.201692
0.537592 -1.997875 0.006792
0.478880 -2.020349 0.496786
0.469409 -2.008183 0.407029
0.593280 -2.000393 0.154576
0.528637 -1.994097 0.015937
0.589609 -1.993396 0.009684
0.657605 -2.005559 0.212265
0.585484 -1.993922 -0.027281
0.521430 -1.997559 0.185993
0.583772 -2.014773 0.459542
0.519752 -2.013378 0.456850
0.644798 -2.002862 0.010416
0.639083 -1.993170 0.099601
0.446294 -1.995396 -0.093617
0.447749 -2.002050 0.239322
0.638369 -1.995654 -0.080439
0.440359 -1.994586 -0.084542
0.570583 -2.010237 0.411735
0.440722 -1.999620 -0.010600
0.564596 -1.998328 0.199920
0.502380 -1.997850 -0.092833
0.563326 -1.997067 -0.105084
0.499348 -1.996756 -0.101788
0.560232 -1.996736 -0.131049
0.436504 -2.005018 0.157398
0.500786 -2.015307 0.438030
0.428981 -1.994584 0.049597
0.618216 -1.987296 -0.121125
0.493709 -2.003075 0.202230
0.616056 -1.988676 -0.167123
0.489880 -1.999370 0.006295
0.427958 -2.007784 0.491494
0.618498 -2.012074 0.362631
0.544587 -2.003922 0.156066
0.421693 -2.013616 0.403480
0.478865 -1.988640 0.017547
0.543002 -2.003910 0.011068
0.607906 -2.009099 0.213765
0.534792 -1.994493 -0.024734
0.474772 -2.006021 0.184397
0.537058 -2.021227 0.457972
0.471957 -2.011840 0.455387
0.594095 -2.003433 0.012961
0.401003 -2.002520 0.238822
0.590437 -1.999730 0.103054
0.396499 -1.986911 -0.093973
0.585650 -1.992278 -0.075825
0.393680 -1.998067 -0.085080
0.519759 -2.004733 0.410352
0.391941 -1.994105 -0.012004
0.453611 -1.992369 -0.092237
0.516926 -2.004828 0.200359
0.513644 -1.998614 -0.103563
0.509494 -1.992308 -0.128445
0.388763 -2.005472 0.154907
0.448609 -1.992311 -0.100184
0.450921 -2.007733 0.432661
0.383272 -1.997048 0.049059
0.569571 -1.991863 -0.117651
0.445947 -2.001557 0.201765
0.567431 -1.994258 -0.162661
0.442149 -1.998860 0.005817
0.566746 -2.011611 0.363196
0.567289 -2.020169 0.475100
0.495281 -2.004416 0.011577
0.373923 -2.014045 0.399986
0.494856 -2.003458 0.157609
0.432236 -1.997131 0.017946
0.554035 -1.996635 0.212495
0.486091 -1.995037 -0.022214
0.428073 -2.010491 0.183844
0.486163 -2.010677 0.453646
0.423160 -2.009307 0.453941
0.544402 -2.004989 0.015478
0.355298 -2.006974 0.238254
0.351870 -1.996339 -0.096614
0.538747 -2.001303 0.105592
0.533919 -1.987885 -0.071215
0.345887 -1.990555 -0.085476
0.472088 -2.012248 0.412773
0.368419 -2.115314 -0.016280
0.404904 -1.991884 -0.091709
0.468201 -2.006320 0.199864
0.464952 -1.999160 -0.101047
0.340978 -2.001909 0.151460
0.461857 -1.997844 -0.126001
0.519015 -2.517249 -0.133446
0.404191 -2.012164 0.430104
0.336560 -1.998519 0.048537
0.398214 -2.002049 0.202268
0.521956 -1.999415 -0.114229
0.518761 -1.995836 -0.158157
0.394511 -2.006345 0.005232
0.517483 -2.017635 0.472661
0.513931 -2.005140 0.362838
0.328210 -2.020449 0.396387
0.446097 -2.000963 0.158160
0.446574 -2.004941 0.013090
0.384490 -1.994629 0.018485
0.507350 -2.002134 0.213928
0.437355 -1.992563 -0.020664
0.378275 -2.004961 0.181440
0.438438 -2.015131 0.452099
0.377424 -2.012766 0.454382
0.307481 -2.000432 0.236840
0.494712 -2.006540 0.017989
0.304105 -1.990823 -0.097040
0.490054 -2.003839 0.108080
0.486313 -1.996431 -0.067809
0.299176 -1.991013 -0.086990
0.299492 -1.994997 -0.016036
0.424327 -2.012717 0.412273
0.359259 -1.998362 -0.091308
0.420462 -2.006797 0.199363
0.416229 -1.996700 -0.098500
0.308103 -2.087285 0.153717
0.354236 -1.996303 -0.099230
0.523805 -2.478848 -0.160587
0.357455 -2.015604 0.428553
0.288770 -1.991996 0.048122
0.351537 -2.007539 0.203691
0.470222 -1.994017 -0.109615
0.468072 -1.994429 -0.153602
0.367806 -2.109611 0.003216
0.470756 -2.022106 0.473101
0.400465 -2.010460 0.160524
0.337756 -1.993126 0.019996
0.279361 -2.012865 0.391992
0.463182 -2.004656 0.363381
0.396794 -1.998458 0.013695
0.459695 -2.009638 0.215341
0.389677 -1.995087 -0.018192
0.331501 -2.002409 0.179962
0.391687 -2.017571 0.450559
0.330670 -2.014217 0.453852
0.262774 -2.004867 0.236248
0.446990 -2.006064 0.020497
0.438303 -1.999401 0.110679
0.437623 -1.996983 -0.064303
0.252744 -1.992448 -0.017518
0.376583 -2.014195 0.412754
0.373758 -2.010273 0.199809
0.311524 -1.995843 -0.091778
0.484912 -2.554661 -0.132163
0.247479 -2.000773 0.146448
0.307494 -1.992801 -0.097699
0.366486 -1.999900 -0.121022
0.310660 -2.014013 0.425058
0.249545 -2.042394 0.047879
0.303740 -2.002008 0.203257
0.422565 -1.997558 -0.106158
0.298976 -1.997301 0.004344
0.420412 -1.996985 -0.149133
0.419850 -2.009559 0.469785
0.350665 -2.002980 0.162135
0.290049 -1.993614 0.020484
0.369080 -2.099775 0.014717
0.230538 -2.007277 0.387565
0.415527 -2.013163 0.365774
0.411962 -2.010138 0.216832
0.341967 -1.994606 -0.015690
0.298612 -2.086809 0.184229
0.344949 -2.021007 0.448999
0.216996 -2.002295 0.234749
0.397261 -2.003605 0.023044
0.391618 -2.002920 0.114121
0.389956 -1.999533 -0.059839
0.326986 -2.007730 0.199323
0.327815 -2.012678 0.413276
0.321843 -1.998707 -0.095544
0.264912 -2.016434 0.423495
0.200776 -2.004198 0.143878
0.317739 -1.994431 -0.118450
0.258023 -2.004465 0.203694
0.494318 -2.565495 -0.139932
0.253277 -1.999751 0.003780
0.371705 -1.994547 -0.144599
0.374109 -2.012997 0.469214
0.253936 -2.055993 0.021053
0.303982 -2.007464 0.163557
0.185854 -2.015685 0.385906
0.302405 -2.002438 0.015620
0.366790 -2.013676 0.368269
0.365212 -2.009609 0.217320
0.239022 -2.003281 0.176898
0.294228 -1.991121 -0.013157
0.298171 -2.020438 0.447483
0.231897 -2.558021 0.292347
0.354764 -2.026067 0.025201
0.164942 -1.988163 -0.101582
0.160039 -1.990378 -0.089560
0.340157 -1.989085 -0.056198
0.342899 -2.002441 0.116626
0.282089 -2.016140 0.414696
0.298367 -2.119152 0.208201
0.275149 -1.999212 -0.093075
0.212225 -1.998918 0.204226
0.326174 -1.996636 -0.099155
0.322969 -1.989104 -0.140033
0.255685 -2.001923 0.017098
0.256231 -2.004953 0.165071
0.318500 -2.012089 0.218763
0.319078 -2.017160 0.369710
0.193272 -2.002705 0.175363
0.257101 -2.051510 -0.012552
0.120238 -1.989583 -0.103158
0.301863 -2.005629 0.027990
0.115304 -1.988798 -0.091098
0.114594 -1.993739 -0.023148
0.295177 -2.001946 0.119114
0.293505 -1.993600 -0.052783
0.233472 -2.004632 0.198305
0.234344 -2.016617 0.416167
0.172368 -1.992257 -0.090325
0.168373 -1.992215 -0.096286
0.105862 -1.991758 0.044971
0.279455 -1.994166 -0.094654
0.222448 -2.100407 0.173179
0.288872 -2.122557 0.230661
0.270288 -2.012649 0.371253
0.074503 -1.987010 -0.104680
0.255145 -2.005123 0.030462
0.069600 -1.989236 -0.091661
0.068905 -1.997147 -0.025752
0.187768 -2.008078 0.198711
0.247404 -1.996447 0.121658
0.126612 -1.987699 -0.090818
0.063437 -1.992432 0.137382
0.122671 -1.992669 -0.095845
0.178639 -1.993909 -0.112051
0.061138 -1.992181 0.044397
0.115090 -1.997085 0.002181
0.108186 -1.995440 0.023271
0.224982 -2.008021 0.220741
0.222572 -2.015136 0.373690
0.036981 -1.999984 0.232544
0.028837 -1.991431 -0.106304
0.024888 -1.989647 -0.093242
0.024165 -1.995555 -0.027307
0.212727 -2.101921 0.130644
0.080932 -1.990149 -0.090411
0.135002 -1.994656 -0.088636
0.077964 -1.993110 -0.095423
0.017704 -1.992829 0.134809
0.015393 -1.989609 0.043864
0.131941 -1.993400 -0.109593
0.076044 -2.002250 0.206508
0.069317 -1.991518 0.001691
0.183924 -1.991644 -0.128688
0.062424 -1.990885 0.023767
0.118570 -2.006290 0.019380
0.179218 -2.005477 0.222217
-0.000214 -2.014271 0.374715
0.055996 -1.996964 0.171763
0.174782 -2.010605 0.375210
0.110428 -1.995029 -0.005398
-0.007739 -2.002406 0.232928
-0.016896 -1.988847 -0.107844
-0.020612 -1.989959 -0.028815
-0.020818 -1.990062 -0.094822
0.153370 -1.989131 -0.041354
0.035219 -1.989581 -0.090974
0.089277 -1.992132 -0.086169
-0.027031 -1.993226 0.133218
0.032264 -1.993555 -0.095000
-0.028406 -1.983000 0.042359
0.031287 -2.000674 0.206948
0.086225 -1.991862 -0.108139
0.023608 -1.991958 0.002113
0.139348 -1.991669 -0.085258
0.137267 -1.994153 -0.125268
0.016693 -1.988345 0.025236
0.072793 -1.999741 0.019905
0.072277 -2.000813 0.171913
-0.045031 -2.008651 0.372210
0.011274 -1.998381 0.171170
0.064662 -1.988507 -0.002871
-0.051521 -1.998808 0.232388
-0.060597 -1.990248 -0.109451
0.116949 -1.999552 0.036877
-0.065286 -1.994365 -0.030455
-0.065566 -1.985486 -0.095339
0.051573 -2.010374 0.198988
0.107700 -1.991624 -0.037939
-0.009490 -1.989020 -0.090539
0.044635 -1.998572 -0.085822
-0.072726 -1.996634 0.131602
-0.013485 -1.988004 -0.094488
-0.073080 -1.987430 0.042720
-0.014418 -2.003123 0.208352
0.040547 -1.993327 -0.106716
-0.021095 -1.993378 0.001522
0.094656 -1.992153 -0.081825
0.091541 -1.990641 -0.121780
-0.027058 -1.985760 0.025683
0.027055 -1.997192 0.021374
0.026526 -1.998270 0.174382
-0.033500 -1.994785 0.170637
-0.096264 -1.999206 0.231794
0.018977 -1.990957 -0.001469
0.072226 -1.999007 0.039312
-0.106283 -1.992642 -0.112065
-0.111009 -1.993756 -0.033029
-0.111250 -1.987893 -0.096954
0.005793 -2.005801 0.199478
-0.054177 -1.991433 -0.091157
0.061956 -1.987105 -0.034442
0.061592 -2.001393 0.134392
-0.057185 -1.989421 -0.094102
-0.001128 -1.992026 -0.084305
-0.118418 -2.001029 0.129957
-0.118752 -1.992829 0.041062
-0.058254 -1.993528 0.208887
-0.004159 -1.992784 -0.104290
-0.064791 -1.996777 0.000878
0.048982 -1.994620 -0.079424
0.045885 -1.994123 -0.118393
-0.072721 -1.991189 0.026029
0.043007 -2.005795 0.225518
-0.018655 -1.997624 0.021794
-0.019158 -2.002721 0.176747
-0.079165 -2.002192 0.169954
-0.024802 -1.984399 0.001025
-0.141022 -1.997613 0.232218
0.026547 -2.002466 0.041694
-0.151036 -1.988037 -0.113602
-0.037950 -2.006204 0.199875
-0.155968 -1.987285 -0.098547
-0.156702 -1.996155 -0.034655
-0.098839 -1.996841 -0.091826
0.016281 -1.989580 -0.031048
0.015858 -1.999861 0.137838
-0.045830 -1.992463 -0.082901
-0.102867 -1.991839 -0.094722
-0.163528 -1.987229 0.040537
-0.103882 -2.004957 0.210143
-0.164196 -1.996407 0.127426
-0.048831 -1.996222 -0.102926
-0.109563 -1.991181 0.000357
0.003291 -1.995096 -0.076007
0.000208 -1.995600 -0.114990
-0.117455 -1.989604 0.026452
-0.062407 -1.995033 0.022226
-0.001700 -2.009234 0.227884
-0.062905 -2.002136 0.178152
-0.123911 -2.001587 0.169361
-0.070457 -1.989852 0.003366
-0.186757 -1.998024 0.232612
-0.012350 -1.994430 0.384195
-0.019227 -1.995922 0.044200
-0.199505 -2.013434 -0.117533
-0.082709 -2.004599 0.199298
-0.203495 -2.006686 -0.101404
-0.203375 -2.000545 -0.037312
-0.144550 -1.996255 -0.092415
-0.028476 -1.984041 -0.027566
-0.028864 -2.000314 0.141239
-0.090550 -1.990897 -0.081479
-0.147678 -1.999366 0.211604
-0.148538 -1.995265 -0.094367
-0.209879 -2.001806 0.126745
-0.209243 -1.987633 0.039926
-0.093541 -1.995656 -0.101519
-0.155247 -1.994589 -0.000289
-0.041437 -1.992545 -0.073568
-0.044486 -1.996063 -0.111593
-0.162196 -1.987028 0.027878
-0.045462 -2.007646 0.229299
-0.108078 -1.999468 0.023571
-0.108646 -2.000579 0.180578
-0.169616 -2.004986 0.168711
-0.115171 -1.990266 0.003756
-0.232459 -2.002429 0.232939
-0.063923 -1.998362 0.046566
-0.241541 -1.977822 -0.116683
-0.128429 -2.006025 0.200678
-0.246459 -1.979068 -0.101658
-0.248198 -1.988927 -0.038774
-0.073123 -1.990497 -0.024255
-0.190319 -1.988678 -0.091918
-0.074589 -1.999771 0.144652
-0.137213 -1.994344 -0.080119
-0.193437 -1.996774 0.212031
-0.196082 -2.012677 -0.096201
-0.254951 -1.989032 0.039290
-0.256587 -2.004197 0.125102
-0.139236 -1.996094 -0.100127
-0.201012 -1.988993 -0.000822
-0.086153 -1.991002 -0.070153
-0.089199 -1.994521 -0.108178
-0.090246 -2.003063 0.230754
-0.207873 -1.991443 0.028205
-0.152770 -2.002877 0.023909
-0.153385 -2.000007 0.182972
-0.215328 -2.007394 0.169062
-0.278205 -2.001831 0.233324
-0.160909 -1.986711 0.006198
-0.108676 -1.994785 0.048004
-0.288238 -1.978208 -0.119305
-0.173159 -2.007423 0.201039
-0.292162 -1.979457 -0.103289
-0.293960 -1.983313 -0.040321
-0.234102 -1.981065 -0.092447
-0.118811 -1.991957 -0.020878
-0.120351 -1.995225 0.148109
-0.181037 -1.981760 -0.078574
-0.239106 -2.004204 0.214308
-0.238098 -1.979075 -0.094387
-0.301605 -1.996435 0.038565
-0.185865 -2.003536 -0.098835
-0.303348 -2.000584 0.123531
-0.247590 -2.004400 -0.001650
-0.131813 -1.995449 -0.067820
-0.133930 -1.990975 -0.104745
-0.134911 -2.011487 0.233021
-0.253603 -1.989853 0.028604
-0.198499 -2.001303 0.025314
-0.199111 -2.000440 0.185349
-0.260139 -1.999762 0.167535
-0.323937 -2.003228 0.233669
-0.206538 -1.996136 0.007450
-0.154350 -1.999224 0.050331
-0.218885 -2.008826 0.201398
-0.280772 -1.984473 -0.093116
-0.164518 -1.991412 -0.017485
-0.166008 -2.002671 0.151392
-0.226702 -1.986174 -0.078258
-0.285835 -2.004625 0.215678
-0.284757 -1.983496 -0.094071
-0.351155 -2.014859 0.037695
-0.230687 -1.989971 -0.096280
-0.349141 -1.993944 0.120984
-0.293414 -1.991795 -0.002108
-0.176542 -1.992883 -0.065411
-0.179667 -2.009907 0.235415
-0.179614 -1.992419 -0.102384
-0.300245 -1.998267 0.028859
-0.246992 -2.025736 0.025371
-0.245753 -2.009889 0.188598
-0.308718 -2.016199 0.168691
-0.252253 -1.995571 0.009828
-0.198999 -2.007650 0.052583
-0.264593 -2.012238 0.202717
-0.209225 -1.991853 -0.014125
-0.272385 -1.988597 -0.076925
-0.330610 -2.001024 0.217077
-0.211797 -1.995114 0.154870
-0.275416 -1.987386 -0.094887
-0.338161 -1.989176 -0.002724
-0.224109 -2.007337 -0.063224
-0.224426 -2.008310 0.236799
-0.225364 -1.985873 -0.098923
-0.348813 -2.014707 0.030003
-0.289019 -1.992108 0.026168
-0.291517 -2.006312 0.191008
-0.351658 -1.994529 0.166323
-0.297957 -1.996988 0.011167
-0.245631 -2.017088 0.054825
-0.313161 -2.030683 0.204836
-0.254927 -1.992299 -0.010768
-0.377315 -2.004448 0.219382
-0.257474 -2.000565 0.159157
-0.318146 -1.982003 -0.076479
-0.267044 -1.981759 -0.059533
-0.270169 -2.007729 0.239165
-0.270088 -1.983312 -0.095535
-0.335713 -1.994515 0.026491
-0.338225 -2.008751 0.194330
-0.398371 -1.996927 0.166636
-0.347515 -2.013447 0.013313
-0.288575 -1.992476 0.056497
-0.355173 -2.001013 0.203565
-0.300632 -1.992739 -0.007422
-0.304158 -2.005019 0.163453
-0.317703 -2.031186 0.243200
-0.312728 -1.984187 -0.057218
-0.316760 -1.985763 -0.092213
-0.387822 -2.023224 0.198492
-0.335277 -1.993906 0.058828
-0.400929 -1.999398 0.203920
-0.348255 -2.002191 -0.004200
-0.351832 -2.010476 0.167730
-0.400472 -2.019954 0.172946
