# .PCD v0.7 - Point Cloud Data file format
VERSION 0.7
FIELDS x y z
SIZE 4 4 4
TYPE F F F
COUNT 1 1 1
WIDTH 2892
HEIGHT 1
VIEWPOINT 0 0 0 1
POINTS 2892
DATA ascii
2.383783 -1.281171 -0.248654
2.377078 -1.280280 -0.279721
2.373116 -1.286061 -0.166747
2.379010 -1.290522 0.065327
2.391423 -1.300884 0.788494
2.377363 -1.310388 0.595360
2.355223 -1.299979 0.387123
2.329370 -1.286134 -0.072166
2.304895 -1.292676 0.212619
2.408094 -1.268780 -0.147500
2.417599 -1.280807 -0.189396
2.412759 -1.282633 -0.094436
2.242039 -1.279038 -0.234028
2.241365 -1.282109 -0.265032
2.242421 -1.290392 0.065004
2.227403 -1.281964 -0.156162
2.275152 -1.311683 0.762380
2.371802 -1.283641 0.023176
2.221779 -1.300862 0.372832
2.222989 -1.302434 0.568855
2.176646 -1.275095 -0.065658
2.352111 -1.302372 0.672039
2.324460 -1.288351 0.298737
2.315164 -1.289796 0.118641
2.176394 -1.295511 0.206378
2.323401 -1.297085 0.425744
2.290511 -1.280511 -0.140621
2.480329 -1.311312 0.776226
2.264837 -1.272756 -0.177881
2.275083 -1.281496 -0.087767
2.104283 -1.272890 -0.220369
2.417007 -1.292356 0.479579
2.106592 -1.276937 -0.249343
2.410385 -1.290186 0.111495
2.277137 -1.302574 0.803321
2.141823 -1.307608 0.732083
2.119858 -1.293178 0.064821
2.092682 -1.276804 -0.145473
2.240203 -1.285478 0.024907
2.380939 -1.293242 0.173218
2.089285 -1.295745 0.359542
2.103618 -1.306246 0.549703
2.067066 -1.282787 -0.060709
2.329063 -1.285057 -0.052303
2.215765 -1.300310 0.644718
2.351177 -1.298986 0.381948
2.190962 -1.288229 0.289447
2.323843 -1.289024 -0.021347
2.321547 -1.288203 -0.098374
2.166548 -1.279762 0.114192
2.199974 -1.299914 0.409554
2.039823 -1.287407 0.200045
2.148780 -1.273400 -0.130999
2.341002 -1.310274 0.745880
2.161258 -1.286401 -0.169864
2.130381 -1.272415 -0.082176
2.297623 -1.300162 0.461437
2.279813 -1.292028 0.109238
1.968485 -1.260738 -0.206699
1.983867 -1.273701 -0.236535
2.148828 -1.299477 0.770076
2.012454 -1.298515 0.701817
1.988052 -1.282462 -0.137479
1.992225 -1.286004 0.064576
2.114591 -1.284286 0.025692
2.246385 -1.291123 0.165918
2.413263 -1.295289 0.513469
1.974814 -1.295516 0.347432
2.380654 -1.288516 0.036125
1.970184 -1.295165 0.526395
2.378605 -1.288516 0.042106
1.953445 -1.283513 -0.055809
2.196410 -1.282903 -0.048584
2.199639 -1.286002 0.365470
2.086376 -1.295205 0.619460
2.365194 -1.287733 -0.019027
2.076470 -1.290990 0.280343
2.191208 -1.285877 -0.020629
2.185851 -1.283065 -0.092688
2.368844 -1.296677 0.466042
2.059015 -1.285464 0.111160
2.062475 -1.288846 0.391211
2.207644 -1.306201 0.716588
2.048189 -1.283036 -0.124959
1.932318 -1.290120 0.194006
2.027500 -1.276246 -0.160169
2.327209 -1.291481 0.214623
2.025790 -1.279083 -0.078178
2.169187 -1.298035 0.442195
2.318402 -1.291576 0.196538
2.153224 -1.290851 0.107016
1.884937 -1.276265 -0.199489
2.025501 -1.294352 0.737876
1.886222 -1.280312 -0.225472
1.912096 -1.302221 0.679848
1.867319 -1.273230 -0.128660
1.877594 -1.280751 0.065458
1.994959 -1.281059 0.027531
2.117821 -1.286972 0.158673
2.281877 -1.295192 0.489205
2.252050 -1.289347 0.035890
2.247005 -1.287372 0.039839
1.849263 -1.281369 0.333197
2.073746 -1.279691 -0.044771
1.857760 -1.291943 0.508301
2.098199 -1.296680 0.356504
1.828740 -1.271319 -0.051032
2.231564 -1.285595 -0.018315
1.976988 -1.296964 0.599404
2.250392 -1.300477 0.450907
2.070569 -1.283656 -0.018796
2.068199 -1.282818 -0.087823
1.952919 -1.283818 0.271140
1.956014 -1.290571 0.378183
1.947452 -1.285199 0.108081
2.077261 -1.298117 0.687320
1.917423 -1.268873 -0.117240
1.813738 -1.280912 0.187845
1.907774 -1.269009 -0.151335
2.186652 -1.283418 0.203261
1.919153 -1.279768 -0.073208
2.188823 -1.287433 0.189286
2.033679 -1.283967 0.420869
2.038638 -1.290603 0.104911
2.047561 -1.299122 0.777039
2.192485 -1.299144 0.787364
1.920145 -1.294102 0.711856
1.775208 -1.269962 -0.188560
1.772440 -1.270031 -0.212587
1.799702 -1.294020 0.653748
2.007267 -1.286708 0.152605
2.181489 -1.305881 0.472251
1.769976 -1.275460 0.065409
1.771699 -1.276844 -0.121582
1.886364 -1.280769 0.028481
2.123415 -1.284187 0.034646
2.125427 -1.287170 0.036669
1.758784 -1.285986 0.325326
2.111933 -1.284372 -0.017467
1.979673 -1.290486 0.343353
1.965122 -1.280395 -0.041818
1.859543 -1.287788 0.577256
1.735138 -1.273928 -0.046936
1.752330 -1.288679 0.491274
1.960966 -1.283374 -0.018853
1.960563 -1.283514 -0.083860
1.847373 -1.280531 0.263115
1.842502 -1.282352 0.363075
1.968853 -1.296879 0.665271
1.828799 -1.272987 0.104918
1.822819 -1.274483 -0.111148
2.083157 -1.289114 0.194272
1.710157 -1.274610 0.182833
2.078279 -1.290167 0.184226
1.815164 -1.274605 -0.145223
2.084623 -1.297803 0.811325
1.933244 -1.287661 0.405904
1.808470 -1.272489 -0.069287
2.078115 -1.297954 0.760261
1.937218 -1.295916 0.746969
1.925030 -1.286354 0.102809
1.818766 -1.291829 0.686872
1.682544 -1.270557 -0.179457
1.674726 -1.265657 -0.202540
1.705304 -1.292696 0.632830
2.040997 -1.288859 0.446878
1.896701 -1.282451 0.145533
1.774687 -1.270505 0.029388
1.685415 -1.280022 0.065595
1.671003 -1.270497 -0.114565
2.010796 -1.282926 0.034561
2.010818 -1.283928 0.033562
1.862104 -1.279290 0.331204
2.001322 -1.284098 -0.017532
2.000372 -1.286188 0.418482
1.664257 -1.282636 0.316405
1.857461 -1.276099 -0.038862
1.848286 -1.275114 -0.016951
1.769126 -1.291425 0.561386
1.835803 -1.267327 -0.079084
1.652561 -1.279472 -0.043730
1.676722 -1.301468 0.833574
1.656867 -1.285350 0.476344
1.752864 -1.282174 0.256202
1.866450 -1.295606 0.643281
1.754035 -1.286963 0.353224
1.735238 -1.273616 0.102014
1.970597 -1.284875 0.185183
1.732196 -1.277073 -0.106021
1.975293 -1.294599 0.778268
1.964688 -1.285927 0.179127
1.727533 -1.278174 -0.139066
1.829770 -1.284383 0.389901
1.974718 -1.297691 0.736264
1.720869 -1.276065 -0.066130
1.630671 -1.283149 0.180073
1.837854 -1.293638 0.719006
1.821413 -1.282045 0.100804
1.719383 -1.287548 0.661905
1.941562 -1.291554 0.429923
1.586820 -1.263177 -0.170393
1.614870 -1.289346 0.613949
1.797128 -1.280124 0.140569
1.590080 -1.268204 -0.193357
1.682086 -1.270121 0.030492
1.586766 -1.270684 0.065627
1.582346 -1.269076 -0.107426
1.905178 -1.280627 0.033541
1.898186 -1.277678 0.031470
1.900872 -1.285877 0.405523
1.899696 -1.283769 -0.016510
1.775604 -1.283885 0.323375
1.758806 -1.272749 -0.035818
1.576737 -1.280246 0.307553
1.755699 -1.276730 -0.016842
1.756245 -1.276852 -0.076840
1.667672 -1.284148 0.542395
1.555861 -1.269113 -0.039680
1.652277 -1.272866 0.248218
1.763003 -1.288346 0.621273
1.571418 -1.285956 0.463516
1.653483 -1.276666 0.340238
1.579368 -1.294187 0.805620
1.638628 -1.267270 0.099072
1.863034 -1.279609 0.176141
1.859092 -1.280642 0.173104
1.877961 -1.296309 0.750332
1.629467 -1.265748 -0.100028
1.866311 -1.291471 0.710212
1.735280 -1.282046 0.375986
1.624782 -1.265847 -0.132075
1.739469 -1.289355 0.693050
1.727807 -1.279675 0.098898
1.624199 -1.269705 -0.062072
1.543101 -1.279749 0.176220
1.632946 -1.285175 0.642065
1.826054 -1.278370 0.408794
1.704565 -1.278755 0.135674
1.525416 -1.281997 0.594071
1.504147 -1.261719 -0.162196
1.504374 -1.263764 -0.184193
1.598479 -1.269685 0.030683
1.504170 -1.269243 0.065824
1.803547 -1.276307 0.032557
1.498673 -1.265629 -0.101242
1.797561 -1.273354 0.029496
1.804353 -1.283548 0.393591
1.787002 -1.271521 -0.016610
1.677033 -1.275569 0.313412
1.667169 -1.270360 -0.033705
1.497219 -1.279804 0.299781
1.661048 -1.271364 -0.015762
1.656551 -1.268513 -0.072812
1.583202 -1.281755 0.526574
1.686581 -1.295893 0.607544
1.571753 -1.275423 0.243442
1.475236 -1.267654 -0.036463
1.579018 -1.283191 0.331526
1.771489 -1.279240 0.168259
1.496984 -1.291801 0.782817
1.485930 -1.281567 0.450681
1.567097 -1.274759 0.097389
1.766564 -1.282131 0.716240
1.775553 -1.286211 0.169306
1.778877 -1.292102 0.690370
1.544793 -1.262310 -0.094851
1.644763 -1.277685 0.363106
1.657064 -1.289961 0.671254
1.558277 -1.281228 0.861348
1.535078 -1.259438 -0.124950
1.639218 -1.278277 0.097041
1.536526 -1.264289 -0.057927
1.457523 -1.274341 0.172384
1.539516 -1.275863 0.618148
1.737597 -1.279998 0.393944
1.610943 -1.270398 0.130760
1.444948 -1.276587 0.576284
1.424467 -1.258247 -0.154973
1.512846 -1.265265 0.031849
1.424698 -1.261290 -0.175968
1.713934 -1.275910 0.032694
1.425553 -1.265781 0.066058
1.711997 -1.275936 0.026675
1.716823 -1.282163 0.382746
1.423032 -1.265136 -0.095975
1.700405 -1.273103 -0.016442
1.593504 -1.275154 0.305605
1.583521 -1.267922 -0.031516
1.422689 -1.279332 0.293058
1.574422 -1.267951 -0.015603
1.564870 -1.261127 -0.069706
1.598107 -1.290534 0.589682
1.503744 -1.282328 0.513806
1.485184 -1.269029 0.236596
1.677917 -1.274887 0.161352
1.489462 -1.273826 0.320648
1.405654 -1.272126 -0.033132
1.481463 -1.267348 0.095551
1.671893 -1.272921 0.164292
1.683188 -1.283749 0.692439
1.685422 -1.285783 0.668461
1.414592 -1.287418 0.761012
1.406454 -1.279141 0.438908
1.568276 -1.280230 0.352370
1.473191 -1.266791 -0.090538
1.566637 -1.282629 0.647372
1.484902 -1.284778 0.841642
1.553588 -1.272864 0.095207
1.465481 -1.264906 -0.120616
1.458899 -1.262816 -0.055680
1.472081 -1.281359 0.604502
1.657123 -1.282573 0.381172
1.374934 -1.267917 0.169575
1.527365 -1.266979 0.125948
1.378503 -1.281076 0.564645
1.353824 -1.258721 -0.148656
1.624290 -1.270520 0.031824
1.617335 -1.266582 0.024752
1.352017 -1.258775 -0.168675
1.439255 -1.266768 0.033140
1.631299 -1.280766 0.372920
1.354981 -1.267269 0.066376
1.620798 -1.274644 -0.016206
1.347376 -1.261647 -0.090712
1.517976 -1.276687 0.298878
1.498870 -1.262490 -0.029360
1.487753 -1.259535 -0.014471
1.491257 -1.262622 -0.067435
1.513629 -1.284149 0.571838
1.350153 -1.277843 0.287332
1.595350 -1.272460 0.154533
1.424267 -1.277905 0.499010
1.604963 -1.284370 0.650663
1.416652 -1.272508 0.232916
1.605803 -1.286323 0.670674
1.412936 -1.270372 0.310881
1.590321 -1.272482 0.160484
1.409902 -1.268842 0.093839
1.328013 -1.266652 -0.029913
1.485759 -1.274822 0.339544
1.341197 -1.285973 0.741276
1.337981 -1.281636 0.430224
1.489223 -1.281208 0.626599
1.403587 -1.269260 -0.087230
1.412523 -1.285330 0.819919
1.474990 -1.270405 0.093423
1.395882 -1.268373 -0.116308
1.388277 -1.263293 -0.052385
1.568609 -1.275212 0.365286
1.395631 -1.276931 0.585733
1.314427 -1.275345 0.166974
1.460832 -1.272445 0.122289
1.304026 -1.274635 0.547889
1.543669 -1.268072 0.031020
1.539736 -1.266116 0.022980
1.546738 -1.274372 0.362073
1.283157 -1.256195 -0.141370
1.374697 -1.272215 0.033497
1.284386 -1.260228 -0.161354
1.538175 -1.271210 -0.017032
1.293430 -1.272700 0.066760
1.444433 -1.276213 0.292141
1.275709 -1.257133 -0.085439
1.437316 -1.271919 -0.027948
1.432232 -1.272926 -0.013996
1.437134 -1.280723 0.557088
1.425665 -1.268075 -0.065068
1.522811 -1.274980 0.147831
1.530488 -1.283932 0.633939
1.278592 -1.273367 0.280626
1.359790 -1.282389 0.489384
1.515741 -1.273011 0.156761
1.516370 -1.277008 0.644795
1.348420 -1.273846 0.304255
1.344083 -1.270032 0.228204
1.336309 -1.265366 0.091116
1.416238 -1.275335 0.329867
1.260395 -1.266124 -0.026576
1.417774 -1.280755 0.608902
1.324871 -1.259799 -0.082010
1.266467 -1.278170 0.420519
1.269771 -1.283529 0.723572
1.402392 -1.269916 0.092715
1.341105 -1.283889 0.800218
1.320177 -1.260892 -0.111056
1.494096 -1.274761 0.353562
1.323683 -1.266744 -0.050012
1.326167 -1.275464 0.570052
1.389247 -1.270957 0.118589
1.246847 -1.273831 0.165309
1.462019 -1.261643 0.030220
1.242535 -1.276105 0.537287
1.478225 -1.277875 0.353411
1.466146 -1.266634 0.021265
1.299038 -1.264746 0.034748
1.454502 -1.262792 -0.016854
1.219521 -1.256635 -0.135993
1.220726 -1.259666 -0.154979
1.377897 -1.278699 0.286495
1.220776 -1.264215 0.067037
1.360645 -1.265451 -0.025703
1.217128 -1.262544 -0.082008
1.355567 -1.265463 -0.013752
1.372658 -1.284212 0.545463
1.455000 -1.280505 0.617201
1.356036 -1.267560 -0.062747
1.442209 -1.268557 0.142040
1.211016 -1.267867 0.273956
1.440135 -1.269550 0.153022
1.447945 -1.279538 0.626131
1.287266 -1.276935 0.477668
1.282884 -1.273333 0.296613
1.277528 -1.269518 0.223552
1.343688 -1.270872 0.320154
1.272735 -1.266823 0.089496
1.345309 -1.276315 0.590189
1.192754 -1.261601 -0.024245
1.261254 -1.261244 -0.078631
1.336810 -1.271386 0.091077
1.273658 -1.280422 0.780554
1.422575 -1.273293 0.341864
1.201961 -1.277658 0.411885
1.199317 -1.277083 0.704872
1.251517 -1.257369 -0.106732
1.252019 -1.260247 -0.047721
1.264697 -1.276940 0.556451
1.337082 -1.285842 0.856132
1.320666 -1.269452 0.114918
1.187298 -1.276268 0.162727
1.405652 -1.274407 0.345701
1.398453 -1.267094 0.029608
1.393518 -1.263148 0.019555
1.183049 -1.277565 0.526705
1.388899 -1.265254 -0.016490
1.232432 -1.262223 0.034093
1.158884 -1.257058 -0.130588
1.308328 -1.275210 0.279812
1.157047 -1.256107 -0.148608
1.289985 -1.259949 -0.024399
1.171259 -1.275577 0.067564
1.152449 -1.256998 -0.077649
1.377484 -1.271099 0.598435
1.300130 -1.276765 0.530745
1.287953 -1.263943 -0.013414
1.369613 -1.264083 0.136329
1.284361 -1.261062 -0.060455
1.137867 -1.254179 0.877250
1.375488 -1.275101 0.605420
1.372559 -1.270038 0.149365
1.152476 -1.269304 0.269382
1.228782 -1.281382 0.469100
1.218327 -1.270813 0.289977
1.212967 -1.267994 0.218918
1.281171 -1.272341 0.311545
1.209118 -1.264282 0.088870
1.275825 -1.270855 0.572503
1.133134 -1.261027 -0.021832
1.198623 -1.260686 -0.075245
1.273214 -1.271843 0.090456
1.353064 -1.271815 0.330185
1.209221 -1.278935 0.762920
1.192889 -1.258782 -0.103305
1.140881 -1.279548 0.691300
1.139450 -1.276135 0.403268
1.199190 -1.272447 0.542804
1.193414 -1.262664 -0.045292
1.265630 -1.277413 0.832423
1.253060 -1.264944 0.111252
1.337086 -1.270917 0.337029
1.335872 -1.270542 0.029002
1.337001 -1.272558 0.017015
1.116657 -1.264785 0.160020
1.120526 -1.272051 0.514083
1.325300 -1.266708 -0.017108
1.245754 -1.273675 0.274198
1.170818 -1.260667 0.034487
1.100240 -1.256471 -0.125165
1.099410 -1.256513 -0.143174
1.318993 -1.275549 0.587870
1.229391 -1.262382 -0.022989
1.103597 -1.265067 0.066887
1.238626 -1.277238 0.520144
1.225328 -1.262391 -0.013028
1.306065 -1.265551 0.130711
1.091817 -1.255428 -0.073247
1.223755 -1.262495 -0.059046
1.103448 -1.276461 0.874938
1.306956 -1.268514 0.146723
1.305009 -1.269651 0.586727
1.097931 -1.271715 0.265848
1.159239 -1.271916 0.456407
1.155772 -1.267286 0.282359
1.216619 -1.268828 0.302909
1.155401 -1.269421 0.216355
1.149516 -1.262718 0.087283
1.215344 -1.270330 0.557910
1.288534 -1.270304 0.319554
1.208586 -1.267312 0.088818
1.142020 -1.263091 -0.072797
1.076539 -1.262436 -0.019387
1.150777 -1.280403 0.748348
1.137286 -1.262179 -0.099846
1.140688 -1.270907 0.530227
1.210189 -1.281859 0.817885
1.077409 -1.274055 0.675669
1.134796 -1.262086 -0.043868
1.075913 -1.270622 0.394637
1.195481 -1.266367 0.108690
1.269521 -1.266423 0.328365
1.262176 -1.259069 0.028271
1.261313 -1.260101 0.015263
1.065023 -1.271488 0.503536
1.253626 -1.258219 -0.016816
1.061111 -1.267199 0.158476
1.188197 -1.275106 0.269636
1.111188 -1.258099 0.035899
1.256477 -1.273035 0.574256
1.044589 -1.254868 -0.120715
1.169755 -1.260810 -0.021574
1.183119 -1.279669 0.510603
1.044783 -1.257902 -0.137710
1.042953 -1.258510 0.067282
1.244488 -1.265005 0.126109
1.244363 -1.266974 0.143111
1.051994 -1.277887 0.859432
1.164723 -1.261830 -0.012622
1.243558 -1.270138 0.570127
1.042228 -1.260787 -0.069729
1.162112 -1.259935 -0.056652
1.040353 -1.268151 0.261277
1.103709 -1.272346 0.448862
1.102241 -1.270693 0.277837
1.158077 -1.268274 0.295335
1.157857 -1.270784 0.545347
1.097835 -1.268853 0.212789
1.089921 -1.260158 0.085695
1.225988 -1.267779 0.309940
1.151995 -1.268727 0.088266
1.082354 -1.258519 -0.069388
1.023932 -1.263820 -0.016903
1.090302 -1.275891 0.731748
1.151731 -1.280334 0.800310
1.083184 -1.268362 0.517659
1.077634 -1.258606 -0.096436
1.071900 -1.261729 0.880558
1.076161 -1.259510 -0.041447
1.208941 -1.263880 0.321770
1.022390 -1.272037 0.389111
1.133875 -1.261824 0.105081
1.024952 -1.277478 0.665156
1.212654 -1.269435 0.026798
1.203722 -1.261522 0.013702
1.214127 -1.277766 0.872862
1.199048 -1.262618 -0.017344
1.014511 -1.273888 0.496041
1.001502 -1.260646 0.155881
1.199961 -1.273479 0.562704
1.127625 -1.272562 0.265040
1.063646 -1.266452 0.036442
1.115157 -1.263208 -0.020107
1.123597 -1.277134 0.500017
0.992979 -1.257241 -0.116220
1.188930 -1.267421 0.121569
0.993136 -1.258272 -0.132218
1.187780 -1.268393 0.140560
1.001534 -1.278308 0.843935
1.111123 -1.263224 -0.013146
1.190098 -1.274565 0.556609
0.990361 -1.258901 0.067765
1.104483 -1.258353 -0.055218
0.995664 -1.268130 -0.067179
1.048681 -1.270104 0.272310
0.991835 -1.273527 0.257805
1.105369 -1.273203 0.533835
1.045183 -1.268804 0.439282
1.103553 -1.269695 0.287802
1.037333 -1.260552 0.084179
1.045282 -1.271252 0.210275
1.163435 -1.263258 0.300324
1.099420 -1.272117 0.087754
1.030750 -1.260896 -0.066893
1.096251 -1.278786 0.784764
1.033827 -1.273351 0.717189
0.973325 -1.265193 -0.014400
1.029676 -1.267789 0.507132
1.156396 -1.267282 0.316260
1.025003 -1.258988 -0.092953
1.030474 -1.274077 0.871165
1.020531 -1.256917 -0.039997
1.160656 -1.279203 0.857340
1.079298 -1.262233 0.102547
1.152021 -1.265878 0.026202
1.154174 -1.268891 0.012225
0.971886 -1.275434 0.383617
0.968467 -1.273936 0.652594
1.140433 -1.261047 -0.017919
0.961968 -1.270307 0.486518
1.142442 -1.271932 0.551140
1.073041 -1.270977 0.260502
0.952955 -1.265016 0.155407
1.006006 -1.260878 0.036869
1.052458 -1.252664 -0.018733
1.129321 -1.262868 0.116981
1.070059 -1.276555 0.491490
1.049385 -1.258929 0.889287
1.124141 -1.260865 0.137929
0.943355 -1.258603 -0.111708
1.125591 -1.266079 0.538968
0.947054 -1.271765 0.825389
1.054485 -1.259640 -0.012705
0.941501 -1.257648 -0.127728
0.938752 -1.257289 0.068254
1.050856 -1.257746 -0.053745
0.937970 -1.259549 -0.062758
0.993094 -1.264534 0.265757
1.050001 -1.269109 0.281275
1.045864 -1.266681 0.518243
0.935218 -1.264961 0.253237
0.995660 -1.271195 0.432798
1.110917 -1.265668 0.291812
0.983733 -1.258954 0.083650
0.987672 -1.264690 0.206701
1.038768 -1.263568 0.086149
1.046770 -1.281193 0.772281
0.979122 -1.260275 -0.064401
0.982348 -1.272776 0.703682
1.103844 -1.269685 0.311748
0.981178 -1.270180 0.497657
1.107176 -1.277646 0.839815
0.978018 -1.270522 0.851644
0.976407 -1.262347 -0.090427
0.920710 -1.263584 -0.011921
0.975954 -1.263250 -0.038428
1.093381 -1.261311 0.025623
1.026722 -1.262631 0.100031
1.092536 -1.262346 0.010615
0.915318 -1.267879 0.376050
0.915985 -1.272366 0.641074
1.086841 -1.262444 -0.018442
1.094923 -1.276311 0.542679
0.912448 -1.269706 0.478028
1.022489 -1.273367 0.257009
1.018521 -1.275964 0.482983
0.958426 -1.264237 0.037404
1.071731 -1.259304 0.112413
0.900372 -1.262419 0.153885
1.007910 -1.260999 -0.018161
1.008967 -1.271274 0.878904
1.072559 -1.262255 0.135425
1.073103 -1.266504 0.525454
0.901571 -1.273150 0.812941
0.894711 -1.257961 -0.107189
1.001885 -1.259034 -0.013223
0.892858 -1.257005 -0.123209
1.002271 -1.261109 -0.053218
0.893175 -1.260636 0.068808
0.890343 -1.259903 -0.059227
1.001445 -1.270489 0.275800
0.995358 -1.267089 0.507747
0.885629 -1.261350 0.248743
0.939529 -1.260952 0.260225
1.059370 -1.266071 0.284307
0.942113 -1.267620 0.425266
0.935067 -1.260095 0.203178
0.932116 -1.255347 0.082137
0.988171 -1.263950 0.085653
0.994285 -1.278629 0.756762
1.052679 -1.273097 0.822275
1.051285 -1.269094 0.305232
0.922435 -1.251692 -0.060969
0.926626 -1.262620 0.486111
0.930547 -1.270924 0.837176
0.929853 -1.269210 0.690160
0.923741 -1.257735 -0.086951
0.980155 -1.265990 0.097577
1.037750 -1.257725 0.025074
1.033883 -1.254783 0.009032
0.926350 -1.263622 -0.036916
0.864028 -1.253005 -0.009492
1.042381 -1.274730 0.533162
1.027174 -1.253887 -0.019036
0.861749 -1.261305 0.369513
0.867496 -1.272767 0.631596
0.861895 -1.264116 0.468523
0.970902 -1.270767 0.252499
0.967992 -1.275370 0.474486
1.024182 -1.263671 0.108952
0.963520 -1.274664 0.863460
0.905780 -1.258634 0.037879
1.018952 -1.259662 0.132897
1.021601 -1.265923 0.512948
0.956293 -1.259387 -0.017670
0.850766 -1.258802 0.152391
0.858078 -1.275519 0.802514
0.952268 -1.258407 -0.012711
0.949614 -1.256500 -0.051741
0.853151 -1.266275 -0.103589
0.855662 -1.272930 0.069452
0.835645 -1.249309 -0.055779
0.947843 -1.267478 0.497280
0.947894 -1.266912 0.268269
0.889938 -1.257341 0.255732
0.840070 -1.262709 0.246294
1.011854 -1.270447 0.277846
0.890567 -1.264033 0.417754
0.886492 -1.259474 0.200698
0.883532 -1.254721 0.080658
0.940565 -1.264313 0.085185
1.004188 -1.272505 0.806799
0.942787 -1.275058 0.742251
1.002692 -1.268473 0.300755
0.994530 -1.265442 0.877700
0.885086 -1.272315 0.822729
0.880105 -1.263001 0.477653
0.880886 -1.260009 -0.059369
0.882359 -1.269606 0.679692
0.990157 -1.260086 0.024610
0.923509 -1.256421 0.095009
0.987319 -1.259139 0.007580
0.873099 -1.254113 -0.084454
0.872674 -1.255024 -0.035454
0.829539 -1.269276 -0.007814
0.990829 -1.271146 0.522653
0.979570 -1.255247 -0.019501
0.812327 -1.257520 0.460025
0.914260 -1.259207 0.246929
0.819990 -1.272162 0.623125
0.816243 -1.264673 0.365067
0.918434 -1.272768 0.466995
0.973599 -1.262062 0.104454
0.971369 -1.261030 0.130432
0.916071 -1.275072 0.846993
0.972104 -1.266329 0.501463
0.909693 -1.260741 -0.017127
0.859196 -1.259992 0.038422
0.810590 -1.271926 0.788040
0.815286 -1.274087 0.153058
0.906682 -1.260756 -0.013157
0.899991 -1.254874 -0.050231
0.800965 -1.259346 0.069896
0.797427 -1.252688 -0.099155
0.799582 -1.255701 -0.114131
0.898314 -1.263885 0.485789
0.895290 -1.259327 0.261743
0.804174 -1.268560 -0.054068
0.960283 -1.266855 0.270336
0.854464 -1.271631 0.253399
0.803565 -1.274006 0.244947
0.844012 -1.262411 0.411293
0.954693 -1.269923 0.791310
0.848013 -1.267003 0.080321
0.849982 -1.271766 0.200352
0.898291 -1.277433 0.731815
0.891978 -1.263689 0.083707
0.953118 -1.266864 0.295267
0.950111 -1.271826 0.863270
0.840603 -1.271700 0.808289
0.831558 -1.258400 0.468168
0.840317 -1.267320 -0.056761
0.836858 -1.270986 0.671245
0.944597 -1.264438 0.023168
0.882962 -1.262742 0.092617
0.939722 -1.259504 0.006114
0.944289 -1.271526 0.514196
0.832103 -1.261338 -0.033847
0.774807 -1.253689 -0.005373
0.770795 -1.259864 0.454617
0.869706 -1.261562 0.243493
0.781757 -1.278957 0.364743
0.767975 -1.265076 0.890616
0.774494 -1.272545 0.614676
0.924000 -1.259448 0.100964
0.865590 -1.267510 0.826487
0.929809 -1.267355 0.129031
0.872902 -1.274140 0.460549
0.924591 -1.265722 0.489995
0.767074 -1.269302 0.775607
0.868129 -1.267063 -0.016529
0.821641 -1.269285 0.040062
0.855033 -1.254150 -0.012672
0.762618 -1.261496 0.151523
0.853784 -1.264253 0.477350
0.760881 -1.262973 -0.096505
0.761426 -1.266660 0.070513
0.849714 -1.257693 0.256292
0.907692 -1.259275 0.261811
0.800813 -1.258055 0.247854
0.910184 -1.270301 0.778873
0.750447 -1.253964 -0.050616
0.750916 -1.260423 0.240410
0.809522 -1.276695 0.410969
0.903518 -1.262257 0.289775
0.851780 -1.275826 0.720355
0.796354 -1.257402 0.079801
0.842325 -1.257072 0.083210
0.797337 -1.261178 0.197821
0.899655 -1.266266 0.841768
0.796096 -1.269084 0.794846
0.802087 -1.276651 0.466898
0.893934 -1.257825 0.022663
0.789610 -1.256703 -0.054273
0.898741 -1.270900 0.505748
0.834348 -1.258122 0.090133
0.889083 -1.253893 0.004610
0.792343 -1.270363 0.661804
0.781827 -1.250808 -0.079357
0.787499 -1.261682 -0.032287
0.744347 -1.272938 -0.004652
0.738283 -1.272138 0.453309
0.835182 -1.273842 0.243166
0.879417 -1.259796 0.097516
0.823314 -1.265543 0.451041
0.878181 -1.260753 0.126506
0.727508 -1.270427 0.883212
0.822136 -1.269887 0.813051
0.728156 -1.265390 0.357187
0.726975 -1.267944 0.605190
0.877085 -1.265113 0.479517
0.729576 -1.274626 0.768231
0.816432 -1.256452 -0.015061
0.768962 -1.256689 0.039517
0.820525 -1.267423 -0.013009
0.812784 -1.257545 -0.049098
0.727116 -1.273783 0.152174
0.805249 -1.258659 0.465853
0.709706 -1.250059 0.069970
0.712167 -1.252339 -0.092011
0.816243 -1.272970 0.253967
0.872218 -1.272568 0.257464
0.710285 -1.250379 -0.106033
0.871684 -1.277632 0.771489
0.768333 -1.273325 0.246537
0.711853 -1.258264 -0.048006
0.717405 -1.272700 0.240079
0.860956 -1.264602 0.285346
0.810256 -1.277183 0.710934
0.756926 -1.264127 0.401421
0.807818 -1.270350 0.082871
0.758827 -1.265705 0.078425
0.758792 -1.267491 0.196433
0.858208 -1.271635 0.828352
0.753606 -1.268462 0.781411
0.750488 -1.263081 0.455358
0.859415 -1.271100 0.022323
0.848141 -1.261319 0.495225
0.857611 -1.271151 0.002304
0.750022 -1.261013 -0.052675
0.800841 -1.271396 0.088802
0.744811 -1.263775 0.649311
0.838727 -1.252331 -0.020904
0.735774 -1.247078 -0.030831
0.688577 -1.251364 -0.002246
0.689681 -1.259550 0.442796
0.782536 -1.261265 0.237616
0.843642 -1.272039 0.125171
0.840883 -1.268113 0.095138
0.789804 -1.278833 0.449716
0.779653 -1.270276 0.798624
0.828528 -1.258530 0.467024
0.686029 -1.268020 0.754783
0.693643 -1.277686 0.357849
0.779881 -1.265748 -0.014419
0.682430 -1.263336 0.595734
0.684023 -1.269827 0.871770
0.728354 -1.258016 0.040108
0.770827 -1.256811 -0.012519
0.827142 -1.274028 0.758039
0.771748 -1.270953 0.462528
0.674431 -1.257207 0.149624
0.763593 -1.258402 0.246423
0.816569 -1.257022 0.248892
0.675174 -1.260346 0.070630
0.672552 -1.254651 -0.088410
0.720701 -1.263719 0.241047
0.766718 -1.274571 0.699492
0.817373 -1.264962 0.281909
0.667734 -1.257109 0.234560
0.666190 -1.251623 -0.045475
0.758120 -1.258743 0.082360
0.719385 -1.270450 0.399048
0.710124 -1.253092 0.077921
0.709071 -1.261866 0.766954
0.812755 -1.271052 0.810895
0.708136 -1.254902 0.192909
0.717992 -1.276369 0.453042
0.805589 -1.261685 0.487798
0.805730 -1.258521 0.020773
0.799861 -1.251598 0.001707
0.702326 -1.251384 -0.050166
0.749169 -1.258808 0.086270
0.714318 -1.280051 0.649019
0.696546 -1.247472 -0.074229
0.702240 -1.258354 -0.030159
0.660179 -1.275812 0.443512
0.746979 -1.269563 0.237265
0.652000 -1.257660 0.000389
0.789213 -1.255527 0.090608
0.788951 -1.256474 0.121608
0.740193 -1.267254 0.440205
0.740153 -1.272639 0.787227
0.787003 -1.259892 0.457608
0.641477 -1.258426 0.740320
0.733195 -1.257115 -0.013898
0.643009 -1.262113 0.350320
0.643519 -1.271200 0.863360
0.733252 -1.262116 -0.012893
0.643922 -1.268680 0.591348
0.686733 -1.257350 0.041687
0.723479 -1.249247 -0.047005
0.785607 -1.273401 0.746621
0.723165 -1.260372 0.451027
0.785087 -1.272296 0.245590
0.730079 -1.269690 0.244095
0.635856 -1.260528 0.150235
0.683129 -1.267036 0.238669
0.630891 -1.250980 -0.084837
0.629502 -1.250714 0.071157
0.784842 -1.277240 0.280593
0.630013 -1.250011 -0.098847
0.722164 -1.268967 0.688037
0.634208 -1.267397 0.234229
0.629592 -1.255919 -0.042843
0.725618 -1.273016 0.082045
0.674802 -1.264831 0.392591
0.770270 -1.270442 0.795466
0.673568 -1.259396 0.077557
0.671566 -1.265212 0.757577
0.766011 -1.262027 0.481400
0.672583 -1.262202 0.192556
0.667367 -1.258805 0.440512
0.769164 -1.265820 0.020412
0.768361 -1.265863 -0.000597
0.712612 -1.265112 0.084906
0.662706 -1.251702 -0.048567
0.663734 -1.263499 0.633489
0.752485 -1.250018 -0.021772
0.656563 -1.249716 -0.028630
0.612553 -1.260224 0.433012
0.699333 -1.258956 0.232774
0.707672 -1.278541 0.437887
0.607330 -1.249018 0.001926
0.757434 -1.270740 0.121303
0.756724 -1.269803 0.088294
0.696630 -1.266039 0.770780
0.751503 -1.269207 0.452259
0.606944 -1.262745 0.733973
0.692585 -1.257443 -0.013308
0.745049 -1.270766 0.735210
0.684546 -1.248502 -0.013398
0.608493 -1.271415 0.348978
0.644092 -1.252696 0.042250
0.600000 -1.264605 0.849910
0.607398 -1.275007 0.588982
0.692678 -1.274648 0.447732
0.684450 -1.260072 0.237625
0.733435 -1.256724 0.237055
0.732151 -1.258673 0.273045
0.680613 -1.265341 0.677613
0.596258 -1.259859 0.149831
0.638515 -1.259411 0.234209
0.593274 -1.252283 -0.082218
0.594948 -1.258004 0.071812
0.593600 -1.263741 0.231812
0.674891 -1.255422 0.080516
0.587915 -1.249252 -0.040274
0.731790 -1.274800 0.784082
0.634044 -1.266559 0.748197
0.737523 -1.280283 0.481129
0.635220 -1.264173 0.389188
0.629920 -1.251753 0.076107
0.631978 -1.259543 0.190141
0.633842 -1.267104 0.437179
0.722491 -1.257192 0.019934
0.717647 -1.251264 -0.001121
0.666940 -1.254484 0.082434
0.621067 -1.248037 -0.046993
0.633237 -1.279776 0.635195
0.616259 -1.243114 -0.070048
0.619973 -1.253016 -0.027999
0.665797 -1.268245 0.231443
0.579009 -1.267521 0.431677
0.617842 -1.267437 0.902041
0.705709 -1.252156 0.117765
0.705012 -1.252219 0.084756
0.654106 -1.260431 0.756344
0.658040 -1.262966 0.428369
0.571732 -1.252312 0.003566
0.573390 -1.267055 0.729635
0.702923 -1.257628 0.439758
0.700476 -1.261168 0.720750
0.650931 -1.252779 -0.012734
0.652034 -1.260777 -0.013716
0.607500 -1.255000 0.041880
0.643229 -1.246895 -0.045820
0.570940 -1.274742 0.347598
0.562483 -1.266956 0.843529
0.643052 -1.257078 0.435212
0.700918 -1.268006 0.234736
0.562828 -1.265406 0.579518
0.647913 -1.265388 0.234259
0.697601 -1.265971 0.270703
0.644064 -1.267673 0.671244
0.562695 -1.266146 0.149495
0.599921 -1.257742 0.230815
0.556305 -1.254324 0.072415
0.553616 -1.248601 -0.078626
0.687870 -1.262709 0.469612
0.559011 -1.267038 0.231463
0.595509 -1.263918 0.736802
0.637302 -1.257735 0.080136
0.682281 -1.261255 0.762569
0.548290 -1.246576 -0.038681
0.595646 -1.262518 0.384784
0.593333 -1.254060 0.075737
0.591221 -1.256476 0.428735
0.685915 -1.261496 0.018568
0.593372 -1.258868 0.189747
0.686136 -1.263533 -0.003429
0.631393 -1.260785 0.081079
0.673274 -1.250664 -0.023572
0.586481 -1.253323 -0.045340
0.586647 -1.264195 0.620706
0.585395 -1.258304 -0.027346
0.627185 -1.266572 0.229049
0.538401 -1.258880 0.424254
0.670153 -1.258457 0.116411
0.627497 -1.274238 0.428070
0.576311 -1.260828 0.888611
0.536832 -1.264396 0.720259
0.669475 -1.258522 0.081402
0.617601 -1.262774 0.745975
0.671420 -1.268914 0.435449
0.533113 -1.250631 0.005170
0.664949 -1.265495 0.713395
0.613327 -1.254088 -0.012115
0.607321 -1.248136 -0.013182
0.566851 -1.249335 0.042461
0.609529 -1.264380 0.430878
0.654292 -1.256401 0.227254
0.654961 -1.258331 0.266264
0.531361 -1.272088 0.344191
0.607294 -1.259734 0.229841
0.522962 -1.264328 0.834123
0.528304 -1.272720 0.578172
0.611537 -1.276971 0.668922
0.566379 -1.265035 0.229480
0.517658 -1.248647 0.072014
0.659355 -1.277967 0.469337
0.524098 -1.265472 0.150100
0.516984 -1.247901 -0.076001
0.566994 -1.278186 0.736525
0.522419 -1.266355 0.229088
0.593606 -1.246093 0.079682
0.643794 -1.262616 0.750180
0.562092 -1.268815 0.383448
0.512660 -1.246870 -0.036044
0.556728 -1.254368 0.075364
0.557687 -1.262778 0.425399
0.641225 -1.250857 0.018106
0.559810 -1.265158 0.189411
0.640443 -1.251901 -0.003902
0.588732 -1.251139 0.078637
0.545803 -1.245653 -0.043762
0.554122 -1.273494 0.619383
0.544717 -1.250636 -0.025767
0.504828 -1.261182 0.420913
0.589599 -1.266895 0.226667
0.630517 -1.254787 0.115006
0.623763 -1.242897 0.077925
0.584890 -1.264612 0.419627
0.582072 -1.264107 0.736614
0.507302 -1.276672 0.720968
0.541796 -1.266157 0.883264
0.626384 -1.261849 0.703000
0.622814 -1.252340 0.421941
0.495456 -1.245943 0.006781
0.576717 -1.254393 -0.012487
0.569713 -1.247449 -0.013565
0.566970 -1.243521 -0.044598
0.529219 -1.246649 0.043074
0.566912 -1.252756 0.421434
0.621404 -1.264624 0.263930
0.618735 -1.259711 0.222896
0.570725 -1.261052 0.226470
0.571962 -1.271333 0.659514
0.493786 -1.271419 0.341805
0.485424 -1.262683 0.826736
0.486715 -1.262098 0.568736
0.609674 -1.254399 0.455811
0.529782 -1.263353 0.226105
0.483067 -1.250942 0.072662
0.524428 -1.264585 0.720077
0.562050 -1.254364 0.079368
0.486484 -1.262794 0.149712
0.482375 -1.250189 -0.073353
0.483798 -1.260688 0.226687
0.604281 -1.258988 0.735775
0.526513 -1.270130 0.381086
0.519091 -1.249686 0.073975
0.520093 -1.258115 0.419011
0.604630 -1.252164 0.016736
0.481113 -1.256139 -0.034359
0.605875 -1.256194 -0.006249
0.522208 -1.263481 0.188026
0.533605 -1.223235 0.900092
0.554142 -1.253434 0.077286
0.594004 -1.243316 -0.025382
0.510184 -1.245950 -0.042126
0.511532 -1.261881 0.608937
0.556011 -1.271186 0.226329
0.598974 -1.264061 0.113694
0.509106 -1.250934 -0.025131
0.471265 -1.264486 0.418572
0.468701 -1.265033 0.708561
0.551322 -1.268912 0.417289
0.593264 -1.256164 0.076627
0.588807 -1.257195 0.692614
0.549572 -1.272416 0.731290
0.506239 -1.264495 0.874899
0.591301 -1.261628 0.417629
0.460850 -1.247235 0.008427
0.541098 -1.254691 -0.011850
0.535106 -1.248741 -0.013917
0.536401 -1.263037 0.418132
0.585824 -1.266934 0.261570
0.580139 -1.256046 0.217500
0.494625 -1.248943 0.043722
0.536400 -1.270662 0.652150
0.536155 -1.263356 0.223119
0.581154 -1.267661 0.454533
0.458202 -1.271734 0.340441
0.448884 -1.261032 0.819360
0.492169 -1.258680 0.222716
0.454187 -1.270399 0.568410
0.494905 -1.275865 0.718785
0.451508 -1.258217 0.073345
0.525442 -1.253675 0.078994
0.447154 -1.254007 0.224304
0.446829 -1.253133 0.148296
0.567772 -1.259335 0.724403
0.444724 -1.245500 -0.070744
0.488554 -1.265403 0.416695
0.568024 -1.252472 0.016364
0.488934 -1.267466 0.376699
0.481469 -1.246006 0.073587
0.566233 -1.250524 -0.007657
0.443434 -1.248452 -0.032753
0.507080 -1.238494 0.901835
0.483554 -1.255812 0.186623
0.518521 -1.251738 0.075921
0.477612 -1.252226 -0.040453
0.478990 -1.267185 0.605608
0.516375 -1.263528 0.222917
0.564275 -1.275428 0.695380
0.436655 -1.260799 0.414213
0.556286 -1.251418 0.111248
0.441171 -1.279295 0.710292
0.515726 -1.267231 0.412924
0.554633 -1.250492 0.073228
0.472478 -1.248242 -0.024508
0.510023 -1.263790 0.716878
0.471708 -1.265828 0.867546
0.546679 -1.246023 0.406161
0.501432 -1.247020 -0.011262
0.426251 -1.248530 0.010073
0.499506 -1.249043 -0.014280
0.501845 -1.264351 0.412779
0.556308 -1.280198 0.261281
0.545568 -1.258350 0.214150
0.460003 -1.248238 0.044367
0.501556 -1.262661 0.219765
0.498817 -1.265010 0.643761
0.540516 -1.256022 0.446108
0.457549 -1.255984 0.220358
0.421610 -1.269061 0.338062
0.455325 -1.263239 0.704367
0.412358 -1.260382 0.812984
0.493872 -1.259950 0.078677
0.417627 -1.268737 0.564033
0.412812 -1.246544 0.073937
0.413548 -1.253305 0.222958
0.538291 -1.273618 0.722115
0.453972 -1.263718 0.411339
0.532399 -1.250774 0.014999
0.413152 -1.251770 -0.069062
0.411217 -1.251441 0.148929
0.453324 -1.264783 0.374331
0.479541 -1.251761 0.903565
0.451934 -1.256267 0.073293
0.532662 -1.254812 -0.008996
0.409806 -1.248736 -0.030098
0.453028 -1.266085 0.186319
0.482909 -1.250044 0.074556
0.522669 -1.260813 0.680943
0.444414 -1.266505 0.601253
0.444005 -1.253512 -0.039796
0.399001 -1.248139 0.407813
0.525725 -1.259685 0.110944
0.401559 -1.261672 0.694868
0.481788 -1.264832 0.221565
0.482160 -1.270534 0.410583
0.515979 -1.242820 0.070828
0.438849 -1.247528 -0.023854
0.480512 -1.275073 0.714586
0.434163 -1.260191 0.857155
0.515181 -1.255316 0.401847
0.467822 -1.248306 -0.010605
0.391624 -1.246826 0.011716
0.465880 -1.248329 -0.014625
0.512580 -1.259573 0.254817
0.509988 -1.257664 0.209786
0.469304 -1.269650 0.409451
0.510956 -1.264293 0.444814
0.468282 -1.273299 0.641456
0.464952 -1.258983 0.216387
0.424365 -1.244543 0.044998
0.425771 -1.269523 0.701070
0.420946 -1.251309 0.216978
0.387019 -1.268372 0.336706
0.458256 -1.258256 0.078311
0.380209 -1.247828 0.074602
0.382815 -1.271666 0.815691
0.380952 -1.254595 0.222624
0.496733 -1.260012 0.704678
0.377007 -1.253113 0.554600
0.416348 -1.254059 0.404943
0.449998 -1.259051 0.900269
0.497813 -1.253070 0.014648
0.380518 -1.252047 -0.066398
0.417294 -1.252566 0.072934
0.377611 -1.250738 0.148582
0.498060 -1.255108 -0.010349
0.416718 -1.259113 0.369950
0.376194 -1.249024 -0.028443
0.415383 -1.258412 0.184926
0.449344 -1.253338 0.073215
0.497137 -1.277057 0.682696
0.374002 -1.272935 0.696595
0.445128 -1.256153 0.218181
0.410373 -1.252798 -0.038142
0.409845 -1.265829 0.596897
0.368452 -1.254422 0.406505
0.491148 -1.261986 0.109592
0.446546 -1.265856 0.406214
0.485433 -1.250091 0.068522
0.439929 -1.259459 0.698156
0.404208 -1.244822 -0.022212
0.406632 -1.275458 0.860887
0.482624 -1.258614 0.397517
0.436264 -1.254582 -0.010923
0.478992 -1.260871 0.252475
0.359004 -1.247108 0.013380
0.431286 -1.248627 -0.014979
0.433699 -1.263975 0.403081
0.478389 -1.267591 0.441484
0.429661 -1.259659 0.630047
0.476422 -1.259964 0.206445
0.429335 -1.254298 0.213018
0.392783 -1.248820 0.045678
0.389187 -1.259873 0.689684
0.389346 -1.252592 0.215655
0.422590 -1.251562 0.077939
0.348364 -1.254719 0.332294
0.347589 -1.247114 0.075266
0.418439 -1.261359 0.894947
0.346314 -1.247905 0.220261
0.384779 -1.256352 0.401621
0.464196 -1.252360 0.013304
0.467261 -1.274298 0.702389
0.346265 -1.267020 0.808309
0.464466 -1.256399 -0.011691
0.345847 -1.246341 -0.063760
0.347492 -1.266392 0.557308
0.380650 -1.244884 0.071551
0.383127 -1.258420 0.367604
0.345025 -1.253027 0.149249
0.419797 -1.261602 0.071919
0.342555 -1.246313 -0.026792
0.381763 -1.256710 0.184579
0.455524 -1.258448 0.666254
0.338386 -1.260277 0.685215
0.336846 -1.252715 0.403178
0.458544 -1.263272 0.108260
0.412537 -1.258443 0.217849
0.413947 -1.266153 0.403880
0.375268 -1.262155 0.590538
0.377781 -1.255080 -0.037475
0.411402 -1.268737 0.694871
0.450863 -1.251395 0.066169
0.369585 -1.242121 -0.021571
0.368046 -1.260834 0.846476
0.448066 -1.257933 0.391163
0.400584 -1.246885 -0.010296
0.446411 -1.263164 0.250143
0.447821 -1.272874 0.439175
0.326380 -1.246392 0.015043
0.397652 -1.245918 -0.015327
0.401122 -1.270931 0.630764
0.395072 -1.250328 0.393672
0.439818 -1.254290 0.201065
0.394725 -1.249609 0.208658
0.359138 -1.245112 0.046328
0.361650 -1.271140 0.689412
0.355739 -1.249895 0.213306
0.385878 -1.259681 0.886611
0.391016 -1.255842 0.077619
0.314718 -1.248192 0.218935
0.317018 -1.252387 0.075956
0.352192 -1.255653 0.398285
0.430601 -1.253652 0.012961
0.426689 -1.257688 0.683959
0.314793 -1.256027 0.331950
0.424783 -1.243736 -0.013109
0.350072 -1.249157 0.071240
0.314715 -1.273326 0.808990
0.428957 -1.268703 0.665990
0.313912 -1.264709 0.553960
0.313227 -1.246622 -0.061096
0.349532 -1.256728 0.365257
0.311390 -1.249326 0.149898
0.384159 -1.254914 0.069547
0.311976 -1.251582 -0.025103
0.347138 -1.252018 0.183218
0.309821 -1.267554 0.684928
0.377901 -1.252752 0.215488
0.420882 -1.253599 0.105866
0.305271 -1.254010 0.400853
0.376311 -1.254496 0.397483
0.344117 -1.250369 -0.035826
0.341683 -1.260473 0.587191
0.419278 -1.253675 0.063847
0.374846 -1.261090 0.683489
0.338989 -1.245390 -0.020883
0.410438 -1.246277 0.382767
0.338506 -1.271123 0.848182
0.409748 -1.252490 0.245758
0.413188 -1.266191 0.433815
0.367991 -1.248171 -0.010629
0.364495 -1.252614 0.390359
0.366520 -1.264259 0.623403
0.366072 -1.249196 -0.015649
0.294772 -1.247671 0.016718
0.406208 -1.251592 0.197718
0.351570 -1.232920 0.932237
0.362128 -1.248904 0.206322
0.327053 -1.262474 0.680047
0.326534 -1.245400 0.046993
0.322084 -1.242197 0.210953
0.354320 -1.260993 0.881288
0.359423 -1.258123 0.077296
0.284106 -1.248471 0.218620
0.320609 -1.254950 0.393959
0.396964 -1.249945 0.011613
0.285417 -1.252670 0.075630
0.396185 -1.265986 0.679653
0.282170 -1.252326 0.330609
0.393172 -1.244013 -0.014433
0.392348 -1.257051 0.654605
0.320477 -1.253421 0.071939
0.284670 -1.255876 -0.059382
0.316946 -1.257029 0.363921
0.278131 -1.261685 0.798601
0.351532 -1.252203 0.068209
0.278771 -1.246619 0.149559
0.278317 -1.257046 0.548585
0.276190 -1.253882 0.673567
0.303876 -1.235323 0.920796
0.279317 -1.246866 -0.023444
0.317576 -1.259287 0.183920
0.276667 -1.257278 0.400561
0.389282 -1.254880 0.104543
0.344717 -1.254790 0.395158
0.346321 -1.255039 0.214165
0.385652 -1.249972 0.061499
0.344299 -1.264388 0.678177
0.311495 -1.249654 -0.034163
0.310128 -1.263775 0.584869
0.308428 -1.250663 -0.021193
0.378901 -1.249574 0.377446
0.303923 -1.261466 0.836816
0.381186 -1.260752 0.245472
0.379577 -1.261502 0.428466
0.336362 -1.247448 -0.009955
0.335946 -1.266553 0.620090
0.331934 -1.252920 0.386024
0.333452 -1.247483 -0.015986
0.320026 -1.231240 0.922911
0.263147 -1.246950 0.018391
0.369580 -1.241921 0.192334
0.329525 -1.246202 0.202984
0.296494 -1.264773 0.675734
0.295945 -1.248673 0.047680
0.291526 -1.246479 0.209641
0.324759 -1.265287 0.877987
0.329879 -1.266391 0.076999
0.287989 -1.249255 0.389617
0.365788 -1.267309 0.654341
0.253520 -1.250752 0.218306
0.363327 -1.246239 0.011264
0.253759 -1.247952 0.076298
0.359619 -1.256341 0.667269
0.359568 -1.242309 -0.015779
0.251607 -1.257612 0.331299
0.284792 -1.240736 0.070559
0.286341 -1.257314 0.362606
0.249958 -1.244175 -0.056752
0.319933 -1.252486 0.066884
0.248634 -1.264151 0.675292
0.248594 -1.273974 0.803308
0.249230 -1.255890 0.151263
0.247756 -1.263338 0.550276
0.282911 -1.249598 0.182554
0.246676 -1.243154 -0.021785
0.247087 -1.260558 0.399258
0.355631 -1.249178 0.103192
0.314701 -1.253326 0.212838
0.313116 -1.253085 0.391831
0.311731 -1.260707 0.669838
0.277507 -1.257087 0.579526
0.354080 -1.252256 0.059177
0.279865 -1.247932 -0.033490
0.340549 -1.235177 0.897067
0.273348 -1.262769 0.833502
0.277840 -1.253935 -0.020505
0.346337 -1.249879 0.373111
0.347555 -1.255057 0.242121
0.347990 -1.261798 0.425141
0.304736 -1.245728 -0.010283
0.302315 -1.256875 0.612735
0.300322 -1.249216 0.381695
0.291482 -1.235532 0.917620
0.301838 -1.246763 -0.016312
0.342057 -1.253178 0.191061
0.264891 -1.258083 0.667401
0.232557 -1.250225 0.020078
0.299974 -1.252475 0.201685
0.265305 -1.246947 0.048363
0.292171 -1.258612 0.868645
0.260916 -1.245761 0.208325
0.331166 -1.255643 0.643974
0.294168 -1.252704 0.076619
0.331716 -1.245521 0.009938
0.258432 -1.254536 0.388317
0.223936 -1.254027 0.218003
0.224197 -1.254222 0.076999
0.329088 -1.260641 0.661958
0.329991 -1.246575 -0.017080
0.218012 -1.258451 0.669970
0.255227 -1.246007 0.070259
0.219006 -1.254916 0.329959
0.221396 -1.252431 -0.055039
0.287309 -1.248779 0.065544
0.252724 -1.251627 0.360254
0.252314 -1.250879 0.182239
0.214429 -1.248867 0.393909
0.216037 -1.241426 -0.020103
0.212994 -1.259330 0.791926
0.216602 -1.252186 0.151922
0.213143 -1.252671 0.543908
0.324044 -1.250464 0.101868
0.283535 -1.257364 0.391530
0.282078 -1.249624 0.211499
0.318003 -1.256404 0.904853
0.282164 -1.263997 0.666536
0.320436 -1.245556 0.056825
0.245920 -1.256391 0.577199
0.248232 -1.246212 -0.031818
0.244135 -1.242231 -0.019864
0.314325 -1.250112 0.418785
0.314777 -1.250179 0.367787
0.240781 -1.261093 0.829164
0.195912 -1.224331 0.896721
0.315943 -1.253348 0.239795
0.272753 -1.261163 0.610434
0.272099 -1.242017 -0.009622
0.261932 -1.237834 0.912317
0.270772 -1.254498 0.379395
0.308422 -1.245485 0.186708
0.271248 -1.248039 -0.017626
0.236332 -1.264365 0.666112
0.267329 -1.244775 0.198342
0.202957 -1.253492 0.021776
0.234713 -1.249224 0.049049
0.265616 -1.271877 0.872384
0.231323 -1.247030 0.207006
0.304614 -1.265898 0.643695
0.262509 -1.246982 0.076272
0.192258 -1.243313 0.215650
0.227846 -1.253822 0.384984
0.301134 -1.247791 0.008610
0.194577 -1.254486 0.077677
0.300407 -1.249836 -0.018398
0.189415 -1.258730 0.666658
0.295532 -1.254967 0.651591
0.213145 -1.222248 0.893829
0.225624 -1.247271 0.069938
0.254651 -1.241067 0.064183
0.222118 -1.249912 0.357918
0.190760 -1.250698 -0.053375
0.187390 -1.252208 0.329612
0.223740 -1.257139 0.182932
0.184818 -1.248144 0.392584
0.288426 -1.255702 0.897530
0.187467 -1.247681 -0.019411
0.295482 -1.257721 0.101562
0.251911 -1.252658 0.388181
0.187013 -1.255454 0.152601
0.183554 -1.256953 0.545587
0.185447 -1.277596 0.801640
0.251469 -1.248902 0.210164
0.247559 -1.249337 0.653147
0.215323 -1.255686 0.574863
0.288864 -1.246839 0.054481
0.217601 -1.244481 -0.031156
0.286770 -1.258374 0.417488
0.174334 -1.253541 0.914506
0.213484 -1.238499 -0.019205
0.212200 -1.266379 0.828852
0.285233 -1.256458 0.365467
0.284325 -1.250636 0.237446
0.242158 -1.261460 0.608096
0.243531 -1.248273 -0.009934
0.234381 -1.246118 0.911018
0.239188 -1.252798 0.375045
0.204704 -1.254679 0.657753
0.238572 -1.240323 -0.016993
0.278879 -1.251759 0.184386
0.238758 -1.250040 0.197028
0.232993 -1.259211 0.860011
0.171332 -1.251772 0.023422
0.269964 -1.250243 0.632315
0.204121 -1.251498 0.049710
0.200715 -1.246319 0.205678
0.233946 -1.254248 0.075973
0.197191 -1.246119 0.380650
0.163681 -1.249586 0.216349
0.267469 -1.240092 0.008246
0.158773 -1.250042 0.660321
0.191595 -1.255471 0.912627
0.162948 -1.251777 0.078335
0.267781 -1.246130 -0.019748
0.264990 -1.259279 0.647269
0.196036 -1.250546 0.069624
0.260815 -1.256992 0.893237
0.192499 -1.250197 0.357602
0.227130 -1.253326 0.063899
0.158041 -1.238988 -0.050736
0.155202 -1.246435 0.390265
0.262810 -1.249019 0.099208
0.192094 -1.252434 0.182589
0.156818 -1.256503 0.330288
0.222306 -1.253945 0.386866
0.157847 -1.248950 -0.017728
0.223916 -1.259165 0.210878
0.156381 -1.253740 0.153271
0.220004 -1.259618 0.653861
0.150808 -1.257957 0.788250
0.152979 -1.261257 0.546263
0.258224 -1.243120 0.052152
0.184723 -1.255991 0.573535
0.146700 -1.253832 0.913209
0.188006 -1.247750 -0.030470
0.254126 -1.250689 0.413134
0.250784 -1.255073 0.908129
0.254684 -1.248915 0.236129
0.184949 -1.248763 -0.018502
0.252629 -1.250774 0.359115
0.179606 -1.260718 0.822498
0.212548 -1.260758 0.604779
0.212893 -1.245551 -0.010263
0.209561 -1.250086 0.371726
0.205836 -1.254422 0.909719
0.175120 -1.255981 0.654437
0.247250 -1.247055 0.181045
0.208984 -1.242595 -0.018308
0.207139 -1.246337 0.194687
0.207419 -1.275476 0.866751
0.243362 -1.256512 0.632036
0.141730 -1.254045 0.024106
0.174486 -1.250770 0.050392
0.172146 -1.252593 0.205377
0.166565 -1.241418 0.377317
0.202300 -1.249538 0.075631
0.238875 -1.243356 0.006943
0.132190 -1.260313 0.663045
0.134079 -1.250868 0.216032
0.165011 -1.267750 0.917353
0.133309 -1.250051 0.079015
0.236140 -1.241416 -0.021089
0.233423 -1.255602 0.637929
0.234247 -1.269271 0.895962
0.166460 -1.254822 0.069310
0.197519 -1.253601 0.062582
0.161886 -1.249494 0.357273
0.127603 -1.251705 0.390973
0.130504 -1.251242 -0.049021
0.232176 -1.246302 0.097879
0.162488 -1.253714 0.182273
0.191684 -1.250244 0.383535
0.126189 -1.253798 0.329956
0.126141 -1.238236 -0.016078
0.193286 -1.256454 0.209548
0.187417 -1.250953 0.643505
0.122093 -1.270088 0.921960
0.125774 -1.255027 0.154943
0.120216 -1.261272 0.789924
0.227645 -1.245404 0.050827
0.121351 -1.255573 0.543918
0.154117 -1.254299 0.571205
0.224509 -1.249978 0.410817
0.157368 -1.245029 -0.029801
0.227119 -1.257179 0.235841
0.220250 -1.256401 0.899804
0.155297 -1.245034 -0.018823
0.151004 -1.265014 0.823195
0.221014 -1.246080 0.354774
0.181934 -1.257066 0.600448
0.184314 -1.250814 -0.010565
0.179269 -1.265704 0.911444
0.147506 -1.258263 0.653142
0.178973 -1.249386 0.368398
0.216637 -1.244345 0.177716
0.181414 -1.249851 -0.018598
0.178559 -1.250611 0.193384
0.214772 -1.258802 0.628732
0.173798 -1.258831 0.852377
0.111050 -1.246326 0.024769
0.144884 -1.253045 0.051076
0.142522 -1.250875 0.204057
0.103534 -1.253606 0.658731
0.138987 -1.247691 0.377026
0.173731 -1.255806 0.075330
0.134395 -1.255079 0.904013
0.105457 -1.252141 0.216725
0.209296 -1.246630 0.005629
0.203636 -1.259596 0.883627
0.104706 -1.253319 0.079710
0.206561 -1.243690 -0.023404
0.201847 -1.252925 0.631589
0.135793 -1.248106 0.068975
0.097956 -1.245997 0.388649
0.166925 -1.253886 0.061255
0.163055 -1.250522 0.383229
0.100851 -1.248511 -0.047343
0.131286 -1.248793 0.355943
0.202588 -1.249579 0.097565
0.132867 -1.253994 0.182955
0.163678 -1.257735 0.209231
0.159833 -1.257235 0.643214
0.095546 -1.248096 0.328621
0.091458 -1.255419 0.909616
0.098612 -1.250493 -0.015363
0.096138 -1.253306 0.155622
0.195893 -1.249260 0.407510
0.199084 -1.250673 0.048526
0.124492 -1.251597 0.568885
0.128785 -1.250292 -0.029104
0.088609 -1.256602 0.786580
0.089738 -1.250891 0.541573
0.195480 -1.251479 0.233498
0.191715 -1.266704 0.899506
0.124645 -1.240314 -0.018156
0.119370 -1.253347 0.814845
0.153322 -1.258356 0.599142
0.190434 -1.245381 0.350446
0.147682 -1.255044 0.898096
0.117908 -1.255569 0.647821
0.153705 -1.251095 -0.009893
0.149355 -1.245677 0.364077
0.185144 -1.254103 0.623411
0.149720 -1.239139 -0.018946
0.187069 -1.247628 0.175402
0.148943 -1.248894 0.191065
0.147213 -1.271109 0.857101
0.116271 -1.255311 0.051770
0.081445 -1.248601 0.026452
0.075908 -1.253891 0.657433
0.113946 -1.256150 0.203754
0.109348 -1.241983 0.373703
0.107800 -1.265360 0.907736
0.145123 -1.258074 0.075025
0.181724 -1.252888 0.004339
0.074737 -1.236434 0.214380
0.178048 -1.272865 0.888363
0.180037 -1.255939 -0.024679
0.075073 -1.251597 0.080389
0.107172 -1.248374 0.068667
0.070334 -1.247270 0.388352
0.172305 -1.258229 0.628277
0.137263 -1.248162 0.059932
0.134438 -1.250804 0.381921
0.065832 -1.263689 0.913348
0.103717 -1.259063 0.358655
0.174018 -1.254850 0.096263
0.070135 -1.237789 -0.044683
0.134026 -1.254017 0.208910
0.101181 -1.242293 0.181604
0.130263 -1.258541 0.638897
0.067887 -1.237773 -0.013706
0.168300 -1.254532 0.407219
0.064945 -1.248395 0.329292
0.169456 -1.247949 0.046206
0.065500 -1.249596 0.156289
0.166859 -1.250754 0.231190
0.095907 -1.257886 0.570582
0.099169 -1.250565 -0.028423
0.060013 -1.266896 0.793281
0.060114 -1.250189 0.542253
0.124693 -1.256646 0.596833
0.097097 -1.249572 -0.018445
0.090774 -1.256647 0.814540
0.158148 -1.253066 0.883135
0.160845 -1.244673 0.346128
0.120118 -1.265337 0.899808
0.089311 -1.256863 0.645515
0.120769 -1.247961 0.361771
0.124076 -1.249369 -0.010213
0.157539 -1.257385 0.622117
0.116572 -1.256435 0.844760
0.158499 -1.251903 0.173098
0.122210 -1.251399 -0.020232
0.119360 -1.250179 0.188748
0.048274 -1.252177 0.655133
0.052811 -1.248868 0.028144
0.085612 -1.249596 0.052435
0.083250 -1.242443 0.200412
0.081743 -1.244257 0.372407
0.147416 -1.257193 0.873022
0.078185 -1.255681 0.897408
0.115483 -1.255351 0.074704
0.047128 -1.238702 0.214084
0.151084 -1.249170 0.004007
0.149386 -1.250221 -0.026012
0.045417 -1.245876 0.080064
0.042712 -1.248545 0.388055
0.078599 -1.254644 0.069365
0.142733 -1.259534 0.623960
0.037185 -1.254998 0.907030
0.107674 -1.249442 0.058614
0.104838 -1.252096 0.381604
0.145411 -1.257119 0.095957
0.073040 -1.247364 0.355315
0.042604 -1.250047 -0.043969
0.103363 -1.245310 0.206573
0.100648 -1.253846 0.633574
0.072582 -1.245568 0.182299
0.138654 -1.248825 0.403896
0.039326 -1.246040 -0.012006
0.140870 -1.251218 0.044901
0.035306 -1.245685 0.329969
0.137217 -1.247038 0.229869
0.066270 -1.252188 0.567258
0.035880 -1.248879 0.156968
0.070515 -1.248829 -0.026733
0.095062 -1.251948 0.593511
0.028379 -1.256230 0.787930
0.030534 -1.256488 0.544939
0.131613 -1.270349 0.887863
0.061155 -1.255958 0.814220
0.066399 -1.238855 -0.017785
0.131251 -1.243965 0.342809
0.089512 -1.251670 0.885467
0.060680 -1.251161 0.640201
0.128919 -1.255678 0.618808
0.095474 -1.251636 -0.010519
0.089969 -1.266714 0.849482
0.091170 -1.247254 0.359452
0.090712 -1.246454 0.187436
0.092575 -1.248673 -0.020554
0.127898 -1.249197 0.169767
0.020636 -1.249463 0.652832
0.120811 -1.263474 0.873741
0.051589 -1.267962 0.903132
0.054617 -1.239720 0.199101
0.053118 -1.241542 0.370096
0.023166 -1.246144 0.029821
0.057039 -1.255866 0.053132
0.019535 -1.243970 0.214791
0.085885 -1.257630 0.075387
0.121503 -1.251447 0.002691
0.016718 -1.237146 0.080747
0.118732 -1.243503 -0.027347
0.011564 -1.269266 0.915767
0.014055 -1.241831 0.385739
0.048959 -1.249924 0.068041
0.076217 -1.251379 0.380295
0.079082 -1.252712 0.058309
0.115761 -1.252398 0.094635
0.111150 -1.252861 0.615615
0.043393 -1.240657 0.352989
0.074700 -1.240585 0.206260
0.012893 -1.240319 -0.041299
0.110031 -1.247109 0.401587
0.072071 -1.257142 0.631269
0.044001 -1.251843 0.183996
0.010603 -1.234307 -0.011327
0.111269 -1.250498 0.042582
0.107580 -1.242325 0.227547
0.005680 -1.243976 0.330648
0.007272 -1.252153 0.158662
0.041942 -1.254097 -0.027037
0.036673 -1.255489 0.568941
0.066441 -1.250242 0.591201
0.032551 -1.261258 0.816916
0.033049 -1.250447 0.638902
0.100264 -1.246973 0.612493
-0.001212 -1.263538 0.792617
-0.000106 -1.248800 0.542601
0.037838 -1.246122 -0.017087
0.098030 -1.250714 0.868486
0.100655 -1.240269 0.338477
0.061940 -1.264962 0.891181
0.060339 -1.256032 0.840153
0.062543 -1.244538 0.357141
0.065852 -1.249912 -0.010840
0.063931 -1.245940 -0.020865
0.061064 -1.238741 0.184110
0.098290 -1.247482 0.167447
-0.006985 -1.250750 0.652535
0.092171 -1.253782 0.864425
0.021966 -1.255285 0.891801
0.027024 -1.243989 0.198807
-0.005472 -1.245413 0.031511
0.024512 -1.242827 0.369788
0.027375 -1.250145 0.053807
-0.008067 -1.249238 0.216497
0.056225 -1.251910 0.075062
0.092900 -1.252715 0.001384
-0.016111 -1.251572 0.903451
-0.013570 -1.241108 0.384440
0.090142 -1.244772 -0.029654
-0.011844 -1.244420 0.081444
0.019256 -1.238204 0.067710
0.047581 -1.248664 0.378984
0.050456 -1.250983 0.056998
0.086163 -1.252680 0.093316
0.081567 -1.252168 0.611296
0.015790 -1.246930 0.355697
0.082434 -1.251385 0.401293
0.046086 -1.240863 0.205952
0.043468 -1.256440 0.627960
0.015368 -1.250120 0.183685
-0.016714 -1.241595 -0.039618
-0.017983 -1.239575 -0.009632
0.079985 -1.246594 0.227253
0.080649 -1.245787 0.040249
-0.022941 -1.244259 0.331338
0.008015 -1.247783 0.565625
0.038836 -1.254525 0.591906
0.012214 -1.241371 -0.025368
-0.022370 -1.249437 0.160339
0.005444 -1.253733 0.638607
0.072667 -1.251257 0.612199
0.009124 -1.235390 -0.016406
0.002914 -1.251575 0.810587
0.074130 -1.254534 0.339202
0.032333 -1.253286 0.878851
0.033750 -1.272309 0.848880
0.070495 -1.269006 0.875204
-0.031870 -1.246868 0.784270
-0.029725 -1.249102 0.544281
0.037236 -1.250180 -0.011149
0.032941 -1.241835 0.353819
-0.033628 -1.252027 0.653248
0.066573 -1.264054 0.867157
0.069681 -1.246759 0.165138
0.034313 -1.243218 -0.022186
0.032502 -1.245019 0.183807
-0.004657 -1.262568 0.895519
-0.000545 -1.252258 0.199516
-0.003105 -1.243104 0.368490
-0.001280 -1.245416 0.053494
-0.035119 -1.241693 0.033187
-0.036680 -1.249517 0.216188
-0.042738 -1.262852 0.911174
0.027575 -1.248181 0.074750
0.063260 -1.247993 0.000061
-0.041195 -1.242385 0.385142
-0.039485 -1.243684 0.082145
0.060495 -1.239049 -0.030978
-0.009428 -1.229478 0.067393
0.018965 -1.248950 0.378675
0.020795 -1.243265 0.055672
0.057563 -1.253954 0.092009
0.053789 -1.245672 0.397979
0.051996 -1.252476 0.606977
0.018527 -1.250132 0.206661
0.014851 -1.252738 0.623648
-0.013818 -1.246225 0.355376
-0.013303 -1.243397 0.183369
-0.044276 -1.250855 -0.038908
0.052382 -1.249863 0.226958
-0.046577 -1.242845 -0.008938
0.053064 -1.250050 0.038954
0.011197 -1.251811 0.589605
-0.020600 -1.249077 0.566317
-0.050992 -1.249714 0.161030
-0.052529 -1.250551 0.335024
0.045035 -1.249543 0.609900
-0.017424 -1.237649 -0.024692
-0.023185 -1.247034 0.633291
0.004735 -1.258582 0.879557
-0.025698 -1.257876 0.815283
-0.019469 -1.237661 -0.016714
0.004095 -1.255631 0.837546
-0.058335 -1.254392 0.547977
0.042464 -1.238850 0.332848
0.038912 -1.252354 0.857850
0.008529 -1.240448 -0.010467
-0.060284 -1.249306 0.651957
-0.061462 -1.262172 0.795964
0.005340 -1.244112 0.352522
0.037926 -1.251365 0.856838
0.004918 -1.249289 0.182512
0.005635 -1.235487 -0.022503
-0.032299 -1.253871 0.888213
0.040079 -1.245047 0.162818
-0.030723 -1.244381 0.368192
-0.029174 -1.249538 0.198204
-0.069410 -1.249148 0.901872
-0.029940 -1.240689 0.054180
-0.064389 -1.237790 0.214877
-0.062783 -1.238955 0.034886
-0.001096 -1.241455 0.074435
0.034619 -1.245263 -0.000250
-0.068827 -1.241663 0.384843
0.032956 -1.247312 -0.033269
-0.068053 -1.251957 0.083843
-0.008663 -1.250225 0.379378
-0.036977 -1.238743 0.067103
0.028895 -1.247227 0.090694
-0.007865 -1.236539 0.054357
0.026178 -1.247949 0.397683
-0.041409 -1.255499 0.359085
0.023404 -1.253773 0.604669
-0.010095 -1.249412 0.206352
-0.013762 -1.249038 0.619335
-0.071988 -1.243114 -0.036214
-0.073230 -1.242098 -0.008227
-0.041916 -1.245675 0.185062
0.023758 -1.248144 0.225647
-0.017419 -1.253106 0.590297
0.023446 -1.246333 0.036632
0.017414 -1.248830 0.607601
-0.078629 -1.251981 0.163733
-0.080213 -1.241829 0.333716
-0.049231 -1.248371 0.567007
-0.045009 -1.243910 -0.023985
-0.050792 -1.253320 0.635998
-0.023515 -1.263923 0.842254
-0.054343 -1.251184 0.811968
-0.024871 -1.247908 0.869228
-0.048085 -1.236932 -0.017024
-0.086936 -1.245587 0.649665
0.014881 -1.243126 0.331554
0.011330 -1.262648 0.861560
-0.087008 -1.245689 0.546659
0.010351 -1.263658 0.861550
-0.090125 -1.250482 0.790643
-0.023294 -1.238400 0.349208
-0.020073 -1.241720 -0.010775
-0.059910 -1.261166 0.891920
-0.023671 -1.252568 0.182206
-0.022966 -1.236758 -0.022811
-0.095065 -1.261417 0.911606
0.011516 -1.250326 0.161513
-0.057899 -1.232820 0.195879
-0.059319 -1.246669 0.367885
-0.091041 -1.237052 0.215588
-0.090357 -1.248218 0.036595
-0.058529 -1.245962 0.055875
-0.094513 -1.235924 0.383559
-0.029715 -1.240730 0.074125
0.004920 -1.232543 -0.001581
-0.095644 -1.258223 0.084550
0.003215 -1.230590 -0.033603
-0.036312 -1.245505 0.377075
-0.001458 -1.246228 0.396383
-0.065586 -1.239019 0.066793
0.000241 -1.241503 0.089380
-0.036418 -1.242815 0.053053
-0.037769 -1.243682 0.206048
-0.070105 -1.242788 0.356764
-0.042368 -1.249337 0.618026
-0.006188 -1.249084 0.598345
-0.100622 -1.242384 -0.034525
-0.003861 -1.249415 0.225350
-0.070573 -1.239956 0.184747
-0.101944 -1.230370 -0.006549
-0.045048 -1.253392 0.589999
-0.009204 -1.253106 0.608316
-0.005232 -1.237606 0.035315
-0.076868 -1.249656 0.568709
-0.077444 -1.248601 0.632705
-0.107266 -1.250260 0.164421
-0.072634 -1.245172 -0.023283
-0.108842 -1.242115 0.335407
-0.051178 -1.251225 0.833944
-0.081965 -1.259474 0.817676
-0.113585 -1.245866 0.650377
-0.074647 -1.248185 -0.016302
-0.052452 -1.262200 0.875942
-0.016306 -1.253949 0.853254
-0.050893 -1.240679 0.347911
-0.014708 -1.241424 0.328232
-0.019246 -1.250985 0.848220
-0.116627 -1.246993 0.549339
-0.086563 -1.254458 0.886626
-0.048644 -1.246992 -0.011080
-0.119735 -1.265786 0.803337
-0.121740 -1.248714 0.904306
-0.052351 -1.240851 0.178886
-0.051496 -1.246031 -0.024112
-0.017088 -1.249606 0.159203
-0.085970 -1.242939 0.365593
-0.084504 -1.237083 0.195594
-0.119631 -1.241334 0.216283
-0.086140 -1.249227 0.056579
-0.119013 -1.243493 0.037281
-0.122164 -1.232205 0.383256
-0.058270 -1.248006 0.073822
-0.022668 -1.235808 -0.002877
-0.123316 -1.253490 0.085246
-0.025374 -1.230863 -0.035912
-0.092158 -1.249275 0.067514
-0.064927 -1.247792 0.378767
-0.029076 -1.246508 0.395085
-0.027287 -1.253770 0.089092
-0.064049 -1.242081 0.052753
-0.097745 -1.242066 0.357464
-0.066388 -1.242964 0.205737
-0.070950 -1.252637 0.616719
-0.098184 -1.244226 0.186452
-0.129241 -1.242656 -0.033835
-0.032458 -1.250697 0.224041
-0.035764 -1.251392 0.597027
-0.130456 -1.245642 -0.005843
-0.072704 -1.247681 0.587695
-0.036853 -1.247396 0.605013
-0.105058 -1.251890 0.633409
-0.033816 -1.238882 0.033007
-0.105518 -1.244954 0.568395
-0.077789 -1.268502 0.844671
-0.135924 -1.246540 0.166108
-0.140240 -1.245146 0.651088
-0.101347 -1.232445 -0.022605
-0.042928 -1.260234 0.855971
-0.109632 -1.249775 0.813368
-0.138464 -1.241412 0.337086
-0.080085 -1.250507 0.865633
-0.103489 -1.217459 -0.015640
-0.078530 -1.237958 0.346610
-0.114192 -1.259755 0.890332
-0.076282 -1.245252 -0.011389
-0.148384 -1.254996 0.909015
-0.043285 -1.244709 0.326917
-0.047810 -1.262287 0.851911
-0.145264 -1.246285 0.551020
-0.148410 -1.250098 0.797003
-0.079923 -1.249118 0.179585
-0.078155 -1.243282 -0.024412
-0.113641 -1.234219 0.363276
-0.045675 -1.250884 0.156885
-0.113106 -1.238362 0.195276
-0.146296 -1.237595 0.215980
-0.148785 -1.237471 0.384963
-0.114776 -1.247500 0.057257
-0.147636 -1.244764 0.038961
-0.084911 -1.249259 0.074524
-0.051238 -1.240079 -0.004194
-0.151986 -1.245766 0.084917
-0.091582 -1.245060 0.377464
-0.055718 -1.246775 0.394784
-0.052855 -1.247124 -0.038209
-0.120779 -1.248549 0.067191
-0.091652 -1.244345 0.051443
-0.093043 -1.241225 0.205434
-0.055912 -1.253044 0.088769
-0.097604 -1.246918 0.612413
-0.126357 -1.245351 0.359144
-0.099346 -1.251956 0.590396
-0.156913 -1.238915 -0.032152
-0.063504 -1.244675 0.602709
-0.060104 -1.248968 0.223727
-0.126776 -1.250503 0.188133
-0.131733 -1.243174 0.629098
-0.159129 -1.239912 -0.004174
-0.065352 -1.250703 0.593692
-0.166897 -1.245426 0.651784
-0.105470 -1.249811 0.833340
-0.062413 -1.240155 0.031683
-0.069595 -1.251527 0.849661
-0.134141 -1.247250 0.570071
-0.129862 -1.246714 -0.022917
-0.165510 -1.253825 0.168778
-0.108690 -1.260813 0.871316
-0.167110 -1.241697 0.339760
-0.139256 -1.261086 0.823041
-0.131889 -1.246728 -0.016939
-0.174085 -1.250283 0.908724
-0.140855 -1.247056 0.881015
-0.070944 -1.236992 0.322603
-0.107139 -1.238247 0.345283
-0.104021 -1.230518 -0.011710
-0.076444 -1.245613 0.837579
-0.174909 -1.245595 0.553689
-0.108542 -1.248402 0.178266
-0.178069 -1.246421 0.798669
-0.106887 -1.227556 -0.024745
-0.141241 -1.240500 0.363974
-0.073309 -1.250157 0.155577
-0.140726 -1.241635 0.195971
-0.174901 -1.242878 0.217666
-0.176428 -1.237754 0.385655
-0.142491 -1.235769 0.056937
-0.113525 -1.250537 0.074206
-0.176313 -1.239040 0.040637
-0.078800 -1.248343 -0.005495
-0.178713 -1.235027 0.085609
-0.119233 -1.244343 0.378155
-0.083366 -1.244059 0.393474
-0.080516 -1.242388 -0.039521
-0.149421 -1.245827 0.066869
-0.083530 -1.254313 0.087462
-0.121643 -1.245509 0.206119
-0.120262 -1.244622 0.050124
-0.126221 -1.248222 0.612095
-0.090127 -1.250956 0.604417
-0.154046 -1.237635 0.358828
-0.087723 -1.251243 0.223421
-0.127998 -1.247260 0.589073
-0.154496 -1.236780 0.186812
-0.185576 -1.235188 -0.030475
-0.095233 -1.262805 0.855384
-0.092979 -1.249997 0.591384
-0.160334 -1.253473 0.633788
-0.193569 -1.246709 0.654488
-0.186796 -1.236177 -0.003486
-0.133104 -1.261108 0.841042
-0.089967 -1.248422 0.029382
-0.162793 -1.247550 0.572752
-0.157544 -1.240978 -0.022231
-0.136331 -1.251126 0.862999
-0.194182 -1.248108 0.169453
-0.201752 -1.256583 0.915422
-0.166943 -1.245398 0.815719
-0.168505 -1.251358 0.884710
-0.160519 -1.247001 -0.016258
-0.196734 -1.243996 0.342432
-0.134756 -1.239529 0.343976
-0.099582 -1.232284 0.320281
-0.133499 -1.248799 -0.012023
-0.136187 -1.244677 0.175954
-0.106028 -1.250938 0.838254
-0.135339 -1.248829 -0.027045
-0.168906 -1.234784 0.362660
-0.204561 -1.243906 0.556357
-0.168373 -1.239910 0.195661
-0.101934 -1.247440 0.153256
-0.207728 -1.246742 0.803339
-0.202577 -1.235157 0.216351
-0.204088 -1.234039 0.385343
-0.171112 -1.237046 0.057619
-0.204001 -1.233307 0.042323
-0.142228 -1.238817 0.073876
-0.110033 -1.240334 0.392174
-0.106545 -1.231610 -0.006817
-0.146881 -1.242626 0.377846
-0.207342 -1.235305 0.086290
-0.109087 -1.246661 -0.041836
-0.176171 -1.230089 0.066558
-0.112152 -1.254591 0.087143
-0.149349 -1.233786 0.204801
-0.117759 -1.253249 0.605111
-0.148882 -1.244900 0.049806
-0.154858 -1.245528 0.610773
-0.115378 -1.247520 0.222110
-0.183636 -1.244934 0.361505
-0.155651 -1.246553 0.589764
-0.121908 -1.249107 0.846076
-0.220244 -1.244995 0.655189
-0.187013 -1.245762 0.630484
-0.213244 -1.232451 -0.028786
-0.184040 -1.251069 0.189495
-0.214481 -1.229444 -0.002801
-0.160774 -1.249419 0.834724
-0.122573 -1.250312 0.589054
-0.118578 -1.248699 0.028064
-0.226455 -1.244867 0.909135
-0.191439 -1.248851 0.575434
-0.164957 -1.258438 0.867686
-0.186192 -1.238252 -0.021552
-0.196153 -1.250665 0.884402
-0.221889 -1.238384 0.170135
-0.196577 -1.256713 0.825399
-0.189134 -1.248275 -0.016576
-0.224429 -1.236279 0.343116
-0.163381 -1.237823 0.342656
-0.161186 -1.241066 -0.012339
-0.129130 -1.240584 0.319957
-0.164808 -1.244961 0.175636
-0.134639 -1.247257 0.832932
-0.196536 -1.237066 0.363354
-0.163967 -1.248103 -0.027365
-0.234196 -1.248214 0.561031
-0.196043 -1.233188 0.194346
-0.230213 -1.238431 0.218046
-0.231724 -1.237321 0.387038
-0.130565 -1.243724 0.150934
-0.237396 -1.246064 0.808008
-0.198781 -1.234314 0.059309
-0.169880 -1.236087 0.073566
-0.233586 -1.240591 0.044000
-0.137656 -1.243617 0.392869
-0.175515 -1.243919 0.379527
-0.136029 -1.247894 -0.008134
-0.236919 -1.242592 0.086967
-0.137704 -1.245935 -0.043156
-0.204777 -1.232368 0.066240
-0.144439 -1.245535 0.601807
-0.140821 -1.246872 0.085818
-0.177941 -1.241069 0.206488
-0.182483 -1.247822 0.610467
-0.177513 -1.242179 0.048484
-0.183290 -1.250843 0.592459
-0.149552 -1.251410 0.847769
-0.247904 -1.245290 0.656881
-0.143986 -1.249805 0.221793
-0.212276 -1.247224 0.364188
-0.215652 -1.247066 0.632166
-0.241883 -1.232725 -0.027104
-0.212702 -1.248353 0.191173
-0.189418 -1.259725 0.843413
-0.255127 -1.258171 0.921828
-0.243124 -1.228719 -0.001120
-0.151206 -1.245619 0.585731
-0.147215 -1.243977 0.025740
-0.223814 -1.256966 0.890099
-0.220094 -1.246154 0.576112
-0.192603 -1.245754 0.858367
-0.212941 -1.224510 -0.019863
-0.251502 -1.244673 0.173811
-0.224267 -1.248022 0.824082
-0.215889 -1.232534 -0.015888
-0.254054 -1.240578 0.346790
-0.191993 -1.241114 0.343339
-0.189819 -1.239341 -0.012659
-0.224185 -1.235350 0.363044
-0.193418 -1.247244 0.175318
-0.157773 -1.234878 0.317633
-0.259373 -1.240602 0.389733
-0.164248 -1.245586 0.830600
-0.192643 -1.238379 -0.028693
-0.257885 -1.232709 0.217732
-0.225618 -1.240480 0.195023
-0.262879 -1.242517 0.562706
-0.160177 -1.242018 0.149602
-0.267066 -1.245387 0.812677
-0.229320 -1.245608 0.059978
-0.165300 -1.243901 0.393561
-0.262240 -1.238869 0.045679
-0.199452 -1.243374 0.074242
-0.163726 -1.237161 -0.009451
-0.204148 -1.244212 0.380208
-0.265565 -1.240872 0.087646
-0.171103 -1.243820 0.601508
-0.165401 -1.235201 -0.044473
-0.233374 -1.236646 0.065925
-0.167542 -1.233136 0.083509
-0.205595 -1.238346 0.206177
-0.176210 -1.249706 0.846471
-0.274588 -1.240578 0.656579
-0.211119 -1.248127 0.611148
-0.210966 -1.244140 0.591145
-0.171640 -1.246083 0.220481
-0.205200 -1.232450 0.047167
-0.243305 -1.245363 0.631856
-0.239977 -1.235512 0.362868
-0.279831 -1.242460 0.913538
-0.270518 -1.233998 -0.025422
-0.216103 -1.247028 0.837105
-0.239439 -1.232624 0.189861
-0.271745 -1.230994 -0.000437
-0.251478 -1.251277 0.887785
-0.175827 -1.244255 0.024421
-0.180820 -1.242935 0.583398
-0.248748 -1.248455 0.579795
-0.222224 -1.254075 0.864044
-0.253918 -1.258337 0.833761
-0.243482 -1.233802 -0.020195
-0.280172 -1.238958 0.174487
-0.245491 -1.233818 -0.016217
-0.282730 -1.233873 0.347464
-0.219651 -1.236398 0.342027
-0.217489 -1.233608 -0.012973
-0.285077 -1.230872 0.387437
-0.185402 -1.233161 0.315324
-0.253784 -1.242650 0.365721
-0.222067 -1.240531 0.172993
-0.219350 -1.228638 -0.028999
-0.285549 -1.229987 0.218421
-0.253279 -1.236757 0.194711
-0.193857 -1.243915 0.828268
-0.292534 -1.242828 0.566376
-0.188787 -1.241302 0.147282
-0.299707 -1.261726 0.828329
-0.256985 -1.242878 0.060667
-0.289925 -1.234138 0.047366
-0.193924 -1.244196 0.393242
-0.228057 -1.246652 0.073925
-0.292259 -1.235134 0.088343
-0.231808 -1.242496 0.380898
-0.192343 -1.236438 -0.010771
-0.199728 -1.247123 0.603192
-0.202881 -1.246003 0.845170
-0.303241 -1.248877 0.663268
-0.262978 -1.239933 0.066598
-0.194054 -1.228477 -0.045798
-0.197104 -1.240425 0.083185
-0.235194 -1.243639 0.207851
-0.232834 -1.232719 0.046859
-0.239609 -1.246442 0.593827
-0.199299 -1.241361 0.219169
-0.306529 -1.240757 0.916239
-0.271948 -1.251663 0.636542
-0.240733 -1.250441 0.611819
-0.268606 -1.241802 0.366555
-0.244764 -1.257334 0.846794
-0.268064 -1.235907 0.191545
-0.300141 -1.234281 -0.024752
-0.299423 -1.225262 0.000249
-0.280141 -1.254591 0.892469
-0.276435 -1.242750 0.580481
-0.203505 -1.234525 0.022105
-0.248891 -1.245377 0.858739
-0.210420 -1.245249 0.583070
-0.271133 -1.233067 -0.019504
-0.281609 -1.244651 0.829440
-0.307874 -1.231235 0.176171
-0.275081 -1.238102 -0.016544
-0.248259 -1.239690 0.341710
-0.312388 -1.233174 0.351133
-0.313713 -1.235163 0.390123
-0.246116 -1.232884 -0.013293
-0.281439 -1.238935 0.364409
-0.314180 -1.233271 0.220105
-0.250698 -1.239816 0.172673
-0.215010 -1.233463 0.314993
-0.247961 -1.228913 -0.030318
-0.279982 -1.226028 0.193404
-0.222486 -1.244231 0.827949
-0.323192 -1.244148 0.572036
-0.218360 -1.247593 0.146957
-0.326426 -1.243034 0.823014
-0.220606 -1.236475 0.390938
-0.284694 -1.232151 0.061349
-0.255725 -1.241924 0.073613
-0.319559 -1.234425 0.049036
-0.258507 -1.234774 0.380594
-0.320903 -1.234414 0.089024
-0.226403 -1.242409 0.601890
-0.220009 -1.229706 -0.012085
-0.230529 -1.251305 0.848866
-0.328945 -1.238161 0.659972
-0.333241 -1.242051 0.921943
-0.290645 -1.235205 0.066286
-0.222636 -1.231752 -0.048115
-0.225709 -1.243704 0.082868
-0.263824 -1.244924 0.208533
-0.267287 -1.243736 0.595517
-0.299612 -1.248960 0.636232
-0.262407 -1.238006 0.045533
-0.268396 -1.242741 0.608504
-0.227935 -1.239649 0.218848
-0.272440 -1.249644 0.844479
-0.297276 -1.238096 0.368232
-0.327835 -1.227549 -0.023066
-0.297703 -1.235202 0.193214
-0.329022 -1.230545 0.000925
-0.305834 -1.244884 0.888174
-0.231183 -1.225797 0.020790
-0.306092 -1.241064 0.583150
-0.280504 -1.258715 0.868398
-0.300731 -1.236351 -0.019831
-0.240027 -1.245565 0.581739
-0.312269 -1.255975 0.841109
-0.338476 -1.239534 0.179838
-0.303719 -1.236378 -0.016864
-0.340401 -1.229441 0.389820
-0.341048 -1.233465 0.353815
-0.275935 -1.231977 0.340395
-0.308133 -1.230214 0.363104
-0.340867 -1.227541 0.219803
-0.275702 -1.236169 -0.014620
-0.278357 -1.235093 0.171361
-0.309579 -1.231321 0.194079
-0.276589 -1.228189 -0.030637
-0.244612 -1.233766 0.313663
-0.352867 -1.243459 0.576706
-0.245078 -1.231864 0.143646
-0.253082 -1.244570 0.826608
-0.248253 -1.236760 0.391630
-0.359098 -1.254376 0.837662
-0.313341 -1.230430 0.062028
-0.348209 -1.234702 0.050718
-0.284384 -1.238204 0.074290
-0.358603 -1.250465 0.669654
-0.254056 -1.243703 0.603583
-0.288129 -1.237077 0.382266
-0.348591 -1.227688 0.089710
-0.258193 -1.251610 0.850558
-0.360939 -1.242357 0.926636
-0.249580 -1.234991 -0.013411
-0.317355 -1.224470 0.065979
-0.294952 -1.242031 0.596207
-0.291514 -1.238203 0.209219
-0.328268 -1.247267 0.636911
-0.252204 -1.236036 -0.050442
-0.253390 -1.234978 0.081552
-0.302103 -1.260960 0.855158
-0.255590 -1.236927 0.218537
-0.298023 -1.245055 0.610176
-0.291047 -1.234287 0.044211
-0.326913 -1.240397 0.370904
-0.337489 -1.261217 0.902837
-0.356494 -1.225824 -0.021387
-0.325385 -1.229480 0.193901
-0.356708 -1.223815 0.001610
-0.307178 -1.247020 0.862091
-0.259781 -1.227075 0.018471
-0.335750 -1.243374 0.587822
-0.338969 -1.244279 0.837802
-0.327473 -1.222612 -0.018141
-0.268673 -1.239873 0.579416
-0.367154 -1.234820 0.181515
-0.331406 -1.229647 -0.016178
-0.369060 -1.228735 0.391501
-0.371695 -1.235775 0.358476
-0.336769 -1.231507 0.363787
-0.305556 -1.231280 0.340065
-0.303363 -1.232437 -0.014931
-0.369523 -1.226827 0.221484
-0.336275 -1.223591 0.193775
-0.306997 -1.231380 0.170038
-0.306177 -1.231473 -0.031964
-0.273251 -1.230060 0.312341
-0.276901 -1.235056 0.392309
-0.381555 -1.235767 0.577380
-0.283702 -1.250902 0.831271
-0.275649 -1.237165 0.143309
-0.386807 -1.243688 0.837344
-0.385309 -1.242757 0.669350
-0.342963 -1.231719 0.062700
-0.376894 -1.229982 0.053395
-0.281720 -1.241998 0.604273
-0.312072 -1.229479 0.073975
-0.386652 -1.235649 0.926344
-0.376265 -1.223961 0.090399
-0.316774 -1.238370 0.383948
-0.284871 -1.243911 0.847254
-0.278217 -1.231269 -0.014733
-0.323618 -1.243333 0.599889
-0.355948 -1.245563 0.638602
-0.346963 -1.226758 0.065651
-0.327805 -1.246256 0.848859
-0.320170 -1.233492 0.208896
-0.282992 -1.237268 0.081224
-0.281798 -1.236320 -0.052772
-0.284223 -1.236215 0.218218
-0.326673 -1.244360 0.610856
-0.319701 -1.229568 0.043888
-0.363190 -1.248513 0.897539
-0.355591 -1.235693 0.372581
-0.385155 -1.224099 -0.019706
-0.355991 -1.235781 0.196566
-0.385374 -1.221092 0.003290
-0.337821 -1.252353 0.867754
-0.364436 -1.239680 0.590500
-0.371639 -1.256622 0.852450
-0.290357 -1.231371 0.018134
-0.358059 -1.226905 -0.018477
-0.398705 -1.235034 0.396178
-0.395829 -1.231106 0.183194
-0.299276 -1.244195 0.581078
-0.358105 -1.220907 -0.016483
-0.400385 -1.231070 0.361154
-0.365427 -1.228802 0.364466
-0.334188 -1.229575 0.338744
-0.399158 -1.229122 0.223157
-0.332022 -1.226716 -0.015255
-0.365890 -1.226885 0.194449
-0.335628 -1.231665 0.169720
-0.334822 -1.226751 -0.033287
-0.301885 -1.227354 0.311020
-0.414980 -1.249066 0.676027
-0.304564 -1.231344 0.391998
-0.415362 -1.237963 0.934028
-0.304280 -1.235450 0.141989
-0.314526 -1.255228 0.856933
-0.312340 -1.244224 0.826947
-0.415193 -1.246110 0.588017
-0.310372 -1.242303 0.605954
-0.345436 -1.238664 0.386629
-0.371629 -1.227000 0.063377
-0.406547 -1.228270 0.055065
-0.407853 -1.231265 0.092055
-0.420486 -1.252045 0.850979
-0.342653 -1.234776 0.073638
-0.306840 -1.230546 -0.016053
-0.352284 -1.241639 0.601569
-0.385602 -1.244879 0.640272
-0.359468 -1.258590 0.861518
-0.376593 -1.225049 0.065320
-0.349794 -1.236786 0.210569
-0.311618 -1.236549 0.079904
-0.312867 -1.235502 0.218898
-0.307552 -1.219573 -0.053071
-0.356313 -1.245674 0.612528
-0.347350 -1.226839 0.042578
-0.395845 -1.261858 0.910189
-0.385250 -1.236995 0.376253
-0.411885 -1.212362 -0.018014
-0.384670 -1.231068 0.198244
-0.415016 -1.219379 0.003959
-0.394111 -1.241990 0.596172
-0.365489 -1.244666 0.864440
-0.398349 -1.244926 0.850143
-0.425408 -1.227314 0.395875
-0.318016 -1.224643 0.015820
-0.385738 -1.222174 -0.017789
-0.427454 -1.235416 0.186847
-0.327926 -1.236506 0.577752
-0.387735 -1.219194 -0.016813
-0.395068 -1.232103 0.367139
-0.363815 -1.232875 0.340418
-0.428798 -1.229418 0.223829
-0.431041 -1.231381 0.364814
-0.361641 -1.227001 -0.015584
-0.396494 -1.231188 0.195112
-0.363303 -1.223945 0.168406
-0.439712 -1.237341 0.673742
-0.440094 -1.230246 0.933747
-0.363482 -1.221029 -0.033611
-0.333204 -1.233638 0.393680
-0.341210 -1.248528 0.854630
-0.333462 -1.232674 0.311672
-0.337065 -1.234593 0.604651
-0.441925 -1.232404 0.587708
-0.331960 -1.224730 0.139672
-0.376063 -1.241976 0.389292
-0.435228 -1.223551 0.056742
-0.436526 -1.226548 0.092733
-0.401277 -1.226289 0.065047
-0.371316 -1.231058 0.074317
-0.345943 -1.255583 0.835582
-0.448205 -1.237362 0.849659
-0.413292 -1.242175 0.641962
-0.381954 -1.240953 0.605238
-0.385177 -1.243887 0.856220
-0.335485 -1.225825 -0.017375
-0.404269 -1.219322 0.065008
-0.378446 -1.236073 0.211250
-0.419565 -1.242142 0.900908
-0.341510 -1.233791 0.218578
-0.340269 -1.232832 0.079582
-0.386955 -1.246998 0.615188
-0.337152 -1.218858 -0.055402
-0.376002 -1.221121 0.041255
-0.414917 -1.235299 0.378923
-0.444450 -1.221670 -0.017366
-0.444651 -1.220664 0.004632
-0.416272 -1.238378 0.200900
-0.398130 -1.255014 0.874086
-0.454073 -1.227607 0.397558
-0.424780 -1.242313 0.600833
-0.432022 -1.255282 0.863779
-0.415385 -1.219460 -0.017120
-0.347628 -1.223932 0.014490
-0.458102 -1.236718 0.189509
-0.457467 -1.228704 0.225511
-0.419306 -1.226495 -0.017157
-0.423732 -1.227399 0.366817
-0.359538 -1.239838 0.580403
-0.393455 -1.230180 0.340086
-0.462691 -1.233701 0.369466
-0.390285 -1.225278 -0.015904
-0.462465 -1.218603 0.668473
-0.466812 -1.224548 0.935446
-0.426146 -1.228485 0.195781
-0.393906 -1.226248 0.168067
-0.394056 -1.227320 -0.034945
-0.361854 -1.232934 0.394361
-0.369894 -1.247844 0.858311
-0.364738 -1.233888 0.606342
-0.362112 -1.227969 0.310350
-0.403758 -1.235265 0.389979
-0.429939 -1.223570 0.065727
-0.464216 -1.218824 0.092420
-0.465864 -1.224848 0.058405
-0.472615 -1.230727 0.593367
-0.361580 -1.223025 0.138341
-0.400942 -1.231348 0.073988
-0.372613 -1.238892 0.826272
-0.479911 -1.238705 0.859310
-0.442957 -1.240492 0.643632
-0.410630 -1.240258 0.607920
-0.417846 -1.255233 0.868867
-0.364121 -1.223103 -0.018696
-0.433897 -1.219611 0.064680
-0.445270 -1.229440 0.896612
-0.408097 -1.233371 0.211918
-0.371143 -1.234088 0.219248
-0.368914 -1.229115 0.078261
-0.415619 -1.241308 0.613865
-0.367717 -1.224150 -0.057738
-0.445572 -1.236611 0.382584
-0.407585 -1.225427 0.040907
-0.476064 -1.225970 -0.015711
-0.474302 -1.218951 0.005303
-0.445941 -1.234675 0.202568
-0.483744 -1.226911 0.400229
-0.423829 -1.238315 0.866787
-0.455457 -1.241637 0.605492
-0.459739 -1.243597 0.863462
-0.445990 -1.222754 -0.017456
-0.377249 -1.222221 0.013159
-0.487796 -1.230016 0.192175
-0.487133 -1.227000 0.227182
-0.454371 -1.230710 0.369481
-0.447001 -1.216767 -0.017472
-0.423095 -1.230482 0.340757
-0.493537 -1.219849 0.938147
-0.388194 -1.233148 0.578079
-0.495125 -1.228940 0.678122
-0.493373 -1.230015 0.373124
-0.454805 -1.225772 0.195462
-0.420899 -1.223575 -0.017245
-0.424523 -1.228551 0.168730
-0.396588 -1.243143 0.858010
-0.423688 -1.224607 -0.036276
-0.391504 -1.232240 0.396031
-0.395377 -1.239210 0.611006
-0.493872 -1.219113 0.094092
-0.393700 -1.233287 0.311003
-0.497494 -1.229151 0.061060
-0.460562 -1.225867 0.066390
-0.433419 -1.233570 0.391649
-0.429601 -1.227630 0.073667
-0.505290 -1.233067 0.601009
-0.392169 -1.226327 0.137004
-0.460749 -1.203719 0.628402
-0.501669 -1.211975 0.850044
-0.406234 -1.249251 0.834907
-0.439323 -1.234566 0.609597
-0.442569 -1.237523 0.862578
-0.470975 -1.218737 0.893318
-0.393731 -1.222390 -0.021026
-0.464527 -1.219910 0.065341
-0.437751 -1.230668 0.212588
-0.398817 -1.227369 0.217936
-0.396594 -1.220391 0.076947
-0.446277 -1.240633 0.616525
-0.476232 -1.235924 0.385245
-0.437210 -1.224715 0.039578
-0.397335 -1.221436 -0.060069
-0.503961 -1.216238 0.005973
-0.507692 -1.226273 -0.015060
-0.476587 -1.234980 0.204229
-0.513420 -1.226215 0.402902
-0.451516 -1.230628 0.865474
-0.483171 -1.231938 0.606178
-0.487467 -1.235908 0.866149
-0.475646 -1.220040 -0.016786
-0.517779 -1.226306 0.227843
-0.515517 -1.220297 0.193861
-0.407839 -1.223517 0.010820
-0.486004 -1.234029 0.372134
-0.478594 -1.222067 -0.017817
-0.520851 -1.220223 0.677830
-0.454717 -1.232802 0.342409
-0.514189 -1.203252 0.369870
-0.486422 -1.228084 0.196114
-0.421797 -1.239498 0.582711
-0.451511 -1.225868 -0.017582
-0.427264 -1.248475 0.865674
-0.456130 -1.229864 0.168381
-0.420165 -1.232534 0.397713
-0.423062 -1.233509 0.610695
-0.453322 -1.221893 -0.037607
-0.525492 -1.222419 0.094747
-0.464077 -1.234883 0.395310
-0.491211 -1.225166 0.068051
-0.522270 -1.210405 0.061770
-0.494392 -1.217063 0.639043
-0.423355 -1.225594 0.309668
-0.530054 -1.214347 0.599719
-0.461217 -1.228938 0.074318
-0.420834 -1.218616 0.135680
-0.469008 -1.234880 0.614269
-0.473265 -1.239857 0.870241
-0.536374 -1.218344 0.864669
-0.504667 -1.230093 0.907957
-0.433903 -1.235569 0.828589
-0.495154 -1.220208 0.065003
-0.468387 -1.232972 0.214250
-0.425316 -1.224694 -0.022375
-0.430424 -1.231683 0.219588
-0.470990 -1.223912 0.610238
-0.429152 -1.228706 0.076592
-0.502968 -1.223208 0.385939
-0.531319 -1.209515 -0.031336
-0.531493 -1.208513 -0.012338
-0.466855 -1.220007 0.038247
-0.428911 -1.223738 -0.062418
-0.502337 -1.221246 0.204933
-0.538531 -1.224565 0.006600
-0.544083 -1.227526 0.405565
-0.509896 -1.220232 0.605873
-0.478194 -1.216937 0.859167
-0.513199 -1.221207 0.863852
-0.547454 -1.224603 0.229515
-0.507263 -1.220344 -0.017135
-0.552536 -1.225553 0.685487
-0.539304 -1.201549 0.194582
-0.514684 -1.228327 0.371813
-0.435524 -1.213792 0.009506
-0.512171 -1.227386 -0.018183
-0.483396 -1.226100 0.342087
-0.544874 -1.201566 0.374531
-0.452967 -1.236770 0.861381
-0.517068 -1.227389 0.196776
-0.482128 -1.226163 -0.018921
-0.447498 -1.222785 0.576414
-0.452732 -1.234823 0.614367
-0.484804 -1.224152 0.168059
-0.448837 -1.226834 0.397391
-0.484919 -1.224195 -0.038954
-0.557129 -1.222727 0.095400
-0.493753 -1.231190 0.396980
-0.527050 -1.222403 0.645688
-0.490872 -1.225230 0.073987
-0.498697 -1.233195 0.617940
-0.564723 -1.219704 0.609343
-0.531381 -1.222396 0.907655
-0.498984 -1.226155 0.866945
-0.453000 -1.220899 0.308336
-0.452433 -1.220927 0.135332
-0.568094 -1.216691 0.873319
-0.525790 -1.219507 0.064665
-0.464553 -1.232908 0.829248
-0.500027 -1.235285 0.216903
-0.454947 -1.222981 -0.023704
-0.459096 -1.225974 0.219267
-0.503639 -1.228253 0.615881
-0.457824 -1.219992 0.075268
-0.496501 -1.218296 0.037918
-0.564882 -1.202764 0.401314
-0.456584 -1.215008 -0.064731
-0.578760 -1.217790 0.960208
-0.511868 -1.226295 0.870804
-0.533653 -1.200504 0.602594
-0.541918 -1.215528 0.867531
-0.566296 -1.194817 0.226282
-0.531048 -1.201585 -0.016413
-0.570964 -1.202861 0.198236
-0.546333 -1.230646 0.374467
-0.535962 -1.207628 -0.017462
-0.470037 -1.225120 0.007132
-0.482661 -1.236097 0.866052
-0.516014 -1.229428 0.343729
-0.541821 -1.210648 0.195489
-0.575565 -1.196883 0.378191
-0.481425 -1.232129 0.617048
-0.513757 -1.223469 -0.019272
-0.517408 -1.228471 0.168703
-0.479492 -1.227149 0.400053
-0.482101 -1.229145 0.581036
-0.517511 -1.226506 -0.040312
-0.510606 -1.194397 0.388764
-0.554757 -1.215704 0.646377
-0.529692 -1.227489 0.874608
-0.557106 -1.209696 0.905362
-0.518582 -1.215507 0.074674
-0.527396 -1.225506 0.618617
-0.484624 -1.221220 0.308986
-0.485025 -1.221249 0.133971
-0.523804 -1.212541 0.214622
-0.498190 -1.235273 0.833878
-0.485565 -1.220277 -0.026045
-0.488751 -1.222274 0.218936
-0.536284 -1.230595 0.619523
-0.555432 -1.196770 0.385339
-0.490405 -1.226307 0.074912
-0.531051 -1.226625 0.036543
-0.488175 -1.216310 -0.067079
-0.545547 -1.231652 0.880420
-0.572291 -1.217886 0.618168
-0.600904 -1.204147 0.229894
-0.568657 -1.201833 0.868209
-0.604602 -1.206185 0.201853
-0.498708 -1.217396 0.005791
-0.547658 -1.227745 0.344361
-0.512092 -1.231450 0.619689
-0.504225 -1.211412 0.396748
-0.537539 -1.203704 -0.019569
-0.542162 -1.208726 0.166395
-0.514746 -1.230483 0.584657
-0.542258 -1.196714 0.392397
-0.542274 -1.206749 -0.041621
-0.591414 -1.227072 0.657965
-0.560409 -1.225823 0.881248
-0.556113 -1.218812 0.621275
-0.516254 -1.219536 0.308614
-0.514689 -1.216539 0.133619
-0.521372 -1.225590 0.220556
-0.516205 -1.216567 -0.027408
-0.567962 -1.229924 0.623152
-0.518113 -1.213579 0.073574
-0.589426 -1.201120 0.208936
-0.553859 -1.200857 0.035249
-0.519784 -1.215604 -0.069452
-0.575246 -1.224987 0.881082
-0.629618 -1.195438 0.230566
-0.530326 -1.215699 0.003434
-0.568461 -1.200980 0.339104
-0.542784 -1.229776 0.623343
-0.530949 -1.200696 0.396439
-0.545419 -1.223813 0.584307
-0.573932 -1.196038 0.396042
-0.591785 -1.228176 0.631884
-0.551852 -1.225888 0.311220
-0.546320 -1.214849 0.132262
-0.572496 -1.227093 0.627008
-0.558037 -1.202972 0.002113
-0.567554 -1.213057 0.403039
-0.612871 -1.196429 0.217597
-0.575617 -1.203148 0.306935
-0.577778 -1.207163 0.218909
-0.614376 -1.214517 0.221506
-1.893544 2.636576 1.877249
-1.835366 2.685805 1.876306
-1.682423 2.585320 1.774090
-1.817713 2.704691 1.871021
-1.724313 2.733786 1.796916
-1.658851 2.686077 1.809228
-1.663737 2.598211 1.769774
-1.702802 2.832511 1.837031
-1.840531 2.758257 1.879622
-1.651400 2.716785 1.820974
-1.679464 2.640861 1.774334
-1.927926 3.229810 1.981492
-1.855062 2.794918 1.877247
-1.707297 2.701313 1.791005
0.619652 3.117735 2.353822
0.668385 3.199080 2.342837
0.622545 3.097556 2.344886
0.543544 2.238522 1.708900
0.621823 3.132285 2.351373
0.511063 2.300815 1.757367
0.586632 2.281914 1.687548
0.526332 2.995621 1.789764
0.646772 2.471678 2.310574
0.725150 2.702649 2.590045
0.617293 2.310300 1.770990
0.550218 2.233275 1.716050
0.628203 3.172941 2.364004
0.576580 2.910166 1.748366
0.718077 2.495663 2.341229
0.570028 2.179566 1.686719
0.724843 2.687045 2.624081
0.730828 2.693042 2.627170
0.621062 2.295074 1.773032
0.548637 2.245092 1.716279
0.643058 2.907376 1.756777
0.514987 2.334407 1.761004
0.735999 3.177150 2.605750
0.790457 2.681187 2.631432
0.619573 2.298909 1.770191
0.563309 2.096311 1.683091
0.728474 2.686708 2.634255
0.553236 2.254883 1.717558
0.807586 3.168319 2.616118
0.627142 2.312656 1.777519
0.729358 2.673362 2.637328
0.557448 2.032852 1.699654
2.865285 2.822667 1.625191
2.970857 2.801096 1.647018
2.735667 2.155798 1.690506
2.917890 2.185196 1.763927
2.858593 2.034395 1.696025
2.832062 1.912612 1.648472
2.835335 1.814827 1.621204
