# .PCD v0.7 - Point Cloud Data file format
VERSION 0.7
FIELDS x y z
SIZE 4 4 4
TYPE F F F
COUNT 1 1 1
WIDTH 41
HEIGHT 1
VIEWPOINT 0 0 0 1
POINTS 41
DATA ascii
-0.601035 2.583404 -0.177878
-0.581794 2.586744 -0.197626
-0.580011 2.585676 -0.159605
-0.589836 2.639516 -0.149517
-0.553760 2.581058 -0.156297
-0.522503 2.508540 -0.169193
-0.575924 2.798685 -0.120727
-0.753710 3.755170 -0.089220
-0.544598 2.721168 -0.134643
-0.498941 2.486924 -0.183989
-0.517670 2.597598 -0.156790
-0.525322 2.641481 -0.151715
-0.492380 2.590969 -0.156508
-0.519758 2.742499 -0.120258
-0.461080 2.514442 -0.167424
-0.472571 2.687219 -0.135902
-0.430926 2.447894 -0.176316
-0.460734 2.638435 -0.154947
-0.458588 2.627459 -0.152963
-0.428768 2.583892 -0.155774
-0.402820 2.532291 -0.167664
-0.373648 2.462716 -0.173584
-0.391764 2.606419 -0.153255
-0.365197 2.580803 -0.156043
-0.341326 2.533164 -0.165947
-0.454297 3.460645 -0.152784
-0.315348 2.476538 -0.170861
-0.326957 2.586340 -0.154584
-0.418685 3.624420 -0.235775
-0.472581 4.340677 -0.210727
-0.281976 2.543993 -0.164235
-0.461657 4.347802 -0.200578
-0.257133 2.497348 -0.169131
-0.371262 3.697116 -0.240976
-0.304240 3.315747 -0.157637
-0.316303 3.737944 -0.258222
-0.344562 4.533880 -0.332613
-0.286121 3.736330 -0.247900
-0.219340 3.218887 -0.153072
-0.231663 3.813134 -0.262038
-0.169414 3.185620 -0.171667
