# .PCD v0.7 - Point Cloud Data file format
VERSION 0.7
FIELDS x y z
SIZE 4 4 4
TYPE F F F
COUNT 1 1 1
WIDTH 2513
HEIGHT 1
VIEWPOINT 0 0 0 1
POINTS 2513
DATA ascii
1.206230 -1.004238 -0.112327
1.203802 -1.005788 -0.039277
1.173571 -1.001192 -0.149667
1.173293 -1.006767 -0.071693
1.768142 -1.010694 0.323862
1.707493 -0.992506 -0.202838
1.706739 -0.995431 -0.023854
1.709826 -0.998891 0.021111
1.714149 -1.007037 0.224039
1.705012 -1.002129 0.133101
1.698874 -1.002603 -0.013890
1.695673 -0.999944 -0.170865
1.701221 -1.007373 0.246073
1.693900 -1.001822 0.003131
1.678807 -0.994473 -0.039769
1.684984 -0.999671 0.076175
1.692568 -1.011045 0.489075
1.674792 -0.995129 -0.074765
1.678826 -0.998175 -0.067800
1.680033 -1.002636 0.069165
1.685605 -1.013015 0.481078
1.681210 -1.008628 0.162116
1.685495 -1.013849 0.372068
1.679554 -1.012451 0.424098
1.683604 -1.015637 0.444061
1.683634 -1.015904 0.469060
1.679583 -1.015378 0.417073
1.662303 -1.003670 0.246211
1.673437 -1.011308 0.313120
1.665950 -1.003352 -0.060806
1.652823 -0.995729 -0.127710
1.655837 -0.997697 -0.128735
1.655100 -0.999965 0.082256
1.647868 -0.995992 -0.106698
1.659324 -1.009108 0.191173
1.654025 -1.003701 -0.036776
1.646136 -1.003597 0.041250
1.640335 -1.005209 0.187257
1.642991 -1.003992 -0.110750
1.627064 -0.998054 -0.022655
1.626885 -0.997328 -0.183654
1.631121 -1.002186 -0.007699
1.625892 -0.998240 -0.192659
1.634185 -1.005487 0.022266
1.633461 -1.010587 0.217233
1.622320 -1.003735 0.130317
1.626226 -1.009164 -0.013743
1.623521 -1.010879 0.237258
1.631997 -1.020704 0.599167
1.614321 -1.006176 0.072317
1.612040 -1.002681 -0.161656
1.615250 -1.006440 0.004310
1.600167 -0.999111 -0.036590
1.614829 -1.013459 0.471269
1.598155 -0.999826 -0.064591
1.599157 -1.000744 -0.071602
1.606850 -1.013467 0.466290
1.595377 -1.005289 0.069376
1.599532 -1.011228 0.159318
1.600834 -1.014936 0.412293
1.598873 -1.014369 0.451304
1.598768 -1.013393 0.360309
1.603882 -1.018108 0.430259
1.585600 -1.006201 0.240400
1.589294 -1.006974 -0.057626
1.581419 -1.003525 0.081429
1.598870 -1.017867 0.404274
1.574173 -0.998398 -0.121516
1.575183 -0.999390 -0.121527
1.594771 -1.016836 0.305290
1.569245 -1.000662 -0.100521
1.578629 -1.010668 0.185381
1.570359 -1.004386 -0.032552
1.572487 -1.009146 0.039405
1.563658 -1.008761 0.183437
1.564343 -1.006661 -0.104557
1.549376 -0.998651 -0.022448
1.553431 -1.002795 -0.006492
1.548472 -1.002155 0.023527
1.540217 -0.995097 -0.173399
1.540234 -0.996991 -0.183415
1.561775 -1.015070 0.210391
1.542639 -1.005319 0.127520
1.546533 -1.008776 -0.013524
1.549815 -1.013355 0.228438
1.537622 -1.006736 0.069520
1.549257 -1.021147 0.580387
1.535573 -1.007064 0.005521
1.546118 -1.018827 0.455410
1.527393 -1.002426 -0.152424
1.525489 -1.002429 -0.060416
1.525518 -1.002719 -0.033417
1.526503 -1.004336 -0.068435
1.534111 -1.014907 0.454475
1.539349 -1.021784 0.632410
1.518712 -1.007871 0.068561
1.532139 -1.020368 0.402433
1.531181 -1.020762 0.438433
1.528156 -1.019548 0.416451
1.518833 -1.010808 0.155540
1.520050 -1.013887 0.349517
1.516912 -1.010672 0.234549
1.505711 -1.003087 0.079636
1.518647 -1.011541 -0.055473
1.524172 -1.021333 0.393446
1.494510 -0.998073 -0.115298
1.495519 -0.999066 -0.115309
1.507043 -1.013407 0.295554
1.507944 -1.014164 0.180542
1.496618 -1.005276 -0.095363
1.500739 -1.010958 -0.029420
1.504833 -1.014661 0.038541
1.495979 -1.013245 0.179581
1.482733 -1.003339 -0.006307
1.482717 -1.003178 -0.021306
1.482649 -1.003339 -0.099310
1.479818 -1.006687 0.023673
1.493083 -1.018530 0.203545
1.470607 -1.000720 -0.165259
1.468608 -1.000638 -0.174253
1.474072 -1.010843 0.219661
1.477856 -1.011307 -0.013361
1.472980 -1.009839 0.125669
1.470942 -1.010221 0.066669
1.475373 -1.019218 0.440595
1.459902 -1.007658 0.006717
1.471524 -1.021564 0.562589
1.462359 -1.014316 0.440670
1.452814 -1.003021 -0.057227
1.450837 -1.002326 -0.030215
1.454824 -1.004920 -0.065249
1.474657 -1.026544 0.655542
1.460785 -1.009016 -0.145302
1.464602 -1.022168 0.613604
1.452202 -1.013123 0.229700
1.464432 -1.023791 0.392583
1.465474 -1.025139 0.425570
1.447049 -1.010427 0.068730
1.440037 -1.006586 0.078781
1.447333 -1.014357 0.340706
1.451417 -1.017995 0.402667
1.446164 -1.013341 0.152711
1.446969 -1.012115 -0.053288
1.450452 -1.021780 0.381637
1.433890 -1.005587 -0.111201
1.423855 -0.999671 -0.110125
1.435248 -1.014674 0.175729
1.437375 -1.017866 0.287700
1.433136 -1.014203 0.037734
1.422964 -1.005908 -0.089174
1.425071 -1.010584 -0.025217
1.419064 -1.006844 -0.005169
1.425279 -1.013751 0.175763
1.418053 -1.006679 -0.021166
1.419032 -1.009876 -0.095198
1.416147 -1.010192 0.024811
1.420348 -1.016017 0.196757
1.399968 -1.002349 -0.157087
1.415399 -1.017229 0.212760
1.416207 -1.016786 -0.013246
1.397983 -1.003268 -0.166090
1.400275 -1.008380 0.123871
1.407267 -1.013683 0.063806
1.411643 -1.021558 0.425741
1.408663 -1.021656 0.432748
1.394235 -1.010178 0.007868
1.391177 -1.008521 -0.055113
1.386186 -1.005860 -0.027076
1.390175 -1.008453 -0.062110
1.403816 -1.024937 0.547737
1.408930 -1.029872 0.637685
1.392136 -1.010620 -0.138136
1.396865 -1.023519 0.596768
1.382477 -1.011599 0.223894
1.391674 -1.020228 0.380802
1.388687 -1.018562 0.409825
1.378347 -1.009044 0.076921
1.390728 -1.023367 0.392778
1.384647 -1.018764 0.332831
1.374372 -1.009989 0.068923
1.383500 -1.017809 0.150836
1.380303 -1.013651 -0.051128
1.389987 -1.028095 0.644749
1.385758 -1.025192 0.372775
1.359192 -1.001223 -0.104970
1.360201 -1.002216 -0.104981
1.363517 -1.011175 0.170944
1.366437 -1.013708 0.036910
1.370690 -1.020324 0.281852
1.359392 -1.011135 -0.021052
1.359406 -1.011307 -0.005053
1.351293 -1.004513 -0.083977
1.365603 -1.018185 0.172879
1.357401 -1.011139 -0.022047
1.364058 -1.025330 0.647839
1.355364 -1.011411 -0.091047
1.347438 -1.007733 0.026009
1.360683 -1.021431 0.191864
1.350675 -1.016646 0.204931
1.346491 -1.013322 -0.013038
1.336326 -1.004916 -0.149945
1.347591 -1.017115 0.060930
1.333334 -1.004842 -0.158937
1.343886 -1.018925 0.410936
1.344646 -1.016808 0.122942
1.345925 -1.022030 0.421905
1.331572 -1.012675 0.009007
1.343172 -1.029196 0.619857
1.318499 -1.004404 -0.024891
1.328496 -1.013176 -0.131995
1.333089 -1.024321 0.531922
1.333131 -1.024851 0.580919
1.329814 -1.018973 0.219965
1.336990 -1.026586 0.373887
1.334000 -1.024889 0.399910
1.330730 -1.020421 0.076945
1.325994 -1.022745 0.380948
1.333273 -1.031709 0.659862
1.333261 -1.032386 0.629855
1.317932 -1.018199 0.325005
1.318821 -1.019280 0.147987
1.329824 -1.027358 0.069887
1.292517 -0.999791 -0.099788
1.293526 -1.000784 -0.099799
1.322065 -1.027596 0.363915
1.308887 -1.019574 0.168010
1.304760 -1.015176 0.036053
1.288646 -1.003688 -0.019809
1.287664 -1.003869 -0.003808
1.299879 -1.015652 0.169066
1.310023 -1.024737 0.275966
1.292659 -1.009012 -0.079867
1.305319 -1.027614 0.630966
1.296757 -1.014643 -0.018924
1.293808 -1.015153 0.026080
1.292940 -1.016880 0.185074
1.292964 -1.018022 0.198064
1.278843 -1.010612 0.058158
1.291186 -1.024225 0.400022
1.291210 -1.025366 0.413013
1.272691 -1.006483 -0.142798
1.270680 -1.005401 -0.151784
1.273918 -1.011322 0.120166
1.261776 -1.004497 -0.056751
1.271898 -1.014149 0.010143
1.261796 -1.005584 -0.048760
1.282438 -1.030506 0.603997
1.263861 -1.009863 -0.021801
1.266059 -1.014402 0.214163
1.271382 -1.024177 0.566078
1.278275 -1.027961 0.366020
1.278292 -1.028211 0.389019
1.254929 -1.006980 0.075249
1.273389 -1.027655 0.519041
1.270496 -1.028204 0.660048
1.271502 -1.029981 0.640030
1.268289 -1.025103 0.372070
1.271495 -1.030701 0.614022
1.255205 -1.016593 0.316174
1.253101 -1.015758 0.145180
1.247050 -1.012980 0.069216
1.255312 -1.022997 0.353119
1.247066 -1.015614 0.035192
1.250185 -1.019989 0.164151
1.241166 -1.015078 0.166216
1.250601 -1.030191 0.644079
1.236252 -1.015210 0.267230
1.246572 -1.027896 0.614107
1.237041 -1.014489 -0.075778
1.230084 -1.010656 0.027276
1.236089 -1.015136 -0.016779
1.237238 -1.018263 0.180198
1.230229 -1.014434 0.191249
1.232190 -1.017959 0.056208
1.238486 -1.027686 0.404121
1.228418 -1.019564 0.386216
1.223270 -1.017710 0.119234
1.212339 -1.014780 0.210290
1.219259 -1.019573 0.011224
1.224696 -1.030802 0.589134
1.202168 -1.007362 -0.019629
1.209467 -1.017365 0.354279
1.220559 -1.027546 0.378164
1.212314 -1.018309 0.074254
1.216735 -1.028470 0.645175
1.216673 -1.027484 0.554181
1.219770 -1.033223 0.624126
1.217750 -1.031978 0.600140
1.217702 -1.031992 0.509137
1.208556 -1.023453 0.361228
1.204530 -1.021941 0.311249
1.203479 -1.024141 0.144226
1.200601 -1.024343 0.345239
1.190380 -1.014423 0.069340
1.200438 -1.023982 0.035231
1.189458 -1.016418 0.160328
1.190496 -1.019445 0.163299
1.188803 -1.024440 0.622276
1.197861 -1.033148 0.601177
1.180424 -1.015045 0.027356
1.177351 -1.012004 -0.070613
1.186567 -1.022619 0.176281
1.187581 -1.023720 0.186269
1.187631 -1.024567 0.264264
1.183450 -1.019580 -0.013692
1.176692 -1.020049 0.393335
1.184541 -1.024302 0.053266
1.186762 -1.029814 0.378224
1.171588 -1.020105 0.118336
1.168687 -1.023096 0.207320
1.164577 -1.019999 0.011349
1.174986 -1.035071 0.577213
1.155905 -1.019731 0.625395
1.162793 -1.023673 0.348334
1.163635 -1.021680 0.073339
1.161809 -1.023877 0.366335
1.156552 -1.015743 -0.017595
1.162948 -1.028782 0.542295
1.171051 -1.037463 0.610202
1.167033 -1.035254 0.588230
1.154839 -1.023791 0.353351
1.153941 -1.026331 0.494336
1.150833 -1.023301 0.305363
1.153816 -1.028511 0.142303
1.151941 -1.030678 0.340296
1.144745 -1.021784 0.069381
1.147748 -1.024382 0.034350
1.152871 -1.031694 0.158278
1.141815 -1.022807 0.161383
1.138050 -1.024661 0.605392
1.136060 -1.025428 0.582389
1.137872 -1.024959 0.172373
1.138884 -1.026050 0.181361
1.130751 -1.017445 0.028451
1.138032 -1.030309 0.388333
1.125714 -1.015440 -0.067524
1.128768 -1.019027 -0.011560
1.131826 -1.022690 0.051402
1.132949 -1.025944 0.259379
1.134016 -1.028111 0.367361
1.119907 -1.021489 0.116443
1.121983 -1.025432 0.204406
1.114194 -1.025962 0.615435
1.117214 -1.030355 0.561387
1.108910 -1.018095 0.072496
1.111901 -1.020420 0.012466
1.114089 -1.025995 0.342424
1.118128 -1.030151 0.359379
1.105882 -1.017161 -0.015492
1.108211 -1.025716 0.588450
1.111239 -1.029521 0.572408
1.110222 -1.029072 0.530413
1.111175 -1.031077 0.347385
1.107268 -1.032621 0.486386
1.102164 -1.027634 0.300435
1.096093 -1.023939 0.140475
1.099211 -1.029006 0.332430
1.096054 -1.023775 0.033472
1.095335 -1.029866 0.592441
1.100158 -1.030074 0.155411
1.094128 -1.025162 0.159469
1.089074 -1.021219 0.069513
1.097405 -1.036649 0.573375
1.091182 -1.027361 0.175457
1.091192 -1.028285 0.168448
1.092302 -1.031597 0.381424
1.083093 -1.020820 0.028528
1.082123 -1.022057 0.049520
1.085291 -1.028389 0.357468
1.073045 -1.014893 -0.063400
1.080122 -1.022430 -0.009482
1.082261 -1.027301 0.255480
1.078314 -1.030747 0.201455
1.082530 -1.039184 0.611386
1.068215 -1.020883 0.115563
1.061213 -1.018447 0.070599
1.067381 -1.027443 0.349515
1.075530 -1.037607 0.553413
1.065230 -1.022797 0.013549
1.067388 -1.028302 0.336507
1.067521 -1.032929 0.577474
1.066520 -1.032773 0.562477
1.042106 -1.003672 -0.013228
1.063506 -1.031339 0.520495
1.058416 -1.026382 0.337544
1.050434 -1.024976 0.294572
1.056566 -1.033917 0.476485
1.045343 -1.021159 0.032607
1.051430 -1.028282 0.139534
1.050617 -1.033076 0.578510
1.050514 -1.030328 0.326525
1.044414 -1.023519 0.156593
1.047434 -1.026443 0.151559
1.040391 -1.021601 0.069615
1.043467 -1.026681 0.170567
1.044631 -1.031905 0.558532
1.048585 -1.033869 0.374498
1.027337 -1.012261 0.029727
1.039476 -1.025636 0.163584
1.037562 -1.027658 0.347578
1.022336 -1.009484 0.046764
1.031449 -1.022844 -0.006380
1.016322 -1.007374 -0.059208
1.035591 -1.030629 0.251551
1.026560 -1.025097 0.196618
1.024695 -1.027432 0.592617
1.023535 -1.023225 0.114638
1.010468 -1.012830 0.069759
1.024690 -1.031589 0.331568
1.019659 -1.026734 0.341624
1.025787 -1.035874 0.541535
1.008475 -1.013235 0.013758
1.025809 -1.037148 0.566524
1.019774 -1.032028 0.551584
1.003487 -1.012001 -0.011222
1.014789 -1.031621 0.510596
1.007690 -1.023696 0.329676
0.996666 -1.017310 0.286756
1.008896 -1.036283 0.566568
1.006849 -1.033216 0.467596
1.003697 -1.026478 0.031646
0.995736 -1.021659 0.317719
0.990642 -1.014708 0.135786
1.001737 -1.026836 0.154652
0.994701 -1.020822 0.148722
1.001906 -1.034130 0.547601
1.000840 -1.031171 0.367623
1.000775 -1.028965 0.165635
0.985668 -1.015027 0.069791
0.995779 -1.026938 0.159664
0.983656 -1.013605 0.029807
0.986695 -1.017758 0.045763
0.984787 -1.019941 0.335759
0.987797 -1.026209 -0.004320
0.974694 -1.012735 -0.056171
0.993024 -1.038642 0.587579
0.978810 -1.020427 0.192760
0.985887 -1.028967 0.246669
0.972828 -1.019611 0.113777
0.971808 -1.018127 0.068791
0.968875 -1.018915 0.321800
0.976945 -1.027988 0.333700
0.981068 -1.037114 0.530615
0.979060 -1.035369 0.552636
0.968842 -1.019561 0.014781
0.976050 -1.033272 0.541662
0.959817 -1.013355 -0.010144
0.970064 -1.031882 0.501685
0.966995 -1.026957 0.323729
0.956999 -1.022597 0.283788
0.961120 -1.031489 0.550708
0.952949 -1.018871 0.031820
0.952993 -1.021195 0.152803
0.951031 -1.021452 0.357814
0.956066 -1.026935 0.313751
0.953018 -1.023120 0.145785
0.964182 -1.038497 0.461633
0.952009 -1.022018 0.135797
0.953036 -1.024284 0.160775
0.948094 -1.023369 0.530809
0.951062 -1.025246 0.155770
0.948098 -1.025172 0.329784
0.946016 -1.020058 0.043823
0.945007 -1.018912 0.029835
0.945044 -1.021351 0.069814
0.950259 -1.036855 0.575681
0.937088 -1.019725 0.189850
0.941112 -1.024596 -0.002211
0.930016 -1.012117 -0.053075
0.935167 -1.024323 0.242813
0.931118 -1.019437 0.067859
0.933212 -1.026248 0.325803
0.932204 -1.025179 0.318814
0.928136 -1.018953 0.112872
0.930259 -1.027363 0.516806
0.939348 -1.038583 0.542684
0.935320 -1.034503 0.532730
0.924132 -1.016921 0.015894
0.939442 -1.045273 0.696628
0.921164 -1.017683 -0.008108
0.922293 -1.026131 0.489832
0.927305 -1.030222 0.318776
0.913290 -1.021890 0.278880
0.913335 -1.024683 0.533864
0.915286 -1.023159 0.030853
0.915355 -1.027699 0.353824
0.912301 -1.022496 0.150870
0.914342 -1.026549 0.156829
0.912355 -1.026229 0.308842
0.915424 -1.032585 0.525786
0.912340 -1.025323 0.134843
0.909322 -1.022443 0.143876
0.921475 -1.039754 0.453704
0.912397 -1.029533 0.153804
0.910411 -1.029400 0.322816
0.903310 -1.018371 0.041922
0.905334 -1.021236 0.030890
0.909495 -1.035073 0.565775
0.900351 -1.019713 0.070916
0.901415 -1.024990 0.187869
0.895407 -1.020975 -0.000090
0.891390 -1.017456 -0.050051
0.888401 -1.016761 0.066966
0.891469 -1.023627 0.238903
0.895517 -1.029431 0.314844
0.896537 -1.031490 0.320822
0.885430 -1.017278 0.111968
0.893568 -1.032587 0.509826
0.891558 -1.030733 0.521848
0.890552 -1.029795 0.526859
0.882455 -1.017249 0.015970
0.882557 -1.025499 0.311905
0.876472 -1.015043 -0.006999
0.893703 -1.043501 0.683730
0.883608 -1.030380 0.483864
0.886721 -1.040879 0.530761
0.878642 -1.029940 0.348871
0.872586 -1.022171 0.274953
0.873582 -1.021476 0.029947
0.873607 -1.023782 0.148930
0.871623 -1.023831 0.151933
0.876693 -1.032485 0.305849
0.874699 -1.032805 0.515858
0.868631 -1.022744 0.141949
0.873673 -1.028620 0.133883
0.872682 -1.028804 0.149884
0.870695 -1.030035 0.442889
0.870684 -1.028641 0.315896
0.868650 -1.023626 0.039936
0.867657 -1.023535 0.030938
0.864694 -1.027277 0.551931
0.856652 -1.017056 0.071021
0.859690 -1.022276 0.183971
0.855738 -1.022298 0.000970
0.850713 -1.018049 0.066022
0.848709 -1.015823 -0.046958
0.855795 -1.028694 0.309922
0.857820 -1.031724 0.313890
0.847753 -1.019567 0.111015
0.851795 -1.025923 0.236952
0.852826 -1.030959 0.513915
0.855857 -1.034992 0.518871
0.858886 -1.038817 0.504829
0.845792 -1.020551 0.017004
0.847881 -1.030737 0.307916
0.837788 -1.015370 -0.004933
0.844882 -1.030606 0.475930
0.851978 -1.043722 0.672801
0.841917 -1.032059 0.514923
0.838897 -1.027191 0.342967
0.833890 -1.020788 0.030023
0.837928 -1.027056 0.147962
0.833907 -1.024449 0.271999
0.837954 -1.029068 0.148942
0.837984 -1.035017 0.507901
0.836977 -1.031748 0.300925
0.828918 -1.021025 0.139035
0.832981 -1.028085 0.146960
0.831975 -1.028863 0.307962
0.835005 -1.030917 0.132929
0.834000 -1.034477 0.546915
0.828959 -1.022916 0.038012
0.826962 -1.021855 0.031025
0.831009 -1.032291 0.436936
0.822966 -1.021545 0.182042
0.819992 -1.020348 0.071053
0.816038 -1.021325 0.066050
0.818078 -1.024619 0.003012
0.817091 -1.028961 0.305986
0.812061 -1.019146 -0.043927
0.819114 -1.031968 0.307953
0.820126 -1.036184 0.509920
0.820126 -1.036173 0.508920
0.809054 -1.018863 0.110088
0.819147 -1.037039 0.495913
0.814130 -1.029193 0.233985
0.809139 -1.023843 0.017035
0.807142 -1.026995 0.302021
0.803136 -1.019656 -0.003916
0.807185 -1.032847 0.469972
0.805182 -1.029409 0.338002
0.811234 -1.041933 0.661886
0.810251 -1.040245 0.507897
0.799223 -1.024053 0.029050
0.799229 -1.026342 0.146033
0.797210 -1.025711 0.269048
0.800247 -1.028324 0.145012
0.804282 -1.039216 0.500916
0.799253 -1.034672 0.538970
0.794244 -1.024292 0.138060
0.799284 -1.033007 0.296975
0.798278 -1.032070 0.301986
0.794257 -1.025359 0.144050
0.796288 -1.027166 0.037025
0.795303 -1.029221 0.132011
0.791277 -1.023148 0.032071
0.788276 -1.023802 0.180077
0.793332 -1.035543 0.431966
0.784360 -1.025645 0.072060
0.778318 -1.018612 0.065138
0.782379 -1.030196 0.302029
0.784402 -1.033193 0.302997
0.778392 -1.022953 0.005093
0.782383 -1.034379 0.499998
0.786429 -1.040384 0.502933
0.773386 -1.018472 -0.041858
0.783428 -1.038253 0.488958
0.773396 -1.022148 0.110113
0.772416 -1.025491 0.231088
0.773377 -1.032533 0.689039
0.771451 -1.023151 0.018102
0.772460 -1.030232 0.298044
0.768480 -1.022954 -0.001892
0.770459 -1.029644 0.334055
0.767439 -1.029079 0.462071
0.773528 -1.040434 0.497952
0.768469 -1.036136 0.649009
0.765556 -1.027310 0.028071
0.761507 -1.023630 0.145118
0.767576 -1.032553 0.142022
0.769559 -1.040422 0.493958
0.763498 -1.032863 0.530043
0.762533 -1.028969 0.267070
0.763597 -1.031530 0.137037
0.765596 -1.036247 0.293996
0.759581 -1.025434 0.035099
0.764590 -1.035287 0.297007
0.760582 -1.028596 0.141071
0.759606 -1.029494 0.131063
0.758630 -1.028410 0.032071
0.751574 -1.023061 0.177141
0.754611 -1.033789 0.426042
0.748685 -1.026929 0.072102
0.748686 -1.026840 0.064102
0.753731 -1.039400 0.298982
0.747677 -1.031443 0.299070
0.747653 -1.034596 0.494048
0.751698 -1.040568 0.493983
0.748777 -1.032203 0.006047
0.751738 -1.043470 0.484954
0.744795 -1.029726 -0.039925
0.736690 -1.020428 0.109185
0.742691 -1.039737 0.684013
0.737793 -1.026419 0.018120
0.738766 -1.030753 0.230086
0.745824 -1.041431 0.295974
0.737754 -1.031865 0.330081
0.735842 -1.028226 -0.000896
0.742773 -1.046940 0.701943
0.737777 -1.037292 0.459034
0.739793 -1.040609 0.489000
0.729823 -1.026873 0.144133
0.733794 -1.038065 0.526035
0.730880 -1.028585 0.028109
0.732878 -1.032786 0.138070
0.734833 -1.040617 0.486006
0.736819 -1.045359 0.644964
0.730866 -1.034205 0.265065
0.732894 -1.038490 0.292021
0.730885 -1.036493 0.291043
0.727920 -1.029665 0.033103
0.728926 -1.033785 0.135065
0.730947 -1.036826 0.140033
0.722912 -1.025691 0.032149
0.728967 -1.036742 0.131036
0.721886 -1.027290 0.176142
0.719932 -1.037029 0.422059
0.715994 -1.028090 0.063136
0.716032 -1.031201 0.073106
0.713964 -1.031671 0.295115
0.719990 -1.043751 0.486996
0.716963 -1.039795 0.489039
0.721059 -1.043621 0.294986
0.714107 -1.033500 0.008082
0.719037 -1.046683 0.479967
0.709113 -1.029040 -0.036869
0.711093 -1.033651 0.110090
0.711965 -1.044336 0.715012
0.710983 -1.043924 0.677015
0.708058 -1.036075 0.327080
0.710181 -1.036643 0.018057
0.710115 -1.040674 0.292030
0.707107 -1.035999 0.229078
0.711039 -1.049116 0.693964
0.700146 -1.026518 0.000170
0.701029 -1.033512 0.452121
0.705088 -1.041794 0.480035
0.698010 -1.032243 0.516141
0.699152 -1.031110 0.143133
0.697179 -1.027841 0.027162
0.700184 -1.034014 0.135102
0.703142 -1.044812 0.480007
0.702101 -1.046568 0.637998
0.700189 -1.039698 0.287052
0.695151 -1.032458 0.262130
0.695236 -1.030913 0.032134
0.698076 -1.044274 0.699030
0.698254 -1.038054 0.137064
0.701292 -1.043011 0.135010
0.701244 -1.044715 0.289001
0.692192 -1.030508 0.174149
0.689226 -1.025969 0.033191
0.696300 -1.040004 0.131047
0.685319 -1.031335 0.063144
0.684220 -1.036263 0.417114
0.690195 -1.049432 0.706988
0.684288 -1.036891 0.293101
0.687259 -1.043996 0.485035
0.685319 -1.039840 0.289070
0.688290 -1.046934 0.480004
0.681366 -1.032489 0.074138
0.683188 -1.044508 0.709046
0.684301 -1.044888 0.473030
0.680437 -1.034778 0.009113
0.679423 -1.036905 0.110098
0.678206 -1.042471 0.702073
0.678355 -1.039284 0.324086
0.678485 -1.035307 -0.034892
0.674464 -1.032935 0.019139
0.672206 -1.037107 0.665132
0.680439 -1.045884 0.289015
0.675261 -1.044275 0.682057
0.672419 -1.036256 0.227119
0.670496 -1.031767 0.001155
0.670316 -1.038430 0.512113
0.678424 -1.050973 0.475976
0.671368 -1.040736 0.450086
0.670498 -1.037220 0.132106
0.669548 -1.036064 0.027114
0.668500 -1.036346 0.142118
0.673453 -1.050013 0.475991
0.669513 -1.043893 0.282048
0.667592 -1.038114 0.030096
0.663294 -1.039415 0.686120
0.665494 -1.038690 0.261104
0.667577 -1.041279 0.135069
0.665542 -1.038715 0.173099
0.666377 -1.045774 0.630050
0.669549 -1.046950 0.287017
0.667603 -1.043258 0.133049
0.663629 -1.038179 0.033100
0.663629 -1.042256 0.130064
0.656671 -1.037555 0.062116
0.656430 -1.046577 0.695056
0.655609 -1.042115 0.292082
0.652507 -1.040200 0.478115
0.652546 -1.040491 0.414108
0.655637 -1.044049 0.286062
0.656572 -1.048128 0.474029
0.650723 -1.037747 0.075121
0.656623 -1.052086 0.469989
0.649786 -1.039045 0.011106
0.650678 -1.045489 0.322055
0.644714 -1.034169 0.109166
0.647492 -1.045617 0.692076
0.647851 -1.040573 -0.032910
0.644518 -1.044297 0.661091
0.640767 -1.031202 0.019196
0.646554 -1.049461 0.677037
0.649766 -1.050100 0.286007
0.643607 -1.043619 0.509091
0.640737 -1.038501 0.226132
0.645694 -1.050140 0.467021
0.640865 -1.038016 0.002126
0.642838 -1.043422 0.130075
0.639670 -1.042952 0.446099
0.637791 -1.036581 0.141150
0.638874 -1.038298 0.026126
0.642731 -1.051198 0.470013
0.639822 -1.047090 0.278048
0.633882 -1.035369 0.029161
0.634591 -1.044590 0.680100
0.635878 -1.041510 0.133102
0.634815 -1.041917 0.259105
0.631822 -1.035961 0.171165
0.634888 -1.041507 0.132103
0.638866 -1.050166 0.284018
0.633661 -1.046978 0.624074
0.628941 -1.049323 0.291037
0.623808 -1.044404 0.475102
0.629985 -1.053239 0.283996
0.304497 -1.049903 0.817155
0.351236 -1.222762 0.478245
0.359498 -1.255512 0.460886
0.306421 -1.058661 0.266026
0.305619 -1.053959 0.115068
0.298771 -1.041812 0.628230
0.294532 -1.020134 0.035432
0.350563 -1.233164 0.336120
0.380025 -1.346421 0.552894
0.299571 -1.043072 0.121186
0.351711 -1.241592 0.286024
0.294568 -1.026339 0.053364
0.318911 -1.124815 0.286300
0.294601 -1.041191 0.128204
0.291380 -1.033504 0.242294
0.286624 -1.050451 0.852141
0.292653 -1.064683 0.257950
0.289075 -1.059706 0.611024
0.287648 -1.059831 0.886039
0.321696 -1.189517 0.171575
0.286375 -1.055543 0.418057
0.299187 -1.103044 0.116518
0.288932 -1.062947 0.101957
0.321805 -1.197269 0.149487
0.290123 -1.071079 0.025862
0.289110 -1.068052 0.022895
0.285493 -1.063337 0.398968
0.285869 -1.073319 0.838885
0.288147 -1.070026 0.019872
0.287140 -1.066954 0.012905
0.282843 -1.064126 0.819984
0.291185 -1.088787 0.088670
0.282759 -1.059468 0.231999
0.286047 -1.073119 0.114842
0.282746 -1.063854 0.265952
0.280042 -1.049041 0.016100
0.276373 -1.042531 0.410194
0.279071 -1.046776 -0.007877
0.277445 -1.055843 0.438049
0.282176 -1.068254 0.035889
0.282053 -1.070241 0.122872
0.283196 -1.074451 0.053821
0.278287 -1.069788 0.609904
0.271631 -1.038938 0.266222
0.274753 -1.051689 0.246081
0.278313 -1.074948 0.623848
0.276566 -1.065751 0.428937
0.279144 -1.077368 0.131791
0.274614 -1.065574 0.411936
0.276938 -1.073710 0.248837
0.273991 -1.073374 0.834875
0.270838 -1.051437 0.221079
0.272046 -1.078472 0.841817
0.261820 -1.048900 0.873141
0.266995 -1.071773 0.864889
0.270015 -1.074869 0.257819
0.265382 -1.065917 0.611938
0.266762 -1.073765 0.422839
0.258953 -1.036759 0.153229
0.263435 -1.065707 0.591937
0.256999 -1.035548 0.133240
0.266337 -1.076118 0.100792
0.256017 -1.032305 0.111274
0.258337 -1.051893 0.605088
0.263390 -1.064255 0.022918
0.263155 -1.080525 0.839786
0.262834 -1.072525 0.398848
0.264458 -1.073293 0.026818
0.263482 -1.073222 0.019817
0.262489 -1.071127 0.010839
0.260175 -1.076356 0.822829
0.262165 -1.076649 0.232791
0.256352 -1.060490 0.655993
0.255203 -1.046042 0.087118
0.249148 -1.020292 0.017397
0.256421 -1.064264 0.635950
0.260114 -1.075062 0.267809
0.254176 -1.046334 0.112116
0.251652 -1.041711 0.408184
0.252321 -1.038009 -0.005800
0.251661 -1.046985 0.432126
0.250879 -1.042322 0.285169
0.253815 -1.058516 0.391997
0.251296 -1.041494 0.036163
0.256356 -1.069435 0.121860
0.253548 -1.068937 0.604893
0.253527 -1.069085 0.617892
0.253849 -1.068938 0.428882
0.247927 -1.040119 0.265189
0.246956 -1.037877 0.243212
0.253278 -1.077233 0.806813
0.251919 -1.070750 0.410859
0.253246 -1.076891 0.247781
0.251266 -1.079603 0.837786
0.251287 -1.081581 0.835764
0.245204 -1.040586 0.128173
0.243060 -1.039647 0.220188
0.249297 -1.081666 0.841761
0.242205 -1.066903 0.857921
0.242664 -1.070096 0.610870
0.245314 -1.076057 0.256783
0.242051 -1.074945 0.420803
0.236322 -1.045942 0.153106
0.238724 -1.067878 0.588890
0.239379 -1.078669 0.834785
0.237450 -1.057742 0.135974
0.233378 -1.037317 0.096197
0.235692 -1.059845 0.583977
0.236482 -1.055488 0.112997
0.237728 -1.072183 0.614842
0.232522 -1.038552 0.028178
0.233593 -1.046488 0.023089
0.237130 -1.072701 0.395822
0.235674 -1.072711 0.659837
0.232602 -1.045461 0.020099
0.237800 -1.071311 0.009813
0.233971 -1.063418 0.456927
0.235449 -1.078498 0.816782
0.236455 -1.074821 0.229787
0.236401 -1.076253 0.267773
0.232692 -1.066462 0.635903
0.229433 -1.040508 0.110158
0.228573 -1.036458 0.017196
0.232599 -1.058247 0.088960
0.232300 -1.064534 0.289902
0.232095 -1.066991 0.417882
0.232084 -1.070253 0.440847
0.227658 -1.040227 -0.003848
0.230713 -1.057660 0.035961
0.229792 -1.070271 0.616855
0.225449 -1.038642 0.119175
0.230174 -1.068745 0.394859
0.229727 -1.060850 0.051925
0.228804 -1.067086 0.599889
0.230153 -1.073133 0.428812
0.229411 -1.069354 0.271843
0.229483 -1.073115 0.250800
0.228558 -1.081466 0.808740
0.227221 -1.072930 0.408810
0.228567 -1.080067 0.245720
0.226541 -1.081733 0.830737
0.225500 -1.076786 0.834791
0.221529 -1.043788 0.129114
0.225519 -1.079832 0.838757
0.223586 -1.071890 0.226806
0.220486 -1.075135 0.861806
0.217919 -1.068256 0.606865
0.218562 -1.068237 0.253843
0.218323 -1.075116 0.418776
0.216784 -1.070125 0.154813
0.215635 -1.080860 0.833734
0.209684 -1.037483 0.094169
0.212996 -1.066024 0.582883
0.210694 -1.047932 0.134055
0.209706 -1.043700 0.113101
0.211967 -1.067351 0.610868
0.211907 -1.069864 0.655843
0.208857 -1.040683 0.023128
0.211004 -1.065074 0.585891
0.208856 -1.041751 0.029116
0.211280 -1.069617 0.457832
0.207886 -1.041645 0.019116
0.211406 -1.069853 0.390825
0.206871 -1.036539 0.009171
0.208959 -1.067638 0.633863
0.211762 -1.075997 0.227746
0.209716 -1.078659 0.811751
0.211710 -1.078453 0.267720
0.204766 -1.038466 0.089152
0.205789 -1.046698 0.110062
0.209648 -1.073730 0.290773
0.208356 -1.070425 0.438818
0.204945 -1.043657 0.018089
0.208417 -1.073197 0.418786
0.203967 -1.040425 -0.002877
0.206018 -1.066435 0.613872
0.202894 -1.038878 0.036142
0.202775 -1.042824 0.119103
0.205090 -1.070272 0.598826
0.206449 -1.076327 0.428749
0.200866 -1.036064 0.051172
0.205720 -1.072546 0.271780
0.204494 -1.071967 0.395793
0.203747 -1.068310 0.249824
0.203520 -1.076112 0.407746
0.202779 -1.084037 0.839683
0.202833 -1.083695 0.809685
0.201775 -1.078863 0.823740
0.198659 -1.049212 0.238033
0.198851 -1.047981 0.130040
0.200759 -1.077985 0.833749
0.193483 -1.042278 0.855145
0.196715 -1.073280 0.856799
0.197877 -1.070096 0.226795
0.195216 -1.074458 0.607767
0.194889 -1.073440 0.254755
0.193608 -1.075295 0.416743
0.188885 -1.042299 0.151094
0.191888 -1.082027 0.830692
0.189302 -1.071210 0.581795
0.189187 -1.074043 0.654767
0.187075 -1.048665 0.094015
0.184941 -1.039125 0.133123
0.184986 -1.039897 0.113113
0.186224 -1.048874 0.024007
0.188573 -1.073804 0.457756
0.187254 -1.069557 0.610813
0.186231 -1.050943 0.029984
0.187725 -1.075036 0.389737
0.187371 -1.065810 0.018817
0.185293 -1.066299 0.586845
0.183212 -1.039714 0.008106
0.185218 -1.067824 0.632831
0.182811 -1.049602 0.261010
0.185931 -1.073911 0.289741
0.184991 -1.080822 0.807695
0.186074 -1.076180 0.225711
0.184642 -1.072630 0.439763
0.182111 -1.048875 0.109008
0.180074 -1.037674 0.090131
0.183313 -1.072647 0.615773
0.180231 -1.039863 0.019101
0.183701 -1.073399 0.418752
0.179272 -1.038643 -0.000887
0.182704 -1.074510 0.427738
0.178217 -1.039073 0.036109
0.177151 -1.033240 0.050174
0.179122 -1.048013 0.119014
0.181387 -1.074447 0.596748
0.182029 -1.075737 0.271713
0.179988 -1.081195 0.836685
0.179027 -1.066509 0.249812
0.179826 -1.078203 0.398691
0.178023 -1.079018 0.819706
0.178816 -1.077291 0.405700
0.172761 -1.050490 0.858025
0.177065 -1.079878 0.806694
0.174979 -1.052392 0.236966
0.175998 -1.076160 0.830737
0.175202 -1.054182 0.130939
0.172971 -1.075482 0.856742
0.174212 -1.076310 0.228693
0.171485 -1.075643 0.606721
0.171160 -1.071607 0.252744
0.169867 -1.073466 0.414731
0.165154 -1.038477 0.150105
0.168131 -1.082205 0.828657
0.165416 -1.070195 0.650777
0.161203 -1.034314 0.133145
0.164588 -1.072380 0.578747
0.164837 -1.072986 0.456732
0.161284 -1.039086 0.113090
0.162388 -1.047838 0.091991
0.164679 -1.069046 0.023748
0.164675 -1.070126 0.030736
0.162524 -1.069762 0.610775
0.163009 -1.074203 0.386711
0.161493 -1.070022 0.632772
0.163752 -1.071848 0.005714
0.163738 -1.072985 0.017702
0.159080 -1.046782 0.260009
0.162216 -1.074090 0.288705
0.160590 -1.069516 0.587774
0.161270 -1.085000 0.805613
0.160584 -1.075848 0.616704
0.160924 -1.073813 0.438716
0.158442 -1.052052 0.107938
0.157176 -1.045318 0.218020
0.159997 -1.076604 0.419681
0.156551 -1.041062 0.020054
0.156430 -1.043885 0.092027
0.160013 -1.080707 0.428635
0.156446 -1.052194 0.118934
0.155628 -1.043841 0.000020
0.154504 -1.036260 0.036107
0.154503 -1.039420 0.050072
0.157227 -1.082388 0.836639
0.158336 -1.078939 0.272642
0.156670 -1.075629 0.594699
0.150986 -1.049630 0.854003
0.155347 -1.070712 0.250730
0.154092 -1.074401 0.397696
0.153296 -1.081204 0.817645
0.154105 -1.077469 0.403661
0.151495 -1.053370 0.130914
0.152260 -1.079384 0.832665
0.150262 -1.049579 0.235962
0.151333 -1.081118 0.808642
0.151246 -1.083724 0.861616
0.148737 -1.075809 0.604685
0.145282 -1.041470 0.223046
0.147504 -1.078809 0.253626
0.145373 -1.083385 0.827608
0.146189 -1.079671 0.415624
0.141428 -1.034655 0.149112
0.143669 -1.072376 0.650719
0.142093 -1.072149 0.454706
0.138539 -1.039495 0.133052
0.138672 -1.045015 0.090986
0.139862 -1.071539 0.574717
0.137623 -1.043286 0.114006
0.138758 -1.072211 0.632712
0.138800 -1.071971 0.611713
0.141035 -1.075232 0.023641
0.140606 -1.085037 0.268544
0.140015 -1.073332 0.031661
0.137807 -1.072002 0.613711
0.140076 -1.077171 0.017617
0.139065 -1.071030 0.004684
0.138318 -1.076380 0.384647
0.138525 -1.077281 0.288631
0.135848 -1.067720 0.587755
0.136181 -1.069992 0.436720
0.134708 -1.047229 0.106955
0.134505 -1.050488 0.216925
0.135538 -1.084148 0.799581
0.136278 -1.079900 0.428606
0.135261 -1.073794 0.418674
0.133935 -1.051241 0.019902
0.134486 -1.086603 0.838554
0.132792 -1.051096 0.093907
0.131822 -1.041588 0.049011
0.131854 -1.042451 0.037000
0.134086 -1.065035 0.001744
0.131731 -1.048390 0.118938
0.132927 -1.074803 0.592670
0.133602 -1.075127 0.271646
0.129226 -1.050792 0.851955
0.130554 -1.084385 0.816571
0.130640 -1.069910 0.250699
0.130384 -1.077639 0.401620
0.129378 -1.074613 0.398653
0.128511 -1.080584 0.832612
0.127580 -1.053750 0.234877
0.127798 -1.053559 0.130873
0.127451 -1.077856 0.855643
0.126597 -1.083361 0.811576
0.125008 -1.076994 0.603632
0.121626 -1.047683 0.224936
0.122629 -1.086577 0.827533
0.122773 -1.074996 0.252627
0.122458 -1.078853 0.414594
0.120929 -1.073542 0.648667
0.118763 -1.039836 0.149015
0.118361 -1.071332 0.453675
0.115856 -1.042688 0.133977
0.115009 -1.048179 0.088909
0.114994 -1.068374 0.629715
0.115131 -1.069697 0.570696
0.115062 -1.072167 0.611670
0.113929 -1.043485 0.114963
0.115093 -1.077213 0.615613
0.116327 -1.072437 0.024630
0.115903 -1.085235 0.268499
0.115315 -1.071537 0.032639
0.114797 -1.075461 0.287610
0.115391 -1.073204 0.003618
0.114643 -1.082573 0.384535
0.115404 -1.078353 0.016560
0.113481 -1.075200 0.438621
0.113556 -1.082085 0.428542
0.112726 -1.089810 0.840479
0.111055 -1.052417 0.106855
0.111163 -1.073971 0.591641
0.109789 -1.046663 0.214926
0.110818 -1.087345 0.798501
0.111344 -1.065430 0.020701
0.110562 -1.076006 0.419605
0.109170 -1.070941 0.587672
0.110324 -1.065622 0.036698
0.108151 -1.043775 0.048945
0.108064 -1.045303 0.094930
0.109934 -1.081328 0.272533
0.108069 -1.052578 0.118849
0.109408 -1.065239 0.002698
0.105802 -1.082547 0.812548
0.106679 -1.079820 0.400553
0.105948 -1.071119 0.251641
0.104092 -1.052758 0.131840
0.103690 -1.077034 0.853610
0.104666 -1.074825 0.399606
0.103931 -1.060940 0.234753
0.103781 -1.083827 0.835531
0.101869 -1.086603 0.814494
0.101259 -1.075167 0.601610
0.098874 -1.086766 0.826487
0.100096 -1.081178 0.252515
0.098180 -1.073720 0.647623
0.099129 -1.077945 0.231549
0.098749 -1.081045 0.414525
0.095086 -1.042024 0.148947
0.095614 -1.069494 0.451654
0.092172 -1.043876 0.133919
0.092325 -1.074378 0.613602
0.092295 -1.076620 0.634578
0.091329 -1.049355 0.087852
0.092058 -1.073632 0.286588
0.090206 -1.039685 0.115962
0.092665 -1.076623 0.024537
0.090321 -1.070372 0.611644
0.092180 -1.084424 0.268463
0.090446 -1.074901 0.570590
0.091628 -1.072734 0.033580
0.089945 -1.087990 0.839457
0.091726 -1.080539 0.016490
0.090685 -1.069386 0.002615
0.089761 -1.076405 0.439562
0.089845 -1.084278 0.428471
0.088360 -1.053585 0.105799
0.088954 -1.083769 0.383472
0.088296 -1.078893 0.219516
0.086824 -1.074199 0.419580
0.087700 -1.071616 0.020585
0.086069 -1.085495 0.793474
0.085401 -1.067160 0.589670
0.085374 -1.047494 0.095862
0.085458 -1.074137 0.587590
0.086670 -1.070807 0.036593
0.086652 -1.071945 0.048581
0.085370 -1.053758 0.118792
0.086198 -1.078518 0.272519
0.085737 -1.068447 0.004616
0.083100 -1.092795 0.817386
0.082273 -1.076331 0.253535
0.081970 -1.080009 0.399502
0.080975 -1.086306 0.860459
0.080391 -1.051946 0.131803
0.080023 -1.084039 0.836482
0.080221 -1.060118 0.233716
0.079979 -1.079060 0.402509
0.078519 -1.076355 0.601551
0.076122 -1.088957 0.826417
0.076152 -1.090877 0.819394
0.075459 -1.078943 0.650518
0.075028 -1.081226 0.413475
0.075396 -1.081375 0.252463
0.074435 -1.079165 0.233485
0.072354 -1.038194 0.147946
0.072926 -1.076702 0.453525
0.069559 -1.071543 0.611588
0.069480 -1.046067 0.134849
0.069565 -1.079819 0.635495
0.068658 -1.053522 0.086758
0.067604 -1.075594 0.614538
0.068374 -1.077833 0.287491
0.067575 -1.049875 0.116800
0.069016 -1.082808 0.024418
0.067202 -1.093239 0.844350
0.068509 -1.090625 0.269343
0.067941 -1.073931 0.034518
0.067113 -1.085474 0.429411
0.065723 -1.074070 0.567548
0.066037 -1.076597 0.439511
0.067044 -1.075547 0.000495
0.067025 -1.077720 0.015471
0.064008 -1.066414 0.857652
0.064655 -1.051761 0.104771
0.064243 -1.082934 0.380430
0.063619 -1.081067 0.217439
0.061688 -1.071402 0.593572
0.061710 -1.071287 0.583573
0.062116 -1.075422 0.421515
0.063019 -1.071820 0.021531
0.063005 -1.075004 0.037495
0.062486 -1.078708 0.272468
0.062834 -1.077959 0.120467
0.061357 -1.089690 0.792375
0.061717 -1.052703 0.097753
0.061952 -1.069127 0.047561
0.060963 -1.055664 0.006711
0.059343 -1.091960 0.814345
0.058197 -1.084475 0.858432
0.058238 -1.078178 0.397473
0.058575 -1.078532 0.254460
0.058901 -1.085162 0.135376
0.057560 -1.068310 0.234574
0.056284 -1.088296 0.841383
0.054785 -1.076539 0.600498
0.055267 -1.079271 0.403454
0.052693 -1.076096 0.647502
0.052392 -1.094202 0.830305
0.051372 -1.086073 0.818396
0.052326 -1.086421 0.414366
0.051707 -1.084564 0.252375
0.050208 -1.079898 0.454439
0.049693 -1.044373 0.147826
0.049736 -1.079373 0.234429
0.046834 -1.075765 0.614490
0.045766 -1.069958 0.630556
0.045836 -1.053266 0.135714
0.044417 -1.090407 0.842332
0.044682 -1.081022 0.287402
0.044773 -1.087814 0.269323
0.043860 -1.047074 0.117780
0.044004 -1.056705 0.085667
0.042892 -1.078832 0.617446
0.044300 -1.078000 0.024418
0.042345 -1.087781 0.873360
0.043381 -1.084666 0.429367
0.042014 -1.077253 0.566459
0.042332 -1.079801 0.440422
0.043315 -1.082134 0.035369
0.042243 -1.057729 -0.000355
0.042353 -1.078912 0.015403
0.041190 -1.084968 0.106336
0.039543 -1.084121 0.379361
0.038000 -1.075504 0.585471
0.039319 -1.071016 0.022487
0.039134 -1.078145 0.120411
0.038436 -1.082648 0.424379
0.038925 -1.081251 0.216382
0.038798 -1.082919 0.274366
0.038117 -1.048303 0.046748
0.038021 -1.052913 0.099698
0.036948 -1.069617 0.594537
0.036549 -1.076771 0.781467
0.038291 -1.070197 0.037495
0.037359 -1.067859 0.007518
0.034409 -1.078618 0.853445
0.034558 -1.084087 0.807380
0.034556 -1.084380 0.398348
0.033861 -1.076740 0.255424
0.032524 -1.088507 0.842326
0.034194 -1.083368 0.136341
0.034036 -1.096554 0.239195
0.032052 -1.078726 0.600421
0.030571 -1.085293 0.822357
0.030932 -1.076276 0.647450
0.030582 -1.084516 0.407338
0.029579 -1.084593 0.413335
0.027626 -1.089329 0.823304
0.028965 -1.081733 0.251355
0.027471 -1.080082 0.454384
0.028001 -1.048556 0.148728
0.026046 -1.072925 0.613475
0.026041 -1.082595 0.237337
0.023615 -1.088581 0.842304
0.024039 -1.076183 0.634434
0.024083 -1.048437 0.135719
0.021655 -1.088864 0.431267
0.022033 -1.085995 0.269290
0.021957 -1.081203 0.287347
0.020499 -1.073827 0.861468
0.020112 -1.074008 0.616448
0.021473 -1.060179 0.024570
0.021188 -1.052264 0.118667
0.021258 -1.049860 0.083692
0.020592 -1.080323 0.036336
0.019605 -1.082008 0.442342
0.019664 -1.081077 0.014323
0.019682 -1.077892 -0.001641
0.018289 -1.078435 0.565389
0.017496 -1.086153 0.106266
0.016232 -1.085431 0.216279
0.015842 -1.087312 0.379267
0.016073 -1.083100 0.274309
0.015691 -1.081843 0.425333
0.015264 -1.076679 0.584403
0.016507 -1.055206 0.023615
0.015454 -1.081331 0.120317
0.015466 -1.052376 0.037646
0.015425 -1.049480 0.046680
0.015282 -1.048103 0.100699
0.012850 -1.086014 0.785303
0.012661 -1.084857 0.858321
0.014667 -1.070058 0.009438
0.013210 -1.069835 0.596478
0.011796 -1.084265 0.806322
0.011483 -1.084558 0.137271
0.010840 -1.085571 0.398276
0.011167 -1.081943 0.257309
0.010276 -1.075893 0.599401
0.011097 -1.061646 0.231542
0.008762 -1.088728 0.844266
0.007786 -1.081449 0.819346
0.008184 -1.076452 0.646392
0.005830 -1.078716 0.407343
0.004905 -1.091826 0.416190
0.005302 -1.089943 0.253202
0.004717 -1.077255 0.453361
0.002858 -1.086547 0.824275
0.003293 -1.072112 0.613428
0.003489 -1.075782 0.151353
0.000869 -1.093829 0.847187
0.001340 -1.082802 0.238273
0.000287 -1.074378 0.634395
-0.001254 -1.079055 0.865353
0.000509 -1.067645 0.137439
-0.001622 -1.096217 0.272113
-0.001729 -1.086414 0.289227
-0.002077 -1.088055 0.431217
-0.003160 -1.077168 0.440341
-0.002408 -1.068483 0.121420
-0.003638 -1.072203 0.616409
-0.002396 -1.055034 0.082573
-0.003198 -1.061382 0.025494
-0.004079 -1.082526 0.037248
-0.004946 -1.085059 -0.003786
-0.005023 -1.080268 0.014270
-0.006442 -1.076614 0.563347
-0.006190 -1.088327 0.105180
-0.008475 -1.075862 0.583352
-0.008877 -1.085487 0.377225
-0.008631 -1.083308 0.275244
-0.009020 -1.083065 0.427256
-0.007207 -1.051402 0.024598
-0.008285 -1.075517 0.120324
-0.007277 -1.045553 0.037667
-0.007297 -1.045646 0.045666
-0.010142 -1.078003 0.854342
-0.009442 -1.086610 0.214199
-0.009136 -1.053267 0.011571
-0.011951 -1.085463 0.806247
-0.010237 -1.072336 0.103354
-0.011914 -1.080140 0.778307
-0.011516 -1.071083 0.600400
-0.012887 -1.084750 0.397224
-0.013449 -1.078098 0.600314
-0.013179 -1.089762 0.138147
-0.015007 -1.087950 0.846213
-0.013545 -1.080139 0.257266
-0.014552 -1.079661 0.648296
-0.014401 -1.092914 0.237115
-0.015900 -1.097806 0.833096
-0.018010 -1.079450 0.454276
-0.018831 -1.090005 0.415149
-0.018425 -1.088131 0.253160
-0.018859 -1.083960 0.411218
-0.019439 -1.076344 0.617319
-0.021888 -1.098076 0.852078
-0.020210 -1.075957 0.150289
-0.022881 -1.087808 0.828192
-0.022458 -1.075577 0.635321
-0.024033 -1.076211 0.862326
-0.023363 -1.083020 0.240205
-0.024808 -1.090261 0.433131
-0.024127 -1.076860 0.139267
-0.025342 -1.096416 0.273047
-0.025432 -1.088602 0.289138
-0.026873 -1.080394 0.443240
-0.027385 -1.071421 0.618354
-0.027071 -1.072687 0.122306
-0.026108 -1.051208 0.081554
-0.026849 -1.067565 0.025359
-0.027771 -1.083721 0.038170
-0.028701 -1.082439 0.013181
-0.028790 -1.060234 -0.004564
-0.030874 -1.089519 0.105099
-0.031181 -1.072782 0.560324
-0.032347 -1.083507 0.276177
-0.033875 -1.085292 0.862193
-0.031985 -1.075702 0.120257
-0.033189 -1.078075 0.584259
-0.033563 -1.089684 0.377109
-0.033710 -1.088298 0.430128
-0.030925 -1.051737 0.037531
-0.030913 -1.048598 0.025567
-0.030970 -1.047830 0.045577
-0.034121 -1.089804 0.214095
-0.033909 -1.077544 0.105229
-0.035709 -1.084649 0.805192
-0.035666 -1.079314 0.776251
-0.032877 -1.044464 0.012608
-0.036248 -1.071320 0.603330
-0.036613 -1.083928 0.396168
-0.036363 -1.069784 0.643350
-0.037189 -1.078304 0.601246
-0.036908 -1.085948 0.138126
-0.038776 -1.087171 0.848157
-0.039652 -1.100026 0.835005
-0.037271 -1.078339 0.258221
-0.039100 -1.093097 0.236044
-0.041748 -1.077641 0.454231
-0.042557 -1.090195 0.415080
-0.043697 -1.093246 0.851073
-0.042194 -1.075530 0.617265
-0.043132 -1.087326 0.253100
-0.043571 -1.085180 0.413135
-0.044867 -1.082160 0.151148
-0.046206 -1.074782 0.636264
-0.047643 -1.088083 0.834120
-0.048542 -1.089451 0.433073
-0.048064 -1.084250 0.243121
-0.049081 -1.092592 0.272024
-0.047841 -1.075046 0.139221
-0.049170 -1.084779 0.288115
-0.050611 -1.078585 0.443193
-0.051143 -1.068627 0.619320
-0.051711 -1.081901 0.124129
-0.049767 -1.056380 0.080427
-0.052429 -1.088923 0.039040
-0.050581 -1.060749 0.025370
-0.051536 -1.060618 0.013368
-0.052769 -1.059658 0.102382
-0.052502 -1.055406 -0.005576
-0.056654 -1.083471 0.861149
-0.055885 -1.075982 0.560216
-0.056061 -1.083695 0.276106
-0.056920 -1.079267 0.584177
-0.054777 -1.061870 0.119351
-0.057446 -1.088523 0.433058
-0.054575 -1.052781 0.025451
-0.054607 -1.052920 0.037450
-0.054637 -1.051002 0.044472
-0.058290 -1.086870 0.376070
-0.058819 -1.089986 0.213021
-0.059464 -1.084846 0.805121
-0.058585 -1.080758 0.107121
-0.059106 -1.071993 0.645259
-0.059934 -1.079500 0.602167
-0.056554 -1.046670 0.014515
-0.057812 -1.057091 0.136399
-0.062336 -1.091626 0.784032
-0.061317 -1.086137 0.397071
-0.063422 -1.098212 0.833956
-0.060987 -1.070557 0.606267
-0.063523 -1.090446 0.854047
-0.061956 -1.082568 0.261101
-0.062844 -1.087261 0.234042
-0.063974 -1.072719 0.618234
-0.067446 -1.098523 0.857942
-0.066290 -1.089385 0.415020
-0.065472 -1.078843 0.455147
-0.066847 -1.087513 0.253028
-0.068313 -1.081402 0.415106
-0.068593 -1.078334 0.150122
-0.068977 -1.071980 0.637229
-0.072399 -1.089346 0.839032
-0.071319 -1.082623 0.432084
-0.072798 -1.093802 0.273939
-0.071930 -1.078948 0.287114
-0.072776 -1.083467 0.245056
-0.072528 -1.076249 0.140133
-0.074334 -1.080809 0.446097
-0.074877 -1.070855 0.622223
-0.073306 -1.056925 0.025346
-0.074300 -1.063106 0.040273
-0.075478 -1.071099 0.125183
-0.074455 -1.054560 0.079374
-0.076215 -1.059797 0.012303
-0.080406 -1.087737 0.867028
-0.076467 -1.058830 0.101320
-0.075248 -1.046571 -0.006542
-0.080765 -1.084912 0.278017
-0.078480 -1.061054 0.119289
-0.081635 -1.082490 0.586065
-0.078260 -1.053975 0.026365
-0.081598 -1.076190 0.560136
-0.082191 -1.083721 0.433038
-0.078328 -1.047104 0.037445
-0.079301 -1.053192 0.044372
-0.082827 -1.077220 0.648126
-0.084200 -1.087062 0.806020
-0.083977 -1.089062 0.374966
-0.084491 -1.093186 0.212905
-0.086199 -1.098424 0.835884
-0.083685 -1.077693 0.602115
-0.083308 -1.075974 0.109101
-0.081507 -1.058287 0.137313
-0.081180 -1.055870 0.015333
-0.085059 -1.082303 0.395042
-0.087084 -1.090818 0.782965
-0.087295 -1.089666 0.855983
-0.085719 -1.071804 0.610177
-0.086664 -1.082785 0.263022
-0.087537 -1.089466 0.234940
-0.086715 -1.075939 0.621127
-0.090207 -1.103781 0.863811
-0.088214 -1.079036 0.456075
-0.090026 -1.088585 0.415956
-0.091512 -1.095728 0.254856
-0.090393 -1.067708 0.857228
-0.093031 -1.082633 0.418015
-0.092717 -1.073197 0.639141
-0.093273 -1.081538 0.151008
-0.095022 -1.088845 0.434938
-0.096541 -1.088978 0.272920
-0.098150 -1.090628 0.844937
-0.096626 -1.081154 0.288011
-0.097473 -1.085684 0.246953
-0.097209 -1.078441 0.140030
-0.098081 -1.076988 0.445066
-0.100581 -1.077144 0.629069
-0.098235 -1.063277 0.125201
-0.098022 -1.058301 0.041253
-0.097978 -1.058115 0.025254
-0.098135 -1.056732 0.078274
-0.103203 -1.082915 0.866011
-0.098944 -1.054972 0.012287
-0.103536 -1.076069 0.276047
-0.099906 -1.048748 -0.007646
-0.102107 -1.065028 0.101167
-0.105391 -1.078660 0.584033
-0.104109 -1.070263 0.120101
-0.101958 -1.053169 0.027299
-0.101996 -1.051286 0.037321
-0.105602 -1.073406 0.648098
-0.106912 -1.084952 0.435944
-0.108926 -1.095356 0.813845
-0.106441 -1.076878 0.602051
-0.106329 -1.074367 0.558078
-0.109964 -1.099654 0.838793
-0.103005 -1.050364 0.043329
-0.109186 -1.094367 0.211812
-0.108702 -1.087258 0.374907
-0.103924 -1.049069 0.017339
-0.108937 -1.087205 0.111888
-0.106177 -1.062490 0.138185
-0.109760 -1.085510 0.395926
-0.112048 -1.093963 0.863854
-0.109473 -1.076147 0.623051
-0.113007 -1.099981 0.864781
-0.111842 -1.087998 0.780918
-0.112220 -1.093658 0.234812
-0.111376 -1.081991 0.263951
-0.110469 -1.069028 0.612130
-0.111954 -1.077226 0.456019
-0.113755 -1.088774 0.415876
-0.116235 -1.092922 0.254808
-0.117788 -1.085039 0.435907
-0.117438 -1.077443 0.643011
-0.117958 -1.083729 0.150901
-0.117774 -1.078854 0.419978
-0.120266 -1.089187 0.274839
-0.120347 -1.081351 0.288931
-0.122919 -1.090902 0.850852
-0.122194 -1.083901 0.248892
-0.122852 -1.087661 0.141839
-0.122782 -1.083242 0.449912
-0.124343 -1.075372 0.632011
-0.125783 -1.086533 0.128841
-0.121670 -1.058297 0.025174
-0.121743 -1.053496 0.042230
-0.127954 -1.086177 0.870891
-0.122826 -1.054911 0.077213
-0.122646 -1.052143 0.011241
-0.129195 -1.085315 0.279854
-0.125817 -1.063212 0.101108
-0.129336 -1.084944 -0.010163
-0.128362 -1.072591 0.648031
-0.130688 -1.089489 0.121789
-0.130115 -1.080882 0.585924
-0.130180 -1.079104 0.604946
-0.126615 -1.058370 0.028156
-0.130666 -1.081154 0.436909
-0.131463 -1.085577 0.042826
-0.134722 -1.100892 0.841696
-0.127626 -1.059494 0.038141
-0.133690 -1.092549 0.812794
-0.132022 -1.081630 0.562908
-0.134819 -1.094139 0.862775
-0.134869 -1.096567 0.211699
-0.132237 -1.075354 0.624984
-0.134680 -1.093763 0.142727
-0.128587 -1.053281 0.019208
-0.134611 -1.090426 0.113764
-0.134416 -1.084438 0.372853
-0.136817 -1.093202 0.866779
-0.135464 -1.086725 0.396825
-0.135100 -1.082199 0.265869
-0.137569 -1.091232 0.782793
-0.136942 -1.090851 0.234760
-0.136652 -1.083457 0.458863
-0.137494 -1.087974 0.416805
-0.136195 -1.071306 0.618016
-0.140937 -1.095126 0.255698
-0.141525 -1.085251 0.437823
-0.140219 -1.072629 0.642989
-0.141673 -1.082912 0.150829
-0.144956 -1.094402 0.276694
-0.143477 -1.082104 0.423852
-0.145060 -1.080545 0.288855
-0.148681 -1.091184 0.856760
-0.147554 -1.087863 0.142750
-0.147503 -1.085472 0.452801
-0.146935 -1.078118 0.250873
-0.149772 -1.077313 0.866917
-0.148119 -1.068554 0.631007
-0.145440 -1.053689 0.043146
-0.150197 -1.081522 0.025806
-0.150503 -1.082736 0.129798
-0.153267 -1.092149 0.077676
-0.152102 -1.076840 0.652899
-0.149246 -1.063332 0.010018
-0.152934 -1.082513 0.280803
-0.150504 -1.063390 0.100020
-0.154022 -1.084108 -0.012241
-0.153937 -1.077307 0.605884
-0.153877 -1.076051 0.583897
-0.158497 -1.101122 0.844609
-0.155405 -1.085680 0.121746
-0.157612 -1.093373 0.866704
-0.154422 -1.076343 0.436881
-0.154180 -1.076589 0.028849
-0.155001 -1.075573 0.627901
-0.159415 -1.099827 0.818619
-0.152309 -1.059682 0.038052
-0.156173 -1.081766 0.042783
-0.158413 -1.089947 0.142687
-0.156769 -1.076795 0.559876
-0.158351 -1.085632 0.115736
-0.152289 -1.051463 0.019145
-0.160567 -1.095754 0.210618
-0.159209 -1.083913 0.396773
-0.160105 -1.088651 0.373713
-0.157690 -1.070229 0.853970
-0.160388 -1.084668 0.460765
-0.160793 -1.084422 0.267752
-0.156760 -1.058225 0.854112
-0.162218 -1.088181 0.417714
-0.162639 -1.091051 0.234666
-0.162335 -1.086400 0.779761
-0.160942 -1.071563 0.622926
-0.165653 -1.094318 0.255619
-0.165256 -1.087461 0.439713
-0.163972 -1.073867 0.646890
-0.168312 -1.092127 0.151627
-0.169673 -1.094606 0.277602
-0.169193 -1.084365 0.428734
-0.168785 -1.080742 0.289767
-0.172245 -1.091064 0.143624
-0.171261 -1.080662 0.452771
-0.174440 -1.094499 0.865629
-0.171637 -1.081344 0.253747
-0.169644 -1.055332 0.854098
-0.168167 -1.049864 0.043108
-0.173832 -1.076864 0.639819
-0.174893 -1.080711 0.025725
-0.176176 -1.086944 0.130656
-0.175858 -1.076044 0.653822
-0.178443 -1.085523 0.864718
-0.178756 -1.089551 0.009607
-0.177651 -1.082729 0.282710
-0.178963 -1.089335 0.076614
-0.183250 -1.107415 0.852446
-0.177683 -1.078521 0.607783
-0.177767 -1.075791 0.630816
-0.180997 -1.093641 0.101559
-0.181074 -1.090887 0.122592
-0.179700 -1.083292 -0.013325
-0.178620 -1.075273 0.585815
-0.178873 -1.076788 0.029756
-0.181101 -1.085633 0.443676
-0.184183 -1.099052 0.820537
-0.181820 -1.086913 0.038629
-0.184093 -1.094166 0.144544
-0.181851 -1.081950 0.041686
-0.182767 -1.083711 0.020661
-0.184401 -1.086653 0.871683
-0.182491 -1.078023 0.561767
-0.184050 -1.084853 0.117650
-0.184912 -1.086126 0.397652
-0.185813 -1.089864 0.374604
-0.184143 -1.080857 0.460721
-0.187259 -1.094960 0.210528
-0.180526 -1.058444 0.856022
-0.185965 -1.086380 0.418647
-0.185515 -1.083638 0.269669
-0.188329 -1.093249 0.234545
-0.189060 -1.090663 0.783613
-0.188998 -1.087672 0.441622
-0.191348 -1.097540 0.257486
-0.186681 -1.072840 0.628816
-0.187734 -1.073093 0.649811
-0.194004 -1.093335 0.152517
-0.194394 -1.094821 0.279507
-0.195445 -1.089982 0.292560
-0.194920 -1.083602 0.431646
-0.195992 -1.081892 0.455663
-0.196970 -1.087266 0.144575
-0.197346 -1.081578 0.256647
-0.201206 -1.094811 0.873525
-0.193417 -1.055574 0.858006
-0.198583 -1.077109 0.643722
-0.200609 -1.087126 0.044555
-0.201865 -1.089163 0.132533
-0.200570 -1.081905 0.025614
-0.203206 -1.090829 0.873563
-0.200601 -1.078289 0.657702
-0.202376 -1.080933 0.283637
-0.201525 -1.076016 0.633723
-0.208030 -1.104630 0.853384
-0.203673 -1.086512 0.075552
-0.202430 -1.078754 0.610686
-0.205408 -1.093740 0.008457
-0.205709 -1.091830 0.101485
-0.203351 -1.078504 0.588684
-0.206333 -1.090468 -0.015510
-0.205800 -1.086077 0.122552
-0.207973 -1.093224 0.818513
-0.205847 -1.082852 0.445613
-0.204562 -1.075995 0.030667
-0.206530 -1.084101 0.038566
-0.208807 -1.093367 0.145458
-0.206556 -1.079126 0.040624
-0.202324 -1.055635 0.856971
-0.208755 -1.086064 0.119541
-0.208460 -1.082929 0.022571
-0.203301 -1.056608 0.853956
-0.208876 -1.081075 0.462623
-0.210629 -1.086339 0.398551
-0.209207 -1.078247 0.562662
-0.210703 -1.084586 0.419572
-0.212965 -1.093147 0.209449
-0.210248 -1.080854 0.271606
-0.211539 -1.086054 0.373549
-0.213052 -1.091440 0.234470
-0.212757 -1.083871 0.442574
-0.215094 -1.092713 0.256449
-0.215801 -1.090902 0.785506
-0.212477 -1.076349 0.654678
-0.212423 -1.074116 0.634702
-0.218127 -1.095016 0.280412
-0.218738 -1.086514 0.151498
-0.220184 -1.085175 0.292519
-0.219673 -1.079833 0.434593
-0.219747 -1.079091 0.456603
-0.221689 -1.084456 0.144510
-0.217191 -1.056826 0.862899
-0.223058 -1.081812 0.259543
-0.220103 -1.067811 0.859761
-0.226003 -1.091073 0.878471
-0.223342 -1.076354 0.647634
-0.226296 -1.088332 0.045439
-0.224365 -1.078514 0.660606
-0.227563 -1.090382 0.134417
-0.226248 -1.084099 0.025487
-0.226269 -1.080283 0.639576
-0.231824 -1.101847 0.855321
-0.226191 -1.077967 0.612601
-0.229060 -1.086173 0.286471
-0.230116 -1.090916 0.007391
-0.231321 -1.090709 0.074394
-0.230431 -1.087007 0.100442
-0.230502 -1.087265 0.122440
-0.229086 -1.078732 0.590579
-0.231046 -1.085643 -0.016553
-0.235696 -1.102562 0.828296
-0.231569 -1.086111 0.450474
-0.231214 -1.082207 0.031489
-0.234509 -1.093575 0.146353
-0.231244 -1.080289 0.038511
-0.226101 -1.055876 0.860874
-0.232239 -1.080320 0.040507
-0.233612 -1.082304 0.465510
-0.234459 -1.085284 0.121447
-0.234149 -1.083135 0.023466
-0.227094 -1.052850 0.857905
-0.235433 -1.085802 0.421459
-0.234387 -1.081526 0.398511
-0.236505 -1.084080 0.444476
-0.234941 -1.077463 0.563568
-0.237915 -1.089123 0.276400
-0.237704 -1.086327 0.208428
-0.237788 -1.086631 0.234426
-0.238250 -1.085274 0.374450
-0.240804 -1.093933 0.258332
-0.239207 -1.080643 0.661521
-0.241882 -1.090212 0.281372
-0.242545 -1.091141 0.787396
-0.239159 -1.076410 0.641568
-0.244429 -1.088710 0.151369
-0.245896 -1.086396 0.294400
-0.246385 -1.084111 0.440435
-0.245476 -1.080339 0.460484
-0.247390 -1.084663 0.145403
-0.241920 -1.060991 0.859751
-0.244915 -1.070234 0.878633
-0.249747 -1.087063 0.263374
-0.249116 -1.080757 0.664479
-0.247825 -1.075584 -0.032508
-0.250032 -1.082530 0.644453
-0.249091 -1.078641 0.654503
-0.241946 -1.050937 0.854866
-0.252968 -1.091544 0.046293
-0.256601 -1.104116 0.861194
-0.251930 -1.086291 0.025356
-0.252296 -1.085583 0.135371
-0.250944 -1.078199 0.615497
-0.253792 -1.084376 0.287390
-0.256790 -1.092115 0.007267
-0.257109 -1.089208 0.100306
-0.257184 -1.089478 0.123305
-0.256047 -1.084885 0.073359
-0.254824 -1.078960 0.592470
-0.260478 -1.098763 0.828237
-0.257274 -1.085750 0.146349
-0.257306 -1.085348 0.453376
-0.252831 -1.068241 0.873623
-0.257714 -1.085819 -0.018666
-0.256908 -1.082412 0.032380
-0.257915 -1.082490 0.038376
-0.258910 -1.081509 0.039383
-0.258864 -1.081345 0.025384
-0.251868 -1.055145 0.865777
-0.258365 -1.078511 0.466451
-0.260171 -1.083503 0.123361
-0.261161 -1.086026 0.423350
-0.261089 -1.084756 0.400363
-0.260267 -1.080279 0.445421
-0.262651 -1.086326 0.277329
-0.261659 -1.079697 0.565431
-0.265458 -1.091854 0.235251
-0.264398 -1.086530 0.208314
-0.266518 -1.094142 0.259222
-0.265938 -1.088500 0.375298
-0.263973 -1.079888 0.665427
-0.267594 -1.092433 0.283239
-0.268307 -1.090372 0.789297
-0.264923 -1.074686 0.647481
-0.270145 -1.084906 0.151304
-0.271615 -1.086618 0.296289
-0.271202 -1.083586 0.464338
-0.266692 -1.067319 0.870575
-0.263778 -1.052289 0.869760
-0.273111 -1.084366 0.444320
-0.272120 -1.080863 0.146342
-0.273809 -1.080754 0.647373
-0.274865 -1.083020 0.669344
-0.275482 -1.083296 0.266308
-0.280405 -1.099322 0.862148
-0.274492 -1.076771 -0.033635
-0.277693 -1.087742 0.047232
-0.273639 -1.072490 0.880486
-0.275837 -1.079923 0.660375
-0.278004 -1.085801 0.137259
-0.279593 -1.089510 0.026201
-0.276693 -1.078449 0.619385
-0.279515 -1.083597 0.289289
-0.282886 -1.089673 0.123193
-0.283476 -1.090304 0.006174
-0.276622 -1.066470 0.876542
-0.282977 -1.087967 0.148214
-0.282816 -1.087403 0.100217
-0.281555 -1.081217 0.596331
-0.284686 -1.091087 0.072165
-0.287243 -1.099037 0.833119
-0.283056 -1.082596 0.457298
-0.283590 -1.083623 0.033252
-0.286347 -1.092020 -0.019860
-0.281656 -1.075670 0.038352
-0.285068 -1.086775 0.471242
-0.274678 -1.048345 0.866758
-0.285009 -1.081506 0.448301
-0.285883 -1.083732 0.126248
-0.284574 -1.078562 0.027305
-0.287874 -1.089268 0.426198
-0.285596 -1.080709 0.039277
-0.287804 -1.085987 0.402234
-0.289361 -1.088577 0.281189
-0.291258 -1.090333 0.259159
-0.291180 -1.089051 0.235172
-0.289724 -1.083161 0.671278
-0.290365 -1.083980 0.570258
-0.292078 -1.088740 0.208169
-0.293321 -1.091653 0.285136
-0.293642 -1.089737 0.377164
-0.290683 -1.074960 0.653367
-0.295070 -1.087611 0.791213
-0.295854 -1.085112 0.152190
-0.297328 -1.088826 0.297152
-0.292462 -1.072642 0.880402
-0.296948 -1.082833 0.468235
-0.291524 -1.062686 0.884521
-0.294295 -1.071002 -0.026655
-0.297834 -1.079070 0.147250
-0.300543 -1.088057 0.655173
-0.298862 -1.081614 0.448239
-0.299633 -1.082251 0.672245
-0.305198 -1.097569 0.866059
-0.302196 -1.083536 0.269189
-0.303402 -1.085947 0.048139
-0.302586 -1.083227 0.668220
-0.302440 -1.081710 0.624235
-0.299211 -1.069945 -0.034665
-0.298447 -1.066751 0.885444
-0.301767 -1.074984 0.137279
-0.306283 -1.088709 0.026093
-0.304259 -1.080811 0.291212
-0.303382 -1.071789 0.885364
-0.308606 -1.086879 0.124111
-0.307301 -1.082454 0.599203
-0.308695 -1.086174 0.149120
-0.309183 -1.086485 0.005104
-0.310488 -1.090610 0.100058
-0.313018 -1.099290 0.837002
-0.307817 -1.078814 0.459232
-0.311380 -1.089276 0.071067
-0.310745 -1.084763 0.453150
-0.309303 -1.079828 0.034182
-0.311070 -1.085182 -0.021892
-0.308851 -1.077963 0.471238
-0.311642 -1.085464 0.427136
-0.307367 -1.070863 0.038293
-0.310281 -1.077777 0.029200
-0.310625 -1.077944 0.128204
-0.311297 -1.078890 0.038184
-0.314528 -1.086216 0.404113
-0.315099 -1.083787 0.282129
-0.316989 -1.087541 0.260076
-0.316906 -1.087258 0.236077
-0.314505 -1.079394 0.674211
-0.317085 -1.085848 0.286096
-0.318784 -1.087943 0.208059
-0.319075 -1.088250 0.574082
-0.320368 -1.086943 0.377076
-0.318981 -1.081218 -0.023883
-0.316265 -1.073927 0.888282
-0.320405 -1.082333 0.665150
-0.324793 -1.093927 0.798007
-0.322555 -1.084314 0.152079
-0.321103 -1.079010 0.297157
-0.323681 -1.084087 0.472100
-0.325321 -1.088322 0.661059
-0.320967 -1.073188 -0.027800
-0.326382 -1.085532 0.678087
-0.328021 -1.088744 0.865057
-0.325520 -1.080290 0.148111
-0.326591 -1.082898 0.454099
-0.328918 -1.083786 0.273065
-0.328198 -1.081959 0.628116
-0.329118 -1.083151 0.049054
-0.329349 -1.083520 0.675096
-0.326865 -1.073125 -0.036827
-0.332975 -1.088908 0.025969
-0.330433 -1.081233 0.140077
-0.332946 -1.086075 0.295022
-0.331135 -1.081149 0.897132
-0.333906 -1.082669 0.005034
-0.334327 -1.083073 0.124037
-0.336385 -1.088405 0.150968
-0.334049 -1.081699 0.602090
-0.336208 -1.085792 0.098995
-0.336486 -1.087009 0.457007
-0.334554 -1.081090 0.465084
-0.339796 -1.096540 0.839912
-0.334595 -1.078198 0.474118
-0.338078 -1.087464 0.069965
-0.335017 -1.077032 0.035096
-0.338371 -1.086705 0.430000
-0.338742 -1.085375 -0.023021
-0.335036 -1.074069 0.038130
-0.336974 -1.077988 0.030075
-0.338316 -1.080186 0.131052
-0.337007 -1.075071 0.037109
-0.342242 -1.087452 0.405971
-0.342805 -1.087043 0.285964
-0.343799 -1.089085 0.288937
-0.342247 -1.084704 0.682023
-0.345674 -1.092792 0.262884
-0.340758 -1.076439 -0.018928
-0.345588 -1.090486 0.236908
-0.345503 -1.084146 0.207979
-0.345826 -1.085483 0.575990
-0.342722 -1.074395 -0.023914
-0.347104 -1.083161 0.377995
-0.348122 -1.083515 0.662008
-0.353543 -1.097236 0.804837
-0.348168 -1.081646 0.673030
-0.349263 -1.082515 0.151975
-0.350776 -1.085269 0.299948
-0.347466 -1.076286 0.473079
-0.347658 -1.071386 -0.027904
-0.351164 -1.081751 0.680015
-0.352818 -1.085978 0.867973
-0.352231 -1.078503 0.149007
-0.354328 -1.083183 0.459967
-0.356924 -1.089275 0.635899
-0.354836 -1.080355 0.049966
-0.357102 -1.087842 0.683918
-0.356631 -1.085043 0.276921
-0.356159 -1.079450 0.141977
-0.358695 -1.084100 0.025903
-0.353558 -1.069312 -0.037909
-0.357703 -1.080277 0.295972
-0.362111 -1.086610 0.151868
-0.363984 -1.089305 0.124826
-0.360272 -1.079206 0.457984
-0.366574 -1.096811 0.844783
-0.362776 -1.085992 0.607906
-0.361590 -1.080863 0.003925
-0.363900 -1.087010 0.099851
-0.361334 -1.079450 0.477978
-0.363274 -1.084381 0.470912
-0.366093 -1.089964 0.433832
-0.360734 -1.074236 0.036006
-0.365770 -1.086670 0.069843
-0.362720 -1.075286 0.038985
-0.366419 -1.084556 -0.025143
-0.364662 -1.079216 0.031931
-0.366997 -1.084435 0.133868
-0.368978 -1.086681 0.407853
-0.365676 -1.076284 0.036960
-0.367567 -1.081257 0.287913
-0.368030 -1.082977 0.687921
-0.370527 -1.088312 0.290819
-0.370425 -1.087981 0.262821
-0.370340 -1.084675 0.236857
-0.368441 -1.076655 -0.018062
-0.370403 -1.075611 -0.023060
-0.375175 -1.088380 0.208789
-0.374883 -1.086805 0.668843
-0.375545 -1.087759 0.579822
-0.374824 -1.082385 0.378872
-0.375930 -1.082957 0.680883
-0.374548 -1.077452 0.299923
-0.375979 -1.080727 0.152868
-0.378162 -1.084613 0.480838
-0.378345 -1.085390 0.800852
-0.377930 -1.083031 0.685873
-0.373665 -1.072104 0.864031
-0.376318 -1.073584 -0.029066
-0.378941 -1.078715 0.149876
-0.381712 -1.085505 0.638822
-0.382074 -1.082467 0.465842
-0.384492 -1.086585 0.050752
-0.383879 -1.085112 0.688820
-0.384354 -1.085299 0.280785
-0.382875 -1.077662 0.142868
-0.384415 -1.080291 0.025822
-0.382214 -1.071498 -0.040072
-0.386407 -1.082528 0.298808
-0.387011 -1.083469 0.462806
-0.384889 -1.076783 0.151869
-0.386761 -1.079478 0.124827
-0.389537 -1.084235 0.610797
-0.390255 -1.084062 0.002749
-0.396332 -1.101150 0.853590
-0.390055 -1.083728 0.482790
-0.389628 -1.081191 0.098792
-0.390028 -1.082634 0.474802
-0.393827 -1.090211 0.436695
-0.390392 -1.079465 0.036803
-0.391370 -1.079437 0.033798
-0.393467 -1.083865 0.068740
-0.390408 -1.075490 0.038848
-0.392739 -1.078652 0.135808
-0.396077 -1.085761 -0.026301
-0.397259 -1.087537 0.292697
-0.395790 -1.084264 0.693772
-0.397158 -1.086206 0.264710
-0.395331 -1.080490 0.035767
-0.397264 -1.085538 0.292720
-0.398688 -1.088953 0.411683
-0.395146 -1.076875 -0.016195
-0.398058 -1.081896 0.237753
-0.402649 -1.090126 0.677670
-0.399080 -1.074822 -0.023192
-0.402891 -1.084588 0.208696
-0.406265 -1.091066 0.585634
-0.405899 -1.087883 0.485665
-0.404697 -1.084298 0.690727
-0.406504 -1.087670 0.382656
-0.403683 -1.079934 0.152741
-0.404240 -1.081710 0.302729
-0.394505 -1.058217 0.859086
-0.404706 -1.081300 0.690761
-0.411069 -1.093773 0.811597
-0.404006 -1.072788 -0.029194
-0.411445 -1.090815 0.645616
-0.407639 -1.078952 0.151732
-0.407846 -1.079724 0.470746
-0.411207 -1.084794 0.051640
-0.413634 -1.089471 0.699624
-0.409127 -1.076513 0.282762
-0.412557 -1.081917 0.145673
-0.414080 -1.083508 0.025638
-0.414753 -1.083728 0.466666
-0.412598 -1.077013 0.153729
-0.414137 -1.080773 0.301690
-0.410885 -1.071697 -0.041217
-0.414466 -1.077684 0.124710
-0.417799 -1.083987 0.486649
-0.420265 -1.089565 0.618584
-0.419919 -1.086267 0.001576
-0.418768 -1.084935 0.481633
-0.421146 -1.091338 0.852577
-0.421568 -1.089458 0.439565
-0.416352 -1.075391 0.098724
-0.419080 -1.079688 0.037657
-0.418091 -1.075659 0.035708
-0.418105 -1.074695 0.038719
-0.423139 -1.085071 0.067578
-0.418482 -1.073869 0.137734
-0.423011 -1.084756 0.294599
-0.423767 -1.083941 -0.028420
-0.423564 -1.085574 0.701618
-0.424879 -1.085426 0.265580
-0.420072 -1.072662 0.034731
-0.425438 -1.085170 0.412591
-0.425986 -1.085801 0.296573
-0.421858 -1.074083 -0.015298
-0.429425 -1.091403 0.683521
-0.425776 -1.081115 0.238622
-0.429726 -1.081044 -0.023417
-0.429629 -1.077790 0.208638
-0.432955 -1.083961 0.305558
-0.431681 -1.081118 0.488611
-0.432474 -1.083597 0.697595
-0.429232 -1.075742 0.880714
-0.433470 -1.084628 0.699578
-0.436005 -1.089331 0.588504
-0.430414 -1.075146 0.153659
-0.434244 -1.083894 0.383559
-0.438225 -1.089082 0.650500
-0.432683 -1.072985 -0.030342
-0.441824 -1.096095 0.818415
-0.434366 -1.076163 0.152628
-0.436944 -1.079997 0.052564
-0.438570 -1.082040 0.477564
-0.443397 -1.092819 0.709435
-0.436865 -1.075780 0.287629
-0.442497 -1.086996 0.471488
-0.438306 -1.076133 0.147607
-0.443755 -1.085725 0.025462
-0.439894 -1.076992 0.303601
-0.444256 -1.085268 0.155474
-0.440544 -1.073888 -0.043393
-0.439223 -1.069881 0.125671
-0.449929 -1.092658 0.860415
-0.445365 -1.080654 0.440542
-0.445537 -1.081188 0.485538
-0.446542 -1.083254 0.490510
-0.449019 -1.088834 0.622445
-0.446643 -1.079464 0.001516
-0.443070 -1.071577 0.097630
-0.445801 -1.076897 0.038552
-0.448767 -1.081973 0.296499
-0.448760 -1.079906 0.037502
-0.448177 -1.077134 0.141544
-0.451345 -1.084872 0.708484
-0.446800 -1.071906 0.038603
-0.449866 -1.077258 0.066528
-0.453599 -1.084665 0.267441
-0.454233 -1.086645 0.687447
-0.453439 -1.082134 -0.030552
-0.452741 -1.081039 0.299489
-0.454174 -1.084423 0.415452
-0.446608 -1.066290 -0.013337
-0.449750 -1.072880 0.034576
-0.456466 -1.082355 0.239450
-0.457431 -1.078247 -0.023529
-0.454053 -1.071998 0.885628
-0.461239 -1.084889 0.703431
-0.461418 -1.083414 0.494431
-0.459710 -1.078187 0.307485
-0.459326 -1.077011 0.208493
-0.460272 -1.079920 0.706493
-0.464759 -1.087587 0.591374
-0.459121 -1.072359 0.153542
-0.467982 -1.092404 0.658308
-0.464957 -1.084160 0.386396
-0.460383 -1.069176 -0.031443
-0.482509 -1.118672 0.840950
-0.461104 -1.070374 0.153554
-0.465645 -1.079219 0.053423
-0.471188 -1.092128 0.717299
-0.469263 -1.086247 0.475357
-0.467328 -1.081341 0.484423
-0.465595 -1.075042 0.291488
-0.471467 -1.082928 0.025348
-0.467021 -1.073370 0.149488
-0.469023 -1.076466 0.156443
-0.470598 -1.080267 0.307404
-0.469897 -1.075117 0.126452
-0.471201 -1.075087 -0.045568
-0.476081 -1.085943 0.445322
-0.476283 -1.085549 0.496329
-0.478716 -1.091954 0.866272
-0.477784 -1.088113 0.627302
-0.476276 -1.083515 0.493351
-0.477692 -1.082840 0.098322
-0.478294 -1.083681 0.000301
-0.474504 -1.075119 0.039421
-0.477495 -1.082223 0.299345
-0.472533 -1.070107 0.039487
-0.473932 -1.070350 0.143485
-0.477151 -1.079121 0.712413
-0.475497 -1.073127 0.039438
-0.482014 -1.087941 0.694286
-0.481337 -1.082895 0.269314
-0.481474 -1.081300 0.303334
-0.482516 -1.082495 0.066297
-0.484891 -1.087700 0.419253
-0.477277 -1.069524 -0.012535
-0.484102 -1.083332 -0.032728
-0.478447 -1.070078 0.033456
-0.483213 -1.077567 0.240362
-0.480861 -1.069280 0.891517
-0.484160 -1.071455 -0.022595
-0.488036 -1.081157 0.708331
-0.490172 -1.083691 0.499276
-0.488439 -1.077425 0.309341
-0.493781 -1.087639 0.661224
-0.498982 -1.097469 0.728091
-0.489035 -1.075243 0.209354
-0.488819 -1.073589 0.154370
-0.495505 -1.085870 0.595230
-0.494687 -1.082407 0.388257
-0.499010 -1.089553 0.482161
-0.490065 -1.069391 -0.031604
-0.489820 -1.069610 0.155409
-0.495341 -1.079448 0.054261
-0.497996 -1.085397 0.722231
-0.504360 -1.097757 0.833067
-0.499063 -1.085686 0.493205
-0.498292 -1.081366 0.298242
-0.498727 -1.078707 0.158259
-0.495739 -1.072605 0.151343
-0.499186 -1.078132 0.025253
-0.500326 -1.080536 0.311242
-0.500586 -1.077353 0.127262
-0.505826 -1.086225 0.450159
-0.502071 -1.078771 0.498266
-0.507517 -1.088250 0.872159
-0.510984 -1.092903 0.504060
-0.510520 -1.092456 0.635078
-0.504252 -1.078447 0.301243
-0.506995 -1.081878 -0.000833
-0.504200 -1.075347 0.040258
-0.513776 -1.096334 0.707022
-0.505420 -1.077044 0.098237
-0.501245 -1.068340 0.041352
-0.515857 -1.097646 0.731998
-0.503643 -1.070604 0.146322
-0.506113 -1.074082 0.269279
-0.504205 -1.069337 0.039325
-0.510216 -1.078550 0.306210
-0.514187 -1.083714 0.065112
-0.512655 -1.081934 0.421167
-0.511098 -1.074302 0.032231
-0.511941 -1.074792 0.241237
-0.513643 -1.077732 0.908246
-0.518803 -1.084497 0.717127
-0.521914 -1.086024 0.507077
-0.516192 -1.071657 0.311254
-0.527524 -1.094024 0.671970
-0.517541 -1.070813 0.155244
-0.530766 -1.097855 0.739914
-0.517761 -1.070457 0.209251
-0.527770 -1.088817 0.486012
-0.531213 -1.094243 0.603942
-0.519529 -1.068840 0.156255
-0.525045 -1.078676 0.055108
-0.526405 -1.082680 0.391081
-0.535725 -1.099903 0.740864
-0.528830 -1.085005 0.501050
-0.525064 -1.075614 0.302160
-0.531171 -1.088981 0.834018
-0.528441 -1.079948 0.160083
-0.525456 -1.072858 0.154178
-0.528083 -1.074767 0.313154
-0.535574 -1.086495 0.453992
-0.531286 -1.076590 0.128102
-0.535787 -1.086116 0.505999
-0.544553 -1.100685 0.716805
-0.525388 -1.065271 0.861316
-0.532992 -1.076684 0.303104
-0.539757 -1.090179 0.508932
-0.545255 -1.099846 0.645805
-0.544658 -1.095962 0.739858
-0.531385 -1.067843 0.149200
-0.536116 -1.076268 0.098076
-0.539800 -1.079376 0.273034
-0.539958 -1.075819 0.310076
-0.546363 -1.086243 0.425933
-0.542656 -1.075042 0.243064
-0.537483 -1.066923 0.908234
-0.553552 -1.092912 0.729841
-0.555642 -1.093380 0.515808
-0.561276 -1.100407 0.682711
-0.547904 -1.073926 0.314052
-0.555549 -1.086073 0.489888
-0.562555 -1.098227 0.750733
-0.549236 -1.071056 0.156065
-0.551441 -1.073726 0.211027
-0.556175 -1.079151 0.159936
-0.558010 -1.083450 0.603912
-0.566522 -1.099257 0.750700
-0.558134 -1.080951 0.393923
-0.562572 -1.088374 0.510824
-0.556788 -1.076907 0.306969
-0.559155 -1.079196 0.161919
-0.559137 -1.077137 0.156941
-0.569910 -1.099462 0.849685
-0.560796 -1.078067 0.317934
-0.574348 -1.102017 0.725623
-0.564340 -1.082747 0.456872
-0.561745 -1.075944 0.306951
-0.567537 -1.086424 0.511818
-0.565134 -1.080842 0.883921
-0.570525 -1.088493 0.515778
-0.578012 -1.100164 0.651617
-0.578430 -1.100359 0.751620
-0.569536 -1.077619 0.274886
-0.568715 -1.073080 0.313944
-0.576119 -1.083500 0.428795
-0.586194 -1.100742 0.946586
-0.575359 -1.075305 0.244876
-0.585334 -1.094259 0.738647
-0.585418 -1.089663 0.520680
-0.592059 -1.100722 0.689533
-0.588293 -1.091409 0.497643
-0.578638 -1.073188 0.316886
-0.598336 -1.103698 0.767470
-0.582164 -1.069963 0.211893
-0.599314 -1.100648 0.762497
-0.592354 -1.083670 0.516706
-0.598708 -1.094905 0.616553
-0.587540 -1.074205 0.312823
-0.589872 -1.078223 0.396772
-0.606140 -1.103375 0.735426
-0.598721 -1.090711 0.851617
-0.595099 -1.082035 0.461704
-0.591541 -1.075341 0.321788
-0.593470 -1.077212 0.309755
-0.596320 -1.081689 0.515705
-0.603286 -1.089844 0.524575
-0.596934 -1.080193 0.892747
-0.610785 -1.100505 0.659425
-0.607245 -1.094651 0.757517
-0.600274 -1.075880 0.277728
-0.600454 -1.072372 0.318769
-0.611051 -1.090974 0.949550
-0.608859 -1.083802 0.433603
-0.621105 -1.100693 0.752369
-0.623851 -1.101068 0.698345
-0.618072 -1.088691 0.502500
-0.615203 -1.083947 0.525571
-0.611368 -1.071476 0.320715
-0.620208 -1.085873 0.767539
-0.626153 -1.090915 0.767448
-0.632072 -1.096137 0.531338
-0.621269 -1.077534 0.319590
-0.628991 -1.091554 0.735422
-0.633467 -1.095259 0.624346
-0.624592 -1.078526 0.400566
-0.626856 -1.081330 0.466526
-0.624272 -1.075629 0.325594
-0.629079 -1.083014 0.522499
-0.635499 -1.094143 0.864365
-0.631090 -1.082101 0.528498
-0.628746 -1.079555 0.902568
-0.636067 -1.087944 0.763422
-0.645553 -1.101871 0.668206
-0.640888 -1.087312 0.958415
-0.645575 -1.087142 0.439350
-0.643957 -1.082839 0.749430
-0.655645 -1.099390 0.705176
-0.650836 -1.090016 0.509292
-0.651946 -1.090347 0.536284
-0.661972 -1.097443 0.789165
-0.666920 -1.101454 0.787092
-0.668755 -1.104071 0.754050
-0.663862 -1.092469 0.539189
-0.660278 -1.082453 0.623327
-0.667558 -1.092754 0.477159
-0.664826 -1.085372 0.530260
-0.670296 -1.092514 0.873176
-0.667842 -1.085502 0.539241
-0.664549 -1.081992 0.916328
-0.678824 -1.102518 0.785008
-0.671383 -1.089070 0.668191
-0.666741 -1.076539 0.960378
-0.680629 -1.087296 0.514143
-0.689691 -1.101445 0.771953
-0.684465 -1.091657 0.709087
-0.686710 -1.091697 0.544060
-0.693607 -1.093287 0.756017
-0.690819 -1.088760 0.797086
-0.698749 -1.096814 0.796950
-0.688708 -1.076696 0.542211
-0.696048 -1.080814 0.631128
-0.701581 -1.087748 0.539012
-0.712638 -1.101902 0.795810
-0.704606 -1.088902 0.549981
-0.707331 -1.094569 0.937933
-0.691164 -1.069601 0.866297
-0.692242 -1.067177 0.663302
-0.707552 -1.088127 0.984005
-0.710567 -1.081576 0.769041
-0.702352 -1.068743 0.704226
-0.710502 -1.069355 0.750172
-0.723659 -1.084163 0.809935
-0.724614 -1.083063 0.800940
-0.730535 -1.075979 0.789979
-0.737179 -1.084859 0.942853
-0.724983 -1.064965 0.875139
-0.737974 -1.080722 0.680873
-0.740402 -1.073873 0.774939
-0.734165 -1.064065 0.711079
-0.732377 -1.054538 0.751196
-0.742558 -1.060282 0.807074
-0.747490 -1.064244 0.801000
-0.780298 -1.094659 0.816467
-0.773015 -1.083284 0.955645
-0.748330 -1.035763 0.759298
-0.776151 -1.066081 0.769796
-0.755489 -1.029325 0.801324
-0.768382 -1.043411 0.801091
-0.816563 -1.081126 0.915387
-1.897089 3.681417 1.790927
0.229411 2.777082 1.704297
0.227622 2.596205 1.692740
0.321534 3.955432 1.798155
0.219685 2.421199 1.688175
0.219831 2.395186 1.688814
0.360660 4.026103 1.765715
0.264769 2.773455 1.761784
0.261911 2.606584 1.749407
0.263896 2.603552 1.752395
0.270333 2.546653 1.746696
0.305433 2.866762 1.755693
0.295366 2.695632 1.759153
0.280740 2.494759 1.742126
0.280817 2.475717 1.744862
0.330964 2.774775 1.762793
0.262476 2.085950 1.716143
0.320916 2.614726 1.760409
0.326111 2.594807 1.756209
0.328646 2.533973 1.744396
0.373988 2.843305 1.741394
0.356659 2.685968 1.756941
0.335065 2.470002 1.743602
0.337924 2.492002 1.744952
0.384678 2.666930 1.698089
0.374703 2.569318 1.736586
0.317316 2.108963 1.734302
0.376664 2.493817 1.700557
0.377168 2.437972 1.688786
0.328817 2.034998 1.734449
0.369499 2.110188 1.736121
