# .PCD v0.7 - Point Cloud Data file format
VERSION 0.7
FIELDS x y z
SIZE 4 4 4
TYPE F F F
COUNT 1 1 1
WIDTH 168
HEIGHT 1
VIEWPOINT 0 0 0 1
POINTS 168
DATA ascii
-0.739771 -2.980147 1.369098
-0.809442 -3.133536 1.358015
-0.937206 2.229455 0.845559
-0.982005 2.243249 0.798724
-0.936674 2.287951 0.809533
-0.078434 1.956572 1.124466
-0.054177 2.107022 1.160787
-0.036177 1.994240 1.144159
-0.085138 1.992639 1.121055
-0.069065 2.012233 1.147398
-0.001881 2.159596 1.185719
-0.040871 2.047145 1.151000
0.010093 2.034869 1.165903
-0.079906 1.948379 1.137483
-0.021791 2.048907 1.166081
-0.056634 2.075418 1.134431
0.056338 2.059639 1.179400
0.006381 2.060003 1.158323
-0.090743 1.886537 1.127601
-0.036657 1.983057 1.157126
0.028475 2.094525 1.189896
-0.070366 2.141403 1.137424
-0.007377 2.120005 1.160225
-0.050504 1.920191 1.149224
0.054629 2.093685 1.177954
0.010603 2.031635 1.183980
0.081737 2.148074 1.218828
0.043874 2.155658 1.181887
-0.006254 1.952862 1.169841
0.057850 2.049443 1.195377
0.037989 1.973644 1.183278
0.109100 2.091062 1.220129
0.087222 2.047956 1.229505
0.131461 2.032030 1.223403
0.904489 1.774520 1.499230
1.007524 1.924957 1.543509
0.963696 1.786253 1.524588
0.926780 1.797346 1.519692
0.885844 1.717764 1.488536
1.074747 1.933733 1.566841
1.012927 1.779198 1.534670
0.844129 1.652151 1.464650
0.981009 1.796211 1.535867
0.937067 1.717597 1.506721
0.871171 1.680018 1.476101
1.089095 1.810665 1.581330
0.900331 1.665847 1.493034
0.989287 1.717423 1.525908
1.039233 1.798032 1.556093
0.923388 1.682787 1.499331
0.868532 1.651136 1.474831
1.130351 1.785788 1.579160
0.956533 1.676565 1.520377
1.043505 1.717231 1.547101
1.126369 1.845335 1.615985
0.979599 1.688511 1.526610
0.920754 1.651886 1.500040
0.867859 1.546195 1.476541
1.010743 1.680346 1.543625
1.101716 1.719995 1.572344
1.163653 1.808576 1.605652
1.029827 1.682364 1.544719
0.983937 1.669431 1.541494
0.931015 1.574663 1.523139
1.065951 1.683122 1.567862
1.149948 1.707937 1.584368
1.077063 1.670277 1.558745
1.034163 1.663264 1.561605
1.101817 1.766089 1.728114
1.110195 1.667117 1.575828
1.122312 1.654210 1.570716
1.127110 1.722406 1.710670
1.079415 1.647171 1.575579
1.193253 1.740952 1.754130
1.983620 -1.882394 2.497249
1.975373 -1.962774 2.548688
1.885004 -1.964519 2.498741
2.008956 -2.091617 2.581002
1.875440 -1.892188 2.481734
1.967711 -1.917832 2.491735
1.807053 -2.055863 2.439419
1.797060 -2.208788 2.435096
1.891182 -2.168414 2.449794
1.876955 -2.247772 2.495247
1.829150 -2.385139 2.416061
1.838116 -2.511777 2.503139
1.772681 -2.693508 2.456606
0.086425 -2.883442 -0.151442
0.079029 -2.821842 -0.109904
0.021513 -2.814970 -0.142679
0.078765 -2.838646 -0.139748
0.014167 -2.818134 -0.136387
0.067479 -2.848849 -0.131513
0.002805 -2.816326 -0.130050
0.056062 -2.832956 -0.135048
-0.007421 -2.830397 -0.137837
-0.181711 -1.762729 2.053205
-0.200065 -1.841847 2.052585
-0.182753 -1.469006 1.725851
-0.249051 -1.921069 2.040096
-0.197273 -1.520963 1.708457
-0.181670 -1.625361 1.889689
-0.221939 -1.890674 2.014514
-0.258132 -1.791198 1.685300
-0.211409 -1.451129 1.717180
-0.189645 -1.564991 1.717270
-0.226910 -1.508127 1.703740
-0.181551 -1.776667 2.047598
-0.241349 -1.586215 1.702096
-0.196019 -1.471055 1.720161
-0.221075 -1.591125 1.707201
-0.221350 -1.909956 2.049601
-0.290844 -1.763290 1.668711
-0.258382 -1.828096 1.671232
-0.220311 -1.542056 1.699645
-0.240065 -1.431240 1.706532
-0.255574 -1.490255 1.695066
-0.183621 -1.484967 1.719208
-0.273013 -1.562333 1.689486
-0.249009 -1.913157 2.051696
-0.224667 -1.454148 1.707481
-0.324508 -1.743450 1.659056
-0.253712 -1.571257 1.695557
-0.216682 -1.576030 1.698563
-0.295014 -1.810258 1.659564
-0.200819 -1.747185 1.974215
-0.250940 -1.528199 1.690941
-0.357504 -1.875611 1.649980
-0.224763 -1.899722 2.018976
-0.214226 -1.473099 1.709490
-0.238396 -1.574184 1.698696
-0.254296 -1.438286 1.698801
-0.333263 -1.871496 1.655178
-0.589316 -2.849019 1.496924
-0.654236 -3.137016 1.439515
-0.283403 -1.545325 1.677958
-0.249299 -1.560165 1.686884
-0.330672 -1.788411 1.646932
-0.220832 -1.628075 1.699373
-0.280589 -1.511316 1.679262
-0.205655 -1.506013 1.705396
-0.301202 -1.851251 1.651477
-0.231613 -1.660720 1.769137
-0.243855 -1.457197 1.695808
-0.314979 -1.866439 1.662402
-0.270033 -1.556298 1.685032
-0.369950 -1.842645 1.640611
-0.639171 -2.789206 1.473618
-0.604103 -2.936998 1.476484
-0.725763 -3.122612 1.446844
-0.280927 -1.543272 1.672212
-0.237234 -1.499182 1.698637
-0.256408 -1.615225 1.686676
-0.340788 -1.838483 1.644775
-0.254590 -1.583246 1.690959
-0.352634 -1.842602 1.648792
-0.319129 -1.912346 1.645274
-0.836016 -3.829285 1.798141
-0.955476 -3.799426 1.340324
-0.687988 -2.738440 1.456232
-0.658915 -2.881242 1.455149
-0.332222 -1.866567 1.660750
-0.625776 -3.040118 1.466927
-0.786586 -3.060974 1.433573
-0.268826 -1.488332 1.688915
-0.291005 -1.599349 1.671003
-0.287191 -1.572412 1.682233
-0.378430 -1.815635 1.629160
