# .PCD v0.7 - Point Cloud Data file format
VERSION 0.7
FIELDS x y z
SIZE 4 4 4
TYPE F F F
COUNT 1 1 1
WIDTH 68
HEIGHT 1
VIEWPOINT 0 0 0 1
POINTS 68
DATA ascii
2.460227 1.644339 0.403938
2.430215 1.657108 0.490094
2.467606 1.561945 0.397401
2.419374 1.591130 0.317628
2.424627 1.569623 0.480497
3.503105 2.152422 0.044228
3.431224 2.089071 0.908687
2.398648 1.580491 0.558641
2.728703 1.718534 0.016047
3.835954 2.383212 0.195550
2.499803 1.495756 0.396010
2.432060 1.572445 0.352644
3.578513 2.123905 0.378155
2.371922 1.586554 0.381743
2.456764 1.507461 0.478134
2.849602 1.662223 0.038736
2.700248 1.698411 0.068982
3.436888 1.980597 0.895930
2.422774 1.517275 0.555256
3.481731 2.068675 0.013746
3.416572 2.021674 0.959332
2.384726 1.529077 0.633382
3.611432 2.298187 0.098872
2.756070 1.632103 0.144499
3.544447 2.079415 0.441931
3.517755 2.144696 0.493494
2.578718 1.455980 0.400869
3.557383 1.995136 0.369205
3.835607 2.395611 0.170935
2.508761 1.457451 0.480881
2.652677 1.590016 0.234152
3.684888 2.187665 0.087056
3.465388 1.886286 0.890299
2.459823 1.461150 0.554936
2.412763 1.471901 0.631040
2.563074 1.563155 0.320928
3.409251 1.909076 0.946515
3.637959 2.199873 0.099210
2.802211 1.569046 0.144132
3.525362 2.038193 0.490743
3.551096 1.969892 0.438154
3.611646 1.911519 0.542685
3.427804 1.965595 1.002082
3.873124 2.298340 0.176290
2.741488 1.557380 0.237070
3.715427 2.088345 0.089383
2.587359 1.454755 0.573106
2.513371 1.456287 0.646105
2.636914 1.526370 0.324795
2.825114 1.628374 0.081819
3.869127 2.035723 0.187086
3.550843 1.942833 0.491089
3.460194 1.878286 1.002498
3.785319 2.130863 0.175934
3.555996 1.832263 0.649163
3.731663 1.996001 0.309735
3.629047 2.007808 1.105825
3.517748 1.862759 0.758461
3.519175 1.921596 0.879025
3.679644 2.008145 0.435884
2.875151 1.571368 0.082489
3.593356 1.938084 0.556245
3.648762 1.871121 1.045715
3.645516 1.910360 1.103129
3.575984 1.788700 0.759995
3.516653 1.821087 0.867278
3.671249 1.896525 0.429044
4.288780 2.009962 1.143471
