# .PCD v0.7 - Point Cloud Data file format
VERSION 0.7
FIELDS x y z
SIZE 4 4 4
TYPE F F F
COUNT 1 1 1
WIDTH 870
HEIGHT 1
VIEWPOINT 0 0 0 1
POINTS 870
DATA ascii
0.164415 1.670439 0.873967
0.161618 1.643454 0.867800
0.199046 1.640499 0.868453
0.200313 1.628571 0.853422
0.235561 1.629557 0.865049
0.246451 1.657565 0.869357
0.180265 1.641099 0.897528
0.272878 1.670026 0.595828
0.199969 1.638328 0.857857
0.284289 1.666162 0.573006
0.273936 1.630586 0.868722
0.288874 1.658607 0.872096
0.223484 1.661101 0.909373
0.162394 1.642728 0.926576
0.308434 1.649096 0.591353
0.237471 1.627376 0.856464
0.309513 1.612646 0.863261
0.324836 1.652238 0.569643
0.195690 1.647199 0.845167
0.330366 1.652657 0.871781
0.266307 1.674719 0.614129
0.264890 1.662133 0.913094
0.201764 1.645751 0.931279
0.270795 1.663889 0.582156
0.352688 1.665137 0.599173
0.360535 1.685485 0.349354
0.276801 1.631392 0.863161
0.354607 1.639626 0.881147
0.372090 1.671288 0.577527
0.233195 1.634246 0.843765
0.304848 1.657789 0.610721
0.373810 1.651703 0.873516
0.304362 1.655180 0.912743
0.246524 1.661365 0.640083
0.242090 1.651767 0.938007
0.312149 1.666940 0.585879
0.388249 1.642204 0.594680
0.397046 1.664558 0.346884
0.193482 1.650092 0.829486
0.403441 1.672757 0.313018
0.311384 1.610457 0.856666
0.394013 1.635664 0.883788
0.413542 1.664359 0.577186
0.273503 1.639264 0.851474
0.434547 1.696763 0.140605
0.349165 1.667846 0.615507
0.416233 1.648747 0.876206
0.281443 1.653794 0.942684
0.343808 1.649225 0.913380
0.286888 1.663419 0.642776
0.351571 1.658995 0.587506
0.221165 1.649375 0.969976
0.433474 1.658248 0.603492
0.438454 1.659636 0.347546
0.228181 1.616179 0.818926
0.359398 1.643423 0.879610
0.444891 1.662839 0.312660
0.305909 1.665849 0.569096
0.433422 1.630700 0.886418
0.384479 1.670316 0.355068
0.458924 1.665421 0.580933
0.472488 1.685095 0.094170
0.311013 1.624312 0.850042
0.393705 1.676425 0.339243
0.475002 1.683856 0.139211
0.390578 1.663906 0.617176
0.322414 1.643484 0.639286
0.320882 1.647832 0.944320
0.385202 1.648260 0.917062
0.258583 1.644409 0.971589
0.388028 1.645051 0.587052
0.458725 1.640802 0.875869
0.266975 1.660046 0.673758
0.473877 1.653306 0.605130
0.496929 1.702807 -0.024380
0.480835 1.657712 0.349228
0.272382 1.632168 0.833748
0.398791 1.639455 0.883245
0.344345 1.655907 0.569694
0.473786 1.629730 0.891071
0.496172 1.681940 0.316567
0.515573 1.699073 -0.065101
0.420982 1.650390 0.352584
0.365469 1.674937 0.390100
0.505287 1.669488 0.584697
0.354213 1.638306 0.863822
0.516901 1.682205 0.092873
0.434137 1.666497 0.339863
0.304705 1.666779 0.551403
0.520360 1.686960 0.139953
0.359264 1.644859 0.947944
0.430986 1.658962 0.618817
0.296930 1.644425 0.977233
0.368635 1.662520 0.649134
0.433301 1.656095 0.594840
0.427610 1.646295 0.920749
0.302479 1.642105 0.671274
0.504070 1.644835 0.882617
0.453420 1.689645 0.140245
0.386358 1.684349 0.323475
0.518219 1.656361 0.609855
0.539347 1.694916 -0.025734
0.529102 1.672797 0.354062
0.462519 1.694696 0.135412
0.439172 1.636482 0.887892
0.308909 1.613213 0.832277
0.383769 1.645954 0.572302
0.514179 1.625763 0.894705
0.542537 1.685031 0.318319
0.559804 1.702624 -0.144394
0.558639 1.697525 -0.127431
0.563915 1.709216 -0.067294
0.474153 1.682477 0.360577
0.402957 1.657007 0.388639
0.395571 1.637326 0.870498
0.345537 1.669559 0.423074
0.549715 1.664554 0.586385
0.334282 1.643444 0.981849
0.490456 1.700609 -0.018135
0.469640 1.643561 0.338344
0.399620 1.644879 0.953606
0.341206 1.645832 0.550917
0.561338 1.675312 0.091551
0.410924 1.669558 0.655855
0.476303 1.666015 0.624578
0.560807 1.673045 0.139539
0.347612 1.667117 0.685132
0.474665 1.653139 0.599496
0.469029 1.642333 0.923402
0.549469 1.643874 0.887336
0.494851 1.679736 0.139870
0.431394 1.688252 0.177204
0.425774 1.673414 0.325070
0.558645 1.647416 0.611461
0.573480 1.671879 0.355760
0.586740 1.697049 -0.027979
0.503922 1.686782 0.136043
0.478589 1.628509 0.891496
0.355023 1.636188 0.851142
0.554557 1.621790 0.899331
0.429005 1.658988 0.582095
0.445086 1.696596 0.121453
0.513708 1.694672 -0.019789
0.586976 1.678122 0.317991
0.381077 1.687289 0.305717
0.609178 1.710783 -0.148589
0.606025 1.700669 -0.130676
0.530729 1.708204 -0.106475
0.530718 1.708198 -0.105475
0.517535 1.680555 0.362261
0.599434 1.677288 -0.067863
0.450204 1.675080 0.394479
0.372630 1.642459 0.987475
0.381017 1.650623 0.421573
0.434954 1.631343 0.876113
0.439014 1.640906 0.957228
0.532864 1.692711 -0.018493
0.524769 1.678645 0.348366
0.595156 1.658622 0.588074
0.386974 1.665158 0.688767
0.451365 1.661616 0.656475
0.385529 1.650875 0.557665
0.612112 1.688171 0.140401
0.518728 1.660074 0.626229
0.614652 1.692453 0.091452
0.518020 1.653189 0.604188
0.511389 1.642360 0.929079
0.594878 1.640911 0.892036
0.539213 1.680834 0.140578
0.476707 1.697349 0.178969
0.601016 1.644467 0.615113
0.465198 1.661477 0.326655
0.411334 1.693865 0.214224
0.618841 1.671959 0.358467
0.625216 1.676139 -0.029463
0.518979 1.623534 0.896119
0.544355 1.674869 0.135634
0.598878 1.624814 0.907037
0.492009 1.710517 -0.022757
0.395426 1.629205 0.856772
0.470376 1.655031 0.586743
0.485483 1.686673 0.123058
0.559073 1.695787 -0.020069
0.634359 1.678213 0.319727
0.421496 1.675350 0.308320
0.646661 1.684868 -0.149112
0.644514 1.676762 -0.132175
0.573129 1.698303 -0.105850
0.410990 1.639472 0.993085
0.560946 1.675636 0.362924
0.575127 1.702317 -0.106802
0.495519 1.681147 0.399228
0.654762 1.696460 -0.070933
0.428203 1.673679 0.430436
0.504790 1.692313 0.017374
0.477296 1.631358 0.883792
0.480379 1.639927 0.962886
0.566166 1.671716 0.349988
0.426358 1.661203 0.691386
0.576259 1.688824 -0.019829
0.491732 1.658660 0.660106
0.657499 1.686278 0.140093
0.423963 1.637917 0.560232
0.640564 1.654686 0.590761
0.562105 1.658126 0.629904
0.560358 1.652230 0.609850
0.662008 1.694564 0.092189
0.555771 1.641388 0.934774
0.640262 1.638944 0.897730
0.513195 1.673416 0.178448
0.645380 1.642518 0.619791
0.588558 1.688949 0.141382
0.509528 1.663542 0.331368
0.450757 1.681940 0.214805
0.560349 1.620556 0.901758
0.664219 1.669036 0.361153
0.639262 1.618839 0.911638
0.596627 1.692987 0.138523
0.682521 1.698311 -0.031498
0.528457 1.686584 -0.021282
0.437736 1.631210 0.866463
0.515705 1.658074 0.593474
0.528843 1.683756 0.125730
0.601472 1.686882 -0.019446
0.545196 1.716053 -0.093906
0.540123 1.696945 -0.079063
0.458928 1.659406 0.309852
0.471054 1.688578 0.110143
0.680785 1.672304 0.320413
0.449354 1.635483 0.998683
0.704988 1.709074 -0.155129
0.703810 1.704967 -0.137161
0.478737 1.693932 0.051281
0.619510 1.699437 -0.108127
0.622482 1.706449 -0.108053
0.536914 1.675215 0.400854
0.605343 1.671714 0.364598
0.469558 1.671735 0.434088
0.705136 1.702613 -0.074143
0.550146 1.695426 0.017099
0.520753 1.635943 0.968508
0.518681 1.625371 0.890423
0.464767 1.652242 0.693962
0.533112 1.654704 0.663742
0.610535 1.669790 0.352668
0.627601 1.699966 -0.020991
0.602736 1.648280 0.613492
0.470199 1.649945 0.571023
0.687948 1.653751 0.594480
0.606520 1.653184 0.632572
0.705892 1.684385 0.140820
0.707441 1.686674 0.090847
0.598152 1.637410 0.940416
0.691703 1.645573 0.625508
0.561474 1.687519 0.181262
0.487190 1.665004 0.215312
0.556815 1.672614 0.337146
0.634938 1.688051 0.142092
0.689647 1.638980 0.904482
0.602672 1.619565 0.910411
0.708610 1.664115 0.362806
0.683604 1.617859 0.919310
0.508753 1.704437 -0.024211
0.509060 1.703591 -0.051213
0.639034 1.684074 0.139138
0.727958 1.688426 -0.032852
0.577770 1.697708 -0.020468
0.480082 1.629216 0.875129
0.557082 1.652115 0.598097
0.571223 1.677839 0.127366
0.654794 1.702033 -0.020568
0.582634 1.692119 -0.091424
0.587460 1.703070 -0.079303
0.505219 1.666467 0.316614
0.489648 1.638486 1.007335
0.512448 1.678651 0.112754
0.727203 1.665387 0.322085
0.522074 1.695025 0.052966
0.580274 1.674285 0.403524
0.510919 1.669798 0.436731
0.664903 1.695559 -0.109451
0.659933 1.683526 -0.107574
0.750249 1.697102 -0.140497
0.651689 1.672790 0.368311
0.749443 1.694189 -0.156522
0.505111 1.651279 0.698594
0.563116 1.633959 0.975160
0.752553 1.697745 -0.076453
0.561010 1.624379 0.899080
0.591554 1.684515 0.017695
0.575490 1.651752 0.667388
0.655895 1.667862 0.356354
0.676953 1.706101 -0.022216
0.647096 1.645323 0.619160
0.514498 1.652974 0.579734
0.650911 1.649236 0.636235
0.642539 1.634437 0.946084
0.753296 1.680495 0.140514
0.735357 1.648812 0.598172
0.756841 1.684792 0.090578
0.534434 1.681090 0.220120
0.736095 1.638619 0.630146
0.607842 1.687613 0.182976
0.601166 1.671683 0.340827
0.681310 1.687154 0.142792
0.646028 1.616579 0.918062
0.728918 1.618878 0.927995
0.738040 1.636011 0.911196
0.753028 1.655190 0.364434
0.548460 1.689670 -0.049658
0.550120 1.694511 -0.020609
0.550753 1.692832 -0.076613
0.686387 1.685175 0.140860
0.617176 1.682785 -0.018924
0.598464 1.645154 0.602707
0.777359 1.687564 -0.035121
0.520491 1.620230 0.880726
0.620522 1.686937 0.131161
0.702176 1.700151 -0.020861
0.627015 1.688231 -0.091760
0.529987 1.636490 1.014958
0.626883 1.685148 -0.077773
0.550533 1.669529 0.322333
0.552813 1.669716 0.116345
0.552265 1.667854 0.440366
0.778561 1.668486 0.324859
0.560496 1.678095 0.054491
0.623652 1.670353 0.406172
0.546449 1.650312 0.704234
0.607399 1.637961 0.985858
0.715262 1.701706 -0.111669
0.715250 1.701701 -0.110669
0.697091 1.667869 0.369976
0.800851 1.695352 -0.160759
0.601424 1.615398 0.903666
0.801663 1.696257 -0.143742
0.640888 1.691635 0.018477
0.619815 1.652789 0.674072
0.802969 1.694886 -0.078721
0.701241 1.666934 0.360033
0.689478 1.638364 0.623772
0.558809 1.655009 0.587431
0.724355 1.701217 -0.022526
0.699232 1.653288 0.642979
0.689841 1.637446 0.956810
0.799700 1.673594 0.141170
0.785711 1.649875 0.603921
0.807240 1.682914 0.090312
0.578797 1.679169 0.222797
0.780477 1.633673 0.633783
0.653211 1.685703 0.184658
0.644542 1.665746 0.344463
0.688368 1.613592 0.925689
0.727700 1.683254 0.143469
0.773300 1.612898 0.934628
0.788374 1.637035 0.920942
0.594465 1.693609 -0.018931
0.801404 1.653275 0.367138
0.600043 1.705960 -0.075801
0.593834 1.685770 -0.047977
0.733765 1.682273 0.142555
0.670474 1.697923 -0.018055
0.643808 1.644194 0.609394
0.562846 1.616233 0.889367
0.666877 1.687034 0.132863
0.829750 1.689712 -0.037347
0.570322 1.634493 1.022573
0.677331 1.698367 -0.091959
0.747584 1.692261 -0.021218
0.677196 1.697291 -0.078964
0.595848 1.671591 0.328038
0.603079 1.684820 0.120179
0.596591 1.669914 0.445055
0.584858 1.640348 0.706783
0.611767 1.694211 0.057343
0.648776 1.632977 0.991465
0.669033 1.667425 0.408845
0.825984 1.661578 0.325524
0.761671 1.694829 -0.113010
0.744466 1.665950 0.372672
0.764643 1.699835 -0.111946
0.645741 1.614397 0.914336
0.853060 1.696413 -0.146995
0.690221 1.697756 0.019244
0.662234 1.644837 0.676681
0.854256 1.697521 -0.164975
0.745641 1.659003 0.362660
0.854368 1.694032 -0.080979
0.738771 1.643407 0.632525
0.769752 1.694327 -0.022884
0.602196 1.648045 0.593066
0.742635 1.645335 0.646591
0.737182 1.637464 0.965514
0.850097 1.671714 0.140893
0.622154 1.676245 0.225445
0.839061 1.651940 0.610704
0.856668 1.677036 0.089004
0.832776 1.638725 0.642564
0.698599 1.681798 0.185321
0.689887 1.663810 0.349136
0.733700 1.611599 0.935355
0.818645 1.608911 0.943274
0.774091 1.678354 0.144132
0.637831 1.686695 -0.016303
0.851759 1.653361 0.370868
0.637475 1.683023 -0.073330
0.637192 1.679857 -0.045344
0.834829 1.627072 0.924577
0.783127 1.682378 0.144280
0.610641 1.632491 1.031179
0.715852 1.693027 -0.017399
0.690107 1.646227 0.618096
0.712239 1.683120 0.135523
0.608148 1.616221 0.902059
0.881137 1.688851 -0.038612
0.792979 1.685370 -0.021582
0.725698 1.698492 -0.092239
0.725571 1.696415 -0.079248
0.640198 1.668652 0.332697
0.648415 1.683901 0.123860
0.638959 1.664970 0.448676
0.629133 1.645374 0.715480
0.693089 1.632981 1.001132
0.657116 1.693307 0.059026
0.712415 1.661491 0.411470
0.880341 1.663678 0.329316
0.691049 1.614399 0.925017
0.794812 1.668036 0.376419
0.706580 1.642878 0.682337
0.815025 1.698973 -0.113214
0.733628 1.686849 0.019844
0.816054 1.698987 -0.115199
0.909630 1.703701 -0.169158
0.908459 1.699589 -0.151189
0.796956 1.663083 0.368429
0.909760 1.697199 -0.084174
0.783143 1.636448 0.638149
0.818148 1.690454 -0.024195
0.644556 1.641075 0.599678
0.791960 1.647389 0.653322
0.782586 1.630491 0.971151
0.900478 1.668829 0.141602
0.669486 1.679337 0.228168
0.880138 1.633778 0.648224
0.743966 1.677889 0.186974
0.911048 1.678174 0.088783
0.780987 1.612606 0.947052
0.734244 1.657872 0.353767
0.888482 1.644007 0.614379
0.864984 1.604932 0.951923
0.822469 1.675463 0.144822
0.689112 1.697814 -0.013491
0.690743 1.700165 -0.072464
0.651975 1.629501 1.038787
0.689473 1.696001 -0.045497
0.903104 1.653455 0.374599
0.828517 1.673470 0.145900
0.889110 1.631098 0.937367
0.733472 1.639268 0.623707
0.762214 1.688131 -0.015741
0.757602 1.677207 0.138163
0.652490 1.612227 0.911708
0.934531 1.688004 -0.040862
0.846329 1.689513 -0.021798
0.772070 1.692605 -0.091588
0.771929 1.692528 -0.078589
0.670470 1.641411 0.721075
0.681304 1.661031 0.452288
0.685538 1.664713 0.338353
0.696725 1.685990 0.128585
0.736472 1.627009 1.006740
0.703452 1.693411 0.060707
0.761709 1.666568 0.417207
0.736340 1.613403 0.936674
0.752910 1.641925 0.689006
0.841208 1.661124 0.378052
0.934699 1.664791 0.332081
0.864410 1.695111 -0.114529
0.780992 1.683962 0.020516
0.865449 1.695131 -0.117515
0.965026 1.704882 -0.173383
0.842322 1.656156 0.372047
0.962859 1.699765 -0.155432
0.829475 1.633497 0.644799
0.962163 1.693352 -0.086462
0.687907 1.635112 0.606292
0.870529 1.690599 -0.025453
0.842305 1.646449 0.660035
0.826988 1.621522 0.976748
0.714823 1.678424 0.230827
0.955839 1.670966 0.142381
0.827271 1.611615 0.958710
0.933432 1.636841 0.656981
0.790339 1.672985 0.188621
0.783563 1.658948 0.359483
0.968402 1.683328 0.088600
0.916275 1.605956 0.963646
0.944795 1.648085 0.622180
0.691309 1.623508 1.046340
0.875839 1.676591 0.145581
0.734458 1.692909 -0.010853
0.737096 1.696272 -0.070807
0.733833 1.688093 -0.042886
0.955463 1.651552 0.378318
0.880861 1.675591 0.147647
0.781789 1.638311 0.632399
0.813553 1.691261 -0.014993
0.941457 1.628133 0.947084
0.804959 1.673303 0.140826
0.696807 1.609232 0.922346
0.990920 1.690178 -0.044076
0.713820 1.637452 0.726691
0.725662 1.657098 0.455917
0.821429 1.691736 -0.091887
0.894723 1.682636 -0.022147
0.730857 1.662777 0.344005
0.823296 1.692665 -0.078855
0.743055 1.684078 0.132249
0.784728 1.630010 1.020447
0.748813 1.688509 0.062343
0.806103 1.657640 0.419805
0.799214 1.641969 0.696669
0.780689 1.606411 0.946283
0.892571 1.659217 0.381765
0.918767 1.699275 -0.116752
0.832341 1.687097 0.020259
0.916816 1.694277 -0.118801
0.990088 1.661904 0.334831
0.891687 1.652242 0.375723
1.019446 1.701057 -0.177655
0.878812 1.630548 0.652481
1.021258 1.701956 -0.159624
0.737159 1.640143 0.618028
1.023553 1.699551 -0.090597
0.891641 1.644507 0.666719
0.924888 1.693753 -0.026682
0.879267 1.624541 0.989496
0.758186 1.671502 0.233423
1.010208 1.670099 0.143121
0.870666 1.600635 0.965275
0.983766 1.632897 0.664656
0.839668 1.674089 0.191325
0.736562 1.626506 1.059008
0.829913 1.654019 0.364120
0.966575 1.603975 0.975332
1.018824 1.673451 0.088247
1.000133 1.647157 0.629935
0.781433 1.690367 -0.068196
0.924231 1.669701 0.146225
0.778816 1.685000 -0.008250
0.778192 1.681191 -0.041278
1.009798 1.651652 0.383061
0.931222 1.672703 0.149334
0.828128 1.633351 0.640036
0.860915 1.685369 -0.013350
0.759107 1.638485 0.735348
0.859275 1.678418 0.144613
0.743086 1.608224 0.936012
0.995800 1.625167 0.957816
0.772967 1.659166 0.461605
1.049309 1.691351 -0.046280
0.871785 1.689864 -0.091187
0.786412 1.675153 0.135831
0.830045 1.627023 1.030076
0.951065 1.687791 -0.022346
0.776203 1.656838 0.349630
0.871681 1.686790 -0.079200
0.792194 1.678599 0.063920
0.854454 1.655722 0.423478
0.848515 1.643014 0.705369
0.827964 1.606415 0.958954
0.943916 1.658311 0.385471
0.879715 1.681209 0.020898
0.972196 1.696450 -0.122030
0.972164 1.696432 -0.119030
0.944990 1.654327 0.382469
1.049411 1.666023 0.339651
0.928141 1.627599 0.660153
1.077665 1.700139 -0.163874
0.780533 1.630177 0.624606
0.803535 1.667588 0.236051
0.934471 1.632550 1.006294
0.976273 1.688887 -0.026998
1.079951 1.696719 -0.092851
0.945970 1.645574 0.674474
0.922888 1.605641 0.981020
0.780844 1.625504 1.070636
0.887052 1.667187 0.192957
1.035128 1.626959 0.671326
1.069564 1.673252 0.143933
0.880232 1.654099 0.369825
1.080180 1.678619 0.088092
0.831778 1.689488 -0.066489
0.829148 1.685112 -0.005538
0.824553 1.675296 -0.039648
0.980585 1.672842 0.147010
1.055498 1.643233 0.636664
1.068123 1.654767 0.387858
0.877410 1.634393 0.649730
0.803406 1.637521 0.742973
0.983588 1.669822 0.151038
0.912286 1.682496 -0.012650
0.903653 1.667502 0.147183
0.817317 1.653227 0.466207
0.790367 1.607219 0.949681
0.879321 1.628031 1.042768
0.823526 1.654907 0.355290
0.925131 1.692011 -0.091440
0.836733 1.675247 0.140540
1.106704 1.689520 -0.048523
1.006441 1.687947 -0.023593
0.926026 1.689939 -0.079436
0.902794 1.652799 0.428137
0.843520 1.680712 0.066651
0.897826 1.643066 0.713055
0.877227 1.606411 0.973641
0.933057 1.683345 0.021642
0.996286 1.654407 0.389167
1.032516 1.704625 -0.122180
1.030557 1.700629 -0.124224
0.980417 1.628645 0.670870
0.998338 1.652421 0.387186
1.110752 1.668148 0.344475
0.851865 1.666679 0.239724
0.831802 1.633211 0.636342
0.982841 1.624574 1.014918
0.827070 1.628493 1.085300
0.998299 1.643635 0.682176
1.135361 1.691889 -0.096139
1.030663 1.686038 -0.028276
0.972209 1.600652 0.992672
1.089435 1.626023 0.680046
0.940393 1.668301 0.195695
0.928580 1.648168 0.375465
1.129931 1.674406 0.144736
0.874502 1.677206 -0.002941
0.883117 1.690619 -0.065770
1.035929 1.673973 0.148759
1.140549 1.678775 0.088889
0.875921 1.673423 -0.038941
1.113825 1.642309 0.645433
0.853653 1.642552 0.754697
1.122481 1.649864 0.392556
0.927726 1.631434 0.659410
1.037931 1.668943 0.153765
0.863634 1.651290 0.471845
0.965628 1.683633 -0.011916
0.956977 1.668613 0.150918
0.836669 1.603214 0.962314
0.924651 1.622042 1.052366
0.869875 1.647970 0.360906
0.882086 1.667328 0.144136
0.979492 1.693166 -0.092696
0.976377 1.688075 -0.079758
1.066786 1.693116 -0.023764
1.168105 1.689711 -0.051718
0.889887 1.673813 0.068264
0.956110 1.654886 0.433874
0.948144 1.641112 0.721734
0.923563 1.599418 0.984249
0.985416 1.681476 0.022345
1.056581 1.660515 0.395999
1.032749 1.624698 0.679556
1.084925 1.695771 -0.123522
1.083967 1.693785 -0.126543
1.052673 1.650512 0.392904
0.899215 1.662771 0.242361
0.870415 1.621500 1.093871
0.879123 1.629248 0.644981
1.168138 1.663268 0.347204
1.185751 1.679591 -0.190545
1.053602 1.643694 0.691915
1.089017 1.689207 -0.029488
1.199762 1.693092 -0.099298
0.991755 1.665415 0.197377
0.983874 1.652260 0.382232
1.195270 1.679574 0.146607
0.928808 1.683342 -0.001170
0.933455 1.688741 -0.064089
0.898990 1.637592 0.761300
0.927245 1.674548 -0.037233
1.096267 1.678122 0.150576
1.203934 1.678948 0.088711
0.978034 1.628475 0.669079
0.912948 1.651363 0.477522
1.181834 1.647979 0.397319
1.020965 1.685777 -0.011164
1.100255 1.675092 0.156616
0.971971 1.617052 1.062985
0.886910 1.604200 0.979013
1.010328 1.666728 0.153627
0.923154 1.651041 0.369649
0.934414 1.666428 0.148847
1.036835 1.696327 -0.092915
1.034730 1.692245 -0.080959
1.010411 1.656972 0.440613
0.943213 1.676940 0.070004
1.119187 1.684252 -0.024113
1.225512 1.683880 -0.054004
0.995505 1.633157 0.728338
0.978777 1.603408 1.003012
1.044754 1.687640 0.022163
1.114895 1.662623 0.401775
1.083086 1.617743 0.688191
0.917661 1.621489 1.108517
1.106998 1.648605 0.398610
1.141311 1.692941 -0.125797
0.950534 1.663872 0.246063
1.142356 1.691961 -0.128788
0.928431 1.625278 0.655637
1.106947 1.638756 0.699594
1.230504 1.660393 0.351992
1.246967 1.677683 -0.176769
1.248162 1.678803 -0.195750
1.147410 1.686372 -0.030738
1.047090 1.666538 0.200118
1.038182 1.651339 0.389952
0.946279 1.635623 0.770933
1.248703 1.666704 0.146233
0.981145 1.681460 0.001528
0.985797 1.686868 -0.062392
0.962272 1.649434 0.483180
1.152648 1.674261 0.151292
1.027372 1.620509 0.678702
1.244146 1.649094 0.404119
1.269317 1.679128 0.088544
1.157603 1.673223 0.159352
1.079308 1.686924 -0.009388
0.935202 1.599187 0.993648
1.066652 1.667850 0.157377
0.974453 1.650110 0.377337
0.988705 1.670538 0.153595
1.091207 1.692475 -0.093216
1.063732 1.656060 0.446314
1.090093 1.690397 -0.081239
0.996545 1.678067 0.071725
1.049797 1.634212 0.738062
1.174581 1.677399 -0.024427
1.290910 1.683078 -0.056180
0.964899 1.621478 1.123154
1.096138 1.679765 0.022803
1.165312 1.649713 0.404370
1.164331 1.645699 0.405339
1.180796 1.663026 -0.126420
1.005851 1.665979 0.250812
1.197767 1.684125 -0.131110
0.981687 1.627312 0.668361
1.208785 1.687557 -0.032946
1.292887 1.655523 0.355757
1.107384 1.673675 0.203938
0.993608 1.630663 0.778544
1.094485 1.651425 0.397690
1.037466 1.683594 0.004284
1.314061 1.666871 0.148054
1.014552 1.651506 0.490885
1.047099 1.697038 -0.061536
1.213005 1.673408 0.153061
1.086594 1.627560 0.692509
1.302523 1.641202 0.408817
1.216972 1.670366 0.161098
1.132687 1.680057 -0.008726
1.328741 1.669282 0.088242
1.125957 1.670977 0.162163
0.985493 1.595179 1.008303
1.024791 1.644179 0.383978
1.042029 1.668641 0.158292
1.117089 1.651150 0.450986
1.144589 1.685619 -0.093555
1.049883 1.676187 0.074420
1.104078 1.634260 0.748770
1.139502 1.677523 -0.081656
1.243921 1.687615 -0.026501
1.366272 1.693331 -0.060197
1.152510 1.675908 0.023513
1.231608 1.655842 0.411239
1.063146 1.671096 0.255587
1.226628 1.647807 0.413141
1.239202 1.657200 -0.128705
1.032983 1.623341 0.680021
1.251201 1.671279 -0.133492
1.160753 1.666787 0.206594
1.269175 1.683729 -0.034202
1.045879 1.630696 0.790232
1.148819 1.646508 0.404368
1.386019 1.676672 -0.109035
1.069843 1.653586 0.498618
1.092795 1.682723 0.007002
1.098457 1.690161 -0.059898
1.090240 1.677966 -0.034056
1.381434 1.666050 0.148881
1.275371 1.671562 0.154836
1.197003 1.687235 -0.007872
1.178332 1.662086 0.164793
1.274351 1.662493 0.163783
1.401090 1.673484 0.089150
1.085023 1.652264 0.394800
1.100331 1.670756 0.164059
1.176382 1.653246 0.458754
1.108210 1.679332 0.076191
1.205940 1.686793 -0.093769
1.207857 1.685735 -0.083749
1.304302 1.682781 -0.026769
1.215845 1.681086 0.023340
1.116482 1.668202 0.259264
1.089239 1.624377 0.693756
1.318527 1.676480 -0.133631
1.318558 1.676499 -0.136630
1.220106 1.664921 0.209336
1.336548 1.684929 -0.035362
1.206144 1.642594 0.412077
1.123165 1.650663 0.505292
1.148123 1.680853 0.009703
1.447466 1.664861 -0.112345
1.154803 1.687302 -0.058189
1.148596 1.677119 -0.033312
1.336754 1.665710 0.156568
1.249399 1.674356 -0.006273
1.240650 1.663221 0.169582
1.337710 1.659643 0.166552
1.154660 1.666862 0.168736
1.140337 1.648336 0.403491
1.161564 1.674457 0.077850
1.236706 1.652348 0.465508
1.270211 1.685912 -0.083968
1.364699 1.674946 -0.027064
1.166834 1.660296 0.262869
1.277198 1.680249 0.024101
1.378943 1.667661 -0.135933
1.379989 1.667689 -0.139921
1.281450 1.664064 0.212095
1.178443 1.650738 0.513993
1.408917 1.689154 -0.037463
1.211437 1.685012 0.012520
1.215139 1.688465 -0.057424
1.204936 1.674259 -0.031614
1.404114 1.664882 0.158381
1.315727 1.678540 -0.005436
1.307948 1.668376 0.174437
1.407025 1.662812 0.170407
1.219920 1.674998 0.175593
1.200609 1.650423 0.413260
1.223882 1.677609 0.080647
1.227150 1.661421 0.267628
1.339578 1.675413 0.024843
1.342818 1.659203 0.214822
1.274482 1.685617 -0.055703
1.268798 1.678145 0.015199
1.266296 1.672422 -0.030862
1.384069 1.680730 -0.004597
1.366325 1.658498 0.178099
1.272286 1.663092 0.180185
1.255929 1.643495 0.421913
1.284230 1.675759 0.082382
1.288460 1.662550 0.272388
1.409920 1.679616 0.024709
1.329113 1.676286 0.018925
1.335834 1.682782 -0.054969
1.329638 1.672595 -0.030090
1.450430 1.677911 -0.003821
1.333606 1.660215 0.185916
1.342580 1.669894 0.085062
1.452458 1.667498 -0.096855
1.456352 1.670449 -0.086794
1.345825 1.654665 0.276044
1.478279 1.677804 0.025508
1.397426 1.679462 0.021757
1.397958 1.676787 -0.029253
1.399897 1.661351 0.192713
1.412898 1.675082 0.086924
1.463766 1.676629 0.024523
