# .PCD v0.7 - Point Cloud Data file format
VERSION 0.7
FIELDS x y z
SIZE 4 4 4
TYPE F F F
COUNT 1 1 1
WIDTH 21
HEIGHT 1
VIEWPOINT 0 0 0 1
POINTS 21
DATA ascii
0.092495 -2.709996 1.601399
0.115565 -2.748806 1.588206
0.079287 -3.204396 1.521346
0.143702 -2.912193 1.647023
0.061935 -3.846851 1.569056
0.095782 -3.110415 1.532202
0.034254 -2.747340 1.623900
0.166909 -3.080471 1.689773
0.095167 -3.976693 1.563146
0.056337 -2.804209 1.617554
0.003954 -3.257844 1.551625
0.100274 -3.029486 1.544910
-0.020731 -3.656444 1.493266
0.074366 -2.829978 1.597446
0.115938 -2.960483 1.551558
0.025477 -3.165848 1.562487
0.005422 -3.742173 1.471684
0.086472 -2.862677 1.566252
0.034001 -3.096935 1.579114
0.053694 -3.035938 1.587714
0.021230 -2.944138 1.603348
