# .PCD v0.7 - Point Cloud Data file format
VERSION 0.7
FIELDS x y z
SIZE 4 4 4
TYPE F F F
COUNT 1 1 1
WIDTH 15
HEIGHT 1
VIEWPOINT 0 0 0 1
POINTS 15
DATA ascii
-0.653540 -2.631468 1.236185
-0.772492 -3.124882 1.304761
-0.684255 -2.630895 1.228400
-0.829416 -3.052427 1.279628
-0.664133 -2.700695 1.229774
-0.730480 -2.963300 1.299362
-0.825129 -2.781324 1.173295
-0.715748 -2.648283 1.217444
-0.737765 -2.723437 1.201758
-0.705824 -2.997269 1.326125
-0.788325 -2.675995 1.188370
-0.660344 -2.665722 1.232279
-0.708632 -2.717226 1.215902
-0.708846 -2.622263 1.219846
-0.757396 -2.653737 1.200664
