# .PCD v0.7 - Point Cloud Data file format
VERSION 0.7
FIELDS x y z
SIZE 4 4 4
TYPE F F F
COUNT 1 1 1
WIDTH 741
HEIGHT 1
VIEWPOINT 0 0 0 1
POINTS 741
DATA ascii
1.679631 -3.347174 0.365724
1.686093 -3.370024 0.453390
1.672702 -3.341675 0.015551
1.579926 -3.345366 0.361777
1.585429 -3.370224 0.449382
1.579986 -3.357970 0.018356
1.554623 -3.340429 -0.020777
1.694030 -3.343349 0.364086
1.678532 -3.372754 0.557221
1.671019 -3.355495 0.124262
1.494917 -3.391002 0.848331
1.491345 -3.361501 0.360696
1.495880 -3.389389 0.449217
1.636347 -3.322048 -0.007748
1.481124 -3.358302 0.020424
1.459824 -3.345696 -0.019730
1.594351 -3.340492 0.358187
1.575880 -3.366896 0.550337
1.758428 -3.375002 0.225588
1.574272 -3.359729 0.123281
1.398356 -3.383991 0.838625
1.402751 -3.374609 0.358713
1.399207 -3.392582 0.447295
1.547698 -3.338203 -0.008822
1.698415 -3.334621 0.361350
1.388332 -3.365562 0.022496
1.528470 -3.381718 0.839223
1.366993 -3.349958 -0.017588
1.373885 -3.435781 0.998113
1.511940 -3.369516 0.354968
1.490414 -3.390983 0.549175
1.650561 -3.360277 0.221803
1.314928 -3.401966 0.834666
1.482577 -3.370927 0.123282
1.622436 -3.320933 0.005022
1.311083 -3.378725 0.355900
1.457985 -3.348362 -0.009753
1.305572 -3.402783 0.447319
1.604884 -3.342652 0.353361
1.296531 -3.371808 0.024644
1.432961 -3.376649 0.827510
1.278179 -3.356168 -0.015377
1.275336 -3.429824 0.990398
1.419307 -3.373598 0.350124
1.736977 -3.361644 0.316475
1.716137 -3.328419 0.342805
1.556885 -3.366421 0.218876
1.398836 -3.402109 0.547210
1.227431 -3.410960 0.829857
1.388810 -3.375142 0.123430
1.535845 -3.339016 0.001979
1.220362 -3.379845 0.354203
1.366242 -3.353519 -0.011581
0.766523 -2.328781 1.871894
1.518411 -3.360648 0.347326
1.213903 -3.406911 0.445545
1.348578 -3.393569 0.820569
1.207762 -3.383038 0.027778
1.188359 -3.361388 -0.013130
1.326662 -3.374654 0.344380
1.471368 -3.328147 -0.077031
1.644916 -3.331062 0.002243
1.076819 -2.769907 -0.131505
1.470210 -3.390540 0.639900
1.633209 -3.349798 0.309744
1.626696 -3.342360 0.332790
1.467205 -3.374538 0.217016
1.619848 -3.320363 0.001998
1.303166 -3.397185 0.541547
1.140915 -3.416917 0.824162
1.297009 -3.376329 0.123714
1.445147 -3.345114 -0.001852
1.131635 -3.378917 0.351620
0.703383 -2.310961 1.845159
1.273384 -3.349702 -0.012202
1.429883 -3.371639 0.340436
1.120180 -3.407080 0.444855
1.263153 -3.406496 0.813728
1.116942 -3.387264 0.030058
1.100569 -3.367560 -0.011831
1.236992 -3.375694 0.339725
1.389794 -3.353218 -0.078075
1.555272 -3.344173 -0.000727
1.378281 -3.392271 0.808232
1.228308 -3.354186 -0.158168
1.383696 -3.405576 0.636980
1.548704 -3.369812 0.305725
1.532107 -3.342350 0.323011
1.375519 -3.379653 0.214217
1.532298 -3.335364 -0.004967
1.217590 -3.411256 0.540700
1.053333 -3.414858 0.817650
1.208266 -3.381458 0.123004
1.357511 -3.357178 -0.005720
1.045966 -3.386997 0.350934
0.655988 -2.333701 1.851877
1.512668 -3.388687 0.794849
1.337237 -3.369646 0.332780
1.185673 -3.359831 -0.012993
0.739602 -2.301027 1.860167
1.034551 -3.419176 0.445092
1.172641 -3.405409 0.804123
1.147291 -3.373731 0.335166
1.468228 -3.400826 0.727746
1.471711 -3.364191 -0.004699
1.303109 -3.367339 -0.078946
1.289831 -3.396141 0.797544
1.296156 -3.414575 0.632203
1.459071 -3.375852 0.300942
1.443621 -3.354297 0.314124
1.285822 -3.385765 0.212467
1.444684 -3.346382 -0.010815
1.128938 -3.414312 0.538065
0.969818 -3.424819 0.813990
1.268823 -3.364249 -0.009467
1.116439 -3.379638 0.123421
0.597755 -2.326042 1.835058
0.958220 -3.384050 0.348477
1.418240 -3.385516 0.779181
0.685373 -2.305454 1.849149
1.248654 -3.375631 0.326062
1.098906 -3.364941 -0.013627
1.089167 -3.416328 0.798425
0.945834 -3.422301 0.445498
1.062647 -3.379730 0.331562
1.377690 -3.401762 0.719082
1.378927 -3.362301 -0.008340
1.213266 -3.366483 -0.079523
1.204444 -3.407998 0.787774
1.208556 -3.416545 0.626606
1.372500 -3.387858 0.296121
1.360188 -3.372186 0.305236
1.199137 -3.391816 0.209805
1.351990 -3.347431 -0.017511
1.038255 -3.410344 0.533574
0.887266 -3.431763 0.810442
0.548364 -2.341712 1.837927
1.177000 -3.358346 -0.012961
1.029657 -3.382758 0.123856
0.874504 -3.388098 0.347976
1.326823 -3.387354 0.765497
0.637060 -2.329137 1.852855
1.161013 -3.376599 0.319501
1.002625 -3.415211 0.789958
0.714723 -2.290447 1.857133
0.859114 -3.425398 0.445974
1.295220 -3.415673 0.713321
0.978009 -3.387750 0.328948
1.288178 -3.365410 -0.011017
1.125488 -3.371605 -0.080156
1.114937 -3.404852 0.776280
1.119933 -3.417547 0.622044
1.281796 -3.386903 0.291533
1.267551 -3.368146 0.295679
1.111395 -3.393896 0.208241
1.264322 -3.353443 -0.023187
0.498936 -2.357421 1.842814
0.806704 -3.441724 0.808895
0.952618 -3.418404 0.532954
0.672632 -2.860652 -0.197541
1.092348 -3.369367 -0.016653
0.670501 -2.866916 -0.186702
0.675086 -2.879200 -0.265910
0.793905 -3.405133 0.348287
0.578862 -2.321434 1.834062
1.240432 -3.396179 0.753788
1.073377 -3.379588 0.313930
0.920115 -3.423112 0.784403
0.666485 -2.318109 1.859764
0.774447 -3.435491 0.447372
0.672838 -3.009756 0.037445
0.651957 -2.945122 -0.002561
1.211713 -3.427614 0.708615
0.789374 -3.022952 0.290402
1.200431 -3.367459 -0.014585
1.031467 -3.411701 0.767715
1.037355 -3.427522 0.619430
1.196191 -3.395891 0.286858
1.183022 -3.379060 0.287984
0.988668 -3.282140 0.199494
0.426947 -2.275739 1.772356
1.179720 -3.364398 -0.029882
0.869994 -3.428425 0.532376
0.618571 -2.937423 -0.198998
0.533450 -2.354291 1.847666
0.746354 -2.979677 0.110539
0.622720 -2.969597 -0.189597
0.671490 -3.171085 -0.288038
0.711157 -3.406161 0.347928
1.155041 -3.407012 0.743088
0.985669 -3.372527 0.306601
0.835543 -3.423010 0.778012
0.610312 -2.318448 1.843843
0.688722 -3.441612 0.449864
0.685767 -3.407122 0.045396
0.596865 -3.021948 -0.001031
1.125138 -3.429541 0.702089
0.695285 -2.301682 1.846759
0.809656 -3.393722 0.322036
1.115770 -3.378475 -0.018264
0.950039 -3.426571 0.761040
0.950714 -3.427496 0.614980
1.108444 -3.391895 0.282440
1.097475 -3.386963 0.279356
0.673979 -2.895570 -0.125966
0.664754 -2.865432 -0.184509
1.091967 -3.363403 -0.035359
0.662574 -2.873626 -0.224727
0.784285 -3.428455 0.530976
0.467398 -2.309058 1.800547
0.642632 -3.391963 -0.226065
0.777385 -3.402028 0.126275
0.630471 -3.414165 0.347476
0.639509 -3.402279 -0.213324
1.067563 -3.406823 0.730600
0.639067 -3.393372 -0.304176
0.772335 -2.925833 0.262350
0.560062 -2.338043 1.842635
0.649331 -2.927275 -0.013976
0.756067 -3.438916 0.774389
0.601436 -2.512000 1.809693
0.602956 -3.440687 0.450530
0.695046 -2.459141 1.861508
0.603987 -3.418241 0.048877
1.040578 -3.433447 0.695582
0.598780 -3.408274 -0.000013
0.646100 -2.332357 1.849331
0.730029 -3.404675 0.319529
0.862460 -3.419420 0.750748
0.964250 -3.211098 0.262784
0.868122 -3.436468 0.612439
0.947153 -3.186145 0.256018
0.613632 -2.944396 -0.126928
0.736370 -2.963571 0.177963
0.615909 -2.960078 -0.189237
0.637984 -3.079858 -0.239385
0.702669 -3.441481 0.531406
0.405282 -2.264851 1.756496
0.562837 -3.405050 -0.223575
0.550776 -3.423174 0.348052
0.696723 -3.418067 0.126661
0.557622 -3.409430 -0.208741
0.984173 -3.420655 0.720924
0.557184 -3.402530 -0.299635
0.797672 -3.295447 0.289116
0.508797 -2.358690 1.843413
0.598444 -3.022015 -0.014730
0.669376 -3.420747 0.764391
0.536215 -2.486160 1.781196
0.635840 -2.447360 1.838798
0.520242 -3.448766 0.453091
0.956983 -3.434337 0.689185
0.522220 -3.430353 0.052372
0.516967 -3.413347 0.001627
0.588004 -2.331636 1.829421
0.650437 -3.420647 0.317950
0.778931 -3.421263 0.742370
0.796062 -2.914355 0.236184
0.785488 -3.441435 0.610012
0.667491 -2.914229 -0.070188
0.650884 -2.868263 -0.172534
0.783124 -2.901320 0.227244
0.774435 -3.405008 0.201453
0.638636 -3.410095 -0.146167
0.635829 -3.402644 -0.217080
0.646318 -2.883019 -0.187913
0.629690 -3.405762 -0.263254
0.618972 -3.444503 0.531043
0.642762 -2.916506 -0.024604
0.480977 -3.413177 -0.219982
0.471071 -3.431179 0.348681
0.614942 -3.424132 0.128270
0.900694 -3.426481 0.711446
0.475744 -3.415555 -0.205105
0.475252 -3.406681 -0.294957
0.741856 -3.400302 0.292070
0.439824 -2.296176 1.781630
0.601419 -3.408225 -0.018656
0.574647 -2.430538 1.813181
0.875390 -3.439244 0.684770
0.437550 -3.458839 0.455645
0.440380 -3.435460 0.056043
0.436152 -3.418402 0.003316
0.569748 -3.425602 0.315614
0.538780 -2.364367 1.834994
0.698419 -3.429112 0.735949
0.734697 -2.955170 0.235375
0.702829 -3.442376 0.606701
0.601959 -2.942081 -0.071771
0.615692 -3.020658 -0.183213
0.721788 -2.940072 0.223480
0.693772 -3.418016 0.200930
0.555776 -3.413184 -0.144489
0.553971 -3.405705 -0.216385
0.640603 -3.171964 -0.207953
0.546777 -3.405858 -0.261510
0.537283 -3.450518 0.531682
0.588770 -2.996213 -0.028068
0.391342 -3.435156 0.348423
0.399057 -3.415297 -0.216233
0.533203 -3.434193 0.129829
0.816223 -3.431294 0.701007
0.393851 -3.421695 -0.200435
0.393331 -3.411827 -0.290267
0.661249 -3.410218 0.287622
0.518375 -2.424874 1.797437
0.520634 -3.413240 -0.018974
0.793794 -3.442126 0.679428
0.354763 -3.457885 0.457459
0.358635 -3.449561 0.059562
0.355321 -3.423474 0.006036
0.490091 -3.435562 0.314222
0.665258 -2.932601 -0.026318
0.479658 -2.359632 1.814197
0.619918 -3.441977 0.731488
0.777784 -3.415740 0.267587
0.624233 -3.455331 0.606238
0.626854 -3.411924 -0.084053
0.642291 -2.872762 -0.174488
0.759921 -3.392551 0.248783
0.618964 -3.403421 -0.209037
0.613057 -3.426018 0.200542
0.641378 -2.901428 -0.048048
0.474974 -3.422246 -0.142870
0.611274 -3.405185 -0.225193
0.471126 -3.409774 -0.215692
0.634255 -2.884080 -0.164838
0.466911 -3.410913 -0.259791
0.455585 -3.455528 0.532375
0.596985 -3.404305 -0.035327
0.311651 -3.446172 0.350052
0.318225 -3.424379 -0.213579
0.452427 -3.439215 0.130539
0.731676 -3.429103 0.690745
0.314455 -3.419909 -0.286563
0.312974 -3.427797 -0.196719
0.456189 -2.386769 1.758282
0.580630 -3.419130 0.283227
0.438821 -3.415262 -0.019212
0.715265 -3.457036 0.676918
0.273077 -3.471976 0.462012
0.276748 -3.449655 0.063401
0.275576 -3.435507 0.007660
0.408361 -3.434499 0.311057
0.596626 -2.946434 -0.029633
0.696077 -3.416664 0.263323
0.536284 -3.430767 0.721474
0.412670 -2.313313 1.762147
0.542560 -3.458294 0.604965
0.546114 -3.420918 -0.085434
0.622905 -3.097868 -0.192390
0.538129 -3.405421 -0.210272
0.679349 -3.403425 0.242337
0.532359 -3.433994 0.199186
0.586400 -2.978083 -0.054438
0.394192 -3.433302 -0.141260
0.531506 -3.414175 -0.226553
0.391296 -3.415801 -0.214964
0.665317 -3.343500 -0.194785
0.386125 -3.421955 -0.259177
0.375922 -3.464510 0.533048
0.516268 -3.411253 -0.038656
0.232909 -3.449127 0.349891
0.238315 -3.427464 -0.209757
0.371656 -3.446253 0.132239
0.649140 -3.431928 0.682444
0.500970 -3.426047 0.279919
0.232082 -3.433913 -0.191970
0.232555 -3.425023 -0.282808
0.359086 -3.425255 -0.019553
0.635665 -3.461909 0.672628
0.196698 -3.434522 0.009595
0.190297 -3.473031 0.464850
0.195870 -3.450732 0.067267
0.329679 -3.442438 0.309784
0.619377 -3.411382 -0.037801
0.615413 -3.423594 0.259984
0.462926 -3.467251 0.604630
0.464257 -3.419939 -0.085594
0.607341 -3.399826 -0.216797
0.598764 -3.413295 0.235944
0.456314 -3.407409 -0.212490
0.452611 -3.438974 0.198938
0.599913 -3.407978 -0.069026
0.313270 -3.430352 -0.139332
0.449613 -3.412203 -0.226687
0.310428 -3.417836 -0.214136
0.597148 -3.404263 -0.202031
0.304147 -3.417046 -0.256219
0.294219 -3.470530 0.534784
0.437539 -3.419194 -0.040944
0.153197 -3.458131 0.351623
0.157398 -3.429556 -0.205896
0.290865 -3.451285 0.134013
0.567611 -3.435739 0.674171
0.152136 -3.432991 -0.188032
0.152632 -3.428106 -0.278952
0.420359 -3.435950 0.275568
0.279296 -3.428222 -0.020719
0.553000 -3.457791 0.667508
0.250010 -3.451383 0.308506
0.115896 -3.440556 0.011390
0.115074 -3.459803 0.070999
0.536747 -3.432518 0.257666
0.108585 -3.486130 0.470488
0.539675 -3.420315 -0.041135
0.383316 -3.480223 0.605246
0.385572 -3.434900 -0.087005
0.526575 -3.403759 -0.221039
0.519164 -3.422148 0.229619
0.377603 -3.420356 -0.214856
0.372934 -3.450950 0.198578
0.519160 -3.408880 -0.074204
0.233437 -3.436385 -0.137542
0.517413 -3.411183 -0.206316
0.230635 -3.425832 -0.214385
0.368893 -3.424175 -0.229058
0.224349 -3.427064 -0.255507
0.213547 -3.481553 0.537464
0.356760 -3.420133 -0.044087
0.074429 -3.460098 0.352543
0.211122 -3.461299 0.135729
0.076548 -3.436620 -0.203107
0.487167 -3.451576 0.667701
0.340641 -3.435836 0.271466
0.071322 -3.445074 -0.184344
0.071696 -3.431217 -0.274079
0.199519 -3.434205 -0.020915
0.473385 -3.462677 0.664281
0.171297 -3.456311 0.307355
0.036056 -3.444593 0.014270
0.457073 -3.440449 0.255383
0.459993 -3.431242 -0.044478
0.033242 -3.464880 0.074832
0.301545 -3.470131 0.602333
0.025810 -3.489193 0.474350
0.305772 -3.439888 -0.087195
0.446872 -3.412656 -0.226336
0.292178 -3.454932 0.198399
0.437536 -3.428020 0.223357
0.295766 -3.420335 -0.216968
0.439475 -3.416768 -0.079478
0.153605 -3.442413 -0.135721
0.436678 -3.418111 -0.210582
0.287989 -3.421183 -0.229093
0.150861 -3.435822 -0.214644
0.144521 -3.434078 -0.254702
0.132845 -3.489571 0.540237
0.277048 -3.428055 -0.047326
-0.004316 -3.466078 0.354410
0.130322 -3.465321 0.137586
-0.003254 -3.448664 -0.200376
0.404571 -3.447369 0.658641
0.262014 -3.446726 0.268185
-0.008129 -3.442266 -0.271325
-0.009567 -3.451171 -0.179501
0.119712 -3.437182 -0.021019
0.378421 -3.449342 0.252127
0.090559 -3.458258 0.306268
-0.043700 -3.455601 0.016036
0.379160 -3.427176 -0.047501
-0.046615 -3.467926 0.078763
-0.055019 -3.487229 0.478373
0.224950 -3.440862 -0.088287
0.366024 -3.408581 -0.230352
0.213456 -3.462884 0.198196
0.358902 -3.435874 0.218128
0.215949 -3.424305 -0.218103
0.358710 -3.416663 -0.084572
0.071773 -3.446438 -0.134853
0.355912 -3.422034 -0.214756
0.208215 -3.428132 -0.231286
0.069896 -3.427842 -0.213518
-0.082096 -3.467021 0.355422
0.063656 -3.437098 -0.253798
0.196296 -3.431984 -0.050467
-0.082185 -3.447693 -0.197335
0.050578 -3.475323 0.139364
0.324010 -3.452197 0.652458
0.182338 -3.452624 0.265022
-0.088471 -3.454218 -0.175541
-0.087069 -3.443319 -0.267324
0.038953 -3.443145 -0.022166
0.011893 -3.468175 0.305075
0.298744 -3.457263 0.249907
-0.123534 -3.458605 0.017997
0.300483 -3.439083 -0.050788
-0.127406 -3.478997 0.083547
-0.135807 -3.489257 0.482344
0.145155 -3.444819 -0.089394
0.286242 -3.411489 -0.234465
0.133717 -3.468843 0.198052
0.277207 -3.433717 0.211093
0.136183 -3.430228 -0.221247
0.277984 -3.420553 -0.089715
-0.008040 -3.454453 -0.133011
0.276077 -3.420961 -0.217785
0.128394 -3.432097 -0.232386
-0.009811 -3.444819 -0.213858
-0.161749 -3.484019 0.358108
-0.016202 -3.441099 -0.252870
0.116555 -3.438917 -0.052624
-0.163044 -3.453738 -0.194433
-0.031225 -3.480364 0.142249
-0.040716 -3.522952 0.752428
0.101654 -3.457527 0.261898
-0.167938 -3.451387 -0.263462
-0.170264 -3.468290 -0.171814
-0.040768 -3.455109 -0.022393
-0.066833 -3.472087 0.304034
0.219046 -3.463178 0.247758
-0.203339 -3.464601 0.019926
0.219689 -3.439008 -0.053828
-0.209253 -3.484073 0.088472
0.064356 -3.449803 -0.089504
0.053977 -3.474797 0.197937
0.206608 -3.426352 -0.240788
0.198592 -3.445581 0.206845
0.056408 -3.437166 -0.223380
0.198347 -3.432407 -0.095975
-0.087815 -3.466460 -0.131221
-0.088600 -3.453779 -0.213992
0.195308 -3.424875 -0.221895
0.047629 -3.440047 -0.234550
-0.242512 -3.485984 0.359120
-0.094965 -3.455081 -0.252105
0.036808 -3.443823 -0.055709
-0.110049 -3.482343 0.144264
-0.243893 -3.460775 -0.191522
0.021971 -3.461393 0.257838
-0.248781 -3.460428 -0.260590
-0.251163 -3.471347 -0.167819
-0.119484 -3.468054 -0.022599
-0.146572 -3.476025 0.304006
0.140374 -3.472077 0.245589
-0.284101 -3.476620 0.022745
0.138959 -3.443908 -0.057940
-0.290172 -3.480114 0.092622
-0.016439 -3.453760 -0.090566
0.126812 -3.428250 -0.244824
-0.026751 -3.481756 0.197816
-0.023445 -3.436100 -0.225326
0.116936 -3.449435 0.200748
0.118555 -3.430276 -0.100927
-0.167700 -3.465443 -0.130140
-0.030179 -3.445976 -0.235611
0.116596 -3.433738 -0.227056
-0.170442 -3.456770 -0.214016
-0.321298 -3.487941 0.361180
-0.175817 -3.458061 -0.252115
-0.042960 -3.446725 -0.058730
-0.190841 -3.487339 0.146216
-0.056720 -3.468284 0.255752
-0.329737 -3.459485 -0.256489
-0.333025 -3.478406 -0.163895
-0.199334 -3.467009 -0.022508
0.061626 -3.471951 0.242629
-0.227287 -3.480948 0.302973
-0.363967 -3.476605 0.024850
0.059236 -3.451811 -0.061073
-0.372000 -3.487176 0.097560
-0.095155 -3.466686 -0.091760
-0.105517 -3.485687 0.197809
0.046049 -3.432135 -0.249882
-0.103143 -3.450004 -0.228547
0.037293 -3.457281 0.195623
0.038884 -3.441139 -0.106111
-0.248506 -3.474449 -0.128247
-0.109962 -3.452902 -0.237688
0.036828 -3.438630 -0.231118
-0.250254 -3.463729 -0.214068
-0.399246 -3.467829 0.360736
-0.256669 -3.463054 -0.251136
-0.121659 -3.457607 -0.061872
-0.272618 -3.495359 0.149125
-0.136377 -3.477159 0.252643
-0.280083 -3.474945 -0.023582
-0.307987 -3.490904 0.303867
-0.019075 -3.477863 0.240553
-0.444802 -3.479593 0.026910
-0.179950 -3.489502 0.689012
-0.020495 -3.460728 -0.063196
-0.455766 -3.502268 0.103339
-0.174919 -3.474618 -0.092834
-0.185299 -3.487624 0.197860
-0.033656 -3.440981 -0.255998
-0.182920 -3.455904 -0.231576
-0.043399 -3.460134 0.190619
-0.040886 -3.441999 -0.111063
-0.331294 -3.483450 -0.127347
-0.041882 -3.448482 -0.236240
-0.478987 -3.477822 0.364674
-0.190708 -3.463831 -0.239828
-0.332110 -3.465706 -0.214011
-0.337624 -3.457045 -0.249901
-0.202399 -3.465527 -0.063946
-0.354465 -3.494355 0.151250
-0.217137 -3.475042 0.249778
-0.361820 -3.485904 -0.023700
-0.097789 -3.484765 0.239511
-0.388721 -3.495834 0.303893
-0.100279 -3.462620 -0.066146
-0.255754 -3.476577 -0.092767
-0.267074 -3.491596 0.198877
-0.113455 -3.441844 -0.260921
-0.263797 -3.452833 -0.233402
-0.123073 -3.466989 0.186576
-0.120553 -3.453850 -0.116207
-0.123680 -3.450387 -0.240204
-0.283160 -3.471441 -0.065950
-0.436263 -3.500361 0.154260
-0.297840 -3.480937 0.247778
-0.468500 -3.494729 0.303082
-0.177509 -3.487634 0.236568
-0.179985 -3.471484 -0.070208
-0.338505 -3.485530 -0.093835
-0.347833 -3.497550 0.199895
-0.194180 -3.450710 -0.265988
-0.345574 -3.458743 -0.236393
-0.203751 -3.471829 0.181593
-0.201283 -3.457688 -0.122170
-0.205371 -3.462260 -0.245339
-0.364926 -3.475340 -0.068894
-0.378567 -3.482807 0.244891
-0.548391 -3.479604 0.301591
-0.258281 -3.486530 0.234725
-0.260744 -3.476375 -0.073171
-0.429641 -3.496491 0.200075
-0.285425 -3.478694 0.177588
-0.282982 -3.466550 -0.127216
-0.462181 -3.499737 0.243692
-0.339013 -3.491437 0.233790
-0.342543 -3.475253 -0.076992
-0.510452 -3.495414 0.200295
-0.368123 -3.481545 0.172684
-0.364735 -3.468388 -0.133088
-0.421697 -3.501358 0.232761
-0.451763 -3.492418 0.168637
-0.502420 -3.506231 0.230884
-0.728365 3.493074 4.068983
-0.621573 3.266047 3.440517
-0.656308 3.538193 4.089635
-0.641465 3.756158 4.098860
-0.493917 2.913165 2.470156
-0.539875 3.208714 3.358643
-0.279448 1.586815 1.830396
-0.517216 3.295193 2.997879
-0.721900 3.708753 4.090127
-0.265730 1.665083 1.813583
-0.335122 2.208909 1.867650
-0.270077 1.725202 1.803476
-0.662898 3.572108 4.089089
-0.238963 1.560559 1.789046
-0.407275 2.259273 1.876406
-0.280656 2.005865 1.819652
-0.641834 3.754819 4.117779
-0.557499 3.235995 3.326016
-0.231684 1.707669 1.848256
-0.281571 2.170711 1.828100
-0.239201 1.792402 1.863512
-0.282005 1.604484 1.837733
-0.522480 3.265761 3.016414
-0.213222 1.649310 1.877409
-0.731436 3.730845 4.076395
-0.429257 2.778893 2.296141
-0.694795 3.641927 4.085074
-0.241963 2.106837 1.898179
-0.282897 1.777569 1.828312
-0.266158 1.660755 1.821588
-0.242888 2.268754 1.902573
-0.605503 3.306860 3.310038
-0.239429 1.563418 1.784163
-0.285003 1.982501 1.829351
-0.652380 3.777773 4.113055
-0.299361 2.213446 1.826760
-0.614643 3.674070 4.107518
-0.243629 1.783684 1.829435
-0.230999 1.684591 1.839978
-0.529895 3.261492 3.023320
-0.529200 3.313290 3.309111
-0.213702 1.655070 1.879562
-0.245076 2.044919 1.878301
-0.726665 3.715727 4.082107
-0.270667 1.665589 1.817723
-0.258660 2.310503 1.901211
-0.250103 1.589191 1.782607
-0.348000 2.376823 1.908191
-0.290457 1.977201 1.834318
-0.261274 1.795881 1.797657
-0.664995 3.819430 4.127600
-0.644555 3.755633 4.121659
-0.234463 1.682491 1.832009
-0.552361 3.260993 3.176300
-0.222293 1.669008 1.867826
-0.538327 3.267045 3.041370
-0.284193 2.300019 1.845070
-0.249359 2.010958 1.860840
-0.229528 1.885694 1.885013
-0.387041 2.453312 1.916330
-0.275208 1.684180 1.829067
-0.439128 4.237329 1.975427
-0.264931 1.646407 1.816518
-0.288297 1.874045 1.831855
-0.294869 1.972862 1.841304
-0.316890 3.259511 1.935110
-0.545000 4.257700 2.446734
-0.236879 1.680377 1.824046
-0.319267 2.383408 1.861311
-0.343054 4.279619 1.988981
-0.228775 1.673085 1.845948
-0.246125 1.898834 1.856248
-0.251624 1.982899 1.849475
-0.442666 4.092375 1.956218
-0.346400 3.258001 1.877053
-0.267321 2.445904 1.910234
-0.357962 4.192143 2.001614
1.779199 2.567791 2.711184
1.716209 2.137200 2.640427
1.870906 2.218147 2.785602
1.824151 2.062701 2.639559
1.814874 2.303944 2.687814
1.847790 1.881352 2.661291
1.725894 1.878045 2.625229
1.859227 1.992743 2.709806
1.870666 1.942960 2.770197
1.840653 1.827093 2.662717
1.854974 2.114947 2.755534
1.752805 1.673935 2.626733
1.821006 1.990067 2.646930
1.883709 1.716963 2.757421
1.891974 1.845971 2.760123
1.870505 1.629758 2.683344
1.860924 1.735953 2.662736
1.752856 1.603869 2.614002
1.873797 1.638943 2.737586
1.883436 1.574405 2.699826
3.679778 2.224767 3.367392
3.789319 2.168795 3.412843
3.662043 1.872645 3.330441
3.729692 1.800644 3.354703
3.787388 1.721694 3.369881
