# .PCD v0.7 - Point Cloud Data file format
VERSION 0.7
FIELDS x y z
SIZE 4 4 4
TYPE F F F
COUNT 1 1 1
WIDTH 28
HEIGHT 1
VIEWPOINT 0 0 0 1
POINTS 28
DATA ascii
1.203322 2.861817 1.717975
1.255883 2.799462 1.703359
1.116036 2.351107 1.619833
1.271280 2.660618 1.643187
1.205340 2.406860 1.674486
1.399996 2.767087 1.731007
1.262449 2.392167 1.682721
1.274603 2.290158 1.631152
1.206164 2.931043 1.687441
1.189474 2.869779 1.700545
1.187816 2.839836 1.695194
1.194620 2.855852 1.699463
1.273754 2.891859 1.677932
1.252873 2.841486 1.697100
1.212942 2.742313 1.680470
1.125818 2.514231 1.615781
1.258884 2.827478 1.705031
1.257995 2.823523 1.699975
1.269114 2.705412 1.631835
1.282128 2.725996 1.685247
1.295076 2.750858 1.610684
1.218702 2.570645 1.666682
1.273152 2.688389 1.639708
1.269422 2.673454 1.630493
1.287719 2.572955 1.607660
1.281878 2.554266 1.672387
1.386624 2.764845 1.706128
1.289067 2.426096 1.608103
