# .PCD v0.7 - Point Cloud Data file format
VERSION 0.7
FIELDS x y z
SIZE 4 4 4
TYPE F F F
COUNT 1 1 1
WIDTH 2369
HEIGHT 1
VIEWPOINT 0 0 0 1
POINTS 2369
DATA ascii
1.628972 -1.106300 0.201269
1.641364 -1.124111 0.250286
1.585466 -1.120906 0.431653
1.527145 -1.091933 0.190881
1.598929 -1.141692 0.490677
1.516573 -1.091350 0.072946
1.537536 -1.108754 0.240905
1.594308 -1.113659 0.185643
1.697165 -1.137346 0.129204
1.547240 -1.096956 0.171869
1.578668 -1.126102 0.415824
1.496617 -1.112509 0.414209
1.574854 -1.137116 0.427910
1.432324 -1.077526 0.181449
1.504044 -1.128328 0.472246
1.443713 -1.094341 0.232465
1.511385 -1.140594 0.717270
1.496508 -1.100258 0.179231
1.396639 -1.068155 0.036638
1.519905 -1.162400 0.784330
1.450434 -1.082553 0.164447
1.564737 -1.115354 0.389978
1.620383 -1.112895 0.116701
1.470752 -1.104804 0.395437
1.397703 -1.093170 0.392778
1.551776 -1.125523 0.368119
1.629562 -1.132299 0.317751
1.479994 -1.123740 0.412476
1.347514 -1.065064 0.172963
1.411153 -1.111948 0.454788
1.329998 -1.058460 0.069044
1.474484 -1.082569 0.140400
1.362923 -1.084857 0.225966
1.522800 -1.162655 0.726403
1.422440 -1.128250 0.686805
1.403727 -1.086827 0.174788
1.347737 -1.046553 0.014948
1.267515 -1.025021 -0.012708
1.435978 -1.152019 0.757840
1.460526 -1.132109 0.685660
1.452487 -1.083766 0.120554
1.570925 -1.122501 0.368090
1.363649 -1.071096 0.157976
1.312758 -1.036772 0.008135
1.521601 -1.139860 0.681406
1.465891 -1.102003 0.373570
1.484219 -1.074816 0.059404
1.385910 -1.094376 0.379956
1.315842 -1.080728 0.376271
1.523680 -1.154919 0.669471
1.336323 -1.104466 0.441258
1.455219 -1.193922 1.140937
1.272735 -1.056547 0.166432
1.456950 -1.113137 0.355688
1.390146 -1.110336 0.398011
1.531780 -1.123924 0.307356
1.255259 -1.049920 0.068514
1.284111 -1.072362 0.218439
1.426845 -1.145337 0.697955
1.330456 -1.108920 0.654328
1.379703 -1.068150 0.134964
1.201707 -1.017456 -0.024291
1.236123 -1.045134 0.032620
1.316931 -1.072366 0.169302
1.347300 -1.097653 0.016223
1.352020 -1.136633 0.730327
1.466982 -1.189133 1.073922
1.371598 -1.118757 0.657189
1.362749 -1.073315 0.118105
1.467064 -1.105167 0.352689
1.419410 -1.199187 1.144202
1.281858 -1.058612 0.151469
1.430685 -1.127510 0.654948
1.308292 -1.083896 0.007416
1.372029 -1.085617 0.358115
1.518572 -1.149232 0.607584
1.301063 -1.080948 0.364462
1.239999 -1.069248 0.361731
1.406812 -1.076155 0.110932
1.493773 -1.140262 0.647704
1.499860 -1.192205 1.020829
1.358087 -1.168687 1.090459
1.252424 -1.086035 0.423734
1.421727 -1.135633 0.640050
1.198949 -1.046027 0.158886
1.305299 -1.095900 0.384511
1.263964 -1.023227 -0.023492
1.358090 -1.093774 0.341251
1.183501 -1.039366 0.066955
1.207308 -1.058855 0.211897
1.420929 -1.101614 0.294977
1.260582 -1.102450 0.631769
1.343933 -1.132939 0.673448
1.429475 -1.201299 1.124233
1.295927 -1.055669 0.130467
1.157327 -1.027611 0.031076
1.247179 -1.066817 0.165752
1.214344 -1.042384 0.016845
1.273088 -1.123219 0.704794
1.374915 -1.169852 1.030440
1.290666 -1.105351 0.630669
1.510638 -1.185437 0.952835
1.153849 -1.002896 -0.058946
1.342415 -1.190831 1.104677
1.277978 -1.059834 0.115614
1.153903 -1.005891 -0.054930
1.369210 -1.087799 0.338257
1.210102 -1.051075 0.146925
1.219069 -1.017528 -0.034210
1.336719 -1.108178 0.625482
1.295215 -1.077134 0.346594
1.442385 -1.191420 1.090211
1.225224 -1.069465 0.350924
1.167148 -1.056752 0.347172
1.423693 -1.136891 0.585154
1.290133 -1.162249 1.059886
1.314034 -1.059712 0.108476
1.314803 -1.060842 0.059475
1.177557 -1.071550 0.409178
1.398844 -1.123924 0.622255
1.397777 -1.168980 0.975393
1.340853 -1.126213 0.619547
1.129154 -1.034481 0.152315
1.227449 -1.082427 0.370976
1.232407 -1.048471 -0.022137
1.279287 -1.084299 0.330740
1.113729 -1.026799 0.065380
1.135498 -1.045320 0.205328
1.266026 -1.120508 0.650916
1.183649 -1.087019 0.606222
1.330310 -1.174086 1.068762
1.333131 -1.090183 0.284512
1.486499 -1.206342 1.073104
1.214158 -1.042176 0.126961
1.105636 -1.029955 0.029452
1.202172 -1.110749 0.682217
1.169386 -1.051303 0.161210
1.152653 -1.039769 0.018261
1.082398 -1.014180 -0.010468
1.294925 -1.156487 0.994911
1.213762 -1.091914 0.607127
1.246234 -1.160604 1.047175
1.416685 -1.173149 0.917395
1.200219 -1.047314 0.113083
1.142343 -1.042513 0.142351
1.289415 -1.078326 0.327749
1.249753 -1.093482 -0.035022
1.124663 -1.030958 0.008410
1.254820 -1.094772 0.600970
1.358370 -1.178091 1.049704
1.218407 -1.066653 0.334066
1.155402 -1.058945 0.338352
1.098312 -1.044230 0.333587
1.217120 -1.147845 1.023309
1.329801 -1.120543 0.561700
1.116765 -1.065981 0.399571
1.237307 -1.051187 0.106956
1.306903 -1.104568 0.595774
1.231069 -1.047342 0.059977
1.081454 -1.038818 0.148671
1.253928 -1.107828 0.595042
1.309776 -1.152663 0.936899
1.153620 -1.068926 0.359416
1.090814 -1.052644 0.202678
1.071079 -1.036101 0.064727
1.197452 -1.067836 0.319215
1.116764 -1.076527 0.583630
1.193140 -1.109047 0.629355
1.253315 -1.161717 1.030218
1.394474 -1.190056 1.031629
1.128219 -1.092297 0.656632
1.248327 -1.075729 0.275013
1.157459 -1.043555 0.124359
1.029837 -1.008413 0.027874
1.021565 -1.001586 -0.023104
1.112676 -1.050684 0.158600
1.075880 -1.020224 0.019696
1.221978 -1.146075 0.963351
1.146898 -1.083418 0.586542
1.145551 -1.007089 -0.048649
1.163152 -1.138284 0.999628
1.070538 -1.025968 0.136766
1.145546 -1.050679 0.112477
1.317653 -1.149887 0.876937
1.188986 -1.089263 0.583389
1.209614 -1.065854 0.317227
1.052911 -1.015393 0.008832
1.285429 -1.170685 1.017153
1.152625 -1.060106 0.324483
1.150141 -1.135397 0.990703
1.050576 -1.047591 0.324937
1.095638 -1.055371 0.328747
1.053916 -1.053423 0.386945
1.056354 -0.985647 -0.090244
1.243928 -1.105143 0.541199
1.231042 -1.094114 0.576232
1.007619 -1.017289 0.141080
1.054371 -0.987674 -0.094220
1.156534 -1.034681 0.104424
1.089824 -1.060369 0.349813
1.224772 -1.133318 0.900374
1.157355 -1.037794 0.060433
1.179069 -1.096371 0.575492
1.013964 -1.028129 0.196092
0.996265 -1.012555 0.063134
1.047860 -1.061042 0.561030
1.104542 -0.999419 -0.081405
1.074916 -1.013392 -0.016228
1.136718 -1.066259 0.312623
1.120239 -1.093582 0.607775
1.188370 -1.154261 0.998618
1.074399 -1.089720 0.641989
1.310469 -1.174714 0.993109
0.981132 -1.007740 0.026215
1.081683 -1.027028 0.120799
1.164521 -1.058267 0.266494
1.041882 -1.034135 0.154008
0.966957 -0.998905 -0.008730
1.031225 -1.026529 0.020040
1.155049 -1.136620 0.934756
1.079006 -1.069924 0.564941
1.100222 -1.130822 0.968019
1.016814 -1.023334 0.133128
1.067759 -1.031157 0.109916
1.083162 -1.120948 0.958088
1.205414 -1.153325 0.977602
1.116097 -1.074795 0.561814
1.233704 -1.134528 0.844421
0.994194 -1.007764 0.009205
1.135799 -1.052346 0.306662
1.042055 -1.011625 -0.025008
0.983717 -1.030054 0.311317
1.080802 -1.045592 0.312904
1.023767 -1.035861 0.314148
1.009195 -1.057765 0.381277
0.957895 -1.015638 0.136422
1.159192 -1.083636 0.557665
1.029037 -1.051795 0.341190
1.096847 -1.033070 0.103826
1.169097 -1.094680 0.523651
1.159909 -1.128842 0.876787
0.967243 -1.028462 0.192421
0.946545 -1.008885 0.062466
1.087628 -1.027228 0.059858
1.107214 -1.083895 0.556919
0.989999 -1.051487 0.542384
1.054369 -1.081072 0.589165
1.118393 -1.140839 0.963024
1.006463 -1.070226 0.619363
1.016221 -1.007761 -0.014848
1.061893 -1.048758 0.302049
1.093073 -1.039567 -0.081122
1.227463 -1.156361 0.955570
0.924394 -0.998107 0.024568
0.988149 -1.029497 0.151359
1.022959 -1.021416 0.118178
1.088093 -1.123163 0.904144
0.955417 -0.999977 0.021439
1.110847 -1.063653 0.261886
1.014141 -1.057412 0.545326
1.042296 -1.123321 0.938376
1.026230 -1.111427 0.931430
0.957053 -1.012730 0.128494
1.008029 -1.023545 0.108292
1.130401 -1.134926 0.940016
1.049221 -1.061289 0.542204
0.938466 -0.999119 0.009554
0.931938 -1.024433 0.301652
1.086107 -1.057709 0.302027
1.023034 -1.040002 0.304274
0.944322 -1.038215 0.368633
0.982360 -1.003996 -0.022630
0.976040 -1.037217 0.307486
1.158804 -1.123110 0.816865
0.906135 -1.007992 0.131749
0.977273 -1.048171 0.333530
0.914483 -1.020826 0.187753
1.091360 -1.074135 0.540078
1.086951 -1.112418 0.845200
1.031111 -1.022489 0.102225
0.893829 -1.002234 0.061806
1.040352 -1.070384 0.539308
1.089216 -1.075241 0.504096
0.950268 -1.058826 0.532694
1.033956 -1.027582 0.060229
0.967725 -1.077554 0.611664
0.993508 -1.069532 0.571527
1.050415 -1.125400 0.928409
0.958509 -0.999120 -0.012488
1.005135 -1.043156 0.295412
1.155518 -1.143936 0.923987
0.870649 -0.987454 0.023897
0.961942 -0.971374 -0.118555
1.023148 -1.108688 0.875515
0.968229 -1.015782 0.115530
0.929400 -1.018886 0.148717
0.904725 -0.996312 0.021778
0.970381 -1.060769 0.534643
1.033029 -1.043158 0.253317
0.978335 -1.108860 0.904743
0.972323 -1.102882 0.907756
0.902308 -1.004099 0.124835
1.066473 -1.124454 0.910394
0.978578 -1.003134 -0.037511
0.950296 -1.014924 0.106650
0.898554 -1.035560 0.360939
1.003481 -1.065657 0.532537
0.882167 -1.018800 0.292973
0.887758 -0.993450 0.009883
0.918227 -1.024623 0.297827
0.963244 -1.029418 0.295635
1.010261 -1.036212 0.290441
0.925654 -0.995351 -0.020276
1.087918 -1.111664 0.791284
0.853366 -0.997351 0.127070
0.863710 -1.011173 0.184064
0.913429 -1.029610 0.322885
1.040591 -1.074527 0.529423
0.847111 -0.997550 0.061113
0.901773 -1.054048 0.588009
1.017004 -1.094970 0.815589
0.883332 -1.035324 0.509049
0.977417 -1.019847 0.101582
0.950770 -1.073881 0.563839
0.990606 -1.071774 0.529653
0.987457 -1.110923 0.896767
1.024412 -1.065713 0.490490
0.965220 -1.012009 0.060627
0.900792 -0.988483 -0.011135
0.952393 -1.039535 0.288758
1.087562 -1.129478 0.893371
0.825945 -0.984763 0.022202
0.945605 -0.998415 -0.068306
0.964240 -1.097172 0.850861
0.877654 -1.011240 0.145042
0.908475 -1.003172 0.112885
0.908487 -1.043231 0.514987
0.854010 -0.988641 0.023098
0.919403 -1.092331 0.883068
0.927452 -1.103306 0.880062
0.981328 -1.043529 0.248672
0.851554 -0.995445 0.121151
0.848759 -1.026927 0.352246
1.007577 -1.115944 0.884749
0.833385 -1.011160 0.284279
0.919871 -0.992495 -0.034155
0.935576 -1.045153 0.511906
0.835026 -0.982791 0.010204
0.895575 -1.007289 0.104994
0.868462 -1.018990 0.289147
0.911483 -1.023792 0.287966
0.875966 -0.990672 -0.017951
0.960551 -1.036573 0.285782
0.806622 -0.990678 0.123369
1.018008 -1.096208 0.764681
0.815951 -1.003510 0.179364
0.867693 -1.027953 0.317194
0.798352 -0.986875 0.059408
0.864025 -1.058368 0.580288
0.969687 -1.053034 0.509802
0.839549 -1.033683 0.496345
0.933556 -1.102383 0.871091
0.964179 -1.091408 0.797929
0.888877 -1.055342 0.545178
0.915656 -1.005242 0.099939
0.922713 -1.051270 0.510021
0.978716 -1.072077 0.483828
0.909512 -1.004371 0.060976
0.891588 -1.023951 0.281104
1.021627 -1.115007 0.864743
0.848088 -0.979820 -0.008807
0.779207 -0.976074 0.021493
0.910341 -1.086619 0.828178
0.885901 -0.985777 -0.063952
0.827910 -1.002578 0.143350
0.857740 -0.995513 0.111202
0.864727 -1.043588 0.504290
0.807301 -0.982954 0.023401
0.869502 -1.082757 0.860365
0.843556 -0.950112 -0.116826
0.867486 -1.085812 0.847391
0.918554 -1.029955 0.242037
0.805831 -0.990767 0.118450
0.950659 -1.104414 0.859078
0.800972 -1.018281 0.344540
0.781580 -0.998538 0.273586
0.791324 -0.979087 0.010496
0.891824 -1.046507 0.502211
0.817667 -1.008357 0.280452
0.867189 -0.985829 -0.030820
0.856691 -1.012181 0.279291
0.841850 -0.997645 0.104323
0.900754 -1.022987 0.277128
0.824265 -0.982004 -0.015630
0.764890 -0.986979 0.119647
0.770204 -0.995833 0.176651
0.809116 -1.039788 0.561584
0.956141 -1.084698 0.743043
0.817921 -1.019314 0.310500
0.752615 -0.978185 0.058692
0.923939 -1.054399 0.500118
0.878636 -1.089847 0.844407
0.788711 -1.022081 0.480646
0.843092 -1.051708 0.534475
0.903263 -1.075898 0.772270
0.873930 -1.046649 0.499333
0.861934 -0.996598 0.099270
0.966754 -1.107460 0.843074
0.739494 -0.973355 0.019763
0.804411 -0.978115 -0.007508
0.841847 -1.018312 0.275421
0.858464 -1.077056 0.806487
0.905822 -1.047596 0.464210
0.856827 -0.998722 0.061314
0.781168 -0.994904 0.140642
0.819597 -1.071182 0.837654
0.837231 -0.981087 -0.059635
0.808001 -0.986853 0.108510
0.808854 -1.027013 0.486601
0.762594 -0.977257 0.023691
0.828705 -1.090174 0.832672
0.952704 -1.110161 1.034184
0.756179 -1.009617 0.336814
0.860775 -1.016349 0.236371
0.763112 -0.987072 0.115733
0.889719 -1.087916 0.829414
0.742837 -0.996838 0.267850
0.833946 -1.028940 0.484528
0.749629 -0.976377 0.009778
0.772910 -1.002692 0.273738
0.807929 -1.004535 0.272594
0.794118 -0.989972 0.102621
0.816500 -0.978153 -0.027503
0.721133 -0.978288 0.115917
0.850999 -1.016344 0.271439
0.777567 -0.975310 -0.013333
0.767316 -1.035130 0.550852
0.726441 -0.987145 0.172920
0.772148 -1.011653 0.303783
0.714931 -0.978459 0.057960
0.861051 -1.033857 0.482454
0.744897 -1.014432 0.467917
0.896271 -1.072177 0.720388
0.792236 -1.038100 0.519764
0.828746 -1.080276 0.820702
0.858487 -1.076283 0.759572
0.825143 -1.040027 0.488637
0.913877 -1.098898 0.821387
0.812226 -0.989936 0.098584
0.699788 -0.969634 0.019028
0.819682 -1.079404 0.794758
0.760714 -0.973409 -0.006223
0.776734 -1.064557 0.819918
0.787054 -1.003699 0.267735
0.862105 -1.049943 0.457516
0.740456 -0.992199 0.138915
0.806112 -0.990058 0.061626
0.765059 -1.021365 0.474879
0.724906 -0.976522 0.024953
0.785534 -0.970411 -0.055323
0.764306 -0.984165 0.106803
0.769711 -1.066667 0.798973
0.714416 -1.003939 0.330081
0.721377 -0.981370 0.113001
0.838829 -1.077345 0.806710
0.899855 -1.105628 1.011513
0.703088 -0.993146 0.261112
0.808042 -1.007722 0.231695
0.789165 -1.024296 0.473815
0.708933 -0.972660 0.010048
0.731172 -0.999010 0.268013
0.766195 -1.001850 0.267871
0.748392 -0.982286 0.101905
0.772821 -0.974442 -0.024215
0.726507 -1.029467 0.539109
0.682417 -0.975577 0.112179
0.734877 -0.970596 -0.011054
0.801252 -1.008703 0.265746
0.689740 -0.987426 0.170179
0.730397 -1.006971 0.298053
0.677213 -0.974729 0.057211
0.749452 -1.033447 0.509037
0.702101 -1.007782 0.455186
0.815284 -1.030217 0.472749
0.779872 -1.070699 0.797991
0.845456 -1.065593 0.704700
0.803598 -1.061733 0.736880
0.763724 -1.057859 0.768047
0.854959 -1.082376 0.795709
0.772326 -1.027433 0.474943
0.741939 -1.065876 0.809158
0.661088 -0.965910 0.018286
0.771545 -0.990228 0.097866
0.719017 -0.968692 -0.004951
0.745332 -1.001012 0.264011
0.699735 -0.987493 0.137179
0.723278 -1.016705 0.464147
0.804282 -1.034372 0.443840
0.758405 -0.982380 0.061922
0.722576 -0.978459 0.105069
0.685220 -0.973802 0.025220
0.747906 -0.974676 -0.053041
0.735956 -1.072991 0.787226
0.678659 -1.001220 0.325318
0.797020 -1.075712 0.791982
0.676628 -0.970684 0.110270
0.663332 -0.987453 0.254367
0.743351 -1.014654 0.462088
0.850013 -1.101071 0.990822
0.672227 -0.969919 0.010295
0.689401 -0.991324 0.261271
0.760303 -1.000066 0.226989
0.687715 -1.024788 0.529356
0.721436 -0.994183 0.261148
0.646703 -0.973846 0.109424
0.708701 -0.980573 0.101175
0.651993 -0.981704 0.167420
0.731159 -0.972726 -0.021933
0.696197 -0.968866 -0.009791
0.758518 -1.005022 0.261023
0.689646 -1.001280 0.293311
0.639502 -0.969997 0.057457
0.703628 -1.021807 0.497303
0.741068 -1.070051 0.783248
0.660304 -1.000125 0.442444
0.768495 -1.022581 0.462034
0.757767 -1.054118 0.721157
0.693003 -1.048294 0.783419
0.800706 -1.065976 0.693000
0.807096 -1.073780 0.775991
0.726963 -1.060192 0.758304
0.729560 -1.022775 0.466215
0.624387 -0.962172 0.018531
0.724814 -0.980547 0.097148
0.680331 -0.965962 -0.003692
0.703598 -0.996327 0.259280
0.656987 -0.977797 0.134438
0.678451 -1.005061 0.450408
0.647508 -0.969068 0.025465
0.717730 -0.980667 0.063196
0.683885 -0.976742 0.104331
0.752493 -1.022764 0.433142
0.641896 -0.996510 0.319554
0.706229 -0.969951 -0.048772
0.679983 -1.048462 0.755508
0.750154 -1.066115 0.771257
0.643950 -0.973939 0.108512
0.626586 -0.983744 0.247608
0.703593 -1.011979 0.453348
0.645615 -0.979652 0.253528
0.645876 -1.013127 0.516597
0.632528 -0.964198 0.010550
0.796112 -1.088540 0.964127
0.683713 -0.992474 0.257401
0.716591 -0.995388 0.224270
0.616268 -0.977973 0.165655
0.606957 -0.965136 0.105668
0.670019 -0.978855 0.101436
0.687454 -0.964014 -0.018665
0.651894 -0.996572 0.288553
0.713760 -0.996348 0.256294
0.657524 -0.966135 -0.007532
0.604805 -0.968254 0.056694
0.689121 -1.049488 0.755517
0.663855 -1.017136 0.487556
0.627565 -1.001408 0.435676
0.723696 -1.013932 0.451302
0.660210 -1.048597 0.773642
0.679053 -1.043596 0.735562
0.769342 -1.077118 0.766254
0.715976 -1.050480 0.708423
0.590673 -0.959421 0.016758
0.742805 -1.045435 0.670304
0.688798 -1.018103 0.458474
0.686127 -0.978827 0.097408
0.643664 -0.965224 -0.002438
0.622290 -0.977060 0.133677
0.641690 -1.002369 0.441650
0.664883 -0.993624 0.256535
0.644156 -0.970027 0.102580
0.609810 -0.964337 0.025711
0.607153 -0.993789 0.314784
0.679048 -0.978945 0.063457
0.646199 -1.049780 0.742740
0.706729 -1.015121 0.424421
0.664552 -0.964231 -0.045506
0.704269 -1.053505 0.750513
0.607219 -0.968208 0.106746
0.590848 -0.980028 0.241843
0.613105 -1.011408 0.509815
0.664831 -1.008297 0.444598
0.613908 -0.981912 0.249757
0.593802 -0.955467 0.010788
0.576259 -0.966376 0.103889
0.746240 -1.077979 0.941413
0.641954 -0.983788 0.251654
0.582554 -0.976236 0.162884
0.678903 -0.995677 0.222529
0.634323 -0.978122 0.100681
0.614150 -0.991868 0.283795
0.570081 -0.963510 0.055920
0.673023 -0.991659 0.251554
0.648779 -0.961284 -0.016407
0.620836 -0.963396 -0.006286
0.655347 -1.051805 0.744752
0.627073 -1.012441 0.479790
0.621340 -1.038941 0.756868
0.587752 -0.991736 0.422914
0.685953 -1.013244 0.444556
0.642258 -1.040926 0.724799
0.718424 -1.059537 0.743523
0.553933 -0.950682 0.015983
0.669107 -1.036873 0.689685
0.648019 -1.011432 0.449725
0.701032 -1.042795 0.658573
0.642400 -0.969133 0.096671
0.605917 -0.998670 0.432881
0.587578 -0.974321 0.132908
0.604956 -0.958493 -0.001195
0.628155 -0.990910 0.252777
0.576108 -0.961581 0.026936
0.573408 -0.991063 0.310007
0.606435 -0.964301 0.101820
0.603333 -1.038162 0.721985
0.641369 -0.977216 0.064709
0.667469 -1.051838 0.737752
0.626868 -0.960490 -0.043259
0.668006 -1.014438 0.418680
0.571495 -0.963476 0.103977
0.578317 -1.006705 0.501035
0.556102 -0.975303 0.237066
0.625029 -0.999617 0.434835
0.578164 -0.977193 0.244986
0.560111 -0.953717 0.010017
0.548819 -0.971492 0.161101
0.540521 -0.959645 0.100113
0.604219 -0.979081 0.246895
0.700385 -1.069389 0.921682
0.591572 -0.964417 0.099923
0.534345 -0.954765 0.055137
0.579415 -0.988142 0.280019
0.637174 -0.988988 0.218787
0.585518 -1.033267 0.743087
0.630263 -0.980973 0.246804
0.591302 -1.007740 0.472014
0.613481 -1.040172 0.724988
0.582127 -0.954659 -0.004051
0.611107 -0.957545 -0.014161
0.551984 -0.986036 0.414138
0.646187 -1.007564 0.435801
0.602418 -1.031274 0.709030
0.679623 -1.055877 0.730764
0.521242 -0.947925 0.015202
0.629313 -1.031220 0.676929
0.604219 -0.998778 0.438973
0.553861 -0.970576 0.131126
0.658247 -1.036156 0.646831
0.604688 -0.963404 0.095908
0.568136 -0.990981 0.423110
0.566237 -0.948758 0.000037
0.587394 -0.980214 0.248015
0.539660 -0.986335 0.305221
0.544435 -0.961818 0.027157
0.570734 -0.960568 0.100052
0.565494 -1.029502 0.705207
0.622604 -1.038223 0.717999
0.597642 -0.964515 0.064960
0.542522 -0.999007 0.491250
0.625232 -1.004773 0.409931
0.522351 -0.969571 0.231278
0.535774 -0.956740 0.102200
0.589210 -0.956750 -0.040014
0.588258 -0.993920 0.426063
0.542425 -0.971475 0.239211
0.525399 -0.946965 0.010234
0.517088 -0.967739 0.158306
0.497714 -0.937943 0.096333
0.568475 -0.973359 0.242119
0.549662 -1.023589 0.727293
0.503647 -0.952999 0.054344
0.542665 -0.980429 0.275242
0.559900 -0.965660 0.100146
0.662636 -1.071748 0.910935
0.574638 -1.030517 0.708212
0.554519 -1.000045 0.463235
0.595553 -0.979245 0.244034
0.597455 -0.982285 0.216031
0.522253 -0.987300 0.407345
0.574417 -0.951799 -0.011930
0.546444 -0.949913 -0.002822
0.609428 -1.002863 0.429030
0.567615 -1.026588 0.697244
0.636767 -1.044243 0.713003
0.489530 -0.943160 0.014407
0.589489 -1.021563 0.663159
0.574529 -1.004040 0.436192
0.536387 -0.989254 0.416319
0.520149 -0.965830 0.130341
0.569997 -0.960661 0.096136
0.505889 -0.978605 0.299424
0.532558 -0.946004 0.000260
0.551674 -0.975492 0.245241
0.505681 -0.947085 0.027372
0.611422 -1.022547 0.630092
0.529676 -1.022832 0.689422
0.535029 -0.954832 0.099277
0.512760 -0.997268 0.485445
0.586800 -1.033545 0.705218
0.489603 -0.963835 0.225483
0.563980 -0.964768 0.065191
0.504079 -0.954987 0.100413
0.551510 -0.948004 -0.036787
0.589522 -1.004070 0.405167
0.550489 -0.986231 0.417291
0.509688 -0.966735 0.235418
0.481337 -0.957007 0.155515
0.494712 -0.945194 0.010441
0.475070 -0.948142 0.095526
0.534751 -0.969627 0.238335
0.514837 -1.015907 0.713498
0.472938 -0.949232 0.053544
0.509935 -0.976693 0.271451
0.521774 -0.997325 0.457446
0.538832 -1.024846 0.693429
0.523187 -0.957929 0.099370
0.618771 -1.060142 0.890178
0.558826 -0.973529 0.240262
0.487476 -0.979594 0.397555
0.515777 -0.950142 -0.001609
0.562772 -0.981558 0.214263
0.570640 -0.993174 0.420255
0.537730 -0.945056 -0.009702
0.597941 -1.035580 0.699227
0.531813 -1.019909 0.685459
0.455798 -0.933404 0.013608
0.550687 -1.012902 0.650386
0.537773 -0.997342 0.429414
0.473124 -0.970868 0.294621
0.502634 -0.984541 0.408530
0.485414 -0.957090 0.128549
0.537306 -0.958909 0.095353
0.500874 -0.943237 0.001469
0.477010 -0.948307 0.027574
0.517959 -0.971759 0.242457
0.573644 -1.016875 0.619321
0.484007 -0.996525 0.479636
0.549969 -1.024872 0.690431
0.505340 -0.955064 0.098482
0.493862 -1.015162 0.673634
0.456861 -0.957097 0.220685
0.472352 -0.949228 0.098611
0.520752 -0.986490 0.411491
0.529299 -0.961023 0.066414
0.452613 -0.954236 0.153703
0.475934 -0.959004 0.229622
0.518858 -0.947242 -0.034565
0.548766 -0.994396 0.397405
0.458983 -0.933448 0.010648
0.486060 -1.015180 0.705686
0.444361 -0.944383 0.092726
0.501017 -0.963893 0.234545
0.437200 -0.936491 0.052748
0.477196 -0.970956 0.267654
0.490020 -0.993598 0.451645
0.504023 -1.018164 0.679636
0.522057 -0.962808 0.235473
0.490490 -0.954178 0.098580
0.455711 -0.973866 0.389751
0.573890 -1.044540 0.868416
0.495965 -1.008227 0.670658
0.537894 -0.990450 0.414464
0.562126 -1.028897 0.686438
0.481080 -0.942388 0.000603
0.525041 -0.972844 0.211487
0.505059 -0.942293 -0.007487
0.428119 -0.933622 0.012801
0.516914 -1.009207 0.640596
0.442362 -0.964120 0.289808
0.453681 -0.950333 0.126743
0.467845 -0.974832 0.398733
0.506050 -0.996616 0.424623
0.503619 -0.955163 0.095569
0.438240 -0.928572 0.028776
0.466179 -0.935487 0.002682
0.450213 -0.986813 0.470830
0.487255 -0.971011 0.239661
0.515158 -1.018188 0.676637
0.459043 -1.006483 0.657836
0.467593 -0.941338 0.096694
0.535883 -1.011206 0.609550
0.442647 -0.946462 0.096805
0.426131 -0.952350 0.215879
0.485995 -0.979782 0.403702
0.455238 -1.008466 0.693868
0.420881 -0.946482 0.151895
0.492583 -0.951287 0.066630
0.446225 -0.957249 0.226818
0.483155 -0.937488 -0.031354
0.414630 -0.938616 0.089912
0.431317 -0.934665 0.010843
0.515056 -0.992679 0.393623
0.411510 -0.937699 0.051929
0.468296 -0.959157 0.230750
0.445449 -0.964212 0.263847
0.470199 -1.009472 0.665831
0.457249 -0.986879 0.443842
0.450712 -0.934457 0.097787
0.491358 -0.962058 0.233678
0.466197 -1.006506 0.662848
0.526319 -1.021214 0.674645
0.423967 -0.969143 0.381950
0.501116 -0.980752 0.405677
0.448371 -0.934624 0.001801
0.537109 -1.040888 0.855641
0.472363 -0.936530 -0.006283
0.488301 -0.963125 0.207701
0.396390 -0.923857 0.011989
0.415658 -0.965351 0.287992
0.483134 -1.003511 0.630800
0.440140 -0.977082 0.394925
0.422985 -0.946575 0.125940
0.469263 -0.984918 0.415829
0.424475 -0.988048 0.467005
0.437495 -0.933704 0.003873
0.414607 -0.936773 0.028965
0.470934 -0.951412 0.095777
0.480345 -1.009501 0.663837
0.452522 -0.962284 0.236866
0.439904 -0.941560 0.095883
0.427262 -1.001783 0.646030
0.501126 -1.006513 0.601762
0.398422 -0.951586 0.212065
0.424417 -1.000753 0.682047
0.411932 -0.940701 0.094997
0.456248 -0.977040 0.397891
0.391145 -0.939719 0.149077
0.417490 -0.953487 0.223001
0.462928 -0.952519 0.067834
0.383917 -0.931856 0.088101
0.400608 -0.927897 0.010033
0.450485 -0.932726 -0.029147
0.436535 -0.950408 0.226937
0.417727 -0.962444 0.262027
0.480320 -0.986968 0.387833
0.380808 -0.930933 0.052119
0.426484 -0.981146 0.437028
0.439417 -1.005762 0.655020
0.427060 -0.941660 0.097971
0.493530 -1.016513 0.663843
0.433408 -0.999808 0.652042
0.393195 -0.961408 0.374132
0.462678 -0.964300 0.231877
0.471393 -0.980009 0.401871
0.416685 -0.928860 0.003000
0.495247 -1.025266 0.835861
0.370705 -0.924064 0.011167
0.440694 -0.932764 -0.004080
0.455619 -0.960387 0.206911
0.384883 -0.955604 0.282169
0.450360 -0.997808 0.621996
0.408358 -0.968354 0.386110
0.393257 -0.939807 0.125121
0.392669 -0.977324 0.457183
0.437524 -0.980189 0.411024
0.450568 -1.006779 0.655022
0.384904 -0.930999 0.029150
0.441233 -0.948644 0.094969
0.404790 -0.924945 0.004069
0.421800 -0.957534 0.234057
0.409185 -0.934796 0.095071
0.396459 -0.995073 0.633212
0.397659 -1.001015 0.675221
0.367664 -0.941834 0.207244
0.379182 -0.927948 0.093181
0.466368 -1.000823 0.592970
0.367466 -0.943924 0.148250
0.422466 -0.966322 0.390082
0.384747 -0.943751 0.218192
0.355178 -0.924083 0.085275
0.373906 -0.925104 0.010207
0.427209 -0.940780 0.068038
0.422832 -0.933938 -0.026955
0.387990 -0.956690 0.258209
0.404794 -0.942665 0.222127
0.354096 -0.927145 0.051290
0.396736 -0.976407 0.432210
0.445544 -1.022567 0.864103
0.407624 -0.999058 0.643207
0.445587 -0.980259 0.382041
0.405642 -0.998071 0.645217
0.460733 -1.009809 0.653034
0.364445 -0.956663 0.367310
0.430944 -0.957553 0.229067
0.395358 -0.934905 0.097165
0.439641 -0.974278 0.396062
0.390015 -0.929069 0.004181
0.344021 -0.922276 0.010344
0.409006 -0.925997 -0.001885
0.358163 -0.953836 0.279342
0.466547 -1.031558 0.832062
0.423924 -0.956643 0.205110
0.366928 -0.976559 0.453350
0.366555 -0.938025 0.124296
0.376575 -0.957623 0.378290
0.418611 -0.994102 0.614191
0.406772 -0.974455 0.405209
0.418772 -1.000074 0.643207
0.407489 -0.935892 0.095156
0.378103 -0.923152 0.005245
0.358226 -0.930211 0.029328
0.369844 -0.994277 0.665382
0.366670 -0.989357 0.621389
0.390070 -0.949790 0.231246
0.380495 -0.932025 0.094256
0.339925 -0.936066 0.203414
0.354504 -0.930155 0.092354
0.340759 -0.941144 0.147421
0.395754 -0.967563 0.386262
0.358010 -0.939977 0.214361
0.433629 -0.997119 0.586170
0.329486 -0.923296 0.083447
0.346226 -0.922322 0.010387
0.399527 -0.940000 0.068221
0.389106 -0.920174 -0.023769
0.378099 -0.942893 0.220306
0.329417 -0.928349 0.050460
0.358267 -0.950938 0.255390
0.367983 -0.971662 0.426385
0.377835 -0.993339 0.632383
0.415784 -1.021864 0.856289
0.376872 -0.994343 0.637392
0.429958 -1.005091 0.645217
0.411828 -0.970539 0.376233
0.411905 -0.972521 0.392238
0.399198 -0.948807 0.225252
0.367664 -0.932127 0.097343
0.335706 -0.951920 0.360488
0.361325 -0.924288 0.005361
0.330403 -0.946069 0.275506
0.317314 -0.917487 0.009512
0.381330 -0.924211 -0.000704
0.423614 -1.005940 0.806263
0.338160 -0.969817 0.446520
0.348820 -0.952870 0.371460
0.393208 -0.950890 0.203297
0.338854 -0.934250 0.123471
0.391890 -0.996359 0.610369
0.379057 -0.973701 0.402387
0.387973 -0.992358 0.632384
0.343062 -0.990535 0.657544
0.330519 -0.924427 0.029499
0.347382 -0.912380 0.006422
0.378810 -0.934123 0.094343
0.361361 -0.946029 0.229426
0.351785 -0.926253 0.093433
0.337919 -0.986635 0.612567
0.313195 -0.931293 0.199580
0.313031 -0.934370 0.145588
0.327804 -0.927374 0.090526
0.364987 -0.958827 0.379439
0.331306 -0.938206 0.211534
0.305800 -0.924497 0.082609
0.401891 -0.993410 0.579363
0.319533 -0.918532 0.010556
0.303702 -0.923554 0.050620
0.340210 -0.964907 0.420548
0.332558 -0.950162 0.253557
0.350380 -0.939127 0.217479
0.363458 -0.922377 -0.021590
0.366816 -0.929245 0.069409
0.348035 -0.985620 0.620554
0.349092 -0.989606 0.629557
0.400157 -0.998365 0.635388
0.379894 -1.004201 0.835469
0.380120 -0.961790 0.384416
0.383125 -0.969793 0.373417
0.309967 -0.949153 0.355650
0.368467 -0.941057 0.222433
0.340976 -0.930344 0.097516
0.306708 -0.948282 0.274667
0.330601 -0.912515 0.006536
0.290608 -0.911698 0.008677
0.311393 -0.964059 0.440678
0.353645 -0.920423 0.001471
0.324118 -0.955100 0.368627
0.395918 -1.011223 0.803451
0.360088 -0.985646 0.600544
0.311143 -0.928475 0.122640
0.363515 -0.947135 0.202482
0.316275 -0.985795 0.648703
0.359197 -0.987630 0.623555
0.347309 -0.964975 0.396570
0.303809 -0.918636 0.029662
0.322725 -0.914582 0.006594
0.352119 -0.932338 0.094515
0.334638 -0.942255 0.227591
0.311163 -0.984898 0.603732
0.327115 -0.928462 0.092603
0.288508 -0.932513 0.196746
0.300068 -0.918595 0.088688
0.288336 -0.933580 0.144749
0.338241 -0.955065 0.374603
0.304581 -0.933433 0.208698
0.280093 -0.920709 0.080771
0.294839 -0.916732 0.009717
0.373166 -0.992679 0.574543
0.306838 -0.947384 0.251718
0.313492 -0.963150 0.417716
0.279036 -0.924761 0.049787
0.323672 -0.936354 0.215648
0.322294 -0.985873 0.614717
0.322334 -0.986863 0.623720
0.370370 -0.991641 0.626559
0.336810 -0.922587 -0.019411
0.339144 -0.927468 0.069588
0.353165 -1.006475 0.831642
0.352394 -0.959035 0.380588
0.283236 -0.945396 0.349814
0.342774 -0.941278 0.221602
0.313271 -0.924565 0.097685
0.280959 -0.942506 0.270821
0.352412 -0.965060 0.369603
0.267934 -0.913889 0.007834
0.285635 -0.959295 0.435833
0.308981 -0.921703 0.007704
0.324971 -0.915645 0.002650
0.296375 -0.949348 0.362793
0.287457 -0.929678 0.121800
0.291523 -0.985040 0.643857
0.362087 -0.998543 0.788631
0.333373 -0.986905 0.596715
0.333454 -0.987882 0.617718
0.335828 -0.945368 0.201657
0.320569 -0.961214 0.392732
0.279125 -0.916836 0.030822
0.324410 -0.926558 0.094683
0.299074 -0.917778 0.007760
0.309981 -0.946475 0.227762
0.299402 -0.921684 0.091769
0.263791 -0.929728 0.193902
0.283409 -0.981168 0.594899
0.265647 -0.935779 0.143903
0.275365 -0.915800 0.087846
0.309487 -0.947317 0.368770
0.281913 -0.938639 0.207858
0.252355 -0.909932 0.077930
0.270155 -0.914932 0.009876
0.255326 -0.921957 0.048937
0.286739 -0.957392 0.412874
0.280116 -0.942614 0.248880
0.294508 -0.979138 0.604877
0.342423 -0.986961 0.568722
0.301001 -0.941560 0.214808
0.344627 -0.991890 0.621721
0.293545 -0.978134 0.614881
0.322358 -0.997779 0.818813
0.311455 -0.922688 0.070758
0.303072 -0.903828 -0.017235
0.324644 -0.953279 0.375752
0.316048 -0.936502 0.219764
0.254461 -0.933649 0.341974
0.256249 -0.940726 0.268977
0.285554 -0.916788 0.096848
0.258848 -0.949536 0.428982
0.324697 -0.962305 0.366773
0.245254 -0.915079 0.006987
0.284296 -0.919901 0.008862
0.266733 -0.980282 0.636001
0.270630 -0.944580 0.357947
0.301299 -0.916838 0.003809
0.263760 -0.928879 0.121952
0.308721 -0.989125 0.613874
0.303584 -0.977180 0.587880
0.337405 -1.005800 0.789800
0.308130 -0.941600 0.200827
0.254425 -0.913037 0.030976
0.291831 -0.954469 0.387900
0.274389 -0.915978 0.007918
0.299750 -0.928768 0.094849
0.240915 -0.929986 0.142050
0.256624 -0.974427 0.585051
0.282245 -0.938708 0.224923
0.273692 -0.916895 0.090926
0.285766 -0.947537 0.365923
0.241111 -0.932934 0.192056
0.245623 -0.901035 0.086008
0.254156 -0.927872 0.203014
0.229666 -0.910127 0.077080
0.255381 -0.937828 0.247028
0.244455 -0.909138 0.010033
0.261003 -0.953628 0.409029
0.231652 -0.922156 0.049092
0.316862 -0.987152 0.614882
0.273248 -0.931791 0.210965
0.267740 -0.974398 0.596033
0.269821 -0.980372 0.612033
0.311654 -0.978243 0.559894
0.295579 -0.994050 0.810969
0.298924 -0.951512 0.372911
0.281435 -0.910011 -0.015077
0.285778 -0.920898 0.071921
0.232511 -0.936937 0.266121
0.292363 -0.938713 0.218922
0.237107 -0.949744 0.426120
0.231769 -0.936866 0.339126
0.222570 -0.915269 0.006135
0.264937 -0.927977 0.098008
0.294957 -0.953562 0.362941
0.241953 -0.975525 0.629145
0.259627 -0.919102 0.010022
0.244893 -0.939814 0.353101
0.274600 -0.910045 0.005968
0.279913 -0.978394 0.603029
0.239071 -0.927089 0.121108
0.276847 -0.974437 0.583040
0.301547 -0.986137 0.770977
0.231769 -0.916230 0.031131
0.282453 -0.941823 0.199992
0.265112 -0.950711 0.385061
0.249711 -0.914180 0.008075
0.253040 -0.924079 0.092076
0.274060 -0.925980 0.095009
0.220282 -0.940178 0.142202
0.260024 -0.942770 0.361076
0.216397 -0.929150 0.189206
0.258577 -0.941920 0.225081
0.228861 -0.967697 0.575209
0.227011 -0.915213 0.086160
0.231473 -0.930076 0.202164
0.210036 -0.921310 0.076230
0.236243 -0.947855 0.404173
0.232700 -0.941036 0.246179
0.222789 -0.912322 0.010180
0.291091 -0.983400 0.608032
0.245066 -0.977614 0.607179
0.244012 -0.975636 0.592182
0.206960 -0.918361 0.048243
0.250581 -0.935996 0.211119
0.273172 -0.945742 0.369062
0.283931 -0.975506 0.556059
0.265766 -0.983346 0.798129
0.212345 -0.942973 0.421262
0.210820 -0.940138 0.265264
0.258781 -0.913199 -0.013922
0.263143 -0.927095 0.073081
0.265653 -0.933941 0.217082
0.207041 -0.933095 0.334276
0.242265 -0.930172 0.099158
0.218169 -0.970760 0.622281
0.197885 -0.911473 0.005287
0.235968 -0.920298 0.011176
0.267240 -0.948811 0.359105
0.221167 -0.938035 0.349247
0.255162 -0.976637 0.597177
0.215369 -0.924290 0.121253
0.252969 -0.917232 0.007124
0.253133 -0.976672 0.581190
0.208077 -0.913427 0.031277
0.239360 -0.943943 0.381208
0.255741 -0.936049 0.199149
0.276865 -0.992397 0.771139
0.227051 -0.916370 0.009226
0.193531 -0.927397 0.140347
0.228339 -0.920285 0.091227
0.235298 -0.939998 0.357226
0.247347 -0.918196 0.095164
0.234875 -0.941129 0.224228
0.195742 -0.937344 0.188352
0.204104 -0.963941 0.568354
0.206341 -0.920398 0.085303
0.207769 -0.928286 0.200310
0.263295 -0.973660 0.599182
0.219279 -0.969862 0.599322
0.210507 -0.942092 0.400322
0.184317 -0.912523 0.074377
0.209005 -0.940248 0.246326
0.184238 -0.913550 0.047379
0.199107 -0.910520 0.009329
0.216217 -0.964902 0.581331
0.226888 -0.936208 0.209268
0.248455 -0.943969 0.366213
0.192684 -0.953172 0.423403
0.189134 -0.943338 0.265405
0.255167 -0.966773 0.549218
0.241961 -0.934151 0.216232
0.236161 -0.919391 -0.011764
0.234408 -0.913320 0.073236
0.195432 -0.970990 0.619419
0.183337 -0.932318 0.331423
0.216573 -0.925385 0.099311
0.173166 -0.902673 0.004429
0.210255 -0.911502 0.012323
0.197451 -0.936256 0.346392
0.229401 -0.971887 0.590325
0.192693 -0.925489 0.121399
0.240555 -0.947054 0.358267
0.228300 -0.915433 0.008278
0.225373 -0.968937 0.574344
0.215668 -0.945167 0.380357
0.185428 -0.916622 0.031427
0.170829 -0.925596 0.139486
0.210555 -0.934223 0.353369
0.202350 -0.910570 0.009372
0.231088 -0.938267 0.200307
0.204649 -0.918488 0.090373
0.226706 -0.926382 0.096310
0.209171 -0.936353 0.223379
0.169005 -0.926574 0.183499
0.183667 -0.921596 0.084448
0.179381 -0.963190 0.562502
0.185081 -0.929492 0.198454
0.238532 -0.969901 0.593325
0.187779 -0.940307 0.398459
0.194508 -0.964106 0.592461
0.163634 -0.915707 0.072513
0.184278 -0.934466 0.243468
0.175410 -0.905715 0.009471
0.161575 -0.914746 0.047524
0.204181 -0.935409 0.208408
0.192481 -0.964140 0.576473
0.164846 -0.932421 0.412538
0.224750 -0.944190 0.364359
0.165404 -0.938552 0.262542
0.172669 -0.968219 0.614551
0.229461 -0.966023 0.547372
0.211461 -0.913588 -0.010619
0.219289 -0.937357 0.216379
0.215799 -0.927494 0.075380
0.160633 -0.932533 0.328563
0.192870 -0.921585 0.099453
0.152503 -0.906853 0.003567
0.205635 -0.968121 0.584461
0.172689 -0.927482 0.340530
0.185564 -0.905702 0.013469
0.171023 -0.928681 0.121539
0.214825 -0.941286 0.355415
0.205615 -0.915624 0.009421
0.200616 -0.965180 0.570485
0.155597 -0.885847 0.031562
0.190935 -0.941398 0.377501
0.148103 -0.921796 0.137619
0.178636 -0.904764 0.010510
0.207384 -0.937479 0.199450
0.222343 -0.982948 0.759445
0.187865 -0.937442 0.352513
0.201996 -0.921590 0.096454
0.181977 -0.920688 0.090517
0.146277 -0.922778 0.181632
0.184440 -0.930571 0.221520
0.159953 -0.916798 0.083586
0.153605 -0.955445 0.553642
0.214777 -0.968137 0.589463
0.162380 -0.929699 0.196593
0.164029 -0.935532 0.394594
0.171789 -0.966338 0.591598
0.139909 -0.908910 0.070648
0.161560 -0.932673 0.242603
0.168723 -0.961379 0.570608
0.137848 -0.906945 0.046657
0.151711 -0.900913 0.009610
0.178440 -0.926633 0.205550
0.143084 -0.928632 0.408663
0.199983 -0.936416 0.360495
0.142678 -0.935761 0.260673
0.148866 -0.960458 0.605677
0.195552 -0.932566 0.214513
0.202715 -0.960281 0.542520
0.190092 -0.920708 0.075525
0.187802 -0.913785 -0.008474
0.137925 -0.932751 0.325698
0.124691 -0.879068 0.002696
0.168164 -0.915795 0.099593
0.180843 -0.960364 0.576593
0.149973 -0.926700 0.337664
0.158805 -0.887912 0.014606
0.148304 -0.924879 0.120668
0.190138 -0.941519 0.354562
0.175879 -0.961423 0.565623
0.179938 -0.908830 0.011567
0.138998 -0.904007 0.031693
0.126395 -0.918987 0.136745
0.166207 -0.935628 0.373639
0.165139 -0.934654 0.349643
0.152900 -0.889967 0.010645
0.157244 -0.909891 0.089650
0.182692 -0.933693 0.199592
0.179330 -0.922786 0.096594
0.124585 -0.922975 0.179762
0.196616 -0.981214 0.755589
0.192033 -0.966362 0.586591
0.137246 -0.911992 0.082716
0.161766 -0.931777 0.221657
0.140678 -0.928894 0.195720
0.143344 -0.939734 0.395723
0.148026 -0.960574 0.585726
0.129879 -0.953686 0.547776
0.117203 -0.903103 0.069777
0.139873 -0.933872 0.242733
0.117155 -0.906123 0.046781
0.143938 -0.951622 0.561738
0.128996 -0.893099 0.009738
0.156744 -0.926829 0.204680
0.121352 -0.925843 0.405788
0.178280 -0.937622 0.359626
0.121974 -0.936953 0.259796
0.127137 -0.960681 0.603802
0.172868 -0.932769 0.214649
0.164103 -0.906974 -0.006340
0.115209 -0.929966 0.321828
0.178024 -0.960525 0.541663
0.145466 -0.911989 0.099724
0.165421 -0.916915 0.076668
0.103017 -0.877254 0.001828
0.156094 -0.954609 0.570727
0.128277 -0.927908 0.335794
0.124595 -0.918082 0.119800
0.136126 -0.884102 0.015740
0.151142 -0.881046 0.012701
0.150101 -0.950673 0.557756
0.165425 -0.936746 0.352700
0.117340 -0.905194 0.032825
0.103692 -0.914186 0.135873
0.143499 -0.933843 0.372769
0.142437 -0.933869 0.347775
0.133286 -0.900144 0.011780
0.148466 -0.885018 0.094724
0.133532 -0.902092 0.088782
0.168295 -0.963598 0.582723
0.101887 -0.920179 0.176891
0.114539 -0.906186 0.081843
0.159018 -0.932904 0.199730
0.168806 -0.967492 0.743728
0.117977 -0.926098 0.193850
0.124256 -0.952810 0.579852
0.118567 -0.926965 0.388850
0.138086 -0.929990 0.221794
0.106135 -0.948925 0.540906
0.117154 -0.929077 0.240859
0.121205 -0.949853 0.556865
0.095546 -0.905296 0.068909
0.095485 -0.906312 0.045910
0.100686 -0.932050 0.406915
0.105375 -0.956903 0.598920
0.104261 -0.877300 0.009867
0.133047 -0.923041 0.202814
0.154544 -0.931842 0.355757
0.098225 -0.926166 0.256921
0.151197 -0.935968 0.214780
0.142458 -0.910158 -0.005206
0.086411 -0.895411 0.000951
0.135387 -0.958823 0.569850
0.092522 -0.930183 0.318959
0.142735 -0.914107 0.077799
0.121766 -0.905191 0.099856
0.151256 -0.948780 0.534800
0.106594 -0.930117 0.334922
0.101897 -0.913279 0.119927
0.115473 -0.887283 0.015870
0.127404 -0.951903 0.557886
0.133571 -0.900213 0.013834
0.140720 -0.931976 0.350837
0.091537 -0.878398 0.031946
0.080958 -0.904384 0.133995
0.119774 -0.928066 0.369899
0.119698 -0.928082 0.343899
0.144500 -0.953830 0.574845
0.113886 -0.909270 0.089908
0.108539 -0.883342 0.011907
0.132931 -0.913181 0.096855
0.092860 -0.905377 0.080970
0.102544 -0.954033 0.578975
0.079190 -0.916384 0.175018
0.094234 -0.915308 0.189975
0.096885 -0.929177 0.388977
0.134321 -0.927121 0.198866
0.110245 -0.900221 0.214920
0.144132 -0.970755 0.744869
0.082384 -0.942163 0.534031
0.095480 -0.931279 0.240986
0.083627 -0.954126 0.595037
0.078947 -0.927261 0.404034
0.073854 -0.902485 0.067033
0.097450 -0.943091 0.549991
0.077523 -0.926359 0.256039
0.111338 -0.920237 0.201937
0.068669 -0.873525 0.045033
0.083582 -0.876479 0.008992
0.131837 -0.930057 0.353886
0.127443 -0.925174 0.211903
0.111619 -0.951059 0.562974
0.069760 -0.919395 0.314077
0.119796 -0.908347 -0.003075
0.120055 -0.911302 0.078928
0.061663 -0.875614 0.000076
0.101109 -0.909377 0.099982
0.127571 -0.950019 0.533935
0.082846 -0.920340 0.329047
0.077119 -0.892487 0.118049
0.093796 -0.884468 0.016996
0.107806 -0.878416 0.014961
0.061292 -0.909565 0.134113
0.103686 -0.949142 0.555016
0.097961 -0.923288 0.341018
0.070885 -0.880580 0.033072
0.121755 -0.950058 0.570968
0.117033 -0.930200 0.349970
0.098119 -0.933278 0.372028
0.080802 -0.951254 0.576092
0.111259 -0.913371 0.097982
0.086865 -0.880528 0.013033
0.087091 -0.882488 0.087035
0.067029 -0.873586 0.078088
0.075149 -0.924387 0.386095
0.092641 -0.917396 0.219041
0.072541 -0.913506 0.189097
0.056476 -0.909589 0.172141
0.061829 -0.944347 0.587147
0.058200 -0.922463 0.401146
0.110620 -0.921331 0.198995
0.072751 -0.923485 0.239106
0.119354 -0.962010 0.737996
0.059649 -0.938395 0.528153
0.075726 -0.942314 0.547111
0.047955 -0.866706 0.044149
0.048012 -0.866695 0.064149
0.110117 -0.927262 0.353006
0.086555 -0.901451 0.197059
0.054788 -0.917568 0.253159
0.066028 -0.900648 0.008120
0.104751 -0.922379 0.212030
0.088865 -0.945287 0.558094
0.097120 -0.904537 -0.001948
0.043056 -0.889784 -0.000802
0.047076 -0.918613 0.311203
0.078407 -0.902574 0.100106
0.096371 -0.905505 0.079059
0.062162 -0.923541 0.328166
0.103851 -0.946255 0.532063
0.055386 -0.882679 0.116166
0.073107 -0.881646 0.018116
0.092262 -0.906571 0.016083
0.080931 -0.942369 0.551134
0.101015 -0.949269 0.569081
0.036438 -0.874774 0.129225
0.076291 -0.926498 0.341143
0.052297 -0.897753 0.033196
0.094322 -0.926415 0.349094
0.073335 -0.916508 0.365151
0.058022 -0.941484 0.569207
0.083409 -0.876591 0.095105
0.054444 -0.924590 0.386210
0.065379 -0.874678 0.087155
0.064140 -0.867718 0.013155
0.041095 -0.943563 0.585259
0.046353 -0.872773 0.077209
0.049769 -0.897708 0.185212
0.037484 -0.921668 0.399260
0.034776 -0.905787 0.170260
0.070985 -0.920599 0.220166
0.051021 -0.916684 0.237221
0.086911 -0.913542 0.198122
0.031948 -0.891773 0.246266
0.036902 -0.931626 0.522272
0.096689 -0.968256 0.742124
0.052995 -0.938546 0.542231
0.088398 -0.924470 0.351125
0.028331 -0.866873 0.063265
0.027273 -0.863890 0.043269
0.066932 -0.912640 0.199181
0.041185 -0.863844 0.009231
0.080995 -0.908588 0.209151
0.068153 -0.947501 0.557208
0.020222 -0.856969 -0.000696
0.074425 -0.896725 0.000175
0.025356 -0.913821 0.308319
0.057749 -0.905760 0.101226
0.070552 -0.874713 0.078179
0.039419 -0.913756 0.324284
0.034702 -0.880866 0.116284
0.050390 -0.868837 0.019237
0.077049 -0.926514 0.521192
0.079269 -0.945490 0.566196
0.016766 -0.876956 0.129340
0.058220 -0.940601 0.549256
0.055571 -0.924698 0.339256
0.064438 -0.868788 0.017208
0.028463 -0.863947 0.033306
0.051584 -0.907716 0.362265
0.036307 -0.940709 0.568323
0.020350 -0.940778 0.582367
0.032700 -0.916801 0.383324
0.069601 -0.916647 0.346223
0.016720 -0.912871 0.395367
0.044683 -0.870863 0.086272
0.043448 -0.862898 0.013272
0.062731 -0.875778 0.095225
0.025663 -0.868958 0.077326
0.030173 -0.913897 0.186333
0.013061 -0.898985 0.167376
0.048259 -0.911805 0.218285
0.029318 -0.912886 0.236338
0.068716 -0.929663 0.352238
0.008634 -0.864051 0.062377
0.031264 -0.935769 0.538346
0.013402 -0.917959 0.252386
0.066285 -0.922737 0.200244
0.010739 -0.896050 0.044385
0.014167 -0.925859 0.516390
0.045209 -0.905837 0.197297
0.071960 -0.963517 0.739251
0.020501 -0.860025 0.008349
0.060297 -0.907780 0.208266
0.046442 -0.947725 0.556323
0.011963 -0.956822 0.731422
-0.000455 -0.853151 -0.001578
0.050650 -0.872917 0.002292
0.004692 -0.919023 0.308434
0.033959 -0.880961 0.100341
0.018713 -0.912958 0.322396
0.049896 -0.875899 0.080299
0.014015 -0.878054 0.116399
0.030720 -0.870012 0.019351
0.057543 -0.943712 0.564310
0.056423 -0.937731 0.528312
0.036493 -0.937824 0.547369
0.044751 -0.866960 0.018321
-0.003919 -0.874147 0.129455
0.032814 -0.912913 0.334371
0.009844 -0.876118 0.033420
0.015567 -0.937923 0.566430
-0.000405 -0.935994 0.578473
0.028856 -0.898936 0.359384
-0.004012 -0.908077 0.392476
0.042012 -0.867961 0.095339
0.010974 -0.911014 0.380437
0.025042 -0.877044 0.087389
0.005954 -0.864135 0.076436
0.047925 -0.917859 0.347342
0.022782 -0.861080 0.014391
0.007356 -0.888100 0.181442
0.027574 -0.911998 0.219398
0.009672 -0.922074 0.238449
0.046961 -0.920869 0.348350
-0.007609 -0.901178 0.166489
-0.007320 -0.913154 0.250494
0.009516 -0.929992 0.533457
-0.012062 -0.858238 0.060491
0.024531 -0.907030 0.197411
-0.007573 -0.920083 0.511502
-0.010981 -0.884240 0.043498
0.041514 -0.901954 0.197365
0.000837 -0.861201 0.008462
0.048247 -0.961771 0.738372
0.040651 -0.915966 0.210379
0.024644 -0.935945 0.547430
-0.020133 -0.851326 -0.002467
0.013261 -0.876148 0.100454
0.028949 -0.863102 0.004409
-0.001982 -0.913159 0.321507
-0.018043 -0.908241 0.303549
-0.003512 -0.910224 0.120511
0.028190 -0.867091 0.080417
0.035762 -0.933932 0.558419
0.010064 -0.870195 0.020468
0.012053 -0.903112 0.330477
-0.023629 -0.869328 0.128562
0.025091 -0.869135 0.019435
0.013716 -0.925054 0.541481
0.032719 -0.933972 0.526434
-0.009800 -0.882295 0.033532
-0.021174 -0.928211 0.573576
-0.006172 -0.933149 0.562540
-0.023690 -0.913275 0.394582
-0.008710 -0.915211 0.382544
0.009250 -0.914136 0.365498
0.022371 -0.874143 0.096454
0.004323 -0.868230 0.086500
-0.013713 -0.866316 0.075547
0.003123 -0.863255 0.014503
0.025196 -0.909076 0.344459
-0.012267 -0.900287 0.182554
0.025225 -0.913078 0.346461
-0.012033 -0.917277 0.237560
-0.029454 -0.868375 0.160594
0.005903 -0.912201 0.219513
-0.028047 -0.906350 0.248600
-0.011218 -0.927206 0.530563
0.003804 -0.900221 0.195519
-0.031720 -0.861417 0.059602
-0.031713 -0.871423 0.042606
-0.029283 -0.918308 0.508613
0.021921 -0.918144 0.201480
-0.018848 -0.858375 0.008571
0.016773 -0.879174 0.203488
0.002854 -0.923166 0.540537
-0.039820 -0.847501 -0.003358
-0.022666 -0.915361 0.320615
0.016026 -0.933137 0.557521
-0.006310 -0.895332 0.102570
0.008291 -0.862284 0.005525
-0.038714 -0.912442 0.302658
-0.026339 -0.877425 0.116620
-0.008557 -0.882363 0.021576
0.007543 -0.869280 0.081533
-0.007561 -0.918309 0.334587
-0.040883 -0.931418 0.574676
-0.043205 -0.889512 0.130673
0.004407 -0.864317 0.020548
-0.007973 -0.926280 0.542594
-0.026910 -0.929365 0.560643
-0.030533 -0.868477 0.033639
0.009996 -0.928203 0.524549
-0.043408 -0.912472 0.393683
-0.029423 -0.912416 0.381650
-0.011408 -0.920341 0.367608
-0.015389 -0.862408 0.085607
0.001704 -0.873332 0.097567
0.004475 -0.905279 0.342567
-0.016542 -0.864431 0.014613
-0.034404 -0.860504 0.074658
-0.047775 -0.901538 0.246701
-0.032740 -0.913471 0.237665
-0.034024 -0.883488 0.178664
0.003528 -0.910289 0.346574
-0.014798 -0.909394 0.219620
-0.049013 -0.892561 0.163704
-0.032943 -0.923432 0.526672
-0.017960 -0.883421 0.191628
-0.051479 -0.852599 0.041708
-0.051431 -0.853596 0.058708
0.000217 -0.912343 0.201591
-0.038542 -0.853550 0.007678
-0.050986 -0.917533 0.505723
-0.017873 -0.921382 0.537643
-0.001755 -0.908359 0.209600
-0.055302 -0.939554 0.709750
-0.058505 -0.846668 -0.004255
-0.004777 -0.920350 0.549622
-0.043399 -0.908562 0.317719
-0.027017 -0.888518 0.102677
-0.011370 -0.863459 0.006634
-0.059443 -0.905643 0.299761
-0.046049 -0.871607 0.116724
-0.009987 -0.900447 0.085639
-0.030332 -0.856551 0.022686
-0.060725 -0.912628 0.562771
-0.061923 -0.886685 0.129770
-0.028315 -0.908509 0.330690
-0.028732 -0.918495 0.538697
-0.063129 -0.910670 0.392781
-0.047649 -0.924581 0.558745
-0.016304 -0.853499 0.021658
-0.011684 -0.930427 0.526660
-0.051115 -0.883662 0.034752
-0.050110 -0.913622 0.382754
-0.032132 -0.915545 0.366711
-0.066597 -0.879718 0.241794
-0.017997 -0.869511 0.097673
-0.016283 -0.894480 0.338672
-0.034952 -0.883591 0.087717
-0.036242 -0.858605 0.014718
-0.054085 -0.858684 0.074764
-0.053772 -0.871673 0.176765
-0.053519 -0.895667 0.233768
-0.068711 -0.891745 0.161805
-0.053683 -0.918647 0.522774
-0.018155 -0.909502 0.346686
-0.036490 -0.904598 0.219730
-0.070149 -0.855769 0.041809
-0.070123 -0.852767 0.057808
-0.037606 -0.891608 0.192733
-0.071728 -0.911749 0.500825
-0.058225 -0.849726 0.007785
-0.021493 -0.904544 0.201700
-0.038599 -0.918598 0.535746
-0.022466 -0.903552 0.208705
-0.024429 -0.931558 0.555723
-0.063109 -0.907755 0.316818
-0.078156 -0.849844 -0.005150
-0.064786 -0.862780 0.115821
-0.031075 -0.855633 0.008739
-0.080132 -0.905844 0.298864
-0.047677 -0.889707 0.103784
-0.080434 -0.914836 0.563868
-0.080730 -0.862861 0.126865
-0.032811 -0.864647 0.084751
-0.049928 -0.871729 0.022793
-0.049142 -0.883712 0.322793
-0.067388 -0.921789 0.557841
-0.082868 -0.904868 0.390878
-0.068868 -0.907809 0.379846
-0.050410 -0.920722 0.540804
-0.069929 -0.856830 0.033847
-0.035942 -0.858676 0.022766
-0.033432 -0.921651 0.523766
-0.034916 -0.909669 0.344769
-0.036582 -0.891687 0.099773
-0.087169 -0.902916 0.247897
-0.054658 -0.879772 0.087817
-0.053864 -0.906761 0.364818
-0.072322 -0.877849 0.229861
-0.072463 -0.874852 0.176861
-0.072772 -0.860857 0.073862
-0.055931 -0.854783 0.015822
-0.073444 -0.912855 0.518869
-0.088496 -0.871933 0.157904
-0.056216 -0.899785 0.219827
-0.057366 -0.878796 0.190832
-0.089848 -0.849950 0.040911
-0.039866 -0.903717 0.346793
-0.089814 -0.848949 0.056911
-0.057338 -0.918796 0.535836
-0.076914 -0.848895 0.007882
-0.092447 -0.909966 0.498924
-0.042181 -0.900739 0.208803
-0.043139 -0.908749 0.203808
-0.045160 -0.928777 0.554821
-0.096841 -0.850012 -0.006054
-0.084332 -0.892961 0.119918
-0.083881 -0.891962 0.310918
-0.066476 -0.868880 0.102877
-0.100124 -0.921046 0.567959
-0.100865 -0.897050 0.294963
-0.067768 -0.900899 0.327884
-0.051738 -0.852819 0.009847
-0.068615 -0.872897 0.022887
-0.101356 -0.872054 0.127967
-0.101670 -0.889063 0.383968
-0.052354 -0.891830 0.087851
-0.088091 -0.923010 0.558937
-0.070163 -0.914932 0.538897
-0.088635 -0.852002 0.033942
-0.089578 -0.904020 0.379944
-0.055500 -0.882855 0.022866
-0.073336 -0.882942 0.087910
-0.055594 -0.910874 0.345869
-0.073535 -0.911958 0.367911
-0.106885 -0.898106 0.245990
-0.057268 -0.886875 0.099875
-0.056100 -0.922890 0.525872
-0.074579 -0.861950 0.015917
-0.092906 -0.896046 0.234960
-0.092169 -0.869040 0.174959
-0.093317 -0.887041 0.074961
-0.094157 -0.910074 0.516966
-0.076003 -0.878975 0.215924
-0.076991 -0.890982 0.192928
-0.110077 -0.888133 0.160006
-0.059538 -0.907913 0.349888
-0.108547 -0.844122 0.041006
-0.078049 -0.917015 0.534933
-0.095591 -0.849063 0.006977
-0.109488 -0.846131 0.056010
-0.062019 -0.870926 0.202900
-0.062872 -0.899934 0.202903
-0.114159 -0.904195 0.495025
-0.063930 -0.921974 0.551909
-0.116519 -0.845189 -0.006955
-0.104517 -0.901164 0.314014
-0.119870 -0.915258 0.565049
-0.105000 -0.892151 0.120016
-0.086183 -0.860064 0.102976
-0.069453 -0.846978 0.011938
-0.088424 -0.906103 0.329981
-0.122276 -0.905268 0.392061
-0.107816 -0.921219 0.559027
-0.120661 -0.873251 0.287060
-0.088372 -0.850076 0.023988
-0.072047 -0.888009 0.088947
-0.121975 -0.883243 0.129063
-0.090853 -0.916151 0.540992
-0.108399 -0.881215 0.371036
-0.074331 -0.907059 0.343957
-0.074322 -0.851023 0.023962
-0.108307 -0.849181 0.034041
-0.093313 -0.896158 0.363006
-0.076065 -0.863048 0.098970
-0.093094 -0.863125 0.086009
-0.111659 -0.884229 0.233050
-0.127562 -0.897305 0.247086
-0.093321 -0.846121 0.016013
-0.076833 -0.916108 0.524969
-0.113001 -0.885220 0.075055
-0.111879 -0.861229 0.173056
-0.114840 -0.913291 0.518059
-0.095683 -0.879164 0.217019
-0.096683 -0.889169 0.193021
-0.129787 -0.881320 0.158100
-0.097789 -0.912224 0.532024
-0.127239 -0.840294 0.040100
-0.081228 -0.903129 0.349990
-0.081571 -0.898112 0.208991
-0.129139 -0.850310 0.055106
-0.115274 -0.842242 0.007077
-0.083544 -0.899130 0.205000
-0.083667 -0.918183 0.550000
-0.134885 -0.897415 0.491120
-0.139592 -0.913469 0.565137
-0.123342 -0.874358 0.305108
-0.136187 -0.842366 -0.007858
-0.123783 -0.868331 0.118110
-0.105849 -0.860247 0.104072
-0.089959 -0.880159 0.013033
-0.108122 -0.906298 0.330071
-0.127567 -0.913431 0.556116
-0.142008 -0.898470 0.389151
-0.140343 -0.874446 0.287152
-0.107066 -0.845247 0.024081
-0.090873 -0.855185 0.088044
-0.139770 -0.858417 0.126154
-0.128072 -0.885414 0.374126
-0.111541 -0.917370 0.544085
-0.094048 -0.903256 0.343049
-0.093018 -0.846193 0.024056
-0.126994 -0.846352 0.034133
-0.094766 -0.859222 0.099062
-0.113963 -0.902364 0.367099
-0.111811 -0.854300 0.086102
-0.146315 -0.884491 0.244175
-0.133270 -0.895433 0.236145
-0.097556 -0.910327 0.524064
-0.112975 -0.847298 0.016110
-0.131537 -0.865416 0.174148
-0.130832 -0.849394 0.072150
-0.116367 -0.889355 0.193112
-0.135568 -0.906511 0.515153
-0.117514 -0.909433 0.531113
-0.116354 -0.877364 0.218117
-0.101280 -0.893300 0.208083
-0.148568 -0.856507 0.153196
-0.147863 -0.846480 0.040196
-0.102397 -0.917382 0.551084
-0.101936 -0.897337 0.349086
-0.134908 -0.850416 0.006169
-0.148816 -0.846492 0.054201
-0.104268 -0.886329 0.204099
-0.154634 -0.887627 0.485212
-0.159325 -0.909681 0.563223
-0.143043 -0.870556 0.304200
-0.155830 -0.848539 -0.008768
-0.126437 -0.878433 0.106162
-0.145369 -0.885525 0.120202
-0.161707 -0.898669 0.390237
-0.108755 -0.849333 0.014132
-0.128834 -0.899505 0.328166
-0.148283 -0.909654 0.555207
-0.159431 -0.862599 0.126243
-0.126722 -0.845425 0.025177
-0.110540 -0.854368 0.089139
-0.161038 -0.868653 0.284248
-0.113751 -0.901453 0.344138
-0.149691 -0.896629 0.380218
-0.132279 -0.908593 0.541178
-0.112653 -0.852370 0.025150
-0.146664 -0.842533 0.035228
-0.165998 -0.886680 0.244261
-0.130518 -0.847476 0.085194
-0.114449 -0.854407 0.100158
-0.133713 -0.889567 0.364192
-0.152981 -0.889625 0.235235
-0.149519 -0.847567 0.072239
-0.132636 -0.846476 0.016204
-0.154097 -0.887620 0.177240
-0.119238 -0.909557 0.526160
-0.135116 -0.876537 0.190203
-0.155297 -0.902720 0.512240
-0.138214 -0.908653 0.531204
-0.136064 -0.869557 0.217210
-0.120016 -0.884481 0.207172
-0.166550 -0.844651 0.039285
-0.122143 -0.910594 0.548173
-0.168246 -0.855694 0.152287
-0.153602 -0.844586 0.006259
-0.122620 -0.895545 0.351180
-0.168486 -0.844673 0.053294
-0.124014 -0.869523 0.202197
-0.178231 -0.900867 0.492307
-0.179051 -0.906894 0.562307
-0.164642 -0.887762 0.309287
-0.162180 -0.856694 0.118293
-0.167991 -0.910863 0.557290
-0.148542 -0.896701 0.327253
-0.145197 -0.856615 0.105258
-0.128391 -0.855509 0.016222
-0.175509 -0.841718 -0.009673
-0.181437 -0.890874 0.387325
-0.145397 -0.845595 0.026264
-0.178156 -0.848783 0.125335
-0.133464 -0.897650 0.343226
-0.130216 -0.850552 0.090234
-0.169399 -0.893830 0.380304
-0.181711 -0.867858 0.284340
-0.152973 -0.908813 0.543267
-0.132302 -0.855547 0.026241
-0.166314 -0.846710 0.035317
-0.186669 -0.887879 0.245348
-0.133151 -0.848584 0.100249
-0.152485 -0.872765 0.359283
-0.150193 -0.843661 0.085288
-0.172681 -0.885817 0.235322
-0.152289 -0.848653 0.017294
-0.169195 -0.843751 0.071332
-0.156977 -0.899855 0.527288
-0.154812 -0.871728 0.190293
-0.174772 -0.885816 0.177331
-0.175043 -0.892934 0.508330
-0.139974 -0.899780 0.523255
-0.157644 -0.889757 0.223295
-0.140895 -0.904796 0.546256
-0.138778 -0.866667 0.204265
-0.185255 -0.833828 0.038377
-0.190836 -0.870897 0.154377
-0.188147 -0.847850 0.052380
-0.174240 -0.847770 0.005352
-0.143329 -0.887757 0.350274
-0.145588 -0.889723 0.208282
-0.198773 -0.905105 0.562389
-0.197987 -0.888082 0.485397
-0.185315 -0.889965 0.310373
-0.201130 -0.893072 0.389406
-0.181848 -0.858877 0.118378
-0.168245 -0.894897 0.327338
-0.165821 -0.866802 0.107344
-0.189666 -0.913093 0.561377
-0.195172 -0.841893 -0.010585
-0.148066 -0.850688 0.017316
-0.153159 -0.897847 0.344310
-0.201709 -0.873986 0.128420
-0.189104 -0.892031 0.381388
-0.165075 -0.838777 0.026359
-0.149872 -0.852735 0.092323
-0.203340 -0.879064 0.287424
-0.173694 -0.902037 0.542357
-0.151005 -0.846721 0.027332
-0.185985 -0.843890 0.035407
-0.203467 -0.864058 0.240436
-0.152809 -0.850767 0.101338
-0.175061 -0.892984 0.368367
-0.191412 -0.876004 0.234408
-0.169853 -0.844843 0.086377
-0.170972 -0.846823 0.017380
-0.188855 -0.846930 0.071418
-0.177666 -0.901075 0.529374
-0.193499 -0.876997 0.175415
-0.173538 -0.861912 0.188382
-0.160608 -0.904007 0.547339
-0.196712 -0.896161 0.510417
-0.157479 -0.864848 0.204349
-0.161617 -0.907009 0.531341
-0.177356 -0.880951 0.223385
-0.205888 -0.841011 0.038463
-0.211503 -0.871091 0.154463
-0.207822 -0.845031 0.051468
-0.193909 -0.844948 0.005441
-0.164970 -0.893972 0.354362
-0.218491 -0.904316 0.563468
-0.166264 -0.887922 0.209371
-0.218679 -0.888299 0.486481
-0.220843 -0.889275 0.389488
-0.201523 -0.858061 0.119464
-0.208423 -0.905298 0.558457
-0.206006 -0.887171 0.309460
-0.187960 -0.889097 0.326423
-0.170919 -0.888030 0.342391
-0.184537 -0.855982 0.107433
-0.213860 -0.837062 -0.011499
-0.166753 -0.846859 0.018402
-0.208814 -0.888233 0.381471
-0.221399 -0.871170 0.127504
-0.185697 -0.847960 0.027444
-0.169545 -0.849919 0.093413
-0.194390 -0.902258 0.544440
-0.225003 -0.880275 0.287511
-0.170665 -0.846900 0.028419
-0.225099 -0.875259 0.243516
-0.171503 -0.846944 0.101424
-0.203703 -0.832060 0.035495
-0.212074 -0.880200 0.236490
-0.188538 -0.844017 0.086460
-0.195745 -0.892194 0.370453
-0.196409 -0.896276 0.527453
-0.180312 -0.905217 0.550418
-0.189666 -0.839996 0.017468
-0.207553 -0.840107 0.070504
-0.213194 -0.873185 0.174500
-0.193217 -0.862100 0.188466
-0.216441 -0.890373 0.508500
-0.197043 -0.881141 0.224466
-0.180051 -0.885055 0.210430
-0.183299 -0.906240 0.534429
-0.223605 -0.829181 0.037550
-0.212594 -0.843117 0.005523
-0.232180 -0.867287 0.153551
-0.226520 -0.837208 0.050555
-0.185653 -0.892182 0.357449
-0.237254 -0.892527 0.559550
-0.186931 -0.889119 0.211455
-0.240366 -0.886527 0.485567
-0.241532 -0.889483 0.390568
-0.207668 -0.885295 0.325506
-0.228161 -0.897515 0.556540
-0.190614 -0.888227 0.343472
-0.222180 -0.859253 0.120548
-0.225722 -0.879371 0.307545
-0.233526 -0.837237 -0.012416
-0.205185 -0.859173 0.109518
-0.186418 -0.844040 0.020490
-0.241090 -0.866357 0.127587
-0.229506 -0.885445 0.382555
-0.204388 -0.842133 0.028529
-0.192118 -0.870117 0.096492
-0.213143 -0.893465 0.542521
-0.189350 -0.845070 0.028502
-0.223361 -0.836236 0.035575
-0.245695 -0.874483 0.286598
-0.190198 -0.842122 0.101509
-0.246755 -0.877466 0.245599
-0.229823 -0.866383 0.234573
-0.207235 -0.838195 0.085546
-0.199060 -0.899421 0.548497
-0.217110 -0.894498 0.528536
-0.216438 -0.888406 0.371538
-0.214842 -0.873299 0.191544
-0.226244 -0.836282 0.070587
-0.233865 -0.873380 0.174582
-0.210312 -0.840182 0.017556
-0.199753 -0.880246 0.209514
-0.237142 -0.888593 0.508582
-0.217723 -0.877343 0.225552
-0.204022 -0.897467 0.533518
-0.246208 -0.843373 0.037630
-0.257948 -0.895745 0.562625
-0.232268 -0.838296 0.004610
-0.249919 -0.853465 0.150635
-0.245214 -0.829385 0.049641
-0.206349 -0.887393 0.357535
-0.206638 -0.880314 0.212542
-0.260264 -0.883678 0.389645
-0.248857 -0.898736 0.560616
-0.228345 -0.887498 0.327584
-0.261072 -0.882747 0.484649
-0.246402 -0.880574 0.308624
-0.210327 -0.882428 0.342555
-0.245777 -0.873459 0.122628
-0.205100 -0.842210 0.021571
-0.226816 -0.866368 0.111598
-0.250255 -0.822399 -0.013331
-0.260779 -0.863541 0.127666
-0.248243 -0.876642 0.380635
-0.222102 -0.831303 0.028615
-0.207906 -0.844282 0.096582
-0.234816 -0.895696 0.547602
-0.208882 -0.842297 0.102588
-0.265474 -0.872650 0.244675
-0.217794 -0.896624 0.549571
-0.209020 -0.841252 0.029589
-0.244991 -0.841427 0.035658
-0.235850 -0.889700 0.527612
-0.267363 -0.875692 0.286679
-0.227879 -0.843382 0.086626
-0.252455 -0.872596 0.237655
-0.236152 -0.882609 0.371619
-0.235512 -0.874494 0.192624
-0.228018 -0.834346 0.017636
-0.219442 -0.879435 0.210593
-0.257837 -0.889809 0.510658
-0.245919 -0.832466 0.069672
-0.252587 -0.862565 0.172666
-0.237422 -0.872536 0.225634
-0.225700 -0.897698 0.537600
-0.276699 -0.886954 0.560702
-0.261961 -0.822536 0.036717
-0.252915 -0.843475 0.004687
-0.272549 -0.861668 0.151713
-0.267832 -0.837582 0.048722
-0.226061 -0.880598 0.358618
-0.227316 -0.877514 0.213625
-0.281934 -0.886894 0.393720
-0.268585 -0.893951 0.560693
-0.230020 -0.884624 0.344629
-0.248055 -0.883696 0.326662
-0.268070 -0.882784 0.309702
-0.282761 -0.879975 0.484732
-0.266449 -0.872650 0.123706
-0.247478 -0.869556 0.112675
-0.224765 -0.841389 0.022653
-0.266973 -0.806564 -0.013244
-0.269907 -0.880858 0.384711
-0.276544 -0.843708 0.125749
-0.241764 -0.832480 0.029694
-0.236533 -0.891828 0.549646
-0.254545 -0.888913 0.547682
-0.226726 -0.834418 0.030669
-0.233441 -0.868500 0.100658
-0.281254 -0.851825 0.240758
-0.234418 -0.867513 0.105663
-0.261719 -0.829590 0.035738
-0.256552 -0.887922 0.528690
-0.246573 -0.838559 0.086707
-0.272152 -0.868790 0.238732
-0.290018 -0.876911 0.287760
-0.257816 -0.885826 0.375696
-0.238152 -0.876616 0.211667
-0.255208 -0.870684 0.192703
-0.274240 -0.866764 0.173742
-0.247689 -0.829528 0.017721
-0.265593 -0.829650 0.069754
-0.277570 -0.881026 0.507739
-0.254178 -0.858711 0.224713
-0.296418 -0.887164 0.562772
-0.246401 -0.895921 0.540678
-0.283597 -0.827726 0.036795
-0.269646 -0.826641 0.003773
-0.294209 -0.860870 0.151794
-0.288494 -0.836768 0.047802
-0.247723 -0.882816 0.362696
-0.247009 -0.874706 0.215702
-0.300672 -0.878092 0.391797
-0.249723 -0.882823 0.345704
-0.288313 -0.889166 0.560768
-0.267764 -0.878896 0.326740
-0.287783 -0.875985 0.308780
-0.278290 -0.837796 0.119793
-0.263245 -0.849720 0.111758
-0.303468 -0.876195 0.483809
-0.243456 -0.833565 0.023737
-0.289618 -0.876063 0.385787
-0.296229 -0.840894 0.125826
-0.288606 -0.812749 -0.015166
-0.261431 -0.832659 0.030772
-0.256252 -0.890041 0.550720
-0.275247 -0.887137 0.550758
-0.247252 -0.839654 0.099745
-0.247372 -0.837603 0.031748
-0.247248 -0.835661 0.103750
-0.304878 -0.862041 0.244831
-0.275292 -0.882126 0.527764
-0.282374 -0.831774 0.035816
-0.292831 -0.870986 0.240804
-0.265267 -0.833737 0.086785
-0.256869 -0.870800 0.210743
-0.277527 -0.881030 0.376772
-0.275885 -0.871877 0.192777
-0.310713 -0.871118 0.286839
-0.263426 -0.816684 0.018800
-0.298273 -0.880243 0.508813
-0.287234 -0.834842 0.069830
-0.294920 -0.862962 0.173821
-0.276815 -0.863924 0.227790
-0.317127 -0.885387 0.564844
-0.303273 -0.826904 0.035871
-0.267114 -0.889150 0.541759
-0.291283 -0.831827 0.003849
-0.308003 -0.835029 0.147877
-0.267437 -0.875023 0.362777
-0.268445 -0.879014 0.346776
-0.267687 -0.872906 0.217780
-0.309018 -0.888389 0.564839
-0.320390 -0.871299 0.390873
-0.287472 -0.875095 0.326814
-0.299937 -0.843990 0.121864
-0.309459 -0.876196 0.309855
-0.278999 -0.830888 0.111842
-0.309329 -0.874263 0.386858
-0.261160 -0.825734 0.024817
-0.275966 -0.890252 0.553789
-0.326145 -0.874432 0.484888
-0.308275 -0.810925 -0.016088
-0.278155 -0.818825 0.030855
-0.317885 -0.841093 0.125904
-0.295991 -0.884343 0.530833
-0.270850 -0.853859 0.102816
-0.296935 -0.886370 0.554833
-0.265940 -0.831840 0.104827
-0.264100 -0.821771 0.031834
-0.303035 -0.831959 0.035892
-0.284944 -0.832919 0.086861
-0.306636 -0.844151 0.235889
-0.277545 -0.870997 0.212817
-0.295584 -0.867068 0.192852
-0.299204 -0.881248 0.379847
-0.330423 -0.865316 0.285914
-0.285060 -0.823871 0.018874
-0.303962 -0.824007 0.068907
-0.318981 -0.876464 0.508888
-0.315602 -0.862156 0.173894
-0.336857 -0.880602 0.564915
-0.293565 -0.848104 0.226872
-0.287822 -0.884377 0.543837
-0.324921 -0.827097 0.035949
-0.308990 -0.821995 0.002928
-0.288154 -0.876213 0.346848
-0.288123 -0.874234 0.366850
-0.340104 -0.868500 0.391942
-0.329730 -0.885613 0.566910
-0.288367 -0.870107 0.219856
-0.309144 -0.878305 0.329884
-0.294704 -0.887455 0.554856
-0.318639 -0.836172 0.121942
-0.330155 -0.873401 0.309928
-0.300646 -0.836083 0.112914
-0.329043 -0.868470 0.387931
-0.286726 -0.845942 0.025883
-0.345871 -0.866646 0.482964
-0.297824 -0.817006 0.031931
-0.336591 -0.834274 0.124979
-0.315714 -0.880556 0.531903
-0.325973 -0.801093 -0.017008
-0.288568 -0.844034 0.103893
-0.317644 -0.883595 0.556905
-0.288565 -0.842038 0.105896
-0.286717 -0.833962 0.032901
-0.296260 -0.865182 0.212890
-0.323699 -0.832143 0.035965
-0.304624 -0.829104 0.086938
-0.318918 -0.875454 0.380920
-0.316268 -0.864265 0.192927
-0.301778 -0.811037 0.018955
-0.351119 -0.859523 0.284990
-0.338708 -0.870678 0.507960
-0.327583 -0.833208 0.068977
-0.357572 -0.878824 0.566983
-0.315224 -0.853306 0.229939
-0.328406 -0.834311 0.169979
-0.310487 -0.888616 0.551906
-0.342631 -0.819265 0.035023
-0.330637 -0.825182 0.003000
-0.306879 -0.870407 0.347919
-0.351428 -0.885843 0.570978
-0.327873 -0.871497 0.328955
-0.308819 -0.867451 0.367930
-0.305118 -0.853288 0.218938
-0.313444 -0.881662 0.555925
-0.350852 -0.869607 0.310999
-0.320329 -0.833269 0.113987
-0.341284 -0.839376 0.123014
-0.347773 -0.859670 0.387005
-0.335440 -0.875770 0.531973
-0.315525 -0.809177 0.033008
-0.356281 -0.830460 0.125051
-0.307267 -0.838214 0.104968
-0.359467 -0.836333 -0.019949
-0.337370 -0.877814 0.558976
-0.308248 -0.839223 0.106969
-0.308362 -0.839150 0.033970
-0.317927 -0.866386 0.214961
-0.321349 -0.817274 0.087016
-0.342394 -0.824320 0.036041
-0.330059 -0.842423 0.190006
-0.339617 -0.871667 0.382992
-0.379272 -0.879053 0.572048
-0.319477 -0.803206 0.019032
-0.352043 -0.843519 0.172043
-0.367870 -0.842708 0.281069
-0.328555 -0.873619 0.350984
-0.359346 -0.805435 0.035103
-0.332185 -0.883854 0.554981
-0.372032 -0.881462 0.001044
-0.371161 -0.879063 0.572048
-0.350540 -0.874715 0.332021
-0.330495 -0.868668 0.371998
-0.334153 -0.880884 0.558991
-0.382036 -0.856567 0.046090
-0.357030 -0.825541 0.122088
-0.336070 -0.817437 0.114067
-0.322143 -0.828282 0.029034
-0.357136 -0.874999 0.535041
-0.409548 -0.912818 0.136080
-0.342103 -0.826392 0.034071
-0.323993 -0.826386 0.107044
-0.327057 -0.833325 0.035042
-0.360051 -0.879054 0.565044
-0.326949 -0.832404 0.107044
-0.329751 -0.839532 0.210042
-0.343990 -0.823471 0.087083
-0.359113 -0.811488 0.036119
-0.346796 -0.829599 0.189082
-0.357362 -0.859862 0.382066
-0.399007 -0.873270 0.572115
-0.343097 -0.812404 0.019098
-0.370755 -0.835704 0.171115
-0.365968 -0.821569 0.068124
-0.347284 -0.868810 0.351050
-0.380017 -0.804618 0.034172
-0.353881 -0.882089 0.560049
-0.367034 -0.809523 0.002148
-0.390895 -0.874278 0.573112
-0.351910 -0.875080 0.559055
-0.370256 -0.867918 0.332091
-0.383943 -0.806661 0.044181
-0.394496 -0.867818 0.129131
-0.353660 -0.859519 0.031083
-0.358713 -0.821640 0.116134
-0.345651 -0.829580 0.108110
-0.355861 -0.806544 0.034152
-0.347621 -0.833593 0.109109
-0.381751 -0.878287 0.570108
-0.405375 -0.843025 0.247182
-0.343780 -0.820492 0.035120
-0.373399 -0.845825 0.193137
-0.362686 -0.815652 0.087157
-0.377803 -0.803667 0.036194
-0.421704 -0.872509 0.576179
-0.370676 -0.829621 0.019157
-0.395537 -0.840801 0.069181
-0.394417 -0.836925 0.172183
-0.368001 -0.868021 0.353111
-0.368698 -0.863281 0.556122
-0.411628 -0.869512 0.576177
-0.380122 -0.839062 0.323169
-0.375595 -0.877334 0.564118
-0.357562 -0.808635 0.032185
-0.363377 -0.820762 0.108182
-0.377529 -0.808741 0.035216
-0.404453 -0.878535 0.576169
-0.416197 -0.816181 0.242262
-0.392988 -0.895920 0.117133
-0.402973 -0.921870 0.038115
-0.442688 -0.913341 0.264182
-0.423886 -0.918047 0.096150
-0.388173 -0.826999 0.190215
-0.408183 -0.819084 0.169258
-0.389091 -0.820074 0.232232
-0.403772 -0.842292 0.327233
-0.396303 -0.871567 0.567187
-0.377236 -0.805819 0.033255
-0.381172 -0.808854 0.037261
-0.438859 -0.815399 0.243330
-0.427799 -0.824353 0.243306
-0.404046 -0.814038 0.088288
-0.410830 -0.829210 0.192278
-0.479086 -0.896958 0.514280
-0.442275 -0.847799 0.512301
-0.423608 -0.849356 0.242275
-0.426883 -0.810275 0.169331
-0.452625 -0.823563 0.282352
-0.494025 -0.907961 0.428294
-0.417999 -0.868807 0.572251
-0.424353 -0.877398 0.240250
-0.469092 -0.880855 0.415305
-0.412500 -0.837331 0.216297
-0.446510 -0.817546 0.244372
-0.466138 -0.903593 0.208279
-0.433248 -0.827692 0.385345
-0.481013 -0.847071 0.491380
-0.464963 -0.846039 0.515364
-0.433417 -0.819505 0.238362
-0.475161 -0.820942 0.393418
-0.491139 -0.851874 0.292394
-0.424284 -0.824490 0.231356
-0.450834 -0.838057 0.534372
-0.476943 -0.846998 0.405391
-0.427257 -0.822499 0.215369
-0.503770 -0.895031 0.331358
-0.477684 -0.873058 0.411366
-0.452128 -0.812699 0.239428
-0.497845 -0.819174 0.397480
-0.443979 -0.817694 0.233425
-0.478422 -0.889131 0.411359
-0.486762 -0.820150 0.397473
-0.448937 -0.822705 0.217427
-0.475633 -0.821139 0.393471
-0.537066 -0.924432 0.368389
-0.506478 -0.813364 0.399536
-0.468458 -0.820164 0.387483
-0.482325 -0.831224 0.358492
-0.496337 -0.816359 0.396533
-0.494108 -0.823418 0.394538
-0.508978 -0.838472 0.364536
