# .PCD v0.7 - Point Cloud Data file format
VERSION 0.7
FIELDS x y z
SIZE 4 4 4
TYPE F F F
COUNT 1 1 1
WIDTH 34
HEIGHT 1
VIEWPOINT 0 0 0 1
POINTS 34
DATA ascii
0.315886 3.730947 2.285344
0.317355 3.630643 2.250117
0.321094 3.667475 2.252165
0.307195 3.744189 2.256806
0.344947 3.613909 2.297789
0.419912 3.840225 2.350464
0.406863 3.701657 2.297396
0.410777 3.726454 2.295538
0.399245 3.779085 2.287383
0.443929 3.724180 2.370856
0.375851 3.512773 2.300156
0.394614 3.836864 2.283174
0.401716 3.407670 2.305413
0.470949 3.613980 2.372257
0.491752 3.510874 2.385454
0.517405 2.883588 2.335639
0.515626 2.802259 2.306247
0.527515 2.824586 2.383417
0.519162 2.781997 2.305665
0.602096 2.941462 2.387942
0.512274 2.787657 2.298822
0.589444 2.846988 2.349556
0.515128 2.810559 2.307873
0.586367 2.798523 2.330128
0.568636 2.707034 2.292671
0.653043 2.836302 2.349186
0.582480 2.805229 2.328304
0.589245 2.835223 2.347335
0.584506 2.669032 2.339352
0.657511 2.820115 2.360575
0.666310 2.834479 2.410542
0.655587 2.829875 2.365746
0.657785 2.829670 2.364963
0.661162 2.724872 2.400588
