# .PCD v0.7 - Point Cloud Data file format
VERSION 0.7
FIELDS x y z
SIZE 4 4 4
TYPE F F F
COUNT 1 1 1
WIDTH 35
HEIGHT 1
VIEWPOINT 0 0 0 1
POINTS 35
DATA ascii
3.600721 1.244250 1.903595
3.610744 1.220856 1.858728
3.886195 1.256514 1.317940
3.811061 1.226824 1.256978
3.781824 1.210917 1.990024
3.808900 1.196381 1.943130
3.617575 1.244363 1.824583
4.141372 1.235565 1.399376
4.047231 1.203964 1.322400
4.185316 1.222840 0.761482
3.714726 1.211117 1.775876
3.839879 1.224779 1.152965
3.820724 1.214854 1.914996
3.975973 1.239164 1.270069
4.437543 1.214325 1.494825
4.333424 1.184738 1.401832
3.673409 1.242244 1.765630
4.080051 1.198864 1.213389
3.877619 1.256391 1.173826
3.846655 1.233989 1.045898
3.798639 1.212622 1.686953
4.273202 1.222897 1.358523
3.899582 1.216571 1.860072
4.153822 1.237236 1.247288
4.103816 1.207931 1.104368
4.072843 1.194603 1.793404
4.476012 1.216753 1.335769
3.686405 1.233661 1.565663
3.815386 1.244465 1.765569
3.919267 1.208771 1.648112
4.077610 1.252920 1.190324
4.115976 1.236460 1.887523
4.169557 1.225372 1.052809
4.221942 1.193885 1.759034
4.425406 1.245392 1.278562
