# .PCD v0.7 - Point Cloud Data file format
VERSION 0.7
FIELDS x y z
SIZE 4 4 4
TYPE F F F
COUNT 1 1 1
WIDTH 171
HEIGHT 1
VIEWPOINT 0 0 0 1
POINTS 171
DATA ascii
-2.771916 5.309653 1.385110
-2.726515 5.537964 1.420385
-2.580785 4.947377 1.333982
-2.523731 5.125847 1.364001
-2.595257 4.936162 1.349855
-1.205414 2.662475 1.695948
-2.464858 5.319316 1.396178
-2.540293 5.116573 1.383841
-2.554654 4.847114 1.303081
-1.239171 2.601194 1.686808
-1.101609 2.586273 1.627438
-2.546581 5.084461 1.396636
-2.479390 5.303037 1.418984
-2.483372 5.001702 1.337152
-1.148087 2.553679 1.637307
-1.051962 2.642719 1.643072
-2.390450 5.119619 1.360289
-1.082408 2.562532 1.626815
-1.130569 2.524103 1.615562
-1.019659 2.757652 1.694895
-1.238969 2.620275 1.687347
-1.045534 2.649640 1.664470
-2.301888 5.259421 1.390518
-1.077544 2.558653 1.623047
-0.985499 2.879570 1.750806
-1.144845 2.565774 1.638822
-1.016317 2.764503 1.720217
-1.051296 2.670484 1.678712
-1.077025 2.563659 1.626250
-1.015714 2.767487 1.726411
-1.047567 2.663560 1.677860
-1.016207 2.768455 1.732541
-0.563413 3.903660 1.834839
-0.498400 4.146415 1.945283
-0.544258 4.185401 1.890814
-0.455741 4.298900 1.942507
0.362459 2.945140 0.296098
0.329133 2.925319 0.346351
0.449846 3.034912 0.304384
0.411507 3.009007 0.358487
0.508312 3.142803 0.375282
0.468904 3.114885 0.431356
0.490554 3.060033 0.436241
0.714422 4.003364 0.553146
0.807977 3.990212 0.556537
0.848994 3.974412 0.578055
1.047689 2.393894 2.379710
1.143258 2.513897 2.852291
1.086375 2.338509 2.345776
1.176301 2.514068 2.868782
1.094781 2.280820 2.314370
0.959647 2.007547 2.303889
1.086045 2.451087 2.513682
1.187916 2.404730 2.434886
1.143739 2.530236 2.684272
0.970603 1.975823 2.280761
1.011204 1.995938 2.312547
1.049703 2.240227 2.325211
1.046936 2.191953 2.352744
1.188856 2.480016 3.000522
1.190448 2.476303 2.967506
1.055570 2.020990 2.356438
1.109133 2.490523 2.602276
1.120429 2.463466 2.741215
1.148177 2.305367 2.420254
1.192711 2.719990 2.521436
0.986622 2.137522 2.691319
0.933697 1.865303 2.288126
1.117863 2.202284 2.390870
0.929431 1.852565 2.250943
1.025436 2.178056 2.308193
1.184772 2.477393 3.064312
1.208510 2.502664 2.816846
1.139299 2.521008 2.692891
1.056878 2.320920 2.723903
1.159110 2.503018 2.348962
1.211360 2.457117 3.126513
0.989903 1.864592 2.313938
1.013108 1.904602 2.340640
1.116188 2.230183 2.394982
0.901279 1.807054 2.272047
1.001803 1.982118 2.263074
1.013732 2.126861 2.309474
1.177469 2.456564 3.149913
1.215636 2.511311 2.982928
0.899171 1.753043 2.267531
0.930609 1.765480 2.249092
1.098723 2.166979 2.390057
0.867609 1.739660 2.272893
1.231663 2.423065 3.269384
0.956856 1.898392 2.290599
0.920806 1.701510 2.230372
1.000858 1.793550 2.318356
0.859543 1.635727 2.248845
1.016590 1.910552 2.336562
0.876921 1.663229 2.208334
0.951647 1.706146 2.301792
0.937522 1.605165 2.276677
3.110835 1.533793 3.028655
3.132887 1.514740 3.055679
3.106881 1.439955 2.988517
3.062937 1.392791 2.954484
3.144694 1.577500 3.052248
3.123778 1.484616 2.999949
2.885064 1.037046 2.900945
2.972205 1.046150 2.981985
1.578044 -1.084738 1.600591
1.577718 -1.136009 1.625079
1.547814 -1.188496 1.528452
1.521467 -1.149305 1.595487
1.500553 -1.209817 1.510856
1.363251 -1.081588 1.460873
1.291923 -1.073849 1.412388
1.422259 -1.201381 1.470078
0.572101 -0.767772 1.224252
0.579047 -0.848810 1.229652
0.654580 -0.908715 1.418575
0.581178 -0.830796 1.225813
0.567556 -0.872074 1.244419
0.640113 -0.928930 1.424343
0.630767 -0.938495 1.356218
0.621169 -0.993893 1.393732
0.581613 -0.886764 1.338388
0.552333 -0.894001 1.212180
0.522815 -0.925146 1.197791
0.624314 -0.971790 1.379927
0.599676 -1.006100 1.391535
0.559104 -0.891882 1.324246
0.547878 -0.930320 1.240883
0.519348 -0.953190 1.194563
0.612888 -1.001063 1.395644
0.575200 -1.015293 1.384353
0.539633 -0.904051 1.319068
0.573518 -1.019966 1.340307
0.471770 -0.931510 1.178533
0.537609 -0.926196 1.204886
0.593436 -1.018279 1.396422
0.522125 -0.917241 1.318895
0.557714 -1.034556 1.393128
0.570089 -1.064356 1.378949
1.581800 -3.340670 1.908472
0.577986 -1.041527 1.405173
0.501622 -0.926409 1.312743
0.530209 -1.036709 1.377996
0.477331 -0.947834 1.214462
1.631902 -3.330838 1.972682
0.491509 -0.933486 1.182653
0.548513 -1.042646 1.384048
0.483121 -0.938589 1.310589
0.470563 -0.976493 1.285231
1.537564 -3.310991 1.892331
0.480856 -0.970334 1.271342
0.432956 -0.951473 1.239289
1.597918 -3.322745 1.917434
0.443277 -0.947299 1.223387
1.501459 -3.312316 1.887014
1.576871 -3.342875 1.904045
0.711980 -3.164366 1.692829
0.813192 -3.213391 1.794800
0.619891 -3.071712 1.638243
0.184876 -0.830814 0.347652
0.537969 -3.008106 1.599478
0.781359 -3.159083 1.840107
0.670772 -3.125438 1.647993
0.653474 -2.930031 1.700504
0.164199 -0.829017 0.345657
0.586912 -3.069865 1.611162
0.190275 -0.847018 0.371603
0.630730 -3.123631 1.619881
0.165432 -0.823170 0.359767
0.146749 -0.823362 0.358764
