# .PCD v0.7 - Point Cloud Data file format
VERSION 0.7
FIELDS x y z
SIZE 4 4 4
TYPE F F F
COUNT 1 1 1
WIDTH 17
HEIGHT 1
VIEWPOINT 0 0 0 1
POINTS 17
DATA ascii
4.137623 -2.202103 1.175552
4.055798 -2.206560 1.106205
4.103820 -2.197548 1.114714
3.894889 -2.189698 1.115543
4.051054 -2.207342 0.969846
4.036046 -2.244958 1.674742
4.110102 -2.186994 1.046446
3.862011 -2.186110 1.059739
4.098941 -2.231586 1.557387
3.491251 -1.859479 0.830637
3.792579 -2.226665 1.598729
3.866193 -2.177518 0.998459
3.847477 -2.199287 1.685270
4.057660 -2.226225 1.676392
3.845431 -2.217277 1.485235
3.899413 -2.220925 1.364784
3.802259 -2.206956 1.596224
