# .PCD v0.7 - Point Cloud Data file format
VERSION 0.7
FIELDS x y z
SIZE 4 4 4
TYPE F F F
COUNT 1 1 1
WIDTH 63
HEIGHT 1
VIEWPOINT 0 0 0 1
POINTS 63
DATA ascii
1.308785 2.361260 0.667514
1.419173 2.419643 0.690631
1.519619 2.340522 0.788743
1.496552 2.318314 0.789876
1.731853 2.459122 1.218980
1.491045 2.325771 0.788033
1.499484 2.339087 0.788223
2.394741 2.875887 1.034819
2.621762 3.097866 0.957127
2.404186 2.996053 1.019104
2.223787 2.908726 1.069092
2.432575 2.786006 1.021852
2.334097 2.823452 1.037984
2.652167 2.985212 0.939153
2.439931 2.901203 1.005135
2.272910 2.836603 1.060141
2.321352 2.827250 1.044201
2.389359 2.758288 1.035035
2.469661 2.801479 0.989145
2.314009 2.758623 1.050169
2.367518 2.753222 1.040233
2.318415 2.829024 1.050451
2.539195 3.041810 1.259833
1.502834 1.170225 1.112847
2.246419 1.655821 1.602850
2.297666 1.634978 1.116838
2.228638 1.553771 1.196681
1.828202 1.344642 1.050278
2.544115 1.722698 0.846073
2.126070 1.437739 1.019444
2.276798 1.602852 1.191886
2.266731 1.502941 1.197605
2.350228 1.642800 1.314986
1.787584 1.316555 1.057278
2.387105 1.736503 1.351277
2.036892 1.365316 1.055372
2.429581 1.616505 1.338979
1.858187 1.303184 1.083271
2.433196 1.687615 1.354222
2.577018 1.688547 0.893170
1.747820 1.278534 1.063261
2.468460 1.644619 1.402164
2.551759 1.696330 0.919297
2.605942 1.621002 0.891062
2.569520 1.684438 0.892285
3.713026 2.153343 0.551337
3.492194 2.420892 2.043267
1.837486 1.271988 1.108272
4.189183 2.394470 0.416973
2.413751 1.630258 0.933238
2.578719 1.629782 0.918186
2.536386 1.701140 0.946436
2.576392 1.607108 0.881141
3.716570 2.170677 0.508579
3.574128 2.039218 0.594275
2.430777 1.564756 0.925115
2.568435 1.640513 0.949333
3.456060 2.053710 0.593423
3.463937 2.045648 0.627413
4.153160 2.295745 0.555034
3.499833 1.973370 0.591294
3.370263 1.949056 0.658366
3.215451 1.856404 0.659095
