# .PCD v0.7 - Point Cloud Data file format
VERSION 0.7
FIELDS x y z
SIZE 4 4 4
TYPE F F F
COUNT 1 1 1
WIDTH 538
HEIGHT 1
VIEWPOINT 0 0 0 1
POINTS 538
DATA ascii
1.116857 1.771035 0.975734
1.110622 1.771504 1.033721
1.143211 1.768632 0.912847
1.143241 1.762519 0.924815
1.147221 1.767470 0.930882
1.154307 1.764437 0.934915
1.170101 1.765010 0.984998
1.190588 1.774043 0.873165
1.179335 1.771488 0.933098
1.162853 1.765460 1.044979
1.203441 1.768590 0.925198
1.203463 1.762459 0.939166
1.205452 1.763407 0.945188
1.214526 1.762347 0.952255
1.231318 1.765940 1.000367
1.225026 1.773357 1.064410
1.249864 1.766032 0.881450
1.239582 1.768452 0.944430
1.246918 1.775131 0.646515
1.265662 1.769530 0.939573
1.251177 1.768555 0.599486
1.269237 1.767660 0.590563
1.247718 1.774598 0.705536
1.261207 1.768557 0.600541
1.249215 1.770548 0.599508
1.262700 1.758403 0.952486
1.268651 1.766312 0.963587
1.304608 1.773183 0.536810
1.291530 1.765880 1.014719
1.280704 1.768222 0.974691
1.304385 1.773623 0.598833
1.302805 1.768395 0.958799
1.329049 1.781934 0.903038
1.306167 1.771122 0.654829
1.327901 1.766490 0.951912
1.316406 1.770518 0.611882
1.304959 1.770587 0.713838
1.340469 1.774641 0.602032
1.323459 1.765543 0.609880
1.312444 1.770509 0.611876
1.320937 1.752358 0.964777
1.327878 1.760242 0.978884
1.352380 1.783161 1.103230
1.377864 1.778194 0.545273
1.369666 1.784740 1.041322
1.383946 1.784395 0.300346
1.337940 1.759159 0.988952
1.368726 1.779879 0.355246
1.373626 1.776611 0.609257
1.382965 1.786285 0.982404
1.366417 1.766116 0.663138
1.405256 1.790872 0.920548
1.369926 1.782180 0.321287
1.369170 1.773553 0.726233
1.419003 1.797325 0.983680
1.372540 1.776323 0.417260
1.379654 1.766498 0.622215
1.390977 1.780226 0.319375
1.401742 1.766654 0.608321
1.391683 1.769523 0.621305
1.380667 1.772460 0.626286
1.420418 1.783072 0.229541
1.417006 1.789147 1.002622
1.412989 1.784069 1.010563
1.418106 1.777285 0.316503
1.428203 1.782459 0.298600
1.416560 1.785067 1.122614
1.430900 1.777696 1.054616
1.421056 1.778975 1.021587
1.456105 1.786197 0.555783
1.451229 1.780445 0.303698
1.434984 1.778910 0.360617
1.445178 1.789358 0.088745
1.438891 1.771623 0.616590
1.453178 1.787217 0.999812
1.471398 1.788752 0.048867
1.431184 1.775186 0.328582
1.451317 1.795475 0.746876
1.473518 1.783845 0.932880
1.459116 1.788123 0.116816
1.438779 1.777337 0.424647
1.474287 1.779326 0.990852
1.444882 1.764467 0.634572
1.457242 1.776249 0.325721
1.438911 1.762429 0.637539
1.471991 1.765648 0.618713
1.454950 1.760515 0.630594
1.476250 1.778110 1.014871
1.488709 1.778133 0.231889
1.467909 1.788530 0.183889
1.464260 1.784222 0.105831
1.473235 1.772015 1.024810
1.490433 1.785545 0.073967
1.502881 1.780431 -0.023025
1.475767 1.779005 1.137902
1.485380 1.773327 0.320853
1.497478 1.779504 0.302969
1.491913 1.792437 -0.025954
1.487720 1.787020 0.019982
1.501093 1.779613 1.074029
1.487259 1.774877 1.041930
1.499258 1.771949 0.364926
1.524506 1.780506 0.307112
1.517450 1.790426 0.091162
1.538347 1.793201 0.567302
1.517631 1.785766 0.053121
1.515833 1.782057 0.691114
1.546477 1.800552 -0.141627
1.520411 1.782175 1.014152
1.526090 1.788599 0.632217
1.503589 1.777482 0.753029
1.498433 1.772195 0.336939
1.550685 1.794866 0.047360
1.532380 1.791194 0.119253
1.500052 1.768373 0.428922
1.548751 1.782797 0.949295
1.543506 1.776270 1.007217
1.539027 1.791392 0.657316
1.531485 1.780277 0.333171
1.547368 1.793136 -0.095661
1.536040 1.793340 0.662332
1.553437 1.796269 -0.109603
1.563170 1.786614 0.636392
1.550101 1.787451 0.652343
1.562685 1.800755 -0.162518
1.543472 1.772042 1.032202
1.560258 1.797857 -0.062547
1.547161 1.797601 0.187407
1.529533 1.777263 0.110144
1.561197 1.795705 -0.045558
1.546420 1.773912 1.047237
1.575973 1.790216 0.235473
1.563486 1.796280 -0.109544
1.570702 1.793645 0.074481
1.545944 1.780908 1.159312
1.592165 1.795579 -0.026406
1.561641 1.775368 0.327297
1.562976 1.793104 0.021452
1.563315 1.791774 -0.053560
1.585711 1.795564 0.309590
1.568182 1.796522 -0.024494
1.570295 1.777541 1.092401
1.555461 1.769776 1.063273
1.594452 1.797985 0.375664
1.611746 1.793565 0.313702
1.588727 1.787495 0.093537
1.610625 1.786229 0.574649
1.597920 1.789875 0.052601
1.593058 1.785040 0.704569
1.589648 1.775130 1.029483
1.598343 1.784602 0.642589
1.582781 1.786442 0.769543
1.627794 1.803716 -0.148150
1.577656 1.780206 0.347446
1.630004 1.804130 -0.194137
1.593220 1.794371 0.443649
1.601681 1.783279 0.119576
1.622004 1.785971 0.045686
1.601285 1.778380 0.667560
1.615728 1.772212 1.024587
1.620010 1.773772 0.962620
1.624694 1.799301 0.344840
1.628667 1.798283 -0.100169
1.598284 1.781311 0.674584
1.632743 1.798413 -0.114146
1.622345 1.783445 0.663713
1.636431 1.780619 0.646751
1.638987 1.800895 -0.167095
1.615676 1.769967 1.051587
1.602788 1.777310 0.115552
1.635550 1.795960 -0.063145
1.616616 1.769816 1.068596
1.635485 1.794816 -0.047153
1.636779 1.793390 -0.111160
1.609148 1.773838 1.176608
1.662247 1.796301 0.238998
1.642999 1.786726 0.075826
1.655851 1.795413 0.336978
1.672464 1.796709 -0.028954
1.635263 1.789194 0.021821
1.635526 1.767493 1.107683
1.640459 1.792595 -0.022125
1.661988 1.792626 0.313988
1.624663 1.763680 1.084609
1.663728 1.789029 0.380976
1.661007 1.782570 0.095897
1.693017 1.793627 0.319150
1.669277 1.786025 0.717998
1.651997 1.783417 0.782902
1.676213 1.788984 0.052026
1.665864 1.773072 1.047888
1.689889 1.783254 0.584062
1.675583 1.783606 0.654007
1.658877 1.786214 0.358943
1.657489 1.783408 0.448917
1.704121 1.797867 -0.153777
1.710328 1.802296 -0.200711
1.693931 1.798384 0.122204
1.725261 1.810129 0.044444
1.682498 1.781346 0.684032
1.698912 1.776121 1.048076
1.693962 1.790337 0.351150
1.702227 1.773714 0.982072
1.672498 1.779266 0.690978
1.711964 1.801428 -0.103687
1.697576 1.780430 0.677103
1.718659 1.783623 0.659226
1.697681 1.797733 0.195239
1.693862 1.769868 1.075017
1.707996 1.807409 0.121369
1.718302 1.799052 -0.172675
1.682313 1.774734 1.200019
1.690862 1.772018 -0.062030
1.694798 1.769709 1.093025
1.717066 1.795521 -0.113703
1.743534 1.793382 0.242420
1.736263 1.799852 0.076441
1.731116 1.790460 0.343350
1.713704 1.769405 1.130128
1.732507 1.809327 0.022513
1.765759 1.805870 -0.032373
1.739263 1.788694 0.318379
1.709789 1.772513 1.117147
1.737993 1.784083 0.386343
1.726202 1.782385 0.798300
1.745500 1.784014 0.731398
1.758248 1.799676 0.099563
1.769313 1.784702 0.322494
1.737109 1.787240 0.368379
1.768481 1.800120 0.051616
1.732731 1.781439 0.457313
1.750053 1.774984 1.071364
1.761799 1.788600 0.668517
1.781114 1.790264 0.597614
1.790439 1.799045 -0.160300
1.771213 1.794479 0.123593
1.768696 1.786305 0.702541
1.779121 1.773055 1.068489
1.770216 1.785369 0.359526
1.802585 1.799250 0.042776
1.758684 1.785208 0.711495
1.788445 1.772657 1.002533
1.778808 1.778417 0.691529
1.753504 1.769655 1.220367
1.771954 1.791806 0.198596
1.799900 1.780629 0.671643
1.775043 1.769769 1.099459
1.783260 1.801466 0.126730
1.798615 1.795204 -0.177270
1.809107 1.808229 -0.066102
1.773978 1.767597 1.118440
1.808049 1.805085 -0.050132
1.831812 1.794479 0.245905
1.816562 1.793962 0.076828
1.795881 1.770308 1.154581
1.810388 1.784515 0.349732
1.810128 1.805120 -0.054104
1.804796 1.799415 0.023826
1.812979 1.806821 -0.020074
1.851077 1.802024 -0.035945
1.826520 1.790762 0.324867
1.786980 1.766399 1.142519
1.802413 1.780368 0.812698
1.826230 1.789136 0.394859
1.827713 1.783997 0.746842
1.837533 1.793768 0.101943
1.818949 1.787471 0.467827
1.816349 1.783252 0.379776
1.857578 1.785782 0.327978
1.829265 1.769928 1.090752
1.857769 1.802253 0.051113
1.844043 1.784610 0.680929
1.874360 1.791282 0.611124
1.855481 1.794579 0.126047
1.851905 1.785273 0.719981
1.864311 1.771974 1.091938
1.854456 1.785408 0.368980
1.837892 1.781160 0.729891
1.885898 1.792384 0.041168
1.833655 1.770531 1.247807
1.866017 1.780401 0.708014
1.852221 1.788892 0.202005
1.867690 1.762629 1.018880
1.858535 1.792535 0.131064
1.844289 1.753726 1.115705
1.878670 1.791869 -0.126865
1.891124 1.782628 0.687148
1.860131 1.769465 1.147919
1.895393 1.807360 -0.066647
1.887352 1.797213 -0.051770
1.875064 1.766219 1.177974
1.886068 1.796521 0.025238
1.902845 1.792076 0.078274
1.889413 1.799231 -0.053726
1.924103 1.792584 0.249382
1.888267 1.795908 -0.017757
1.902636 1.787577 0.358250
1.871130 1.766256 1.172970
1.881619 1.777341 0.829098
1.914791 1.788845 0.330323
1.909482 1.786194 0.402281
1.909938 1.779992 0.761250
1.898187 1.783506 0.477220
1.923808 1.790865 0.105381
1.906567 1.787276 0.392290
1.910475 1.762861 1.112130
1.936079 1.790374 0.050436
1.956834 1.790865 0.335546
1.932279 1.782624 0.694383
1.941763 1.791695 0.127483
1.931138 1.776255 0.735332
1.960624 1.783311 0.622519
1.947516 1.765911 1.113333
1.945695 1.786453 0.379474
1.911826 1.766435 1.272192
1.919105 1.775119 0.748276
1.979193 1.792538 0.039664
1.936474 1.787979 0.206446
1.952241 1.776386 0.724441
1.951775 1.797618 0.137600
1.940423 1.760586 1.148272
1.963877 1.764551 1.044406
1.937339 1.758384 1.170242
1.975371 1.774637 0.700531
1.947283 1.753168 1.196255
1.976341 1.797653 0.025725
1.979533 1.798032 -0.016257
1.994138 1.789209 0.078734
1.990903 1.782646 0.365678
2.016384 1.788685 0.253838
1.957844 1.768330 0.843432
1.952303 1.759129 1.201345
1.995732 1.782251 0.410705
2.007051 1.787929 0.336803
1.986193 1.767008 0.772551
1.986420 1.783557 0.486687
2.011079 1.786967 0.108810
1.994796 1.786310 0.403749
1.997676 1.757799 1.134551
2.026379 1.785516 0.049873
2.013540 1.770648 0.705717
2.044123 1.781960 0.339934
2.029045 1.786816 0.128904
1.989992 1.761341 1.296566
2.025334 1.777221 0.755836
2.012281 1.778065 0.770792
2.035711 1.759833 1.137750
2.038936 1.785505 0.389957
2.057873 1.780343 0.636006
2.029722 1.790075 0.211953
2.077498 1.791713 0.037172
2.035047 1.788698 0.142967
2.042469 1.771381 0.740875
2.030598 1.757485 1.175723
2.023509 1.752259 1.199648
2.076582 1.777642 0.718086
2.065068 1.764477 1.070937
2.066621 1.793780 0.027167
2.055005 1.775285 0.865997
2.092419 1.789350 0.080249
2.094130 1.788715 0.376266
2.118661 1.788807 0.258372
2.089983 1.780325 0.419183
2.077646 1.782600 0.498157
2.086382 1.770986 0.793106
2.106318 1.787028 0.343314
2.086026 1.782334 0.417194
2.107353 1.785087 0.112297
2.119735 1.776645 0.725318
2.129677 1.786693 0.048419
2.153367 1.788059 0.348550
2.127316 1.786949 0.131416
2.116541 1.772194 0.775272
2.103476 1.774021 0.792236
2.138171 1.785561 0.401473
2.117992 1.783175 0.216358
2.156125 1.774382 0.649469
2.131299 1.787793 0.149461
2.140678 1.769367 0.760370
2.208768 1.811937 0.036011
2.173816 1.771653 0.734542
2.160899 1.790927 0.027633
2.149192 1.774257 0.886478
2.189711 1.784502 0.080713
2.190397 1.781796 0.384708
2.187228 1.777398 0.428662
2.168878 1.778655 0.508598
2.179595 1.765984 0.810549
2.216961 1.778926 0.262800
2.204582 1.782121 0.350782
2.186243 1.782369 0.431713
2.200630 1.778207 0.115724
2.211984 1.765669 0.739706
2.226605 1.782097 0.132888
2.255644 1.782169 0.355028
2.196670 1.767975 0.814669
2.228433 1.773616 0.411843
2.220248 1.784302 0.220893
2.228551 1.784894 0.155938
2.259368 1.768415 0.664951
2.231752 1.747840 1.285693
2.231722 1.747661 1.305709
2.297993 1.783667 0.082259
2.291653 1.775880 0.394179
2.263126 1.770718 0.519017
2.282490 1.768481 0.437078
2.334230 1.781072 0.268414
2.301859 1.772225 0.357200
2.284471 1.777412 0.445176
2.252456 1.744002 1.383789
2.309895 1.778348 0.120282
2.298192 1.748521 1.222031
2.321900 1.770234 0.135279
2.351941 1.767283 0.360398
2.328667 1.768682 0.423314
2.317521 1.776425 0.225326
2.339233 1.746555 1.226207
2.318826 1.770987 0.162287
2.321098 1.739151 1.268074
2.317950 1.739843 1.302068
2.314918 1.728553 1.333981
2.316718 1.713987 1.397878
2.418166 1.773492 0.124790
2.383434 1.726489 1.242287
2.396040 1.753872 0.864571
2.418143 1.752105 0.842650
2.435399 1.761695 0.779807
2.431068 1.771112 0.169853
2.433450 1.728495 1.251538
2.420272 1.727046 1.299479
2.461282 1.757331 0.825904
2.488839 1.757499 0.700022
2.441039 1.738601 1.353680
2.429793 1.749209 0.945706
2.502474 1.755696 0.793079
2.501819 1.743191 1.186993
2.448944 1.741295 1.389758
2.447735 1.729751 1.450663
2.527487 1.741304 1.292126
2.494250 1.738837 0.887942
2.516363 1.736089 0.864013
2.559127 1.761834 0.451413
2.596463 1.760540 0.379565
2.569538 1.735342 1.296271
2.538213 1.726526 1.381080
2.546374 1.727869 1.344127
2.569506 1.744326 0.847351
2.539217 1.723501 1.384062
2.603740 1.734723 0.809428
2.569829 1.746911 0.556383
2.542113 1.722150 1.424086
2.559829 1.727576 1.492221
2.596263 1.738757 0.466430
2.612381 1.746955 0.897593
2.628424 1.753168 0.426699
2.602149 1.753543 0.491595
2.637337 1.751730 0.927776
2.630693 1.722228 1.320506
2.650296 1.761837 0.242891
2.663472 1.748016 0.900858
2.665846 1.741731 0.820814
2.683364 1.755905 0.467001
2.685711 1.721227 1.331756
2.660115 1.743130 0.999826
2.655324 1.718347 1.424607
2.655343 1.716365 1.422592
2.658529 1.714744 1.380589
2.693691 1.738308 0.873928
2.735940 1.728728 0.835044
2.661205 1.714940 1.471630
2.670933 1.720415 1.532724
2.722598 1.731958 0.919028
2.762430 1.758873 0.486420
2.742187 1.718028 1.253009
2.721369 1.745596 0.509130
2.752682 1.743273 0.439243
2.761753 1.711957 1.828083
2.792901 1.754742 0.394531
2.746534 1.734680 0.955189
2.760811 1.717093 1.362117
2.838375 1.753710 0.294726
2.765708 1.723998 0.923181
2.811604 1.746993 0.482570
2.780421 1.710160 1.471169
2.820832 1.714084 1.375374
2.778457 1.708219 1.464143
2.868004 1.747829 0.399831
2.786636 1.707580 1.425174
2.784050 1.709271 1.572202
2.787278 1.707711 1.523204
2.882691 1.743984 0.497899
2.865554 1.746651 0.531855
2.887318 1.711913 1.295682
2.906902 1.745399 0.456024
2.932168 1.745896 0.405150
2.899934 1.708961 1.405744
2.952819 1.742081 0.501229
2.914545 1.702047 1.511769
2.916492 1.702944 1.523786
2.971917 1.710922 1.425095
2.930714 1.702387 1.476846
3.023256 1.743996 0.412564
2.928082 1.710043 1.627922
2.963458 1.737159 0.607266
2.926322 1.702457 1.580852
2.988954 1.714943 0.975213
3.018943 1.732110 0.511476
3.000761 1.737714 0.552451
3.057142 1.738533 0.471708
3.017809 1.720534 1.027419
3.088413 1.742068 0.417886
3.065969 1.719887 0.997629
3.039608 1.716042 1.087493
3.102033 1.735180 0.520906
3.183519 1.735178 0.425276
3.091696 1.721257 0.622768
3.144098 1.709924 1.009931
3.173169 1.725247 0.528173
3.148964 1.728786 0.575104
3.213381 1.728674 0.488390
3.172918 1.715455 1.069136
3.254654 1.736246 0.432647
3.246277 1.718292 0.538472
3.254886 1.718370 0.644537
3.319132 1.726868 0.601912
3.348380 1.722409 0.546997
3.399594 1.726849 0.508273
1.780672 -0.587846 2.437904
1.742453 -0.655745 2.412372
1.726826 -0.691743 2.406108
1.706215 -0.724701 2.393844
1.681619 -0.755634 2.377580
1.659024 -0.788590 2.364312
1.718003 -0.826789 2.402289
1.638404 -0.820566 2.354058
1.688411 -0.855716 2.384019
1.625734 -0.856636 2.356806
1.657829 -0.883629 2.363754
