# .PCD v0.7 - Point Cloud Data file format
VERSION 0.7
FIELDS x y z
SIZE 4 4 4
TYPE F F F
COUNT 1 1 1
WIDTH 27
HEIGHT 1
VIEWPOINT 0 0 0 1
POINTS 27
DATA ascii
-0.875178 2.515405 1.710738
-0.854165 2.543367 1.714927
-0.832150 2.567256 1.732092
-0.876833 2.431498 1.674265
-0.813204 2.629106 1.752491
-0.780074 2.597213 1.739322
-0.848932 2.542089 1.731974
-0.875631 2.434336 1.675323
-0.745044 2.630240 1.734559
-0.836110 2.676021 1.731817
-0.700740 2.521652 1.677925
-0.798896 2.592974 1.749334
-0.847732 2.538937 1.731998
-0.875411 2.436159 1.676378
-0.780047 2.708970 1.742074
-0.727674 2.568207 1.718247
-0.795673 2.576870 1.744277
-0.848519 2.541739 1.737065
-0.693658 2.621447 1.678618
-0.717341 2.521226 1.696025
-0.795090 2.825747 1.743858
-0.794417 2.570688 1.746319
-0.729968 2.842768 1.746054
-0.716070 2.510060 1.697035
-0.648658 2.793069 1.709851
-0.733027 2.975477 1.756990
-0.637576 2.877977 1.695503
