# .PCD v0.7 - Point Cloud Data file format
VERSION 0.7
FIELDS x y z
SIZE 4 4 4
TYPE F F F
COUNT 1 1 1
WIDTH 386
HEIGHT 1
VIEWPOINT 0 0 0 1
POINTS 386
DATA ascii
3.974295 -2.418876 1.323751
3.933508 -2.421697 1.452673
4.005973 -2.423226 1.004278
3.475910 -2.364526 1.201276
3.860874 -2.420095 1.562455
3.485104 -2.417160 1.432038
4.014784 -2.411523 1.053028
3.990067 -2.421101 1.034572
3.447159 -2.361980 1.319458
3.822159 -2.422726 1.687463
3.528290 -2.368563 0.905007
3.446091 -2.331099 0.806332
3.126750 -2.327602 0.734466
3.331416 -2.392109 1.445842
3.268910 -2.358445 1.274196
3.069341 -2.325548 1.105234
3.421534 -2.375268 1.433217
3.095641 -2.377632 1.321143
3.410927 -2.412054 1.529207
3.571214 -2.376630 0.951470
3.497257 -2.348603 0.938637
3.136605 -2.327899 0.782838
2.946265 -2.307607 0.705666
3.031862 -2.277061 0.632342
3.057616 -2.322740 1.217551
3.233291 -2.358522 1.379227
2.891995 -2.308151 1.064391
2.904356 -2.344828 1.264598
3.412826 -2.383726 1.557306
3.140503 -2.330072 0.826084
2.947124 -2.298776 0.748205
3.085153 -2.306156 0.750273
2.970955 -2.354431 1.334142
2.876366 -2.272214 0.612337
2.885297 -2.305198 1.172746
3.052007 -2.338839 1.328390
2.750022 -2.331284 1.222844
3.035578 -2.367981 1.401542
3.178470 -2.332907 0.863633
2.971067 -2.314905 0.793234
3.128373 -2.314311 0.869749
2.921653 -2.293197 0.725416
2.802668 -2.330639 1.281542
2.886691 -2.321205 1.281640
2.737939 -2.297801 1.136882
2.874337 -2.353148 1.348753
3.010079 -2.319619 0.826735
2.960891 -2.297220 0.839962
2.736348 -2.307648 1.239913
2.841634 -2.296342 0.790115
2.803399 -2.280115 0.811268
1.721072 -2.208739 0.187057
1.713318 -2.139455 0.139998
1.624211 -2.165776 0.389644
1.625112 -2.188507 0.525131
1.624629 -2.132859 0.138666
1.568842 -2.197272 0.798695
1.648208 -2.189798 0.540520
1.533552 -2.152998 0.382467
1.538489 -2.178613 0.514905
1.592342 -2.150656 0.198071
1.592947 -2.165994 0.465780
1.512538 -2.151530 0.179330
1.528983 -2.210735 0.919189
1.478605 -2.122331 0.056831
1.645403 -2.182932 0.545934
1.537922 -2.123253 0.137431
1.559600 -2.177830 0.527329
1.475269 -2.179162 0.780640
1.616465 -2.165070 0.217113
1.450930 -2.148207 0.376150
1.452858 -2.167742 0.505721
1.592537 -2.157076 0.213177
1.515704 -2.151938 0.194629
1.508309 -2.157151 0.457542
1.435869 -2.149868 0.177972
1.509691 -2.178137 0.860158
1.669855 -2.160934 0.294858
1.445430 -2.198539 0.900047
1.579732 -2.182023 0.538597
1.393872 -2.109778 0.057703
1.557765 -2.170015 0.534771
1.477998 -2.170884 0.516066
1.486411 -2.201867 0.920475
1.387692 -2.165106 0.765531
1.529763 -2.152374 0.212956
1.372293 -2.144451 0.371841
1.617227 -2.182933 0.616130
1.376232 -2.161855 0.497473
1.514921 -2.158306 0.207732
1.604960 -2.176866 0.538188
1.594822 -2.152162 0.216637
1.532391 -2.216279 0.944632
1.441068 -2.153210 0.191209
1.428681 -2.150284 0.449294
1.592229 -2.162156 0.289402
1.435141 -2.179092 0.847744
1.357182 -2.143217 0.176737
1.370876 -2.195437 0.885742
1.499148 -2.177044 0.526288
1.473130 -2.157084 0.523637
1.744025 -2.742635 0.067998
1.393644 -2.132920 0.135446
1.396379 -2.159940 0.504912
1.411868 -2.198710 0.904165
1.472631 -2.196111 0.929807
1.451087 -2.146664 0.209683
1.312123 -2.163127 0.755202
1.531604 -2.169945 0.602983
1.292636 -2.134674 0.366685
1.303630 -2.160975 0.490134
1.432245 -2.146536 0.201587
1.527400 -2.175844 0.524794
1.516196 -2.149343 0.209284
1.442857 -2.194923 0.918679
1.357384 -2.139474 0.186120
1.509555 -2.153404 0.284173
1.356069 -2.151463 0.443898
1.351562 -2.164985 0.831661
1.284518 -2.141535 0.175422
1.415530 -2.162028 0.512218
1.398508 -2.154213 0.516323
1.325998 -2.138243 0.134980
1.498975 -2.209981 0.931939
1.324770 -2.158029 0.496600
1.371398 -2.136959 0.206514
1.235534 -2.155130 0.744025
1.449979 -2.156941 0.589868
1.232988 -2.156115 0.483913
1.230051 -2.148945 0.366038
1.445809 -2.164793 0.509633
1.356599 -2.140731 0.195345
1.439567 -2.145514 0.201977
1.434899 -2.149612 0.278877
1.418857 -2.118544 0.051479
1.287732 -2.139748 0.183771
1.279417 -2.142637 0.437735
1.280993 -2.163953 0.820338
1.341940 -2.158045 0.500943
1.326882 -2.151329 0.509034
1.181871 -2.113956 0.061574
1.415468 -2.194601 0.905875
1.255178 -2.158107 0.488260
1.302739 -2.137227 0.204168
1.157940 -2.092874 -0.057059
1.378357 -2.152997 0.580597
1.214815 -2.093077 -0.039511
1.166966 -2.158200 0.736629
1.163362 -2.151223 0.476706
1.285938 -2.136955 0.191090
1.361915 -2.135666 0.193821
1.369231 -2.158771 0.496388
1.357215 -2.137810 0.272769
1.342143 -2.107868 0.049350
1.203760 -2.130780 0.430662
1.211404 -2.160944 0.810078
1.137122 -2.122154 0.172202
1.269339 -2.153086 0.490708
1.254258 -2.145422 0.500824
1.107121 -2.098351 0.062612
1.174576 -2.115918 0.132799
1.185542 -2.151190 0.480098
1.217886 -2.098789 -0.013373
1.080139 -2.070351 -0.053864
1.306746 -2.149051 0.571337
1.140068 -2.078483 -0.038504
1.433295 -2.761199 0.927262
1.197994 -2.091701 -0.020297
1.294623 -2.148743 0.483260
1.291273 -2.131837 0.187565
1.086671 -2.129315 0.467889
1.282537 -2.128020 0.267638
1.078706 -2.122353 0.355990
1.142361 -2.120248 0.176560
1.199719 -2.146114 0.480545
1.065407 -2.108441 0.170214
1.180597 -2.132523 0.492787
1.092578 -2.072841 -0.071591
1.042444 -2.098719 0.064319
1.106885 -2.111241 0.132605
1.240127 -2.147111 0.563061
1.163400 -2.128744 0.198715
1.358555 -2.706723 -0.075056
1.433450 -2.712840 -0.057503
1.146610 -2.124370 0.181738
1.229049 -2.151778 0.473872
1.026054 -2.132460 0.463547
1.076691 -2.116503 0.174356
1.010041 -2.114576 0.352878
1.189312 -2.088967 -0.012947
1.067470 -2.120100 0.420299
1.001712 -2.103740 0.170052
0.973390 -2.064844 -0.131214
1.027875 -2.069224 -0.069787
0.975736 -2.092098 0.066194
1.048279 -2.134319 0.462885
1.036169 -2.098552 0.131600
1.176517 -2.148182 0.555737
1.093686 -2.117017 0.196682
1.020757 -2.089137 -0.037288
1.157000 -2.126146 0.175068
1.162459 -2.149792 0.463608
1.077951 -2.116559 0.176618
1.149219 -2.121415 0.259170
0.958391 -2.119561 0.456570
1.142117 -2.102742 0.044523
1.002948 -2.093746 0.170584
1.493624 -2.718361 -0.028637
0.942359 -2.103794 0.349854
1.001810 -2.112249 0.415203
1.066494 -2.136197 0.462177
0.936017 -2.095022 0.168988
1.055335 -2.130750 0.481264
0.907624 -2.053319 -0.126206
1.281219 -2.682568 -0.096483
0.978612 -2.117378 0.453993
0.971470 -2.091860 0.131485
0.914056 -2.090423 0.066980
1.030012 -2.113259 0.194493
1.022801 -2.090842 -0.011058
0.897057 -2.070518 -0.045641
0.954022 -2.078526 -0.035314
1.000738 -2.067123 -0.117614
1.084310 -2.109304 0.168143
1.086802 -2.126750 0.449816
1.083551 -2.115608 0.255013
1.008249 -2.100755 0.171694
1.076431 -2.097010 0.042367
0.900757 -2.121718 0.453280
0.893534 -2.129332 0.702138
0.943304 -2.094970 0.168304
1.053648 -2.067372 -0.099065
0.875671 -2.089982 0.345914
0.939155 -2.108435 0.412032
0.999876 -2.127213 0.452103
0.875324 -2.090305 0.168855
0.987674 -2.118850 0.474258
0.858029 -2.073655 -0.123895
1.043211 -2.125230 0.536686
0.916975 -2.111451 0.446878
0.900179 -2.050790 -0.148901
0.911802 -2.093167 0.132208
0.850336 -2.081784 0.068933
0.963299 -2.099491 0.191540
0.960107 -2.086154 -0.011211
0.894328 -2.052531 -0.159969
0.944036 -2.060311 -0.121690
0.840379 -2.073881 -0.042947
0.895329 -2.076846 -0.034514
0.936005 -2.056484 -0.116630
1.016847 -2.101781 0.250052
1.026215 -2.127765 0.440526
1.019664 -2.103448 0.162000
0.945270 -2.080886 -0.024150
0.945579 -2.093941 0.167593
0.839093 -2.111818 0.447272
1.011742 -2.091300 0.041222
0.990945 -2.060666 -0.100175
0.883638 -2.092195 0.166127
1.002335 -2.086714 -0.020725
0.826900 -2.115347 0.693209
0.936221 -2.115246 0.443121
0.876488 -2.100596 0.407965
0.816023 -2.088186 0.343722
0.817659 -2.090571 0.168622
0.925011 -2.109953 0.468209
0.980571 -2.119299 0.529559
0.795264 -2.062112 -0.118860
0.862366 -2.118593 0.443487
0.848779 -2.066344 -0.062455
0.840468 -2.047181 -0.146051
0.848067 -2.078443 0.131306
0.900610 -2.091729 0.189468
0.899394 -2.080482 -0.010323
0.791655 -2.081119 0.070722
0.835619 -2.049917 -0.157139
0.883313 -2.052650 -0.120753
0.778643 -2.064271 -0.039953
0.953153 -2.090965 0.246041
0.835642 -2.074171 -0.033686
0.962595 -2.119771 0.430445
0.957002 -2.096609 0.156898
0.880343 -2.060797 -0.115958
0.884593 -2.077163 -0.025308
0.885907 -2.089140 0.164464
0.955085 -2.094548 0.039907
0.780423 -2.105982 0.444186
0.939640 -2.078973 -0.022803
0.931280 -2.059945 -0.101406
0.826982 -2.093430 0.164874
0.877608 -2.115330 0.436880
0.917023 -2.044647 -0.077094
0.812813 -2.086710 0.402046
0.758361 -2.087432 0.343521
0.755935 -2.076833 0.167717
0.867370 -2.109083 0.463997
0.917906 -2.107346 0.521583
0.801710 -2.109668 0.436479
0.795887 -2.071446 -0.145789
0.795132 -2.075673 -0.060869
0.790383 -2.076720 0.131141
0.841921 -2.086952 0.187366
0.838676 -2.072790 -0.010363
0.731924 -2.071440 0.071748
0.828651 -2.056939 -0.121054
0.895491 -2.089126 0.241866
0.896327 -2.089768 0.151830
0.777928 -2.069492 -0.032777
0.820598 -2.052164 -0.113968
0.900976 -2.114800 0.421327
0.826896 -2.074456 -0.025452
0.827252 -2.086314 0.160318
0.892372 -2.084809 0.037901
0.719729 -2.090059 0.437359
0.880968 -2.076194 -0.025957
0.764263 -2.078651 0.162007
0.819981 -2.113391 0.429718
0.850244 -2.023994 -0.076850
0.756151 -2.086926 0.400845
0.806696 -2.099184 0.458015
0.697674 -2.078647 0.341528
0.702285 -2.082084 0.167413
0.861260 -2.105421 0.515420
0.741034 -2.095740 0.429587
0.735706 -2.078001 0.131910
0.784238 -2.083191 0.186238
0.781991 -2.072097 -0.009560
0.666128 -2.044786 0.073156
0.838827 -2.088328 0.239665
0.839696 -2.089901 0.146605
0.841354 -2.108814 0.412235
0.771210 -2.071708 -0.026595
0.771591 -2.084493 0.157152
0.832665 -2.077074 0.036853
0.664069 -2.086208 0.434254
0.822273 -2.069435 -0.028023
0.710601 -2.079872 0.160783
0.757303 -2.095422 0.420911
0.808710 -2.052152 -0.079678
0.701499 -2.087098 0.398643
0.748019 -2.089294 0.453032
0.645564 -2.072347 0.167449
0.643018 -2.079877 0.341307
0.804615 -2.101490 0.509296
0.684367 -2.087843 0.424572
0.731566 -2.085430 0.185992
0.671936 -2.054277 0.131251
0.781143 -2.080484 0.235633
0.781034 -2.083045 0.141546
0.779705 -2.094816 0.402333
0.772954 -2.066313 0.034885
0.713907 -2.076683 0.154128
0.612429 -2.089361 0.432000
0.764581 -2.062671 -0.030077
0.652883 -2.067088 0.158886
0.700667 -2.089473 0.413847
0.643815 -2.076236 0.394701
0.692358 -2.084416 0.448948
0.582301 -2.060036 0.337578
0.747935 -2.091562 0.503321
0.630729 -2.086957 0.420406
0.669837 -2.066637 0.183220
0.726495 -2.081674 0.233405
0.724359 -2.076205 0.137501
0.724088 -2.092864 0.395175
0.658220 -2.068863 0.151118
0.714232 -2.054573 0.033950
0.561765 -2.090537 0.430803
0.645016 -2.082547 0.407816
0.640695 -2.084569 0.446764
0.587112 -2.063394 0.391816
0.692279 -2.084627 0.497285
0.579083 -2.086061 0.416253
0.612093 -2.048851 0.181446
0.673827 -2.080855 0.231238
0.668709 -2.071335 0.132419
0.666430 -2.080899 0.387253
0.593378 -2.081627 0.402662
0.585004 -2.071666 0.441882
0.639616 -2.079704 0.492217
0.613076 -2.053977 0.225666
0.617856 -2.093988 0.382775
0.531326 -2.062778 0.437918
0.592986 -2.089852 0.490819
0.561187 -2.079020 0.374940
0.534270 -2.060810 0.480313
