# .PCD v0.7 - Point Cloud Data file format
VERSION 0.7
FIELDS x y z
SIZE 4 4 4
TYPE F F F
COUNT 1 1 1
WIDTH 72
HEIGHT 1
VIEWPOINT 0 0 0 1
POINTS 72
DATA ascii
1.483769 3.041180 1.508613
1.370739 2.704596 1.285456
1.367254 2.653129 1.339368
1.482639 2.766597 1.335575
1.350165 2.689432 1.277683
1.492365 2.750966 1.404223
1.434255 2.781740 1.320626
1.470636 2.770809 1.333152
1.348328 2.687954 1.278476
1.576998 2.897066 1.388937
1.509700 2.936881 1.311036
1.630051 3.363101 1.378035
1.470709 2.773349 1.333834
1.350923 2.709424 1.273492
1.668056 3.070688 1.383773
1.646791 3.200312 1.326915
1.479082 2.804989 1.330536
1.509276 2.710377 1.303013
3.176595 2.784014 -0.436888
2.430473 2.127986 -0.359538
2.774883 1.996805 -0.336501
2.665145 1.944158 1.311095
2.694993 2.022122 -0.437787
3.754046 2.356102 2.018590
3.609390 2.247823 2.021199
3.608474 2.373318 1.970741
2.689802 1.868988 1.303597
3.602844 2.486729 1.923717
3.608752 2.137605 2.003826
3.650436 2.285561 1.971639
2.858780 1.975421 -0.296079
3.711132 2.436257 1.954419
3.507321 2.389568 -0.481571
3.414537 2.204882 -0.458528
3.216411 2.063302 -0.500965
3.218071 1.886370 -0.276764
3.350098 2.048728 -0.439444
3.959837 2.411199 -0.617254
4.068079 2.260594 -0.354074
3.246950 1.877861 -0.415912
4.104003 2.247186 -0.528944
4.339565 2.141526 -0.474435
3.500221 1.857365 2.124929
4.380262 2.039120 -0.361173
4.377843 2.113345 -0.643871
3.747999 1.634954 -0.295042
3.677346 1.706040 -0.346604
4.420423 2.013651 -0.542737
3.776242 1.607054 -0.448659
-1.173281 4.778791 0.866839
-1.023754 3.872677 0.678130
-1.061161 4.798466 0.869259
-0.955349 3.989954 0.694312
-0.782188 3.962710 0.724883
-0.945401 4.064326 0.667291
-0.927897 3.511615 0.647253
-0.841213 3.753609 0.608404
-0.756816 4.043622 0.567081
-0.868960 4.183675 0.679635
-0.860209 3.585959 0.654930
-0.765491 3.824991 0.617127
-0.666967 4.099090 0.575754
-0.552241 4.507201 0.543117
-0.784317 4.274105 0.687710
-0.787413 3.644334 0.661464
-0.684715 3.889390 0.625827
-0.880173 4.299170 0.632047
-0.578173 4.163525 0.585542
-0.441903 4.490833 0.546138
-0.710559 3.695746 0.665962
-0.719682 4.617834 0.659986
-0.605272 4.597630 0.648986
