# .PCD v0.7 - Point Cloud Data file format
VERSION 0.7
FIELDS x y z
SIZE 4 4 4
TYPE F F F
COUNT 1 1 1
WIDTH 2030
HEIGHT 1
VIEWPOINT 0 0 0 1
POINTS 2030
DATA ascii
4.418466 -1.351064 -0.271236
4.438883 -1.363773 -0.197202
4.421313 -1.359130 -0.355336
4.412977 -1.359403 -0.426434
4.324827 -1.365476 0.142676
4.099003 -1.355435 -0.196500
4.056481 -1.352174 -0.248888
4.095978 -1.367666 -0.181704
4.075544 -1.360837 -0.357837
4.038193 -1.352468 -0.325098
4.019780 -1.351900 -0.388286
3.953101 -1.354219 0.131084
3.788119 -1.357996 -0.180686
3.727499 -1.345883 -0.229130
3.717174 -1.348172 -0.300278
3.464110 -1.341592 -0.163713
3.437558 -1.340249 -0.211968
3.459260 -1.352356 -0.279935
3.220113 -1.330848 -0.033991
3.197285 -1.322719 -0.059107
3.181309 -1.325138 0.503781
3.206182 -1.330388 0.183908
3.198660 -1.329332 -0.094193
3.207218 -1.335645 -0.151207
3.205984 -1.345109 0.334717
3.203164 -1.337780 -0.142277
3.210370 -1.351942 0.410674
3.154489 -1.330995 0.382410
3.173437 -1.342311 0.510457
3.193050 -1.350976 0.223486
3.168945 -1.341938 0.116359
0.966832 -1.334904 0.678639
0.962983 -1.340833 0.670533
0.923959 -1.310840 -0.057491
0.876237 -1.308095 -0.055839
0.860753 -1.311900 0.187014
0.821081 -1.329114 0.812560
0.823171 -1.321033 0.184610
0.807284 -1.313062 0.624629
0.811980 -1.322978 0.530536
0.813484 -1.330616 0.765479
0.818573 -1.333032 0.449456
0.796928 -1.295080 -0.088305
0.800580 -1.325308 0.910458
0.791991 -1.307369 0.379556
0.800048 -1.333686 0.855347
0.803906 -1.335491 0.573326
0.800984 -1.336126 0.717311
0.792497 -1.322166 0.628406
0.798857 -1.318566 -0.043570
0.799668 -1.329468 0.303339
0.795458 -1.327573 0.488349
0.791604 -1.325055 0.618363
0.789668 -1.329465 0.920326
0.803864 -1.334442 0.125293
0.802438 -1.334490 0.040273
0.788167 -1.320378 0.379369
0.790516 -1.324101 0.178322
0.786391 -1.315533 0.037380
0.794664 -1.333943 0.166233
0.804579 -1.352943 0.348098
0.769759 -1.314444 0.910354
0.777681 -1.322149 0.621292
0.785562 -1.339216 0.808165
0.790294 -1.328134 -0.084755
0.788324 -1.325065 -0.091734
0.785890 -1.323831 -0.024731
0.792623 -1.339140 0.183157
0.789368 -1.339352 0.378149
0.781591 -1.324138 0.178253
0.793452 -1.345528 0.218089
0.774030 -1.330193 0.890195
0.774764 -1.327159 0.621210
0.775355 -1.325395 0.376211
0.788749 -1.343064 0.175079
0.779437 -1.337097 0.529116
0.793166 -1.347631 -0.038964
0.772974 -1.335707 0.758107
0.781290 -1.332372 -0.066873
0.783674 -1.339509 0.035069
0.777023 -1.338160 0.445077
0.777198 -1.335086 0.261096
0.765088 -1.334364 0.902078
0.783459 -1.349046 0.082958
0.764486 -1.330472 0.379068
0.760518 -1.334729 0.844033
0.765333 -1.338584 0.566995
0.771955 -1.337197 0.003006
0.769865 -1.334343 0.015025
0.759984 -1.336250 0.623989
0.765834 -1.334472 0.024995
0.755459 -1.335228 0.708976
0.756058 -1.334166 0.614984
0.768123 -1.346591 0.302894
0.755890 -1.331690 0.483999
0.749170 -1.330489 0.907005
0.764236 -1.338604 0.124943
0.760345 -1.329606 -0.053996
0.770875 -1.351600 0.038828
0.765680 -1.351489 0.381824
0.768009 -1.353178 0.177801
0.751888 -1.333071 0.338938
0.763891 -1.345598 0.035847
0.765100 -1.352056 0.165792
0.755255 -1.333929 -0.027083
0.738278 -1.328502 0.903947
0.744018 -1.337267 0.796874
0.748819 -1.328714 0.039938
0.744171 -1.334215 0.614894
0.748980 -1.335277 0.178874
0.766785 -1.359225 -0.084307
0.742764 -1.331436 0.367892
0.753054 -1.345244 0.177784
0.748926 -1.332861 -0.124128
0.735510 -1.333251 0.880867
0.747260 -1.349273 0.621737
0.745813 -1.339705 0.215801
0.740780 -1.335521 0.374829
0.743084 -1.337244 0.173806
0.730832 -1.325180 0.517893
0.741406 -1.331885 -0.036163
0.731444 -1.336789 0.749781
0.750090 -1.354661 0.036635
0.732446 -1.337299 0.440752
0.739632 -1.345235 0.260693
0.724570 -1.334409 0.890773
0.734776 -1.330337 -0.087199
0.730735 -1.332259 0.081765
0.720965 -1.332770 0.832760
0.721724 -1.330655 0.556764
0.733956 -1.347565 0.376634
0.738357 -1.350338 0.003597
0.737274 -1.349489 0.016600
0.716420 -1.331308 0.612722
0.724611 -1.333872 -0.043312
0.728213 -1.341632 0.025628
0.721467 -1.336731 0.297664
0.716505 -1.336248 0.607663
0.711671 -1.334518 0.895677
0.733660 -1.354720 0.124522
0.718335 -1.338807 0.480634
0.713939 -1.338330 0.702629
0.718123 -1.331813 0.037672
0.712022 -1.331606 0.371663
0.709284 -1.325341 0.169698
0.723349 -1.353188 0.339485
0.715187 -1.333790 0.034627
0.715402 -1.337220 0.161600
0.700788 -1.332518 0.891620
0.705479 -1.339334 0.788563
0.718252 -1.344805 0.037518
0.697601 -1.323241 0.599679
0.713400 -1.345404 0.177489
0.716247 -1.354532 0.367419
0.701992 -1.343339 0.876498
0.710995 -1.338529 -0.078472
0.708015 -1.333464 -0.085434
0.707412 -1.339398 0.174516
0.693658 -1.327300 0.603602
0.709237 -1.351641 0.374403
0.695268 -1.332287 0.514546
0.708251 -1.350862 0.216390
0.705506 -1.346390 0.173419
0.709842 -1.350012 -0.035613
0.690903 -1.336864 0.741481
0.686051 -1.335441 0.879476
0.697352 -1.336893 0.037460
0.693986 -1.337378 0.256450
0.686425 -1.338840 0.826433
0.698922 -1.353437 0.441313
0.697187 -1.353776 0.559308
0.697145 -1.345408 0.083361
0.685319 -1.333667 0.367442
0.685602 -1.330570 0.004446
0.677859 -1.331361 0.603438
0.685540 -1.332716 0.017421
0.688888 -1.348854 0.297281
0.672158 -1.333532 0.882398
0.669914 -1.324306 0.595464
0.684548 -1.337807 0.025354
0.681955 -1.337912 0.122344
0.671729 -1.328908 0.472411
0.677013 -1.327962 -0.052590
0.685534 -1.344935 0.037278
0.680469 -1.345713 0.370264
0.670403 -1.335405 0.693345
0.675676 -1.337297 0.331326
0.681739 -1.345428 0.168257
0.680798 -1.345342 0.160251
0.682608 -1.347911 0.034221
0.673935 -1.332231 -0.029661
0.664939 -1.337385 0.778290
0.662310 -1.335525 0.878303
0.667518 -1.325993 0.035373
0.660060 -1.326299 0.591369
0.666731 -1.333539 0.172291
0.662586 -1.330611 0.354313
0.660456 -1.338362 0.863254
0.674360 -1.345691 -0.076823
0.668786 -1.341538 0.173211
0.670157 -1.355436 0.608097
0.664717 -1.347412 0.515144
0.660585 -1.336763 0.367227
0.658820 -1.334558 0.171222
0.659586 -1.339038 0.214178
0.661111 -1.336233 -0.033801
0.649525 -1.337474 0.869187
0.646353 -1.328910 0.729253
0.645854 -1.330848 0.812234
0.665782 -1.354030 0.039028
0.659410 -1.348519 0.257068
0.646546 -1.331830 0.545202
0.647301 -1.336549 0.432141
0.649457 -1.333590 0.082158
0.655790 -1.351762 0.366014
0.658038 -1.350666 0.004009
0.639310 -1.332423 0.595148
0.655973 -1.351843 0.018982
0.643217 -1.335984 0.292105
0.636650 -1.338569 0.873083
0.635359 -1.331405 0.592132
0.648934 -1.345952 0.026002
0.647350 -1.347053 0.122987
0.642194 -1.347037 0.473984
0.638818 -1.331112 0.036107
0.643083 -1.346408 0.329984
0.638864 -1.341811 0.364012
0.633045 -1.327559 0.162120
0.635106 -1.332492 0.157076
0.624860 -1.327464 0.682113
0.638913 -1.339074 0.033013
0.626381 -1.335436 0.769037
0.640981 -1.348061 0.032921
0.625816 -1.339543 0.866994
0.632559 -1.347396 0.590923
0.623910 -1.339415 0.854981
0.635049 -1.349697 0.352890
0.626276 -1.325441 -0.027920
0.632136 -1.341657 0.170948
0.618535 -1.330448 0.590024
0.627669 -1.333843 -0.080015
0.629174 -1.342668 0.170915
0.629656 -1.338912 -0.073060
0.622100 -1.338492 0.506946
0.622999 -1.339873 0.363923
0.624229 -1.343686 0.170868
0.610298 -1.331896 0.803969
0.607985 -1.329471 0.853986
0.627500 -1.347378 -0.032172
0.621987 -1.344180 0.213851
0.607807 -1.328981 0.721978
0.613968 -1.338919 0.541887
0.618783 -1.345643 0.253815
0.616058 -1.337241 0.039875
0.610129 -1.335845 0.356879
0.613826 -1.338734 0.082846
0.608727 -1.339673 0.429831
0.615354 -1.344844 0.004777
0.600755 -1.331470 0.585887
0.597117 -1.333567 0.858862
0.608626 -1.343101 0.290777
0.613310 -1.348019 0.019726
0.610837 -1.356542 0.596663
0.607674 -1.342196 0.121765
0.611292 -1.348094 0.025712
0.611241 -1.349207 0.035700
0.598413 -1.331508 0.322846
0.600677 -1.328275 -0.051135
0.599598 -1.341136 0.467754
0.600248 -1.339914 0.359763
0.602497 -1.340600 0.155751
0.602482 -1.341645 0.159739
0.590824 -1.337505 0.762763
0.601281 -1.341203 0.031724
0.602315 -1.345186 0.030684
0.587327 -1.331561 0.677801
0.584298 -1.332526 0.850785
0.586364 -1.337448 0.844741
0.587981 -1.334404 0.575763
0.596519 -1.344756 0.167662
0.588410 -1.333770 0.342752
0.594006 -1.353563 0.592580
0.592535 -1.343794 0.169646
0.589540 -1.348600 0.505600
0.589417 -1.347985 0.362593
0.587973 -1.335104 -0.070305
0.574735 -1.330931 0.794733
0.587605 -1.346822 0.170577
0.572462 -1.332515 0.845703
0.578365 -1.337987 0.535651
0.581279 -1.350128 0.726546
0.583788 -1.337570 -0.030359
0.580341 -1.338317 0.211630
0.580153 -1.344778 0.252557
0.576561 -1.343933 0.353552
0.582469 -1.349382 0.041499
0.578209 -1.344875 0.083527
0.576227 -1.354585 0.588446
0.578699 -1.345979 0.004510
0.565129 -1.331773 0.423623
0.573007 -1.345211 0.288506
0.561598 -1.335588 0.848593
0.562209 -1.333569 0.581596
0.575659 -1.349170 0.020453
0.572055 -1.346315 0.120471
0.569847 -1.347617 0.323460
0.571638 -1.346243 0.025461
0.570576 -1.344349 0.034477
0.564011 -1.344234 0.464473
0.561641 -1.338014 0.355520
0.565872 -1.342724 0.154475
0.564861 -1.341751 0.156479
0.550249 -1.327516 0.749601
0.565646 -1.344322 0.030443
0.564676 -1.345302 0.028425
0.549800 -1.334486 0.835524
0.560452 -1.352498 0.575362
0.547794 -1.333528 0.838522
0.556806 -1.348712 0.681391
0.559868 -1.350856 0.341356
0.556881 -1.340871 0.164436
0.549398 -1.337592 0.579462
0.553901 -1.341915 0.167404
0.548923 -1.339666 0.497427
0.541165 -1.331977 0.787491
0.551814 -1.348090 0.359335
0.550310 -1.336275 -0.067575
0.537913 -1.333553 0.837455
0.547792 -1.348084 0.534324
0.548966 -1.344954 0.169335
0.549158 -1.343704 -0.029667
0.534704 -1.331119 0.709451
0.547768 -1.350442 0.212267
0.544549 -1.348895 0.251267
0.536914 -1.335016 0.347387
0.542802 -1.346551 0.043264
0.541568 -1.346008 0.083266
0.530618 -1.335594 0.573359
0.540027 -1.343133 0.005282
0.524069 -1.332594 0.836374
0.533562 -1.343905 0.425268
0.536666 -1.354698 0.585177
0.536399 -1.347333 0.287234
0.525163 -1.328711 0.316379
0.534399 -1.344453 0.120239
0.532957 -1.339353 0.022281
0.530875 -1.335487 0.033313
0.530944 -1.338406 0.026279
0.530217 -1.341843 0.153245
0.527207 -1.336845 0.152283
0.520374 -1.329312 0.456353
0.529064 -1.346106 0.353206
0.515687 -1.328575 0.743357
0.526973 -1.339453 0.029240
0.516245 -1.337552 0.830263
0.529038 -1.347419 0.027161
0.514850 -1.332484 0.558289
0.509268 -1.327503 0.823334
0.522261 -1.343972 0.162168
0.512233 -1.334747 0.669255
0.519249 -1.342929 0.334176
0.514823 -1.339661 0.574206
0.506581 -1.327993 0.777306
0.507282 -1.325734 0.489311
0.514250 -1.336039 0.165208
0.512171 -1.340193 0.355163
0.501353 -1.328565 0.826269
0.505153 -1.331123 0.523238
0.516670 -1.343424 -0.064883
0.510309 -1.340084 0.168135
0.510467 -1.338867 -0.027867
0.504174 -1.345246 0.711083
0.507128 -1.345590 0.212054
0.506917 -1.347020 0.250039
0.504358 -1.345105 0.345053
0.503125 -1.340706 0.044070
0.503095 -1.354695 0.573954
0.503919 -1.345154 0.084027
0.503378 -1.343263 0.005038
0.493028 -1.334719 0.572121
0.495725 -1.334429 0.282116
0.489536 -1.333617 0.827133
0.495570 -1.338800 0.315067
0.489944 -1.330990 0.418130
0.496741 -1.340577 0.119036
0.496245 -1.338596 0.032048
0.498321 -1.343484 0.023004
0.495307 -1.340530 0.026019
0.494584 -1.341946 0.151009
0.494461 -1.348195 0.349953
0.484122 -1.334663 0.741078
0.492598 -1.339932 0.149020
0.487802 -1.337424 0.456045
0.490320 -1.338583 0.029010
0.481695 -1.338608 0.824024
0.491369 -1.342532 0.024970
0.487337 -1.352583 0.558874
0.475753 -1.332542 0.816055
0.485614 -1.341080 0.159962
0.484650 -1.343994 0.328937
0.471002 -1.323021 0.768131
0.477231 -1.333707 0.566029
0.482697 -1.350890 0.672874
0.475701 -1.332831 0.488023
0.479616 -1.337148 0.163969
0.479558 -1.344295 0.353902
0.478594 -1.348231 0.524866
0.467815 -1.331616 0.820015
0.478994 -1.341591 -0.062106
0.474679 -1.341209 0.167891
0.473801 -1.338018 -0.026095
0.463580 -1.332273 0.699970
0.467735 -1.340168 0.338873
0.468476 -1.339718 0.210872
0.468282 -1.342136 0.247846
0.463496 -1.343717 0.562825
0.465225 -1.336293 0.083880
0.466467 -1.339857 0.045843
0.466695 -1.339404 0.005846
0.464467 -1.348835 0.573772
0.451978 -1.324596 0.812995
0.461929 -1.337896 0.312860
0.464129 -1.342534 0.281818
0.463602 -1.342707 0.031791
0.463115 -1.344692 0.118772
0.461644 -1.340635 0.024802
0.460398 -1.348129 0.421741
0.462967 -1.349052 0.150723
0.460657 -1.341649 0.025784
0.457836 -1.344280 0.345763
0.448556 -1.331699 0.732884
0.458978 -1.343024 0.146768
0.451199 -1.334508 0.451844
0.445109 -1.329617 0.812893
0.453683 -1.334643 0.022820
0.455686 -1.340689 0.027763
0.439423 -1.324063 0.761917
0.450751 -1.347612 0.549697
0.442229 -1.335568 0.807805
0.450997 -1.343175 0.157716
0.449687 -1.350817 0.567655
0.446030 -1.336053 0.321782
0.441101 -1.331906 0.483813
0.443968 -1.343286 0.518702
0.447001 -1.342246 0.162702
0.438117 -1.332908 0.659798
0.437252 -1.336675 0.815762
0.443948 -1.343384 0.350686
0.442309 -1.338750 -0.059306
0.439020 -1.338332 0.167698
0.436100 -1.330161 -0.025242
0.433035 -1.343384 0.700648
0.431114 -1.335240 0.333699
0.432629 -1.338248 0.246666
0.431851 -1.338843 0.210651
0.430911 -1.345771 0.557595
0.420433 -1.328635 0.806749
0.428995 -1.330535 0.005712
0.432603 -1.342411 0.084603
0.427868 -1.342885 0.566610
0.429492 -1.340631 0.279621
0.430806 -1.339000 0.047629
0.430336 -1.344988 0.311579
0.421875 -1.324845 0.030735
0.428469 -1.344809 0.118553
0.431349 -1.355145 0.149454
0.414973 -1.329747 0.726696
0.425997 -1.340766 0.025576
0.424226 -1.345360 0.342540
0.421783 -1.341219 0.417579
0.420941 -1.328801 0.026683
0.413534 -1.331680 0.808671
0.424353 -1.343107 0.143549
0.419621 -1.342622 0.452553
0.422044 -1.341790 0.026541
0.419050 -1.334736 0.020603
0.412870 -1.339180 0.764577
0.414191 -1.344646 0.541503
0.411714 -1.345633 0.804499
0.414433 -1.340122 0.318538
0.411074 -1.337841 0.557564
0.417375 -1.344264 0.155494
0.412525 -1.343007 0.484507
0.408353 -1.336341 0.512561
0.415401 -1.349346 0.162424
0.408721 -1.349776 0.816434
0.408597 -1.349043 0.663429
0.408335 -1.340480 0.348499
0.409689 -1.344873 -0.057578
0.406423 -1.343433 0.167438
0.393160 -1.330992 0.918564
0.401467 -1.331291 -0.023469
0.394457 -1.331404 0.690548
0.397511 -1.334313 0.330503
0.400042 -1.343348 0.246407
0.395335 -1.340809 0.550433
0.394271 -1.339949 0.562438
0.396373 -1.333645 0.006476
0.392216 -1.327950 0.208533
0.395718 -1.341065 0.308412
0.387916 -1.332682 0.801503
0.389832 -1.324719 0.275562
0.396982 -1.341533 0.085395
0.392141 -1.329136 0.048506
0.391275 -1.330922 0.029478
0.393839 -1.341905 0.117375
0.392689 -1.342237 0.146366
0.387437 -1.343861 0.729365
0.382976 -1.334741 0.805450
0.385593 -1.331419 0.336464
0.389348 -1.334891 0.026421
0.389739 -1.340179 0.140372
0.388351 -1.333895 0.026426
0.386213 -1.340307 0.415372
0.378288 -1.329158 0.752481
0.386046 -1.343703 0.450335
0.384378 -1.331908 0.026425
0.384431 -1.332816 0.018414
0.380517 -1.343910 0.555308
0.380636 -1.344682 0.535298
0.372171 -1.327541 0.784466
0.381866 -1.343174 0.314304
0.382764 -1.342346 0.153306
0.374904 -1.329040 0.476439
0.377773 -1.339399 0.509340
0.371153 -1.334733 0.801378
0.378779 -1.343437 0.160270
0.369681 -1.323539 0.342460
0.368007 -1.331055 0.652389
0.370796 -1.338531 0.166279
0.369984 -1.330032 -0.054647
0.366825 -1.328405 -0.022644
0.364925 -1.343523 0.693231
0.358646 -1.332066 0.915344
0.366957 -1.342378 0.328225
0.363784 -1.344859 0.546196
0.361401 -1.330437 0.243323
0.362711 -1.344021 0.560201
0.359059 -1.326116 0.302363
0.355377 -1.331693 0.793318
0.359246 -1.329796 0.274320
0.361747 -1.331747 0.006290
0.359620 -1.331056 0.209302
0.360333 -1.333646 0.085266
0.358548 -1.333255 0.050257
0.356650 -1.328014 0.028304
0.355154 -1.326017 0.116326
0.350844 -1.329857 0.718306
0.359058 -1.339327 0.145198
0.350427 -1.333776 0.799266
0.352998 -1.331494 0.334268
0.353741 -1.347281 0.757126
0.356128 -1.338246 0.137193
0.355719 -1.335012 0.028218
0.353711 -1.329998 0.026264
0.351783 -1.329902 0.017253
0.346421 -1.325742 0.442305
0.351643 -1.341411 0.415153
0.351748 -1.330992 0.025241
0.347946 -1.343964 0.551113
0.343159 -1.330441 0.503236
0.350153 -1.342420 0.151111
0.347084 -1.343706 0.528109
0.345341 -1.337125 0.476170
0.338657 -1.327554 0.776266
0.347293 -1.342233 0.310109
0.342628 -1.346827 0.802070
0.342118 -1.331529 0.158189
0.340119 -1.332622 0.342180
0.336495 -1.343191 0.656064
0.339387 -1.339149 -0.051932
0.334149 -1.328633 0.165176
0.334186 -1.328522 -0.020838
0.329359 -1.335546 0.685112
0.329325 -1.327419 0.321175
0.321114 -1.320053 0.903260
0.331125 -1.344083 0.557014
0.329214 -1.339887 0.539049
0.329814 -1.334528 0.243090
0.328482 -1.332203 0.302114
0.327645 -1.331888 0.274110
0.327873 -1.348804 0.795960
0.328100 -1.327846 0.006137
0.327716 -1.334752 0.086062
0.329073 -1.343162 0.210984
0.323995 -1.324110 0.028158
0.318845 -1.329807 0.793126
0.324308 -1.345976 0.721966
0.324410 -1.331410 0.143086
0.325928 -1.334360 0.051053
0.324572 -1.333102 0.116065
0.316137 -1.325216 0.740159
0.320405 -1.330557 0.331088
0.321494 -1.331316 0.134070
0.320079 -1.328107 0.027089
0.322101 -1.335121 0.029021
0.320151 -1.335069 0.024010
0.319189 -1.332982 0.016027
0.313853 -1.327826 0.441091
0.317057 -1.338494 0.412985
0.313579 -1.334505 0.501018
0.314365 -1.340011 0.545963
0.310729 -1.328176 0.471071
0.313505 -1.330499 0.148034
0.312673 -1.333271 0.304010
0.313534 -1.343750 0.522913
0.307040 -1.330786 0.788046
0.311167 -1.345652 0.777899
0.308514 -1.332704 0.340996
0.309511 -1.331612 0.156999
0.299913 -1.331217 0.647989
0.303550 -1.333730 0.165942
0.304732 -1.334273 -0.050076
0.299745 -1.333491 0.319935
0.298811 -1.341636 0.684866
0.300554 -1.326630 -0.020009
0.297521 -1.336120 0.550911
0.297877 -1.333269 0.299926
0.290577 -1.326167 0.905015
0.297655 -1.341935 0.534844
0.291290 -1.328721 0.777979
0.296198 -1.331627 0.242930
0.295039 -1.329961 0.271945
0.296472 -1.328947 0.006943
0.294073 -1.329851 0.085926
0.294314 -1.352984 0.802720
0.287714 -1.328959 0.709951
0.293805 -1.334485 0.141876
0.291417 -1.328256 0.208939
0.290589 -1.342353 0.745816
0.292396 -1.327186 0.026942
0.291936 -1.330197 0.115912
0.292311 -1.334478 0.052860
0.287802 -1.327619 0.327936
0.287865 -1.325382 0.130945
0.287454 -1.327200 0.026914
0.288465 -1.332229 0.029862
0.282260 -1.327908 0.439910
0.286513 -1.331167 0.023863
0.286561 -1.331064 0.014864
0.285009 -1.342586 0.500762
0.283791 -1.342067 0.542765
0.278439 -1.321547 0.406959
0.283189 -1.344295 0.474731
0.280884 -1.327571 0.145882
0.279511 -1.344897 0.790729
0.280975 -1.342780 0.516739
0.280100 -1.334331 0.300813
0.274618 -1.330589 0.761863
0.275901 -1.328778 0.338856
0.276887 -1.328695 0.155848
0.270914 -1.329825 0.165803
0.269396 -1.344359 0.652667
0.271083 -1.331403 -0.047232
0.265226 -1.334683 0.679757
0.268920 -1.326730 -0.019188
0.267160 -1.332551 0.316763
0.267961 -1.343204 0.550664
0.268281 -1.337341 0.298713
0.265087 -1.339975 0.529683
0.264769 -1.346850 0.782623
0.265609 -1.336724 0.243700
0.263439 -1.331051 0.271756
0.257060 -1.326235 0.901826
0.265878 -1.335029 0.006702
0.258712 -1.332931 0.787750
0.256981 -1.326313 0.732811
0.261173 -1.345088 0.714618
0.262170 -1.331565 0.140732
0.263480 -1.335945 0.086685
0.261313 -1.331283 0.115729
0.260784 -1.328263 0.025753
0.259825 -1.332367 0.210716
0.257219 -1.331705 0.327718
0.258663 -1.329598 0.054728
0.256273 -1.326436 0.127757
0.254813 -1.323293 0.026777
0.256830 -1.332340 0.031685
0.254938 -1.330130 0.012698
0.249368 -1.323597 0.491781
0.254893 -1.331244 0.022686
0.251688 -1.333006 0.440682
0.252216 -1.342126 0.539589
0.249551 -1.331331 0.468692
0.245927 -1.331867 0.778691
0.246861 -1.323637 0.406760
0.249268 -1.326649 0.144718
0.247498 -1.330381 0.296678
0.249422 -1.345837 0.513529
0.247122 -1.349708 0.765492
0.244306 -1.328857 0.337681
0.245287 -1.329772 0.154661
0.239317 -1.331913 0.165605
0.234818 -1.335397 0.646580
0.237381 -1.345282 0.549473
0.236572 -1.334615 0.314571
0.238449 -1.330516 -0.045400
0.237293 -1.327839 -0.017374
0.234651 -1.328407 0.295630
0.234686 -1.341781 0.680508
0.233505 -1.338023 0.525533
0.229208 -1.330792 0.767612
0.232152 -1.346061 0.792455
0.231427 -1.341428 0.736499
0.232838 -1.333137 0.271565
0.232002 -1.332810 0.242562
0.225526 -1.330351 0.903608
0.232242 -1.330125 0.006575
0.225568 -1.325054 0.701652
0.230555 -1.330643 0.139570
0.229837 -1.330053 0.087569
0.230159 -1.329347 0.025574
0.228704 -1.330375 0.115562
0.226205 -1.327464 0.210589
0.226632 -1.333769 0.325528
0.220409 -1.328742 0.936601
0.227054 -1.331696 0.055533
0.226700 -1.334504 0.126504
0.225209 -1.329383 0.027547
0.222806 -1.336690 0.493488
0.224180 -1.327444 0.032564
0.223313 -1.328195 0.010549
0.222640 -1.346199 0.538382
0.223278 -1.331319 0.021514
0.218087 -1.326071 0.437580
0.218971 -1.333407 0.467503
0.218391 -1.344977 0.781392
0.218694 -1.332720 0.143483
0.216909 -1.331433 0.293501
0.214814 -1.330830 0.503513
0.214294 -1.325740 0.407561
0.211557 -1.332650 0.750494
0.213703 -1.328933 0.336515
0.214672 -1.330857 0.154484
0.207694 -1.330002 0.165458
0.206778 -1.342337 0.546342
0.205041 -1.329479 0.294460
0.204961 -1.330672 0.311447
0.205780 -1.324641 -0.042507
0.202108 -1.335822 0.675402
0.203271 -1.340510 0.648353
0.204658 -1.324940 -0.016515
0.203942 -1.343083 0.523317
0.198828 -1.328415 0.726474
0.199563 -1.334049 0.782418
0.201671 -1.343902 0.770315
0.202231 -1.333212 0.270401
0.199351 -1.322882 0.240501
0.199023 -1.342204 0.708316
0.201618 -1.331208 0.006400
0.199938 -1.330716 0.138407
0.192980 -1.326403 0.899480
0.199212 -1.330137 0.087406
0.199556 -1.332418 0.024376
0.198088 -1.331458 0.115387
0.189848 -1.326799 0.933461
0.195040 -1.332835 0.323372
0.193595 -1.324556 0.210450
0.192180 -1.329735 0.489405
0.195084 -1.331558 0.123371
0.195429 -1.331805 0.057364
0.194636 -1.337463 0.027293
0.193596 -1.334535 0.033322
0.191674 -1.324272 0.009427
0.191056 -1.343246 0.534248
0.191654 -1.330406 0.021358
0.189525 -1.336171 0.439314
0.185803 -1.331953 0.770369
0.188386 -1.334482 0.466329
0.188064 -1.329783 0.141356
0.186330 -1.333483 0.290316
0.184256 -1.332870 0.499329
0.182718 -1.327840 0.408371
0.184116 -1.334025 0.337302
0.183051 -1.347750 0.752173
0.184075 -1.333940 0.154289
0.178101 -1.336092 0.166234
0.175177 -1.336385 0.542245
0.175440 -1.331548 0.293282
0.175380 -1.334730 0.309247
0.172261 -1.339522 0.729209
0.170520 -1.329870 0.671306
0.173014 -1.350200 0.789096
0.176209 -1.336738 -0.040799
0.175074 -1.334027 -0.015772
0.170338 -1.330093 0.515290
0.170709 -1.338582 0.646205
0.168106 -1.330868 0.758289
0.171628 -1.334296 0.270230
0.168425 -1.335227 0.702236
0.169753 -1.326973 0.241301
0.170978 -1.330302 0.007251
0.169346 -1.333787 0.137213
0.168935 -1.332489 0.023217
0.167591 -1.329235 0.088253
0.161459 -1.331517 0.901259
0.167489 -1.334541 0.115194
0.164432 -1.330898 0.321236
0.158306 -1.324859 0.930321
0.160573 -1.321770 0.484333
0.163015 -1.330660 0.212223
0.164517 -1.338627 0.122132
0.163814 -1.332913 0.059189
0.158420 -1.326242 0.525274
0.164015 -1.338545 0.027123
0.161946 -1.330645 0.035204
0.162120 -1.335324 0.007149
0.158254 -1.344074 0.774089
0.161034 -1.330477 0.020200
0.156773 -1.327539 0.463246
0.156926 -1.331253 0.438203
0.157486 -1.334853 0.140141
0.154760 -1.335547 0.288131
0.153496 -1.330088 0.335191
0.153724 -1.340942 0.498081
0.152130 -1.329936 0.409191
0.154471 -1.337008 0.153102
0.149479 -1.332705 0.739172
0.146578 -1.339476 0.543065
0.147488 -1.337187 0.167066
0.144820 -1.327611 0.291172
0.141399 -1.333161 0.777129
0.139651 -1.320474 0.716261
0.143798 -1.334794 0.307086
0.139736 -1.324124 0.510203
0.139966 -1.333967 0.672105
0.141572 -1.349007 0.763948
0.143547 -1.329851 -0.038886
0.143427 -1.330125 -0.014887
0.139868 -1.344341 0.704989
0.141020 -1.333369 0.269086
0.138148 -1.336664 0.645063
0.140347 -1.329384 0.007107
0.138161 -1.328071 0.242130
0.137676 -1.322864 0.136179
0.138329 -1.334558 0.022040
0.136845 -1.330624 0.115084
0.135949 -1.324332 0.089150
0.132973 -1.325846 0.484148
0.134830 -1.331968 0.320075
0.128908 -1.324557 0.896175
0.132869 -1.329681 0.119076
0.132409 -1.332765 0.214046
0.132170 -1.329022 0.061075
0.133384 -1.337628 0.026980
0.128854 -1.330312 0.524080
0.126669 -1.333066 0.765056
0.127167 -1.325599 0.461121
0.132377 -1.341732 0.035929
0.131500 -1.335394 0.005995
0.130422 -1.331546 0.019035
0.127361 -1.338344 0.438974
0.126863 -1.332924 0.139011
0.123877 -1.328159 0.334065
0.123144 -1.328590 0.284053
0.121129 -1.329945 0.490044
0.122843 -1.332084 0.152002
0.119962 -1.343797 0.739899
0.119543 -1.326015 0.408074
0.116988 -1.339536 0.540918
0.114089 -1.336610 0.721951
0.115217 -1.328680 0.290014
0.114841 -1.349324 0.784815
0.116863 -1.335270 0.166937
0.112167 -1.324838 0.303044
0.110175 -1.328182 0.508012
0.112888 -1.325955 -0.036991
0.107988 -1.328938 0.749011
0.109400 -1.336064 0.672931
0.108262 -1.330332 0.695993
0.112817 -1.333215 -0.014073
0.110397 -1.329441 0.267980
0.108059 -1.322932 0.135033
0.108564 -1.332160 0.242938
0.109738 -1.331464 0.006934
0.106590 -1.339786 0.647873
0.107225 -1.331703 0.114927
0.103372 -1.323905 0.482026
0.107707 -1.334639 0.021889
0.106379 -1.334419 0.089890
0.105250 -1.338058 0.320861
0.100206 -1.337092 0.935895
0.098353 -1.326678 0.899002
0.103259 -1.330737 0.116919
0.099275 -1.332382 0.522913
0.100790 -1.328851 0.213937
0.102573 -1.336120 0.062851
0.099125 -1.347198 0.769762
0.101757 -1.335723 0.027849
0.101875 -1.335449 0.003850
0.101719 -1.336826 0.036836
0.097588 -1.329691 0.461931
0.100814 -1.335623 0.018844
0.096765 -1.338439 0.439825
0.096244 -1.330995 0.137885
0.094281 -1.331249 0.334887
0.092559 -1.328638 0.280905
0.091567 -1.335014 0.488843
0.092214 -1.329166 0.151887
0.087383 -1.326734 0.725936
0.088969 -1.330120 0.409881
0.087390 -1.338607 0.539786
0.085503 -1.337679 0.720802
0.085234 -1.341353 0.779763
0.086623 -1.333755 0.289819
0.086223 -1.330353 0.166847
0.082587 -1.328905 0.301856
0.080455 -1.345069 0.753696
0.079701 -1.339455 0.699753
0.080630 -1.337272 0.508767
0.078814 -1.332128 0.670830
0.083184 -1.334304 -0.013226
0.082285 -1.331056 -0.035195
0.079785 -1.327524 0.267856
0.078956 -1.334250 0.243774
0.079101 -1.328544 0.006822
0.078492 -1.332007 0.134789
0.075001 -1.332842 0.644802
0.074793 -1.328982 0.481833
0.078080 -1.334705 0.020748
0.077631 -1.337791 0.115717
0.074619 -1.330108 0.317806
0.076795 -1.343517 0.091646
0.069634 -1.328102 0.928853
0.069672 -1.329441 0.520806
0.072676 -1.334805 0.115728
0.068529 -1.335184 0.760754
0.067834 -1.337842 0.905731
0.068976 -1.328757 0.460807
0.072126 -1.335800 0.027708
0.070225 -1.337964 0.216689
0.070971 -1.338226 0.064678
0.070193 -1.334691 0.017711
0.070276 -1.335508 0.001701
0.070102 -1.335920 0.037698
0.065133 -1.325483 0.435824
0.066650 -1.335060 0.136699
0.064673 -1.330318 0.333759
0.062982 -1.333704 0.279709
0.062605 -1.330232 0.150737
0.060992 -1.334064 0.485711
0.058882 -1.348900 0.733551
0.058781 -1.337674 0.538664
0.058370 -1.329215 0.410749
0.056917 -1.336725 0.717679
0.055638 -1.332358 0.772728
0.056994 -1.329824 0.288726
0.055617 -1.330433 0.166704
0.052994 -1.330971 0.300696
0.051110 -1.340535 0.699608
0.051044 -1.338341 0.507618
0.049225 -1.330199 0.669715
0.048870 -1.331046 0.743709
0.051185 -1.332610 0.268666
0.052526 -1.329407 -0.011312
0.050606 -1.321173 -0.032229
0.049902 -1.340080 0.134565
0.049504 -1.334619 0.006616
0.047327 -1.326324 0.242718
0.046195 -1.330047 0.480689
0.048047 -1.345878 0.116489
0.047456 -1.332773 0.019629
0.043427 -1.328918 0.643701
0.045011 -1.329176 0.316681
0.046164 -1.341609 0.092527
0.040097 -1.339275 0.936590
0.041083 -1.331507 0.519652
0.039971 -1.344308 0.764519
0.040987 -1.314846 0.111811
0.039386 -1.330848 0.461647
0.036257 -1.325866 0.899723
0.041520 -1.337879 0.027544
0.039577 -1.330047 0.216639
0.040324 -1.333318 0.065594
0.040638 -1.333574 0.000587
0.040475 -1.338019 0.039539
0.040590 -1.338755 0.016529
0.035530 -1.324563 0.435700
0.035067 -1.330396 0.333624
0.037078 -1.344136 0.136461
0.032383 -1.330752 0.276603
0.033036 -1.340318 0.151487
0.030170 -1.336753 0.538545
0.029327 -1.340812 0.718508
0.029408 -1.326082 0.479659
0.029062 -1.348544 0.782423
0.026298 -1.327823 0.718643
0.028394 -1.333899 0.288550
0.026787 -1.328311 0.411616
0.025995 -1.330522 0.167569
0.021510 -1.333572 0.695554
0.023397 -1.332038 0.299550
0.021458 -1.337387 0.504496
0.020333 -1.345180 0.748420
0.019651 -1.333303 0.671547
0.021575 -1.332688 0.268533
0.022938 -1.337481 -0.011537
0.020994 -1.326270 -0.030419
0.017570 -1.325102 0.478617
0.020296 -1.343157 0.134397
0.019891 -1.338706 0.007437
0.017707 -1.325413 0.243597
0.017376 -1.333948 0.115488
0.017874 -1.340836 0.018404
0.015432 -1.334253 0.316491
0.012861 -1.332036 0.646530
0.015536 -1.339701 0.093413
0.011371 -1.339343 0.760449
0.009515 -1.324250 0.926625
0.011496 -1.331575 0.518520
0.012495 -1.341925 0.112375
0.009802 -1.333938 0.462481
0.011901 -1.340966 0.028377
0.006721 -1.343106 0.913397
0.010852 -1.340106 0.040384
0.010046 -1.336628 -0.001583
0.009722 -1.337418 0.067411
0.007954 -1.324142 0.217567
0.009987 -1.341833 0.016358
0.007517 -1.350523 0.338272
0.005974 -1.335685 0.439443
0.007444 -1.340191 0.134375
0.000721 -1.334846 0.714450
0.001575 -1.338829 0.538395
0.002810 -1.336817 0.275404
-0.000557 -1.330503 0.771499
0.003436 -1.345406 0.152299
-0.000132 -1.337170 0.480402
-0.001204 -1.335976 0.288397
-0.003207 -1.346970 0.724295
-0.003801 -1.329415 0.413470
-0.002578 -1.343616 0.169295
-0.007077 -1.335662 0.696406
-0.006175 -1.339114 0.299341
-0.009258 -1.337194 0.742383
-0.008120 -1.340466 0.504332
-0.008061 -1.326755 0.267472
-0.010941 -1.326364 0.669494
-0.007670 -1.340569 -0.010705
-0.011024 -1.328189 0.479458
-0.008604 -1.334366 -0.028640
-0.010344 -1.335214 0.132355
-0.010737 -1.336784 0.007326
-0.012883 -1.327504 0.244441
-0.013177 -1.336328 0.316344
-0.013242 -1.332027 0.115378
-0.012753 -1.337903 0.017306
-0.014123 -1.332778 0.093364
-0.017197 -1.345444 0.762256
-0.017715 -1.332142 0.648397
-0.017077 -1.340685 0.521293
-0.018807 -1.334015 0.462358
-0.018132 -1.335970 0.109312
-0.018730 -1.338044 0.028279
-0.019763 -1.341195 0.041240
-0.019555 -1.341691 -0.002768
-0.019638 -1.341897 0.015231
-0.024853 -1.327093 0.904444
-0.020958 -1.325521 0.069416
-0.022642 -1.327254 0.220401
-0.023153 -1.332572 0.335346
-0.024655 -1.324745 0.437437
-0.023145 -1.344269 0.134197
-0.027855 -1.337924 0.714293
-0.028119 -1.348702 0.782174
-0.028061 -1.324853 0.533429
-0.026190 -1.343471 0.151195
-0.027802 -1.331874 0.273330
-0.030679 -1.345263 0.481180
-0.030847 -1.327031 0.286374
-0.033784 -1.337975 0.717268
-0.032216 -1.339693 0.169215
-0.034409 -1.325507 0.414386
-0.036665 -1.332731 0.695315
-0.035808 -1.331158 0.296307
-0.037739 -1.330489 0.499322
-0.038829 -1.333218 0.737303
-0.037672 -1.326843 0.268346
-0.039630 -1.327253 0.478349
-0.040508 -1.332489 0.673300
-0.037297 -1.342655 -0.009854
-0.038249 -1.333464 -0.026754
-0.039964 -1.335290 0.132230
-0.040352 -1.339858 0.007167
-0.042501 -1.326592 0.245328
-0.042807 -1.329383 0.314300
-0.042853 -1.335114 0.116219
-0.042368 -1.340978 0.017147
-0.045769 -1.352556 0.765055
-0.045688 -1.337738 0.519207
-0.044722 -1.336878 0.095190
-0.048296 -1.330236 0.649292
-0.048420 -1.329082 0.461291
-0.047711 -1.344034 0.108096
-0.049428 -1.320123 0.028358
-0.049483 -1.322283 0.042334
-0.049186 -1.339743 -0.004869
-0.050380 -1.314977 0.015412
-0.051779 -1.329635 0.334262
-0.050556 -1.332618 0.071213
-0.052239 -1.332353 0.222220
-0.055393 -1.342336 0.918144
-0.054257 -1.323834 0.438326
-0.055761 -1.329654 0.771278
-0.052776 -1.341333 0.133109
-0.056447 -1.336990 0.713186
-0.055629 -1.342005 0.540119
-0.056802 -1.342550 0.151080
-0.058370 -1.336941 0.272147
-0.060294 -1.336284 0.476161
-0.059456 -1.329105 0.286233
-0.063334 -1.345066 0.718066
-0.060860 -1.337778 0.170119
-0.064266 -1.335828 0.697167
-0.064013 -1.325607 0.416265
-0.064427 -1.330221 0.295201
-0.067387 -1.347375 0.744025
-0.066321 -1.335564 0.499147
-0.065314 -1.323902 0.267268
-0.067261 -1.322304 0.476294
-0.069110 -1.332589 0.675183
-0.066960 -1.337753 -0.007918
-0.067874 -1.335561 -0.024894
-0.068595 -1.333352 0.131140
-0.069952 -1.344933 0.006992
-0.071387 -1.338480 0.316083
-0.071124 -1.326689 0.247215
-0.074362 -1.346590 0.761011
-0.071473 -1.336187 0.116094
-0.071076 -1.323040 0.016240
-0.074294 -1.334804 0.518129
-0.073434 -1.316952 0.095306
-0.077025 -1.327158 0.461201
-0.078855 -1.334376 0.654125
-0.077342 -1.337087 0.106060
-0.079361 -1.341753 0.338015
-0.078047 -1.320195 0.028245
-0.078158 -1.310368 0.043359
-0.078804 -1.337806 -0.005963
-0.078950 -1.326048 0.015173
-0.083323 -1.346856 0.781973
-0.083052 -1.337064 0.713082
-0.080869 -1.329450 0.224142
-0.080196 -1.326716 0.073165
-0.083245 -1.339080 0.540045
-0.082844 -1.327944 0.441167
-0.084980 -1.324317 0.909235
-0.082373 -1.341398 0.131992
-0.085434 -1.336613 0.150036
-0.087948 -1.336996 0.270030
-0.088070 -1.324168 0.285178
-0.090872 -1.326310 0.471156
-0.090476 -1.331855 0.170072
-0.092854 -1.329885 0.695124
-0.093878 -1.341105 0.713992
-0.094009 -1.328287 0.294108
-0.094574 -1.327723 0.419122
-0.095892 -1.333633 0.498054
-0.094891 -1.326003 0.269129
-0.095823 -1.328403 0.478113
-0.096964 -1.330332 0.733105
-0.098680 -1.328671 0.675113
-0.098164 -1.338427 0.130963
-0.097554 -1.335842 -0.007015
-0.097491 -1.333659 -0.022991
-0.100017 -1.326521 0.313106
-0.102935 -1.348692 0.762873
-0.099573 -1.340008 0.006930
-0.100714 -1.325777 0.248107
-0.102872 -1.335881 0.518002
-0.101089 -1.330263 0.116044
-0.101582 -1.340105 0.014922
-0.102969 -1.332050 0.097015
-0.105608 -1.328246 0.462075
-0.109417 -1.332483 0.656026
-0.109952 -1.329827 0.773063
-0.107892 -1.343154 0.104869
-0.107575 -1.336270 0.027943
-0.108961 -1.335820 0.336966
-0.108609 -1.343467 0.044858
-0.108492 -1.338111 0.013918
-0.111625 -1.337143 0.712968
-0.109377 -1.338861 -0.008096
-0.111832 -1.338158 0.539943
-0.109792 -1.327815 0.075035
-0.112394 -1.340092 0.446911
-0.111463 -1.324541 0.225078
-0.111957 -1.342463 0.130863
-0.115514 -1.338565 0.922952
-0.115028 -1.335689 0.149930
-0.116654 -1.326243 0.285042
-0.117534 -1.334051 0.267948
-0.120443 -1.322354 0.468086
-0.122402 -1.339036 0.700903
-0.120083 -1.326932 0.170013
-0.124411 -1.345202 0.714826
-0.123580 -1.329354 0.292980
-0.124414 -1.326480 0.478024
-0.124167 -1.324825 0.421040
-0.126497 -1.346518 0.741804
-0.125467 -1.328678 0.494996
-0.124475 -1.325080 0.269024
-0.128239 -1.331787 0.677963
-0.127169 -1.332929 -0.006097
-0.127767 -1.334493 0.129893
-0.128070 -1.337759 -0.021157
-0.131526 -1.335693 0.755911
-0.129592 -1.328611 0.313967
-0.129187 -1.336084 0.006860
-0.130311 -1.321854 0.248038
-0.132427 -1.341985 0.519818
-0.130669 -1.334351 0.116883
-0.131188 -1.338181 0.014829
-0.136303 -1.334865 0.943916
-0.133514 -1.342141 0.097781
-0.134200 -1.327334 0.462976
-0.139487 -1.354095 0.788671
-0.137572 -1.329885 0.335924
-0.137498 -1.339220 0.103799
-0.137177 -1.336357 0.028828
-0.140196 -1.341258 0.715811
-0.138227 -1.339556 0.045789
-0.139982 -1.329591 0.657942
-0.140410 -1.344283 0.543762
-0.139069 -1.339179 0.012787
-0.138994 -1.331914 -0.010130
-0.139408 -1.323914 0.076967
-0.142000 -1.329149 0.444924
-0.141561 -1.338529 0.129794
-0.141065 -1.321641 0.226998
-0.146071 -1.327618 0.919961
-0.144619 -1.335767 0.149816
-0.146227 -1.328322 0.284905
-0.148105 -1.331109 0.265865
-0.149636 -1.340045 0.172749
-0.150992 -1.331081 0.697886
-0.151943 -1.338487 0.471780
-0.152997 -1.326558 0.477915
-0.156055 -1.343567 0.738726
-0.155940 -1.341245 0.710751
-0.154149 -1.327424 0.291887
-0.154057 -1.326171 0.269900
-0.154736 -1.323931 0.422934
-0.156003 -1.337797 0.497775
-0.157811 -1.331905 0.680850
-0.157358 -1.334571 0.129780
-0.161072 -1.347858 0.762659
-0.157755 -1.334020 -0.005225
-0.157705 -1.330859 -0.019189
-0.159168 -1.329690 0.313843
-0.158815 -1.328160 0.006840
-0.161034 -1.332029 0.516824
-0.160871 -1.328982 0.251841
-0.161244 -1.335432 0.116755
-0.160801 -1.333246 0.013774
-0.163780 -1.327438 0.464863
-0.165140 -1.326006 0.774898
-0.164116 -1.339244 0.099699
-0.166173 -1.328974 0.336827
-0.168777 -1.338328 0.714737
-0.169014 -1.336339 0.541747
-0.168064 -1.341278 0.101661
-0.167755 -1.338437 0.028689
-0.167840 -1.336644 0.046711
-0.170540 -1.332734 0.662792
-0.169659 -1.338258 0.012683
-0.171578 -1.330253 0.446801
-0.170549 -1.335985 -0.011296
-0.169992 -1.325017 0.078840
-0.172134 -1.340611 0.129655
-0.171637 -1.324758 0.229848
-0.176619 -1.332799 0.927788
-0.174224 -1.331845 0.149751
-0.174839 -1.323399 0.284856
-0.179573 -1.334209 0.701744
-0.178674 -1.330180 0.264762
-0.179248 -1.334124 0.172708
-0.182509 -1.335560 0.470701
-0.181596 -1.319614 0.475889
-0.185622 -1.341653 0.738639
-0.183721 -1.330504 0.291742
-0.183638 -1.329274 0.271755
-0.187460 -1.353406 0.716494
-0.186556 -1.340894 0.498627
-0.185314 -1.322049 0.425844
-0.187382 -1.333024 0.683728
-0.186961 -1.331649 0.129705
-0.190638 -1.348967 0.764538
-0.187351 -1.337109 -0.004369
-0.188762 -1.325770 0.313780
-0.188304 -1.329962 -0.017291
-0.190603 -1.334124 0.517692
-0.189397 -1.329240 0.006715
-0.190470 -1.326073 0.252766
-0.190855 -1.330510 0.116703
-0.191386 -1.332315 0.012673
-0.195677 -1.349281 0.790518
-0.192752 -1.331320 0.099686
-0.194330 -1.335570 0.468658
-0.196379 -1.330372 0.711729
-0.195752 -1.332078 0.338684
-0.197607 -1.335431 0.542653
-0.197384 -1.329515 0.028685
-0.198430 -1.336737 0.047599
-0.199633 -1.340351 0.100556
-0.201102 -1.336891 0.668633
-0.199273 -1.333325 0.011633
-0.200146 -1.335040 -0.013392
-0.200557 -1.333122 0.080635
-0.202153 -1.328361 0.448712
-0.201743 -1.333666 0.127628
-0.201240 -1.321860 0.231775
-0.204792 -1.336940 0.150581
-0.203449 -1.317464 0.283822
-0.206193 -1.323885 0.927785
-0.209143 -1.334317 0.703637
-0.207873 -1.329212 0.173661
-0.209250 -1.326240 0.262698
-0.210183 -1.321717 0.477763
-0.212092 -1.328608 0.467675
-0.212255 -1.323351 0.271721
-0.216167 -1.342742 0.738517
-0.213313 -1.326573 0.290681
-0.216135 -1.339978 0.498531
-0.216055 -1.326313 0.701705
-0.219222 -1.350074 0.766423
-0.215880 -1.326181 0.429687
-0.217944 -1.334159 0.687606
-0.217532 -1.333721 0.128572
-0.216979 -1.330199 -0.003395
-0.218344 -1.325852 0.313674
-0.217918 -1.329063 -0.015386
-0.221159 -1.341257 0.521500
-0.219079 -1.324163 0.253686
-0.221312 -1.330250 0.781647
-0.219982 -1.330322 0.006594
-0.220457 -1.329602 0.117608
-0.221957 -1.324624 0.466687
-0.221968 -1.333386 0.011551
-0.223337 -1.333426 0.101553
-0.225944 -1.335505 0.715564
-0.224359 -1.330169 0.339605
-0.226199 -1.336536 0.544539
-0.227954 -1.335598 0.028506
-0.228038 -1.335829 0.048505
-0.229244 -1.333407 0.098532
-0.228885 -1.328392 0.010585
-0.232660 -1.337041 0.673520
-0.230175 -1.329225 0.082576
-0.230751 -1.329109 -0.014431
-0.231748 -1.324467 0.450653
-0.232323 -1.334750 0.127508
-0.231822 -1.321967 0.233666
-0.234399 -1.333020 0.150523
-0.234004 -1.325573 0.285621
-0.238719 -1.331415 0.704567
-0.236496 -1.323289 0.173630
-0.239758 -1.322813 0.478647
-0.240798 -1.330328 0.262540
-0.241848 -1.322445 0.272629
-0.244755 -1.332778 0.734533
-0.243636 -1.328686 0.466564
-0.243879 -1.330671 0.291528
-0.244741 -1.324988 0.492606
-0.248795 -1.347161 0.766354
-0.249553 -1.347542 0.712343
-0.247530 -1.331279 0.690537
-0.245480 -1.319275 0.430665
-0.247145 -1.327801 0.128538
-0.248779 -1.332313 0.519509
-0.251869 -1.347493 0.794341
-0.247930 -1.326947 0.314559
-0.247577 -1.329293 -0.002490
-0.248518 -1.329169 -0.013493
-0.249588 -1.329402 0.006502
-0.250061 -1.328694 0.118517
-0.249667 -1.322271 0.255603
-0.253545 -1.332585 0.715504
-0.252524 -1.327746 0.469545
-0.254796 -1.338654 0.547416
-0.252562 -1.330457 0.010480
-0.252970 -1.327261 0.340540
-0.251983 -1.322514 0.102581
-0.257569 -1.331678 0.028450
-0.258639 -1.334935 0.050410
-0.259470 -1.330475 0.010456
-0.259832 -1.331480 0.097450
-0.261316 -1.336171 -0.016618
-0.262312 -1.334626 0.456431
-0.258827 -1.317324 0.084617
-0.262253 -1.330150 0.675500
-0.261936 -1.327819 0.126488
-0.263385 -1.328103 0.237488
-0.264011 -1.327101 0.150491
-0.263602 -1.321656 0.285566
-0.267312 -1.329522 0.706492
-0.267077 -1.324386 0.174514
-0.268355 -1.321906 0.479561
-0.271378 -1.327402 0.261471
-0.272426 -1.324554 0.274501
-0.275179 -1.335802 0.468375
-0.275417 -1.331170 0.760450
-0.274452 -1.331758 0.291412
-0.277279 -1.342947 0.740305
-0.275304 -1.330113 0.495443
-0.278487 -1.332502 0.788426
-0.277156 -1.325493 0.701506
-0.278022 -1.333475 0.439391
-0.277375 -1.328384 0.518458
-0.278097 -1.330405 0.693445
-0.277517 -1.331055 0.316412
-0.276754 -1.321871 0.127508
-0.278176 -1.328388 -0.001583
-0.278142 -1.325272 -0.011547
-0.279669 -1.324776 0.118464
-0.280246 -1.326393 0.258453
-0.280185 -1.327486 0.006422
-0.283092 -1.333883 0.473372
-0.283399 -1.333737 0.547378
-0.284107 -1.335724 0.719365
-0.283539 -1.334384 0.343355
-0.283154 -1.329529 0.009388
-0.282575 -1.321610 0.103490
-0.289236 -1.335032 0.051307
-0.289153 -1.331777 0.029344
-0.290067 -1.327548 0.009389
-0.290422 -1.327541 0.095394
-0.290394 -1.325448 0.087418
-0.290929 -1.321684 0.454488
-0.291917 -1.331231 -0.018662
-0.293812 -1.331302 0.680382
-0.292518 -1.329905 0.126362
-0.292634 -1.322181 0.150454
-0.293978 -1.328225 0.240385
-0.294175 -1.324755 0.286429
-0.296892 -1.331658 0.710370
-0.296682 -1.324493 0.176416
-0.297944 -1.319004 0.480498
-0.302936 -1.331494 0.261320
-0.307955 -1.349411 0.772131
-0.302028 -1.321650 0.275439
-0.304883 -1.325946 0.733413
-0.304055 -1.324830 0.290396
-0.307842 -1.341269 0.500207
-0.307083 -1.332635 0.792332
-0.307724 -1.338922 0.470232
-0.306697 -1.324501 0.694421
-0.307117 -1.327140 0.316361
-0.309918 -1.338552 0.524234
-0.312648 -1.346744 0.713143
-0.307336 -1.323957 0.127384
-0.309598 -1.330602 0.442322
-0.308744 -1.326380 -0.009659
-0.308777 -1.326473 -0.001660
-0.312990 -1.338884 0.552222
-0.312700 -1.331810 0.719318
-0.310264 -1.323873 0.119375
-0.311817 -1.330519 0.261303
-0.310724 -1.321950 0.472422
-0.312157 -1.330478 0.344308
-0.311764 -1.329575 0.006295
-0.313750 -1.327603 0.008312
-0.313167 -1.321708 0.104390
-0.318859 -1.330126 0.052269
-0.319751 -1.330863 0.029256
-0.320657 -1.328623 0.008278
-0.321990 -1.330620 0.094257
-0.320993 -1.325558 0.089319
-0.321516 -1.320820 0.458400
-0.323499 -1.331308 -0.019765
-0.323108 -1.327981 0.125286
-0.325381 -1.329455 0.685303
-0.323593 -1.323332 0.242348
-0.323774 -1.321840 0.286368
-0.325185 -1.329287 0.151266
-0.326481 -1.326770 0.712333
-0.327271 -1.325593 0.177305
-0.328518 -1.322130 0.483365
-0.335559 -1.334424 0.766219
-0.334694 -1.329743 0.794279
-0.333524 -1.327570 0.260269
-0.333600 -1.323766 0.277314
-0.337422 -1.336129 0.740191
-0.334635 -1.325920 0.290287
-0.336449 -1.331318 0.497233
-0.338524 -1.334637 0.524189
-0.339250 -1.332707 0.703223
-0.339286 -1.333992 0.468190
-0.337702 -1.324228 0.316299
-0.336951 -1.318041 0.127360
-0.338396 -1.324568 -0.000731
-0.339206 -1.323712 0.444310
-0.342586 -1.336997 0.554151
-0.338376 -1.320486 -0.007683
-0.341300 -1.326908 0.720286
-0.344197 -1.339805 0.710124
-0.342741 -1.330580 0.345211
-0.340319 -1.318048 0.473375
-0.343396 -1.331635 0.263190
-0.341842 -1.323964 0.119275
-0.343349 -1.330665 0.006183
-0.343369 -1.321674 0.007289
-0.344747 -1.325823 0.106243
-0.349369 -1.327947 0.029198
-0.348487 -1.323220 0.053258
-0.353223 -1.331705 0.007140
-0.352585 -1.326684 0.092208
-0.352099 -1.321947 0.461292
-0.352591 -1.325695 0.093219
-0.354688 -1.329072 0.125176
-0.356062 -1.335379 -0.021914
-0.353103 -1.314814 0.709391
-0.354798 -1.325372 0.151221
-0.354361 -1.321942 0.287273
-0.355180 -1.324471 0.246237
-0.356957 -1.329634 0.692204
-0.357862 -1.330707 0.179151
-0.359100 -1.324257 0.486246
-0.365279 -1.338957 0.804077
-0.368119 -1.346656 0.776975
-0.366016 -1.328193 0.738197
-0.364195 -1.322879 0.279231
-0.366087 -1.326666 0.260179
-0.366213 -1.325025 0.291201
-0.368124 -1.329738 0.525156
-0.369002 -1.333441 0.499108
-0.368847 -1.327832 0.706190
-0.371200 -1.337119 0.557063
-0.369275 -1.328347 0.318154
-0.368525 -1.322134 0.127216
-0.367895 -1.317016 0.463303
-0.370886 -1.328035 0.723183
-0.369987 -1.326671 0.000148
-0.370786 -1.325866 0.449189
-0.370950 -1.326605 -0.005854
-0.372350 -1.328692 0.347143
-0.371892 -1.323203 0.478219
-0.373425 -1.329081 0.121119
-0.376744 -1.339930 0.712024
-0.373952 -1.331754 0.006077
-0.372032 -1.320728 0.264232
-0.374953 -1.322754 0.006180
-0.375357 -1.322935 0.108184
-0.379088 -1.325322 0.054141
-0.380961 -1.327039 0.029113
-0.382853 -1.323789 0.007145
-0.386640 -1.336160 0.470021
-0.384182 -1.325800 0.094123
-0.386380 -1.329479 0.152078
-0.386144 -1.328783 0.092082
-0.386275 -1.328166 0.125091
-0.388634 -1.335117 0.725047
-0.386675 -1.327442 -0.023912
-0.385942 -1.323060 0.289165
-0.386771 -1.323600 0.249153
-0.387484 -1.324804 0.180132
-0.387544 -1.322762 0.695194
-0.392648 -1.334433 0.492026
-0.392894 -1.331043 0.804088
-0.394739 -1.331679 0.772073
-0.395774 -1.326999 0.281089
-0.401545 -1.345462 0.750888
-0.397790 -1.328132 0.292070
-0.397664 -1.327762 0.260073
-0.398710 -1.329855 0.527065
-0.398604 -1.326530 0.499102
-0.401790 -1.338250 0.559959
-0.400857 -1.333479 0.321000
-0.398446 -1.321958 0.709172
-0.401468 -1.329179 0.727079
-0.401961 -1.327805 0.349066
-0.399126 -1.317211 0.126184
-0.401441 -1.324168 0.467120
-0.399622 -1.317766 0.001166
-0.401570 -1.323717 -0.003910
-0.404350 -1.331052 0.456029
-0.406437 -1.334407 0.485985
-0.403620 -1.321859 0.267126
-0.408305 -1.337029 0.711965
-0.404036 -1.322170 0.121110
-0.405553 -1.327845 0.006030
-0.407937 -1.326056 0.110052
-0.408514 -1.325842 0.005045
-0.410684 -1.326427 0.055036
-0.411571 -1.325129 0.029047
-0.413813 -1.319909 0.096107
-0.416414 -1.328878 0.005987
-0.417243 -1.330289 0.473002
-0.416247 -1.322166 0.722120
-0.415894 -1.322240 0.124076
-0.417734 -1.327866 0.091001
-0.416987 -1.324569 0.152047
-0.414566 -1.315133 0.288176
-0.420059 -1.330928 0.181965
-0.419254 -1.327516 -0.026008
-0.418370 -1.321741 0.253084
-0.419123 -1.322932 0.701101
-0.427452 -1.350346 0.819760
-0.416322 -1.310417 0.485242
-0.425315 -1.331812 0.774986
-0.426369 -1.323104 0.282050
-0.428152 -1.326450 0.743039
-0.432259 -1.340036 0.532850
-0.430404 -1.333363 0.561937
-0.430352 -1.329247 0.292966
-0.433135 -1.336702 0.503885
-0.430462 -1.327571 0.320988
-0.430227 -1.325863 0.260004
-0.431058 -1.326309 0.730032
-0.434968 -1.337245 0.722890
-0.432549 -1.323912 0.350028
-0.432674 -1.323330 0.127018
-0.435970 -1.331328 0.470939
-0.434162 -1.325888 0.001974
-0.433956 -1.324180 0.459029
-0.432180 -1.317832 -0.001925
-0.437021 -1.331528 0.487935
-0.435199 -1.322994 0.270025
-0.436598 -1.326286 0.121971
-0.435169 -1.319935 0.006042
-0.438865 -1.329105 0.709975
-0.439517 -1.324167 0.110987
-0.439108 -1.318925 0.004043
-0.442267 -1.325551 0.056959
-0.445121 -1.328249 0.029917
-0.450790 -1.336472 0.478837
-0.447362 -1.325055 0.098954
-0.447002 -1.322964 0.004973
-0.447568 -1.322669 0.151986
-0.451774 -1.335441 0.734865
-0.450419 -1.330368 0.124884
-0.449088 -1.324285 0.290973
-0.451091 -1.329341 0.812946
-0.450286 -1.326961 0.089922
-0.451632 -1.330056 0.183889
-0.448856 -1.318598 -0.026983
-0.449941 -1.321881 0.255996
-0.452675 -1.328176 0.711948
-0.450847 -1.321619 0.492014
-0.456881 -1.332991 0.780884
-0.457942 -1.323245 0.284960
-0.461972 -1.334518 0.565835
-0.464817 -1.341195 0.536746
-0.463670 -1.335680 0.751830
-0.461920 -1.328365 0.293889
-0.459648 -1.319406 0.730034
-0.463017 -1.329705 0.322872
-0.464701 -1.334833 0.505819
-0.463763 -1.327977 0.259886
-0.461581 -1.319297 0.720029
-0.466096 -1.334088 0.354813
-0.465230 -1.322439 0.126938
-0.463761 -1.316960 -0.000002
-0.462657 -1.312575 0.485089
-0.464539 -1.318317 0.462014
-0.464758 -1.318999 0.002971
-0.467760 -1.325140 0.272909
-0.466203 -1.319395 0.122971
-0.469501 -1.329442 0.470868
-0.468715 -1.322049 0.005924
-0.477353 -1.344372 0.720687
-0.470111 -1.319292 0.112961
-0.473637 -1.324031 0.002886
-0.471872 -1.317649 0.056971
-0.476700 -1.324355 0.029876
-0.480688 -1.329515 0.818862
-0.478948 -1.324197 0.101877
-0.476404 -1.314452 0.729047
-0.481375 -1.328599 0.480846
-0.479563 -1.321062 0.003906
-0.481115 -1.324796 0.152868
-0.478683 -1.316384 0.290985
-0.482223 -1.326171 0.184851
-0.483963 -1.330471 0.123790
-0.481524 -1.320036 0.259932
-0.481860 -1.321055 0.088906
-0.484395 -1.325795 0.496873
-0.483384 -1.322693 -0.029127
-0.482259 -1.315287 0.713020
-0.486463 -1.328106 0.781861
-0.492561 -1.334673 0.569750
-0.493469 -1.332418 0.288753
-0.491440 -1.325248 0.533863
-0.494241 -1.330799 0.752805
-0.494188 -1.327635 0.738842
-0.494590 -1.326826 0.323820
-0.497676 -1.335234 0.357713
-0.500227 -1.342019 0.510637
-0.494477 -1.324477 0.293846
-0.492164 -1.315462 0.724992
-0.496321 -1.324089 0.259843
-0.498189 -1.323797 0.492859
-0.496807 -1.318547 0.126898
-0.492398 -1.305100 0.004062
-0.491404 -1.302073 0.002101
-0.499085 -1.320520 0.468894
-0.498353 -1.317268 0.274921
-0.505028 -1.336628 0.475686
-0.500741 -1.323528 0.123828
-0.502269 -1.324165 0.005807
-0.503668 -1.321433 0.114844
-0.506921 -1.328415 0.715797
-0.503243 -1.316119 0.001901
-0.499510 -1.302750 0.058075
-0.503351 -1.308441 0.029995
-0.509288 -1.322639 0.820868
-0.508972 -1.317663 0.736922
-0.510539 -1.321341 0.104826
-0.508995 -1.315693 0.480926
-0.505228 -1.301144 0.004075
-0.517757 -1.336334 0.187633
-0.512697 -1.320917 0.153829
-0.512237 -1.319538 0.293858
-0.513568 -1.319560 0.122841
-0.508164 -1.302123 0.260075
-0.515410 -1.321161 0.087814
-0.520020 -1.332322 0.789721
-0.515950 -1.318782 -0.031168
-0.516816 -1.321553 0.724854
-0.515793 -1.314293 -0.073116
-0.520180 -1.323769 0.569806
-0.525987 -1.332445 0.539685
-0.515164 -1.299437 0.285091
-0.521791 -1.315709 0.736911
-0.527158 -1.327966 0.325719
-0.526291 -1.325333 0.357756
-0.525801 -1.323923 0.753803
-0.526846 -1.323051 0.505793
-0.528029 -1.324608 0.294755
-0.526716 -1.319705 0.734850
-0.530884 -1.323231 0.002742
-0.530859 -1.323212 0.259762
-0.527786 -1.314912 0.493887
-0.523827 -1.302734 -0.036996
-0.524432 -1.302616 0.125016
-0.533853 -1.328267 0.004674
-0.526971 -1.306378 0.275975
-0.522836 -1.292715 -0.037873
-0.526399 -1.302599 0.123011
-0.530667 -1.314679 0.472881
-0.526949 -1.300243 0.006029
-0.529708 -1.304628 -0.048035
-0.529329 -1.301517 0.115016
-0.538008 -1.319917 0.059767
-0.541460 -1.328600 0.720704
-0.542865 -1.330906 0.832681
-0.533839 -1.305212 0.000951
-0.542832 -1.325588 0.029684
-0.535586 -1.304510 -0.060050
-0.542131 -1.317476 0.106790
-0.541539 -1.316852 0.742846
-0.537568 -1.304541 -0.058055
-0.544541 -1.320918 0.488771
-0.539460 -1.304367 0.184960
-0.548651 -1.328286 0.001635
-0.542306 -1.311020 0.153870
-0.544805 -1.317667 0.294794
-0.545567 -1.316048 0.499827
-0.547127 -1.318681 0.122763
-0.553590 -1.336554 0.798582
-0.549644 -1.324386 0.268699
-0.545354 -1.308222 -0.088122
-0.552916 -1.328288 0.086630
-0.547537 -1.311881 -0.032168
-0.552755 -1.325948 0.574695
-0.553357 -1.326830 0.736695
-0.557571 -1.329596 0.542636
-0.556638 -1.321677 0.291715
-0.552375 -1.310856 0.739890
-0.558869 -1.325488 0.360669
-0.552806 -1.308030 0.323892
-0.563329 -1.335196 0.764571
-0.562580 -1.327760 0.296627
-0.564368 -1.332274 0.512584
-0.559291 -1.318908 0.741776
-0.561351 -1.316095 0.498786
-0.557550 -1.304356 0.005900
-0.567387 -1.329372 0.261592
-0.557550 -1.303355 0.005912
-0.565903 -1.322809 0.127665
-0.565488 -1.320606 0.282705
-0.563250 -1.313869 0.478806
-0.568861 -1.326810 0.126609
-0.568413 -1.319401 0.005691
-0.564876 -1.308684 0.117838
-0.571137 -1.323868 0.475665
-0.576443 -1.336151 0.842531
-0.564664 -1.303019 0.060902
-0.574312 -1.321343 -0.001348
-0.577986 -1.331810 0.726571
-0.570475 -1.309684 0.029805
-0.573126 -1.316041 0.748775
-0.566813 -1.293581 0.109014
-0.573156 -1.310033 0.489828
-0.576986 -1.317557 0.188705
-0.580816 -1.325191 0.155600
-0.571356 -1.299358 0.001925
-0.578145 -1.315216 0.503754
-0.587161 -1.337764 0.805481
-0.582673 -1.322825 0.123622
-0.581241 -1.318536 0.271688
-0.586334 -1.331159 0.581546
-0.586483 -1.324399 0.085590
-0.588014 -1.327001 -0.035454
-0.585937 -1.322034 0.743670
-0.580941 -1.303478 -0.077155
-0.588164 -1.321721 0.543653
-0.584955 -1.312062 0.746793
-0.587494 -1.316604 0.361703
-0.587243 -1.314813 0.293720
-0.595284 -1.331279 0.330503
-0.594911 -1.330351 0.767548
-0.593968 -1.321372 0.511640
-0.597140 -1.327914 0.298537
-0.594851 -1.323174 0.752634
-0.589986 -1.303011 -0.034169
-0.593931 -1.313264 0.502738
-0.596070 -1.315526 0.007667
-0.597054 -1.316519 0.006653
-0.598481 -1.317918 0.126641
-0.602932 -1.328518 0.262512
-0.600055 -1.320783 0.286615
-0.595833 -1.309049 0.483782
-0.599468 -1.315921 0.126663
-0.605063 -1.329296 0.845541
-0.596058 -1.302498 0.005825
-0.596852 -1.302886 -0.047186
-0.595481 -1.298806 0.118880
-0.606149 -1.322206 0.062565
-0.608662 -1.329060 0.479507
-0.605037 -1.310814 0.029704
-0.605908 -1.312446 -0.002321
-0.607690 -1.317268 0.756674
-0.613522 -1.329982 0.729503
-0.612546 -1.323729 0.191541
-0.609291 -1.314796 0.112651
-0.606477 -1.305269 0.154777
-0.614812 -1.321519 0.000547
-0.616758 -1.327877 0.805526
-0.614913 -1.321991 0.299564
-0.611716 -1.314392 0.507680
-0.620909 -1.335376 0.588408
-0.619213 -1.326966 0.123479
-0.616807 -1.320743 0.277573
-0.619520 -1.320270 0.752608
-0.623723 -1.326931 0.549501
-0.621512 -1.320336 0.757602
-0.624044 -1.323806 0.366524
-0.623791 -1.319002 0.297578
-0.627872 -1.326427 0.332480
-0.630456 -1.329549 0.772469
-0.627436 -1.319370 0.758599
-0.638640 -1.343139 0.303249
-0.630512 -1.323573 0.516522
-0.627509 -1.312453 0.507664
-0.629674 -1.309905 0.287673
-0.636662 -1.327491 0.851485
-0.629414 -1.307250 0.489721
-0.630077 -1.306035 0.126707
-0.640463 -1.329676 0.263404
-0.639736 -1.321347 0.063492
-0.634011 -1.307993 0.121673
-0.645203 -1.328238 0.482427
-0.638291 -1.310434 0.760681
-0.645138 -1.318866 0.192519
-0.647087 -1.324149 0.732491
-0.642881 -1.311960 0.115603
-0.642298 -1.310453 0.502652
-0.649955 -1.324480 0.157436
-0.655311 -1.338198 0.819307
-0.646556 -1.317448 0.586563
-0.647500 -1.315128 0.300567
-0.648415 -1.313899 0.280578
-0.651805 -1.320091 0.123482
-0.658298 -1.327127 0.554414
-0.655653 -1.319964 0.369493
-0.656080 -1.320544 0.763515
-0.656078 -1.318544 0.763540
-0.656384 -1.314152 0.299557
-0.660467 -1.322578 0.334447
-0.666021 -1.331774 0.779356
-0.662019 -1.318626 0.768525
-0.664087 -1.319729 0.518487
-0.666276 -1.323218 0.301423
-0.662088 -1.312661 0.513578
-0.671254 -1.331760 0.862350
-0.668217 -1.316130 0.293504
-0.669950 -1.318555 0.501486
-0.679990 -1.334871 0.266245
-0.674858 -1.313712 0.771554
-0.681753 -1.326420 0.485360
-0.680714 -1.321043 0.195406
-0.686107 -1.330741 0.597306
-0.684918 -1.327316 0.819367
-0.683634 -1.323356 0.737413
-0.685052 -1.318327 0.304438
-0.684980 -1.314104 0.285488
-0.693870 -1.328331 0.559314
-0.695193 -1.329198 0.375286
-0.687678 -1.312718 0.767535
-0.689669 -1.314773 0.771506
-0.691955 -1.313330 0.302482
-0.698018 -1.324766 0.337330
-0.702579 -1.331007 0.786278
-0.695607 -1.313844 0.775503
-0.700873 -1.321915 0.865399
-0.705809 -1.328416 0.304265
-0.700643 -1.318925 0.522410
-0.698656 -1.314893 0.520464
-0.702804 -1.312316 0.297468
-0.702552 -1.309744 0.506516
-0.710432 -1.312953 0.779480
-0.717717 -1.323905 0.600315
-0.717521 -1.323521 0.825337
-0.721286 -1.327643 0.490252
-0.714442 -1.310910 0.516475
-0.717426 -1.312982 0.521443
-0.726149 -1.330665 0.748223
-0.722609 -1.319517 0.307334
-0.723545 -1.320347 0.292321
-0.730780 -1.330392 0.379187
-0.729450 -1.327538 0.564240
-0.720271 -1.306899 0.771530
-0.723265 -1.309006 0.779498
-0.736574 -1.328974 0.341188
-0.728527 -1.312528 0.306406
-0.741136 -1.334276 0.795148
-0.738459 -1.329240 0.879222
-0.731193 -1.313111 0.785430
-0.741189 -1.326203 0.531226
-0.748137 -1.339284 0.535050
-0.746089 -1.324095 0.520240
-0.753316 -1.326150 0.608205
-0.749995 -1.319275 0.792311
-0.761062 -1.336910 0.842073
-0.762817 -1.332891 0.496091
-0.757974 -1.323239 0.528224
-0.759957 -1.323271 0.530219
-0.761709 -1.322838 0.750237
-0.773976 -1.339872 0.575986
-0.758837 -1.310194 0.782402
-0.762834 -1.312351 0.794367
-0.771077 -1.325462 0.886194
-0.779695 -1.333536 0.803069
-0.767775 -1.311384 0.795368
-0.770818 -1.311337 0.532341
-0.779746 -1.326416 0.535135
-0.780690 -1.317312 0.526245
-0.784936 -1.317320 0.611242
-0.783600 -1.312500 0.799319
-0.797645 -1.334163 0.850024
-0.788605 -1.311403 0.531300
-0.796406 -1.320032 0.496173
-0.792564 -1.312432 0.532279
-0.801619 -1.321964 0.574144
-0.803248 -1.325126 0.759115
-0.798403 -1.313496 0.793273
-0.808670 -1.327769 0.898081
-0.799426 -1.309639 0.805319
-0.803370 -1.306645 0.804347
-0.816272 -1.327767 0.809058
-0.809390 -1.310587 0.539264
-0.824515 -1.322601 0.620088
-0.819197 -1.308751 0.807286
-0.832254 -1.329398 0.857006
-0.838976 -1.317819 0.805130
-0.848772 -1.331472 0.770937
-0.841998 -1.315042 0.823159
-0.844948 -1.312020 0.820190
-0.855844 -1.327050 0.817980
-0.859775 -1.311087 0.820170
-0.867854 -1.323629 0.862999
-0.874576 -1.311051 0.811137
-0.882370 -1.317634 0.772035
-0.877604 -1.306308 0.832192
-0.901394 -1.334426 0.831790
-0.297811 2.459890 2.173566
-0.223238 1.835552 1.671259
-0.351569 3.020941 2.635152
-0.221084 1.917645 1.667232
-0.340708 3.038176 2.626369
-0.329007 3.071597 2.602776
-0.196777 1.901625 1.694080
-0.200716 1.987702 1.685090
-0.189530 1.884937 1.674892
-0.189917 1.915230 1.735253
-0.182582 1.895141 1.665022
-0.182799 2.001324 1.736280
-0.175811 1.920180 1.669327
-0.167232 1.964289 1.669860
-0.158144 1.955614 1.736775
-0.149669 1.920093 1.704365
-0.157237 2.055574 1.742956
-0.147702 1.921777 1.733390
-0.205164 2.839841 1.768142
-0.143039 1.957061 1.714811
-0.175768 2.464332 1.665746
-0.188352 2.773065 1.765375
-0.135434 1.995970 1.731282
-0.166306 2.516415 1.669372
-0.135548 2.005922 1.735399
-0.175277 2.948042 1.783454
-0.154968 2.579451 1.679129
-0.125038 2.056044 1.737004
-0.113809 1.952237 1.730796
-0.108767 1.951289 1.731791
-0.143310 2.701280 1.707581
-0.106498 1.928293 1.733523
-0.107907 2.053187 1.742994
-0.125787 2.570150 1.735060
-0.100058 1.982376 1.734169
-0.112340 2.624305 1.736714
-0.089192 2.000501 1.735397
-0.089269 2.007536 1.732480
-0.102902 2.854555 1.728436
-0.096959 2.684460 1.740441
-0.078760 2.761732 1.737372
-0.074073 2.707400 1.684734
-0.068480 2.565880 1.733079
-0.064979 2.700184 1.712662
2.102145 2.740913 1.662092
2.265934 2.915130 1.664158
2.102001 2.619607 1.615634
2.228718 2.658844 1.668087
2.256076 2.575640 1.645079
2.146912 2.187443 1.739434
2.106161 2.043949 1.663708
2.110727 1.951617 1.626588
2.170590 1.911549 1.632084
2.248389 1.936121 1.766364
