# .PCD v0.7 - Point Cloud Data file format
VERSION 0.7
FIELDS x y z
SIZE 4 4 4
TYPE F F F
COUNT 1 1 1
WIDTH 46
HEIGHT 1
VIEWPOINT 0 0 0 1
POINTS 46
DATA ascii
-0.622388 -1.674644 1.647744
-0.614439 -1.623950 1.590172
-0.626601 -1.572040 1.563490
-0.623284 -1.719609 1.665619
-0.583442 -1.577903 1.539470
-0.580406 -1.489682 1.520003
-0.613948 -1.510064 1.625892
-0.635502 -1.572027 1.554621
-0.626626 -1.610928 1.571398
-0.653292 -1.536358 1.547848
-0.642220 -1.493523 1.624121
-0.610113 -1.543176 1.514821
-0.632475 -1.706361 1.624869
-0.612510 -1.480249 1.522198
-0.630419 -1.662816 1.551167
-0.665860 -1.551501 1.549881
-0.657033 -1.588374 1.561671
-0.689391 -1.527046 1.559049
-0.664801 -1.462751 1.606432
-0.592172 -1.490264 1.626259
-0.612061 -1.449931 1.668509
-0.644262 -1.531757 1.514032
-0.653610 -1.651391 1.581331
-0.643677 -1.467775 1.522409
-0.657269 -1.620037 1.519566
-0.605359 -1.479534 1.636388
-0.734265 -1.619369 1.637631
-0.688346 -1.569866 1.556916
-0.893100 -1.899729 2.116035
-0.850487 -1.881626 2.260140
-0.848094 -1.944610 2.265779
-0.631004 -1.493022 1.638388
-0.681466 -1.472554 1.540515
-0.690685 -1.644058 1.584513
-0.638453 -1.427268 1.655778
-0.683120 -1.533524 1.527161
-0.629927 -1.448756 1.611707
-0.692575 -1.601584 1.511822
-0.821504 -1.787054 1.792798
-0.893306 -1.933430 2.271985
-0.726825 -1.633691 1.586710
-0.863879 -1.861257 2.186407
-0.655655 -1.458210 1.609734
-0.646820 -1.402709 1.571110
-0.891817 -1.907330 2.129280
-0.876397 -1.833590 2.075755
