# .PCD v0.7 - Point Cloud Data file format
VERSION 0.7
FIELDS x y z
SIZE 4 4 4
TYPE F F F
COUNT 1 1 1
WIDTH 242
HEIGHT 1
VIEWPOINT 0 0 0 1
POINTS 242
DATA ascii
2.663952 -1.456787 1.607951
2.565097 -1.454983 1.828019
2.702928 -1.455745 1.573926
2.547918 -1.467769 1.555020
2.659050 -1.454900 1.757957
2.486302 -1.448248 2.140077
2.769899 -1.444694 1.535891
2.447483 -1.442474 2.415108
2.457064 -1.464965 1.777084
2.580894 -1.466728 1.521000
2.422878 -1.469748 1.495103
2.395269 -1.467222 2.085124
2.496253 -1.451180 2.067070
2.651873 -1.462683 1.490957
2.338675 -1.446725 2.703179
2.362454 -1.461451 2.365151
2.636973 -1.462806 1.641967
2.363039 -1.478950 1.735137
2.451384 -1.456344 2.262096
2.723844 -1.456630 1.450914
2.719920 -1.459720 1.563915
2.463862 -1.474713 1.471073
2.544317 -1.445243 2.167043
2.524196 -1.441105 1.987060
2.326852 -1.483734 1.453157
2.363734 -1.440787 2.796168
2.296231 -1.479193 2.024182
2.393215 -1.464153 2.006130
2.265412 -1.468420 2.301211
2.521837 -1.467668 1.437041
2.232614 -1.450675 2.612248
2.345590 -1.451615 2.575171
2.503935 -1.466789 1.585054
2.601164 -1.454040 1.934999
2.272014 -1.490937 1.695189
2.357351 -1.472321 2.209147
2.606819 -1.473621 1.408980
2.363837 -1.488701 1.430130
2.588889 -1.472708 1.513993
2.434280 -1.459218 2.107107
2.426166 -1.458085 1.936113
2.232827 -1.495720 1.412212
2.336964 -1.492857 1.620145
2.267688 -1.451750 2.724225
2.198190 -1.486164 1.962243
2.516213 -1.456116 2.008055
2.381510 -1.448509 2.458151
2.299183 -1.478131 1.954182
2.172372 -1.474391 2.240270
2.136561 -1.456631 2.532308
2.414812 -1.480657 1.396103
2.237533 -1.454571 2.490242
2.107740 -1.446854 2.805335
2.182989 -1.500923 1.655242
2.397910 -1.482777 1.543113
2.483127 -1.464018 1.876071
2.329583 -1.448608 2.569186
2.251308 -1.477291 2.144215
2.429434 -1.447403 2.345121
2.485792 -1.482612 1.366055
2.271815 -1.503690 1.393181
2.335247 -1.474196 2.054162
2.462857 -1.481696 1.465071
2.332137 -1.475065 1.888164
2.142803 -1.506707 1.373264
2.163631 -1.453705 2.640294
2.238938 -1.502844 1.579204
2.112157 -1.497140 1.910293
2.388486 -1.454471 2.421144
2.094343 -1.487369 2.194313
2.278463 -1.457472 2.386214
2.212153 -1.494109 1.906229
2.404178 -1.470095 1.952121
2.239713 -1.438786 2.770256
2.047512 -1.463590 2.458364
2.313788 -1.493647 1.358163
2.031702 -1.458820 2.745378
2.347644 -1.448670 2.662176
2.155498 -1.470541 2.434287
2.093963 -1.506909 1.615299
2.286880 -1.488764 1.498185
2.374092 -1.474997 1.822138
2.165278 -1.490269 2.096266
2.223532 -1.454567 2.492255
2.318686 -1.449726 2.726196
2.343406 -1.469380 2.298164
2.385772 -1.499605 1.332112
2.162782 -1.502676 1.347258
2.237214 -1.486173 2.002222
2.056778 -1.515694 1.336319
2.242109 -1.491045 1.843215
2.346829 -1.491684 1.422145
2.076589 -1.462668 2.576349
2.132904 -1.501827 1.531280
2.005302 -1.489338 2.135375
2.016115 -1.499109 1.849360
2.179417 -1.464436 2.318279
2.015611 -1.501509 1.090358
2.118117 -1.500084 1.852292
2.286446 -1.468439 2.359205
2.142661 -1.445741 2.693319
2.133728 -1.441824 2.795328
1.968471 -1.474553 2.396412
1.952658 -1.464781 2.680430
2.303148 -1.487075 1.904179
2.214764 -1.502637 1.321226
2.057445 -1.471498 2.358356
1.997929 -1.503890 1.568369
2.243593 -1.456628 2.586244
2.186854 -1.497752 1.459249
2.285068 -1.493982 1.783187
2.075244 -1.498244 2.045324
2.121483 -1.459528 2.421324
2.207628 -1.453679 2.642272
2.232356 -1.472343 2.225240
1.984697 -1.448821 2.748424
2.057750 -1.500661 1.302334
2.267740 -1.501594 1.288194
1.971755 -1.522682 1.301374
2.145074 -1.498023 1.792279
2.140179 -1.495149 1.951285
1.932275 -1.499316 2.093420
1.989544 -1.468630 2.511406
2.251811 -1.509677 1.391199
2.043880 -1.509815 1.495337
1.926077 -1.502081 1.794422
2.090379 -1.473405 2.260336
2.025081 -1.504059 1.800355
2.057619 -1.455704 2.629372
1.885625 -1.476749 2.629470
2.179399 -1.474404 2.290276
1.893435 -1.485519 2.340458
2.048685 -1.453785 2.730380
1.915903 -1.507875 1.531425
2.203116 -1.499054 1.856241
1.973404 -1.479463 2.297410
2.101730 -1.497624 1.275310
2.139542 -1.460588 2.512315
1.989211 -1.505220 1.996380
2.197044 -1.509965 1.743238
2.075820 -1.494737 1.412330
2.034446 -1.469497 2.364378
2.104576 -1.457637 2.566342
2.142322 -1.484317 2.173295
1.918667 -1.466790 2.699458
1.981732 -1.514651 1.273378
2.149708 -1.496583 1.244281
2.049039 -1.501000 1.741345
1.860247 -1.507295 2.051466
2.046145 -1.502126 1.900346
1.911507 -1.476598 2.455456
1.950851 -1.509800 1.454404
1.844043 -1.506057 1.745478
1.812585 -1.481714 2.571518
2.008345 -1.485377 2.208385
2.130776 -1.505664 1.343288
1.930040 -1.502032 1.743424
1.975578 -1.465668 2.568423
1.815393 -1.490483 2.279510
1.967645 -1.463749 2.669430
2.081357 -1.482372 2.229340
1.895368 -1.487433 2.243459
2.032720 -1.519619 1.254343
2.048500 -1.468554 2.450373
2.098080 -1.504032 1.803312
1.908180 -1.511198 1.951433
2.100012 -1.515947 1.697302
1.995804 -1.510730 1.385376
1.950409 -1.478467 2.309432
2.053288 -1.493291 2.121352
2.018538 -1.469604 2.508394
1.845629 -1.476756 2.642503
2.078700 -1.520580 1.225314
1.782212 -1.508268 2.001521
1.963009 -1.507981 1.697401
1.837472 -1.484568 2.403503
1.949107 -1.502102 1.847415
1.738542 -1.482677 2.509571
1.926309 -1.491349 2.155440
1.847008 -1.505010 1.697482
1.898541 -1.474635 2.512472
1.750364 -1.503456 2.233547
2.038756 -1.516657 1.312345
1.893611 -1.475718 2.617474
1.826340 -1.499408 2.199501
1.988320 -1.489345 2.174401
1.961460 -1.475521 2.390430
1.999046 -1.508012 1.754380
1.818140 -1.507171 1.896501
1.981963 -1.500920 1.632397
1.872376 -1.488441 2.260480
1.769584 -1.479716 2.577556
1.969256 -1.502267 2.073406
1.929497 -1.475571 2.447453
1.988679 -1.526574 1.195374
1.768442 -1.494543 2.358546
1.875978 -1.509961 1.652462
1.677512 -1.491650 2.464608
1.860073 -1.503080 1.799478
1.851279 -1.501325 2.110486
1.813495 -1.475597 2.446532
1.675323 -1.505422 2.175600
1.809564 -1.477679 2.550533
1.754307 -1.507381 2.150547
1.907291 -1.501322 2.129450
1.886431 -1.487496 2.345475
1.898008 -1.504990 1.702454
1.897938 -1.507906 1.595452
1.697544 -1.483680 2.518605
1.792341 -1.493413 2.209534
1.891228 -1.511247 2.031455
1.606586 -1.484753 2.581665
1.852465 -1.485544 2.399501
1.621488 -1.504627 2.427640
1.702415 -1.504519 2.316586
1.772038 -1.501057 1.750543
1.775247 -1.507300 2.063537
1.748469 -1.489574 2.405568
1.732524 -1.480645 2.491586
1.672263 -1.503347 2.089609
1.810399 -1.495471 2.298524
1.823258 -1.506298 2.081507
1.637603 -1.486760 2.609646
1.636515 -1.495653 2.474640
1.812982 -1.511974 1.663510
1.727319 -1.507395 2.174571
1.804191 -1.511222 1.979517
1.553560 -1.498727 2.541693
1.778434 -1.495519 2.353547
1.636385 -1.510495 2.273630
1.682196 -1.495264 1.995612
1.682441 -1.498549 2.362610
1.668499 -1.492622 2.452624
1.574569 -1.492729 2.560687
1.742375 -1.508451 2.260564
1.737222 -1.507273 2.030568
1.569479 -1.498621 2.421687
1.702401 -1.500493 2.305598
1.609403 -1.499519 2.309662
1.602467 -1.499595 2.406667
1.667342 -1.511426 2.213615
1.634376 -1.510473 2.267640
