# .PCD v0.7 - Point Cloud Data file format
VERSION 0.7
FIELDS x y z
SIZE 4 4 4
TYPE F F F
COUNT 1 1 1
WIDTH 152
HEIGHT 1
VIEWPOINT 0 0 0 1
POINTS 152
DATA ascii
-0.482448 -1.959007 -0.114767
-0.517413 -1.954839 -0.032739
-0.523997 -1.955052 -0.109750
-0.527922 -1.954981 -0.116752
-0.535365 -1.959129 -0.003797
-0.564882 -1.953812 -0.034761
-0.566606 -1.956467 0.128217
-0.570460 -1.950032 -0.111727
-0.573365 -1.942964 -0.118651
-0.581826 -1.954096 -0.006775
-0.517470 -1.961536 -0.072541
-0.518348 -1.959304 -0.095518
-0.611350 -1.947804 -0.035730
-0.614070 -1.951453 0.127236
-0.617917 -1.946006 -0.114719
-0.619836 -1.939939 -0.121653
-0.627279 -1.943081 -0.008688
-0.558205 -1.956983 -0.028518
-0.562945 -1.955529 -0.073507
-0.563809 -1.950299 -0.096451
-0.569775 -1.960507 0.122443
-0.507819 -1.960501 -0.085283
-0.509000 -1.963903 -0.045319
-0.578293 -1.955681 0.040485
-0.660825 -1.950777 -0.038805
-0.662557 -1.951452 0.127195
-0.665369 -1.939988 -0.117692
-0.669286 -1.937919 -0.124673
-0.604677 -1.951978 -0.029498
-0.677755 -1.947065 -0.010777
-0.608419 -1.948527 -0.074465
-0.609282 -1.943298 -0.097409
-0.551579 -1.960037 -0.032307
-0.616273 -1.958517 0.123428
-0.555486 -1.961906 -0.045332
-0.555298 -1.958515 -0.084296
-0.698441 -1.952028 0.184159
-0.624754 -1.947677 0.039537
-0.501206 -1.963722 -0.073052
-0.570998 -1.960437 0.106681
-0.707289 -1.941782 -0.039746
-0.708033 -1.942451 0.126255
-0.575832 -1.962165 0.079656
-0.712832 -1.934974 -0.120679
-0.716749 -1.932906 -0.127660
-0.652158 -1.948988 -0.029505
-0.726221 -1.944047 -0.013788
-0.658891 -1.952516 -0.076553
-0.657755 -1.942300 -0.098439
-0.660751 -1.947526 0.123512
-0.599059 -1.957055 -0.031312
-0.600970 -1.955916 -0.045301
-0.601779 -1.954525 -0.084289
-0.672247 -1.947675 0.038495
-0.546685 -1.955752 -0.070998
-0.616485 -1.952464 0.108732
-0.548933 -1.960312 -0.015047
-0.547828 -1.956093 -0.037001
-0.755743 -1.934782 -0.041715
-0.757502 -1.938463 0.126251
-0.622313 -1.957172 0.079673
-0.761275 -1.926968 -0.123637
-0.764203 -1.924901 -0.130617
-0.697641 -1.941005 -0.029457
-0.773673 -1.934049 -0.015724
-0.703357 -1.939528 -0.077449
-0.576281 -1.966674 0.120868
-0.708239 -1.943547 0.124512
-0.705217 -1.935311 -0.099405
-0.643539 -1.946082 -0.030228
-0.579109 -1.965375 0.090879
-0.645264 -1.942554 -0.083193
-0.647438 -1.947932 -0.045253
-0.719722 -1.942681 0.037506
-0.664999 -1.955501 0.111656
-0.592172 -1.947797 -0.067947
-0.594421 -1.954334 -0.014018
-0.593324 -1.950136 -0.033972
-0.802973 -1.926474 0.125339
-0.801201 -1.921790 -0.043616
-0.669793 -1.953184 0.079675
-0.807739 -1.917968 -0.126584
-0.810661 -1.913913 -0.132542
-0.746113 -1.937016 -0.030461
-0.823131 -1.929044 -0.018721
-0.620767 -1.956696 0.121941
-0.750830 -1.933542 -0.078429
-0.751700 -1.930316 -0.101395
-0.691028 -1.943110 -0.029238
-0.755714 -1.935576 0.125555
-0.625587 -1.956418 0.093938
-0.694933 -1.946950 -0.045286
-0.694747 -1.943573 -0.083250
-0.770198 -1.942690 0.036454
-0.639682 -1.949833 -0.066010
-0.711490 -1.948538 0.113689
-0.640921 -1.951370 -0.012025
-0.641828 -1.952181 -0.031036
-0.716284 -1.947212 0.080697
-0.844652 -1.902808 -0.045449
-1.095641 -2.464242 -0.178146
-0.794582 -1.930045 -0.030434
-0.869572 -1.913062 -0.020593
-0.666268 -1.950731 0.123966
-0.798289 -1.924554 -0.080379
-0.799168 -1.922338 -0.102356
-0.737520 -1.937145 -0.028218
-0.672097 -1.952474 0.097939
-0.802190 -1.925601 0.125617
-0.741406 -1.936988 -0.044221
-0.741224 -1.934612 -0.082196
-0.814661 -1.926713 0.035585
-0.686191 -1.945876 -0.064005
-0.757991 -1.940580 0.115735
-0.687331 -1.944225 -0.028986
-0.687417 -1.944413 -0.009987
-0.763775 -1.941236 0.080720
-0.840064 -1.917081 -0.030333
-0.713767 -1.946761 0.124969
-0.840764 -1.905586 -0.081206
-0.718606 -1.946526 0.100966
-0.786006 -1.931185 -0.027196
-1.081062 -2.459745 -0.143771
-0.787904 -1.930019 -0.044186
-0.787721 -1.927645 -0.082162
-0.864138 -1.920737 0.034602
-0.732682 -1.938927 -0.061972
-0.732913 -1.936462 -0.007942
-0.805480 -1.933629 0.117764
-0.733821 -1.936285 -0.025942
-0.812262 -1.937265 0.080713
-1.138024 -2.462684 -0.051892
-0.758272 -1.937808 0.127025
-0.766114 -1.942593 0.104962
-0.834499 -1.927231 -0.026204
-0.836377 -1.923058 -0.044160
-0.835198 -1.918696 -0.081112
-0.915621 -1.919764 0.033552
-0.780172 -1.932983 -0.059954
-0.782403 -1.935504 -0.006982
-0.781326 -1.932348 -0.022946
-0.857733 -1.923304 0.080820
-0.809781 -1.942855 0.128914
-0.812605 -1.932658 0.108024
-1.127442 -2.468910 -0.042683
-1.136296 -2.478653 -0.068807
-0.825663 -1.921057 -0.056869
-0.829901 -1.929563 -0.004966
-0.826822 -1.921420 -0.019872
-1.120535 -2.474660 -0.083454
-0.871392 -1.909634 -0.002789
-1.125745 -2.480148 -0.033521
