# .PCD v0.7 - Point Cloud Data file format
VERSION 0.7
FIELDS x y z
SIZE 4 4 4
TYPE F F F
COUNT 1 1 1
WIDTH 792
HEIGHT 1
VIEWPOINT 0 0 0 1
POINTS 792
DATA ascii
-0.463970 1.927021 0.431496
-0.437403 2.033110 0.452045
-0.392121 1.954540 0.321322
-0.376364 1.950483 0.432484
-0.472089 2.100853 0.381461
-0.350203 1.939949 0.188731
-0.440218 1.973032 0.404454
-0.349820 1.954378 0.614784
-0.343701 1.955810 0.316843
-0.329931 1.945733 0.428971
-0.396558 1.953344 0.352864
-0.304339 1.926357 0.082191
-0.386518 1.933342 0.395920
-0.301681 1.924226 0.186218
-0.302441 1.959615 0.611307
-0.296288 1.956069 0.314355
-0.294394 1.997515 0.005460
-0.365483 1.935796 0.157144
-0.284539 1.945971 0.427463
-0.349175 1.957599 0.351383
-0.259435 1.935840 -0.072303
-0.262192 1.964595 0.080736
-0.260526 1.957447 0.187742
-0.342242 1.949568 0.398439
-0.254034 1.961856 0.607838
-0.248891 1.959325 0.311878
-0.242687 1.955822 0.003927
-0.319955 1.939114 0.115644
-0.240211 1.954196 0.427965
-0.319084 1.936056 0.157647
-0.310385 1.939371 -0.017256
-0.217986 1.945141 -0.109830
-0.301764 1.957854 0.348896
-0.215903 1.953200 -0.140791
-0.215179 1.960104 -0.075766
-0.214709 1.954868 0.078234
-0.295819 1.945813 0.396933
-0.213085 1.953709 0.186253
-0.422430 1.933055 0.319457
-0.205529 1.951101 0.600345
-0.416726 1.944963 0.395556
-0.201471 1.959580 0.308397
-0.196294 1.959091 0.002442
-0.194804 1.952428 0.426460
-0.275856 1.960290 0.159177
-0.275699 1.961361 0.115179
-0.263982 1.940641 -0.017747
-0.259491 1.959604 0.640371
-0.172650 1.957411 -0.112305
-0.255368 1.959099 0.347404
-0.169546 1.963479 -0.143260
-0.167730 1.956383 -0.077252
-0.168336 1.961129 0.076757
-0.250463 1.951044 0.397441
-0.167697 1.955957 0.184757
-0.257308 2.070845 -0.125372
-0.379260 1.965270 0.325012
-0.254234 2.070884 -0.138340
-0.159172 1.957321 0.599869
-0.370370 1.951204 0.396072
-0.235655 1.946854 -0.048422
-0.155091 1.963823 0.306917
-0.149881 1.959356 0.000954
-0.149422 1.954657 0.424965
-0.228414 1.955552 0.158685
-0.456015 2.602929 0.204935
-0.226216 1.953639 0.113703
-0.217624 1.948906 -0.017218
-0.212077 1.958831 0.637890
-0.125191 1.952690 -0.113789
-0.208990 1.963340 0.345923
-0.122104 1.961762 -0.145739
-0.205095 1.954272 0.397947
-0.121290 1.953655 -0.079743
-0.121907 1.959389 0.074267
-0.121318 1.960205 0.184279
-0.199098 1.951183 -0.118012
-0.328714 1.945544 0.323505
-0.195999 1.946220 -0.128990
-0.327820 1.945037 0.622525
-0.324989 1.951437 0.396565
-0.111768 1.958546 0.597397
-0.189319 1.959121 -0.048884
-0.107674 1.964070 0.304442
-0.105032 1.953877 0.424457
-0.103460 1.958620 -0.000532
-0.312679 1.944041 0.085667
-0.183011 1.954799 0.158184
-0.309983 1.952926 0.159723
-0.179792 1.951896 0.112211
-0.172292 1.960164 -0.017692
-0.164622 1.953059 0.633401
-0.078803 1.957961 -0.116263
-0.162623 1.968576 0.345446
-0.293438 1.999327 -0.018980
-0.075660 1.958034 -0.147229
-0.159756 1.961496 0.399465
-0.075928 1.961446 0.183786
-0.074937 1.963923 -0.082208
-0.074489 1.960652 0.071797
-0.153758 1.961447 -0.118488
-0.281342 1.949786 0.326035
-0.150686 1.961486 -0.130454
-0.279404 1.943266 0.623050
-0.278626 1.956672 0.397085
-0.065409 1.964762 0.595925
-0.142870 1.953387 -0.049382
-0.063706 1.944555 0.714911
-0.061268 1.964308 0.302959
-0.060676 1.958094 0.423959
-0.058069 1.960874 -0.002022
-0.265230 1.937302 0.087170
-0.136608 1.955046 0.158699
-0.263567 1.950178 0.160225
-0.133420 1.958150 0.110740
-0.124854 1.957431 -0.018171
-0.119299 1.962264 0.633925
-0.033454 1.967224 -0.118740
-0.116219 1.968813 0.343962
-0.030289 1.964299 -0.149711
-0.241777 1.961621 -0.016513
-0.030594 1.970684 0.183309
-0.113313 1.955728 0.397969
-0.029506 1.961184 -0.084706
-0.029142 1.968900 0.070318
-0.112337 1.944191 0.690967
-0.107326 1.958715 -0.118977
-0.233923 1.947027 0.327550
-0.103231 1.956761 -0.130936
-0.234296 1.963891 0.398591
-0.232003 1.942484 0.624571
-0.019310 1.942750 0.713406
-0.096474 1.956650 -0.050858
-0.016912 1.954990 0.591450
-0.015278 1.957312 0.423466
-0.013864 1.966550 0.300493
-0.221236 1.936843 -0.072350
-0.010632 1.959137 -0.003495
-0.090225 1.958290 0.159223
-0.218947 1.955548 0.090728
-0.218184 1.951419 0.161729
-0.089087 1.966386 0.111251
-0.217167 1.979007 -0.148203
-0.214043 1.947981 -0.124244
-0.079469 1.959682 -0.017660
-0.073944 1.966467 0.634439
-0.070797 1.965041 0.342461
0.013967 1.968497 -0.121207
-0.068964 1.959941 0.399473
-0.068985 1.946380 0.691457
0.015835 1.967926 0.181824
-0.194310 1.951883 -0.014011
0.017155 1.962574 -0.152182
0.017937 1.959453 -0.087176
0.020277 1.972168 0.067877
-0.060906 1.957980 -0.119460
-0.057843 1.960023 -0.132422
-0.187873 1.960122 0.398096
-0.186532 1.949264 0.329082
-0.184600 1.941698 0.626096
0.025013 1.948935 0.715916
-0.050103 1.962909 -0.051326
0.030102 1.958527 0.423978
0.031432 1.964206 0.592008
0.033564 1.964788 0.299022
-0.175970 1.958096 -0.070794
0.035738 1.965392 -0.004964
-0.045881 1.964520 0.159732
-0.172516 1.950797 0.092233
-0.042663 1.964635 0.109767
-0.171811 1.955662 0.163255
-0.168653 1.962280 -0.143706
-0.165669 1.956256 -0.122686
-0.034067 1.959932 -0.018151
-0.027491 1.959680 0.630947
-0.024386 1.964271 0.340980
0.060407 1.965761 -0.123690
-0.023545 1.956159 0.398976
-0.023620 1.948573 0.692972
0.062223 1.970164 0.181349
0.063550 1.966842 -0.155654
-0.147901 1.951138 -0.012496
0.065298 1.968720 -0.089629
-0.014534 1.964242 -0.119927
0.067699 1.972424 0.065409
-0.011458 1.964285 -0.132893
-0.141472 1.959348 0.398611
-0.140183 1.955487 0.332614
-0.141565 1.956766 0.687615
0.070375 1.951124 0.717431
-0.138245 1.945899 0.629625
0.075499 1.957741 0.423488
-0.003716 1.967167 -0.052797
0.078822 1.966419 0.590545
0.083107 1.972650 -0.006420
-0.128555 1.957357 -0.068267
0.081970 1.967028 0.297570
0.001514 1.966764 0.160269
-0.126113 1.950040 0.094750
0.003736 1.965879 0.109290
-0.125420 1.956902 0.164776
-0.122227 1.958541 -0.141196
-0.119259 1.954513 -0.119171
0.013320 1.964189 -0.017610
0.018806 1.971879 0.633490
0.021832 1.957371 0.400490
0.020775 1.945760 0.693468
0.023048 1.961504 0.339508
0.108790 1.973034 -0.126135
0.108641 1.970397 0.180877
0.110964 1.971111 -0.158108
-0.101490 1.952386 -0.009967
0.113736 1.970989 -0.092075
0.115135 1.972673 0.063949
0.032906 1.964506 -0.120387
-0.096007 1.951567 0.398108
0.036007 1.961550 -0.133358
-0.096146 1.954964 0.687125
0.114759 1.952306 0.717939
-0.092768 1.956714 0.335153
0.120926 1.955950 0.423002
-0.090811 1.944105 0.631158
0.042762 1.961419 -0.053280
-0.082085 1.950606 -0.064757
0.129401 1.968258 0.296110
0.128258 1.967635 0.590107
0.131554 1.973908 -0.007869
0.047907 1.971998 0.160804
0.051122 1.974124 0.108841
-0.078754 1.961282 0.098310
-0.079065 1.968137 0.166324
-0.074771 1.956802 -0.138664
-0.072811 1.952767 -0.116651
0.060743 1.968442 -0.018066
0.065310 1.963085 0.630001
0.066170 1.947945 0.695987
0.068246 1.959584 0.402019
0.070463 1.965728 0.340052
0.156255 1.973295 -0.128598
0.156058 1.972633 0.180410
-0.056105 1.957628 -0.008449
0.158398 1.973375 -0.160575
0.160182 1.970243 -0.094557
0.079298 1.970760 -0.120858
0.161587 1.969913 0.062464
-0.051637 1.955776 0.399612
-0.051825 1.964149 0.690639
0.160125 1.955487 0.720452
0.082402 1.967807 -0.134829
-0.047389 1.959927 0.338666
-0.045383 1.940301 0.632658
0.168283 1.964164 0.424544
0.090157 1.968676 -0.054737
-0.036733 1.960851 -0.063228
0.174692 1.964834 0.589623
0.178012 1.971154 -0.010353
0.094357 1.968229 0.161317
0.177807 1.972489 0.295658
-0.033661 1.969366 0.167833
-0.033324 1.958513 0.100812
0.099592 1.971373 0.107379
-0.029360 1.958050 -0.136154
-0.026394 1.955020 -0.115126
0.108131 1.975693 -0.018523
0.112712 1.965285 0.630536
0.110610 1.942128 0.695478
0.114643 1.961794 0.403544
0.117855 1.970952 0.339592
0.203744 1.967550 -0.130074
0.203503 1.970865 0.179939
-0.009686 1.958872 -0.006927
0.206858 1.973643 -0.164033
0.208652 1.968503 -0.097017
-0.007413 1.961336 0.691131
-0.006262 1.959983 0.402130
0.126736 1.972019 -0.122324
0.210021 1.972163 0.060009
0.205527 1.954668 0.720961
0.128851 1.966058 -0.135310
-0.000918 1.952145 0.340171
0.213716 1.960364 0.425049
0.001954 1.949490 0.639210
0.138572 1.973934 -0.056186
0.010675 1.964098 -0.059690
0.140770 1.969456 0.161840
0.226443 1.973406 -0.011808
0.011735 1.971590 0.169346
0.224154 1.962044 0.588174
0.227261 1.971722 0.294210
0.014083 1.961750 0.103350
0.017045 1.961298 -0.133627
0.147034 1.970611 0.106910
0.019990 1.961267 -0.112593
0.155563 1.975937 -0.017991
0.157954 1.949309 0.701023
0.160128 1.965482 0.631069
0.161037 1.964000 0.405069
0.164280 1.970167 0.339112
0.250921 1.972093 0.179472
0.252181 1.969811 -0.132528
0.037707 1.965117 -0.005382
0.035990 1.958515 0.691613
0.038179 1.954186 0.402618
0.257314 1.975917 -0.166465
0.257088 1.970761 -0.099471
0.250959 1.949844 0.721466
0.175192 1.971277 -0.122781
0.259473 1.972411 0.058564
0.177259 1.972320 -0.136757
0.046472 1.956359 0.343713
0.262065 1.969576 0.426603
0.048340 1.951678 0.642737
0.185015 1.972176 -0.056667
0.057111 1.962337 -0.057171
0.189171 1.973688 0.163390
0.058127 1.974814 0.171874
0.275830 1.981660 -0.013245
0.271613 1.957241 0.586702
0.060501 1.961977 0.105873
0.276668 1.975951 0.293769
0.192479 1.966835 0.106416
0.064478 1.961548 -0.131092
0.066439 1.958511 -0.111075
0.202990 1.977180 -0.018456
0.203361 1.947485 0.702533
0.206539 1.964670 0.631591
0.207467 1.961201 0.406588
0.211716 1.968380 0.339643
0.300338 1.975328 0.179029
0.084126 1.965351 -0.002858
0.081367 1.960695 0.694129
0.302596 1.977082 -0.135955
0.083536 1.960386 0.405142
0.296361 1.948016 0.722975
0.305783 1.974177 -0.169924
0.222598 1.975526 -0.123242
0.307518 1.976028 -0.102900
0.225686 1.975577 -0.138207
0.308950 1.969657 0.056115
0.309493 1.967779 0.427133
0.093858 1.960569 0.347256
0.094804 1.943864 0.644248
0.233455 1.973426 -0.058120
0.104512 1.966578 -0.054628
0.235625 1.968907 0.163907
0.104558 1.973035 0.173393
0.324327 1.974903 -0.014709
0.107871 1.969204 0.109421
0.240879 1.972071 0.105968
0.326120 1.974174 0.293321
0.323048 1.958449 0.587281
0.110901 1.961788 -0.128567
0.113805 1.967756 -0.108523
0.251438 1.976423 -0.018912
0.248755 1.946655 0.705046
0.254837 1.966403 0.409129
0.253004 1.957857 0.630105
0.259153 1.966592 0.339175
0.125818 1.952872 0.693618
0.130533 1.967582 -0.001330
0.348783 1.973553 0.178570
0.351049 1.976335 -0.138413
0.342740 1.949187 0.725498
0.129954 1.959588 0.406665
0.355209 1.978441 -0.173366
0.355953 1.977279 -0.105356
0.271061 1.973778 -0.124699
0.358394 1.969898 0.054670
0.275149 1.974835 -0.139652
0.357885 1.969980 0.429678
0.141252 1.962772 0.351797
0.143152 1.951042 0.651810
0.281879 1.975671 -0.058572
0.150027 1.965249 0.173894
0.284015 1.974133 0.164458
0.151917 1.969815 -0.052086
0.372771 1.974143 -0.016168
0.155296 1.968425 0.112956
0.290306 1.974308 0.105527
0.375568 1.972393 0.292873
0.158301 1.966029 -0.126023
0.374390 1.968650 0.590867
0.160273 1.961991 -0.107007
0.299896 1.973660 -0.018370
0.296094 1.952825 0.710589
0.303234 1.968605 0.411677
0.300424 1.956040 0.631639
0.171108 1.964036 0.700151
0.308533 1.972806 0.340739
0.177931 1.971816 0.000214
0.390111 1.951357 0.729033
0.175361 1.958781 0.408179
0.397207 1.973775 0.178112
0.401478 1.980598 -0.141845
0.404668 1.977698 -0.175814
0.319508 1.973024 -0.125154
0.406418 1.976536 -0.107793
0.406306 1.969180 0.430219
0.408809 1.974142 0.053238
0.325541 1.984100 -0.142074
0.187687 1.958970 0.354317
0.190558 1.950217 0.656347
0.330336 1.973914 -0.060029
0.198362 1.966041 -0.049566
0.198450 1.966472 0.175444
0.332469 1.970351 0.165999
0.425182 1.981404 -0.018576
0.202708 1.969645 0.115495
0.337745 1.972531 0.105059
0.205728 1.966265 -0.123485
0.426004 1.972614 0.292437
0.423843 1.964843 0.590417
0.206690 1.962221 -0.104480
0.346361 1.967885 -0.018854
0.343493 1.951993 0.714123
0.351624 1.970800 0.415225
0.347853 1.953220 0.632171
0.217482 1.966206 0.703680
0.356968 1.971013 0.341282
0.221728 1.962972 0.411712
0.224374 1.968036 0.002734
0.444661 1.968988 0.177639
0.450957 1.976849 -0.144296
0.454143 1.974954 -0.179263
0.368940 1.975274 -0.126596
0.457849 1.980799 -0.111215
0.453749 1.964372 0.430746
0.459253 1.974381 0.051801
0.374034 1.977341 -0.142537
0.237070 1.964174 0.358886
0.237000 1.944388 0.658867
0.380740 1.980165 -0.061455
0.245842 1.969684 0.177987
0.246770 1.969274 -0.047012
0.382847 1.977578 0.167574
0.474625 1.980643 -0.020025
0.250135 1.967857 0.119031
0.254118 1.972506 -0.121927
0.389165 1.976771 0.104642
0.476469 1.968830 0.291998
0.257052 1.974472 -0.102890
0.474284 1.962031 0.591979
0.397735 1.978136 -0.019265
0.389897 1.949153 0.717644
0.400028 1.970994 0.417769
0.262906 1.961371 0.705189
0.401160 1.968417 0.637788
0.269104 1.967166 0.414256
0.406383 1.972221 0.341839
0.272789 1.970266 0.004287
0.497062 1.974221 0.178227
0.502418 1.977110 -0.147723
0.505597 1.976217 -0.182689
0.419359 1.979527 -0.128025
0.500223 1.954552 0.431257
0.509321 1.979053 -0.113644
0.422468 1.977584 -0.143993
0.509717 1.971616 0.050361
0.284454 1.966365 0.363427
0.284425 1.940553 0.663401
0.430210 1.976402 -0.061904
0.292281 1.965889 0.179508
0.295174 1.972503 -0.044458
0.430305 1.971786 0.168101
0.525080 1.978882 -0.021465
0.298550 1.969073 0.121582
0.302554 1.971739 -0.119378
0.438638 1.971994 0.104192
0.304490 1.972701 -0.101354
0.526938 1.964041 0.291556
0.447207 1.973365 -0.018715
0.308289 1.960529 0.708703
0.447467 1.966180 0.419297
0.316444 1.974352 0.418803
0.449600 1.963591 0.639327
0.455836 1.968424 0.342391
0.320248 1.965485 0.005818
0.546533 1.968435 0.177773
0.552905 1.972358 -0.150165
0.469806 1.979775 -0.129460
0.556130 1.966465 -0.185135
0.558816 1.972293 -0.116099
0.472898 1.979834 -0.145426
0.561176 1.969852 0.048932
0.333859 1.967559 0.367990
0.333748 1.948714 0.672975
0.340630 1.974097 0.183068
0.479671 1.973639 -0.063353
0.343596 1.972728 -0.041909
0.480722 1.973004 0.169667
0.347936 1.973286 0.126147
0.575579 1.972118 -0.023910
0.349990 1.969966 -0.117843
0.488082 1.970216 0.103745
0.352909 1.973932 -0.099804
0.576422 1.956243 0.291102
0.353668 1.959684 0.712217
0.497627 1.975601 -0.019148
0.496888 1.964369 0.421850
0.363830 1.975535 0.422342
0.504267 1.965619 0.342931
0.368656 1.967707 0.007370
0.598930 1.972662 0.178356
0.605355 1.973617 -0.153584
0.519261 1.977011 -0.129910
0.610556 1.972742 -0.189529
0.611281 1.971549 -0.119519
0.523366 1.977078 -0.146864
0.383230 1.971748 0.373554
0.616590 1.976107 0.047548
0.388062 1.971299 0.184601
0.383125 1.950876 0.679539
0.532084 1.978889 -0.064763
0.530155 1.971215 0.170218
0.393015 1.973953 -0.039348
0.397353 1.973495 0.129707
0.629003 1.975367 -0.025318
0.400387 1.975202 -0.115266
0.538494 1.972440 0.103310
0.403338 1.975165 -0.097232
0.400032 1.960837 0.716744
0.549067 1.975838 -0.019574
0.410261 1.970714 0.423861
0.418047 1.971928 0.009935
0.554702 1.963820 0.343493
0.658833 1.971877 -0.156996
0.569724 1.974251 -0.131350
0.662045 1.967993 -0.192964
0.664726 1.972804 -0.121930
0.573829 1.974319 -0.148304
0.431649 1.968929 0.378099
0.435481 1.970497 0.186140
0.667122 1.965328 0.045102
0.431538 1.948026 0.686088
0.582561 1.975121 -0.066201
0.579606 1.967417 0.171769
0.442434 1.975170 -0.035785
0.446786 1.972699 0.133266
0.680492 1.970600 -0.027753
0.449826 1.975429 -0.113706
0.588956 1.969657 0.102870
0.452778 1.975390 -0.095673
0.599533 1.973061 -0.020016
0.457708 1.965888 0.426390
0.466495 1.970137 0.011477
0.710322 1.968114 -0.159438
0.619253 1.964470 -0.131811
0.716520 1.969251 -0.196372
0.718246 1.968049 -0.125351
0.481095 1.966106 0.382648
0.623387 1.961537 -0.148769
0.484917 1.969695 0.188687
0.491867 1.975383 -0.033238
0.631082 1.964330 -0.066680
0.630088 1.961618 0.172315
0.496217 1.971897 0.136813
0.500252 1.977652 -0.111145
0.638449 1.961857 0.103404
0.733992 1.965831 -0.029180
0.502232 1.973608 -0.094127
0.651994 1.972289 -0.020446
0.504165 1.959056 0.427898
0.516946 1.969352 0.013035
0.768791 1.972389 -0.163809
0.674676 1.971727 -0.134204
0.771993 1.970513 -0.200777
0.528555 1.958269 0.387165
0.773703 1.970303 -0.128756
0.678810 1.968795 -0.151162
0.534395 1.963889 0.190228
0.687486 1.973585 -0.068062
0.542329 1.972594 -0.030683
0.544660 1.968085 0.140344
0.549710 1.974867 -0.109602
0.551646 1.975824 -0.092580
0.705452 1.971514 -0.019867
0.566391 1.967557 0.014579
0.731111 1.976981 -0.135591
0.581829 1.960069 0.192748
0.733289 1.968040 -0.153573
0.592767 1.971802 -0.028129
0.739968 1.969811 -0.069498
0.595116 1.964276 0.143896
0.598203 1.966066 -0.107077
0.600139 1.967022 -0.090054
0.614880 1.958747 0.017104
0.634198 1.967268 0.196330
0.645180 1.975016 -0.025551
0.650465 1.975486 0.149514
0.651622 1.970293 -0.105487
0.653566 1.970247 -0.088465
0.670247 1.969976 0.018721
0.695654 1.968209 -0.022005
0.703075 1.967500 -0.102928
0.707039 1.967464 -0.086884
0.757513 1.968720 -0.101335
-0.455972 1.929676 0.405426
-0.410533 1.924867 0.387862
-0.445319 2.118417 0.440016
-0.390761 2.081673 0.416286
-0.364323 1.946811 0.405519
-0.344679 1.926609 0.150551
-0.344828 1.956478 0.168780
-0.316844 1.925001 0.388849
-0.316963 1.945892 0.404009
-0.310545 1.929726 -0.003077
-0.305502 1.985635 0.154413
-0.293334 1.931856 -0.017880
-0.329157 2.181372 0.183654
-0.272555 1.942046 0.391446
-0.270623 1.949964 0.403527
-0.270326 1.981794 -0.004260
-0.253039 1.941728 0.153632
-0.250106 1.946634 0.167701
-0.247003 1.934920 -0.016368
-0.233402 1.935546 -0.103226
-0.232423 1.935512 -0.098215
-0.225211 1.943105 0.392953
-0.224277 1.951035 0.403023
-0.217870 1.936866 -0.002044
-0.206703 1.945795 0.154151
-0.203771 1.950701 0.168219
-0.200678 1.944989 -0.015803
-0.197341 2.064650 -0.110892
-0.190203 1.990592 -0.100362
-0.178868 1.944168 0.393450
-0.178950 1.958104 0.402552
-0.171536 1.944942 -0.002495
-0.159346 1.940857 0.155615
-0.155353 1.948050 -0.014302
-0.156406 1.946777 0.167690
-0.140735 1.943680 -0.101186
-0.138769 1.955654 -0.097078
-0.133555 1.950216 0.395972
-0.134230 1.943167 0.688935
-0.131575 1.953183 0.401015
-0.131200 1.937164 0.689923
-0.126217 1.953009 -0.001958
-0.113022 1.947916 0.157156
-0.109017 1.949112 -0.012805
-0.109061 1.952852 0.167234
-0.095416 1.951748 -0.100649
-0.091411 1.952726 -0.096600
-0.087220 1.952272 0.397476
-0.087881 1.945232 0.688439
-0.086227 1.951252 0.400479
-0.085843 1.933228 0.689375
-0.078862 1.952080 -0.001465
-0.066689 1.950976 0.158667
-0.061665 1.947175 -0.011319
-0.062716 1.952918 0.167723
-0.048067 1.950813 -0.099156
-0.045057 1.946789 -0.095153
-0.040879 1.952327 0.398965
-0.042562 1.951281 0.689960
-0.039883 1.952314 0.400975
-0.040519 1.936270 0.691875
-0.032510 1.949148 -0.000997
-0.021367 1.955033 0.160173
-0.018401 1.958981 0.168233
-0.016345 1.954242 -0.010791
-0.002738 1.951874 -0.097671
0.000270 1.950857 -0.094646
0.004451 1.953381 0.400450
0.002784 1.951345 0.689438
0.004468 1.949388 0.399422
0.004795 1.940305 0.695382
0.012815 1.954214 -0.000484
0.024966 1.957091 0.161675
0.026938 1.958045 0.168703
0.029994 1.954303 -0.009303
0.043604 1.952943 -0.097175
0.046595 1.957927 -0.094109
0.047092 1.955385 0.691932
0.050800 1.952442 0.400931
0.050808 1.949442 0.400910
0.051138 1.940355 0.696871
0.059144 1.959282 0.000038
0.071299 1.959150 0.163176
0.074272 1.964112 0.169242
0.077322 1.960365 -0.007764
0.090943 1.957014 -0.096650
0.093948 1.956997 -0.093618
0.092442 1.953448 0.691394
0.096116 1.957495 0.402441
0.097121 1.954482 0.404431
0.097459 1.943390 0.700379
0.106491 1.960351 0.000542
0.118631 1.963209 0.164700
0.121606 1.969178 0.169771
0.123654 1.963433 -0.007258
0.137273 1.961083 -0.096137
0.141279 1.963068 -0.093081
0.137802 1.948511 0.690836
0.142475 1.954564 0.401907
0.143473 1.950536 0.405890
0.143785 1.944425 0.703872
0.152827 1.962419 0.001041
0.164974 1.959260 0.167158
0.167985 1.959250 0.169189
0.172007 1.962496 -0.005759
0.185618 1.964155 -0.095612
0.188612 1.967138 -0.092560
0.183158 1.944572 0.690284
0.189812 1.956619 0.403415
0.190812 1.950584 0.408386
0.189137 1.938473 0.705308
0.201162 1.967481 0.001586
0.212303 1.961312 0.168667
0.216313 1.963303 0.170721
0.219325 1.966551 -0.004239
0.231943 1.962209 -0.094147
0.234959 1.960199 -0.092130
0.230477 1.947615 0.692791
0.236123 1.959670 0.404909
0.238135 1.950629 0.410870
0.235464 1.935507 0.708763
0.248502 1.963552 0.002033
0.259614 1.964375 0.170159
0.262650 1.960379 0.170163
0.265665 1.960620 -0.003816
0.280257 1.968290 -0.094627
0.282268 1.964272 -0.091633
0.277760 1.955655 0.697315
0.283453 1.959740 0.405380
0.285410 1.959671 0.415399
0.281784 1.933550 0.712213
0.295824 1.965631 0.001516
0.307943 1.962433 0.172625
0.308966 1.959442 0.171616
0.314973 1.966689 -0.002289
0.328597 1.963357 -0.093181
0.323087 1.951712 0.698738
0.331589 1.969356 -0.092113
0.330775 1.959803 0.406848
0.332733 1.957727 0.417854
0.330061 1.941578 0.718743
0.343165 1.960703 0.001951
0.356245 1.966493 0.175127
0.356278 1.962514 0.172102
0.363290 1.967757 -0.000807
0.369430 1.946778 0.699162
0.376911 1.966434 -0.092687
0.380924 1.968433 -0.091635
0.378076 1.962860 0.409332
0.382042 1.959773 0.422352
0.376385 1.937623 0.722174
0.393472 1.968783 0.002495
0.405559 1.968556 0.177622
0.405594 1.965584 0.173603
0.412604 1.971836 -0.000299
0.415748 1.944832 0.701604
0.426231 1.968512 -0.092193
0.426403 1.961926 0.410797
0.430256 1.967511 -0.091160
0.431347 1.962827 0.425851
0.441802 1.966859 0.002953
0.453884 1.966624 0.179079
0.453938 1.960658 0.174042
0.461938 1.968907 0.001161
0.476555 1.971601 -0.092687
0.474722 1.961993 0.412265
0.480580 1.970600 -0.091654
0.478670 1.957877 0.429279
0.490129 1.964937 0.003408
0.502223 1.959684 0.181503
0.503270 1.959736 0.174513
0.509273 1.961974 0.002574
0.526878 1.972684 -0.092197
0.522062 1.955058 0.413678
0.529900 1.970681 -0.091181
0.527003 1.952937 0.431713
0.540458 1.966026 0.002897
0.552533 1.961752 0.183997
0.553599 1.959817 0.174995
0.560583 1.967059 0.003095
0.576212 1.968764 -0.091751
0.578243 1.964767 -0.091756
0.591783 1.967111 0.003392
0.601920 1.956888 0.176436
0.601864 1.956816 0.186435
0.611910 1.966137 0.004576
0.625562 1.960845 -0.091332
0.627585 1.958848 -0.091325
0.640137 1.957189 0.003789
0.658259 1.953204 0.005935
0.678882 1.963936 -0.090814
0.680915 1.960946 -0.091813
0.693452 1.961280 0.004311
0.714566 1.962302 0.006513
0.731215 1.963033 -0.091334
0.735244 1.962040 -0.091302
