# .PCD v0.7 - Point Cloud Data file format
VERSION 0.7
FIELDS x y z
SIZE 4 4 4
TYPE F F F
COUNT 1 1 1
WIDTH 19
HEIGHT 1
VIEWPOINT 0 0 0 1
POINTS 19
DATA ascii
0.690829 -3.403353 1.997572
0.657221 -3.408686 1.976124
0.683703 -3.545160 2.036582
0.618982 -3.431626 2.006754
0.594121 -3.491724 2.012862
0.626403 -3.678629 2.019781
0.579571 -3.446083 1.973292
0.518306 -3.522018 2.019999
0.530700 -3.650498 2.086179
0.521097 -3.596422 1.972607
0.700860 -3.204740 1.970252
0.649856 -3.300892 2.017648
0.626940 -3.564096 1.955349
0.653226 -3.324201 1.962441
0.564917 -3.704269 2.015579
0.593321 -3.415372 2.008706
0.605291 -3.622437 2.027790
0.463165 -3.608464 1.949375
0.509397 -3.547624 1.973666
