# .PCD v0.7 - Point Cloud Data file format
VERSION 0.7
FIELDS x y z
SIZE 4 4 4
TYPE F F F
COUNT 1 1 1
WIDTH 15
HEIGHT 1
VIEWPOINT 0 0 0 1
POINTS 15
DATA ascii
2.731015 -0.912307 2.815168
2.688303 -0.960989 2.793938
2.643584 -1.008608 2.770766
2.611022 -1.059686 2.761364
2.673264 -1.497647 2.771877
2.668563 -1.807114 2.765750
2.808105 -0.924928 2.909761
2.809183 -0.934802 2.925034
2.780439 -0.987768 2.907753
2.786507 -0.996645 2.925030
2.739802 -1.045596 2.893731
2.744873 -1.051463 2.906006
2.778114 -1.290700 2.891836
2.805053 -1.471189 2.913889
2.826882 -1.750095 2.900206
