# .PCD v0.7 - Point Cloud Data file format
VERSION 0.7
FIELDS x y z
SIZE 4 4 4
TYPE F F F
COUNT 1 1 1
WIDTH 17
HEIGHT 1
VIEWPOINT 0 0 0 1
POINTS 17
DATA ascii
-0.679756 4.012263 1.881215
-0.661635 4.380695 1.945830
-0.681313 4.104057 1.883354
-0.682547 4.128762 1.914587
-0.601394 4.111331 1.921568
-0.598949 4.203190 1.919730
-0.688166 4.233636 1.900903
-0.597136 4.221888 1.953920
-0.517963 4.201468 1.958859
-0.614309 4.008819 1.935114
-0.702129 4.376338 1.900542
-0.440539 4.303331 1.913222
-0.511533 4.295374 1.955062
-0.599725 4.323878 1.930225
-0.480619 4.072242 1.884086
-0.610959 4.498522 1.938189
-0.510499 4.438028 1.970779
