# .PCD v0.7 - Point Cloud Data file format
VERSION 0.7
FIELDS x y z
SIZE 4 4 4
TYPE F F F
COUNT 1 1 1
WIDTH 25
HEIGHT 1
VIEWPOINT 0 0 0 1
POINTS 25
DATA ascii
3.359880 -2.324728 1.173867
3.441737 -2.379416 1.004573
3.332189 -2.321681 1.048296
3.313224 -2.309456 0.928872
3.384279 -2.361625 0.910388
3.405488 -2.377112 0.964853
3.272489 -2.298590 0.800025
3.278232 -2.338759 1.446366
3.339312 -2.389841 1.480694
3.257084 -2.339549 1.565979
3.187752 -2.315393 1.134485
3.262594 -2.368169 0.964045
3.296748 -2.400065 1.578909
3.155997 -2.311381 1.011833
3.126934 -2.295274 0.895204
3.218302 -2.361971 0.924159
3.206052 -2.354333 0.877892
3.187936 -2.349804 0.827518
3.217027 -2.379535 1.499289
3.203667 -2.384399 1.579057
3.102381 -2.335547 1.398927
3.161452 -2.381663 1.429200
3.073253 -2.324477 1.508353
3.102945 -2.374155 1.511058
3.037157 -2.362393 1.441737
