# .PCD v0.7 - Point Cloud Data file format
VERSION 0.7
FIELDS x y z
SIZE 4 4 4
TYPE F F F
COUNT 1 1 1
WIDTH 547
HEIGHT 1
VIEWPOINT 0 0 0 1
POINTS 547
DATA ascii
3.396876 1.217552 2.008942
3.456842 1.232819 1.674139
3.364985 1.223737 1.730174
3.679056 1.237196 1.478466
3.338089 1.226832 1.797375
3.634183 1.203323 2.125149
3.725086 1.245416 1.140585
3.594069 1.254273 1.185720
3.674207 1.211824 1.761262
3.627146 1.241738 1.581674
3.732081 1.277254 0.988090
3.554353 1.199695 1.810240
3.327260 1.221895 1.873515
3.561301 1.234386 1.670753
3.503487 1.196748 1.871372
3.947434 1.220388 1.568683
3.480307 1.240985 1.757893
3.869533 1.179095 2.240267
4.000486 1.229849 1.211818
3.846440 1.241601 1.256962
3.916581 1.188802 1.860396
3.727391 1.261994 1.092196
3.682524 1.233628 1.274908
3.856517 1.220848 1.663819
3.813664 1.187565 1.925501
3.610531 1.243750 1.321095
3.708557 1.258688 1.195354
3.796621 1.220411 1.762975
4.245755 1.232785 0.974151
3.915672 1.264981 0.742474
3.696606 1.227960 1.847106
3.722821 1.176579 1.974526
4.221842 1.193590 1.660823
4.323866 1.215356 1.296119
4.072897 1.208909 1.320006
3.962795 1.241419 1.148361
3.936882 1.218890 1.353149
4.122875 1.199948 1.762012
3.840881 1.227927 1.397304
3.971926 1.263236 0.826761
4.025978 1.195461 1.851099
4.514279 1.192405 1.026170
3.900948 1.202956 1.930205
3.980119 1.159382 2.095754
4.228199 1.218904 1.211549
4.192287 1.192150 1.432293
4.078257 1.204106 1.476457
4.202390 1.232758 0.871847
4.091536 -1.270590 3.477697
4.027135 -1.356581 3.453096
3.960767 -1.251722 3.440302
3.929740 -1.429462 3.403567
4.144637 -1.783468 3.503726
4.070226 -1.656320 3.460064
3.975763 -1.717217 3.412612
-0.059704 -2.276126 -0.059800
-0.060451 -2.272692 -0.106771
-0.063724 -2.276228 -0.050809
-0.062621 -2.279506 -0.023722
-0.064337 -2.281068 -0.071743
-0.066202 -2.272826 -0.098670
-0.111361 -2.272386 -0.056878
-0.112108 -2.267954 -0.103840
-0.114401 -2.270493 -0.046867
-0.086858 -2.285329 0.053172
-0.139924 -2.276811 0.083020
-0.071995 -2.276033 -0.082602
-0.074940 -2.270963 -0.091562
-0.114272 -2.276756 -0.021812
-0.115983 -2.277309 -0.070824
-0.117823 -2.276067 -0.097817
-0.088454 -2.286116 0.026270
-0.163020 -2.267645 -0.053953
-0.163752 -2.267213 -0.100952
-0.169275 -2.292939 0.190803
-0.167032 -2.272755 -0.044010
-0.137528 -2.276554 0.053139
-0.078616 -2.270879 -0.105471
-0.083619 -2.275994 -0.095530
-0.087075 -2.275796 -0.010533
-0.154323 -2.300245 0.227882
-0.118126 -2.279016 0.001267
-0.190584 -2.275052 0.084917
-0.123613 -2.277255 -0.083733
-0.127561 -2.270199 -0.091676
-0.164939 -2.270999 -0.019877
-0.167635 -2.271549 -0.069891
-0.169467 -2.272307 -0.096904
-0.139109 -2.280331 0.025206
-0.217586 -2.292193 0.303696
-0.213673 -2.265888 -0.052059
-0.215412 -2.261471 -0.098023
-0.216730 -2.262012 -0.040029
-0.152136 -2.292273 0.229070
-0.220963 -2.284191 0.193759
-0.121960 -2.276172 0.013383
-0.189175 -2.272781 0.053050
-0.131211 -2.273086 -0.108615
-0.136230 -2.275210 -0.097647
-0.169779 -2.272245 0.001207
-0.139681 -2.276001 -0.013659
-0.206993 -2.294491 0.229806
-0.208210 -2.283811 0.263907
-0.143744 -2.283828 0.182265
-0.242247 -2.270296 0.086834
-0.175261 -2.268476 -0.084774
-0.179191 -2.267419 -0.092774
-0.257307 -2.302004 0.481508
-0.216581 -2.269236 -0.018988
-0.219281 -2.267786 -0.068983
-0.219185 -2.249548 -0.094810
-0.190755 -2.272540 0.023153
-0.268267 -2.286418 0.304621
-0.200972 -2.298787 0.261888
-0.265327 -2.263142 -0.049163
-0.267050 -2.263725 -0.095175
-0.202817 -2.279474 0.227066
-0.272648 -2.278451 0.197682
-0.270354 -2.265275 -0.037196
-0.173596 -2.273391 0.012283
-0.240819 -2.272015 0.053927
-0.182837 -2.267288 -0.111687
-0.191966 -2.297994 0.286015
-0.187869 -2.267421 -0.099701
-0.221423 -2.268471 0.001113
-0.191313 -2.270201 -0.016732
-0.258675 -2.286731 0.231747
-0.292909 -2.268533 0.088718
-0.260852 -2.286045 0.264750
-0.196378 -2.281037 0.180160
-0.226903 -2.261694 -0.085840
-0.303663 -2.299239 0.594417
-0.229847 -2.259643 -0.092828
-0.269226 -2.266484 -0.017098
-0.310991 -2.298265 0.485401
-0.269925 -2.265008 -0.069088
-0.272764 -2.263790 -0.094084
-0.243379 -2.271760 0.022026
-0.318957 -2.279651 0.306551
-0.288092 -2.307524 0.521482
-0.251661 -2.288004 0.261859
-0.316983 -2.258386 -0.047255
-0.317729 -2.255984 -0.091236
-0.255442 -2.282689 0.225898
-0.293261 -2.296823 0.551572
-0.321037 -2.257532 -0.033257
-0.325310 -2.278711 0.201538
-0.225220 -2.272597 0.010159
-0.292466 -2.268238 0.053827
-0.232527 -2.247500 -0.112626
-0.275130 -2.308779 0.552610
-0.237537 -2.253622 -0.101697
-0.243623 -2.294205 0.284916
-0.309361 -2.279965 0.233676
-0.273056 -2.268695 0.000975
-0.242952 -2.263408 -0.018801
-0.311523 -2.281260 0.264659
-0.344575 -2.260765 0.089653
-0.249011 -2.276236 0.177069
-0.283873 -2.293430 0.510732
-0.354361 -2.293457 0.595333
-0.278530 -2.259911 -0.086959
-0.282453 -2.262863 -0.093998
-0.320870 -2.264716 -0.016220
-0.363692 -2.293529 0.490301
-0.322557 -2.264246 -0.068223
-0.324406 -2.261024 -0.093198
-0.295027 -2.266983 0.021933
-0.370624 -2.276877 0.307433
-0.339793 -2.299757 0.523414
-0.303328 -2.284232 0.262755
-0.368637 -2.256636 -0.044381
-0.276437 -2.292970 0.461847
-0.369398 -2.247236 -0.088294
-0.344940 -2.293036 0.551465
-0.308083 -2.280903 0.224772
-0.376993 -2.271958 0.204458
-0.372702 -2.251783 -0.030345
-0.276862 -2.265803 0.008086
-0.344115 -2.264460 0.053720
-0.287059 -2.265698 -0.116947
-0.325829 -2.299988 0.552554
-0.295293 -2.283405 0.282879
-0.291108 -2.262826 -0.104930
-0.362027 -2.278214 0.236545
-0.324708 -2.261918 0.000898
-0.363194 -2.273477 0.264589
-0.295562 -2.262608 -0.021936
-0.396233 -2.259002 0.091523
-0.405062 -2.286673 0.596252
-0.336533 -2.290638 0.509612
-0.301644 -2.271432 0.173971
-0.330165 -2.255126 -0.088056
-0.308868 -2.300141 0.574693
-0.334100 -2.256087 -0.094076
-0.371547 -2.254953 -0.014269
-0.417381 -2.291794 0.495161
-0.373228 -2.253474 -0.067262
-0.375074 -2.251253 -0.092247
-0.346675 -2.260196 0.020854
-0.421314 -2.270106 0.309351
-0.391498 -2.289987 0.525359
-0.355000 -2.278458 0.263665
-0.420300 -2.249876 -0.042465
-0.394638 -2.284230 0.550407
-0.421043 -2.246476 -0.086437
-0.330080 -2.291173 0.459714
-0.359738 -2.274102 0.222691
-0.424367 -2.249040 -0.026469
-0.429673 -2.269223 0.209330
-0.328498 -2.263015 0.006968
-0.394782 -2.255676 0.053660
-0.378513 -2.299230 0.555409
-0.338697 -2.254895 -0.119988
-0.345967 -2.275609 0.281810
-0.342754 -2.251032 -0.106962
-0.414700 -2.271452 0.238456
-0.376365 -2.253140 0.000835
-0.447890 -2.258238 0.093377
-0.414855 -2.267683 0.263493
-0.455765 -2.284904 0.599117
-0.347195 -2.255802 -0.025017
-0.387223 -2.276819 0.506598
-0.353290 -2.266632 0.171870
-0.361546 -2.297364 0.575568
-0.381806 -2.248338 -0.089139
-0.384752 -2.247296 -0.095138
-0.423215 -2.246192 -0.012336
-0.471074 -2.292066 0.500996
-0.424877 -2.246695 -0.067349
-0.425738 -2.242480 -0.091311
-0.397330 -2.253402 0.019771
-0.472985 -2.267328 0.310222
-0.445180 -2.292249 0.530175
-0.406676 -2.271682 0.264578
-0.471964 -2.245122 -0.039575
-0.447315 -2.284461 0.552246
-0.473692 -2.244727 -0.083579
-0.382748 -2.277354 0.455693
-0.410415 -2.263305 0.221646
-0.477022 -2.246290 -0.023602
-0.482352 -2.262470 0.212235
-0.380144 -2.254217 0.004903
-0.446440 -2.250902 0.054551
-0.430210 -2.291449 0.556328
-0.389342 -2.246095 -0.122052
-0.398620 -2.272827 0.281681
-0.394383 -2.246235 -0.109068
-0.505478 -2.279121 0.601019
-0.466381 -2.264685 0.240364
-0.466522 -2.264905 0.264363
-0.428009 -2.250358 0.000707
-0.499563 -2.251472 0.095283
-0.398831 -2.250004 -0.027114
-0.441863 -2.283048 0.507372
-0.413229 -2.295582 0.576430
-0.404945 -2.257830 0.169801
-0.435414 -2.250556 -0.090322
-0.437369 -2.248510 -0.096308
-0.475846 -2.249422 -0.011529
-0.523781 -2.281306 0.503934
-0.478505 -2.246930 -0.066516
-0.479360 -2.244715 -0.090498
-0.523678 -2.260553 0.312128
-0.449955 -2.251605 0.017629
-0.497878 -2.286488 0.533066
-0.458345 -2.267904 0.265456
-0.523625 -2.240357 -0.037692
-0.499005 -2.279677 0.553130
-0.525361 -2.237972 -0.080676
-0.528690 -2.241534 -0.020719
-0.463062 -2.259514 0.220520
-0.435407 -2.271549 0.453588
-0.534045 -2.255719 0.216137
-0.432769 -2.251420 0.002770
-0.499079 -2.250121 0.054394
-0.480919 -2.283670 0.558245
-0.442947 -2.243295 -0.125189
-0.451270 -2.273042 0.281516
-0.518063 -2.260923 0.243236
-0.518188 -2.261116 0.264235
-0.549256 -2.241697 0.097219
-0.446996 -2.243431 -0.112202
-0.480650 -2.246578 0.000580
-0.451445 -2.249197 -0.030268
-0.465909 -2.295810 0.578263
-0.494541 -2.277259 0.507261
-0.458570 -2.254025 0.166672
-0.488039 -2.246760 -0.092450
-0.489020 -2.240729 -0.096394
-0.527517 -2.240656 -0.009609
-0.529167 -2.238143 -0.066592
-0.577490 -2.276574 0.509803
-0.531020 -2.235941 -0.089578
-0.576352 -2.257784 0.313982
-0.502590 -2.248815 0.016489
-0.549588 -2.275713 0.535003
-0.511008 -2.265128 0.266314
-0.576279 -2.237594 -0.035837
-0.550698 -2.270882 0.553047
-0.577031 -2.231215 -0.077779
-0.580370 -2.234785 -0.016822
-0.514722 -2.253716 0.219411
-0.587720 -2.255981 0.220956
-0.491048 -2.274781 0.454380
-0.484421 -2.242628 0.001693
-0.551730 -2.244339 0.054279
-0.534603 -2.279901 0.560107
-0.501949 -2.263240 0.280449
-0.495563 -2.239489 -0.128319
-0.569871 -2.252335 0.265150
-0.570739 -2.255155 0.245119
-0.604886 -2.245940 0.098991
-0.500602 -2.241628 -0.115356
-0.533291 -2.243797 0.000436
-0.506056 -2.244398 -0.033397
-0.517605 -2.284006 0.577209
-0.546223 -2.269456 0.506167
-0.538694 -2.237963 -0.093529
-0.513195 -2.254239 0.165494
-0.542644 -2.236943 -0.097533
-0.580175 -2.235892 -0.007737
-0.581816 -2.233371 -0.065721
-0.630206 -2.268827 0.514699
-0.626058 -2.249002 0.315898
-0.583669 -2.230170 -0.088697
-0.555237 -2.241024 0.015391
-0.562691 -2.256346 0.267228
-0.606268 -2.280998 0.541758
-0.606362 -2.279135 0.556777
-0.626971 -2.223832 -0.032875
-0.629695 -2.225460 -0.074902
-0.632047 -2.227025 -0.013923
-0.640412 -2.249230 0.224841
-0.568367 -2.249924 0.218269
-0.544705 -2.268977 0.452259
-0.604389 -2.238564 0.055157
-0.538042 -2.240831 -0.000466
-0.586308 -2.272123 0.562008
-0.555608 -2.260465 0.281297
-0.547196 -2.230679 -0.131404
-0.622539 -2.245547 0.265036
-0.624412 -2.252398 0.247961
-0.656570 -2.236168 0.100907
-0.551255 -2.229823 -0.117409
-0.585944 -2.236014 0.000335
-0.569302 -2.278218 0.578091
-0.557694 -2.236585 -0.036493
-0.599895 -2.264667 0.506031
-0.591335 -2.230173 -0.094632
-0.566832 -2.246430 0.162389
-0.594293 -2.228149 -0.098622
-0.633824 -2.231121 -0.006876
-0.635453 -2.229591 -0.065870
-0.683919 -2.261082 0.519585
-0.677744 -2.242216 0.316782
-0.637311 -2.226399 -0.087846
-0.608870 -2.238234 0.014234
-0.617349 -2.255582 0.269047
-0.659975 -2.274243 0.545635
-0.681612 -2.224071 -0.031071
-0.683343 -2.223696 -0.073075
-0.684719 -2.220267 -0.011043
-0.692119 -2.237473 0.228773
-0.622015 -2.246130 0.217120
-0.656056 -2.229774 0.055061
-0.598369 -2.260170 0.450160
-0.591668 -2.237032 -0.002613
-0.609268 -2.255679 0.281157
-0.601802 -2.226877 -0.134555
-0.708251 -2.229394 0.102787
-0.677190 -2.246771 0.265829
-0.679088 -2.249650 0.251793
-0.603880 -2.223013 -0.120524
-0.637607 -2.226225 0.000250
-0.651586 -2.253860 0.504954
-0.612303 -2.234781 -0.039665
-0.643977 -2.222380 -0.095740
-0.620473 -2.240628 0.160259
-0.646934 -2.221356 -0.099741
-0.686489 -2.225352 -0.005008
-0.731427 -2.239453 0.319613
-0.689094 -2.225808 -0.066026
-0.689958 -2.221613 -0.087988
-0.662505 -2.232433 0.012099
-0.670036 -2.246809 0.270944
-0.733290 -2.214299 -0.029164
-0.736015 -2.216937 -0.070202
-0.740368 -2.223524 -0.007281
-0.745813 -2.232730 0.233621
-0.676667 -2.241347 0.216970
-0.710694 -2.228992 0.054870
-0.653030 -2.253375 0.449031
-0.646291 -2.233235 -0.004770
-0.662928 -2.251890 0.281001
-0.730860 -2.242990 0.266667
-0.653438 -2.218062 -0.137654
-0.762913 -2.225628 0.104619
-0.730787 -2.237873 0.253717
-0.693225 -2.227439 -0.000965
-0.658498 -2.217219 -0.122663
-0.706262 -2.249080 0.505800
-0.665937 -2.226980 -0.041782
-0.697603 -2.219579 -0.097909
-0.675107 -2.236827 0.158098
-0.701557 -2.219568 -0.100924
-0.742126 -2.224583 -0.004208
-0.783129 -2.228673 0.321523
-0.741756 -2.218030 -0.065145
-0.743609 -2.215839 -0.087132
-0.716147 -2.227638 0.010948
-0.724700 -2.247041 0.272738
-0.786952 -2.209531 -0.027321
-0.788693 -2.208176 -0.067317
-0.793051 -2.213762 -0.004386
-0.801497 -2.228992 0.238444
-0.729332 -2.233546 0.215850
-0.765343 -2.223209 0.054719
-0.699928 -2.226433 -0.006901
-0.708691 -2.248590 0.448871
-0.815594 -2.218853 0.106481
-0.715603 -2.240089 0.279920
-0.782550 -2.230192 0.266595
-0.708044 -2.213247 -0.141809
-0.787457 -2.236129 0.257516
-0.746877 -2.220653 -0.001101
-0.712111 -2.213399 -0.126825
-0.718578 -2.216166 -0.044873
-0.752236 -2.212790 -0.099049
-0.754207 -2.209771 -0.102027
-0.728757 -2.228021 0.155982
-0.837807 -2.225900 0.323335
-0.793813 -2.211807 -0.002282
-0.794417 -2.208241 -0.065252
-0.796276 -2.205060 -0.086229
-0.770787 -2.221846 0.009795
-0.838637 -2.197755 -0.025408
-0.779375 -2.237262 0.273623
-0.741997 -2.224097 0.047964
-0.840375 -2.197400 -0.065414
-0.845738 -2.202998 -0.001488
-0.854210 -2.219241 0.243331
-0.783992 -2.227758 0.215696
-0.820990 -2.223434 0.055498
-0.752578 -2.215626 -0.008997
-0.767338 -2.248821 0.449643
-0.791912 -2.218300 0.050749
-0.869273 -2.212080 0.108333
-0.836231 -2.222409 0.267459
-0.771263 -2.236313 0.280742
-0.840157 -2.227359 0.260393
-0.762663 -2.205440 -0.144943
-0.801524 -2.214869 -0.001258
-0.766738 -2.204601 -0.128950
-0.844780 -2.217438 0.045461
-0.773201 -2.210356 -0.048028
-0.804883 -2.200983 -0.101140
-0.888522 -2.214112 0.325245
-0.807851 -2.200977 -0.103152
-0.850452 -2.211037 -0.001501
-0.785392 -2.223232 0.154808
-0.852038 -2.209466 -0.065496
-0.849935 -2.197281 -0.085367
-0.824435 -2.212040 0.007678
-0.831079 -2.225480 0.275533
-0.901660 -2.209618 0.043220
-0.797626 -2.220297 0.045782
-0.907360 -2.215268 0.002138
-0.915865 -2.226526 0.249004
-0.838648 -2.221959 0.214534
-0.873666 -2.210641 0.055411
-0.810188 -2.214833 -0.011218
-0.822008 -2.237011 0.447540
-0.848550 -2.215520 0.050548
-0.921958 -2.201293 0.109221
-0.892892 -2.219632 0.268253
-0.823947 -2.225515 0.280637
-0.898823 -2.227616 0.264149
-0.817283 -2.200629 -0.148113
-0.854194 -2.203076 -0.001355
-0.823335 -2.203787 -0.133168
-0.898460 -2.207664 0.047336
-0.830805 -2.208554 -0.051242
-0.951169 -2.226388 0.329860
-0.908091 -2.211268 -0.000743
-0.841033 -2.217429 0.152640
-0.904708 -2.196673 -0.065587
-0.906570 -2.194501 -0.085575
-0.932097 -2.150174 -0.020321
-0.879084 -2.204243 0.006530
-0.893710 -2.237749 0.279153
-0.956350 -2.200865 0.047075
-0.852276 -2.212500 0.044636
-0.973559 -2.224796 0.254775
-0.892319 -2.211156 0.213418
-0.929320 -2.204854 0.055234
-0.861853 -2.200018 -0.013283
-0.903210 -2.208730 0.050387
-0.884648 -2.243269 0.450219
-0.986573 -2.214560 0.111812
-0.949564 -2.217862 0.270030
-0.882592 -2.227744 0.281372
-0.955513 -2.221866 0.267964
-0.870912 -2.186806 -0.152198
-0.914797 -2.209298 -0.002671
-0.873012 -2.180969 -0.135148
-0.957108 -2.205905 0.049103
-1.007865 -2.223634 0.333641
-0.890398 -2.211756 -0.054522
-0.952424 -2.170872 -0.064535
-0.899662 -2.215642 0.151412
-0.999668 -2.168434 -0.019796
-1.017995 -2.207131 0.050743
-0.948398 -2.225964 0.280035
-0.934725 -2.194440 0.004391
-1.006807 -2.175720 0.009102
-0.905932 -2.200690 0.042527
-1.031262 -2.219064 0.260577
-0.957923 -2.225415 0.214995
-0.979024 -2.183048 0.055234
-0.918483 -2.193218 -0.015457
-0.957876 -2.196940 0.050268
-0.938336 -2.226452 0.448155
-1.005246 -2.209079 0.270872
-0.937272 -2.214951 0.281264
-1.017179 -2.227136 0.272640
-1.012784 -2.198134 0.050935
-1.069535 -2.226893 0.337331
-0.969795 -2.177581 -0.106602
-1.018435 -2.191717 0.001970
-0.967806 -2.166568 -0.107484
-0.956308 -2.205838 0.149263
-1.007074 -2.223207 0.282802
-0.965554 -2.199906 0.041275
-1.091952 -2.219339 0.266298
-1.016579 -2.218633 0.214801
-1.021489 -2.205184 0.050902
-1.068892 -2.216336 0.273512
-1.071889 -2.214365 0.275518
-0.998916 -2.219194 0.282948
-1.002664 -2.190133 -0.060801
-1.014945 -2.198039 0.147077
-1.065751 -2.216440 0.284601
-1.020211 -2.186095 0.039165
-1.057586 -2.212417 0.283747
-1.125434 -2.211682 0.287367
-1.120235 -2.213650 0.284438
