# .PCD v0.7 - Point Cloud Data file format
VERSION 0.7
FIELDS x y z
SIZE 4 4 4
TYPE F F F
COUNT 1 1 1
WIDTH 198
HEIGHT 1
VIEWPOINT 0 0 0 1
POINTS 198
DATA ascii
3.464981 -1.071475 3.315869
3.413331 -1.143387 3.295573
3.546198 -1.240819 3.349098
3.447587 -1.298246 3.289527
3.590264 -2.618062 0.926994
3.493049 -2.662948 1.120436
3.393491 -2.595203 0.886880
3.416993 -2.642127 1.552016
3.548800 -2.608959 0.887475
3.307269 -2.639972 1.082393
3.196229 -2.588782 0.552772
3.229353 -2.618223 1.488966
3.440047 -2.653104 0.982861
3.365097 -2.596956 0.854455
3.039964 -2.556049 0.815916
3.162236 -2.680820 1.712590
3.021325 -2.564637 0.534810
3.544386 -2.603498 0.838148
3.326834 -2.638625 1.494245
3.595702 -2.656010 0.883415
2.974762 -2.604601 1.017560
2.887228 -2.542714 0.786085
3.446207 -2.642822 1.480608
2.858413 -2.540360 0.517926
2.896045 -2.576941 1.379139
3.144176 -2.615642 1.436249
3.366714 -2.597419 0.810180
3.385856 -2.628233 0.850276
3.073451 -2.609042 0.919861
3.017579 -2.562703 0.791565
2.827018 -2.590215 0.988762
3.549124 -2.611982 0.787856
2.743502 -2.531281 0.758314
2.838862 -2.633422 1.605832
3.244486 -2.612010 1.420524
2.960376 -2.570797 0.414252
2.714590 -2.526896 0.504157
3.327792 -2.685175 1.508954
2.752428 -2.565552 1.334368
2.668057 -2.491547 0.321907
2.960411 -2.581643 1.378264
3.542737 -2.649188 0.742807
2.924760 -2.602661 0.896065
2.858800 -2.545408 0.763719
2.959460 -2.638613 1.523253
2.691290 -2.579699 0.964040
3.367435 -2.605922 0.763886
2.601717 -2.513813 0.730565
2.698206 -2.617996 1.562083
3.388121 -2.644023 1.410990
2.580774 -2.515322 0.492453
2.792423 -2.543545 0.401365
2.616807 -2.555072 1.291652
2.823845 -2.579177 1.339539
2.537255 -2.481941 0.309222
3.006118 -2.557251 0.753260
3.032322 -2.597003 0.799391
2.767952 -2.582338 0.870240
2.709022 -2.529014 0.737935
2.813838 -2.628233 1.482484
2.553476 -2.559186 0.937318
3.019552 -2.634769 2.061332
3.308762 -2.673991 1.373559
2.476999 -2.506171 0.707917
3.151465 -2.565155 0.732760
2.575601 -2.612383 1.525441
2.458990 -2.507626 0.480822
3.201435 -2.623037 1.362011
2.906165 -2.575709 1.323740
2.487159 -2.543517 1.251978
2.638485 -2.519145 0.390565
2.683206 -2.567735 1.298805
2.417494 -2.477221 0.297605
2.839301 -2.536016 0.727392
3.137016 -2.597424 0.691674
2.867532 -2.579751 0.776532
2.552756 -2.490115 0.287125
2.622143 -2.562896 0.845485
2.582332 -2.525390 0.717281
2.679221 -2.620733 1.445783
2.426697 -2.543559 0.912665
2.346186 -2.486572 0.682249
2.437829 -2.584895 1.480730
2.992744 -2.557841 0.712938
3.097280 -2.652498 2.027467
2.342202 -2.499873 0.470228
2.766558 -2.570251 1.288019
3.009656 -2.590080 1.310024
2.357464 -2.525950 1.210316
2.502623 -2.503568 0.380871
2.545522 -2.552248 1.259099
2.807739 -2.622835 1.368223
2.690502 -2.519592 0.705631
2.963233 -2.582249 0.671780
2.713733 -2.562378 0.754744
3.073857 -2.699867 2.034332
2.521286 -2.576879 1.900982
2.424930 -2.479456 0.278478
2.485333 -2.544354 0.822789
2.435437 -2.495936 0.690536
2.543544 -2.606227 1.408088
2.306943 -2.531857 0.892059
2.313108 -2.565274 1.441099
2.227407 -2.472849 0.660654
2.942375 -2.631927 1.283667
2.829944 -2.540550 0.691111
2.242810 -2.517225 1.176741
2.619865 -2.552845 1.247276
2.862040 -2.583690 1.274271
2.386868 -2.501797 0.375290
2.576337 -2.511234 0.281050
2.414819 -2.535680 1.220439
2.661056 -2.607432 1.330478
2.552737 -2.507055 0.684937
2.801430 -2.565943 0.652961
2.569953 -2.547902 0.735020
2.391708 -2.561345 1.844332
2.189126 -2.513120 0.869473
2.364589 -2.535653 0.805185
2.903306 -2.681754 1.971463
2.399745 -2.575781 1.364366
2.318715 -2.490192 0.672956
2.575862 -2.585750 1.878059
2.195379 -2.546572 1.404513
2.440316 -2.471625 0.245377
2.782706 -2.617647 1.246862
2.774101 -2.612068 1.900827
2.677130 -2.523148 0.672348
2.133143 -2.508440 1.145202
2.486154 -2.537294 1.212610
2.721410 -2.577220 1.241564
2.298192 -2.529972 1.187862
2.441478 -2.497629 0.275382
2.519356 -2.590968 1.294770
2.417930 -2.490476 0.665271
2.436148 -2.532312 0.717359
2.638571 -2.542632 0.634153
2.281178 -2.558611 1.801787
2.242791 -2.519949 0.785587
2.278051 -2.562115 1.331766
2.211010 -2.487355 0.656430
2.446274 -2.572201 1.826418
2.099769 -2.547651 1.381049
2.636550 -2.602602 1.850145
2.534321 -2.506640 0.653648
2.640067 -2.610190 1.216154
2.016373 -2.485708 1.108638
2.363482 -2.527632 1.181010
2.177449 -2.511281 1.153276
2.565627 -2.549873 1.200800
2.447494 -2.626213 1.930420
2.378596 -2.567478 1.258081
2.301204 -2.484721 0.648705
2.155509 -2.533999 1.746189
2.304329 -2.513686 0.698730
2.495780 -2.528114 0.618468
2.171415 -2.558288 1.306262
1.999081 -2.537760 1.352580
2.328723 -2.566520 1.782860
2.584092 -2.638251 1.852896
2.495888 -2.581137 1.796482
2.408578 -2.499961 0.640063
2.242777 -2.514934 1.150452
2.484265 -2.581831 1.178422
2.063716 -2.495510 1.121755
2.439956 -2.542228 1.172216
2.314833 -2.604677 1.877801
2.191477 -2.480885 0.635208
2.254891 -2.554815 1.228513
2.189575 -2.506910 0.685203
2.057650 -2.540528 1.275739
2.373047 -2.524415 0.605901
2.204029 -2.544903 1.731285
2.449500 -2.628751 1.808268
2.369244 -2.567541 1.750897
2.126037 -2.500198 1.119920
2.281760 -2.485288 0.624484
2.314224 -2.528581 1.142639
2.350534 -2.567266 1.148806
2.139182 -2.544074 1.200986
2.242211 -2.507775 0.592307
2.089356 -2.529177 1.687766
2.319872 -2.616185 1.764673
2.251613 -2.557848 1.710363
2.021352 -2.494341 1.095454
2.194470 -2.513863 1.115099
2.223823 -2.555627 1.122233
2.025414 -2.527298 1.173478
1.985716 -2.520337 1.650307
2.182142 -2.588679 1.714054
2.136949 -2.545112 1.670852
2.081736 -2.502071 1.089602
2.095002 -2.530984 1.092662
1.883031 -2.506473 1.611861
2.024250 -2.528344 1.630360
2.058454 -2.570027 1.672511
1.924599 -2.521444 1.598934
1.943770 -2.554278 1.635018
