# .PCD v0.7 - Point Cloud Data file format
VERSION 0.7
FIELDS x y z
SIZE 4 4 4
TYPE F F F
COUNT 1 1 1
WIDTH 22
HEIGHT 1
VIEWPOINT 0 0 0 1
POINTS 22
DATA ascii
1.609572 2.553640 2.734487
1.871426 3.082376 3.456141
1.414024 2.221594 2.614958
1.698117 2.565470 2.791211
1.449140 2.307107 2.626570
1.519241 2.259280 2.711629
1.275261 2.026535 2.558740
1.727700 2.679883 2.727391
1.560388 2.353662 2.726547
1.504066 2.403898 2.660774
1.339037 2.020170 2.592623
1.371804 2.161072 2.586574
1.619385 2.452502 2.757846
1.578351 2.537462 2.697174
1.477174 2.202926 2.677328
1.279463 2.035955 2.553893
1.487760 2.307792 2.600971
1.319024 2.046982 2.538789
1.700741 2.592033 2.793486
1.364116 2.053800 2.612705
1.432272 2.103348 2.647025
1.432993 2.046540 2.641622
