# .PCD v0.7 - Point Cloud Data file format
VERSION 0.7
FIELDS x y z
SIZE 4 4 4
TYPE F F F
COUNT 1 1 1
WIDTH 15
HEIGHT 1
VIEWPOINT 0 0 0 1
POINTS 15
DATA ascii
-1.424484 2.321530 1.094912
-1.423496 2.323606 1.096569
-1.360824 2.336229 1.087989
-1.423483 2.324671 1.098169
-1.356760 2.333446 1.085531
-1.441714 2.333409 1.093240
-1.361982 2.345375 1.088368
-1.365560 2.295775 1.005426
-1.381280 2.357087 1.083498
-1.341539 2.416076 0.969906
-1.301698 2.300518 0.994384
-1.321550 2.537268 0.933554
-1.280885 2.432635 0.965072
-1.159389 2.401071 0.811285
-1.244448 2.532299 0.922153
