# .PCD v0.7 - Point Cloud Data file format
VERSION 0.7
FIELDS x y z
SIZE 4 4 4
TYPE F F F
COUNT 1 1 1
WIDTH 40
HEIGHT 1
VIEWPOINT 0 0 0 1
POINTS 40
DATA ascii
0.450872 -3.590933 1.859827
0.425351 -3.517348 1.942616
0.388442 -3.736732 1.928632
0.340090 -3.481038 1.922319
0.254036 -3.410369 1.884720
0.170053 -3.329654 1.843303
0.089189 -3.225703 1.788322
0.013253 -3.134995 1.742026
-0.057736 -3.053490 1.702493
-0.124869 -2.995292 1.675450
-0.191098 -2.955334 1.659028
0.470871 -3.822253 1.972589
0.379498 -3.776173 1.941972
0.005321 -3.033675 1.804668
0.126645 -3.194198 1.856937
0.477473 -3.635856 1.961186
0.438178 -3.491154 1.870674
-0.058177 -3.005018 1.786575
0.055263 -3.144331 1.829229
0.376444 -3.518277 1.901701
0.358689 -3.468446 1.856587
-0.121598 -2.961261 1.761716
-0.014097 -3.089439 1.798580
0.282374 -3.408820 1.846040
0.295557 -3.593110 1.921111
-0.181972 -2.905420 1.730024
-0.079439 -3.028550 1.765992
0.213223 -3.535122 1.889563
0.197091 -3.348884 1.818551
-0.240289 -2.837493 1.691508
-0.142649 -2.938435 1.717851
0.134913 -3.470139 1.856090
0.116688 -3.313200 1.803656
-0.202930 -2.865511 1.679429
0.059557 -3.418297 1.829408
0.039959 -3.363306 1.837398
-0.261250 -2.805738 1.649774
-0.038391 -3.323654 1.823531
-0.114644 -3.260842 1.798002
-0.186858 -3.186973 1.766612
