# .PCD v0.7 - Point Cloud Data file format
VERSION 0.7
FIELDS x y z
SIZE 4 4 4
TYPE F F F
COUNT 1 1 1
WIDTH 27
HEIGHT 1
VIEWPOINT 0 0 0 1
POINTS 27
DATA ascii
2.092110 -0.692835 2.542410
2.050093 -0.685098 2.529405
2.185387 -0.720615 2.569452
2.077614 -0.739326 2.541196
2.167871 -0.766119 2.568233
2.050091 -0.780827 2.527991
2.143337 -0.808615 2.559019
2.107786 -0.847123 2.539811
2.176885 -0.997093 2.563014
2.078213 -0.885609 2.526609
2.143339 -1.040657 2.551773
2.143815 -1.092984 2.547512
2.103771 -1.081230 2.536541
2.107241 -1.134542 2.534274
2.077213 -1.127810 2.536287
2.085690 -1.185137 2.540998
2.163983 -1.220953 2.550931
2.138993 -1.204234 2.529063
2.125383 -1.262527 2.539682
2.165186 -1.390361 2.545890
2.102401 -1.245741 2.510817
2.152488 -1.425632 2.535685
2.081750 -1.299076 2.522454
2.103535 -1.421980 2.517670
2.100859 -1.307304 2.534482
2.094828 -1.458246 2.512461
2.190094 -1.496480 2.564430
