# .PCD v0.7 - Point Cloud Data file format
VERSION 0.7
FIELDS x y z
SIZE 4 4 4
TYPE F F F
COUNT 1 1 1
WIDTH 93
HEIGHT 1
VIEWPOINT 0 0 0 1
POINTS 93
DATA ascii
2.327211 1.062104 1.237496
2.415490 1.082429 1.347909
2.467961 1.074309 0.839291
2.451258 1.051983 1.287393
2.613331 1.107741 0.930958
2.568361 1.079643 1.421927
2.424165 1.086861 1.295921
2.368121 1.059516 1.169779
2.195174 1.052291 1.481735
2.607082 1.064158 0.875273
2.350548 0.939233 0.444633
2.550850 1.009710 0.505339
2.781328 1.102867 0.984074
2.711326 1.066751 1.489948
2.209952 1.081689 1.535592
2.543259 1.068718 1.347838
2.498187 1.048411 1.218710
2.653065 1.097430 0.895277
2.321153 1.044280 1.546623
2.394931 1.065877 1.099892
2.450861 1.087435 1.254079
2.605913 1.065335 0.795234
2.338162 0.954461 0.370417
2.682206 0.998185 0.498264
2.600178 1.043528 0.467358
2.249152 1.053684 1.407075
3.034049 1.117696 0.594523
2.952338 1.093021 1.039230
2.593548 1.112561 0.835757
2.860301 1.048911 1.562031
2.327980 1.069606 1.597457
2.711143 1.064010 1.423941
2.846016 1.097713 0.953491
2.451146 1.032299 1.613554
2.534009 1.054810 1.148868
2.595649 1.074507 0.717073
2.594871 1.077478 1.314076
2.771016 1.056337 0.835346
2.842429 1.077374 0.438604
2.886259 1.015152 1.467453
2.773148 1.127117 0.449747
2.417838 1.064158 1.023042
3.079768 1.064538 0.562220
3.022621 1.129043 0.536319
3.234156 1.106863 0.632848
3.098500 1.065969 1.085350
2.381166 1.043678 1.470003
2.500593 1.091074 1.207353
2.775564 1.110722 0.885916
3.002337 1.024000 1.630110
2.501706 1.075088 1.695517
2.878074 1.051288 1.500084
3.086391 1.022147 1.002610
3.010130 1.079757 1.000650
2.605037 1.023551 1.695593
2.589445 1.079656 0.633972
2.757813 1.062440 0.751183
2.962058 1.050521 0.882576
2.747885 1.063589 1.378144
2.694486 0.950330 0.414690
2.672336 1.103419 0.800305
2.770743 1.136508 0.391630
3.259003 1.043495 0.587482
2.982258 1.128254 0.479033
3.197848 1.108002 0.564560
2.568917 1.054152 1.073073
3.420341 1.083933 0.668161
2.659600 1.082198 1.269420
2.948663 1.097801 0.932087
2.950311 1.002590 1.392901
3.036094 1.028472 1.571233
2.615847 1.048935 1.753440
3.188226 1.058914 1.053900
3.127234 1.027515 0.922763
2.751630 1.066573 0.666080
2.956871 1.057644 0.796443
2.904917 1.044730 1.444258
3.210881 1.046299 0.484106
2.882332 1.105726 0.852580
3.172478 1.112268 0.505316
3.401033 1.089136 0.597935
2.737961 1.044279 1.129195
2.815664 1.065285 1.329514
3.107859 1.071772 0.974258
3.018183 1.006131 1.324234
3.139040 1.037718 0.836698
2.590858 0.932305 0.624154
3.068456 1.090853 0.897823
2.911036 1.027433 1.187377
2.998650 1.050594 1.401735
2.826200 0.993067 1.685155
3.147924 1.040858 0.744669
3.243670 1.062896 0.940079
