# .PCD v0.7 - Point Cloud Data file format
VERSION 0.7
FIELDS x y z
SIZE 4 4 4
TYPE F F F
COUNT 1 1 1
WIDTH 15
HEIGHT 1
VIEWPOINT 0 0 0 1
POINTS 15
DATA ascii
3.578055 -1.281009 3.723942
3.519811 -1.286372 3.664311
3.780490 -1.263192 3.987094
3.634711 -1.234961 3.892321
3.415444 -1.316686 3.589795
3.486088 -1.279029 3.969203
3.430464 -1.272384 3.914825
3.347192 -1.318117 3.521150
3.592036 -1.291772 3.814845
3.468117 -1.267495 3.746199
3.273656 -1.353234 3.476823
3.432409 -1.324184 3.671788
3.324337 -1.301931 3.625251
3.294604 -1.358504 3.552894
3.194432 -1.336261 3.517432
