# .PCD v0.7 - Point Cloud Data file format
VERSION 0.7
FIELDS x y z
SIZE 4 4 4
TYPE F F F
COUNT 1 1 1
WIDTH 33
HEIGHT 1
VIEWPOINT 0 0 0 1
POINTS 33
DATA ascii
0.015860 2.043938 2.017340
0.023478 1.888755 2.041169
0.036673 1.839767 2.041826
0.016556 1.868713 2.037075
0.061946 2.016194 1.995227
0.032656 1.844701 2.041930
0.065504 1.881875 2.035215
0.053790 2.055021 2.008583
0.076733 1.824938 2.028811
0.057569 1.866747 2.042159
0.073705 1.833806 2.037949
0.104661 1.840256 1.994997
0.115854 1.795227 2.000688
0.096732 1.825114 2.003941
0.112863 1.795143 2.003758
0.142487 1.890612 2.083554
-0.003689 1.923776 2.024678
0.001778 1.830783 2.024974
0.027838 2.016907 2.020480
0.027904 2.003961 2.013381
0.032386 1.908707 2.046662
0.041263 1.932873 2.028872
0.042753 1.834741 2.044126
0.043651 1.854737 2.045281
0.070953 1.990231 1.995387
0.070969 1.987246 1.993364
0.074486 1.887019 2.022609
0.084419 1.900310 1.989735
0.082815 1.823965 2.032151
0.083795 1.828131 2.011185
0.117485 1.887170 2.022725
0.121951 1.800293 2.007082
0.125725 1.842195 2.022408
