# .PCD v0.7 - Point Cloud Data file format
VERSION 0.7
FIELDS x y z
SIZE 4 4 4
TYPE F F F
COUNT 1 1 1
WIDTH 18
HEIGHT 1
VIEWPOINT 0 0 0 1
POINTS 18
DATA ascii
1.349466 -2.449145 2.958926
1.344611 -2.448452 2.920897
1.099618 -1.967607 2.234661
1.271438 -2.441486 2.920485
1.028026 -2.005917 2.120512
1.267534 -2.438765 2.881453
1.029388 -1.948713 2.188239
1.193488 -2.430983 2.845027
0.988973 -2.046959 2.144480
1.340410 -2.437312 2.914623
0.991224 -1.983762 2.204190
1.118254 -2.414232 2.801563
1.065611 -2.322180 2.415933
1.266394 -2.429543 2.871202
1.145473 -2.394463 2.639532
1.195410 -2.423663 2.831804
1.072322 -2.381611 2.600098
1.123303 -2.411808 2.787380
