# .PCD v0.7 - Point Cloud Data file format
VERSION 0.7
FIELDS x y z
SIZE 4 4 4
TYPE F F F
COUNT 1 1 1
WIDTH 152
HEIGHT 1
VIEWPOINT 0 0 0 1
POINTS 152
DATA ascii
0.798964 -2.064337 -0.099900
0.790793 -2.068596 -0.047900
0.787006 -2.063281 -0.099873
0.789550 -2.089843 -0.004976
0.784681 -2.086649 -0.034955
0.779485 -2.083006 0.033068
0.780400 -2.093071 0.043029
0.772758 -2.075610 -0.030891
0.769768 -2.086510 -0.046925
0.767309 -2.092232 0.083058
0.767249 -2.094316 0.098050
0.764275 -2.089311 0.100075
0.764273 -2.093284 0.095060
0.959567 -2.681163 -0.140513
0.743240 -2.063907 -0.129787
0.748901 -2.081334 -0.059863
0.744868 -2.082382 -0.047859
0.740882 -2.081368 -0.046847
0.846274 -2.390597 -0.121211
0.735718 -2.088586 -0.003863
0.728889 -2.079376 -0.034815
0.727626 -2.087746 0.032156
0.724026 -2.077167 -0.067796
0.726371 -2.093126 0.101138
0.723868 -2.085364 -0.032826
0.723590 -2.088799 0.045161
0.720231 -2.091372 0.151158
0.722018 -2.102635 0.196111
0.714967 -2.081235 -0.047792
0.712509 -2.088931 0.079183
0.710477 -2.084025 0.098206
0.709478 -2.086998 0.094197
0.711415 -2.093055 0.102170
0.700848 -2.089023 0.287206
0.695062 -2.080092 -0.055745
0.692022 -2.083133 -0.045750
0.689033 -2.082123 -0.044740
0.687782 -2.095080 0.310212
0.681899 -2.085320 -0.002736
0.676061 -2.078112 -0.034696
0.676821 -2.087078 0.321266
0.672849 -2.078459 0.031309
0.670214 -2.072904 -0.066664
0.671583 -2.084844 0.102287
0.669089 -2.077076 -0.034677
0.671723 -2.092550 0.048258
0.666424 -2.087087 0.151290
0.667250 -2.092329 0.194268
0.663820 -2.087077 0.334294
0.661168 -2.074964 -0.047651
0.662777 -2.096073 0.334263
0.659700 -2.085645 0.077311
0.659638 -2.093323 0.383280
0.657651 -2.082748 0.098326
0.655698 -2.078704 0.092346
0.653678 -2.076753 0.103358
0.656007 -2.090738 0.280298
0.646085 -2.080691 0.282359
0.640380 -2.072639 -0.087595
0.641234 -2.077836 -0.052617
0.637218 -2.076869 -0.042604
0.633247 -2.073848 -0.042584
0.634013 -2.086756 0.306363
0.627134 -2.073039 -0.001567
0.624023 -2.082768 0.319401
0.623247 -2.074839 -0.034565
0.621036 -2.075181 0.030439
0.617275 -2.073803 -0.035547
0.617786 -2.078561 0.103433
0.612997 -2.074252 0.051461
0.613619 -2.081799 0.151440
0.615428 -2.091033 0.192401
0.612965 -2.090787 0.334407
0.610327 -2.076691 -0.049531
0.608714 -2.084249 0.424441
0.608988 -2.089759 0.333421
0.604865 -2.074462 0.098491
0.605924 -2.078333 0.073474
0.604872 -2.083993 0.381452
0.602890 -2.075413 0.091492
0.600866 -2.072477 0.105508
0.602205 -2.086432 0.280451
0.595276 -2.079375 0.277496
0.580264 -2.076416 0.301546
0.573194 -2.083466 0.318538
0.569232 -2.071893 0.029595
0.572073 -2.097152 0.634487
0.563996 -2.072271 0.105607
0.566280 -2.093843 0.583515
0.562808 -2.079511 0.151582
0.561691 -2.077713 0.190591
0.561166 -2.073983 0.054608
0.561170 -2.086475 0.333558
0.557929 -2.078924 0.421595
0.556193 -2.085445 0.333576
0.553164 -2.069028 0.071648
0.555050 -2.083688 0.380585
0.552083 -2.068166 0.098654
0.549161 -2.061100 0.089689
0.550044 -2.071203 0.107648
0.550363 -2.089138 0.282578
0.545454 -2.081061 0.273621
0.232288 -0.830592 0.000219
0.232235 -0.832667 0.014214
0.231233 -0.834677 0.017215
0.531433 -2.078114 0.299670
0.227323 -0.822653 0.017276
0.224351 -0.824647 0.019292
0.522391 -2.081150 0.316683
0.221403 -0.823620 0.017317
0.511230 -2.062973 0.106785
0.509943 -2.066398 0.188775
0.512509 -2.087486 0.581683
0.510045 -2.070205 0.151760
0.510089 -2.081617 0.419714
0.509389 -2.080154 0.332722
0.506221 -2.084382 0.379714
0.505384 -2.083135 0.333722
0.495618 -2.077807 0.282769
0.494659 -2.078733 0.269769
0.479651 -2.073782 0.296829
0.198853 -0.781494 0.019604
0.200720 -0.799581 0.033539
0.472587 -2.078833 0.314829
0.203576 -0.820652 0.043457
0.461127 -2.066095 0.186911
0.460286 -2.079290 0.417861
0.459744 -2.080127 0.579858
0.460550 -2.081856 0.333851
0.195706 -0.803666 0.055565
0.188888 -0.777632 0.057692
0.455429 -2.080057 0.378872
0.454583 -2.079818 0.333875
0.187866 -0.780668 0.065692
0.191710 -0.800740 0.074604
0.442926 -2.067388 0.264957
0.442851 -2.069485 0.283949
0.430838 -2.073461 0.293967
0.164645 -0.701299 0.023111
0.172316 -0.750411 0.034906
0.422783 -2.076513 0.313978
0.172269 -0.755458 0.043891
0.177914 -0.800655 0.074711
0.412700 -2.085552 0.333971
0.406630 -2.076732 0.377023
0.402850 -2.066482 0.333074
0.162420 -0.737503 0.065026
0.391209 -2.054035 0.260158
0.391123 -2.055157 0.284153
0.379142 -2.056110 0.290184
0.373029 -2.067177 0.311158
0.352141 -2.050140 0.331287
