# .PCD v0.7 - Point Cloud Data file format
VERSION 0.7
FIELDS x y z
SIZE 4 4 4
TYPE F F F
COUNT 1 1 1
WIDTH 74
HEIGHT 1
VIEWPOINT 0 0 0 1
POINTS 74
DATA ascii
3.509544 -2.791181 0.435130
2.655405 -2.331128 0.369396
2.931272 -2.479670 0.290072
2.534867 -2.256884 0.165011
2.658619 -2.330472 0.344155
2.693079 -2.335926 0.308397
2.660092 -2.426656 0.799992
2.400161 -2.210131 0.338315
2.816558 -2.494752 0.794364
2.496325 -2.328434 0.465098
2.362790 -2.205161 0.157782
2.567587 -2.345065 0.370756
2.400271 -2.206504 0.318072
2.578566 -2.386012 0.768732
2.784751 -2.485968 0.754672
2.411414 -2.197444 0.284073
2.394927 -2.289845 0.734857
2.679595 -2.520344 0.839478
2.440988 -2.210109 0.250191
2.172090 -2.097479 0.311606
2.518062 -2.341648 0.727874
2.406765 -2.200978 0.147742
2.373052 -2.215645 0.252422
2.255058 -2.203040 0.432265
2.112042 -2.066908 0.145887
2.308081 -2.212065 0.344719
2.175237 -2.096767 0.294416
2.323466 -2.253939 0.708753
2.503329 -2.390462 0.696397
2.187412 -2.091689 0.265427
2.485196 -2.331854 0.693206
2.166076 -2.170196 0.677180
2.388928 -2.355975 0.770160
2.314820 -2.338448 0.849461
2.211937 -2.104464 0.236492
1.984503 -2.008932 0.289376
2.276142 -2.221292 0.675047
2.131651 -2.091211 0.236636
2.048171 -2.096880 0.404848
2.103290 -2.114885 0.324301
1.971394 -1.995542 0.273040
2.344543 -2.289349 0.563420
2.105730 -2.142028 0.657227
2.243996 -2.249410 0.643440
1.978454 -1.986552 0.248015
2.238119 -2.204558 0.643370
1.972606 -2.072770 0.629918
2.098002 -2.218478 0.790976
2.161003 -2.234258 0.717541
2.006077 -2.006274 0.223105
2.065485 -2.115219 0.628613
1.905040 -2.032689 0.609951
2.102339 -2.159906 0.523684
2.039358 -2.147199 0.603080
2.026383 -2.095470 0.599962
1.799253 -1.981858 0.586929
1.917639 -2.125738 0.744893
1.968454 -2.133759 0.673338
1.867806 -2.007799 0.585391
1.875528 -2.107807 1.052419
2.228516 -2.367190 1.063417
2.082649 -2.291240 1.107994
1.899563 -2.052592 0.489410
1.838851 -1.997834 0.562855
1.959582 -2.151855 1.041783
1.861661 -2.096783 1.025900
1.731822 -2.040295 0.996747
1.793338 -2.076234 1.019221
1.995630 -2.230486 0.984877
1.896402 -2.191591 1.040908
1.796635 -2.070704 0.983951
1.803449 -2.163670 1.092943
1.706767 -2.017450 0.967165
1.810323 -2.129776 0.923840
