# .PCD v0.7 - Point Cloud Data file format
VERSION 0.7
FIELDS x y z
SIZE 4 4 4
TYPE F F F
COUNT 1 1 1
WIDTH 13
HEIGHT 1
VIEWPOINT 0 0 0 1
POINTS 13
DATA ascii
3.387497 -2.082920 2.044664
2.682957 -1.883314 1.312444
2.524728 -1.659506 1.185220
2.792916 -1.921971 1.323885
2.656332 -1.687026 1.186455
3.233357 -2.077071 2.132706
1.737661 -1.392947 1.548527
2.505553 -1.843616 2.004034
2.815481 -1.918554 2.037776
1.889292 -1.444733 1.089361
1.844738 -1.480931 1.085822
2.072527 -1.562088 1.098611
2.079298 -1.833544 1.686560
