# .PCD v0.7 - Point Cloud Data file format
VERSION 0.7
FIELDS x y z
SIZE 4 4 4
TYPE F F F
COUNT 1 1 1
WIDTH 504
HEIGHT 1
VIEWPOINT 0 0 0 1
POINTS 504
DATA ascii
3.836338 -1.354287 0.567799
3.720256 -1.343274 0.237559
3.660279 -1.339692 0.269413
3.735967 -1.360408 0.419343
3.637675 -1.339105 0.145305
3.609743 -1.341145 0.149178
3.605375 -1.344223 0.317135
3.574099 -1.338698 0.431140
3.606016 -1.352250 0.481046
3.567006 -1.352914 0.535897
3.472860 -1.344072 0.220698
3.515190 -1.360925 0.539597
3.408862 -1.335556 0.255615
3.367222 -1.306002 -0.358169
3.460629 -1.356153 0.395466
3.343411 -1.302148 -0.428199
3.349486 -1.324721 0.025540
3.371243 -1.331080 0.138518
3.360327 -1.338057 0.139374
3.360675 -1.350932 0.453225
3.331764 -1.340425 0.408283
3.293620 -1.325676 0.020346
3.330017 -1.336053 0.298319
3.329668 -1.352593 0.508089
3.270629 -1.327112 0.057238
3.234432 -1.335937 0.205007
3.287852 -1.360556 0.507824
3.195443 -1.335430 0.243887
3.233826 -1.358173 0.552704
3.225287 -1.354914 0.373680
3.121898 -1.303497 -0.400972
3.166830 -1.336017 0.133745
3.117047 -1.319772 0.025823
3.148911 -1.338979 0.131638
3.085158 -1.323710 0.020664
3.141335 -1.350652 0.428479
3.119406 -1.341189 0.387545
3.091253 -1.330388 -0.002420
3.109037 -1.348596 0.581429
3.116673 -1.340883 0.284516
3.113308 -1.349319 0.482399
3.060205 -1.327114 0.055520
3.049027 -1.340778 0.192299
3.017783 -1.320408 -0.162557
2.981829 -1.308065 -0.196484
3.080497 -1.358241 0.479150
2.961017 -1.305231 -0.264519
2.998029 -1.334328 0.233229
3.034462 -1.354825 0.521072
2.961865 -1.310293 -0.177584
2.988626 -1.329166 -0.018775
2.929236 -1.304617 -0.312635
3.013932 -1.352724 0.354993
2.932418 -1.309777 -0.377711
2.961396 -1.331001 0.128122
2.915214 -1.308139 -0.269731
2.926627 -1.322799 0.027128
2.964505 -1.342891 0.123950
2.889695 -1.318753 0.020074
2.943963 -1.347417 0.405854
2.894786 -1.324424 -0.003998
2.926670 -1.348310 0.555809
2.913046 -1.337010 0.368904
2.877922 -1.320781 -0.057006
2.876997 -1.317462 -0.080982
2.912309 -1.338757 0.270852
2.928940 -1.350091 0.461758
2.872788 -1.328105 0.052867
2.848097 -1.318450 -0.082095
2.862599 -1.336671 0.179726
2.845177 -1.325378 -0.085212
2.832313 -1.319557 -0.153174
2.891131 -1.354973 0.453554
2.806374 -1.312213 -0.185143
2.823598 -1.333257 0.224651
2.851100 -1.351506 0.491496
2.782547 -1.307426 -0.250158
2.796408 -1.316406 -0.168239
2.803201 -1.329240 -0.015406
2.751764 -1.306851 -0.295270
2.813560 -1.345579 0.337420
2.788979 -1.332979 0.124506
2.743921 -1.307100 -0.355307
2.742754 -1.312351 -0.253380
2.751204 -1.323831 0.027516
2.774056 -1.333877 0.116440
2.738268 -1.326747 0.020437
2.757272 -1.344061 0.531296
2.740352 -1.330404 -0.005616
2.768611 -1.348206 0.386244
2.742671 -1.337848 0.353311
2.721480 -1.325803 -0.055615
2.756571 -1.348881 0.441199
2.711587 -1.323534 -0.075626
2.724939 -1.334650 0.257288
2.706372 -1.330112 0.051282
2.704178 -1.337570 0.169185
2.685650 -1.320530 -0.077664
2.676717 -1.323480 -0.080738
2.717754 -1.350744 0.430043
2.665846 -1.318690 -0.145709
2.677182 -1.338162 0.216093
2.690713 -1.349239 0.465999
2.630905 -1.308411 -0.173663
2.628082 -1.311594 -0.237727
2.628941 -1.314570 -0.158760
2.637791 -1.331313 -0.011976
2.628551 -1.331968 0.120001
2.660200 -1.351449 0.325833
2.587295 -1.307093 -0.278806
2.598469 -1.316306 -0.337915
2.614633 -1.332842 0.109941
2.593779 -1.324872 0.027992
2.582802 -1.323794 0.019980
2.584306 -1.315554 -0.238938
2.609895 -1.345839 0.510793
2.582885 -1.326443 -0.007063
2.601224 -1.343047 0.367782
2.571020 -1.325872 -0.053098
2.583292 -1.336705 0.337815
2.594169 -1.343720 0.422747
2.567567 -1.336565 0.247747
2.548160 -1.322647 -0.070143
2.557953 -1.333117 0.049754
2.554747 -1.336496 0.159714
2.544219 -1.326594 -0.073214
2.555364 -1.344539 0.407607
2.529274 -1.325552 -0.077248
2.529393 -1.324778 -0.139243
2.520738 -1.332128 0.207674
2.538317 -1.344998 0.441565
2.479440 -1.307572 -0.164141
2.483635 -1.315755 -0.226258
2.468475 -1.309753 -0.149208
2.525108 -1.354487 0.645385
2.490125 -1.334965 0.117506
2.475346 -1.325431 -0.008414
2.494822 -1.345348 0.311387
2.442842 -1.310298 -0.264321
2.467488 -1.342657 0.491376
2.466207 -1.330827 0.104489
2.445364 -1.325819 0.019503
2.447998 -1.316577 -0.319405
2.460372 -1.331885 0.028454
2.442440 -1.326465 -0.008519
2.442852 -1.318735 -0.226443
2.440561 -1.328915 -0.051567
2.453847 -1.341907 0.352319
2.435900 -1.334607 0.325367
2.446769 -1.339571 0.405329
2.411311 -1.332442 0.150308
2.412524 -1.331153 0.048312
2.402730 -1.322761 -0.064615
2.410183 -1.331509 0.237312
2.398751 -1.322714 -0.068627
2.416973 -1.343363 0.389174
2.378296 -1.327105 0.200287
2.407935 -1.346780 0.421113
2.390817 -1.324632 -0.074682
2.385926 -1.321918 -0.132664
2.351995 -1.312695 -0.155630
2.350165 -1.316935 -0.214707
2.350054 -1.319814 -0.143742
2.366770 -1.345209 0.615009
2.341669 -1.326002 0.113160
2.342940 -1.329490 -0.005903
2.340081 -1.341481 0.472979
2.314893 -1.322872 0.019125
2.337775 -1.331814 0.100058
2.360448 -1.347247 0.299922
2.319988 -1.328481 -0.009946
2.313406 -1.315474 -0.251816
2.308904 -1.320994 0.029127
2.303520 -1.312861 -0.301814
2.309089 -1.325993 -0.049949
2.312417 -1.322905 -0.214926
2.319451 -1.339788 0.337914
2.322386 -1.342440 0.391883
2.300508 -1.332513 0.312959
2.284869 -1.330394 0.141929
2.276086 -1.327204 0.046930
2.263272 -1.316848 -0.063976
2.270300 -1.322867 -0.060044
2.272794 -1.329480 0.229898
2.266867 -1.332059 0.194852
2.281522 -1.343603 0.401749
2.292582 -1.344218 0.373758
2.316099 -1.362869 0.671587
2.260352 -1.321739 -0.071060
2.253451 -1.318067 -0.126033
2.222523 -1.309851 -0.148005
2.213687 -1.311145 -0.204060
2.224601 -1.319956 -0.136149
2.232255 -1.332987 0.110702
2.241452 -1.347975 0.592561
2.219680 -1.340348 0.457605
2.232324 -1.347936 0.667548
2.202448 -1.325900 0.018716
2.216515 -1.329574 -0.003312
2.201526 -1.327528 -0.010315
2.211340 -1.328813 0.094695
2.227064 -1.344189 0.289537
2.188636 -1.325054 -0.049324
2.193496 -1.326028 0.029679
2.168916 -1.304761 -0.237120
2.179055 -1.313091 -0.287218
2.171927 -1.313163 -0.202232
2.195066 -1.338681 0.324528
2.195991 -1.339345 0.378520
2.182134 -1.335437 0.303533
2.178449 -1.335327 0.134511
2.199559 -1.356118 0.683322
2.154823 -1.320923 -0.060386
2.160661 -1.329242 0.046527
2.150428 -1.330042 0.188506
2.168118 -1.343441 0.384384
2.177191 -1.345077 0.358372
2.146899 -1.322817 -0.068441
2.148882 -1.323961 -0.056451
2.192759 -1.361619 0.646206
2.140999 -1.320165 -0.121426
2.156435 -1.334421 0.222448
2.098066 -1.306018 -0.140348
2.103237 -1.314288 -0.195461
2.111151 -1.321073 -0.130530
2.117829 -1.333013 0.108333
2.107270 -1.338223 0.442273
2.080967 -1.317987 0.018443
2.116977 -1.347707 0.644178
2.089068 -1.325573 -0.011648
2.127131 -1.351778 0.573134
2.104914 -1.331810 0.091308
2.099094 -1.329664 -0.000690
2.077169 -1.323136 -0.047653
2.108664 -1.342141 0.280186
2.077060 -1.324101 0.030334
2.055454 -1.304959 -0.225486
2.062591 -1.312320 -0.273579
2.081669 -1.337591 0.312179
2.087581 -1.339249 0.366172
2.060484 -1.315340 -0.191621
2.062991 -1.329319 0.127228
2.066736 -1.333377 0.293192
2.105139 -1.361275 0.693936
2.088220 -1.356874 0.658951
2.061717 -1.343295 0.368043
2.046222 -1.326296 0.045204
2.049006 -1.333016 0.183135
2.047391 -1.323001 -0.057762
2.058779 -1.338976 0.343081
2.041461 -1.324883 -0.066810
2.018503 -1.310352 -0.114672
2.035458 -1.324077 -0.051816
2.076412 -1.359405 0.622864
2.047058 -1.337402 0.217052
1.985595 -1.302189 -0.132651
1.971723 -1.298556 -0.184647
1.986665 -1.310280 -0.122767
2.009849 -1.339110 0.428946
2.034477 -1.360383 0.696738
2.003378 -1.327073 0.106055
1.993555 -1.327989 0.018014
1.981602 -1.321632 -0.012933
1.999479 -1.330820 0.086985
2.007625 -1.346513 0.622844
2.006776 -1.345610 0.551839
1.969702 -1.319220 -0.046939
1.980645 -1.322792 0.002034
2.004278 -1.344091 0.271822
2.002608 -1.350320 0.688772
1.974652 -1.327155 0.030960
1.935970 -1.296207 -0.213736
1.987274 -1.342511 0.302802
1.988182 -1.341172 0.355825
1.952121 -1.309550 -0.260889
1.969579 -1.334274 0.120855
1.923969 -1.295645 -0.179763
1.996766 -1.357020 0.666651
1.944293 -1.320376 0.282993
1.975849 -1.350643 0.632682
1.946548 -1.329028 0.177866
1.963307 -1.343164 0.352729
1.931893 -1.312160 -0.053969
1.964375 -1.341869 0.330736
1.939795 -1.324351 0.043892
1.924961 -1.313034 -0.064005
1.916041 -1.308466 -0.110970
1.974047 -1.359232 0.603538
1.924014 -1.319210 -0.048099
1.925636 -1.326418 0.208828
1.883139 -1.300329 -0.126950
1.884286 -1.305663 -0.178031
1.906404 -1.332028 0.414720
1.894227 -1.314377 -0.118122
1.932071 -1.354136 0.669501
1.893921 -1.319133 0.102824
1.881062 -1.316104 0.017832
1.887149 -1.321674 -0.014235
1.897030 -1.326860 0.083717
1.910276 -1.348345 0.604504
1.865210 -1.311339 -0.045155
1.876213 -1.319892 0.003745
1.906451 -1.348465 0.535475
1.904240 -1.349129 0.667474
1.897875 -1.340075 0.263543
1.863184 -1.317276 0.031753
1.885757 -1.336122 0.344573
1.867102 -1.326295 0.114647
1.879853 -1.335471 0.291564
1.841546 -1.300371 -0.204098
1.905393 -1.358814 0.645331
1.850670 -1.308764 -0.249199
1.862921 -1.330314 0.276585
1.844573 -1.308739 -0.172209
1.882480 -1.351454 0.612371
1.849097 -1.325044 0.172615
1.864885 -1.339071 0.338475
1.835448 -1.311262 -0.051261
1.866966 -1.339793 0.318456
1.840355 -1.321427 0.043620
1.844555 -1.323069 -0.062409
1.824589 -1.309582 -0.106277
1.878701 -1.361067 0.585206
1.818580 -1.314348 -0.044361
1.832244 -1.328411 0.203501
1.804726 -1.310401 -0.122348
1.828006 -1.338944 0.405367
1.844698 -1.355918 0.647195
1.787820 -1.302837 -0.170294
1.801779 -1.314500 -0.113417
1.818512 -1.329133 0.101437
1.798621 -1.320144 0.017510
1.796697 -1.320726 -0.015508
1.822651 -1.349830 0.716223
1.801580 -1.322892 0.079473
1.782768 -1.315391 -0.044476
1.814903 -1.346199 0.586232
1.808851 -1.344968 0.647232
1.776751 -1.319341 0.032448
1.788815 -1.324958 0.005393
1.795342 -1.335080 0.335301
1.795072 -1.337342 0.515286
1.777667 -1.325287 0.108378
1.793466 -1.333079 0.255315
1.787450 -1.334430 0.282286
1.811004 -1.354615 0.622093
1.764134 -1.310471 -0.197492
1.756196 -1.305990 -0.237455
1.766649 -1.326050 0.168338
1.773443 -1.333983 0.324260
1.775523 -1.332296 0.270279
1.761141 -1.313864 -0.165548
1.791094 -1.349296 0.593112
1.753003 -1.314346 -0.048567
1.768515 -1.330752 0.306278
1.738897 -1.312523 0.042431
1.747072 -1.315196 -0.060600
1.737138 -1.309694 -0.102554
1.783332 -1.357931 0.566950
1.738565 -1.333884 0.393159
1.734179 -1.319441 -0.040702
1.738853 -1.327437 0.199221
1.718285 -1.311535 -0.116637
1.756318 -1.353699 0.622947
1.713401 -1.311931 -0.164663
1.708315 -1.309651 -0.108639
1.715170 -1.320207 0.017246
1.719046 -1.319223 0.099270
1.737242 -1.346664 0.695999
1.708216 -1.315812 -0.015714
1.703100 -1.311973 0.076325
1.701318 -1.316449 -0.044749
1.721518 -1.341072 0.568012
1.718453 -1.339815 0.627022
1.686181 -1.316319 0.102222
1.688862 -1.317086 0.323232
1.679292 -1.310453 0.032274
1.697382 -1.322067 0.007149
1.702049 -1.329081 0.248087
1.715594 -1.345444 0.598926
1.710734 -1.341237 0.501962
1.699044 -1.332411 0.274037
1.669655 -1.303696 -0.187687
1.685213 -1.326067 0.164082
1.689022 -1.331912 0.312024
1.667751 -1.305187 -0.227720
1.703716 -1.347155 0.574867
1.675708 -1.315027 -0.157833
1.668544 -1.312447 -0.046804
1.685110 -1.330698 0.296016
1.664484 -1.318562 0.042108
1.658605 -1.310312 -0.058805
1.654666 -1.307806 -0.099785
1.687926 -1.348813 0.547784
1.684943 -1.359530 0.605635
1.505245 -1.323787 0.363578
1.499957 -1.329257 0.638512
1.473727 -1.302489 0.015757
1.466866 -1.294035 -0.101158
1.478674 -1.306440 0.093712
1.466801 -1.294909 -0.031170
1.462980 -1.295477 -0.145196
1.464887 -1.302763 -0.042281
1.487658 -1.320559 0.186541
1.454914 -1.291135 -0.095152
1.483217 -1.327494 0.577469
1.463834 -1.312391 0.088589
1.474326 -1.325810 0.521466
1.465596 -1.315061 0.301568
1.469356 -1.325051 0.540459
1.449816 -1.309216 0.151599
1.466728 -1.326772 0.280408
1.441949 -1.299754 0.033696
1.465784 -1.325401 0.251416
1.459806 -1.319154 0.230482
1.454064 -1.311412 0.011554
1.453480 -1.323830 0.520431
1.457827 -1.323624 0.268415
1.429119 -1.294840 -0.040284
1.455593 -1.325054 0.460407
1.441833 -1.313369 0.243519
1.421260 -1.287315 -0.163212
1.419322 -1.286863 -0.199215
1.426213 -1.298666 -0.053351
1.424308 -1.295625 -0.136321
1.416233 -1.290250 -0.089262
1.422120 -1.300850 0.039620
1.430779 -1.315778 0.353467
1.436647 -1.329097 0.540310
1.431533 -1.326165 0.623346
1.441718 -1.329577 0.501303
1.401264 -1.297578 0.014607
1.400340 -1.299143 -0.019422
1.400433 -1.296156 -0.097392
1.409229 -1.304518 0.092528
1.400388 -1.298015 -0.028417
1.391508 -1.291637 -0.140358
1.392408 -1.296882 -0.041416
1.393472 -1.295231 -0.092399
1.402321 -1.304185 0.065509
1.406216 -1.310629 0.181438
1.416830 -1.328426 0.565252
1.390368 -1.305441 0.083466
1.407189 -1.321053 0.296302
1.404939 -1.324752 0.509269
1.384355 -1.307267 0.148428
1.408976 -1.329951 0.527202
1.392249 -1.316760 0.269327
1.374522 -1.299850 0.034490
1.389331 -1.316427 0.243315
1.392393 -1.319190 0.226276
1.378606 -1.304554 0.013426
1.394094 -1.328755 0.509178
1.384367 -1.315632 0.259308
1.363673 -1.294946 -0.038484
1.377429 -1.315396 0.239293
1.384199 -1.322020 0.449234
1.357828 -1.290458 -0.157450
1.353876 -1.288040 -0.191430
1.361748 -1.297762 -0.052533
1.365331 -1.312773 0.345312
1.356792 -1.294336 -0.087501
1.355852 -1.293805 -0.129501
1.362702 -1.305910 0.039366
1.369109 -1.325078 0.609172
1.371233 -1.326991 0.524141
1.378344 -1.332529 0.491067
1.342815 -1.300644 0.014385
1.338878 -1.299210 -0.020609
1.335973 -1.295292 -0.093574
1.347811 -1.307576 0.091298
1.332942 -1.297955 -0.041611
1.328078 -1.293775 -0.135580
1.339887 -1.305239 0.063305
1.331038 -1.297356 -0.088618
1.335987 -1.301128 -0.025657
1.352413 -1.326361 0.552087
1.341821 -1.312685 0.179214
1.328919 -1.305485 0.080280
1.344773 -1.322073 0.291098
1.335541 -1.320713 0.497118
1.344561 -1.327873 0.513037
1.326930 -1.311308 0.146196
1.329814 -1.315737 0.260153
1.349337 -1.337931 0.756930
1.327924 -1.318444 0.238100
1.316112 -1.304926 0.035240
1.326991 -1.319232 0.222079
1.327702 -1.326694 0.496007
1.324959 -1.318631 0.253085
1.315184 -1.305663 0.015219
1.309239 -1.301027 -0.036736
1.315006 -1.315434 0.235105
1.306898 -1.313779 0.339121
1.306324 -1.303832 -0.051787
1.314819 -1.319005 0.439069
1.296408 -1.293595 -0.152679
1.295339 -1.294458 -0.084687
1.294449 -1.292183 -0.185668
1.297254 -1.303010 0.039212
1.299446 -1.300910 -0.125774
1.285369 -1.302719 0.014183
1.289378 -1.309642 0.090093
1.280439 -1.305300 0.061127
