# .PCD v0.7 - Point Cloud Data file format
VERSION 0.7
FIELDS x y z
SIZE 4 4 4
TYPE F F F
COUNT 1 1 1
WIDTH 32
HEIGHT 1
VIEWPOINT 0 0 0 1
POINTS 32
DATA ascii
0.619652 3.117735 2.353822
0.668385 3.199080 2.342837
0.622545 3.097556 2.344886
0.543544 2.238522 1.708900
0.621823 3.132285 2.351373
0.511063 2.300815 1.757367
0.586632 2.281914 1.687548
0.526332 2.995621 1.789764
0.646772 2.471678 2.310574
0.725150 2.702649 2.590045
0.617293 2.310300 1.770990
0.550218 2.233275 1.716050
0.628203 3.172941 2.364004
0.576580 2.910166 1.748366
0.718077 2.495663 2.341229
0.570028 2.179566 1.686719
0.724843 2.687045 2.624081
0.730828 2.693042 2.627170
0.621062 2.295074 1.773032
0.548637 2.245092 1.716279
0.643058 2.907376 1.756777
0.514987 2.334407 1.761004
0.735999 3.177150 2.605750
0.790457 2.681187 2.631432
0.619573 2.298909 1.770191
0.563309 2.096311 1.683091
0.728474 2.686708 2.634255
0.553236 2.254883 1.717558
0.807586 3.168319 2.616118
0.627142 2.312656 1.777519
0.729358 2.673362 2.637328
0.557448 2.032852 1.699654
