# .PCD v0.7 - Point Cloud Data file format
VERSION 0.7
FIELDS x y z
SIZE 4 4 4
TYPE F F F
COUNT 1 1 1
WIDTH 37
HEIGHT 1
VIEWPOINT 0 0 0 1
POINTS 37
DATA ascii
2.888894 -2.230030 0.716501
2.753933 -2.209475 0.999928
2.739540 -2.224040 0.693624
2.654585 -2.228952 1.193715
2.605754 -2.198584 0.969001
2.600189 -2.216905 0.670964
2.526603 -2.228929 1.159421
2.472557 -2.193486 0.941516
2.403538 -2.225804 1.127215
2.960704 -2.266788 0.732854
2.787606 -2.243846 0.839967
2.837722 -2.294438 1.138343
2.832519 -2.258279 1.056301
2.792591 -2.256488 0.678734
2.811356 -2.255488 0.703903
2.834940 -2.283839 1.237085
2.692254 -2.262906 1.397604
2.761482 -2.276079 1.193234
2.645276 -2.239555 0.817064
2.674508 -2.268202 1.096298
2.683244 -2.241993 1.022388
2.722149 -2.253142 1.133758
2.657206 -2.251139 0.655940
2.679993 -2.252116 0.679152
2.693802 -2.272505 1.193253
2.550159 -2.253616 1.356743
2.626305 -2.267730 1.154463
2.587473 -2.218439 0.635131
2.550259 -2.268834 1.068614
2.505919 -2.229238 0.793252
2.582886 -2.236805 1.097993
2.555932 -2.236626 0.995710
2.566622 -2.266115 1.154586
2.506087 -2.266327 1.121858
2.404040 -2.232318 1.311919
2.465570 -2.232394 1.071454
2.443424 -2.258704 1.116989
