# .PCD v0.7 - Point Cloud Data file format
VERSION 0.7
FIELDS x y z
SIZE 4 4 4
TYPE F F F
COUNT 1 1 1
WIDTH 30
HEIGHT 1
VIEWPOINT 0 0 0 1
POINTS 30
DATA ascii
1.755437 2.284014 2.577337
1.735855 2.240308 2.557393
1.645164 1.956380 2.524923
1.748088 2.201736 2.688358
1.658036 1.907309 2.523865
1.650747 1.873394 2.462739
1.697839 2.040483 2.538667
1.698317 2.176266 2.577284
1.703619 1.946217 2.769448
1.694179 2.071220 2.503977
1.606955 1.759000 2.504452
1.756413 2.211586 2.731966
1.607434 1.680966 2.445245
1.610313 1.679765 2.494257
1.649627 1.836053 2.516103
1.673668 2.011182 2.543971
1.680189 1.927159 2.495764
1.856822 1.916420 3.045352
1.567509 1.577676 2.475977
1.590887 1.660418 2.527536
1.570797 1.511627 2.430786
1.558284 1.473225 2.463610
1.594167 1.594375 2.483341
1.554600 1.406144 2.411379
1.600369 1.533340 2.445169
1.529027 1.406151 2.478443
1.534170 1.349078 2.445275
1.503831 1.295450 2.480968
1.521490 1.279938 2.388988
1.498019 1.235345 2.433741
