# .PCD v0.7 - Point Cloud Data file format
VERSION 0.7
FIELDS x y z
SIZE 4 4 4
TYPE F F F
COUNT 1 1 1
WIDTH 794
HEIGHT 1
VIEWPOINT 0 0 0 1
POINTS 794
DATA ascii
-0.011907 2.033355 0.776723
0.011160 1.938240 0.725477
-0.036501 2.051067 0.842300
-0.007474 1.927758 0.766168
0.031437 1.933917 0.742257
0.054641 1.932734 0.725109
0.025572 1.940472 0.694402
0.006015 1.929057 0.794108
0.039860 1.942062 0.773434
-0.033929 1.932866 0.819335
0.078937 1.931326 0.745970
0.099131 1.927271 0.723740
0.071060 1.936015 0.693060
0.040880 1.949629 0.665558
0.110454 1.946564 0.441168
0.052317 1.945351 0.801442
0.086361 1.937561 0.774088
0.011417 1.943286 0.822478
0.126423 1.929765 0.748718
0.092765 1.939605 0.465962
0.132668 1.946796 0.441080
0.143613 1.922772 0.723404
0.116527 1.933555 0.691785
0.156896 1.947983 0.443017
0.088402 1.943255 0.662145
0.129816 1.957856 0.408365
0.097834 1.937907 0.800004
0.055375 1.949179 0.624374
0.131863 1.932047 0.774715
0.055909 1.936898 0.819078
0.174889 1.931147 0.753560
0.105342 1.930965 0.490583
0.140136 1.949000 0.469067
0.179144 1.945183 0.443832
0.075431 2.043149 0.540282
0.188096 1.918239 0.724070
0.185914 1.927867 0.207116
0.162026 1.928095 0.690414
0.200761 1.953353 0.196874
0.202366 1.945424 0.443741
0.134909 1.937802 0.660769
0.143343 1.931429 0.799600
0.176324 1.952370 0.406989
0.100404 1.930476 0.816679
0.102869 1.945763 0.622059
0.179356 1.929488 0.777432
0.148244 1.957195 0.373186
0.221393 1.926575 0.756217
0.154558 1.957275 0.497228
0.188596 1.950409 0.471908
0.227648 1.942591 0.446545
0.114688 1.953292 0.516195
0.233569 1.915681 0.725798
0.236111 1.955245 0.210793
0.208536 1.922611 0.690041
0.249187 1.957723 0.199813
0.247888 1.937899 0.443306
0.212169 1.955173 0.174805
0.250831 1.959346 0.024765
0.181433 1.930413 0.657332
0.215311 1.953698 0.221769
0.185477 1.944713 0.243557
0.188822 1.927914 0.800295
0.221866 1.942874 0.405489
0.144908 1.923084 0.813250
0.224888 1.921006 0.776967
0.194771 1.949736 0.370747
0.150432 1.935414 0.617521
0.201068 1.951734 0.497852
0.152711 1.936864 0.260370
0.268919 1.920981 0.759840
0.235098 1.945832 0.473565
0.272124 1.954936 0.043544
0.161173 1.949817 0.514885
0.275142 1.939954 0.450263
0.162704 1.959777 0.329101
0.278007 1.915110 0.727596
0.282580 1.953632 0.212547
0.252323 1.946736 0.012279
0.253015 1.918103 0.689710
0.293421 1.929372 0.442842
0.296701 1.953087 0.202466
0.258657 1.951620 0.174495
0.297335 1.954711 0.026423
0.226942 1.923945 0.655932
0.263767 1.955104 0.223612
0.234791 1.960124 0.245847
0.234593 1.958505 0.139740
0.234290 1.925396 0.801024
0.305113 1.965554 -0.060306
0.190375 1.920601 0.812979
0.303354 1.944258 -0.051980
0.268386 1.936352 0.405084
0.271371 1.918400 0.780691
0.241267 1.945241 0.369406
0.273560 1.949036 0.040279
0.197925 1.931993 0.615210
0.246577 1.945214 0.497450
0.202985 1.957317 0.261816
0.317390 1.921327 0.765653
0.280621 1.938276 0.474131
0.321539 1.960357 0.044513
0.207638 1.948306 0.514640
0.321655 1.934340 0.452890
0.251710 1.947380 0.054267
0.210249 1.951353 0.325628
0.323445 1.915483 0.731422
0.286487 1.948404 -0.061848
0.328126 1.944044 0.213050
0.290446 1.953755 -0.071698
0.298505 1.913571 0.690377
0.302668 1.959222 0.011471
0.339876 1.928785 0.444632
0.343238 1.945443 0.205028
0.306142 1.949075 0.174216
0.331447 2.284429 -0.075321
0.345801 1.955059 0.029235
0.245875 2.060045 0.064825
0.274393 1.924460 0.655751
0.231112 1.913805 0.946660
0.310300 1.947526 0.224175
0.330804 2.246294 -0.103559
0.279788 1.919879 0.801658
0.234823 1.919073 0.813745
0.351660 1.956908 -0.058776
0.283307 1.955599 0.245498
0.283050 1.959027 0.137553
0.313885 1.930817 0.404718
0.279945 1.937932 -0.018191
0.353744 1.952674 -0.050917
0.317850 1.915825 0.783418
0.288763 1.941721 0.369095
0.322905 1.960485 0.040442
0.293094 1.938702 0.497047
0.246457 1.925614 0.611801
0.250448 1.956782 0.261600
0.363934 1.912754 0.768188
0.329128 1.934715 0.475817
0.253125 1.943785 0.514304
0.365194 1.939734 0.044671
0.254138 1.957213 0.091510
0.368211 1.924759 0.454392
0.369898 1.914897 0.734215
0.302091 1.956841 0.054361
0.335853 1.957871 -0.062749
0.258728 1.949900 0.323377
0.374646 1.937462 0.213648
0.340856 1.960200 -0.071699
0.322577 2.307217 -0.071668
0.345011 1.908081 0.690010
0.349187 1.952647 0.011067
0.385364 1.924188 0.446300
0.352626 1.945518 0.173910
0.390792 1.936839 0.206558
0.322024 1.958760 -0.063722
0.321885 1.920975 0.655443
0.392393 1.942425 0.030639
0.277375 1.950414 0.060179
0.279601 1.911401 0.945382
0.359781 1.946939 0.225953
0.326254 1.918305 0.804417
0.281287 1.917564 0.814504
0.327045 1.956629 -0.089824
0.329836 1.948054 0.245064
0.399192 1.950269 -0.057183
0.330575 1.952509 0.136147
0.359472 1.917317 0.403098
0.333197 1.960498 -0.020690
0.402248 1.949075 -0.050230
0.365327 1.914195 0.788174
0.336297 1.934265 0.366659
0.371456 1.952900 0.041000
0.338623 1.930178 0.496586
0.294919 1.926100 0.612616
0.297926 1.954310 0.259321
0.375626 1.930101 0.478480
0.412453 1.908134 0.772846
0.298695 1.931331 0.511715
0.415598 1.946160 0.045672
0.414396 1.908325 0.735825
0.416697 1.923097 0.459144
0.346029 1.898724 0.987805
0.304602 1.958745 0.089347
0.350534 1.958317 0.053207
0.302440 1.942818 -0.072235
0.384381 1.952272 -0.062127
0.306285 1.940439 0.320876
0.421175 1.929879 0.214216
0.388384 1.953622 -0.072105
0.311311 1.963573 -0.061604
0.308393 1.944259 -0.116236
0.392437 1.910498 0.692897
0.431846 1.920600 0.447998
0.397724 1.946089 0.010659
0.400187 1.935973 0.173410
0.438323 1.930200 0.209155
0.438904 1.936754 0.033271
0.370537 1.954223 -0.065067
0.369387 1.916488 0.655106
0.327736 1.960936 0.058306
0.407262 1.944333 0.227676
0.327707 1.919987 0.817392
0.372748 1.913763 0.806083
0.328100 1.907963 0.945073
0.375509 1.956118 -0.092041
0.445736 1.941620 -0.055647
0.376363 1.940507 0.244632
0.408857 1.924746 0.405136
0.449730 1.946433 -0.048506
0.378190 1.938983 0.134539
0.380731 1.953948 -0.022075
0.414796 1.915541 0.794039
0.414459 1.898986 1.033636
0.382832 1.926755 0.365249
0.416083 1.936271 0.041307
0.386138 1.925598 0.498267
0.344473 1.945787 0.257876
0.342492 1.915699 0.609107
0.421222 1.916567 0.477882
0.461153 1.936505 0.047200
0.459980 1.902494 0.777496
0.344230 1.922862 0.509276
0.460873 1.905729 0.738576
0.465209 1.919456 0.462854
0.394505 1.898184 0.990612
0.351169 1.948264 0.085838
0.397130 1.945737 0.052633
0.353747 1.959381 -0.075902
0.466716 1.921275 0.214778
0.431918 1.945683 -0.062512
0.355813 1.935983 0.318547
0.435932 1.946032 -0.072522
0.359699 1.960847 -0.120903
0.360828 1.960097 -0.064903
0.439913 1.908908 0.695674
0.480282 1.922984 0.450899
0.445248 1.940508 0.010306
0.486810 1.928557 0.211927
0.447721 1.929414 0.173026
0.418038 1.950663 -0.066358
0.490335 1.942144 0.035255
0.416904 1.910992 0.654755
0.374181 1.917468 0.818138
0.419236 1.910179 0.808798
0.375316 1.950428 0.055790
0.454798 1.937718 0.229290
0.424020 1.952563 -0.093336
0.493263 1.935966 -0.054000
0.376622 1.902550 0.943718
0.424873 1.936934 0.245337
0.456354 1.921184 0.405848
0.495371 1.929767 -0.047202
0.427639 1.940475 0.133381
0.427307 1.942398 -0.023637
0.460909 1.897406 1.037397
0.461318 1.907969 0.796608
0.433266 1.930222 0.366151
0.463624 1.928673 0.041870
0.431699 1.914075 0.497711
0.393912 1.948264 0.257747
0.506358 1.900167 0.740215
0.471648 1.920922 0.482817
0.508455 1.900809 0.784250
0.393638 1.928276 0.512244
0.511632 1.935930 0.047977
0.392972 1.915236 0.608882
0.516628 1.924786 0.468818
0.442962 1.897653 0.993397
0.445652 1.940212 0.051256
0.400688 1.943784 0.083488
0.481366 1.947116 -0.062669
0.521061 1.934722 0.216987
0.403242 1.956909 -0.079189
0.404298 1.933492 0.317266
0.484468 1.939458 -0.072930
0.408232 1.954362 -0.124314
0.408410 1.948612 -0.068468
0.488368 1.908368 0.697460
0.525841 1.911421 0.451347
0.492772 1.933935 0.009903
0.538225 1.933916 0.215892
0.495243 1.922862 0.172625
0.538843 1.937519 0.036913
0.468480 1.953167 -0.068487
0.465374 1.909449 0.656509
0.465734 1.904606 0.811432
0.421676 1.912939 0.819798
0.420914 1.935910 0.053139
0.502343 1.929143 0.229825
0.469621 1.937993 -0.094986
0.546645 1.945400 -0.052914
0.504823 1.919606 0.407603
0.473369 1.933369 0.246026
0.425175 1.893180 0.941220
0.548727 1.941232 -0.047052
0.506435 1.887916 1.037912
0.476144 1.935958 0.132038
0.508800 1.904370 0.800304
0.474853 1.933884 -0.026103
0.480782 1.923727 0.364750
0.516961 1.942117 0.043082
0.482097 1.920462 0.501711
0.553804 1.899525 0.745008
0.438552 1.928797 0.253944
0.521116 1.920301 0.486600
0.559140 1.930329 0.048609
0.441145 1.922769 0.511874
0.558945 1.899112 0.791999
0.441509 1.907785 0.607446
0.563196 1.913171 0.471264
0.490440 1.894111 0.996094
0.568553 1.930110 0.218652
0.494172 1.934652 0.050883
0.449195 1.939291 0.081145
0.531841 1.946556 -0.062891
0.565791 1.881838 1.091577
0.449851 1.942381 -0.081843
0.533908 1.940919 -0.074083
0.450900 1.919017 0.314615
0.574280 1.911813 0.454169
0.457736 1.950881 -0.127629
0.457889 1.947138 -0.071720
0.535859 1.903787 0.700126
0.542274 1.930377 0.009592
0.545656 1.927299 0.173564
0.583838 1.918259 0.218216
0.587373 1.930863 0.039510
0.468147 1.909395 0.821498
0.515188 1.904996 0.816248
0.519936 1.954677 -0.070649
0.514860 1.906914 0.658230
0.476185 1.956465 0.051563
0.550872 1.922544 0.231423
0.595161 1.939763 -0.051285
0.555244 1.923043 0.409511
0.520898 1.925826 0.245595
0.522051 1.942538 -0.098055
0.555850 1.891236 1.045825
0.596284 1.931587 -0.045545
0.521704 1.924413 0.130489
0.476602 1.897607 0.946154
0.559286 1.902707 0.807053
0.529228 1.944422 -0.027989
0.599295 1.892928 0.747622
0.530269 1.921184 0.365472
0.531573 1.918874 0.504464
0.565513 1.933525 0.043617
0.489943 1.936253 0.254972
0.488614 1.920225 0.512601
0.610578 1.932759 0.049484
0.570614 1.916680 0.490290
0.609438 1.896447 0.798720
0.491992 1.906316 0.607197
0.613717 1.908495 0.476921
0.613208 1.883110 1.100436
0.618992 1.931521 0.220499
0.540916 1.892600 0.998847
0.545590 1.939144 0.049818
0.579395 1.936972 -0.063383
0.497709 1.933797 0.078774
0.497381 1.934887 -0.085273
0.585374 1.941364 -0.074273
0.623735 1.911215 0.456958
0.505278 1.929539 0.314728
0.584317 1.902212 0.702887
0.510292 1.953715 -0.075726
0.505326 1.938383 -0.131218
0.593724 1.931863 0.008436
0.594152 1.922751 0.173230
0.514635 1.903882 0.822138
0.640185 1.931627 0.223421
0.635910 1.923236 0.041081
0.563685 1.900408 0.819913
0.562367 1.900421 0.657837
0.569480 1.947139 -0.072086
0.600343 1.920949 0.233179
0.520853 1.934936 0.048702
0.602800 1.912519 0.408992
0.602345 1.884687 1.048438
0.645702 1.933141 -0.049690
0.572326 1.929281 0.246501
0.574499 1.945050 -0.100185
0.645777 1.927988 -0.044851
0.573167 1.924917 0.129301
0.607818 1.895089 0.811625
0.527113 1.893154 0.946813
0.644809 1.884331 0.750177
0.580676 1.945935 -0.030147
0.581053 1.916315 0.506188
0.581718 1.922655 0.366315
0.616988 1.932954 0.044397
0.537514 1.924773 0.252419
0.538109 1.916701 0.513293
0.660108 1.926141 0.051084
0.620120 1.912058 0.493953
0.657983 1.887765 0.805262
0.659700 1.876503 1.105052
0.664205 1.905848 0.481646
0.589396 1.889034 1.002546
0.666548 1.920940 0.220981
0.544432 1.909768 0.610099
0.592194 1.924566 0.049175
0.631877 1.936426 -0.063605
0.548216 1.930286 0.077462
0.552783 1.943487 -0.089225
0.671251 1.903631 0.458537
0.630848 1.892683 0.703407
0.636881 1.937840 -0.075586
0.555804 1.924061 0.313354
0.559821 1.947237 -0.079129
0.561695 1.950045 -0.137078
0.642256 1.924294 0.008009
0.645621 1.922196 0.174013
0.563108 1.901293 0.825867
0.689721 1.924000 0.225991
0.690302 1.930656 0.043107
0.613163 1.897797 0.824640
0.613837 1.899870 0.660621
0.620002 1.941637 -0.074458
0.653794 1.923357 0.236049
0.572315 1.935458 0.046514
0.652287 1.908946 0.410689
0.649846 1.878117 1.052050
0.697155 1.933555 -0.048874
0.623786 1.929704 0.248314
0.625021 1.939545 -0.102557
0.702197 1.934445 -0.043863
0.621697 1.917393 0.127875
0.699155 1.895591 0.760330
0.660251 1.898377 0.820532
0.627313 1.928376 -0.031881
0.576656 1.884722 0.946354
0.630542 1.912725 0.508884
0.664535 1.923349 0.044912
0.629308 1.909157 0.364705
0.669607 1.908433 0.497651
0.587573 1.915173 0.514051
0.709616 1.920552 0.051721
0.706155 1.872828 1.111764
0.589936 1.929236 0.253353
0.707530 1.879123 0.810806
0.713093 1.910316 0.222471
0.717664 1.907164 0.488488
0.637915 1.881532 1.004124
0.651480 1.944119 0.048559
0.594002 1.899322 0.608576
0.682384 1.931862 -0.063943
0.724641 1.910002 0.463538
0.598737 1.924834 0.074092
0.601313 1.935996 -0.092651
0.680321 1.890054 0.708138
0.691331 1.940337 -0.076717
0.608294 1.922565 0.313102
0.609383 1.937757 -0.082623
0.609279 1.937510 -0.139658
0.693745 1.921746 0.007733
0.611573 1.898732 0.828599
0.696123 1.917663 0.173678
0.736305 1.910348 0.228388
0.659693 1.888220 0.827163
0.744776 1.931046 0.045915
0.661388 1.889345 0.661110
0.704298 1.918769 0.237714
0.667596 1.928078 -0.076067
0.700300 1.877447 1.059843
0.703747 1.908389 0.412478
0.746727 1.922923 -0.047393
0.625774 1.936995 0.044353
0.677227 1.932174 0.249186
0.748604 1.893964 0.765096
0.749762 1.922826 -0.043406
0.677490 1.939083 -0.105775
0.708785 1.889756 0.825080
0.679072 1.927942 0.126986
0.680729 1.932900 -0.033945
0.681046 1.908143 0.511549
0.719939 1.929838 0.044906
0.630129 1.885168 0.951165
0.754610 1.870143 1.119503
0.683722 1.914619 0.366670
0.765027 1.926011 0.052685
0.637084 1.909615 0.515687
0.723075 1.908783 0.503462
0.642410 1.928730 0.253134
0.763941 1.886292 0.824828
0.766525 1.912750 0.224349
0.771126 1.907479 0.495302
0.690374 1.881909 1.010941
0.697114 1.925560 0.046803
0.771189 1.898407 0.465003
0.733906 1.926305 -0.064311
0.648470 1.900790 0.611415
0.736699 1.899391 0.716223
0.654211 1.926392 0.071926
0.736970 1.921699 -0.076472
0.659816 1.917091 0.311733
0.657840 1.927041 -0.144174
0.661876 1.935328 -0.086902
0.662028 1.898127 0.833390
0.745251 1.917228 0.006398
0.792725 1.915715 0.233350
0.745701 1.906121 0.173132
0.792336 1.919407 0.047375
0.712154 1.888541 0.834980
0.750771 1.874808 1.066576
0.715821 1.892785 0.665015
0.754810 1.913150 0.240351
0.754241 1.903822 0.414147
0.722997 1.934612 -0.078073
0.800194 1.922352 -0.046608
0.724826 1.917595 0.249551
0.677284 1.932513 0.042015
0.799328 1.912193 -0.041920
0.760255 1.888066 0.832840
0.722184 1.915464 -0.106681
0.731598 1.922449 0.125616
0.732246 1.927408 -0.036312
0.733499 1.908544 0.515367
0.770499 1.920256 0.045419
0.682608 1.883632 0.954920
0.737191 1.914104 0.367454
0.814574 1.916420 0.053203
0.685602 1.902107 0.515269
0.770643 1.896203 0.504894
0.691936 1.921228 0.251711
0.816439 1.882581 0.833525
0.817078 1.903190 0.224866
0.820687 1.896824 0.499790
0.741875 1.877339 1.015609
0.826590 1.903794 0.469971
0.751594 1.925040 0.046584
0.785422 1.920745 -0.064675
0.700984 1.896302 0.612078
0.787476 1.916160 -0.077832
0.708667 1.927937 0.069768
0.709569 1.887621 0.833885
0.711442 1.924842 -0.090417
0.713314 1.914600 0.311454
0.713292 1.929626 -0.148304
0.799698 1.918702 0.006244
0.769489 1.901777 0.847186
0.845230 1.911080 0.237016
0.804064 1.916618 0.174246
0.849792 1.921820 0.050243
0.800238 1.871158 1.073285
0.844611 1.878716 0.773274
0.803773 1.895246 0.415700
0.809284 1.912564 0.243134
0.766362 1.884253 0.666564
0.773540 1.926104 -0.080527
0.849754 1.911717 -0.045118
0.854751 1.915637 -0.041012
0.781254 1.922057 0.251482
0.728812 1.926030 0.039619
0.814732 1.887345 0.842623
0.779551 1.925068 -0.110595
0.782140 1.913906 0.125163
0.784017 1.901929 0.518977
0.789675 1.931992 -0.039383
0.823987 1.917696 0.046144
0.787718 1.906561 0.368033
0.867073 1.911852 0.053873
0.739037 1.904516 0.519147
0.737088 1.883053 0.960703
0.827083 1.899546 0.511796
0.744421 1.918718 0.251437
0.872510 1.905607 0.227744
0.870923 1.880828 0.844281
0.879097 1.903120 0.508781
0.793359 1.873735 1.021312
0.876126 1.894193 0.472496
0.804084 1.921533 0.045281
0.836712 1.886232 0.722451
0.835962 1.912176 -0.065124
0.842937 1.916660 -0.079017
0.759372 1.905707 0.618157
0.764697 1.938778 -0.106190
0.761174 1.923463 0.067433
0.764971 1.893935 0.842881
0.767749 1.930231 -0.153489
0.815093 1.884223 0.848475
0.766909 1.925433 -0.094606
0.851256 1.909151 0.005762
0.764862 1.906121 0.310000
0.894810 1.898420 0.240448
0.854625 1.906050 0.174736
0.904263 1.920237 0.052000
0.898064 1.878033 0.781068
0.858263 1.892682 0.418427
0.863774 1.909976 0.245859
0.820819 1.884661 0.671382
0.911109 1.923209 -0.043979
0.823136 1.912555 -0.082128
0.830807 1.911489 0.251974
0.908268 1.910064 -0.040374
0.869187 1.887620 0.852442
0.784263 1.927606 0.036462
0.835022 1.924625 -0.113812
0.835608 1.912415 0.123923
0.837501 1.899339 0.522705
0.839267 1.918448 -0.040983
0.879456 1.917151 0.046929
0.922561 1.909308 0.054598
0.843203 1.905030 0.369787
0.791530 1.900948 0.521845
0.876647 1.887921 0.515261
0.790623 1.876529 0.964308
0.797932 1.914216 0.251101
0.928656 1.891463 0.513247
0.887240 1.877641 0.726008
0.892409 1.913685 -0.066279
0.861555 1.922066 0.044090
0.891546 1.901071 -0.079672
0.811933 1.896217 0.618672
0.812731 1.913980 0.064951
0.814317 1.923255 -0.108852
0.815466 1.888359 0.846527
0.870541 1.885539 0.857322
0.902792 1.900627 0.004316
0.955204 1.905819 0.245469
0.910073 1.906520 0.175555
0.820431 1.919974 -0.097970
0.822265 1.925802 -0.157826
0.957786 1.913615 0.054609
0.819392 1.900636 0.309633
0.908776 1.885111 0.420016
0.918282 1.905388 0.248526
0.877271 1.886054 0.677228
0.956783 1.900539 -0.042838
0.882540 1.919146 -0.085137
0.882345 1.902938 0.252527
0.959827 1.899474 -0.039880
0.834847 1.915110 0.033892
0.885606 1.912077 -0.115380
0.890114 1.907932 0.122591
0.893963 1.899743 0.527519
0.893761 1.914973 -0.043285
0.934969 1.912605 0.047594
0.978042 1.906732 0.056328
0.893753 1.894515 0.369283
0.846006 1.899397 0.524603
0.935082 1.891280 0.522164
0.986391 1.908496 0.232438
0.852418 1.911719 0.250829
0.847114 1.874967 0.970061
0.983185 1.884788 0.519856
0.939725 1.873034 0.730686
0.946952 1.906146 -0.066701
0.917055 1.918550 0.043786
0.953949 1.908656 -0.081655
0.866466 1.889712 0.620279
0.867961 1.883741 0.852201
0.874126 1.922577 0.062996
0.871794 1.922886 -0.114071
1.009728 1.899169 0.250080
0.964198 1.907184 0.003305
1.011341 1.903992 0.057130
0.877894 1.920606 -0.103157
0.877778 1.921410 -0.163161
0.872932 1.893139 0.309213
0.959334 1.873570 0.420488
0.976718 1.907832 0.251401
0.928813 1.876496 0.679756
1.019177 1.908038 -0.041819
1.019263 1.901978 -0.040005
0.939056 1.914680 -0.087472
0.942788 1.906430 0.254424
0.890388 1.908653 0.031496
0.944081 1.911684 -0.119597
0.944627 1.902417 0.122232
0.945519 1.889136 0.531016
0.948299 1.907496 -0.045705
1.034545 1.902194 0.056997
0.989505 1.905050 0.048175
0.986636 1.880640 0.526663
1.032023 1.887887 0.232650
0.905423 1.904826 0.529563
0.951249 1.891998 0.371008
1.035570 1.881382 0.483558
0.909891 1.911246 0.250612
1.007387 1.909679 -0.067788
0.972574 1.913056 0.042436
1.014396 1.911188 -0.082771
0.922388 1.909390 -0.117651
0.927701 1.912100 0.060498
0.919071 1.876215 0.620695
1.021065 1.898452 0.176940
1.019714 1.901654 0.002960
1.065888 1.895370 0.059698
0.932452 1.912144 -0.106595
1.026652 1.889984 0.427782
0.939227 1.925087 -0.169251
0.943239 1.913657 0.313614
1.075694 1.902479 -0.041163
1.030299 1.896228 0.253879
1.079756 1.900453 -0.039237
0.998537 1.914261 -0.090675
1.002259 1.906877 0.257251
0.948855 1.909241 0.028326
1.000041 1.882546 0.534646
1.004557 1.912268 -0.122771
1.000157 1.895932 0.120859
1.089072 1.894630 0.057601
1.045033 1.898494 0.048804
1.008759 1.909089 -0.048847
0.962881 1.905260 0.533395
1.007732 1.889463 0.372756
0.959499 1.895698 0.249982
1.065890 1.906197 -0.069082
1.025158 1.900509 0.041882
1.072898 1.907703 -0.084066
0.987778 1.919108 -0.123572
1.066371 1.880051 0.002153
0.980516 1.879642 0.626601
1.074633 1.886930 0.176418
0.984276 1.902679 0.057023
1.127366 1.894810 0.062490
1.080205 1.879404 0.430290
0.994899 1.915808 -0.111690
0.993788 1.915648 -0.173721
1.139128 1.905981 -0.040255
0.991904 1.892173 0.310798
1.137283 1.893905 -0.038615
1.058998 1.914851 -0.093853
1.051877 1.889332 0.256557
1.005362 1.904784 0.026005
1.064051 1.909845 -0.126036
1.153493 1.899153 0.058540
1.067564 1.904519 0.120906
1.103544 1.893966 0.049483
1.065284 1.902621 -0.051225
1.013492 1.888731 0.533728
1.060346 1.873930 0.373117
1.022937 1.900240 0.250915
1.127362 1.905737 -0.070289
1.068914 1.869885 0.040813
1.133387 1.905262 -0.086330
1.138690 1.896692 0.001435
1.045298 1.913697 -0.127924
1.191795 1.898302 0.064400
1.139083 1.889468 0.177296
1.041824 1.895233 0.054612
1.197638 1.900410 -0.038601
1.052301 1.911267 -0.179043
1.052432 1.909398 -0.116071
1.200715 1.896435 -0.038731
1.119488 1.912438 -0.097118
1.212990 1.894632 0.059223
1.125506 1.910465 -0.130211
1.064880 1.900379 0.022681
1.168955 1.899494 0.050451
1.125111 1.896050 0.119469
1.128768 1.902239 -0.054435
1.126760 1.880421 0.377110
1.073545 1.883730 0.249255
1.187858 1.902237 -0.070579
1.154035 1.907667 0.039695
1.194888 1.901798 -0.087621
1.251315 1.891722 0.067026
1.202160 1.896255 0.000230
1.197614 1.881954 0.177894
1.109748 1.916400 -0.134046
1.106265 1.898842 0.052520
1.260163 1.894900 -0.037953
1.259254 1.887892 -0.038161
1.113797 1.908938 -0.185307
1.113928 1.907048 -0.121335
1.180009 1.906993 -0.099468
1.172868 1.883271 0.261004
1.187998 1.908062 -0.133475
1.231470 1.894996 0.051129
1.188596 1.894600 0.119234
1.193230 1.902861 -0.057612
1.135040 1.881251 0.249994
1.249389 1.895773 -0.071957
1.212605 1.897164 0.039203
1.255410 1.895323 -0.088995
1.263672 1.890800 -0.001115
1.173260 1.913061 -0.139342
1.168759 1.896432 0.050258
1.178275 1.908630 -0.191514
1.177428 1.904681 -0.125600
1.242531 1.901591 -0.102816
1.248575 1.897638 -0.136968
1.192852 1.898606 0.017237
1.254743 1.897427 -0.059957
1.234802 1.905674 -0.143747
1.232288 1.891028 0.047909
1.243918 1.903395 -0.131836
1.311011 1.901236 -0.106025
1.314060 1.895283 -0.141227
1.253426 1.888171 0.014748
1.302287 1.904391 -0.149981
1.310423 1.900076 -0.137127
