# .PCD v0.7 - Point Cloud Data file format
VERSION 0.7
FIELDS x y z
SIZE 4 4 4
TYPE F F F
COUNT 1 1 1
WIDTH 73
HEIGHT 1
VIEWPOINT 0 0 0 1
POINTS 73
DATA ascii
-0.512413 2.403917 2.689008
-0.516799 2.436649 2.722227
-0.494952 2.371479 2.626859
-0.362672 1.764843 2.010080
-0.352180 1.721101 1.985816
-0.567049 2.929766 2.919585
-0.542358 2.831944 3.076002
-0.356332 1.833749 2.026639
-0.361625 1.863723 2.022830
-0.381857 1.985467 2.031615
-0.347992 1.803930 2.010467
-0.346985 1.802918 2.013466
-0.335626 1.777287 1.972345
-0.550914 3.020885 2.917325
-0.433391 2.422152 2.147548
-0.316095 1.730522 1.961120
-0.402741 2.262579 2.126548
-0.315154 1.732373 1.984141
-0.350910 2.006886 2.002961
-0.377829 2.187213 2.064134
-0.384471 2.235601 2.145455
-0.313911 1.813368 1.981755
-0.525423 3.161489 3.001470
-0.307657 1.790476 1.973625
-0.331227 1.946203 1.980632
-0.394696 2.359455 2.150305
-0.313158 1.837290 1.992938
-0.521610 3.179460 3.009619
-0.302589 1.783462 1.981606
-0.303693 1.793429 1.984673
-0.510294 3.154760 2.979496
-0.305345 1.848998 2.044078
-0.507756 3.201754 2.981848
-0.335332 2.058046 1.994434
-0.290084 1.824030 2.056992
-0.379654 2.457369 2.177106
-0.359208 2.314629 2.167181
-0.286943 1.810051 2.057909
-0.315661 2.082679 2.069739
-0.338615 2.260871 2.156908
-0.322445 2.167778 2.044320
-0.284803 1.897947 2.071574
-0.316211 2.144819 2.046190
-0.304469 2.062661 2.085662
-0.279694 1.887981 2.072534
-0.345044 2.401607 2.183898
-0.310162 2.143939 2.035220
-0.279982 1.916935 2.077746
-0.273537 1.874043 2.070471
-0.273666 1.887025 2.072566
-0.305281 2.156946 2.039345
-0.266604 1.882050 2.076576
-0.302583 2.175534 2.102499
-0.302653 2.195941 2.041646
-0.252280 1.852135 2.080451
-0.250142 1.839175 2.077370
-0.310381 2.341883 2.184667
-0.323898 2.490607 2.205666
-0.397480 3.182470 3.007272
-0.274074 2.129720 2.108342
-0.395799 3.241484 2.416682
-0.274805 2.206743 2.101897
-0.262749 2.098792 2.111188
-0.278178 2.241628 2.114130
-0.370496 3.136437 2.309060
-0.271011 2.227726 2.108073
-0.381882 3.242106 2.930777
-0.266320 2.257653 2.123320
-0.347933 3.090860 2.274853
-0.253723 2.199768 2.121979
-0.261810 2.307623 2.131709
-0.362873 3.512097 3.096808
-0.289378 2.871261 2.142598
