# .PCD v0.7 - Point Cloud Data file format
VERSION 0.7
FIELDS x y z
SIZE 4 4 4
TYPE F F F
COUNT 1 1 1
WIDTH 326
HEIGHT 1
VIEWPOINT 0 0 0 1
POINTS 326
DATA ascii
1.734148 -2.429960 -0.202980
1.774227 -2.439574 -0.176871
1.769670 -2.432374 -0.266806
1.730699 -2.512390 -0.300871
1.103961 -2.009319 -0.082938
1.103813 -2.017655 -0.056034
1.120403 -2.007033 -0.110771
1.117373 -2.011111 -0.101825
1.101250 -2.112110 -0.011146
1.069077 -2.053861 -0.085543
1.079756 -2.082292 -0.058850
1.123475 -2.102525 0.010126
1.154107 -2.054191 -0.036125
1.059890 -2.009386 -0.109941
1.063763 -2.023528 -0.101097
1.095871 -2.089881 -0.017794
1.043050 -2.116461 -0.090342
1.073222 -2.175701 -0.014965
1.050762 -2.140879 -0.062610
1.106610 -2.040501 -0.051080
1.039947 -1.936747 -0.140028
1.028119 -1.923571 -0.144902
1.097414 -2.167185 0.010300
1.099486 -2.069597 -0.035437
1.031906 -2.065997 -0.112671
1.033794 -2.079132 -0.102821
1.071788 -2.158535 -0.019662
1.089666 -1.992419 -0.116458
1.013061 -2.175044 -0.094107
1.037309 -2.225244 -0.017640
1.018795 -2.196457 -0.065346
1.079583 -2.102154 -0.050869
1.091210 -2.037208 -0.052974
1.027751 -2.018484 -0.144013
1.017884 -2.011322 -0.148952
1.071472 -2.130231 -0.036219
1.010697 -2.150788 -0.105722
1.040789 -2.219133 -0.021456
0.967339 -1.882574 -0.167455
1.052791 -2.037999 -0.115078
0.942763 -1.849093 -0.187119
1.420396 -3.149855 -0.147771
1.052529 -2.168810 -0.050722
1.064182 -2.100862 -0.052787
1.004673 -2.089139 -0.146899
1.000721 -2.092017 -0.152942
1.040460 -2.193851 -0.036047
0.828036 -2.011550 1.403520
1.445693 -3.174756 -0.163901
0.952198 -1.959303 -0.170386
1.026752 -2.102668 -0.114901
0.915816 -1.901751 -0.187791
1.322224 -3.122856 -0.148732
0.865162 -2.044356 1.367312
1.039092 -2.172550 -0.051695
0.763935 -1.978454 1.367777
1.317184 -3.068389 -0.173982
1.005596 -2.184366 -0.115920
0.780496 -1.973787 1.308966
0.906555 -1.996507 -0.192925
0.726647 -1.990852 1.505578
0.726145 -2.005146 1.374401
0.738070 -1.972861 1.502928
1.387478 -3.122870 -0.169198
0.746558 -2.015630 1.325428
0.689785 -2.028589 1.516072
1.223958 -2.988944 -0.208132
0.694190 -2.047008 1.390853
0.752507 -1.963732 1.488186
1.217029 -2.989797 -0.214160
0.699280 -2.003531 1.509503
0.707770 -2.043319 1.333035
1.245041 -3.001700 -0.156104
0.763925 -1.959559 1.472372
0.651930 -2.066323 1.526561
0.655401 -2.074702 1.398459
1.101334 -2.887944 -0.196216
0.717622 -2.000540 1.502696
0.737176 -2.048826 1.279145
1.089502 -2.876771 -0.201111
0.664367 -2.044357 1.524962
0.669897 -2.081106 1.347523
0.730025 -1.996404 1.488884
0.618536 -2.109482 1.410982
0.609178 -2.096943 1.531125
0.681743 -2.037346 1.517202
1.000399 -2.825090 -0.188700
0.986627 -2.804917 -0.192488
0.699273 -2.090648 1.296585
0.624582 -2.074046 1.532543
0.630094 -2.110836 1.358102
0.693180 -2.029191 1.502436
1.024760 -2.847736 -0.225795
0.581658 -2.145282 1.424491
0.645843 -2.076183 1.533681
0.570288 -2.138732 1.545559
0.610141 -1.985296 1.643710
0.914236 -2.790345 -0.183481
0.659411 -2.128437 1.312067
0.900474 -2.768187 -0.186245
0.736760 -2.368408 1.260334
0.609531 -2.316397 1.184461
0.586685 -2.114870 1.548993
0.543966 -2.000619 1.713302
0.636507 -2.000708 1.584685
0.591225 -2.147643 1.373595
0.659238 -2.070097 1.522895
0.677952 -2.127753 1.251223
0.626941 -2.286646 1.195974
0.539925 -2.167945 1.430147
0.605072 -2.103884 1.542282
0.530368 -2.184557 1.562940
0.572290 -2.019136 1.661249
0.615643 -2.158136 1.322636
0.648310 -2.269816 1.199345
0.563695 -2.358071 1.193871
0.546844 -2.150634 1.561496
0.504211 -2.024363 1.723957
0.548460 -2.175347 1.383189
0.617497 -2.093792 1.531543
0.595685 -2.033533 1.603230
0.500070 -2.202743 1.444659
0.636076 -2.169567 1.269651
0.660810 -2.243795 1.193801
0.582127 -2.324317 1.204435
0.565231 -2.138674 1.556799
0.486572 -2.219255 1.572445
0.530526 -2.045899 1.674864
0.574747 -2.199980 1.342062
0.604498 -2.305510 1.208834
0.517833 -2.402765 1.204240
0.504075 -2.180331 1.570066
0.517204 -2.244694 1.901332
0.579614 -2.130652 1.550039
0.508554 -2.217196 1.401615
0.551912 -2.063314 1.619805
0.461152 -2.243606 1.463097
0.619935 -2.283579 1.208247
0.540194 -2.373109 1.219765
0.590289 -2.203306 1.284166
0.527305 -2.180564 1.577231
0.488759 -2.072669 1.688477
0.442732 -2.258012 1.585898
0.529979 -2.229699 1.353625
0.561602 -2.350293 1.224211
0.463159 -2.224200 1.590465
0.470939 -2.451497 1.217554
0.541716 -2.168532 1.569520
0.466686 -2.255023 1.419083
0.421232 -2.285468 1.481517
0.510071 -2.098183 1.641319
0.579018 -2.328405 1.225630
0.494356 -2.412825 1.231194
0.544466 -2.241090 1.301629
0.484532 -2.209294 1.587810
0.396891 -2.298771 1.600320
0.435606 -2.465900 1.118302
0.515820 -2.382974 1.232728
0.484165 -2.265479 1.370111
0.420314 -2.260999 1.605943
0.499938 -2.195298 1.582125
0.422087 -2.496196 1.228911
0.424774 -2.296907 1.440500
0.378381 -2.321274 1.497003
0.535185 -2.364166 1.239114
0.465307 -2.125986 1.658912
0.446496 -2.457557 1.244555
0.442664 -2.247139 1.606279
0.499586 -2.283942 1.323030
0.387778 -2.503630 1.130745
0.350992 -2.344602 1.619676
0.471867 -2.433827 1.253024
0.440278 -2.307334 1.390524
0.455234 -2.215996 1.590798
0.379283 -2.316983 1.634187
0.379948 -2.331699 1.455994
0.370283 -2.536867 1.239308
0.333607 -2.349021 1.508582
0.489362 -2.400917 1.252580
0.398634 -2.501298 1.257924
0.398855 -2.279926 1.620803
0.451762 -2.322739 1.341472
0.339887 -2.548418 1.147098
0.385343 -2.521059 1.092642
0.420531 -3.112735 2.133326
0.425025 -2.473577 1.266446
0.395390 -2.349202 1.411931
0.416244 -2.263999 1.619147
0.458957 -3.066205 2.149119
0.290599 -2.400991 1.535863
0.333139 -2.365495 1.472495
0.320253 -2.602712 1.261393
0.444470 -2.444734 1.269959
0.348774 -2.545058 1.273287
0.290984 -2.595206 1.163421
0.401958 -2.359542 1.360932
0.337391 -2.573887 1.111894
0.376181 -2.515331 1.280838
0.346574 -2.386008 1.430390
0.371520 -2.285737 1.629804
0.244743 -2.437820 1.553323
0.287257 -2.405370 1.493919
0.265439 -2.645404 1.273752
0.398562 -2.490576 1.289308
0.298798 -2.602900 1.294471
0.241079 -2.642007 1.180738
0.342918 -2.595320 1.068765
0.284566 -2.614635 1.127283
0.351142 -2.397366 1.381383
0.328250 -2.564172 1.300149
0.367320 -2.544994 1.810624
0.297698 -2.426892 1.453807
0.239380 -2.445230 1.514349
0.350693 -2.530390 1.306738
0.290009 -2.644125 1.088072
0.233550 -2.673511 1.150466
0.275426 -2.602920 1.315575
0.303106 -2.456374 1.414578
0.246853 -2.465719 1.474242
0.188584 -2.477026 1.531869
0.301746 -2.580257 1.329036
0.286521 -2.674485 1.044816
0.248363 -2.486135 1.432118
0.195024 -2.501560 1.495710
0.252786 -2.630146 1.352329
0.194482 -2.530027 1.458481
0.142102 -2.548477 1.523034
0.134039 -3.035378 1.518900
0.138605 -2.573925 1.485836
0.138423 -3.400984 2.031341
-0.077220 -1.510751 1.681612
0.110239 -3.075869 1.575478
-0.107710 -1.504351 1.669686
-0.091528 -1.498565 1.678885
-0.138024 -1.482766 1.642956
-0.148847 -1.611717 1.644291
-0.121914 -1.482081 1.660089
-0.162424 -1.582524 1.637661
-0.135242 -1.556873 1.651124
-0.102911 -1.499326 1.670001
-0.166015 -1.433796 1.584582
-0.114132 -1.555172 1.664283
-0.181340 -1.604366 1.636369
-0.088884 -1.520519 1.678855
-0.149891 -1.430111 1.601752
-0.165270 -1.615602 1.647354
-0.194440 -1.536642 1.588240
-0.167556 -1.535331 1.628389
-0.134171 -1.471738 1.643348
-0.198907 -1.461939 1.615215
-0.145460 -1.532650 1.642561
-0.212715 -1.586874 1.616581
-0.120287 -1.503122 1.667069
-0.180527 -1.434965 1.608688
-0.129345 -1.533936 1.657671
-0.197666 -1.599167 1.632550
-0.225709 -1.512051 1.560549
-0.195507 -1.480368 1.570091
-0.161101 -1.413742 1.582090
-0.175764 -1.628406 1.640312
-0.173360 -1.471636 1.580338
-0.238541 -1.518803 1.548456
-0.149309 -1.452263 1.617715
-0.158421 -1.487143 1.613263
-0.225560 -1.537183 1.572341
-0.230417 -1.510542 1.603691
-0.209060 -1.602905 1.620623
-0.206136 -1.488671 1.602111
-0.191202 -1.639165 1.632285
-0.178682 -1.431851 1.602975
-0.330190 -1.857265 1.552944
-0.186693 -1.456600 1.587652
-0.257100 -1.532928 1.570385
-0.287722 -1.777839 1.577150
-0.251638 -1.760291 1.594543
-0.336720 -1.809207 1.552569
-0.235860 -1.530844 1.553547
-0.225446 -1.608648 1.611660
-0.368667 -1.848949 1.549012
-0.319687 -1.722006 1.529853
-0.284897 -1.729751 1.570912
-0.254825 -1.715223 1.593249
-0.352670 -1.871236 1.563859
-0.366436 -1.731152 1.486568
-0.252239 -1.534618 1.546611
-0.327335 -2.122245 2.337924
-0.395534 -1.779057 1.493905
-0.355087 -1.706624 1.519026
-0.311732 -1.657790 1.510833
-0.281755 -1.650349 1.540075
-0.387852 -1.833670 1.538314
-0.413321 -1.766244 1.518060
-0.367014 -1.873949 1.549936
-0.353679 -1.693988 1.548326
-0.315317 -1.646157 1.543107
-0.411593 -1.749689 1.474399
-0.399065 -1.821281 1.514594
-0.390537 -1.897846 1.554717
-0.419268 -1.812927 1.497803
-0.483110 -2.008237 1.472149
-0.514209 -1.954652 1.441818
-0.939214 -2.684939 1.262916
-0.955327 -2.716755 1.255456
-0.985153 -2.617374 1.237715
-1.009581 -2.683378 1.248780
-0.992649 -2.725628 1.259383
-0.937601 -2.547078 1.270887
-0.959391 -2.735557 1.237461
-1.040352 -2.587784 1.213988
-1.474318 -3.724344 1.764838
-1.014189 -2.599925 1.212009
-1.022789 -2.720299 1.243522
-1.020841 -2.781338 1.243842
-1.446771 -3.316802 0.991238
-1.046425 -2.603678 1.203022
-1.257903 -3.138075 1.086385
-1.379011 -3.207865 1.043000
-1.043372 -2.650688 1.200527
-2.230894 -4.865480 1.454543
-1.193676 -2.984754 1.109714
-1.327173 -3.109717 1.084583
-2.087387 -4.627998 1.508252
-1.282458 -3.022608 1.132990
-2.212105 -4.450365 0.631979
-2.080805 -4.226294 0.723481
-1.927380 -4.347644 1.638723
