# .PCD v0.7 - Point Cloud Data file format
VERSION 0.7
FIELDS x y z
SIZE 4 4 4
TYPE F F F
COUNT 1 1 1
WIDTH 38
HEIGHT 1
VIEWPOINT 0 0 0 1
POINTS 38
DATA ascii
1.250788 -2.138551 2.664724
1.186299 -2.139173 2.622192
1.206673 -2.045431 2.497053
1.063622 -2.025384 2.325203
1.126781 -2.143749 2.586696
1.208803 -2.151173 2.822038
1.140157 -2.035023 2.450516
1.008043 -2.021878 2.292745
1.067264 -2.148321 2.552197
1.151245 -2.157743 2.795559
1.075636 -2.024596 2.404992
1.220833 -2.138805 2.659813
0.957438 -2.026335 2.271323
1.179625 -2.142015 2.755476
0.856482 -1.836835 2.153560
0.884837 -1.762631 2.259560
1.021068 -2.029100 2.378541
1.098232 -2.028949 2.344875
1.158275 -2.138373 2.629300
0.906824 -2.026784 2.247900
1.042470 -2.002043 2.547443
1.219494 -2.137467 2.633389
0.962511 -2.023615 2.343064
1.039656 -2.027450 2.316399
0.910614 -1.786996 2.176511
1.107640 -2.024379 2.360565
0.876508 -1.787198 2.251229
1.158932 -2.142011 2.613877
0.987078 -2.033921 2.299943
0.858051 -1.782466 2.150076
1.051074 -2.030880 2.345079
1.093403 -2.136587 2.583322
0.930518 -2.029410 2.271460
0.997872 -2.020411 2.220636
0.989526 -2.028407 2.321558
0.855694 -1.779996 2.135718
0.938304 -2.011897 2.192138
0.916024 -1.993977 2.263972
