# .PCD v0.7 - Point Cloud Data file format
VERSION 0.7
FIELDS x y z
SIZE 4 4 4
TYPE F F F
COUNT 1 1 1
WIDTH 856
HEIGHT 1
VIEWPOINT 0 0 0 1
POINTS 856
DATA ascii
0.653417 1.382853 1.127529
0.705350 1.400657 1.030098
0.714678 1.398929 0.999146
0.684256 1.399511 1.050906
0.706292 1.396474 1.051053
0.703928 1.397043 1.099039
0.712356 1.399493 1.048125
0.693612 1.386667 1.142856
0.716358 1.400410 1.057157
0.747580 1.401507 1.041407
0.722478 1.393369 1.062119
0.757935 1.396797 1.008431
0.746544 1.393357 1.059308
0.740190 1.388962 1.104218
0.751606 1.393379 1.056343
0.732809 1.387499 1.157142
0.758578 1.399247 1.070443
0.783847 1.390438 1.045552
0.788815 1.414531 0.813781
0.763689 1.390201 1.076377
0.806164 1.401618 1.022812
0.788798 1.390235 1.068571
0.779433 1.383845 1.113441
0.784544 1.410156 0.856697
0.808710 1.418023 1.088977
0.807745 1.407998 1.092866
0.840658 1.418181 0.734187
0.841982 1.414120 1.074180
0.833340 1.415783 0.780101
0.852987 1.419454 0.702280
0.829043 1.410425 0.821015
0.817819 1.405884 1.105899
0.832565 1.401549 1.140974
0.823762 1.406044 0.864924
0.847917 1.413893 1.100202
0.839511 1.377645 1.017804
0.818153 1.397098 1.193822
0.846967 1.407942 1.095138
0.852028 1.413402 0.709198
0.854045 1.419374 0.712262
0.849960 1.403849 1.106110
0.890893 1.421036 0.744550
0.881231 1.405033 1.081353
0.859173 1.416376 0.712250
0.876583 1.409678 0.787330
0.897222 1.415346 0.709533
0.874268 1.409291 0.831306
0.860034 1.399731 1.120121
0.865973 1.404915 0.875194
0.874791 1.397415 1.153215
0.859360 1.393948 1.208066
0.926196 1.439437 0.471942
0.887189 1.402827 1.105354
0.883197 1.426377 0.597497
0.886214 1.397849 1.103299
0.897245 1.413274 0.718496
0.904648 1.403304 1.049487
0.898278 1.413259 0.720494
0.893171 1.399697 1.120355
0.923928 1.430037 0.517820
0.924468 1.399918 1.091586
0.953503 1.439585 0.452119
0.943135 1.422898 0.754909
0.929666 1.430650 0.560857
0.904381 1.413235 0.723515
0.934508 1.436597 0.453939
0.923818 1.408556 0.796627
0.942501 1.435568 0.455989
0.945449 1.415221 0.718846
0.922479 1.412141 0.843648
0.897574 1.387833 1.219257
0.930593 1.435634 0.450885
0.905233 1.396554 1.137386
0.916018 1.391298 1.164424
0.928405 1.426259 0.605790
0.929461 1.392746 1.112530
0.933411 1.397670 1.120605
0.943462 1.410145 0.728765
0.976444 1.436339 0.477235
0.949907 1.396200 1.058711
0.945477 1.413111 0.732798
0.935388 1.392563 1.133559
0.975157 1.432921 0.525176
0.969695 1.395791 1.103836
1.003732 1.438480 0.458428
0.973896 1.424565 0.566079
0.951572 1.413080 0.736817
1.001355 1.430724 0.769357
0.985724 1.438472 0.462284
0.976451 1.445311 0.369266
0.985995 1.427322 0.817209
0.991723 1.433456 0.463282
0.972673 1.416978 0.858017
0.988685 1.407137 0.725042
0.936796 1.380724 1.230440
0.959346 1.411593 0.903863
1.009190 1.447067 0.279513
0.955266 1.381217 1.172577
0.980798 1.436502 0.460213
0.946443 1.387416 1.151561
0.981604 1.436110 0.617224
1.035640 1.458518 0.224810
0.980612 1.396507 1.136894
0.971712 1.383653 1.121711
0.989694 1.405041 0.737008
1.028692 1.434246 0.482544
1.003130 1.398031 1.075066
1.018925 1.446652 0.325563
0.991690 1.408989 0.743050
0.983586 1.390385 1.151844
1.023395 1.428836 0.530439
1.057728 1.452461 0.228887
1.022685 1.455447 0.235645
1.017903 1.394639 1.119128
1.042695 1.457412 0.236811
1.019118 1.419477 0.572313
1.052974 1.433403 0.462685
1.021668 1.440233 0.373498
0.997784 1.406953 0.748048
1.029938 1.429383 0.468471
1.048608 1.422646 0.775572
1.017900 1.410875 0.867240
1.039945 1.429362 0.469543
1.032242 1.419236 0.824419
0.978993 1.376582 1.245666
1.053855 1.425906 0.745635
1.023188 1.434982 0.175443
1.007538 1.412442 0.918174
1.060775 1.451411 0.234873
1.002463 1.380051 1.189862
1.027999 1.433391 0.468476
0.971825 1.325922 0.076076
1.063432 1.447986 0.282859
0.996619 1.387204 1.173875
1.003203 1.344277 0.031468
1.088891 1.455456 0.226108
1.022856 1.385414 1.147048
1.024899 1.387455 1.142081
1.060827 1.432751 0.763724
1.081941 1.431161 0.487842
1.052854 1.422767 0.763566
1.065153 1.438585 0.328768
1.053378 1.392912 1.087328
0.976567 1.317522 0.121017
1.029780 1.386225 1.169090
1.011350 1.325341 0.023332
1.089602 1.445665 0.544012
1.069888 1.449359 0.240875
1.113969 1.452382 0.232230
1.068112 1.392486 1.135417
1.088913 1.448344 0.240004
1.006198 1.327120 0.049300
1.084305 1.438290 0.587899
1.104197 1.431312 0.468977
1.071885 1.440146 0.378805
1.023169 1.374417 1.263919
0.990070 1.328966 0.069191
1.055942 1.416737 0.768503
1.084145 1.432261 0.477831
1.068102 1.410737 0.880547
1.045767 1.400380 0.924290
1.080410 1.442888 0.179871
1.103830 1.422512 0.787908
1.094171 1.430259 0.476883
1.083467 1.416117 0.835702
1.104081 1.421803 0.754901
0.995313 1.326206 0.041194
1.048666 1.375904 1.206107
1.078009 1.433884 0.635797
1.118008 1.453323 0.239240
1.074213 1.424298 0.475669
1.128223 1.461709 0.080374
1.042809 1.382040 1.192109
1.114672 1.443925 0.285129
1.071046 1.383251 1.164326
1.139128 1.448402 0.227344
1.148628 1.460138 0.028505
1.023235 1.328011 0.059407
1.073122 1.382323 1.156328
1.103059 1.418684 0.769843
1.041190 1.339087 -0.065373
1.039079 1.334958 -0.050426
1.046469 1.341388 -0.100322
1.121374 1.441494 0.334137
1.104050 1.419630 0.776845
1.128908 1.449275 0.130245
1.148156 1.442016 0.499348
1.102620 1.384804 1.099546
1.081948 1.386025 1.191405
1.042219 1.332064 -0.062450
1.044067 1.333878 -0.041420
1.144991 1.460487 -0.009559
1.124083 1.451262 0.247216
1.141829 1.440588 0.550271
1.185812 1.473186 0.019847
1.111350 1.381416 1.144563
1.143125 1.447270 0.244312
1.173210 1.452322 0.234577
1.134508 1.434200 0.596153
1.065369 1.367306 1.278099
1.123091 1.439070 0.384096
1.166603 1.461951 0.049595
1.143418 1.460752 0.075410
1.093956 1.398261 0.937553
1.107124 1.414601 0.782783
1.176401 1.449160 0.481578
1.114321 1.402658 0.889738
1.195910 1.472431 -0.123114
1.149328 1.445107 0.491341
1.138618 1.451815 0.183299
1.185835 1.457366 -0.114324
1.134666 1.413006 0.847969
1.073075 1.364719 -0.025968
1.158285 1.420695 0.766204
1.167348 1.452080 0.492527
1.147146 1.455584 -0.019628
1.129205 1.432790 0.645083
1.107020 1.355799 -0.153807
1.154068 1.412441 0.796098
1.096866 1.371777 1.222347
1.155711 1.464041 0.041510
1.168222 1.446279 0.241456
1.150362 1.452082 0.495388
1.090987 1.375881 1.212327
1.184454 1.459679 0.079673
1.191885 1.468800 0.293822
1.118251 1.376143 1.179522
1.213874 1.468111 0.026951
1.187608 1.466827 0.062748
1.189346 1.438368 0.229523
1.124328 1.379203 1.172587
1.153268 1.412601 0.780064
1.208557 1.476897 -0.062026
1.207682 1.475047 -0.079051
1.210980 1.475385 -0.118032
1.187579 1.455399 0.341649
1.147267 1.404575 0.784935
1.193130 1.459218 0.132705
1.127162 1.375932 1.205558
1.206388 1.438954 0.505641
1.155853 1.378704 1.113783
1.210516 1.470799 -0.050093
1.209222 1.468452 -0.010121
1.211703 1.471016 -0.075085
1.175270 1.445192 0.253440
1.163540 1.378281 1.162825
1.195045 1.434524 0.557505
1.116520 1.369125 1.301407
1.247048 1.474169 0.018195
1.198325 1.445205 0.249598
1.185278 1.448967 0.393542
1.133164 1.385212 0.945640
1.185721 1.428139 0.603376
1.243445 1.464261 0.238087
1.223823 1.459922 0.049890
1.166509 1.400545 0.904008
1.199617 1.459697 0.078710
1.160297 1.411467 0.799048
1.190826 1.447777 0.185547
1.224621 1.437128 0.485721
1.201525 1.439033 0.499568
1.268185 1.484441 -0.129594
1.212443 1.468635 -0.030135
1.179398 1.428713 0.654320
1.181895 1.401954 0.856118
1.267128 1.481374 -0.121631
1.213556 1.439041 0.497649
1.144064 1.365666 1.238549
1.210499 1.413620 0.776421
1.214372 1.467538 -0.019135
1.215922 1.468998 0.042892
1.272554 1.481858 -0.177600
1.206307 1.403387 0.804295
1.245431 1.469176 0.249116
1.193560 1.436036 0.501462
1.138175 1.366749 1.231498
1.240107 1.455788 0.294952
1.166451 1.369034 1.195719
1.234671 1.447664 0.079825
1.244817 1.465793 0.064050
1.271577 1.464280 0.235240
1.201471 1.403529 0.790237
1.172560 1.369123 1.185752
1.269107 1.459108 0.025159
1.265785 1.472894 -0.064756
1.268913 1.476039 -0.081708
1.273223 1.477392 -0.122673
1.242785 1.451347 0.346909
1.208423 1.410411 0.804332
1.263356 1.472166 0.135220
1.174346 1.367809 1.223737
1.267728 1.468780 -0.050803
1.266610 1.436892 0.512948
1.213060 1.375576 1.132067
1.161698 1.364010 1.318605
1.268443 1.467434 -0.010810
1.247466 1.462090 0.262006
1.212766 1.369204 1.176003
1.190323 1.390057 0.965004
1.249260 1.428469 0.564738
1.235487 1.440931 0.397733
1.275527 1.465102 0.258221
1.325310 1.490155 0.015781
1.240934 1.424075 0.611636
1.215705 1.394461 0.916215
1.279838 1.484625 0.082400
1.302672 1.459235 0.240355
1.272033 1.444912 0.049997
1.265037 1.466698 0.191143
1.215470 1.409341 0.815328
1.253719 1.431968 0.507779
1.227593 1.421654 0.662510
1.284838 1.435068 0.493026
1.198230 1.365505 1.260846
1.275657 1.472604 -0.029754
1.268764 1.433983 0.504896
1.328424 1.479459 -0.134323
1.264705 1.407542 0.787653
1.241094 1.400840 0.871430
1.274576 1.468503 -0.017801
1.325359 1.474385 -0.125391
1.247743 1.431952 0.511714
1.300644 1.461146 0.252330
1.266516 1.400283 0.818590
1.196295 1.369517 1.261846
1.218632 1.363896 1.215951
1.303330 1.455744 0.299291
1.319923 1.473620 0.080550
1.318036 1.478744 0.066576
1.222776 1.361032 1.200943
1.256670 1.398435 0.803484
1.334805 1.463253 0.237567
1.347358 1.475090 0.023742
1.337155 1.482043 -0.085282
1.340036 1.484893 -0.068236
1.259608 1.403321 0.817535
1.301993 1.450300 0.352215
1.336456 1.477400 -0.126337
1.232488 1.368609 1.251062
1.320572 1.466149 0.136463
1.212848 1.362848 1.341872
1.345975 1.485768 -0.053212
1.342680 1.481418 -0.012272
1.323825 1.429843 0.520181
1.304647 1.459025 0.269279
1.267285 1.367488 1.147277
1.240505 1.385962 0.979233
1.270938 1.368049 1.198305
1.295680 1.443866 0.405084
1.310469 1.427399 0.574054
1.299119 1.423989 0.622946
1.332723 1.460057 0.263472
1.270903 1.390367 0.930469
1.381527 1.479158 0.014963
1.326016 1.468601 0.085478
1.276795 1.412604 0.670680
1.318245 1.457680 0.193332
1.262675 1.395277 0.826437
1.370296 1.482870 0.049909
1.247425 1.358402 1.278038
1.309916 1.425902 0.517015
1.367899 1.457206 0.243679
1.339053 1.425032 0.499210
1.342878 1.478589 -0.030338
1.343347 1.477944 0.044663
1.325962 1.427918 0.514137
1.348797 1.482473 -0.017266
1.295311 1.393774 0.882646
1.320908 1.401464 0.799890
1.393666 1.477482 -0.139001
1.392612 1.474416 -0.131038
1.302920 1.426868 0.522955
1.361853 1.458111 0.256621
1.241498 1.355423 1.278944
1.273812 1.359758 1.237205
1.327728 1.397197 0.831883
1.365537 1.453703 0.304597
1.388154 1.477615 0.079949
1.378244 1.474728 0.067849
1.285927 1.364844 1.227320
1.315848 1.396322 0.819776
1.392025 1.453244 0.239763
1.409600 1.468111 0.020994
1.359198 1.444265 0.357453
1.315794 1.397220 0.832770
1.260039 1.353745 1.360030
1.282681 1.358497 1.270225
1.381788 1.463137 0.137751
1.292677 1.381857 0.995467
1.362835 1.454977 0.275541
1.414192 1.488760 -0.053828
1.396370 1.469009 -0.081126
1.403899 1.475420 -0.013017
1.327111 1.363915 1.219560
1.350878 1.437827 0.411310
1.329477 1.365352 1.168584
1.383049 1.420806 0.527397
1.346333 1.408967 0.629037
1.366675 1.420352 0.582275
1.394923 1.458019 0.268774
1.328086 1.387262 0.946738
1.327000 1.402563 0.678839
1.382441 1.460642 0.197696
1.390209 1.468560 0.089811
1.299617 1.351291 1.297241
1.449770 1.477178 0.012295
1.321835 1.393142 0.845726
1.370099 1.422824 0.528297
1.423505 1.467878 0.050027
1.404080 1.476580 -0.030042
1.407250 1.427958 0.509595
1.402551 1.471933 0.045906
1.409994 1.479458 -0.015981
1.434126 1.453188 0.246979
1.392160 1.428847 0.524491
1.352510 1.387691 0.896883
1.380103 1.395378 0.814136
1.363098 1.423783 0.535236
1.305600 1.360175 1.313331
1.422068 1.451097 0.259859
1.334956 1.359574 1.264524
1.386955 1.387137 0.844087
1.428753 1.449680 0.308881
1.449372 1.470619 0.080190
1.443456 1.472719 0.069162
1.342129 1.357737 1.246541
1.377031 1.393218 0.836063
1.307214 1.345638 1.379194
1.414406 1.435249 0.361643
1.460250 1.451228 0.243092
1.375967 1.394109 0.850050
1.464609 1.473078 -0.090718
1.485842 1.473122 0.019436
1.344811 1.358292 1.300547
1.446997 1.462123 0.140074
1.351829 1.382721 1.015783
1.428019 1.453919 0.283864
1.410068 1.434784 0.418582
1.472121 1.477433 -0.014649
1.388283 1.360773 1.242845
1.409528 1.407899 0.640351
1.389162 1.406465 0.693199
1.390679 1.359238 1.188838
1.380286 1.377198 0.959904
1.450263 1.417755 0.536710
1.455119 1.451991 0.274018
1.426883 1.413306 0.591510
1.356777 1.348142 1.321505
1.439651 1.451639 0.199893
1.457407 1.469536 0.093162
1.376008 1.385047 0.861921
1.434281 1.420746 0.540604
1.520005 1.474200 0.010619
1.468285 1.473581 -0.029749
1.495729 1.469879 0.050414
1.464756 1.466931 0.047169
1.478202 1.480456 -0.015626
1.471464 1.421920 0.517859
1.453352 1.422791 0.534739
1.410715 1.379619 0.911098
1.439313 1.387321 0.826355
1.504354 1.450179 0.250304
1.429262 1.425685 0.549593
1.358771 1.350037 1.337501
1.392137 1.352450 1.286745
1.490277 1.449070 0.265182
1.513590 1.464631 0.080450
1.493970 1.444668 0.313158
1.508660 1.467713 0.071438
1.454155 1.384046 0.860398
1.366350 1.345458 1.407496
1.435226 1.385146 0.850275
1.402307 1.352603 1.269797
1.484608 1.437208 0.369018
1.438131 1.389992 0.869324
1.530473 1.448222 0.246413
1.408004 1.377626 1.033017
1.398989 1.349172 1.322731
1.508211 1.454132 0.141298
1.555082 1.468159 0.016731
1.489200 1.448881 0.291118
1.470262 1.429751 0.425833
1.444489 1.350690 1.261026
1.446354 1.399412 0.704415
1.471714 1.403835 0.652623
1.442465 1.374095 0.978187
1.416919 1.345976 1.348789
1.522312 1.447955 0.281312
1.454873 1.353119 1.211100
1.494084 1.410250 0.602816
1.505846 1.451620 0.204224
1.511494 1.404740 0.543881
1.516600 1.459530 0.096353
1.442156 1.384904 0.884254
1.495466 1.413690 0.551837
1.535966 1.467933 0.048533
1.566958 1.466903 0.049736
1.539663 1.417873 0.528158
1.518552 1.416745 0.545002
1.487444 1.416631 0.560789
1.478888 1.378500 0.931429
1.514473 1.391188 0.847773
1.570579 1.440185 0.253528
1.417915 1.343863 1.366737
1.453284 1.348289 1.314011
1.558481 1.445055 0.270479
1.421489 1.341305 1.433732
1.561189 1.438666 0.317428
1.464480 1.347471 1.294056
1.582814 1.458654 0.080729
1.577866 1.463716 0.073737
1.505385 1.385018 0.871625
1.526330 1.382931 0.880747
1.547817 1.430200 0.374257
1.464181 1.370541 1.050224
1.496315 1.379915 0.885509
1.465107 1.347964 1.356051
1.604697 1.446226 0.249758
1.583426 1.456135 0.143689
1.528461 1.420738 0.432026
1.551386 1.440854 0.298340
1.507530 1.395347 0.717676
1.509654 1.345546 1.287298
1.505636 1.369994 0.997458
1.532920 1.394801 0.662831
1.481070 1.342815 1.377077
1.575051 1.450620 0.207552
1.591510 1.443938 0.287609
1.568274 1.411183 0.616192
1.591795 1.461516 0.100741
1.506309 1.380783 0.905529
1.524056 1.347987 1.236392
1.591699 1.406683 0.556297
1.568640 1.414613 0.566207
1.605174 1.465954 0.048849
1.639174 1.463928 0.050056
1.588738 1.413690 0.557314
1.558606 1.415540 0.577127
1.542085 1.370431 0.947657
1.612871 1.413838 0.538474
1.576672 1.381135 0.861974
1.486014 1.343628 1.404073
1.513462 1.339170 1.338214
1.482615 1.339129 1.464013
1.648804 1.438189 0.257888
1.634686 1.444040 0.276839
1.522343 1.364446 1.069447
1.571558 1.379929 0.889897
1.532636 1.344316 1.322361
1.650071 1.459728 0.076045
1.635398 1.435656 0.323757
1.660049 1.456692 0.080082
1.614024 1.422195 0.380495
1.594545 1.373877 0.895986
1.566479 1.376802 0.906821
1.530245 1.342788 1.387318
1.653636 1.451152 0.145976
1.679912 1.442233 0.254080
1.597658 1.417714 0.440330
1.623560 1.440815 0.307689
1.570710 1.390293 0.730930
1.569800 1.364895 1.017718
1.589751 1.351313 1.324752
1.605103 1.393737 0.677171
1.545218 1.338664 1.405349
1.641251 1.442627 0.211786
1.658702 1.434926 0.294838
1.661986 1.456517 0.105025
1.571464 1.373669 0.927772
1.639484 1.404153 0.627463
1.603186 1.349793 1.269798
1.637824 1.407562 0.579467
1.663907 1.398653 0.567561
1.622780 1.407488 0.590352
1.655932 1.404659 0.568543
1.613263 1.366338 0.967959
1.650842 1.378039 0.882300
1.686069 1.407806 0.549763
1.727026 1.433206 0.262209
1.582511 1.357361 1.088664
1.707897 1.437048 0.282114
1.635747 1.368865 0.907090
1.724283 1.454760 0.077345
1.709614 1.429667 0.329047
1.742274 1.456731 0.080473
1.690220 1.421178 0.388848
1.634629 1.371692 0.929095
1.673728 1.370781 0.917335
1.671845 1.417689 0.449683
1.731853 1.448180 0.148315
1.638891 1.386240 0.745214
1.758136 1.437261 0.257399
1.695743 1.434791 0.316968
1.637967 1.359799 1.038992
1.675284 1.388687 0.691452
1.716449 1.441638 0.216131
1.740176 1.456525 0.109393
1.735898 1.431920 0.302171
1.636627 1.364574 0.948988
1.706696 1.392144 0.637655
1.707004 1.399522 0.592710
1.693939 1.402421 0.606635
1.749109 1.397614 0.580955
1.732121 1.399620 0.581850
1.691430 1.364231 0.991309
1.728021 1.372958 0.902614
1.777252 1.411748 0.565236
1.651653 1.355243 1.112970
1.784097 1.431059 0.288408
1.809251 1.427236 0.266531
1.714896 1.367749 0.931453
1.759430 1.410195 0.395056
1.781830 1.418693 0.334269
1.711775 1.368570 0.954427
1.736043 1.406697 0.456867
1.704072 1.377201 0.759425
1.806070 1.440229 0.149576
1.768921 1.428778 0.326246
1.754908 1.365693 0.939665
1.846353 1.435285 0.262789
1.749463 1.383640 0.706747
1.787661 1.431675 0.219356
1.813366 1.448549 0.113648
1.717732 1.367408 0.979399
1.818085 1.428911 0.311521
1.789872 1.391090 0.654032
1.788170 1.396460 0.610056
1.769104 1.397366 0.622932
1.839296 1.397572 0.596374
1.817293 1.398567 0.598235
1.861445 1.406727 0.578573
1.867304 1.426082 0.294739
1.903462 1.428259 0.272977
1.842619 1.409193 0.404429
1.871026 1.419698 0.342691
1.725690 1.313348 1.479939
1.819225 1.406679 0.468251
1.782232 1.376135 0.777776
1.904283 1.446268 0.153091
1.845099 1.420770 0.336510
1.755605 1.324168 1.504194
1.832626 1.382579 0.725120
1.937575 1.430326 0.268155
1.813184 1.332865 1.419615
1.879859 1.436699 0.224831
1.905267 1.427912 0.320909
1.872058 1.385061 0.669346
1.882315 1.401381 0.630541
1.863234 1.402263 0.646415
1.761461 1.317834 1.553110
1.802986 1.317488 1.473360
1.909463 1.398521 0.615656
1.934484 1.395541 0.612789
1.951627 1.402702 0.593942
1.965502 1.428100 0.303206
1.930807 1.407197 0.414808
1.914385 1.413646 0.482756
1.792842 1.300216 1.512110
2.003680 1.427300 0.279421
1.963240 1.415732 0.350066
1.939263 1.424752 0.348978
1.813825 1.304132 1.525248
1.954063 1.423752 0.229026
1.908259 1.334632 1.465070
1.781383 1.290522 1.602914
2.030793 1.424380 0.273511
1.995456 1.423930 0.330272
1.880045 1.345875 1.196923
1.851487 1.319530 1.607539
1.903001 1.325180 1.527899
1.925948 1.339002 1.061120
1.998464 1.366649 0.981789
2.058701 1.422136 0.311558
2.002558 1.411646 0.495128
1.976303 1.360399 1.015572
1.906775 1.316790 1.581805
1.970149 1.361181 1.043530
2.032432 1.422753 0.361371
1.913831 1.312820 1.580794
2.058252 1.430794 0.235563
1.886335 1.305135 1.667545
2.024397 1.349428 1.017721
1.985436 1.318539 1.496246
1.967089 1.355007 1.071400
1.947214 1.331825 1.219072
1.915659 1.299428 1.639613
1.970203 1.304122 1.554974
2.008114 1.327938 1.086369
2.022937 1.316069 1.439382
2.080645 1.351615 1.003993
2.007448 1.311360 1.531215
2.067444 1.352308 1.044890
1.981906 1.302642 1.619990
2.056288 1.351090 1.072803
1.990981 1.299698 1.615998
1.969410 1.300923 1.712870
2.071561 1.307391 1.535509
2.131530 1.346318 1.051162
2.048221 1.342909 1.101627
2.040307 1.331675 1.255482
2.144809 1.375297 0.686426
2.124679 1.382121 0.708357
2.152590 1.366996 0.724400
1.998737 1.290207 1.687882
2.065275 1.298899 1.604339
2.136155 1.341713 1.134081
2.202954 1.385437 0.673815
2.122052 1.307902 1.482732
2.203727 1.357454 1.044597
2.108882 1.349988 0.853951
2.235206 1.372736 0.639874
2.073972 1.296413 1.670329
2.091595 1.297239 1.568434
2.179533 1.354161 1.083400
2.160385 1.348950 1.110235
2.079067 1.292506 1.661308
2.049504 1.291744 1.756124
2.143792 1.332134 1.212988
2.161278 1.346717 1.146160
2.167672 1.297225 1.579821
2.128430 1.323570 1.288778
2.234687 1.336254 1.081503
2.209839 1.367109 0.728562
2.247959 1.369273 0.708807
2.285707 1.376924 0.754083
2.096758 1.285911 1.748264
2.163349 1.290682 1.655679
2.232311 1.329650 1.164367
2.319102 1.383415 0.697292
2.230969 1.359877 0.887583
2.219193 1.294780 1.523014
2.250144 1.369792 0.525750
2.299898 1.341421 1.071839
2.170035 1.287179 1.723653
2.380323 1.383680 0.668622
2.358207 1.370518 0.688386
2.196663 1.292022 1.619840
2.263707 1.334134 1.108551
2.133587 1.282560 1.801394
2.249524 1.333881 1.140460
2.172166 1.282330 1.707605
2.315937 1.395836 0.400305
2.237927 1.321057 1.245275
2.393027 1.400955 0.389776
2.309422 1.358419 0.829955
2.222541 1.315479 1.324086
2.245414 1.328661 1.177316
2.267765 1.286072 1.627125
2.424155 1.409103 0.378953
2.348814 1.327195 1.116881
2.336918 1.373044 0.761151
2.376055 1.372232 0.739367
2.192795 1.277687 1.805572
2.381896 1.357999 0.771266
2.260430 1.279533 1.704955
2.324117 1.346908 0.909813
2.423256 1.369474 0.717555
2.343421 1.321594 1.201728
2.387264 1.380835 0.546421
2.337253 1.288619 1.577425
2.415011 1.332392 1.107200
2.232623 1.277369 1.857728
2.268099 1.276018 1.777917
2.453719 1.386451 0.474815
2.301750 1.281899 1.670142
2.377805 1.327086 1.146921
2.268239 1.272193 1.757872
2.352626 1.322835 1.177741
2.493488 1.370775 0.687920
2.448059 1.400910 0.418876
2.477370 1.359603 0.709730
2.345021 1.313996 1.284618
2.407581 1.343487 0.851169
2.521195 1.397094 0.402231
2.321630 1.307412 1.363383
2.356478 1.323570 1.220693
2.385802 1.279894 1.686524
2.551305 1.405228 0.393401
2.454014 1.368048 0.791548
2.492176 1.364273 0.765728
2.474926 1.319171 1.156286
2.293818 1.268473 1.867866
2.507029 1.352053 0.797685
2.370478 1.270364 1.763285
2.430237 1.338932 0.937134
2.506410 1.375937 0.563824
2.459531 1.311565 1.241067
2.326686 1.267226 1.909981
2.549388 1.361535 0.743954
2.364183 1.259890 1.831111
2.462314 1.280481 1.634825
2.540114 1.323373 1.146587
2.580874 1.381581 0.490249
2.375297 1.263039 1.814189
2.419788 1.275730 1.729536
2.475685 1.317750 1.224162
2.585179 1.403005 0.438426
2.495897 1.317045 1.188267
2.453137 1.301972 1.322902
2.632624 1.365859 0.713404
2.612516 1.351690 0.735165
2.539679 1.342501 0.883669
2.433699 1.302332 1.407760
2.469539 1.315489 1.266038
2.514820 1.273704 1.751959
2.563137 1.354098 0.818806
2.404827 1.259247 1.936193
2.613305 1.352339 0.793057
2.610015 1.311139 1.200720
2.552345 1.333958 0.968545
2.641149 1.346112 0.827134
2.494480 1.263145 1.832687
2.634550 1.372055 0.582267
2.595593 1.307499 1.289547
2.690500 1.357601 0.773450
2.501105 1.260568 1.914651
2.507257 1.262779 1.888698
2.717028 1.375733 0.506701
2.679194 1.315345 1.192033
2.605735 1.311671 1.273593
2.584397 1.265383 1.691128
2.545828 1.266572 1.792920
2.577203 1.294905 1.370299
2.639934 1.315961 1.239810
2.789739 1.362945 0.743974
2.678778 1.339540 0.917167
2.552761 1.295254 1.456135
2.776625 1.351766 0.767797
2.594583 1.307397 1.317423
2.703212 1.351117 0.855303
2.771375 1.354368 0.830681
2.692418 1.333968 1.006075
2.765076 1.306096 1.252258
2.796251 1.343178 0.861690
2.768686 1.365190 0.602693
2.848594 1.354672 0.808016
2.820884 1.331605 0.951613
2.950866 1.354072 0.774484
2.937746 1.342880 0.800307
2.857271 1.349143 0.895857
2.925455 1.348428 0.868192
2.835499 1.329005 1.044554
2.922817 1.361351 0.625223
3.034497 -1.025841 2.999326
3.103426 -1.016747 3.031517
3.219696 -1.051396 3.068496
3.056423 -1.075410 3.009891
3.123821 -1.147124 3.018570
3.206706 -1.124054 3.070849
3.051901 -1.201757 2.977923
3.172723 -1.188699 3.055221
3.095767 -1.237291 2.998620
3.017958 -1.268469 2.974299
3.048804 -1.295946 2.972032
3.035842 -1.367660 2.979441
3.140971 -1.511107 3.013675
