# .PCD v0.7 - Point Cloud Data file format
VERSION 0.7
FIELDS x y z
SIZE 4 4 4
TYPE F F F
COUNT 1 1 1
WIDTH 368
HEIGHT 1
VIEWPOINT 0 0 0 1
POINTS 368
DATA ascii
-0.950972 -2.191905 -0.152744
-1.129507 -2.220003 0.377605
-1.135702 -2.220297 0.468499
-1.048735 -2.230123 0.391771
-1.024500 -2.189145 0.121447
-1.117718 -2.220687 0.389868
-1.088574 -2.223325 0.345584
-1.106679 -2.221572 0.392107
-1.172696 -2.208104 0.390207
-1.147467 -2.214808 0.343900
-1.162628 -2.209015 0.391422
-0.317541 -2.299726 -0.095606
-0.318561 -2.304801 -0.087656
-0.364567 -2.294938 -0.084762
-0.365613 -2.300066 -0.070812
-0.373607 -2.296177 -0.061809
-0.380976 -2.306100 0.038076
-0.329196 -2.303762 -0.101688
-0.329189 -2.302743 -0.103678
-0.413921 -2.299531 0.072002
-0.371244 -2.296998 -0.086803
-0.371214 -2.293926 -0.094775
-0.417311 -2.292279 -0.067953
-0.416265 -2.286151 -0.081894
-0.375368 -2.296330 -0.051812
-0.383545 -2.307872 0.005052
-0.425310 -2.286400 -0.057932
-0.433661 -2.299315 0.039921
-0.441421 -2.318106 0.234728
-0.405801 -2.300782 0.096030
-0.453655 -2.316817 0.307694
-0.337151 -2.304385 -0.041719
-0.336803 -2.296613 -0.126651
-0.339025 -2.304147 -0.068726
-0.337819 -2.292654 -0.122619
-0.380881 -2.292937 -0.102801
-0.379890 -2.286926 -0.103742
-0.383120 -2.297499 -0.041849
-0.466608 -2.294756 0.074831
-0.422935 -2.288193 -0.085933
-0.422904 -2.285121 -0.093906
-0.388147 -2.301653 -0.026907
-0.466975 -2.272362 -0.078973
-0.470002 -2.285496 -0.065105
-0.428054 -2.289539 -0.049965
-0.437969 -2.325752 0.189676
-0.436227 -2.297067 0.004936
-0.477011 -2.275615 -0.055042
-0.405647 -2.309047 0.118962
-0.486344 -2.295528 0.041743
-0.494101 -2.315331 0.236539
-0.459474 -2.302011 0.098801
-0.507340 -2.310071 0.311538
-0.389820 -2.297558 -0.043872
-0.435569 -2.315414 0.146783
-0.390463 -2.288775 -0.129798
-0.391698 -2.294318 -0.070851
-0.389503 -2.278820 -0.124702
-0.433553 -2.288115 -0.103970
-0.432568 -2.276105 -0.104856
-0.434809 -2.285688 -0.041950
-0.518311 -2.283989 0.078723
-0.474597 -2.274315 -0.093014
-0.440815 -2.295826 -0.029067
-0.402473 -2.302208 0.131043
-0.476606 -2.282384 -0.086096
-0.522688 -2.280703 -0.063272
-0.488303 -2.317344 0.341556
-0.519665 -2.265578 -0.076120
-0.478760 -2.274743 -0.048032
-0.490648 -2.316958 0.189542
-0.488907 -2.293270 0.005759
-0.530689 -2.275834 -0.052258
-0.457332 -2.299245 0.118842
-0.539029 -2.290742 0.043576
-0.545792 -2.305546 0.237422
-0.562814 -2.341129 0.512038
-0.432122 -2.309978 0.093849
-0.477235 -2.318608 0.367596
-0.511169 -2.287219 0.099731
-0.561030 -2.304334 0.316376
-0.441502 -2.284729 -0.045962
-0.442139 -2.278929 -0.132915
-0.489236 -2.309611 0.145620
-0.443375 -2.282478 -0.073950
-0.497281 -2.340105 0.413318
-0.442165 -2.273977 -0.127869
-0.485237 -2.274282 -0.106049
-0.487221 -2.282295 -0.105131
-0.488472 -2.283872 -0.043148
-0.571997 -2.281226 0.082536
-0.529287 -2.279580 -0.085280
-0.492500 -2.285006 -0.030174
-0.527280 -2.267512 -0.092160
-0.454155 -2.290400 0.129944
-0.540990 -2.311586 0.344398
-0.574390 -2.270917 -0.060385
-0.574334 -2.268788 -0.074366
-0.531442 -2.268943 -0.047187
-0.543330 -2.307164 0.189422
-0.540594 -2.284460 0.005635
-0.553379 -2.326684 0.458214
-0.582394 -2.267058 -0.048380
-0.592711 -2.285958 0.045408
-0.510017 -2.287458 0.119741
-0.597484 -2.293761 0.238326
-0.613510 -2.326349 0.511973
-0.490839 -2.326632 0.356472
-0.485787 -2.301163 0.091716
-0.528922 -2.308832 0.368480
-0.564850 -2.284448 0.102544
-0.612730 -2.291573 0.319291
-0.624997 -2.306627 0.643119
-0.493186 -2.272908 -0.047057
-0.541912 -2.300805 0.144492
-0.493819 -2.268094 -0.135019
-0.549953 -2.329307 0.411207
-0.497031 -2.279641 -0.077137
-0.494831 -2.267135 -0.131014
-0.539898 -2.274472 -0.106267
-0.538905 -2.268462 -0.107207
-0.540162 -2.271061 -0.043233
-0.624696 -2.271463 0.086421
-0.580983 -2.267774 -0.084372
-0.580951 -2.265701 -0.092353
-0.545176 -2.278188 -0.031318
-0.508810 -2.287598 0.128753
-0.627081 -2.264124 -0.058527
-0.593678 -2.301821 0.346281
-0.625046 -2.254000 -0.071425
-0.517801 -2.315016 0.385474
-0.587101 -2.272148 -0.046435
-0.595019 -2.295367 0.189328
-0.593278 -2.274654 0.005520
-0.605066 -2.313905 0.458128
-0.636082 -2.261278 -0.045535
-0.644411 -2.275170 0.047307
-0.562694 -2.281658 0.119588
-0.648188 -2.281982 0.240238
-0.667193 -2.322603 0.514796
-0.580611 -2.298055 0.369377
-0.545496 -2.317837 0.354336
-0.540438 -2.298339 0.088525
-0.619522 -2.284671 0.104328
-0.665428 -2.278827 0.323206
-0.548829 -2.273078 -0.050277
-0.594591 -2.289999 0.143386
-0.603623 -2.319522 0.410086
-0.548471 -2.266255 -0.138216
-0.551682 -2.278805 -0.080344
-0.548491 -2.261294 -0.134169
-0.591585 -2.264646 -0.107376
-0.592842 -2.266250 -0.043393
-0.590592 -2.257636 -0.108306
-0.677391 -2.263688 0.089290
-0.632646 -2.255894 -0.091461
-0.634660 -2.259965 -0.084507
-0.600827 -2.277368 -0.033528
-0.563465 -2.288794 0.127527
-0.679726 -2.255219 -0.068646
-0.678787 -2.251339 -0.055605
-0.644383 -2.284052 0.348250
-0.570476 -2.304226 0.384367
-0.639794 -2.262357 -0.044547
-0.646710 -2.282570 0.189247
-0.645959 -2.269846 0.005361
-0.658738 -2.307130 0.457982
-0.687787 -2.251493 -0.042641
-0.695120 -2.259380 0.049261
-0.617362 -2.279873 0.120392
-0.698888 -2.268194 0.241173
-0.715901 -2.301810 0.513803
-0.634290 -2.290295 0.371241
-0.594107 -2.288523 0.086408
-0.599161 -2.304031 0.351255
-0.671224 -2.269887 0.106268
-0.716140 -2.263074 0.327160
-0.601503 -2.264250 -0.052398
-0.647267 -2.279183 0.141284
-0.657295 -2.309735 0.408969
-0.601166 -2.253459 -0.136298
-0.603370 -2.260974 -0.082375
-0.602137 -2.256415 -0.141330
-0.646252 -2.259828 -0.108541
-0.646244 -2.258809 -0.110531
-0.729100 -2.250922 0.093215
-0.647507 -2.261436 -0.044558
-0.687350 -2.254160 -0.083653
-0.687322 -2.251095 -0.090625
-0.616143 -2.278986 0.126415
-0.729500 -2.237552 -0.052667
-0.653510 -2.265550 -0.034619
-0.732423 -2.243427 -0.066735
-0.699062 -2.277302 0.351104
-0.622161 -2.293441 0.384268
-0.694469 -2.261559 -0.043749
-0.699395 -2.271775 0.189147
-0.697658 -2.255047 0.006304
-0.715403 -2.309389 0.460741
-0.740486 -2.243710 -0.039766
-0.745828 -2.246589 0.051191
-0.750582 -2.257409 0.242079
-0.670046 -2.269074 0.120292
-0.760625 -2.270987 0.510926
-0.683989 -2.270496 0.370238
-0.651835 -2.290230 0.349182
-0.724911 -2.261109 0.108148
-0.646782 -2.272696 0.083355
-0.769836 -2.257336 0.332012
-0.698955 -2.264374 0.140228
-0.711965 -2.302960 0.408822
-0.655175 -2.253424 -0.054500
-0.656791 -2.253565 -0.145512
-0.658024 -2.257128 -0.086548
-0.781803 -2.242158 0.097101
-0.655826 -2.245621 -0.139432
-0.696950 -2.243000 -0.109573
-0.699921 -2.250988 -0.111661
-0.700195 -2.249626 -0.044645
-0.741033 -2.245350 -0.083772
-0.741004 -2.244284 -0.090762
-0.785125 -2.236641 -0.063867
-0.706193 -2.255730 -0.035726
-0.667826 -2.265167 0.124349
-0.784185 -2.230765 -0.050806
-0.751757 -2.266546 0.354007
-0.747162 -2.251758 -0.042855
-0.675834 -2.284662 0.384145
-0.751087 -2.260977 0.189054
-0.770083 -2.304633 0.462577
-0.753326 -2.251247 0.006130
-0.792199 -2.229936 -0.035827
-0.799519 -2.238806 0.053065
-0.803277 -2.247635 0.243976
-0.722736 -2.259284 0.121186
-0.818300 -2.277278 0.516648
-0.743641 -2.280776 0.374913
-0.775621 -2.245323 0.110109
-0.830505 -2.265645 0.339705
-0.699460 -2.260876 0.081268
-0.706497 -2.280434 0.347067
-0.751638 -2.252567 0.139143
-0.709834 -2.251588 -0.057689
-0.770616 -2.303204 0.409596
-0.709473 -2.240729 -0.147587
-0.711698 -2.246300 -0.088646
-0.711476 -2.243773 -0.143624
-0.835503 -2.230399 0.101015
-0.751622 -2.237180 -0.110721
-0.753873 -2.241809 -0.045771
-0.752608 -2.238164 -0.112735
-0.791741 -2.227542 -0.082789
-0.793700 -2.232480 -0.089844
-0.836885 -2.220972 -0.048906
-0.807443 -2.265814 0.358805
-0.838820 -2.224852 -0.061952
-0.721501 -2.255362 0.123241
-0.758880 -2.239913 -0.036771
-0.803779 -2.249191 0.189971
-0.729509 -2.274883 0.384036
-0.797875 -2.232964 -0.040862
-0.819787 -2.284838 0.461580
-0.803036 -2.233432 0.006117
-0.845897 -2.220157 -0.032930
-0.860948 -2.250881 0.246730
-0.851220 -2.223009 0.054027
-0.776417 -2.250487 0.121070
-0.872987 -2.271535 0.519499
-0.798327 -2.275026 0.377763
-0.829312 -2.234544 0.112015
-0.886198 -2.257915 0.344573
-0.752137 -2.244048 0.078234
-0.763151 -2.275651 0.345900
-0.805316 -2.241762 0.138049
-0.822308 -2.285412 0.408574
-0.761523 -2.234756 -0.059718
-0.887217 -2.217633 0.104951
-0.762152 -2.227884 -0.150658
-0.764377 -2.232459 -0.091708
-0.764156 -2.230928 -0.146695
-0.804307 -2.224347 -0.112791
-0.806290 -2.229341 -0.113847
-0.806564 -2.227999 -0.045831
-0.845432 -2.217741 -0.081890
-0.846398 -2.219676 -0.088913
-0.890534 -2.213065 -0.059025
-0.888597 -2.208186 -0.045970
-0.864124 -2.260079 0.362651
-0.811563 -2.231082 -0.038880
-0.774184 -2.242553 0.122169
-0.856469 -2.236396 0.189901
-0.783187 -2.264104 0.383939
-0.852561 -2.224168 -0.039977
-0.878453 -2.286103 0.464348
-0.855728 -2.219626 0.006059
-0.899599 -2.210377 -0.030030
-0.915638 -2.244111 0.248595
-0.903922 -2.211223 0.055951
-0.925690 -2.262785 0.522390
-0.829111 -2.234699 0.122029
-0.855998 -2.271285 0.380586
-0.884995 -2.228770 0.113868
-0.941899 -2.251194 0.350435
-0.807799 -2.236235 0.076105
-0.818817 -2.265867 0.344788
-0.857998 -2.227944 0.135991
-0.877982 -2.276639 0.408453
-0.940922 -2.207872 0.108853
-0.816195 -2.223932 -0.061812
-0.817057 -2.219616 -0.094775
-0.856997 -2.211522 -0.113857
-0.815827 -2.215041 -0.153728
-0.859258 -2.215189 -0.045898
-0.859975 -2.216520 -0.114917
-0.817831 -2.218085 -0.149766
-0.943239 -2.200272 -0.057089
-0.943291 -2.200398 -0.044090
-0.899122 -2.206930 -0.081978
-0.902077 -2.213869 -0.089058
-0.920810 -2.255343 0.366489
-0.863258 -2.214261 -0.039903
-0.911150 -2.225605 0.189809
-0.831839 -2.239757 0.120985
-0.905260 -2.210367 -0.039032
-0.844835 -2.273381 0.387620
-0.952308 -2.198596 -0.027103
-0.913396 -2.217829 0.005867
-0.969337 -2.235338 0.250487
-0.978391 -2.251028 0.524314
-0.962595 -2.214449 0.057707
-0.880808 -2.219896 0.121987
-0.910687 -2.262525 0.382471
-0.938697 -2.218000 0.116781
-1.001588 -2.250492 0.357226
-0.861477 -2.226414 0.074006
-0.880458 -2.267115 0.345549
-0.909692 -2.210135 0.134981
-0.935652 -2.270880 0.409299
-1.001599 -2.210137 0.113614
-0.869875 -2.212103 -0.063890
-0.910954 -2.200365 -0.046936
-0.870733 -2.206776 -0.097842
-0.872503 -2.210243 -0.152886
-0.912668 -2.201695 -0.115960
-0.955775 -2.202066 -0.088133
-1.002912 -2.199495 -0.055294
-0.978498 -2.248620 0.371347
-0.965838 -2.216824 0.190699
-0.917935 -2.203436 -0.041992
-0.883533 -2.223945 0.119954
-0.900510 -2.265606 0.387493
-0.985835 -2.259560 0.465217
-0.960946 -2.202573 -0.038154
-1.012981 -2.201831 -0.024351
-0.967093 -2.206033 0.006792
-1.026028 -2.228584 0.253351
-1.021274 -2.212677 0.059516
-0.941467 -2.224133 0.123727
-0.966377 -2.251779 0.385376
-0.994387 -2.208227 0.118680
-1.058292 -2.239776 0.363130
-0.917142 -2.213592 0.070934
-0.938120 -2.258335 0.344426
-0.973330 -2.222358 0.134632
-1.060288 -2.207387 0.117434
-0.987345 -2.250078 0.407319
-0.925542 -2.202270 -0.066990
-0.973315 -2.205866 -0.119217
