# .PCD v0.7 - Point Cloud Data file format
VERSION 0.7
FIELDS x y z
SIZE 4 4 4
TYPE F F F
COUNT 1 1 1
WIDTH 717
HEIGHT 1
VIEWPOINT 0 0 0 1
POINTS 717
DATA ascii
2.842694 -2.783782 0.265321
2.995903 -2.906767 0.373401
2.838913 -2.896244 0.776682
2.814001 -2.766289 0.303113
2.648689 -2.719008 0.258682
3.012323 -2.913545 0.094814
2.842732 -2.975284 0.791196
2.878274 -2.908235 0.812975
2.810025 -2.858886 0.363596
2.662977 -2.847096 0.750859
2.797472 -2.770679 0.338675
2.648163 -2.726302 0.294168
2.947721 -2.934213 0.493010
2.488873 -2.680027 0.252723
2.652497 -2.752887 -0.021009
2.656765 -2.919194 0.763466
2.692255 -2.849095 0.780239
2.509672 -2.758601 0.230155
2.807902 -2.779743 0.361087
2.627081 -2.803010 0.352829
2.762260 -2.967790 0.899203
2.499051 -2.799919 0.726969
2.638661 -2.735622 0.326651
2.482265 -2.678337 0.284273
2.771859 -2.891233 0.479111
2.358200 -2.661902 0.250496
2.735716 -2.875020 0.813382
2.622378 -2.980578 1.352280
2.895305 -2.940635 0.607763
2.533356 -2.806866 0.754276
2.494893 -2.877038 0.742535
2.355857 -2.718645 0.227174
2.786988 -2.884724 0.829597
2.640010 -2.734713 0.344146
2.472247 -2.763991 0.344828
2.587279 -2.913615 0.868387
2.481781 -2.692583 0.314667
2.348169 -2.758698 0.704980
2.344508 -2.650222 0.277127
2.588825 -2.827315 0.462372
2.206284 -2.611933 0.245568
2.566736 -2.822810 0.781507
2.457337 -2.925137 1.305443
2.731432 -2.900543 0.589773
2.693965 -2.985144 1.002954
2.420051 -2.686683 0.092004
2.386504 -2.770599 0.730220
2.524570 -2.939001 1.348553
2.570725 -2.769655 0.200283
2.329934 -2.822909 0.718693
2.209039 -2.678665 0.224160
2.624084 -2.842460 0.796617
2.486138 -2.693631 0.329120
2.327432 -2.727936 0.337762
2.458295 -3.020805 1.381869
2.422281 -2.858425 0.839530
2.340978 -2.659460 0.303550
2.210317 -2.722451 0.686898
2.212749 -2.622098 0.270953
2.442997 -2.792210 0.451288
2.084564 -2.588780 0.242329
2.410792 -2.775558 0.751543
2.302332 -2.873685 1.261535
2.565462 -2.848480 0.569865
2.184908 -2.613421 -0.006858
2.528963 -2.931901 0.970066
2.292371 -2.666608 0.091749
2.243598 -2.728345 0.707182
2.364516 -2.882528 1.298680
2.415819 -2.722708 0.194296
2.634433 -2.984409 1.102765
2.467134 -2.795188 0.763640
2.191115 -2.788688 0.701602
2.349338 -2.662468 0.315958
2.074206 -2.639623 0.221082
1.954188 -2.488556 -0.068410
2.186571 -2.686868 0.329709
2.045388 -2.511208 -0.033560
2.205144 -2.623338 0.293429
2.142722 -2.548850 0.005163
2.446936 -2.922329 1.347524
2.281455 -2.825162 0.818428
2.275072 -2.938438 1.325287
2.243900 -2.572380 0.035977
2.081485 -2.689165 0.668753
2.080901 -2.583992 0.263839
2.302141 -2.754085 0.439200
2.564404 -2.975858 1.394150
2.420571 -2.808328 0.553790
2.281026 -2.751216 0.729322
1.962801 -2.559652 0.239127
2.168433 -2.837202 1.226432
2.044006 -2.564533 -0.002862
2.373995 -2.882635 0.939109
2.158545 -2.629606 0.091623
2.228614 -2.846017 1.259571
2.272957 -2.681706 0.189220
2.115788 -2.698033 0.687001
2.482482 -2.940086 1.069746
2.321236 -2.753903 0.734579
2.217530 -2.630292 0.302780
2.046196 -2.740513 0.681627
1.950448 -2.609529 0.218895
1.847548 -2.472452 -0.062764
2.050679 -2.642800 0.322649
1.935719 -2.493085 -0.030899
2.302976 -2.878816 1.302480
2.081363 -2.594158 0.284210
2.010859 -2.506860 0.005060
2.117130 -2.542308 0.032765
2.146609 -2.789885 0.797308
1.957633 -2.653887 0.652596
2.134161 -2.897999 1.289241
2.161243 -2.709987 0.427149
2.169785 -2.615329 -0.022904
1.967189 -2.562789 0.258537
2.381145 -2.892400 1.325506
2.275621 -2.762183 0.536763
2.150148 -2.715893 0.706181
2.041522 -2.801717 1.194296
1.842938 -2.522524 0.235972
1.829996 -2.502284 -0.092843
1.922187 -2.530512 0.000958
2.231027 -2.837346 0.912076
2.033717 -2.596557 0.091432
2.150145 -2.653587 0.184973
2.332433 -2.887759 1.033761
2.099688 -2.810519 1.223419
1.995965 -2.670721 0.669758
2.191363 -2.721573 0.709385
2.094702 -2.601101 0.291537
1.919302 -2.703291 0.666485
1.827572 -2.571465 0.216742
1.740787 -2.448388 -0.056079
1.933881 -2.616640 0.317378
1.823938 -2.467022 -0.027191
1.950606 -2.542309 -0.097857
2.160940 -2.830331 1.256441
1.958482 -2.559012 0.275008
1.979174 -2.487236 -0.082264
1.999323 -2.515206 0.029479
1.913232 -2.501638 0.004562
2.018708 -2.754623 0.778137
1.839727 -2.618607 0.636393
2.031301 -2.668873 0.417009
2.034830 -2.569410 -0.022005
1.851326 -2.530635 0.252293
1.996176 -2.853595 1.253185
2.246210 -2.857892 1.282327
2.146729 -2.727018 0.522553
2.021212 -2.675620 0.682016
1.919579 -2.764267 1.162107
1.735141 -2.496364 0.232652
1.729326 -2.488203 -0.086272
2.105152 -2.806034 0.888841
1.821517 -2.518373 0.003507
1.925977 -2.577427 0.091046
2.195440 -2.843452 1.003640
2.027312 -2.622521 0.180714
1.975753 -2.774062 1.189220
1.872003 -2.627457 0.648605
1.723949 -2.415364 -0.175402
2.063438 -2.683285 0.684191
1.962719 -2.553013 0.278423
1.754440 -2.471206 -0.167888
1.788151 -2.434363 -0.125452
1.719791 -2.546332 0.215414
1.791329 -2.656098 0.648389
1.629929 -2.412385 -0.050321
1.720164 -2.442922 -0.024552
1.818034 -2.584514 0.312120
2.039041 -2.798836 1.220190
1.831738 -2.505348 -0.093083
1.854735 -2.540771 0.267599
1.877471 -2.472082 -0.082709
1.892564 -2.494050 0.026092
1.804442 -2.475540 0.004225
1.895787 -2.716363 0.758946
1.936181 -2.561233 -0.021507
1.734925 -2.595299 0.624039
1.912434 -2.635716 0.407758
1.740484 -2.499483 0.247007
2.109198 -2.811412 1.236221
2.024850 -2.693828 0.509302
1.868239 -2.814196 1.221035
1.892201 -2.626371 0.657910
1.801620 -2.724821 1.130913
1.638410 -2.479151 0.231224
1.979202 -2.765746 0.865663
1.628571 -2.465136 -0.079643
1.714711 -2.490309 0.007184
2.077568 -2.815076 0.979340
1.815189 -2.551339 0.090717
1.549950 -2.365451 -0.212643
1.912463 -2.591410 0.176422
1.861863 -2.743580 1.157939
1.762132 -2.596152 0.632313
1.939496 -2.642998 0.659994
1.859979 -2.535750 0.268994
1.616107 -2.381376 -0.167681
1.567396 -2.410125 -0.233006
1.646605 -2.438216 -0.160175
1.693459 -2.420219 -0.121924
1.541274 -2.402209 -0.045829
1.607236 -2.399912 -0.021752
1.918117 -2.763356 1.183960
1.741834 -2.503612 0.259348
1.710227 -2.557342 0.306794
1.686568 -2.635809 0.637014
1.728974 -2.482263 -0.089465
1.612991 -2.518220 0.215101
1.764618 -2.438055 -0.080989
1.793867 -2.479847 0.022629
1.699616 -2.446434 0.004890
1.813227 -2.515268 -0.020672
1.784943 -2.688057 0.742638
1.808664 -2.615485 0.401360
1.627036 -2.561005 0.608769
1.915040 -2.669580 0.497944
1.639694 -2.475268 0.241633
1.985287 -2.776923 1.196986
1.785378 -2.601035 0.640557
1.752349 -2.781777 1.193786
1.697758 -2.698352 1.106571
1.866327 -2.735414 0.846365
1.541618 -2.454944 0.228841
1.608863 -2.457242 0.009888
1.528782 -2.438076 -0.072994
1.957626 -2.777728 0.954104
1.701254 -2.509292 0.090501
1.806672 -2.567252 0.173049
1.449084 -2.329469 -0.200930
1.745896 -2.703117 1.124730
1.663349 -2.575806 0.618903
1.826630 -2.611662 0.637694
1.756183 -2.511513 0.259614
1.523344 -2.359268 -0.161104
1.475688 -2.392061 -0.222451
1.552889 -2.420115 -0.153619
1.596690 -2.397105 -0.118331
1.798117 -2.718876 1.145782
1.639008 -2.475399 0.251998
1.629189 -2.457178 -0.084847
1.677982 -2.431810 -0.081553
1.451535 -2.383063 -0.040277
1.688014 -2.447727 0.020306
1.520584 -2.390705 -0.019283
1.612478 -2.538126 0.303373
1.511153 -2.487064 0.212784
1.580719 -2.605548 0.625708
1.592729 -2.409352 0.004614
1.714488 -2.496123 -0.020105
1.706880 -2.593246 0.393966
1.676066 -2.655755 0.726347
1.532234 -2.538671 0.598361
1.801122 -2.632374 0.485685
1.870394 -2.745416 1.160694
1.544902 -2.452029 0.237224
1.685576 -2.578670 0.624155
1.593850 -2.665894 1.081267
1.642474 -2.751362 1.169496
1.754412 -2.700085 0.826095
1.455919 -2.442671 0.227329
1.517142 -2.440085 0.013428
1.842684 -2.740360 0.928848
1.429938 -2.405022 -0.066312
1.607535 -2.493107 0.091036
1.700808 -2.535111 0.169725
1.645053 -2.678632 1.099352
1.370473 -2.324279 -0.193517
1.715730 -2.576341 0.616411
1.562495 -2.546475 0.603558
1.654361 -2.484277 0.250243
1.435629 -2.342133 -0.154581
1.385939 -2.369982 -0.212880
1.457085 -2.392054 -0.145992
1.506959 -2.378947 -0.114800
1.694259 -2.692374 1.116421
1.589179 -2.418564 0.017935
1.571067 -2.391765 -0.079821
1.547258 -2.457121 0.245537
1.430791 -2.366534 -0.016708
1.535437 -2.436049 -0.081282
1.363779 -2.361903 -0.035721
1.516680 -2.513907 0.299973
1.501962 -2.388152 0.004168
1.422431 -2.470835 0.212310
1.618728 -2.474958 -0.020539
1.484950 -2.585242 0.616290
1.606030 -2.564015 0.386610
1.696261 -2.602122 0.474343
1.441439 -2.517322 0.587928
1.571199 -2.624449 0.711031
1.757460 -2.708918 1.124424
1.454128 -2.430783 0.233785
1.590811 -2.560301 0.609705
1.495965 -2.636425 1.057916
1.647505 -2.665744 0.806797
1.532545 -2.713949 1.143249
1.737792 -2.709970 0.907505
1.365127 -2.418454 0.225916
1.429418 -2.422889 0.014948
1.340176 -2.381898 -0.060735
1.510700 -2.463951 0.090664
1.598967 -2.504944 0.165371
1.546166 -2.649142 1.072995
1.620951 -2.556955 0.599960
1.469673 -2.522124 0.591144
1.288777 -2.309125 -0.186028
1.561593 -2.463992 0.241790
1.350912 -2.324975 -0.149072
1.296149 -2.342918 -0.203278
1.372387 -2.376895 -0.140497
1.411090 -2.344852 -0.111144
1.593385 -2.663879 1.088058
1.502473 -2.404317 0.015419
1.478261 -2.365607 -0.079236
1.457479 -2.435852 0.240084
1.442639 -2.409915 -0.078690
1.353166 -2.361266 -0.015308
1.419271 -2.375908 0.004628
1.418799 -2.479703 0.294645
1.281044 -2.343715 -0.031209
1.603469 -2.581815 0.465887
1.524951 -2.451800 -0.019971
1.507177 -2.533784 0.379252
1.331657 -2.447637 0.211889
1.356683 -2.500956 0.579434
1.383065 -2.549985 0.604996
1.654609 -2.682416 1.094049
1.473349 -2.596133 0.698663
1.372435 -2.419475 0.230240
1.490900 -2.524963 0.592383
1.405115 -2.611956 1.038499
1.549659 -2.639385 0.791407
1.640967 -2.687568 0.890077
1.430672 -2.683521 1.119920
1.283380 -2.401175 0.224415
1.341650 -2.400715 0.017500
1.503123 -2.475751 0.161985
1.418889 -2.437768 0.090250
1.259480 -2.367710 -0.055260
1.453309 -2.623658 1.050585
1.525117 -2.530586 0.582555
1.472833 -2.444689 0.233312
1.212074 -2.294948 -0.177570
1.382915 -2.504748 0.579658
1.274245 -2.314752 -0.144645
1.217447 -2.327760 -0.194806
1.334435 -2.336600 -0.108735
1.295749 -2.369679 -0.135091
1.494467 -2.630388 1.059717
1.409617 -2.373134 0.013034
1.398577 -2.354344 -0.079802
1.373731 -2.418535 0.233579
1.355869 -2.387753 -0.075150
1.273448 -2.346036 -0.012837
1.338572 -2.362651 0.004086
1.334054 -2.462432 0.292150
1.505597 -2.550548 0.455521
1.431109 -2.421657 -0.019359
1.205373 -2.333479 -0.026783
1.417374 -2.510502 0.372809
1.552697 -2.648919 1.062712
1.269855 -2.475604 0.569005
1.248943 -2.432395 0.212378
1.380513 -2.569792 0.686259
1.294282 -2.528664 0.596549
1.290677 -2.401180 0.226738
1.400072 -2.499595 0.577958
1.315235 -2.583477 1.017102
1.454795 -2.611010 0.775016
1.542049 -2.654174 0.869726
1.202619 -2.381901 0.222921
1.333802 -2.654099 1.099559
1.263954 -2.388468 0.019941
1.422422 -2.464454 0.159421
1.336170 -2.422533 0.090727
1.178728 -2.347533 -0.049747
1.361443 -2.596174 1.027182
1.439372 -2.515177 0.568037
1.384018 -2.419411 0.225871
1.295066 -2.477387 0.567238
1.197532 -2.299548 -0.139188
1.139728 -2.310606 -0.186327
1.253688 -2.317395 -0.106241
1.214985 -2.348507 -0.129579
1.402628 -2.605894 1.035287
1.322804 -2.346915 0.010591
1.313794 -2.331146 -0.079272
1.289951 -2.397244 0.228098
1.423859 -2.537187 0.447972
1.273115 -2.367561 -0.072642
1.258824 -2.344397 0.003568
1.349381 -2.405415 -0.019887
1.194717 -2.328802 -0.011359
1.327506 -2.480236 0.366409
1.249278 -2.441176 0.289678
1.123567 -2.307306 -0.022227
1.450750 -2.610433 1.030405
1.187039 -2.452252 0.560543
1.165137 -2.407166 0.211934
1.289661 -2.541451 0.673857
1.315274 -2.478202 0.564479
1.206865 -2.375916 0.223288
1.210520 -2.510326 0.589058
1.233423 -2.563993 1.000607
1.362921 -2.581635 0.759617
1.446135 -2.620772 0.849361
1.126886 -2.366605 0.222376
1.333573 -2.435230 0.156003
1.184203 -2.369251 0.022434
1.254391 -2.401290 0.090235
1.274558 -2.567677 1.004762
1.353563 -2.492784 0.553562
1.104046 -2.335308 -0.045317
1.301233 -2.398095 0.218378
1.214272 -2.457001 0.556741
1.315791 -2.582385 1.011827
1.179000 -2.305151 -0.103820
1.065004 -2.293427 -0.178864
1.135217 -2.326340 -0.124067
1.249139 -2.338605 0.008978
1.235062 -2.313900 -0.079807
1.210161 -2.375940 0.223597
1.329942 -2.500917 0.437617
1.194362 -2.348355 -0.069160
1.180059 -2.324157 0.004057
1.262555 -2.377240 -0.019320
1.119996 -2.313553 -0.008914
1.246761 -2.463925 0.361879
1.168473 -2.417889 0.286199
1.055952 -2.304014 -0.018888
1.362935 -2.588922 1.005930
1.112270 -2.435853 0.552997
1.233462 -2.455808 0.551992
1.203799 -2.513083 0.661431
1.130106 -2.357605 0.219760
1.154608 -2.544509 0.985096
1.090448 -2.395881 0.212355
1.360294 -2.597338 0.832888
1.122642 -2.478020 0.579674
1.274036 -2.551261 0.745209
1.253825 -2.417952 0.153469
1.050094 -2.344321 0.220879
1.176636 -2.383036 0.090704
1.107469 -2.352021 0.024898
1.192745 -2.547190 0.986265
1.264686 -2.461415 0.537154
1.221445 -2.376777 0.211870
1.031327 -2.320084 -0.039879
1.135457 -2.434620 0.547245
1.227878 -2.549895 0.987427
1.172390 -2.320325 0.006439
1.058421 -2.302157 -0.118558
1.161359 -2.300631 -0.079390
1.134410 -2.358606 0.218051
1.248132 -2.478585 0.430121
1.119633 -2.332116 -0.066717
1.110392 -2.315841 0.003428
1.184797 -2.357989 -0.019851
1.164924 -2.437627 0.356415
1.043199 -2.289325 -0.007405
1.093789 -2.407592 0.285606
1.275072 -2.561421 0.980490
1.036486 -2.416477 0.545472
1.155684 -2.437412 0.541460
1.071660 -2.509029 0.964707
1.274413 -2.568920 0.816445
1.061434 -2.350254 0.218122
1.122985 -2.490724 0.652941
1.192183 -2.525851 0.731737
1.011640 -2.370634 0.211884
1.044874 -2.459669 0.573150
1.174010 -2.393686 0.150978
0.978329 -2.326005 0.219330
1.102939 -2.370751 0.090116
1.111867 -2.519692 0.965806
1.033718 -2.333775 0.027353
1.181837 -2.434029 0.522694
1.145705 -2.360438 0.205311
1.059661 -2.414227 0.537720
0.958576 -2.300862 -0.035417
1.148065 -2.529397 0.967912
1.100658 -2.305012 0.003856
1.167286 -2.452250 0.421644
0.985649 -2.280941 -0.114088
1.063719 -2.348258 0.214436
1.112067 -2.342714 -0.019430
1.044860 -2.310889 -0.064244
1.033586 -2.290599 0.002936
1.088138 -2.417308 0.351888
1.021049 -2.392278 0.284034
1.192250 -2.538921 0.957995
0.966722 -2.401069 0.538891
1.199648 -2.555467 0.804858
1.076851 -2.412021 0.528974
0.998868 -2.492550 0.952144
0.984577 -2.320968 0.214661
1.046196 -2.471343 0.644411
1.114385 -2.506448 0.721206
0.938884 -2.352355 0.212336
0.969094 -2.440323 0.567620
1.097237 -2.373407 0.148446
1.030156 -2.350474 0.090571
1.038078 -2.503202 0.951242
0.959923 -2.310540 0.029838
1.109155 -2.425606 0.512068
1.070927 -2.340103 0.198771
0.991971 -2.406804 0.531072
1.067178 -2.499897 0.945458
1.093501 -2.433884 0.415084
0.992949 -2.329913 0.209870
1.039316 -2.324443 -0.019992
0.973092 -2.290637 -0.062793
1.017394 -2.402956 0.348294
0.947229 -2.367967 0.280523
1.116734 -2.523053 0.788423
1.111422 -2.515420 0.935496
0.896933 -2.382683 0.533326
0.929071 -2.476057 0.939564
1.006104 -2.397600 0.519380
0.971386 -2.449959 0.635882
1.039613 -2.490051 0.712639
0.864043 -2.324098 0.211860
0.895337 -2.422973 0.562064
1.029537 -2.363058 0.145809
0.964249 -2.481709 0.934708
0.955319 -2.323220 0.090079
0.895250 -2.302234 0.032181
1.034352 -2.404205 0.500531
1.001187 -2.324744 0.193176
0.918121 -2.380420 0.521572
0.996425 -2.487395 0.930846
1.019695 -2.412530 0.408541
0.967536 -2.303173 -0.020542
0.946617 -2.384617 0.344723
1.042933 -2.504618 0.776858
1.033570 -2.489919 0.913993
0.878486 -2.352650 0.279926
0.859243 -2.455569 0.926007
0.830194 -2.369273 0.526711
0.940424 -2.391165 0.511709
0.967817 -2.471621 0.702070
0.899633 -2.434579 0.629297
0.957746 -2.341758 0.143257
0.824560 -2.404617 0.557498
0.893435 -2.462221 0.920144
0.891660 -2.316886 0.090399
0.961550 -2.382799 0.488982
0.848304 -2.358013 0.512025
0.951941 -2.398143 0.402924
0.926666 -2.473898 0.916234
0.877850 -2.367271 0.341133
0.972118 -2.485160 0.764284
0.792446 -2.439093 0.915407
0.809656 -2.328326 0.277387
0.958755 -2.468433 0.895449
0.868573 -2.364769 0.501191
0.899053 -2.457204 0.694458
0.830863 -2.418184 0.622701
0.888958 -2.321450 0.141682
0.757832 -2.392246 0.553868
0.825624 -2.443728 0.906556
0.891788 -2.365381 0.477391
0.854795 -2.447398 0.897711
0.885213 -2.385768 0.398287
0.901258 -2.460715 0.751739
0.811038 -2.345908 0.336558
0.727628 -2.420602 0.903807
0.886947 -2.447935 0.876882
0.829211 -2.433790 0.684906
0.763041 -2.396792 0.616131
0.760878 -2.432238 0.894905
0.817393 -2.363396 0.391715
0.788029 -2.432910 0.884085
0.608579 -2.155877 -0.119891
0.834489 -2.446282 0.743109
0.818150 -2.429450 0.861286
0.762381 -2.412369 0.676324
0.697240 -2.377393 0.609535
0.696057 -2.412751 0.882303
0.720166 -2.407419 0.867531
0.601984 -2.159222 -0.103602
0.550809 -2.137597 -0.114522
0.770693 -2.429822 0.733475
0.698596 -2.395941 0.668693
0.751386 -2.413961 0.845658
0.537889 -2.159810 0.008379
0.706883 -2.411375 0.723851
0.545265 -2.145919 -0.100279
0.590382 -2.160607 -0.088301
0.496170 -2.132290 -0.110261
0.538294 -2.164896 0.004621
0.485268 -2.158463 0.011602
0.580743 -2.157882 -0.082978
0.489558 -2.133607 -0.097971
0.533643 -2.145289 -0.086970
0.441416 -2.115989 -0.105929
0.533659 -2.165033 0.000897
0.436707 -2.136979 -0.116058
0.483582 -2.153555 0.005916
0.483394 -2.177151 0.196756
0.431553 -2.147124 0.013893
0.425604 -2.191886 0.215603
0.402870 -2.153389 0.002959
0.529925 -2.154063 -0.013753
0.526050 -2.147532 -0.083695
0.492876 -2.196028 0.181846
0.435819 -2.119289 -0.094663
0.389731 -2.107666 -0.101669
0.478953 -2.134963 -0.085686
0.477883 -2.146688 0.000239
0.433005 -2.137460 -0.079778
0.430862 -2.142200 0.007198
0.382961 -2.121687 -0.110743
0.432838 -2.183752 0.196904
0.377799 -2.131803 0.017207
0.371825 -2.175519 0.215921
0.500082 -2.184813 0.154157
0.407095 -2.155835 0.048193
0.477298 -2.150679 -0.016529
0.349119 -2.138075 0.006269
0.471342 -2.135192 -0.084403
0.437105 -2.178649 0.178176
0.384138 -2.110953 -0.092409
0.425206 -2.119632 -0.084377
0.425224 -2.140325 -0.000519
0.425370 -2.142944 -0.047538
0.380289 -2.118901 -0.105451
0.381332 -2.130121 -0.077533
0.355005 -2.245991 0.492484
0.422415 -2.134613 -0.092470
0.376123 -2.126872 0.007510
0.380140 -2.175372 0.196158
0.326101 -2.122461 0.019464
0.406456 -2.169306 0.090352
0.319058 -2.160143 0.215223
0.446374 -2.174418 0.150427
0.319236 -2.178189 0.220093
0.370128 -2.231687 0.465801
0.355467 -2.153482 0.049399
0.423562 -2.136322 -0.018233
0.418626 -2.122839 -0.085124
0.384357 -2.165264 0.176461
0.373508 -2.109282 -0.084115
0.421758 -2.151305 -0.024328
0.375759 -2.142569 -0.047354
0.301114 -2.219558 0.486864
0.371499 -2.126989 -0.000230
0.412765 -2.130911 -0.086158
0.369700 -2.122283 -0.091192
0.383326 -2.225419 0.441050
0.325486 -2.123517 0.008717
0.333482 -2.192529 0.269205
0.328390 -2.161981 0.194438
0.354783 -2.162942 0.090581
0.268392 -2.155772 0.216432
0.317326 -2.214248 0.460110
0.393731 -2.170025 0.146646
0.267552 -2.171837 0.222319
0.302699 -2.137154 0.051701
0.369834 -2.121976 -0.019942
0.366886 -2.108485 -0.085840
0.332697 -2.159872 0.173681
0.369062 -2.140957 -0.025070
0.248341 -2.205152 0.484147
0.320782 -2.115620 -0.000971
0.362104 -2.124548 -0.086933
0.331608 -2.216990 0.437288
0.280762 -2.182168 0.269460
0.276664 -2.150608 0.193697
0.356049 -2.167308 0.123796
0.303050 -2.150586 0.090846
0.217639 -2.142401 0.216700
0.265589 -2.203834 0.457358
0.338892 -2.145660 0.143004
0.346825 -2.210627 0.402532
0.214879 -2.165506 0.224542
0.211658 -2.221921 0.526146
0.280985 -2.149497 0.171929
0.286085 -2.199567 0.314562
0.198572 -2.192720 0.481400
0.278865 -2.204567 0.431552
0.225956 -2.141234 0.192932
0.229046 -2.172811 0.270697
0.305331 -2.156924 0.122039
0.228916 -2.242207 0.576204
0.213778 -2.185413 0.452658
0.289249 -2.142252 0.139194
0.293083 -2.197212 0.395803
0.293249 -2.200864 0.350777
0.158927 -2.212559 0.527380
0.230232 -2.135111 0.169196
0.237519 -2.207174 0.315664
0.147794 -2.178310 0.478664
0.225033 -2.182158 0.424882
0.176107 -2.224808 0.573493
0.163064 -2.177008 0.449876
0.242505 -2.189460 0.348017
0.240307 -2.180804 0.390085
0.197924 -2.249118 0.767494
0.106172 -2.200198 0.527628
0.183529 -2.168799 0.311104
0.184324 -2.236128 0.616625
0.174321 -2.173757 0.422097
0.214214 -2.250740 0.732678
0.124354 -2.213414 0.571728
0.198663 -2.262358 0.657641
0.192840 -2.186062 0.346192
0.188592 -2.170397 0.384315
0.133617 -2.230727 0.615810
0.161487 -2.241297 0.724897
0.146789 -2.238920 0.650954
0.082792 -2.212306 0.611082
0.108658 -2.220850 0.715187
0.097024 -2.227485 0.646169
