# .PCD v0.7 - Point Cloud Data file format
VERSION 0.7
FIELDS x y z
SIZE 4 4 4
TYPE F F F
COUNT 1 1 1
WIDTH 684
HEIGHT 1
VIEWPOINT 0 0 0 1
POINTS 684
DATA ascii
2.514800 -1.046186 2.741584
2.472050 -1.093679 2.721366
2.503187 -1.188712 2.731318
2.488184 -1.132636 2.732091
2.428303 -1.139183 2.701171
2.446451 -1.231137 2.704175
2.427443 -1.171991 2.697970
2.370565 -1.177533 2.666055
2.373724 -1.264391 2.660132
2.374714 -1.214435 2.671822
2.470582 -1.357780 2.719564
2.800615 -2.562345 0.422233
2.724955 -2.561788 0.363445
2.655060 -2.551402 0.414703
2.649393 -2.579946 0.943550
2.727108 -2.560447 0.531995
2.590395 -2.553852 0.356872
2.712344 -2.555070 0.399066
2.568559 -2.580606 1.002776
2.530511 -2.550447 0.408063
2.519825 -2.575813 0.923944
2.594535 -2.552457 0.521404
2.587730 -2.559768 1.032381
2.456825 -2.539926 0.350338
2.575775 -2.543101 0.388511
2.847903 -2.563179 0.348777
2.708794 -2.565309 0.433566
2.479057 -2.596977 1.517937
2.433958 -2.562419 0.976272
2.553909 -2.573776 1.033393
2.400960 -2.541511 0.401492
2.646641 -2.560392 0.628759
2.627288 -2.539305 0.229932
2.420153 -2.588236 1.541161
2.390253 -2.565684 0.903381
2.468966 -2.545465 0.510796
2.474148 -2.561597 1.010687
2.344271 -2.540004 0.346667
2.461222 -2.545144 0.381819
2.704313 -2.547253 0.340230
2.438668 -2.526497 0.120992
2.707160 -2.557394 0.452166
2.571205 -2.548318 0.420031
2.712686 -2.568351 0.741089
2.343442 -2.575615 1.478461
2.583064 -2.583685 1.140796
2.310358 -2.548268 0.953720
2.434330 -2.571625 1.012742
2.276387 -2.527580 0.394942
2.534078 -2.566380 0.619028
2.505729 -2.536419 0.227277
2.296529 -2.571883 1.503622
2.513370 -2.565751 1.044088
2.268677 -2.556586 0.885794
2.342384 -2.531498 0.501238
2.351541 -2.547417 0.985119
2.581733 -2.542321 0.333575
2.343655 -2.538184 0.373195
2.362578 -2.574237 1.558931
2.221692 -2.524091 0.341126
2.588082 -2.560297 0.725457
2.581591 -2.551374 0.437524
2.314097 -2.512667 0.121428
2.450638 -2.542327 0.408394
2.362561 -2.584587 1.594871
2.459460 -2.574492 1.115185
2.567534 -2.563775 1.065490
2.164351 -2.482654 -0.005457
2.226856 -2.571331 1.448833
2.201771 -2.544143 0.935069
2.310734 -2.558478 0.990172
2.436657 -2.589627 1.621161
2.403474 -2.547365 0.604495
2.160828 -2.518652 0.389342
2.383153 -2.525537 0.223676
2.184914 -2.562575 1.471011
2.390771 -2.553541 1.015495
2.114571 -2.488968 0.018657
2.147092 -2.540482 0.866255
2.503524 -2.581407 1.225559
2.242962 -2.545261 0.963446
2.226812 -2.522521 0.491625
2.461154 -2.535405 0.327932
2.248964 -2.564890 1.522314
2.221068 -2.520245 0.364655
2.461010 -2.542360 0.422893
2.476503 -2.562258 0.712740
2.115141 -2.521166 0.336466
2.341081 -2.542346 0.398697
2.172477 -2.472862 0.120072
2.240943 -2.569237 1.557312
2.368723 -2.595492 1.707315
2.349859 -2.572338 1.094501
2.447946 -2.556540 1.034848
2.115263 -2.565076 1.421207
2.087163 -2.527023 0.914517
2.204147 -2.556363 0.972495
2.314039 -2.573213 1.576596
2.295893 -2.545358 0.593807
2.268578 -2.516658 0.221048
2.082303 -2.558314 1.443348
2.036254 -2.495741 0.382858
2.278192 -2.548354 0.989839
2.401061 -2.581464 1.624832
2.236960 -2.508210 0.072186
2.389901 -2.573210 1.199909
2.033515 -2.528405 0.849674
2.341563 -2.522478 0.320327
2.126361 -2.528105 0.938888
2.121257 -2.521574 0.485941
2.141353 -2.557585 1.489673
2.357904 -2.551213 0.697120
2.119513 -2.520305 0.358953
2.346448 -2.537362 0.410230
2.321997 -2.508338 0.103460
2.222494 -2.526375 0.387123
2.079947 -2.481997 0.121293
2.255091 -2.584144 1.670700
2.137341 -2.568978 1.530618
2.232247 -2.557163 1.068919
2.336366 -2.553343 1.008166
1.983570 -2.517923 0.896890
2.005671 -2.556840 1.394592
2.085542 -2.536233 0.949962
2.202422 -2.561857 1.537977
2.046301 -2.485177 0.034376
2.184314 -2.537366 0.583169
2.142965 -2.488793 0.216565
1.980677 -2.548068 1.415721
2.170599 -2.541202 0.967186
1.937718 -2.496819 0.379156
2.249395 -2.508005 0.059660
2.284457 -2.570050 1.580214
2.277278 -2.561004 1.172285
2.233982 -2.516557 0.314655
2.029778 -2.528002 0.922177
1.908908 -2.495305 0.827255
2.241292 -2.535178 0.681529
2.039739 -2.550294 1.458017
2.002648 -2.495617 0.475446
2.229867 -2.523371 0.396628
2.110920 -2.514418 0.377511
2.140460 -2.566782 1.631126
2.028725 -2.556694 1.499013
2.130650 -2.555046 1.051222
2.215761 -2.533130 0.976611
1.863712 -2.471237 0.006539
1.875965 -2.498822 0.877338
1.904074 -2.550635 1.370944
2.095817 -2.552512 1.500337
1.975948 -2.522135 0.931373
2.071718 -2.521379 0.571585
1.886062 -2.542848 1.391046
2.048419 -2.492902 0.214816
2.057991 -2.522035 0.940621
2.171854 -2.557665 1.537595
2.174667 -2.556856 1.151592
2.116367 -2.493656 0.308111
2.136689 -2.526150 0.667871
1.798906 -2.455567 0.028835
1.910150 -2.493850 0.894737
1.945131 -2.548061 1.432315
2.126301 -2.518384 0.384944
1.818356 -2.500274 0.817510
1.904083 -2.490667 0.468774
1.801410 -2.482450 0.323669
2.024035 -2.540913 1.029612
1.925108 -2.544434 1.469397
2.112178 -2.527973 0.952929
1.788379 -2.498762 0.864614
1.764146 -2.458448 0.010929
1.992206 -2.541207 1.465703
1.862326 -2.494023 0.908882
1.799479 -2.537416 1.344350
1.958101 -2.496396 0.559060
1.841181 -2.463526 0.036124
1.785439 -2.525603 1.361464
1.947387 -2.500876 0.914066
2.029228 -2.479340 0.058438
2.069038 -2.541681 1.125973
2.071256 -2.553339 1.501901
1.740585 -2.477996 0.370888
2.018800 -2.490731 0.302403
2.045097 -2.527144 0.658123
1.851515 -2.540820 1.404642
1.802654 -2.456219 -0.104715
1.823578 -2.497776 0.880978
1.711367 -2.455745 0.032112
1.812789 -2.487514 0.339071
1.922433 -2.529799 1.009974
2.016601 -2.526832 0.931206
1.717870 -2.488544 0.321897
1.829501 -2.539227 1.445718
1.790282 -2.469465 0.124246
1.867676 -2.468878 -0.021514
1.671589 -2.449642 0.014276
1.906608 -2.546985 1.441922
1.854907 -2.467154 -0.098466
1.781764 -2.505996 0.901059
1.686808 -2.504368 1.331903
1.691865 -2.512191 1.314840
1.754633 -2.463683 0.037390
1.854797 -2.495770 0.895370
1.968417 -2.529542 1.104328
1.972654 -2.546035 1.467222
1.646182 -2.448773 -0.183638
1.920980 -2.472400 -0.057213
1.645005 -2.464096 0.367275
1.822703 -2.467788 0.064627
1.924450 -2.489122 0.639682
1.914056 -2.476344 -0.064215
1.742883 -2.509506 1.365159
1.710099 -2.448444 -0.099383
1.618812 -2.445941 0.035467
1.713916 -2.470792 0.456474
1.724228 -2.484593 0.334362
1.703251 -2.451052 -0.141377
1.815805 -2.504671 0.986435
1.635213 -2.492239 0.797139
1.902991 -2.498654 0.900690
1.628300 -2.480649 0.319229
1.696704 -2.457624 0.124605
1.769104 -2.455078 -0.019139
1.615200 -2.490673 0.840212
1.812005 -2.538724 1.411251
1.584033 -2.442832 0.017597
1.760340 -2.456354 -0.096120
1.754438 -2.456097 -0.124101
1.765708 -2.476275 0.209749
1.663073 -2.454858 0.038726
1.773224 -2.501698 0.881580
1.885813 -2.534445 1.089538
1.837089 -2.463639 0.056079
1.877064 -2.540753 1.434527
1.555629 -2.438038 -0.175283
1.821405 -2.457578 -0.057841
1.846886 -2.501132 0.632839
1.735144 -2.463922 0.062912
1.550645 -2.435030 -0.177249
1.563473 -2.469192 0.365506
1.817477 -2.463526 -0.063863
1.660273 -2.508333 1.344421
1.815182 -2.469905 0.080108
1.616520 -2.432678 -0.093999
1.728635 -2.486619 0.344801
1.532259 -2.439130 0.038786
1.632651 -2.472667 0.327716
1.630360 -2.471855 0.451728
1.735214 -2.509621 0.975649
1.818416 -2.501561 0.883919
1.610689 -2.438287 -0.136013
1.607804 -2.435846 -0.182990
1.547638 -2.486223 0.786455
1.540723 -2.470757 0.316569
1.613164 -2.458777 0.125859
1.679541 -2.447256 -0.017823
1.531602 -2.483641 0.828522
1.700364 -2.498376 1.365819
1.682324 -2.471494 0.534029
1.503488 -2.442012 0.020861
1.668788 -2.447554 -0.093792
1.679136 -2.471398 0.208039
1.665875 -2.448303 -0.120788
1.599577 -2.486891 0.872736
1.575506 -2.445022 0.039057
1.747524 -2.457790 0.055374
1.782461 -2.529476 1.400865
1.748063 -2.477999 0.289253
1.731848 -2.451738 -0.058551
1.644558 -2.451078 0.062255
1.466053 -2.422306 -0.166905
1.464078 -2.423282 -0.169905
1.465262 -2.426626 -0.238929
1.726910 -2.455701 -0.063558
1.740998 -2.483511 0.342243
1.478902 -2.463302 0.363808
1.722594 -2.457034 0.076447
1.567807 -2.486598 0.838832
1.533968 -2.429884 -0.089728
1.629024 -2.461688 0.335243
1.548065 -2.464754 0.323023
1.547785 -2.469934 0.447993
1.450698 -2.435326 0.043068
1.525115 -2.428507 -0.131691
1.527256 -2.435067 -0.177736
1.458141 -2.463864 0.313873
1.527582 -2.449935 0.126175
1.465058 -2.485244 0.779722
1.593951 -2.438447 -0.015514
1.450993 -2.477624 0.817814
1.628765 -2.513254 1.351946
1.602748 -2.475554 0.529245
1.414880 -2.422214 0.023265
1.447947 -2.496965 1.279709
1.582217 -2.439746 -0.092485
1.591534 -2.460537 0.206366
1.579301 -2.440518 -0.117481
1.517974 -2.484879 0.863001
1.492918 -2.437197 0.040362
1.598032 -2.486537 0.846196
1.660929 -2.449950 0.054673
1.680829 -2.504177 1.361305
1.429057 -2.492810 1.261795
1.663651 -2.475160 0.610522
1.664477 -2.476106 0.285515
1.643259 -2.440918 -0.059223
1.561992 -2.448226 0.060529
1.383471 -2.411566 -0.159568
1.634303 -2.438910 -0.062184
1.381508 -2.414543 -0.162579
1.494029 -2.494997 1.300018
1.382688 -2.416903 -0.230597
1.638012 -2.451165 0.072735
1.649407 -2.471575 0.332586
1.483194 -2.475549 0.823167
1.392326 -2.453424 0.361152
1.446367 -2.413118 -0.085347
1.555466 -2.470762 0.330420
1.560972 -2.490502 0.945288
1.468489 -2.462855 0.319289
1.634212 -2.477362 0.841598
1.466198 -2.466027 0.444278
1.439528 -2.415751 -0.126340
1.370132 -2.430524 0.046363
1.437653 -2.415334 -0.171332
1.370521 -2.442989 0.310287
1.443992 -2.440103 0.126502
1.380456 -2.475257 0.770060
1.367364 -2.461599 0.804186
1.512387 -2.435631 -0.014243
1.520142 -2.468615 0.522542
1.368302 -2.485844 1.261037
1.494623 -2.424962 -0.090126
1.340322 -2.423403 0.026504
1.508954 -2.455675 0.204652
1.489707 -2.423750 -0.114103
1.518426 -2.483497 0.832461
1.435365 -2.477872 0.852307
1.412339 -2.430378 0.041661
1.575336 -2.440109 0.052988
1.588055 -2.479198 0.603728
1.579865 -2.466223 0.281827
1.556670 -2.429099 -0.059892
1.348444 -2.488723 1.247084
1.480400 -2.439378 0.058836
1.307913 -2.409805 -0.153307
1.417397 -2.490868 1.281288
1.548734 -2.431089 -0.062879
1.565814 -2.463639 0.323884
1.305937 -2.410791 -0.155306
1.554439 -2.445300 0.069023
1.306120 -2.412169 -0.222315
1.402573 -2.465528 0.810485
1.312734 -2.445547 0.359462
1.368799 -2.409334 -0.081074
1.485354 -2.490476 0.934524
1.472873 -2.461846 0.323729
1.382873 -2.444968 0.314670
1.559632 -2.484311 0.827785
1.383595 -2.455120 0.439608
1.362961 -2.411959 -0.123070
1.291552 -2.422724 0.049670
1.362101 -2.415564 -0.166089
1.294931 -2.438109 0.308566
1.364414 -2.434276 0.127793
1.297848 -2.463274 0.760404
1.459507 -2.489869 1.298608
1.426777 -2.418839 -0.011877
1.291758 -2.457608 0.795458
1.538274 -2.493085 1.017799
1.443541 -2.466687 0.517793
1.296674 -2.486766 1.248266
1.416046 -2.419162 -0.087845
1.264747 -2.418598 0.029783
1.430366 -2.450810 0.202926
1.434810 -2.470447 0.815798
1.410130 -2.416964 -0.110813
1.357758 -2.473871 0.842579
1.496764 -2.438265 0.052239
1.333770 -2.424549 0.041949
1.509445 -2.475240 0.595989
1.497272 -2.458331 0.277123
1.476092 -2.422272 -0.060607
1.399829 -2.432533 0.057129
1.268827 -2.482650 1.233382
1.471156 -2.427264 -0.062620
1.340770 -2.485753 1.263563
1.487234 -2.460707 0.316140
1.232340 -2.403047 -0.147015
1.475866 -2.441428 0.065285
1.326970 -2.461510 0.798752
1.232373 -2.408029 -0.149046
1.227532 -2.399444 -0.213978
1.403722 -2.478442 0.920849
1.394281 -2.454935 0.318016
1.297235 -2.410540 -0.076849
1.234142 -2.435664 0.356781
1.478026 -2.476258 0.811079
1.310296 -2.445065 0.310903
1.305987 -2.446218 0.435910
1.287386 -2.406179 -0.118791
1.286530 -2.409788 -0.161810
1.211964 -2.409930 0.053010
1.220347 -2.433233 0.306841
1.284820 -2.422445 0.128120
1.381891 -2.485727 1.277874
1.220143 -2.453617 0.786718
1.462647 -2.490032 1.004047
1.353219 -2.420014 -0.010652
1.220259 -2.459321 0.754682
1.369942 -2.465758 0.513029
1.222025 -2.475668 1.231577
1.340467 -2.413350 -0.086572
1.347753 -2.434960 0.201278
1.355202 -2.460404 0.800106
1.189173 -2.411798 0.033074
1.335568 -2.415161 -0.108568
1.413154 -2.422439 0.051585
1.278136 -2.461872 0.831906
1.430818 -2.465280 0.587286
1.258184 -2.416728 0.043240
1.436002 -2.491629 1.286118
1.419669 -2.451442 0.273399
1.395512 -2.412450 -0.061304
1.324252 -2.427690 0.056395
1.267136 -2.479642 1.245835
1.391574 -2.418450 -0.062326
1.407649 -2.452775 0.307428
1.191204 -2.474581 1.219684
1.393272 -2.427572 0.061617
1.252359 -2.454499 0.787033
1.162790 -2.405279 -0.140800
1.159005 -2.405681 -0.207790
1.322090 -2.463416 0.907192
1.315689 -2.445022 0.311320
1.222659 -2.403748 -0.073568
1.392411 -2.458194 0.791443
1.158555 -2.427789 0.355077
1.231703 -2.433172 0.306227
1.229392 -2.438318 0.432203
1.213820 -2.401389 -0.115525
1.210952 -2.401025 -0.156514
1.138389 -2.403117 0.055294
1.148754 -2.428363 0.306105
1.209223 -2.412619 0.129422
1.380994 -2.471966 0.986399
1.309265 -2.482605 1.259119
1.147517 -2.443625 0.777017
1.277638 -2.413199 -0.009373
1.292327 -2.454827 0.506336
1.141644 -2.444343 0.745031
1.269909 -2.414531 -0.085357
1.275172 -2.433100 0.200517
1.281595 -2.455382 0.787366
1.265007 -2.415344 -0.107346
1.339592 -2.422593 0.050810
1.118597 -2.407991 0.036329
1.358216 -2.464329 0.580513
1.197499 -2.441866 0.819285
1.184606 -2.409898 0.043518
1.341058 -2.439562 0.269708
1.358391 -2.485469 1.262390
1.325959 -2.415598 -0.063108
1.248668 -2.418844 0.054684
1.195502 -2.473543 1.229100
1.318008 -2.415617 -0.063083
1.328043 -2.438858 0.299752
1.321715 -2.428696 0.057830
1.178734 -2.443493 0.775335
1.117591 -2.472545 1.209936
1.079152 -2.373568 -0.132329
1.252473 -2.463414 0.898409
1.077367 -2.375980 -0.198338
1.239098 -2.435118 0.305618
1.315814 -2.451154 0.775718
1.153113 -2.405949 -0.070357
1.160104 -2.426287 0.303498
1.084949 -2.416924 0.354385
1.154788 -2.428419 0.428502
1.143398 -2.403238 -0.152310
1.307360 -2.464932 0.973664
1.077155 -2.419491 0.304394
1.073833 -2.409295 0.058467
1.235644 -2.476482 1.239385
1.139646 -2.410783 0.130657
1.076894 -2.434644 0.768302
1.205050 -2.406390 -0.007105
1.215713 -2.442907 0.500646
1.066037 -2.433391 0.738345
1.196343 -2.408724 -0.084091
1.201570 -2.424248 0.199800
1.203976 -2.440359 0.772697
1.281578 -2.449377 0.571833
1.189405 -2.401562 -0.104027
1.266005 -2.415744 0.049076
1.053038 -2.411166 0.038523
1.130910 -2.448911 0.815454
1.263441 -2.424677 0.265031
1.115034 -2.407071 0.044758
1.281775 -2.476318 1.238675
1.250382 -2.406774 -0.063824
1.175077 -2.409006 0.053974
1.244417 -2.406797 -0.062806
1.256474 -2.437937 0.292976
1.246131 -2.418834 0.054119
1.109127 -2.439509 0.766581
1.178845 -2.453401 0.886698
1.010589 -2.369796 -0.127081
1.166496 -2.425212 0.299904
1.009616 -2.371772 -0.130091
1.006780 -2.365237 -0.191041
1.243224 -2.448128 0.761957
1.075490 -2.383182 -0.065970
1.088515 -2.418399 0.299774
1.085184 -2.422523 0.425760
1.014373 -2.413056 0.353637
1.235714 -2.454893 0.959940
1.063772 -2.376494 -0.146892
1.008556 -2.412624 0.303659
0.995209 -2.383513 0.061883
1.070063 -2.405951 0.131908
1.009279 -2.429678 0.761551
1.136489 -2.406567 -0.005891
1.145096 -2.434989 0.495913
1.127951 -2.409392 0.198119
1.127786 -2.407899 -0.083872
1.210972 -2.445432 0.565071
1.136379 -2.440364 0.762908
0.997445 -2.432446 0.733571
1.194422 -2.409904 0.048329
1.122852 -2.403744 -0.102832
0.975387 -2.380385 0.041967
1.195863 -2.426798 0.263226
1.058286 -2.436926 0.805757
1.053481 -2.415220 0.044904
1.208161 -2.469185 1.216940
1.178804 -2.399945 -0.064565
1.108511 -2.409148 0.052181
1.172840 -2.399969 -0.063547
1.182885 -2.429027 0.286252
1.172529 -2.405983 0.051419
1.038500 -2.426509 0.754883
1.109213 -2.445404 0.876962
1.095903 -2.417315 0.295171
1.170621 -2.440112 0.748224
1.018909 -2.407511 0.296061
1.005907 -2.374391 -0.062695
1.167081 -2.449878 0.949178
1.012582 -2.410630 0.422062
0.948803 -2.415189 0.353834
1.000084 -2.376038 -0.104687
0.996198 -2.370715 -0.142642
0.943972 -2.411752 0.302871
0.942654 -2.421716 0.754814
0.994433 -2.382130 0.132294
0.928629 -2.378705 0.065128
1.069908 -2.403744 -0.004667
1.072489 -2.424071 0.490203
1.060368 -2.406534 0.197346
1.139352 -2.435496 0.558346
1.045122 -2.370142 -0.080388
1.065762 -2.429356 0.750192
1.125836 -2.405061 0.047566
1.045218 -2.376976 -0.099429
0.928834 -2.425507 0.728834
1.126253 -2.417912 0.259489
0.908804 -2.373571 0.044224
0.989667 -2.429963 0.799015
0.973832 -2.381428 0.046363
1.137553 -2.466087 1.199172
1.115267 -2.407092 -0.066413
1.041931 -2.405303 0.051410
1.107292 -2.403131 -0.064366
1.109280 -2.414114 0.278563
1.106978 -2.409116 0.048600
0.971893 -2.421530 0.746123
1.040582 -2.437418 0.868221
1.026315 -2.409421 0.290434
1.100021 -2.433105 0.735479
0.957346 -2.414633 0.295210
1.096439 -2.436848 0.935468
0.940315 -2.367602 -0.058446
0.944979 -2.402739 0.419323
0.873166 -2.387327 0.351251
0.871341 -2.387888 0.300253
0.878036 -2.415754 0.748056
0.927841 -2.374291 0.132552
0.990253 -2.368957 -0.003211
1.006884 -2.421168 0.487422
1.073742 -2.432560 0.552562
0.998805 -2.413675 0.197492
0.982572 -2.373311 -0.080213
0.995152 -2.417354 0.737482
1.067305 -2.420197 0.046654
0.978655 -2.373167 -0.098200
1.054641 -2.404036 0.255788
0.860226 -2.417582 0.725100
0.908248 -2.374597 0.046611
0.923053 -2.425009 0.793253
1.063934 -2.451962 1.176476
1.039651 -2.384284 -0.067050
0.966308 -2.379478 0.049799
1.031674 -2.380331 -0.064002
1.039687 -2.404207 0.271832
1.043420 -2.411240 0.044779
0.907272 -2.415570 0.739360
0.973956 -2.430433 0.859467
0.961722 -2.404520 0.285661
1.032431 -2.429098 0.722706
1.033815 -2.437856 0.927649
0.882700 -2.383751 0.289634
0.875357 -2.385849 0.415644
0.809385 -2.392775 0.737417
0.807577 -2.381469 0.351494
0.807740 -2.381023 0.299496
0.865267 -2.374463 0.134745
0.927696 -2.371132 -0.002032
0.939265 -2.409249 0.481701
1.004110 -2.417622 0.544859
0.932546 -2.416384 0.729678
0.923161 -2.383830 0.194905
0.983622 -2.374394 0.045178
0.994078 -2.412162 0.254921
0.797640 -2.422672 0.724261
0.858443 -2.422064 0.788469
0.995330 -2.446875 1.158710
0.972067 -2.374459 -0.067788
0.900728 -2.372639 0.049041
0.962069 -2.364521 -0.063698
0.977123 -2.407304 0.267001
0.962753 -2.370422 0.042264
0.835630 -2.388566 0.724749
0.910336 -2.428471 0.853670
0.892100 -2.385636 0.280988
0.970178 -2.432864 0.918868
0.963822 -2.418101 0.709975
0.819102 -2.376880 0.287872
0.812760 -2.382972 0.414853
0.750772 -2.393835 0.733590
0.869620 -2.387341 0.476045
0.938484 -2.407696 0.539113
0.856547 -2.369984 0.194191
0.871958 -2.421428 0.723828
0.920042 -2.370552 0.044391
0.919432 -2.382287 0.249322
0.795825 -2.419127 0.784676
0.930724 -2.445812 1.143906
0.722986 -2.386706 0.712720
0.903496 -2.380409 0.259380
0.776024 -2.388613 0.718929
0.846703 -2.420498 0.845909
0.906544 -2.425868 0.909097
0.829522 -2.382748 0.277193
0.898226 -2.412119 0.699204
0.751157 -2.378089 0.413069
0.690135 -2.383889 0.727837
0.811025 -2.390443 0.474200
0.883912 -2.423789 0.538175
0.799307 -2.388418 0.707247
0.857829 -2.377417 0.247532
0.864107 -2.436744 1.127154
0.724167 -2.386136 0.771099
0.662391 -2.388802 0.711887
0.841918 -2.377506 0.253578
0.717412 -2.388680 0.715102
0.785078 -2.416542 0.840113
0.845904 -2.420888 0.901302
0.830609 -2.395124 0.685504
0.633523 -2.385961 0.724991
0.809219 -2.379840 0.525659
0.749416 -2.384548 0.471416
0.738696 -2.382451 0.698461
0.666562 -2.391222 0.770233
0.655783 -2.374709 0.705371
0.717408 -2.386543 0.826497
0.787276 -2.420923 0.895469
0.766000 -2.383152 0.674762
0.750622 -2.380934 0.522818
0.680101 -2.383507 0.692621
0.660786 -2.388609 0.823643
0.704400 -2.375179 0.663983
0.663967 -2.387937 0.873015
0.602154 -2.382668 0.818842
0.606338 -2.383984 0.867194
