# .PCD v0.7 - Point Cloud Data file format
VERSION 0.7
FIELDS x y z
SIZE 4 4 4
TYPE F F F
COUNT 1 1 1
WIDTH 109
HEIGHT 1
VIEWPOINT 0 0 0 1
POINTS 109
DATA ascii
2.244323 -1.979130 1.993536
2.167220 -1.929120 2.141652
2.294621 -1.925707 1.868353
2.203978 -2.034737 2.000040
2.220258 -1.982170 2.062604
2.123878 -1.983763 2.149159
2.126808 -1.919753 2.262758
2.257129 -2.037474 1.786330
2.249243 -1.974299 1.868889
2.249331 -1.917137 1.962414
2.163608 -2.089345 2.007551
2.175894 -2.032749 2.063132
2.192214 -1.982133 2.120674
2.083526 -2.041420 2.161656
2.081429 -1.968354 2.265304
2.205760 -2.087123 1.786841
2.215944 -1.970676 1.969955
2.206878 -2.026891 1.872408
2.181088 -1.974802 2.168830
2.128262 -2.150962 2.021028
2.140548 -2.091319 2.071632
2.153857 -2.035671 2.123201
2.041041 -2.020968 2.274838
2.038160 -2.096086 2.171159
2.178536 -2.021226 1.975504
2.169428 -2.149746 1.799308
2.174519 -2.087481 1.885902
2.142765 -2.030314 2.168345
2.082854 -2.201580 2.026553
2.101179 -2.146898 2.078142
2.120512 -2.095218 2.131702
2.170111 -2.246906 2.472655
2.136121 -2.068779 1.977061
1.989771 -2.147751 2.178675
2.125064 -2.206386 1.806792
2.129124 -2.138085 1.889428
2.104120 -2.281823 1.720048
2.101419 -2.082827 2.165872
2.039449 -2.255203 2.035064
2.058782 -2.199484 2.083664
2.078140 -2.147772 2.133225
2.106734 -2.128326 1.990573
2.167840 -2.349678 2.533933
2.090732 -2.194687 1.899933
1.943364 -2.200416 2.189191
2.079679 -2.262035 1.815282
2.059772 -2.345526 1.734482
2.059056 -2.134340 2.163405
1.996031 -2.308826 2.044575
2.018388 -2.255076 2.092170
2.032742 -2.196315 2.131768
2.065297 -2.176885 1.995127
2.049323 -2.248280 1.907449
2.037306 -2.321681 1.826749
1.910008 -2.271146 2.218613
2.013426 -2.408221 1.746907
2.016698 -2.186869 2.162919
1.947597 -2.357460 2.051093
1.976994 -2.309671 2.100666
1.990362 -2.248874 2.135276
2.027889 -2.230453 2.004636
2.007939 -2.304906 1.918918
1.989922 -2.377352 1.837206
2.047325 -2.552327 2.447970
1.981380 -2.248409 2.170375
1.964054 -2.466928 1.759334
1.906193 -2.414090 2.064562
1.931600 -2.362275 2.107154
1.954014 -2.310463 2.147727
1.990476 -2.284014 2.014142
1.967544 -2.361514 1.930391
1.949560 -2.441012 1.853625
1.940031 -2.304963 2.174849
1.914690 -2.528648 1.773739
1.869814 -2.479749 2.085980
1.886188 -2.413871 2.113649
1.906617 -2.360033 2.149234
1.947036 -2.332591 2.020666
1.926141 -2.419144 1.943854
1.903172 -2.499677 1.866063
1.895650 -2.356496 2.175351
1.819365 -2.529405 2.095475
1.845798 -2.474503 2.129094
1.870345 -2.598383 1.795099
1.898567 -2.375155 2.022220
1.866234 -2.417612 2.158702
1.876697 -2.467766 1.950360
1.856765 -2.558352 1.880502
2.045079 -2.659563 2.400567
1.769896 -2.578041 2.104981
1.859126 -2.428733 2.033721
1.817453 -2.552170 2.159447
1.967471 -2.664583 2.333178
1.804870 -2.640102 1.797608
1.830251 -2.520403 1.961846
1.803319 -2.610039 1.890973
1.981656 -2.701133 2.389073
1.819690 -2.485334 2.048201
1.893361 -2.887233 2.323018
1.936851 -2.846316 2.368596
1.953237 -2.772336 2.384335
1.788838 -2.582050 1.979280
1.741810 -2.648696 1.892520
1.779242 -2.540926 2.061684
1.928282 -2.758747 2.391490
1.832139 -2.825823 2.317454
1.741380 -2.635689 1.991756
1.730739 -2.585510 2.068227
1.693295 -2.648130 2.088665
