# .PCD v0.7 - Point Cloud Data file format
VERSION 0.7
FIELDS x y z
SIZE 4 4 4
TYPE F F F
COUNT 1 1 1
WIDTH 76
HEIGHT 1
VIEWPOINT 0 0 0 1
POINTS 76
DATA ascii
2.757689 -0.871796 3.018043
2.757277 -0.909175 2.944728
3.284633 -1.106910 3.736923
2.735082 -0.934679 3.015487
2.806175 -0.959463 2.932388
2.762825 -0.978310 2.964171
3.193172 -1.162216 3.531314
2.811939 -1.035734 2.964777
2.917714 -1.089970 3.046491
2.775469 -1.051289 2.992612
3.044519 -1.190182 3.399889
2.037335 -2.101207 2.574625
2.072614 -2.207007 2.546006
1.995810 -2.151627 2.581385
2.069335 -2.301703 2.605486
1.907891 -2.153963 2.530465
2.097285 -2.363558 2.561116
1.922638 -2.243291 2.490964
2.084998 -2.459493 2.616601
1.958976 -2.425699 2.533933
2.144661 -2.649758 2.601489
2.033355 -2.642787 2.551663
0.755080 -1.648717 2.187319
0.722764 -1.672562 2.190308
0.685073 -1.682426 2.176383
3.412101 -1.089058 3.791347
3.273328 -1.127119 3.670084
3.152535 -1.165807 3.567847
0.014346 -2.928062 1.853509
0.000820 -2.827139 1.820137
-0.007967 -2.758414 1.836565
-0.013931 -2.918550 1.829633
-0.026618 -2.694805 1.835989
-0.033445 -2.700832 1.814971
-0.052738 -2.890370 1.823895
-0.063071 -2.797459 1.805472
-0.068884 -2.726618 1.814908
-0.082302 -2.869910 1.806089
-0.083643 -2.657906 1.813355
-0.090200 -2.674954 1.796270
-0.117094 -2.757210 1.734846
-0.124813 -2.731555 1.767020
-0.127029 -2.684703 1.787306
-0.138526 -2.625964 1.794693
-0.144251 -2.711655 1.714192
-0.146512 -2.624949 1.762718
-0.241884 -1.902461 1.930356
-0.294413 -1.968920 1.998095
-0.467022 -3.291983 3.503348
-0.472345 -3.320118 3.504185
-0.353354 -2.062676 2.092670
-0.363692 -2.099587 2.213467
-0.627765 -3.402022 3.458945
-0.707141 -3.397559 3.458098
2.034512 -2.131293 2.553913
2.030378 -2.221799 2.609662
1.892337 -2.170432 2.498878
-2.019467 -3.895115 1.110661
-2.051920 -3.748239 1.080521
-1.275375 -2.033514 1.408080
-1.286190 -1.946187 1.364639
-1.342551 -1.931099 1.371743
0.754757 -1.678552 2.153362
0.708737 -1.675367 2.127422
-0.000786 -2.820145 1.852683
-0.060311 -2.740006 1.825975
-0.063342 -2.795102 1.833717
-0.120023 -2.704882 1.804059
-0.123984 -2.701796 1.771067
-0.172295 -2.570301 1.717617
-0.454725 -3.317385 3.557620
-0.474890 -3.299363 3.486664
-1.888574 -3.990498 1.023898
-1.918320 -3.822456 0.988538
-1.950777 -3.671470 0.958092
-2.025905 -3.611258 0.952053
