# .PCD v0.7 - Point Cloud Data file format
VERSION 0.7
FIELDS x y z
SIZE 4 4 4
TYPE F F F
COUNT 1 1 1
WIDTH 13
HEIGHT 1
VIEWPOINT 0 0 0 1
POINTS 13
DATA ascii
-0.641823 -3.443588 1.477443
-0.700312 -3.632437 1.442841
-0.687696 -3.506666 1.480757
-0.787795 -3.896374 1.417559
-0.732513 -3.589694 1.476940
-0.759907 -3.681344 1.416163
-0.720624 -3.445727 1.482976
-0.793228 -3.658692 1.465120
-0.748225 -3.403530 1.445101
-0.875018 -3.911068 1.351932
-0.935828 -4.194132 1.353664
-0.848265 -3.754160 1.370148
-0.840712 -3.673466 1.419738
