# .PCD v0.7 - Point Cloud Data file format
VERSION 0.7
FIELDS x y z
SIZE 4 4 4
TYPE F F F
COUNT 1 1 1
WIDTH 763
HEIGHT 1
VIEWPOINT 0 0 0 1
POINTS 763
DATA ascii
1.641546 -3.277498 0.249687
1.587649 -3.268829 0.806136
1.589140 -3.298463 0.718314
1.730903 -3.274369 0.357726
1.567842 -3.277371 0.357247
1.549701 -3.294539 0.250655
1.503072 -3.289759 0.802358
1.493288 -3.302614 0.713041
1.631890 -3.274567 0.354311
1.472779 -3.274472 0.353956
1.453617 -3.296644 0.250363
1.579838 -3.301592 0.816955
1.577822 -3.276746 0.355463
1.409241 -3.286873 0.793113
1.709670 -3.279793 0.453948
1.416936 -3.277984 0.019858
1.407660 -3.328535 0.713252
1.534338 -3.289717 0.794309
1.547289 -3.301476 0.353555
1.380876 -3.282503 0.351849
1.360584 -3.301673 0.250205
1.492133 -3.261769 0.035242
1.487022 -3.286770 0.351402
1.330735 -3.315646 0.791592
1.619947 -3.293806 0.449940
1.326872 -3.285931 0.021825
1.607731 -3.275308 0.116214
1.442627 -3.291788 0.784171
1.779721 -3.269662 0.206982
1.314809 -3.334588 0.709109
1.455366 -3.308497 0.351443
1.443666 -3.279909 0.026683
1.298127 -3.299335 0.350119
1.577771 -3.274338 0.353324
1.553429 -3.275934 0.783759
1.273636 -3.311562 0.250296
1.277889 -3.301585 -0.062804
1.404208 -3.271691 0.034292
1.401470 -3.329591 0.807997
1.393075 -3.284839 0.345174
1.239882 -3.313662 0.783478
1.529134 -3.302818 0.445877
1.239910 -3.297808 0.022933
1.517845 -3.285281 0.114192
1.358022 -3.305692 0.777358
1.682754 -3.268793 0.201646
1.363316 -3.306498 0.348287
1.226010 -3.347536 0.707158
1.490103 -3.286302 0.346389
1.355671 -3.289809 0.027738
1.208078 -3.299282 0.348053
1.466961 -3.291906 0.773887
1.478657 -3.271527 0.050736
1.186687 -3.323433 0.251411
1.318400 -3.286568 0.032454
1.188712 -3.305473 -0.059810
1.311709 -3.338574 0.802987
1.306234 -3.292744 0.341260
1.153029 -3.315569 0.777535
1.442333 -3.312730 0.441968
1.589187 -3.274030 0.759809
1.588203 -3.267923 0.334486
1.428904 -3.292214 0.112196
1.155944 -3.309605 0.024154
1.592992 -3.279780 0.196634
1.271377 -3.315625 0.769463
1.274388 -3.313425 0.346301
1.131963 -3.342566 0.702936
1.399293 -3.290304 0.339312
1.267637 -3.295696 0.027780
1.122149 -3.306136 0.346179
1.556161 -3.254467 0.056150
1.381418 -3.303835 0.764035
1.391847 -3.282429 0.046840
1.386647 -3.338892 0.896493
1.235501 -3.399386 1.382095
1.097577 -3.324324 0.251400
1.229348 -3.289474 0.031448
1.099448 -3.306336 -0.055823
1.221406 -3.301592 0.337430
1.223892 -3.344495 0.798037
1.090499 -3.415332 1.327329
1.071300 -3.330350 0.774855
1.523270 -3.305063 0.530599
1.348338 -3.307770 0.435739
1.313930 -3.315702 1.296126
1.497511 -3.272942 0.324417
1.340995 -3.301114 0.110258
1.066666 -3.305471 0.026113
1.503158 -3.286746 0.191609
1.185658 -3.321517 0.761587
1.187440 -3.319293 0.344388
1.044072 -3.350454 0.701012
1.310446 -3.292247 0.332302
1.039201 -3.313906 0.345424
1.185807 -3.313454 0.028113
1.077022 -2.718821 -0.056151
1.473641 -3.276313 0.049461
1.294820 -3.312767 0.754141
1.304948 -3.288310 0.042923
1.467537 -3.334214 0.989141
1.298887 -3.345818 0.890550
1.131612 -3.362709 1.357351
1.146464 -3.300251 0.029708
1.009485 -3.328176 0.252453
0.977338 -3.328901 1.283978
1.134506 -3.304468 0.332507
1.131951 -3.339485 0.790894
0.987477 -3.334166 0.769050
1.432471 -3.309052 0.523531
1.262464 -3.315625 0.432873
1.418352 -3.306908 0.737166
1.414937 -3.288780 0.316698
1.255048 -3.307954 0.108387
1.417388 -3.297620 0.186755
1.028148 -3.586819 1.337239
1.098886 -3.324412 0.753669
1.099404 -3.320163 0.342421
1.227750 -3.305055 0.326576
0.959231 -3.363260 0.700232
0.816613 -2.863301 0.299257
1.097665 -3.313303 0.028139
1.228761 -3.294703 -0.072684
1.382740 -3.276283 0.042374
1.207113 -3.313701 0.743174
1.374792 -3.326269 0.974941
1.387936 -3.292592 -0.015391
1.218081 -3.296179 0.039029
1.212139 -3.349716 0.882634
1.064596 -3.313989 0.029032
1.051656 -3.314240 0.329773
1.048147 -3.348289 0.787121
1.348753 -3.319883 0.517754
0.904602 -3.338934 0.765294
1.037220 -3.384202 1.288256
1.175588 -3.321490 0.428972
1.325712 -3.303968 0.722004
1.325169 -3.289743 0.306660
1.168064 -3.310802 0.105468
1.328461 -3.299530 0.181754
1.017196 -3.334186 0.746976
1.013420 -3.325974 0.341565
1.140914 -3.307928 0.319663
0.872213 -3.362092 0.697308
0.740460 -2.852916 0.296657
1.141714 -3.296538 -0.074606
1.296238 -3.346999 0.970401
1.297007 -3.286147 0.035530
1.120421 -3.315602 0.732258
1.135210 -3.303947 0.035282
1.126337 -3.352572 0.875756
1.296911 -3.291527 -0.019475
0.822965 -2.849718 0.281353
0.965360 -3.362047 0.785424
1.260931 -3.324776 0.511815
0.823776 -3.346647 0.761636
0.936253 -3.331453 1.257543
1.093793 -3.334235 0.426295
1.240137 -3.310860 0.710150
1.238400 -3.292626 0.297746
1.243634 -3.307350 0.176937
1.085214 -3.323556 0.103758
0.932350 -3.333005 0.739122
0.790800 -2.866330 0.294390
1.053991 -3.305781 0.312729
0.588813 -2.363100 1.908608
1.210543 -3.351866 0.961538
0.690740 -2.942017 0.303544
0.788283 -3.371835 0.697566
1.213203 -3.293945 0.029751
1.039813 -3.328354 0.724624
1.043586 -3.362345 0.871033
1.212069 -3.299338 -0.024287
1.051370 -3.311729 0.030513
1.210718 -3.293712 -0.077396
0.494318 -2.418117 1.860794
0.750016 -2.849272 0.277926
0.881466 -3.367810 0.782654
1.175105 -3.327616 0.504942
0.744931 -3.355297 0.759062
0.646370 -2.854115 -0.036641
0.753099 -3.331467 0.254904
0.636645 -2.811882 -0.128266
1.009910 -3.340007 0.422518
0.635572 -2.818078 -0.153279
1.154542 -3.314740 0.697289
0.467925 -2.393861 1.830766
1.028894 -3.511960 1.304665
1.154779 -3.304443 0.289002
1.161855 -3.320091 0.173262
1.001226 -3.328307 0.101975
0.852605 -3.343697 0.734523
0.624405 -2.866146 0.028743
0.600045 -2.279076 1.923489
0.721901 -2.874782 0.294156
0.827509 -2.851178 0.265478
0.525419 -2.348618 1.886426
1.126810 -3.354674 0.952739
0.711437 -3.345752 0.341656
1.132546 -3.308680 0.023128
0.957167 -3.337136 0.715909
0.704367 -3.382561 0.697843
0.958730 -3.364144 0.865205
1.129292 -3.311097 -0.028997
1.127936 -3.303474 -0.083118
0.427834 -2.394695 1.836463
0.688622 -2.887595 0.278124
1.092329 -3.337375 0.500224
0.797503 -3.367558 0.778857
0.667170 -3.372905 0.758588
0.582853 -2.890447 -0.034515
0.411376 -2.385177 1.815858
0.676407 -3.363030 0.258552
0.599287 -2.960829 -0.132608
0.926958 -3.341738 0.418759
1.071961 -3.325532 0.687583
0.620154 -3.066712 -0.164307
0.895432 -3.353987 1.233247
1.070037 -3.309257 0.280190
1.072838 -3.314957 0.167252
0.772857 -3.354372 0.729934
0.566292 -2.924388 0.030180
0.541687 -2.270480 1.903513
1.045126 -3.362427 0.945049
0.765485 -3.343109 0.338401
0.463003 -2.329113 1.862254
0.631427 -3.350379 0.341038
0.652666 -2.879993 0.027753
0.875400 -3.340869 0.708205
1.046651 -3.309489 0.016260
0.880024 -3.380797 0.862681
1.045361 -3.313853 -0.033786
0.619297 -3.382290 0.697027
0.626987 -2.812361 -0.109571
0.628255 -2.828350 -0.109434
0.359412 -2.353361 1.800967
1.010481 -3.341098 0.494513
0.619390 -2.853690 0.021499
0.725262 -3.349076 0.316093
0.587252 -3.375546 0.754963
0.717759 -3.388198 0.779337
0.604942 -3.357432 -0.039007
0.604370 -3.349159 -0.148136
0.845072 -3.349433 0.416083
0.595424 -3.373657 0.259944
0.444677 -2.393897 1.817023
0.989394 -3.337309 0.677894
0.601304 -3.348412 -0.177257
0.952678 -3.205631 0.263670
0.993052 -3.327628 0.163666
0.693073 -3.363030 0.725343
0.575439 -3.353534 0.034040
0.494891 -2.302455 1.918186
0.963356 -3.367156 0.938350
0.564270 -2.185354 1.908761
0.693186 -2.881056 0.257214
0.688826 -3.372672 0.340043
0.402553 -2.309552 1.839157
0.552517 -3.360971 0.340502
0.794731 -3.350573 0.700584
0.582745 -2.888433 0.027507
0.797163 -3.382524 0.856941
0.538395 -3.397910 0.699457
0.598514 -3.006188 -0.118356
0.603979 -3.034101 -0.118011
0.929681 -3.347789 0.488865
0.573279 -2.966743 0.020659
0.646348 -3.355683 0.313528
0.508385 -3.385143 0.753427
0.635810 -3.394858 0.778673
0.524887 -3.367012 -0.036579
0.768332 -3.368012 0.414653
0.523224 -3.353755 -0.145773
0.514340 -3.378265 0.261308
0.903655 -3.333136 0.665016
0.520173 -3.356002 -0.173875
0.474920 -2.400682 1.819072
0.614319 -3.373652 0.720809
0.659913 -2.950942 0.086439
0.435573 -2.280897 1.890113
0.511021 -2.175664 1.884956
0.495406 -3.360121 0.034454
0.880550 -3.363901 0.928580
0.732949 -3.346514 0.291291
0.606780 -3.375317 0.339358
0.336364 -2.256238 1.790668
0.473554 -3.368546 0.339958
0.613616 -2.823942 -0.093931
0.615012 -2.834765 -0.069807
0.713976 -3.355256 0.692942
0.714202 -3.378231 0.851173
0.606694 -3.365347 0.030124
0.886820 -3.483944 1.227656
0.610530 -2.852314 0.015197
0.455389 -3.403560 0.699770
0.592741 -3.349687 -0.133517
0.592807 -3.357678 -0.131466
0.848847 -3.354459 0.484227
0.426214 -3.364810 0.745612
0.567516 -3.367276 0.311007
0.573750 -3.352054 0.019960
0.553825 -3.395512 0.775983
0.686341 -3.371666 0.412973
0.443731 -3.370593 -0.034211
0.442029 -3.355333 -0.143417
0.822015 -3.340857 0.655358
0.432238 -3.383870 0.263657
0.441108 -3.365541 -0.171402
0.704103 -2.870552 0.223478
0.536546 -3.387227 0.718336
0.673174 -3.338000 0.093164
0.369673 -2.215656 1.826556
0.458690 -2.166930 1.864197
0.802875 -3.380511 0.925110
0.416305 -3.364664 0.035898
0.653181 -3.356147 0.285722
0.526882 -3.386909 0.338808
0.394556 -3.374104 0.339412
0.634251 -3.363899 0.686369
0.613532 -3.151343 -0.108003
0.591927 -3.054493 -0.078265
0.525593 -3.367943 0.030484
0.780808 -3.410260 1.187704
0.570939 -2.992267 0.011731
0.373349 -3.409167 0.701127
0.512646 -3.353259 -0.133116
0.510580 -3.355281 -0.130170
0.770058 -3.364075 0.479684
0.494747 -3.356618 0.018403
0.488631 -3.375851 0.308477
0.470715 -3.385178 0.771201
0.607503 -3.385249 0.411464
0.363532 -3.374131 -0.030803
0.362953 -3.364857 -0.140938
0.741328 -3.348537 0.646737
0.351173 -3.392438 0.266063
0.360865 -3.367076 -0.168009
0.743931 -3.328075 0.248478
0.665997 -2.996036 0.135914
0.406402 -2.151216 1.838395
0.455581 -3.379870 0.710635
0.309564 -2.163223 1.776275
0.597543 -3.365523 0.091837
0.337175 -3.368192 0.037333
0.573218 -3.354761 0.280074
0.446855 -3.393478 0.339217
0.317695 -3.390603 0.339992
0.609087 -2.847958 -0.005907
0.554452 -3.368528 0.679758
0.575130 -3.352330 -0.119102
0.575268 -3.359137 -0.089041
0.446607 -3.378487 0.030948
0.605163 -2.842268 -0.042090
0.603661 -2.836614 -0.091200
0.567074 -3.356663 0.007728
0.290074 -3.394795 0.699310
0.432677 -3.363822 -0.133689
0.432628 -3.366805 -0.130672
0.690259 -3.373701 0.475081
0.408634 -3.376436 0.304838
0.415840 -3.368169 0.016866
0.526510 -3.386861 0.408787
0.284448 -3.382640 -0.028350
0.284877 -3.372350 -0.139458
0.662768 -3.365165 0.639212
0.348489 -2.100771 1.784181
0.271100 -3.399971 0.268479
0.672667 -3.358186 0.145220
0.280720 -3.372599 -0.165607
0.666400 -3.350671 0.242024
0.376712 -3.385441 0.707064
0.518619 -3.375082 0.090279
0.258179 -3.377709 0.037798
0.494459 -3.367340 0.275540
0.365804 -3.396056 0.338563
0.237530 -3.386148 0.339338
0.476744 -3.380100 0.674254
0.576186 -3.024826 -0.012978
0.496171 -3.358884 -0.121675
0.495327 -3.366710 -0.091640
0.366512 -3.382031 0.031333
0.639600 -3.331505 -0.115176
0.609368 -3.196586 -0.053916
0.488176 -3.362230 0.003151
0.354650 -3.370327 -0.134216
0.352584 -3.374343 -0.130258
0.610370 -3.377307 0.470450
0.337907 -3.377681 0.015362
0.329760 -3.385980 0.302302
0.447628 -3.395418 0.406234
0.300073 -2.094920 1.768569
0.204299 -3.387149 -0.025941
0.583024 -3.366801 0.629575
0.205799 -3.381838 -0.136984
0.191025 -3.407486 0.270909
0.591732 -3.362794 0.141566
0.587637 -3.357267 0.234451
0.201704 -3.386086 -0.163106
0.296583 -3.363046 0.697301
0.438628 -3.378647 0.087664
0.180150 -3.387183 0.039309
0.416615 -3.374881 0.271022
0.160609 -3.398613 0.339905
0.286850 -3.406574 0.339039
0.399001 -3.389654 0.668750
0.563730 -3.347388 -0.022538
0.416178 -3.361445 -0.125290
0.416351 -3.372247 -0.094205
0.287450 -3.385545 0.030767
0.561039 -3.350696 -0.061629
0.560853 -3.345077 -0.120701
0.408177 -3.363792 -0.000469
0.276670 -3.377821 -0.135721
0.273523 -3.378849 -0.130815
0.532559 -3.387854 0.466942
0.251868 -3.394487 0.299807
0.257891 -3.382213 0.013775
0.369728 -3.404933 0.404734
0.125148 -3.393616 -0.022472
0.126639 -3.384313 -0.135539
0.503390 -3.381406 0.623033
0.513924 -3.373335 0.137062
0.110965 -3.417977 0.274372
0.506790 -3.358883 0.226795
0.122493 -3.387553 -0.160668
0.359604 -3.382169 0.086096
0.101071 -3.391664 0.039771
0.336785 -3.381447 0.265446
0.207797 -3.413066 0.340504
0.081572 -3.402105 0.339364
0.318094 -3.385258 0.661076
0.485940 -3.355930 -0.029047
0.338280 -3.369951 -0.128788
0.337278 -3.373759 -0.095780
0.484118 -3.357598 -0.127152
0.483293 -3.364231 -0.067107
0.207466 -3.396055 0.031226
0.330323 -3.372306 -0.004966
0.454665 -3.391388 0.462404
0.196575 -3.380329 -0.136309
0.194412 -3.382332 -0.130364
0.172876 -3.398989 0.298267
0.179939 -3.390689 0.012293
0.289650 -3.403467 0.403114
0.045093 -3.404088 -0.019995
0.423705 -3.389003 0.614462
0.047607 -3.394770 -0.134029
0.435081 -3.381876 0.132528
0.044410 -3.396984 -0.158132
0.429085 -3.371421 0.220320
0.030792 -3.419455 0.276793
0.281738 -3.393662 0.083626
0.022055 -3.400126 0.040273
0.258920 -3.387952 0.260949
0.003535 -3.407553 0.339881
0.128727 -3.414552 0.339953
0.241409 -3.402747 0.657682
0.406131 -3.363493 -0.035614
0.260299 -3.375432 -0.131291
0.258332 -3.379266 -0.099315
0.404463 -3.372766 -0.072636
0.129385 -3.400508 0.031727
0.405299 -3.367132 -0.132674
0.252417 -3.379796 -0.008455
0.376817 -3.399901 0.458911
0.118623 -3.391781 -0.136761
0.116525 -3.395789 -0.131803
0.094964 -3.406460 0.295794
0.100920 -3.395166 0.010768
0.211747 -3.412947 0.401642
-0.032994 -3.412505 -0.017452
-0.031522 -3.401203 -0.131530
0.342889 -3.388599 0.605823
0.356140 -3.384399 0.127969
-0.033689 -3.405396 -0.155588
-0.048302 -3.425896 0.279293
0.349249 -3.375977 0.213744
0.201710 -3.397168 0.082055
-0.055947 -3.409551 0.040828
0.181037 -3.395434 0.257472
-0.073423 -3.417964 0.340476
0.048704 -3.423028 0.341427
0.160389 -3.389321 0.648981
0.328287 -3.368999 -0.042114
0.180063 -3.364934 -0.133945
0.180400 -3.387731 -0.101785
0.326350 -3.368647 -0.138231
0.324455 -3.372296 -0.077239
0.049255 -3.401981 0.032159
0.173494 -3.384292 -0.012980
0.297983 -3.409415 0.455405
-0.113116 -3.445091 0.749581
0.038558 -3.394258 -0.138319
0.037396 -3.398235 -0.131329
0.016081 -3.415931 0.293315
0.021901 -3.399625 0.009257
0.133872 -3.426403 0.401209
-0.113115 -3.418940 -0.014971
-0.109683 -3.403606 -0.130010
0.264165 -3.398129 0.599325
0.278339 -3.395887 0.123514
-0.113854 -3.409828 -0.153119
0.270427 -3.379502 0.206209
-0.129381 -3.435348 0.282762
0.123792 -3.405625 0.079594
-0.135108 -3.408978 0.041302
0.102137 -3.397927 0.251947
-0.152478 -3.422395 0.340983
-0.030274 -3.434465 0.342966
0.250457 -3.375488 -0.048594
0.102491 -3.390397 -0.139292
0.101433 -3.394196 -0.104286
-0.028685 -3.413403 0.031732
0.246605 -3.379777 -0.082712
0.247448 -3.371151 -0.144767
0.094584 -3.391764 -0.016473
-0.190184 -3.444495 0.749126
0.220067 -3.415887 0.452927
-0.039507 -3.398673 -0.138786
-0.040543 -3.410649 -0.131747
-0.060914 -3.420341 0.291882
-0.056088 -3.406047 0.007805
0.053807 -3.423890 0.398627
-0.086197 -3.433734 0.777408
-0.193236 -3.425356 -0.012475
-0.189750 -3.412025 -0.128501
0.199362 -3.398370 0.119984
0.184360 -3.402658 0.592778
-0.193940 -3.417245 -0.151616
0.192664 -3.390979 0.200770
-0.210508 -3.441781 0.286227
0.044793 -3.411076 0.078096
-0.215176 -3.416396 0.042808
0.006104 -3.445989 0.838462
0.023250 -3.405391 0.248466
-0.232424 -3.433823 0.341517
-0.110300 -3.440908 0.343458
0.171686 -3.385977 -0.055067
0.023567 -3.397849 -0.142772
0.022560 -3.404648 -0.107747
0.168846 -3.393239 -0.088134
-0.108597 -3.428836 0.032281
0.168699 -3.383637 -0.151227
0.015735 -3.401223 -0.020938
0.142211 -3.424346 0.449475
-0.118433 -3.410093 -0.140227
-0.121501 -3.420105 -0.133263
-0.140895 -3.423795 0.289362
-0.135969 -3.417491 0.005336
-0.024150 -3.434304 0.399202
0.115724 -3.731690 0.962652
-0.273389 -3.429754 -0.009978
-0.269771 -3.423424 -0.126960
0.120478 -3.404840 0.115494
0.105552 -3.407151 0.586278
-0.273089 -3.422620 -0.149080
0.114883 -3.399444 0.194326
-0.292620 -3.451206 0.290693
-0.033113 -3.420496 0.075670
-0.294196 -3.424783 0.043367
-0.054592 -3.413822 0.244038
-0.311420 -3.444208 0.343089
-0.191328 -3.451338 0.345955
0.092710 -3.383448 -0.061606
-0.055425 -3.410057 -0.110193
-0.054358 -3.405263 -0.146205
0.089881 -3.393702 -0.093655
-0.187807 -3.423242 0.031745
0.090730 -3.384080 -0.156715
-0.062194 -3.405646 -0.025388
0.064339 -3.431788 0.446032
-0.198438 -3.416513 -0.141716
-0.200710 -3.417497 -0.132778
-0.220800 -3.434221 0.287900
-0.215055 -3.417894 0.003843
-0.103016 -3.448722 0.398785
-0.249203 -3.464189 0.693384
-0.353496 -3.439125 -0.006435
0.042546 -3.408273 0.111031
0.035006 -3.401927 0.187796
-0.372825 -3.450591 0.293176
-0.113131 -3.424928 0.074163
-0.375218 -3.433187 0.043878
-0.390586 -3.441585 0.343596
-0.134468 -3.420272 0.239549
-0.270402 -3.454726 0.346489
0.013980 -3.396899 -0.068032
-0.133253 -3.412683 -0.150655
-0.135350 -3.417489 -0.113675
0.011069 -3.404146 -0.099099
-0.268691 -3.440653 0.032303
0.011867 -3.389529 -0.163189
-0.142032 -3.416084 -0.029851
-0.014583 -3.436230 0.442552
-0.277445 -3.422896 -0.143160
-0.280623 -3.429895 -0.134215
-0.299814 -3.437612 0.286441
-0.294986 -3.428294 0.002396
-0.183083 -3.448148 0.397258
-0.326471 -3.436594 0.685803
-0.434696 -3.440503 -0.003958
-0.035250 -3.420687 0.106638
-0.043765 -3.411372 0.181355
-0.454000 -3.455961 0.297679
-0.192134 -3.430323 0.072709
-0.455304 -3.439547 0.045421
-0.468920 -3.423943 0.342059
-0.214346 -3.428696 0.236086
-0.350646 -3.447117 0.346938
-0.063922 -3.399315 -0.074479
-0.213244 -3.416096 -0.154148
-0.215292 -3.423902 -0.117149
-0.066806 -3.410553 -0.104522
-0.348778 -3.443037 0.031815
-0.065935 -3.398940 -0.169593
-0.220011 -3.419464 -0.033279
-0.092566 -3.436636 0.439093
-0.379814 -3.442002 0.284970
-0.262106 -3.452531 0.396808
-0.374919 -3.436680 -0.000050
-0.115201 -3.423120 0.102134
-0.123508 -3.422815 0.174909
-0.537112 -3.463350 0.301146
-0.273062 -3.438739 0.070225
-0.293286 -3.431090 0.231633
-0.433586 -3.465515 0.350465
-0.143749 -3.404752 -0.081956
-0.292236 -3.419472 -0.157594
-0.294343 -3.425274 -0.119608
-0.430789 -3.452428 0.032321
-0.146807 -3.408978 -0.110042
-0.144833 -3.402351 -0.176051
-0.300961 -3.422883 -0.037787
-0.171477 -3.446030 0.437671
-0.461754 -3.450405 0.283476
-0.343160 -3.454930 0.396298
-0.454281 -3.419034 -0.001607
-0.194082 -3.430516 0.097703
-0.203455 -3.421242 0.168391
-0.353040 -3.446114 0.068773
-0.374151 -3.440495 0.228161
-0.397157 -3.486402 0.632901
-0.223518 -3.416163 -0.088401
-0.375288 -3.431667 -0.123102
-0.374154 -3.425887 -0.162118
-0.226534 -3.423387 -0.116470
-0.225551 -3.415781 -0.183515
-0.381835 -3.431282 -0.042268
-0.250544 -3.438430 0.433140
-0.542717 -3.456778 0.281993
-0.421515 -3.430291 0.392707
-0.274948 -3.437928 0.093198
-0.434018 -3.450494 0.066267
-0.284234 -3.429666 0.161896
-0.456005 -3.449897 0.224659
-0.479119 -3.485818 0.629341
-0.304371 -3.419579 -0.095921
-0.306468 -3.425772 -0.121965
-0.330436 -3.445814 0.430676
-0.355833 -3.446315 0.089716
-0.366018 -3.440082 0.156398
-0.537025 -3.448267 0.221139
-0.385213 -3.425968 -0.102405
-0.388374 -3.428178 -0.128503
-0.436748 -3.450689 0.085229
-0.447923 -3.440485 0.149859
-0.646690 -3.579284 0.557714
-0.477755 1.519763 1.802567
-0.488278 1.618531 1.809712
-0.490374 1.681409 1.799893
-0.973117 3.451872 4.016617
-0.541349 1.974837 1.815878
-0.981516 3.627640 3.983014
-0.482819 1.543181 1.800058
-0.984356 3.797386 3.989497
-0.507590 1.656935 1.804983
-0.901528 3.495852 4.031143
-0.533764 2.111624 1.813489
-0.800872 3.243002 2.943101
-0.913371 3.689584 4.019519
-0.490500 1.693830 1.811473
-0.980456 3.490970 4.004536
-0.900652 3.840441 3.999218
-0.370409 1.526620 1.764815
-0.501115 1.578595 1.795334
-0.743044 3.310949 2.986417
-0.373586 1.602507 1.752001
-0.455151 1.717733 1.823278
-0.532547 2.050166 1.823913
-0.902460 3.510027 4.000082
-0.943978 3.749648 3.997084
-0.529601 2.093112 1.817119
-0.508886 1.729229 1.814776
-0.369104 1.697313 1.770402
-0.468844 1.602467 1.813090
-0.493417 1.705290 1.801992
-0.403703 1.954971 1.765535
-0.899044 3.841564 4.014219
-0.783049 3.369151 2.962701
-0.375747 1.555015 1.780286
-0.394642 1.673806 1.792325
-0.485317 2.124067 1.832087
-1.012394 3.853578 3.988133
-0.695826 3.909442 1.891883
-0.933223 3.576077 3.986648
-0.454812 1.713245 1.800792
-0.529441 2.086597 1.811703
-0.536935 2.131491 1.829723
-0.368053 1.689784 1.773899
-0.440308 2.065186 1.820754
-0.485958 1.639768 1.811518
-0.684474 3.410389 2.905640
-0.796980 3.325599 3.432231
-0.500400 1.730596 1.806600
-0.391332 1.602388 1.796635
-0.908462 3.869676 4.009102
-0.503852 1.797434 1.822802
-0.486167 2.115548 1.827637
-0.762813 3.408571 2.897056
-0.385947 2.029316 1.782665
-0.583371 2.187748 1.819788
-0.377089 1.699266 1.764255
-0.531402 3.999914 1.921070
-0.465152 1.755484 1.826391
-0.372224 1.707216 1.780379
-0.531259 2.090940 1.816410
-0.689044 3.398699 2.906361
-0.815306 3.265056 3.276687
-0.427914 2.099666 1.792675
-0.532940 2.206739 1.831814
-0.784840 3.325713 3.423478
-0.490117 2.125860 1.840326
-0.554957 4.019376 1.868617
-0.413338 1.794401 1.813542
-0.358083 1.600773 1.757866
-0.778884 3.665180 3.015739
-0.378308 1.729510 1.792967
-0.692438 3.392827 2.912322
-0.413700 2.157950 1.786864
-0.545788 4.361514 1.945776
-0.590548 4.415763 1.892388
1.644564 2.769118 2.793341
1.571340 2.625158 2.713390
1.646008 2.612040 2.742861
1.553267 2.177482 2.643032
1.563435 2.506061 2.664032
1.612115 2.152345 2.655277
1.660530 2.589695 2.803078
1.579909 1.874950 2.649635
1.514802 1.937916 2.578706
1.598091 1.952644 2.645240
1.624883 1.839774 2.651671
1.581827 1.888181 2.662795
1.637134 1.910495 2.638199
1.574106 1.705471 2.620813
1.562211 1.688268 2.634656
1.615874 1.678226 2.635831
3.416291 1.897746 3.380870
3.400766 2.020807 3.336749
3.455020 1.951598 3.345101
3.990721 -1.634829 3.181941
4.025733 -1.709765 3.173390
3.912879 -1.704463 3.143650
