# .PCD v0.7 - Point Cloud Data file format
VERSION 0.7
FIELDS x y z
SIZE 4 4 4
TYPE F F F
COUNT 1 1 1
WIDTH 29
HEIGHT 1
VIEWPOINT 0 0 0 1
POINTS 29
DATA ascii
2.311135 1.799307 0.279645
2.224535 1.765545 0.477377
2.214477 1.675949 0.640655
2.195799 1.760370 0.551408
2.194467 1.692269 0.674846
2.473165 1.834374 0.421215
2.375126 1.756482 0.280504
2.298081 1.760341 0.316500
2.272764 1.793794 0.343789
2.179489 1.707732 0.697037
2.252735 1.701391 0.473025
2.165234 1.559147 0.614800
2.236840 1.709338 0.550168
2.130303 1.566354 0.645897
2.458291 1.798075 0.142075
2.329261 1.697186 0.316154
2.289013 1.722509 0.342360
2.225774 1.728331 0.633392
2.109371 1.576770 0.667038
2.279643 1.763077 0.373729
2.187402 1.495920 0.610435
2.277852 1.659289 0.550927
2.171314 1.517277 0.647663
2.267758 1.680303 0.633166
2.297828 1.695811 0.373325
2.148375 1.527669 0.669800
3.725795 2.700413 0.156900
2.301781 1.627198 0.631884
2.383471 1.605467 0.642898
