# .PCD v0.7 - Point Cloud Data file format
VERSION 0.7
FIELDS x y z
SIZE 4 4 4
TYPE F F F
COUNT 1 1 1
WIDTH 183
HEIGHT 1
VIEWPOINT 0 0 0 1
POINTS 183
DATA ascii
-2.367249 4.854976 1.425135
-2.400081 5.343001 1.416165
-1.051455 2.450475 1.644498
-1.056465 2.432792 1.704961
-1.011664 2.528205 1.685896
-1.011174 2.488005 1.731779
-0.981727 2.644087 1.753253
-0.958458 2.524706 1.745133
-0.963483 2.432333 1.719520
-0.923106 2.684796 1.770706
-0.458769 4.153783 1.932934
-0.388194 4.214185 2.005925
-0.442156 4.366665 1.958270
-0.373272 4.351383 2.015346
-0.288154 4.187501 1.988588
1.348912 2.570185 2.698102
1.156743 2.188738 2.312006
1.272753 2.526378 2.377449
1.170903 2.246981 2.316349
1.230525 2.330856 2.325578
1.161481 2.121178 2.257318
1.193077 2.302282 2.323675
1.372471 2.449170 3.204279
1.249060 2.227705 2.391221
1.356805 2.487451 3.052985
1.230556 2.396660 2.339975
1.352885 2.533205 2.409800
1.537150 2.750338 3.462056
1.265184 2.289052 2.392637
1.357479 2.504681 2.917254
1.320500 2.513707 2.889243
1.314248 2.354295 2.377367
1.255455 2.174966 2.344909
1.299908 2.365197 2.416507
1.619660 2.892655 3.518652
0.978295 1.688261 2.251125
1.366519 2.443050 3.131805
1.148195 2.139110 2.349412
1.619587 2.797632 3.476408
1.354475 2.492900 2.999831
1.300049 2.193670 2.395495
1.151123 2.013412 2.730633
1.337397 2.460732 2.425822
0.987939 1.665832 2.236597
1.014245 1.761913 2.254936
1.320024 2.262006 2.400092
1.095104 1.938625 2.287428
1.075713 1.963391 2.283885
1.350965 2.329361 2.411740
0.986206 1.617822 2.195414
1.037005 1.799159 2.221842
1.003005 1.731887 2.252112
1.030345 1.733784 2.189284
1.152031 2.029517 2.253705
1.050839 1.858490 2.264254
0.992852 1.595443 2.175884
1.046343 1.724942 2.241131
1.159262 1.942152 2.320705
1.132172 1.955197 2.298848
1.061562 1.650389 2.279462
1.127944 1.852737 2.317434
1.014838 1.665550 2.194517
1.126100 1.794169 2.297065
1.105347 1.848313 2.277161
1.260824 2.093372 2.351579
1.076772 1.645710 2.279395
1.115091 1.742952 2.300787
1.206984 1.973544 2.348510
1.105141 1.632888 2.298175
1.182406 1.842402 2.337339
1.099070 1.706259 2.279777
1.052985 1.596682 2.269045
1.174346 1.858749 2.318617
3.303869 1.648346 2.972490
3.269434 1.537297 2.904906
3.230133 1.502012 2.943904
3.200584 1.395898 2.883478
3.101334 1.237346 2.878871
3.193680 1.303653 2.846490
3.152640 1.175962 2.897782
3.121739 1.085610 2.844770
3.131674 1.122807 2.946558
2.395880 -1.311736 1.711864
2.812440 -1.520835 1.926101
2.345822 -1.353179 1.691194
2.644824 -1.508904 1.832875
2.302799 -1.398625 1.677498
2.464034 -1.483017 1.729829
1.663153 -1.121459 1.626966
1.615663 -1.075697 1.597583
1.800936 -1.176227 1.681687
1.643963 -1.160818 1.632445
1.678107 -1.146867 1.540778
1.554222 -1.086990 1.558355
1.779857 -1.221582 1.685082
1.534100 -1.135172 1.550620
1.658945 -1.188248 1.547236
1.417195 -1.042291 1.446739
1.703339 -1.227015 1.639910
1.385866 -1.075496 1.429190
1.680289 -1.192675 1.531401
1.617637 -1.215691 1.535850
1.378796 -1.062601 1.429452
1.598568 -1.209453 1.566989
1.633946 -1.217124 1.515037
1.565188 -1.232135 1.513586
1.346436 -1.086912 1.418131
1.465492 -1.164886 1.466383
1.584582 -1.239601 1.497703
0.680087 -0.745491 1.275857
0.657416 -0.748462 1.252856
0.655464 -0.750547 1.256838
0.723697 -0.853611 1.396681
0.712673 -0.846576 1.383768
0.701660 -0.816140 1.276203
0.708821 -0.824947 1.270102
0.736486 -0.904173 1.449132
0.738604 -0.912283 1.459044
0.686162 -0.834372 1.278036
0.695334 -0.845209 1.275910
0.690647 -0.887031 1.396376
0.668538 -0.867820 1.360611
0.667617 -0.848573 1.274918
0.674782 -0.858425 1.271804
0.657938 -0.884036 1.366460
0.651020 -0.884013 1.358473
0.696493 -0.891892 1.257498
0.686508 -0.909246 1.341264
0.651169 -0.866612 1.262764
0.700826 -0.907679 1.247331
0.679429 -0.940753 1.230826
0.637359 -0.895191 1.358384
0.634488 -0.900214 1.357335
0.675945 -0.906146 1.255383
0.714559 -0.986080 1.427406
0.659967 -0.917207 1.313218
0.677261 -0.919951 1.243234
0.657832 -0.951969 1.224740
0.617780 -0.907381 1.353289
0.616977 -0.917444 1.357184
0.654383 -0.919415 1.253276
0.648102 -0.961032 1.219659
0.697065 -1.006381 1.432212
0.700171 -1.011207 1.423155
0.655709 -0.934249 1.243116
0.637258 -0.965211 1.221633
0.602242 -0.924627 1.356136
0.603521 -0.940744 1.365963
0.628751 -0.926656 1.245243
0.626561 -0.975258 1.214545
0.687700 -1.039834 1.455866
0.682713 -1.034576 1.432930
0.631116 -0.944518 1.238050
0.613625 -0.973425 1.213589
0.586734 -0.943897 1.360963
0.578888 -0.946873 1.351947
0.649651 -0.969077 1.225851
0.600073 -0.928824 1.229274
0.602982 -0.986484 1.207470
0.660077 -1.047017 1.442833
0.667264 -1.059956 1.445681
0.607513 -0.954785 1.233986
0.589993 -0.981637 1.205548
0.559034 -0.943971 1.340021
0.620984 -0.973318 1.214858
0.570370 -0.929007 1.213334
0.580430 -0.999708 1.201375
0.588863 -0.988406 1.330594
0.567349 -0.989862 1.199509
0.579866 -0.960022 1.223987
0.593341 -0.979599 1.207847
0.555827 -1.008917 1.192330
0.535768 -0.949153 1.261127
0.542680 -0.995045 1.188509
0.566673 -0.984865 1.200849
0.523102 -0.944492 1.202282
0.477495 -0.895895 1.185835
0.518997 -1.000255 1.180512
0.524483 -0.964439 1.200068
0.536955 -0.985103 1.188915
0.462998 -0.915096 1.186676
0.509254 -0.987352 1.179962
0.464979 -0.957771 1.166298
