# .PCD v0.7 - Point Cloud Data file format
VERSION 0.7
FIELDS x y z
SIZE 4 4 4
TYPE F F F
COUNT 1 1 1
WIDTH 41
HEIGHT 1
VIEWPOINT 0 0 0 1
POINTS 41
DATA ascii
0.704227 2.757637 1.857767
0.765974 2.724682 1.855218
0.709541 2.356890 1.804778
0.789639 2.580585 1.777378
0.761038 2.338700 1.806514
0.780938 2.241181 1.747602
0.704592 2.608845 1.825026
0.758242 2.703107 1.854988
0.766163 2.588898 1.821754
0.784589 2.578886 1.784588
0.734262 2.738511 1.826233
0.794358 2.475663 1.753576
0.754458 2.720308 1.854923
0.804717 2.726637 1.826148
0.779834 2.595118 1.781522
0.682278 1.916563 1.788368
0.832258 2.593556 1.748597
0.884140 2.705175 1.865907
0.640847 1.964237 1.780915
0.726768 1.900298 1.789144
0.673449 2.000751 1.780697
0.725401 1.865593 1.773456
0.689132 1.959909 1.787934
0.742444 1.820679 1.731606
0.721084 1.978684 1.773367
0.734638 1.943711 1.785718
0.767736 1.955619 1.765022
0.744597 1.849260 1.713886
0.943458 3.619070 2.527868
0.701064 2.703489 1.773068
1.027162 3.600877 2.528637
0.780100 2.744845 1.813473
0.744756 2.423410 1.722015
0.844786 2.724433 1.816227
1.027919 3.176754 2.820091
0.945493 2.842669 2.651505
0.825587 2.483622 1.776626
0.662430 1.915474 1.727542
0.706034 1.899857 1.730331
0.761385 1.910101 1.757389
0.731579 1.802038 1.734221
