# .PCD v0.7 - Point Cloud Data file format
VERSION 0.7
FIELDS x y z
SIZE 4 4 4
TYPE F F F
COUNT 1 1 1
WIDTH 1007
HEIGHT 1
VIEWPOINT 0 0 0 1
POINTS 1007
DATA ascii
4.421257 -1.233469 2.744900
4.555809 -1.277704 2.100793
4.442685 -1.241720 2.784459
4.261163 -1.291709 2.655370
4.372365 -1.330159 2.033071
4.551038 -1.293850 1.955919
4.721696 -1.237544 1.873783
4.357223 -1.281886 2.587989
4.500796 -1.239600 2.640424
4.483995 -1.238867 2.516234
4.279530 -1.302038 2.703892
4.104985 -1.344962 2.569956
4.358410 -1.418790 1.499757
4.208827 -1.383599 1.975573
4.361582 -1.348347 1.890132
4.528268 -1.303078 1.811836
4.183075 -1.335198 2.499392
4.701159 -1.263687 1.719490
4.318683 -1.299969 2.554672
4.308822 -1.299218 2.433560
3.981630 -1.404203 2.504849
4.112347 -1.355368 2.621378
4.520289 -1.246475 2.468841
4.195731 -1.471249 1.448288
4.055211 -1.433028 1.922247
3.979688 -1.421766 2.737641
4.198015 -1.404815 1.836622
4.471515 -1.267087 2.372046
4.349748 -1.364594 1.756115
4.039744 -1.390487 2.428125
4.506681 -1.331261 1.662541
3.837304 -1.450466 2.427676
4.148462 -1.356337 2.476113
3.968003 -1.408692 2.553129
4.143563 -1.355564 2.356055
4.010035 -1.508776 1.389757
3.917506 -1.481437 1.876122
4.328167 -1.307888 2.382998
3.819403 -1.460070 2.654388
4.048357 -1.458267 1.789314
4.302244 -1.330478 2.299429
4.178164 -1.421108 1.703546
3.906343 -1.444777 2.362991
4.098423 -1.317993 2.977481
3.704880 -1.495731 2.358660
4.305165 -1.388867 1.603654
3.826597 -1.457020 2.486985
4.000158 -1.411902 2.291802
3.985171 -1.408708 2.401692
3.679983 -1.499363 2.583368
4.173841 -1.373282 2.319526
3.896693 -1.506725 1.740058
4.134920 -1.387876 2.227919
3.760930 -1.489087 2.291859
4.012524 -1.471611 1.652128
3.950312 -1.375260 2.894186
3.684166 -1.500354 2.419904
3.557458 -1.540655 2.523523
3.849738 -1.460253 2.223583
4.133555 -1.447405 1.554091
3.837769 -1.459064 2.335481
3.997564 -1.426707 2.243980
3.971507 -1.438282 2.159552
3.849843 -1.517116 1.601818
3.809085 -1.426530 2.816052
3.562626 -1.546676 2.365026
3.692323 -1.505433 2.271354
3.845131 -1.479115 2.181716
3.833989 -1.492662 2.104424
3.680761 -1.478822 2.749055
3.486586 -1.675553 1.101979
3.586082 -1.494519 2.773875
3.534880 -1.680677 1.000966
3.547415 -1.523106 2.677114
3.424772 -1.678378 1.166840
3.458748 -1.542829 2.707957
3.423963 -1.565402 2.613314
3.435905 -1.687016 1.111329
3.157856 -1.687642 2.013011
3.335346 -1.587145 2.645143
3.322536 -1.691990 1.454127
3.319428 -1.613709 2.563653
3.207668 -1.665003 1.947311
3.401656 -1.687993 1.359475
3.218873 -1.629466 2.587439
3.198900 -1.649015 2.501994
3.104351 -1.668805 2.532805
3.094285 -1.688331 2.452465
1.325739 -2.409361 0.443520
1.306970 -2.389931 0.374578
1.297345 -2.441381 0.163042
1.339377 -2.415875 0.376410
1.259209 -2.416846 0.439054
1.248516 -2.412371 0.370028
1.291456 -2.399315 0.388277
1.349910 -2.399340 0.301468
1.228769 -2.447886 0.160582
1.271828 -2.422372 0.372953
1.181319 -2.392740 0.727840
1.201752 -2.440316 0.438512
1.188278 -2.422246 0.792618
1.191077 -2.436800 0.364480
1.233998 -2.422766 0.385735
1.367652 -2.412755 0.223290
1.284980 -2.406564 0.391031
1.289453 -2.424842 0.302884
1.172280 -2.473339 0.160037
1.200892 -2.425809 0.730541
1.332999 -2.390344 0.391308
1.211356 -2.443868 0.373417
1.121903 -2.410180 0.720358
1.144267 -2.459776 0.437021
1.130848 -2.441721 0.791128
1.130612 -2.456256 0.359975
1.155998 -2.410268 0.745438
1.174549 -2.445226 0.382204
1.216444 -2.415297 0.661587
1.222501 -2.424048 0.388525
1.304176 -2.436281 0.225713
1.229980 -2.448329 0.303341
1.111746 -2.489808 0.158565
1.110025 -2.490237 0.086549
1.142481 -2.448302 0.730024
1.151885 -2.465350 0.372902
1.268503 -2.405856 0.390806
1.064506 -2.432636 0.715857
1.085786 -2.478236 0.434547
1.073406 -2.459189 0.788671
1.069104 -2.468699 0.353542
1.094555 -2.423738 0.739996
1.110027 -2.454704 0.377780
1.239162 -2.431773 0.594421
1.120270 -2.490374 0.096499
1.157016 -2.436802 0.662077
1.163037 -2.445524 0.387015
1.235647 -2.448822 0.226227
1.166475 -2.464842 0.303854
1.105323 -2.487493 0.097448
1.054254 -2.513262 0.157062
1.045461 -2.499705 0.082135
1.129654 -2.409688 0.748185
1.079993 -2.456780 0.725626
1.090388 -2.481845 0.372437
1.207046 -2.427354 0.390282
1.006082 -2.450080 0.709411
1.026277 -2.492711 0.433119
1.010911 -2.464661 0.783309
1.007616 -2.484163 0.349100
1.038627 -2.438600 1.154605
1.160808 -2.397648 0.753333
1.037144 -2.444193 0.735527
1.053577 -2.479155 0.375279
1.166648 -2.433312 0.590031
1.061774 -2.514851 0.096987
1.101550 -2.462004 0.384556
1.098602 -2.460303 0.662571
1.109690 -2.486598 0.095360
0.993716 -2.528734 0.155631
1.173159 -2.470345 0.228709
1.043793 -2.503962 0.094996
1.102974 -2.481358 0.304385
0.984924 -2.515150 0.077705
1.074251 -2.434165 0.747690
1.020543 -2.473279 0.725189
1.030882 -2.498328 0.371998
1.066180 -2.438049 1.090633
1.144548 -2.442857 0.389823
0.967780 -2.509182 0.431694
0.954474 -2.483135 0.781879
0.947655 -2.467534 0.703980
0.949123 -2.500599 0.343679
0.982242 -2.457098 1.154173
1.105407 -2.423142 0.754829
0.976683 -2.455657 0.730139
0.994100 -2.497617 0.371831
1.001244 -2.533340 0.097535
1.105239 -2.456842 0.591515
1.040174 -2.481805 0.663097
1.039047 -2.475492 0.382134
1.085783 -2.436525 1.022627
0.933174 -2.543207 0.154224
1.046148 -2.501097 0.094925
0.981246 -2.517438 0.092583
1.043499 -2.503860 0.305898
0.926420 -2.536594 0.074248
1.110690 -2.493874 0.231189
1.108098 -2.486741 0.092234
1.013811 -2.448640 0.743275
0.963121 -2.494777 0.725732
0.972401 -2.518816 0.372544
0.902061 -2.508600 0.782419
1.005791 -2.453564 1.089211
1.085075 -2.463352 0.390351
0.908285 -2.524662 0.430289
0.889246 -2.486991 0.698548
0.905429 -2.552685 1.396076
0.889649 -2.519054 0.339252
1.045967 -2.439635 0.753400
0.919272 -2.476125 0.726702
0.930566 -2.505094 0.367479
1.010767 -2.529866 0.030502
0.951789 -2.598967 1.448795
0.940716 -2.551830 0.098099
1.045840 -2.482375 0.594009
0.979554 -2.491984 0.381718
0.978747 -2.500335 0.663655
0.873647 -2.559682 0.152822
1.026438 -2.460069 1.024145
0.922735 -2.537906 0.091146
0.985642 -2.521589 0.094471
0.869923 -2.560032 0.070801
0.980986 -2.518378 0.306489
1.046569 -2.505261 0.094787
0.904685 -2.513282 0.725317
0.954369 -2.464134 0.740876
1.046176 -2.509412 0.232755
0.910888 -2.532324 0.372160
0.843583 -2.520087 0.780075
0.850810 -2.545149 0.429871
1.024590 -2.481865 0.390915
0.949447 -2.480112 1.092732
0.830796 -2.502455 0.693174
0.831951 -2.532083 1.368953
0.971014 -2.574962 1.444005
0.831154 -2.537522 0.335857
0.865427 -2.485100 1.149427
0.987512 -2.457137 0.751998
0.861815 -2.493603 0.723320
0.836575 -2.580398 -0.039509
0.872073 -2.524573 0.365075
0.949213 -2.548392 0.033086
0.853012 -2.509189 1.384181
0.879149 -2.566333 0.097728
0.921053 -2.512470 0.380305
0.982346 -2.497928 0.595611
0.916226 -2.510863 0.663313
0.814110 -2.579164 0.151426
0.862176 -2.554382 0.088766
0.809361 -2.575491 0.066436
0.924074 -2.537088 0.094088
0.963021 -2.476636 1.024742
0.919441 -2.533904 0.308108
0.846202 -2.530796 0.725939
0.896915 -2.484629 0.739471
0.980960 -2.513801 0.096443
0.851341 -2.546820 0.371804
0.787107 -2.538580 0.779704
0.981632 -2.524965 0.235354
0.791269 -2.558639 0.428531
0.964047 -2.496377 0.391543
0.888002 -2.492645 1.091383
0.769310 -2.513932 0.686848
0.762468 -2.519499 1.346804
0.877255 -2.498230 1.389307
0.772642 -2.555979 0.331482
0.658018 -2.051264 -0.066629
0.929021 -2.472642 0.751633
0.804355 -2.513088 0.720939
0.779030 -2.603859 -0.040924
0.813551 -2.542048 0.362706
0.887630 -2.563906 0.034712
0.789568 -2.510651 1.371935
0.819584 -2.583827 0.098354
0.861524 -2.528968 0.379936
0.755554 -2.596637 0.150064
0.921890 -2.520474 0.598179
0.856774 -2.533404 0.665893
0.804642 -2.576849 0.087360
0.748809 -2.592959 0.063069
0.864523 -2.556584 0.094694
0.788699 -2.546301 0.726596
0.840439 -2.503113 0.738101
0.859925 -2.554419 0.309705
0.731630 -2.558075 0.780341
0.903625 -2.506324 1.400271
0.899593 -2.491194 1.024372
0.793832 -2.568323 0.373408
0.921444 -2.538310 0.097998
0.734759 -2.579119 0.428155
0.923145 -2.552490 0.238886
0.903515 -2.511891 0.392177
0.824513 -2.496155 1.086120
0.711849 -2.533408 0.683482
0.702052 -2.527960 1.336524
0.816802 -2.502693 1.380049
0.712090 -2.567448 0.327175
0.667431 -2.245303 -0.075250
0.869535 -2.487148 0.750286
0.744852 -2.524566 0.716633
0.678675 -2.481566 -0.040211
0.753005 -2.554535 0.360386
0.827058 -2.581414 0.036341
0.723059 -2.498070 1.352817
0.759010 -2.599329 0.099008
0.800976 -2.541464 0.378613
0.697015 -2.617120 0.149691
0.798312 -2.554929 0.667499
0.745076 -2.593326 0.086013
0.859411 -2.538024 0.599798
0.804962 -2.574070 0.094331
0.690275 -2.614414 0.059688
0.732253 -2.570823 0.729192
0.675146 -2.575568 0.780005
0.837093 -2.493762 1.384142
0.778904 -2.508603 0.733839
0.799371 -2.568937 0.311366
0.733298 -2.583838 0.374068
0.678242 -2.598598 0.427802
0.861889 -2.557823 0.100611
0.841214 -2.517775 1.029931
0.859566 -2.563025 0.240564
0.843987 -2.528400 0.392820
0.654387 -2.552884 0.680130
0.750270 -2.488117 1.361950
0.584774 -2.328838 1.220864
0.654611 -2.591910 0.323781
0.811028 -2.499646 0.748975
0.688405 -2.547054 0.715257
0.695490 -2.574013 0.359031
0.768535 -2.606912 0.037920
0.829628 -2.588989 -0.031778
0.699474 -2.620827 0.099628
0.741453 -2.557956 0.377273
0.637449 -2.632599 0.148371
0.737790 -2.566453 0.668200
0.618641 -2.590059 0.779708
0.684524 -2.610804 0.083668
0.673750 -2.585336 0.729882
0.777640 -2.500254 1.378888
0.593929 -2.488045 0.053482
0.723451 -2.531092 0.733465
0.745406 -2.592567 0.094973
0.796916 -2.553582 0.602451
0.674754 -2.599336 0.374749
0.739857 -2.589453 0.312992
0.616653 -2.603091 0.425575
0.799303 -2.570347 0.102290
0.780799 -2.537348 1.033559
0.797010 -2.577564 0.243226
0.783444 -2.541914 0.393500
0.595922 -2.571367 0.676798
0.593022 -2.597384 0.319552
0.753563 -2.519167 0.750620
0.630926 -2.564547 0.713934
0.636974 -2.592489 0.356696
0.702864 -2.606449 0.039719
0.606206 -2.508459 0.095323
0.767053 -2.606527 -0.028135
0.522610 -2.412268 0.134944
0.683942 -2.578452 0.377920
0.562152 -2.607569 0.781398
0.678311 -2.584993 0.670859
0.613726 -2.584328 0.080689
0.615262 -2.601851 0.730569
0.665965 -2.547593 0.733150
0.685843 -2.610063 0.095639
0.462974 -2.202535 0.360600
0.512100 -2.206917 0.319676
0.736446 -2.574136 0.606082
0.679332 -2.607984 0.315647
0.740774 -2.593857 0.104901
0.724932 -2.561427 0.395149
0.718363 -2.551927 1.036240
0.735493 -2.598110 0.246854
0.535422 -2.582853 0.672535
0.431080 -2.152945 0.262950
0.698091 -2.539672 0.752276
0.572440 -2.580037 0.711640
0.506885 -2.310013 0.315784
0.579991 -2.386273 0.039285
0.509716 -2.356102 0.090387
0.660611 -2.468318 -0.022240
0.623396 -2.590950 0.376641
0.505676 -2.627081 0.783084
0.557770 -2.619376 0.733263
0.617817 -2.600539 0.673555
0.497840 -2.358056 0.073342
0.607486 -2.564103 0.732846
0.625287 -2.627558 0.095317
0.411364 -2.204972 0.358473
0.450271 -2.168367 0.312871
0.503404 -2.169681 0.265976
0.674963 -2.591689 0.608751
0.681197 -2.609361 0.106593
0.666406 -2.578938 0.396830
0.674977 -2.619649 0.250492
0.473707 -2.592952 1.206318
0.476952 -2.601344 0.670232
0.380483 -2.158366 0.259809
0.639571 -2.550178 0.752024
0.513966 -2.597537 0.710343
0.417451 -2.154474 0.292927
0.447162 -2.638587 0.782848
0.488164 -2.281469 0.331989
0.498260 -2.631898 0.734010
0.550993 -2.580596 0.732561
0.559331 -2.619070 0.676245
0.442074 -2.654583 0.426685
0.401715 -2.182819 0.314658
0.503301 -2.382322 0.088143
0.448732 -2.162142 0.264932
0.619628 -2.624890 0.109294
0.613477 -2.609259 0.613436
0.607873 -2.595449 0.398533
0.417240 -2.604461 1.206095
0.419522 -2.627846 0.669877
0.509260 -2.226436 0.217503
0.584097 -2.570692 0.754706
0.455469 -2.612036 0.709086
0.366848 -2.158905 0.290804
0.391712 -2.664109 0.786512
0.406870 -2.153917 0.312933
0.440779 -2.651431 0.737716
0.494549 -2.605119 0.735221
0.386642 -2.690084 0.429263
0.498862 -2.638636 0.680937
0.368624 -2.285290 0.327725
0.400210 -2.182606 0.267674
0.504774 -2.404621 0.102949
0.361786 -2.619989 1.208852
0.552007 -2.628822 0.617119
0.454174 -2.196943 0.339658
0.359021 -2.640341 0.666650
0.444391 -2.182938 0.214757
0.525595 -2.584218 0.756456
0.314482 -2.395233 0.277676
0.396978 -2.627533 0.707835
0.321405 -2.193341 0.292444
0.335246 -2.686636 0.790211
0.358294 -2.164351 0.312771
0.381260 -2.662961 0.739500
0.436025 -2.615624 0.735011
0.328119 -2.708585 0.429995
0.440398 -2.661186 0.685621
0.379131 -2.690906 0.383239
0.394322 -2.155379 0.332922
0.490527 -2.647402 0.622826
0.362695 -2.685053 1.191293
0.299551 -2.659854 0.666379
0.468094 -2.598737 0.758213
0.296433 -2.691764 0.306083
0.337502 -2.645049 0.707579
0.259887 -2.466872 -0.051033
0.338251 -2.660918 0.347428
0.280205 -2.678195 -0.118840
0.284687 -2.750891 -0.152467
0.274740 -2.698167 0.791013
0.278128 -2.739509 0.142633
0.315943 -2.216806 0.318266
0.323829 -2.691524 0.746154
0.377533 -2.631141 0.735772
0.267586 -2.724100 0.430763
0.220121 -2.329873 0.032110
0.319618 -2.711421 0.384960
0.378889 -2.673740 0.688401
0.347829 -2.180840 0.336642
0.295992 -2.645452 1.171530
0.428029 -2.661971 0.626582
0.239079 -2.678366 0.665130
0.411615 -2.618267 0.761943
0.261990 -2.432799 -0.071712
0.234934 -2.713259 0.303807
0.294909 -2.748929 -0.154426
0.248764 -2.380770 -0.085276
0.279022 -2.663564 0.708330
0.280800 -2.693422 0.349058
0.231852 -2.761114 -0.060629
0.227023 -2.767585 -0.125695
0.216259 -2.716699 0.793772
0.276533 -2.742337 0.104615
0.222113 -2.770362 -0.155727
0.216556 -2.754002 0.141421
0.327745 -2.674470 0.379303
0.264360 -2.712082 0.750888
0.319051 -2.648667 0.737530
0.208052 -2.740606 0.431538
0.218513 -2.351325 0.064956
0.205811 -2.757126 0.031376
0.259095 -2.729953 0.387711
0.319414 -2.694305 0.694129
0.257885 -2.239268 0.083003
0.316161 -2.717178 0.332910
0.353085 -2.537463 0.389547
0.296645 -2.656255 1.124448
0.366559 -2.682560 0.633303
0.308177 -2.745841 -0.170372
0.176583 -2.690884 0.662946
0.354110 -2.632793 0.764728
0.240149 -2.762986 -0.083621
0.252832 -2.342949 -0.077908
0.172392 -2.726753 0.300616
0.232214 -2.761885 -0.102619
0.232354 -2.771412 -0.156704
0.218534 -2.679089 0.708123
0.220290 -2.713931 0.348806
0.169304 -2.783600 -0.062898
0.162400 -2.777065 -0.129850
0.214984 -2.762851 0.105363
0.159491 -2.782834 -0.158904
0.275815 -2.717070 0.054853
0.153980 -2.768513 0.141228
0.269226 -2.695984 0.381044
0.202836 -2.723639 0.753720
0.259525 -2.660185 0.737362
0.146504 -2.755131 0.432351
0.200067 -2.755670 0.071411
0.198562 -2.749488 0.390476
0.142203 -2.767614 0.028222
0.257868 -2.703861 0.696976
0.240952 -2.555626 0.092235
0.254606 -2.733729 0.336697
0.311163 -2.671047 0.408333
0.258422 -2.274643 0.104743
0.250520 -2.770755 -0.119650
0.236182 -2.673869 1.132236
0.304026 -2.696141 0.638114
0.295588 -2.648333 0.767530
0.245589 -2.766352 -0.169618
0.247704 -2.269209 -0.068223
0.115074 -2.708412 0.662746
0.176555 -2.780497 -0.083834
0.241453 -2.759062 -0.092555
0.302747 -2.725963 0.274837
0.110877 -2.752262 0.300343
0.169616 -2.780376 -0.103840
0.169701 -2.781899 -0.157855
0.159001 -2.694610 0.708937
0.159765 -2.737444 0.349548
0.105680 -2.796080 -0.066060
0.097181 -2.740769 0.798454
0.099841 -2.802527 -0.134124
0.096922 -2.807294 -0.163169
0.152407 -2.781367 0.106146
0.216411 -2.767587 0.057353
0.091429 -2.791022 0.140983
0.207643 -2.707498 0.380887
0.142342 -2.746212 0.759474
0.201007 -2.678718 0.740149
0.084933 -2.769661 0.434178
0.272442 -2.750798 0.000578
0.137448 -2.767167 0.070259
0.135982 -2.762024 0.392316
0.079609 -2.784091 0.025032
0.197423 -2.735462 0.705646
0.199328 -2.749083 0.098503
0.253655 -2.698578 0.413037
0.193079 -2.757276 0.340436
0.254183 -2.721024 0.123829
0.253833 -2.759311 -0.184521
0.252852 -2.767551 -0.158594
0.174609 -2.672412 1.132201
0.239090 -2.671879 0.773274
0.185907 -2.786286 -0.117844
0.240472 -2.706727 0.642963
0.182982 -2.784848 -0.169835
0.052502 -2.714917 0.659652
0.244708 -2.754285 -0.082481
0.178872 -2.780562 -0.092797
0.113036 -2.811996 -0.085159
0.240172 -2.741524 0.279642
0.047309 -2.766758 0.297178
0.107145 -2.809386 -0.159143
0.105968 -2.789863 -0.105969
0.097477 -2.710145 0.709762
0.097197 -2.751953 0.348378
0.042148 -2.825567 -0.068360
0.035267 -2.825001 -0.138361
0.089797 -2.794881 0.106985
0.031355 -2.830775 -0.167415
0.153807 -2.783118 0.060168
0.148126 -2.733022 0.383620
0.027901 -2.817534 0.140713
0.142530 -2.705276 0.745877
0.022458 -2.801214 0.437867
0.207813 -2.761352 0.004431
0.074884 -2.788662 0.069031
0.073399 -2.774568 0.395168
0.015089 -2.812571 0.020746
0.134887 -2.750047 0.711475
0.136728 -2.763599 0.099332
0.193095 -2.715121 0.416847
0.130496 -2.770827 0.344274
0.194649 -2.748539 0.126540
0.190208 -2.774841 -0.181708
0.179585 -2.691438 0.778062
0.188197 -2.777098 -0.154728
0.122247 -2.794807 -0.115961
0.119426 -2.812360 -0.169120
0.179037 -2.740342 0.652624
0.182104 -2.771803 -0.080682
-0.010909 -2.751499 0.664305
0.049436 -2.830490 -0.086358
0.115251 -2.795076 -0.091966
0.176628 -2.762101 0.285415
-0.016271 -2.780269 0.296034
0.042555 -2.829876 -0.161359
0.041465 -2.824356 -0.108308
0.036993 -2.734688 0.712520
0.162360 -2.698373 1.091004
0.033641 -2.768476 0.348204
-0.022451 -2.843050 -0.071542
-0.029328 -2.844471 -0.142559
0.025278 -2.823417 0.108703
-0.033228 -2.853244 -0.171640
0.090208 -2.798647 0.061996
-0.035682 -2.835035 0.139534
0.019198 -2.762312 0.765271
0.085566 -2.748549 0.384452
-0.039093 -2.820738 0.439673
0.080996 -2.718820 0.747729
0.011896 -2.803111 0.398891
0.145243 -2.783900 0.009193
0.011259 -2.799163 0.067913
-0.048516 -2.828050 0.017589
0.074182 -2.788113 0.100084
0.072367 -2.767631 0.717290
0.132527 -2.730653 0.419677
0.066928 -2.786385 0.348107
0.131066 -2.765082 0.129359
0.120997 -2.697958 0.779977
0.126622 -2.797370 -0.178943
0.126656 -2.808613 -0.152042
0.058728 -2.828319 -0.115288
0.055803 -2.828868 -0.168296
-0.073443 -2.767024 0.664157
0.118477 -2.785336 -0.077835
0.115522 -2.758951 0.660428
-0.015186 -2.844998 -0.086510
0.050679 -2.817587 -0.092194
0.112032 -2.772666 0.289289
-0.079774 -2.808776 0.294768
-0.022069 -2.845373 -0.162517
-0.023157 -2.838846 -0.110457
-0.026513 -2.753252 0.715341
-0.087062 -2.859540 -0.073703
-0.028952 -2.779989 0.348087
0.098836 -2.704984 1.096920
-0.094945 -2.859939 -0.147710
-0.038316 -2.839935 0.109539
-0.098861 -2.866718 -0.175772
-0.100232 -2.858550 0.139314
0.026694 -2.830182 0.064693
0.024017 -2.768085 0.387260
0.020447 -2.731354 0.749602
-0.103669 -2.833275 0.440553
-0.052243 -2.832660 0.066601
-0.052641 -2.823684 0.403695
0.081710 -2.812444 0.012913
-0.115095 -2.846549 0.014416
0.010575 -2.801633 0.100946
0.070952 -2.744191 0.422537
0.003427 -2.814959 0.353836
0.068465 -2.779614 0.132208
0.061491 -2.718523 0.785779
-0.091969 -1.533862 1.739310
0.063060 -2.824897 -0.176211
0.061054 -2.827164 -0.148231
-0.006871 -2.846843 -0.114470
-0.008789 -2.850373 -0.168504
-0.079800 -2.861504 -0.086666
0.054888 -2.805866 -0.075039
-0.138970 -2.781581 0.665030
0.050990 -2.773558 0.667280
-0.013927 -2.835105 -0.091365
0.048555 -2.806258 0.296971
-0.087665 -2.865865 -0.164709
-0.087745 -2.860333 -0.112657
-0.146291 -2.833312 0.294549
-0.088060 -2.766780 0.716219
-0.092436 -2.811524 0.349802
-0.154625 -2.883039 -0.076914
-0.073825 -1.525949 1.750442
-0.161531 -2.881419 -0.151902
-0.103884 -2.860464 0.110352
-0.037568 -2.781599 0.388134
-0.037904 -2.846723 0.067535
-0.166806 -2.877078 0.139150
-0.167442 -2.888203 -0.180963
-0.040126 -2.739886 0.751524
-0.168222 -2.850818 0.442400
-0.117171 -2.846245 0.407493
-0.117808 -2.854170 0.065408
0.017131 -2.832993 0.016716
-0.052931 -2.834148 0.101650
-0.182648 -2.870052 0.011211
0.009384 -2.759736 0.426390
-0.060133 -2.833521 0.358666
0.004855 -2.792153 0.135087
0.000939 -2.730076 0.789672
-0.123619 -1.501903 1.700679
-0.001547 -2.844429 -0.173396
-0.071479 -2.865356 -0.113640
-0.004518 -2.851704 -0.145461
-0.074437 -2.861893 -0.167611
-0.147388 -2.881021 -0.087837
-0.009683 -2.829402 -0.072257
-0.078514 -2.856610 -0.091559
-0.013492 -2.798189 0.677055
-0.016014 -2.822827 0.301817
-0.154346 -2.878841 -0.113817
-0.155261 -2.885370 -0.166878
-0.212875 -2.845829 0.292451
-0.151675 -2.765297 0.714246
-0.157027 -2.823048 0.349709
-0.106386 -1.514220 1.736629
-0.222226 -2.900536 -0.080059
-0.230135 -2.898911 -0.156045
-0.169483 -2.876001 0.112222
-0.101088 -2.806154 0.391920
-0.234986 -2.918674 -0.186224
-0.234419 -2.887603 0.138072
-0.104500 -2.862277 0.070399
-0.233761 -2.871375 0.445232
-0.181737 -2.862803 0.411357
-0.047496 -2.845549 0.021603
-0.185405 -2.868694 0.064291
-0.117547 -2.846671 0.102545
-0.250238 -2.887552 0.008073
-0.052122 -2.787287 0.431148
-0.087086 -1.524278 1.742609
-0.126669 -2.854104 0.363490
-0.058655 -2.823697 0.138807
-0.155215 -1.482069 1.675950
-0.066189 -2.857958 -0.170515
-0.138114 -2.877893 -0.111742
-0.069181 -2.861244 -0.141543
-0.141051 -2.879417 -0.166758
-0.074307 -2.843937 -0.069382
-0.214022 -2.893530 -0.088932
-0.145134 -2.871129 -0.091678
-0.080577 -2.841412 0.308658
-0.222848 -2.907871 -0.169062
-0.221983 -2.890347 -0.115901
-0.281418 -2.865367 0.291303
-0.137081 -1.473201 1.692091
-0.222571 -2.843585 0.350546
-0.291818 -2.919045 -0.083199
-0.299710 -2.922398 -0.161229
-0.237076 -2.891542 0.113105
-0.166607 -2.829712 0.394727
-0.303632 -2.930163 -0.190300
-0.302962 -2.912139 0.137879
-0.171058 -2.885827 0.073204
-0.301329 -2.884947 0.448141
-0.247346 -2.870351 0.413316
-0.252007 -2.884207 0.063177
-0.114066 -2.867119 0.026422
-0.184135 -2.863206 0.103417
-0.114676 -2.805844 0.435997
-0.118757 -1.489345 1.707015
-0.319810 -2.908055 0.003921
-0.186754 -1.478399 1.670079
-0.123240 -2.841238 0.141666
-0.193237 -2.869686 0.368373
-0.132772 -2.881500 -0.167711
-0.205685 -2.902423 -0.110941
-0.135771 -2.882787 -0.138720
-0.208658 -2.897937 -0.166901
-0.139886 -2.866466 -0.067567
-0.211717 -2.893653 -0.090857
-0.284551 -2.924070 -0.089177
-0.346296 -2.893894 0.842105
-0.166688 -1.457416 1.675329
-0.147132 -2.860001 0.314511
-0.291441 -2.929376 -0.171225
-0.290568 -2.911855 -0.118062
-0.350983 -2.880909 0.290206
-0.290139 -2.858135 0.351452
-0.362377 -2.944556 -0.086391
-0.105273 -1.524699 1.738775
-0.305603 -2.920093 0.114881
-0.231159 -2.849260 0.397582
-0.370312 -2.940889 -0.166354
-0.372517 -2.934679 0.137718
-0.238637 -2.905383 0.076057
-0.375215 -2.952659 -0.195461
-0.370824 -2.912535 0.451935
-0.315841 -2.898952 0.419097
-0.319633 -2.894726 0.062123
-0.149383 -1.466528 1.685320
-0.181642 -2.887683 0.030262
-0.179219 -2.825414 0.440850
-0.251708 -2.882745 0.104275
-0.389389 -2.928563 0.000782
-0.217342 -1.463616 1.652319
-0.188808 -2.861784 0.144509
-0.260808 -2.884272 0.373278
-0.201377 -2.900046 -0.165848
-0.203378 -2.901344 -0.134858
-0.275257 -2.925966 -0.110117
-0.163959 -1.512579 1.673932
-0.278221 -2.924468 -0.167104
-0.207494 -2.883018 -0.064684
-0.354131 -2.946592 -0.090337
-0.280336 -2.908182 -0.090949
-0.197266 -1.444680 1.662551
-0.409990 -2.877401 0.839312
-0.362027 -2.951892 -0.173383
-0.214702 -2.875606 0.321405
-0.361136 -2.936365 -0.121238
-0.421525 -2.901464 0.290075
-0.357718 -2.871674 0.351381
-0.135036 -1.474639 1.691327
-0.434945 -2.968079 -0.089550
-0.375187 -2.937642 0.115772
-0.296764 -2.857806 0.399551
-0.442883 -2.965389 -0.171521
-0.443080 -2.956224 0.137578
-0.440341 -2.937121 0.455768
-0.307231 -2.921944 0.078951
-0.448797 -2.975166 -0.200608
-0.145741 -1.503692 1.684088
-0.384391 -2.917542 0.423981
-0.179017 -1.443721 1.665633
-0.391138 -2.927266 0.060881
-0.243801 -2.837974 0.444779
-0.249247 -2.903256 0.035162
-0.320266 -2.905297 0.106117
-0.247921 -1.450869 1.638549
-0.461966 -2.948090 -0.002333
-0.254428 -2.873330 0.147447
-0.329314 -2.911880 0.380076
-0.269960 -2.923597 -0.163019
-0.195543 -1.499874 1.664153
-0.271994 -2.917898 -0.131963
-0.344876 -2.941516 -0.108207
-0.347846 -2.939998 -0.167193
-0.275094 -2.901568 -0.061807
-0.425729 -2.965127 -0.091446
-0.227831 -1.434997 1.655753
-0.349916 -2.930714 -0.091101
-0.471725 -2.853876 0.834599
-0.433640 -2.969405 -0.176482
-0.284200 -2.904229 0.329193
-0.433683 -2.964884 -0.124437
-0.165638 -1.457930 1.681586
-0.428206 -2.902255 0.354165
-0.493060 -2.924021 0.289940
-0.507544 -2.986590 -0.093650
-0.441173 -2.933705 0.827905
-0.365314 -2.875381 0.402451
-0.446768 -2.955213 0.117678
-0.516473 -2.986885 -0.177646
-0.509939 -2.945691 0.457763
-0.175372 -1.485957 1.673352
-0.377796 -2.943525 0.082813
-0.516653 -2.973789 0.137491
-0.520457 -2.984667 -0.204622
-0.208598 -1.434035 1.659832
-0.454931 -2.937145 0.428870
-0.308377 -2.852540 0.449702
-0.461723 -2.945798 0.059780
-0.318817 -2.924839 0.040020
-0.389860 -2.920846 0.107039
-0.535536 -2.969610 -0.006453
-0.322036 -2.885887 0.150391
-0.398865 -2.930484 0.385970
-0.225185 -1.477063 1.644475
-0.339575 -2.941154 -0.160121
-0.341585 -2.939464 -0.128102
-0.416447 -2.966066 -0.107366
-0.256438 -1.420233 1.642005
-0.418437 -2.962529 -0.167334
-0.344670 -2.924119 -0.059952
-0.497329 -2.984657 -0.092551
-0.421483 -2.955256 -0.091259
-0.505329 -2.975408 -0.126456
-0.195274 -1.434143 1.663919
-0.353793 -2.914845 0.336161
-0.499744 -2.922833 0.356056
-0.566607 -2.943591 0.289847
-0.503921 -2.908203 0.825221
-0.434812 -2.903964 0.406262
-0.204999 -1.467209 1.660635
-0.519312 -2.980784 0.119522
-0.449367 -2.964101 0.085698
-0.590238 -2.990341 0.136427
-0.598962 -3.022178 -0.211880
-0.238198 -1.417311 1.649107
-0.527439 -2.962775 0.435717
-0.375888 -2.878133 0.455536
-0.534292 -2.967341 0.058666
-0.460412 -2.945397 0.107889
-0.389383 -2.947427 0.044882
-0.466402 -2.975851 0.801639
-0.610143 -2.984146 -0.009492
-0.392536 -2.918478 0.155163
-0.471355 -2.960123 0.393776
-0.411156 -2.964711 -0.158264
-0.286021 -1.407507 1.631251
-0.489039 -2.986622 -0.106474
-0.414144 -2.966039 -0.125272
-0.415263 -2.943684 -0.057057
-0.569019 -2.986192 -0.093473
-0.494077 -2.974803 -0.091355
-0.224872 -1.418445 1.656185
-0.424317 -2.939471 0.344012
-0.571308 -2.939400 0.356998
-0.641161 -2.962156 0.288779
-0.232655 -1.446422 1.645941
-0.500507 -2.910148 0.801308
-0.656802 -3.011654 -0.099691
-0.504397 -2.915541 0.409244
-0.592896 -2.998362 0.121455
-0.521944 -2.983691 0.089606
-0.664821 -3.007906 0.136369
-0.266807 -1.400560 1.636388
-0.599041 -2.970374 0.439747
-0.443454 -2.893716 0.460476
-0.450275 -2.935506 0.864107
-0.610827 -2.993908 0.057522
-0.459978 -2.965013 0.049803
-0.532003 -2.961954 0.108828
-0.527295 -2.922287 0.793231
-0.462106 -2.939051 0.159058
-0.541968 -2.966724 0.398811
-0.559716 -2.992165 -0.105429
-0.484790 -2.977610 -0.121290
-0.487833 -2.967259 -0.054184
-0.647526 -3.021760 -0.094696
-0.567683 -2.992356 -0.091418
-0.253486 -1.400731 1.647477
-0.496846 -2.962109 0.351896
-0.653565 -3.007468 -0.131550
-0.261270 -1.431719 1.639201
-0.646797 -2.970015 0.360823
-0.719687 -2.984763 0.289690
-0.564205 -2.894658 0.799554
-0.575941 -2.935137 0.413166
-0.294425 -1.383817 1.625675
-0.597472 -3.012287 0.092445
-0.745323 -3.039504 0.136196
-0.672602 -2.985991 0.444716
-0.503312 -2.857791 0.844926
-0.513000 -2.912320 0.466402
-0.533527 -2.990625 0.055665
-0.606564 -2.983537 0.110737
-0.533696 -2.954630 0.162015
-0.616497 -2.988374 0.406721
-0.555453 -2.986179 -0.117266
-0.637252 -3.022746 -0.104600
-0.639290 -3.013177 -0.167507
-0.559451 -2.982818 -0.052224
-0.281113 -1.380992 1.636795
-0.288908 -1.411965 1.627516
-0.569400 -2.980755 0.360831
-0.721382 -2.981599 0.361842
-0.567517 -2.952522 0.764119
-0.648491 -2.953736 0.417112
-0.745056 -3.034545 0.125359
-0.585496 -2.939949 0.473257
-0.606165 -2.999223 0.060702
-0.681151 -3.001109 0.111697
-0.607246 -2.978225 0.165911
-0.629022 -3.014412 -0.150415
-0.632976 -3.019777 -0.114458
-0.644940 -3.000411 0.368774
-0.796978 -2.991189 0.362897
-0.856121 -2.950623 0.693315
-0.721069 -2.967335 0.421118
-0.877808 -3.018958 0.289663
-0.892543 -3.057859 0.482319
-0.746725 -3.032479 0.099515
-0.757726 -3.020700 0.113654
-0.682726 -3.021852 0.066623
-0.681794 -3.002823 0.169812
-0.722451 -3.025100 0.378688
-0.883368 -3.038886 0.368612
-0.908159 -3.055979 0.465499
-0.765173 -3.065516 0.072360
-0.850076 -3.055389 0.431520
-0.792198 -3.009692 0.383981
-0.828094 -3.015001 0.176994
-0.927678 -3.067040 0.438570
-0.877628 -3.052442 0.396741
-0.960273 -3.035140 0.508112
-2.323580 4.393536 1.019706
-2.325941 4.457300 1.018196
-2.404382 4.528260 1.053813
-2.331333 4.526022 1.015712
-2.287174 4.207398 1.103501
-2.389070 4.642564 1.000727
0.199513 3.453259 2.154371
0.154985 3.525074 2.135978
0.080122 3.905909 2.094409
0.105111 3.633557 2.147921
0.235605 3.045230 2.178671
0.295308 3.696538 2.306888
0.053136 3.757126 2.148993
0.088908 3.915460 2.141553
0.305811 3.019781 2.171646
0.244039 2.989259 2.175245
0.155566 4.041454 2.301888
0.400226 3.186272 2.301476
0.312201 2.969789 2.169280
0.257461 2.935306 2.172870
0.397055 3.088540 2.263647
0.323522 2.927779 2.172021
0.256633 2.913237 2.172747
0.400767 3.004775 2.233989
0.321637 2.912696 2.172964
0.324796 2.880330 2.214684
0.402951 2.743161 2.188637
0.397766 3.001645 2.240041
0.391103 2.849023 2.190641
0.607761 1.874448 2.306874
0.644991 1.851754 2.302907
