# .PCD v0.7 - Point Cloud Data file format
VERSION 0.7
FIELDS x y z
SIZE 4 4 4
TYPE F F F
COUNT 1 1 1
WIDTH 324
HEIGHT 1
VIEWPOINT 0 0 0 1
POINTS 324
DATA ascii
2.311031 -0.759749 2.570381
2.296938 -0.811728 2.570979
2.277817 -0.862615 2.567641
2.252663 -0.911388 2.559387
2.219443 -0.955960 2.541263
1.498544 1.748895 1.088190
1.486924 1.735169 1.144150
1.564666 1.744596 1.076866
1.537270 1.736607 1.019909
1.509897 1.738341 1.121112
1.575003 1.745239 0.957831
1.563896 1.738199 1.104847
1.556355 1.735372 1.165929
1.661320 1.763454 1.109775
1.616747 1.772896 1.170182
1.611687 1.733835 1.037634
1.653419 1.739456 0.974505
1.662588 1.759986 1.141786
1.722531 1.762482 0.592525
1.695870 1.752716 0.658557
1.666649 1.751044 0.788731
1.712519 1.743351 0.606331
1.677016 1.752255 1.185739
1.741756 1.760588 1.131476
1.690624 1.741228 0.625435
1.718408 1.759584 1.073593
1.663748 1.742196 0.640624
1.751004 1.751398 1.001327
1.740015 1.755112 1.165475
1.710293 1.741583 1.216506
1.742071 1.758280 0.458548
1.743057 1.750292 0.804474
1.782314 1.753924 0.672288
1.807935 1.757741 0.603187
1.763560 1.757176 1.219518
1.828232 1.761626 1.157204
1.771027 1.737492 0.638128
1.797945 1.741581 0.619030
1.791750 1.746842 1.090202
1.742173 1.739416 0.657338
1.802271 1.756100 0.303223
1.829533 1.759072 1.195230
1.848539 1.756361 1.027066
1.849079 1.771600 0.246190
1.798837 1.750521 1.248326
1.843604 1.769501 0.325247
1.856274 1.759063 0.280021
1.808651 1.760597 0.335350
1.824475 1.758575 0.468284
1.829519 1.754431 0.823243
1.881842 1.763973 0.691081
1.852089 1.759073 1.254254
1.909442 1.763821 0.618925
1.926776 1.767513 1.187950
1.852413 1.731753 0.650795
1.851093 1.773236 0.201352
1.885258 1.750820 1.116944
1.900470 1.750639 0.635800
1.819561 1.732660 0.673008
1.898726 1.760329 0.310957
1.921035 1.760008 1.225942
1.949874 1.785074 -0.043005
1.941001 1.754392 1.050739
1.951534 1.775832 0.250901
1.866134 1.735810 1.265934
1.923929 1.757885 0.329846
1.941623 1.751428 0.283650
1.942436 1.777845 0.046001
1.962077 1.772532 -0.011190
1.891034 1.754894 0.345015
1.911918 1.751630 0.839942
1.937069 1.780580 0.484176
1.921776 1.772297 0.094102
1.935524 1.752082 1.283901
1.969221 1.756198 0.703703
1.935451 1.768607 0.205022
2.029326 1.772334 1.221668
1.974468 1.769831 0.031800
1.961990 1.745695 0.672601
1.969651 1.742937 1.138575
1.931197 1.752515 0.699880
1.951117 1.783140 -0.047876
2.016944 1.768866 0.634629
1.983820 1.739906 0.647400
1.952982 1.782487 -0.072891
1.951473 1.777203 0.017058
1.991124 1.758605 0.317633
2.018551 1.761879 1.258644
1.956652 1.741712 1.299711
2.056290 1.790412 -0.047296
2.037448 1.749400 1.074363
2.061000 1.783021 0.255622
2.051542 1.782863 0.340719
2.070224 1.775428 0.292505
2.072517 1.780829 -0.014460
2.045845 1.779162 0.044674
2.000583 1.769938 0.359835
2.016473 1.764552 0.865754
2.024443 1.776848 0.493847
2.004112 1.762670 0.098721
2.033072 1.753853 1.323605
2.044943 1.781782 0.210818
2.083778 1.767111 0.725454
2.016593 1.744670 0.718511
2.076875 1.772141 0.031489
2.122750 1.764310 1.249265
2.073182 1.746783 1.170282
2.063470 1.747725 0.692293
2.047509 1.782476 -0.047200
2.101387 1.752814 0.668163
2.057925 1.787470 0.017829
2.022216 1.758009 -0.072405
2.126429 1.771887 0.651301
2.053165 1.745577 1.333443
2.115028 1.758761 1.291291
2.096574 1.761767 0.326323
2.141923 1.746315 1.100982
2.164389 1.778257 0.260223
2.146898 1.775140 0.346313
2.090961 1.763175 0.370460
2.162548 1.763754 0.296063
2.143199 1.773509 0.044286
2.176880 1.776173 -0.017862
2.112915 1.764606 0.886440
2.111790 1.769121 0.503470
2.131684 1.785725 0.104572
2.134622 1.755573 1.365295
2.149367 1.787010 0.215536
2.120100 1.749618 0.743232
2.197286 1.773051 0.746149
2.221186 1.757226 1.278857
2.172962 1.750692 0.712967
2.187289 1.774401 0.031150
2.180690 1.746608 1.201927
2.151264 1.781846 0.017456
2.214875 1.755783 0.686822
2.233866 1.768928 0.667910
2.141575 1.739574 1.362086
2.213484 1.751621 1.324884
2.210033 1.766879 0.335007
2.254428 1.745124 1.131596
2.290886 1.787297 0.267906
2.195405 1.764277 0.384131
2.259335 1.777261 0.354965
2.210331 1.761657 0.907086
2.260623 1.778739 0.042957
2.272945 1.759934 0.301651
2.218233 1.773225 0.516169
2.237132 1.752306 1.405923
2.248719 1.778278 0.220107
2.225578 1.749558 0.767887
2.299683 1.766115 0.763729
2.280406 1.748692 0.732589
2.329658 1.752022 1.312437
2.248600 1.774184 0.018047
2.287163 1.743445 1.233539
2.293649 1.769694 0.030742
2.240051 1.738406 1.397752
2.327322 1.753765 0.705425
2.355343 1.768849 0.686504
2.319965 1.746387 1.361473
2.317423 1.762038 0.343595
2.378982 1.747783 1.167213
2.302836 1.764363 0.397779
2.410291 1.784421 0.273472
2.310749 1.758663 0.929722
2.367710 1.771430 0.362537
2.326654 1.773306 0.529813
2.405436 1.767925 0.310301
2.337600 1.744058 1.446499
2.367154 1.784406 0.225787
2.332029 1.746496 0.792502
2.412106 1.761087 0.783297
2.339493 1.733250 1.432367
2.393853 1.745628 0.754178
2.402659 1.741182 1.268131
2.441731 1.746754 0.722962
2.479802 1.766743 0.706063
2.444892 1.766023 0.355217
2.424222 1.760528 0.956370
2.425319 1.769309 0.414432
2.435048 1.770391 0.543421
2.539710 1.782468 0.280014
2.506213 1.780342 0.374177
2.433743 1.763481 0.120318
2.536871 1.768944 0.317871
2.447504 1.744335 0.820098
2.539882 1.728831 1.438542
2.569300 1.762048 0.365755
2.535696 1.760372 0.428964
2.561505 1.774316 0.560046
2.626946 1.735144 1.237239
2.632600 1.775386 0.382696
2.550120 1.758617 0.126876
2.544478 1.719506 1.529537
2.559446 1.726650 1.512568
2.647631 1.731469 1.345207
2.710241 1.745685 1.440094
2.700626 1.745870 1.502206
2.654719 1.706634 1.542036
2.709272 1.737367 1.605209
2.798393 1.744570 0.853830
2.771144 1.728126 0.827733
2.836649 1.731302 1.481517
2.814980 1.726595 1.541616
2.846057 1.733126 0.793464
2.767370 1.735223 1.032961
2.798317 1.712902 1.599644
2.823666 1.719978 1.652645
2.818802 1.725675 0.909679
2.922564 1.716499 1.432143
2.898486 1.710982 0.852125
3.003269 1.734387 1.542004
2.966536 1.722809 1.600079
2.928500 1.743372 0.603501
3.042478 1.734840 0.796833
2.936814 1.708286 1.652145
2.983323 1.723953 1.724173
3.117172 1.751339 0.310740
3.094266 1.729923 0.350579
3.076049 1.707837 1.481543
3.073028 1.715361 0.888601
3.162781 1.725589 1.598379
3.123072 1.715971 1.660490
3.101007 1.752933 0.628045
3.147821 1.737668 0.415574
3.083316 1.703583 1.707618
3.222062 1.746000 0.429422
3.135876 1.717043 1.791601
3.232841 1.696807 1.414814
3.276673 1.725605 0.362924
3.248521 1.712731 0.925993
3.265405 1.747603 0.649446
3.311165 1.723436 0.430874
3.247882 1.701627 1.773060
3.416505 1.746537 0.446781
3.447842 1.748119 0.673851
3.511600 1.721927 0.449191
2.304721 -0.724235 2.597594
2.281691 -0.773915 2.591257
2.253665 -0.821501 2.579960
2.223644 -0.868058 2.568691
2.312462 -0.960564 2.582520
1.538185 1.758349 1.134005
1.551413 1.747656 1.110004
1.607286 1.753305 1.156509
1.625510 1.749627 1.131623
1.642945 1.757873 0.737811
1.700268 1.771150 1.193425
1.716517 1.765513 1.164506
1.714668 1.753858 0.663356
1.720111 1.758918 0.752450
1.776342 1.767106 1.219013
1.791375 1.770632 0.419114
1.785652 1.754545 1.181979
1.806882 1.771443 0.346243
1.801270 1.759970 0.768127
1.792848 1.749905 0.678965
1.874307 1.778958 1.258924
1.876603 1.771758 0.427827
1.872692 1.758495 1.210733
1.894341 1.780665 0.156031
1.889127 1.767566 0.354890
1.895395 1.768011 0.787974
1.872024 1.744963 0.694579
1.946921 1.779447 0.094452
1.958347 1.774909 1.288588
1.957745 1.757475 1.237433
1.990618 1.786872 0.158882
1.968101 1.765208 -0.066502
2.004853 1.791888 -0.029970
1.975370 1.762697 0.364566
1.978558 1.763090 0.803625
1.983100 1.763974 0.720664
2.042211 1.781658 0.097264
2.055329 1.777821 1.325422
2.075011 1.786047 0.449597
2.050776 1.758450 1.267219
2.090622 1.779121 0.829695
2.095187 1.787135 -0.031256
2.092543 1.781843 0.378704
2.075246 1.762046 0.739420
2.153298 1.778736 1.363251
2.144789 1.757418 1.299002
2.181216 1.790215 0.461522
2.215160 1.808369 0.165936
2.188752 1.777210 0.849504
2.183783 1.774007 0.388406
2.179351 1.765099 0.763321
2.248299 1.771696 1.397995
2.247788 1.757399 1.332872
2.283428 1.788399 0.472367
2.294858 1.778304 0.871408
2.296980 1.779188 0.401403
2.297421 1.774160 0.790391
2.350078 1.779383 0.107835
2.353251 1.767627 1.438853
2.352770 1.755375 1.368747
2.391627 1.787594 0.484276
2.398955 1.775396 0.894267
2.412171 1.781377 0.415397
2.393569 1.762272 0.810112
2.468366 1.779677 0.111841
2.520792 1.795813 0.499438
2.518056 1.781165 0.175280
2.535359 1.782588 0.430454
2.588655 1.775981 0.116837
2.562167 1.746546 1.519470
2.573709 1.745367 1.443555
2.646335 1.781502 0.179376
2.729813 1.770298 1.595091
2.843737 1.753277 1.639942
2.826497 1.739311 1.535682
2.888854 1.742734 0.924208
2.983536 1.748192 1.698110
2.958408 1.729338 1.580747
3.146235 1.748061 1.768517
3.120173 1.731284 1.642161
3.208683 1.773232 0.578170
3.317896 1.744926 1.843982
3.285932 1.728255 1.704577
3.403760 1.782608 0.602925
3.412370 1.755335 0.538799
3.601495 1.749742 0.562400
