# .PCD v0.7 - Point Cloud Data file format
VERSION 0.7
FIELDS x y z
SIZE 4 4 4
TYPE F F F
COUNT 1 1 1
WIDTH 70
HEIGHT 1
VIEWPOINT 0 0 0 1
POINTS 70
DATA ascii
-0.409497 -2.041899 2.242911
-0.392055 -1.636585 1.783555
-0.420791 -1.604356 1.751612
-0.440191 -1.585336 1.746634
-0.371252 -1.681491 1.724837
-0.450661 -1.579196 1.727596
-0.346872 -1.703197 1.790123
-0.470022 -1.560176 1.721629
-0.403207 -1.657370 1.707797
-0.482762 -1.565144 1.717487
-0.377881 -1.679090 1.775085
-0.502038 -1.543104 1.707556
-0.435280 -1.638304 1.696720
-0.512750 -1.545053 1.700459
-0.408926 -1.657008 1.762040
-0.464217 -1.611184 1.676752
-0.495833 -1.546596 1.743851
-0.533017 -1.523030 1.691530
-0.541747 -1.523973 1.683458
-0.438956 -1.632930 1.748031
-0.521718 -1.517470 1.719951
-0.564090 -1.506992 1.679472
-0.569737 -1.501896 1.665483
-0.465871 -1.601805 1.726121
-0.550788 -1.497440 1.707950
-0.592007 -1.481904 1.658536
-0.599800 -1.482873 1.653473
-0.494943 -1.578762 1.714131
-0.578828 -1.475406 1.693986
-0.622055 -1.462882 1.645533
-0.520957 -1.550694 1.697222
-0.627850 -1.462835 1.638495
-0.604834 -1.450360 1.677076
-0.651160 -1.444882 1.634534
-0.548117 -1.529691 1.688244
-0.657018 -1.446856 1.630475
-0.631927 -1.429358 1.665126
-0.574247 -1.506682 1.677304
-0.678134 -1.419847 1.616634
-0.684056 -1.423841 1.615553
-0.640853 -1.417539 1.682199
-0.657008 -1.406350 1.651219
-0.598306 -1.479647 1.661427
-0.708261 -1.402882 1.607634
-0.712172 -1.404861 1.604588
-0.665883 -1.392524 1.666318
-0.684137 -1.386381 1.641276
-0.623450 -1.455665 1.651521
-0.736368 -1.382913 1.596688
-0.737236 -1.380864 1.589706
-0.648612 -1.433689 1.641603
-0.711316 -1.367442 1.634328
-0.762426 -1.358935 1.582809
-0.764413 -1.361923 1.581763
-0.714955 -1.342520 1.634593
-0.670747 -1.407699 1.628756
-0.736484 -1.346496 1.625424
-0.788483 -1.336944 1.566916
-0.787489 -1.334955 1.567945
-0.734973 -1.313499 1.614818
-0.687826 -1.280824 1.629783
-0.693966 -1.385752 1.620866
-0.760671 -1.325556 1.616532
-0.727093 -1.292831 1.619431
-0.716131 -1.360793 1.610025
-0.763340 -1.362159 1.547409
-0.738365 -1.338859 1.602157
-0.790606 -1.344273 1.544467
-0.759550 -1.313924 1.592318
-0.814820 -1.322366 1.537577
