# .PCD v0.7 - Point Cloud Data file format
VERSION 0.7
FIELDS x y z
SIZE 4 4 4
TYPE F F F
COUNT 1 1 1
WIDTH 97
HEIGHT 1
VIEWPOINT 0 0 0 1
POINTS 97
DATA ascii
-0.679054 -2.010354 -0.068364
-0.684162 -2.015205 0.009591
-0.685021 -2.006306 -0.076311
-0.688187 -2.013439 0.029617
-0.643922 -2.017009 -0.084331
-0.728795 -2.009665 -0.066305
-0.678973 -2.008319 0.020812
-0.733916 -2.012534 0.013672
-0.735739 -2.010621 -0.074309
-0.687681 -2.013161 -0.094242
-0.736937 -2.011730 0.030686
-0.648616 -2.012730 -0.116150
-0.689723 -2.004291 -0.083138
-0.690851 -2.008073 -0.009175
-0.649691 -2.006032 -0.088071
-0.684682 -2.021468 0.029797
-0.730684 -2.013635 0.022803
-0.780522 -2.010981 -0.064271
-0.782687 -2.006842 0.016783
-0.786483 -2.008942 -0.071243
-0.786687 -2.010031 0.032751
-0.737423 -2.011459 -0.093173
-0.792951 -2.022833 0.201620
-0.741567 -2.012362 -0.009174
-0.697364 -2.009004 -0.117058
-0.742413 -2.012592 -0.083181
-0.699475 -2.014758 -0.046117
-0.700417 -2.005315 -0.089011
-0.652409 -2.005048 -0.090911
-0.657267 -2.005480 -0.147915
-0.661310 -2.011962 -0.103981
-0.732470 -2.010751 0.030965
-0.687420 -2.017511 0.029990
-0.780435 -2.010925 0.023879
-0.834229 -2.016291 -0.063286
-0.834420 -2.009171 0.020801
-0.836245 -2.004241 -0.069146
-0.838424 -2.010339 0.034792
-0.741700 -2.006161 0.161034
-0.788159 -2.010746 -0.093119
-0.792308 -2.010646 -0.009109
-0.748229 -2.010014 -0.048016
-0.751046 -2.017287 -0.119101
-0.795128 -2.015898 -0.082171
-0.751137 -2.007593 -0.089989
-0.705097 -2.011318 -0.093930
-0.708967 -2.008735 -0.151900
-0.711058 -2.006227 -0.105867
-0.818687 -1.995181 0.220104
-0.782225 -2.006028 0.031064
-0.735192 -2.009770 0.029124
-0.881031 -2.004570 -0.061115
-0.832175 -2.010230 0.025931
-0.885183 -2.004478 0.023894
-0.890947 -2.011560 -0.067189
-0.890169 -2.009640 0.036839
-0.793431 -2.006443 0.161077
-0.840888 -2.010038 -0.093068
-0.743329 -2.003628 0.107205
-0.845026 -2.013935 -0.009104
-0.846452 -2.018222 0.209861
-0.798967 -2.008286 -0.048953
-0.845883 -2.011190 -0.081076
-0.799820 -2.007552 -0.119948
-0.804837 -2.011870 -0.091991
-0.757801 -2.013572 -0.097907
-0.760684 -2.008996 -0.154856
-0.762769 -2.008486 -0.108846
-0.835931 -2.011319 0.031047
-0.785930 -2.008039 0.028187
-0.881950 -2.002520 0.028057
-0.936939 -2.001786 0.026960
-0.944895 -2.011950 0.038849
-0.843186 -2.002700 0.160159
-0.889659 -2.003304 -0.092955
-0.796042 -2.006904 0.106213
-0.893814 -2.003209 -0.007945
-0.895650 -2.004461 -0.080963
-0.853665 -2.013562 -0.050970
-0.852536 -2.009820 -0.121933
-0.856574 -2.010143 -0.092932
-0.809530 -2.011827 -0.100845
-0.813398 -2.009246 -0.158816
-0.814494 -2.007740 -0.111795
-0.886688 -2.006590 0.031138
-0.940622 -2.015848 0.029942
-0.838663 -2.005302 0.026260
-0.892962 -1.992952 0.159306
-0.844821 -1.996144 0.104374
-0.903440 -2.003819 -0.051824
-0.861265 -2.009075 -0.103775
-0.864149 -2.002492 -0.161701
-0.865254 -1.998995 -0.113657
-0.942403 -2.009891 0.032135
-0.889417 -2.000560 0.025350
-0.898550 -1.994404 0.102431
-0.954267 -1.995678 0.101449
