# .PCD v0.7 - Point Cloud Data file format
VERSION 0.7
FIELDS x y z
SIZE 4 4 4
TYPE F F F
COUNT 1 1 1
WIDTH 25
HEIGHT 1
VIEWPOINT 0 0 0 1
POINTS 25
DATA ascii
-1.367955 2.206431 1.491151
-1.280817 2.165007 1.522013
-1.330895 2.256468 1.505278
-1.814787 3.270003 2.265667
-1.297816 2.317451 1.526501
-1.355956 2.406881 1.508817
-1.273766 2.400299 1.562902
-1.315933 2.468929 1.529925
-1.154761 2.292524 1.476114
-1.275904 2.532973 1.553040
-1.322182 2.635514 1.535259
-1.157804 2.432160 1.476301
-1.275146 2.704601 1.561332
-1.234724 2.724507 1.411846
-1.227563 2.711506 1.407868
-1.223460 2.702513 1.405856
-1.207311 2.810610 1.420028
-1.580930 3.610321 2.064334
-1.199912 2.822475 1.444208
-1.212803 2.856172 1.466732
-1.217690 2.867039 1.477939
-1.200718 2.991141 1.491182
-1.181220 2.972178 1.502048
-1.174976 2.955161 1.501059
-1.171783 2.945142 1.504053
