# .PCD v0.7 - Point Cloud Data file format
VERSION 0.7
FIELDS x y z
SIZE 4 4 4
TYPE F F F
COUNT 1 1 1
WIDTH 22
HEIGHT 1
VIEWPOINT 0 0 0 1
POINTS 22
DATA ascii
-0.669341 1.478035 1.818910
-0.679533 1.507959 1.811958
-0.643063 1.505048 1.830474
-0.651234 1.535985 1.822554
-0.615796 1.533055 1.845048
-0.624014 1.569977 1.840160
-0.588558 1.564052 1.861630
-0.593716 1.599005 1.852767
-0.634349 1.569698 1.835490
-0.628382 1.596654 1.842743
-0.562392 1.599023 1.884210
-0.565553 1.636977 1.877386
-0.605085 1.597708 1.853076
-0.598102 1.624676 1.858338
-0.531039 1.622075 1.892780
-0.573767 1.622743 1.866663
-0.533259 1.667009 1.892003
-0.564748 1.648728 1.869940
-0.500763 1.650095 1.909346
-0.542476 1.649768 1.883243
-0.532467 1.676751 1.887533
-0.510212 1.677780 1.901840
