# .PCD v0.7 - Point Cloud Data file format
VERSION 0.7
FIELDS x y z
SIZE 4 4 4
TYPE F F F
COUNT 1 1 1
WIDTH 99
HEIGHT 1
VIEWPOINT 0 0 0 1
POINTS 99
DATA ascii
-2.231692 5.220346 1.291002
-1.082284 2.848475 1.685133
-1.032971 2.908661 1.707081
-1.144191 2.905253 1.651466
-0.983700 2.976753 1.735153
-0.932438 3.040880 1.761170
1.424046 2.635333 0.869752
1.482224 2.588329 0.863607
4.620528 1.571479 4.166871
1.975806 -0.781661 2.800260
1.956495 -0.821375 2.791726
1.936197 -0.861092 2.783193
2.475371 -2.785619 2.964768
0.477998 -1.783354 2.007205
0.532872 -1.764599 2.061675
0.579573 -1.730833 2.109220
0.447729 -1.826862 2.050933
0.498576 -1.786835 2.077596
0.407429 -1.836023 2.055990
0.521242 -1.778224 2.040007
0.557947 -1.741438 2.081536
0.463285 -1.807048 2.090542
0.513033 -1.778200 2.133034
0.454009 -1.834164 2.003344
0.481916 -1.781251 2.032110
0.369669 -1.870160 1.961827
0.524648 -1.759550 2.085494
0.371823 -1.886012 1.948682
0.414711 -1.846349 2.010376
0.450659 -1.815582 2.057934
0.487338 -1.765538 2.074570
0.338560 -1.927500 1.987442
0.332446 -1.907642 1.998639
0.374436 -1.859553 2.018411
0.477218 -1.873579 2.182725
0.410364 -1.820643 2.052037
0.296203 -1.924610 1.983628
0.501850 -2.599319 2.966611
0.290153 -1.917895 2.009712
0.362179 -1.910286 1.990023
0.380683 -1.889072 1.988574
0.321861 -1.917436 1.991115
0.398123 -1.868664 1.965046
0.342431 -1.910307 1.999542
0.362941 -1.907018 1.989863
0.504026 -2.606831 2.968467
0.303173 -1.928524 2.007545
0.320700 -1.917124 1.984949
0.127946 -2.187554 1.912940
0.283556 -1.960553 2.015736
0.072258 -2.075934 1.821215
0.126356 -2.049772 1.842781
0.170368 -2.015653 1.862368
0.222207 -1.999588 1.889674
0.032405 -2.160146 1.823621
0.026067 -2.108476 1.855135
0.083142 -2.079226 1.869722
0.180881 -2.003749 1.887832
0.129166 -2.048090 1.889278
-0.011904 -2.173497 1.837710
0.050368 -2.153621 1.789199
0.037932 -2.106702 1.897693
0.141639 -2.030091 1.905793
0.085839 -2.050301 1.890472
0.005154 -2.183074 1.813149
0.101491 -2.075626 1.943592
-0.041125 -2.196426 1.825257
0.018007 -2.174596 1.778685
-0.029192 -2.200013 1.796694
-0.078365 -2.227465 1.816697
-0.025244 -2.208550 1.756043
-0.076356 -2.242037 1.778007
-0.129478 -2.269498 1.795041
-0.570733 -4.572987 0.692706
-0.830087 -4.155109 0.594926
-1.006167 -3.908881 0.529171
-0.938963 -4.012770 0.562813
-1.051687 -3.733216 0.516174
-1.003086 -3.892235 0.549311
-1.143232 -3.713888 0.618815
-1.017767 -3.744493 0.559867
-1.055438 -3.741594 0.532078
-1.005698 -3.780902 0.602275
-1.145751 -3.737422 0.534564
-1.774568 -4.986761 0.835596
-1.087250 -3.742635 0.602062
-1.815395 -4.762986 0.807095
-1.933977 -5.067428 0.747470
-1.063613 -3.737733 0.621698
-1.864901 -4.590365 0.788125
-1.849574 -4.987237 0.777173
-1.960932 -5.151881 0.740004
-1.868856 -4.710313 0.748102
-1.661703 -4.979360 0.826330
-1.806867 -4.954370 0.810375
-1.490499 -4.163268 0.974638
-1.775131 -4.944400 0.825219
-1.829140 -4.680431 0.776254
-1.803327 -4.682493 0.788978
