# .PCD v0.7 - Point Cloud Data file format
VERSION 0.7
FIELDS x y z
SIZE 4 4 4
TYPE F F F
COUNT 1 1 1
WIDTH 35
HEIGHT 1
VIEWPOINT 0 0 0 1
POINTS 35
DATA ascii
0.455538 -1.775891 1.968626
0.423748 -1.762041 1.957699
0.474308 -1.645977 1.972723
0.448612 -1.715087 1.971132
0.408887 -1.760071 1.946700
0.437783 -1.725124 1.963046
0.477333 -1.608141 1.983057
0.374043 -1.718990 1.906980
0.439688 -1.657276 1.972613
0.450828 -1.699303 1.980305
0.405958 -1.702235 1.948192
0.465866 -1.674289 1.977553
0.353173 -1.695865 1.873138
0.394130 -1.709243 1.936128
0.440715 -1.610329 1.968017
0.449953 -1.941119 1.943405
0.333384 -1.710204 1.894012
0.401048 -1.653461 1.956612
0.409194 -1.690439 1.956337
0.352257 -1.639982 1.870623
0.426248 -1.671432 1.955543
0.406086 -1.614534 1.956962
0.347439 -1.670172 1.885388
0.458833 -1.820389 1.959430
0.402310 -1.933351 1.928404
0.429108 -1.879453 1.950899
0.349354 -1.592153 1.874044
0.357498 -1.632170 1.878742
0.379612 -1.642368 1.904730
0.354403 -1.551149 1.865413
0.420194 -1.824613 1.949356
0.384459 -1.871651 1.933907
0.344999 -1.652628 1.900625
0.376529 -1.807692 1.919441
0.328830 -1.763552 1.861739
