# .PCD v0.7 - Point Cloud Data file format
VERSION 0.7
FIELDS x y z
SIZE 4 4 4
TYPE F F F
COUNT 1 1 1
WIDTH 18
HEIGHT 1
VIEWPOINT 0 0 0 1
POINTS 18
DATA ascii
0.318225 4.094313 0.243582
0.370788 4.142332 0.178243
0.415204 4.097813 0.241855
0.511738 4.075364 0.237810
0.554305 4.033832 0.306519
0.609686 4.076886 0.236071
0.592383 4.012953 0.329571
0.651132 4.025357 0.306681
0.703296 4.056489 0.234140
0.683970 3.986540 0.331600
0.748166 4.028884 0.308011
0.777810 3.975098 0.334801
0.804479 3.965111 0.380210
0.837801 4.007551 0.308164
0.929680 3.933739 0.419621
0.879081 3.989536 0.340221
0.896065 3.940761 0.380301
0.973893 3.975101 0.344397
