# .PCD v0.7 - Point Cloud Data file format
VERSION 0.7
FIELDS x y z
SIZE 4 4 4
TYPE F F F
COUNT 1 1 1
WIDTH 14
HEIGHT 1
VIEWPOINT 0 0 0 1
POINTS 14
DATA ascii
3.329302 -1.041792 0.827584
3.341033 -1.051235 0.067612
3.271678 -1.042181 0.750566
3.312777 -1.054143 0.383156
3.338607 -1.059877 -0.026493
3.223996 -1.035441 0.616751
3.187044 -1.043828 0.796090
3.170456 -1.037998 0.295751
3.128338 -1.035200 0.426055
3.393594 -1.034425 0.498990
3.314694 -1.034403 -0.159667
3.145520 -1.011953 0.054475
3.122359 -1.027968 0.611139
3.021331 -1.004391 0.449743
