# .PCD v0.7 - Point Cloud Data file format
VERSION 0.7
FIELDS x y z
SIZE 4 4 4
TYPE F F F
COUNT 1 1 1
WIDTH 16
HEIGHT 1
VIEWPOINT 0 0 0 1
POINTS 16
DATA ascii
2.357826 -1.246203 2.631298
2.342365 -1.305328 2.642472
2.278445 -1.338513 2.603054
2.385579 -1.151009 2.614054
2.362118 -1.210168 2.623300
2.357523 -1.256225 2.631375
2.321507 -1.260355 2.616685
2.336134 -1.400226 2.600139
2.303790 -1.299428 2.610865
2.289471 -1.446427 2.588571
2.331263 -1.558243 2.593269
2.305797 -1.617417 2.604517
2.316873 -2.170330 2.588294
2.291759 -1.743360 2.560218
2.301347 -1.825333 2.564165
2.223445 -1.849614 2.529838
