# .PCD v0.7 - Point Cloud Data file format
VERSION 0.7
FIELDS x y z
SIZE 4 4 4
TYPE F F F
COUNT 1 1 1
WIDTH 263
HEIGHT 1
VIEWPOINT 0 0 0 1
POINTS 263
DATA ascii
0.164942 -1.988163 -0.101582
0.160039 -1.990378 -0.089560
0.120238 -1.989583 -0.103158
0.115304 -1.988798 -0.091098
0.114594 -1.993739 -0.023148
0.172368 -1.992257 -0.090325
0.168373 -1.992215 -0.096286
0.105862 -1.991758 0.044971
0.074503 -1.987010 -0.104680
0.069600 -1.989236 -0.091661
0.068905 -1.997147 -0.025752
0.126612 -1.987699 -0.090818
0.063437 -1.992432 0.137382
0.122671 -1.992669 -0.095845
0.178639 -1.993909 -0.112051
0.061138 -1.992181 0.044397
0.115090 -1.997085 0.002181
0.108186 -1.995440 0.023271
0.036981 -1.999984 0.232544
0.028837 -1.991431 -0.106304
0.024888 -1.989647 -0.093242
0.024165 -1.995555 -0.027307
0.080932 -1.990149 -0.090411
0.135002 -1.994656 -0.088636
0.077964 -1.993110 -0.095423
0.017704 -1.992829 0.134809
0.015393 -1.989609 0.043864
0.131941 -1.993400 -0.109593
0.076044 -2.002250 0.206508
0.069317 -1.991518 0.001691
0.183924 -1.991644 -0.128688
0.062424 -1.990885 0.023767
0.118570 -2.006290 0.019380
-0.000214 -2.014271 0.374715
0.055996 -1.996964 0.171763
0.110428 -1.995029 -0.005398
-0.007739 -2.002406 0.232928
-0.016896 -1.988847 -0.107844
-0.020612 -1.989959 -0.028815
-0.020818 -1.990062 -0.094822
0.153370 -1.989131 -0.041354
0.035219 -1.989581 -0.090974
0.089277 -1.992132 -0.086169
-0.027031 -1.993226 0.133218
0.032264 -1.993555 -0.095000
-0.028406 -1.983000 0.042359
0.031287 -2.000674 0.206948
0.086225 -1.991862 -0.108139
0.023608 -1.991958 0.002113
0.139348 -1.991669 -0.085258
0.137267 -1.994153 -0.125268
0.016693 -1.988345 0.025236
0.072793 -1.999741 0.019905
0.072277 -2.000813 0.171913
-0.045031 -2.008651 0.372210
0.011274 -1.998381 0.171170
0.064662 -1.988507 -0.002871
-0.051521 -1.998808 0.232388
-0.060597 -1.990248 -0.109451
0.116949 -1.999552 0.036877
-0.065286 -1.994365 -0.030455
-0.065566 -1.985486 -0.095339
0.051573 -2.010374 0.198988
0.107700 -1.991624 -0.037939
-0.009490 -1.989020 -0.090539
0.044635 -1.998572 -0.085822
-0.072726 -1.996634 0.131602
-0.013485 -1.988004 -0.094488
-0.073080 -1.987430 0.042720
-0.014418 -2.003123 0.208352
0.040547 -1.993327 -0.106716
-0.021095 -1.993378 0.001522
0.094656 -1.992153 -0.081825
0.091541 -1.990641 -0.121780
-0.027058 -1.985760 0.025683
0.027055 -1.997192 0.021374
0.026526 -1.998270 0.174382
-0.033500 -1.994785 0.170637
-0.096264 -1.999206 0.231794
0.018977 -1.990957 -0.001469
0.072226 -1.999007 0.039312
-0.106283 -1.992642 -0.112065
-0.111009 -1.993756 -0.033029
-0.111250 -1.987893 -0.096954
0.005793 -2.005801 0.199478
-0.054177 -1.991433 -0.091157
0.061956 -1.987105 -0.034442
0.061592 -2.001393 0.134392
-0.057185 -1.989421 -0.094102
-0.001128 -1.992026 -0.084305
-0.118418 -2.001029 0.129957
-0.118752 -1.992829 0.041062
-0.058254 -1.993528 0.208887
-0.004159 -1.992784 -0.104290
-0.064791 -1.996777 0.000878
0.048982 -1.994620 -0.079424
0.045885 -1.994123 -0.118393
-0.072721 -1.991189 0.026029
0.043007 -2.005795 0.225518
-0.018655 -1.997624 0.021794
-0.019158 -2.002721 0.176747
-0.079165 -2.002192 0.169954
-0.024802 -1.984399 0.001025
-0.141022 -1.997613 0.232218
0.026547 -2.002466 0.041694
-0.151036 -1.988037 -0.113602
-0.037950 -2.006204 0.199875
-0.155968 -1.987285 -0.098547
-0.156702 -1.996155 -0.034655
-0.098839 -1.996841 -0.091826
0.016281 -1.989580 -0.031048
0.015858 -1.999861 0.137838
-0.045830 -1.992463 -0.082901
-0.102867 -1.991839 -0.094722
-0.163528 -1.987229 0.040537
-0.103882 -2.004957 0.210143
-0.164196 -1.996407 0.127426
-0.048831 -1.996222 -0.102926
-0.109563 -1.991181 0.000357
0.003291 -1.995096 -0.076007
0.000208 -1.995600 -0.114990
-0.117455 -1.989604 0.026452
-0.062407 -1.995033 0.022226
-0.001700 -2.009234 0.227884
-0.062905 -2.002136 0.178152
-0.123911 -2.001587 0.169361
-0.070457 -1.989852 0.003366
-0.186757 -1.998024 0.232612
-0.012350 -1.994430 0.384195
-0.019227 -1.995922 0.044200
-0.199505 -2.013434 -0.117533
-0.082709 -2.004599 0.199298
-0.203495 -2.006686 -0.101404
-0.203375 -2.000545 -0.037312
-0.144550 -1.996255 -0.092415
-0.028476 -1.984041 -0.027566
-0.028864 -2.000314 0.141239
-0.090550 -1.990897 -0.081479
-0.147678 -1.999366 0.211604
-0.148538 -1.995265 -0.094367
-0.209879 -2.001806 0.126745
-0.209243 -1.987633 0.039926
-0.093541 -1.995656 -0.101519
-0.155247 -1.994589 -0.000289
-0.041437 -1.992545 -0.073568
-0.044486 -1.996063 -0.111593
-0.162196 -1.987028 0.027878
-0.045462 -2.007646 0.229299
-0.108078 -1.999468 0.023571
-0.108646 -2.000579 0.180578
-0.169616 -2.004986 0.168711
-0.115171 -1.990266 0.003756
-0.232459 -2.002429 0.232939
-0.063923 -1.998362 0.046566
-0.241541 -1.977822 -0.116683
-0.128429 -2.006025 0.200678
-0.246459 -1.979068 -0.101658
-0.248198 -1.988927 -0.038774
-0.073123 -1.990497 -0.024255
-0.190319 -1.988678 -0.091918
-0.074589 -1.999771 0.144652
-0.137213 -1.994344 -0.080119
-0.193437 -1.996774 0.212031
-0.196082 -2.012677 -0.096201
-0.254951 -1.989032 0.039290
-0.256587 -2.004197 0.125102
-0.139236 -1.996094 -0.100127
-0.201012 -1.988993 -0.000822
-0.086153 -1.991002 -0.070153
-0.089199 -1.994521 -0.108178
-0.090246 -2.003063 0.230754
-0.207873 -1.991443 0.028205
-0.152770 -2.002877 0.023909
-0.153385 -2.000007 0.182972
-0.215328 -2.007394 0.169062
-0.278205 -2.001831 0.233324
-0.160909 -1.986711 0.006198
-0.108676 -1.994785 0.048004
-0.288238 -1.978208 -0.119305
-0.173159 -2.007423 0.201039
-0.292162 -1.979457 -0.103289
-0.293960 -1.983313 -0.040321
-0.234102 -1.981065 -0.092447
-0.118811 -1.991957 -0.020878
-0.120351 -1.995225 0.148109
-0.181037 -1.981760 -0.078574
-0.239106 -2.004204 0.214308
-0.238098 -1.979075 -0.094387
-0.301605 -1.996435 0.038565
-0.185865 -2.003536 -0.098835
-0.303348 -2.000584 0.123531
-0.247590 -2.004400 -0.001650
-0.131813 -1.995449 -0.067820
-0.133930 -1.990975 -0.104745
-0.134911 -2.011487 0.233021
-0.253603 -1.989853 0.028604
-0.198499 -2.001303 0.025314
-0.199111 -2.000440 0.185349
-0.260139 -1.999762 0.167535
-0.323937 -2.003228 0.233669
-0.206538 -1.996136 0.007450
-0.154350 -1.999224 0.050331
-0.218885 -2.008826 0.201398
-0.280772 -1.984473 -0.093116
-0.164518 -1.991412 -0.017485
-0.166008 -2.002671 0.151392
-0.226702 -1.986174 -0.078258
-0.285835 -2.004625 0.215678
-0.284757 -1.983496 -0.094071
-0.351155 -2.014859 0.037695
-0.230687 -1.989971 -0.096280
-0.349141 -1.993944 0.120984
-0.293414 -1.991795 -0.002108
-0.176542 -1.992883 -0.065411
-0.179667 -2.009907 0.235415
-0.179614 -1.992419 -0.102384
-0.300245 -1.998267 0.028859
-0.246992 -2.025736 0.025371
-0.245753 -2.009889 0.188598
-0.308718 -2.016199 0.168691
-0.252253 -1.995571 0.009828
-0.198999 -2.007650 0.052583
-0.264593 -2.012238 0.202717
-0.209225 -1.991853 -0.014125
-0.272385 -1.988597 -0.076925
-0.330610 -2.001024 0.217077
-0.211797 -1.995114 0.154870
-0.275416 -1.987386 -0.094887
-0.338161 -1.989176 -0.002724
-0.224109 -2.007337 -0.063224
-0.224426 -2.008310 0.236799
-0.225364 -1.985873 -0.098923
-0.348813 -2.014707 0.030003
-0.289019 -1.992108 0.026168
-0.291517 -2.006312 0.191008
-0.351658 -1.994529 0.166323
-0.297957 -1.996988 0.011167
-0.245631 -2.017088 0.054825
-0.313161 -2.030683 0.204836
-0.254927 -1.992299 -0.010768
-0.377315 -2.004448 0.219382
-0.257474 -2.000565 0.159157
-0.318146 -1.982003 -0.076479
-0.267044 -1.981759 -0.059533
-0.270169 -2.007729 0.239165
-0.270088 -1.983312 -0.095535
-0.335713 -1.994515 0.026491
-0.338225 -2.008751 0.194330
-0.398371 -1.996927 0.166636
-0.347515 -2.013447 0.013313
-0.288575 -1.992476 0.056497
-0.355173 -2.001013 0.203565
-0.300632 -1.992739 -0.007422
-0.304158 -2.005019 0.163453
-0.317703 -2.031186 0.243200
-0.312728 -1.984187 -0.057218
-0.316760 -1.985763 -0.092213
-0.387822 -2.023224 0.198492
-0.335277 -1.993906 0.058828
-0.400929 -1.999398 0.203920
-0.348255 -2.002191 -0.004200
-0.351832 -2.010476 0.167730
-0.400472 -2.019954 0.172946
