# .PCD v0.7 - Point Cloud Data file format
VERSION 0.7
FIELDS x y z
SIZE 4 4 4
TYPE F F F
COUNT 1 1 1
WIDTH 25
HEIGHT 1
VIEWPOINT 0 0 0 1
POINTS 25
DATA ascii
0.184093 3.597465 2.627728
0.180712 3.096894 1.881683
0.116528 2.186259 1.793472
0.175188 2.896618 2.722393
0.166197 2.439938 1.799919
0.255564 3.124635 1.903731
0.170749 2.227445 1.831320
0.235930 2.535779 1.872047
0.225505 2.251838 1.856868
0.158299 2.328695 1.813459
0.158292 2.262688 1.813314
0.212425 2.341226 1.829769
0.219295 2.308794 1.861353
0.268255 2.362644 1.854263
0.273307 2.291631 1.859122
0.116762 2.032828 1.847162
0.197064 2.990950 1.814782
0.174311 2.524913 1.879681
0.171875 2.089702 1.894009
0.191421 2.232297 1.781893
0.273825 3.087828 1.873200
0.199014 2.179470 1.773216
0.352203 3.219514 2.890136
0.246888 2.252471 1.804245
0.255073 2.236338 1.820046
