# .PCD v0.7 - Point Cloud Data file format
VERSION 0.7
FIELDS x y z
SIZE 4 4 4
TYPE F F F
COUNT 1 1 1
WIDTH 699
HEIGHT 1
VIEWPOINT 0 0 0 1
POINTS 699
DATA ascii
0.666059 -1.116792 0.865923
2.828387 -1.573370 0.970787
2.482473 -1.420551 0.801188
2.597383 -1.530415 0.908815
2.414489 -1.437930 1.252234
-0.175763 -0.927743 1.145066
2.282437 -1.382608 0.749885
2.365866 -1.435009 0.436065
2.371196 -1.479266 0.846841
2.226974 -1.402118 1.175194
2.066512 -1.321740 0.352907
2.110434 -1.350815 0.706205
2.173322 -1.394395 0.409884
2.363477 -1.534579 1.341532
2.182090 -1.438982 0.796725
2.065421 -1.372441 1.109738
1.918231 -1.295909 0.333770
1.960502 -1.325369 0.668035
2.014963 -1.364830 0.389505
2.164774 -1.485105 1.256112
2.017039 -1.404974 0.753159
1.920833 -1.346196 1.051659
-0.231568 -0.889821 1.117595
1.777850 -1.266804 0.316750
1.807339 -1.288951 0.628672
1.865545 -1.332986 0.370275
2.002130 -1.449458 1.187567
1.866940 -1.371488 0.713892
1.787147 -1.318569 0.997776
1.659661 -1.247113 0.302282
1.695462 -1.273330 0.602371
1.721069 -1.297978 0.351109
-0.197420 -0.935970 1.134967
1.856439 -1.416226 1.126383
1.729849 -1.339585 0.677898
1.655387 -1.286841 0.943883
1.551479 -1.228097 0.290007
1.575404 -1.245902 0.571758
1.568849 -1.243852 0.101490
1.609903 -1.279059 0.337778
1.490186 -1.198069 0.077417
1.719681 -1.381678 1.068353
1.609837 -1.314166 0.647313
1.540642 -1.260560 0.897384
1.464334 -1.219199 0.543332
1.450300 -1.208889 0.277869
1.508789 -1.262865 0.325678
-0.233169 -0.897705 1.092802
1.597940 -1.352635 1.017686
1.500811 -1.289416 0.618951
1.440934 -1.240789 0.858261
1.359169 -1.192405 0.266961
1.381518 -1.210669 0.525681
1.377271 -1.210830 0.096497
1.413659 -1.246489 0.314695
1.320858 -1.176499 0.073996
1.492192 -1.329052 0.975400
1.356241 -1.227513 0.827512
1.400802 -1.267385 0.593803
1.295572 -1.194223 0.504874
1.276067 -1.177696 0.257234
1.291001 -1.195056 0.094698
1.314346 -1.220199 0.301512
1.239634 -1.162599 0.072318
1.387390 -1.301448 0.931088
1.276528 -1.214078 0.797860
1.312836 -1.249986 0.572947
1.192865 -1.143444 -0.032819
1.217634 -1.179534 0.486245
1.202011 -1.165739 0.248716
1.209711 -1.178139 0.092983
1.236271 -1.207345 0.292907
1.258733 -1.229192 1.133818
1.165446 -1.149529 0.069788
1.294581 -1.278427 0.894068
1.192691 -1.192755 0.765035
1.228848 -1.231469 0.552157
1.153407 -1.160678 -0.039309
1.158433 -1.167449 -0.031125
1.144702 -1.165695 0.468727
1.122805 -1.145891 0.239007
1.135512 -1.165051 0.091457
1.159126 -1.190456 0.283274
1.186194 -1.216712 1.096318
1.089119 -1.130466 0.068147
1.212778 -1.260030 0.863321
1.122946 -1.179997 0.738590
1.150850 -1.213759 0.533496
1.056066 -1.121515 -0.069604
1.079814 -1.156596 0.455426
1.059807 -1.137618 0.232755
1.074459 -1.158642 0.090267
1.116637 -1.204128 1.059878
1.086989 -1.174419 0.274750
1.036217 -1.130875 0.067199
1.138006 -1.244421 0.834747
1.054119 -1.164176 0.713128
1.080880 -1.198811 0.517027
1.004589 -1.121293 -0.034523
1.012661 -1.130981 -0.025246
1.020988 -1.150344 0.442280
1.000854 -1.131243 0.226608
1.053027 -1.192317 1.027564
1.003137 -1.139440 0.088726
1.026013 -1.167092 0.268553
0.968915 -1.112570 0.065746
1.069227 -1.230607 0.809315
0.989283 -1.149215 0.689758
1.012916 -1.183805 0.500600
0.953911 -1.130287 0.425806
0.940764 -1.117875 0.219354
0.993438 -1.183359 0.998368
0.948065 -1.131860 0.087641
0.959845 -1.149866 0.261137
0.996320 -1.207917 0.779697
0.934550 -1.141954 0.670680
0.952986 -1.172551 0.487377
0.906107 -1.128674 0.417934
0.893902 -1.117164 0.215513
0.935775 -1.171326 0.969172
0.902831 -1.140415 0.254996
0.933488 -1.192895 0.756371
0.877705 -1.128730 0.650491
0.901155 -1.168061 0.477396
0.844044 -1.109464 0.402577
0.879092 -1.158257 0.939986
0.880732 -1.186529 0.740350
0.837092 -1.133009 0.639833
0.837033 -1.145889 0.461965
0.825375 -1.145071 0.912859
0.865747 -1.206229 1.044428
0.782138 -1.114701 0.619621
0.821819 -1.168361 0.718067
0.772616 -1.129844 0.885727
0.814075 -1.196957 1.020394
0.747541 -1.122762 0.613132
0.774059 -1.161850 0.702146
0.737037 -1.134994 0.875182
0.760317 -1.180765 0.992237
0.729271 -1.156211 0.689295
0.686229 -1.116707 0.847055
0.711601 -1.169392 0.968240
0.650562 -1.116839 0.835450
0.666878 -1.160840 0.949355
-0.189154 -0.904171 1.104121
-0.224814 -0.879332 1.082386
-1.781339 2.856788 1.365990
-1.948335 3.161205 1.317449
-1.897786 3.244671 1.336020
-1.849415 3.340106 1.360554
-1.797991 3.431555 1.383132
0.156376 1.938437 1.982844
0.149174 1.855354 1.984944
0.187199 2.066638 2.007935
0.244566 2.355057 2.028983
0.191490 1.863410 1.993455
0.204537 1.959546 2.003395
0.293103 2.614464 2.055981
0.234494 2.076740 2.018494
0.305689 2.382268 2.052657
0.237680 1.881496 2.012984
0.253763 1.976648 2.019960
0.355230 2.638707 2.078665
0.282837 2.083837 2.027065
0.595733 3.736827 2.196998
0.125624 1.845051 1.970786
0.368840 2.407481 2.076348
0.282990 1.890561 2.024514
0.419376 2.661955 2.101364
0.302122 1.983726 2.028527
0.332981 2.103970 2.049618
0.138153 1.805028 1.976015
0.181894 2.053329 1.997109
0.689726 3.777331 2.227967
0.168875 1.856111 1.989305
0.485461 2.689216 2.128067
0.228541 2.211582 2.022397
0.180464 1.811067 1.990533
0.289281 2.652169 2.059342
0.230176 2.061420 2.013688
0.738571 3.626396 2.231850
0.211185 1.861153 2.001822
0.135952 1.799349 1.979590
0.506458 3.794015 2.171882
0.280826 2.220701 2.037013
0.221830 1.812092 2.000043
0.354433 2.672402 2.085079
0.180415 2.073666 2.005719
0.156898 1.821385 1.987817
0.279430 2.071513 2.032267
0.202711 2.154785 2.019867
0.254509 1.865193 2.015345
0.178238 1.805381 1.998108
0.602508 3.827508 2.202918
0.334965 2.239843 2.062625
0.265079 1.821133 2.019556
0.418792 2.676607 2.099823
0.229741 2.077750 2.023314
0.198220 1.824413 2.002324
0.251001 2.160880 2.035443
0.327828 2.070583 2.042848
0.218625 1.803395 2.008608
0.353008 2.695701 2.083836
0.387273 2.245955 2.077228
0.485919 2.697845 2.129559
0.238555 1.825435 2.015816
0.278194 2.072813 2.031904
0.298306 2.164968 2.050001
0.306744 1.669196 0.086259
0.260959 1.805414 2.025119
0.422120 2.718944 2.116602
1.152825 3.895170 0.433675
0.329437 2.082902 2.056496
0.347564 2.173063 2.068569
0.361510 1.728607 0.088798
0.486650 2.709124 2.125352
0.403861 1.725896 0.089298
0.464621 1.786354 0.092880
0.437929 1.778971 0.130153
0.471591 1.742169 0.130590
0.523699 1.765533 0.133129
-1.832838 2.997692 1.371593
-1.785171 3.071840 1.388525
2.416438 1.767107 2.727587
2.364156 1.634142 2.704125
2.422934 1.590030 2.723294
2.481106 2.043089 2.767586
2.381844 1.761131 2.732152
2.302972 1.426626 2.671441
2.549805 2.003009 2.799832
2.434621 1.716004 2.747288
2.353758 1.381456 2.688531
2.279259 1.413718 2.681195
2.209471 1.202041 2.631979
2.325929 1.375541 2.701245
2.248228 1.157790 2.647955
2.350776 1.323293 2.698154
0.122844 1.787679 1.981233
0.161013 2.013752 2.000796
0.158424 1.862648 1.995987
0.164082 1.798579 1.996714
0.256319 2.578007 2.055673
0.226191 2.251764 2.042682
0.208203 2.029674 2.020353
0.202689 1.872579 2.008486
0.206313 1.810476 2.013204
0.317447 2.601012 2.079381
0.280479 2.260770 2.054259
0.257412 2.044591 2.040916
0.248926 1.885484 2.026014
0.248635 1.814414 2.021646
0.380622 2.620026 2.102078
0.337632 2.282721 2.077922
0.304673 2.053545 2.054422
0.295144 1.899379 2.045538
0.627033 3.746061 2.230217
0.444765 2.642034 2.126789
0.303413 1.676025 0.069421
0.722091 3.779260 2.261232
0.334417 1.703443 0.038860
0.343717 1.674288 0.068803
0.399560 1.727674 0.069602
2.503174 2.006479 2.773722
2.741754 -1.539491 0.736838
2.908905 -1.664949 0.802287
2.523723 -1.497983 0.690981
2.605080 -1.554160 1.183352
2.294242 1.494638 2.681663
2.644703 -1.601687 0.743652
2.599889 -1.629964 1.725216
2.316656 -1.452380 0.646208
2.408106 -1.516236 1.112476
2.345016 1.451352 2.699335
2.420598 -1.550191 0.694923
2.688961 -1.736042 1.857771
2.468341 -1.628994 1.194849
2.150693 -1.420534 0.611313
2.218060 -1.471239 1.042724
2.386826 1.403092 2.708925
2.838136 -1.586769 0.851276
2.232565 -1.508481 0.655122
2.532241 -1.723818 1.781565
1.994422 -1.359529 0.250861
2.275140 1.283256 2.669572
2.256192 -1.570058 1.114253
2.876133 -1.678276 0.983908
2.062116 -1.439116 0.987849
1.994735 -1.388634 0.579439
2.666288 -1.565894 0.485205
2.567832 -1.514372 0.780859
2.012982 -1.408463 0.252128
2.058531 -1.466666 0.617354
2.574309 -1.559541 1.273207
1.847424 -1.325738 0.239042
2.873625 -1.587356 0.893776
2.973119 -1.642204 0.626052
2.316938 1.236964 2.681151
2.632941 -1.618713 0.917333
1.918164 -1.406924 0.937001
1.846723 -1.351649 0.547663
2.082172 -1.526989 1.050496
2.771775 -1.718075 1.516101
2.469257 -1.528367 0.458382
2.361739 -1.467640 0.728165
1.865987 -1.374673 0.240304
2.254392 -1.415779 0.345725
1.902529 -1.428751 0.584567
2.370227 -1.511459 1.188531
2.613358 -1.520831 0.821330
1.722503 -1.300784 0.229133
2.724938 -1.586945 0.585447
2.727068 -1.601934 1.377307
2.856720 -1.677048 1.074305
2.434875 -1.574913 0.863600
1.791248 -1.379647 0.892116
1.727825 -1.328511 0.523736
1.927178 -1.487839 0.994723
2.269114 -1.477843 0.430760
2.193759 -1.434711 0.686328
3.672328 -2.207692 2.120416
2.426975 -1.454135 0.397989
1.728011 -1.341819 0.229484
2.092396 -1.383019 0.325902
2.204253 -1.477257 1.121712
1.766559 -1.395702 0.555749
2.414311 -1.480005 0.766586
2.509810 -1.538457 0.549796
1.609582 -1.276747 0.221237
2.501921 -1.546845 1.278735
2.639602 -1.628272 1.009646
2.244762 -1.526055 0.811963
1.661255 -1.343357 0.845366
1.612914 -1.303348 0.500849
2.110107 -1.444053 0.409953
2.037765 -1.400692 0.646532
1.788213 -1.452600 0.943926
2.705466 -1.711347 1.594487
2.240896 -1.412488 0.371288
1.610061 -1.313813 0.220636
1.940380 -1.348180 0.307132
2.045238 -1.438988 1.055972
2.234264 -1.440076 0.717864
2.331775 -1.501735 0.521024
1.639603 -1.363610 0.529938
2.305826 -1.498648 1.193108
2.433469 -1.577415 0.947041
1.511723 -1.259583 0.213266
2.088775 -1.492038 0.771158
2.193553 -1.576601 1.266065
1.560388 -1.322972 0.811432
1.502959 -1.274130 0.478040
1.954062 -1.405220 0.388233
1.898802 -1.370581 0.611708
1.661261 -1.419321 0.899128
2.080885 -1.378665 0.348510
1.809420 -1.320197 0.291294
1.508196 -1.294698 0.213683
1.903264 -1.405663 0.998188
2.083294 -1.409992 0.677038
2.168746 -1.465890 0.493266
2.139794 -1.459352 1.121396
2.268462 -1.542386 0.899259
1.537735 -1.343371 0.509998
1.418869 -1.242401 0.207307
1.940757 -1.454952 0.731420
2.037526 -1.536302 1.199355
1.456465 -1.295580 0.775604
1.828133 -1.380206 0.372353
1.767815 -1.338417 0.578934
1.417143 -1.260797 0.462033
1.939912 -1.349702 0.327690
1.543304 -1.385976 0.856353
1.700543 -1.302049 0.277343
1.409307 -1.272556 0.206785
1.781355 -1.380284 0.950317
1.931257 -1.371904 0.636341
2.012691 -1.427005 0.467572
2.103384 -1.499318 0.849609
1.993835 -1.427993 1.058593
1.429787 -1.313140 0.487205
1.326957 -1.219193 0.200447
1.680773 -1.316196 0.120040
1.801728 -1.416818 0.694720
1.895521 -1.498946 1.138627
1.369612 -1.277111 0.745674
1.705157 -1.350146 0.355561
1.657913 -1.316146 0.552044
1.332290 -1.243436 0.445093
1.808939 -1.320674 0.308889
1.859237 -1.357754 0.195361
1.440404 -1.359585 0.820505
1.588600 -1.275936 0.264515
1.657362 -1.345864 0.899591
1.324461 -1.256303 0.200826
1.878702 -1.395993 0.446793
1.287114 -1.219880 -0.003696
1.805321 -1.345680 0.602500
1.968423 -1.470129 0.810791
1.862896 -1.399593 1.003772
1.346130 -1.302805 1.070226
1.678723 -1.382574 0.660992
1.254140 -1.207847 0.195442
1.339921 -1.292829 0.470295
1.566801 -1.287196 0.116254
1.767522 -1.463528 1.083900
1.227920 -1.184592 0.010734
1.293797 -1.263630 0.722690
1.556019 -1.294827 0.527156
1.598255 -1.327990 0.341673
1.254441 -1.227036 0.430155
1.693009 -1.296555 0.293038
1.737266 -1.329775 0.187560
1.495739 -1.259685 0.253566
1.345494 -1.333149 0.787679
1.554459 -1.322387 0.858731
1.752713 -1.364909 0.426031
1.690387 -1.320392 0.571666
1.835405 -1.434897 0.771077
1.239560 -1.234047 0.194966
1.205239 -1.200690 -0.000596
1.744963 -1.373131 0.953946
1.266272 -1.283187 1.031329
1.568788 -1.355299 0.633178
1.475935 -1.271013 0.113307
1.658607 -1.438072 1.039051
1.181317 -1.194502 0.190469
1.422557 -1.226743 0.060920
1.248991 -1.265491 0.451500
1.156064 -1.169302 0.012798
1.215928 -1.244106 0.695800
1.461134 -1.274483 0.505266
1.494302 -1.300814 0.328877
1.589100 -1.275343 0.278162
1.629337 -1.306688 0.180707
1.179597 -1.210622 0.416225
1.403846 -1.239423 0.242685
1.461579 -1.301881 0.822846
1.258625 -1.310696 0.758808
1.714399 -1.401604 0.735358
1.635735 -1.334770 0.407273
1.585468 -1.297064 0.544821
1.624972 -1.339645 0.902234
1.164713 -1.217720 0.190034
1.134399 -1.186392 0.001452
1.192417 -1.264559 0.996432
1.480919 -1.337902 0.611251
1.543584 -1.400581 0.989391
1.390058 -1.253786 0.110389
1.339701 -1.211485 0.057977
1.107439 -1.175150 0.184592
1.488961 -1.239630 0.085517
1.174166 -1.250084 0.437549
1.099323 -1.166888 0.014686
1.369206 -1.250089 0.482452
1.145085 -1.227570 0.672880
1.409451 -1.285502 0.317925
1.497222 -1.258051 0.265246
1.530425 -1.285524 0.173839
1.116805 -1.201140 0.405211
1.046010 -1.124815 -0.096767
1.073283 -1.156397 -0.111225
1.319954 -1.220101 0.232806
1.376712 -1.283351 0.790945
1.601402 -1.369263 0.701641
1.546883 -1.320456 0.393308
1.484531 -1.271694 0.518018
1.181794 -1.293202 0.733882
1.523043 -1.314115 0.859427
1.096890 -1.204345 0.186072
1.062506 -1.166102 0.003598
1.133677 -1.258963 0.973359
1.641162 -1.429522 1.099751
1.395063 -1.320503 0.590327
1.447679 -1.376060 0.949558
1.307177 -1.235533 0.107494
1.262840 -1.196187 0.056049
1.060770 -1.180636 0.183372
1.401096 -1.223389 0.080593
1.193474 -1.339965 1.076168
1.328565 -1.267162 0.308034
1.029444 -1.147571 0.015822
1.080242 -1.212012 0.652960
1.107372 -1.238630 0.425554
1.291371 -1.235644 0.464502
1.407332 -1.238755 0.253367
1.444576 -1.271278 0.168882
1.045912 -1.179681 0.391376
0.996243 -1.122738 -0.136870
1.247125 -1.207699 0.223837
1.505494 -1.346870 0.674793
1.453977 -1.299174 0.379452
1.299882 -1.268788 0.761997
1.402697 -1.258242 0.497055
1.238037 -1.204399 -0.019163
1.431162 -1.293576 0.822558
1.107942 -1.273687 0.709999
1.556333 -1.415974 1.064772
1.065795 -1.238276 0.939513
1.030042 -1.187947 0.181163
1.364371 -1.234051 0.029316
1.015825 -1.170602 0.005393
1.288243 -1.281714 1.101792
1.308140 -1.296088 0.568520
1.359773 -1.352526 0.914728
1.231312 -1.219235 0.105582
1.189981 -1.180855 0.054131
1.315167 -1.201124 0.075776
0.988841 -1.155263 0.177603
1.217510 -1.219170 0.447597
1.241623 -1.240847 0.296263
1.024486 -1.205436 0.636913
1.123678 -1.325371 1.045208
1.321420 -1.217419 0.241532
1.354648 -1.248048 0.163069
1.038529 -1.221191 0.413654
1.001226 -1.183108 0.385193
1.180300 -1.196270 0.216865
1.422631 -1.330413 0.651872
1.370067 -1.278806 0.365601
1.215943 -1.242202 0.728236
1.320817 -1.239781 0.476177
1.148004 -1.169902 -0.041799
1.158114 -1.181171 -0.016964
1.352326 -1.278998 0.791616
1.456333 -1.383370 1.018084
1.038089 -1.254144 0.687128
1.282475 -1.214804 0.028454
1.010026 -1.229639 0.916498
1.229533 -1.280053 1.073665
1.236298 -1.281596 0.550581
0.978312 -1.185462 0.179060
1.282916 -1.334957 0.884825
1.160455 -1.203879 0.102667
1.121121 -1.165489 0.052223
1.250388 -1.195712 0.072716
0.944119 -1.155713 0.175471
1.152689 -1.207642 0.432629
1.180853 -1.235392 0.290201
0.960589 -1.183831 0.615099
1.253606 -1.207970 0.232534
1.280789 -1.233693 0.158140
0.989828 -1.221659 0.407506
1.052838 -1.305750 1.012331
0.936336 -1.161621 0.373376
1.335687 -1.304951 0.627098
1.296225 -1.265397 0.354653
1.109419 -1.177846 0.208002
1.148107 -1.227600 0.703310
1.244942 -1.222291 0.457296
1.084168 -1.157535 -0.039745
1.106384 -1.181693 -0.016104
1.272459 -1.260394 0.758741
1.084179 -1.159209 -0.062778
1.371437 -1.361777 0.981242
1.190411 -1.179023 -0.015149
0.972232 -1.234588 0.666270
1.210620 -1.200486 0.028531
0.951180 -1.212960 0.889612
1.161718 -1.266347 1.037720
1.156370 -1.256127 0.529811
1.185427 -1.178886 -0.028161
1.206025 -1.313366 0.853991
1.092590 -1.187511 0.100776
1.070371 -1.163982 0.051121
1.179522 -1.180334 0.068814
1.081796 -1.187135 0.415801
1.107948 -1.213980 0.280382
1.185782 -1.196506 0.222569
0.907792 -1.173229 0.600129
1.207931 -1.218346 0.154231
0.982945 -1.281075 0.977544
0.917882 -1.192194 0.392803
0.893621 -1.162026 0.367248
1.263839 -1.290445 0.608170
1.215303 -1.242017 0.341861
1.057682 -1.176316 0.202896
1.089321 -1.218986 0.683304
1.174089 -1.206771 0.439392
1.195557 -1.238779 0.727926
1.036463 -1.159380 -0.013895
1.035438 -1.158028 -0.038878
1.293540 -1.341151 0.947401
1.217116 -1.274777 1.083398
1.119521 -1.160690 -0.014999
0.901401 -1.204282 0.868615
1.136728 -1.181171 0.027690
1.098907 -1.253643 1.005771
1.096557 -1.245592 0.516834
0.915446 -1.223008 0.649301
1.133131 -1.291747 0.824168
1.030738 -1.173091 0.098868
1.108636 -1.161956 0.064964
1.000461 -1.141625 0.049331
1.020962 -1.173581 0.401878
1.045104 -1.199523 0.273469
1.134005 -1.195988 0.149441
1.111861 -1.174088 0.212781
0.870141 -1.179627 0.593911
1.189938 -1.269921 0.587342
0.922125 -1.264432 0.950648
1.143397 -1.221582 0.331040
0.866111 -1.183656 0.384800
0.994794 -1.157845 0.196055
1.024448 -1.200344 0.658457
1.107234 -1.191225 0.422499
1.220649 -1.321503 0.915556
1.132751 -1.228140 0.703953
1.165436 -1.277099 1.059223
1.059697 -1.150264 -0.014961
1.092020 -1.185607 0.026502
1.041095 -1.241925 0.976818
0.854644 -1.197633 0.851592
1.067245 -1.272113 0.798331
1.031694 -1.228057 0.500966
1.058761 -1.155104 -0.027050
0.859617 -1.207409 0.632406
0.985008 -1.173549 0.097740
1.064930 -1.166375 0.062780
0.975245 -1.173983 0.393751
1.085283 -1.197449 0.146294
1.063133 -1.174514 0.206653
0.988295 -1.189030 0.267502
0.814227 -1.156963 0.574140
1.124069 -1.253365 0.569464
1.084574 -1.211063 0.322077
0.945020 -1.152293 0.191023
0.866330 -1.250782 0.926715
0.965599 -1.184702 0.637573
1.048407 -1.179647 0.408556
1.147709 -1.296827 0.882800
1.069907 -1.213492 0.680051
1.019021 -1.157662 -0.016191
0.801761 -1.177891 0.825778
1.018048 -1.157305 0.026819
1.093546 -1.255320 1.017419
0.979226 -1.223163 0.942977
1.008417 -1.258475 0.776407
0.972841 -1.212492 0.487080
0.996016 -1.143979 0.059005
0.819989 -1.213853 0.627177
1.018370 -1.176046 0.142505
0.997219 -1.153038 0.197869
0.917384 -1.157411 0.380889
0.935478 -1.178497 0.261547
1.057155 -1.231798 0.550673
1.039874 -1.214499 0.317902
1.093955 -1.292198 0.863738
0.909761 -1.170045 0.617681
0.999673 -1.178045 0.398461
0.811504 -1.234114 0.902839
1.008061 -1.197832 0.656169
1.032709 -1.240549 0.983520
0.757980 -1.169203 0.808801
0.926428 -1.212435 0.917021
0.953621 -1.247846 0.757442
0.929139 -1.213904 0.479936
0.971624 -1.174487 0.139414
0.950466 -1.150458 0.192797
0.877692 -1.160772 0.373724
0.999314 -1.218197 0.534764
0.972940 -1.190017 0.307166
1.024987 -1.264488 0.832047
0.870052 -1.171377 0.606550
0.940795 -1.160445 0.383624
0.763738 -1.224453 0.883863
0.949213 -1.182156 0.633296
0.726338 -1.176587 0.803579
0.971861 -1.223774 0.949657
0.873603 -1.198684 0.890118
0.901807 -1.236194 0.739504
0.868209 -1.189319 0.464205
0.964686 -1.229592 0.531469
0.930198 -1.189415 0.302066
0.973166 -1.253805 0.812099
0.818202 -1.155690 0.587688
0.892020 -1.153822 0.372618
0.906513 -1.183488 0.620160
0.722035 -1.221842 0.871783
0.826807 -1.188947 0.868161
0.918040 -1.211000 0.920742
0.848960 -1.220533 0.720635
0.897688 -1.197982 0.510859
0.922367 -1.244133 0.793135
0.847588 -1.159780 0.596432
0.776961 -1.173171 0.842304
0.868249 -1.201233 0.894784
0.801132 -1.207836 0.702727
0.860983 -1.201339 0.504701
0.868477 -1.225412 0.770327
0.783223 -1.113573 0.346063
0.779809 -1.227641 0.991356
0.802817 -1.153089 0.581435
0.735196 -1.166443 0.824309
0.814376 -1.182429 0.864978
0.820643 -1.212699 0.751427
0.737026 -1.218922 0.972391
0.765537 -1.167622 0.838116
0.785932 -1.215021 0.742290
0.697258 -1.212202 0.955399
