# .PCD v0.7 - Point Cloud Data file format
VERSION 0.7
FIELDS x y z
SIZE 4 4 4
TYPE F F F
COUNT 1 1 1
WIDTH 21
HEIGHT 1
VIEWPOINT 0 0 0 1
POINTS 21
DATA ascii
-1.547175 2.342940 1.296389
-1.546754 2.468460 1.338830
-1.537658 2.484394 1.348080
-1.521056 2.558338 1.361965
-1.539544 2.495400 1.345225
-1.495947 2.589849 1.327427
-1.501846 2.558387 1.366076
-1.489331 2.645263 1.384084
-1.542319 2.503416 1.340350
-1.500685 2.561433 1.361142
-1.455060 2.649916 1.341280
-1.454906 2.616541 1.374934
-1.404880 2.638006 1.358363
-1.508544 2.579331 1.364355
-1.447673 2.608644 1.367903
-1.390860 2.669324 1.335773
-1.389712 2.639965 1.368477
-1.462639 2.639414 1.379228
-1.468816 2.867735 1.347683
-1.393637 2.651884 1.372620
-1.389339 2.647938 1.367637
