# .PCD v0.7 - Point Cloud Data file format
VERSION 0.7
FIELDS x y z
SIZE 4 4 4
TYPE F F F
COUNT 1 1 1
WIDTH 77
HEIGHT 1
VIEWPOINT 0 0 0 1
POINTS 77
DATA ascii
-0.134846 1.884127 1.898430
-0.130791 1.830039 1.964245
-0.175852 1.999401 2.000520
-0.100212 2.114845 2.012562
-0.095579 1.903145 1.920968
-0.091268 1.833095 1.969741
-0.125953 1.822843 1.961402
-0.128828 1.905954 1.903651
-0.133677 2.063619 1.990130
-0.167751 2.019310 2.007694
-0.163179 2.021504 1.984637
-0.053056 1.971132 1.993581
-0.051651 2.121171 2.022928
-0.086483 1.825901 1.963898
-0.088526 1.919025 1.916157
-0.088308 2.076843 2.004561
-0.119212 1.820715 1.964524
-0.121319 1.958770 1.940915
-0.118870 2.032712 1.992080
-0.009776 1.992252 2.019059
-0.158921 2.001279 1.977798
-0.160277 2.055176 2.003965
-0.002226 2.138482 2.046306
-0.044182 1.994054 1.990764
-0.041981 2.092085 2.019979
-0.079925 1.831752 1.972042
-0.078559 1.940001 1.917299
-0.074709 2.052888 2.008545
-0.118209 1.840384 1.965822
-0.115914 2.026418 1.995296
-0.114612 2.101345 2.040483
0.048439 2.142847 2.057631
-0.000046 2.021188 2.019243
0.005437 2.104353 2.034371
-0.033175 2.010075 1.983878
-0.029492 2.071091 2.023986
-0.078034 1.854446 1.972334
-0.073765 2.041557 2.002773
-0.067425 1.992942 1.925554
0.127049 2.544134 2.147475
0.053930 2.113650 2.046737
0.014521 2.061262 2.031368
0.015952 2.077319 2.029388
-0.029546 2.055745 2.011216
0.175778 2.488574 2.106660
-0.019728 2.038157 1.961034
0.063234 2.094567 2.045789
0.157651 2.618664 2.158491
0.016429 2.084945 2.033670
0.224279 2.445968 2.077878
0.032410 2.121402 2.035544
0.273272 2.801440 2.182980
0.216175 2.626290 2.167678
0.062711 2.098179 2.043072
0.291300 2.539672 2.165140
0.192882 2.710335 2.182459
0.083470 2.147749 2.054911
0.339218 2.798273 2.192022
0.274342 2.753080 2.166135
0.220760 2.703232 2.146039
0.260012 2.510672 2.075780
0.260823 2.749186 2.214578
0.407982 2.807153 2.213044
0.341776 2.772923 2.190207
0.284079 2.722971 2.165176
0.335577 2.627593 2.177969
0.218604 2.699766 2.146375
0.312115 2.662748 2.146650
0.407458 2.779727 2.206296
0.349355 2.744755 2.188314
0.281679 2.724489 2.166548
0.314275 2.862371 2.225419
0.383713 2.716656 2.192766
0.413749 2.758507 2.205436
0.345738 2.751227 2.189708
0.363323 2.732920 2.123411
0.411940 2.772027 2.208822
