# .PCD v0.7 - Point Cloud Data file format
VERSION 0.7
FIELDS x y z
SIZE 4 4 4
TYPE F F F
COUNT 1 1 1
WIDTH 1279
HEIGHT 1
VIEWPOINT 0 0 0 1
POINTS 1279
DATA ascii
0.892054 -1.062174 0.005007
0.905753 -1.086358 0.174730
0.864266 -1.042296 -0.055632
0.865375 -1.046276 -0.055670
0.882519 -1.067752 0.043041
0.889515 -1.076665 0.165927
0.906247 -1.096035 0.366664
0.868007 -1.054775 0.007249
0.892523 -1.103383 0.365714
0.870031 -1.085147 0.508032
0.872115 -1.092197 0.173944
0.878999 -1.101723 0.595843
0.862022 -1.087413 0.171057
0.841834 -1.069757 0.042337
0.847782 -1.077679 0.163238
0.870685 -1.105889 0.360861
0.865068 -1.102055 0.593946
0.834566 -1.066618 0.006414
0.826668 -1.065908 0.017479
0.839902 -1.087018 0.292234
0.844540 -1.096479 0.356130
0.848877 -1.110752 0.510997
0.816902 -1.074069 0.006489
0.818701 -1.077052 0.123460
0.827280 -1.089262 0.169304
0.828332 -1.091638 0.329287
0.852666 -1.121403 0.593891
0.839761 -1.110575 0.808083
0.824407 -1.093332 0.168294
0.804201 -1.073698 0.042589
0.811144 -1.082581 0.161475
0.826828 -1.103899 0.352205
0.831532 -1.111372 0.761135
0.835591 -1.116768 0.588054
0.795917 -1.069581 0.006680
0.816895 -1.098773 0.539329
0.789057 -1.070832 0.015722
0.803303 -1.093916 0.289453
0.808913 -1.103336 0.351342
0.807026 -1.109716 0.502314
0.791613 -1.094523 0.325536
0.772103 -1.070172 0.006851
0.785464 -1.087253 0.164629
0.780066 -1.081009 0.122714
0.796318 -1.102583 0.572452
0.783651 -1.093306 0.164582
0.767251 -1.076632 0.158832
0.766544 -1.076625 0.041831
0.780854 -1.096941 0.342584
0.756232 -1.070563 0.006952
0.786350 -1.109526 0.536457
0.746184 -1.064863 0.014070
0.765610 -1.096828 0.286694
0.767070 -1.101300 0.343651
0.763122 -1.105721 0.493654
0.749735 -1.090501 0.319860
0.738526 -1.076017 0.008038
0.750844 -1.093083 0.160823
0.743401 -1.083910 0.121947
0.743903 -1.093264 0.161872
0.734666 -1.083441 0.158016
0.721612 -1.067711 0.041227
0.746203 -1.102758 0.336791
0.750596 -1.112360 0.529694
0.713376 -1.064602 0.006309
0.713647 -1.072670 0.013243
0.725787 -1.094768 0.281997
0.733481 -1.109110 0.339832
0.726363 -1.107585 0.487903
0.712975 -1.091370 0.315117
0.702549 -1.078902 0.121279
0.708969 -1.088066 0.156162
0.699817 -1.075972 0.008315
0.703084 -1.090232 0.158187
0.693801 -1.078417 0.155346
0.692114 -1.077454 0.041360
0.714768 -1.112188 0.522950
0.707416 -1.102657 0.330067
0.678727 -1.067461 0.006531
0.673829 -1.068628 0.011557
0.683852 -1.087751 0.277348
0.686352 -1.095167 0.330274
0.694725 -1.114346 0.484071
0.679268 -1.094182 0.312330
0.672184 -1.086937 0.152429
0.668960 -1.084732 0.120467
0.663131 -1.076877 0.008565
0.666335 -1.090113 0.155444
0.662194 -1.084197 0.154520
0.658451 -1.080279 0.040571
0.668523 -1.098543 0.322370
0.643061 -1.069334 0.005763
0.642213 -1.073404 0.010736
0.652256 -1.094525 0.275511
0.652719 -1.100964 0.325459
0.656873 -1.112219 0.477348
0.643496 -1.094031 0.308577
0.635382 -1.084806 0.148698
0.634219 -1.084579 0.119706
0.627389 -1.075755 0.008818
0.627412 -1.083027 0.151766
0.630531 -1.087966 0.152705
0.621682 -1.078172 0.039838
0.634812 -1.101336 0.317576
0.609364 -1.070163 0.005984
0.606465 -1.072264 0.008987
0.616473 -1.093380 0.272761
0.620009 -1.103741 0.321656
0.610763 -1.095807 0.304781
0.602728 -1.088589 0.145885
0.596368 -1.079485 0.118000
0.593728 -1.077593 0.010027
0.593697 -1.083849 0.150984
0.597911 -1.092758 0.150882
0.589032 -1.080978 0.040032
0.602128 -1.105104 0.312762
0.579778 -1.075897 0.006132
0.573767 -1.073068 0.009195
0.583788 -1.096172 0.270953
0.583164 -1.100592 0.315923
0.579035 -1.097565 0.301974
0.573110 -1.094299 0.143030
0.567818 -1.087198 0.118122
0.563097 -1.081349 0.010195
0.559930 -1.082660 0.149212
0.559973 -1.084644 0.147195
0.559383 -1.084701 0.039193
0.566275 -1.101921 0.306020
0.545043 -1.074738 0.005365
0.545199 -1.079768 0.008322
0.547880 -1.090012 0.267234
0.549332 -1.098369 0.310157
0.543120 -1.091397 0.297254
0.538295 -1.091122 0.140278
0.536189 -1.090978 0.118291
0.528316 -1.078196 0.010442
0.529225 -1.084398 0.147391
0.528278 -1.086406 0.145380
0.524595 -1.081540 0.038438
0.532420 -1.098696 0.300259
0.513323 -1.074514 0.005565
0.510358 -1.074595 0.006583
0.517220 -1.093752 0.265393
0.516565 -1.098138 0.306362
0.514440 -1.095089 0.295400
0.505521 -1.089888 0.136490
0.501317 -1.084815 0.117558
0.497676 -1.080957 0.011607
0.498506 -1.085142 0.146574
0.498625 -1.090119 0.143530
0.489708 -1.074375 0.037712
0.498575 -1.095470 0.294493
0.479543 -1.071326 0.004798
0.478640 -1.074360 0.005777
0.485408 -1.091503 0.262604
0.485814 -1.098858 0.302541
0.484742 -1.097794 0.292556
0.471689 -1.085683 0.133729
0.470633 -1.086559 0.116726
0.465938 -1.079730 0.011807
0.467760 -1.084876 0.144759
0.467905 -1.090853 0.141707
0.460031 -1.076101 0.037874
0.468869 -1.098157 0.289647
0.450889 -1.074027 0.004943
0.448909 -1.074076 0.004954
0.452561 -1.087276 0.259833
0.453899 -1.094519 0.289765
0.454021 -1.097591 0.297738
0.455940 -1.103871 0.445681
0.443033 -1.089360 0.130863
0.439848 -1.084298 0.115924
0.436241 -1.080453 0.011973
0.438012 -1.084584 0.142934
0.433486 -1.083747 0.036961
0.437193 -1.091585 0.139878
0.437113 -1.097898 0.285832
0.421170 -1.073750 0.005116
0.418137 -1.071803 0.003149
0.425998 -1.094933 0.259918
0.426199 -1.097181 0.287899
0.885866 -1.055218 -0.010178
0.422184 -1.094321 0.292947
0.426158 -1.103575 0.442852
0.420212 -1.098938 0.467927
0.414307 -1.090042 0.129019
0.419389 -1.102114 0.484905
0.410146 -1.085022 0.116085
0.409293 -1.085275 0.142089
0.405459 -1.077206 0.013174
0.403713 -1.081468 0.037147
0.405359 -1.087328 0.137093
0.408357 -1.098555 0.280986
0.407430 -1.102300 0.472968
0.912774 -1.093179 0.157393
0.873262 -1.051996 0.038960
0.392522 -1.076439 0.004251
0.392565 -1.078422 0.002233
0.901692 -1.089166 0.350505
0.396246 -1.094640 0.258085
0.396438 -1.096880 0.285066
0.885111 -1.104624 0.358463
0.892348 -1.088316 0.677588
0.881860 -1.077313 0.427728
0.395557 -1.099958 0.291044
0.394312 -1.100305 0.438055
0.868872 -1.091257 0.164661
0.391417 -1.098598 0.463087
0.383523 -1.087761 0.126207
0.389595 -1.101789 0.479070
0.381408 -1.084710 0.115244
0.383737 -1.092904 0.142161
0.846341 -1.078631 0.706930
0.377860 -1.081880 0.013282
0.375010 -1.082155 0.036296
0.378730 -1.091971 0.136196
0.871662 -1.117032 0.588463
0.836210 -1.074301 0.084997
0.835598 -1.073248 -0.033997
0.377521 -1.095258 0.276181
0.890645 -1.116553 0.581374
0.868045 -1.093250 0.156670
0.376619 -1.100988 0.466137
0.844321 -1.067663 -0.078992
0.843943 -1.068749 0.041008
0.364874 -1.079109 0.004367
0.360744 -1.073176 0.001440
0.873370 -1.107885 0.350532
0.367465 -1.093320 0.256241
0.367624 -1.094550 0.282231
0.842326 -1.104596 0.351725
0.813838 -1.071992 -0.008858
0.860924 -1.104092 0.675655
0.364731 -1.096668 0.287227
0.366578 -1.101956 0.435179
0.859736 -1.103933 0.431652
0.824062 -1.088306 0.161958
0.365750 -1.103220 0.462173
0.825606 -1.092100 0.253923
0.829827 -1.099912 0.465845
0.865041 -1.118408 0.830524
0.354754 -1.086428 0.123361
0.360805 -1.101446 0.474215
0.837324 -1.086481 0.212918
0.353776 -1.088382 0.115348
0.822816 -1.070660 -0.025879
0.356069 -1.095566 0.141274
0.361865 -1.109991 0.648143
0.832422 -1.114135 0.717729
0.348078 -1.078595 0.013458
0.347331 -1.083815 0.035417
0.818489 -1.103135 0.570895
0.350018 -1.092647 0.134330
0.789795 -1.068359 -0.031682
0.796592 -1.078261 0.085203
0.348760 -1.094919 0.272324
0.839610 -1.107647 0.567753
0.820202 -1.088367 0.154005
0.346838 -1.100660 0.460292
0.335039 -1.073815 0.003566
0.802691 -1.069693 -0.075750
0.804388 -1.074720 0.042205
0.330938 -1.068882 0.000630
0.825454 -1.101961 0.342874
0.340879 -1.095182 0.280362
0.345085 -1.106712 0.683259
0.340836 -1.097970 0.256336
0.798505 -1.102589 0.345010
0.338032 -1.099291 0.284340
0.771095 -1.070026 -0.007580
0.337751 -1.099619 0.431346
0.337962 -1.102860 0.458317
0.786467 -1.094204 0.160141
0.818058 -1.107895 0.425876
0.779742 -1.087154 0.249242
0.795257 -1.108738 0.462986
0.331991 -1.100092 0.468372
0.327115 -1.090081 0.121467
0.323958 -1.084089 0.114536
0.327308 -1.094242 0.139430
0.794648 -1.088495 0.211163
0.333038 -1.108649 0.643300
0.321431 -1.081248 0.014568
0.780133 -1.070704 -0.023619
0.334569 -1.120100 0.696193
0.791059 -1.118810 0.568935
0.319634 -1.084483 0.035549
0.332406 -1.116961 0.675231
0.320218 -1.089346 0.132508
0.745991 -1.063421 -0.029377
0.757942 -1.081187 0.084413
0.813260 -1.126320 0.567764
0.322172 -1.101551 0.270397
0.319074 -1.101291 0.455424
0.784687 -1.097237 0.154149
0.307376 -1.075482 0.003687
0.308496 -1.081415 -0.001371
0.760001 -1.068752 -0.071485
0.315236 -1.099798 0.279447
0.785762 -1.104888 0.339090
0.761666 -1.073746 0.042471
0.313082 -1.097623 0.254475
0.317315 -1.108330 0.676381
0.758756 -1.103498 0.339240
0.308997 -1.095494 0.451524
0.731368 -1.068988 -0.006335
0.310352 -1.101945 0.282451
0.310006 -1.100276 0.429475
0.744659 -1.091179 0.157414
0.742067 -1.090050 0.247443
0.747258 -1.099786 0.452344
0.770179 -1.102972 0.418202
0.301433 -1.092684 0.119568
0.304204 -1.099723 0.463510
0.306229 -1.108267 0.639433
0.301658 -1.097863 0.139522
0.299409 -1.091696 0.115586
0.294782 -1.083891 0.014673
0.735283 -1.063787 -0.021296
0.752888 -1.087473 0.208419
0.305559 -1.115561 0.669372
0.303520 -1.110732 0.683426
0.291912 -1.084140 0.034685
0.294541 -1.091957 0.131608
0.715566 -1.075188 -0.027294
0.718176 -1.079140 0.084664
0.294440 -1.102195 0.267523
0.289144 -1.094939 0.447622
0.743905 -1.095197 0.152406
0.288473 -1.099426 0.277577
0.280732 -1.078124 0.003790
0.279689 -1.077094 -0.002196
0.749086 -1.108743 0.335275
0.285338 -1.097284 0.253609
0.722416 -1.072686 -0.068296
0.288479 -1.106960 0.668529
0.724031 -1.076663 0.043668
0.282192 -1.094116 0.448662
0.284246 -1.100883 0.427591
0.722058 -1.106352 0.335430
0.283635 -1.103565 0.279562
0.696800 -1.074827 -0.006182
0.706946 -1.092070 0.155626
0.700231 -1.086016 0.243719
0.712619 -1.105597 0.448496
0.276398 -1.098350 0.458651
0.273725 -1.093333 0.117691
0.732506 -1.106852 0.414390
0.276031 -1.102474 0.138599
0.278434 -1.107907 0.635565
0.271656 -1.090353 0.114727
0.277587 -1.109155 0.660559
0.266032 -1.081578 0.014827
0.699706 -1.068666 -0.019130
0.715255 -1.091376 0.207606
0.275740 -1.111364 0.678548
0.266274 -1.087748 0.033771
0.266808 -1.091606 0.129739
0.267697 -1.102803 0.263641
0.676848 -1.074124 -0.026063
0.682554 -1.083002 0.084836
0.262491 -1.099562 0.444702
0.701040 -1.089200 0.150702
0.256164 -1.084708 0.002842
0.260726 -1.099076 0.275706
0.254058 -1.080701 -0.003113
0.258613 -1.097919 0.252725
0.700002 -1.094832 0.327670
0.681643 -1.068683 -0.065030
0.258599 -1.101694 0.448701
0.262867 -1.114562 0.665577
0.682194 -1.102252 0.329690
0.688477 -1.082543 0.045822
0.256480 -1.100527 0.424719
0.254817 -1.100229 0.276722
0.660123 -1.075716 -0.004982
0.669183 -1.090949 0.152848
0.666599 -1.090815 0.241868
0.680003 -1.112369 0.445624
0.248049 -1.095932 0.115782
0.249695 -1.100971 0.455747
0.252708 -1.110516 0.633656
0.248252 -1.100129 0.137745
0.250706 -1.105760 0.655709
0.246016 -1.093970 0.114809
0.692744 -1.106766 0.409615
0.240379 -1.084193 0.014917
0.250000 -1.113955 0.674639
0.663035 -1.069564 -0.016931
0.240668 -1.092364 0.033842
0.674488 -1.089335 0.205852
0.241187 -1.096214 0.128810
0.645811 -1.081882 0.085050
0.640155 -1.074020 -0.023858
0.240002 -1.104452 0.261747
0.235762 -1.101172 0.440804
0.236084 -1.103672 0.275772
0.228336 -1.079368 0.003011
0.658162 -1.082200 0.148999
0.229442 -1.085283 -0.004047
0.232959 -1.101537 0.252803
0.233883 -1.104274 0.446784
0.668425 -1.102586 0.325781
0.644986 -1.069588 -0.061834
0.232865 -1.106184 0.654782
0.229689 -1.099154 0.422847
0.645425 -1.102083 0.323894
0.647661 -1.077513 0.046091
0.229177 -1.104830 0.274791
0.623373 -1.073602 -0.003762
0.630390 -1.087857 0.151087
0.225804 -1.106110 0.627811
0.225944 -1.107334 0.652801
0.629862 -1.090680 0.240071
0.222868 -1.098580 0.451883
0.221439 -1.096749 0.135890
0.217006 -1.081637 0.113044
0.635996 -1.102333 0.436949
0.219241 -1.091608 0.114944
0.649846 -1.100727 0.402901
0.215816 -1.090783 0.014961
0.221044 -1.107562 0.664819
0.215009 -1.094968 0.032927
0.624281 -1.066504 -0.014693
0.208954 -1.073933 0.125148
0.637780 -1.090199 0.204045
0.213193 -1.102056 0.257882
0.608586 -1.079792 -0.022736
0.609079 -1.080760 0.085258
0.210376 -1.105280 0.274865
0.208934 -1.098771 0.435938
0.202660 -1.080972 0.002104
0.202698 -1.083900 -0.005924
0.627640 -1.090945 0.149091
0.207063 -1.101891 0.443917
0.206240 -1.102168 0.251909
0.631639 -1.101423 0.320989
0.204983 -1.101741 0.421926
0.206113 -1.107787 0.649878
0.609609 -1.099895 0.319104
0.609352 -1.071460 -0.059658
0.202373 -1.102442 0.271923
0.610936 -1.076399 0.047297
0.590728 -1.076386 -0.003612
0.596673 -1.088648 0.149260
0.200083 -1.104903 0.646928
0.198988 -1.104721 0.623933
0.197161 -1.101173 0.448964
0.593050 -1.087532 0.237293
0.195800 -1.100363 0.135961
0.602267 -1.104112 0.433113
0.186937 -1.066308 0.109305
0.193606 -1.095222 0.115016
0.195316 -1.110158 0.661900
0.189157 -1.092426 0.016054
0.615182 -1.104540 0.400053
0.188196 -1.090603 0.033075
0.186534 -1.087476 0.125115
0.593739 -1.073261 -0.012589
0.600009 -1.088083 0.202263
0.186467 -1.102668 0.254983
0.573865 -1.078637 -0.020545
0.578491 -1.086499 0.085369
0.184540 -1.101868 0.271999
0.182188 -1.099377 0.432038
0.177040 -1.084582 0.002172
0.181262 -1.100482 0.441032
0.177122 -1.089501 -0.006873
0.593982 -1.093745 0.148243
0.179427 -1.098797 0.251046
0.596881 -1.101230 0.318173
0.179265 -1.103349 0.421013
0.574852 -1.099694 0.315286
0.179392 -1.110397 0.645959
0.175550 -1.099053 0.269059
0.573621 -1.069336 -0.056453
0.582501 -1.088103 0.048346
0.176373 -1.108468 0.645988
0.557023 -1.076199 -0.002437
0.564013 -1.091424 0.148404
0.173223 -1.105324 0.622028
0.169148 -1.090775 0.442167
0.169000 -1.096989 0.135096
0.164467 -1.077840 0.108287
0.559360 -1.089324 0.235450
0.164711 -1.086894 0.114204
0.168387 -1.104731 0.654053
0.163437 -1.092035 0.016157
0.160349 -1.084250 0.032240
0.159740 -1.084101 0.124248
0.578432 -1.104386 0.396244
0.559044 -1.073097 -0.011409
0.564290 -1.087929 0.201447
0.159696 -1.101278 0.252098
0.538049 -1.073493 -0.019319
0.542713 -1.083350 0.085578
0.158814 -1.102472 0.271091
0.156430 -1.098047 0.438148
0.153537 -1.094134 0.001174
0.156590 -1.105984 0.431075
0.151377 -1.088100 -0.007764
0.153657 -1.097401 0.250155
0.557112 -1.087600 0.146483
0.564167 -1.102990 0.315323
0.152408 -1.098962 0.418154
0.541012 -1.096455 0.310484
0.151426 -1.102983 0.637131
0.148733 -1.095663 0.266190
0.151570 -1.108037 0.643085
0.539931 -1.069156 -0.054282
0.523273 -1.074009 -0.001250
0.546756 -1.085961 0.049544
0.532293 -1.092165 0.146556
0.147334 -1.100907 0.618164
0.145584 -1.099344 0.442176
0.140873 -1.079619 0.132359
0.139897 -1.084417 0.107317
0.527665 -1.091075 0.234592
0.138915 -1.083503 0.114330
0.531664 -1.100714 0.423498
0.142669 -1.107333 0.652124
0.133217 -1.068737 0.016480
0.135664 -1.085825 0.031316
0.133959 -1.081693 0.122364
0.543649 -1.103183 0.392427
0.526343 -1.072893 -0.009245
0.132882 -1.097885 0.249226
0.530562 -1.087726 0.200615
0.133015 -1.100066 0.269206
0.507464 -1.078236 -0.018211
0.511040 -1.085107 0.085717
0.132747 -1.101615 0.438201
0.122168 -1.063858 0.001563
0.129001 -1.100988 0.250211
0.129774 -1.103577 0.426193
0.124554 -1.082720 -0.008619
0.524439 -1.089381 0.146628
0.530387 -1.101760 0.311499
0.128904 -1.109555 0.421141
0.509329 -1.099190 0.307613
0.127862 -1.111599 0.642136
0.124001 -1.096241 0.265272
0.125703 -1.105565 0.633198
0.508288 -1.070937 -0.051143
0.122621 -1.103500 0.618227
0.490571 -1.073787 -0.001091
0.510941 -1.080816 0.050763
0.499563 -1.091927 0.144715
0.115124 -1.078218 0.131462
0.119917 -1.102948 0.441233
0.494875 -1.088838 0.232769
0.115301 -1.089991 0.106352
0.113048 -1.077102 0.113478
0.498898 -1.100463 0.419657
0.117967 -1.110908 0.650177
0.106215 -1.055367 0.016696
0.104181 -1.050540 0.030748
0.105849 -1.064321 0.119620
0.495710 -1.075643 -0.007123
0.509948 -1.104965 0.389572
0.108236 -1.098643 0.268304
0.475712 -1.076005 -0.016041
0.107206 -1.100476 0.247289
0.108023 -1.103195 0.437271
0.479321 -1.084861 0.085869
0.496894 -1.089522 0.199760
0.104275 -1.101573 0.250289
0.095290 -1.055487 0.001730
0.095244 -1.055387 -0.009269
0.104029 -1.104162 0.423274
0.102894 -1.099122 0.416324
0.492733 -1.090128 0.145771
0.497610 -1.100514 0.308665
0.102962 -1.107146 0.637261
0.478562 -1.098888 0.303759
0.098182 -1.092823 0.262390
0.101076 -1.112148 0.632221
0.098949 -1.108077 0.619264
0.477690 -1.074685 -0.049033
0.458819 -1.071547 0.000076
0.469895 -1.094627 0.143829
0.090342 -1.075792 0.130566
0.095189 -1.104518 0.439301
0.480327 -1.084557 0.051873
0.087099 -1.068609 0.102641
0.088412 -1.080684 0.113526
0.465253 -1.093541 0.231864
0.466084 -1.098200 0.414828
0.092173 -1.110487 0.646265
0.082607 -1.059924 0.016731
0.080499 -1.052089 0.029810
0.080039 -1.059918 0.118744
0.464010 -1.075403 -0.005975
0.083461 -1.097218 0.267397
0.084313 -1.105749 0.436324
0.477219 -1.105721 0.386716
0.081486 -1.101065 0.245367
0.447583 -1.083614 0.086024
0.445086 -1.078743 -0.014927
0.463077 -1.085313 0.198951
0.078393 -1.095162 0.248431
0.071563 -1.055034 0.000810
0.070392 -1.048958 -0.010131
0.077179 -1.099760 0.419400
0.077167 -1.099732 0.416400
0.079261 -1.110712 0.637303
0.465832 -1.099243 0.305821
0.459965 -1.087895 0.144940
0.445716 -1.094630 0.299944
0.073670 -1.102414 0.263379
0.074110 -1.105640 0.616365
0.074272 -1.110749 0.628318
0.445976 -1.073452 -0.046880
0.067986 -1.092334 0.131483
0.430223 -1.076229 0.000162
0.437105 -1.091393 0.143003
0.069427 -1.104110 0.437385
0.446563 -1.081363 0.053052
0.061150 -1.058196 0.100817
0.063639 -1.078265 0.113625
0.435583 -1.096241 0.230971
0.067305 -1.107041 0.642374
0.434273 -1.095921 0.410988
0.057873 -1.058503 0.016820
0.056845 -1.054644 0.029859
0.056302 -1.059466 0.117820
0.058734 -1.097791 0.266467
0.059473 -1.102317 0.434431
0.433336 -1.076148 -0.003846
0.055603 -1.094643 0.242504
0.444476 -1.105483 0.384863
0.416418 -1.080432 -0.013817
0.418956 -1.087305 0.087115
0.434484 -1.090999 0.199026
0.052683 -1.095767 0.248502
0.046762 -1.052503 -0.011094
0.055559 -1.114277 0.637341
0.053469 -1.102302 0.417448
0.046855 -1.054612 0.000887
0.051319 -1.095323 0.414518
0.433387 -1.094542 0.145996
0.437170 -1.102920 0.304913
0.417030 -1.097297 0.298044
0.047787 -1.095992 0.260515
0.049451 -1.110246 0.618395
0.048436 -1.108315 0.623416
0.040559 -1.060927 0.127852
0.418384 -1.078127 -0.044802
0.401531 -1.076918 0.001278
0.407368 -1.091079 0.141133
0.044630 -1.102667 0.434470
0.037487 -1.058851 0.111879
0.416872 -1.082076 0.054174
0.036380 -1.055757 0.098910
0.407960 -1.103236 0.485038
0.041468 -1.104607 0.637471
0.403809 -1.093983 0.230126
0.405607 -1.099600 0.410077
0.033213 -1.060088 0.017876
0.032110 -1.053212 0.028943
0.031647 -1.062035 0.116866
0.034034 -1.099371 0.266523
0.034731 -1.102891 0.433496
0.403655 -1.076859 -0.002727
0.029888 -1.095227 0.240571
0.412701 -1.104211 0.382008
0.385673 -1.078164 -0.012669
0.389262 -1.088008 0.087233
0.031786 -1.114831 0.636403
0.029047 -1.100331 0.249527
0.028634 -1.098867 0.415549
0.023156 -1.055155 -0.000052
0.403760 -1.090727 0.199158
0.021987 -1.049070 -0.011994
0.026674 -1.099904 0.414545
0.406370 -1.100622 0.302063
0.400555 -1.089305 0.145181
0.388344 -1.099954 0.295139
0.023108 -1.098562 0.259560
0.024642 -1.108814 0.616477
0.021515 -1.101885 0.616549
0.015884 -1.062504 0.127905
0.380768 -1.096714 0.141191
0.370759 -1.073640 0.001433
0.018705 -1.095228 0.429610
0.386660 -1.075900 -0.041651
0.013896 -1.064413 0.112892
0.011546 -1.050316 0.097027
0.378103 -1.099889 0.479189
0.387239 -1.084787 0.055271
0.016682 -1.104175 0.635542
0.377200 -1.099619 0.230183
0.374751 -1.095293 0.406241
0.009403 -1.055640 0.017980
0.008368 -1.051764 0.029019
0.392295 -1.105663 0.487083
0.007846 -1.058580 0.115961
0.376909 -1.111227 0.620098
0.010909 -1.100431 0.431582
0.010347 -1.101925 0.266562
0.373957 -1.076577 -0.000604
0.007965 -1.113374 0.634480
0.005207 -1.097786 0.238612
0.358031 -1.080827 -0.011583
0.359498 -1.085708 0.087372
0.004234 -1.096900 0.248623
0.384852 -1.110785 0.589071
0.380909 -1.101936 0.379157
0.003807 -1.095439 0.414645
-0.001526 -1.055728 0.000006
0.379753 -1.106259 0.302118
-0.002678 -1.050624 -0.013945
0.375150 -1.095408 0.199230
0.002174 -1.089272 0.826725
0.000868 -1.097472 0.410634
0.372915 -1.092961 0.145258
0.361726 -1.105580 0.294193
0.000902 -1.110383 0.617524
-0.001661 -1.097130 0.258637
-0.008005 -1.055049 0.127034
-0.004240 -1.102465 0.613610
0.349950 -1.092418 0.139350
-0.006103 -1.092790 0.427695
0.345225 -1.081257 0.002463
0.359076 -1.080571 -0.039585
-0.010844 -1.062988 0.112967
0.349303 -1.098536 0.475313
-0.012094 -1.053857 0.096053
-0.008104 -1.103740 0.633608
0.357508 -1.083495 0.056399
0.346429 -1.097335 0.229323
0.348154 -1.101930 0.406283
0.363461 -1.103301 0.482217
-0.015288 -1.054305 0.028054
-0.015215 -1.059212 0.018008
-0.012955 -1.095970 0.429682
-0.014492 -1.097484 0.264665
-0.016781 -1.062153 0.115989
0.347099 -1.109890 0.615224
0.346425 -1.111637 0.694215
-0.015927 -1.108898 0.630579
0.345276 -1.077261 0.000500
-0.017219 -1.106866 0.840610
-0.020594 -1.094367 0.236707
-0.020436 -1.099484 0.249660
0.329353 -1.081510 -0.010481
0.330805 -1.086384 0.087474
0.359744 -1.122447 0.703068
-0.021021 -1.092000 0.412737
-0.023799 -1.076239 -0.001130
0.353012 -1.107494 0.584223
0.350168 -1.101646 0.377277
-0.021875 -1.078765 0.818879
-0.024776 -1.079124 -0.016155
0.349981 -1.104932 0.299231
0.333992 -1.106216 0.292277
0.343144 -1.090649 0.144379
-0.025021 -1.091036 0.406741
0.343368 -1.092144 0.198367
-0.023900 -1.108954 0.616583
-0.026382 -1.097694 0.257677
-0.031622 -1.059596 0.127034
-0.028977 -1.104025 0.611640
-0.030817 -1.094357 0.426725
0.323358 -1.098047 0.139383
0.317560 -1.082905 0.002537
0.330380 -1.080259 -0.037488
-0.034524 -1.064544 0.113994
0.321525 -1.098156 0.471405
-0.032843 -1.105301 0.631638
-0.036786 -1.054418 0.095091
0.319724 -1.098955 0.228392
0.328827 -1.084186 0.058486
0.335708 -1.103930 0.479301
0.318356 -1.099604 0.403400
-0.038986 -1.054841 0.027090
-0.038932 -1.058757 0.018053
-0.037781 -1.092528 0.427758
-0.038243 -1.097033 0.264710
-0.040602 -1.057683 0.114071
-0.037234 -1.097380 0.845730
0.318623 -1.111250 0.689306
0.318369 -1.111545 0.612300
-0.039784 -1.105435 0.628652
0.317590 -1.077917 0.001581
0.331886 -1.120050 0.697177
-0.043355 -1.092347 0.826789
-0.046049 -1.061873 0.229049
-0.044666 -1.096569 0.414735
-0.043420 -1.089348 0.826817
-0.045174 -1.099055 0.249706
0.301648 -1.081174 -0.008392
0.304151 -1.089019 0.088532
-0.047498 -1.076783 -0.001095
-0.048629 -1.072660 -0.017055
0.323221 -1.106170 0.581330
0.322226 -1.104567 0.297334
-0.046718 -1.107478 0.615648
0.320426 -1.101328 0.375374
-0.048652 -1.096587 0.406743
0.304104 -1.099878 0.288442
0.316528 -1.095278 0.144432
-0.050049 -1.101233 0.256697
0.315711 -1.094806 0.199442
-0.054408 -1.057112 0.126106
-0.053920 -1.096551 0.605763
-0.054609 -1.092891 0.424791
0.295651 -1.098688 0.138475
-0.057374 -1.059061 0.113094
0.288763 -1.078585 0.003677
0.294821 -1.100762 0.468474
-0.056701 -1.101830 0.628722
-0.059460 -1.056933 0.094117
0.302778 -1.083926 -0.035424
0.292038 -1.100607 0.228474
-0.061277 -1.076275 0.017940
0.306868 -1.100572 0.475433
0.302226 -1.088822 0.059537
0.291640 -1.101227 0.402478
-0.060419 -1.098073 0.429755
-0.059445 -1.080769 0.831930
-0.062703 -1.054386 0.027144
-0.061971 -1.097582 0.264756
-0.063168 -1.065205 0.114049
-0.062698 -1.099932 0.624751
0.291894 -1.113851 0.685374
0.289519 -1.108189 0.608431
0.301867 -1.110662 0.687368
-0.068966 -1.096604 0.249779
-0.068496 -1.093111 0.413817
-0.067145 -1.091924 0.828843
0.292090 -1.086539 0.003590
-0.067233 -1.088861 0.821871
-0.070075 -1.093481 0.233809
0.277499 -1.091654 0.089598
0.276092 -1.087776 -0.008366
-0.072061 -1.083338 -0.002104
-0.073253 -1.076216 -0.018037
0.295546 -1.107196 0.297402
-0.071629 -1.101029 0.612759
0.277372 -1.100488 0.286527
0.293460 -1.105847 0.578435
0.291996 -1.103869 0.145437
0.290669 -1.100019 0.374488
-0.074944 -1.093787 0.254817
-0.074466 -1.093157 0.403828
0.288054 -1.097457 0.199512
-0.078179 -1.054650 0.125177
-0.079318 -1.094464 0.424826
0.267875 -1.096327 0.137589
-0.081184 -1.054608 0.113182
0.268019 -1.099356 0.464576
0.263233 -1.086186 0.003692
-0.083232 -1.054460 0.092186
0.275054 -1.082590 -0.033318
-0.081381 -1.075237 0.827024
0.281163 -1.103172 0.474495
-0.084275 -1.093606 0.427844
-0.085420 -1.055824 0.018175
0.264327 -1.101248 0.227559
0.262844 -1.098875 0.399594
-0.086401 -1.054920 0.026185
-0.086734 -1.096143 0.263818
0.272487 -1.086524 0.060658
-0.087004 -1.059742 0.113146
-0.086437 -1.101485 0.624784
0.266107 -1.114416 0.680453
0.261738 -1.107809 0.604525
0.275068 -1.110259 0.683460
-0.092254 -1.092670 0.414867
-0.092819 -1.091151 0.249875
-0.091082 -1.085447 0.824948
0.264361 -1.085193 0.004694
-0.091944 -1.088644 0.843921
-0.092219 -1.080361 0.812996
-0.094278 -1.071987 0.229052
-0.095951 -1.074882 -0.001981
0.249785 -1.091300 0.089691
0.249478 -1.091407 -0.007314
-0.096955 -1.076747 -0.018997
-0.095360 -1.102600 0.614790
0.267823 -1.107829 0.295487
0.250693 -1.103097 0.284588
0.263604 -1.101512 0.574572
0.263232 -1.101539 0.145552
-0.099152 -1.072285 0.249059
0.262969 -1.101662 0.373563
-0.099463 -1.081686 0.398980
0.260326 -1.097105 0.199605
-0.101925 -1.053194 0.125233
0.241214 -1.098941 0.136649
-0.105725 -1.062180 0.114157
0.236494 -1.084807 0.003788
-0.105360 -1.099728 0.603833
0.241325 -1.101968 0.462636
-0.105446 -1.092897 0.621897
0.254314 -1.099764 0.470612
-0.105080 -1.078819 0.830034
-0.107085 -1.047987 0.090288
-0.107947 -1.097171 0.429854
0.247360 -1.082252 -0.031228
-0.109136 -1.055365 0.018221
0.237664 -1.103882 0.228618
-0.110182 -1.051454 0.025259
-0.110149 -1.104054 0.626803
-0.111430 -1.097709 0.263848
0.237252 -1.105490 0.400612
-0.110729 -1.059285 0.113192
0.237175 -1.108021 0.672602
0.245867 -1.090156 0.061708
0.233917 -1.105436 0.601632
0.249291 -1.110841 0.680535
-0.116870 -1.098265 0.417859
-0.114828 -1.087019 0.826975
-0.117554 -1.090718 0.249922
0.236612 -1.082846 0.005801
-0.119702 -1.085581 0.229971
0.222768 -1.091036 -0.006229
0.243176 -1.112409 0.295520
0.223112 -1.092922 0.089757
-0.120107 -1.053420 -0.002744
-0.120287 -1.047265 -0.019688
0.223972 -1.103713 0.283663
0.236525 -1.102162 0.145628
-0.123689 -1.080867 0.251022
0.235228 -1.101312 0.373651
0.233752 -1.097165 0.569703
-0.126831 -1.090805 0.128931
0.232654 -1.098761 0.200674
-0.127859 -1.092564 0.422929
0.214388 -1.094554 0.135769
-0.130778 -1.092793 0.117919
0.215522 -1.100535 0.458725
0.209811 -1.085435 0.004861
0.227523 -1.098364 0.467705
0.221741 -1.085858 -0.030185
-0.144322 -1.253997 0.103467
-0.133655 -1.063924 0.018182
0.212418 -1.109578 0.669659
0.210471 -1.104098 0.398703
0.209912 -1.102519 0.227712
-0.137032 -1.091069 0.024940
-0.153920 -1.359561 0.138520
0.219180 -1.090795 0.063781
0.207139 -1.105038 0.598713
0.223568 -1.113431 0.678586
-0.142331 -1.088284 0.249983
0.211039 -1.088451 0.006823
-0.172684 -1.482561 0.305435
-0.143740 -1.056956 -0.002740
0.213188 -1.101063 0.291713
0.195006 -1.087696 -0.004119
0.196420 -1.093551 0.090827
0.218247 -1.123756 0.806511
-0.147224 -1.082861 -0.021972
0.198216 -1.103294 0.281740
0.206514 -1.088832 0.143839
-0.176183 -1.453860 0.329704
-0.176931 -1.437664 0.521861
0.207059 -1.099795 0.569755
0.207539 -1.102960 0.373715
0.204934 -1.098406 0.200756
-0.183000 -1.474195 0.563539
0.189777 -1.101120 0.456791
-0.153074 -1.066268 0.115193
0.184386 -1.081223 0.133977
0.201776 -1.098949 0.465772
0.183081 -1.084053 0.004948
-0.186901 -1.485848 0.838450
-0.157149 -1.064118 0.089217
0.195066 -1.086493 -0.028116
-0.157452 -1.059472 0.019257
0.186672 -1.111156 0.666715
0.183157 -1.101140 0.227798
0.183697 -1.102713 0.397790
0.193552 -1.094400 0.064818
0.198817 -1.115005 0.677640
0.180394 -1.105657 0.597780
-0.163588 -1.064728 0.246226
-0.190623 -1.370957 1.057511
0.185349 -1.089064 0.008887
0.187437 -1.100653 0.290787
0.169245 -1.085298 -0.003028
0.169588 -1.088169 0.090948
-0.167753 -1.057608 0.223296
-0.198666 -1.415115 1.054121
0.172537 -1.105883 0.280783
0.189393 -1.120396 0.802620
0.178637 -1.081465 0.142983
-0.171514 -1.063908 0.246244
0.180815 -1.103574 0.372780
0.180394 -1.103431 0.570792
0.178280 -1.101035 0.201803
0.159719 -1.083796 0.134016
0.164081 -1.103702 0.454833
0.177075 -1.101528 0.465813
0.156216 -1.076678 0.006086
0.169430 -1.089104 -0.026074
0.159768 -1.105728 0.660835
0.157442 -1.101736 0.227858
0.172873 -1.108544 0.670768
0.158062 -1.107322 0.398812
0.163498 -1.078084 0.065049
0.153625 -1.105264 0.595851
0.151919 -1.054825 0.010294
0.161763 -1.103250 0.290827
0.143939 -1.090771 0.091987
0.141420 -1.078945 -0.001900
0.144644 -1.098497 0.277921
0.153950 -1.083046 0.144029
0.162702 -1.124035 0.803653
0.140395 -1.107255 0.454857
0.153061 -1.102218 0.372862
0.152593 -1.101061 0.568883
0.151532 -1.099653 0.201881
0.152348 -1.103095 0.464859
0.135101 -1.088366 0.134032
0.128206 -1.062315 0.006288
0.134970 -1.105270 0.656898
0.149216 -1.114110 0.671773
0.135971 -1.052882 -0.022652
0.130691 -1.100344 0.226934
0.131294 -1.105933 0.397888
0.132586 -1.110882 0.822858
0.137835 -1.079695 0.067095
0.128917 -1.107851 0.596884
0.137006 -1.102813 0.289889
0.127254 -1.056402 0.011336
0.120972 -1.102037 0.276942
0.118150 -1.087363 0.092078
0.113370 -1.062590 -0.000682
0.124767 -1.061679 0.141298
0.135915 -1.123653 0.802719
0.115671 -1.108820 0.453898
0.127504 -1.099642 0.461949
0.126345 -1.102837 0.372917
0.124768 -1.097278 0.202965
0.125863 -1.101693 0.569938
0.105970 -1.068999 0.131279
0.101333 -1.053928 0.006425
0.110182 -1.104829 0.654956
0.124449 -1.114679 0.670823
0.111360 -1.056467 -0.020632
0.104960 -1.099945 0.227994
0.105589 -1.107528 0.397929
0.106864 -1.113486 0.822889
0.112147 -1.080294 0.068146
0.103098 -1.105432 0.594963
0.111266 -1.102406 0.289949
0.102565 -1.056969 0.011383
0.089740 -1.066142 0.000333
0.095232 -1.101620 0.276000
0.092414 -1.085961 0.093145
0.100042 -1.061248 0.141354
0.108143 -1.123302 0.802782
0.102711 -1.098197 0.460014
0.089885 -1.107388 0.450964
0.081107 -1.062558 0.130390
0.099063 -1.097878 0.204013
0.099635 -1.103463 0.373967
0.100239 -1.107309 0.571938
0.086550 -1.111391 0.655942
0.077637 -1.054479 0.007467
0.099562 -1.110218 0.666916
0.086632 -1.055041 -0.019568
0.079207 -1.098536 0.228058
0.079770 -1.104112 0.397012
0.082161 -1.117082 0.824905
0.086441 -1.079901 0.070201
0.077447 -1.110038 0.595970
0.086470 -1.099966 0.289021
0.077835 -1.055543 0.012445
0.070461 -1.100178 0.275061
0.066656 -1.083549 0.093217
0.062855 -1.056761 0.001473
0.075322 -1.060824 0.142406
0.081291 -1.119906 0.800866
0.077969 -1.098759 0.459056
0.064036 -1.102953 0.448054
0.057485 -1.067100 0.130390
0.075790 -1.110760 0.665956
0.073845 -1.101055 0.374038
0.061764 -1.110946 0.653992
0.072372 -1.098499 0.205057
0.073533 -1.108937 0.572973
0.053042 -1.059041 0.007469
0.053409 -1.095115 0.227137
0.062022 -1.058622 -0.017557
0.056349 -1.115672 0.823964
0.053978 -1.101695 0.396081
0.063071 -1.095458 0.072096
0.051635 -1.107623 0.595038
0.061676 -1.097524 0.288089
0.045736 -1.100735 0.274098
0.054274 -1.062091 0.013425
0.040613 -1.068137 0.093407
0.039117 -1.055310 0.002527
0.051567 -1.059366 0.142461
0.054152 -1.096296 0.458121
0.039271 -1.102503 0.446100
0.054563 -1.121546 0.802897
0.050937 -1.107315 0.664032
0.032809 -1.068663 0.130416
0.036979 -1.110499 0.652037
0.048172 -1.103654 0.375057
0.046602 -1.096086 0.205124
0.029301 -1.057580 0.007521
0.047656 -1.103513 0.571069
0.038310 -1.058179 -0.015514
0.028674 -1.094689 0.228181
0.031573 -1.116237 0.822999
0.029202 -1.100262 0.396135
0.026909 -1.109203 0.596062
0.033512 -1.055107 0.071526
0.036932 -1.097089 0.288133
0.029436 -1.055662 0.014525
0.019959 -1.098312 0.273161
0.015509 -1.059846 0.002519
0.015878 -1.066707 0.094458
0.027904 -1.061915 0.143474
0.029416 -1.096864 0.458154
0.015479 -1.101038 0.445150
0.028299 -1.113867 0.667005
0.027765 -1.120165 0.802952
0.013234 -1.112046 0.652058
0.007913 -1.060216 0.129532
0.005670 -1.061115 0.007512
0.020859 -1.094679 0.206166
0.021422 -1.102273 0.376101
0.022015 -1.108140 0.575054
0.005816 -1.116850 0.825021
0.013696 -1.061745 -0.014521
0.002952 -1.094281 0.229212
0.003461 -1.099848 0.396166
0.001105 -1.106792 0.596112
0.009881 -1.058661 0.073517
0.012145 -1.094641 0.287183
-0.004894 -1.092855 0.271238
0.005894 -1.063205 0.015477
0.004174 -1.061452 0.143502
-0.008944 -1.061266 0.094534
-0.009129 -1.062411 0.003519
0.005626 -1.095396 0.457193
-0.009369 -1.096573 0.442216
0.003384 -1.107397 0.663091
-0.011545 -1.111593 0.650086
0.002035 -1.121784 0.805963
-0.015795 -1.060742 0.128549
-0.019011 -1.061680 0.008539
-0.004426 -1.096850 0.375188
-0.004769 -1.098288 0.209168
-0.004729 -1.107760 0.576095
-0.018903 -1.119446 0.828029
-0.021824 -1.091841 0.229267
-0.021331 -1.097410 0.396221
-0.009544 -1.083293 -0.012694
-0.023642 -1.107357 0.596139
-0.011627 -1.093180 0.287228
-0.013860 -1.057206 0.074562
-0.028600 -1.094392 0.271253
-0.017372 -1.083752 0.017312
-0.019510 -1.062997 0.144517
-0.032730 -1.057811 0.095596
-0.032907 -1.058954 0.004581
-0.018117 -1.095936 0.457218
-0.033176 -1.094104 0.441268
-0.019365 -1.108927 0.664106
-0.035555 -1.101072 0.643214
-0.039543 -1.059277 0.128591
-0.023786 -1.119375 0.806018
-0.042749 -1.060213 0.008580
-0.029458 -1.099855 0.210183
-0.030246 -1.092433 0.375261
-0.042701 -1.118991 0.828061
-0.030593 -1.102338 0.575177
-0.045088 -1.096957 0.397253
-0.045566 -1.091385 0.230298
-0.034273 -1.081856 -0.011652
-0.047571 -1.099881 0.594236
-0.036171 -1.101755 0.289176
-0.038564 -1.056781 0.076594
-0.052371 -1.092918 0.270293
-0.040912 -1.094452 0.457257
-0.042082 -1.083315 0.018344
-0.056225 -1.077490 0.005430
-0.043238 -1.062531 0.144548
-0.056473 -1.056344 0.095634
-0.042382 -1.098392 0.658230
-0.056852 -1.097650 0.442260
-0.059136 -1.109657 0.648158
-0.062554 -1.092838 0.132297
-0.049490 -1.122009 0.811021
-0.066093 -1.077738 0.008437
-0.054252 -1.096421 0.211241
-0.053932 -1.094997 0.378262
-0.067688 -1.109511 0.823175
-0.055353 -1.101919 0.577206
-0.057065 -1.078383 -0.009596
-0.069813 -1.097525 0.398271
-0.070213 -1.094949 0.231289
-0.059081 -1.094259 0.288269
-0.072269 -1.102460 0.596236
-0.062094 -1.065328 0.078536
-0.076182 -1.089442 0.269347
-0.063555 -1.099993 0.460227
-0.065805 -1.082854 0.019371
-0.065038 -1.103945 0.662200
-0.066337 -1.092093 0.148290
-0.080068 -1.061892 0.097603
-0.080333 -1.058033 0.006635
-0.080637 -1.096176 0.441295
-0.085820 -1.067325 0.129557
-0.075153 -1.126650 0.817001
-0.090120 -1.062271 0.008603
-0.078959 -1.096993 0.213257
-0.079790 -1.088578 0.378345
-0.092493 -1.108084 0.824209
-0.094060 -1.089481 0.231359
-0.094515 -1.099099 0.400276
-0.080995 -1.106537 0.581185
-0.082654 -1.082973 -0.007617
-0.082767 -1.096800 0.289265
-0.097848 -1.110095 0.602184
-0.085958 -1.057869 0.079626
-0.100323 -1.069942 0.265549
-0.087426 -1.094510 0.458298
-0.090494 -1.083413 0.020385
-0.089849 -1.054574 0.144662
-0.103729 -1.064429 0.098596
-0.104107 -1.054571 0.007685
-0.109772 -1.055848 0.128682
-0.101036 -1.121235 0.817071
-0.113915 -1.057808 0.009660
-0.104655 -1.097584 0.215270
-0.118004 -1.119767 0.835116
-0.105310 -1.098198 0.383272
-0.119571 -1.099089 0.235286
-0.119240 -1.099671 0.402287
-0.105908 -1.056504 -0.005352
-0.106744 -1.106144 0.584206
-0.109777 -1.052408 0.080692
-0.123321 -1.057425 0.262680
-0.113370 -1.064117 0.146587
-0.113672 -1.060923 0.020611
-0.127653 -1.072132 0.431551
-0.129875 -1.091040 0.101361
-0.130169 -1.085151 0.007412
-0.484303 -1.068688 0.128292
-0.157880 -1.417327 0.165317
-0.489170 -1.073782 0.127247
-0.489924 -1.076742 0.226225
-0.137671 -1.055333 0.009695
-0.126294 -1.098679 0.804296
-0.129486 -1.092144 0.216334
-0.129603 -1.079813 0.286453
-0.130918 -1.103808 0.387232
-0.142871 -1.071565 0.231555
-0.129640 -1.055037 -0.004327
-0.132619 -1.099723 0.584280
-0.491498 -1.054661 0.109408
-0.135880 -1.081026 0.084435
-0.169130 -1.336099 0.327091
-0.137466 -1.056458 0.021664
-0.164179 -1.439740 0.192085
-0.151354 -1.054492 0.099712
-0.150840 -1.038612 0.008856
-0.513623 -1.077545 0.257208
-0.157126 -1.059897 0.128664
-0.165050 -1.050017 0.227762
-0.153448 -1.049580 -0.002268
-0.181861 -1.365727 0.570804
-0.188660 -1.446738 0.869060
-0.158120 -1.055514 0.084681
-0.162585 -1.074235 0.149510
-0.233845 -1.426314 0.305269
-0.587713 -1.075614 0.413179
-0.486313 -1.068856 0.120360
-0.493130 -1.075163 0.137296
-0.494065 -1.069965 0.114305
