# .PCD v0.7 - Point Cloud Data file format
VERSION 0.7
FIELDS x y z
SIZE 4 4 4
TYPE F F F
COUNT 1 1 1
WIDTH 120
HEIGHT 1
VIEWPOINT 0 0 0 1
POINTS 120
DATA ascii
1.745757 2.878929 2.042548
1.750470 2.991988 1.985854
1.726332 2.712615 1.954813
1.875610 3.037171 2.043840
1.685412 2.559358 1.942844
1.848019 2.763572 2.020837
1.900631 2.925308 1.999281
1.772402 2.554828 1.978933
1.683589 2.591221 1.930444
1.890091 2.694723 2.003551
1.832201 2.510011 1.986568
1.796954 2.623984 1.990919
1.708920 2.641424 1.938078
1.688144 2.771604 1.951105
1.834426 2.391600 1.936342
1.834327 2.547035 1.970369
1.827121 2.680297 1.998796
1.804690 2.806573 2.003698
1.841031 2.570157 1.952017
1.837752 2.716739 1.969787
1.729208 2.193601 1.960124
1.743469 2.102442 1.914743
1.867590 2.136150 1.984519
3.666254 2.855400 -0.367722
3.678165 1.804578 -0.085831
3.688158 1.805791 -0.085555
3.657038 1.870745 -0.203190
3.685245 1.700937 -0.084581
3.691232 1.701041 -0.083426
4.302075 1.788002 0.057752
4.339200 1.797048 0.046857
3.620925 1.746306 -0.215430
3.646386 1.754627 -0.200622
3.702975 1.764877 -0.033913
3.833024 1.658730 -0.086613
3.851913 1.663128 -0.085051
4.378767 1.700925 0.059092
3.647377 1.834298 -0.372200
4.380202 1.694065 0.049997
3.620890 1.815978 -0.336195
3.642073 1.812615 -0.181643
3.691275 1.650777 -0.033324
4.392825 1.753558 0.110465
3.634011 1.710436 -0.334818
3.651262 1.705002 -0.181404
4.612993 1.812832 -0.252001
4.026789 1.719095 0.022507
4.039697 1.644745 -0.199639
4.264194 1.696800 0.019142
-0.627597 -1.136766 0.312708
-0.636336 -1.141789 0.522551
-0.638386 -1.138312 0.416558
-0.660144 -1.145569 0.636189
-0.669051 -1.138071 0.525169
-0.673118 -1.140642 0.421049
-0.685887 -1.133747 0.636039
-0.653367 -1.146413 0.561448
-0.653574 -1.144456 0.350433
-0.654859 -1.143474 0.422447
-0.703780 -1.137392 0.529718
-0.612323 -1.138352 0.226254
-0.718012 -1.147947 0.775405
-0.677634 -1.142776 0.646204
-0.730698 -1.152345 0.654138
-0.634462 -1.140149 0.413969
-0.686109 -1.144718 0.566043
-0.686638 -1.140775 0.427072
-0.643768 -1.143758 0.380780
-0.750741 -1.142238 0.780074
-0.667226 -1.149648 0.646431
-0.717440 -1.153273 0.660510
-0.760457 -1.142587 0.656915
-0.674330 -1.151056 0.600305
-0.666251 -1.138464 0.419581
-0.722229 -1.146535 0.820595
-0.723860 -1.150114 0.574462
-0.675513 -1.142030 0.383394
-0.637956 -1.147145 0.415010
-0.794528 -1.151767 0.795350
-0.704039 -1.154089 0.658882
-0.744200 -1.139461 0.661398
-0.659577 -1.151369 0.634706
-0.706101 -1.148361 0.605940
-0.658709 -1.144442 0.640832
-0.653763 -1.135197 0.411001
-0.667720 -1.143398 0.417688
-0.733838 -1.146371 0.664633
-0.685364 -1.142583 0.637522
-0.737860 -1.145647 0.610583
-0.690535 -1.141799 0.650472
-0.770653 -1.147787 0.676149
-0.722157 -1.150006 0.648937
-0.729358 -1.148275 0.664880
-0.750948 -1.144264 0.653678
-0.761183 -1.142607 0.673584
-0.584307 2.328704 1.846422
-0.562091 2.431704 1.849004
-0.532641 2.344767 1.850732
-0.581280 2.328684 1.841702
-0.560004 2.339689 1.844893
-0.502341 2.442790 1.853231
-0.479958 2.361801 1.857040
-0.527593 2.343794 1.842986
-0.581261 2.341494 1.848177
-0.504289 2.350803 1.846111
-0.550840 2.247691 1.840780
-0.598467 2.139655 1.830360
-0.474917 2.360869 1.846280
-0.527576 2.363570 1.851553
-0.554856 2.161674 1.835739
-0.499156 2.259806 1.841001
-0.584290 2.361463 1.842767
-0.509229 2.180740 1.838060
-0.474898 2.390568 1.859982
-0.530607 2.392492 1.849265
-0.462588 2.198792 1.841348
-0.474908 2.418553 1.853666
-0.546536 3.054919 1.881254
-0.477843 3.060177 1.875296
1.702046 2.894877 1.970806
