# .PCD v0.7 - Point Cloud Data file format
VERSION 0.7
FIELDS x y z
SIZE 4 4 4
TYPE F F F
COUNT 1 1 1
WIDTH 137
HEIGHT 1
VIEWPOINT 0 0 0 1
POINTS 137
DATA ascii
-0.523274 -1.949687 -0.039600
-0.526656 -1.944451 -0.090436
-0.526810 -1.940986 -0.109352
-0.540726 -1.949020 0.011690
-0.486598 -1.949773 -0.113720
-0.486584 -1.948823 -0.111695
-0.569861 -1.946977 -0.035862
-0.570278 -1.936712 -0.087611
-0.573394 -1.941259 -0.106693
-0.586333 -1.946275 0.014410
-0.522596 -1.958068 -0.026381
-0.531207 -1.943041 -0.110905
-0.531216 -1.942017 -0.111879
-0.542406 -1.952260 -0.021947
-0.613481 -1.939255 -0.032046
-0.493071 -1.941856 -0.114047
-0.616868 -1.935982 -0.084935
-0.494179 -1.940497 -0.129003
-0.617012 -1.930547 -0.102799
-0.631951 -1.944505 0.016095
-0.566230 -1.946324 -0.023457
-0.576823 -1.937264 -0.110110
-0.576816 -1.936289 -0.109085
-0.522041 -1.947422 -0.013736
-0.587045 -1.942470 -0.021065
-0.660075 -1.935544 -0.028302
-0.538689 -1.938055 -0.114300
-0.662475 -1.931249 -0.082180
-0.540782 -1.940700 -0.129345
-0.663599 -1.927844 -0.099083
-0.546145 -1.946563 -0.053389
-0.677571 -1.935762 0.018951
-0.610858 -1.938557 -0.021632
-0.501578 -1.939707 -0.124489
-0.502811 -1.939939 -0.156491
-0.503316 -1.941488 -0.092497
-0.623427 -1.936488 -0.109441
-0.622435 -1.930511 -0.108300
-0.568650 -1.946635 -0.013059
-0.633659 -1.940683 -0.020372
-0.705683 -1.929828 -0.024531
-0.524503 -1.946565 -0.010294
-0.584303 -1.933277 -0.113538
-0.711057 -1.931525 -0.079525
-0.709207 -1.924111 -0.096364
-0.585414 -1.933896 -0.129545
-0.592764 -1.942759 -0.053640
-0.725171 -1.936021 0.021590
-0.658458 -1.936799 -0.019932
-0.546461 -1.929112 -0.157600
-0.546220 -1.929881 -0.125610
-0.548950 -1.938635 -0.094783
-0.668054 -1.926731 -0.107577
-0.669036 -1.928759 -0.106615
-0.613288 -1.937843 -0.012214
-0.679291 -1.931896 -0.019522
-0.754266 -1.931120 -0.020912
-0.570140 -1.941727 -0.011533
-0.756672 -1.925790 -0.076765
-0.629928 -1.927476 -0.113760
-0.756803 -1.920386 -0.093630
-0.631041 -1.926098 -0.129716
-0.637409 -1.931948 -0.053748
-0.770805 -1.929251 0.023373
-0.587455 -1.947505 0.059587
-0.705072 -1.933037 -0.018204
-0.591846 -1.926056 -0.126879
-0.594071 -1.928275 -0.159919
-0.595576 -1.930814 -0.095937
-0.714661 -1.922980 -0.105851
-0.715652 -1.922984 -0.105838
-0.659907 -1.933057 -0.011454
-0.725908 -1.926135 -0.017747
-0.800883 -1.924383 -0.018123
-0.616761 -1.938917 -0.011820
-0.802294 -1.917056 -0.073937
-0.803405 -1.915680 -0.089894
-0.677535 -1.926681 -0.114094
-0.677658 -1.921302 -0.129961
-0.684033 -1.928143 -0.054020
-0.816434 -1.921505 0.026171
-0.751683 -1.929298 -0.015487
-0.635083 -1.944666 0.058310
-0.638474 -1.922213 -0.129145
-0.640690 -1.924460 -0.161185
-0.642207 -1.926967 -0.098204
-0.762264 -1.918233 -0.104098
-0.762272 -1.918209 -0.105098
-0.708509 -1.933277 -0.010808
-0.772535 -1.922348 -0.017035
-0.848481 -1.920695 -0.013411
-0.848909 -1.910325 -0.071160
-0.663388 -1.934107 -0.012067
-0.851011 -1.911953 -0.087182
-0.723169 -1.917881 -0.114260
-0.726266 -1.921489 -0.131318
-0.732651 -1.925322 -0.055302
-0.800289 -1.927542 -0.013807
-0.680740 -1.932824 0.057225
-0.686088 -1.919397 -0.130435
-0.686331 -1.915618 -0.163348
-0.688844 -1.920121 -0.100405
-0.808888 -1.913456 -0.103369
-0.810878 -1.917439 -0.104446
-0.755136 -1.928490 -0.010071
-0.822140 -1.923571 -0.016424
-0.896092 -1.912984 -0.009607
-0.711017 -1.929278 -0.013311
-0.772767 -1.920091 -0.114667
-0.773883 -1.918696 -0.131624
-0.779284 -1.919517 -0.055545
-0.845920 -1.914802 -0.010894
-0.729366 -1.929989 0.055939
-0.733714 -1.916558 -0.132736
-0.733955 -1.911784 -0.165624
-0.736466 -1.917302 -0.101706
-0.857500 -1.907689 -0.102600
-0.857493 -1.907712 -0.101601
-0.802759 -1.924706 -0.009358
-0.868779 -1.914786 -0.015606
-0.760624 -1.929479 -0.013669
-0.819399 -1.913294 -0.114894
-0.819523 -1.908898 -0.131787
-0.827904 -1.916719 -0.055851
-0.893545 -1.908042 -0.009121
-0.778980 -1.930181 0.055577
-0.782336 -1.913723 -0.135035
-0.782574 -1.908953 -0.167923
-0.786081 -1.918465 -0.104096
-0.850388 -1.915925 -0.008528
-0.806279 -1.920642 -0.014859
-0.874546 -1.906916 -0.056014
-0.828975 -1.903906 -0.136194
-0.830207 -1.902120 -0.170146
-0.833722 -1.908626 -0.106242
-0.899013 -1.910146 -0.007775
-0.854907 -1.912843 -0.015050
