# .PCD v0.7 - Point Cloud Data file format
VERSION 0.7
FIELDS x y z
SIZE 4 4 4
TYPE F F F
COUNT 1 1 1
WIDTH 23
HEIGHT 1
VIEWPOINT 0 0 0 1
POINTS 23
DATA ascii
0.237903 -3.627096 1.739962
0.138810 -2.791568 1.677524
0.147061 -3.563413 1.716123
0.242241 -3.427131 1.706838
0.068505 -2.506556 1.704086
0.082461 -2.871099 1.726468
0.194298 -3.208995 1.883653
0.021431 -2.828375 1.703246
0.164359 -3.454669 1.723656
0.107940 -2.945247 1.727687
0.238365 -3.294253 1.699560
0.250264 -3.622509 2.081685
0.041741 -2.900728 1.701543
0.168990 -3.357371 1.732559
0.128381 -3.018553 1.731994
0.253782 -3.242532 1.718723
0.090227 -3.276385 1.692285
0.244485 -3.396329 1.894470
0.058618 -2.985125 1.709025
0.184250 -3.257863 1.725239
0.143646 -3.097182 1.721446
0.112206 -3.239413 1.713455
0.070848 -3.085756 1.709746
