# .PCD v0.7 - Point Cloud Data file format
VERSION 0.7
FIELDS x y z
SIZE 4 4 4
TYPE F F F
COUNT 1 1 1
WIDTH 256
HEIGHT 1
VIEWPOINT 0 0 0 1
POINTS 256
DATA ascii
2.800275 -1.459610 1.530035
2.772277 -1.454597 1.530048
2.699288 -1.451569 1.557079
2.676304 -1.451573 1.601088
2.616450 -1.441682 1.984116
2.659250 -1.467516 1.474091
2.638252 -1.467508 1.480099
2.560477 -1.440679 2.056139
2.568501 -1.446708 2.127134
2.575264 -1.462485 1.506127
2.556280 -1.465492 1.554134
2.534438 -1.454631 1.968146
2.511422 -1.460606 1.933154
2.535228 -1.477434 1.427139
2.511229 -1.478424 1.433149
2.437597 -1.444733 2.386189
2.447449 -1.450595 1.992183
2.423676 -1.440800 2.592196
2.451472 -1.457622 2.063180
2.452241 -1.468402 1.455176
2.444257 -1.478417 1.510177
2.383639 -1.444745 2.498212
2.417410 -1.467547 1.909191
2.368718 -1.439812 2.706219
2.382589 -1.458700 2.380208
2.401397 -1.471527 1.878197
2.313779 -1.419837 2.847248
2.431206 -1.494365 1.391178
2.339704 -1.446785 2.675230
2.393208 -1.490346 1.392195
2.351422 -1.467525 1.942219
2.349569 -1.466665 2.336220
2.313643 -1.449713 2.514240
2.349445 -1.472547 2.010219
2.354219 -1.484335 1.417213
2.256771 -1.434802 2.841269
2.293609 -1.461674 2.439245
2.337236 -1.490344 1.469219
2.266686 -1.452731 2.635259
2.320385 -1.486478 1.865227
2.231749 -1.439769 2.788278
2.302373 -1.484456 1.830235
2.275560 -1.468618 2.314251
2.328186 -1.506296 1.355218
2.234672 -1.454701 2.599272
2.267398 -1.487463 1.901249
2.247542 -1.475587 2.273261
2.285187 -1.501274 1.353238
2.218614 -1.462638 2.452277
2.254420 -1.487478 1.962255
2.264198 -1.501273 1.383247
2.161739 -1.443724 2.766307
2.176579 -1.457581 2.352296
2.224217 -1.493268 1.424266
2.160656 -1.457646 2.558303
2.216361 -1.497404 1.816268
2.129716 -1.442684 2.704320
2.210350 -1.499390 1.787271
2.172532 -1.477539 2.251293
2.224168 -1.514227 1.317261
2.139644 -1.464625 2.534311
2.167374 -1.494389 1.847290
2.150516 -1.483513 2.213301
2.114585 -1.464556 2.378321
2.177170 -1.507202 1.315283
2.149397 -1.491401 1.905299
2.145181 -1.495193 1.333300
2.073709 -1.454651 2.699342
2.094553 -1.471516 2.300328
2.132198 -1.505206 1.391303
2.067628 -1.467572 2.495341
2.049689 -1.456618 2.646352
2.114339 -1.504331 1.767311
2.119328 -1.509325 1.744307
2.109152 -1.509150 1.272312
2.070506 -1.482461 2.187336
2.036615 -1.464543 2.458355
2.071352 -1.498318 1.794331
2.058491 -1.491443 2.157339
2.025560 -1.473486 2.320358
2.056375 -1.499333 1.857338
2.067153 -1.509129 1.276330
2.067163 -1.511140 1.306330
1.984681 -1.460577 2.630379
2.009528 -1.481449 2.245363
2.029182 -1.506136 1.351348
1.969663 -1.467553 2.588384
1.975601 -1.473499 2.432380
2.025308 -1.515257 1.699347
2.018319 -1.511262 1.722351
2.021136 -1.519091 1.243348
1.983483 -1.493395 2.139371
1.952591 -1.472476 2.402390
1.975331 -1.498248 1.741374
1.970468 -1.497376 2.105376
1.944536 -1.484423 2.270391
1.958355 -1.499262 1.805381
1.971147 -1.513074 1.268371
1.980136 -1.521071 1.248365
1.901655 -1.467509 2.569415
1.929505 -1.489386 2.193396
1.947166 -1.517081 1.323381
1.886636 -1.472484 2.524420
1.892578 -1.481434 2.378415
1.914290 -1.502178 1.638400
1.914300 -1.508188 1.670398
1.874568 -1.482414 2.353423
1.901461 -1.504334 2.095405
1.886312 -1.499183 1.694413
1.892448 -1.506317 2.062409
1.868514 -1.495364 2.226422
1.865336 -1.498193 1.755423
1.829632 -1.479450 2.520444
1.849483 -1.495323 2.142431
1.807612 -1.477419 2.465455
1.812555 -1.489371 2.328449
1.824273 -1.500113 1.593441
1.820282 -1.507121 1.624441
1.799546 -1.492356 2.307454
1.812440 -1.507266 2.042444
1.802294 -1.501121 1.650451
1.812428 -1.511256 2.016443
1.786492 -1.499299 2.173459
1.783317 -1.503133 1.714459
1.751608 -1.483386 2.462479
1.780462 -1.507270 2.102459
1.738590 -1.487362 2.418483
1.735534 -1.496310 2.280482
1.733527 -1.504305 2.271482
1.723420 -1.504198 1.988486
1.724409 -1.507188 1.961485
1.713472 -1.506243 2.129491
1.691441 -1.498199 2.038504
1.685588 -1.494333 2.421507
1.674570 -1.498311 2.378512
1.671515 -1.511261 2.249510
1.658507 -1.508245 2.224517
1.615566 -1.499274 2.373541
1.604548 -1.502251 2.328546
2.697960 -1.436782 1.675854
2.621000 -1.451777 1.795886
2.599929 -1.459715 1.630895
2.509169 -1.439847 2.209941
2.714970 -1.449789 1.725856
2.505972 -1.459701 1.741938
2.472230 -1.444875 2.369957
2.481901 -1.466637 1.574948
2.642912 -1.463712 1.600886
2.413134 -1.456776 2.148983
2.592941 -1.461709 1.673910
2.406946 -1.472635 1.698983
2.382198 -1.461809 2.315996
2.515132 -1.440809 2.127950
2.322380 -1.432909 2.737030
2.374873 -1.477565 1.524997
2.509883 -1.465626 1.538948
2.467159 -1.453808 2.213970
2.318101 -1.471705 2.089025
2.471914 -1.468630 1.620965
2.310921 -1.483571 1.657026
2.280167 -1.466734 2.250044
2.235342 -1.447837 2.665069
2.421099 -1.459741 2.073991
2.346371 -1.441901 2.735029
2.398857 -1.474553 1.490999
2.348324 -1.448868 2.624027
2.176402 -1.442850 2.813098
2.368128 -1.467737 2.158015
2.228070 -1.484639 2.034066
2.381888 -1.487571 1.586004
2.224898 -1.496513 1.621065
2.187138 -1.473666 2.192088
2.140304 -1.454760 2.584114
2.320067 -1.470668 2.014037
2.252336 -1.453828 2.666073
2.090368 -1.449780 2.742139
2.300831 -1.487488 1.449043
2.243285 -1.453786 2.541077
2.275098 -1.481670 2.107057
2.132040 -1.490568 1.972112
2.269865 -1.490498 1.538058
2.131876 -1.502450 1.580110
2.107111 -1.485607 2.145125
2.049268 -1.460687 2.508157
2.230037 -1.485603 1.963078
2.086799 -1.502371 1.393132
2.007336 -1.455713 2.674179
2.146299 -1.453745 2.581124
2.210807 -1.501428 1.413085
2.149251 -1.461713 2.470121
2.179070 -1.489601 2.052102
2.040011 -1.495500 1.913157
2.038855 -1.503388 1.537156
2.026085 -1.494547 2.097163
1.968235 -1.469621 2.443197
2.140009 -1.495538 1.912120
1.990779 -1.502307 1.349180
1.942308 -1.471660 2.628210
2.057267 -1.461676 2.517167
2.107786 -1.501361 1.368135
2.059218 -1.468642 2.402164
2.089043 -1.497537 2.002145
1.953984 -1.502437 1.860198
1.946061 -1.500488 2.049203
1.944836 -1.500324 1.493203
1.892204 -1.479559 2.383233
2.045982 -1.499470 1.856166
1.932757 -1.527266 1.329205
1.865279 -1.475598 2.566248
1.977238 -1.470614 2.460205
1.977187 -1.476578 2.342204
2.018765 -1.508301 1.331178
2.006018 -1.507477 1.957185
1.872038 -1.507433 2.007239
1.868958 -1.505374 1.807241
1.873818 -1.510276 1.466238
1.983801 -1.505309 1.421196
1.820175 -1.489501 2.329268
1.953957 -1.501405 1.803212
1.902341 -1.463647 2.713244
1.793251 -1.480539 2.510284
1.898210 -1.478552 2.406243
1.893157 -1.481513 2.281245
1.944744 -1.523251 1.304213
1.789015 -1.504372 1.954282
1.910994 -1.504409 1.901233
1.776934 -1.499306 1.748289
1.908782 -1.517259 1.394232
1.748146 -1.497442 2.274304
1.834312 -1.475590 2.659276
1.862933 -1.499339 1.749258
1.726226 -1.487485 2.460317
1.826184 -1.488496 2.359278
1.820131 -1.490456 2.231282
1.708993 -1.500312 1.902324
1.824971 -1.503347 1.851277
1.768314 -1.477555 2.672310
1.685120 -1.509391 2.229336
1.756281 -1.477525 2.593316
1.667202 -1.498437 2.419347
1.782910 -1.502281 1.703299
1.755158 -1.496441 2.311314
1.752105 -1.501402 2.186315
1.739949 -1.500286 1.802321
1.597281 -1.486452 2.607385
1.693285 -1.478493 2.608349
1.607179 -1.506388 2.377377
1.671250 -1.470455 2.514362
1.689135 -1.505389 2.270347
1.676079 -1.502343 2.131355
1.533253 -1.490396 2.549420
1.633261 -1.490444 2.568379
1.623228 -1.491415 2.488384
1.614111 -1.503331 2.216388
1.563234 -1.490386 2.509417
1.560203 -1.499363 2.442416
