# .PCD v0.7 - Point Cloud Data file format
VERSION 0.7
FIELDS x y z
SIZE 4 4 4
TYPE F F F
COUNT 1 1 1
WIDTH 26
HEIGHT 1
VIEWPOINT 0 0 0 1
POINTS 26
DATA ascii
-1.129815 -1.901814 1.292456
-1.096928 -1.820634 1.276948
-1.147554 -1.831724 1.259634
-1.155808 -1.827841 1.297607
-1.073642 -1.812487 1.288318
-1.084689 -1.805548 1.301286
-1.470359 -2.221704 1.593311
-1.150563 -1.848828 1.330762
-1.172631 -1.858957 1.354603
-1.444130 -2.215590 1.614701
-1.212413 -1.828026 1.348521
-1.094587 -1.792653 1.363507
-1.134179 -1.853715 1.338050
-1.505021 -2.201789 1.629413
-1.530035 -2.202897 1.644271
-1.156468 -1.805896 1.390135
-1.166993 -1.815760 1.332039
-1.128734 -1.854631 1.345298
-1.259490 -1.877407 1.463307
-1.487678 -2.209692 1.644707
-1.169573 -1.827727 1.349208
-1.559174 -2.223205 1.753267
-1.435538 -2.223979 1.813162
-1.477252 -2.201585 1.652029
-1.500446 -2.223223 1.836819
-1.558211 -2.211904 1.690562
