# .PCD v0.7 - Point Cloud Data file format
VERSION 0.7
FIELDS x y z
SIZE 4 4 4
TYPE F F F
COUNT 1 1 1
WIDTH 22
HEIGHT 1
VIEWPOINT 0 0 0 1
POINTS 22
DATA ascii
2.195629 -0.766160 2.609375
2.159182 -0.808005 2.591341
2.125765 -0.850738 2.578310
2.166468 -0.903302 2.587082
2.159425 -0.902539 2.577102
2.084259 -0.888701 2.555219
2.135085 -0.947945 2.579065
2.142131 -0.951860 2.580101
2.103638 -0.991759 2.561039
2.088558 -0.986012 2.555010
2.143207 -1.194064 2.556552
2.162610 -1.230070 2.549105
2.150819 -1.247387 2.541479
2.095713 -1.233027 2.539504
2.144402 -1.285230 2.564202
2.120536 -1.297800 2.548549
2.136034 -1.339786 2.546226
2.072634 -1.308887 2.517993
2.091511 -1.376670 2.531116
2.112340 -1.526883 2.530685
2.092805 -1.565389 2.520463
2.118621 -1.636295 2.519581
