# .PCD v0.7 - Point Cloud Data file format
VERSION 0.7
FIELDS x y z
SIZE 4 4 4
TYPE F F F
COUNT 1 1 1
WIDTH 55
HEIGHT 1
VIEWPOINT 0 0 0 1
POINTS 55
DATA ascii
-0.421804 -2.198371 1.406615
-0.477312 -2.206495 1.423782
-0.530077 -2.200578 1.431931
-0.482490 -2.121814 1.394710
-0.537769 -2.142911 1.418915
-0.571706 -2.147505 1.410997
-0.502016 -2.072355 1.385733
-0.582966 -2.113878 1.410034
-0.554363 -2.090399 1.405935
-0.616946 -2.115471 1.404116
-0.625255 -2.079790 1.400150
-0.603128 -2.085402 1.411105
-0.659279 -2.078385 1.394234
-0.640569 -2.044233 1.392206
-0.666513 -2.047678 1.390277
-0.700626 -2.040280 1.384360
-0.619968 -1.898995 1.355986
-0.682668 -2.021124 1.387355
-0.706769 -2.015544 1.381414
-0.739980 -2.002135 1.373493
-0.678032 -1.931122 1.386261
-0.722907 -1.989989 1.377502
-0.746071 -1.980394 1.371557
-0.776469 -1.955945 1.359622
-0.717221 -1.902973 1.374415
-0.761135 -1.959810 1.368652
-0.782466 -1.940195 1.358696
-0.757331 -1.878831 1.366588
-0.730828 -1.734442 1.323345
-0.799376 -1.928633 1.358814
-0.795516 -1.850656 1.355761
-0.776400 -1.739353 1.337583
-0.827959 -1.810382 1.336902
-0.819207 -1.733224 1.344791
-0.862273 -1.777130 1.324061
-0.849528 -1.699901 1.331936
-0.879843 -1.666576 1.319091
-0.893693 -1.737833 1.307215
-0.913948 -1.644298 1.316276
-0.921194 -1.694465 1.287359
-0.947077 -1.621001 1.311464
-0.977325 -1.590660 1.302646
-0.509529 -2.059424 1.381200
-0.516927 -2.032585 1.372245
-0.567520 -2.100498 1.413531
-0.579792 -2.079746 1.407607
-0.607872 -2.068285 1.399777
-0.624131 -2.048603 1.390881
-0.650073 -2.046092 1.392028
-0.672254 -2.030518 1.385159
-0.690425 -2.015869 1.380268
-0.714645 -1.998332 1.369416
-0.729769 -1.985624 1.369510
-0.753208 -1.956079 1.348663
-0.769042 -1.959369 1.360757
