# .PCD v0.7 - Point Cloud Data file format
VERSION 0.7
FIELDS x y z
SIZE 4 4 4
TYPE F F F
COUNT 1 1 1
WIDTH 469
HEIGHT 1
VIEWPOINT 0 0 0 1
POINTS 469
DATA ascii
1.282109 -1.432215 2.310690
1.287318 -1.448144 2.315876
1.185434 -1.375654 2.224020
1.220085 -1.425931 2.254605
1.253653 -1.476043 2.307188
1.283663 -1.543924 2.293973
1.160081 -1.420594 2.201505
1.276874 -1.558114 2.290094
1.166403 -1.444539 2.206771
1.283325 -1.589171 2.285433
1.251012 -1.576698 2.301297
1.252325 -1.599685 2.306516
1.254723 -1.626826 2.298804
1.154595 -1.532337 2.197728
1.159947 -1.558237 2.204981
1.163344 -1.586317 2.202276
1.257012 -1.725248 2.301849
1.273517 -1.750305 2.267124
1.254151 -1.736359 2.301960
1.271096 -1.790632 2.254529
1.152431 -1.666054 2.188100
1.241945 -1.793961 2.287516
1.147556 -1.677179 2.191207
1.250660 -1.848950 2.295074
1.197540 -2.817529 2.187329
1.192961 -2.918046 2.156099
1.119304 -2.805161 2.155908
1.198829 -2.990084 2.161695
1.209668 -3.044164 2.138158
1.179011 -3.013305 2.178777
1.148640 -2.998691 2.196531
1.166510 -3.059540 2.188076
1.169418 -3.051589 2.180038
1.053303 -2.816457 2.144711
1.153527 -3.071762 2.199119
1.166527 -3.144710 2.191731
1.115287 -3.053467 2.184795
1.048920 -2.942800 2.138651
1.074126 -3.033473 2.142450
1.089204 -3.047141 2.161633
1.158182 -3.266271 2.162601
1.038424 -2.977277 2.112843
1.047371 -3.049248 2.111415
1.027806 -3.152026 2.075052
-0.904510 -1.589717 1.482201
-0.883308 -1.516510 1.491050
-0.877942 -1.458462 1.498838
-0.936660 -1.564170 1.472772
-0.906560 -1.488811 1.490708
-0.912441 -1.491931 1.481661
-0.879305 -1.413576 1.492616
-0.872556 -1.400449 1.506621
-0.881312 -1.412600 1.492594
-0.862018 -1.359327 1.513540
-0.907093 -1.436857 1.495466
-0.930925 -1.474487 1.404407
-0.935697 -1.464224 1.482319
-0.941595 -1.468328 1.476276
-0.906431 -1.392948 1.488259
-0.896738 -1.368825 1.497245
-0.911466 -1.391993 1.492210
-0.935231 -1.412252 1.489081
-0.931845 -1.389519 1.422012
-0.929546 -1.367293 1.480941
-0.932590 -1.358353 1.477876
-0.926357 -1.332520 1.423825
1.226770 1.733883 1.210881
1.251079 1.742344 1.153080
1.326638 1.855360 1.183196
1.317683 1.822148 1.206931
1.333601 1.852167 1.210220
1.316839 1.799076 1.211799
1.271410 1.749754 1.099271
1.227520 1.657004 1.177472
1.296744 1.756241 1.038463
1.266743 1.681415 1.132846
1.337380 1.781471 1.154851
1.324440 1.744236 1.179542
1.330435 1.760300 1.172690
1.324573 1.724146 1.187431
1.277156 1.673862 1.069891
1.274909 1.643956 1.187693
1.299536 1.672354 1.007017
1.409860 1.792138 0.814299
1.426790 1.807080 0.828481
1.309215 1.656408 1.134964
1.343122 1.705571 1.126461
1.403022 1.778177 0.803204
1.331176 1.670321 1.153170
1.405112 1.776304 0.786207
1.368105 1.713713 0.848617
1.337178 1.685392 1.145312
1.395288 1.733170 0.796881
1.326341 1.644229 1.158996
1.318643 1.645862 1.070982
1.329246 1.638879 1.204984
1.411533 1.743591 0.744053
1.442713 1.767085 0.689361
1.355971 1.657339 1.016260
1.458297 1.766142 0.820421
1.361595 1.645362 1.147203
1.457325 1.759087 0.826374
1.355810 1.640650 1.104167
1.468367 1.773182 0.816538
1.353771 1.620341 1.143018
1.382700 1.654764 0.834365
1.343880 1.616477 1.119962
1.469482 1.768327 0.796517
1.401953 1.660224 0.778501
1.372794 1.621169 1.169128
1.385976 1.647807 1.090373
1.401491 1.651756 1.235462
1.497440 1.763287 0.545606
1.521549 1.790801 0.487894
1.583288 1.858864 0.505620
1.421184 1.672643 0.727698
1.578471 1.834908 0.495452
1.464956 1.692174 0.805026
1.441449 1.678132 0.668839
1.428916 1.647281 1.169583
1.426327 1.657299 1.034647
1.464968 1.687107 0.812996
1.406251 1.621622 1.112335
1.444021 1.651759 0.847680
1.471062 1.693231 0.797085
1.420099 1.620240 1.167379
1.411198 1.618382 1.144342
1.479140 1.696376 0.780147
1.590696 1.820954 0.489451
1.461312 1.651236 0.788766
1.434137 1.616060 1.192429
1.498055 1.686300 0.533155
1.451350 1.642756 1.107694
1.518201 1.704803 0.475367
1.575960 1.765846 0.494024
1.591960 1.795092 0.468302
1.542323 1.734291 0.420684
1.573427 1.767869 0.358042
1.480573 1.659671 0.735935
1.581112 1.751904 0.485965
1.488512 1.640192 0.798841
1.496867 1.659181 0.673015
1.483544 1.630117 0.805756
1.517294 1.658737 0.868098
1.477584 1.623552 1.134718
1.479478 1.610154 1.186627
1.488663 1.633260 0.786820
1.474574 1.611306 1.163629
1.612898 1.752558 0.280119
1.503712 1.643413 0.771958
1.589345 1.735964 0.476929
1.525165 1.644589 1.276063
1.542566 1.664233 0.810255
1.493519 1.604956 1.213667
1.551433 1.668359 0.537315
1.541586 1.662646 1.143269
1.557649 1.669859 0.474353
1.569604 1.678816 0.484465
1.588636 1.706102 0.454744
1.564860 1.677326 0.415451
1.567826 1.675695 0.756465
1.572071 1.681862 0.348514
1.584715 1.675891 0.478520
1.563599 1.643131 1.212239
1.558836 1.638173 0.817175
1.560825 1.636082 0.829172
1.593118 1.679225 0.694607
1.576037 1.657212 1.075402
1.556934 1.629012 1.478149
1.576657 1.636968 1.234264
1.564964 1.637253 0.806218
1.613454 1.677538 0.274660
1.592474 1.644483 1.301386
1.578035 1.644432 0.787325
1.595959 1.660966 0.468500
1.635667 1.682432 0.552801
1.593684 1.633746 1.265324
1.635939 1.673953 0.484748
1.601011 1.646613 1.155454
1.628972 1.661856 0.493640
1.630099 1.669164 0.453710
1.649150 1.684448 0.424890
1.657387 1.686013 0.354937
1.648080 1.661960 0.485728
1.636924 1.643033 1.238579
1.628187 1.631157 0.834455
1.663875 1.664713 0.905827
1.627170 1.628057 0.846431
1.656394 1.657167 1.097771
1.628237 1.627386 1.185460
1.631098 1.615899 1.248383
1.629336 1.626261 0.818447
1.655841 1.635390 1.322618
1.627200 1.618088 1.221397
1.640431 1.629449 0.797517
1.674265 1.662060 0.478863
1.695187 1.667251 0.844980
1.644142 1.608670 1.278396
1.680349 1.647540 1.180816
1.709253 1.664916 0.509016
1.706439 1.664266 0.462018
1.814152 1.765694 0.452128
1.722506 1.671757 0.786142
1.723390 1.659028 0.498039
1.707284 1.636954 1.260849
1.741713 1.686163 0.361306
1.735208 1.659702 0.923104
1.729400 1.653131 0.866036
1.734346 1.656003 0.884076
1.725175 1.631285 1.347890
1.695632 1.616320 1.204684
1.757807 1.677331 0.723326
1.705445 1.611773 1.277680
1.733545 1.650245 0.850051
1.731795 1.648127 1.117039
1.695578 1.609001 1.243636
1.768531 1.661264 0.860251
1.747646 1.654459 0.827138
1.787281 1.679590 0.574440
1.739634 1.647134 0.486046
1.722471 1.607514 1.312723
1.808513 1.685166 0.508561
1.756703 1.643466 1.205112
1.945201 1.806592 0.508928
1.812798 1.681700 0.440569
1.797856 1.664779 0.801407
1.778645 1.629870 1.284098
1.811522 1.657691 0.942403
1.791794 1.635123 0.879173
1.826060 1.681311 0.367618
1.797741 1.637980 0.899216
1.804469 1.634154 1.380231
1.771996 1.611242 1.228964
1.777824 1.602661 1.303915
1.770924 1.604896 1.270917
1.800941 1.634243 0.864219
1.818150 1.647066 1.143381
1.838194 1.667382 0.736583
1.867595 1.676669 0.586737
1.843885 1.653274 0.876498
1.823021 1.644475 0.842374
1.881749 1.697301 0.512944
1.795835 1.599372 1.342964
1.889833 1.681268 0.518851
1.838075 1.638392 1.230400
1.869126 1.653492 0.479600
1.860977 1.628761 1.314409
1.887168 1.667806 0.447762
1.887862 1.651694 0.959655
1.883218 1.659819 0.817704
1.879110 1.635095 0.904508
1.876081 1.630939 0.922469
1.878816 1.628034 1.408473
1.850207 1.591540 1.331117
1.851373 1.604153 1.255220
1.851286 1.599785 1.300190
1.885275 1.631238 0.885518
1.952897 1.675757 0.600047
1.890585 1.630030 1.160538
1.935190 1.656286 0.898858
1.925560 1.661440 0.751869
1.967085 1.691406 0.524218
1.904387 1.636493 0.859624
1.873189 1.592208 1.377206
2.114694 1.794562 0.563444
1.922432 1.634313 1.257684
1.944326 1.624651 1.344683
1.966203 1.644686 0.978888
1.974496 1.663947 0.456050
1.960455 1.651625 0.489917
2.136802 1.784476 0.579446
1.976538 1.660854 0.838047
1.954176 1.619923 1.435687
1.961455 1.628074 0.926754
1.961407 1.626894 0.948746
1.938528 1.591378 1.369431
1.942704 1.605045 1.288553
1.935645 1.594659 1.332456
1.975599 1.630236 0.908830
2.038217 1.670844 0.613307
2.011575 1.642303 0.914024
2.022898 1.660497 0.771201
1.991935 1.631960 1.192907
1.954557 1.584043 1.412435
2.008581 1.645450 0.525037
1.994737 1.632513 0.879911
2.086416 1.689522 0.546597
2.212932 1.789380 0.614729
2.007827 1.625239 1.283914
2.054517 1.642668 1.003170
2.029700 1.617551 1.373921
2.064837 1.657079 0.466303
2.068879 1.656885 0.858327
2.055700 1.636354 0.551115
2.046813 1.641750 0.499137
2.041507 1.617781 1.470964
2.032856 1.609057 0.943857
2.048744 1.620854 0.974994
2.027886 1.586221 1.406691
2.129519 1.668943 0.627587
2.032086 1.597939 1.319799
2.022023 1.586525 1.365685
2.054992 1.615235 0.926983
2.111867 1.646309 0.940377
2.044903 1.579854 1.453700
2.123247 1.657562 0.790501
2.093301 1.629888 1.225220
2.092947 1.632551 0.536216
2.091080 1.629535 0.902201
2.055327 1.596022 1.679869
2.137881 1.650592 0.548476
2.122841 1.637238 0.585333
2.102195 1.620142 1.316178
2.138858 1.634652 1.025376
2.121058 1.612436 1.407170
2.125863 1.610646 1.504168
2.149031 1.630454 0.566355
2.164171 1.653236 0.477576
2.162253 1.647927 0.877544
2.146159 1.636894 0.511404
2.136095 1.611815 1.001192
2.145142 1.617032 0.978257
2.228829 1.667054 0.643865
2.125234 1.583051 1.448962
2.123465 1.589839 1.352015
2.113385 1.580400 1.400916
2.209209 1.641324 0.964626
2.161307 1.617235 0.956317
2.134263 1.571677 1.493906
2.198256 1.632685 0.552527
2.186450 1.620561 0.924415
2.190694 1.620837 1.254439
2.221635 1.646635 0.808707
2.238202 1.646729 0.562737
2.205200 1.621307 0.600453
2.153733 1.588833 1.722109
2.234173 1.631657 1.050628
2.199557 1.614051 1.350417
2.213409 1.605322 1.442384
2.212226 1.600523 1.537347
2.251343 1.626562 0.584623
2.265586 1.643975 0.900814
2.231424 1.604773 1.031417
2.243474 1.611017 1.006497
2.250492 1.632051 0.524670
2.468733 1.762321 0.697254
2.216600 1.572899 1.487150
2.309544 1.635351 0.988862
2.204765 1.569274 1.436097
2.225816 1.585734 1.389279
2.264644 1.612235 0.984573
2.233600 1.566473 1.541149
2.302579 1.627825 0.567781
2.332551 1.634871 0.573906
2.310503 1.618406 0.620723
2.288808 1.612591 0.948640
2.333979 1.642713 0.831988
2.331497 1.625656 1.076849
2.296074 1.612768 1.288672
2.306909 1.609953 1.388682
2.312538 1.598362 1.580605
2.316750 1.601202 1.481635
2.359665 1.621687 0.602876
2.330768 1.595733 1.062616
2.366961 1.632021 0.922993
2.339834 1.598992 1.034663
2.421491 1.648285 0.673242
2.312975 1.561734 1.528322
2.411885 1.627376 1.014066
2.306132 1.561135 1.476306
2.326197 1.575628 1.425468
2.359017 1.598240 1.008713
2.329979 1.554278 1.585309
2.422796 1.616503 0.643995
2.449856 1.634036 0.591197
2.408927 1.617961 0.583977
2.440811 1.622649 1.108103
2.392178 1.601625 0.972821
2.415419 1.610685 1.329962
2.413865 1.593200 1.623822
2.456330 1.638803 0.857267
2.421099 1.594067 1.522843
2.418262 1.604850 1.428925
2.466995 1.612801 0.622071
2.439101 1.588685 1.097829
2.454159 1.594974 1.068914
2.484303 1.627077 0.950243
2.511867 1.628393 0.686302
2.424318 1.556538 1.578555
2.525237 1.619406 1.042273
2.413494 1.552970 1.521505
2.427598 1.561513 1.462605
2.473367 1.591245 1.039934
2.436329 1.546046 1.637501
2.531126 1.606602 0.665170
2.551147 1.615651 1.138304
2.507249 1.578059 1.660920
2.517525 1.597657 1.005085
2.524486 1.580941 1.561979
2.526831 1.596621 1.365110
2.526648 1.592742 1.468081
2.579694 1.630896 0.882488
2.587318 1.606939 0.643295
2.553430 1.581630 1.136033
2.567521 1.583948 1.103081
2.616630 1.626145 0.981532
2.627189 1.621541 0.704502
2.530703 1.543346 1.625689
2.647567 1.614432 1.074500
2.525864 1.543810 1.567684
2.540001 1.548385 1.504750
2.595716 1.584249 1.074146
2.545700 1.534819 1.689653
2.659500 1.603646 1.168439
2.656438 1.601712 0.691399
2.623584 1.572877 1.711129
2.643841 1.573795 1.609175
2.640880 1.589693 1.036283
2.651023 1.584630 1.513279
2.655218 1.587532 1.409308
2.712057 1.622992 0.910699
2.668787 1.569574 1.174173
2.716640 1.601089 0.666513
2.760483 1.620694 0.728766
2.687872 1.573918 1.140246
2.740997 1.615203 1.010694
2.642094 1.529150 1.674801
2.764949 1.599463 1.103608
2.647244 1.533629 1.618849
2.784825 1.597643 1.204634
2.671358 1.543232 1.556974
2.726063 1.577252 1.111349
2.787744 1.596833 0.718614
2.768214 1.563635 1.659331
2.772256 1.578724 1.070446
2.784396 1.576500 1.563468
2.794609 1.578440 1.457499
2.858419 1.616097 0.942917
2.795126 1.560518 1.216336
2.883831 1.607849 0.748883
2.820222 1.564889 1.181417
2.874362 1.604263 1.042847
2.904275 1.594489 1.141817
2.925147 1.593642 1.245849
2.861423 1.567242 1.151507
2.919084 1.584952 0.745743
2.915627 1.568766 1.107609
2.943455 1.555441 1.268545
3.004803 1.603200 0.975051
2.957587 1.552857 1.224543
3.027714 1.597334 1.081040
3.058609 1.589517 1.185024
2.997816 1.551249 1.189588
4.177558 1.612112 2.798509
3.487147 -1.046805 3.104097
3.369768 -1.077732 3.133777
3.437948 -1.116964 3.081183
3.405388 -1.166786 3.042562
3.395750 -1.187170 3.065259
3.383257 -1.244174 3.049521
3.380639 -1.267559 3.074170
3.371149 -1.324626 3.065425
3.367551 -1.349988 3.087044
3.355039 -1.404082 3.080341
3.353622 -1.769137 2.998169
3.328450 -1.836820 3.032232
1.266689 -1.276297 2.234415
1.258428 -1.320838 2.260870
1.240079 -1.356222 2.271472
