# .PCD v0.7 - Point Cloud Data file format
VERSION 0.7
FIELDS x y z
SIZE 4 4 4
TYPE F F F
COUNT 1 1 1
WIDTH 371
HEIGHT 1
VIEWPOINT 0 0 0 1
POINTS 371
DATA ascii
2.397409 -1.011444 0.645342
2.434075 -1.016572 0.021714
2.418997 -1.017045 0.220506
2.390341 -1.011766 0.523188
2.429821 -1.023041 -0.090486
2.368853 -1.012016 0.557836
2.337018 -1.007708 0.936469
2.420488 -1.022253 -0.067623
2.363420 -1.015016 0.713739
2.404320 -1.018128 0.010191
2.339470 -1.012175 0.970450
2.419179 -1.022813 -0.175682
2.407941 -1.022925 -0.158866
2.390457 -1.022046 -0.061118
2.365047 -1.018743 0.161567
2.311531 -1.012241 0.843952
2.314780 -1.014890 0.890977
2.346972 -1.018515 0.233288
2.339583 -1.019474 0.387190
2.347512 -1.020900 0.262267
2.347770 -1.023520 0.309243
2.314947 -1.021514 0.559792
2.342170 -1.026439 0.156066
2.315426 -1.023262 0.464749
2.322564 -1.028105 0.069692
2.309577 -1.025008 0.071524
2.318771 -1.030047 -0.007421
2.310880 -1.026907 -0.012505
2.281039 -1.028018 0.623144
2.302375 -1.026273 0.021372
2.273951 -1.027350 0.502005
2.291463 -1.030644 0.209171
2.263447 -1.030692 0.535788
2.213046 -1.016950 0.893254
2.235227 -1.022396 0.684485
2.290064 -1.031726 -0.085945
2.269655 -1.026788 0.008817
2.276767 -1.028890 -0.064116
2.217411 -1.025498 0.932204
2.277345 -1.032540 -0.166189
2.262134 -1.028620 -0.149377
2.249734 -1.029712 -0.057576
2.187796 -1.022130 0.849743
2.251393 -1.037536 0.155384
2.229061 -1.033221 0.374136
2.186469 -1.023546 0.806689
2.233972 -1.035624 0.250149
2.237331 -1.037337 0.226172
2.225250 -1.036173 0.298007
2.225533 -1.038226 0.150943
2.192609 -1.033047 0.538575
2.184103 -1.031721 0.444430
2.148861 -1.034486 0.980939
2.213827 -1.046012 0.068607
2.201891 -1.040888 0.067488
2.191113 -1.037778 -0.008662
2.166703 -1.040619 0.601044
2.194641 -1.042191 0.020335
2.186157 -1.038701 -0.010759
2.170518 -1.045087 0.483008
2.172915 -1.041363 0.200033
2.143189 -1.037200 0.510683
2.131867 -1.036105 0.662551
2.099993 -1.026364 0.855222
2.156342 -1.036480 -0.081238
2.160992 -1.040798 -0.060222
2.170891 -1.046789 0.007867
2.098368 -1.034870 0.895074
2.146548 -1.038370 -0.157449
2.143320 -1.040534 -0.142532
2.077674 -1.033623 0.815730
2.123540 -1.046032 0.362183
2.129997 -1.040569 -0.054731
2.123465 -1.045387 0.238160
2.123862 -1.044198 0.148162
2.064411 -1.029914 0.771556
2.119784 -1.047082 0.218068
2.109737 -1.044915 0.287953
2.109934 -1.047029 0.145887
2.071327 -1.041583 0.516425
2.073696 -1.043422 0.427414
2.039793 -1.042971 0.944990
2.092270 -1.051744 0.062500
2.096191 -1.053833 0.066534
2.085396 -1.049735 -0.008601
2.088942 -1.054136 0.019397
2.052426 -1.049212 0.578010
2.079426 -1.052658 -0.009745
2.047274 -1.047596 0.459920
2.060386 -1.050146 0.191029
2.039837 -1.047921 0.489799
2.030535 -1.046839 0.640700
1.996891 -1.034917 0.820373
2.063542 -1.054580 -0.079056
2.057241 -1.053798 -0.058143
2.051259 -1.052605 0.006793
1.985312 -1.042329 0.860076
2.034751 -1.048358 -0.150454
2.016068 -1.052833 0.350294
2.024556 -1.047458 -0.135605
1.968590 -1.039133 0.781829
2.013995 -1.051165 0.226254
2.019271 -1.050518 -0.051719
1.957271 -1.037479 0.740657
2.007317 -1.050982 0.142125
2.004224 -1.053757 0.278065
1.998299 -1.051797 0.209980
1.990416 -1.047792 0.139894
1.970924 -1.053386 0.499576
1.965322 -1.051149 0.410496
1.936705 -1.050542 0.911158
1.974715 -1.052551 0.058540
1.979582 -1.056687 0.065559
1.984714 -1.059733 -0.009423
1.982289 -1.061080 0.018523
1.949097 -1.055956 0.558190
1.940937 -1.054319 0.441051
1.945913 -1.051920 0.182105
1.897791 -1.040525 0.786638
1.926270 -1.051538 0.617896
1.930582 -1.050569 0.466944
1.965755 -1.058573 -0.007718
1.956829 -1.061574 -0.075929
1.951525 -1.061800 -0.055015
1.891068 -1.052820 0.964382
1.947602 -1.061575 0.005939
1.878240 -1.047875 0.827212
1.908652 -1.055628 0.337471
1.936967 -1.060457 -0.145258
1.868456 -1.044770 0.751079
1.908531 -1.055000 0.215448
1.925766 -1.058562 -0.129409
1.919556 -1.060565 -0.049523
1.860062 -1.046194 0.713909
1.901755 -1.056890 0.137287
1.896758 -1.058586 0.268211
1.899776 -1.058854 0.136224
1.889789 -1.056653 0.203110
1.863622 -1.058106 0.480725
1.866929 -1.058989 0.394745
1.882087 -1.061593 0.054869
1.833652 -1.054119 0.877392
1.873983 -1.060635 0.063752
1.882082 -1.063722 -0.010180
1.878648 -1.065073 0.018749
1.852758 -1.062782 0.539489
1.836924 -1.059420 0.598294
1.851513 -1.064245 0.425417
1.809595 -1.049303 0.758040
1.842188 -1.060480 0.449327
1.848386 -1.058868 0.174385
1.863095 -1.064586 -0.006506
1.859133 -1.067646 -0.073636
1.788084 -1.051365 0.927696
1.849851 -1.065837 -0.052756
1.846959 -1.065598 0.006215
1.783087 -1.054590 0.798531
1.812206 -1.060542 0.325801
1.781232 -1.053584 0.724498
1.811068 -1.058915 0.204777
1.837217 -1.067558 -0.139012
1.833003 -1.068715 -0.124096
1.771813 -1.055023 0.689312
1.817875 -1.065614 -0.046278
1.798242 -1.058811 0.131548
1.799272 -1.062529 0.259540
1.797245 -1.059800 0.131517
1.784324 -1.057533 0.195355
1.768256 -1.063981 0.465059
1.783524 -1.063588 0.051212
1.744491 -1.059895 0.848827
1.765587 -1.061806 0.379027
1.782474 -1.065744 -0.010854
1.781360 -1.067708 0.062116
1.780054 -1.067093 0.017092
1.759423 -1.067654 0.521871
1.749584 -1.064339 0.579774
1.747888 -1.062316 0.429740
1.725393 -1.057135 0.730525
1.751222 -1.065037 0.406747
1.758841 -1.065909 0.167799
1.765452 -1.068652 -0.005178
1.704911 -1.057201 0.899230
1.761457 -1.071736 -0.070307
1.756336 -1.070692 0.004643
1.749196 -1.067902 -0.049445
1.717773 -1.061495 0.315229
1.698004 -1.060452 0.699016
1.722581 -1.063930 0.195240
1.696878 -1.062431 0.772985
1.742485 -1.072714 -0.132650
1.731310 -1.068810 -0.117770
1.688540 -1.062929 0.666814
1.723233 -1.068710 -0.044883
1.718615 -1.069984 0.128065
1.714726 -1.070622 0.253022
1.717620 -1.069974 0.128049
1.702729 -1.069673 0.190824
1.697932 -1.068708 0.047724
1.662279 -1.066779 0.823363
1.671949 -1.064841 0.448457
1.671234 -1.062709 0.364457
1.692854 -1.068865 -0.011376
1.691760 -1.070818 0.060594
1.686459 -1.067180 0.016552
1.662275 -1.066263 0.561305
1.664164 -1.066489 0.502318
1.661550 -1.065256 0.412271
1.643211 -1.060990 0.703108
1.661867 -1.066975 0.391245
1.666362 -1.066917 0.160262
1.634620 -1.066226 0.875930
1.663870 -1.066689 -0.003817
1.666823 -1.071850 -0.067864
1.658769 -1.069741 0.004055
1.657551 -1.069044 -0.046967
1.633306 -1.064557 0.305792
1.640079 -1.068020 0.186820
1.621721 -1.068427 0.676635
1.616622 -1.069372 0.750555
1.651787 -1.074902 -0.127172
1.610254 -1.068899 0.645432
1.630085 -1.070071 0.123609
1.644609 -1.074021 -0.113273
1.625270 -1.071650 0.244536
1.630603 -1.069843 -0.042421
1.630082 -1.074066 0.123547
1.611239 -1.069721 0.185321
1.616349 -1.073867 0.044306
1.589996 -1.074797 0.801048
1.593779 -1.069811 0.353075
1.613214 -1.074082 -0.011763
1.592540 -1.071900 0.435043
1.574033 -1.063157 0.540901
1.607153 -1.073992 0.060157
1.602844 -1.070362 0.016131
1.579821 -1.068481 0.486900
1.571919 -1.069015 0.680811
1.580200 -1.068259 0.395887
1.581480 -1.071013 0.376861
1.566326 -1.074285 0.853682
1.592784 -1.076127 0.154912
1.586197 -1.074949 -0.002216
1.592131 -1.080137 -0.066215
1.557821 -1.067709 0.296505
1.581131 -1.075978 0.003686
1.579880 -1.075306 -0.045336
1.561587 -1.071151 0.178484
1.542497 -1.071367 0.653287
1.533443 -1.071264 0.726158
1.563434 -1.080388 0.121358
1.564109 -1.076123 -0.121626
1.548745 -1.075828 0.238217
1.528035 -1.071823 0.623036
1.559934 -1.076257 -0.108693
1.555925 -1.078132 -0.040770
1.542579 -1.074165 0.119112
1.536684 -1.076930 0.179992
1.511812 -1.075730 0.775752
1.542750 -1.079110 0.041023
1.536600 -1.077323 -0.013064
1.507573 -1.071361 0.528688
1.517329 -1.074942 0.342746
1.515132 -1.075999 0.422714
1.531206 -1.077647 0.014850
1.531538 -1.079242 0.058842
1.493735 -1.068944 0.655530
1.507794 -1.072379 0.381639
1.509380 -1.075645 0.474638
1.488185 -1.073194 0.826416
1.507055 -1.075138 0.364580
1.514275 -1.078288 0.148596
1.521493 -1.087320 -0.001463
1.507140 -1.086153 0.292394
1.515478 -1.083415 -0.064517
1.496015 -1.079431 0.172285
1.465288 -1.071330 0.630021
1.462655 -1.079985 0.606839
2.406840 -1.002640 0.469215
2.408231 -1.002576 0.403213
2.386061 -1.004561 0.778097
2.411870 -1.006171 0.131121
2.419566 -1.007563 -0.154906
2.347722 -1.004677 0.855850
2.372297 -1.010229 0.082770
2.348619 -1.013773 -0.124493
2.324616 -1.022240 -0.273836
2.290789 -1.020857 0.389085
2.293411 -1.023910 0.454059
2.257761 -1.016529 0.746008
2.294604 -1.015343 -0.261910
2.294350 -1.024614 0.126992
2.281971 -1.019178 -0.145043
2.213480 -1.013537 0.817779
2.265749 -1.031753 0.081661
2.222038 -1.026380 -0.117570
2.185984 -1.026973 -0.257848
2.174358 -1.034161 0.375061
2.162040 -1.031080 0.434046
2.127485 -1.021483 0.712041
2.172976 -1.027069 -0.248934
2.167857 -1.034054 0.122973
2.160375 -1.028830 -0.137030
2.104176 -1.028619 0.788771
2.133248 -1.036219 0.079696
2.108466 -1.039022 -0.111554
2.058932 -1.041490 0.361160
2.072369 -1.037719 -0.245794
2.026131 -1.034685 0.688126
2.051632 -1.042399 0.419106
2.062361 -1.037811 -0.237861
2.033393 -1.033482 0.118091
2.051792 -1.041525 -0.128978
1.987902 -1.034658 0.756887
2.015745 -1.042755 0.078800
2.000897 -1.048699 -0.105438
1.917803 -1.037830 0.660352
1.954509 -1.050873 0.348301
1.968759 -1.047493 -0.234650
1.941240 -1.048720 0.403263
1.959756 -1.048585 -0.226727
1.937883 -1.046051 0.115237
1.945222 -1.049229 -0.121815
1.885601 -1.042811 0.729065
1.906242 -1.046316 0.077019
1.892346 -1.053391 -0.099231
1.842099 -1.049246 0.334595
1.829437 -1.049140 0.639570
1.863164 -1.052293 -0.222422
1.841832 -1.056131 0.390480
1.855161 -1.052376 -0.215475
1.833403 -1.050613 0.112475
1.837664 -1.050951 -0.114544
1.796256 -1.053105 0.707297
1.818707 -1.055976 0.077278
1.791796 -1.056105 -0.093929
1.749648 -1.053735 0.323933
1.741052 -1.054479 0.618917
1.770567 -1.059114 -0.212123
1.733448 -1.052486 0.373862
1.756571 -1.055186 -0.205140
1.750089 -1.058721 -0.108226
1.741910 -1.058239 0.110769
1.710911 -1.061406 0.684619
1.716222 -1.055581 0.075650
1.696260 -1.058838 -0.088559
1.658675 -1.059846 0.600308
1.662221 -1.058234 0.314309
1.685992 -1.065930 -0.202766
1.652019 -1.059999 0.364224
1.670006 -1.060998 -0.195777
1.659556 -1.061462 -0.102834
1.653434 -1.061853 0.108157
1.620597 -1.062676 0.661035
1.644705 -1.067268 0.075004
1.613728 -1.064602 -0.083166
1.570172 -1.059588 0.975833
1.581305 -1.066249 0.582719
1.586770 -1.064793 0.305731
1.596435 -1.065753 -0.193310
1.586446 -1.063818 -0.187336
1.574602 -1.067530 0.354618
1.581015 -1.067243 -0.097414
1.577952 -1.070521 0.106545
1.560222 -1.068941 0.074460
1.505723 -1.066201 0.968327
1.513909 -1.074720 0.567163
1.526303 -1.079435 0.300111
1.492207 -1.068036 0.343111
1.492481 -1.067176 0.104088
1.441398 -1.072527 0.942830
