# .PCD v0.7 - Point Cloud Data file format
VERSION 0.7
FIELDS x y z
SIZE 4 4 4
TYPE F F F
COUNT 1 1 1
WIDTH 41
HEIGHT 1
VIEWPOINT 0 0 0 1
POINTS 41
DATA ascii
0.271906 3.671234 2.584233
0.356864 3.702807 2.614660
0.419780 2.707366 2.306909
0.433803 2.711744 2.293984
0.438177 2.687720 2.298554
0.522599 2.894120 2.464904
0.525398 2.839877 2.419014
0.519243 2.782351 2.384033
0.562865 2.458421 2.345603
0.661883 2.622913 2.518238
0.620314 2.299420 2.386889
0.622386 2.293289 2.396786
0.665324 2.251318 2.362045
0.672055 2.273302 2.368402
2.909856 2.363767 3.477412
2.917149 2.264400 3.508918
2.931191 2.271788 3.487994
3.048271 2.356928 3.565271
2.981025 2.214707 3.529147
0.449965 2.695619 2.288187
0.448367 2.648042 2.333569
0.457137 2.683618 2.294011
2.999207 2.214237 3.499102
0.466031 2.594955 2.354828
3.029038 2.153084 3.531207
0.526762 2.758577 2.352823
0.503313 2.605958 2.302873
0.530081 2.732711 2.344473
0.517966 2.551816 2.326127
3.220852 2.187779 3.697726
0.613783 2.703953 2.473889
3.142353 1.789500 3.562828
0.678707 2.228585 2.390502
3.201404 1.723818 3.575865
0.725404 2.205137 2.381064
0.736728 2.184121 2.391758
3.263443 1.659092 3.594922
3.151279 1.753495 3.562797
3.120682 1.710394 3.551373
3.210176 1.691648 3.583014
3.168606 1.643566 3.560559
