# .PCD v0.7 - Point Cloud Data file format
VERSION 0.7
FIELDS x y z
SIZE 4 4 4
TYPE F F F
COUNT 1 1 1
WIDTH 94
HEIGHT 1
VIEWPOINT 0 0 0 1
POINTS 94
DATA ascii
2.389035 -2.456941 -0.296020
2.378937 -2.454104 -0.242943
2.314795 -2.439969 -0.116550
2.346099 -2.476962 -0.207267
2.337949 -2.471415 -0.140146
2.341218 -2.481206 -0.243336
2.301695 -2.448923 -0.026666
2.330443 -2.472929 -0.351185
2.292856 -2.456068 -0.067776
2.312268 -2.497669 -0.178550
2.332558 -2.516144 -0.294928
2.239510 -2.433060 0.113760
2.315437 -2.505339 -0.240698
2.289328 -2.510622 -0.136718
2.271335 -2.508050 -0.118632
2.278445 -2.523584 -0.139918
2.307666 -2.553020 -0.210499
2.277721 -2.533483 -0.239100
2.255230 -2.516086 -0.024722
2.165653 -2.416762 -0.331854
2.248374 -2.519104 -0.071765
2.238725 -2.534922 -0.176029
2.087532 -2.370286 -0.268868
2.087456 -2.375303 -0.220948
2.040571 -2.376060 -0.190844
2.028680 -2.377563 -0.215843
1.427220 -1.791238 -0.009301
1.504337 -1.883084 0.038945
1.525435 -1.921527 0.062245
1.496426 -1.905015 0.082610
1.463409 -1.869619 0.060297
1.527525 -1.948224 0.095798
1.593796 -2.054937 0.136824
1.290390 -1.686180 -0.074136
1.171470 -1.557672 -0.206642
1.316482 -1.741524 -0.007124
1.398628 -1.844330 0.039917
1.301535 -1.723708 -0.047786
1.159452 -1.551121 -0.186490
1.455819 -1.925655 0.061391
1.250536 -1.671110 -0.081755
1.270481 -1.697204 -0.027244
1.509037 -2.009008 0.083842
1.213567 -1.638830 -0.099101
1.532114 -2.043195 0.095202
1.153530 -1.564739 -0.157687
1.484055 -1.984613 0.062323
1.156485 -1.570355 -0.127785
1.564298 -2.112992 0.136945
1.178611 -1.624560 -0.067740
1.180642 -1.630554 -0.067845
1.146658 -1.588646 -0.115045
1.159614 -1.606463 -0.074377
1.224852 -1.703869 -0.048197
1.319068 -1.828533 -0.006564
1.107833 -1.551984 -0.199316
1.406252 -1.945359 0.042222
1.115720 -1.567580 -0.121590
1.113863 -1.566320 -0.182569
1.273048 -1.779153 -0.029597
1.146766 -1.614409 -0.078460
1.466448 -2.032674 0.063581
1.500613 -2.094013 0.083455
1.510641 -2.110192 0.093155
1.115823 -1.590176 -0.092953
1.098902 -1.566958 -0.153519
1.487650 -2.082651 0.064683
1.104898 -1.580542 -0.124759
1.163128 -1.681562 -0.069611
1.191254 -1.724507 -0.069415
1.087023 -1.584832 -0.112759
1.155172 -1.678436 -0.076532
1.206366 -1.759835 -0.052045
1.327680 -1.928524 -0.006240
1.079298 -1.588077 -0.198791
1.407858 -2.043424 0.045595
1.272610 -1.861111 -0.031940
1.077171 -1.593731 -0.118865
1.139309 -1.681349 -0.082520
1.468053 -2.132695 0.064916
1.084353 -1.605413 -0.182089
1.462086 -2.140076 0.082815
1.110376 -1.660154 -0.095067
1.076401 -1.612988 -0.155177
1.077364 -1.618623 -0.124269
1.155679 -1.752521 -0.072739
1.065511 -1.630855 -0.114419
1.150725 -1.752389 -0.079719
1.202930 -1.838761 -0.056323
1.051794 -1.630166 -0.198362
1.053821 -1.641529 -0.180552
1.044869 -1.648083 -0.154620
1.029306 -1.680222 -0.199081
1.698664 -2.835679 -0.308616
