# .PCD v0.7 - Point Cloud Data file format
VERSION 0.7
FIELDS x y z
SIZE 4 4 4
TYPE F F F
COUNT 1 1 1
WIDTH 19
HEIGHT 1
VIEWPOINT 0 0 0 1
POINTS 19
DATA ascii
0.133883 -3.452365 1.708604
0.086427 -2.939325 1.613400
0.083574 -3.036209 1.653777
0.058427 -2.861706 1.608002
0.060770 -3.115726 1.601018
0.056433 -3.089785 1.599901
0.043880 -3.198009 1.587287
0.022055 -2.994061 1.640410
0.018194 -3.003139 1.633434
-0.000798 -2.930319 1.648085
-0.010726 -3.162548 1.627966
-0.014918 -3.146620 1.622889
-0.030573 -3.249848 1.618242
-0.042398 -2.953977 1.617044
0.121727 -3.187200 1.706133
0.067875 -3.053793 1.617775
0.044751 -3.037004 1.621663
0.001252 -3.092394 1.638533
-0.022079 -3.044624 1.621392
