# .PCD v0.7 - Point Cloud Data file format
VERSION 0.7
FIELDS x y z
SIZE 4 4 4
TYPE F F F
COUNT 1 1 1
WIDTH 43
HEIGHT 1
VIEWPOINT 0 0 0 1
POINTS 43
DATA ascii
-0.234507 -2.430417 1.485418
-0.268395 -2.359493 1.478579
-0.286300 -2.396489 1.472331
-0.292345 -2.312502 1.469362
-0.318183 -2.330576 1.466410
-0.337131 -2.355526 1.455308
-0.340121 -2.290603 1.459090
-0.366955 -2.304687 1.456189
-0.384966 -2.314573 1.439248
-0.387903 -2.266704 1.447833
-0.412822 -2.263700 1.437107
-0.428941 -2.252467 1.409389
-0.431760 -2.231734 1.430659
-0.411953 -2.101708 1.430982
-0.455711 -2.220701 1.417013
-0.464116 -2.161149 1.361780
-0.473667 -2.189713 1.408542
-0.460657 -2.090902 1.425572
-0.488883 -2.133391 1.370337
-0.477561 -2.001055 1.425780
-0.506800 -2.111447 1.365759
-0.507424 -2.068035 1.414276
-0.522272 -1.990269 1.422322
-0.546386 -2.019954 1.385193
-0.538219 -1.902360 1.415497
-0.562118 -1.957337 1.406070
-0.576528 -1.943674 1.339352
-0.572136 -1.862358 1.394271
-0.601929 -1.930454 1.393740
-0.610886 -1.844560 1.389825
-0.631952 -1.874332 1.361658
-0.646712 -1.818687 1.379444
-0.658033 -1.813151 1.325603
-0.682517 -1.794851 1.372035
-0.687011 -1.765096 1.299416
-0.713400 -1.760928 1.357696
-0.166786 -2.539395 1.510871
-0.222792 -2.492806 1.491358
-0.276823 -2.443209 1.471867
-0.325969 -2.378489 1.443521
-0.369266 -2.292599 1.402384
-0.411466 -2.220795 1.370100
-0.647347 -1.733235 1.385894
