# .PCD v0.7 - Point Cloud Data file format
VERSION 0.7
FIELDS x y z
SIZE 4 4 4
TYPE F F F
COUNT 1 1 1
WIDTH 23
HEIGHT 1
VIEWPOINT 0 0 0 1
POINTS 23
DATA ascii
1.670208 -1.051017 2.445602
1.642985 -1.083298 2.432521
1.566809 -1.041367 2.400929
1.758633 -1.185385 2.466908
1.608610 -1.111593 2.411577
1.536486 -1.069680 2.385941
1.721350 -1.215848 2.451970
1.576283 -1.140898 2.393603
1.510212 -1.098977 2.374899
1.653241 -1.224254 2.395670
1.540856 -1.167202 2.371707
1.486043 -1.130348 2.370811
1.600505 -1.241680 2.359076
1.493071 -1.183476 2.332071
1.436112 -1.141601 2.327265
1.541076 -1.249301 2.265684
1.508608 -1.227014 2.267346
1.397467 -1.159912 2.300508
1.438047 -1.192749 2.282618
1.459835 -1.241449 2.234758
1.346413 -1.167137 2.253040
1.363385 -1.183924 2.202624
1.274694 -1.155270 2.174056
