# .PCD v0.7 - Point Cloud Data file format
VERSION 0.7
FIELDS x y z
SIZE 4 4 4
TYPE F F F
COUNT 1 1 1
WIDTH 15
HEIGHT 1
VIEWPOINT 0 0 0 1
POINTS 15
DATA ascii
-0.561996 -3.078018 1.411620
-0.613367 -3.098300 1.362330
-0.516491 -2.988370 1.379500
-0.606424 -2.950196 1.358757
-0.594867 -3.080700 1.395075
-0.617923 -3.161757 1.460781
-0.512984 -2.947830 1.415569
-0.445942 -2.869923 1.432180
-0.647319 -2.996254 1.364504
-0.654338 -2.984552 1.383706
-0.615845 -3.063066 1.357797
-0.681293 -3.034074 1.354334
-0.564893 -2.841985 1.430771
-0.658649 -3.076664 1.333058
-0.731096 -3.070905 1.343224
