# .PCD v0.7 - Point Cloud Data file format
VERSION 0.7
FIELDS x y z
SIZE 4 4 4
TYPE F F F
COUNT 1 1 1
WIDTH 15
HEIGHT 1
VIEWPOINT 0 0 0 1
POINTS 15
DATA ascii
1.364883 -2.982752 2.132102
1.371388 -2.858559 2.120762
1.318971 -3.062609 2.159432
1.396711 -2.996097 2.153201
1.315699 -2.902158 2.132526
1.334060 -3.037531 2.156011
1.465118 -3.076998 2.198468
1.354136 -3.016241 2.132551
1.313597 -2.954041 2.059371
1.314181 -3.104315 2.172778
1.286458 -3.074532 2.126204
1.415658 -3.096980 2.170869
1.415023 -3.261636 2.150123
1.328362 -3.085913 2.145335
1.296126 -3.199986 2.095250
