# .PCD v0.7 - Point Cloud Data file format
VERSION 0.7
FIELDS x y z
SIZE 4 4 4
TYPE F F F
COUNT 1 1 1
WIDTH 23
HEIGHT 1
VIEWPOINT 0 0 0 1
POINTS 23
DATA ascii
1.170659 1.315955 1.061065
1.232090 1.482022 1.475890
1.224410 1.444805 1.429160
1.184806 1.274582 1.050403
1.273662 1.463184 1.486140
1.216931 1.371644 1.390694
1.153187 1.374551 1.327465
1.176458 1.386029 1.325430
1.082485 1.236277 1.226313
1.057733 1.194412 1.175557
1.119895 1.349742 1.257500
1.124094 1.352283 1.210489
1.040568 1.136643 1.157915
1.042374 1.123412 1.133003
1.116620 1.284544 1.222951
1.103376 1.264334 1.159064
1.044692 1.090406 1.138218
1.058730 1.088994 1.123246
1.073673 1.182931 1.153557
1.107311 1.209064 1.133441
1.073650 1.128737 1.126904
1.122507 1.166647 1.118740
1.093066 1.097296 1.121126
