# .PCD v0.7 - Point Cloud Data file format
VERSION 0.7
FIELDS x y z
SIZE 4 4 4
TYPE F F F
COUNT 1 1 1
WIDTH 371
HEIGHT 1
VIEWPOINT 0 0 0 1
POINTS 371
DATA ascii
2.277372 -1.521144 -0.290541
2.190948 -1.499315 -0.038885
2.161003 -1.501030 -0.012881
2.167089 -1.516145 -0.022667
2.214535 -1.551056 -0.193162
2.211621 -1.549425 -0.226190
2.235819 -1.574095 -0.285835
3.346745 -2.349224 0.161780
2.135381 -1.541305 -0.035346
2.142154 -1.559032 0.079913
2.131413 -1.554076 -0.014172
2.118149 -1.554728 0.107836
2.127506 -1.564180 -0.023038
2.173980 -1.604030 -0.189469
2.174069 -1.604396 -0.222467
2.191278 -1.626060 -0.282163
2.101954 -1.574241 0.244100
2.073327 -1.556723 0.109825
2.103812 -1.598307 -0.032597
2.114554 -1.615054 0.081649
2.100827 -1.607123 -0.015479
2.390764 -1.823732 0.385742
2.093552 -1.611785 0.106587
2.101912 -1.620204 -0.022303
2.137514 -1.659369 -0.218761
2.134424 -1.657007 -0.185793
3.224124 -2.482615 -0.416714
2.527789 -1.963221 0.435727
2.080350 -1.638249 0.248929
2.014749 -1.592755 0.111245
1.609681 -1.279848 2.296861
2.072242 -1.656303 -0.028866
2.079950 -1.665091 0.082268
2.067245 -1.659174 -0.016833
2.433119 -1.943698 0.395347
2.064945 -1.664846 0.105249
2.048324 -1.656245 -0.022893
3.423379 -2.747904 -0.352073
3.315215 -2.666237 -0.291262
1.598804 -1.307003 2.296219
3.244631 -2.623654 -0.421918
2.511140 -2.041214 0.442704
2.111732 -1.745203 0.259362
2.365101 -1.936673 1.875281
1.977171 -1.644770 0.114886
1.578883 -1.312120 2.293271
3.418264 -2.818662 0.130824
3.346786 -2.763608 -0.048990
3.343767 -2.766467 -0.035960
3.229160 -2.675425 0.521765
2.323243 -1.932956 1.855173
2.021352 -1.707922 0.102756
3.300851 -2.749557 -0.044244
1.573012 -1.347257 2.295734
2.240299 -1.898200 2.210642
2.491502 -2.120221 0.448669
1.547094 -1.343414 2.287658
2.326360 -1.995878 1.874970
3.219796 -2.752817 0.396680
2.245787 -1.931776 2.071062
1.947591 -1.702786 0.118597
3.343686 -2.887681 0.131521
2.289466 -1.991055 1.863853
3.145572 -2.730571 0.514281
1.545222 -1.385520 2.294208
3.135557 -2.770993 0.570751
2.193527 -1.948420 2.212200
1.516299 -1.376671 2.286062
2.287615 -2.055062 1.876642
2.195040 -1.985979 2.074656
2.243710 -2.039231 1.865374
1.517434 -1.424776 2.293684
2.154731 -2.004554 2.221827
1.473555 -1.397114 2.266278
2.243890 -2.112294 1.874263
2.209929 -2.098313 1.876034
2.161242 -2.054010 2.094428
1.485662 -1.461078 2.289105
2.114932 -2.061674 2.233447
2.679094 -2.628102 -0.279925
2.689969 -2.639669 -0.238764
2.202157 -2.171496 1.874893
2.170158 -2.152430 1.883606
2.109490 -2.107198 2.099969
3.082575 -3.064640 -0.045976
2.666524 -2.683411 -0.022294
1.473035 -1.510869 2.235705
2.067155 -2.109878 2.236928
2.157428 -2.227709 1.874464
2.126398 -2.203583 1.888119
2.177839 -2.269846 1.768988
2.551404 -2.662022 0.114209
2.056737 -2.158387 2.105464
2.877230 -3.009120 0.199919
2.523440 -2.650959 0.121019
1.446201 -1.554934 2.254205
2.028345 -2.167971 2.251526
2.118686 -2.290872 1.879109
2.086622 -2.258685 1.897671
1.918955 -2.106986 -0.262578
1.428442 -1.578421 2.221457
2.143069 -2.339877 1.785717
2.015943 -2.222444 2.124115
1.387517 -1.565482 2.226236
1.984547 -2.221109 2.262038
2.045844 -2.312789 1.907193
2.074949 -2.350048 1.882679
1.842134 -2.113317 -0.194667
1.831048 -2.106004 -0.163772
1.392645 -1.615589 2.230839
1.826393 -2.108916 -0.252755
2.091332 -2.390033 1.790161
1.847683 -2.143657 -0.031299
1.973147 -2.286499 2.143741
1.830724 -2.155397 -0.004204
2.004071 -2.367899 1.916707
2.032208 -2.410215 1.887244
1.763579 -2.127294 -0.188687
1.771495 -2.139999 -0.159525
2.046579 -2.451124 1.801725
1.798856 -2.177925 -0.251043
1.803639 -2.182463 0.091041
1.787113 -2.171724 -0.033126
1.795711 -2.188492 0.089089
1.918388 -2.336680 2.151161
1.951579 -2.392743 0.162737
1.759160 -2.177412 -0.000129
1.959301 -2.420023 1.925164
1.986476 -2.469397 1.890771
1.730047 -2.192303 -0.186049
1.999823 -2.509217 1.813233
1.735964 -2.204012 -0.156904
1.811066 -2.293483 0.094283
1.743556 -2.220789 -0.034693
1.805158 -2.303552 0.088377
1.870597 -2.397758 2.169699
1.988010 -2.555691 0.173599
1.742604 -2.262434 0.002760
1.918515 -2.477107 1.937669
1.946721 -2.538503 1.902402
1.964613 -2.579775 1.676878
1.951072 -2.568317 1.824726
1.705521 -2.269331 -0.185277
1.708423 -2.276033 -0.155195
1.709005 -2.280872 -0.038134
1.874733 -2.531205 1.949117
1.683040 -2.297451 0.006974
1.904972 -2.606632 1.911996
1.903314 -2.629401 1.838224
1.910884 -2.640857 1.690358
2.360908 -3.269830 -0.344832
1.831947 -2.589289 1.962593
1.851257 -2.660856 1.912388
1.857543 -2.692466 1.853729
2.254986 -3.268950 -0.252203
2.253847 -3.275542 -0.210139
1.785168 -2.641404 1.972977
1.232271 -1.877778 2.156399
2.205502 -3.366960 -0.250412
2.197347 -3.361548 -0.207493
1.971342 -3.149537 0.113594
1.948497 -3.137783 0.089374
2.161011 -3.472980 -0.249569
1.168929 -1.979642 2.122244
2.027229 -3.352465 0.229752
1.837000 -3.054493 0.021120
1.930788 -3.245603 0.114329
1.893965 -3.212892 0.085863
1.619878 -2.904406 -0.062208
1.578870 -2.857299 -0.048823
1.505713 -2.750142 -0.243148
1.107902 -2.114057 2.034342
1.436834 -2.764557 -0.174303
1.438727 -2.777261 -0.142175
1.440169 -2.786160 -0.239092
0.649405 -2.866062 1.810487
0.596583 -2.918142 1.832551
0.511152 -2.826953 1.766268
0.529390 -2.984143 1.748606
0.516650 -3.143302 1.748739
0.504778 -3.105516 1.724365
0.460712 -2.977485 1.739080
0.427211 -3.062045 1.691485
0.438927 -3.169527 1.759386
0.360454 -3.113203 1.707391
-0.182163 -4.080299 1.421033
2.278847 -1.541029 -0.178035
2.217822 -1.540672 0.006490
2.218357 -1.544444 -0.065523
2.229482 -1.574395 -0.081542
2.232897 -1.579218 -0.137538
2.228589 -1.560370 -0.091509
2.242218 -1.594099 -0.176527
2.200451 -1.555929 0.077299
3.340932 -2.392667 0.299711
2.184888 -1.581788 0.028090
2.192205 -1.599755 0.007057
2.180749 -1.594514 -0.067012
2.227155 -1.653726 0.299132
2.187859 -1.623474 -0.080061
2.192277 -1.630293 -0.136057
2.188966 -1.609443 -0.091011
2.203600 -1.646167 -0.176036
2.162850 -1.606012 0.075809
3.336413 -2.477204 0.428231
2.086989 -1.583457 0.205341
2.350979 -1.762953 0.351614
2.150281 -1.634870 0.027608
2.156580 -1.651841 0.008568
2.150129 -1.648585 -0.067470
2.263487 -1.761861 0.307957
2.129235 -1.660558 -0.077665
2.153344 -1.661517 -0.090501
3.567929 -2.774789 -0.308306
2.134240 -1.661091 0.074361
2.276634 -1.783912 0.309943
2.064372 -1.644566 0.207916
2.379318 -1.870090 0.359368
2.114665 -1.686955 0.028116
3.486082 -2.774872 -0.007049
3.397964 -2.711450 -0.129466
2.291827 -1.869998 0.316683
3.292058 -2.672425 -0.138096
3.308227 -2.654347 -0.160925
3.329717 -2.706108 -0.229959
3.371208 -2.752890 -0.293858
2.091643 -1.707169 0.072811
2.318955 -1.902049 0.320720
3.287832 -2.692646 0.486731
2.052761 -1.716675 0.211490
3.396097 -2.819028 0.025016
2.246415 -1.929073 2.285120
3.354459 -2.799948 -0.005301
3.231393 -2.747533 0.438018
3.396869 -2.877335 0.096647
1.564498 -1.386228 2.300265
2.244311 -1.961819 2.184941
2.354273 -2.021190 0.332427
2.416713 -2.095208 2.564664
3.209273 -2.752738 0.481745
2.210846 -1.986357 2.292557
2.354011 -2.094772 1.847125
2.195862 -1.963431 2.301519
1.493379 -1.386284 2.243737
2.204741 -2.018104 2.193347
2.253085 -2.045019 2.437582
1.532232 -1.434471 2.279823
2.176269 -2.044645 2.300991
2.304517 -2.145974 1.841465
2.158288 -2.018721 2.309945
1.452941 -1.410490 2.231339
2.168145 -2.080420 2.207743
2.367415 -2.244923 2.606505
2.292953 -2.198920 1.804135
1.465054 -1.435542 2.230321
2.132736 -2.096920 2.304379
2.135589 -2.087073 2.335421
2.267939 -2.209220 1.847845
2.250411 -2.209040 1.790701
2.710446 -2.661759 -0.113943
2.708023 -2.663448 -0.195976
2.298087 -2.279107 2.580761
2.118633 -2.129686 2.209094
2.258346 -2.265179 1.814512
1.420650 -1.457742 2.214900
2.642653 -2.653339 0.028541
2.262929 -2.321907 2.493284
2.650951 -2.666260 0.002488
2.278661 -2.325142 2.543359
2.228366 -2.268456 1.852215
2.204839 -2.264280 1.796043
2.600568 -2.657581 0.078118
2.209797 -2.317402 1.815843
2.077053 -2.186991 2.220465
2.268003 -2.433431 2.555737
2.176869 -2.320670 1.848521
2.157269 -2.316514 1.800381
2.162246 -2.373639 1.819157
2.031486 -2.240288 2.229820
1.943699 -2.121654 -0.175373
2.143085 -2.394334 1.721885
2.136297 -2.381914 1.853864
2.115660 -2.375774 1.810727
2.384300 -2.689937 0.375199
1.882341 -2.141128 -0.071958
1.863772 -2.123878 -0.134019
2.120657 -2.435895 1.827483
1.997833 -2.307641 2.252193
1.867058 -2.136732 -0.171061
2.241191 -2.593580 0.274539
1.864819 -2.164580 0.030784
2.098485 -2.456601 1.733185
2.097696 -2.447181 1.864197
1.862056 -2.162522 0.011742
1.845687 -2.149149 -0.079321
2.071061 -2.433033 1.820055
1.846833 -2.176761 0.063548
1.836728 -2.191203 -0.070584
2.081044 -2.502169 1.839799
1.814158 -2.166943 -0.133638
2.147786 -2.595882 2.485861
1.803429 -2.163802 -0.168708
1.338128 -1.634506 2.144479
2.206572 -2.676695 0.278792
1.811211 -2.203659 0.031151
2.050888 -2.516870 1.744467
2.048153 -2.500411 1.865501
1.827441 -2.222598 0.012148
1.811084 -2.209210 -0.080914
2.025460 -2.489291 1.829376
1.813232 -2.237833 0.061956
1.812121 -2.265269 -0.071175
2.029492 -2.555408 1.843084
1.783549 -2.233003 -0.134232
2.117050 -2.680316 2.522139
1.781829 -2.241857 -0.170295
1.304593 -1.666752 2.145080
1.307621 -1.671743 2.142078
1.783603 -2.274738 0.031551
2.002293 -2.577142 1.755737
2.011529 -2.569691 1.878819
1.787829 -2.278675 0.012531
1.985816 -2.554582 1.845692
1.779482 -2.273265 -0.083510
1.989858 -2.623698 1.858380
1.805634 -2.335911 0.061364
1.769507 -2.321344 -0.069818
1.267130 -1.693950 2.134675
1.278977 -1.710056 2.158682
1.751009 -2.345819 0.031905
1.958660 -2.645442 1.772998
1.964957 -2.630953 1.886095
1.265593 -1.746885 2.095413
1.757227 -2.348748 0.011905
1.939201 -2.612860 1.857986
1.942263 -2.682963 1.867657
2.370144 -3.265612 -0.251251
1.906078 -2.703716 1.784228
1.917387 -2.690210 1.893360
1.243900 -1.799250 2.122982
1.888624 -2.666116 1.866260
2.331793 -3.280074 -0.154735
1.882751 -2.727183 1.867902
1.203401 -1.824478 2.121549
1.856915 -2.734413 1.889600
2.251010 -3.306214 -0.133586
1.187880 -1.839400 2.081354
2.233587 -3.381922 -0.201134
2.195436 -3.387247 -0.137557
2.017265 -3.152182 0.059365
1.868647 -3.043098 0.032825
1.882875 -3.052996 0.008830
1.913692 -3.149246 0.057509
1.876069 -3.218166 0.032830
1.919119 -3.323304 0.055494
1.596967 -2.838711 -0.072206
1.553715 -2.781176 -0.184221
1.557431 -2.822582 -0.106477
1.527538 -2.786541 -0.116504
1.483829 -2.790420 -0.144839
1.481106 -2.803243 -0.181940
1.515849 -2.899627 -0.109277
1.487967 -2.867581 -0.120310
0.599557 -3.031900 1.789912
0.516345 -2.951802 1.736827
0.492650 -3.056760 1.717017
0.469802 -3.035810 1.714990
0.458155 -3.091881 1.706512
0.442849 -3.188383 1.781817
0.419939 -3.185542 1.795674
0.355743 -3.060138 1.706037
