# .PCD v0.7 - Point Cloud Data file format
VERSION 0.7
FIELDS x y z
SIZE 4 4 4
TYPE F F F
COUNT 1 1 1
WIDTH 42
HEIGHT 1
VIEWPOINT 0 0 0 1
POINTS 42
DATA ascii
0.751617 2.233242 2.311311
0.761680 2.124095 2.250604
0.789262 2.174184 2.262222
0.754100 2.021481 2.276102
0.862070 2.571735 2.399013
0.853679 2.214168 2.360515
0.956792 2.804035 3.087132
0.760397 2.416559 2.337240
0.747658 2.072451 2.266972
0.891219 2.275207 2.381249
0.758884 2.048836 2.244560
0.817393 2.043339 2.315128
0.739241 2.049945 2.281740
0.794128 2.349414 2.292047
0.819865 2.116999 2.332298
0.750674 1.916181 2.268617
0.846954 2.128939 2.349349
0.881716 2.060260 2.350080
0.760043 1.995977 2.282832
0.890064 2.449404 2.410093
0.718452 1.863597 2.275049
0.776823 2.009481 2.258952
0.732940 2.016540 2.289336
0.878245 2.122990 2.359113
0.805046 1.922144 2.294457
0.792604 1.952560 2.254030
0.748011 1.817235 2.240221
0.857015 2.070669 2.352502
0.759642 1.951317 2.243231
0.738451 1.891623 2.272443
0.869359 1.946832 2.344537
0.874779 2.016718 2.350620
0.720863 1.767478 2.259677
0.802373 1.830970 2.281186
0.759074 1.829412 2.222419
0.840850 2.015389 2.344825
0.741457 1.710206 2.213729
0.859753 1.843718 2.323121
0.833290 1.886523 2.317940
0.880448 1.979741 2.335110
0.804779 1.745511 2.288980
0.855200 1.749282 2.324823
