# .PCD v0.7 - Point Cloud Data file format
VERSION 0.7
FIELDS x y z
SIZE 4 4 4
TYPE F F F
COUNT 1 1 1
WIDTH 16
HEIGHT 1
VIEWPOINT 0 0 0 1
POINTS 16
DATA ascii
2.493821 -1.696351 3.173297
2.419270 -1.653324 3.123178
2.088202 -1.470967 2.962820
2.421665 -1.730420 3.126391
2.226060 -1.599121 3.046829
2.347008 -1.684379 3.080270
1.874602 -1.379804 2.860864
2.026885 -1.495065 2.920218
1.830757 -1.412891 2.838774
1.807180 -1.402884 2.826120
2.223090 -1.545183 2.997144
2.169290 -1.570404 2.970960
2.156664 -1.575452 2.958686
2.526308 -1.735509 3.137542
2.512012 -1.760611 3.119126
2.385198 -1.723788 3.017808
