# .PCD v0.7 - Point Cloud Data file format
VERSION 0.7
FIELDS x y z
SIZE 4 4 4
TYPE F F F
COUNT 1 1 1
WIDTH 44
HEIGHT 1
VIEWPOINT 0 0 0 1
POINTS 44
DATA ascii
1.128682 -1.765326 1.267564
1.145301 -1.629913 1.030019
1.188381 -1.763980 1.096661
1.628995 -1.699826 1.012382
1.589178 -1.735388 1.009020
1.369794 -1.540605 0.995925
1.727944 -1.965360 1.114756
1.347895 -1.585451 1.005479
1.303184 -1.604988 1.000283
1.432967 -1.837053 1.121999
1.353536 -1.820127 1.095163
1.210496 -1.789834 1.476494
1.141102 -1.778444 1.295595
1.886579 -1.698010 1.025672
1.859092 -1.724997 1.007344
1.827260 -1.725399 1.018353
1.854239 -1.801208 1.026392
1.995154 -1.976227 1.138149
1.793510 -1.700536 1.010640
1.963553 -1.995153 1.110923
1.659324 -1.640864 1.021446
1.868245 -1.941823 1.095630
1.751243 -1.735831 1.007214
1.840578 -1.956722 1.068453
1.603910 -1.660219 1.012224
1.892901 -1.962694 1.110317
1.730136 -1.887444 1.045364
1.738550 -1.883248 1.123379
1.779961 -1.929207 1.069781
1.691385 -1.662208 1.003084
1.638725 -1.859731 1.089711
1.658182 -1.703453 1.001579
1.534772 -1.824205 1.051195
1.799890 -1.932313 1.105651
1.138104 -1.439098 1.060213
1.686890 -1.893765 1.058179
1.293105 -1.762500 1.301116
1.297573 -1.521800 1.003008
1.310673 -1.773387 1.390942
1.211248 -1.735805 1.263475
1.253046 -1.533091 0.993881
1.246377 -1.806034 1.721618
1.252482 -1.817596 1.690468
1.220680 -1.770447 1.242036
