# .PCD v0.7 - Point Cloud Data file format
VERSION 0.7
FIELDS x y z
SIZE 4 4 4
TYPE F F F
COUNT 1 1 1
WIDTH 24
HEIGHT 1
VIEWPOINT 0 0 0 1
POINTS 24
DATA ascii
0.588813 -2.363100 1.908608
0.494318 -2.418117 1.860794
0.467925 -2.393861 1.830766
0.600045 -2.279076 1.923489
0.525419 -2.348618 1.886426
0.427834 -2.394695 1.836463
0.411376 -2.385177 1.815858
0.541687 -2.270480 1.903513
0.463003 -2.329113 1.862254
0.359412 -2.353361 1.800967
0.444677 -2.393897 1.817023
0.494891 -2.302455 1.918186
0.564270 -2.185354 1.908761
0.402553 -2.309552 1.839157
0.474920 -2.400682 1.819072
0.435573 -2.280897 1.890113
0.511021 -2.175664 1.884956
0.336364 -2.256238 1.790668
0.369673 -2.215656 1.826556
0.458690 -2.166930 1.864197
0.406402 -2.151216 1.838395
0.309564 -2.163223 1.776275
0.348489 -2.100771 1.784181
0.300073 -2.094920 1.768569
