# .PCD v0.7 - Point Cloud Data file format
VERSION 0.7
FIELDS x y z
SIZE 4 4 4
TYPE F F F
COUNT 1 1 1
WIDTH 17
HEIGHT 1
VIEWPOINT 0 0 0 1
POINTS 17
DATA ascii
3.974243 -1.482622 3.848366
3.944038 -1.478257 3.912319
3.965825 -1.587125 3.879414
3.957541 -1.588987 3.964377
3.933437 -1.685441 3.892411
3.933139 -1.687334 3.981397
3.772279 -1.723033 3.863548
3.038638 -1.391429 3.052375
3.982929 -1.474102 3.808776
3.985468 -1.576566 3.839827
3.974028 -1.674870 3.857841
3.852686 -1.644951 3.677732
3.919979 -1.498385 3.974526
3.807242 -1.704230 3.728993
3.910641 -1.556390 4.004935
3.650048 -1.655906 3.522946
3.915486 -1.593829 4.006581
