# .PCD v0.7 - Point Cloud Data file format
VERSION 0.7
FIELDS x y z
SIZE 4 4 4
TYPE F F F
COUNT 1 1 1
WIDTH 17
HEIGHT 1
VIEWPOINT 0 0 0 1
POINTS 17
DATA ascii
1.992973 -0.684009 2.583117
1.968627 -0.725584 2.568793
1.943299 -0.766138 2.553479
1.915993 -0.805670 2.537159
2.003064 -0.943699 2.585470
1.973569 -0.989122 2.561960
1.970755 -0.983247 2.570085
1.955077 -1.033930 2.557681
1.927683 -1.016453 2.540664
1.933648 -1.077659 2.550372
1.892422 -1.052944 2.523301
1.892619 -1.109805 2.518012
1.951599 -1.238389 2.556145
1.910386 -1.274859 2.537703
1.931831 -1.456844 2.539931
1.902501 -1.464616 2.535349
1.872310 -1.446034 2.514339
