# .PCD v0.7 - Point Cloud Data file format
VERSION 0.7
FIELDS x y z
SIZE 4 4 4
TYPE F F F
COUNT 1 1 1
WIDTH 25
HEIGHT 1
VIEWPOINT 0 0 0 1
POINTS 25
DATA ascii
3.473453 2.588439 1.847405
3.564835 2.522299 1.856979
3.608588 2.422884 1.844154
3.480814 2.442439 1.950809
3.571929 2.496258 1.849422
3.648349 2.321423 1.830331
3.450931 2.302729 1.899542
3.594705 2.390642 1.832577
3.414669 2.393467 1.826095
3.452764 2.188089 1.868624
3.550602 2.366304 1.870244
3.398703 2.369353 1.870668
3.464483 2.082452 1.844850
3.930375 2.355705 1.943065
3.564350 2.259591 1.852439
3.423371 2.270674 1.859959
3.542756 2.018070 1.856595
3.561179 2.143773 1.827551
3.414186 2.154815 1.834081
3.589231 1.933524 1.853116
3.603689 2.057128 1.827039
3.453653 2.071134 1.834619
3.557730 2.024706 1.868614
3.561356 1.921829 1.852971
3.551027 1.812873 1.831285
