# .PCD v0.7 - Point Cloud Data file format
VERSION 0.7
FIELDS x y z
SIZE 4 4 4
TYPE F F F
COUNT 1 1 1
WIDTH 41
HEIGHT 1
VIEWPOINT 0 0 0 1
POINTS 41
DATA ascii
1.634222 2.517376 1.912586
1.617241 2.716387 1.908211
1.647213 2.422241 1.867369
1.547286 2.216410 1.858627
1.660912 2.651251 1.887401
1.656236 2.914787 1.924851
1.714362 2.407847 1.884263
1.620356 2.209915 1.888641
1.688815 2.565154 1.851320
1.671538 2.789868 1.865239
1.544034 2.247889 1.843112
1.684592 2.187475 1.908456
1.844113 2.920385 1.975104
1.698834 2.959603 1.847476
1.645675 2.280332 1.901669
1.689619 2.093237 1.865298
1.509906 2.065539 1.856780
1.607900 1.965093 1.891588
1.561674 2.288387 1.842726
1.691184 2.233002 1.898154
1.597710 2.082978 1.905147
1.606935 1.872841 1.844466
1.553327 2.419173 1.864424
1.677067 2.341818 1.914580
1.569898 2.164904 1.901212
1.615531 2.009708 1.874285
1.637218 2.427799 1.895664
1.695022 2.255643 1.876549
1.515408 2.220057 1.855882
1.616324 2.126568 1.898828
1.619514 1.923444 1.831252
1.696566 2.395553 1.897368
1.611071 2.248557 1.907409
1.620378 2.034392 1.848718
1.704709 2.294448 1.845146
1.564781 2.088445 1.888371
1.618162 2.153450 1.854264
1.740761 2.085788 1.930601
1.622103 2.060150 1.893157
1.698140 2.154061 1.885447
1.626230 1.965052 1.837038
