# .PCD v0.7 - Point Cloud Data file format
VERSION 0.7
FIELDS x y z
SIZE 4 4 4
TYPE F F F
COUNT 1 1 1
WIDTH 34
HEIGHT 1
VIEWPOINT 0 0 0 1
POINTS 34
DATA ascii
2.254986 -3.268950 -0.252203
2.253847 -3.275542 -0.210139
2.205502 -3.366960 -0.250412
2.197347 -3.361548 -0.207493
1.971342 -3.149537 0.113594
1.948497 -3.137783 0.089374
2.161011 -3.472980 -0.249569
2.027229 -3.352465 0.229752
1.837000 -3.054493 0.021120
1.930788 -3.245603 0.114329
1.893965 -3.212892 0.085863
1.619878 -2.904406 -0.062208
1.578870 -2.857299 -0.048823
1.505713 -2.750142 -0.243148
1.436834 -2.764557 -0.174303
1.438727 -2.777261 -0.142175
1.440169 -2.786160 -0.239092
2.251010 -3.306214 -0.133586
2.233587 -3.381922 -0.201134
2.195436 -3.387247 -0.137557
2.017265 -3.152182 0.059365
1.868647 -3.043098 0.032825
1.882875 -3.052996 0.008830
1.913692 -3.149246 0.057509
1.876069 -3.218166 0.032830
1.919119 -3.323304 0.055494
1.596967 -2.838711 -0.072206
1.553715 -2.781176 -0.184221
1.557431 -2.822582 -0.106477
1.527538 -2.786541 -0.116504
1.483829 -2.790420 -0.144839
1.481106 -2.803243 -0.181940
1.515849 -2.899627 -0.109277
1.487967 -2.867581 -0.120310
