# .PCD v0.7 - Point Cloud Data file format
VERSION 0.7
FIELDS x y z
SIZE 4 4 4
TYPE F F F
COUNT 1 1 1
WIDTH 35
HEIGHT 1
VIEWPOINT 0 0 0 1
POINTS 35
DATA ascii
0.536365 3.073340 2.223322
0.595814 3.005881 2.181011
0.626335 2.907189 2.261321
0.677733 2.848605 2.230060
0.746804 2.961486 2.389310
0.758655 2.980360 2.409520
0.727601 2.850967 2.319305
0.842382 3.009268 2.456131
0.840435 3.001264 2.455056
0.852696 2.530096 2.320240
0.905024 2.487484 2.294137
0.894255 2.439737 2.363703
0.940621 2.393115 2.335545
0.948131 2.311647 2.376930
0.932533 2.251407 2.387375
1.006582 2.396165 2.357882
0.990489 2.268003 2.349783
0.986630 2.238504 2.396532
1.025015 2.191830 2.370346
1.040046 2.180501 2.409330
1.131232 2.281254 2.490563
1.078356 2.142720 2.396217
1.082450 2.130747 2.393143
1.509565 1.390728 2.540611
1.536909 1.355761 2.543481
1.561291 1.317812 2.542315
1.585673 1.279845 2.543148
1.621939 1.251782 2.563105
0.613197 2.952190 2.230862
0.729623 2.871589 2.345704
0.835161 2.995074 2.463571
4.944038 1.442485 2.001417
0.980884 2.305082 2.388484
1.020434 2.257560 2.363252
1.073588 2.241803 2.371418
