# .PCD v0.7 - Point Cloud Data file format
VERSION 0.7
FIELDS x y z
SIZE 4 4 4
TYPE F F F
COUNT 1 1 1
WIDTH 2340
HEIGHT 1
VIEWPOINT 0 0 0 1
POINTS 2340
DATA ascii
1.210138 -1.142126 -0.063695
1.241205 -1.155209 -0.038746
1.212197 -1.172801 0.083077
1.182040 -1.149173 0.098294
1.176265 -1.131013 -0.005480
1.213544 -1.154738 -0.007606
1.127432 -1.117727 -0.058394
1.194550 -1.138417 -0.046461
1.200381 -1.170087 0.102200
1.159512 -1.132776 -0.035468
1.118644 -1.125739 -0.062438
1.154265 -1.145928 0.149446
1.204498 -1.154949 0.093477
1.135525 -1.152273 0.081344
1.104388 -1.128653 0.096567
1.141115 -1.168875 0.312216
1.191767 -1.152139 0.015515
1.158655 -1.141681 0.043569
1.191680 -1.174338 0.120283
1.170804 -1.135777 -0.028336
1.117702 -1.127408 -0.004362
1.168784 -1.138098 -0.001350
1.154545 -1.199453 0.283970
1.129933 -1.125662 -0.062271
1.139882 -1.137222 -0.007369
1.076903 -1.120111 -0.054324
1.121893 -1.121933 -0.043231
1.135797 -1.161469 0.099363
1.083927 -1.108688 -0.087171
1.097918 -1.125208 -0.033313
1.179796 -1.167524 0.130422
1.039945 -1.088484 -0.131031
1.156603 -1.194569 0.296090
1.062080 -1.122166 -0.058311
1.101730 -1.146241 0.147532
1.132815 -1.136382 0.090720
1.130658 -1.152591 0.195537
1.085034 -1.156612 0.082400
1.104420 -1.163583 0.355404
1.166802 -1.201635 0.309124
1.117080 -1.131623 0.014780
1.055892 -1.132969 0.096625
1.181823 -1.202610 0.316166
1.088984 -1.124143 0.043811
1.071528 -1.154213 0.303445
1.105164 -1.123226 -0.027141
1.120044 -1.157748 0.115517
1.100126 -1.122567 -0.000127
1.046031 -1.107912 -0.002094
1.085317 -1.134587 -0.007257
1.076878 -1.174839 0.274286
1.029302 -1.100006 -0.092006
1.063130 -1.140916 0.096640
1.115165 -1.154889 0.125618
1.001206 -1.095685 -0.049002
1.041338 -1.119615 -0.031167
1.108872 -1.152234 0.240649
0.990392 -1.087888 -0.125925
1.096035 -1.186861 0.288251
1.073075 -1.145919 0.191687
0.993404 -1.102695 -0.053035
1.084296 -1.139689 0.089781
1.028059 -1.123685 0.143832
1.008321 -1.129107 0.080749
1.096146 -1.181953 0.297388
1.070548 -1.134923 0.013839
1.042841 -1.152861 0.345597
1.113187 -1.185914 0.304401
0.985227 -1.111423 0.094923
1.039457 -1.125475 0.043896
1.053393 -1.141146 0.111758
1.012959 -1.145511 0.296625
0.992444 -1.102302 0.000056
1.005663 -1.101581 -0.055868
1.015634 -1.114075 -0.005976
1.028359 -1.176105 0.270374
1.002650 -1.101794 -0.038863
1.003497 -1.128296 0.094851
1.060610 -1.151194 0.120744
1.056301 -1.148518 0.235773
0.978666 -1.103083 -0.027919
0.949633 -1.091081 -0.045855
1.027375 -1.166198 0.278534
0.920771 -1.069474 -0.117637
1.009561 -1.112163 0.087121
1.007424 -1.128301 0.186943
0.941832 -1.098104 -0.048885
0.971461 -1.114033 0.141022
1.042583 -1.177220 0.290526
0.958766 -1.126446 0.080879
0.997830 -1.109402 0.012165
0.991292 -1.149125 0.339733
1.048562 -1.170200 0.292635
0.945623 -1.121584 0.530947
0.983885 -1.098073 -0.025726
1.007867 -1.143419 0.108836
0.970743 -1.101949 0.044206
1.021311 -1.163453 0.387668
0.979829 -1.096393 0.000294
0.930638 -1.102799 0.095111
0.951356 -1.130828 0.288867
0.929783 -1.084764 0.002322
0.957977 -1.100490 -0.004755
0.956672 -1.149474 0.260724
0.991610 -1.127862 0.228052
0.949911 -1.120642 0.093026
0.990898 -1.126603 0.115061
0.966175 -1.170480 0.535555
0.925079 -1.095486 -0.025741
0.890980 -1.075545 -0.041602
0.978091 -1.168908 0.581626
0.971798 -1.157488 0.271719
0.962995 -1.110462 0.085236
0.951798 -1.116634 0.183150
0.917858 -1.104380 0.139217
0.883169 -1.081570 -0.044623
0.987503 -1.151047 0.421901
0.930071 -1.129764 0.540014
0.942994 -1.121786 0.550137
0.973907 -1.153547 0.278842
0.950260 -1.106726 0.011291
0.900125 -1.110846 0.080132
1.000034 -1.169429 0.284744
0.927635 -1.128428 0.329028
0.908159 -1.129747 0.524983
0.940159 -1.118844 0.105162
0.920150 -1.095306 0.044373
0.955635 -1.140731 0.373975
0.877052 -1.093165 0.094315
0.898793 -1.123127 0.284052
0.878169 -1.075145 0.003520
0.905363 -1.090866 -0.004560
0.941022 -1.121150 0.223216
0.907106 -1.143754 0.255887
0.942334 -1.122895 0.111200
0.892266 -1.105026 0.091279
0.870434 -1.081904 -0.023505
0.900546 -1.147697 0.516879
0.840384 -1.066950 -0.038405
0.929554 -1.165090 0.570770
0.911148 -1.138801 0.262998
0.923297 -1.117846 0.545284
0.908358 -1.097825 0.083456
0.901193 -1.107940 0.179336
0.862225 -1.089739 0.136465
0.945971 -1.153249 0.415983
0.833567 -1.072970 -0.041426
0.940587 -1.168501 0.615820
0.867397 -1.104945 0.519349
0.903497 -1.125933 0.541208
0.897621 -1.095093 0.010502
0.925345 -1.148797 0.271993
0.929296 -1.138758 0.271124
0.845500 -1.097238 0.080375
0.844476 -1.102949 0.505341
0.876062 -1.119699 0.322223
0.908070 -1.135970 0.367126
0.885536 -1.106198 0.102388
0.866519 -1.082680 0.043599
0.829560 -1.066524 0.005714
0.822425 -1.078547 0.093570
0.843215 -1.110433 0.277293
0.895433 -1.116421 0.219364
0.852726 -1.078251 -0.004332
0.886679 -1.107235 0.106449
0.853501 -1.131060 0.250122
0.839643 -1.092383 0.089511
0.815769 -1.065330 -0.021237
0.859536 -1.127083 0.256218
0.881773 -1.117979 0.533391
0.853027 -1.143907 0.508036
0.789768 -1.055362 -0.035175
0.868938 -1.145278 0.552068
0.856698 -1.084175 0.081687
0.850581 -1.097254 0.175546
0.883260 -1.127510 0.401322
0.857413 -1.141845 0.778125
0.908896 -1.163056 0.649011
0.887981 -1.155665 0.600046
0.811611 -1.078082 0.134691
0.843823 -1.102089 0.519534
0.824855 -1.102114 0.509490
0.843954 -1.079475 0.009755
0.783958 -1.062376 -0.038203
0.870716 -1.134078 0.263239
0.885746 -1.136981 0.264250
0.801925 -1.099132 0.496494
0.795881 -1.085590 0.079603
0.855444 -1.122231 0.358364
0.851741 -1.168786 0.769869
0.839937 -1.099495 0.099561
0.817874 -1.071038 0.043818
0.825471 -1.108973 0.315441
0.837668 -1.152798 0.762020
0.781935 -1.055892 0.006931
0.775829 -1.069880 0.092773
0.866769 -1.179306 0.827841
0.842788 -1.101728 0.213609
0.788592 -1.093742 0.270572
0.805106 -1.068618 -0.003127
0.835020 -1.092566 0.102693
0.804894 -1.120350 0.245340
0.792035 -1.082722 0.088720
0.773188 -1.060665 -0.020073
0.825136 -1.098141 0.513686
0.846795 -1.147018 0.790221
0.810944 -1.117361 0.250428
0.822364 -1.137466 0.541257
0.748198 -1.051716 -0.032015
0.797417 -1.126119 0.493325
0.810102 -1.076507 0.080875
0.802972 -1.087566 0.172753
0.861296 -1.153189 0.633209
0.840687 -1.123723 0.394467
0.817909 -1.142956 0.766234
0.845446 -1.153831 0.590178
0.767016 -1.070389 0.132883
0.777240 -1.089284 0.495724
0.802295 -1.100256 0.509671
0.795322 -1.067829 0.008978
0.820084 -1.120350 0.255480
0.742359 -1.056731 -0.035029
0.832111 -1.121263 0.255509
0.754320 -1.086316 0.483734
0.807847 -1.112476 0.350571
0.774274 -1.064366 0.043998
0.791313 -1.087821 0.096787
0.750285 -1.076933 0.079810
0.785053 -1.134887 0.739305
0.776869 -1.097230 0.307671
0.809267 -1.169939 0.759988
0.835002 -1.142070 0.789361
0.813171 -1.162386 0.804115
0.737344 -1.048256 0.009129
0.733270 -1.065202 0.092946
0.792146 -1.087029 0.207861
0.787390 -1.080875 0.098917
0.760508 -1.060959 -0.002934
0.746037 -1.089006 0.266743
0.755276 -1.106655 0.240593
0.748437 -1.075029 0.086914
0.733622 -1.057985 -0.018922
0.779547 -1.088288 0.498893
0.797202 -1.133086 0.767466
0.765458 -1.065821 0.079087
0.765356 -1.108626 0.244632
0.831349 -1.183922 0.867014
0.770756 -1.121655 0.526527
0.708625 -1.048050 -0.029853
0.826781 -1.158344 0.627274
0.757335 -1.075859 0.168978
0.792053 -1.109944 0.383708
0.751892 -1.120334 0.484512
0.767282 -1.125026 0.742516
0.791793 -1.133998 0.572476
0.750625 -1.079408 0.490977
0.753727 -1.062139 0.008151
0.731655 -1.078459 0.482949
0.724434 -1.063689 0.131072
0.770462 -1.106633 0.248729
0.784493 -1.109520 0.247735
0.701799 -1.053085 -0.031861
0.761214 -1.099722 0.342806
0.711734 -1.077505 0.473941
0.746696 -1.078137 0.094998
0.732687 -1.058687 0.044175
0.742481 -1.127002 0.724500
0.733271 -1.088492 0.302876
0.707693 -1.069249 0.079010
0.787423 -1.130127 0.766589
0.754662 -1.150050 0.737301
0.773665 -1.162513 0.793240
0.751546 -1.081297 0.205031
0.698766 -1.044571 0.010291
0.747827 -1.078144 0.096065
0.718895 -1.053285 -0.002741
0.686658 -1.052550 0.092198
0.703471 -1.082277 0.262938
0.711688 -1.097925 0.235803
0.707868 -1.070331 0.086087
0.734951 -1.077448 0.485114
0.757682 -1.131177 0.752607
0.691015 -1.049344 -0.016712
0.786772 -1.175009 0.849214
0.770064 -1.130474 0.603642
0.720730 -1.096892 0.238864
0.722844 -1.057127 0.077290
0.750444 -1.102165 0.376897
0.727190 -1.113848 0.516727
0.663974 -1.034438 -0.026596
0.717768 -1.072137 0.167139
0.728742 -1.122136 0.729667
0.704293 -1.106551 0.473772
0.748222 -1.126166 0.560672
0.709077 -1.049477 0.007389
0.712099 -1.077580 0.482123
0.690069 -1.069634 0.472157
0.729879 -1.100869 0.242905
0.739879 -1.098764 0.239955
0.682842 -1.055998 0.130274
0.659160 -1.041449 -0.029624
0.718616 -1.090956 0.336011
0.670126 -1.066683 0.463167
0.695851 -1.110100 0.704780
0.706101 -1.071419 0.092185
0.691072 -1.050013 0.044382
0.669114 -1.064553 0.079185
0.692704 -1.082738 0.298060
0.749928 -1.131216 0.752705
0.711140 -1.144208 0.725492
0.711939 -1.074552 0.201214
0.725076 -1.147619 0.773507
0.660191 -1.039892 0.011467
0.707216 -1.070426 0.093258
0.681331 -1.050587 -0.002586
0.651128 -1.052844 0.093333
0.660897 -1.073545 0.258157
0.672097 -1.091193 0.232995
0.663214 -1.055659 0.084351
0.709031 -1.111248 0.728910
0.735521 -1.131632 0.596751
0.695388 -1.071599 0.473294
0.741186 -1.163091 0.829447
0.706792 -1.088376 0.367141
0.687288 -1.056397 0.076424
0.678115 -1.086161 0.234092
0.654448 -1.046654 -0.015555
0.684603 -1.104032 0.505948
0.675133 -1.060433 0.164373
0.685138 -1.109238 0.711911
0.626413 -1.030780 -0.023422
0.706628 -1.117339 0.549878
0.670480 -1.065740 0.469356
0.669457 -1.041787 0.006591
0.659717 -1.095767 0.464017
0.653503 -1.065804 0.463326
0.688272 -1.092123 0.237117
0.698269 -1.090006 0.233165
0.647277 -1.054272 0.129426
0.679020 -1.084189 0.330204
0.634566 -1.063870 0.456328
0.659299 -1.107244 0.694939
0.666499 -1.064714 0.090380
0.621590 -1.037797 -0.026447
0.653478 -1.045320 0.044558
0.699272 -1.109277 0.726031
0.630512 -1.057867 0.079383
0.653116 -1.075988 0.293257
0.672307 -1.065819 0.197419
0.662540 -1.127344 0.706787
0.682492 -1.137740 0.757727
0.624595 -1.036201 0.012633
0.664575 -1.058726 0.089493
0.641701 -1.041915 -0.002377
0.610498 -1.042166 0.092566
0.690862 -1.115785 0.581013
0.629461 -1.078477 0.228245
0.630672 -1.057931 0.084462
0.618281 -1.061839 0.254402
0.674512 -1.112369 0.718026
0.695568 -1.148181 0.808706
0.652780 -1.059769 0.459530
0.672237 -1.088598 0.363263
0.648658 -1.048704 0.075618
0.636478 -1.074437 0.229327
0.614810 -1.036998 -0.014336
0.635496 -1.050721 0.161587
0.643532 -1.097354 0.695145
0.641990 -1.092244 0.496185
0.666012 -1.107522 0.539088
0.588791 -1.023125 -0.021219
0.634904 -1.061915 0.460514
0.614893 -1.055990 0.453536
0.635902 -1.042062 0.005709
0.646638 -1.080388 0.231343
0.658666 -1.082255 0.227354
0.620155 -1.088993 0.457208
0.610678 -1.048563 0.128602
0.643452 -1.081414 0.325348
0.619698 -1.096370 0.680159
0.599994 -1.060071 0.450485
0.583961 -1.029140 -0.024241
0.626885 -1.056019 0.088582
0.618894 -1.042612 0.044704
0.661751 -1.106382 0.711179
0.591882 -1.048189 0.079597
0.614521 -1.068241 0.288452
0.632665 -1.055095 0.193634
0.642936 -1.130881 0.744914
0.630006 -1.056993 0.087630
0.624005 -1.122503 0.695960
0.584965 -1.025548 0.013859
0.607105 -1.038212 -0.002221
0.651235 -1.104950 0.569226
0.571864 -1.031489 0.092792
0.593877 -1.073734 0.225413
0.657997 -1.142295 0.794876
0.636954 -1.106478 0.703201
0.634610 -1.079817 0.356458
0.617192 -1.053935 0.449701
0.592061 -1.049244 0.083669
0.612027 -1.040999 0.074807
0.581718 -1.057104 0.251577
0.603943 -1.075672 0.226442
0.576152 -1.025350 -0.012104
0.602943 -1.050982 0.160708
0.604943 -1.087464 0.679358
0.604415 -1.085434 0.487373
0.625410 -1.096699 0.527310
0.584349 -1.057175 0.448647
0.600278 -1.035356 0.004890
0.599353 -1.058093 0.451675
0.552197 -1.016466 -0.019024
0.614085 -1.080611 0.227463
0.624092 -1.079483 0.222499
0.600781 -1.064677 0.318624
0.584114 -1.089503 0.668345
0.581598 -1.082217 0.450404
0.573082 -1.040857 0.126803
0.588216 -1.043321 0.086818
0.563410 -1.052261 0.441686
0.582274 -1.034924 0.044899
0.547338 -1.020481 -0.022030
0.621156 -1.094475 0.692409
0.599085 -1.052341 0.190781
0.573883 -1.054504 0.282707
0.555275 -1.040501 0.079799
0.592370 -1.047277 0.084841
0.600329 -1.116000 0.727178
0.551364 -1.020852 0.015030
0.569473 -1.028536 -0.002005
0.584443 -1.113667 0.684174
0.615646 -1.099112 0.559398
0.594310 -1.088570 0.682487
0.615369 -1.126400 0.776143
0.599017 -1.074036 0.350633
0.557261 -1.065005 0.222622
0.540351 -1.033765 0.092909
0.556442 -1.041538 0.082868
0.584652 -1.053105 0.441834
0.578450 -1.038276 0.073958
0.545128 -1.049364 0.247782
0.565309 -1.063936 0.221677
0.571380 -1.083607 0.669518
0.569357 -1.047244 0.158869
0.541569 -1.020666 -0.010927
0.589797 -1.088888 0.519501
0.570867 -1.083643 0.482519
0.561711 -1.045272 0.440915
0.564655 -1.027655 0.004087
0.548774 -1.050361 0.439841
0.517574 -1.008806 -0.015820
0.585465 -1.068736 0.216723
0.575477 -1.070876 0.222682
0.549528 -1.082657 0.658534
0.570250 -1.066895 0.315731
0.530810 -1.046457 0.435865
0.537458 -1.032150 0.126013
0.545016 -1.074433 0.443609
0.555652 -1.041582 0.084964
0.546627 -1.025232 0.045114
0.512702 -1.011821 -0.018819
0.563453 -1.043607 0.187984
0.583594 -1.086585 0.676610
0.542328 -1.053745 0.280844
0.519657 -1.031811 0.080013
0.557773 -1.041544 0.082022
0.580026 -1.090279 0.549598
0.534833 -1.019841 -0.001799
0.562765 -1.108151 0.715382
0.516762 -1.014170 0.016227
0.545871 -1.103829 0.672401
0.562366 -1.062248 0.342862
0.558712 -1.079689 0.668692
0.579788 -1.119522 0.763330
0.525709 -1.064252 0.220762
0.543810 -1.029555 0.072162
0.549064 -1.045283 0.432034
0.523858 -1.037813 0.082034
0.504726 -1.024075 0.093134
0.537789 -1.076734 0.657706
0.530724 -1.058197 0.218863
0.535754 -1.041511 0.157050
0.554201 -1.081071 0.510701
0.507523 -1.038648 0.245021
0.507957 -1.013979 -0.009732
0.534280 -1.074838 0.473734
0.528147 -1.040458 0.433092
0.529035 -1.018960 0.003298
0.514171 -1.041545 0.431053
0.551892 -1.064967 0.211887
0.538844 -1.060130 0.217909
0.484988 -1.004124 -0.013638
0.516942 -1.076800 0.648716
0.534622 -1.057136 0.310948
0.496213 -1.037654 0.428081
0.504884 -1.028426 0.125184
0.513015 -1.018530 0.045307
0.520038 -1.032872 0.083178
0.510478 -1.070659 0.438786
0.529841 -1.036862 0.185174
0.548018 -1.078696 0.661811
0.480117 -1.007141 -0.016635
0.506728 -1.045002 0.277062
0.488088 -1.029094 0.080176
0.521113 -1.028831 0.079267
0.547451 -1.086450 0.541759
0.526177 -1.098290 0.702606
0.499192 -1.009171 -0.000566
0.484132 -1.006475 0.017430
0.531790 -1.060459 0.339005
0.543182 -1.108637 0.748556
0.525158 -1.074819 0.656869
0.507303 -1.092999 0.660645
0.512219 -1.025826 0.071327
0.516477 -1.039454 0.423217
0.489084 -1.052523 0.217009
0.489243 -1.029109 0.081251
0.469105 -1.013392 0.093375
0.505240 -1.072880 0.647877
0.498128 -1.052435 0.215049
0.502136 -1.033782 0.155253
0.522648 -1.079259 0.504849
0.474315 -1.004295 -0.008508
0.474953 -1.033898 0.242205
0.501717 -1.071048 0.468904
0.497565 -1.036635 0.426256
0.484577 -1.037726 0.425215
0.499435 -1.016220 0.002451
0.513213 -1.048221 0.205171
0.482319 -1.064933 0.635956
0.502217 -1.048380 0.212153
0.500000 -1.047363 0.305170
0.451357 -0.994454 -0.011408
0.464600 -1.029842 0.421284
0.491465 -1.010279 0.001529
0.491456 -1.032120 0.082314
0.481404 -1.012816 0.045493
0.470265 -1.018722 0.124413
0.497215 -1.029114 0.182374
0.513442 -1.070817 0.648016
0.472876 -1.057874 0.430049
0.448502 -1.000455 -0.014435
0.471103 -1.033254 0.272309
0.512805 -1.074610 0.530992
0.454473 -1.020397 0.080398
0.492549 -1.029070 0.077396
0.497126 -1.047675 0.332248
0.490590 -1.088439 0.690834
0.468603 -1.005455 -0.000395
0.451503 -0.997785 0.018648
0.512637 -1.107784 0.740695
0.466661 -1.004286 -0.018378
0.494626 -1.073963 0.648012
0.479595 -1.018109 0.070532
0.456460 -1.043777 0.214225
0.483902 -1.033641 0.415406
0.470725 -1.082160 0.648889
0.454570 -1.015409 0.080512
0.472649 -1.065011 0.636082
0.440543 -1.012655 0.093521
0.464502 -1.042687 0.211275
0.490052 -1.072440 0.497043
0.467475 -1.021066 0.153504
0.443705 -0.998592 -0.007318
0.443364 -1.028155 0.240399
0.463944 -1.025811 0.416489
0.466104 -1.059247 0.460153
0.449946 -1.024921 0.416470
0.465802 -1.006518 0.001677
0.454762 -1.065100 0.631086
0.482640 -1.045449 0.201330
0.470589 -1.040616 0.208354
0.467392 -1.039591 0.300377
0.437033 -1.029045 0.418426
0.421755 -0.989756 -0.009225
0.459849 -1.003572 0.001726
0.438632 -1.009997 0.123629
0.446752 -1.000121 0.044749
0.452773 -1.013434 0.079628
0.464604 -1.021372 0.179582
0.481893 -1.066940 0.636187
0.441307 -1.053098 0.426235
0.482213 -1.069775 0.523166
0.415889 -0.991784 -0.012208
0.441517 -1.029483 0.269480
0.457894 -1.016351 0.074649
0.423873 -1.014680 0.080591
0.464505 -1.038902 0.327463
0.436968 -0.996750 -0.000178
0.459025 -1.083593 0.682017
0.469925 -1.079856 0.716087
0.420890 -0.991083 0.019851
0.432996 -0.991610 -0.017123
0.461030 -1.064084 0.634239
0.446957 -1.008397 0.069758
0.425861 -1.038031 0.212418
0.451315 -1.025823 0.406618
0.443075 -1.061165 0.628252
0.425001 -1.012675 0.079680
0.438167 -1.076336 0.641087
0.458452 -1.065628 0.490240
0.433917 -1.037930 0.208459
0.406895 -0.999964 0.093783
0.436890 -1.016323 0.151688
0.410114 -0.984578 -0.039048
0.414122 -0.994885 -0.006140
0.434372 -1.022001 0.410663
0.433141 -0.994812 0.000921
0.426192 -1.062258 0.624247
0.434528 -1.053451 0.454348
0.409767 -1.018423 0.237639
0.421391 -1.023114 0.411627
0.450009 -1.035687 0.196555
0.438990 -1.033857 0.204556
0.434755 -1.028823 0.295613
0.406431 -1.021235 0.411638
0.429217 -0.995861 0.001934
0.392181 -0.986063 -0.007042
0.423146 -1.006699 0.078825
0.434977 -1.014608 0.176776
0.409027 -1.004261 0.122822
0.419166 -0.998394 0.045903
0.453613 -1.065949 0.517329
0.449327 -1.060078 0.624391
0.385315 -0.978584 -0.059952
0.408729 -1.045315 0.420456
0.386273 -0.985090 -0.010003
0.409917 -1.021733 0.266696
0.427297 -1.010615 0.072843
0.393242 -1.005967 0.080814
0.434897 -1.033109 0.322649
0.443395 -1.083034 0.713192
0.409406 -0.996007 -0.001030
0.425437 -1.073747 0.671251
0.403374 -0.984905 -0.015921
0.430439 -1.057219 0.623438
0.389263 -0.981394 0.021087
0.415305 -0.997680 0.068994
0.422734 -1.021997 0.399789
0.413486 -1.055313 0.619443
0.393224 -1.026294 0.209671
0.394358 -1.002952 0.078909
0.427877 -1.060824 0.484425
0.403287 -1.029177 0.205678
0.406605 -1.070520 0.634288
0.406244 -1.006583 0.149914
0.376305 -0.993254 0.093995
0.381514 -0.979880 -0.036860
0.382469 -0.983199 -0.004889
0.393801 -1.019304 0.406799
0.404786 -1.016186 0.403856
0.403921 -1.045651 0.448560
0.392554 -1.047400 0.611527
0.404552 -0.991078 0.000096
0.419418 -1.029924 0.192750
0.380203 -1.014684 0.236823
0.411439 -1.034090 0.202695
0.407180 -1.027051 0.293767
0.378860 -1.018436 0.407805
0.396532 -0.981159 0.001208
0.407387 -1.011843 0.174938
0.395588 -1.005953 0.077975
0.363589 -0.981365 -0.004850
0.389555 -0.991667 0.045107
0.380445 -1.000532 0.123002
0.423001 -1.058124 0.509536
0.418758 -1.054205 0.612586
0.357751 -0.976893 -0.056786
0.359695 -0.983366 -0.008842
0.380315 -1.014972 0.263902
0.407308 -1.030325 0.319811
0.376124 -1.034537 0.414705
0.395657 -0.999893 0.071083
0.363639 -0.999250 0.081024
0.408716 -1.064128 0.695500
0.379782 -0.988295 -0.000816
0.396899 -1.072928 0.666403
0.397827 -1.045354 0.610690
0.388691 -0.993926 0.068163
0.375809 -0.983179 -0.015758
0.360664 -0.975675 0.021286
0.383883 -1.047456 0.609654
0.366657 -1.025534 0.208820
0.390121 -1.010180 0.390043
0.398284 -1.055016 0.478618
0.366794 -1.001220 0.079072
0.372646 -1.018418 0.201919
0.378649 -1.002834 0.149090
0.373037 -1.060706 0.625535
0.354852 -0.977482 -0.003693
0.350770 -0.995516 0.095123
0.365973 -1.044561 0.605690
0.351886 -0.971194 -0.034632
0.360107 -0.999486 0.396124
0.377220 -1.013369 0.398025
0.374887 -0.980365 0.000333
0.389796 -1.022157 0.188960
0.374352 -1.040858 0.443751
0.376526 -1.015276 0.289015
0.379798 -1.022330 0.197947
0.351608 -1.008930 0.235023
0.349211 -1.006627 0.401054
0.371994 -0.984407 0.001321
0.378752 -1.004090 0.173147
0.395407 -1.054299 0.503706
0.366971 -0.999209 0.076180
0.334938 -0.971669 -0.002616
0.360954 -0.985946 0.045306
0.351850 -0.994796 0.122202
0.388186 -1.047348 0.601794
0.375632 -1.015537 0.313085
0.332164 -0.975177 -0.054625
0.371091 -1.001115 0.069210
0.330062 -0.973680 -0.006602
0.350711 -1.007215 0.261122
0.382194 -1.066304 0.691624
0.337056 -0.996512 0.081195
0.347575 -1.031762 0.411883
0.353194 -0.985561 -0.000647
0.372285 -1.046509 0.604818
0.365293 -1.062078 0.655649
0.362130 -0.993178 0.067315
0.347183 -0.975474 -0.014542
0.337146 -0.980927 0.022385
0.355303 -1.041606 0.600851
0.337014 -1.014781 0.206064
0.364569 -1.010360 0.385183
0.368664 -1.046202 0.471839
0.338145 -0.991488 0.078305
0.346087 -1.017661 0.201073
0.349030 -0.994096 0.147318
0.339398 -1.041737 0.600858
0.329272 -0.975743 -0.003532
0.336596 -1.004682 0.394221
0.326306 -0.969468 -0.033470
0.344516 -1.059907 0.621697
0.349636 -1.008557 0.392213
0.322185 -0.989798 0.095330
0.349359 -0.982616 -0.000538
0.362223 -1.019389 0.186131
0.344767 -1.034070 0.438964
0.351189 -1.015570 0.195153
0.323626 -1.003830 0.398222
0.349986 -1.015504 0.287161
0.323041 -1.004182 0.233222
0.352168 -1.001325 0.171315
0.366774 -1.045466 0.495922
0.344398 -0.979684 0.001511
0.338366 -0.992479 0.075390
0.334345 -0.981211 0.045493
0.309364 -0.969942 -0.001451
0.324247 -0.989066 0.122404
0.358611 -1.040488 0.591004
0.351087 -1.017746 0.311206
0.344537 -1.000359 0.067365
0.305486 -0.972945 -0.005449
0.351568 -1.054437 0.679876
0.303554 -0.967502 -0.051398
0.326197 -1.011451 0.261232
0.309430 -0.988786 0.081413
0.318000 -1.024990 0.408101
0.324551 -0.975848 -0.000411
0.343720 -1.041672 0.597011
0.335704 -1.054247 0.647870
0.334497 -0.985440 0.066529
0.323628 -0.977719 -0.014419
0.328709 -1.036765 0.594037
0.311557 -0.978188 0.022557
0.340052 -1.038395 0.466054
0.310440 -1.012029 0.205239
0.335981 -1.003551 0.378394
0.311575 -0.988745 0.077481
0.323439 -0.991338 0.146486
0.317479 -1.009906 0.198294
0.311791 -1.033886 0.592074
0.319965 -0.993736 0.383491
0.311018 -1.001878 0.390392
0.323740 -0.977867 -0.001354
0.301678 -0.970036 -0.002325
0.301759 -0.970737 -0.032330
0.333598 -1.010612 0.181356
0.293544 -0.979081 0.095580
0.314958 -1.054101 0.615907
0.324379 -1.011725 0.285336
0.297017 -0.997025 0.393430
0.317187 -1.029280 0.435157
0.324614 -1.012797 0.192326
0.341206 -1.044654 0.492070
0.325566 -0.996564 0.169503
0.316745 -0.969953 0.000744
0.296500 -1.003440 0.233385
0.313788 -0.991718 0.074541
0.307748 -0.976481 0.045686
0.298649 -0.985322 0.122584
0.284833 -0.972222 0.000683
0.325496 -1.014957 0.308373
0.330017 -1.032626 0.580222
0.329043 -1.060619 0.678957
0.314862 -0.986631 0.065637
0.277947 -0.962792 -0.049205
0.284859 -0.988038 0.081568
0.279918 -0.971234 -0.003279
0.297572 -1.001694 0.258473
0.299978 -0.975105 -0.000257
0.316113 -1.033812 0.587226
0.309151 -1.052426 0.643035
0.290442 -1.021215 0.405292
0.296990 -0.970003 -0.013202
0.301106 -1.028916 0.585255
0.308939 -0.984691 0.065687
0.284925 -0.970471 0.023776
0.313457 -1.033586 0.461242
0.310419 -1.001740 0.373557
0.284884 -1.011271 0.204398
0.291883 -1.006137 0.196474
0.285993 -0.986006 0.077657
0.298892 -0.992585 0.146625
0.285184 -1.027060 0.586282
0.284414 -0.995077 0.385603
0.295443 -0.995938 0.380623
0.278107 -0.970296 -0.001180
0.275129 -0.963035 -0.030109
0.296138 -0.971142 -0.002139
0.286357 -1.045281 0.609140
0.268991 -0.979346 0.096731
0.272458 -0.996238 0.391587
0.306034 -1.006854 0.178546
0.296793 -1.005960 0.282541
0.296998 -1.005037 0.189546
0.313576 -1.035832 0.485293
0.289603 -1.023494 0.431362
0.302002 -0.997790 0.168635
0.293185 -0.971203 0.000879
0.267849 -0.990689 0.230656
0.287184 -0.985979 0.073744
0.284176 -0.976728 0.045829
0.275146 -0.990566 0.122691
0.299915 -1.012172 0.305545
0.261305 -0.975486 0.001808
0.303473 -1.030801 0.574390
0.300429 -1.050764 0.669194
0.292311 -0.989857 0.064751
0.253346 -0.959077 -0.047020
0.255330 -0.968506 -0.002102
0.271986 -0.997925 0.256658
0.259271 -0.984312 0.082756
0.275398 -0.973365 -0.000091
0.288518 -1.025958 0.577447
0.276534 -1.027086 0.580416
0.280553 -1.043606 0.636269
0.284355 -0.982946 0.065850
0.261358 -0.970732 0.024923
0.286834 -1.025771 0.455458
0.259798 -1.005432 0.398598
0.269372 -0.961292 -0.012966
0.258264 -1.003516 0.202620
0.281789 -0.989929 0.365817
0.262425 -0.986253 0.077802
0.273277 -0.986834 0.145825
0.266296 -1.002374 0.194660
0.260590 -1.023232 0.581461
0.302679 -1.067096 0.704129
0.258803 -0.988271 0.380813
0.270876 -0.994133 0.376788
0.253522 -0.967559 -0.001003
0.252575 -0.965292 -0.028980
0.269477 -0.960409 -0.002893
0.272175 -1.001180 0.280727
0.247844 -0.990433 0.387786
0.280418 -1.001080 0.175743
0.271372 -0.998263 0.186753
0.287987 -1.032017 0.480473
0.265039 -1.022706 0.429518
0.277407 -0.995028 0.167806
0.245480 -0.983605 0.097850
0.257790 -1.038486 0.604364
0.269661 -0.974447 0.000004
0.242273 -0.986936 0.229846
0.259586 -0.973997 0.047005
0.260567 -0.978234 0.071968
0.275297 -1.007381 0.302730
0.248515 -0.981839 0.122924
0.234626 -0.962786 0.004075
0.273815 -1.042918 0.661411
0.275885 -1.022940 0.563614
0.265704 -0.983113 0.062966
0.246383 -0.992159 0.254862
0.229813 -0.961358 -0.044882
0.235735 -0.986563 0.082890
0.230764 -0.966782 -0.000929
0.262932 -1.021120 0.570640
0.249906 -1.017248 0.572655
0.249792 -0.967638 0.000114
0.259755 -0.979193 0.065032
0.255011 -1.042794 0.632431
0.262283 -1.025982 0.453606
0.247857 -0.967531 -0.012872
0.236273 -1.008670 0.399723
0.236790 -0.969006 0.026095
0.232637 -0.995755 0.200842
0.235970 -1.016387 0.574668
0.256207 -0.985127 0.361014
0.248681 -0.983077 0.145009
0.238617 -0.987611 0.190946
0.238877 -0.987494 0.076944
0.236259 -0.990472 0.378941
0.245270 -0.987331 0.372001
0.261336 -1.021195 0.473716
0.229950 -0.966826 0.000157
0.223239 -0.984633 0.383989
0.227970 -0.960570 -0.027784
0.247978 -0.967638 -0.003807
0.245555 -0.992403 0.276960
0.255873 -1.001302 0.172895
0.245780 -0.993504 0.184950
0.251802 -0.989270 0.166010
0.233282 -0.994884 0.417928
0.220913 -0.981876 0.099023
0.245011 -0.966709 0.000219
0.232274 -1.039709 0.603513
0.238004 -0.979466 0.071104
0.234993 -0.970259 0.047192
0.248661 -0.997602 0.298969
0.217734 -0.987198 0.231005
0.244138 -1.024034 0.646736
0.224971 -0.983089 0.123068
0.211059 -0.962065 0.006238
0.250341 -1.021116 0.557786
0.241098 -0.978354 0.061159
0.207132 -0.961060 0.001272
0.219760 -0.982398 0.252109
0.211134 -0.981825 0.083088
0.236302 -1.010266 0.560889
0.204170 -0.951659 -0.042636
0.226366 -1.018437 0.569795
0.226197 -0.964895 0.000290
0.236184 -0.978436 0.064190
0.235631 -1.014165 0.446862
0.229438 -1.038987 0.628619
0.224261 -0.964800 -0.011696
0.249375 -1.044346 0.682618
0.209032 -0.991990 0.200025
0.212382 -1.013577 0.571841
0.212203 -0.965283 0.027287
0.209689 -1.001900 0.396947
0.232661 -0.985321 0.357165
0.226144 -0.986317 0.145131
0.217161 -0.998850 0.192000
0.213268 -0.980767 0.077163
0.210628 -0.981678 0.374182
0.221674 -0.984528 0.368181
0.237741 -1.019383 0.469883
0.200663 -0.984851 0.383143
0.205316 -0.960098 0.000378
0.224385 -0.965891 -0.004634
0.203346 -0.954865 -0.025570
0.221998 -0.993647 0.277109
0.221182 -0.989733 0.182143
0.228196 -0.987549 0.169180
0.228231 -0.989511 0.165165
0.210795 -1.003131 0.420016
0.196301 -0.977152 0.100227
0.221458 -0.967964 -0.000631
0.203647 -1.026899 0.595798
0.225043 -0.993815 0.296154
0.212408 -0.970510 0.047344
0.214446 -0.980726 0.071253
0.223653 -1.036276 0.651775
0.192147 -0.982458 0.230214
0.200359 -0.978355 0.123270
0.188514 -0.965333 0.007369
0.217529 -0.978605 0.060314
0.223739 -1.013282 0.549016
0.201732 -1.010605 0.563016
0.197225 -0.986648 0.253228
0.181576 -0.950939 -0.040473
0.212777 -1.013475 0.559017
0.183581 -0.962339 0.002425
0.203612 -0.965151 0.000441
0.187577 -0.983097 0.084237
0.211021 -1.009380 0.444058
0.212589 -0.976687 0.063360
0.223740 -1.035495 0.673847
0.188746 -1.006747 0.566050
0.203850 -1.034180 0.623820
0.201687 -0.966058 -0.011554
0.183350 -0.979232 0.197296
0.187571 -0.958558 0.027506
0.184083 -0.995131 0.394169
0.200487 -0.976581 0.144375
0.191473 -0.986092 0.189268
0.208085 -0.982535 0.353347
0.188609 -0.972027 0.076395
0.188032 -0.978879 0.371349
0.213134 -1.013575 0.465078
0.179084 -0.985053 0.381281
0.197079 -0.978729 0.363383
0.201800 -0.965135 -0.005483
0.198396 -0.989872 0.275287
0.205636 -0.988772 0.167313
0.203569 -0.979751 0.163395
0.180779 -0.955123 -0.025423
0.182806 -0.965366 0.001484
0.198668 -0.994977 0.182245
0.186219 -0.999348 0.417201
0.172714 -0.974412 0.100403
0.196833 -0.961237 -0.000421
0.202448 -0.992029 0.294310
0.191873 -0.980967 0.070396
0.188817 -0.967772 0.047518
0.178102 -1.024115 0.592980
0.197001 -1.022418 0.641047
0.175707 -0.968611 0.122508
0.168610 -0.983720 0.231358
0.162843 -0.952637 0.009640
0.193964 -0.977847 0.058471
0.197138 -1.003442 0.539258
0.177133 -1.003776 0.556227
0.187147 -1.002635 0.550263
0.200136 -1.030648 0.667029
0.162913 -0.972367 0.084484
0.173652 -0.984898 0.253395
0.161014 -0.962606 0.003573
0.159009 -0.951220 -0.038323
0.180013 -0.961407 -0.000375
0.187943 -0.967947 0.062587
0.185406 -1.000587 0.439289
0.165172 -1.003948 0.563224
0.178050 -0.959323 -0.011346
0.178269 -1.028385 0.620025
0.161880 -0.989489 0.199356
0.164993 -0.957824 0.028663
0.178936 -0.979819 0.144490
0.168894 -0.985327 0.188422
0.183472 -0.974729 0.347567
0.189494 -1.005751 0.459288
0.165453 -0.977094 0.369512
0.165024 -0.969290 0.076573
0.158512 -0.989363 0.391382
0.174475 -0.974933 0.360561
0.154464 -0.976267 0.377514
0.174768 -0.983091 0.272494
0.178202 -0.961393 -0.006298
0.159140 -0.955632 0.001720
0.181001 -0.979988 0.162540
0.175057 -0.990211 0.180434
0.183126 -0.994010 0.166417
0.157159 -0.949413 -0.023218
0.162608 -0.993559 0.414401
0.178819 -0.985247 0.291515
0.174231 -0.958485 -0.001249
0.148115 -0.968695 0.101614
0.168251 -0.975219 0.069596
0.166238 -0.967027 0.047674
0.173425 -1.019605 0.637219
0.152528 -1.018335 0.590192
0.153110 -0.965862 0.122681
0.170305 -0.969099 0.057695
0.145031 -0.980975 0.231538
0.141334 -0.958899 0.010737
0.172564 -0.998626 0.533455
0.154555 -1.001970 0.553389
0.176547 -1.026824 0.662208
0.163569 -0.998810 0.544447
0.135081 -0.940648 0.082929
0.150063 -0.981142 0.252582
0.157425 -0.959667 -0.000209
0.142543 -0.997124 0.558429
0.137363 -0.953895 0.005805
0.135361 -0.942513 -0.036090
0.162843 -1.000807 0.438435
0.164324 -0.962211 0.062790
0.153680 -1.022575 0.615230
0.154467 -0.956604 -0.010165
0.139283 -0.986726 0.198529
0.142350 -0.951091 0.029872
0.155332 -0.975069 0.143685
0.146320 -0.984565 0.187578
0.165871 -0.998951 0.455495
0.143894 -0.978301 0.367648
0.160908 -0.973938 0.344724
0.142404 -0.964544 0.076764
0.132829 -0.970464 0.374708
0.134962 -0.988609 0.391546
0.150911 -0.972142 0.356741
0.152194 -0.982333 0.272650
0.154576 -0.954653 -0.007085
0.157411 -0.976228 0.160727
0.134479 -0.943923 0.002984
0.134530 -0.943685 -0.022015
0.151477 -0.987450 0.178613
0.158528 -0.988249 0.163624
0.139014 -0.988784 0.412597
0.156268 -0.986488 0.291655
0.151633 -0.955745 -0.001074
0.125489 -0.962949 0.101816
0.150845 -1.017796 0.634381
0.140436 -0.945502 0.068022
0.142660 -0.964296 0.047856
0.127956 -1.013549 0.587393
0.129503 -0.960126 0.122890
0.154936 -1.023994 0.658370
0.121458 -0.978233 0.231721
0.131952 -0.997149 0.548579
0.145713 -0.963358 0.055907
0.113443 -0.921227 0.013240
0.148981 -0.993795 0.526649
0.139984 -0.993998 0.539643
0.119931 -0.991312 0.554630
0.112433 -0.931907 0.083162
0.139208 -0.992002 0.433663
0.114812 -0.946778 -0.033979
0.142735 -0.961448 0.061943
0.127516 -0.982388 0.252725
0.133804 -0.952939 0.000008
0.109457 -0.914215 0.007327
0.130087 -1.017778 0.612425
0.132878 -0.955857 -0.010009
0.116678 -0.982975 0.198715
0.144263 -0.996144 0.452661
0.119760 -0.948363 0.031053
0.131678 -0.965322 0.142925
0.122724 -0.979816 0.186778
0.120279 -0.970513 0.363874
0.111253 -0.969685 0.373865
0.119827 -0.962794 0.075935
0.137324 -0.969150 0.340923
0.129354 -0.973363 0.355880
0.111363 -0.982848 0.390756
0.128580 -0.975569 0.270866
0.132964 -0.951905 -0.006913
0.134772 -0.969469 0.159936
0.128872 -0.983682 0.176796
0.110733 -0.925205 0.004306
0.134894 -0.980491 0.161846
0.111944 -0.940962 -0.020832
0.132577 -0.972692 0.286927
0.128995 -0.949007 -0.000862
0.115448 -0.986022 0.411781
0.101844 -0.953227 0.103063
0.127248 -1.011979 0.629585
0.117798 -0.937752 0.067245
0.116835 -0.935574 0.047269
0.103388 -1.008776 0.585599
0.106907 -0.956384 0.123080
0.130279 -1.010119 0.646646
0.109344 -0.991330 0.543782
0.123046 -0.953598 0.054144
0.097778 -0.964464 0.229001
0.091783 -0.912502 0.015472
0.099346 -0.991512 0.553770
0.124390 -0.985978 0.519880
0.117389 -0.989170 0.533837
0.116583 -0.985199 0.429873
0.090807 -0.926168 0.084367
0.088834 -0.910480 0.009511
0.104916 -0.978637 0.252913
0.120147 -0.958700 0.061123
0.107985 -0.924232 0.000425
0.087911 -0.908124 -0.029463
0.095102 -0.983218 0.198863
0.105454 -1.005946 0.604689
0.121647 -0.990340 0.448862
0.105998 -0.920170 -0.008528
0.097168 -0.944629 0.031245
0.089628 -0.963898 0.372066
0.100106 -0.974051 0.184983
0.098685 -0.967726 0.362049
0.106979 -0.948578 0.141236
0.095043 -0.938064 0.075316
0.114759 -0.967365 0.338095
0.105735 -0.964568 0.351117
0.106999 -0.974797 0.270023
0.086783 -0.976092 0.388985
0.112163 -0.964714 0.159132
0.109365 -0.946174 -0.007699
0.106304 -0.982927 0.175959
0.088097 -0.916473 0.004545
0.089243 -0.927239 -0.019553
0.109965 -0.966911 0.284132
0.111294 -0.974728 0.159057
0.092840 -0.980233 0.408987
0.105309 -0.935274 -0.001581
0.104628 -1.005157 0.624795
0.095127 -0.925996 0.065506
0.095196 -0.928828 0.047482
0.079317 -0.955501 0.104206
0.108691 -1.008305 0.643807
0.084264 -0.947644 0.123316
0.086714 -0.982506 0.538014
0.079838 -1.007006 0.584776
0.097207 -0.921871 0.052589
0.076717 -0.982698 0.549004
0.074099 -0.949710 0.227296
0.070177 -0.907772 0.016675
0.094786 -0.983356 0.529042
0.101839 -0.985174 0.516043
0.093995 -0.981420 0.428062
0.073502 -0.958402 0.086224
0.082274 -0.969869 0.251146
0.097499 -0.949953 0.060357
0.086361 -0.918491 0.000632
0.100039 -0.986539 0.446043
0.067251 -0.907752 0.010698
0.066285 -0.901398 -0.028242
0.072477 -0.976464 0.198080
0.081858 -0.999148 0.600909
0.084441 -0.920432 -0.008369
0.069078 -0.967133 0.373187
0.077454 -0.964288 0.183227
0.087533 -0.963827 0.143250
0.077114 -0.966953 0.361210
0.073388 -0.920915 0.032619
0.074587 -0.950320 0.076363
0.092187 -0.964583 0.335279
0.084166 -0.963786 0.349278
0.085419 -0.974038 0.270182
0.090533 -0.958942 0.157334
0.064208 -0.973337 0.389170
0.084512 -0.914462 -0.007256
0.067479 -0.912733 0.005732
0.082658 -0.972166 0.173216
0.089453 -0.974151 0.285218
0.088712 -0.971967 0.157239
0.067704 -0.929512 -0.018412
0.083051 -1.004366 0.623951
0.070236 -0.974458 0.407197
0.084759 -0.938524 -0.001457
0.073575 -0.923086 0.047691
0.075783 -0.950245 0.066447
0.054430 -0.917767 0.102712
0.056147 -0.983913 0.549141
0.064129 -0.977705 0.534216
0.062701 -0.947907 0.124472
0.076677 -0.926110 0.051708
0.055227 -0.996212 0.580042
0.049575 -0.905043 0.018857
0.072363 -0.974624 0.425274
0.072210 -0.979554 0.525235
0.052733 -0.970006 0.232279
0.078272 -0.980374 0.511250
0.048578 -0.916670 0.084766
0.073690 -0.923219 0.059754
0.059697 -0.967125 0.251333
0.077426 -0.979743 0.442261
0.046610 -0.901013 0.011915
0.064724 -0.910754 0.000861
0.050928 -0.978713 0.198216
0.059221 -0.989333 0.596153
0.045695 -0.899672 -0.026067
0.062791 -0.911704 -0.007132
0.047473 -0.962352 0.371386
0.063652 -0.929060 0.139717
0.055490 -0.960153 0.357426
0.052783 -0.918175 0.033799
0.055888 -0.964538 0.183382
0.051765 -0.922568 0.074770
0.062552 -0.957987 0.345485
0.069641 -0.963806 0.332449
0.062804 -0.967273 0.268402
0.068918 -0.954183 0.156532
0.067828 -0.968374 0.283423
0.062847 -0.903716 -0.008001
0.041620 -0.968576 0.388376
0.059971 -0.958398 0.170497
0.045870 -0.906998 0.005947
0.047094 -0.926775 -0.017232
0.060435 -0.996541 0.618177
0.066085 -0.964201 0.154468
0.060947 -0.910806 -0.001046
0.047665 -0.971705 0.407385
0.052939 -0.920493 0.064870
0.054163 -0.941336 0.048683
0.033782 -0.910024 0.103939
0.035517 -0.978094 0.545341
0.043579 -0.980932 0.535338
0.041072 -0.941163 0.124692
0.032631 -0.990430 0.578255
0.053983 -0.910363 0.050013
0.050802 -0.974859 0.425428
0.050619 -0.975746 0.521424
0.028969 -0.901307 0.020051
0.030102 -0.961266 0.232522
0.055772 -0.969930 0.437501
0.028009 -0.916930 0.085923
0.055672 -0.973558 0.505472
0.054280 -0.941459 0.059747
0.038078 -0.961363 0.250542
0.044085 -0.904008 0.001078
0.026065 -0.903279 0.013056
0.028249 -0.964956 0.196502
0.025079 -0.894950 -0.023864
0.026808 -0.952545 0.367626
0.036689 -0.990577 0.597305
0.043231 -0.914948 -0.007009
0.033835 -0.949358 0.353680
0.044303 -0.954323 0.142647
0.034251 -0.956772 0.181609
0.031136 -0.908440 0.034050
0.031165 -0.919818 0.074952
0.041008 -0.959220 0.344634
0.041252 -0.968520 0.268550
0.047021 -0.955013 0.327691
0.047357 -0.954437 0.156690
0.047283 -0.972618 0.284537
0.038344 -0.951633 0.168716
0.042253 -0.900963 -0.008817
0.038830 -0.991738 0.615374
0.019038 -0.963818 0.387585
0.025234 -0.900264 0.007168
0.044474 -0.959436 0.152668
0.025345 -0.907053 -0.015893
0.026019 -0.961907 0.403631
0.039302 -0.901064 -0.001794
0.032322 -0.915735 0.064070
0.014881 -0.971287 0.542554
0.032555 -0.936599 0.048887
0.013172 -0.905275 0.104142
0.021930 -0.970099 0.528592
0.019498 -0.939422 0.124871
0.029216 -0.972088 0.424611
0.033399 -0.908607 0.049188
0.028042 -0.970952 0.517632
0.008387 -0.899574 0.021229
0.035196 -0.970147 0.436650
0.009098 -0.989698 0.580434
0.008443 -0.950509 0.231780
0.007405 -0.913183 0.086117
0.016472 -0.956613 0.250745
0.033052 -0.963737 0.498723
0.031500 -0.916724 0.059133
0.007586 -0.956190 0.195735
0.023491 -0.901266 0.001264
0.006237 -0.952779 0.367780
0.005468 -0.892208 -0.022683
0.005435 -0.896547 0.014280
0.014108 -0.985797 0.595513
0.013247 -0.947583 0.352852
0.021586 -0.905218 -0.006755
0.021475 -0.923556 0.139088
0.012673 -0.955027 0.181787
0.010533 -0.913063 0.074173
0.010607 -0.912706 0.035174
0.020642 -0.965758 0.268727
0.019410 -0.954447 0.342838
0.025723 -0.946676 0.154920
0.025469 -0.955249 0.326850
0.025649 -0.964838 0.281764
0.016614 -0.932853 0.165045
0.017222 -0.985928 0.611583
0.021622 -0.894223 -0.008595
0.005624 -0.897511 0.007348
0.004704 -0.899323 -0.014661
-0.003524 -0.961073 0.387780
0.021888 -0.954686 0.150879
0.004447 -0.960149 0.403809
0.019698 -0.899312 -0.001624
-0.005739 -0.965483 0.539761
0.011774 -0.917990 0.064211
0.010684 -0.902857 0.048353
0.001276 -0.960277 0.523834
-0.007435 -0.900539 0.105349
-0.001097 -0.937682 0.126045
0.007567 -0.961283 0.419869
0.014594 -0.967366 0.435829
0.014021 -0.930851 0.049146
-0.011236 -0.909414 0.086299
-0.011252 -0.893841 0.023439
0.006457 -0.967160 0.514827
-0.012525 -0.981902 0.577664
-0.012125 -0.951762 0.232926
-0.013372 -0.951003 0.367946
-0.013238 -0.927393 0.191154
0.010813 -0.903970 0.058408
-0.013186 -0.894793 0.015446
-0.005128 -0.951858 0.249952
-0.014178 -0.885479 -0.020463
0.010525 -0.963966 0.496891
0.002884 -0.896518 0.000471
-0.007322 -0.947819 0.353008
-0.007457 -0.985027 0.595680
0.001918 -0.896467 -0.006521
-0.008162 -0.894941 0.035483
-0.007982 -0.946256 0.180023
0.000899 -0.922807 0.139256
-0.009123 -0.905307 0.074398
-0.001047 -0.950974 0.265022
-0.001177 -0.952665 0.341010
0.005129 -0.944924 0.155092
0.005019 -0.959059 0.279971
0.003859 -0.948462 0.323075
-0.003999 -0.928093 0.164248
-0.004336 -0.986167 0.612741
0.002006 -0.890464 -0.009404
-0.014002 -0.892762 0.007549
-0.014907 -0.896583 -0.013479
-0.024158 -0.954308 0.387999
-0.016152 -0.957383 0.403990
-0.025369 -0.960680 0.537954
0.000018 -0.919903 0.146354
-0.000907 -0.894565 -0.002416
-0.007938 -0.904227 0.063490
-0.018313 -0.960493 0.523982
-0.008943 -0.898104 0.048553
-0.027018 -0.900802 0.107505
-0.020912 -0.911907 0.124434
-0.012028 -0.961514 0.421016
-0.013156 -0.964348 0.512001
-0.006103 -0.952535 0.429118
-0.006548 -0.931090 0.047304
-0.030858 -0.891101 0.024623
-0.007833 -0.899196 0.057600
-0.033026 -0.943212 0.366169
-0.031859 -0.902682 0.087526
-0.033604 -0.952684 0.196082
-0.033698 -0.950028 0.234108
-0.035122 -0.974121 0.574906
-0.025754 -0.946103 0.250163
-0.032776 -0.894054 0.016612
-0.015744 -0.893757 0.000646
-0.010107 -0.956140 0.491118
-0.026910 -0.948037 0.352157
-0.028081 -0.979232 0.593887
-0.033800 -0.880752 -0.018258
-0.017689 -0.893719 -0.006338
-0.028574 -0.944506 0.180198
-0.018715 -0.920048 0.139436
-0.028747 -0.892213 0.036675
-0.020600 -0.956224 0.267125
-0.029710 -0.902567 0.074589
-0.014577 -0.959289 0.280118
-0.014516 -0.939145 0.153296
-0.021820 -0.943869 0.337249
-0.016726 -0.946684 0.321250
-0.023627 -0.923316 0.162445
-0.024958 -0.980361 0.609948
-0.017597 -0.887708 -0.010219
-0.033574 -0.894023 0.008697
-0.044966 -0.959897 0.538112
-0.034549 -0.889847 -0.012257
-0.019616 -0.914127 0.144562
-0.019552 -0.889805 -0.002222
-0.045755 -0.948549 0.387219
-0.037775 -0.948613 0.402238
-0.038954 -0.950669 0.518231
-0.028329 -0.921359 0.049498
-0.028514 -0.902479 0.062672
-0.047610 -0.897071 0.108707
-0.025637 -0.959785 0.432203
-0.032654 -0.954722 0.418236
-0.042366 -0.923192 0.126502
-0.034758 -0.957554 0.508229
-0.026482 -0.891326 0.045822
-0.050468 -0.887355 0.024819
-0.051440 -0.902930 0.087683
-0.053610 -0.941453 0.366347
-0.028138 -0.929461 0.058488
-0.054197 -0.950935 0.196257
-0.046336 -0.945359 0.251330
-0.052413 -0.887318 0.017836
-0.036108 -0.917010 -0.000402
-0.055317 -0.942290 0.234348
-0.047488 -0.947278 0.352324
-0.057673 -0.972387 0.577094
-0.031652 -0.956373 0.490282
-0.053369 -0.882018 -0.017108
-0.049682 -0.973459 0.593104
-0.037321 -0.887984 -0.005124
-0.038390 -0.909284 0.138692
-0.049195 -0.938750 0.179412
-0.048375 -0.886476 0.037890
-0.049339 -0.896818 0.074802
-0.035226 -0.950517 0.278357
-0.042220 -0.948473 0.266364
-0.035154 -0.931391 0.152529
-0.042441 -0.937085 0.334472
-0.045576 -0.974559 0.607158
-0.044193 -0.923570 0.162607
-0.038328 -0.939912 0.318480
-0.064571 -0.958117 0.538280
-0.037206 -0.883955 -0.011023
-0.054101 -0.898289 0.008825
-0.054177 -0.884114 -0.011041
-0.040191 -0.912366 0.142744
-0.058353 -0.947861 0.403405
-0.059492 -0.954918 0.520351
-0.067329 -0.945810 0.388414
-0.040886 -0.914063 -0.004270
-0.048144 -0.893606 0.048914
-0.049829 -0.930756 0.063582
-0.068924 -0.927371 0.112593
-0.046238 -0.956003 0.430396
-0.053249 -0.951960 0.418422
-0.061128 -0.903413 0.124838
-0.055339 -0.955768 0.506405
-0.046033 -0.894568 0.044953
-0.073205 -0.940684 0.366508
-0.070072 -0.884630 0.027008
-0.071082 -0.895183 0.087917
-0.074835 -0.943190 0.196492
-0.048789 -0.919716 0.057743
-0.066998 -0.933594 0.249604
-0.068108 -0.940505 0.350550
-0.056717 -0.912278 -0.000192
-0.078330 -0.960583 0.573365
-0.072979 -0.886596 0.019013
-0.076887 -0.940571 0.236535
-0.072978 -0.878287 -0.015909
-0.053248 -0.949574 0.485512
-0.071276 -0.967681 0.591325
-0.069752 -0.941004 0.179553
-0.058666 -0.912250 -0.006176
-0.058929 -0.912551 0.139827
-0.067990 -0.881732 0.038098
-0.055822 -0.947756 0.277544
-0.068957 -0.892071 0.075008
-0.062831 -0.943714 0.265570
-0.063050 -0.931313 0.332690
-0.055770 -0.925639 0.151746
-0.066157 -0.973795 0.608323
-0.085149 -0.957358 0.539448
-0.064781 -0.920819 0.161798
-0.059888 -0.938152 0.316666
-0.056828 -0.878206 -0.011806
-0.072855 -0.878540 0.009168
-0.079127 -0.948115 0.517569
-0.073808 -0.877384 -0.009814
-0.060799 -0.906617 0.141964
-0.060545 -0.905321 -0.004030
-0.079918 -0.946123 0.404591
-0.088888 -0.945082 0.390591
-0.069513 -0.919001 0.062850
-0.067799 -0.883863 0.049169
-0.065014 -0.933144 0.421757
-0.073828 -0.951209 0.419590
-0.087772 -0.894602 0.111061
-0.082577 -0.916709 0.127886
-0.092828 -0.935910 0.365710
-0.076913 -0.951997 0.504609
-0.066581 -0.895826 0.044111
-0.094452 -0.940434 0.196674
-0.090699 -0.890447 0.089125
-0.090629 -0.884909 0.028176
-0.067666 -0.884949 0.056223
-0.087732 -0.935731 0.349751
-0.091614 -0.881843 0.019214
-0.088513 -0.938874 0.251724
-0.074603 -0.878521 0.000275
-0.097496 -0.935826 0.236744
-0.090960 -0.953850 0.585610
-0.092563 -0.877557 -0.014737
-0.089411 -0.932242 0.178793
-0.100883 -0.957855 0.575567
-0.076530 -0.881502 -0.004738
-0.080342 -0.930844 0.142827
-0.074826 -0.944796 0.482727
-0.087559 -0.882998 0.039249
-0.088550 -0.890326 0.075188
-0.083425 -0.940965 0.265758
-0.075366 -0.924886 0.151910
-0.076460 -0.938990 0.275789
-0.083621 -0.930552 0.331861
-0.104778 -0.951565 0.537658
-0.084460 -0.908052 0.160079
-0.080490 -0.933384 0.314875
-0.076409 -0.877458 -0.012635
-0.092424 -0.879799 0.009320
-0.092485 -0.866647 -0.008552
-0.100669 -0.949380 0.519727
-0.078389 -0.876564 -0.003609
-0.080415 -0.901850 0.140170
-0.100508 -0.943367 0.404781
-0.110449 -0.944356 0.392768
-0.087367 -0.888224 0.061290
-0.087389 -0.882121 0.049349
-0.086456 -0.948455 0.428783
-0.094458 -0.942427 0.416837
-0.106449 -0.883857 0.112322
-0.112449 -0.931138 0.364913
-0.102213 -0.909963 0.128111
-0.097507 -0.948217 0.502808
-0.114114 -0.930675 0.195925
-0.085284 -0.882067 0.043398
-0.110273 -0.891710 0.090275
-0.109278 -0.878167 0.029399
-0.086306 -0.879195 0.056434
-0.107364 -0.928943 0.346974
-0.111207 -0.880113 0.020395
-0.109127 -0.933131 0.251944
-0.094186 -0.877783 0.000447
-0.099971 -0.926095 0.143030
-0.118129 -0.927086 0.236994
-0.109090 -0.919477 0.177075
-0.112170 -0.873840 -0.012535
-0.121527 -0.946057 0.571845
-0.096156 -0.874766 -0.004507
-0.096071 -0.936222 0.274972
-0.097329 -0.948057 0.482874
-0.103107 -0.928194 0.264039
-0.107179 -0.877269 0.040470
-0.108175 -0.883577 0.074417
-0.124383 -0.949800 0.538830
-0.095984 -0.918141 0.151141
-0.104201 -0.928802 0.332044
-0.106853 -0.927348 0.162074
-0.095060 -0.869702 -0.013402
-0.101089 -0.928619 0.313087
-0.112023 -0.877071 0.010512
-0.120294 -0.943582 0.516939
-0.112037 -0.869909 -0.008418
-0.121125 -0.936615 0.405011
-0.100994 -0.899107 0.139367
-0.098032 -0.866822 -0.004348
-0.105163 -0.933628 0.423074
-0.106978 -0.883476 0.060501
-0.106986 -0.879381 0.049541
-0.132039 -0.938617 0.392996
-0.115005 -0.946697 0.419958
-0.130161 -0.917323 0.361193
-0.127007 -0.884134 0.113491
-0.122794 -0.908238 0.129296
-0.118106 -0.943441 0.501018
-0.134700 -0.928936 0.196108
-0.128859 -0.878446 0.031561
-0.129893 -0.885970 0.090496
-0.126982 -0.924175 0.346179
-0.105851 -0.880331 0.042587
-0.106845 -0.881457 0.055585
-0.130794 -0.879385 0.021567
-0.128778 -0.924379 0.252189
-0.113783 -0.875047 0.000639
-0.131731 -0.877111 -0.011403
-0.129652 -0.920738 0.177229
-0.120569 -0.922360 0.143233
-0.138733 -0.922355 0.238208
-0.115746 -0.873031 -0.004324
-0.116650 -0.935486 0.276144
-0.122716 -0.925439 0.264224
-0.143061 -0.937977 0.534096
-0.118897 -0.945302 0.482072
-0.126770 -0.875540 0.041653
-0.127760 -0.882836 0.074589
-0.116545 -0.919404 0.151296
-0.124791 -0.925038 0.330247
-0.127450 -0.923604 0.161277
-0.139902 -0.940812 0.517123
-0.114640 -0.868959 -0.014228
-0.130660 -0.871325 0.010727
-0.121711 -0.919850 0.310339
-0.139823 -0.921811 0.401309
-0.132594 -0.870196 -0.007246
-0.117578 -0.871076 -0.005224
-0.120625 -0.891347 0.137606
-0.125749 -0.930875 0.423267
-0.126569 -0.881737 0.060683
-0.134652 -0.937917 0.418201
-0.150744 -0.922824 0.390305
-0.126589 -0.875645 0.049743
-0.150729 -0.917592 0.363357
-0.145657 -0.876392 0.114726
-0.153362 -0.921169 0.195336
-0.143364 -0.908513 0.130462
-0.138703 -0.938667 0.499229
-0.148525 -0.881220 0.090700
-0.125434 -0.879585 0.041760
-0.148471 -0.873722 0.032774
-0.144740 -0.901343 0.339553
-0.125489 -0.874709 0.055810
-0.149357 -0.923647 0.253362
-0.150401 -0.875660 0.022770
-0.133372 -0.873305 -0.000177
-0.150230 -0.920003 0.177403
-0.150388 -0.868380 -0.010156
-0.160267 -0.926660 0.242338
-0.162644 -0.940240 0.538229
-0.141180 -0.916629 0.143457
-0.134388 -0.866288 -0.004098
-0.136292 -0.927716 0.274378
-0.142338 -0.920687 0.264430
-0.146379 -0.880085 0.074773
-0.145388 -0.872792 0.041838
-0.136155 -0.916658 0.151483
-0.139505 -0.938513 0.478304
-0.144408 -0.920274 0.329453
-0.160489 -0.938056 0.517315
-0.148048 -0.919872 0.161481
-0.135175 -0.872229 -0.015086
-0.151217 -0.871604 0.010899
-0.151205 -0.868451 -0.007070
-0.161336 -0.929113 0.406409
-0.144213 -0.924136 0.311479
-0.146277 -0.938146 0.426360
-0.137173 -0.868345 -0.005029
-0.141185 -0.891616 0.137775
-0.170313 -0.918842 0.364504
-0.155233 -0.937184 0.420373
-0.146178 -0.876993 0.059896
-0.146175 -0.874917 0.050917
-0.173266 -0.925133 0.394464
-0.165261 -0.872672 0.116930
-0.173950 -0.919443 0.196521
-0.162997 -0.901783 0.131692
-0.159299 -0.933896 0.497442
-0.167168 -0.874481 0.091927
-0.168144 -0.920694 0.347548
-0.152930 -0.929907 0.272490
-0.168066 -0.872006 0.034958
-0.145048 -0.873844 0.040984
-0.144139 -0.865957 0.055057
-0.168996 -0.915900 0.253600
-0.170012 -0.870938 0.023985
-0.153920 -0.875583 -0.000026
-0.182263 -0.935465 0.537435
-0.170816 -0.918270 0.177588
-0.169983 -0.866667 -0.007972
-0.161759 -0.915897 0.143632
-0.179928 -0.914909 0.241618
-0.154914 -0.871557 -0.004977
-0.156882 -0.924977 0.274572
-0.162922 -0.918957 0.265615
-0.165032 -0.871341 0.075021
-0.164051 -0.862061 0.043107
-0.156761 -0.910920 0.150709
-0.164998 -0.916524 0.328659
-0.161075 -0.934755 0.476514
-0.180111 -0.932274 0.515531
-0.168627 -0.919131 0.160656
-0.169841 -0.867861 0.011095
-0.155727 -0.873501 -0.015924
-0.165898 -0.933378 0.425565
-0.181935 -0.924368 0.406624
-0.171773 -0.867743 -0.005888
-0.164815 -0.918380 0.309705
-0.189917 -0.917095 0.365681
-0.175823 -0.934436 0.420566
-0.157735 -0.867619 -0.005846
-0.165549 -0.912940 0.139760
-0.174685 -0.925325 0.291646
-0.166722 -0.880268 0.060036
-0.165778 -0.871185 0.051121
-0.194820 -0.926432 0.398624
-0.190578 -0.902030 0.121834
-0.193579 -0.913701 0.196739
-0.182615 -0.897045 0.131903
-0.187711 -0.878762 0.093054
-0.179886 -0.931144 0.497636
-0.183932 -0.896836 0.339924
-0.186718 -0.863276 0.036208
-0.174501 -0.927173 0.271692
-0.164644 -0.871103 0.040178
-0.201865 -0.934716 0.539599
-0.186716 -0.899120 0.251919
-0.188639 -0.867205 0.025182
-0.164693 -0.866227 0.054230
-0.190456 -0.910531 0.177828
-0.173524 -0.871847 -0.000822
-0.190537 -0.868957 -0.006822
-0.181382 -0.911158 0.143841
-0.195721 -0.891103 0.238996
-0.173555 -0.864819 -0.004749
-0.178738 -0.891124 0.260031
-0.177478 -0.921240 0.274777
-0.183631 -0.862336 0.044272
-0.185593 -0.871619 0.075192
-0.176377 -0.907180 0.150908
-0.184614 -0.911765 0.327868
-0.180716 -0.924963 0.472773
-0.198430 -0.925754 0.310738
-0.200696 -0.930530 0.516714
-0.190179 -0.920411 0.160817
-0.189450 -0.863135 0.011311
-0.174373 -0.865756 -0.016686
-0.185537 -0.924606 0.423813
-0.202524 -0.922649 0.409808
-0.190398 -0.864003 -0.005690
-0.209527 -0.914351 0.366868
-0.185411 -0.913626 0.307922
-0.195469 -0.924665 0.418825
-0.185368 -0.872518 0.059273
-0.177331 -0.864883 -0.006651
-0.183448 -0.862433 0.051363
-0.196252 -0.923599 0.291838
-0.187108 -0.912216 0.138944
-0.214456 -0.918681 0.398863
-0.213202 -0.908960 0.196948
-0.203190 -0.897335 0.134069
-0.213108 -0.904344 0.123994
-0.205440 -0.906136 0.344003
-0.200472 -0.928385 0.496830
-0.205397 -0.867011 0.093328
-0.220510 -0.928943 0.539809
-0.207273 -0.865564 0.037357
-0.195103 -0.922431 0.270907
-0.221187 -0.923186 0.330867
-0.184251 -0.866367 0.039394
-0.208234 -0.865476 0.025366
-0.183325 -0.860486 0.054449
-0.210063 -0.908789 0.178006
-0.206345 -0.891380 0.252163
-0.200050 -0.901412 0.144095
-0.209189 -0.860232 -0.005571
-0.193140 -0.866123 -0.000596
-0.193270 -0.897407 0.269153
-0.199300 -0.892397 0.261189
-0.193158 -0.861094 -0.004542
-0.218240 -0.894418 0.242147
-0.204223 -0.866876 0.075399
-0.202263 -0.856597 0.044492
-0.196971 -0.903446 0.150116
-0.218045 -0.923005 0.310925
-0.206163 -0.913045 0.329030
-0.220318 -0.924762 0.515932
-0.203252 -0.924238 0.472962
-0.209811 -0.914674 0.161036
-0.209041 -0.862415 0.012485
-0.207085 -0.926896 0.426963
-0.230111 -0.913627 0.369042
-0.224088 -0.921934 0.411989
-0.193985 -0.860026 -0.017458
-0.210013 -0.858290 -0.004463
-0.217011 -0.928963 0.422953
-0.206016 -0.906876 0.306160
-0.204978 -0.867790 0.059489
-0.206736 -0.906472 0.138164
-0.196933 -0.861150 -0.007445
-0.217808 -0.924882 0.292998
-0.203049 -0.858705 0.051570
-0.232818 -0.906228 0.198137
-0.235064 -0.912959 0.401091
-0.231771 -0.895610 0.125240
-0.222814 -0.891602 0.134291
-0.227948 -0.913450 0.348108
-0.224988 -0.866278 0.093501
-0.240120 -0.927197 0.541983
-0.221070 -0.923631 0.496045
-0.224940 -0.857833 0.039590
-0.240805 -0.920446 0.332053
-0.229806 -0.904716 0.257213
-0.227847 -0.860761 0.026582
-0.204818 -0.865642 0.038576
-0.202924 -0.856750 0.053656
-0.216686 -0.917703 0.270131
-0.230667 -0.904065 0.178223
-0.226851 -0.853503 -0.003348
-0.221600 -0.903705 0.145247
-0.211769 -0.861378 -0.001387
-0.216716 -0.912741 0.274184
-0.219877 -0.891682 0.263366
-0.241725 -0.903759 0.247237
-0.212762 -0.857371 -0.004336
-0.222861 -0.860138 0.075630
-0.221857 -0.854878 0.045677
-0.216587 -0.899710 0.150316
-0.238649 -0.918264 0.310140
-0.226758 -0.909310 0.329237
-0.240903 -0.924030 0.518105
-0.223857 -0.917479 0.471200
-0.228490 -0.901916 0.159323
-0.224771 -0.916098 0.424220
-0.249725 -0.910886 0.370230
-0.227684 -0.854683 0.012727
-0.212608 -0.856283 -0.018259
-0.228642 -0.853556 -0.004253
-0.244701 -0.915205 0.413226
-0.234713 -0.914161 0.419253
-0.221676 -0.853967 0.051779
-0.226612 -0.902136 0.305379
-0.215567 -0.855417 -0.007224
-0.236481 -0.913106 0.290273
-0.222653 -0.857036 0.058755
-0.253416 -0.903511 0.199332
-0.226388 -0.894729 0.136449
-0.258765 -0.921419 0.541194
-0.255667 -0.908239 0.403308
-0.241468 -0.883869 0.135529
-0.248542 -0.910723 0.349303
-0.253337 -0.895917 0.127412
-0.242664 -0.855540 0.094767
-0.241666 -0.919886 0.496251
-0.259464 -0.911675 0.330297
-0.244555 -0.852120 0.040819
-0.246537 -0.886934 0.255542
-0.246482 -0.855027 0.026802
-0.221550 -0.852013 0.053866
-0.237280 -0.914964 0.269327
-0.250293 -0.898323 0.177445
-0.224426 -0.860910 0.037793
-0.241232 -0.896974 0.145480
-0.246461 -0.848792 -0.002130
-0.231375 -0.857657 -0.001181
-0.237319 -0.908012 0.274402
-0.245285 -0.910048 0.269376
-0.262321 -0.902055 0.250422
-0.230424 -0.849628 -0.004101
-0.242458 -0.858410 0.075814
-0.260208 -0.921563 0.313277
-0.236208 -0.894977 0.150528
-0.240494 -0.848153 0.046909
-0.259551 -0.917255 0.517327
-0.244454 -0.894517 0.325540
-0.265464 -0.894059 0.365541
-0.246393 -0.918774 0.473367
-0.248260 -0.925435 0.430309
-0.250058 -0.901205 0.159506
-0.248258 -0.853972 0.012909
-0.246309 -0.844824 -0.003007
-0.233187 -0.853567 -0.019055
-0.266272 -0.914502 0.416407
-0.255309 -0.911438 0.421448
-0.272065 -0.897765 0.199546
-0.242250 -0.855310 0.058939
-0.244303 -0.888353 0.302672
-0.242244 -0.854253 0.051951
-0.259021 -0.915413 0.292429
-0.280329 -0.923723 0.546340
-0.234210 -0.846681 -0.007970
-0.246976 -0.893000 0.135637
-0.268172 -0.903972 0.348535
-0.262263 -0.853812 0.094951
-0.279190 -0.911584 0.409459
-0.271030 -0.883170 0.127697
-0.278110 -0.906928 0.331498
-0.263030 -0.884169 0.136702
-0.263233 -0.919161 0.497431
-0.270942 -0.872478 0.042811
-0.271000 -0.899285 0.260605
-0.265116 -0.850302 0.028011
-0.270889 -0.896608 0.178630
-0.241151 -0.848282 0.053074
-0.243060 -0.855168 0.037014
-0.257894 -0.908230 0.268565
-0.257908 -0.907289 0.275576
-0.263154 -0.838051 -0.000868
-0.259891 -0.888235 0.145727
-0.264918 -0.903311 0.269608
-0.250018 -0.849929 -0.000938
-0.283904 -0.899358 0.252625
-0.261099 -0.850677 0.076056
-0.271114 -0.884649 0.302770
-0.281116 -0.918545 0.520484
-0.249067 -0.840902 -0.003846
-0.256803 -0.892257 0.150726
-0.267853 -0.869516 0.047901
-0.265040 -0.892785 0.325727
-0.284106 -0.888305 0.365756
-0.262072 -0.899547 0.420700
-0.267974 -0.914038 0.472592
-0.265918 -0.847230 0.013133
-0.271634 -0.899496 0.159699
-0.271728 -0.861161 -0.002976
-0.282992 -0.897696 0.412726
-0.275910 -0.907719 0.423654
-0.252789 -0.850841 -0.019859
-0.299956 -0.919983 0.548535
-0.291695 -0.892033 0.199767
-0.274772 -0.896595 0.287762
-0.271536 -0.883633 0.052869
-0.260577 -0.869010 -0.009995
-0.263798 -0.856600 0.058106
-0.264897 -0.883618 0.301893
-0.280894 -0.850083 0.096149
-0.285852 -0.893194 0.346796
-0.268552 -0.890295 0.135842
-0.299685 -0.907224 0.333666
-0.288714 -0.872433 0.128961
-0.277800 -0.864385 0.136044
-0.298827 -0.903849 0.410701
-0.283837 -0.914421 0.497647
-0.284734 -0.851707 0.044160
-0.289541 -0.889858 0.177855
-0.282781 -0.841562 0.028259
-0.291614 -0.892572 0.261846
-0.268502 -0.871643 0.054045
-0.277537 -0.901553 0.275797
-0.292470 -0.865427 -0.000935
-0.282426 -0.892543 0.146862
-0.262673 -0.849442 0.036243
-0.285516 -0.901600 0.271792
-0.279476 -0.904509 0.267779
-0.266712 -0.838173 -0.001665
-0.281669 -0.852961 0.076203
-0.304509 -0.896650 0.254820
-0.291703 -0.883936 0.304945
-0.279332 -0.873279 -0.004955
-0.300749 -0.910779 0.518726
-0.286495 -0.864791 0.049107
-0.277410 -0.886535 0.149956
-0.287578 -0.896100 0.328872
-0.306641 -0.895638 0.371854
-0.281689 -0.895808 0.421900
-0.291265 -0.893760 0.158920
-0.289551 -0.911311 0.472793
-0.283585 -0.837494 0.013392
-0.297477 -0.910015 0.426800
-0.306512 -0.904048 0.419842
-0.269487 -0.838088 -0.020575
-0.289412 -0.848438 -0.001685
-0.312294 -0.891319 0.200940
-0.295380 -0.890873 0.287992
-0.288260 -0.866887 0.053193
-0.280499 -0.842844 0.057401
-0.309368 -0.900533 0.351901
-0.279237 -0.858280 -0.010720
-0.319319 -0.901485 0.333886
-0.291326 -0.895985 0.305971
-0.302454 -0.851389 0.097312
-0.303476 -0.852662 0.129308
-0.290128 -0.888583 0.135036
-0.318465 -0.895109 0.410955
-0.304233 -0.877762 0.140109
-0.303469 -0.906658 0.495889
-0.309219 -0.861053 0.046254
-0.301415 -0.836841 0.029468
-0.311123 -0.888160 0.179047
-0.312221 -0.888866 0.264052
-0.297170 -0.894811 0.275029
-0.301393 -0.830631 0.002539
-0.290070 -0.870937 0.053230
-0.280337 -0.840695 0.035490
-0.294289 -0.860721 0.144317
-0.306130 -0.895887 0.273021
-0.296035 -0.863545 -0.002708
-0.301063 -0.900799 0.267993
-0.321352 -0.909062 0.521907
-0.324148 -0.889936 0.257052
-0.319121 -0.900335 0.311979
-0.309077 -0.868337 0.078252
-0.307094 -0.862091 0.050306
-0.296061 -0.879797 0.150183
-0.290219 -0.840488 -0.003494
-0.327245 -0.892916 0.373048
-0.308185 -0.890367 0.328102
-0.305207 -0.901145 0.427029
-0.311873 -0.890045 0.159127
-0.305146 -0.837800 0.013568
-0.326145 -0.898314 0.421062
-0.319065 -0.907318 0.430001
-0.310170 -0.901565 0.471066
-0.306105 -0.837692 -0.001423
-0.333883 -0.889628 0.203130
-0.290072 -0.835379 -0.021370
-0.335046 -0.888690 0.332156
-0.310797 -0.872195 0.053316
-0.317930 -0.893176 0.289146
-0.329002 -0.893788 0.351133
-0.307893 -0.861211 0.058418
-0.294967 -0.842528 -0.010411
-0.329869 -0.868760 0.099334
-0.330896 -0.869049 0.133340
-0.318990 -0.859982 0.139432
-0.312911 -0.892274 0.306185
-0.341032 -0.895448 0.417129
-0.310738 -0.883871 0.135255
-0.327003 -0.909991 0.501036
-0.331769 -0.864373 0.047397
-0.329801 -0.857219 0.030464
-0.329781 -0.880424 0.179284
-0.334779 -0.891188 0.267204
-0.317774 -0.892096 0.276224
-0.309696 -0.866219 0.053443
-0.321981 -0.829935 0.003718
-0.323811 -0.886126 0.272272
-0.321698 -0.879105 0.148329
-0.311624 -0.869096 0.035425
-0.343915 -0.910377 0.526068
-0.306898 -0.834744 -0.002288
-0.338758 -0.893593 0.311210
-0.343789 -0.882216 0.258296
-0.345898 -0.887174 0.374261
-0.328704 -0.863618 0.078465
-0.321682 -0.893074 0.267244
-0.307884 -0.831755 -0.003245
-0.316666 -0.876084 0.150391
-0.322825 -0.845338 0.050628
-0.330740 -0.892686 0.331254
-0.325812 -0.898429 0.429223
-0.331515 -0.881317 0.158383
-0.331583 -0.853151 0.013607
-0.339678 -0.903603 0.432204
-0.351567 -0.879873 0.202381
-0.349694 -0.898657 0.426242
-0.331755 -0.898851 0.472267
-0.333525 -0.853059 -0.001377
-0.356635 -0.888000 0.335333
-0.317471 -0.852721 -0.024343
-0.332389 -0.870540 0.058509
-0.348639 -0.887054 0.351365
-0.322640 -0.843406 0.053744
-0.338547 -0.886459 0.289385
-0.320424 -0.854856 -0.012343
-0.346576 -0.855014 0.099628
-0.354436 -0.873391 0.136476
-0.335474 -0.891581 0.307371
-0.345452 -0.870355 0.142523
-0.348593 -0.907276 0.502235
-0.364586 -0.895792 0.422308
-0.331355 -0.877156 0.134496
-0.351408 -0.857676 0.049632
-0.350393 -0.876711 0.179490
-0.354320 -0.861566 0.031609
-0.353443 -0.882458 0.268452
-0.328633 -0.861224 0.269664
-0.353314 -0.855338 0.003673
-0.361599 -0.898588 0.523340
-0.342473 -0.875381 0.271544
-0.341337 -0.871386 0.148575
-0.325433 -0.847461 0.052787
-0.361327 -0.894915 0.314370
-0.364553 -0.880427 0.374485
-0.325542 -0.827025 -0.002043
-0.365383 -0.880532 0.261484
-0.325415 -0.844314 0.033822
-0.349311 -0.860911 0.078661
-0.345229 -0.893396 0.268425
-0.349284 -0.856701 0.051709
-0.329453 -0.831059 -0.004059
-0.339230 -0.875404 0.151580
-0.349403 -0.881930 0.329525
-0.347401 -0.895718 0.430423
-0.358342 -0.893847 0.431462
-0.350179 -0.871580 0.157643
-0.353167 -0.852460 0.013788
-0.368273 -0.868118 0.202650
-0.367379 -0.887899 0.426504
-0.353155 -0.848347 -0.001164
-0.355300 -0.899168 0.474447
-0.377252 -0.884285 0.336536
-0.340029 -0.853037 -0.025163
-0.370232 -0.885357 0.353552
-0.359159 -0.883746 0.290578
-0.351045 -0.861785 0.054759
-0.370117 -0.860350 0.101751
-0.372121 -0.863660 0.137729
-0.353007 -0.863833 0.057751
-0.341034 -0.849154 -0.013109
-0.368021 -0.871681 0.144685
-0.364326 -0.888449 0.496574
-0.384234 -0.886068 0.423573
-0.356097 -0.882859 0.306634
-0.351971 -0.871442 0.133725
-0.372024 -0.853982 0.050839
-0.372003 -0.851834 0.031864
-0.370035 -0.868992 0.179734
-0.377000 -0.882797 0.271631
-0.357051 -0.876634 0.275712
-0.372955 -0.848639 0.004908
-0.386146 -0.880734 0.377648
-0.366019 -0.878725 0.275690
-0.361953 -0.866686 0.149793
-0.351892 -0.858817 0.052868
-0.382931 -0.891215 0.315579
-0.350042 -0.834357 -0.002929
-0.369925 -0.857207 0.078868
-0.386991 -0.874856 0.264718
-0.352853 -0.856684 0.033900
-0.357889 -0.867665 0.150817
-0.368921 -0.850997 0.052932
-0.359817 -0.852449 -0.005065
-0.365853 -0.885676 0.267675
-0.368996 -0.893018 0.432622
-0.372952 -0.883256 0.331693
-0.378963 -0.888138 0.433688
-0.370796 -0.866872 0.157860
-0.389872 -0.865426 0.203850
-0.371827 -0.843742 0.014040
-0.395914 -0.878549 0.337746
-0.391919 -0.890263 0.432665
-0.373772 -0.843660 0.000055
-0.389873 -0.879633 0.354771
-0.376901 -0.892446 0.473692
-0.349895 -0.824232 -0.024744
-0.390734 -0.857643 0.101944
-0.373618 -0.861106 0.054945
-0.373624 -0.860131 0.057957
-0.391766 -0.856960 0.139962
-0.379784 -0.875027 0.289841
-0.387666 -0.864972 0.145917
-0.358714 -0.838428 -0.012841
-0.391797 -0.897853 0.504675
-0.406821 -0.884404 0.428764
-0.393625 -0.852307 0.053028
-0.377696 -0.878155 0.306857
-0.391644 -0.846132 0.033086
-0.372591 -0.864732 0.132966
-0.387720 -0.857247 0.179012
-0.406768 -0.878026 0.379837
-0.395669 -0.873072 0.272889
-0.380601 -0.879970 0.278857
-0.394553 -0.847957 0.006085
-0.385661 -0.872008 0.276921
-0.382570 -0.863984 0.150986
-0.399640 -0.878441 0.313858
-0.371530 -0.852100 0.052103
-0.408598 -0.872176 0.267915
-0.367716 -0.823625 -0.003658
-0.391526 -0.853518 0.079081
-0.374447 -0.853988 0.033103
-0.380464 -0.866988 0.152002
-0.390520 -0.848316 0.054134
-0.378479 -0.843733 -0.004813
-0.389619 -0.888308 0.434836
-0.382565 -0.869902 0.264990
-0.392597 -0.874523 0.330948
-0.412455 -0.866749 0.206006
-0.401547 -0.886458 0.436880
-0.393374 -0.866186 0.158044
-0.417523 -0.874858 0.339954
-0.390487 -0.835027 0.014292
-0.408628 -0.875485 0.430967
-0.393411 -0.837953 0.000278
-0.409518 -0.872904 0.355001
-0.410380 -0.851938 0.103164
-0.391305 -0.850376 0.055211
-0.401447 -0.891795 0.477887
-0.402364 -0.875346 0.292011
-0.367568 -0.812513 -0.024460
-0.414354 -0.855301 0.143156
-0.395227 -0.856444 0.058169
-0.408294 -0.859277 0.147144
-0.413405 -0.894151 0.506882
-0.382262 -0.839750 -0.014669
-0.428436 -0.879725 0.432982
-0.414252 -0.847616 0.054243
-0.403442 -0.844480 0.178287
-0.400281 -0.874472 0.308074
-0.393216 -0.858032 0.133206
-0.426417 -0.870305 0.381078
-0.415318 -0.865358 0.274131
-0.400248 -0.872248 0.279099
-0.411445 -0.855596 0.309221
-0.408248 -0.869334 0.279126
-0.406135 -0.863321 0.152176
-0.392150 -0.847402 0.052321
-0.411170 -0.847807 0.079301
-0.427270 -0.861455 0.269186
-0.411144 -0.844625 0.055338
-0.406324 -0.875529 0.433114
-0.395069 -0.848286 0.032332
-0.402071 -0.861298 0.152237
-0.410281 -0.862763 0.329223
-0.402210 -0.860177 0.264257
-0.435049 -0.866076 0.208184
-0.437172 -0.870136 0.341158
-0.424138 -0.884787 0.441070
-0.435145 -0.881894 0.440089
-0.414003 -0.859485 0.158282
-0.431129 -0.868207 0.356220
-0.431011 -0.847245 0.104378
-0.413891 -0.848701 0.055406
-0.436948 -0.854633 0.145334
-0.422013 -0.866619 0.291264
-0.415854 -0.851738 0.057384
-0.423057 -0.885077 0.477129
-0.428928 -0.852593 0.149382
-0.452019 -0.879082 0.439164
-0.448032 -0.868618 0.384259
-0.430932 -0.851871 0.181408
-0.437913 -0.863692 0.277321
-0.415803 -0.854347 0.132424
-0.419930 -0.863739 0.306352
-0.438940 -0.862994 0.314340
-0.421860 -0.866558 0.280331
-0.429860 -0.865649 0.281334
-0.422845 -0.850578 0.152457
-0.413754 -0.843710 0.051533
-0.449871 -0.858798 0.273387
-0.433819 -0.882934 0.440233
-0.420739 -0.852567 0.151485
-0.434834 -0.864122 0.333393
-0.454705 -0.859359 0.208412
-0.458792 -0.867454 0.344350
-0.426759 -0.860519 0.265440
-0.445756 -0.881100 0.444275
-0.459713 -0.882262 0.446266
-0.436599 -0.856812 0.159485
-0.450781 -0.861489 0.357448
-0.444611 -0.861941 0.292490
-0.441729 -0.872324 0.475421
-0.449564 -0.846901 0.150606
-0.469653 -0.864928 0.386463
-0.473647 -0.872408 0.443403
-0.453529 -0.851194 0.182585
-0.458552 -0.857000 0.279556
-0.443475 -0.862875 0.282538
-0.461542 -0.860328 0.317539
-0.433493 -0.841613 0.131714
-0.450495 -0.859948 0.282557
-0.442525 -0.860059 0.307567
-0.447403 -0.851927 0.153625
-0.470512 -0.852108 0.275621
-0.455438 -0.879247 0.443437
-0.443334 -0.849897 0.152688
-0.476332 -0.855681 0.210615
-0.458416 -0.862458 0.335588
-0.477470 -0.857722 0.344606
-0.467379 -0.876415 0.447490
-0.454265 -0.865916 0.269580
-0.480358 -0.875560 0.448496
-0.455273 -0.846087 0.158756
-0.470436 -0.853767 0.357687
-0.466231 -0.858250 0.293694
-0.491282 -0.863250 0.390639
-0.467277 -0.871691 0.479617
-0.498229 -0.869782 0.449611
-0.481161 -0.854337 0.282754
-0.482185 -0.854626 0.318760
-0.464114 -0.856169 0.282773
-0.469172 -0.848225 0.282839
-0.465127 -0.855383 0.308791
-0.490176 -0.844415 0.278859
-0.478047 -0.874569 0.445658
-0.500083 -0.856053 0.347788
-0.482006 -0.859797 0.337793
-0.489992 -0.872750 0.451697
-0.476874 -0.859239 0.269827
-0.501010 -0.866870 0.451750
-0.495997 -0.856145 0.362842
-0.512917 -0.857565 0.392863
-0.490808 -0.855606 0.295905
-0.496769 -0.877123 0.486763
-0.516915 -0.858058 0.450888
-0.503816 -0.848938 0.319985
-0.486724 -0.852501 0.284982
-0.494732 -0.850601 0.286995
-0.481836 -0.839618 0.306107
-0.499679 -0.868880 0.447882
-0.523689 -0.854398 0.350975
-0.505605 -0.856139 0.340007
-0.515564 -0.872135 0.457885
-0.532492 -0.876353 0.462852
-0.518616 -0.852472 0.365048
-0.538498 -0.859948 0.399010
-0.547423 -0.866537 0.462992
-0.524309 -0.877523 0.491951
-0.526237 -0.870275 0.454052
-0.539176 -0.867479 0.461106
-0.549217 -0.860595 0.462163
-0.546900 -0.862579 0.456289
-0.561813 -0.861820 0.465330
