# .PCD v0.7 - Point Cloud Data file format
VERSION 0.7
FIELDS x y z
SIZE 4 4 4
TYPE F F F
COUNT 1 1 1
WIDTH 21
HEIGHT 1
VIEWPOINT 0 0 0 1
POINTS 21
DATA ascii
-1.319337 2.261819 1.853248
-1.311484 2.374262 1.829809
-1.294637 2.333595 1.889411
-1.321096 2.512301 1.826565
-1.297173 2.479667 1.889329
-1.228943 2.330446 1.864883
-1.301453 2.585178 1.850683
-1.301405 2.573091 1.857525
-1.302947 2.526271 1.842895
-1.296132 2.547167 1.855224
-1.302840 2.625694 1.889215
-1.231632 2.488354 1.876953
-1.255522 2.643266 1.873812
-1.248263 2.615398 1.867501
-1.267252 2.611158 1.876305
-1.249126 2.603352 1.871339
-1.287314 2.770932 1.885255
-1.233336 2.637365 1.879906
-1.150992 2.566937 1.805592
-1.168883 2.556736 1.812327
-1.218979 2.796453 1.887104
