# .PCD v0.7 - Point Cloud Data file format
VERSION 0.7
FIELDS x y z
SIZE 4 4 4
TYPE F F F
COUNT 1 1 1
WIDTH 582
HEIGHT 1
VIEWPOINT 0 0 0 1
POINTS 582
DATA ascii
4.104327 -2.258929 1.402182
4.042358 -2.230819 1.260034
2.682474 -2.121674 0.411499
2.683039 -2.137938 0.661310
2.645793 -2.171156 0.898231
2.579592 -2.168504 1.191885
2.534270 -2.127347 0.640763
2.498902 -2.154399 0.868749
2.405087 -2.104747 0.390180
2.400528 -2.119730 0.623051
2.569434 -2.132836 0.746046
2.383186 -2.157639 0.848734
2.541688 -2.159816 0.913956
2.308565 -2.121150 0.384827
2.441697 -2.130152 0.726198
2.434102 -2.128134 0.428258
2.567921 -2.106744 0.393003
2.419904 -2.157994 0.888044
2.188890 -2.113630 0.375996
2.591608 -2.142259 0.844388
2.156133 -2.109489 0.593369
2.554662 -2.133187 0.474784
2.577459 -2.165195 0.955225
2.323989 -2.129470 0.709240
2.304349 -2.114587 0.414575
2.258403 -2.075540 0.278474
2.147619 -2.143103 0.805027
2.453301 -2.111207 0.384935
2.297081 -2.149188 0.862237
2.466842 -2.139529 0.822499
2.081254 -2.111081 0.368995
2.700262 -2.139027 0.518228
2.432978 -2.132572 0.459843
2.041418 -2.100855 0.579513
2.454645 -2.162333 0.926320
2.642217 -2.126045 0.500884
2.201206 -2.117794 0.690475
2.189673 -2.110009 0.403646
2.150800 -2.076028 0.273420
2.043885 -2.140333 0.786994
2.616794 -2.143707 0.946919
2.638210 -2.169331 0.991413
2.185310 -2.145375 0.839271
2.329967 -2.120813 0.796925
1.981627 -2.110490 0.361900
2.567499 -2.132394 0.498435
2.309232 -2.122963 0.444039
2.330804 -2.153487 0.897505
1.945804 -2.105200 0.570317
2.514497 -2.120504 0.488037
2.082426 -2.105101 0.671691
2.087024 -2.109402 0.394563
1.879597 -2.060874 0.173455
1.944162 -2.137562 0.769927
2.494985 -2.139915 0.921999
2.503296 -2.157412 0.954706
2.227000 -2.108140 0.368939
2.066443 -2.128547 0.812541
2.441766 -2.127743 0.479562
1.863856 -2.086966 0.352273
2.198539 -2.119334 0.431049
2.395771 -2.114918 0.475119
1.832022 -2.085560 0.555604
1.976700 -2.098407 0.656717
1.984352 -2.104784 0.384534
2.375160 -2.132138 0.898118
1.952598 -2.076956 0.265169
1.827254 -2.109786 0.746348
2.389524 -2.159526 0.926645
2.116324 -2.101602 0.360990
1.974747 -2.131750 0.796312
2.122542 -2.122331 0.763710
2.087820 -2.110712 0.418127
2.275032 -2.104368 0.463286
2.103150 -2.135770 0.843713
2.268403 -2.131356 0.878038
1.876978 -2.091701 0.642692
1.877630 -2.091198 0.374663
1.753684 -2.125023 0.737810
1.836862 -2.054497 0.259496
2.265621 -2.144629 0.893892
2.019705 -2.103019 0.354817
1.863893 -2.112940 0.772544
2.017790 -2.115599 0.746713
2.207268 -2.111435 0.445773
1.983100 -2.102062 0.405156
2.169346 -2.101751 0.452225
2.011447 -2.139941 0.825459
2.154570 -2.119574 0.855164
1.786312 -2.090996 0.631510
2.163862 -2.145738 0.868747
1.901904 -2.077507 0.345184
1.913986 -2.102837 0.727789
1.775177 -2.111138 0.756358
2.103569 -2.108743 0.430698
2.075709 -2.105118 0.443986
1.878368 -2.089436 0.393240
1.911653 -2.132085 0.802434
2.061849 -2.121773 0.837932
2.048983 -2.129853 0.838938
1.820267 -2.098102 0.713674
2.005898 -2.108054 0.417547
1.967978 -2.092543 0.434077
1.807815 -2.116244 0.778552
1.971138 -2.122998 0.822696
1.953230 -2.127992 0.816785
1.725483 -2.085349 0.697676
1.904158 -2.097382 0.403563
1.876295 -2.088894 0.424917
1.716037 -2.107404 0.758475
1.863235 -2.100188 0.798924
1.853422 -2.118113 0.791774
1.784575 -2.106401 0.786523
1.769719 -2.120258 0.773469
1.674599 -2.071585 0.760931
-1.092086 2.039979 0.453596
-1.085442 2.041189 0.547641
-1.032601 2.042440 0.445884
-1.024927 2.034659 0.539854
-1.120750 2.046463 0.495544
-1.010673 2.048162 0.267025
-1.095461 2.046832 0.472659
-0.986074 2.052163 0.171167
-0.973091 2.040905 0.437139
-0.970480 2.037068 0.534121
-1.062287 2.046890 0.490809
-0.953194 2.046560 0.263271
-0.950334 2.062359 0.060414
-1.035975 2.046280 0.465921
-0.927580 2.051570 0.166427
-0.928519 2.063788 -0.087482
-0.921537 2.047594 -0.060592
-0.915596 2.039334 0.430386
-0.922806 2.065156 -0.011440
-1.109869 2.047710 0.480617
-0.912977 2.032501 0.527342
-1.102612 2.042141 0.436599
-1.001786 2.044334 0.485060
-1.002536 2.057926 0.188162
-0.894685 2.039959 0.259479
-0.985500 2.053813 0.213204
-0.889807 2.054752 0.057622
-0.976480 2.046724 0.459195
-0.867982 2.053164 -0.089299
-0.867043 2.045992 0.160655
-0.857494 2.029900 0.522574
-0.864295 2.059532 -0.014222
-1.045328 2.039187 0.473834
-0.855040 2.031794 0.421598
-1.042133 2.042564 0.432876
-0.950286 2.061935 -0.005574
-0.943292 2.040752 0.480295
-0.941006 2.049340 0.184367
-0.840217 2.040329 0.255733
-1.024971 2.049758 0.193006
-0.924985 2.047212 0.210423
-0.832301 2.048114 0.055828
-0.926175 2.060906 0.014528
-0.916962 2.042162 0.452427
-1.124160 2.049599 0.488587
-0.909574 2.064949 -0.094366
-0.813519 2.054498 -0.091036
-0.815625 2.056337 0.156983
-0.907517 2.063030 -0.102374
-0.810601 2.049273 -0.063067
-0.805030 2.029284 0.516812
-0.806783 2.053896 -0.017006
-0.989899 2.047577 0.470160
-0.800555 2.032194 0.414854
-0.982656 2.042968 0.430151
-0.886811 2.038144 0.476532
-0.892809 2.062294 -0.007308
-0.883528 2.050715 0.181643
-0.783708 2.033699 0.252937
-1.078321 2.043842 0.378739
-0.966500 2.050135 0.191276
-0.963331 2.052447 0.157309
-0.778845 2.050446 0.054097
-0.867497 2.044579 0.208664
-0.864638 2.051279 0.013727
-0.858438 2.036589 0.445648
-1.058615 2.041078 0.481810
-0.850030 2.059364 -0.102141
-0.761078 2.061824 -0.093728
-0.758091 2.048723 0.152184
-0.853118 2.069277 -0.094068
-0.759175 2.058594 -0.065746
-0.751544 2.025660 0.512030
-0.750272 2.049250 -0.019784
-0.927347 2.038031 0.463364
-0.746066 2.032582 0.409111
-0.922143 2.038382 0.426389
-0.925292 2.054123 -0.010509
-0.828281 2.030561 0.470737
-0.840401 2.073609 -0.007967
-0.829062 2.052077 0.177907
-0.731245 2.034039 0.250186
-1.017853 2.047239 0.377045
-0.907009 2.049512 0.189545
-0.904854 2.050800 0.157564
-0.908058 2.062447 -0.036358
-0.725380 2.051774 0.052359
-0.815076 2.051903 0.207972
-0.810184 2.052597 0.013991
-0.802948 2.035984 0.439901
-0.998126 2.040495 0.478082
-0.894527 2.063349 -0.132293
-0.891528 2.056282 -0.122340
-0.998509 2.057736 0.100212
-0.697019 2.018057 0.505221
-0.705576 2.058156 -0.095500
-0.794604 2.060604 -0.092871
-0.988840 2.049963 0.197194
-0.794567 2.061681 -0.101862
-0.702582 2.045083 0.148412
-0.701637 2.047930 -0.066569
-0.698830 2.055568 -0.022487
-0.870856 2.036434 0.457612
-0.691563 2.031972 0.402363
-0.772780 2.024938 0.466948
-0.865670 2.038757 0.423655
-0.870863 2.061441 -0.010194
-0.779849 2.060969 -0.008795
-0.766466 2.035482 0.174055
-0.681836 2.043348 0.248500
-0.956350 2.043638 0.375298
-0.847489 2.041885 0.187755
-0.755511 2.036281 0.205115
-0.669860 2.044110 0.050554
-0.847373 2.050151 0.156826
-0.848562 2.057775 -0.034123
-0.754711 2.052917 0.014254
-0.746415 2.028389 0.433101
-0.940654 2.040890 0.474352
-0.834005 2.053678 -0.130095
-0.835062 2.056595 -0.121074
-0.938027 2.057087 0.101486
-0.646551 2.015398 0.501438
-0.929355 2.046321 0.197438
-0.649038 2.047481 -0.096325
-0.647040 2.035447 0.143592
-0.650184 2.051235 -0.068297
-0.740138 2.062920 -0.093596
-0.740103 2.062988 -0.101596
-0.643301 2.047907 -0.025291
-0.814371 2.036816 0.453880
-0.638055 2.028344 0.396586
-0.721339 2.030281 0.464229
-0.808163 2.034139 0.420876
-0.811341 2.053788 -0.009990
-0.726381 2.062295 -0.010540
-0.626270 2.028720 0.243632
-0.716051 2.046798 0.172385
-0.910322 2.072242 -0.014264
-0.794032 2.045223 0.186032
-0.898876 2.046012 0.373583
-0.617372 2.042428 0.048786
-0.704076 2.043596 0.204419
-0.791900 2.050482 0.157087
-0.789026 2.047113 -0.032938
-0.700217 2.050241 0.013487
-0.692921 2.028759 0.428357
-0.882142 2.037290 0.470594
-0.776504 2.047983 -0.126873
-0.778576 2.054903 -0.118822
-0.880705 2.052027 -0.086298
-0.598100 2.018728 0.497700
-0.877514 2.052442 0.102731
-0.598582 2.053789 -0.099028
-0.685644 2.060230 -0.093359
-0.683572 2.054311 -0.101400
-0.597698 2.052548 -0.070033
-0.870854 2.044684 0.196701
-0.595572 2.040771 0.140886
-0.590952 2.013982 0.708706
-0.591822 2.050225 -0.028021
-0.758850 2.032202 0.449107
-0.585538 2.026711 0.390828
-0.668843 2.026624 0.461461
-0.750620 2.026522 0.417097
-0.755853 2.053108 -0.009719
-0.668834 2.053630 -0.011328
-0.577839 2.036017 0.241940
-0.661536 2.043140 0.169627
-0.845752 2.057593 -0.011072
-0.565892 2.042726 0.048049
-0.735495 2.040584 0.184284
-0.651599 2.043910 0.203685
-0.837325 2.038404 0.371822
-0.732330 2.035839 0.156257
-0.736592 2.055403 -0.031604
-0.646722 2.046544 0.013723
-0.640418 2.027116 0.423607
-0.823603 2.030692 0.465828
-0.726140 2.063188 -0.117488
-0.725087 2.060261 -0.125509
-0.826270 2.059313 -0.082964
-0.547619 2.019054 0.494959
-0.820025 2.051770 0.104011
-0.816807 2.052059 -0.164984
-0.824033 2.070797 -0.138856
-0.546073 2.050093 -0.100795
-0.544063 2.037096 0.137115
-0.545186 2.047853 -0.071808
-0.630120 2.052530 -0.092147
-0.814358 2.042027 0.195959
-0.632123 2.061603 -0.102079
-0.538418 2.011371 0.700950
-0.539315 2.048539 -0.030771
-0.703315 2.025578 0.444329
-0.618377 2.028951 0.458737
-0.533012 2.024068 0.385071
-0.698160 2.030845 0.416399
-0.702385 2.054402 -0.008440
-0.615331 2.049938 -0.012090
-0.524295 2.027348 0.239137
-0.610058 2.044459 0.166898
-0.791294 2.060896 -0.009772
-0.515420 2.045021 0.046324
-0.597063 2.035239 0.201886
-0.682008 2.040910 0.182556
-0.779805 2.033766 0.370070
-0.677832 2.033152 0.156508
-0.681084 2.048698 -0.029383
-0.596282 2.054832 0.013049
-0.587908 2.025467 0.418859
-0.770140 2.035033 0.464134
-0.499146 2.019372 0.491209
-0.670592 2.056554 -0.124267
-0.669621 2.057492 -0.116254
-0.767759 2.053618 -0.079721
-0.493539 2.041392 -0.102603
-0.762518 2.048094 0.105267
-0.492655 2.040153 -0.073608
-0.761460 2.052106 -0.133705
-0.766419 2.068321 -0.162592
-0.578610 2.054895 -0.101867
-0.577635 2.051816 -0.091888
-0.492562 2.037416 0.133380
-0.757856 2.039357 0.196219
-0.486887 2.008749 0.693191
-0.486783 2.040841 -0.032570
-0.650827 2.026924 0.440605
-0.565867 2.025285 0.455972
-0.481502 2.023406 0.380328
-0.644653 2.026178 0.414629
-0.564871 2.053222 -0.012807
-0.647892 2.053705 -0.008172
-0.475844 2.031636 0.237421
-0.556537 2.040786 0.164137
-0.733786 2.055195 -0.006534
-0.546584 2.033532 0.201128
-0.462869 2.034332 0.043501
-0.628503 2.036222 0.181786
-0.626383 2.039444 0.156823
-0.627603 2.048985 -0.028111
-0.723292 2.032116 0.368339
-0.542764 2.048125 0.013263
-0.536724 2.005195 0.725962
-0.536415 2.026799 0.415133
-0.713591 2.025412 0.459335
-0.450678 2.020678 0.488468
-0.617153 2.057760 -0.113987
-0.617118 2.057827 -0.121987
-0.715328 2.060883 -0.076396
-0.444083 2.048677 -0.105289
-0.441025 2.029731 0.129577
-0.526152 2.051092 -0.091633
-0.443207 2.048431 -0.075285
-0.526107 2.052184 -0.102624
-0.704995 2.042412 0.106507
-0.710046 2.064371 -0.131342
-0.707895 2.058600 -0.157382
-0.703372 2.039670 0.196496
-0.437308 2.043128 -0.035298
-0.598320 2.024264 0.436849
-0.514348 2.018608 0.453177
-0.431003 2.024733 0.375598
-0.595233 2.036465 0.414968
-0.594393 2.050998 -0.007925
-0.511346 2.048528 -0.014575
-0.425307 2.020941 0.234589
-0.505033 2.037087 0.162368
-0.679308 2.056488 -0.005248
-0.414421 2.040607 0.041802
-0.495096 2.033825 0.200393
-0.574992 2.033539 0.180034
-0.577985 2.052705 0.158181
-0.668176 2.018782 0.687520
-0.575125 2.049261 -0.026842
-0.668801 2.031434 0.368609
-0.490254 2.043408 0.013490
-0.487266 2.012524 0.722278
-0.485916 2.025120 0.411376
-0.403219 2.021964 0.486723
-0.661107 2.024738 0.457595
-0.563618 2.053096 -0.119756
-0.562636 2.052043 -0.112760
-0.657795 2.051172 -0.073188
-0.390507 2.025027 0.126797
-0.392565 2.044960 -0.107056
-0.472560 2.039459 -0.101459
-0.392707 2.046710 -0.077041
-0.472623 2.044374 -0.091417
-0.657484 2.069854 -0.155032
-0.649489 2.037705 0.108748
-0.654559 2.063645 -0.128068
-0.648874 2.038986 0.195766
-0.466909 2.023895 0.451466
-0.546823 2.022585 0.434097
-0.385789 2.040422 -0.038056
-0.379442 2.014060 0.370774
-0.541713 2.031789 0.413201
-0.460866 2.048804 -0.015315
-0.376844 2.024220 0.232866
-0.541901 2.049281 -0.007672
-0.535946 2.007266 0.721037
-0.453518 2.033392 0.159600
-0.363894 2.032888 0.039997
-0.444602 2.031109 0.199629
-0.622777 2.047780 -0.003036
-0.523494 2.029831 0.179266
-0.521391 2.034024 0.157311
-0.522631 2.046533 -0.025598
-0.614676 2.019127 0.684795
-0.615307 2.030749 0.367875
-0.440799 2.048677 0.012788
-0.435424 2.025428 0.408638
-0.608609 2.023067 0.454848
-0.511126 2.051362 -0.118503
-0.511164 2.053304 -0.111487
-0.606357 2.058430 -0.070866
-0.342027 2.035233 -0.108878
-0.342041 2.029307 0.124083
-0.343217 2.046986 -0.079784
-0.423148 2.044638 -0.092161
-0.422090 2.043726 -0.102164
-0.598021 2.050914 -0.123890
-0.596388 2.037278 0.196019
-0.596004 2.037991 0.110022
-0.600966 2.063120 -0.150803
-0.417446 2.027181 0.450748
-0.497368 2.027882 0.432396
-0.336293 2.039700 -0.040808
-0.492618 2.007372 0.739262
-0.489176 2.023110 0.410397
-0.328378 2.027494 0.231144
-0.409356 2.045080 -0.016083
-0.486491 2.011566 0.720328
-0.488375 2.041556 -0.006464
-0.405058 2.036667 0.157877
-0.395128 2.032382 0.198894
-0.314413 2.035159 0.038271
-0.571316 2.049039 -0.000764
-0.474056 2.039106 0.178598
-0.471951 2.040282 0.158617
-0.469096 2.035797 -0.023414
-0.387205 2.027957 0.012889
-0.560127 2.010481 0.681001
-0.560795 2.028056 0.368131
-0.384894 2.019748 0.403851
-0.557104 2.018385 0.452072
-0.456566 2.035620 -0.115356
-0.458656 2.047558 -0.109266
-0.550830 2.048690 -0.066665
-0.291643 2.031254 -0.080649
-0.371568 2.034982 -0.101977
-0.373689 2.048888 -0.091871
-0.290503 2.032506 -0.110634
-0.291541 2.031601 0.120364
-0.542492 2.032271 0.111248
-0.546571 2.055156 -0.120592
-0.543898 2.036565 0.196281
-0.446870 2.026188 0.429641
-0.286803 2.039964 -0.042550
-0.438700 2.024390 0.410667
-0.355731 2.019365 -0.017021
-0.437896 2.041818 -0.006203
-0.355585 2.039943 0.156160
-0.346648 2.030645 0.198130
-0.265927 2.034420 0.036516
-0.422520 2.029397 0.176782
-0.518833 2.048299 0.001498
-0.420431 2.032555 0.158818
-0.418634 2.040048 -0.022119
-0.337725 2.029217 0.012156
-0.506599 2.006817 0.678246
-0.509321 2.030342 0.368414
-0.506626 2.018677 0.451334
-0.407146 2.041811 -0.108049
-0.407123 2.043868 -0.115032
-0.499364 2.050940 -0.064383
-0.243176 2.036515 -0.083354
-0.321106 2.031151 -0.091747
-0.242009 2.031767 -0.113388
-0.322096 2.039244 -0.103685
-0.492406 2.033842 0.196522
-0.493063 2.049406 -0.117366
-0.490001 2.030534 0.113503
-0.396347 2.019490 0.426846
-0.238311 2.039228 -0.045304
-0.387123 2.007703 0.406795
-0.308326 2.034609 -0.017648
-0.383289 2.019090 -0.005110
-0.306072 2.034214 0.154369
-0.298182 2.032903 0.197401
-0.370993 2.022674 0.175992
-0.467360 2.050556 0.002781
-0.369958 2.035817 0.159106
-0.368145 2.038295 -0.020873
-0.289278 2.035458 0.012459
-0.457161 2.020958 0.450609
-0.456800 2.024637 0.367637
-0.356664 2.042052 -0.106786
-0.357675 2.050103 -0.113725
-0.445833 2.039180 -0.060205
-0.271550 2.027491 -0.103520
-0.273703 2.046389 -0.092374
-0.193584 2.046021 -0.116018
-0.441920 2.032108 0.196768
-0.440554 2.034775 0.115794
-0.440554 2.042646 -0.114152
-0.440449 2.044850 -0.139134
-0.258829 2.033868 -0.019397
-0.335864 2.028326 -0.004787
-0.322505 2.019931 0.175222
-0.319424 2.025076 0.159280
-0.240813 2.038703 0.011738
-0.318675 2.040539 -0.020597
-0.408706 2.024230 0.449887
-0.404257 2.014927 0.366830
-0.306106 2.030331 -0.110620
-0.306141 2.033290 -0.105596
-0.395359 2.039415 -0.057942
-0.224206 2.044634 -0.093131
-0.223151 2.046736 -0.105109
-0.390401 2.025376 0.196980
-0.389972 2.043073 -0.135888
-0.390092 2.044870 -0.110872
-0.387012 2.026041 0.116999
-0.287416 2.034563 -0.004483
-0.362283 2.027054 0.007131
-0.269197 2.040771 -0.019338
-0.354815 2.022171 0.369147
-0.257675 2.040560 -0.110284
-0.257706 2.042520 -0.105267
-0.342818 2.027649 -0.054765
-0.340907 2.021629 0.197207
-0.339602 2.042098 -0.108633
-0.338473 2.038289 -0.131659
-0.337546 2.027273 0.119267
-0.237905 2.028801 -0.004271
-0.314863 2.036276 0.008454
-0.219699 2.036999 -0.018110
-0.208203 2.042783 -0.109007
-0.207197 2.038748 -0.104034
-0.294400 2.038864 -0.052421
-0.289087 2.033314 -0.105441
-0.290035 2.044501 -0.129356
-0.288060 2.025509 0.120512
-0.264384 2.037502 0.010728
-0.243881 2.030078 -0.049227
-0.238480 2.028708 -0.125213
-0.238584 2.028525 -0.102214
-0.190155 2.037729 -0.099885
-0.190060 2.040919 -0.123860
2.446189 -0.784608 2.689527
2.335413 -0.753390 2.630260
2.411656 -0.833699 2.672182
2.468780 -0.802903 2.695759
2.373135 -0.880766 2.650833
2.433234 -0.850990 2.678414
2.392696 -0.896053 2.657066
2.503385 -0.824325 2.717059
2.346179 -0.938081 2.629713
2.475825 -0.874403 2.700732
2.459207 -0.928560 2.698426
4.038655 -2.258226 1.271533
3.432945 -1.841747 0.917816
4.046720 -2.244037 1.342885
4.131557 -2.239422 1.225464
4.105782 -2.266894 1.427218
