# .PCD v0.7 - Point Cloud Data file format
VERSION 0.7
FIELDS x y z
SIZE 4 4 4
TYPE F F F
COUNT 1 1 1
WIDTH 340
HEIGHT 1
VIEWPOINT 0 0 0 1
POINTS 340
DATA ascii
0.831565 -0.896361 1.051132
1.192113 -1.060789 2.008584
1.246540 -1.110429 1.936637
1.122537 -1.110305 1.932155
0.997186 -0.922912 1.076592
0.812064 -0.917780 1.052333
1.158388 -1.077598 1.988822
1.122605 -1.091444 1.966047
1.091430 -1.067704 2.003043
0.661518 -0.902770 1.129858
1.085786 -1.103307 1.941261
1.061750 -1.086422 1.987266
0.707090 -0.892566 1.052613
1.055081 -1.120016 1.927474
0.750362 -0.903096 1.045491
0.629658 -0.904430 1.114986
0.680919 -0.898290 1.193747
1.026947 -1.099252 1.962473
0.680402 -0.903108 1.046771
0.623120 -0.907066 1.206026
0.595704 -0.895997 1.118067
0.738962 -0.930339 1.054679
0.592651 -0.898203 1.091089
0.994177 -1.113018 1.942673
0.660878 -0.922499 1.049945
0.596375 -0.914611 1.199162
0.570034 -0.906505 1.115212
0.670829 -0.894174 1.101747
0.566912 -0.905722 1.084219
0.963447 -1.128734 1.925871
0.615309 -0.898418 1.203990
0.620243 -0.905574 1.162008
0.560368 -0.908367 1.175257
0.705764 -0.895140 1.038607
0.538153 -0.906157 1.099321
0.546287 -0.919116 1.086357
0.645133 -0.904699 1.094895
0.589561 -0.905940 1.197120
0.579116 -0.893449 1.128093
0.630425 -0.891321 1.208882
0.528443 -0.906027 1.157354
0.639377 -0.910376 1.371950
0.562791 -0.901192 1.238190
0.691303 -0.919449 1.042784
0.611173 -0.901401 1.072999
0.514328 -0.914769 1.067443
0.509359 -0.909724 1.090435
0.563589 -0.912740 1.136243
0.554589 -0.901676 1.173219
0.608772 -0.904772 1.205027
0.600004 -0.899550 1.275033
0.498564 -0.905631 1.143452
0.539058 -0.909674 1.232312
0.580303 -0.902021 1.058109
0.483383 -0.910385 1.051522
0.478455 -0.907341 1.075524
0.529628 -0.908442 1.114335
0.527788 -0.906223 1.162331
0.577857 -0.904427 1.184131
0.574199 -0.905091 1.263148
0.476891 -0.916039 1.144572
0.510200 -0.911269 1.217414
0.556571 -0.910495 1.051230
0.457605 -0.914883 1.044625
0.505863 -0.914913 1.107443
0.552059 -0.909961 1.172244
0.499941 -0.907781 1.150429
0.453739 -0.914809 1.072637
0.541216 -0.900792 1.238237
0.449034 -0.916593 1.132661
0.586849 -0.900804 1.123058
0.484378 -0.914793 1.206512
0.526710 -0.911086 1.037330
0.429701 -0.912429 1.031699
0.474906 -0.910544 1.087520
0.524213 -0.912533 1.157346
0.475189 -0.914264 1.144537
0.430020 -0.922251 1.070744
0.515383 -0.904326 1.225337
0.512570 -0.903122 1.275341
0.419075 -0.911192 1.115726
0.559995 -0.903354 1.108159
0.458543 -0.917311 1.195603
0.501912 -0.915571 1.028429
0.450114 -0.915032 1.078616
0.496348 -0.914109 1.140441
0.446295 -0.912841 1.129618
0.402161 -0.921788 1.059823
0.490594 -0.909828 1.215441
0.397410 -0.921584 1.117837
0.532117 -0.903913 1.093251
0.428588 -0.912924 1.175672
0.485385 -0.934864 1.036569
0.426328 -0.919484 1.072707
0.475669 -0.925509 1.138557
0.422522 -0.918302 1.122713
0.464751 -0.912352 1.202530
0.512535 -0.903866 1.172313
0.462926 -0.911142 1.251531
0.376366 -0.924263 1.054907
0.377758 -0.932925 1.122943
0.511414 -0.914318 1.089363
0.409971 -0.927253 1.181792
0.365574 -0.937585 1.031997
0.398412 -0.917036 1.056776
0.447769 -0.925073 1.121638
0.394590 -0.914851 1.107778
0.444030 -0.921749 1.200635
0.490817 -0.914306 1.165428
0.438091 -0.914647 1.239620
0.349490 -0.922770 1.044973
0.484491 -0.912855 1.073439
0.383034 -0.923795 1.165848
0.378707 -0.926397 1.056869
0.420903 -0.925608 1.107714
0.414032 -0.915369 1.177688
0.368763 -0.916347 1.098851
0.415280 -0.919104 1.230702
0.468070 -0.922769 1.156530
0.463751 -0.921258 1.068534
0.353006 -0.914403 1.143883
0.348689 -0.916993 1.035904
0.393985 -0.923143 1.091773
0.390201 -0.917834 1.168761
0.389406 -0.919631 1.215771
0.439159 -0.921360 1.136603
0.445102 -0.934605 1.069643
0.299904 -0.927672 1.036113
0.428693 -0.917850 1.282617
0.300351 -0.956738 1.031235
0.322757 -0.912492 1.021946
0.371205 -0.928583 1.083853
0.410454 -0.908406 1.226624
0.365552 -0.921102 1.204837
0.418435 -0.930764 1.131697
0.413012 -0.922250 1.042674
0.272940 -0.920183 1.022141
0.398682 -0.911490 1.254667
0.298915 -0.912938 1.013002
0.389674 -0.914816 1.219703
0.346370 -0.930056 1.073918
0.291042 -0.906845 1.059995
0.387427 -0.923402 1.104743
0.253320 -0.932491 1.031234
0.374815 -0.912979 1.239732
0.317330 -0.919637 1.049941
0.228448 -0.929940 1.023272
0.350932 -0.913466 1.223790
0.355916 -0.953276 1.042938
0.299726 -0.934933 1.056041
0.248524 -0.916588 1.058123
0.207780 -0.929046 1.076307
0.205664 -0.932326 1.022324
0.236639 -0.929031 1.007195
0.277923 -0.938329 1.050099
0.225729 -0.918990 1.054176
0.188098 -0.938359 1.082379
0.183891 -0.935688 1.022375
0.219045 -0.944297 1.017287
0.253031 -0.935794 1.037136
0.203914 -0.920371 1.050220
0.283435 -0.921788 1.189965
0.160050 -0.934093 1.018407
0.198272 -0.948646 1.016340
0.184195 -0.927691 1.053281
0.137225 -0.933470 1.016438
0.172345 -0.922713 1.092281
0.143598 -0.964423 1.010550
0.176436 -0.949021 1.011375
0.213822 -0.949081 1.125256
0.162402 -0.930058 1.051324
0.244456 -0.936107 1.038090
0.122779 -0.965764 1.008583
0.152588 -0.928038 1.093331
0.116522 -0.940784 1.022495
0.152514 -0.943445 1.000389
0.186945 -0.939435 1.143262
0.184463 -0.934023 1.010244
0.141602 -0.932404 1.049362
0.100845 -0.941802 1.078519
0.102020 -0.970078 1.012625
0.129667 -0.922446 1.083341
0.094728 -0.942127 1.023527
0.135988 -0.963660 1.016488
0.164847 -0.932006 1.090266
0.165119 -0.940818 1.137298
0.166854 -0.949289 1.018327
0.120822 -0.935736 1.050403
0.081048 -0.944108 1.081551
0.195172 -0.937502 1.137174
0.080160 -0.968437 1.008643
0.107772 -0.918833 1.074354
0.071855 -0.938507 1.018538
0.114124 -0.962025 1.011506
0.146110 -0.939306 1.093316
0.145383 -0.948141 1.139349
0.142945 -0.944715 1.006338
0.097946 -0.932129 1.043412
0.177391 -0.939737 1.152203
0.058077 -0.934518 1.069534
0.176460 -0.946814 1.139229
0.059244 -0.962782 1.003639
0.090160 -0.933078 1.087422
0.092298 -0.962387 1.007527
0.049988 -0.934863 1.015541
0.125326 -0.942650 1.092349
0.124277 -0.955998 1.012398
0.077144 -0.933462 1.043435
0.157650 -0.947074 1.151250
0.156309 -0.951645 1.013267
0.154542 -0.943222 1.125240
0.038454 -0.965104 1.004662
0.069373 -0.935409 1.088448
0.071456 -0.961725 1.004542
0.103481 -0.942024 1.086367
0.103556 -0.963323 1.014442
0.056308 -0.932802 1.040448
0.016535 -0.958466 0.997650
0.048487 -0.931762 1.082449
0.049639 -0.962071 1.002558
0.084749 -0.949313 1.090407
0.081728 -0.963683 1.009460
0.036581 -0.939092 1.046483
-0.000905 -0.965311 1.108685
0.114867 -0.967311 1.013359
-0.003208 -0.963743 1.004680
0.028755 -0.938057 1.087484
0.028843 -0.964396 1.001578
0.061754 -0.938734 1.073386
-0.012169 -0.952747 1.038643
0.062153 -0.957535 1.127452
0.059886 -0.963043 1.003472
0.014758 -0.938438 1.044492
-0.022991 -0.947719 1.089629
-0.023061 -0.962047 1.003681
0.090999 -0.964720 1.002367
0.007892 -0.935396 1.083485
0.009105 -0.970680 1.006609
0.042066 -0.948017 1.081430
0.039149 -0.969356 1.005505
-0.043876 -0.943050 1.086619
-0.039437 -1.060928 1.108046
0.070239 -0.970046 1.001398
-0.011746 -0.969005 1.003611
0.022277 -0.951325 1.081450
0.018306 -0.968686 1.001511
-0.025754 -0.947027 1.053537
-0.057622 -1.219132 1.407623
-0.057849 -1.228583 1.284657
-0.030253 -0.969855 1.121619
0.048548 -0.979369 1.004440
-0.032593 -0.967322 1.001610
0.001392 -0.947669 1.074445
-0.000285 -0.962535 1.120497
-0.073612 -1.226585 1.348650
-0.002358 -0.979970 1.009557
-0.082702 -1.228937 1.287658
-0.046756 -0.934387 1.040497
-0.083378 -1.225473 1.420646
0.027907 -0.992656 1.012491
-0.045806 -1.220638 1.261503
-0.022312 -0.948930 1.102455
-0.101371 -1.231952 1.360668
-0.024306 -0.971332 0.998532
-0.108503 -1.232285 1.295668
-0.062427 -1.222531 1.361509
-0.068114 -1.232393 1.425544
0.005156 -0.997998 1.011515
-0.040319 -0.943325 1.066439
-0.043120 -0.950247 1.101463
-0.041544 -1.084218 1.110918
-0.007860 -0.967867 1.102418
-0.088191 -1.228876 1.371529
-0.011779 -0.968878 1.116422
-0.094952 -1.233780 1.428545
-0.053248 -1.217508 1.374370
-0.058022 -1.225433 1.417397
-0.115964 -1.234254 1.379543
-0.033865 -0.951288 1.091366
-0.078983 -1.226856 1.383398
-0.083814 -1.230796 1.422411
-0.105740 -1.234218 1.391417
-0.065807 -1.224852 1.379256
-0.072622 -1.232874 1.403280
-0.091604 -1.230215 1.382266
-0.100427 -1.237272 1.404286
-0.118422 -1.233591 1.384267
1.797611 -1.073399 2.050066
1.733007 -1.034685 1.835720
1.507340 -0.902682 1.326983
1.606288 -1.010969 1.862202
1.429043 -0.900348 1.540105
1.815115 -1.065536 2.052999
1.472741 -0.896026 1.734022
1.591980 -1.054407 1.876493
1.592583 -0.983732 1.828491
1.625375 -1.038243 1.938575
1.582340 -1.013408 2.000028
1.622950 -1.128357 1.944253
1.614452 -1.047485 1.879421
1.551882 -1.042595 1.990560
1.575823 -1.057236 1.908288
1.648408 -1.121390 1.945170
1.588865 -1.010110 1.967910
1.545584 -1.088106 2.012804
1.584642 -1.114947 1.950320
1.806561 -1.067968 2.042582
1.573481 -1.048406 1.972278
1.532632 -1.038400 2.019482
1.521185 -1.122421 2.014240
1.619175 -1.004450 1.855782
1.527031 -1.126868 1.912148
1.576231 -1.099980 2.002409
1.522277 -1.078832 2.034808
1.650045 -1.070285 1.915653
1.453449 -1.122117 1.957275
1.531667 -1.118950 1.973113
1.494834 -1.109074 2.030312
1.435690 -1.070916 2.062002
1.413919 -1.142220 1.938952
1.492124 -1.139989 1.950776
1.519934 -1.069407 2.055785
1.434116 -1.111808 1.979295
1.392082 -1.084848 2.030787
1.365316 -1.154181 1.907767
1.427397 -1.140699 1.896793
1.479359 -1.088333 2.025486
1.394555 -1.129846 1.957005
1.357554 -1.105936 2.013443
1.435775 -1.105233 1.992220
1.377693 -1.065650 2.061947
1.354990 -1.146897 1.935730
1.313936 -1.117862 1.982257
1.343103 -1.082652 2.039673
1.399218 -1.125219 1.967895
1.276348 -1.132883 1.960014
1.305502 -1.097612 2.013433
1.362654 -1.144202 1.943585
1.277519 -1.078607 2.066786
1.236748 -1.145870 1.934804
