# .PCD v0.7 - Point Cloud Data file format
VERSION 0.7
FIELDS x y z
SIZE 4 4 4
TYPE F F F
COUNT 1 1 1
WIDTH 178
HEIGHT 1
VIEWPOINT 0 0 0 1
POINTS 178
DATA ascii
-0.646797 -2.765282 -0.161241
-0.656057 -2.780384 -0.100306
-0.639486 -2.796583 -0.125229
-0.702716 -2.755128 -0.088292
-0.692570 -2.684050 -0.159033
-0.701810 -2.698151 -0.100096
-0.704419 -2.794436 -0.030321
-0.684256 -2.711369 -0.121009
-0.748406 -2.757334 0.079630
-0.691246 -2.711434 -0.084019
-0.747544 -2.675942 -0.088090
-0.680183 -2.752571 -0.098056
-0.736512 -2.610874 -0.157850
-0.682799 -2.726621 -0.082972
-0.748839 -2.634947 -0.099951
-0.748212 -2.709274 -0.029101
-0.732302 -2.649162 -0.119871
-0.793281 -2.681170 0.076820
-0.678682 -2.785813 -0.072054
-0.820084 -2.760052 0.115505
-0.739308 -2.650230 -0.082886
-0.680070 -2.747811 -0.080929
-0.738474 -2.748697 0.058867
-0.794596 -2.613779 -0.088951
-0.727147 -2.681389 -0.093888
-0.753226 -2.763486 0.016793
-0.779485 -2.537757 -0.156664
-0.731921 -2.669418 -0.079855
-0.791801 -2.560835 -0.098763
-0.792434 -2.693370 0.074883
-0.830762 -2.806376 0.188435
-0.796325 -2.651109 -0.029979
-0.775321 -2.577052 -0.116692
-0.720543 -2.697688 -0.065824
-0.838334 -2.616047 0.073971
-0.866038 -2.689930 0.110670
-0.785368 -2.585099 -0.080735
-0.738080 -2.732869 0.041030
-0.755653 -2.791795 0.065804
-0.726117 -2.678655 -0.074769
-0.784480 -2.678559 0.061031
-0.771238 -2.614269 -0.090730
-0.834563 -2.535723 -0.089745
-0.900803 -2.725440 0.359491
-0.797184 -2.687373 0.017980
-0.816505 -2.458730 -0.154448
-0.775963 -2.598314 -0.074683
-0.828817 -2.481805 -0.098548
-0.834419 -2.617296 0.075075
-0.876700 -2.733272 0.183607
-0.838385 -2.580044 -0.029804
-0.815381 -2.503006 -0.114501
-0.769745 -2.643543 -0.060720
-0.881456 -2.551983 0.071122
-0.909027 -2.616883 0.106851
-0.821393 -2.503086 -0.078511
-0.784218 -2.669749 0.045168
-0.987039 -2.832220 0.450973
-0.803731 -2.727664 0.067941
-0.772231 -2.613548 -0.068623
-0.832674 -2.623448 0.063140
-0.905420 -2.712659 0.347630
-0.886437 -2.771552 0.245545
-0.813327 -2.543216 -0.086555
-0.873641 -2.462719 -0.089555
-0.946915 -2.664369 0.353622
-0.841296 -2.621296 0.018132
-0.815097 -2.526278 -0.071499
-0.865939 -2.408818 -0.097354
-0.877600 -2.555247 0.074217
-0.914621 -2.647271 0.178838
-0.879478 -2.509035 -0.029627
-0.858684 -2.448967 -0.113384
-0.812899 -2.576492 -0.055563
-0.919546 -2.478008 0.069316
-0.906100 -2.687835 0.323797
-0.864687 -2.448055 -0.076391
-0.828338 -2.601696 0.049326
-0.951125 -2.548885 0.103015
-0.843742 -2.646637 0.069148
-0.869143 -2.721074 0.295854
-0.905042 -2.829857 0.315425
-0.814421 -2.547508 -0.063467
-1.031885 -2.752214 0.439168
-0.872824 -2.553436 0.064313
-0.948530 -2.645634 0.342785
-0.929504 -2.700523 0.241713
-0.985964 -2.589392 0.345814
-0.884445 -2.555279 0.019286
-0.857345 -2.465267 -0.067359
-0.902197 -2.342868 -0.097182
-0.914738 -2.481286 0.073410
-0.963869 -2.597232 0.174924
-0.917734 -2.444074 -0.029466
-0.853123 -2.509497 -0.051401
-0.889822 -2.366066 -0.110147
-0.954372 -2.636798 0.321887
-0.872641 -2.545676 0.053443
-0.886971 -2.584623 0.070286
-0.897857 -2.370142 -0.074175
-0.945053 -2.748865 0.310628
-0.989254 -2.476955 0.098199
-0.915329 -2.660044 0.295982
-0.853674 -2.480529 -0.057303
-1.068765 -2.663301 0.426408
-0.911027 -2.483480 0.065489
-0.989714 -2.579667 0.338940
-0.970596 -2.627556 0.237890
-1.030226 -2.533425 0.340930
-0.924694 -2.491315 0.019438
-0.939506 -2.294768 -0.154076
-0.949701 -2.306878 -0.098135
-0.948950 -2.407381 0.072609
-1.002044 -2.526312 0.171102
-0.895465 -2.452533 -0.046277
-0.993534 -2.564869 0.319065
-0.910881 -2.475745 0.057617
-0.985181 -2.674915 0.306808
-0.931298 -2.529649 0.072397
-0.938310 -2.320202 -0.073069
-0.957540 -2.594086 0.296132
-1.107844 -2.588416 0.416595
-0.947303 -2.414577 0.067664
-1.034016 -2.524723 0.335051
-1.014907 -2.572602 0.234999
-0.927142 -2.345364 -0.077061
-1.070491 -2.471527 0.335073
-0.966057 -2.435385 0.020559
-0.992631 -2.289910 -0.091150
-0.969842 -2.223936 -0.151877
-0.983065 -2.242026 -0.097964
-0.986326 -2.347491 0.072753
-1.039269 -2.456441 0.167278
-0.974789 -2.275199 -0.108974
-1.033839 -2.502971 0.317205
-1.026430 -2.609997 0.302954
-1.039575 -2.307264 0.062705
-0.968606 -2.462755 0.073561
-0.982844 -2.280280 -0.073006
-1.001886 -2.539157 0.297240
-0.931430 -2.360688 -0.047023
-0.976568 -2.334750 0.068891
-1.071311 -2.458863 0.331211
-1.051140 -2.500740 0.230181
-0.972741 -2.310431 -0.075018
-0.997355 -2.360553 0.020764
-0.976597 -2.301496 -0.058994
-1.036922 -2.318565 0.072763
-1.034948 -2.276416 -0.030086
-1.077265 -2.452097 0.316301
-1.067755 -2.549123 0.300085
-1.072978 -2.243470 0.060870
-1.041217 -2.475299 0.297388
-0.973997 -2.317795 -0.042949
-1.018326 -2.223454 -0.071869
-1.106297 -2.299390 0.088610
-1.033319 -2.323792 0.070827
-1.092459 -2.362122 0.322509
-1.089517 -2.439904 0.227320
-1.005170 -2.244628 -0.071846
-1.039900 -2.316686 0.020840
-1.011075 -2.241683 -0.055846
-1.072428 -2.262757 0.071894
-1.011899 -2.289912 -0.034920
-1.106155 -2.488298 0.297221
-1.106580 -2.374334 0.312516
-1.032326 -2.320112 0.067938
-1.012552 -2.266971 -0.037841
-1.069842 -2.268994 0.071951
-1.147155 -2.342246 0.323474
-1.119887 -2.367141 0.223515
-1.189735 -2.305090 0.320430
-1.138571 -2.419544 0.293393
-1.151171 -2.333542 0.312570
-1.086107 -2.303270 0.077895
-1.068893 -2.266343 0.072056
-1.168001 -2.346836 0.289589
-1.161827 -2.322932 0.300684
