# .PCD v0.7 - Point Cloud Data file format
VERSION 0.7
FIELDS x y z
SIZE 4 4 4
TYPE F F F
COUNT 1 1 1
WIDTH 1430
HEIGHT 1
VIEWPOINT 0 0 0 1
POINTS 1430
DATA ascii
-0.118862 -1.118369 0.261146
-0.184971 -1.099075 0.099745
-0.155560 -1.099848 0.020515
-0.154600 -1.107940 0.411482
-0.185686 -1.102653 0.395745
-0.156795 -1.097339 0.113543
-0.121513 -1.115237 0.426192
-0.221709 -1.088324 0.378096
-0.188610 -1.097250 0.135786
-0.159495 -1.102839 0.022530
-0.120417 -1.140511 0.851067
-0.223614 -1.111871 0.669996
-0.161729 -1.106345 0.119534
-0.224779 -1.112120 0.905015
-0.128632 -1.102594 0.125304
-0.229436 -1.082281 0.002172
-0.229072 -1.108760 0.467047
-0.228284 -1.090833 0.292130
-0.131324 -1.099052 0.026341
-0.194006 -1.102674 0.594820
-0.233021 -1.086530 0.052179
-0.132800 -1.107429 0.098311
-0.195679 -1.118963 0.650748
-0.163927 -1.111961 0.611544
-0.129857 -1.119261 0.626248
-0.231050 -1.096362 0.581134
-0.135517 -1.112913 0.004299
-0.200429 -1.109933 0.274817
-0.195243 -1.101869 0.819845
-0.231297 -1.097578 0.809140
-0.167781 -1.124063 0.634511
-0.200130 -1.111848 0.445812
-0.166144 -1.115177 0.841555
-0.132086 -1.125482 0.857244
-0.170273 -1.118962 0.430548
-0.171562 -1.116033 0.257567
-0.199863 -1.131221 0.890726
-0.202099 -1.069523 0.011037
-0.235442 -1.054698 0.084371
-0.239657 -1.087364 0.214233
-0.241129 -1.093046 0.156211
-0.140687 -1.121130 0.237307
-0.204569 -1.093676 0.229936
-0.171971 -1.135310 0.872494
-0.173425 -1.088952 0.243727
-0.204855 -1.068639 0.035064
-0.141379 -1.127055 0.411289
-0.142414 -1.112245 0.260370
-0.140837 -1.127135 0.613294
-0.208510 -1.094964 0.099954
-0.181112 -1.102723 0.020703
-0.179167 -1.106824 0.412684
-0.209200 -1.090530 0.393996
-0.145093 -1.110107 0.424411
-0.181309 -1.092220 0.113766
-0.246193 -1.102753 0.668220
-0.213134 -1.093134 0.136001
-0.247258 -1.090225 0.382283
-0.185080 -1.108709 0.021702
-0.147022 -1.137351 0.847299
-0.250399 -1.123057 0.917153
-0.186262 -1.102222 0.118751
-0.251621 -1.096635 0.463285
-0.153179 -1.101473 0.125508
-0.252921 -1.075186 0.004391
-0.253869 -1.095724 0.294300
-0.156873 -1.100922 0.025536
-0.187504 -1.104834 0.609769
-0.153447 -1.110116 0.621487
-0.217552 -1.091547 0.592064
-0.220270 -1.116843 0.650951
-0.257528 -1.082425 0.053389
-0.158344 -1.106293 0.096522
-0.160073 -1.112788 0.003496
-0.255570 -1.087249 0.581371
-0.222882 -1.087810 0.271111
-0.155711 -1.119340 0.853466
-0.223683 -1.102721 0.443044
-0.189748 -1.109049 0.839774
-0.222480 -1.121085 0.885956
-0.192362 -1.117926 0.631737
-0.219811 -1.094746 0.819074
-0.255846 -1.089463 0.809371
-0.196110 -1.111909 0.256782
-0.194828 -1.111827 0.427780
-0.227751 -1.085407 0.012150
-0.264131 -1.080577 0.087450
-0.265666 -1.090941 0.157409
-0.263151 -1.078265 0.215461
-0.229101 -1.090568 0.231142
-0.165182 -1.106990 0.233579
-0.199045 -1.100844 0.246864
-0.196565 -1.121136 0.862763
-0.165929 -1.117913 0.407533
-0.166962 -1.108120 0.259588
-0.232490 -1.086513 0.036181
-0.233015 -1.089857 0.101170
-0.166410 -1.122997 0.611519
-0.202709 -1.097701 0.410917
-0.202396 -1.063630 0.021081
-0.169653 -1.105981 0.423628
-0.270800 -1.105659 0.672390
-0.234757 -1.092426 0.397183
-0.205846 -1.090105 0.113969
-0.237710 -1.095021 0.136180
-0.272009 -1.109926 0.911387
-0.208492 -1.089603 0.021988
-0.272771 -1.085116 0.383503
-0.172626 -1.131196 0.842534
-0.210785 -1.097103 0.117969
-0.275175 -1.090530 0.463495
-0.277408 -1.089620 0.294510
-0.177696 -1.095351 0.124735
-0.276412 -1.068091 0.005606
-0.177040 -1.105995 0.620694
-0.181420 -1.100806 0.025730
-0.211062 -1.095712 0.608000
-0.243841 -1.107718 0.648180
-0.281035 -1.076329 0.054598
-0.243123 -1.094453 0.597244
-0.182852 -1.099172 0.095753
-0.178348 -1.109186 0.845697
-0.213369 -1.107940 0.840962
-0.280118 -1.083150 0.583577
-0.247253 -1.098613 0.443246
-0.247097 -1.121984 0.889138
-0.182314 -1.067684 0.002914
-0.248489 -1.095703 0.273263
-0.216958 -1.113793 0.628949
-0.245398 -1.099667 0.827242
-0.219371 -1.103698 0.425013
-0.282393 -1.090379 0.816564
-0.220615 -1.101787 0.255025
-0.252228 -1.078306 0.013374
-0.286594 -1.068495 0.089682
-0.284036 -1.055851 0.153734
-0.252635 -1.085469 0.232348
-0.287656 -1.073171 0.217671
-0.223589 -1.097732 0.247069
-0.221182 -1.117003 0.859973
-0.190755 -1.108864 0.232768
-0.191500 -1.103000 0.258806
-0.257022 -1.084406 0.036378
-0.252345 -1.053776 0.100510
-0.192465 -1.113776 0.405762
-0.191980 -1.114843 0.605761
-0.292380 -1.093545 0.668615
-0.226258 -1.091594 0.411129
-0.228052 -1.079512 0.021191
-0.193222 -1.100865 0.422838
-0.295631 -1.110845 0.916556
-0.230394 -1.090000 0.115156
-0.259289 -1.087323 0.398394
-0.262209 -1.087915 0.136402
-0.233030 -1.087488 0.021186
-0.296259 -1.073018 0.383741
-0.298758 -1.088433 0.464680
-0.298940 -1.078525 0.293727
-0.235308 -1.091989 0.117183
-0.198209 -1.118021 0.832802
-0.202259 -1.096238 0.124919
-0.300886 -1.062001 0.007818
-0.200632 -1.100873 0.618903
-0.266432 -1.098597 0.644397
-0.235657 -1.097615 0.611176
-0.303538 -1.067238 0.054811
-0.200974 -1.103063 0.842904
-0.202691 -1.058711 0.025120
-0.266665 -1.083335 0.594478
-0.208436 -1.104050 0.094923
-0.236964 -1.100821 0.839178
-0.268689 -1.101826 0.877406
-0.271022 -1.085596 0.271485
-0.270803 -1.090500 0.441464
-0.208992 -1.088555 0.002006
-0.267972 -1.085536 0.821485
-0.241521 -1.106671 0.627172
-0.304636 -1.074047 0.583804
-0.245160 -1.097673 0.254232
-0.243930 -1.098577 0.423225
-0.305947 -1.080273 0.815790
-0.275731 -1.072213 0.014580
-0.306553 -1.048766 0.154936
-0.312148 -1.071398 0.091853
-0.246089 -1.084630 0.246308
-0.275106 -1.069366 0.230600
-0.245781 -1.110874 0.857190
-0.313193 -1.073074 0.219856
-0.215241 -1.095739 0.230024
-0.213980 -1.084885 0.256074
-0.313981 -1.086449 0.667809
-0.280509 -1.075309 0.036600
-0.217007 -1.105649 0.402992
-0.281005 -1.075663 0.103604
-0.249805 -1.084486 0.410343
-0.318244 -1.104748 0.916751
-0.217558 -1.111714 0.603972
-0.216772 -1.092748 0.421060
-0.253598 -1.081401 0.021372
-0.254953 -1.090898 0.116334
-0.282826 -1.080223 0.398605
-0.280582 -1.053832 0.133719
-0.321326 -1.081335 0.463880
-0.256499 -1.076391 0.021420
-0.323514 -1.079433 0.295899
-0.321817 -1.074932 0.387915
-0.256702 -1.064888 0.114487
-0.224821 -1.122912 0.835975
-0.226774 -1.090126 0.124136
-0.223220 -1.090746 0.614127
-0.290008 -1.091486 0.642606
-0.325401 -1.059913 0.010005
-0.259221 -1.089502 0.609394
-0.326032 -1.058156 0.056021
-0.224583 -1.096940 0.840113
-0.230401 -1.085585 0.025183
-0.291224 -1.080240 0.596673
-0.295310 -1.113769 0.889535
-0.259559 -1.089696 0.834404
-0.295375 -1.088396 0.441653
-0.296592 -1.087493 0.272660
-0.233942 -1.098933 0.094141
-0.232511 -1.081444 0.000220
-0.292556 -1.084450 0.825670
-0.266106 -1.101548 0.624380
-0.267682 -1.085564 0.251462
-0.331174 -1.074967 0.589988
-0.268481 -1.093467 0.422432
-0.332496 -1.082208 0.824968
-0.298175 -1.058131 0.015818
-0.337241 -1.074651 0.159016
-0.269630 -1.079531 0.246508
-0.335639 -1.063313 0.093062
-0.270390 -1.107760 0.856387
-0.300663 -1.072274 0.233769
-0.335693 -1.062993 0.221069
-0.336578 -1.081357 0.667995
-0.238538 -1.083778 0.256263
-0.239780 -1.090622 0.228234
-0.338859 -1.093649 0.913956
-0.300941 -1.055233 0.036854
-0.305547 -1.074568 0.104786
-0.240337 -1.087641 0.420262
-0.242549 -1.100527 0.401208
-0.274344 -1.079383 0.410549
-0.242123 -1.102580 0.599202
-0.276027 -1.064314 0.021626
-0.276390 -1.069805 0.114603
-0.306365 -1.074133 0.399806
-0.310267 -1.077713 0.135804
-0.344896 -1.078251 0.466062
-0.346058 -1.071341 0.295100
-0.280999 -1.070287 0.020630
-0.344320 -1.062847 0.388136
-0.246821 -1.089648 0.615306
-0.283314 -1.075780 0.115621
-0.250296 -1.083022 0.123347
-0.315614 -1.096403 0.647762
-0.249411 -1.108747 0.825231
-0.348914 -1.054830 0.011196
-0.248215 -1.098850 0.843277
-0.282796 -1.084403 0.609591
-0.349537 -1.052074 0.057217
-0.253913 -1.078483 0.024394
-0.284162 -1.090611 0.838577
-0.317907 -1.100640 0.882765
-0.317951 -1.082300 0.440846
-0.315788 -1.078155 0.599859
-0.321132 -1.083395 0.272856
-0.317136 -1.083374 0.830849
-0.253259 -1.057842 0.090502
-0.290690 -1.099449 0.625567
-0.255940 -1.065346 -0.000522
-0.355721 -1.070887 0.593180
-0.292216 -1.080459 0.250665
-0.292038 -1.086360 0.420639
-0.360793 -1.071567 0.160195
-0.356044 -1.072117 0.825185
-0.321692 -1.053042 0.016011
-0.359123 -1.055237 0.095267
-0.294155 -1.074432 0.246710
-0.293991 -1.098635 0.851604
-0.360164 -1.077269 0.669180
-0.360471 -1.084554 0.912152
-0.326214 -1.073183 0.235944
-0.360212 -1.058911 0.223260
-0.263107 -1.083675 0.256441
-0.326513 -1.059132 0.037013
-0.265313 -1.087511 0.227435
-0.263912 -1.084542 0.420449
-0.329038 -1.065480 0.104999
-0.297902 -1.075293 0.411738
-0.267085 -1.091405 0.397434
-0.367481 -1.074170 0.467238
-0.299555 -1.060223 0.021815
-0.267664 -1.094457 0.596430
-0.330907 -1.070042 0.400999
-0.301923 -1.069708 0.115785
-0.327649 -1.044644 0.133101
-0.371623 -1.072253 0.297270
-0.304539 -1.067195 0.020813
-0.369842 -1.059766 0.391327
-0.270403 -1.084544 0.614503
-0.338189 -1.087305 0.645967
-0.308885 -1.078677 0.115786
-0.271827 -1.094744 0.842467
-0.306384 -1.082317 0.611768
-0.368342 -1.035779 0.013429
-0.269641 -1.046940 0.120679
-0.275001 -1.104627 0.823436
-0.340510 -1.091535 0.879969
-0.373044 -1.045995 0.058409
-0.306747 -1.079499 0.834794
-0.339337 -1.071070 0.601059
-0.342498 -1.077206 0.441042
-0.277362 -1.065394 0.024631
-0.342630 -1.068308 0.271084
-0.340704 -1.075282 0.831055
-0.280918 -1.075726 0.090604
-0.314250 -1.088331 0.620791
-0.279463 -1.060249 -0.001328
-0.317605 -1.086263 0.421818
-0.379247 -1.060802 0.593392
-0.317764 -1.079359 0.250849
-0.385320 -1.067483 0.161382
-0.381759 -1.070190 0.669362
-0.385074 -1.085494 0.919313
-0.345193 -1.046962 0.017204
-0.381583 -1.067041 0.829383
-0.319586 -1.098546 0.854782
-0.318692 -1.071343 0.247898
-0.348717 -1.063107 0.237151
-0.384647 -1.054154 0.097445
-0.286660 -1.079582 0.256630
-0.383684 -1.047836 0.224476
-0.349994 -1.050049 0.037221
-0.288491 -1.084448 0.421623
-0.289825 -1.079405 0.225652
-0.322486 -1.076206 0.413904
-0.352531 -1.057401 0.106202
-0.389022 -1.062086 0.465446
-0.292636 -1.088297 0.396630
-0.324076 -1.057131 0.022001
-0.351199 -1.042563 0.134272
-0.355444 -1.065961 0.403188
-0.325424 -1.061622 0.115990
-0.293233 -1.091348 0.595626
-0.392134 -1.057176 0.295486
-0.328028 -1.058105 0.020023
-0.292992 -1.078449 0.613693
-0.294448 -1.090652 0.842647
-0.361770 -1.081211 0.645159
-0.394374 -1.055693 0.394512
-0.332377 -1.068587 0.115001
-0.298339 -1.071829 0.122747
-0.330950 -1.079232 0.613953
-0.392840 -1.031706 0.015613
-0.364117 -1.087450 0.881150
-0.298596 -1.093497 0.816660
-0.331346 -1.079422 0.838963
-0.399621 -1.050902 0.059559
-0.366062 -1.072119 0.441228
-0.363883 -1.065989 0.603251
-0.300851 -1.056302 0.023843
-0.366164 -1.061219 0.270279
-0.364259 -1.065191 0.830266
-0.338824 -1.084236 0.620980
-0.306475 -1.076622 0.089776
-0.404696 -1.072401 0.914510
-0.306017 -1.064142 -0.002164
-0.405335 -1.066120 0.672539
-0.341141 -1.076161 0.419031
-0.403781 -1.055735 0.597580
-0.341278 -1.070269 0.250057
-0.408831 -1.059404 0.161579
-0.399015 -1.020128 0.097717
-0.368673 -1.038888 0.018404
-0.342236 -1.066257 0.248084
-0.342175 -1.084420 0.847010
-0.404132 -1.054959 0.828594
-0.374252 -1.061020 0.238333
-0.311196 -1.075489 0.256821
-0.408233 -1.046765 0.227643
-0.373538 -1.046966 0.037394
-0.311047 -1.076357 0.420821
-0.412608 -1.060012 0.467611
-0.376035 -1.050326 0.107396
-0.346003 -1.066117 0.413116
-0.314338 -1.072309 0.224858
-0.349612 -1.057038 0.022174
-0.378976 -1.058884 0.404381
-0.318179 -1.084195 0.395827
-0.374704 -1.034479 0.133471
-0.416689 -1.055101 0.297656
-0.348934 -1.054539 0.116186
-0.318793 -1.086240 0.593828
-0.317574 -1.077364 0.615867
-0.318062 -1.086555 0.841830
-0.351526 -1.050019 0.019223
-0.384334 -1.071122 0.643360
-0.416875 -1.043622 0.394720
-0.353519 -1.070140 0.612152
-0.386725 -1.080362 0.880336
-0.355897 -1.061500 0.114195
-0.321852 -1.064745 0.122945
-0.419416 -1.036617 0.016760
-0.353937 -1.071334 0.838157
-0.325179 -1.093403 0.818841
-0.424129 -1.045827 0.060744
-0.388609 -1.063037 0.440423
-0.387434 -1.058912 0.604443
-0.389723 -1.057137 0.270455
-0.326448 -1.062200 0.022985
-0.390846 -1.071146 0.841409
-0.429299 -1.073352 0.922664
-0.427943 -1.062047 0.673705
-0.363397 -1.079141 0.620170
-0.330966 -1.068530 0.088984
-0.329550 -1.059048 -0.003978
-0.428304 -1.041346 0.160797
-0.364822 -1.064181 0.249245
-0.365687 -1.071074 0.419220
-0.426290 -1.042665 0.597792
-0.366771 -1.063180 0.250263
-0.366773 -1.081334 0.848189
-0.395233 -1.042799 0.019557
-0.432662 -1.043018 0.101814
-0.398789 -1.057946 0.240508
-0.433672 -1.062931 0.844742
-0.334733 -1.069405 0.257011
-0.434766 -1.046691 0.230812
-0.334585 -1.068268 0.420022
-0.399084 -1.046879 0.037561
-0.436179 -1.054934 0.467787
-0.368559 -1.059039 0.413302
-0.400554 -1.046250 0.108576
-0.338867 -1.066212 0.223054
-0.440261 -1.052028 0.298822
-0.371098 -1.044970 0.022378
-0.405365 -1.054376 0.136565
-0.372469 -1.050465 0.117362
-0.403508 -1.053811 0.406566
-0.341705 -1.074102 0.394037
-0.339166 -1.068272 0.613059
-0.340671 -1.079461 0.840018
-0.344356 -1.082140 0.593019
-0.407912 -1.066046 0.644538
-0.376030 -1.044938 0.019410
-0.411315 -1.076286 0.882515
-0.377078 -1.063059 0.612343
-0.443407 -1.042554 0.398893
-0.442931 -1.031555 0.018934
-0.339241 -1.032684 0.120229
-0.380421 -1.056412 0.113382
-0.378533 -1.070265 0.842322
-0.413189 -1.061963 0.442586
-0.437488 -1.010812 0.061008
-0.446912 -1.054257 0.913872
-0.349746 -1.081279 0.812067
-0.412991 -1.057849 0.609612
-0.450536 -1.056984 0.675873
-0.414251 -1.052062 0.271638
-0.346881 -1.042134 0.022226
-0.413406 -1.059063 0.839616
-0.387955 -1.073056 0.620361
-0.452859 -1.039273 0.161961
-0.355487 -1.063441 0.088172
-0.354059 -1.053960 -0.004790
-0.389363 -1.060099 0.249425
-0.388226 -1.059985 0.416423
-0.452829 -1.041608 0.603963
-0.390298 -1.056104 0.250451
-0.388361 -1.066222 0.840406
-0.419764 -1.039721 0.019728
-0.455154 -1.032959 0.103005
-0.456223 -1.051867 0.845939
-0.422289 -1.048879 0.241704
-0.458751 -1.048869 0.468958
-0.358256 -1.061321 0.256207
-0.358145 -1.063187 0.420202
-0.460300 -1.044625 0.233982
-0.424606 -1.044802 0.038733
-0.394134 -1.060970 0.417456
-0.425082 -1.043182 0.110747
-0.462792 -1.042962 0.299007
-0.363404 -1.062128 0.223235
-0.428885 -1.047304 0.136750
-0.392933 -1.033402 0.116581
-0.363746 -1.067200 0.616224
-0.429053 -1.051743 0.409737
-0.397613 -1.043883 0.022553
-0.362264 -1.066357 0.834227
-0.368256 -1.073008 0.394215
-0.431489 -1.059970 0.644717
-0.368927 -1.077050 0.592205
-0.434920 -1.073227 0.886678
-0.399647 -1.055990 0.613523
-0.401580 -1.044848 0.018573
-0.465919 -1.032501 0.401083
-0.471506 -1.038469 0.021074
-0.402111 -1.064196 0.844504
-0.396822 -1.026368 0.111642
-0.362773 -1.027602 0.119408
-0.435739 -1.052889 0.441773
-0.472192 -1.036686 0.062089
-0.468517 -1.045186 0.913050
-0.472116 -1.047920 0.676050
-0.437827 -1.048987 0.271801
-0.435536 -1.047781 0.609803
-0.376336 -1.081193 0.814238
-0.372417 -1.042049 0.022391
-0.437972 -1.055008 0.844789
-0.476400 -1.034209 0.163130
-0.412521 -1.066971 0.619547
-0.380006 -1.057352 0.086361
-0.413795 -1.058906 0.417590
-0.375498 -1.036894 -0.005564
-0.412874 -1.050017 0.247624
-0.477374 -1.036554 0.608137
-0.413827 -1.049031 0.250635
-0.480314 -1.039808 0.469134
-0.416946 -1.073171 0.850550
-0.437161 -1.014692 0.020964
-0.477651 -1.023908 0.105187
-0.445823 -1.042814 0.242880
-0.382807 -1.058240 0.256380
-0.381697 -1.057110 0.420384
-0.481760 -1.045815 0.851124
-0.476736 -1.018587 0.232213
-0.441002 -1.016769 0.037977
-0.417657 -1.051898 0.417650
-0.445559 -1.028130 0.110949
-0.488379 -1.043892 0.301157
-0.385331 -1.058121 0.614408
-0.451406 -1.038235 0.135934
-0.388923 -1.057041 0.222423
-0.420523 -1.040314 0.117717
-0.451575 -1.041684 0.410926
-0.423162 -1.043802 0.022712
-0.455084 -1.055901 0.645882
-0.459521 -1.070162 0.889844
-0.392787 -1.064920 0.392412
-0.423208 -1.048917 0.613705
-0.424713 -1.058129 0.845675
-0.394471 -1.069956 0.590403
-0.427126 -1.043763 0.017737
-0.491466 -1.030444 0.405246
-0.491120 -1.040138 0.917210
-0.431517 -1.054248 0.113713
-0.491932 -1.020431 0.022287
-0.494698 -1.040860 0.677220
-0.459285 -1.044815 0.440957
-0.395430 -1.051496 0.122489
-0.494660 -1.024635 0.063283
-0.456304 -1.027932 0.269020
-0.460091 -1.043726 0.613973
-0.396913 -1.061072 0.802471
-0.462550 -1.050952 0.848958
-0.398981 -1.044957 0.021542
-0.498920 -1.025150 0.163309
-0.436094 -1.059893 0.618728
-0.402491 -1.045283 0.085564
-0.438326 -1.051832 0.417776
-0.438419 -1.047944 0.248791
-0.401022 -1.034810 -0.006394
-0.503875 -1.033747 0.470304
-0.437537 -1.057072 0.842758
-0.438367 -1.044962 0.251806
-0.501911 -1.030505 0.612312
-0.503199 -1.022845 0.107344
-0.468804 -1.031588 0.022068
-0.469342 -1.035758 0.245057
-0.407356 -1.055168 0.257548
-0.406270 -1.055036 0.421547
-0.510354 -1.036511 0.240321
-0.506305 -1.038770 0.856304
-0.441218 -1.046833 0.418819
-0.474650 -1.036655 0.039078
-0.509895 -1.031839 0.301343
-0.471094 -1.026061 0.112112
-0.412478 -1.069241 0.845525
-0.409911 -1.055047 0.615575
-0.474917 -1.030172 0.136115
-0.477648 -1.046838 0.646062
-0.413450 -1.050962 0.221606
-0.443011 -1.029255 0.117910
-0.476105 -1.035624 0.413103
-0.483121 -1.064097 0.891015
-0.437519 -1.009787 0.022973
-0.513731 -1.036098 0.922362
-0.446773 -1.043862 0.616873
-0.449310 -1.056072 0.849833
-0.416309 -1.053837 0.389613
-0.449619 -1.033704 0.017923
-0.516286 -1.032807 0.678386
-0.517008 -1.027393 0.409409
-0.418005 -1.056862 0.585614
-0.482830 -1.037755 0.442132
-0.451967 -1.035192 0.111933
-0.418944 -1.043424 0.121674
-0.488931 -1.044850 0.275127
-0.484631 -1.036668 0.616153
-0.489104 -1.049917 0.858120
-0.524473 -1.023085 0.164466
-0.426489 -1.068017 0.811615
-0.424493 -1.040877 0.020718
-0.460643 -1.051817 0.617915
-0.526437 -1.026698 0.472468
-0.464988 -1.048868 0.249944
-0.462882 -1.046761 0.417948
-0.427607 -1.038717 -0.008254
-0.430052 -1.048192 0.084715
-0.465131 -1.061023 0.850901
-0.463915 -1.043902 0.254963
-0.491293 -1.021539 0.023250
-0.428817 -1.045967 0.420730
-0.528424 -1.025463 0.618490
-0.494874 -1.031693 0.246226
-0.429857 -1.043103 0.256746
-0.463760 -1.037772 0.418998
-0.532850 -1.036745 0.866466
-0.533841 -1.025462 0.241510
-0.534456 -1.027779 0.302503
-0.495134 -1.022611 0.039267
-0.434099 -1.061162 0.843696
-0.496607 -1.021998 0.114281
-0.433495 -1.050982 0.617738
-0.500465 -1.028102 0.137273
-0.501220 -1.038765 0.645239
-0.507711 -1.059037 0.894182
-0.500658 -1.031568 0.416265
-0.471205 -1.032665 0.023055
-0.468550 -1.027184 0.119070
-0.438999 -1.047878 0.220774
-0.532331 -1.020029 0.917546
-0.470350 -1.038801 0.619037
-0.541883 -1.032760 0.684531
-0.472878 -1.048012 0.852012
-0.441840 -1.048764 0.390791
-0.477166 -1.034615 0.017079
-0.507413 -1.034687 0.443288
-0.445579 -1.058792 0.589768
-0.541508 -1.018345 0.412592
-0.475502 -1.029125 0.112100
-0.440450 -1.031361 0.120863
-0.513451 -1.036783 0.275307
-0.508184 -1.029617 0.619322
-0.511668 -1.039865 0.860298
-0.438862 -1.006855 0.019975
-0.451055 -1.058933 0.809805
-0.485217 -1.046750 0.619082
-0.550020 -1.021639 0.473624
-0.487449 -1.042694 0.419109
-0.481444 -1.021816 0.245174
-0.486711 -1.046940 0.846096
-0.450097 -1.027653 -0.009066
-0.487445 -1.035838 0.255138
-0.452393 -1.041902 0.421888
-0.453536 -1.037124 0.083909
-0.552968 -1.019423 0.623655
-0.519394 -1.025642 0.249394
-0.455420 -1.042030 0.257900
-0.557370 -1.018417 0.244674
-0.559006 -1.022723 0.304664
-0.488297 -1.031713 0.421168
-0.557384 -1.027707 0.871645
-0.456687 -1.052096 0.842873
-0.456058 -1.040913 0.615919
-0.526804 -1.037719 0.650387
-0.532297 -1.053991 0.898344
-0.524189 -1.023521 0.418436
-0.495112 -1.028114 0.120216
-0.565462 -1.026717 0.687689
-0.495910 -1.035751 0.623197
-0.465517 -1.043805 0.220947
-0.499459 -1.047970 0.859162
-0.532966 -1.030631 0.445450
-0.468381 -1.044685 0.389964
-0.566041 -1.012307 0.416755
-0.501025 -1.024055 0.111269
-0.464965 -1.025298 0.121034
-0.536002 -1.028731 0.275471
-0.470113 -1.048718 0.587959
-0.532741 -1.024575 0.623483
-0.536226 -1.032824 0.864468
-0.574591 -1.017594 0.476777
-0.473546 -1.030733 0.019052
-0.510772 -1.041693 0.621250
-0.478630 -1.057869 0.812967
-0.510972 -1.031630 0.417295
-0.510968 -1.027787 0.256309
-0.514288 -1.046893 0.852250
-0.514036 -1.033736 0.249297
-0.465474 -0.997639 -0.008828
-0.475922 -1.032843 0.422066
-0.478047 -1.030058 0.083083
-0.576506 -1.010387 0.626825
-0.580555 -1.012680 0.304828
-0.543929 -1.019589 0.250558
-0.480976 -1.039966 0.259055
-0.481296 -1.050042 0.846022
-0.512835 -1.025663 0.423335
-0.584920 -1.024688 0.881808
-0.479635 -1.035861 0.618078
-0.552374 -1.033670 0.653546
-0.555875 -1.044941 0.899516
-0.590060 -1.024686 0.693830
-0.549712 -1.017476 0.421604
-0.520473 -1.030704 0.626357
-0.520039 -1.033911 0.856345
-0.490022 -1.034742 0.220130
-0.557527 -1.025583 0.447607
-0.491917 -1.035624 0.389140
-0.592569 -1.008270 0.421915
-0.560550 -1.022674 0.275633
-0.491510 -1.024228 0.121187
-0.492645 -1.034648 0.584154
-0.558278 -1.018535 0.627650
-0.561797 -1.028791 0.870625
-0.599156 -1.012553 0.479930
-0.536332 -1.036640 0.623413
-0.501188 -1.042788 0.807167
-0.536512 -1.023730 0.257468
-0.536518 -1.026573 0.418458
-0.500493 -1.029791 0.424217
-0.537564 -1.024679 0.248469
-0.535856 -1.031824 0.847440
-0.501497 -1.025915 0.257237
-0.569465 -1.015545 0.253714
-0.502574 -1.023995 0.082248
-0.503882 -1.040988 0.846191
-0.605027 -1.008364 0.635984
-0.537395 -1.021619 0.426487
-0.606460 -1.010661 0.883987
-0.502194 -1.025805 0.617251
-0.576958 -1.029631 0.657696
-0.578474 -1.035891 0.899679
-0.612651 -1.016644 0.694986
-0.574267 -1.012436 0.424758
-0.543036 -1.021660 0.627522
-0.545617 -1.030878 0.862497
-0.579083 -1.014536 0.446774
-0.518582 -1.036670 0.221275
-0.616090 -0.998237 0.424083
-0.516439 -1.026564 0.388318
-0.581837 -1.011506 0.631807
-0.622735 -1.006514 0.482080
-0.520207 -1.033592 0.587308
-0.590351 -1.028775 0.881774
-0.560894 -1.029590 0.624577
-0.561073 -1.020524 0.419617
-0.529757 -1.043748 0.814315
-0.559015 -1.011689 0.257644
-0.563439 -1.031789 0.854585
-0.524028 -1.020741 0.424387
-0.564110 -1.021623 0.249623
-0.529481 -1.038943 0.850338
-0.529037 -1.024857 0.259389
-0.630568 -1.002342 0.642142
-0.562941 -1.016572 0.428645
-0.524775 -1.018759 0.618406
-0.638237 -1.013616 0.701130
-0.602069 -1.028856 0.902834
-0.600519 -1.020589 0.658860
-0.638000 -1.014666 0.901128
-0.573202 -1.032863 0.873631
-0.598791 -1.004403 0.427922
-0.568605 -1.018626 0.632670
-0.605656 -1.012491 0.449919
-0.541084 -1.023619 0.219457
-0.541955 -1.018510 0.388491
-0.609376 -1.008480 0.638961
-0.613922 -1.020754 0.886932
-0.543738 -1.021536 0.585490
-0.587456 -1.025546 0.627733
-0.547594 -1.014696 0.425539
-0.587622 -1.016476 0.421772
-0.550074 -1.025890 0.847508
-0.589012 -1.025749 0.857745
-0.556321 -1.037693 0.815483
-0.551565 -1.014815 0.259555
-0.661824 -1.006587 0.704279
-0.587495 -1.010532 0.430799
-0.548351 -1.012719 0.620557
-0.625102 -1.014550 0.661011
-0.625638 -1.018823 0.905000
-0.596772 -1.022823 0.874798
-0.625336 -1.000368 0.432074
-0.593154 -1.010589 0.634832
-0.631207 -1.006451 0.452074
-0.634926 -1.002456 0.644115
-0.641482 -1.017740 0.896082
-0.568490 -1.013460 0.389650
-0.572275 -1.018488 0.588650
-0.611018 -1.015499 0.626897
-0.576658 -1.023860 0.853652
-0.685411 -0.999566 0.708424
-0.576146 -1.014651 0.429684
-0.612156 -1.007433 0.421936
-0.617587 -1.024719 0.864892
-0.578939 -1.019692 0.630678
-0.580877 -1.026637 0.813659
-0.614038 -1.006499 0.434950
-0.648230 -1.008790 0.906156
-0.681620 -0.986313 0.654464
-0.648659 -1.004516 0.662173
-0.624351 -1.021807 0.883938
-0.617708 -1.003564 0.638986
-0.659041 -0.996706 0.891263
-0.661464 -0.996438 0.650270
-0.595013 -1.006411 0.389815
-0.637574 -1.010469 0.631049
-0.597821 -1.010442 0.588814
-0.709991 -0.992546 0.712570
-0.599239 -1.013827 0.854810
-0.598696 -1.004615 0.429842
-0.644161 -1.019693 0.870043
-0.661824 -0.982733 0.893339
-0.601489 -1.007652 0.629845
-0.678228 -1.004495 0.670313
-0.607433 -1.019597 0.815822
-0.646919 -1.009780 0.885102
-0.644272 -0.999539 0.644131
-0.686028 -0.989425 0.655416
-0.686584 -0.991708 0.901413
-0.665137 -1.006438 0.635197
-0.626367 -1.007406 0.592964
-0.629820 -1.017818 0.866938
-0.626254 -1.002582 0.433982
-0.671730 -1.014668 0.875195
-0.695401 -0.990749 0.912458
-0.702798 -0.996473 0.673462
-0.629054 -1.005629 0.635986
-0.633989 -1.011557 0.816985
-0.674496 -1.007777 0.895239
-0.669832 -0.993522 0.649277
-0.703148 -0.969681 0.895586
-0.646420 -0.997772 0.859106
-0.688683 -0.994411 0.635358
-0.653912 -1.001371 0.595119
-0.723975 -0.987744 0.921600
-0.694305 -1.001638 0.874356
-0.652624 -0.996601 0.637136
-0.662556 -1.008535 0.823130
-0.695072 -0.992756 0.894399
-0.697382 -0.988509 0.655424
-0.684984 -1.011790 0.881216
-0.676193 -0.987581 0.639282
-0.680452 -0.993344 0.597274
-0.730856 -1.008649 0.892486
-0.715649 -0.977737 0.893555
-0.693092 -1.004520 0.830283
-0.755435 -0.997629 0.893638
-0.745207 -0.974747 0.904694
-0.717644 -0.991493 0.829446
-0.754721 -0.976748 0.885663
-0.875178 2.515405 1.710738
-0.854165 2.543367 1.714927
-0.832150 2.567256 1.732092
-0.876833 2.431498 1.674265
-0.813204 2.629106 1.752491
-0.780074 2.597213 1.739322
-0.848932 2.542089 1.731974
-0.875631 2.434336 1.675323
-0.745044 2.630240 1.734559
-0.836110 2.676021 1.731817
-0.700740 2.521652 1.677925
-0.798896 2.592974 1.749334
-0.847732 2.538937 1.731998
-0.875411 2.436159 1.676378
-0.780047 2.708970 1.742074
-0.727674 2.568207 1.718247
-0.795673 2.576870 1.744277
-0.848519 2.541739 1.737065
-0.693658 2.621447 1.678618
-0.717341 2.521226 1.696025
-0.795090 2.825747 1.743858
-0.794417 2.570688 1.746319
-0.729968 2.842768 1.746054
-0.716070 2.510060 1.697035
-0.648658 2.793069 1.709851
-0.733027 2.975477 1.756990
-0.637576 2.877977 1.695503
-0.460086 4.207747 1.803896
-0.401451 3.989019 1.777606
-0.361140 4.258829 1.815380
-0.460647 4.085508 1.818273
-0.442982 4.218544 1.815148
-0.261166 4.297958 1.821795
-0.361416 4.041842 1.791158
-0.343811 4.190807 1.800136
-0.369953 3.915768 1.781468
-0.403406 4.419416 1.822634
1.580299 2.694947 1.914873
1.659509 2.707923 1.821138
1.584114 2.565405 1.848070
1.552974 2.619835 1.906514
1.742756 2.679296 1.953154
1.612846 2.670141 1.897972
1.577610 2.529183 1.867999
1.543400 2.588748 1.906444
1.609729 2.530627 1.824082
1.487900 2.486864 1.856664
1.378160 1.982482 1.839938
1.662791 2.532301 1.898217
1.569041 2.499081 1.870933
1.568081 2.489980 1.883873
1.437495 1.963625 1.849955
1.373864 1.876217 1.867261
1.544895 2.555661 1.911400
1.620474 2.452297 1.867755
1.577808 2.385373 1.831228
1.266661 1.772438 1.766488
1.420239 1.848365 1.869190
1.459095 1.894931 1.815570
1.563603 2.455003 1.870797
1.508302 2.318726 1.872790
1.324680 1.789989 1.858732
1.405011 1.746793 1.796510
1.369632 1.822278 1.845038
1.614043 2.408206 1.869612
1.543779 2.264962 1.857526
1.371033 1.767085 1.867690
1.417002 1.797419 1.848985
1.547483 2.169312 1.807916
1.402503 1.724274 1.855485
1.408756 1.703802 1.786366
4.179806 2.190435 2.046453
4.114997 2.020761 2.096098
4.151809 1.923056 2.096405
4.169702 1.815316 2.088603
3.819708 1.707570 1.945454
4.355114 1.778868 2.162543
4.062858 1.711237 2.044777
3.998394 1.635617 2.077112
4.105624 1.625570 2.045156
4.025225 1.541847 2.078405
4.053057 1.449068 2.081699
4.051970 1.347237 2.071865
4.056874 1.248407 2.066054
4.580802 -2.128011 1.299668
3.672644 -1.739627 1.169893
4.401295 -2.018813 1.185228
3.400725 -1.650879 1.194441
3.294071 -1.867603 0.318052
3.142805 -1.797695 -0.075339
2.973334 -1.746039 0.405088
2.945548 -1.724798 -0.307745
2.891366 -1.700608 -0.271524
2.895453 -1.703460 -0.377560
2.227766 -1.342613 1.120991
2.920655 -1.740183 0.000058
2.995987 -1.794677 0.297525
2.555476 -1.542801 1.109022
4.524722 -2.179455 1.284194
3.058350 -1.856165 0.775902
2.867774 -1.733893 -0.064943
3.217749 -1.850526 0.370936
2.724413 -1.691700 0.380401
2.712639 -1.677813 -0.282495
3.053270 -1.754668 -0.218162
3.502731 -1.898543 1.261591
2.659451 -1.652579 -0.250261
2.995030 -1.726786 -0.156897
2.662523 -1.654529 -0.347287
2.980069 -1.721731 -0.267863
2.214816 -1.408816 1.133175
2.642530 -1.664375 0.004591
2.973122 -1.739786 0.113936
2.855169 -1.813794 1.253166
2.728928 -1.725552 0.278990
2.993417 -1.761427 0.002693
2.761147 -1.766868 0.714565
2.631805 -1.678786 -0.056604
3.049922 -1.844567 0.821817
2.901508 -1.760700 0.341603
3.161008 -1.791553 -0.128646
3.202708 -1.830995 1.173023
2.800280 -1.698797 -0.199820
2.512564 -1.647137 0.360643
2.208742 -1.359604 1.205614
2.761112 -1.679712 -0.143636
3.110929 -1.773539 -0.167494
2.749168 -1.676700 -0.247624
2.768074 -1.703283 0.483132
3.135152 -1.804865 0.073173
2.719101 -1.678712 0.109337
3.049782 -1.765150 0.222557
2.509529 -1.680119 1.301306
2.647344 -1.769710 1.182402
2.513014 -1.675077 0.264296
2.409180 -1.504838 1.103109
2.739393 -1.700420 0.005092
3.135380 -1.835472 0.416825
2.541226 -1.713146 0.670902
2.758716 -1.757194 0.755481
2.893959 -1.729735 -0.118239
2.672579 -1.709274 0.320916
2.948792 -1.777235 1.098342
2.861813 -1.714821 -0.041094
3.231538 -1.803861 0.067102
3.315926 -1.852978 0.144612
2.578345 -1.649679 -0.183523
2.238986 -1.450699 1.240548
3.070613 -1.855790 0.871525
2.841853 -1.708783 -0.153054
2.548211 -1.634483 -0.131375
2.555187 -1.656678 0.456407
2.856027 -1.732998 0.067684
2.787730 -1.701078 0.209995
2.446461 -1.719598 1.112717
2.510222 -1.634299 0.105592
2.684777 -1.760959 1.241367
2.317707 -1.634892 1.226574
3.138450 -1.788483 0.338193
2.806776 -1.722870 0.580781
2.534509 -1.657024 0.006340
3.157358 -1.821209 1.264885
2.848211 -1.756411 0.384410
2.548820 -1.708387 0.709782
2.984543 -1.747693 -0.036530
2.664986 -1.677620 -0.108906
2.956443 -1.738004 0.064560
2.642897 -1.668584 -0.035819
3.080955 -1.817099 0.451777
2.988635 -1.761432 0.130319
2.782415 -1.770370 0.801181
2.454293 -1.670334 1.378166
2.623920 -1.661610 -0.140767
2.947557 -1.739769 -0.056482
2.637095 -1.684676 0.063983
2.295909 -1.482686 1.101083
2.585866 -1.660562 0.200220
2.868347 -1.720397 0.315682
2.504006 -1.725741 1.176539
2.600898 -1.679173 0.549037
2.897332 -1.757426 1.180328
2.629274 -1.705888 0.359733
2.840367 -1.728529 0.680573
2.590775 -1.824584 1.789491
2.571879 -1.704928 1.528754
2.767660 -1.706405 -0.035303
2.717434 -1.681872 0.061941
2.820866 -1.749820 0.417265
2.759675 -1.711141 0.120640
2.230570 -1.399117 1.092872
2.566450 -1.715569 0.749556
2.718583 -1.688622 -0.052149
2.268414 -1.622028 1.298489
2.563495 -1.734875 1.240350
2.664485 -1.680850 0.299902
2.413031 -1.637378 0.520292
2.687437 -1.711432 1.113616
2.636486 -1.685782 0.643830
2.391048 -1.663553 1.446007
2.568767 -1.664992 -0.034055
2.518523 -1.638437 0.060214
2.608934 -1.701229 0.389582
2.560792 -1.669630 0.111888
2.189416 -1.442335 1.083283
2.508612 -1.638341 -0.047806
2.622113 -1.730420 0.788267
2.395725 -1.701580 1.176520
2.466567 -1.635286 0.285201
2.502582 -1.671316 1.053860
2.453616 -1.645920 0.611076
2.511647 -1.696224 1.605605
2.231257 -1.628140 1.375214
2.488202 -1.715428 1.239305
2.339775 -1.653772 1.520890
0.165340 -1.162804 0.034530
0.159332 -1.154241 0.062635
0.153601 -1.166420 0.147469
0.142541 -1.149320 -0.024341
0.138717 -1.157151 0.035553
0.134810 -1.157327 0.198557
0.134890 -1.162565 0.293496
0.132700 -1.147592 0.063670
0.131104 -1.171954 0.472379
0.166921 -1.159740 0.026486
0.126925 -1.153662 0.369605
0.125985 -1.159777 0.147502
0.118146 -1.156450 0.573569
0.115899 -1.141682 -0.022291
0.111041 -1.145517 0.036653
0.109309 -1.160895 0.292468
0.107201 -1.150690 0.198591
0.144206 -1.152607 -0.005466
0.106199 -1.150960 0.065574
0.106589 -1.174008 0.679322
0.105462 -1.165269 0.469418
0.142302 -1.154608 0.221523
0.139339 -1.156089 0.026480
0.138313 -1.151902 0.087540
0.100341 -1.153112 0.147541
0.099310 -1.146025 0.368653
0.100924 -1.189336 0.926129
0.134497 -1.156958 0.392492
0.132520 -1.159583 0.133430
0.091593 -1.154828 0.573539
0.089252 -1.133047 -0.020228
0.089756 -1.161893 0.804462
0.085487 -1.145861 0.037600
0.083707 -1.157229 0.291467
0.080606 -1.146058 0.199602
0.082060 -1.177392 0.681230
0.115331 -1.123998 -0.003139
0.079552 -1.142320 0.066638
0.117762 -1.156660 0.276453
0.079899 -1.164614 0.468377
0.118115 -1.178838 0.669192
0.115727 -1.151975 0.222507
0.115986 -1.169059 0.456300
0.111587 -1.138443 0.026663
0.144830 -1.154934 0.243452
0.111785 -1.153247 0.087471
0.075217 -1.176591 0.916248
0.073720 -1.146452 0.146579
0.072769 -1.145393 0.368611
0.142794 -1.152914 0.012454
0.113593 -1.206301 0.925838
0.107900 -1.152310 0.391503
0.139893 -1.155219 0.108426
0.139938 -1.160031 0.018353
0.105941 -1.156932 0.133414
0.135978 -1.156429 0.120403
0.065018 -1.151210 0.573537
0.063619 -1.126405 -0.018188
0.062118 -1.151240 0.799551
0.059816 -1.136209 0.038680
0.097190 -1.157171 0.596436
0.058120 -1.154580 0.291454
0.056403 -1.168700 0.676297
0.093383 -1.163311 0.829367
0.126265 -1.163463 0.264303
0.055249 -1.157936 0.466419
0.053885 -1.130405 0.198760
0.053907 -1.134671 0.067692
0.092196 -1.155994 0.275413
0.090913 -1.136315 -0.003350
0.125400 -1.169859 0.444231
0.092525 -1.176169 0.666179
0.089105 -1.145320 0.221546
0.090395 -1.166391 0.454287
0.051747 -1.186056 0.924078
0.049152 -1.146795 0.147528
0.086084 -1.142790 0.027557
0.119288 -1.156291 0.244385
0.083909 -1.124611 0.087802
0.121935 -1.199103 0.910873
0.086856 -1.190529 0.912997
0.046159 -1.138765 0.368649
0.115104 -1.140269 0.012572
0.081233 -1.141641 0.388595
0.114309 -1.153555 0.108400
0.112221 -1.145374 0.017498
0.079134 -1.135247 0.130654
0.111413 -1.152627 0.412434
0.110432 -1.157753 0.119337
0.038015 -1.121767 -0.016173
0.037372 -1.139559 0.569640
0.142459 -1.154478 0.125361
0.141398 -1.150136 0.023408
0.035600 -1.151681 0.802496
0.141532 -1.159186 0.102293
0.071486 -1.144449 0.589557
0.139425 -1.149922 0.005406
0.033193 -1.128575 0.039732
0.032490 -1.147922 0.290495
0.032706 -1.158984 0.671382
0.030615 -1.152262 0.464449
0.099662 -1.152477 0.614432
0.067818 -1.161697 0.829341
0.100871 -1.169943 0.650202
0.099688 -1.160798 0.262289
0.066632 -1.155345 0.275374
0.065314 -1.132663 -0.002349
0.066866 -1.167465 0.660247
0.028377 -1.133782 0.200668
0.134732 -1.163178 0.245239
0.098824 -1.167192 0.441217
0.027251 -1.124041 0.068785
0.064723 -1.156700 0.450368
0.063544 -1.144682 0.222507
0.027056 -1.175330 0.916175
0.094981 -1.166757 0.855253
0.060448 -1.136127 0.027599
0.023489 -1.137143 0.147610
0.092626 -1.146626 0.242465
0.095323 -1.193398 0.902899
0.059501 -1.137952 0.088578
0.061308 -1.190906 0.911944
0.021577 -1.137127 0.369626
0.089538 -1.139603 0.012533
0.127198 -1.177783 0.883085
0.124806 -1.155524 0.261326
0.055678 -1.141015 0.389556
0.087709 -1.148908 0.108413
0.053634 -1.139604 0.131549
0.085634 -1.141721 0.017497
0.085802 -1.147959 0.410449
0.083794 -1.150094 0.118390
0.118951 -1.155858 0.430326
0.013385 -1.116121 -0.014142
0.012851 -1.142960 0.572550
0.116837 -1.149804 0.124376
0.115947 -1.157496 0.100268
0.114856 -1.150482 0.023354
0.009996 -1.146060 0.801524
0.009511 -1.119893 0.039805
0.009084 -1.155311 0.669387
0.045971 -1.146864 0.592478
0.008852 -1.143240 0.289515
0.112831 -1.146241 0.003406
0.006991 -1.148591 0.463455
0.042123 -1.148981 0.821463
0.074144 -1.154865 0.615353
0.074097 -1.158123 0.260277
0.004439 -1.173695 0.917155
0.074303 -1.167292 0.647188
0.041035 -1.151674 0.273376
0.003793 -1.132136 0.201646
0.041285 -1.164817 0.658235
0.003607 -1.118388 0.070818
0.073198 -1.161501 0.437246
0.039626 -1.121029 -0.000239
0.108141 -1.159499 0.242239
0.039094 -1.150027 0.447410
0.107256 -1.163905 0.421194
0.106221 -1.155739 0.632322
0.037914 -1.138022 0.221549
0.107445 -1.174752 0.634067
-0.000170 -1.130469 0.147656
0.069414 -1.165120 0.853227
0.068060 -1.146964 0.242415
0.034771 -1.125469 0.027695
0.068703 -1.186696 0.894939
0.035594 -1.177154 0.901080
0.033849 -1.129311 0.089647
0.101522 -1.168050 0.874168
-0.004019 -1.132507 0.370642
0.062847 -1.126955 0.012654
0.099177 -1.149848 0.259355
0.062000 -1.136239 0.107536
0.100844 -1.192160 0.880841
0.030054 -1.134367 0.388599
0.061191 -1.144296 0.409453
0.060009 -1.136060 0.017527
0.028040 -1.135939 0.130551
0.058169 -1.144426 0.117420
0.093326 -1.150193 0.428355
-0.011186 -1.115477 -0.012177
0.090250 -1.146147 0.123376
-0.013791 -1.132318 0.569645
0.089138 -1.137806 0.022478
-0.014536 -1.151655 0.668394
0.089382 -1.155838 0.099241
0.021309 -1.138176 0.588550
-0.015765 -1.138576 0.288533
-0.015582 -1.142456 0.801527
-0.016021 -1.121267 0.041742
-0.016686 -1.139897 0.460529
0.086243 -1.142577 0.002406
-0.019259 -1.162974 0.910256
0.049523 -1.150189 0.612371
0.017647 -1.160131 0.655255
0.017559 -1.148360 0.821428
0.016423 -1.148006 0.272381
0.048672 -1.160592 0.641231
0.047443 -1.148452 0.257358
0.015526 -1.151369 0.447350
0.047577 -1.155814 0.433275
0.014939 -1.110374 0.000860
-0.021837 -1.124509 0.202703
-0.021957 -1.116765 0.072795
0.081609 -1.152061 0.629326
0.081541 -1.154824 0.239253
0.013227 -1.127353 0.220648
0.080622 -1.156215 0.416249
0.080823 -1.168062 0.628108
0.044832 -1.163485 0.852205
0.011993 -1.175495 0.899060
0.042417 -1.139307 0.241471
-0.025790 -1.123812 0.146700
0.010140 -1.119802 0.027727
0.043132 -1.185050 0.891914
0.009151 -1.117649 0.089760
0.076923 -1.165359 0.869159
0.074560 -1.146175 0.258360
0.038224 -1.122285 0.012673
0.006434 -1.130708 0.388606
-0.030605 -1.126893 0.370671
0.036382 -1.130588 0.107566
0.004391 -1.130266 0.130586
0.073252 -1.186474 0.872866
0.035541 -1.135624 0.406524
0.034331 -1.125404 0.017625
0.068651 -1.141492 0.424428
0.031531 -1.135762 0.115489
-0.036666 -1.121836 -0.011306
-0.038187 -1.144976 0.665442
0.064601 -1.138481 0.122434
-0.039398 -1.133915 0.288554
-0.039411 -1.124691 0.568703
0.062519 -1.131148 0.021520
0.062697 -1.144157 0.096351
-0.004238 -1.137586 0.590513
-0.040646 -1.115605 0.041775
-0.041266 -1.138260 0.460508
-0.041286 -1.126767 0.794692
-0.042897 -1.157310 0.907290
0.060617 -1.136904 0.001437
0.024883 -1.143516 0.609417
-0.007003 -1.152436 0.650314
-0.007095 -1.139692 0.817500
-0.008164 -1.146355 0.272360
0.022884 -1.145104 0.428375
0.023057 -1.154908 0.636262
0.022865 -1.147784 0.256324
-0.009148 -1.141663 0.442437
-0.009532 -1.118706 0.000705
0.057013 -1.149400 0.627318
0.021104 -1.150732 0.843334
-0.046579 -1.111120 0.073828
-0.047399 -1.122885 0.203681
0.054958 -1.151166 0.237255
-0.012248 -1.133752 0.223518
-0.012680 -1.165789 0.892146
0.018802 -1.136639 0.241466
0.054066 -1.154555 0.413223
-0.049430 -1.118158 0.147736
0.018450 -1.175300 0.882001
0.053273 -1.159657 0.864194
0.053237 -1.162390 0.622134
-0.014465 -1.116138 0.027734
-0.015419 -1.117002 0.090726
0.048927 -1.139507 0.256404
0.013548 -1.112632 0.013760
-0.019171 -1.125069 0.387638
-0.055255 -1.118256 0.370744
0.011955 -1.134980 0.407491
0.011774 -1.126927 0.107573
-0.020270 -1.121596 0.129659
0.046599 -1.176750 0.862949
0.009711 -1.120725 0.016645
0.044139 -1.145860 0.425325
0.006921 -1.132089 0.114495
-0.061823 -1.139314 0.663477
-0.058741 -1.077186 -0.007745
0.039952 -1.131806 0.121481
-0.063980 -1.132271 0.288535
-0.064915 -1.131587 0.458557
-0.064736 -1.135476 0.893544
-0.028814 -1.135959 0.590493
0.036876 -1.123494 0.021579
-0.064954 -1.124121 0.571667
0.037099 -1.140493 0.095355
-0.065217 -1.114960 0.042743
0.001218 -1.135833 0.606479
0.034843 -1.118237 0.000645
-0.031693 -1.140734 0.644428
-0.032805 -1.139681 0.270407
-0.001513 -1.154267 0.635228
0.033317 -1.139675 0.621408
-0.032692 -1.134082 0.816532
-0.001960 -1.125056 0.250587
-0.033751 -1.138013 0.441443
-0.002670 -1.144465 0.427339
-0.003586 -1.139012 0.835448
-0.035118 -1.115070 0.001711
-0.037259 -1.164166 0.891126
-0.072109 -1.112504 0.075767
-0.072060 -1.113253 0.204769
0.029373 -1.148499 0.235246
-0.036116 -1.107042 0.219837
0.028705 -1.159014 0.862159
-0.006775 -1.134002 0.241457
-0.074031 -1.114508 0.147744
-0.007162 -1.169635 0.877032
0.027466 -1.148900 0.410253
0.027597 -1.154694 0.616193
-0.038983 -1.120475 0.027634
-0.040073 -1.108347 0.090801
0.024330 -1.136855 0.256397
-0.011033 -1.110969 0.013741
-0.012637 -1.132328 0.406485
-0.043779 -1.120432 0.387659
-0.012899 -1.117257 0.106661
-0.080761 -1.121673 0.373657
-0.044904 -1.114930 0.128707
0.020397 -1.132139 0.420469
-0.014884 -1.118062 0.016638
0.019906 -1.162990 0.850088
-0.084475 -1.133654 0.662516
-0.017720 -1.125419 0.113543
0.015343 -1.128134 0.120488
-0.085972 -1.104573 -0.007156
-0.089152 -1.149042 0.906323
-0.088621 -1.124619 0.287597
-0.088560 -1.124931 0.457608
0.013204 -1.115803 0.020643
-0.086223 -1.077263 0.043214
-0.053495 -1.124284 0.586608
0.011457 -1.132821 0.093415
-0.089596 -1.115489 0.570743
-0.023402 -1.130169 0.603513
0.010281 -1.118558 -0.000402
-0.056248 -1.141126 0.645382
0.009721 -1.138006 0.619390
-0.091451 -1.118608 0.797718
-0.057462 -1.131026 0.269482
-0.026184 -1.144563 0.629316
-0.057272 -1.131473 0.816526
-0.058373 -1.132354 0.439478
-0.027435 -1.131435 0.251458
-0.027165 -1.138386 0.835417
-0.028268 -1.139817 0.425358
-0.060908 -1.157491 0.887176
0.005997 -1.149264 0.854252
-0.059783 -1.105426 0.002800
-0.096689 -1.110879 0.077749
-0.096666 -1.108624 0.205791
0.003721 -1.139822 0.232319
-0.061559 -1.116448 0.222668
-0.031888 -1.154867 0.865189
-0.031445 -1.124330 0.239546
0.002834 -1.143207 0.406287
-0.098640 -1.109862 0.147766
0.002065 -1.156053 0.614130
-0.063617 -1.113833 0.028682
