# .PCD v0.7 - Point Cloud Data file format
VERSION 0.7
FIELDS x y z
SIZE 4 4 4
TYPE F F F
COUNT 1 1 1
WIDTH 96
HEIGHT 1
VIEWPOINT 0 0 0 1
POINTS 96
DATA ascii
3.064901 -2.985410 -0.222107
2.816373 -2.831296 -0.143787
2.588178 -2.649856 -0.185190
2.915882 -2.988933 0.229387
2.889414 -2.868494 -0.072655
2.621455 -2.712327 -0.335544
2.634554 -2.653121 -0.239907
2.632566 -2.653123 -0.241913
2.562464 -2.705744 -0.128673
2.964281 -2.916358 -0.152606
2.758119 -2.817687 -0.075707
3.029969 -2.984598 -0.180892
3.002185 -2.983325 -0.016970
2.545797 -2.652612 -0.060174
2.851236 -2.896245 0.050178
2.565208 -2.647981 -0.130927
2.561311 -2.646824 -0.152931
2.679688 -2.869605 -0.074335
2.843436 -2.855623 -0.041408
2.826556 -2.841346 -0.088360
2.996372 -3.019116 0.033893
2.676791 -2.789195 -0.014598
2.243799 -2.538507 0.197591
2.504602 -2.668232 0.049747
2.925819 -3.024046 0.171629
2.456961 -2.760681 -0.067231
2.530049 -2.661377 -0.036992
2.525250 -2.659032 -0.080991
2.673974 -2.917471 -0.017555
2.235842 -2.540027 0.225713
2.145065 -2.547519 0.197236
1.804503 -2.147324 -0.122857
1.760805 -2.115797 -0.225754
1.759894 -2.115647 -0.243756
2.148990 -2.583279 0.279985
1.830717 -2.135803 -0.167564
1.767561 -2.165123 -0.079083
2.243097 -2.567442 0.254666
2.203683 -2.624537 0.227986
2.153266 -2.681757 0.204264
1.729812 -2.161154 -0.118156
1.792432 -2.163435 -0.032862
1.701236 -2.145506 -0.221122
1.696311 -2.143402 -0.238121
1.744915 -2.134696 -0.164788
1.752993 -2.145654 -0.162845
1.804752 -2.152927 -0.091622
1.800809 -2.148800 -0.109603
1.700953 -2.188878 -0.075428
1.732510 -2.151955 -0.039941
2.205879 -2.643956 0.253983
2.168480 -2.706070 0.231270
1.704613 -2.236562 -0.117761
1.723793 -2.183192 -0.030186
1.786542 -2.196437 0.049023
1.993474 -2.371625 0.134466
1.665919 -2.205988 -0.220645
1.666043 -2.209836 -0.238672
1.698493 -2.181264 -0.164241
1.699495 -2.183285 -0.161253
1.740125 -2.174637 -0.089949
1.729113 -2.161563 -0.107885
1.784745 -2.164892 -0.023637
1.782907 -2.162581 -0.060626
1.663640 -2.250385 -0.073965
1.690124 -2.203489 -0.039418
1.836066 -2.233923 0.022011
2.182778 -2.739383 0.256200
1.718739 -2.171592 -0.004981
1.664260 -2.294088 -0.116280
1.704617 -2.263544 -0.029811
2.011651 -2.502731 0.137561
1.777473 -2.290718 0.049323
1.644770 -2.288341 -0.222291
2.455900 -3.397932 -0.375255
2.189888 -2.743560 0.265313
1.670219 -2.249693 -0.162803
1.665185 -2.243715 -0.164773
1.695703 -2.222171 -0.090403
1.721119 -2.185558 -0.024952
1.695827 -2.225000 -0.110424
1.716280 -2.182275 -0.061942
1.626314 -2.311882 -0.072503
1.714956 -2.189012 0.019009
1.661876 -2.273900 -0.039996
1.696522 -2.245945 -0.006569
1.659205 -2.314102 -0.028292
1.657337 -2.277644 -0.091899
1.701950 -2.265881 -0.027575
1.663534 -2.289419 -0.112969
1.676912 -2.235739 -0.065424
1.718984 -2.296146 0.015252
2.304013 -3.420686 -0.117911
1.659169 -2.303408 -0.008078
1.654477 -2.308414 -0.029002
1.638532 -2.289185 -0.068905
