# .PCD v0.7 - Point Cloud Data file format
VERSION 0.7
FIELDS x y z
SIZE 4 4 4
TYPE F F F
COUNT 1 1 1
WIDTH 2307
HEIGHT 1
VIEWPOINT 0 0 0 1
POINTS 2307
DATA ascii
-0.106107 2.040274 1.735991
-0.099996 2.040303 1.745955
-0.094414 2.674566 1.735316
-0.118682 1.960222 1.710576
-0.068740 2.703980 1.736367
-0.058993 2.055004 1.740814
-0.056798 2.046989 1.747746
-0.106121 2.071162 1.750275
-0.035724 2.726320 1.764329
-0.102260 2.675640 1.704457
-0.126773 1.913201 1.692351
-0.088518 2.574831 1.706675
-0.072886 2.007714 1.746639
-0.125133 2.069102 1.713431
-0.002094 2.760860 1.765373
-0.011515 2.046746 1.743483
-0.008837 2.067785 1.744613
-0.060782 2.066929 1.744981
0.023619 2.724305 1.759972
-0.042088 2.773193 1.765787
-0.103092 2.496700 1.688287
-0.085121 1.975505 1.745545
-0.028265 2.664440 1.759950
-0.027627 2.010448 1.745399
-0.078247 2.109629 1.746442
0.062049 2.694215 1.717545
-0.014575 2.076615 1.752785
-0.066004 2.844790 1.767506
-0.117837 2.433498 1.680003
-0.095326 1.942336 1.743432
0.020227 2.776181 1.767452
-0.046964 2.598155 1.753675
-0.041830 1.975213 1.743296
-0.094762 2.158324 1.750944
0.034955 2.674433 1.762662
-0.029979 2.115361 1.752208
-0.000586 2.841834 1.768114
-0.065748 2.539829 1.753453
-0.052979 1.938035 1.740163
0.011255 2.608046 1.759416
-0.043306 2.150162 1.748596
0.017116 2.046473 1.699465
-0.016316 2.903603 1.763725
0.061938 2.748204 1.713113
-0.009415 2.540716 1.755144
0.007253 2.133020 1.740197
0.052485 2.872781 1.751130
0.045389 2.501753 1.730572
2.339344 2.924218 1.860452
2.337344 2.795390 1.810708
2.167314 2.174946 1.791744
2.536673 2.900284 1.911883
2.289762 2.186103 1.842540
2.293388 2.085263 1.800996
2.328699 2.014661 1.786551
2.918039 -1.304830 -0.043360
2.927482 -1.313138 0.311568
2.850566 -1.282084 -0.302065
2.864562 -1.288226 -0.376142
2.839638 -1.284446 -0.278064
2.910903 -1.336300 0.406414
2.852055 -1.319123 0.737667
2.805000 -1.292871 -0.069064
2.723577 -1.302348 0.296014
2.706149 -1.291325 -0.036877
2.890865 -1.282185 -0.264984
2.679880 -1.285232 -0.284791
2.676816 -1.284621 -0.351782
2.663918 -1.284646 -0.260757
2.768602 -1.346216 0.845597
2.704980 -1.324474 0.384868
2.845339 -1.292631 0.036019
2.665144 -1.311943 0.700050
2.845748 -1.301767 0.359955
2.610158 -1.283181 -0.061646
2.895210 -1.331613 0.499634
2.844315 -1.315942 0.787857
2.777392 -1.290335 0.028153
2.995115 -1.319983 0.431691
2.532632 -1.287398 0.281464
2.712142 -1.278094 -0.175644
2.517255 -1.277534 -0.031440
2.712125 -1.281387 -0.249673
2.696183 -1.279280 -0.175627
2.493965 -1.271925 -0.328364
2.495038 -1.273524 -0.265377
2.484082 -1.273873 -0.242360
2.562544 -1.326102 0.795112
2.876742 -1.300428 0.134036
2.519050 -1.311423 0.365292
2.655497 -1.284809 0.036403
2.492207 -1.301612 0.665428
2.852713 -1.298333 0.096092
2.654858 -1.292772 0.340349
2.431278 -1.270272 -0.056235
2.707324 -1.324544 0.475006
2.657372 -1.306691 0.745238
2.848649 -1.322613 0.837915
2.685781 -1.330034 0.912001
2.891670 -1.343740 0.586662
2.590514 -1.279467 0.028543
2.765569 -1.289630 -0.077715
2.778111 -1.302181 0.404177
2.735423 -1.280219 -0.153594
2.748565 -1.288649 -0.095683
2.539340 -1.272171 -0.164327
2.375786 -1.281091 0.269760
2.353400 -1.267444 -0.027100
2.528268 -1.269624 -0.233291
2.530397 -1.275270 -0.165341
2.335230 -1.265497 -0.249065
2.324115 -1.259049 -0.306995
2.930319 -1.309288 0.468998
2.325271 -1.265825 -0.227053
2.394611 -1.315672 0.756450
2.687871 -1.291531 0.129388
2.473605 -1.271883 0.037778
2.671861 -1.291336 0.090411
2.357169 -1.302130 0.349606
2.326252 -1.288184 0.630784
2.474918 -1.278648 0.322728
2.288524 -1.268960 -0.051021
2.526395 -1.312383 0.451366
2.479393 -1.292336 0.704617
2.861784 -1.314079 0.880069
2.664698 -1.312283 0.792266
2.815897 -1.293216 0.021281
2.695690 -1.328674 0.556071
2.509824 -1.318620 0.866351
2.817914 -1.296822 -0.017754
2.799807 -1.289585 -0.061668
2.423661 -1.270356 0.027862
2.868901 -1.336054 0.673862
2.568642 -1.272904 -0.071290
2.611277 -1.298896 0.383442
2.558594 -1.272308 -0.144273
2.558643 -1.272843 -0.089276
2.387568 -1.268997 -0.154082
2.750060 -1.291226 0.151395
2.230949 -1.274648 0.259023
2.219653 -1.267019 -0.022905
2.387565 -1.272352 -0.221114
2.377615 -1.271105 -0.155087
2.739399 -1.299178 0.440352
2.725177 -1.293235 0.225415
2.191431 -1.258271 -0.233796
2.189371 -1.256737 -0.290782
2.183481 -1.259568 -0.212796
2.507950 -1.277514 0.124763
2.242688 -1.305077 0.720756
2.321757 -1.263607 0.038065
2.507028 -1.285172 0.086696
2.192400 -1.283483 0.605013
2.343173 -1.282051 0.309883
2.209309 -1.293679 0.334888
2.679825 -1.303673 0.830410
2.372523 -1.304953 0.431646
2.326475 -1.282753 0.669914
2.149704 -1.261585 -0.045760
2.481668 -1.293905 0.745680
2.630017 -1.282309 0.021634
2.518729 -1.314422 0.529441
2.622982 -1.281005 -0.017347
2.366970 -1.315923 0.829573
2.619952 -1.280649 -0.057341
2.273819 -1.262054 0.028144
2.699017 -1.330708 0.644142
2.418853 -1.269652 -0.066053
2.436323 -1.283659 0.361817
2.415841 -1.272008 -0.136072
2.416910 -1.274499 -0.085094
2.586233 -1.286988 0.141657
2.241754 -1.261730 -0.144816
2.229672 -1.257253 -0.206762
2.100125 -1.269057 0.250253
2.095893 -1.265461 -0.019720
2.571515 -1.291843 0.415645
2.235807 -1.264784 -0.146835
2.568354 -1.289941 0.217659
2.058603 -1.248890 -0.220530
2.058587 -1.250375 -0.273545
2.355093 -1.269203 0.121045
2.048645 -1.249209 -0.199518
2.108817 -1.298331 0.690998
2.346133 -1.272932 0.082023
2.186971 -1.260138 0.038280
2.059489 -1.272751 0.579288
2.193252 -1.268598 0.295206
2.516911 -1.296107 0.786696
2.083499 -1.289996 0.322092
2.196627 -1.278978 0.642123
2.218584 -1.290500 0.411982
2.340796 -1.289183 0.710911
2.019876 -1.253089 -0.041508
2.460111 -1.269208 0.021978
2.368847 -1.306906 0.506709
2.457098 -1.269862 -0.017025
2.449056 -1.267586 -0.053996
2.212985 -1.300277 0.788918
2.526044 -1.316350 0.612499
2.147038 -1.259494 0.028338
2.293463 -1.277107 0.344066
2.275036 -1.263319 -0.060803
2.266998 -1.262743 -0.128790
2.272082 -1.267164 -0.080834
2.433387 -1.280623 0.132917
2.101883 -1.249379 -0.135518
2.315252 -1.311297 0.890756
2.413617 -1.282401 0.392938
2.396379 -1.271749 0.207047
2.098871 -1.250827 -0.195529
1.967206 -1.254456 0.240561
1.967030 -1.253946 -0.015445
2.100983 -1.256382 -0.137580
1.933740 -1.238910 -0.258276
1.933780 -1.239412 -0.207278
2.223287 -1.265656 0.117252
1.928838 -1.241658 -0.188291
2.199238 -1.260526 0.077327
1.984953 -1.291481 0.663222
2.060135 -1.252565 0.038515
2.379053 -1.293325 0.749901
1.934573 -1.260916 0.553558
2.061378 -1.258960 0.282466
2.063713 -1.268195 0.612394
2.198870 -1.278452 0.676192
1.947558 -1.273386 0.308419
2.321310 -1.265770 0.022191
2.095776 -1.287757 0.397168
2.315278 -1.264442 -0.017791
2.228960 -1.298285 0.485968
2.312271 -1.265143 -0.051795
1.896030 -1.242513 -0.037250
2.382160 -1.309738 0.587745
2.093156 -1.298378 0.760090
2.021208 -1.251906 0.028571
2.165629 -1.272409 0.329275
2.152266 -1.261742 -0.056628
2.139191 -1.257241 -0.121574
2.148302 -1.264595 -0.076649
2.272433 -1.263320 0.124280
2.266686 -1.269829 0.371239
1.982074 -1.242795 -0.127303
2.190384 -1.307399 0.856951
2.259543 -1.266210 0.199274
1.976046 -1.242291 -0.185293
1.861414 -1.251580 0.232723
1.970104 -1.242910 -0.129289
1.852198 -1.245260 -0.012218
2.098477 -1.261031 0.114454
1.824995 -1.233733 -0.196087
1.824959 -1.233249 -0.245085
2.090507 -1.263732 0.074438
1.823072 -1.237938 -0.178122
2.232086 -1.279576 0.709210
1.936275 -1.241945 0.038769
1.869069 -1.282546 0.637448
1.941503 -1.249188 0.270707
1.835775 -1.259876 0.535692
1.851165 -1.275271 0.894548
2.081019 -1.274513 0.647376
1.952874 -1.264226 0.588569
2.190488 -1.260222 0.021407
2.192510 -1.263821 -0.017629
1.980945 -1.282922 0.383356
2.244249 -1.300045 0.563005
2.111149 -1.296461 0.469133
2.187484 -1.262559 -0.049613
1.841766 -1.270491 0.298578
1.975279 -1.291429 0.730301
2.041754 -1.263641 0.313509
1.900334 -1.240239 0.027829
2.028424 -1.253157 -0.052394
2.004299 -1.242786 -0.115273
2.157671 -1.264547 0.117413
2.020443 -1.254050 -0.072393
2.148887 -1.268996 0.354394
2.066470 -1.298463 0.822185
2.127668 -1.256609 0.192525
1.876321 -1.241037 -0.121155
1.870284 -1.239558 -0.176136
1.766642 -1.250596 0.226849
1.866333 -1.240127 -0.123135
1.968564 -1.246427 0.110747
1.966624 -1.252064 0.070696
2.116252 -1.277600 0.679369
1.841712 -1.247226 0.261847
1.832500 -1.239117 0.039922
1.757084 -1.268668 0.522707
1.965133 -1.266545 0.619589
1.746250 -1.265122 0.859766
2.066647 -1.252594 0.021629
1.762202 -1.274532 0.614650
1.839967 -1.253249 0.563806
2.065649 -1.254212 -0.018386
2.105271 -1.283332 0.537325
1.987223 -1.283656 0.450400
2.067679 -1.257900 -0.048423
1.863048 -1.271091 0.368607
1.741966 -1.266538 0.290734
1.862374 -1.281429 0.702527
1.919844 -1.250846 0.298773
1.897485 -1.234627 -0.048066
1.806593 -1.241292 0.027933
2.035809 -1.255827 0.110640
1.895533 -1.238447 -0.069100
1.898526 -1.240020 -0.109119
2.024987 -1.258195 0.336641
2.010823 -1.249839 0.185727
1.957617 -1.294417 0.793352
2.045724 -1.294507 0.887309
1.866772 -1.243544 0.108895
1.787465 -1.267283 0.906754
1.996340 -1.267626 0.647602
1.860803 -1.246208 0.067876
1.853220 -1.255528 0.592821
1.962875 -1.251750 0.021760
1.754194 -1.255062 0.546889
1.944771 -1.242537 -0.018137
2.004495 -1.285320 0.521426
1.945792 -1.245252 -0.046164
1.873325 -1.272756 0.433633
1.765234 -1.267081 0.357758
1.826067 -1.250793 0.287883
1.761518 -1.275333 0.678699
1.584529 -1.214057 -0.026612
1.805758 -1.236670 -0.045978
1.925968 -1.248981 0.104831
1.805777 -1.240088 -0.105012
1.800774 -1.237527 -0.065981
1.907070 -1.245325 0.319896
1.904003 -1.244965 0.179896
1.851710 -1.285311 0.763556
1.946877 -1.292344 0.858442
1.558747 -1.222585 -0.003662
1.886443 -1.258564 0.618810
1.745876 -1.229428 0.065162
1.538592 -1.213739 -0.209566
1.542660 -1.218109 -0.168610
1.898612 -1.277309 0.502619
1.766445 -1.257318 0.572902
1.537674 -1.217343 -0.150596
1.854040 -1.243943 0.021956
1.844985 -1.239637 -0.017996
1.841978 -1.239410 -0.043992
1.782542 -1.272650 0.420736
1.822133 -1.242062 0.099012
1.520911 -1.225808 -0.023652
1.821341 -1.250174 0.307947
1.812219 -1.243935 0.175009
1.754845 -1.279152 0.738719
1.563728 -1.203638 -0.100449
1.837938 -1.280228 0.825672
1.570803 -1.212073 -0.150538
1.494155 -1.229431 0.208352
1.791600 -1.254386 0.594952
1.487032 -1.225401 -0.001612
1.793694 -1.265284 0.484844
1.459859 -1.211096 -0.159456
1.556185 -1.224108 0.234381
1.543991 -1.213282 0.040487
1.463953 -1.218221 -0.143527
1.690683 -1.265536 0.407900
1.479594 -1.240282 0.774290
1.472378 -1.232283 0.468359
1.464432 -1.240339 0.264282
1.522076 -1.214404 0.028499
1.748068 -1.274965 0.798815
1.500089 -1.213387 -0.096475
1.505130 -1.218848 -0.145534
1.496115 -1.214392 -0.100481
1.509731 -1.236412 0.808338
1.431478 -1.237107 0.205342
1.410239 -1.220255 0.000514
1.706872 -1.262108 0.470963
1.583701 -1.240912 0.530247
1.390104 -1.210520 -0.192382
1.383067 -1.204992 -0.152321
1.404734 -1.233890 0.751424
1.483433 -1.224854 0.228448
1.491637 -1.234425 0.491361
1.394216 -1.218038 -0.137456
1.481344 -1.222993 0.041459
1.402603 -1.231944 0.456431
1.549519 -1.227511 0.256395
1.407834 -1.247757 0.540278
1.541370 -1.222632 -0.037564
1.458394 -1.221110 0.028499
1.524276 -1.213261 -0.091461
1.544447 -1.229387 -0.059632
1.397716 -1.244044 0.260311
1.367343 -1.216526 -0.018410
1.427339 -1.212215 -0.092393
1.515572 -1.227312 0.100423
1.432381 -1.217684 -0.140452
1.419326 -1.209257 -0.096357
1.429838 -1.227027 0.781504
1.352609 -1.225908 0.200523
1.504563 -1.225004 0.058454
1.337447 -1.215060 0.002632
1.570493 -1.216988 0.020504
1.500834 -1.232619 0.510405
1.570516 -1.219588 -0.019523
1.573565 -1.224350 -0.040572
1.349017 -1.241393 0.737403
1.409629 -1.220599 0.222558
1.322364 -1.209317 -0.185307
1.415810 -1.229110 0.476483
1.320377 -1.208732 -0.146298
1.402515 -1.214840 0.041612
1.317650 -1.213688 0.439684
1.318407 -1.209916 -0.130307
1.475727 -1.225228 0.247487
1.548612 -1.218875 0.084510
1.415873 -1.237516 0.317395
1.548767 -1.225765 0.270452
1.339051 -1.246392 0.527353
1.423142 -1.252311 0.599259
1.334169 -1.246550 0.834371
1.488213 -1.250005 0.828266
1.446470 -1.207133 -0.087328
1.381577 -1.213934 0.028639
1.439440 -1.202526 -0.055276
1.328951 -1.242737 0.254385
1.294549 -1.210335 -0.015285
1.400296 -1.250790 0.918309
1.522981 -1.229635 0.525451
1.333367 -1.188256 -0.086076
1.438766 -1.222119 0.098544
1.349521 -1.204628 -0.133251
1.380178 -1.240490 0.769419
1.354604 -1.210996 -0.092315
1.279763 -1.216640 0.195677
1.428743 -1.218787 0.055583
1.501763 -1.219736 0.020542
1.271671 -1.211786 0.004722
1.429018 -1.229258 0.495502
1.502784 -1.222324 -0.019485
1.449209 -1.250856 0.375272
1.339813 -1.215293 0.216671
1.274107 -1.228970 0.713586
1.357089 -1.234668 0.466481
1.254584 -1.204114 -0.177198
1.255624 -1.206481 -0.140220
1.330719 -1.209609 0.041726
1.267998 -1.225203 0.434615
1.254663 -1.208656 -0.124240
1.482885 -1.222553 0.080535
1.414019 -1.230850 0.241488
1.348084 -1.235175 0.309476
1.482020 -1.228407 0.261488
1.380697 -1.204393 -0.032241
1.406279 -1.236586 0.797466
1.346259 -1.241966 0.581425
1.387788 -1.213791 -0.085340
1.274406 -1.249066 0.818395
1.422378 -1.250952 0.651307
1.253089 -1.226110 0.507622
1.384784 -1.212136 -0.054320
1.317823 -1.213621 0.028697
1.251073 -1.229496 0.247578
1.228784 -1.207057 -0.013198
1.328437 -1.244326 0.892431
1.457208 -1.231212 0.510494
1.367956 -1.216866 0.097656
1.277681 -1.193888 -0.083083
1.311333 -1.235018 0.746529
1.448350 -1.233514 0.825494
1.287790 -1.205336 -0.128205
1.466349 -1.245333 0.431347
1.265648 -1.187968 -0.087016
1.360980 -1.217495 0.053654
1.211942 -1.209314 0.190803
1.434015 -1.220466 0.020595
1.374319 -1.237763 0.484467
1.208912 -1.209475 0.006795
1.376375 -1.244541 0.365394
1.218347 -1.231454 0.699606
1.283112 -1.220865 0.211664
1.283203 -1.223300 0.450651
1.190815 -1.199865 -0.169105
1.259894 -1.201358 0.041864
1.206196 -1.221774 0.424697
1.188838 -1.200242 -0.134106
1.410072 -1.217288 0.076648
1.193905 -1.206348 -0.119169
1.336135 -1.218586 0.232672
1.402127 -1.216144 0.250674
1.285318 -1.234797 0.303531
1.322992 -1.209025 -0.031237
1.339449 -1.233092 0.774554
1.427574 -1.247572 0.707370
1.357574 -1.249515 0.636373
1.287531 -1.246510 0.570427
1.306911 -1.198969 -0.052127
1.312959 -1.204616 -0.081189
1.249008 -1.206348 0.028824
1.204438 -1.237611 0.502546
1.209607 -1.246584 0.798469
1.193337 -1.231082 0.243606
1.168026 -1.204731 -0.010128
1.385374 -1.225807 0.492605
1.265630 -1.242814 0.871495
1.298143 -1.210586 0.095773
1.403568 -1.245918 0.421392
1.240419 -1.222531 0.721705
1.219959 -1.195542 -0.079054
1.381538 -1.232001 0.800563
1.228048 -1.205007 -0.124155
1.295182 -1.213182 0.052748
1.230109 -1.209388 -0.085197
1.358160 -1.210252 0.019756
1.160218 -1.212854 0.188807
1.292366 -1.219427 0.464709
1.359197 -1.213827 -0.021282
1.358209 -1.214665 -0.038290
1.149152 -1.207126 0.008862
1.310570 -1.241159 0.356478
1.158506 -1.225935 0.682703
1.220389 -1.218856 0.438742
1.222329 -1.218464 0.206733
1.205169 -1.203953 0.042881
1.343280 -1.213956 0.072734
1.132051 -1.196537 -0.163029
1.144368 -1.215326 0.413805
1.136127 -1.202848 -0.129093
1.276377 -1.219168 0.226712
1.131115 -1.200062 -0.113061
1.339367 -1.216729 0.241718
1.338340 -1.215809 0.150723
1.371815 -1.252053 0.693370
1.225552 -1.234380 0.297579
1.269551 -1.222584 0.748709
1.263251 -1.209679 -0.029197
1.291746 -1.245068 0.620466
1.242104 -1.193381 -0.078024
1.257256 -1.208505 -0.052182
1.223713 -1.242060 0.556517
1.192266 -1.206950 0.028860
1.143642 -1.234157 0.491622
1.145766 -1.240079 0.778576
1.316519 -1.218372 0.475730
1.134562 -1.228668 0.239670
1.104200 -1.195413 -0.007992
1.209864 -1.245277 0.855510
1.340772 -1.244505 0.412454
1.236368 -1.208230 0.094843
1.324785 -1.236434 0.780562
1.193724 -1.231959 0.711645
1.167267 -1.200130 -0.076061
1.232386 -1.208822 0.050837
1.164254 -1.198719 -0.119047
1.297399 -1.209895 0.019805
1.162261 -1.198129 -0.081038
1.260960 -1.248577 0.929469
1.236616 -1.221934 0.454725
1.292394 -1.208526 -0.021179
1.097392 -1.204472 0.184932
1.297465 -1.215316 -0.037250
1.248765 -1.237750 0.349556
1.086310 -1.196776 0.009007
1.092585 -1.211423 0.661890
1.156539 -1.210402 0.425869
1.152436 -1.204130 0.200923
1.278481 -1.209596 0.068824
1.083510 -1.205858 0.402938
1.143377 -1.198599 0.042976
1.077308 -1.195165 -0.156979
1.215581 -1.215742 0.219789
1.074306 -1.193543 -0.122960
1.277588 -1.215306 0.233777
1.301931 -1.242599 0.673513
1.280606 -1.218396 0.147740
1.069294 -1.190757 -0.106928
1.211758 -1.222025 0.729754
1.157686 -1.223011 0.289737
1.204490 -1.208304 -0.028142
1.231936 -1.242575 0.606532
1.194461 -1.203178 -0.050086
1.185370 -1.193996 -0.075990
1.155833 -1.230618 0.540675
1.127422 -1.196610 0.028006
1.083907 -1.231553 0.759699
1.087879 -1.233667 0.482662
1.260777 -1.221857 0.463735
1.263815 -1.226163 0.398687
1.149023 -1.239726 0.834603
1.064586 -1.208860 -0.006101
1.069708 -1.217293 0.234824
1.180593 -1.206796 0.092895
1.132853 -1.223408 0.691768
1.256912 -1.227898 0.754692
1.102408 -1.187823 -0.072896
1.180678 -1.213350 0.048827
1.235614 -1.206529 0.018882
1.105466 -1.193364 -0.114956
1.201114 -1.243997 0.906552
1.103472 -1.192765 -0.077947
1.230584 -1.203156 -0.022084
1.172749 -1.212455 0.439860
1.231645 -1.207996 -0.037133
1.044642 -1.203997 0.181969
1.188964 -1.234303 0.341628
1.051891 -1.220808 0.654820
1.107787 -1.212857 0.418875
1.045689 -1.209231 0.010907
1.099681 -1.204646 0.196940
1.223730 -1.211141 0.065835
1.216760 -1.209860 0.225859
1.240080 -1.237087 0.656595
1.101730 -1.210054 0.043876
1.045877 -1.220255 0.400804
1.155762 -1.210294 0.212869
1.188492 -1.182248 0.141146
1.021536 -1.190793 -0.150916
1.022566 -1.193124 -0.117938
1.157971 -1.222438 0.712770
1.022598 -1.195280 -0.102960
1.138633 -1.196996 -0.026002
1.107952 -1.226510 0.286718
1.177155 -1.243055 0.595547
1.125546 -1.186637 -0.072894
1.142719 -1.204725 -0.049083
1.105080 -1.233085 0.532664
1.073646 -1.194175 0.029047
1.202971 -1.219338 0.450779
1.220141 -1.237593 0.393584
1.032072 -1.229155 0.472719
1.029110 -1.228993 0.744736
1.191020 -1.217342 0.729818
1.094223 -1.238149 0.817631
1.119768 -1.199411 0.091986
1.074998 -1.215830 0.672858
0.998684 -1.191543 -0.003910
1.019969 -1.218784 0.231816
1.014117 -1.223017 0.925811
1.059752 -1.197299 -0.069987
1.141245 -1.236417 0.884642
1.179852 -1.206107 0.018900
1.112778 -1.198018 0.047000
1.178861 -1.206695 -0.022108
1.121986 -1.213895 0.429855
1.050729 -1.192325 -0.075933
1.166805 -1.198666 -0.036023
1.002951 -1.211428 0.180894
1.136184 -1.233799 0.335641
0.995026 -1.211234 0.637922
0.985815 -1.195854 0.013050
1.051982 -1.208330 0.407927
1.162915 -1.204736 0.062922
1.044888 -1.200163 0.192002
1.183262 -1.233553 0.642651
1.168032 -1.214510 0.141824
0.982940 -1.201767 0.388009
1.162008 -1.210365 0.218873
1.092899 -1.198869 0.206006
1.032809 -1.190748 0.044094
1.105176 -1.220834 0.695802
0.968739 -1.184384 -0.144836
0.979890 -1.199603 -0.113995
1.113262 -1.230550 0.578694
1.086880 -1.196539 -0.024981
1.060240 -1.230976 0.282685
0.966788 -1.186882 -0.098859
1.085922 -1.199313 -0.048010
1.068756 -1.181234 -0.070821
1.048241 -1.225550 0.519756
1.029988 -1.202632 0.028971
1.147177 -1.216795 0.437823
1.167372 -1.238081 0.386595
0.981302 -1.227610 0.464746
1.138246 -1.217729 0.711830
1.030264 -1.220206 0.661823
0.976327 -1.226408 0.729773
1.039393 -1.232554 0.799701
1.061950 -1.191992 0.091079
0.956008 -1.198004 -0.001967
0.965298 -1.219362 0.907858
1.119009 -1.196725 0.019015
0.966188 -1.214299 0.227874
1.089455 -1.235798 0.866661
1.063032 -1.198521 0.046009
1.112990 -1.193348 -0.022950
1.137413 -1.229067 0.934726
1.065162 -1.207365 0.417937
0.997915 -1.185534 -0.106852
1.107985 -1.191262 -0.035928
1.000974 -1.190860 -0.072906
1.076334 -1.224334 0.327754
0.944069 -1.196982 0.177055
0.943185 -1.203626 0.623010
0.999155 -1.201787 0.399007
1.130452 -1.230973 0.628692
0.999143 -1.201607 0.188997
1.102088 -1.196323 0.060026
0.938073 -1.195350 0.014064
1.104161 -1.202118 0.137970
1.102157 -1.200895 0.210987
1.048180 -1.203297 0.201972
0.930103 -1.193231 0.380107
0.995166 -1.202154 0.044985
1.049328 -1.213228 0.676894
1.063481 -1.229978 0.568712
1.035126 -1.195086 -0.022953
0.901811 -1.161444 -0.105584
0.999362 -1.217525 0.275837
0.919028 -1.184412 -0.093825
1.024053 -1.185702 -0.069855
1.030121 -1.192886 -0.046930
0.997466 -1.223994 0.510782
0.975151 -1.193183 0.029081
1.108509 -1.228586 0.376708
1.087322 -1.207270 0.423936
1.085456 -1.216109 0.693860
0.968331 -1.202618 0.640017
1.020280 -1.200417 0.090001
0.922428 -1.214091 0.452894
0.987588 -1.228944 0.783747
0.916438 -1.211678 0.887944
0.928557 -1.225807 0.718786
1.039642 -1.233170 0.850698
1.094663 -1.234409 0.921680
1.066238 -1.194251 0.018054
1.008214 -1.191053 0.044098
0.897121 -1.181607 0.000212
0.915404 -1.209786 0.224928
1.074368 -1.206743 -0.024079
1.010329 -1.199818 0.407026
1.058230 -1.190767 -0.035911
0.947125 -1.180081 -0.102786
0.949187 -1.185408 -0.069840
1.027564 -1.223791 0.322769
0.901356 -1.200412 0.176025
1.078635 -1.227386 0.615740
0.902443 -1.206980 0.614980
1.064432 -1.207688 0.056917
0.952390 -1.201192 0.391020
0.949362 -1.198084 0.186042
1.048335 -1.194653 0.135060
1.047337 -1.194382 0.204067
0.887266 -1.187877 0.016148
1.002447 -1.205729 0.197955
0.901520 -1.212547 0.379909
1.003577 -1.215586 0.663877
0.933256 -1.183766 0.045186
0.953622 -1.218766 0.924866
1.011667 -1.225397 0.556768
0.991407 -1.198541 -0.021980
0.874256 -1.181427 -0.134791
0.951605 -1.216975 0.271849
0.989442 -1.200311 -0.046000
0.854043 -1.156957 -0.101531
0.871267 -1.180926 -0.089783
1.054689 -1.223058 0.368776
0.943614 -1.214424 0.498889
0.927384 -1.190663 0.029114
1.044625 -1.214643 0.415868
1.026562 -1.203481 0.671001
0.924561 -1.202969 0.629018
0.967461 -1.192936 0.089088
1.050898 -1.237744 0.907653
0.873650 -1.210994 0.873954
0.991842 -1.231517 0.834722
0.936765 -1.223316 0.767811
1.015454 -1.190762 0.018100
0.886798 -1.227465 0.451757
0.881780 -1.224189 0.707805
0.968544 -1.199460 0.044017
1.018528 -1.197297 -0.023971
0.967608 -1.204195 0.399987
0.860483 -1.192000 0.002106
0.908431 -1.185898 -0.061840
0.871684 -1.212213 0.222905
0.978778 -1.221230 0.316803
0.898368 -1.176929 -0.067745
1.033862 -1.228769 0.606733
0.853546 -1.193859 0.173096
0.864745 -1.214334 0.609904
1.002543 -1.192269 0.054089
0.906617 -1.199592 0.384041
1.002593 -1.196099 0.133053
1.014739 -1.211702 0.200892
0.904618 -1.198498 0.182042
0.951630 -1.199189 0.193030
0.846558 -1.191295 0.017114
0.952743 -1.208950 0.647952
0.849672 -1.201977 0.371021
0.907815 -1.216070 0.906897
0.960847 -1.219799 0.544832
0.892580 -1.190188 0.046122
0.938586 -1.190073 -0.020885
0.937630 -1.192833 -0.044916
0.907863 -1.218392 0.268837
1.009942 -1.225472 0.363757
0.815380 -1.163517 -0.084598
0.983696 -1.197089 0.400059
0.900886 -1.217810 0.492856
0.883646 -1.191100 0.029112
0.934865 -1.212139 0.933936
1.001040 -1.231062 0.887728
0.984849 -1.209816 0.659940
0.882802 -1.204305 0.619006
0.926734 -1.196348 0.089056
0.832885 -1.212308 0.861939
0.942012 -1.225866 0.817785
0.980823 -1.204109 0.016965
0.898058 -1.230664 0.760735
0.974798 -1.199725 -0.024991
0.917728 -1.191942 0.042100
0.916766 -1.195596 0.389081
0.829903 -1.210911 0.439931
0.830958 -1.216560 0.692885
0.959693 -1.185759 -0.034843
0.869750 -1.192304 -0.059905
0.984018 -1.222138 0.592807
0.811684 -1.184488 0.003185
0.933014 -1.220656 0.312812
0.828941 -1.212624 0.220900
0.856655 -1.179361 -0.065769
0.825992 -1.216657 0.601879
0.814826 -1.197239 0.172060
0.965882 -1.202625 0.051984
0.862842 -1.197966 0.377059
0.952787 -1.190565 0.130116
0.956837 -1.196201 0.194060
0.857816 -1.192932 0.179101
0.912944 -1.206555 0.189954
0.904918 -1.203278 0.632014
0.863995 -1.212357 0.889936
0.912003 -1.212184 0.533914
0.791682 -1.176421 0.359290
0.804837 -1.192717 0.018099
0.849828 -1.189612 0.046129
0.891811 -1.186543 -0.019846
0.961107 -1.218882 0.355830
0.891863 -1.190292 -0.043887
0.888839 -1.187099 -0.064854
0.789778 -1.180342 -0.125779
0.867152 -1.222787 0.266790
0.939946 -1.198456 0.392048
0.789821 -1.183785 -0.083813
0.859148 -1.220191 0.487830
0.836855 -1.185557 0.029171
0.955212 -1.227369 0.870769
0.892073 -1.211409 0.915944
0.936037 -1.205144 0.642992
0.842033 -1.204625 0.609001
0.789032 -1.204597 0.846018
0.899221 -1.225183 0.804792
0.874894 -1.185835 0.087168
0.918881 -1.182707 0.017194
0.846173 -1.218007 0.742867
0.916904 -1.183284 -0.024814
0.872957 -1.189372 0.041128
0.885131 -1.209901 0.385930
0.932158 -1.212520 0.578910
0.794234 -1.220262 0.437828
0.821932 -1.183796 -0.056816
0.890255 -1.221048 0.308808
0.786167 -1.212909 0.681920
0.801698 -1.156608 -0.091530
0.772966 -1.186887 0.005157
0.817944 -1.182760 -0.063806
0.775062 -1.198999 0.586061
0.909976 -1.186134 0.049160
0.778089 -1.200080 0.217029
0.912049 -1.192963 0.129092
0.821066 -1.196315 0.370075
0.759902 -1.176728 0.168273
0.922193 -1.208518 0.189931
0.818075 -1.194308 0.177085
0.860070 -1.193009 0.184097
0.864158 -1.204588 0.620999
0.822199 -1.210642 0.874951
0.870249 -1.213543 0.526899
0.766107 -1.196715 0.361072
0.764079 -1.191133 0.020112
0.851077 -1.187952 -0.018861
0.805046 -1.185047 0.046175
0.923405 -1.226241 0.352752
0.848108 -1.188728 -0.042871
0.815267 -1.208232 0.260941
0.905272 -1.208756 0.385939
0.734876 -1.160227 -0.090569
0.910390 -1.223671 0.854807
0.733871 -1.159363 -0.078559
0.812318 -1.212557 0.477907
0.797137 -1.187946 0.029142
0.847263 -1.207681 0.896981
0.893255 -1.204441 0.628999
0.797219 -1.198956 0.597057
0.855419 -1.222504 0.791817
0.750248 -1.203879 0.834020
0.833140 -1.185235 0.086173
0.877133 -1.183106 0.016190
0.878193 -1.187655 -0.025861
0.893396 -1.214849 0.571885
0.805431 -1.220340 0.733838
0.835253 -1.197278 0.375061
0.833231 -1.191751 0.040101
0.868121 -1.177651 -0.034755
0.887398 -1.215633 0.923896
0.841410 -1.211456 0.301906
0.774115 -1.174283 -0.053719
0.744364 -1.206659 0.428966
0.740342 -1.205249 0.669994
0.740341 -1.204306 0.580999
0.872284 -1.192487 0.047092
0.776181 -1.180181 -0.061782
0.727159 -1.178345 0.007242
0.861180 -1.180424 0.126224
0.734297 -1.194486 0.215082
0.776240 -1.188674 0.362151
0.862228 -1.185010 0.182178
0.725201 -1.182059 0.167211
0.768198 -1.179736 0.172235
0.817294 -1.190388 0.180122
0.780375 -1.205898 0.857996
0.826426 -1.208897 0.612949
0.834545 -1.220873 0.522817
0.728364 -1.198050 0.357051
0.716209 -1.176597 0.021259
0.872524 -1.213646 0.343883
0.806284 -1.182392 -0.017806
0.761243 -1.178478 0.047240
0.801290 -1.180184 -0.041784
0.796230 -1.173017 -0.061709
0.851374 -1.193148 0.373102
0.868587 -1.221961 0.840822
0.771490 -1.204631 0.257973
0.710303 -1.179180 -0.117778
0.806454 -1.204928 0.880005
0.709336 -1.181625 -0.076802
0.770547 -1.210914 0.471918
0.755361 -1.184347 0.029175
0.847449 -1.199749 0.614045
0.762482 -1.203241 0.590006
0.715485 -1.206148 0.824988
0.812596 -1.217797 0.777862
0.792375 -1.183630 0.086185
0.836401 -1.184502 0.016172
0.854640 -1.217173 0.564856
0.834428 -1.185065 -0.026836
0.763626 -1.216642 0.721870
0.791457 -1.192628 0.367105
0.793486 -1.192125 0.039092
0.844591 -1.212870 0.903920
0.799627 -1.208826 0.297928
0.702514 -1.203300 0.921021
0.739419 -1.179625 -0.052782
0.695464 -1.191613 0.568125
0.824451 -1.182913 0.044189
0.738439 -1.180252 -0.088791
0.828516 -1.190740 0.125111
0.738465 -1.182561 -0.059814
0.707677 -1.212998 0.425889
0.687388 -1.174742 0.009272
0.708691 -1.217573 0.668854
0.826528 -1.191323 0.178107
0.739502 -1.190998 0.358119
0.698602 -1.199825 0.214016
0.688468 -1.183404 0.166188
0.739556 -1.201160 0.843038
0.732488 -1.184064 0.170182
0.775523 -1.187752 0.176144
0.788690 -1.211211 0.511913
0.778558 -1.197194 0.596067
0.684504 -1.186390 0.349165
0.833779 -1.215992 0.339853
0.677459 -1.174974 0.022267
0.767541 -1.182773 -0.016816
0.719464 -1.173875 0.047281
0.827775 -1.219235 0.826845
0.762536 -1.179553 -0.041783
0.798450 -1.174521 0.360294
0.730691 -1.199984 0.254014
0.765654 -1.202171 0.863026
0.655352 -1.153044 -0.083508
0.731791 -1.211249 0.466906
0.713558 -1.177741 0.029237
0.668566 -1.177035 -0.073763
0.814781 -1.211030 0.607919
0.774829 -1.219083 0.767841
0.675648 -1.199405 0.811049
0.718631 -1.193537 0.577100
0.748561 -1.176036 0.085259
0.810794 -1.209494 0.553932
0.799691 -1.188845 0.015120
0.793666 -1.183452 -0.026825
0.757760 -1.199924 0.363020
0.751698 -1.187511 0.038133
0.720813 -1.210947 0.709920
0.802801 -1.211114 0.885932
0.762909 -1.213169 0.295874
0.700665 -1.178009 -0.050774
0.666786 -1.207612 0.914963
0.663762 -1.198903 0.565036
0.785716 -1.184264 0.042169
0.781673 -1.180153 0.122217
0.784741 -1.187672 0.173139
0.698706 -1.179953 -0.057796
0.649637 -1.173095 0.009279
0.661807 -1.202886 0.654998
0.695667 -1.181336 0.350212
0.659796 -1.197363 0.417043
0.654757 -1.187728 0.166131
0.702783 -1.201413 0.831025
0.744831 -1.202475 0.590002
0.749905 -1.209523 0.504922
0.661881 -1.202168 0.212980
0.735735 -1.184091 0.172174
0.691691 -1.178420 0.167232
0.788925 -1.206352 0.332948
0.641651 -1.174726 0.342278
0.788959 -1.216495 0.813867
0.640715 -1.174328 0.023263
0.726781 -1.180166 -0.015797
0.682711 -1.173232 0.048278
0.724810 -1.180907 -0.041807
0.711630 -1.159840 -0.058583
0.773878 -1.195769 0.359061
0.697018 -1.208314 0.253915
0.730925 -1.207440 0.853960
0.640862 -1.198674 0.803045
0.765874 -1.195306 0.589077
0.692000 -1.207564 0.459933
0.730969 -1.209362 0.752934
0.672758 -1.171121 0.029297
0.633837 -1.178387 -0.070789
0.627743 -1.167312 -0.082672
0.683896 -1.196823 0.571054
0.773022 -1.209787 0.545920
0.707765 -1.170409 0.084310
0.757890 -1.183238 0.015172
0.713895 -1.188249 0.354134
0.755933 -1.184797 -0.027848
0.709896 -1.180881 0.036194
0.682010 -1.207230 0.699948
0.756945 -1.201332 0.863026
0.723130 -1.210510 0.291892
0.624915 -1.190175 0.555116
0.741886 -1.176509 0.120247
0.746962 -1.183609 0.040167
0.660890 -1.173397 -0.048736
0.631052 -1.210908 0.907914
0.744965 -1.185010 0.169159
0.653806 -1.169649 0.342325
0.656894 -1.171358 -0.055716
0.663945 -1.194643 0.816085
0.626079 -1.201672 0.414983
0.607824 -1.163499 0.011367
0.696949 -1.180426 0.169203
0.634210 -1.221207 0.657788
0.700974 -1.191744 0.575105
0.617998 -1.186063 0.165135
0.709103 -1.204838 0.496961
0.654915 -1.175746 0.165249
0.621084 -1.195530 0.211036
0.749140 -1.203684 0.327967
0.615016 -1.189000 0.343112
0.748115 -1.209746 0.798928
0.675822 -1.155641 -0.014546
0.604971 -1.173668 0.024256
0.642937 -1.168600 0.048315
0.732072 -1.190076 0.350111
0.687065 -1.180267 -0.040811
0.692093 -1.201649 0.837010
0.653158 -1.195672 0.249036
0.602002 -1.188899 0.788134
0.696211 -1.211641 0.745897
0.732161 -1.201573 0.582000
0.736240 -1.209077 0.538917
0.655246 -1.207880 0.455916
0.637021 -1.171452 0.029281
0.591994 -1.165667 -0.079668
0.597079 -1.175742 -0.068775
0.715069 -1.174624 0.014254
0.671014 -1.169753 0.084305
0.711089 -1.173198 -0.028735
0.671073 -1.179560 0.345214
0.706061 -1.168168 -0.035682
0.671133 -1.178229 0.035210
0.645250 -1.207523 0.692930
0.716133 -1.196552 0.845065
0.680268 -1.198850 0.286003
0.592158 -1.191443 0.550088
0.689927 -1.151944 0.116498
0.704143 -1.174983 0.038247
0.620069 -1.163799 -0.045647
0.704166 -1.179340 0.164208
0.628145 -1.191874 0.804100
0.624143 -1.179928 0.341201
0.594281 -1.210196 0.899904
0.625208 -1.177659 -0.054797
0.664243 -1.185715 0.167133
0.671316 -1.202141 0.490976
0.667247 -1.196015 0.569046
0.574080 -1.166431 0.162329
0.582247 -1.181758 0.013157
0.586277 -1.194996 0.410037
0.715411 -1.207991 0.325909
0.622216 -1.181043 0.164178
0.710300 -1.205986 0.785956
0.591368 -1.210494 0.645884
0.576166 -1.178299 0.337211
0.587392 -1.200847 0.210962
0.651260 -1.175873 -0.014775
0.566160 -1.165029 0.025333
0.650296 -1.177602 -0.040796
0.693294 -1.187373 0.343127
0.608211 -1.169930 0.049286
0.653282 -1.196877 0.822046
0.616384 -1.192995 0.247049
0.574312 -1.199172 0.787008
0.658394 -1.206887 0.733933
0.698434 -1.205359 0.530943
0.607236 -1.182341 0.550180
0.686286 -1.187842 0.566132
0.603289 -1.172760 0.029252
0.678293 -1.171962 0.014270
0.613414 -1.198192 0.448003
0.560294 -1.169983 -0.076731
0.557255 -1.165139 -0.064679
0.635264 -1.169073 0.083298
0.677357 -1.175497 -0.029772
0.639359 -1.184823 0.341143
0.631288 -1.167580 0.034310
0.607446 -1.202785 0.682964
0.644504 -1.198155 0.282996
0.679367 -1.196774 0.831048
0.548213 -1.169694 0.535303
0.679534 -1.194092 0.119034
0.668387 -1.174291 0.036242
0.664347 -1.171654 0.159276
0.582263 -1.156158 -0.043581
0.591394 -1.181195 0.337172
0.594374 -1.192115 0.795081
0.587411 -1.171018 -0.052742
0.634506 -1.197418 0.484011
0.680573 -1.213248 0.781865
0.630450 -1.192264 0.559071
0.675581 -1.200301 0.319977
0.627472 -1.183023 0.164147
0.552414 -1.197424 0.883021
0.543392 -1.172714 0.162244
0.536313 -1.158176 0.014391
0.585442 -1.177359 0.162200
0.549511 -1.192299 0.406047
0.552547 -1.202770 0.636948
0.542420 -1.178583 0.334190
0.544485 -1.182193 0.207143
0.610416 -1.164249 -0.013666
0.537509 -1.175309 0.027204
0.659564 -1.190642 0.338077
0.611488 -1.169960 -0.039730
0.573442 -1.167244 0.049298
0.616468 -1.192090 0.808081
0.661617 -1.200627 0.522979
0.538471 -1.191392 0.775073
0.628710 -1.217178 0.732807
0.574535 -1.180336 0.243167
0.571434 -1.177597 0.542213
0.660677 -1.206094 0.564921
0.579643 -1.197469 0.443993
0.569561 -1.174064 0.029220
0.642556 -1.172276 0.013251
0.603552 -1.173363 0.083236
0.525550 -1.168321 -0.073732
0.524532 -1.166448 -0.062711
0.642613 -1.175812 -0.029790
0.606607 -1.186088 0.337113
0.598574 -1.170877 0.034258
0.610757 -1.199450 0.280965
0.573691 -1.204062 0.677931
0.643589 -1.195980 0.817040
0.636631 -1.177447 0.116198
0.520528 -1.178962 0.535185
0.631609 -1.170602 0.034266
0.637727 -1.186895 0.158097
0.563623 -1.195356 0.789028
0.550566 -1.160450 -0.042645
0.558638 -1.181457 0.333151
0.640701 -1.202462 0.765964
0.603794 -1.203694 0.481927
0.554682 -1.172318 -0.051774
0.638788 -1.196591 0.315000
0.591615 -1.183503 0.547147
0.589667 -1.176324 0.160201
0.519667 -1.199697 0.877976
0.506616 -1.163460 0.016315
0.552705 -1.178635 0.160168
0.512697 -1.182848 0.333124
0.513746 -1.189600 0.403055
0.522983 -1.210450 0.211819
0.514751 -1.197055 0.629987
0.570554 -1.150612 -0.012536
0.621760 -1.184907 0.330121
0.504761 -1.174608 0.028192
0.512771 -1.201660 0.775944
0.573695 -1.163305 -0.038676
0.535631 -1.158590 0.050373
0.581672 -1.189302 0.796092
0.627861 -1.201898 0.517949
0.586806 -1.201393 0.715957
0.534589 -1.167823 0.531299
0.544845 -1.187610 0.243069
0.618808 -1.193326 0.550040
0.600674 -1.156647 0.013403
0.546907 -1.199745 0.440948
0.536820 -1.174355 0.029198
0.566737 -1.165681 0.082301
0.491791 -1.165753 -0.060725
0.612949 -1.185057 -0.031907
0.569806 -1.180363 0.331156
0.565840 -1.172158 0.033226
0.573955 -1.193754 0.278007
0.533747 -1.192070 0.920054
0.487709 -1.173192 0.528226
0.537888 -1.199318 0.669961
0.607818 -1.195192 0.804029
0.598828 -1.170766 0.114252
0.597853 -1.169883 0.032256
0.609943 -1.205701 0.759911
0.528814 -1.190563 0.777059
0.599933 -1.181183 0.153140
0.605006 -1.194871 0.312001
0.567979 -1.197953 0.474969
0.523857 -1.177732 0.329170
0.518848 -1.162749 -0.040690
0.560885 -1.187743 0.542082
0.518898 -1.166640 -0.050733
0.552878 -1.170622 0.157243
0.480926 -1.176264 0.161165
0.512816 -1.161956 0.157327
0.485899 -1.198952 0.870961
0.480934 -1.182115 0.331111
0.470808 -1.154781 0.017387
0.480987 -1.188868 0.400040
0.483010 -1.199324 0.626939
0.543927 -1.163849 -0.012698
0.477006 -1.181789 0.206104
0.593034 -1.196138 0.509992
0.478940 -1.194863 0.764994
0.583953 -1.178177 0.323174
0.537885 -1.155617 -0.038612
0.470981 -1.169912 0.029220
0.547876 -1.186500 0.784102
0.504906 -1.160860 0.050328
0.555041 -1.202646 0.710923
0.506917 -1.178077 0.530168
0.516160 -1.195871 0.242959
0.579990 -1.185560 0.538103
0.576075 -1.173858 0.012198
0.505088 -1.175643 0.030162
0.531953 -1.160988 0.082332
0.508059 -1.188024 0.434052
0.575142 -1.177387 -0.031844
0.459032 -1.163065 -0.057718
0.456994 -1.157973 -0.067664
0.536039 -1.178617 0.326154
0.526993 -1.159486 0.032342
0.540186 -1.192028 0.275004
0.458980 -1.177439 0.526158
0.573024 -1.192389 0.791039
0.504037 -1.199345 0.917953
0.557950 -1.155093 0.111401
0.501056 -1.190555 0.660033
0.579178 -1.207925 0.752868
0.560039 -1.161192 0.030330
0.499054 -1.192786 0.771013
0.562101 -1.171476 0.149225
0.493098 -1.177979 0.326146
0.570226 -1.192145 0.308010
0.534216 -1.197223 0.470955
0.483051 -1.155066 -0.039629
0.526086 -1.182969 0.533111
0.484092 -1.158959 -0.048672
0.519074 -1.164888 0.154284
0.482068 -1.162205 0.155303
0.445095 -1.165554 0.159257
0.447126 -1.175362 0.326160
0.453139 -1.199215 0.865932
0.441120 -1.160057 0.019306
0.561264 -1.196381 0.504969
0.448257 -1.190143 0.398000
0.443056 -1.181046 0.751119
0.549157 -1.173417 0.316205
0.441075 -1.176543 0.612159
0.447316 -1.188063 0.207011
0.519174 -1.191841 0.698018
0.519164 -1.193727 0.779002
0.508190 -1.160872 -0.038691
0.472120 -1.156154 0.051357
0.439248 -1.170194 0.030192
0.477158 -1.179309 0.526132
0.544172 -1.178772 0.527155
0.478331 -1.185172 0.240050
0.539258 -1.165177 0.012271
0.502242 -1.165248 0.082264
0.480386 -1.198291 0.434917
0.469278 -1.166950 0.030233
0.535279 -1.162719 -0.032707
0.501230 -1.171863 0.320204
0.427286 -1.161244 -0.065724
0.427295 -1.162353 -0.055735
0.502373 -1.174690 0.031155
0.505385 -1.186305 0.272043
0.429238 -1.179679 0.523109
0.542289 -1.195107 0.737985
0.534330 -1.171305 0.111206
0.537211 -1.186567 0.776079
0.471263 -1.198587 0.910936
0.534400 -1.174407 0.029166
0.467266 -1.186794 0.653049
0.467268 -1.191000 0.763008
0.538454 -1.191399 0.304996
0.527304 -1.165738 0.145265
0.500414 -1.192466 0.464983
0.458286 -1.170222 0.320206
0.496335 -1.185191 0.528065
0.451299 -1.153355 -0.037634
0.484264 -1.157158 0.151345
0.450322 -1.154254 -0.047645
0.416383 -1.169802 0.159186
0.454401 -1.171447 0.155178
0.415321 -1.169609 0.323197
0.411388 -1.161318 0.020267
0.528483 -1.194629 0.499965
0.418335 -1.193446 0.856967
0.419402 -1.196318 0.754929
0.481476 -1.167396 -0.011782
0.492494 -1.203109 0.698872
0.519457 -1.179653 0.313114
0.484332 -1.185901 0.765062
0.416522 -1.191415 0.396959
0.409428 -1.170355 0.204176
0.470332 -1.146202 -0.037555
0.411376 -1.182819 0.612064
0.404401 -1.157497 0.031305
0.442429 -1.161418 0.052274
0.445364 -1.175533 0.520148
0.520556 -1.197010 0.527934
0.446576 -1.184439 0.239032
0.509547 -1.169422 0.011202
0.440567 -1.171193 0.030162
0.465396 -1.152552 0.081377
0.446584 -1.192539 0.429953
0.470488 -1.173093 0.316166
0.513532 -1.198327 0.732927
0.396542 -1.160628 -0.053743
0.397570 -1.163510 -0.063775
0.400460 -1.178895 0.519092
0.472600 -1.182561 0.269059
0.468606 -1.170966 0.030171
0.510552 -1.199806 0.773911
0.435446 -1.185176 0.752046
0.436424 -1.189774 0.898005
0.436504 -1.187035 0.649020
0.498609 -1.167691 0.027214
0.506676 -1.189649 0.301992
0.502666 -1.179945 0.144088
0.431583 -1.177458 0.320102
0.469652 -1.192711 0.461955
0.465585 -1.186417 0.523026
0.423598 -1.158596 -0.036716
0.458604 -1.168370 0.150199
0.422655 -1.162494 -0.046761
0.421598 -1.164705 0.153226
0.383565 -1.161068 0.158254
0.384547 -1.166844 0.320200
0.497682 -1.191843 0.493972
0.388578 -1.190514 0.746965
0.380669 -1.162594 0.022225
0.448673 -1.160670 -0.011733
0.384511 -1.185662 0.848022
0.455596 -1.187292 0.685018
0.487685 -1.177880 0.308109
0.455604 -1.191119 0.759980
0.445708 -1.160397 -0.038734
0.382723 -1.184677 0.394003
0.416617 -1.177748 0.516098
0.375677 -1.159746 0.032253
0.379736 -1.175619 0.205089
0.410670 -1.158684 0.052277
0.375527 -1.170029 0.602173
0.481673 -1.181204 0.514080
0.413769 -1.177698 0.237078
0.477799 -1.168679 0.010186
0.439763 -1.165770 0.081208
0.404718 -1.157490 0.030284
0.483752 -1.198540 0.726900
0.473824 -1.166227 -0.033793
0.442769 -1.178316 0.314084
0.411765 -1.183790 0.425020
0.370683 -1.177115 0.515083
0.441838 -1.181817 0.268041
0.437843 -1.169223 0.030164
0.363736 -1.151927 -0.050676
0.365798 -1.158800 -0.060752
0.466730 -1.158852 0.108293
0.472680 -1.185946 0.755034
0.405678 -1.185397 0.747016
0.407674 -1.193014 0.894942
0.468868 -1.168919 0.025176
0.475929 -1.190898 0.299953
0.405746 -1.187271 0.644989
0.464827 -1.167222 0.140199
0.439907 -1.194956 0.459904
0.398779 -1.170686 0.315148
0.431754 -1.177608 0.513095
0.392825 -1.154859 -0.035702
0.425813 -1.162615 0.147235
0.391881 -1.158756 -0.045748
0.467923 -1.193078 0.490933
0.355793 -1.167079 0.319169
0.391854 -1.164944 0.152195
0.354829 -1.162308 0.158211
0.351583 -1.162611 0.726241
0.427886 -1.194538 0.683911
0.417928 -1.159934 -0.010752
0.350945 -1.163858 0.024181
0.453891 -1.172107 0.302145
0.424830 -1.190316 0.751960
0.354807 -1.191940 0.847921
0.416992 -1.163632 -0.038797
0.388886 -1.181974 0.514024
0.345922 -1.157998 0.033243
0.351969 -1.183921 0.391980
0.350014 -1.177879 0.206034
0.378894 -1.153956 0.053300
0.348862 -1.181314 0.606020
0.447875 -1.175406 0.505115
0.446022 -1.164943 0.010200
0.380982 -1.171953 0.235111
0.448865 -1.184701 0.713025
0.408983 -1.162025 0.081221
0.443053 -1.163469 -0.034789
0.377008 -1.161716 0.030209
0.409953 -1.170542 0.309141
0.382020 -1.185027 0.422976
0.340880 -1.172331 0.511106
0.412073 -1.181050 0.266022
0.438008 -1.162083 0.107231
0.404035 -1.160490 0.029231
0.332965 -1.147194 -0.048654
0.374840 -1.177554 0.736074
0.334012 -1.152086 -0.057709
0.437082 -1.164160 0.023202
0.377904 -1.193237 0.889909
0.445165 -1.190131 0.296933
0.438875 -1.180123 0.743069
0.374951 -1.183492 0.640000
0.436091 -1.169432 0.137148
0.406071 -1.185173 0.452981
0.369000 -1.167907 0.312149
0.399970 -1.173822 0.507107
0.395045 -1.159849 0.145237
0.364137 -1.160111 -0.033790
0.438157 -1.193298 0.486903
0.362127 -1.157005 -0.044757
0.327023 -1.165299 0.317158
0.329956 -1.181900 0.734001
0.326095 -1.163543 0.158167
0.362114 -1.165179 0.151163
0.397086 -1.190738 0.676924
0.389214 -1.163167 -0.010817
0.423124 -1.170316 0.297136
0.393028 -1.185494 0.741983
0.317083 -1.148140 0.025323
0.390917 -1.182520 0.923026
0.356033 -1.170158 0.505123
0.385217 -1.158899 -0.037774
0.322999 -1.186162 0.841952
0.316183 -1.157246 0.034219
0.353242 -1.165174 0.054147
0.321286 -1.180115 0.205977
0.322252 -1.187184 0.392911
0.414241 -1.160191 0.009224
0.417113 -1.174600 0.498095
0.422137 -1.190925 0.710929
0.319138 -1.184576 0.605950
0.352241 -1.173182 0.234067
0.376140 -1.150282 0.080322
0.412310 -1.162707 -0.035810
0.347263 -1.160955 0.030187
0.377136 -1.161753 0.303207
0.312095 -1.169535 0.507106
0.378209 -1.167289 0.262143
0.349200 -1.176263 0.419041
0.406204 -1.155334 0.106277
0.378370 -1.170687 0.028089
0.341975 -1.164702 0.723183
0.413339 -1.182356 0.292990
0.306287 -1.154424 -0.046765
0.304247 -1.148340 -0.055699
0.403276 -1.155424 0.022268
0.347114 -1.190453 0.883908
0.407074 -1.175278 0.731092
0.345193 -1.183722 0.636966
0.378320 -1.187403 0.451927
0.407369 -1.172648 0.135084
0.339217 -1.164123 0.309160
0.372232 -1.177020 0.503042
0.366319 -1.162074 0.144182
0.405324 -1.184505 0.479970
0.333353 -1.154365 -0.032758
0.299258 -1.164518 0.316136
0.297032 -1.162010 0.718187
0.332388 -1.156250 -0.043781
0.333337 -1.162402 0.150163
0.297334 -1.161764 0.157154
0.367303 -1.188947 0.671912
0.358104 -1.165601 0.724171
0.365199 -1.190761 0.922906
0.357423 -1.156431 -0.009774
0.390326 -1.163536 0.292180
0.289372 -1.151379 0.027254
0.354409 -1.151143 -0.037719
0.328310 -1.174375 0.503044
0.292220 -1.183383 0.836947
0.286406 -1.152491 0.035239
0.393343 -1.189106 0.703919
0.320402 -1.152435 0.054255
0.290517 -1.176364 0.205984
0.291476 -1.183419 0.390917
0.386550 -1.166413 0.009125
0.387390 -1.177815 0.494028
0.325576 -1.183423 0.235921
0.347420 -1.152513 0.080266
0.288377 -1.182808 0.602934
0.316439 -1.151199 0.030263
0.285356 -1.172751 0.506038
0.381550 -1.159940 -0.036810
0.349429 -1.166973 0.302118
0.323511 -1.185493 0.419907
0.350501 -1.172519 0.262054
0.318283 -1.175937 0.725029
0.376455 -1.154565 0.105255
0.343480 -1.151953 0.027264
0.384601 -1.184576 0.290935
0.283665 -1.176790 0.059961
0.276495 -1.147675 -0.044724
0.276520 -1.149574 -0.053746
0.376580 -1.161615 0.020170
0.316302 -1.184631 0.874938
0.376292 -1.172442 0.721092
0.347505 -1.180609 0.446970
0.315410 -1.180937 0.632963
0.314637 -1.171859 0.088030
0.373523 -1.159879 0.131193
0.310450 -1.162327 0.306148
0.342451 -1.174209 0.497041
0.343681 -1.175934 0.114998
0.379608 -1.191717 0.478860
0.275399 -1.181304 0.726943
0.336553 -1.159292 0.142180
0.304599 -1.152598 -0.031771
0.372676 -1.173987 0.140032
0.271506 -1.164733 0.315100
0.302591 -1.149502 -0.041738
0.267536 -1.154999 0.157195
0.303595 -1.161628 0.149137
0.339529 -1.189158 0.668878
0.333333 -1.178892 0.909004
0.328654 -1.153656 -0.009774
0.333450 -1.179846 0.725981
0.360553 -1.160727 0.287180
0.299497 -1.168563 0.498076
0.259582 -1.144619 0.028295
0.326717 -1.156357 -0.037809
0.362499 -1.180276 0.694986
0.259678 -1.154707 0.036181
0.291617 -1.147671 0.055276
0.263466 -1.184638 0.836897
0.351649 -1.146689 0.009311
0.260745 -1.172600 0.205990
0.353510 -1.161967 0.482170
0.260667 -1.175638 0.387967
0.294746 -1.173649 0.233995
0.256512 -1.162924 0.500113
0.316618 -1.144756 0.080319
0.350744 -1.152170 -0.037755
0.258583 -1.178028 0.599951
0.321673 -1.167168 0.299084
0.288748 -1.156413 0.030171
0.325839 -1.184732 0.262886
0.293736 -1.182717 0.417903
0.286387 -1.159056 0.711182
0.346670 -1.149780 0.103277
0.315736 -1.152158 0.026230
0.354812 -1.180799 0.288944
0.248751 -1.146906 -0.042750
0.252858 -1.168038 0.061022
0.346816 -1.158838 0.019168
0.247744 -1.144824 -0.050728
0.286478 -1.177806 0.866979
0.319770 -1.183831 0.445901
0.285878 -1.170084 0.088015
0.343473 -1.163595 0.709155
0.286661 -1.182173 0.631914
0.282699 -1.162529 0.304111
0.343768 -1.158094 0.129180
0.348752 -1.180899 0.471948
0.311645 -1.167401 0.491082
0.314946 -1.177161 0.114950
0.246549 -1.171462 0.719018
0.306762 -1.153494 0.139211
0.345973 -1.180201 0.139931
0.242710 -1.158930 0.312129
0.272777 -1.140863 -0.029676
0.241825 -1.160199 0.157103
0.274800 -1.155832 0.147168
0.272832 -1.145739 -0.040732
0.307666 -1.176308 0.657986
0.300390 -1.156946 0.888213
0.300549 -1.161950 0.710145
0.299911 -1.152876 -0.009800
0.333850 -1.166924 0.285078
0.273809 -1.177778 0.497939
0.338793 -1.190497 0.695841
0.298995 -1.158568 -0.037868
0.231848 -1.144851 0.030256
0.261799 -1.137900 0.055350
0.229892 -1.147943 0.037219
0.234696 -1.183867 0.834868
0.327012 -1.159868 0.008132
0.228723 -1.159119 0.497120
0.291929 -1.152947 0.080195
0.325810 -1.168168 0.479067
0.232016 -1.173835 0.206938
0.230885 -1.170855 0.385982
0.265994 -1.172876 0.233967
0.322021 -1.153378 -0.038803
0.259949 -1.149632 0.030212
0.292919 -1.166366 0.296057
0.295028 -1.176956 0.260937
0.260666 -1.165267 0.710079
0.229840 -1.179257 0.598898
0.319935 -1.151990 0.103220
0.262899 -1.171912 0.412986
0.326020 -1.176999 0.285953
0.288014 -1.154370 0.026171
0.318059 -1.157037 0.017154
0.226155 -1.173261 0.062927
0.219971 -1.141141 -0.040722
0.290978 -1.180035 0.442908
0.220042 -1.148038 -0.049801
0.258753 -1.183062 0.867883
0.318799 -1.175813 0.708986
0.257878 -1.179371 0.627908
0.319976 -1.179105 0.468934
0.315019 -1.157287 0.126155
0.258171 -1.174307 0.088931
0.253931 -1.159736 0.302106
0.220763 -1.170647 0.715992
0.283869 -1.165575 0.486067
0.285155 -1.171381 0.113978
0.315154 -1.171420 0.137994
0.280048 -1.157702 0.139130
0.214919 -1.154126 0.310146
0.247103 -1.149064 -0.028803
0.214047 -1.156411 0.157108
0.247129 -1.150929 -0.040825
0.280911 -1.178525 0.656927
0.248077 -1.159037 0.147096
0.280836 -1.187330 0.905842
0.273789 -1.163123 0.705097
0.305863 -1.169585 0.679039
0.244967 -1.167946 0.492013
0.269091 -1.142119 -0.008716
0.302024 -1.156111 0.279162
0.205116 -1.146059 0.031206
0.268186 -1.148799 -0.037795
0.204168 -1.151145 0.038147
0.234085 -1.140119 0.056288
0.298257 -1.158086 0.008117
0.204919 -1.181088 0.831858
0.297041 -1.166349 0.474051
0.261109 -1.142182 0.080279
0.202225 -1.167063 0.206973
0.264130 -1.161549 0.292075
0.237255 -1.173100 0.233926
0.292229 -1.146602 -0.038762
0.235963 -1.174500 0.711940
0.267266 -1.176164 0.259909
0.203198 -1.178108 0.388860
0.230156 -1.141854 0.030261
0.298274 -1.178209 0.284904
0.235155 -1.173135 0.412935
0.290159 -1.147208 0.102238
0.199029 -1.170453 0.593955
0.258236 -1.148583 0.025198
0.264240 -1.183241 0.441836
0.193243 -1.142345 -0.039773
0.288286 -1.152252 0.016171
0.196369 -1.166493 0.063962
0.293226 -1.181303 0.466874
0.193303 -1.148253 -0.047841
0.230984 -1.183280 0.865842
0.287254 -1.155478 0.124140
0.226130 -1.153919 0.299135
0.195022 -1.174874 0.716907
0.229389 -1.169535 0.089946
0.227017 -1.165524 0.619024
0.283895 -1.154893 0.690180
0.255105 -1.163753 0.481050
0.257399 -1.170592 0.113950
0.188123 -1.149311 0.308163
0.288454 -1.177626 0.137888
0.251278 -1.153899 0.137135
0.220291 -1.154236 0.146113
0.219361 -1.148278 -0.027832
0.186273 -1.152619 0.157112
0.252120 -1.174710 0.651931
0.251991 -1.178467 0.895904
0.218359 -1.146149 -0.039810
0.283197 -1.184848 0.684835
0.248068 -1.169330 0.703991
0.216152 -1.160110 0.486062
0.244417 -1.151300 -0.008854
0.275316 -1.161299 0.277068
0.240424 -1.146002 -0.037801
0.176340 -1.140290 0.033230
0.177191 -1.159498 0.494042
0.208381 -1.145319 0.057192
0.176446 -1.152357 0.039093
0.267419 -1.145306 0.007223
0.234374 -1.143381 0.080229
0.208427 -1.163297 0.231997
0.206072 -1.157600 0.699090
0.176154 -1.180331 0.831824
0.268295 -1.166526 0.469011
0.176545 -1.176278 0.208830
0.264484 -1.145795 -0.039790
0.234310 -1.151735 0.288146
0.238479 -1.171364 0.257925
0.204434 -1.145053 0.031188
0.269492 -1.174401 0.281909
0.263430 -1.149399 0.101177
0.173388 -1.169305 0.385917
0.207440 -1.177365 0.413846
0.231493 -1.148768 0.024159
0.171266 -1.169676 0.593923
0.234410 -1.173422 0.436907
0.266458 -1.181497 0.464836
0.260529 -1.150435 0.014155
0.167129 -1.158978 0.706047
0.203183 -1.179461 0.860846
0.165490 -1.139564 -0.037782
0.167580 -1.159714 0.064997
0.259513 -1.155666 0.122101
0.199398 -1.156113 0.298071
0.202341 -1.177783 0.623848
0.164513 -1.140491 -0.044795
0.201640 -1.168739 0.089915
0.258195 -1.163099 0.689051
0.228345 -1.163934 0.478010
0.228618 -1.165807 0.113965
0.259658 -1.171822 0.135916
0.224521 -1.153077 0.135107
0.162419 -1.155517 0.309053
0.224308 -1.168870 0.645959
0.191549 -1.139488 -0.026771
0.225215 -1.178664 0.892864
0.192537 -1.152430 0.145093
0.158478 -1.145812 0.156148
0.252277 -1.164933 0.670021
0.190621 -1.145358 -0.038841
0.221328 -1.172530 0.701916
0.190413 -1.163302 0.484988
0.215610 -1.142509 -0.008794
0.246541 -1.157487 0.274072
0.213684 -1.146194 -0.037841
0.151435 -1.160699 0.493989
0.149631 -1.143491 0.034153
0.149645 -1.145559 0.040130
0.179552 -1.133527 0.057285
0.240694 -1.147500 0.007161
0.181353 -1.164814 0.699971
0.208687 -1.150569 0.080109
0.235658 -1.134993 -0.040705
0.208569 -1.153909 0.286084
0.239498 -1.160687 0.463037
0.242733 -1.174595 0.280869
0.211751 -1.174567 0.257849
0.181738 -1.170519 0.233875
0.147368 -1.176524 0.827823
0.178758 -1.153236 0.031055
0.236684 -1.149586 0.100137
0.146727 -1.165486 0.207907
0.179664 -1.174557 0.411837
0.145651 -1.170527 0.386860
0.204769 -1.150961 0.024095
0.207649 -1.173620 0.435865
0.238657 -1.176661 0.459852
0.143424 -1.169226 0.710893
0.232757 -1.146626 0.013160
0.142531 -1.170915 0.594864
0.176419 -1.180685 0.860791
0.172614 -1.152292 0.296075
0.138757 -1.139760 -0.036826
0.140855 -1.161926 0.066930
0.173509 -1.167957 0.618917
0.138814 -1.145679 -0.043894
0.229729 -1.148853 0.119137
0.199509 -1.153081 0.471093
0.172841 -1.160959 0.090961
0.231475 -1.168286 0.685953
0.201870 -1.166003 0.113923
0.136620 -1.150698 0.308068
0.231933 -1.174017 0.134850
0.196777 -1.152269 0.134075
0.199442 -1.179860 0.890812
0.198578 -1.174091 0.646861
0.228573 -1.175163 0.672869
0.163762 -1.132695 -0.025735
0.132737 -1.147008 0.157094
0.165776 -1.150614 0.144073
0.163850 -1.141557 -0.037838
0.163632 -1.160476 0.481979
0.192529 -1.166674 0.693940
0.159162 -1.139485 0.919243
0.188872 -1.142710 -0.007836
0.218764 -1.153652 0.270075
0.186956 -1.147370 -0.038895
0.124592 -1.149848 0.489071
0.122909 -1.145756 0.041085
0.212926 -1.143688 0.006164
0.153860 -1.139719 0.058174
0.153501 -1.152936 0.691064
0.180875 -1.141769 0.080168
0.214941 -1.169772 0.277884
0.181830 -1.155098 0.285030
0.182919 -1.163759 0.255929
0.209895 -1.144770 0.099153
0.211742 -1.159859 0.459006
0.154979 -1.169715 0.233842
0.208960 -1.139169 -0.041793
0.120638 -1.181799 0.832719
0.150977 -1.147431 0.031079
0.116480 -1.146269 0.696112
0.118965 -1.162697 0.208895
0.150800 -1.159719 0.406962
0.211869 -1.173847 0.457844
0.116826 -1.159720 0.384937
0.177004 -1.147146 0.023096
0.179882 -1.171822 0.434844
0.204982 -1.141801 0.011174
0.148592 -1.172835 0.853837
0.113686 -1.158071 0.588965
0.145852 -1.150467 0.294053
0.172427 -1.155493 0.927054
0.201950 -1.144032 0.117151
0.145733 -1.165142 0.615905
0.172757 -1.153265 0.469049
0.113098 -1.159130 0.067916
0.146098 -1.161148 0.090917
0.175167 -1.171195 0.113822
0.110907 -1.155896 0.308966
0.199584 -1.148361 0.670135
0.205191 -1.175212 0.134796
0.169991 -1.147439 0.132089
0.170564 -1.164939 0.876938
0.170731 -1.163232 0.639942
0.199697 -1.160258 0.660997
0.107030 -1.152200 0.157992
0.139001 -1.146804 0.144074
0.137862 -1.159650 0.479947
0.133346 -1.133619 0.912269
0.164685 -1.155782 0.684022
0.161120 -1.139902 -0.007847
0.100918 -1.163071 0.492879
0.191025 -1.153836 0.268031
0.098484 -1.149108 0.932065
0.187197 -1.145856 0.005099
0.128742 -1.155120 0.689998
0.127116 -1.138916 0.059140
0.188136 -1.163948 0.275910
0.154146 -1.142956 0.080112
0.154025 -1.147256 0.281076
0.183137 -1.142949 0.098133
0.156162 -1.162943 0.254896
0.182912 -1.148989 0.451087
0.127174 -1.161904 0.232886
0.092783 -1.157523 0.701943
0.124216 -1.144615 0.031067
0.184043 -1.164992 0.451903
0.092212 -1.161897 0.209858
0.153044 -1.161968 0.429914
0.091825 -1.173984 0.828760
0.124065 -1.161929 0.407893
0.150225 -1.142320 0.022109
0.090093 -1.161927 0.385866
0.179280 -1.146968 0.010074
0.121855 -1.177074 0.855744
0.120106 -1.151653 0.293997
0.176228 -1.147192 0.115074
0.086999 -1.167343 0.594813
0.145982 -1.150422 0.465039
0.120029 -1.173386 0.619768
0.145671 -1.156669 0.922997
0.086342 -1.157335 0.069891
0.118300 -1.153341 0.090961
0.147362 -1.163391 0.113867
0.178406 -1.171392 0.133798
0.145828 -1.171165 0.878826
0.177034 -1.176519 0.667773
0.174943 -1.164604 0.673908
0.147066 -1.178498 0.646727
0.143226 -1.144616 0.131079
0.080236 -1.145374 0.157025
0.112272 -1.147979 0.143016
0.110260 -1.128080 -0.023769
0.108594 -1.136822 0.912191
0.141029 -1.172038 0.689795
0.111071 -1.154804 0.475958
0.074688 -1.148289 0.931034
0.075042 -1.148194 0.487005
0.135394 -1.142076 -0.007914
0.164263 -1.151996 0.265009
0.159384 -1.136048 0.005169
0.102977 -1.155309 0.688952
0.070376 -1.139122 0.042072
0.161370 -1.162131 0.274887
0.067979 -1.153679 0.698944
0.129415 -1.163134 0.254849
0.159295 -1.168178 0.451826
0.128347 -1.156440 0.280927
0.155349 -1.136132 0.097167
0.156205 -1.154179 0.449983
0.099422 -1.160100 0.232860
0.126307 -1.164178 0.430844
0.097275 -1.157114 0.406902
0.065499 -1.166104 0.211763
0.151520 -1.143147 0.009073
0.062368 -1.164148 0.387792
0.093316 -1.145821 0.292018
0.094029 -1.168227 0.849798
0.119884 -1.154822 0.917975
0.120241 -1.152590 0.462970
0.092156 -1.157507 0.611903
0.150159 -1.162614 0.657889
0.148448 -1.141363 0.113096
0.092575 -1.156538 0.092879
0.059162 -1.155505 0.590900
0.151643 -1.169568 0.132775
0.059650 -1.163535 0.071772
0.120611 -1.162575 0.113831
0.121134 -1.183457 0.886642
0.147962 -1.160332 0.892928
0.119196 -1.163609 0.637852
0.146067 -1.147668 0.660056
0.117561 -1.154792 0.130917
0.085377 -1.128141 0.141199
0.054520 -1.149559 0.157931
0.084875 -1.146081 0.918043
0.084508 -1.126260 -0.022792
0.085259 -1.147960 0.472992
0.112148 -1.154112 0.676953
0.049901 -1.147486 0.930999
0.136497 -1.148148 0.261007
0.078234 -1.159497 0.688860
0.134614 -1.161311 0.273851
0.042122 -1.140794 0.692046
0.103683 -1.166326 0.255767
0.133571 -1.173380 0.452721
0.130669 -1.145300 0.097019
0.101549 -1.149595 0.277959
0.072672 -1.159284 0.232821
0.129472 -1.156353 0.447912
0.071764 -1.147963 0.030937
0.100555 -1.165365 0.430785
0.070512 -1.155305 0.406875
0.096671 -1.131667 0.021142
0.037705 -1.158293 0.211802
0.036226 -1.162371 0.824794
0.123740 -1.136321 0.008105
0.068304 -1.175498 0.855668
0.127535 -1.184903 0.667591
0.094106 -1.153982 0.913939
0.124187 -1.162512 0.891862
0.122712 -1.142515 0.111039
0.066472 -1.168778 0.618726
0.095349 -1.182638 0.884606
0.065791 -1.150716 0.092899
0.123835 -1.160737 0.130830
0.094495 -1.173854 0.642690
0.032852 -1.155722 0.072813
0.093862 -1.161756 0.113793
0.032529 -1.172815 0.600651
0.122503 -1.175987 0.671687
0.089637 -1.129937 0.127157
0.060042 -1.138185 0.910089
0.059683 -1.134312 0.141081
0.058742 -1.122437 -0.021794
0.026025 -1.134569 0.922103
0.087436 -1.162322 0.678814
0.082898 -1.139421 -0.007975
0.109756 -1.148312 0.258958
0.053566 -1.174774 0.696638
0.018282 -1.131913 0.687103
0.108851 -1.160479 0.272816
0.106717 -1.160506 0.446824
0.076899 -1.161499 0.254775
0.074687 -1.133724 0.273095
0.046919 -1.159469 0.233771
0.044836 -1.122137 0.031187
0.102709 -1.154500 0.443886
0.073744 -1.157522 0.427827
0.102516 -1.182973 0.916586
0.043786 -1.158515 0.408789
0.099610 -1.161952 0.653808
0.098350 -1.153611 0.882919
0.009304 -1.138402 0.810019
0.041442 -1.161600 0.846778
0.068302 -1.149104 0.906948
0.067656 -1.141878 0.455000
0.068467 -1.166709 0.872741
0.067606 -1.155938 0.632849
0.068082 -1.157926 0.113790
0.095986 -1.143682 0.109977
0.006992 -1.126649 -0.033907
0.038605 -1.151890 0.610870
0.097102 -1.161916 0.130768
0.039114 -1.158912 0.094753
0.065016 -1.147109 0.127912
0.035328 -1.147458 0.916936
0.003974 -1.143902 0.158901
0.092608 -1.154027 0.655888
0.033912 -1.130480 0.141077
0.032971 -1.117610 -0.020786
0.060566 -1.146395 0.667949
0.056147 -1.136591 -0.007992
-0.004550 -1.125045 0.684139
0.081927 -1.135456 0.255058
0.083083 -1.158644 0.271790
-0.006852 -1.138649 0.044933
0.080951 -1.159677 0.445786
0.051146 -1.161672 0.254724
0.049021 -1.163717 0.429709
0.020120 -1.151647 0.233811
0.019073 -1.118299 0.031183
0.075933 -1.150643 0.439882
0.073517 -1.145700 0.873965
0.072468 -1.138766 0.879045
0.045294 -1.144983 0.019892
0.075999 -1.186265 0.665481
-0.016386 -1.150731 0.821827
0.043621 -1.163387 0.914736
0.043719 -1.171945 0.876633
0.014548 -1.141641 0.832958
0.041893 -1.163159 0.635716
-0.017753 -1.126821 -0.031957
0.071345 -1.161073 0.129730
0.041337 -1.157099 0.113749
-0.020485 -1.146063 0.933880
0.010544 -1.146635 0.915897
0.038158 -1.130249 0.125057
-0.020868 -1.131048 0.158001
0.066932 -1.166263 0.659698
0.008089 -1.118622 0.139165
0.007254 -1.119778 -0.019861
-0.028250 -1.137306 0.691950
0.029208 -1.107771 -0.006707
0.057338 -1.159805 0.270727
-0.031710 -1.122812 0.046067
0.056163 -1.156827 0.443772
0.024330 -1.128812 0.080044
0.023205 -1.135044 0.270982
0.023194 -1.153859 0.426773
-0.004693 -1.143795 0.232853
-0.004728 -1.111444 0.031216
0.049746 -1.147881 0.873894
0.050034 -1.158269 0.649758
0.019433 -1.128132 0.019038
-0.009199 -1.147898 0.839838
0.046746 -1.144973 0.879923
0.017803 -1.149942 0.859838
0.017817 -1.158525 0.909742
0.016979 -1.142210 0.624911
-0.043171 -1.146938 0.822816
-0.043353 -1.134140 0.925972
-0.012325 -1.134691 0.905990
0.044585 -1.158234 0.128711
-0.043561 -1.115997 -0.029884
0.014417 -1.131247 0.111998
-0.045676 -1.122190 0.157053
0.012447 -1.134411 0.124958
-0.015640 -1.122769 0.139069
-0.017509 -1.116938 -0.018877
-0.021006 -1.137047 0.673929
-0.053007 -1.139503 0.693873
0.004560 -1.120919 -0.006909
0.031600 -1.161974 0.270651
-0.056506 -1.114959 0.046107
0.030427 -1.160014 0.444684
0.000584 -1.154990 0.253702
-0.059292 -1.143999 0.047763
-0.000445 -1.124965 0.080039
0.025930 -1.143001 0.868904
-0.030367 -1.125609 0.031999
0.025355 -1.172526 0.656542
-0.032560 -1.130591 0.285954
-0.005915 -1.161222 0.868659
-0.005408 -1.114282 0.019150
-0.007024 -1.148605 0.900807
-0.035014 -1.140039 0.835877
-0.067138 -1.134337 0.927920
0.020125 -1.166312 0.891621
-0.037070 -1.139931 0.910879
-0.009376 -1.126393 0.112007
0.018671 -1.134362 0.125939
-0.073670 -1.207160 -0.032008
-0.012309 -1.133551 0.123918
-0.071373 -1.129369 0.158916
-0.041346 -1.127937 0.139956
-0.015808 -1.132790 0.654957
0.012264 -1.140420 0.639891
-0.043221 -1.120099 -0.017967
-0.076792 -1.138678 0.694833
-0.019206 -1.119059 -0.006936
-0.086789 -1.181183 0.049272
-0.084166 -1.124155 0.048941
0.002270 -1.163338 0.882619
-0.025283 -1.111103 0.079150
-0.053182 -1.123129 0.064982
-0.055150 -1.119753 0.032015
-0.030725 -1.156367 0.865664
-0.030109 -1.120415 0.018027
-0.090920 -1.135555 0.931855
-0.032779 -1.150792 0.900727
-0.004722 -1.155377 0.881698
-0.060798 -1.137234 0.836855
-0.060872 -1.137079 0.908861
-0.035113 -1.126548 0.111951
-0.094035 -1.116318 -0.026994
-0.095767 -1.135309 0.822840
-0.037116 -1.124689 0.122969
-0.103561 -1.212702 0.169876
-0.066108 -1.126085 0.139925
-0.073327 -1.213260 -0.020120
-0.044950 -1.117207 -0.006969
-0.107911 -1.126289 0.048864
-0.020941 -1.113121 0.000098
-0.022486 -1.167552 0.885517
-0.078852 -1.134289 0.065796
-0.023399 -1.140642 0.637814
-0.109916 -1.122324 0.050906
-0.050978 -1.117265 0.080024
-0.023810 -1.143243 0.093744
-0.086379 -1.193945 0.032080
-0.119731 -1.185562 0.320166
-0.056507 -1.154550 0.865630
-0.083037 -1.134914 0.286795
-0.055835 -1.121551 0.016959
-0.057579 -1.146934 0.897719
-0.057337 -1.140742 0.626773
-0.085638 -1.139290 0.911782
-0.083726 -1.112207 0.821096
-0.031463 -1.158569 0.881603
-0.029848 -1.113172 0.000078
-0.131514 -1.242120 0.530495
-0.119747 -1.120483 -0.025100
-0.121547 -1.133533 0.826803
-0.120916 -1.122669 0.159885
-0.062914 -1.114816 0.121029
-0.099193 -1.225421 0.150691
-0.094369 -1.128499 0.669872
-0.093710 -1.118405 -0.016057
-0.076024 -1.215360 -0.010188
-0.046305 -1.162674 0.881523
-0.133678 -1.121443 0.049863
-0.046645 -1.117255 -0.001006
-0.134698 -1.116472 0.051918
-0.047788 -1.108348 0.091103
-0.103695 -1.118440 0.066926
-0.078503 -1.149458 0.082586
-0.077798 -1.134638 0.267774
-0.080355 -1.143646 0.859705
-0.137908 -1.121478 0.304870
-0.107551 -1.130049 0.031779
-0.114373 -1.199292 0.301973
-0.083379 -1.141057 0.892731
-0.086168 -1.180722 0.016197
-0.110387 -1.130588 0.837823
-0.055527 -1.121305 -0.001073
-0.145918 -1.141724 0.490629
-0.058239 -1.155711 0.877578
-0.149464 -1.166638 0.227312
-0.087441 -1.150887 0.114551
-0.144537 -1.112638 -0.023065
-0.126216 -1.246834 0.510404
-0.059478 -1.140533 0.100699
-0.116456 -1.143902 0.099602
-0.145695 -1.117808 0.159885
-0.154538 -1.180856 0.412147
-0.152310 -1.161975 0.085349
-0.151044 -1.153358 0.710497
-0.095030 -1.210109 0.128840
-0.150238 -1.144890 0.840606
-0.116626 -1.121375 0.139868
-0.091112 -1.130260 0.651823
-0.119449 -1.117544 -0.016105
-0.070148 -1.152758 0.874586
-0.096397 -1.120492 -0.007121
-0.159418 -1.121594 0.050801
-0.075976 -1.177395 -0.003780
-0.166124 -1.165487 0.966338
-0.128469 -1.113575 0.066927
-0.101476 -1.114561 0.080944
-0.160452 -1.113634 0.053892
-0.077145 -1.165562 0.094364
-0.113845 -1.243149 0.291420
-0.106088 -1.150903 0.866562
-0.162675 -1.119633 0.305834
-0.133312 -1.126188 0.031765
-0.129784 -1.096082 0.278143
-0.136146 -1.132832 0.843738
-0.108275 -1.124828 0.015803
-0.170693 -1.140898 0.492581
-0.119135 -1.221409 0.479676
-0.086776 -1.193455 -0.003994
-0.177185 -1.170830 0.230197
-0.140651 -1.139400 0.467624
-0.112297 -1.133013 0.113704
-0.085029 -1.149812 0.870587
-0.171965 -1.130349 0.698715
-0.170452 -1.116956 0.160837
-0.141276 -1.132038 0.099683
-0.170288 -1.109795 -0.021092
-0.089894 -1.188741 0.103062
-0.174264 -1.130089 0.085670
-0.113377 -1.118089 0.119878
-0.178457 -1.153924 0.406404
-0.185677 -1.201678 0.886863
-0.141407 -1.115499 0.138879
-0.145811 -1.144972 0.681562
-0.145190 -1.116692 -0.015154
-0.181701 -1.145388 0.612510
-0.093981 -1.143838 0.867636
-0.122148 -1.117629 -0.007146
-0.096739 -1.136112 0.636705
-0.186080 -1.137408 0.948616
-0.107661 -1.231756 0.263525
-0.098096 -1.119512 -0.003148
-0.126237 -1.111696 0.080920
-0.153242 -1.108719 0.067926
-0.099185 -1.120636 0.090843
-0.127400 -1.117878 0.263858
-0.187448 -1.116784 0.306809
-0.158082 -1.122318 0.031752
-0.163823 -1.167166 0.940277
-0.157400 -1.117311 0.283831
-0.173612 -1.233138 0.259433
-0.174858 -1.224345 0.444546
-0.195477 -1.138044 0.492554
-0.134012 -1.124965 0.015741
-0.180200 -1.257269 0.939182
-0.137387 -1.141150 0.449574
-0.196731 -1.132550 0.702630
-0.114025 -1.194958 0.445957
-0.165432 -1.136548 0.467599
-0.107970 -1.123553 -0.004219
-0.138999 -1.139171 0.114569
-0.175238 -1.196811 0.651882
-0.173738 -1.175277 0.104100
-0.111059 -1.122772 0.096790
-0.140085 -1.122235 0.119766
-0.167137 -1.117651 0.139793
-0.201835 -1.135285 0.845596
-0.169645 -1.134061 0.676633
-0.145507 -1.150759 0.664457
-0.169976 -1.108829 -0.014121
-0.207493 -1.140568 0.614504
-0.118754 -1.145027 0.869565
-0.146918 -1.112757 -0.007148
-0.166407 -1.237272 0.276362
-0.163782 -1.210379 0.454697
-0.123850 -1.115635 -0.004163
-0.124127 -1.116547 0.239843
-0.182821 -1.129970 0.913666
-0.154128 -1.119028 0.263781
-0.179273 -1.098382 0.280000
-0.171831 -1.239208 0.687355
-0.185983 -1.134970 0.241552
-0.162591 -1.159790 0.909327
-0.190103 -1.145131 0.420435
-0.188664 -1.137315 0.855561
-0.159765 -1.122086 0.014713
-0.163162 -1.137277 0.447557
-0.191200 -1.134709 0.468558
-0.133689 -1.126675 -0.005317
-0.176234 -1.219474 0.121536
-0.193327 -1.142609 0.626471
-0.136093 -1.141837 0.425529
-0.194424 -1.133237 0.678582
-0.164860 -1.117366 0.119764
-0.136807 -1.120897 0.095751
-0.169358 -1.135810 0.656574
-0.144462 -1.159338 0.881335
-0.145275 -1.137354 0.631575
-0.171692 -1.106881 -0.007138
-0.181680 -1.154146 0.260300
-0.180938 -1.145212 0.433420
-0.185309 -1.172732 0.892118
-0.148609 -1.112749 -0.005188
-0.206635 -1.124099 0.911676
