# .PCD v0.7 - Point Cloud Data file format
VERSION 0.7
FIELDS x y z
SIZE 4 4 4
TYPE F F F
COUNT 1 1 1
WIDTH 50
HEIGHT 1
VIEWPOINT 0 0 0 1
POINTS 50
DATA ascii
1.011328 -1.680162 -0.155001
1.054454 -1.750596 -0.129317
0.992754 -1.709366 -0.197386
1.856024 -3.079063 -0.224207
1.837025 -3.086002 -0.180254
1.694617 -2.865530 -0.218088
1.809056 -3.090900 -0.139237
1.655684 -2.852874 -0.205740
1.792077 -3.094445 -0.114235
1.619807 -2.851087 -0.199582
1.574886 -2.783277 -0.294304
1.607829 -2.863881 -0.161747
1.559874 -2.785040 -0.258274
1.552758 -2.780123 -0.205160
1.444027 -2.690388 -0.304279
1.439012 -2.695961 -0.276349
1.422993 -2.692642 -0.244230
1.423926 -2.703637 -0.194409
1.415633 -2.789429 -0.307814
1.239880 -2.582798 -0.055670
1.226885 -2.560417 -0.076250
1.175052 -2.514442 -0.131284
1.155092 -2.512942 -0.108173
1.130037 -2.476046 -0.105460
1.153158 -2.530160 -0.097448
1.103125 -2.451563 -0.132946
1.181382 -2.619571 -0.074039
1.093289 -2.467291 -0.148164
1.572043 -3.480745 -0.333931
1.081302 -2.467750 -0.126118
1.559008 -3.478386 -0.302839
1.043236 -2.395185 -0.158763
1.106551 -2.557030 -0.109696
1.125715 -2.612977 -0.110701
1.019317 -2.384225 -0.159477
1.127758 -2.628107 -0.103959
1.054595 -2.494615 -0.136446
1.031688 -2.484514 -0.144181
0.954506 -2.322376 -0.210178
1.066944 -2.587729 -0.130035
0.952527 -2.332711 -0.193337
1.008778 -2.469260 -0.159831
1.090205 -2.679972 -0.115658
0.983835 -2.450245 -0.163407
1.494453 -3.664738 -0.089688
1.042253 -2.620511 -0.144472
1.472476 -3.644618 -0.098268
0.876751 -2.271303 -0.222985
1.025409 -2.633453 -0.149613
0.905959 -2.359553 -0.207568
