# .PCD v0.7 - Point Cloud Data file format
VERSION 0.7
FIELDS x y z
SIZE 4 4 4
TYPE F F F
COUNT 1 1 1
WIDTH 28
HEIGHT 1
VIEWPOINT 0 0 0 1
POINTS 28
DATA ascii
1.316497 3.153945 1.689590
1.363551 3.055810 1.651211
1.323123 2.956845 1.691468
1.212236 2.689233 1.617720
1.364115 2.865638 1.655175
1.325716 2.769913 1.681488
1.207664 2.520161 1.613991
1.269408 2.553646 1.668790
1.261727 2.513584 1.668116
1.255900 2.493641 1.661771
1.417830 2.806221 1.637450
1.316135 2.598758 1.680709
1.371457 2.706493 1.660663
1.267978 2.486593 1.668709
1.321948 2.514088 1.659374
1.317206 2.479929 1.665808
1.316301 2.467886 1.667612
1.365672 2.557149 1.673251
1.385714 2.585406 1.605779
1.321492 2.447907 1.667313
1.332192 2.397040 1.600535
1.330392 2.368801 1.613076
1.364029 2.425142 1.607121
1.326505 2.353738 1.614818
1.328750 2.327772 1.612411
1.402561 2.368894 1.633390
1.374069 2.310079 1.609322
1.378279 2.287042 1.611971
