# .PCD v0.7 - Point Cloud Data file format
VERSION 0.7
FIELDS x y z
SIZE 4 4 4
TYPE F F F
COUNT 1 1 1
WIDTH 36
HEIGHT 1
VIEWPOINT 0 0 0 1
POINTS 36
DATA ascii
0.497537 -2.257814 1.962854
0.456128 -2.206856 1.915154
0.448873 -2.054526 1.852106
0.418134 -2.122868 1.841562
0.425751 -1.995118 1.862281
0.387542 -2.104214 1.822525
0.418691 -2.126099 1.841395
0.406276 -2.083429 1.872647
0.466413 -2.237406 1.937667
0.371493 -2.157864 1.870028
0.386191 -2.022952 1.880843
0.347023 -2.144115 1.852985
0.367784 -2.112765 1.822197
0.367881 -2.148507 1.925929
0.390688 -2.114641 1.821163
0.427163 -2.206843 1.878516
0.322782 -2.186813 1.893516
0.345634 -2.058830 1.906328
0.305454 -2.177960 1.878475
0.327282 -2.159673 1.855595
0.312820 -2.117096 1.893834
0.346045 -2.143461 1.834673
0.360809 -2.136249 1.804665
0.269875 -2.187597 1.894179
0.307181 -2.114801 1.950659
0.257642 -2.179653 1.878161
0.282647 -2.191496 1.875072
0.302467 -2.187341 1.862065
0.273465 -2.202269 1.965935
0.319325 -2.199204 1.843921
0.227538 -2.288888 1.982141
0.218269 -2.259730 1.945304
0.239041 -2.232341 1.904486
0.253679 -2.203061 1.866640
0.230988 -2.276378 2.030099
0.271618 -2.233002 1.859360
