# .PCD v0.7 - Point Cloud Data file format
VERSION 0.7
FIELDS x y z
SIZE 4 4 4
TYPE F F F
COUNT 1 1 1
WIDTH 120
HEIGHT 1
VIEWPOINT 0 0 0 1
POINTS 120
DATA ascii
-0.888869 2.168611 0.831936
-0.819568 2.124205 0.870153
-0.851211 2.233301 0.851345
-0.777421 2.165971 0.881095
-0.808809 2.286937 0.868528
-0.840933 2.139511 0.869642
-0.818922 2.136089 0.864611
-0.740896 2.225730 0.899395
-0.765238 2.348514 0.887871
-0.793184 2.163280 0.874221
-0.859527 2.102175 0.849034
-0.783329 2.198884 0.881975
-0.750985 2.208016 0.887222
-0.824933 2.165028 0.864401
-0.847246 2.283260 0.977827
-0.745726 2.262622 0.900356
-0.794899 2.248826 0.888187
-0.746202 2.136259 0.910959
-0.753548 2.301590 0.901345
2.401320 -2.046927 2.560529
2.318363 -2.071321 2.525154
2.276767 -2.128472 2.533114
2.285686 -2.334545 2.489147
2.217439 -2.377830 2.481405
0.169619 2.133001 1.228042
0.176792 2.139694 1.236184
0.225397 2.158440 1.249618
0.228529 2.164277 1.254738
0.171069 2.083949 1.225251
0.127838 2.013126 1.205964
0.224734 2.104516 1.242732
0.177552 2.035779 1.223475
0.228261 2.058442 1.239982
0.285468 2.105668 1.272977
0.281257 -1.653394 1.806515
0.259477 -1.722360 1.773271
0.234631 -1.604431 1.751632
0.220201 -1.711369 1.759635
0.221957 -1.722826 1.730402
0.203693 -1.633484 1.782207
0.188304 -1.736289 1.784286
0.188822 -1.765061 1.771725
0.184673 -1.985332 2.037519
1.112917 1.708724 1.558825
1.327981 1.792209 1.798353
1.167882 1.858194 1.591793
0.093184 -2.786701 -0.154279
1.181498 1.722844 1.595111
0.092267 -2.784080 -0.134221
1.234237 1.860585 1.616849
1.243854 1.725265 1.622169
1.313872 1.877475 1.656177
1.297969 1.715040 1.638982
1.291365 1.770613 1.772171
1.346939 1.697015 1.650643
1.376021 1.869102 1.674017
-0.106874 -3.323592 1.525066
-0.117917 -3.560083 1.555429
1.356674 1.769951 1.802161
1.448358 1.870365 1.702037
-0.178047 -3.372889 1.550303
-0.194315 -3.391429 1.489971
2.469618 -1.585301 2.653874
2.463364 -1.658422 2.679700
2.425064 -1.721779 2.576767
2.400929 -1.785517 2.592805
2.383758 -1.854503 2.617740
2.435743 -1.770128 2.568197
2.415582 -1.838964 2.587144
2.405362 -1.916151 2.618930
2.355901 -2.041406 2.526067
2.329779 -2.113251 2.550020
2.311596 -2.194399 2.585802
0.264969 -1.697978 1.783951
0.282421 -1.565572 1.815241
0.583366 -3.370233 3.865208
0.221842 -1.929797 2.103623
0.228302 -1.990143 2.060614
0.251113 -1.714067 1.807146
0.262753 -1.859526 2.131826
0.276269 -1.595165 1.804146
0.253092 -1.978446 2.074010
0.268810 -1.703800 1.788512
0.251048 -1.709669 1.791546
0.207983 -1.929915 2.069078
0.208731 -1.964630 2.051521
0.251689 -1.888066 2.121799
0.250166 -1.959804 2.046675
0.233302 -1.981940 2.065442
0.212415 -2.783020 -0.126829
0.209620 -1.983790 2.070571
0.294647 -2.793124 -0.098038
0.076690 -2.782618 -0.150471
0.070803 -2.775546 -0.152322
0.225390 -2.791225 -0.122601
0.080967 -2.766680 -0.152789
-0.051485 -3.158358 1.548424
-0.120208 -3.224354 1.580747
0.094926 -2.769620 -0.166490
0.031646 -2.770235 -0.165125
-0.073516 -3.228057 1.543907
-0.137400 -3.578916 1.561594
-0.295706 -3.633010 1.512051
-0.215322 -3.529987 1.539811
-0.085733 -3.301649 1.527259
-0.224171 -3.420953 1.545111
-0.845543 2.123150 0.852720
-0.818860 2.210583 0.874958
-0.780354 2.272115 0.886776
0.114116 1.942473 1.185914
0.160369 1.968149 1.201185
0.209683 2.008709 1.225651
0.257913 2.030438 1.238857
0.312249 2.081898 1.271464
1.038417 1.649436 1.514998
1.093607 1.653291 1.536034
1.179850 1.697647 1.597557
1.347197 1.844817 1.755301
1.380314 1.803158 1.742799
1.457489 1.814873 1.781935
