# .PCD v0.7 - Point Cloud Data file format
VERSION 0.7
FIELDS x y z
SIZE 4 4 4
TYPE F F F
COUNT 1 1 1
WIDTH 35
HEIGHT 1
VIEWPOINT 0 0 0 1
POINTS 35
DATA ascii
0.536353 -1.616160 1.966031
0.538852 -1.653288 1.977506
0.516878 -1.641709 1.992919
0.509950 -1.647605 1.983920
0.514339 -1.687199 1.963332
0.508389 -1.679723 1.992505
0.509001 -1.731575 1.986794
0.492639 -1.684318 2.022629
0.486734 -1.691271 2.017602
0.490185 -1.733985 2.003980
0.503531 -1.777352 1.973232
0.501476 -1.773307 1.969310
0.481109 -1.718360 2.022299
0.517095 -1.834914 1.955288
0.479701 -1.768248 2.017633
0.451718 -1.681242 2.000141
0.446816 -1.688221 1.997102
0.506816 -1.892869 1.950607
0.510183 -1.923877 1.954143
0.454571 -1.750305 2.009165
0.473287 -1.817129 2.010034
0.472248 -1.815059 2.005074
0.499973 -1.908649 1.934464
0.439133 -1.711282 1.998876
0.481700 -1.864569 1.981283
0.489263 -1.919252 1.967441
0.434677 -1.756204 1.994307
0.491755 -1.964097 1.960790
0.478823 -1.954733 1.994066
0.480054 -1.974722 1.994775
0.472833 -1.960422 1.972050
0.425181 -1.798072 1.983833
0.424147 -1.796969 1.976859
0.439064 -1.876992 1.988584
0.459155 -1.972075 2.007041
