# .PCD v0.7 - Point Cloud Data file format
VERSION 0.7
FIELDS x y z
SIZE 4 4 4
TYPE F F F
COUNT 1 1 1
WIDTH 19
HEIGHT 1
VIEWPOINT 0 0 0 1
POINTS 19
DATA ascii
2.765129 1.883129 1.656849
2.696701 1.812685 1.661574
2.785225 1.870335 1.615122
2.606120 1.738951 1.620802
2.459216 1.626264 1.625927
3.011287 1.964753 1.647694
2.886549 1.878887 1.651643
2.789786 1.807841 1.647086
2.714299 1.737490 1.649989
2.335243 1.475317 1.625876
2.818892 1.796968 1.604148
2.644019 1.678495 1.615911
2.488039 1.566933 1.618283
2.833866 1.747233 1.650028
2.747265 1.672020 1.650141
2.362154 1.424996 1.620405
2.672744 1.613176 1.606167
2.509755 1.505702 1.607780
2.383960 1.370751 1.611995
