# .PCD v0.7 - Point Cloud Data file format
VERSION 0.7
FIELDS x y z
SIZE 4 4 4
TYPE F F F
COUNT 1 1 1
WIDTH 30
HEIGHT 1
VIEWPOINT 0 0 0 1
POINTS 30
DATA ascii
-0.613066 1.933768 1.840794
-0.623472 2.280582 1.858993
-0.528224 1.810824 1.718973
-0.603420 2.279888 1.853812
-0.595138 2.245127 1.846066
-0.597120 2.246098 1.848044
-0.618012 2.368721 1.861363
-0.531387 2.118044 1.716427
-0.599087 2.249039 1.853009
-0.624577 2.449896 1.853740
-0.502527 1.894877 1.790185
-0.515536 2.153864 1.736908
-0.511276 2.122968 1.734267
-0.523865 2.200118 1.722685
-0.510159 2.108127 1.726952
-0.621077 2.527250 1.842915
-0.505866 2.221118 1.785984
-0.512083 2.104117 1.728804
-0.526403 2.281216 1.721034
-0.481994 2.254152 1.799354
-0.478701 2.218247 1.796632
-0.491311 2.298337 1.788103
-0.480605 2.207249 1.796406
-0.523962 2.372243 1.727462
-0.482493 2.197275 1.796153
-0.490867 2.382408 1.789480
-0.483422 2.476469 1.796921
-0.537949 2.934093 1.746297
-0.542746 2.915817 1.760902
-0.488090 2.998628 1.803904
