# .PCD v0.7 - Point Cloud Data file format
VERSION 0.7
FIELDS x y z
SIZE 4 4 4
TYPE F F F
COUNT 1 1 1
WIDTH 15
HEIGHT 1
VIEWPOINT 0 0 0 1
POINTS 15
DATA ascii
1.544134 -3.216556 0.671679
1.554805 -3.090971 0.422118
1.575677 -3.220323 0.668198
1.399243 -3.131346 0.331044
1.474528 -3.106055 0.422846
1.598288 -3.221066 0.661716
1.486437 -3.220327 0.661023
1.627893 -3.210661 0.640338
1.407340 -3.154153 0.427372
1.472822 -3.139788 0.513070
1.505046 -3.212050 0.650600
1.530669 -3.196622 0.625248
1.417654 -3.206874 0.519487
1.447907 -3.279104 0.655011
1.470541 -3.256649 0.625711
