# .PCD v0.7 - Point Cloud Data file format
VERSION 0.7
FIELDS x y z
SIZE 4 4 4
TYPE F F F
COUNT 1 1 1
WIDTH 125
HEIGHT 1
VIEWPOINT 0 0 0 1
POINTS 125
DATA ascii
2.226433 1.725433 1.574488
1.998427 1.728092 1.433514
2.343737 1.735848 1.163683
1.937695 1.740081 1.361824
2.388825 1.739867 1.094779
2.151901 1.724784 1.525550
2.169923 1.740604 0.999779
2.461903 1.759420 0.653140
2.465923 1.768301 0.298252
2.441162 1.723345 1.189481
2.239887 1.767768 0.619315
2.521988 1.772037 0.382385
2.015173 1.723497 1.382518
2.279074 1.763758 0.593248
2.250255 1.718075 1.562475
2.303052 1.757143 1.041225
2.601138 1.767284 0.681403
2.106090 1.760761 0.962276
2.607162 1.777471 0.312540
2.558456 1.721876 1.223534
2.315254 1.744663 1.068973
2.643371 1.767088 0.392361
2.137313 1.737773 1.431911
2.358554 1.715364 1.604499
2.367620 1.743411 0.605875
2.401502 1.743647 1.067006
2.700693 1.744946 0.698999
2.737526 1.774547 0.325566
2.684764 1.719441 1.260575
2.188617 1.741292 0.978917
2.771751 1.762213 0.402346
2.750921 1.720301 1.208627
2.229739 1.725176 1.460711
2.463929 1.705647 1.645374
2.277602 1.760229 0.980379
2.489947 1.743248 0.626960
2.555807 1.776346 0.289630
2.801188 1.706012 1.292381
2.584797 1.783153 0.266790
2.323746 1.757898 1.018371
2.081779 1.732095 1.575896
2.311070 1.748522 0.572063
2.579011 1.753295 0.668245
2.130769 1.765732 0.931499
2.908154 1.755398 0.413302
2.878342 1.707788 1.249466
2.341081 1.720541 1.500700
2.350269 1.743416 0.549978
2.582255 1.699917 1.693351
2.377088 1.744850 1.001129
2.640157 1.754270 0.653307
2.416167 1.775337 0.219627
2.677233 1.768475 0.295554
2.657386 1.722456 1.156763
2.411309 1.734437 1.036943
2.468148 1.772657 0.596693
2.217261 1.751825 0.878254
2.238128 1.762369 0.955510
2.224238 1.736356 1.362041
2.455423 1.714915 1.541678
2.479575 1.746429 0.566143
2.761622 1.741115 0.673128
2.280378 1.770032 0.532610
2.765662 1.719298 1.171784
2.315393 1.778945 0.461809
2.792710 1.719111 1.193807
2.561703 1.767383 0.194566
2.343525 1.757569 0.906479
2.350494 1.758014 0.981511
2.326690 1.722818 1.392843
2.573781 1.707268 1.585622
2.634758 1.760605 0.587569
2.389822 1.760920 0.544507
2.933209 1.741817 0.309203
2.651100 1.717675 1.098798
2.692149 1.741338 0.627223
2.446014 1.738633 1.000187
2.455990 1.745297 0.928319
2.445045 1.717274 1.431834
2.703138 1.699632 1.634583
2.753264 1.744542 0.601336
2.747248 1.722942 1.087988
2.508308 1.766207 0.172635
2.508253 1.752857 0.558441
2.561207 1.769011 0.484808
2.795399 1.717355 1.138925
2.571408 1.710729 1.474818
2.881784 1.727560 0.616101
2.667454 1.766069 0.579861
2.692657 1.760097 0.497743
2.716672 1.735079 1.067369
2.703877 1.722818 0.980085
2.709755 1.705182 1.523842
2.780027 1.743981 0.591511
2.837082 1.753272 0.512740
2.860058 1.727853 1.102364
2.857216 1.720712 1.014196
2.922483 1.733097 0.608429
1.949218 1.748846 1.422948
2.031384 1.740667 1.457407
2.069468 1.756658 1.075735
2.066012 1.728889 1.562548
2.102625 1.718535 1.482705
2.153689 1.749570 1.097212
2.183201 1.755237 1.014430
2.164096 1.732669 1.605186
2.210950 1.766733 0.693665
1.971050 1.739678 1.433213
2.249537 1.768432 0.606912
2.011286 1.742873 1.413486
2.238539 1.747159 1.552741
2.232930 1.735484 1.116612
2.271430 1.742112 1.039891
2.304227 1.758692 0.708190
2.349803 1.761364 0.625486
2.354608 1.765946 0.288533
2.117777 1.756090 1.007224
2.345065 1.742334 1.150353
2.392294 1.760309 0.374732
2.397525 1.754914 1.081757
2.387523 1.740647 0.720588
2.181124 1.751282 0.988588
2.432102 1.739296 0.639851
2.468895 1.766938 0.300246
2.201042 1.742008 1.025653
