# .PCD v0.7 - Point Cloud Data file format
VERSION 0.7
FIELDS x y z
SIZE 4 4 4
TYPE F F F
COUNT 1 1 1
WIDTH 1547
HEIGHT 1
VIEWPOINT 0 0 0 1
POINTS 1547
DATA ascii
-0.264431 2.549957 1.899926
-0.237366 2.401173 1.896323
-0.283717 2.591929 1.889359
-0.243953 2.343150 1.892666
-0.205017 2.502822 1.858532
-0.241669 3.285292 1.888207
-0.174916 2.351137 1.847903
-0.250687 2.307181 1.884255
-0.226908 2.613193 1.900729
-0.186558 2.299012 1.850301
-0.255298 3.224940 1.909511
-0.264476 2.690883 1.904521
-0.160668 2.691674 1.989756
-0.257485 2.278135 1.882921
-0.126569 2.538971 1.983125
-0.173327 1.991274 1.831892
-0.265840 3.159878 1.906768
-0.195430 2.277860 1.857052
-0.165601 2.576926 1.872461
-0.200190 2.095514 1.883008
-0.142127 2.475842 1.983391
-0.179201 3.212610 1.896545
-0.195885 2.620892 1.855891
-0.276500 3.108716 1.913180
-0.205461 2.274544 1.878000
-0.233030 2.765079 1.905431
-0.147992 2.340676 1.902867
-0.189427 3.109776 1.873379
-0.220203 4.010966 2.022403
-0.147768 2.047318 1.842586
-0.145675 2.825673 1.997306
-0.154228 2.247139 1.855809
-0.209923 3.156870 1.940872
-0.244145 3.898109 1.903088
-0.171801 2.851825 1.966545
1.879001 3.198509 2.669839
1.912545 2.977485 2.689436
1.930526 3.109321 2.715954
1.875689 2.814016 2.704533
1.903448 2.722736 2.656564
1.793496 2.316439 2.607785
1.884546 2.422122 2.696159
1.900212 2.336474 2.673231
1.906265 2.336820 2.646245
1.885910 2.516434 2.668221
1.932819 2.263104 2.636472
2.106936 2.465145 2.837101
1.940173 2.478762 2.672909
2.129887 2.604119 2.853709
3.283603 -0.863795 1.116009
3.202479 -0.843643 0.599046
3.219674 -0.873231 1.112785
3.079522 -0.844301 0.576807
3.251269 -0.835104 0.672243
3.022819 -0.873840 1.037404
2.938617 -0.853125 0.557445
2.990927 -0.890750 1.548190
3.117385 -0.853143 0.676793
2.861687 -0.859535 0.543229
3.005443 -0.848420 0.627633
3.172246 -0.846236 0.720981
3.019668 -0.871602 1.103433
3.019604 -0.874058 1.144409
2.727761 -0.865309 0.523914
2.881534 -0.863398 0.633236
2.654807 -0.868701 0.510740
2.734283 -0.914124 1.952479
3.033574 -0.878283 1.173397
2.785578 -0.857591 0.587118
3.133167 -0.849052 0.767886
3.152065 -0.858891 0.855818
2.781831 -0.874492 1.025952
2.787778 -0.878926 1.068917
2.648342 -0.916498 1.929291
2.584129 -0.883605 0.905470
2.558341 -0.896732 1.350305
2.663638 -0.868566 0.593770
2.534192 -0.892984 0.906274
2.820511 -0.879598 0.699955
2.479922 -0.878701 0.484304
2.555544 -0.921212 1.842062
2.596699 -0.866614 0.553665
2.890296 -0.853224 0.712382
2.563937 -0.871303 0.954577
2.476400 -0.903245 1.342081
2.595955 -0.887646 1.006460
2.886373 -0.879488 1.274121
2.801857 -0.849557 0.413238
2.429300 -0.896256 0.861041
2.459580 -0.918581 1.811911
2.370488 -0.895168 1.264969
2.496773 -0.880473 0.564328
2.667805 -0.895267 1.109523
2.359318 -0.897704 0.854895
2.616604 -0.882642 0.658539
2.611907 -0.886746 1.025508
2.312992 -0.882642 0.457950
2.436834 -0.878470 0.524236
2.555670 -0.874369 0.593512
2.418125 -0.885877 0.909144
2.690542 -0.884114 1.200700
2.424095 -0.893299 0.951076
2.622966 -0.860663 0.393782
2.671772 -0.887077 1.094626
2.268401 -0.898930 0.814711
2.449167 -0.862870 0.297423
2.313368 -0.868965 0.216093
2.279751 -0.922448 1.229500
2.223071 -0.891185 0.446690
2.420254 -0.863618 0.255358
2.324838 -0.882395 0.532986
2.477924 -0.894930 1.043170
2.442693 -0.886534 0.623171
2.443054 -0.892343 0.967129
2.202419 -0.900349 0.808574
2.502109 -0.858633 0.310574
2.538601 -0.875923 0.631472
2.549470 -0.881819 0.719433
2.270889 -0.879371 0.494918
2.171075 -0.889457 0.436612
2.140559 -0.875390 0.139692
2.398794 -0.884181 0.562112
2.274259 -0.893437 0.863793
2.546749 -0.899594 1.148260
2.270216 -0.897888 0.901740
2.457035 -0.866686 0.375408
2.305651 -0.924478 1.790569
2.484904 -0.887673 1.024270
2.190381 -0.864573 0.188914
2.122488 -0.900528 0.771425
2.301239 -0.870829 0.285063
2.166007 -0.931780 1.635216
2.156385 -0.870013 0.205794
2.260293 -0.866643 0.241031
2.188938 -0.891143 0.509642
2.086142 -0.896974 0.426377
2.283766 -0.889349 0.590848
2.296192 -0.898857 0.915787
2.335151 -0.860652 0.291246
2.393564 -0.886577 0.684094
2.399745 -0.888602 0.600078
2.019570 -0.875162 0.128476
2.072536 -0.907907 0.772254
2.136980 -0.887104 0.471589
2.037132 -0.893224 0.416329
2.242851 -0.884985 0.530818
2.005571 -0.877344 0.135427
2.147399 -0.902926 0.823458
2.171714 -0.926123 1.760306
2.322148 -0.879525 0.361021
2.160828 -0.924494 1.696301
2.139348 -0.906407 0.861408
2.042873 -0.920322 1.151089
2.065444 -0.872419 0.181602
2.176329 -0.881640 0.274718
2.000587 -0.906049 0.737143
2.038455 -0.878808 0.198485
2.130364 -0.874480 0.229710
1.995963 -0.920134 1.103004
2.054996 -0.893864 0.485369
1.956186 -0.898712 0.406123
2.215262 -0.873393 0.277888
2.236786 -0.885390 0.562814
2.159873 -0.899007 0.567517
2.240635 -0.888325 0.649794
2.167323 -0.906328 0.872470
2.172554 -0.861582 0.085927
1.910632 -0.883937 0.125185
1.935588 -0.905472 0.732032
2.120953 -0.893618 0.506502
2.019068 -0.894753 0.451292
1.932231 -0.903834 0.401024
1.900640 -0.887089 0.132133
2.023752 -0.909675 1.170182
2.013469 -0.902446 0.781219
2.053905 -0.933153 1.685013
2.194225 -0.887314 0.346703
2.045012 -0.930510 1.621022
2.009431 -0.907908 0.820155
1.962540 -0.885116 0.175279
1.923997 -0.924630 1.099826
2.050377 -0.886449 0.263438
1.887674 -0.910527 0.704890
2.004711 -0.869207 0.030528
1.911312 -0.934960 1.482715
2.064285 -0.910428 0.903241
2.021445 -0.884187 0.220407
1.924500 -0.884585 0.192217
1.883067 -0.922433 1.054774
1.928034 -0.894569 0.464132
2.119890 -0.893975 0.537508
2.133763 -0.900869 0.627463
2.088316 -0.878176 0.263605
2.022903 -0.896706 0.539294
2.031387 -0.903818 0.826249
1.844243 -0.903363 0.389872
1.956790 -0.922443 1.194925
1.880426 -0.938688 1.437617
2.113091 -0.907013 0.988381
2.006031 -0.899211 0.483233
1.808686 -0.891661 0.121919
1.912136 -0.900344 0.433039
1.835700 -0.914921 0.705750
1.924899 -0.918914 1.125902
1.819266 -0.905493 0.384804
1.785645 -0.887897 0.127919
2.070277 -0.892085 0.333426
1.894545 -0.903913 0.743987
2.075280 -0.902019 0.873360
1.921722 -0.867666 0.016395
1.941073 -0.938192 1.613752
1.942187 -0.938564 1.557746
1.892510 -0.910382 0.784916
1.859593 -0.891813 0.169021
2.009924 -0.937496 1.686897
1.805078 -0.922928 1.047630
1.948454 -0.896127 0.256149
1.972748 -0.918384 1.200008
1.779728 -0.910991 0.674691
1.978635 -0.926292 1.285938
1.804889 -0.873817 -0.047894
1.913489 -0.888887 0.211162
1.809454 -0.940075 1.425475
1.945366 -0.911860 0.863010
1.824558 -0.892272 0.186955
1.968647 -0.876081 0.084402
1.781160 -0.924706 1.011566
1.977366 -0.882864 0.251354
2.004801 -0.899498 0.598244
1.997947 -0.895576 0.510269
1.908450 -0.902258 0.784043
1.832128 -0.904102 0.447856
1.911970 -0.901292 0.518044
1.846899 -0.924686 1.143702
1.997181 -0.909412 0.947144
1.745301 -0.908952 0.376634
1.943660 -0.876189 0.077355
1.779547 -0.940786 1.379411
1.896091 -0.902791 0.461996
1.808190 -0.903914 0.414814
1.713733 -0.898334 0.118678
1.809977 -0.916161 1.071724
1.685068 -0.882002 -0.111210
1.951300 -0.892820 0.320203
1.727322 -0.911041 0.372580
1.959370 -0.904419 0.832123
1.726754 -0.915394 0.675550
1.795626 -0.908322 0.714762
1.703710 -0.897497 0.126670
1.832303 -0.936594 1.487568
1.829783 -0.877361 0.017126
1.838221 -0.942236 1.549521
1.785577 -0.911805 0.751708
1.762622 -0.895477 0.163809
1.897070 -0.937459 1.608691
1.871875 -0.923583 1.150769
1.835471 -0.896852 0.245939
1.948702 -0.921928 1.232939
1.711184 -0.928199 1.009404
1.870748 -0.928498 1.232719
1.800796 -0.882710 0.029017
1.696831 -0.920372 0.653442
1.839437 -0.913253 0.827803
1.816552 -0.896518 0.202906
1.708568 -0.941173 1.367281
1.867691 -0.882820 0.083148
1.895857 -0.902048 0.575020
1.737623 -0.900863 0.181707
1.875429 -0.889497 0.240099
1.894025 -0.901089 0.487021
1.684242 -0.925967 0.970378
1.820566 -0.911597 0.755783
1.693040 -0.877921 -0.114141
1.831087 -0.914748 0.504753
1.733170 -0.906658 0.431652
1.891271 -0.912782 0.909915
1.845702 -0.881872 0.073118
1.743993 -0.925923 1.096503
1.688658 -0.942878 1.327225
1.650344 -0.912513 0.363428
1.795146 -0.906328 0.442776
1.714245 -0.908445 0.399597
1.670870 -0.882202 -0.013221
1.848340 -0.896461 0.308979
1.727101 -0.924374 1.035486
1.886558 -0.927378 1.322774
1.848437 -0.903794 0.791929
1.624763 -0.902974 0.116471
1.694668 -0.906725 0.683598
1.628333 -0.909609 0.357420
1.737434 -0.939638 1.428363
1.740341 -0.943279 1.488332
1.748864 -0.889987 0.018845
1.614742 -0.902126 0.123463
1.574131 -0.878277 -0.161368
1.687637 -0.913208 0.722518
1.803223 -0.942449 1.545466
1.664629 -0.896150 0.158628
1.769969 -0.923769 1.099582
1.843811 -0.923091 1.177735
1.742511 -0.901465 0.238723
1.768842 -0.928682 1.181532
1.712830 -0.888365 0.028799
1.617262 -0.929461 0.970223
1.596845 -0.915802 0.625314
1.742508 -0.915626 0.796604
1.718565 -0.897156 0.194725
1.632970 -0.889188 -0.040365
1.800922 -0.906529 0.554801
1.797082 -0.904585 0.466809
1.771721 -0.887511 0.080926
1.774455 -0.891124 0.228900
1.560015 -0.892600 -0.051541
1.612662 -0.940270 1.312119
1.605342 -0.932207 0.939170
1.727643 -0.914952 0.725580
1.643645 -0.903506 0.176513
1.763898 -0.887587 -0.008094
1.727110 -0.913285 0.483583
1.792337 -0.913113 0.873733
1.754874 -0.885708 -0.003090
1.642210 -0.909166 0.416463
1.755749 -0.888508 0.069886
1.757142 -0.948459 1.606323
1.654080 -0.928143 1.056318
1.594735 -0.939971 1.273088
1.701192 -0.908825 0.424582
1.798677 -0.932526 1.277559
1.573418 -0.920975 0.353201
1.768426 -0.906966 0.300723
1.623277 -0.909954 0.384420
1.646210 -0.930572 0.999274
1.756531 -0.909119 0.759706
1.799079 -0.941209 1.611486
1.591914 -0.889814 -0.011442
1.621776 -0.917044 0.663357
1.646539 -0.939675 1.371199
1.657874 -0.892676 0.019655
1.557420 -0.920039 0.348183
1.543807 -0.909557 0.114258
1.526141 -0.897325 -0.099654
1.653468 -0.947330 1.435132
1.546868 -0.920195 0.627179
1.528750 -0.903745 0.121295
1.718361 -0.947463 1.490259
1.613737 -0.922534 0.702286
1.644020 -0.891929 -0.057366
1.635997 -0.887955 -0.060337
1.745905 -0.923247 1.126557
1.683073 -0.927956 1.058381
1.583679 -0.902698 0.153415
1.679935 -0.930861 1.138349
1.657563 -0.908031 0.232502
1.633885 -0.896954 0.028567
1.665614 -0.924940 0.773366
1.518901 -0.919159 0.605140
1.714983 -0.910966 0.536599
1.536350 -0.933694 0.937034
1.636627 -0.904689 0.187498
1.704132 -0.907053 0.446617
1.683750 -0.892154 0.079720
1.690515 -0.897638 0.218681
1.549989 -0.893852 -0.036560
1.643720 -0.919274 0.698384
1.704413 -0.916430 0.843540
1.532435 -0.938436 0.910974
1.481026 -0.896236 -0.047718
1.671908 -0.890283 -0.007286
1.639152 -0.915760 0.467400
1.536785 -0.947386 1.271907
1.662876 -0.887404 -0.002271
1.560678 -0.908080 0.172317
1.669788 -0.894115 0.066673
1.561261 -0.913624 0.403272
1.668258 -0.949459 1.547152
1.572167 -0.931349 1.020137
1.704761 -0.931675 1.228399
1.515828 -0.942077 1.229925
1.616242 -0.912279 0.408394
1.676449 -0.908538 0.290543
1.724247 -0.951182 1.559243
1.674625 -0.915415 0.731492
1.562283 -0.931794 0.963112
1.520965 -0.898368 -0.009658
1.564636 -0.940735 1.322041
1.532802 -0.914404 0.636228
1.577906 -0.898284 0.020454
1.564555 -0.945376 1.379994
1.474864 -0.918062 0.113046
1.445124 -0.898009 -0.092802
1.632474 -0.948464 1.433093
1.467919 -0.922549 0.606015
1.466838 -0.916187 0.119053
1.563034 -0.895567 -0.054547
1.663020 -0.928383 1.083352
1.602164 -0.931133 1.020202
1.528782 -0.922887 0.677132
1.557023 -0.893590 -0.056536
1.599026 -0.934038 1.100170
1.509727 -0.909207 0.149215
1.569566 -0.907607 0.225351
1.627009 -0.910408 0.517449
1.551897 -0.899566 0.028395
1.583675 -0.927259 0.747195
1.612808 -0.900673 0.078503
1.617166 -0.907488 0.427458
1.446961 -0.923495 0.586968
1.614571 -0.904115 0.210477
1.548622 -0.903267 0.180359
1.469458 -0.942924 0.912817
1.629502 -0.922708 0.818339
1.469980 -0.894483 -0.033707
1.557763 -0.918601 0.670239
1.456491 -0.938655 0.879838
1.554172 -0.915214 0.451256
1.587918 -0.892920 -0.006463
1.417073 -0.904760 -0.043920
1.579893 -0.891035 -0.001456
1.585799 -0.895708 0.063508
1.479685 -0.908629 0.167170
1.460101 -0.893852 -0.097721
1.454860 -0.946492 1.226772
1.596397 -0.957500 1.502937
1.450087 -0.889838 -0.105695
1.630872 -0.937810 1.191200
1.490327 -0.921042 0.393068
1.451931 -0.948183 1.196747
1.502270 -0.938546 0.990936
1.548327 -0.921653 0.396173
1.589672 -0.914712 0.701348
1.633362 -0.950120 1.493090
1.483341 -0.930979 0.926981
1.488727 -0.941786 1.275895
1.442958 -0.898973 -0.007800
1.463879 -0.920707 0.617039
1.415481 -0.925920 0.331872
1.507945 -0.904818 0.021262
1.486646 -0.946440 1.333845
1.546559 -0.945454 1.374972
1.409501 -0.927932 0.328840
1.577088 -0.926519 1.038219
1.375134 -0.901590 -0.087961
1.384808 -0.910700 0.109970
1.521228 -0.930299 0.981067
1.484023 -0.896202 -0.050692
1.378780 -0.908822 0.116980
1.364201 -0.897109 -0.138935
1.398989 -0.928885 0.589827
1.483041 -0.898188 -0.052715
1.455845 -0.927208 0.656958
1.525108 -0.937219 1.067005
1.431724 -0.908745 0.145084
1.363255 -0.899929 -0.155967
1.555076 -0.916788 0.503253
1.506725 -0.928564 0.723046
1.480930 -0.905098 0.028212
1.544227 -0.912865 0.412271
1.531814 -0.902266 0.077344
1.414445 -0.959599 1.481576
1.534598 -0.906623 0.202309
1.478667 -0.908723 0.174178
1.551555 -0.923998 0.792187
1.385037 -0.930791 0.571781
1.519958 -0.899429 -0.006652
1.485831 -0.922892 0.648066
1.389500 -0.941162 0.880696
1.407029 -0.902990 -0.030907
1.485234 -0.921606 0.440066
1.383543 -0.938876 0.850708
1.512940 -0.898547 -0.000654
1.511831 -0.900228 0.060330
1.516481 -0.955490 1.448816
1.552945 -0.937942 1.151060
1.415731 -0.915075 0.163990
1.347077 -0.907330 -0.040068
1.393125 -0.899410 -0.092896
1.391973 -0.954614 1.195574
1.387125 -0.897367 -0.100885
1.416354 -0.922461 0.380924
1.376985 -0.945272 1.154646
1.454278 -0.911152 0.378121
1.515738 -0.917985 0.676182
1.429340 -0.940743 0.959785
1.556476 -0.952089 1.438931
1.419430 -0.937166 0.900802
1.423823 -0.945856 1.238737
1.405422 -0.923190 0.348896
1.400951 -0.926988 0.599862
1.377995 -0.905483 -0.005982
1.467640 -0.943461 1.322853
1.434960 -0.908387 0.023097
1.412726 -0.946499 1.289713
1.337476 -0.923380 0.320765
1.512208 -0.935668 1.008005
1.453312 -0.934460 0.949903
1.331474 -0.922392 0.317765
1.420067 -0.903705 -0.048883
1.308135 -0.904149 -0.083103
1.321843 -0.916162 0.108803
1.457192 -0.941378 1.035840
1.417069 -0.903716 -0.049888
1.394923 -0.934485 0.640774
1.316817 -0.914265 0.114815
1.431645 -0.917527 0.215004
1.302221 -0.902653 -0.132100
1.482109 -0.918164 0.488110
1.336058 -0.935189 0.574650
1.361736 -0.910224 0.140948
1.293229 -0.899544 -0.148083
1.435778 -0.930848 0.700897
1.481305 -0.921202 0.400071
1.414964 -0.910592 0.028039
1.463624 -0.909064 0.194159
1.461842 -0.906779 0.076173
1.484630 -0.929251 0.770012
1.352544 -0.963624 1.442424
1.417737 -0.918136 0.169971
1.340479 -0.957833 1.453467
1.317068 -0.931098 0.553661
1.417889 -0.926166 0.626912
1.449985 -0.903953 -0.006822
1.482017 -0.939068 1.114923
1.419289 -0.926965 0.427894
1.432913 -0.896156 0.000233
1.339035 -0.905534 -0.028051
1.321604 -0.942082 0.827567
1.443567 -0.955508 1.401687
1.446875 -0.906692 0.058147
1.319555 -0.942383 0.853561
1.341721 -0.913584 0.159878
1.328134 -0.902955 -0.088046
1.401372 -0.922449 0.368908
1.320120 -0.898926 -0.096016
1.282087 -0.910864 -0.036217
1.325098 -0.955402 1.131447
1.349384 -0.924851 0.370783
1.454832 -0.926217 0.655986
1.319029 -0.952722 1.156467
1.477563 -0.950062 1.383813
1.357388 -0.939933 0.928668
1.353492 -0.939357 0.873664
1.356901 -0.946919 1.199608
1.335432 -0.922591 0.337781
1.327966 -0.924299 0.578764
1.404747 -0.948494 1.283688
1.324062 -0.915902 -0.005187
1.367969 -0.910900 0.023954
1.351828 -0.952584 1.256542
1.444291 -0.938795 0.973852
1.272495 -0.924778 0.312638
1.390399 -0.939617 0.921737
1.268500 -0.924775 0.309631
1.396284 -0.947531 1.008668
1.353073 -0.906241 -0.046026
1.353084 -0.907219 -0.048036
1.416153 -0.921512 0.474959
1.261872 -0.920591 0.106653
1.266250 -0.921502 -0.080360
1.362658 -0.918988 0.209869
1.326963 -0.935781 0.621642
1.266893 -0.925643 0.114608
1.312817 -0.921571 0.138742
1.427713 -0.936475 0.751835
1.373845 -0.936110 0.682732
1.270092 -0.936504 0.558523
1.411338 -0.922558 0.384935
1.393635 -0.909510 0.187032
1.394855 -0.909269 0.075030
1.344962 -0.911106 0.026913
1.288620 -0.963631 1.400313
1.348731 -0.916586 0.163868
1.346906 -0.923451 0.604818
1.414079 -0.939195 1.080802
1.267156 -0.941362 0.543465
1.381994 -0.906474 -0.005966
1.287601 -0.967913 1.425267
1.381665 -0.959545 1.363535
1.355327 -0.930333 0.417747
1.371952 -0.902625 0.001058
1.296137 -0.920882 -0.026289
1.376876 -0.907194 0.056021
1.264675 -0.947285 0.807413
1.259620 -0.946597 0.832413
1.375518 -0.913438 0.258963
1.293814 -0.926935 0.158653
1.342431 -0.928780 0.358738
1.260146 -0.953497 1.096356
1.393908 -0.932461 0.636813
1.408660 -0.951029 1.334681
1.235166 -0.923253 -0.033429
1.294459 -0.934186 0.363589
1.260116 -0.957838 1.127311
1.298464 -0.945117 0.905510
1.292551 -0.941534 0.848535
1.302004 -0.954005 1.170436
1.281500 -0.930919 0.330600
1.343835 -0.951536 1.246549
1.279058 -0.934533 0.566571
1.392426 -0.954578 1.464622
1.305980 -0.913366 0.023821
1.254026 -0.912449 -0.003269
1.378363 -0.940931 0.941713
1.291909 -0.955663 1.223404
1.326458 -0.940771 0.892614
1.329330 -0.946696 0.978560
1.229614 -0.941070 0.309391
1.289073 -0.907744 -0.044151
1.227612 -0.940052 0.306398
1.361225 -0.929824 0.465775
1.288075 -0.907741 -0.045153
1.305699 -0.924371 0.205714
1.360744 -0.935730 0.729727
1.202871 -0.923101 0.112527
1.261994 -0.936067 0.603527
1.210934 -0.929976 0.106466
1.195191 -0.916102 -0.074422
1.247812 -0.921026 0.135637
1.338334 -0.918937 0.369847
1.316914 -0.942369 0.667567
1.332672 -0.913901 0.180880
1.327856 -0.909749 0.072910
1.278944 -0.909601 0.026816
1.185242 -0.910670 -0.120383
1.205105 -0.934802 0.541430
1.233701 -0.966672 1.367186
1.298806 -0.926929 0.160672
1.185287 -0.912494 -0.136404
1.355156 -0.943334 1.053655
1.299007 -0.934666 0.591615
1.318741 -0.960589 1.325413
1.314985 -0.908054 0.000902
1.211206 -0.945637 0.530324
1.313886 -0.908634 0.052897
1.289339 -0.929693 0.405641
1.226679 -0.968933 1.386151
1.210737 -0.951477 0.788276
1.222069 -0.913470 -0.023335
1.327601 -0.924766 0.255759
1.344745 -0.952027 1.291558
1.317903 -0.925739 0.610753
1.232823 -0.928360 0.155534
1.199672 -0.948801 0.810287
1.204210 -0.955603 1.068237
1.272424 -0.925159 0.345657
1.216194 -0.914878 -0.081363
1.210178 -0.910845 -0.088331
1.168103 -0.916801 -0.029472
1.227448 -0.930565 0.352513
1.239521 -0.947290 0.881385
1.237618 -0.945700 0.826396
1.239048 -0.951063 1.133359
1.196160 -0.955948 1.094221
1.335513 -0.957600 1.428490
1.291940 -0.958589 1.216383
1.218501 -0.929281 0.320510
1.213054 -0.929815 0.547508
1.256041 -0.922755 0.024636
1.313420 -0.941060 0.909599
1.208093 -0.922809 -0.002457
1.266513 -0.941919 0.865498
1.232981 -0.957746 1.191281
1.269383 -0.947854 0.952444
1.295226 -0.927161 0.451690
1.302797 -0.938963 0.711592
1.161581 -0.934447 0.297347
1.159570 -0.933484 0.299354
1.257781 -0.935700 0.202511
1.256945 -0.942617 0.649461
1.278368 -0.921254 0.357719
1.278716 -0.919241 0.174731
1.156933 -0.932449 0.112350
1.203026 -0.937342 0.588413
1.271883 -0.914160 0.071767
1.191836 -0.924415 0.132506
1.298218 -0.945458 1.026533
1.147910 -0.927439 0.105388
1.143216 -0.921540 -0.070567
1.243072 -0.927876 0.026559
1.180780 -0.969710 1.335062
1.232785 -0.923358 0.154598
1.150146 -0.938081 0.529302
1.235025 -0.932934 0.572524
1.264039 -0.914362 -0.006253
1.261817 -0.962635 1.291293
1.277008 -0.925904 0.051649
1.230355 -0.930024 0.395536
1.147182 -0.938939 0.514287
1.165734 -0.966952 1.347067
1.273643 -0.930116 0.250610
1.146738 -0.945667 0.762229
1.176135 -0.923842 -0.021523
1.289852 -0.958046 1.256397
1.268994 -0.934940 0.595571
1.150263 -0.956716 1.042133
1.220481 -0.931450 0.336501
1.145724 -0.952004 0.792161
1.177852 -0.932752 0.153395
1.176492 -0.935882 0.346370
1.124169 -0.927158 -0.027657
1.180660 -0.945860 0.802297
1.190134 -0.957161 1.109210
1.287623 -0.965633 1.399321
1.176544 -0.944472 0.855308
1.139211 -0.956051 1.065123
1.229995 -0.956617 1.177297
1.163527 -0.931605 0.312392
1.174166 -0.944031 0.540290
1.254477 -0.942189 0.881485
1.195021 -0.921225 0.025549
1.215593 -0.948067 0.844345
1.149071 -0.921276 -0.000540
1.177041 -0.958829 1.161173
1.251316 -0.938415 0.444495
1.213440 -0.950005 0.928325
1.242824 -0.938189 0.691497
1.182124 -0.917597 -0.040437
1.180124 -0.917612 -0.040441
1.113625 -0.939742 0.291210
1.192751 -0.931132 0.197450
1.243271 -0.946579 1.000426
1.244506 -0.939456 0.352466
1.194955 -0.939870 0.630385
1.230975 -0.927471 0.071555
1.112632 -0.941794 0.295187
1.231795 -0.929540 0.169540
1.157099 -0.945576 0.578248
1.127838 -0.969738 1.301972
1.139865 -0.928785 0.130372
1.097919 -0.930872 0.110268
1.170998 -0.918405 0.025539
1.092226 -0.924971 -0.066689
1.185852 -0.932680 0.151419
1.099959 -0.934792 0.104229
1.203874 -0.961667 1.255204
1.185092 -0.939154 0.558372
1.200916 -0.913441 0.048653
1.198998 -0.911939 0.001664
1.188448 -0.942285 0.390334
1.106266 -0.949159 0.506110
1.102217 -0.946343 0.520134
1.152614 -0.962501 1.388106
1.226713 -0.939426 0.246431
1.100799 -0.950845 0.747097
1.113809 -0.970006 1.316947
1.206001 -0.931178 0.574503
1.231928 -0.959056 1.218286
1.120125 -0.924298 -0.018621
1.103330 -0.960823 1.020010
1.172534 -0.937734 0.329353
1.225659 -0.959606 1.355278
1.122852 -0.933145 0.151298
1.132165 -0.953217 1.075153
1.088753 -0.951198 0.771074
1.129714 -0.949031 0.783177
1.119498 -0.935211 0.337282
1.173044 -0.954654 1.142220
1.131627 -0.952642 0.840145
1.068144 -0.925615 -0.024733
1.118586 -0.938879 0.306239
1.086267 -0.958180 1.041011
1.205557 -0.948322 0.860336
1.113152 -0.938289 0.522249
1.165656 -0.952219 0.824215
1.143037 -0.924629 0.026426
1.191306 -0.934731 0.432432
1.163498 -0.953146 0.907207
1.191863 -0.940404 0.676387
1.122094 -0.958906 1.131079
1.095073 -0.922696 0.000355
1.191335 -0.949701 0.976304
1.172445 -0.927818 0.336469
1.142782 -0.935477 0.194319
1.156054 -0.952075 0.622189
1.060633 -0.940076 0.285118
1.167759 -0.923955 0.163492
1.163915 -0.919963 0.070523
1.059640 -0.942127 0.289095
1.100111 -0.943826 0.562171
1.078902 -0.971791 1.273867
1.129060 -0.927725 0.025369
1.090887 -0.932134 0.128255
1.148926 -0.960710 1.222120
1.124822 -0.928084 0.146366
1.040208 -0.924410 -0.062768
1.156061 -0.919177 -0.006486
1.049946 -0.935225 0.109142
1.140162 -0.946359 0.546219
1.157987 -0.923756 0.047471
1.130434 -0.938610 0.380276
1.045949 -0.934189 0.103147
1.106704 -0.967511 1.357975
1.154630 -0.926877 0.238443
1.046211 -0.942608 0.506081
1.048252 -0.944440 0.492063
1.067916 -0.966027 0.740880
1.175987 -0.958063 1.181201
1.153037 -0.932388 0.557400
1.064872 -0.972060 1.288842
1.178740 -0.963633 1.326154
1.052359 -0.958927 0.994945
1.067110 -0.923721 -0.016703
1.118542 -0.937030 0.319270
1.087240 -0.958309 1.053023
1.070854 -0.933505 0.148208
1.080752 -0.950198 0.765082
1.121106 -0.955698 1.111121
1.073540 -0.940503 0.332149
1.075645 -0.949806 0.817081
1.048848 -0.962388 0.760888
1.021157 -0.929005 -0.021846
1.145581 -0.944439 0.830275
1.070218 -0.945502 0.512100
1.065595 -0.939201 0.299148
1.153400 -0.946962 0.427238
1.107667 -0.947354 0.797169
1.036321 -0.960298 1.017905
1.139892 -0.940606 0.659296
1.090032 -0.925041 0.027333
1.114554 -0.956291 0.887090
1.073152 -0.960995 1.105974
1.045067 -0.923085 0.001268
1.143386 -0.951826 0.955200
1.133533 -0.939046 0.330283
1.096811 -0.939802 0.192197
1.130851 -0.936192 0.159299
1.096041 -0.946325 0.604150
1.120971 -0.928278 0.069362
1.012646 -0.941383 0.280025
1.030946 -0.970828 1.244797
1.058181 -0.952054 0.554013
1.104004 -0.965779 1.197990
1.074041 -0.926140 0.025295
1.077846 -0.931406 0.143252
1.006632 -0.940461 0.283026
1.038881 -0.931494 0.125176
1.082149 -0.940595 0.528183
1.004956 -0.937566 0.109044
1.110016 -0.928098 0.045344
0.996234 -0.929778 -0.059897
1.097025 -0.917722 0.002431
1.058766 -0.968524 1.326883
1.082473 -0.942894 0.373150
1.113691 -0.935154 0.235286
0.998960 -0.936546 0.103044
1.005294 -0.948665 0.482947
1.131812 -0.966662 1.297042
1.007878 -0.955200 0.715896
1.122169 -0.949545 0.550165
1.128073 -0.963100 1.152066
1.004277 -0.950848 0.498924
1.012428 -0.965049 0.978813
1.074585 -0.942296 0.313140
1.017936 -0.975132 1.263731
1.022130 -0.928086 -0.014823
1.042298 -0.961401 1.030915
1.046858 -0.963354 0.755886
1.074166 -0.957750 1.084020
1.024874 -0.936831 0.146097
1.023548 -0.940803 0.325063
1.031705 -0.954970 0.801953
1.095625 -0.945569 0.808179
1.090341 -0.936280 0.413247
0.992838 -0.956575 0.739858
1.095939 -0.944803 0.647178
1.063723 -0.951496 0.780052
1.018603 -0.939479 0.292068
0.975169 -0.932378 -0.019956
1.020230 -0.944735 0.499026
1.061570 -0.953432 0.864033
1.042034 -0.926405 0.027240
1.098434 -0.953941 0.935102
0.993391 -0.966432 1.000769
1.028215 -0.965098 1.084856
0.999082 -0.926447 0.002158
1.084552 -0.940317 0.321189
1.043792 -0.937158 0.188138
1.075826 -0.932551 0.154248
1.059122 -0.956526 0.596980
1.067946 -0.925667 0.068303
0.990014 -0.975911 1.224676
0.970677 -0.945657 0.275912
1.061074 -0.970866 1.176864
1.029060 -0.929471 0.024186
1.006180 -0.949291 0.539957
1.034883 -0.936700 0.140126
1.046236 -0.951790 0.521005
0.992887 -0.932821 0.123087
1.018840 -0.973566 1.303764
1.058000 -0.926469 0.043277
0.957953 -0.937912 0.107965
0.959643 -0.941762 0.277936
1.069722 -0.939443 0.231169
1.087873 -0.968690 1.269947
1.038508 -0.947160 0.367033
0.949221 -0.930181 -0.055976
0.953971 -0.938877 0.101948
1.059125 -0.938785 0.529176
1.076119 -0.961111 1.118000
0.973967 -0.966378 0.708722
0.960322 -0.950894 0.472851
0.963447 -0.962150 0.954764
1.021571 -0.938585 0.303093
0.959311 -0.954088 0.489817
0.971985 -0.976198 1.238645
0.973108 -0.926480 -0.012885
0.994330 -0.959462 1.003857
0.989828 -0.953505 0.730897
1.030229 -0.960813 1.059915
0.974852 -0.934188 0.144045
1.054418 -0.946508 0.409079
1.063036 -0.956974 0.639995
0.992772 -0.962141 0.790814
1.067767 -0.963692 0.799940
0.977569 -0.943085 0.318965
1.015756 -0.951635 0.759972
0.974625 -0.941746 0.285972
0.975247 -0.944953 0.487951
1.022634 -0.959581 0.850903
1.051469 -0.954060 0.914023
0.930159 -0.932754 -0.017032
0.953918 -0.965758 0.729698
0.999059 -0.930732 0.027125
0.941392 -0.960533 0.974748
0.977234 -0.961169 1.056815
0.954076 -0.926800 0.003082
1.035567 -0.940576 0.311106
1.029839 -0.933845 0.149159
1.007111 -0.951740 0.580946
1.001830 -0.942444 0.185014
1.025981 -0.930976 0.067178
0.946057 -0.975962 1.199604
1.015119 -0.970921 1.150788
0.929709 -0.949925 0.271801
0.986870 -0.935030 0.137066
0.981049 -0.928836 0.024116
0.998251 -0.950996 0.506936
0.962209 -0.951512 0.529863
1.045938 -0.971725 1.244845
0.948894 -0.934133 0.121003
0.976904 -0.976602 1.278663
1.019706 -0.936765 0.226116
1.013015 -0.928789 0.041179
0.990497 -0.944434 0.358984
0.914958 -0.939229 0.106882
0.916668 -0.945044 0.273833
1.025216 -0.949954 0.521001
1.030174 -0.962145 1.089913
0.910250 -0.935502 -0.054095
0.923948 -0.959544 0.689714
0.921360 -0.955112 0.465744
0.918462 -0.959244 0.932723
0.914003 -0.944182 0.101828
0.981614 -0.943823 0.296973
0.950365 -0.959558 0.982784
0.987283 -0.962879 1.036822
0.927033 -0.977267 1.214561
0.928100 -0.926845 -0.010960
0.914331 -0.955329 0.480732
0.951890 -0.959659 0.718771
1.004989 -0.946188 0.620015
0.934886 -0.939481 0.142925
1.003403 -0.942782 0.399036
1.008739 -0.952802 0.769959
1.006497 -0.953164 0.892959
0.943779 -0.959310 0.772765
0.980846 -0.961776 0.748807
0.933582 -0.944363 0.313881
0.933269 -0.946160 0.477871
0.977671 -0.960719 0.832818
0.933652 -0.945002 0.280872
0.893195 -0.939060 -0.015157
0.953047 -0.930082 0.027058
0.899887 -0.956932 0.708705
0.990571 -0.939828 0.303041
0.936287 -0.964265 1.037715
0.899441 -0.963660 0.957647
0.984850 -0.935142 0.145072
0.915106 -0.932110 0.003964
0.983999 -0.934295 0.067075
0.967160 -0.956942 0.571826
0.956829 -0.942763 0.182938
0.972165 -0.971988 1.127707
0.905101 -0.977025 1.177527
1.001985 -0.971754 1.217772
0.952250 -0.948200 0.493891
0.944088 -0.935119 0.023990
0.887722 -0.951189 0.266721
0.933945 -0.975613 1.250603
0.943886 -0.937324 0.133973
0.980744 -0.942028 0.222997
0.970020 -0.930105 0.040096
0.916210 -0.949737 0.518808
0.910928 -0.939412 0.119886
0.947519 -0.946693 0.352891
0.978224 -0.948154 0.506944
0.874975 -0.942534 0.106784
0.988246 -0.966183 1.064801
0.889011 -0.966709 0.680582
0.880371 -0.955334 0.457677
0.877706 -0.950308 0.270715
0.884536 -0.967377 0.921582
0.869260 -0.938860 -0.050195
0.938636 -0.946082 0.290880
0.868993 -0.943514 0.100764
0.909406 -0.960645 0.962707
0.946340 -0.965954 1.015723
0.911932 -0.962816 0.705673
0.883066 -0.976330 1.190500
0.892143 -0.934144 -0.009095
0.977095 -0.960356 0.615819
0.963427 -0.945007 0.391947
0.870336 -0.954562 0.471670
0.962522 -0.952284 0.873896
0.974829 -0.962937 0.758796
0.893898 -0.941783 0.141836
0.934855 -0.958912 0.729763
0.904828 -0.963460 0.759658
0.943749 -0.969875 0.823666
0.893296 -0.948363 0.468784
0.891594 -0.945627 0.308801
0.892671 -0.947258 0.275783
0.917092 -0.937369 0.027923
0.854209 -0.942381 -0.013254
0.867970 -0.968129 0.704536
0.945582 -0.940081 0.294966
0.896331 -0.966366 1.019629
0.923164 -0.955141 0.559775
0.941861 -0.936425 0.140990
0.915838 -0.944042 0.179859
0.943018 -0.937597 0.065975
0.877129 -0.936412 0.004858
0.871556 -0.979847 0.955431
0.866136 -0.977084 1.156464
0.957006 -0.967770 1.188741
0.930209 -0.973058 1.105627
0.912286 -0.951392 0.483793
0.903092 -0.936432 0.023911
0.889973 -0.972621 1.221564
0.903902 -0.939596 0.130885
0.848737 -0.953452 0.263636
0.931049 -0.934381 0.037988
0.934733 -0.940332 0.218941
0.908540 -0.948923 0.346806
0.875230 -0.950948 0.509730
0.870942 -0.941696 0.117799
0.935251 -0.949335 0.493862
0.889913 -0.980255 1.279486
0.941275 -0.963214 1.035756
0.838000 -0.946817 0.106681
0.849029 -0.966878 0.668517
0.844409 -0.959530 0.450576
0.856629 -0.979532 0.916409
0.837716 -0.951569 0.266639
0.883514 -0.974773 0.956516
0.899665 -0.949313 0.284784
0.833295 -0.945160 -0.048318
0.902361 -0.963008 0.990683
0.930075 -0.954544 0.600805
0.832018 -0.947798 0.100661
0.870949 -0.961960 0.690617
0.941658 -0.971431 0.872660
0.924456 -0.948236 0.385851
0.858188 -0.941417 -0.008225
0.847131 -0.982444 1.176378
0.919790 -0.951041 0.730833
0.829353 -0.955785 0.463593
0.853905 -0.943066 0.139759
0.897912 -0.964048 0.716649
0.894728 -0.962000 0.801671
0.858349 -0.954552 0.461663
0.855626 -0.949857 0.304699
0.861845 -0.962618 0.744599
0.857717 -0.953492 0.272662
0.875081 -0.936690 0.027864
0.909633 -0.946289 0.288842
0.814199 -0.942721 -0.010319
0.903886 -0.939671 0.136895
0.856366 -0.967477 1.002553
0.885197 -0.958340 0.551681
0.919056 -0.969821 1.167658
0.900009 -0.936914 0.064914
0.888228 -0.970107 1.081591
0.824984 -0.967299 0.690477
0.875852 -0.946324 0.177772
0.823142 -0.972129 1.131448
0.842167 -0.942692 0.005737
0.821534 -0.970935 0.929447
0.854027 -0.975680 1.202474
0.875328 -0.955573 0.474690
0.865111 -0.939712 0.022816
0.896758 -0.943578 0.214847
0.892062 -0.936668 0.036902
0.885904 -0.979266 1.277501
0.811755 -0.955691 0.259555
0.866940 -0.944846 0.127771
0.873587 -0.955145 0.342684
0.837255 -0.953148 0.501647
0.835976 -0.946953 0.116689
0.893262 -0.948520 0.481804
0.852964 -0.983332 1.261395
0.898312 -0.962249 1.009696
0.811609 -0.971616 0.893422
0.811053 -0.968044 0.657445
0.805417 -0.959749 0.443513
0.800012 -0.949098 0.105598
0.860679 -0.950543 0.278709
0.837506 -0.967843 0.931516
0.893112 -0.957713 0.590712
0.890610 -0.958516 0.845715
0.874468 -0.976118 0.981500
0.801752 -0.956822 0.264528
0.882445 -0.945466 0.377813
0.794285 -0.945492 -0.045381
0.830963 -0.961107 0.676563
0.794035 -0.951089 0.100567
0.819187 -0.942738 -0.006300
0.803139 -0.977486 1.150361
0.889895 -0.964179 0.722646
0.860779 -0.967145 0.791563
0.858941 -0.965188 0.702576
0.819952 -0.950327 0.139629
0.791382 -0.959008 0.457500
0.820374 -0.956752 0.453580
0.821864 -0.962776 0.731534
0.821679 -0.957084 0.301570
0.820736 -0.955719 0.267581
0.842126 -0.943955 0.028736
0.886118 -0.974891 1.151551
0.871656 -0.948501 0.281759
0.842186 -0.954533 0.539653
0.866917 -0.943921 0.133791
0.826449 -0.977614 0.994399
0.780229 -0.947994 -0.009427
0.865043 -0.942171 0.063803
0.852283 -0.974200 1.065490
0.794218 -0.981258 1.123306
0.838867 -0.948585 0.175690
0.807190 -0.946973 0.006637
0.783989 -0.965465 0.677432
0.818074 -0.977728 1.182395
0.862794 -0.948815 0.212738
0.835335 -0.954766 0.464636
0.789608 -0.980098 0.922300
0.829947 -0.946107 0.125700
0.830143 -0.944981 0.022706
0.858112 -0.943908 0.034772
0.845950 -0.979266 1.250437
0.778798 -0.961922 0.257438
0.832587 -0.954391 0.336628
0.854286 -0.949695 0.470730
0.862367 -0.965299 0.989607
0.800286 -0.956352 0.494555
0.798995 -0.950225 0.115597
0.813995 -0.982369 1.238343
0.781671 -0.978754 0.885300
0.772051 -0.965195 0.644415
0.807579 -0.975958 0.921383
0.771453 -0.963941 0.437416
0.865715 -0.972660 0.841525
0.856132 -0.958894 0.581641
0.762007 -0.949389 0.105536
0.826726 -0.956759 0.274590
0.828458 -0.968155 0.953511
0.850500 -0.952666 0.373687
0.798014 -0.966247 0.666457
0.762754 -0.957075 0.260465
0.848910 -0.962290 0.704601
0.822801 -0.967277 0.777501
0.785218 -0.948011 -0.005408
0.760065 -0.956362 0.101459
0.822976 -0.967316 0.689496
0.767189 -0.981600 1.136262
0.780944 -0.949603 0.137577
0.788422 -0.962941 0.448464
0.850161 -0.975929 1.130483
0.785895 -0.964927 0.720455
0.756415 -0.963219 0.452401
0.781667 -0.955344 0.297526
0.781734 -0.954962 0.262528
0.806144 -0.947231 0.028645
0.832663 -0.948732 0.275695
0.830935 -0.946153 0.129711
0.808224 -0.958714 0.532556
0.815314 -0.974268 1.046431
0.828046 -0.943454 0.063732
0.755225 -0.977307 1.101287
0.783449 -0.972694 0.972383
0.805910 -0.954816 0.173573
0.784116 -0.979794 1.165320
0.824789 -0.948072 0.209686
0.747016 -0.967646 0.668352
0.803393 -0.961944 0.458510
0.812005 -0.982299 1.230351
0.821117 -0.945181 0.033701
0.745585 -0.972198 0.901315
0.794161 -0.948258 0.022616
0.798612 -0.957606 0.332541
0.795990 -0.952346 0.123581
0.739779 -0.959175 0.253407
0.814290 -0.947866 0.458686
0.767029 -0.955461 0.114492
0.823402 -0.965360 0.968544
0.777030 -0.982414 1.217284
0.766320 -0.960555 0.489458
0.739645 -0.970850 0.865318
0.739076 -0.967357 0.636341
0.819674 -0.961753 0.818568
0.818141 -0.958060 0.570591
0.764559 -0.968028 0.898400
0.738480 -0.967138 0.432331
0.785692 -0.950994 0.267588
0.798530 -0.976270 0.943378
0.817539 -0.957874 0.369580
0.761025 -0.965394 0.654408
0.724755 -0.957333 0.257404
0.808923 -0.960405 0.687558
0.789851 -0.972416 0.767395
0.783985 -0.965446 0.674455
0.818214 -0.980003 1.115389
0.730211 -0.980679 1.118214
0.752433 -0.963127 0.440407
0.748983 -0.955850 0.137461
0.748906 -0.964074 0.708407
0.750777 -0.961178 0.260415
0.799700 -0.952918 0.269599
0.748705 -0.960564 0.294420
0.723455 -0.968427 0.448296
0.773174 -0.952497 0.029539
0.793936 -0.946403 0.126651
0.778336 -0.973347 1.028383
0.774262 -0.962895 0.525459
0.723260 -0.979404 1.088215
0.795081 -0.948697 0.062625
0.754523 -0.981835 0.965242
0.768902 -0.954077 0.171524
0.748146 -0.978822 1.143274
0.791826 -0.953292 0.206580
0.775033 -0.980301 1.205314
0.766399 -0.961126 0.449461
0.788152 -0.950424 0.032594
0.711035 -0.968820 0.659285
0.760989 -0.952593 0.121524
0.763630 -0.959829 0.328463
0.716655 -0.981361 0.896174
0.703768 -0.957407 0.249371
0.784355 -0.956029 0.452553
0.795497 -0.976461 0.958383
0.790736 -0.968883 0.810447
0.710701 -0.976970 0.856209
0.739050 -0.980467 1.196246
0.732343 -0.962737 0.482383
0.712144 -0.976518 0.632203
0.784166 -0.960230 0.562515
0.783552 -0.959078 0.364514
0.739657 -0.981172 0.894222
0.704494 -0.968331 0.426267
0.761554 -0.975339 0.924330
0.753739 -0.957196 0.263473
0.729059 -0.968538 0.645326
0.752851 -0.969541 0.753368
0.775969 -0.964534 0.676463
0.778208 -0.973016 1.089400
0.750016 -0.967582 0.663380
0.690776 -0.960572 0.255318
0.694223 -0.978762 1.101179
0.717442 -0.963317 0.433351
0.767741 -0.958109 0.264495
0.714932 -0.966233 0.699332
0.714775 -0.960398 0.255368
0.750405 -0.981469 1.020254
0.759953 -0.948631 0.123575
0.741278 -0.964069 0.518395
0.761086 -0.949948 0.061559
0.709680 -0.956806 0.289400
0.688274 -0.977468 1.070182
0.777002 -0.987725 1.245251
0.687468 -0.969635 0.442228
0.714512 -0.975916 0.945243
0.733907 -0.955334 0.170457
0.713169 -0.977875 1.124230
0.755821 -0.952534 0.203532
0.739066 -0.979306 1.181268
0.731411 -0.961294 0.440405
0.731660 -0.964041 0.325370
0.757769 -0.971000 0.798374
0.752184 -0.961385 0.554453
0.675047 -0.968994 0.650228
0.754490 -0.969483 0.932392
0.751388 -0.959193 0.444469
0.670774 -0.958638 0.247309
0.676712 -0.976094 0.844167
0.704074 -0.979519 1.177202
0.677658 -0.978479 0.880145
0.677146 -0.974663 0.621170
0.701382 -0.967929 0.478281
0.702644 -0.975242 0.875228
0.749572 -0.961282 0.359439
0.732620 -0.982448 0.914210
0.722769 -0.961401 0.260381
0.669488 -0.966521 0.419233
0.697086 -0.970682 0.636254
0.745242 -0.974077 1.072337
0.720891 -0.973696 0.745275
0.739990 -0.964653 0.662406
0.716034 -0.967708 0.651326
0.686471 -0.966488 0.427271
0.733761 -0.960314 0.259419
0.682791 -0.962611 0.252296
0.659251 -0.979870 1.087114
0.711398 -0.975520 0.998256
0.725961 -0.949859 0.120510
0.682970 -0.970398 0.692239
0.710317 -0.969261 0.514293
0.661332 -0.984604 1.064066
0.678701 -0.960022 0.287320
0.738018 -0.982687 1.215243
0.683211 -0.980956 1.111152
0.655491 -0.972847 0.439146
0.685571 -0.983057 0.938123
0.724849 -0.956751 0.201440
0.708121 -0.983362 1.165178
0.703473 -0.969465 0.436276
0.725792 -0.972121 0.787312
0.700683 -0.967245 0.322289
0.717190 -0.960552 0.545408
0.647744 -0.979225 0.836090
0.719426 -0.963361 0.437375
0.730604 -0.984609 0.927195
0.674121 -0.983612 1.165113
0.646162 -0.975822 0.614111
0.644088 -0.974175 0.645127
0.716577 -0.961479 0.354386
0.671682 -0.978355 0.864148
0.645689 -0.981633 0.872063
0.669409 -0.971119 0.473199
0.690584 -0.971479 0.888261
0.688767 -0.960606 0.255338
0.639513 -0.969707 0.415154
0.716279 -0.976140 1.058271
0.666117 -0.973841 0.629174
0.686896 -0.971810 0.732243
0.708027 -0.967786 0.652324
0.687088 -0.973841 0.643217
0.653472 -0.965663 0.420230
0.690501 -0.990689 0.999064
0.695726 -0.954528 0.252423
0.636398 -0.993759 1.060932
0.678333 -0.970428 0.507232
0.629292 -0.983996 1.078026
0.654013 -0.975552 0.686141
0.706075 -0.985696 1.194162
0.658288 -0.991089 1.106007
0.688814 -0.951993 0.198436
0.649562 -0.978141 0.921120
0.675141 -0.981379 1.144148
0.621496 -0.973052 0.434093
0.672496 -0.971625 0.429206
0.692798 -0.970228 0.774282
0.690231 -0.965703 0.540312
0.667694 -0.968454 0.318227
0.616760 -0.979339 0.825042
0.692489 -0.971513 0.432248
0.688572 -0.973619 0.899247
0.686602 -0.964665 0.350307
0.618203 -0.980981 0.609014
0.642149 -0.984698 1.151053
0.638689 -0.976451 0.850118
0.612103 -0.975341 0.638067
0.665663 -0.981602 0.882116
0.691351 -0.985262 1.052136
0.611692 -0.979758 0.860032
0.636421 -0.972316 0.468137
0.607510 -0.968897 0.410115
0.638162 -0.978977 0.622078
0.658945 -0.977967 0.727136
0.680088 -0.974911 0.644206
0.654103 -0.973982 0.633166
0.652474 -0.981722 0.976101
0.625517 -0.971845 0.417123
0.601373 -0.985803 1.040963
0.649367 -0.974595 0.502145
0.621018 -0.974704 0.677101
0.601345 -0.991162 1.073908
0.673111 -0.985702 1.172111
0.625296 -0.988139 1.087988
0.646190 -0.985454 1.131061
0.664831 -0.973352 0.766206
0.618591 -0.980265 0.911051
0.638485 -0.968797 0.421185
0.657227 -0.963866 0.532282
0.588783 -0.981474 0.817978
0.652434 -0.961686 0.420292
0.611729 -0.980568 0.842034
0.652587 -0.961859 0.344286
0.659634 -0.979706 0.887138
0.584181 -0.976130 0.599015
0.608151 -0.980744 1.132043
0.656340 -0.978273 1.029157
0.632674 -0.979676 0.866087
0.583148 -0.981529 0.634959
0.603413 -0.970502 0.462107
0.579711 -0.980901 0.850973
0.601125 -0.971105 0.608105
0.627957 -0.978104 0.718088
0.622104 -0.972105 0.622137
0.646094 -0.973027 0.631174
0.625526 -0.987849 0.968996
0.576426 -0.992946 1.036851
0.617360 -0.972773 0.496116
0.641139 -0.984712 1.151073
0.592046 -0.977859 0.671024
0.599355 -0.995257 1.080874
0.567336 -0.986231 1.056910
0.632829 -0.970452 0.753189
0.614214 -0.984486 1.112023
0.586594 -0.978375 0.899024
0.633292 -0.973028 0.530149
0.604466 -0.964969 0.413175
0.560808 -0.983599 0.809914
0.633415 -0.988402 1.025015
0.625490 -0.968839 0.415176
0.581750 -0.981685 0.831978
0.623623 -0.973759 0.867146
0.586239 -0.993919 1.132872
0.603705 -0.981775 0.855021
0.575165 -0.976260 0.604013
0.551143 -0.979685 0.626931
0.598982 -0.980237 0.710022
0.549736 -0.983040 0.842906
0.593137 -0.975239 0.614061
0.616128 -0.976157 0.622096
0.592515 -0.982922 0.952998
0.544422 -0.989012 1.020845
0.590411 -0.979947 0.493000
0.567355 -0.991301 1.062868
0.609172 -0.984733 1.131024
0.605867 -0.974580 0.746105
0.592302 -0.996617 1.108862
0.564092 -0.984029 0.666918
0.541396 -0.995426 1.056775
0.604307 -0.974184 0.524094
0.560654 -0.986528 0.894899
0.531813 -0.982720 0.800881
0.599392 -0.980428 1.004048
0.551755 -0.979770 0.818954
0.593652 -0.974833 0.853090
0.553231 -0.988970 1.114875
0.573717 -0.980859 0.841986
0.546175 -0.976394 0.595968
0.568987 -0.979366 0.700987
0.516715 -0.978170 0.831909
0.564154 -0.976372 0.606006
0.586144 -0.976266 0.611050
0.565547 -0.986038 0.944925
0.521476 -0.997185 1.020725
0.542405 -0.997423 1.056767
0.579903 -0.978712 0.740023
0.582223 -0.988782 1.116941
0.557277 -0.987618 1.084905
0.534093 -0.983180 0.659883
0.574301 -0.972336 0.517069
0.507366 -0.987485 1.038809
0.528637 -0.981628 0.881904
0.577461 -0.989550 0.999919
0.503823 -0.982845 0.792839
0.522764 -0.978870 0.807921
0.564677 -0.975921 0.841036
0.530306 -1.000142 1.114724
0.543737 -0.980945 0.828941
0.543027 -0.984520 0.696895
0.535159 -0.975495 0.596973
0.534542 -0.982109 0.929921
0.490772 -0.986345 0.829785
0.491457 -0.991236 1.004744
0.551908 -0.977826 0.730991
0.510380 -0.989445 1.036804
0.551241 -0.986797 1.096916
0.536369 -1.000765 1.083735
0.546452 -0.984598 0.982925
0.483427 -0.996665 1.038677
0.479863 -0.987984 0.788750
0.501673 -0.985767 0.875821
0.497803 -0.984016 0.803830
0.497275 -0.991161 1.093770
0.515746 -0.980037 0.817910
0.536722 -0.980014 0.829951
0.516046 -0.986671 0.691833
0.511604 -0.991271 0.928791
0.465478 -0.993367 0.998684
0.458733 -0.978446 0.816822
0.526937 -0.980951 0.724921
0.485417 -0.993557 1.029724
0.524284 -0.989847 1.082844
0.503342 -0.991762 1.060781
0.522484 -0.987691 0.974858
0.474681 -0.985895 0.868781
0.443759 -0.969028 0.767898
0.452409 -0.991757 1.025684
0.472826 -0.986130 0.796772
0.475352 -1.003358 1.096610
0.488778 -0.983155 0.809837
0.506729 -0.978089 0.815927
0.482595 -0.987349 0.915790
0.436456 -0.987433 0.984705
0.499954 -0.982069 0.716870
0.426686 -0.969548 0.803871
0.457413 -0.990637 1.017715
0.479394 -0.997866 1.053682
0.493479 -0.983747 0.959857
0.495302 -0.988891 1.066811
0.440622 -0.973956 0.850858
0.425433 -0.994917 1.021613
0.457740 -0.974205 0.792887
0.442300 -0.991367 1.074689
0.481774 -0.983202 0.808837
0.456607 -0.987448 0.906752
0.412480 -0.990571 0.980638
0.431432 -0.991735 1.008666
0.468488 -0.982816 0.948830
0.450379 -0.991889 1.035703
0.399708 -0.972720 0.800799
0.468331 -0.989942 1.052760
0.414625 -0.973067 0.842830
0.397423 -0.992030 1.012603
0.428717 -0.968274 0.778908
0.419348 -0.998529 1.073580
0.456826 -0.989316 0.801737
0.391530 -0.998751 0.982522
0.430630 -0.989568 0.899692
0.406439 -0.990815 0.998640
0.444518 -0.985922 0.941763
0.424408 -0.993976 1.025644
0.440347 -0.988990 1.037730
0.388644 -0.975210 0.837771
0.367380 -0.983094 0.997655
0.390320 -0.991585 1.058612
0.384492 -0.998981 0.998523
0.419530 -0.986013 0.932726
0.395386 -0.987000 1.007676
0.417412 -0.997098 1.031612
0.358567 -0.961265 0.821876
0.368375 -1.000782 1.061485
0.376590 -0.979728 0.876719
0.374454 -0.997158 1.007539
0.386367 -0.985061 1.006694
0.355649 -0.988898 0.877593
0.355307 -0.971025 0.981798
