# .PCD v0.7 - Point Cloud Data file format
VERSION 0.7
FIELDS x y z
SIZE 4 4 4
TYPE F F F
COUNT 1 1 1
WIDTH 18
HEIGHT 1
VIEWPOINT 0 0 0 1
POINTS 18
DATA ascii
2.324733 -0.789409 2.785282
2.294180 -0.839312 2.769622
2.288018 -0.755319 2.772346
2.356388 -1.040924 2.793460
2.264609 -0.888229 2.754972
2.255491 -0.805220 2.756626
2.316914 -1.085756 2.776538
2.224342 -0.932073 2.730040
2.274562 -1.128574 2.755537
2.357345 -0.963289 2.793334
2.222532 -1.164326 2.723285
2.328543 -1.017209 2.788686
2.275475 -1.058963 2.757420
2.230175 -1.104777 2.735347
2.281821 -1.304550 2.743722
2.288565 -1.245708 2.748812
2.220950 -1.340254 2.707235
2.221786 -1.280374 2.709183
