# .PCD v0.7 - Point Cloud Data file format
VERSION 0.7
FIELDS x y z
SIZE 4 4 4
TYPE F F F
COUNT 1 1 1
WIDTH 59
HEIGHT 1
VIEWPOINT 0 0 0 1
POINTS 59
DATA ascii
2.793173 2.130155 3.359660
2.793745 2.036123 3.304156
2.982202 2.260636 3.525230
2.654787 2.088330 3.242012
2.589700 2.014368 3.228119
1.231214 0.957208 1.420496
1.193588 0.957132 1.385166
2.912811 2.023517 3.385943
3.031232 2.190139 3.519580
2.739325 2.049904 3.274656
2.703552 2.001191 3.298974
1.302320 0.960343 1.469542
1.249167 0.951095 1.417218
3.030741 2.007026 3.465656
2.975611 2.052202 3.400834
2.858065 2.032662 3.345332
2.797552 1.970150 3.346686
3.150514 1.984550 3.545195
1.305734 0.944025 1.450230
3.076722 2.018762 3.458378
2.979820 2.013279 3.419918
2.865519 1.918572 3.364285
3.191168 1.989695 3.528840
3.105563 1.990745 3.498374
2.954209 1.878876 3.405885
-1.362816 -2.435807 1.116257
-1.323950 -2.412175 1.176499
-1.480996 -2.465501 1.077703
-1.420089 -2.413705 1.120250
-1.493460 -2.416700 1.134920
-1.543097 2.284190 1.381462
-1.561253 2.314880 1.401785
-1.546148 2.282816 1.400370
-1.454617 2.167347 1.385153
-1.540105 2.262616 1.405068
-1.454235 2.278594 1.435279
-1.345979 2.025826 1.365601
-1.513548 2.338285 1.426811
-1.416596 2.336378 1.452845
-1.313261 2.075633 1.380102
-1.517434 2.309261 1.416431
-1.352258 2.248258 1.472856
-0.376628 0.621579 0.298349
-1.229152 2.035390 1.409632
-0.374747 0.655645 0.290735
-0.403738 0.660951 0.335796
-0.360415 0.627519 0.297528
-0.347420 0.641715 0.282715
-2.040712 4.882828 1.303361
-1.319140 4.279540 1.505923
-1.381279 4.296258 1.492933
-1.363133 4.557225 1.603607
-1.533240 4.422407 1.471763
-1.303810 4.622319 1.618218
-1.478836 4.633655 1.574963
-1.393416 4.709723 1.619892
-1.317183 4.804565 1.679971
-1.560700 4.876763 1.598058
-1.436997 4.894020 1.645422
