# .PCD v0.7 - Point Cloud Data file format
VERSION 0.7
FIELDS x y z
SIZE 4 4 4
TYPE F F F
COUNT 1 1 1
WIDTH 21
HEIGHT 1
VIEWPOINT 0 0 0 1
POINTS 21
DATA ascii
1.442907 2.206979 2.592777
1.529678 2.373135 2.635782
1.603778 2.395674 2.846368
1.849276 2.754619 2.704943
1.605703 2.409515 2.867509
1.658780 2.407909 2.862747
2.089104 3.020031 2.828604
1.702300 2.486103 2.661685
1.843346 2.640949 2.670822
1.569330 2.243024 2.580742
1.818157 2.663622 2.689915
2.008390 2.871892 2.793791
1.575866 2.241906 2.706771
1.955263 2.772820 2.768588
1.662231 2.381853 2.880513
1.603469 2.259246 2.587060
1.500086 2.072348 2.504802
1.801354 2.502311 2.719294
1.647582 2.243274 2.618118
1.511406 2.051332 2.519666
1.604926 2.108358 2.586646
