# .PCD v0.7 - Point Cloud Data file format
VERSION 0.7
FIELDS x y z
SIZE 4 4 4
TYPE F F F
COUNT 1 1 1
WIDTH 49
HEIGHT 1
VIEWPOINT 0 0 0 1
POINTS 49
DATA ascii
2.170287 -2.275187 0.885023
2.151270 -2.271016 0.407701
2.137704 -2.273969 0.865550
2.198208 -2.264151 0.506230
2.252024 -2.279339 0.603876
2.074990 -2.283467 0.869653
2.026122 -2.248013 0.396912
2.099938 -2.272588 0.895874
2.085960 -2.255257 0.494636
2.029527 -2.272157 0.848009
2.141775 -2.272474 0.590321
2.136678 -2.279792 0.926282
2.067496 -2.278240 0.945424
2.190760 -2.270638 0.685874
2.071839 -2.243328 0.374317
1.961943 -2.265637 0.846057
2.092531 -2.285241 1.038675
1.918814 -2.240148 0.389403
1.971498 -2.230620 0.341013
1.988890 -2.257780 0.870311
1.976709 -2.243395 0.483101
1.915468 -2.256318 0.826401
2.026609 -2.254585 0.574704
2.025641 -2.266989 0.898723
2.087940 -2.252359 0.389407
1.956434 -2.263438 0.921862
2.084529 -2.261826 0.669387
2.078506 -2.274333 0.918327
1.866702 -2.261937 0.829718
1.978552 -2.266436 1.010074
1.894656 -2.256093 0.851989
1.815286 -2.249585 0.808993
2.021506 -2.276573 1.108548
1.928298 -2.249824 0.563328
1.926496 -2.262276 0.875333
1.982287 -2.253051 0.653958
1.849378 -2.247674 0.898359
1.976420 -2.266605 0.890898
1.882383 -2.260758 0.988727
1.796523 -2.245391 0.830613
1.921425 -2.264884 1.082149
1.832323 -2.255606 0.854015
1.887990 -2.248341 0.640642
1.755175 -2.242005 0.881040
1.878311 -2.257912 0.865528
1.785266 -2.249084 0.966369
1.832225 -2.261274 1.060904
1.771357 -2.234169 0.836038
1.741079 -2.251659 1.038634
