# .PCD v0.7 - Point Cloud Data file format
VERSION 0.7
FIELDS x y z
SIZE 4 4 4
TYPE F F F
COUNT 1 1 1
WIDTH 14
HEIGHT 1
VIEWPOINT 0 0 0 1
POINTS 14
DATA ascii
3.064856 -1.775789 0.869172
2.939128 -1.704154 0.790317
3.761944 -2.271322 1.718437
3.534209 -2.172988 1.653406
3.064860 -1.766728 0.919170
3.019913 -1.759766 0.913051
3.584015 -2.160236 1.741601
3.683753 -2.267235 1.830982
3.058903 -1.761680 0.965104
3.002827 -1.771224 1.005789
3.383426 -2.147107 1.667876
3.579423 -2.168638 1.132313
3.799637 -2.245531 1.387290
3.625406 -2.166781 1.183340
