# .PCD v0.7 - Point Cloud Data file format
VERSION 0.7
FIELDS x y z
SIZE 4 4 4
TYPE F F F
COUNT 1 1 1
WIDTH 183
HEIGHT 1
VIEWPOINT 0 0 0 1
POINTS 183
DATA ascii
5.078897 -1.472962 3.838765
2.400573 -0.760827 2.784734
2.348116 -0.751731 2.821547
2.286788 -0.733960 2.785471
2.392470 -0.814676 2.797755
2.276208 -0.785440 2.758538
2.230069 -0.770934 2.739238
2.378285 -0.866413 2.802873
2.262001 -0.836153 2.760664
2.232108 -0.826962 2.764121
2.330754 -0.905604 2.772506
2.539108 -0.992723 2.848280
2.525056 -0.981468 2.835633
2.502118 -0.975307 2.836982
2.307512 -0.953213 2.769773
2.562253 -1.066040 2.891807
2.541214 -1.053730 2.879268
2.492037 -1.037161 2.855023
2.583485 -1.132673 2.856399
2.473262 -1.094535 2.816072
2.430067 -1.074913 2.785872
2.402115 -1.065693 2.784303
2.559282 -1.190318 2.861656
2.467136 -1.156393 2.830058
2.442239 -1.146147 2.829575
2.484599 -1.224157 2.812710
2.722364 -1.339895 2.941956
2.719141 -1.341580 2.919183
2.689081 -1.345266 2.913623
2.574003 -1.340577 2.816165
1.005904 -2.636454 2.130639
0.914572 -2.485760 2.103495
0.835182 -2.366216 2.089046
0.776648 -2.249728 2.064344
0.919039 -2.599677 2.090002
0.935241 -2.707571 2.059253
0.843690 -2.467153 2.074566
0.770271 -2.347635 2.058040
0.718452 -2.158439 2.073695
0.720734 -2.242251 2.041169
0.687598 -2.114176 2.059272
0.657741 -2.084967 2.052759
0.813106 -2.499505 2.000899
0.634744 -2.078749 2.039094
0.746703 -2.371024 1.983330
0.636958 -2.034722 2.033378
0.690293 -2.279734 1.987453
0.658557 -2.135894 2.042642
0.656785 -2.207600 1.996221
0.627671 -2.088596 2.022234
0.591720 -2.040209 1.991892
0.908984 -2.990342 2.380434
0.489216 -1.776635 1.991484
0.560639 -2.010790 1.952441
0.772333 -2.636431 2.192818
0.505916 -1.837723 1.990998
0.541525 -1.922962 1.998177
0.579115 -2.019243 2.010271
0.694826 -2.471680 2.140551
0.583533 -2.059970 1.962028
0.584770 -2.139731 1.921530
0.556639 -2.020720 1.945534
0.442683 -1.708336 1.985458
0.530747 -2.001543 1.939927
0.484266 -1.806611 1.993548
0.469447 -1.778524 1.992884
0.446315 -1.769260 1.970143
0.452491 -1.755360 1.981187
0.410038 -1.645091 1.975228
0.463072 -1.840421 1.981609
0.488642 -1.901477 1.968030
0.506128 -1.947363 1.933620
0.422702 -1.721168 1.976715
0.686398 -2.635888 2.517016
0.416828 -1.702111 1.972938
0.376241 -1.602798 1.957893
0.400764 -1.704964 1.963089
0.663580 -2.646898 2.540206
0.435390 -1.786164 1.965345
0.404390 -1.759872 1.944793
0.421600 -1.763120 1.970646
0.405580 -1.736907 1.949950
0.371164 -1.642780 1.959813
0.402001 -1.772586 1.899785
0.424623 -1.833657 1.891243
0.373702 -1.687587 1.925576
0.455353 -1.941017 1.923371
0.372952 -1.689726 1.949634
0.340371 -1.605530 1.946413
0.347685 -1.655237 1.891080
0.377356 -1.720387 1.889470
0.349297 -1.697083 1.863868
0.351549 -1.680191 1.879982
0.361568 -1.695315 1.891811
0.327215 -1.618302 1.920565
0.360158 -1.766265 1.884418
0.595484 -2.694789 2.760976
0.326737 -1.655048 1.878404
0.588594 -2.666962 2.630240
0.318892 -1.626965 1.871697
0.310839 -1.662994 1.883584
0.719296 -3.309494 3.610507
0.539986 -2.696472 2.930626
0.543448 -2.674714 2.969778
0.320792 -1.690052 1.884426
0.281206 -1.576708 1.862425
0.464941 -2.453018 2.757811
0.285175 -1.643872 1.886114
0.464442 -2.582800 2.893173
0.513287 -2.706405 2.952067
0.604683 -3.336493 3.901718
0.443865 -2.463736 2.735147
0.525172 -3.130817 3.696719
-1.009481 -3.868237 1.285370
-1.082848 -3.788906 1.264391
-0.985448 -3.427113 1.216677
-1.151199 -3.702594 1.241398
-1.040805 -3.334843 1.191630
-1.216541 -3.614302 1.218382
-1.097191 -3.254595 1.170514
-1.157631 -3.198383 1.159284
-1.224117 -3.161180 1.153982
-1.302673 -3.155992 1.160575
-1.240900 -3.019407 1.189912
-1.377198 -3.138811 1.164190
-1.281300 -2.933231 1.166677
-1.324730 -2.863084 1.151366
-1.434632 -3.080634 1.152899
-1.365165 -2.790945 1.134038
-1.485048 -3.012476 1.138605
-1.403600 -2.718818 1.116690
-1.541493 -2.959327 1.130258
1.885816 1.484902 2.926343
2.099796 1.647903 3.025641
1.817329 1.409906 2.885552
2.068086 1.600864 3.009236
2.351635 1.821767 3.155330
2.309975 1.784901 3.114871
2.120695 1.599662 2.909647
1.831973 1.377399 2.806588
2.405267 1.820686 3.043693
2.013315 1.506628 2.857499
2.591355 1.940541 3.149590
1.737760 1.288623 2.722547
1.970704 1.455669 2.824996
2.387528 1.756492 3.051323
2.267153 1.673475 2.991168
2.247290 1.654485 2.978947
2.174803 1.569489 2.940006
1.833541 1.316489 2.772439
2.539764 1.836184 3.159834
2.065434 1.476442 2.887849
2.569861 1.873518 3.123322
1.769981 1.255484 2.736740
2.758609 1.970903 3.301032
2.630466 1.900249 3.186898
2.107008 1.486954 2.971226
2.564600 1.799685 3.230895
2.456115 1.729613 3.183887
3.085298 2.170986 4.002392
2.347798 1.622627 3.126585
1.983598 1.360541 2.957824
2.664364 1.838742 3.262842
2.214653 1.509668 3.048179
2.845257 1.974418 3.391863
2.179944 1.467646 3.028771
2.814652 1.935600 3.347488
2.625714 1.755489 3.267240
2.512314 1.685505 3.205200
2.364264 1.561678 3.107531
2.488498 1.663541 3.186938
2.015856 1.319420 2.968979
2.707688 1.781721 3.266998
2.269769 1.474470 3.081524
2.260823 1.450300 3.095380
2.440191 1.539392 3.165073
2.559605 1.633446 3.215411
2.545691 1.619425 3.210256
2.023357 1.261449 2.946882
1.985471 1.227241 2.953479
2.289223 1.415487 3.067506
2.055590 1.221298 2.963038
1.987998 1.171303 2.925351
