# .PCD v0.7 - Point Cloud Data file format
VERSION 0.7
FIELDS x y z
SIZE 4 4 4
TYPE F F F
COUNT 1 1 1
WIDTH 15
HEIGHT 1
VIEWPOINT 0 0 0 1
POINTS 15
DATA ascii
-0.729089 -2.445749 0.904733
-1.366496 -3.033356 1.131737
-1.312467 -3.036876 1.143882
-1.332820 -2.982134 1.148082
-1.302550 -3.001855 1.152995
1.592928 -2.731311 2.326638
1.541312 -2.779482 2.342248
1.577365 -2.733754 2.372643
1.652466 -2.801504 2.343011
1.622611 -2.923052 2.289950
1.489695 -2.829671 2.360852
1.530754 -2.790963 2.393179
1.571778 -2.761305 2.431422
1.604847 -2.860736 2.365525
1.535979 -2.923871 2.267013
