# .PCD v0.7 - Point Cloud Data file format
VERSION 0.7
FIELDS x y z
SIZE 4 4 4
TYPE F F F
COUNT 1 1 1
WIDTH 122
HEIGHT 1
VIEWPOINT 0 0 0 1
POINTS 122
DATA ascii
-1.387881 2.429013 1.622007
-2.738547 4.907459 1.351437
-1.292439 2.379943 1.570346
-2.694381 5.101748 1.387043
-1.248652 2.427425 1.583374
-2.640187 5.291191 1.420471
-1.225182 2.522280 1.627173
-2.587145 5.495569 1.458083
-1.202781 2.626062 1.676085
-1.337267 2.763085 1.696050
-1.233691 2.704106 1.644203
-1.166644 2.722070 1.641643
-1.138347 2.840852 1.697657
-1.214473 3.091245 1.760183
-1.091409 2.979752 1.685565
-1.035256 3.409886 1.745859
-1.044956 3.081867 1.733193
-1.030301 3.378970 1.749333
-0.740074 4.241053 1.996218
0.350350 4.102079 0.493287
0.227951 4.120929 0.455622
0.447720 4.102309 0.490365
0.448472 4.068937 0.523993
0.326286 4.127127 0.456753
0.138463 3.233155 0.318623
0.550589 4.090210 0.522273
0.423646 4.130319 0.456872
0.606206 4.017881 0.604979
0.700821 3.996079 0.599902
0.790968 2.171289 2.291732
0.827423 2.240387 2.325179
1.060683 2.810658 2.481355
0.755828 2.000314 2.247225
0.861157 2.203642 2.339554
0.899638 2.265851 2.364914
1.129056 2.800429 2.487735
0.835940 2.062411 2.330291
0.770187 2.102026 2.291296
0.930370 2.230036 2.382327
0.718132 1.933602 2.268941
0.967920 2.277394 2.392541
0.789323 2.099220 2.295130
1.046872 2.738594 2.469843
0.896251 2.067909 2.352921
1.054144 2.714769 2.461542
0.824535 2.099526 2.306883
0.745600 1.879438 2.222194
1.149891 3.120611 3.516226
0.858548 2.129537 2.344951
0.922870 2.527073 2.373672
1.110330 2.719333 2.473179
1.083398 2.897143 3.481402
0.896745 2.137761 2.367767
1.037492 2.708534 2.463712
0.823770 1.940435 2.312277
0.754939 1.961359 2.241070
0.917884 2.133011 2.368572
1.001048 2.561488 2.424464
0.706575 1.811090 2.208880
0.798408 2.035467 2.281522
0.944165 2.115386 2.363217
1.098034 2.680264 2.463992
1.033775 2.785780 3.459739
0.879094 1.945823 2.338963
0.878705 2.390740 2.351711
0.831111 2.016403 2.324116
1.301218 3.494282 2.611028
0.740826 2.006835 2.273756
1.069385 2.564066 2.448015
1.121978 2.958490 3.496884
0.774814 1.856100 2.285886
0.867661 2.069638 2.344406
1.041155 2.684510 2.468581
0.682566 1.764568 2.228707
0.947934 2.415093 2.397487
0.883452 2.013837 2.342748
0.784292 1.982364 2.273222
0.724551 1.836332 2.206149
0.824156 1.856444 2.309573
0.918061 2.057133 2.354953
1.095779 2.642257 2.459780
0.722967 1.749974 2.236305
1.010263 2.418562 2.424105
0.798725 1.897212 2.302284
0.852577 2.016469 2.341123
0.776301 1.766110 2.284134
0.843112 1.888568 2.318920
0.899046 1.996935 2.349634
0.820712 1.758424 2.304787
2.470810 -1.381616 1.845325
2.548139 -1.499677 1.928521
2.429623 -1.361830 1.808177
2.468254 -1.521480 1.809745
2.465390 -1.526289 1.894736
1.435554 -1.090993 1.484931
1.393459 -0.979618 1.507027
2.404228 -1.418167 1.808042
1.410001 -1.126354 1.489895
2.353673 -1.460594 1.790056
1.419268 -1.046911 1.561641
1.376366 -1.154714 1.485921
1.446090 -1.117200 1.617229
1.329601 -1.171085 1.469057
1.459830 -1.181540 1.663891
1.428746 -1.081494 1.513833
1.418548 -1.162291 1.478152
1.446451 -1.043866 1.571325
1.379763 -1.171880 1.607276
1.427325 -1.130760 1.535631
1.384886 -1.188619 1.471179
1.456108 -1.101111 1.603052
1.328931 -1.183222 1.583441
1.429948 -1.185029 1.562384
1.343117 -1.204934 1.454282
1.501042 -1.186344 1.672514
1.363986 -1.183350 1.519661
1.442172 -1.194622 1.632708
1.283882 -1.166648 1.459063
1.394369 -1.208904 1.605831
0.621417 -3.154412 1.611441
0.547288 -3.133940 1.593560
0.472066 -3.100433 1.570767
