# .PCD v0.7 - Point Cloud Data file format
VERSION 0.7
FIELDS x y z
SIZE 4 4 4
TYPE F F F
COUNT 1 1 1
WIDTH 16
HEIGHT 1
VIEWPOINT 0 0 0 1
POINTS 16
DATA ascii
0.349541 -3.192729 0.116353
0.274930 -3.196172 0.117640
0.360127 -3.213611 0.091427
0.469933 -3.209187 0.148869
0.283742 -3.193008 0.089944
0.317914 -3.199385 0.095367
0.392553 -3.190553 0.145354
0.212066 -3.204468 0.090171
0.171868 -3.204626 0.039796
0.244333 -3.199830 0.095690
0.211868 -3.205219 0.061334
0.015726 -3.219823 -0.012992
0.100083 -3.227111 0.041903
0.138362 -3.200637 0.058707
0.071863 -3.205667 0.007241
-0.000772 -3.220078 0.002416
