# .PCD v0.7 - Point Cloud Data file format
VERSION 0.7
FIELDS x y z
SIZE 4 4 4
TYPE F F F
COUNT 1 1 1
WIDTH 89
HEIGHT 1
VIEWPOINT 0 0 0 1
POINTS 89
DATA ascii
2.039425 -2.228462 0.645270
2.170787 -2.231722 0.677031
1.958442 -2.255116 0.898041
2.063846 -2.256714 1.123326
1.906032 -2.245515 1.070989
2.020579 -2.239423 0.519194
2.018291 -2.250914 0.581276
1.997829 -2.255523 0.991023
1.961851 -2.248562 1.092278
1.906573 -2.253329 0.971229
3.945374 -2.418533 0.979143
3.784998 -2.448067 1.674688
3.703147 -2.395804 0.936719
3.660094 -2.375937 1.388717
3.712400 -2.377393 1.465461
3.529953 -2.407135 1.592409
3.482981 -2.380063 1.344407
3.688301 -2.381822 1.060196
3.523289 -2.373492 1.412193
3.273617 -2.351337 0.863258
3.720620 -2.414788 1.191438
3.586601 -2.386911 1.485922
3.106603 -2.343338 1.245225
3.132764 -2.368348 1.473102
3.299808 -2.357270 0.985815
3.735909 -2.420835 1.321827
3.654855 -2.375194 1.545920
3.145915 -2.334694 1.302081
2.988651 -2.375486 1.434990
3.272101 -2.324474 0.792539
3.138551 -2.355491 0.957719
3.316092 -2.371200 1.101243
3.485728 -2.376238 1.490765
3.208244 -2.349062 1.367832
2.974685 -2.314810 1.253160
3.081725 -2.295723 0.757626
3.120774 -2.340425 1.058321
3.301647 -2.327586 0.828122
3.042032 -2.334150 1.316897
3.108273 -2.296813 0.788244
3.169091 -2.361375 1.182813
3.119359 -2.337334 1.367827
2.466958 -2.256840 0.450830
2.954131 -2.318396 1.312978
2.370838 -2.245457 0.585333
2.344547 -2.249117 0.441090
2.347699 -2.269835 0.718864
2.254428 -2.235703 0.571666
2.383355 -2.242610 0.613025
2.265949 -2.264285 1.037411
2.229129 -2.241383 0.431404
2.345105 -2.245282 0.467717
2.226340 -2.259088 0.702176
2.136005 -2.219958 0.557070
2.268969 -2.235827 0.596346
2.154624 -2.254459 1.011782
2.410523 -2.261030 0.473549
2.272524 -2.265856 0.799986
2.126712 -2.239644 0.424732
2.239971 -2.240624 0.369064
2.233673 -2.237526 0.456073
2.120000 -2.257325 0.688477
2.342650 -2.244461 0.493326
2.197992 -2.253629 1.045677
2.031596 -2.212203 0.545470
2.145513 -2.213083 0.578827
2.286494 -2.242958 0.621988
2.060314 -2.256647 0.993114
2.289071 -2.247315 0.461930
2.300758 -2.270658 0.892734
2.154138 -2.250086 0.779406
2.114478 -2.216944 0.359547
2.127254 -2.231772 0.445440
2.235231 -2.239680 0.479681
2.002595 -2.237580 0.670950
2.246376 -2.264812 1.082474
2.360254 -2.246453 0.507967
2.347186 -2.250018 0.558839
2.098676 -2.251801 1.023040
1.948930 -2.234820 0.965658
2.184640 -2.243577 0.453293
2.193393 -2.263859 0.872117
2.053788 -2.248316 0.764763
2.134833 -2.238891 0.467032
2.142046 -2.257956 1.054880
2.248827 -2.237655 0.490365
2.240753 -2.244260 0.546228
1.988318 -2.233953 0.993550
2.244668 -2.276668 0.971851
