# .PCD v0.7 - Point Cloud Data file format
VERSION 0.7
FIELDS x y z
SIZE 4 4 4
TYPE F F F
COUNT 1 1 1
WIDTH 21
HEIGHT 1
VIEWPOINT 0 0 0 1
POINTS 21
DATA ascii
-1.011889 -1.732203 1.445325
-1.032632 -1.709127 1.362932
-1.007043 -1.642536 1.388450
-0.954559 -1.542701 1.466076
-0.958373 -1.523727 1.468385
-1.026863 -1.600274 1.370291
-0.957973 -1.469802 1.473093
-0.950787 -1.448907 1.479273
-0.986289 -1.514511 1.456901
-0.982171 -1.489498 1.454176
-0.946568 -1.401888 1.475831
-0.959682 -1.420750 1.467772
-0.980753 -1.436603 1.460854
-0.976564 -1.419710 1.468022
-1.016027 -1.484319 1.446714
-1.011893 -1.464354 1.447922
-0.979464 -1.384551 1.454527
-1.010423 -1.413521 1.459569
-1.002313 -1.390543 1.458763
-1.014172 -1.407681 1.391693
-1.040596 -1.439241 1.443645
