# .PCD v0.7 - Point Cloud Data file format
VERSION 0.7
FIELDS x y z
SIZE 4 4 4
TYPE F F F
COUNT 1 1 1
WIDTH 25
HEIGHT 1
VIEWPOINT 0 0 0 1
POINTS 25
DATA ascii
1.661780 2.077190 0.713738
1.684239 2.044442 1.020019
1.632937 1.952877 0.686392
1.765945 2.044900 1.043963
1.669501 2.035167 1.002770
1.655523 1.972853 0.623572
1.684394 1.996209 1.033934
1.734471 2.017508 1.015510
1.682466 2.047076 0.997846
1.756418 2.057509 0.995688
1.686350 1.958977 0.975857
1.974975 1.973954 0.749271
1.707416 2.072059 0.986062
1.700156 1.902972 0.941992
2.076632 1.985613 0.770422
1.665979 1.930623 0.939542
1.740862 1.923048 0.954378
1.750694 1.925103 0.882484
2.246934 2.051674 0.700246
1.843415 1.929673 0.903516
2.230033 2.010530 0.717026
2.346699 2.020337 0.738309
2.298879 2.065949 0.691712
2.272674 2.030747 0.645390
2.227449 2.062368 0.554804
