# .PCD v0.7 - Point Cloud Data file format
VERSION 0.7
FIELDS x y z
SIZE 4 4 4
TYPE F F F
COUNT 1 1 1
WIDTH 18
HEIGHT 1
VIEWPOINT 0 0 0 1
POINTS 18
DATA ascii
3.317630 -2.392050 0.760249
3.315969 -2.439310 1.261049
3.160918 -2.388782 0.738782
3.224275 -2.442189 1.315338
3.110969 -2.401072 1.200894
3.388441 -2.455847 1.236107
3.024255 -2.399958 1.260180
3.222415 -2.418570 1.204805
3.197558 -2.432629 1.190818
3.381804 -2.440745 1.200573
3.379664 -2.440196 1.115581
3.076714 -2.424176 1.169234
3.160810 -2.397606 1.143448
3.188847 -2.422012 1.076247
3.373110 -2.442510 0.992006
3.340383 -2.440686 1.140113
3.140160 -2.396499 0.945906
3.144521 -2.415494 1.095804
