# .PCD v0.7 - Point Cloud Data file format
VERSION 0.7
FIELDS x y z
SIZE 4 4 4
TYPE F F F
COUNT 1 1 1
WIDTH 263
HEIGHT 1
VIEWPOINT 0 0 0 1
POINTS 263
DATA ascii
0.918151 -2.111533 -0.044058
0.901980 -2.090473 -0.027351
0.872969 -2.108045 0.081276
0.851568 -2.088534 -0.045103
0.855563 -2.102202 0.041000
0.845428 -2.089472 -0.029189
0.812431 -2.096066 0.078356
0.801918 -2.108552 0.217250
0.797018 -2.090532 -0.046895
0.795044 -2.092222 0.037089
0.789877 -2.088474 -0.031002
0.881288 -2.106142 0.035082
0.865470 -2.091492 -0.060192
0.763605 -2.108377 0.270700
0.756887 -2.093082 0.076544
0.858345 -2.102114 0.043740
0.742475 -2.089537 -0.049685
0.746444 -2.107599 0.211444
0.737515 -2.083243 0.033236
0.733307 -2.081476 -0.031836
0.737426 -2.111660 0.476352
0.730859 -2.124464 0.534296
0.824720 -2.105146 0.035260
0.823545 -2.111481 0.224277
0.708088 -2.102422 0.267888
0.805899 -2.085487 -0.060066
0.700346 -2.086102 0.074717
0.801962 -2.087493 -0.062118
0.802806 -2.103126 0.041941
0.685910 -2.079544 -0.051517
0.686951 -2.090652 0.205551
0.683986 -2.083260 0.030473
0.790687 -2.104470 0.232790
0.678756 -2.078482 -0.033619
0.681010 -2.104753 0.467529
0.891660 -2.098247 -0.019106
0.676403 -2.116554 0.527499
0.763150 -2.091158 0.035347
0.768017 -2.109517 0.222477
0.656576 -2.104467 0.265163
0.866210 -2.101055 0.037541
0.752315 -2.085482 -0.059830
0.646799 -2.082124 0.072951
0.746382 -2.084489 -0.061916
0.743255 -2.091145 0.040065
0.633465 -2.086703 0.199788
0.632360 -2.077550 -0.053275
0.633467 -2.088280 0.026775
0.734190 -2.100516 0.228978
0.623186 -2.065494 -0.035431
0.625589 -2.096846 0.458729
0.834070 -2.097241 -0.016931
0.731365 -2.121670 0.484012
0.623926 -2.111638 0.522748
0.830007 -2.104629 0.168046
0.814844 -2.067467 -0.082273
0.716331 -2.113648 0.495782
0.707590 -2.086171 0.034551
0.709503 -2.099562 0.219627
0.601069 -2.090525 0.260353
0.811646 -2.104061 0.037771
0.697750 -2.083484 -0.060602
0.598266 -2.092142 0.071300
0.690795 -2.080485 -0.060706
0.685700 -2.082162 0.039236
0.581957 -2.085747 0.196071
0.577787 -2.064561 -0.055063
0.580916 -2.081302 0.024029
0.679687 -2.097563 0.225206
0.786550 -2.105419 0.239440
0.573637 -2.070502 -0.037104
0.574150 -2.097931 0.452017
0.673902 -2.109757 0.478178
0.571467 -2.106727 0.517008
0.889184 -2.077336 -0.077534
0.775493 -2.092243 -0.015768
0.776462 -2.109652 0.168300
0.762259 -2.072458 -0.081001
0.660886 -2.106738 0.488991
0.762529 -2.086512 -0.099969
0.656020 -2.088182 0.034838
0.655961 -2.096599 0.218874
0.546552 -2.076581 0.256568
0.749077 -2.085083 0.036853
0.642167 -2.075487 -0.060391
0.543715 -2.077174 0.068513
0.870204 -2.099988 0.030252
0.635214 -2.072489 -0.060494
0.633154 -2.081181 0.037507
0.526465 -2.070804 0.190274
0.526367 -2.067328 0.021249
0.524246 -2.057576 -0.057811
0.737844 -2.116857 0.430800
0.624182 -2.086617 0.220413
0.730037 -2.100466 0.236639
0.522080 -2.066515 -0.038816
0.521704 -2.093019 0.445287
0.621416 -2.109832 0.475451
0.518008 -2.093823 0.510245
0.716892 -2.081247 -0.013606
0.843616 -2.104315 -0.075123
0.714929 -2.093693 0.166409
0.710683 -2.080449 -0.079700
0.607434 -2.100829 0.482240
0.702903 -2.071505 -0.096828
0.834682 -2.114757 0.106789
0.601460 -2.081201 0.034073
0.599442 -2.084648 0.216070
0.497032 -2.075631 0.253895
0.703288 -2.118662 0.508332
0.695515 -2.086096 0.037114
0.492168 -2.072201 0.066804
0.589601 -2.073493 -0.061115
0.812634 -2.098997 0.031445
0.582632 -2.068493 -0.060221
0.578603 -2.072206 0.035742
0.475969 -2.068854 0.185590
0.476842 -2.068355 0.017585
0.679380 -2.109936 0.426978
0.568676 -2.075670 0.216632
0.672529 -2.089520 0.232824
0.469268 -2.089108 0.438571
0.469517 -2.095903 0.507597
0.567935 -2.103914 0.471708
0.666316 -2.088249 -0.012286
0.778003 -2.084308 -0.071074
0.658397 -2.087723 0.166618
0.656102 -2.075446 -0.078461
0.777564 -2.103374 0.244986
0.554999 -2.098914 0.476520
0.775123 -2.105777 0.107944
0.649330 -2.070498 -0.095564
0.545911 -2.072691 0.214316
0.548906 -2.077216 0.034350
0.445529 -2.067683 0.251185
0.645860 -2.104757 0.500514
0.441634 -2.066227 0.065114
0.640971 -2.083108 0.037361
0.538055 -2.072498 -0.061814
0.754057 -2.090003 0.033620
0.530059 -2.059497 -0.059949
0.528066 -2.069225 0.034054
0.426481 -2.067899 0.181929
0.625889 -2.106000 0.425240
0.517185 -2.070717 0.212929
0.620025 -2.088561 0.231108
0.421038 -2.094982 0.504949
0.516463 -2.097991 0.468002
0.417841 -2.083194 0.431873
0.734564 -2.110043 0.371423
0.612765 -2.087252 -0.011014
0.721406 -2.079300 -0.067852
0.719753 -2.074392 -0.099887
0.723035 -2.101414 0.244239
0.601865 -2.076759 0.165835
0.602518 -2.072441 -0.076187
0.501559 -2.087008 0.468780
0.707174 -2.054501 -0.136097
0.497352 -2.071236 0.033652
0.595749 -2.068490 -0.093287
0.495391 -2.073732 0.213647
0.712576 -2.088805 0.108062
0.399003 -2.070731 0.249582
0.591412 -2.097847 0.494767
0.585431 -2.075128 0.036601
0.698499 -2.088013 0.034864
0.477531 -2.067247 0.032382
0.377990 -2.066950 0.177294
0.466676 -2.067765 0.210256
0.569410 -2.093078 0.421458
0.564514 -2.076612 0.228343
0.370575 -2.084076 0.499265
0.681450 -2.110702 0.516719
0.464981 -2.094070 0.465313
0.366402 -2.071287 0.424175
0.677077 -2.107105 0.370641
0.556190 -2.073265 -0.009794
0.686409 -2.154160 0.715882
0.667817 -2.080293 -0.064570
0.664159 -2.070383 -0.096640
0.549321 -2.072793 0.166129
0.667524 -2.099458 0.243488
0.546933 -2.059446 -0.074950
0.454086 -2.099082 0.467181
0.660606 -2.073481 -0.133685
0.544151 -2.064487 -0.090978
0.445867 -2.071778 0.211994
0.445801 -2.067256 0.033968
0.349493 -2.064787 0.246927
0.659024 -2.091822 0.110349
0.538947 -2.091934 0.490059
0.533875 -2.073147 0.036916
0.643931 -2.086025 0.037131
0.418175 -2.067817 0.206626
0.516924 -2.091151 0.419762
0.513002 -2.071663 0.225656
0.417475 -2.099144 0.464705
0.626984 -2.103791 0.511979
0.317947 -2.069373 0.418548
0.622580 -2.106167 0.369913
0.503600 -2.065276 -0.007499
0.612567 -2.073375 -0.093318
0.627995 -2.147280 0.711087
0.613229 -2.077291 -0.061299
0.499779 -2.074827 0.166484
0.400651 -2.081184 0.458449
0.609999 -2.084512 0.241697
0.496361 -2.059449 -0.073610
0.604992 -2.065471 -0.129435
0.398333 -2.077820 0.212392
0.300979 -2.058846 0.244296
0.599458 -2.072855 0.111527
0.488487 -2.091022 0.485396
0.483320 -2.069171 0.036249
0.591382 -2.086044 0.037438
0.368673 -2.066870 0.203989
0.466428 -2.093223 0.419109
0.462490 -2.070714 0.223999
0.365007 -2.082239 0.458995
0.574504 -2.100877 0.509283
0.564088 -2.092241 0.368120
0.558617 -2.068294 -0.057029
0.557974 -2.067375 -0.090042
0.449241 -2.073867 0.166830
0.559479 -2.087558 0.241041
0.350195 -2.073277 0.452788
0.553390 -2.067461 -0.125104
0.345808 -2.058879 0.209684
0.548922 -2.079881 0.112880
0.440006 -2.097104 0.483782
0.432779 -2.067199 0.035596
0.536814 -2.077067 0.038712
0.412964 -2.066767 0.222358
0.413931 -2.081305 0.416413
0.521042 -2.092971 0.504575
0.510587 -2.085313 0.366416
0.505365 -2.059379 -0.086733
0.504019 -2.057303 -0.053751
0.398702 -2.070910 0.167181
0.504947 -2.075614 0.240316
0.297271 -2.049934 0.208058
0.495364 -2.071916 0.114177
0.388546 -2.087201 0.478108
0.485236 -2.073089 0.041044
0.364449 -2.070820 0.221755
0.362442 -2.072389 0.413747
0.471547 -2.093057 0.502941
0.458086 -2.084382 0.366745
0.454415 -2.071669 0.239667
0.338073 -2.077297 0.473457
0.443802 -2.068950 0.116519
0.433675 -2.069118 0.042387
0.317925 -2.077873 0.221190
0.314931 -2.077466 0.414167
0.423057 -2.096145 0.501334
0.404580 -2.071462 0.365052
0.404887 -2.069726 0.239043
0.393252 -2.066989 0.117885
0.371569 -2.080246 0.496667
0.355355 -2.064786 0.238425
0.355065 -2.074534 0.366446
0.307825 -2.068846 0.238854
0.305560 -2.079611 0.367852
