# .PCD v0.7 - Point Cloud Data file format
VERSION 0.7
FIELDS x y z
SIZE 4 4 4
TYPE F F F
COUNT 1 1 1
WIDTH 845
HEIGHT 1
VIEWPOINT 0 0 0 1
POINTS 845
DATA ascii
1.101749 -2.029108 0.066623
1.098888 -2.026053 0.044612
1.114189 -2.026838 0.014704
1.109758 -2.019564 -0.072305
0.692735 -1.326103 0.035226
1.097833 -2.016630 -0.080386
1.138781 -2.036443 -0.046173
1.054860 -2.042090 0.236214
1.114205 -2.021898 0.027697
1.048096 -2.041540 0.066158
1.042208 -2.032496 0.041148
1.026785 -2.025325 -0.040945
1.054469 -2.031318 0.015225
1.056113 -2.033992 -0.072777
1.128512 -2.032744 0.011739
1.047360 -2.034461 0.039159
1.038053 -2.016109 -0.078844
1.045002 -2.044221 0.246110
1.065243 -2.013821 -0.102652
0.997563 -2.039817 0.310789
0.997177 -2.044535 0.230765
1.058536 -2.032343 0.027228
0.985302 -2.034028 0.063710
0.982457 -2.029957 0.037704
0.977023 -2.020675 -0.052304
1.071362 -2.010765 -0.107615
1.079840 -2.029556 0.130383
0.963963 -2.016816 -0.041386
1.006100 -2.043567 0.255818
1.044226 -2.049246 0.246060
0.994707 -2.030792 0.015774
0.987209 -2.016536 -0.071229
1.063729 -2.030267 0.014254
0.986589 -2.030935 0.037714
0.984383 -2.027531 -0.079294
0.985283 -2.042682 0.241665
1.015564 -2.035290 0.195898
1.003447 -2.011314 -0.100108
1.008164 -2.026493 -0.041131
0.939846 -2.038262 0.306363
0.994630 -2.009296 -0.124167
0.939469 -2.043974 0.225335
0.933623 -2.051030 0.504274
0.996780 -2.030828 0.026769
0.931605 -2.040447 0.062285
0.926717 -2.030386 0.035288
1.035406 -2.047328 0.244980
1.016715 -2.008108 -0.131017
0.920310 -2.024109 -0.054738
1.007549 -2.007280 -0.103081
1.023189 -2.041011 0.130910
0.911267 -2.024223 -0.042804
0.946362 -2.041034 0.253383
0.913146 -2.048483 0.584136
0.982479 -2.044725 0.242615
0.936961 -2.032247 0.016340
0.931476 -2.019969 -0.071655
1.002975 -2.031755 0.016792
0.928850 -2.031382 0.036285
0.921521 -2.016023 -0.077713
1.002386 -2.052230 0.420721
0.927584 -2.044128 0.238232
0.957870 -2.040751 0.196448
0.948369 -2.023968 -0.038564
0.885143 -2.039684 0.302957
0.918645 -2.048264 0.531161
0.881748 -2.041409 0.219923
0.936855 -2.010756 -0.120599
0.951748 -2.056017 0.530354
0.912850 -2.058273 0.520079
0.872811 -2.033899 0.060882
0.878991 -2.055442 0.496858
0.938020 -2.030289 0.027338
0.867954 -2.025829 0.031877
0.977707 -2.050782 0.243538
0.863528 -2.020542 -0.056137
0.958958 -2.012572 -0.126461
0.935148 -2.051959 0.478247
0.954868 -2.020703 -0.099522
0.852458 -2.016670 -0.044201
0.961451 -2.041502 0.132452
0.888615 -2.038483 0.251972
0.859484 -2.050894 0.578737
0.923767 -2.045180 0.240183
0.875721 -2.021400 -0.071065
0.879199 -2.030693 0.015926
0.943211 -2.031226 0.018356
0.873098 -2.030809 0.034883
0.866801 -2.021446 -0.077130
0.870862 -2.042556 0.233828
0.939674 -2.048717 0.417274
0.898126 -2.038214 0.195024
0.864975 -2.051681 0.527759
0.831442 -2.042097 0.300562
0.890617 -2.025419 -0.036988
0.825027 -2.038831 0.214527
0.927993 -2.053231 0.532176
0.869917 -1.990279 -0.117001
0.891018 -2.047473 0.522947
0.854140 -2.051708 0.511682
0.814004 -2.025346 0.059496
0.819274 -2.045875 0.486467
0.814250 -2.029230 0.028482
0.880272 -2.030738 0.027920
0.809795 -2.022948 -0.057528
0.913925 -2.042276 0.242108
0.874432 -2.046420 0.472831
0.797706 -2.017086 -0.044590
0.887382 -1.999985 -0.162928
0.834910 -2.040894 0.249579
0.804793 -2.049310 0.573355
0.901681 -2.038973 0.134030
0.866018 -2.041621 0.237783
0.824432 -2.030115 0.016539
0.821002 -2.025817 -0.071471
0.818384 -2.034224 0.033482
0.882424 -2.027703 0.020933
0.812029 -2.020865 -0.076515
0.815151 -2.041973 0.229435
0.878962 -2.046186 0.414849
0.773665 -2.032529 0.296194
0.841378 -2.036652 0.194627
0.836213 -2.022622 -0.094364
0.809300 -2.053109 0.524360
0.833848 -2.024858 -0.035388
0.768284 -2.033248 0.209151
0.871304 -2.052665 0.527773
0.837373 -2.051879 0.517549
0.831428 -2.027577 -0.116418
0.798473 -2.051120 0.504292
0.759242 -2.022758 0.058124
0.764603 -2.045277 0.479088
0.756450 -2.020660 0.026121
0.822488 -2.026177 0.027538
0.756054 -2.023345 -0.059895
0.858211 -2.044708 0.241711
0.818736 -2.046850 0.470446
0.752096 -2.047704 0.568003
0.745980 -2.020472 -0.045953
0.831600 -2.001422 -0.158318
0.778169 -2.038326 0.248201
0.840338 -2.024603 -0.092346
0.840921 -2.035443 0.134623
0.806255 -2.034069 0.234401
0.768667 -2.028540 0.017167
0.765202 -2.021239 -0.070832
0.762605 -2.029641 0.032121
0.823623 -2.022156 0.022551
0.756242 -2.018290 -0.074882
0.759391 -2.036388 0.226079
0.723990 -2.038903 0.293837
0.820246 -2.043636 0.412456
0.752553 -2.044532 0.519010
0.785644 -2.037082 0.195246
0.781458 -2.025043 -0.091745
0.779079 -2.025281 -0.032760
0.814590 -2.049095 0.523399
0.716598 -2.036627 0.204793
0.779671 -2.047307 0.511175
0.771575 -2.017034 -0.113782
0.742770 -2.046527 0.496935
0.707519 -2.025142 0.056771
0.710921 -2.043667 0.471735
0.704722 -2.022040 0.023763
0.768753 -2.028586 0.028158
0.930801 -2.611981 -0.087990
0.801487 -2.044139 0.240319
0.790661 -2.019892 -0.114671
0.698366 -2.040096 0.560667
0.913604 -2.597180 -0.069053
0.763044 -2.047276 0.468060
0.724430 -2.036732 0.246840
0.780912 -2.013814 -0.154715
0.783543 -2.023046 -0.087731
0.783136 -2.029884 0.135246
0.755571 -2.040453 0.233029
0.713882 -2.023949 0.016812
0.715516 -2.030607 -0.071206
0.706815 -2.023054 0.030768
0.771918 -2.029552 0.024168
0.711658 -2.040617 -0.076270
0.705692 -2.037783 0.222710
0.670247 -2.035302 0.291489
0.698855 -2.042932 0.514653
0.729875 -2.032504 0.194885
0.763568 -2.046071 0.411058
0.724625 -2.016470 -0.090097
0.724305 -2.023695 -0.031125
0.759900 -2.048505 0.519027
0.662869 -2.033012 0.199447
0.725986 -2.046705 0.505813
0.721891 -2.028409 -0.112162
0.689085 -2.044918 0.490579
0.864961 -2.605044 0.063572
0.656215 -2.037052 0.462395
0.863253 -2.604891 0.019560
0.713982 -2.025997 0.028799
0.745735 -2.040559 0.238954
0.646654 -2.036475 0.555337
0.737921 -2.025296 -0.111049
0.706310 -2.040696 0.463703
0.670674 -2.032129 0.244499
0.962791 -2.606325 -0.203822
0.734903 -2.040417 -0.085128
0.697792 -2.030877 0.229678
0.728411 -2.032303 0.136867
0.666208 -2.035306 0.017451
0.866349 -2.610917 0.030535
0.717157 -2.028967 0.025802
0.651932 -2.031171 0.218379
0.619510 -2.032672 0.288166
0.647142 -2.040313 0.510321
0.677143 -2.032899 0.194533
0.671852 -2.015864 -0.088444
0.705825 -2.040507 0.409693
0.669500 -2.018105 -0.029466
0.707220 -2.050904 0.516665
0.605031 -2.014422 0.194140
0.671264 -2.041104 0.500471
0.638420 -2.048290 0.486232
0.606562 -2.041411 0.457053
0.876522 -2.616842 0.028557
0.691991 -2.038962 0.238603
0.597983 -2.040840 0.553003
0.679045 -2.012744 -0.106389
0.653616 -2.042094 0.462351
0.619977 -2.036508 0.244151
0.647071 -2.032251 0.228340
0.671921 -2.013894 -0.080439
0.674676 -2.033710 0.138507
0.870467 -2.591888 0.027593
0.602259 -2.037532 0.216033
0.568776 -2.030037 0.284851
0.595430 -2.038698 0.507993
0.624407 -2.032289 0.194193
0.652473 -2.042300 0.511340
0.653148 -2.044906 0.409332
0.617543 -2.035491 0.495145
0.584686 -2.039668 0.478920
0.553872 -2.038783 0.450727
0.549029 -2.018837 -0.066240
0.547263 -2.035200 0.546702
0.637221 -2.033369 0.238269
0.536889 -2.006982 -0.051270
0.569227 -2.033878 0.242838
0.598866 -2.033490 0.458032
0.615750 -2.093507 0.232899
0.557165 -2.019759 -0.071192
0.618891 -2.027123 0.139174
0.548187 -2.015815 -0.073233
0.545735 -2.039059 0.504677
0.567314 -2.014631 -0.085108
0.599763 -2.039685 0.508014
0.569891 -2.042843 0.492814
0.598428 -2.042310 0.407993
0.533990 -2.038027 0.473608
0.503520 -2.019612 0.050477
0.560450 -2.012606 -0.104143
0.668606 -2.620434 0.565177
0.500764 -2.018485 0.012464
0.500578 -2.038542 0.544399
0.497240 -2.012197 -0.068535
0.594674 -2.060691 0.239892
0.490209 -2.016308 -0.052594
0.548172 -2.035868 0.457705
0.569799 -2.017406 -0.138104
0.506824 -2.016460 0.017512
0.506392 -2.017118 -0.071495
0.502847 -2.022519 0.025465
0.497375 -2.009178 -0.072519
0.496020 -2.037420 0.502378
0.550071 -2.041049 0.505699
0.458941 -2.021442 0.182203
0.516528 -2.011997 -0.083410
0.519173 -2.039203 0.488515
0.518273 -2.026214 -0.024454
0.646719 -2.629739 0.597982
0.455802 -2.022946 0.049175
0.543696 -2.037711 0.406670
0.511713 -2.016957 -0.102459
0.453033 -2.019814 0.010170
0.448510 -2.014534 -0.069839
0.505949 -2.020511 0.029495
0.439416 -2.009660 -0.053873
0.524733 -2.014885 -0.096369
0.497451 -2.033234 0.455405
0.459074 -2.017800 0.018219
0.516972 -2.010791 -0.134401
0.517642 -2.019037 -0.070428
0.456620 -2.015470 -0.070788
0.453102 -2.021866 0.024168
0.450688 -2.018503 -0.072835
0.423596 -2.029073 0.278966
0.450042 -2.028603 0.207128
0.507063 -2.020518 0.033505
0.501395 -2.045405 0.504386
0.470165 -2.027414 0.195258
0.622733 -2.610995 0.614888
0.467786 -2.015344 -0.081716
0.410244 -2.023776 0.178906
0.466456 -2.018585 -0.022735
0.406029 -2.018291 0.047900
0.460912 -2.012318 -0.100745
0.403281 -2.017153 0.007887
0.399748 -2.011863 -0.072115
0.457210 -2.021854 0.029199
0.392689 -2.012979 -0.055160
0.419997 -2.027946 0.239955
0.472922 -2.009258 -0.093657
0.444160 -2.029705 0.222096
0.468197 -2.012145 -0.130697
0.409319 -2.016147 0.017934
0.467868 -2.019399 -0.066726
0.407861 -2.014807 -0.071072
0.463649 -2.026264 0.145228
0.403320 -2.016208 0.022899
0.375887 -2.030404 0.276684
0.400909 -2.014846 -0.073112
0.401296 -2.024936 0.203858
0.457318 -2.021874 0.035205
0.421427 -2.027763 0.195971
0.361505 -2.020101 0.174640
0.419053 -2.018684 -0.081014
0.385878 -2.031053 0.458751
0.416693 -2.017938 -0.021023
0.358266 -2.015618 0.046636
0.355527 -2.014470 0.004624
0.412155 -2.013660 -0.099034
0.355089 -2.030143 0.426570
0.353019 -2.014174 -0.074391
0.408436 -2.019196 0.029925
0.434258 -2.026831 0.236056
0.344934 -2.011297 -0.057425
0.371244 -2.024285 0.238689
0.425190 -2.015601 -0.089960
0.396439 -2.031037 0.220815
0.361572 -2.016475 0.017660
0.418406 -2.010501 -0.126979
0.360130 -2.017128 -0.072353
0.418114 -2.021756 -0.063024
0.355574 -2.016536 0.022626
0.413890 -2.024621 0.146946
0.327129 -2.024737 0.274430
0.353158 -2.016175 -0.072388
0.352564 -2.023269 0.201587
0.350892 -2.035454 0.496536
0.408554 -2.021220 0.036926
0.314785 -2.020413 0.171376
0.371678 -2.025110 0.195697
0.370021 -2.028242 0.476682
0.370283 -2.018024 -0.079289
0.337161 -2.027385 0.454490
0.310529 -2.014936 0.044372
0.368971 -2.023272 -0.019316
0.307787 -2.013787 0.002360
0.307399 -2.030465 0.422302
0.364412 -2.016991 -0.097318
0.389484 -2.026824 0.405804
0.305250 -2.011492 -0.075646
0.360706 -2.021523 0.029646
0.387557 -2.033167 0.237764
0.298202 -2.013608 -0.058693
0.324528 -2.027615 0.239414
0.348295 -2.028300 0.452560
0.376430 -2.016944 -0.087241
0.347686 -2.027372 0.219555
0.314865 -2.022796 0.018375
0.369638 -2.011846 -0.123260
0.312363 -2.015449 -0.072611
0.368304 -2.016107 -0.060283
0.306779 -2.008863 0.021386
0.281390 -2.023046 0.272186
0.364143 -2.023973 0.148668
0.306410 -2.017489 -0.072652
0.305848 -2.024583 0.199323
0.302108 -2.022784 0.492316
0.359794 -2.020561 0.038655
0.355225 -2.037435 0.497573
0.324343 -2.032558 0.474411
0.323940 -2.025444 0.196431
0.267072 -2.020727 0.168115
0.321460 -2.010360 -0.077529
0.291483 -2.031698 0.452222
0.264800 -2.017240 0.043114
0.319158 -2.015616 -0.017561
0.260001 -2.007099 0.000128
0.259726 -2.032783 0.418034
0.315621 -2.013326 -0.095573
0.258524 -2.013795 -0.077908
0.339789 -2.029178 0.406519
0.310919 -2.015865 0.030395
0.339818 -2.032498 0.237502
0.250406 -2.006921 -0.059924
0.276791 -2.025939 0.238161
0.302614 -2.034626 0.453284
0.328667 -2.018275 -0.084510
0.300972 -2.029690 0.218290
0.267052 -2.014117 0.018152
0.321860 -2.012180 -0.119523
0.264583 -2.011766 -0.072854
0.320538 -2.017443 -0.056550
0.261065 -2.013165 0.020124
0.234668 -2.023362 0.270935
0.316396 -2.024307 0.150405
0.258100 -2.020900 0.197081
0.257606 -2.010817 -0.071887
0.312055 -2.022892 0.040385
0.305438 -2.023769 0.493356
0.277641 -2.033881 0.473154
0.220355 -2.021030 0.164867
0.276196 -2.024774 0.197177
0.274731 -2.014673 -0.076797
0.243781 -2.030014 0.447974
0.217029 -2.012554 0.041881
0.272373 -2.012936 -0.015801
0.214314 -2.013389 -0.003137
0.212013 -2.029092 0.412797
0.267835 -2.010650 -0.093817
0.210712 -2.004101 -0.080120
0.292103 -2.034518 0.408239
0.264196 -2.019177 0.030132
0.291055 -2.027832 0.237257
0.203653 -2.005220 -0.062161
0.230061 -2.026256 0.237913
0.254881 -2.031958 0.453041
0.252176 -2.019013 0.216074
0.279889 -2.016610 -0.081764
0.220306 -2.014427 0.017905
0.217816 -2.010073 -0.073092
0.273057 -2.007513 -0.116764
0.271731 -2.011778 -0.053787
0.187893 -2.015670 0.268723
0.214320 -2.013474 0.019879
0.212421 -2.028204 0.195813
0.210839 -2.009122 -0.072124
0.266639 -2.021651 0.152151
0.263253 -2.016225 0.042153
0.173594 -2.015329 0.161650
0.228450 -2.024103 0.198930
0.197052 -2.025319 0.443751
0.227980 -2.015983 -0.076046
0.171303 -2.014850 0.040638
0.225621 -2.014252 -0.014050
0.168560 -2.011680 -0.005364
0.164290 -2.024400 0.408572
0.220053 -2.007970 -0.092054
0.163969 -2.004399 -0.081359
0.217415 -2.015490 0.030904
0.244311 -2.027152 0.238015
0.243351 -2.029858 0.409003
0.183270 -2.017566 0.236709
0.156866 -1.999519 -0.063374
0.206123 -2.024289 0.451820
0.206488 -2.026323 0.216809
0.232077 -2.010935 -0.078989
0.173542 -2.012737 0.018675
0.171036 -2.006376 -0.073314
0.226294 -2.009833 -0.113015
0.143196 -2.020969 0.268478
0.224957 -2.012100 -0.050029
0.167575 -2.012775 0.018645
0.164645 -2.019509 0.192606
0.164053 -2.004425 -0.072341
0.218844 -2.014977 0.153932
0.216491 -2.015541 0.043916
0.127889 -2.017617 0.158414
0.181681 -2.019414 0.198712
0.181193 -2.012290 -0.075267
0.124502 -2.006150 0.039441
0.178877 -2.015560 -0.013291
0.120804 -2.007980 -0.007585
0.174285 -2.008272 -0.090286
0.117594 -2.024702 0.405339
0.120373 -2.024661 -0.085657
0.170665 -2.014794 0.030672
0.197591 -2.029468 0.238768
0.194626 -2.028193 0.409762
0.137570 -2.022872 0.237460
0.113317 -2.026784 -0.066699
0.159725 -2.020625 0.214598
0.186304 -2.011242 -0.076220
0.126749 -2.006038 0.018472
0.126370 -2.018656 -0.074583
0.097449 -2.017262 0.266270
0.178472 -2.003156 -0.109227
0.121775 -2.005066 0.017452
0.177182 -2.010420 -0.047261
0.118901 -2.017804 0.191389
0.120455 -2.026697 -0.073645
0.172124 -2.019297 0.156681
0.169753 -2.017853 0.045674
0.081153 -2.014908 0.155200
0.134963 -2.022729 0.200469
0.080918 -2.029424 0.038137
0.133401 -2.007602 -0.073482
0.131082 -2.009874 -0.011501
0.077226 -2.031244 -0.010889
0.129670 -2.028555 -0.090587
0.073542 -2.012952 -0.086833
0.124891 -2.012093 0.031461
0.150802 -2.020772 0.237573
0.146884 -2.025521 0.411538
0.091831 -2.022171 0.237243
0.065438 -2.008085 -0.066850
0.113999 -2.021923 0.214372
0.138485 -2.003558 -0.073421
0.083200 -2.035315 0.018144
0.080649 -2.022939 -0.075819
0.051720 -2.016555 0.265057
0.134889 -2.029435 -0.108546
0.077229 -2.033345 0.016124
0.131479 -2.019723 -0.044521
0.073171 -2.017092 0.189175
0.073621 -2.015996 -0.072823
0.124350 -2.014616 0.158470
0.123981 -2.016155 0.047460
0.035513 -2.027192 0.152936
0.089194 -2.019030 0.201266
0.033018 -2.004718 0.036016
0.089830 -2.034876 -0.073802
0.087503 -2.036154 -0.010817
0.081821 -2.016867 -0.087764
0.105088 -2.025078 0.239337
0.079217 -2.022382 0.031203
0.046066 -2.017466 0.237049
0.068274 -2.023218 0.214152
0.093902 -2.029845 -0.071741
0.035219 -2.001621 0.019062
0.006972 -2.013838 0.263865
0.088077 -2.024743 -0.104747
0.029253 -1.998641 0.015048
0.085760 -2.027022 -0.041766
0.028586 -2.039376 0.188877
0.077635 -2.019932 0.162246
0.077188 -2.009455 0.048286
-0.011165 -2.033478 0.150715
0.042472 -2.021338 0.203058
0.039558 -2.008462 -0.008905
0.059289 -2.015373 0.239183
0.032376 -2.008680 0.032063
0.000333 -2.017762 0.237858
0.023609 -2.034508 0.214918
-0.038759 -2.012124 0.262686
0.037855 -2.006336 -0.037881
-0.018184 -2.032667 0.187712
0.031877 -2.018230 0.164046
0.032573 -2.030746 0.050994
-0.003277 -2.019630 0.203861
0.013627 -2.026671 0.240931
-0.044453 -2.010044 0.237695
-0.023083 -2.039801 0.214689
-0.014898 -2.013534 0.166861
-0.105952 -1.996331 -0.020537
-0.031049 -2.037964 0.243688
-0.109572 -1.991036 -0.094530
-0.115599 -1.998157 -0.074586
-0.102523 -1.997050 -0.077499
-0.108530 -1.994102 -0.073511
-0.146948 -2.002795 0.030268
-0.094465 -1.995017 -0.069425
-0.151626 -2.005594 -0.022764
-0.100351 -1.996995 -0.082458
-0.154283 -1.995285 -0.097730
-0.161365 -1.993417 -0.076750
-0.089365 -1.999004 -0.061393
-0.144756 -2.002714 0.018307
-0.147300 -1.993312 -0.077663
-0.150693 -2.000714 0.010292
-0.096134 -2.003910 -0.092442
-0.098448 -2.004196 -0.029452
-0.153287 -1.993365 -0.073687
-0.192701 -2.000060 0.029099
-0.194216 -2.008552 0.140057
-0.140151 -2.005290 -0.068654
-0.141472 -2.007584 -0.002668
-0.197397 -1.998848 -0.025914
-0.146033 -2.008267 -0.081691
-0.200026 -1.994541 -0.099907
-0.148599 -2.009778 0.032294
-0.207088 -1.995673 -0.078938
-0.135125 -1.999285 -0.058577
-0.190520 -1.998982 0.018144
-0.217695 -2.009214 0.259966
-0.193040 -1.993573 -0.078843
-0.195446 -1.998971 0.009125
-0.141891 -2.005189 -0.089630
-0.199257 -2.006741 0.180078
-0.143225 -2.002472 -0.026623
-0.199021 -1.994625 -0.074871
-0.149594 -2.005872 0.056339
-0.184291 -2.012767 0.210145
-0.238994 -1.999802 0.136925
-0.238448 -1.998322 0.027932
-0.183994 -1.992547 -0.067768
-0.187244 -2.003855 -0.001830
-0.243124 -2.000103 -0.028094
-0.190834 -2.001530 -0.080835
-0.193376 -2.005040 0.032142
-0.245777 -1.991789 -0.103068
-0.224395 -2.010152 0.239968
-0.252819 -1.996926 -0.081117
-0.203202 -2.010887 0.212081
-0.179916 -1.994552 -0.056729
-0.262445 -2.005475 0.258814
-0.236272 -1.998251 0.018974
-0.238793 -1.991830 -0.080008
-0.185720 -1.996454 -0.086760
-0.242177 -1.999237 0.007947
-0.244982 -2.007005 0.178904
-0.189001 -1.999750 -0.023786
-0.244773 -1.993886 -0.075039
-0.194354 -2.005142 0.058170
-0.197883 -2.014692 0.178116
-0.231025 -2.013052 0.211967
-0.284184 -1.997575 0.025767
-0.229745 -1.991808 -0.067936
-0.286677 -2.005071 0.134725
-0.232990 -2.005128 -0.000008
-0.210154 -2.014060 0.245074
-0.289861 -1.998356 -0.031258
-0.236605 -1.998795 -0.079994
-0.291510 -1.993038 -0.105241
-0.239127 -2.004308 0.032974
-0.270116 -2.012426 0.240788
-0.298564 -1.996175 -0.083280
-0.248906 -2.016161 0.212887
-0.225658 -1.997827 -0.053915
-0.309148 -2.009754 0.259625
-0.281990 -2.002513 0.018787
-0.284524 -1.994083 -0.081185
-0.231476 -1.997727 -0.083936
-0.287943 -1.994493 0.006802
-0.290704 -2.008267 0.177732
-0.234754 -2.001025 -0.020962
-0.290516 -1.994139 -0.076206
-0.239126 -2.002409 0.060017
-0.243660 -2.009973 0.180968
-0.276758 -2.015332 0.214789
-0.330916 -1.997835 0.024600
-0.276450 -1.999076 -0.067139
-0.333403 -2.004330 0.132562
-0.278751 -2.003392 0.000834
-0.254903 -2.013331 0.246913
-0.336586 -1.999609 -0.033429
-0.283341 -2.001062 -0.079173
-0.338241 -1.993284 -0.108407
-0.315891 -2.004692 0.240660
-0.285863 -2.004575 0.032803
-0.344327 -1.992420 -0.085423
-0.294655 -2.013427 0.212734
-0.352934 -2.001002 0.258512
-0.271426 -1.996093 -0.052072
-0.328728 -2.002776 0.018621
-0.331240 -1.998339 -0.082369
-0.277252 -1.994992 -0.082088
-0.334637 -2.001751 0.005605
-0.280507 -2.002296 -0.018132
-0.337443 -2.005531 0.176580
-0.338204 -2.002400 -0.077412
-0.284875 -2.002678 0.061852
-0.289418 -2.008250 0.183812
-0.322523 -2.010600 0.215650
-0.377622 -2.003092 0.023414
-0.322210 -1.997331 -0.067291
-0.299665 -2.009595 0.247771
-0.380125 -2.004585 0.130401
-0.324516 -2.001657 0.002682
-0.382342 -1.995848 -0.036568
-0.329107 -1.999320 -0.078324
-0.331601 -2.005831 0.032638
-0.361641 -2.002964 0.242510
-0.384989 -1.991531 -0.110557
-0.340376 -2.015689 0.212565
-0.392047 -1.994673 -0.087596
-0.317182 -1.996356 -0.050232
-0.374479 -2.002031 0.018468
-0.377003 -1.995585 -0.083511
-0.323976 -2.001264 -0.079279
-0.381373 -2.001001 0.003450
-0.383179 -2.004785 0.175429
-0.326290 -1.998564 -0.015273
-0.383978 -1.998650 -0.077549
-0.331603 -2.005950 0.063676
-0.335187 -2.005528 0.187667
-0.369275 -2.008879 0.218499
-0.423381 -1.999335 0.021281
-0.345415 -2.007866 0.249623
-0.368965 -1.996591 -0.066445
-0.426866 -2.001837 0.128259
-0.371256 -2.002920 0.003518
-0.429072 -1.997095 -0.038728
-0.374853 -2.001575 -0.077489
-0.407383 -2.002227 0.243362
-0.378339 -2.007095 0.033475
-0.430746 -1.988763 -0.113694
-0.386143 -2.009948 0.212438
-0.438802 -1.990911 -0.090730
-0.363919 -1.999622 -0.048404
-0.420263 -1.995281 0.018350
-0.423752 -1.994833 -0.084660
-0.369743 -2.000522 -0.077428
-0.426138 -1.998241 0.002317
-0.429911 -2.005046 0.175275
-0.373008 -2.005835 -0.012463
-0.429759 -1.992892 -0.078670
-0.377367 -2.003208 0.064537
-0.381935 -2.004805 0.190516
-0.415035 -2.006145 0.220363
-0.391150 -2.009134 0.251466
-0.415701 -1.998844 -0.066608
-0.470166 -1.990583 0.020175
-0.474587 -2.003095 0.127101
-0.418982 -2.007191 0.005342
-0.421616 -1.999831 -0.076632
-0.474877 -1.985330 -0.040815
-0.424113 -2.002345 0.033350
-0.589053 -2.503541 -0.155720
-0.432883 -2.009213 0.213291
-0.605907 -2.542768 -0.127969
-0.408716 -1.993873 -0.046521
-0.466995 -1.997534 0.018192
-0.468559 -1.985066 -0.085753
-0.416526 -1.996787 -0.074560
-0.473883 -1.996493 0.001176
-0.417830 -1.996091 -0.009560
-0.477624 -2.007305 0.174114
-0.423115 -2.004467 0.066384
-0.591000 -2.528737 -0.109810
-0.430647 -2.011099 0.195330
-0.462758 -2.009424 0.223197
-0.650305 -2.563670 0.015775
-0.461486 -1.994092 -0.065728
-0.463789 -1.998435 0.006245
-0.523306 -2.003352 0.124959
-0.467416 -1.992079 -0.075728
-0.616066 -2.380099 -0.059204
-0.470860 -2.001598 0.033216
-0.528170 -1.995254 -0.120020
-0.479613 -2.009472 0.213152
-0.533294 -1.988394 -0.095002
-0.455474 -1.993132 -0.044657
-0.643258 -2.551599 0.014901
-0.518241 -1.993322 -0.087940
-0.462310 -1.993045 -0.071678
-0.651115 -2.552536 -0.008133
-0.525347 -2.008567 0.173966
-0.464589 -1.995356 -0.006696
-0.468892 -1.999725 0.068270
-0.525220 -1.996391 -0.080977
-0.477410 -2.008375 0.199202
-0.510188 -2.000353 -0.065905
-0.567587 -1.998097 0.017845
-0.639046 -2.553481 0.000943
-0.580838 -2.033669 0.124627
-0.514180 -1.989330 -0.074863
-0.515654 -1.993841 0.034112
-0.574256 -1.996832 -0.047170
-0.623788 -2.532071 -0.062865
-0.563468 -1.997050 0.017903
-0.508089 -1.989294 -0.069804
-0.570329 -1.999999 -0.001133
-0.639852 -2.550388 -0.014012
-0.515638 -1.999985 0.070122
-0.555989 -1.990590 -0.065997
-0.561244 -2.002969 0.008926
-0.621747 -2.002866 0.121658
-0.564852 -2.000597 -0.075075
-0.563399 -1.992094 0.033975
-0.549968 -1.994649 -0.040958
-0.557784 -1.998565 -0.068002
-0.560084 -1.996889 -0.000999
-0.706977 -2.561208 0.083699
-0.673416 -1.984957 -0.129404
-0.678528 -1.980103 -0.103393
-0.611132 -1.999507 0.073838
-0.712846 -1.984825 0.012488
-0.721487 -1.987549 -0.055552
-0.722178 -1.979185 -0.132510
-0.730238 -1.982350 -0.106549
-0.707736 -1.987795 0.017531
-0.710265 -1.980280 -0.093437
-0.715589 -1.988727 -0.005495
-0.718241 -1.984360 -0.085481
-0.702227 -1.989342 -0.065412
-0.762594 -1.982071 0.011367
-0.709147 -1.991339 -0.073441
-0.771243 -1.981782 -0.058656
-0.772908 -1.978418 -0.136644
-0.694251 -1.989414 -0.035344
-0.779985 -1.979582 -0.109668
-0.755515 -1.981035 0.017438
-0.701107 -1.988325 -0.061357
-0.704372 -1.992672 0.007612
-0.762965 -1.985535 -0.095608
-0.764352 -1.983966 -0.006602
-0.766031 -1.976595 -0.085568
-0.752965 -1.989595 -0.065550
-0.752331 -1.985973 0.014473
-0.811358 -1.976304 0.009269
-0.757914 -1.987581 -0.073552
-0.759368 -1.989106 0.034438
-0.823959 -1.983030 -0.061802
-0.825624 -1.979658 -0.140789
-0.743023 -1.985667 -0.033454
-0.834675 -1.984834 -0.113840
-0.811182 -1.992318 0.017230
-0.748898 -1.982575 -0.058453
-0.751186 -1.981917 0.010545
-0.807805 -1.968745 -0.096634
-0.754439 -1.987262 0.078509
-0.818048 -1.989226 -0.008771
-0.819734 -1.980851 -0.087731
-0.799765 -1.980823 -0.065624
-0.801115 -1.978219 0.015388
-0.869017 -1.986585 0.007065
-0.805709 -1.979818 -0.072634
-0.808136 -1.984348 0.034337
-0.878667 -1.985285 -0.064953
-0.789832 -1.975904 -0.031522
-0.884454 -1.976057 -0.116917
-0.862932 -1.989574 0.017114
-0.800630 -1.985841 -0.056604
-0.804892 -1.989202 0.013368
-0.806161 -1.991533 0.080353
-0.865461 -1.980016 -0.099841
-0.866830 -1.981459 -0.009851
-0.872457 -1.983100 -0.089876
-0.848560 -1.971057 -0.065692
-0.858766 -1.994520 0.017153
-0.921763 -1.983838 0.005950
-0.863816 -1.993627 0.034146
-0.862387 -1.990099 -0.072832
-0.843536 -1.983175 -0.030696
-0.915674 -1.988832 0.016988
-0.850405 -1.982091 -0.054707
-0.854664 -1.986460 0.016259
-0.855929 -1.987788 0.082250
-0.923527 -1.986733 -0.011019
-0.906572 -1.984754 0.018092
-0.904250 -1.979325 -0.066873
-0.912608 -1.984862 0.034077
-0.910197 -1.979324 -0.072888
-0.894304 -1.980429 -0.028803
-0.903150 -1.983356 -0.052841
-0.907410 -1.987731 0.019126
