# .PCD v0.7 - Point Cloud Data file format
VERSION 0.7
FIELDS x y z
SIZE 4 4 4
TYPE F F F
COUNT 1 1 1
WIDTH 38
HEIGHT 1
VIEWPOINT 0 0 0 1
POINTS 38
DATA ascii
1.800963 1.211744 1.074265
3.304070 2.157792 2.030628
1.649553 1.138472 1.132427
1.808346 1.156204 1.062237
1.736437 1.170455 1.083445
3.698231 2.290358 2.230733
2.395960 1.570061 1.595691
2.965031 1.818415 1.199532
3.520724 2.129439 1.990678
1.755929 1.125800 1.081413
1.687959 1.135062 1.089597
2.362625 1.420277 0.889348
2.384365 1.385375 0.958324
2.280224 1.392049 0.907592
3.410809 2.069698 2.025069
2.830022 1.719827 1.245825
1.739608 1.113199 1.107576
3.070775 1.745625 1.127508
2.327779 1.470241 1.124894
1.644423 1.094700 1.094741
2.230879 1.377669 0.922816
2.392679 1.313125 0.948263
3.021439 1.747306 1.174858
2.266694 1.308436 0.993523
3.398166 2.061420 2.090453
2.508595 1.350153 0.917274
2.152624 1.293787 1.029737
2.301314 1.446779 1.196140
2.183448 1.356366 0.937041
2.996101 1.755920 1.211187
2.420273 1.326871 0.938517
2.059108 1.234554 1.060896
2.993671 1.765573 1.257543
2.359986 1.312462 0.954742
2.946443 1.625715 0.832067
3.368301 1.922168 1.062758
3.014972 1.689364 1.255471
3.404580 1.846088 1.060686
