# .PCD v0.7 - Point Cloud Data file format
VERSION 0.7
FIELDS x y z
SIZE 4 4 4
TYPE F F F
COUNT 1 1 1
WIDTH 60
HEIGHT 1
VIEWPOINT 0 0 0 1
POINTS 60
DATA ascii
1.734148 -2.429960 -0.202980
1.774227 -2.439574 -0.176871
1.769670 -2.432374 -0.266806
1.730699 -2.512390 -0.300871
1.103961 -2.009319 -0.082938
1.103813 -2.017655 -0.056034
1.120403 -2.007033 -0.110771
1.117373 -2.011111 -0.101825
1.101250 -2.112110 -0.011146
1.069077 -2.053861 -0.085543
1.079756 -2.082292 -0.058850
1.123475 -2.102525 0.010126
1.154107 -2.054191 -0.036125
1.059890 -2.009386 -0.109941
1.063763 -2.023528 -0.101097
1.095871 -2.089881 -0.017794
1.043050 -2.116461 -0.090342
1.073222 -2.175701 -0.014965
1.050762 -2.140879 -0.062610
1.106610 -2.040501 -0.051080
1.039947 -1.936747 -0.140028
1.028119 -1.923571 -0.144902
1.097414 -2.167185 0.010300
1.099486 -2.069597 -0.035437
1.031906 -2.065997 -0.112671
1.033794 -2.079132 -0.102821
1.071788 -2.158535 -0.019662
1.089666 -1.992419 -0.116458
1.013061 -2.175044 -0.094107
1.037309 -2.225244 -0.017640
1.018795 -2.196457 -0.065346
1.079583 -2.102154 -0.050869
1.091210 -2.037208 -0.052974
1.027751 -2.018484 -0.144013
1.017884 -2.011322 -0.148952
1.071472 -2.130231 -0.036219
1.010697 -2.150788 -0.105722
1.040789 -2.219133 -0.021456
0.967339 -1.882574 -0.167455
1.052791 -2.037999 -0.115078
0.942763 -1.849093 -0.187119
1.420396 -3.149855 -0.147771
1.052529 -2.168810 -0.050722
1.064182 -2.100862 -0.052787
1.004673 -2.089139 -0.146899
1.000721 -2.092017 -0.152942
1.040460 -2.193851 -0.036047
1.445693 -3.174756 -0.163901
0.952198 -1.959303 -0.170386
1.026752 -2.102668 -0.114901
0.915816 -1.901751 -0.187791
1.322224 -3.122856 -0.148732
1.039092 -2.172550 -0.051695
1.317184 -3.068389 -0.173982
1.005596 -2.184366 -0.115920
0.906555 -1.996507 -0.192925
1.387478 -3.122870 -0.169198
1.223958 -2.988944 -0.208132
1.217029 -2.989797 -0.214160
1.245041 -3.001700 -0.156104
