# .PCD v0.7 - Point Cloud Data file format
VERSION 0.7
FIELDS x y z
SIZE 4 4 4
TYPE F F F
COUNT 1 1 1
WIDTH 579
HEIGHT 1
VIEWPOINT 0 0 0 1
POINTS 579
DATA ascii
-1.540956 2.250071 1.465502
-1.537338 2.259877 1.450758
-1.530565 2.261693 1.431104
-1.509312 2.341513 1.463196
-1.573320 2.835992 1.518745
-3.049219 5.670623 1.233671
-1.530357 2.902038 1.538694
-1.484278 2.966102 1.556762
-1.435110 3.028198 1.573947
-1.480767 3.194240 1.570870
-1.391539 3.108307 1.600746
-1.427929 3.268476 1.594040
-1.342673 3.179447 1.623814
-1.379745 3.362741 1.628899
-1.400779 3.715047 1.694013
-1.250754 4.448384 -0.156846
-0.158628 4.143193 0.206569
-0.220409 4.227853 0.096055
-0.174195 4.189376 0.159740
-0.137509 4.144555 0.208238
-0.121085 4.193526 0.100637
-0.057938 4.157787 0.203647
-0.077096 4.170973 0.162068
-0.041774 4.150096 0.208250
-0.023021 4.174155 0.104979
0.007431 4.074652 0.281879
0.040200 4.145315 0.200901
0.020013 4.153537 0.163348
0.054431 4.131599 0.206505
0.105289 4.075179 0.281952
0.136227 4.083758 0.196592
0.116181 4.131074 0.165618
0.150541 4.117090 0.205676
0.202838 4.091692 0.282801
0.233745 4.102271 0.196411
0.245015 4.082520 0.203979
0.252328 4.022036 0.345346
0.717783 2.567811 2.283269
0.655726 2.332265 2.239082
0.572041 2.060467 2.197701
0.713024 2.519493 2.282740
0.631517 2.208468 2.226821
0.706713 2.501192 2.280874
0.629128 2.128264 2.218526
0.823831 2.700231 2.413749
0.559380 2.022876 2.199987
0.708276 2.483071 2.283170
1.141989 3.558898 2.483164
0.574430 1.966038 2.197847
0.720141 2.340974 2.260719
0.607536 2.059748 2.217750
0.627456 2.068042 2.217120
0.534498 1.884057 2.166721
0.507312 1.828643 2.170627
0.776443 2.524214 2.305384
0.618144 2.107745 2.211619
0.588928 2.010161 2.203864
0.862217 2.854027 2.360408
0.689937 2.214097 2.248326
0.767502 2.493788 2.296569
0.577825 1.968853 2.204056
0.685488 2.135871 2.239951
0.604151 2.013246 2.212294
0.769114 2.471668 2.300903
0.625825 1.970570 2.219178
0.582670 1.890623 2.194954
0.548071 1.818951 2.182832
0.838169 2.519823 2.321048
0.669694 2.106253 2.230008
0.638477 2.007643 2.223214
0.831936 2.495519 2.322239
0.625533 1.960274 2.221418
0.794510 2.283632 2.408315
0.650689 2.009692 2.230567
0.837960 2.487618 2.343540
0.588851 1.808247 2.195029
3.097357 1.906167 3.061405
2.878455 1.623460 2.947794
2.979176 1.584150 3.006190
2.953032 1.552428 3.009783
2.973098 1.489046 2.962159
2.941842 1.460308 2.966674
2.883493 1.348441 2.879927
2.663948 1.146633 2.814175
2.706227 1.136782 2.846636
2.791826 1.096289 2.906692
2.652782 0.996966 2.802967
2.809737 1.051206 2.907964
2.856492 1.103819 2.965390
2.775341 1.015178 2.863413
2.751180 0.957638 2.879141
2.753922 0.956490 2.827169
2.775060 0.999738 2.863280
2.994493 -1.867110 0.627571
3.041100 -1.926815 0.631482
3.005340 -1.877280 0.677393
2.978129 -1.869834 0.716926
2.977878 -1.859965 0.747898
2.711254 -1.782977 0.581346
2.884450 -1.885226 1.174073
2.854876 -1.893333 1.118857
2.927159 -1.890069 1.233255
2.680931 -1.764466 0.616048
2.758889 -1.846684 0.587254
2.828508 -1.879443 0.700515
2.702949 -1.785559 0.660883
2.733843 -1.794408 0.694005
2.930431 -1.944012 0.820757
2.881639 -1.979521 1.157338
2.940757 -1.938266 0.922799
2.841289 -1.882192 1.236325
2.457018 -1.703533 0.539447
2.641618 -1.816641 1.094195
2.696435 -1.797111 0.455581
2.581879 -1.803001 1.032856
2.800781 -1.899553 1.195864
2.879180 -1.989061 1.264057
2.581712 -1.750857 0.346942
2.457832 -1.701728 0.576331
2.515709 -1.776154 0.549386
3.035956 -2.150680 1.871395
2.585371 -1.807890 0.654666
2.467818 -1.713899 0.613140
2.513813 -1.733612 0.646322
2.642153 -1.843822 0.756724
2.870913 -2.007754 1.366581
2.730848 -1.888410 0.874109
2.638611 -1.835231 1.162683
2.255922 -1.646590 0.507902
2.467162 -1.726414 0.426899
2.335247 -1.636124 0.278387
2.432805 -1.758729 1.025580
2.365988 -1.738153 0.966223
2.498672 -1.781367 1.085861
2.633313 -1.913478 1.180213
2.374496 -1.692975 0.327363
2.255761 -1.643776 0.539795
2.292526 -1.706407 0.513729
2.708179 -2.021686 1.707175
2.361218 -1.737136 0.613017
2.267759 -1.654904 0.572647
2.172153 -1.583608 0.233313
2.286635 -1.655831 0.596735
2.432087 -1.780925 0.712158
2.479652 -1.797832 0.810386
2.406734 -1.758451 1.076031
2.382732 -1.818431 1.001654
2.048109 -1.542646 0.187588
2.282044 -1.676308 0.404485
2.075847 -1.593427 0.478548
2.146023 -1.578032 0.259012
2.227877 -1.690732 0.958107
2.167052 -1.673119 0.904777
2.309884 -1.729244 1.020416
2.091372 -1.590430 0.222592
2.182271 -1.634933 0.309947
2.407422 -1.840692 1.103561
2.082733 -1.594537 0.508486
1.928128 -1.508706 0.147798
2.102399 -1.647337 0.484325
2.164097 -1.673108 0.575594
2.094727 -1.603644 0.538368
2.009012 -1.538285 0.220085
2.122671 -1.611487 0.561488
2.289640 -1.739725 0.764995
2.225970 -1.711964 0.667700
2.420223 -1.864133 1.200290
2.219897 -1.700266 1.007674
2.185816 -1.755385 0.941211
2.108899 -1.624064 0.383220
1.891956 -1.498263 0.178418
1.991935 -1.536610 0.242846
2.057020 -1.638427 0.901849
1.921834 -1.551021 0.455371
2.009211 -1.628722 0.857573
2.120996 -1.666070 0.953083
1.935219 -1.546050 0.213420
2.018132 -1.587617 0.294727
2.202484 -1.768675 1.033128
1.927725 -1.550122 0.481325
1.851462 -1.515548 0.130962
1.786992 -1.469183 0.142735
1.997061 -1.622806 0.545361
1.931295 -1.592071 0.457091
1.938733 -1.558221 0.507216
2.123674 -1.690387 0.724774
1.858882 -1.493821 0.206989
1.968705 -1.568038 0.528343
2.056940 -1.658655 0.631483
2.224342 -1.797022 1.127918
2.046050 -1.643947 0.943442
1.958828 -1.581602 0.365107
1.749804 -1.454732 0.170392
1.841799 -1.490133 0.227775
1.869525 -1.511534 0.133848
2.005898 -1.696173 0.886919
1.906184 -1.593942 0.853731
1.771759 -1.501545 0.431309
1.958140 -1.613661 0.895924
1.859334 -1.582229 0.812479
1.792086 -1.503532 0.204371
1.865977 -1.539168 0.280648
2.026578 -1.708396 0.973896
1.786705 -1.506555 0.456307
1.853198 -1.534469 0.060549
1.713304 -1.473989 0.126953
1.844023 -1.573350 0.516273
1.653876 -1.430577 0.137755
1.791297 -1.552520 0.436040
1.962641 -1.634973 0.685670
1.825711 -1.523464 0.497327
1.800748 -1.517623 0.481210
1.724780 -1.454203 0.197018
2.051462 -1.736689 1.063727
1.903931 -1.610193 0.599392
1.893194 -1.593426 0.887377
2.075142 -1.752897 1.155727
1.811686 -1.531078 0.346107
1.718757 -1.456401 0.215866
1.749467 -1.481793 0.128930
1.626744 -1.421021 0.163476
1.762306 -1.546364 0.806723
1.844967 -1.639757 0.836806
1.826338 -1.576988 0.851942
1.656850 -1.474763 0.414403
1.715408 -1.531652 0.768493
1.729868 -1.496566 0.268685
1.660968 -1.462890 0.196437
1.870698 -1.655933 0.921805
1.661744 -1.470841 0.434388
1.656551 -1.440405 0.058462
1.638387 -1.414535 0.048448
1.589197 -1.437289 0.123052
1.711030 -1.532714 0.493315
1.824693 -1.592359 0.652688
1.541831 -1.400765 0.133915
1.695722 -1.481761 0.469423
1.672758 -1.476909 0.455314
1.646201 -1.500988 0.414059
1.605723 -1.419433 0.187162
1.894586 -1.681204 1.005664
1.759904 -1.560628 0.568413
1.764372 -1.554702 0.842452
1.937357 -1.711260 1.102730
1.685634 -1.492370 0.331217
1.594651 -1.414654 0.203029
1.625341 -1.443070 0.123064
1.520726 -1.393140 0.157685
1.635424 -1.503621 0.765850
1.682410 -1.522363 0.801014
1.704054 -1.591161 0.794835
1.538849 -1.436974 0.395576
1.594547 -1.493877 0.732632
1.609794 -1.458802 0.257847
1.547915 -1.430073 0.189619
1.540729 -1.430070 0.413564
1.731822 -1.608300 0.874851
1.545453 -1.408571 0.057663
1.531314 -1.384651 0.045676
1.701747 -1.553596 0.623828
1.475094 -1.401486 0.120252
1.584804 -1.450893 0.446617
1.585028 -1.490994 0.470448
1.441816 -1.374834 0.131167
1.558811 -1.443072 0.433503
1.507759 -1.396467 0.179414
1.759732 -1.635529 0.957740
1.635924 -1.519878 0.542561
1.531244 -1.468188 0.397218
1.639533 -1.513922 0.797596
1.792474 -1.655628 1.043802
1.457323 -1.359261 0.017252
1.574615 -1.458509 0.317439
1.496702 -1.391682 0.193286
1.512222 -1.406240 0.119298
1.398357 -1.339673 -0.015035
1.423737 -1.368167 0.151966
1.569564 -1.486485 0.763232
1.524593 -1.469738 0.730066
1.432865 -1.403071 0.379842
1.500753 -1.424930 0.248091
1.489723 -1.463957 0.701869
1.575171 -1.547451 0.755952
1.444897 -1.401160 0.183875
1.446510 -1.366412 0.010019
1.441813 -1.403102 0.396841
1.444384 -1.379635 0.056944
1.606952 -1.565541 0.834003
1.437295 -1.360639 0.042985
1.385495 -1.354920 -0.001295
1.579753 -1.508799 0.594044
1.473820 -1.413002 0.423885
1.374048 -1.371554 0.117537
1.456877 -1.413120 0.414784
1.481097 -1.461076 0.452700
1.409742 -1.367486 0.171728
1.347815 -1.349840 0.128479
1.633869 -1.590755 0.911909
1.526981 -1.485992 0.520804
1.401879 -1.361582 -0.056309
1.523652 -1.472039 0.755848
1.666622 -1.609838 0.993982
1.423270 -1.434309 0.381466
1.370341 -1.340191 0.016587
1.473635 -1.429559 0.305723
1.400694 -1.362669 0.183624
1.423243 -1.385185 0.115631
1.311319 -1.316605 -0.012664
1.332732 -1.342128 0.147322
1.475801 -1.464462 0.733519
1.423743 -1.437761 0.699371
1.334906 -1.372090 0.365170
1.407803 -1.401918 0.240401
1.387851 -1.429990 0.672180
1.456256 -1.503637 0.721180
1.358492 -1.344347 0.010376
1.351916 -1.376146 0.178202
1.343513 -1.331370 -0.014651
1.350327 -1.351625 0.056294
1.347893 -1.376081 0.381177
1.341230 -1.330635 0.040338
1.487056 -1.520717 0.794235
1.254388 -1.300034 -0.040983
1.475819 -1.473838 0.568354
1.297467 -1.331865 0.001067
1.383934 -1.388928 0.405239
1.361951 -1.384090 0.396133
1.383165 -1.431088 0.435022
1.321767 -1.343410 0.165103
1.514967 -1.543895 0.868175
1.300604 -1.321691 -0.037915
1.556794 -1.571910 0.951257
1.289096 -1.352478 0.115890
1.423017 -1.450042 0.499124
1.254761 -1.318820 0.125864
1.423851 -1.442032 0.720156
1.329325 -1.406297 0.368809
1.285319 -1.317095 0.016985
1.388729 -1.410463 0.296080
1.231581 -1.304235 -0.056238
1.327167 -1.352174 0.111013
1.315758 -1.341559 0.175005
1.232339 -1.298458 -0.011253
1.330894 -1.407701 0.670747
1.370915 -1.425483 0.697862
1.247750 -1.318029 0.142728
1.171535 -1.253459 -0.127360
1.171593 -1.255431 -0.134377
1.320840 -1.377835 0.232787
1.252018 -1.350977 0.353565
1.297010 -1.401928 0.646556
1.276475 -1.322217 0.010798
1.258469 -1.306264 -0.014229
1.261252 -1.310479 0.037763
1.261904 -1.348096 0.173594
1.269349 -1.332500 0.056698
1.349365 -1.464707 0.689494
1.262990 -1.351969 0.366582
1.381177 -1.481766 0.759561
1.387935 -1.448747 0.548738
1.174369 -1.278903 -0.036552
1.207361 -1.299813 0.003501
1.297023 -1.362815 0.387649
1.274019 -1.355989 0.379550
1.453941 -1.533908 0.911609
1.411108 -1.505911 0.830517
1.236788 -1.318299 0.158526
1.289209 -1.399052 0.418410
1.334722 -1.453452 1.023390
1.221594 -1.301537 -0.035479
1.338159 -1.428937 0.482502
1.326982 -1.406977 0.686549
1.208561 -1.289593 -0.048494
1.178811 -1.299641 0.123315
1.205101 -1.328378 0.114307
1.297711 -1.378395 0.285506
1.200263 -1.288983 0.016438
1.175698 -1.283733 -0.082658
1.162594 -1.269831 -0.085657
1.238383 -1.377244 0.355200
1.250214 -1.333999 0.108451
1.233787 -1.317412 0.167451
1.154567 -1.284071 -0.051785
1.285967 -1.443777 0.979093
1.285097 -1.399350 0.669280
1.252116 -1.388531 0.647167
1.151297 -1.273323 -0.008789
1.173812 -1.299826 0.139195
1.237875 -1.353711 0.226220
1.216178 -1.377770 0.624002
1.170088 -1.324834 0.341023
1.195453 -1.298069 0.010257
1.187276 -1.291264 0.036244
1.182472 -1.286071 -0.013757
1.189332 -1.308348 0.056164
1.187107 -1.331771 0.354047
1.177892 -1.319978 0.169054
1.301041 -1.421639 0.529158
1.293361 -1.454668 0.732972
1.306878 -1.447963 1.032074
1.261559 -1.439626 0.665886
1.110456 -1.268614 -0.033047
1.213104 -1.334658 0.370127
1.135399 -1.282595 0.005996
1.364141 -1.504800 0.878030
1.197153 -1.335793 0.366027
1.317266 -1.472843 0.798940
1.257029 -1.433253 0.988849
1.164879 -1.301062 0.153027
1.205293 -1.371918 0.403879
1.249225 -1.397839 0.464962
1.143565 -1.277361 -0.032969
1.248200 -1.385776 0.660017
1.135585 -1.271374 -0.045988
1.216757 -1.352224 0.275006
1.105876 -1.280424 0.120827
1.125116 -1.303223 0.111804
1.284915 -1.437268 1.030922
1.134368 -1.277698 0.015953
1.163890 -1.301148 0.160975
1.168195 -1.305845 0.104969
1.154457 -1.350119 0.343682
1.288565 -1.512332 1.038533
1.088650 -1.272802 -0.047267
1.205212 -1.417587 0.944595
1.205277 -1.375157 0.644784
1.168250 -1.358365 0.621686
1.091426 -1.265987 -0.007242
1.098876 -1.278615 0.134726
1.159925 -1.329518 0.218752
1.138333 -1.352565 0.602538
1.121458 -1.275846 0.010817
1.101243 -1.309579 0.332561
1.106239 -1.262098 0.034804
1.219129 -1.393460 0.510694
1.109171 -1.304567 0.341611
1.116368 -1.288121 0.055717
1.101927 -1.295773 0.164612
1.236202 -1.434712 1.001570
1.207520 -1.426534 0.706459
1.178723 -1.414480 0.643374
1.269232 -1.463680 0.839550
1.141233 -1.315396 0.355675
1.069465 -1.268313 0.007555
1.126284 -1.317533 0.353574
1.236444 -1.447654 0.771449
1.176266 -1.406043 0.951376
1.174332 -1.375613 0.450503
1.094957 -1.282798 0.147586
1.081652 -1.267042 -0.030406
1.170387 -1.362551 0.633544
1.047395 -1.229273 -0.042382
1.128399 -1.349728 0.392403
1.144842 -1.332983 0.267554
1.050060 -1.277063 0.120382
1.217279 -1.427994 1.000414
1.066282 -1.297888 0.111348
1.074481 -1.268350 0.015526
1.095981 -1.283854 0.153545
1.095206 -1.282610 0.102546
1.130451 -1.394344 0.913142
1.082574 -1.330884 0.334227
1.200796 -1.482204 1.001017
1.130449 -1.351906 0.620338
1.096426 -1.337100 0.600249
1.042029 -1.271247 0.132308
1.094013 -1.313226 0.214329
1.063575 -1.267477 0.010402
1.068504 -1.332294 0.584110
1.146256 -1.372214 0.495250
1.039406 -1.297252 0.324139
1.052445 -1.273811 0.055299
1.040284 -1.284285 0.330197
1.154429 -1.404482 0.960120
1.050162 -1.297378 0.163163
1.194416 -1.440432 0.813102
1.132700 -1.404303 0.684001
1.077393 -1.301064 0.343257
1.096857 -1.385305 0.619913
1.163643 -1.427403 0.747993
1.057386 -1.296241 0.341171
1.105515 -1.384756 0.919947
1.042147 -1.279388 0.144172
1.098424 -1.350392 0.436069
1.102580 -1.344243 0.612122
1.070853 -1.304731 0.258167
1.055498 -1.326485 0.379979
1.141529 -1.402718 0.961979
1.039122 -1.274469 0.149148
1.048443 -1.286147 0.100126
1.062691 -1.374036 0.884732
1.061619 -1.330602 0.598935
1.031606 -1.318773 0.581854
1.019760 -1.320584 0.327782
1.120021 -1.454008 0.966556
1.035156 -1.302869 0.209923
1.120724 -1.444329 1.023582
1.075350 -1.346921 0.477864
1.003685 -1.313973 0.566716
0.981579 -1.286894 0.317741
1.082673 -1.381188 0.926706
0.984464 -1.274901 0.322810
1.121585 -1.415148 0.785694
1.059846 -1.379043 0.662593
1.009481 -1.277749 0.329886
1.086780 -1.398157 0.721585
1.001584 -1.287848 0.331776
1.022990 -1.359061 0.600506
1.039764 -1.365425 0.891551
1.032551 -1.331079 0.423678
1.027698 -1.313957 0.585749
1.021084 -1.304302 0.253756
0.998683 -1.317116 0.372582
1.066751 -1.374418 0.923585
0.994895 -1.349714 0.856363
0.996778 -1.309254 0.578573
0.967783 -1.299432 0.563484
1.043247 -1.426776 0.934129
1.015500 -1.331558 0.466494
1.059045 -1.434014 1.000144
0.943869 -1.297608 0.551355
1.053755 -1.391824 0.761320
1.017917 -1.360829 0.896334
0.963750 -1.279274 0.322498
0.985963 -1.348771 0.639228
1.023977 -1.380812 0.702205
0.970969 -1.339094 0.860197
0.977739 -1.321685 0.415303
0.958178 -1.340747 0.584117
0.971946 -1.304555 0.569368
0.997989 -1.350075 0.889218
0.933105 -1.328340 0.831028
0.934953 -1.289886 0.560227
0.923070 -1.299968 0.555113
0.964728 -1.326126 0.457122
0.969446 -1.397502 0.902755
0.992282 -1.411688 0.970771
0.995961 -1.376426 0.741970
0.901164 -1.300136 0.544984
0.954144 -1.338450 0.865994
0.934241 -1.344370 0.627838
0.955105 -1.352486 0.678874
0.914212 -1.322677 0.835867
0.923202 -1.299093 0.556017
0.937235 -1.330672 0.859882
0.876335 -1.310931 0.808709
0.888233 -1.287421 0.548870
0.930091 -1.348056 0.716670
0.926504 -1.387343 0.941432
0.905676 -1.376158 0.877408
0.892365 -1.316055 0.837680
0.936379 -1.392648 0.999400
0.903332 -1.342052 0.664540
0.858441 -1.305255 0.813562
0.878491 -1.312250 0.831563
0.831632 -1.307466 0.796379
0.885370 -1.345579 0.705330
0.864725 -1.363954 0.913127
0.843653 -1.307587 0.818361
0.850958 -1.364769 0.859060
0.880625 -1.375219 0.974095
0.812728 -1.298770 0.797252
0.834831 -1.311764 0.816221
0.024720 -1.016973 1.177146
0.005854 -1.025147 1.176039
0.013760 -1.009044 1.170194
-0.005041 -1.031217 1.170964
0.009000 -1.034121 1.168956
-0.010942 -1.036405 1.180903
-0.005584 -1.058460 1.173693
-0.020730 -1.032555 1.171906
-0.028575 -1.024901 1.185951
-0.034371 -1.042902 1.175772
-0.039447 -1.002805 1.150125
-0.622433 -2.589482 1.257179
-0.659730 -2.692623 1.241013
-0.674429 -2.550845 1.243398
-0.713773 -2.645955 1.223306
-0.768790 -2.602308 1.207585
