# .PCD v0.7 - Point Cloud Data file format
VERSION 0.7
FIELDS x y z
SIZE 4 4 4
TYPE F F F
COUNT 1 1 1
WIDTH 136
HEIGHT 1
VIEWPOINT 0 0 0 1
POINTS 136
DATA ascii
3.530831 -1.888169 0.152207
3.312174 -1.828837 -0.208566
3.344769 -1.861686 0.095017
3.366539 -1.882592 0.625766
3.355567 -1.891059 0.578708
3.259806 -1.845940 0.146429
3.223220 -1.824934 -0.249268
3.574706 -1.874382 -0.131310
3.104816 -1.779583 -0.409464
3.242341 -1.892159 1.133057
3.434268 -1.825948 -0.308429
3.431300 -1.828989 -0.307452
3.062229 -1.790790 -0.191442
3.428724 -1.853507 -0.121686
3.131524 -1.850751 0.593781
3.117868 -1.837228 0.092934
3.396184 -1.858222 0.218375
3.112544 -1.856285 0.547778
3.100232 -1.860890 1.118796
3.406276 -1.870223 0.222225
3.038894 -1.820408 0.142342
2.986291 -1.788826 -0.230199
3.332825 -1.850201 -0.120380
3.331877 -1.871712 0.676443
3.349970 -1.883788 0.690270
3.239539 -1.823549 -0.292852
3.010262 -1.857864 1.071092
3.230546 -1.822638 -0.290817
2.875421 -1.776276 -0.178737
3.184784 -1.820296 -0.112654
3.583090 -1.882902 -0.188947
2.897449 -1.807859 0.559913
2.882866 -1.795783 0.090056
3.578099 -1.884784 -0.200953
3.170260 -1.833628 0.208269
3.531273 -1.877302 -0.032741
2.880492 -1.815437 0.517885
2.883138 -1.824516 1.058812
3.171323 -1.840684 0.212194
3.563357 -1.909684 0.772883
2.805861 -1.774899 0.136502
3.102922 -1.821911 -0.110435
3.106867 -1.841733 0.640390
3.470867 -1.892656 0.342288
3.122979 -1.855851 0.656202
3.002595 -1.785445 -0.271784
3.402381 -1.866636 0.001722
3.003629 -1.789446 -0.271828
2.786145 -1.815531 1.011193
3.306087 -1.837953 -0.174731
2.970891 -1.793868 -0.104769
3.300082 -1.837839 -0.186714
2.702466 -1.777816 0.533805
3.314729 -1.860853 0.279037
2.956308 -1.803939 0.198186
3.264259 -1.834132 -0.029569
3.360518 -1.899388 0.799547
3.320332 -1.879695 0.727853
2.698123 -1.798051 1.007637
2.953361 -1.809033 0.203144
2.667461 -1.775495 0.490933
2.927460 -1.826190 1.121091
2.876951 -1.782557 -0.101382
2.896862 -1.810674 0.606312
3.230886 -1.861047 0.326270
2.900932 -1.817865 0.622229
3.161414 -1.831281 0.003747
2.602141 -1.788098 0.963029
3.513306 -1.894242 0.465644
3.499933 -1.886946 0.128736
3.479115 -1.879934 0.348872
3.080170 -1.807643 -0.162796
2.754914 -1.753440 -0.095731
3.069141 -1.803557 -0.174724
3.085740 -1.827166 0.263013
3.058375 -1.812544 -0.028777
3.127460 -1.863356 0.757558
2.746322 -1.767209 0.188170
3.091284 -1.844642 0.685843
3.395622 -1.855201 -0.056676
2.529126 -1.772557 0.962410
3.402640 -1.861788 -0.085762
2.749393 -1.775292 0.195081
3.370691 -1.847709 0.047471
2.737428 -1.797680 1.064934
2.757552 -1.812054 1.102732
3.001857 -1.821346 0.310311
2.687805 -1.769594 0.572338
2.692889 -1.778792 0.589232
3.368947 -1.901007 0.911984
3.315626 -1.870434 0.766426
2.967542 -1.811635 0.006490
3.284330 -1.866475 0.444535
3.238097 -1.844217 0.325876
3.247932 -1.848533 0.122797
2.877271 -1.780146 -0.152947
2.876278 -1.782002 -0.164963
2.883785 -1.798324 0.248873
2.852436 -1.780950 -0.026878
2.915426 -1.829235 0.719497
2.884259 -1.811492 0.647759
3.167692 -1.825777 -0.052768
3.164677 -1.826438 -0.080767
3.150765 -1.821125 0.043329
2.567425 -1.772117 1.014694
2.581537 -1.784513 1.051529
2.806902 -1.792465 0.297153
3.127835 -1.857897 0.862065
3.098605 -1.840265 0.722313
2.751548 -1.770091 0.008521
3.058297 -1.828644 0.421525
3.049037 -1.827808 0.118544
3.024133 -1.815351 0.304745
2.678773 -1.758472 0.233857
2.718397 -1.794062 0.685411
2.684215 -1.773301 0.610712
2.956758 -1.795218 -0.049887
2.960758 -1.798838 -0.077935
2.956878 -1.800370 0.039066
2.929828 -1.829646 0.821888
2.899601 -1.811027 0.682149
2.624835 -1.789655 1.073744
2.853300 -1.794714 0.401425
2.826161 -1.784410 0.286597
2.831025 -1.786165 0.113558
2.525326 -1.750825 0.649399
2.753800 -1.759606 -0.045972
2.763816 -1.766191 -0.074066
2.754907 -1.764643 0.034979
2.754859 -1.806311 0.786604
2.702558 -1.773765 0.642064
2.670324 -1.763676 0.384242
2.690089 -1.789989 1.121962
2.650208 -1.756348 0.270366
2.530568 -1.743421 0.607847
2.542162 -1.776300 1.073514
