# .PCD v0.7 - Point Cloud Data file format
VERSION 0.7
FIELDS x y z
SIZE 4 4 4
TYPE F F F
COUNT 1 1 1
WIDTH 31
HEIGHT 1
VIEWPOINT 0 0 0 1
POINTS 31
DATA ascii
1.771969 -0.766893 2.329797
1.744989 -0.799644 2.312533
1.756884 -0.820889 2.318779
1.760847 -0.835680 2.315242
1.730905 -0.838249 2.313101
1.750755 -0.862767 2.324246
1.744766 -0.875218 2.314779
1.710872 -0.872530 2.306824
1.742622 -0.905658 2.330686
1.727687 -0.914745 2.314328
1.691825 -0.907940 2.303520
1.715651 -0.939324 2.311418
1.703667 -0.949892 2.306023
1.657913 -0.935363 2.279475
1.683717 -0.969832 2.289281
1.673704 -0.981662 2.289852
1.650807 -0.998223 2.264230
1.639698 -1.039015 2.268790
1.760755 -1.197739 2.300331
1.756770 -1.205309 2.292061
1.745749 -1.208566 2.301949
1.752533 -1.248055 2.317591
1.743569 -1.254534 2.308358
1.720682 -1.247032 2.301608
1.725484 -1.286337 2.313261
1.703636 -1.284196 2.291319
1.673832 -1.270248 2.274787
1.651925 -1.289832 2.249101
1.755787 -1.486141 2.276409
1.744794 -1.487203 2.281379
1.754550 -1.513317 2.309506
