# .PCD v0.7 - Point Cloud Data file format
VERSION 0.7
FIELDS x y z
SIZE 4 4 4
TYPE F F F
COUNT 1 1 1
WIDTH 241
HEIGHT 1
VIEWPOINT 0 0 0 1
POINTS 241
DATA ascii
0.121473 -1.998038 -0.089276
0.116424 -1.994976 -0.082373
0.075827 -1.997057 -0.086919
0.070767 -1.993986 -0.079017
0.069894 -2.006273 -0.003904
0.115846 -1.997939 -0.081446
0.114566 -2.002703 -0.056416
0.061102 -2.009601 0.068015
0.029192 -1.998078 -0.084558
0.027294 -2.015803 0.157614
0.025133 -2.000007 -0.076596
0.024233 -2.003303 -0.001567
0.070212 -1.997970 -0.080077
0.067987 -2.010226 0.106031
0.068926 -2.001737 -0.055056
0.068433 -2.003352 -0.014043
0.108566 -2.003371 -0.022563
0.014451 -2.011641 0.070383
0.107192 -1.999851 -0.073621
0.106704 -2.003467 -0.032589
0.000994 -2.019688 0.281297
0.033912 -2.013010 0.134583
-0.017361 -2.015870 0.157983
-0.015468 -1.994099 -0.082224
-0.020521 -1.995031 -0.074286
-0.021421 -1.996345 -0.000276
0.024582 -1.994011 -0.079753
0.022340 -2.008289 0.106372
0.022796 -1.999401 -0.013720
0.022303 -1.998782 -0.054738
0.062952 -1.999437 -0.024235
-0.031203 -2.009691 0.071717
0.061572 -1.995901 -0.074294
0.106172 -1.998523 -0.040720
0.061084 -2.001522 -0.033244
0.101933 -2.002316 -0.017742
0.100632 -1.995844 -0.074827
-0.045689 -2.016756 0.283605
0.035509 -2.009211 0.112485
-0.011728 -2.009086 0.133898
-0.063019 -2.009940 0.158275
-0.061110 -1.995123 -0.079867
-0.066164 -1.996055 -0.071930
-0.067058 -1.998387 0.001089
0.023268 -2.012974 0.140349
-0.020048 -1.993052 -0.079396
-0.023308 -2.011343 0.107749
-0.022828 -2.001451 -0.013351
-0.023340 -1.994817 -0.053424
0.017331 -1.996494 -0.024908
-0.076863 -2.010732 0.074070
-0.030892 -2.018399 0.321735
0.015961 -1.994953 -0.074948
0.015459 -1.996579 -0.033935
0.059584 -1.995598 -0.043402
0.056328 -1.996392 -0.020438
0.055044 -1.994913 -0.077477
-0.091377 -2.014822 0.285927
0.041207 -2.007483 0.081461
-0.010113 -2.007294 0.110816
-0.057355 -2.012162 0.133269
-0.107684 -2.011000 0.159636
-0.104759 -1.995154 -0.078499
0.026284 -2.015735 0.166333
-0.110717 -1.997428 0.002446
-0.110818 -1.996080 -0.069578
-0.022371 -2.010051 0.139668
-0.025047 -2.011101 0.355669
-0.065680 -1.993086 -0.078054
-0.068956 -2.007408 0.108054
-0.068450 -1.997510 -0.014045
-0.068977 -1.992854 -0.052100
-0.121538 -2.007774 0.076392
-0.028271 -1.995561 -0.026571
-0.028652 -1.997003 -0.075570
-0.076567 -2.019479 0.323082
0.014988 -1.995670 -0.046038
-0.030166 -1.989636 -0.034652
0.010725 -1.996459 -0.022088
0.009462 -1.995983 -0.080119
-0.137061 -2.015890 0.288268
-0.048440 -2.013459 0.321346
-0.004390 -2.003580 0.077771
-0.054727 -2.006384 0.108161
-0.101998 -2.010238 0.132599
-0.152349 -2.013061 0.160998
-0.150410 -1.990181 -0.076214
-0.019346 -2.012825 0.164649
-0.156352 -2.002473 0.003820
-0.155476 -1.993106 -0.067262
-0.068014 -2.011120 0.140013
-0.110288 -1.998137 -0.078662
-0.113618 -2.007463 0.109400
-0.112088 -2.001559 -0.013648
-0.112610 -1.996899 -0.051703
-0.072875 -1.998627 -0.028193
-0.167206 -2.003819 0.078682
-0.121245 -2.015567 0.323391
-0.074782 -1.991692 -0.035284
-0.074250 -1.995065 -0.077252
-0.030591 -1.992752 -0.049723
-0.037720 -2.016779 0.285433
-0.034883 -1.992526 -0.023784
-0.036149 -1.987044 -0.081859
-0.183738 -2.016962 0.290585
-0.093086 -2.013565 0.319693
-0.049995 -2.000668 0.075081
-0.099355 -2.003466 0.106480
-0.146637 -2.010314 0.131939
-0.197003 -2.014132 0.161342
-0.196030 -2.001217 -0.074795
-0.064973 -2.009914 0.162955
-0.201990 -2.006519 0.005175
-0.111665 -2.009195 0.139353
-0.201120 -1.995135 -0.064924
-0.154937 -1.992172 -0.077376
-0.159270 -2.008521 0.110732
-0.157701 -2.002620 -0.014316
-0.158230 -1.999947 -0.051353
-0.117488 -1.995694 -0.029877
-0.212870 -2.003865 0.080999
-0.119392 -1.997749 -0.035889
-0.118873 -1.990118 -0.077954
-0.076181 -1.988826 -0.052426
-0.083341 -2.017892 0.282771
-0.080462 -1.997603 -0.026409
-0.081702 -1.996122 -0.085449
-0.229431 -2.011034 0.292845
-0.137733 -2.012671 0.318022
-0.094582 -2.004764 0.071459
-0.144971 -2.002550 0.104793
-0.192268 -2.011393 0.131265
-0.242667 -2.012197 0.162635
-0.241686 -1.993246 -0.072554
-0.108616 -2.006001 0.161274
-0.246652 -1.996565 0.006412
-0.157299 -2.007274 0.138654
-0.246772 -1.991166 -0.062648
-0.200541 -1.995227 -0.078034
-0.204930 -2.004580 0.112010
-0.203333 -1.999673 -0.014028
-0.203858 -1.995996 -0.051074
-0.163086 -1.996762 -0.031550
-0.258547 -2.003905 0.084308
-0.164019 -1.992807 -0.036599
-0.163474 -1.991179 -0.079612
-0.119773 -1.994898 -0.055021
-0.127972 -2.017003 0.280097
-0.124070 -1.994678 -0.029084
-0.125308 -1.990190 -0.088150
-0.183368 -2.014780 0.316353
-0.140189 -1.998853 0.068725
-0.190579 -2.008635 0.103158
-0.237915 -2.009464 0.131555
-0.288321 -2.007273 0.162894
-0.285356 -1.986275 -0.070282
-0.153246 -2.005090 0.159596
-0.293285 -2.001615 0.007743
-0.202943 -2.008346 0.138973
-0.293394 -2.000208 -0.061281
-0.246164 -1.993273 -0.077745
-0.249582 -2.002648 0.112313
-0.247960 -1.996735 -0.014733
-0.248504 -1.996036 -0.049753
-0.207690 -2.000830 -0.033190
-0.209629 -1.994867 -0.037272
-0.209079 -1.993234 -0.080285
-0.305205 -2.005955 0.086610
-0.165345 -1.993981 -0.058716
-0.174575 -2.016127 0.276385
-0.169671 -1.993747 -0.030779
-0.170886 -1.991261 -0.090828
-0.229995 -2.018891 0.314678
-0.185771 -2.000951 0.065052
-0.236195 -2.008720 0.101462
-0.332991 -2.009339 0.164221
-0.283549 -2.009545 0.130854
-0.330993 -1.986315 -0.068987
-0.198866 -2.006181 0.157911
-0.407016 -2.551795 0.008815
-0.247592 -2.000426 0.138221
-0.337085 -1.985230 -0.058089
-0.291779 -2.004322 -0.077352
-0.296229 -2.004711 0.113612
-0.294580 -1.998792 -0.014433
-0.295117 -2.003089 -0.049410
-0.253295 -1.996900 -0.034924
-0.253685 -1.990297 -0.081994
-0.350876 -2.004006 0.088884
-0.255242 -1.994927 -0.037972
-0.210927 -1.996055 -0.061394
-0.215258 -1.992825 -0.033484
-0.220196 -2.005250 0.272593
-0.216467 -1.991332 -0.093524
-0.231367 -2.003040 0.062370
-0.281815 -2.004806 0.099723
-0.378658 -2.009407 0.165508
-0.328195 -2.004624 0.130116
-0.244488 -2.005273 0.156201
-0.383592 -1.998715 0.010312
-0.293234 -2.004499 0.138549
-0.336421 -1.992369 -0.077151
-0.340898 -2.001772 0.114890
-0.409183 -2.548047 -0.022468
-0.339761 -1.990140 -0.049219
-0.297926 -1.985960 -0.035711
-0.299866 -1.992988 -0.038682
-0.309068 -2.084417 -0.088047
-0.396549 -2.000059 0.091132
-0.256500 -1.994139 -0.065115
-0.259855 -1.991902 -0.036181
-0.266808 -2.005365 0.269872
-0.261058 -1.988402 -0.096239
-0.277957 -2.004131 0.059655
-0.326445 -1.999890 0.097983
-0.426309 -2.018481 0.166833
-0.374834 -2.009700 0.130426
-0.289122 -2.001364 0.154472
-0.338882 -2.005573 0.138842
-0.387550 -2.003838 0.116172
-0.345490 -2.003042 -0.038312
-0.344880 -1.989428 -0.085426
-0.346461 -1.991060 -0.040430
-0.303074 -1.999215 -0.067800
-0.358473 -2.470178 -0.050679
-0.315420 -2.022468 0.269255
-0.318381 -2.088548 -0.105290
-0.323561 -1.999221 0.056896
-0.453411 -2.565935 0.119799
-0.470978 -2.011558 0.167057
-0.421466 -2.006784 0.129659
-0.334757 -2.003449 0.153770
-0.384522 -2.001657 0.138084
-0.432224 -1.995902 0.117391
-0.348652 -1.992299 -0.071581
-0.352038 -1.989053 -0.040657
-0.451335 -2.568371 0.065649
-0.381376 -2.000545 0.152002
-0.430175 -1.997734 0.138318
-0.427003 -1.997639 0.150241
-0.578207 -2.531627 0.186222
