# .PCD v0.7 - Point Cloud Data file format
VERSION 0.7
FIELDS x y z
SIZE 4 4 4
TYPE F F F
COUNT 1 1 1
WIDTH 357
HEIGHT 1
VIEWPOINT 0 0 0 1
POINTS 357
DATA ascii
-0.283058 -2.239468 -0.121959
-0.289360 -2.242853 -0.088054
-0.288040 -2.230553 -0.124936
-0.291365 -2.249038 -0.072122
-0.292196 -2.237861 -0.097039
-0.297502 -2.246277 -0.057164
-0.297864 -2.232710 -0.128062
-0.297795 -2.231706 -0.130041
-0.302519 -2.242420 -0.052174
-0.307543 -2.233771 -0.143164
-0.332542 -2.238917 -0.050485
-0.313804 -2.251966 -0.009372
-0.333819 -2.232380 -0.119450
-0.340124 -2.235766 -0.085543
-0.337147 -2.238815 -0.075527
-0.339589 -2.236460 -0.124538
-0.342139 -2.240943 -0.070598
-0.343888 -2.232756 -0.098547
-0.360595 -2.220790 0.118384
-0.348230 -2.240165 -0.057652
-0.349458 -2.234601 -0.129625
-0.369008 -2.248852 0.108055
-0.365538 -2.246495 0.069117
-0.350408 -2.230601 -0.133595
-0.354123 -2.243309 -0.054735
-0.366070 -2.247220 0.033105
-0.359208 -2.229649 -0.146682
-0.384236 -2.236841 -0.049020
-0.384546 -2.229292 -0.116966
-0.365499 -2.245852 -0.012875
-0.391841 -2.233705 -0.082078
-0.388815 -2.237730 -0.075071
-0.391330 -2.230374 -0.124040
-0.393851 -2.236859 -0.070117
-0.390724 -2.258097 0.206772
-0.398562 -2.245983 0.177782
-0.404222 -2.247860 0.151699
-0.395562 -2.229654 -0.100073
-0.416880 -2.246824 0.122562
-0.400880 -2.239090 -0.058206
-0.420601 -2.253781 0.109461
-0.402155 -2.229515 -0.131145
-0.417206 -2.245418 0.069574
-0.402085 -2.226490 -0.136112
-0.406822 -2.237219 -0.057247
-0.419673 -2.248158 0.031524
-0.435988 -2.230769 -0.047521
-0.411864 -2.226553 -0.149218
-0.436238 -2.228223 -0.114508
-0.418213 -2.238765 -0.015378
-0.443563 -2.230639 -0.079603
-0.440560 -2.230640 -0.075562
-0.462876 -2.267472 0.344914
-0.443029 -2.227288 -0.123564
-0.445533 -2.235784 -0.068659
-0.455293 -2.269990 0.299977
-0.450853 -2.265568 0.257063
-0.443366 -2.256019 0.204226
-0.451148 -2.250934 0.179178
-0.455916 -2.245796 0.153165
-0.445351 -2.247974 0.194273
-0.447252 -2.225553 -0.101589
-0.468599 -2.244775 0.126027
-0.451661 -2.229985 -0.058670
-0.478302 -2.271161 0.394722
-0.472341 -2.248716 0.110952
-0.453845 -2.225413 -0.132660
-0.468936 -2.239335 0.069074
-0.454717 -2.224386 -0.139655
-0.458516 -2.232113 -0.059754
-0.470428 -2.240048 0.030052
-0.487725 -2.226705 -0.045036
-0.464482 -2.225450 -0.152769
-0.487990 -2.223156 -0.112015
-0.469909 -2.232653 -0.018876
-0.491024 -2.253907 0.451752
-0.495343 -2.223575 -0.077093
-0.491295 -2.225540 -0.075058
-0.513594 -2.264401 0.346399
-0.505607 -2.256942 0.425564
-0.497313 -2.272499 0.507536
-0.506089 -2.259903 0.299522
-0.495683 -2.226211 -0.124115
-0.502547 -2.260478 0.254554
-0.498256 -2.230720 -0.068177
-0.502865 -2.245857 0.178670
-0.497967 -2.255976 0.201644
-0.508632 -2.242760 0.155630
-0.498003 -2.246914 0.193721
-0.500833 -2.227476 -0.104175
-0.521341 -2.240746 0.129501
-0.504303 -2.228902 -0.060220
-0.524071 -2.243644 0.111445
-0.529216 -2.255109 0.397317
-0.506474 -2.225326 -0.134219
-0.521604 -2.237268 0.068531
-0.507337 -2.223283 -0.143205
-0.511175 -2.229023 -0.062288
-0.524065 -2.238988 0.028490
-0.540333 -2.230646 -0.043630
-0.527951 -2.252754 0.470377
-0.516153 -2.221330 -0.156282
-0.541620 -2.225112 -0.110601
-0.522572 -2.228558 -0.022401
-0.544644 -2.257908 0.455147
-0.547991 -2.225524 -0.074669
-0.551556 -2.237199 0.595263
-0.553627 -2.269933 0.558956
-0.564387 -2.255326 0.346936
-0.543937 -2.225466 -0.075617
-0.558306 -2.255927 0.429012
-0.558786 -2.255850 0.298995
-0.549942 -2.229645 -0.066716
-0.548393 -2.222144 -0.123639
-0.552917 -2.273506 0.506934
-0.554325 -2.250399 0.253090
-0.555599 -2.240816 0.180153
-0.561324 -2.240715 0.157087
-0.549764 -2.242880 0.198206
-0.550688 -2.242847 0.192196
-0.553492 -2.225392 -0.105716
-0.574071 -2.237718 0.132967
-0.575800 -2.239581 0.112930
-0.557882 -2.232843 -0.060824
-0.581986 -2.249097 0.400809
-0.559176 -2.220243 -0.135734
-0.574259 -2.237210 0.068972
-0.560941 -2.222189 -0.147764
-0.564803 -2.227950 -0.064848
-0.576725 -2.236911 0.026949
-0.593043 -2.227592 -0.042162
-0.581564 -2.255741 0.471781
-0.568790 -2.219227 -0.159822
-0.594327 -2.223063 -0.108142
-0.578059 -2.236516 -0.025060
-0.597336 -2.255879 0.456604
-0.599731 -2.222469 -0.071190
-0.616114 -2.252283 0.349413
-0.611129 -2.279999 0.561255
-0.598527 -2.228425 -0.076221
-0.610476 -2.253786 0.299464
-0.612029 -2.252933 0.432467
-0.601050 -2.222076 -0.123197
-0.603621 -2.227598 -0.066267
-0.607962 -2.250359 0.252520
-0.606672 -2.262461 0.503458
-0.607361 -2.232743 0.179675
-0.614031 -2.238680 0.159546
-0.604382 -2.242847 0.196626
-0.602480 -2.231767 0.190743
-0.605203 -2.220294 -0.107219
-0.625866 -2.230677 0.136480
-0.628483 -2.238534 0.114381
-0.634742 -2.245093 0.405284
-0.610640 -2.224775 -0.061312
-0.611811 -2.220157 -0.137291
-0.627912 -2.236161 0.068413
-0.613623 -2.217088 -0.151277
-0.617523 -2.220864 -0.067344
-0.629457 -2.229839 0.025452
-0.633338 -2.246684 0.471311
-0.644845 -2.218526 -0.040630
-0.647054 -2.219007 -0.106664
-0.622491 -2.213152 -0.162337
-0.630825 -2.225426 -0.028521
-0.650113 -2.247855 0.458115
-0.653448 -2.219440 -0.068732
-0.666869 -2.246208 0.349928
-0.650304 -2.220347 -0.075698
-0.665739 -2.251946 0.436907
-0.663220 -2.246736 0.298966
-0.653794 -2.216012 -0.122701
-0.656337 -2.223536 -0.065789
-0.661688 -2.243316 0.251013
-0.663287 -2.263495 0.503847
-0.662927 -2.238747 0.181033
-0.668727 -2.236680 0.161985
-0.657057 -2.235740 0.190130
-0.680517 -2.233690 0.140875
-0.680245 -2.232473 0.115887
-0.660966 -2.243839 0.194017
-0.659844 -2.218237 -0.109779
-0.690393 -2.249154 0.411659
-0.663347 -2.219697 -0.062825
-0.664519 -2.215075 -0.138803
-0.681567 -2.236120 0.068845
-0.666349 -2.208990 -0.154762
-0.671185 -2.217793 -0.069884
-0.682167 -2.223757 0.022949
-0.699451 -2.222503 -0.039242
-0.687991 -2.247699 0.473723
-0.698843 -2.211945 -0.104147
-0.676103 -2.212057 -0.166894
-0.701886 -2.240814 0.459629
-0.683563 -2.217343 -0.031007
-0.708108 -2.220427 -0.066318
-0.719595 -2.243183 0.352397
-0.703039 -2.214278 -0.076200
-0.716917 -2.243710 0.299425
-0.719495 -2.246955 0.440382
-0.706488 -2.212938 -0.123229
-0.709135 -2.214487 -0.064265
-0.713457 -2.234239 0.249546
-0.715713 -2.229702 0.181556
-0.717071 -2.251461 0.501384
-0.721523 -2.228651 0.164499
-0.734880 -2.234460 0.117291
-0.733311 -2.226667 0.144381
-0.711735 -2.232717 0.189579
-0.714459 -2.219187 -0.111364
-0.715661 -2.238809 0.192483
-0.746120 -2.247212 0.417087
-0.718980 -2.219676 -0.063412
-0.720129 -2.215033 -0.141389
-0.734371 -2.225062 0.068386
-0.721948 -2.208939 -0.158348
-0.725818 -2.215730 -0.073442
-0.737776 -2.224731 0.021353
-0.752211 -2.216453 -0.037744
-0.742664 -2.246706 0.475154
-0.752502 -2.212904 -0.102721
-0.732710 -2.211023 -0.170481
-0.759914 -2.212368 -0.063791
-0.757576 -2.239857 0.463050
-0.772353 -2.237153 0.353894
-0.740129 -2.219314 -0.034621
-0.757682 -2.214239 -0.076776
-0.770629 -2.240692 0.300885
-0.775186 -2.247004 0.444793
-0.761159 -2.210899 -0.123787
-0.763804 -2.213458 -0.063832
-0.771035 -2.238275 0.249901
-0.768461 -2.223655 0.182054
-0.776186 -2.229650 0.166913
-0.786716 -2.223405 0.118844
-0.765438 -2.228678 0.189049
-0.788067 -2.221679 0.147849
-0.768195 -2.211118 -0.113858
-0.768442 -2.227741 0.190026
-0.798017 -2.233193 0.420666
-0.771746 -2.211609 -0.063895
-0.773865 -2.207970 -0.142892
-0.787110 -2.219000 0.067885
-0.776615 -2.203865 -0.162877
-0.791511 -2.217677 0.019850
-0.779554 -2.207663 -0.075935
-0.805968 -2.210421 -0.036255
-0.795438 -2.238676 0.475669
-0.805304 -2.204862 -0.100204
-0.816124 -2.250968 0.469331
-0.787390 -2.205957 -0.174011
-0.826066 -2.235147 0.356346
-0.814636 -2.209359 -0.061339
-0.792928 -2.206227 -0.038058
-0.812397 -2.209204 -0.077306
-0.824402 -2.231663 0.300399
-0.830921 -2.244056 0.449232
-0.814906 -2.204854 -0.123297
-0.817563 -2.206418 -0.063333
-0.822837 -2.227201 0.248456
-0.824150 -2.221667 0.183486
-0.829943 -2.223629 0.168402
-0.840434 -2.220378 0.120307
-0.840866 -2.215666 0.152348
-0.818233 -2.217618 0.187593
-0.822862 -2.208062 -0.116405
-0.824126 -2.222720 0.187485
-0.858578 -2.245363 0.429917
-0.826410 -2.209564 -0.065451
-0.827590 -2.201906 -0.144401
-0.843744 -2.220012 0.068280
-0.847183 -2.214654 0.018292
-0.833231 -2.202831 -0.166463
-0.860682 -2.207405 -0.034802
-0.850160 -2.234688 0.477129
-0.834261 -2.201612 -0.078454
-0.860999 -2.202859 -0.098770
-0.886559 -2.249275 0.361580
-0.869936 -2.240966 0.470855
-0.842062 -2.200882 -0.178539
-0.869376 -2.205351 -0.058877
-0.851438 -2.212229 -0.041728
-0.881022 -2.234693 0.301776
-0.869050 -2.208201 -0.077892
-0.884730 -2.236069 0.452739
-0.872539 -2.204865 -0.123902
-0.874201 -2.207423 -0.062937
-0.879515 -2.224217 0.247887
-0.877925 -2.213640 0.183995
-0.895177 -2.215372 0.121777
-0.885689 -2.218651 0.170861
-0.896597 -2.212695 0.155790
-0.873929 -2.213615 0.187045
-0.877624 -2.199020 -0.117897
-0.915311 -2.244447 0.436328
-0.881183 -2.200534 -0.065943
-0.880832 -2.216727 0.185944
-0.883308 -2.194870 -0.146921
-0.896517 -2.211953 0.067799
-0.915427 -2.202390 -0.033330
-0.902900 -2.208634 0.016763
-0.887005 -2.191753 -0.169925
-0.889952 -2.196577 -0.080992
-0.916750 -2.197868 -0.096308
-0.940352 -2.241265 0.363087
-0.923191 -2.197339 -0.055367
-0.897770 -2.193836 -0.182058
-0.907197 -2.202200 -0.044221
-0.936735 -2.231711 0.303217
-0.923800 -2.201169 -0.078401
-0.924400 -2.191792 -0.123325
-0.928975 -2.200409 -0.061447
-0.941017 -2.234325 0.249147
-0.930762 -2.201600 0.184552
-0.948002 -2.205335 0.123316
-0.944327 -2.221728 0.174218
-0.952345 -2.209732 0.160233
-0.932544 -2.215667 0.187411
-0.932339 -2.192967 -0.120414
-0.935923 -2.193493 -0.067451
-0.939491 -2.213766 0.184355
-0.938034 -2.188824 -0.148438
-0.955176 -2.211001 0.068193
-0.968269 -2.191347 -0.031781
-0.955721 -2.195559 0.014331
-0.969592 -2.186821 -0.094758
-0.944639 -2.188729 -0.174500
-0.948578 -2.194584 -0.084587
-0.998982 -2.245348 0.366432
-0.977966 -2.191334 -0.052884
-0.952503 -2.185772 -0.185556
-0.963890 -2.196177 -0.047759
-0.998295 -2.238833 0.305504
-0.978555 -2.194136 -0.078909
-0.983754 -2.192387 -0.060945
-0.998740 -2.228361 0.248596
-1.009552 -2.213447 0.125596
-0.999142 -2.212736 0.176727
-0.998151 -2.219821 0.187676
-1.012020 -2.211844 0.165589
-0.989298 -2.207685 0.186891
-0.990717 -2.183465 -0.067930
-0.997188 -2.208789 0.182797
-1.011881 -2.207007 0.067636
-1.020156 -2.207679 0.012543
-1.053776 -2.238364 0.368922
-1.056989 -2.236902 0.306906
-1.067240 -2.212488 0.127001
-1.056482 -2.221397 0.248056
-1.055923 -2.205779 0.179198
-1.056832 -2.218883 0.189070
-1.074632 -2.218004 0.170876
-1.052817 -2.215817 0.187149
-1.060750 -2.212916 0.182093
-1.108615 -2.227375 0.370451
-1.115753 -2.229976 0.308355
-1.119120 -2.221522 0.248399
