# .PCD v0.7 - Point Cloud Data file format
VERSION 0.7
FIELDS x y z
SIZE 4 4 4
TYPE F F F
COUNT 1 1 1
WIDTH 52
HEIGHT 1
VIEWPOINT 0 0 0 1
POINTS 52
DATA ascii
-0.939798 -2.196725 -0.010586
-0.940762 -2.196929 -0.062586
-0.968699 -2.198945 0.136423
-0.978473 -2.190286 0.037389
-0.995340 -2.191360 -0.008606
-0.995258 -2.186566 -0.059625
-1.034419 -2.215504 0.139487
-1.033002 -2.182926 0.041366
-1.049289 -2.209022 0.240465
-1.067380 -2.222392 0.370516
-1.089944 -2.208153 0.141467
-1.107849 -2.206641 0.246465
-1.121848 -2.210072 0.372481
-0.875644 -2.204060 -0.140803
-0.881587 -2.204056 -0.138807
-0.932054 -2.198964 -0.144832
-0.937982 -2.196965 -0.141832
-0.947015 -2.205262 -0.030861
-0.951017 -2.206443 0.034132
-0.918491 -2.201346 -0.091853
-0.921430 -2.198298 -0.107847
-1.005425 -2.200182 -0.033899
-1.006428 -2.197382 0.033108
-0.937408 -2.205676 0.030119
-0.940348 -2.200717 0.043130
-1.038451 -2.225761 0.185999
-1.039463 -2.223009 0.268006
-0.973905 -2.194274 -0.093883
-0.907994 -2.210667 -0.052894
-0.908926 -2.205573 -0.085881
-0.985929 -2.212186 -0.110946
-1.001904 -2.217582 0.029023
-1.002815 -2.206638 0.043054
-0.936745 -2.206918 0.040090
-1.093819 -2.208727 0.183989
-1.100916 -2.221959 0.268944
-1.028852 -2.225220 0.250975
-1.044713 -2.224260 0.267961
-0.965433 -2.208599 -0.052944
-0.967377 -2.206498 -0.085940
-1.155647 -2.228619 0.498864
-0.993325 -2.216975 0.082003
-0.996200 -2.207860 0.042027
-1.090286 -2.222178 0.251915
-1.100131 -2.212243 0.269933
-1.022857 -2.203542 -0.052990
-1.050973 -2.223465 0.256921
-1.046734 -2.203943 0.081983
-1.055643 -2.205812 0.043967
-1.084739 -2.226607 0.309872
-1.110433 -2.220447 0.261858
-1.141183 -2.217597 0.311827
