# .PCD v0.7 - Point Cloud Data file format
VERSION 0.7
FIELDS x y z
SIZE 4 4 4
TYPE F F F
COUNT 1 1 1
WIDTH 43
HEIGHT 1
VIEWPOINT 0 0 0 1
POINTS 43
DATA ascii
0.958886 2.902474 2.581651
0.997839 2.970227 2.680328
0.874286 3.049310 2.590080
0.917866 3.032557 2.644602
1.028727 2.889911 2.601349
1.011683 2.821120 2.568869
0.948672 3.053930 2.613652
0.957474 2.926459 2.576930
0.995476 2.975209 2.566782
1.034710 2.935189 2.610491
0.914711 3.017205 2.616250
0.962323 3.125973 2.570628
0.962416 2.940491 2.569386
1.059056 3.004053 2.646622
0.907824 3.031659 2.581714
1.100146 2.278703 2.688966
0.962889 2.977253 2.549700
1.104887 2.224255 2.654552
1.093834 2.462490 2.713602
1.091445 2.144972 2.569226
1.088592 2.400059 2.702170
1.112048 2.128269 2.574577
1.077102 2.296278 2.559083
1.046993 2.532246 2.636042
1.111950 2.070543 2.520157
1.076492 2.246071 2.561576
1.073614 2.503219 2.714564
1.128448 2.056764 2.523443
1.103440 2.228040 2.512990
1.070254 2.434635 2.557189
1.012525 2.632315 2.575388
1.101848 2.176807 2.516487
1.062747 2.341194 2.564033
1.053742 2.612963 2.702947
1.047440 2.547093 2.510504
1.100644 2.288356 2.534884
1.088861 2.258856 2.638077
1.049854 2.451140 2.555446
1.074099 2.431228 2.652861
1.106728 2.173180 2.566074
1.137947 2.496301 2.624803
1.083838 2.316101 2.549049
1.145270 2.131433 2.546829
