# .PCD v0.7 - Point Cloud Data file format
VERSION 0.7
FIELDS x y z
SIZE 4 4 4
TYPE F F F
COUNT 1 1 1
WIDTH 24
HEIGHT 1
VIEWPOINT 0 0 0 1
POINTS 24
DATA ascii
-1.328452 1.966231 1.753532
-1.330854 2.052549 1.713481
-1.285392 1.993425 1.750802
-1.318062 2.136054 1.759397
-1.227201 1.992929 1.727759
-1.333606 2.246081 1.740622
-1.264958 2.155352 1.752581
-1.299720 2.309899 1.768314
-1.174504 2.105446 1.691979
-1.315099 2.372107 1.737010
-1.305143 2.391085 1.742217
-1.308250 2.411095 1.738440
-1.313375 2.434072 1.736698
-1.316470 2.466599 1.778064
-1.224448 2.297569 1.739142
-1.272195 2.429137 1.749627
-1.259191 2.438170 1.751723
-1.259273 2.454210 1.746902
-1.270461 2.489044 1.755295
-1.253378 2.490882 1.778311
-1.192911 2.413909 1.713427
-1.170790 2.401132 1.703277
-1.171869 2.416147 1.700446
-1.176989 2.439063 1.704703
