# .PCD v0.7 - Point Cloud Data file format
VERSION 0.7
FIELDS x y z
SIZE 4 4 4
TYPE F F F
COUNT 1 1 1
WIDTH 30
HEIGHT 1
VIEWPOINT 0 0 0 1
POINTS 30
DATA ascii
1.931917 -0.870593 2.568915
1.891257 -0.903943 2.538649
1.868196 -0.943159 2.531487
1.860743 -0.991137 2.545338
1.884765 -1.112259 2.498831
1.856182 -1.042302 2.565159
1.909039 -1.069637 2.543199
1.890924 -1.171888 2.530602
1.868349 -1.101162 2.518997
1.874659 -1.219455 2.533360
1.859836 -1.152214 2.536778
1.877868 -1.279960 2.562079
1.952813 -1.421180 2.535870
1.888075 -1.267153 2.503713
1.895477 -1.443150 2.498698
1.905409 -1.409083 2.496691
1.880426 -1.323403 2.529403
1.872227 -1.487721 2.505456
1.901631 -1.471489 2.526295
1.895174 -1.402716 2.501842
1.883213 -1.524286 2.539937
1.879611 -1.458762 2.524449
1.940078 -1.707749 2.499596
1.905374 -1.526534 2.477407
1.919420 -1.659014 2.491558
1.885526 -1.735149 2.477374
1.891681 -1.587784 2.506952
1.898920 -1.714929 2.511143
1.893214 -1.691990 2.487732
1.932862 -1.864912 2.478474
