# .PCD v0.7 - Point Cloud Data file format
VERSION 0.7
FIELDS x y z
SIZE 4 4 4
TYPE F F F
COUNT 1 1 1
WIDTH 299
HEIGHT 1
VIEWPOINT 0 0 0 1
POINTS 299
DATA ascii
-0.413045 -2.276733 -0.094424
-0.422991 -2.270920 -0.063357
-0.423971 -2.277857 -0.094345
-0.460002 -2.272237 -0.091213
-0.460768 -2.274440 -0.015214
-0.432937 -2.276971 -0.087297
-0.471802 -2.273507 -0.035156
-0.459627 -2.279479 0.001804
-0.432004 -2.270923 -0.105246
-0.464984 -2.268295 -0.092137
-0.441979 -2.275983 -0.123210
-0.463499 -2.283564 0.016841
-0.446619 -2.279320 -0.011195
-0.476828 -2.272498 -0.062088
-0.497234 -2.281165 0.115955
-0.475897 -2.271411 -0.094061
-0.466458 -2.280616 0.021904
-0.496303 -2.281057 0.074990
-0.512868 -2.270806 -0.087936
-0.514587 -2.277020 -0.011945
-0.485853 -2.271532 -0.088009
-0.524677 -2.271072 -0.032874
-0.499390 -2.278995 0.036041
-0.512519 -2.275046 0.004091
-0.532992 -2.278688 0.172150
-0.485901 -2.267490 -0.106958
-0.519836 -2.285626 0.199101
-0.518844 -2.267868 -0.090855
-0.494913 -2.269536 -0.125917
-0.515456 -2.273115 0.017142
-0.500539 -2.272887 -0.012896
-0.529720 -2.269057 -0.061801
-0.549158 -2.272720 0.118253
-0.528795 -2.267966 -0.094773
-0.548255 -2.270606 0.075295
-0.519404 -2.271174 0.021209
-0.565782 -2.264369 -0.084636
-0.567526 -2.266586 -0.007626
-0.538763 -2.266085 -0.088709
-0.577315 -2.280615 0.350386
-0.575625 -2.260613 -0.029567
-0.551333 -2.269538 0.035346
-0.565404 -2.270605 0.006387
-0.585852 -2.275254 0.176443
-0.572382 -2.284446 0.302385
-0.539796 -2.264047 -0.109662
-0.571750 -2.277177 0.201403
-0.572717 -2.265432 -0.089561
-0.564693 -2.274168 0.224403
-0.545903 -2.257061 -0.128610
-0.568598 -2.273290 0.255426
-0.568356 -2.267668 0.017438
-0.581672 -2.258600 -0.060494
-0.553469 -2.265433 -0.015595
-0.601058 -2.266267 0.120547
-0.559590 -2.277155 0.237404
-0.567648 -2.280143 0.200436
-0.582711 -2.261523 -0.095471
-0.571332 -2.263710 0.019502
-0.601171 -2.263156 0.075594
-0.618698 -2.256923 -0.081336
-0.620393 -2.264144 -0.003348
-0.589787 -2.249612 -0.089398
-0.628222 -2.273153 0.352670
-0.617547 -2.299405 0.489573
-0.629524 -2.255175 -0.027274
-0.604271 -2.261082 0.033643
-0.617374 -2.258148 0.008692
-0.639778 -2.282552 0.459702
-0.638766 -2.266813 0.180741
-0.625282 -2.277998 0.302676
-0.592734 -2.256589 -0.111368
-0.626613 -2.273756 0.204695
-0.624685 -2.253970 -0.088258
-0.617603 -2.266721 0.225698
-0.599847 -2.248612 -0.130307
-0.622491 -2.267848 0.254720
-0.621290 -2.259215 0.017737
-0.634582 -2.253145 -0.060204
-0.654922 -2.263828 0.122834
-0.607410 -2.256983 -0.018292
-0.613453 -2.274715 0.237689
-0.634663 -2.252056 -0.095173
-0.621576 -2.271697 0.198740
-0.655050 -2.259712 0.076885
-0.672323 -2.255683 -0.000051
-0.670641 -2.247461 -0.078035
-0.626235 -2.258273 0.018803
-0.643701 -2.244159 -0.091100
-0.652443 -2.285838 0.514824
-0.635412 -2.284703 0.527776
-0.681095 -2.268704 0.354959
-0.667564 -2.279927 0.490893
-0.681448 -2.247710 -0.024978
-0.664226 -2.290081 0.560873
-0.658186 -2.254632 0.032945
-0.690737 -2.268090 0.464014
-0.671256 -2.254701 0.009985
-0.691679 -2.258366 0.185045
-0.678211 -2.268543 0.302982
-0.679519 -2.266306 0.207995
-0.645702 -2.246121 -0.114058
-0.677603 -2.247510 -0.086960
-0.673419 -2.268300 0.227985
-0.653770 -2.243150 -0.134007
-0.676375 -2.263398 0.254017
-0.677124 -2.260784 0.018025
-0.662472 -2.276917 0.502942
-0.706865 -2.253362 0.125141
-0.689487 -2.247701 -0.059897
-0.661315 -2.252525 -0.020995
-0.665409 -2.263246 0.236997
-0.689555 -2.248609 -0.095872
-0.676482 -2.265253 0.197049
-0.711851 -2.264288 0.077171
-0.725239 -2.248225 0.003254
-0.725492 -2.247021 -0.074742
-0.678201 -2.246798 0.018114
-0.707272 -2.284410 0.518117
-0.698564 -2.243709 -0.091808
-0.732032 -2.258226 0.356264
-0.687348 -2.273239 0.528086
-0.721422 -2.275490 0.495192
-0.734368 -2.240247 -0.022671
-0.717150 -2.279625 0.561186
-0.727085 -2.256269 0.012277
-0.750418 -2.279721 0.473293
-0.713062 -2.252183 0.032245
-0.748468 -2.261953 0.190337
-0.732096 -2.263093 0.304287
-0.733395 -2.261860 0.211296
-0.700582 -2.244666 -0.116762
-0.734422 -2.251080 -0.086668
-0.727309 -2.262848 0.229290
-0.708669 -2.239693 -0.136702
-0.730287 -2.255942 0.253329
-0.730067 -2.251316 0.018339
-0.760722 -2.251908 0.127435
-0.716380 -2.268466 0.502256
-0.744329 -2.249250 -0.059608
-0.716215 -2.248071 -0.022687
-0.721249 -2.262812 0.237296
-0.743468 -2.243144 -0.096564
-0.731416 -2.255802 0.195374
-0.763792 -2.254810 0.078481
-0.781082 -2.247791 0.007557
-0.779401 -2.240564 -0.071429
-0.735030 -2.249362 0.016411
-0.783944 -2.249754 0.358572
-0.762130 -2.279974 0.521426
-0.746060 -2.282849 0.533369
-0.753459 -2.240251 -0.093500
-0.776312 -2.267056 0.499516
-0.789238 -2.237797 -0.020365
-0.772023 -2.274181 0.561499
-0.767930 -2.250727 0.031546
-0.781973 -2.251820 0.014589
-0.803349 -2.267267 0.478621
-0.801399 -2.251491 0.194659
-0.784027 -2.253613 0.304599
-0.789248 -2.259425 0.214607
-0.756471 -2.242212 -0.119451
-0.788339 -2.244615 -0.085354
-0.780246 -2.252380 0.230611
-0.783208 -2.247471 0.253644
-0.813656 -2.242435 0.128755
-0.763579 -2.235228 -0.139389
-0.785931 -2.249870 0.018647
-0.798244 -2.242785 -0.058293
-0.770337 -2.255002 0.499593
-0.772117 -2.243617 -0.025368
-0.776139 -2.257360 0.237612
-0.800330 -2.242701 -0.097252
-0.782426 -2.239302 0.192707
-0.815788 -2.239323 0.078818
-0.834993 -2.240331 0.011878
-0.833310 -2.234100 -0.068111
-0.833930 -2.234250 0.358900
-0.790918 -2.245909 0.014728
-0.815076 -2.266510 0.523760
-0.799962 -2.274392 0.534691
-0.807391 -2.232777 -0.094179
-0.829216 -2.257594 0.503837
-0.842177 -2.228320 -0.018041
-0.835902 -2.243351 0.015914
-0.858226 -2.259827 0.484948
-0.820932 -2.235241 0.029890
-0.835004 -2.239117 0.304929
-0.853367 -2.237012 0.198995
-0.840242 -2.242933 0.216944
-0.843245 -2.239153 -0.084032
-0.812387 -2.236750 -0.122124
-0.834172 -2.242914 0.231941
-0.864644 -2.226939 0.131092
-0.836187 -2.232987 0.251987
-0.817546 -2.224746 -0.142055
-0.838910 -2.236387 0.018986
-0.851236 -2.228300 -0.057949
-0.832077 -2.261624 0.502911
-0.828112 -2.243869 0.236945
-0.825116 -2.229126 -0.028025
-0.854281 -2.233221 -0.097919
-0.868736 -2.228838 0.079149
-0.886260 -2.223617 -0.065779
-0.886973 -2.225842 0.015219
-0.841274 -2.237876 0.192039
-0.893661 -2.242849 0.364203
-0.849972 -2.255881 0.533031
-0.844879 -2.234431 0.014067
-0.871899 -2.265081 0.528080
-0.863312 -2.226313 -0.095844
-0.887005 -2.259179 0.510153
-0.896112 -2.218846 -0.015706
-0.917008 -2.261425 0.493271
-0.888883 -2.228867 0.018262
-0.873895 -2.223752 0.029227
-0.908252 -2.230557 0.204326
-0.888937 -2.228643 0.305268
-0.895141 -2.235474 0.220277
-0.898169 -2.231683 -0.082698
-0.867331 -2.228274 -0.123787
-0.888105 -2.232441 0.233280
-0.917574 -2.217454 0.133424
-0.889125 -2.222501 0.252321
-0.892868 -2.224907 0.019330
-0.872505 -2.215263 -0.145713
-0.905180 -2.218817 -0.057612
-0.889936 -2.257191 0.503250
-0.884985 -2.239424 0.238280
-0.880074 -2.218647 -0.030679
-0.907269 -2.219724 -0.098572
-0.921702 -2.216346 0.079494
-0.941872 -2.219377 0.019553
-0.943128 -2.221167 -0.062448
-0.946568 -2.234368 0.367532
-0.894257 -2.223382 0.190389
-0.899824 -2.224953 0.012411
-0.915310 -2.211805 -0.096498
-0.948075 -2.206348 -0.012365
-0.942804 -2.221384 0.019595
-0.943826 -2.222177 0.307603
-0.967056 -2.232137 0.210654
-0.929806 -2.217283 0.028568
-0.951030 -2.229017 0.223618
-0.950178 -2.215178 -0.081342
-0.922296 -2.217787 -0.126437
-0.945928 -2.233003 0.236607
-0.969535 -2.204951 0.134767
-0.948932 -2.225075 0.252653
-0.945836 -2.212410 0.019677
-0.960114 -2.210337 -0.057267
-0.929421 -2.209794 -0.148368
-0.938943 -2.226938 0.237632
-0.947820 -2.249752 0.504606
-0.936009 -2.210172 -0.032329
-0.969074 -2.225302 -0.100239
-1.005372 -2.235939 0.371864
-0.978571 -2.213884 0.079829
-0.996092 -2.208672 -0.059098
-1.002662 -2.224957 0.021882
-0.950205 -2.211909 0.188751
-0.955766 -2.215476 0.010766
-0.976138 -2.215370 -0.099161
-1.008877 -2.210923 -0.011031
-1.000681 -2.217931 0.020941
-1.021963 -2.223665 0.215002
-0.998727 -2.214700 0.308948
-0.988681 -2.214832 0.026916
-1.003990 -2.215523 0.225973
-1.008064 -2.211720 -0.080995
-0.979234 -2.210309 -0.130081
-1.003810 -2.227553 0.237961
-1.029342 -2.207521 0.138104
-1.004863 -2.214602 0.253015
-1.007630 -2.217990 0.020014
-1.014072 -2.198842 -0.055911
-0.984399 -2.198295 -0.152007
-0.991928 -2.211434 0.236996
-0.991965 -2.199686 -0.034966
-1.061231 -2.232472 0.375201
-1.033523 -2.202396 0.080192
-1.007122 -2.203441 0.188114
-1.011718 -2.204992 0.009131
-1.060505 -2.219287 0.312291
-1.079840 -2.217220 0.221365
-1.046590 -2.208366 0.026279
-1.061871 -2.209073 0.230336
-1.087203 -2.205062 0.140453
-1.059729 -2.218079 0.240323
-1.062748 -2.209141 0.253376
-1.055691 -2.218035 0.239345
-1.118134 -2.224005 0.377567
-1.062106 -2.187943 0.186497
-1.119364 -2.215835 0.314652
-1.125620 -2.216674 0.235684
-1.119585 -2.214637 0.243691
-1.121632 -2.203681 0.253746
-1.116559 -2.213595 0.240724
-1.174044 -2.214523 0.380937
