# .PCD v0.7 - Point Cloud Data file format
VERSION 0.7
FIELDS x y z
SIZE 4 4 4
TYPE F F F
COUNT 1 1 1
WIDTH 503
HEIGHT 1
VIEWPOINT 0 0 0 1
POINTS 503
DATA ascii
1.280276 -2.536425 -0.124326
1.278218 -2.538997 -0.086276
1.264630 -2.515783 0.028435
1.266029 -2.534315 -0.017293
1.256621 -2.514684 0.044451
1.263197 -2.533042 -0.075307
1.242686 -2.515663 0.059522
1.251033 -2.539757 0.043853
1.239134 -2.526783 -0.030304
1.241978 -2.541283 0.091916
1.201509 -2.518262 -0.116292
1.200430 -2.519815 -0.078261
1.195055 -2.513535 0.032676
1.193495 -2.519751 0.263798
1.193519 -2.520787 0.260814
1.194392 -2.527098 -0.013119
1.186017 -2.509469 0.046652
1.186494 -2.516805 0.265782
1.189572 -2.525858 -0.071124
1.174105 -2.512447 0.059747
1.179361 -2.529555 0.045985
1.170621 -2.528569 -0.029001
1.168334 -2.532084 0.095073
1.169213 -2.538194 0.167169
1.159128 -2.540499 0.233253
1.153841 -2.547705 0.384399
1.130879 -2.512016 -0.109095
1.129848 -2.516575 -0.072018
1.123418 -2.505312 0.036848
1.123882 -2.511602 0.256962
1.123911 -2.514539 0.262008
1.122784 -2.520896 -0.009916
1.115410 -2.503257 0.048851
1.118946 -2.515532 0.267044
1.115842 -2.510666 -0.066048
1.103448 -2.502259 0.059888
1.107734 -2.521368 0.047161
1.099926 -2.516373 -0.026889
1.098774 -2.529827 0.099333
1.096535 -2.525987 0.169291
1.090475 -2.531260 0.233404
1.087081 -2.545536 0.455658
1.082256 -2.541471 0.384610
1.073588 -2.524445 0.555404
1.081970 -2.547792 0.519721
0.807443 -1.856076 -0.055701
0.804326 -1.851764 -0.027750
1.055836 -2.502044 0.041091
1.059344 -2.511336 0.255238
1.058406 -2.516271 0.261318
1.051027 -2.503685 -0.005867
1.046788 -2.496037 0.050040
1.057653 -2.523446 0.568461
0.800511 -1.861785 -0.025575
1.050372 -2.511273 0.268278
1.036863 -2.498039 0.059116
1.042148 -2.518114 0.048399
0.787584 -1.863600 0.001519
1.034702 -2.517534 0.580474
1.028087 -2.517586 0.103459
1.032029 -2.528687 0.171618
1.041749 -2.559164 0.762097
1.023893 -2.527012 0.232635
1.020520 -2.542262 0.453905
1.003916 -2.510268 0.547499
1.011647 -2.533230 0.384800
1.013332 -2.537559 0.515872
0.698870 -1.689143 -0.039739
0.711266 -1.726719 -0.017217
0.992761 -2.506111 0.252459
0.739025 -1.806506 0.053885
0.990752 -2.506032 0.260468
0.710314 -1.736237 0.021939
0.731943 -1.797526 0.058783
0.987981 -2.509255 0.561559
0.687770 -1.679947 -0.013821
0.982760 -2.504020 0.268475
0.725028 -1.799543 0.063851
0.705428 -1.746838 0.058134
0.674760 -1.674798 0.010171
0.968089 -2.509269 0.576653
0.960271 -2.509487 0.172654
0.688287 -1.733530 0.098021
0.968844 -2.539163 0.819131
0.967018 -2.537997 0.755116
0.957204 -2.511768 0.938777
0.957260 -2.518755 0.232816
0.963826 -2.547401 0.882287
0.951856 -2.530018 0.452036
0.940388 -2.508986 0.542776
0.948783 -2.535256 0.514137
0.944041 -2.525959 0.385004
0.650082 -1.670666 -0.034764
0.929179 -2.501855 0.249692
0.651124 -1.678347 -0.010647
0.664426 -1.719319 0.057925
0.928214 -2.505737 0.259757
0.929478 -2.518826 0.954019
0.924424 -2.505960 0.557807
0.651096 -1.689425 0.061532
0.644988 -1.671947 0.026290
0.920246 -2.505697 0.269796
0.637940 -1.657492 -0.009900
0.920510 -2.509379 0.917913
0.638973 -1.673530 0.064352
0.642168 -1.687555 0.059552
0.634230 -1.677279 0.010431
0.906598 -2.511921 0.574987
0.639310 -1.709531 0.141919
0.633303 -1.697156 0.098755
0.902272 -2.532858 0.815353
0.893642 -2.506464 0.931000
0.643510 -1.732950 0.183264
0.899450 -2.531699 0.752342
0.897196 -2.536143 0.874433
0.884235 -2.520750 0.451220
0.874718 -2.495761 0.535891
0.882122 -2.523008 0.510270
0.878509 -2.524638 0.387301
0.617902 -1.702045 -0.033095
0.620414 -1.712097 0.192069
0.622486 -1.719955 0.201181
0.605248 -1.666976 0.060439
0.613768 -1.694770 -0.008183
0.863824 -2.505560 0.945135
0.603295 -1.668973 0.062481
0.859840 -2.499680 0.554026
0.612764 -1.700315 0.027913
0.620649 -1.730869 0.209362
0.610911 -1.701831 -0.010057
0.855938 -2.502116 0.908117
0.598404 -1.673004 0.064572
0.605822 -1.704980 0.060028
0.604063 -1.710653 0.010122
0.839877 -2.494667 0.571050
0.601936 -1.724928 0.144369
0.830049 -2.498178 0.922188
0.836648 -2.522562 0.810519
0.594897 -1.709573 0.101166
0.606153 -1.749366 0.183730
0.831824 -2.520421 0.748504
0.832544 -2.523855 0.867565
0.814425 -2.495553 0.447181
0.810066 -2.483529 0.529026
0.818515 -2.515715 0.507476
0.633664 -1.892412 0.308810
0.583006 -1.724527 0.191476
0.584100 -1.733381 0.201609
0.802239 -2.499213 0.939347
0.570986 -1.691352 0.063017
0.796151 -2.485423 0.548128
0.569037 -1.693375 0.063059
0.584307 -1.749244 0.211856
0.792328 -2.491863 0.897281
0.567248 -1.706382 0.064273
0.778332 -2.492327 0.569328
0.570790 -1.760252 0.147099
0.768460 -2.490863 0.914391
0.776153 -2.524171 0.808853
0.572979 -1.781708 0.186424
0.564857 -1.752878 0.105015
0.769924 -2.514535 0.861742
0.767288 -2.517070 0.747784
0.567782 -1.792719 0.340640
0.568708 -1.798937 0.398737
0.574015 -1.821059 0.385049
0.558844 -1.782404 0.296528
0.552910 -1.763844 0.193264
0.739565 -2.484911 0.931452
0.551948 -1.767708 0.204331
0.557768 -1.797852 0.413786
0.546970 -1.767618 0.215360
0.730747 -2.484567 0.888489
0.546985 -1.807747 0.430004
0.536593 -1.790614 0.149772
0.709968 -2.492463 0.910723
0.710467 -2.507896 0.802948
0.534593 -1.796126 0.187874
0.709361 -2.510168 0.857994
0.701652 -2.504776 0.743941
0.529311 -1.808562 0.383117
0.523000 -1.784489 0.393782
0.523164 -1.786200 0.340802
0.681035 -2.483510 0.927743
0.515354 -1.785850 0.298840
0.514644 -1.788125 0.204870
0.514138 -1.790364 0.409928
0.671192 -2.480226 0.881741
0.507571 -1.780044 0.216788
0.502292 -1.795256 0.427077
0.649319 -2.480161 0.901862
0.648700 -2.497836 0.852133
0.648873 -2.500539 0.800168
0.640104 -2.501386 0.744224
0.484591 -1.794081 0.380162
0.481423 -1.781969 0.390995
0.482691 -1.792619 0.342147
0.622383 -2.472160 0.920889
0.474878 -1.792263 0.301186
0.472599 -1.790813 0.409188
0.611582 -2.470918 0.872926
0.461793 -1.799663 0.428394
0.589706 -2.470824 0.895049
0.590120 -2.492455 0.848375
0.587223 -2.488200 0.796321
0.444053 -1.795511 0.380435
0.577510 -2.493038 0.742445
0.440922 -1.785424 0.389299
0.443328 -1.807999 0.345629
0.564789 -2.465759 0.917114
0.432041 -1.790268 0.407431
0.435568 -1.811635 0.305730
0.552968 -2.461592 0.865112
0.421284 -1.803086 0.428700
0.532080 -2.461457 0.889232
0.532562 -2.489053 0.845650
0.527577 -2.476844 0.792485
0.408944 -1.832807 0.386233
0.404763 -1.817758 0.393028
0.407078 -1.834329 0.350265
0.515861 -2.480683 0.740607
0.508217 -2.461335 0.914371
0.418411 -1.955976 0.438081
0.494347 -2.451269 0.857291
0.479005 -2.432667 0.555066
0.475516 -2.457068 0.884493
0.473878 -2.474696 0.840769
0.469001 -2.471435 0.791743
0.461336 -2.440762 0.136253
0.458664 -2.457722 0.495564
0.453262 -2.424731 0.499090
0.454739 -2.451458 0.446487
0.456264 -2.473281 0.740841
0.451589 -2.451944 0.909558
0.442474 -2.439432 0.528383
0.438832 -2.428636 -0.047817
0.442069 -2.458331 0.394662
0.432202 -2.400945 0.076809
0.435749 -2.427178 -0.012818
0.437825 -2.449884 0.852602
0.432350 -2.410099 0.065948
0.433584 -2.420666 0.025099
0.431835 -2.411140 0.274987
0.430732 -2.419481 -0.029908
0.424272 -2.397324 0.056799
0.426671 -2.429280 0.058275
0.426608 -2.445173 0.558568
0.419862 -2.425402 -0.014751
0.418906 -2.448697 0.878699
0.417296 -2.469289 0.838021
0.409400 -2.422649 0.187290
0.411511 -2.440996 0.231563
0.412499 -2.472977 0.793102
0.403697 -2.432401 0.139469
0.404157 -2.460306 0.495928
0.397774 -2.427353 0.497462
0.396996 -2.446507 0.906800
0.397190 -2.449070 0.447793
0.396637 -2.462895 0.740037
0.383021 -2.384388 0.226866
0.385854 -2.431079 0.525593
0.381080 -2.392080 0.249998
0.383315 -2.431267 -0.043443
0.382367 -2.442979 0.395784
0.382273 -2.446494 0.847883
0.378772 -2.410559 0.079279
0.380233 -2.429804 -0.008444
0.375662 -2.397769 0.067100
0.374086 -2.392801 0.275054
0.377007 -2.417326 0.027388
0.374038 -2.407153 -0.027755
0.369691 -2.393999 0.056078
0.368885 -2.408965 0.059312
0.369911 -2.430818 0.555689
0.363171 -2.413086 -0.013597
0.363255 -2.437321 0.872860
0.360656 -2.458902 0.834202
0.354840 -2.429653 0.231731
0.352728 -2.411299 0.188459
0.354816 -2.458608 0.789229
0.345949 -2.415044 0.142553
0.347481 -2.447949 0.494082
0.342029 -2.409043 0.491519
0.342395 -2.440072 0.904032
0.340562 -2.440690 0.448009
0.338043 -2.455486 0.740279
0.328313 -2.370067 0.223981
0.330179 -2.418720 0.522743
0.323088 -2.353781 0.247767
0.323293 -2.391928 -0.037679
0.325612 -2.433164 0.840023
0.321995 -2.391201 0.082330
0.324743 -2.434591 0.398007
0.321041 -2.391416 0.068338
0.323547 -2.418431 -0.003271
0.318376 -2.378427 0.276176
0.319070 -2.384992 0.030248
0.317348 -2.394813 -0.024596
0.315127 -2.391677 0.055377
0.314124 -2.409457 0.552703
0.311999 -2.380643 0.060228
0.308705 -2.434876 0.871156
0.308767 -2.423774 -0.014100
0.305034 -2.450477 0.832414
0.299198 -2.412900 0.190813
0.299140 -2.416301 0.231870
0.298235 -2.453171 0.789492
0.287918 -2.374693 0.145295
0.291753 -2.431584 0.492174
0.286450 -2.403689 0.488780
0.287750 -2.429656 0.900209
0.283741 -2.416346 0.445986
0.281495 -2.453027 0.742589
0.276041 -2.391675 0.224636
0.275515 -2.407352 0.519907
0.274050 -2.396302 0.251722
0.271044 -2.428756 0.836293
0.268427 -2.389806 0.085642
0.269119 -2.427182 0.400238
0.266473 -2.389066 0.069641
0.265998 -2.391998 0.278709
0.263053 -2.346638 0.033011
0.260514 -2.385359 0.054620
0.258491 -2.383295 0.060602
0.254065 -2.424482 0.866336
0.250433 -2.444045 0.830654
0.244391 -2.398956 0.230946
0.242298 -2.382558 0.191705
0.242649 -2.447726 0.789755
0.237180 -2.428177 0.492462
0.235102 -2.420208 0.897393
0.234515 -2.386271 0.149807
0.230584 -2.374403 0.481683
0.229202 -2.415917 0.448321
0.222466 -2.388332 0.222921
0.223863 -2.442612 0.742790
0.218321 -2.350138 0.508393
0.219469 -2.391952 0.250998
0.215417 -2.418394 0.830482
0.212392 -2.386603 0.279964
0.211018 -2.378865 0.397866
0.200514 -2.422048 0.863635
0.195845 -2.438599 0.829914
0.189377 -2.359618 0.229695
0.188887 -2.393160 0.194205
0.185990 -2.435310 0.788922
0.182549 -2.418716 0.897702
0.182228 -2.392855 0.487271
0.178332 -2.397942 0.484373
0.174380 -2.391556 0.446297
0.168180 -2.384589 0.515237
0.166882 -2.388566 0.251281
0.166222 -2.431184 0.743980
0.159789 -2.382184 0.282232
0.157881 -2.412354 0.405715
0.154366 -2.397167 0.553520
0.146641 -2.391729 0.853516
0.142217 -2.430162 0.828125
0.137205 -2.390201 0.232494
0.132381 -2.428849 0.789165
0.128750 -2.397426 0.488682
0.125547 -2.376614 0.478386
0.121629 -2.374142 0.446370
0.115604 -2.381177 0.514522
0.111641 -2.426712 0.746261
0.104084 -2.390945 0.406734
0.102707 -2.387740 0.552709
0.089513 -2.415734 0.825244
0.078311 -2.381564 0.777794
0.076155 -2.392991 0.489954
0.072927 -2.369226 0.476613
0.068229 -2.385676 0.450891
0.063030 -2.377768 0.513810
0.056734 -2.393351 0.741109
0.054580 -2.394190 0.818143
0.050130 -2.384310 0.552997
0.036814 -2.401307 0.822366
0.024845 -2.387045 0.782224
0.002191 -2.391850 0.745441
-0.029617 -2.392522 0.787662
1.209932 -2.504477 0.105870
1.213273 -2.525407 0.141535
1.200274 -2.520283 0.048408
1.181289 -2.513621 0.287439
1.141290 -2.497496 0.104093
1.145690 -2.522375 0.140878
1.131631 -2.513284 0.047634
1.135908 -2.530823 0.336311
1.113631 -2.505687 0.282629
1.075637 -2.490478 0.102308
1.079076 -2.517363 0.139163
1.075951 -2.507791 0.570096
0.816413 -1.845187 0.057398
1.069248 -2.522811 0.333503
1.062426 -2.529505 0.619908
1.044924 -2.493773 0.277711
0.763998 -1.793806 0.095148
0.733977 -1.720439 0.121022
1.011395 -2.505826 0.563474
0.713514 -1.683541 0.058955
1.003608 -2.515758 0.331729
0.996743 -2.519497 0.615041
0.981394 -2.493785 0.273152
0.678645 -1.670038 0.092804
0.683055 -1.695194 0.119595
0.942560 -2.485026 0.553289
0.675077 -1.692116 0.058526
0.940013 -2.511678 0.330048
0.949184 -2.522394 0.976655
0.932672 -2.485029 0.928550
0.935223 -2.520369 0.612505
0.668376 -1.703725 0.210031
0.637036 -1.666659 0.092020
0.645661 -1.706715 0.120259
0.881051 -2.485998 0.547762
0.645048 -1.728621 0.056938
0.886502 -2.512383 0.968783
0.876359 -2.503605 0.328249
0.869138 -2.483084 0.918945
0.871525 -2.509341 0.607611
0.630967 -1.714321 0.207665
0.609077 -1.708128 0.090580
0.614586 -1.740197 0.119585
0.631607 -1.806149 0.414727
0.823796 -2.500407 0.959857
0.616153 -1.774108 0.055633
0.619325 -1.784093 0.255032
0.807546 -2.478124 0.909237
0.628081 -1.830825 0.460574
0.597808 -1.741792 0.207816
0.586547 -1.778540 0.089031
0.586810 -1.793597 0.120530
0.579584 -1.773121 0.405075
0.764190 -2.495299 0.954139
0.575712 -1.779720 0.254242
0.581257 -1.812591 0.455360
0.742773 -2.460309 0.896149
0.565818 -1.780244 0.208316
0.705565 -2.489183 0.948389
0.536989 -1.769800 0.401315
0.536265 -1.787285 0.253809
0.535435 -1.794347 0.450144
0.682189 -2.455314 0.887452
0.534973 -1.828647 0.210129
0.646883 -2.479104 0.941520
0.498605 -1.781356 0.400006
0.507541 -1.844557 0.258894
0.623593 -2.450269 0.879746
0.590238 -2.471939 0.936736
0.461373 -1.802832 0.401013
0.563981 -2.443273 0.870993
0.533616 -2.465776 0.931991
0.511500 -2.391230 0.503559
0.515566 -2.458670 0.585732
0.505382 -2.437236 0.863270
0.476888 -2.452684 0.925030
0.460440 -2.422890 0.504994
0.459919 -2.451494 0.582956
0.447685 -2.425228 0.854353
0.422306 -2.449438 0.922375
0.411291 -2.394786 0.079282
0.409533 -2.408344 0.126756
0.402680 -2.406854 0.498956
0.402715 -2.412740 0.310048
0.405331 -2.448272 0.581304
0.391125 -2.422111 0.848721
0.383737 -2.405317 0.235931
0.366643 -2.440242 0.918543
0.356597 -2.384686 0.076416
0.352655 -2.385211 0.125491
0.348115 -2.408535 0.309371
0.345780 -2.381846 0.491629
0.349616 -2.436136 0.577380
0.342680 -2.383208 0.034465
0.334599 -2.420965 0.844157
0.327964 -2.389210 0.232883
0.312937 -2.429090 0.912635
0.303067 -2.385537 0.074896
0.299186 -2.390019 0.125098
0.293381 -2.395371 0.307412
0.293817 -2.418008 0.573269
0.289088 -2.380069 0.032819
0.277833 -2.403960 0.835090
0.274346 -2.384072 0.230174
0.259416 -2.429742 0.913112
0.249418 -2.378428 0.072126
0.245552 -2.383870 0.123359
0.239780 -2.391189 0.305736
0.240187 -2.411784 0.571527
0.237688 -2.379524 0.485473
0.219740 -2.378952 0.227478
0.205733 -2.419530 0.909244
0.186152 -2.384981 0.305000
0.186545 -2.404564 0.569757
0.183148 -2.378358 0.482905
0.167000 -2.365811 0.224512
0.133531 -2.379792 0.303290
0.130357 -2.361275 0.476815
0.113012 -2.385505 0.820915
0.082083 -2.379130 0.564851
0.076754 -2.356107 0.474117
0.058334 -2.374392 0.815035
0.029412 -2.369907 0.563017
