# .PCD v0.7 - Point Cloud Data file format
VERSION 0.7
FIELDS x y z
SIZE 4 4 4
TYPE F F F
COUNT 1 1 1
WIDTH 832
HEIGHT 1
VIEWPOINT 0 0 0 1
POINTS 832
DATA ascii
0.134512 1.893373 0.555836
0.142266 1.981740 0.901581
0.139652 1.893519 0.538871
0.163994 1.902065 0.868118
0.178836 1.903477 0.560213
0.183162 1.900104 0.871232
0.185039 1.892633 0.542172
0.094379 1.921007 0.841915
0.208360 1.906177 0.872446
0.221682 1.893587 0.301410
0.228047 1.937543 0.571797
0.229551 1.901206 0.877573
0.239110 1.955645 0.563029
0.243010 1.892837 0.276568
0.136026 1.880262 0.825910
0.146489 1.893278 0.566065
0.251776 1.902308 0.873726
0.150775 1.890619 0.523071
0.063306 1.892181 0.801626
0.267074 1.892698 0.303726
0.268585 1.907708 0.565860
0.275967 1.899317 0.882861
0.278786 1.899836 0.552867
0.281255 1.900268 0.102864
0.182287 1.906325 0.837412
0.289398 1.892943 0.279871
0.188099 1.893925 0.892360
0.294179 1.898428 0.875971
0.190907 1.889403 0.567329
0.199963 1.934682 0.534726
0.110554 1.924239 0.814183
0.312438 1.896810 0.306048
0.208486 1.893474 0.301461
0.313038 1.897846 0.565072
0.114907 1.896937 0.591995
0.321773 1.894580 0.076080
0.322371 1.899426 0.888158
0.325660 1.893377 0.104097
0.325179 1.899943 0.557164
0.225769 1.893485 0.834599
0.336735 1.902037 0.285240
0.339556 1.901533 0.881282
0.234466 1.901021 0.899714
0.343527 1.894439 -0.029788
0.345630 1.896581 -0.047760
0.345829 1.895854 -0.083766
0.253669 2.017308 0.606689
0.241961 1.893824 0.267679
0.240613 1.885884 0.523623
0.153219 1.883502 0.797156
0.361728 1.918919 0.310523
0.360380 1.907949 0.570446
0.252880 1.891590 0.302734
0.158318 1.894067 0.592259
0.369149 1.895681 0.079387
0.166918 1.895840 0.493323
0.368820 1.891542 0.892392
0.386793 1.963526 0.108000
0.371595 1.895049 0.561420
0.078508 1.894468 0.765858
0.270193 1.891625 0.834870
0.384109 1.905145 0.288560
0.383947 1.901651 0.884560
0.389893 1.895542 -0.027490
0.280878 1.901138 0.904011
0.284615 1.906599 0.579060
0.392017 1.894690 -0.046484
0.393212 1.895965 -0.082469
0.286382 1.886946 0.267911
0.288913 1.906981 0.530087
0.295344 1.894274 0.095014
0.403794 1.901069 0.571664
0.406169 1.907041 0.310711
0.200535 1.902590 0.805605
0.299285 1.889703 0.305014
0.206593 1.920144 0.601764
0.306571 1.894491 0.070085
0.415524 1.894779 0.082668
0.119730 1.889754 0.612085
0.214355 1.894986 0.492622
0.421387 1.904608 0.107777
0.417187 1.896627 0.901729
0.420938 1.905142 0.568799
0.126793 1.923551 0.775390
0.316561 1.898732 0.840214
0.224301 1.898254 0.327701
0.428329 1.900752 0.889827
0.434470 1.912247 0.293921
0.328331 1.897389 -0.041763
0.329403 1.898490 -0.054749
0.327267 1.903240 0.910317
0.519121 2.247052 -0.039122
0.475884 2.050978 -0.050825
0.331044 1.901720 0.581314
0.454387 1.958153 -0.084638
0.335698 1.907068 0.270368
0.334336 1.903113 0.530342
0.449158 1.903171 0.575957
0.341731 1.894387 0.096304
0.244346 1.899857 0.921868
0.452550 1.907153 0.312994
0.246962 1.903734 0.805907
0.248126 1.893312 0.595828
0.347632 1.900815 0.308398
0.351983 1.888608 0.070324
0.466848 1.910901 0.085098
0.164112 1.894879 0.613409
0.259753 1.897117 0.492924
0.469735 1.911721 0.110122
0.263137 1.898066 0.233941
0.464608 1.892730 0.907988
0.471310 1.910237 0.576142
0.361977 1.896858 0.842481
0.170497 1.877828 0.756330
0.268710 1.894377 0.327953
0.271826 1.899980 0.115004
0.472753 1.894875 0.892052
0.479873 1.905348 0.297145
0.183090 1.902132 0.453575
0.375707 1.900509 -0.041448
0.372701 1.897360 0.913553
0.376788 1.899608 -0.054449
0.488617 1.908787 -0.025792
0.378401 1.908822 0.586657
0.486764 1.894898 -0.041906
0.492892 1.917210 -0.080708
0.380033 1.897915 -0.094443
0.380691 1.909218 0.534672
0.189730 1.896951 0.346574
0.383102 1.906189 0.271652
0.495526 1.905277 0.580250
0.288771 1.896990 0.923124
0.404834 1.972542 0.100262
0.498956 1.902265 0.315237
0.292415 1.897882 0.805148
0.296437 1.911403 0.603262
0.396971 1.912922 0.312788
0.427898 2.023819 0.072773
0.515217 1.912004 0.088394
0.215256 1.948921 0.629130
0.309092 1.913230 0.497349
0.516152 1.903833 0.111341
0.308568 1.891195 0.233172
0.513987 1.894810 0.918297
0.518707 1.907337 0.581402
0.408368 1.898971 0.846778
0.518115 1.896972 0.898337
0.315100 1.896498 0.329256
0.220768 1.908901 0.767877
0.319223 1.901104 0.115305
0.528270 1.903457 0.300417
0.433947 1.946678 -0.042760
0.434019 1.946783 -0.056760
0.419111 1.895468 0.918820
0.228562 1.891284 0.450781
0.536000 1.905890 -0.023534
0.425807 1.906931 0.590929
0.539095 1.909025 -0.040493
0.426420 1.896029 -0.094176
0.541279 1.914315 -0.078444
0.427112 1.906351 0.534931
0.234157 1.892089 0.344817
0.429489 1.906308 0.272933
0.333756 1.898715 0.038373
0.540955 1.897400 0.581460
0.334184 1.896111 0.926396
0.436468 1.901612 0.099933
0.547328 1.905383 0.317544
0.338821 1.900010 0.807447
0.339891 1.899537 0.602441
0.442398 1.903030 0.314988
0.247165 1.902718 0.938003
0.454613 1.928872 0.072237
0.251982 1.884161 0.610882
0.561618 1.905107 0.090615
0.563527 1.903949 0.112618
0.354548 1.904375 0.495561
0.354952 1.894320 0.233478
0.565145 1.897447 0.584601
0.563502 1.895075 0.903588
0.561424 1.887919 0.923525
0.359347 1.898322 -0.034478
0.454776 1.898092 0.850049
0.362584 1.901657 -0.078436
0.360514 1.891615 0.330497
0.267244 1.902065 0.765114
0.365613 1.901225 0.115588
0.368762 1.901858 -0.103399
0.578633 1.907557 0.305740
0.466483 1.898557 0.927124
0.468505 1.891731 -0.039955
0.470570 1.896849 -0.054907
0.584380 1.905004 -0.022260
0.275996 1.890426 0.450068
0.474196 1.908034 0.596224
0.474499 1.907465 0.538219
0.279344 1.894370 0.189106
0.588476 1.908134 -0.038214
0.479748 1.916180 -0.095714
0.591658 1.915432 -0.077145
0.280541 1.896210 0.346134
0.476891 1.905435 0.273207
0.387034 1.931863 0.037935
0.588335 1.897507 0.585735
0.380550 1.901204 0.933713
0.596691 1.909495 0.320858
0.487822 1.912740 0.101316
0.291746 1.898862 0.127211
0.387270 1.903646 0.606756
0.386236 1.901140 0.809741
0.290581 1.900855 0.938255
0.489786 1.903144 0.317268
0.497082 1.906984 0.071327
0.300267 1.907245 0.619346
0.611011 1.902212 0.093877
0.611918 1.901058 0.114875
0.400969 1.901506 0.495817
0.609893 1.893180 0.908840
0.406303 1.910459 0.233902
0.500194 1.894216 0.852287
0.612757 1.895982 0.936877
0.406720 1.902448 -0.035165
0.616511 1.901537 0.592924
0.409985 1.900788 -0.080159
0.411818 1.913728 0.334963
0.413009 1.901348 0.115871
0.315668 1.905204 0.766430
0.416145 1.903989 -0.105101
0.628017 1.906661 0.310015
0.513900 1.895667 0.932380
0.522809 1.915879 -0.040464
0.522914 1.910989 -0.055500
0.634759 1.906123 -0.020965
0.519611 1.902150 0.598445
0.636845 1.907239 -0.035946
0.326326 1.910547 0.453519
0.522885 1.909581 0.541515
0.326735 1.898503 0.188423
0.528128 1.916298 -0.095433
0.325947 1.895342 0.345402
0.639058 1.907532 -0.074933
0.525286 1.905558 0.274489
0.635722 1.896621 0.588997
0.442327 1.963024 0.036485
0.425988 1.895331 0.935939
0.646059 1.911608 0.324152
0.534231 1.904843 0.103528
0.335000 1.898987 0.939509
0.337166 1.892987 0.126443
0.434655 1.905754 0.611051
0.432666 1.898273 0.810994
0.340977 1.900185 -0.034489
0.539163 1.905249 0.321568
0.345688 1.904378 0.619597
0.546472 1.908110 0.071620
0.661370 1.905319 0.097183
0.656287 1.890285 0.914080
0.664285 1.907188 0.116213
0.353507 1.901849 -0.120406
0.450337 1.909625 0.499166
0.547592 1.894330 0.856560
0.453693 1.911585 0.234188
0.355966 1.899015 -0.006407
0.663148 1.895064 0.947154
0.664912 1.896631 0.599161
0.513338 2.144858 -0.045799
0.490939 2.041105 -0.090678
0.456274 1.899854 0.334123
0.464356 1.915482 0.116273
0.679393 1.907763 0.315309
0.487260 1.996248 -0.113024
0.364133 1.901357 0.765691
0.560323 1.889773 0.937603
0.570227 1.906987 -0.039258
0.685131 1.907241 -0.019676
0.570314 1.906104 -0.055264
0.569324 1.901712 0.541723
0.566068 1.890267 0.600625
0.689212 1.911363 -0.034625
0.372783 1.902691 0.451738
0.689434 1.907649 -0.073652
0.375282 1.910456 0.348804
0.684094 1.896723 0.594267
0.574661 1.908676 0.276792
0.372193 1.887643 0.185615
0.577529 1.913418 -0.095173
0.471386 1.894442 0.940197
0.478911 1.910114 0.035315
0.694450 1.908723 0.326400
0.379442 1.893125 0.939730
0.583626 1.903962 0.104802
0.482047 1.906869 0.614334
0.384560 1.896124 0.124746
0.481099 1.896405 0.813261
0.388372 1.901317 -0.036201
0.589536 1.909363 0.324883
0.392796 1.902908 -0.115167
0.392079 1.906498 0.621886
0.705623 1.895363 0.924389
0.594897 1.901232 0.071844
0.713731 1.909433 0.100501
0.715674 1.907312 0.117497
0.594986 1.893437 0.861821
0.401899 1.904989 -0.123099
0.499753 1.909757 0.500451
0.501107 1.907710 0.234433
0.713539 1.893145 0.957418
0.716284 1.897719 0.607451
0.415197 1.952201 -0.009679
0.507474 1.915722 -0.037485
0.505634 1.906967 0.337457
0.509748 1.912071 -0.084500
0.511756 1.912603 0.116523
0.728792 1.902865 0.319545
0.508006 1.882213 -0.105725
0.411587 1.897507 0.764941
0.610690 1.893855 0.947915
0.735523 1.904358 -0.018422
0.621601 1.911115 -0.038941
0.616733 1.897831 0.543961
0.620715 1.905235 -0.055989
0.739591 1.909472 -0.032364
0.731496 1.891835 0.597491
0.618407 1.900360 0.608991
0.736831 1.899755 -0.072450
0.624041 1.910800 0.278083
0.421698 1.907589 0.348054
0.626937 1.908537 -0.094932
0.423219 1.903839 0.451040
0.427489 1.918784 0.187161
0.740860 1.899831 0.328588
0.518799 1.892552 0.945454
0.527304 1.910243 0.034591
0.425816 1.898233 0.945036
0.635967 1.914083 0.107165
0.528471 1.900988 0.616555
0.429986 1.888246 0.123954
0.529512 1.896528 0.816537
0.455495 1.987550 -0.042197
0.638937 1.906474 0.328136
0.438471 1.907618 0.624162
0.753009 1.892464 0.930625
0.448111 1.934099 -0.121625
0.646268 1.906363 0.072165
0.764114 1.906539 0.103752
0.766057 1.905427 0.119755
0.643378 1.893547 0.867090
0.549165 1.909888 0.501730
0.458219 1.936182 -0.129553
0.550516 1.907847 0.233712
0.450784 1.896286 -0.010875
0.767682 1.894814 0.614708
0.764953 1.888229 0.967660
0.555871 1.913848 -0.038226
0.555026 1.908086 0.339743
0.559144 1.912206 -0.086222
0.558175 1.904720 0.116728
0.785118 1.913968 0.326926
0.564319 1.909392 -0.110214
0.658109 1.887956 0.954134
0.461012 1.898639 0.767232
0.784914 1.899472 -0.017192
0.662159 1.888950 0.545147
0.670001 1.906232 -0.038711
0.781861 1.892935 0.603769
0.672093 1.908369 -0.056685
0.787987 1.901575 -0.030161
0.667799 1.898457 0.615248
0.790191 1.903880 -0.071135
0.468118 1.902714 0.348284
0.674447 1.908926 0.279345
0.676328 1.906663 -0.095676
0.565193 1.890651 0.951700
0.796206 1.908953 0.332949
0.473942 1.907918 0.185348
0.473617 1.908972 0.452364
0.471230 1.895351 0.948274
0.576733 1.905380 0.032832
0.685380 1.908200 0.108392
0.576881 1.898097 0.620805
0.576940 1.892655 0.818774
0.484313 1.911397 0.123428
0.691308 1.910586 0.332450
0.482223 1.889581 -0.040745
0.800415 1.886570 0.935835
0.484892 1.903744 0.625398
0.490596 1.907202 -0.122576
0.698632 1.912497 0.072493
0.819476 1.911660 0.107082
0.820403 1.912554 0.122094
0.695732 1.900639 0.876425
0.597587 1.906015 0.502970
0.498733 1.900270 -0.129580
0.599932 1.904976 0.233965
0.819073 1.891909 0.621959
0.817325 1.888302 0.979938
0.604282 1.908972 -0.038994
0.506144 1.915456 -0.014426
0.604419 1.908204 0.342016
0.608535 1.912340 -0.087949
0.609553 1.909852 0.117047
0.832548 1.901070 0.330083
0.712445 1.897021 0.968492
0.832239 1.892041 0.609028
0.615718 1.910531 -0.111924
0.715517 1.897065 0.550492
0.842270 1.908617 -0.016826
0.722375 1.909362 -0.038407
0.722476 1.907492 -0.056421
0.513420 1.904766 0.771570
0.844338 1.908702 -0.027815
0.718188 1.897557 0.621513
0.844563 1.906006 -0.069835
0.721863 1.901042 0.280543
0.516518 1.903844 0.348564
0.614569 1.893744 0.959994
0.845608 1.903069 0.335165
0.726715 1.904784 -0.095419
0.517634 1.894464 0.952528
0.524021 1.912104 0.453668
0.524364 1.908063 0.183630
0.627132 1.905512 0.032108
0.625274 1.897205 0.625063
0.737763 1.909319 0.110680
0.627324 1.896769 0.824079
0.850767 1.887650 0.946106
0.530739 1.903520 0.122631
0.738732 1.900695 0.334632
0.537543 1.914750 -0.044259
0.533282 1.905860 0.628682
0.543971 1.919368 -0.127194
0.747043 1.904609 0.073694
0.870804 1.906673 0.123313
0.871856 1.908764 0.111332
0.742163 1.891756 0.879608
0.646989 1.905137 0.505231
0.874425 1.895995 0.632275
0.652306 1.911107 0.235291
0.554082 1.920451 -0.135131
0.869712 1.885374 0.992189
0.655674 1.910105 -0.039708
0.553568 1.908585 -0.016213
0.655799 1.911320 0.345316
0.659929 1.913478 -0.089664
0.660937 1.911976 0.118339
0.887904 1.904168 0.337390
0.882623 1.889147 0.614267
0.761858 1.892120 0.975718
0.667092 1.914669 -0.113618
0.766900 1.898180 0.554771
0.894663 1.904738 -0.015585
0.771779 1.902473 -0.037196
0.766599 1.890657 0.626719
0.898717 1.908829 -0.026535
0.771897 1.898609 -0.056224
0.899927 1.909136 -0.068529
0.560907 1.893919 0.769754
0.779204 1.914176 0.283938
0.567885 1.911969 0.350903
0.898976 1.904184 0.339447
0.663951 1.894837 0.968267
0.776115 1.898901 -0.095201
0.562060 1.888592 0.953730
0.574441 1.911235 0.454938
0.573779 1.906197 0.182888
0.678501 1.910648 0.031420
0.673680 1.894321 0.628302
0.899159 1.882752 0.952318
0.787159 1.904436 0.111903
0.679726 1.898881 0.830374
0.581152 1.903662 0.120907
0.793087 1.906806 0.339960
0.580700 1.901981 0.630913
0.585969 1.908888 -0.047036
0.796449 1.898731 0.073910
0.925174 1.907798 0.125597
0.791561 1.888859 0.885846
0.924248 1.903873 0.114564
0.592392 1.913503 -0.129972
0.694443 1.894266 0.505407
0.930790 1.898083 0.642575
0.600505 1.910572 -0.136950
0.703708 1.911241 0.235565
0.923107 1.881449 1.004432
0.706187 1.911440 0.347583
0.708054 1.914248 -0.041402
0.604977 1.909732 -0.018927
0.711333 1.912623 -0.092398
0.942289 1.902277 0.342651
0.713326 1.914109 0.118631
0.935009 1.887258 0.619518
0.813248 1.890204 0.985970
0.817295 1.895291 0.559011
0.717501 1.910803 -0.115380
0.951035 1.906871 -0.014286
0.827147 1.908617 -0.037867
0.819980 1.891758 0.634002
0.953103 1.905948 -0.024283
0.827269 1.904760 -0.057895
0.952361 1.902304 0.342701
0.953330 1.903256 -0.067302
0.828630 1.905296 0.285129
0.618278 1.914096 0.352189
0.713363 1.891943 0.974507
0.611337 1.893052 0.772020
0.611436 1.892692 0.961025
0.834479 1.909060 -0.096829
0.949539 1.878838 0.961544
0.730906 1.910792 0.029695
0.626183 1.909339 0.182191
0.723079 1.891424 0.633541
0.625881 1.908375 0.455193
0.843524 1.910566 0.114235
0.727175 1.890013 0.831560
0.632526 1.909800 0.120225
0.847464 1.908923 0.344252
0.630094 1.903099 0.634185
0.637373 1.910034 -0.049754
0.841972 1.884973 0.891076
0.979612 1.904993 0.117847
0.977578 1.900915 0.127808
0.853821 1.905877 0.074253
0.641804 1.910648 -0.133730
0.743872 1.888394 0.506623
0.983176 1.893173 0.650800
0.651912 1.911729 -0.141669
0.756122 1.909376 0.235823
0.759458 1.911379 -0.042156
0.754630 1.900559 0.348758
0.989356 1.890362 0.626810
0.655379 1.909876 -0.021659
0.995668 1.898375 0.348887
0.762745 1.908759 -0.094160
0.763731 1.910235 0.118864
0.865627 1.889284 0.997229
0.868711 1.890411 0.562237
1.007412 1.907003 -0.013008
0.766928 1.901931 -0.117187
0.875325 1.897851 0.643325
1.009468 1.907073 -0.021998
0.882540 1.908753 -0.037587
1.005753 1.898423 0.345936
0.882646 1.907903 -0.058593
1.008711 1.901384 -0.066043
0.880032 1.901422 0.286361
0.762771 1.888042 0.981735
0.668682 1.913223 0.353448
0.659844 1.890803 0.966268
0.665732 1.899168 0.778350
0.888873 1.908198 -0.097562
0.781323 1.904922 0.028913
0.776453 1.895532 0.639845
0.678597 1.909479 0.181467
0.894931 1.903679 0.116444
0.676327 1.902511 0.455416
0.776622 1.882135 0.834759
0.676523 1.895222 0.635373
0.900848 1.907028 0.349506
0.683923 1.910937 0.119502
0.894350 1.885071 0.899339
0.688777 1.910179 -0.052485
0.906214 1.903007 0.074494
1.033973 1.899050 0.129070
1.034013 1.898100 0.122063
0.695204 1.913803 -0.137429
0.800232 1.897514 0.511974
1.042529 1.896256 0.663110
0.808519 1.908504 0.237083
0.810965 1.911676 0.354122
0.702344 1.904867 -0.144455
1.041751 1.884465 0.633022
0.808899 1.899502 -0.042989
1.056027 1.902487 0.356208
0.707801 1.908024 -0.024401
0.817134 1.910904 -0.095869
0.813156 1.901356 0.119052
0.919021 1.886366 1.008474
0.923098 1.890526 0.567507
1.058825 1.896118 -0.011837
1.057153 1.890536 0.349128
0.927725 1.892947 0.650550
1.063867 1.900190 -0.019785
0.823316 1.907089 -0.119866
0.813156 1.887137 0.989984
0.936399 1.905550 0.289668
0.938924 1.909891 -0.037301
1.067088 1.902527 -0.065754
0.709220 1.892902 0.973538
0.939041 1.908047 -0.059315
0.718115 1.906352 0.353654
0.944271 1.906337 -0.098303
0.717183 1.894302 0.780581
0.827830 1.895634 0.646104
0.838697 1.913080 0.027258
0.952312 1.905810 0.118741
0.732006 1.910622 0.180748
0.729741 1.903648 0.456698
0.727900 1.898331 0.640659
0.831998 1.887241 0.843073
0.954250 1.902139 0.353733
0.737328 1.912078 0.118783
0.942780 1.875183 0.903507
1.093330 1.903189 0.131382
1.094360 1.903227 0.126387
0.740198 1.906322 -0.055249
0.962615 1.902148 0.074763
0.747626 1.910954 -0.141182
0.853635 1.896639 0.515234
0.861927 1.906641 0.237335
0.863375 1.907799 0.356355
0.751769 1.898008 -0.148252
0.866260 1.908658 -0.044640
1.111411 1.897590 0.362435
0.758234 1.901165 -0.027193
0.870552 1.907051 -0.098632
0.978465 1.892637 0.573791
0.871523 1.909498 0.120398
1.121185 1.902275 -0.011499
1.115523 1.891663 0.353412
1.124223 1.904334 -0.018471
0.984100 1.894049 0.658831
0.865535 1.887223 1.000244
1.126449 1.904666 -0.064460
0.758632 1.890015 0.978768
0.992316 1.905011 -0.036078
0.989807 1.900680 0.290891
0.878713 1.908242 -0.122585
0.992450 1.901173 -0.059105
0.771494 1.910480 0.355952
0.998664 1.902466 -0.098068
0.877268 1.885749 0.649279
0.767651 1.885439 0.781774
0.891121 1.906213 0.026467
1.006705 1.901931 0.120974
0.782441 1.903762 0.178953
0.779300 1.897447 0.644911
0.882428 1.880358 0.847274
1.009645 1.899257 0.357978
0.784164 1.902780 0.458965
0.785770 1.901209 0.116950
1.147731 1.895310 0.133580
1.153745 1.901356 0.129650
1.017021 1.897281 0.074989
0.797586 1.914491 -0.058905
0.801042 1.909106 -0.144929
0.909046 1.895768 0.518498
0.917324 1.906776 0.238605
0.914798 1.899918 0.358549
1.164830 1.885692 0.367599
0.923656 1.910811 -0.046347
0.813157 1.911199 -0.153855
1.033856 1.890754 0.579040
0.927943 1.910210 -0.101332
1.177572 1.897405 -0.010273
0.925937 1.905633 0.120634
0.817610 1.912332 -0.029821
1.169929 1.883783 0.356608
1.041471 1.894139 0.669103
0.918920 1.886312 1.010497
1.182623 1.898461 -0.016243
0.810031 1.889119 0.986017
1.048704 1.903148 -0.035825
1.185843 1.900802 -0.063213
1.043232 1.891803 0.293081
0.933123 1.904383 -0.124349
1.051834 1.903325 -0.059810
0.819928 1.900604 0.356123
1.059042 1.906627 -0.099754
0.932631 1.888848 0.657568
0.823068 1.886563 0.787056
0.946531 1.904362 0.024720
1.062105 1.897054 0.123200
0.828728 1.890569 0.647106
1.067027 1.898373 0.363241
0.936845 1.877473 0.853516
0.839841 1.907908 0.179264
0.838584 1.901919 0.460226
1.208105 1.895449 0.135857
0.843159 1.906354 0.117267
1.210141 1.893468 0.133852
1.075418 1.896426 0.075256
0.849012 1.907632 -0.061702
0.857450 1.911274 -0.149639
0.961469 1.888888 0.521700
0.972166 1.904042 0.362851
0.972744 1.902917 0.238841
0.978056 1.907955 -0.048109
1.088253 1.885867 0.584259
0.865576 1.906347 -0.157635
0.982318 1.906767 0.121909
0.984344 1.909365 -0.104071
1.235983 1.889539 -0.009065
0.872024 1.910483 -0.032571
0.861412 1.889216 0.994267
1.242998 1.896595 -0.013984
1.246226 1.897942 -0.061961
1.102607 1.893937 0.296371
1.109093 1.904302 -0.036538
1.109235 1.900477 -0.061565
0.992507 1.909554 -0.128033
0.876328 1.902738 0.358410
1.115450 1.900766 -0.100536
0.989019 1.888956 0.664835
1.124470 1.902200 0.125523
0.876507 1.881687 0.791280
1.000941 1.899500 0.023942
0.884116 1.892681 0.653388
1.121442 1.889485 0.367428
0.996215 1.882576 0.863831
1.266500 1.889581 0.138076
0.893267 1.903048 0.178486
0.894001 1.900046 0.463479
1.272514 1.892598 0.138124
0.902537 1.914511 0.116608
1.134789 1.898575 0.075542
0.903421 1.905782 -0.064455
0.910870 1.906425 -0.153419
1.016885 1.885015 0.524932
1.026585 1.897161 0.366056
1.028159 1.898050 0.240065
1.036461 1.907109 -0.049844
0.920989 1.904503 -0.161385
1.298359 1.888686 -0.007795
1.037737 1.900903 0.122125
1.040753 1.905511 -0.105837
0.915797 1.890314 1.003533
1.299405 1.885715 -0.011812
0.927444 1.907636 -0.035328
1.306626 1.892087 -0.061736
1.158027 1.886071 0.297567
1.169480 1.903449 -0.036271
1.169626 1.899630 -0.062298
1.047918 1.904703 -0.130811
0.930731 1.900866 0.360654
1.175838 1.899918 -0.101270
1.048376 1.893052 0.675138
1.181878 1.895327 0.127732
0.940488 1.896797 0.659682
1.060346 1.899659 0.022216
0.933918 1.882809 0.797559
1.184800 1.893605 0.374742
0.948706 1.897192 0.177706
0.954968 1.906652 0.114798
0.951422 1.899185 0.465742
1.194201 1.893721 0.075774
0.962826 1.908952 -0.068156
0.965297 1.900576 -0.157206
1.075275 1.885138 0.530200
1.082977 1.894280 0.370292
1.080600 1.886179 0.240221
1.093867 1.903252 -0.050611
0.977404 1.902668 -0.166136
1.095142 1.897038 0.123358
1.098164 1.901667 -0.108604
0.983869 1.903790 -0.038094
1.228888 1.897591 -0.036050
1.227039 1.891772 -0.063100
1.106329 1.900853 -0.132574
0.989108 1.904998 0.363952
1.235246 1.894065 -0.102050
1.244265 1.894470 0.130001
0.994897 1.892911 0.664905
1.119744 1.898811 0.021476
0.993331 1.882922 0.805834
1.008106 1.899342 0.177993
1.255589 1.891866 0.077029
1.011388 1.902797 0.114029
1.004873 1.889317 0.466919
1.021234 1.909119 -0.071889
1.024710 1.901756 -0.162927
1.141386 1.890411 0.373525
1.142988 1.889332 0.241520
1.154258 1.903412 -0.052342
1.038800 1.907855 -0.171822
1.157520 1.900187 0.124656
1.158571 1.899830 -0.111350
1.290283 1.893739 -0.035812
1.041286 1.900947 -0.040854
1.294430 1.893943 -0.063794
1.166737 1.899023 -0.136321
1.044540 1.898133 0.365154
1.294660 1.886210 -0.102849
1.053282 1.894024 0.672175
1.180149 1.896971 0.019728
1.068512 1.900500 0.177271
1.071783 1.904954 0.113314
1.066293 1.889459 0.470195
1.078663 1.903273 -0.074674
1.085121 1.901931 -0.167658
1.206380 1.890481 0.243804
1.215688 1.897570 -0.054117
1.216938 1.894333 0.124872
1.094248 1.897005 -0.175652
1.224964 1.904018 -0.115034
1.355837 1.888103 -0.065576
1.102702 1.901121 -0.044582
1.229143 1.897190 -0.139065
1.101952 1.894267 0.367381
1.361049 1.886384 -0.104568
1.241560 1.893126 0.018965
1.129206 1.899100 0.112524
1.128947 1.895649 0.177501
1.125731 1.883594 0.473414
1.140078 1.902445 -0.078412
1.148533 1.903114 -0.172375
1.278092 1.894733 -0.055873
1.281335 1.893486 0.126138
1.283410 1.892171 -0.117870
1.160650 1.903211 -0.182323
1.163118 1.898284 -0.047342
1.163349 1.894406 0.370646
1.291571 1.891362 -0.142843
1.303986 1.887289 0.017186
1.190630 1.895256 0.111759
1.190371 1.891801 0.177736
1.201503 1.898616 -0.082178
1.210959 1.900298 -0.178130
1.342497 1.891900 -0.057626
1.346817 1.888340 -0.120636
1.218082 1.894373 -0.187142
1.355966 1.889534 -0.145591
1.225555 1.893458 -0.051113
1.253050 1.891415 0.110992
1.252790 1.887955 0.177969
1.260928 1.891781 -0.085979
1.271394 1.892468 -0.182935
1.279522 1.886545 -0.191943
1.287984 1.887624 -0.053897
1.334319 1.899994 -0.090626
1.339797 1.894670 -0.188644
1.352909 1.895776 -0.199584
1.407217 1.891865 -0.194398
