# .PCD v0.7 - Point Cloud Data file format
VERSION 0.7
FIELDS x y z
SIZE 4 4 4
TYPE F F F
COUNT 1 1 1
WIDTH 40
HEIGHT 1
VIEWPOINT 0 0 0 1
POINTS 40
DATA ascii
0.726628 -1.283637 1.875299
0.695296 -1.293676 1.859912
0.731620 -1.386883 1.903435
0.692886 -1.354773 1.916930
0.683805 -1.368879 1.853821
0.688714 -1.378909 1.861886
0.676486 -1.424960 1.904767
0.721036 -1.503162 1.913361
0.677475 -1.431985 1.909780
0.678431 -1.454149 1.843789
0.663479 -1.469129 1.848621
0.689198 -1.536268 1.852975
0.666151 -1.510222 1.894666
0.676552 -1.573357 1.846828
0.689242 -1.581399 1.872978
0.649269 -1.522199 1.894473
0.661516 -1.566310 1.862643
0.666958 -1.538365 1.837675
0.997925 -2.344874 3.131173
0.674854 -1.626507 1.842811
0.650741 -1.608399 1.865521
0.647939 -1.585402 1.860467
0.634767 -1.601358 1.877327
0.646841 -1.585418 1.879447
0.684604 -1.714681 1.873947
0.644160 -1.652532 1.854440
0.618144 -1.631428 1.871129
0.618174 -1.615437 1.879114
0.636731 -1.642569 1.820335
0.630699 -1.690641 1.835274
0.615948 -1.707595 1.806121
0.612445 -1.680561 1.869060
0.615496 -1.701628 1.872093
0.630524 -1.825781 1.838319
0.599670 -1.771659 1.854925
0.601823 -1.726673 1.861917
1.123110 -3.189031 3.647606
0.588170 -1.832766 1.830788
0.575064 -1.869875 1.779614
0.556338 -1.870784 1.854408
