# .PCD v0.7 - Point Cloud Data file format
VERSION 0.7
FIELDS x y z
SIZE 4 4 4
TYPE F F F
COUNT 1 1 1
WIDTH 50
HEIGHT 1
VIEWPOINT 0 0 0 1
POINTS 50
DATA ascii
0.882936 -1.898996 2.273253
0.802682 -1.789609 2.246935
0.848058 -1.891769 2.260767
0.852117 -1.904789 2.262510
0.836131 -1.900574 2.250760
0.814027 -1.858575 2.248693
0.731457 -1.704961 2.208121
0.758958 -1.796327 2.232334
0.794238 -1.886265 2.233471
0.804360 -1.909422 2.242981
0.765201 -1.859026 2.219246
0.696804 -1.721851 2.203258
0.712146 -1.793873 2.207917
0.741399 -1.876770 2.206233
0.723518 -1.872798 2.207506
0.652975 -1.720339 2.175797
0.667376 -1.794512 2.188430
0.694681 -1.879522 2.192730
0.671612 -1.862104 2.169279
0.614239 -1.727062 2.161147
0.622602 -1.794136 2.167962
0.647696 -1.876563 2.140319
0.641804 -1.864946 2.160581
0.647301 -1.889167 2.065104
0.647834 -1.891714 2.149072
0.630311 -1.864236 2.067711
0.623803 -1.860607 2.141860
0.573483 -1.730718 2.142572
0.613285 -1.853942 2.051076
0.576767 -1.786661 2.141623
0.580404 -1.820100 2.058018
0.585818 -1.838148 2.115670
0.586604 -1.844424 2.076551
0.532709 -1.732343 2.122030
0.559530 -1.809158 2.060445
0.530936 -1.778190 2.115302
0.528429 -1.796324 2.014017
0.524615 -1.787919 2.046206
0.529440 -1.802281 2.011907
0.493982 -1.737098 2.108422
0.503417 -1.773068 1.998699
0.488138 -1.773834 2.094888
0.470542 -1.751018 1.994454
0.450057 -1.724476 2.073152
0.437047 -1.739890 2.041049
0.411311 -1.727244 2.059572
0.384879 -1.696776 1.977378
0.363165 -1.690178 1.998755
0.339901 -1.671086 1.937342
0.314974 -1.647014 1.932044
