# .PCD v0.7 - Point Cloud Data file format
VERSION 0.7
FIELDS x y z
SIZE 4 4 4
TYPE F F F
COUNT 1 1 1
WIDTH 62
HEIGHT 1
VIEWPOINT 0 0 0 1
POINTS 62
DATA ascii
-0.771005 1.586333 1.817422
-0.756925 1.575231 1.821196
-1.243207 2.751965 2.869563
-0.739606 1.614843 1.837274
-0.720506 1.589113 1.825692
-0.786399 1.651798 1.800091
-0.784280 1.653882 1.756138
-0.777408 1.592294 1.819660
-0.768206 1.739650 1.766299
-0.784148 1.633963 1.752669
-0.702243 1.553873 1.834916
-0.785100 1.775048 1.832190
-0.756984 1.704779 1.760497
-0.704186 1.638455 1.853008
-0.700197 1.563648 1.844174
-0.692126 1.624430 1.853699
-0.764050 1.702814 1.840475
-0.751873 1.683586 1.768011
-0.749021 1.621979 1.832524
-0.750892 1.814095 1.830249
-0.770828 1.900220 1.867350
-0.756745 1.678370 1.776899
-0.750706 1.806609 1.850104
-0.752712 1.815362 1.860320
-0.728644 1.724649 1.847149
-0.718632 1.647742 1.842286
-0.743569 1.783517 1.853575
-0.724549 1.869991 1.875746
-0.731423 1.934635 1.891338
-0.745414 1.771549 1.852300
-0.715310 1.839149 1.869037
-0.716317 1.843952 1.877156
-0.699265 1.766944 1.876314
-0.692271 1.685162 1.866323
-0.708166 1.813181 1.867434
-0.687160 1.900484 1.896625
-0.688004 1.958301 1.905065
-0.709993 1.805238 1.865267
-0.678916 1.871694 1.887968
-0.679922 1.880375 1.901184
-0.663879 1.792617 1.890072
-0.674780 1.856533 1.894622
-0.647775 1.927085 1.913403
-0.633553 1.944814 1.883867
-0.676601 1.848715 1.887442
-0.742142 2.275018 1.881731
-0.759208 2.251768 1.933150
-0.700920 2.498026 1.966265
-0.734916 2.507626 1.983442
-0.719864 2.399874 1.971848
-0.719864 2.299148 1.959397
-0.700669 2.506038 1.966460
-0.685622 2.663633 2.026328
-0.655582 2.558116 2.004813
-0.697486 2.506145 1.962467
-0.678524 2.532378 1.994146
-0.673506 2.446236 1.999068
-0.676507 2.338705 1.978450
-0.699250 2.519492 1.948783
-0.654323 2.568130 2.005055
-0.654144 2.587967 2.012534
-0.660919 2.635802 2.020676
