# .PCD v0.7 - Point Cloud Data file format
VERSION 0.7
FIELDS x y z
SIZE 4 4 4
TYPE F F F
COUNT 1 1 1
WIDTH 346
HEIGHT 1
VIEWPOINT 0 0 0 1
POINTS 346
DATA ascii
-0.270054 -1.968486 -0.129065
-0.392991 -1.961130 -0.119867
-0.392832 -1.960629 -0.099848
-0.272042 -1.991451 0.109479
-0.275353 -1.977455 -0.051179
-0.482844 -2.543936 0.133476
-0.221285 -1.994326 0.071031
-0.339779 -1.983276 0.133331
-0.402470 -2.477093 -0.049499
-0.481181 -2.447578 -0.000110
-0.230804 -1.970644 -0.118298
-0.232029 -1.969927 -0.147273
-0.232487 -1.977521 -0.083432
-0.289504 -1.993719 0.157712
-0.238282 -1.997036 0.177272
-0.358584 -2.017047 -0.120358
-0.351768 -1.962040 -0.119045
-0.296925 -1.971354 -0.018676
-0.434095 -2.506494 -0.038782
-0.364500 -1.984603 0.142679
-0.253685 -1.980509 -0.007146
-0.434053 -1.963118 -0.047265
-0.316511 -1.987979 -0.117840
-0.315645 -1.975682 -0.129544
-0.317684 -1.986621 0.109307
-0.320003 -1.966643 -0.051213
-0.442689 -1.967126 0.112829
-0.266929 -1.993450 0.068762
-0.387346 -1.991546 0.136845
-0.385779 -1.964336 -0.032549
-0.451478 -1.960539 0.007087
-0.275446 -1.960840 -0.118356
-0.276666 -1.964102 -0.148432
-0.277154 -1.965665 -0.085438
-0.335134 -1.988933 0.159536
-0.282940 -1.993193 0.177063
-0.395400 -1.955279 -0.117202
-0.397351 -1.959361 -0.114277
-0.398008 -2.419677 -0.026608
-0.406548 -1.961631 -0.024161
-0.409158 -1.975791 0.143583
-0.298339 -1.974665 -0.008310
-0.358219 -1.956220 -0.115391
-0.359315 -1.954904 -0.128346
-0.361366 -1.975761 0.108249
-0.438851 -2.509733 -0.072334
-0.312591 -1.983603 0.067709
-0.430397 -1.962568 -0.030836
-0.518904 -2.501976 0.169651
-0.325938 -2.004943 -0.123712
-0.325200 -1.994229 -0.152462
-0.378820 -1.974093 0.159572
-0.321809 -1.954833 -0.086485
-0.327595 -1.986353 0.176908
-0.388153 -1.968774 -0.017226
-0.342982 -1.965849 -0.008417
-0.523274 -1.949687 -0.039600
-0.402831 -1.953438 -0.114657
-0.403935 -1.952099 -0.128612
-0.526656 -1.944451 -0.090436
-0.526810 -1.940986 -0.109352
-0.406025 -1.963932 0.108213
-0.411254 -1.960999 -0.052701
-0.358251 -1.973733 0.065640
-0.540726 -1.949020 0.011690
-0.364711 -1.952180 -0.120792
-0.518070 -2.549819 0.202883
-0.366922 -1.954453 -0.150830
-0.380127 -2.049945 -0.093040
-0.486598 -1.949773 -0.113720
-0.486584 -1.948823 -0.111695
-0.432778 -1.964980 -0.016473
-0.388603 -1.963034 -0.008670
-0.569861 -1.946977 -0.035862
-0.570278 -1.936712 -0.087611
-0.573394 -1.941259 -0.106693
-0.551479 -2.523198 0.132004
-0.403887 -1.970885 0.064384
-0.586333 -1.946275 0.014410
-0.522596 -1.958068 -0.026381
-0.410330 -1.949355 -0.122049
-0.413044 -1.956146 -0.090170
-0.531207 -1.943041 -0.110905
-0.531216 -1.942017 -0.111879
-0.542406 -1.952260 -0.021947
-0.434232 -1.960195 -0.009932
-0.613481 -1.939255 -0.032046
-0.493071 -1.941856 -0.114047
-0.616868 -1.935982 -0.084935
-0.494179 -1.940497 -0.129003
-0.617012 -1.930547 -0.102799
-0.448553 -1.957038 0.063385
-0.631951 -1.944505 0.016095
-0.566230 -1.946324 -0.023457
-0.576823 -1.937264 -0.110110
-0.576816 -1.936289 -0.109085
-0.522041 -1.947422 -0.013736
-0.587045 -1.942470 -0.021065
-0.660075 -1.935544 -0.028302
-0.538689 -1.938055 -0.114300
-0.662475 -1.931249 -0.082180
-0.540782 -1.940700 -0.129345
-0.663599 -1.927844 -0.099083
-0.546145 -1.946563 -0.053389
-0.677571 -1.935762 0.018951
-0.610858 -1.938557 -0.021632
-0.501578 -1.939707 -0.124489
-0.502811 -1.939939 -0.156491
-0.503316 -1.941488 -0.092497
-0.623427 -1.936488 -0.109441
-0.622435 -1.930511 -0.108300
-0.568650 -1.946635 -0.013059
-0.633659 -1.940683 -0.020372
-0.705683 -1.929828 -0.024531
-0.524503 -1.946565 -0.010294
-0.584303 -1.933277 -0.113538
-0.711057 -1.931525 -0.079525
-0.709207 -1.924111 -0.096364
-0.585414 -1.933896 -0.129545
-0.592764 -1.942759 -0.053640
-0.725171 -1.936021 0.021590
-0.658458 -1.936799 -0.019932
-0.546461 -1.929112 -0.157600
-0.546220 -1.929881 -0.125610
-0.548950 -1.938635 -0.094783
-0.668054 -1.926731 -0.107577
-0.669036 -1.928759 -0.106615
-0.613288 -1.937843 -0.012214
-0.679291 -1.931896 -0.019522
-0.754266 -1.931120 -0.020912
-0.570140 -1.941727 -0.011533
-0.756672 -1.925790 -0.076765
-0.629928 -1.927476 -0.113760
-0.756803 -1.920386 -0.093630
-0.631041 -1.926098 -0.129716
-0.637409 -1.931948 -0.053748
-0.770805 -1.929251 0.023373
-0.587455 -1.947505 0.059587
-0.705072 -1.933037 -0.018204
-0.591846 -1.926056 -0.126879
-0.594071 -1.928275 -0.159919
-0.595576 -1.930814 -0.095937
-0.714661 -1.922980 -0.105851
-0.715652 -1.922984 -0.105838
-0.659907 -1.933057 -0.011454
-0.725908 -1.926135 -0.017747
-0.800883 -1.924383 -0.018123
-0.616761 -1.938917 -0.011820
-0.802294 -1.917056 -0.073937
-0.803405 -1.915680 -0.089894
-0.677535 -1.926681 -0.114094
-0.677658 -1.921302 -0.129961
-0.684033 -1.928143 -0.054020
-0.816434 -1.921505 0.026171
-0.751683 -1.929298 -0.015487
-0.635083 -1.944666 0.058310
-0.638474 -1.922213 -0.129145
-0.640690 -1.924460 -0.161185
-0.642207 -1.926967 -0.098204
-0.762264 -1.918233 -0.104098
-0.762272 -1.918209 -0.105098
-0.708509 -1.933277 -0.010808
-0.772535 -1.922348 -0.017035
-0.848481 -1.920695 -0.013411
-0.848909 -1.910325 -0.071160
-0.663388 -1.934107 -0.012067
-0.851011 -1.911953 -0.087182
-0.723169 -1.917881 -0.114260
-0.726266 -1.921489 -0.131318
-0.732651 -1.925322 -0.055302
-0.800289 -1.927542 -0.013807
-0.680740 -1.932824 0.057225
-0.686088 -1.919397 -0.130435
-0.686331 -1.915618 -0.163348
-0.688844 -1.920121 -0.100405
-0.808888 -1.913456 -0.103369
-0.810878 -1.917439 -0.104446
-0.755136 -1.928490 -0.010071
-0.822140 -1.923571 -0.016424
-0.896092 -1.912984 -0.009607
-0.711017 -1.929278 -0.013311
-0.772767 -1.920091 -0.114667
-0.773883 -1.918696 -0.131624
-0.779284 -1.919517 -0.055545
-0.845920 -1.914802 -0.010894
-0.729366 -1.929989 0.055939
-0.733714 -1.916558 -0.132736
-0.733955 -1.911784 -0.165624
-0.736466 -1.917302 -0.101706
-0.857500 -1.907689 -0.102600
-0.857493 -1.907712 -0.101601
-0.802759 -1.924706 -0.009358
-0.868779 -1.914786 -0.015606
-0.760624 -1.929479 -0.013669
-0.819399 -1.913294 -0.114894
-0.819523 -1.908898 -0.131787
-0.827904 -1.916719 -0.055851
-0.893545 -1.908042 -0.009121
-0.778980 -1.930181 0.055577
-0.782336 -1.913723 -0.135035
-0.782574 -1.908953 -0.167923
-0.786081 -1.918465 -0.104096
-0.850388 -1.915925 -0.008528
-0.806279 -1.920642 -0.014859
-0.874546 -1.906916 -0.056014
-0.828975 -1.903906 -0.136194
-0.830207 -1.902120 -0.170146
-0.833722 -1.908626 -0.106242
-0.899013 -1.910146 -0.007775
-0.854907 -1.912843 -0.015050
0.080341 -2.019816 -0.018858
0.076674 -2.015478 -0.062839
0.075852 -2.013281 -0.087825
0.059085 -2.023420 0.046035
0.033734 -2.014024 -0.015991
0.031055 -2.007684 -0.059953
0.030223 -2.003495 -0.083923
0.024687 -2.022346 0.144913
0.013483 -2.021615 0.047871
0.072378 -2.010504 -0.071604
0.072342 -2.012553 -0.065620
0.002294 -2.028110 0.229781
0.059788 -2.017360 0.029296
-0.010892 -2.007226 -0.013114
-0.013549 -2.004878 -0.058107
-0.014394 -1.997698 -0.081054
-0.020922 -2.022547 0.147729
0.037110 -2.016322 0.013214
-0.031148 -2.011807 0.049770
0.026753 -2.009743 -0.064778
0.026802 -2.011695 -0.070794
-0.043320 -2.020286 0.229658
0.014203 -2.015540 0.029128
0.009034 -2.027926 0.201015
-0.056492 -2.006432 -0.010294
0.064962 -2.014627 -0.068486
0.063880 -2.010719 -0.057459
-0.059150 -2.002085 -0.055271
-0.059983 -1.998906 -0.078250
0.057466 -2.020292 0.011442
-0.066544 -2.017749 0.150579
-0.007511 -2.009515 0.015087
-0.009681 -2.022856 0.182978
-0.076755 -2.007004 0.051619
0.103199 -2.009466 -0.078108
-0.017814 -2.004890 -0.068922
-0.017853 -2.003930 -0.063914
-0.087944 -2.017475 0.231494
0.034443 -2.007598 0.038450
-0.030411 -2.008725 0.029999
-0.035578 -2.024099 0.200861
-0.101136 -1.993643 -0.006378
0.019280 -2.004898 -0.057594
0.018369 -2.004814 -0.068598
-0.104760 -1.995294 -0.052409
-0.104596 -1.994111 -0.075399
0.013681 -2.023756 0.174241
0.011857 -2.007466 0.010357
-0.112174 -2.008953 0.153456
-0.054305 -2.019046 0.184821
-0.053116 -2.001705 0.015959
-0.121356 -2.008198 0.053419
0.058430 -2.007843 -0.053275
0.058629 -2.008629 -0.080281
0.057175 -2.012149 -0.015312
-0.004460 -2.023151 0.215172
-0.063441 -2.000122 -0.063074
-0.063405 -2.000082 -0.068074
-0.132566 -2.011657 0.232349
-0.010131 -2.012774 0.038225
-0.075999 -2.004907 0.029837
0.033872 -2.016810 0.056557
-0.081179 -2.020277 0.200697
-0.145752 -1.988848 -0.003532
-0.025315 -2.000078 -0.057742
-0.026204 -2.004986 -0.069785
-0.148387 -1.985488 -0.050518
-0.030919 -2.017915 0.172101
-0.149225 -1.981318 -0.072489
-0.032730 -2.004636 0.009193
-0.156800 -2.002146 0.155317
0.020408 -2.021503 0.137467
-0.099917 -2.013233 0.185672
-0.098712 -1.999904 0.017778
-0.165992 -1.993394 0.055343
0.012853 -2.004019 -0.054433
0.013064 -2.005797 -0.082448
0.010618 -2.008312 -0.018476
-0.049079 -2.016325 0.215037
-0.108043 -1.994312 -0.062220
-0.108019 -1.992280 -0.066204
0.001820 -2.022380 0.239385
-0.178173 -2.008844 0.233170
-0.054750 -2.000953 0.038129
-0.120594 -2.002087 0.029665
-0.125791 -2.015453 0.200540
-0.011727 -2.007984 0.055435
-0.190372 -1.982053 -0.000676
-0.070893 -1.997263 -0.057915
-0.070807 -1.996168 -0.069906
-0.193003 -1.978694 -0.047662
-0.076505 -2.016086 0.170918
-0.195785 -1.993530 -0.069797
-0.077313 -2.002808 0.008015
-0.202416 -1.999350 0.158134
-0.024179 -2.016655 0.134315
-0.145535 -2.007429 0.187517
-0.143321 -1.993093 0.018636
-0.031512 -2.001962 -0.084607
-0.210597 -1.989582 0.056173
-0.031727 -1.999184 -0.056585
-0.032974 -2.003472 -0.020623
-0.094680 -2.012504 0.214869
-0.221808 -2.001024 0.234035
-0.152631 -1.980472 -0.065306
-0.043772 -2.020550 0.238203
-0.152672 -1.978511 -0.060290
-0.100350 -1.995145 0.038977
-0.165208 -1.993276 0.030537
-0.170407 -2.004622 0.199427
-0.056308 -2.005147 0.053264
-0.252571 -2.116289 -0.001066
-0.115403 -1.989351 -0.070048
-0.115497 -1.987446 -0.058033
-0.248344 -2.056898 -0.049560
-0.121111 -2.009255 0.169775
-0.241366 -1.998732 -0.068050
-0.122900 -1.994985 0.006876
-0.247059 -1.986554 0.161033
-0.069773 -2.007820 0.132186
-0.190151 -2.002614 0.188352
-0.187942 -1.983291 0.020513
-0.254233 -1.976777 0.058075
-0.077303 -1.994362 -0.057747
-0.077094 -1.991134 -0.086721
-0.078545 -1.998641 -0.022785
-0.140281 -2.011692 0.215670
-0.088391 -2.010717 0.237084
-0.196286 -1.969700 -0.059417
-0.200136 -2.005663 -0.065729
-0.144941 -1.993325 0.038791
-0.209813 -1.984458 0.030403
-0.100901 -2.000319 0.052104
-0.216003 -2.002803 0.199231
-0.159107 -1.977625 -0.058151
-0.281576 -1.979472 0.004921
