# .PCD v0.7 - Point Cloud Data file format
VERSION 0.7
FIELDS x y z
SIZE 4 4 4
TYPE F F F
COUNT 1 1 1
WIDTH 29
HEIGHT 1
VIEWPOINT 0 0 0 1
POINTS 29
DATA ascii
1.640976 3.179627 1.790285
1.495642 2.807860 1.727237
1.472973 2.873743 1.718160
1.621997 2.965619 1.688702
1.559240 2.770487 1.723529
1.465630 2.725747 1.706348
1.589865 2.927253 1.767379
1.460010 2.704693 1.702121
1.440441 2.659618 1.691635
1.558655 2.627267 1.654753
1.546964 2.723263 1.726011
1.610122 2.806054 1.713801
1.534450 2.690188 1.717664
1.546394 2.705029 1.739806
1.470394 2.692662 1.707948
1.573985 2.630919 1.689767
1.639203 2.707766 1.674479
1.571363 2.613780 1.694584
1.600071 2.656627 1.730013
1.545835 2.679126 1.726506
1.579254 2.507582 1.635221
1.441362 2.418808 1.662652
1.594424 2.519344 1.662334
1.560823 2.466459 1.625796
1.570945 2.579735 1.692186
1.542314 2.464103 1.715859
1.559414 2.432379 1.625401
1.584008 2.411617 1.703068
1.574221 2.289232 1.640588
