# .PCD v0.7 - Point Cloud Data file format
VERSION 0.7
FIELDS x y z
SIZE 4 4 4
TYPE F F F
COUNT 1 1 1
WIDTH 644
HEIGHT 1
VIEWPOINT 0 0 0 1
POINTS 644
DATA ascii
2.460456 -0.598308 -0.096894
2.445463 -0.598393 -0.105913
2.441464 -0.590765 -0.176849
2.432508 -0.593731 -0.191889
2.445385 -0.606663 0.026012
2.432558 -0.591049 -0.265869
2.471308 -0.625546 0.250869
2.421425 -0.604321 -0.039998
2.402543 -0.588201 -0.284877
2.377544 -0.629936 0.077713
2.402390 -0.639724 0.293657
2.341571 -0.622436 -0.016260
2.343496 -0.627412 0.087698
2.329590 -0.624549 -0.019295
2.390493 -0.605026 -0.111048
2.399495 -0.648609 0.275565
2.404349 -0.625757 0.190783
2.397481 -0.632263 0.128708
2.353575 -0.626489 -0.002291
2.393496 -0.641989 0.199613
2.317614 -0.621049 -0.090285
2.344613 -0.621846 -0.081262
2.405549 -0.630444 0.049728
2.297609 -0.620188 -0.099300
2.297637 -0.615557 -0.166260
2.297529 -0.627392 0.025635
2.284647 -0.615580 -0.179276
2.320670 -0.619320 -0.167273
2.348462 -0.633878 0.131631
2.318444 -0.644199 0.236505
2.264647 -0.609179 -0.246243
2.264541 -0.623184 -0.036368
2.255696 -0.612088 -0.267284
2.247688 -0.650454 0.076357
2.258508 -0.656254 0.277323
2.208693 -0.641001 -0.015601
2.211632 -0.646912 0.082349
2.209741 -0.645991 -0.016649
2.267637 -0.668066 0.265216
2.232591 -0.622951 -0.101410
2.246457 -0.642497 0.180431
2.215692 -0.645127 0.000362
2.247605 -0.650964 0.123346
2.260645 -0.662484 0.192253
2.164674 -0.634882 -0.083603
2.194703 -0.638651 -0.074605
2.160709 -0.637858 -0.091637
2.250666 -0.649236 0.048360
2.150721 -0.632373 -0.154600
2.161638 -0.644967 0.024299
2.140731 -0.632363 -0.167613
2.168753 -0.636191 -0.155620
2.182564 -0.661673 0.224169
2.284599 -0.677699 0.340134
2.192552 -0.649638 0.126290
2.130654 -0.641784 -0.032711
2.127766 -0.629926 -0.230611
2.120778 -0.665915 0.074051
2.129611 -0.671618 0.262015
2.117794 -0.630850 -0.250633
2.081777 -0.656498 -0.013907
2.082703 -0.660372 0.078060
2.079814 -0.660520 -0.014949
2.139726 -0.682454 0.253919
2.104718 -0.643523 -0.093766
2.121591 -0.661897 0.173089
2.079754 -0.658719 0.002063
2.120724 -0.669411 0.119010
2.119715 -0.676052 0.184949
2.049794 -0.654276 -0.078933
2.064790 -0.655219 -0.068926
2.042809 -0.655291 -0.085952
2.116788 -0.668800 0.048005
2.029815 -0.649867 -0.145919
2.041733 -0.661367 0.023992
2.017815 -0.648886 -0.157925
2.058659 -0.677024 0.213866
2.041854 -0.654764 -0.145957
2.151735 -0.697125 0.325780
2.065668 -0.668083 0.121953
2.012689 -0.684858 0.248740
2.011754 -0.659200 -0.030029
1.996831 -0.678344 0.072776
2.005852 -0.647486 -0.215932
2.108648 -0.696141 0.383743
1.968850 -0.670823 -0.013188
1.974793 -0.675597 0.073777
1.997890 -0.649389 -0.235962
1.963875 -0.673887 -0.013224
2.020807 -0.696757 0.244631
2.001681 -0.677219 0.164789
1.977789 -0.659071 -0.086075
1.970854 -0.676014 0.003758
2.009823 -0.693285 0.178642
2.000817 -0.685782 0.115701
1.942883 -0.670563 -0.075227
1.941917 -0.673523 -0.081258
1.953884 -0.672571 -0.063235
1.944858 -0.680500 0.022682
1.927920 -0.668138 -0.138226
1.991866 -0.684251 0.047698
1.922948 -0.670093 -0.149253
1.953760 -0.693170 0.204575
1.915793 -0.700895 0.237459
1.925923 -0.670195 -0.137253
1.897914 -0.693493 0.071502
1.915873 -0.678359 -0.027338
2.003647 -0.704437 0.389528
2.013778 -0.707555 0.308505
1.950760 -0.684396 0.118649
1.994743 -0.711332 0.368451
1.878962 -0.688885 -0.013480
1.897930 -0.663855 -0.204228
1.877888 -0.691697 0.069495
1.916867 -0.708893 0.236380
1.864944 -0.688061 -0.011489
1.891975 -0.666747 -0.223265
1.977766 -0.721051 0.422337
1.902795 -0.695337 0.159485
1.868860 -0.674394 -0.080363
1.880972 -0.695095 0.005455
1.902888 -0.706473 0.172377
1.846967 -0.686733 -0.070508
1.890877 -0.699031 0.112431
1.843990 -0.688714 -0.076532
1.867011 -0.692638 -0.059544
1.844926 -0.694665 0.022415
1.826979 -0.682387 -0.130495
1.882941 -0.699519 0.047409
1.817996 -0.683385 -0.141517
1.857840 -0.707206 0.195314
1.823865 -0.713867 0.226212
1.815015 -0.710464 0.070227
1.785010 -0.700987 -0.012720
1.833031 -0.689363 -0.129561
1.808916 -0.690616 -0.025595
1.895729 -0.718545 0.373251
1.786950 -0.704731 0.066249
1.893842 -0.727394 0.355162
1.853860 -0.701505 0.115356
1.877723 -0.722063 0.407198
1.820923 -0.720937 0.228137
1.900853 -0.721757 0.296221
1.776012 -0.702110 -0.010743
1.803024 -0.682071 -0.193529
1.796049 -0.682979 -0.211548
1.878848 -0.735068 0.407071
1.860741 -0.728555 0.438115
1.799837 -0.706473 0.153243
1.784016 -0.707240 0.007210
1.809959 -0.720522 0.168118
1.786991 -0.695414 -0.075677
1.761051 -0.702769 -0.067778
1.804985 -0.717027 0.110141
1.754052 -0.702800 -0.072788
1.761019 -0.701904 -0.054771
1.750972 -0.706756 0.022173
1.734036 -0.696534 -0.123755
1.761883 -0.718244 0.187080
1.768801 -0.740671 0.445883
1.730062 -0.698487 -0.133781
1.789025 -0.715609 0.046128
1.734921 -0.725810 0.215977
1.722042 -0.720522 0.068006
1.776884 -0.749610 0.446803
1.699055 -0.712997 -0.011952
1.705011 -0.717660 0.063013
1.734977 -0.732875 0.220906
1.722988 -0.705650 -0.022856
1.695068 -0.715065 -0.009978
1.776765 -0.732063 0.388968
1.741096 -0.704500 -0.122830
1.802928 -0.742349 0.342895
1.800815 -0.733535 0.359978
1.758925 -0.715583 0.112093
1.798915 -0.734839 0.284959
1.707055 -0.694284 -0.182774
1.788916 -0.747998 0.393825
1.771814 -0.741436 0.420871
1.703090 -0.696159 -0.200799
1.714907 -0.720419 0.147993
1.702080 -0.721207 0.007963
1.727029 -0.734447 0.162870
1.674073 -0.712811 -0.063992
1.696036 -0.708526 -0.069927
1.710010 -0.727096 0.106917
1.668082 -0.713843 -0.068011
1.673057 -0.713962 -0.051007
1.661996 -0.716775 0.020956
1.657112 -0.712494 -0.118018
1.674923 -0.729189 0.179854
1.646925 -0.732740 0.206789
1.679834 -0.749524 0.426674
1.641068 -0.730452 0.066797
1.649118 -0.712487 -0.128030
1.695055 -0.726695 0.045892
1.690914 -0.758467 0.431598
1.616069 -0.721955 -0.012154
1.622028 -0.726591 0.059810
1.665058 -0.747655 0.215662
1.613089 -0.725033 -0.008190
1.638018 -0.716652 -0.021082
1.691822 -0.743931 0.375733
1.705842 -0.742500 0.345760
1.704951 -0.751357 0.329672
1.649118 -0.715626 -0.116066
1.664947 -0.725648 0.109865
1.686865 -0.752274 0.404645
1.701962 -0.758887 0.380597
1.624097 -0.707330 -0.174018
1.711994 -0.749772 0.275690
1.620130 -0.709214 -0.191044
1.626933 -0.730387 0.142770
1.624131 -0.734133 0.009724
1.637026 -0.741441 0.158675
1.597121 -0.725733 -0.061231
1.608052 -0.718584 -0.065150
1.620015 -0.735099 0.103710
1.592131 -0.726753 -0.065248
1.592062 -0.730592 0.020717
1.600135 -0.729844 -0.048271
1.603870 -0.758242 0.409478
1.580000 -0.746449 0.198555
1.599975 -0.741002 0.173628
1.571108 -0.720532 -0.112219
1.573133 -0.744247 0.066561
1.625002 -0.773152 0.421354
1.566123 -0.721503 -0.121237
1.552144 -0.736714 -0.011395
1.579040 -0.752570 0.208491
1.551076 -0.738386 0.056590
1.602054 -0.734757 0.045681
1.542123 -0.735864 -0.007400
1.611878 -0.755737 0.362500
1.567088 -0.731498 -0.019333
1.623995 -0.762199 0.319448
1.610845 -0.749463 0.332557
1.606906 -0.762047 0.388433
1.573163 -0.728561 -0.110304
1.616979 -0.766741 0.367397
1.589010 -0.739513 0.107617
1.618995 -0.756740 0.265489
1.548137 -0.720292 -0.165257
1.540158 -0.721228 -0.181278
1.548144 -0.743014 0.010526
1.564065 -0.752247 0.154461
1.558001 -0.744154 0.138532
1.528162 -0.737559 -0.058449
1.539118 -0.733425 -0.061399
1.524179 -0.739579 -0.061476
1.553097 -0.750875 0.102454
1.524115 -0.743371 0.019489
1.526154 -0.739732 -0.044477
1.533919 -0.768924 0.395268
1.512042 -0.757171 0.191348
1.531025 -0.752746 0.167410
1.502144 -0.732386 -0.106438
1.551020 -0.780883 0.408169
1.497128 -0.751097 0.064382
1.479138 -0.743548 -0.011569
1.494148 -0.732388 -0.115450
1.515098 -0.765280 0.204269
1.483102 -0.748152 0.054392
1.472135 -0.744677 -0.006591
1.530112 -0.748593 0.045437
1.536913 -0.765480 0.349293
1.490087 -0.739397 -0.017523
1.537953 -0.772735 0.376224
1.549034 -0.772982 0.310230
1.544014 -0.776481 0.356193
1.545935 -0.765153 0.324303
1.488133 -0.734591 -0.103486
1.510021 -0.748399 0.105414
1.471137 -0.729247 -0.157458
1.540030 -0.767576 0.257266
1.462138 -0.728200 -0.172460
1.474143 -0.750870 0.011340
1.485016 -0.752954 0.134337
1.498118 -0.764987 0.151235
1.454150 -0.744431 -0.055626
1.450167 -0.746450 -0.058653
1.476089 -0.757735 0.100273
1.457090 -0.739403 -0.056577
1.451107 -0.750204 0.019314
1.472968 -0.779511 0.382070
1.440024 -0.761915 0.183194
1.452158 -0.748607 -0.041674
1.481027 -0.787574 0.395999
1.455012 -0.758555 0.161241
1.434151 -0.760824 0.064191
1.433157 -0.742224 -0.101639
1.441067 -0.769064 0.198122
1.410068 -0.751951 0.051247
1.426161 -0.742215 -0.110649
1.525956 -0.796281 0.512962
1.454100 -0.755458 0.045257
1.466936 -0.774182 0.338102
1.466968 -0.780418 0.362042
1.481063 -0.788140 0.347981
1.418083 -0.747238 -0.015708
1.476045 -0.780725 0.300045
1.479993 -0.777837 0.315076
1.427194 -0.749348 -0.098726
1.440041 -0.758185 0.103211
1.471074 -0.779309 0.250045
1.407151 -0.759647 0.012152
1.430130 -0.773740 0.148046
1.427086 -0.767616 0.132101
1.390166 -0.754184 -0.053820
1.388183 -0.756191 -0.055844
1.402955 -0.784167 0.366919
1.399186 -0.765816 0.019076
1.377033 -0.769572 0.176022
1.425196 -0.776334 0.099006
1.394122 -0.751168 -0.052791
1.421058 -0.797185 0.386811
1.372153 -0.768525 0.063020
1.407275 -0.768166 -0.039943
1.403087 -0.773129 0.157013
1.383093 -0.778697 0.193937
1.356169 -0.761972 -0.010940
1.376229 -0.775367 0.049953
1.352176 -0.764069 -0.005967
1.455988 -0.805948 0.497759
1.398962 -0.786081 0.349883
1.409036 -0.791853 0.336836
1.398944 -0.781868 0.327922
1.405223 -0.776056 0.045971
1.380230 -0.769714 -0.014998
1.438944 -0.807565 0.542724
1.407050 -0.788440 0.291863
1.405971 -0.782583 0.304919
1.377060 -0.767900 0.102018
1.360193 -0.758160 -0.093916
1.344174 -0.750847 -0.142866
1.397056 -0.785084 0.242876
1.362095 -0.777471 0.143906
1.363249 -0.777182 0.012904
1.362079 -0.774319 0.127935
1.341205 -0.752728 -0.158891
1.340949 -0.789762 0.354767
1.332146 -0.769573 0.018938
1.341167 -0.789977 0.171755
1.358042 -0.801800 0.375668
1.397824 -0.800040 0.543737
1.350127 -0.777156 0.096886
1.332255 -0.785997 0.061777
1.348216 -0.768742 -0.050042
1.338071 -0.778821 0.151857
1.341187 -0.795182 0.191702
1.329186 -0.768076 -0.036057
1.299113 -0.771192 0.046882
1.315203 -0.763657 -0.094035
1.305184 -0.761697 -0.101030
1.350030 -0.799582 0.341668
1.355081 -0.803417 0.329635
1.358058 -0.800318 0.322668
1.308156 -0.770539 -0.013113
1.381994 -0.819118 0.530519
1.393032 -0.817568 0.485544
1.360140 -0.804963 0.287621
1.330166 -0.778899 0.045830
1.353820 -0.805671 0.557619
1.341983 -0.791242 0.296733
1.326125 -0.782488 0.100790
1.314275 -0.774731 -0.091158
1.319184 -0.793975 0.142669
1.294185 -0.778965 0.013782
1.349153 -0.802619 0.238621
1.303088 -0.782967 0.124756
1.276179 -0.771527 -0.050171
1.303064 -0.808160 0.347517
1.270174 -0.771584 -0.051181
1.301041 -0.808368 0.366513
1.266055 -0.785733 0.163686
1.280173 -0.780173 0.018748
1.337845 -0.808601 0.529557
1.263165 -0.784757 0.060686
1.298164 -0.788750 0.095686
1.272102 -0.793896 0.185610
1.290123 -0.791344 0.147653
1.275135 -0.769596 -0.046160
1.260194 -0.786647 0.045660
1.246176 -0.778230 -0.011276
1.276210 -0.778705 -0.034249
1.314840 -0.814237 0.569474
1.242173 -0.779335 -0.005293
1.283833 -0.815621 0.575422
1.286000 -0.803193 0.329533
1.306133 -0.815944 0.324429
1.290015 -0.802981 0.311537
1.257189 -0.782138 -0.012312
1.315975 -0.823718 0.514370
1.291085 -0.806654 0.278498
1.323002 -0.821209 0.469399
1.300861 -0.816156 0.543428
1.277199 -0.790511 0.045628
1.302091 -0.809698 0.293478
1.305967 -0.829243 0.556302
1.255051 -0.783263 0.098674
1.256134 -0.796655 0.139545
1.242191 -0.787570 0.014612
1.244200 -0.776570 -0.085283
1.233190 -0.770230 -0.131236
1.249097 -0.791557 0.121584
1.276082 -0.803369 0.231502
1.237990 -0.806752 0.333431
1.225189 -0.769170 -0.146238
1.224100 -0.797185 0.159500
1.267161 -0.827760 0.363257
1.226160 -0.786786 0.018596
1.215182 -0.794310 0.060511
1.282873 -0.818114 0.516373
1.229152 -0.806381 0.183413
1.228066 -0.792991 0.142540
1.238138 -0.794420 0.094535
1.201145 -0.789280 0.042541
1.232205 -0.785130 -0.043389
1.261863 -0.822708 0.554303
1.224220 -0.788329 -0.031429
1.236868 -0.825026 0.560249
1.241045 -0.814652 0.322342
1.246099 -0.819536 0.315298
1.236019 -0.810523 0.303374
1.201162 -0.787780 -0.011458
1.271046 -0.838176 0.506148
1.255926 -0.829594 0.533216
1.237094 -0.815216 0.272324
1.262996 -0.827780 0.457237
1.214142 -0.793217 0.045503
1.230997 -0.807391 0.283393
1.258004 -0.839709 0.546117
1.209161 -0.807180 0.137361
1.210096 -0.795777 0.097472
1.192186 -0.795149 0.015455
1.199240 -0.789119 -0.082484
1.197044 -0.819168 0.326236
1.195083 -0.798151 0.119430
1.198027 -0.820395 0.350225
1.231146 -0.817870 0.228279
1.170071 -0.801748 0.154367
1.168181 -0.801836 0.059358
1.177164 -0.795345 0.018429
1.178133 -0.811922 0.179274
1.230890 -0.826600 0.504202
1.175046 -0.798553 0.138399
1.187133 -0.801992 0.093376
1.155152 -0.797797 0.041379
1.222939 -0.837079 0.544090
1.175164 -0.789799 -0.040527
1.168181 -0.792977 -0.029566
1.200970 -0.842379 0.551009
1.185011 -0.818189 0.312217
1.198110 -0.828032 0.309133
1.196947 -0.843653 0.573991
1.188031 -0.819008 0.296209
1.148125 -0.792395 -0.009590
1.211005 -0.840720 0.492026
1.192861 -0.829127 0.515122
1.187102 -0.823742 0.267155
1.211030 -0.849150 0.534943
1.220071 -0.843235 0.451007
1.186035 -0.818867 0.278201
1.166160 -0.803778 0.046316
1.156121 -0.810747 0.134239
1.144187 -0.803706 0.016288
1.156069 -0.801377 0.096328
1.142994 -0.820668 0.315133
1.161087 -0.833796 0.346025
1.145207 -0.794764 -0.078629
1.145061 -0.803698 0.117292
1.128085 -0.810182 0.149211
1.175121 -0.823456 0.223132
1.113117 -0.803441 0.058253
1.128141 -0.800888 0.017293
1.128103 -0.816449 0.175146
1.131055 -0.807028 0.135239
1.187942 -0.839020 0.495003
1.110149 -0.805290 0.039227
1.142148 -0.811498 0.092203
1.160857 -0.834587 0.525017
1.120163 -0.799539 -0.027712
1.122131 -0.795423 -0.037671
1.135852 -0.835884 0.528972
1.168049 -0.860975 0.569761
1.137004 -0.824659 0.304071
1.142046 -0.828580 0.301037
1.133993 -0.822539 0.288085
1.150904 -0.840523 0.504933
1.104136 -0.801907 -0.008762
1.157988 -0.846208 0.479883
1.131043 -0.825301 0.260049
1.153972 -0.849645 0.519846
1.131001 -0.823420 0.271064
1.152977 -0.840825 0.434924
1.108104 -0.817282 0.133093
1.110101 -0.806403 0.046198
1.099173 -0.810214 0.016147
1.114062 -0.838261 0.338901
1.098997 -0.828095 0.306983
1.113090 -0.811872 0.096148
1.081055 -0.814673 0.145087
1.097046 -0.810212 0.114146
1.098194 -0.802333 -0.074785
1.079170 -0.816839 0.058055
1.085092 -0.822919 0.173007
1.082124 -0.807407 0.017149
1.121085 -0.828016 0.217996
1.066128 -0.810766 0.037097
1.088061 -0.815490 0.132079
1.128872 -0.838534 0.479912
1.118883 -0.843969 0.513849
1.084060 -0.811130 0.091113
1.070114 -0.803116 -0.025831
1.096888 -0.846235 0.517798
1.101902 -0.851485 0.547753
1.076118 -0.802972 -0.034825
1.088977 -0.829124 0.295945
1.097043 -0.836046 0.295885
1.084963 -0.827025 0.280957
1.098853 -0.841982 0.491833
1.108963 -0.850658 0.468755
1.051058 -0.802502 -0.007854
1.108967 -0.856064 0.509704
1.085037 -0.832787 0.255894
1.062071 -0.821779 0.130970
1.070044 -0.843693 0.331771
1.082978 -0.828915 0.265927
1.052134 -0.814750 0.017022
1.052962 -0.831526 0.297870
1.067110 -0.815893 0.046027
1.114038 -0.855238 0.429708
1.064052 -0.816411 0.095020
1.038043 -0.821111 0.139947
1.054040 -0.817681 0.111996
1.031099 -0.817361 0.056970
1.043072 -0.828364 0.169880
1.048148 -0.806929 -0.070915
1.037089 -0.811911 0.017027
1.024112 -0.817230 0.035959
1.045048 -0.821948 0.128940
1.064807 -0.842405 0.496776
1.086891 -0.847943 0.471743
1.070047 -0.832550 0.213864
1.046091 -0.822559 0.089929
1.068952 -0.863829 0.542566
1.045823 -0.845639 0.500719
1.028103 -0.810609 -0.023980
1.047977 -0.836533 0.289798
1.033106 -0.810475 -0.032976
1.054031 -0.842487 0.290745
1.045980 -0.836425 0.275792
1.053839 -0.847377 0.479700
1.063950 -0.861480 0.499571
1.016096 -0.814916 -0.007045
1.061943 -0.856105 0.459619
1.043032 -0.840227 0.251745
1.021971 -0.843148 0.323695
1.070751 -0.860970 0.655588
1.018044 -0.827254 0.128838
1.014973 -0.839893 0.290716
1.012125 -0.822211 0.017875
1.040973 -0.836354 0.261778
1.002051 -0.829493 0.136797
1.061988 -0.857724 0.419594
1.021085 -0.822420 0.046879
1.002049 -0.833798 0.166750
0.997132 -0.828744 0.055789
1.013032 -0.825136 0.110845
1.021049 -0.824890 0.093855
1.003129 -0.824294 0.015835
1.012183 -0.819362 -0.069110
0.985090 -0.822648 0.033832
1.004034 -0.828381 0.125799
1.029855 -0.854750 0.489581
1.039856 -0.851366 0.460624
1.026031 -0.839008 0.209718
1.023905 -0.865208 0.529471
1.000783 -0.848019 0.487613
1.001053 -0.827051 0.088802
0.986081 -0.817098 -0.022124
1.006961 -0.841928 0.282667
1.013021 -0.848902 0.285602
0.993103 -0.818955 -0.030138
1.003968 -0.842850 0.270647
1.008807 -0.850776 0.468581
1.016899 -0.862898 0.488470
0.978097 -0.823352 -0.006205
1.015908 -0.859524 0.449498
0.985982 -0.851521 0.319538
0.998000 -0.844680 0.246615
0.984062 -0.836631 0.127674
0.967894 -0.838321 0.281646
0.975129 -0.830627 0.017716
0.966060 -0.837860 0.132639
0.999970 -0.843778 0.257623
0.965039 -0.840193 0.164614
0.954078 -0.831216 0.055684
1.015968 -0.863164 0.411451
0.980075 -0.829887 0.047725
0.976046 -0.834534 0.108677
0.981042 -0.832337 0.093703
0.950097 -0.831030 0.032678
0.961085 -0.827755 0.015721
0.968140 -0.823884 -0.065239
0.965022 -0.834787 0.122659
0.985818 -0.857113 0.476476
0.995831 -0.855771 0.451497
0.965794 -0.855320 0.477470
0.999642 -0.863961 0.674428
0.962038 -0.833486 0.088661
0.976968 -0.840508 0.205613
0.951100 -0.827501 -0.021300
0.955867 -0.839396 0.273601
0.967965 -0.850340 0.279505
0.999750 -0.880255 0.702259
0.950062 -0.823447 -0.028265
0.953867 -0.839315 0.262594
0.980914 -0.871241 0.481314
0.936874 -0.846964 0.310497
0.940088 -0.830784 -0.005355
0.977682 -0.876586 0.712264
0.952941 -0.846136 0.242517
0.943029 -0.841065 0.125550
0.938114 -0.837037 0.017579
0.951893 -0.843244 0.251541
0.918057 -0.836605 0.054559
0.944085 -0.839290 0.047557
0.974965 -0.870558 0.404295
0.923068 -0.834176 0.015582
0.926636 -0.843556 0.457513
0.931137 -0.832314 -0.063398
0.938679 -0.846237 0.436495
0.943916 -0.875566 0.474209
0.936958 -0.847935 0.203459
0.935844 -0.870628 0.470236
0.914788 -0.859061 0.390308
0.889621 -0.848883 0.448385
0.890760 -0.864956 0.456224
0.897635 -0.848603 0.427392
0.871575 -0.845924 0.432379
0.871637 -0.851772 0.416314
0.863678 -0.862149 0.444192
0.866668 -0.859920 0.423210
