# .PCD v0.7 - Point Cloud Data file format
VERSION 0.7
FIELDS x y z
SIZE 4 4 4
TYPE F F F
COUNT 1 1 1
WIDTH 64
HEIGHT 1
VIEWPOINT 0 0 0 1
POINTS 64
DATA ascii
-0.192992 1.765270 1.975809
-0.180948 1.790154 1.987230
-0.186108 2.369998 2.631565
-0.193484 1.756245 1.980726
-0.168975 2.374311 2.617643
-0.181483 1.796240 1.985384
-0.108928 1.715850 1.902146
-0.188621 2.372623 2.660630
-0.198042 1.753484 1.967733
-0.098887 1.733788 1.909446
-0.169445 2.372549 2.608634
-0.069590 1.735839 1.915521
-0.110384 1.693915 1.900853
-0.195183 2.379716 2.658760
-0.202652 1.773340 1.979112
-0.059578 1.760630 1.931933
-0.152839 1.833356 1.991074
-0.098408 1.734843 1.909523
-0.033214 2.228416 2.148352
-0.029144 2.220068 2.108217
-0.029556 1.819709 2.000903
-0.072081 1.710872 1.916177
-0.114984 1.689089 1.891825
-0.020538 1.834676 2.006147
-0.198691 2.364198 2.633526
-0.154011 3.199521 3.458765
-0.059115 1.750810 1.924821
-0.047613 2.155714 2.129213
0.053111 3.239662 3.059348
0.014876 2.052394 1.973583
-0.033063 1.793703 2.004529
-0.076674 1.701069 1.906062
-0.145300 2.358544 2.630449
-0.067811 1.759015 1.912980
-0.019101 1.833662 2.012168
-0.059820 2.287319 2.284302
-0.001653 2.007245 1.981890
0.063031 2.101399 1.989371
0.066099 2.090183 2.004199
0.050588 3.227217 3.032088
-0.038659 1.783853 1.997407
-0.080266 1.697161 1.903043
-0.026786 1.841831 2.003322
-0.074553 1.786902 1.922453
-0.014153 1.960568 1.961176
0.045629 2.027223 1.999225
0.117951 2.208166 2.087059
0.124074 2.190094 2.093779
0.062410 2.108483 1.988494
-0.042248 1.779875 1.999382
-0.033315 1.817540 1.959970
-0.024715 1.935524 1.964809
0.031110 1.983428 1.985557
0.098654 2.112243 2.080572
0.051608 2.138493 1.988969
0.118384 2.205343 2.081018
0.010841 1.870792 2.023834
0.019559 1.955383 1.989142
0.080180 2.054559 2.058685
0.105695 2.206726 2.057039
0.066650 2.020526 2.061173
0.095156 2.180510 2.007634
0.161868 2.255242 2.107792
0.156125 2.282244 2.111205
