# .PCD v0.7 - Point Cloud Data file format
VERSION 0.7
FIELDS x y z
SIZE 4 4 4
TYPE F F F
COUNT 1 1 1
WIDTH 17
HEIGHT 1
VIEWPOINT 0 0 0 1
POINTS 17
DATA ascii
4.906894 1.879399 1.243599
4.630917 1.719097 0.590674
4.662463 1.602562 0.588274
4.848979 1.765050 0.613713
5.148350 1.866684 0.808878
4.737776 1.483019 1.303774
4.885533 1.649523 0.613328
5.164919 1.736193 0.803392
5.198166 1.874115 0.745044
5.152526 1.598637 0.793953
5.248732 1.757620 0.749621
4.720135 1.391167 1.263129
4.692860 1.358139 1.420877
5.306326 1.641144 0.756207
4.932465 1.494891 0.899812
4.707741 1.341669 1.341921
4.870183 1.459485 1.026917
