# .PCD v0.7 - Point Cloud Data file format
VERSION 0.7
FIELDS x y z
SIZE 4 4 4
TYPE F F F
COUNT 1 1 1
WIDTH 18
HEIGHT 1
VIEWPOINT 0 0 0 1
POINTS 18
DATA ascii
0.649405 -2.866062 1.810487
0.596583 -2.918142 1.832551
0.511152 -2.826953 1.766268
0.529390 -2.984143 1.748606
0.516650 -3.143302 1.748739
0.504778 -3.105516 1.724365
0.460712 -2.977485 1.739080
0.427211 -3.062045 1.691485
0.438927 -3.169527 1.759386
0.360454 -3.113203 1.707391
0.599557 -3.031900 1.789912
0.516345 -2.951802 1.736827
0.492650 -3.056760 1.717017
0.469802 -3.035810 1.714990
0.458155 -3.091881 1.706512
0.442849 -3.188383 1.781817
0.419939 -3.185542 1.795674
0.355743 -3.060138 1.706037
