# .PCD v0.7 - Point Cloud Data file format
VERSION 0.7
FIELDS x y z
SIZE 4 4 4
TYPE F F F
COUNT 1 1 1
WIDTH 28
HEIGHT 1
VIEWPOINT 0 0 0 1
POINTS 28
DATA ascii
1.228255 -1.166189 2.129633
1.210636 -1.198106 2.135420
1.198014 -1.234172 2.151145
1.197129 -1.345827 2.098272
1.179449 -1.397846 2.106714
1.179524 -1.384943 2.118011
1.161824 -1.434914 2.122472
1.173011 -1.469653 2.111081
1.174933 -1.439369 2.160534
1.219520 -1.593275 2.242648
1.164989 -1.577097 2.105310
1.157935 -1.544106 2.105793
1.148065 -1.571893 2.092460
1.167434 -1.651803 2.169596
1.128468 -1.616092 2.118168
1.156858 -1.680476 2.089529
1.144076 -1.673316 2.086873
1.140274 -1.733818 2.126132
1.128286 -1.719147 2.077342
1.846613 -2.788635 3.636896
1.137787 -1.778779 2.068928
1.120222 -1.838234 2.114482
1.115252 -1.830266 2.043586
1.086466 -1.923371 2.047317
1.082687 -1.873466 2.069386
1.078305 -2.066986 2.040981
1.093426 -2.070742 2.030066
1.069351 -2.028645 2.019626
