# .PCD v0.7 - Point Cloud Data file format
VERSION 0.7
FIELDS x y z
SIZE 4 4 4
TYPE F F F
COUNT 1 1 1
WIDTH 48
HEIGHT 1
VIEWPOINT 0 0 0 1
POINTS 48
DATA ascii
0.181006 2.838730 2.131250
0.195045 3.009369 2.168285
0.151509 2.926506 2.174728
0.205478 2.991155 2.190069
0.185557 2.999712 2.139154
0.250128 2.897999 2.182616
0.219378 2.948958 2.156398
0.278214 3.119207 2.258592
0.149793 2.866911 2.148740
0.208698 2.275910 2.137649
0.220283 2.953257 2.197521
0.244955 3.237633 3.181725
0.176613 2.106554 2.124608
0.166863 2.215669 2.110478
0.194541 2.002704 2.073856
0.281692 3.046573 2.239395
0.263522 3.070141 2.189748
0.305744 2.827677 2.137659
0.285891 2.937121 2.152508
0.214759 2.278676 2.156783
0.239761 3.179780 2.189596
0.220598 2.944102 2.206425
0.344142 3.033107 2.210402
0.165282 2.203866 2.097327
0.293596 3.003748 2.239749
0.273536 2.346635 2.216218
0.196779 2.117474 2.090941
0.179859 2.226566 2.128801
0.223068 2.096403 2.119684
0.224108 2.266722 2.162668
0.251035 2.087961 2.171647
0.329969 3.010926 2.149030
0.275156 2.321831 2.205850
0.289258 2.976811 2.231321
0.310375 3.112756 2.141756
0.223083 2.277649 2.165915
0.259107 2.213826 2.188948
0.320940 2.288088 2.176453
0.239337 2.267915 2.165833
0.281953 2.164098 2.194176
0.300846 2.108237 2.203270
0.282485 2.310879 2.209742
0.321390 2.272211 2.169235
0.280410 2.324822 2.211035
0.314127 2.226464 2.204461
0.301729 2.313205 2.208947
0.301108 2.006487 2.186693
0.303007 2.011396 2.193789
