# .PCD v0.7 - Point Cloud Data file format
VERSION 0.7
FIELDS x y z
SIZE 4 4 4
TYPE F F F
COUNT 1 1 1
WIDTH 183
HEIGHT 1
VIEWPOINT 0 0 0 1
POINTS 183
DATA ascii
-1.032305 1.855751 0.520684
-1.015490 1.867940 0.470296
-0.978839 1.854800 0.515709
-0.974331 1.871467 0.372927
-1.002723 1.870162 0.417712
-0.964128 1.883992 0.263222
-0.976364 1.869354 0.389050
-0.991424 1.872269 0.396946
-0.959010 1.863002 0.465339
-1.007372 1.875159 0.403957
-0.923343 1.849858 0.509737
-0.923474 1.885691 0.128999
-0.915810 1.864556 0.364994
-0.939282 1.886237 0.211892
-0.984823 1.876359 0.366395
-0.944243 1.863228 0.413773
-0.907683 1.877069 0.260248
-0.920889 1.868419 0.384112
-0.930915 1.860352 0.390999
-0.903527 1.858060 0.460364
-0.894653 1.897022 0.068649
-0.944862 1.862240 0.399035
-0.921512 1.885489 0.160375
-0.870862 1.844912 0.503707
-0.910273 1.884583 0.144580
-0.869048 1.884777 0.126042
-0.858297 1.856640 0.358033
-0.882148 1.878668 0.139911
-0.881844 1.876318 0.209908
-0.924343 1.868428 0.363481
-0.866258 1.901663 -0.050781
-0.886770 1.856285 0.410817
-0.852227 1.869149 0.256247
-0.861454 1.901555 -0.027685
-0.862370 1.858502 0.377149
-0.875947 1.904243 0.025246
-0.877455 1.861407 0.387040
-0.847022 1.847128 0.454354
-0.836228 1.882118 0.067641
-0.818373 1.837967 0.497660
-0.889403 1.859295 0.396073
-0.873237 1.904524 -0.032554
-0.866106 1.883557 0.160424
-0.899605 1.892736 0.108140
-0.852695 1.912837 -0.084247
-0.852845 1.877663 0.143622
-0.846466 1.909946 -0.103157
-0.859240 1.904495 -0.022283
-0.814605 1.879869 0.122048
-0.807841 1.859697 0.353036
-0.874834 1.875570 0.148462
-0.829445 1.877373 0.209928
-0.830743 1.882740 0.137939
-0.833149 1.894572 -0.025028
-0.807850 1.887768 -0.050781
-0.862847 1.854500 0.360533
-0.831291 1.849344 0.406822
-0.801813 1.871205 0.254239
-0.809493 1.905950 -0.087655
-0.803032 1.889661 -0.028667
-0.810917 1.859555 0.373151
-0.817532 1.892337 0.025262
-0.840114 1.911047 -0.122874
-0.822983 1.857465 0.383053
-0.836057 1.912069 -0.125787
-0.795577 1.847160 0.452348
-0.786849 1.887190 0.066639
-0.854841 1.905553 -0.037908
-0.834942 1.855347 0.393083
-0.813842 1.890618 -0.030540
-0.838176 1.875821 0.109161
-0.809685 1.877627 0.160455
-0.795316 1.900932 -0.082252
-0.801457 1.880724 0.143638
-0.840409 1.908754 -0.071608
-0.791091 1.905043 -0.102137
-0.801854 1.893582 -0.020281
-0.755357 1.857765 0.347031
-0.762177 1.882949 0.119086
-0.777031 1.874434 0.208911
-0.824464 1.880623 0.149476
-0.777330 1.879812 0.136941
-0.781768 1.897659 -0.026011
-0.753457 1.880861 -0.050794
-0.749372 1.864273 0.251188
-0.776827 1.846386 0.404845
-0.810425 1.858532 0.360578
-0.826446 1.914247 -0.160306
-0.757111 1.904048 -0.088664
-0.752645 1.890752 -0.030687
-0.820544 1.908185 -0.146247
-0.759458 1.858608 0.369134
-0.765157 1.890410 0.026252
-0.781749 1.898138 -0.118870
-0.768505 1.850524 0.379038
-0.776675 1.899167 -0.122764
-0.732432 1.880273 0.065626
-0.795462 1.893635 -0.033881
-0.782497 1.853390 0.391072
-0.756277 1.871692 0.160428
-0.763485 1.896692 -0.029518
-0.785800 1.880875 0.111213
-0.744954 1.905018 -0.082248
-0.747033 1.871799 0.142603
-0.740741 1.909127 -0.101134
-0.781041 1.896834 -0.066581
-0.749491 1.894654 -0.018266
-0.709745 1.876032 0.116033
-0.724601 1.869501 0.206875
-0.768039 1.869696 0.149457
-0.725914 1.879883 0.134930
-0.728378 1.892746 -0.026030
-0.706097 1.886942 -0.051829
-0.697939 1.857333 0.249118
-0.754958 1.850584 0.358569
-0.767095 1.900333 -0.154298
-0.703714 1.898148 -0.089691
-0.701245 1.889845 -0.032707
-0.763194 1.899270 -0.141230
-0.712767 1.887479 0.027220
-0.730403 1.900211 -0.115879
-0.726337 1.902239 -0.119785
-0.683035 1.881341 0.064571
-0.743104 1.893699 -0.030893
-0.710106 1.889764 -0.027572
-0.703871 1.866743 0.161374
-0.732408 1.875929 0.113174
-0.692587 1.900095 -0.080304
-0.692594 1.863866 0.141559
-0.686352 1.900215 -0.100189
-0.729694 1.898898 -0.063598
-0.657301 1.867112 0.112944
-0.696111 1.887724 -0.016323
-0.674183 1.864554 0.205781
-0.715638 1.866747 0.150416
-0.674985 1.883823 -0.025104
-0.672473 1.871956 0.132866
-0.657723 1.891020 -0.052884
-0.652332 1.892233 -0.089778
-0.649846 1.885928 -0.033776
-0.715768 1.903402 -0.150309
-0.712872 1.904334 -0.137244
-0.660373 1.878556 0.027135
-0.679066 1.897285 -0.112932
-0.673984 1.900320 -0.117810
-0.630623 1.870418 0.063471
-0.689744 1.888766 -0.027928
-0.655713 1.878845 -0.026638
-0.649444 1.855806 0.161310
-0.639207 1.891180 -0.079372
-0.678011 1.870984 0.115159
-0.641191 1.857925 0.141482
-0.632982 1.890297 -0.098265
-0.676346 1.893964 -0.059634
-0.641733 1.877791 -0.013381
-0.664247 1.862799 0.151353
-0.624609 1.883898 -0.025150
-0.603313 1.874111 -0.052999
-0.600942 1.886326 -0.090856
-0.598449 1.879014 -0.034862
-0.662438 1.898472 -0.145347
-0.659540 1.899402 -0.132282
-0.609998 1.877619 0.028081
-0.626715 1.893359 -0.109978
-0.623648 1.899390 -0.114868
-0.635367 1.875836 -0.025016
-0.605352 1.876909 -0.024703
-0.587842 1.884254 -0.077462
-0.625611 1.863042 0.116078
-0.582609 1.887382 -0.098340
-0.622988 1.885028 -0.055708
-0.592377 1.874853 -0.011474
-0.574225 1.878975 -0.025242
-0.554936 1.874191 -0.054085
-0.551571 1.883408 -0.090949
-0.609097 1.888541 -0.140430
-0.605189 1.885473 -0.127381
-0.574351 1.881434 -0.107094
-0.570277 1.884468 -0.111993
-0.585013 1.875893 -0.022069
-0.569619 1.873091 -0.051809
-0.558770 1.882602 -0.135537
-0.554852 1.883537 -0.123454
