# .PCD v0.7 - Point Cloud Data file format
VERSION 0.7
FIELDS x y z
SIZE 4 4 4
TYPE F F F
COUNT 1 1 1
WIDTH 33
HEIGHT 1
VIEWPOINT 0 0 0 1
POINTS 33
DATA ascii
-1.528107 2.172591 1.984245
-1.528230 2.205947 1.866570
-1.768045 2.642590 1.758390
-1.616637 2.316836 1.650585
-1.514725 2.170911 1.877952
-1.500728 2.162759 2.073853
-1.604866 2.228419 1.693427
-1.599071 2.409508 1.690479
-1.515338 2.152606 1.904519
-1.589268 2.315091 1.732259
-1.576495 2.500228 1.729353
-1.496704 2.233325 1.941286
-1.579403 2.210708 1.770931
-1.562582 2.388954 1.760950
-1.552946 2.593933 1.770264
-1.470021 2.307180 1.970976
-1.560743 2.286483 1.802649
-1.515785 2.826822 2.415875
-1.548067 2.485552 1.805898
-1.533520 2.704484 1.822363
-1.542111 2.365235 1.836403
-1.525511 2.576262 1.845781
-1.515161 2.822982 1.878554
-1.520487 2.444997 1.871168
-1.531029 3.200118 2.472790
-1.505026 2.675879 1.892766
-1.485727 2.930626 1.928627
-1.487659 2.791349 1.950928
-1.534738 3.190903 2.490441
-1.466530 3.069972 1.999055
-1.459196 2.893034 1.996940
-1.496767 3.091755 2.439083
-1.432822 3.005592 2.053077
