# .PCD v0.7 - Point Cloud Data file format
VERSION 0.7
FIELDS x y z
SIZE 4 4 4
TYPE F F F
COUNT 1 1 1
WIDTH 34
HEIGHT 1
VIEWPOINT 0 0 0 1
POINTS 34
DATA ascii
2.842647 -0.891994 0.784865
2.657096 -0.850606 0.782576
2.746418 -0.880105 0.763971
2.729965 -0.922963 0.762791
2.705933 -0.933581 0.797273
2.806495 -0.970763 0.781630
2.701349 -1.001180 0.796680
2.458438 -0.951656 0.885910
2.410288 -1.001638 0.878197
2.315286 -0.990041 0.926333
2.127455 -0.940796 0.927183
2.158343 -0.961541 0.915084
2.306409 -1.026207 0.852390
2.270983 -1.035854 0.918770
2.083496 -0.972805 0.934937
2.170019 -1.021238 0.954897
2.127093 -1.009964 0.911621
2.171859 -1.053189 0.892187
2.024812 -0.988492 0.954887
2.051087 -1.016203 0.929576
2.141666 -1.067570 0.953525
1.970711 -0.988689 0.963235
2.163679 -1.090561 0.936272
2.036171 -1.035914 0.983975
1.978180 -1.023220 0.941550
2.088669 -1.096758 0.954245
2.058526 -1.085369 0.930130
1.922959 -1.019398 0.947975
2.024901 -1.086763 0.989716
2.027859 -1.108457 0.972268
1.979750 -1.108427 0.980698
1.958797 -1.107035 0.971476
1.952278 -1.150619 0.975446
1.883467 -1.119517 0.948301
