# .PCD v0.7 - Point Cloud Data file format
VERSION 0.7
FIELDS x y z
SIZE 4 4 4
TYPE F F F
COUNT 1 1 1
WIDTH 668
HEIGHT 1
VIEWPOINT 0 0 0 1
POINTS 668
DATA ascii
2.836045 -0.721041 -0.256359
2.783078 -0.721916 -0.356411
2.693909 -0.771763 0.247687
2.670928 -0.776464 0.236583
2.564929 -0.788174 0.284333
2.510966 -0.781056 0.234452
2.452019 -0.776188 0.097508
2.490983 -0.788760 0.223290
2.395051 -0.774802 0.034509
2.388164 -0.746995 -0.306005
2.394150 -0.752839 -0.264113
2.449993 -0.789989 0.290268
2.356066 -0.776885 0.043460
2.397988 -0.799420 0.267064
2.327094 -0.772191 -0.038469
2.368089 -0.774466 -0.028504
2.315101 -0.773139 -0.039491
2.341042 -0.787890 0.146258
2.409034 -0.791336 0.162206
2.361017 -0.794500 0.225146
2.329088 -0.779461 -0.024611
2.296121 -0.774480 -0.120538
2.320127 -0.771544 -0.119474
2.344073 -0.783411 0.072332
2.290118 -0.774964 -0.095544
2.328126 -0.774048 -0.094518
2.302072 -0.787679 0.090242
2.340003 -0.806047 0.305926
2.327107 -0.778753 -0.008595
2.265170 -0.764812 -0.200368
2.283171 -0.765703 -0.207384
2.263162 -0.767442 -0.168415
2.312053 -0.794052 0.209140
2.247105 -0.786399 0.032244
2.240206 -0.761996 -0.288336
2.235199 -0.763819 -0.246365
2.295052 -0.803302 0.274964
2.217117 -0.788523 0.042197
2.241055 -0.804722 0.250920
2.280033 -0.809662 0.344848
2.194140 -0.786940 -0.034792
2.208150 -0.781145 -0.025672
2.177153 -0.782864 -0.036715
2.183146 -0.786132 -0.023776
2.217077 -0.802948 0.214943
2.202097 -0.799446 0.140996
2.247098 -0.799804 0.155000
2.150178 -0.781292 -0.112704
2.162189 -0.776352 -0.110603
2.151172 -0.784728 -0.090768
2.192134 -0.792004 0.070127
2.155135 -0.793208 0.084099
2.191072 -0.810329 0.287805
2.172185 -0.782835 -0.086726
2.172168 -0.788440 -0.005821
2.124222 -0.774714 -0.188594
2.117220 -0.775295 -0.158601
2.128231 -0.772619 -0.193552
2.171114 -0.803506 0.198919
2.107166 -0.793023 0.030082
2.083268 -0.767031 -0.268465
2.092253 -0.773798 -0.230590
2.083178 -0.794182 0.041056
2.105121 -0.812130 0.237743
2.141123 -0.810649 0.260783
2.129107 -0.814937 0.326709
2.057202 -0.792674 -0.031933
2.105090 -0.820063 0.385614
2.086140 -0.808451 0.205806
2.067213 -0.788847 -0.023854
2.048211 -0.791592 -0.034914
2.048208 -0.791831 -0.022916
2.062165 -0.803992 0.134876
2.101165 -0.807312 0.147820
2.015239 -0.788111 -0.105865
2.017234 -0.790530 -0.084908
2.032246 -0.786179 -0.103823
2.051201 -0.797628 0.067987
2.034193 -0.801813 0.078903
2.052145 -0.813636 0.269709
2.036246 -0.791649 -0.079926
2.035231 -0.796132 -0.005001
1.986285 -0.780630 -0.176736
1.989277 -0.784189 -0.148800
2.035183 -0.809978 0.188763
1.998287 -0.782548 -0.181772
1.980230 -0.799699 0.028925
1.966317 -0.781046 -0.253763
1.960241 -0.799869 0.039920
1.958315 -0.779785 -0.215732
1.985185 -0.820595 0.225550
1.992183 -0.817291 0.310634
1.934266 -0.798441 -0.029069
1.965207 -0.813979 0.196672
1.982160 -0.826421 0.368462
1.998201 -0.814029 0.246687
1.934269 -0.799358 -0.033088
1.933267 -0.799574 -0.022091
1.946273 -0.796597 -0.022029
1.940232 -0.808600 0.129762
1.917287 -0.801966 -0.101156
1.975232 -0.814887 0.141645
1.903293 -0.798337 -0.081083
1.918257 -0.807435 0.073770
1.942208 -0.821106 0.256539
1.935261 -0.806306 0.065794
1.916304 -0.796019 -0.098038
1.995165 -0.837521 0.424256
1.912310 -0.798475 -0.074082
1.886333 -0.793564 -0.168008
1.910298 -0.802875 -0.003156
1.892324 -0.799086 -0.142111
1.913253 -0.815505 0.179630
1.873290 -0.807400 0.026754
1.882345 -0.792470 -0.171987
1.862296 -0.810626 0.039691
1.850376 -0.789052 -0.239938
1.856366 -0.792755 -0.205003
1.872255 -0.825104 0.214440
1.859271 -0.820582 0.189523
1.834322 -0.808257 -0.026279
1.873229 -0.832873 0.354314
1.876254 -0.823749 0.297485
1.841319 -0.811345 -0.022338
1.829329 -0.806147 -0.031239
1.852324 -0.810401 -0.020317
1.842290 -0.819276 0.125534
1.867226 -0.834006 0.412302
1.886267 -0.824571 0.237458
1.801355 -0.804817 -0.095229
1.823314 -0.817121 0.069563
1.846268 -0.830627 0.244333
1.807348 -0.809181 -0.077311
1.864297 -0.824515 0.136436
1.824328 -0.812001 0.063663
1.811364 -0.803888 -0.092209
1.866234 -0.843491 0.438120
1.883237 -0.844885 0.406089
1.803373 -0.806335 -0.068253
1.784392 -0.803498 -0.159218
1.786386 -0.805975 -0.135262
1.787342 -0.820163 0.025489
1.806359 -0.812642 -0.002364
1.813316 -0.825118 0.172424
1.774408 -0.799415 -0.162139
1.761361 -0.815366 0.038583
1.779317 -0.833694 0.205256
1.751434 -0.798057 -0.228128
1.764335 -0.827230 0.183377
1.756424 -0.802735 -0.194213
1.774299 -0.838352 0.340190
1.742381 -0.817073 -0.024466
1.736390 -0.812944 -0.030386
1.740385 -0.816127 -0.021446
1.772294 -0.839473 0.397179
1.771327 -0.829255 0.285359
1.751350 -0.828990 0.122329
1.743395 -0.814186 -0.018407
1.775341 -0.830105 0.227332
1.747338 -0.834151 0.232248
1.706418 -0.810692 -0.090357
1.729378 -0.822817 0.065437
1.709413 -0.814011 -0.074419
1.759367 -0.830184 0.132310
1.728392 -0.820747 0.062478
1.714426 -0.811776 -0.086376
1.752297 -0.851399 0.446950
1.763310 -0.848860 0.418997
1.774315 -0.849282 0.388985
1.680461 -0.805420 -0.151267
1.710434 -0.816190 -0.064459
1.686452 -0.810902 -0.127370
1.722380 -0.833775 0.166241
1.686413 -0.823906 0.024403
1.709424 -0.820449 -0.000530
1.676421 -0.823140 0.037419
1.685466 -0.810359 -0.154364
1.687386 -0.840290 0.196113
1.670405 -0.830887 0.177293
1.655498 -0.804073 -0.216256
1.684368 -0.844910 0.329048
1.645455 -0.817770 -0.028491
1.645454 -0.817908 -0.021492
1.690358 -0.848026 0.384998
1.647450 -0.820910 -0.021551
1.658490 -0.808727 -0.183340
1.653424 -0.829683 0.118304
1.685391 -0.839858 0.276138
1.657457 -0.822998 -0.017590
1.660406 -0.839721 0.221127
1.638447 -0.826523 0.061354
1.678414 -0.835692 0.218209
1.620480 -0.817567 -0.086501
1.621477 -0.819883 -0.070543
1.676359 -0.858342 0.453807
1.625491 -0.817646 -0.082500
1.664370 -0.856823 0.428831
1.640458 -0.828515 0.061315
1.656445 -0.832844 0.127245
1.669386 -0.853292 0.401897
1.678392 -0.853751 0.373884
1.599520 -0.814366 -0.144450
1.599481 -0.827682 0.023320
1.616503 -0.821070 -0.059563
1.625456 -0.835409 0.159197
1.600516 -0.817818 -0.121513
1.621490 -0.829256 0.000288
1.594486 -0.829942 0.037278
1.593534 -0.815305 -0.146469
1.588467 -0.837886 0.187150
1.591470 -0.837595 0.172153
1.603432 -0.850538 0.370938
1.576509 -0.829735 -0.021731
1.566518 -0.824601 -0.027632
1.602438 -0.851489 0.317909
1.568513 -0.828740 -0.020712
1.568562 -0.811069 -0.206399
1.570556 -0.814702 -0.174464
1.574489 -0.838429 0.115124
1.592469 -0.841440 0.266097
1.571525 -0.827836 -0.015692
1.574479 -0.842319 0.211067
1.556515 -0.831249 0.057253
1.538546 -0.822455 -0.082603
1.592485 -0.843342 0.211050
1.542541 -0.826755 -0.067684
1.615430 -0.860667 0.478763
1.589437 -0.859736 0.433769
1.585441 -0.863308 0.412694
1.542557 -0.823551 -0.077622
1.555528 -0.833294 0.060214
1.572514 -0.838583 0.124125
1.576468 -0.853735 0.384877
1.590468 -0.858259 0.359785
1.527542 -0.837485 0.022122
1.519585 -0.821317 -0.137591
1.543527 -0.840094 0.153098
1.523579 -0.825735 -0.116673
1.533571 -0.826955 -0.055684
1.522548 -0.836749 0.036139
1.529567 -0.832084 0.002226
1.515537 -0.842313 0.167055
1.511601 -0.822253 -0.139610
1.518531 -0.847571 0.179954
1.528502 -0.856135 0.359822
1.494580 -0.831547 -0.021772
1.518515 -0.853071 0.306871
1.495576 -0.835605 -0.018851
1.497620 -0.822077 -0.197618
1.498558 -0.843188 0.112026
1.490623 -0.820675 -0.166585
1.517538 -0.850093 0.257921
1.508540 -0.851993 0.202872
1.487577 -0.838023 0.054116
1.493593 -0.834670 -0.014831
1.466610 -0.829364 -0.078741
1.511512 -0.863209 0.416693
1.469606 -0.832623 -0.065803
1.507563 -0.847001 0.203971
1.536506 -0.868170 0.463608
1.502521 -0.864773 0.395658
1.518507 -0.868082 0.511617
1.472603 -0.836082 0.059155
1.461629 -0.827444 -0.073702
1.494585 -0.845336 0.120988
1.502539 -0.861291 0.371723
1.502552 -0.859773 0.345748
1.453611 -0.842291 0.021024
1.442654 -0.825261 -0.131671
1.441623 -0.836547 0.035139
1.472594 -0.848840 0.148923
1.446648 -0.829658 -0.111753
1.457639 -0.833855 -0.051822
1.438612 -0.843036 0.162036
1.458572 -0.859747 0.348746
1.455636 -0.838928 0.003089
1.452596 -0.855289 0.173799
1.426677 -0.822224 -0.131611
1.430641 -0.840392 -0.021947
1.450583 -0.859744 0.298736
1.420648 -0.838473 -0.016909
1.421629 -0.844956 0.108988
1.423620 -0.847611 0.192953
1.411695 -0.821093 -0.187600
1.418642 -0.842806 0.051020
1.439612 -0.852755 0.249865
1.409693 -0.822678 -0.157625
1.418661 -0.837542 -0.012889
1.437586 -0.864699 0.399659
1.393677 -0.832261 -0.075799
1.395675 -0.835518 -0.062860
1.434590 -0.870349 0.382545
1.449592 -0.867611 0.445613
1.419647 -0.845666 0.196994
1.438589 -0.869516 0.492584
1.391695 -0.832364 -0.069798
1.401672 -0.840898 0.058060
1.431578 -0.878423 0.539418
1.429613 -0.864860 0.358650
1.423654 -0.852108 0.117853
1.433622 -0.866405 0.335616
1.378685 -0.842105 0.020027
1.376688 -0.841395 0.035044
1.369724 -0.829215 -0.125748
1.394672 -0.849543 0.142907
1.374678 -0.847804 0.157943
1.384711 -0.837767 -0.047899
1.388647 -0.862381 0.338693
1.376675 -0.854977 0.166804
1.356716 -0.839229 -0.021924
1.351721 -0.837161 -0.024884
1.378712 -0.841792 0.005033
1.376663 -0.860372 0.288722
1.360743 -0.830168 -0.126765
1.358713 -0.846343 -0.016062
1.361698 -0.852763 0.106836
1.359694 -0.852294 0.184861
1.351716 -0.846585 0.047946
1.344765 -0.828091 -0.179735
1.372688 -0.858447 0.242753
1.372663 -0.869256 0.385568
1.344763 -0.829660 -0.150760
1.367720 -0.852423 -0.012178
1.328749 -0.838400 -0.060915
1.367669 -0.872925 0.369494
1.370671 -0.874063 0.478494
1.380674 -0.874174 0.432484
1.354723 -0.854399 0.191824
1.335759 -0.843280 -0.067010
1.368655 -0.883961 0.524308
1.329752 -0.842708 0.057025
1.363692 -0.869475 0.347559
1.351735 -0.854895 0.115800
1.329745 -0.855952 0.018759
1.365702 -0.871036 0.325525
1.313761 -0.846222 0.033952
1.338740 -0.860336 0.139698
1.310754 -0.850570 0.153890
1.309791 -0.838539 -0.101923
1.328720 -0.867050 0.329602
1.330774 -0.850665 -0.046148
1.321742 -0.863735 0.161635
1.318735 -0.867084 0.281593
1.311789 -0.845652 0.005960
1.303779 -0.855244 -0.014233
1.297815 -0.837135 -0.120898
1.311756 -0.864063 0.179633
1.303769 -0.860596 0.105686
1.305775 -0.859421 0.045698
1.310741 -0.872824 0.371499
1.311764 -0.865173 0.236624
1.279840 -0.833098 -0.171828
1.293805 -0.850277 -0.011133
1.271818 -0.844086 -0.070025
1.301752 -0.875505 0.356444
1.300742 -0.883458 0.507318
1.307752 -0.878644 0.465405
1.291805 -0.861612 0.057660
1.267839 -0.844204 -0.063024
1.301791 -0.866197 0.188596
1.307765 -0.874700 0.417474
1.313759 -0.882176 0.339313
1.297746 -0.885349 0.553291
1.301800 -0.868719 0.113533
1.273816 -0.862108 0.033646
1.260828 -0.854776 0.017785
1.299785 -0.874695 0.316456
1.271809 -0.866416 0.151584
1.246867 -0.839123 -0.115934
1.272821 -0.861102 0.135686
1.266800 -0.868721 0.320572
1.256824 -0.864484 0.156623
1.240858 -0.849949 -0.022127
1.256861 -0.848580 -0.042102
1.262810 -0.873821 0.275464
1.233864 -0.852109 -0.013167
1.268848 -0.862531 0.005635
1.239845 -0.858726 0.170739
1.234861 -0.854207 0.042803
1.250877 -0.850092 -0.117145
1.238850 -0.860387 0.102694
1.254817 -0.876446 0.359430
1.243851 -0.864875 0.229633
1.232882 -0.854153 -0.010204
1.213892 -0.849204 -0.057117
1.221911 -0.840628 -0.137964
1.275803 -0.890169 0.548201
1.256799 -0.891886 0.586173
1.251823 -0.884193 0.347278
1.242823 -0.887072 0.495251
1.242840 -0.879189 0.450397
1.214899 -0.853409 0.055825
1.239827 -0.886907 0.538263
1.240853 -0.876754 0.326421
1.212911 -0.851111 -0.061153
1.239855 -0.874280 0.404485
1.228884 -0.862914 0.182665
1.199908 -0.853931 0.032810
1.205902 -0.859644 0.017696
1.225894 -0.863493 0.110640
1.230857 -0.883533 0.316287
1.204896 -0.863186 0.147652
1.249857 -0.886439 0.310231
1.215897 -0.864886 0.131617
1.201900 -0.868252 0.151555
1.239843 -0.894335 0.561125
1.201893 -0.873520 0.267475
1.204932 -0.857491 -0.040270
1.203902 -0.874540 0.166436
1.181936 -0.858004 -0.012276
1.190926 -0.866051 0.040578
1.187923 -0.867240 0.101567
1.217877 -0.892194 0.352128
1.192944 -0.856388 0.006762
1.181964 -0.847062 -0.111079
1.159967 -0.850925 -0.065146
1.190927 -0.870644 0.224526
1.179955 -0.860046 -0.009312
1.189910 -0.882811 0.335309
1.203879 -0.897449 0.571069
1.167985 -0.845093 -0.159048
1.217888 -0.894723 0.533116
1.200891 -0.898792 0.487028
1.195897 -0.896605 0.529079
1.201908 -0.893947 0.444115
1.191927 -0.885486 0.319257
1.159985 -0.856046 -0.058241
1.165972 -0.863284 0.055639
1.158971 -0.864823 0.032604
1.154975 -0.864503 0.016608
1.181955 -0.874728 0.179441
1.203919 -0.895100 0.401086
1.163949 -0.877187 0.306416
1.179963 -0.873354 0.109455
1.157966 -0.870009 0.144525
1.183948 -0.883092 0.300302
1.191905 -0.906617 0.581896
1.165971 -0.872721 0.129471
1.192918 -0.902968 0.548962
1.150975 -0.873030 0.146468
1.153967 -0.880299 0.262349
1.149011 -0.860422 -0.037319
1.140990 -0.870263 0.159526
1.133008 -0.863906 -0.011383
1.134006 -0.864885 0.038608
1.134001 -0.869076 0.099538
1.144978 -0.880724 0.336356
1.141020 -0.862284 0.007655
1.131038 -0.855019 -0.107225
1.147965 -0.896958 0.553083
1.136009 -0.873414 0.219479
1.144983 -0.891533 0.327146
1.123037 -0.860938 -0.008321
1.163971 -0.898310 0.519052
1.135986 -0.892131 0.512171
1.137985 -0.894332 0.471120
1.139001 -0.890526 0.430188
1.136011 -0.886176 0.310250
1.106050 -0.866683 0.031576
1.108062 -0.859986 -0.055309
1.114050 -0.867162 0.055572
1.102054 -0.866363 0.015580
1.122019 -0.885977 0.301252
1.107044 -0.871831 0.141498
1.122044 -0.874513 0.175453
1.132022 -0.886647 0.386257
1.119051 -0.872178 0.107486
1.129999 -0.901022 0.559009
1.135027 -0.890847 0.294159
1.110055 -0.873514 0.125464
1.134009 -0.900494 0.532016
1.098056 -0.874828 0.142441
1.101048 -0.881056 0.256342
1.094064 -0.874053 0.154459
1.096090 -0.863361 -0.034367
1.084083 -0.867731 0.036561
1.083085 -0.867811 -0.010449
1.103049 -0.888437 0.327213
1.087076 -0.873924 0.097452
1.078117 -0.857001 -0.102254
1.087103 -0.866179 0.008589
1.114032 -0.912691 0.544785
1.094064 -0.893234 0.318121
1.089086 -0.880217 0.215355
1.099054 -0.901888 0.504988
1.073115 -0.864842 -0.007387
1.124044 -0.910056 0.511831
1.092064 -0.900035 0.462017
1.056128 -0.867571 0.031569
1.081098 -0.885872 0.301264
1.088086 -0.894202 0.420125
1.069103 -0.883699 0.293305
1.060120 -0.874662 0.138451
1.050135 -0.866249 0.015592
1.053146 -0.859926 -0.052297
1.058136 -0.866020 0.054604
1.093069 -0.912716 0.548790
1.073127 -0.879046 0.106362
1.069129 -0.877310 0.171408
1.081107 -0.891343 0.377174
1.056139 -0.872336 0.122496
1.083111 -0.892587 0.287134
1.085092 -0.904094 0.517953
1.052133 -0.878640 0.138376
1.052130 -0.883841 0.251297
1.041149 -0.872817 0.148493
1.038159 -0.870587 0.034515
1.031167 -0.866718 -0.009418
1.097089 -0.919183 0.624682
1.053133 -0.890122 0.317189
1.038156 -0.875792 0.096426
1.044173 -0.866284 -0.032412
1.051132 -0.903142 0.523977
1.036185 -0.868085 0.009563
1.036157 -0.886874 0.306253
1.027199 -0.859967 -0.098300
1.047140 -0.899511 0.492042
1.038170 -0.880003 0.210369
1.062142 -0.902565 0.493985
1.024195 -0.866734 -0.007414
1.038153 -0.896656 0.449091
1.023182 -0.885473 0.287280
1.007208 -0.867445 0.030582
1.037176 -0.891624 0.294162
1.014198 -0.876498 0.135426
1.039170 -0.895907 0.411101
1.006211 -0.871127 0.014508
1.013212 -0.869916 0.054539
1.006224 -0.862861 -0.050343
1.033167 -0.904172 0.527963
1.020213 -0.880137 0.168364
1.020215 -0.878890 0.104377
1.032197 -0.893331 0.280129
1.003216 -0.879452 0.134371
1.039176 -0.908760 0.506872
1.029197 -0.893042 0.368152
1.010220 -0.877168 0.119413
1.005217 -0.881647 0.144331
1.009208 -0.888638 0.246214
0.992237 -0.871446 0.032509
1.010210 -0.893860 0.309126
0.988242 -0.870641 -0.008483
0.992236 -0.877649 0.094401
1.028200 -0.906545 0.599936
0.996253 -0.868238 -0.029438
1.026195 -0.911436 0.645849
1.010211 -0.908819 0.512877
1.007217 -0.905230 0.482941
0.997232 -0.894655 0.300112
0.991264 -0.873001 0.010479
0.982277 -0.863946 -0.094364
0.993252 -0.884836 0.207287
0.978274 -0.868652 -0.006439
0.996233 -0.901392 0.441009
1.024218 -0.913320 0.486786
0.967281 -0.871354 0.030517
0.980261 -0.888253 0.281236
0.973273 -0.880363 0.133362
0.986265 -0.889354 0.286217
0.991258 -0.897615 0.402079
0.966285 -0.877034 0.014405
0.990249 -0.906791 0.513921
0.965298 -0.867808 -0.048427
0.967294 -0.871814 0.054515
0.991263 -0.907374 0.492909
0.975295 -0.881768 0.103333
0.967298 -0.880031 0.117369
0.961294 -0.883276 0.130308
0.972298 -0.881969 0.165341
0.960298 -0.882448 0.139327
0.982286 -0.893081 0.273146
0.959296 -0.885412 0.240288
0.980286 -0.893770 0.360149
0.952312 -0.876316 0.030426
0.967290 -0.895583 0.300103
0.945322 -0.874564 -0.007546
0.951314 -0.882534 0.093319
0.982281 -0.915068 0.632790
0.987283 -0.914256 0.590798
0.956329 -0.875184 -0.027560
0.968287 -0.912789 0.670841
0.960304 -0.902887 0.470997
0.961301 -0.906412 0.497934
0.953314 -0.895397 0.292109
0.946346 -0.875922 0.011436
0.943340 -0.881631 0.202361
0.939356 -0.867912 -0.091428
0.957312 -0.907155 0.433909
0.977305 -0.912995 0.475804
0.939350 -0.875581 -0.005560
0.940339 -0.892059 0.276174
0.929356 -0.878245 0.029396
0.929355 -0.881207 0.130358
0.948341 -0.896161 0.281097
0.925362 -0.879924 0.013362
0.947343 -0.899354 0.394057
0.947333 -0.908432 0.500900
0.922378 -0.870754 -0.046470
0.926373 -0.876720 0.054433
0.921372 -0.886127 0.127266
0.920376 -0.885280 0.135284
0.930373 -0.887902 0.115230
0.943355 -0.907007 0.479927
0.936374 -0.889655 0.102194
0.924370 -0.894282 0.238129
0.941367 -0.897904 0.269065
0.932379 -0.888834 0.163222
0.933376 -0.894505 0.352147
0.928369 -0.900351 0.293023
0.915386 -0.883190 0.028306
0.905399 -0.877496 -0.006589
0.911392 -0.886424 0.092257
0.940367 -0.917726 0.620750
0.913392 -0.898548 0.459092
0.921383 -0.909098 0.486893
0.911413 -0.877128 -0.025583
0.938379 -0.913865 0.576818
0.918390 -0.904209 0.286951
0.897416 -0.891725 0.418220
0.908416 -0.890504 0.200203
0.904413 -0.895895 0.272112
0.929398 -0.911650 0.463842
0.903429 -0.878848 0.012394
0.901426 -0.881515 -0.004661
0.902432 -0.876885 -0.088587
0.889433 -0.879160 0.029392
0.891432 -0.885081 0.128296
0.908423 -0.899969 0.276036
0.886441 -0.883819 0.012300
0.902423 -0.907054 0.486939
0.898436 -0.895052 0.384153
0.890448 -0.883636 0.054313
0.886454 -0.878710 -0.044610
0.884449 -0.890983 0.124185
0.902438 -0.907714 0.469926
0.883453 -0.890116 0.131204
0.887447 -0.898117 0.234068
0.888457 -0.889771 0.113208
0.894456 -0.891544 0.101171
0.902448 -0.902713 0.263985
0.875465 -0.884067 0.026303
0.888451 -0.902104 0.285002
0.886469 -0.889675 0.160220
0.890465 -0.897286 0.346108
0.868475 -0.882434 -0.005670
0.871472 -0.887318 0.091253
0.866482 -0.891195 0.446246
0.892455 -0.921914 0.481658
0.875489 -0.884085 -0.023703
0.868483 -0.895913 0.277125
0.891480 -0.916418 0.456764
0.860508 -0.882430 -0.004664
0.855507 -0.886082 0.029272
0.861513 -0.878879 -0.084609
0.865509 -0.884782 0.013295
0.858505 -0.891983 0.127177
0.890476 -0.935025 0.488412
0.851516 -0.889741 0.012201
0.848534 -0.884548 0.054311
0.848533 -0.882668 -0.042671
0.837544 -0.885967 0.025281
0.833573 -0.896740 0.582181
0.839578 -0.904059 0.547035
0.817600 -0.901320 0.459076
0.820620 -0.912295 0.664906
0.807634 -0.914380 0.618861
0.792665 -0.894394 0.569240
0.807661 -0.912874 0.541880
