# .PCD v0.7 - Point Cloud Data file format
VERSION 0.7
FIELDS x y z
SIZE 4 4 4
TYPE F F F
COUNT 1 1 1
WIDTH 46
HEIGHT 1
VIEWPOINT 0 0 0 1
POINTS 46
DATA ascii
-0.206147 1.977165 1.961825
-0.234417 2.278398 2.103200
-0.239220 1.998211 2.026937
-0.172000 2.128377 1.966461
-0.163364 2.028900 2.013348
-0.228217 2.295499 2.100213
-0.265047 1.991515 2.073723
-0.185389 1.923461 1.950040
-0.161853 2.675736 2.123564
-0.129423 2.203918 2.035263
-0.116244 2.039097 2.026409
-0.164845 2.153427 1.968567
-0.205773 1.864470 1.937244
-0.198634 2.660076 2.160243
-0.145752 1.992006 2.016756
-0.096351 2.638493 2.098104
-0.080126 2.191390 2.025076
-0.221103 2.325471 2.109360
-0.065144 2.915935 2.081201
-0.120239 2.226063 2.030337
-0.170168 1.935974 2.004992
-0.223950 2.589917 2.159298
-0.128102 2.496044 2.029358
-0.099451 1.980479 2.004576
-0.033010 2.621043 2.089871
-0.156667 2.177485 1.970654
-0.197245 1.840532 1.938787
-0.002344 2.964005 2.115721
-0.069035 2.226459 2.028299
-0.127021 1.943267 2.007024
-0.155435 2.428915 2.024453
-0.072551 2.575724 2.094219
-0.213093 2.375531 2.111718
-0.047328 2.989006 2.088847
-0.109174 2.265042 2.041593
-0.162659 1.914053 2.004560
-0.207177 2.532178 2.148452
-0.103862 2.505635 2.083279
-0.014148 2.550364 2.074903
-0.096289 3.009900 2.068917
-0.146668 2.231535 1.975062
-0.141644 2.371220 2.007613
-0.047601 2.498135 2.075164
-0.096219 2.325103 2.047072
-0.093259 2.469728 2.083687
-0.039967 2.458285 2.068532
