# .PCD v0.7 - Point Cloud Data file format
VERSION 0.7
FIELDS x y z
SIZE 4 4 4
TYPE F F F
COUNT 1 1 1
WIDTH 37
HEIGHT 1
VIEWPOINT 0 0 0 1
POINTS 37
DATA ascii
1.209710 2.455906 1.646958
1.304140 2.492211 1.696100
1.202175 2.471523 1.643246
1.349605 2.436965 1.686210
1.712768 2.999580 2.569792
1.295553 2.507824 1.688409
1.790779 2.984718 2.590810
1.737993 3.156065 2.539676
1.201899 2.479250 1.638399
1.345871 2.461647 1.681527
1.178645 1.916169 1.695772
1.794466 3.092066 2.518620
1.308949 2.541699 1.697592
1.180035 1.833385 1.647216
1.220809 2.541233 1.648705
1.201082 2.011603 1.669231
1.354299 2.488471 1.683726
1.195955 2.197328 1.695607
1.225890 1.815040 1.654583
1.224347 1.950076 1.640568
1.320013 2.587605 1.694892
1.195786 2.082627 1.627851
1.290539 1.822867 1.686914
1.216027 2.323628 1.679320
1.307836 1.978138 1.687822
1.653953 2.710786 2.510889
1.357504 2.518312 1.668013
1.764603 2.594568 2.540769
1.295022 2.132903 1.686074
1.261251 2.274417 1.661489
1.521300 2.384003 2.242234
1.347827 2.291618 1.692644
1.793770 2.965033 2.650174
1.155322 1.859785 1.692964
1.154699 1.771026 1.634393
1.223339 1.780879 1.666713
1.273191 1.763539 1.676083
