# .PCD v0.7 - Point Cloud Data file format
VERSION 0.7
FIELDS x y z
SIZE 4 4 4
TYPE F F F
COUNT 1 1 1
WIDTH 451
HEIGHT 1
VIEWPOINT 0 0 0 1
POINTS 451
DATA ascii
1.164796 1.259541 1.162615
1.211123 1.286351 1.006689
1.254329 1.285975 0.849732
1.218773 1.259564 1.187992
1.270198 1.283461 1.033195
1.340511 1.315572 0.710802
1.159543 1.262842 1.091602
1.308641 1.280978 0.866112
1.274848 1.256605 1.213417
1.328422 1.276526 1.057675
1.404704 1.312779 0.731415
1.401397 1.306531 0.583297
1.217560 1.262925 1.117074
1.335748 1.256751 1.242949
1.364991 1.274006 0.883537
1.262748 1.289768 1.007126
1.422335 1.299427 1.108991
1.291005 1.285056 0.803778
1.464783 1.301706 0.596881
1.466094 1.303895 0.749957
1.439732 1.282459 0.911387
1.276629 1.261012 1.142566
1.320016 1.282800 1.029576
1.525653 1.322693 0.342274
1.500404 1.302149 0.371690
1.471953 1.280254 1.128251
1.204970 1.268148 1.049860
1.345481 1.276024 0.818154
1.536998 1.302068 0.612663
1.593357 1.337847 0.145856
1.585232 1.328664 0.160674
1.551823 1.312559 0.780063
1.409229 1.314285 0.716643
1.339628 1.260173 1.170143
1.254636 1.284053 0.979053
1.594198 1.315954 0.350967
1.429016 1.306436 0.532087
1.380271 1.274877 1.054090
1.583561 1.306744 0.386730
1.649635 1.345781 -0.027829
1.648594 1.344799 0.017160
1.649512 1.343817 0.022185
1.552584 1.283786 1.168236
1.262222 1.263172 1.071306
1.418501 1.279397 0.840962
1.474517 1.312134 0.350144
1.508905 1.210634 0.137957
1.516369 1.215817 0.156138
1.576021 1.275977 0.956756
1.628899 1.311000 0.804956
1.352516 1.315706 0.684344
1.464829 1.300249 0.731038
1.331275 1.291273 0.761879
1.319674 1.284249 1.004678
1.200353 1.277521 0.983849
1.676502 1.317512 0.361974
1.493508 1.299601 0.543686
1.460830 1.283415 1.092072
1.656965 1.301099 0.400530
1.562850 1.218538 -0.022784
1.556948 1.214445 0.019090
1.554888 1.211397 0.025046
1.544314 1.323421 0.282820
1.622634 1.276051 1.200962
1.324412 1.259286 1.094862
1.489607 1.278709 0.863715
1.575826 1.332916 0.131532
1.695339 1.303044 0.648532
1.544008 1.306403 0.360858
1.647147 1.271278 0.981498
1.736729 1.320467 0.154369
1.557477 1.187446 0.160179
1.714819 1.311615 0.835048
1.421730 1.314977 0.703058
1.256471 1.287537 0.947219
1.472583 1.255597 1.230440
1.557484 1.313035 0.761297
1.610077 1.340544 0.079341
1.395612 1.286429 0.779480
1.377984 1.276273 1.026136
1.769721 1.322286 0.374229
1.776511 1.325472 0.423403
1.259681 1.271564 1.004342
1.561978 1.292836 0.556371
1.537659 1.283835 1.126959
1.828692 1.349178 -0.025493
1.823522 1.344104 0.029403
1.455398 1.309371 0.481825
1.659622 1.347412 -0.022493
1.615915 1.316720 0.289574
1.674047 1.354659 -0.088171
1.672196 1.353651 -0.051204
1.687947 1.261179 1.229568
1.405947 1.269829 1.132864
1.570530 1.282221 0.890691
1.630756 1.312845 0.135893
1.775597 1.299525 0.666477
1.720324 1.264601 1.006280
1.617442 1.301745 0.372653
1.859689 1.342889 0.161312
1.864045 1.343999 0.188423
1.783235 1.297816 0.856718
1.537774 1.247745 1.257045
1.630701 1.308365 0.783087
1.476460 1.297893 0.715425
1.326455 1.290818 0.972953
1.523549 1.210307 0.076398
1.370144 1.319486 0.665893
1.465427 1.288937 1.066272
1.470718 1.287809 0.801324
1.509261 1.307225 0.339101
1.855134 1.318867 0.385288
1.835402 1.301448 0.433845
1.605829 1.275038 1.155632
1.320024 1.264613 1.024849
1.929060 1.353125 0.022925
1.941035 1.360346 -0.024808
1.928891 1.350115 0.033927
1.522954 1.301572 0.492487
1.566924 1.215057 -0.017584
1.560770 1.326164 0.224297
1.581248 1.222307 -0.079263
1.763919 1.252539 1.266415
1.698351 1.315242 0.298572
1.571610 1.215121 -0.045478
1.373941 1.291458 0.714041
1.476976 1.267102 1.162610
1.643751 1.276536 0.913476
1.798423 1.259018 1.033168
1.547144 1.188679 0.130012
1.856957 1.292000 0.684441
1.696883 1.297192 0.384581
1.959096 1.344762 0.167690
1.938834 1.327316 0.196228
1.869339 1.291385 0.885794
1.607766 1.241991 1.289755
1.718683 1.308991 0.811217
1.569139 1.310654 0.744671
1.382915 1.279776 0.991360
1.778230 1.337658 0.084410
1.435575 1.313642 0.680508
1.523903 1.274920 1.086718
1.588646 1.306679 0.350032
1.950480 1.317641 0.397570
1.936496 1.304354 0.453263
1.738190 1.300129 0.593631
1.686651 1.272506 1.193594
1.670535 1.353079 -0.065162
1.636999 1.327477 0.109107
2.025753 1.347910 0.024234
2.026481 1.346929 0.037256
1.397894 1.269034 1.055760
1.597356 1.297913 0.505298
1.832911 1.342613 -0.021315
1.491192 1.208309 0.211749
1.843902 1.241957 1.305346
1.801515 1.324196 0.310045
1.485564 1.315265 0.311614
1.702398 1.258508 0.928909
1.537409 1.254119 1.184098
1.443353 1.285680 0.730749
1.885417 1.254604 1.064257
1.934446 1.279369 0.701302
1.488916 1.313405 0.428732
1.849029 1.341036 0.151121
2.051763 1.336451 0.172901
1.807749 1.311315 0.404232
2.042195 1.327249 0.206689
1.675974 1.231167 1.318414
1.962345 1.286084 0.918021
1.547748 1.223266 0.015042
1.794042 1.298317 0.833038
1.655168 1.313234 0.768751
1.474321 1.295501 1.030578
1.892479 1.350840 0.088132
1.597966 1.270234 1.116520
1.500099 1.303755 0.695094
1.638696 1.293897 0.852399
2.046889 1.313415 0.409865
1.659270 1.296921 0.358748
2.026917 1.294989 0.470420
1.827419 1.298762 0.611771
1.752051 1.255601 1.220183
1.583727 1.222868 -0.058112
2.125137 1.339737 0.041598
1.554394 1.201345 0.104253
1.593979 1.223020 -0.108880
1.938481 1.238692 1.354618
1.948242 1.354815 -0.020566
1.709044 1.317054 0.528980
1.895951 1.322935 0.319310
1.547082 1.190242 0.216131
1.587320 1.335091 0.159019
1.796228 1.261245 0.961167
1.962733 1.240955 1.090117
2.023767 1.271988 0.720438
1.612464 1.248442 1.215929
1.562055 1.312643 0.320481
1.512748 1.278895 0.748454
1.935715 1.331593 0.157202
2.152352 1.330299 0.179291
1.562462 1.307709 0.438531
1.895185 1.304896 0.418332
2.145675 1.322158 0.217148
1.756846 1.225608 1.357370
2.049526 1.274638 0.948108
1.811631 1.352733 0.015252
1.876322 1.287769 0.859021
1.732474 1.305600 0.790625
1.547446 1.291791 1.057366
1.986162 1.344542 0.091370
1.684742 1.270806 1.154619
2.135530 1.299992 0.420975
1.599758 1.319633 0.723497
1.702379 1.275952 0.867954
1.637697 1.334941 0.073205
1.790822 1.326476 0.378881
2.114442 1.281545 0.486505
1.916805 1.291364 0.629912
1.836948 1.249112 1.259226
1.860812 1.355589 -0.068604
1.997305 1.322798 0.330712
1.545162 1.260615 1.111359
1.783715 1.303336 0.540776
2.051834 1.231539 1.121229
1.837966 1.334280 0.246958
2.128860 1.268916 0.745920
1.867749 1.244448 0.981880
1.496082 1.197772 0.148969
1.693400 1.243867 1.251876
1.635755 1.302922 0.327263
1.615375 1.293812 0.779913
2.034277 1.326382 0.164535
2.248143 1.316002 0.184546
1.992549 1.300660 0.433640
1.834864 1.215961 1.393236
2.243323 1.309908 0.226446
2.146618 1.264372 0.981402
1.644931 1.303169 0.451517
1.563455 1.226992 -0.056504
1.979201 1.287649 0.892460
1.922125 1.359787 0.014869
1.812827 1.295998 0.812548
2.088786 1.340411 0.094792
1.600247 1.269603 1.071658
2.234092 1.288756 0.433292
1.749238 1.252858 1.178175
1.795341 1.276632 0.897171
1.684947 1.318150 0.745542
2.217783 1.272410 0.506935
1.863613 1.308705 0.388623
1.555123 1.205820 0.069354
2.007188 1.282969 0.648053
1.931683 1.244806 1.303477
1.596980 1.224552 -0.108715
2.126035 1.218015 1.450063
1.934363 1.336964 0.123202
2.089959 1.311436 0.339899
1.875078 1.298966 0.556947
1.623280 1.254966 1.141241
1.969552 1.244300 1.018289
1.928593 1.326890 0.254108
1.770508 1.234188 1.284722
1.701503 1.286915 0.163798
2.360791 1.307045 0.191178
2.133896 1.318169 0.171879
1.723192 1.301485 0.337350
1.924604 1.210550 1.437365
2.348950 1.296797 0.237916
2.086047 1.289311 0.449846
1.690897 1.282093 0.797729
1.756841 1.318254 0.470173
2.063577 1.272095 0.918454
2.024784 1.357647 0.015289
1.900085 1.287523 0.837621
2.191545 1.331250 0.097202
1.691983 1.273250 1.108849
1.847814 1.255642 1.222515
1.872808 1.261940 0.919016
1.762403 1.307473 0.764395
2.099615 1.271590 0.667229
2.012820 1.229179 1.340398
1.954146 1.300299 0.400764
1.809134 1.323981 0.076296
2.229677 1.207853 1.503495
2.244879 1.210962 1.191764
2.027116 1.326596 0.127389
2.187607 1.299155 0.350188
2.063673 1.234951 1.049505
1.971413 1.293677 0.575221
2.037036 1.326856 0.262658
1.713128 1.253546 1.179385
1.854611 1.223624 1.319720
2.250376 1.315290 0.180600
1.872838 1.338254 0.174817
2.376313 1.249521 1.064777
1.836271 1.313574 0.351020
2.185535 1.278066 0.466176
1.785004 1.280758 0.823964
1.844362 1.309774 0.484250
2.299291 1.321171 0.100714
1.994297 1.279169 0.864842
1.771120 1.264599 1.139735
1.928988 1.242010 1.256437
1.965971 1.254567 0.947212
2.203922 1.263441 0.688666
1.849667 1.300989 0.787464
2.064404 1.300293 0.417350
2.359646 1.204027 1.235436
1.931460 1.337245 0.078169
2.339282 1.194779 1.562052
2.454564 1.239751 0.822521
2.296148 1.290087 0.361714
2.141633 1.326672 0.132064
2.065930 1.282315 0.591438
2.140624 1.319692 0.271080
1.790447 1.239826 1.208224
1.949426 1.217274 1.362954
2.515792 1.248083 1.117012
2.366960 1.307381 0.189306
1.971473 1.332995 0.180136
1.925885 1.304125 0.361132
1.869394 1.269187 0.846960
2.610175 1.269601 0.484022
1.943764 1.305522 0.499587
2.089516 1.268817 0.893072
1.862138 1.258165 1.174885
2.027803 1.234728 1.300757
2.575629 1.242856 0.578246
2.062211 1.243222 0.976467
2.226125 1.212933 1.444389
1.945868 1.295665 0.812726
2.157082 1.284878 0.429513
2.479293 1.191325 1.638300
2.599409 1.238411 0.857865
2.039083 1.336168 0.079685
2.266879 1.212492 1.117243
2.249349 1.316567 0.137567
2.168346 1.272098 0.610824
2.243346 1.306474 0.279467
1.875623 1.228251 1.241232
2.634842 1.230159 1.159755
2.757277 1.275239 0.280345
2.043115 1.308237 0.375868
2.083047 1.329974 0.186738
2.401507 1.247082 1.030324
1.964675 1.259817 0.873194
2.725718 1.236588 0.607694
2.036386 1.292094 0.513753
1.952183 1.248691 1.210999
2.430549 1.241429 0.736913
2.334846 1.199809 1.497909
2.036290 1.282187 0.835841
2.679423 1.201651 0.873690
2.259689 1.270644 0.443890
2.149794 1.331121 0.081257
2.390619 1.206694 1.162103
2.373971 1.310786 0.143442
2.152000 1.199762 1.456680
2.360975 1.296538 0.289181
2.775591 1.216660 1.211982
1.975511 1.220958 1.283568
2.543668 1.248419 0.526453
2.138857 1.292854 0.386091
2.189783 1.319823 0.192212
2.539209 1.241542 1.077493
2.064925 1.249525 0.901528
2.850271 1.212738 0.632532
2.233531 1.212247 1.392540
2.043291 1.236213 1.247123
2.747893 1.170932 1.382372
2.141870 1.281908 0.531201
2.576533 1.238058 0.769265
2.445656 1.182693 1.551461
2.277406 1.222941 1.044456
2.869806 1.208196 0.923049
2.142484 1.274013 0.864305
2.259609 1.320021 0.083791
2.703469 1.269389 0.406078
2.927266 1.201348 1.269441
2.253972 1.183464 1.503036
2.684978 1.236919 0.551681
3.060463 1.231678 0.544297
2.685888 1.233145 1.128849
2.240563 1.277573 0.397436
2.308444 1.311891 0.198942
3.033163 1.207075 0.670693
2.886665 1.153358 1.436530
2.452393 1.248183 1.005455
2.344326 1.199130 1.443090
2.595651 1.178367 1.629901
3.026880 1.192986 0.961615
2.257301 1.272900 0.549860
2.404285 1.215155 1.086370
2.660169 1.186432 1.258276
2.540255 1.244602 0.682372
2.373595 1.172511 1.559782
2.825404 1.220369 0.575867
2.179496 1.195363 1.369289
2.820917 1.213461 1.174915
2.462098 1.184121 1.496784
2.558820 1.223929 1.037878
2.864913 1.212124 0.832823
2.268867 1.220061 1.341326
2.746851 1.167012 1.706346
2.661776 1.245715 0.504086
2.802011 1.170889 1.308494
3.011562 1.240819 0.440056
2.795537 1.274222 0.326083
2.998556 1.210452 0.606782
2.309966 1.190610 1.428279
2.978668 1.197207 1.230482
2.734173 1.226070 1.094865
2.618182 1.179861 1.572340
3.031029 1.197037 0.870570
2.384695 1.207001 1.390972
2.408462 1.213342 1.001413
2.684961 1.194017 1.179756
2.514097 1.251309 0.593716
2.958712 1.154608 1.366032
2.816184 1.232401 0.527575
2.510767 1.245321 0.967734
3.213790 1.235461 0.463611
2.646446 1.149184 1.692991
2.854520 1.227114 0.745490
2.767522 1.166417 1.644717
2.892964 1.212814 1.146446
2.649920 1.252670 0.447748
2.531094 1.200515 1.455298
2.544489 1.200648 1.042495
2.838804 1.178653 1.231224
2.681157 1.249243 0.623495
2.985529 1.219353 0.553380
2.647902 1.229630 1.006832
3.013844 1.208846 0.777062
2.572289 1.164007 1.545228
2.785660 1.230935 0.463791
2.666833 1.183772 1.513357
2.816574 1.223551 1.057627
2.715928 1.145382 1.610454
2.990743 1.230551 0.491384
2.826212 1.170462 1.584932
2.871059 1.178226 1.144830
3.011816 1.218880 0.682891
2.990404 1.209509 1.109511
3.168302 1.211565 0.513322
3.954557 -1.143229 2.985571
3.918565 -1.235526 2.981457
4.151477 -1.354204 3.092964
4.042197 -1.431615 3.041325
3.919913 -1.500190 2.981445
