# .PCD v0.7 - Point Cloud Data file format
VERSION 0.7
FIELDS x y z
SIZE 4 4 4
TYPE F F F
COUNT 1 1 1
WIDTH 75
HEIGHT 1
VIEWPOINT 0 0 0 1
POINTS 75
DATA ascii
4.221913 2.255156 0.871549
4.103457 2.183496 0.834137
4.145839 2.285014 0.925065
4.155482 2.117733 0.235825
3.183193 1.597416 0.644806
3.153407 1.579982 -0.174297
3.303345 1.645057 0.200097
3.193831 1.662875 0.712447
3.427463 1.744061 -0.056023
4.214619 2.017971 0.235361
3.243997 1.533571 0.659537
3.187225 1.503289 0.637363
3.168675 1.588827 -0.165928
3.176466 1.493932 -0.174689
3.288831 1.633138 0.270360
3.311442 1.548919 0.196646
3.178901 1.561631 0.701953
3.764212 1.940614 0.069430
3.185567 1.617222 0.752484
3.372014 1.707702 -0.089959
3.233654 1.626010 -0.144445
3.454523 1.655051 -0.056433
3.120144 1.562447 -0.188826
3.428723 1.539743 0.193670
3.248039 1.438442 0.652099
3.253036 1.438551 0.643102
3.200663 1.509856 -0.166279
3.259378 1.606264 0.323481
3.276961 1.530848 0.266871
3.246665 1.505488 0.760734
3.596258 1.841609 0.001152
3.783340 1.840546 0.068956
3.182910 1.469492 0.696525
3.372817 1.560236 0.309071
3.515605 1.796201 -0.029127
3.240362 1.560558 0.863254
3.344342 1.700311 -0.090716
3.175591 1.520997 0.745022
3.404011 1.625722 -0.088326
3.259661 1.543979 -0.142813
3.477578 1.566010 -0.056835
4.171840 2.068277 0.223668
3.143138 1.482383 -0.186184
3.420877 1.436468 0.191193
3.231694 1.408254 0.749279
3.621297 1.752554 0.005743
3.788496 1.736375 0.067464
3.536657 1.706135 -0.027542
3.374882 1.465067 0.304634
3.229360 1.465369 0.850805
3.381292 1.623367 -0.088053
3.195503 1.439951 0.744663
3.423059 1.537627 -0.085722
3.432793 1.606416 0.186909
3.175310 1.479326 0.793115
3.501647 1.475973 -0.057230
3.652334 1.664541 0.010353
3.561681 1.619102 -0.025930
3.649149 1.570042 0.065593
3.536777 1.435415 0.756613
3.241268 1.382314 0.844438
3.437754 1.395333 0.306365
3.405291 1.540309 -0.084420
3.349872 1.401733 0.406608
3.436833 1.514253 0.184488
3.281895 1.439791 0.816023
3.278886 1.420279 0.505932
3.610587 1.547958 0.013783
3.574747 1.526971 -0.024341
3.407703 1.362182 0.876478
4.106189 1.553851 0.867534
3.432270 1.459284 -0.081765
4.061820 1.608982 0.927077
3.621637 1.456790 0.018383
3.578814 1.433779 -0.023755
