# .PCD v0.7 - Point Cloud Data file format
VERSION 0.7
FIELDS x y z
SIZE 4 4 4
TYPE F F F
COUNT 1 1 1
WIDTH 14
HEIGHT 1
VIEWPOINT 0 0 0 1
POINTS 14
DATA ascii
2.773559 -0.927603 3.425708
2.675518 -0.959815 3.328820
2.623000 -1.003913 3.288179
2.583354 -1.053250 3.265613
2.546697 -1.101687 3.247097
2.518961 -1.153297 3.240641
2.489259 -1.204889 3.234198
2.466505 -1.259605 3.236802
2.481574 -1.279407 3.222785
2.439810 -1.311298 3.235424
2.445966 -1.326984 3.212383
2.409175 -1.361942 3.231054
2.419271 -1.379712 3.216028
2.387650 -1.430380 3.214682
