# .PCD v0.7 - Point Cloud Data file format
VERSION 0.7
FIELDS x y z
SIZE 4 4 4
TYPE F F F
COUNT 1 1 1
WIDTH 103
HEIGHT 1
VIEWPOINT 0 0 0 1
POINTS 103
DATA ascii
3.669113 -2.435541 1.190457
3.667694 -2.439462 1.222436
3.695154 -2.436413 1.289611
3.655892 -2.435113 1.319028
3.730509 -2.445416 1.357930
3.442132 -2.413192 1.170067
3.635741 -2.444685 1.439525
3.460735 -2.405123 1.228125
3.386760 -2.378663 1.246044
3.462442 -2.389991 1.277972
3.228548 -2.386003 1.119880
3.222949 -2.384024 1.090795
3.622602 -2.443303 1.566082
3.582511 -2.426464 1.353480
3.407362 -2.409467 1.375142
3.048761 -2.370003 1.079192
3.034198 -2.365969 1.049974
3.418126 -2.420236 1.503055
3.075411 -2.364013 1.130388
3.033144 -2.359711 1.163764
3.114898 -2.372095 1.185793
3.165522 -2.361871 0.848290
3.181495 -2.376339 1.232552
3.041000 -2.375514 1.277696
2.919518 -2.356161 1.093059
2.941213 -2.352172 1.137217
3.046953 -2.372321 1.392570
2.989579 -2.339876 0.817694
3.010808 -2.360439 1.182024
2.875254 -2.356647 1.233237
2.895125 -2.362540 1.350317
2.564230 -2.314368 0.970968
2.540642 -2.314265 0.947612
2.592989 -2.308431 1.011219
2.632690 -2.304086 0.656618
2.560613 -2.312191 1.052735
2.630628 -2.317540 1.053613
2.429251 -2.301648 0.941956
2.689445 -2.313187 0.768256
2.401676 -2.301521 0.919540
2.573594 -2.321090 1.155768
2.466962 -2.304761 0.982337
2.501514 -2.296338 0.638669
2.427629 -2.303493 1.023755
2.500661 -2.309861 1.020680
2.552350 -2.298431 0.745234
2.545559 -2.303036 1.046159
2.439676 -2.306411 1.121786
2.337987 -2.292090 0.952422
2.373707 -2.298208 0.987799
2.470615 -2.313420 1.229050
2.428188 -2.289748 0.725399
2.436449 -2.307468 1.018528
2.319658 -2.298805 1.093004
2.153421 -2.265706 0.409813
2.139708 -2.269152 0.867653
2.200311 -2.258816 0.508363
2.254138 -2.273959 0.606010
2.351625 -2.304837 1.197290
2.077034 -2.278809 0.871716
2.028241 -2.243007 0.398991
2.101951 -2.267888 0.897952
2.088066 -2.250191 0.496727
2.031557 -2.267592 0.850063
2.143898 -2.267356 0.592411
2.138706 -2.275024 0.928362
2.069515 -2.273671 0.947480
2.192850 -2.265487 0.687980
2.073970 -2.238172 0.376406
1.963971 -2.261242 0.848086
2.094545 -2.280697 1.040728
1.920938 -2.235404 0.391439
1.973615 -2.225690 0.343076
1.990896 -2.253335 0.872352
1.978812 -2.238593 0.485153
1.917488 -2.252020 0.828417
2.028713 -2.249743 0.576760
2.027668 -2.262475 0.900764
2.090104 -2.247170 0.391485
1.958446 -2.259126 0.923881
2.086623 -2.256927 0.671452
2.080551 -2.269698 0.920375
1.868748 -2.257765 0.831704
1.980549 -2.262152 1.012093
1.896686 -2.251867 0.853986
1.817317 -2.245522 0.810968
2.023503 -2.272273 1.110567
1.930416 -2.245218 0.565341
1.928541 -2.257988 0.877331
1.984386 -2.248394 0.655984
1.851379 -2.243610 0.900343
1.978476 -2.262201 0.892906
1.884394 -2.256695 0.990705
1.798555 -2.241391 0.832574
1.923422 -2.260811 1.084132
1.834379 -2.251533 0.855974
1.890103 -2.243909 0.642627
1.757190 -2.238159 0.882984
1.880375 -2.253729 0.867497
1.787276 -2.245244 0.968312
1.834241 -2.257404 1.062847
1.773390 -2.230227 0.837981
1.743099 -2.247996 1.040542
