# .PCD v0.7 - Point Cloud Data file format
VERSION 0.7
FIELDS x y z
SIZE 4 4 4
TYPE F F F
COUNT 1 1 1
WIDTH 17
HEIGHT 1
VIEWPOINT 0 0 0 1
POINTS 17
DATA ascii
-18.892479 32.444035 -5.740831
-18.888311 32.444363 -5.744234
-18.890543 32.450191 -5.733852
-18.892250 32.464001 -5.740260
-18.902538 32.537750 -5.703547
-18.899508 32.536781 -5.705519
-18.771709 32.416264 -5.696471
-18.904270 32.549042 -5.697636
-18.908295 32.567894 -5.705530
-18.764618 32.533829 -5.728748
-18.975634 32.694218 -5.661648
-19.000273 32.717934 -5.660444
-18.786112 32.513622 -5.662110
-18.995140 32.724072 -5.655156
-19.086416 32.829235 -5.660515
-18.789106 32.649345 -5.693032
-18.936682 32.969921 -5.726332
