# .PCD v0.7 - Point Cloud Data file format
VERSION 0.7
FIELDS x y z
SIZE 4 4 4
TYPE F F F
COUNT 1 1 1
WIDTH 27
HEIGHT 1
VIEWPOINT 0 0 0 1
POINTS 27
DATA ascii
-14.510762 34.548561 -3.332839
-14.415531 34.691265 -3.217245
-14.460978 34.931866 -3.221439
-14.417455 34.743382 -3.310001
-14.484962 34.031830 -3.320115
-14.483355 34.321323 -3.310270
-14.429835 34.014214 -3.310307
-14.456538 33.924187 -3.304425
-14.339105 34.401890 -3.201838
-14.446082 34.010529 -3.296566
-14.464604 33.818855 -3.299741
-14.418624 33.791668 -3.297228
-14.349011 33.948383 -3.291579
-14.248524 34.265007 -2.857873
-14.455336 34.836449 -3.338792
-14.484333 34.691292 -3.340231
-14.487706 34.577480 -3.336210
-14.411589 34.712322 -3.298687
-14.418568 34.600315 -3.289391
-14.450158 34.106728 -3.337944
-14.471931 33.897591 -3.327074
-14.396103 34.104843 -3.313317
-14.458832 33.898277 -3.326039
-14.423797 33.884182 -3.310839
-14.414095 33.886951 -3.308644
-14.375727 33.870331 -3.291469
-14.368937 33.872940 -3.293834
