# .PCD v0.7 - Point Cloud Data file format
VERSION 0.7
FIELDS x y z
SIZE 4 4 4
TYPE F F F
COUNT 1 1 1
WIDTH 50
HEIGHT 1
VIEWPOINT 0 0 0 1
POINTS 50
DATA ascii
-12.883281 31.457333 -3.422572
-12.768287 31.428263 -3.350271
-12.931967 31.378658 -3.402044
-12.714669 31.387949 -3.258867
-12.877711 31.427818 -3.398228
-12.953369 31.357878 -3.416276
-12.778364 31.440901 -3.379465
-12.694371 31.351101 -3.210992
-12.837089 31.391535 -3.323431
-13.002184 31.344812 -3.473046
-12.713523 31.399441 -3.275263
-12.659225 31.309454 -3.137968
-12.819522 31.357264 -3.279408
-13.023057 31.325459 -3.486437
-12.672440 31.358339 -3.198558
-12.735404 31.294731 -3.221290
-12.871736 31.338717 -3.336635
-12.831553 31.451279 -3.395040
-12.742460 31.419409 -3.312137
-12.713091 31.320007 -3.338837
-12.652590 31.319477 -3.149371
-12.736559 31.260473 -3.198979
-12.954423 31.331404 -3.440451
-12.702712 31.379097 -3.234722
-12.740879 31.305998 -3.248677
-12.725817 31.288408 -3.331695
-12.784202 31.241293 -3.241222
-12.991544 31.314529 -3.477724
-12.736992 31.371912 -3.217128
-12.678054 31.326483 -3.295025
-12.707871 31.344917 -3.215982
-12.731708 31.269699 -3.211463
-12.750607 31.261156 -3.341099
-12.912683 31.252441 -3.404986
-12.765555 31.344389 -3.232050
-12.634679 31.280787 -3.213162
-12.710072 31.310516 -3.192755
-12.770148 31.246220 -3.242616
-12.778704 31.234653 -3.352055
-12.795737 31.319000 -3.249588
-12.690862 31.259771 -3.261210
-12.756490 31.286619 -3.228882
-12.906898 31.258307 -3.414668
-12.815963 31.212864 -3.377223
-12.882289 31.310043 -3.350467
-12.729299 31.235310 -3.287069
-12.756666 31.251682 -3.201224
-12.972320 31.306705 -3.459908
-12.810048 31.227810 -3.370118
-12.938810 31.275730 -3.439119
