# .PCD v0.7 - Point Cloud Data file format
VERSION 0.7
FIELDS x y z
SIZE 4 4 4
TYPE F F F
COUNT 1 1 1
WIDTH 20
HEIGHT 1
VIEWPOINT 0 0 0 1
POINTS 20
DATA ascii
-13.071849 36.012589 -4.675382
-12.256050 34.088978 -4.443931
-12.974773 36.038372 -4.664522
-12.874476 36.048790 -4.650369
-12.775960 36.065765 -4.638247
-12.921180 36.011410 -4.582699
-12.682144 36.091843 -4.626775
-12.831660 36.046047 -4.575802
-12.737544 36.071751 -4.567297
-12.717696 36.048027 -4.506464
-12.853061 36.000534 -4.558159
-12.256028 34.084579 -4.447607
-13.015800 35.986408 -4.628994
-12.776196 36.028862 -4.502127
-12.776537 36.074917 -4.562773
-12.926702 36.027939 -4.631142
-12.688420 36.066689 -4.498887
-12.674005 36.079514 -4.556800
-12.829529 36.052128 -4.631265
-12.735301 36.082840 -4.631525
