# .PCD v0.7 - Point Cloud Data file format
VERSION 0.7
FIELDS x y z
SIZE 4 4 4
TYPE F F F
COUNT 1 1 1
WIDTH 46
HEIGHT 1
VIEWPOINT 0 0 0 1
POINTS 46
DATA ascii
-8.434495 36.156380 -0.973153
-8.412737 36.184322 -0.945522
-8.431154 36.264053 -0.953377
-8.407985 36.182762 -0.945337
-8.447289 36.342979 -0.961618
-8.360426 36.200378 -0.938744
-8.424326 36.259735 -0.956044
-8.464781 36.426254 -0.968731
-8.364865 36.273663 -0.949157
-8.446833 36.344337 -0.964567
-8.478076 36.510044 -0.975399
-8.383139 36.356636 -0.955143
-8.430373 36.262844 -0.954221
-8.471868 36.431416 -0.972422
-8.495384 36.597420 -0.982146
-8.426201 36.179798 -0.948560
-8.401880 36.442989 -0.960528
-8.451777 36.346943 -0.965662
-8.290649 36.312695 -0.917006
-8.454022 36.265049 -0.961558
-8.413843 36.528244 -0.967644
-8.473506 36.434010 -0.977403
-8.310221 36.394211 -0.922559
-8.426189 36.615593 -0.973569
-8.313168 36.466366 -0.932262
-8.439747 36.706875 -0.979257
-8.327894 36.549107 -0.937588
-8.441780 36.792896 -0.986244
-8.337988 36.631119 -0.945179
-8.461237 36.894615 -0.988791
-8.352533 36.717957 -0.950151
-8.620477 37.209282 -1.002838
-8.463317 36.986431 -0.995116
-8.370068 36.810661 -0.953845
-8.472456 37.086834 -0.998742
-8.378532 36.901470 -0.959650
-8.769316 37.607857 -0.989154
-8.603791 37.298847 -0.970906
-8.380562 36.987473 -0.966683
-8.808703 37.587162 -0.924274
-8.389219 37.084488 -0.970929
-8.700549 37.601143 -0.955026
-8.330266 36.983994 -0.939380
-8.454593 37.233433 -0.959191
-8.740241 37.593750 -0.888478
-8.700995 37.591286 -0.858970
