# .PCD v0.7 - Point Cloud Data file format
VERSION 0.7
FIELDS x y z
SIZE 4 4 4
TYPE F F F
COUNT 1 1 1
WIDTH 17
HEIGHT 1
VIEWPOINT 0 0 0 1
POINTS 17
DATA ascii
-8.502879 43.163898 -1.162639
-8.539916 43.241974 -1.189710
-8.434399 43.157932 -1.125356
-8.503132 43.250259 -1.165188
-8.526458 43.326008 -1.191627
-8.441445 43.243595 -1.125393
-8.509661 43.340004 -1.166265
-8.433245 43.325397 -1.124253
-8.515658 43.413460 -1.193014
-8.500668 43.423893 -1.165185
-8.433031 43.410748 -1.121845
-8.514583 43.505619 -1.192331
-8.496043 43.511368 -1.163779
-8.427887 43.495228 -1.117477
-8.512469 43.598869 -1.189729
-8.499433 43.603382 -1.160100
-8.405763 43.574696 -1.112734
