# .PCD v0.7 - Point Cloud Data file format
VERSION 0.7
FIELDS x y z
SIZE 4 4 4
TYPE F F F
COUNT 1 1 1
WIDTH 28
HEIGHT 1
VIEWPOINT 0 0 0 1
POINTS 28
DATA ascii
-4.127976 44.453094 0.533091
-4.123272 44.547119 0.624172
-4.104225 44.324501 0.496267
-4.093418 44.483459 0.638848
-4.195176 43.748753 0.561804
-4.169314 43.708035 0.577696
-4.197608 43.626400 0.564314
-4.147631 43.638767 0.562552
-4.175655 43.586121 0.577878
-4.129805 43.548515 0.522000
-4.189889 43.505955 0.549652
-4.155713 43.537273 0.580328
-4.195489 43.473900 0.537346
-4.192931 43.473774 0.541123
-4.109853 43.494320 0.518679
-4.190000 43.450909 0.549986
-4.181053 43.464329 0.567897
-4.177736 43.446373 0.542988
-4.140207 43.467937 0.556731
-4.178749 43.428196 0.538942
-4.178701 43.424812 0.542451
-4.086677 43.464127 0.543693
-4.174401 43.409859 0.557832
-4.165349 43.418270 0.568606
-4.163755 43.404579 0.556386
-4.161213 43.399910 0.559715
-4.125445 43.397606 0.529901
-4.110564 43.344845 0.522975
