# .PCD v0.7 - Point Cloud Data file format
VERSION 0.7
FIELDS x y z
SIZE 4 4 4
TYPE F F F
COUNT 1 1 1
WIDTH 27
HEIGHT 1
VIEWPOINT 0 0 0 1
POINTS 27
DATA ascii
-8.581368 41.129299 -1.062907
-8.594499 41.093185 -1.079796
-8.644376 41.181110 -1.086475
-8.738067 41.091969 -1.125368
-8.475477 41.243763 -1.089337
-8.312462 41.455494 -1.079657
-8.348207 41.505039 -1.104311
-8.647800 41.487339 -1.106621
-8.340931 41.704334 -1.066628
-8.348329 41.757381 -1.085773
-8.369469 41.808178 -1.104488
-8.338326 41.738438 -1.077346
-8.510160 41.839123 -1.111790
-8.344687 41.757248 -1.091856
-8.373318 41.791420 -1.103290
-8.634304 41.759541 -1.093151
-8.544410 41.821320 -1.116999
-8.357024 41.961609 -1.069617
-8.362231 42.002888 -1.053645
-8.371218 42.016933 -1.088412
-8.374672 42.058800 -1.073691
-8.369072 42.021645 -1.071203
-8.460555 42.063038 -1.100374
-8.379615 42.115528 -1.094006
-8.376738 42.078106 -1.093868
-8.400916 42.170555 -1.110915
-8.394484 42.134651 -1.114659
