# .PCD v0.7 - Point Cloud Data file format
VERSION 0.7
FIELDS x y z
SIZE 4 4 4
TYPE F F F
COUNT 1 1 1
WIDTH 22
HEIGHT 1
VIEWPOINT 0 0 0 1
POINTS 22
DATA ascii
-10.698495 43.137516 -2.007091
-10.668571 43.057228 -1.995447
-10.663481 42.941952 -1.962519
-10.664905 43.545231 -1.975162
-10.917061 42.928539 -1.993088
-10.651994 42.810818 -1.937178
-10.700077 42.662678 -1.983550
-10.702620 43.583691 -2.027406
-10.657858 43.601421 -1.977989
-10.882892 42.563053 -1.931715
-10.889873 43.448067 -2.020587
-10.696053 43.633698 -2.028638
-10.655310 43.656704 -1.983831
-10.842704 43.540573 -2.034986
-10.697944 43.677208 -2.030612
-10.650627 43.678104 -1.981154
-10.808605 43.621319 -2.049976
-10.694599 43.691639 -2.027136
-10.720559 43.726582 -1.997083
-10.729399 43.874649 -2.057086
-10.810363 43.624168 -2.043338
-10.742404 43.768906 -2.057835
