# .PCD v0.7 - Point Cloud Data file format
VERSION 0.7
FIELDS x y z
SIZE 4 4 4
TYPE F F F
COUNT 1 1 1
WIDTH 16
HEIGHT 1
VIEWPOINT 0 0 0 1
POINTS 16
DATA ascii
-10.639093 43.082691 -1.972234
-10.597792 43.544773 -2.005878
-10.781547 42.953560 -1.941520
-10.776214 43.318336 -1.970935
-10.753555 43.234039 -1.962712
-10.879759 42.887440 -1.976519
-10.863902 43.274006 -2.007032
-10.849621 43.181824 -1.998077
-10.602012 42.911564 -1.938510
-10.638536 43.044594 -1.996985
-10.809980 42.585056 -1.902511
-10.613131 43.646679 -2.025043
-10.627507 43.701618 -2.023952
-10.891496 42.561428 -1.970900
-10.800336 43.403538 -1.980523
-10.801322 43.480247 -1.986179
