# .PCD v0.7 - Point Cloud Data file format
VERSION 0.7
FIELDS x y z
SIZE 4 4 4
TYPE F F F
COUNT 1 1 1
WIDTH 169
HEIGHT 1
VIEWPOINT 0 0 0 1
POINTS 169
DATA ascii
-13.118499 48.667759 -4.726916
-13.103986 48.688274 -4.678038
-12.658162 48.707188 -5.246805
-12.520385 48.687885 -5.214164
-12.935511 48.682041 -4.642305
-12.710155 48.702309 -5.192308
-12.646019 48.670235 -5.156399
-12.936321 48.709335 -4.606588
-12.478806 48.717136 -5.142768
-13.068211 48.696712 -4.569769
-12.999949 48.668076 -4.534199
-12.348752 48.694530 -5.104888
-12.553569 48.721584 -5.104878
-12.771411 48.698990 -4.564200
-12.493230 48.688393 -5.061331
-12.753080 48.716187 -4.529752
-12.326264 48.733715 -5.052123
-12.903709 48.715805 -4.504238
-12.841612 48.684616 -4.463326
-12.206697 48.712753 -5.013582
-12.379224 48.726978 -5.008447
-12.350718 48.704861 -4.973709
-12.599186 48.704285 -4.484161
-12.600047 48.730896 -4.462706
-12.713836 48.714863 -4.431527
-12.185236 48.749817 -4.968836
-12.682467 48.692898 -4.392473
-12.066071 48.722145 -4.923097
-12.233058 48.739357 -4.926814
-12.211085 48.716835 -4.887262
-12.456299 48.718365 -4.414524
-12.430728 48.731350 -4.390972
-12.569020 48.731716 -4.372961
-12.038057 48.755390 -4.881421
-12.549737 48.710377 -4.330516
-11.944859 48.739727 -4.842893
-12.071726 48.722744 -4.800661
-12.094643 48.752460 -4.850239
-12.315737 48.726917 -4.346848
-12.312911 48.753929 -4.335946
-12.414708 48.736549 -4.311043
-12.414645 48.720348 -4.268483
-11.903870 48.764690 -4.800310
-11.816940 48.745750 -4.759347
-11.944959 48.730366 -4.721241
-11.966424 48.764469 -4.776793
-12.190268 48.739464 -4.284777
-12.183333 48.765198 -4.278176
-12.292195 48.731773 -4.210813
-12.297970 48.756748 -4.261216
-11.790245 48.779404 -4.730446
-11.835307 48.742641 -4.650948
-11.842977 48.773491 -4.706544
-11.699533 48.753078 -4.682271
-12.509054 48.746044 -3.725946
-12.065068 48.745949 -4.222548
-12.473190 48.755871 -3.718827
-12.172151 48.741642 -4.154047
-12.051420 48.768841 -4.218920
-12.165498 48.763718 -4.205906
-11.720327 48.777611 -4.636755
-12.394179 48.759125 -3.683203
-11.950958 48.754635 -4.164588
-12.053742 48.745800 -4.098529
-12.344943 48.763012 -3.679214
-11.951208 48.788776 -4.170150
-12.044271 48.771912 -4.154953
-12.266123 48.760799 -3.639115
-11.845859 48.765125 -4.110187
-11.969351 48.769653 -4.053240
-12.238340 48.777973 -3.642139
-11.932765 48.781952 -4.106857
-12.142719 48.795860 -3.606428
-13.027465 48.663830 -4.823769
-12.931000 48.677711 -4.922314
-10.994543 48.798004 -4.742438
-13.013426 48.691189 -4.748791
-12.945457 48.710953 -4.828175
-13.256293 48.671970 -4.304973
-11.255773 48.804436 -4.400368
-13.340732 48.662827 -4.168919
-13.397411 48.672203 -4.127248
-11.060155 48.789062 -4.674346
-12.836275 48.676064 -4.730680
-13.276798 48.698391 -4.225022
-11.213659 48.792156 -4.352548
-12.728310 48.686077 -4.818720
-12.825212 48.702553 -4.662938
-12.751429 48.718632 -4.734737
-11.188142 48.830994 -4.355168
-13.241479 48.700146 -4.075306
-13.163451 48.681343 -4.107489
-13.072012 48.689693 -4.236392
-11.224291 48.816463 -4.343763
-12.664079 48.690228 -4.647007
-13.099704 48.715794 -4.162280
-12.288795 48.726269 -5.120371
-12.548618 48.698170 -4.725877
-12.666471 48.721848 -4.588997
-11.430180 48.808758 -3.923172
-12.576975 48.729145 -4.648517
-13.058412 48.710056 -4.018799
-12.997082 48.698807 -4.048492
-12.891481 48.701981 -4.168373
-12.515326 48.709877 -4.570386
-12.924964 48.727531 -4.100091
-12.151939 48.747833 -5.033144
-12.383945 48.710278 -4.639706
-11.431449 48.812313 -3.882021
-12.503077 48.730110 -4.513825
-12.900390 48.724430 -3.966619
-12.420855 48.741287 -4.569594
-12.827270 48.706581 -3.989586
-12.727259 48.715240 -4.104125
-12.360340 48.719383 -4.493827
-12.760578 48.737190 -4.041097
-11.939704 48.730228 -4.962170
-11.988719 48.742443 -4.931471
-12.239002 48.724239 -4.560803
-12.356338 48.741611 -4.444324
-12.742620 48.732857 -3.915640
-12.282577 48.758125 -4.499065
-12.684119 48.722164 -3.935407
-12.566768 48.723179 -4.041791
-12.218360 48.728233 -4.420398
-12.619670 48.752186 -3.987732
-11.807816 48.739109 -4.871886
-11.871856 48.764282 -4.855931
-11.838076 48.772274 -4.913517
-12.098137 48.735157 -4.485803
-12.224859 48.756115 -4.380526
-12.606792 48.747261 -3.868810
-12.147523 48.768368 -4.428485
-12.545061 48.734577 -3.883731
-12.432034 48.739998 -3.986266
-12.089524 48.739822 -4.353364
-12.483587 48.763943 -3.934752
-11.689017 48.750980 -4.790813
-11.739944 48.768723 -4.772436
-11.709406 48.778927 -4.826340
-12.088570 48.760574 -4.315404
-11.980236 48.754501 -4.417588
-12.476999 48.759754 -3.823686
-12.014479 48.775043 -4.359688
-12.408878 48.742489 -3.833223
-12.287253 48.743774 -3.928169
-11.966697 48.749630 -4.289446
-12.346879 48.770687 -3.883631
-11.971740 48.772953 -4.257755
-11.846365 48.757633 -4.344844
-12.347873 48.768200 -3.777523
-12.285917 48.752750 -3.784886
-11.898447 48.787098 -4.297123
-12.165460 48.755848 -3.875445
-11.853064 48.760128 -4.227774
-12.231817 48.785255 -3.835063
-12.232466 48.780281 -3.735554
-12.168833 48.762085 -3.738165
-12.064942 48.777962 -3.827914
-12.106494 48.788013 -3.786644
-12.115248 48.785889 -3.692709
-12.050466 48.766113 -3.691187
-11.131578 48.793594 -4.512601
-11.230372 48.813740 -4.435993
-11.177189 48.788578 -4.433002
-11.192310 48.822586 -4.466495
-11.331552 48.799374 -4.045629
-11.383802 48.818195 -4.014422
-11.364284 48.799400 -3.954770
