# .PCD v0.7 - Point Cloud Data file format
VERSION 0.7
FIELDS x y z
SIZE 4 4 4
TYPE F F F
COUNT 1 1 1
WIDTH 24
HEIGHT 1
VIEWPOINT 0 0 0 1
POINTS 24
DATA ascii
-13.548081 47.567169 -3.279913
-13.468234 47.549465 -3.205064
-13.450321 47.567215 -3.208750
-13.518845 47.602188 -3.249318
-13.512149 47.614265 -3.258311
-13.397836 47.589081 -3.187931
-13.484855 47.651573 -3.234117
-13.381195 47.606510 -3.190101
-13.541305 47.691673 -3.289914
-13.474380 47.659782 -3.238131
-13.267873 47.613007 -3.179803
-13.443683 47.698925 -3.219927
-13.494953 47.737633 -3.271693
-13.253732 47.631855 -3.179787
-13.414016 47.698494 -3.220307
-13.193896 47.645348 -3.163829
-13.445755 47.781307 -3.254203
-13.351626 47.733334 -3.210847
-13.333002 47.731907 -3.204820
-13.179563 47.666416 -3.161846
-13.149916 47.682320 -3.144188
-13.292555 47.772522 -3.197924
-13.398853 47.825371 -3.235883
-13.242701 47.758698 -3.190888
