# .PCD v0.7 - Point Cloud Data file format
VERSION 0.7
FIELDS x y z
SIZE 4 4 4
TYPE F F F
COUNT 1 1 1
WIDTH 23
HEIGHT 1
VIEWPOINT 0 0 0 1
POINTS 23
DATA ascii
-15.173725 44.525421 -4.199868
-15.139165 44.576496 -4.244015
-15.179471 44.633064 -4.231822
-15.124618 44.694397 -4.272241
-15.185391 44.737640 -4.263011
-15.108726 44.809471 -4.298423
-15.175046 44.850842 -4.290083
-15.164741 44.822063 -4.178390
-15.124771 44.903351 -4.325025
-15.161327 44.965584 -4.316765
-15.172800 44.917183 -4.202169
-15.125785 45.004639 -4.347386
-15.226776 44.947227 -4.150095
-15.157851 45.069607 -4.340267
-15.183372 45.010895 -4.224281
-15.151918 45.090862 -4.371558
-15.236050 45.040134 -4.175147
-15.178290 45.160778 -4.364294
-15.174385 45.113747 -4.244713
-15.138356 45.197472 -4.390320
-15.225007 45.142296 -4.197880
-15.162868 45.268696 -4.383944
-15.175477 45.208946 -4.262724
