# .PCD v0.7 - Point Cloud Data file format
VERSION 0.7
FIELDS x y z
SIZE 4 4 4
TYPE F F F
COUNT 1 1 1
WIDTH 171
HEIGHT 1
VIEWPOINT 0 0 0 1
POINTS 171
DATA ascii
-13.637412 44.352966 -5.566090
-13.572108 44.042030 -5.913320
-13.645202 44.553020 -5.564661
-13.529767 44.481056 -5.818066
-13.597229 43.835815 -5.945452
-13.442848 44.547077 -5.912069
-13.358514 44.531967 -6.087945
-13.696875 44.595100 -5.603870
-13.269857 44.505745 -6.295649
-13.376206 44.287174 -6.325011
-13.574382 44.558887 -5.844937
-13.467070 44.516640 -5.808912
-13.600810 44.127335 -5.907469
-13.484597 43.795750 -6.342133
-13.519711 44.125946 -6.343877
-13.561780 44.150856 -5.825689
-13.713428 44.738434 -5.611587
-13.340094 44.538605 -6.073202
-13.319129 44.587421 -6.316384
-13.278197 44.683315 -6.299645
-13.426353 44.383926 -6.343212
-13.522442 44.551853 -5.850119
-13.690046 44.408573 -5.962347
-13.556947 44.546204 -5.812799
-13.855592 44.637932 -5.555364
-13.619709 44.399979 -6.094367
-13.395955 44.544327 -6.072373
-13.345803 44.516216 -5.974073
-13.591695 44.147209 -6.404693
-13.341651 44.398388 -6.307076
-13.530044 44.538288 -5.750659
-13.327969 44.433861 -6.303787
-13.502259 44.116104 -6.330869
-13.726561 44.877239 -5.616132
-13.559427 44.422901 -5.831965
-13.578036 43.944080 -5.924566
-13.366168 44.519386 -6.030007
-13.368629 44.662979 -6.338668
-13.327435 44.749836 -6.324991
-13.479739 44.454868 -6.372399
-13.628687 44.407341 -5.961025
-13.652104 44.452263 -5.902129
-13.291194 44.520821 -6.158606
-13.299588 44.517818 -6.153059
-13.834334 44.853729 -5.539544
-13.567642 44.800068 -5.973101
-13.621716 44.208267 -5.749143
-13.403174 44.547867 -6.013776
-13.571430 44.103031 -6.338667
-13.771873 44.746662 -5.549803
-13.565488 44.515308 -6.284268
-13.584996 44.568462 -5.791309
-13.395103 44.471180 -6.331952
-13.379920 44.506912 -6.327353
-13.571292 44.145947 -6.386044
-13.602214 44.152294 -5.907471
-13.588859 44.561192 -5.833102
-13.427203 44.543251 -6.073157
-13.407444 44.528854 -5.913995
-13.414786 44.741158 -6.357609
-13.375493 44.814548 -6.349767
-13.530619 44.532345 -6.398095
-13.674254 44.858334 -5.887017
-13.699333 44.522396 -5.928994
-13.410460 44.270012 -6.340468
-13.422140 44.253258 -6.340657
-13.885134 44.882648 -5.577028
-13.584857 44.572548 -5.682836
-13.613536 44.863384 -6.001656
-13.615982 43.962921 -6.335825
-13.648704 44.110104 -6.404374
-13.784171 44.877552 -5.556722
-13.845107 44.807590 -5.533010
-13.540673 44.830521 -6.179140
-13.686977 44.456974 -5.886201
-13.395936 44.541752 -6.020460
-13.447493 44.542191 -6.357670
-13.332603 44.520435 -6.128057
-13.432522 44.578903 -6.353035
-13.353247 44.529209 -6.097164
-13.567379 44.439251 -6.303197
-13.565031 44.551392 -5.814849
-13.698215 44.427013 -5.936453
-13.620338 44.063164 -6.356022
-13.466233 44.553120 -5.955186
-13.462406 44.807026 -6.383112
-13.421620 44.877571 -6.373317
-13.616336 44.869339 -5.878035
-13.551914 44.705742 -6.365006
-13.650520 44.865791 -5.839993
-13.460632 44.365543 -6.353730
-13.476373 44.333988 -6.363170
-13.643037 44.597008 -5.724801
-13.667071 44.071716 -6.352277
-13.544161 44.734825 -6.152173
-13.882701 44.870518 -5.558683
-13.843818 44.771328 -5.532805
-13.610314 43.951298 -6.339692
-13.498826 44.608326 -6.383588
-13.481181 44.163090 -6.356225
-13.512454 44.127365 -6.342554
-13.481122 44.654591 -6.373270
-13.524760 44.823212 -6.161679
-13.669598 44.432152 -5.908301
-13.686287 44.114555 -6.396054
-13.837983 44.874859 -5.505437
-13.464771 44.953197 -6.389016
-13.518600 44.427383 -6.383491
-13.715540 44.864677 -5.891956
-13.526150 44.423569 -6.378737
-13.655713 44.751770 -5.717640
-13.542494 44.755138 -6.082531
-13.576790 44.840748 -6.153807
-13.867229 44.870510 -5.546687
-13.674430 44.874741 -5.821969
-13.669263 44.041225 -6.360226
-13.538255 44.244202 -6.377097
-13.585340 44.145138 -6.397004
-13.530806 44.740356 -6.369771
-13.522537 44.748672 -6.380876
-13.837934 44.757519 -5.531775
-13.579966 44.854424 -6.203722
-13.687543 44.861282 -5.859644
-13.613420 44.507298 -6.082874
-13.560006 44.789791 -6.117405
-13.899025 44.878368 -5.549102
-13.572046 44.493111 -6.409969
-13.575620 44.511242 -6.395805
-13.673152 44.875179 -5.718635
-13.578398 44.847305 -6.089903
-13.557688 44.692780 -6.104378
-13.562449 44.433151 -6.339157
-13.571242 44.474365 -6.289991
-13.853728 44.878414 -5.537235
-13.662927 44.861488 -5.831990
-13.578006 44.836159 -5.983204
-13.608396 44.846272 -6.141661
-13.968450 44.868103 -5.598829
-13.563476 44.761440 -6.318123
-13.548625 44.837334 -6.270716
-13.873440 45.411255 -5.564669
-13.578767 44.842033 -6.080370
-13.525287 44.806637 -6.195311
-13.532783 44.839207 -6.153539
-13.634838 44.858780 -6.023195
-13.888082 45.488537 -5.573355
-14.154495 44.878254 -5.743478
-13.826227 45.431103 -5.576005
-13.638473 44.861012 -6.120933
-13.892952 45.579906 -5.576098
-14.087459 44.857578 -5.582680
-13.903241 45.448406 -5.561364
-14.144148 44.866760 -5.726386
-13.827595 45.535240 -5.573043
-14.156905 44.852314 -5.628759
-13.943728 45.593391 -5.610422
-13.910231 45.536251 -5.564017
-13.905911 45.420197 -5.553557
-13.845359 45.602745 -5.583843
-13.911086 45.449955 -5.555402
-14.235784 44.835079 -5.680071
-13.915988 45.505375 -5.556742
-13.925617 45.607220 -5.572088
-13.901401 45.413818 -5.541597
-13.922585 45.526814 -5.562927
-13.920981 45.595528 -5.555973
-13.920883 45.483898 -5.549387
-13.936534 45.598064 -5.571122
-13.975989 45.601982 -5.590161
-13.936608 45.557728 -5.554548
-13.962776 45.610218 -5.566490
