# .PCD v0.7 - Point Cloud Data file format
VERSION 0.7
FIELDS x y z
SIZE 4 4 4
TYPE F F F
COUNT 1 1 1
WIDTH 13
HEIGHT 1
VIEWPOINT 0 0 0 1
POINTS 13
DATA ascii
-17.501854 48.496208 -6.714468
-16.945108 48.479996 -7.122475
-17.128962 48.526787 -6.530653
-16.649960 48.514793 -6.930751
-17.197184 48.511330 -6.476578
-16.950903 48.496014 -7.024690
-16.904097 48.545643 -6.337165
-16.694370 48.539410 -6.864000
-17.356518 48.522564 -6.458598
-16.977646 48.537666 -6.295084
-17.945099 48.515339 -5.817258
-17.693192 48.568069 -5.738338
-17.491611 48.535950 -5.622389
