# .PCD v0.7 - Point Cloud Data file format
VERSION 0.7
FIELDS x y z
SIZE 4 4 4
TYPE F F F
COUNT 1 1 1
WIDTH 75
HEIGHT 1
VIEWPOINT 0 0 0 1
POINTS 75
DATA ascii
-16.113663 43.861893 -3.218537
-15.435931 43.704895 -3.833510
-15.299753 44.796429 -3.819729
-16.089041 43.706371 -3.194137
-15.439746 43.707275 -3.833843
-15.129146 45.229397 -4.133812
-15.160925 45.528320 -4.185657
-15.116067 45.377495 -4.226014
-15.107504 45.528103 -4.270786
-15.106450 45.317863 -4.199389
-15.203635 45.521870 -4.199656
-15.136882 45.387955 -4.157473
-15.107645 45.534908 -4.316704
-15.112928 45.433697 -4.273209
-15.145158 45.525661 -4.287502
-15.125516 45.532406 -4.230639
-15.086452 45.475391 -4.294200
-15.063590 45.043999 -4.390435
-15.100681 45.379696 -4.251420
-15.250708 45.511555 -4.211630
-15.119772 45.459030 -4.214896
-15.157675 45.521030 -4.329482
-15.085848 45.391113 -4.290029
-15.185949 45.520611 -4.303577
-15.087007 45.519581 -4.330302
-15.170823 45.520420 -4.245461
-15.082838 45.532650 -4.337833
-15.084141 45.453686 -4.305972
-15.284545 45.520031 -4.232355
-15.093328 45.338631 -4.267704
-15.109486 45.519630 -4.265482
-15.081322 45.447601 -4.338620
-15.197101 45.524406 -4.348230
-15.224659 45.520027 -4.320964
-15.118210 45.525517 -4.353181
-15.211606 45.515400 -4.262944
-15.131461 45.519073 -4.353421
-15.070414 45.523052 -4.357090
-15.087048 45.397499 -4.318360
-15.142935 45.522137 -4.289854
-15.261110 45.522926 -4.339680
-15.330462 45.134171 -4.457239
-15.236347 45.526806 -4.366984
-15.166472 45.509975 -4.368790
-15.066737 45.520195 -4.391091
-15.246643 45.518593 -4.284475
-15.090159 45.493416 -4.312549
-15.170686 45.517422 -4.372956
-15.091690 45.542084 -4.387438
-15.059383 45.485794 -4.378935
-15.184395 45.512955 -4.308825
-15.310583 45.224941 -4.505091
-15.204473 45.509586 -4.389700
-15.309198 45.491409 -4.371105
-15.094451 45.530926 -4.419516
-15.282907 45.520535 -4.304614
-15.100607 45.524712 -4.352497
-15.207310 45.521355 -4.394488
-15.139077 45.525700 -4.403756
-15.081690 45.502632 -4.410744
-15.219767 45.514099 -4.332513
-15.235696 45.519634 -4.414612
-15.158363 45.494209 -4.430664
-15.146584 45.508629 -4.371626
-15.254030 45.513237 -4.411353
-15.181599 45.518379 -4.423405
-15.128363 45.486439 -4.430589
-15.259680 45.512363 -4.354160
-15.349748 45.428787 -4.402335
-15.202274 45.486668 -4.451742
-15.177249 45.515797 -4.400830
-15.223438 45.515278 -4.444385
-15.181827 45.463913 -4.448469
-15.314209 45.491615 -4.368465
-15.212104 45.518097 -4.426607
