# .PCD v0.7 - Point Cloud Data file format
VERSION 0.7
FIELDS x y z
SIZE 4 4 4
TYPE F F F
COUNT 1 1 1
WIDTH 361
HEIGHT 1
VIEWPOINT 0 0 0 1
POINTS 361
DATA ascii
-13.353004 43.399017 -6.002808
-13.501511 44.112484 -5.756953
-13.584622 44.172668 -5.751352
-13.451293 44.109680 -5.908855
-13.466346 44.108932 -5.904092
-13.579477 44.806568 -5.668706
-13.569413 44.120094 -5.716254
-13.646080 44.839291 -5.666190
-13.358247 43.389400 -6.087201
-13.543914 44.846245 -5.779703
-13.444811 44.109619 -5.886508
-13.500014 44.113068 -5.832528
-13.555073 44.836071 -5.777171
-13.627343 44.841255 -5.705646
-13.634856 44.836826 -5.632392
-13.694318 44.844509 -5.707854
-13.378623 43.396107 -6.026124
-13.398863 43.403332 -6.006396
-13.317606 43.396942 -6.092026
-13.590375 44.845730 -5.823573
-13.470541 44.116558 -5.973954
-13.536419 44.837330 -5.765221
-13.579837 44.840046 -5.723869
-13.602663 44.849533 -5.817991
-13.673844 44.848835 -5.747960
-13.619382 44.433784 -5.673149
-13.680651 44.844540 -5.675402
-13.342876 43.394314 -6.011957
-13.660583 44.838718 -5.587628
-13.723982 45.422192 -5.612443
-13.762768 44.841045 -5.616892
-13.484399 44.104340 -5.928638
-13.499372 44.110535 -5.912408
-13.432349 44.102386 -5.984063
-13.556670 44.832813 -5.836490
-13.642842 45.440201 -5.699106
-13.593035 44.116741 -5.693241
-13.583055 44.837822 -5.810492
-13.625275 44.845821 -5.768326
-13.652160 45.443520 -5.693496
-13.704659 45.518299 -5.619893
-13.576326 44.185410 -5.731629
-13.669733 44.840038 -5.645179
-13.424298 44.097210 -5.944008
-13.725562 44.878746 -5.712303
-13.452813 44.109951 -5.917196
-13.705463 44.841579 -5.634968
-13.753376 45.582508 -5.604609
-13.772530 45.480350 -5.529427
-13.677739 45.579193 -5.690978
-13.567373 44.839554 -5.798578
-13.578969 44.839321 -5.787374
-13.526790 44.844486 -5.841269
-13.609564 45.164093 -5.787152
-13.634007 45.225147 -5.748169
-13.651422 44.838902 -5.616913
-13.668524 45.438087 -5.657927
-13.687702 45.574326 -5.689053
-13.849019 45.510387 -5.538845
-13.738077 45.563496 -5.641613
-13.636193 44.840260 -5.657137
-13.714670 44.846905 -5.688900
-13.497088 44.440487 -5.916596
-13.744186 45.533283 -5.594921
-13.541823 44.843136 -5.792132
-13.735247 45.287804 -5.585557
-13.437551 44.111961 -6.060243
-13.788762 45.575714 -5.638508
-13.799408 45.576412 -5.543129
-13.612065 44.833351 -5.847462
-13.712790 45.574509 -5.725555
-13.624157 44.886677 -5.821922
-13.571097 44.832291 -5.892376
-13.652525 45.561726 -5.706135
-13.671919 45.572132 -5.684927
-13.695496 44.849007 -5.661974
-13.701251 45.569450 -5.656246
-13.722837 45.581741 -5.718472
-13.877619 45.568630 -5.558847
-13.772014 45.576195 -5.670218
-13.680192 44.838264 -5.707358
-13.737994 45.429863 -5.598914
-14.055410 44.821030 -5.687057
-13.777487 45.558266 -5.621900
-13.562300 44.839592 -5.861960
-13.584886 44.828152 -5.845395
-13.757726 45.563961 -5.560823
-13.528664 44.835201 -5.907731
-13.824876 45.572838 -5.670925
-13.835546 45.550240 -5.581595
-13.747924 45.581951 -5.756384
-13.658162 45.502769 -5.698926
-13.686174 45.557320 -5.742107
-13.666522 45.547699 -5.678444
-13.627703 45.495625 -5.735559
-13.705909 45.565617 -5.720226
-13.913464 45.552643 -5.595005
-13.736612 44.921432 -5.693211
-13.758897 45.570816 -5.755276
-13.735445 45.567966 -5.690755
-13.807061 45.571510 -5.704779
-13.709471 45.457569 -5.606177
-13.765877 45.574310 -5.598364
-13.811913 45.565845 -5.653419
-13.619231 45.458454 -5.725672
-13.636851 45.439903 -5.716964
-13.791057 45.565681 -5.595265
-13.592534 45.436489 -5.767560
-13.860471 45.571087 -5.704017
-13.867737 45.565323 -5.612252
-13.783953 45.567005 -5.795370
-13.692035 45.562077 -5.716850
-13.699728 45.556538 -5.711357
-13.661762 45.555889 -5.752052
-13.946851 45.562420 -5.625041
-13.721175 45.571903 -5.772819
-13.740313 45.569176 -5.753941
-13.794007 45.574215 -5.786866
-13.843298 45.561573 -5.741553
-13.750765 45.544434 -5.588970
-13.769481 45.569580 -5.725914
-13.739560 45.563179 -5.616913
-13.800227 45.569767 -5.633623
-14.033142 45.488724 -5.608788
-13.847505 45.564121 -5.687928
-13.653913 45.565186 -5.730777
-13.671010 45.575043 -5.713091
-13.824884 45.562260 -5.631204
-13.629344 45.574173 -5.761553
-13.898680 45.567879 -5.738570
-13.901621 45.569954 -5.643796
-13.819423 45.572403 -5.828342
-13.980090 45.575268 -5.654309
-13.725945 45.570808 -5.750475
-13.733146 45.570415 -5.743474
-13.756102 45.574371 -5.807260
-13.776341 45.554256 -5.794343
-13.695934 45.577732 -5.781927
-13.831642 45.564056 -5.825072
-13.879406 45.558758 -5.776784
-13.804377 45.567997 -5.761122
-13.784201 45.562332 -5.618891
-13.772378 45.566025 -5.652034
-13.834604 45.569279 -5.668097
-14.057976 45.553703 -5.625064
-13.882273 45.569630 -5.720174
-13.686761 45.572113 -5.766548
-13.858558 45.561909 -5.666372
-13.703599 45.568863 -5.752614
-13.937350 45.555481 -5.775389
-13.662298 45.569962 -5.801053
-13.937698 45.563110 -5.681212
-13.856449 45.574490 -5.862084
-14.019578 45.555637 -5.693372
-13.790999 45.572819 -5.843881
-13.767105 45.559940 -5.783779
-13.868453 45.561134 -5.861016
-13.761124 45.559097 -5.790815
-13.811170 45.567871 -5.825046
-13.916548 45.553749 -5.813468
-13.730234 45.565174 -5.822982
-13.839451 45.567429 -5.797725
-13.816733 45.575363 -5.651709
-14.055352 45.465694 -5.616753
-13.806416 45.567669 -5.688598
-13.869657 45.564629 -5.704054
-14.098581 45.543983 -5.660425
-13.919084 45.566704 -5.756114
-13.719589 45.574997 -5.803083
-14.103226 45.119480 -5.667051
-13.894482 45.558159 -5.704448
-13.736607 45.572731 -5.789134
-13.973332 45.559788 -5.809065
-13.694973 45.575912 -5.836829
-13.976180 45.549778 -5.720874
-13.893593 45.569511 -5.900181
-14.058264 45.547318 -5.730815
-13.826569 45.567108 -5.881983
-13.954873 45.543488 -5.852365
-13.906845 45.558949 -5.896954
-13.801359 45.566601 -5.818130
-13.795502 45.558666 -5.828117
-13.847466 45.566071 -5.861674
-13.764223 45.558750 -5.862505
-13.876510 45.550323 -5.839565
-13.850747 45.572960 -5.689038
-14.077161 45.549461 -5.629140
-13.840611 45.566254 -5.725912
-13.905614 45.564911 -5.739933
-14.138364 45.541496 -5.693521
-13.956048 45.560719 -5.792801
-14.074417 45.472641 -5.619938
-13.753425 45.571667 -5.843266
-13.930045 45.552444 -5.742540
-14.014091 45.547058 -5.848016
-13.770931 45.564251 -5.830821
-13.728781 45.568558 -5.879205
-14.011460 45.554226 -5.755242
-14.095612 45.547325 -5.765265
-13.933257 45.550957 -5.943472
-13.947572 45.542225 -5.939517
-13.992921 45.543415 -5.888958
-13.864718 45.555916 -5.923735
-13.885252 45.552910 -5.903451
-13.830580 45.558128 -5.866128
-13.835767 45.570225 -5.854648
-13.799149 45.561279 -5.899759
-13.913347 45.551483 -5.876138
-13.884944 45.571548 -5.726342
-14.114847 45.547359 -5.662919
-14.025545 45.561440 -5.596199
-13.876174 45.560593 -5.766844
-13.942212 45.557007 -5.779483
-13.994072 45.556591 -5.830168
-14.096353 45.549316 -5.635265
-14.339444 45.361782 -5.675880
-13.963806 45.564259 -5.775357
-13.788573 45.555992 -5.888614
-14.224256 45.454266 -5.646462
-13.806011 45.563744 -5.870250
-14.393385 44.476803 -6.177449
-14.047779 45.556458 -5.789646
-13.973678 45.540367 -5.984506
-13.763317 45.565121 -5.920097
-13.900678 45.556232 -5.961013
-13.865537 45.564686 -5.901177
-13.873799 45.542912 -5.903743
-13.922971 45.554947 -5.940720
-13.951337 45.543362 -5.917112
-13.836418 45.549271 -5.943641
-13.919813 45.565979 -5.765129
-14.156816 45.533398 -5.701885
-14.084888 45.488297 -5.627107
-14.067261 45.534393 -5.640353
-13.978171 45.557297 -5.815338
-13.911923 45.555897 -5.806333
-14.030272 45.565945 -5.863037
-14.153545 45.546383 -5.645866
-14.344498 45.471855 -5.681968
-14.136596 45.537689 -5.673469
-14.239586 45.534145 -5.660235
-14.000432 45.560413 -5.814118
-13.823469 45.554527 -5.929465
-14.419289 44.606548 -6.184822
-13.840364 45.559326 -5.911140
-14.340178 44.391239 -6.255081
-13.797852 45.561714 -5.962394
-13.939881 45.546932 -6.004849
-13.962511 45.543541 -5.983881
-13.903655 45.549503 -5.946522
-13.987870 45.550659 -5.952143
-13.909817 45.551331 -5.939471
-13.871677 45.549755 -5.983035
-13.959456 45.543427 -5.812027
-14.107776 45.550659 -5.647628
-14.018079 45.547829 -5.857053
-13.947546 45.558319 -5.844276
-14.365450 45.527428 -5.700429
-14.197215 45.526096 -5.689192
-14.174644 45.537594 -5.708615
-14.283462 45.518845 -5.699925
-14.362267 44.613647 -6.359110
-14.433885 44.760483 -6.178935
-13.860555 45.541592 -5.976183
-14.775799 44.759811 -5.795575
-14.374656 44.501308 -6.272061
-13.877267 45.545406 -5.957870
-13.834908 45.544758 -6.011306
-13.977450 45.552044 -6.041337
-14.172270 44.773724 -6.342834
-13.947960 45.540203 -5.984028
-13.941344 45.547546 -5.987385
-13.908701 45.551960 -6.022410
-13.996295 45.544617 -5.849993
-14.147838 45.538074 -5.687254
-13.987212 45.539852 -5.891803
-14.410224 45.517025 -5.738606
-14.389478 44.741997 -6.356603
-14.322406 45.523670 -5.734983
-14.459469 44.860878 -6.190320
-14.405038 44.620152 -6.283189
-13.896540 45.546043 -6.016933
-13.915623 45.539337 -6.003066
-13.871199 45.543102 -6.054993
-13.978880 45.548656 -6.027481
-13.986040 45.544266 -6.024082
-13.948600 45.542606 -6.069788
-14.529408 45.024223 -6.065096
-14.374079 44.679131 -6.373297
-14.408306 44.886913 -6.342388
-14.474479 44.989368 -6.186955
-14.423780 44.765263 -6.280292
-13.933897 45.546223 -6.059864
-14.554748 45.107388 -6.076727
-14.349291 44.666340 -6.365005
-14.437431 44.982502 -6.346776
-14.491788 45.095196 -6.190354
-14.367734 44.722687 -6.343718
-14.424235 44.954903 -6.250286
-14.533226 45.065437 -6.064656
-14.754087 44.754978 -5.791032
-14.563617 45.225780 -6.072044
-14.387649 44.746338 -6.387434
-14.491323 44.794285 -6.107339
-14.284984 44.742519 -6.388147
-14.452344 45.109844 -6.333512
-14.503616 45.210003 -6.185053
-14.442819 45.067570 -6.250748
-14.799994 44.758335 -5.813346
-14.561119 45.360283 -6.057078
-14.431033 45.081478 -6.343190
-14.490047 44.975361 -6.094431
-14.505260 45.335632 -6.170274
-14.467377 45.226002 -6.321137
-14.543407 45.151665 -6.027406
-14.546481 45.087898 -6.077348
-14.538143 45.001297 -6.091614
-14.946887 44.614254 -6.443103
-14.453398 45.179264 -6.344632
-14.506826 45.086433 -6.101965
-14.477222 45.345051 -6.304417
-14.553219 45.259869 -6.031384
-14.560296 45.194366 -6.081389
-14.444030 45.335915 -6.372957
-14.379522 45.397621 -6.390489
-14.422242 45.108440 -6.328708
-14.138397 45.417244 -6.297852
-14.579230 45.354595 -6.080170
-14.217095 45.416683 -6.322503
-14.153023 45.526482 -6.302418
-14.555902 45.102081 -6.102152
-14.434048 45.157623 -6.352089
-14.518933 45.199310 -6.105883
-14.567784 45.346985 -6.041415
-14.556069 45.335300 -6.067704
-14.441328 45.211872 -6.328604
-14.290257 45.497124 -6.384014
-14.964448 44.625050 -6.469427
-14.197191 45.528610 -6.350266
-14.554250 45.241604 -6.092754
-14.457205 45.244156 -6.357961
-14.516276 45.341003 -6.093613
-14.929006 44.604862 -6.451935
-14.945996 44.617527 -6.419302
-14.448234 45.338589 -6.313135
-14.562003 45.350124 -6.093158
-14.471304 45.351421 -6.350660
-14.392957 45.320297 -6.378268
-14.438280 45.490879 -6.431469
-14.939478 44.621204 -6.491532
-14.442969 45.336620 -6.367816
-14.961290 44.728458 -6.504762
-15.261295 44.697960 -6.572489
-15.239750 44.683617 -6.693576
-15.280406 44.664509 -6.755891
-14.660342 45.473106 -6.503157
-15.227603 44.682373 -6.814739
-14.596799 45.418259 -6.838408
-14.470614 45.457764 -6.808594
-14.568164 45.439877 -6.837970
-14.591405 45.432423 -6.824115
