# .PCD v0.7 - Point Cloud Data file format
VERSION 0.7
FIELDS x y z
SIZE 4 4 4
TYPE F F F
COUNT 1 1 1
WIDTH 55
HEIGHT 1
VIEWPOINT 0 0 0 1
POINTS 55
DATA ascii
-16.937958 44.355694 -4.430085
-16.835020 44.570755 -4.467337
-16.827721 44.555637 -4.463870
-16.940342 44.446880 -4.462525
-16.943018 44.482906 -4.434918
-16.949627 44.422840 -4.510111
-16.945227 44.463329 -4.466180
-16.964014 44.486137 -4.524112
-16.939657 44.450970 -4.464275
-16.885792 45.160965 -4.477160
-16.872478 45.106079 -4.503917
-16.955427 44.575901 -4.442951
-16.956779 44.542141 -4.504787
-16.969995 44.505558 -4.525774
-16.883820 45.133301 -4.496064
-16.893896 45.286247 -4.496832
-16.940731 44.433777 -4.463843
-16.972145 44.485416 -4.519523
-16.987701 44.996620 -4.487934
-16.899485 45.192638 -4.530459
-16.903009 45.245464 -4.482186
-16.879805 45.146023 -4.492262
-16.960989 44.644169 -4.512239
-16.900103 45.334751 -4.474728
-16.967220 44.674221 -4.445554
-16.983625 45.051533 -4.487797
-16.968504 45.235004 -4.504657
-16.975412 44.474957 -4.520798
-16.888382 45.149326 -4.486359
-17.014923 45.014938 -4.533265
-16.927288 45.262276 -4.523147
-17.028666 45.073696 -4.509505
-16.967695 45.085453 -4.492976
-16.911573 45.318474 -4.497924
-16.900892 45.377998 -4.528122
-16.966478 44.749329 -4.513503
-16.901928 45.407726 -4.512289
-17.029692 45.046059 -4.518542
-17.035427 45.198460 -4.520613
-16.968081 45.104652 -4.491698
-17.033964 45.177814 -4.512106
-17.023550 45.071087 -4.515841
-16.958775 45.309170 -4.520061
-17.019680 45.279503 -4.504820
-16.982605 45.358173 -4.510393
-16.903049 45.422390 -4.522217
-17.032007 45.085480 -4.510337
-17.043888 45.255047 -4.518812
-17.048521 45.291954 -4.540769
-16.940996 45.447136 -4.524795
-17.045753 45.331314 -4.521651
-17.002823 45.351074 -4.504401
-17.042645 45.379627 -4.507165
-17.053040 45.342587 -4.522390
-17.054953 45.415958 -4.548546
