# .PCD v0.7 - Point Cloud Data file format
VERSION 0.7
FIELDS x y z
SIZE 4 4 4
TYPE F F F
COUNT 1 1 1
WIDTH 531
HEIGHT 1
VIEWPOINT 0 0 0 1
POINTS 531
DATA ascii
-18.712538 48.225266 -7.811175
-18.192781 48.271744 -7.594202
-18.769903 48.257767 -7.287684
-18.174084 48.279640 -7.463241
-18.386929 48.273808 -7.486924
-18.302729 48.289371 -7.209054
-18.386177 48.279884 -7.175429
-18.367350 48.298717 -7.070702
-18.510918 48.283291 -7.025583
-18.501486 48.280289 -7.158919
-17.972918 48.304173 -7.331370
-18.165117 48.296787 -7.349280
-18.079920 48.307728 -7.086761
-17.776136 48.319351 -7.307906
-18.091240 48.267811 -7.475662
-18.128590 48.290287 -7.044491
-17.860384 48.295891 -7.381396
-18.135069 48.316803 -6.954423
-18.288681 48.305794 -6.921176
-18.276533 48.302349 -7.048748
-17.660072 48.308758 -7.305987
-17.970369 48.318165 -7.227458
-17.797297 48.326267 -7.215235
-17.910292 48.332241 -6.991461
-18.420603 48.293400 -7.059047
-17.500309 48.333466 -7.250920
-17.910416 48.294495 -7.359534
-17.623970 48.343571 -7.200505
-17.972612 48.319805 -6.961928
-17.698692 48.317223 -7.271430
-17.949278 48.336979 -6.859780
-18.746281 48.332867 -6.275417
-18.095629 48.325619 -6.829090
-18.053303 48.315060 -6.941142
-17.519592 48.331425 -7.205350
-18.194536 48.333050 -6.606251
-18.289795 48.307484 -6.566084
-18.216658 48.319500 -6.787028
-18.290936 48.329723 -6.494072
-17.796833 48.335690 -7.118324
-17.638727 48.345024 -7.110238
-18.191061 48.307705 -6.953412
-17.747656 48.350758 -6.901164
-17.729162 48.311150 -7.243735
-17.955141 48.317696 -7.116776
-18.416462 48.316528 -6.419294
-17.368114 48.354164 -7.151932
-17.464355 48.357647 -7.090338
-17.800365 48.335316 -6.871883
-17.536299 48.332546 -7.162641
-18.508167 48.341839 -6.218086
-17.770424 48.350220 -6.768690
-17.918390 48.342442 -6.743860
-17.885435 48.333790 -6.858469
-17.382622 48.348495 -7.108893
-18.015873 48.348278 -6.537189
-18.148966 48.335022 -6.513032
-18.290823 48.323826 -6.489263
-18.030535 48.334145 -6.704232
-17.643440 48.352493 -7.021954
-18.101551 48.345009 -6.426736
-18.001606 48.322948 -6.865582
-17.484282 48.357151 -7.008696
-17.588903 48.332371 -7.152283
-17.791107 48.334682 -7.019322
-17.585382 48.360134 -6.811970
-18.222635 48.332035 -6.357477
-17.242228 48.368969 -7.057212
-17.245350 48.351395 -7.216640
-17.329931 48.372368 -6.995296
-17.644661 48.348644 -6.790877
-17.422255 48.356403 -7.084285
-18.151386 48.324184 -6.657656
-18.319479 48.356201 -6.169152
-18.357630 48.334698 -6.287154
-17.735563 48.350246 -6.783464
-17.754602 48.354477 -6.666044
-17.621252 48.365692 -6.691535
-17.082483 48.364773 -7.175236
-17.990025 48.351677 -6.454678
-17.257915 48.362911 -7.019878
-18.140797 48.346218 -6.438531
-17.869179 48.365704 -6.477183
-18.305023 48.322826 -6.430613
-17.885717 48.353706 -6.637306
-17.831053 48.337799 -6.786232
-17.944813 48.362389 -6.369188
-17.340591 48.365780 -6.914512
-17.657265 48.352737 -6.937895
-17.447937 48.347580 -7.062007
-17.317795 48.353600 -7.173089
-17.458063 48.375084 -6.739150
-18.271255 48.346771 -6.045055
-18.064264 48.349335 -6.305536
-17.130800 48.382721 -6.973619
-16.913090 48.380260 -7.125175
-17.989599 48.338531 -6.590638
-17.518795 48.365253 -6.722427
-17.285633 48.365211 -6.991797
-17.204969 48.384735 -6.907608
-18.319633 48.353378 -6.072425
-18.159948 48.372196 -6.126316
-17.573185 48.355202 -6.703336
-18.181005 48.347923 -6.235108
-17.611223 48.366955 -6.596793
-17.490856 48.379776 -6.622818
-17.975525 48.358353 -6.384045
-18.144621 48.342205 -6.382243
-17.149124 48.376186 -6.940618
-17.841381 48.366055 -6.400170
-17.715044 48.373875 -6.417286
-17.724751 48.361130 -6.565813
-17.749153 48.373642 -6.744193
-17.326483 48.362232 -6.982347
-17.201370 48.365238 -7.081460
-17.793770 48.374043 -6.313775
-17.245794 48.387028 -6.848098
-17.333801 48.386536 -6.669865
-17.916130 48.363422 -6.255988
-18.118700 48.362816 -6.006727
-17.838840 48.350548 -6.526779
-17.045929 48.385406 -7.050584
-17.022364 48.392040 -6.892101
-18.273808 48.337570 -6.151312
-17.392221 48.375854 -6.655155
-17.170156 48.376167 -6.912922
-16.821564 48.393875 -7.042327
-17.096708 48.396851 -6.830447
-18.168365 48.369164 -6.036981
-18.000280 48.381092 -6.085357
-18.042971 48.365612 -6.193147
-17.457729 48.372276 -6.644508
-17.491278 48.381557 -6.536279
-16.887930 48.390358 -7.006216
-17.822683 48.368008 -6.332766
-17.998276 48.360939 -6.337207
-17.373846 48.394192 -6.559572
-17.710945 48.379265 -6.350545
-17.604065 48.376652 -6.508848
-17.044960 48.387733 -6.866431
-17.606510 48.392677 -6.370081
-17.538260 48.360355 -6.648896
-17.267084 48.390690 -6.782261
-17.207232 48.371559 -6.903992
-17.097443 48.377079 -7.000218
-17.132082 48.395618 -6.772737
-17.653135 48.384407 -6.262249
-17.720892 48.366585 -6.474188
-17.235100 48.400784 -6.611543
-17.775429 48.374603 -6.208741
-16.940050 48.390690 -6.963357
-18.146431 48.356888 -6.114764
-17.983953 48.379848 -5.971221
-17.072281 48.388748 -6.845384
-17.289923 48.390396 -6.598842
-16.936077 48.406376 -6.825047
-16.750729 48.412605 -6.975311
-18.027449 48.382732 -6.003970
-16.995762 48.405941 -6.758407
-17.890366 48.372940 -6.148163
-17.348183 48.385597 -6.587888
-17.864254 48.392345 -6.047482
-17.366917 48.388580 -6.476042
-17.698547 48.382259 -6.289796
-17.834942 48.366592 -6.288253
-16.785587 48.391682 -6.998993
-16.802307 48.401970 -6.931307
-17.486259 48.386753 -6.453921
-17.589512 48.391342 -6.304758
-16.948837 48.396206 -6.796679
-17.257471 48.402390 -6.498962
-17.486992 48.401695 -6.320708
-17.433254 48.377953 -6.598275
-17.159433 48.398335 -6.713466
-17.295563 48.388443 -6.718513
-17.113791 48.387421 -6.842413
-17.003195 48.388554 -6.926406
-17.031580 48.403492 -6.704213
-17.598866 48.378017 -6.421998
-17.538225 48.397747 -6.217449
-18.000895 48.366138 -6.077203
-17.126978 48.406143 -6.549721
-16.856329 48.401867 -6.893461
-17.659050 48.388912 -6.168172
-17.848391 48.389885 -5.936862
-16.973181 48.396477 -6.776918
-17.187864 48.400867 -6.543102
-16.841768 48.411671 -6.754537
-17.884365 48.389511 -5.970646
-16.667538 48.420002 -6.898920
-17.765001 48.384079 -6.109988
-17.245390 48.396992 -6.535702
-16.903145 48.414871 -6.692340
-17.743679 48.402802 -6.012985
-17.576056 48.392284 -6.247449
-17.716589 48.383038 -6.249837
-16.735941 48.396820 -7.027077
-16.788258 48.388981 -6.963428
-16.715530 48.406113 -6.936104
-17.270023 48.402275 -6.425562
-17.377565 48.396706 -6.402873
-17.476290 48.401402 -6.262040
-16.725683 48.413319 -6.863097
-17.321186 48.388443 -6.543600
-16.869246 48.409431 -6.738341
-17.385395 48.413567 -6.277061
-17.065166 48.407181 -6.653003
-17.153126 48.411129 -6.442362
-16.637337 48.411728 -6.909512
-16.925253 48.402798 -6.863923
-17.009632 48.394661 -6.774464
-17.495211 48.390209 -6.376177
-17.884893 48.380051 -6.044433
-16.949684 48.415859 -6.647878
-16.583927 48.408581 -6.974057
-16.552074 48.414543 -6.872639
-17.943237 48.399166 -5.903463
-17.036057 48.415279 -6.497177
-16.787622 48.416958 -6.834889
-17.436069 48.411583 -6.175974
-17.550938 48.401257 -6.129258
-16.889824 48.408070 -6.719095
-17.088907 48.407894 -6.489481
-17.719694 48.398109 -5.904114
-17.757744 48.398365 -5.941550
-16.760162 48.418278 -6.691628
-17.661983 48.398716 -6.074883
-17.135418 48.400291 -6.479417
-16.596376 48.429691 -6.832266
-17.631592 48.413269 -5.980220
-16.824131 48.426994 -6.634687
-17.600554 48.395149 -6.212771
-16.719494 48.404018 -6.906281
-17.474401 48.405846 -6.210955
-16.630251 48.408581 -6.862297
-17.273489 48.404053 -6.354027
-17.172413 48.409954 -6.376256
-17.368526 48.409794 -6.220883
-17.214407 48.396221 -6.491857
-17.096666 48.403175 -6.598525
-16.657324 48.424446 -6.802268
-16.780895 48.412777 -6.674359
-17.286898 48.421986 -6.235532
-16.977255 48.416245 -6.594910
-16.844616 48.411396 -6.799007
-16.923176 48.404514 -6.717887
-16.565102 48.418484 -6.843426
-17.066587 48.422596 -6.394312
-16.450054 48.418053 -6.928644
-17.390446 48.398533 -6.329473
-17.764027 48.388462 -6.011298
-16.868864 48.425091 -6.591471
-17.804615 48.403168 -5.876601
-16.710381 48.424152 -6.770759
-16.951376 48.423630 -6.446964
-17.443062 48.409519 -6.090924
-17.325119 48.416359 -6.133150
-16.805124 48.413807 -6.660304
-17.009386 48.419476 -6.444538
-17.660078 48.412083 -5.913693
-16.367437 48.415871 -6.929903
-17.598537 48.404411 -5.873713
-16.424511 48.412418 -6.936690
-16.307682 48.419746 -6.920203
-16.691429 48.428112 -6.637819
-17.544285 48.402870 -6.039589
-17.062693 48.416935 -6.439876
-17.539495 48.425453 -5.951100
-17.485378 48.402149 -6.175570
-17.370687 48.413605 -6.174192
-16.648829 48.414299 -6.847485
-16.484592 48.404404 -6.948331
-16.597265 48.417767 -6.894704
-16.748100 48.434669 -6.579117
-17.180714 48.411983 -6.309883
-16.573423 48.424038 -6.811988
-17.271891 48.416847 -6.182934
-17.011225 48.410706 -6.546148
-17.115229 48.403011 -6.443913
-17.081110 48.417793 -6.330747
-16.903397 48.426403 -6.545884
-16.590101 48.433380 -6.742829
-16.766413 48.417530 -6.738355
-17.180563 48.423290 -6.192059
-16.703289 48.418686 -6.617257
-16.842968 48.413589 -6.663646
-16.314333 48.427967 -6.878245
-17.294739 48.406654 -6.288065
-17.652214 48.395802 -5.980593
-16.979616 48.430092 -6.346116
-17.688341 48.410664 -5.852818
-16.789742 48.431030 -6.537143
-16.641462 48.431190 -6.712603
-16.878721 48.433399 -6.403631
-17.341211 48.415031 -6.054849
-16.739256 48.426025 -6.613785
-17.231527 48.425087 -6.095369
-16.920561 48.423164 -6.396143
-16.417448 48.414391 -6.932901
-17.559799 48.421986 -5.887743
-17.662878 48.410652 -5.778947
-16.315163 48.425167 -6.871747
-16.382246 48.432137 -6.891336
-17.454376 48.414917 -6.008435
-17.513853 48.419731 -5.846393
-16.624619 48.436642 -6.586169
-16.976164 48.423229 -6.395206
-16.255533 48.429161 -6.859227
-17.439730 48.432449 -5.921522
-17.369831 48.406116 -6.139671
-17.276134 48.421280 -6.139892
-16.581486 48.423119 -6.790884
-16.538792 48.429642 -6.838539
-17.100071 48.421448 -6.269783
-16.934326 48.419186 -6.496954
-17.031050 48.411964 -6.401557
-17.184641 48.425800 -6.147527
-16.674839 48.441986 -6.525059
-16.998966 48.425545 -6.287698
-16.701927 48.427845 -6.686152
-16.833815 48.437042 -6.498454
-16.768219 48.421883 -6.613831
-17.107180 48.435722 -6.157991
-16.649847 48.435360 -6.576317
-17.205215 48.413067 -6.247532
-17.551079 48.403893 -5.952436
-17.750540 48.410980 -5.805911
-16.295324 48.428555 -6.889572
-16.260557 48.435547 -6.817140
-16.323360 48.424683 -6.795486
-16.898046 48.435871 -6.300892
-17.582796 48.418976 -5.830171
-16.722870 48.440372 -6.489768
-16.795975 48.434391 -6.356069
-17.244204 48.419926 -6.021061
-16.671598 48.434486 -6.565649
-16.358414 48.427776 -6.686326
-17.455330 48.426296 -5.862156
-16.843813 48.428329 -6.353207
-16.372025 48.430561 -6.884469
-17.554140 48.415352 -5.754627
-17.142664 48.432205 -6.059834
-17.344007 48.415173 -5.975411
-16.307199 48.423576 -6.814681
-16.261883 48.431591 -6.812743
-16.304976 48.420010 -6.900139
-16.903229 48.431835 -6.356079
-17.419033 48.427097 -5.819132
-17.341717 48.436218 -5.892605
-17.284206 48.418655 -6.110134
-17.185637 48.427448 -6.107107
-16.872543 48.431698 -6.456254
-17.026457 48.431026 -6.232781
-16.954687 48.421921 -6.363070
-16.390205 48.438347 -6.643205
-17.103518 48.432987 -6.114409
-16.631832 48.431839 -6.631390
-16.923733 48.432419 -6.247707
-16.693703 48.426102 -6.564585
-17.133829 48.424313 -6.212797
-17.470205 48.415737 -5.926569
-16.762224 48.442818 -6.452193
-17.028023 48.440788 -6.122740
-17.645670 48.420067 -5.786867
-16.251650 48.440613 -6.838925
-16.369532 48.429592 -6.664067
-16.277334 48.434952 -6.745389
-17.487865 48.427109 -5.808616
-16.837084 48.450138 -6.263823
-16.340511 48.434879 -6.729126
-16.738209 48.445332 -6.318287
-17.165998 48.428669 -5.990934
-17.364614 48.433098 -5.837872
-16.781670 48.438683 -6.316664
-16.305174 48.426914 -6.813262
-17.470089 48.425339 -5.732815
-16.314646 48.440586 -6.641363
-17.264278 48.423954 -5.948062
-16.260511 48.432060 -6.851593
-16.258867 48.432121 -6.763732
-17.068899 48.441597 -6.027060
-16.823290 48.434277 -6.314351
-17.267048 48.446354 -5.867607
-17.195112 48.425552 -6.080271
-17.328432 48.434006 -5.792016
-17.104406 48.434525 -6.076824
-16.304424 48.420788 -6.771896
-16.800047 48.436470 -6.412053
-16.948025 48.435173 -6.193994
-16.883162 48.431255 -6.326866
-16.378633 48.432606 -6.642491
-17.022856 48.438091 -6.081948
-17.380819 48.421455 -5.900887
-17.050280 48.427914 -6.175932
-16.338970 48.447075 -6.594984
-16.641382 48.441456 -6.527898
-16.861643 48.443699 -6.212611
-16.959148 48.449627 -6.090842
-17.542667 48.426914 -5.768528
-16.396679 48.441723 -6.574775
-16.320196 48.437016 -6.617991
-17.399229 48.434528 -5.787978
-16.455376 48.445248 -6.556360
-16.295717 48.444824 -6.683314
-17.280867 48.439079 -5.815235
-17.099413 48.440102 -5.962748
-16.256605 48.433475 -6.762233
-17.193144 48.433746 -5.922484
-16.735867 48.457043 -6.286683
-17.388069 48.434132 -5.710330
-16.763956 48.445198 -6.280772
-17.111586 48.431782 -6.052010
-17.179266 48.446911 -5.841083
-16.990379 48.446495 -5.993956
-16.357487 48.437840 -6.667404
-16.385620 48.430511 -6.627701
-16.737604 48.443031 -6.371117
-17.034798 48.444286 -6.048480
-16.427988 48.440502 -6.435529
-16.262613 48.433235 -6.730546
-17.244074 48.440144 -5.767232
-16.884808 48.443466 -6.160873
-16.805243 48.433380 -6.287335
-17.304457 48.429714 -5.877191
-16.328453 48.439083 -6.597061
-16.949944 48.443260 -6.051900
-16.978973 48.434044 -6.143149
-16.874744 48.446167 -6.056519
-17.449039 48.434784 -5.749861
-16.441751 48.432404 -6.425725
-16.475641 48.449886 -6.380142
-17.315485 48.441387 -5.768213
-16.403736 48.451813 -6.512293
-16.473324 48.440029 -6.426366
-17.205761 48.446125 -5.792954
-16.528648 48.451324 -6.354352
-17.122519 48.441505 -5.896147
-17.022856 48.444626 -5.933248
-17.299728 48.437531 -5.688849
-17.039795 48.441692 -6.025728
-17.113701 48.456028 -5.817097
-16.337690 48.439537 -6.587413
-16.964808 48.451023 -6.021435
-16.920395 48.452347 -5.964037
-17.228607 48.435940 -5.852735
-16.831865 48.455536 -6.131102
-16.753994 48.448227 -6.259160
-16.920746 48.443642 -6.113802
-17.166731 48.445518 -5.742679
-16.451128 48.440746 -6.487211
-16.884222 48.449593 -6.023578
-17.371353 48.445877 -5.733308
-16.840376 48.467030 -6.032693
-16.407192 48.449558 -6.396130
-17.235844 48.446800 -5.748549
-17.135546 48.452614 -5.771543
-16.420630 48.445415 -6.388595
-17.053028 48.447075 -5.871193
-16.487406 48.465279 -6.322264
-16.537977 48.446056 -6.200690
-16.960888 48.453457 -5.907271
-17.226648 48.444260 -5.668753
-16.968235 48.447533 -6.000019
-17.049152 48.461967 -5.794454
-17.147110 48.436668 -5.830010
-16.885572 48.450798 -5.992393
-16.861460 48.450310 -6.085023
-16.404427 48.448555 -6.448330
-16.844584 48.467983 -6.000183
-17.098816 48.452850 -5.719252
-16.441603 48.441864 -6.394781
-17.283506 48.465023 -5.582940
-16.513935 48.455925 -6.286622
-17.282969 48.450108 -5.716131
-17.161203 48.452641 -5.729796
-17.074028 48.461105 -5.751942
-16.990723 48.453812 -5.847964
-16.493988 48.455185 -6.170444
-16.525877 48.447662 -6.171212
-16.563406 48.455372 -6.109766
-16.555603 48.449650 -6.257968
-17.154753 48.448853 -5.648628
-16.559626 48.443954 -6.172191
-17.085524 48.444229 -5.808961
-16.891920 48.448875 -5.973983
-16.984501 48.466911 -5.771778
-16.847340 48.469913 -5.971913
-17.209877 48.467670 -5.565510
-17.023796 48.453903 -5.696056
-17.200874 48.453629 -5.699870
-16.606798 48.457218 -6.075132
-17.097389 48.460285 -5.712212
-17.009995 48.465889 -5.731411
-17.209213 48.449238 -5.573137
-16.507725 48.455284 -6.225334
-17.019180 48.447292 -5.787583
-17.080238 48.449631 -5.630405
-16.511097 48.451447 -6.144564
-16.852844 48.467049 -5.954151
-16.939865 48.479683 -5.750818
-16.638700 48.456493 -6.035741
-16.547150 48.445034 -6.155408
-17.145725 48.472328 -5.547790
-17.119968 48.455017 -5.683581
-16.632338 48.457264 -5.942767
-17.031847 48.465107 -5.694468
-16.552767 48.459373 -6.044975
-16.961662 48.477966 -5.712423
-17.142765 48.453053 -5.557440
-16.504452 48.454777 -6.130912
-16.587696 48.461201 -6.008623
-16.629324 48.452705 -5.916192
-17.082144 48.475887 -5.530766
-17.059809 48.464176 -5.668322
-16.663372 48.459934 -5.851044
-16.979708 48.475498 -5.677413
-17.069998 48.451473 -5.542746
-16.624670 48.455700 -5.973438
-16.709066 48.460911 -5.807219
-16.629513 48.452633 -5.894155
-17.003973 48.473873 -5.653241
-16.741083 48.458572 -5.757821
-16.639233 48.457127 -5.881805
-16.730921 48.463741 -5.688270
-16.776491 48.462101 -5.612467
-16.693277 48.462570 -5.738580
-16.755810 48.466396 -5.657250
-16.836899 48.458893 -5.558335
-16.737194 48.459698 -5.694493
-16.789820 48.463711 -5.541266
-16.847748 48.462891 -5.484289
