# .PCD v0.7 - Point Cloud Data file format
VERSION 0.7
FIELDS x y z
SIZE 4 4 4
TYPE F F F
COUNT 1 1 1
WIDTH 15
HEIGHT 1
VIEWPOINT 0 0 0 1
POINTS 15
DATA ascii
-19.210030 44.538818 -5.342705
-19.219305 44.287601 -5.336585
-19.398787 44.448956 -5.358298
-19.253523 44.763191 -5.362892
-19.096827 44.746620 -5.364306
-19.414249 44.716927 -5.379902
-19.383842 44.580120 -5.359342
-19.298557 44.512283 -5.348065
-19.146919 44.492336 -5.357018
-19.427559 44.485245 -5.380663
-19.386864 44.351295 -5.371069
-19.115124 45.167896 -5.369551
-19.147970 44.936478 -5.384653
-19.345757 45.067425 -5.372417
-19.427153 44.789818 -5.389030
