# .PCD v0.7 - Point Cloud Data file format
VERSION 0.7
FIELDS x y z
SIZE 4 4 4
TYPE F F F
COUNT 1 1 1
WIDTH 11
HEIGHT 1
VIEWPOINT 0 0 0 1
POINTS 11
DATA ascii
-19.093527 44.657784 -5.381456
-19.350571 44.510063 -5.382006
-19.107632 44.574463 -5.390899
-19.078146 44.460735 -5.357994
-19.365833 44.420300 -5.395064
-19.125326 44.333939 -5.377759
-19.113646 44.949100 -5.373510
-19.086155 44.763222 -5.380037
-19.067734 44.544815 -5.383190
-19.163719 44.983410 -5.412399
-19.363213 44.595978 -5.380823
