# .PCD v0.7 - Point Cloud Data file format
VERSION 0.7
FIELDS x y z
SIZE 4 4 4
TYPE F F F
COUNT 1 1 1
WIDTH 37
HEIGHT 1
VIEWPOINT 0 0 0 1
POINTS 37
DATA ascii
-16.956707 45.379631 -4.513145
-16.979502 45.179829 -4.502030
-16.904078 44.579231 -4.471654
-17.007996 45.331577 -4.527889
-16.915216 44.272045 -4.453481
-17.004375 45.202797 -4.557523
-16.970228 44.515858 -4.498312
-17.018860 45.382858 -4.607633
-16.949732 44.328270 -4.534556
-17.063681 45.139030 -4.560360
-17.032005 44.473175 -4.534870
-16.948925 45.010597 -4.488004
-16.952726 44.737755 -4.489278
-17.034504 45.431900 -4.546435
-17.007441 44.974972 -4.509539
-16.889612 44.757572 -4.486213
-16.996435 45.422485 -4.527792
-16.986959 44.772934 -4.553542
-17.047773 45.474957 -4.610685
-16.979399 45.063709 -4.503132
-17.032404 45.031986 -4.584690
-16.957890 44.679188 -4.494227
-17.031359 45.419113 -4.563587
-17.104206 44.564175 -4.490194
-16.961882 45.147930 -4.498115
-17.000082 45.119884 -4.578430
-16.901215 44.680435 -4.477755
-17.005100 45.389156 -4.526924
-16.988806 44.727020 -4.567874
-17.050789 45.448334 -4.619676
-17.010782 45.117592 -4.521808
-17.122536 44.916706 -4.500983
-16.972284 44.597797 -4.488237
-17.022976 45.423004 -4.591147
-17.025856 45.174984 -4.597430
-16.996950 44.667110 -4.576867
-17.090446 45.346676 -4.580880
