# .PCD v0.7 - Point Cloud Data file format
VERSION 0.7
FIELDS x y z
SIZE 4 4 4
TYPE F F F
COUNT 1 1 1
WIDTH 50
HEIGHT 1
VIEWPOINT 0 0 0 1
POINTS 50
DATA ascii
-1.374888 5.293772 1.003809
-1.332899 5.303576 0.914732
-1.404507 5.241863 1.088271
-1.348531 5.259357 0.982200
-1.399025 5.479859 1.011595
-1.426607 5.191417 1.167821
-1.353336 5.484205 0.919415
-1.231766 5.482768 0.565656
-0.895588 5.058865 0.268410
-1.179759 5.470399 0.479719
-1.428578 5.409883 1.099447
-1.369708 5.250260 1.035548
-1.001566 5.485270 0.041084
-1.198148 5.378137 0.546182
-1.368180 5.428526 0.990520
-1.447032 5.341313 1.181942
-1.268023 5.461178 0.648077
-0.874924 4.975291 0.267432
-1.260256 5.722267 0.545721
-1.210577 5.308598 0.596308
-0.939391 5.352108 0.195527
-1.099269 5.490826 0.198659
-1.202839 5.706786 0.454303
-1.394595 5.264543 1.093506
-1.390951 5.413376 1.047736
-1.286940 5.426238 0.728191
-1.195251 5.536614 0.539586
-1.021630 5.762707 -0.027309
-1.471054 5.509135 1.198015
-1.224919 5.260302 0.645632
-1.281282 5.653683 0.638856
-0.974273 5.388119 0.144925
-0.924538 5.094414 0.274090
-1.318680 5.384238 0.805293
-1.227741 5.496111 0.585703
-0.966490 5.355820 0.275566
-1.124179 5.512542 0.277740
-1.416178 5.425102 1.110094
-0.975638 5.569485 -0.145110
-1.236959 5.425760 0.641486
-1.042246 5.772480 0.043100
-0.941125 5.301194 0.233581
-1.333494 5.553559 0.802957
-1.073186 5.446160 0.209733
-1.163979 5.536948 0.351343
-1.147698 5.759677 0.233543
-0.967184 5.774212 -0.195320
-0.826848 5.296467 -0.048354
-0.948554 5.314693 0.288076
-1.183666 5.761127 0.316851
