# .PCD v0.7 - Point Cloud Data file format
VERSION 0.7
FIELDS x y z
SIZE 4 4 4
TYPE F F F
COUNT 1 1 1
WIDTH 237
HEIGHT 1
VIEWPOINT 0 0 0 1
POINTS 237
DATA ascii
2.659471 -1.445018 1.615191
2.590711 -1.443016 1.798286
2.523205 -1.438909 2.170378
2.542409 -1.454210 1.567360
2.746371 -1.447910 1.548082
2.489657 -1.460186 1.747438
2.423427 -1.435956 2.343516
2.421132 -1.450084 2.112528
2.437358 -1.464381 1.525513
2.614629 -1.441988 1.751262
2.624315 -1.460109 1.501260
2.371565 -1.462387 1.684604
2.531367 -1.425798 2.317369
2.337369 -1.456106 2.286649
2.294881 -1.432948 2.690695
2.331078 -1.464236 2.063663
2.333302 -1.471550 1.483664
2.514005 -1.447978 2.029407
2.232054 -1.421959 2.834776
2.506572 -1.458168 1.699423
2.504255 -1.468304 1.455432
2.687176 -1.444044 1.424172
2.667540 -1.434921 1.703194
2.274506 -1.474549 1.635748
2.430292 -1.440974 2.253520
2.232263 -1.460294 2.211799
2.196771 -1.437128 2.612835
2.243020 -1.476385 2.015794
2.602861 -1.433880 1.945284
2.384702 -1.436869 2.563581
2.346963 -1.419809 2.775624
2.409941 -1.460153 1.975560
2.144961 -1.434121 2.758905
2.397506 -1.467351 1.647581
2.391200 -1.475488 1.413594
2.541461 -1.442133 1.644372
2.571139 -1.461231 1.385342
2.183453 -1.485702 1.590881
2.346248 -1.462120 2.203648
2.111690 -1.445282 2.549957
2.143188 -1.471454 2.150928
2.155962 -1.485534 1.968919
2.466513 -1.428807 2.438468
2.745473 -1.437814 1.660094
2.288625 -1.449042 2.498720
2.480783 -1.443089 1.884456
2.260891 -1.436967 2.709751
2.465157 -1.437957 2.166475
2.308877 -1.470326 1.923704
2.058860 -1.442286 2.682028
2.291438 -1.474530 1.596730
2.396770 -1.417796 2.643557
2.294161 -1.487644 1.378733
2.437415 -1.458306 1.599524
2.453089 -1.471422 1.344510
2.092393 -1.493856 1.545011
2.243157 -1.469304 2.135794
2.032615 -1.454427 2.491071
2.054107 -1.478613 2.090055
2.061882 -1.486697 1.915049
2.055154 -1.490002 1.375059
2.196547 -1.459207 2.436852
2.368449 -1.445979 2.379612
2.629426 -1.456005 1.613263
2.161780 -1.442153 2.628890
2.387750 -1.464243 1.843596
2.367095 -1.453128 2.110618
2.217826 -1.483480 1.878836
2.321975 -1.425823 2.790665
1.986796 -1.458418 2.624136
2.568660 -1.442991 1.802339
2.207404 -1.491668 1.559855
2.314724 -1.440941 2.590683
2.198120 -1.497799 1.344871
2.341375 -1.474464 1.559665
1.983289 -1.484043 1.486155
1.950530 -1.458576 2.430186
2.517037 -1.440911 2.085409
2.151083 -1.478466 2.077925
2.347050 -1.483592 1.309662
1.979820 -1.491837 1.870165
1.980058 -1.493741 2.044166
1.978123 -1.500124 1.348171
2.091430 -1.457399 2.359995
2.259353 -1.452174 2.308765
2.510365 -1.466203 1.564432
2.071681 -1.448321 2.556017
2.485934 -1.457408 1.256460
2.122759 -1.489641 1.829970
2.276040 -1.469284 2.059752
2.281683 -1.473423 1.791746
2.216863 -1.432018 2.708812
1.907706 -1.465567 2.556249
2.106330 -1.492839 1.510994
2.437264 -1.444934 2.253521
2.455606 -1.459180 1.751503
2.175965 -1.422030 2.796863
2.203598 -1.441148 2.504836
2.093054 -1.495970 1.305014
2.019965 -1.446278 2.771088
1.881473 -1.468698 2.383287
2.239317 -1.482633 1.514809
1.906248 -1.495169 1.451267
2.062010 -1.485622 2.023052
2.417987 -1.459079 2.035555
2.235993 -1.487771 1.270816
1.899758 -1.495973 1.827277
2.379562 -1.444895 2.476600
1.897983 -1.499886 1.989282
2.351720 -1.436867 2.602634
2.010364 -1.467542 2.307113
1.990603 -1.458470 2.494135
2.172297 -1.467325 2.257894
2.400314 -1.478384 1.520590
2.029690 -1.492799 1.782100
2.181973 -1.479447 2.005887
2.121767 -1.439193 2.636947
2.186633 -1.485580 1.748884
2.372897 -1.470587 1.222623
1.825602 -1.467722 2.484364
2.316860 -1.437860 2.707682
1.991221 -1.480035 1.452145
2.091889 -1.435184 2.732986
2.114522 -1.452308 2.442964
2.333197 -1.460114 2.194672
2.350560 -1.475353 1.707657
2.013027 -1.508095 1.279131
1.815422 -1.479813 2.340384
1.942890 -1.456419 2.711200
2.125228 -1.477825 1.461963
1.980947 -1.494763 1.974168
1.812671 -1.491124 1.775394
2.321934 -1.475243 1.985696
2.135950 -1.495930 1.237959
2.278479 -1.455075 2.410744
1.797854 -1.487069 1.915413
1.932302 -1.476679 2.258225
2.241616 -1.444067 2.525789
1.912526 -1.466611 2.435247
2.067192 -1.467512 2.188038
1.948642 -1.501933 1.744217
2.080882 -1.480624 1.945026
2.029673 -1.445361 2.568077
2.095582 -1.495731 1.707014
1.759540 -1.479841 2.432462
2.208750 -1.443058 2.627833
2.257848 -1.477770 1.185784
1.917189 -1.493154 1.421255
2.009814 -1.446333 2.672105
2.027442 -1.460464 2.382089
1.750367 -1.488927 2.296480
2.226115 -1.468300 2.132824
1.869821 -1.466551 2.656306
2.243500 -1.485531 1.660809
1.890861 -1.494921 1.917293
2.034176 -1.484974 1.423092
2.223870 -1.485409 1.934836
2.051924 -1.509061 1.212082
2.173378 -1.459264 2.338891
1.859250 -1.487804 2.214333
1.835449 -1.473750 2.377357
2.153556 -1.460221 2.470919
1.854555 -1.497094 1.692344
1.985138 -1.479652 2.142158
1.999830 -1.491762 1.901144
1.945595 -1.453512 2.508198
1.696484 -1.491954 2.384556
1.985484 -1.488919 1.650162
2.105641 -1.446247 2.550977
2.149798 -1.482941 1.151936
1.933747 -1.458470 2.616217
1.945366 -1.467610 2.325206
1.687315 -1.497037 2.255572
1.794740 -1.471688 2.597413
2.124040 -1.476476 2.075969
2.144449 -1.495693 1.618951
1.800764 -1.490080 1.858414
1.960150 -1.499092 1.395203
2.127801 -1.491573 1.883972
2.076290 -1.464436 2.276027
1.793210 -1.500915 2.177431
1.768394 -1.484868 2.331456
2.046442 -1.459414 2.395066
1.909750 -1.492917 1.848269
1.906083 -1.489787 2.097273
2.090143 -1.496891 1.396026
1.626401 -1.495083 2.326654
1.871536 -1.465643 2.458307
1.892416 -1.490073 1.606291
2.022575 -1.458393 2.496098
1.854667 -1.464612 2.557329
1.869302 -1.476744 2.275316
1.721658 -1.475822 2.539516
1.710756 -1.467794 2.620526
2.049757 -1.489098 1.122077
2.032977 -1.486631 2.026100
2.043386 -1.500859 1.575093
2.033731 -1.496733 1.834104
1.997239 -1.477571 2.231144
1.716135 -1.502050 2.127538
1.704343 -1.495980 2.288551
1.813648 -1.485085 1.789397
1.963381 -1.471558 2.344187
1.821007 -1.491934 2.046391
2.000094 -1.503036 1.361153
1.798478 -1.475769 2.411413
1.931483 -1.461557 2.432226
1.793234 -1.482877 2.225424
1.777586 -1.469752 2.499439
1.654591 -1.481942 2.489612
1.643683 -1.473916 2.566622
1.943915 -1.494781 1.979227
1.938652 -1.496894 1.783235
1.935300 -1.496039 1.525239
1.913168 -1.483717 2.179263
1.627247 -1.493120 2.227656
1.739934 -1.494073 1.997504
1.875298 -1.475713 2.286311
1.729423 -1.485888 2.367514
1.729193 -1.495985 2.187521
1.704511 -1.474882 2.445543
1.591531 -1.489053 2.444704
1.858434 -1.474682 2.388334
1.582625 -1.483024 2.520713
1.860859 -1.502920 1.936346
1.848574 -1.495047 1.735358
1.844132 -1.498832 2.143367
1.659361 -1.492010 2.321615
1.798244 -1.485844 2.242423
1.645474 -1.487982 2.410632
1.780364 -1.480818 2.337445
1.759750 -1.493096 1.874480
1.766065 -1.502966 2.096478
1.728200 -1.497961 2.204527
1.576403 -1.491103 2.361729
1.710312 -1.489937 2.296547
1.643264 -1.499053 2.257643
