# .PCD v0.7 - Point Cloud Data file format
VERSION 0.7
FIELDS x y z
SIZE 4 4 4
TYPE F F F
COUNT 1 1 1
WIDTH 590
HEIGHT 1
VIEWPOINT 0 0 0 1
POINTS 590
DATA ascii
1.803395 -1.525666 1.120706
1.784408 -1.526728 1.133721
1.768408 -1.532800 1.105737
1.731395 -1.531940 1.095765
1.710399 -1.531011 1.105781
1.691600 -1.520914 1.429790
1.699539 -1.534963 1.277791
1.701416 -1.540053 1.085793
1.673640 -1.522956 1.474805
1.678575 -1.530001 1.352805
1.645639 -1.517042 1.505823
1.643675 -1.520032 1.539827
1.655636 -1.532045 1.427824
1.664410 -1.541193 1.074822
1.631658 -1.523095 1.501837
1.645415 -1.541258 1.082837
1.617754 -1.519068 1.653846
1.631634 -1.535141 1.410844
1.632401 -1.541314 1.064847
1.614241 -1.526453 0.921852
1.627549 -1.543234 1.255851
1.631407 -1.548331 1.038851
1.608646 -1.531205 1.447860
1.607572 -1.535270 1.327863
1.580678 -1.528276 1.508880
1.590679 -1.533252 1.484875
1.562831 -1.515203 1.780886
1.590642 -1.539292 1.404878
1.589379 -1.539479 1.047879
1.571666 -1.531324 1.477888
1.537843 -1.506262 1.842901
1.574396 -1.542528 1.056892
1.560609 -1.535413 1.381899
1.552769 -1.529316 1.628902
1.565395 -1.544566 1.045901
1.547252 -1.533703 0.906908
1.569424 -1.557564 1.021904
1.530803 -1.520349 1.720914
1.517872 -1.502303 1.903915
1.555546 -1.548507 1.232910
1.533598 -1.526496 1.411915
1.537557 -1.537537 1.301918
1.522656 -1.534513 1.451928
1.511889 -1.523363 1.823930
1.502834 -1.522432 1.753937
1.518683 -1.536514 1.478932
1.522619 -1.539551 1.376931
1.527392 -1.547711 1.028932
1.511664 -1.536552 1.452938
1.490937 -1.516387 1.924943
1.485879 -1.521458 1.820950
1.506383 -1.544785 1.031947
1.498617 -1.542646 1.359952
1.465003 -1.509417 2.048960
1.503394 -1.548797 1.027952
1.481752 -1.531585 1.597959
1.462932 -1.513483 1.932964
1.483262 -1.539938 0.892963
1.466903 -1.516495 1.878963
1.494387 -1.552844 0.997961
1.458043 -1.514426 2.078969
1.467799 -1.525587 1.691967
1.479634 -1.540696 1.393966
1.488552 -1.554755 1.212967
1.457982 -1.524492 1.946975
1.471553 -1.541783 1.278973
1.436048 -1.505478 2.130981
1.430058 -1.505492 2.143986
1.447870 -1.525607 1.789984
1.457640 -1.536759 1.421982
1.444844 -1.530649 1.729989
1.455673 -1.540753 1.447986
1.451651 -1.538778 1.427988
1.433927 -1.520605 1.891992
1.457606 -1.541795 1.350986
1.467407 -1.555933 1.010986
1.423865 -1.524694 1.788003
1.448397 -1.553000 1.012999
1.445401 -1.554011 1.013002
1.434609 -1.545885 1.336006
1.401116 -1.502545 2.239009
1.408012 -1.517631 2.023012
1.385161 -1.497559 2.325019
1.402921 -1.518714 1.894017
1.418759 -1.538820 1.575015
1.409909 -1.524711 1.849015
1.435399 -1.560062 0.982014
1.419262 -1.543174 0.879017
1.394013 -1.514672 2.039021
1.409814 -1.534803 1.670020
1.416621 -1.542933 1.368019
1.397129 -1.516584 2.187021
1.421547 -1.558004 1.193024
1.387941 -1.521760 1.907031
1.384079 -1.518670 2.110032
1.405535 -1.542030 1.256028
1.376064 -1.513697 2.115036
1.394885 -1.534806 1.767033
1.400646 -1.543973 1.398034
1.380927 -1.526806 1.864039
1.391869 -1.541845 1.711039
1.370173 -1.516649 2.248042
1.394648 -1.542992 1.405038
1.389636 -1.538006 1.413039
1.402621 -1.549999 1.334036
1.409414 -1.562148 0.993037
1.396370 -1.559219 0.948045
1.370879 -1.533893 1.764052
1.355222 -1.517669 2.310056
1.394420 -1.563200 0.997050
1.347228 -1.505664 2.378055
1.392423 -1.563205 1.000051
1.375608 -1.550104 1.316057
1.353148 -1.516726 2.214057
1.351008 -1.522846 1.994062
1.345226 -1.519706 2.306065
1.354956 -1.533895 1.869065
1.353904 -1.529925 1.818064
1.355750 -1.542056 1.549069
1.374396 -1.563288 0.964066
1.338094 -1.515814 2.146069
1.335003 -1.518896 2.008073
1.362285 -1.552381 0.868070
1.362639 -1.552133 1.349069
1.375366 -1.561300 0.934065
1.347799 -1.537037 1.641073
1.334970 -1.533955 1.889082
1.330098 -1.528871 2.088083
1.344534 -1.546255 1.237081
1.345492 -1.549289 1.165082
1.320057 -1.518910 2.082085
1.324903 -1.527021 1.832086
1.343663 -1.551180 1.388085
1.340896 -1.543007 1.744083
1.344650 -1.550183 1.375084
1.316172 -1.522854 2.218091
1.320796 -1.531120 1.668092
1.340676 -1.553187 1.395088
1.348637 -1.558198 1.317085
1.346398 -1.562383 0.973089
1.343406 -1.571411 0.939096
1.301199 -1.519880 2.270102
1.321912 -1.547074 1.746100
1.335418 -1.565416 0.985100
1.304277 -1.522821 2.361101
1.329394 -1.561444 0.973102
1.295111 -1.515953 2.170105
1.316597 -1.552325 1.294107
1.295001 -1.527058 1.966111
1.290204 -1.522922 2.262112
1.295930 -1.535123 1.830115
1.301912 -1.538121 1.791112
1.293134 -1.530980 2.128115
1.315395 -1.566506 0.949117
1.282009 -1.526095 1.982121
1.324394 -1.571486 0.924113
1.302620 -1.552358 1.325119
1.301785 -1.555253 1.535122
1.310326 -1.565569 0.861120
1.294822 -1.547232 1.624123
1.268053 -1.524108 2.053131
1.266050 -1.524118 2.048133
1.271941 -1.533195 1.856133
1.291560 -1.556449 1.224131
1.294680 -1.559362 1.372130
1.285494 -1.553510 1.149134
1.275833 -1.534258 1.705131
1.257139 -1.522082 2.179139
1.272830 -1.543295 1.655139
1.284629 -1.550411 1.347134
1.254343 -1.519943 2.467141
1.286611 -1.556431 1.293136
1.275631 -1.548436 1.361139
1.291403 -1.567586 0.957138
1.253202 -1.527063 2.240146
1.284397 -1.572628 0.924146
1.256849 -1.538325 1.706149
1.286446 -1.575595 0.975147
1.249250 -1.524035 2.321147
1.245118 -1.524143 2.141151
1.275403 -1.567644 0.957151
1.259590 -1.554537 1.275156
1.245018 -1.536243 1.947158
1.240203 -1.530115 2.227159
1.238854 -1.531366 1.749160
1.239914 -1.538339 1.795163
1.238107 -1.531191 2.093161
1.257388 -1.568721 0.932167
1.233034 -1.537276 1.963168
1.246614 -1.555568 1.303168
1.269407 -1.577687 0.913162
1.235796 -1.546456 1.596171
1.240771 -1.556481 1.512173
1.223092 -1.538273 2.037177
1.234636 -1.553589 1.344177
1.220095 -1.539284 2.037180
1.235561 -1.560657 1.207180
1.227856 -1.544436 1.687177
1.207145 -1.529269 2.154185
1.208352 -1.529120 2.435184
1.221840 -1.550484 1.636185
1.235651 -1.560592 1.330180
1.234537 -1.567694 1.140185
1.228582 -1.553648 1.271182
1.220618 -1.550644 1.335187
1.202173 -1.527262 2.202189
1.233392 -1.568802 0.939187
1.232438 -1.576794 0.961192
1.203840 -1.541525 1.680195
1.198234 -1.527232 2.286192
1.226389 -1.573842 0.910195
1.197125 -1.532325 2.113196
1.220403 -1.571848 0.939199
1.205586 -1.557737 1.257203
1.187178 -1.532323 2.185204
1.191874 -1.541542 1.728206
1.189114 -1.538376 2.068206
1.199976 -1.558484 1.782209
1.196623 -1.561753 1.287213
1.207408 -1.576904 0.921213
1.215411 -1.581885 0.901210
1.170860 -1.533607 1.748218
1.182803 -1.552652 1.577219
1.181616 -1.552788 1.323221
1.186787 -1.564679 1.496223
1.178867 -1.551618 1.669223
1.184580 -1.568843 1.195228
1.155308 -1.527330 2.387228
1.172848 -1.556665 1.619230
1.177616 -1.556811 1.304227
1.156173 -1.533437 2.174231
1.179601 -1.561828 1.258228
1.170632 -1.558831 1.315233
1.181565 -1.577887 1.130235
1.175279 -1.571093 0.777236
1.184416 -1.577981 0.928234
1.146206 -1.527434 2.249236
1.172393 -1.569018 0.942238
1.157863 -1.551695 1.664240
1.179427 -1.586012 0.903242
1.155168 -1.547479 2.098240
1.170417 -1.579033 0.925246
1.157610 -1.566912 1.246249
1.141189 -1.541499 2.156249
1.144891 -1.550718 1.707251
1.137905 -1.548728 1.736255
1.147640 -1.569934 1.272259
1.155412 -1.581094 0.909259
1.164421 -1.587071 0.891256
1.134924 -1.552734 1.743260
1.139648 -1.563941 1.313263
1.129794 -1.554850 1.556265
1.125843 -1.550818 1.643267
1.104268 -1.525532 2.344270
1.126753 -1.560905 1.471272
1.119222 -1.549572 2.162272
1.119831 -1.556864 1.597275
1.134600 -1.577025 1.184275
1.128632 -1.564993 1.287273
1.135641 -1.574987 1.250273
1.118625 -1.562026 1.293279
1.131440 -1.583165 0.937281
1.098194 -1.530617 2.219278
1.133419 -1.582169 0.914279
1.126569 -1.582088 1.117284
1.105843 -1.551891 1.639284
1.117270 -1.571305 0.767285
1.126424 -1.588206 0.891288
1.085021 -1.521763 2.029284
1.114651 -1.580067 1.239293
1.118423 -1.584225 0.910293
1.099225 -1.555654 2.137292
1.093878 -1.552911 1.681295
1.087897 -1.552918 1.708300
1.087914 -1.554912 1.720301
1.094620 -1.569131 1.253304
1.113423 -1.590257 0.881301
1.104420 -1.586281 0.897306
1.093658 -1.570111 1.299305
1.067027 -1.539868 1.948310
1.062272 -1.532693 2.316310
1.082820 -1.565021 1.544311
1.056094 -1.527828 2.099312
1.077847 -1.555997 1.625311
1.063069 -1.547872 1.966318
1.078785 -1.572078 1.462319
1.072845 -1.564037 1.582319
1.051083 -1.531864 2.064318
1.080636 -1.570171 1.270317
1.085640 -1.578171 1.235317
1.080595 -1.579224 1.169322
1.056929 -1.548995 1.771324
1.052188 -1.534792 2.192320
1.085457 -1.590332 0.928324
1.073658 -1.574191 1.279325
1.083423 -1.586353 0.901324
1.061873 -1.563052 1.626328
1.049084 -1.540891 2.022326
1.069549 -1.580298 1.102331
1.071402 -1.585409 0.878333
1.067297 -1.580485 0.761333
1.036106 -1.536912 2.072334
1.066663 -1.586243 1.227338
1.036961 -1.542025 1.850336
1.064402 -1.582426 0.893337
1.041068 -1.543939 1.985335
1.047880 -1.558083 1.661337
1.041904 -1.557085 1.698341
1.044928 -1.565077 1.692344
1.046627 -1.574309 1.238347
1.063426 -1.593439 0.872345
1.044644 -1.570293 1.281347
1.054422 -1.589465 0.886350
1.032030 -1.556027 1.875349
1.027070 -1.554012 1.939352
1.024314 -1.547832 2.300351
1.017116 -1.537973 2.081351
1.028791 -1.562224 1.521355
1.029838 -1.558176 1.605353
1.053429 -1.604501 0.822360
1.027860 -1.571201 1.570362
1.015074 -1.553049 1.949362
1.011127 -1.546007 2.056361
1.034622 -1.577361 1.218360
1.030628 -1.572358 1.251360
1.019736 -1.564300 1.437364
1.030591 -1.581408 1.156365
1.036443 -1.589512 0.916365
1.006178 -1.537967 2.165361
1.024657 -1.578374 1.260369
1.010961 -1.560161 1.762370
1.014869 -1.566228 1.607370
1.026382 -1.579566 0.883368
1.005089 -1.547057 2.000367
1.022409 -1.589587 0.869377
1.017554 -1.584488 1.091378
1.012620 -1.579446 1.206380
1.001031 -1.561148 1.852379
0.992112 -1.544078 2.047376
0.994052 -1.545117 1.960376
1.014393 -1.583611 0.878381
1.000921 -1.565237 1.683381
1.000882 -1.563259 1.640381
1.000648 -1.574455 1.268387
0.992896 -1.563277 1.660387
0.996605 -1.572495 1.220389
1.016437 -1.598610 0.864388
1.008440 -1.596632 0.877393
0.972240 -1.538041 2.250390
0.984025 -1.559206 1.855392
0.978139 -1.548118 2.064391
0.981064 -1.557184 1.918393
0.988871 -1.569324 1.596394
0.979785 -1.564405 1.505399
1.003433 -1.607682 0.814404
0.975819 -1.565398 1.546403
0.966130 -1.551174 2.037403
0.984606 -1.576546 1.202402
0.967070 -1.556226 1.931405
0.981614 -1.572541 1.233402
0.990450 -1.593680 0.907407
0.959155 -1.538147 2.136401
0.978576 -1.580600 1.142409
0.970744 -1.569479 1.425409
0.968865 -1.569399 1.589411
0.974636 -1.577563 1.238411
0.988444 -1.597701 0.879412
0.959080 -1.550231 1.974409
0.961963 -1.564341 1.746414
0.980444 -1.600738 0.864420
0.963605 -1.578626 1.192421
0.949118 -1.551241 2.022417
0.955029 -1.564318 1.836420
0.955087 -1.557257 1.950416
0.958926 -1.570393 1.667420
0.968572 -1.591665 1.083424
0.974446 -1.599755 0.872424
0.957894 -1.570419 1.623422
0.954639 -1.575626 1.253427
0.947897 -1.568447 1.638429
0.951617 -1.578660 1.208431
0.935123 -1.549282 2.038428
0.969445 -1.602781 0.856431
0.934266 -1.549183 2.232429
0.962446 -1.600800 0.868435
0.940040 -1.566367 1.842434
0.936060 -1.560352 1.898434
0.945881 -1.575483 1.582435
0.933789 -1.568574 1.492441
0.931823 -1.569559 1.533443
0.950409 -1.603877 0.803447
0.920116 -1.552347 2.015443
0.945445 -1.594845 0.897446
0.939615 -1.581710 1.192444
0.922073 -1.560391 1.917446
0.918166 -1.545299 2.117441
0.936621 -1.577707 1.219444
0.924867 -1.573562 1.573451
0.931585 -1.585771 1.132453
0.920741 -1.571662 1.412454
0.928641 -1.582734 1.222454
0.916082 -1.555392 1.954449
0.940437 -1.598878 0.867453
0.915975 -1.570508 1.735457
0.934452 -1.604905 0.857461
0.920619 -1.584783 1.183462
0.912036 -1.569475 1.823460
0.915923 -1.573553 1.649459
0.912091 -1.562417 1.932456
0.907131 -1.559399 2.001458
0.924430 -1.598940 0.858467
0.912889 -1.573587 1.604462
0.919575 -1.594843 1.074468
0.916674 -1.586762 1.247466
0.897144 -1.558422 2.023466
0.893260 -1.553339 2.206467
0.910646 -1.588809 1.200472
0.903908 -1.575611 1.619471
0.923448 -1.605948 0.848472
0.916457 -1.605967 0.860478
0.893060 -1.564512 1.880473
0.891006 -1.562553 1.817474
0.901884 -1.579645 1.568475
0.885806 -1.568730 1.516482
0.887789 -1.571742 1.479482
0.902461 -1.601001 0.890487
0.875103 -1.553515 1.994482
0.877174 -1.551452 2.099480
0.898642 -1.590858 1.185485
0.905434 -1.612038 0.799491
0.893636 -1.584865 1.207485
0.877077 -1.564555 1.904487
0.876839 -1.570743 1.552490
0.888609 -1.593926 1.126494
0.876103 -1.564540 1.939488
0.885663 -1.591892 1.209495
0.892427 -1.599055 0.855494
0.871737 -1.573842 1.399496
0.872908 -1.573715 1.630495
0.868966 -1.571682 1.719497
0.889468 -1.611068 0.851503
0.868074 -1.562584 1.910493
0.868036 -1.572638 1.809499
0.863113 -1.560569 1.972496
0.878647 -1.593934 1.177502
0.870645 -1.582935 1.230502
0.882460 -1.609093 0.850507
0.864863 -1.571770 1.580501
0.854119 -1.557589 1.996501
0.852256 -1.557497 2.181503
0.865537 -1.588044 1.059509
0.866651 -1.592971 1.188511
0.854872 -1.571800 1.591509
0.851071 -1.570667 1.867511
0.849023 -1.569707 1.806512
0.851832 -1.570836 1.543511
0.843817 -1.573884 1.507519
0.844808 -1.578900 1.470521
0.834111 -1.558669 1.980518
0.836173 -1.555608 2.079515
0.855653 -1.596016 1.177522
0.852661 -1.594016 1.197523
0.833082 -1.568719 1.891525
0.834843 -1.574900 1.538527
0.831080 -1.563714 1.913524
0.841604 -1.595099 1.115532
0.830893 -1.573875 1.611529
0.842678 -1.599052 1.196534
0.828098 -1.571732 1.899531
0.831792 -1.588983 1.400537
0.823019 -1.571807 1.792534
0.835650 -1.597092 1.168538
0.822127 -1.568725 1.953533
0.824986 -1.578842 1.712537
0.832673 -1.592074 1.223538
0.816128 -1.563733 1.979536
0.820848 -1.571938 1.560537
0.815280 -1.567637 2.165538
0.823653 -1.596130 1.177547
0.828625 -1.611172 1.064552
0.812875 -1.576960 1.572546
0.811080 -1.575817 1.854546
0.810063 -1.581848 1.802551
0.810845 -1.576988 1.532547
0.804840 -1.582027 1.500555
0.795174 -1.559764 2.061550
0.792114 -1.562826 1.965554
0.801814 -1.583059 1.460558
0.813665 -1.601170 1.169559
0.809662 -1.597176 1.185560
0.794120 -1.579859 1.889562
0.793853 -1.580052 1.527562
0.792099 -1.571860 1.900560
0.789885 -1.575030 1.595563
0.800638 -1.605247 1.112571
0.796669 -1.600225 1.180572
0.785079 -1.570897 1.878565
0.777986 -1.566979 1.772568
0.794666 -1.603242 1.161575
0.792680 -1.596221 1.214573
0.779151 -1.572871 1.966571
0.782765 -1.585167 1.384574
0.772926 -1.568043 1.686573
0.772255 -1.566806 2.136573
0.778851 -1.576096 1.545573
0.782668 -1.602281 1.169584
0.768867 -1.579127 1.552582
0.767834 -1.577150 1.517582
0.757983 -1.567052 1.769584
0.762839 -1.584183 1.489590
0.754167 -1.561920 2.042585
0.754151 -1.573963 1.961591
0.772677 -1.606320 1.161595
0.758825 -1.588217 1.451596
0.764651 -1.597344 1.170596
0.751845 -1.581210 1.512597
0.749880 -1.577181 1.580597
0.750087 -1.573020 1.880594
0.754704 -1.604360 1.208608
0.732952 -1.562150 1.752602
0.743171 -1.581006 1.954605
0.729930 -1.571201 1.677609
0.739791 -1.593322 1.380614
0.739872 -1.584240 1.534609
0.728886 -1.587277 1.539619
0.730866 -1.587284 1.512618
0.713955 -1.563219 1.751618
0.722847 -1.588329 1.481625
0.713145 -1.561079 2.019618
0.716179 -1.583102 1.955627
0.717842 -1.594366 1.445632
0.714907 -1.586309 1.573630
0.711856 -1.586357 1.503633
0.694970 -1.568288 1.747636
0.700889 -1.591384 1.524645
0.686929 -1.573359 1.667646
0.699835 -1.605464 1.381653
0.682018 -1.571308 1.797648
0.691882 -1.593427 1.505653
0.687896 -1.593431 1.524656
0.684865 -1.594467 1.476659
0.674971 -1.569361 1.744653
0.677168 -1.569211 2.011652
0.665058 -1.559308 1.911656
0.676913 -1.590450 1.562663
0.679885 -1.606502 1.444670
0.674888 -1.596491 1.498668
0.666034 -1.568345 1.834660
0.664057 -1.575353 1.831666
0.659015 -1.580415 1.749672
0.652188 -1.565276 2.058670
0.659886 -1.593538 1.510679
0.647961 -1.582498 1.667682
0.642002 -1.570459 1.782681
0.653899 -1.599565 1.499688
0.645887 -1.594590 1.507691
0.637001 -1.578499 1.740689
0.635131 -1.564375 1.986683
0.629101 -1.571436 1.911692
0.626029 -1.570496 1.819694
0.623094 -1.574470 1.887699
0.622014 -1.568516 1.808696
0.617993 -1.577569 1.735704
0.614189 -1.569421 2.040703
0.614060 -1.575529 1.836706
0.604001 -1.572600 1.771713
0.610008 -1.594631 1.671720
0.600164 -1.574501 1.982718
0.600028 -1.586631 1.738724
0.594137 -1.581561 1.911726
0.590135 -1.586590 1.883732
0.590057 -1.579627 1.812729
0.584012 -1.570658 1.796728
0.583084 -1.582641 1.834736
0.583022 -1.585693 1.736737
0.579205 -1.576552 2.028736
0.578095 -1.586661 1.829742
0.568036 -1.582729 1.770748
0.563178 -1.580638 1.972751
0.554114 -1.578712 1.895757
0.555140 -1.590721 1.871763
0.555085 -1.588755 1.806762
0.552088 -1.589767 1.805765
0.546119 -1.591771 1.837771
0.543217 -1.582687 2.015769
0.540102 -1.591804 1.815776
0.526171 -1.581778 1.958782
0.518152 -1.588839 1.897792
0.508225 -1.587819 2.002800
0.491193 -1.588905 1.953815
