# .PCD v0.7 - Point Cloud Data file format
VERSION 0.7
FIELDS x y z
SIZE 4 4 4
TYPE F F F
COUNT 1 1 1
WIDTH 13
HEIGHT 1
VIEWPOINT 0 0 0 1
POINTS 13
DATA ascii
-0.043275 8.639834 2.788337
-0.062851 8.713762 2.783697
-0.043331 8.839071 2.782038
-0.002317 8.670885 2.808547
0.061053 8.746067 2.818171
0.020728 8.838308 2.818793
0.125244 8.672677 2.835642
0.084545 8.810455 2.845840
0.149972 8.725642 2.849733
0.185760 8.649630 2.873384
0.212636 8.680950 2.870485
0.273668 8.681965 2.911000
0.392097 8.811420 2.955917
