# .PCD v0.7 - Point Cloud Data file format
VERSION 0.7
FIELDS x y z
SIZE 4 4 4
TYPE F F F
COUNT 1 1 1
WIDTH 372
HEIGHT 1
VIEWPOINT 0 0 0 1
POINTS 372
DATA ascii
2.311640 12.220628 0.982229
2.310606 12.228741 0.993903
2.348716 12.200278 0.929341
2.331728 12.249310 0.941884
2.237427 12.279405 1.202973
2.253814 12.261113 1.178099
2.285286 12.253407 1.080817
2.307809 12.112184 1.023552
2.305398 12.116848 1.032354
2.253194 12.292190 1.184605
2.337034 12.083585 0.970029
2.140429 12.331594 1.477844
2.314764 12.252455 0.973961
2.349266 12.126332 0.933198
2.322402 12.132629 0.984914
2.244572 12.181102 1.236210
2.180651 12.339537 1.385797
2.251487 12.154979 1.214477
2.345917 12.093613 0.832120
2.264170 12.301247 1.147567
2.335587 12.145770 0.921258
2.206140 12.341679 1.281653
2.117274 12.359416 1.536078
2.279659 12.144530 1.121374
2.121485 12.283402 1.558764
2.298657 12.009668 1.069307
2.301139 12.005877 1.062565
2.252757 12.182824 1.220818
2.326410 11.974970 1.009183
2.141354 12.227304 1.507978
2.303804 12.134388 1.019075
2.272501 12.295428 1.111573
2.335382 12.014052 0.976927
2.355343 11.991937 0.939934
2.314546 12.023698 1.025568
2.242071 12.074144 1.268071
2.189611 12.244321 1.421059
2.242005 12.045391 1.248652
1.993667 12.369043 1.893893
2.253862 12.181675 1.186484
2.357197 12.139151 0.909988
2.130802 12.351806 1.523555
2.336093 12.047413 0.965420
2.026198 12.382895 1.803961
2.210996 12.238979 1.320220
2.130887 12.264095 1.565395
2.276534 12.040860 1.161099
1.955878 12.381827 1.993325
2.120493 12.171556 1.581458
2.302422 11.913918 1.098638
2.297328 11.912560 1.103758
2.318564 11.873982 1.045491
2.244248 12.069811 1.254464
2.140773 12.126826 1.537023
2.247075 12.232144 1.216612
2.299096 12.030222 1.062949
2.272724 12.190129 1.154791
2.328278 11.910798 1.018062
2.349453 11.893096 0.981101
2.309912 11.923848 1.064204
2.241022 11.974945 1.297559
2.170530 12.117940 1.450014
2.242360 11.951429 1.282683
1.996811 12.266447 1.914957
2.365080 11.924040 0.923423
2.141546 12.332071 1.510900
2.255577 12.078724 1.224767
2.345871 12.025009 0.959273
2.138453 12.249510 1.555042
2.331248 11.946012 1.008121
2.027915 12.274339 1.829057
2.193518 12.111457 1.353979
2.121630 12.144334 1.588302
2.269599 11.940060 1.197777
1.971730 12.285493 2.012291
2.125870 12.073559 1.605360
2.293633 11.818143 1.137138
2.298798 11.820372 1.134079
2.059879 12.301967 1.735775
2.313124 11.780037 1.080186
2.246391 11.974462 1.287560
1.972619 12.341914 2.009431
2.137845 12.026334 1.563712
2.357159 11.963775 0.951319
2.096457 12.319779 1.639207
2.238610 12.114771 1.257929
1.957517 12.376290 1.976601
2.293719 11.929200 1.104044
2.315223 11.808505 1.057029
2.268013 12.081453 1.195703
2.338122 11.793047 1.020032
2.306822 11.829919 1.101245
2.237651 11.877520 1.326364
2.176498 12.027642 1.481814
2.244257 11.863387 1.315119
2.004598 12.175458 1.937264
2.356259 11.823050 0.967533
2.151437 12.234343 1.545234
2.362834 11.806065 0.944362
2.251758 11.976400 1.260036
2.332833 11.916564 1.004246
2.122700 12.123158 1.578513
2.035955 12.180550 1.854972
2.312741 11.834573 1.049194
2.125708 12.048258 1.614342
2.202304 12.024429 1.390621
1.976804 12.182197 2.026283
2.263809 11.842809 1.232420
2.131510 11.980697 1.628528
2.291082 11.727274 1.168483
2.291500 11.726940 1.167638
2.059852 12.193886 1.762174
2.309318 11.690176 1.114063
2.236569 11.869527 1.317322
1.976106 12.233617 2.024621
2.141793 11.937519 1.591541
2.347105 11.861071 0.996675
1.974335 12.288227 2.002230
2.288933 11.834814 1.142786
2.308530 11.715567 1.094248
2.088454 12.195570 1.666862
2.230247 12.003501 1.295676
2.325793 11.694641 1.057807
2.260491 11.974016 1.234714
2.296167 11.730171 1.135643
2.231070 11.778960 1.352830
2.006054 12.080355 1.955678
1.976488 12.338861 1.975069
2.174528 11.930941 1.512204
2.229789 11.761993 1.343530
1.877774 12.365966 2.235093
1.911628 12.402792 2.140274
2.337994 11.719456 1.009155
2.239866 11.870428 1.292732
2.349342 11.706825 0.985442
2.134522 12.107156 1.572006
2.040739 12.086543 1.878160
2.126850 12.027953 1.606607
2.326600 11.818929 1.048298
2.308770 11.742238 1.087521
2.133588 11.959961 1.640357
2.194789 11.920424 1.422338
1.976917 12.073741 2.036296
2.258284 11.750692 1.266330
2.132170 11.885377 1.649002
2.285301 11.637974 1.198775
2.284883 11.638308 1.199620
2.304470 11.602873 1.146395
2.060135 12.090024 1.788226
2.232227 11.775532 1.346638
2.142929 11.849939 1.617471
1.979392 12.131708 2.039533
2.380636 11.721164 0.917256
1.980460 12.186871 2.020704
2.328932 11.755633 1.039070
2.309460 11.635469 1.130142
2.278351 11.735931 1.179238
2.232491 11.910812 1.332487
2.088943 12.089827 1.696133
2.332448 11.618183 1.093916
2.297933 11.649403 1.169848
2.224705 11.686453 1.378175
2.260547 11.880343 1.272013
2.004835 11.983735 1.973357
2.164857 11.831174 1.538787
2.230509 11.679270 1.373248
1.988090 12.244994 2.000400
1.882572 12.260229 2.251089
1.917632 12.293535 2.160639
2.336499 11.635036 1.047932
2.143125 12.019292 1.604129
2.347428 11.622742 1.025062
2.237038 11.777124 1.326077
2.032623 11.980964 1.895969
2.132171 11.938084 1.634337
2.305880 11.657072 1.124713
2.129920 11.861746 1.662192
2.309219 11.713747 1.088611
1.977763 11.973663 2.048076
2.256071 11.665816 1.298999
2.127014 11.788269 1.668473
2.184906 11.819113 1.452985
2.278504 11.553019 1.229197
2.279385 11.551435 1.227894
2.134685 11.756138 1.640018
2.301211 11.520570 1.177521
2.231642 11.690231 1.375541
2.063266 11.994658 1.813494
1.976438 12.023853 2.051327
2.371311 11.625793 0.954116
2.369828 11.627952 0.962005
1.982911 12.085633 2.037294
2.300193 11.547110 1.163058
2.318845 11.661793 1.079684
2.275881 11.650429 1.215583
2.315731 11.523953 1.126646
1.998544 11.886497 1.987568
2.289503 11.560372 1.201075
2.221791 11.598435 1.403442
2.226752 11.812637 1.367499
2.248173 11.778337 1.306433
2.098967 11.999991 1.728556
2.221477 11.589741 1.400817
2.162970 11.743285 1.566883
1.992472 12.144106 2.020180
1.885093 12.155350 2.266789
2.326094 11.547631 1.085826
2.233031 11.689130 1.356715
2.030966 11.887396 1.915764
1.917350 12.179250 2.177496
2.138431 11.917481 1.630431
2.346241 11.542537 1.063493
2.123731 11.835522 1.656705
2.125209 11.766093 1.682484
1.975398 11.872456 2.057516
2.298963 11.568733 1.159970
2.125216 11.697487 1.687091
2.314295 11.636781 1.128867
2.245385 11.574920 1.328656
2.186628 11.734742 1.483845
2.279511 11.477233 1.259845
2.277689 11.472338 1.256145
2.134225 11.674211 1.664077
2.300402 11.444385 1.207426
2.225705 11.601891 1.402985
2.055620 11.892332 1.833789
1.974608 11.922256 2.062370
2.370730 11.546079 0.996206
2.362705 11.542565 1.004282
1.977705 11.980418 2.050464
2.302667 11.472936 1.197350
1.993913 11.795131 2.002633
2.271461 11.567281 1.250014
2.315120 11.577302 1.118551
2.211572 11.509725 1.425346
2.319066 11.450903 1.160919
2.283151 11.476879 1.232311
2.213125 11.505009 1.426808
2.239556 11.685029 1.340443
2.220832 11.718143 1.400950
2.161810 11.659277 1.593790
2.095999 11.900418 1.754821
1.982558 12.030911 2.032993
1.890045 12.059299 2.282549
2.221041 11.595654 1.385556
2.028357 11.794553 1.934789
2.326098 11.470053 1.122611
2.133582 11.821140 1.656846
2.126502 11.752022 1.681805
2.336165 11.456643 1.099755
1.915914 12.072070 2.193317
2.123882 11.678552 1.703595
1.975953 11.780611 2.068232
2.124170 11.612372 1.706192
2.292682 11.486109 1.193264
2.239363 11.492919 1.358273
2.299139 11.542318 1.166009
2.177781 11.641529 1.512956
2.128341 11.588373 1.684616
2.270469 11.345019 1.232061
1.975234 11.831275 2.075148
2.215695 11.511296 1.428107
2.047466 11.792188 1.854143
2.357302 11.458364 1.036265
2.353189 11.458078 1.043817
1.973179 11.880006 2.062057
2.274203 11.375172 1.225631
1.998091 11.715792 2.022030
2.213630 11.434814 1.450230
2.292371 11.354466 1.189552
2.265601 11.484318 1.282461
2.301181 11.417451 1.263722
2.312122 11.496690 1.156229
2.218657 11.436362 1.453298
2.144166 11.561975 1.614223
2.230224 11.595780 1.371289
1.982249 11.934493 2.051019
2.211194 11.624682 1.432132
2.088542 11.798926 1.779609
1.892674 11.965025 2.297626
2.028623 11.711987 1.954706
2.296053 11.371790 1.155042
2.220303 11.515826 1.414558
2.133351 11.734613 1.682832
2.308750 11.360826 1.132522
2.119097 11.657560 1.702638
2.118881 11.591127 1.722826
1.986205 11.703699 2.084938
1.921055 11.976851 2.213573
2.113744 11.521040 1.721911
2.304731 11.422417 1.228135
2.245545 11.423848 1.388809
2.121486 11.505964 1.705674
2.174878 11.557999 1.541166
2.295608 11.462089 1.202079
1.976704 11.744126 2.089185
2.221318 11.440814 1.455367
2.052829 11.712042 1.879187
2.326628 11.358890 1.073602
2.323331 11.360640 1.080750
1.974322 11.791350 2.077714
1.997197 11.635831 2.037961
2.199184 11.349315 1.469928
2.231015 11.380548 1.310078
2.191989 11.340648 1.473354
2.310714 11.421075 1.192702
2.143995 11.486977 1.639210
1.983510 11.845781 2.069124
2.228741 11.514785 1.402750
2.201864 11.535439 1.462970
2.085658 11.708168 1.803581
1.891185 11.869416 2.309992
2.030196 11.632003 1.975425
2.223013 11.440484 1.443483
2.122923 11.639831 1.705838
2.115474 11.573578 1.724734
2.109761 11.502369 1.739349
1.983928 11.615806 2.095032
2.114640 11.444221 1.739850
1.923383 11.882872 2.231928
2.131751 11.442565 1.731231
2.170024 11.476822 1.567463
2.278322 11.373661 1.235748
1.978084 11.658822 2.102437
2.197790 11.345371 1.475684
2.054518 11.632010 1.902349
2.001130 11.563795 2.056689
1.976681 11.707110 2.093398
2.127386 11.397772 1.658111
2.281487 11.324852 1.224716
1.979345 11.753162 2.083708
2.224029 11.435356 1.433159
2.204694 11.460041 1.494340
2.077375 11.615289 1.825704
1.894012 11.783905 2.325223
2.022760 11.546384 1.991529
2.196881 11.344385 1.465131
2.114039 11.550967 1.727252
2.115300 11.494082 1.746754
2.119185 11.435143 1.763632
1.989108 11.538280 2.108260
1.922454 11.788677 2.247556
2.146500 11.381370 1.587777
1.980215 11.579184 2.116174
2.042373 11.538427 1.918089
2.001407 11.489172 2.072251
1.980327 11.628155 2.111169
1.980406 11.670843 2.101530
2.198921 11.339411 1.457619
2.176513 11.360198 1.517635
1.892349 11.696476 2.338979
2.022736 11.472049 2.010379
2.074709 11.530589 1.848546
2.117647 11.421571 1.769614
2.111704 11.472269 1.751429
1.986234 11.454407 2.117630
1.982285 11.503170 2.130794
1.918742 11.697506 2.262954
1.987299 11.404084 2.080068
2.051017 11.470931 1.944438
1.978882 11.546788 2.123792
1.981832 11.591810 2.119383
2.011921 11.388968 2.022572
2.076468 11.454135 1.875014
2.119893 11.406028 1.778216
1.986097 11.429393 2.145363
1.921646 11.615575 2.281492
1.980996 11.472553 2.140069
1.977749 11.510704 2.132940
1.917263 11.530253 2.295382
1.981732 11.440444 2.153297
1.924019 11.459669 2.317238
