# .PCD v0.7 - Point Cloud Data file format
VERSION 0.7
FIELDS x y z
SIZE 4 4 4
TYPE F F F
COUNT 1 1 1
WIDTH 139
HEIGHT 1
VIEWPOINT 0 0 0 1
POINTS 139
DATA ascii
2.260885 13.400105 0.954527
2.148477 13.406598 1.183027
2.108436 13.533481 1.353459
2.258736 13.236988 1.004809
2.286788 13.138770 0.885689
2.290284 13.298059 0.776817
2.152345 13.243164 1.221072
2.120517 13.386064 1.392840
2.164611 13.398925 1.158659
1.984443 13.408192 1.695436
2.298081 13.254742 0.871829
2.247162 13.066826 1.052103
2.275201 12.968618 0.932974
2.157346 13.424592 1.263661
2.119734 13.223517 1.428322
2.163667 13.099882 1.257344
1.939363 13.484240 1.922511
1.981870 13.496215 1.662177
2.166429 13.234415 1.199632
1.992587 13.247514 1.715721
2.292103 13.091941 0.926003
2.248483 12.929583 1.096540
2.191055 13.488700 1.123335
2.268683 12.818648 0.976175
2.176894 13.400254 1.111514
2.157946 13.258356 1.305872
2.294617 12.994700 0.882141
2.121968 13.077391 1.461342
2.160163 12.946556 1.289201
1.939869 13.315116 1.938851
2.314146 12.704742 0.893491
1.991256 13.331930 1.686752
2.002113 13.101861 1.735637
2.169704 13.077701 1.238329
2.238225 12.780697 1.137542
2.286483 12.940446 0.976049
2.269977 12.689430 1.016379
2.195690 13.321198 1.172616
1.985081 13.400993 1.827291
2.166278 13.117414 1.345665
2.175606 13.226559 1.156819
2.121280 12.937090 1.493096
2.288980 12.840527 0.930851
2.156796 12.801158 1.319278
1.948869 13.172551 1.958508
2.001738 13.461532 1.634598
2.309850 12.577223 0.938582
2.009449 13.195730 1.713042
2.339269 12.535011 0.880788
2.015680 13.496262 1.700588
2.199550 13.402548 1.065430
2.003483 12.949960 1.751698
2.176010 12.940093 1.275891
2.237574 12.656555 1.177225
2.279266 12.794644 1.024336
2.268804 12.564786 1.054836
2.243101 13.373832 1.031458
1.987109 13.236107 1.848581
2.192959 13.153101 1.218610
2.159508 12.961289 1.381691
2.116422 12.795520 1.522172
1.951461 13.028658 1.975615
2.282750 12.701079 0.976029
2.180733 13.078289 1.200201
2.160615 12.673454 1.349559
2.304291 12.867838 0.864744
2.011271 13.299846 1.662920
2.015547 13.047374 1.734676
2.017483 13.319981 1.728424
2.005496 12.806500 1.767195
2.196766 13.227364 1.115251
2.167572 12.787907 1.308460
2.275011 12.663496 1.068467
2.313625 12.811863 0.898555
1.994610 13.092061 1.872749
2.238322 13.196651 1.084593
2.191048 12.997751 1.261321
2.114721 12.667589 1.549908
1.957264 12.900168 1.993081
2.153292 12.815457 1.416409
2.286165 12.582762 1.018936
2.025900 13.419987 1.608146
2.179085 12.925401 1.240934
2.017419 13.142549 1.689129
2.294241 12.718002 0.916715
2.062508 13.413963 1.602051
2.009967 12.889233 1.752127
1.799513 13.475424 2.344050
2.021447 13.161695 1.755135
2.015680 12.685374 1.786284
2.164493 12.653034 1.340511
2.201314 13.077796 1.163512
2.302070 12.665864 0.949521
1.994681 12.945661 1.891935
2.187397 12.850874 1.301156
1.960691 12.774405 2.009547
2.237065 13.033715 1.135157
2.153292 12.685366 1.449272
2.031643 13.254994 1.639410
2.175186 12.780469 1.277575
2.019682 12.991815 1.713337
2.291452 12.589327 0.964102
2.064498 13.239361 1.633997
2.017261 12.759610 1.771888
1.808421 13.308632 2.351745
2.022167 13.005020 1.780854
2.199399 12.925138 1.207525
1.994946 12.808951 1.911041
2.310493 12.556237 0.997341
1.968386 12.661453 2.027853
2.179948 12.706018 1.338411
2.231730 12.878358 1.180904
2.033861 13.097169 1.667445
2.174958 12.649691 1.314094
1.851099 13.434044 2.236920
2.022903 12.851050 1.735383
2.009308 12.617592 1.786769
2.070590 13.083969 1.667618
2.313776 12.611340 0.908000
2.018944 12.853148 1.802874
2.190208 12.770039 1.249001
1.999851 12.688346 1.932086
2.187009 12.591073 1.375887
2.350286 12.550558 0.878126
2.220361 12.724965 1.224204
2.041129 12.955127 1.696564
1.860752 13.268516 2.250321
2.023294 12.714262 1.756910
2.065312 12.920323 1.695454
2.024267 12.726899 1.828589
2.191408 12.642649 1.288407
2.221662 12.598415 1.265674
2.038360 12.807386 1.720733
1.870658 13.114441 2.265340
2.060958 12.770263 1.722082
2.037942 12.673932 1.745276
1.872725 12.958343 2.276231
2.057563 12.630172 1.746550
1.876675 12.815092 2.286648
