# .PCD v0.7 - Point Cloud Data file format
VERSION 0.7
FIELDS x y z
SIZE 4 4 4
TYPE F F F
COUNT 1 1 1
WIDTH 246
HEIGHT 1
VIEWPOINT 0 0 0 1
POINTS 246
DATA ascii
2.309579 13.350971 1.057751
2.271392 13.346677 1.164375
2.241789 13.380148 1.272054
2.243434 13.365489 1.244604
2.346887 13.244142 0.987903
2.260660 13.362250 1.221133
2.310309 13.232614 1.100431
2.167790 13.374384 1.445605
2.235459 13.280242 1.264582
2.353135 13.162180 1.026057
2.270455 13.228539 1.202696
2.238184 13.271095 1.309115
2.238980 13.251686 1.304159
2.243939 13.242700 1.281892
2.129177 13.357832 1.546270
2.338565 13.119397 1.032372
2.203629 13.281027 1.374537
2.265213 13.245384 1.261509
2.306289 13.115980 1.140251
2.171351 13.258919 1.479141
2.357282 13.035117 1.001267
2.359079 13.053613 1.034668
2.242118 13.168027 1.305309
1.966729 13.336955 1.850588
2.384152 13.005655 0.967894
2.275978 13.124942 1.238390
2.343236 13.039204 1.062108
2.242688 13.158298 1.338555
2.065573 13.335068 1.754608
2.133902 13.247466 1.573701
2.239339 13.134133 1.335857
2.243105 13.126142 1.316157
2.331709 13.000603 1.075229
2.196955 13.152049 1.408569
2.256428 13.117183 1.297765
1.976609 13.293855 1.841489
1.994779 13.374882 1.933031
1.971577 13.285114 1.860069
2.364189 12.952301 1.029558
2.304650 13.005504 1.178802
1.987724 13.243645 1.833389
2.172904 13.145808 1.510846
2.355573 12.928260 1.040722
2.023751 13.292557 1.853343
2.359082 12.946303 1.072755
1.974404 13.224934 1.868356
2.241011 13.052696 1.342485
2.364311 12.878139 1.012791
2.264934 13.002750 1.271280
1.953474 13.336092 2.022380
2.345224 12.932948 1.097205
2.241704 13.044278 1.365945
2.136792 13.139426 1.601740
2.250200 13.037057 1.368020
2.254147 13.029023 1.350759
2.063678 13.204877 1.779667
2.329994 12.896486 1.115978
2.210223 13.057735 1.444288
1.981777 13.180267 1.861059
2.258997 13.010590 1.334449
2.380401 12.820910 0.989880
1.995564 13.254786 1.950754
2.369905 12.849948 1.032178
1.972000 13.162396 1.871635
2.361555 12.847980 1.069973
2.298308 12.895853 1.214890
2.181421 13.047791 1.541138
1.995167 13.137361 1.857042
1.776634 13.357561 2.383116
2.357814 12.831662 1.078075
1.855806 13.365335 2.292959
2.348470 12.831019 1.109053
2.030589 13.181480 1.878575
1.987181 13.125123 1.888475
1.966585 13.239570 2.042549
2.240166 12.941622 1.379351
2.268647 12.906673 1.304448
2.333060 12.816042 1.129916
2.362187 12.777084 1.055702
1.766630 13.308481 2.381150
2.143578 13.042524 1.627296
2.242237 12.937982 1.393413
2.248754 12.927011 1.397193
2.246333 12.911425 1.381076
2.328433 12.795720 1.154357
1.985389 13.070474 1.879629
2.071550 13.097587 1.808590
2.205427 12.944982 1.475295
2.260925 12.908010 1.370475
2.375814 12.720716 1.030140
2.001920 13.148330 1.971637
2.361178 12.742291 1.073412
1.987679 13.066545 1.890398
2.303457 12.803235 1.250887
2.352256 12.737997 1.108340
2.177907 12.941004 1.568091
1.793748 13.255038 2.393446
2.000211 13.031036 1.878441
2.346319 12.724046 1.112167
2.348710 12.734056 1.143291
2.035297 13.074569 1.901212
1.864815 13.250546 2.308961
2.379833 12.667910 1.022111
1.986959 13.011833 1.901953
1.964145 13.123482 2.054909
2.387385 12.655776 1.015132
2.270419 12.812014 1.336166
2.336532 12.723630 1.161553
2.239025 12.835139 1.414305
1.785720 13.212421 2.391063
2.136356 12.930409 1.649924
2.355567 12.674074 1.097286
2.239454 12.831449 1.418274
2.244717 12.822393 1.424236
2.245616 12.809775 1.412016
1.990131 12.966035 1.897825
2.200268 12.837747 1.504003
2.323221 12.694137 1.191368
2.072451 12.986512 1.832250
2.373091 12.626131 1.067931
2.011625 13.052730 1.994547
2.255547 12.801062 1.402477
1.986819 12.954555 1.901912
2.392352 12.586452 1.011625
2.361843 12.647055 1.114197
2.291332 12.696938 1.283015
2.346006 12.638039 1.144242
2.170286 12.831942 1.592862
1.795850 13.135962 2.392723
2.002331 12.926848 1.897663
2.344670 12.630304 1.146624
2.337954 12.629429 1.176577
2.380740 12.577545 1.056446
2.035501 12.965714 1.922523
1.988323 12.905357 1.915869
1.975650 13.034391 2.074964
1.873307 13.140653 2.326339
2.383048 12.563192 1.050233
2.262386 12.708690 1.364367
2.335438 12.630185 1.191478
2.142445 12.841166 1.675708
2.397409 12.531621 1.016558
2.232615 12.729833 1.445199
1.800707 13.111374 2.397508
2.238529 12.733227 1.441951
2.352454 12.579841 1.135935
2.239649 12.719419 1.450172
2.241125 12.709137 1.440821
1.996852 12.870781 1.916890
2.010887 12.947045 2.010688
2.319017 12.599740 1.227237
2.191912 12.731153 1.532158
2.368361 12.533893 1.103887
2.246911 12.695670 1.433541
2.073750 12.880544 1.857630
1.995982 12.859100 1.917515
2.388536 12.494426 1.047925
2.354221 12.550858 1.151517
2.285916 12.601504 1.314050
2.344298 12.547940 1.179605
2.171256 12.738661 1.620181
1.802273 13.029739 2.396038
2.339246 12.537573 1.178946
2.002500 12.826797 1.916721
2.333325 12.536036 1.207188
1.975004 12.932961 2.088332
2.382323 12.491075 1.089592
1.995321 12.811614 1.933313
2.034885 12.860913 1.940721
2.260204 12.617808 1.392800
1.877505 13.031225 2.340384
2.328070 12.533456 1.219776
2.138273 12.741800 1.697161
1.806159 13.003158 2.398813
2.239774 12.638739 1.466364
2.230474 12.632888 1.477176
2.237814 12.623719 1.474795
2.340449 12.479863 1.172695
2.233254 12.609178 1.466635
1.997633 12.772823 1.933087
2.007743 12.844038 2.025851
2.190720 12.636881 1.560035
2.314634 12.508113 1.261957
2.241385 12.599383 1.462525
2.001431 12.763736 1.931366
2.069385 12.773375 1.878519
2.341181 12.452509 1.187168
2.281629 12.511424 1.344709
1.838290 12.989913 2.425892
2.161841 12.637089 1.642401
1.811772 12.932871 2.403004
2.006084 12.733978 1.936904
1.976401 12.837091 2.101667
1.995862 12.714623 1.946691
2.037345 12.765470 1.962568
2.253516 12.524979 1.419908
2.133463 12.646448 1.717937
1.882435 12.927485 2.354911
1.815999 12.904172 2.403256
2.233312 12.540212 1.487607
2.230099 12.527108 1.498221
2.228030 12.540542 1.507238
2.228280 12.515906 1.492376
2.001432 12.682427 1.951265
2.010692 12.752515 2.044068
1.811648 12.860065 2.389146
2.183982 12.542280 1.585474
2.004533 12.670132 1.944623
2.238756 12.509785 1.491436
2.071115 12.677693 1.902464
1.846385 12.897054 2.440005
1.814812 12.832753 2.405904
2.157609 12.544086 1.666048
1.978985 12.748359 2.116297
2.011645 12.650337 1.957956
2.009229 12.636583 1.966855
2.037278 12.671825 1.981384
2.127557 12.553650 1.737222
1.823886 12.809318 2.407534
1.888615 12.829970 2.371117
1.979097 12.564218 1.954096
2.009014 12.658167 2.058906
1.824671 12.779424 2.403150
1.990517 12.560767 1.949050
2.172865 12.443907 1.610356
2.062336 12.575550 1.920544
2.136773 12.438573 1.683348
1.982424 12.663476 2.132174
1.992569 12.538722 1.965587
1.987170 12.519882 1.968065
2.031271 12.575479 1.997333
2.114734 12.458852 1.752913
1.837343 12.725779 2.401827
1.881485 12.720866 2.377473
2.007607 12.570744 2.074696
1.991033 12.490860 1.975297
2.000903 12.483073 1.965371
1.986201 12.581897 2.148102
2.006789 12.469954 1.989574
2.005200 12.455284 1.991032
2.010830 12.464926 2.005097
1.882333 12.628158 2.390525
1.985491 12.460398 2.078099
2.006047 12.424140 1.998861
2.008487 12.405677 1.980283
1.964967 12.475127 2.147019
