# .PCD v0.7 - Point Cloud Data file format
VERSION 0.7
FIELDS x y z
SIZE 4 4 4
TYPE F F F
COUNT 1 1 1
WIDTH 690
HEIGHT 1
VIEWPOINT 0 0 0 1
POINTS 690
DATA ascii
1.746763 13.272313 1.229873
1.775073 13.237831 1.165704
1.778662 13.243488 1.158763
1.774387 13.244580 1.140581
1.760645 13.235929 1.121235
1.744202 13.277926 1.239271
2.169369 13.442647 1.278583
2.132025 13.415966 1.239563
1.791045 13.277961 1.178640
1.925706 13.305156 1.161641
1.844223 13.250409 1.111074
1.743262 13.283250 1.238755
1.746078 13.286662 1.240926
2.121062 13.470318 1.417022
2.132956 13.453873 1.377481
2.160271 13.429359 1.347860
2.194464 13.386283 1.270074
2.157518 13.443176 1.332884
2.187593 13.389267 1.260592
2.099326 13.352068 1.223839
2.152482 13.434840 1.359635
1.883114 13.250080 1.167140
2.170526 13.389221 1.302986
2.182663 13.387154 1.274872
2.199569 13.385006 1.237048
2.174654 13.419001 1.283831
2.208749 13.371637 1.197176
2.159838 13.445606 1.362940
2.155496 13.446621 1.365220
2.049774 13.504825 1.589424
2.083859 13.470394 1.538805
2.117142 13.414419 1.438953
2.129680 13.399537 1.402597
2.071564 13.484421 1.543240
2.162222 13.375155 1.370598
2.188735 13.329100 1.291741
2.148917 13.386840 1.358800
2.195635 13.339602 1.287722
2.198613 13.344975 1.271005
2.075446 13.471550 1.569156
2.157802 13.383683 1.386164
2.205223 13.347459 1.254966
2.164401 13.332428 1.325485
2.175772 13.330241 1.299467
2.192801 13.329068 1.263653
2.096483 13.455088 1.496714
2.169326 13.363845 1.311961
2.201187 13.316479 1.225443
2.154784 13.389083 1.388230
2.035790 13.475770 1.651705
2.070704 13.473246 1.586576
2.154207 13.392757 1.393469
2.050908 13.452287 1.613394
2.081131 13.413328 1.558239
2.113193 13.359421 1.460445
1.975962 13.532570 1.821518
2.064793 13.470634 1.606653
2.128606 13.346099 1.427140
2.071903 13.432654 1.568877
2.156862 13.318473 1.391004
2.192093 13.276574 1.315568
2.190917 13.284483 1.311313
2.145242 13.332891 1.384748
2.077370 13.418231 1.591467
2.189459 13.288950 1.295310
2.147117 13.325001 1.407371
2.201669 13.294486 1.282922
2.160050 13.277820 1.347811
2.172434 13.277700 1.323715
2.180130 13.272335 1.289016
2.091002 13.399844 1.522408
2.164883 13.309781 1.340006
2.149148 13.333765 1.411478
2.201765 13.266678 1.255093
1.943286 13.524220 1.829120
1.961533 13.524357 1.855802
2.033154 13.420573 1.672721
2.070026 13.419417 1.610293
2.150529 13.338810 1.419419
2.045640 13.397477 1.635382
1.976802 13.500484 1.791302
2.084363 13.359829 1.580063
1.917250 13.523931 1.935915
2.107922 13.304619 1.482429
1.973993 13.475622 1.838865
2.059155 13.415318 1.629907
2.122020 13.291497 1.449605
2.064458 13.376059 1.591866
1.955639 13.518729 1.883331
2.152015 13.262397 1.412583
2.186299 13.221199 1.336367
2.184851 13.230471 1.334953
2.126938 13.274014 1.406025
1.934410 13.499132 1.901607
2.071977 13.362457 1.611439
2.178958 13.234030 1.319663
2.146404 13.272090 1.430645
2.192237 13.239841 1.310063
2.146549 13.220363 1.367107
2.164561 13.222400 1.347095
2.169628 13.217419 1.313368
2.087323 13.345909 1.548354
2.160379 13.257524 1.367178
2.142166 13.279552 1.434774
1.958308 13.480180 1.860566
2.196891 13.213918 1.283528
1.959167 13.467806 1.873974
2.025008 13.364209 1.691655
2.063346 13.362940 1.631184
2.141864 13.284280 1.444465
1.941016 13.504375 1.907164
2.043094 13.344167 1.657965
2.077530 13.303277 1.598508
1.919086 13.473310 1.956923
1.977192 13.446942 1.817803
2.094790 13.247667 1.500460
1.969299 13.417198 1.855599
2.055324 13.361300 1.653410
2.118650 13.239867 1.473414
2.059284 13.323133 1.615420
1.949604 13.461390 1.900118
2.136555 13.203572 1.429176
2.170045 13.163154 1.354621
1.932632 13.445934 1.922097
2.181905 13.177560 1.358361
2.128647 13.224854 1.432307
2.064747 13.306293 1.630715
2.177450 13.181903 1.344594
2.142938 13.218590 1.452877
2.189539 13.188878 1.337490
2.144368 13.167573 1.388418
2.158437 13.170183 1.369863
2.165859 13.166183 1.338005
2.149973 13.204477 1.393103
2.087776 13.295141 1.575991
2.133376 13.224052 1.457806
1.819767 13.568174 2.212784
1.953041 13.425377 1.882547
2.192358 13.162562 1.310262
1.956868 13.414022 1.893285
2.026443 13.313987 1.713487
2.057528 13.308454 1.651550
1.943921 13.454030 1.930958
2.138154 13.231246 1.469972
1.855024 13.572160 2.174854
2.038685 13.291361 1.679420
1.917676 13.420620 1.976146
2.072901 13.247630 1.616376
1.973883 13.393509 1.842484
2.094417 13.196164 1.522028
1.832963 13.520453 2.193315
2.048190 13.307007 1.674261
1.968738 13.361942 1.874022
2.116594 13.188048 1.496733
1.949661 13.408586 1.921297
2.049947 13.267941 1.636842
2.141136 13.153562 1.451207
1.804500 13.552277 2.233428
1.929511 13.393826 1.942635
2.175146 13.113731 1.377828
2.183885 13.127037 1.381796
2.123991 13.172523 1.457030
2.065718 13.253697 1.652234
2.136691 13.165398 1.473634
2.173681 13.130667 1.369229
2.145402 13.117752 1.411073
2.184088 13.137325 1.363875
2.146836 13.115893 1.390985
1.801603 13.526762 2.215128
2.162611 13.115535 1.363816
2.077645 13.240727 1.599075
2.128567 13.171642 1.480087
2.150396 13.154613 1.420300
1.820496 13.513612 2.230294
2.169655 13.106454 1.332950
1.950497 13.372063 1.905129
2.010408 13.256366 1.728035
1.953555 13.358176 1.910670
2.051707 13.253971 1.671911
1.936666 13.398755 1.949802
2.134387 13.180005 1.494607
1.825361 13.500117 2.178822
1.771621 13.522209 2.308794
1.800399 13.541214 2.267962
2.034275 13.238558 1.700870
1.911679 13.366947 1.993635
2.065120 13.191784 1.634034
2.095452 13.146340 1.544684
1.968217 13.339099 1.865291
1.827599 13.461363 2.206426
2.043412 13.253695 1.696977
1.969984 13.307979 1.892701
2.101721 13.132580 1.515639
1.946936 13.356089 1.941001
1.788688 13.497955 2.280201
2.136173 13.101077 1.471041
1.812458 13.505285 2.259263
2.048412 13.216704 1.661338
1.930580 13.343091 1.965732
2.169265 13.061053 1.397315
2.163137 13.069884 1.399890
2.126588 13.124456 1.483217
2.063935 13.200512 1.672711
2.172636 13.080918 1.394464
2.135030 13.113192 1.496117
2.149585 13.068134 1.433931
2.149308 13.066856 1.415161
2.181757 13.086872 1.390030
1.803100 13.474735 2.237831
2.165207 13.067472 1.390001
1.812843 13.456307 2.242676
2.127002 13.121306 1.504146
2.132649 13.099998 1.443450
2.070236 13.187804 1.622759
2.012335 13.207628 1.750604
1.945171 13.319057 1.926235
1.951226 13.305293 1.929539
2.170568 13.058077 1.360885
1.936789 13.348718 1.972118
2.047297 13.201169 1.693359
1.773401 13.473375 2.328931
2.138451 13.131821 1.522751
1.794773 13.488040 2.284189
1.828052 13.449340 2.206321
2.029410 13.187937 1.722283
1.912170 13.317419 2.014685
2.060953 13.138519 1.652204
2.096487 13.096517 1.567336
1.826396 13.404543 2.221661
1.965825 13.285868 1.890310
2.046901 13.206711 1.723079
1.966641 13.253032 1.909646
1.785417 13.445763 2.298296
2.105083 13.084632 1.539727
1.939527 13.300741 1.957395
1.804408 13.448370 2.272476
2.042261 13.165381 1.683668
2.138947 13.049781 1.492807
1.924705 13.290396 1.985225
2.167053 13.009164 1.418181
2.165609 13.020847 1.424062
2.120956 13.073724 1.506721
2.058975 13.148022 1.692545
2.165168 13.029795 1.417274
2.127315 13.060119 1.514910
2.142361 13.016545 1.453466
1.805185 13.426060 2.262850
2.149027 13.017230 1.438295
2.164898 13.033352 1.413089
2.160491 13.016939 1.413848
1.811736 13.401357 2.259486
2.125834 13.070582 1.527369
2.135766 13.052518 1.470810
2.011016 13.156821 1.771388
2.057844 13.134288 1.645542
1.942173 13.267926 1.948775
1.949322 13.251129 1.948007
2.168700 13.010005 1.387346
1.938747 13.299074 1.995123
2.045581 13.150750 1.714975
1.774293 13.423450 2.349152
2.112692 13.074967 1.539511
1.797623 13.439481 2.307111
1.907978 13.265040 2.032425
2.016742 13.133369 1.740612
1.822786 13.394535 2.228296
2.061865 13.087721 1.672845
2.090579 13.044733 1.586386
1.822411 13.348032 2.235421
1.962060 13.234619 1.914944
2.045735 13.155979 1.746305
1.783584 13.394354 2.317910
1.940046 13.250319 1.978874
2.103489 13.035194 1.563347
1.961462 13.197696 1.925895
1.805724 13.397161 2.292297
2.132517 12.997414 1.510677
2.042504 13.116331 1.707983
1.919199 13.238210 2.003450
2.163895 12.957974 1.438265
2.160740 12.970238 1.445464
2.044714 13.092595 1.706906
2.120800 13.025068 1.531864
2.121927 13.008922 1.535135
2.164518 12.979661 1.441670
2.141956 12.965946 1.474588
2.151470 12.969090 1.462031
1.804421 13.374926 2.285253
2.165262 12.985283 1.439407
2.157581 12.967697 1.437950
1.812530 13.349565 2.278127
2.118734 13.019964 1.548912
2.005999 13.106125 1.790352
2.133898 13.004443 1.497269
1.944211 13.198556 1.965398
1.935929 13.214727 1.969528
2.060073 13.085711 1.672989
2.169584 12.962523 1.414841
1.925408 13.243834 2.009836
2.040195 13.099546 1.735203
1.791049 13.387010 2.322552
2.113453 13.026506 1.564999
1.901004 13.212969 2.048692
2.020077 13.086311 1.764265
1.815107 13.340547 2.247530
2.054915 13.034766 1.689538
2.091585 12.995807 1.608598
2.022453 13.098664 1.759649
1.781722 13.343842 2.337089
1.827424 13.296717 2.257054
1.957775 13.182788 1.938397
1.805176 13.346456 2.310989
2.101346 12.986068 1.585352
1.933128 13.196458 1.996006
1.946559 13.140709 1.937069
2.035406 13.065710 1.729527
2.131194 12.946617 1.531451
1.919812 13.189658 2.026501
2.163461 12.908272 1.458949
2.043366 13.042687 1.727250
2.159938 12.920027 1.467414
2.112386 12.974645 1.553890
2.122015 12.959800 1.556999
2.163415 12.931706 1.466029
2.139291 12.916239 1.495412
2.143452 12.918281 1.483222
1.799987 13.323006 2.306268
2.156971 12.935835 1.463441
2.156477 12.919744 1.462308
1.810050 13.296600 2.294549
2.006089 13.056996 1.812220
2.118454 12.970334 1.572042
2.129278 12.955780 1.522687
1.944605 13.147163 1.984861
1.924159 13.195783 2.031761
1.923630 13.160664 1.986591
2.054045 13.035365 1.697320
2.165880 12.914059 1.440603
2.037560 13.048933 1.756466
1.788270 13.336300 2.341383
2.110517 12.978155 1.588667
1.899631 13.163947 2.068606
2.017935 13.037179 1.786271
1.816454 13.290857 2.275071
2.085647 12.944922 1.627207
2.057139 12.983777 1.709686
1.777627 13.293325 2.356403
2.021749 13.050313 1.783179
1.932275 13.148021 2.017097
1.828245 13.244032 2.276122
1.799548 13.293289 2.327204
2.091861 12.935371 1.604587
1.949790 13.131068 1.960029
1.948786 13.089712 1.957222
2.036141 13.018141 1.754579
2.126569 12.895542 1.549572
1.916756 13.140321 2.048165
2.150730 12.855511 1.476398
2.158710 12.871100 1.489759
2.038375 12.991100 1.746640
2.108559 12.925204 1.577641
2.114790 12.908213 1.576526
2.152247 12.880697 1.487012
2.130598 12.864770 1.512980
2.140389 12.868962 1.504875
1.795003 13.271399 2.325668
2.152718 12.887680 1.487590
1.807145 13.244921 2.311366
2.148951 12.870418 1.484241
2.000521 13.006614 1.829566
2.113160 12.921007 1.593837
1.922417 13.146253 2.052939
1.940930 13.095375 2.003769
2.122823 12.906725 1.547409
1.921094 13.111914 2.009431
2.050192 12.986815 1.720641
2.155329 12.865504 1.464338
1.790665 13.289922 2.364261
2.034898 12.999216 1.777292
2.104855 12.928321 1.611727
1.882439 13.108750 2.079050
2.016711 12.988244 1.808620
1.813978 13.240306 2.298783
2.087569 12.896193 1.649759
2.057104 12.933680 1.729538
2.020100 13.002661 1.805927
1.802367 13.245627 2.349682
1.918782 13.092712 2.029357
1.822888 13.189508 2.289490
2.090635 12.886442 1.626932
1.930150 13.075438 1.974319
1.946426 13.037735 1.975641
1.907549 13.088251 2.064563
2.122861 12.844666 1.568036
2.035069 12.969283 1.779370
2.153444 12.806010 1.497282
2.043023 12.943850 1.769798
2.149224 12.820409 1.508987
2.101430 12.875487 1.598742
2.112124 12.858503 1.597345
2.148787 12.831767 1.509494
2.129766 12.815457 1.534490
2.136408 12.819448 1.526179
1.794855 13.222719 2.350815
2.144427 12.838235 1.511617
1.998747 12.957989 1.850302
1.809376 13.193912 2.331521
2.140535 12.820001 1.506257
2.104621 12.869613 1.613845
1.939035 13.045771 2.022499
1.917922 13.096134 2.073076
2.114900 12.857785 1.570172
1.916722 13.062773 2.031576
2.044134 12.937367 1.744531
2.149789 12.816650 1.489402
2.032727 12.950980 1.798860
1.885227 13.061995 2.101087
2.097329 12.878990 1.633658
2.013650 12.938916 1.830274
2.077932 12.845421 1.666545
2.053398 12.882797 1.748002
1.801709 13.185341 2.316276
2.015725 12.953525 1.828067
1.791477 13.190822 2.360539
1.918845 13.044473 2.050788
1.821845 13.137328 2.307426
2.087147 12.838406 1.648980
1.943487 12.986964 1.992012
1.925930 13.026377 1.998904
1.905381 13.040007 2.086133
2.120535 12.796360 1.587154
2.027024 12.919364 1.800124
2.149282 12.757315 1.515707
2.041645 12.894838 1.789699
2.144693 12.771206 1.528677
2.097024 12.827255 1.620443
2.105731 12.809801 1.615912
2.140739 12.781857 1.530243
2.127439 12.767155 1.553607
2.128700 12.770942 1.545229
1.806934 13.144608 2.348642
1.998780 12.910652 1.871295
2.140173 12.790082 1.535759
2.142127 12.774427 1.530777
2.102023 12.822666 1.635806
1.914808 13.048588 2.093868
1.933865 12.994994 2.039010
1.913239 13.014723 2.053631
2.109332 12.809824 1.594800
2.040772 12.890298 1.768590
2.145478 12.770288 1.512677
2.025447 12.901179 1.817516
1.881564 13.014763 2.120265
2.095801 12.832316 1.658407
2.008698 12.890988 1.850367
2.074292 12.797307 1.686148
2.050580 12.833007 1.766376
2.014019 12.907662 1.849943
1.802205 13.138220 2.344604
1.915209 12.996346 2.070399
2.081303 12.789392 1.669155
1.886392 12.988084 2.096586
1.816610 13.083780 2.322796
1.922996 12.978018 2.022567
1.942564 12.935768 2.011948
2.015252 12.870454 1.818626
2.112238 12.744505 1.603881
2.029652 12.843087 1.804613
2.143340 12.706439 1.534302
2.141600 12.722784 1.549888
2.092222 12.779411 1.642973
2.101229 12.759702 1.636033
2.140892 12.735502 1.553237
2.122387 12.717369 1.572115
2.130195 12.723500 1.568170
2.133110 12.743132 1.557995
1.993335 12.861244 1.890640
1.909309 13.000961 2.112353
1.804180 13.093008 2.367892
2.130900 12.725215 1.550883
2.091591 12.772674 1.654250
1.918477 12.941093 2.049701
1.908317 12.965893 2.074158
2.103709 12.763653 1.618561
2.025110 12.853335 1.839770
2.131227 12.721850 1.534586
2.037042 12.842722 1.793912
1.879764 12.967027 2.140566
2.081303 12.781927 1.676299
1.998240 12.841886 1.868380
2.070159 12.747713 1.705003
2.040421 12.781651 1.781978
2.011479 12.858918 1.872769
1.912491 12.948414 2.090353
1.793673 13.086805 2.364618
2.076348 12.741471 1.689241
1.885661 12.940621 2.119674
1.818443 13.033160 2.343773
1.921103 12.930827 2.048583
2.014121 12.823388 1.842541
2.110856 12.695501 1.623772
1.938339 12.884296 2.029231
2.034328 12.794939 1.828195
2.143271 12.657245 1.553706
2.131167 12.672796 1.568327
2.086473 12.732267 1.664722
2.096670 12.711392 1.655285
2.130583 12.686486 1.573686
2.116417 12.667388 1.590274
2.123432 12.674294 1.587993
1.989175 12.812539 1.909065
2.127909 12.695679 1.581352
1.903470 12.951933 2.132533
2.092170 12.725032 1.676843
2.116920 12.675418 1.569947
1.916183 12.891880 2.069254
2.102179 12.716980 1.643303
1.902630 12.916945 2.096780
2.017829 12.803535 1.858420
2.137954 12.676944 1.562441
1.875607 12.918315 2.158994
2.030926 12.795065 1.816927
2.078336 12.734473 1.699518
2.002095 12.795407 1.893193
2.066518 12.699598 1.724600
2.005212 12.811181 1.893342
2.040384 12.731554 1.801817
1.907444 12.898611 2.108866
2.066805 12.692572 1.707592
1.884012 12.892962 2.142413
1.814646 12.980392 2.360660
2.011155 12.775928 1.865761
1.913580 12.881488 2.070510
2.104365 12.644935 1.640752
1.937386 12.833995 2.048728
2.021388 12.743892 1.842323
2.134520 12.607573 1.570390
2.127524 12.624685 1.587921
2.073384 12.683558 1.683698
2.092139 12.662189 1.674967
2.122477 12.638370 1.593559
2.109132 12.617600 1.608916
2.115722 12.625790 1.607034
1.900355 12.904387 2.153315
1.987004 12.764301 1.930621
2.119010 12.648337 1.602890
2.115758 12.629255 1.593420
2.082230 12.676520 1.696026
1.913916 12.841770 2.089236
1.899667 12.869478 2.120003
2.092912 12.669130 1.666106
1.875244 12.871357 2.180813
2.012355 12.755024 1.877326
2.127248 12.628317 1.583718
2.024839 12.746512 1.840372
2.074025 12.688107 1.722787
1.994388 12.746893 1.912238
2.058316 12.649611 1.742896
2.007751 12.764893 1.918638
1.903808 12.850483 2.128468
2.032059 12.680592 1.818105
1.874842 12.844558 2.159505
2.069767 12.645008 1.732484
2.005833 12.727494 1.887108
1.910220 12.834411 2.094563
1.809534 12.927817 2.378030
2.099709 12.594760 1.658420
1.931325 12.782132 2.065312
2.018693 12.695072 1.862697
2.125795 12.557007 1.587504
2.120239 12.574898 1.606560
2.073197 12.635798 1.708383
2.088004 12.612597 1.693814
2.113480 12.589163 1.613516
1.898650 12.858515 2.175186
2.100352 12.568826 1.625165
2.107095 12.577090 1.625726
1.982844 12.715596 1.949039
2.114727 12.601079 1.626587
2.098051 12.580470 1.610228
2.080054 12.628289 1.717575
1.912114 12.794035 2.109527
1.872129 12.823812 2.201591
1.892116 12.821033 2.141493
2.009264 12.706592 1.898533
2.084959 12.621089 1.688419
2.113335 12.581284 1.603920
2.020559 12.699245 1.864073
2.071057 12.640651 1.746000
1.989066 12.698457 1.933583
1.994512 12.716099 1.935171
2.058770 12.600994 1.763473
1.900720 12.802042 2.149677
2.032021 12.630493 1.837937
1.870412 12.797207 2.180767
2.065729 12.597281 1.752907
2.001950 12.679838 1.909976
1.904656 12.786434 2.119186
2.087287 12.544307 1.673715
1.929057 12.732021 2.085288
2.015082 12.646057 1.882722
2.109747 12.526704 1.624123
2.150065 12.509814 1.616365
2.064145 12.588379 1.727473
2.070570 12.562448 1.707778
2.095744 12.541273 1.629888
1.878712 12.807298 2.184847
2.105817 12.519906 1.647069
2.103083 12.528472 1.646578
1.974644 12.665602 1.967334
2.099375 12.553267 1.645263
2.077482 12.580445 1.739953
2.104681 12.533690 1.636498
1.908929 12.743728 2.129156
1.867574 12.775486 2.220842
1.887685 12.773682 2.162753
2.002475 12.658272 1.917919
2.079333 12.574916 1.712168
2.093519 12.533468 1.622874
2.012211 12.651585 1.887219
2.061089 12.593035 1.764744
1.985057 12.649817 1.954449
1.990105 12.667848 1.956871
2.050538 12.551893 1.781340
1.895245 12.753514 2.168591
2.026445 12.580109 1.855268
1.871115 12.750512 2.205379
2.057099 12.548570 1.771608
1.997665 12.632563 1.933686
1.896702 12.738373 2.141515
1.924400 12.681828 2.102971
1.788354 12.820678 2.402468
2.010026 12.596258 1.901234
2.064870 12.540805 1.752513
1.874797 12.760525 2.207298
2.182528 12.522220 1.777608
1.970080 12.617282 1.986593
2.161681 12.510640 1.694948
2.066097 12.531155 1.757620
1.904366 12.695404 2.148419
1.865917 12.727822 2.243587
1.997909 12.609954 1.937179
1.883427 12.725511 2.186903
2.071346 12.527767 1.734061
2.002388 12.604041 1.908423
2.049826 12.544717 1.784422
1.978781 12.602093 1.975020
1.983801 12.621018 1.977009
1.895789 12.706761 2.190756
2.048232 12.502701 1.800884
1.865361 12.703365 2.227131
2.021783 12.529940 1.872942
1.987718 12.584059 1.952872
1.892595 12.690291 2.168098
1.918849 12.630562 2.120734
1.989679 12.545458 1.911725
1.883877 12.716575 2.237031
1.964569 12.569675 2.005066
1.860406 12.680209 2.262063
1.905363 12.646473 2.170616
1.879111 12.679142 2.210177
1.989277 12.561256 1.955878
1.999538 12.557563 1.933651
1.971587 12.554173 1.995242
1.974743 12.573603 1.996107
1.891349 12.659420 2.212020
1.861838 12.656219 2.248740
1.980127 12.536528 1.973925
1.886993 12.643221 2.192290
1.877574 12.669736 2.257169
1.920820 12.580033 2.144140
1.958717 12.520667 2.025234
1.852692 12.631698 2.281109
1.919144 12.599911 2.203808
1.877208 12.631953 2.236186
2.404516 12.542279 2.218061
1.970823 12.526849 2.018544
1.884031 12.610521 2.230233
1.869292 12.610157 2.281086
1.876957 12.623245 2.282259
1.887078 12.596498 2.221432
1.851032 12.584042 2.303841
1.874387 12.584567 2.261846
1.892278 12.563680 2.260913
1.866868 12.562379 2.305913
1.857993 12.575006 2.293405
1.877804 12.548643 2.244234
1.849005 12.535875 2.327835
1.867867 12.537294 2.285686
1.851262 12.512619 2.320573
