# .PCD v0.7 - Point Cloud Data file format
VERSION 0.7
FIELDS x y z
SIZE 4 4 4
TYPE F F F
COUNT 1 1 1
WIDTH 79
HEIGHT 1
VIEWPOINT 0 0 0 1
POINTS 79
DATA ascii
-1.959501 16.302599 0.323024
-2.065210 16.424908 0.488824
-2.042360 16.390276 0.437364
-2.088319 16.366249 0.629826
-1.968519 16.437038 0.316818
-2.074968 16.563822 0.495842
-2.018928 16.376673 0.389268
-1.881433 16.449230 -0.012231
-2.043969 16.354837 0.530334
-2.053905 16.536274 0.440533
-1.930429 16.422689 0.230967
-2.094234 16.498171 0.635727
-2.003670 16.389406 0.323706
-1.780060 16.413877 -0.152460
-1.974290 16.572445 0.312979
-1.862985 16.466930 -0.055715
-1.895296 16.383913 0.151583
-1.739869 16.349394 -0.225716
-2.082265 16.709959 0.504591
-2.031051 16.525908 0.387228
-1.623297 16.353098 -0.551214
-1.882263 16.596224 -0.022101
-2.053106 16.669903 0.445418
-2.049834 16.496002 0.532375
-1.715513 16.534679 -0.487052
-1.936558 16.567696 0.224108
-1.861003 16.359751 0.065627
-1.693225 16.453243 -0.515515
-1.776499 16.556089 -0.173644
-2.007078 16.530283 0.319926
-1.826456 16.402906 -0.143860
-1.983742 16.726791 0.307699
-1.843751 16.501709 -0.100023
-1.871730 16.635483 -0.073762
-1.902794 16.537495 0.139264
-2.134154 16.936804 0.508748
-1.738091 16.499617 -0.251135
-1.614359 16.504560 -0.589133
-2.028908 16.663038 0.390110
-1.913189 16.805916 -0.045702
-1.713219 16.436977 -0.327872
-2.094656 16.885128 0.445245
-1.707423 16.687889 -0.513036
-1.944250 16.727034 0.215212
-1.675493 16.364338 -0.402467
-2.069804 16.668709 0.534480
-1.864101 16.517017 0.049155
-1.695467 16.629101 -0.554881
-1.774899 16.714838 -0.196798
-2.011315 16.921633 0.297935
-2.007106 16.679462 0.317872
-1.829712 16.565821 -0.167550
-1.677086 16.558466 -0.586200
-1.843290 16.659639 -0.117426
-1.896059 16.841415 -0.098500
-1.914367 16.713139 0.125187
-1.615550 16.682211 -0.637079
-1.744509 16.678143 -0.284144
-1.654973 16.496622 -0.630122
-2.072741 16.886673 0.384101
-1.936298 17.017357 -0.065034
-1.706004 16.596512 -0.356930
-2.127179 17.098261 0.447978
-1.733154 16.925440 -0.568439
-1.964288 16.922899 0.202757
-2.099918 16.871435 0.535652
-1.670571 16.530449 -0.436594
-1.716143 16.856750 -0.613157
-1.870906 16.688593 0.033176
-2.062284 16.931303 0.303977
-1.844576 16.767378 -0.200085
-1.871577 16.884689 -0.150947
-1.930934 16.909752 0.109360
-2.102696 17.102238 0.382312
-1.647128 16.673162 -0.675545
-1.713640 16.794621 -0.397580
-1.668987 16.720730 -0.477767
-1.888316 16.897985 0.011567
-1.859583 16.983927 -0.233054
