# .PCD v0.7 - Point Cloud Data file format
VERSION 0.7
FIELDS x y z
SIZE 4 4 4
TYPE F F F
COUNT 1 1 1
WIDTH 58
HEIGHT 1
VIEWPOINT 0 0 0 1
POINTS 58
DATA ascii
-2.082237 17.675911 0.083604
-2.108402 17.739492 0.237290
-2.078380 17.805311 0.080959
-2.247464 17.687538 0.558209
-1.799598 17.617691 -0.490040
-1.934417 17.770130 -0.255120
-1.770194 17.725279 -0.666052
-2.069084 17.678257 0.044111
-2.291173 17.875914 0.562235
-2.130918 18.051384 0.219717
-2.072751 17.709871 0.148379
-2.234405 17.679607 0.506405
-1.747643 17.853321 -0.692407
-2.054891 17.799355 0.040243
-2.293479 18.015562 0.571329
-1.893743 17.685085 -0.330895
-2.137222 18.215727 0.212138
-2.228997 17.712259 0.567426
-1.776718 17.687725 -0.545557
-1.754449 18.049110 -0.748370
-2.261219 17.848085 0.507587
-2.050153 17.667881 0.063106
-2.081333 17.992437 0.022125
-2.054651 17.699421 0.003424
-2.312846 18.191521 0.581153
-1.798102 18.125462 -0.588099
-2.090253 18.027855 0.124724
-2.235921 17.853289 0.571441
-2.209161 17.666691 0.439975
-1.763281 17.832596 -0.573644
-2.262290 17.987625 0.513750
-2.069530 17.871645 -0.014913
-2.189291 17.694456 0.465026
-1.765838 17.626781 -0.575653
-2.262507 18.034914 0.573215
-2.243527 17.849669 0.436389
-1.781091 18.049738 -0.628197
-2.284279 18.169849 0.517409
-2.055141 17.978512 0.035312
-2.056058 18.007730 -0.021758
-2.040530 17.738325 -0.055250
-2.280139 18.213211 0.578149
-1.756655 17.781286 -0.609677
-2.016178 17.775537 -0.041388
-2.244100 17.994566 0.437041
-2.302735 18.357435 0.524031
-1.824457 17.653893 -0.510569
-2.055244 17.918108 -0.078987
-1.752532 17.958548 -0.651853
-2.213529 18.019392 0.463566
-1.865480 18.112753 -0.512201
-2.258447 18.169971 0.437605
-1.734295 17.715919 -0.650262
-2.230444 18.206657 0.463961
-2.013573 18.108999 -0.076242
-2.279248 18.369297 0.438302
-1.823861 18.016319 -0.594687
-1.820362 18.220911 -0.641322
