# .PCD v0.7 - Point Cloud Data file format
VERSION 0.7
FIELDS x y z
SIZE 4 4 4
TYPE F F F
COUNT 1 1 1
WIDTH 71
HEIGHT 1
VIEWPOINT 0 0 0 1
POINTS 71
DATA ascii
-2.252905 17.777302 0.553448
-2.191362 17.777580 0.494516
-2.217762 17.689365 0.548044
-2.058723 17.778116 0.084523
-2.231686 17.950502 0.491555
-2.208575 17.788172 0.553753
-2.279371 18.060997 0.557363
-2.082892 17.947641 0.064698
-1.999922 17.893158 -0.132514
-2.237344 18.086870 0.493826
-2.249863 17.957020 0.554204
-2.134995 17.789248 0.251389
-2.295514 18.220261 0.560198
-2.016668 17.857759 -0.082615
-2.009117 18.052118 -0.156599
-1.839437 17.938295 -0.605636
-1.895685 17.975845 -0.423490
-2.250958 18.242872 0.496725
-2.125068 18.008514 0.151799
-2.255963 18.089745 0.561131
-1.840811 17.822275 -0.520843
-2.030926 17.832256 -0.049250
-2.306129 18.381090 0.565005
-2.037878 18.027651 -0.107016
-1.837822 18.103523 -0.646842
-1.898031 18.147308 -0.459547
-2.268329 18.413763 0.499308
-1.958004 17.868324 -0.220951
-2.271790 18.243773 0.567244
-2.047416 17.827074 -0.018714
-1.862156 18.010666 -0.570823
-2.057722 18.005217 -0.071553
-2.159313 18.069927 0.235360
-2.182004 17.965923 0.331341
-1.758889 17.951876 -0.760544
-1.857038 17.894152 -0.501486
-1.841196 18.291777 -0.695461
-1.897274 18.326420 -0.494699
-2.135628 18.317051 0.131712
-2.056575 17.967236 -0.029923
-1.880307 17.839891 -0.456908
-1.856232 18.165863 -0.603954
-1.807243 17.953808 -0.665924
-2.049764 18.135405 -0.079277
-2.159812 18.208632 0.229857
-2.198283 18.112299 0.324993
-2.005502 17.971113 -0.150840
-1.754405 18.117674 -0.808766
-1.866270 18.063303 -0.538678
-1.909382 18.544487 -0.541036
-2.055054 18.102268 -0.036607
-2.157335 18.514679 0.116502
-1.900465 18.016180 -0.495990
-1.805960 18.112621 -0.707191
-2.187659 18.396330 0.219017
-2.210346 18.260462 0.321093
-1.861199 18.355394 -0.649120
-1.871674 18.237577 -0.576011
-1.737661 17.978064 -0.839226
-1.842601 18.072306 -0.592570
-1.889156 18.151525 -0.515714
-2.085092 18.511290 -0.118486
-1.862113 18.553625 -0.693334
-1.873547 18.420122 -0.613637
-1.853369 18.255733 -0.640444
-1.997985 18.568247 -0.340277
-2.092865 18.465631 -0.066453
-1.899433 18.334934 -0.551722
-1.793246 18.459551 -0.795970
-1.857656 18.441780 -0.686299
-1.911592 18.537407 -0.591064
