# .PCD v0.7 - Point Cloud Data file format
VERSION 0.7
FIELDS x y z
SIZE 4 4 4
TYPE F F F
COUNT 1 1 1
WIDTH 315
HEIGHT 1
VIEWPOINT 0 0 0 1
POINTS 315
DATA ascii
-2.067744 16.628376 0.512231
-2.069381 16.696445 0.505197
-2.091360 16.624695 0.576047
-1.965954 16.641315 0.228506
-1.937804 16.652634 0.157299
-2.059996 16.759295 0.499294
-2.086487 16.685865 0.571020
-1.971222 16.714764 0.215482
-1.846458 16.636122 -0.098492
-1.937305 16.725668 0.143580
-2.090441 16.858366 0.487393
-1.971424 16.642504 0.244373
-2.103775 16.763229 0.564993
-1.962116 16.657335 0.217722
-1.968442 16.785601 0.204767
-2.113151 16.688938 0.629794
-1.815863 16.680412 -0.187606
-1.848346 16.712429 -0.117989
-1.961234 16.821064 0.122077
-2.184231 17.006744 0.654442
-1.977512 16.715630 0.233409
-2.097741 16.940153 0.479631
-2.117763 16.845337 0.557556
-1.839306 16.622875 -0.104025
-1.997031 16.884140 0.185762
-1.966472 16.730877 0.205072
-2.128283 16.763376 0.624656
-1.972970 16.640421 0.251626
-1.737445 16.691097 -0.409462
-1.819870 16.764557 -0.212129
-1.836805 16.782066 -0.131250
-1.981163 16.665134 0.272451
-1.949896 16.892748 0.111443
-1.974651 16.785318 0.225452
-1.706872 16.705618 -0.498158
-1.849192 16.689774 -0.093620
-1.649583 16.663933 -0.640972
-2.101302 17.024263 0.472698
-2.127736 16.925657 0.551421
-1.840829 16.697914 -0.124067
-1.993411 16.827015 0.185385
-1.988674 16.957502 0.176614
-2.136276 16.835102 0.621433
-1.980761 16.714069 0.241995
-1.728337 16.766100 -0.431624
-1.744790 16.647682 -0.368880
-1.822008 16.849846 -0.236249
-1.983786 16.735117 0.261883
-1.860482 16.884289 -0.163309
-1.737877 16.655270 -0.400950
-1.859658 16.642307 -0.049525
-1.624872 16.706594 -0.728766
-2.003723 16.670174 0.331209
-1.976858 16.648199 0.256507
-1.958967 16.985029 0.094331
-2.006197 16.886486 0.207591
-1.854065 16.767742 -0.111653
-1.694231 16.780294 -0.520918
-1.640757 16.741379 -0.671130
-2.107765 17.112869 0.466236
-2.128000 17.000959 0.546899
-1.850611 16.666149 -0.080770
-1.838673 16.773378 -0.142612
-2.146748 16.911963 0.617489
-1.974818 16.886225 0.179147
-2.000753 17.050512 0.161324
-1.980129 16.783852 0.234128
-1.743567 16.867722 -0.473541
-1.655709 16.653473 -0.615391
-1.742842 16.724447 -0.392644
-2.010333 16.826958 0.245096
-1.822588 16.939434 -0.260109
-1.854900 16.965204 -0.181173
-1.861125 16.715258 -0.066476
-1.733308 16.731613 -0.425684
-1.608814 16.781115 -0.754571
-2.003329 16.735445 0.322577
-1.983228 16.721439 0.248818
-1.666292 16.688499 -0.607574
-1.993043 16.953461 0.201799
-1.968286 17.082336 0.076387
-1.871502 16.864122 -0.138731
-1.701443 16.878359 -0.560204
-1.643873 16.834896 -0.713832
-2.120896 17.212269 0.459689
-1.883486 16.659939 0.008667
-2.134989 17.085167 0.542964
-1.852754 16.743509 -0.097340
-2.150606 16.985683 0.614217
-1.845631 16.860128 -0.166012
-1.620664 16.683491 -0.737880
-1.983494 16.974216 0.164937
-2.010380 17.146992 0.147008
-1.757705 16.678579 -0.338388
-2.009391 16.882832 0.219256
-1.598011 16.673298 -0.731905
-1.854816 16.654791 -0.072531
-1.750642 16.683867 -0.364914
-1.735124 16.951077 -0.499137
-2.000911 16.891607 0.238458
-1.654458 16.736023 -0.649739
-1.742928 16.807907 -0.418664
-1.858346 17.060242 -0.204899
-1.827902 17.037271 -0.288035
-1.844894 16.774723 -0.075059
-2.032943 16.826130 0.308278
-1.749907 16.831553 -0.466460
-1.979028 16.787878 0.243790
-1.780745 16.630243 -0.255674
-1.654240 16.760830 -0.630930
-2.008135 17.047205 0.188322
-1.861574 16.937088 -0.151702
-1.973869 17.181955 0.059264
-1.883247 16.728382 -0.005867
-1.699267 16.970568 -0.594247
-1.633485 16.920591 -0.747531
-2.121355 17.304026 0.453587
-1.678946 16.678734 -0.550483
-2.143145 17.174297 0.537820
-1.866267 16.831306 -0.118326
-2.148185 17.058481 0.611808
-1.848910 16.947302 -0.187918
-1.994230 17.067959 0.148802
-2.015014 17.243689 0.133699
-2.006668 16.957336 0.212876
-1.751296 16.751165 -0.358606
-1.758769 16.649456 -0.340755
-1.855651 16.727961 -0.085819
-1.747694 16.759586 -0.385550
-2.004451 16.971010 0.227414
-1.673249 16.706404 -0.580057
-1.734926 17.047907 -0.532322
-1.754878 16.906296 -0.454456
-1.871244 16.875469 -0.105514
-2.021423 16.885962 0.303198
-1.863852 17.161020 -0.230552
-1.824634 17.132927 -0.312437
-1.740657 16.911240 -0.490348
-1.636193 16.697643 -0.688569
-2.005641 16.883406 0.231376
-1.780658 16.701876 -0.276103
-2.013357 17.137625 0.178223
-1.634658 16.707556 -0.684554
-1.862848 17.026163 -0.171099
-1.913640 16.825989 -0.033527
-1.978782 17.286705 0.041683
-1.687345 16.649353 -0.527136
-1.704389 17.077301 -0.635838
-1.682487 16.763689 -0.584446
-2.147675 17.261961 0.534838
-2.162560 17.146446 0.608884
-1.868131 16.914103 -0.134505
-2.130101 17.409933 0.447739
-1.849872 17.037191 -0.210957
-1.989912 17.151672 0.138556
-1.756351 16.720772 -0.358859
-2.018142 17.342794 0.121317
-1.770904 16.851839 -0.397570
-2.008571 17.039906 0.204872
-1.653769 16.639650 -0.584734
-1.860778 16.806980 -0.100923
-1.763186 16.858290 -0.420756
-2.011755 17.056694 0.215795
-1.674455 16.791052 -0.611695
-1.641294 16.903645 -0.713430
-1.709396 16.706894 -0.489947
-1.750283 16.993097 -0.479632
-2.033328 16.967131 0.293474
-1.731885 17.147879 -0.565401
-1.870115 16.956581 -0.123200
-1.872619 17.271528 -0.258988
-1.790182 16.785311 -0.302962
-1.632639 16.778921 -0.720281
-1.833011 17.247080 -0.345516
-1.738788 17.002625 -0.520777
-2.008049 16.962523 0.225577
-2.018462 17.231806 0.166764
-1.631994 16.789667 -0.716983
-1.892888 16.883162 -0.039244
-1.868357 17.122971 -0.192985
-1.982245 17.391970 0.025696
-2.171048 17.233801 0.607684
-1.688892 16.732246 -0.554801
-2.151561 17.353823 0.531737
-1.686358 16.854807 -0.622016
-1.867733 16.997730 -0.151146
-1.658253 16.716810 -0.640615
-1.856662 17.139120 -0.236479
-1.762571 16.805893 -0.383685
-2.027288 17.140675 0.192906
-1.999755 17.254114 0.123043
-1.761624 16.928497 -0.418033
-1.658653 16.723862 -0.617889
-1.877662 16.900738 -0.123358
-2.023138 17.450285 0.108440
-2.022796 17.149599 0.203264
-1.755556 16.937357 -0.440545
-1.678222 16.881960 -0.646834
-2.036359 17.046013 0.283979
-1.701659 16.780176 -0.511015
-1.638368 16.998199 -0.752684
-1.751756 17.091387 -0.511835
-1.877180 17.049088 -0.145366
-1.734331 17.261646 -0.604940
-1.791152 16.865622 -0.325957
-1.865834 17.371490 -0.279966
-2.019098 17.051466 0.216833
-1.623099 16.859379 -0.747833
-1.726140 17.086809 -0.543674
-1.835035 17.359146 -0.374970
-2.025885 17.332802 0.156343
-1.622980 16.869696 -0.745779
-1.641410 17.028776 -0.732876
-1.896607 16.964792 -0.055869
-1.870159 17.221144 -0.213717
-2.177300 17.321043 0.606359
-1.876755 17.095793 -0.172788
-1.985344 17.505520 0.009105
-2.158988 17.455549 0.529154
-1.859015 17.239885 -0.261902
-1.766369 16.893534 -0.407204
-1.874538 16.979774 -0.134760
-2.025757 17.228701 0.185561
-2.005525 17.356659 0.108157
-1.758805 17.016966 -0.444659
-2.017968 17.232790 0.194561
-1.763664 17.037840 -0.473103
-2.045751 17.132532 0.274542
-1.716980 16.878916 -0.551994
-1.870503 17.131773 -0.161159
-1.741558 17.181644 -0.535794
-1.789755 16.946564 -0.346973
-1.725239 17.366629 -0.638343
-2.028084 17.144201 0.209924
-1.865346 17.484943 -0.305344
-1.731482 17.195530 -0.582682
-1.907206 17.057610 -0.077458
-1.823683 17.462652 -0.397532
-2.034781 17.441862 0.144565
-2.183299 17.412804 0.605776
-1.873045 17.327063 -0.236671
-1.697630 16.910107 -0.618396
-1.882097 17.194277 -0.192939
-1.669563 17.377586 -0.731783
-1.762586 16.976051 -0.426569
-1.878322 17.069054 -0.150791
-1.858945 17.343166 -0.286024
-2.029302 17.323208 0.178121
-1.760721 17.113680 -0.475353
-2.014475 17.467793 0.093259
-2.026466 17.331982 0.181975
-2.044572 17.212255 0.267764
-1.751771 17.119629 -0.490853
-1.706399 16.955324 -0.572974
-1.885063 17.241743 -0.188599
-1.740412 17.289036 -0.569067
-1.788688 17.033674 -0.371597
-1.728182 17.494390 -0.683346
-2.030485 17.232847 0.204015
-1.908442 17.143635 -0.093465
-1.726516 17.298508 -0.616072
-1.698921 17.001438 -0.649140
-1.881365 17.444693 -0.262976
-1.664169 17.117537 -0.710960
-1.884123 17.294445 -0.211074
-1.644614 16.966112 -0.726124
-1.769720 17.074549 -0.455666
-1.890243 17.171610 -0.171975
-1.643724 16.972019 -0.703554
-1.751520 17.200989 -0.498706
-2.042101 17.433840 0.167444
-1.856365 17.451797 -0.309853
-2.052312 17.305902 0.257560
-2.033793 17.435795 0.170506
-1.763497 17.235054 -0.529473
-1.708933 17.052734 -0.607698
-1.653452 17.148895 -0.732712
-1.884961 17.342009 -0.209291
-1.786117 17.123199 -0.395295
-1.740379 17.403223 -0.604228
-2.040415 17.334068 0.196971
-1.908225 17.234165 -0.111651
-1.719911 17.408615 -0.650214
-1.887268 17.401415 -0.231085
-1.656350 17.215044 -0.744509
-1.644576 17.062126 -0.761483
-1.770875 17.172230 -0.480593
-1.897100 17.273245 -0.189366
-1.645939 17.071163 -0.742252
-1.751690 17.308590 -0.531504
-2.060728 17.403950 0.247738
-1.754315 17.331907 -0.552890
-1.714908 17.158171 -0.646954
-1.647761 17.250261 -0.767495
-1.884758 17.446022 -0.231326
-1.796625 17.231621 -0.429604
-2.045417 17.433607 0.191624
-1.913010 17.334002 -0.130920
-1.889385 17.512247 -0.252073
-1.771949 17.272718 -0.506541
-1.891582 17.367352 -0.203003
-2.061201 17.495609 0.241548
-1.750888 17.418161 -0.564612
-1.751906 17.443701 -0.582617
-1.709212 17.255577 -0.677964
-1.793314 17.329082 -0.454768
-1.915899 17.435928 -0.150126
-1.669766 17.274376 -0.723737
-1.768369 17.375628 -0.531295
-1.898915 17.479967 -0.222397
-1.685717 17.335346 -0.694393
-1.788971 17.430408 -0.480921
-1.663351 17.378782 -0.755894
-1.770697 17.491705 -0.561315
-1.679684 17.444038 -0.729482
