# .PCD v0.7 - Point Cloud Data file format
VERSION 0.7
FIELDS x y z
SIZE 4 4 4
TYPE F F F
COUNT 1 1 1
WIDTH 87
HEIGHT 1
VIEWPOINT 0 0 0 1
POINTS 87
DATA ascii
-2.154710 17.758476 0.433277
-1.985540 17.745295 -0.023817
-2.029269 17.798107 0.070074
-2.183293 17.792059 0.522660
-2.162316 18.010666 0.428276
-2.024925 17.920910 0.059158
-1.845413 17.843737 -0.378904
-2.041425 17.778296 0.115940
-2.012972 17.806782 0.054618
-1.986563 18.017326 -0.058697
-2.169497 18.155054 0.426135
-2.034440 18.068821 0.043061
-2.038557 17.895641 0.107510
-1.859598 18.012951 -0.418925
-1.872602 17.796057 -0.328442
-1.815078 18.004988 -0.530192
-2.199960 18.045509 0.523473
-2.053471 17.767563 0.145764
-2.042019 17.761366 0.138195
-1.842582 17.806658 -0.385936
-2.180527 18.312435 0.424355
-1.691463 17.766506 -0.757894
-2.058669 18.054987 0.092776
-1.869543 18.187910 -0.460351
-1.855512 17.909334 -0.344014
-1.812484 18.168531 -0.569822
-2.206853 18.181839 0.525567
-2.044996 17.874878 0.142412
-2.019558 18.077873 0.025587
-2.054388 18.402693 0.010159
-2.197213 18.493093 0.421779
-1.877737 17.790430 -0.298551
-2.063617 17.768497 0.175623
-1.716623 17.913101 -0.751700
-2.232280 18.081358 0.616078
-1.846374 18.320646 -0.480436
-1.847309 18.041420 -0.367142
-1.877030 17.862799 -0.307612
-2.223446 18.342274 0.525888
-1.807745 18.338667 -0.608647
-2.075868 18.043961 0.127277
-1.734213 17.777952 -0.667983
-2.049149 18.013620 0.115870
-1.846554 18.108225 -0.454110
-1.738593 17.812006 -0.680255
-1.998212 18.518728 -0.119736
-1.913709 17.763384 -0.208680
-2.061916 17.882839 0.173526
-2.241838 18.216225 0.619789
-1.864038 18.542078 -0.532234
-1.887366 18.016647 -0.336793
-1.866452 18.230415 -0.408725
-1.898044 17.829266 -0.273456
-2.239926 18.512049 0.528555
-1.720535 17.902496 -0.699759
-1.810137 18.538507 -0.657123
-2.042279 18.414415 -0.011974
-1.843007 18.264874 -0.486182
-1.779778 17.782278 -0.574386
-1.907782 17.880192 -0.227187
-2.088990 18.042612 0.162375
-2.261407 18.374378 0.625364
-2.078665 18.060478 0.201013
-1.901519 18.188391 -0.369739
-1.717890 18.052740 -0.743780
-1.762358 17.891668 -0.597712
-2.024899 18.552935 -0.019508
-1.728799 18.102291 -0.757819
-1.871899 18.207876 -0.378592
-2.274693 18.531593 0.631782
-2.088629 18.201899 0.190469
-1.763829 18.012186 -0.689387
-1.873594 18.597776 -0.477446
-2.059152 18.454350 0.081361
-2.093024 18.500198 0.105793
-1.709670 18.205498 -0.786246
-1.770521 18.053738 -0.645242
-1.851818 18.653490 -0.572839
-1.718467 18.256762 -0.795336
-2.098925 18.355064 0.180023
-1.896955 18.246304 -0.331267
-1.765836 18.202852 -0.683344
-1.877158 18.557293 -0.446821
-2.112073 18.495235 0.151052
-2.106791 18.510744 0.170868
-1.928339 18.635365 -0.394834
-1.744669 18.485125 -0.797059
