# .PCD v0.7 - Point Cloud Data file format
VERSION 0.7
FIELDS x y z
SIZE 4 4 4
TYPE F F F
COUNT 1 1 1
WIDTH 93
HEIGHT 1
VIEWPOINT 0 0 0 1
POINTS 93
DATA ascii
1.480669 22.433786 0.961564
1.465480 22.445126 0.973453
1.546973 22.317553 0.753746
1.423735 22.450911 1.077123
1.463213 22.386967 1.018854
1.511962 22.417612 0.898103
1.474681 22.333246 0.985720
1.465081 22.351904 0.997296
1.534047 22.322905 0.842801
1.538198 22.218445 0.784248
1.459408 22.396267 1.008690
1.455658 22.362024 1.008820
1.399777 22.425667 1.161485
1.420956 22.355099 1.099727
1.500054 22.315643 0.921266
1.460537 22.290121 1.044260
1.316775 22.443279 1.365515
1.327572 22.401154 1.356763
1.474057 22.244913 1.011052
1.531315 22.235426 0.870329
1.266200 22.475321 1.500369
1.462855 22.259357 1.020043
1.291012 22.408218 1.428381
1.366054 22.403263 1.236709
1.458775 22.303286 1.027663
1.461810 22.279991 1.031278
1.311988 22.447622 1.383803
1.398764 22.333969 1.180947
1.425380 22.271767 1.124246
1.552844 22.139700 0.768340
1.504261 22.238077 0.946913
1.312065 22.389528 1.385789
1.446644 22.185266 1.065330
1.313247 22.343548 1.375295
1.321939 22.302309 1.368736
1.469236 22.155569 1.033688
1.524385 22.146938 0.895162
1.461229 22.173796 1.041488
1.363112 22.313265 1.252273
1.261212 22.373140 1.509280
1.296899 22.322763 1.447403
1.459660 22.217424 1.045702
1.561183 22.083380 0.846051
1.454340 22.185478 1.048885
1.567529 22.067966 0.784833
1.308738 22.347666 1.390296
1.406023 22.257555 1.204047
1.419888 22.179295 1.144305
1.503329 22.157505 0.970216
1.312043 22.299858 1.396730
1.555937 21.960922 0.790307
1.319592 22.263313 1.391299
1.456547 22.114031 1.093466
1.332793 22.229376 1.389789
1.471606 22.077776 1.058600
1.369358 22.238689 1.271843
1.517478 22.060328 0.919276
1.468108 22.099581 1.064725
1.267551 22.291996 1.525644
1.300959 22.237978 1.465331
1.455407 22.128563 1.061398
1.458325 22.109104 1.069298
1.541826 21.986050 0.869834
1.316292 22.268265 1.403019
1.398613 22.167707 1.219848
1.427316 22.107426 1.168042
1.487834 22.062468 0.989023
1.321199 22.224680 1.412039
1.324646 22.185146 1.407069
1.453223 22.029980 1.115896
1.334149 22.148809 1.404805
1.370862 22.160769 1.288217
1.476414 22.007238 1.082948
1.521503 21.991373 0.944973
1.461911 22.015221 1.083609
1.460728 22.053854 1.080609
1.303726 22.155268 1.483026
1.453848 22.025127 1.086484
1.315628 22.178257 1.410307
1.395071 22.084810 1.237039
1.424435 22.026752 1.188173
1.495986 21.998369 1.013536
1.324682 22.145092 1.424144
1.336496 22.118858 1.425969
1.339514 22.076929 1.422927
1.368691 22.082312 1.303117
1.297007 22.065853 1.494323
1.336356 22.121103 1.430865
1.404032 22.020996 1.259483
1.599444 22.401165 1.591323
1.319764 22.022238 1.429644
1.370923 22.012199 1.320269
1.319740 22.020660 1.430260
