# .PCD v0.7 - Point Cloud Data file format
VERSION 0.7
FIELDS x y z
SIZE 4 4 4
TYPE F F F
COUNT 1 1 1
WIDTH 31
HEIGHT 1
VIEWPOINT 0 0 0 1
POINTS 31
DATA ascii
1.523872 23.902130 0.731205
1.377846 23.976274 1.068771
1.341193 24.083113 1.261810
1.505117 23.927954 0.768887
1.518673 23.722013 0.767717
1.518229 23.771215 0.661814
1.331502 24.003643 1.168105
1.379705 23.795328 1.094741
1.335156 23.881437 1.274135
1.490159 23.946793 0.805118
1.493893 23.736069 0.800557
1.498350 23.865709 0.752764
1.316085 23.968534 1.311765
1.523263 23.619638 0.701802
1.334719 23.825962 1.188740
1.303072 24.039133 1.270627
1.340662 23.722084 1.292003
1.301507 24.053684 1.349723
1.477655 23.995312 0.823835
1.490865 23.776270 0.835719
1.458699 23.948124 0.841352
1.497901 23.703777 0.788735
1.316548 23.790920 1.321983
1.306887 23.867252 1.286918
1.343509 23.676060 1.211197
1.310213 23.883936 1.360320
1.481660 23.824659 0.851257
1.456416 23.780161 0.873143
1.312329 23.711599 1.303295
1.476360 23.652479 0.875365
1.453583 23.621819 0.902083
