# .PCD v0.7 - Point Cloud Data file format
VERSION 0.7
FIELDS x y z
SIZE 4 4 4
TYPE F F F
COUNT 1 1 1
WIDTH 219
HEIGHT 1
VIEWPOINT 0 0 0 1
POINTS 219
DATA ascii
1.610812 21.836782 0.815733
1.637981 21.770491 0.715946
1.630683 21.829210 0.709494
1.575633 21.834730 0.930050
1.596830 21.765503 0.839307
1.584849 21.854860 0.880011
1.625669 21.841951 0.732694
1.616823 21.696041 0.740042
1.617644 21.758080 0.733402
1.622059 21.820044 0.731770
1.467308 21.890926 1.204169
1.504674 21.843946 1.109144
1.572087 21.840786 0.931108
1.564542 21.765514 0.950569
1.625869 21.701851 0.721091
1.597181 21.706285 0.865355
1.581331 21.791407 0.903771
1.571002 21.869225 0.945107
2.207796 22.046453 0.844230
2.205742 22.122784 0.833081
1.573781 21.847155 0.935397
1.472532 21.833822 1.224510
1.570189 21.778656 0.952722
1.499450 21.778101 1.129673
1.616723 21.814117 0.740351
1.477573 21.855335 1.167499
1.560946 21.705765 0.972838
1.643071 21.569752 0.712395
1.622513 21.642017 0.745807
1.591052 21.644148 0.889816
1.474232 21.854464 1.216205
1.570788 21.723616 0.925118
1.561736 21.802158 0.965542
1.628223 21.649744 0.783370
1.577869 21.854761 0.926407
1.569312 21.780617 0.954196
1.540762 21.875763 0.999470
1.464094 21.766768 1.239528
1.607456 21.792379 0.812197
1.551492 21.705528 0.969250
2.198840 22.189297 0.836947
1.491417 21.712723 1.148830
1.473025 21.791574 1.185171
1.476014 21.871380 1.209383
1.554025 21.643225 0.993655
1.463666 21.866764 1.227954
1.631196 21.508795 0.737421
2.194715 21.963709 0.846542
1.462843 21.784260 1.228900
1.565351 21.662642 0.947095
1.589848 21.587069 0.913213
1.559798 21.741880 0.986409
1.619498 21.660938 0.805605
1.615678 21.529446 0.816359
1.618385 21.586988 0.806499
1.639504 21.600115 0.714481
1.565837 21.782452 0.941960
1.471892 21.884445 1.187770
1.537729 21.812639 1.018678
1.557420 21.711926 0.970699
1.603713 21.729940 0.833147
1.467965 21.712631 1.259286
1.377886 21.792793 1.477234
1.554132 21.649733 0.990297
1.631895 21.655518 0.710399
1.480939 21.647474 1.165747
1.471409 21.731894 1.204794
1.472377 21.804842 1.222762
1.550369 21.586264 1.014807
1.456159 21.799860 1.243303
1.649525 21.466885 0.765422
1.437033 21.873758 1.277888
1.460810 21.723833 1.244014
1.637770 21.493702 0.719954
1.566894 21.607870 0.970744
1.581800 21.527407 0.935889
1.548979 21.676952 1.004193
1.615898 21.602121 0.827507
1.643754 21.484751 0.713338
1.635418 21.545162 0.730008
1.618312 21.478443 0.841297
1.617139 21.532677 0.828778
1.630004 21.538870 0.735997
1.527640 21.747021 1.034723
1.477088 21.825331 1.203113
1.563523 21.719585 0.959068
1.616257 21.583109 0.820185
1.553406 21.651438 0.988461
1.461843 21.651936 1.273935
1.599581 21.668776 0.854591
1.626814 21.596046 0.730766
1.553050 21.593325 1.010010
1.619645 21.638027 0.803613
1.369197 21.725849 1.489807
1.465536 21.740955 1.234886
1.466436 21.671261 1.222216
1.480763 21.591230 1.185790
1.551305 21.532854 1.036511
1.450987 21.738382 1.258654
1.435014 21.812397 1.293370
1.637588 21.408710 0.789330
1.469276 21.673244 1.264324
1.618868 21.478327 0.818768
1.633958 21.438850 0.743677
1.554360 21.546255 0.988811
1.543298 21.616999 1.023355
1.610966 21.545343 0.849196
1.581100 21.473606 0.959371
1.640855 21.430977 0.737022
1.628636 21.488077 0.751032
1.608941 21.420824 0.863764
1.519919 21.684988 1.051518
1.614976 21.477299 0.851100
1.474332 21.761721 1.215706
1.559876 21.658756 0.975964
1.634291 21.488260 0.759162
1.613915 21.525965 0.840812
1.550832 21.594378 1.006639
1.603676 21.616394 0.876056
1.458287 21.595654 1.291400
1.613988 21.578068 0.822780
1.627254 21.540287 0.752020
1.555266 21.540649 1.030807
1.468661 21.684570 1.251752
1.603832 21.533054 0.772701
1.456631 21.608107 1.236277
1.480748 21.537672 1.207155
1.539657 21.473255 1.054168
1.452432 21.683447 1.276544
1.427782 21.749773 1.305982
1.464433 21.613289 1.278089
1.656651 21.401491 0.769439
1.627395 21.430685 0.843747
1.553441 21.492538 1.009869
1.540338 21.561205 1.042047
1.604537 21.487923 0.869374
1.572414 21.417154 0.979375
1.633271 21.438055 0.772981
1.520460 21.629892 1.069102
1.556195 21.599779 0.992136
1.610918 21.423458 0.872029
1.626194 21.432291 0.780369
1.473963 21.700769 1.229446
1.612084 21.472088 0.861541
1.550463 21.538218 1.024271
1.596153 21.556128 0.894577
1.446932 21.534626 1.302830
1.613276 21.522242 0.841283
1.543439 21.479290 1.046794
1.470275 21.628464 1.266737
1.585429 21.468084 0.790778
1.457889 21.555283 1.256758
1.446291 21.623674 1.290842
1.474074 21.479439 1.225262
1.545168 21.424320 1.076076
1.429009 21.694921 1.321455
1.454937 21.552570 1.290169
1.554888 21.442398 1.031661
1.537916 21.506836 1.061553
1.604175 21.435625 0.891249
1.548017 21.352552 0.995928
1.521175 21.576565 1.088366
1.558947 21.545588 1.009139
1.472626 21.641518 1.242089
1.610580 21.419724 0.880641
1.550602 21.485325 1.041966
1.590066 21.499290 0.913496
1.445177 21.481438 1.319851
1.608473 21.466143 0.859299
1.545597 21.429394 1.066479
1.457829 21.564598 1.276494
1.612877 21.433096 0.814141
1.459475 21.503971 1.275607
1.439746 21.566097 1.305241
1.536780 21.370304 1.094074
1.475858 21.428970 1.246183
1.428372 21.639769 1.336242
1.450215 21.497156 1.304492
1.540620 21.458353 1.082063
1.533974 21.379423 1.046731
1.516130 21.520555 1.103932
1.555223 21.488474 1.024552
1.464250 21.578852 1.251942
1.581552 21.441658 0.930548
1.545194 21.429668 1.058405
1.449494 21.433363 1.338583
1.603650 21.410976 0.876943
1.535171 21.373312 1.082115
1.455701 21.508812 1.289753
1.451615 21.447519 1.290171
1.437428 21.512409 1.321059
1.459682 21.368372 1.258865
1.422157 21.583693 1.349024
1.451581 21.445938 1.320903
1.525047 21.397314 1.096320
1.518662 21.469397 1.123122
1.551096 21.433554 1.040085
1.465826 21.524605 1.266165
1.539749 21.375864 1.074098
1.571722 21.385141 0.947759
1.451567 21.386244 1.357141
1.452257 21.454142 1.303173
1.438957 21.463865 1.338786
1.441510 21.392027 1.304559
1.418709 21.529013 1.362438
1.452912 21.396568 1.336567
1.509969 21.340466 1.110282
1.519301 21.419777 1.140896
1.549174 21.379532 1.055049
1.458506 21.466633 1.276927
1.453957 21.404432 1.317971
1.429564 21.408613 1.351065
1.416703 21.477755 1.376266
1.497369 21.357409 1.149501
1.472803 21.422192 1.296153
1.423487 21.356173 1.364801
1.427070 21.435711 1.396335
1.462673 21.364695 1.305541
1.405050 21.373188 1.399183
