# .PCD v0.7 - Point Cloud Data file format
VERSION 0.7
FIELDS x y z
SIZE 4 4 4
TYPE F F F
COUNT 1 1 1
WIDTH 250
HEIGHT 1
VIEWPOINT 0 0 0 1
POINTS 250
DATA ascii
1.595816 21.798683 0.742073
1.595613 21.817448 0.745072
1.545901 21.863880 0.933577
1.592064 21.777195 0.802079
2.172305 22.130007 0.847263
1.584935 21.769520 0.812434
1.546708 21.877153 0.931036
1.605187 21.849215 0.745086
1.566841 21.853426 0.883027
1.541379 21.812901 0.940378
1.606119 21.746531 0.734089
1.532394 21.797613 0.950590
1.583250 21.753061 0.766578
1.597423 21.840866 0.719011
1.583763 21.839817 0.824812
1.457389 21.879208 1.164802
1.589068 21.718801 0.822045
1.462563 21.866707 1.162904
1.589717 21.717567 0.834641
1.599016 21.689934 0.785449
1.535434 21.810875 0.947930
1.565792 21.796209 0.905791
1.532803 21.750809 0.956847
1.593132 21.725660 0.814221
2.173618 22.222246 0.846216
1.530793 21.742651 0.970999
1.583194 21.699636 0.790630
1.481763 21.849491 1.114276
1.582302 21.783861 0.848046
1.617933 21.798056 0.749662
1.457302 21.820173 1.180509
1.457534 21.871504 1.186975
1.592409 21.667097 0.842290
1.544315 21.818520 0.946810
1.456195 21.806437 1.178497
1.591354 21.665464 0.856598
1.601054 21.637491 0.806555
1.527387 21.748379 0.965992
1.540306 21.885736 0.981377
1.561999 21.738501 0.927456
1.606070 21.699560 0.741515
1.539680 21.699833 0.976110
1.501935 21.837809 1.057992
1.591134 21.671049 0.835475
1.533233 21.689857 0.991257
1.596671 21.654301 0.815438
1.479148 21.792582 1.132635
1.577735 21.725004 0.872166
1.458109 21.763151 1.195819
1.547317 21.815456 0.946076
1.374537 21.898458 1.401931
1.344572 21.884825 1.480399
1.450177 21.807461 1.201274
1.589383 21.611475 0.861110
1.534567 21.755619 0.966584
1.448754 21.856325 1.193842
1.459927 21.755295 1.197515
1.597615 21.583136 0.825845
1.580654 21.605177 0.874861
1.533466 21.698090 0.986952
1.606088 21.635658 0.742746
1.591454 21.674471 0.816693
1.560919 21.684055 0.949074
2.168914 21.994501 0.847938
1.522408 21.814892 1.000520
1.347222 21.850334 1.459135
1.538359 21.644608 0.993218
1.500880 21.781513 1.080373
1.590042 21.617533 0.856711
1.533821 21.638573 1.010023
1.387526 21.884447 1.345550
1.593994 21.579582 0.800933
1.594250 21.601879 0.836778
1.597383 21.704615 0.815631
1.474706 21.735346 1.150259
1.460712 21.709223 1.210718
1.574952 21.670162 0.895495
1.586772 21.670109 0.797524
1.534940 21.752907 0.966817
1.364309 21.833977 1.412690
1.451992 21.753294 1.218253
1.346069 21.826256 1.491946
1.581394 21.554451 0.879328
1.528434 21.697073 0.986298
1.452625 21.696712 1.211976
1.448375 21.799408 1.212080
1.598719 21.532375 0.845819
1.577205 21.551744 0.893769
1.538632 21.647640 1.007543
1.342130 21.865595 1.506024
1.450139 21.845665 1.206034
1.607432 21.585682 0.767231
1.554348 21.628614 0.968497
1.594528 21.623051 0.840225
1.347582 21.797323 1.473778
1.515513 21.754267 1.023072
1.528826 21.586050 1.007792
1.412331 21.869917 1.292610
1.488778 21.718697 1.097818
1.343925 21.908339 1.509674
1.587523 21.563347 0.876362
1.526221 21.582121 1.027013
1.384300 21.825254 1.361007
1.600154 21.532921 0.822812
1.587796 21.547306 0.858261
1.595632 21.650797 0.841388
1.467120 21.677963 1.167632
1.615378 21.581659 0.732684
1.452382 21.649630 1.222745
1.568511 21.614658 0.917360
1.365713 21.781069 1.430140
1.532961 21.697376 0.988447
1.614871 21.579468 0.740405
1.578323 21.502518 0.896625
1.455629 21.700390 1.235580
1.590477 21.620054 0.824334
1.445803 21.641403 1.226511
1.538270 21.650148 1.010021
1.447974 21.744333 1.229555
1.581021 21.504240 0.913700
1.590708 21.477200 0.863274
1.529617 21.589592 1.023332
1.452083 21.791428 1.225457
1.542313 21.570345 0.986482
1.343781 21.742222 1.486120
1.587159 21.568304 0.861343
1.595569 21.538685 0.812538
1.528891 21.535187 1.024957
1.514063 21.698330 1.046295
1.407416 21.809408 1.310157
1.487177 21.664663 1.117838
1.521836 21.530359 1.044795
1.576894 21.507599 0.895166
1.596812 21.481268 0.843399
1.583537 21.495483 0.878484
1.388581 21.772785 1.381994
1.587489 21.594896 0.864964
1.459911 21.622082 1.183394
1.442625 21.589371 1.233187
1.565696 21.562586 0.939545
1.362454 21.724646 1.444452
1.442737 21.639044 1.246158
1.577074 21.451841 0.914269
1.526020 21.640442 1.009476
1.594548 21.572414 0.849154
2.194358 21.849720 0.851723
1.454575 21.596212 1.246664
1.445732 21.689852 1.245917
1.524316 21.588854 1.025968
1.559845 21.443407 0.928403
1.596346 21.430958 0.883552
1.525646 21.536568 1.040641
1.445830 21.732943 1.242725
1.534807 21.516592 1.004773
1.599169 21.481905 0.812565
1.582527 21.514988 0.883173
1.599114 21.491465 0.835760
1.522989 21.480070 1.039847
1.509858 21.642815 1.068040
1.412227 21.756533 1.332736
1.481014 21.608887 1.136406
1.519674 21.479513 1.062074
1.576174 21.456516 0.914403
1.602966 21.435535 0.864891
1.386869 21.717892 1.399950
1.588802 21.447748 0.900369
1.463732 21.574568 1.203326
1.579349 21.539007 0.888534
1.447134 21.540323 1.249353
1.362009 21.673254 1.460406
1.440886 21.585154 1.261284
1.550532 21.503254 0.957656
1.562157 21.394087 0.928324
1.523609 21.588022 1.030810
1.445012 21.540419 1.260095
1.586797 21.517103 0.871494
1.444410 21.635544 1.262639
1.524513 21.537926 1.045573
1.515296 21.480551 1.056148
1.442288 21.677719 1.259948
1.532774 21.465685 1.024494
1.612237 21.438770 0.837448
1.578275 21.463171 0.903392
1.601360 21.443506 0.859841
1.525267 21.431046 1.056126
1.504225 21.586634 1.088199
1.407796 21.699306 1.350351
1.477162 21.556713 1.155779
1.516586 21.429424 1.078605
1.566829 21.403364 0.931577
1.384620 21.664331 1.415929
1.455201 21.519796 1.219185
1.577959 21.488541 0.911914
1.451634 21.492199 1.265137
1.361555 21.622786 1.475977
1.625987 21.441063 0.810147
1.439014 21.533104 1.275649
1.436330 21.487551 1.272752
1.552252 21.455700 0.980143
1.522105 21.536695 1.052127
1.582260 21.466480 0.894627
1.612852 21.431883 0.817091
1.438913 21.580069 1.276682
1.520651 21.486679 1.064563
1.528615 21.438965 1.076980
1.439639 21.624506 1.276774
1.520684 21.412031 1.040572
1.575430 21.413872 0.924429
1.494507 21.531969 1.106986
1.479685 21.508467 1.176569
1.400635 21.640671 1.367245
1.379641 21.609362 1.431186
1.448467 21.468119 1.234634
1.567041 21.434917 0.933244
1.443769 21.437737 1.276468
1.435300 21.481646 1.288901
1.443771 21.444386 1.292621
1.534308 21.398640 0.996014
1.516426 21.484198 1.070764
1.582666 21.419107 0.917595
1.429343 21.525194 1.289730
1.510782 21.433929 1.080143
1.426445 21.566204 1.289499
1.505363 21.487915 1.132367
1.472566 21.456215 1.193244
1.389287 21.581785 1.381080
1.366823 21.552557 1.442303
1.445386 21.418032 1.251161
1.429085 21.390026 1.301863
1.440460 21.385950 1.288864
1.435755 21.432287 1.304446
1.512156 21.434219 1.090220
1.433047 21.477755 1.307210
1.427542 21.517279 1.308707
1.487837 21.429588 1.147765
1.455415 21.399389 1.207034
1.384930 21.529106 1.399231
1.439535 21.369284 1.265832
1.372992 21.506809 1.463793
1.424735 21.378593 1.315147
1.430873 21.428747 1.323723
1.424465 21.467184 1.325235
1.481741 21.379284 1.166485
1.393950 21.485628 1.423501
1.367570 21.455872 1.478374
1.416606 21.373129 1.332489
1.425530 21.421019 1.343300
1.383992 21.431116 1.437384
1.411884 21.367682 1.354960
1.364779 21.373175 1.445926
