# .PCD v0.7 - Point Cloud Data file format
VERSION 0.7
FIELDS x y z
SIZE 4 4 4
TYPE F F F
COUNT 1 1 1
WIDTH 210
HEIGHT 1
VIEWPOINT 0 0 0 1
POINTS 210
DATA ascii
1.569041 22.454744 0.723743
1.565772 22.436373 0.726550
1.566249 22.440483 0.741368
1.610598 22.476400 0.762910
1.618189 22.481291 0.766461
1.573956 22.396646 0.752636
1.519807 22.473837 0.922126
1.496470 22.495363 0.989396
1.495193 22.490711 0.986133
1.559213 22.411686 0.817001
1.537917 22.424433 0.873668
1.471421 22.496519 1.046986
1.487479 22.454782 0.988582
1.488668 22.446306 1.004336
1.587257 22.309309 0.714563
1.479930 22.432447 1.005231
1.517506 22.408669 0.947384
1.565786 22.290632 0.735345
1.486024 22.423874 1.010300
1.484732 22.420139 1.006645
1.551902 22.346085 0.841451
1.523743 22.353230 0.892848
1.552529 22.306347 0.801238
1.558445 22.308775 0.801600
1.468302 22.432716 1.067819
1.450093 22.449249 1.123058
1.481593 22.385658 1.004626
1.397761 22.495020 1.254018
1.477425 22.375273 1.021212
1.569653 22.236788 0.740999
1.376885 22.506762 1.315962
1.471094 22.363165 1.023578
1.572981 22.277304 0.805938
1.576298 22.240528 0.759803
1.496547 22.330305 0.967828
1.469440 22.350016 1.028401
1.477005 22.352804 1.026987
1.544917 22.281969 0.864261
1.557732 22.249554 0.807543
1.559430 22.254114 0.815696
1.350199 22.501795 1.371928
1.521695 22.294136 0.914507
1.556207 22.248808 0.821210
1.557514 22.251627 0.825258
1.453345 22.360138 1.083750
1.327958 22.510452 1.424075
1.433991 22.376558 1.136209
1.472526 22.317343 1.020138
1.341018 22.505983 1.425751
1.337011 22.493259 1.418873
1.400178 22.433094 1.276462
1.468903 22.308392 1.037525
1.583579 22.171101 0.736136
2.152950 22.573612 0.849542
1.375185 22.442461 1.332963
1.471623 22.303679 1.044186
1.560075 22.210770 0.828390
1.498387 22.273636 0.992486
1.578802 22.145121 0.728672
1.338869 22.470100 1.430595
1.343636 22.458515 1.410675
1.465909 22.288422 1.049316
1.468856 22.288584 1.047015
1.536947 22.220455 0.885562
1.353616 22.444302 1.389440
1.559763 22.194674 0.833868
1.553900 22.192516 0.839254
1.514454 22.231909 0.934089
1.553602 22.192223 0.846255
1.553593 22.189207 0.841683
1.332638 22.454596 1.440277
1.450710 22.300535 1.104214
1.434845 22.318550 1.155172
1.467657 22.254768 1.036223
1.338726 22.442089 1.441165
1.340059 22.432192 1.433065
1.390741 22.363308 1.293613
1.467917 22.249153 1.056216
1.577638 22.112614 0.759381
1.360717 22.369228 1.344728
1.581526 22.094191 0.736126
1.468423 22.243565 1.063460
1.559309 22.155420 0.853713
1.575125 22.127371 0.804627
1.338194 22.408403 1.443451
1.581325 22.091415 0.750054
1.347595 22.398525 1.424811
1.487104 22.207474 1.013159
1.464366 22.231688 1.071386
1.535416 22.163721 0.907638
1.471031 22.232483 1.070423
1.349997 22.382444 1.404598
1.581587 22.073809 0.736567
1.557150 22.138094 0.858915
1.553836 22.138288 0.862075
1.516961 22.178200 0.955465
1.331198 22.395447 1.454067
1.547616 22.128624 0.859962
1.551525 22.134060 0.867532
1.446571 22.240269 1.123152
1.429563 22.258171 1.171330
1.471623 22.199636 1.054160
1.331581 22.376541 1.452858
1.583713 22.046753 0.731373
1.583586 22.045231 0.735462
1.336423 22.367323 1.443651
1.377926 22.293463 1.308178
1.474849 22.196283 1.076817
1.572588 22.056128 0.782179
1.581082 22.041243 0.759420
1.360612 22.311071 1.363354
1.465198 22.184376 1.082344
1.572396 22.074194 0.822360
1.548730 22.094318 0.876071
1.572635 22.072317 0.825590
1.321796 22.334600 1.448799
2.149761 22.375334 0.849866
1.328047 22.320673 1.425836
1.534409 22.109341 0.930125
1.467784 22.178143 1.093095
1.490369 22.154242 1.038174
1.347283 22.321669 1.419701
1.467632 22.174522 1.092219
1.582790 22.021225 0.758086
1.550057 22.082520 0.883954
1.517599 22.124182 0.976175
1.549891 22.079815 0.882686
1.316247 22.325069 1.459766
1.547698 22.074093 0.879482
1.548465 22.078493 0.887300
1.454222 22.190619 1.146214
1.427212 22.201891 1.189369
1.472790 22.144035 1.071097
1.330324 22.318274 1.468704
1.582897 21.994167 0.755528
1.331452 22.304493 1.453980
1.598473 22.001743 0.762556
1.466772 22.135439 1.091979
1.376532 22.234594 1.327725
1.568427 22.001638 0.804528
1.577290 21.986399 0.780911
1.468567 22.133585 1.102878
1.356230 22.250858 1.379844
1.571217 22.021048 0.847764
1.543661 22.037838 0.898868
1.576600 22.021124 0.847719
1.324210 22.279718 1.464807
1.332507 22.263964 1.439994
1.533378 22.055882 0.952223
1.334534 22.256105 1.429001
1.465262 22.123096 1.114051
1.465476 22.119120 1.112317
1.486596 22.096645 1.060834
1.513593 22.068462 0.995608
1.318265 22.272377 1.475849
1.543507 22.024452 0.905616
1.546649 22.025484 0.905368
1.550532 22.021872 0.899223
1.546887 22.023607 0.908598
1.449640 22.134386 1.164448
1.427953 22.149399 1.205986
1.473934 22.089355 1.087644
1.323679 22.256006 1.480418
1.327937 22.244175 1.465056
1.468093 22.082548 1.110186
1.378986 22.180899 1.349096
1.467687 22.078903 1.122060
1.359948 22.198797 1.399904
1.330855 22.228735 1.482171
1.338042 22.211037 1.455365
1.339149 22.206036 1.448609
1.529914 22.001600 0.972460
1.457900 22.065481 1.131677
1.317853 22.218861 1.490072
1.508987 22.014069 1.013064
1.462929 22.064995 1.132883
1.480009 22.039499 1.082101
1.444472 22.078562 1.181098
1.426472 22.096039 1.223187
1.471912 22.034567 1.104048
1.324389 22.203520 1.497029
1.333085 22.192522 1.480894
1.466068 22.027760 1.126591
1.375684 22.123560 1.367194
1.463066 22.024513 1.139514
1.359390 22.144678 1.417827
1.329901 22.172874 1.495987
1.340599 22.155851 1.468075
1.343193 22.155455 1.467026
1.321672 22.169243 1.505651
1.457175 22.013510 1.152129
1.457021 22.009892 1.151254
1.987258 22.291718 1.271529
1.423109 22.043283 1.239329
1.441320 22.025761 1.199686
1.464685 21.977564 1.117982
1.333410 22.137383 1.493794
1.468821 21.978298 1.145153
1.526897 22.010698 1.181053
1.373469 22.069088 1.386897
1.356401 22.089737 1.433890
1.337216 22.099171 1.480032
1.337402 22.097027 1.477513
1.920421 22.302217 1.468317
1.437584 21.973370 1.216690
1.330008 22.081619 1.505359
1.358766 22.039719 1.453694
1.383086 22.022470 1.411898
1.337497 22.049801 1.496330
1.348810 22.051374 1.497040
