# .PCD v0.7 - Point Cloud Data file format
VERSION 0.7
FIELDS x y z
SIZE 4 4 4
TYPE F F F
COUNT 1 1 1
WIDTH 31
HEIGHT 1
VIEWPOINT 0 0 0 1
POINTS 31
DATA ascii
1.455821 24.050518 0.667773
1.365998 24.115677 0.925989
1.413593 24.067335 0.845378
1.473863 23.948498 0.705205
1.307683 24.142408 1.138029
1.304276 24.101599 1.118627
1.290534 24.137466 1.188666
1.342240 24.038284 1.038959
1.316347 24.066877 1.110317
1.371574 23.979359 0.957257
1.215650 24.173353 1.364148
1.410473 23.916204 0.877925
1.291676 24.041376 1.176790
1.467032 23.811653 0.738368
1.307325 23.991850 1.156383
1.305756 23.968117 1.138807
1.288060 23.984537 1.198948
1.344156 23.904711 1.064031
1.489789 23.701578 0.669358
1.327047 23.943521 1.136059
1.376234 23.852961 0.986342
1.219141 24.023132 1.380527
1.296435 23.908634 1.193421
1.411731 23.783611 0.910472
1.312767 23.853277 1.161762
1.304222 23.849052 1.172678
1.298775 23.863379 1.214477
1.348461 23.784803 1.087945
1.333077 23.819386 1.160148
1.228110 23.894314 1.398511
1.311460 23.802633 1.213809
