# .PCD v0.7 - Point Cloud Data file format
VERSION 0.7
FIELDS x y z
SIZE 4 4 4
TYPE F F F
COUNT 1 1 1
WIDTH 21
HEIGHT 1
VIEWPOINT 0 0 0 1
POINTS 21
DATA ascii
1.399916 24.959032 0.760919
1.246145 24.935535 1.147793
1.180051 25.042576 1.341215
1.394724 24.767977 0.799627
1.357317 25.026623 0.857692
1.215521 24.990181 1.178300
1.404489 24.719189 0.689085
1.203527 24.897335 1.366177
1.402823 24.928898 0.691661
1.368919 24.867567 0.894567
1.324998 25.083870 0.954996
1.218700 24.811794 1.194768
1.392649 24.736238 0.724234
1.316149 24.883547 0.981897
1.391457 24.969046 0.711915
1.210772 24.899223 1.230402
1.381395 24.771572 0.740673
1.286316 24.974669 1.077224
1.192812 24.988855 1.245561
1.284524 24.801462 1.098802
1.199087 24.814119 1.255018
