# .PCD v0.7 - Point Cloud Data file format
VERSION 0.7
FIELDS x y z
SIZE 4 4 4
TYPE F F F
COUNT 1 1 1
WIDTH 22
HEIGHT 1
VIEWPOINT 0 0 0 1
POINTS 22
DATA ascii
1.376032 25.434603 0.615376
1.299140 25.673368 0.912438
1.380255 25.256687 0.651938
1.299273 25.476505 0.943410
1.166883 25.463579 1.174969
1.340988 25.595747 0.810901
1.393966 25.404671 0.594603
1.177564 25.553076 1.141197
1.179486 25.291428 1.191700
1.333322 25.379913 0.846382
1.389409 25.209427 0.634527
1.380798 25.543688 0.710542
1.196541 25.390707 1.164914
1.188894 25.457088 1.101964
1.374058 25.333838 0.752139
1.409614 25.437561 0.609371
1.193103 25.762312 1.190431
1.225603 25.622978 1.046477
1.208176 25.302910 1.129404
1.204919 25.559259 1.216386
1.232231 25.426132 1.074489
1.202372 25.340246 1.236689
