# .PCD v0.7 - Point Cloud Data file format
VERSION 0.7
FIELDS x y z
SIZE 4 4 4
TYPE F F F
COUNT 1 1 1
WIDTH 73
HEIGHT 1
VIEWPOINT 0 0 0 1
POINTS 73
DATA ascii
1.441844 23.992105 0.834758
1.393496 23.956871 0.924454
1.438944 23.898249 0.861796
1.470692 23.992918 0.751443
1.390101 24.021198 0.906584
1.312312 24.043432 1.205519
1.391927 23.862509 0.945242
1.233753 24.002071 1.318213
1.489927 23.993824 0.658990
1.442361 23.816595 0.888883
1.474473 23.904852 0.783785
1.333097 24.046228 1.122367
1.392782 23.927172 0.930349
1.310008 23.948534 1.222661
1.530020 23.649000 0.658481
1.394424 23.774891 0.966201
1.236616 24.046457 1.314101
1.395837 24.001812 0.895715
1.242914 23.915016 1.332547
1.437454 23.727879 0.912818
2.041974 24.580688 0.759567
1.468062 23.810272 0.811881
1.334785 23.953844 1.144979
1.303502 23.851482 1.237625
1.397785 23.842253 0.954833
1.382659 23.674038 0.982745
1.242193 23.955029 1.328652
1.398766 23.911407 0.922761
1.249793 23.829800 1.346235
1.427960 23.637365 0.935425
1.358730 23.975971 1.060938
1.497849 23.817673 0.728560
1.470708 23.729349 0.840664
1.332247 23.860216 1.165012
1.306281 23.772615 1.256159
1.388041 23.741730 0.974509
1.410322 23.987364 0.887978
1.241986 23.999180 1.306732
1.244081 23.862896 1.341819
1.244030 23.733545 1.352949
1.402511 23.824844 0.948548
1.396123 24.001789 0.976829
1.362002 23.886124 1.086732
1.454198 23.631001 0.865755
1.494403 23.729090 0.760174
1.316527 23.704285 1.278340
1.336203 23.778776 1.187542
1.519619 23.802225 0.640753
1.388737 23.658318 0.995208
1.404287 23.886038 0.915571
1.243155 23.905933 1.322394
1.250322 24.049194 1.285101
1.246475 23.778599 1.355414
1.381959 23.713049 0.968076
1.354212 23.787766 1.108735
1.389108 23.895737 1.003636
1.477228 23.627810 0.788564
1.339668 23.701353 1.209315
1.509620 23.702711 0.675203
1.415114 23.810368 0.945852
1.252225 23.827415 1.341296
1.249751 23.951931 1.301671
1.386924 23.635443 0.991790
1.357398 23.707052 1.132961
1.390714 23.805527 1.031181
1.504989 23.616135 0.708959
1.390054 23.694027 0.965243
1.250110 23.738579 1.354761
1.256184 23.868307 1.321536
1.389137 23.716064 1.058134
1.392041 23.616228 0.991210
1.264504 23.789600 1.342534
1.247622 23.686071 1.350774
