# .PCD v0.7 - Point Cloud Data file format
VERSION 0.7
FIELDS x y z
SIZE 4 4 4
TYPE F F F
COUNT 1 1 1
WIDTH 194
HEIGHT 1
VIEWPOINT 0 0 0 1
POINTS 194
DATA ascii
1.498827 21.912607 1.173746
1.505941 21.902962 1.167851
1.497224 21.908947 1.186049
1.492862 21.908211 1.192554
1.491681 21.908737 1.204563
1.505701 21.890137 1.160028
1.489561 21.903959 1.200887
1.504702 21.891504 1.174100
1.510080 21.875031 1.143520
1.489430 21.895836 1.199374
1.461084 21.909950 1.295009
1.493712 21.869362 1.191889
1.473020 21.892807 1.267515
1.500641 21.858875 1.183931
1.482993 21.880108 1.243225
1.491181 21.865538 1.203859
1.490346 21.864630 1.209638
1.487095 21.864902 1.218541
1.503926 21.845877 1.175384
1.485935 21.859373 1.215574
1.497735 21.845907 1.186587
1.431476 21.906994 1.345873
1.421493 21.921410 1.390309
1.485247 21.850744 1.212864
1.504036 21.829597 1.156342
1.450552 21.878981 1.328014
1.447038 21.884293 1.344091
1.442204 21.886656 1.350340
1.457827 21.867058 1.313827
1.493632 21.825701 1.211221
1.468276 21.849239 1.284802
1.500343 21.815290 1.200827
1.484170 21.822887 1.220971
1.478063 21.835695 1.258450
1.482780 21.821474 1.225551
1.487237 21.819145 1.235322
1.503103 21.800867 1.191458
1.490341 21.814787 1.234891
1.369564 21.922262 1.513367
1.503255 21.800304 1.203311
1.431969 21.861841 1.361414
1.416020 21.876518 1.404336
1.407687 21.889332 1.442011
1.394006 21.901068 1.480118
1.488541 21.805151 1.229785
1.515183 21.783154 1.175820
1.389338 21.898535 1.503391
1.441739 21.840233 1.360186
1.451438 21.834585 1.348061
1.434834 21.842342 1.363330
1.450851 21.823502 1.331320
1.484758 21.782717 1.227674
1.466339 21.805256 1.303477
1.500658 21.770370 1.219681
1.488380 21.779480 1.243224
1.483426 21.790359 1.278482
1.492810 21.776049 1.247630
1.484522 21.774729 1.250363
1.506014 21.755604 1.209253
1.487658 21.769449 1.250307
1.501313 21.754290 1.216999
1.434341 21.816101 1.378008
1.417618 21.832378 1.422285
1.406473 21.845617 1.458583
1.378783 21.857620 1.490557
1.487155 21.759644 1.244673
1.508566 21.737219 1.187466
1.374921 21.854597 1.517843
1.441474 21.795752 1.377472
1.449500 21.790609 1.366742
1.436830 21.796940 1.380793
1.448539 21.779863 1.350867
1.490293 21.738218 1.249780
1.465694 21.761103 1.321631
1.500376 21.725866 1.236973
1.485501 21.735323 1.261577
1.479439 21.745199 1.294437
1.491230 21.731722 1.265453
1.482203 21.729057 1.264925
1.504279 21.709509 1.225389
1.481779 21.724874 1.265223
1.400241 21.801409 1.474360
1.499949 21.707857 1.232271
1.411199 21.787325 1.436000
1.429250 21.769951 1.391567
1.385821 21.813829 1.514197
1.489537 21.712965 1.261656
1.503456 21.691040 1.201030
1.437490 21.750607 1.393432
1.447586 21.745716 1.385808
1.436962 21.751204 1.397599
1.445879 21.735645 1.371664
1.486446 21.694817 1.267434
1.461886 21.716791 1.339658
1.479426 21.691927 1.279429
1.491333 21.681128 1.251760
1.467553 21.701809 1.307473
1.483672 21.687654 1.281772
1.483279 21.682550 1.282446
1.495944 21.665014 1.238075
1.479110 21.678621 1.281036
1.393412 21.757622 1.488575
1.404772 21.742275 1.449725
1.493351 21.661015 1.244312
1.430742 21.722206 1.408598
1.484423 21.666794 1.275230
1.500563 21.644859 1.214408
1.425084 21.705811 1.405649
1.440439 21.700409 1.401643
1.427744 21.705648 1.410328
1.441695 21.691677 1.390566
1.477953 21.650587 1.283428
1.464596 21.672724 1.360408
1.484136 21.636724 1.267226
1.477594 21.655464 1.329956
1.476192 21.647194 1.299042
1.475550 21.643089 1.296905
1.476860 21.636555 1.296559
1.481661 21.619864 1.249634
1.474174 21.633297 1.296682
1.390383 21.711740 1.505260
1.413930 21.694866 1.472250
1.481667 21.615520 1.254810
1.427521 21.675470 1.423223
1.474629 21.620718 1.286771
1.502397 21.596746 1.230591
1.445067 21.654840 1.423817
1.430118 21.658989 1.427334
1.432595 21.657984 1.429949
1.441834 21.647039 1.412760
1.478826 21.605259 1.303896
1.457433 21.627413 1.376257
1.467286 21.604227 1.315539
1.487638 21.590130 1.287009
1.458641 21.610416 1.339478
1.466491 21.598360 1.311715
1.467616 21.590986 1.309308
1.492462 21.571913 1.270777
1.464897 21.588650 1.309056
1.406867 21.664080 1.534517
1.406589 21.648735 1.486039
1.490459 21.565477 1.273599
1.420580 21.628075 1.436523
1.463866 21.575399 1.297616
1.499519 21.549646 1.244367
1.433787 21.610134 1.438829
1.440808 21.610397 1.452156
1.438057 21.608980 1.451530
1.431076 21.603756 1.428597
1.476875 21.560354 1.322999
1.448929 21.583197 1.392273
1.468215 21.557062 1.336770
1.474269 21.545153 1.298922
1.460284 21.563498 1.358604
1.473794 21.549673 1.333969
1.473773 21.542210 1.328792
1.488278 21.524986 1.285080
1.472568 21.539621 1.330437
1.398311 21.602438 1.499493
1.492309 21.516447 1.290166
1.419260 21.579832 1.452576
1.478869 21.524094 1.320730
1.500438 21.500446 1.260602
1.428162 21.563663 1.456965
1.424632 21.565865 1.462684
1.425472 21.562429 1.462080
1.424706 21.557962 1.448463
1.474981 21.513609 1.342849
1.451157 21.535866 1.412967
1.461214 21.512590 1.354691
1.488153 21.494856 1.324633
1.462878 21.515823 1.378435
1.473198 21.502756 1.353290
1.476211 21.492769 1.346937
1.485637 21.476892 1.301684
1.470488 21.492037 1.348238
1.386624 21.556988 1.510017
1.489854 21.467171 1.303845
1.414191 21.531851 1.466938
1.477004 21.474405 1.335982
1.429090 21.516514 1.478208
1.424109 21.517128 1.482770
1.425229 21.512072 1.470196
1.425660 21.513937 1.480063
1.479672 21.465261 1.366180
1.445519 21.489391 1.431127
1.474352 21.462973 1.382152
1.461755 21.467489 1.396954
1.413022 21.502346 1.545152
1.406328 21.483376 1.480312
1.438182 21.465666 1.505581
1.437688 21.465345 1.510124
1.437320 21.461641 1.501009
1.440601 21.460138 1.507637
