# .PCD v0.7 - Point Cloud Data file format
VERSION 0.7
FIELDS x y z
SIZE 4 4 4
TYPE F F F
COUNT 1 1 1
WIDTH 64
HEIGHT 1
VIEWPOINT 0 0 0 1
POINTS 64
DATA ascii
1.386812 24.643183 0.827440
1.402370 24.529488 0.689468
1.237157 24.751511 1.240779
1.282493 24.643929 1.086755
1.387405 24.533689 0.854406
1.422841 24.453300 0.723825
1.246145 24.650528 1.258885
1.276007 24.523624 1.105574
1.386013 24.429482 0.878508
1.416874 24.345642 0.753042
1.245062 24.538481 1.271113
1.281740 24.427277 1.127438
1.395830 24.343607 0.905053
1.248791 24.438129 1.285567
1.284244 24.333597 1.148051
1.452571 24.788685 0.732105
1.448731 24.669325 0.764024
1.366030 24.731796 0.947107
1.439578 24.673265 0.712493
1.423373 24.726921 0.805341
1.429493 24.700876 0.802148
1.404804 24.650404 0.802764
1.306587 24.753386 1.182377
1.302370 24.741022 1.111711
1.441041 24.571684 0.743005
1.444812 24.557386 0.792983
1.358197 24.606287 0.971790
1.421943 24.614405 0.827499
1.434041 24.598293 0.827414
1.276109 24.789291 1.223299
1.285038 24.734022 1.224786
1.403593 24.548155 0.829003
1.270770 24.702246 1.196939
1.304539 24.638428 1.198347
1.222500 24.754313 1.438783
1.303132 24.634977 1.131057
1.438180 24.469059 0.771022
1.440115 24.451712 0.821455
1.362961 24.506437 0.998373
1.425299 24.513632 0.849278
1.426261 24.486559 0.848984
1.285867 24.688301 1.236273
1.291847 24.633795 1.239713
1.406261 24.454731 0.855656
1.274247 24.604969 1.213944
1.304323 24.535963 1.215900
1.304043 24.535330 1.150258
1.224889 24.642984 1.452861
1.434914 24.370499 0.798446
1.442053 24.359913 0.849476
1.363951 24.407881 1.022935
1.426025 24.416979 0.870674
1.428134 24.391815 0.872394
1.293949 24.589724 1.249932
1.403661 24.361040 0.879125
1.291362 24.525705 1.251342
1.276390 24.511604 1.230016
1.309409 24.445919 1.170687
1.308571 24.442808 1.235052
1.218453 24.525013 1.461375
1.290422 24.481298 1.258156
1.294581 24.431316 1.264817
1.278153 24.420452 1.246216
1.298827 24.394588 1.271864
