# .PCD v0.7 - Point Cloud Data file format
VERSION 0.7
FIELDS x y z
SIZE 4 4 4
TYPE F F F
COUNT 1 1 1
WIDTH 217
HEIGHT 1
VIEWPOINT 0 0 0 1
POINTS 217
DATA ascii
1.465882 21.909370 1.249793
1.485887 21.888561 1.204057
1.475232 21.899387 1.240321
1.462500 21.865597 1.266336
1.483459 21.843077 1.221664
1.410169 21.914385 1.412066
1.470919 21.855467 1.256524
1.417253 21.894373 1.404333
1.427890 21.874504 1.374997
1.457270 21.820608 1.282566
1.409039 21.869654 1.428791
1.484179 21.797693 1.239430
1.464184 21.810778 1.270845
1.408863 21.850218 1.420052
1.421737 21.829378 1.390893
1.459493 21.774927 1.302247
1.408475 21.824474 1.447091
1.476135 21.753191 1.254283
1.461186 21.764818 1.287257
1.400837 21.805731 1.434910
1.418734 21.784351 1.406946
1.453880 21.730272 1.319356
1.396156 21.779856 1.459024
1.474615 21.707851 1.272247
1.457797 21.720118 1.304179
1.400454 21.761364 1.455292
1.414809 21.738256 1.423028
1.457047 21.682882 1.340113
1.405855 21.732561 1.482525
1.479075 21.660267 1.292477
1.467303 21.671072 1.325967
1.401392 21.714954 1.475878
1.421699 21.691448 1.445149
1.449003 21.637459 1.355347
1.399139 21.686033 1.497596
1.459820 21.616812 1.302181
1.456455 21.626141 1.339819
1.394877 21.668314 1.493388
1.419647 21.643785 1.462647
1.444692 21.590765 1.372674
1.395772 21.639496 1.515265
1.461475 21.568794 1.321405
1.445037 21.580738 1.352472
1.396373 21.621466 1.515559
1.413486 21.596823 1.479301
1.443197 21.542669 1.391755
1.380081 21.593994 1.524999
1.461271 21.520502 1.339959
1.446722 21.530886 1.372433
1.396967 21.572628 1.538124
1.403019 21.550663 1.492671
1.439836 21.494282 1.410165
1.403108 21.539349 1.559353
1.460145 21.471138 1.358545
1.449329 21.481174 1.392740
1.400033 21.501951 1.510219
1.489609 21.900150 1.216059
1.473104 21.911371 1.246303
1.498677 21.907080 1.171928
1.466338 21.909744 1.260382
1.487505 21.885666 1.222276
1.486890 21.877600 1.199904
1.484148 21.856398 1.235132
1.459027 21.903849 1.256336
1.460151 21.869286 1.261629
1.460907 21.874319 1.281831
1.446819 21.909662 1.328655
1.492268 21.865025 1.189919
1.491249 21.861012 1.185363
1.460710 21.890913 1.287714
1.412487 21.895969 1.411415
1.425833 21.906174 1.378083
1.423460 21.886433 1.393233
1.453519 21.865551 1.273165
1.477845 21.840605 1.235552
1.488457 21.832336 1.217859
1.410075 21.909821 1.418656
1.449204 21.886679 1.337865
1.481846 21.811783 1.254709
1.464986 21.824286 1.285442
1.460024 21.857187 1.273476
1.462354 21.829340 1.303092
1.406656 21.914984 1.423245
1.393847 21.890772 1.467127
1.444076 21.863379 1.344111
1.493606 21.818918 1.205818
1.499489 21.814590 1.203063
1.457028 21.844490 1.302846
1.416746 21.851416 1.433661
1.427013 21.841661 1.417589
1.426480 21.859877 1.396094
1.460706 21.819279 1.293844
1.483157 21.794050 1.255580
1.480658 21.787548 1.231800
1.399131 21.865921 1.432102
1.443653 21.839987 1.352346
1.486086 21.767206 1.276960
1.471105 21.779066 1.308724
1.454430 21.785755 1.319961
1.461009 21.811445 1.290248
1.409761 21.868536 1.443483
1.394943 21.847086 1.488884
1.439097 21.818094 1.359412
1.485229 21.772720 1.218947
1.498961 21.766371 1.219074
1.453692 21.797714 1.317122
1.417265 21.805395 1.454986
1.420262 21.798147 1.437226
1.417764 21.814054 1.410092
1.466603 21.772301 1.315449
1.473839 21.748640 1.268011
1.480348 21.741095 1.249499
1.409944 21.819567 1.457778
1.441839 21.792921 1.368523
1.480028 21.722967 1.294870
1.460950 21.735559 1.325816
1.456225 21.739504 1.340753
1.466098 21.763136 1.308605
1.412860 21.822086 1.463730
1.388324 21.802387 1.505600
1.446290 21.769987 1.380861
1.491598 21.724184 1.236768
1.494321 21.719797 1.233899
1.460660 21.747839 1.336892
1.410633 21.761610 1.471329
1.411990 21.754011 1.455353
1.420273 21.767111 1.429155
1.458804 21.726603 1.329786
1.471654 21.701916 1.285066
1.479096 21.694504 1.266882
1.404613 21.773729 1.474339
1.439084 21.745720 1.384385
1.464251 21.679564 1.309634
1.458290 21.689468 1.347043
1.448295 21.695004 1.358020
1.466151 21.714495 1.326204
1.385669 21.758158 1.526070
1.404144 21.775352 1.478119
1.440368 21.723650 1.396233
1.485437 21.676989 1.250084
1.489094 21.672737 1.247543
1.462580 21.699474 1.355150
1.407396 21.715965 1.490990
1.408977 21.709208 1.477073
1.422781 21.719246 1.448606
1.454394 21.679964 1.347062
1.466653 21.655703 1.300774
1.475388 21.647152 1.282429
1.400802 21.726681 1.493186
1.458186 21.634411 1.327942
1.430127 21.698135 1.396726
1.449064 21.645184 1.364859
1.438485 21.651152 1.374266
1.405141 21.708345 1.559036
1.456827 21.668173 1.339035
1.400101 21.728380 1.494529
1.437254 21.675882 1.413353
1.483019 21.628498 1.265474
1.477306 21.626564 1.258153
1.404158 21.669401 1.511038
1.447642 21.653257 1.365647
1.408779 21.662054 1.500917
1.446582 21.634270 1.361419
1.411240 21.673019 1.461656
1.465755 21.606924 1.318067
1.476008 21.598074 1.301620
1.400374 21.679607 1.514593
1.459614 21.586668 1.350388
1.445457 21.598959 1.385781
1.438043 21.604063 1.395679
1.428303 21.649233 1.413691
1.392895 21.662834 1.573823
1.452182 21.620693 1.354266
1.397577 21.680195 1.513227
1.421021 21.630812 1.424019
1.487507 21.577845 1.283429
1.483319 21.574699 1.278386
1.402788 21.622189 1.532129
1.399200 21.618139 1.519614
1.446169 21.603077 1.382133
1.405316 21.624853 1.477811
1.444979 21.585281 1.380831
1.468541 21.551100 1.315504
1.464854 21.557222 1.335750
1.397489 21.631773 1.534166
1.451673 21.540327 1.368443
1.436224 21.553759 1.403996
1.434789 21.556566 1.416124
1.429286 21.598896 1.432405
1.397274 21.631008 1.532100
1.448479 21.570591 1.370971
1.425392 21.580452 1.445286
1.481334 21.528811 1.297534
1.484054 21.524420 1.294668
1.390169 21.577950 1.547419
1.392441 21.570957 1.540815
1.447497 21.552380 1.399987
1.427142 21.569147 1.509558
1.445598 21.535292 1.400420
1.459262 21.508682 1.351055
1.486732 21.494553 1.342647
1.386169 21.585480 1.549675
1.468444 21.486116 1.398673
1.462018 21.496662 1.440250
1.435633 21.507418 1.437775
1.432142 21.546989 1.452539
1.447578 21.519974 1.389044
1.429767 21.528250 1.467321
1.490865 21.472958 1.318550
1.483856 21.472164 1.311393
1.458202 21.496597 1.423767
1.398713 21.527843 1.513735
1.457462 21.480484 1.426587
1.410629 21.501680 1.460033
1.444219 21.468597 1.405284
1.434138 21.475122 1.489746
1.388093 21.479002 1.528292
