# .PCD v0.7 - Point Cloud Data file format
VERSION 0.7
FIELDS x y z
SIZE 4 4 4
TYPE F F F
COUNT 1 1 1
WIDTH 155
HEIGHT 1
VIEWPOINT 0 0 0 1
POINTS 155
DATA ascii
0.548818 24.671076 0.867854
0.544184 24.680489 0.904001
0.569957 24.583424 0.751430
0.587926 24.573084 0.722789
0.531259 24.682049 0.863016
0.660941 24.567217 0.661012
0.569041 24.652079 0.884503
0.551935 24.652916 0.916166
0.746502 24.551613 0.602906
0.553865 24.671570 0.871497
0.696916 24.549513 0.651533
0.623945 24.590679 0.779685
0.641079 24.576349 0.748766
0.556977 24.668478 0.883457
0.576027 24.573038 0.720221
0.667896 24.539413 0.675243
0.593586 24.635767 0.903171
0.576935 24.640928 0.937973
0.593424 24.574993 0.733059
0.539446 24.679548 0.870405
0.575948 24.678028 0.841872
0.583189 24.662285 0.895331
0.749090 24.554710 0.590417
0.717908 24.529850 0.666448
0.646223 24.573584 0.798815
0.761290 24.554110 0.584454
0.677937 24.567839 0.769815
0.569387 24.642336 0.897130
0.702866 24.529781 0.695897
0.632784 24.580599 0.749598
0.697913 24.552898 0.651039
0.582996 24.564732 0.686223
1.242046 25.075731 1.218862
0.713577 24.556618 0.654226
1.219364 25.090765 1.279648
0.654342 24.584461 0.762362
0.560796 24.662350 0.889170
0.612409 24.672663 0.868498
0.592992 24.636604 0.909979
0.820407 24.526798 0.641185
0.531152 24.625759 0.783639
0.808716 24.518366 0.642829
0.773760 24.556990 0.555460
0.786611 24.536936 0.693151
0.597983 24.575964 0.735095
0.687566 24.568518 0.823980
0.713741 24.556427 0.791540
0.599047 24.631773 0.920447
0.755686 24.528519 0.721168
0.665100 24.570505 0.771583
0.715623 24.530489 0.666748
0.646770 24.576374 0.715949
0.702632 24.556780 0.643823
0.758864 24.573336 0.626218
1.240755 25.019770 1.231205
0.549387 24.675425 0.879254
0.727082 24.531359 0.670357
1.216430 25.036301 1.292992
0.761919 24.590225 0.571129
0.678261 24.565859 0.780489
0.576811 24.640495 0.906236
0.596599 24.626627 0.873987
1.236418 25.076210 1.232958
0.792980 24.548201 0.590883
1.448714 24.904415 0.659062
1.397816 24.833311 0.850027
1.308181 24.919008 1.064865
0.791988 24.512537 0.624108
0.740871 24.548601 0.548014
0.644115 24.575140 0.760731
0.574411 24.625605 0.813571
0.763754 24.542328 0.522280
0.802842 24.511240 0.618984
1.346508 24.896002 1.013051
1.240499 25.062571 1.242523
1.393809 24.845604 0.902750
0.690147 24.553696 0.791826
0.778274 24.534527 0.693133
0.668082 24.558252 0.735055
1.238625 24.965574 1.242469
0.716722 24.532887 0.660837
0.570355 24.658556 0.898879
0.606816 24.578735 0.739519
0.744953 24.509712 0.688156
1.387884 24.905853 0.761816
1.215677 24.986534 1.307769
0.673018 24.573318 0.683852
0.702761 24.558189 0.637905
1.433726 24.955833 0.686033
0.732368 24.567150 0.809977
0.603612 24.627769 0.929136
1.235538 25.023647 1.248784
0.617524 24.608822 0.893955
1.439494 24.868647 0.707592
1.305664 24.867977 1.081686
1.448886 24.854649 0.682399
0.683566 24.568953 0.785506
1.448252 24.921745 0.655966
0.604949 24.614229 0.837614
1.328588 24.835354 1.022174
1.233959 25.003819 1.252461
1.328723 24.905983 1.022604
1.397781 24.837524 0.854637
0.700266 24.545366 0.758088
0.778992 24.537260 0.688088
1.257732 24.925152 1.264701
0.582588 24.634439 0.915151
0.659703 24.582159 0.768810
1.417166 24.872316 0.789351
1.206655 24.931061 1.317633
0.675384 24.542994 0.699356
1.336511 24.889936 1.028951
0.717188 24.533031 0.654405
1.998288 25.225130 0.801696
1.230974 25.043636 1.249746
1.230918 24.969765 1.263465
1.248966 25.012575 1.196730
1.336499 24.939688 1.018956
1.443839 24.869461 0.680581
0.626329 24.595009 0.859516
1.245546 24.959818 1.272765
1.334854 24.860327 1.043463
1.345811 24.894396 0.972381
1.399926 24.842804 0.848121
1.234988 24.859497 1.265512
0.614209 24.623903 0.941657
1.213621 24.886572 1.336070
0.680000 24.562067 0.788240
0.706059 24.528646 0.721131
0.769581 24.531178 0.680897
1.234458 24.994692 1.267235
1.447710 24.861814 0.737748
1.225414 24.916729 1.277424
1.252025 24.963049 1.215438
1.331459 24.885241 1.034848
1.272043 24.997366 1.146015
1.250748 24.911243 1.288562
1.363350 24.854422 0.998419
1.233887 25.030348 1.264987
1.346339 24.939390 1.029800
1.375692 24.878647 0.923764
1.401250 24.842125 0.842515
1.242626 24.948112 1.285908
1.238741 24.876829 1.300390
1.246038 24.908489 1.230968
1.227225 24.846270 1.291105
1.265592 24.941280 1.163106
1.230170 24.976566 1.280049
1.318147 24.872852 1.039020
1.244578 24.897715 1.302150
1.257007 24.865938 1.255097
1.262583 24.888720 1.181491
1.241942 24.934265 1.302106
1.283078 24.850708 1.210384
1.225338 24.874296 1.310380
