# .PCD v0.7 - Point Cloud Data file format
VERSION 0.7
FIELDS x y z
SIZE 4 4 4
TYPE F F F
COUNT 1 1 1
WIDTH 753
HEIGHT 1
VIEWPOINT 0 0 0 1
POINTS 753
DATA ascii
1.547240 -1.530789 0.882366
1.520206 -1.547378 0.975112
1.496917 -1.553978 0.889977
1.521228 -1.553063 1.010206
1.513829 -1.547069 0.879818
1.452785 -1.554215 0.981077
1.529872 -1.558286 1.011516
1.462053 -1.566964 1.013325
1.487110 -1.549407 1.224451
1.459382 -1.538870 1.156688
1.534637 -1.539189 1.037239
1.537892 -1.556403 1.001759
1.427114 -1.545739 0.862123
1.389134 -1.559879 0.986544
1.466939 -1.548753 1.104017
1.464261 -1.567791 1.016648
1.397295 -1.573179 1.016937
1.428059 -1.561396 1.225274
1.386240 -1.536471 1.157890
1.454238 -1.544024 0.861802
1.457788 -1.545482 0.877880
1.419515 -1.526082 1.407706
1.478561 -1.554721 1.239463
1.469589 -1.549265 1.045430
1.540615 -1.557264 0.991928
1.473086 -1.567548 1.009055
1.393653 -1.560475 0.942023
1.320134 -1.558924 0.991613
1.311442 -1.568363 0.914654
1.393432 -1.547231 1.108396
1.393046 -1.566491 1.021863
1.305553 -1.571967 0.908571
1.328126 -1.572477 1.020027
1.355847 -1.560159 1.222490
1.416976 -1.527708 1.354841
1.332896 -1.551491 1.162649
1.474121 -1.557683 1.243611
1.362017 -1.536553 1.408184
1.372882 -1.545642 0.828817
1.410375 -1.558161 1.239966
1.389652 -1.561611 1.521412
1.462595 -1.551476 0.979928
1.404455 -1.556365 1.052217
1.470928 -1.562482 1.000893
1.403229 -1.569897 1.015635
1.325460 -1.561163 0.949255
1.329750 -1.575923 0.903225
1.421439 -1.529437 1.299284
1.424872 -1.554063 1.541919
1.259009 -1.562788 0.996608
1.364218 -1.521320 1.724957
1.258527 -1.581093 0.920081
1.330722 -1.552630 1.113730
1.329007 -1.571373 1.026235
1.402137 -1.553066 0.845809
1.260766 -1.571322 1.021880
1.299727 -1.571163 1.223923
1.245164 -1.577591 0.914744
1.379791 -1.538717 0.830722
1.362587 -1.543163 1.358730
1.270009 -1.554024 1.165599
1.402548 -1.556904 1.244864
1.303258 -1.543276 1.408275
1.347236 -1.564192 1.240356
1.459627 -1.555532 1.247064
1.325590 -1.567584 1.514788
1.398040 -1.559156 0.989769
1.329859 -1.550856 1.058182
1.408184 -1.572813 1.009908
1.415075 -1.532102 1.237828
1.265463 -1.567611 0.956508
1.333369 -1.569143 1.021803
1.263455 -1.576034 0.910206
1.378939 -1.563134 1.893191
1.356256 -1.534877 1.301800
1.361424 -1.521894 1.672980
1.255117 -1.579075 0.886040
1.368160 -1.567633 1.540695
1.302632 -1.525463 1.717869
1.203884 -1.572066 1.001773
1.195533 -1.582448 0.924908
1.270541 -1.559333 1.119006
1.261812 -1.569982 1.030058
1.416982 -1.568899 1.555021
1.205557 -1.580729 1.026055
1.234536 -1.571813 1.221762
1.186901 -1.583703 0.919773
1.296911 -1.544799 1.358764
1.214059 -1.561674 1.168596
1.243473 -1.547316 1.407089
1.335403 -1.559953 1.246224
1.278488 -1.577123 0.890060
1.275572 -1.571053 0.907747
1.287967 -1.572045 1.241646
1.363725 -1.516919 1.617738
1.392335 -1.560513 1.250710
1.264928 -1.573245 1.510851
1.329069 -1.559922 0.999088
1.273642 -1.562368 1.065756
1.205141 -1.570013 0.963251
1.267915 -1.569096 1.027666
1.338809 -1.572766 1.018140
1.205591 -1.582969 0.916314
1.304376 -1.558001 1.873885
1.348810 -1.536664 1.242342
1.294543 -1.541322 1.304134
1.299155 -1.525971 1.668976
1.194889 -1.581354 0.893771
1.243105 -1.528776 1.712508
1.301654 -1.569094 1.534697
1.143067 -1.570660 1.006037
1.135366 -1.582926 0.929362
1.213507 -1.566100 1.124002
1.207325 -1.581158 1.035407
1.345033 -1.566973 1.548046
1.148682 -1.585570 1.028761
1.125861 -1.581233 0.924929
1.176768 -1.578270 1.221721
1.161976 -1.571144 1.172493
1.234466 -1.546374 1.359509
1.183684 -1.548249 1.405489
1.367260 -1.522110 1.561794
1.338451 -1.557612 1.900492
1.280094 -1.572619 1.249813
1.219853 -1.584113 0.898265
1.211649 -1.571283 0.916547
1.224520 -1.574046 1.241523
1.206464 -1.580867 0.858532
1.302584 -1.523577 1.615993
1.327874 -1.564617 1.253983
1.385199 -1.564957 1.559770
1.196370 -1.569320 1.502305
1.376689 -1.561088 1.917067
1.265061 -1.563403 1.007304
1.212607 -1.566148 1.071725
1.150818 -1.577827 0.970166
1.210358 -1.576988 1.033864
1.146227 -1.585090 0.922930
1.269666 -1.570681 1.025067
1.237119 -1.528010 1.663665
1.245164 -1.566836 1.865163
1.231971 -1.544837 1.307166
1.288313 -1.545571 1.247921
1.192339 -1.538411 1.710226
1.137508 -1.585876 0.901538
1.237124 -1.569849 1.529437
1.085734 -1.573381 1.010528
1.078662 -1.584408 0.933632
1.157104 -1.571644 1.128776
1.152429 -1.588412 1.039258
1.283192 -1.571887 1.545114
1.087074 -1.582551 1.030852
1.071457 -1.586060 0.930446
1.099946 -1.567308 1.173502
1.120973 -1.584022 1.222417
1.180938 -1.555464 1.361452
1.227236 -1.583319 0.879654
1.130696 -1.556229 1.406227
1.218454 -1.581345 0.864990
1.278996 -1.565384 1.892659
1.216093 -1.572628 1.250482
1.308290 -1.534052 1.563582
1.157820 -1.583763 0.906814
1.154662 -1.576626 0.925395
1.166837 -1.580395 1.242463
1.240418 -1.527554 1.612969
1.148229 -1.585568 0.867407
1.267840 -1.572549 1.257361
1.315619 -1.563150 1.554612
1.142424 -1.579048 1.499303
1.310271 -1.562088 1.904910
1.148174 -1.562587 1.078039
1.204602 -1.567763 1.016327
1.093974 -1.581250 0.976723
1.086855 -1.584104 0.929133
1.179354 -1.532684 1.660339
1.158802 -1.590292 1.040233
1.213853 -1.579919 1.033304
1.194261 -1.582986 1.861713
1.194402 -1.528736 2.088470
1.136054 -1.541676 1.705571
1.177677 -1.553982 1.311206
1.079716 -1.586476 0.907808
1.226873 -1.551674 1.253209
1.182315 -1.579753 1.527544
1.038805 -1.585328 1.015293
1.029871 -1.596955 0.938643
1.101653 -1.576906 1.133422
1.220326 -1.574120 1.540903
1.095734 -1.593033 1.043931
1.038723 -1.594109 1.033667
1.049125 -1.574330 1.176954
1.019495 -1.592315 0.934913
1.122993 -1.557636 1.362876
1.251292 -1.514316 1.986924
1.071532 -1.552830 1.403993
1.067940 -1.592145 1.222160
1.340699 -1.562117 1.917769
1.170975 -1.590431 0.889675
1.155012 -1.579174 0.875443
1.220814 -1.573818 1.884793
1.161411 -1.580966 1.253433
1.098931 -1.583475 0.915085
1.112702 -1.587623 1.244209
1.238565 -1.531065 1.560307
1.098224 -1.580873 0.933032
1.091645 -1.588623 0.876925
1.180544 -1.531767 1.610779
1.260021 -1.573104 1.554814
1.207882 -1.577251 1.261314
1.087217 -1.585026 1.495916
1.250588 -1.568814 1.897962
1.184007 -1.520687 2.031969
1.103951 -1.581820 1.085539
1.127349 -1.518141 2.067764
1.144371 -1.570085 1.024044
1.045022 -1.592611 0.983611
1.124281 -1.538410 1.658930
1.076043 -1.538098 1.697309
1.039723 -1.598118 0.935195
1.094605 -1.584694 1.045239
1.132682 -1.585517 1.850337
1.157415 -1.587292 1.041345
1.120770 -1.558855 1.313905
1.026419 -1.590771 0.915176
1.119980 -1.577757 1.521722
1.167232 -1.557316 1.257263
0.987768 -1.591290 1.019639
1.251844 -1.511181 1.929126
0.978123 -1.601161 0.941808
1.047438 -1.579698 1.137632
1.041767 -1.596894 1.047245
1.161399 -1.578044 1.538587
0.997262 -1.578664 1.179132
0.982153 -1.593690 1.035642
1.064543 -1.556005 1.361818
1.026363 -1.567444 1.407930
0.967213 -1.597641 0.939284
1.014969 -1.597030 1.222481
1.188572 -1.515949 1.977557
1.277442 -1.564865 1.909600
1.115650 -1.597258 0.899571
1.104963 -1.599018 0.843042
1.166568 -1.583946 1.878818
1.107984 -1.589962 1.256355
1.100412 -1.587762 0.886518
1.053732 -1.587116 1.244353
1.053145 -1.601133 0.922516
1.048169 -1.591346 0.941924
1.176972 -1.535640 1.560335
1.037806 -1.594047 0.885491
1.125326 -1.539433 1.611659
1.198563 -1.575754 1.552545
1.154523 -1.586125 1.265220
1.203773 -1.586414 1.898374
1.031683 -1.590083 1.492429
1.123067 -1.518742 2.020955
1.071444 -1.518771 2.056640
1.028991 -1.548397 1.697800
1.073052 -1.545961 1.658421
1.046361 -1.583520 1.090907
0.987198 -1.590123 0.989466
0.985696 -1.600682 0.941373
1.088303 -1.575173 1.032757
1.047118 -1.597783 1.051199
1.072332 -1.585592 1.838519
1.104652 -1.596742 1.048308
1.070339 -1.569852 1.318833
0.972403 -1.593345 0.921348
1.067676 -1.585871 1.519348
0.940608 -1.602217 1.025280
1.111852 -1.565617 1.263289
0.926144 -1.604335 0.945852
1.201113 -1.528801 1.931907
0.994805 -1.584110 1.141893
1.107273 -1.583505 1.537037
0.987571 -1.599723 1.051438
0.946745 -1.583548 1.182255
0.974529 -1.570005 1.406815
0.935764 -1.604571 1.039182
1.020183 -1.572280 1.367908
0.916893 -1.602276 0.944383
1.223753 -1.575583 1.906671
0.961687 -1.601008 1.222692
1.124186 -1.513038 1.966712
1.055343 -1.595179 0.909735
1.102345 -1.579107 1.865678
1.049395 -1.601690 0.853408
1.046880 -1.585890 1.257216
1.046094 -1.591076 0.896858
1.006290 -1.598419 1.247026
0.999526 -1.604528 0.929767
0.992652 -1.592216 0.949014
1.075151 -1.549701 1.612413
0.983956 -1.596376 0.893637
1.122484 -1.545092 1.562379
1.136381 -1.573552 1.548677
1.136943 -1.580419 1.884298
1.096748 -1.588096 1.268597
0.978360 -1.595512 1.488778
1.073137 -1.528276 2.017538
1.024653 -1.528353 2.052949
0.980834 -1.556145 1.696018
1.020802 -1.550837 1.656627
0.993259 -1.585805 1.096951
0.938764 -1.597290 0.994723
0.938228 -1.610675 0.946914
0.993962 -1.603321 1.056661
1.011046 -1.582866 1.826407
1.037542 -1.587047 1.040862
1.045023 -1.594749 1.055381
1.018239 -1.576284 1.322292
0.925341 -1.604156 0.927972
1.015467 -1.593877 1.517957
0.887351 -1.601637 1.028940
1.053443 -1.565711 1.266477
0.878901 -1.612278 0.950091
0.945015 -1.590765 1.146189
1.051902 -1.588342 1.535511
0.939050 -1.607020 1.055705
1.141356 -1.534266 1.927814
0.924127 -1.572972 1.407645
0.896239 -1.588450 1.185373
1.172356 -1.586534 1.904574
0.886771 -1.611182 1.041376
0.965605 -1.572502 1.367737
0.869653 -1.610221 0.948622
0.908396 -1.601876 1.222491
1.074208 -1.524385 1.966571
1.049764 -1.587620 1.860331
1.004105 -1.601801 0.919216
1.004036 -1.603890 1.262375
0.993280 -1.602369 0.864569
0.952051 -1.599587 1.246946
0.989810 -1.592007 0.906042
0.947495 -1.609525 0.937081
0.941957 -1.597729 0.957290
0.934524 -1.602531 0.901884
1.018176 -1.549833 1.610414
1.067689 -1.553621 1.564322
1.077063 -1.578090 1.874128
1.083383 -1.581607 1.549383
1.043395 -1.593892 1.272078
0.974773 -1.532975 2.045842
1.018141 -1.530451 2.009553
0.926069 -1.600533 1.485988
0.931410 -1.560140 1.693852
0.972198 -1.559588 1.657034
0.891999 -1.605931 1.001031
0.942703 -1.592517 1.103343
0.884824 -1.608913 0.952451
0.942371 -1.607334 1.061778
0.958384 -1.588394 1.819662
0.985892 -1.592862 1.049258
0.991630 -1.599232 1.061731
0.960679 -1.573096 1.323959
0.876051 -1.608389 0.933928
0.956037 -1.587803 1.512324
0.838829 -1.605827 1.032797
0.830711 -1.617410 0.954041
0.999538 -1.569506 1.270757
0.895533 -1.595251 1.150168
1.002292 -1.597520 1.535047
0.875228 -1.577665 1.407548
1.120331 -1.595618 1.902281
0.886667 -1.609407 1.058654
0.849510 -1.595293 1.188402
0.915611 -1.576298 1.369644
1.073113 -1.526460 1.915643
0.835017 -1.612332 1.044109
0.816396 -1.606534 0.951870
0.857947 -1.604987 1.222325
1.019701 -1.527257 1.960655
0.992418 -1.586589 1.850104
0.945448 -1.598009 1.262765
0.950982 -1.605914 0.928530
0.938646 -1.601648 0.874397
0.902714 -1.605271 1.249040
0.943636 -1.604339 0.915815
0.897027 -1.612995 0.944049
0.895918 -1.608135 0.964773
0.886597 -1.610412 0.909205
0.969444 -1.560525 1.613107
1.033612 -1.589595 1.550799
1.025910 -1.587011 1.870724
1.013205 -1.559985 1.565946
0.925924 -1.537185 2.039596
0.991392 -1.600221 1.276515
0.969153 -1.536591 2.005596
0.874705 -1.602143 1.482665
0.882532 -1.563033 1.690475
0.921926 -1.563771 1.655974
0.840092 -1.605894 1.005643
0.892135 -1.596119 1.109323
0.840127 -1.621291 0.957031
0.893622 -1.613588 1.066929
0.908112 -1.597157 1.815144
0.912051 -1.580544 1.327230
0.935426 -1.599462 1.056631
0.940843 -1.604890 1.069010
0.827945 -1.613407 0.938862
0.910938 -1.600684 1.512950
0.791893 -1.611617 1.036714
0.776504 -1.610910 0.957002
0.946820 -1.596263 1.531708
0.826719 -1.580063 1.408123
1.055540 -1.585686 1.889516
0.846463 -1.600571 1.155224
0.950242 -1.580001 1.277522
0.805942 -1.605321 1.191558
0.838464 -1.614553 1.062598
0.867285 -1.581569 1.372602
0.792107 -1.624246 1.047452
0.761931 -1.595840 0.955320
1.019279 -1.532910 1.914178
0.809805 -1.611458 1.223397
0.967665 -1.533237 1.957957
0.938082 -1.587549 1.841889
0.896111 -1.603705 1.264854
0.899660 -1.609570 0.936605
0.889392 -1.607578 0.884611
0.852986 -1.610156 1.250045
0.850040 -1.620591 0.951241
0.890182 -1.604403 0.924622
0.846393 -1.611322 0.971614
0.835267 -1.610948 0.916873
0.921341 -1.569993 1.615577
0.983531 -1.596657 1.552115
0.969990 -1.586388 1.862440
0.879762 -1.542443 2.035267
0.919535 -1.540863 2.001445
0.941512 -1.607034 1.279807
0.960288 -1.564824 1.567225
0.835723 -1.568217 1.689232
0.822734 -1.605014 1.479552
0.876875 -1.573412 1.657180
0.786359 -1.600094 1.010672
0.847264 -1.607316 1.115781
0.782988 -1.608128 0.962414
0.844564 -1.618918 1.071979
0.858788 -1.605637 1.810497
0.773025 -1.603714 0.944501
0.862912 -1.608356 1.512136
0.892497 -1.611974 1.075238
0.860981 -1.583474 1.331133
0.883773 -1.602186 1.064609
0.734809 -1.596650 1.038822
0.782707 -1.586161 1.409786
0.729246 -1.612647 0.960413
1.006753 -1.594717 1.887930
0.899910 -1.606508 1.533154
0.799512 -1.606374 1.159136
0.760169 -1.611897 1.194453
0.824334 -1.593492 1.375943
0.791846 -1.621299 1.066603
0.898553 -1.584172 1.281641
0.735179 -1.610476 1.047675
0.716035 -1.601223 0.960098
0.764504 -1.620172 1.224502
0.917917 -1.539451 1.956091
0.964817 -1.537495 1.912518
0.891211 -1.599121 1.840463
0.848763 -1.611818 1.268087
0.849662 -1.610631 0.945229
0.805542 -1.615272 1.251882
0.829444 -1.593879 0.894216
0.790468 -1.606029 0.957664
0.846540 -1.618053 0.934327
0.832806 -1.546082 2.028766
0.784604 -1.593292 0.977782
0.921836 -1.594190 1.860635
0.930441 -1.598636 1.551002
0.774503 -1.592492 0.923907
0.871166 -1.574075 1.615495
0.869927 -1.545151 1.997288
0.788500 -1.569471 1.686495
0.890125 -1.609028 1.283609
0.908401 -1.569254 1.569365
0.774304 -1.608758 1.477245
0.826601 -1.574499 1.655703
0.737681 -1.600004 1.015991
0.735194 -1.610992 0.967027
0.797250 -1.609835 1.120544
0.796132 -1.623021 1.076807
0.812659 -1.609448 1.510654
0.816224 -1.592754 1.335298
0.722142 -1.600157 0.949564
0.805419 -1.606331 1.802150
0.843922 -1.618007 1.082355
0.834241 -1.605392 1.071444
0.689762 -1.601871 1.042485
0.950279 -1.592106 1.880437
0.738726 -1.595404 1.411849
0.852987 -1.613641 1.534189
0.679463 -1.609989 0.963470
0.756443 -1.617120 1.164353
0.705421 -1.598482 1.194523
0.776003 -1.595668 1.378484
0.738250 -1.613587 1.069336
0.852406 -1.594742 1.288122
0.684665 -1.606060 1.049555
0.671936 -1.606145 0.963638
0.717934 -1.625133 1.225223
0.839573 -1.601148 1.834159
0.870558 -1.548898 1.956452
0.916302 -1.549297 1.914303
0.801401 -1.616820 1.270908
0.779783 -1.577249 0.952128
0.759387 -1.624176 1.254091
0.784902 -1.546909 2.021977
0.784454 -1.603901 0.902550
0.780858 -1.590540 0.942631
0.743075 -1.609715 0.963357
0.873291 -1.601192 1.857741
0.740761 -1.600960 0.984693
0.882574 -1.606072 1.552157
0.733203 -1.604571 0.931168
0.820042 -1.575348 1.615124
0.821884 -1.547911 1.992787
0.742006 -1.572501 1.684930
0.837385 -1.607395 1.286039
0.726924 -1.615222 1.476203
0.860079 -1.577685 1.572716
0.778529 -1.575943 1.654070
0.691759 -1.602280 1.020356
0.686426 -1.607915 0.970947
0.741191 -1.597595 1.123914
0.741655 -1.612365 1.080242
0.761294 -1.607980 1.506907
0.678527 -1.605778 0.955172
0.794931 -1.620112 1.087978
0.757835 -1.613052 1.799129
0.772197 -1.603811 1.340633
0.647554 -1.609333 1.046180
0.791045 -1.618076 1.078945
0.900450 -1.595342 1.877162
0.697026 -1.604877 1.414744
0.802014 -1.612988 1.531523
0.697645 -1.594468 1.164586
0.659300 -1.597889 1.196504
0.729576 -1.600387 1.381180
0.686453 -1.605412 1.070834
0.643096 -1.615410 1.053437
0.803011 -1.599163 1.293067
0.661030 -1.606456 1.221757
0.790221 -1.603405 1.828688
0.820088 -1.550259 1.952992
0.756583 -1.626250 1.274073
0.866198 -1.556408 1.915607
0.743820 -1.556461 2.021785
0.711938 -1.626197 1.255512
0.744833 -1.601924 0.960464
0.739208 -1.609746 0.911366
0.824333 -1.604265 1.853352
0.696388 -1.612048 0.969817
0.738382 -1.601862 0.950904
0.833437 -1.609756 1.552928
0.693430 -1.601409 0.990965
0.775909 -1.552961 1.990419
0.702088 -1.584634 1.686995
0.771522 -1.577795 1.615682
0.686840 -1.607848 0.937722
0.792322 -1.615754 1.290099
0.682146 -1.622859 1.476087
0.730867 -1.578220 1.653516
0.806850 -1.578509 1.573478
0.647823 -1.606973 1.025864
0.692484 -1.594405 1.128818
0.691617 -1.608661 1.084184
0.713892 -1.611330 1.505454
0.853947 -1.601508 1.875993
0.736740 -1.604294 1.092073
0.704682 -1.608590 1.789067
0.727858 -1.613944 1.345867
0.644131 -1.592333 1.410703
0.752388 -1.612867 1.529814
0.723433 -1.586379 1.082819
0.653208 -1.598473 1.168022
0.615103 -1.602968 1.199044
0.690284 -1.616219 1.386705
0.644883 -1.614772 1.074711
0.618028 -1.615435 1.223683
0.754963 -1.604117 1.298968
0.740558 -1.604737 1.823118
0.776362 -1.560470 1.955140
0.712471 -1.634327 1.278004
0.701488 -1.565390 2.021614
0.659243 -1.616535 1.253848
0.815599 -1.559718 1.914428
0.700762 -1.608550 0.968259
0.777123 -1.608686 1.851001
0.689275 -1.604475 0.920154
0.785462 -1.611094 1.552272
0.730961 -1.557600 1.988911
0.650643 -1.614096 0.976150
0.656227 -1.586452 1.685202
0.650538 -1.608810 0.997741
0.689964 -1.601430 0.959176
0.726965 -1.585057 1.618532
0.746627 -1.622246 1.293963
0.690904 -1.592176 1.658851
0.634442 -1.625286 1.474533
0.757884 -1.581963 1.576222
0.649495 -1.601937 1.134604
0.648233 -1.615377 1.088886
0.805794 -1.606234 1.873762
0.671195 -1.624388 1.507874
0.599489 -1.593479 1.411751
0.691853 -1.609297 1.097698
0.665542 -1.585527 1.341600
0.659894 -1.619383 1.789347
0.705468 -1.616923 1.530426
0.682528 -1.599311 1.091149
0.611714 -1.607723 1.172883
0.573105 -1.608402 1.201428
0.629685 -1.587452 1.380219
0.699717 -1.620325 1.825696
0.573355 -1.619843 1.224143
0.715869 -1.622832 1.306872
0.655963 -1.566352 2.016636
0.727967 -1.564140 1.953805
0.656918 -1.619324 1.275891
0.611149 -1.613575 1.254666
0.728881 -1.610423 1.847374
0.657020 -1.616137 0.976141
0.737895 -1.613264 1.552694
0.762309 -1.558887 1.910916
0.685299 -1.560496 1.986221
0.614406 -1.592960 1.686689
0.649374 -1.612183 0.967192
0.681776 -1.590453 1.621188
0.702597 -1.630212 1.298876
0.643450 -1.589294 1.656582
0.579310 -1.607617 1.465965
0.712800 -1.590361 1.580270
0.607448 -1.609184 1.140262
0.759925 -1.611188 1.872365
0.625443 -1.626099 1.507059
0.556429 -1.596225 1.412860
0.646654 -1.613374 1.103222
0.621411 -1.590502 1.345120
0.662750 -1.626863 1.532436
0.611194 -1.620451 1.783642
0.639947 -1.607673 1.098012
0.586408 -1.592257 1.382627
0.615600 -1.574581 2.017197
0.649729 -1.617619 1.819615
0.651420 -1.590842 1.303331
0.681455 -1.567223 1.952221
0.607542 -1.612605 1.276328
0.566852 -1.615682 1.255800
0.681903 -1.612816 1.843713
0.693652 -1.618365 1.555221
0.641622 -1.565808 1.984674
0.572912 -1.600428 1.688264
0.721326 -1.574974 1.919643
0.637233 -1.597752 1.624025
0.650379 -1.621269 1.299272
0.604117 -1.602038 1.661687
0.538188 -1.619165 1.468033
0.671143 -1.604695 1.587815
0.712063 -1.610630 1.869408
0.516309 -1.604216 1.415393
0.570708 -1.609264 1.499566
0.604695 -1.620507 1.109863
0.617078 -1.628462 1.532604
0.578623 -1.596009 1.349595
0.565816 -1.624450 1.780040
0.545731 -1.598232 1.385963
0.570204 -1.570505 2.009519
0.602366 -1.619216 1.814865
0.566260 -1.619824 1.279877
0.639170 -1.577876 1.956297
0.605563 -1.593057 1.308661
0.634510 -1.611278 1.838560
0.653714 -1.632354 1.560538
0.519988 -1.578179 1.675864
0.597073 -1.568184 1.983827
0.668241 -1.568985 1.914417
0.587867 -1.589237 1.621184
0.600113 -1.611609 1.300411
0.549070 -1.579324 1.650423
0.494984 -1.625324 1.467554
0.669914 -1.619348 1.871192
0.623421 -1.605714 1.590107
0.527870 -1.613105 1.499767
0.557284 -1.597878 1.520730
0.537483 -1.602989 1.355117
0.524749 -1.639033 1.783486
0.504508 -1.605346 1.390493
0.530557 -1.580530 2.011241
0.558067 -1.622680 1.813110
0.595009 -1.581084 1.956525
0.593621 -1.620657 1.840308
0.563483 -1.600342 1.314302
0.605299 -1.626685 1.557966
0.480438 -1.584950 1.678170
0.557287 -1.580148 1.987835
0.625090 -1.579844 1.919590
0.557532 -1.615081 1.303571
0.538495 -1.580754 1.618330
0.507332 -1.585764 1.652875
0.619783 -1.610549 1.863296
0.564114 -1.578975 1.580698
0.485353 -1.617916 1.500049
0.520498 -1.615077 1.526160
0.496232 -1.597578 2.020473
0.515854 -1.631573 1.813884
0.440074 -1.586975 1.677900
0.550763 -1.627660 1.840896
0.552159 -1.589775 1.961380
0.549554 -1.603933 1.549769
0.517489 -1.589001 1.991430
0.466089 -1.584832 1.653313
0.497245 -1.587896 1.622848
0.579225 -1.583431 1.922027
0.579915 -1.619519 1.865901
0.520969 -1.583591 1.585056
0.480757 -1.623932 1.529751
0.423471 -1.613970 1.761747
0.468162 -1.621077 1.804534
0.507488 -1.630729 1.839993
0.477592 -1.594862 1.993627
0.509131 -1.595602 1.963848
0.509488 -1.611843 1.553267
0.425378 -1.590874 1.656620
0.455895 -1.592047 1.625969
0.534941 -1.588617 1.924523
0.537435 -1.624222 1.867163
0.478550 -1.589985 1.590583
0.402658 -1.574307 1.997272
0.420978 -1.614423 1.797652
0.457392 -1.613896 1.828006
0.425458 -1.570813 1.975831
0.468067 -1.616125 1.555393
0.498996 -1.633610 1.871705
0.491361 -1.592447 1.927786
0.364026 -1.580838 1.999431
0.437607 -1.594969 1.594779
0.416481 -1.617079 1.828921
0.386690 -1.579283 1.980274
0.416012 -1.576547 1.950244
0.452498 -1.625594 1.865590
0.435696 -1.566123 1.913030
0.323135 -1.579094 1.996667
0.345445 -1.581546 1.981091
0.374095 -1.581869 1.954549
0.408279 -1.617798 1.860312
0.397384 -1.580243 1.923215
0.305541 -1.584336 1.982862
0.333335 -1.584834 1.957431
0.367667 -1.618818 1.860908
0.354616 -1.585762 1.928621
