# .PCD v0.7 - Point Cloud Data file format
VERSION 0.7
FIELDS x y z
SIZE 4 4 4
TYPE F F F
COUNT 1 1 1
WIDTH 72
HEIGHT 1
VIEWPOINT 0 0 0 1
POINTS 72
DATA ascii
1.274981 24.689777 1.181456
1.298989 24.667559 1.127607
1.284896 24.679150 1.159812
1.246255 24.697428 1.282002
1.280976 24.697033 1.174355
1.283042 24.691277 1.154290
1.219597 24.704412 1.334891
1.274504 24.641670 1.196785
1.292029 24.621243 1.139362
1.283109 24.632162 1.175282
1.238831 24.705187 1.281558
1.235222 24.651808 1.292840
1.288659 24.643559 1.173322
1.276958 24.651026 1.189613
1.257871 24.666224 1.239112
1.211350 24.657366 1.347523
1.275203 24.664917 1.191556
1.275537 24.664709 1.196436
1.272189 24.593279 1.211409
1.250046 24.685812 1.274488
1.280794 24.583771 1.189906
1.233516 24.659372 1.297327
1.262857 24.683599 1.213673
1.245882 24.703587 1.272677
1.263574 24.677258 1.200221
1.225400 24.673637 1.414827
1.243264 24.601145 1.315264
1.272025 24.604872 1.204520
1.279101 24.597635 1.186094
1.253321 24.619730 1.253160
1.230372 24.705381 1.306966
1.242474 24.660412 1.296299
1.213843 24.607712 1.367094
1.275444 24.618095 1.210178
1.274473 24.618088 1.215565
1.242885 24.640636 1.289185
1.276753 24.541830 1.229116
1.282195 24.534084 1.206681
1.299285 24.519918 1.173331
1.237476 24.610336 1.318465
1.239426 24.659704 1.290663
1.254003 24.639885 1.229371
1.264529 24.630810 1.222498
1.276412 24.550495 1.201218
1.240210 24.552494 1.331983
1.275448 24.554441 1.224809
1.222447 24.661802 1.323020
1.255817 24.570078 1.272730
1.234557 24.615910 1.312720
1.212103 24.557940 1.383674
1.269218 24.572136 1.225596
1.267318 24.572908 1.230265
1.234808 24.595318 1.303532
1.235891 24.562300 1.336753
1.240935 24.613720 1.314160
1.261283 24.591743 1.252785
1.273656 24.582941 1.246620
1.269616 24.507214 1.239736
1.229350 24.613993 1.347297
1.256850 24.520720 1.290371
1.240549 24.566114 1.337375
1.275966 24.522585 1.248165
1.273148 24.522299 1.252845
1.242114 24.544401 1.328048
1.237099 24.512827 1.356837
1.257084 24.545948 1.271357
1.231731 24.568491 1.331458
1.262604 24.537436 1.263210
1.223688 24.567579 1.364303
1.233043 24.519419 1.353675
1.238281 24.519161 1.357333
1.221362 24.520206 1.384319
