# .PCD v0.7 - Point Cloud Data file format
VERSION 0.7
FIELDS x y z
SIZE 4 4 4
TYPE F F F
COUNT 1 1 1
WIDTH 68
HEIGHT 1
VIEWPOINT 0 0 0 1
POINTS 68
DATA ascii
1.210894 25.784761 1.067354
1.186927 25.811203 1.138301
1.208166 25.785835 1.089276
1.200222 25.808922 1.097100
1.203643 25.805096 1.105047
1.168280 25.798086 1.198090
1.211356 25.738535 1.082860
1.184181 25.765621 1.153243
1.203145 25.741117 1.103984
1.163335 25.806906 1.200465
1.199519 25.763779 1.115148
1.195952 25.761595 1.120371
1.164940 25.790981 1.193914
1.166060 25.811007 1.196523
1.161414 25.752947 1.212129
1.191948 25.784924 1.138114
1.196866 25.776091 1.130006
1.154338 25.810921 1.229015
1.206787 25.692554 1.097125
1.109849 25.783485 1.314772
1.181499 25.719133 1.168589
1.199548 25.694435 1.118995
1.176673 25.803982 1.159675
1.163165 25.762302 1.219689
1.163418 25.811266 1.191820
1.189743 25.787964 1.139496
1.198294 25.718060 1.132006
1.196674 25.714481 1.138720
1.166188 25.744419 1.213445
1.167397 25.766270 1.217672
1.187998 25.741320 1.155176
1.160773 25.706871 1.230577
1.190689 25.732447 1.147248
1.154169 25.766310 1.248235
1.206989 25.644873 1.114285
1.174758 25.672192 1.183439
1.200723 25.646053 1.136900
1.170053 25.761595 1.177353
1.185940 25.745283 1.158585
1.159323 25.716883 1.237570
1.162088 25.767748 1.213583
1.194850 25.672291 1.149037
1.133618 25.787731 1.282901
1.191337 25.669209 1.154671
1.161818 25.698437 1.230143
1.159914 25.722767 1.235423
1.183190 25.696608 1.172310
1.152088 25.661310 1.243930
1.185937 25.686836 1.164792
1.148382 25.722279 1.264622
1.166308 25.718006 1.196847
1.180305 25.702192 1.176998
1.156061 25.725010 1.232845
1.148304 25.673079 1.250278
1.183842 25.628498 1.161742
1.129867 25.744122 1.302395
1.152697 25.654133 1.243928
1.155696 25.677698 1.254143
1.178446 25.650986 1.189846
1.185461 25.641684 1.185256
1.144552 25.676842 1.282492
1.159759 25.674700 1.214920
1.172451 25.659048 1.195585
1.151016 25.681562 1.252845
1.119912 25.701429 1.317462
1.142604 25.634768 1.269050
1.129422 25.633478 1.294290
1.148847 25.636909 1.274662
