# .PCD v0.7 - Point Cloud Data file format
VERSION 0.7
FIELDS x y z
SIZE 4 4 4
TYPE F F F
COUNT 1 1 1
WIDTH 32
HEIGHT 1
VIEWPOINT 0 0 0 1
POINTS 32
DATA ascii
-3.565966 34.509449 0.905936
-4.112445 35.420265 1.328911
-4.061863 35.531513 1.312619
-3.479886 34.387707 0.949860
-3.466854 34.512688 0.958855
-3.428002 34.390621 0.971786
-3.581348 34.526466 0.887371
-3.412496 34.502743 0.981826
-3.561572 35.578903 0.899105
-3.485961 34.645210 0.947904
-3.965969 35.763195 1.237227
-4.091881 35.499481 1.324725
-4.084585 35.569756 1.298401
-3.418829 34.621922 0.965655
-3.461370 34.842430 0.960565
-3.463037 34.444504 0.952789
-3.479664 34.539982 0.951720
-3.508778 34.929581 0.930393
-3.394078 34.816719 0.985796
-3.405911 34.434124 0.976733
-3.417560 34.522537 0.975370
-3.508440 35.210247 0.938942
-3.985307 35.787937 1.204262
-3.438675 34.906391 0.956905
-3.480641 34.770943 0.943333
-3.428359 35.171272 0.968061
-3.485543 34.887287 0.946742
-3.534514 35.252670 0.908055
-3.411546 34.745789 0.969752
-3.411261 34.853878 0.974741
-3.539665 35.627827 0.920532
-3.460432 35.231575 0.943413
