# .PCD v0.7 - Point Cloud Data file format
VERSION 0.7
FIELDS x y z
SIZE 4 4 4
TYPE F F F
COUNT 1 1 1
WIDTH 70
HEIGHT 1
VIEWPOINT 0 0 0 1
POINTS 70
DATA ascii
-3.885723 35.573254 1.356405
-3.510783 35.300816 0.903158
-3.546756 34.879295 0.909001
-3.533925 35.097496 0.916608
-3.555245 35.236458 0.881146
-3.515282 34.782135 0.922532
-3.459460 35.260521 0.924103
-3.498813 34.836346 0.921099
-3.478311 35.042149 0.930100
-3.504586 35.204613 0.903537
-3.529042 34.746544 0.902393
-3.528140 34.932903 0.924681
-3.551927 35.164009 0.893455
-3.534678 34.668514 0.921261
-3.947423 35.318157 1.390321
-3.472316 34.747879 0.940381
-3.408005 35.212673 0.941629
-3.563005 34.676113 0.895916
-3.457102 34.804153 0.938726
-3.889472 35.563808 1.368510
-3.433901 35.012802 0.957313
-3.451830 35.163330 0.920621
-3.490733 34.727585 0.923356
-3.502101 35.426781 0.939278
-3.481468 34.896877 0.940739
-3.500031 35.133541 0.912596
-3.544619 34.550190 0.911767
-3.493976 34.643307 0.937745
-3.541141 35.111153 0.892861
-3.429676 34.712162 0.955653
-3.527274 34.667850 0.918850
-3.416035 34.772152 0.957112
-3.519681 34.781811 0.930513
-3.532155 35.267345 0.918460
-3.404106 35.132103 0.943087
-3.556239 34.611137 0.900060
-3.444718 35.376408 0.957074
-3.447792 34.696774 0.937729
-3.435441 34.861046 0.957557
-3.449480 35.104801 0.932877
-3.510866 34.538975 0.932408
-3.450916 34.606644 0.946948
-3.492339 35.095413 0.917928
-3.488363 34.650448 0.937316
-3.478449 34.757431 0.947245
-3.484237 35.242016 0.941018
-3.520978 34.656269 0.927400
-3.516782 34.596630 0.915649
-3.409421 34.671631 0.954902
-3.527225 34.452656 0.917939
-3.399686 35.072407 0.950729
-3.475531 34.524052 0.949947
-3.412055 34.577492 0.960168
-3.436782 35.058365 0.931097
-3.442141 34.612915 0.942749
-3.436072 34.727154 0.961020
-3.434148 35.205887 0.958646
-3.478502 34.628414 0.936700
-3.476130 34.581432 0.931096
-3.493552 34.439678 0.932287
-3.432057 34.486465 0.953086
-3.404691 34.593399 0.959169
-3.393950 34.694054 0.972595
-3.444298 34.619404 0.957216
-3.434571 34.557491 0.941384
-3.457486 34.425304 0.946343
-3.399702 34.471790 0.972062
-3.406200 34.594864 0.968709
-3.397984 34.547092 0.961608
-3.423757 34.410988 0.961077
