# .PCD v0.7 - Point Cloud Data file format
VERSION 0.7
FIELDS x y z
SIZE 4 4 4
TYPE F F F
COUNT 1 1 1
WIDTH 15
HEIGHT 1
VIEWPOINT 0 0 0 1
POINTS 15
DATA ascii
-7.790029 32.487114 -0.761093
-7.769153 32.502789 -0.760157
-7.872340 32.505966 -0.824513
-7.927868 32.500446 -0.792793
-8.644883 32.354195 -0.988687
-7.794067 32.558270 -0.780395
-8.398870 32.445202 -0.916551
-7.802741 32.571167 -0.778503
-8.155216 32.535553 -0.834435
-8.015951 32.561230 -0.799663
-7.809549 32.629681 -0.797741
-8.443205 32.522606 -0.930475
-7.822799 32.641537 -0.795773
-8.287225 32.593567 -0.848982
-7.937296 32.647011 -0.811553
