# .PCD v0.7 - Point Cloud Data file format
VERSION 0.7
FIELDS x y z
SIZE 4 4 4
TYPE F F F
COUNT 1 1 1
WIDTH 40
HEIGHT 1
VIEWPOINT 0 0 0 1
POINTS 40
DATA ascii
-5.773890 34.964954 0.060875
-5.729905 34.946091 0.059459
-5.784835 35.056355 0.048965
-5.782721 35.044292 0.056091
-5.732371 34.970413 0.072015
-5.640219 34.907711 0.040856
-5.735795 35.051888 0.060007
-5.737448 35.044216 0.067838
-5.751632 35.130936 0.055682
-5.626195 34.919029 0.043848
-5.792264 35.262691 0.047117
-5.745672 35.163792 0.054357
-5.781548 35.238735 0.052432
-5.639149 35.004593 0.042098
-5.632570 34.990417 0.045154
-5.645883 34.975136 0.091934
-5.646291 35.072735 0.036068
-5.789101 35.335884 0.050106
-5.749321 35.278641 0.052848
-5.745298 35.278507 0.049725
-5.737954 35.254688 0.057408
-5.639070 35.103321 0.035843
-5.670457 35.172588 0.035165
-5.651185 35.052902 0.088877
-5.653372 35.047359 0.096249
-5.762157 35.384167 0.043263
-5.751302 35.367001 0.051382
-5.659791 35.124851 0.086888
-5.685896 35.280350 0.036604
-5.626812 35.187302 0.032224
-5.668161 35.251984 0.048056
-5.631454 35.203865 0.033527
-5.648041 35.152039 0.085303
-5.666785 35.209270 0.079701
-5.666136 35.330887 0.035450
-5.640526 35.297886 0.033849
-5.899475 35.400631 0.285923
-5.675439 35.317886 0.075116
-5.648521 35.252991 0.087858
-5.727784 35.366737 0.130447
