# .PCD v0.7 - Point Cloud Data file format
VERSION 0.7
FIELDS x y z
SIZE 4 4 4
TYPE F F F
COUNT 1 1 1
WIDTH 14
HEIGHT 1
VIEWPOINT 0 0 0 1
POINTS 14
DATA ascii
-8.294292 32.332409 -0.854728
-8.594150 32.270950 -0.982005
-9.007178 32.106098 -1.199233
-8.762568 32.218369 -1.068354
-9.132933 32.156395 -1.217873
-8.492079 32.259411 -0.939452
-8.499573 32.262997 -0.923293
-8.623450 32.207264 -0.998771
-8.847728 32.128529 -1.144378
-8.917091 32.128471 -1.103137
-8.744763 32.248489 -1.014267
-8.992627 32.182926 -1.120416
-9.008429 32.167534 -1.165664
-9.283392 32.180992 -1.184942
