# .PCD v0.7 - Point Cloud Data file format
VERSION 0.7
FIELDS x y z
SIZE 4 4 4
TYPE F F F
COUNT 1 1 1
WIDTH 48
HEIGHT 1
VIEWPOINT 0 0 0 1
POINTS 48
DATA ascii
-5.772799 35.212486 0.052281
-5.764759 35.248360 0.070515
-5.759551 35.080341 0.060778
-5.754986 35.111687 0.071957
-5.751554 35.156586 0.073267
-5.742367 35.201267 0.075516
-5.765825 35.278294 0.050833
-5.763975 35.201008 0.073008
-5.759325 35.225262 0.044747
-5.742931 35.215199 0.075573
-5.743890 35.404125 0.063315
-5.720219 35.229221 0.080834
-5.739847 35.338654 0.066740
-5.728815 35.083385 0.076903
-5.716358 35.104660 0.084081
-5.705680 35.139473 0.082153
-5.739664 35.193989 0.074229
-5.697118 35.181068 0.086429
-5.737775 35.284954 0.076610
-5.721360 35.189953 0.083184
-5.729602 35.230133 0.065318
-5.701667 35.202118 0.087175
-5.691599 35.377602 0.076181
-5.665532 35.196251 0.081082
-5.699339 35.329235 0.085703
-5.694109 35.082397 0.091073
-5.676654 35.093761 0.093072
-5.644780 35.101757 0.073117
-5.622046 35.123405 0.066687
-5.696191 35.186867 0.085244
-5.691753 35.268780 0.086957
-5.692093 35.225010 0.080476
-5.666552 35.165035 0.082411
-5.619542 35.138588 0.060160
-5.599510 35.293785 0.048028
-5.610371 35.161385 0.079053
-5.613572 35.027195 0.058920
-5.602984 35.243698 0.049293
-5.591649 35.029552 0.057958
-5.605808 35.199310 0.056479
-5.614588 35.131386 0.057967
-5.617199 35.171589 0.056696
-5.611323 35.136230 0.079262
-5.613519 35.166073 0.104421
-5.782514 35.527561 0.291025
-5.605896 35.199139 0.096269
-7.030269 36.937187 1.741151
-7.075257 36.944767 1.810039
