# .PCD v0.7 - Point Cloud Data file format
VERSION 0.7
FIELDS x y z
SIZE 4 4 4
TYPE F F F
COUNT 1 1 1
WIDTH 30
HEIGHT 1
VIEWPOINT 0 0 0 1
POINTS 30
DATA ascii
-7.698170 34.109333 -0.724487
-7.698899 34.158573 -0.711884
-7.710030 34.209549 -0.696138
-7.718357 34.260571 -0.680650
-7.725030 34.283024 -0.728027
-7.728786 34.273167 -0.731786
-7.762384 34.319885 -0.658018
-7.693737 34.326534 -0.715054
-7.703912 34.318623 -0.718854
-7.703128 34.378315 -0.695189
-7.721686 34.374199 -0.696654
-7.706889 34.429180 -0.675881
-7.722535 34.426022 -0.676161
-7.724214 34.517250 -0.738972
-7.733427 34.572895 -0.716131
-7.767863 34.638042 -0.687741
-7.710811 34.663074 -0.735154
-7.717706 34.660309 -0.741131
-7.726797 34.724422 -0.707192
-7.735638 34.722511 -0.710834
-7.754083 34.820927 -0.740122
-7.704479 34.857281 -0.738283
-7.757875 34.881752 -0.718945
-7.746081 34.865437 -0.731040
-7.721084 34.917595 -0.709581
-7.726787 34.948044 -0.758486
-7.772935 35.048958 -0.745587
-7.727514 35.010284 -0.725507
-7.735923 35.119991 -0.758834
-7.732481 35.178383 -0.727792
