# .PCD v0.7 - Point Cloud Data file format
VERSION 0.7
FIELDS x y z
SIZE 4 4 4
TYPE F F F
COUNT 1 1 1
WIDTH 17
HEIGHT 1
VIEWPOINT 0 0 0 1
POINTS 17
DATA ascii
-5.829415 36.783722 -0.026655
-5.340235 35.727146 -0.514226
-5.823599 36.881630 -0.019872
-5.319456 35.770832 -0.500539
-5.821396 36.989319 -0.030029
-5.283914 35.792961 -0.492656
-5.738912 36.702232 -0.013707
-5.288915 35.690907 -0.495050
-5.821324 37.138184 -0.022494
-5.730771 36.796085 -0.005187
-5.261996 35.726879 -0.485791
-6.283473 37.363930 0.634559
-5.261838 35.693745 -0.462641
-5.241481 35.792103 -0.461852
-5.283401 35.689819 -0.386598
-5.244624 35.671402 -0.471646
-5.210801 35.690716 -0.468008
