# .PCD v0.7 - Point Cloud Data file format
VERSION 0.7
FIELDS x y z
SIZE 4 4 4
TYPE F F F
COUNT 1 1 1
WIDTH 25
HEIGHT 1
VIEWPOINT 0 0 0 1
POINTS 25
DATA ascii
-8.038991 36.766521 -0.845534
-7.995640 36.621300 -0.831143
-7.973564 36.742050 -0.809869
-7.961663 36.658836 -0.762663
-7.879348 36.656685 -0.797108
-8.024701 36.418560 -0.840496
-7.964554 36.078327 -0.789209
-7.998097 36.460735 -0.784014
-7.861266 35.993111 -0.799318
-7.963470 37.004059 -0.825331
-7.934505 36.437813 -0.753984
-8.004408 36.458744 -0.839171
-7.951452 36.004719 -0.785118
-8.050429 36.965748 -0.832327
-8.163477 37.612038 -0.555060
-7.989361 36.523209 -0.769897
-7.849286 35.916210 -0.797858
-7.925910 36.839325 -0.829888
-8.004299 36.534527 -0.841648
-7.900274 36.450302 -0.756768
-7.935584 35.955860 -0.776612
-8.014016 36.853809 -0.825863
-7.985743 36.594521 -0.769459
-7.893460 36.723690 -0.827362
-7.869472 36.468700 -0.775972
