# .PCD v0.7 - Point Cloud Data file format
VERSION 0.7
FIELDS x y z
SIZE 4 4 4
TYPE F F F
COUNT 1 1 1
WIDTH 20
HEIGHT 1
VIEWPOINT 0 0 0 1
POINTS 20
DATA ascii
-7.799668 35.144493 -0.729197
-7.807574 35.068317 -0.733803
-7.805989 35.009701 -0.729284
-7.765305 35.125500 -0.713909
-7.785295 35.044918 -0.717549
-7.775616 35.049782 -0.720525
-7.792680 34.966412 -0.731278
-7.804423 34.951118 -0.724783
-7.791020 34.965778 -0.729925
-7.809144 34.908367 -0.725005
-7.778524 34.993526 -0.711616
-7.708076 35.042835 -0.765296
-7.753992 35.026279 -0.703521
-7.746458 35.031834 -0.704281
-7.766223 34.950962 -0.715728
-7.774800 34.924854 -0.714507
-7.764972 34.950474 -0.709397
-7.749265 34.974525 -0.696752
-7.703433 34.957886 -0.748220
-7.739828 34.930199 -0.704854
