# .PCD v0.7 - Point Cloud Data file format
VERSION 0.7
FIELDS x y z
SIZE 4 4 4
TYPE F F F
COUNT 1 1 1
WIDTH 13
HEIGHT 1
VIEWPOINT 0 0 0 1
POINTS 13
DATA ascii
-9.904198 35.016548 -1.578204
-9.907808 35.030186 -1.577011
-9.896087 34.935608 -1.593039
-9.855441 34.829361 -1.614441
-9.896256 34.958195 -1.578251
-9.896192 34.968819 -1.555353
-9.896428 34.908749 -1.572333
-10.061440 35.119934 -1.427925
-10.087126 35.084309 -1.386504
-9.863169 34.985271 -1.624358
-10.114527 35.087891 -1.396818
-9.884362 35.036507 -1.578967
-9.967082 35.026909 -1.438671
