# .PCD v0.7 - Point Cloud Data file format
VERSION 0.7
FIELDS x y z
SIZE 4 4 4
TYPE F F F
COUNT 1 1 1
WIDTH 28
HEIGHT 1
VIEWPOINT 0 0 0 1
POINTS 28
DATA ascii
-10.051436 36.887016 -1.667109
-10.005753 36.914505 -1.605230
-9.926838 36.830818 -1.588772
-9.957409 36.047298 -1.568637
-10.062287 37.043682 -1.612720
-9.923051 35.907104 -1.559867
-9.875116 35.936916 -1.584654
-9.964751 36.021400 -1.579573
-9.964138 36.914387 -1.610524
-9.912277 35.936050 -1.595037
-10.017546 36.948647 -1.603332
-9.913243 35.992893 -1.555470
-10.384600 37.375183 -0.663365
-9.953933 37.069828 -1.487912
-9.956630 36.105053 -1.572819
-9.962970 35.985062 -1.566898
-9.868663 35.922253 -1.559468
-9.996614 36.226665 -1.593117
-9.824169 35.867115 -1.592071
-9.928089 36.842731 -1.595150
-9.895658 36.062313 -1.556044
-9.882801 35.883247 -1.586903
-9.934122 36.196815 -1.567328
-9.915852 35.905567 -1.591914
-10.402175 37.304806 -0.667649
-9.836762 36.065571 -1.596883
-9.875759 35.901310 -1.557510
-10.382925 37.319996 -0.631604
