# .PCD v0.7 - Point Cloud Data file format
VERSION 0.7
FIELDS x y z
SIZE 4 4 4
TYPE F F F
COUNT 1 1 1
WIDTH 16
HEIGHT 1
VIEWPOINT 0 0 0 1
POINTS 16
DATA ascii
-11.573981 30.994055 -2.867420
-11.627625 30.965538 -2.888727
-11.582010 30.963421 -2.865299
-11.689535 30.919554 -2.905399
-11.636577 30.940834 -2.887661
-11.698556 30.903067 -2.905605
-11.561483 31.046526 -2.837538
-11.566484 31.048302 -2.838726
-11.611688 31.010061 -2.856747
-11.620077 31.011032 -2.856920
-11.665875 30.971504 -2.876925
-11.671259 30.985477 -2.880408
-11.728952 30.912420 -2.890666
-11.727080 30.950680 -2.900026
-11.779225 30.891106 -2.916650
-11.789026 30.906199 -2.917053
