# .PCD v0.7 - Point Cloud Data file format
VERSION 0.7
FIELDS x y z
SIZE 4 4 4
TYPE F F F
COUNT 1 1 1
WIDTH 25
HEIGHT 1
VIEWPOINT 0 0 0 1
POINTS 25
DATA ascii
-14.162157 33.640072 -3.245622
-14.140203 33.691101 -3.231503
-14.088799 33.738888 -3.219596
-14.044722 33.786697 -3.207281
-14.143379 33.919472 -3.240934
-14.065145 33.961338 -3.227407
-14.180174 34.015175 -3.256024
-14.197092 34.046432 -3.247025
-14.097863 34.056187 -3.240566
-14.058577 34.075714 -3.241901
-14.217964 34.289337 -3.257204
-14.190643 34.308327 -3.263504
-14.063251 34.306683 -3.247345
-14.111294 34.345547 -3.243415
-14.125729 34.573059 -3.258113
-14.242935 33.749615 -3.232034
-14.237153 33.682983 -3.230989
-14.248687 33.803192 -3.217751
-14.221395 33.731552 -3.219304
-14.233410 33.853706 -3.206183
-14.201030 33.779209 -3.207889
-14.126766 33.891758 -3.205967
-14.150705 33.822952 -3.199771
-14.228412 34.095650 -3.242115
-14.210954 34.146065 -3.223624
