# .PCD v0.7 - Point Cloud Data file format
VERSION 0.7
FIELDS x y z
SIZE 4 4 4
TYPE F F F
COUNT 1 1 1
WIDTH 12
HEIGHT 1
VIEWPOINT 0 0 0 1
POINTS 12
DATA ascii
-16.115002 33.612045 -4.015822
-16.117832 33.674526 -3.997413
-16.140255 33.738354 -3.977930
-16.130991 33.626427 -4.000700
-16.149496 33.698112 -3.976509
-16.151278 33.715298 -4.020694
-16.180508 33.785755 -3.996439
-16.147793 34.055969 -4.014300
-16.166517 34.126698 -3.987879
-16.251760 34.440910 -4.024271
-16.161537 34.344013 -4.040443
-16.177612 34.420300 -4.006905
