# .PCD v0.7 - Point Cloud Data file format
VERSION 0.7
FIELDS x y z
SIZE 4 4 4
TYPE F F F
COUNT 1 1 1
WIDTH 40
HEIGHT 1
VIEWPOINT 0 0 0 1
POINTS 40
DATA ascii
-13.364897 31.089491 -3.668918
-13.353996 31.026558 -3.664512
-13.386887 31.095095 -3.683106
-13.341967 30.951004 -3.653440
-13.411715 31.128958 -3.693111
-13.392958 31.036573 -3.675287
-13.437527 31.150673 -3.700894
-13.450624 31.174047 -3.705279
-13.381402 30.973263 -3.674413
-13.417901 31.056852 -3.698698
-13.370171 30.893528 -3.666181
-13.440421 31.080587 -3.703215
-13.421134 30.985353 -3.684129
-13.465554 31.107920 -3.712027
-13.476833 31.128977 -3.715254
-13.411151 30.919935 -3.685038
-13.450954 30.997601 -3.703928
-13.400202 30.833424 -3.676996
-13.471039 31.041704 -3.717237
-13.451615 30.944267 -3.698456
-13.493965 31.065815 -3.724722
-13.503509 31.096674 -3.732634
-13.441815 30.864904 -3.696791
-13.484694 30.960236 -3.720408
-13.503161 30.983906 -3.722723
-13.482638 30.895878 -3.709269
-13.523144 31.025528 -3.737750
-13.531561 31.043764 -3.738997
-13.473368 30.813644 -3.709960
-13.519636 30.915169 -3.734027
-13.536634 30.947592 -3.740115
-13.514562 30.850737 -3.724291
-13.556445 30.965240 -3.742056
-13.562615 30.990419 -3.746737
-13.557189 30.869020 -3.747456
-13.548046 30.804274 -3.736905
-13.571037 30.904884 -3.754160
-13.593363 30.948030 -3.761543
-13.588200 30.933519 -3.762446
-13.624896 30.902246 -3.774999
