# .PCD v0.7 - Point Cloud Data file format
VERSION 0.7
FIELDS x y z
SIZE 4 4 4
TYPE F F F
COUNT 1 1 1
WIDTH 12
HEIGHT 1
VIEWPOINT 0 0 0 1
POINTS 12
DATA ascii
-17.245945 33.042706 -7.537517
-17.260778 33.111511 -7.621634
-17.354315 33.095692 -7.332488
-17.274256 33.122929 -7.361738
-17.375282 33.104561 -7.253680
-17.319561 33.106312 -7.236348
-17.387011 33.120701 -7.174785
-17.415396 33.117935 -7.127617
-17.460205 33.099651 -6.888800
-17.548275 33.098431 -6.789035
-17.694824 33.104492 -6.766730
-17.544994 33.107239 -6.650978
