# .PCD v0.7 - Point Cloud Data file format
VERSION 0.7
FIELDS x y z
SIZE 4 4 4
TYPE F F F
COUNT 1 1 1
WIDTH 32
HEIGHT 1
VIEWPOINT 0 0 0 1
POINTS 32
DATA ascii
-13.443817 31.200285 -3.703131
-13.466476 31.146706 -3.710231
-13.481870 31.205624 -3.714898
-13.490224 31.104856 -3.723740
-13.490703 31.258657 -3.725838
-13.505260 31.154350 -3.719513
-13.516416 31.045425 -3.729684
-13.513326 31.197060 -3.721405
-13.530302 31.109179 -3.729507
-13.542482 30.966532 -3.726334
-13.537004 31.135954 -3.717746
-13.651414 31.056192 -3.615692
-13.556220 31.076788 -3.746831
-13.627040 31.012327 -3.592546
-13.572492 30.939667 -3.752474
-13.564296 31.094227 -3.727589
-13.584208 31.022905 -3.754447
-13.658714 30.977787 -3.607178
-13.590751 31.064939 -3.744746
-13.613315 30.949257 -3.751246
-13.693918 30.886400 -3.587657
-13.618152 31.048185 -3.770610
-13.647686 31.001167 -3.779413
-13.541538 31.236139 -3.729059
-13.564792 31.161486 -3.713389
-13.622113 30.968248 -3.579380
-13.590478 31.129696 -3.726446
-13.654999 30.952917 -3.606835
-13.616519 31.104805 -3.743649
-13.687624 30.938889 -3.633820
-13.644795 31.068865 -3.754448
-13.673000 31.038921 -3.769254
