# .PCD v0.7 - Point Cloud Data file format
VERSION 0.7
FIELDS x y z
SIZE 4 4 4
TYPE F F F
COUNT 1 1 1
WIDTH 36
HEIGHT 1
VIEWPOINT 0 0 0 1
POINTS 36
DATA ascii
-13.393973 31.127382 -3.653988
-13.440150 31.149055 -3.657403
-13.404249 31.074974 -3.660545
-13.446142 31.084999 -3.658327
-13.406984 31.003992 -3.651630
-13.447913 31.008495 -3.651295
-13.420653 30.952581 -3.661858
-13.458133 30.947989 -3.658494
-13.430243 30.891985 -3.664732
-13.469460 30.883575 -3.664927
-13.445342 30.838608 -3.675260
-13.480634 30.815907 -3.670750
-13.418685 31.180040 -3.627923
-13.279213 31.019243 -3.568233
-13.431769 31.132509 -3.639103
-13.362780 31.050997 -3.606875
-13.439124 31.072775 -3.639463
-13.369644 30.982796 -3.604940
-13.299238 30.879414 -3.571534
-13.588179 31.160498 -3.684840
-13.566926 31.130939 -3.669550
-13.580369 31.150190 -3.682308
-13.445146 31.006350 -3.636446
-13.378892 30.914129 -3.605054
-13.599827 31.107327 -3.687128
-13.312762 30.813004 -3.578487
-13.588323 31.090534 -3.680558
-13.577557 31.076557 -3.675221
-13.458584 30.952383 -3.644296
-13.393992 30.856621 -3.615095
-13.600940 31.038340 -3.687329
-13.587902 31.019983 -3.681206
-13.468547 30.886547 -3.645668
-13.404723 30.781683 -3.614041
-13.593529 30.944563 -3.672245
-13.483891 30.831247 -3.655412
