# .PCD v0.7 - Point Cloud Data file format
VERSION 0.7
FIELDS x y z
SIZE 4 4 4
TYPE F F F
COUNT 1 1 1
WIDTH 70
HEIGHT 1
VIEWPOINT 0 0 0 1
POINTS 70
DATA ascii
-18.835770 32.034107 -5.751595
-19.056643 31.920307 -5.457956
-18.847534 32.095032 -5.715613
-18.900660 31.881124 -5.439212
-18.864847 31.925339 -5.514659
-19.027021 31.946064 -5.476513
-18.834072 32.067829 -5.751798
-18.890717 31.859911 -5.469244
-18.860666 32.160118 -5.676505
-18.926277 31.943848 -5.394183
-18.873621 31.983084 -5.475351
-18.860567 31.885946 -5.488599
-18.853546 32.135281 -5.712263
-18.906179 31.915785 -5.427530
-18.866264 32.219887 -5.636876
-18.929226 31.992949 -5.354200
-18.823799 32.096703 -5.761911
-18.892668 32.051483 -5.430161
-18.876734 31.945469 -5.447269
-18.836517 32.316452 -5.713407
-18.886858 31.888405 -5.473694
-18.846119 32.221069 -5.712159
-18.865292 32.199459 -5.671324
-18.923012 31.972828 -5.382540
-19.014496 31.892384 -5.417548
-18.834307 32.127407 -5.716151
-18.887415 32.296253 -5.592683
-18.879150 31.878435 -5.512370
-18.854183 32.175064 -5.718079
-18.819515 32.039558 -5.717283
-18.896229 32.010178 -5.402484
-18.913122 31.951645 -5.425149
-18.883280 32.427856 -5.663286
-18.876631 31.918453 -5.420675
-18.869692 32.259266 -5.630898
-18.846514 32.281425 -5.673893
-19.037136 31.952103 -5.372922
-18.931519 32.026485 -5.338301
-18.855246 32.199570 -5.675870
-18.896053 31.935883 -5.466021
-18.831039 32.099529 -5.680257
-18.876837 32.250153 -5.672844
-18.906157 32.068142 -5.358862
-18.919401 32.002930 -5.381559
-18.895859 31.978815 -5.376060
-18.869045 32.317467 -5.588977
-18.861740 32.357731 -5.630827
-18.880497 31.893734 -5.388340
-18.956711 32.093571 -5.286398
-18.860769 32.233551 -5.717209
-18.852692 32.253902 -5.637869
-18.850534 32.167381 -5.639354
-18.875923 32.307007 -5.631245
-18.919395 32.043377 -5.327752
-18.904493 32.410339 -5.535677
-18.889183 32.448711 -5.581698
-18.887274 31.941465 -5.348900
-19.170221 32.307819 -5.154740
-18.866402 32.325493 -5.595536
-18.856983 32.287773 -5.674671
-18.861254 32.229549 -5.598495
-18.902208 32.389038 -5.580872
-18.922165 32.094917 -5.285522
-18.919975 32.007881 -5.297209
-18.883244 32.401321 -5.548716
-18.869009 32.356960 -5.627091
-18.877258 32.297920 -5.553853
-18.913895 32.462723 -5.530171
-18.902334 32.448273 -5.571719
-18.899975 32.376816 -5.506043
