# .PCD v0.7 - Point Cloud Data file format
VERSION 0.7
FIELDS x y z
SIZE 4 4 4
TYPE F F F
COUNT 1 1 1
WIDTH 23
HEIGHT 1
VIEWPOINT 0 0 0 1
POINTS 23
DATA ascii
-19.370132 30.851292 -5.294850
-19.428535 30.838526 -5.290718
-19.458075 30.898397 -5.088525
-19.492332 30.815199 -5.293002
-19.442348 30.914993 -5.055511
-19.329977 30.831833 -5.236925
-19.466640 30.861956 -5.150495
-19.403494 30.975134 -4.933071
-19.399710 30.804182 -5.254968
-19.452055 30.816515 -5.216505
-19.375364 30.986004 -4.890032
-19.367157 30.987764 -4.869639
-19.290600 30.809258 -5.179073
-19.352877 30.984184 -4.827460
-19.379044 30.971357 -4.920684
-19.347788 30.817995 -5.156912
-19.410391 30.819288 -5.135230
-19.326103 30.986221 -4.796967
-19.317148 30.995819 -4.759151
-19.289324 30.836674 -5.046601
-19.322401 30.913437 -4.928415
-19.329021 30.979042 -4.808825
-19.269354 30.925352 -4.821315
