# .PCD v0.7 - Point Cloud Data file format
VERSION 0.7
FIELDS x y z
SIZE 4 4 4
TYPE F F F
COUNT 1 1 1
WIDTH 17
HEIGHT 1
VIEWPOINT 0 0 0 1
POINTS 17
DATA ascii
-22.592461 31.709528 -6.621829
-22.522692 31.541679 -6.595393
-22.852375 32.140533 -6.583504
-22.530294 31.761597 -6.607886
-22.939476 32.154560 -6.618629
-22.802168 32.223221 -6.564240
-22.890587 32.240135 -6.601072
-22.851118 32.343056 -6.579757
-22.940895 32.362755 -6.617307
-22.803810 32.440125 -6.560782
-22.905157 32.477394 -6.596673
-22.818083 32.404339 -6.700342
-22.888205 32.794426 -6.700419
-22.631601 32.303131 -6.721725
-22.974379 32.797707 -6.610477
-22.673037 32.529324 -6.680639
-22.912525 32.898407 -6.596256
