# .PCD v0.7 - Point Cloud Data file format
VERSION 0.7
FIELDS x y z
SIZE 4 4 4
TYPE F F F
COUNT 1 1 1
WIDTH 28
HEIGHT 1
VIEWPOINT 0 0 0 1
POINTS 28
DATA ascii
-18.068226 32.401100 -4.835490
-17.918907 32.632759 -4.673945
-17.830650 32.584599 -4.628672
-17.977207 32.373497 -4.749675
-17.700191 32.539272 -4.593264
-17.838820 32.430508 -4.631499
-17.662222 32.332314 -4.561193
-17.712788 32.373699 -4.604492
-17.853374 32.271568 -4.645050
-17.591917 32.402546 -4.484695
-17.713408 32.237286 -4.601064
-17.861183 32.128418 -4.650165
-17.669884 32.038490 -4.574495
-17.715073 32.101448 -4.600732
-17.867466 31.997866 -4.652482
-17.687433 32.000313 -4.590539
-17.714746 31.979351 -4.596901
-17.805775 32.667934 -4.600365
-17.800259 32.611012 -4.599018
-17.811810 32.499386 -4.610466
-17.799776 32.456451 -4.597631
-17.810699 32.351925 -4.609556
-17.798635 32.314079 -4.596416
-17.808496 32.212692 -4.608415
-17.801882 32.168583 -4.601450
-17.817278 32.063786 -4.621315
-17.799852 32.039642 -4.598303
-17.809175 31.948208 -4.612468
