# .PCD v0.7 - Point Cloud Data file format
VERSION 0.7
FIELDS x y z
SIZE 4 4 4
TYPE F F F
COUNT 1 1 1
WIDTH 42
HEIGHT 1
VIEWPOINT 0 0 0 1
POINTS 42
DATA ascii
-17.093021 44.353909 -4.461325
-17.166309 44.340305 -4.489863
-17.086765 44.320240 -4.462343
-17.165581 44.295712 -4.490468
-17.209982 44.702568 -4.431821
-17.094023 44.281433 -4.464932
-17.189680 44.555984 -4.426362
-18.080479 43.710114 -3.924948
-17.202791 44.771370 -4.485604
-17.136330 44.450989 -4.417127
-17.142448 44.954712 -4.481424
-17.202372 44.213673 -4.481749
-17.198765 44.609219 -4.479825
-17.149591 44.824902 -4.447924
-17.258106 44.770798 -4.509991
-17.117147 45.126400 -4.465667
-17.195547 44.445023 -4.454830
-17.077888 44.236267 -4.479950
-17.133144 45.023026 -4.531571
-17.141514 44.892704 -4.503753
-17.236673 45.061775 -4.451772
-17.183523 44.265606 -4.435173
-17.208668 44.920738 -4.440683
-17.331802 44.346581 -4.457392
-17.212778 44.124630 -4.486750
-17.091078 44.887630 -4.457366
-17.272890 44.940300 -4.515920
-17.136698 44.789429 -4.479806
-17.210485 44.877285 -4.522098
-17.228254 45.121075 -4.497914
-17.209843 44.305794 -4.494864
-17.225555 44.957298 -4.482156
-17.215668 44.805553 -4.451926
-17.108664 44.685780 -4.469335
-17.143187 44.839142 -4.530872
-17.183247 44.657528 -4.432570
-17.239336 45.160889 -4.532988
-17.221823 45.014767 -4.530462
-17.209766 44.868916 -4.508986
-17.104603 44.747658 -4.529924
-17.194187 44.704273 -4.488560
-17.370739 44.566494 -4.471805
