# .PCD v0.7 - Point Cloud Data file format
VERSION 0.7
FIELDS x y z
SIZE 4 4 4
TYPE F F F
COUNT 1 1 1
WIDTH 20
HEIGHT 1
VIEWPOINT 0 0 0 1
POINTS 20
DATA ascii
-15.031017 45.294647 -3.730307
-15.051879 45.402786 -3.732062
-15.066102 45.167160 -3.675691
-15.084106 45.279922 -3.674042
-15.102532 45.108658 -3.686079
-15.115514 45.236034 -3.691998
-14.972207 44.566689 -3.617044
-15.012789 44.468616 -3.614597
-14.970029 44.563133 -3.616265
-15.009915 44.460197 -3.612172
-14.967312 44.585300 -3.632031
-14.933559 44.236652 -3.571121
-14.939652 44.407467 -3.555282
-15.005761 44.443104 -3.603723
-14.982860 44.513706 -3.693928
-14.949768 44.613483 -3.654899
-14.981647 44.703182 -3.694293
-15.018124 44.542042 -3.641846
-14.985107 44.425415 -3.597134
-15.025775 44.352562 -3.621825
