# .PCD v0.7 - Point Cloud Data file format
VERSION 0.7
FIELDS x y z
SIZE 4 4 4
TYPE F F F
COUNT 1 1 1
WIDTH 31
HEIGHT 1
VIEWPOINT 0 0 0 1
POINTS 31
DATA ascii
-29.620348 44.280182 -9.389154
-29.657227 44.260612 -9.407968
-29.523335 43.778915 -9.331739
-29.569218 43.756084 -9.354074
-29.545940 43.682980 -9.360287
-29.625673 43.795998 -9.432911
-29.591064 43.641914 -9.364135
-29.515604 44.185631 -9.335859
-29.609165 44.302860 -9.406499
-29.587120 44.269413 -9.479718
-29.644178 44.280952 -9.420995
-29.616486 44.212399 -9.453908
-29.645626 44.144768 -9.416340
-29.560383 44.000961 -9.461314
-29.531116 43.884628 -9.429904
-29.536617 43.866177 -9.420382
-29.588902 43.941772 -9.442665
-29.556765 43.879490 -9.457798
-29.554663 43.775959 -9.375596
-29.563761 43.771835 -9.375857
-29.614170 43.863495 -9.405845
-29.553642 43.736832 -9.373409
-29.586924 43.803467 -9.426007
-29.597008 43.741028 -9.391867
-29.606453 43.739883 -9.392233
-29.655922 43.851360 -9.434524
-29.599710 43.711575 -9.388861
-29.623356 43.741291 -9.408214
-29.557886 43.629486 -9.451804
-29.651552 43.762123 -9.461419
-29.592014 43.507839 -9.387673
