# .PCD v0.7 - Point Cloud Data file format
VERSION 0.7
FIELDS x y z
SIZE 4 4 4
TYPE F F F
COUNT 1 1 1
WIDTH 57
HEIGHT 1
VIEWPOINT 0 0 0 1
POINTS 57
DATA ascii
-31.664532 43.108257 -10.118986
-31.665665 43.379028 -10.120995
-31.682438 43.212105 -10.123564
-31.698225 43.308949 -10.139126
-31.726227 43.111980 -10.144794
-31.992001 43.148338 -9.357931
-31.713911 43.392921 -10.142179
-31.992983 43.156254 -9.360260
-31.660038 43.824425 -10.159513
-31.994225 43.143993 -9.369274
-31.999863 43.162682 -9.363525
-31.738865 43.221287 -10.147544
-31.697521 43.583572 -10.163667
-31.698290 43.604580 -10.163639
-31.677872 43.879360 -10.145749
-31.702663 43.615318 -10.159683
-31.706928 43.616978 -10.160031
-31.751667 43.316414 -10.158974
-31.694700 43.929207 -10.143315
-31.672293 44.104317 -10.163002
-31.758326 43.217667 -10.224732
-31.760590 43.414909 -10.166958
-31.669798 44.112457 -10.169440
-31.667484 44.103466 -10.180386
-31.675570 44.109013 -10.167196
-31.716387 43.799820 -10.159677
-31.702675 43.999706 -10.150303
-31.762232 43.336658 -10.230766
-31.756767 43.571762 -10.164628
-31.754690 43.592964 -10.166812
-31.720512 43.885723 -10.163063
-31.754875 43.606956 -10.169849
-31.758514 43.612682 -10.169934
-31.772202 43.424065 -10.236086
-31.729540 43.949135 -10.168388
-31.779556 43.514751 -10.237326
-31.688965 44.166435 -10.218344
-31.700996 44.114532 -10.200916
-31.686535 44.167576 -10.222788
-31.693800 44.159027 -10.217949
-31.765879 43.796642 -10.173086
-31.738472 44.015633 -10.168371
-31.800024 43.605995 -10.193382
-31.798336 43.620186 -10.192627
-31.799356 43.617100 -10.191956
-31.769619 43.877647 -10.170086
-31.804827 43.625710 -10.190505
-31.774948 43.946373 -10.175162
-31.758610 44.105286 -10.169679
-31.759809 44.068985 -10.175838
-31.757122 44.102345 -10.173438
-31.762468 44.089920 -10.170120
-31.778835 44.017288 -10.175510
-31.778584 43.884857 -10.249962
-31.776726 43.967300 -10.248236
-31.796471 44.075821 -10.192221
-31.796623 44.104939 -10.189773
