# .PCD v0.7 - Point Cloud Data file format
VERSION 0.7
FIELDS x y z
SIZE 4 4 4
TYPE F F F
COUNT 1 1 1
WIDTH 18
HEIGHT 1
VIEWPOINT 0 0 0 1
POINTS 18
DATA ascii
-33.858780 42.834900 -10.998974
-33.714916 43.057785 -10.980111
-33.832901 43.008362 -10.969684
-33.737980 43.156738 -10.938916
-33.857693 42.828522 -10.969790
-33.871719 43.075706 -11.004705
-33.731789 43.276268 -10.995381
-33.828487 43.250969 -10.990846
-33.743057 43.360344 -10.942905
-34.689453 42.584343 -10.335365
-33.892223 43.275158 -11.005351
-33.749855 43.446301 -10.984492
-33.766258 43.518051 -11.018616
-33.792358 43.797615 -10.979827
-34.806683 42.641018 -10.272074
-33.875336 43.476429 -11.000175
-33.765499 43.905117 -11.034857
-33.878918 43.869118 -11.012618
