# .PCD v0.7 - Point Cloud Data file format
VERSION 0.7
FIELDS x y z
SIZE 4 4 4
TYPE F F F
COUNT 1 1 1
WIDTH 20
HEIGHT 1
VIEWPOINT 0 0 0 1
POINTS 20
DATA ascii
-33.649509 43.688046 -10.885595
-33.512836 43.048840 -10.800916
-33.563950 42.993900 -10.817762
-33.491489 43.200615 -10.793746
-33.617306 42.945599 -10.839598
-33.501053 43.175758 -10.797923
-33.482903 43.138329 -10.789740
-33.483345 43.108917 -10.790227
-33.534264 43.135876 -10.810748
-33.547165 43.119534 -10.818125
-33.531452 43.085747 -10.810812
-33.526962 43.051205 -10.802895
-33.576614 43.069225 -10.825464
-33.592697 43.060413 -10.836022
-33.581398 43.030952 -10.830393
-33.577469 43.009354 -10.828636
-33.472347 42.843803 -10.780549
-33.619446 43.000519 -10.838289
-33.539810 42.819138 -10.824696
-33.658615 42.933994 -10.976782
