# .PCD v0.7 - Point Cloud Data file format
VERSION 0.7
FIELDS x y z
SIZE 4 4 4
TYPE F F F
COUNT 1 1 1
WIDTH 80
HEIGHT 1
VIEWPOINT 0 0 0 1
POINTS 80
DATA ascii
-1.530525 6.280453 0.952507
-1.545297 6.250241 1.017574
-1.380190 6.316592 0.535024
-1.510940 6.356674 0.924220
-1.543736 6.318480 1.007254
-1.404988 6.260288 0.653106
-1.433993 6.245381 0.726321
-1.545552 6.428703 0.961905
-1.566139 6.398214 1.029817
-1.413330 6.347629 0.635189
-1.363279 6.429128 0.489826
-1.432470 6.325191 0.679398
-1.404858 6.404622 0.587064
-1.394043 6.487031 0.523910
-1.175852 6.425809 -0.000849
-1.393393 6.418221 0.570614
-1.262277 6.377223 0.231257
-1.564056 6.474119 1.017038
-1.412952 6.402290 0.648277
-1.532367 6.525671 0.929796
-1.449724 6.390416 0.722056
-1.548294 6.564291 0.973106
-1.191517 6.440679 0.058401
-1.231915 6.374519 0.161644
-1.298682 6.411952 0.302981
-1.577763 6.541048 1.044255
-1.245030 6.512675 0.126326
-1.431417 6.512898 0.630756
-1.449214 6.481343 0.678987
-1.374886 6.608573 0.476734
-1.414663 6.565617 0.581596
-1.212231 6.485808 0.096740
-1.383718 6.621571 0.522386
-1.082290 6.513570 -0.264390
-1.415740 6.606477 0.556752
-1.168958 6.594386 -0.033313
-1.071471 6.476508 -0.261817
-1.270779 6.548954 0.203450
-1.435213 6.579646 0.639570
-1.564330 6.605154 1.030050
-1.463071 6.541533 0.719342
-1.538673 6.678902 0.939877
-1.249878 6.609555 0.129763
-1.099444 6.468197 -0.193977
-1.163262 6.519975 -0.082550
-1.585593 6.772883 0.983205
-1.241393 6.547778 0.135144
-1.196239 6.626759 0.022761
-1.300867 6.564531 0.283173
-1.114700 6.602584 -0.191870
-1.424487 6.643418 0.635973
-1.237259 6.783026 0.034991
-1.455626 6.627896 0.682991
-1.412323 6.716502 0.581744
-1.213793 6.662121 0.068770
-1.075894 6.701912 -0.315035
-1.413140 6.853079 0.504656
-1.149875 6.751791 -0.057354
-1.261655 6.699193 0.187208
-1.414708 6.689582 0.645354
-1.466178 6.684922 0.720322
-1.205591 6.851616 -0.019861
-1.257603 6.810853 0.097786
-1.094785 6.636877 -0.231342
-1.287333 6.698003 0.273008
-1.238728 6.710801 0.116705
-1.197081 6.824929 -0.012648
-1.102167 6.775251 -0.231062
-1.449923 6.848489 0.629950
-1.241666 6.879085 0.069073
-1.478050 6.817232 0.683098
-1.235946 6.991941 -0.000669
-1.280991 6.873471 0.142769
-1.218817 6.863224 0.035967
-1.269975 6.903568 0.154987
-1.484230 6.867693 0.716818
-1.093259 6.832973 -0.277898
-1.256476 7.014216 0.070016
-1.307688 6.919250 0.238804
-1.245379 6.908425 0.089038
