# .PCD v0.7 - Point Cloud Data file format
VERSION 0.7
FIELDS x y z
SIZE 4 4 4
TYPE F F F
COUNT 1 1 1
WIDTH 21
HEIGHT 1
VIEWPOINT 0 0 0 1
POINTS 21
DATA ascii
-15.703769 44.996052 -4.026083
-15.558025 45.226307 -4.395046
-15.559783 45.017387 -4.309896
-15.666215 45.114223 -4.160466
-15.558964 45.227051 -4.395288
-15.694785 45.015522 -4.144940
-15.560342 45.014145 -4.305915
-15.648263 45.292988 -4.341931
-15.557900 45.226910 -4.396338
-15.654302 45.034561 -4.209257
-15.562810 45.028767 -4.314710
-14.839165 42.033207 -3.512196
-15.315826 44.022858 -4.467153
-15.321432 44.026237 -4.442585
-15.328139 44.039516 -4.422321
-15.446166 44.025139 -4.322721
-15.385069 44.023899 -4.482755
-15.562315 45.265961 -4.424854
-15.559237 45.044334 -4.331535
-15.593893 45.021507 -4.376890
-15.549838 44.946667 -4.424598
