# .PCD v0.7 - Point Cloud Data file format
VERSION 0.7
FIELDS x y z
SIZE 4 4 4
TYPE F F F
COUNT 1 1 1
WIDTH 33
HEIGHT 1
VIEWPOINT 0 0 0 1
POINTS 33
DATA ascii
-35.811966 43.751663 -11.873779
-35.839016 43.732277 -11.819520
-35.850262 43.661049 -11.824323
-35.881393 43.731133 -11.852292
-35.820415 43.774292 -11.871513
-35.889759 43.639416 -11.838369
-35.857239 43.681763 -11.824703
-35.768875 43.081635 -11.798841
-35.764042 43.404964 -11.872337
-35.748363 43.050339 -11.850717
-35.895649 43.662106 -11.845950
-35.825829 43.062317 -11.823485
-35.798042 42.909718 -11.793400
-35.806412 43.279083 -11.812263
-35.742416 42.999134 -11.838529
-35.852764 43.252785 -11.829705
-35.852852 42.891544 -11.820306
-35.793022 42.872189 -11.798000
-35.848186 42.828133 -11.812301
-35.844700 43.780678 -11.821280
-35.846409 43.779999 -11.840932
-35.885303 43.786983 -11.884919
-35.804810 43.464439 -11.801464
-35.753906 43.195766 -11.721900
-35.847740 43.486786 -11.858372
-35.813217 43.323799 -11.861466
-35.887875 43.389919 -11.815878
-35.743114 42.854439 -11.697194
-35.761581 42.913918 -11.709054
-35.859665 43.199856 -11.803261
-35.824120 43.043831 -11.844594
-35.805973 42.960617 -11.820805
-35.859081 42.857189 -11.798893
