# .PCD v0.7 - Point Cloud Data file format
VERSION 0.7
FIELDS x y z
SIZE 4 4 4
TYPE F F F
COUNT 1 1 1
WIDTH 14
HEIGHT 1
VIEWPOINT 0 0 0 1
POINTS 14
DATA ascii
-15.645409 45.186207 -4.345828
-15.659031 45.053085 -4.305394
-15.625736 45.271011 -4.462277
-15.789721 44.608353 -3.618925
-15.053461 42.416962 -3.554386
-15.574224 45.223881 -4.472209
-15.776386 45.083736 -4.063819
-15.426874 44.030430 -4.391789
-15.597370 45.136261 -4.467810
-15.772943 44.579987 -3.727709
-14.745970 42.437840 -3.387115
-15.607495 44.959263 -4.409752
-14.757208 42.111431 -3.334831
-14.893226 42.285500 -3.528933
