# .PCD v0.7 - Point Cloud Data file format
VERSION 0.7
FIELDS x y z
SIZE 4 4 4
TYPE F F F
COUNT 1 1 1
WIDTH 24
HEIGHT 1
VIEWPOINT 0 0 0 1
POINTS 24
DATA ascii
-35.819714 43.732708 -11.768863
-35.793968 43.647930 -11.803660
-35.855553 43.702000 -11.788196
-35.816517 43.562527 -11.765679
-35.899590 43.698082 -11.832500
-35.785130 43.454731 -11.775459
-35.860603 43.538925 -11.792850
-35.821442 43.387581 -11.762816
-35.923550 43.582386 -11.885012
-35.789455 43.327713 -11.784700
-35.798939 43.307831 -11.783670
-35.792831 43.288258 -11.785669
-35.785427 43.265854 -11.784966
-35.796165 43.232697 -11.745418
-35.879688 43.394138 -11.819677
-35.828613 43.266922 -11.789553
-35.840527 43.256760 -11.792704
-35.837116 43.240910 -11.796910
-35.827152 43.206966 -11.784361
-35.851742 43.203102 -11.770027
-35.887989 43.276196 -11.854490
-35.905289 43.287281 -11.872752
-35.901852 43.272488 -11.874749
-35.896839 43.249996 -11.868544
