# .PCD v0.7 - Point Cloud Data file format
VERSION 0.7
FIELDS x y z
SIZE 4 4 4
TYPE F F F
COUNT 1 1 1
WIDTH 295
HEIGHT 1
VIEWPOINT 0 0 0 1
POINTS 295
DATA ascii
-39.170509 46.509068 -14.436542
-38.973866 46.519508 -14.751125
-38.745037 46.516850 -14.938100
-39.014507 46.524082 -14.397861
-38.691761 46.534489 -14.993559
-38.813786 46.527225 -14.690990
-38.611179 46.527592 -15.038322
-38.688335 46.530300 -14.845850
-38.773033 46.532810 -14.627137
-38.617340 46.530849 -14.876093
-38.711075 46.535809 -14.703227
-38.625481 46.539074 -14.881783
-38.850296 46.531094 -14.399647
-38.623131 46.540390 -14.875175
-38.889214 46.549591 -14.412514
-38.857391 46.531166 -14.359998
-38.738750 46.530602 -14.576350
-38.885715 46.532848 -14.295909
-38.643120 46.536510 -14.767844
-38.710480 46.547024 -14.694948
-38.866344 46.536060 -14.322163
-38.544273 46.534203 -14.928404
-38.563602 46.546227 -14.948998
-38.909058 46.558079 -14.344364
-38.647495 46.541416 -14.752112
-38.554558 46.540413 -14.924132
-38.548801 46.537148 -14.909497
-38.672405 46.535221 -14.638297
-38.989826 46.534046 -13.998124
-38.483681 46.539173 -14.999567
-38.484562 46.536629 -14.968147
-38.570740 46.543278 -14.792885
-38.957741 46.545147 -14.037050
-38.411251 46.541336 -15.059901
-38.427979 46.542530 -15.023520
-38.976391 46.558613 -14.035302
-38.651356 46.545944 -14.585502
-38.503712 46.543514 -14.821651
-38.517757 46.553043 -14.838801
-38.516533 46.552265 -14.831666
-38.596027 46.550499 -14.654681
-38.717907 46.556774 -14.439651
-38.720264 46.543839 -14.364105
-38.499424 46.548000 -14.815170
-38.636597 46.547928 -14.543518
-38.745060 46.556599 -14.372879
-38.744873 46.537369 -14.267753
-38.730145 46.543613 -14.327935
-38.532906 46.548725 -14.722674
-38.584927 46.555641 -14.643973
-38.737251 46.546597 -14.293712
-38.430737 46.544949 -14.868563
-38.770393 46.564533 -14.309454
-38.443375 46.553589 -14.886192
-38.953938 46.567818 -13.961015
-38.444893 46.552765 -14.868215
-38.795811 46.564480 -14.244086
-38.512894 46.546925 -14.693791
-38.436844 46.549732 -14.851426
-38.561131 46.549484 -14.595886
-38.850101 46.541267 -13.982503
-38.368828 46.547112 -14.934803
-38.848118 46.565674 -14.088696
-38.389935 46.554634 -14.916744
-38.353642 46.546581 -14.924582
-38.467541 46.558701 -14.759632
-38.457314 46.551861 -14.741952
-38.818455 46.553383 -14.018305
-38.455349 46.552570 -14.710246
-38.306568 46.552410 -14.995299
-38.542271 46.557941 -14.547455
-38.328838 46.558041 -14.964627
-38.851974 46.572590 -14.016591
-38.399704 46.557098 -14.782581
-38.530800 46.560982 -14.544333
-38.404758 46.559727 -14.779320
-38.396431 46.555588 -14.770132
-38.392277 46.557076 -14.762695
-38.528492 46.559795 -14.508124
-38.650009 46.555851 -14.248122
-38.476017 46.559601 -14.606228
-38.613976 46.559490 -14.332736
-38.615002 46.554985 -14.298138
-38.612507 46.561558 -14.336408
-38.590607 46.566353 -14.399952
-38.428947 46.559353 -14.680410
-38.784660 46.553646 -13.937987
-38.613163 46.552696 -14.265472
-38.474037 46.564892 -14.599682
-38.649944 46.572372 -14.278432
-38.672523 46.569500 -14.216244
-38.803616 46.566929 -13.945181
-38.333591 46.559956 -14.829290
-38.335922 46.559925 -14.819358
-38.332706 46.557331 -14.811362
-38.422752 46.565342 -14.654327
-38.333942 46.561474 -14.797520
-38.450321 46.558689 -14.553833
-38.742577 46.556732 -13.968171
-38.272110 46.558350 -14.879335
-38.710655 46.570827 -14.065374
-38.285206 46.562592 -14.858809
-38.350723 46.559784 -14.695265
-38.266682 46.563889 -14.875606
-38.370068 46.572845 -14.713637
-38.744640 46.559616 -13.906356
-38.706562 46.566269 -14.000951
-38.351788 46.559231 -14.663876
-38.429947 46.564224 -14.508092
-38.215000 46.566231 -14.938816
-38.708370 46.573212 -13.996090
-38.226685 46.565834 -14.903475
-38.430920 46.570171 -14.507276
-38.309784 46.569557 -14.738985
-38.306324 46.567932 -14.734151
-38.298428 46.564812 -14.721834
-38.545704 46.565170 -14.225534
-38.427452 46.568996 -14.476034
-38.299461 46.567799 -14.717826
-38.374290 46.570042 -14.563894
-38.510643 46.565388 -14.271100
-38.330750 46.568462 -14.639725
-38.501312 46.568665 -14.301938
-38.517097 46.577232 -14.307813
-38.513905 46.563606 -14.241847
-38.668514 46.561783 -13.926522
-38.482498 46.577183 -14.366791
-38.377819 46.575821 -14.559852
-38.572254 46.579502 -14.192183
-38.537975 46.578438 -14.250236
-38.696640 46.578335 -13.931216
-38.240944 46.568714 -14.781252
-38.246918 46.570427 -14.768538
-38.254044 46.576702 -14.776019
-38.328693 46.576126 -14.612187
-38.629581 46.565632 -13.954825
-38.354767 46.570503 -14.517582
-38.245789 46.574844 -14.750309
-38.191883 46.574009 -14.834583
-38.688305 46.577183 -13.864764
-38.191914 46.570465 -14.807203
-38.603245 46.584373 -14.045657
-38.256397 46.567585 -14.653087
-38.631199 46.566463 -13.898362
-38.180687 46.577118 -14.826089
-38.280331 46.577927 -14.631845
-38.275135 46.584751 -14.668874
-38.584896 46.569965 -13.983790
-38.324196 46.567913 -14.470707
-38.594131 46.579262 -13.980057
-38.126690 46.575737 -14.883945
-38.337704 46.577755 -14.472210
-38.213554 46.573620 -14.690542
-38.217106 46.576237 -14.695393
-38.134159 46.573715 -14.847824
-38.451050 46.575611 -14.206229
-38.324070 46.572407 -14.443039
-38.202465 46.570816 -14.675660
-38.220768 46.583218 -14.679281
-38.231022 46.570694 -14.598533
-38.407841 46.572636 -14.244864
-38.261715 46.570431 -14.519088
-38.575726 46.574924 -13.915693
-38.423145 46.588764 -14.280003
-38.419594 46.574070 -14.219401
-38.406048 46.580299 -14.274625
-38.488663 46.594040 -14.171222
-38.285446 46.583363 -14.522973
-38.591541 46.585575 -13.917127
-38.455818 46.594902 -14.226577
-38.394772 46.593201 -14.338403
-38.143250 46.571930 -14.731067
-38.155499 46.577049 -14.722225
-38.155762 46.578991 -14.724492
-38.234867 46.583862 -14.571343
-38.527390 46.574604 -13.942018
-38.589523 46.583828 -13.853578
-38.255878 46.575607 -14.479997
-38.148186 46.579056 -14.700141
-38.103935 46.580379 -14.785464
-38.101654 46.576031 -14.758151
-38.541523 46.578293 -13.890093
-38.171307 46.576527 -14.615100
-38.500927 46.594471 -14.026169
-38.181671 46.578110 -14.587903
-38.490475 46.581310 -13.968973
-38.167103 46.582840 -14.618511
-38.088554 46.582893 -14.773980
-38.239895 46.577648 -14.440762
-38.241245 46.579620 -14.435827
-38.500626 46.591560 -13.963435
-38.124397 46.577927 -14.650830
-38.130692 46.582371 -14.652484
-38.045883 46.586510 -14.834674
-38.242554 46.581844 -14.416572
-38.050362 46.581757 -14.797261
-38.345642 46.576992 -14.184468
-38.114326 46.577068 -14.634161
-38.126163 46.584080 -14.633877
-38.148212 46.578362 -14.564926
-38.377277 46.589962 -14.146879
-38.475151 46.580700 -13.905917
-38.314110 46.580078 -14.220572
-38.328735 46.582207 -14.198601
-38.324131 46.593708 -14.252269
-38.179592 46.581059 -14.484615
-38.511871 46.600628 -13.904548
-38.184139 46.582714 -14.482247
-38.307037 46.585243 -14.246892
-38.349171 46.594467 -14.199903
-38.075344 46.586376 -14.695285
-38.282990 46.593342 -14.303872
-38.075695 46.585567 -14.682273
-38.079361 46.590218 -14.684920
-38.506439 46.595139 -13.842841
-38.143398 46.587360 -14.531699
-38.431370 46.582035 -13.929881
-38.174229 46.585136 -14.449071
-38.068314 46.587620 -14.657957
-38.447872 46.585445 -13.882344
-38.025314 46.588882 -14.740555
-38.094452 46.585701 -14.580875
-38.029797 46.587875 -14.718438
-38.108509 46.587940 -14.555345
-38.397854 46.600613 -14.007545
-38.398018 46.589489 -13.954041
-38.164337 46.588593 -14.413676
-38.094250 46.596691 -14.583787
-37.987621 46.577480 -14.717060
-38.175098 46.594738 -14.410727
-38.039024 46.579933 -14.609611
-38.048286 46.586067 -14.614773
-38.394535 46.592899 -13.947962
-38.154091 46.584915 -14.387108
-38.270039 46.588776 -14.167236
-37.928410 46.567738 -14.762867
-37.942806 46.570004 -14.734192
-38.053478 46.575115 -14.526175
-38.001534 46.563610 -14.579742
-38.010960 46.568821 -14.579508
-38.299599 46.599972 -14.126551
-38.376545 46.583302 -13.896028
-38.236530 46.585461 -14.177323
-38.234642 46.590256 -14.199423
-38.079891 46.574303 -14.441492
-38.411789 46.603428 -13.890682
-38.260193 46.599480 -14.176751
-38.216095 46.589478 -14.220666
-38.237583 46.601562 -14.226851
-38.093906 46.586994 -14.449747
-37.965508 46.571693 -14.638953
-37.970238 46.573467 -14.628969
-38.423996 46.603382 -13.832483
-38.204884 46.605492 -14.277795
-37.967140 46.574776 -14.626422
-38.355572 46.594746 -13.918038
-38.035709 46.577324 -14.486119
-38.055283 46.569019 -14.405113
-38.348263 46.586102 -13.874250
-37.956680 46.573105 -14.600801
-37.919945 46.574863 -14.681848
-38.001865 46.574814 -14.509225
-37.985516 46.572807 -14.532605
-37.928486 46.577450 -14.663686
-38.050655 46.573933 -14.375383
-38.311825 46.597118 -13.939793
-38.060249 46.578220 -14.369751
-37.908463 46.580025 -14.672073
-37.954277 46.577835 -14.570992
-37.947590 46.574448 -14.568031
-37.978653 46.581455 -14.530342
-38.051380 46.575226 -14.354789
-38.142925 46.569019 -14.142743
-38.331402 46.612579 -13.934019
-37.975170 46.577370 -14.493677
-38.219746 46.605137 -14.107566
-37.955967 46.584030 -14.551807
-37.940437 46.576366 -14.550423
-38.275188 46.580132 -13.886145
-38.131077 46.576862 -14.153621
-38.118206 46.575645 -14.171968
-38.328693 46.609749 -13.878985
-38.012749 46.584560 -14.412778
-38.186977 46.609116 -14.156279
-38.159996 46.608612 -14.203354
-38.108185 46.580162 -14.192565
-37.992714 46.577316 -14.409328
-38.348904 46.612984 -13.823250
-38.128414 46.615486 -14.252532
-38.226379 46.576962 -13.905740
-37.965008 46.583920 -14.454782
-37.991917 46.579887 -14.380309
-38.234753 46.575893 -13.867807
-38.201721 46.587746 -13.926088
-38.235760 46.597767 -13.814914
