# .PCD v0.7 - Point Cloud Data file format
VERSION 0.7
FIELDS x y z
SIZE 4 4 4
TYPE F F F
COUNT 1 1 1
WIDTH 757
HEIGHT 1
VIEWPOINT 0 0 0 1
POINTS 757
DATA ascii
1.555992 -1.564438 0.899796
1.527449 -1.574721 0.980685
1.459765 -1.567011 0.876065
1.512231 -1.571030 0.998527
1.506051 -1.587756 1.061197
1.486675 -1.574908 1.014141
1.495128 -1.563121 1.142503
1.508284 -1.593393 1.070013
1.477893 -1.588930 0.969322
1.483935 -1.576927 1.070490
1.494764 -1.589247 1.076578
1.461971 -1.586538 0.969162
1.491801 -1.590698 1.073996
1.479794 -1.573123 1.116896
1.465568 -1.587445 0.986278
1.452932 -1.584909 1.004097
1.417876 -1.584864 0.965066
1.420792 -1.588564 0.951233
1.437832 -1.593914 1.070349
1.417359 -1.578300 1.022964
1.421500 -1.563998 1.150265
1.404970 -1.589174 0.934278
1.437831 -1.566549 1.212299
1.437169 -1.595570 1.076762
1.466463 -1.581406 1.266168
1.449846 -1.580887 1.289571
1.409435 -1.592125 0.977036
1.416134 -1.582106 1.077437
1.440642 -1.582598 1.296579
1.428112 -1.595289 1.081537
1.434437 -1.561273 1.268621
1.452448 -1.578450 1.282997
1.434454 -1.553321 1.318145
1.421035 -1.592040 1.077551
1.391861 -1.588236 0.976779
1.409096 -1.574321 1.121440
1.403892 -1.597990 0.991533
1.364234 -1.594115 0.936060
1.418665 -1.550506 1.423242
1.386360 -1.590816 1.010046
1.350374 -1.589484 0.975967
1.355728 -1.594623 0.960135
1.367428 -1.594548 1.078846
1.352292 -1.584358 1.031867
1.350218 -1.563069 1.156570
1.335936 -1.590248 0.943753
1.366038 -1.564982 1.216518
1.362948 -1.592570 1.082979
1.395901 -1.582194 1.264557
1.343134 -1.595706 0.983634
1.382251 -1.585515 1.291352
1.341301 -1.575215 1.082106
1.437318 -1.575189 1.546285
1.369124 -1.565990 1.271256
1.378522 -1.592363 1.300739
1.395154 -1.592999 1.285475
1.355407 -1.594078 1.085877
1.354151 -1.595124 1.081076
1.369435 -1.559103 1.319904
1.324899 -1.589831 0.984146
1.340744 -1.573712 1.124527
1.333478 -1.596871 0.996728
1.296638 -1.595489 0.947501
1.357273 -1.562116 1.427624
1.364861 -1.554622 1.484766
1.319814 -1.591428 1.015207
1.414161 -1.577319 1.568626
1.276809 -1.594404 0.912349
1.399108 -1.581843 1.580515
1.283998 -1.591578 0.986410
1.290938 -1.598360 0.969688
1.299180 -1.595569 1.086228
1.275661 -1.574625 1.039298
1.275383 -1.596641 0.953380
1.287229 -1.569652 1.163370
1.370329 -1.558973 1.539822
1.298793 -1.596530 1.088459
1.295182 -1.563081 1.220621
1.373405 -1.551044 1.588103
1.380398 -1.587720 1.592924
1.330390 -1.587351 1.264233
1.319896 -1.592320 1.294077
1.281080 -1.601952 0.990310
1.278507 -1.579611 1.088564
1.375187 -1.584830 1.542314
1.304451 -1.569309 1.274653
1.292107 -1.597837 1.090248
1.323578 -1.590891 1.284528
1.313295 -1.596952 1.304366
1.314257 -1.570636 1.322789
1.281700 -1.589828 1.082765
1.263473 -1.594667 0.991579
1.274428 -1.575538 1.127827
1.268164 -1.598214 1.000893
1.232119 -1.596902 0.957704
1.333065 -1.538569 1.765618
1.287856 -1.562143 1.428865
1.350934 -1.584195 1.564327
1.247215 -1.584787 1.019751
1.297321 -1.557355 1.484239
1.217331 -1.600176 0.923834
1.328894 -1.581801 1.575718
1.218013 -1.589301 0.996175
1.335265 -1.534502 1.820640
1.227202 -1.599714 0.977794
1.235367 -1.597063 1.093347
1.226929 -1.592731 1.047748
1.306288 -1.562514 1.539146
1.313088 -1.556598 1.585416
1.211720 -1.597855 0.962475
1.234256 -1.585102 1.171746
1.236933 -1.600590 1.094798
1.236553 -1.570277 1.226169
1.314999 -1.590828 1.591273
1.263982 -1.587561 1.263243
1.253334 -1.591179 1.295940
1.216176 -1.600684 0.997100
1.221179 -1.587392 1.094099
1.311969 -1.591716 1.538017
1.240833 -1.570244 1.276603
1.225034 -1.594430 1.094855
1.359462 -1.584984 1.944920
1.263011 -1.597161 1.286025
1.248825 -1.598091 1.307424
1.252518 -1.574278 1.322970
1.225522 -1.598471 1.086313
1.198571 -1.593402 0.998371
1.221995 -1.587960 1.132668
1.205143 -1.599657 1.005917
1.176257 -1.606748 0.968508
1.345684 -1.575566 1.914250
1.286690 -1.588174 1.560691
1.196815 -1.599637 1.024800
1.226503 -1.568473 1.432463
1.240127 -1.566478 1.486921
1.271148 -1.547792 1.764618
1.157687 -1.602844 0.934871
1.271416 -1.591493 1.574447
1.276044 -1.542828 1.818286
1.163369 -1.599868 1.005981
1.168445 -1.605580 0.986197
1.322375 -1.581306 1.924922
1.183889 -1.610911 1.101370
1.168654 -1.597467 1.054932
1.250029 -1.557897 1.582307
1.241646 -1.562173 1.536927
1.158854 -1.607873 0.971049
1.171373 -1.586261 1.178748
1.182005 -1.611726 1.100652
1.183271 -1.582908 1.232121
1.247273 -1.588697 1.586994
1.273309 -1.541176 1.869012
1.310821 -1.580716 1.885245
1.207591 -1.596637 1.263829
1.277823 -1.535172 1.914429
1.195794 -1.599394 1.298515
1.158569 -1.607416 1.003516
1.166807 -1.597261 1.099723
1.242382 -1.588519 1.530678
1.286676 -1.578360 1.931228
1.185456 -1.580596 1.281360
1.198532 -1.596549 1.285783
1.192705 -1.577096 1.323899
1.171396 -1.606146 1.100698
1.186946 -1.600396 1.310462
1.170575 -1.607847 1.088864
1.164062 -1.591857 1.136658
1.145934 -1.604633 1.005080
1.151265 -1.608404 1.010322
1.118394 -1.608875 0.978316
1.280572 -1.579622 1.903592
1.226327 -1.593895 1.557021
1.139697 -1.605246 1.029998
1.179318 -1.569785 1.486986
1.164916 -1.571844 1.434626
1.210793 -1.555272 1.764255
1.210461 -1.595083 1.572534
1.099711 -1.607026 0.946009
1.228097 -1.564270 1.823112
1.116072 -1.614481 0.993554
1.101829 -1.598075 1.015486
1.255436 -1.580750 1.913718
1.189926 -1.561285 1.579287
1.123600 -1.613238 1.108350
1.179961 -1.563920 1.534798
1.107338 -1.596883 1.062571
1.100737 -1.612342 0.980212
1.125410 -1.586668 1.237102
1.188048 -1.593648 1.586167
1.118455 -1.609148 1.105121
1.116780 -1.594929 1.186240
1.219255 -1.551824 1.866611
1.226711 -1.547893 1.912112
1.244548 -1.582153 1.873274
1.146068 -1.598112 1.263676
1.137356 -1.602659 1.300421
1.100617 -1.607926 1.009034
1.228805 -1.585372 1.926546
1.108223 -1.599182 1.104484
1.128009 -1.583372 1.284133
1.184050 -1.596672 1.527218
1.137574 -1.583358 1.326001
1.140757 -1.601804 1.286921
1.119544 -1.617324 1.105310
1.128282 -1.602453 1.314235
1.110198 -1.608556 1.091553
1.109015 -1.597985 1.139749
1.088787 -1.606850 1.011805
1.095930 -1.613472 1.014291
1.218747 -1.583288 1.894657
1.065250 -1.617850 0.987772
1.164509 -1.595938 1.552916
1.081241 -1.605123 1.033433
1.120434 -1.572268 1.487798
1.146813 -1.592511 1.567883
1.112124 -1.583363 1.439362
1.150570 -1.560715 1.762566
1.042785 -1.608823 0.955700
1.163736 -1.563245 1.816718
1.200030 -1.590973 1.910341
1.059737 -1.618409 1.001487
1.047585 -1.604281 1.024616
1.199179 -1.542345 2.153562
1.137151 -1.569126 1.578401
1.125605 -1.570122 1.534804
1.062411 -1.610614 1.114663
1.057728 -1.610066 1.070357
1.044225 -1.613155 0.987696
1.072161 -1.594015 1.242267
1.124909 -1.591717 1.583602
1.063262 -1.613935 1.111067
1.203337 -1.542606 2.211104
1.056250 -1.594293 1.191787
1.174876 -1.558780 1.909578
1.157767 -1.553019 1.859315
1.089711 -1.601904 1.263476
1.187579 -1.592377 1.865960
1.080217 -1.606514 1.302320
1.176488 -1.597391 1.925228
1.043410 -1.610297 1.014774
1.075975 -1.591439 1.288298
1.080550 -1.585160 1.326571
1.057443 -1.609740 1.110953
1.124453 -1.598954 1.522981
1.056679 -1.611440 1.108223
1.083181 -1.604879 1.287722
1.069558 -1.604668 1.317024
1.048921 -1.604315 1.093576
1.052582 -1.600291 1.143391
1.036914 -1.614643 1.017946
1.031855 -1.606874 1.018206
1.197890 -1.541853 2.263183
1.174472 -1.606909 1.896481
1.011204 -1.621874 0.996561
1.104181 -1.596376 1.548462
1.028932 -1.612138 1.038478
1.066112 -1.580249 1.491111
1.091473 -1.599214 1.567024
1.054199 -1.587283 1.443359
0.998665 -1.627157 0.965863
1.142227 -1.596100 1.903347
1.098359 -1.574369 1.765545
1.105415 -1.566099 1.812471
1.004818 -1.620874 1.008083
1.084090 -1.575915 1.578396
0.998683 -1.615922 1.034147
1.072132 -1.577898 1.537006
1.140823 -1.550499 2.150104
1.010241 -1.617345 1.121683
1.002439 -1.611606 1.076843
1.074310 -1.601712 1.584900
0.986070 -1.612482 0.995087
1.010954 -1.620954 1.116112
1.018188 -1.599530 1.247216
1.121882 -1.567054 1.905729
1.134847 -1.536755 2.195182
1.105283 -1.561933 1.857552
1.006832 -1.605293 1.199233
1.032998 -1.604787 1.263171
1.131613 -1.602126 1.859514
1.120553 -1.603594 1.921294
1.018500 -1.601496 1.303249
0.994420 -1.620319 1.020014
1.025171 -1.600237 1.291464
1.022437 -1.584206 1.326816
0.998890 -1.606376 1.114929
1.065789 -1.600901 1.518626
1.027897 -1.608054 1.289378
1.006692 -1.621950 1.112597
1.013680 -1.605710 1.320437
1.003276 -1.620737 1.097485
0.999767 -1.606675 1.146353
0.984318 -1.620603 1.023871
1.137084 -1.541368 2.249500
0.984749 -1.619607 1.021678
1.100915 -1.591554 1.877502
1.049336 -1.601963 1.546386
0.976751 -1.617114 1.042196
0.961211 -1.630756 1.005765
1.014496 -1.587343 1.493071
1.039158 -1.607863 1.567239
1.085060 -1.599826 1.897111
0.999714 -1.592162 1.446224
0.943790 -1.626090 0.974973
1.030355 -1.578960 1.575859
1.046441 -1.566978 1.808996
1.032817 -1.567345 1.759370
0.952369 -1.626555 1.015984
0.944468 -1.616843 1.042489
1.021731 -1.585710 1.537965
0.958636 -1.622819 1.128474
1.077175 -1.549574 2.140632
0.949737 -1.614311 1.083307
1.020600 -1.606528 1.585665
1.057509 -1.557214 1.891945
0.938954 -1.623587 1.003388
0.958546 -1.624725 1.121696
0.965334 -1.602515 1.251703
1.079247 -1.542116 2.188059
1.045920 -1.560123 1.850664
0.950446 -1.604074 1.205394
0.990956 -1.625278 1.266393
1.059951 -1.599301 1.912101
1.070932 -1.603290 1.850123
0.975862 -1.619855 1.308228
0.976605 -1.597513 1.330274
0.965376 -1.594395 1.293140
0.941466 -1.625368 1.025831
0.949169 -1.614561 1.119952
0.975566 -1.613316 1.291121
1.011687 -1.608346 1.516771
0.953779 -1.625086 1.116097
0.964611 -1.615880 1.324690
0.948204 -1.621738 1.098805
0.948508 -1.611309 1.149951
1.082772 -1.547308 2.242362
0.933574 -1.625881 1.029553
0.929159 -1.618336 1.025742
1.051200 -1.604758 1.876164
0.999051 -1.613047 1.546808
0.907559 -1.630417 1.013876
0.921091 -1.615988 1.045274
0.962592 -1.593384 1.495912
0.983779 -1.609424 1.564606
1.024762 -1.596609 1.887043
0.975162 -1.578326 1.572887
0.994604 -1.574504 1.807994
0.946597 -1.597489 1.450065
0.890392 -1.628731 0.984524
0.902621 -1.631348 1.022532
0.963669 -1.582861 1.535898
0.978914 -1.574361 1.760478
0.895773 -1.626317 1.051682
0.905574 -1.624613 1.134830
1.008105 -1.566175 1.888941
0.969475 -1.612508 1.586406
0.900533 -1.623147 1.090416
1.015017 -1.547045 2.130810
0.889944 -1.630230 1.010156
0.907000 -1.628304 1.126173
0.997025 -1.569725 1.849746
0.912123 -1.604590 1.256084
1.023361 -1.546425 2.181816
0.901789 -1.611635 1.212271
1.003978 -1.600361 1.906394
0.933352 -1.623224 1.265423
1.007853 -1.599357 1.837118
0.923798 -1.622792 1.310619
0.925756 -1.601166 1.331666
0.918525 -1.604804 1.297259
0.888895 -1.626039 1.030969
0.900082 -1.621345 1.125732
0.954709 -1.606508 1.511727
0.926922 -1.622513 1.293167
0.899776 -1.625466 1.119271
0.918564 -1.627994 1.330013
0.897253 -1.627455 1.101526
1.020132 -1.540469 2.224838
0.896155 -1.613187 1.153223
0.881370 -1.627479 1.034801
0.882258 -1.628901 1.028877
0.992930 -1.603974 1.866302
0.941707 -1.610289 1.541656
0.871207 -1.621076 1.049850
0.854282 -1.631016 1.022101
0.931858 -1.613710 1.564143
0.906335 -1.591762 1.495919
0.975802 -1.606362 1.885135
0.930614 -1.592219 1.576332
0.841715 -1.632905 0.992929
0.938851 -1.575148 1.805256
0.893240 -1.599855 1.452473
0.918023 -1.593987 1.539016
0.851228 -1.634658 1.028988
0.957361 -1.569403 1.884175
0.926863 -1.580695 1.761346
0.844634 -1.627287 1.058785
0.916089 -1.613103 1.585507
0.851710 -1.627604 1.096845
0.857295 -1.633113 1.141818
0.947475 -1.577349 1.849598
0.839910 -1.633974 1.017587
0.963852 -1.558331 2.132343
0.857552 -1.634176 1.131846
0.861863 -1.608753 1.260552
0.971737 -1.555163 2.178948
0.949928 -1.600594 1.901434
0.849949 -1.614160 1.217631
0.880791 -1.625537 1.265733
0.954579 -1.604844 1.830852
0.871742 -1.625743 1.313014
0.874548 -1.603909 1.332952
0.867826 -1.608186 1.300630
0.851119 -1.626091 1.130187
0.841774 -1.635406 1.035971
0.873260 -1.622056 1.293151
0.907317 -1.619833 1.511250
0.849824 -1.630704 1.122861
0.864744 -1.626185 1.332850
0.975409 -1.554630 2.226304
0.848156 -1.632488 1.104007
0.847054 -1.618218 1.155704
0.832869 -1.632871 1.032236
0.828811 -1.628166 1.039943
0.936468 -1.604414 1.858516
0.893910 -1.619288 1.542594
0.822920 -1.627819 1.053539
0.806900 -1.635773 1.030495
0.884796 -1.624558 1.565300
0.857582 -1.597708 1.498508
0.920770 -1.607095 1.879312
0.880109 -1.595039 1.574533
0.865203 -1.593321 1.537891
0.795437 -1.640438 1.001651
0.889385 -1.582641 1.806098
0.840151 -1.599894 1.455530
0.804808 -1.642475 1.035735
0.908234 -1.576050 1.881823
0.795964 -1.631472 1.067193
0.877718 -1.591025 1.764613
0.869534 -1.624591 1.588748
0.804920 -1.634496 1.103482
0.807747 -1.635734 1.148031
0.895964 -1.580653 1.846932
0.795880 -1.645140 1.024648
0.807866 -1.637085 1.136084
0.900874 -1.607102 1.900068
0.816460 -1.619478 1.266638
0.911580 -1.565094 2.130247
0.919145 -1.559090 2.174428
0.826704 -1.624311 1.264623
0.800944 -1.620825 1.224404
0.827651 -1.609169 1.335298
0.822273 -1.629856 1.315385
0.902487 -1.612974 1.825902
0.820447 -1.614578 1.304195
0.792282 -1.636124 1.039870
0.800699 -1.627154 1.134208
0.821700 -1.623891 1.294330
0.804182 -1.638459 1.127510
0.853810 -1.620734 1.508380
0.924768 -1.561124 2.221001
0.815711 -1.631080 1.336318
0.797600 -1.633840 1.106052
0.798586 -1.621846 1.158943
0.782511 -1.633936 1.045363
0.784410 -1.636506 1.035476
0.888014 -1.613063 1.855393
0.844883 -1.625816 1.541231
0.764046 -1.649577 1.038872
0.834807 -1.628030 1.565584
0.830603 -1.597380 1.573601
0.871217 -1.612975 1.875862
0.807371 -1.599973 1.500662
0.860959 -1.582013 1.879228
0.818110 -1.600778 1.540576
0.837221 -1.583969 1.804204
0.732851 -1.616622 1.010010
0.752339 -1.637723 1.041078
0.790630 -1.605922 1.460219
0.817643 -1.623592 1.587501
0.747488 -1.633475 1.075262
0.828839 -1.599032 1.768528
0.847474 -1.585902 1.845337
0.759494 -1.638944 1.154233
0.758138 -1.641403 1.110121
0.853117 -1.614199 1.898689
0.732352 -1.619907 1.029827
0.759544 -1.640439 1.141299
0.768428 -1.623894 1.270974
0.872419 -1.570857 2.175691
0.861547 -1.573866 2.131319
0.780117 -1.630654 1.266091
0.755075 -1.627380 1.230920
0.777937 -1.610317 1.336235
0.774902 -1.636263 1.318950
0.773263 -1.618788 1.307420
0.849491 -1.616152 1.820287
0.738644 -1.628748 1.043900
0.754033 -1.632008 1.139518
0.775916 -1.631940 1.297003
0.876047 -1.566792 2.216441
0.756091 -1.643026 1.130858
0.770064 -1.638843 1.340966
0.801966 -1.623148 1.505609
0.751829 -1.641897 1.108728
0.753248 -1.630682 1.162715
0.727774 -1.623791 1.049066
0.726848 -1.622236 1.037769
0.834840 -1.613124 1.849329
0.794031 -1.627740 1.539324
0.821493 -1.615749 1.871965
0.782854 -1.627184 1.563351
0.779936 -1.597107 1.571356
0.702980 -1.627555 1.045354
0.760358 -1.607303 1.504337
0.813692 -1.587989 1.876633
0.769489 -1.604698 1.541839
0.792507 -1.594777 1.807202
0.691482 -1.628819 1.018036
0.695911 -1.622681 1.046214
0.772399 -1.630366 1.589940
0.742958 -1.611266 1.464664
0.690762 -1.617365 1.081277
0.805146 -1.600055 1.848647
0.715222 -1.647155 1.159857
0.804821 -1.617266 1.896753
0.698515 -1.621310 1.113737
0.770237 -1.590423 1.762612
0.690179 -1.630401 1.036647
0.715385 -1.651915 1.146385
0.724515 -1.633024 1.276707
0.820884 -1.572412 2.169724
0.733103 -1.636231 1.266464
0.807578 -1.573988 2.127354
0.735348 -1.623426 1.340429
0.710752 -1.637502 1.238859
0.728024 -1.641553 1.321297
0.725353 -1.621163 1.310429
0.798278 -1.618789 1.813442
0.688689 -1.625306 1.048233
0.827771 -1.573255 2.212979
0.698125 -1.619243 1.141909
0.730437 -1.641069 1.298799
0.722590 -1.642000 1.345069
0.700115 -1.630406 1.132261
0.753143 -1.627505 1.503909
0.701243 -1.623046 1.163540
0.689797 -1.616694 1.108729
0.681309 -1.626468 1.054041
0.683735 -1.631316 1.041409
0.786037 -1.620878 1.846099
0.739815 -1.621508 1.535452
0.735181 -1.602760 1.572580
0.675440 -1.627767 1.062809
0.735091 -1.630910 1.563504
0.774552 -1.624574 1.871793
0.658679 -1.632372 1.052508
0.714828 -1.613025 1.507659
0.765519 -1.589011 1.873374
0.723083 -1.608857 1.542968
0.739744 -1.592234 1.803766
0.721999 -1.627770 1.588344
0.642478 -1.626807 1.025552
0.650255 -1.627069 1.052395
0.749285 -1.588639 1.839062
0.700139 -1.623173 1.470722
0.756899 -1.621270 1.894928
0.645174 -1.621611 1.088445
0.652971 -1.623642 1.118590
0.657259 -1.628572 1.163572
0.726109 -1.601745 1.768682
0.654603 -1.623887 1.147901
0.640004 -1.625761 1.042849
0.778563 -1.588336 2.176333
0.658305 -1.597949 1.273539
0.689723 -1.647652 1.269453
0.690613 -1.629095 1.341655
0.760643 -1.584578 2.130485
0.647509 -1.606270 1.239077
0.681860 -1.629319 1.313957
0.683978 -1.650984 1.325054
0.749918 -1.627336 1.811309
0.642162 -1.628138 1.052221
0.649390 -1.616528 1.145244
0.684855 -1.646949 1.301134
0.676342 -1.645889 1.348173
0.651678 -1.628759 1.134716
0.702425 -1.627403 1.500679
0.651150 -1.619901 1.165900
0.648016 -1.629766 1.110830
0.634204 -1.626903 1.043539
0.634119 -1.627311 1.058799
0.734355 -1.619346 1.839686
0.692723 -1.627238 1.534837
0.691167 -1.610273 1.574023
0.727122 -1.627458 1.868749
0.688255 -1.634300 1.563535
0.628298 -1.626701 1.065252
0.610896 -1.631086 1.059024
0.720545 -1.595097 1.871633
0.669187 -1.620814 1.512308
0.679578 -1.617012 1.546493
0.673329 -1.626544 1.587832
0.693696 -1.597322 1.805003
0.606743 -1.631838 1.057453
0.599910 -1.632995 1.033791
0.710093 -1.622741 1.892641
0.699538 -1.588038 1.836697
0.602899 -1.628866 1.095805
0.653402 -1.628196 1.475046
0.612821 -1.633689 1.168751
0.608972 -1.629542 1.124866
0.611565 -1.632844 1.152529
0.724892 -1.582468 2.167401
0.677124 -1.604766 1.769837
0.594176 -1.627045 1.048583
0.620353 -1.616427 1.281216
0.631797 -1.605278 1.337562
0.631460 -1.627885 1.265917
0.627437 -1.632570 1.322601
0.625387 -1.610761 1.312492
0.604604 -1.614939 1.245679
0.704102 -1.576498 2.122460
0.607272 -1.625136 1.149749
0.696452 -1.624606 1.802827
0.597366 -1.632338 1.057293
0.630149 -1.633155 1.299224
0.625331 -1.637782 1.349865
0.606371 -1.632319 1.137703
0.658533 -1.638195 1.501581
0.603928 -1.634044 1.112816
0.609696 -1.630500 1.169635
0.590173 -1.631306 1.062761
0.590739 -1.635087 1.047072
0.686862 -1.622386 1.835656
0.649453 -1.636615 1.536495
0.653058 -1.629031 1.579717
0.679698 -1.630357 1.865707
0.641793 -1.638629 1.563676
0.581896 -1.627496 1.067915
0.675397 -1.598074 1.869444
0.624224 -1.625290 1.515399
0.635276 -1.623477 1.548814
0.633269 -1.642743 1.594308
0.647287 -1.601500 1.806131
0.664095 -1.625930 1.891560
0.658339 -1.599685 1.839546
0.595022 -1.605168 1.472053
0.568644 -1.636478 1.174578
0.568719 -1.639617 1.156816
0.676598 -1.585567 2.165468
0.576833 -1.621203 1.286272
0.631474 -1.612566 1.774484
0.589969 -1.614957 1.341187
0.585575 -1.630957 1.265832
0.581575 -1.632090 1.325029
0.582162 -1.616604 1.316670
0.561524 -1.620501 1.251833
0.659529 -1.587057 2.127430
0.583783 -1.632038 1.299569
0.576831 -1.630978 1.350545
0.563326 -1.629139 1.153711
0.649583 -1.631560 1.800342
0.563090 -1.638314 1.140894
0.565131 -1.630600 1.172051
0.612813 -1.644383 1.501940
0.639446 -1.625297 1.832615
0.605803 -1.626347 1.577866
0.605019 -1.643379 1.536840
0.629575 -1.627089 1.859930
0.599518 -1.647527 1.566198
0.630990 -1.602913 1.867474
0.570484 -1.609247 1.511058
0.590365 -1.626053 1.549591
0.588723 -1.646244 1.595192
0.618222 -1.627077 1.889153
0.601439 -1.604419 1.807029
0.614142 -1.604099 1.840538
0.550139 -1.609520 1.476135
0.628796 -1.587550 2.162318
0.531782 -1.622442 1.289907
0.547897 -1.621671 1.343376
0.585948 -1.618326 1.777803
0.542520 -1.638169 1.267156
0.535651 -1.631767 1.326471
0.540231 -1.623034 1.320834
0.533064 -1.632790 1.354165
0.538227 -1.632640 1.301119
0.612671 -1.590464 2.127459
0.606050 -1.643294 1.801348
0.562676 -1.637731 1.497695
0.590984 -1.623540 1.826935
0.585798 -1.630525 1.858714
0.557774 -1.640710 1.534990
0.555114 -1.615647 1.573066
0.553192 -1.644508 1.564226
0.592325 -1.617642 1.872607
0.529829 -1.616251 1.515206
0.537664 -1.607616 1.543801
0.574265 -1.627394 1.887490
0.547628 -1.652466 1.598239
0.570435 -1.607396 1.840311
0.561195 -1.617515 1.813055
0.509808 -1.619366 1.482705
0.504916 -1.623429 1.344900
0.542953 -1.627160 1.783408
0.489856 -1.633340 1.357554
0.566324 -1.594522 2.129572
0.557595 -1.641550 1.795667
0.512732 -1.628894 1.493113
0.550902 -1.637998 1.830105
0.542026 -1.633976 1.857498
0.547133 -1.615483 1.868644
0.508978 -1.610440 1.570758
0.507648 -1.628752 1.529960
0.500864 -1.627007 1.558546
0.532969 -1.635817 1.890873
0.484523 -1.614524 1.517404
0.495476 -1.611078 1.546528
0.494933 -1.634042 1.592450
0.529758 -1.619723 1.845240
0.521392 -1.631406 1.820174
0.464941 -1.618426 1.486000
0.487037 -1.601916 1.772804
0.520350 -1.599521 2.131792
0.508226 -1.640173 1.790110
0.470339 -1.638121 1.493662
0.506147 -1.641956 1.828023
0.505336 -1.623278 1.869945
0.498142 -1.639496 1.857608
0.467457 -1.615904 1.572713
0.459345 -1.632473 1.560499
0.463972 -1.632085 1.529737
0.491609 -1.644397 1.893268
0.450346 -1.627083 1.590776
0.453473 -1.617679 1.549701
0.479716 -1.603946 1.835583
0.464356 -1.601630 1.805946
0.442703 -1.605029 1.776652
0.463728 -1.647127 1.789462
0.458879 -1.637550 1.822870
0.453006 -1.600340 1.855352
0.458760 -1.652421 1.862518
0.448904 -1.647239 1.893903
0.433138 -1.597980 1.832178
0.421608 -1.606390 1.808899
0.400028 -1.609652 1.780592
0.410053 -1.623777 1.773896
0.406070 -1.628575 1.847817
0.410236 -1.603335 1.855003
0.410197 -1.627550 1.814973
0.392481 -1.605028 1.836320
0.380219 -1.611592 1.812824
0.368577 -1.603793 1.854193
0.361889 -1.625979 1.844721
0.358318 -1.629398 1.882974
