# .PCD v0.7 - Point Cloud Data file format
VERSION 0.7
FIELDS x y z
SIZE 4 4 4
TYPE F F F
COUNT 1 1 1
WIDTH 393
HEIGHT 1
VIEWPOINT 0 0 0 1
POINTS 393
DATA ascii
2.427356 -1.559946 1.336061
2.439808 -1.553587 1.409658
2.462370 -1.599911 1.437317
2.542305 -1.590322 1.432507
2.484152 -1.569246 1.370648
2.443066 -1.551795 1.476330
2.454885 -1.598032 1.441290
2.326438 -1.568995 1.347900
2.380197 -1.547652 1.598251
2.384934 -1.576964 1.335433
2.395444 -1.589118 1.320744
2.440747 -1.597395 1.444657
2.451507 -1.550574 1.534880
2.411974 -1.544525 1.678425
2.337647 -1.562026 1.417240
2.359434 -1.608657 1.446031
2.428440 -1.543978 1.752339
2.306854 -1.591552 1.301608
2.286893 -1.579020 1.293708
2.429350 -1.595636 1.433332
2.378787 -1.575826 1.374723
2.380394 -1.588877 1.335693
2.347374 -1.564591 1.482811
2.421042 -1.609012 1.734764
2.347022 -1.602301 1.446911
2.424704 -1.602700 1.717743
2.224831 -1.573810 1.358692
2.282954 -1.586618 1.326811
2.276754 -1.578642 1.342467
2.429987 -1.603627 1.702486
2.266029 -1.547176 1.600754
2.334827 -1.603184 1.448557
2.211952 -1.592679 1.286384
2.190762 -1.586490 1.255358
2.353408 -1.561192 1.536730
2.305415 -1.550223 1.679226
2.446489 -1.608321 1.673592
2.223418 -1.557152 1.422751
2.253473 -1.610016 1.452946
2.328327 -1.554273 1.751066
2.217647 -1.603824 1.311953
2.327327 -1.604219 1.434757
2.187697 -1.582451 1.303061
2.276333 -1.592014 1.339908
2.275089 -1.581084 1.379470
2.318459 -1.539275 1.979464
2.253532 -1.575212 1.487676
2.315294 -1.614407 1.734446
2.242983 -1.605423 1.451134
2.349209 -1.550532 1.813850
2.326367 -1.615372 1.717041
2.175173 -1.579650 1.348162
2.115083 -1.567605 1.366875
2.195108 -1.599620 1.335249
2.329878 -1.614182 1.700251
2.181085 -1.564328 1.609159
2.458892 -1.620118 2.098280
2.225277 -1.601041 1.449499
2.111873 -1.592719 1.296970
2.429634 -1.616827 2.117612
2.246726 -1.563469 1.536663
2.091526 -1.585501 1.267729
2.404973 -1.623991 2.142558
2.212356 -1.560767 1.681999
2.326450 -1.605878 1.665397
2.134635 -1.567232 1.430474
2.158216 -1.615984 1.460805
2.224018 -1.555608 1.747618
2.219735 -1.603361 1.434948
2.103017 -1.592671 1.318987
2.080739 -1.576745 1.311310
2.179741 -1.588036 1.383440
2.176476 -1.595887 1.344228
2.214831 -1.545557 1.974175
2.147599 -1.572761 1.489499
2.217126 -1.621567 1.735448
2.147911 -1.610545 1.456707
2.240639 -1.535982 2.046640
2.251708 -1.558595 1.808861
2.222682 -1.617265 1.714760
2.096558 -1.599788 1.340673
2.236165 -1.625166 1.697992
2.089188 -1.590232 1.355954
2.254907 -1.531899 2.115572
2.019982 -1.568062 1.376434
2.343443 -1.621567 2.080664
2.076184 -1.560220 1.609519
2.132733 -1.608471 1.453539
2.158056 -1.573673 1.538218
2.371093 -1.620033 2.043730
2.321333 -1.622207 2.103936
2.019938 -1.595550 1.308095
1.999028 -1.587305 1.279638
2.305812 -1.634088 2.134009
2.121362 -1.567800 1.682809
2.233520 -1.616567 1.662009
2.033193 -1.563207 1.435936
2.050285 -1.608087 1.465433
2.141021 -1.570698 1.748233
2.131103 -1.613343 1.437482
2.006942 -1.590716 1.325889
2.078682 -1.596245 1.346585
1.987240 -1.576364 1.319587
2.064866 -1.574891 1.383778
2.044917 -1.568130 1.490704
2.111901 -1.547847 1.967866
2.046429 -1.607255 1.459263
2.121973 -1.628129 1.735210
2.137865 -1.537660 2.037070
2.154919 -1.562423 1.803820
2.126924 -1.623288 1.713362
2.161754 -1.540297 2.106459
1.990445 -1.589724 1.343674
1.981338 -1.577559 1.359362
2.130360 -1.623078 1.692690
1.939869 -1.577549 1.386929
2.244705 -1.629503 2.069492
1.981414 -1.559688 1.611602
2.026325 -1.600703 1.453002
2.057291 -1.570804 1.536729
2.270702 -1.629559 2.030931
2.223205 -1.630686 2.093925
1.936928 -1.600863 1.318624
2.198692 -1.632315 2.120565
1.921719 -1.597042 1.291165
2.021198 -1.565699 1.681515
2.150306 -1.633266 1.662008
2.183827 -1.533808 2.166444
1.957534 -1.576506 1.443168
1.952668 -1.602911 1.469498
2.035320 -1.563566 1.742684
2.022924 -1.603469 1.435413
1.922146 -1.594155 1.333917
1.976016 -1.577483 1.386512
1.911869 -1.587616 1.329392
1.974528 -1.587466 1.348836
2.113372 -1.513037 2.425546
1.947820 -1.564472 1.492042
2.009866 -1.545050 1.959219
2.017706 -1.620998 1.730670
1.952521 -1.605724 1.463138
2.043252 -1.541891 2.029006
2.051480 -1.559419 1.795138
2.032641 -1.625010 1.709813
2.292970 -1.635470 2.599341
2.062746 -1.541321 2.093562
2.032324 -1.621662 1.687408
1.905909 -1.589549 1.366275
1.907347 -1.596270 1.349376
1.856121 -1.578865 1.395449
2.261759 -1.643328 2.625672
2.145608 -1.635585 2.056853
1.937119 -1.601179 1.455231
1.958956 -1.566316 1.534799
1.897711 -1.565660 1.616146
2.122596 -1.632822 2.081351
2.168216 -1.634629 2.017073
1.862990 -1.611893 1.330428
2.096940 -1.632628 2.108591
1.823497 -1.586203 1.300023
2.039071 -1.621152 1.652234
1.929959 -1.565855 1.680618
2.093056 -1.541083 2.154949
1.864882 -1.571533 1.447194
1.942848 -1.562877 1.738504
1.867473 -1.604730 1.475090
1.925417 -1.598222 1.434313
1.848948 -1.605381 1.342662
1.891916 -1.581623 1.389564
1.832625 -1.592053 1.337578
1.897865 -1.598638 1.352477
1.865330 -1.567501 1.494779
2.009723 -1.512660 2.406229
2.222415 -1.637595 2.552117
2.251642 -1.635206 2.513891
1.926962 -1.555626 1.957702
1.928659 -1.620866 1.729661
1.854936 -1.596287 1.464083
1.953617 -1.546099 2.021889
2.040724 -1.510652 2.478434
1.965839 -1.564987 1.791363
2.187185 -1.636019 2.572041
1.939023 -1.622529 1.706244
1.965789 -1.538613 2.079673
1.939862 -1.621004 1.683229
1.829754 -1.597327 1.372134
1.830609 -1.603261 1.355048
2.148142 -1.635439 2.594330
2.053512 -1.507288 2.543454
2.041900 -1.630842 2.040532
1.754777 -1.561362 1.399584
1.852653 -1.603441 1.456778
1.867589 -1.562816 1.533998
2.020300 -1.628072 2.066033
1.810929 -1.564502 1.617916
2.068591 -1.635417 2.002063
2.002374 -1.632596 2.097398
1.755408 -1.588707 1.335325
1.738136 -1.579671 1.309682
1.830535 -1.555245 1.676138
1.944381 -1.621301 1.646245
1.995234 -1.539656 2.138305
1.797373 -1.587429 1.455962
1.854578 -1.562690 1.735388
1.789600 -1.609895 1.481364
1.846634 -1.605158 1.435886
1.821410 -1.594556 1.393510
1.749532 -1.589651 1.344107
1.753877 -1.593349 1.347014
1.824823 -1.609519 1.356991
1.797202 -1.583093 1.501419
1.924922 -1.522781 2.396376
2.112296 -1.634706 2.520936
2.139905 -1.633427 2.483023
1.838675 -1.618076 1.726961
1.834721 -1.553846 1.952218
1.785065 -1.609520 1.470164
1.872598 -1.560803 1.783209
1.867611 -1.550010 2.015641
1.946589 -1.513313 2.459665
2.081291 -1.633120 2.543861
1.845878 -1.617384 1.701982
1.886059 -1.547732 2.074605
1.843540 -1.613744 1.676435
2.038355 -1.626160 2.562557
1.736841 -1.585472 1.374416
1.738281 -1.592198 1.357518
1.973777 -1.521525 2.532461
1.947900 -1.632110 2.027596
1.694051 -1.579322 1.410795
1.793544 -1.571494 1.534879
1.782768 -1.616923 1.461891
1.921046 -1.622236 2.051412
1.972009 -1.635121 1.987749
1.913770 -1.635422 2.087839
1.744806 -1.580875 1.625749
1.681194 -1.593097 1.344422
1.679975 -1.599460 1.321300
1.905603 -1.540291 2.125103
1.847472 -1.613266 1.639261
1.759458 -1.567369 1.679903
1.991841 -1.509628 2.584960
1.708412 -1.577622 1.458680
1.767575 -1.559291 1.731432
1.779859 -1.621740 1.439652
1.730434 -1.584223 1.394068
1.735019 -1.600768 1.357925
1.677842 -1.596348 1.351669
1.682771 -1.600835 1.354763
1.702106 -1.567708 1.498727
1.998741 -1.622788 2.485479
1.831903 -1.522848 2.380031
2.030229 -1.628136 2.450191
1.753115 -1.614437 1.724982
1.782613 -1.554191 1.775401
1.745703 -1.550125 1.945140
1.690619 -1.594203 1.470575
1.781686 -1.549377 2.007208
1.856299 -1.514341 2.441431
1.979847 -1.629134 2.517376
1.760865 -1.615025 1.698249
1.803836 -1.550734 2.065977
1.950408 -1.630349 2.545072
1.882462 -1.520607 2.509622
1.757122 -1.611396 1.671704
1.668260 -1.595263 1.380630
1.673994 -1.606416 1.363729
1.858545 -1.631193 2.015036
1.680471 -1.593183 1.458270
1.844111 -1.632106 2.045445
1.631211 -1.593047 1.419949
1.699381 -1.559277 1.531940
1.825265 -1.633462 2.077065
1.874726 -1.630590 1.972382
1.652088 -1.568395 1.624789
1.827866 -1.546622 2.115151
1.914101 -1.521079 2.569085
1.763591 -1.612986 1.633964
1.662786 -1.548994 1.673396
1.640640 -1.586858 1.464738
1.706944 -1.577598 1.735503
1.683609 -1.604807 1.436591
1.660050 -1.592383 1.396810
1.645491 -1.587368 1.506150
1.916886 -1.633307 2.470500
1.939826 -1.634734 2.430278
1.675834 -1.617054 1.724414
1.714476 -1.566440 1.775003
1.751796 -1.530566 2.371539
1.666385 -1.552415 1.941442
1.773392 -1.517984 2.426798
1.697978 -1.548449 1.998657
1.888944 -1.630128 2.496053
1.687674 -1.623171 1.698994
1.871611 -1.639277 2.532719
1.721473 -1.550528 2.055511
1.795955 -1.520729 2.489010
1.686469 -1.621605 1.671883
1.773764 -1.632896 2.004079
1.760371 -1.631673 2.034953
1.646440 -1.583061 1.537232
1.742953 -1.632778 2.068543
1.786197 -1.629151 1.959674
1.749003 -1.551152 2.105807
1.826966 -1.520901 2.546340
1.590611 -1.582840 1.632036
1.688610 -1.619265 1.632205
1.601852 -1.564708 1.678888
1.622835 -1.569902 1.730399
1.827976 -1.635351 2.449404
1.629140 -1.557898 1.766611
1.590011 -1.606754 1.719728
1.840816 -1.629395 2.402368
1.807778 -1.636651 2.480050
1.673322 -1.537204 2.362740
1.582234 -1.545427 1.933434
1.637367 -1.566756 2.002737
1.701205 -1.529588 2.420146
1.601245 -1.612332 1.693148
1.783989 -1.637603 2.512716
1.645687 -1.553484 2.048802
1.711698 -1.520074 2.470219
1.600023 -1.611015 1.665067
1.684168 -1.625081 1.989782
1.680033 -1.632282 2.025688
1.666011 -1.634163 2.061463
1.662346 -1.542947 2.089273
1.745205 -1.522792 2.525038
1.701640 -1.629786 1.947412
1.614289 -1.621785 1.628447
1.540790 -1.576971 1.683506
1.555637 -1.576583 1.729607
1.731260 -1.624904 2.420151
1.572311 -1.575313 1.768312
1.755288 -1.632736 2.381527
1.719405 -1.631227 2.457047
1.598682 -1.542209 2.354473
1.627690 -1.536651 2.410309
1.550471 -1.555226 1.990540
1.522108 -1.560836 1.937805
1.704928 -1.639878 2.497654
1.560703 -1.543706 2.033906
1.647433 -1.535563 2.465408
1.606823 -1.625091 1.979266
1.591720 -1.621008 2.011522
1.580258 -1.624700 2.047703
1.612537 -1.569564 2.094187
1.667680 -1.524690 2.506742
1.617995 -1.624838 1.934743
1.653365 -1.629025 2.404503
1.494941 -1.570428 1.762746
1.637606 -1.628967 2.437800
1.667883 -1.630264 2.359256
1.619812 -1.632024 2.474998
1.479950 -1.556559 1.985373
1.550507 -1.536016 2.396535
1.527242 -1.549355 2.348748
1.454372 -1.566492 1.937810
1.487218 -1.541576 2.025859
1.577492 -1.542813 2.454504
1.528569 -1.621960 1.969010
1.522886 -1.641092 2.050194
1.513083 -1.615985 1.999763
1.521266 -1.551002 2.072037
1.580039 -1.635769 2.390455
1.568059 -1.638376 2.427441
1.548363 -1.635592 2.463195
1.595308 -1.641032 2.347247
1.414009 -1.560269 1.982775
1.493243 -1.556338 2.397967
1.444003 -1.571377 2.034539
1.431438 -1.524572 2.318945
1.505051 -1.543942 2.440039
1.531930 -1.540408 2.483081
1.455243 -1.555680 2.065552
1.501272 -1.632689 2.370938
1.485251 -1.644448 2.456676
1.493654 -1.638749 2.411800
1.514352 -1.638277 2.327862
1.396877 -1.526700 2.363842
1.415708 -1.523531 2.409129
1.383172 -1.550009 2.329733
1.469941 -1.551321 2.474994
1.398494 -1.568805 2.064105
1.431445 -1.635443 2.357863
1.421906 -1.635903 2.396310
1.407980 -1.636563 2.436940
1.351358 -1.553111 2.372748
1.436606 -1.633578 2.306878
1.327226 -1.566663 2.332273
1.347305 -1.617987 2.330689
1.355591 -1.622825 2.284434
1.264451 -1.573253 2.329316
