# .PCD v0.7 - Point Cloud Data file format
VERSION 0.7
FIELDS x y z
SIZE 4 4 4
TYPE F F F
COUNT 1 1 1
WIDTH 348
HEIGHT 1
VIEWPOINT 0 0 0 1
POINTS 348
DATA ascii
-1.524869 5.308330 1.185761
-1.482077 5.297641 1.026914
-1.414294 5.287868 0.879225
-1.535841 5.366912 1.188028
-1.490909 5.361797 1.029496
-1.381356 5.319454 0.719467
-1.497316 5.280188 1.126346
-1.416867 5.344655 0.875793
-1.544145 5.427929 1.190789
-1.495218 5.425130 1.032293
-1.387747 5.386497 0.715219
-1.318426 5.336965 0.593851
-1.508387 5.342570 1.127235
-1.557020 5.494295 1.194058
-1.418107 5.403983 0.873314
-1.485391 5.345524 1.007596
-1.538029 5.525847 1.033101
-1.393737 5.307595 0.827785
-1.319958 5.401313 0.584770
-1.387745 5.451187 0.712662
-1.437770 5.481480 0.866915
-1.517666 5.406247 1.128569
-1.488795 5.407318 1.009032
-1.229496 5.373536 0.339790
-1.223574 5.362490 0.381835
-1.529037 5.581338 1.039461
-1.484197 5.308491 1.072857
-1.391806 5.364511 0.824224
-1.327127 5.473825 0.572330
-1.158790 5.371663 0.143856
-1.156863 5.370214 0.162937
-1.408577 5.539646 0.704186
-1.382759 5.385769 0.700537
-1.528813 5.474101 1.129839
-1.468156 5.329832 0.989068
-1.227203 5.441437 0.325519
-1.296345 5.346414 0.540856
-1.492228 5.472712 1.011535
-1.234254 5.444347 0.363185
-1.091327 5.367486 -0.025934
-1.109782 5.381060 0.012812
-1.111056 5.383677 0.017124
-1.549479 5.668979 1.043194
-1.488968 5.369643 1.072651
-1.404713 5.439564 0.816220
-1.223307 5.329862 0.368817
-1.040471 5.309662 0.218248
-1.052972 5.321665 0.228868
-1.451529 5.624414 0.859471
-1.417931 5.619913 0.698484
-1.370112 5.322192 0.692816
-1.376318 5.444509 0.698604
-1.381369 5.330886 0.775628
-1.479399 5.398809 0.987551
-1.464277 5.281615 1.014999
-1.233406 5.521671 0.304987
-1.295212 5.411470 0.530515
-1.516329 5.558877 1.011592
-1.235147 5.518256 0.351063
-0.978545 5.307452 0.060227
-0.992847 5.315960 0.099318
-0.992653 5.316407 0.106301
-1.204609 5.371847 0.282682
-1.556619 5.746129 1.049080
-1.495636 5.435921 1.072036
-1.413929 5.513431 0.810480
-1.148166 5.351443 0.139962
-1.343552 5.633195 0.546046
-1.222792 5.399139 0.355512
-1.457979 5.699552 0.857015
-1.146870 5.511095 0.107161
-1.029127 5.365738 0.229092
-1.431491 5.709780 0.693162
-1.377553 5.393004 0.684354
-1.457616 5.320827 0.960142
-1.550707 5.618404 1.135416
-1.400944 5.538861 0.686143
-1.132643 5.365597 0.080684
-1.384612 5.397412 0.769608
-1.481468 5.461415 0.988184
-1.243057 5.612017 0.280344
-1.267080 5.633613 0.318172
-1.467755 5.344554 1.013646
-1.294611 5.480582 0.519651
-1.531767 5.641809 1.013621
-1.095540 5.535124 -0.088850
-1.114554 5.548634 -0.038630
-1.277408 5.354548 0.487883
-1.095102 5.378282 -0.025627
-1.201518 5.441978 0.265675
-1.073421 5.369642 -0.089105
-1.088402 5.379895 -0.056833
-1.555541 5.818625 1.056033
-1.521556 5.522698 1.070959
-1.428761 5.597184 0.803135
-1.131962 5.407271 0.132219
-1.348153 5.714515 0.534138
-1.462662 5.776921 0.854659
-1.223715 5.472284 0.341289
-1.170195 5.624844 0.060393
-1.182856 5.637423 0.081291
-1.428402 5.782794 0.692728
-1.555107 5.689070 1.137905
-1.406152 5.615004 0.680441
-1.367488 5.450748 0.682242
-1.471697 5.393991 0.955722
-1.013722 5.303705 0.161212
-1.365607 5.332190 0.669467
-1.510226 5.554074 0.985961
-1.395308 5.474411 0.760851
-1.214154 5.359564 0.349140
-1.244792 5.695936 0.260754
-1.249925 5.695694 0.315745
-1.536204 5.716067 1.017178
-1.470343 5.408599 1.012344
-1.119997 5.643852 -0.085164
-1.106005 5.638668 -0.132612
-1.122009 5.647676 -0.074607
-1.275003 5.422316 0.476051
-0.977640 5.313458 0.064571
-1.181938 5.368085 0.226333
-0.957681 5.306003 0.004503
-1.563641 5.902770 1.063660
-1.204116 5.522158 0.244620
-0.965710 5.308903 0.039332
-1.361003 5.355440 0.720028
-1.531938 5.599044 1.071970
-1.433481 5.673804 0.798679
-1.469242 5.859399 0.851895
-1.017263 5.346235 0.206794
-1.349145 5.797484 0.523463
-1.224795 5.551073 0.325005
-1.174706 5.719540 0.029759
-1.171207 5.712400 0.068049
-1.435163 5.873586 0.689313
-1.564029 5.765858 1.143000
-1.418880 5.706168 0.672725
-1.391656 5.544803 0.668928
-1.469685 5.454360 0.955668
-1.132347 5.524878 0.026467
-1.366665 5.398937 0.660941
-1.506406 5.617435 0.988108
-1.218422 5.437367 0.330425
-1.249040 5.789199 0.237790
-1.260975 5.795981 0.295107
-1.317351 5.656138 0.485664
-1.550301 5.804167 1.021571
-1.081883 5.373963 -0.067799
-1.133662 5.402295 0.101512
-1.115927 5.735473 -0.116267
-1.120640 5.740471 -0.105138
-1.487684 5.490618 1.009039
-1.277265 5.496538 0.461941
-1.091411 5.541411 -0.084181
-1.070081 5.317070 0.287766
-1.570886 5.991629 1.072404
-1.217214 5.620912 0.214110
-1.209578 5.327382 0.331111
-1.423884 5.736336 0.798144
-1.529501 5.664410 1.073886
-1.363023 5.426569 0.711831
-1.478691 5.951359 0.849053
-1.345050 5.877263 0.515282
-1.258252 5.368278 0.429548
-1.164132 5.611900 0.056315
-1.169514 5.809120 0.004622
-1.246081 5.658853 0.296591
-1.175725 5.812396 0.040239
-1.566631 5.840458 1.147346
-1.444305 5.971667 0.685655
-0.999063 5.304712 0.095621
-1.418683 5.785243 0.668701
-1.404404 5.632546 0.657701
-1.500815 5.549962 0.950033
-1.145938 5.630867 -0.016217
-1.515045 5.696935 0.988877
-1.364059 5.465446 0.654336
-1.422894 5.646875 0.741933
-1.250586 5.883918 0.215665
-1.213414 5.507681 0.316648
-1.259967 5.887445 0.281277
-1.323986 5.745577 0.469873
-1.546520 5.876410 1.027609
-0.967283 5.315003 0.021255
-1.116091 5.835201 -0.133583
-1.017630 5.342830 0.177386
-0.945602 5.308320 -0.025304
-1.589195 6.096323 1.081761
-1.102840 5.647611 -0.129366
-1.304816 5.605608 0.434623
-1.220132 5.712363 0.188936
-1.055696 5.373495 0.278895
-1.161955 5.370653 0.158217
-1.440296 5.833966 0.790991
-1.477545 6.034012 0.848939
-1.346682 5.968027 0.502715
-1.538119 5.745639 1.076414
-1.211082 5.402136 0.312514
-1.364563 5.498155 0.704885
-1.158289 5.696341 0.034489
-1.166786 5.906153 -0.023197
-1.257379 5.441048 0.414016
-1.246415 5.746097 0.280055
-1.175705 5.913271 0.014403
-1.578422 5.929387 1.153777
-1.446973 6.064559 0.684724
-1.116252 5.531667 -0.049825
-1.420394 5.872101 0.665684
-1.406976 5.712993 0.651809
-1.509038 5.627470 0.948198
-1.141718 5.720457 -0.044189
-1.532010 5.790171 0.990027
-1.243312 5.972404 0.198990
-1.390684 5.565279 0.636582
-1.413429 5.714142 0.739682
-1.124967 5.390316 0.067956
-1.248857 5.632592 0.275103
-1.254812 5.976483 0.269205
-1.325175 5.836088 0.456450
-1.557513 5.969273 1.033059
-1.082819 5.550378 -0.139217
-1.224990 5.810794 0.162660
-1.504101 5.647388 1.007116
-1.297559 5.681297 0.423602
-1.482489 6.128715 0.847378
-1.199225 5.633259 0.143865
-1.354946 6.074910 0.488178
-1.434092 5.910037 0.789853
-1.033582 5.303168 0.237261
-1.549506 5.833514 1.079887
-1.205278 5.474702 0.295998
-1.391636 5.601888 0.689044
-1.156813 5.791636 0.007807
-1.156212 5.999585 -0.047002
-1.249248 5.842674 0.260139
-1.585192 6.015285 1.160255
-1.168719 6.009420 -0.007469
-1.452094 6.167561 0.682513
-1.258927 5.523004 0.397547
-0.971682 5.295933 0.028148
-1.434741 5.979008 0.657465
-1.122543 5.633770 -0.092181
-1.407795 5.796605 0.645669
-1.139539 5.818134 -0.076048
-1.495191 5.684809 0.950445
-1.238540 6.070218 0.178936
-1.525981 5.860759 0.994243
-1.426677 5.810302 0.731096
-1.398889 5.652209 0.625568
-1.255428 6.081039 0.253462
-1.237057 5.706488 0.264643
-1.006667 5.331659 0.145866
-1.325465 5.927682 0.443073
-1.572723 6.072666 1.038540
-0.947059 5.310943 -0.026845
-1.148519 5.683374 0.004106
-1.218753 5.902102 0.142110
-1.300638 5.772561 0.406597
-1.511908 5.730852 1.006899
-1.449691 6.016891 0.784535
-1.195697 5.721412 0.120719
-1.554948 5.917600 1.084150
-1.120602 5.486317 0.141095
-1.151063 6.108400 -0.077768
-1.152633 5.888384 -0.018035
-1.208387 5.559899 0.274072
-1.599349 6.114138 1.167849
-1.161896 6.113854 -0.029991
-1.246041 5.937015 0.245210
-1.388774 5.679995 0.682000
-1.280655 5.631294 0.367536
-1.431939 6.068595 0.655726
-1.120871 5.730214 -0.127387
-1.410990 5.887508 0.639285
-1.132384 5.916383 -0.106788
-1.514545 5.781921 0.947834
-1.547635 5.966685 0.995588
-1.422863 5.891971 0.727958
-1.397414 5.732294 0.618295
-1.323507 6.021976 0.431043
-1.574550 6.162733 1.047204
-1.234759 5.796305 0.246152
-1.116534 5.553269 0.014148
-1.141031 5.773022 -0.021100
-1.212165 5.998571 0.121088
-1.454744 6.116310 0.781254
-1.303793 5.869288 0.389973
-1.199428 5.825542 0.089479
-1.527095 5.827279 1.007798
-1.560521 6.009049 1.088105
-1.153874 6.000518 -0.050839
-1.171827 5.642170 0.068992
-1.225266 5.668146 0.240640
-1.242987 6.036980 0.228218
-1.398921 5.776579 0.671300
-1.279119 5.718925 0.351777
-1.124878 6.019788 -0.138000
-1.415224 5.985583 0.632199
-1.520074 5.867118 0.949310
-1.549973 6.055522 1.000905
-1.428401 5.989225 0.721673
-1.325448 6.127606 0.415411
-1.401545 5.822258 0.609417
-1.241969 5.904699 0.221041
-1.129411 5.666206 -0.032997
-1.209018 6.105130 0.095955
-1.143200 5.881574 -0.057810
-1.300581 5.964587 0.374698
-1.196661 5.926185 0.062718
-1.527166 5.910899 1.010227
-1.573449 6.112504 1.093519
-1.150568 6.113517 -0.081672
-1.169442 5.736897 0.040602
-1.221152 5.756614 0.221181
-1.398426 5.864611 0.665423
-1.281951 5.817421 0.331170
-1.418089 6.085228 0.626411
-1.529447 5.964449 0.949281
-1.562530 6.163207 1.006192
-1.430810 6.090305 0.716787
-1.407675 5.921100 0.598755
-1.233353 5.997602 0.204623
-1.129175 5.767479 -0.069465
-1.136526 5.985593 -0.087319
-1.299771 6.068110 0.358835
-1.188413 6.026934 0.038666
-1.530973 6.002870 1.012527
-1.231292 5.870304 0.190381
-1.169640 5.843789 0.007808
-1.401319 5.963524 0.657533
-1.275990 5.910608 0.315664
-1.536490 6.061645 0.951630
-1.405513 6.015101 0.591605
-1.226763 6.100317 0.186078
-1.125380 5.872265 -0.105387
-1.133930 6.104874 -0.124248
-1.183711 6.141541 0.009128
-1.542667 6.110925 1.015762
-1.221873 5.965446 0.171225
-1.162911 5.946889 -0.021360
-1.404286 6.067897 0.650024
-1.540825 6.160297 0.954819
-1.274377 6.016375 0.297064
-1.410454 6.124749 0.581245
-1.116533 5.977448 -0.137747
-1.213033 6.066508 0.150860
-1.158736 6.061200 -0.054588
-1.274356 6.131647 0.275485
