# .PCD v0.7 - Point Cloud Data file format
VERSION 0.7
FIELDS x y z
SIZE 4 4 4
TYPE F F F
COUNT 1 1 1
WIDTH 781
HEIGHT 1
VIEWPOINT 0 0 0 1
POINTS 781
DATA ascii
-44.638817 46.022934 -17.253654
-44.662090 46.024254 -17.184364
-44.595078 46.022026 -17.277235
-44.622307 46.027210 -17.204142
-45.316883 45.993706 -17.040537
-45.075558 45.981838 -17.512812
-45.137390 45.983894 -17.344833
-45.156147 45.986935 -17.303816
-45.231373 45.993778 -17.115246
-45.190857 45.989883 -17.197224
-45.133919 45.991470 -17.332870
-45.076073 45.989803 -17.478846
-45.226978 45.994770 -17.090097
-45.135151 45.990902 -17.315172
-45.105659 45.984680 -17.350010
-45.152142 45.988914 -17.243568
-45.303772 45.997715 -16.859377
-45.089745 45.985752 -17.381424
-45.096123 45.988518 -17.376350
-45.145237 45.992203 -17.248463
-45.294582 46.000137 -16.864479
-45.179073 45.997643 -17.161844
-45.256542 46.001530 -16.966631
-45.269035 46.000225 -16.915771
-45.279964 46.003063 -16.898521
-45.288719 46.003201 -16.875105
-45.266781 46.003181 -16.922413
-45.190403 45.993389 -17.076361
-45.224575 46.000011 -17.017645
-45.086811 45.994415 -17.365395
-45.050777 45.987930 -17.423412
-45.053352 45.989719 -17.425453
-45.126316 45.990955 -17.227470
-45.053478 45.988380 -17.401997
-45.168751 45.999275 -17.126997
-45.084049 45.995354 -17.338724
-45.103851 45.995323 -17.262842
-45.149395 45.996532 -17.123995
-45.047966 45.996677 -17.404224
-45.063419 45.991249 -17.316013
-45.007111 45.991352 -17.466845
-45.072666 45.995056 -17.303473
-45.003094 45.992367 -17.474953
-45.086166 45.998016 -17.276506
-45.153721 46.002159 -17.093592
-45.112614 45.996426 -17.171070
-45.066383 46.002342 -17.307547
-45.151417 46.002941 -17.071365
-45.286022 46.010406 -16.735254
-45.085060 45.999634 -17.222689
-45.001194 45.997467 -17.441143
-45.062248 46.000187 -17.286760
-45.033463 45.993977 -17.319727
-45.224976 46.004845 -16.849041
-45.021862 45.994953 -17.345285
-45.020412 45.995846 -17.352219
-45.215778 46.005352 -16.850929
-45.066261 45.999889 -17.218836
-45.101833 46.005112 -17.136074
-45.191418 46.007450 -16.899471
-45.203144 46.006805 -16.862213
-45.171280 46.006298 -16.947453
-45.200710 46.010345 -16.883743
-45.116764 46.000511 -17.055143
-45.016411 46.002579 -17.335785
-45.057301 45.998898 -17.202652
-45.186954 46.010536 -16.906351
-44.979507 45.995243 -17.390268
-44.980507 45.996174 -17.390646
-45.148567 46.010254 -16.997684
-44.982346 45.997692 -17.368910
-45.091328 46.005665 -17.104359
-45.007286 46.000996 -17.305651
-45.034626 46.005257 -17.239021
-45.076534 46.004665 -17.100939
-44.976696 46.003990 -17.371082
-44.990845 45.996468 -17.288782
-45.000439 46.000282 -17.275305
-45.006222 45.999786 -17.245430
-44.929470 45.994232 -17.427025
-44.926105 45.996174 -17.436449
-45.084526 46.010937 -17.075119
-45.037186 46.002766 -17.145977
-44.991879 46.006699 -17.279591
-45.079529 46.009846 -17.054012
-45.012363 46.004772 -17.198618
-45.202095 46.015869 -16.724060
-44.988163 46.005547 -17.257896
-45.155476 46.014374 -16.840071
-44.925205 46.002205 -17.403017
-44.955486 46.001854 -17.316114
-44.964939 46.002007 -17.290823
-44.953751 46.003738 -17.324015
-45.143692 46.011181 -16.836704
-45.210991 46.016830 -16.671858
-44.994404 46.007034 -17.192951
-45.124027 46.017014 -16.884884
-45.135696 46.017281 -16.850815
-45.125137 46.016361 -16.870346
-45.024994 46.009518 -17.111515
-45.093903 46.011532 -16.930170
-45.050720 46.009094 -17.036789
-44.985825 46.002979 -17.177967
-44.951332 46.011333 -17.309246
-45.113499 46.018497 -16.890551
-44.907127 45.999630 -17.356703
-44.908127 46.000561 -17.357079
-45.062904 46.012104 -16.976215
-45.023712 46.013390 -17.084343
-44.916462 46.006596 -17.338865
-44.943623 46.011684 -17.278582
-44.971348 46.014793 -17.216366
-45.012131 46.013187 -17.081062
-44.934391 46.005035 -17.250528
-44.929142 46.004951 -17.264578
-44.901905 46.005512 -17.337671
-44.942307 46.008396 -17.221466
-45.018074 46.018517 -17.057676
-44.867508 46.003948 -17.395250
-44.862499 46.004032 -17.402985
-45.005463 46.011894 -17.035831
-44.927830 46.013313 -17.255569
-44.971630 46.011433 -17.123535
-44.949188 46.012234 -17.178131
-45.084148 46.019051 -16.829334
-44.917820 46.010639 -17.230440
-45.123196 46.021004 -16.713686
-45.071720 46.014935 -16.824656
-44.888641 46.006756 -17.287834
-44.896164 46.006042 -17.261816
-44.887836 46.008575 -17.296083
-45.158806 46.025314 -16.627731
-44.865753 46.012714 -17.373259
-45.134533 46.021759 -16.663469
-44.988632 46.015419 -17.018845
-45.057449 46.024513 -16.870600
-45.069996 46.025627 -16.840065
-44.927563 46.013851 -17.167885
-44.924286 46.010384 -17.155962
-45.022831 46.016376 -16.913122
-45.048450 46.019451 -16.856525
-44.956169 46.016388 -17.088907
-44.885067 46.016163 -17.282253
-45.040440 46.023392 -16.875961
-44.852276 46.010719 -17.331877
-44.842922 46.005405 -17.327280
-44.954052 46.018250 -17.063555
-44.995247 46.020741 -16.959394
-44.903965 46.018608 -17.192156
-44.849747 46.011578 -17.307432
-44.874275 46.015797 -17.248293
-44.875423 46.012318 -17.227352
-44.944687 46.017921 -17.060038
-44.868896 46.012295 -17.241991
-44.844196 46.015804 -17.311773
-44.883335 46.015682 -17.198290
-44.947517 46.020370 -17.038679
-44.804363 46.009739 -17.363026
-44.948536 46.021793 -17.021975
-44.870510 46.022453 -17.234087
-44.799423 46.010822 -17.370787
-44.902901 46.014313 -17.099884
-44.888817 46.019497 -17.158703
-45.019485 46.025257 -16.821108
-45.019146 46.025497 -16.813505
-44.856930 46.017059 -17.206541
-44.832027 46.015907 -17.264482
-44.836975 46.013405 -17.236423
-44.828648 46.015934 -17.270691
-45.054871 46.028477 -16.704090
-45.091282 46.032642 -16.621639
-44.804115 46.018364 -17.342669
-45.065369 46.027225 -16.655689
-44.921291 46.018078 -16.999989
-44.985069 46.025345 -16.856256
-44.992290 46.023716 -16.827986
-44.866066 46.016521 -17.136269
-44.988537 46.028477 -16.844751
-44.961693 46.024548 -16.898750
-44.859612 46.017742 -17.142397
-44.897144 46.024586 -17.068922
-44.823540 46.021652 -17.257044
-45.075920 46.031960 -16.608395
-44.977020 46.030693 -16.861801
-44.784309 46.010780 -17.299963
-44.785309 46.011711 -17.300341
-44.885075 46.019054 -17.043011
-44.841248 46.022087 -17.169699
-44.930962 46.027195 -16.941700
-44.814312 46.020233 -17.221533
-44.819908 46.020325 -17.206545
-44.784428 46.014427 -17.277588
-44.888107 46.025917 -17.042036
-44.812103 46.020363 -17.221773
-45.052578 46.030727 -16.596428
-44.786167 46.021107 -17.285742
-44.819332 46.017311 -17.173206
-44.890305 46.029354 -17.022579
-44.885220 46.025105 -17.006771
-44.805161 46.023144 -17.209566
-44.747459 46.016056 -17.334217
-44.832184 46.026489 -17.140678
-44.741524 46.016205 -17.341602
-44.950787 46.026737 -16.811354
-44.851021 46.026043 -17.081524
-44.956696 46.029659 -16.801832
-44.798847 46.023277 -17.183699
-45.023510 46.035973 -16.615446
-44.774330 46.015968 -17.210787
-44.746864 46.024673 -17.314798
-44.983154 46.032154 -16.694281
-45.000298 46.032429 -16.648378
-44.871078 46.028595 -16.985455
-44.931866 46.034985 -16.843803
-44.938038 46.033337 -16.818342
-44.822178 46.030712 -17.119850
-44.923817 46.031769 -16.833296
-45.028336 46.038868 -16.574543
-45.017906 46.039696 -16.602676
-44.896519 46.027996 -16.882851
-44.835728 46.029922 -17.049099
-44.819271 46.037727 -17.126263
-44.723656 46.013290 -17.271872
-44.724655 46.014225 -17.272249
-44.914486 46.036930 -16.847969
-44.833427 46.030704 -17.026876
-44.783333 46.027229 -17.149054
-44.748127 46.017006 -17.195620
-44.752796 46.017162 -17.180283
-44.825142 46.027321 -17.022688
-44.872406 46.035240 -16.926167
-44.731262 46.022388 -17.253395
-44.991879 46.036591 -16.591831
-44.756657 46.027454 -17.197790
-44.769611 46.027912 -17.154589
-44.824299 46.028877 -17.005289
-44.828915 46.029949 -16.993139
-44.766525 46.024105 -17.119240
-44.897984 46.035221 -16.803322
-44.902599 46.036293 -16.791172
-44.690506 46.021370 -17.305389
-44.685432 46.020458 -17.313095
-44.783566 46.024792 -17.059416
-44.710163 46.019600 -17.220905
-44.743500 46.028294 -17.161882
-44.713032 46.020645 -17.213440
-44.961239 46.040974 -16.609190
-44.724602 46.024654 -17.188957
-44.809147 46.027859 -16.968624
-44.937317 46.035507 -16.640781
-44.874271 46.039894 -16.830757
-44.882317 46.040024 -16.809210
-44.749897 46.021816 -17.094835
-44.923004 46.039101 -16.685623
-44.969467 46.039104 -16.552458
-44.963535 46.040920 -16.571600
-44.866871 46.037601 -16.821564
-44.954506 46.041771 -16.595985
-44.834663 46.030170 -16.869265
-44.773064 46.030331 -17.028793
-44.740772 46.028305 -17.097843
-44.848007 46.036369 -16.834776
-44.729080 46.031109 -17.129782
-44.777187 46.034634 -17.010065
-44.769188 46.030258 -17.004911
-44.945404 46.042355 -16.560532
-44.799797 46.030167 -16.908520
-44.931057 46.040455 -16.587185
-44.680969 46.031143 -17.230288
-44.710152 46.027210 -17.131210
-44.700672 46.031548 -17.174667
-44.770569 46.033600 -16.990488
-44.767643 46.030140 -16.977629
-44.722622 46.034225 -17.104942
-44.850307 46.041794 -16.781189
-44.834183 46.034378 -16.794336
-44.736225 46.034191 -17.042759
-44.757561 46.031452 -16.953560
-44.694942 46.036835 -17.142632
-44.902058 46.044785 -16.603024
-44.667500 46.025822 -17.165405
-44.805199 46.033470 -16.817638
-44.824482 46.042854 -16.799274
-44.710335 46.035667 -17.081114
-44.914001 46.042645 -16.547686
-44.882179 46.042130 -16.632938
-44.909782 46.047318 -16.568550
-44.899460 46.046314 -16.590307
-44.867706 46.046795 -16.675589
-44.807117 46.039566 -16.810905
-44.785847 46.038551 -16.856325
-44.726788 46.041660 -17.012547
-44.794155 46.041012 -16.823137
-44.687878 46.033119 -17.078022
-44.685955 46.042236 -17.113647
-44.718838 46.034702 -16.992449
-44.721020 46.037647 -16.990074
-44.879662 46.040401 -16.559362
-44.881283 46.048664 -16.582430
-44.663971 46.034546 -17.113918
-44.626781 46.032192 -17.204626
-44.722050 46.040985 -16.976589
-44.726543 46.041973 -16.967598
-44.753815 46.042419 -16.894524
-44.652760 46.039101 -17.153519
-44.788300 46.037903 -16.769663
-44.677383 46.043411 -17.091213
-44.793015 46.047131 -16.787489
-44.687698 46.039661 -17.025646
-44.716164 46.042366 -16.941278
-44.643852 46.040516 -17.123484
-44.851643 46.052067 -16.596960
-44.849697 46.037643 -16.544910
-44.759823 46.042580 -16.807062
-44.664669 46.041935 -17.065079
-44.765186 46.042747 -16.789850
-44.626015 46.036892 -17.147753
-44.827850 46.046684 -16.625397
-44.859592 46.054520 -16.564707
-44.848053 46.052666 -16.583868
-44.754135 46.043144 -16.799593
-44.802570 46.045017 -16.667173
-44.733639 46.043137 -16.843170
-44.679909 46.048988 -16.997129
-44.747272 46.050255 -16.810930
-44.645622 46.043186 -17.062214
-44.636375 46.045776 -17.096136
-44.684772 46.052139 -16.981878
-44.674999 46.043911 -16.974977
-44.826305 46.043732 -16.557522
-44.816475 46.044731 -16.578402
-44.675266 46.046238 -16.963337
-44.679409 46.047222 -16.955282
-44.618019 46.039894 -17.095636
-44.750977 46.050472 -16.761057
-44.579746 46.038681 -17.183809
-44.602314 46.041794 -17.132475
-44.627323 46.044949 -17.074583
-44.701035 46.047073 -16.880087
-44.739788 46.048622 -16.779282
-44.638767 46.044128 -17.009451
-44.671589 46.047493 -16.927788
-44.807564 46.046398 -16.539824
-44.791805 46.050877 -16.591606
-44.612972 46.041618 -17.046761
-44.594986 46.044067 -17.104105
-44.712334 46.047825 -16.795683
-44.722260 46.051647 -16.781265
-44.579426 46.041313 -17.128162
-44.792549 46.046646 -16.563030
-44.790009 46.050346 -16.579182
-44.774399 46.050171 -16.618183
-44.711628 46.053047 -16.790100
-44.756496 46.054111 -16.658478
-44.686638 46.050385 -16.830915
-44.625004 46.047871 -16.978674
-44.695103 46.051769 -16.799919
-44.587673 46.048252 -17.078953
-44.782131 46.051537 -16.554873
-44.634365 46.053677 -16.966187
-44.629856 46.049110 -16.960207
-44.593555 46.045933 -17.042702
-44.777813 46.058281 -16.573574
-44.632797 46.051399 -16.944231
-44.630417 46.052357 -16.950819
-44.705860 46.054516 -16.751633
-44.573654 46.046101 -17.079027
-44.580132 46.047287 -17.059034
-44.690769 46.051853 -16.771597
-44.531879 46.041248 -17.161600
-44.557720 46.048077 -17.113646
-44.652332 46.051464 -16.866117
-44.630013 46.055416 -16.915436
-44.777290 46.061504 -16.532808
-44.590069 46.046608 -16.992270
-44.567707 46.044819 -17.031939
-44.671188 46.052013 -16.772799
-44.750450 46.060638 -16.584684
-44.551838 46.049213 -17.086882
-44.666710 46.052937 -16.785009
-44.751072 46.056324 -16.559269
-44.744900 46.056305 -16.572973
-44.519772 46.031635 -17.103622
-44.727367 46.055267 -16.611252
-44.658569 46.051552 -16.780882
-44.636044 46.050842 -16.818359
-44.705688 46.058475 -16.650129
-44.539776 46.048664 -17.062067
-44.583141 46.054871 -16.964077
-44.735626 46.057472 -16.552416
-44.647564 46.056015 -16.788523
-44.582249 46.050446 -16.945568
-44.583488 46.053211 -16.951385
-44.548065 46.049213 -17.025661
-44.586414 46.053589 -16.932192
-44.722996 46.056763 -16.569036
-44.662678 46.059422 -16.742943
-44.521416 46.040871 -17.058355
-44.580189 46.052818 -16.937330
-44.642628 46.054016 -16.764238
-44.522514 46.038307 -17.040602
-44.513290 46.051373 -17.093800
-44.479839 46.037098 -17.137804
-44.607494 46.057587 -16.853605
-44.579582 46.052879 -16.901863
-44.715965 46.053310 -16.530077
-44.548080 46.051609 -16.977619
-44.519619 46.042240 -17.014971
-44.625233 46.058788 -16.774826
-44.623753 46.054188 -16.763571
-44.699673 46.061932 -16.578472
-44.498260 46.043045 -17.066774
-44.708473 46.063076 -16.555077
-44.697327 46.058399 -16.566898
-44.484818 46.042236 -17.088430
-44.678356 46.058498 -16.603575
-44.608215 46.051929 -16.770554
-44.582577 46.046429 -16.806845
-44.692616 46.063217 -16.549135
-44.656036 46.060783 -16.641140
-44.500786 46.056458 -17.048553
-44.592747 46.050667 -16.777567
-44.524185 46.044956 -16.946211
-44.541836 46.056309 -16.932583
-44.532841 46.050755 -16.935596
-44.679344 46.061581 -16.564445
-44.615459 46.059605 -16.732721
-44.544888 46.058434 -16.921988
-44.496552 46.045906 -17.006342
-44.538017 46.056740 -16.925814
-44.480656 46.044811 -17.043097
-44.489300 46.048695 -17.029264
-44.588692 46.049515 -16.756821
-44.473362 46.057320 -17.076727
-44.442261 46.044914 -17.120550
-44.685226 46.066410 -16.523952
-44.533298 46.051083 -16.888781
-44.559196 46.058910 -16.840851
-44.500130 46.051025 -16.960716
-44.483418 46.049831 -17.002504
-44.568882 46.049507 -16.764347
-44.581100 46.058025 -16.756147
-44.654102 46.065887 -16.573158
-44.659798 46.064152 -16.551792
-44.461903 46.051716 -17.052118
-44.653034 46.062294 -16.560997
-44.444416 46.046185 -17.072239
-44.633423 46.061466 -16.596361
-44.568260 46.057636 -16.762014
-44.544739 46.054085 -16.795900
-44.642117 46.061359 -16.547291
-44.452930 46.051888 -17.030603
-44.495266 46.053589 -16.917257
-44.564884 46.052921 -16.724421
-44.554554 46.058319 -16.767561
-44.492954 46.055542 -16.923874
-44.614346 46.068623 -16.631960
-44.488468 46.054554 -16.932867
-44.498260 46.056629 -16.909849
-44.622528 46.054131 -16.561277
-44.494724 46.057732 -16.913870
-44.552586 46.056950 -16.749731
-44.450699 46.053421 -17.016958
-44.444813 46.052410 -17.029699
-44.458920 46.054638 -16.992279
-44.640968 46.067234 -16.520189
-44.493210 46.052879 -16.876972
-44.430328 46.058479 -17.058472
-44.401505 46.046940 -17.102085
-44.510136 46.057316 -16.826735
-44.445099 46.053566 -16.989233
-44.537334 46.058929 -16.748299
-44.533894 46.057961 -16.754480
-44.457966 46.053032 -16.945995
-44.601192 46.059250 -16.568258
-44.619362 46.069775 -16.547346
-44.611889 46.065994 -16.555208
-44.420311 46.051735 -17.035467
-44.673477 46.075665 -16.403193
-44.409214 46.052795 -17.056944
-44.584270 46.058628 -16.590748
-44.529591 46.063286 -16.752892
-44.502094 46.056004 -16.785273
-44.591152 46.057495 -16.546335
-44.417606 46.058414 -17.018465
-44.530476 46.061298 -16.715839
-44.456596 46.057320 -16.904922
-44.460815 46.061214 -16.900114
-44.511909 46.060238 -16.756933
-44.590744 46.065300 -16.554760
-44.451210 46.060219 -16.920004
-44.451370 46.057480 -16.910440
-44.571701 46.072460 -16.624544
-44.458115 46.064323 -16.902319
-44.515144 46.063450 -16.743210
-44.409985 46.054291 -17.003845
-44.408199 46.057087 -17.014936
-44.599277 46.067932 -16.515253
-44.417397 46.055660 -16.975660
-44.459450 46.060268 -16.866495
-44.388100 46.057575 -17.040514
-44.366730 46.054554 -17.085888
-44.404671 46.053444 -16.975155
-44.467850 46.059242 -16.815176
-44.498432 46.064407 -16.745497
-44.501591 46.066372 -16.740282
-44.417603 46.053909 -16.931948
-44.564735 46.066685 -16.562111
-44.566936 46.064892 -16.550114
-44.567688 46.063988 -16.545052
-44.381367 46.054546 -17.020891
-44.485058 46.061272 -16.743677
-44.367638 46.052814 -17.040302
-44.626091 46.076687 -16.399332
-44.546246 46.065205 -16.582943
-44.566101 46.075260 -16.540237
-44.494534 46.065746 -16.707737
-44.462662 46.058727 -16.774788
-44.378178 46.059219 -17.004770
-44.419796 46.060917 -16.893291
-44.418987 46.061069 -16.889788
-44.477863 46.068623 -16.747423
-44.549198 46.067993 -16.549891
-44.412647 46.060211 -16.898087
-44.414894 46.065819 -16.907495
-44.419552 46.065979 -16.892157
-44.519863 46.065838 -16.616848
-44.475521 46.065090 -16.735853
-44.377167 46.061611 -16.993725
-44.373100 46.061623 -17.001812
-44.552090 46.062889 -16.512508
-44.376396 46.055607 -16.960306
-44.418900 46.060062 -16.855579
-44.351433 46.061253 -17.025732
-44.369156 46.056976 -16.962940
-44.327782 46.055450 -17.068104
-44.459515 46.066063 -16.736271
-44.462963 46.068947 -16.733305
-44.382153 46.058441 -16.919762
-44.430183 46.063904 -16.803228
-44.527950 46.067463 -16.544069
-44.532745 46.071285 -16.540543
-44.530907 46.074993 -16.554821
-44.347614 46.060017 -17.007212
-44.451527 46.068584 -16.735428
-44.332184 46.055435 -17.024904
-44.507263 46.067776 -16.576900
-44.583260 46.079445 -16.395052
-44.518158 46.069206 -16.539343
-44.455132 46.065399 -16.699389
-44.341030 46.060898 -16.990870
-44.386265 46.066315 -16.881830
-44.425579 46.063320 -16.764128
-44.386749 46.068317 -16.880953
-44.512203 46.072426 -16.544603
-44.438950 46.070278 -16.738201
-44.374378 46.060875 -16.886965
-44.381348 46.067642 -16.881063
-44.436558 46.067657 -16.729818
-44.378517 46.070419 -16.894966
-44.522041 46.071926 -16.506639
-44.339325 46.063274 -16.981699
-44.334961 46.062370 -16.987535
-44.480793 46.070484 -16.608648
-44.383827 46.061531 -16.844591
-44.342300 46.061077 -16.947567
-44.336914 46.062313 -16.950895
-44.317047 46.065800 -17.010744
-44.421947 46.068653 -16.726490
-44.294746 46.060932 -17.052559
-44.424698 46.071526 -16.725399
-44.496269 46.074646 -16.536512
-44.495918 46.074638 -16.537449
-44.345585 46.060047 -16.907146
-44.490520 46.075630 -16.549314
-44.394100 46.069427 -16.792950
-44.313526 46.065487 -16.994476
-44.411144 46.067303 -16.726711
-44.300365 46.061771 -17.011955
-44.470047 46.072289 -16.569397
-44.421989 46.069645 -16.692341
-44.541233 46.080143 -16.391069
-44.486557 46.079300 -16.535036
-44.308445 46.066223 -16.979765
-44.349346 46.067913 -16.870155
-44.390289 46.066780 -16.754139
-44.350060 46.069839 -16.871498
-44.478481 46.078663 -16.539484
-44.486774 46.074230 -16.501993
-44.341789 46.066204 -16.875858
-44.402382 46.073799 -16.728802
-44.403133 46.072895 -16.723740
-44.343948 46.067238 -16.870266
-44.308659 46.069466 -16.971319
-44.340954 46.071095 -16.881977
-44.302013 46.065781 -16.974152
-44.350819 46.065857 -16.834391
-44.444000 46.075996 -16.600241
-44.309620 46.068481 -16.934303
-44.301151 46.061855 -16.938574
-44.388165 46.071972 -16.718134
-44.390568 46.074841 -16.717979
-44.280544 46.066490 -16.994951
-44.457394 46.075142 -16.532644
-44.462547 46.080879 -16.531397
-44.259243 46.062553 -17.037144
-44.454750 46.079002 -16.543417
-44.312424 46.065449 -16.894762
-44.353851 46.068230 -16.781084
-44.514736 46.072876 -16.352289
-44.278599 46.067032 -16.980343
-44.377499 46.072620 -16.718416
-44.268841 46.067116 -16.998047
-44.388142 46.071968 -16.683956
-44.429893 46.070934 -16.562906
-44.448746 46.081722 -16.531576
-44.496403 46.076965 -16.388159
-44.276794 46.071487 -16.969015
-44.313583 46.067459 -16.857836
-44.318695 46.076019 -16.862993
-44.443642 46.081970 -16.533937
-44.450111 46.074600 -16.497885
-44.357346 46.072105 -16.743973
-44.313175 46.075260 -16.866264
-44.370014 46.079052 -16.719917
-44.273548 46.069931 -16.960318
-44.370068 46.078140 -16.716730
-44.311592 46.072491 -16.861387
-44.307243 46.073498 -16.870441
-44.271774 46.072975 -16.962872
-44.315414 46.067318 -16.824354
-44.405609 46.076584 -16.592285
-44.276333 46.071884 -16.921864
-44.273540 46.071838 -16.929361
-44.360832 46.082882 -16.711163
-44.354740 46.075298 -16.708847
-44.422844 46.077457 -16.526134
-44.426949 46.083176 -16.527699
-44.253704 46.077480 -16.983894
-44.424007 46.086117 -16.536222
-44.233818 46.075478 -17.025558
-44.277660 46.065922 -16.882826
-44.484692 46.081917 -16.346432
-44.247303 46.072300 -16.968662
-44.322327 46.075489 -16.770391
-44.352501 46.085396 -16.711264
-44.356289 46.076153 -16.676331
-44.238956 46.074314 -16.985834
-44.491432 46.089012 -16.329771
-44.401558 46.080914 -16.555557
-44.414078 46.083954 -16.528225
-44.283783 46.072586 -16.847782
-44.421223 46.081581 -16.491383
-44.244442 46.074821 -16.956926
-44.284870 46.078339 -16.854622
-44.408394 46.084270 -16.529305
-44.465916 46.088078 -16.381079
-44.327324 46.079227 -16.734911
-44.338860 46.083248 -16.710421
-44.336525 46.081379 -16.710606
-44.243473 46.076050 -16.951233
-44.280182 46.079586 -16.856079
-44.283981 46.082478 -16.852175
-44.238228 46.072388 -16.950319
-44.278988 46.082558 -16.859917
-44.287537 46.073315 -16.815023
-44.371964 46.081902 -16.583998
-44.242691 46.075035 -16.918905
-44.246380 46.078091 -16.909624
-44.321835 46.077553 -16.700821
-44.395031 46.088276 -16.523260
-44.392685 46.084499 -16.520227
-44.329117 46.089062 -16.703602
-44.222054 46.080830 -16.969936
-44.391861 46.091297 -16.529562
-44.201462 46.076904 -17.010260
-44.254787 46.080643 -16.873278
-44.467014 46.088181 -16.306755
-44.452831 46.088020 -16.342020
-44.327702 46.082138 -16.668873
-44.222038 46.084148 -16.959272
-44.317677 46.086784 -16.702517
-44.292660 46.082619 -16.760401
-44.459087 46.093113 -16.326237
-44.205833 46.074730 -16.972382
-44.364552 46.079361 -16.549183
-44.378551 46.087246 -16.524565
-44.383961 46.077950 -16.488106
-44.254986 46.078648 -16.838110
-44.212540 46.076092 -16.946070
-44.253319 46.081528 -16.846043
-44.376896 46.090374 -16.523962
-44.431076 46.091389 -16.375542
-44.306602 46.086426 -16.703711
-44.292786 46.079628 -16.725201
-44.212631 46.079247 -16.940783
-44.448448 46.089027 -16.316898
-44.252430 46.085663 -16.843596
-44.254841 46.090439 -16.846657
-44.308556 46.091362 -16.702332
-44.259247 46.078304 -16.806604
-44.207092 46.074665 -16.937620
-44.248619 46.087757 -16.848587
-44.214184 46.080101 -16.908270
-44.336784 46.083290 -16.576189
-44.444145 46.094604 -16.306778
-44.293671 46.084541 -16.692461
-44.363743 46.090481 -16.513706
-44.293400 46.087444 -16.696644
-44.363121 46.093380 -16.518827
-44.214382 46.081432 -16.896608
-44.438023 46.090096 -16.302330
-44.356842 46.091610 -16.523945
-44.190987 46.084103 -16.957270
-44.225349 46.085773 -16.862297
-44.430813 46.088394 -16.307100
-44.299053 46.087124 -16.661390
-44.173855 46.084972 -16.997845
-44.188786 46.082569 -16.945763
-44.412018 46.083584 -16.339550
-44.289162 46.093769 -16.695093
-44.421188 46.090473 -16.324863
-44.259537 46.084949 -16.750164
-44.178738 46.081730 -16.961220
-44.357006 46.085796 -16.482338
-44.352718 46.098019 -16.519234
-44.336510 46.088352 -16.540880
-44.224689 46.086510 -16.838566
-44.187145 46.085945 -16.936626
-44.226257 46.085705 -16.828472
-44.348019 46.097355 -16.517473
-44.276398 46.092464 -16.697788
-44.186474 46.088093 -16.933184
-44.411129 46.086311 -16.316811
-44.265041 46.087620 -16.715937
-44.223221 46.090717 -16.834837
-44.234421 46.088089 -16.798441
-44.394840 46.092762 -16.370543
-44.278339 46.095490 -16.693192
-44.222656 46.092701 -16.836771
-44.183815 46.088379 -16.928989
-44.217838 46.091953 -16.838169
-44.187382 46.088020 -16.899361
-44.408234 46.093826 -16.306160
-44.266785 46.091469 -16.683514
-44.328598 46.088795 -16.508034
-44.306347 46.089409 -16.568047
-44.264824 46.093430 -16.689198
-44.331436 46.096489 -16.513405
-44.186359 46.088501 -16.885103
-44.330303 46.100456 -16.517273
-44.163250 46.090179 -16.944799
-44.272812 46.094978 -16.653757
-44.192394 46.085114 -16.851044
-44.398777 46.093414 -16.305828
-44.146191 46.092041 -16.985407
-44.385120 46.092430 -16.333813
-44.157181 46.082844 -16.933952
-44.392879 46.097385 -16.319658
-44.259663 46.099819 -16.687302
-44.331264 46.092583 -16.475956
-44.229683 46.089081 -16.740095
-44.318932 46.099182 -16.516220
-44.151714 46.089729 -16.950094
-44.198460 46.094357 -16.830940
-44.305592 46.092468 -16.533617
-44.197205 46.087772 -16.818693
-44.158234 46.090004 -16.926910
-44.317265 46.100399 -16.512400
-44.247414 46.097446 -16.691252
-44.154453 46.087364 -16.922281
-44.382473 46.093220 -16.312544
-44.192894 46.092846 -16.825649
-44.235828 46.092674 -16.707182
-44.202042 46.087357 -16.788471
-44.191616 46.092907 -16.826241
-44.248775 46.100544 -16.685373
-44.362221 46.095943 -16.364773
-44.241886 46.100258 -16.675325
-44.300941 46.094715 -16.500935
-44.240635 46.104141 -16.682350
