# .PCD v0.7 - Point Cloud Data file format
VERSION 0.7
FIELDS x y z
SIZE 4 4 4
TYPE F F F
COUNT 1 1 1
WIDTH 28
HEIGHT 1
VIEWPOINT 0 0 0 1
POINTS 28
DATA ascii
-0.006263 4.564784 2.909196
0.023072 4.552288 2.924725
0.053235 4.504270 2.913921
0.081891 4.465502 2.910695
0.110401 4.453677 2.927938
0.137190 4.427138 2.934537
0.262566 4.578536 3.009278
0.272112 4.576052 3.016076
0.288810 4.541564 3.013625
0.297250 4.514050 3.002166
0.338289 4.557501 3.027361
0.312377 4.474676 2.992539
0.322426 4.469898 3.001630
0.363961 4.486249 3.003085
0.339253 4.460422 3.014633
0.348969 4.441591 3.014685
0.396783 4.491313 3.042072
0.490517 4.606616 3.105280
0.417721 4.410515 3.009632
0.492339 4.571650 3.096877
0.479895 4.500161 3.049203
0.504911 4.493431 3.052298
0.508757 4.481810 3.063235
0.509422 4.489804 3.084099
0.539039 4.505307 3.103515
0.641181 4.503390 3.106439
0.665807 4.561526 3.146285
0.646411 4.513456 3.115847
