# .PCD v0.7 - Point Cloud Data file format
VERSION 0.7
FIELDS x y z
SIZE 4 4 4
TYPE F F F
COUNT 1 1 1
WIDTH 74
HEIGHT 1
VIEWPOINT 0 0 0 1
POINTS 74
DATA ascii
2.305325 11.802116 0.949555
2.175766 11.945088 1.336504
2.131988 11.940565 1.409910
2.333525 11.601201 0.933627
2.299966 11.638703 1.007317
2.167253 11.752522 1.374403
2.132042 11.776469 1.452429
2.177083 11.993987 1.278751
2.300218 11.399964 0.985682
2.265370 11.436724 1.060261
2.179743 11.881006 1.331581
2.160755 11.577834 1.409803
2.124943 11.608626 1.490404
2.171811 11.808650 1.328498
2.260855 11.295314 1.110462
2.320573 11.464553 0.939341
1.956139 11.878527 1.949692
1.912596 11.880968 2.023604
2.308141 11.387516 0.960716
2.169372 11.692659 1.371377
2.210077 11.873012 1.190901
2.145769 11.399552 1.441099
2.108897 11.436568 1.523090
2.163756 11.634831 1.372485
1.956327 11.959291 1.904458
2.307414 11.307047 0.996222
1.965265 11.717550 1.968508
1.918037 11.725630 2.045136
2.186007 11.835867 1.304064
1.963288 11.945876 1.928175
2.172603 11.538439 1.410893
2.202509 11.692286 1.243356
2.098871 11.284830 1.555510
2.145088 11.453659 1.411779
2.321077 11.393815 0.914733
2.256903 11.927069 1.047003
1.963064 11.799064 1.933936
1.963882 11.545545 1.981972
1.925121 11.588658 2.067430
2.180762 11.659071 1.348506
1.965366 11.768926 1.947080
2.149467 11.351316 1.443214
1.998343 11.895724 1.807664
2.209307 11.548601 1.294564
2.142559 11.311889 1.452123
2.317648 11.251994 0.970628
1.962082 11.636266 1.956784
2.255679 11.751006 1.108051
1.953007 11.371511 1.990061
1.912371 11.418829 2.077430
1.968306 11.605575 1.966154
2.181375 11.505298 1.391328
1.977136 11.853656 1.906237
2.206532 11.804250 1.279220
1.995396 11.715187 1.835425
2.177071 11.346804 1.336354
1.949268 11.458810 1.971603
2.252335 11.580750 1.165193
1.959785 11.431854 1.979046
2.158216 11.321107 1.427168
1.979850 11.686228 1.928345
2.194453 11.619491 1.326220
2.005690 11.572175 1.869717
2.040824 11.799958 1.710613
2.223515 11.379717 1.217066
1.980482 11.527489 1.950118
2.188308 11.456841 1.372061
1.979813 11.371785 1.884694
1.997411 11.767508 1.886266
2.040558 11.626831 1.746132
1.999571 11.607944 1.912933
1.803417 11.860302 2.347306
2.024557 11.436702 1.773856
1.983512 11.423322 1.929374
