# .PCD v0.7 - Point Cloud Data file format
VERSION 0.7
FIELDS x y z
SIZE 4 4 4
TYPE F F F
COUNT 1 1 1
WIDTH 64
HEIGHT 1
VIEWPOINT 0 0 0 1
POINTS 64
DATA ascii
2.293778 11.878446 0.876546
2.314996 11.770176 0.881945
2.310391 11.569744 1.000225
2.103600 11.818224 1.473363
2.124247 11.802243 1.446468
2.291513 11.386728 0.992885
2.275653 11.356082 1.055263
2.096605 11.633292 1.511626
2.124716 11.620867 1.480531
2.285224 11.225357 1.041563
2.321162 11.390213 0.926009
2.146700 11.721556 1.382592
2.084556 11.450290 1.545040
2.299963 11.361857 0.975733
2.140165 11.730030 1.444266
2.109691 11.422520 1.510487
2.178331 11.814357 1.236820
1.897374 11.748881 2.090255
1.862292 11.725974 2.125016
2.311250 11.228177 0.984280
2.145954 11.552343 1.427009
2.150949 11.852949 1.376217
2.079541 11.293818 1.579424
2.300250 11.212971 1.028703
2.111249 11.267639 1.541236
2.133966 11.541479 1.479821
1.909927 11.849066 2.002549
2.179604 11.636855 1.289026
2.316311 11.360624 0.936750
1.907519 11.584286 2.104455
1.871463 11.577369 2.144018
2.129639 11.364235 1.465796
1.905091 11.782207 2.062203
2.146753 11.657865 1.418634
2.120100 11.352638 1.512815
1.915477 11.679013 2.025858
2.231359 11.735254 1.144626
2.161240 11.432839 1.336223
1.864422 11.403647 2.154108
2.307263 11.196869 0.993840
1.892545 11.376508 2.103400
1.951758 11.813551 1.895378
2.172211 11.785131 1.349784
1.914958 11.617293 2.080106
2.144488 11.483997 1.458447
2.341129 11.358953 0.898718
1.900651 11.476960 2.037961
2.230168 11.554816 1.202001
2.155251 11.267180 1.381008
1.949165 11.621943 1.920703
2.162871 11.592827 1.395483
1.909510 11.430117 2.088063
2.128053 11.292941 1.493700
1.927552 11.675108 2.031922
1.994085 11.747216 1.787209
2.206146 11.344865 1.253028
1.942904 11.435740 1.941325
2.140677 11.384005 1.435707
1.930804 11.508480 2.050982
1.950327 11.740829 1.981260
1.995474 11.564997 1.819575
1.951863 11.566717 2.003282
1.989120 11.380567 1.847859
1.937270 11.371172 2.016972
