# .PCD v0.7 - Point Cloud Data file format
VERSION 0.7
FIELDS x y z
SIZE 4 4 4
TYPE F F F
COUNT 1 1 1
WIDTH 95
HEIGHT 1
VIEWPOINT 0 0 0 1
POINTS 95
DATA ascii
2.260961 12.061113 0.988138
2.248207 11.873487 1.043705
2.195889 11.890592 1.224026
2.213099 12.035675 1.171356
2.247345 11.720990 1.096276
2.298536 11.747522 0.971944
2.081322 11.944909 1.543997
2.224514 12.009800 1.138091
2.198061 11.730581 1.265836
2.162275 12.063346 1.283464
2.212467 11.861360 1.218481
2.122097 11.985401 1.419747
2.242724 11.570219 1.146056
2.287169 11.582003 1.028853
2.078091 11.778664 1.578552
2.221460 11.833249 1.189926
2.195577 11.572054 1.304493
2.013507 11.905604 1.790958
2.241881 11.982476 1.107437
2.203150 11.687946 1.261814
2.155072 11.876467 1.333104
2.123080 11.822904 1.463363
2.311373 11.270496 0.976470
2.216995 11.394138 1.190545
2.019310 11.983843 1.768993
2.201144 11.930761 1.197686
2.260440 11.403650 1.080043
2.064506 11.609147 1.607952
1.856128 11.964774 2.147321
2.208048 11.653437 1.236608
1.900084 12.046014 2.032357
2.166443 11.380807 1.337210
2.293691 11.412828 0.959336
2.016895 11.741451 1.813330
2.201829 11.536777 1.303755
2.114628 11.655477 1.500650
2.235991 11.802176 1.163266
2.147288 11.699388 1.377801
2.208964 11.256146 1.234939
2.021630 11.815387 1.794079
2.199701 11.759297 1.250459
2.031178 11.904079 1.750663
2.054430 11.452043 1.637024
1.936987 11.970109 1.930849
2.251377 11.262374 1.129146
1.861893 11.813422 2.163646
2.215540 11.520804 1.283026
1.902219 11.877331 2.052551
2.171872 11.255954 1.372694
2.281522 11.265504 1.014586
2.010055 11.570347 1.829912
2.093945 11.475553 1.532495
2.182840 11.363928 1.340506
2.043579 11.990985 1.698538
2.231444 11.640019 1.214884
2.151046 11.557946 1.422750
2.021762 11.654591 1.816837
2.028242 11.733425 1.776483
2.191422 11.588338 1.300618
2.058216 11.330789 1.668703
1.866812 11.672503 2.180719
1.942224 11.808505 1.957944
1.909752 11.733208 2.076230
2.186860 11.335037 1.322024
1.986223 11.892714 1.835403
1.993888 11.392536 1.841062
2.090867 11.338411 1.566869
2.049908 11.832774 1.734429
2.231837 11.496973 1.263741
2.124886 11.372663 1.457949
2.024124 11.505461 1.840169
2.021426 11.568172 1.800150
1.864224 11.523449 2.191549
2.167887 11.402775 1.345965
1.938132 11.640194 1.979612
1.911858 11.586637 2.095756
1.989091 11.727992 1.867673
2.046804 11.669626 1.763991
2.198471 11.307859 1.305555
2.006425 11.334282 1.853518
2.001019 11.389544 1.816837
1.864207 11.390360 2.204764
1.827047 11.940718 2.331531
2.158475 11.252425 1.388218
1.921679 11.460135 1.992949
1.899985 11.423262 2.106037
1.990978 11.574465 1.897799
2.045877 11.519034 1.793673
2.010809 11.271554 1.845307
1.829089 11.775760 2.341385
1.932355 11.342411 2.021770
2.024477 11.344875 1.812660
1.969533 11.387770 1.914147
1.831565 11.621972 2.351104
1.806828 11.425915 2.340688
