# .PCD v0.7 - Point Cloud Data file format
VERSION 0.7
FIELDS x y z
SIZE 4 4 4
TYPE F F F
COUNT 1 1 1
WIDTH 20
HEIGHT 1
VIEWPOINT 0 0 0 1
POINTS 20
DATA ascii
2.750713 0.993146 4.005268
2.735056 0.936016 4.006739
2.719433 0.879493 4.010144
2.689763 0.820352 3.997670
2.749806 0.836533 4.018388
2.764530 0.788267 4.022274
2.714976 0.774275 4.011194
2.719899 0.724605 4.004037
2.770752 0.503871 4.037652
2.725112 0.445740 4.023008
2.772488 0.274901 4.025983
2.767293 0.214845 4.050739
2.796490 0.505626 4.041369
2.739171 0.464260 4.022414
2.740175 0.444619 4.022470
2.832125 0.278843 4.054151
2.784314 0.219936 4.048286
2.795869 0.033435 4.056427
2.829636 0.026819 4.066615
2.765939 -0.029352 4.054816
