# .PCD v0.7 - Point Cloud Data file format
VERSION 0.7
FIELDS x y z
SIZE 4 4 4
TYPE F F F
COUNT 1 1 1
WIDTH 272
HEIGHT 1
VIEWPOINT 0 0 0 1
POINTS 272
DATA ascii
2.279366 12.230844 1.119632
2.229062 12.199319 1.285118
2.330444 12.239852 0.958030
2.269606 12.097870 1.159645
2.134032 12.294241 1.558701
2.368152 12.001912 0.935359
2.266466 12.235159 1.151080
2.185738 12.293345 1.357355
2.227855 12.077473 1.322140
2.056176 12.268065 1.769347
2.320860 12.106165 1.004197
2.274908 11.991850 1.200167
2.142833 12.182151 1.589228
2.358045 11.881368 0.981967
2.115476 12.321033 1.572000
2.256764 12.102845 1.187429
1.961741 12.307285 2.059352
2.189702 12.175419 1.392723
2.224637 11.958056 1.357385
2.055930 12.141145 1.793785
2.292964 12.213114 1.074428
2.313132 11.984444 1.047640
2.013094 12.333213 1.847272
2.133626 12.052409 1.613271
2.272667 11.881694 1.236816
2.260767 12.240067 1.183049
2.347974 11.766958 1.025049
2.130771 12.217250 1.600873
2.373989 11.709337 0.960559
2.107461 12.354932 1.588116
2.264740 12.001705 1.223711
1.972276 12.198524 2.076636
1.932755 12.354821 2.069283
2.358355 11.982534 0.865834
2.189297 12.058104 1.424865
2.163517 12.267572 1.466037
2.292506 12.098092 1.114862
2.219891 11.843422 1.391289
2.358100 12.006308 0.933844
2.060859 12.028167 1.817288
2.311349 11.875073 1.088794
2.137883 11.949175 1.639590
2.018785 12.214069 1.868868
2.269826 11.776501 1.272444
2.254354 12.112232 1.216740
2.366276 11.806665 0.965723
2.341761 11.662108 1.067203
2.113086 12.074074 1.619647
2.373554 11.613468 1.002804
2.116557 12.241364 1.612419
2.260064 11.886127 1.257999
1.974918 12.085958 2.090924
1.952877 12.258467 2.089240
2.246848 12.244205 1.195700
2.350837 12.119637 0.922557
2.163277 12.149051 1.495253
2.189222 11.945936 1.456312
2.344124 12.103950 0.935114
2.289256 11.982548 1.154344
2.358512 11.897871 0.974406
2.258271 12.206280 1.180811
2.220451 11.739971 1.425397
2.304828 11.766652 1.127585
2.398551 11.467614 0.878997
2.063619 11.918805 1.841944
2.140795 11.847039 1.666089
2.258922 12.006406 1.249958
2.027711 12.107859 1.892568
2.264943 11.674643 1.305916
2.358905 11.701676 1.005116
2.325878 11.551252 1.106470
2.126822 11.980551 1.647349
1.989805 12.279826 1.949074
2.360860 11.511899 1.043248
2.113238 12.115776 1.632716
1.935843 12.315643 2.102751
2.258231 11.781760 1.290272
1.962719 12.151956 2.104211
1.976495 11.975988 2.103763
2.371965 11.791920 0.951349
2.248275 12.123605 1.227589
2.346563 12.004162 0.965028
2.396245 11.599418 0.933004
2.348285 11.997792 0.972899
2.110083 12.285706 1.608967
2.161603 12.033471 1.523887
2.184134 11.833218 1.487025
2.287404 11.876593 1.190679
2.260805 12.096727 1.215770
2.344858 11.782447 1.012901
2.130307 12.249159 1.564920
2.302534 11.667449 1.164580
2.208973 11.628704 1.455164
2.058246 11.805697 1.861164
2.137015 11.742781 1.688282
2.252046 11.887823 1.279875
2.025795 11.990974 1.910090
2.250483 11.564939 1.337264
2.346564 11.595216 1.044153
1.871923 11.980944 2.330154
1.991406 12.162787 1.965817
2.131675 11.879418 1.670814
2.327234 11.463733 1.145087
2.352804 11.418287 1.081407
2.124396 12.015044 1.656378
1.951957 12.215007 2.118083
1.926903 12.400226 2.105525
2.249060 11.674111 1.320733
1.971945 11.864418 2.113486
1.965857 12.038784 2.114346
1.946376 12.345114 2.024519
2.367199 11.691163 0.990198
2.248043 12.010543 1.256991
2.341493 11.892792 1.004420
2.340695 11.882834 1.009159
2.129462 12.189355 1.634387
2.163894 11.930147 1.552887
2.379618 11.494692 0.974171
2.282111 11.771429 1.224106
2.184540 11.735014 1.515549
2.252605 11.976720 1.250292
2.115998 12.111584 1.586403
2.338579 11.676456 1.049705
2.398522 11.422486 0.885800
2.294665 11.567168 1.199647
2.203595 11.531553 1.484312
2.252666 11.785910 1.309927
2.137338 11.648013 1.711983
2.023800 11.880490 1.927400
2.060185 11.705914 1.882910
2.249364 11.474497 1.369058
2.342439 11.500207 1.081060
1.999861 12.061254 1.985192
1.885060 11.890117 2.348529
2.129603 11.773744 1.691982
2.306381 11.358446 1.180095
2.123568 11.905568 1.676079
1.956805 12.100413 2.127191
1.939913 12.286389 2.115471
1.958714 12.243090 2.042249
1.976259 11.770488 2.128162
1.964828 11.927077 2.123307
2.237893 11.568879 1.349418
2.249479 11.901552 1.285533
2.334380 11.784759 1.041654
2.363733 11.594814 1.029052
2.394426 11.547506 0.939364
2.330269 11.768273 1.044083
2.112926 12.046734 1.646522
2.162275 11.825252 1.578552
2.394108 11.372632 0.951059
2.383229 11.411736 1.013120
2.251705 11.872524 1.282894
2.174767 11.629359 1.540376
2.276869 11.669909 1.258462
2.131201 12.024220 1.615785
2.338203 11.583726 1.083834
2.388975 11.331148 0.927063
2.287492 11.471692 1.233145
2.252733 11.688035 1.339336
2.125199 11.542151 1.731292
2.201609 11.441590 1.512100
2.023172 11.778029 1.945629
2.251226 11.392497 1.399977
2.053712 11.600884 1.900846
2.340775 11.412204 1.116283
1.995668 11.947756 1.998121
2.126011 11.672840 1.711802
2.130977 11.809602 1.698631
1.957935 12.126737 2.053106
1.960136 11.990592 2.134953
1.948757 12.174018 2.124246
1.959440 11.815972 2.129038
1.977270 11.674588 2.141073
2.236903 11.478158 1.377913
2.325270 11.679141 1.077113
2.249436 11.796419 1.313109
2.345730 11.489118 1.065405
2.384474 11.632876 0.957559
2.122978 11.949511 1.668358
2.327601 11.667343 1.076982
2.159694 11.725651 1.604058
2.247321 11.770035 1.312204
2.125663 11.913179 1.637560
2.389730 11.430856 0.968386
2.269070 11.570282 1.289849
2.166254 11.529029 1.564826
2.327930 11.482566 1.117084
2.239929 11.580317 1.364838
2.291011 11.392164 1.267262
2.125673 11.456216 1.752779
2.020552 11.677979 1.962081
2.052699 11.508803 1.920658
1.993768 11.842464 2.012292
2.124606 11.577443 1.731569
1.959038 12.019850 2.065689
2.126724 11.705474 1.715971
1.955429 11.875182 2.138038
1.949974 12.054799 2.127860
1.969202 11.730448 2.145060
1.974546 11.583423 2.152852
2.247825 11.696977 1.338955
2.243030 11.399893 1.406874
2.317415 11.578853 1.112193
2.348997 11.408072 1.101158
2.377107 11.534943 0.993077
2.130096 11.849978 1.687564
2.326145 11.572658 1.109122
2.150424 11.623924 1.625253
2.243873 11.672291 1.342384
2.127432 11.815467 1.661862
2.261925 11.476373 1.319286
2.170070 11.447132 1.593084
2.340281 11.409514 1.150103
2.232799 11.483438 1.389673
2.019753 11.583773 1.979346
1.995044 11.746480 2.027646
2.065183 11.435274 1.947041
2.115264 11.479156 1.747948
1.960991 11.919541 2.078381
2.123688 11.607585 1.732552
1.959774 11.778277 2.148133
1.952602 11.942686 2.132775
1.968966 11.636267 2.154461
1.980194 11.502997 2.168622
2.237481 11.591704 1.362234
2.317686 11.491848 1.144379
2.374335 11.445882 1.025929
2.129322 11.746634 1.703767
2.318602 11.475450 1.138521
2.147476 11.531718 1.647736
2.126560 11.721477 1.682431
2.235265 11.572210 1.370149
2.265515 11.397494 1.349722
2.239099 11.403975 1.415719
2.017480 11.493414 1.995641
1.995772 11.654528 2.042355
2.123833 11.404932 1.770609
1.956348 11.815269 2.087524
2.119780 11.513150 1.749734
1.965016 11.687028 2.158716
1.961913 11.847269 2.143244
1.969713 11.545905 2.165112
2.236106 11.499263 1.386629
2.326411 11.416229 1.176872
2.124380 11.644753 1.718790
2.326620 11.397530 1.168151
2.118811 11.622024 1.701081
2.143611 11.443884 1.670439
2.229593 11.481493 1.396656
1.995630 11.566026 2.057665
2.007166 11.397468 2.007254
1.962373 11.729921 2.101885
2.111040 11.416957 1.763252
1.964589 11.591998 2.166075
1.959831 11.740650 2.146339
1.976569 11.467171 2.179591
2.230090 11.405923 1.409416
2.116929 11.534264 1.721120
2.119344 11.544731 1.733065
2.235023 11.405465 1.423296
1.996751 11.482840 2.072594
1.964730 11.642940 2.115344
1.969711 11.508073 2.176072
1.963444 11.646924 2.153749
2.118721 11.452712 1.742618
2.119809 11.456739 1.749597
1.966025 11.558544 2.127346
1.976892 11.429928 2.189318
1.969439 11.559560 2.163161
1.969702 11.480508 2.141348
1.974007 11.475120 2.171983
