# .PCD v0.7 - Point Cloud Data file format
VERSION 0.7
FIELDS x y z
SIZE 4 4 4
TYPE F F F
COUNT 1 1 1
WIDTH 181
HEIGHT 1
VIEWPOINT 0 0 0 1
POINTS 181
DATA ascii
-1.562678 6.541990 1.090569
-1.582032 6.576818 1.094141
-1.551403 6.596936 0.998216
-1.597377 6.601273 1.134560
-1.561191 6.609801 1.052693
-1.562764 6.617432 1.095612
-1.571350 6.640965 1.096440
-1.569815 6.700704 0.996950
-1.593789 6.642052 1.178690
-1.464438 6.573678 0.783442
-1.619775 6.703753 1.142701
-1.588730 6.720593 1.054492
-1.397917 6.566386 0.656484
-1.386171 6.599346 0.551166
-1.395880 6.592488 0.590283
-1.604452 6.745296 1.100678
-1.408905 6.597105 0.615366
-1.600223 6.751976 1.098663
-1.631788 6.760093 1.183977
-1.385466 6.638998 0.577384
-1.566497 6.785404 0.998396
-1.415533 6.605553 0.641991
-1.459349 6.645553 0.780627
-1.613633 6.777455 1.151703
-1.579466 6.795361 1.058576
-1.396402 6.652718 0.649019
-1.538452 6.799049 0.937789
-1.379760 6.685148 0.542820
-1.574536 6.819621 1.021277
-1.398534 6.688118 0.581368
-1.605990 6.830433 1.107897
-1.409891 6.688429 0.609226
-1.601329 6.837707 1.102210
-1.645129 6.853695 1.189829
-1.570868 6.880578 1.000895
-1.393906 6.750084 0.563448
-1.415279 6.692937 0.639449
-1.472171 6.744431 0.773508
-1.261318 6.622637 0.246863
-1.277594 6.611312 0.270092
-1.270085 6.645088 0.278336
-1.623741 6.872893 1.162020
-1.593282 6.901610 1.063381
-1.425601 6.785772 0.631565
-1.263199 6.669766 0.209206
-1.546884 6.907208 0.937250
-1.398880 6.812191 0.524751
-1.312323 6.655602 0.409060
-1.236050 6.688617 0.173694
-1.619415 6.934436 1.115110
-1.575403 6.912662 1.024101
-1.413492 6.804896 0.567590
-1.421030 6.798068 0.599378
-1.611826 6.936338 1.107274
-1.653188 6.944529 1.197200
-1.450984 6.823468 0.697224
-1.434581 6.812547 0.629429
-1.578009 6.986635 1.003160
-1.476630 6.838772 0.769068
-1.394861 6.857401 0.551396
-1.270244 6.699101 0.258909
-1.262456 6.726398 0.226625
-1.287840 6.776675 0.245633
-1.643083 6.985796 1.174317
-1.605168 7.011787 1.069836
-1.424946 6.886946 0.623073
-1.268021 6.785259 0.183055
-1.332094 6.778547 0.384007
-1.549583 7.013151 0.937006
-1.183419 6.660400 0.075257
-1.393329 6.912837 0.515379
-1.631307 7.043656 1.124412
-1.253949 6.830708 0.135030
-1.251349 6.819710 0.165448
-1.589805 7.028832 1.026598
-1.403803 6.894356 0.562913
-1.661996 7.039770 1.204640
-1.417856 6.893231 0.594861
-1.619912 7.040371 1.112373
-1.150425 6.670322 -0.064586
-1.452147 6.923386 0.690777
-1.148111 6.736333 -0.106024
-1.303378 6.829303 0.306051
-1.481794 6.939348 0.763888
-1.429275 6.903909 0.628891
-1.585438 7.097599 1.006700
-1.149801 6.759651 -0.130639
-1.398572 6.976497 0.538700
-1.285850 6.826820 0.232630
-1.274471 6.854737 0.199494
-1.657614 7.096321 1.186486
-1.275319 6.874031 0.229179
-1.613548 7.120720 1.076193
-1.327219 6.874108 0.370470
-1.261081 6.890324 0.163918
-1.430512 7.003863 0.612796
-1.198146 6.792147 0.033105
-1.564042 7.142486 0.937184
-1.397029 7.032825 0.502264
-1.678744 7.152235 1.213575
-1.641811 7.155343 1.134477
-1.170101 6.825672 -0.054444
-1.599310 7.145334 1.030190
-1.410625 7.014238 0.551861
-1.629664 7.148599 1.119530
-1.420940 7.003218 0.588930
-1.247248 6.943522 0.111088
-1.159018 6.797591 -0.104030
-1.247145 6.938489 0.139984
-1.459592 7.037210 0.683318
-1.296142 6.929371 0.290488
-1.146126 6.859028 -0.145259
-1.488558 7.045965 0.759992
-1.440123 7.022579 0.622358
-1.602047 7.228765 1.010988
-1.148699 6.882154 -0.167826
-1.290967 6.946188 0.213000
-1.275198 6.972151 0.178150
-1.404596 7.107922 0.524113
-1.673265 7.213413 1.201168
-1.277609 6.999433 0.203471
-1.627245 7.244609 1.084009
-1.328653 6.982713 0.353904
-1.197650 6.908559 0.001951
-1.435008 7.126390 0.602959
-1.689414 7.259357 1.223166
-1.261537 7.016928 0.138611
-1.647439 7.265553 1.146484
-1.577805 7.279641 0.937836
-1.402181 7.163464 0.488472
-1.168531 6.948692 -0.090415
-1.642591 7.268996 1.126878
-1.615925 7.276499 1.034469
-1.432748 7.134013 0.580117
-1.165201 6.930244 -0.143442
-1.415919 7.139328 0.542887
-1.462077 7.152310 0.676615
-1.249632 7.081262 0.078615
-1.246931 7.072995 0.110285
-1.305325 7.062682 0.264968
-1.499819 7.165925 0.753874
-1.449071 7.144250 0.617868
-1.620930 7.372242 1.015864
-1.286903 7.058406 0.197631
-1.691218 7.341900 1.216832
-1.272613 7.095104 0.157233
-1.412521 7.249443 0.510083
-1.334077 7.107049 0.333101
-1.280944 7.134196 0.176669
-1.647075 7.385110 1.094559
-1.198246 7.033453 -0.032348
-1.448230 7.269719 0.590240
-1.266486 7.157823 0.108242
-1.680120 7.421978 1.160267
-1.670661 7.417661 1.135605
-1.166248 7.080484 -0.128736
-1.410426 7.309020 0.473682
-1.444754 7.272480 0.571397
-1.584916 7.414687 0.941621
-1.631336 7.416922 1.040062
-1.472494 7.284683 0.669012
-1.432912 7.290664 0.528287
-1.255477 7.237076 0.042338
-1.312947 7.203072 0.238289
-1.510803 7.294074 0.749072
-1.256150 7.235545 0.071692
-1.460266 7.279151 0.613570
-1.295780 7.200807 0.173033
-1.285941 7.253681 0.124345
-1.346096 7.249391 0.308128
-1.425611 7.411468 0.492709
-1.288562 7.289646 0.144475
-1.196832 7.165020 -0.066186
-1.274022 7.316019 0.074863
-1.316412 7.347306 0.213225
-1.255807 7.397426 0.006852
-1.257336 7.396633 0.037856
-1.306897 7.357385 0.145785
-1.292166 7.409735 0.096213
-1.353956 7.395575 0.284772
-1.198447 7.315252 -0.107497
