# .PCD v0.7 - Point Cloud Data file format
VERSION 0.7
FIELDS x y z
SIZE 4 4 4
TYPE F F F
COUNT 1 1 1
WIDTH 13
HEIGHT 1
VIEWPOINT 0 0 0 1
POINTS 13
DATA ascii
-0.324544 13.639910 2.521050
-0.345070 13.657877 2.516408
-0.291491 13.643404 2.537646
-0.343082 13.594378 2.510210
-0.027934 13.720451 2.612569
0.025660 13.705712 2.645694
0.118544 13.752298 2.667732
0.172441 13.721727 2.697014
0.018919 13.792417 2.641647
0.109716 13.755797 2.668669
0.071823 13.737326 2.654805
0.163215 13.734694 2.699698
0.122883 13.712570 2.682708
