# .PCD v0.7 - Point Cloud Data file format
VERSION 0.7
FIELDS x y z
SIZE 4 4 4
TYPE F F F
COUNT 1 1 1
WIDTH 22
HEIGHT 1
VIEWPOINT 0 0 0 1
POINTS 22
DATA ascii
-0.368231 13.493116 2.483861
-0.315448 13.453147 2.494138
-0.266085 13.426920 2.511311
-0.216254 13.474332 2.539683
-0.218058 13.398117 2.527747
-0.166142 13.429214 2.548483
-0.171246 13.374019 2.547574
-0.118957 13.395666 2.564125
-0.126321 13.375346 2.580802
-0.073682 13.384812 2.591925
-0.051845 13.450402 2.577166
-0.006391 13.414627 2.592927
-0.058604 13.496344 2.603007
0.037549 13.394825 2.617902
0.194195 13.418397 2.660423
-0.008945 13.437607 2.600744
0.234183 13.427058 2.676596
0.081639 13.385042 2.648247
0.239612 13.397903 2.693428
0.038406 13.401916 2.611478
0.085705 13.392064 2.636283
0.132057 13.397827 2.671882
