# .PCD v0.7 - Point Cloud Data file format
VERSION 0.7
FIELDS x y z
SIZE 4 4 4
TYPE F F F
COUNT 1 1 1
WIDTH 454
HEIGHT 1
VIEWPOINT 0 0 0 1
POINTS 454
DATA ascii
-1.553197 5.439899 1.149170
-1.550396 5.406084 1.177847
-1.488096 5.420826 0.993914
-1.543499 5.481265 1.144951
-1.560670 5.458839 1.175678
-1.509110 5.419543 1.047236
-1.563988 5.423157 1.193776
-1.451305 5.439081 0.872182
-1.489460 5.474299 0.986313
-1.586764 5.563093 1.141722
-1.448252 5.394620 0.895914
-1.524753 5.420208 1.095242
-1.555689 5.503465 1.173726
-1.510153 5.469751 1.042355
-1.567649 5.473719 1.192218
-1.543096 5.419303 1.147336
-1.381224 5.431138 0.709959
-1.440550 5.483372 0.867268
-1.494134 5.532662 0.979800
-1.578185 5.608298 1.138925
-1.453581 5.448782 0.889646
-1.450405 5.401550 0.903874
-1.529356 5.470753 1.090846
-1.595075 5.581686 1.172734
-1.575118 5.527655 1.193328
-1.517149 5.526353 1.036627
-1.546052 5.466354 1.145219
-1.398668 5.430583 0.759976
-1.475020 5.565184 0.854096
-1.381528 5.488572 0.698850
-1.520224 5.610549 0.971219
-1.297811 5.421535 0.520470
-1.582426 5.665133 1.136847
-1.453619 5.500975 0.884437
-1.459665 5.457334 0.898563
-1.522633 5.514795 1.087624
-1.456197 5.416606 0.910205
-1.586047 5.626430 1.171550
-1.411607 5.432788 0.803909
-1.598467 5.595073 1.194060
-1.553765 5.516766 1.142923
-1.546018 5.601899 1.030038
-1.401296 5.486254 0.749651
-1.597571 5.562205 1.214244
-1.277367 5.449984 0.428106
-1.473611 5.619925 0.847349
-1.300115 5.414044 0.535600
-1.370508 5.538464 0.691733
-1.295992 5.477098 0.507626
-1.580548 5.719295 1.134151
-1.431178 5.436087 0.850064
-1.512665 5.662517 0.966290
-1.479910 5.575233 0.874897
-1.540430 5.578247 1.084422
-1.464832 5.514180 0.893641
-1.457107 5.468575 0.907045
-1.591493 5.685253 1.171623
-1.414737 5.486943 0.795166
-1.604039 5.651099 1.195241
-1.531685 5.645723 1.027100
-1.400285 5.542407 0.740928
-1.597523 5.614058 1.216374
-1.204697 5.439831 0.263336
-1.308247 5.411222 0.537553
-1.294732 5.401608 0.544681
-1.295203 5.458463 0.478916
-1.277108 5.510899 0.412254
-1.465133 5.672013 0.842829
-1.295695 5.467176 0.525062
-1.433572 5.486624 0.843200
-1.588060 5.781940 1.132801
-1.399459 5.625045 0.672151
-1.297478 5.538590 0.493055
-1.552523 5.639372 1.081442
-1.479331 5.630678 0.869832
-1.513953 5.725420 0.960758
-1.480294 5.580430 0.886850
-1.487248 5.545294 0.900531
-1.590904 5.739533 1.171820
-1.203880 5.410885 0.290187
-1.577384 5.631680 1.140311
-1.419481 5.544470 0.786601
-1.325688 5.421329 0.581909
-1.049358 5.352741 0.258605
-1.292117 5.397523 0.550085
-1.537860 5.709195 1.022490
-1.202637 5.427775 0.234882
-1.415604 5.613530 0.727405
-1.310398 5.468517 0.523218
-1.297755 5.458674 0.532395
-1.200490 5.500166 0.243725
-1.295900 5.518320 0.463037
-1.472903 5.739896 0.835587
-1.434520 5.538684 0.837609
-1.300655 5.530875 0.510236
-1.587635 5.842158 1.131629
-1.027082 5.363585 0.119723
-1.555066 5.694685 1.078469
-1.286772 5.591733 0.483245
-1.476026 5.686482 0.865971
-1.399393 5.689802 0.660559
-1.485259 5.640879 0.882912
-1.518139 5.792855 0.955478
-1.481094 5.594590 0.899607
-1.577951 5.681282 1.139514
-1.210134 5.477943 0.267360
-1.437909 5.615470 0.775169
-1.330949 5.478496 0.569668
-1.300805 5.457834 0.537218
-1.535398 5.765691 1.020309
-1.175075 5.533137 0.138829
-1.200620 5.489151 0.214947
-1.218222 5.445813 0.282800
-1.315029 5.529994 0.508295
-1.419558 5.678043 0.717506
-1.301437 5.520170 0.520316
-1.196615 5.562707 0.224226
-1.079818 5.465589 -0.047930
-1.314986 5.598027 0.438107
-1.457834 5.610251 0.827102
-1.209855 5.450668 0.284902
-1.473730 5.803360 0.828867
-1.007184 5.337156 0.127555
-1.295616 5.587261 0.499845
-1.592341 5.907014 1.130752
-1.294595 5.661993 0.365375
-0.941974 5.349092 -0.016810
-1.563857 5.758496 1.077196
-1.113477 5.511719 0.012631
-1.483347 5.753904 0.860341
-1.311690 5.680614 0.456362
-1.484934 5.699358 0.880036
-1.403006 5.761768 0.647713
-1.517035 5.858319 0.951261
-1.585218 5.739845 1.138808
-1.483374 5.654472 0.897238
-1.209870 5.427539 0.299367
-1.203785 5.535255 0.251273
-1.011560 5.363461 0.154894
-1.444142 5.679155 0.765683
-1.334802 5.537292 0.556254
-1.302797 5.516774 0.527048
-1.239208 5.463880 0.330417
-1.542239 5.833575 1.015918
-1.124632 5.422157 0.097098
-1.189111 5.619227 0.100622
-1.215842 5.504859 0.265216
-1.203681 5.558181 0.189305
-1.332927 5.605627 0.486852
-1.415656 5.738261 0.708527
-1.300740 5.579573 0.508903
-1.454319 5.662076 0.821442
-1.217608 5.653194 0.185507
-1.310228 5.658593 0.424639
-1.098739 5.557562 -0.101736
-1.209625 5.511688 0.266623
-1.476502 5.872412 0.822428
-1.062276 5.336047 0.225947
-1.124556 5.510401 -0.006554
-1.561445 5.814050 1.075393
-1.320166 5.673818 0.475310
-1.601062 5.980256 1.131534
-1.018879 5.351608 0.177717
-1.291643 5.731987 0.348263
-1.482815 5.817031 0.855631
-1.485852 5.759923 0.876871
-1.111094 5.583667 -0.018685
-1.305404 5.744563 0.443431
-1.588519 5.796669 1.139605
-0.954826 5.363192 0.018639
-1.075697 5.417278 -0.035133
-1.398769 5.828398 0.638606
-1.486940 5.715505 0.894950
-1.517504 5.928084 0.946857
-1.212703 5.489373 0.282807
-0.974414 5.332964 0.062147
-0.937198 5.360503 -0.040624
-1.351096 5.608500 0.537457
-1.439052 5.735302 0.760189
-1.057914 5.479350 -0.123840
-1.204539 5.603956 0.230489
-1.124226 5.537920 0.029753
-1.237333 5.521406 0.314414
-1.301647 5.575719 0.517243
-1.544205 5.899841 1.013430
-1.009139 5.376703 0.170844
-1.328715 5.663741 0.475335
-1.464946 5.726789 0.814125
-1.214342 5.638117 0.157729
-1.181373 5.687943 0.078075
-1.030977 5.354969 0.189423
-1.327029 5.666714 0.485648
-1.420605 5.809405 0.698948
-1.207324 5.717499 0.168450
-1.307452 5.724854 0.409007
-1.203197 5.569821 0.252622
-1.105346 5.641896 -0.146253
-1.035023 5.367145 0.227604
-1.476506 5.942753 0.816826
-1.563583 5.876585 1.074380
-1.312732 5.732765 0.466236
-1.619007 6.065700 1.132187
-1.135681 5.524073 0.052556
-1.587936 5.850929 1.139826
-1.485594 5.885040 0.852013
-0.988710 5.340816 0.087568
-1.285551 5.801985 0.331520
-1.489997 5.827240 0.874057
-0.979615 5.335274 0.061023
-1.120730 5.669737 -0.061849
-1.305815 5.818502 0.427782
-1.034625 5.443211 -0.023291
-1.074463 5.552648 -0.140058
-0.993197 5.350004 0.110101
-1.495057 5.783517 0.893454
-1.399079 5.903043 0.627477
-1.350448 5.666948 0.526424
-0.989149 5.409047 -0.036547
-1.525916 6.008891 0.942252
-1.214543 5.553185 0.265917
-1.442934 5.800615 0.752386
-1.085641 5.505628 -0.078214
-1.069927 5.564940 -0.173937
-1.215125 5.684707 0.200997
-1.261236 5.605726 0.281605
-1.334017 5.666454 0.494246
-1.546920 5.968663 1.011891
-1.129117 5.557884 0.042847
-1.329502 5.730337 0.460186
-1.455606 5.778047 0.810403
-1.229295 5.648585 0.213906
-1.201166 5.696841 0.143249
-1.130852 5.509493 0.086097
-1.320010 5.726015 0.477414
-1.181690 5.768019 0.047990
-1.427951 5.886590 0.688043
-1.162124 5.547975 0.103381
-1.226348 5.660200 0.218845
-1.207696 5.795597 0.141551
-1.568662 5.942718 1.073989
-1.312196 5.802849 0.389518
-1.484079 6.022848 0.810553
-1.313272 5.803906 0.451696
-1.618929 6.135686 1.133931
-1.596617 5.916469 1.140283
-1.127186 5.660177 -0.074102
-1.148594 5.606307 0.012953
-1.487424 5.954086 0.848431
-1.096025 5.506652 -0.039667
-1.493607 5.895947 0.872117
-1.081341 5.497044 -0.067705
-1.281028 5.876276 0.314589
-1.085260 5.563889 -0.105983
-1.303992 5.892314 0.412099
-1.111292 5.526850 -0.025883
-1.496229 5.847108 0.892475
-1.113216 5.744601 -0.090649
-1.353017 5.733187 0.512921
-1.435527 5.858499 0.746126
-1.405587 5.988142 0.614865
-1.238147 5.642986 0.233341
-1.067929 5.560183 -0.154246
-1.540074 6.099692 0.937771
-1.085109 5.576390 -0.109949
-1.252618 5.662797 0.267937
-1.131077 5.692451 -0.037109
-1.212979 5.757475 0.179948
-1.323524 5.722511 0.489080
-1.558437 6.049337 1.009375
-1.465525 5.847878 0.802485
-1.143096 5.644897 0.004284
-1.326687 5.796477 0.447006
-1.221326 5.711129 0.197629
-1.141165 5.587218 0.054424
-1.319264 5.794956 0.465613
-1.203260 5.776564 0.114808
-1.426609 5.957738 0.679191
-1.175713 5.847074 0.021440
-1.178052 5.631948 0.065123
-1.585518 6.023384 1.073598
-1.217882 5.723218 0.203807
-1.598760 5.977949 1.142090
-1.308296 5.872831 0.375268
-1.199171 5.870245 0.120489
-1.492221 6.109231 0.803744
-1.631000 6.221486 1.136147
-1.312726 5.877851 0.438895
-1.147906 5.678706 -0.014626
-1.123172 5.737355 -0.105608
-1.488626 6.026409 0.844984
-1.094713 5.573706 -0.067079
-1.494935 5.965482 0.869772
-1.089890 5.576275 -0.106281
-1.350831 5.795018 0.502427
-1.498513 5.914557 0.892912
-1.094459 5.649620 -0.149983
-1.299761 5.968711 0.397722
-1.279631 5.960227 0.294455
-1.106887 5.823523 -0.122921
-1.437334 5.928604 0.739731
-1.227664 5.700199 0.222926
-1.404605 6.070244 0.603645
-1.539177 6.177724 0.935361
-1.246885 5.725452 0.251705
-1.212852 5.835006 0.157106
-1.126249 5.766843 -0.064655
-1.324143 5.790756 0.478093
-1.462835 5.909022 0.798490
-1.557755 6.122717 1.008805
-1.326760 5.868194 0.431263
-1.133693 5.710124 -0.015973
-1.226114 5.790381 0.170442
-1.149614 5.666108 0.023192
-1.321864 5.868891 0.452459
-1.201713 5.856769 0.087976
-1.433573 6.042258 0.667793
-1.619967 6.060585 1.143496
-1.172708 5.697036 0.044106
-1.588110 6.093953 1.073776
-1.169564 5.929848 -0.006571
-1.214826 5.795070 0.185982
-1.308356 5.954215 0.356682
-1.492140 6.189001 0.800208
-1.633069 6.301026 1.139984
-1.198203 5.956728 0.093131
-1.138455 5.745899 -0.038063
-1.312014 5.955519 0.424632
-1.108261 5.661406 -0.109284
-1.494667 6.108853 0.842064
-1.120310 5.819520 -0.140950
-1.497011 6.037572 0.868378
-1.346327 5.858600 0.491163
-1.120385 5.681615 -0.095141
-1.503195 5.988049 0.892024
-1.439885 6.002304 0.731471
-1.301770 6.055667 0.379421
-1.226930 5.770294 0.205880
-1.282281 6.053699 0.270727
-1.253093 5.802023 0.228514
-1.411890 6.166632 0.589513
-1.550315 6.274357 0.932329
-1.327617 5.864462 0.466988
-1.463494 5.975154 0.793140
-1.206936 5.911042 0.136568
-1.122034 5.847627 -0.095171
-1.574774 6.217938 1.007027
-1.325759 5.942712 0.417268
-1.134034 5.789265 -0.045675
-1.222145 5.863381 0.150209
-1.146576 5.739116 0.000111
-1.315704 5.937616 0.443443
-1.620627 6.124509 1.146221
-1.195746 5.934771 0.064259
-1.592691 6.169171 1.074605
-1.426776 6.114121 0.661358
-1.163725 5.762606 0.024695
-1.216355 5.875040 0.163690
-1.171628 6.029921 -0.043493
-1.308334 6.037445 0.337371
-1.500327 6.283058 0.793758
-1.138209 5.828415 -0.070076
-1.311550 6.037252 0.409743
-1.192230 6.044390 0.066574
-1.103467 5.734870 -0.136454
-1.506913 6.201751 0.837665
-1.343394 5.926483 0.479710
-1.513271 6.130239 0.865661
-1.114356 5.752980 -0.122011
-1.509867 6.066189 0.891787
-1.443514 6.080774 0.724262
-1.229782 5.850500 0.184026
-1.308981 6.156101 0.356489
-1.246612 5.870726 0.211325
-1.279230 6.143804 0.250045
-1.476308 6.058137 0.785454
-1.322783 5.933417 0.458415
-1.207668 5.999030 0.110130
-1.408761 6.255363 0.578981
-1.115828 5.932372 -0.126352
-1.322485 6.018042 0.402875
-1.576746 6.300381 1.007324
-1.132384 5.872369 -0.076042
-1.220524 5.944394 0.125469
-1.629560 6.201692 1.148844
-1.143454 5.813972 -0.023696
-1.320369 6.024000 0.428840
-1.600915 6.251482 1.076627
-1.165310 5.843832 -0.005298
-1.195015 6.026362 0.033464
-1.436223 6.211432 0.649353
-1.215937 5.958038 0.141101
-1.308932 6.126024 0.317906
-1.165345 6.125132 -0.075431
-1.133953 5.910120 -0.100949
-1.309641 6.120498 0.396135
-1.344549 6.002962 0.465028
-1.509240 6.286515 0.835625
-1.516675 6.211165 0.864691
-1.188611 6.139015 0.038329
-1.523571 6.155487 0.891749
-1.455037 6.172251 0.713669
-1.221858 5.919683 0.170932
-1.241287 5.943375 0.193111
-1.307932 6.249807 0.339276
-1.480070 6.133798 0.779359
-1.283074 6.249933 0.222829
-1.320760 6.008765 0.449357
-1.205545 6.090166 0.083797
-1.323671 6.103247 0.385724
-1.216132 6.026691 0.101570
-1.125405 5.953394 -0.102895
-1.143591 5.896717 -0.052410
-1.322803 6.110258 0.414208
-1.161107 5.923563 -0.032985
-1.188998 6.114940 0.006555
-1.216592 6.046842 0.116751
-1.355791 6.093484 0.446634
-1.298949 6.209641 0.303381
-1.132826 6.002507 -0.137833
-1.317192 6.222094 0.376134
-1.160501 6.228465 -0.111472
-1.523971 6.303265 0.864280
-1.185521 6.241888 0.006381
-1.528598 6.238747 0.893773
-1.459951 6.260487 0.706519
-1.217980 5.998392 0.154241
-1.239679 6.023331 0.171199
-1.480570 6.211222 0.775341
-1.326260 6.095834 0.436445
-1.200981 6.184800 0.058408
-1.322956 6.190545 0.368647
-1.214052 6.116889 0.075613
-1.141328 5.982030 -0.079811
-1.124572 6.047881 -0.137223
-1.322016 6.197341 0.402024
-1.155458 6.004807 -0.059391
-1.191108 6.222676 -0.030000
-1.210592 6.133339 0.095477
-1.356947 6.178567 0.431939
-1.539829 6.332458 0.894318
-1.488140 6.299907 0.769076
-1.211784 6.078846 0.136783
-1.237321 6.109343 0.148325
-1.332338 6.189184 0.423011
-1.322863 6.283190 0.351416
-1.140547 6.074540 -0.110949
-1.212543 6.214404 0.046320
-1.150422 6.092440 -0.088764
-1.352031 6.259006 0.419819
-1.206948 6.226802 0.072515
-1.219383 6.181697 0.109093
-1.237771 6.202778 0.122153
-1.131834 6.162543 -0.136266
-1.151986 6.193988 -0.127220
