# .PCD v0.7 - Point Cloud Data file format
VERSION 0.7
FIELDS x y z
SIZE 4 4 4
TYPE F F F
COUNT 1 1 1
WIDTH 332
HEIGHT 1
VIEWPOINT 0 0 0 1
POINTS 332
DATA ascii
2.011969 12.368067 1.582429
1.996822 12.364228 1.678337
2.021953 12.321618 1.608539
2.017422 12.360934 1.582063
2.008900 12.331609 1.654915
1.938036 12.389059 1.842085
2.007033 12.351145 1.654328
1.993474 12.316408 1.699823
1.949220 12.356747 1.802758
2.009913 12.272786 1.627473
2.017815 12.350517 1.582983
2.021343 12.313280 1.604590
1.998708 12.335340 1.665080
2.004234 12.283882 1.676916
1.950184 12.376136 1.803581
1.938960 12.377542 1.821270
1.935096 12.340894 1.862726
2.029067 12.364428 1.583868
2.015107 12.333731 1.633428
2.007316 12.302485 1.675528
1.990524 12.268241 1.720461
1.947286 12.309774 1.825754
1.994869 12.335711 1.678468
2.017157 12.225577 1.652585
2.025366 12.302023 1.605223
2.022530 12.264872 1.626120
1.999395 12.288177 1.687043
2.005076 12.334241 1.567042
1.848354 12.380966 2.049420
1.968785 12.362638 1.771933
1.998049 12.236210 1.696990
1.932621 12.389677 1.841647
1.950470 12.327476 1.824784
1.845188 12.380299 2.091877
1.933058 12.292977 1.883697
1.935205 12.328224 1.841994
2.029143 12.313883 1.601017
2.016597 12.284033 1.652087
2.002440 12.252873 1.693477
1.988575 12.219423 1.741844
1.941807 12.260897 1.847839
1.992748 12.331535 1.681543
1.995551 12.286705 1.698820
1.982031 12.344040 1.725643
2.010153 12.176753 1.672740
2.021802 12.252317 1.622655
2.013105 12.215850 1.644020
1.991891 12.238757 1.706022
2.031508 12.285872 1.594697
1.848036 12.333039 2.074759
1.869063 12.371109 2.051538
1.961995 12.311583 1.787195
1.995287 12.188084 1.720065
1.925027 12.339315 1.858605
1.949335 12.277966 1.844474
1.845884 12.333134 2.113844
1.935857 12.243609 1.907568
1.936997 12.279510 1.865119
1.837301 12.363442 2.090299
1.905294 12.392273 1.942117
2.019615 12.262076 1.615282
2.015856 12.234177 1.670927
2.003113 12.203865 1.713826
1.988438 12.171105 1.763887
1.936626 12.212573 1.868659
1.879392 12.357242 2.006647
1.995242 12.281187 1.700947
1.917578 12.347054 1.867260
1.992588 12.236694 1.717845
1.979376 12.292742 1.741797
2.003952 12.129080 1.692810
2.021966 12.202714 1.641825
2.016599 12.166693 1.665777
1.995894 12.190195 1.728959
2.027837 12.235225 1.610102
1.844983 12.284359 2.099101
1.830082 12.385531 2.108550
1.864700 12.320251 2.069059
1.995750 12.139461 1.743700
1.963176 12.261328 1.807115
1.924396 12.290404 1.879473
1.837686 12.284920 2.130818
1.949102 12.228706 1.864494
1.932293 12.195745 1.926610
1.931311 12.230590 1.884761
1.836373 12.315819 2.114042
2.020586 12.211781 1.632758
2.012282 12.184470 1.688356
1.900423 12.340819 1.958458
1.827008 12.405114 2.120355
1.986476 12.122284 1.785266
2.003572 12.153398 1.735851
1.936689 12.164295 1.893143
1.883406 12.306836 2.027978
1.989853 12.230980 1.717714
1.918258 12.298047 1.887612
1.770304 12.413582 2.305932
1.987701 12.187083 1.735789
2.005316 12.080706 1.716774
1.981865 12.242391 1.761200
2.013120 12.117928 1.685229
1.993931 12.141376 1.750337
2.018082 12.152452 1.660515
1.838492 12.236131 2.120439
2.020018 12.184821 1.624611
1.826325 12.336214 2.129274
1.864069 12.271336 2.089928
1.991462 12.091385 1.764846
1.963440 12.210820 1.826701
1.919112 12.241140 1.898268
1.845231 12.236841 2.158788
1.955119 12.178840 1.888924
1.925689 12.146571 1.945918
1.928950 12.182116 1.906989
1.831296 12.266596 2.135280
2.024376 12.161334 1.651641
2.011626 12.133711 1.707607
1.818809 12.355059 2.135720
1.900288 12.288815 1.977284
1.997668 12.104434 1.753047
1.981778 12.072710 1.805648
1.935431 12.116111 1.918141
1.798303 12.395350 2.264167
1.880039 12.255327 2.046242
1.989604 12.179877 1.736120
1.915698 12.247691 1.905790
1.988460 12.137172 1.756551
2.008996 12.031583 1.740968
1.986765 12.190391 1.781246
2.015405 12.102995 1.678272
2.016393 12.067308 1.708660
1.990645 12.090806 1.770619
1.825289 12.287647 2.150990
1.832698 12.186697 2.143784
1.857370 12.221223 2.107213
2.025722 12.133974 1.644571
1.988780 12.042353 1.788331
1.969253 12.160912 1.848689
1.924120 12.191925 1.921951
1.841361 12.188419 2.179092
1.950227 12.129224 1.906867
1.920897 12.097898 1.965887
1.934252 12.132037 1.933526
1.828129 12.216970 2.157593
2.009351 12.083906 1.724516
2.027250 12.110634 1.670190
1.825344 12.305791 2.161332
1.979803 12.023886 1.827024
2.000336 12.054118 1.774884
1.900146 12.236810 1.996108
1.929926 12.067228 1.940217
1.791206 12.341898 2.279083
1.873233 12.204272 2.061501
1.984604 12.129324 1.752036
1.923936 12.197980 1.930035
2.006708 11.982202 1.763603
1.989714 12.086010 1.776878
2.011991 12.018290 1.727777
2.015647 12.052485 1.697851
1.985842 12.042133 1.790584
1.981865 12.138933 1.797578
1.825790 12.138814 2.165964
1.817277 12.237632 2.168791
1.853491 12.170959 2.125906
1.990231 11.993071 1.812707
2.026772 12.082773 1.662456
1.966774 12.109649 1.867277
1.924575 12.141456 1.943975
1.842833 12.139138 2.203476
1.941689 12.078608 1.923484
1.913871 12.047228 1.984428
1.925212 12.082669 1.950574
1.823038 12.167745 2.178827
1.818040 12.255984 2.177024
2.009688 12.032493 1.744510
1.974182 11.974060 1.847071
1.998856 12.004045 1.795825
2.021832 12.058580 1.685339
1.925421 12.017694 1.963039
1.898177 12.184302 2.014267
1.788037 12.288585 2.298178
1.864099 12.153964 2.076526
1.919542 12.147120 1.947546
1.999671 11.933372 1.783749
1.987265 12.077166 1.772261
1.992376 12.035692 1.798713
2.018481 11.967167 1.751766
1.991022 11.991107 1.815090
2.022037 12.000422 1.719815
1.822991 12.189050 2.196094
1.981701 12.086925 1.816394
1.855361 12.121332 2.149441
1.834920 12.088354 2.200386
1.979458 11.944142 1.831113
2.022765 12.031567 1.679114
1.921188 12.091786 1.963841
1.958128 12.058090 1.881866
1.848736 12.088745 2.231608
1.935971 12.027841 1.941507
1.907148 11.998955 2.003316
1.917374 12.032690 1.970808
1.822885 12.118005 2.204987
1.814764 12.205417 2.197310
1.966638 11.924634 1.866039
2.006685 11.980632 1.761914
1.917984 11.969210 1.984035
1.993226 11.952374 1.814260
2.030944 12.005425 1.706686
1.894185 12.133095 2.030931
1.860306 12.102798 2.095630
1.912717 12.096065 1.962799
1.995045 11.882893 1.804539
1.992647 12.025754 1.793478
1.984732 11.985326 1.815656
2.012343 11.916743 1.770632
1.983978 11.940434 1.833626
1.851566 12.070163 2.168545
2.016709 11.949308 1.736987
1.820313 12.138173 2.217972
1.833446 12.038705 2.227060
1.976279 12.034870 1.831544
1.973019 11.895006 1.852852
1.841110 12.040218 2.250167
1.912642 12.041171 1.980456
2.025310 11.978463 1.697310
1.953816 12.006326 1.899787
1.935899 11.976768 1.962348
1.903442 11.948726 2.024441
1.913571 11.983364 1.991518
1.818384 12.068470 2.227811
1.807544 12.154709 2.213414
1.960094 11.874556 1.885751
2.006098 11.928964 1.781572
1.983656 11.902408 1.830123
1.904480 11.919533 2.001446
2.024601 11.953119 1.721500
1.888562 12.079585 2.047760
1.870236 12.051217 2.122626
1.986272 11.832660 1.824434
1.908003 12.044648 1.981568
1.987724 11.974295 1.809804
1.982930 11.932852 1.836245
2.000545 11.866623 1.786677
1.850693 12.019781 2.191083
1.819043 12.088140 2.241358
1.832569 11.988748 2.255326
1.978441 11.889704 1.854084
1.970812 11.844718 1.875898
2.014298 11.897141 1.755981
1.839327 11.989583 2.272372
1.970447 11.983161 1.847538
1.906512 11.990749 1.999324
1.944654 11.956015 1.914805
2.026437 11.926354 1.715604
1.927340 11.926150 1.978959
1.909315 11.896484 2.050955
1.909651 11.931677 2.014319
1.825989 12.018058 2.260304
1.966866 11.822561 1.912593
1.804858 12.103833 2.235290
1.898641 11.870090 2.024779
1.984672 11.849779 1.852119
2.001261 11.876600 1.798310
2.017341 11.900564 1.735981
1.883841 12.026323 2.064919
1.872268 11.997947 2.145384
1.983539 11.781780 1.846310
1.901757 11.993291 1.998421
1.974754 11.881892 1.852017
1.985296 11.920286 1.827199
1.862415 11.967275 2.222868
2.004468 11.812941 1.810508
1.976115 11.838475 1.875115
1.828438 11.937443 2.281429
1.836309 11.938141 2.295520
1.815123 12.036455 2.264175
1.958790 11.794984 1.895242
2.009039 11.845122 1.773576
1.971853 11.928344 1.867091
1.899549 11.939173 2.018289
1.940410 11.903342 1.933151
2.022993 11.872990 1.732254
1.924106 11.874663 1.999663
1.903661 11.846644 2.071014
1.903087 11.881584 2.034050
1.820741 11.966444 2.283643
1.814055 12.052011 2.264416
1.908111 11.817398 2.056754
1.980004 11.797425 1.871318
1.992253 11.824456 1.814174
2.019442 11.847770 1.755042
1.879692 11.972721 2.083694
1.869543 11.945173 2.165661
1.901252 11.940676 2.018512
1.968081 11.830828 1.869717
1.859382 11.913942 2.244407
1.826014 11.887916 2.313509
1.977613 11.868032 1.842543
1.823385 11.885840 2.307202
1.968728 11.787198 1.894923
1.816442 11.984761 2.290660
2.001952 11.792560 1.790511
1.971743 11.875380 1.886332
1.905496 11.885983 2.045231
1.951397 11.848309 1.959706
2.022367 11.819430 1.750313
1.905460 11.793697 2.097060
1.921365 11.821890 2.019935
1.897219 11.830252 2.055785
1.821440 11.913633 2.312650
1.813353 11.999779 2.287797
2.012248 11.794265 1.769951
1.875946 11.918758 2.101611
1.870336 11.891036 2.189353
1.857756 11.861452 2.267452
1.898611 11.887003 2.039200
1.981071 11.774485 1.897760
1.817009 11.834331 2.333489
1.972845 11.814720 1.859708
1.812196 11.932467 2.314740
1.900432 11.833958 2.065270
1.960815 11.821778 1.899501
1.949052 11.795187 1.979127
1.817789 11.861030 2.338321
1.807489 11.946602 2.307926
1.889241 11.861550 2.132513
1.866780 11.837107 2.209707
1.850057 11.807769 2.286913
1.893440 11.834038 2.057213
1.807337 11.880479 2.337223
1.808379 11.893404 2.333641
1.879919 11.806988 2.148021
