# .PCD v0.7 - Point Cloud Data file format
VERSION 0.7
FIELDS x y z
SIZE 4 4 4
TYPE F F F
COUNT 1 1 1
WIDTH 171
HEIGHT 1
VIEWPOINT 0 0 0 1
POINTS 171
DATA ascii
2.134906 13.422106 1.218773
2.277775 13.212132 0.908316
2.141811 13.337290 1.225570
2.208980 13.349845 1.014591
2.131516 13.279365 1.255608
2.175554 13.311913 1.141018
1.963206 13.465672 1.704334
2.150306 13.310892 1.213414
2.255772 13.053981 0.955970
2.140883 13.194237 1.258959
2.159337 13.298702 1.181448
1.913215 13.449309 1.843561
2.037671 13.454412 1.503121
2.207147 13.207162 1.061537
2.132222 13.148849 1.292756
2.261613 13.248962 0.934933
2.167934 13.166409 1.181770
2.262810 12.953384 0.958820
2.009574 13.389967 1.623054
1.965271 13.326206 1.728182
2.148209 13.168907 1.249351
2.255152 12.933965 0.999898
2.178771 13.291834 1.150868
2.147546 13.071442 1.290914
2.155240 13.153941 1.221156
2.075083 13.362929 1.416067
1.917198 13.299604 1.856083
1.932793 13.448421 1.801126
2.039431 13.309178 1.536301
2.137346 13.032945 1.328190
1.750633 13.492732 2.282748
2.203503 13.069616 1.107859
1.928608 13.375786 1.842474
2.264124 12.838903 0.997794
2.173860 13.046421 1.222810
2.245253 13.087296 0.986651
1.968694 13.197514 1.751689
2.008214 13.246107 1.649514
2.155127 13.048805 1.285008
2.259757 12.826934 1.040808
2.171297 13.140841 1.193978
2.148695 12.947603 1.320768
2.274726 12.841123 0.968777
2.294451 12.826378 0.935739
1.798597 13.442668 2.190320
2.165515 13.038538 1.259927
1.924033 13.165932 1.870289
1.870149 13.488924 1.976710
1.933583 13.297917 1.819576
2.080729 13.222934 1.453556
1.953187 13.388245 1.780288
2.141969 12.921992 1.362503
2.037449 13.166006 1.566898
1.758959 13.361301 2.291993
2.205543 12.948340 1.151180
1.930065 13.229165 1.857256
2.263581 12.725004 1.035671
2.174227 12.927221 1.260962
1.828935 13.388284 2.089236
2.242185 12.954845 1.034643
1.975799 13.082309 1.775967
2.007707 13.111575 1.674828
2.148739 12.915667 1.316453
1.714956 13.494160 2.372850
2.255333 12.711741 1.080970
2.147960 12.825253 1.349137
2.175502 13.015920 1.236289
2.269422 12.723905 1.009385
2.287652 12.707832 0.980921
1.799563 13.297053 2.197395
1.933260 13.044999 1.886164
2.279986 12.732787 0.965797
2.162093 12.910441 1.295344
1.939981 13.170348 1.840453
1.764939 13.234458 2.299423
2.137930 12.803427 1.394833
1.871850 13.333133 1.995434
1.950485 13.236086 1.800179
2.081345 13.084251 1.489361
2.041814 13.040510 1.597746
1.941753 13.111827 1.876294
2.203336 12.827663 1.191121
2.266538 12.619144 1.071802
2.169955 12.808974 1.296584
1.980585 12.970772 1.798826
1.832687 13.246218 2.104348
2.014170 12.997963 1.702855
2.245332 12.839182 1.080838
2.152702 12.803299 1.347521
1.721869 13.350792 2.374655
2.255720 12.610785 1.118578
2.153078 12.719136 1.376943
2.172712 12.891079 1.274159
2.274387 12.624753 1.048341
2.279789 12.595541 1.022994
1.806380 13.171612 2.210503
1.946704 12.938087 1.904003
2.280629 12.628139 1.007414
1.771940 13.116913 2.308143
2.159029 12.790226 1.328804
2.131004 12.689846 1.423748
1.944898 13.043928 1.858982
1.958551 13.113761 1.825510
2.045226 12.923073 1.627137
1.876827 13.192113 2.015375
1.941866 12.980011 1.890157
2.080984 12.954547 1.523315
2.202038 12.714484 1.230697
1.981678 12.859466 1.819883
2.167948 12.696217 1.332125
2.012687 12.878794 1.726009
1.836882 13.114755 2.118765
2.301299 12.639033 0.967631
2.239801 12.716842 1.124646
2.156698 12.696421 1.378660
1.726074 13.211472 2.375876
2.240277 12.493497 1.154542
2.160038 12.619769 1.405133
2.164914 12.766644 1.310736
1.811773 13.050942 2.222142
2.300434 12.484081 0.961287
1.780873 13.008833 2.318510
1.946608 12.814537 1.914322
2.116701 12.569404 1.449781
2.157279 12.676233 1.361448
1.946712 12.921897 1.877785
1.961907 12.988768 1.847435
1.949497 12.868740 1.908320
2.044986 12.804031 1.655519
1.879414 13.057523 2.032711
1.981786 12.750744 1.839408
2.083685 12.835083 1.555580
2.161133 12.555731 1.262845
2.151667 12.572080 1.362323
2.019599 12.775796 1.753337
1.849126 13.004368 2.138679
2.154672 12.587049 1.406894
2.221930 12.586195 1.165070
2.167396 12.659359 1.346058
1.822017 12.946620 2.238605
1.785715 12.901329 2.327932
1.957872 12.718582 1.932470
2.132632 12.541411 1.387552
1.962393 12.825311 1.901759
1.962482 12.870555 1.867606
1.955221 12.759876 1.924602
1.982815 12.648594 1.858969
2.041368 12.687607 1.680079
1.889683 12.943453 2.056786
2.081353 12.716938 1.586157
2.014304 12.661446 1.772729
1.852520 12.887323 2.153772
2.139811 12.522504 1.375192
1.828080 12.840158 2.252862
1.792903 12.802018 2.338544
1.940189 12.583523 1.934801
1.960877 12.710461 1.917211
1.968233 12.764704 1.890882
1.946553 12.637831 1.933884
2.028119 12.565237 1.701517
2.008644 12.552929 1.793049
1.897517 12.831259 2.077780
2.054149 12.570350 1.607758
1.855019 12.775581 2.168595
1.800645 12.708714 2.350435
1.832626 12.735747 2.264388
1.943981 12.578623 1.924446
1.954326 12.636990 1.902478
1.896110 12.712764 2.094804
1.865546 12.679446 2.188833
1.870144 12.564293 2.094221
