# .PCD v0.7 - Point Cloud Data file format
VERSION 0.7
FIELDS x y z
SIZE 4 4 4
TYPE F F F
COUNT 1 1 1
WIDTH 586
HEIGHT 1
VIEWPOINT 0 0 0 1
POINTS 586
DATA ascii
1.545100 12.057667 1.263589
1.544206 12.056579 1.263597
1.541256 12.056292 1.249391
1.535175 12.065694 1.344062
1.540975 12.055605 1.226059
1.627986 12.048269 1.301239
1.630726 12.048786 1.302347
1.544820 12.061499 1.322165
1.554292 12.056666 1.206197
1.620985 12.046730 1.286802
1.614505 12.051208 1.300768
1.559986 12.058263 1.294298
1.556652 12.066503 1.426018
1.482028 12.077579 1.483666
1.632850 12.061652 1.391398
1.622511 12.047313 1.263831
1.611378 12.056614 1.292502
1.810750 12.068976 1.367668
1.809450 12.068226 1.368525
1.643409 12.057634 1.369870
1.591833 12.054276 1.268845
1.506549 12.071362 1.463823
1.550606 12.071855 1.449381
1.628173 12.044589 1.242995
1.599739 12.055314 1.284023
1.788360 12.063539 1.349774
1.780561 12.068181 1.364221
1.517325 12.072128 1.374555
1.663528 12.055844 1.342622
2.014665 12.192139 1.610694
1.947265 12.219419 1.697153
2.061875 12.168767 1.550722
1.777643 12.060403 1.323605
1.559835 12.075498 1.446574
1.747101 12.063605 1.348948
1.533496 12.070624 1.457124
2.085885 12.109522 1.464521
2.086393 12.110030 1.465740
2.018124 12.144107 1.507889
1.950872 12.200954 1.661579
1.690828 12.050083 1.315699
2.000332 12.196987 1.638541
1.441870 12.050637 1.595552
1.774189 12.055052 1.299453
1.716438 12.056797 1.335913
2.056674 12.104154 1.444514
2.070332 12.116005 1.467542
1.616605 12.071382 1.427237
1.886203 12.089799 1.428774
2.020594 12.141368 1.630352
1.978855 12.180646 1.729026
1.512401 12.065381 1.465746
2.047868 12.112316 1.565454
1.980971 12.081772 1.398437
1.425009 12.082029 1.609281
2.015645 12.203032 1.641236
2.030557 12.112014 1.451374
1.994036 12.202538 1.657014
1.438071 12.053370 1.628120
2.085932 12.058068 1.482810
2.086459 12.057660 1.484405
2.058306 12.108389 1.541479
1.901156 12.263803 1.926228
1.993507 12.166006 1.699573
1.967830 12.100073 1.414410
2.022341 12.153237 1.666632
1.944812 12.202321 1.865566
2.041972 12.096116 1.392596
2.083621 12.062776 1.472845
1.946746 12.090022 1.422478
2.082723 12.069125 1.491095
1.896340 12.239066 1.982073
2.052861 12.184657 1.606441
2.024683 12.091172 1.648892
2.068232 12.100291 1.507162
1.980303 12.130775 1.748528
1.945347 12.187828 1.659737
1.453352 12.064593 1.585184
2.050252 12.061710 1.585699
2.096961 12.068378 1.453541
1.905103 12.238655 1.879369
1.402070 12.076756 1.644163
2.025007 12.155890 1.666978
2.081196 12.077852 1.488174
1.903633 12.245534 1.904208
2.003298 12.154552 1.680688
2.086899 12.006789 1.501464
1.928724 12.201433 1.903122
2.086106 12.006546 1.503540
1.913240 12.218076 1.952704
2.053910 12.056004 1.560364
1.999119 12.117332 1.721769
2.090801 12.090158 1.475008
2.018757 12.100169 1.683820
1.929595 12.143153 1.873725
2.108976 12.068720 1.434534
1.897264 12.189590 1.999981
2.086922 12.012348 1.493456
1.812893 12.255882 2.169977
2.080137 12.018004 1.510341
2.085613 12.084523 1.487750
2.030863 12.127430 1.622361
1.978529 12.078967 1.766077
2.079428 12.053503 1.533638
2.026076 12.038630 1.667075
1.998096 12.157451 1.703105
2.043000 12.008885 1.601030
1.943959 12.216290 1.850493
1.899393 12.244128 1.937065
1.926913 12.196918 1.912445
2.098131 12.018790 1.476331
2.016572 12.102228 1.685614
1.774249 12.283940 2.304105
1.919354 12.201412 1.931782
2.084580 12.029184 1.510477
2.005278 12.104275 1.701783
1.927355 12.149276 1.919824
2.081477 11.954314 1.517532
2.082511 11.954413 1.520346
1.911973 12.166760 1.971475
2.057702 12.006998 1.581817
1.792327 12.300726 2.227280
1.986506 12.063396 1.737331
1.798690 12.252569 2.209404
2.007384 12.044309 1.697210
2.082977 12.037864 1.496928
1.925895 12.090153 1.888467
2.099307 12.017001 1.455337
1.809130 12.290723 2.222835
1.896912 12.138445 2.019119
2.083937 11.961568 1.513548
1.812763 12.201784 2.184510
2.075944 12.032802 1.508554
2.078877 11.966721 1.529103
1.782012 12.255796 2.270860
1.979076 12.028929 1.785204
2.068728 12.001682 1.551627
2.023783 11.987239 1.683024
2.027099 12.075476 1.644909
1.993805 12.105900 1.724059
2.045377 11.959201 1.620893
1.945673 12.165349 1.875259
1.911991 12.198910 1.964757
1.764439 12.229451 2.312973
1.915639 12.141887 1.927906
2.092932 11.967086 1.496911
2.009544 12.050167 1.705458
1.918496 12.149762 1.949702
2.080701 11.977313 1.530576
2.008178 12.054171 1.723244
1.924185 12.095861 1.936161
2.083756 11.903790 1.535324
2.084384 11.904226 1.538987
1.909371 12.116530 1.990346
2.051979 11.955700 1.600801
1.789519 12.248790 2.242019
1.991724 12.015061 1.760371
1.780003 12.291336 2.259455
1.795396 12.199211 2.223300
2.008847 11.994446 1.716704
2.080601 11.988434 1.520306
1.822814 12.257775 2.182587
1.928596 12.038352 1.905792
2.098758 11.967918 1.479453
1.890965 12.086349 2.033595
1.800495 12.235342 2.237338
2.083190 11.910796 1.533527
2.078542 11.983892 1.532929
1.809918 12.146258 2.198308
2.079045 11.916119 1.549451
1.777502 12.203445 2.287304
1.979629 11.978891 1.804328
2.069889 11.953010 1.574036
2.020602 11.934762 1.698978
2.022389 12.025187 1.666332
1.988060 12.055507 1.742668
2.043598 11.908325 1.638057
1.946462 12.115154 1.899277
1.901107 12.144455 1.978991
1.764967 12.180299 2.331728
1.918643 12.092615 1.951436
2.092288 11.917158 1.518957
2.002909 11.998691 1.724073
1.899312 12.092011 1.958919
2.080443 11.927963 1.551397
2.003777 12.002697 1.741748
1.918668 12.042518 1.950161
2.081981 11.852921 1.552486
2.075808 11.852497 1.554414
1.900808 12.063850 2.006156
2.049390 11.905499 1.619663
1.789558 12.198213 2.259932
1.777280 12.241160 2.275884
1.990046 11.965020 1.779605
1.796372 12.147892 2.241957
2.007577 11.944071 1.735088
2.075471 11.939409 1.542198
1.923083 11.985015 1.919791
1.817146 12.203683 2.202709
1.874874 12.031532 2.041938
1.795176 12.183665 2.255480
2.094582 11.917233 1.502466
2.084644 11.861863 1.552638
2.078671 11.866842 1.567824
2.074753 11.933784 1.554717
1.808055 12.093585 2.213788
1.774399 12.152693 2.304957
1.972373 11.926981 1.819277
2.062854 11.901881 1.593496
2.020149 11.883718 1.715661
2.021847 11.976092 1.690447
1.986909 12.005055 1.763498
2.046007 11.857724 1.658291
1.896178 12.093376 1.995902
1.946343 12.064788 1.922924
1.908763 12.040104 1.967725
2.086149 11.867122 1.538408
2.004076 11.950009 1.746481
1.900781 12.042134 1.978413
2.073411 11.876837 1.570856
2.000275 11.952314 1.760242
1.912730 11.990431 1.964632
2.076253 11.802550 1.571085
1.900046 12.013966 2.025761
2.079725 11.800629 1.568803
1.780652 12.193366 2.297813
2.054134 11.855748 1.641853
1.790537 12.146891 2.278588
1.985634 11.914468 1.797728
1.801495 12.098681 2.262931
2.004892 11.893019 1.751881
2.075828 11.891413 1.566302
1.927217 11.933894 1.938697
1.870360 11.980122 2.057996
1.810551 12.150340 2.222082
2.091286 11.868556 1.525093
1.794044 12.132265 2.276691
2.082064 11.811667 1.571496
2.071543 11.814875 1.585212
2.073690 11.885109 1.577233
1.809853 12.041596 2.230741
1.773210 12.104045 2.325037
1.972899 11.878779 1.837642
2.012374 11.832226 1.729010
2.063113 11.853039 1.615531
1.986251 11.956030 1.785167
2.040547 11.808001 1.673219
2.018976 11.926148 1.712603
1.892270 12.043315 2.015248
1.918136 12.006180 1.930511
1.894420 11.991301 1.993356
1.906298 11.989808 1.989034
2.086818 11.817946 1.559592
2.006162 11.901499 1.769256
2.072232 11.828235 1.590925
2.002260 11.902959 1.780949
1.901705 11.937903 1.975658
1.886380 11.961764 2.037748
2.077923 11.751595 1.585206
2.066776 11.750656 1.586137
1.775221 12.141763 2.313507
2.041062 11.805841 1.656745
1.789249 12.097399 2.296599
1.984863 11.865516 1.816950
1.799602 12.047840 2.277653
2.008181 11.844416 1.771729
2.072050 11.841308 1.588085
1.922184 11.882901 1.953155
1.864899 11.930377 2.072928
1.810945 12.100465 2.246947
2.090230 11.819883 1.547606
1.793405 12.082291 2.298741
2.066254 11.761254 1.585278
2.071162 11.766519 1.603204
2.071719 11.836262 1.599377
1.810338 11.989773 2.248172
1.779437 12.057606 2.350137
1.967989 11.827721 1.854543
2.051504 11.801976 1.632763
2.013780 11.780607 1.746802
1.982858 11.906492 1.805726
2.034200 11.757193 1.688153
2.017006 11.877294 1.734748
1.884593 11.992644 2.030669
1.915777 11.956731 1.953886
1.901466 11.940497 2.007630
1.893140 11.941831 2.011360
2.082478 11.770088 1.579023
2.000013 11.852367 1.788329
1.990529 11.851958 1.795738
2.070166 11.778545 1.610999
1.899008 11.887758 1.992073
1.871827 11.908481 2.049740
2.074542 11.702075 1.605757
2.075659 11.700221 1.601141
1.778199 12.094304 2.336280
1.788881 12.048079 2.314977
2.043952 11.757583 1.677438
1.981884 11.815642 1.836656
1.796435 11.995332 2.293607
2.004595 11.793194 1.788147
2.061010 11.793432 1.607849
1.864112 11.882329 2.091773
1.920851 11.830757 1.969841
2.078705 11.770586 1.566527
1.790419 12.032384 2.318455
1.805256 12.048212 2.266307
2.066832 11.711236 1.604388
2.062605 11.714793 1.618622
2.057860 11.786113 1.616342
1.807581 11.936932 2.263274
1.964893 11.777921 1.871803
1.978011 11.858110 1.823941
2.056343 11.753986 1.656639
2.012412 11.730310 1.762730
2.027472 11.705805 1.704309
1.881976 11.944255 2.048777
2.010981 11.828092 1.756264
1.909629 11.907591 1.972959
1.891460 11.892696 2.030212
1.890670 11.888741 2.023165
2.070877 11.719032 1.596251
1.991555 11.801472 1.805818
1.990679 11.803179 1.815324
2.068085 11.729773 1.630693
1.769979 12.044944 2.349730
1.899585 11.837714 2.011188
1.870656 11.859853 2.069809
2.067297 11.651098 1.620305
2.069328 11.649415 1.616057
1.786718 11.997495 2.332978
2.036826 11.706528 1.694431
1.977477 11.766006 1.854380
1.797931 11.945436 2.313080
1.990954 11.741015 1.800108
1.856843 11.832245 2.105947
2.057252 11.743329 1.629610
1.915351 11.778345 1.983434
1.786129 11.982647 2.338628
2.074502 11.722657 1.588381
1.802405 11.998239 2.288443
2.060604 11.661281 1.621366
2.059098 11.666265 1.636330
2.054063 11.737845 1.637345
1.803928 11.883927 2.277982
1.954911 11.726428 1.885234
1.976448 11.809838 1.844833
2.040168 11.702999 1.671618
2.001011 11.678149 1.774569
2.007186 11.779819 1.777264
1.866507 11.891726 2.059994
2.023889 11.655517 1.720320
1.889293 11.843068 2.047814
1.905854 11.858394 1.994336
1.892379 11.840566 2.046756
2.067900 11.670101 1.615545
1.990019 11.752290 1.827079
1.987215 11.752811 1.833777
2.055060 11.678966 1.645924
1.895494 11.786909 2.025977
1.864434 11.809885 2.086778
1.786374 11.948199 2.351328
2.063003 11.598633 1.630962
2.060079 11.599229 1.635216
2.029687 11.656414 1.711036
1.968510 11.715543 1.870249
1.790100 11.892177 2.324715
1.993356 11.692261 1.819558
1.856099 11.783301 2.125142
2.049398 11.694732 1.649982
1.910366 11.726460 1.998239
2.069795 11.674237 1.609012
1.775758 11.930561 2.353292
1.800091 11.947877 2.312169
2.050727 11.610661 1.636861
2.052388 11.614901 1.652460
2.048465 11.688335 1.657983
1.806800 11.832059 2.297716
1.959145 11.678009 1.905422
1.971662 11.759645 1.863774
2.039019 11.654414 1.691657
1.861679 11.843358 2.078186
2.004760 11.628313 1.793914
1.997528 11.729957 1.797275
2.021749 11.605000 1.738297
1.882540 11.793515 2.063198
1.902610 11.808796 2.017311
1.884834 11.790769 2.064215
2.058125 11.620324 1.633108
1.981155 11.702669 1.845015
1.984646 11.703540 1.852230
2.044778 11.628680 1.662270
1.860932 11.761351 2.104488
1.893354 11.736376 2.043959
1.772110 11.895581 2.359625
2.053011 11.548089 1.644012
2.056481 11.549874 1.650851
2.028036 11.607320 1.729856
1.964625 11.666436 1.889182
1.785118 11.840272 2.339524
1.854448 11.734187 2.143967
1.989392 11.641397 1.836798
2.046119 11.646987 1.672200
1.910870 11.675595 2.015259
2.063776 11.625983 1.630121
2.049078 11.561573 1.655679
1.794109 11.897749 2.334040
2.041918 11.640490 1.677498
2.049319 11.565134 1.669691
1.800401 11.779480 2.310936
1.957011 11.627481 1.923401
1.962274 11.710433 1.880115
1.858685 11.795329 2.097116
2.028314 11.605380 1.708475
1.993370 11.576167 1.805753
1.989175 11.680846 1.816429
2.019089 11.554893 1.754678
1.879061 11.744063 2.081283
1.878738 11.740732 2.083637
1.894684 11.758421 2.035994
1.971385 11.652881 1.862581
2.049269 11.570718 1.651040
1.974268 11.652400 1.866509
2.043638 11.580096 1.682307
1.856137 11.712064 2.123054
1.893047 11.686181 2.062678
2.048322 11.499670 1.664639
2.053522 11.497243 1.661025
2.020911 11.557206 1.746458
1.952911 11.616382 1.903564
1.784404 11.790397 2.359096
1.851383 11.684395 2.161202
1.976664 11.590332 1.848742
2.041426 11.598564 1.692828
2.052283 11.576709 1.649013
1.906407 11.624216 2.031280
2.047822 11.513062 1.673271
2.039480 11.591154 1.698391
2.043516 11.514857 1.685812
1.789982 11.847044 2.357024
1.951188 11.578107 1.939149
1.796893 11.726419 2.328083
1.968057 11.662617 1.904335
1.854783 11.747130 2.115674
2.023119 11.556451 1.727885
1.992971 11.525142 1.822399
2.010021 11.504513 1.768097
1.985012 11.632006 1.838654
1.878351 11.694203 2.100852
1.873540 11.691782 2.103051
1.892347 11.709909 2.058960
2.046288 11.522712 1.669962
1.972605 11.604215 1.884953
1.971306 11.603464 1.885809
2.036109 11.530321 1.699758
1.855511 11.663962 2.144314
1.886739 11.635377 2.077585
2.043846 11.449227 1.680278
2.048538 11.446295 1.675446
2.010118 11.507330 1.761207
1.959109 11.568224 1.926933
1.774340 11.738054 2.370461
1.846091 11.634598 2.178548
1.977260 11.541234 1.867450
2.033592 11.549968 1.713197
2.049424 11.528628 1.670378
1.900530 11.572161 2.045712
2.046594 11.463634 1.691238
2.028379 11.542458 1.716058
2.036379 11.465663 1.702036
1.945414 11.526898 1.955648
1.849974 11.698760 2.133863
1.957363 11.613571 1.921154
1.794284 11.674443 2.345222
2.023838 11.507284 1.749035
2.005548 11.454064 1.783737
1.983089 11.583166 1.860767
1.981190 11.473334 1.835085
1.876714 11.645088 2.119674
1.868858 11.643337 2.123683
1.964656 11.555681 1.902879
2.047009 11.473548 1.691111
1.960900 11.554159 1.899333
1.885450 11.660546 2.080080
2.036810 11.482073 1.720532
1.851644 11.614841 2.163247
1.883685 11.585587 2.094818
2.009421 11.457485 1.780768
1.948321 11.518337 1.941683
1.845373 11.585648 2.197739
1.962698 11.490747 1.878276
2.028913 11.501542 1.733824
2.043833 11.480037 1.690635
1.910861 11.521581 2.070837
2.043159 11.413283 1.709690
2.024614 11.494203 1.737053
2.036499 11.415148 1.719898
1.851181 11.650996 2.155861
1.936865 11.477014 1.970286
1.951670 11.564121 1.939346
1.781919 11.620341 2.355003
2.015894 11.458759 1.766958
1.975244 11.535476 1.880761
2.000675 11.403951 1.800226
1.870495 11.596040 2.136272
1.980805 11.422305 1.851729
1.863674 11.594383 2.143096
2.036712 11.425097 1.706700
1.959474 11.506739 1.922288
1.880366 11.612437 2.101560
1.956532 11.504545 1.917043
2.028788 11.431790 1.736762
1.842281 11.565619 2.179587
1.880658 11.534877 2.112425
2.013299 11.408484 1.802176
1.941216 11.468212 1.958284
1.841030 11.535098 2.215828
2.031873 11.439936 1.933991
2.019245 11.453521 1.753077
2.036399 11.432020 1.709776
2.022291 11.363381 1.719620
2.021241 11.446526 1.756823
2.004200 11.366302 1.725118
1.844537 11.603200 2.172933
1.948296 11.516433 1.959118
1.944464 11.425924 1.994301
2.014394 11.409584 1.788218
1.785477 11.567973 2.378771
1.969274 11.486290 1.902244
1.866151 11.545494 2.154361
1.978193 11.371271 1.868483
1.857199 11.544678 2.163363
2.036533 11.375759 1.727478
1.950645 11.457116 1.940219
2.440457 11.460711 2.200144
1.874396 11.563240 2.123046
2.027675 11.383197 1.756795
1.839869 11.516253 2.200483
1.854473 11.483752 2.114406
1.985999 11.359226 1.808769
1.937386 11.418180 1.977588
1.835759 11.485294 2.233170
1.956658 11.389351 1.913485
2.018255 11.404853 1.775555
2.038149 11.383862 1.733361
2.015684 11.397010 1.777454
1.885806 11.416418 2.092555
1.841190 11.554583 2.193084
1.930678 11.467528 1.971378
1.978932 11.361480 1.792804
1.962783 11.437512 1.922132
1.865955 11.497046 2.174768
1.859501 11.495164 2.188925
1.949152 11.407929 1.961480
1.941906 11.405547 1.950718
1.867520 11.513870 2.144162
1.846763 11.466663 2.228267
1.921894 11.433517 2.179636
1.909563 11.369328 1.982588
1.846331 11.435457 2.262808
1.996662 11.357377 1.788877
2.000407 11.348960 1.791669
1.841503 11.506639 2.214710
1.876811 11.364184 2.106725
1.929166 11.419257 1.992263
1.913582 11.447332 2.229142
1.957741 11.388490 1.943983
1.771177 11.462311 2.409349
1.856288 11.446464 2.211517
1.938489 11.358881 1.978294
1.936644 11.355757 1.968056
1.864832 11.464763 2.168350
1.837421 11.417433 2.244604
1.866142 11.381716 2.163027
1.836828 11.459098 2.234963
1.924941 11.369557 2.012415
1.843393 11.397148 2.201452
1.935649 11.340500 1.956087
1.858220 11.396356 2.238303
1.861746 11.415987 2.193386
1.884433 11.365535 2.304250
1.828405 11.410035 2.251669
1.837757 11.346758 2.220017
1.861094 11.345492 2.265833
1.918061 11.363876 2.259920
1.829288 11.360748 2.275264
