# .PCD v0.7 - Point Cloud Data file format
VERSION 0.7
FIELDS x y z
SIZE 4 4 4
TYPE F F F
COUNT 1 1 1
WIDTH 577
HEIGHT 1
VIEWPOINT 0 0 0 1
POINTS 577
DATA ascii
1.549773 13.026771 1.082211
1.425339 13.006538 1.153132
1.374943 13.061426 1.299156
1.518528 13.042189 1.193402
1.511386 12.971821 1.093804
1.542369 13.040230 1.116881
1.369849 13.176057 1.529518
1.624631 13.023164 1.118191
1.427376 13.005524 1.154547
1.387219 13.068782 1.290148
1.844081 13.542093 1.855602
1.466909 12.988619 1.182744
1.397996 13.060063 1.352108
1.360579 13.175560 1.504033
1.496184 13.057494 1.228468
1.388178 13.028243 1.321596
1.593194 13.038984 1.232666
1.461362 12.987003 1.099194
1.375484 13.058815 1.275699
1.533122 13.046227 1.150217
1.512627 12.974288 1.109952
1.573490 12.961439 1.127699
1.820209 13.569911 1.903639
1.360810 13.126512 1.541027
1.431831 13.002847 1.156618
1.602148 13.028734 1.148943
1.376588 13.080706 1.386593
1.738650 13.035026 1.161666
1.467932 12.986395 1.181809
1.396805 13.032733 1.309672
1.533882 12.981898 1.218623
1.840068 13.477677 1.876792
1.471184 13.064191 1.262289
1.440896 13.042505 1.386927
1.373155 13.052847 1.253429
1.349710 13.123660 1.513284
1.560537 13.050962 1.265379
1.412042 13.000782 1.346727
1.351295 13.088246 1.417563
1.438303 12.999806 1.150339
1.514050 13.045341 1.173449
1.462379 12.983848 1.108106
1.755143 13.571939 2.146129
1.396914 13.029292 1.296976
1.926076 13.161933 1.342585
1.517394 12.973557 1.127920
1.594725 13.035235 1.182934
1.336774 13.117042 1.487411
1.579993 12.965363 1.143379
1.874794 13.410615 1.817028
1.663622 12.962049 1.166828
1.748972 13.058017 1.200811
1.479877 12.987182 1.184826
1.818634 13.508945 1.924563
1.399243 13.052444 1.412659
1.455898 13.074054 1.291147
1.544931 12.985686 1.218783
2.011751 13.114554 1.242177
1.764555 13.592823 2.119479
1.422893 13.005426 1.334613
1.339631 13.119889 1.459221
1.542627 13.061476 1.300991
1.614109 12.979297 1.260278
1.839407 13.418820 1.899647
1.335531 13.104437 1.445937
1.948323 13.280391 1.600889
1.407035 13.029556 1.278052
1.351305 13.081697 1.529087
1.971805 13.219686 1.403085
1.461520 12.986427 1.382165
1.802831 13.531122 1.972865
1.369704 13.059266 1.440723
1.583450 13.038360 1.205848
1.486244 12.983186 1.176525
1.524484 12.973007 1.136274
1.753985 13.512022 2.162091
1.430998 13.006053 1.324038
1.581522 12.963264 1.159185
2.037349 13.163706 1.398346
1.756736 13.071497 1.239128
1.342313 13.076638 1.503265
1.674074 12.967523 1.182555
1.878286 13.356607 1.839853
1.548873 12.980552 1.218074
1.818683 13.450284 1.945310
2.067530 13.159380 1.293890
1.872549 13.009435 1.233647
1.900651 13.296983 1.635161
1.529067 13.072741 1.330085
1.763085 13.530506 2.135103
1.629099 12.982788 1.258883
2.076242 13.090869 1.282667
1.470952 12.990213 1.368546
1.654130 13.581607 2.303291
1.343340 13.077130 1.472816
2.050997 13.136999 1.399341
1.998875 13.257448 1.460610
1.782180 13.554274 2.012545
1.360218 13.078126 1.470979
1.833784 13.357208 1.920102
1.446788 13.009274 1.305402
1.950689 13.226536 1.626667
1.881673 13.361490 1.808684
1.770143 13.545163 2.107548
2.018196 13.188668 1.441540
1.969991 13.203244 1.591108
1.800955 13.471004 1.990936
1.416057 13.044507 1.476018
1.755973 13.456219 2.181399
1.554323 12.974450 1.207839
1.771787 13.087926 1.270229
1.591240 12.962515 1.166502
1.782450 13.558973 2.072199
1.473990 12.987123 1.353550
1.702725 12.976174 1.203259
2.031104 13.107925 1.422009
2.053753 13.164554 1.331282
1.357677 13.042658 1.523499
1.880374 13.013243 1.248795
1.881776 13.302605 1.862679
1.650349 12.985683 1.261895
1.817819 13.391377 1.965729
2.084691 13.049788 1.306055
2.065019 13.103707 1.319284
1.933802 13.260446 1.671963
1.972693 13.266583 1.492824
1.765975 13.473103 2.153138
2.055262 13.133804 1.393214
2.072727 13.037695 1.308916
1.975783 13.203710 1.568824
1.655007 13.522268 2.322352
1.784965 13.497759 2.030161
1.350698 13.037236 1.489328
2.044751 13.081220 1.423004
1.998395 13.201877 1.483381
1.389054 13.053424 1.498509
1.758277 13.130419 1.421191
1.887286 13.308537 1.830904
1.835253 13.301265 1.943954
1.770795 13.483902 2.122568
1.948503 13.171425 1.650802
1.980154 13.155250 1.618172
2.014579 13.132693 1.464170
1.688265 13.447629 2.308794
1.795338 13.410781 2.007276
1.912216 13.280093 1.713837
1.755631 13.399313 2.198875
2.040569 13.166666 1.357219
1.671280 12.985258 1.253122
1.730253 12.982204 1.213868
1.786233 13.498116 2.087358
1.975785 13.196999 1.546759
1.984322 13.053373 1.286353
2.050129 13.108574 1.353912
1.884677 13.306187 1.797516
2.028097 13.053512 1.447833
2.083203 13.047769 1.317987
1.877975 13.244739 1.881275
2.057379 13.124444 1.388621
1.810886 13.331258 1.982585
2.062212 13.050731 1.343426
2.084211 12.997919 1.332028
1.927871 13.203373 1.692766
1.986694 13.219188 1.517918
1.766436 13.415492 2.168923
2.047186 13.075671 1.414619
2.069515 12.985073 1.333903
1.987758 13.154368 1.594944
1.780055 13.437731 2.044393
1.658424 13.467336 2.343167
1.392995 13.018116 1.520950
1.995996 13.146703 1.505078
1.894478 13.301739 1.749619
2.041137 13.027101 1.447236
1.994906 13.197904 1.517630
1.884796 13.250571 1.848984
1.770436 13.423291 2.136841
1.833892 13.245467 1.966404
1.946316 13.116320 1.674939
1.974627 13.099679 1.639730
2.007828 13.076319 1.486661
1.796001 13.355077 2.027101
1.756107 13.345409 2.217866
1.670499 13.376210 2.315721
1.916106 13.227590 1.737420
2.041196 13.112791 1.378637
2.066299 13.080940 1.309187
2.061200 13.113715 1.371217
1.782723 13.433395 2.098288
1.989884 13.148709 1.572272
2.081291 13.040988 1.331692
1.896464 13.256796 1.821201
2.041854 13.052237 1.374482
2.020744 12.999287 1.470334
1.877624 13.191529 1.901953
2.076850 12.992890 1.341233
2.050918 13.066759 1.408246
1.810233 13.275657 2.002927
2.043312 12.990532 1.362908
1.932266 13.151476 1.717523
2.078366 12.943647 1.356448
1.980646 13.161156 1.536701
1.768823 13.359345 2.187388
2.044278 13.021748 1.436743
2.063982 12.933200 1.358662
1.982936 13.098992 1.614393
1.782337 13.382476 2.062438
1.897475 13.252685 1.776079
1.898166 13.249181 1.770765
1.991676 13.091928 1.525702
2.037425 12.973885 1.471052
1.887167 13.196268 1.869045
1.777274 13.369300 2.156530
1.999177 13.143194 1.538763
1.943021 13.062760 1.697912
1.828478 13.187168 1.986784
1.972134 13.045416 1.661011
1.991366 13.017726 1.504276
1.753744 13.289803 2.233852
1.789167 13.295455 2.040258
1.908250 13.169067 1.755548
1.673213 13.322941 2.340248
2.040002 13.058417 1.399400
2.074507 13.029633 1.331969
2.050687 13.053524 1.388774
1.778710 13.369929 2.109647
1.991327 13.094144 1.592002
2.074735 12.986054 1.352502
1.892043 13.197377 1.836605
2.047440 13.001131 1.398300
1.875445 13.135971 1.920373
2.015211 12.945572 1.493493
2.075255 12.940721 1.364442
2.048411 13.012486 1.429525
1.813228 13.222919 2.026186
2.039799 12.938760 1.385042
2.074957 12.892827 1.380602
1.765541 13.301634 2.201443
1.978043 13.105933 1.555963
1.927145 13.095563 1.738239
2.043189 12.968334 1.459526
2.042257 12.875007 1.378343
1.778646 13.325109 2.077339
1.980843 13.044378 1.634830
1.895472 13.193011 1.788011
1.909759 13.202049 1.799337
1.988265 13.037411 1.546655
2.029464 12.919960 1.491963
1.884887 13.141604 1.887048
1.777223 13.311096 2.171144
1.997475 13.086372 1.556751
1.941546 13.009711 1.721545
1.824285 13.131523 2.007832
1.969041 12.993301 1.682304
1.987148 12.963916 1.526921
1.757867 13.238766 2.255762
1.795708 13.244623 2.064415
1.910523 13.117512 1.776795
2.031112 13.000533 1.416778
2.072799 12.974658 1.351557
2.055659 13.000861 1.409399
1.783816 13.312692 2.127496
1.984673 13.036420 1.609195
2.070401 12.931281 1.373124
1.888031 13.139463 1.852766
2.038967 12.946600 1.418037
1.868113 13.081304 1.937161
1.995619 12.888437 1.512571
2.057878 12.883729 1.383330
2.041753 12.956609 1.448318
1.808833 13.167216 2.044798
1.764996 13.246532 2.218087
1.977670 13.052719 1.576639
2.050403 12.834780 1.398881
2.040936 12.887356 1.409239
1.921926 13.040554 1.758538
1.776676 13.269150 2.092480
2.024801 12.910142 1.476067
1.975920 12.989909 1.653864
2.041481 12.825850 1.403067
1.893999 13.139496 1.805924
1.989210 12.985951 1.568416
1.907557 13.142787 1.814554
2.016547 12.865134 1.512077
1.886657 13.089453 1.907122
1.771198 13.250783 2.182613
1.998405 13.031210 1.575309
1.967769 12.941695 1.704256
1.935519 12.955408 1.743536
1.821813 13.077283 2.029122
1.989007 12.914563 1.550613
1.792430 13.190616 2.081675
1.906012 13.062698 1.794986
2.021721 12.943904 1.434587
2.075445 12.922741 1.371953
2.050213 12.945782 1.427257
1.785582 13.254994 2.142768
1.980149 12.981602 1.627384
1.868473 13.030153 1.957335
2.065968 12.877410 1.393330
1.891210 13.086316 1.872742
2.020576 12.888411 1.434579
1.997983 12.839690 1.537438
2.053550 12.830816 1.405556
2.040360 12.904041 1.468247
1.765360 13.191689 2.235062
1.804437 13.111521 2.063411
1.978509 13.000308 1.596382
2.033280 12.835835 1.430490
2.049723 12.784727 1.424024
1.919847 12.987804 1.780581
1.780282 13.217508 2.113216
2.020685 12.858675 1.496613
1.957839 12.930426 1.667543
2.042525 12.777198 1.428450
1.893033 13.086588 1.825013
1.977505 12.930076 1.585997
1.909315 13.088782 1.833026
2.006164 12.812864 1.532344
1.883464 13.034548 1.924798
1.772062 13.194691 2.199160
1.996504 12.976192 1.592464
1.960524 12.887981 1.723063
1.931623 12.904008 1.766524
1.817929 13.024043 2.050512
1.983984 12.862849 1.570832
1.797050 13.140182 2.104760
1.902418 13.009993 1.815110
2.021237 12.891592 1.454845
2.055122 12.863092 1.385820
2.032117 12.886288 1.440935
1.980891 12.930091 1.646710
1.788256 13.197555 2.158370
1.868430 12.979357 1.978358
1.891960 13.032963 1.890469
2.047474 12.820121 1.409455
2.024240 12.837712 1.457326
1.994483 12.789787 1.561180
2.047606 12.778848 1.425445
2.017721 12.845146 1.481885
1.766133 13.138346 2.252795
1.962549 12.941872 1.609456
1.803590 13.059581 2.084525
1.906538 12.932880 1.795827
2.031586 12.784580 1.453286
2.041662 12.733563 1.446122
1.776800 13.163450 2.128041
2.019799 12.806720 1.517719
1.958179 12.879272 1.687716
2.035882 12.726890 1.452051
1.885684 13.030073 1.840202
1.972887 12.878013 1.605372
1.903780 13.030919 1.847270
2.007921 12.764413 1.555621
1.877842 12.979438 1.940227
1.771004 13.138996 2.214634
1.975580 12.914999 1.603140
1.740161 13.074597 2.297609
1.954598 12.836023 1.742957
1.926307 12.851759 1.788011
1.790530 13.084827 2.119863
1.979469 12.811744 1.592227
1.817383 12.971268 2.074483
1.900947 12.958339 1.834628
2.034158 12.834678 1.459742
2.016601 12.837677 1.472617
2.053721 12.810531 1.405750
1.860996 12.925600 1.994733
1.978998 12.876933 1.665470
1.785465 13.138609 2.172003
2.047296 12.770208 1.430053
1.882284 12.975348 1.903828
2.020423 12.786797 1.476611
1.989562 12.739035 1.583422
2.048444 12.730142 1.448392
2.018958 12.794242 1.502384
1.961976 12.890466 1.629301
1.805171 13.007854 2.107890
2.029695 12.735123 1.475248
1.899297 12.879178 1.814638
1.779796 13.112110 2.147187
2.043008 12.685463 1.470244
2.015583 12.756158 1.537850
1.956295 12.827971 1.708079
1.886340 12.979469 1.859115
2.030356 12.678279 1.474301
1.967454 12.824807 1.624838
2.005026 12.715605 1.576838
1.902294 12.975567 1.863585
1.875868 12.927189 1.958574
1.769846 13.084201 2.229691
1.727276 13.018883 2.306295
1.978541 12.863647 1.622279
1.937444 12.781897 1.756053
1.909361 12.797691 1.803547
1.793228 13.034793 2.141876
1.820288 12.923141 2.100536
1.977684 12.761395 1.614610
1.895932 12.904789 1.853252
2.014097 12.786664 1.491386
2.049794 12.758660 1.423015
2.034072 12.782022 1.479158
2.039679 12.755405 1.423103
1.865814 12.878460 2.017740
1.956056 12.817047 1.674655
1.782073 13.081811 2.185647
1.886172 12.924256 1.923300
2.037495 12.715336 1.444591
2.047215 12.719404 1.451071
2.021158 12.737143 1.497540
1.984855 12.691578 1.605586
2.040079 12.679824 1.467638
2.036413 12.674658 1.457397
2.019284 12.743089 1.522557
1.961803 12.838714 1.648301
1.803214 12.957461 2.127842
2.033300 12.630624 1.475358
1.781381 13.061769 2.166433
1.900062 12.831384 1.837174
2.021331 12.684807 1.494494
2.027368 12.634988 1.488463
1.954616 12.778114 1.726762
2.014096 12.706354 1.558969
1.887601 12.928576 1.879621
2.021284 12.627771 1.495657
1.965369 12.775301 1.644366
1.872884 12.875587 1.976176
2.000505 12.664506 1.598236
1.899897 12.919967 1.879574
1.764535 13.027803 2.242261
1.730292 12.971252 2.328650
1.976438 12.810437 1.638603
1.934149 12.731599 1.776519
1.785697 12.980093 2.156236
1.905765 12.746852 1.825278
1.972971 12.712090 1.635173
1.897502 12.856292 1.874098
1.810331 12.868700 2.118369
2.015636 12.736309 1.510624
1.860609 12.826712 2.035532
2.045963 12.705898 1.440700
2.026906 12.728801 1.494265
2.042123 12.705300 1.442670
1.959837 12.768699 1.695310
1.882678 12.872052 1.939728
2.045419 12.670438 1.469333
2.031754 12.664822 1.462803
1.786070 13.027982 2.203941
2.015018 12.686979 1.516599
1.750536 12.975247 2.294047
2.006728 12.623083 1.478859
1.982665 12.641586 1.628817
2.026324 12.622947 1.476405
2.020323 12.693982 1.542225
1.778305 13.009220 2.182019
1.955666 12.786704 1.665761
1.802373 12.907380 2.150564
2.012056 12.634245 1.513413
1.897781 12.780443 1.858389
2.070683 12.595691 1.526521
1.949900 12.726962 1.745726
2.005325 12.654545 1.577462
1.884711 12.876078 1.897642
1.964192 12.726048 1.664225
1.870809 12.824241 1.994108
1.982942 12.612586 1.613782
1.728649 12.921417 2.347344
1.901452 12.867771 1.897217
1.766622 12.976221 2.261084
1.975656 12.758983 1.656013
1.934397 12.683204 1.797884
1.787794 12.932207 2.178262
1.903999 12.698365 1.849270
1.971488 12.662294 1.656296
1.892288 12.804542 1.891890
1.808576 12.818371 2.140763
2.011211 12.685698 1.528322
1.853482 12.775362 2.052251
2.028345 12.679344 1.513088
2.042845 12.655184 1.457878
2.036782 12.654435 1.460037
1.955012 12.716595 1.712253
1.882010 12.819710 1.957562
2.022074 12.614612 1.482569
1.741796 12.921147 2.305226
2.011100 12.636972 1.535471
1.789967 12.975049 2.221818
2.032482 12.615172 1.483735
1.982606 12.594493 1.653047
1.776547 12.958425 2.198691
2.012353 12.641472 1.559027
1.951652 12.735746 1.682615
1.799603 12.855847 2.170610
2.014714 12.586054 1.537024
1.897830 12.730610 1.881437
1.946397 12.676610 1.763756
1.870893 12.821956 1.907602
1.991296 12.602677 1.592303
1.868733 12.772898 2.012043
1.957650 12.674397 1.682532
1.717490 12.868964 2.357878
1.903103 12.814681 1.915280
1.969408 12.706024 1.671454
1.897316 12.625918 1.801657
1.782089 12.879867 2.194885
1.970414 12.613999 1.678178
1.903642 12.648885 1.873166
1.889402 12.753899 1.911515
1.807935 12.768351 2.165927
1.853745 12.726974 2.073622
2.012649 12.636245 1.547146
2.026576 12.601312 1.471306
2.017132 12.625480 1.527731
2.033761 12.602830 1.477636
1.954738 12.665749 1.730842
1.882154 12.768516 1.975308
1.743488 12.871771 2.326501
2.002628 12.585715 1.552702
1.781508 12.916408 2.232651
1.773575 12.906837 2.216300
2.032099 12.596140 1.584841
1.954011 12.686549 1.701770
1.796430 12.804668 2.191504
1.894440 12.681217 1.901491
1.922157 12.621937 1.772549
1.872963 12.772220 1.928024
1.720101 12.821691 2.381085
1.962442 12.627256 1.705540
1.855122 12.718843 2.024445
1.886641 12.757065 1.923073
1.962249 12.652820 1.686569
1.781041 12.829736 2.215173
1.875285 12.701090 1.924344
1.912495 12.602863 1.902370
1.856738 12.679338 2.095980
1.802536 12.717024 2.187012
1.942430 12.613438 1.744326
1.732923 12.817178 2.337028
1.876932 12.714925 1.991503
1.774145 12.857150 2.234808
1.779429 12.861375 2.247388
1.948780 12.634803 1.719564
1.791336 12.753886 2.211326
1.887310 12.631721 1.919815
1.868862 12.722171 1.944468
1.860433 12.670464 2.047033
1.761634 12.817468 2.309163
1.885968 12.704728 1.940911
1.778984 12.780252 2.234717
1.873717 12.652203 1.945058
1.800884 12.667653 2.211435
1.734915 12.768350 2.357043
1.865540 12.661025 2.003719
1.769251 12.805963 2.251346
1.778366 12.807548 2.264475
1.787151 12.703358 2.231479
1.869519 12.673434 1.964994
1.827905 12.613989 2.046736
1.747315 12.760922 2.316359
1.881142 12.650790 1.956263
1.776622 12.730225 2.255527
1.868398 12.601364 1.962441
1.918473 12.595685 2.181273
1.791742 12.616227 2.230793
1.860019 12.610129 2.018664
1.772656 12.757984 2.272864
1.787625 12.655035 2.255297
1.865514 12.622494 1.981860
1.841211 12.568272 2.075571
1.745153 12.710492 2.333888
1.778409 12.681802 2.278828
1.900900 12.591731 2.340069
1.768870 12.601895 2.266078
1.745006 12.658772 2.352913
1.768487 12.645168 2.310597
1.772670 12.582400 2.319716
1.765095 12.592096 2.327466
