# .PCD v0.7 - Point Cloud Data file format
VERSION 0.7
FIELDS x y z
SIZE 4 4 4
TYPE F F F
COUNT 1 1 1
WIDTH 878
HEIGHT 1
VIEWPOINT 0 0 0 1
POINTS 878
DATA ascii
-1.463220 5.548208 0.916478
-1.445953 5.458753 0.965595
-1.518341 5.653167 1.103217
-1.394405 5.448242 0.829091
-1.342786 5.489934 0.690768
-1.346716 5.408609 0.715719
-1.468800 5.469179 1.058706
-1.506138 5.568863 1.073934
-1.255889 5.407443 0.464555
-1.235178 5.387885 0.408475
-1.463804 5.391387 1.052075
-1.482765 5.552817 1.022627
-1.485393 5.477307 1.036752
-1.479773 5.640958 1.013769
-1.336504 5.491757 0.596319
-1.410457 5.578828 0.833803
-1.518562 5.689831 1.097791
-1.300905 5.384960 0.596044
-1.378342 5.391432 0.812292
-1.408533 5.493157 0.815600
-1.360070 5.539209 0.677124
-1.351424 5.449600 0.703190
-1.499180 5.602414 1.066578
-1.490099 5.515424 1.048023
-1.165598 5.358729 0.233846
-1.453213 5.416964 1.030704
-1.255230 5.449577 0.451990
-1.231814 5.426849 0.393981
-1.463108 5.425321 1.041023
-1.480682 5.512654 1.028510
-1.483898 5.592906 1.015032
-1.478676 5.682049 1.008184
-1.257842 5.372882 0.481670
-1.418757 5.620948 0.823688
-1.323730 5.526968 0.587682
-1.517446 5.727213 1.091525
-1.298434 5.422908 0.584037
-1.177448 5.395749 0.259058
-1.375876 5.429393 0.800280
-1.398439 5.526850 0.806198
-1.361660 5.582301 0.666567
-1.340444 5.485397 0.695755
-1.505692 5.644057 1.057702
-1.118519 5.350924 0.098486
-1.348458 5.412715 0.717943
-1.165820 5.399572 0.216428
-1.482251 5.550010 1.038177
-1.214329 5.359918 0.379179
-1.229351 5.466589 0.381097
-1.484383 5.467865 1.029657
-1.248745 5.489842 0.442355
-1.445812 5.451870 1.019210
-1.482693 5.550647 1.018939
-1.476960 5.630161 1.008351
-1.479832 5.725913 1.003718
-1.421682 5.662411 0.814409
-1.257619 5.413519 0.468333
-1.511842 5.762830 1.086134
-1.323961 5.567978 0.575152
-1.307175 5.466084 0.566932
-1.179929 5.440273 0.242320
-1.378784 5.468910 0.786984
-1.402703 5.568430 0.794873
-1.120520 5.388482 0.104065
-1.088122 5.362210 0.020449
-1.367750 5.629952 0.656254
-1.504575 5.682353 1.050993
-1.090377 5.365070 0.024022
-1.359068 5.534779 0.680064
-1.115614 5.392901 0.081028
-1.343296 5.449481 0.708020
-1.167850 5.443619 0.196444
-1.564390 5.593766 1.241209
-1.486513 5.590701 1.027293
-1.242145 5.514650 0.358107
-1.218143 5.402750 0.361277
-1.473838 5.501185 1.019449
-1.272763 5.544203 0.418727
-1.482020 5.588356 1.011036
-1.181230 5.369858 0.270954
-1.479213 5.503242 1.005482
-1.481238 5.672816 1.001497
-1.479639 5.768686 0.999314
-1.410701 5.697291 0.807432
-1.510285 5.801713 1.080645
-1.280758 5.399340 0.557039
-1.322409 5.609402 0.563445
-1.256512 5.455268 0.454977
-1.314588 5.510966 0.551010
-1.259154 5.382218 0.485346
-1.173897 5.481743 0.230613
-1.364960 5.413761 0.764411
-1.390224 5.513457 0.772704
-1.399351 5.607567 0.785288
-1.114938 5.431078 0.087824
-1.503913 5.721859 1.042212
-1.361278 5.671198 0.648640
-1.080747 5.404315 0.005452
-1.083452 5.407566 0.009828
-1.363798 5.579458 0.668237
-1.150343 5.373923 0.180523
-1.119447 5.439153 0.056484
-1.345767 5.490497 0.695505
-1.239699 5.557095 0.343914
-1.346127 5.409791 0.717163
-1.478086 5.539162 1.009901
-1.205819 5.439179 0.350568
-1.173938 5.492646 0.173025
-1.484507 5.630035 1.018108
-1.263600 5.585080 0.410311
-1.474176 5.623929 1.003213
-1.181921 5.413817 0.253026
-1.480139 5.713908 0.995927
-1.411840 5.739161 0.798978
-1.511419 5.841862 1.075520
-1.463752 5.537121 0.994042
-1.482599 5.814925 0.995196
-1.320857 5.650817 0.551740
-1.277847 5.438712 0.543360
-1.255855 5.497400 0.442426
-1.308993 5.550035 0.538980
-1.256248 5.422493 0.471226
-1.119865 5.370473 0.102211
-1.400488 5.649367 0.774383
-1.185819 5.533614 0.206275
-1.389566 5.554697 0.760592
-1.363395 5.453329 0.751130
-1.107565 5.473263 0.075278
-1.194163 5.373236 0.335739
-1.498325 5.760195 1.035518
-1.364236 5.718161 0.639187
-1.093105 5.455328 -0.027434
-1.083913 5.350135 0.007760
-1.082806 5.453039 -0.011825
-1.372126 5.627002 0.655490
-1.366179 5.539463 0.679026
-1.098802 5.368973 0.046299
-1.142964 5.415133 0.165966
-1.111184 5.482361 0.041450
-1.237265 5.601342 0.328841
-1.165663 5.533138 0.159315
-1.352176 5.450890 0.702601
-1.478759 5.577880 0.999511
-1.232074 5.494173 0.319166
-1.482501 5.669363 1.008924
-1.260724 5.630012 0.398890
-1.485185 5.670136 0.994596
-1.515707 5.885477 1.070681
-1.409395 5.779963 0.790565
-1.176332 5.454693 0.240116
-1.272937 5.378874 0.520546
-1.482636 5.757870 0.989439
-1.318416 5.693340 0.539998
-1.481974 5.860094 0.991119
-1.470718 5.580899 0.982652
-1.304989 5.491881 0.517332
-1.273152 5.550023 0.419692
-1.307000 5.592879 0.525589
-1.256033 5.464033 0.457471
-1.117866 5.414052 0.083485
-1.176314 5.386834 0.269476
-1.393106 5.688028 0.766047
-1.185630 5.579639 0.190322
-1.391150 5.596810 0.748041
-1.377530 5.499973 0.734325
-1.257762 5.388245 0.482214
-1.121285 5.527249 0.043922
-1.197983 5.416886 0.314963
-1.495428 5.799798 1.029189
-1.098750 5.505665 -0.054979
-1.360922 5.763772 0.631421
-1.094731 5.506447 -0.044385
-1.071574 5.386615 -0.027867
-1.082815 5.395228 -0.014697
-1.367445 5.668739 0.646635
-1.230785 5.642402 0.316337
-1.361486 5.579319 0.668601
-1.117275 5.532186 0.015148
-1.467767 5.610883 0.990966
-1.095009 5.411973 0.026369
-1.165477 5.579980 0.140474
-1.349707 5.488842 0.690608
-1.141415 5.459016 0.145595
-1.226041 5.535555 0.305014
-1.521800 5.931467 1.066167
-1.483193 5.710864 0.999665
-1.409647 5.822932 0.782076
-1.256955 5.675144 0.387874
-1.479145 5.708085 0.987100
-1.483341 5.801334 0.984197
-1.181966 5.502512 0.218785
-1.316432 5.737150 0.528620
-1.271827 5.420550 0.504742
-1.116095 5.353703 0.105220
-1.488537 5.910179 0.988092
-1.462882 5.618201 0.971500
-1.267573 5.591879 0.408791
-1.294021 5.530303 0.506144
-1.305007 5.635715 0.512201
-1.272869 5.514466 0.434815
-1.117670 5.459921 0.062635
-1.181037 5.432078 0.247418
-1.396952 5.733801 0.754186
-1.184558 5.627673 0.173893
-1.383318 5.635085 0.738901
-1.122001 5.575684 0.023801
-1.130630 5.390096 0.129237
-1.258438 5.429501 0.465609
-1.379566 5.543307 0.719687
-1.493886 5.841390 1.022382
-1.204054 5.463217 0.292867
-1.086009 5.548086 -0.067119
-1.357608 5.809374 0.623657
-1.091860 5.553816 -0.064466
-1.231498 5.689114 0.299546
-1.076336 5.437939 -0.032979
-1.068684 5.431210 -0.049077
-1.158555 5.622449 0.126289
-1.363225 5.712670 0.637703
-1.473830 5.653042 0.980864
-1.112608 5.578162 -0.003248
-1.371605 5.627355 0.654613
-1.515321 5.970071 1.062331
-1.366982 5.537051 0.672523
-1.093469 5.457656 0.005119
-1.153332 5.510715 0.116363
-1.409017 5.867913 0.773108
-1.177422 5.361272 0.275248
-1.224059 5.581015 0.287857
-1.480749 5.751685 0.991249
-1.475797 5.747302 0.979969
-1.259478 5.725228 0.373413
-1.315346 5.781649 0.516403
-1.481811 5.844817 0.978957
-1.188504 5.551921 0.196174
-1.560407 5.751594 1.203223
-1.111853 5.396406 0.086935
-1.491521 5.960097 0.984666
-1.268486 5.463149 0.488499
-1.458193 5.658069 0.961075
-1.268292 5.639597 0.394005
-1.297862 5.576820 0.488945
-1.305712 5.680720 0.498738
-1.276705 5.560073 0.418058
-1.394516 5.776411 0.744894
-1.184296 5.389787 0.276263
-1.121967 5.509265 0.037577
-1.177693 5.474655 0.231181
-1.185289 5.677994 0.155340
-1.376400 5.676770 0.727598
-1.500426 5.887690 1.016224
-1.120941 5.626333 0.003604
-1.066943 5.376570 -0.022647
-1.122355 5.431424 0.112638
-1.257778 5.471555 0.450612
-1.057482 5.367857 -0.054197
-1.079550 5.389072 -0.008392
-1.371298 5.583914 0.708421
-1.213278 5.512924 0.268608
-1.521869 6.017341 1.058184
-1.079559 5.595374 -0.085150
-1.230428 5.737136 0.283120
-1.084962 5.600798 -0.080852
-1.357459 5.860249 0.615298
-1.156138 5.670203 0.107014
-1.411529 5.914545 0.765309
-1.362147 5.758172 0.627491
-1.066728 5.480960 -0.048410
-1.056833 5.473351 -0.064067
-1.473621 5.693845 0.972448
-1.107052 5.625242 -0.021681
-1.362889 5.667637 0.644996
-1.146858 5.553501 0.100532
-1.360945 5.576724 0.661699
-1.100908 5.509307 -0.026557
-1.219381 5.624374 0.273230
-1.177205 5.403548 0.256159
-1.476052 5.790376 0.973926
-1.481458 5.795972 0.983120
-1.260215 5.775718 0.359758
-1.309338 5.825886 0.505833
-1.487024 5.893731 0.973523
-1.182941 5.597297 0.181067
-1.553931 5.790968 1.194043
-1.497653 6.012570 0.981968
-1.104926 5.438818 0.070298
-1.281292 5.513120 0.467087
-1.264072 5.684337 0.382188
-1.285558 5.616037 0.479369
-1.461141 5.703168 0.950054
-1.301044 5.725070 0.486118
-1.109750 5.358161 0.091939
-1.394783 5.822093 0.735085
-1.266652 5.601978 0.407160
-1.177048 5.724056 0.143891
-1.184090 5.433868 0.256293
-1.196341 5.529906 0.200187
-1.120000 5.558243 0.016214
-1.498451 5.931676 1.009744
-1.382491 5.724328 0.714858
-1.113145 5.672612 -0.011938
-1.119007 5.473907 0.093956
-1.067191 5.422662 -0.047587
-1.278203 5.523872 0.425030
-1.527986 6.067009 1.054361
-1.206799 5.554815 0.253217
-1.057733 5.414768 -0.082026
-1.080246 5.435469 -0.034977
-1.409102 5.958116 0.758031
-1.224431 5.783991 0.268782
-1.065935 5.639800 -0.097764
-1.358203 5.910904 0.606541
-1.375144 5.630523 0.693670
-1.151934 5.718362 0.088544
-1.080320 5.651277 -0.101447
-1.470722 5.733369 0.963673
-1.106890 5.676488 -0.045164
-1.084047 5.539357 -0.088907
-1.071006 5.529268 -0.102840
-1.108957 5.377306 0.080629
-1.354354 5.802922 0.620170
-1.359562 5.711362 0.635665
-1.142191 5.599481 0.082137
-1.218753 5.671808 0.255599
-1.364780 5.621519 0.647831
-1.100731 5.558682 -0.051611
-1.476312 5.834350 0.967444
-1.307825 5.873681 0.493503
-1.256020 5.824135 0.348632
-1.478126 5.837893 0.974670
-1.172067 5.445557 0.238717
-1.487753 5.940877 0.968973
-1.182317 5.645633 0.162995
-1.499308 6.064181 0.979712
-1.562269 5.838690 1.186196
-1.119983 5.492830 0.034449
-1.266150 5.734932 0.366486
-1.278406 5.556995 0.451213
-1.287618 5.663857 0.462538
-1.292792 5.768435 0.475989
-1.459605 5.746497 0.939917
-1.391459 5.865800 0.725758
-1.109094 5.402664 0.068280
-1.264667 5.646615 0.392895
-1.175555 5.776276 0.126911
-1.180003 5.568648 0.191858
-1.118483 5.607601 -0.004344
-1.500968 5.978401 1.004393
-1.057336 5.359765 -0.044965
-1.058676 5.359779 -0.049459
-1.194658 5.484584 0.229548
-1.042918 5.346502 -0.092692
-1.384559 5.772316 0.702923
-1.530967 6.115999 1.051383
-1.112102 5.725952 -0.033451
-1.132728 5.528718 0.059714
-1.413435 6.009825 0.749237
-1.062068 5.468180 -0.069234
-1.268587 5.564278 0.413369
-1.223822 5.834193 0.252283
-1.050363 5.458500 -0.102791
-1.201685 5.600502 0.236466
-1.076921 5.482379 -0.058308
-1.150887 5.770797 0.067472
-1.362112 5.966826 0.597189
-1.473217 5.777242 0.954742
-1.104496 5.728652 -0.069085
-1.356429 5.851878 0.610247
-1.377203 5.677538 0.679725
-1.362522 5.759137 0.623330
-1.076701 5.586769 -0.108983
-1.139332 5.648654 0.061180
-1.107408 5.422012 0.057373
-1.306768 5.922761 0.481537
-1.361446 5.664261 0.636493
-1.479271 5.880490 0.960886
-1.047065 5.569271 -0.108756
-1.217247 5.722154 0.237050
-1.092038 5.605092 -0.069199
-1.253634 5.875829 0.337392
-1.481994 5.886541 0.966388
-1.157064 5.483507 0.228781
-1.488039 5.988614 0.965630
-1.177220 5.694096 0.147375
-1.499170 6.115295 0.978704
-1.557148 5.880130 1.178990
-1.115767 5.540027 0.013968
-1.256115 5.779609 0.356722
-1.293973 5.818327 0.461132
-1.289236 5.712265 0.446914
-1.268801 5.599212 0.438671
-1.392637 5.914057 0.716679
-1.461222 5.793290 0.930066
-1.105749 5.445970 0.046711
-1.175869 5.831683 0.107369
-1.262249 5.693652 0.378957
-1.501248 6.025144 0.999044
-1.528554 6.160634 1.048565
-1.111140 5.655093 -0.021970
-1.181623 5.618690 0.170457
-1.055338 5.404894 -0.071910
-1.058027 5.405996 -0.076444
-1.190884 5.530380 0.210749
-1.109271 5.779696 -0.054157
-1.411486 6.058291 0.740564
-1.380794 5.817449 0.691912
-1.038234 5.391348 -0.117992
-1.218292 5.884132 0.237432
-1.127165 5.574824 0.039274
-1.266156 5.609437 0.397861
-1.058298 5.515596 -0.093806
-1.361526 6.019173 0.589602
-1.083021 5.534740 -0.090822
-1.199717 5.648661 0.217994
-1.144018 5.822273 0.048891
-1.474818 5.821314 0.946216
-1.030448 5.498890 -0.112399
-1.099871 5.781819 -0.090995
-1.354481 5.901266 0.601130
-1.306621 5.974335 0.467851
-1.049162 5.623162 -0.108638
-1.357420 5.805072 0.613926
-1.476402 5.924682 0.954811
-1.364013 5.717868 0.670113
-1.135585 5.698929 0.040186
-1.205860 5.765651 0.224879
-1.352734 5.705444 0.626440
-1.048250 5.622343 -0.137613
-1.088287 5.655278 -0.092641
-1.103179 5.467332 0.035325
-1.254854 5.932102 0.321904
-1.487211 5.936266 0.958070
-1.494626 6.042289 0.960850
-1.183343 5.543737 0.189847
-1.173028 5.744149 0.130474
-1.505782 6.172734 0.977061
-1.570453 5.933542 1.194229
-1.560115 5.927186 1.171990
-1.120083 5.592884 -0.015293
-1.257761 5.832592 0.341349
-1.287530 5.864878 0.448443
-1.391584 5.963234 0.707161
-1.280986 5.756449 0.433898
-1.267730 5.647265 0.422243
-1.534695 6.213977 1.045435
-1.174392 5.886590 0.089073
-1.457006 5.837226 0.921139
-1.506031 6.076434 0.993942
-1.120364 5.501397 0.009180
-1.258944 5.741793 0.364981
-1.108301 5.707863 -0.044685
-1.411791 6.109519 0.733019
-1.176524 5.667074 0.152390
-1.109148 5.837321 -0.078268
-1.056940 5.453705 -0.102663
-1.377935 5.864259 0.682069
-1.048418 5.449757 -0.097207
-1.221751 5.941099 0.216611
-1.188907 5.577561 0.190269
-1.050151 5.445332 -0.160780
-1.129241 5.626881 0.012903
-1.053383 5.796612 -0.166668
-1.262832 5.654794 0.382757
-1.050499 5.562624 -0.114683
-1.147931 5.881262 0.023096
-1.355563 6.069963 0.583302
-1.061041 5.804804 -0.161243
-1.068039 5.577097 -0.105401
-1.473290 5.865612 0.938093
-1.302890 6.024925 0.456656
-1.202247 5.701195 0.194874
-1.094364 5.836990 -0.113382
-1.041947 5.557146 -0.153293
-1.355241 5.954626 0.591056
-1.355458 5.852575 0.603242
-1.482974 5.976476 0.948463
-1.056194 5.681606 -0.144631
-1.203467 5.817089 0.206297
-1.130051 5.749609 0.019998
-1.357491 5.754615 0.612422
-1.254732 5.988266 0.308467
-1.044059 5.673939 -0.162736
-1.368781 5.768851 0.655213
-1.081856 5.706078 -0.114875
-1.484353 5.982257 0.951116
-1.114659 5.522080 -0.001362
-1.491783 6.090243 0.957914
-1.183158 5.591402 0.168125
-1.171987 5.797574 0.111413
-1.511958 6.231665 0.976185
-1.573860 5.979169 1.188917
-1.108699 5.638107 -0.030792
-1.256727 5.886189 0.327184
-1.555905 5.971204 1.165513
-1.287386 5.917365 0.434316
-1.393235 6.015478 0.697127
-1.536802 6.265945 1.043992
-1.277692 5.806393 0.419044
-1.171579 5.942293 0.072387
-1.504537 6.125384 0.988521
-1.263518 5.693733 0.407102
-1.416154 6.165802 0.724478
-1.259688 5.794003 0.348002
-1.460438 5.888196 0.910735
-1.106362 5.761317 -0.068239
-1.109876 5.547248 -0.009613
-1.176363 5.718415 0.131358
-1.214434 5.991433 0.202569
-1.100947 5.890485 -0.095678
-1.379577 5.915532 0.670025
-1.028944 5.488729 -0.105129
-1.030739 5.490038 -0.109261
-1.144216 5.936093 0.002357
-1.181564 5.625075 0.172642
-1.301407 6.077285 0.444581
-1.363098 6.133321 0.573284
-1.053740 5.859479 -0.182383
-1.263558 5.704226 0.364649
-1.023961 5.483555 -0.165812
-1.120118 5.676512 -0.007246
-1.473561 5.911379 0.930737
-1.050339 5.615516 -0.143939
-1.062049 5.627314 -0.128841
-1.192667 5.747893 0.180139
-1.358249 6.009756 0.580103
-1.357549 5.904233 0.592002
-1.480124 6.023449 0.943519
-1.052459 5.734484 -0.169388
-1.201535 5.870714 0.187639
-1.349235 5.797080 0.602737
-1.248785 6.042569 0.297960
-1.129920 5.806258 -0.006121
-1.498388 6.146696 0.954266
-1.479708 6.028657 0.944968
-1.359642 5.813336 0.645047
-1.111344 5.570786 -0.025569
-1.174912 5.637311 0.151781
-1.170064 5.853003 0.091875
-1.575036 6.025719 1.183166
-1.515004 6.290819 0.975714
-1.289495 5.972526 0.418871
-1.256598 5.941374 0.311739
-1.108548 5.691979 -0.058040
-1.390401 6.065957 0.687978
-1.560239 6.022129 1.159606
-1.502594 6.174021 0.984747
-1.277995 5.859195 0.403272
-1.415134 6.219625 0.717663
-1.166995 6.001111 0.055186
-1.258636 5.844810 0.332711
-1.268749 5.748537 0.386351
-1.465670 5.940630 0.901098
-1.099954 5.815800 -0.089782
-1.211184 6.048541 0.184202
-1.098600 5.950003 -0.118215
-1.169933 5.768489 0.114462
-1.103880 5.596574 -0.032613
-1.374937 5.963645 0.660550
-1.301299 6.135238 0.430268
-1.137825 5.992440 -0.017614
-1.047166 5.550192 -0.157576
-1.039545 5.547114 -0.148068
-1.361654 6.191350 0.565913
-1.472494 5.957861 0.922541
-1.180063 5.677148 0.150767
-1.259807 5.752878 0.349433
-1.115037 5.728402 -0.029518
-1.043006 5.665539 -0.167777
-1.354538 6.063232 0.572483
-1.192523 5.801933 0.157789
-1.356054 5.954820 0.580804
-1.481325 6.074579 0.938019
-1.058764 5.681328 -0.158133
-1.200507 5.925926 0.167702
-1.128438 5.860990 -0.029308
-1.253182 6.105883 0.281004
-1.349968 5.846673 0.589528
-1.058692 5.805115 -0.151067
-1.485855 6.083742 0.938508
-1.496024 6.199627 0.952383
-1.100857 5.616624 -0.044356
-1.355449 5.861772 0.633925
-1.574414 6.070866 1.179103
-1.170847 5.912311 0.068933
-1.170265 5.686900 0.131632
-1.283075 6.022749 0.406876
-1.390721 6.119891 0.679116
-1.254682 5.996963 0.297100
-1.102572 5.744070 -0.079907
-1.417712 6.276301 0.709932
-1.565029 6.074338 1.154064
-1.510560 6.233352 0.980182
-1.167804 6.064083 0.032935
-1.272920 5.910438 0.388786
-1.251768 5.895563 0.319470
-1.209294 6.108528 0.164918
-1.098042 5.873746 -0.115532
-1.258727 5.795842 0.372822
-1.171142 5.824508 0.091634
-1.455644 5.985401 0.893786
-1.304346 6.196641 0.416242
-1.101485 5.649578 -0.059419
-1.133243 6.051970 -0.040147
-1.378405 6.020894 0.647073
-1.368769 6.258893 0.555343
-1.473682 6.007107 0.915474
-1.065753 6.000237 -0.173900
-1.253814 5.800641 0.334661
-1.170934 5.725059 0.133949
-1.358474 6.123639 0.560940
-1.107274 5.780906 -0.050581
-1.487029 6.130252 0.932767
-1.356825 6.009976 0.569854
-1.195900 5.981056 0.149815
-1.047399 5.730059 -0.177834
-1.187458 5.855792 0.139536
-1.122936 5.917055 -0.052129
-1.253106 6.169322 0.266500
-1.353861 5.900629 0.576165
-1.051389 5.859705 -0.174652
-1.506701 6.263015 0.949309
-1.483482 6.135608 0.932170
-1.578301 6.121467 1.174847
-1.355756 5.914668 0.620601
-1.097568 5.669831 -0.070760
-1.157706 5.961694 0.057383
-1.165181 5.737982 0.112249
-1.285657 6.081891 0.390478
-1.395110 6.180686 0.668376
-1.252339 6.055850 0.282348
-1.098410 5.800252 -0.104778
-1.512693 6.289831 0.976541
-1.158744 6.122112 0.018630
-1.565340 6.125685 1.148965
-1.272341 5.965232 0.372541
-1.201567 6.164847 0.149448
-1.248052 5.949686 0.304068
-1.302920 6.258084 0.402220
-1.258143 5.850575 0.354125
-1.168333 5.881860 0.069173
-1.129581 6.115793 -0.065281
-1.456858 6.039162 0.884518
-1.376935 6.075165 0.636566
-1.097308 5.703888 -0.085860
-1.480271 6.061594 0.907811
-1.248281 5.850595 0.319815
-1.110287 5.839934 -0.080865
-1.361075 6.184840 0.551006
-1.488249 6.184159 0.928399
-1.255740 6.236721 0.251041
-1.188163 6.036409 0.132334
-1.170349 5.780518 0.109917
-1.353112 6.063366 0.559789
-1.187786 5.913811 0.116233
-1.114755 5.973733 -0.073742
-1.351022 5.951033 0.564569
-1.486505 6.191808 0.925678
-1.162114 6.028358 0.031325
-1.093386 5.723233 -0.096758
-1.358777 5.972438 0.605881
-1.162342 5.790750 0.089541
-1.395004 6.237906 0.659403
-1.283317 6.140769 0.375728
-1.251352 6.116712 0.267119
-1.159598 6.192365 -0.004689
-1.565208 6.177620 1.145075
-1.271335 6.023325 0.356182
-1.206458 6.236463 0.124444
-1.083128 6.139892 -0.187838
-1.253337 6.012728 0.284263
-1.127285 6.183393 -0.091771
-1.164183 5.939103 0.048763
-1.254421 5.903807 0.339163
-1.462570 6.096561 0.875938
-1.378179 6.134308 0.624663
-1.480134 6.113436 0.901474
-1.092678 5.756977 -0.110211
-1.493978 6.243510 0.923839
-1.363243 6.248433 0.541399
-1.104344 5.897417 -0.105367
-1.248153 5.906606 0.301484
-1.260649 6.310398 0.232501
-1.357047 6.123772 0.548249
-1.184938 6.098019 0.111772
-1.110630 6.035374 -0.098797
-1.178698 5.968089 0.098790
-1.172920 5.840248 0.083284
-1.349998 6.005616 0.552418
-1.495385 6.254536 0.918954
-1.156650 6.089988 0.010764
-1.398063 6.300385 0.649836
-1.286832 6.206083 0.358300
-1.360461 6.031002 0.592771
-1.160425 5.847902 0.066679
-1.246785 6.177492 0.253942
-1.159571 6.264614 -0.028483
-1.206423 6.306909 0.101531
-1.267188 6.079833 0.341110
-1.571832 6.236784 1.140110
-1.241100 6.062891 0.274322
-1.077138 6.054745 -0.185247
-1.120512 6.250214 -0.115368
-1.159150 5.998348 0.027876
-1.375384 6.191170 0.614888
-1.478211 6.165684 0.895944
-1.255663 5.964510 0.319035
-1.462909 6.153305 0.868204
-1.178578 6.158947 0.092056
-1.352908 6.180448 0.538073
-1.248935 5.965106 0.281435
-1.107440 6.104014 -0.127774
-1.175469 6.029624 0.075780
-1.166075 5.896233 0.062512
-1.339096 6.054175 0.543756
-1.153892 6.155581 -0.010771
-1.280920 6.266674 0.344705
-1.162559 5.909936 0.037909
-1.252575 6.249988 0.232976
-1.349566 6.081371 0.583211
-1.075658 5.973333 -0.177090
-1.266655 6.142811 0.323343
-1.246408 6.130426 0.252307
-1.153227 6.058696 0.006941
-1.380238 6.255955 0.603184
-1.485284 6.226946 0.888445
-1.249716 6.020461 0.302746
-1.459656 6.208983 0.860502
-1.183024 6.231982 0.065360
-1.355518 6.244352 0.526813
-1.075861 6.004875 -0.142661
-1.243438 6.021444 0.265950
-1.167754 6.089487 0.056092
-1.348417 6.118761 0.527155
-1.152953 5.950058 0.046305
-1.148013 6.222301 -0.032312
-1.059372 5.883856 -0.162899
-1.152132 5.964937 0.019638
-1.353070 6.145007 0.569120
-1.262101 6.206221 0.306409
-1.240052 6.191540 0.237497
-1.145526 6.120351 -0.013605
-1.482925 6.281586 0.883255
-1.465416 6.274656 0.852875
-1.244700 6.081698 0.285886
-1.061388 5.924182 -0.181069
-1.242899 6.083442 0.246202
-1.090737 6.235037 -0.178140
-1.072674 6.074341 -0.174515
-1.160957 6.152737 0.034264
-1.347431 6.179725 0.514388
-1.151086 6.015310 0.019499
-1.144417 6.024721 -0.002477
-1.357040 6.211727 0.554514
-1.264752 6.277148 0.286757
-1.244505 6.264756 0.215721
-1.145491 6.192451 -0.042283
-1.245088 6.148981 0.265546
-1.236539 6.144478 0.228945
-1.351396 6.245529 0.500225
-1.158673 6.222238 0.009357
-1.146533 6.080266 -0.005658
-1.141661 6.091063 -0.029318
-1.356976 6.277069 0.541596
-1.141435 6.265061 -0.067704
-1.245492 6.218956 0.243888
-1.236040 6.212854 0.208570
-1.139300 6.145833 -0.029605
-1.138922 6.160096 -0.057475
-1.236905 6.285006 0.186839
-1.244576 6.292429 0.222520
-1.145138 6.227897 -0.065168
-1.133513 6.231542 -0.085302
-1.494744 5.408822 1.205276
-1.455223 5.394402 1.102000
-1.488190 5.439098 1.196046
-1.461194 5.432210 1.094785
-1.486094 5.471229 1.188459
-1.483781 5.387856 1.176253
-1.433407 5.415440 1.021839
-1.399941 5.395497 0.937475
-1.492058 5.505328 1.180509
-1.460910 5.468557 1.086719
-1.464483 5.396604 1.107787
-1.475899 5.418860 1.166178
-1.435373 5.452684 1.013366
-1.394755 5.426866 0.928224
-1.489962 5.537452 1.172922
-1.463746 5.506567 1.079877
-1.481441 5.454406 1.156566
-1.461079 5.431286 1.098500
-1.439123 5.491406 1.005699
-1.440898 5.416163 1.026820
-1.400327 5.463308 0.918169
-1.338557 5.399574 0.765041
-1.482487 5.568888 1.166109
-1.465367 5.398270 1.140371
-1.479816 5.486863 1.147347
-1.478676 5.549833 1.072649
-1.461686 5.466522 1.090469
-1.456323 5.399168 1.111715
-1.439737 5.530335 0.998403
-1.437939 5.451224 1.018341
-1.314053 5.403683 0.686788
-1.436587 5.384437 1.040847
-1.403663 5.499759 0.908091
-1.334731 5.435739 0.756514
-1.389222 5.409400 0.899574
-1.508136 5.613576 1.159788
-1.469136 5.433248 1.129530
-1.478643 5.521527 1.138089
-1.468971 5.584981 1.066549
-1.463645 5.503765 1.082005
-1.460527 5.433615 1.102111
-1.436762 5.567266 0.991518
-1.438568 5.488280 1.009455
-1.314745 5.440670 0.675432
-1.402950 5.534793 0.899630
-1.431845 5.418020 1.031566
-1.386299 5.443491 0.889070
-1.509167 5.648265 1.153000
-1.339895 5.477315 0.745525
-1.345183 5.402392 0.771991
-1.467097 5.468060 1.118221
-1.253912 5.395260 0.525587
-1.472539 5.553093 1.129248
-1.234385 5.380423 0.475503
-1.479928 5.545338 1.073609
-1.466871 5.623590 1.060869
-1.459359 5.468282 1.092852
-1.460291 5.395854 1.110604
-1.300479 5.380616 0.660186
-1.379178 5.389214 0.874563
-1.422584 5.601530 0.985792
-1.441879 5.526613 1.000980
-1.311856 5.476571 0.664060
-1.380277 5.562091 0.893132
-1.442781 5.382082 1.041776
-1.444131 5.456258 1.020747
-1.505718 5.682068 1.146590
-1.381577 5.477976 0.879354
-1.339665 5.516377 0.736162
-1.455584 5.414560 1.095913
-1.344061 5.438872 0.761858
-1.460571 5.501071 1.107715
-1.341288 5.369307 0.790125
-1.255987 5.436073 0.512934
-1.497328 5.598838 1.120457
-1.235143 5.419169 0.460835
-1.471941 5.665267 1.054794
-1.475609 5.582083 1.066313
-1.460477 5.428831 1.100172
-1.469833 5.506001 1.083252
-1.257628 5.363002 0.545451
-1.298492 5.416324 0.648420
-1.418589 5.614044 0.879031
-1.378064 5.423820 0.862845
-1.308506 5.513050 0.653895
-1.181777 5.383080 0.325953
-1.506302 5.719157 1.140158
-1.393461 5.518543 0.866432
-1.344368 5.558521 0.726380
-1.342947 5.476259 0.751299
-1.450875 5.449003 1.083766
-1.336577 5.403796 0.780403
-1.467476 5.539528 1.097248
-1.494796 5.634269 1.112801
-1.252206 5.474957 0.503113
-1.166597 5.387925 0.291410
-1.230046 5.455988 0.448999
-1.458426 5.461817 1.089715
-1.477107 5.619893 1.059058
-1.472085 5.704761 1.048712
-1.477616 5.545221 1.074409
-1.263767 5.403352 0.529593
-1.406681 5.647315 0.871303
-1.306063 5.550237 0.642910
-1.300571 5.455263 0.634186
-1.376065 5.460447 0.850668
