# .PCD v0.7 - Point Cloud Data file format
VERSION 0.7
FIELDS x y z
SIZE 4 4 4
TYPE F F F
COUNT 1 1 1
WIDTH 199
HEIGHT 1
VIEWPOINT 0 0 0 1
POINTS 199
DATA ascii
-2.159279 16.615253 0.508001
-2.046331 16.570581 0.268684
-2.202889 16.734047 0.505210
-2.054343 16.654087 0.260698
-2.009627 16.621054 0.107743
-2.148834 16.587837 0.482893
-2.205987 16.819618 0.508216
-1.908310 16.608644 -0.099414
-2.049401 16.747231 0.088432
-2.172175 16.686769 0.480179
-2.216767 16.914852 0.510681
-1.794679 16.561974 -0.326985
-2.021755 16.591665 0.200129
-1.911898 16.697901 -0.117067
-2.140031 16.574108 0.459739
-2.081268 16.842241 0.240327
-2.009101 16.620289 0.089522
-2.047371 16.834120 0.081537
-2.175894 16.770117 0.480225
-2.144205 16.601057 0.522496
-1.789962 16.639097 -0.424377
-2.232077 17.019802 0.512923
-1.793421 16.649763 -0.345259
-2.024466 16.674316 0.190301
-2.209944 16.844404 0.587428
-1.932683 16.811148 -0.143287
-2.095285 16.944395 0.230132
-1.696433 16.621138 -0.673278
-2.138312 16.649860 0.457214
-2.066763 16.948660 0.069645
-2.039796 16.738445 0.069547
-1.696681 16.637405 -0.629145
-2.194924 16.874689 0.478465
-1.880398 16.613314 -0.168051
-2.149812 16.684288 0.519315
-1.785228 16.728678 -0.448802
-2.243724 17.125259 0.516711
-1.791516 16.742682 -0.364128
-2.226840 16.945152 0.587051
-1.933763 16.906704 -0.161128
-2.096153 17.036703 0.223162
-1.997834 16.605484 0.135339
-2.113239 16.550766 0.451542
-1.689472 16.715515 -0.704486
-1.785927 16.592003 -0.351317
-2.166773 16.757225 0.450953
-1.999500 16.621820 0.072391
-2.073005 17.053352 0.060977
-2.035547 16.824316 0.062938
-1.692701 16.732428 -0.656148
-2.213415 16.980646 0.477568
-1.883401 16.707827 -0.188749
-1.797351 16.842018 -0.485085
-2.177763 16.792128 0.514285
-2.262844 17.244930 0.520580
-1.760562 16.631107 -0.500218
-1.818573 16.875978 -0.402694
-2.044082 16.867477 0.166663
-2.102058 17.138248 0.214734
-2.126431 16.633793 0.419944
-1.940302 17.013824 -0.182754
-2.004703 16.698574 0.121628
-1.684220 16.604136 -0.652156
-2.127072 16.644268 0.443773
-1.785883 16.685722 -0.373779
-2.182033 16.856606 0.447188
-1.660838 16.600941 -0.749480
-2.031897 16.743454 0.050168
-2.080626 17.167803 0.052405
-2.058891 16.944405 0.045693
-1.713022 16.864756 -0.707631
-2.225120 17.086227 0.478902
-1.782618 16.542622 -0.358050
-1.797020 16.947941 -0.514736
-1.900656 16.821823 -0.218320
-2.189514 16.889351 0.510719
-1.857011 16.617102 -0.236178
-1.805800 16.966682 -0.415456
-1.755301 16.724072 -0.526958
-2.063493 16.983078 0.151944
-2.111552 17.250566 0.206107
-1.941380 17.120773 -0.201693
-2.163139 16.750492 0.409455
-1.678065 16.699196 -0.681683
-2.020913 16.806675 0.104408
-1.786963 16.786171 -0.398344
-2.202229 16.966043 0.444045
-2.029888 16.831390 0.040442
-1.990558 16.627140 0.042777
-2.090187 17.289667 0.043423
-2.060322 17.045788 0.037122
-2.234049 17.193117 0.481028
-1.799081 17.062668 -0.546760
-1.776080 16.628628 -0.377809
-1.902418 16.924711 -0.239480
-1.970615 16.628975 0.062319
-2.196223 16.988741 0.507514
-1.857333 16.712112 -0.258167
-1.732145 16.619028 -0.572532
-1.812461 17.086353 -0.443431
-1.671143 16.571024 -0.669022
-1.765108 16.842110 -0.567593
-2.062001 17.079025 0.143430
-2.116116 17.361309 0.199298
-1.948242 17.242428 -0.224665
-2.168003 16.841637 0.404573
-2.034353 16.916080 0.087984
-1.793479 16.899120 -0.427058
-2.202781 17.060841 0.443299
-2.100836 17.417206 0.035149
-2.152832 16.842806 0.430354
-2.046191 16.948092 0.023227
-2.071427 17.165321 0.024796
-2.019923 16.747070 0.019146
-1.803081 17.187721 -0.582731
-2.251314 17.315958 0.482119
-1.903569 17.031784 -0.260869
-1.775966 16.727125 -0.404551
-2.206259 17.093891 0.505088
-1.971689 16.721678 0.048003
-1.869681 16.826527 -0.289097
-1.726019 16.713160 -0.601701
-1.814029 17.208055 -0.468600
-1.763025 16.948391 -0.598923
-1.662885 16.664249 -0.700341
-2.073990 17.199364 0.130349
-1.827924 16.622639 -0.310526
-1.948927 17.360413 -0.245545
-1.772131 16.582815 -0.397474
-2.179590 16.944443 0.398812
-1.797204 17.014288 -0.455342
-2.043579 17.028315 0.073614
-2.217789 17.175095 0.441865
-2.048525 17.052250 0.010721
-2.084042 17.292847 0.010851
-2.161289 16.944727 0.425275
-2.021295 16.843817 0.004214
-1.798153 17.309490 -0.615450
-2.259671 17.434589 0.486829
-1.904526 17.145363 -0.284818
-1.788252 16.846285 -0.439754
-2.219023 17.208069 0.503581
-1.872675 16.935326 -0.314442
-1.995078 16.844820 0.024757
-1.737159 16.836294 -0.648601
-1.701775 16.608276 -0.655060
-1.758891 17.062372 -0.632402
-2.079812 17.315096 0.119722
-1.658357 16.768475 -0.736751
-1.835120 16.731535 -0.341467
-1.767301 16.675194 -0.423018
-2.199176 17.060049 0.392257
-1.795767 17.133356 -0.481554
-2.048708 17.141640 0.059578
-2.236354 17.301062 0.439863
-2.061285 17.177111 -0.004582
-2.081286 17.407516 0.003597
-2.030262 16.953026 -0.012359
-2.166915 17.049828 0.420258
-1.911648 17.274920 -0.312323
-1.648378 16.635979 -0.735011
-1.782921 16.950518 -0.465159
-2.228126 17.322748 0.503617
-1.874965 17.051113 -0.341115
-2.088307 17.441727 0.109279
-1.740181 16.956833 -0.690556
-1.761470 17.192905 -0.673482
-1.695169 16.706833 -0.689356
-2.007350 16.962734 0.005424
-1.833015 16.832952 -0.366096
-1.761823 16.772694 -0.449160
-2.205589 17.166740 0.388561
-1.801097 17.267109 -0.514637
-2.238885 17.410801 0.441511
-2.058393 17.263731 0.045680
-2.065232 17.296949 -0.018347
-2.041970 17.073257 -0.031192
-2.182162 17.172024 0.414290
-1.789043 17.076481 -0.499004
-1.879589 17.177568 -0.370895
-2.012513 17.077114 -0.011432
-1.840984 16.957769 -0.400355
-1.773944 16.899427 -0.489746
-2.214319 17.282124 0.384933
-2.064192 17.393797 0.030406
-2.045274 17.188808 -0.047642
-2.194098 17.296930 0.409981
-1.784456 17.197563 -0.528092
-1.882622 17.310202 -0.401252
-2.018617 17.201839 -0.029409
-1.848330 17.086761 -0.434849
-1.768884 17.010635 -0.519323
-2.220625 17.401024 0.382211
-2.052967 17.318731 -0.066146
-2.201104 17.420252 0.407487
-2.024505 17.331087 -0.046776
-1.846179 17.214817 -0.465587
-1.768762 17.136791 -0.554997
-1.770862 17.277344 -0.595242
