# .PCD v0.7 - Point Cloud Data file format
VERSION 0.7
FIELDS x y z
SIZE 4 4 4
TYPE F F F
COUNT 1 1 1
WIDTH 149
HEIGHT 1
VIEWPOINT 0 0 0 1
POINTS 149
DATA ascii
-2.251077 17.775448 0.529068
-2.179614 17.745895 0.343290
-2.242023 17.746868 0.496900
-2.286677 17.707645 0.639277
-2.147501 17.683332 0.271928
-2.085399 17.724165 0.081962
-2.232028 17.696640 0.536102
-2.173082 17.830868 0.337740
-2.024653 17.703964 -0.069293
-2.227699 17.730820 0.466603
-2.226695 17.825909 0.498561
-2.227010 17.689682 0.490189
-2.082477 17.730991 0.057428
-2.275547 18.000629 0.531087
-2.085016 17.826145 0.072855
-2.238014 17.796824 0.533113
-1.944583 17.715448 -0.315092
-2.191669 17.950933 0.327336
-2.267614 17.931150 0.567817
-2.128168 17.714666 0.194906
-2.252816 17.752369 0.550341
-2.218970 17.723410 0.422432
-2.218538 17.817308 0.465026
-2.269033 17.975220 0.493130
-1.998650 17.724371 -0.151880
-2.298767 17.911957 0.635151
-2.230059 17.788139 0.485658
-2.078225 17.831366 0.047124
-2.278748 18.109846 0.534932
-1.894610 17.757132 -0.443444
-2.108625 17.964052 0.055572
-2.069487 17.739296 0.034241
-2.258955 17.920118 0.530839
-1.929733 17.806204 -0.327515
-2.182943 18.043470 0.322027
-2.272661 18.041073 0.570607
-2.031230 17.921848 -0.109979
-2.210320 17.812239 0.418559
-2.232842 17.831919 0.547986
-1.928673 17.747808 -0.345439
-2.255404 17.961643 0.458100
-2.261653 18.074829 0.494846
-2.303346 18.204348 0.618788
-2.299846 18.016321 0.634886
-2.090850 17.743984 0.113545
-1.820839 17.784508 -0.654297
-2.152662 17.991098 0.243546
-1.924077 17.689203 -0.358322
-1.967581 17.727896 -0.227941
-2.244780 17.906702 0.479794
-2.089847 17.955568 0.031085
-2.284535 18.229057 0.539505
-1.868263 17.837454 -0.457281
-2.093364 18.057421 0.052687
-1.862526 17.755680 -0.532124
-2.076258 17.855270 0.016578
-2.256216 18.020069 0.530468
-2.187166 18.157265 0.315545
-2.065634 17.765102 -0.007827
-2.288141 18.168066 0.572633
-2.130900 17.930292 0.170604
-2.238794 17.948933 0.408957
-2.255827 17.964657 0.542265
-1.804494 17.746561 -0.685448
-1.921854 17.855236 -0.367852
-2.245691 18.057192 0.457791
-2.269814 18.196142 0.496432
-1.990652 17.936726 -0.192314
-2.306632 18.132536 0.634454
-2.078335 17.839739 0.102783
-1.959508 17.833237 -0.250152
-1.917422 17.797703 -0.383538
-1.887419 17.984238 -0.503932
-2.301448 18.367889 0.544321
-2.239997 18.006678 0.476812
-2.081211 18.061523 0.021577
-1.840627 17.845682 -0.551669
-2.192919 18.278151 0.307919
-1.935013 17.741360 -0.314248
-2.087440 17.982864 -0.001772
-2.263323 18.138493 0.530181
-1.829133 17.744570 -0.615258
-2.061089 17.870861 -0.023602
-2.289171 18.283915 0.577084
-1.912347 17.745089 -0.411311
-2.128458 18.042765 0.158214
-2.229209 18.047415 0.405123
-1.790618 17.853235 -0.714984
-1.925781 17.982788 -0.396992
-2.263083 18.085087 0.538810
-2.250186 18.176096 0.456104
-2.285269 18.333605 0.497788
-2.156647 18.227945 0.224175
-2.095047 17.978983 0.080953
-1.880157 18.104490 -0.534705
-1.954242 17.946829 -0.273346
-1.930019 17.937740 -0.422436
-2.250699 18.131165 0.472609
-1.850176 17.989492 -0.600021
-1.934902 18.184956 -0.402519
-2.069678 18.080582 -0.009942
-2.273018 18.266907 0.530623
-1.922442 17.848360 -0.337528
-2.067087 17.997557 -0.044029
-2.301306 18.420317 0.581416
-1.903060 17.855000 -0.438284
-2.232591 18.166220 0.400481
-1.945197 18.144218 -0.439159
-2.257836 18.304523 0.453936
-2.270737 18.213531 0.536635
-2.290635 18.464800 0.500106
-1.807789 18.162554 -0.760622
-2.165056 18.364557 0.212665
-1.875794 18.237785 -0.570713
-2.113160 18.468109 0.017786
-2.113428 18.362844 -0.015611
-1.908280 18.038433 -0.439348
-2.255450 18.256004 0.469621
-1.845096 18.121185 -0.637401
-2.287490 18.407280 0.531244
-1.919359 17.973392 -0.367329
-1.771643 17.840223 -0.740985
-2.064960 18.121698 -0.062327
-1.908589 17.995304 -0.478926
-2.244471 18.306070 0.394316
-1.916464 18.241516 -0.450620
-2.272194 18.450495 0.452387
-2.283168 18.353935 0.534640
-1.871973 18.381090 -0.608604
-2.108885 18.496351 -0.026204
-1.920702 18.196394 -0.481808
-2.093646 18.233746 0.049832
-2.263479 18.393391 0.468369
-1.834100 18.251362 -0.672839
-2.082552 18.364397 -0.047045
-1.797486 18.104813 -0.725152
-1.924700 18.123112 -0.405844
-1.903673 18.128153 -0.513362
-2.250436 18.444403 0.390093
-1.913715 18.386879 -0.480532
-1.953856 18.362337 -0.364016
-1.911601 18.334106 -0.511784
-2.106055 18.392982 0.029985
-2.055367 18.386150 -0.098450
-1.915619 18.259903 -0.435461
-1.897109 18.269035 -0.549129
-1.914029 18.499283 -0.551730
-1.912866 18.414730 -0.471426
-1.891924 18.424475 -0.588933
