# .PCD v0.7 - Point Cloud Data file format
VERSION 0.7
FIELDS x y z
SIZE 4 4 4
TYPE F F F
COUNT 1 1 1
WIDTH 745
HEIGHT 1
VIEWPOINT 0 0 0 1
POINTS 745
DATA ascii
-1.997290 16.862259 -0.051757
-2.154570 17.008711 0.294044
-2.052099 16.933676 0.092519
-2.061099 16.744659 0.114478
-2.011749 16.811804 0.021520
-2.167090 16.951870 0.364868
-1.987426 16.790054 -0.044060
-2.078407 16.873871 0.158153
-2.241428 16.911900 0.506958
-1.994795 16.803865 -0.020142
-2.137392 16.998861 0.231033
-2.236595 17.003431 0.477431
-2.240089 17.091854 0.453471
-2.133044 16.916325 0.250748
-2.195336 16.897528 0.433321
-2.131205 16.834078 0.273870
-2.042448 16.755924 0.077765
-2.055799 16.939116 0.051300
-2.096770 16.823126 0.225073
-2.007151 16.743408 0.011285
-1.995852 16.914721 -0.052918
-1.969612 16.897749 -0.100791
-2.049659 16.869129 0.072771
-2.211136 16.843626 0.508584
-1.989757 16.914183 -0.065090
-2.120986 16.765320 0.295657
-2.143590 17.060509 0.277675
-2.059813 16.979223 0.073489
-2.048782 16.799025 0.096539
-2.017223 16.858208 0.002017
-2.163470 17.000708 0.346264
-2.237054 16.855968 0.511695
-1.987771 16.839478 -0.061214
-2.078876 16.921558 0.139284
-2.235405 16.960567 0.482510
-1.999353 16.850401 -0.039276
-2.120510 17.051126 0.216032
-2.235861 17.050117 0.456001
-2.230698 17.139423 0.434518
-2.128108 16.965885 0.231297
-2.189991 16.946751 0.413017
-2.132317 16.880472 0.251702
-2.036463 16.807350 0.060398
-2.099999 16.869467 0.205458
-2.051551 16.989229 0.035992
-2.121738 16.790649 0.274886
-2.002358 16.787468 -0.016598
-2.006701 16.792147 -0.007576
-2.001736 16.960527 -0.071211
-1.975507 16.942616 -0.118721
-2.211832 16.889690 0.485564
-2.056578 16.913988 0.052035
-1.995111 16.961405 -0.082524
-2.113410 16.814457 0.275238
-2.055359 16.750618 0.120154
-2.139068 17.108555 0.259795
-2.063854 17.025316 0.055931
-2.054377 16.844616 0.074955
-2.009812 16.909321 -0.013400
-2.165380 17.046869 0.326155
-2.228788 16.905502 0.486764
-1.979842 16.891064 -0.075409
-2.232041 17.006845 0.460107
-2.071065 16.972343 0.123011
-1.989577 16.903196 -0.053094
-2.119153 17.098169 0.198252
-2.225668 17.097948 0.434969
-2.232625 17.183725 0.415128
-2.192430 16.991501 0.392047
-2.130558 17.010628 0.210324
-2.052119 16.764925 0.096186
-2.035625 16.854828 0.041036
-2.131982 16.928427 0.230753
-2.054292 17.034185 0.018306
-2.089546 16.920780 0.187852
-2.125212 16.836308 0.250745
-1.999156 16.836628 -0.034363
-2.009543 16.839087 -0.028422
-2.207953 16.936447 0.464375
-1.997907 17.010057 -0.085322
-1.979964 16.989048 -0.135438
-2.045097 16.966257 0.036869
-1.998261 17.006697 -0.099361
-2.114927 16.861206 0.253907
-2.046744 16.802588 0.101440
-2.140878 17.154610 0.242108
-2.055915 16.890421 0.053985
-2.059624 17.074518 0.040965
-2.014391 16.954941 -0.032192
-2.159551 17.094725 0.307778
-2.217773 16.956396 0.462565
-2.006298 16.775408 0.003347
-1.983505 16.936813 -0.093831
-2.225522 17.055079 0.437221
-2.012209 16.778664 0.008699
-2.071962 17.018517 0.105698
-1.995609 16.947266 -0.073117
-2.124264 17.141460 0.178955
-2.223121 17.143991 0.414619
-2.225489 17.230452 0.396625
-2.184354 17.040218 0.373194
-2.249242 17.273232 0.488130
-2.125132 17.058811 0.192798
-2.039428 16.818029 0.077733
-2.125357 16.976519 0.210307
-2.027818 16.906549 0.024387
-2.094249 16.964659 0.167347
-2.052433 17.081697 0.001736
-2.126464 16.881899 0.226481
-1.993210 16.886200 -0.051026
-1.998074 16.890406 -0.043228
-2.198687 16.984138 0.442962
-2.001060 17.055351 -0.102165
-2.044686 17.012218 0.019071
-1.984426 17.035480 -0.152162
-1.998650 17.053335 -0.115457
-2.115143 16.906815 0.232451
-2.045518 16.849731 0.081214
-2.139937 17.201073 0.225527
-2.043121 16.942480 0.038330
-2.056848 17.122171 0.024761
-2.013848 17.002651 -0.048279
-2.162811 17.139231 0.288858
-2.215856 17.003010 0.438190
-2.003231 16.823751 -0.016503
-2.004017 16.829096 -0.008441
-2.223499 17.100639 0.415645
-1.985328 16.983774 -0.111883
-2.075224 17.063944 0.086415
-1.998357 16.993155 -0.091176
-2.118338 17.188255 0.163371
-2.225584 17.187822 0.393991
-2.221517 17.276175 0.378222
-2.184054 17.085384 0.353317
-2.042419 16.862284 0.055528
-2.119313 17.106659 0.174414
-2.242492 17.321253 0.470110
-2.120059 17.023882 0.190701
-2.032010 16.950891 0.005101
-2.098425 17.009949 0.147696
-2.050056 17.129690 -0.013617
-2.117985 16.932131 0.206044
-1.998847 16.929924 -0.071906
-2.198913 17.027889 0.422227
-2.003712 16.934130 -0.064108
-2.049800 17.056427 -0.000593
-1.997247 17.103949 -0.115926
-1.983380 17.082726 -0.166670
-2.113003 16.953171 0.212952
-1.998521 17.100449 -0.130336
-2.044296 16.896877 0.060983
-2.050198 16.985600 0.015853
-2.138073 17.248611 0.208945
-2.058162 17.167747 0.008650
-2.018048 17.046993 -0.067573
-2.160554 17.185488 0.271790
-2.216194 17.047819 0.414649
-2.008076 16.866793 -0.039088
-2.224245 17.144857 0.393317
-2.006484 16.874758 -0.029790
-1.989008 17.028587 -0.129954
-2.071528 17.111734 0.070578
-2.000190 17.039177 -0.108870
-2.117017 17.233435 0.146292
-2.216221 17.234476 0.375367
-2.219798 17.320091 0.360652
-2.175086 17.132368 0.335549
-2.046334 16.906401 0.032948
-2.119432 17.151220 0.155744
-2.237997 17.367466 0.452923
-2.111083 17.072727 0.172207
-2.034883 16.995964 -0.015037
-2.093538 17.056713 0.129301
-2.049140 17.175194 -0.029844
-2.111898 16.978806 0.184729
-2.195975 17.073584 0.401016
-2.003834 16.979605 -0.083137
-2.002113 16.976269 -0.091555
-2.048479 17.102524 -0.018033
-2.005010 17.147623 -0.134271
-1.981024 17.129768 -0.181667
-2.108626 17.000395 0.192971
-1.993400 17.148842 -0.144586
-2.040330 16.943493 0.042219
-2.050317 17.031078 -0.003178
-2.136752 17.293797 0.191860
-2.153836 17.231607 0.254491
-2.053952 17.216017 -0.005974
-2.014758 17.095112 -0.082562
-2.212459 17.093767 0.391366
-1.996210 16.918709 -0.055123
-1.998833 16.923784 -0.047802
-2.215397 17.191967 0.373103
-1.989009 17.074879 -0.146914
-2.074814 17.155285 0.052010
-2.110198 17.278492 0.131793
-2.219930 17.362795 0.342697
-1.997435 17.085880 -0.124720
-2.208707 17.279922 0.356360
-2.173875 17.177673 0.316031
-2.112730 17.196392 0.138808
-2.036439 16.956299 0.014459
-2.033562 17.042055 -0.032478
-2.242580 17.411259 0.434827
-2.114482 17.116402 0.151201
-2.089051 17.103823 0.111753
-2.050985 17.220289 -0.047189
-2.112650 17.023939 0.162035
-2.198452 17.116467 0.380747
-1.999878 17.022491 -0.108627
-2.002114 17.026289 -0.101795
-2.044930 17.148554 -0.035593
-2.101506 17.047091 0.174458
-2.000287 17.196358 -0.147675
-1.973024 17.179386 -0.192736
-1.992368 17.195154 -0.158745
-2.042809 16.988226 0.021223
-2.046361 17.077700 -0.021952
-2.132157 17.339869 0.177103
-2.051600 17.262140 -0.020617
-2.156585 17.276588 0.236775
-2.016210 17.139860 -0.100758
-1.998308 16.962156 -0.076609
-2.205972 17.140123 0.369187
-2.216564 17.234648 0.352343
-2.003695 16.965887 -0.070035
-1.989022 17.120234 -0.163516
-2.109812 17.322598 0.114694
-2.209557 17.407598 0.327595
-2.212514 17.322081 0.336923
-2.072972 17.201866 0.035783
-1.998889 17.130623 -0.142917
-2.173081 17.221443 0.298087
-2.111019 17.241226 0.120866
-2.033005 17.002439 -0.005537
-2.112382 17.159952 0.132774
-2.030401 17.089357 -0.049548
-2.239810 17.457079 0.419326
-2.088654 17.148853 0.094299
-2.250300 17.395742 0.478820
-2.098699 17.072180 0.144891
-2.041279 17.268436 -0.059235
-2.195935 17.160627 0.361105
-2.001854 17.066755 -0.128045
-2.004090 17.070553 -0.121214
-2.104916 17.089825 0.153813
-2.043617 17.194651 -0.053047
-1.991909 17.243767 -0.158876
-1.979878 17.223190 -0.210725
-2.039780 17.033772 0.002441
-1.995134 17.241043 -0.176833
-2.040976 17.123997 -0.038776
-2.128484 17.385805 0.161969
-2.012026 17.186241 -0.114662
-2.054771 17.306503 -0.037127
-2.155267 17.321774 0.219681
-1.998959 17.007153 -0.096872
-2.202255 17.185137 0.346255
-2.212730 17.279545 0.331846
-2.000663 17.012365 -0.089182
-2.206939 17.450714 0.310740
-2.112589 17.365694 0.097693
-2.210410 17.365650 0.318485
-2.068910 17.247442 0.019800
-1.986276 17.166935 -0.179379
-2.175046 17.264805 0.279026
-1.991549 17.178009 -0.156928
-2.113391 17.284916 0.102654
-2.037868 17.044546 -0.027777
-2.109875 17.205038 0.112761
-2.082354 17.194363 0.078206
-2.029621 17.134035 -0.067861
-2.240719 17.502352 0.402334
-2.250817 17.439739 0.461344
-2.186201 17.205055 0.342342
-2.096713 17.116785 0.123658
-2.040384 17.313004 -0.075118
-1.991352 17.115141 -0.142160
-2.004224 17.116026 -0.140261
-2.104647 17.134039 0.134278
-2.045080 17.238462 -0.070891
-1.994170 17.288256 -0.175019
-1.975188 17.269110 -0.223050
-2.038592 17.079046 -0.017087
-1.988598 17.288176 -0.188783
-2.042953 17.168268 -0.058203
-2.130730 17.430323 0.145822
-2.143977 17.367643 0.204578
-2.005605 17.233496 -0.129050
-2.055182 17.352213 -0.052896
-2.201187 17.228683 0.325011
-1.993176 17.054037 -0.114915
-2.201157 17.325191 0.313452
-2.002246 17.056286 -0.109458
-2.199338 17.494171 0.294877
-2.112211 17.409798 0.080580
-2.197405 17.410982 0.302045
-2.171108 17.308641 0.261327
-1.984460 17.212563 -0.195255
-2.066165 17.293224 0.004293
-1.995759 17.223280 -0.176614
-2.104864 17.330364 0.086439
-2.037207 17.089342 -0.048531
-2.105019 17.249935 0.095068
-2.082497 17.237980 0.059879
-2.030158 17.178917 -0.085698
-2.185933 17.248348 0.323165
-2.252265 17.482660 0.443856
-2.233896 17.547440 0.387811
-2.033980 17.358391 -0.088786
-2.102484 17.159704 0.100675
-1.993336 17.159405 -0.161592
-1.997401 17.163870 -0.155865
-2.100708 17.178795 0.116218
-2.034598 17.284988 -0.084291
-1.974700 17.314003 -0.238089
-1.987637 17.335394 -0.186976
-2.040173 17.122974 -0.037368
-1.985353 17.333485 -0.202711
-2.034425 17.214636 -0.074782
-2.146754 17.410746 0.187569
-2.131135 17.476049 0.130044
-2.008391 17.277508 -0.146420
-2.051012 17.397671 -0.066456
-2.200274 17.537556 0.278603
-2.196816 17.369631 0.294530
-2.190121 17.275724 0.304663
-1.998312 17.101963 -0.127883
-1.996198 17.098284 -0.137154
-2.197541 17.454620 0.283706
-2.166651 17.352957 0.244845
-2.109991 17.455111 0.063837
-1.985412 17.256842 -0.211884
-2.062119 17.337864 -0.011339
-1.993947 17.268908 -0.192497
-2.105922 17.374786 0.067366
-2.032876 17.134680 -0.067812
-2.100683 17.295294 0.075781
-2.084877 17.281664 0.041658
-2.020191 17.225899 -0.100686
-2.182518 17.291710 0.304240
-2.249123 17.526262 0.428213
-2.225762 17.592327 0.372798
-2.037162 17.402748 -0.105313
-2.096308 17.205328 0.082133
-2.265463 17.469139 0.484529
-1.993495 17.203001 -0.179925
-1.994796 17.208815 -0.173452
-2.095459 17.223351 0.097668
-2.034224 17.330011 -0.101772
-1.988069 17.380156 -0.202393
-1.972371 17.360109 -0.252759
-2.035328 17.167856 -0.055065
-1.982112 17.378794 -0.216647
-2.029980 17.259861 -0.091632
-2.140863 17.455677 0.172671
-2.126563 17.521183 0.115622
-2.198071 17.580070 0.262944
-2.048682 17.442852 -0.080764
-2.002905 17.323689 -0.160828
-1.994391 17.146702 -0.145951
-2.188143 17.319408 0.283775
-2.191166 17.413864 0.275117
-1.990037 17.143890 -0.155699
-2.190468 17.497597 0.266611
-2.164954 17.396862 0.227245
-2.110024 17.498611 0.047926
-2.065820 17.381748 -0.029088
-1.977173 17.303429 -0.225182
-1.988471 17.314146 -0.206542
-2.103712 17.419157 0.050984
-2.028548 17.180021 -0.087099
-2.180035 17.333996 0.285302
-2.083183 17.326488 0.023694
-2.100430 17.339508 0.056223
-2.020745 17.269842 -0.118172
-2.248733 17.570391 0.411088
-2.225256 17.636335 0.358107
-2.028936 17.447472 -0.117889
-2.266526 17.510778 0.466543
-2.092489 17.251143 0.061256
-1.986688 17.249908 -0.195179
-1.986683 17.254581 -0.188825
-2.091536 17.267172 0.079959
-2.027431 17.375055 -0.116304
-1.968619 17.404953 -0.265112
-1.987070 17.424591 -0.215859
-2.033250 17.211391 -0.073514
-1.982555 17.422613 -0.231707
-2.028302 17.303738 -0.109235
-2.197716 17.621368 0.246903
-2.128835 17.563816 0.100182
-2.143638 17.499712 0.155284
-2.044526 17.487370 -0.093975
-2.001105 17.368383 -0.176361
-2.189084 17.456493 0.257022
-2.106401 17.540783 0.034220
-1.986128 17.187691 -0.173410
-1.994672 17.190416 -0.166730
-2.195608 17.539948 0.247623
-2.158280 17.440172 0.211002
-2.183010 17.364098 0.262774
-2.064013 17.426453 -0.044623
-1.974458 17.348253 -0.240344
-1.979317 17.360872 -0.219477
-2.102030 17.463049 0.033372
-2.022791 17.225037 -0.104435
-2.175185 17.377970 0.267957
-2.079670 17.369711 0.007193
-2.015395 17.314266 -0.134297
-2.098350 17.383055 0.037763
-2.241529 17.614201 0.396059
-2.026226 17.491371 -0.132696
-2.230129 17.681273 0.342898
-2.261679 17.553835 0.449555
-2.084098 17.295765 0.042952
-1.984494 17.294256 -0.211562
-1.988687 17.297901 -0.207913
-2.091292 17.310446 0.060762
-2.027991 17.418999 -0.133806
-1.987516 17.468410 -0.230926
-1.964862 17.450735 -0.277839
-2.024730 17.257759 -0.090107
-1.975647 17.468472 -0.244176
-2.030827 17.346586 -0.129550
-2.182788 17.664991 0.234341
-2.142759 17.542419 0.140101
-2.001684 17.410446 -0.193136
-2.124665 17.609287 0.086598
-2.027514 17.533817 -0.102005
-2.191178 17.582390 0.231844
-2.094103 17.585732 0.022260
-1.992605 17.233944 -0.185187
-2.157912 17.483343 0.194236
-2.181604 17.501001 0.238337
-1.986414 17.231405 -0.194195
-2.175134 17.408258 0.243241
-1.972673 17.392004 -0.255520
-2.055787 17.471180 -0.057207
-1.983574 17.402384 -0.237735
-2.095781 17.504812 0.018698
-2.175869 17.419247 0.249113
-2.024912 17.268480 -0.125962
-2.077468 17.414076 -0.009198
-2.095759 17.426142 0.020884
-2.015037 17.358343 -0.151427
-2.236568 17.657137 0.381500
-2.285430 17.617805 0.492997
-2.021286 17.535204 -0.147623
-2.263145 17.595812 0.432409
-2.289983 17.527151 0.500177
-2.084785 17.337959 0.023744
-1.980990 17.338398 -0.228435
-2.265746 17.531469 0.489792
-1.984264 17.342182 -0.224417
-2.089214 17.353992 0.042299
-2.017547 17.462717 -0.146141
-1.963477 17.494823 -0.292172
-1.981528 17.514130 -0.243772
-2.025417 17.300882 -0.109681
-1.974260 17.512564 -0.258510
-2.186897 17.707354 0.218144
-2.025475 17.391947 -0.146050
-2.137805 17.586271 0.125174
-1.991100 17.456856 -0.204126
-2.118669 17.654097 0.074113
-2.035299 17.577480 -0.120412
-2.091921 17.628225 0.006581
-2.187662 17.625633 0.215323
-2.155315 17.526443 0.177350
-2.180843 17.543829 0.220710
-1.990533 17.278406 -0.204016
-1.983949 17.275526 -0.213877
-2.175804 17.451410 0.223663
-2.052681 17.514742 -0.072874
-1.971407 17.436211 -0.272292
-1.975877 17.447556 -0.251914
-2.087676 17.549664 0.003665
-2.163814 17.462561 0.233005
-2.014175 17.313841 -0.142315
-2.076189 17.458300 -0.025966
-2.091850 17.469961 0.003150
-2.231612 17.700073 0.366935
-2.280200 17.659586 0.475507
-2.013370 17.402216 -0.169048
-2.257789 17.638407 0.416995
-2.022652 17.578888 -0.163074
-2.285249 17.571266 0.480375
-2.079158 17.382170 0.004315
-2.263665 17.573177 0.472049
-1.977491 17.382540 -0.245316
-2.089381 17.396666 0.024307
-1.979838 17.387398 -0.241292
-2.017203 17.505856 -0.162923
-1.979620 17.558701 -0.256890
-1.960251 17.540123 -0.306138
-2.021514 17.344690 -0.127411
-1.977067 17.556557 -0.275923
-2.016474 17.435043 -0.159983
-2.132332 17.630604 0.111464
-2.176413 17.668697 0.201269
-2.093280 17.671919 -0.008876
-1.991671 17.500790 -0.221645
-2.176547 17.585449 0.202846
-2.154962 17.568670 0.160935
-2.037052 17.622444 -0.135380
-2.121323 17.699877 0.058407
-1.982962 17.322754 -0.220267
-1.978215 17.319599 -0.230868
-2.044462 17.559471 -0.085473
-2.176995 17.495016 0.202490
-1.964505 17.482061 -0.284772
-2.085489 17.593092 -0.012381
-1.971334 17.492655 -0.266359
-2.164892 17.505114 0.214636
-2.083367 17.512592 -0.012009
-2.068102 17.501270 -0.040272
-2.010799 17.357168 -0.161271
-2.007515 17.446178 -0.183606
-2.277721 17.701891 0.456534
-2.251123 17.680798 0.401091
-2.024537 17.623026 -0.180121
-2.272517 17.614038 0.460109
-2.076694 17.425371 -0.015014
-2.264748 17.613874 0.454406
-1.975839 17.425465 -0.262580
-1.977275 17.429525 -0.257821
-2.083636 17.440758 0.007311
-2.009506 17.551037 -0.177114
-1.961621 17.584728 -0.321964
-1.982817 17.603970 -0.273823
-2.017616 17.388494 -0.145147
-1.968741 17.601154 -0.286091
-2.012580 17.478849 -0.177728
-2.127385 17.674454 0.096523
-2.149616 17.612181 0.145146
-1.992641 17.545063 -0.238320
-2.090171 17.716421 -0.024931
-2.032910 17.666956 -0.148621
-2.171715 17.629421 0.185469
-1.972485 17.363672 -0.247866
-1.978143 17.367628 -0.238000
-2.044507 17.603893 -0.101778
-1.961416 17.525602 -0.300453
-2.170445 17.539379 0.183417
-2.080162 17.635651 -0.027812
-2.166899 17.546589 0.196256
-1.977029 17.535410 -0.286963
-2.064605 17.544489 -0.056803
-2.008741 17.400694 -0.179752
-2.081303 17.556133 -0.030499
-2.004018 17.490322 -0.200500
-2.020003 17.667192 -0.194218
-2.261756 17.655716 0.437020
-2.265954 17.658426 0.441033
-2.071865 17.470261 -0.032751
-1.971823 17.470081 -0.278253
-2.078829 17.482838 -0.009333
-1.971945 17.473938 -0.273977
-2.013755 17.594416 -0.196129
-1.977765 17.648607 -0.286698
-1.952897 17.629917 -0.333357
-2.017403 17.430811 -0.164008
-1.968799 17.645555 -0.302408
-2.008165 17.523132 -0.194257
-2.145595 17.654957 0.130197
-1.987192 17.589361 -0.252044
-2.035193 17.711432 -0.164829
-2.167813 17.672316 0.168078
-1.975703 17.409870 -0.256974
-1.970047 17.405912 -0.266841
-2.041807 17.647789 -0.116616
-2.159321 17.582554 0.166918
-1.960556 17.570143 -0.316395
-2.161174 17.587881 0.180341
-2.077966 17.680950 -0.044604
-1.967908 17.580259 -0.299207
-2.057831 17.588600 -0.071006
-2.002625 17.443493 -0.197248
-1.999090 17.534143 -0.215444
-2.073724 17.601439 -0.047139
-2.017696 17.712357 -0.208576
-2.256551 17.695612 0.420244
-2.264390 17.700584 0.421682
-2.067166 17.513390 -0.052207
-2.074008 17.525852 -0.026349
-1.968323 17.514215 -0.295156
-1.971201 17.517658 -0.291992
-2.011565 17.638762 -0.212560
-1.971785 17.693384 -0.299215
-1.951504 17.674934 -0.348091
-2.009825 17.475166 -0.180282
-1.967010 17.690233 -0.317997
-2.006102 17.566660 -0.212765
-2.140639 17.698812 0.115238
-1.980805 17.634741 -0.265779
-1.962086 17.448986 -0.283609
-1.966292 17.454498 -0.272515
-2.042761 17.692074 -0.133317
-2.157656 17.631126 0.163792
-1.955614 17.614899 -0.331726
-2.151848 17.627064 0.148189
-2.072100 17.724932 -0.059203
-1.966639 17.624462 -0.316021
-2.054721 17.632166 -0.086711
-1.994653 17.487511 -0.214387
-2.001096 17.577461 -0.234589
-2.072047 17.645325 -0.064805
-2.059197 17.557426 -0.069355
-2.070115 17.568743 -0.043760
-1.968110 17.557465 -0.314418
-1.971906 17.560770 -0.311625
-2.005716 17.682734 -0.227168
-2.003708 17.517979 -0.197805
-1.950119 17.719957 -0.362847
-2.000777 17.610151 -0.228590
-1.983219 17.678396 -0.284088
-1.965692 17.496473 -0.292261
-1.959117 17.492653 -0.301757
-2.148783 17.672506 0.148103
-1.956186 17.659763 -0.349661
-2.146634 17.669765 0.130288
-1.962632 17.668146 -0.331373
-2.056208 17.675978 -0.104646
-1.993124 17.530567 -0.234130
-2.069479 17.687475 -0.081381
-1.993927 17.622166 -0.250043
-2.067538 17.611834 -0.060695
-2.055301 17.601252 -0.087139
-1.959510 17.601843 -0.327914
-1.959633 17.605701 -0.323640
-2.000736 17.561651 -0.215959
-1.994528 17.654716 -0.244420
-1.979599 17.723360 -0.298960
-1.961411 17.539934 -0.310899
-2.144361 17.715893 0.131901
-1.958110 17.536156 -0.323094
-1.950741 17.704062 -0.363427
-2.142722 17.714546 0.112131
-1.957172 17.714321 -0.345872
-2.052193 17.719679 -0.120001
-1.988317 17.574512 -0.251548
-1.992667 17.666376 -0.266874
-2.051414 17.644135 -0.104565
-2.062732 17.654858 -0.077752
-1.958377 17.646160 -0.347189
-1.953913 17.649778 -0.340698
-2.000523 17.604906 -0.235232
-1.996154 17.697687 -0.264444
-1.949642 17.579710 -0.338672
-1.956603 17.584810 -0.328689
-1.984956 17.617836 -0.270568
-1.989171 17.711454 -0.284193
-2.059233 17.699020 -0.094699
-2.050795 17.687992 -0.125065
-1.953054 17.690573 -0.363401
-1.954611 17.694752 -0.361088
-1.993882 17.649126 -0.251922
-1.949579 17.627743 -0.345868
-1.946272 17.624899 -0.358429
-1.979760 17.661434 -0.288856
-1.989992 17.693865 -0.270098
-1.951723 17.672094 -0.367855
-1.940163 17.668627 -0.376353
-1.975485 17.704887 -0.307522
-1.945622 17.714880 -0.385421
-1.938247 17.712248 -0.397355
-2.150767 16.778875 0.460855
-2.148754 16.766668 0.395920
-2.265063 16.772020 0.425362
-2.053092 16.753942 0.185702
-2.161257 16.877790 0.412472
-2.072026 16.786797 0.200665
-2.245136 16.791101 0.487301
-2.147809 16.868792 0.350357
-2.158713 16.776766 0.378887
-2.061235 16.801243 0.162833
-1.994983 16.773478 0.053028
-1.974226 16.751648 0.002210
-2.163492 16.927475 0.390180
-2.162130 16.883915 0.468961
-2.086969 16.787329 0.256469
-2.148734 16.917322 0.327986
-2.151455 16.830351 0.355844
-2.076753 16.843676 0.138557
-1.995629 16.825583 0.033998
-1.978558 16.801315 -0.017515
-2.061098 16.779320 0.171335
-2.167570 16.975943 0.367529
-2.071223 16.890081 0.160435
-2.013518 16.773224 0.099172
-2.183199 16.922724 0.443621
-1.991336 16.748009 0.032694
-2.001426 16.761961 0.057531
-2.153735 16.964710 0.305356
-2.147355 16.882946 0.332913
-2.195654 16.773687 0.358310
-2.059519 16.903742 0.123358
-2.108840 16.788197 0.307680
-2.010630 16.867588 0.011322
-1.964375 16.859392 -0.029743
-2.009485 16.865437 -0.001446
-2.165744 17.024918 0.346249
-2.064130 16.943926 0.143114
-2.058969 16.762255 0.181072
-2.018902 16.820951 0.077402
-2.175974 16.973549 0.421730
-1.992517 16.797743 0.013231
-2.090916 16.885307 0.213886
-2.002202 16.812263 0.036832
-2.151486 17.015173 0.282449
-2.146533 16.933674 0.308039
-2.154149 16.844419 0.338136
-2.207850 16.922255 0.494087
-2.056640 16.953714 0.104515
-2.037544 16.773958 0.142306
-1.997652 16.753824 0.067778
-2.007550 16.756020 0.075211
-2.007095 16.919857 -0.004640
-1.985412 16.898159 -0.055077
-2.063708 16.877996 0.127887
-2.001334 16.921213 -0.016732
-2.163388 17.075333 0.325780
-2.115242 16.791674 0.362735
-2.072686 16.989740 0.121834
-2.028899 16.865173 0.054946
-2.062631 16.810328 0.157591
-2.186510 17.017294 0.398038
-1.984487 16.852642 -0.004103
-2.083945 16.938280 0.194504
-2.013632 16.855829 0.012793
-2.144141 17.065945 0.262993
-2.255262 17.163094 0.483182
-2.146147 16.981058 0.285567
-2.209847 16.966991 0.470444
-2.142400 16.899715 0.314086
-2.045830 16.817596 0.118538
-2.065204 16.998598 0.083626
-2.112512 16.884941 0.262185
-2.372827 16.682009 0.307158
-2.012363 16.795517 0.041810
-2.014376 16.802160 0.052245
-2.007756 16.970114 -0.022916
-1.984634 16.949064 -0.071766
-2.061337 16.928381 0.107436
