# .PCD v0.7 - Point Cloud Data file format
VERSION 0.7
FIELDS x y z
SIZE 4 4 4
TYPE F F F
COUNT 1 1 1
WIDTH 792
HEIGHT 1
VIEWPOINT 0 0 0 1
POINTS 792
DATA ascii
-2.296795 17.863594 0.454505
-2.295000 17.905519 0.440025
-2.225638 17.861656 0.286974
-2.170241 17.835453 0.175501
-2.285076 17.946932 0.427161
-2.289994 17.868864 0.419826
-2.210581 17.906107 0.276454
-2.176573 17.878805 0.159016
-2.283660 17.990141 0.413144
-2.099684 17.833914 0.022716
-2.284637 17.911467 0.404363
-2.217043 17.874508 0.309781
-2.217167 17.952520 0.262146
-2.174261 17.922136 0.145356
-2.070138 17.846191 -0.063234
-2.142331 17.840145 0.142584
-2.280032 18.032352 0.399363
-2.106412 17.879478 0.006330
-2.276536 17.954491 0.389996
-2.439882 17.864258 0.313008
-2.231372 17.920153 0.293365
-2.263369 17.873791 0.387387
-2.214714 17.997620 0.250189
-2.175617 17.965841 0.129840
-2.281263 18.075027 0.386652
-2.168200 17.885498 0.119765
-2.082890 17.892300 -0.083805
-2.105519 17.850861 0.041891
-2.107235 17.925529 -0.008696
-2.008855 17.847889 -0.197038
-2.269364 17.996435 0.375618
-2.234115 17.893799 0.326345
-2.225381 17.964052 0.281179
-2.261169 17.917259 0.371284
-1.988493 17.844425 -0.243595
-2.210024 18.043592 0.237745
-2.165178 18.008661 0.117787
-2.261887 17.848312 -0.504031
-2.249713 17.826607 -0.569425
-2.277261 17.845827 -0.540609
-2.279338 18.118711 0.373824
-2.072461 17.935099 -0.095857
-2.161428 17.928696 0.105871
-2.122732 17.897106 0.021544
-2.021615 17.893978 -0.217617
-2.152461 17.846962 0.100569
-2.102952 17.971817 -0.020289
-2.014463 17.825903 -0.169442
-2.066475 17.856007 -0.108251
-2.265724 18.040520 0.361094
-2.243990 17.938375 0.310062
-2.237161 17.861195 0.357027
-2.221213 18.009548 0.267512
-2.254515 17.959661 0.355314
-2.003608 17.890684 -0.266506
-2.204811 18.090042 0.226514
-2.250679 17.875893 0.347325
-2.104764 17.821398 -0.330033
-2.156054 18.051680 0.106209
-1.973038 17.876575 -0.361498
-1.946481 17.856388 -0.409123
-2.276101 18.162191 0.360506
-1.952804 17.872158 -0.374964
-2.068835 17.980072 -0.110757
-2.154651 17.972828 0.091601
-2.117219 17.871996 0.057859
-2.116748 17.941916 0.008981
-2.017471 17.939421 -0.231293
-2.106011 18.017918 -0.035220
-2.148956 17.891136 0.083606
-2.130581 17.822527 -0.415010
-2.335393 18.235107 0.518482
-2.263012 18.083519 0.346558
-2.018577 17.871037 -0.186809
-2.065606 17.900560 -0.124255
-2.234068 17.980728 0.296786
-2.245335 17.904293 0.339775
-2.267526 17.819994 -0.560541
-2.214308 18.053581 0.255680
-1.995414 17.934465 -0.278823
-2.247332 18.003479 0.340193
-2.207730 18.136988 0.213653
-2.244528 17.920624 0.329031
-2.156884 18.096790 0.091525
-1.990586 17.860146 -0.290115
-1.942347 17.901810 -0.422803
-1.962480 17.922045 -0.372220
-2.274574 18.206207 0.348515
-1.954695 17.917200 -0.392456
-2.146045 18.016300 0.078430
-2.070184 18.026554 -0.127397
-2.130897 17.917036 0.037275
-2.118494 17.987818 -0.006432
-2.127981 17.843296 0.084603
-2.017383 17.986513 -0.246340
-2.151746 17.936087 0.065753
-2.091772 18.063040 -0.044101
-1.952243 17.857933 -0.335865
-2.262002 18.127996 0.332983
-2.336719 18.284462 0.508914
-2.031856 17.917576 -0.208987
-2.227686 18.024282 0.283730
-1.925754 17.837854 -0.402296
-2.242230 17.946955 0.324394
-2.061179 17.946722 -0.141596
-1.940564 17.847914 -0.390885
-2.208717 18.097813 0.244323
-2.131015 17.846987 0.058338
-2.024151 17.852797 -0.160678
-2.253648 18.049658 0.322563
-1.986288 17.980257 -0.291512
-2.057833 17.866146 -0.152277
-2.206058 18.184628 0.202633
-2.158633 18.141752 0.076463
-2.236945 17.965034 0.312687
-1.989318 17.906212 -0.307716
-2.273040 18.251158 0.336150
-1.940560 17.948338 -0.439190
-1.962923 17.968637 -0.388495
-1.942310 17.962008 -0.402081
-2.145170 18.060865 0.062409
-2.067868 18.072653 -0.142198
-2.112513 18.032619 -0.019012
-2.133158 17.963398 0.020271
-2.054188 17.835320 -0.352631
-2.014549 18.033083 -0.259918
-2.140346 17.888136 0.063536
-2.141428 17.979948 0.050878
-2.102941 18.112438 -0.061774
-1.971672 17.905119 -0.364671
-2.257441 18.173143 0.318437
-2.337660 18.332527 0.498850
-2.021816 17.962576 -0.220939
-2.235984 17.988750 0.309628
-2.224448 18.068695 0.270042
-2.060307 17.992201 -0.157984
-1.938370 17.884735 -0.428997
-1.946240 17.894379 -0.413039
-2.040711 17.898439 -0.185191
-2.214377 18.146214 0.229609
-2.138910 17.892635 0.036677
-1.992748 18.027407 -0.311971
-2.247774 18.094604 0.307541
-2.051587 17.910707 -0.168147
-1.969013 17.844793 -0.329811
-2.207522 18.234056 0.190612
-2.031982 17.829077 -0.140394
-2.169804 18.190218 0.059152
-2.217992 17.840372 -0.580326
-2.015388 17.821283 -0.170604
-2.249012 17.846745 -0.594869
-2.270597 18.295303 0.324513
-1.988970 17.952129 -0.325697
-2.230275 18.010241 0.295598
-1.922159 17.992590 -0.444644
-1.948178 18.014206 -0.396164
-1.944708 18.009363 -0.421915
-2.349523 18.289707 0.520074
-2.061894 18.117432 -0.154794
-2.135643 18.105406 0.049224
-2.129538 18.007439 0.005726
-2.117397 18.080305 -0.035435
-1.979965 17.876030 -0.333172
-2.138167 17.931564 0.047406
-2.005302 18.078756 -0.270180
-2.124696 18.022913 0.039318
-2.086876 18.156898 -0.069566
-1.963470 17.950758 -0.377737
-2.254202 18.217548 0.304733
-2.334928 18.381151 0.490258
-2.023173 18.009045 -0.237590
-2.227896 18.031761 0.295228
-2.216232 18.112522 0.257710
-2.053537 18.037237 -0.172647
-1.938939 17.931435 -0.447718
-1.938565 17.939533 -0.427328
-2.218217 18.193010 0.216361
-2.037610 17.943853 -0.201693
-1.985856 18.073248 -0.324565
-2.246890 18.139189 0.291512
-2.131336 17.937948 0.019956
-1.976526 17.890985 -0.352706
-2.045335 17.956200 -0.184393
-2.154789 18.232780 0.049275
-2.205845 18.282621 0.179206
-2.027574 17.873363 -0.157006
-1.935051 17.869152 -0.431407
-2.266319 18.339725 0.313608
-1.938050 17.872709 -0.430690
-2.036658 17.867279 -0.199778
-1.968462 17.995504 -0.333342
-1.934625 18.043072 -0.470394
-1.955942 18.063410 -0.416887
-2.236186 18.057943 0.276371
-1.942392 18.057299 -0.437465
-2.061410 18.164173 -0.170720
-2.139226 18.151018 0.033043
-2.119550 17.834635 -0.400847
-2.120409 18.052315 -0.006606
-2.108657 18.126453 -0.047290
-1.975158 17.921822 -0.351381
-2.004299 18.125971 -0.284884
-2.133227 17.976345 0.032011
-2.132465 18.069363 0.019707
-2.258556 18.264801 0.289886
-2.097509 18.208633 -0.086768
-1.947937 17.995644 -0.387117
-2.224273 18.074892 0.281046
-2.213916 18.156784 0.243635
-2.338877 18.431824 0.481260
-2.018633 18.055067 -0.252514
-2.044029 18.080814 -0.185473
-2.254138 17.819777 -0.615328
-2.216911 17.813665 -0.610897
-1.927593 17.977142 -0.460536
-1.931802 17.985477 -0.442365
-2.209861 18.239525 0.205353
-2.037259 17.989779 -0.219681
-1.986809 18.121222 -0.342822
-2.242326 18.185265 0.276587
-2.043161 18.000532 -0.200908
-2.123764 17.983257 0.003225
-1.967535 17.935942 -0.367482
-1.946930 17.838421 -0.355206
-2.152338 18.279705 0.036523
-2.202340 18.330524 0.168898
-2.044654 17.919453 -0.183118
-2.269230 18.387589 0.300341
-2.342238 18.294397 0.530215
-1.935745 17.915964 -0.452576
-1.937833 17.918724 -0.451121
-2.029104 17.911631 -0.216142
-1.969029 18.042208 -0.352079
-1.954545 18.111198 -0.432816
-1.929564 18.090483 -0.484475
-2.231753 18.103199 0.259376
-2.064594 18.211281 -0.188503
-2.138736 18.197779 0.017114
-1.934181 18.104794 -0.451290
-1.952983 17.869083 -0.332663
-2.114029 18.097706 -0.020426
-2.098613 18.171459 -0.059270
-2.128296 18.020182 0.016974
-2.011528 18.176592 -0.304764
-1.967080 17.967573 -0.366900
-2.251647 18.309755 0.277645
-2.099110 18.258133 -0.101253
-2.126601 18.115210 0.004297
-1.953077 18.044445 -0.408808
-2.232304 18.121593 0.264729
-2.218661 18.205317 0.229274
-2.340982 18.483707 0.472625
-2.007673 18.101133 -0.264491
-2.037651 18.127119 -0.199668
-1.918516 17.848700 -0.435084
-1.914813 18.022533 -0.471403
-1.904218 17.843781 -0.441738
-2.215912 18.289179 0.191097
-1.988157 18.169529 -0.360235
-2.029577 18.034945 -0.233984
-1.924109 18.033432 -0.457775
-2.242227 18.231457 0.261880
-2.026438 18.044407 -0.212853
-2.112534 18.027248 -0.011301
-1.959459 17.981689 -0.383004
-1.962427 17.884991 -0.385469
-2.148188 18.325144 0.022794
-2.273842 18.436922 0.288034
-2.039331 17.963865 -0.199377
-2.200127 18.381435 0.157961
-1.925843 17.961048 -0.466992
-1.964101 18.087873 -0.367869
-2.026123 17.958086 -0.235466
-1.928434 17.966133 -0.467863
-1.946728 18.159031 -0.445798
-1.930510 18.140305 -0.503479
-2.058603 18.258850 -0.202228
-2.346577 18.433559 0.489126
-2.225879 18.149071 0.243965
-1.934215 18.153824 -0.469558
-2.129601 18.243584 0.004388
-1.976202 17.917685 -0.366139
-2.108570 18.142950 -0.034623
-2.107934 18.222990 -0.076964
-1.959011 18.012383 -0.382060
-2.248268 18.356840 0.265255
-2.002665 18.224463 -0.314936
-2.112481 18.063938 0.004659
-2.099787 18.308699 -0.115746
-2.127943 18.162624 -0.012742
-2.222391 18.163933 0.251411
-1.953117 18.092548 -0.426702
-2.221184 18.252840 0.215159
-2.026302 18.171907 -0.212140
-2.011767 18.149965 -0.283381
-2.339027 18.534870 0.464974
-1.921393 18.071630 -0.495065
-1.930869 17.895332 -0.465097
-1.982697 18.216599 -0.375185
-1.923102 17.892357 -0.477885
-2.205722 18.335964 0.180810
-2.021373 18.080589 -0.247073
-1.935784 18.084152 -0.485614
-2.234516 18.277601 0.247194
-2.025164 18.091398 -0.230858
-2.110333 18.074408 -0.028929
-1.943534 18.026230 -0.393251
-2.147554 18.374582 0.008182
-2.344823 18.293648 0.534471
-1.944794 17.928989 -0.397043
-2.270865 18.483400 0.276851
-2.203288 18.433250 0.146502
-2.033997 18.010145 -0.216380
-1.964255 18.137026 -0.388580
-1.948068 18.209190 -0.463959
-2.013062 18.003269 -0.249629
-1.906098 18.009777 -0.474787
-2.346991 18.483025 0.479883
-2.051687 18.307493 -0.215960
-1.931509 18.201395 -0.485989
-2.133554 18.293261 -0.012436
-2.226285 18.197590 0.226929
-1.954902 17.961308 -0.375871
-2.110302 18.191635 -0.051184
-2.107313 18.271488 -0.091203
-2.245810 18.403778 0.252486
-2.123397 18.111231 -0.015592
-2.008052 18.276281 -0.334464
-1.961535 18.059839 -0.404360
-2.095888 18.358089 -0.127663
-2.226357 18.210840 0.235704
-2.121157 18.209536 -0.028169
-1.953675 18.141098 -0.446195
-2.218728 18.299780 0.202398
-1.992573 18.193544 -0.290576
-2.027246 18.220821 -0.230784
-2.341521 18.588017 0.456804
-1.925213 18.121138 -0.517627
-1.917418 17.940149 -0.480115
-1.977218 18.265533 -0.390881
-2.214380 18.387877 0.166766
-1.924441 18.128906 -0.498094
-2.023754 18.128880 -0.267302
-1.907297 17.936998 -0.490574
-2.238853 18.326712 0.231588
-2.153204 18.424784 -0.007325
-2.025714 18.139036 -0.249983
-2.269171 18.532885 0.265034
-1.959783 18.077194 -0.423313
-1.943781 17.974318 -0.419202
-2.109029 18.123293 -0.047677
-2.206827 18.486338 0.135511
-2.033239 18.056656 -0.235617
-1.970295 18.186604 -0.411044
-1.942980 18.258461 -0.478815
-2.002746 18.048033 -0.264922
-2.050262 18.356220 -0.232301
-2.342940 18.531435 0.470758
-1.930596 18.252424 -0.504654
-2.131210 18.341223 -0.028034
-2.217253 18.243540 0.211739
-1.957025 18.007496 -0.398667
-2.112021 18.240318 -0.067770
-2.106663 18.321859 -0.106205
-2.249608 18.454302 0.237705
-2.004654 18.327044 -0.348364
-2.111633 18.155704 -0.028937
-1.957621 18.107342 -0.423728
-2.091046 18.408562 -0.139607
-2.224412 18.257315 0.221701
-2.214027 18.346668 0.189494
-1.943610 18.188869 -0.459322
-2.121158 18.258615 -0.046466
-2.039543 18.273998 -0.255250
-2.006179 18.247854 -0.314926
-2.339939 18.640459 0.449593
-1.918427 18.168936 -0.533456
-1.984932 18.319386 -0.413509
-2.213076 18.438650 0.155415
-2.005974 18.173719 -0.276851
-1.905359 17.983398 -0.512753
-2.141698 18.471346 -0.018146
-2.231925 18.373543 0.218564
-2.264348 18.579645 0.254549
-2.017599 18.187605 -0.266663
-1.945677 18.122389 -0.434707
-1.922472 18.017946 -0.428968
-2.101841 18.169874 -0.063984
-2.345337 18.486067 0.485663
-2.201850 18.537663 0.125627
-2.022004 18.101562 -0.250559
-1.959839 18.234039 -0.425033
-1.912306 18.102879 -0.523957
-1.912654 18.285828 -0.548277
-1.943372 18.310623 -0.497384
-1.910727 18.105265 -0.520658
-2.046469 18.406651 -0.247068
-2.350398 18.586107 0.460822
-1.919618 18.300325 -0.517430
-2.121140 18.388102 -0.040811
-2.004314 18.098463 -0.287986
-2.106015 18.287912 -0.081532
-2.214897 18.292482 0.195767
-1.969211 18.057751 -0.427755
-2.250656 18.505247 0.224016
-2.104179 18.372511 -0.120484
-1.988052 18.373825 -0.355747
-2.118457 18.205086 -0.049338
-2.220249 18.302790 0.207940
-1.956452 18.156290 -0.444957
-2.086595 18.460308 -0.151082
-2.217317 18.396742 0.176296
-1.947807 18.239655 -0.481439
-2.119722 18.308315 -0.063183
-2.017960 18.301497 -0.338181
-2.032223 18.322300 -0.269872
-2.356614 18.425888 0.493007
-2.339144 18.694519 0.443706
-1.908887 18.217150 -0.548187
-1.974861 18.368086 -0.427030
-2.208631 18.488562 0.144679
-2.141448 18.521112 -0.031957
-2.016064 18.224964 -0.300697
-2.262129 18.629612 0.243916
-1.903421 18.029789 -0.534942
-2.348168 18.433617 0.496196
-2.222751 18.422184 0.204679
-2.019961 18.237762 -0.287670
-1.943590 18.171474 -0.455570
-2.348493 18.536055 0.474900
-1.933347 18.067993 -0.458544
-2.105510 18.220264 -0.084502
-2.207588 18.594549 0.113237
-2.030789 18.151682 -0.274513
-2.042690 18.455198 -0.261107
-1.916243 18.152494 -0.548998
-1.963101 18.286833 -0.447524
-1.918127 18.341463 -0.571768
-1.933174 18.360138 -0.508833
-2.347123 18.637072 0.452634
-1.914262 18.155474 -0.546921
-1.926023 18.353951 -0.540554
-2.127293 18.440630 -0.058679
-1.993993 18.144157 -0.303677
-2.110865 18.339312 -0.099506
-2.249866 18.556465 0.211057
-2.104831 18.424942 -0.135766
-1.944235 18.101000 -0.435689
-2.216588 18.344007 0.178053
-1.993804 18.427839 -0.375210
-2.102121 18.248384 -0.060122
-2.215160 18.349335 0.194171
-2.087632 18.514002 -0.165890
-2.212090 18.445038 0.164224
-1.943767 18.203659 -0.459065
-1.937740 18.288351 -0.494957
-2.021252 18.368351 -0.281919
-2.114225 18.357292 -0.078917
-2.000569 18.347595 -0.347272
-2.349460 18.754478 0.436166
-2.352804 18.475473 0.478609
-1.967538 18.417288 -0.442037
-2.265670 18.681759 0.233248
-1.904441 18.266972 -0.567104
-2.155566 18.578678 -0.050857
-2.211381 18.540966 0.131947
-1.916080 18.278976 -0.556181
-2.346089 18.480934 0.484238
-2.008740 18.274199 -0.315689
-1.907915 18.081758 -0.545938
-1.901994 18.077559 -0.559099
-2.225630 18.473780 0.189878
-2.020493 18.287256 -0.307579
-2.353341 18.588449 0.464726
-1.943727 18.221544 -0.476698
-2.207452 18.648188 0.103676
-1.937277 18.118559 -0.483952
-2.104593 18.270414 -0.102815
-2.039407 18.506996 -0.277854
-1.920860 18.395638 -0.593424
-1.954468 18.335840 -0.463010
-1.933551 18.414152 -0.528160
-1.906827 18.200815 -0.566178
-2.344242 18.688370 0.445289
-2.129778 18.492777 -0.074709
-1.907594 18.204308 -0.565579
-1.918675 18.406879 -0.557041
-2.244120 18.604294 0.200558
-2.002364 18.196728 -0.329601
-2.105247 18.388168 -0.112803
-2.089655 18.472052 -0.145124
-1.996794 18.483200 -0.393944
-1.950518 18.151731 -0.463432
-2.217662 18.398722 0.179259
-2.111550 18.300959 -0.080681
-2.205709 18.392099 0.162827
-2.094020 18.571404 -0.182325
-2.206864 18.493326 0.152142
-1.933838 18.250601 -0.474291
-2.107301 18.405012 -0.092331
-2.026207 18.422625 -0.303461
-1.930924 18.339874 -0.512292
-2.016374 18.406603 -0.373383
-2.264740 18.734716 0.221973
-1.973400 18.473259 -0.464693
-2.141297 18.626577 -0.060967
-1.900383 18.318064 -0.585547
-2.352917 18.527529 0.464912
-2.207314 18.593077 0.121307
-2.349762 18.531372 0.471876
-2.014230 18.327061 -0.338076
-1.900862 18.129318 -0.565075
-1.906123 18.329639 -0.572893
-2.228510 18.525366 0.175067
-1.893104 18.125401 -0.577498
-2.373958 18.654531 0.488656
-2.349286 18.637791 0.455193
-2.011856 18.336281 -0.323066
-1.934703 18.270210 -0.493035
-2.212651 18.707405 0.091750
-1.927466 18.166546 -0.501985
-2.095957 18.318531 -0.117928
-2.035599 18.559269 -0.293388
-2.008689 18.245552 -0.305067
-1.938517 18.382231 -0.474075
-1.935750 18.469742 -0.548973
-1.909854 18.447248 -0.607704
-1.902900 18.251085 -0.586692
-2.347099 18.744661 0.436800
-2.129107 18.545933 -0.090863
-1.914599 18.459826 -0.576238
-1.898164 18.254490 -0.583508
-2.252211 18.661345 0.185822
-1.996091 18.244991 -0.347043
-2.108246 18.441700 -0.130795
-2.095658 18.528183 -0.162044
-1.990622 18.537161 -0.407888
-2.220150 18.449974 0.163600
-1.942929 18.200716 -0.481725
-2.092681 18.627716 -0.195931
-2.112857 18.352091 -0.099263
-2.214966 18.549452 0.137784
-2.208181 18.445223 0.146429
-1.938137 18.304285 -0.499979
-2.030237 18.477962 -0.325012
-1.928168 18.392099 -0.530631
-2.106762 18.457352 -0.110555
-2.011251 18.459606 -0.389765
-1.970625 18.527344 -0.483782
-2.148584 18.685705 -0.078524
-2.211741 18.649748 0.108414
-1.899575 18.371977 -0.607806
-2.343622 18.577959 0.460894
-2.345039 18.577322 0.451117
-1.900752 18.380520 -0.591831
-2.009640 18.378660 -0.355304
-1.897584 18.179222 -0.589251
-2.228224 18.578897 0.159764
-1.890746 18.175161 -0.602043
-2.350065 18.690393 0.445625
-2.369484 18.706335 0.477153
-2.010538 18.387907 -0.342994
-1.941219 18.325817 -0.519351
-2.038577 18.615555 -0.312510
-2.087306 18.368515 -0.133790
-2.030655 18.303360 -0.337057
-1.945030 18.437824 -0.500403
-1.904336 18.500807 -0.625318
-1.931535 18.524441 -0.566474
-2.123463 18.597574 -0.105295
-1.896736 18.302223 -0.607699
-1.907251 18.512735 -0.592746
-1.893830 18.306280 -0.605623
-2.243292 18.712051 0.174452
-2.090847 18.487812 -0.139909
-1.996218 18.296000 -0.368556
-2.094457 18.582739 -0.177355
-1.996724 18.597090 -0.428744
-2.223942 18.502352 0.148045
-2.091342 18.684015 -0.209547
-2.209208 18.599144 0.126536
-2.104220 18.400200 -0.114391
-1.930370 18.248184 -0.498296
-1.928719 18.352594 -0.517185
-2.200316 18.494980 0.132633
-2.019237 18.527731 -0.338564
-1.927751 18.446352 -0.552048
-2.109753 18.511808 -0.128928
-2.142808 18.738157 -0.090895
-1.961838 18.579948 -0.498335
-2.004292 18.512882 -0.405418
-2.217465 18.708481 0.095257
-2.347675 18.630596 0.448628
-1.896012 18.426302 -0.628968
-2.342382 18.631659 0.437769
-1.902677 18.436802 -0.616317
-2.019162 18.435949 -0.380181
-2.238139 18.637533 0.143545
-2.348999 18.744207 0.436416
-1.891035 18.229088 -0.610738
-2.377829 18.764582 0.465332
-1.882360 18.225307 -0.622791
-2.006464 18.439947 -0.361824
-1.934534 18.376503 -0.538776
-1.913859 18.263975 -0.542626
-1.906121 18.558826 -0.648112
-1.930054 18.581507 -0.586201
-1.939116 18.491055 -0.518873
-2.087287 18.421301 -0.153609
-2.004750 18.347687 -0.345031
-2.120037 18.651134 -0.120362
-1.912693 18.572060 -0.617756
-1.894625 18.354994 -0.630078
-1.879830 18.354347 -0.620619
-2.094225 18.543539 -0.157807
-2.084619 18.635416 -0.189100
-1.986885 18.650663 -0.440863
-1.990441 18.347504 -0.388716
-2.213343 18.549715 0.136455
-2.091680 18.744589 -0.223315
-2.214152 18.656265 0.112043
-2.105915 18.452591 -0.132509
-1.935182 18.303246 -0.525953
-1.931167 18.408405 -0.542893
-2.210365 18.552799 0.114342
-1.921832 18.500509 -0.570891
-2.020095 18.585934 -0.360990
-1.969083 18.642731 -0.525568
-2.101472 18.564919 -0.145072
-2.343220 18.680523 0.437856
-1.892448 18.480616 -0.650141
-1.899120 18.490181 -0.637121
-2.002275 18.484348 -0.391635
-2.342875 18.685900 0.424156
-2.228822 18.688828 0.130946
-1.881745 18.277494 -0.630388
-1.876329 18.275612 -0.645879
-2.000532 18.495068 -0.381035
-1.930059 18.430042 -0.559205
-1.912265 18.317211 -0.566597
-1.902403 18.616749 -0.668333
-1.923987 18.638336 -0.603724
-1.936846 18.547445 -0.540307
-2.102614 18.700037 -0.130612
-2.001203 18.399244 -0.365086
-1.909498 18.629501 -0.639200
-2.079928 18.474276 -0.170116
-1.886624 18.406393 -0.650368
-1.893389 18.413223 -0.655054
-2.093535 18.599480 -0.175091
-1.992964 18.713369 -0.462849
-2.090066 18.695738 -0.206306
-2.216597 18.604429 0.121364
-2.221313 18.715305 0.096916
-1.981902 18.400358 -0.408149
-2.099882 18.503891 -0.147798
-1.920786 18.350979 -0.541807
-2.007251 18.636904 -0.374194
-1.923215 18.559126 -0.594914
-1.921720 18.460436 -0.561596
-1.955711 18.695089 -0.537927
-2.204701 18.606339 0.099162
-1.996627 18.624849 -0.439482
-2.085889 18.613541 -0.156055
-2.346740 18.734560 0.426424
-1.895787 18.539982 -0.677716
-1.894237 18.545218 -0.659158
-1.989958 18.534840 -0.406054
-2.229294 18.746754 0.115839
-2.347663 18.745756 0.410988
-1.879359 18.330965 -0.656441
-1.874869 18.328003 -0.671932
-1.918273 18.480030 -0.574844
-2.028361 18.785563 -0.363892
-1.923401 18.698038 -0.624950
-1.898678 18.675594 -0.688934
-1.910277 18.370092 -0.591431
-2.111718 18.761658 -0.150042
-1.925430 18.600573 -0.556214
-1.998961 18.451929 -0.385036
-1.906690 18.688208 -0.660171
-2.075318 18.527750 -0.188111
-1.884090 18.462538 -0.675099
-1.882633 18.465034 -0.674247
-2.092328 18.654955 -0.190795
-1.993539 18.775978 -0.482261
-2.087400 18.753693 -0.221167
-2.225202 18.662849 0.104646
-2.088870 18.554613 -0.161734
-1.981083 18.455215 -0.430801
-1.920103 18.404995 -0.566532
-1.947410 18.751852 -0.555582
-1.920415 18.616913 -0.615511
-1.915014 18.513901 -0.582157
-1.991482 18.680614 -0.457013
-2.206613 18.664581 0.082097
-1.888536 18.596706 -0.698173
-1.894295 18.605480 -0.684417
-1.995792 18.594528 -0.430225
-1.879312 18.386457 -0.685573
-1.872476 18.382391 -0.698365
-1.997306 18.607141 -0.423066
-1.916509 18.538731 -0.598619
-1.922268 18.761015 -0.646074
-1.897276 18.738327 -0.713354
-1.930061 18.662001 -0.584062
-1.903697 18.423670 -0.614430
-1.995385 18.507206 -0.406589
-1.900703 18.750719 -0.682379
-1.885725 18.521355 -0.704017
-2.069782 18.582289 -0.206117
-1.883350 18.523993 -0.702798
-2.090179 18.713369 -0.207249
-2.215369 18.713680 0.093623
-2.092759 18.611708 -0.181615
-1.985601 18.742332 -0.402736
-1.982079 18.512579 -0.455312
-1.918110 18.677938 -0.638820
-1.989843 18.741301 -0.475805
-1.913916 18.458914 -0.588684
-1.918345 18.574202 -0.610114
-2.093502 18.732271 -0.195234
-1.882196 18.654211 -0.719379
-2.199492 18.720598 0.067746
-1.885207 18.662477 -0.704148
-1.984758 18.648939 -0.445660
-1.873647 18.440807 -0.709318
-1.988633 18.660782 -0.440462
-1.864581 18.436682 -0.722225
-1.918922 18.599165 -0.626212
-1.886218 18.796415 -0.730286
-1.928673 18.722881 -0.607746
-1.996781 18.563972 -0.429885
-1.899845 18.480547 -0.640026
-1.878607 18.577246 -0.726556
-2.076391 18.643620 -0.228961
-1.878965 18.582260 -0.727553
-2.011744 18.819641 -0.439890
-2.097931 18.672729 -0.202502
-1.970275 18.564438 -0.471709
-1.913976 18.738300 -0.661032
-1.987788 18.804434 -0.496572
-1.908862 18.630871 -0.630699
-1.910966 18.517517 -0.615394
-1.879091 18.716394 -0.745144
-1.883013 18.725454 -0.730653
-1.986911 18.710100 -0.468746
-1.986725 18.721235 -0.462558
-1.867180 18.496330 -0.735519
-1.865038 18.494461 -0.753709
-1.912172 18.658203 -0.649018
-1.926359 18.784822 -0.631443
-1.895081 18.536617 -0.664895
-1.984954 18.618635 -0.447400
-1.873289 18.637512 -0.751693
-2.067567 18.699982 -0.245031
-1.869595 18.640882 -0.751329
-2.076057 18.720562 -0.212638
-1.918033 18.806705 -0.690275
-1.960272 18.620680 -0.490705
-1.910341 18.693295 -0.658681
-1.907506 18.574720 -0.640154
-1.885103 18.785543 -0.777939
-1.886794 18.794546 -0.763565
-1.985382 18.772751 -0.490739
-1.983489 18.783340 -0.485889
-1.861092 18.554049 -0.761619
-1.909475 18.718870 -0.673198
-1.850190 18.550205 -0.773788
-1.987618 18.681181 -0.472454
-1.888466 18.594828 -0.689777
-1.869400 18.699003 -0.779172
-2.067352 18.761936 -0.266169
-1.865705 18.702374 -0.778809
-1.963972 18.684116 -0.518945
-1.907760 18.754992 -0.685681
-1.905460 18.635019 -0.667996
-1.908192 18.782629 -0.700459
-1.852774 18.611696 -0.787845
-1.975784 18.736753 -0.490362
-1.886414 18.656048 -0.717995
-1.869664 18.765026 -0.811580
-1.956688 18.744574 -0.540921
-1.903399 18.697170 -0.696589
-1.979847 18.804247 -0.519249
-1.879777 18.717030 -0.744011
-1.952111 18.809258 -0.565866
-1.893090 18.756849 -0.720394
-1.835355 18.732841 -0.863453
-1.885076 18.789322 -0.782474
-1.831857 18.798435 -0.875245
-1.819142 18.792072 -0.885568
