# .PCD v0.7 - Point Cloud Data file format
VERSION 0.7
FIELDS x y z
SIZE 4 4 4
TYPE F F F
COUNT 1 1 1
WIDTH 718
HEIGHT 1
VIEWPOINT 0 0 0 1
POINTS 718
DATA ascii
-2.259873 17.877752 0.550481
-2.262758 17.886473 0.521267
-2.263107 17.927929 0.528810
-2.250663 17.940475 0.500129
-2.257889 17.846939 0.528855
-2.162701 17.873075 0.271655
-2.172772 17.873987 0.270015
-2.253220 17.982132 0.507943
-2.242401 17.993261 0.478112
-2.113826 17.844172 0.093527
-2.283297 17.921825 0.583486
-2.260458 17.897381 0.505059
-2.163722 17.923237 0.253031
-2.165769 17.927210 0.251903
-2.099549 17.865362 0.076823
-2.251711 18.032688 0.487809
-2.189659 17.862726 0.325597
-2.171266 17.843628 0.272878
-2.244845 18.039759 0.458156
-2.110357 17.895996 0.076980
-2.276986 17.973518 0.561218
-2.248732 17.949701 0.482200
-2.165694 17.973337 0.234107
-2.162686 17.977329 0.233624
-2.104700 17.914661 0.058221
-2.252344 17.859634 0.511959
-2.073769 17.893003 -0.026332
-2.069612 17.892658 -0.032633
-2.253401 18.082432 0.467997
-2.182396 17.914665 0.306959
-2.165894 17.895428 0.253627
-2.115760 17.861189 0.125408
-2.242113 18.089115 0.437796
-2.106929 17.946882 0.060786
-2.272963 18.023531 0.539928
-2.239565 18.001627 0.460854
-2.162922 18.023804 0.216718
-2.161541 18.026369 0.215085
-2.213228 17.857931 0.377445
-2.098735 17.966108 0.043834
-2.247651 17.909906 0.488548
-2.109965 17.877890 0.083762
-2.068704 17.945332 -0.041374
-2.251972 18.131113 0.448569
-2.065805 17.945255 -0.047094
-2.181855 17.964224 0.286878
-2.164399 17.945063 0.233853
-2.301822 17.969900 0.613294
-2.238512 18.136660 0.418445
-2.118708 17.910286 0.106535
-2.101604 17.997921 0.045207
-2.270240 18.072878 0.519571
-2.237510 18.049625 0.439655
-2.163663 17.867395 0.256972
-2.155406 18.074636 0.200863
-2.075113 17.892473 0.004650
-2.079048 17.885939 -0.007753
-2.201473 17.911358 0.357565
-2.156560 18.076649 0.197424
-2.094357 18.017080 0.027950
-2.237862 17.961151 0.465435
-2.107177 17.928366 0.066379
-2.069454 17.994404 -0.057200
-2.132492 17.859449 0.171724
-2.249595 18.179873 0.429451
-2.065606 17.994400 -0.062614
-2.175892 18.015505 0.269175
-2.299432 18.018482 0.590859
-2.157766 17.996613 0.214026
-2.240307 17.858921 0.491222
-2.238110 18.183393 0.399416
-2.123324 17.957016 0.086865
-2.104981 18.044542 0.028276
-2.269495 18.120199 0.499304
-2.234507 18.097704 0.418764
-2.110418 17.862713 0.092485
-2.163443 17.916206 0.234814
-2.081967 17.938467 -0.014394
-2.075654 17.935894 -0.023588
-2.146630 18.125212 0.184430
-2.199679 17.960644 0.336908
-2.157706 18.124008 0.179867
-2.091322 18.066439 0.013350
-2.239332 18.007578 0.442476
-2.107954 17.976334 0.047587
-2.137113 17.906172 0.152055
-2.073133 18.041374 -0.073240
-2.062602 18.042822 -0.076861
-2.246580 18.229052 0.411529
-2.289099 18.068249 0.569642
-2.172584 18.063406 0.250720
-2.156351 18.044374 0.194957
-2.237239 17.907776 0.466668
-2.231663 18.231169 0.380989
-2.114846 18.007931 0.071325
-2.093923 18.096975 0.014189
-2.264914 18.168758 0.479916
-2.093668 17.889074 0.037433
-2.218576 17.902248 0.409933
-2.084905 17.880516 0.012231
-2.236680 18.142935 0.398282
-2.113771 17.909176 0.072237
-2.156812 17.967756 0.214993
-2.077315 17.988161 -0.030808
-2.198276 18.008389 0.317842
-2.070960 17.986534 -0.040353
-2.152873 18.171612 0.166582
-2.150949 18.171612 0.163875
-2.094700 18.113070 -0.003576
-2.236967 18.055241 0.420396
-2.096627 18.027472 0.032967
-2.134661 17.955893 0.132597
-2.062417 18.093212 -0.086086
-2.063394 18.090960 -0.092330
-2.284810 18.116991 0.547824
-2.173424 18.110422 0.232278
-2.249653 18.276255 0.393362
-2.155885 18.092072 0.175585
-2.228087 17.958616 0.442369
-2.161588 17.876482 0.232344
-2.234500 18.276148 0.362637
-2.113092 18.056461 0.054342
-2.096393 18.142735 -0.002079
-2.114406 17.835970 0.095356
-2.211380 17.952154 0.388692
-2.090606 17.938276 0.019522
-2.264481 18.216433 0.460542
-2.080852 17.930737 -0.005724
-2.230870 18.190298 0.378667
-2.149989 18.016142 0.195338
-2.104589 17.961300 0.054227
-2.188890 18.058266 0.299643
-2.068189 18.039507 -0.045150
-2.072080 18.033915 -0.057902
-2.153112 18.218111 0.149689
-2.150239 18.218184 0.147288
-2.146711 17.900391 0.196766
-2.230453 18.103806 0.398307
-2.087829 18.163673 -0.017294
-2.099342 18.074366 0.013918
-2.128765 18.005304 0.115607
-2.284150 18.162428 0.528266
-2.062302 18.140484 -0.100895
-2.058453 18.140484 -0.106308
-2.165645 18.159983 0.215897
-2.236526 18.325493 0.376734
-2.151975 18.139458 0.158680
-2.158250 17.924231 0.210578
-2.223159 18.006687 0.418783
-2.225286 18.322266 0.345836
-2.105117 17.880697 0.068957
-2.106594 18.105358 0.038895
-2.083611 17.871065 0.030609
-2.105592 17.886387 0.075621
-2.093090 18.190823 -0.017207
-2.212558 17.998398 0.368173
-2.093048 17.983881 -0.000064
-2.259980 18.263119 0.441860
-2.079726 17.978859 -0.023895
-2.226997 18.236580 0.358792
-2.098374 18.010384 0.036351
-2.154985 18.061180 0.173944
-2.194249 18.102690 0.279486
-2.064878 18.087595 -0.060277
-2.064933 18.083235 -0.072153
-2.156510 18.264736 0.132768
-2.303717 18.103580 0.600101
-2.150167 18.264347 0.129511
-2.146879 17.947666 0.176206
-2.231325 18.149719 0.376900
-2.095086 18.208134 -0.034737
-2.100201 18.120462 -0.004165
-2.124455 18.054243 0.097117
-2.286337 18.207655 0.507790
-2.052618 18.190376 -0.113339
-2.048172 18.189844 -0.117209
-2.169413 18.204903 0.197244
-2.143918 18.187746 0.141766
-2.237702 18.372850 0.359188
-2.151035 17.974163 0.189341
-2.224315 18.052788 0.394945
-2.227215 18.366381 0.328147
-2.098551 17.930376 0.049847
-2.082502 17.918091 0.009471
-2.099106 18.155281 0.023407
-2.105436 17.933338 0.054176
-2.206390 18.046360 0.347329
-2.089829 18.237972 -0.031981
-2.084253 18.034473 -0.016480
-2.261837 18.309111 0.423469
-2.072866 18.028366 -0.040575
-2.218380 18.283232 0.340452
-2.098922 18.056135 0.017382
-2.151361 18.108759 0.154612
-2.181705 18.152460 0.261325
-2.065093 18.134115 -0.077163
-2.055577 18.132370 -0.086676
-2.297264 18.151188 0.578368
-2.153294 18.309692 0.112057
-2.152278 18.312891 0.117950
-2.140054 17.996058 0.156559
-2.223305 18.196894 0.357019
-2.095620 18.254993 -0.050733
-2.095679 18.167337 -0.019519
-2.280581 18.254068 0.488532
-2.118600 18.102726 0.080482
-2.055081 18.236156 -0.129596
-2.051583 18.235552 -0.133772
-2.167721 18.252491 0.180620
-2.238010 18.418394 0.342651
-2.153103 18.230957 0.120742
-2.149633 18.020842 0.167316
-2.216540 18.101093 0.372284
-2.232305 18.410618 0.310432
-2.091347 17.980478 0.031935
-2.199625 18.093798 0.328031
-2.085579 17.963287 -0.011304
-2.100808 17.981937 0.034805
-2.107953 18.199255 0.004467
-2.096776 18.282095 -0.050304
-2.080325 18.081879 -0.033376
-2.260537 18.354984 0.405113
-2.070561 18.074347 -0.058621
-2.216797 18.327831 0.321559
-2.091799 18.104362 0.000168
-2.153550 18.153078 0.134494
-2.182592 18.198540 0.243244
-2.292826 18.195826 0.557074
-2.068196 18.179478 -0.094614
-2.059627 18.177662 -0.104433
-2.150729 18.355476 0.096444
-2.136427 18.043636 0.137232
-2.154418 18.359257 0.100457
-2.215921 18.243666 0.335946
-2.093309 18.302076 -0.065806
-2.092703 18.214682 -0.036719
-2.275814 18.299473 0.469321
-2.329898 18.543549 0.558743
-2.120145 18.147465 0.061560
-2.068026 18.280190 -0.148865
-2.162910 18.299021 0.164381
-2.062630 18.279732 -0.152428
-2.144138 18.278387 0.104491
-2.138026 18.070549 0.148857
-2.209155 18.147856 0.351213
-2.323121 18.456469 0.571830
-2.242388 18.464935 0.325433
-2.230401 18.455976 0.293625
-2.087748 18.027126 0.012960
-2.198632 18.138922 0.307596
-2.075212 18.013275 -0.029180
-2.101538 18.246281 -0.010270
-2.100692 18.027958 0.013715
-2.099252 18.327869 -0.066556
-2.259589 18.400259 0.387998
-2.075407 18.130310 -0.050313
-2.070466 18.120527 -0.076390
-2.219363 18.371540 0.302683
-2.094922 18.148626 -0.020252
-2.139448 18.202412 0.118190
-2.186095 18.242178 0.224060
-2.294746 18.239771 0.536068
-2.071039 18.220144 -0.124824
-2.065525 18.227169 -0.110923
-2.151961 18.400972 0.079611
-2.134738 18.090134 0.117644
-2.153116 18.405310 0.085430
-2.213077 18.287998 0.316475
-2.096733 18.347778 -0.082361
-2.089809 18.260139 -0.053216
-2.325541 18.587410 0.541125
-2.273257 18.345078 0.450387
-2.111444 18.196180 0.045851
-2.061952 18.326632 -0.162358
-2.166682 18.343952 0.145739
-2.056826 18.327459 -0.165384
-2.143158 18.323689 0.087382
-2.139549 18.115135 0.126617
-2.322206 18.500641 0.551748
-2.212599 18.192284 0.328358
-2.238863 18.511724 0.309780
-2.227237 18.501072 0.276242
-2.197992 18.183447 0.288401
-2.086994 18.073565 -0.006933
-2.088473 18.077150 -0.003195
-2.053692 18.066372 -0.043186
-2.102756 18.291786 -0.027102
-2.315797 18.413122 0.569369
-2.098570 18.373526 -0.082772
-2.079827 18.173903 -0.069798
-2.245248 18.448303 0.371156
-2.071997 18.165283 -0.095305
-2.220942 18.416267 0.283767
-2.286513 18.284712 0.516007
-2.091675 18.194685 -0.037985
-2.141638 18.246742 0.098080
-2.185762 18.287054 0.205755
-2.156122 18.444361 0.062565
-2.064613 18.267187 -0.139553
-2.069308 18.271181 -0.129209
-2.131191 18.135836 0.099022
-2.150867 18.451443 0.070713
-2.218137 18.332094 0.295444
-2.321536 18.630671 0.524749
-2.091930 18.394484 -0.095270
-2.269792 18.389816 0.432114
-2.093558 18.305092 -0.071851
-2.112082 18.240057 0.027593
-2.065369 18.372343 -0.178906
-2.166970 18.389519 0.129215
-2.058386 18.372374 -0.180971
-2.144117 18.367903 0.070014
-2.319745 18.544357 0.533520
-2.136641 18.160429 0.106803
-2.201066 18.239958 0.307283
-2.215570 18.545887 0.261968
-2.232179 18.558399 0.294163
-2.192255 18.228945 0.269506
-2.073866 18.121897 -0.023184
-2.069942 18.105511 -0.067384
-2.085551 18.122456 -0.023008
-2.105873 18.337149 -0.044542
-2.313893 18.458313 0.549246
-2.093457 18.419893 -0.096566
-2.079776 18.219145 -0.087209
-2.248450 18.492687 0.354062
-2.071590 18.211134 -0.113953
-2.215525 18.462118 0.265761
-2.286886 18.328207 0.496857
-2.178748 18.333389 0.189250
-2.140033 18.291367 0.079199
-2.094162 18.239368 -0.057203
-2.309067 18.361397 0.564246
-2.144707 18.490480 0.048832
-2.064822 18.317137 -0.144197
-2.127604 18.182491 0.080054
-2.063570 18.313457 -0.157004
-2.216554 18.376703 0.276562
-2.150476 18.498375 0.055040
-2.322901 18.674246 0.508622
-2.264429 18.434706 0.414458
-2.084918 18.441000 -0.108449
-2.090029 18.350969 -0.087145
-2.107258 18.286604 0.011365
-2.062145 18.418573 -0.193308
-2.165050 18.434896 0.112420
-2.055473 18.418943 -0.194484
-2.318195 18.588951 0.514641
-2.146623 18.412579 0.050801
-2.137216 18.205099 0.084877
-2.227662 18.589014 0.243367
-2.199766 18.284758 0.285969
-2.240074 18.604458 0.278167
-2.192564 18.273409 0.250011
-2.081773 18.164860 -0.044780
-2.066065 18.150898 -0.086886
-2.077208 18.169487 -0.040440
-2.313653 18.501135 0.528326
-2.103933 18.382540 -0.061334
-2.095625 18.465336 -0.113689
-2.249755 18.537222 0.337586
-2.078425 18.265070 -0.105547
-2.068378 18.256262 -0.131328
-2.217458 18.506247 0.248092
-2.284062 18.372530 0.477394
-2.180315 18.378130 0.170341
-2.141276 18.335775 0.059403
-2.101123 18.282406 -0.078486
-2.311632 18.404940 0.542055
-2.144995 18.536058 0.032320
-2.125996 18.227116 0.061176
-2.066032 18.362658 -0.161018
-2.061972 18.358253 -0.172555
-2.213711 18.421051 0.257104
-2.150169 18.543421 0.040072
-2.321071 18.718649 0.492181
-2.264124 18.479572 0.396160
-2.089297 18.486637 -0.125295
-2.352845 18.748119 0.554241
-2.091883 18.396072 -0.105159
-2.114540 18.329977 -0.009030
-2.167279 18.479376 0.095643
-2.312576 18.632557 0.496453
-2.141890 18.457239 0.035280
-2.056996 18.464809 -0.210410
-2.059194 18.466089 -0.207166
-2.120944 18.253313 0.068664
-2.219158 18.633955 0.229071
-2.204511 18.328522 0.264056
-2.231535 18.650343 0.263522
-2.190976 18.318022 0.231133
-2.078890 18.209232 -0.064236
-2.089274 18.210466 -0.064990
-2.062501 18.196630 -0.105497
-2.304482 18.546169 0.508581
-2.105155 18.428055 -0.078152
-2.085809 18.511133 -0.125593
-2.079052 18.308964 -0.123794
-2.252921 18.582556 0.320152
-2.279068 18.415720 0.458010
-2.212123 18.550215 0.230796
-2.061643 18.302973 -0.146935
-2.179388 18.422485 0.153593
-2.090287 18.329063 -0.093754
-2.138086 18.380894 0.042032
-2.308749 18.450064 0.518926
-2.145324 18.580694 0.016164
-2.121501 18.272909 0.042872
-2.062499 18.408548 -0.176303
-2.063737 18.405256 -0.191264
-2.149823 18.589413 0.024760
-2.320229 18.762037 0.475790
-2.201936 18.467613 0.238821
-2.263899 18.522554 0.378567
-2.084500 18.533352 -0.138188
-2.347500 18.794098 0.539568
-2.089942 18.441473 -0.121942
-2.122135 18.373690 -0.028532
-2.313590 18.676743 0.479096
-2.162827 18.525320 0.080664
-2.224337 18.676313 0.212085
-2.051008 18.509375 -0.223184
-2.140603 18.502216 0.017302
-2.054116 18.511528 -0.220595
-2.126656 18.296078 0.046800
-2.206410 18.372505 0.243068
-2.195161 18.360312 0.211118
-2.241639 18.696585 0.247800
-2.086792 18.252192 -0.085836
-2.066291 18.239546 -0.126757
-2.086347 18.255779 -0.084804
-2.308932 18.590660 0.488745
-2.103526 18.473783 -0.094059
-2.088965 18.555552 -0.142675
-2.283585 18.458323 0.438870
-2.235214 18.628416 0.306477
-2.077060 18.355301 -0.140940
-2.214052 18.594341 0.213124
-2.064798 18.346306 -0.166995
-2.179094 18.466425 0.135643
-2.134580 18.425669 0.023766
-2.087078 18.374187 -0.111131
-2.142802 18.625544 0.000918
-2.300167 18.495626 0.497630
-2.120877 18.316517 0.024034
-2.066241 18.453505 -0.194930
-2.319422 18.804476 0.459739
-2.206436 18.510237 0.219689
-2.063046 18.450920 -0.207472
-2.149513 18.634453 0.009790
-2.263943 18.566818 0.361504
-2.079466 18.577829 -0.151276
-2.081394 18.486437 -0.136239
-2.117037 18.418953 -0.045294
-2.311128 18.720469 0.460874
-2.160309 18.570166 0.065415
-2.224686 18.720926 0.195921
-2.052530 18.555231 -0.239110
-2.133616 18.547630 0.001155
-2.129517 18.339054 0.025851
-2.057536 18.557234 -0.237133
-2.189773 18.405218 0.193466
-2.198463 18.417824 0.223903
-2.240373 18.742636 0.232799
-2.079439 18.298218 -0.103208
-2.065303 18.283781 -0.146812
-2.084415 18.300081 -0.104553
-2.306120 18.635000 0.469296
-2.095301 18.519091 -0.107454
-2.272859 18.502913 0.420986
-2.079153 18.601353 -0.154568
-2.248850 18.673090 0.289004
-2.074844 18.399416 -0.158255
-2.211879 18.638433 0.195808
-2.068151 18.392818 -0.187196
-2.173385 18.512100 0.120088
-2.080080 18.419615 -0.127264
-2.132029 18.470381 0.005212
-2.143136 18.670179 -0.015227
-2.122157 18.359989 0.004601
-2.296649 18.541178 0.475706
-2.060853 18.498598 -0.209240
-2.053860 18.496311 -0.220558
-2.206755 18.554714 0.200215
-2.146324 18.680670 -0.004593
-2.260834 18.610973 0.344490
-2.083852 18.623465 -0.168104
-2.085191 18.530449 -0.154498
-2.108502 18.463919 -0.059577
-2.311234 18.763790 0.444181
-2.226304 18.765812 0.180356
-2.160645 18.614798 0.049266
-2.048717 18.600933 -0.251946
-2.140589 18.591749 -0.017136
-2.363041 18.814915 0.563036
-2.048665 18.602970 -0.249327
-2.185380 18.449120 0.175872
-2.127519 18.385244 0.005404
-2.198153 18.461624 0.202652
-2.241321 18.788876 0.218079
-2.077548 18.341581 -0.122605
-2.080899 18.344875 -0.122798
-2.278372 18.544512 0.401911
-2.057905 18.330763 -0.164530
-2.097517 18.563587 -0.124212
-2.303309 18.679344 0.449852
-2.085126 18.646500 -0.172892
-2.248264 18.717781 0.273160
-2.207850 18.681732 0.179457
-2.070690 18.444628 -0.175303
-2.061188 18.437307 -0.202974
-2.175309 18.556246 0.102436
-2.082260 18.463972 -0.147343
-2.129479 18.515097 -0.013337
-2.140623 18.715040 -0.030450
-2.126285 18.403244 -0.015747
-2.060252 18.542379 -0.224727
-2.298579 18.585154 0.454727
-2.054803 18.540550 -0.237893
-2.202369 18.598619 0.182625
-2.263097 18.655439 0.327724
-2.131785 18.726837 -0.014952
-2.085392 18.669321 -0.184008
-2.079458 18.576151 -0.170041
-2.103412 18.509199 -0.076317
-2.309405 18.808207 0.427755
-2.221603 18.810467 0.164857
-2.157147 18.660675 0.033997
-2.136498 18.636007 -0.033830
-2.049299 18.646872 -0.267542
-2.052732 18.648272 -0.267034
-2.188579 18.492435 0.155829
-2.128489 18.428379 -0.014910
-2.193372 18.507080 0.183475
-2.075929 18.386230 -0.141459
-2.275903 18.588255 0.383705
-2.081815 18.388966 -0.143459
-2.304960 18.723125 0.431311
-2.094040 18.608532 -0.139128
-2.060713 18.374710 -0.185804
-2.080063 18.691933 -0.186304
-2.244831 18.762697 0.258238
-2.205952 18.727114 0.162687
-2.066850 18.490181 -0.191458
-2.057032 18.482525 -0.220017
-2.173126 18.600348 0.085126
-2.125385 18.559357 -0.030033
-2.073365 18.509556 -0.162854
-2.139374 18.760164 -0.045087
-2.117089 18.448475 -0.032149
-2.060209 18.587639 -0.242102
-2.290356 18.630135 0.434693
-2.052860 18.585960 -0.254655
-2.205850 18.643217 0.163128
-2.261253 18.699865 0.311299
-2.146272 18.773335 -0.033405
-2.085037 18.715326 -0.199296
-2.114849 18.551670 -0.096674
-2.079422 18.621407 -0.187415
-2.133670 18.680531 -0.049937
-2.157447 18.706257 0.017508
-2.182290 18.536489 0.138856
-2.047985 18.692959 -0.282522
-2.050469 18.694433 -0.281708
-2.120839 18.474072 -0.033161
-2.180413 18.551508 0.165329
-2.276634 18.631170 0.365820
-2.076845 18.430325 -0.162117
-2.303452 18.766794 0.412806
-2.077986 18.433426 -0.162584
-2.096856 18.653561 -0.157419
-2.064512 18.417639 -0.207030
-2.081294 18.737452 -0.203088
-2.244522 18.808674 0.242941
-2.205995 18.771402 0.145660
-2.060881 18.533657 -0.207186
-2.172246 18.643770 0.068751
-2.054815 18.526651 -0.237318
-2.133317 18.602314 -0.051593
-2.074992 18.552435 -0.181032
-2.139713 18.804800 -0.061216
-2.116433 18.493048 -0.051306
-2.056683 18.633535 -0.257359
-2.259449 18.743347 0.295228
-2.290390 18.674263 0.414336
-2.051908 18.630352 -0.271369
-2.204627 18.687243 0.145516
-2.143089 18.819555 -0.047772
-2.086895 18.761520 -0.214302
-2.102169 18.597549 -0.110956
-2.080377 18.665644 -0.204740
-2.154942 18.751116 0.002291
-2.125149 18.725504 -0.064204
-2.051147 18.737387 -0.299564
-2.183906 18.580296 0.120322
-2.049198 18.739573 -0.296333
-2.122758 18.517138 -0.053773
-2.193380 18.595371 0.142767
-2.270411 18.674267 0.349198
-2.067637 18.475571 -0.178511
-2.303520 18.811064 0.395775
-2.067515 18.478409 -0.179559
-2.093343 18.699453 -0.172674
-2.212047 18.815578 0.127689
-2.083790 18.783232 -0.219285
-2.055935 18.462477 -0.224617
-2.059577 18.578653 -0.225139
-2.054186 18.570290 -0.256115
-2.177294 18.688976 0.050732
-2.120684 18.647245 -0.065523
-2.070886 18.596708 -0.197717
-2.117717 18.536528 -0.070723
-2.045606 18.679089 -0.269814
-2.259818 18.787966 0.279088
-2.049333 18.676176 -0.286927
-2.198307 18.732246 0.128204
-2.289749 18.719749 0.394828
-2.083696 18.807749 -0.228661
-2.101231 18.641932 -0.127671
-2.079395 18.710974 -0.221797
-2.160304 18.796659 -0.014830
-2.128929 18.770452 -0.082793
-2.182676 18.624325 0.102712
-2.053555 18.785063 -0.316452
-2.056039 18.786535 -0.315638
-2.117048 18.561745 -0.072279
-2.258816 18.717064 0.332337
-2.193737 18.638912 0.123657
-2.066101 18.518337 -0.196654
-2.068474 18.521561 -0.199858
-2.085126 18.744774 -0.186045
-2.051507 18.506414 -0.242189
-2.085935 18.829617 -0.236712
-2.056417 18.622856 -0.242125
-2.165624 18.733829 0.036499
-2.053790 18.616161 -0.274717
-2.075918 18.640842 -0.218695
-2.117189 18.692043 -0.083747
-2.115246 18.579359 -0.088560
-2.051264 18.723900 -0.289009
-2.256079 18.832542 0.263290
-2.202780 18.775826 0.108765
-2.287886 18.764029 0.375092
-2.042649 18.721964 -0.302142
-2.095237 18.686352 -0.143738
-2.078415 18.756306 -0.238849
-2.186232 18.667038 0.083923
-2.132631 18.817289 -0.102073
-2.272191 18.760447 0.314337
-2.107581 18.605707 -0.089204
-2.188959 18.684380 0.104498
-2.065122 18.562586 -0.216685
-2.058398 18.564999 -0.215238
-2.047717 18.549942 -0.260951
-2.094826 18.791506 -0.206271
-2.057015 18.667706 -0.260680
-2.165658 18.778126 0.019483
-2.046832 18.660664 -0.290472
-2.069563 18.685875 -0.235993
-2.125359 18.737228 -0.105102
-2.110797 18.624235 -0.106477
-2.054036 18.769880 -0.307628
-2.050842 18.766209 -0.323135
-2.202744 18.822006 0.091051
-2.284087 18.809404 0.355626
-2.104623 18.732748 -0.164857
-2.071742 18.802088 -0.254059
-2.179946 18.711103 0.066967
-2.272251 18.804726 0.297314
-2.107879 18.650209 -0.108651
-2.185484 18.729166 0.086274
-2.063235 18.605961 -0.236055
-2.062760 18.609407 -0.238339
-2.045784 18.594267 -0.280669
-2.055717 18.712706 -0.278617
-2.166916 18.823631 0.002705
-2.044268 18.705402 -0.308989
-2.070126 18.731667 -0.254890
-2.124988 18.783085 -0.123695
-2.101645 18.668539 -0.122508
-2.051114 18.816311 -0.324404
-2.046021 18.812792 -0.339300
-2.104287 18.777662 -0.183099
-2.170815 18.755396 0.050936
-2.108774 18.695248 -0.129636
-2.056877 18.650997 -0.253350
-2.181656 18.774563 0.066820
-2.057987 18.653955 -0.257133
-2.038159 18.639044 -0.298543
-2.054107 18.757366 -0.297435
-2.048350 18.749613 -0.329643
-2.059381 18.776470 -0.269410
-2.118964 18.828447 -0.140096
-2.100996 18.713120 -0.141641
-2.091967 18.822948 -0.196117
-2.177456 18.800116 0.031432
-2.104926 18.740658 -0.149082
-2.049258 18.695774 -0.271220
-2.183203 18.820261 0.047614
-2.051317 18.698656 -0.275309
-2.041610 18.682583 -0.320976
-2.057478 18.803877 -0.317588
-2.046971 18.796503 -0.348264
-2.074428 18.822269 -0.295666
-2.089312 18.757994 -0.155855
-2.099573 18.784668 -0.166325
-2.055836 18.740368 -0.294029
-2.054099 18.743551 -0.296891
-2.056968 18.727640 -0.349320
-2.107527 18.803905 -0.182150
-2.105489 18.830605 -0.188294
-2.047267 18.785215 -0.311590
-2.052769 18.788403 -0.318139
-2.028261 18.771986 -0.357318
-2.036343 18.817970 -0.382311
-2.237337 17.871546 0.517233
-2.243874 17.908323 0.523702
-2.232614 17.925596 0.495471
