# .PCD v0.7 - Point Cloud Data file format
VERSION 0.7
FIELDS x y z
SIZE 4 4 4
TYPE F F F
COUNT 1 1 1
WIDTH 357
HEIGHT 1
VIEWPOINT 0 0 0 1
POINTS 357
DATA ascii
-2.212779 18.242416 0.430314
-2.211643 18.251654 0.432116
-2.212208 18.295057 0.407402
-2.205902 18.306438 0.406068
-2.225167 18.247618 0.449860
-2.140012 18.241091 0.195447
-2.125171 18.242573 0.178414
-2.198541 18.246094 0.371456
-2.208482 18.347813 0.384662
-2.221679 18.237534 0.462177
-2.204221 18.359098 0.380225
-2.219843 18.304609 0.424039
-2.134326 18.296799 0.174825
-2.127397 18.293865 0.154813
-2.193778 18.302593 0.350149
-2.266591 18.241898 0.565430
-2.203839 18.400724 0.362298
-2.216184 18.295290 0.438446
-2.071457 18.272572 0.018188
-2.181981 18.243105 0.314824
-2.122711 18.246744 0.141836
-2.081594 18.278278 0.031274
-2.066389 18.259312 -0.024143
-2.194793 18.414474 0.355617
-2.275832 18.357822 0.573820
-2.213565 18.359863 0.399254
-2.135552 18.278740 0.174233
-2.132317 18.350061 0.153501
-2.116726 18.350922 0.134724
-2.074980 18.226797 0.009221
-2.083485 18.234810 0.025624
-2.195436 18.354338 0.327779
-2.289955 18.465994 0.578427
-2.136257 18.252689 0.186949
-2.200471 18.451927 0.341145
-2.264257 18.300486 0.541192
-2.219307 18.346434 0.414510
-2.077755 18.321737 -0.005248
-2.173949 18.303322 0.294758
-2.085488 18.328178 0.009753
-2.123313 18.300346 0.121554
-2.223926 18.279053 0.451668
-2.070289 18.309212 -0.045666
-2.194377 18.464491 0.331333
-2.209849 18.412636 0.376546
-2.275817 18.410965 0.549384
-2.128036 18.335684 0.153972
-2.101272 18.248840 0.090087
-2.124753 18.404179 0.134269
-2.070451 18.283457 -0.008788
-2.118019 18.401428 0.111825
-2.076193 18.292837 0.008318
-2.046396 18.278196 -0.044653
-2.190648 18.408968 0.307168
-2.285826 18.517509 0.555203
-2.053731 18.228043 -0.033159
-2.160600 18.249149 0.256054
-2.203919 18.499624 0.319459
-2.134094 18.307657 0.167372
-2.078248 18.248484 0.012030
-2.263198 18.357367 0.518167
-2.211027 18.403690 0.392177
-2.074278 18.374666 -0.024664
-2.076879 18.385105 -0.007725
-2.172715 18.359097 0.274501
-2.126133 18.353043 0.101798
-2.218813 18.337132 0.428816
-2.290359 18.608227 0.564365
-2.060400 18.366913 -0.064011
-2.191171 18.513990 0.308437
-2.203926 18.466333 0.353327
-2.274316 18.463766 0.526863
-2.130099 18.387758 0.132477
-2.090678 18.309633 0.074365
-2.127694 18.453285 0.113453
-2.084870 18.329285 -0.032236
-2.113415 18.454369 0.089466
-2.185831 18.461716 0.287244
-2.077742 18.346317 -0.012306
-2.057131 18.325537 -0.067053
-2.282046 18.567457 0.533538
-2.125123 18.290213 0.182461
-2.060088 18.279999 -0.051884
-2.197764 18.550322 0.299701
-2.042961 18.277718 -0.073471
-2.157948 18.308350 0.236337
-2.129189 18.364952 0.148164
-2.073207 18.307493 -0.005436
-2.078697 18.422235 -0.046711
-2.207316 18.456472 0.369476
-2.255866 18.416368 0.494811
-2.079820 18.433270 -0.028204
-2.171059 18.411732 0.254401
-2.117514 18.409966 0.084325
-2.295208 18.652496 0.542154
-2.217722 18.391191 0.406817
-2.063349 18.415079 -0.084493
-2.187061 18.564589 0.285556
-2.205162 18.514950 0.331128
-2.270039 18.517000 0.505390
-2.088388 18.249039 0.033179
-2.126214 18.439428 0.112541
-2.291190 18.677853 0.549830
-2.130623 18.501451 0.092984
-2.104007 18.357317 0.053022
-2.033901 18.233379 -0.076320
-2.070571 18.389719 -0.046218
-2.110069 18.504650 0.068658
-2.186920 18.512047 0.266794
-2.064541 18.373760 -0.087185
-2.071883 18.400932 -0.030143
-2.070175 18.268208 -0.000069
-2.281409 18.616356 0.512048
-2.130701 18.341539 0.162005
-2.193449 18.599796 0.279596
-2.057751 18.322918 -0.095706
-2.060942 18.335648 -0.069538
-2.157102 18.364445 0.216955
-2.126091 18.419138 0.129290
-2.074570 18.360796 -0.023625
-2.072073 18.475292 -0.065942
-2.207109 18.507574 0.348163
-2.256981 18.469519 0.473341
-2.288243 18.700682 0.521355
-2.073571 18.486641 -0.046563
-2.114390 18.462269 0.066136
-2.168875 18.465775 0.235187
-2.214765 18.444595 0.385859
-2.057483 18.468763 -0.101982
-2.186610 18.611790 0.262310
-2.186862 18.572081 0.310887
-2.263538 18.570211 0.483748
-2.096987 18.301973 0.014299
-2.119623 18.495317 0.092294
-2.115661 18.556728 0.076552
-2.282750 18.726683 0.524868
-2.100748 18.412275 0.036237
-2.040924 18.280382 -0.102724
-2.079816 18.436720 -0.066695
-2.047095 18.282776 -0.095920
-2.178388 18.564432 0.248613
-2.106177 18.555395 0.049075
-2.079823 18.447762 -0.051143
-2.054454 18.430349 -0.102749
-2.296785 18.689404 0.568967
-2.077835 18.320341 -0.018260
-2.271702 18.666853 0.491608
-2.191884 18.646963 0.259133
-2.128356 18.396347 0.144873
-2.062279 18.387066 -0.087043
-2.054905 18.379137 -0.111964
-2.122962 18.471439 0.111103
-2.148882 18.423567 0.199678
-2.076829 18.412073 -0.041474
-2.286240 18.745640 0.500714
-2.190095 18.563927 0.328786
-2.069484 18.525265 -0.084666
-2.071889 18.535526 -0.065292
-2.111270 18.514580 0.047953
-2.172562 18.515509 0.216129
-2.249985 18.526018 0.451893
-2.211796 18.497063 0.365249
-2.058211 18.516912 -0.122629
-2.185614 18.659451 0.240290
-2.198590 18.614740 0.287451
-2.262376 18.620516 0.463140
-2.087160 18.363407 0.000329
-2.121631 18.543633 0.072180
-2.129630 18.598478 0.053625
-2.276904 18.774918 0.501300
-2.103001 18.463554 0.018396
-2.045817 18.332945 -0.119873
-2.168008 18.617109 0.231133
-2.114781 18.598175 0.025801
-2.071565 18.492088 -0.082606
-2.050152 18.336567 -0.112714
-2.293131 18.735767 0.546252
-2.072479 18.502045 -0.067060
-2.053567 18.481752 -0.120421
-2.071685 18.379326 -0.032936
-2.271056 18.714823 0.470470
-2.191609 18.693363 0.239539
-2.128401 18.449482 0.126176
-2.060344 18.442209 -0.103300
-2.048716 18.435299 -0.125614
-2.122601 18.522381 0.092221
-2.281101 18.791662 0.479910
-2.151683 18.475334 0.180283
-2.189847 18.612209 0.308506
-2.062284 18.576900 -0.101986
-2.075421 18.465816 -0.058606
-2.064137 18.587618 -0.081392
-2.102953 18.567114 0.033073
-2.158531 18.571585 0.199012
-2.247937 18.578354 0.430947
-2.053228 18.567633 -0.139434
-2.216945 18.546200 0.344632
-2.180008 18.708775 0.219672
-2.199806 18.661486 0.265950
-2.261202 18.669882 0.442877
-2.084287 18.418682 -0.015581
-2.124232 18.647938 0.036300
-2.117175 18.593889 0.054162
-2.098806 18.517725 0.002313
-2.188616 18.657057 0.209429
-2.301854 18.735100 0.561457
-2.063282 18.545574 -0.097830
-2.046475 18.387480 -0.134746
-2.044733 18.394295 -0.124964
-2.116423 18.646191 0.004824
-2.065654 18.553989 -0.083510
-2.290801 18.783257 0.523728
-2.045666 18.535553 -0.134776
-2.275734 18.758930 0.450704
-2.082630 18.427759 -0.052353
-2.191339 18.739767 0.219951
-2.121980 18.504560 0.109575
-2.054670 18.496033 -0.117481
-2.046752 18.488560 -0.141185
-2.149323 18.529213 0.163510
-2.129640 18.571253 0.070908
-2.056530 18.626055 -0.120188
-2.193291 18.658985 0.287184
-2.072145 18.518904 -0.074697
-2.071301 18.631948 -0.103437
-2.110873 18.613012 0.012433
-2.165349 18.619331 0.180477
-2.199385 18.603016 0.326479
-2.246252 18.630062 0.411221
-2.048800 18.617907 -0.157452
-2.191796 18.711544 0.247248
-2.178079 18.755646 0.198350
-2.255041 18.720594 0.423146
-2.085466 18.471823 -0.031321
-2.118838 18.697405 0.018981
-2.121937 18.639900 0.033697
-2.088129 18.572893 -0.011333
-2.180989 18.707432 0.191599
-2.299508 18.781643 0.539274
-2.104739 18.696831 -0.012494
-2.040684 18.444904 -0.147862
-2.073590 18.599890 -0.104152
-2.044467 18.448982 -0.139482
-2.052699 18.582544 -0.155414
-2.073673 18.485294 -0.065292
-2.195120 18.784029 0.200530
-2.116832 18.557926 0.094186
-2.050836 18.548635 -0.132010
-2.049922 18.537825 -0.158686
-2.122800 18.623198 0.054469
-2.201166 18.703934 0.266901
-2.150261 18.580330 0.145164
-2.064627 18.670248 -0.142577
-2.107696 18.661560 -0.004372
-2.056863 18.575733 -0.086948
-2.065375 18.681877 -0.119541
-2.167711 18.667023 0.161592
-2.049505 18.664181 -0.177403
-2.207272 18.648905 0.305853
-2.241808 18.683151 0.392203
-2.177063 18.801434 0.177025
-2.193947 18.758162 0.225411
-2.258283 18.767195 0.404269
-2.078344 18.528135 -0.044610
-2.123571 18.741529 -0.000796
-2.121711 18.687258 0.013762
-2.096810 18.619421 -0.030225
-2.178341 18.755526 0.173588
-2.065121 18.642168 -0.132490
-2.038533 18.497990 -0.160999
-2.107281 18.742823 -0.033128
-2.063066 18.652418 -0.119202
-2.050845 18.631268 -0.171701
-2.041030 18.502840 -0.153484
-2.078139 18.534727 -0.082265
-2.295469 18.784206 0.556648
-2.122363 18.605507 0.075126
-2.047006 18.601248 -0.146533
-2.047022 18.590296 -0.173558
-2.115020 18.674347 0.038724
-2.061075 18.717550 -0.159912
-2.197224 18.752800 0.248028
-2.059967 18.729465 -0.136180
-2.146947 18.632475 0.129431
-2.066087 18.620863 -0.106721
-2.100300 18.713030 -0.019243
-2.160845 18.718027 0.145507
-2.047812 18.711201 -0.195434
-2.208694 18.696735 0.287323
-2.243237 18.731926 0.373340
-2.082808 18.577574 -0.061577
-2.117791 18.789751 -0.018637
-2.113544 18.737156 -0.002510
-2.176965 18.801903 0.156786
-2.101412 18.666204 -0.048596
-2.056797 18.692837 -0.146678
-2.095946 18.791899 -0.048886
-2.043453 18.681797 -0.186238
-2.070065 18.697523 -0.139146
-2.051336 18.545210 -0.180756
-2.025428 18.562155 -0.161894
-2.059013 18.594788 -0.091713
-2.127362 18.654490 0.056940
-2.053832 18.647116 -0.164401
-2.043710 18.640562 -0.188626
-2.113694 18.722616 0.021221
-2.199168 18.798292 0.228956
-2.067123 18.772858 -0.157882
-2.059021 18.765205 -0.179160
-2.101725 18.758986 -0.037106
-2.062767 18.671131 -0.121785
-2.153775 18.680229 0.110895
-2.161735 18.766325 0.128189
-2.043339 18.758648 -0.212429
-2.203272 18.746193 0.270007
-2.242831 18.781937 0.354827
-2.073802 18.632290 -0.073487
-2.104451 18.787201 -0.018439
-2.084239 18.721441 -0.059462
-2.064725 18.737799 -0.166974
-2.040659 18.729723 -0.201836
-2.063201 18.746651 -0.154564
-2.029624 18.605829 -0.185865
-2.039103 18.606394 -0.180978
-2.067155 18.641769 -0.109387
-2.120889 18.705814 0.041729
-2.046284 18.699358 -0.177179
-2.037074 18.691715 -0.201413
-2.123818 18.766661 0.001463
-2.066457 18.718063 -0.139799
-2.146763 18.732956 0.096568
-2.205613 18.792950 0.251484
-2.058332 18.688957 -0.083287
-2.100291 18.764002 -0.080093
-2.060079 18.786015 -0.181860
-2.057269 18.795645 -0.170312
-2.043983 18.776350 -0.220720
-2.035928 18.653101 -0.202835
-2.041184 18.656582 -0.196019
-2.066053 18.691122 -0.123915
-2.124009 18.753201 0.024942
-2.045723 18.747318 -0.192584
-2.031349 18.741787 -0.214203
-2.066818 18.765881 -0.155549
-2.149877 18.780342 0.079785
-2.070150 18.733490 -0.101651
-2.039830 18.701115 -0.217887
-2.044159 18.704737 -0.210723
-2.067716 18.739109 -0.139140
-2.113817 18.804159 0.011466
-2.048854 18.793766 -0.209035
-2.040577 18.785980 -0.233618
-2.070885 18.781622 -0.116525
-2.043735 18.749132 -0.232935
-2.039206 18.756382 -0.222107
-2.068474 18.788189 -0.154354
-2.038392 18.799522 -0.244849
