# .PCD v0.7 - Point Cloud Data file format
VERSION 0.7
FIELDS x y z
SIZE 4 4 4
TYPE F F F
COUNT 1 1 1
WIDTH 129
HEIGHT 1
VIEWPOINT 0 0 0 1
POINTS 129
DATA ascii
1.580437 21.980856 0.721611
1.555489 21.961735 0.841295
2.127336 22.518608 0.817756
1.498585 22.021650 1.020145
1.547966 21.868992 0.860965
1.599912 21.841585 0.778324
1.491441 21.929495 1.038587
1.435663 21.980145 1.177566
1.552466 21.793034 0.882631
1.589275 21.754484 0.801373
1.361482 22.005064 1.389528
1.495603 21.857584 1.059661
1.431703 21.889799 1.189715
1.560371 21.724440 0.904003
1.362069 21.925804 1.402713
1.587829 21.679138 0.827196
1.491150 21.776278 1.078443
1.443333 21.821619 1.206733
1.620042 21.549999 0.713883
1.558370 21.647589 0.923235
1.361170 21.845957 1.414338
1.582498 21.604317 0.848825
1.485803 21.698561 1.095421
1.438694 21.738472 1.218060
1.626511 21.487431 0.736890
1.557332 21.574587 0.941359
1.366306 21.777802 1.428558
1.589162 21.543488 0.873542
1.489277 21.632931 1.116036
1.440805 21.663559 1.231346
1.371656 21.713249 1.443761
1.545468 21.494127 0.956631
1.478349 21.553532 1.131291
1.439211 21.589062 1.242878
1.358487 21.629995 1.449155
1.444933 21.524187 1.257217
1.514938 22.001110 0.957576
1.552050 21.929249 0.853706
1.549988 21.999338 0.812598
1.596509 21.799799 0.720186
1.434725 22.011555 1.179578
1.537874 22.014885 0.876547
1.504156 21.907778 0.978291
1.550793 21.847357 0.876324
1.381660 22.002485 1.324834
1.553568 21.920774 0.838300
2.147457 22.276936 0.817797
1.429739 21.922398 1.191872
1.506847 21.834656 1.001459
1.536775 21.929163 0.903060
1.551433 21.771305 0.897449
1.565252 21.999630 0.797396
1.408019 22.033092 1.251359
1.380234 21.919662 1.339635
1.430318 21.974602 1.170568
1.555867 21.844282 0.863786
1.609386 21.668797 0.775312
1.436904 21.849949 1.208592
1.504341 21.759470 1.022042
1.535346 21.849354 0.928251
1.547995 21.695066 0.918046
1.567427 21.933527 0.822186
1.402287 21.942764 1.266108
1.563425 21.915512 0.825271
1.386677 21.850676 1.356990
1.438227 21.903435 1.190575
1.560050 21.771780 0.888507
1.444852 22.040096 1.150087
1.622780 21.552027 0.717240
1.427499 21.764669 1.219764
1.606527 21.597797 0.801040
1.511913 21.695274 1.046100
1.614886 21.649117 0.698829
1.529637 21.765770 0.951930
1.550164 21.625212 0.938538
1.565233 21.849766 0.850922
1.409266 21.870546 1.286129
1.562547 21.834328 0.852398
1.386978 21.776716 1.372505
1.438307 21.823090 1.206199
1.552507 21.690714 0.910398
1.431351 21.963617 1.191919
1.440239 21.950712 1.167256
1.615664 21.480957 0.740001
1.435823 21.698755 1.236716
1.587655 21.514448 0.822430
1.505717 21.621429 1.064561
1.617807 21.583448 0.727255
1.531061 21.695656 0.974516
1.538751 21.546524 0.955506
1.572021 21.778828 0.879621
1.405262 21.789087 1.301592
1.571220 21.768288 0.879971
1.377048 21.694687 1.381006
1.427606 21.737095 1.218249
1.548721 21.616686 0.931127
1.444417 21.874380 1.187691
1.437935 21.887108 1.214622
1.433730 21.625923 1.249593
1.494312 21.543674 1.081164
1.609565 21.510618 0.753699
1.526899 21.621044 0.996471
1.626415 21.490595 0.719068
1.559997 21.692347 0.904033
1.397557 21.708029 1.315300
1.383929 21.635696 1.399229
1.555852 21.680000 0.902496
1.434271 21.672655 1.236216
1.540852 21.541548 0.951692
1.440975 21.793388 1.204364
1.438926 21.562744 1.265271
1.425331 21.792503 1.229252
1.512884 21.540920 1.015199
1.556022 21.617624 0.928426
1.373295 21.559006 1.407632
1.406280 21.646534 1.335305
1.558411 21.612703 0.926770
1.433867 21.603106 1.251995
1.442037 21.721649 1.222796
1.430291 21.722126 1.251146
1.538830 21.532806 0.948794
1.398243 21.570475 1.348051
1.542159 21.529871 0.946757
1.432552 21.535284 1.266697
1.441248 21.649656 1.240531
1.436768 21.656998 1.272775
1.436760 21.578979 1.256150
1.422562 21.572245 1.285140
1.432653 21.508911 1.270539
