# .PCD v0.7 - Point Cloud Data file format
VERSION 0.7
FIELDS x y z
SIZE 4 4 4
TYPE F F F
COUNT 1 1 1
WIDTH 31
HEIGHT 1
VIEWPOINT 0 0 0 1
POINTS 31
DATA ascii
1.488638 23.935307 0.662185
1.344660 24.008459 1.000842
1.308364 24.115313 1.193937
1.469923 23.960981 0.699969
1.486066 23.755226 0.699176
1.484080 23.804150 0.593162
1.298882 24.035486 1.100513
1.349063 23.827608 1.027231
1.305012 23.913603 1.206801
1.455078 23.979717 0.736284
1.461431 23.769045 0.732198
1.463836 23.898611 0.684055
1.285196 24.000544 1.244387
1.491410 23.652742 0.633471
1.304555 23.857906 1.121547
1.270942 24.070869 1.203194
1.312718 23.754372 1.225004
1.269899 24.085596 1.282266
1.442160 24.028116 0.754993
1.458235 23.809288 0.767289
1.423958 23.980738 0.772790
1.465778 23.736771 0.720420
1.288022 23.822971 1.255029
1.277101 23.899084 1.219866
1.315465 23.708176 1.144288
1.280872 23.915991 1.293195
1.448589 23.857590 0.782790
1.424105 23.812832 0.805004
1.284681 23.743547 1.236570
1.445705 23.685413 0.807359
1.423555 23.654535 0.834350
