# .PCD v0.7 - Point Cloud Data file format
VERSION 0.7
FIELDS x y z
SIZE 4 4 4
TYPE F F F
COUNT 1 1 1
WIDTH 221
HEIGHT 1
VIEWPOINT 0 0 0 1
POINTS 221
DATA ascii
1.207854 24.694290 1.022477
1.230438 24.664991 0.958077
1.229381 24.666931 0.979989
1.229923 24.678032 0.972433
1.205344 24.707264 1.053352
1.225489 24.673494 0.976950
1.156693 24.712559 1.181922
1.193426 24.674105 1.083226
1.225330 24.688128 0.975806
1.214264 24.709766 1.037730
1.215652 24.651833 1.040193
1.231821 24.678364 0.967386
1.233986 24.622589 0.972801
1.224171 24.622984 0.992738
1.226227 24.696056 0.982369
1.197911 24.672049 1.072123
1.224931 24.635799 0.986914
1.198839 24.663555 1.066610
1.242125 24.679586 0.959791
1.218795 24.699062 1.015015
1.223283 24.631578 0.992496
1.189704 24.630718 1.097551
1.156102 24.668228 1.196798
1.232944 24.646790 0.996475
1.210393 24.668425 1.054651
1.208951 24.607340 1.051369
1.240363 24.637131 0.988410
1.232486 24.579067 0.986973
1.199123 24.673986 1.088122
1.225458 24.579782 1.007975
1.223813 24.654335 1.001220
1.192890 24.628893 1.086960
1.111122 24.687510 1.308769
1.223991 24.592722 1.002307
1.196072 24.621201 1.080939
1.240638 24.637968 0.978998
1.139322 24.677074 1.232458
1.214552 24.658060 1.032803
1.223271 24.588610 1.008244
1.186509 24.680918 1.107812
1.134236 24.701981 1.255233
1.147572 24.624464 1.206913
1.186905 24.587437 1.112235
1.219247 24.604872 1.008278
1.205000 24.625607 1.070355
1.209305 24.564034 1.066254
1.232208 24.594917 1.002697
1.193199 24.631655 1.102252
1.229491 24.534996 0.999575
1.119237 24.674500 1.294279
1.225809 24.536472 1.022862
1.131100 24.684801 1.262969
1.217147 24.612677 1.017082
1.106498 24.644960 1.322389
1.190279 24.586395 1.103731
1.221187 24.549437 1.016994
1.229915 24.597151 0.993953
1.195099 24.577202 1.096688
1.138384 24.634016 1.247852
1.209346 24.616024 1.050594
1.221026 24.545767 1.024152
1.183560 24.639688 1.125093
1.147512 24.678511 1.233187
1.132162 24.659010 1.273576
1.185399 24.543924 1.126414
1.217001 24.562031 1.024186
1.151585 24.579735 1.223926
1.203875 24.583656 1.088702
1.121496 24.689960 1.295051
1.207208 24.519144 1.079567
1.227735 24.552202 1.018761
1.229838 24.491686 1.014465
1.190586 24.589159 1.119025
1.119416 24.632332 1.312115
1.224297 24.492952 1.037043
1.134066 24.642950 1.281869
1.217509 24.571276 1.037006
1.108504 24.602077 1.341290
1.192677 24.544088 1.121415
1.222092 24.506573 1.033105
1.228417 24.555536 1.013168
1.189505 24.533606 1.110314
1.138368 24.591061 1.263605
1.207850 24.574413 1.069808
1.220073 24.502693 1.039554
1.178749 24.598251 1.141668
1.140449 24.636278 1.250270
1.131599 24.617519 1.293144
1.184417 24.499928 1.142170
1.221784 24.519445 1.044156
1.150047 24.535299 1.238461
1.200328 24.541052 1.105124
1.118546 24.648745 1.312335
1.207522 24.474909 1.094814
1.227872 24.509087 1.036957
1.229589 24.447002 1.028494
1.110670 24.588772 1.325541
1.189238 24.545500 1.135645
1.219993 24.449118 1.050164
1.129965 24.599915 1.297069
1.099253 24.559935 1.352791
1.213590 24.529009 1.054294
1.191324 24.500429 1.138038
1.224821 24.462990 1.050284
1.223567 24.513163 1.030102
1.195023 24.490345 1.128557
1.206348 24.532804 1.089027
1.134603 24.546759 1.278296
1.226488 24.458603 1.058506
1.176690 24.556202 1.159666
1.136166 24.594364 1.268422
1.125267 24.574612 1.308502
1.188075 24.456455 1.159706
1.218598 24.476500 1.059717
1.113174 24.606874 1.327693
1.149433 24.490971 1.253355
1.196407 24.498789 1.122415
1.203584 24.430738 1.107073
1.224316 24.466478 1.053385
1.188842 24.502876 1.152270
1.106753 24.546524 1.342831
1.227108 24.402447 1.042682
1.130502 24.557405 1.314047
1.221198 24.404055 1.066126
1.211524 24.486954 1.072296
1.189066 24.457594 1.153957
1.221070 24.419600 1.064629
1.226675 24.471148 1.051453
1.193473 24.445902 1.143099
1.132718 24.503593 1.293348
1.200197 24.490667 1.106475
1.221439 24.415445 1.073362
1.177384 24.513540 1.179086
1.130580 24.552685 1.287089
1.120949 24.531773 1.327014
1.183764 24.412626 1.172832
1.109256 24.564629 1.344984
1.215938 24.433069 1.076857
1.146025 24.446325 1.267190
1.195606 24.455574 1.140264
1.203887 24.386501 1.122329
1.224470 24.424292 1.071236
1.104129 24.504044 1.359614
1.188042 24.459661 1.170119
1.224090 24.358377 1.055301
1.123603 24.514057 1.328191
1.217222 24.358952 1.078744
1.212210 24.444286 1.091721
1.181229 24.414129 1.167750
1.219143 24.375490 1.080042
1.223672 24.428984 1.069106
1.189749 24.403444 1.157094
1.131359 24.459946 1.309978
1.204229 24.448761 1.128185
1.214895 24.371740 1.086648
1.172896 24.470839 1.195163
1.127187 24.509951 1.305958
1.116094 24.489418 1.343955
1.108120 24.522697 1.363344
1.216428 24.389616 1.094200
1.174404 24.367685 1.185408
1.145929 24.401508 1.283667
1.197189 24.412083 1.160400
1.220874 24.380754 1.088026
1.192135 24.341831 1.132622
1.182060 24.416407 1.184623
1.711286 24.248497 1.261292
1.120944 24.470644 1.345333
1.736685 24.246269 1.305377
1.204587 24.402529 1.107249
1.181717 24.370680 1.185096
1.208907 24.332296 1.091558
1.217478 24.385918 1.086917
1.186860 24.358307 1.172510
1.192522 24.406927 1.143159
1.132191 24.415237 1.326811
1.171750 24.428894 1.213528
1.717450 24.264997 1.310670
1.129494 24.466770 1.329753
1.116381 24.446177 1.364603
1.700817 24.256254 1.452650
1.210070 24.346695 1.109575
1.187146 24.369675 1.174001
1.145236 24.355322 1.299289
1.211725 24.337523 1.102343
1.559878 24.243841 1.309571
1.179758 24.372648 1.200912
1.229007 24.265921 1.086940
1.119576 24.427000 1.361973
1.213127 24.269024 1.107857
1.201545 24.359446 1.125266
1.690223 24.261314 1.445047
1.215610 24.286007 1.110372
1.211308 24.343784 1.104381
1.699410 24.246174 1.428332
1.131720 24.370766 1.344161
1.189111 24.364183 1.162040
1.165024 24.386328 1.229769
1.215608 24.282192 1.119971
1.123863 24.424170 1.348787
1.214208 24.301807 1.129052
1.178777 24.276707 1.220859
1.697348 24.260660 1.432216
1.171415 24.304583 1.330462
1.207193 24.293888 1.118777
1.170643 24.330351 1.214863
1.701884 24.250849 1.364069
1.177949 24.280474 1.219082
1.205506 24.301313 1.120973
1.187544 24.267839 1.206184
1.700053 24.254471 1.418517
1.162913 24.343351 1.248133
1.203567 24.258028 1.141787
1.186885 24.280083 1.212708
1.142520 24.262245 1.331380
1.167379 24.285559 1.231144
1.198214 24.272659 1.162706
1.211661 24.256485 1.143596
1.185014 24.277151 1.201565
1.671213 24.226425 1.530575
1.157691 24.255436 1.285224
