# .PCD v0.7 - Point Cloud Data file format
VERSION 0.7
FIELDS x y z
SIZE 4 4 4
TYPE F F F
COUNT 1 1 1
WIDTH 39
HEIGHT 1
VIEWPOINT 0 0 0 1
POINTS 39
DATA ascii
-5.854557 34.945450 0.043198
-5.810451 34.926884 0.041566
-5.863973 35.024696 0.038018
-5.812994 34.951267 0.053997
-5.720637 34.889027 0.022523
-5.817070 35.032650 0.041542
-5.818613 35.025013 0.049430
-5.833488 35.111568 0.036875
-5.706671 34.900467 0.025345
-5.875098 35.242989 0.027845
-5.827766 35.144459 0.035314
-5.864176 35.219139 0.033220
-5.720231 34.985931 0.023193
-5.713531 34.971821 0.026282
-5.726392 34.956726 0.073248
-5.727890 35.053989 0.016820
-5.872420 35.316227 0.030384
-5.832224 35.259277 0.033165
-5.828222 35.259151 0.030012
-5.820656 35.235432 0.037779
-5.720883 35.084629 0.016364
-5.752756 35.153671 0.015515
-5.732256 35.034439 0.069778
-5.734350 35.028927 0.077198
-5.845863 35.364658 0.023062
-5.834828 35.347618 0.031200
-5.741376 35.106319 0.067434
-5.768931 35.261337 0.016442
-5.709235 35.168678 0.012166
-5.750915 35.233166 0.027927
-5.713982 35.185219 0.013407
-5.729826 35.133583 0.065605
-5.749009 35.190651 0.059809
-5.749531 35.312008 0.014848
-5.723704 35.279179 0.013250
-5.981500 35.381607 0.266631
-5.758450 35.299179 0.054656
-5.730989 35.234547 0.067575
-5.810724 35.347992 0.110088
