# .PCD v0.7 - Point Cloud Data file format
VERSION 0.7
FIELDS x y z
SIZE 4 4 4
TYPE F F F
COUNT 1 1 1
WIDTH 14
HEIGHT 1
VIEWPOINT 0 0 0 1
POINTS 14
DATA ascii
-7.826845 34.556717 -0.687368
-7.812986 34.596397 -0.684599
-7.858410 34.602913 -0.637900
-7.814664 34.615223 -0.700458
-7.843941 34.629147 -0.664925
-7.830411 34.691193 -0.674215
-7.946201 34.873863 -0.758321
-7.930308 34.891323 -0.757826
-7.843943 34.908726 -0.739111
-7.873734 34.943737 -0.734236
-7.858974 34.988232 -0.708292
-7.836932 35.003025 -0.707801
-7.900181 35.065380 -0.752566
-7.865264 35.125507 -0.733111
