# .PCD v0.7 - Point Cloud Data file format
VERSION 0.7
FIELDS x y z
SIZE 4 4 4
TYPE F F F
COUNT 1 1 1
WIDTH 963
HEIGHT 1
VIEWPOINT 0 0 0 1
POINTS 963
DATA ascii
-1.452472 5.389897 1.030098
-1.414094 5.366227 0.962431
-1.456192 5.424979 1.016967
-1.414674 5.399683 0.950519
-1.457672 5.460069 1.003821
-1.409418 5.433011 0.940606
-1.348213 5.359519 0.711944
-1.356250 5.387638 0.769519
-1.474367 5.499315 0.990333
-1.409539 5.467955 0.929493
-1.325043 5.391144 0.705169
-1.355507 5.423658 0.755929
-1.468229 5.533710 0.977961
-1.402039 5.501293 0.919570
-1.276339 5.360605 0.539592
-1.324737 5.426626 0.692814
-1.365081 5.462524 0.739120
-1.465209 5.569766 0.966819
-1.430375 5.544517 0.905307
-1.248176 5.373329 0.487769
-1.272033 5.397370 0.525142
-1.321734 5.462691 0.681658
-1.374196 5.501956 0.723528
-1.463089 5.606539 0.954861
-1.427792 5.580033 0.895400
-1.246548 5.410460 0.474153
-1.268165 5.434512 0.511510
-1.323668 5.499987 0.668488
-1.174115 5.353119 0.310392
-1.189581 5.370919 0.334327
-1.368513 5.538561 0.711127
-1.463643 5.643674 0.943740
-1.423867 5.615364 0.885083
-1.129900 5.334793 0.199318
-1.242217 5.447256 0.462156
-1.271933 5.473209 0.494249
-1.336364 5.541415 0.652491
-1.173416 5.390934 0.293505
-1.109035 5.340407 0.182335
-1.184839 5.407303 0.319063
-1.365508 5.576446 0.699141
-1.100273 5.328886 0.110208
-1.469125 5.684823 0.931789
-1.416342 5.650559 0.876783
-1.131033 5.374012 0.178342
-1.241489 5.486016 0.447308
-1.278389 5.515016 0.476560
-1.345024 5.583239 0.637277
-1.172262 5.430233 0.277414
-1.124571 5.382905 0.152042
-1.207530 5.452880 0.288382
-1.366546 5.616670 0.685118
-1.098311 5.362700 0.084797
-1.098710 5.367773 0.090846
-1.459818 5.720366 0.921846
-1.420922 5.690986 0.865652
-1.129905 5.413274 0.159800
-1.250643 5.528146 0.428005
-1.271375 5.552350 0.463322
-1.332136 5.618655 0.629334
-1.183711 5.473195 0.252804
-1.119846 5.422034 0.135514
-1.196930 5.490085 0.277148
-1.364881 5.656559 0.672715
-1.094052 5.402171 0.066632
-1.419216 5.729077 0.856549
-1.094455 5.408161 0.072261
-1.455434 5.759005 0.911494
-1.254396 5.569612 0.411937
-1.144547 5.457780 0.129069
-1.332710 5.658530 0.616948
-1.269749 5.593122 0.448041
-1.172212 5.510596 0.241971
-1.167830 5.476643 0.079601
-1.197142 5.532262 0.257772
-1.355147 5.692638 0.661531
-1.094756 5.443744 0.043584
-1.410786 5.765374 0.848239
-1.096960 5.450257 0.047995
-1.456871 5.800541 0.900335
-1.252769 5.610379 0.396657
-1.137121 5.497484 0.113743
-1.572320 5.924639 1.154945
-1.327445 5.698282 0.606564
-1.271263 5.635508 0.431541
-1.184113 5.557582 0.216499
-1.116695 5.503478 0.097578
-1.196447 5.573711 0.239219
-1.357966 5.736153 0.647488
-1.089134 5.483972 0.027038
-1.410859 5.805848 0.839533
-1.452921 5.839548 0.890806
-1.094499 5.491151 0.028201
-1.248880 5.651190 0.383812
-1.138266 5.541251 0.090676
-1.565652 5.963309 1.147049
-1.333405 5.742497 0.591719
-1.263790 5.675233 0.418686
-1.177116 5.597652 0.201999
-1.125947 5.550055 0.068823
-1.188550 5.613976 0.225119
-1.351355 5.775712 0.636696
-1.421242 5.851932 0.828792
-1.101574 5.531178 -0.007418
-1.450310 5.879646 0.881275
-1.101072 5.536446 -0.000967
-1.245894 5.693630 0.369730
-1.128134 5.580615 0.076974
-1.567025 6.005811 1.140389
-1.328574 5.782613 0.582157
-1.260361 5.717293 0.403794
-1.178667 5.641820 0.182206
-1.120324 5.592097 0.051446
-1.187862 5.658158 0.205311
-1.351472 5.819799 0.623857
-1.416834 5.892420 0.820060
-1.096417 5.573560 -0.026431
-1.448151 5.922864 0.871303
-1.095920 5.578829 -0.019981
-1.239770 5.735355 0.356453
-1.569746 6.050319 1.133304
-1.127486 5.625667 0.054290
-1.325998 5.826368 0.570931
-1.259180 5.761154 0.388077
-1.176629 5.686753 0.164008
-1.120118 5.637515 0.029575
-1.180414 5.700605 0.191188
-1.351597 5.864786 0.610595
-1.418695 5.936172 0.811327
-1.093980 5.618988 -0.048325
-1.446423 5.965530 0.862559
-1.088069 5.621773 -0.037799
-1.242175 5.782115 0.339905
-1.567980 6.093930 1.126603
-1.120968 5.668788 0.036892
-1.319827 5.867194 0.560533
-1.253492 5.804152 0.375195
-1.166939 5.729206 0.149867
-1.112705 5.681745 0.012155
-1.178830 5.745862 0.171358
-1.352158 5.911053 0.597728
-1.412928 5.978327 0.803784
-1.089298 5.664418 -0.070233
-1.448287 6.012930 0.852149
-1.090161 5.670743 -0.066234
-1.235592 5.826218 0.327001
-1.561288 6.135356 1.119898
-1.117622 5.715312 0.014985
-1.326220 5.917269 0.546433
-1.251416 5.850929 0.358618
-1.168947 5.778280 0.128788
-1.106655 5.727024 -0.007716
-1.415670 6.025561 0.795423
-1.178594 5.794035 0.150684
-1.345093 5.954808 0.586472
-1.082812 5.709316 -0.090922
-1.451491 6.061415 0.841737
-1.084118 5.716933 -0.086529
-1.233053 5.872647 0.312057
-1.567105 6.184274 1.115227
-1.114713 5.762201 -0.006106
-1.323180 5.963394 0.535583
-1.250679 5.898792 0.342037
-1.165107 5.825399 0.110551
-1.417069 6.072604 0.786648
-1.110524 5.778360 -0.035755
-1.348338 6.004162 0.573180
-1.172048 5.839914 0.134486
-1.452890 6.109368 0.832544
-1.075873 5.756608 -0.111237
-1.078540 5.764367 -0.108876
-1.231418 5.920698 0.295876
-1.570687 6.235026 1.109702
-1.112276 5.812163 -0.030092
-1.316556 6.008429 0.524723
-1.244997 5.945420 0.327480
-1.159467 5.872902 0.093113
-1.415767 6.120227 0.779072
-1.339468 6.048293 0.562727
-1.102216 5.825500 -0.054033
-1.169581 5.890823 0.112536
-1.459663 6.163522 0.822495
-1.036883 5.786705 -0.102576
-1.056705 5.803484 -0.116127
-1.226180 5.968612 0.281712
-1.316199 6.057640 0.513447
-1.107132 5.860874 -0.052038
-1.249660 6.000346 0.307174
-1.157439 5.924178 0.071978
-1.415805 6.168935 0.771493
-1.096613 5.874781 -0.074766
-1.337778 6.100060 0.549777
-1.161235 5.937989 0.096718
-1.456556 6.211522 0.815722
-1.029500 5.834519 -0.124121
-1.040737 5.845412 -0.129085
-1.224086 6.019043 0.265907
-1.314947 6.108865 0.501731
-1.102433 5.911778 -0.074010
-1.238134 6.046842 0.294619
-1.150906 5.974597 0.053681
-1.418975 6.222944 0.763461
-1.094186 5.928368 -0.100431
-1.338331 6.153626 0.536005
-1.158307 5.990361 0.075565
-1.448525 6.258251 0.808524
-1.051042 5.902447 -0.175522
-1.053702 5.909286 -0.172739
-1.220196 6.070772 0.250480
-1.313695 6.160991 0.489597
-1.100915 5.967902 -0.101334
-1.237389 6.101094 0.277551
-1.144817 6.027209 0.035358
-1.343814 6.212094 0.520982
-1.061966 5.964721 -0.099549
-1.152679 6.043310 0.055611
-1.216310 6.124314 0.234214
-1.317377 6.218934 0.475791
-1.098963 6.025458 -0.130314
-1.236208 6.156781 0.258829
-1.142340 6.083588 0.013339
-1.342106 6.267515 0.508805
-1.064963 6.025325 -0.131390
-1.152006 6.101120 0.031954
-1.217822 6.184009 0.214641
-1.237725 6.218297 0.238417
-1.138525 6.140685 -0.009515
-1.142775 6.154829 0.013597
-1.055331 6.079535 -0.153439
-1.209429 6.237594 0.200794
-1.074729 6.131771 -0.169522
-1.236093 6.278181 0.219230
-1.136065 6.202512 -0.034055
-1.057439 6.143953 -0.186562
-1.140780 6.217906 -0.012996
-1.063301 6.188173 -0.191613
-1.129097 6.262565 -0.055339
-1.478903 5.380411 1.133653
-1.475304 5.386919 1.102122
-1.481508 5.413000 1.122327
-1.416000 5.370598 1.009216
-1.468533 5.419086 1.089841
-1.435507 5.398650 1.036128
-1.475166 5.443709 1.111701
-1.398589 5.383993 0.970871
-1.404636 5.391141 0.981490
-1.413272 5.402405 0.996183
-1.462191 5.450713 1.078797
-1.440386 5.433976 1.021133
-1.377311 5.373344 0.876027
-1.475963 5.476664 1.101159
-1.410814 5.425765 0.969784
-1.404297 5.421018 0.959539
-1.410074 5.433855 0.984778
-1.365679 5.379616 0.843963
-1.462555 5.484204 1.067018
-1.334847 5.360395 0.764157
-1.440320 5.468923 1.007698
-1.374118 5.405705 0.864201
-1.473187 5.508493 1.090575
-1.409810 5.460921 0.959187
-1.399253 5.455617 0.950110
-1.408206 5.467335 0.972962
-1.360251 5.412885 0.831683
-1.345636 5.392847 0.774160
-1.464251 5.517886 1.055665
-1.319293 5.372460 0.722990
-1.323534 5.379061 0.734813
-1.331659 5.394588 0.751491
-1.373591 5.439371 0.852808
-1.492731 5.545944 1.080268
-1.439818 5.505324 0.992609
-1.282146 5.350194 0.619863
-1.407902 5.496259 0.948982
-1.410376 5.501369 0.959978
-1.403151 5.493005 0.939562
-1.362431 5.446910 0.818694
-1.471751 5.553612 1.043969
-1.337540 5.427558 0.760190
-1.296824 5.379625 0.640157
-1.317401 5.408705 0.712360
-1.317168 5.414371 0.724533
-1.328038 5.427478 0.738424
-1.372160 5.473218 0.841807
-1.487245 5.578321 1.070860
-1.444220 5.542116 0.978405
-1.258196 5.359097 0.545552
-1.280298 5.385489 0.607201
-1.260465 5.356576 0.516238
-1.406893 5.531409 0.938384
-1.407601 5.535027 0.948554
-1.397632 5.528164 0.931344
-1.365942 5.482961 0.805295
-1.475207 5.589694 1.033023
-1.294071 5.414185 0.628306
-1.338387 5.464138 0.745519
-1.318882 5.449872 0.712333
-1.315505 5.445866 0.701310
-1.252427 5.378143 0.533825
-1.385516 5.510033 0.827733
-1.484423 5.612002 1.061886
-1.326179 5.462776 0.725765
-1.231109 5.352809 0.450550
-1.444578 5.579264 0.964951
-1.240887 5.379755 0.498950
-1.280722 5.420761 0.592124
-1.255487 5.395462 0.530413
-1.403491 5.567570 0.937122
-1.409884 5.568053 0.928646
-1.239281 5.389845 0.511053
-1.402859 5.565735 0.921221
-1.359134 5.516971 0.794617
-1.209687 5.357353 0.417122
-1.469717 5.623904 1.022778
-1.293552 5.449667 0.616069
-1.335190 5.501075 0.731597
-1.315649 5.485917 0.701276
-1.317648 5.483576 0.689092
-1.476696 5.643450 1.052862
-1.366153 5.540163 0.820580
-1.247010 5.414145 0.520282
-1.326122 5.498616 0.711902
-1.222520 5.387174 0.440646
-1.174844 5.346732 0.334286
-1.442696 5.617318 0.951044
-1.276634 5.456038 0.579427
-1.236766 5.416892 0.487860
-1.253677 5.432554 0.514464
-1.164133 5.343617 0.306002
-1.405616 5.603452 0.925747
-1.176692 5.362612 0.351680
-1.406163 5.603752 0.919224
-1.236963 5.426612 0.499179
-1.392389 5.601439 0.914145
-1.385473 5.559865 0.776999
-1.176456 5.363933 0.337787
-1.205610 5.393540 0.404000
-1.468697 5.659043 1.012182
-1.179634 5.367399 0.333308
-1.288558 5.484212 0.604183
-1.477440 5.678245 1.043929
-1.317788 5.523623 0.689057
-1.309902 5.518709 0.680832
-1.392921 5.582517 0.804199
-1.338267 5.540403 0.715704
-1.245631 5.450696 0.505568
-1.314844 5.531686 0.701572
-1.217538 5.422629 0.428336
-1.153506 5.355129 0.266127
-1.174811 5.384386 0.319575
-0.995175 5.314601 0.282940
-1.435870 5.653162 0.939534
-1.275681 5.492969 0.565533
-1.232642 5.454025 0.476770
-1.421155 5.643961 0.912483
-1.161866 5.380343 0.291675
-1.246922 5.469273 0.500074
-1.004239 5.328998 0.297196
-1.419426 5.645198 0.907955
-1.178069 5.400404 0.332500
-1.239154 5.465197 0.484088
-1.379563 5.594595 0.765509
-1.411458 5.644930 0.902534
-1.173284 5.401763 0.323434
-1.203805 5.430622 0.388046
-0.985527 5.321054 0.268028
-1.466771 5.695282 1.001559
-1.171989 5.403378 0.319723
-1.280854 5.518394 0.593891
-1.003064 5.336044 0.283632
-0.990550 5.325039 0.259898
-1.473709 5.712103 1.035346
-1.386969 5.617274 0.795157
-1.001496 5.342441 0.294961
-1.323063 5.562978 0.675643
-1.317845 5.559370 0.667851
-0.989060 5.339405 0.290725
-1.241112 5.486503 0.491631
-1.353896 5.583597 0.696284
-1.323727 5.571216 0.686171
-1.215691 5.458818 0.415249
-0.973958 5.315588 0.210783
-1.146296 5.391483 0.253359
-0.971370 5.315147 0.205035
-1.171599 5.422239 0.307669
-0.991613 5.348378 0.266993
-1.277864 5.530632 0.550863
-1.234361 5.492251 0.463307
-1.431277 5.690846 0.927221
-1.413428 5.678152 0.902200
-1.160498 5.418712 0.276117
-1.005148 5.363705 0.280900
-1.239694 5.506554 0.486895
-1.415228 5.682369 0.899325
-1.235497 5.501759 0.471786
-1.171324 5.437112 0.318105
-0.980474 5.344884 0.237889
-1.374081 5.630619 0.754419
-1.409928 5.683406 0.894337
-1.170108 5.438671 0.309499
-1.199723 5.467717 0.374505
-1.466608 5.732089 0.992180
-1.034339 5.364184 0.217679
-1.306809 5.562687 0.572163
-1.478449 5.749304 1.026854
-1.172463 5.442264 0.300516
-1.080908 5.377920 0.180690
-1.383722 5.652388 0.784519
-0.997696 5.370190 0.268469
-1.032180 5.382926 0.260281
-1.319351 5.600491 0.665376
-1.309191 5.595599 0.659564
-1.110998 5.397692 0.192351
-1.241061 5.525071 0.476505
-1.339787 5.613861 0.667986
-1.347082 5.621257 0.683929
-1.224199 5.499754 0.395735
-1.039605 5.362961 0.141053
-1.141791 5.429110 0.238576
-1.070051 5.368952 0.108802
-1.166147 5.459163 0.296146
-1.287225 5.571412 0.533408
-1.230663 5.530672 0.452615
-1.116379 5.410591 0.158004
-1.412406 5.715112 0.890763
-1.160031 5.455971 0.260585
-1.436528 5.732036 0.912976
-1.413265 5.719543 0.890728
-1.127989 5.426368 0.180038
-1.234976 5.539971 0.458289
-1.105713 5.405606 0.128107
-1.173129 5.476186 0.299323
-1.369930 5.667748 0.743336
-1.261690 5.552979 0.460182
-1.462875 5.766855 0.983177
-1.405256 5.721139 0.886917
-1.166460 5.477055 0.296355
-1.219060 5.511914 0.347773
-1.108929 5.417064 0.145573
-1.302239 5.599429 0.560255
-1.477380 5.785375 1.018286
-1.377765 5.687139 0.775476
-1.108028 5.421836 0.143872
-1.175641 5.483334 0.278875
-1.121521 5.433516 0.161901
-1.126971 5.441313 0.181075
-1.336704 5.645182 0.649227
-1.120029 5.438021 0.169172
-1.327877 5.641402 0.643422
-1.529284 5.852366 1.152994
-1.240578 5.563252 0.460560
-1.217404 5.535565 0.384207
-1.333404 5.650979 0.656866
-1.346542 5.662223 0.669182
-1.144501 5.468907 0.218981
-1.087640 5.411648 0.081235
-1.080110 5.410840 0.077048
-1.170148 5.500101 0.279008
-1.290305 5.611623 0.517088
-1.231474 5.569071 0.439543
-1.410911 5.752633 0.880536
-1.112818 5.449825 0.139541
-1.179844 5.500505 0.232219
-1.429222 5.770267 0.901838
-1.408159 5.756892 0.882488
-1.123013 5.464549 0.166464
-1.368916 5.705610 0.731474
-1.233981 5.579659 0.445583
-1.105724 5.445954 0.109685
-1.462705 5.805486 0.972960
-1.172695 5.516162 0.280088
-1.261205 5.592985 0.443399
-1.473172 5.819786 1.010911
-1.298099 5.635627 0.549584
-1.406387 5.761826 0.878734
-1.174540 5.518512 0.275600
-1.204616 5.546997 0.339399
-1.108035 5.455766 0.128380
-1.377179 5.725381 0.764435
-1.107565 5.460916 0.127498
-1.162575 5.520415 0.267641
-1.123798 5.480036 0.166298
-1.115251 5.472389 0.145032
-1.327141 5.682503 0.640912
-1.118662 5.477287 0.153191
-1.321885 5.679840 0.635149
-1.230851 5.578680 0.362293
-1.327922 5.687905 0.645353
-1.259865 5.609300 0.435440
-1.525959 5.892102 1.142723
-1.189191 5.520638 0.170505
-1.340625 5.700603 0.656014
-1.085927 5.450472 0.059537
-1.082006 5.450753 0.052944
-1.175951 5.541572 0.260666
-1.283929 5.648727 0.505963
-1.411650 5.791070 0.869923
-1.244405 5.614615 0.420452
-1.151869 5.532877 0.232237
-1.131854 5.495361 0.103801
-1.407523 5.796082 0.873478
-1.363858 5.742915 0.720782
-1.473863 5.857337 1.003168
-1.428621 5.811262 0.889545
-1.253227 5.626647 0.422491
-1.124822 5.506352 0.146420
-1.461631 5.844296 0.963135
-1.103495 5.485370 0.091646
-1.297996 5.675121 0.536487
-1.161431 5.553784 0.267650
-1.253969 5.632994 0.428960
-1.405710 5.801961 0.871754
-1.214494 5.589903 0.317023
-1.160528 5.554888 0.267624
-1.375689 5.762886 0.754203
-1.106708 5.496830 0.109112
-1.109807 5.502179 0.108690
-1.150402 5.529095 0.131041
-1.181992 5.567276 0.234752
-1.327894 5.722759 0.629455
-1.133383 5.518106 0.109684
-1.182345 5.536055 0.089004
-1.326207 5.722130 0.623315
-1.225386 5.616504 0.350352
-1.328713 5.728133 0.631448
-1.249019 5.646384 0.424244
-1.524867 5.932754 1.132067
-1.148584 5.550114 0.178523
-1.340511 5.743767 0.641247
-1.087390 5.492744 0.033357
-1.165508 5.579060 0.252731
-1.079388 5.491587 0.030799
-1.279354 5.688203 0.492797
-1.405676 5.828566 0.859626
-1.240698 5.654847 0.408920
-1.168972 5.578864 0.204626
-1.470079 5.893952 0.995774
-1.365506 5.782983 0.708934
-1.407745 5.836942 0.865687
-1.104355 5.528993 0.101766
-1.244145 5.664301 0.412539
-1.458750 5.882557 0.954511
-1.113092 5.543612 0.135608
-1.297891 5.714608 0.523390
-1.428448 5.853546 0.877651
-1.098989 5.526634 0.075182
-1.373294 5.800571 0.744362
-1.205459 5.627523 0.304620
-1.179903 5.601768 0.237181
-1.404126 5.843194 0.864747
-1.180766 5.603444 0.238400
-1.247161 5.673375 0.415339
-1.102671 5.537528 0.091438
-1.102120 5.540902 0.096288
-1.120112 5.561513 0.135917
-1.324602 5.762459 0.619166
-1.113683 5.557623 0.120353
-1.324680 5.763318 0.613852
-1.112670 5.553530 0.102018
-1.173433 5.607990 0.219461
-1.226234 5.657598 0.333572
-1.325892 5.768182 0.619530
-1.246251 5.687313 0.409453
-1.528205 5.976188 1.122669
-1.149483 5.593005 0.158452
-1.072998 5.530527 0.021269
-1.335450 5.784726 0.628877
-1.184371 5.627443 0.225527
-1.078573 5.532954 0.007449
-1.271166 5.726586 0.482035
-1.404603 5.868280 0.849378
-1.239225 5.695994 0.397003
-1.469861 5.932594 0.988003
-1.163983 5.618857 0.190213
-1.411104 5.879447 0.856699
-1.363109 5.823412 0.697836
-1.457199 5.921921 0.945894
-1.117071 5.575808 0.068767
-1.292840 5.753726 0.511852
-1.243142 5.706714 0.398573
-1.367758 5.837515 0.735297
-1.131140 5.592116 0.103896
-1.098561 5.567492 0.055518
-1.426036 5.895815 0.865722
-1.177659 5.642087 0.218726
-1.201364 5.668249 0.289399
-1.407012 5.886265 0.856970
-1.178009 5.645275 0.223184
-1.114444 5.583639 0.061697
-1.243057 5.715938 0.399283
-1.123348 5.590106 0.061351
-1.132273 5.608033 0.109444
-1.321737 5.804366 0.608858
-1.220763 5.697242 0.320791
-1.124512 5.603950 0.093454
-1.314636 5.802107 0.606327
-1.117693 5.598734 0.075042
-1.168480 5.649784 0.201762
-1.321733 5.808949 0.606766
-1.240342 5.728414 0.395019
-1.150380 5.635885 0.138379
-1.528400 6.019795 1.113629
-1.172588 5.666556 0.216326
-1.083051 5.576944 -0.012586
-1.269725 5.766784 0.468090
-1.091805 5.580074 -0.029631
-1.331288 5.828240 0.614857
-1.401723 5.908362 0.839913
-1.471406 5.972718 0.981057
-1.239984 5.739889 0.383862
-1.159893 5.659572 0.174987
-1.451174 5.959435 0.938046
-1.357570 5.863098 0.687514
-1.408181 5.920474 0.849263
-1.285982 5.791377 0.501935
-1.368928 5.877220 0.725077
-1.245274 5.750769 0.383411
-1.132942 5.635719 0.083011
-1.112168 5.618476 0.048197
-1.109431 5.615610 0.025330
-1.405423 5.927483 0.849960
-1.197698 5.710262 0.274576
-1.423149 5.938643 0.855002
-1.169996 5.683519 0.202622
-1.176152 5.687827 0.207156
-1.113110 5.625587 0.042006
-1.236243 5.758137 0.384822
-1.114754 5.631746 0.048082
-1.133602 5.652201 0.089769
-1.322911 5.847728 0.596960
-1.212581 5.736523 0.309605
-1.319380 5.847500 0.594052
-1.115914 5.644676 0.080604
-1.113690 5.641212 0.054079
-1.322045 5.851551 0.593231
-1.168469 5.694677 0.181244
-1.242513 5.773351 0.376989
-1.143153 5.676773 0.123510
-1.527258 6.063200 1.104161
-1.172495 5.710592 0.201123
-1.468045 6.010612 0.974061
-1.273655 5.812294 0.451307
-1.403311 5.951195 0.829259
-1.079996 5.621031 -0.037230
-1.077880 5.620019 -0.044190
-1.239408 5.782665 0.370713
-1.323984 5.870094 0.602031
-1.157606 5.702652 0.157720
-1.457188 6.004142 0.929073
-1.366053 5.917285 0.715607
-1.352931 5.903506 0.676380
-1.288105 5.834512 0.487194
-1.405685 5.962789 0.842227
-1.231671 5.788423 0.375835
-1.123912 5.676059 0.069342
-1.107262 5.661134 0.027624
-1.104486 5.658296 0.007205
-1.198110 5.753700 0.255716
-1.406023 5.972395 0.843758
-1.173390 5.731473 0.191100
-1.166372 5.727322 0.184509
-1.418022 5.981457 0.844247
-1.106789 5.668112 0.025903
-1.107961 5.673005 0.034028
-1.239313 5.804712 0.365562
-1.125432 5.693298 0.077737
-1.208909 5.778527 0.294781
-1.315999 5.889070 0.587818
-1.113632 5.686834 0.063752
-1.313331 5.888686 0.586966
-1.314700 5.893429 0.582852
-1.108310 5.685350 0.034298
-1.161706 5.737741 0.163908
-1.237029 5.815730 0.362952
-1.138630 5.719839 0.106206
-1.463306 6.049254 0.968666
-1.171065 5.754426 0.185493
-1.526975 6.108272 1.095910
-1.268597 5.854137 0.438509
-1.403090 5.994394 0.819388
-1.078272 5.666214 -0.061869
-1.235217 5.826180 0.359131
-1.453353 6.044425 0.922448
-1.151235 5.744291 0.144486
-1.077531 5.667195 -0.071689
-1.363174 5.958260 0.705717
-1.322483 5.915807 0.588023
-1.281239 5.874898 0.476018
-1.354525 5.948153 0.664882
-1.404089 6.005825 0.834378
-1.237838 5.836670 0.357826
-1.120294 5.720763 0.050806
-1.097733 5.701347 -0.010137
-1.107337 5.708690 0.000946
-1.195341 5.798254 0.239241
-1.404385 6.016376 0.837939
-1.169291 5.774916 0.174616
-1.100937 5.710976 0.008169
-1.160508 5.772025 0.165942
-1.421364 6.030345 0.832325
-1.108386 5.719169 0.013903
-1.120870 5.737302 0.062460
-1.208372 5.823087 0.278342
-1.233396 5.849452 0.349448
-1.114525 5.732432 0.042417
-1.313556 5.933164 0.577487
-1.309082 5.932238 0.577838
-1.312297 5.937490 0.570072
-1.105204 5.731283 0.011263
-1.471079 6.094518 0.960937
-1.154037 5.781898 0.146543
-1.229307 5.858095 0.348878
-1.135910 5.764353 0.087278
-1.163314 5.796812 0.173863
-1.258594 5.893782 0.428108
-1.401965 6.037771 0.809908
-1.529353 6.156467 1.087255
-1.147137 5.786812 0.128419
-1.366098 6.003092 0.694646
-1.230120 5.869874 0.347939
-1.449081 6.086154 0.914167
-1.071602 5.710110 -0.084530
-1.278844 5.917119 0.464072
-1.349408 5.990027 0.654537
-1.324548 5.964454 0.573218
-1.409157 6.053478 0.826985
-1.065877 5.710760 -0.090341
-1.230504 5.879442 0.347019
-1.114396 5.766398 0.034263
-1.095490 5.747114 -0.031118
-1.190333 5.841878 0.223149
-1.404979 6.062186 0.831315
-1.099246 5.753370 -0.017662
-1.164247 5.819484 0.160552
-1.097790 5.756931 -0.012419
-1.102490 5.762969 -0.001803
-1.161390 5.820364 0.143352
-1.418425 6.076839 0.822375
-1.200182 5.864177 0.266314
-1.123093 5.784913 0.040713
-1.315582 5.980005 0.565967
-1.108627 5.776233 0.026712
-1.312872 5.980567 0.567143
-1.226100 5.894937 0.334936
-1.466765 6.134441 0.955941
-1.311224 5.983566 0.556879
-1.097583 5.775393 -0.008556
-1.230996 5.907228 0.330379
-1.152683 5.830227 0.123918
-1.131381 5.810145 0.068714
-1.163211 5.843565 0.157399
-1.255766 5.938362 0.414084
-1.397695 6.081321 0.800785
-1.362742 6.044616 0.685964
-1.526354 6.202081 1.080178
-1.279585 5.961895 0.450510
-1.450138 6.132307 0.905914
-1.224118 5.913747 0.337139
-1.144841 5.833525 0.109471
-1.355469 6.038327 0.641430
-1.030511 5.740149 -0.075312
-1.401276 6.095030 0.820688
-1.032007 5.742963 -0.085936
-1.319429 6.010894 0.560776
-1.229915 5.927681 0.331352
-1.107162 5.810000 0.018130
-1.188460 5.888056 0.205441
-1.086455 5.791087 -0.046469
-1.401529 6.106525 0.826278
-1.163280 5.867302 0.141612
-1.093901 5.801107 -0.041573
-1.093883 5.806406 -0.015916
-1.094209 5.804326 -0.034666
-1.204584 5.912737 0.246634
-1.155521 5.865960 0.124362
-1.113539 5.828569 0.029442
-1.418620 6.125887 0.810807
-1.101392 5.820748 0.010159
-1.311757 6.025749 0.556817
-1.312186 6.027959 0.556798
-1.469154 6.179865 0.948533
-1.225549 5.944971 0.315982
-1.304773 6.027062 0.545265
-1.226405 5.953053 0.314269
-1.096748 5.825851 -0.036104
-1.125044 5.855386 0.051350
-1.163577 5.891571 0.138885
-1.149952 5.879297 0.102893
-1.254268 5.984954 0.399648
-1.362952 6.089991 0.676066
-1.399658 6.130022 0.790880
-1.273141 6.005382 0.438892
-1.457862 6.182156 0.898536
-1.224390 5.961822 0.323526
-1.138932 5.878231 0.093346
-1.349874 6.081665 0.631874
-1.533586 6.256167 1.072343
-1.403627 6.144141 0.814050
-1.033332 5.790743 -0.107298
-1.032121 5.791371 -0.115489
-1.316543 6.060074 0.547110
-1.223478 5.972077 0.319312
-1.183877 5.933869 0.189327
-1.107144 5.860330 -0.004913
-1.404308 6.156929 0.820040
-1.085580 5.841568 -0.071570
-1.156895 5.914401 0.125861
-1.088984 5.849210 -0.064667
-1.094770 5.856544 -0.039352
-1.197720 5.956747 0.233772
-1.091056 5.853002 -0.056515
-1.114854 5.878174 0.007244
-1.154592 5.917393 0.101295
-1.311067 6.074046 0.546050
-1.475067 6.229168 0.942358
-1.101805 5.871454 -0.012066
-1.305650 6.072425 0.549661
-1.416534 6.175865 0.801234
-1.306360 6.077161 0.531247
-1.220052 5.993718 0.299006
-1.360021 6.133708 0.667362
-1.123690 5.903687 0.028719
-1.217298 5.998888 0.300537
-1.158953 5.940152 0.123959
-1.088219 5.872869 -0.056792
-1.254572 6.033905 0.383169
-1.267598 6.048673 0.426880
-1.143176 5.927808 0.083035
-1.399382 6.177790 0.781358
-1.452635 6.226823 0.891834
-1.344706 6.127205 0.622297
-1.221047 6.009720 0.311900
-1.140671 5.929126 0.071550
-1.406877 6.194883 0.806181
-1.042038 5.846947 -0.146202
-1.034509 5.844310 -0.149554
-1.224647 6.022696 0.304048
-1.103514 5.908649 -0.025133
-1.314553 6.111800 0.531792
-1.176581 5.981148 0.173968
-1.407516 6.207701 0.814619
-1.079718 5.888964 -0.091407
-1.154547 5.963864 0.108100
-1.193561 6.003844 0.218056
-1.087962 5.903246 -0.055929
-1.080680 5.898590 -0.073134
-1.080454 5.897136 -0.085777
-1.106668 5.924716 -0.007309
-1.095467 5.917589 -0.029853
-1.145537 5.964093 0.084688
-1.306331 6.121788 0.536452
-1.303581 6.121467 0.540496
-1.421152 6.230419 0.789667
-1.299430 6.123034 0.520002
-1.359320 6.181080 0.657016
-1.217217 6.045583 0.281623
-1.118249 5.953291 0.008864
-1.153425 5.987995 0.109842
-1.249026 6.080844 0.369479
-1.265619 6.096725 0.413233
-1.215367 6.049649 0.283181
-1.082394 5.922973 -0.080336
-1.402198 6.229971 0.771830
-1.344909 6.176216 0.610720
-1.135659 5.976366 0.053772
-1.135023 5.977061 0.064777
-1.218171 6.058870 0.298222
-1.406512 6.244534 0.800717
-1.036260 5.897927 -0.172617
-1.219535 6.071837 0.290336
-1.029634 5.896018 -0.176780
-1.098075 5.958246 -0.044989
-1.170185 6.029144 0.157795
-1.308951 6.161517 0.519298
-1.072047 5.937637 -0.110882
-1.150391 6.013690 0.091123
-1.184456 6.048744 0.204737
-1.085233 5.955021 -0.078221
-1.079326 5.949610 -0.097029
-1.102992 5.974883 -0.025921
-1.092264 5.968102 -0.050095
-1.306063 6.173187 0.525244
-1.303272 6.172899 0.531737
-1.142797 6.016787 0.061981
-1.363519 6.232490 0.645879
-1.298730 6.175881 0.507137
-1.261833 6.144228 0.400787
-1.214851 6.098695 0.262189
-1.114610 6.004336 -0.012615
-1.149697 6.039109 0.093263
-1.246143 6.130901 0.355383
-1.211627 6.100771 0.266607
-1.341967 6.226314 0.599079
-1.126560 6.023996 0.039190
-1.213919 6.107848 0.286565
-1.132281 6.031578 0.041231
-1.214851 6.121346 0.277440
-1.165592 6.078582 0.139998
-1.096243 6.012566 -0.068932
-1.056681 5.982878 -0.123497
-1.304677 6.214158 0.505971
-1.181622 6.099670 0.187768
-1.143996 6.064412 0.073689
-1.101117 6.027406 -0.046576
-1.092237 6.022045 -0.074822
-1.303987 6.224034 0.515237
-1.304764 6.226687 0.520934
-1.135109 6.068194 0.041252
-1.300735 6.230894 0.491836
-1.258042 6.193547 0.387501
-1.146397 6.090590 0.077501
-1.111871 6.057923 -0.035746
-1.245963 6.184954 0.338013
-1.205260 6.149635 0.247566
-1.207882 6.154624 0.248773
-1.126956 6.078317 0.015284
-1.213702 6.161931 0.271642
-1.126397 6.085348 0.018458
-1.211062 6.175228 0.262055
-1.158286 6.129484 0.122956
-1.091700 6.065605 -0.090862
-1.176551 6.149663 0.171180
-1.048101 6.033544 -0.143422
-1.139832 6.116955 0.055449
-1.097433 6.082117 -0.067288
-1.085889 6.073627 -0.095131
-1.055314 6.052152 -0.155781
-1.129653 6.123249 0.018878
-1.258719 6.247435 0.372187
-1.143565 6.145148 0.058848
-1.245308 6.239560 0.321851
-1.106420 6.112057 -0.057704
-1.208259 6.210767 0.224032
-1.123266 6.133024 -0.005427
-1.208969 6.214195 0.259934
-1.204133 6.210289 0.230099
-1.051831 6.076356 -0.146732
-1.124550 6.145129 -0.008000
-1.211743 6.232761 0.245060
-1.158628 6.187478 0.099821
-1.177752 6.205677 0.150942
-1.047210 6.091269 -0.171889
-1.134762 6.171499 0.036760
-1.052141 6.099475 -0.123321
-1.096452 6.140820 -0.091274
-1.053149 6.104874 -0.159301
-1.049047 6.110048 -0.183926
-1.123289 6.180303 -0.003946
-1.142061 6.202625 0.039363
-1.097355 6.165098 -0.077258
-1.114630 6.183705 -0.022904
-1.048270 6.134599 -0.176474
-1.119088 6.203815 -0.032056
-1.152647 6.242199 0.081524
-1.137338 6.234959 0.011140
-1.058423 6.164855 -0.156669
-1.038243 6.154082 -0.175231
-1.119631 6.240433 -0.029625
-1.139651 6.261187 0.019848
-1.098686 6.228285 -0.108207
-1.113640 6.243303 -0.047311
-1.049356 6.220614 -0.177487
-1.064541 6.241110 -0.159528
