# .PCD v0.7 - Point Cloud Data file format
VERSION 0.7
FIELDS x y z
SIZE 4 4 4
TYPE F F F
COUNT 1 1 1
WIDTH 40
HEIGHT 1
VIEWPOINT 0 0 0 1
POINTS 40
DATA ascii
-1.651149 35.412586 1.507735
-1.732069 35.358917 1.566821
-1.575967 35.502907 1.634536
-1.696001 35.275509 1.594062
-1.668849 35.161312 1.600014
-1.646281 35.039768 1.599279
-1.630504 34.899170 1.580526
-1.614962 34.773647 1.568688
-1.600834 34.659672 1.561281
-1.582861 34.568726 1.566867
-1.561299 34.494732 1.584542
-1.596490 35.627792 1.639351
-1.556524 35.530922 1.660046
-1.708802 34.704647 1.594872
-1.711072 34.912426 1.601420
-1.701708 35.485516 1.579319
-1.709478 35.330479 1.498212
-1.681037 34.640625 1.612508
-1.685598 34.825218 1.611205
-1.680526 35.321373 1.565949
-1.672343 35.262379 1.530084
-1.657934 34.563515 1.621160
-1.662292 34.734695 1.616270
-1.660621 35.168495 1.553299
-1.606479 35.335041 1.648711
-1.639246 34.477398 1.619743
-1.643392 34.641518 1.615910
-1.577625 35.234180 1.660188
-1.633877 35.065269 1.569126
-1.624461 34.381680 1.608864
-1.633030 34.523647 1.595109
-1.553770 35.129910 1.665992
-1.603337 34.986443 1.597643
-1.620192 34.422924 1.584222
-1.528002 35.039032 1.678460
-1.554792 34.986698 1.682377
-1.606139 34.335453 1.582090
-1.528283 34.906261 1.709411
-1.509165 34.806648 1.720499
-1.494985 34.699623 1.721909
