# .PCD v0.7 - Point Cloud Data file format
VERSION 0.7
FIELDS x y z
SIZE 4 4 4
TYPE F F F
COUNT 1 1 1
WIDTH 21
HEIGHT 1
VIEWPOINT 0 0 0 1
POINTS 21
DATA ascii
-10.025082 34.611633 -1.544268
-9.984279 34.631824 -1.536453
-10.020008 34.669575 -1.541109
-9.867556 34.617413 -1.555240
-9.875657 34.643997 -1.568944
-10.037260 34.781372 -1.549413
-10.033422 34.778225 -1.542454
-9.886156 34.660412 -1.526214
-9.906874 34.696331 -1.535338
-9.900643 34.753845 -1.569511
-9.908132 34.756157 -1.558546
-10.056550 34.894543 -1.564619
-10.046751 34.911640 -1.558571
-9.917488 34.801376 -1.535907
-9.907387 34.794094 -1.530561
-10.042902 34.947113 -1.575727
-9.922695 34.864815 -1.578025
-9.911845 34.880081 -1.571238
-10.038755 34.986618 -1.547323
-9.924197 34.905640 -1.545085
-9.924091 34.927494 -1.533676
