# .PCD v0.7 - Point Cloud Data file format
VERSION 0.7
FIELDS x y z
SIZE 4 4 4
TYPE F F F
COUNT 1 1 1
WIDTH 69
HEIGHT 1
VIEWPOINT 0 0 0 1
POINTS 69
DATA ascii
2.191754 11.930838 1.169048
2.317378 11.709477 0.961677
2.189886 11.754566 1.220984
2.321423 11.552067 1.015025
2.327017 11.864696 0.876880
2.333441 11.361111 0.904524
1.981022 11.943571 1.754624
2.133631 11.802951 1.472773
2.189867 11.593740 1.270089
2.240662 11.808003 1.086976
2.291023 11.347603 1.064077
1.977796 11.760413 1.781958
2.128325 11.619106 1.505508
2.171340 11.411860 1.312034
2.236655 11.632833 1.143380
2.338942 11.549340 0.993291
1.976881 11.595222 1.809183
2.118873 11.436448 1.534184
1.896248 11.817833 2.088685
2.164215 11.261473 1.353417
2.026826 11.848356 1.661009
2.139235 11.725497 1.470044
2.214977 11.440508 1.193660
2.303042 11.336049 1.047366
2.284208 11.705431 1.003178
1.970955 11.430095 1.832432
1.908812 11.657551 2.104727
2.022363 11.666517 1.693205
2.139520 11.557339 1.506790
2.208121 11.285915 1.242190
2.155065 11.863867 1.406755
1.906697 11.874363 2.067495
2.253016 11.487004 1.062292
1.917638 11.502742 2.118549
2.006374 11.473545 1.719661
2.059487 11.758674 1.563743
2.129147 11.381060 1.539266
2.148762 11.674205 1.447956
2.309168 11.323949 1.007920
1.911543 11.697583 2.082463
2.247793 11.327141 1.117989
2.010035 11.331198 1.751814
2.056856 11.582108 1.601775
2.150793 11.512083 1.487641
2.306025 11.533263 0.924506
1.925643 11.555273 2.102919
2.108660 11.859948 1.426664
1.802545 11.814065 2.183847
1.928238 11.775745 2.041682
2.178180 11.819073 1.382862
2.047447 11.404275 1.635528
2.128297 11.317433 1.520052
2.301105 11.368299 0.987799
2.102225 11.661788 1.473181
1.813874 11.655092 2.204757
2.335469 11.329688 0.970876
1.934679 11.615157 2.061966
2.162394 11.615388 1.425770
2.087999 11.465695 1.513235
1.811483 11.480238 2.217343
1.950085 11.852313 1.994771
1.913134 11.406187 2.066002
2.152303 11.436797 1.466932
1.861639 11.777239 2.082640
2.087310 11.307628 1.554422
1.953700 11.682544 2.019239
1.862305 11.594268 2.103312
1.958351 11.527225 2.043398
1.859173 11.418553 2.120862
