# .PCD v0.7 - Point Cloud Data file format
VERSION 0.7
FIELDS x y z
SIZE 4 4 4
TYPE F F F
COUNT 1 1 1
WIDTH 18
HEIGHT 1
VIEWPOINT 0 0 0 1
POINTS 18
DATA ascii
-12.596413 31.049349 -3.286632
-12.642292 31.023432 -3.307015
-12.610522 31.051413 -3.282743
-12.697510 30.976885 -3.322247
-12.706206 31.184500 -3.289815
-12.652431 31.042360 -3.306812
-12.608243 31.056339 -3.284808
-12.776627 31.107315 -3.293685
-12.702197 31.011137 -3.323618
-12.650027 31.051514 -3.309187
-12.867958 30.987185 -3.285493
-12.755085 30.979918 -3.341562
-12.611955 31.058264 -3.288265
-12.703094 31.019281 -3.324910
-12.661488 31.039623 -3.307406
-12.753353 31.000376 -3.344676
-12.716508 31.008867 -3.323055
-12.761762 31.008202 -3.346702
