# .PCD v0.7 - Point Cloud Data file format
VERSION 0.7
FIELDS x y z
SIZE 4 4 4
TYPE F F F
COUNT 1 1 1
WIDTH 40
HEIGHT 1
VIEWPOINT 0 0 0 1
POINTS 40
DATA ascii
-14.150918 33.988914 -3.219900
-14.121977 34.009663 -3.212747
-14.204525 34.080746 -3.206877
-14.174400 34.059074 -3.170321
-14.133837 34.085037 -3.214421
-14.145508 34.091866 -3.211790
-14.177401 34.132050 -3.173354
-14.239868 34.192188 -3.198947
-14.183409 34.137619 -3.170468
-14.150942 34.168850 -3.223548
-14.147790 34.186455 -3.211240
-14.190477 34.242088 -3.227702
-14.190857 34.217255 -3.179421
-14.189342 34.281719 -3.226590
-14.217052 34.281601 -3.214684
-14.182286 34.233360 -3.169640
-14.185817 34.276749 -3.204483
-14.165668 34.252754 -3.225747
-15.450728 34.716938 -2.473228
-14.202567 34.333141 -3.231578
-14.193130 34.319149 -3.197810
-14.180702 34.298977 -3.198708
-14.186482 34.315086 -3.178230
-14.191474 34.296272 -3.183278
-14.256664 34.408894 -3.218379
-14.195636 34.364536 -3.204724
-14.180196 34.349201 -3.174275
-14.179996 34.332783 -3.167208
-14.166289 34.362629 -3.226004
-14.186300 34.407436 -3.213270
-14.163215 34.432274 -3.227595
-14.190422 34.397633 -3.175018
-14.201187 34.416233 -3.175739
-14.231010 34.534904 -3.218255
-14.201504 34.489693 -3.183011
-14.193021 34.445396 -3.176447
-16.124813 35.398422 -2.197245
-14.197879 34.554607 -3.197916
-14.168982 34.601566 -3.231490
-14.201242 34.595757 -3.161697
