# .PCD v0.7 - Point Cloud Data file format
VERSION 0.7
FIELDS x y z
SIZE 4 4 4
TYPE F F F
COUNT 1 1 1
WIDTH 390
HEIGHT 1
VIEWPOINT 0 0 0 1
POINTS 390
DATA ascii
-8.780942 31.423084 -2.130908
-8.760222 31.416136 -2.190287
-8.812424 31.288771 -2.211314
-8.827759 31.320524 -2.188880
-8.835534 31.287924 -2.195370
-8.834957 31.342760 -2.185624
-8.739326 31.410545 -2.244099
-8.775797 31.501484 -2.160164
-8.717844 31.405640 -2.306516
-8.771306 31.474894 -2.218461
-8.817311 31.361916 -2.243045
-8.831126 31.398235 -2.217480
-8.827907 31.382113 -2.225881
-8.840374 31.417076 -2.212425
-8.740260 31.486666 -2.273474
-8.820110 31.504568 -2.183583
-8.716897 31.490328 -2.335901
-8.650814 31.372231 -2.548845
-8.669386 31.353104 -2.548343
-8.809229 31.491383 -2.245389
-8.818876 31.437946 -2.271663
-8.641495 31.388247 -2.553480
-8.834315 31.471941 -2.245119
-8.632545 31.391394 -2.567859
-8.657850 31.453150 -2.499099
-8.830659 31.456888 -2.254334
-8.640898 31.434315 -2.555240
-8.839787 31.497768 -2.238683
-8.777408 31.506365 -2.300678
-8.872472 31.497879 -2.205763
-8.616989 31.426428 -2.605533
-8.600283 31.403208 -2.666336
-8.767689 31.493780 -2.365998
-8.695921 31.388195 -2.576623
-8.858125 31.491394 -2.270410
-8.700451 31.394680 -2.571764
-8.827251 31.501358 -2.299655
-8.699460 31.379858 -2.585787
-8.854753 31.517717 -2.269621
-8.671567 31.509571 -2.521940
-8.833456 31.525608 -2.280956
-8.688460 31.386402 -2.601968
-8.648953 31.506287 -2.576703
-8.885393 31.510824 -2.261996
-8.839309 31.490223 -2.329357
-8.942879 31.469038 -2.228701
-8.549570 31.411270 -2.811382
-8.524870 31.385710 -2.869739
-8.568069 31.306078 -2.893212
-8.628145 31.495699 -2.627299
-8.562879 31.331408 -2.898878
-8.706090 31.460873 -2.595853
-8.604358 31.492502 -2.684997
-8.921935 31.474979 -2.296807
-8.831591 31.479126 -2.397482
-8.712235 31.465031 -2.590009
-8.873732 31.509939 -2.326869
-8.726134 31.499973 -2.551575
-8.705317 31.459517 -2.605804
-8.919510 31.503262 -2.293954
-8.898548 31.509010 -2.305828
-8.699816 31.456654 -2.623793
-8.570943 31.343424 -2.911957
-8.701335 31.503206 -2.607652
-8.946799 31.502285 -2.284130
-8.557763 31.487709 -2.824593
-8.899859 31.481485 -2.358649
-8.531917 31.471697 -2.880836
-8.574195 31.399565 -2.901328
-8.563617 31.370602 -2.930001
-8.508765 31.443903 -2.936809
-8.484855 31.411625 -3.003182
-8.680063 31.496712 -2.659983
-8.575698 31.413065 -2.911400
-8.730189 31.508034 -2.618042
-8.651954 31.500494 -2.718465
-8.732991 31.518106 -2.609998
-8.792065 31.477718 -2.583095
-8.940514 31.492781 -2.355857
-8.977880 31.500357 -2.318120
-8.724022 31.515989 -2.627595
-8.959291 31.502422 -2.332418
-8.467333 31.427166 -3.088718
-8.723584 31.504789 -2.648207
-8.579267 31.428059 -2.924297
-9.061956 31.449392 -2.278046
-8.772635 31.473497 -2.643256
-9.006654 31.500175 -2.306827
-8.603631 31.495089 -2.856711
-8.985426 31.441986 -2.389033
-8.567622 31.498770 -2.908623
-8.581125 31.486814 -2.908263
-8.570632 31.459614 -2.942028
-8.533735 31.496031 -2.957829
-8.754577 31.463041 -2.700065
-8.495299 31.496958 -3.013282
-8.589110 31.487507 -2.922687
-9.049868 31.450167 -2.351573
-8.794436 31.495325 -2.649631
-8.804017 31.495810 -2.641869
-8.732993 31.461140 -2.763382
-8.968610 31.447781 -2.463237
-9.074899 31.451609 -2.343506
-8.792151 31.496202 -2.661980
-8.479557 31.500994 -3.096479
-9.128054 31.434666 -2.302280
-8.788275 31.488676 -2.684511
-8.594073 31.501053 -2.938236
-8.673076 31.464380 -2.898767
-9.108054 31.448549 -2.330995
-8.631441 31.479418 -2.951147
-9.040522 31.445593 -2.418865
-8.634440 31.491638 -2.940391
-8.608224 31.488272 -2.971220
-8.600768 31.472715 -3.004828
-8.561769 31.476662 -3.063370
-8.643510 31.488834 -2.958768
-9.121071 31.434231 -2.378921
-8.858307 31.487789 -2.681610
-8.923591 31.441315 -2.648869
-8.865853 31.489811 -2.671965
-9.042469 31.430904 -2.498153
-9.083824 31.456429 -2.414443
-9.128568 31.460859 -2.368860
-8.849911 31.493967 -2.694759
-9.190445 31.429859 -2.327470
-9.107959 31.462126 -2.386802
-8.844081 31.490910 -2.717736
-8.658494 31.484638 -2.980923
-8.907315 31.439184 -2.715351
-9.158920 31.462551 -2.354745
-9.115344 31.427652 -2.450802
-8.703134 31.472435 -2.980452
-8.671096 31.478281 -3.014461
-8.723864 31.360361 -3.087248
-8.888969 31.435658 -2.777637
-8.707781 31.476707 -2.998208
-9.188693 31.425093 -2.407712
-8.628285 31.460466 -3.113032
-8.988518 31.431454 -2.682044
-8.949022 31.444641 -2.722042
-8.963649 31.439125 -2.711375
-9.258825 31.418680 -2.353225
-9.148316 31.453016 -2.443853
-8.873770 31.430025 -2.848066
-9.203243 31.448381 -2.394792
-8.942450 31.448303 -2.737024
-9.112508 31.424042 -2.532618
-9.174706 31.456297 -2.414464
-8.972648 31.430109 -2.751397
-8.937368 31.443892 -2.763412
-8.799827 31.437288 -2.980431
-8.714565 31.486572 -3.018360
-9.239160 31.445938 -2.379290
-8.772243 31.434528 -3.044098
-9.188294 31.415257 -2.481837
-8.848964 31.290730 -3.126942
-8.732599 31.443926 -3.098809
-8.955986 31.427187 -2.815027
-9.257887 31.416658 -2.436447
-9.057817 31.417545 -2.716771
-9.007329 31.449539 -2.753155
-8.695801 31.449165 -3.162967
-9.023983 31.443657 -2.741609
-9.337686 31.398149 -2.379732
-9.221468 31.441603 -2.474950
-9.275517 31.441446 -2.421998
-9.248827 31.443817 -2.442575
-9.004713 31.450224 -2.770498
-9.193561 31.406666 -2.568430
-8.943838 31.423738 -2.890372
-8.867792 31.424236 -3.023116
-9.040503 31.422529 -2.788086
-9.004997 31.438360 -2.800971
-8.826829 31.408834 -3.087585
-9.314529 31.437473 -2.404041
-8.839869 31.422449 -3.089005
-9.265800 31.402821 -2.515404
-8.805070 31.457327 -3.106716
-9.338511 31.399668 -2.466637
-8.795133 31.443205 -3.142013
-9.126639 31.407734 -2.753246
-9.030667 31.414808 -2.858017
-9.088238 31.431078 -2.790310
-9.098340 31.433903 -2.774851
-8.765420 31.437399 -3.213439
-9.412091 31.387728 -2.406552
-9.348823 31.436378 -2.448557
-9.298527 31.431406 -2.506577
-9.328142 31.431206 -2.472455
-9.081437 31.435619 -2.808929
-8.939692 31.408207 -3.068168
-9.261681 31.408377 -2.602929
-9.121841 31.400661 -2.829956
-9.019557 31.412056 -2.935469
-8.898465 31.397877 -3.134425
-9.077946 31.429571 -2.840782
-9.395217 31.426924 -2.428280
-9.011876 31.266066 -3.195518
-9.346591 31.388668 -2.549338
-9.420474 31.385429 -2.497642
-9.198416 31.398348 -2.789548
-8.865918 31.430187 -3.192327
-8.879712 31.441427 -3.157985
-9.040556 31.270292 -3.198059
-9.112611 31.394705 -2.902812
-9.486996 31.379169 -2.434897
-9.164913 31.420671 -2.826908
-9.179197 31.419640 -2.810176
-9.438812 31.416567 -2.476482
-9.387342 31.410511 -2.540197
-9.412337 31.417578 -2.502640
-9.163477 31.417763 -2.849612
-9.012387 31.396091 -3.113442
-9.190989 31.398861 -2.868393
-9.104234 31.393253 -2.983718
-9.357089 31.384731 -2.643716
-9.479713 31.416519 -2.454406
-8.939107 31.435163 -3.162616
-9.158676 31.414923 -2.883915
-9.001575 31.375668 -3.194610
-9.118539 31.248055 -3.220192
-9.428493 31.379314 -2.584960
-9.279796 31.381754 -2.828237
-9.503885 31.373848 -2.530875
-8.940808 31.419367 -3.243222
-9.194809 31.379683 -2.947237
-8.992561 31.432842 -3.173608
-8.951604 31.434380 -3.207223
-9.574710 31.361778 -2.464581
-9.232636 31.424515 -2.860865
-9.261931 31.406961 -2.846910
-9.529914 31.401556 -2.506096
-9.089552 31.379833 -3.161676
-9.475008 31.398003 -2.574492
-9.499258 31.406425 -2.533528
-9.236974 31.416111 -2.887763
-9.281338 31.373976 -2.912989
-9.573913 31.399981 -2.481566
-9.191525 31.375853 -3.034021
-9.453289 31.365002 -2.684729
-9.011393 31.431242 -3.209203
-9.244924 31.397999 -2.929354
-9.723128 31.359684 -2.315333
-9.048844 31.404154 -3.228135
-9.064024 31.416286 -3.190915
-9.520096 31.363827 -2.621617
-9.358126 31.371960 -2.866198
-9.593892 31.358831 -2.564835
-9.659913 31.350021 -2.494136
-9.072659 31.420031 -3.222596
-9.022395 31.403841 -3.299024
-9.278111 31.369457 -2.993356
-9.034042 31.419743 -3.262319
-9.345257 31.397219 -2.883820
-9.336211 31.392752 -2.906914
-9.173926 31.361900 -3.213566
-9.629736 31.382641 -2.536973
-9.564979 31.386005 -2.609382
-9.590743 31.392199 -2.566024
-9.369988 31.358635 -2.957667
-9.334101 31.391788 -2.934069
-9.667518 31.387629 -2.509068
-9.099819 31.410231 -3.264858
-9.331625 31.387123 -2.974480
-9.545989 31.353132 -2.725831
-9.278295 31.366735 -3.084236
-9.133080 31.388168 -3.282299
-9.137965 31.415304 -3.233334
-9.445510 31.354942 -2.908716
-9.615382 31.348568 -2.658747
-9.686299 31.345392 -2.598028
-9.747195 31.340822 -2.525136
-9.160940 31.403309 -3.274997
-9.370360 31.352108 -3.042608
-9.436662 31.383661 -2.922735
-9.428360 31.377838 -2.949237
-9.120811 31.404081 -3.319876
-9.366382 31.219519 -3.323881
-9.723937 31.372055 -2.567394
-9.461049 31.343714 -3.004333
-9.683228 31.382864 -2.598787
-9.665492 31.367588 -2.647347
-9.429760 31.374966 -2.979572
-9.772411 31.369843 -2.537531
-9.187857 31.394388 -3.320897
-9.212541 31.381403 -3.335303
-9.229539 31.396866 -3.286100
-9.424584 31.373787 -3.022549
-9.377220 31.347710 -3.139305
-9.535617 31.340401 -2.951925
-9.647614 31.338341 -2.768234
-9.720239 31.329130 -2.699183
-9.849638 31.320278 -2.557133
-9.788820 31.326609 -2.635120
-9.253862 31.386450 -3.331336
-9.532069 31.371227 -2.963589
-9.462094 31.343052 -3.091772
-9.520226 31.369171 -2.990601
-9.339281 31.342102 -3.316559
-9.823965 31.361246 -2.598824
-9.554622 31.330288 -3.051645
-9.785720 31.368279 -2.634048
-9.765080 31.355509 -2.685117
-9.517979 31.368992 -3.022803
-9.874564 31.359741 -2.566733
-9.328009 31.375874 -3.341055
-9.310676 31.359045 -3.398008
-9.279016 31.382977 -3.377742
-9.637215 31.320236 -2.998923
-9.518875 31.363201 -3.071435
-9.762879 31.314436 -2.814033
-9.953418 31.302486 -2.589947
-9.484835 31.326639 -3.199322
-9.893955 31.310396 -2.671504
-9.829530 31.309744 -2.740741
-9.347470 31.373602 -3.386491
-9.636301 31.354797 -3.007111
-9.627661 31.348780 -3.038599
-9.567471 31.323713 -3.147093
-9.418648 31.343733 -3.365901
-9.939663 31.340958 -2.632771
-9.658273 31.314543 -3.103789
-9.895852 31.352123 -2.669384
-9.866850 31.347069 -2.722997
-9.624099 31.351810 -3.073254
-9.988437 31.343140 -2.596091
-9.423832 31.363636 -3.395391
-9.739709 31.303892 -3.047554
-9.410546 31.341394 -3.461636
-9.383280 31.361277 -3.442916
-10.049433 31.296520 -2.622719
-9.633192 31.340942 -3.128070
-9.998272 31.300426 -2.709102
-9.870779 31.304314 -2.859898
-9.937356 31.297861 -2.781513
-9.593978 31.309299 -3.260209
-9.451384 31.355215 -3.448368
-9.746888 31.336981 -3.052232
-9.735758 31.335426 -3.086341
-9.685715 31.297306 -3.208852
-9.517123 31.327532 -3.426892
-10.051334 31.329704 -2.666219
-9.770535 31.293823 -3.158544
-10.010524 31.335928 -2.707253
-9.979773 31.335150 -2.764133
-9.738061 31.332867 -3.126597
-10.105132 31.328918 -2.627562
-9.841713 31.292814 -3.095171
-9.534446 31.342888 -3.456640
-10.168809 31.275305 -2.659911
-10.118358 31.280880 -2.750627
-9.746166 31.323063 -3.184401
-10.060078 31.278543 -2.827847
-9.996033 31.285316 -2.909629
-9.711699 31.290012 -3.324636
-9.859217 31.323874 -3.098281
-9.563237 31.334974 -3.514544
-9.631567 31.301563 -3.494623
-9.850747 31.319521 -3.136274
-9.798740 31.282356 -3.267516
-10.168185 31.318319 -2.701440
-9.879175 31.284096 -3.212908
-10.135268 31.318584 -2.747195
-9.958945 31.272156 -3.148885
-10.111561 31.310959 -2.809501
-9.859859 31.312162 -3.182833
-9.650129 31.320934 -3.521012
-10.244669 31.263069 -2.793271
-9.867591 31.306360 -3.243789
-10.192662 31.257097 -2.876197
-10.131992 31.263910 -2.963433
-9.842149 31.266777 -3.395019
-9.981642 31.305420 -3.148237
-9.738436 31.289566 -3.559601
-9.976984 31.300041 -3.190871
-9.920346 31.265461 -3.329720
-10.007856 31.259668 -3.274095
-10.090090 31.246296 -3.208384
-9.987878 31.293194 -3.240188
-10.243366 31.293898 -2.855378
-9.767211 31.305830 -3.585773
-9.999617 31.286173 -3.308604
-10.125974 31.278051 -3.204584
-9.973785 31.249414 -3.465738
-9.864674 31.264816 -3.635852
-10.108800 31.282387 -3.247349
-10.059804 31.240383 -3.400071
-10.150852 31.231997 -3.341177
-10.116551 31.280094 -3.300053
