# .PCD v0.7 - Point Cloud Data file format
VERSION 0.7
FIELDS x y z
SIZE 4 4 4
TYPE F F F
COUNT 1 1 1
WIDTH 27
HEIGHT 1
VIEWPOINT 0 0 0 1
POINTS 27
DATA ascii
-13.704893 30.679108 -3.694005
-13.640898 30.881495 -3.672633
-13.652357 30.801764 -3.676651
-13.766772 30.669188 -3.717246
-13.703069 30.875933 -3.692736
-13.680947 30.709066 -3.682274
-13.835295 30.651855 -3.740623
-13.709595 30.802776 -3.700681
-13.753747 30.889671 -3.715749
-13.737988 30.711029 -3.708571
-13.517301 31.111069 -3.633791
-13.770234 30.800627 -3.724128
-13.809889 30.895470 -3.736802
-13.810366 30.691345 -3.732846
-13.571481 31.104624 -3.658067
-13.832822 30.797922 -3.746643
-13.668287 31.041031 -3.670919
-13.809772 30.919596 -3.672811
-13.883083 30.900732 -3.696395
-13.634869 30.709686 -3.696869
-13.582680 30.871931 -3.678991
-13.692301 30.696894 -3.721367
-13.641068 30.865385 -3.700496
-13.637099 30.814754 -3.705257
-13.695574 30.867308 -3.723795
-13.649072 30.752672 -3.710804
-13.694203 30.810532 -3.729213
