# .PCD v0.7 - Point Cloud Data file format
VERSION 0.7
FIELDS x y z
SIZE 4 4 4
TYPE F F F
COUNT 1 1 1
WIDTH 21
HEIGHT 1
VIEWPOINT 0 0 0 1
POINTS 21
DATA ascii
-8.052027 35.034622 -0.689375
-8.069780 34.956043 -0.687152
-8.058475 34.958267 -0.693179
-8.055604 34.899742 -0.688209
-8.016981 35.016476 -0.674671
-8.035395 34.935474 -0.677213
-8.025886 34.940510 -0.680437
-8.041469 34.856724 -0.690130
-8.052756 34.841251 -0.683258
-8.039769 34.856136 -0.688807
-8.056607 34.798416 -0.683024
-8.027460 34.884293 -0.671002
-7.959188 34.934547 -0.726582
-8.003441 34.917610 -0.663707
-7.996044 34.923309 -0.664676
-8.014393 34.841957 -0.675025
-8.022408 34.815697 -0.673404
-8.013000 34.841553 -0.668720
-7.997526 34.866028 -0.656615
-7.987367 34.821838 -0.664550
-7.946078 34.792950 -0.708616
