# .PCD v0.7 - Point Cloud Data file format
VERSION 0.7
FIELDS x y z
SIZE 4 4 4
TYPE F F F
COUNT 1 1 1
WIDTH 12
HEIGHT 1
VIEWPOINT 0 0 0 1
POINTS 12
DATA ascii
-12.234731 33.540905 -2.270443
-12.190388 33.602509 -2.283708
-12.173107 33.589672 -2.173292
-12.197937 33.620823 -2.259125
-12.159261 33.679371 -2.269648
-12.170814 33.698811 -2.247010
-12.163115 33.758427 -2.253386
-12.181727 33.779324 -2.233931
-12.180742 33.837753 -2.236923
-12.215706 34.264820 -2.281216
-12.215392 34.282494 -2.296040
-12.232365 34.349907 -2.256747
