# .PCD v0.7 - Point Cloud Data file format
VERSION 0.7
FIELDS x y z
SIZE 4 4 4
TYPE F F F
COUNT 1 1 1
WIDTH 754
HEIGHT 1
VIEWPOINT 0 0 0 1
POINTS 754
DATA ascii
-8.922413 31.497129 -2.120758
-8.955735 31.491211 -2.146155
-8.925438 31.492229 -2.123924
-8.894557 31.488777 -2.256883
-8.897398 31.493603 -2.201651
-8.915218 31.496048 -2.130472
-8.995716 31.472818 -2.168334
-8.960013 31.489141 -2.148690
-8.933534 31.477480 -2.285195
-8.950199 31.494913 -2.155323
-8.931170 31.492592 -2.229421
-8.932966 31.493225 -2.181818
-8.994992 31.488001 -2.173537
-8.827758 31.485346 -2.441042
-8.936828 31.493458 -2.133374
-8.768404 31.486422 -2.556835
-8.992214 31.476131 -2.176646
-8.948192 31.488838 -2.162272
-8.773574 31.491764 -2.502207
-8.826837 31.482271 -2.444546
-8.866043 31.471193 -2.467816
-8.971114 31.489462 -2.156684
-8.814463 31.489592 -2.451422
-9.014453 31.455275 -2.341651
-9.028447 31.477816 -2.200861
-8.806785 31.478182 -2.588192
-8.985612 31.489265 -2.186349
-9.015883 31.452570 -2.278276
-9.110278 31.441851 -2.242891
-8.811130 31.483782 -2.531498
-8.863228 31.476681 -2.471195
-8.904526 31.458012 -2.494627
-8.813444 31.487429 -2.482613
-8.730346 31.479776 -2.726338
-8.816976 31.489799 -2.433600
-8.806725 31.489664 -2.461900
-8.853469 31.479424 -2.476952
-8.658527 31.482716 -2.835167
-9.050111 31.454727 -2.252972
-9.054766 31.446707 -2.370731
-9.051977 31.452053 -2.306634
-9.147375 31.440226 -2.268282
-9.051737 31.453680 -2.197489
-9.120034 31.439850 -2.240835
-8.850889 31.469261 -2.559580
-8.900428 31.474997 -2.498009
-8.670053 31.484854 -2.777147
-8.850504 31.477562 -2.510405
-8.721773 31.483603 -2.725002
-8.768972 31.469477 -2.756853
-8.855374 31.476694 -2.459002
-8.846986 31.482325 -2.486800
-8.893412 31.470047 -2.503176
-9.116775 31.443384 -2.244110
-8.696225 31.477613 -2.868159
-9.086807 31.451147 -2.278281
-8.706632 31.485500 -2.728906
-9.091664 31.444717 -2.333685
-9.095885 31.442043 -2.399974
-9.307688 31.448513 -2.138465
-8.893106 31.441362 -2.649906
-9.192521 31.421673 -2.292250
-9.087159 31.451439 -2.221528
-9.158963 31.436859 -2.265329
-8.941724 31.458206 -2.523737
-8.987405 31.431320 -2.550705
-8.886177 31.475002 -2.589049
-8.707053 31.476894 -2.808601
-8.892670 31.457479 -2.537321
-8.760069 31.475435 -2.754945
-8.712817 31.481012 -2.755989
-8.644318 31.478497 -2.977116
-8.565844 31.481251 -3.074971
-8.808739 31.460945 -2.788105
-8.718703 31.485035 -2.704800
-8.693295 31.487921 -2.735590
-8.934001 31.460560 -2.528640
-8.888560 31.470604 -2.512085
-9.124442 31.448359 -2.304285
-8.745820 31.475174 -2.757255
-9.159700 31.435532 -2.267385
-8.736378 31.469904 -2.902276
-9.128610 31.445063 -2.361323
-9.124009 31.445877 -2.244584
-9.121763 31.439972 -2.250072
-9.231737 31.419573 -2.318190
-9.136355 31.437471 -2.429968
-8.630849 31.476679 -2.964398
-8.929624 31.448793 -2.681520
-9.201773 31.427946 -2.289968
-8.987836 31.436289 -2.550308
-9.027052 31.427019 -2.578636
-8.931790 31.445906 -2.618804
-8.930979 31.450432 -2.564475
-8.745066 31.473816 -2.840262
-8.751445 31.470705 -2.786502
-8.799951 31.467958 -2.784827
-8.609659 31.481318 -2.957453
-8.932566 31.452419 -2.509875
-8.683750 31.466799 -3.012475
-8.605789 31.467264 -3.113727
-8.853508 31.436968 -2.821744
-8.755638 31.478281 -2.732060
-8.733207 31.481583 -2.762697
-8.980762 31.438540 -2.554455
-9.163707 31.443224 -2.329347
-9.203402 31.424458 -2.290430
-8.618027 31.476879 -3.044720
-8.785946 31.465637 -2.786298
-9.161263 31.442263 -2.267721
-9.274874 31.408516 -2.343395
-9.171844 31.433931 -2.387944
-9.164025 31.436388 -2.272200
-8.783302 31.437126 -2.940271
-8.624912 31.480953 -2.987779
-8.669603 31.473423 -2.996716
-9.178082 31.435724 -2.459329
-9.245229 31.418924 -2.313849
-8.974735 31.433966 -2.714221
-9.027687 31.432962 -2.578279
-9.066990 31.423609 -2.608015
-8.968794 31.449215 -2.648737
-8.972519 31.437563 -2.592529
-8.631313 31.481998 -2.932136
-8.789164 31.466721 -2.816706
-8.837078 31.472334 -2.813398
-8.648771 31.477064 -2.987565
-8.971319 31.444284 -2.536228
-8.895147 31.430014 -2.854381
-8.644736 31.459681 -3.150762
-8.772339 31.478453 -2.790025
-9.206558 31.431269 -2.353102
-9.021263 31.435108 -2.581671
-8.978147 31.439684 -2.562550
-9.201417 31.434963 -2.291187
-9.436302 31.421947 -2.134305
-9.246931 31.419523 -2.313822
-8.829504 31.451258 -2.816283
-8.657549 31.465097 -3.081487
-9.319352 31.400202 -2.369377
-9.211559 31.433699 -2.415376
-8.630166 31.479012 -2.983177
-9.209517 31.426981 -2.295229
-8.663390 31.472624 -3.020540
-8.820973 31.446333 -2.972626
-9.285296 31.417686 -2.339071
-8.710993 31.457241 -3.031704
-9.227402 31.418125 -2.488059
-9.070883 31.424870 -2.605781
-9.442804 31.424170 -2.217765
-9.109164 31.420786 -2.636578
-9.016978 31.429932 -2.746978
-8.552608 31.486296 -3.090473
-9.009433 31.440945 -2.621048
-9.013726 31.434536 -2.678613
-8.831091 31.436762 -2.908356
-8.670609 31.467417 -2.963790
-8.831560 31.449429 -2.848717
-8.885657 31.438341 -2.847658
-9.010152 31.440237 -2.562081
-8.687446 31.473883 -3.018460
-8.768054 31.437029 -3.086040
-8.933436 31.431984 -2.885573
-8.837836 31.443422 -2.791267
-9.247952 31.425661 -2.378705
-9.242675 31.426481 -2.313089
-9.066876 31.421463 -2.608002
-9.481017 31.415733 -2.157535
-9.021675 31.433630 -2.588722
-9.293167 31.409929 -2.337491
-8.873070 31.436874 -2.846255
-9.362085 31.397339 -2.395755
-8.725126 31.326567 -3.151404
-8.672451 31.464846 -3.014669
-9.261248 31.415098 -2.441889
-9.254689 31.419706 -2.317673
-8.706450 31.445763 -3.058378
-9.333491 31.403616 -2.362371
-8.864858 31.434668 -3.009120
-8.755713 31.435165 -3.068995
-9.116012 31.415335 -2.633788
-9.153196 31.412428 -2.666133
-8.590573 31.479132 -3.122617
-9.051593 31.431000 -2.649213
-9.495569 31.407021 -2.242743
-9.271999 31.415724 -2.518616
-9.062136 31.422218 -2.780056
-9.056673 31.427366 -2.709725
-8.872305 31.430889 -2.941783
-9.049317 31.434050 -2.588514
-8.871612 31.445948 -2.879516
-8.931224 31.422432 -2.879562
-8.730231 31.457415 -3.053351
-8.875546 31.443598 -2.819569
-8.810182 31.430820 -3.122954
-8.979381 31.416891 -2.920335
-9.283238 31.421127 -2.336633
-8.864058 31.436462 -2.850395
-9.291911 31.418503 -2.404074
-9.110156 31.417456 -2.635016
-9.341228 31.398968 -2.360270
-9.521784 31.417326 -2.184282
-9.065073 31.430683 -2.614370
-8.916222 31.430689 -2.877424
-9.404572 31.396523 -2.422978
-8.739532 31.449142 -3.153835
-9.301466 31.416731 -2.470810
-8.746814 31.439016 -3.092530
-9.302626 31.411858 -2.339926
-9.380659 31.394810 -2.386740
-8.795818 31.434645 -3.102086
-9.160153 31.408028 -2.661982
-8.911074 31.419340 -3.048115
-9.200323 31.401361 -2.696066
-9.094111 31.426037 -2.678349
-9.549911 31.390560 -2.267666
-9.322222 31.401945 -2.548917
-9.108467 31.413237 -2.812997
-9.100019 31.422142 -2.740926
-9.090070 31.428549 -2.614887
-8.752570 31.439476 -3.029793
-8.913714 31.425983 -2.975256
-8.914167 31.432657 -2.912455
-8.971219 31.426146 -2.909336
-8.776979 31.434946 -3.089794
-8.917479 31.431541 -2.850483
-8.851645 31.428875 -3.158720
-9.022245 31.415787 -2.953215
-9.325632 31.414408 -2.359278
-9.339007 31.405605 -2.428931
-8.905073 31.434908 -2.879109
-9.156536 31.410740 -2.662398
-9.111864 31.415766 -2.640564
-9.389450 31.392010 -2.383967
-9.569798 31.409374 -2.207928
-8.959612 31.422440 -2.907749
-9.457532 31.380352 -2.448002
-8.759427 31.432756 -3.081566
-8.777559 31.456207 -3.186763
-9.352517 31.399529 -2.361806
-9.425422 31.391548 -2.412268
-9.352159 31.403004 -2.497533
-8.789960 31.427530 -3.128377
-9.204699 31.402670 -2.690255
-8.839902 31.423950 -3.138627
-9.135892 31.421247 -2.706825
-9.247611 31.394300 -2.726917
-8.954325 31.419056 -3.083860
-9.132536 31.420624 -2.641727
-9.147034 31.410017 -2.772227
-8.792716 31.435917 -3.062001
-9.607755 31.373343 -2.293041
-9.371093 31.395565 -2.579705
-9.158519 31.400309 -2.848329
-8.956669 31.426565 -2.944372
-8.957449 31.421587 -3.009323
-9.017682 31.414053 -2.942808
-8.819780 31.429762 -3.123171
-8.957972 31.426968 -2.880475
-9.370921 31.404001 -2.382249
-8.903979 31.394573 -3.205514
-9.071245 31.401011 -2.989220
-9.383367 31.400389 -2.454375
-8.952012 31.422876 -2.909009
-9.204222 31.399645 -2.690162
-9.436488 31.386305 -2.407799
-9.618011 31.402393 -2.231611
-9.158117 31.412159 -2.667415
-9.004348 31.416935 -2.938851
-9.508821 31.369545 -2.474839
-8.800946 31.433083 -3.111776
-8.822395 31.441160 -3.225856
-9.477274 31.380720 -2.436943
-9.400613 31.395676 -2.384970
-9.401511 31.392506 -2.526640
-8.851912 31.347887 -3.185560
-9.253080 31.394423 -2.719552
-9.184329 31.405800 -2.737141
-8.884389 31.415205 -3.175247
-9.296408 31.383835 -2.758191
-9.173247 31.418146 -2.668972
-9.003391 31.403069 -3.124055
-8.834702 31.426817 -3.095205
-9.196257 31.397343 -2.805488
-9.657042 31.370028 -2.321117
-9.000440 31.419125 -2.977553
-9.002579 31.412729 -3.045182
-9.420369 31.391132 -2.610571
-9.203372 31.401833 -2.881224
-9.063037 31.407305 -2.975928
-8.862135 31.425652 -3.157338
-8.999847 31.422106 -2.910364
-9.414009 31.400122 -2.406421
-8.979417 31.295286 -3.274262
-9.430584 31.394522 -2.481026
-9.117829 31.395952 -3.024486
-8.996660 31.417448 -2.938699
-9.252922 31.393429 -2.718132
-9.489190 31.376347 -2.431759
-9.682064 31.374912 -2.251772
-9.207633 31.399696 -2.694280
-9.567523 31.349037 -2.501392
-9.052842 31.404449 -2.971462
-8.848283 31.417702 -3.146436
-9.530303 31.368626 -2.461470
-8.887401 31.373083 -3.212538
-9.450200 31.386274 -2.554599
-9.448465 31.393873 -2.408968
-9.218607 31.406530 -2.696133
-9.229167 31.401331 -2.766861
-9.303048 31.386864 -2.748786
-8.929280 31.408407 -3.211946
-9.345686 31.379408 -2.789057
-8.876967 31.422779 -3.127960
-9.242035 31.393669 -2.835903
-9.043878 31.413816 -3.010158
-9.053676 31.392939 -3.164496
-9.712437 31.361382 -2.348522
-9.050894 31.401083 -3.082819
-9.476857 31.376020 -2.641111
-9.113533 31.393295 -3.010458
-9.254765 31.391640 -2.917325
-8.909111 31.411264 -3.194200
-9.042789 31.414919 -2.941474
-9.458721 31.393894 -2.429650
-9.475881 31.390089 -2.507157
-9.168169 31.383915 -3.061260
-8.986515 31.414314 -3.274812
-9.043429 31.411549 -2.968941
-9.303334 31.384787 -2.746567
-9.546615 31.361340 -2.455146
-9.258938 31.388897 -2.721125
-9.740214 31.359711 -2.275804
-9.617458 31.345621 -2.528710
-9.101410 31.396048 -3.003581
-9.581336 31.364029 -2.487239
-8.911999 31.433657 -3.229366
-9.505069 31.379128 -2.430293
-9.503168 31.376072 -2.582783
-9.264130 31.398918 -2.724212
-9.279593 31.388519 -2.797193
-9.355997 31.375536 -2.779754
-9.008123 31.308441 -3.279731
-9.396029 31.372656 -2.821144
-8.924931 31.401979 -3.166531
-9.293132 31.382572 -2.870548
-9.093613 31.398846 -3.046809
-9.101583 31.389490 -3.203317
-9.098875 31.391567 -3.119878
-9.505554 31.387197 -2.453430
-9.161944 31.386864 -3.044821
-9.086341 31.410658 -2.972706
-9.769418 31.353422 -2.375863
-8.984796 31.315212 -3.257425
-9.529189 31.371902 -2.673218
-9.310523 31.377399 -2.955061
-9.526637 31.380426 -2.533373
-9.218139 31.377039 -3.098338
-9.092239 31.401087 -3.000219
-9.033702 31.406881 -3.314876
-9.357171 31.371300 -2.775940
-9.603589 31.347406 -2.479323
-9.788750 31.360727 -2.301316
-9.677258 31.329903 -2.556870
-9.312893 31.376469 -2.749133
-9.149405 31.391832 -3.035962
-8.944706 31.387455 -3.218501
-9.640759 31.347492 -2.512540
-9.310591 31.392096 -2.752984
-8.957959 31.424532 -3.267285
-9.556221 31.365784 -2.612370
-9.559471 31.370907 -2.452817
-9.327081 31.382414 -2.828071
-9.407635 31.368576 -2.810329
-9.453222 31.356224 -2.855111
-9.018309 31.413469 -3.282157
-9.140970 31.390560 -3.081840
-9.555279 31.376816 -2.477536
-9.343239 31.377874 -2.903474
-9.134510 31.396122 -3.006631
-9.154720 31.378698 -3.244957
-9.146693 31.388189 -3.157284
-9.213009 31.378803 -3.080346
-9.015401 31.365223 -3.276845
-9.835397 31.336451 -2.402861
-9.595255 31.349566 -2.706312
-9.363868 31.372871 -2.992058
-9.587371 31.359518 -2.559062
-9.141987 31.391415 -3.032189
-9.272474 31.366114 -3.137051
-9.660192 31.338633 -2.503803
-9.408152 31.368607 -2.805371
-9.728741 31.330198 -2.585001
-9.360156 31.377718 -2.776172
-9.842744 31.356512 -2.326909
-9.202425 31.379293 -3.071120
-9.033134 31.261768 -3.291358
-9.702296 31.330484 -2.538389
-9.358967 31.383825 -2.782264
-9.006784 31.410583 -3.308306
-9.621284 31.352980 -2.475056
-9.375179 31.379232 -2.859069
-9.609313 31.362610 -2.642346
-9.463550 31.357647 -2.841128
-9.061601 31.256384 -3.279403
-9.514653 31.338854 -2.890182
-9.067412 31.404585 -3.322729
-9.614448 31.356344 -2.500502
-9.190207 31.383860 -3.118261
-9.394816 31.372807 -2.937704
-9.181448 31.390045 -3.039677
-9.201043 31.373096 -3.197895
-9.265543 31.370373 -3.117176
-9.047132 31.405704 -3.298505
-9.892740 31.333460 -2.431153
-9.653003 31.343245 -2.739375
-9.639227 31.354647 -2.586886
-9.422350 31.361082 -3.030461
-9.194589 31.381088 -3.065364
-9.326565 31.357237 -3.176595
-9.717200 31.331804 -2.528362
-9.463001 31.359989 -2.834942
-9.793624 31.314411 -2.613546
-9.899745 31.349670 -2.351459
-9.415125 31.370159 -2.804378
-9.405501 31.381081 -2.810539
-9.256175 31.366568 -3.106926
-9.754871 31.329594 -2.564964
-9.030135 31.406973 -3.278367
-9.428948 31.367628 -2.892089
-9.683260 31.339054 -2.498210
-9.676373 31.339159 -2.672468
-9.516530 31.353422 -2.872472
-9.063540 31.379705 -3.276248
-9.662175 31.353456 -2.525845
-9.573264 31.329245 -2.924429
-9.242867 31.372313 -3.155618
-9.230834 31.381359 -3.073844
-9.453243 31.358057 -2.973813
-9.319990 31.360493 -3.154513
-9.252246 31.367899 -3.237113
-9.309007 31.266857 -3.365695
-9.691729 31.349669 -2.613950
-9.955540 31.325237 -2.459527
-9.714253 31.336164 -2.772886
-9.489478 31.337111 -3.072622
-9.247924 31.370573 -3.099188
-9.390244 31.336975 -3.220595
-9.779867 31.320723 -2.553044
-9.529509 31.336569 -2.867233
-9.460397 31.365257 -2.841122
-9.854598 31.307562 -2.642819
-9.962404 31.338573 -2.376132
-9.470091 31.362595 -2.832578
-9.307633 31.364614 -3.140626
-9.816000 31.320768 -2.591992
-9.078848 31.401432 -3.314176
-9.483121 31.357971 -2.925187
-9.739407 31.335512 -2.521581
-9.733939 31.332983 -2.702702
-9.582677 31.330997 -2.906965
-9.101420 31.398172 -3.304822
-9.715031 31.347473 -2.550699
-9.633753 31.321217 -2.960064
-9.291974 31.368711 -3.191498
-9.279445 31.375881 -3.108231
-9.513342 31.343912 -3.011266
-9.308673 31.355360 -3.279147
-9.379209 31.348518 -3.193567
-9.749242 31.340536 -2.641892
-9.319353 31.359253 -3.375210
-10.022488 31.316156 -2.487593
-9.779865 31.325035 -2.808029
-9.548199 31.333403 -3.111447
-9.301008 31.366278 -3.131948
-9.512473 31.357197 -2.870884
-9.844446 31.308191 -2.578232
-9.451105 31.324474 -3.263772
-9.587819 31.330221 -2.898126
-9.921112 31.295403 -2.673583
-10.038449 31.315559 -2.399320
-9.531336 31.349535 -2.862924
-9.370641 31.342630 -3.180310
-9.884499 31.305271 -2.619612
-9.543573 31.342823 -2.960430
-9.771957 31.336544 -2.575735
-9.801417 31.328691 -2.545116
-9.152880 31.386749 -3.345097
-9.794892 31.324995 -2.734752
-9.647477 31.315969 -2.941944
-9.698514 31.309221 -2.995920
-9.333395 31.364117 -3.144068
-9.353127 31.346952 -3.234856
-9.577029 31.328932 -3.050578
-9.441287 31.331720 -3.235719
-9.371881 31.335033 -3.326715
-9.808102 31.334146 -2.670608
-9.378979 31.349911 -3.422189
-10.093673 31.306135 -2.516761
-9.845553 31.317986 -2.842677
-9.359847 31.353477 -3.168138
-9.573073 31.340065 -2.903875
-9.615326 31.319569 -3.154867
-9.905117 31.304600 -2.604149
-9.646658 31.322706 -2.929626
-9.988147 31.286245 -2.703055
-9.510536 31.319448 -3.306026
-10.103831 31.306911 -2.424659
-9.600072 31.326691 -2.894390
-9.948795 31.297817 -2.646510
-9.431975 31.330179 -3.219911
-9.824240 31.334740 -2.600847
-9.603453 31.331858 -2.995935
-9.869208 31.314505 -2.569302
-9.859258 31.316330 -2.765841
-9.704974 31.315855 -2.973934
-9.386332 31.357615 -3.180964
-9.765035 31.297749 -3.034531
-9.412519 31.334808 -3.276720
-9.640055 31.318214 -3.088740
-9.875099 31.317869 -2.699692
-9.499805 31.327032 -3.274498
-9.450104 31.292793 -3.383495
-10.166236 31.295824 -2.545821
-9.423700 31.332355 -3.207099
-9.631185 31.328560 -2.936615
-9.918697 31.304182 -2.879326
-9.972625 31.295492 -2.630045
-9.714869 31.306997 -2.963641
-9.683708 31.308554 -3.197651
-10.053963 31.281372 -2.733543
-9.660411 31.319942 -2.924419
-10.161325 31.312059 -2.451951
-9.572821 31.313768 -3.349483
-9.886785 31.322582 -2.626881
-10.013259 31.294363 -2.674324
-9.490733 31.323435 -3.257850
-9.665892 31.319342 -3.031191
-9.939229 31.300900 -2.592667
-9.927007 31.305849 -2.798744
-9.772173 31.305412 -3.009009
-9.449745 31.333401 -3.222615
-9.470603 31.327028 -3.318192
-9.834729 31.287655 -3.073017
-9.935096 31.313236 -2.729134
-9.705490 31.307920 -3.128901
-9.566285 31.313297 -3.318669
-9.526561 31.260166 -3.438779
-9.686687 31.325794 -2.968576
-9.485468 31.322983 -3.243998
-10.247514 31.281582 -2.576251
-10.046524 31.281948 -2.656717
-9.783157 31.295366 -2.997162
-9.995543 31.290596 -2.916463
-9.950061 31.310236 -2.653563
-10.136756 31.259583 -2.766304
-9.724457 31.313414 -2.954938
-9.753967 31.299118 -3.241820
-10.243145 31.291813 -2.477047
-9.645633 31.293329 -3.399984
-10.087979 31.280556 -2.703057
-9.727316 31.312086 -3.067506
-9.556505 31.311014 -3.298588
-10.008441 31.293531 -2.617132
-9.509484 31.320242 -3.262261
-9.994391 31.300528 -2.831951
-9.842106 31.293255 -3.046654
-9.532073 31.317436 -3.361478
-9.905359 31.278347 -3.112193
-10.005759 31.300201 -2.759580
-9.771209 31.302683 -3.168611
-9.633904 31.301325 -3.363570
-9.545638 31.328989 -3.454959
-9.746141 31.317024 -3.002084
-9.544218 31.320395 -3.280033
-10.013947 31.300812 -2.680365
-10.328663 31.270443 -2.606144
-10.122742 31.268904 -2.683977
-9.851611 31.287737 -3.031598
-9.792008 31.301958 -2.987800
-10.079395 31.271334 -2.956394
-10.217241 31.247423 -2.799718
-10.171543 31.259712 -2.733674
-9.790098 31.307573 -3.104580
-9.829417 31.285376 -3.289668
-9.619473 31.306356 -3.338490
-9.721386 31.276325 -3.451185
-10.077214 31.287235 -2.642373
-9.567895 31.314486 -3.302383
-10.068297 31.287663 -2.866447
-9.915666 31.281403 -3.083364
-9.600244 31.300140 -3.408876
-9.988756 31.259043 -3.155689
-10.072770 31.294060 -2.789906
-9.844073 31.288666 -3.211635
-9.706101 31.286285 -3.410133
-9.813916 31.302382 -3.036870
-9.616077 31.314102 -3.506611
-9.614482 31.304983 -3.321023
-10.076098 31.296839 -2.707561
-10.200763 31.257530 -2.711204
-9.924645 31.277042 -3.067697
-10.413529 31.259531 -2.636514
-9.864461 31.289471 -3.021000
-10.302197 31.232277 -2.833415
-9.861838 31.292917 -3.144103
-10.241797 31.259031 -2.763402
-10.160862 31.261793 -2.995578
-9.690841 31.291578 -3.383005
-9.794003 31.269220 -3.501014
-9.902379 31.281427 -3.335389
-10.162457 31.266319 -2.666513
-9.633111 31.302080 -3.345280
-9.988537 31.272678 -3.121722
-10.153361 31.268272 -2.903457
-9.657193 31.304897 -3.448976
-10.154390 31.273521 -2.822804
-10.070398 31.245182 -3.199605
-9.880999 31.290867 -3.073302
-9.921460 31.274609 -3.257228
-9.779842 31.274965 -3.457528
-10.157044 31.274582 -2.736145
-9.684494 31.291618 -3.362859
-10.281096 31.246656 -2.739033
-9.993593 31.275446 -3.101722
-9.939225 31.277483 -3.054803
-10.506983 31.243631 -2.669633
-10.389233 31.219687 -2.868537
-9.936193 31.279661 -3.185666
-10.336831 31.233690 -2.795198
-9.766001 31.276937 -3.429418
-10.250710 31.246290 -3.037469
-9.696610 31.292089 -3.387700
-10.241968 31.255705 -2.692280
-9.998853 31.250673 -3.391649
-10.080143 31.247568 -3.165107
-10.232518 31.259342 -2.939273
-9.776707 31.219336 -3.528456
-10.223148 31.272064 -2.853997
-10.155744 31.231541 -3.244007
-9.951670 31.278515 -3.111590
-10.000635 31.262211 -3.302795
-9.858970 31.260309 -3.508657
-10.224156 31.269480 -2.765106
-9.754260 31.284470 -3.403631
-10.372822 31.227200 -2.768515
-10.084374 31.250591 -3.143040
-10.016839 31.264841 -3.089806
-10.010949 31.268353 -3.227305
-10.421449 31.224825 -2.826412
-10.484447 31.204325 -2.904412
-10.604253 31.229004 -2.701870
-9.846988 31.257885 -3.478767
-9.768354 31.278112 -3.435064
-10.332343 31.237663 -2.719086
-10.343816 31.232082 -3.080642
-10.046302 31.125736 -3.664930
-10.082374 31.243244 -3.442897
-10.164869 31.235157 -3.207483
-10.324541 31.241467 -2.978050
-9.801122 31.280724 -3.548858
-10.318891 31.245398 -2.889218
-10.024571 31.266747 -3.149056
-10.244641 31.220091 -3.291143
-10.307381 31.250751 -2.795150
-10.092648 31.239731 -3.354101
-9.941357 31.246950 -3.561069
-9.829648 31.271931 -3.447298
-10.462268 31.214340 -2.797786
-10.170427 31.234940 -3.183022
-10.104226 31.245951 -3.127401
-10.095569 31.250717 -3.272945
-10.586133 31.184446 -2.942467
-10.520757 31.205650 -2.859689
-9.838705 31.268583 -3.480625
-9.927815 31.244965 -3.528459
-10.705959 31.214411 -2.735245
-10.415430 31.230368 -2.744801
-10.033669 31.243780 -3.663077
-10.440828 31.219067 -3.124340
-10.177994 31.225914 -3.499228
-10.415788 31.226793 -3.017045
-10.252855 31.224041 -3.251142
-9.875650 31.272158 -3.599181
-10.394203 31.243502 -2.922097
-10.095727 31.260422 -3.186926
-10.381697 31.245110 -2.825044
-10.349378 31.195936 -3.342974
-10.178872 31.228767 -3.402846
-9.915313 31.250853 -3.496946
-10.556151 31.201515 -2.828196
-10.188155 31.234924 -3.164928
-10.261860 31.220116 -3.224840
-10.180265 31.237162 -3.318090
-9.920187 31.247221 -3.533350
-10.616401 31.193357 -2.892855
-10.686685 31.172934 -2.981048
-10.014143 31.229765 -3.580517
-10.509909 31.214487 -2.772168
-10.538537 31.208891 -3.169563
-10.352114 31.203287 -3.297818
-10.510704 31.215368 -3.057404
-10.274102 31.214613 -3.555144
-10.489629 31.224934 -2.959900
-10.186026 31.235495 -3.231800
-10.471678 31.226917 -2.856816
-10.440434 31.191120 -3.391037
-10.266002 31.221621 -3.453158
-10.245574 31.066042 -3.748035
-10.002321 31.232512 -3.547365
-10.658212 31.185919 -2.859358
-10.284742 31.213970 -3.205373
-10.356552 31.206587 -3.267940
-10.267574 31.225004 -3.365273
-10.064438 31.151964 -3.622082
-10.722960 31.176586 -2.929348
-10.799240 31.155764 -3.021402
-10.101285 31.218460 -3.632732
-10.609267 31.197561 -2.799876
-10.450240 31.190899 -3.345021
-10.586956 31.209082 -2.996308
-10.660793 31.182085 -3.220853
-10.262321 31.232046 -3.272338
-10.617303 31.196253 -3.100863
-10.558732 31.215429 -2.889134
-10.386309 31.190367 -3.619982
-10.551978 31.170450 -3.446880
-10.369055 31.201685 -3.509574
-10.086107 31.224146 -3.594981
-10.208581 31.212353 -3.729386
-10.772804 31.163504 -2.892905
-10.372658 31.208212 -3.242930
-10.461011 31.186811 -3.313628
-10.362503 31.210100 -3.415372
-10.088540 31.215462 -3.641896
-10.835043 31.158669 -2.965425
-10.717741 31.178654 -2.829030
-10.358932 31.208735 -3.319735
-10.685718 31.195887 -3.034895
-10.556426 31.174685 -3.394342
-10.649488 31.204157 -2.921936
-10.181343 31.205978 -3.648433
-10.482461 31.177298 -3.571479
-10.477469 31.187429 -3.286406
-10.150471 31.233370 -3.683090
-10.463664 31.192730 -3.468488
-10.562014 31.174896 -3.359247
-10.822553 31.166630 -2.858074
-10.437312 31.030422 -3.829345
-10.451761 31.195417 -3.366494
-10.748099 31.188082 -2.956817
-10.244231 31.216240 -3.743069
-10.588599 31.168264 -3.332410
-10.544673 31.186180 -3.412757
