# .PCD v0.7 - Point Cloud Data file format
VERSION 0.7
FIELDS x y z
SIZE 4 4 4
TYPE F F F
COUNT 1 1 1
WIDTH 13
HEIGHT 1
VIEWPOINT 0 0 0 1
POINTS 13
DATA ascii
-13.696921 30.749237 -3.698933
-13.578701 31.050884 -3.678809
-13.585929 31.187031 -3.678231
-13.752627 30.737694 -3.721164
-13.634853 31.018286 -3.696493
-13.660850 31.113897 -3.680129
-13.810896 30.725359 -3.741723
-13.694733 30.983170 -3.715080
-13.847309 30.843470 -3.625311
-13.752177 30.957077 -3.737706
-13.871517 30.883516 -3.662594
-13.801408 30.949692 -3.762997
-13.938592 30.848061 -3.679264
