# .PCD v0.7 - Point Cloud Data file format
VERSION 0.7
FIELDS x y z
SIZE 4 4 4
TYPE F F F
COUNT 1 1 1
WIDTH 54
HEIGHT 1
VIEWPOINT 0 0 0 1
POINTS 54
DATA ascii
-14.304744 34.424847 -3.071865
-14.247591 34.430397 -3.120713
-14.474965 34.547512 -2.953702
-14.212630 34.369205 -3.143493
-14.190053 34.348484 -3.135713
-14.174415 34.360107 -3.132374
-14.191327 34.375572 -3.139155
-14.208669 34.375992 -3.134856
-14.175993 34.408737 -3.134341
-14.435802 34.708073 -2.996643
-14.171963 34.352947 -3.138222
-14.192611 34.360538 -3.135252
-14.203424 34.528496 -3.143230
-14.172067 34.363888 -3.136098
-14.154096 34.348148 -3.125853
-14.273622 34.599869 -3.113047
-14.136935 34.361164 -3.124911
-14.148568 34.371971 -3.133534
-14.230295 34.621689 -3.151697
-14.241737 34.574318 -3.143004
-14.166327 34.368385 -3.125146
-14.141956 34.414520 -3.120898
-14.183775 34.529915 -3.139812
-14.210340 34.589897 -3.148197
-14.162343 34.360847 -3.119457
-14.143319 34.356071 -3.120571
-14.164704 34.529484 -3.130848
-14.141199 34.366543 -3.120644
-14.204742 34.673298 -3.141346
-14.237343 34.599945 -3.130299
-14.122044 34.350933 -3.113324
-14.108447 34.368328 -3.109188
-14.122295 34.379612 -3.115609
-14.180844 34.553051 -3.135303
-14.188809 34.621799 -3.137230
-14.191501 34.560673 -3.137211
-14.128227 34.362644 -3.113294
-14.104715 34.416866 -3.110743
-14.148531 34.531075 -3.123696
-14.125603 34.354454 -3.108854
-14.107305 34.353733 -3.109743
-14.172742 34.590935 -3.131490
-14.129301 34.531384 -3.118380
-14.101967 34.360764 -3.113106
-14.165801 34.679379 -3.122525
-14.173938 34.575768 -3.128899
-14.143522 34.550819 -3.118162
-14.147668 34.620659 -3.123286
-14.155589 34.557613 -3.122708
-14.111354 34.530689 -3.108912
-14.136792 34.590248 -3.115166
-14.135513 34.570919 -3.110064
-14.121017 34.678604 -3.108131
-14.121912 34.555035 -3.106004
