# .PCD v0.7 - Point Cloud Data file format
VERSION 0.7
FIELDS x y z
SIZE 4 4 4
TYPE F F F
COUNT 1 1 1
WIDTH 79
HEIGHT 1
VIEWPOINT 0 0 0 1
POINTS 79
DATA ascii
2.248163 13.361496 0.763941
2.238024 13.146326 0.828258
2.106132 13.223075 1.233961
2.063952 13.241117 1.319023
2.114637 13.355790 1.172550
2.267937 12.914971 0.809276
2.238570 12.964355 0.888086
2.133806 13.358393 1.122451
2.154101 13.276306 1.068899
2.119016 13.053916 1.272734
2.076106 13.076326 1.360316
2.122259 13.180054 1.214029
2.113096 13.150338 1.221315
2.259241 12.837973 0.941806
1.876532 13.258539 1.842800
2.283735 12.840742 0.802666
1.826916 13.237782 1.926821
2.162468 13.345180 1.075419
2.135450 13.151285 1.172254
1.887971 13.341363 1.806697
1.912230 13.373372 1.684510
2.286862 12.757379 0.818765
2.152400 13.073030 1.122590
2.116289 12.861694 1.306919
2.074063 12.897398 1.397406
2.208418 13.189384 0.967245
2.128554 12.998145 1.256362
2.120117 12.979898 1.267334
2.242292 12.649929 0.993546
1.891682 13.078364 1.858847
1.882807 13.208984 1.823334
2.281608 12.675594 0.861050
1.841118 13.074186 1.948323
2.163022 13.140070 1.129709
1.967160 13.345016 1.572044
1.895054 13.142247 1.824675
2.141452 12.970654 1.217385
1.907281 13.250964 1.768222
1.918505 13.168928 1.712707
2.157819 12.895857 1.173070
2.123170 12.703753 1.341488
2.076117 12.738006 1.433871
2.126960 12.815228 1.294106
2.204783 12.983377 1.027039
2.115137 12.795345 1.308951
2.296451 12.604031 0.813521
1.897141 12.895007 1.870456
1.892111 13.032113 1.847033
1.849249 12.910851 1.965632
2.166133 12.951968 1.180253
1.908618 12.969035 1.844069
2.137841 12.783177 1.259725
1.917402 13.065154 1.791410
1.971516 13.130536 1.607232
1.927667 12.986021 1.742507
2.154061 12.716939 1.219968
2.139482 12.672033 1.332136
1.940338 13.177026 1.733952
2.104193 12.613766 1.347652
2.204149 12.799478 1.082314
1.907834 12.734977 1.885187
1.899167 12.863480 1.869683
1.863047 12.768653 1.986025
1.710915 13.271056 2.235530
1.918583 12.806068 1.862094
2.164644 12.771213 1.227830
2.144204 12.632340 1.300507
1.926157 12.889587 1.813104
1.974970 12.936882 1.640147
1.934995 12.817371 1.770047
1.947516 12.994685 1.760190
2.187472 12.602005 1.132274
1.903455 12.702542 1.890084
1.933129 12.725537 1.833743
2.141148 12.565242 1.268720
1.979841 12.759478 1.672675
1.927442 12.628592 1.789712
1.953761 12.820401 1.784894
1.959207 12.661453 1.809739
