# .PCD v0.7 - Point Cloud Data file format
VERSION 0.7
FIELDS x y z
SIZE 4 4 4
TYPE F F F
COUNT 1 1 1
WIDTH 14
HEIGHT 1
VIEWPOINT 0 0 0 1
POINTS 14
DATA ascii
-16.459345 35.527504 -4.114392
-16.466602 35.599617 -4.120688
-16.469416 35.667202 -4.144076
-16.589502 35.943539 -4.111955
-16.439091 35.724209 -4.049488
-16.510040 35.894569 -4.075900
-16.367035 35.596951 -4.019409
-16.487000 35.929615 -4.070165
-16.375565 35.673615 -4.016526
-16.414843 35.813160 -4.042941
-16.387997 35.755554 -4.028990
-16.389040 35.848007 -4.033606
-16.459501 36.064030 -4.058977
-16.396278 35.926083 -4.026694
