# .PCD v0.7 - Point Cloud Data file format
VERSION 0.7
FIELDS x y z
SIZE 4 4 4
TYPE F F F
COUNT 1 1 1
WIDTH 23
HEIGHT 1
VIEWPOINT 0 0 0 1
POINTS 23
DATA ascii
-17.292400 32.992020 -7.590963
-17.285097 33.007000 -7.608045
-17.410334 32.983139 -7.611719
-17.374014 32.987747 -7.580543
-17.312923 33.022854 -7.601186
-17.442476 32.979149 -7.326162
-17.374952 32.983540 -7.228724
-17.431425 33.014492 -7.505784
-17.444187 32.955879 -7.000793
-17.345901 33.026543 -7.361396
-17.326326 33.057209 -7.422509
-17.464842 33.055496 -7.418105
-17.317112 33.092239 -7.593291
-17.566122 33.101616 -7.707181
-17.488766 33.104095 -7.644995
-17.513485 33.012001 -7.060406
-17.537937 33.018402 -6.999660
-17.591181 32.997841 -6.793780
-17.383987 33.080307 -7.212757
-17.556061 33.031033 -6.940387
-17.576651 33.028332 -6.901682
-17.483496 33.016144 -6.862190
-17.447123 33.054390 -6.979611
