# .PCD v0.7 - Point Cloud Data file format
VERSION 0.7
FIELDS x y z
SIZE 4 4 4
TYPE F F F
COUNT 1 1 1
WIDTH 198
HEIGHT 1
VIEWPOINT 0 0 0 1
POINTS 198
DATA ascii
-10.703937 31.225126 -2.666563
-10.665301 31.215799 -2.692721
-10.708711 31.197845 -2.736874
-10.741896 31.201567 -2.711592
-10.549616 31.212811 -2.976975
-10.757962 31.191483 -2.785532
-10.638024 31.203833 -2.753311
-10.567218 31.209352 -2.999873
-10.781849 31.181526 -2.757379
-10.440468 31.211483 -3.185779
-10.753014 31.195629 -2.694449
-10.593037 31.194841 -3.021129
-10.546229 31.205708 -2.949131
-10.804054 31.183065 -2.832230
-10.471346 31.207243 -3.197261
-10.689326 31.194700 -2.801557
-10.616868 31.198784 -3.044627
-10.493329 31.210073 -3.016270
-10.831464 31.179079 -2.810559
-10.407256 31.209824 -3.298246
-10.404121 31.209604 -3.303549
-10.486764 31.195751 -3.229085
-10.800575 31.185530 -2.745151
-10.646808 31.190075 -3.071579
-10.611681 31.206261 -2.814119
-10.755979 31.205774 -2.684290
-10.848175 31.172262 -2.875393
-10.596484 31.195887 -2.996727
-10.521910 31.197449 -3.241266
-10.739178 31.188158 -2.849425
-10.527732 31.208708 -2.924285
-10.663357 31.186165 -3.087420
-10.545369 31.199751 -3.061505
-10.871306 31.161186 -2.855795
-10.459321 31.200642 -3.340710
-10.456337 31.200321 -3.347416
-10.539011 31.188532 -3.273804
-10.843746 31.170731 -2.790968
-10.471004 31.201090 -3.201980
-10.689067 31.173573 -3.114520
-10.664644 31.197634 -2.862217
-10.471228 31.215212 -3.079684
-10.799121 31.188917 -2.729245
-10.891565 31.161720 -2.917926
-10.452227 31.200212 -3.250226
-10.646294 31.185207 -3.042865
-10.569600 31.184486 -3.282469
-10.788244 31.177750 -2.894944
-10.713842 31.180592 -3.131716
-10.582811 31.201441 -2.973686
-10.596531 31.189787 -3.104701
-10.911951 31.146233 -2.899718
-10.397857 31.204393 -3.335337
-10.412485 31.204094 -3.327380
-10.510378 31.192833 -3.383362
-10.503440 31.187521 -3.389405
-10.436310 31.209377 -3.177749
-10.584464 31.175215 -3.315925
-10.890041 31.164261 -2.839908
-10.523230 31.191801 -3.245827
-10.735636 31.165066 -3.159010
-10.590748 31.206720 -2.880632
-10.722662 31.196733 -2.912484
-10.525218 31.204279 -3.123941
-10.933910 31.150490 -2.959802
-10.846245 31.177956 -2.778488
-10.505643 31.190590 -3.292500
-10.831892 31.164026 -2.935791
-10.692323 31.170580 -3.086967
-10.756754 31.167128 -3.171949
-10.619605 31.175991 -3.324466
-10.637011 31.194534 -3.021063
-10.646024 31.177238 -3.147169
-10.450963 31.193819 -3.377575
-10.567956 31.205280 -2.951364
-10.462544 31.189312 -3.368204
-10.556713 31.178228 -3.423873
-10.550398 31.174812 -3.429988
-10.489530 31.196644 -3.220530
-10.634812 31.169727 -3.358817
-10.930200 31.146391 -2.881530
-10.569989 31.175987 -3.286917
-10.433581 31.205584 -3.304723
-10.781898 31.155603 -3.203462
-10.766682 31.177668 -2.952193
-10.644722 31.194639 -2.927657
-10.387294 31.211765 -3.377730
-10.444681 31.208086 -3.144807
-10.579688 31.195337 -3.166866
-10.891587 31.167723 -2.823688
-10.553905 31.175386 -3.332052
-10.417543 31.207960 -3.354348
-10.799207 31.152809 -3.210739
-10.880139 31.158096 -2.981003
-10.668438 31.168974 -3.365264
-10.742191 31.163099 -3.131187
-10.696650 31.170641 -3.189235
-10.684228 31.179571 -3.063591
-10.502557 31.181707 -3.417720
-10.514168 31.179264 -3.409207
-10.621351 31.194510 -2.996405
-10.605517 31.169144 -3.463813
-10.844802 31.179287 -2.761720
-10.595709 31.161583 -3.470703
-10.458596 31.204760 -3.196620
-10.545995 31.191221 -3.264216
-10.678786 31.156931 -3.399701
-10.618907 31.164740 -3.327400
-10.490614 31.197929 -3.346764
-10.834649 31.160776 -3.249727
-10.361960 31.215445 -3.338656
-10.816548 31.170187 -2.996412
-10.439761 31.198372 -3.416264
-10.700111 31.187391 -2.973458
-10.629629 31.182713 -3.207142
-10.506984 31.203844 -3.190111
-10.932027 31.148733 -2.864484
-10.614721 31.181175 -3.375386
-10.470040 31.196630 -3.393741
-10.922590 31.143778 -3.019790
-10.711640 31.154377 -3.404672
-10.793062 31.162584 -3.177233
-10.747593 31.164984 -3.231337
-10.734690 31.171921 -3.107023
-10.556965 31.178127 -3.458189
-10.675255 31.187792 -3.040973
-10.565052 31.169474 -3.449592
-10.651933 31.159801 -3.503268
-10.891793 31.169565 -2.806784
-10.644115 31.155769 -3.510920
-10.593202 31.175333 -3.303113
-10.513782 31.193478 -3.239301
-10.725664 31.148438 -3.440595
-10.416728 31.208155 -3.362411
-10.674463 31.168028 -3.371098
-10.375769 31.212166 -3.418305
-10.539010 31.181705 -3.384088
-10.881309 31.157526 -3.293162
-10.419243 31.204609 -3.379014
-10.864591 31.160221 -3.038500
-10.492858 31.186869 -3.454870
-10.679142 31.171297 -3.246835
-10.754794 31.182465 -3.019501
-10.562334 31.193609 -3.231424
-10.661222 31.167606 -3.414525
-10.519494 31.181084 -3.431718
-10.828451 31.134930 -3.212223
-10.789244 31.146795 -3.267790
-10.783939 31.162531 -3.151169
-10.602692 31.162760 -3.495852
-10.620715 31.169680 -3.490205
-10.723069 31.172651 -3.082710
-10.932826 31.150404 -2.846792
-10.644085 31.165541 -3.343496
-10.570383 31.187031 -3.280758
-10.470223 31.193373 -3.400736
-10.712592 31.143625 -3.407466
-10.423166 31.188967 -3.453801
-10.594133 31.175787 -3.424313
-10.475637 31.194134 -3.417350
-10.545215 31.175625 -3.492857
-10.730028 31.161503 -3.287217
-10.613153 31.179695 -3.270087
-10.801839 31.165524 -3.059761
-10.701477 31.145716 -3.449429
-10.571569 31.170956 -3.470528
-10.892263 31.160469 -3.263809
-10.824993 31.144508 -3.188406
-10.653941 31.157120 -3.534359
-10.663426 31.152159 -3.527311
-10.774755 31.166719 -3.125426
-11.062302 31.167431 -2.830316
-10.619091 31.171747 -3.318115
-10.694543 31.156956 -3.383297
-10.525284 31.183325 -3.439241
-10.641362 31.161030 -3.460436
-10.481720 31.183060 -3.491530
-10.526592 31.179195 -3.453787
-10.596119 31.166971 -3.530468
-10.775637 31.148296 -3.324332
-10.848305 31.149893 -3.098035
-10.668738 31.174620 -3.311749
-10.619261 31.157043 -3.508090
-10.818484 31.147825 -3.162321
-10.738471 31.141165 -3.419685
-10.674529 31.166771 -3.358373
-10.578086 31.172009 -3.475035
-10.690901 31.150742 -3.497356
-10.536635 31.173105 -3.528631
-10.578489 31.167095 -3.490330
-10.641357 31.148678 -3.565828
-10.720697 31.166647 -3.350012
-10.718082 31.145903 -3.393004
-10.630299 31.160851 -3.511614
-10.590068 31.163675 -3.564496
-10.631952 31.159729 -3.527055
-10.766248 31.149303 -3.385404
-10.677382 31.146177 -3.546329
