# .PCD v0.7 - Point Cloud Data file format
VERSION 0.7
FIELDS x y z
SIZE 4 4 4
TYPE F F F
COUNT 1 1 1
WIDTH 583
HEIGHT 1
VIEWPOINT 0 0 0 1
POINTS 583
DATA ascii
-1.522577 6.546285 1.014712
-1.497191 6.544312 0.880212
-1.524797 6.591453 1.009205
-1.592710 6.566159 1.132154
-1.528045 6.538648 1.010726
-1.500883 6.587780 0.871090
-1.574020 6.599564 1.124342
-1.539033 6.645627 1.004469
-1.422111 6.548542 0.718597
-1.522689 6.580321 1.004561
-1.613803 6.745532 1.160936
-1.390765 6.532000 0.603188
-1.573628 6.552691 1.087710
-1.574054 6.641976 1.117537
-1.523686 6.532987 1.005987
-1.427111 6.598608 0.709478
-1.608841 6.785727 1.156410
-1.475003 6.662227 0.858273
-1.536569 6.632277 0.997367
-1.400905 6.582384 0.587712
-1.482642 6.576897 0.827468
-1.564763 6.591422 1.079799
-1.564686 6.680339 1.111238
-1.531704 6.736493 0.996683
-1.428789 6.546577 0.717482
-1.523728 6.576308 0.998769
-1.428954 6.647932 0.701063
-1.498393 6.720914 0.846875
-1.614569 6.834740 1.152201
-1.332216 6.565351 0.438311
-1.517307 6.667140 0.992785
-1.552503 6.540978 1.037477
-1.468383 6.614851 0.820189
-1.559498 6.634011 1.070757
-1.595062 6.742221 1.104550
-1.539642 6.791009 0.992520
-1.430695 6.594064 0.707446
-1.528687 6.622746 0.991290
-1.426730 6.696700 0.693728
-1.303270 6.573465 0.340821
-1.618457 6.882277 1.149565
-1.493048 6.764363 0.839865
-1.463366 6.561532 0.788756
-1.377178 6.562433 0.548456
-1.328331 6.613518 0.427253
-1.367407 6.657849 0.574620
-1.523972 6.718720 0.986962
-1.465787 6.659592 0.811230
-1.555319 6.588346 1.027056
-1.522386 6.565394 0.985185
-1.428294 6.546957 0.716520
-1.592798 6.787373 1.098855
-1.541237 6.669609 1.062932
-1.543076 6.842762 0.989434
-1.424461 6.639534 0.699990
-1.250809 6.564478 0.200121
-1.520670 6.664032 0.984198
-1.304460 6.623794 0.325024
-1.414591 6.740146 0.688930
-1.621945 6.931272 1.145265
-1.240227 6.563639 0.129891
-1.496211 6.813860 0.831885
-1.448705 6.600948 0.779816
-1.362933 6.602179 0.540349
-1.393755 6.722322 0.554298
-1.331660 6.569420 0.438130
-1.328953 6.665341 0.414690
-1.534217 6.772306 0.980836
-1.457360 6.701387 0.802895
-1.525597 6.611275 0.976417
-1.594114 6.834533 1.092858
-1.431116 6.595175 0.705687
-1.580620 6.737911 1.053650
-1.538452 6.892493 0.986478
-1.423635 6.687558 0.691068
-1.286811 6.551972 0.298568
-1.247032 6.615342 0.185372
-1.364175 6.545715 0.509573
-1.451046 6.553433 0.742084
-1.278899 6.658926 0.321040
-1.522905 6.711929 0.977418
-1.628948 6.984120 1.142284
-1.498473 6.864450 0.823861
-1.197242 6.575089 0.010239
-1.428984 6.802470 0.677996
-1.247450 6.530479 0.208663
-1.426272 6.543024 0.708594
-1.153787 6.541595 -0.089130
-1.187799 6.573454 -0.027668
-1.333658 6.531516 0.448122
-1.395285 6.773960 0.541348
-1.157490 6.547695 -0.080458
-1.359536 6.649800 0.528074
-1.462792 6.657428 0.765641
-1.330527 6.619780 0.424696
-1.315494 6.709474 0.409028
-1.534567 6.822402 0.976421
-1.476299 6.762814 0.790080
-1.519406 6.653104 0.968156
-1.594946 6.883160 1.087647
-1.527825 6.667796 1.007990
-1.426289 6.640818 0.696230
-1.574372 6.782500 1.046586
-1.540490 6.945886 0.984545
-1.278085 6.596981 0.285311
-1.402500 6.726422 0.688020
-1.213396 6.532753 0.091015
-1.242761 6.666749 0.171821
-1.627447 7.031821 1.139848
-1.359932 6.591679 0.496054
-1.299640 6.725890 0.293966
-1.503645 6.747697 0.972407
-1.495322 6.912467 0.817290
-1.435493 6.594864 0.732687
-1.433463 6.859467 0.669598
-1.211407 6.651782 0.108713
-1.250082 6.584639 0.189220
-1.430509 6.592341 0.695354
-1.381895 6.817177 0.533648
-1.150721 6.597334 -0.112454
-1.147481 6.597045 -0.096224
-1.328930 6.578954 0.435403
-1.352059 6.695957 0.517301
-1.442222 6.694826 0.759362
-1.334664 6.777218 0.388432
-1.328907 6.671609 0.412053
-1.468719 6.807173 0.782572
-1.542514 6.878738 0.971416
-1.272573 6.528584 0.257246
-1.512302 6.695119 0.960272
-1.598874 6.935277 1.082931
-1.424139 6.689582 0.686438
-1.556077 6.733338 0.997103
-1.574376 6.831312 1.039306
-1.188440 6.551876 0.005865
-1.550561 7.007721 0.982023
-1.273464 6.647121 0.268897
-1.432719 6.797908 0.671044
-1.254938 6.731317 0.146510
-1.630382 7.084112 1.137948
-1.208876 6.584692 0.071333
-1.496195 6.965622 0.810012
-1.296781 6.778398 0.278002
-1.536731 6.816333 0.963710
-1.356128 6.640766 0.482121
-1.149940 6.532990 -0.109759
-1.157317 6.543298 -0.065034
-1.332064 6.538034 0.438927
-1.137272 6.524629 -0.130986
-1.177970 6.674554 -0.017208
-1.227833 6.718693 0.076593
-1.432953 6.915186 0.663076
-1.443346 6.649872 0.717482
-1.382945 6.871186 0.521061
-1.229460 6.625630 0.183734
-1.423005 6.635774 0.685808
-1.154927 6.663762 -0.048998
-1.137890 6.647672 -0.111591
-1.371271 6.760042 0.495895
-1.328698 6.629127 0.421580
-1.327563 6.828292 0.378850
-1.477751 6.864172 0.771873
-1.466167 6.760273 0.743415
-1.306439 6.710246 0.408550
-1.249928 6.555917 0.194990
-1.540132 6.929370 0.968111
-1.269361 6.578898 0.238830
-1.497124 6.733265 0.953339
-1.600993 6.988666 1.078535
-1.405320 6.728431 0.681013
-1.346295 6.577814 0.448970
-1.570324 6.880482 1.032681
-1.553019 6.782321 0.987659
-1.181671 6.602874 -0.013492
-1.550303 7.063858 0.981200
-1.279272 6.704746 0.247476
-1.421926 6.844270 0.665437
-1.197002 6.630765 0.057952
-1.240187 6.779797 0.138314
-1.499740 7.020959 0.802801
-1.294356 6.833090 0.262024
-1.531749 6.863841 0.958292
-1.140422 6.582695 -0.127160
-1.314738 6.667686 0.483749
-1.146463 6.591908 -0.082476
-1.183498 6.737234 -0.044384
-1.333261 6.590224 0.422280
-1.431114 6.970701 0.656085
-1.220098 6.772622 0.058806
-1.183225 6.530630 0.001201
-1.385347 6.928116 0.507680
-1.421344 6.683971 0.674796
-1.236203 6.685807 0.160697
-1.167889 6.732265 -0.084938
-1.365580 6.811310 0.484312
-1.322154 6.677827 0.409175
-1.474623 6.914933 0.764050
-1.333594 6.891805 0.363106
-1.458196 6.807000 0.733818
-1.334278 6.784013 0.382071
-1.544012 6.985130 0.964170
-1.246231 6.607688 0.177361
-1.245441 6.523454 0.197378
-1.528945 6.799861 0.942552
-1.601774 7.040939 1.074095
-1.197611 6.561590 0.021115
-1.259744 6.626834 0.224693
-1.429271 6.794766 0.664648
-1.575188 6.935148 1.026329
-1.165647 6.648399 -0.023340
-1.313518 6.612614 0.446359
-1.640639 7.196920 1.135440
-1.554394 6.835892 0.978743
-1.557226 7.125847 0.978953
-1.501056 7.077204 0.795090
-1.426907 6.902532 0.654991
-1.240962 6.839774 0.119555
-1.277355 6.760722 0.229464
-1.286016 6.884851 0.249121
-1.183836 6.680311 0.042455
-1.253136 6.555413 0.190084
-1.531693 6.915377 0.952197
-1.127756 6.632575 -0.144269
-1.142967 6.647264 -0.106654
-1.356644 6.748243 0.450767
-1.174349 6.790965 -0.060178
-1.379588 6.981200 0.497708
-1.209613 6.825263 0.042968
-1.435975 7.033543 0.648459
-1.327197 6.637455 0.409083
-1.110503 6.621474 -0.161961
-1.181956 6.585095 -0.022485
-1.399859 6.721530 0.668874
-1.242972 6.748714 0.136411
-1.162091 6.789441 -0.107580
-1.447262 6.757645 0.691541
-1.364898 6.866588 0.469605
-1.475103 6.970451 0.754682
-1.327361 6.947261 0.353514
-1.310623 6.725244 0.398639
-1.324510 6.833797 0.371986
-1.543407 7.039967 0.960479
-1.461423 6.863811 0.722499
-1.239784 6.658170 0.161682
-1.598487 7.092662 1.070734
-1.521789 6.845522 0.935432
-1.246808 6.576494 0.175422
-1.240129 6.669459 0.215546
-1.425731 6.846067 0.655581
-1.644869 7.254869 1.133932
-1.574231 6.987787 1.020187
-1.137567 6.574265 -0.137545
-1.156571 6.701219 -0.041168
-1.313393 6.665522 0.428833
-1.563600 7.191144 0.979108
-1.104733 6.553113 -0.182679
-1.500560 7.134727 0.787709
-1.546775 6.884868 0.971579
-1.270926 6.813019 0.212948
-1.239005 6.900293 0.101916
-1.430494 6.962441 0.645704
-1.286789 6.944824 0.230351
-1.175170 6.530169 -0.028199
-1.196283 6.747550 0.008536
-1.531152 6.968377 0.946887
-1.236286 6.601150 0.178156
-1.381522 7.041409 0.484278
-1.210060 6.885743 0.020514
-1.174832 6.855097 -0.084286
-1.111347 6.681367 -0.156605
-1.142242 6.706626 -0.134035
-1.436341 7.094541 0.641498
-1.102010 6.674620 -0.183852
-1.356898 6.806093 0.434440
-1.323415 6.689261 0.393886
-1.146765 6.619851 -0.020273
-1.238314 6.804302 0.119936
-1.422989 6.788959 0.650012
-1.162248 6.854095 -0.135379
-1.364140 6.922780 0.456927
-1.478272 7.029993 0.744558
-1.327492 7.009657 0.340008
-1.437486 6.806570 0.681859
-1.335784 6.796798 0.372068
-1.547236 7.099383 0.957316
-1.327871 6.896019 0.355739
-1.461483 6.918960 0.712299
-1.606799 7.152997 1.067312
-1.218765 6.701525 0.154112
-1.528486 6.901639 0.927497
-1.173926 6.563024 -0.036222
-1.238624 6.627340 0.158042
-1.265148 6.743332 0.179564
-1.169019 6.658843 -0.009130
-1.651715 7.317772 1.133702
-1.423971 6.901582 0.646133
-1.581298 7.047943 1.013863
-1.169043 6.771182 -0.076331
-1.123570 6.623956 -0.155113
-1.503153 7.194808 0.781233
-1.565980 7.254959 0.978307
-1.098141 6.605881 -0.207769
-1.337234 6.737835 0.401390
-1.549907 6.940802 0.963106
-1.286678 7.007716 0.210708
-1.241167 6.966831 0.080699
-1.273125 6.875004 0.191353
-1.428668 7.019776 0.637872
-1.194072 6.807668 -0.014828
-1.388401 7.107466 0.469344
-1.169433 6.585545 -0.052462
-1.531036 7.022655 0.941987
-1.208304 6.949870 -0.003682
-1.175842 6.922314 -0.111261
-1.229938 6.653453 0.159194
-1.441169 7.162863 0.633820
-1.103649 6.738524 -0.215676
-1.349891 6.858987 0.421563
-1.323721 6.744346 0.376355
-1.096895 6.534612 -0.176408
-1.240521 6.867188 0.097929
-1.150112 6.680691 -0.049161
-1.161503 6.919831 -0.163222
-1.120604 6.552714 -0.191631
-1.112972 6.878076 -0.217758
-1.416783 6.838970 0.640446
-1.362080 6.981523 0.442546
-1.124267 6.889496 -0.209266
-1.476446 7.087331 0.736719
-1.333506 7.080462 0.323380
-1.321028 6.845304 0.363852
-1.327564 6.956221 0.342230
-1.553680 7.163753 0.955431
-1.609726 7.213514 1.064099
-1.442146 6.866295 0.667294
-1.457067 6.974100 0.701936
-1.522188 6.950775 0.920780
-1.235634 6.772454 0.121128
-1.230446 6.679090 0.140243
-1.162675 6.614007 -0.055750
-1.252822 6.794535 0.165294
-1.177887 6.724972 -0.043174
-1.428055 6.961846 0.635219
-1.508435 7.258909 0.774002
-1.582053 7.106629 1.008954
-1.163674 6.830550 -0.098986
-1.104076 6.671086 -0.168778
-1.106247 6.672058 -0.193219
-1.581677 7.333444 0.978687
-1.286090 7.072978 0.191435
-1.093420 6.663755 -0.236100
-1.237831 7.030807 0.063385
-1.263479 6.929306 0.176741
-1.431294 7.083521 0.629737
-1.334819 6.794388 0.384564
-1.551237 6.998932 0.954547
-1.187775 6.865394 -0.036282
-1.382190 7.165647 0.458489
-1.538035 7.084633 0.937277
-1.207901 7.016909 -0.028673
-1.156352 6.635976 -0.070828
-1.174055 6.991913 -0.135497
-1.441919 7.229713 0.627636
-1.107708 6.805529 -0.213945
-1.244122 6.721277 0.126542
-1.094278 6.795485 -0.238860
-1.345147 6.914616 0.407516
-1.323542 6.800890 0.359607
-1.364954 7.045199 0.427074
-1.110915 6.945435 -0.246886
-1.093565 6.590847 -0.205905
-1.234085 6.927697 0.080120
-1.119871 6.955039 -0.235198
-1.482236 7.152723 0.727454
-1.166848 6.754835 -0.091973
-1.426359 6.901795 0.625621
-1.094688 6.595651 -0.200178
-1.332677 7.146687 0.311028
-1.622006 7.281721 1.061158
-1.323549 6.906777 0.345937
-1.557894 7.229028 0.953045
-1.325463 7.019530 0.328221
-1.460676 7.036752 0.691389
-1.437737 6.922355 0.656515
-1.525252 7.008532 0.913919
-1.234246 6.832412 0.099826
-1.240964 6.744897 0.110333
-1.513251 7.326302 0.766726
-1.253271 6.855956 0.142410
-1.156014 6.668627 -0.079233
-1.175755 6.785069 -0.068991
-1.423144 7.017521 0.626056
-1.582815 7.166218 1.003624
-1.165198 6.899954 -0.128416
-1.106712 6.735707 -0.203849
-1.105208 6.733756 -0.225131
-1.283682 7.138596 0.172907
-1.239552 7.103359 0.040874
-1.263390 6.994934 0.155847
-1.433937 7.149084 0.620768
-1.386363 7.234978 0.443425
-1.184686 6.929326 -0.060939
-1.553835 7.059997 0.947640
-1.332847 6.854046 0.367318
-1.541459 7.145498 0.932444
-1.203856 7.084673 -0.052169
-1.165916 7.056377 -0.156661
-1.446696 7.301680 0.620736
-1.108478 6.874159 -0.247479
-1.126019 6.889766 -0.212654
-1.340845 6.973351 0.393049
-1.240069 6.779958 0.104745
-1.364689 7.109962 0.411477
-1.483533 7.216271 0.718854
-1.323815 6.861457 0.342024
-1.232666 6.993122 0.058773
-1.626646 7.348276 1.059176
-1.088933 6.649624 -0.237104
-1.162913 6.817119 -0.117871
-1.418774 6.955277 0.616378
-1.333228 7.218573 0.296637
-1.095141 6.657520 -0.236532
-1.571470 7.302907 0.950515
-1.327453 7.086109 0.311878
-1.319673 6.966790 0.331885
-1.459800 7.098475 0.681093
-1.529658 7.068291 0.906677
-1.231963 6.894370 0.078064
-1.436945 6.984084 0.643773
-1.164961 6.840957 -0.089778
-1.228233 6.797545 0.094399
-1.250088 6.919019 0.120606
-1.170071 6.740562 -0.122131
-1.429431 7.083265 0.615170
-1.590692 7.233503 0.998485
-1.287665 7.213887 0.149221
-1.161224 6.966793 -0.153944
-1.104279 6.799047 -0.234601
-1.239450 7.176263 0.019108
-1.396855 7.314912 0.425236
-1.262908 7.062919 0.132874
-1.436103 7.217020 0.612167
-1.187145 7.001273 -0.091998
-1.542151 7.206910 0.928729
-1.198491 7.153148 -0.076540
-1.557786 7.123980 0.939936
-1.324961 6.910770 0.353146
-1.155014 6.759251 -0.130144
-1.118035 6.953289 -0.238299
-1.483926 7.280906 0.710208
-1.363930 7.175265 0.397079
-1.344669 7.041412 0.375120
-1.130505 7.109514 -0.230184
-1.230528 6.836992 0.086437
-1.320921 6.920361 0.325562
-1.235802 7.066765 0.033847
-1.338306 7.295928 0.279911
-1.417032 7.013509 0.605669
-1.158074 6.880486 -0.143814
-1.576060 7.373116 0.949320
-1.331249 7.159636 0.293908
-1.321241 7.033009 0.314708
-1.465195 7.166231 0.669744
-1.528660 7.126395 0.900475
-1.230133 6.960344 0.055468
-1.438821 7.047998 0.631104
-1.172075 6.914718 -0.126406
-1.246420 6.983538 0.099586
-1.428495 7.147726 0.606073
-1.226049 6.861326 0.069355
-1.149716 6.793356 -0.137924
-1.285733 7.286244 0.128608
-1.595837 7.301332 0.994464
-1.395157 7.385869 0.411166
-1.235206 7.249535 0.000453
-1.262859 7.133086 0.109895
-1.442304 7.290987 0.602435
-1.181859 7.069740 -0.118818
-1.548623 7.274915 0.925165
-1.199527 7.232205 -0.106482
-1.322519 6.973701 0.335848
-1.560341 7.189610 0.933390
-1.497301 7.359819 0.699463
-1.131716 7.189436 -0.265432
-1.155350 6.826615 -0.164106
-1.365887 7.247329 0.380680
-1.347591 7.110554 0.357145
-1.228920 7.133270 0.014738
-1.346528 7.381323 0.261599
-1.315313 6.981641 0.309389
-1.419816 7.077219 0.592623
-1.224185 6.899317 0.065339
-1.326865 7.227484 0.280177
-1.321916 7.101227 0.297070
-1.531679 7.188704 0.893971
-1.462930 7.230498 0.660185
-1.227408 7.028316 0.032410
-1.434385 7.110440 0.619851
-1.432986 7.216557 0.594680
-1.167288 6.983552 -0.154846
-1.242359 7.050412 0.076487
-1.289284 7.368454 0.103212
-1.219687 6.921811 0.049085
-1.609454 7.379786 0.989842
-1.246571 7.342499 -0.032499
-1.263271 7.208179 0.085666
-1.448038 7.368239 0.592655
-1.201526 7.316539 -0.139293
-1.554202 7.344923 0.921139
-1.177953 7.143861 -0.147678
-1.154394 7.280923 -0.235879
-1.563330 7.257426 0.926837
-1.323275 7.041922 0.315758
-1.366950 7.321390 0.363821
-1.347391 7.182611 0.338215
-1.226602 7.208904 -0.008366
-1.319224 7.050581 0.288589
-1.421215 7.143491 0.580320
-1.224306 6.970390 0.037046
-1.338331 7.314521 0.258285
-1.320787 7.171630 0.279346
-1.540912 7.259811 0.887616
-1.469637 7.305744 0.648407
-1.228800 7.102299 0.005773
-1.438891 7.181115 0.607622
-1.434272 7.288321 0.584779
-1.243760 7.125313 0.049432
-1.221635 6.993417 0.019625
-1.243722 7.423229 -0.054029
-1.145368 7.181283 -0.236110
-1.270083 7.293851 0.055862
-1.196681 7.396295 -0.167827
-1.181858 7.228731 -0.184106
-1.144461 7.357586 -0.259257
-1.573451 7.334765 0.919642
-1.318561 7.110325 0.298327
-1.348951 7.257034 0.319733
-1.235268 7.297843 -0.040578
-1.128471 6.949485 -0.210464
-1.422137 7.212135 0.568385
-1.316329 7.118605 0.270408
-1.339370 7.394964 0.240966
-1.135020 7.080007 -0.222863
-1.320509 7.244587 0.262445
-1.222103 7.041455 0.011116
-1.551014 7.335308 0.881252
-1.220612 7.171348 -0.015046
-1.442766 7.368671 0.572205
-1.445695 7.258178 0.592560
-1.243775 7.202765 0.023120
-1.136898 7.255373 -0.262688
-1.218521 7.064660 -0.005932
-1.265022 7.369103 0.034285
-1.124997 6.984106 -0.219418
-1.321555 7.187672 0.276602
-1.234353 7.381846 -0.066973
-1.350980 7.337298 0.299583
-1.121029 7.018833 -0.240238
-1.430693 7.290654 0.554190
-1.312530 7.187710 0.252181
-1.132143 7.158471 -0.256630
-1.330231 7.331971 0.238841
-1.216751 7.112685 -0.014524
-1.224335 7.255348 -0.046180
-1.242487 7.282753 -0.004896
-1.136999 7.189976 -0.233410
-1.450620 7.338355 0.579444
-1.211832 7.134780 -0.031612
-1.114398 7.052715 -0.248484
-1.329092 7.272312 0.251710
-1.436526 7.370626 0.540697
-1.317812 7.270516 0.228039
-1.214114 7.190667 -0.042167
-1.230374 7.347550 -0.080975
-1.244842 7.371130 -0.036120
-1.137866 7.278637 -0.273665
-1.217897 7.221510 -0.066367
-1.332078 7.357858 0.228684
-1.327145 7.361171 0.201933
-1.220231 7.282866 -0.079417
-1.218084 7.308957 -0.099708
-1.214912 7.366841 -0.108439
-1.213283 7.395106 -0.131181
