# .PCD v0.7 - Point Cloud Data file format
VERSION 0.7
FIELDS x y z
SIZE 4 4 4
TYPE F F F
COUNT 1 1 1
WIDTH 155
HEIGHT 1
VIEWPOINT 0 0 0 1
POINTS 155
DATA ascii
-18.974009 31.781013 -5.577588
-18.972998 31.826895 -5.556050
-18.984413 31.875788 -5.533251
-18.974272 31.802065 -5.557425
-18.982172 31.843840 -5.385812
-18.991865 31.925598 -5.509918
-18.983749 31.848755 -5.534034
-18.988831 31.885256 -5.361013
-18.965033 31.815304 -5.456643
-19.001736 31.976692 -5.484031
-18.968733 31.784481 -5.569317
-19.039854 31.798971 -5.530213
-18.993252 31.895796 -5.509278
-18.997358 31.928223 -5.334454
-18.975832 31.857840 -5.429273
-19.007395 32.026012 -5.458361
-18.922482 32.117817 -5.652482
-18.982105 31.829599 -5.544108
-18.951876 31.817904 -5.514497
-18.992727 31.940771 -5.484598
-19.003519 31.970612 -5.307715
-18.985039 31.901876 -5.401548
-18.967768 31.772354 -5.581236
-18.939386 32.170044 -5.624774
-19.020334 32.079136 -5.430119
-19.008104 31.800175 -5.593335
-18.986099 31.873388 -5.519174
-18.970615 31.864958 -5.484758
-19.012434 31.991940 -5.456658
-19.012621 32.013668 -5.278997
-18.979980 31.941719 -5.375482
-18.978128 31.816153 -5.555653
-18.952101 32.220840 -5.595917
-19.032227 32.133499 -5.400728
-18.934469 31.824348 -5.571863
-18.995510 31.919432 -5.493431
-18.976408 31.909636 -5.455708
-19.018549 32.039993 -5.429210
-19.027283 32.060680 -5.247727
-19.004051 31.990395 -5.342574
-18.991407 31.860275 -5.529457
-18.960178 32.271481 -5.567693
-19.012079 31.967930 -5.465493
-19.042425 32.188366 -5.369991
-18.921627 32.185516 -5.659784
-18.944508 31.871143 -5.541233
-18.988712 31.956032 -5.424264
-19.027014 32.102413 -5.219286
-19.028902 32.090187 -5.400178
-19.010941 32.034561 -5.311938
-18.991640 31.901018 -5.502958
-18.968306 32.322815 -5.536737
-19.022190 32.015415 -5.437216
-19.061073 32.247162 -5.337453
-18.939363 32.240524 -5.629170
-18.960516 31.919926 -5.508999
-18.990896 32.472832 -5.683083
-18.995089 32.000805 -5.393054
-19.038740 32.141006 -5.370571
-19.004747 32.074654 -5.283734
-19.000338 31.945681 -5.474660
-18.979605 32.377182 -5.504414
-19.134283 32.295975 -5.694400
-19.028765 32.062210 -5.407986
-18.948175 32.292934 -5.597050
-19.066687 32.302582 -5.304616
-18.978264 31.968920 -5.475383
-19.006248 32.539642 -5.651853
-19.008091 32.048649 -5.359077
-19.044506 32.191746 -5.339443
-19.012598 31.991404 -5.445952
-19.026096 32.125435 -5.246965
-18.986204 32.414711 -5.676523
-18.998148 32.435017 -5.470887
-18.934479 32.257389 -5.672667
-19.046703 32.113243 -5.376347
-18.956984 32.345360 -5.564933
-18.980829 32.317051 -5.708392
-19.081940 32.362400 -5.269387
-19.019379 32.607578 -5.618702
-18.970522 32.011189 -5.444096
-19.013962 32.094406 -5.325932
-19.059271 32.246147 -5.305722
-19.023060 32.036629 -5.414907
-19.041485 32.174244 -5.211799
-19.013983 32.484516 -5.644033
-19.000515 32.486794 -5.437064
-19.053297 32.160404 -5.345755
-18.948305 32.314018 -5.638793
-18.972647 32.403214 -5.530660
-18.991810 32.374031 -5.677486
-19.102772 32.426529 -5.230237
-18.987247 32.061775 -5.407968
-19.021055 32.140980 -5.290827
-19.071793 32.301327 -5.271448
-19.036018 32.083794 -5.383666
-19.045010 32.219784 -5.177108
-19.016338 32.546719 -5.399677
-19.020592 32.544403 -5.611639
-19.048023 32.204300 -5.315639
-18.958466 32.368603 -5.604344
-18.978588 32.456036 -5.496426
-19.004637 32.432224 -5.646185
-19.108700 32.485725 -5.192554
-19.005844 32.113918 -5.370078
-19.095179 32.361713 -5.232818
-19.028301 32.189255 -5.253982
-19.045435 32.130260 -5.351474
-19.867825 32.627499 -4.919259
-18.987642 32.333961 -5.677773
-19.028074 32.606224 -5.362132
-19.021942 32.603745 -5.578316
-19.069202 32.259418 -5.278537
-18.971794 32.426216 -5.568532
-18.991930 32.514015 -5.459242
-19.015894 32.492271 -5.613163
-19.354731 32.675594 -5.090900
-19.008232 32.159668 -5.333255
-19.045876 32.173443 -5.320509
-19.043896 32.240459 -5.214346
-19.089804 32.410995 -5.198267
-19.000900 32.390530 -5.646061
-19.049051 32.672092 -5.321239
-19.073603 32.308064 -5.244661
-19.015165 32.579098 -5.418911
-18.974350 32.480026 -5.531609
-19.025978 32.552212 -5.579369
-18.942669 32.392303 -5.642975
-19.051754 32.219227 -5.287368
-19.021593 32.211624 -5.293069
-19.051165 32.289108 -5.176136
-19.340843 32.591984 -5.098043
-19.005108 32.443153 -5.613219
-19.092661 32.365318 -5.206630
-19.022747 32.637508 -5.378857
-19.001287 32.547497 -5.490493
-19.039900 32.616261 -5.543042
-18.949472 32.448238 -5.604474
-19.082363 32.276379 -5.247262
-19.016695 32.500584 -5.578795
-19.031935 32.262272 -5.252508
-19.916555 32.820728 -4.959744
-19.007683 32.605434 -5.451038
-18.972858 32.514641 -5.563780
-19.028957 32.559109 -5.543204
-19.034527 32.310440 -5.211214
-19.025692 32.670322 -5.408416
-18.985994 32.576637 -5.522550
-19.043312 32.621548 -5.506467
-19.421824 33.067429 -5.167201
-19.273676 32.941753 -5.396500
-19.011520 32.647667 -5.477976
-19.303970 33.027412 -5.347732
-19.286753 32.945473 -5.349454
-19.693913 33.282486 -5.229576
