# .PCD v0.7 - Point Cloud Data file format
VERSION 0.7
FIELDS x y z
SIZE 4 4 4
TYPE F F F
COUNT 1 1 1
WIDTH 115
HEIGHT 1
VIEWPOINT 0 0 0 1
POINTS 115
DATA ascii
-17.662043 31.808580 -6.969687
-17.745481 31.803656 -6.823122
-17.657383 31.867399 -6.979592
-17.679314 31.844038 -6.863935
-17.667091 31.868847 -6.950716
-17.675415 31.822752 -6.904276
-17.728752 31.862072 -6.789638
-17.689997 31.818256 -6.868064
-17.665350 31.926170 -6.963110
-18.245516 31.792561 -6.678328
-17.686693 31.902029 -6.847284
-17.793249 31.853447 -6.673784
-17.672703 31.927200 -6.932732
-17.777136 31.812361 -6.730640
-18.525133 31.804249 -6.732852
-17.834927 31.804686 -6.668853
-17.685204 31.880522 -6.891876
-17.703178 31.858688 -6.800619
-17.748541 31.921272 -6.782469
-17.700340 31.875778 -6.854870
-17.668577 31.984425 -6.942254
-18.348587 31.862453 -6.710513
-17.695257 31.960232 -6.831393
-17.683064 31.986069 -6.919138
-17.811243 31.911983 -6.664322
-17.742786 31.821875 -6.771711
-17.777475 31.868780 -6.710858
-17.695312 31.841637 -6.818061
-17.727251 31.833101 -6.786339
-18.562628 31.877365 -6.728665
-17.817095 31.860586 -6.639153
-18.576323 31.797083 -6.720418
-17.687891 31.937357 -6.873594
-17.709442 31.915829 -6.785973
-17.760677 31.979786 -6.770216
-17.705368 31.931686 -6.838497
-18.524492 31.814651 -6.710448
-17.836540 31.816673 -6.619823
-17.826868 31.827774 -6.661154
-18.977499 32.207443 -8.003640
-18.454069 31.936823 -6.742999
-17.705032 32.018322 -6.817635
-17.824545 31.969364 -6.653229
-19.123297 32.225723 -8.063870
-17.742601 31.878220 -6.754099
-17.698641 31.897259 -6.803108
-17.799009 31.926277 -6.705431
-17.735271 31.889887 -6.773025
-18.601856 31.950451 -6.724440
-19.165859 31.776249 -7.395505
-17.823950 31.917166 -6.625095
-18.608576 31.869291 -6.715397
-17.699446 31.994768 -6.862538
-17.728060 31.973152 -6.779837
-18.620022 31.795048 -6.704967
-17.758194 31.835867 -6.717802
-17.715769 31.990236 -6.826289
-18.559586 31.886324 -6.703794
-17.734859 31.854708 -6.759821
-17.776411 31.844082 -6.721601
-17.825829 31.871843 -6.597792
-17.840147 31.883808 -6.650464
-19.062256 32.316711 -8.036159
-19.547226 32.095119 -7.285860
-17.822517 32.025688 -6.630588
-17.846565 31.821854 -6.590029
-17.740061 31.934145 -6.734989
-17.716105 31.954050 -6.797594
-17.808821 31.984055 -6.693057
-17.748020 31.945841 -6.764502
-17.871830 31.836651 -6.591650
-19.502478 32.094009 -7.138463
-17.837286 31.974224 -6.615384
-18.666519 31.845890 -6.666219
-18.644318 31.941105 -6.711668
-18.648792 31.865984 -6.700442
-17.772757 31.890820 -6.713358
-17.747332 32.032280 -6.774854
-18.596460 31.958988 -6.698073
-17.744722 31.910170 -6.751963
-17.782084 31.898783 -6.708564
-17.843887 31.928070 -6.592867
-17.845825 31.940180 -6.635658
-17.858198 31.876961 -6.583510
-17.762854 31.990889 -6.734444
-17.730082 32.011242 -6.790800
-17.761345 32.002899 -6.754786
-17.881002 31.890959 -6.579907
-19.475731 32.184402 -7.093273
-17.836521 32.029797 -6.597620
-18.713331 31.918962 -6.664757
-18.681000 31.853306 -6.697906
-19.499569 32.078239 -7.097587
-18.676405 31.938063 -6.694769
-17.779110 31.947002 -6.702847
-17.755743 31.966164 -6.743491
-19.515066 32.106316 -7.113466
-17.798956 31.954800 -6.702885
-17.867844 31.985352 -6.591710
-17.862648 31.996845 -6.627237
-17.866322 31.932789 -6.574337
-17.906641 31.947176 -6.577737
-19.643147 32.049488 -7.059292
-18.700481 31.925650 -6.690286
-19.468824 32.167286 -7.055059
-19.505079 32.071438 -7.062258
-17.792521 32.003098 -6.697260
-17.766214 32.022408 -6.735820
-17.811159 32.011009 -6.695172
-17.883858 31.988949 -6.571591
-17.927586 32.003906 -6.572160
-19.545643 32.132484 -6.986167
-19.524307 32.053070 -7.055073
-19.477932 32.160473 -7.024737
-19.479702 32.141075 -7.013299
