# .PCD v0.7 - Point Cloud Data file format
VERSION 0.7
FIELDS x y z
SIZE 4 4 4
TYPE F F F
COUNT 1 1 1
WIDTH 131
HEIGHT 1
VIEWPOINT 0 0 0 1
POINTS 131
DATA ascii
-19.107658 32.482334 -7.599763
-19.017239 32.537331 -7.675768
-19.182659 32.452972 -7.390931
-19.089846 32.468079 -7.656044
-19.063837 32.496422 -7.722158
-18.658987 32.473755 -7.265069
-18.603909 32.525818 -7.347640
-18.927078 32.488449 -7.206592
-18.583094 32.571644 -7.467187
-19.156267 32.475090 -7.462669
-19.198492 32.454884 -7.343774
-18.780418 32.489071 -7.411213
-18.573513 32.486885 -7.409052
-18.608107 32.481758 -7.364316
-18.874617 32.610035 -7.376215
-19.114374 32.488113 -7.571641
-18.608639 32.607273 -7.320734
-19.026449 32.514469 -7.635616
-18.726749 32.524986 -7.057690
-18.972010 32.477066 -7.501458
-18.708241 32.465809 -7.152427
-18.873606 32.475407 -7.126015
-18.846182 32.590885 -7.427875
-18.711653 32.587975 -7.409573
-19.216900 32.465744 -7.299380
-19.212002 32.483078 -7.342104
-18.657127 32.474762 -7.242413
-18.602844 32.500923 -7.312195
-18.643831 32.487698 -7.253051
-18.918285 32.597324 -7.252416
-19.046160 32.482376 -7.450968
-18.886194 32.486473 -7.425404
-18.958071 32.469440 -7.357470
-18.644165 32.620617 -7.263561
-19.248629 32.471394 -7.284665
-18.871098 32.608421 -7.359548
-17.789524 32.538445 -6.835565
-18.759745 32.597118 -7.304655
-17.869883 32.521812 -6.759573
-18.178949 32.523033 -6.689760
-17.810547 32.543278 -6.816000
-18.685087 32.522861 -7.268425
-18.675129 32.487923 -7.154289
-18.311237 32.517826 -6.758100
-17.888117 32.535950 -6.661101
-17.760845 32.587963 -6.791547
-17.832386 32.568760 -6.711492
-18.541851 32.499836 -6.798144
-17.771820 32.588985 -6.766192
-18.171343 32.516987 -6.656304
-17.811844 32.538986 -6.766801
-17.895420 32.529892 -6.720851
-18.356560 32.505703 -6.748171
-18.302666 32.503384 -6.742896
-17.842838 32.537384 -6.736054
-18.191469 32.548851 -6.667942
-17.900373 32.601562 -6.645521
-18.536816 32.481010 -6.790532
-17.761845 32.648197 -6.769821
-18.520634 32.564915 -6.762057
-18.235987 32.673534 -6.672719
-17.842886 32.633057 -6.696355
-17.952162 32.535042 -6.599128
-17.790035 32.656349 -6.756713
-18.247385 32.606434 -6.676360
-17.874594 32.582546 -6.687589
-18.262882 32.545792 -6.677067
-17.801067 32.595451 -6.739329
-18.204735 32.540333 -6.666045
-18.333944 32.497471 -6.718794
-17.839731 32.595890 -6.713272
-18.302265 32.650196 -6.704664
-17.920950 32.671028 -6.635779
-18.556858 32.556465 -6.778605
-17.898676 32.535748 -6.671119
-17.844540 32.550571 -6.710600
-17.887362 32.544224 -6.671946
-18.548901 32.643837 -6.752252
-17.811569 32.729652 -6.784125
-17.868795 32.703823 -6.691167
-18.002836 32.613247 -6.607567
-17.826660 32.732410 -6.759832
-17.918982 32.515003 -6.711782
-18.340164 32.637829 -6.698455
-17.882214 32.646355 -6.673122
-17.829981 32.666767 -6.738568
-18.301395 32.635807 -6.697300
-18.332880 32.564827 -6.700996
-17.857975 32.662941 -6.705173
-18.604019 32.641449 -6.780040
-17.934988 32.737640 -6.621133
-17.884426 32.590942 -6.644142
-17.849806 32.612286 -6.696403
-17.891401 32.604702 -6.656027
-18.873415 33.215832 -7.308914
-17.896921 32.537800 -6.632897
-18.061192 32.696522 -6.618521
-18.690445 33.201012 -7.327206
-18.685713 32.665581 -6.717505
-17.876961 32.560539 -6.668525
-17.922039 32.544689 -6.613029
-17.885679 32.709080 -6.654855
-17.848869 32.735626 -6.731616
-18.413809 32.659225 -6.727966
-17.879797 32.733326 -6.698531
-17.904501 32.658344 -6.639722
-18.847237 33.213280 -7.133356
-17.876390 32.682865 -6.695518
-17.912004 32.672180 -6.649439
-17.911112 32.602474 -6.626493
-18.726591 33.236843 -7.184279
-17.888193 32.624016 -6.660439
-17.946205 32.612473 -6.610076
-18.875566 33.213905 -7.245915
-18.708031 33.200214 -7.280826
-18.741787 33.191181 -7.227929
-17.908045 32.721775 -6.623805
-17.872240 32.742901 -6.675311
-17.907230 32.731762 -6.627686
-17.923019 32.669109 -6.619159
-17.895868 32.687187 -6.648726
-17.959770 32.678368 -6.600355
-18.746691 33.242901 -7.138781
-18.895144 33.227638 -7.196421
-18.727701 33.203590 -7.196913
-18.786627 33.192467 -7.135755
-17.936081 32.736279 -6.611207
-18.958311 33.213276 -7.285034
-19.014217 33.182823 -7.188823
-18.870817 33.219563 -7.143283
-18.754385 33.210392 -7.136894
