# .PCD v0.7 - Point Cloud Data file format
VERSION 0.7
FIELDS x y z
SIZE 4 4 4
TYPE F F F
COUNT 1 1 1
WIDTH 17
HEIGHT 1
VIEWPOINT 0 0 0 1
POINTS 17
DATA ascii
-19.317427 30.806896 -5.122844
-19.283318 30.807833 -5.092786
-19.261789 30.831402 -5.040591
-19.270031 30.567448 -5.055808
-19.269144 30.707043 -5.110191
-19.431581 30.871765 -4.691495
-19.239109 30.706490 -5.081213
-19.274824 30.519232 -5.079023
-19.414530 30.895472 -4.629819
-19.347530 30.961916 -4.799310
-19.479147 30.872484 -4.651261
-19.241335 30.602705 -5.139447
-19.222628 30.613796 -5.100227
-19.386677 30.950996 -4.721510
-19.289183 30.608559 -5.052066
-19.258646 30.594549 -5.036159
-19.456654 30.964119 -4.600783
