# .PCD v0.7 - Point Cloud Data file format
VERSION 0.7
FIELDS x y z
SIZE 4 4 4
TYPE F F F
COUNT 1 1 1
WIDTH 111
HEIGHT 1
VIEWPOINT 0 0 0 1
POINTS 111
DATA ascii
-18.342411 31.270489 -4.541513
-18.330944 31.282282 -4.517878
-18.366955 31.355961 -4.526001
-18.346104 31.368406 -4.551660
-18.338297 31.301325 -4.546511
-18.402418 31.346905 -4.521593
-18.341608 31.304993 -4.474812
-18.324911 31.354443 -4.524707
-18.348875 31.364311 -4.541119
-18.354742 31.392649 -4.510497
-18.338417 31.321568 -4.513683
-18.410822 31.396797 -4.518157
-18.331062 31.335241 -4.547259
-20.214420 32.227608 -2.760199
-18.344131 31.424414 -4.544342
-18.384726 31.392651 -4.533860
-18.332493 31.377504 -4.520068
-18.337059 31.380095 -4.476637
-18.364103 31.417974 -4.468183
-18.343399 31.385105 -4.540152
-18.352657 31.348864 -4.467584
-18.348354 31.367002 -4.500299
-18.389956 31.594372 -4.522947
-18.354767 31.466261 -4.554820
-20.140074 32.231071 -2.746931
-18.359005 31.455793 -4.497239
-18.332548 31.390989 -4.543482
-19.708050 32.184921 -3.237391
-18.341908 31.403603 -4.475052
-20.037638 32.316154 -2.905431
-18.335443 31.417063 -4.549790
-18.337173 31.404997 -4.510849
-21.034779 32.745548 -2.030061
-18.374302 31.657476 -4.534311
-18.361975 31.587877 -4.543145
-18.381273 31.532942 -4.550685
-20.036407 32.283798 -2.986779
-18.428032 31.620901 -4.518895
-18.329189 31.580227 -4.530275
-18.358442 31.495275 -4.515042
-18.786671 31.731735 -4.086856
-19.642893 32.187279 -3.225302
-18.350004 31.427492 -4.494985
-19.934856 32.311558 -3.006011
-19.947891 32.309010 -2.902149
-20.953190 32.761578 -2.000601
-18.340317 31.446077 -4.510758
-18.336048 31.428633 -4.476067
-18.417622 31.715469 -4.457735
-18.422539 31.644569 -4.523122
-19.945551 32.285957 -2.990658
-18.343256 31.602274 -4.516531
-18.372787 31.712744 -4.547265
-18.342474 31.593309 -4.548546
-18.350502 31.545692 -4.536760
-18.336189 31.610519 -4.479849
-19.278984 32.091537 -3.684223
-18.745621 31.738853 -4.073391
-19.680853 32.217468 -3.287358
-19.858803 32.314903 -2.994147
-18.460690 31.989740 -4.520249
-18.347845 31.477652 -4.468818
-19.666626 32.220371 -3.239464
-18.828552 32.049812 -4.058605
-18.343483 31.622080 -4.547703
-19.869312 32.294491 -2.981801
-18.475586 31.823658 -4.418351
-18.344381 31.631136 -4.471527
-18.345203 31.624487 -4.504975
-18.373264 31.591883 -4.477182
-19.441813 32.419781 -3.432180
-18.372147 31.768097 -4.552144
-19.161594 32.063599 -3.722393
-18.446754 31.987143 -4.523301
-19.583412 32.212536 -3.303054
-18.373007 31.952398 -4.535950
-18.755157 31.752346 -4.064591
-19.603809 32.230694 -3.222389
-18.809126 32.073540 -4.018537
-18.425690 32.098061 -4.527240
-18.347324 31.656263 -4.505022
-19.492823 32.660641 -3.490189
-19.470709 32.469402 -3.408374
-18.343357 31.652052 -4.464707
-19.464077 32.367802 -3.473442
-18.404377 31.831854 -4.480154
-18.383184 31.851171 -4.542487
-18.353519 31.942961 -4.546491
-18.418341 31.980942 -4.529599
-18.357718 31.976624 -4.494581
-18.774439 32.490788 -4.188352
-19.476915 32.520882 -3.470418
-19.430885 32.671474 -3.463659
-18.429380 32.180511 -4.525465
-19.417616 32.473133 -3.442522
-19.419125 32.394909 -3.437161
-20.280935 33.433002 -2.807168
-18.396915 31.988157 -4.540598
-18.366003 31.994667 -4.484750
-18.352449 31.961527 -4.533080
-18.580475 32.063972 -4.328158
-18.729208 32.500473 -4.161571
-18.814308 32.075565 -3.994796
-18.734707 32.554070 -4.218876
-18.430950 32.261364 -4.521704
-18.357611 31.996212 -4.522964
-18.410067 32.057770 -4.432595
-18.532467 32.072056 -4.311216
-18.666710 32.542622 -4.208482
-18.430758 32.111599 -4.408388
-18.822910 32.754589 -4.137108
