# .PCD v0.7 - Point Cloud Data file format
VERSION 0.7
FIELDS x y z
SIZE 4 4 4
TYPE F F F
COUNT 1 1 1
WIDTH 35
HEIGHT 1
VIEWPOINT 0 0 0 1
POINTS 35
DATA ascii
-21.020443 32.263885 -5.696960
-20.974794 32.030060 -5.676231
-20.982489 32.243610 -5.662486
-21.118929 33.440754 -5.251245
-21.091438 33.442028 -5.267313
-21.074133 33.057297 -5.295695
-21.054600 32.783432 -5.311154
-20.943897 31.982845 -5.643788
-21.039173 32.459946 -5.256524
-21.050177 32.709805 -5.217103
-21.046293 32.711906 -5.219708
-20.924082 32.259964 -5.638370
-20.917788 32.052231 -5.651737
-20.936050 31.973192 -5.535056
-21.005554 33.125381 -5.240465
-20.981985 32.772865 -5.292747
-20.949100 32.056870 -5.421044
-20.891190 31.974396 -5.633531
-20.984991 32.722076 -5.181648
-20.967148 32.424313 -5.261131
-20.975491 32.717209 -5.199148
-20.944653 32.757656 -5.260720
-20.925310 32.299122 -5.328673
-20.962183 32.178028 -5.187083
-20.944006 32.189449 -5.223017
-20.930588 32.721722 -5.204760
-20.891119 32.043499 -5.412433
-20.929964 32.181934 -5.206713
-20.821196 31.897230 -5.620449
-20.867731 32.151947 -5.403711
-20.880407 32.519588 -5.289181
-20.839422 32.098698 -5.429111
-20.888165 32.188904 -5.204189
-20.794149 31.691145 -5.609280
-20.746822 31.702663 -5.585010
