# .PCD v0.7 - Point Cloud Data file format
VERSION 0.7
FIELDS x y z
SIZE 4 4 4
TYPE F F F
COUNT 1 1 1
WIDTH 30
HEIGHT 1
VIEWPOINT 0 0 0 1
POINTS 30
DATA ascii
-21.597260 30.095972 -5.634027
-21.604586 30.064167 -5.589313
-21.600094 30.059711 -5.581712
-21.983158 30.398243 -5.523264
-21.586720 30.052383 -5.556759
-21.519543 30.116896 -5.672859
-21.506975 30.099365 -5.652869
-21.561483 30.116236 -5.607659
-21.571798 30.085989 -5.560001
-21.572412 30.082783 -5.550086
-21.500532 30.137766 -5.653660
-21.528696 30.063900 -5.543974
-21.495758 30.142410 -5.640373
-21.470758 30.117626 -5.622282
-21.473560 30.102873 -5.601014
-21.483061 30.071741 -5.554099
-21.854944 30.296745 -5.391056
-21.488026 30.171736 -5.622142
-22.044491 30.432871 -5.293025
-21.479675 30.172813 -5.603340
-21.475687 30.162043 -5.575229
-21.481724 30.148869 -5.558083
-21.980700 30.429230 -5.303137
-21.492809 30.218258 -5.582865
-21.511961 30.235371 -5.547427
-21.613686 30.084679 -5.584479
-21.564230 30.097658 -5.565821
-21.495281 30.097298 -5.554324
-21.578392 30.319664 -5.618688
-21.969881 30.451086 -5.315638
