# .PCD v0.7 - Point Cloud Data file format
VERSION 0.7
FIELDS x y z
SIZE 4 4 4
TYPE F F F
COUNT 1 1 1
WIDTH 15
HEIGHT 1
VIEWPOINT 0 0 0 1
POINTS 15
DATA ascii
-20.523851 32.231525 -5.552868
-20.521646 32.206730 -5.637959
-20.503271 32.290276 -5.622457
-20.490749 32.128960 -5.508902
-20.488361 32.255409 -5.619061
-20.472729 32.294285 -5.607882
-20.469780 32.590374 -5.476641
-20.436041 32.362919 -5.488784
-20.436878 32.242397 -5.623175
-20.419338 32.244514 -5.642466
-20.410122 32.145523 -5.502960
-20.402893 32.223499 -5.640973
-20.387403 32.271233 -5.619622
-20.340202 32.542461 -5.399644
-20.349083 31.768454 -5.529418
