# .PCD v0.7 - Point Cloud Data file format
VERSION 0.7
FIELDS x y z
SIZE 4 4 4
TYPE F F F
COUNT 1 1 1
WIDTH 136
HEIGHT 1
VIEWPOINT 0 0 0 1
POINTS 136
DATA ascii
2.254196 13.276135 0.785184
2.266768 13.218643 0.796696
2.229661 13.388237 0.912755
2.144633 13.381192 1.174489
2.187840 13.390678 1.020392
2.238378 13.265324 0.934568
2.100565 13.377069 1.302627
2.242414 13.208362 0.922868
2.249430 13.094543 0.849152
2.076385 13.399430 1.337529
2.068438 13.438807 1.374599
2.049771 13.477733 1.388978
2.228999 13.207507 0.962985
2.056521 13.380451 1.412502
2.003409 13.468771 1.506118
2.091814 13.285314 1.317796
2.253203 13.050099 0.917489
2.139102 13.181905 1.225136
2.186754 13.213008 1.072736
2.230392 13.084134 0.989718
2.109107 13.207829 1.347989
2.238149 13.031353 0.974590
2.270929 12.969304 0.906711
2.083879 13.227296 1.378809
2.072345 13.256784 1.411024
2.060392 13.305618 1.422294
2.270969 12.897395 0.919141
1.900147 13.459364 1.904336
1.929162 13.378616 1.800803
2.290078 12.795205 0.827734
2.224502 13.029645 1.010193
2.012508 13.305891 1.540875
2.063366 13.213242 1.452654
2.101797 13.126537 1.361989
2.187583 13.054261 1.120729
2.247927 12.882889 0.971860
2.277529 12.841567 0.827998
2.144562 13.016932 1.273186
2.227058 12.922487 1.041598
2.238940 12.876265 1.023466
2.113322 13.043632 1.390386
2.250949 12.786687 0.962516
2.093489 13.070427 1.417318
2.083037 13.101641 1.445811
1.881638 13.353856 1.954631
2.073220 13.149652 1.454897
2.263871 12.735234 0.975332
1.909305 13.283561 1.926615
2.224149 12.873498 1.054206
1.931852 13.188330 1.828155
2.027900 13.164156 1.578450
2.064565 13.048493 1.489072
1.881212 13.243602 1.925618
1.863891 13.389054 2.015977
2.100194 12.957830 1.402199
2.180726 12.891525 1.165424
1.844420 13.298244 2.030042
2.243899 12.727107 1.022236
2.138792 12.845321 1.317282
2.225873 12.775187 1.091114
1.789388 13.346157 2.126024
1.874483 13.268044 2.001277
2.233308 12.720682 1.069433
2.111478 12.879519 1.428634
2.095409 12.909569 1.452531
2.248039 12.642594 1.014639
2.085631 12.942844 1.478148
1.894269 13.192255 1.974057
2.076183 12.985993 1.483455
2.262179 12.595563 1.027454
1.916901 13.115217 1.948691
2.219960 12.720221 1.095210
2.021270 12.990003 1.606580
1.937914 13.019523 1.854408
2.066739 12.895478 1.524793
1.889164 13.081268 1.948987
1.866227 13.199262 2.021660
2.180378 12.747823 1.207983
1.852855 13.138921 2.047694
2.293265 12.594723 0.929570
2.096478 12.796952 1.440602
2.241924 12.587501 1.069461
2.216494 12.623349 1.136123
1.806795 13.204042 2.144638
1.885466 13.107571 2.015904
2.134356 12.686023 1.359441
2.298762 12.429821 0.866238
2.228872 12.577438 1.111013
2.104027 12.716950 1.463546
2.083076 12.784336 1.506696
2.087317 12.746481 1.483785
1.900482 13.030162 1.990574
2.250731 12.514610 1.062998
2.081390 12.837564 1.511705
2.220556 12.583731 1.134144
1.925331 12.964067 1.970157
2.026270 12.850669 1.635790
2.057182 12.732562 1.554085
1.943588 12.863500 1.880059
1.891063 12.916303 1.966939
2.176601 12.609362 1.247954
1.879153 13.044364 2.033804
1.860232 12.984880 2.065080
2.088833 12.640774 1.475211
2.213242 12.417450 1.112447
1.815657 13.054098 2.158720
1.897016 12.961884 2.031950
2.118184 12.519541 1.396438
2.105668 12.582204 1.498760
2.078052 12.630363 1.533409
2.086738 12.603514 1.515319
1.907721 12.878884 2.006787
2.073740 12.675703 1.535584
2.020546 12.699804 1.659716
1.930024 12.813954 1.989402
2.064209 12.607859 1.586678
1.892698 12.900620 2.046491
1.899699 12.776650 1.989794
1.940664 12.703284 1.902050
1.866816 12.841243 2.081440
1.816699 12.900192 2.167056
2.086021 12.500467 1.508142
1.904788 12.815432 2.044113
2.073048 12.488826 1.558668
2.083945 12.552836 1.561886
1.911582 12.734648 2.022073
2.014575 12.558971 1.684216
1.930385 12.668878 2.005698
1.896288 12.751012 2.054345
1.869662 12.701354 2.096846
1.903643 12.638742 2.009672
1.827567 12.775500 2.181402
1.908415 12.670354 2.054900
1.920869 12.610420 2.040212
1.908939 12.624951 2.067762
1.835747 12.652012 2.196334
