# .PCD v0.7 - Point Cloud Data file format
VERSION 0.7
FIELDS x y z
SIZE 4 4 4
TYPE F F F
COUNT 1 1 1
WIDTH 26
HEIGHT 1
VIEWPOINT 0 0 0 1
POINTS 26
DATA ascii
-20.413267 31.904955 -5.577651
-20.346189 31.844296 -5.581221
-20.370619 32.038177 -5.560004
-20.365467 32.109158 -5.631498
-20.293550 32.011971 -5.460160
-20.384176 31.170061 -5.551072
-20.305340 32.092033 -5.502269
-20.332909 31.367983 -5.601297
-20.358438 32.054924 -5.629236
-20.317711 32.091125 -5.583285
-20.337360 31.335917 -5.597165
-20.336573 31.163212 -5.532139
-20.272425 31.263077 -5.640898
-20.343767 31.243317 -5.538557
-20.356585 31.332684 -5.540133
-20.335615 31.300598 -5.595937
-20.367716 31.432066 -5.548127
-20.278688 31.241392 -5.633303
-20.280691 31.056362 -5.587695
-20.336468 31.280563 -5.595713
-20.285769 31.146492 -5.584632
-20.294333 31.233444 -5.585142
-20.277639 31.220106 -5.624816
-20.300196 31.332298 -5.589968
-20.278854 31.196936 -5.630150
-20.244089 31.290232 -5.454967
