# .PCD v0.7 - Point Cloud Data file format
VERSION 0.7
FIELDS x y z
SIZE 4 4 4
TYPE F F F
COUNT 1 1 1
WIDTH 23
HEIGHT 1
VIEWPOINT 0 0 0 1
POINTS 23
DATA ascii
-19.356358 30.584679 -4.869789
-19.733639 30.685158 -4.643970
-19.685534 30.656487 -4.666140
-19.328030 30.553175 -4.854604
-19.718439 30.680067 -4.600024
-19.632805 30.593222 -4.676392
-19.607655 30.585484 -4.762283
-19.599638 30.604355 -4.746252
-19.508215 30.451742 -4.843372
-19.462538 30.413692 -4.880887
-19.554878 30.563698 -4.820240
-19.514181 30.575830 -4.840993
-19.436483 30.357647 -4.891981
-19.410427 30.350471 -4.900254
-19.506207 30.508518 -4.826674
-19.451443 30.496712 -4.865751
-19.403261 30.319851 -4.888722
-19.384144 30.325979 -4.884231
-19.433441 30.412420 -4.876229
-19.410402 30.451565 -4.863738
-19.393572 30.367104 -4.878276
-19.377878 30.420170 -4.849494
-19.370293 30.345695 -4.858310
