# .PCD v0.7 - Point Cloud Data file format
VERSION 0.7
FIELDS x y z
SIZE 4 4 4
TYPE F F F
COUNT 1 1 1
WIDTH 30
HEIGHT 1
VIEWPOINT 0 0 0 1
POINTS 30
DATA ascii
-18.849007 32.152542 -4.418758
-18.574144 31.743177 -4.639194
-18.571291 31.714645 -4.619880
-18.561859 31.801538 -4.572160
-18.598387 31.827261 -4.645134
-18.586842 31.770985 -4.651894
-18.561100 31.774229 -4.558150
-18.576979 32.660038 -4.558325
-18.534910 32.689060 -4.576777
-18.506466 31.771746 -4.551435
-18.508156 31.750412 -4.540926
-18.592680 31.906061 -4.573435
-18.571428 31.827742 -4.587800
-18.727259 31.559483 -4.488206
-18.633747 31.880936 -4.617362
-18.590193 31.941484 -4.642191
-18.531738 31.874353 -4.557633
-18.521173 31.811914 -4.561065
-18.572298 31.849060 -4.599910
-18.582094 32.032505 -4.563941
-18.653612 31.951790 -4.618083
-18.562580 31.430470 -4.632712
-18.530653 31.854399 -4.563568
-18.520802 32.007751 -4.540278
-18.582369 31.905581 -4.606889
-18.618931 32.180756 -4.588126
-18.559805 31.500673 -4.562175
-18.541365 31.919043 -4.567115
-18.549030 32.147400 -4.565542
-18.504179 31.476318 -4.550661
