# .PCD v0.7 - Point Cloud Data file format
VERSION 0.7
FIELDS x y z
SIZE 4 4 4
TYPE F F F
COUNT 1 1 1
WIDTH 16
HEIGHT 1
VIEWPOINT 0 0 0 1
POINTS 16
DATA ascii
-19.035103 32.343201 -5.691089
-19.457624 32.465313 -5.162536
-19.054245 32.337685 -5.700326
-19.369682 32.470215 -5.131536
-19.395918 32.645390 -5.139222
-19.379139 32.595188 -5.131718
-19.804047 33.222073 -5.267475
-19.376600 32.575180 -5.129440
-19.367628 32.558849 -5.120799
-19.537161 32.927639 -5.204046
-19.562290 33.166748 -5.197707
-19.574976 33.410664 -5.192027
-19.447458 32.924034 -5.168975
-19.463049 33.158108 -5.159940
-19.460379 33.388115 -5.153643
-19.376019 32.939308 -5.129651
