# .PCD v0.7 - Point Cloud Data file format
VERSION 0.7
FIELDS x y z
SIZE 4 4 4
TYPE F F F
COUNT 1 1 1
WIDTH 36
HEIGHT 1
VIEWPOINT 0 0 0 1
POINTS 36
DATA ascii
-18.503288 31.292793 -4.768547
-18.501461 31.305893 -4.785193
-18.539377 31.378792 -4.783620
-18.533079 31.398153 -4.797407
-18.500204 31.338549 -4.771497
-18.465555 31.324434 -4.769138
-18.464893 31.308266 -4.749594
-18.549120 31.455055 -4.784557
-18.569511 31.512821 -4.806495
-18.499046 31.396105 -4.767807
-18.463453 31.356289 -4.752855
-18.494314 31.419048 -4.779195
-18.495310 31.464716 -4.773881
-18.526594 31.535147 -4.786827
-18.615477 31.739870 -4.829302
-18.669477 31.841972 -4.824305
-18.478559 31.552824 -4.770231
-18.664644 31.880201 -4.827053
-18.578789 31.763460 -4.805683
-18.639397 31.880291 -4.824988
-18.605286 31.845352 -4.804924
-18.593063 31.879089 -4.815307
-18.534042 31.779215 -4.785524
-18.659630 32.008194 -4.828866
-18.628489 31.949223 -4.808406
-18.588013 31.894405 -4.800477
-18.555317 31.858458 -4.780274
-18.628336 32.011353 -4.816900
-18.545454 31.897182 -4.792990
-18.595587 32.015785 -4.809646
-18.581480 31.972019 -4.780543
-18.537443 31.909643 -4.776117
-18.625151 32.131435 -4.834553
-18.567228 32.022129 -4.797289
-18.540051 32.030960 -4.786099
-18.560822 32.143185 -4.811771
