# .PCD v0.7 - Point Cloud Data file format
VERSION 0.7
FIELDS x y z
SIZE 4 4 4
TYPE F F F
COUNT 1 1 1
WIDTH 32
HEIGHT 1
VIEWPOINT 0 0 0 1
POINTS 32
DATA ascii
-16.259249 32.482227 -3.956005
-16.305582 32.278973 -4.009905
-16.221474 32.389427 -3.983334
-16.298483 32.154972 -4.016515
-16.249481 32.268536 -3.972723
-16.131914 32.512466 -3.838891
-16.284615 32.062145 -4.008783
-16.238438 32.168533 -3.961445
-16.186869 32.273605 -3.920920
-16.254944 32.093788 -3.934597
-16.282230 31.982811 -4.015068
-16.224909 32.083523 -3.948277
-16.181822 32.163467 -3.921349
-16.211267 32.034294 -3.940462
-16.222023 32.007652 -3.952184
-16.172968 32.066494 -3.920846
-16.240253 31.937634 -3.927280
-16.170408 31.999414 -3.919051
-16.181622 31.938345 -3.982187
-16.272427 31.805513 -3.957929
-16.201885 31.885101 -3.931721
-16.226278 31.794006 -3.923904
-16.175217 31.800886 -3.970666
-16.190083 31.747646 -3.924320
-16.224766 31.660034 -3.924476
-16.167789 31.671825 -3.963291
-16.189724 31.627781 -3.915859
-16.254646 31.495216 -4.009261
-16.264418 31.448034 -3.992301
-16.170053 31.557550 -3.952370
-16.212631 31.480143 -3.977190
-16.235386 31.403257 -4.005352
