# .PCD v0.7 - Point Cloud Data file format
VERSION 0.7
FIELDS x y z
SIZE 4 4 4
TYPE F F F
COUNT 1 1 1
WIDTH 17
HEIGHT 1
VIEWPOINT 0 0 0 1
POINTS 17
DATA ascii
-18.985481 32.242649 -5.699959
-18.980354 32.237534 -5.699303
-19.012146 32.350010 -5.667583
-18.982433 32.239372 -5.712025
-18.996468 32.333458 -5.666363
-19.024618 32.449276 -5.634315
-19.000122 32.336273 -5.677495
-19.017174 32.438427 -5.631012
-18.997904 32.345451 -5.685370
-19.210880 32.713539 -5.590532
-19.019859 32.439484 -5.640736
-19.192741 32.689869 -5.585672
-19.019449 32.448696 -5.647320
-19.202303 32.696468 -5.593737
-19.200151 32.705040 -5.599460
-19.015236 32.946426 -5.748708
-18.863968 32.603230 -5.632017
