# .PCD v0.7 - Point Cloud Data file format
VERSION 0.7
FIELDS x y z
SIZE 4 4 4
TYPE F F F
COUNT 1 1 1
WIDTH 16
HEIGHT 1
VIEWPOINT 0 0 0 1
POINTS 16
DATA ascii
-18.743956 31.657028 -4.889072
-18.725016 31.713253 -4.890642
-18.716875 31.774246 -4.887644
-18.736504 31.844355 -4.877375
-18.819405 31.927937 -4.926022
-18.715361 31.900620 -4.876220
-18.816288 31.998226 -4.919240
-18.796701 32.061401 -4.914024
-18.781771 32.127903 -4.907453
-18.767099 32.194485 -4.899945
-18.932878 32.060432 -4.912680
-18.973139 32.156223 -4.892573
-19.051090 32.271549 -4.862507
-19.081381 32.371460 -4.842082
-19.234634 32.534691 -4.789870
-19.335751 32.680584 -4.747895
