# .PCD v0.7 - Point Cloud Data file format
VERSION 0.7
FIELDS x y z
SIZE 4 4 4
TYPE F F F
COUNT 1 1 1
WIDTH 19
HEIGHT 1
VIEWPOINT 0 0 0 1
POINTS 19
DATA ascii
-16.646315 33.739319 -4.053512
-16.655878 33.669491 -4.050142
-16.516127 33.693546 -4.100755
-16.549385 33.649059 -4.085435
-16.490751 33.765873 -4.096269
-16.490002 33.678581 -4.095644
-16.520622 33.624096 -4.099719
-16.505390 33.892433 -4.069672
-16.662285 33.687111 -4.053749
-16.489359 33.778610 -4.076701
-16.483736 33.676044 -4.098335
-16.521118 34.026825 -4.040545
-16.550661 33.661560 -4.086483
-16.507265 33.904758 -4.046351
-16.503368 33.798347 -4.067496
-16.485302 33.681423 -4.096280
-16.508373 33.908894 -4.040936
-16.497425 33.793182 -4.066715
-16.509806 33.910778 -4.035179
