# .PCD v0.7 - Point Cloud Data file format
VERSION 0.7
FIELDS x y z
SIZE 4 4 4
TYPE F F F
COUNT 1 1 1
WIDTH 595
HEIGHT 1
VIEWPOINT 0 0 0 1
POINTS 595
DATA ascii
-1.506892 5.848815 1.045671
-1.534002 5.878097 1.090057
-1.503003 5.896847 1.022605
-1.520550 5.927726 1.067072
-1.530154 5.851582 1.096469
-1.437943 5.837902 0.860031
-1.408056 5.823558 0.809941
-1.493086 5.946957 1.000150
-1.527803 5.888428 1.080311
-1.519203 5.972299 1.043244
-1.516195 5.902648 1.071839
-1.432662 5.885602 0.838951
-1.406430 5.869892 0.790205
-1.548039 5.861844 1.142630
-1.537733 5.848767 1.094865
-1.366380 5.835359 0.678849
-1.519984 5.935587 1.055865
-1.483672 5.995628 0.979328
-1.513844 6.015975 1.020488
-1.509742 5.949181 1.048251
-1.426964 5.931968 0.819879
-1.428202 5.859518 0.849018
-1.400615 5.918094 0.770327
-1.342247 5.850277 0.629156
-1.331480 5.818745 0.572280
-1.541197 5.907972 1.118209
-1.322803 5.815901 0.557274
-1.424518 5.870533 0.839578
-1.568146 5.864488 1.193707
-1.526259 5.897276 1.069074
-1.358585 5.884655 0.661767
-1.515097 5.979676 1.031494
-1.487012 6.036892 0.957263
-1.503825 6.061101 0.999205
-1.368125 5.821208 0.690032
-1.507977 5.992409 1.026430
-1.424139 5.976182 0.800479
-1.526137 5.848796 1.082813
-1.430511 5.902698 0.826530
-1.435145 5.831601 0.858245
-1.399100 5.962595 0.751383
-1.535390 5.952160 1.094213
-1.338636 5.897707 0.612204
-1.324462 5.868822 0.556861
-1.315785 5.865977 0.541856
-1.559994 5.910322 1.168824
-1.416860 5.918944 0.820447
-1.518166 5.942192 1.044595
-1.361814 5.851235 0.674097
-1.360278 5.928302 0.642931
-1.454949 5.870195 0.884881
-1.334962 5.817383 0.594624
-1.505609 6.024291 1.008999
-1.334010 5.819351 0.591748
-1.479607 6.082601 0.936885
-1.504401 6.102687 0.978259
-1.364267 5.867340 0.670206
-1.500184 6.037714 1.005221
-1.419084 6.020213 0.780993
-1.520027 5.892596 1.055540
-1.380999 5.802986 0.700350
-1.421213 5.949502 0.806510
-1.435756 5.874085 0.834467
-1.532255 5.996016 1.071525
-1.403218 6.004625 0.730979
-1.344125 5.939089 0.592666
-1.322806 5.914196 0.539959
-1.553796 5.954113 1.143990
-1.313210 5.911455 0.525330
-1.413646 5.962758 0.800210
-1.510069 5.987113 1.020109
-1.354605 5.899107 0.656200
-1.353572 5.974741 0.626669
-1.443752 5.918124 0.865207
-1.578390 6.235002 1.155022
-1.328144 5.865640 0.577561
-1.502142 6.066837 0.985878
-1.467064 5.871953 0.935262
-1.326271 5.867713 0.575061
-1.491675 6.147215 0.958496
-1.473565 6.127684 0.917358
-1.380695 5.856380 0.716177
-1.359014 5.913162 0.652361
-1.493308 6.082922 0.983627
-1.597751 6.262329 1.181147
-1.428873 5.840559 0.840727
-1.354316 5.810530 0.612174
-1.412515 6.065776 0.762681
-1.510564 5.938134 1.030195
-1.344505 5.826041 0.626207
-1.372954 5.850975 0.680384
-1.418975 5.992291 0.786295
-1.426010 5.921406 0.813207
-1.522763 6.040631 1.049022
-1.393300 6.051921 0.714602
-1.544894 5.997299 1.120683
-1.337807 5.985921 0.577233
-1.316489 5.961020 0.524528
-1.307281 5.958675 0.510731
-1.417432 6.003473 0.779373
-1.503008 6.030092 0.996049
-1.358783 5.940199 0.636201
-1.353090 6.017287 0.608144
-1.440146 5.961538 0.844132
-1.568997 6.277824 1.133296
-1.503298 6.106995 0.964109
-1.328520 5.908983 0.558251
-1.457900 5.917854 0.913182
-1.323238 5.913714 0.557284
-1.496094 6.185620 0.937234
-1.380353 5.898015 0.695611
-1.473209 6.169374 0.896769
-1.361818 5.954882 0.631496
-1.393709 5.855842 0.758824
-1.496749 6.122345 0.962349
-1.584820 6.304676 1.158896
-1.424427 5.884083 0.817587
-1.340543 5.860958 0.596102
-1.417328 6.104547 0.742268
-1.502988 5.982545 1.004498
-1.342597 5.870110 0.606430
-1.367778 5.896809 0.660094
-1.411623 6.037050 0.766321
-1.426726 5.962049 0.790231
-1.366959 5.833167 0.689638
-1.516525 6.083488 1.027031
-1.537879 6.039357 1.097033
-1.351695 5.807131 0.633473
-1.387172 6.096952 0.697529
-1.353733 5.826519 0.659364
-1.335810 6.029984 0.559897
-1.313043 6.005683 0.508780
-1.306654 6.002099 0.494260
-1.409936 6.049128 0.761448
-1.501428 6.071496 0.972591
-1.349784 5.987360 0.619468
-1.439797 6.003188 0.823584
-1.349253 6.061563 0.591568
-1.498103 6.147903 0.942574
-1.450106 5.963123 0.892006
-1.565488 6.319463 1.113034
-1.326146 5.952631 0.540113
-1.594165 6.262382 1.170163
-1.318435 5.958997 0.540703
-1.492652 6.226305 0.917384
-1.374650 5.944352 0.676557
-1.471407 6.211663 0.877804
-1.591607 6.274883 1.176270
-1.354335 6.000513 0.613596
-1.580710 6.342758 1.138180
-1.391026 5.899122 0.737411
-1.492331 6.164050 0.942476
-1.416189 5.929863 0.795177
-1.338254 5.904622 0.575521
-1.495534 6.025113 0.979639
-1.341673 5.913147 0.586708
-1.364624 5.939669 0.640290
-1.412655 6.148972 0.723629
-1.363891 5.876041 0.667394
-1.515456 6.123452 1.005225
-1.408014 6.080463 0.745271
-1.536421 6.078923 1.074398
-1.414158 6.010604 0.769721
-1.339971 5.855520 0.615041
-1.346337 5.872152 0.639025
-1.383006 6.139928 0.680531
-1.334857 6.072096 0.543009
-1.314321 6.047973 0.491973
-1.408732 6.089964 0.741686
-1.305114 6.045625 0.478180
-1.488841 6.115102 0.950815
-1.349362 6.028970 0.601375
-1.434348 6.046808 0.803286
-1.449044 6.003059 0.870207
-1.485431 6.191500 0.923237
-1.350669 6.102967 0.572715
-1.317602 5.999258 0.524627
-1.559748 6.360917 1.092685
-1.584055 6.303480 1.147217
-1.487428 6.266280 0.898685
-1.310869 6.004600 0.525243
-1.374372 5.985061 0.656425
-1.462775 6.254298 0.860635
-1.583580 6.317069 1.155441
-1.349196 6.044493 0.596575
-1.583340 6.380475 1.118095
-1.383684 5.943850 0.717467
-1.481885 6.207836 0.923214
-1.416076 5.970623 0.770157
-1.329321 5.950846 0.559204
-1.488467 6.068081 0.955604
-1.406317 6.190847 0.706947
-1.335111 5.958660 0.568428
-1.355773 5.985924 0.621526
-1.360880 5.917997 0.645547
-1.507439 6.165599 0.984408
-1.525729 6.121403 1.052267
-1.412177 6.050641 0.748295
-1.406808 6.121301 0.725503
-1.336431 5.897971 0.594404
-1.342264 5.915109 0.619594
-1.381656 6.181667 0.662798
-1.323996 6.118536 0.529877
-1.314288 6.089972 0.474703
-1.592871 6.261650 1.159692
-1.407914 6.131199 0.722748
-1.297994 6.090710 0.463947
-1.488303 6.154560 0.927793
-1.346120 6.071819 0.583999
-1.448959 6.041970 0.848430
-1.422399 6.092090 0.785211
-1.342294 6.146856 0.558425
-1.487565 6.230625 0.901522
-1.581783 6.341344 1.125739
-1.318101 6.040751 0.506151
-1.482202 6.306257 0.879977
-1.555373 6.401742 1.073187
-1.314245 6.043937 0.506445
-1.362226 6.032142 0.639991
-1.589295 6.212666 1.170471
-1.577835 6.418243 1.099354
-1.460107 6.295775 0.842434
-1.580716 6.356361 1.134765
-1.350282 6.084574 0.577290
-1.384854 5.983953 0.695746
-1.483546 6.246543 0.903110
-1.409320 6.013939 0.749398
-1.322816 5.995440 0.541321
-1.488461 6.107028 0.931375
-1.327155 6.003864 0.552129
-1.525306 6.159025 1.030050
-1.351755 6.027973 0.602487
-1.397689 6.233462 0.689775
-1.499868 6.207225 0.964818
-1.361074 5.959114 0.623799
-1.407558 6.160084 0.705782
-1.410524 6.091995 0.727288
-1.337547 5.938977 0.572281
-1.341539 5.956330 0.598222
-1.377604 6.222804 0.646591
-1.320279 6.160971 0.514103
-1.301056 6.137123 0.463526
-1.581451 6.302449 1.136283
-1.394959 6.176574 0.707485
-1.294668 6.133532 0.449007
-1.484025 6.195360 0.905865
-1.423148 6.130876 0.765491
-1.436619 6.086854 0.829518
-1.341956 6.114776 0.566991
-1.482871 6.270092 0.881605
-1.580876 6.378577 1.105114
-1.340414 6.189083 0.541893
-1.315839 6.082564 0.488797
-1.478282 6.346526 0.861716
-1.561004 6.440433 1.054830
-1.312902 6.085643 0.488714
-1.361470 6.072436 0.621456
-1.568732 6.456459 1.079668
-1.584762 6.252195 1.145664
-1.574703 6.395573 1.114381
-1.382343 6.024477 0.675522
-1.456189 6.336040 0.824173
-1.347627 6.126000 0.559099
-1.476421 6.287649 0.884748
-1.407869 6.053466 0.726756
-1.325356 6.034900 0.520450
-1.514197 6.200171 1.009923
-1.481508 6.148157 0.908133
-1.327322 6.044041 0.533219
-1.498380 6.245853 0.945007
-1.351532 6.067760 0.582742
-1.398351 6.272230 0.672485
-1.349663 6.003862 0.604515
-1.408067 6.131614 0.707459
-1.397032 6.203824 0.688956
-1.328425 5.982984 0.553482
-1.331884 6.000845 0.580630
-1.374470 6.263834 0.629998
-1.579709 6.339804 1.113590
-1.319767 6.202564 0.498426
-1.301136 6.177283 0.447048
-1.396094 6.215757 0.688586
-1.288639 6.175755 0.435593
-1.482090 6.234503 0.884817
-1.435999 6.126271 0.808934
-1.415971 6.172873 0.746730
-1.339359 6.155283 0.549199
-1.572246 6.417204 1.083814
-1.474437 6.310905 0.862782
-1.338262 6.229070 0.525330
-1.473559 6.385058 0.844633
-1.309836 6.125722 0.472536
-1.549411 6.481207 1.036290
-1.309718 6.127563 0.471727
-1.353709 6.115838 0.603504
-1.570496 6.493356 1.060341
-1.575713 6.292274 1.120287
-1.372294 6.068609 0.657089
-1.569075 6.435184 1.094820
-1.339452 6.168065 0.543159
-1.452597 6.377624 0.806331
-1.469741 6.328233 0.867613
-1.400780 6.095468 0.705555
-1.512319 6.238402 0.989276
-1.324214 6.074782 0.501078
-1.474082 6.188869 0.886496
-1.595960 6.394179 1.153623
-1.497869 6.283453 0.925216
-1.319032 6.087933 0.516476
-1.345281 6.109625 0.563609
-1.345313 6.044590 0.585038
-1.398563 6.311521 0.653949
-1.393026 6.175897 0.690068
-1.395938 6.242820 0.669972
-1.322566 6.025233 0.535186
-1.333113 6.040017 0.559299
-1.376379 6.303808 0.612749
-1.567426 6.379791 1.090947
-1.321353 6.241199 0.480756
-1.299316 6.218576 0.430909
-1.394409 6.256178 0.670403
-1.293317 6.215379 0.417221
-1.473800 6.274409 0.863953
-1.432229 6.165606 0.788640
-1.410218 6.213323 0.729226
-1.336228 6.196294 0.532607
-1.566290 6.455492 1.063821
-1.468819 6.350481 0.843225
-1.337028 6.268951 0.508381
-1.471593 6.423271 0.826412
-1.309527 6.165482 0.455220
-1.304219 6.169280 0.457098
-1.353928 6.155107 0.584980
-1.367999 6.108428 0.638008
-1.569396 6.331094 1.096622
-1.563506 6.473874 1.075656
-1.334422 6.210209 0.526913
-1.452327 6.416520 0.789396
-1.470476 6.367046 0.847861
-1.396035 6.135816 0.685234
-1.506312 6.277581 0.968892
-1.490410 6.323241 0.906413
-1.592230 6.432655 1.133708
-1.310733 6.120629 0.487015
-1.471311 6.228133 0.863374
-1.335206 6.152819 0.548014
-1.313617 6.129668 0.499405
-1.395482 6.351635 0.637745
-1.343333 6.084603 0.563592
-1.393384 6.214278 0.669497
-1.393923 6.281921 0.651357
-1.320647 6.064320 0.514146
-1.331580 6.079504 0.539088
-1.567048 6.416516 1.069099
-1.373240 6.344838 0.596139
-1.298531 6.257921 0.415194
-1.321427 6.281365 0.464257
-1.396907 6.294728 0.652347
-1.289182 6.256468 0.403441
-1.469103 6.313871 0.844019
-1.426618 6.205155 0.769092
-1.407282 6.252533 0.710989
-1.333095 6.237305 0.516006
-1.557184 6.493702 1.044119
-1.464626 6.388504 0.824925
-1.326003 6.311327 0.495997
-1.468705 6.461588 0.808559
-1.301739 6.207935 0.440101
-1.302009 6.210173 0.440123
-1.349099 6.195430 0.567096
-1.559301 6.511932 1.057343
-1.364951 6.149458 0.618969
-1.563938 6.370730 1.072167
-1.332799 6.249689 0.509129
-1.504549 6.313969 0.949040
-1.444191 6.457716 0.773825
-1.466998 6.406787 0.830816
-1.395027 6.174819 0.663804
-1.583123 6.470866 1.114006
-1.487076 6.362082 0.887332
-1.308726 6.159698 0.468407
-1.466168 6.268111 0.842204
-1.338118 6.124518 0.544880
-1.311610 6.168741 0.480796
-1.392990 6.390322 0.620728
-1.337408 6.190968 0.526688
-1.389081 6.254111 0.650397
-1.393213 6.321312 0.633188
-1.319114 6.103803 0.493930
-1.320139 6.123318 0.522630
-1.560194 6.455847 1.046624
-1.368706 6.385559 0.581511
-1.315388 6.323597 0.450815
-1.285997 6.301818 0.403988
-1.390678 6.334760 0.636437
-1.463155 6.352121 0.824027
-1.422372 6.244074 0.750396
-1.285577 6.297053 0.388443
-1.405263 6.291637 0.692367
-1.331918 6.276260 0.499453
-1.467317 6.425254 0.805215
-1.468102 6.499166 0.791181
-1.330342 6.349641 0.477174
-1.302404 6.246665 0.422796
-1.348394 6.234804 0.548933
-1.299856 6.250145 0.423543
-1.361631 6.188251 0.599900
-1.553551 6.409577 1.049162
-1.502725 6.351279 0.928776
-1.595495 6.461855 1.154928
-1.467316 6.444257 0.813065
-1.331174 6.289167 0.491337
-1.579508 6.507498 1.094886
-1.383392 6.216434 0.644867
-1.447065 6.496686 0.756572
-1.481961 6.400213 0.869402
-1.307106 6.199165 0.450623
-1.456567 6.307720 0.820871
-1.385896 6.429544 0.605588
-1.310909 6.208102 0.462634
-1.325366 6.168046 0.527959
-1.335396 6.230045 0.508069
-1.383917 6.293129 0.632071
-1.384755 6.361160 0.617194
-1.306811 6.146800 0.478247
-1.316822 6.162098 0.503562
-1.556134 6.492994 1.026267
-1.370339 6.423286 0.564214
-1.288946 6.339812 0.387153
-1.312757 6.363162 0.435835
-1.386286 6.374579 0.619764
-1.420024 6.281860 0.731344
-1.455694 6.391903 0.805207
-1.288467 6.335963 0.371203
-1.398644 6.331274 0.675621
-1.324181 6.317806 0.484719
-1.465879 6.462953 0.785768
-1.331920 6.388274 0.459473
-1.301760 6.285103 0.405028
-1.340329 6.275031 0.533775
-1.294941 6.290438 0.408085
-1.357389 6.227149 0.581200
-1.594697 6.497246 1.135080
-1.497219 6.389013 0.910012
-1.549904 6.448059 1.026787
-1.324027 6.329287 0.475797
-1.465734 6.482860 0.795655
-1.378759 6.254942 0.625332
-1.479070 6.438529 0.851541
-1.303255 6.238446 0.432752
-1.384767 6.467598 0.589414
-1.454686 6.345934 0.800197
-1.307446 6.247784 0.445594
-1.329703 6.269548 0.490948
-1.328156 6.204764 0.505820
-1.382852 6.398416 0.599364
-1.379729 6.331119 0.613765
-1.310524 6.183404 0.455732
-1.309765 6.202225 0.485588
-1.361202 6.464543 0.551452
-1.289074 6.379045 0.371035
-1.384711 6.413154 0.602358
-1.413934 6.320993 0.713386
-1.308225 6.403861 0.421194
-1.455768 6.428065 0.784580
-1.398908 6.369639 0.657465
-1.284857 6.376544 0.356187
-1.462127 6.500446 0.768681
-1.324839 6.356545 0.467395
-1.327445 6.428055 0.445234
-1.294024 6.326637 0.390287
-1.336473 6.314326 0.515894
-1.294682 6.329273 0.391139
-1.352225 6.266154 0.562868
-1.490404 6.426456 0.890784
-1.548662 6.483957 1.005699
-1.328955 6.366168 0.456160
-1.462309 6.521676 0.778990
-1.373205 6.293555 0.606166
-1.473090 6.475845 0.834378
-1.299403 6.277726 0.414873
-1.386395 6.505325 0.572101
-1.451554 6.382935 0.779465
-1.298461 6.288107 0.430806
-1.324894 6.242624 0.487141
-1.325848 6.308836 0.473066
-1.376847 6.369398 0.595905
-1.379436 6.437202 0.582706
-1.304774 6.223815 0.438206
-1.308343 6.239870 0.466155
-1.411641 6.357856 0.694724
-1.364611 6.502971 0.532978
-1.309327 6.442070 0.405093
-1.288812 6.417876 0.354077
-1.448422 6.466002 0.766555
-1.377943 6.453691 0.587630
-1.396083 6.407004 0.640006
-1.283203 6.415067 0.341220
-1.320508 6.395421 0.451116
-1.324478 6.466300 0.429806
-1.298422 6.364009 0.371854
-1.486322 6.462637 0.873270
-1.336741 6.352668 0.497734
-1.348958 6.304024 0.544181
-1.288843 6.369671 0.376041
-1.324624 6.405041 0.439877
-1.371388 6.330819 0.585890
-1.467048 6.514082 0.816800
-1.295017 6.317510 0.398194
-1.447441 6.420961 0.758697
-1.298345 6.326039 0.411816
-1.322050 6.347203 0.455580
-1.318364 6.282247 0.467942
-1.373575 6.407278 0.577206
-1.376550 6.475482 0.564830
-1.298693 6.262908 0.420245
-1.307839 6.277405 0.446338
-1.406527 6.395960 0.676779
-1.372744 6.491772 0.572120
-1.309448 6.481303 0.388955
-1.445142 6.503908 0.747845
-1.292555 6.457589 0.336026
-1.388538 6.446747 0.623611
-1.277277 6.455446 0.328554
-1.320242 6.434261 0.434151
-1.325129 6.505030 0.412455
-1.486837 6.498283 0.853865
-1.334839 6.389904 0.479893
-1.290294 6.405142 0.356264
-1.343259 6.343533 0.527041
-1.290031 6.407886 0.357492
-1.322129 6.443696 0.422832
-1.366750 6.369323 0.566331
-1.285168 6.357018 0.384173
-1.296386 6.364182 0.393570
-1.319170 6.385460 0.437710
-1.316938 6.319889 0.448493
-1.440508 6.460227 0.738645
-1.369122 6.513377 0.549237
-1.369322 6.446183 0.558469
-1.295041 6.300360 0.400720
-1.301223 6.317007 0.429576
-1.401412 6.434063 0.658826
-1.387995 6.483371 0.606619
-1.289917 6.497134 0.321011
-1.281609 6.493727 0.309691
-1.321873 6.471961 0.416829
-1.332343 6.428562 0.462846
-1.341296 6.381690 0.508791
-1.292788 6.443642 0.338161
-1.290745 6.445683 0.340548
-1.316874 6.482673 0.406909
-1.362110 6.407824 0.546763
-1.289200 6.394924 0.362044
-1.310523 6.357667 0.430089
-1.294814 6.402720 0.376147
-1.316287 6.423714 0.419830
-1.434999 6.497941 0.719850
-1.366966 6.483949 0.539375
-1.291716 6.339128 0.381612
-1.298876 6.354752 0.410495
-1.404159 6.469860 0.639492
-1.386083 6.520622 0.588758
-1.311484 6.511986 0.403993
-1.326699 6.467144 0.446090
-1.336184 6.419768 0.490832
-1.287533 6.482605 0.322233
-1.286410 6.484538 0.324243
-1.356996 6.445908 0.528800
-1.286378 6.432247 0.344564
-1.310933 6.395088 0.409869
-1.286412 6.441614 0.360523
-1.313015 6.461566 0.401111
-1.361316 6.522542 0.522612
-1.289368 6.376863 0.362525
-1.295607 6.392601 0.391783
-1.392213 6.508314 0.623329
-1.327018 6.504551 0.428301
-1.339467 6.455033 0.470285
-1.352412 6.483483 0.509621
-1.289013 6.469835 0.324409
-1.285815 6.479118 0.343111
-1.313867 6.498459 0.382112
-1.304514 6.432861 0.391448
-1.283325 6.415031 0.344912
-1.293833 6.428915 0.371860
-1.339328 6.492955 0.451247
-1.353782 6.519873 0.489405
-1.278230 6.509429 0.310727
-1.303132 6.469554 0.372369
-1.278753 6.452559 0.325754
-1.289648 6.466846 0.353532
-1.300397 6.506867 0.352447
-1.276408 6.490263 0.306664
-1.285461 6.504772 0.335194
