# .PCD v0.7 - Point Cloud Data file format
VERSION 0.7
FIELDS x y z
SIZE 4 4 4
TYPE F F F
COUNT 1 1 1
WIDTH 27
HEIGHT 1
VIEWPOINT 0 0 0 1
POINTS 27
DATA ascii
-6.469452 32.558430 -0.157577
-6.510058 32.555454 -0.176667
-6.547750 32.548695 -0.186851
-6.585863 32.544601 -0.200143
-6.621693 32.537090 -0.205741
-6.656296 32.529190 -0.207973
-6.694705 32.528744 -0.225783
-6.730266 32.525196 -0.232810
-6.763637 32.516895 -0.231668
-6.798685 32.511990 -0.236050
-6.853189 32.469074 -0.294544
-6.833730 32.507076 -0.240439
-6.889366 32.465862 -0.302774
-6.802292 32.489204 -0.284909
-6.868456 32.505451 -0.248144
-6.927239 32.466393 -0.315592
-6.877573 32.480293 -0.315849
-6.840207 32.492416 -0.294453
-6.903717 32.505512 -0.257537
-6.957642 32.463066 -0.341726
-6.963990 32.470158 -0.333812
-6.913412 32.477772 -0.315804
-6.876088 32.485630 -0.283283
-6.938581 32.503235 -0.262877
-6.948262 32.472889 -0.309557
-6.912363 32.481171 -0.276161
-6.949585 32.485680 -0.284024
