# .PCD v0.7 - Point Cloud Data file format
VERSION 0.7
FIELDS x y z
SIZE 4 4 4
TYPE F F F
COUNT 1 1 1
WIDTH 77
HEIGHT 1
VIEWPOINT 0 0 0 1
POINTS 77
DATA ascii
-14.422308 33.745163 -3.262286
-14.403960 33.719173 -3.183156
-14.534421 33.840382 -3.201003
-14.531438 33.977333 -3.221736
-14.403137 33.787029 -3.245224
-14.373281 33.744247 -3.177528
-14.395711 33.715294 -3.183542
-14.429272 33.767288 -3.263674
-14.529451 33.912579 -3.228821
-14.539030 33.862541 -3.199884
-14.531938 33.861328 -3.222368
-14.415458 33.882076 -3.195050
-14.495725 34.011070 -3.212150
-14.364510 33.739628 -3.180775
-14.404326 33.802532 -3.254350
-14.500682 33.951134 -3.217541
-14.389550 33.717945 -3.179703
-14.456710 33.822842 -3.243791
-14.501720 33.896030 -3.217177
-14.394527 33.928501 -3.175683
-14.516830 33.845657 -3.222665
-14.550180 33.894684 -3.213976
-14.467300 34.057232 -3.193436
-14.419053 33.904724 -3.204333
-14.472315 33.992069 -3.205894
-14.363488 33.749821 -3.174555
-14.406766 33.825134 -3.259240
-14.477870 33.940037 -3.206089
-14.398903 33.734692 -3.184347
-14.496655 33.893295 -3.212122
-14.542002 33.965252 -3.191540
-14.429005 34.090744 -3.182277
-14.401012 33.957184 -3.183887
-14.441330 34.030949 -3.194295
-14.416594 33.921982 -3.215349
-14.451939 33.982777 -3.195349
-14.373434 33.769257 -3.181039
-14.470253 33.930023 -3.208152
-14.425738 33.875885 -3.266923
-14.582830 34.478775 -3.214713
-14.407555 34.067524 -3.183698
-14.411317 34.000298 -3.183898
-14.417862 34.013584 -3.190567
-14.441809 33.967323 -3.202907
-14.506001 34.450478 -3.235294
-14.415170 33.946537 -3.245123
-14.389891 34.056889 -3.178556
-14.596862 34.558128 -3.225612
-14.422127 34.021019 -3.188763
-14.438189 34.435371 -3.248308
-14.427475 34.059547 -3.197411
-14.596643 34.774006 -3.253405
-14.553197 34.598011 -3.217211
-14.391645 34.058884 -3.182248
-14.445667 34.567879 -3.191094
-14.618114 34.656898 -3.229167
-14.401487 34.112949 -3.185184
-14.541246 34.809128 -3.241650
-14.568096 34.731503 -3.254883
-14.584179 34.657574 -3.260821
-14.440453 34.506447 -3.268582
-14.586654 34.732517 -3.207986
-14.491834 34.858341 -3.222007
-14.525926 34.789585 -3.235672
-14.544487 34.712185 -3.246419
-14.455306 34.665855 -3.203840
-14.584303 34.653690 -3.259530
-14.486923 34.674229 -3.245039
-14.477125 34.834290 -3.220208
-14.504938 34.770447 -3.228755
-14.547534 34.712440 -3.245648
-14.600975 34.855396 -3.229920
-14.462646 34.767303 -3.214924
-14.460933 34.820320 -3.214439
-14.511519 34.774059 -3.229492
-14.474937 34.753071 -3.286595
-14.469934 34.831078 -3.215337
