# .PCD v0.7 - Point Cloud Data file format
VERSION 0.7
FIELDS x y z
SIZE 4 4 4
TYPE F F F
COUNT 1 1 1
WIDTH 1073
HEIGHT 1
VIEWPOINT 0 0 0 1
POINTS 1073
DATA ascii
-1.546142 7.427172 0.789259
-1.675164 7.482200 1.099362
-1.263777 6.957222 0.129727
-1.261866 6.955270 0.123132
-1.250331 7.102021 0.052944
-1.453842 7.089312 0.599548
-1.244614 6.941074 0.088695
-1.257734 7.111342 0.067901
-1.481088 7.355774 0.613137
-1.296615 7.077830 0.199062
-1.278839 7.132251 0.106977
-1.672093 7.571694 1.076485
-1.383480 7.175297 0.391043
-1.552508 7.208799 0.839347
-1.473651 7.120826 0.640299
-1.308641 7.020683 0.231373
-1.317788 7.105301 0.218184
-1.255737 6.884980 0.118546
-1.269460 6.899668 0.149628
-1.462015 7.192973 0.601980
-1.357453 7.238800 0.313085
-1.568339 7.234501 0.877500
-1.444900 7.259908 0.565112
-1.364452 7.168180 0.352932
-1.670849 7.342722 1.106299
-1.576609 7.395102 0.847940
-1.371988 7.098898 0.385857
-1.256852 7.051467 0.088424
-1.463783 7.281596 0.601276
-1.242822 6.881006 0.094095
-1.246893 7.040375 0.057468
-1.375771 7.105597 0.392943
-1.265905 7.062382 0.104252
-1.441190 7.340555 0.525010
-1.317185 6.962178 0.263587
-1.558437 7.311372 0.844564
-1.383790 7.039829 0.431214
-1.364528 7.018405 0.375857
-1.303311 7.031982 0.215392
-1.551006 7.385663 0.810450
-1.290959 7.182885 0.147235
-1.463785 7.209223 0.591116
-1.389869 7.292821 0.387786
-1.587704 7.505577 0.855371
-1.561805 7.323308 0.836161
-1.322996 7.221622 0.212437
-1.678975 7.451385 1.112425
-1.299280 6.953775 0.205095
-1.546154 7.472277 0.778924
-1.676130 7.526323 1.089049
-1.256335 6.996921 0.113486
-1.259807 6.996125 0.103776
-1.244878 7.144602 0.037976
-1.477419 7.397269 0.600235
-1.251025 7.152726 0.052890
-1.298029 7.120054 0.179793
-1.271211 7.173754 0.092350
-1.249782 6.983788 0.062606
-1.454315 7.131725 0.580677
-1.380753 7.217591 0.374922
-1.549414 7.249862 0.822810
-1.469714 7.161050 0.624556
-1.300613 7.061822 0.215934
-1.313365 7.146894 0.200791
-1.261227 6.938584 0.131733
-1.460703 7.233745 0.587115
-1.253353 6.925461 0.095922
-1.560894 7.272452 0.864497
-1.355405 7.283700 0.297802
-1.452212 7.305929 0.548459
-1.570755 7.435551 0.835381
-1.360291 7.211090 0.338407
-1.468585 7.325221 0.584539
-1.376999 7.141617 0.364647
-1.672925 7.385865 1.091129
-1.255989 7.094423 0.068688
-1.248232 6.920986 0.066776
-1.243342 7.082749 0.039289
-1.367789 7.145840 0.377900
-1.262349 7.104763 0.086072
-1.312088 7.001163 0.245363
-1.436889 7.384385 0.512510
-1.557899 7.352967 0.831349
-1.380331 7.080434 0.413855
-1.300328 7.072959 0.196409
-1.549368 7.429181 0.799247
-1.362452 7.059299 0.356497
-1.285893 7.225869 0.133084
-1.590520 7.549416 0.844274
-1.393255 7.337961 0.369785
-1.669849 7.485882 1.104231
-1.460708 7.250236 0.574568
-1.558643 7.364339 0.822052
-1.321996 7.265486 0.194722
-1.680126 7.493688 1.100473
-1.674406 7.569860 1.080283
-1.475920 7.439841 0.586978
-1.261954 7.039106 0.088617
-1.546050 7.519213 0.767768
-1.288236 6.993956 0.187943
-1.244816 7.189261 0.017029
-1.259591 7.037677 0.080789
-1.254049 7.198357 0.031214
-1.292173 7.162260 0.163991
-1.269767 7.218124 0.073403
-1.245034 7.024048 0.044795
-1.446842 7.171489 0.564420
-1.374940 7.258905 0.359516
-1.462749 7.199373 0.609933
-1.307932 7.104693 0.192333
-1.308423 7.188987 0.184600
-1.548829 7.293318 0.806345
-1.560930 7.312627 0.850465
-1.453492 7.274803 0.573708
-1.263755 6.979809 0.107593
-1.569294 7.477245 0.822522
-1.253192 6.966102 0.073339
-1.354269 7.328478 0.282114
-1.449344 7.349143 0.534355
-1.463207 7.366040 0.570351
-1.358423 7.254176 0.321477
-1.248826 7.136332 0.052433
-1.373424 7.184038 0.346455
-1.667118 7.426376 1.076122
-1.241776 6.960577 0.047693
-1.245633 7.126678 0.016361
-1.373589 7.189338 0.358333
-1.258397 7.146741 0.067045
-1.559529 7.395637 0.817777
-1.436011 7.430488 0.499691
-1.306411 7.041567 0.227934
-1.376928 7.120108 0.396886
-1.303645 7.114964 0.173914
-1.550759 7.474576 0.786900
-1.388753 7.379537 0.354805
-1.284842 7.270632 0.114955
-1.363927 7.101563 0.334781
-1.676188 7.530210 1.093649
-1.459281 7.292828 0.558881
-1.559823 7.407524 0.807250
-1.314307 7.307904 0.179668
-1.482314 7.485943 0.570682
-1.678595 7.536333 1.087222
-1.258010 7.081082 0.069606
-1.241550 7.233836 -0.001155
-1.549769 7.568805 0.757134
-1.290248 7.035682 0.165018
-1.248487 7.242752 0.015417
-1.266554 7.261787 0.055621
-1.255196 7.080175 0.060545
-1.291648 7.206521 0.144664
-1.238008 7.065045 0.026513
-1.440627 7.212433 0.548202
-1.379322 7.303929 0.338689
-1.456987 7.239794 0.594948
-1.302606 7.146379 0.175324
-1.311972 7.234114 0.161715
-1.452532 7.316851 0.559268
-1.558696 7.353519 0.835990
-1.546997 7.335540 0.789841
-1.572472 7.523307 0.809017
-1.347716 7.372994 0.269154
-1.246696 7.006589 0.053865
-1.255424 7.020529 0.088887
-1.461272 7.409111 0.555879
-1.441972 7.391977 0.522594
-1.361773 7.300203 0.303087
-1.677338 7.482960 1.102489
-1.372095 7.226594 0.328337
-1.255545 7.182421 0.026381
-1.553168 7.436562 0.806443
-1.365102 7.230053 0.344502
-1.656868 7.466521 1.061013
-1.231675 7.000596 0.030158
-1.238899 7.169882 -0.001904
-1.441787 7.478907 0.483812
-1.263283 7.193060 0.041761
-1.307514 7.083397 0.205401
-1.376571 7.161647 0.378798
-1.298790 7.157050 0.155292
-1.556901 7.522504 0.774708
-1.674660 7.571892 1.083259
-1.387576 7.425209 0.338724
-1.285005 7.317486 0.096472
-1.353678 7.142523 0.319281
-1.459191 7.336610 0.540797
-1.316761 7.354945 0.158794
-1.478883 7.530542 0.557385
-1.560042 7.451717 0.792436
-1.284198 7.075655 0.146767
-1.239099 7.280112 -0.020530
-1.252711 7.123676 0.049749
-1.265015 7.307956 0.035861
-1.247810 7.289719 -0.005131
-1.293826 7.251337 0.123781
-1.252125 7.122934 0.040748
-1.235404 7.108210 0.005099
-1.444147 7.256685 0.528185
-1.376498 7.348012 0.321745
-1.456547 7.281338 0.579295
-1.559087 7.394963 0.822394
-1.304763 7.276922 0.145055
-1.574793 7.568552 0.796289
-1.454545 7.361698 0.543281
-1.295398 7.189198 0.158677
-1.348716 7.419733 0.252722
-1.545510 7.379064 0.773759
-1.465001 7.455554 0.538301
-1.441633 7.437548 0.508577
-1.249845 7.060900 0.069015
-1.238891 7.046787 0.033933
-1.676331 7.524139 1.090888
-1.358489 7.343870 0.287758
-1.555153 7.480505 0.793300
-1.364933 7.268513 0.312088
-1.247769 7.226637 0.010532
-1.365887 7.274606 0.325624
-1.254309 7.235162 0.026274
-1.441152 7.528119 0.470611
-1.233365 7.215194 -0.020544
-1.229198 7.042863 0.006708
-1.669685 7.515936 1.046161
-1.304492 7.125261 0.186011
-1.372155 7.203238 0.361406
-1.554305 7.567005 0.763474
-1.385090 7.470591 0.322185
-1.292105 7.199355 0.137426
-1.283395 7.363640 0.079149
-1.351506 7.185206 0.299098
-1.451945 7.378541 0.526987
-1.482486 7.577871 0.541832
-1.312975 7.400022 0.141811
-1.559346 7.496015 0.777994
-1.251416 7.167117 0.028768
-1.237972 7.327589 -0.042324
-1.243980 7.335691 -0.022517
-1.263025 7.354637 0.014853
-1.282107 7.118328 0.124138
-1.252731 7.166159 0.016550
-1.284268 7.294874 0.109096
-1.235899 7.153265 -0.019906
-1.369732 7.390313 0.306304
-1.441776 7.301216 0.509633
-1.458744 7.324369 0.561670
-1.563426 7.438173 0.807272
-1.301445 7.322413 0.126462
-1.295407 7.232931 0.138134
-1.449470 7.404711 0.529122
-1.344742 7.466641 0.237369
-1.673155 7.564224 1.079619
-1.459347 7.499984 0.524937
-1.443929 7.484601 0.492585
-1.542193 7.422806 0.758434
-1.354177 7.389480 0.271993
-1.245929 7.103788 0.047151
-1.232286 7.089095 0.013626
-1.555644 7.525982 0.781340
-1.369214 7.315351 0.290449
-1.245445 7.272009 -0.010893
-1.360897 7.317604 0.309019
-1.252843 7.281339 0.004059
-1.230184 7.259758 -0.041181
-1.226723 7.085118 -0.016755
-1.663260 7.558743 1.031555
-1.365910 7.245049 0.344771
-1.296495 7.167292 0.167701
-1.382547 7.516880 0.305229
-1.280361 7.411339 0.060559
-1.292522 7.244409 0.114857
-1.452139 7.424534 0.508899
-1.309936 7.447728 0.123218
-1.348758 7.229306 0.279713
-1.561160 7.542700 0.763623
-1.231918 7.373384 -0.059784
-1.238783 7.382292 -0.040766
-1.246064 7.210609 0.008482
-1.255134 7.400668 -0.001839
-1.276750 7.161841 0.103864
-1.283066 7.342357 0.089746
-1.243716 7.210106 -0.002199
-1.226944 7.196290 -0.038252
-1.367193 7.436608 0.289356
-1.452415 7.366188 0.547470
-1.437111 7.345555 0.493453
-1.559703 7.480583 0.793957
-1.450513 7.450572 0.513090
-1.295901 7.367728 0.107794
-1.343277 7.515934 0.222085
-1.294331 7.279520 0.116750
-1.464276 7.548522 0.506971
-1.444790 7.532268 0.478180
-1.352035 7.436163 0.255871
-1.555741 7.571055 0.768538
-1.542766 7.469234 0.741176
-1.247398 7.147816 0.022160
-1.232390 7.133756 -0.012213
-1.362858 7.358973 0.272983
-1.241687 7.317993 -0.030733
-1.362883 7.364252 0.289753
-1.229583 7.306719 -0.064196
-1.245476 7.326865 -0.013840
-1.382514 7.565554 0.288341
-1.362357 7.287428 0.326566
-1.221446 7.128623 -0.039482
-1.301437 7.212699 0.142807
-1.279441 7.461026 0.041207
-1.282515 7.288465 0.098928
-1.308278 7.495715 0.102609
-1.451757 7.471945 0.491607
-1.348704 7.273970 0.258758
-1.233766 7.423639 -0.083142
-1.257035 7.450014 -0.024794
-1.243263 7.434039 -0.066087
-1.241517 7.255812 -0.013010
-1.286853 7.390579 0.066439
-1.243693 7.255652 -0.026017
-1.276326 7.207017 0.079228
-1.227387 7.242239 -0.063688
-1.368147 7.485187 0.269644
-1.454953 7.410511 0.530247
-1.559463 7.524348 0.780732
-1.432053 7.389491 0.476431
-1.450641 7.496536 0.497431
-1.293909 7.414409 0.086768
-1.350573 7.570488 0.200111
-1.283127 7.321457 0.101176
-1.348527 7.483474 0.238885
-1.239822 7.191139 0.001807
-1.547161 7.518326 0.724431
-1.239648 7.365571 -0.052164
-1.230720 7.177714 -0.036893
-1.353755 7.402930 0.256655
-1.358178 7.409461 0.273143
-1.223601 7.352522 -0.084111
-1.244816 7.374738 -0.037275
-1.364866 7.333571 0.306086
-1.217088 7.172002 -0.062607
-1.276747 7.510015 0.023014
-1.295163 7.256317 0.122894
-1.283682 7.336134 0.074735
-1.305580 7.544710 0.084414
-1.445261 7.516490 0.476162
-1.343618 7.319719 0.238476
-1.228923 7.472456 -0.103846
-1.235716 7.481357 -0.082381
-1.250808 7.498546 -0.043496
-1.241438 7.302266 -0.037246
-1.277988 7.437644 0.049710
-1.238232 7.300956 -0.047139
-1.270058 7.250624 0.059311
-1.221534 7.287142 -0.085640
-1.365102 7.532901 0.251030
-1.453770 7.456203 0.514143
-1.554768 7.567776 0.767374
-1.450191 7.543919 0.482567
-1.437001 7.438963 0.455616
-1.293116 7.463192 0.065364
-1.283773 7.369631 0.078188
-1.350219 7.533741 0.220411
-1.239870 7.236698 -0.024464
-1.239736 7.416065 -0.077210
-1.354332 7.455463 0.255731
-1.224473 7.222232 -0.059666
-1.540985 7.564221 0.709410
-1.352488 7.451339 0.236877
-1.245481 7.423808 -0.063130
-1.223297 7.402618 -0.109986
-1.360287 7.377880 0.287432
-1.214971 7.216466 -0.088535
-1.276518 7.563231 0.001630
-1.286595 7.299746 0.105355
-1.305065 7.595705 0.063008
-1.279468 7.382644 0.053642
-1.446995 7.565879 0.458095
-1.342538 7.366310 0.217070
-1.220870 7.521200 -0.121792
-1.231155 7.532393 -0.103080
-1.248018 7.550274 -0.065370
-1.236780 7.349279 -0.059574
-1.276677 7.486926 0.029510
-1.234955 7.348260 -0.071471
-1.265974 7.296234 0.036184
-1.217796 7.334034 -0.108353
-1.451278 7.501604 0.497582
-1.288265 7.512028 0.044653
-1.430916 7.484829 0.438142
-1.284759 7.419103 0.055610
-1.232262 7.463391 -0.095960
-1.351686 7.503570 0.237942
-1.234482 7.282012 -0.048040
-1.352603 7.500027 0.215083
-1.221778 7.268116 -0.084798
-1.216289 7.450346 -0.130354
-1.238807 7.472854 -0.083075
-1.360910 7.425147 0.267289
-1.205980 7.261312 -0.110170
-1.284679 7.346441 0.081876
-1.277890 7.430631 0.030574
-1.221127 7.575719 -0.147665
-1.231861 7.586393 -0.127717
-1.338654 7.414151 0.196396
-1.273999 7.536832 0.008446
-1.233843 7.397886 -0.083495
-1.228468 7.395490 -0.093046
-1.264922 7.343717 0.011912
-1.213552 7.382352 -0.132720
-1.449462 7.549621 0.481856
-1.284670 7.562048 0.023968
-1.278194 7.466335 0.036476
-1.430371 7.534965 0.419603
-1.226914 7.513633 -0.118326
-1.350759 7.553270 0.218561
-1.351225 7.550245 0.194467
-1.231741 7.521493 -0.103863
-1.229434 7.328627 -0.071205
-1.208310 7.499095 -0.150758
-1.218578 7.315425 -0.111583
-1.357475 7.472466 0.247839
-1.203697 7.308503 -0.137341
-1.279157 7.392665 0.060325
-1.277976 7.481126 0.005508
-1.333856 7.462095 0.176092
-1.269772 7.589185 -0.011847
-1.229076 7.446709 -0.106662
-1.226857 7.445290 -0.119389
-1.205702 7.430201 -0.155160
-1.258896 7.391366 -0.011284
-1.276842 7.517450 0.012999
-1.224540 7.566661 -0.142244
-1.228971 7.574128 -0.128613
-1.229783 7.377303 -0.100350
-1.349735 7.602283 0.173025
-1.204571 7.552755 -0.175529
-1.214406 7.363751 -0.138404
-1.354380 7.521087 0.228800
-1.275750 7.440877 0.038011
-1.202219 7.357398 -0.165719
-1.273539 7.531265 -0.017247
-1.328087 7.511060 0.155752
-1.224197 7.497352 -0.130655
-1.222443 7.496337 -0.145000
-1.200432 7.480442 -0.179983
-1.256818 7.440772 -0.036011
-1.273659 7.568781 -0.009726
-1.216552 7.424010 -0.119684
-1.207941 7.411888 -0.162853
-1.271837 7.490514 0.014043
-1.266357 7.581737 -0.038867
-1.191697 7.405594 -0.189465
-1.331535 7.564756 0.129957
-1.208204 7.543461 -0.146006
-1.217058 7.548401 -0.170649
-1.177342 7.523800 -0.190643
-1.252402 7.491831 -0.061626
-1.215298 7.476032 -0.148478
-1.196954 7.459671 -0.184994
-1.269122 7.542252 -0.010306
-1.242140 7.541329 -0.082525
-1.210960 7.527072 -0.176561
-1.256166 7.591182 -0.029658
-1.238474 7.594995 -0.109772
-1.203355 7.578954 -0.202295
-1.156931 7.550052 -0.258022
-1.604624 6.718601 1.072698
-1.546930 6.761415 1.057370
-1.524904 6.699395 0.922697
-1.717153 6.697280 1.111202
-1.626832 6.815647 1.157635
-1.471758 6.675873 0.807685
-1.527746 6.734132 0.906570
-1.584654 6.798223 1.040645
-1.562778 6.747682 1.093550
-1.622008 6.851972 1.140794
-1.623556 6.779293 1.154564
-1.685751 6.695092 1.147510
-1.429729 6.659760 0.696010
-1.466233 6.714574 0.793676
-1.528660 6.771891 0.889966
-1.582786 6.837287 1.024751
-1.522297 6.698611 0.900546
-1.619486 6.886586 1.124863
-1.590269 6.783751 1.075994
-1.625978 6.742499 1.154990
-1.622801 6.815473 1.137073
-1.585123 6.739803 1.127562
-1.427489 6.697551 0.679682
-1.396273 6.657015 0.576551
-1.468428 6.753517 0.777128
-1.490834 6.697294 0.828568
-1.524265 6.807708 0.874367
-1.526527 6.734534 0.882031
-1.582269 6.875689 1.009731
-1.618251 6.922372 1.108991
-1.619862 6.699750 1.152593
-1.590305 6.820712 1.060174
-1.618511 6.851282 1.119029
-1.624405 6.778823 1.135423
-1.600575 6.774478 1.110325
-1.390411 6.649787 0.489265
-1.443009 6.733185 0.659587
-1.423547 6.662332 0.669221
-1.369226 6.698419 0.570245
-1.479753 6.790195 0.759727
-1.467307 6.736859 0.815459
-1.522995 6.844432 0.858085
-1.501195 6.686211 0.863707
-1.329227 6.641234 0.408278
-1.619679 6.957748 1.094455
-1.522594 6.771668 0.864412
-1.512047 6.698514 0.878081
-1.578610 6.914107 0.994993
-1.616551 6.736353 1.131321
-1.585854 6.858353 1.043765
-1.616852 6.887601 1.101916
-1.612077 6.814936 1.116232
-1.603403 6.810121 1.093800
-1.313712 6.637225 0.365954
-1.346434 6.693216 0.488806
-1.569372 6.760943 1.145793
-1.439897 6.770193 0.644044
-1.411308 6.701608 0.654532
-1.378813 6.735396 0.551138
-1.474220 6.829821 0.745322
-1.395337 6.681427 0.600703
-1.496747 6.772681 0.794716
-1.518088 6.880774 0.843698
-1.482691 6.724576 0.849985
-1.615339 6.992635 1.079275
-1.510433 6.669369 0.900826
-1.411410 6.670420 0.356180
-1.519982 6.809058 0.847259
-1.571810 6.952543 0.980539
-1.509528 6.735917 0.858478
-1.582755 6.895333 1.028230
-1.611379 6.774143 1.110387
-1.612576 6.923416 1.083879
-1.609994 6.851788 1.097877
-1.288128 6.645104 0.291790
-1.293600 6.651430 0.303065
-1.335683 6.631296 0.438761
-1.603975 6.846562 1.076778
-1.372531 6.728706 0.462612
-1.612784 6.792349 1.128884
-1.398361 6.665632 0.309461
-1.439911 6.808106 0.627819
-1.431988 6.735136 0.631788
-1.394114 6.657351 0.455543
-1.397431 6.772855 0.529955
-1.397213 6.718163 0.584139
-1.405521 6.666648 0.644810
-1.495874 6.809798 0.779270
-1.479983 6.869135 0.729340
-1.510533 6.917534 0.827980
-1.502715 6.759520 0.830488
-1.613599 7.028947 1.064618
-1.408420 6.670881 0.634319
-1.577174 6.698754 0.875063
-1.496516 6.692472 0.850069
-1.311644 6.720557 0.384907
-1.513339 6.845682 0.831168
-1.507441 6.772791 0.840120
-1.580976 6.932569 1.013162
-1.570760 6.992389 0.966328
-1.610044 6.958955 1.067550
-1.599521 6.811580 1.089179
-1.605294 6.888136 1.078599
-1.600517 6.882236 1.060817
-1.411925 6.659046 0.391319
-1.297260 6.683546 0.271033
-1.612635 6.826181 1.111009
-1.284253 6.692540 0.292178
-1.370708 6.766901 0.447128
-1.313660 6.714941 0.332678
-1.439964 6.845102 0.612004
-1.431610 6.772666 0.614728
-1.341877 6.701997 0.458428
-1.398206 6.812469 0.514993
-1.299709 6.642634 0.318828
-1.422988 6.702030 0.621530
-1.405859 6.756186 0.565000
-1.491827 6.847851 0.763699
-1.282761 6.633161 0.296448
-1.468592 6.908266 0.716742
-1.407937 6.641662 0.293455
-1.510103 6.954118 0.813784
-1.501059 6.795864 0.813374
-1.611866 7.065260 1.049964
-1.497290 6.740788 0.866999
-1.401243 6.708046 0.619428
-1.357247 6.633773 0.456419
-1.507128 6.881777 0.816320
-1.413260 6.654748 0.668396
-1.336769 6.758018 0.358274
-1.503061 6.729451 0.828798
-1.508905 6.810038 0.822321
-1.610143 6.995001 1.052151
-1.582353 6.969790 0.997818
-1.571980 7.031436 0.952620
-1.602337 6.924210 1.061029
-1.591716 6.916890 1.045453
-1.598858 6.848701 1.068844
-1.601142 6.862162 1.093901
-1.287559 6.723352 0.259723
-1.328348 6.708238 0.409271
-1.367085 6.804448 0.432796
-1.290669 6.730464 0.272946
-1.320078 6.752859 0.313447
-1.435924 6.883167 0.596435
-1.354158 6.658467 0.445334
-1.432158 6.810062 0.597300
-1.362635 6.736462 0.432832
-1.394000 6.852369 0.501057
-1.420411 6.738525 0.604786
-1.408111 6.794227 0.548869
-1.401108 6.668635 0.250764
-1.395042 6.661304 0.612918
-1.488181 6.886292 0.748966
-1.511517 6.990435 0.798848
-1.398176 6.656260 0.218329
-1.303450 6.693390 0.326080
-1.469383 6.947866 0.701789
-1.502984 6.831663 0.797226
-1.609252 7.100791 1.036091
-1.396935 6.664123 0.422599
-1.418225 6.743027 0.597764
-1.511911 6.776541 0.847286
-1.511756 6.919009 0.798249
-1.406611 6.691393 0.652299
-1.505058 6.845347 0.805526
-1.337155 6.797257 0.342479
-1.498749 6.766210 0.810351
-1.609824 7.031579 1.035514
-1.574682 7.007446 0.984149
-1.567828 7.070384 0.939103
-1.312249 6.632885 0.331992
-1.595853 6.953708 1.028996
-1.598076 6.960033 1.042999
-1.301716 6.634892 0.334833
-1.600480 6.896519 1.077237
-1.293375 6.620234 0.295222
-1.590591 6.885602 1.048606
-1.290700 6.762198 0.242813
-1.338051 6.745233 0.387723
-1.294305 6.769710 0.254424
-1.368890 6.843946 0.415020
-1.431397 6.920837 0.582482
-1.315871 6.792775 0.299508
-1.364776 6.695325 0.423413
-1.428088 6.849050 0.581325
-1.359509 6.774410 0.416888
-1.393479 6.891733 0.485639
-1.422374 6.776190 0.585375
-1.508839 7.027822 0.784159
-1.408109 6.833068 0.532243
-1.485462 6.924603 0.733865
-1.288289 6.720666 0.289587
-1.608845 7.137358 1.021906
-1.281054 6.709336 0.262289
-1.396603 6.698589 0.592669
-1.470607 6.986934 0.688081
-1.314566 6.730653 0.302548
-1.492648 6.869750 0.782217
-1.349488 6.647006 0.475763
-1.510295 6.811967 0.830582
-1.347991 6.707860 0.423169
-1.410112 6.781248 0.582843
-1.505528 6.956027 0.783002
-1.414570 6.725888 0.632715
-1.328392 6.836925 0.330806
-1.500237 6.882630 0.788292
-1.351593 6.632770 0.421466
-1.603607 7.068578 1.020273
-1.501634 6.803725 0.790571
-1.576437 7.045974 0.969239
-1.587429 6.989673 1.014066
-1.597594 6.930759 1.060484
-1.403968 6.659822 0.269254
-1.564046 7.110637 0.926017
-1.599566 6.997264 1.025213
-1.423434 6.657949 0.256158
-1.372918 6.646706 0.234841
-1.587218 6.922213 1.029798
-1.345367 6.783932 0.367719
-1.362526 6.881899 0.401809
-1.294311 6.802361 0.223887
-1.299260 6.809204 0.236369
-1.428685 6.959158 0.567384
-1.314954 6.831768 0.283254
-1.300696 6.623496 0.352744
-1.342385 6.735173 0.415670
-1.424583 6.886600 0.564554
-1.359116 6.812875 0.399428
-1.387483 6.930986 0.472859
-1.503968 7.064175 0.769788
-1.605720 7.173411 1.009245
-1.416631 6.813624 0.568509
-1.484982 6.963030 0.718860
-1.408116 6.871910 0.515621
-1.300725 6.758182 0.266521
-1.410542 6.733598 0.568840
-1.296740 6.746848 0.236496
-1.493637 6.906604 0.766040
-1.312333 6.769397 0.285828
-1.390071 6.678138 0.441168
-1.504616 6.847546 0.814533
-1.467346 7.026687 0.673786
-1.415657 6.818366 0.564399
-1.349955 6.745540 0.403758
-1.502458 6.993031 0.767479
-1.421555 6.762352 0.612692
-1.603727 7.104627 1.004883
-1.496342 6.919781 0.770690
-1.326037 6.876572 0.316132
-1.457028 6.656763 0.356017
-1.576393 7.083852 0.955482
-1.493269 6.840640 0.772781
-1.594189 6.965522 1.044940
-1.584362 7.026660 0.998545
-1.597025 7.033729 1.008487
-1.295850 6.711201 0.303776
-1.565653 7.150990 0.912748
-1.307966 6.710399 0.293649
-1.281701 6.696980 0.263109
-1.583853 6.958827 1.010993
-1.341727 6.822406 0.352986
-1.288836 6.841114 0.209897
-1.359783 6.921153 0.386303
-1.295593 6.848605 0.221230
-1.429129 6.997462 0.552009
-1.306725 6.870922 0.270379
-1.361813 6.636204 0.267866
-1.357596 6.652775 0.305332
-1.349837 6.772966 0.393628
-1.423710 6.924655 0.548714
-1.358731 6.851341 0.381971
-1.602177 7.209998 0.995346
-1.504816 7.102850 0.755254
-1.284544 6.640926 0.276954
-1.389177 6.971386 0.457133
-1.484509 7.001459 0.703858
-1.412176 6.852232 0.551703
-1.307262 6.796114 0.244850
-1.399891 6.911045 0.502750
-1.415269 6.770864 0.548318
-1.503902 6.883762 0.797058
-1.491847 6.944780 0.750573
-1.293562 6.786649 0.219742
-1.306431 6.808681 0.270596
-1.350325 6.720545 0.438031
-1.468554 7.066673 0.659678
-1.408872 6.856844 0.549948
-1.352846 6.783085 0.383980
-1.501202 7.030684 0.750810
-1.425790 6.799217 0.593785
-1.600149 7.142133 0.990575
-1.590367 7.000820 1.028157
-1.578557 7.122765 0.941414
-1.344229 6.708449 0.384220
-1.319096 6.916894 0.303317
-1.493737 6.958104 0.753148
-1.588388 7.064386 0.984139
-1.488001 6.879379 0.753901
-1.592623 7.071383 0.992100
-1.564149 7.190443 0.900168
-1.303797 6.749402 0.280120
-1.305342 6.748760 0.276096
-1.290597 6.734129 0.239489
-1.287375 6.881552 0.194447
-1.581776 6.996612 0.992249
-1.338558 6.862198 0.336238
-1.357936 6.961192 0.370023
-1.424594 7.036054 0.537660
-1.289044 6.889319 0.209249
-1.309468 6.910295 0.252240
-1.311334 6.680608 0.272463
-1.419300 6.962343 0.532321
-1.292841 6.698800 0.317111
-1.347614 6.811705 0.376913
-1.603466 7.248121 0.982062
-1.505279 7.141139 0.739889
-1.355535 6.892050 0.364818
-1.389964 6.665480 0.200477
-1.380442 7.011048 0.445474
-1.409599 6.889654 0.534565
-1.482176 7.041077 0.689196
-1.503588 6.920364 0.780421
-1.398469 6.950544 0.487711
-1.299004 6.836190 0.231569
-1.490095 6.982039 0.735515
-1.309695 6.847536 0.251249
-1.293149 6.826047 0.201879
-1.409078 6.809754 0.529807
-1.354136 6.757957 0.417882
-1.464784 7.106948 0.646596
-1.408526 6.894383 0.532902
-1.347052 6.822375 0.366304
-1.502548 7.069759 0.734664
-1.425964 6.836233 0.575531
-1.599334 7.179236 0.975156
-1.590095 7.036488 1.011933
-1.586678 7.100708 0.969495
-1.573511 7.161850 0.928279
-1.324046 6.957298 0.284867
-1.493370 6.996545 0.735701
-1.341678 6.747736 0.363814
-1.485890 6.918103 0.734747
-1.592298 7.108886 0.975067
-1.304856 6.787224 0.261086
-1.558948 7.231355 0.888671
-1.302333 6.786736 0.257712
-1.285224 6.772899 0.223052
-1.282278 6.921613 0.180891
-1.420986 7.074513 0.522943
-1.334903 6.901594 0.321105
-1.353372 7.000717 0.355266
-1.581939 7.034515 0.973600
-1.283029 6.929515 0.196066
-1.307099 6.950864 0.237166
-1.419330 7.001183 0.515710
-1.296768 6.720720 0.259736
-1.600724 7.285480 0.969838
-1.298623 6.735048 0.294178
-1.341754 6.850065 0.362094
-1.513329 7.180554 0.724026
-1.350603 6.930273 0.349631
-1.274439 6.717042 0.240827
-1.382152 7.051447 0.429756
-1.496063 6.957138 0.764716
-1.406079 6.928131 0.517394
-1.393935 6.989145 0.473362
-1.482082 7.080810 0.674630
-1.489238 7.020083 0.719683
-1.296237 6.876378 0.215658
-1.284010 6.865344 0.189379
-1.354804 6.795386 0.398015
-1.403319 6.848115 0.512541
-1.304698 6.887606 0.235246
-1.458297 7.146711 0.635038
-1.408550 6.933227 0.516288
-1.494513 7.107055 0.720173
-1.339851 6.861404 0.350615
-1.598890 7.217642 0.960169
-1.418795 6.874327 0.560250
-1.587993 7.072425 0.996455
-1.580876 7.138104 0.955098
-1.569421 7.199884 0.915183
-1.318041 6.997488 0.271688
-1.489892 7.034087 0.718944
-1.336834 6.785975 0.346174
-1.586993 7.146678 0.959058
-1.481062 6.956315 0.717116
-1.300411 6.825857 0.244282
-1.560054 7.272227 0.876618
-1.296938 6.826424 0.240873
-1.286785 6.811123 0.202407
-1.421422 7.113735 0.507172
-1.354720 7.039816 0.339120
-1.334011 6.940585 0.304862
-1.279521 6.961801 0.164985
-1.286674 6.969673 0.177154
-1.303427 6.991184 0.221632
-1.577092 7.073626 0.955569
-1.603338 7.323853 0.957024
-1.507436 7.217951 0.712079
-1.413462 7.040448 0.500494
-1.339153 6.888420 0.344551
-1.297012 6.758694 0.238626
-1.304350 6.773132 0.270436
-1.346535 6.970200 0.333263
-1.497076 6.993994 0.748549
-1.382951 7.091980 0.414412
-1.286204 6.753801 0.213651
-1.473919 7.119018 0.662180
-1.400760 6.965961 0.501377
-1.485633 7.058533 0.704969
-1.394335 7.029293 0.457181
-1.293084 6.916180 0.198916
-1.283219 6.904356 0.170688
-1.350887 6.833490 0.380007
-1.299739 6.926758 0.219654
-1.468463 7.189921 0.617643
-1.402132 6.886724 0.493016
-1.404514 6.972225 0.500328
-1.494066 7.145482 0.705183
-1.596646 7.255401 0.946334
-1.418984 6.911345 0.542003
-1.584059 7.108634 0.981722
-1.340898 6.900138 0.331182
-1.577707 7.176003 0.941631
-1.571970 7.240101 0.901553
-1.319362 7.037511 0.255136
-1.486815 7.072015 0.703024
-1.334330 6.824347 0.326182
-1.593708 7.186750 0.942329
-1.484378 6.994220 0.698188
-1.292691 6.865418 0.229801
-1.560219 7.314152 0.864534
-1.288856 6.864681 0.225964
-1.411953 7.151703 0.494260
-1.352009 7.079071 0.323628
-1.282315 6.850679 0.185200
-1.276773 7.001989 0.149082
-1.333067 6.981413 0.287810
-1.284319 7.010245 0.162087
-1.304325 7.031743 0.203840
-1.573203 7.111686 0.937578
-1.605011 7.363276 0.944177
-1.499814 7.255632 0.698431
-1.408550 7.078660 0.485317
-1.334197 6.927568 0.328961
-1.294508 6.797073 0.218634
-1.304604 6.811105 0.249331
-1.345263 7.008802 0.316191
-1.496753 7.031518 0.731515
-1.381891 7.133702 0.399409
-1.476041 7.159784 0.647306
-1.477998 7.096220 0.691314
-1.283700 6.792183 0.193659
-1.395662 7.069305 0.440633
-1.399982 7.004953 0.482693
-1.286688 6.955992 0.184904
-1.278630 6.944818 0.155526
-1.297121 6.966039 0.201710
-1.346452 6.872116 0.363208
-1.469147 7.231342 0.604349
-1.395953 7.010064 0.487040
-1.495433 7.184555 0.689047
-1.592701 7.145684 0.965469
-1.393633 6.925494 0.476871
-1.589947 7.292932 0.932318
-1.332825 6.938388 0.316278
-1.408681 6.949464 0.527008
-1.583044 7.214895 0.927294
-1.572690 7.280586 0.888670
-1.318299 7.079245 0.240130
-1.489984 7.111741 0.685737
-1.327695 6.861941 0.309698
-1.587499 7.224679 0.926699
-1.427243 7.193717 0.473805
-1.295157 6.904424 0.208387
-1.476810 7.032839 0.681678
-1.562593 7.357108 0.852139
-1.293129 6.904335 0.203400
-1.349244 7.120162 0.307326
-1.278772 6.890101 0.167624
-1.279453 7.044118 0.129736
-1.324479 7.020185 0.274116
-1.285193 7.051725 0.143889
-1.298861 7.071414 0.189462
-1.602683 7.401020 0.932797
-1.570633 7.149997 0.920053
-1.505100 7.296367 0.683284
-1.409461 7.119202 0.467532
-1.331057 6.967366 0.312224
-1.289255 6.835859 0.199759
-1.301584 6.850003 0.230549
-1.342130 7.048594 0.299458
-1.489644 7.068684 0.716655
-1.481595 7.135414 0.675270
-1.375388 7.174401 0.387449
-1.475021 7.200572 0.632714
-1.276116 6.830843 0.177138
-1.389284 7.109097 0.426630
-1.392811 7.043975 0.467018
-1.283551 6.995796 0.168169
-1.272736 6.985031 0.139904
-1.588782 7.181894 0.950742
-1.339793 6.910629 0.346321
-1.589393 7.332245 0.919381
-1.491822 7.223920 0.673937
-1.464854 7.273056 0.592080
-1.292118 7.007031 0.185312
-1.394133 7.050099 0.470772
-1.404685 6.987545 0.511459
-1.386950 6.964917 0.459580
-1.334775 6.977905 0.296074
-1.580777 7.253577 0.913056
-1.570269 7.321092 0.876069
-1.317739 7.121375 0.223515
-1.480623 7.149713 0.670383
-1.325570 6.901620 0.290142
-1.423109 7.233613 0.459900
-1.587042 7.264007 0.911312
-1.291623 6.943843 0.190815
-1.348355 7.160063 0.290691
-1.562249 7.399551 0.841268
-1.475095 7.072873 0.662966
-1.289202 6.943370 0.184995
-1.273926 6.929275 0.149589
-1.603845 7.440962 0.921162
-1.281222 7.086380 0.110764
-1.325752 7.062046 0.256757
-1.289689 7.094496 0.123398
-1.301522 7.114455 0.169714
-1.506325 7.337257 0.668792
-1.576016 7.190741 0.902459
-1.404040 7.157937 0.453568
-1.321554 7.006276 0.298903
-1.295845 6.888390 0.213290
-1.284930 6.874511 0.180516
-1.488811 7.106729 0.700834
-1.339893 7.089170 0.281952
-1.481132 7.174762 0.659880
-1.385115 7.219068 0.368412
-1.474403 7.241743 0.618961
-1.275960 6.869354 0.154798
-1.397398 7.083979 0.447748
-1.386004 7.150705 0.411539
-1.584315 7.219543 0.936819
-1.279474 7.036655 0.151402
-1.595085 7.373350 0.905076
-1.487723 7.262889 0.660442
-1.288990 7.046834 0.168581
-1.270071 7.026154 0.121153
-1.335374 6.949258 0.329529
-1.396914 7.089455 0.452652
-1.462770 7.315801 0.579501
-1.406148 7.026653 0.492872
-1.582454 7.293008 0.900211
-1.390744 7.004155 0.438637
-1.327607 7.016941 0.280400
-1.571369 7.362879 0.863621
-1.320830 7.163876 0.205012
-1.481941 7.190627 0.653439
-1.419477 7.273906 0.444386
-1.583473 7.302438 0.896615
-1.324898 6.940642 0.269012
-1.605013 7.480903 0.909531
-1.563195 7.443160 0.830458
-1.283504 6.983943 0.175104
-1.355954 7.204632 0.269115
-1.469773 7.111611 0.646555
-1.282001 6.983334 0.168912
-1.278437 7.128402 0.094059
-1.322106 7.102362 0.241235
-1.271783 6.969880 0.129631
-1.281847 7.135882 0.110568
-1.300577 7.156199 0.152268
-1.500401 7.376491 0.656045
-1.572907 7.230491 0.885741
-1.409893 7.200017 0.433954
-1.330281 7.047065 0.276129
-1.487985 7.144775 0.685015
-1.277330 6.914093 0.163596
-1.291499 6.927961 0.193645
-1.335828 7.130016 0.265191
-1.481041 7.215414 0.644921
-1.378598 7.260684 0.356053
-1.469755 7.282154 0.606268
-1.384992 7.191507 0.396950
-1.582610 7.256788 0.921784
-1.591002 7.412298 0.891590
-1.398814 7.124921 0.428355
-1.267442 6.909074 0.138249
-1.285418 7.078771 0.129335
-1.487217 7.304068 0.644246
-1.273290 7.067762 0.100606
-1.290373 7.088710 0.148778
-1.393273 7.129760 0.437133
-1.463813 7.359440 0.566240
-1.339665 6.988904 0.306975
-1.578366 7.331961 0.886723
-1.400825 7.065406 0.476459
-1.385914 7.043308 0.420611
-1.326787 7.057784 0.260910
-1.568467 7.402987 0.852639
-1.313916 7.205119 0.191816
-1.485073 7.232185 0.635350
-1.418418 7.316533 0.428990
-1.581164 7.342955 0.881572
-1.603011 7.521782 0.897776
-1.317307 6.980216 0.252096
-1.348650 7.245482 0.255086
