# .PCD v0.7 - Point Cloud Data file format
VERSION 0.7
FIELDS x y z
SIZE 4 4 4
TYPE F F F
COUNT 1 1 1
WIDTH 53
HEIGHT 1
VIEWPOINT 0 0 0 1
POINTS 53
DATA ascii
-4.468382 44.471371 0.475081
-4.425816 44.419361 0.494417
-4.488364 44.375542 0.450352
-4.449126 44.354599 0.488127
-4.495516 44.213493 0.371139
-4.413275 44.301437 0.504870
-4.458759 44.292858 0.479193
-4.500477 44.155525 0.369038
-4.425696 44.245533 0.498763
-4.466780 44.242432 0.483238
-4.395230 44.183559 0.506703
-4.438112 44.187611 0.495799
-4.409940 44.138233 0.511864
-4.384431 44.075554 0.515900
-4.519611 43.740845 0.448056
-4.512514 43.813221 0.449087
-4.492389 43.601578 0.460463
-4.509691 43.561722 0.451065
-4.498027 43.632271 0.457580
-4.496758 43.695858 0.459982
-4.489887 43.756081 0.457307
-4.470629 43.554062 0.461570
-4.484696 43.504650 0.444076
-4.476560 43.586128 0.463380
-4.475632 43.634335 0.456194
-4.469310 43.681206 0.445881
-4.450391 43.477798 0.433071
-4.457538 43.514492 0.443262
-4.462776 43.407860 0.393133
-4.456452 43.554070 0.431788
-4.452117 43.584084 0.412222
-4.433196 43.404831 0.403868
-4.501033 43.448883 0.461154
-4.441025 43.424950 0.400535
-4.440433 43.366116 0.398571
-4.440638 43.474224 0.404509
-4.434384 43.526917 0.413795
-4.413772 43.369591 0.414479
-4.481101 43.381950 0.439293
-4.422779 43.388741 0.413066
-4.410464 43.421772 0.512351
-4.423339 43.429077 0.411924
-4.415718 43.488869 0.432427
-4.385618 43.421883 0.522319
-4.508639 43.371395 0.452713
-4.462430 43.306915 0.405246
-4.403563 43.369957 0.444426
-4.387320 43.387650 0.528404
-4.403997 43.407604 0.444079
-4.392542 43.520668 0.524233
-4.377975 43.402016 0.534173
-4.379405 43.442581 0.538880
-4.375823 43.478291 0.541044
