# .PCD v0.7 - Point Cloud Data file format
VERSION 0.7
FIELDS x y z
SIZE 4 4 4
TYPE F F F
COUNT 1 1 1
WIDTH 43
HEIGHT 1
VIEWPOINT 0 0 0 1
POINTS 43
DATA ascii
-9.697131 47.667072 -1.649374
-9.705173 47.704418 -1.616674
-9.673257 47.724106 -1.607777
-9.680273 47.690716 -1.620458
-9.653671 47.648483 -1.642747
-9.646102 47.701939 -1.602914
-9.645416 47.659069 -1.626928
-9.628854 47.723621 -1.591792
-9.637741 47.709270 -1.593832
-9.618737 47.643215 -1.632998
-9.616957 47.636658 -1.630679
-9.586791 47.649643 -1.614444
-9.565176 47.658867 -1.609243
-9.602940 47.634567 -1.620787
-9.586808 47.722477 -1.582420
-9.585353 47.632877 -1.620131
-9.568976 47.645084 -1.616154
-9.552629 47.631039 -1.601527
-9.579161 47.622746 -1.620189
-9.570439 47.623199 -1.605888
-9.532600 47.639294 -1.593586
-9.525681 47.663929 -1.595860
-9.552135 47.621548 -1.607347
-9.540210 47.637020 -1.596773
-9.520243 47.614685 -1.587739
-9.546334 47.613342 -1.605132
-9.538103 47.610847 -1.591071
-9.499095 47.616753 -1.580995
-9.491848 47.643349 -1.583109
-9.520162 47.611320 -1.593072
-9.506955 47.621586 -1.583613
-9.487482 47.596306 -1.574822
-9.516362 47.608276 -1.587627
-9.467679 47.594597 -1.569100
-9.501821 47.592171 -1.581690
-9.487650 47.600048 -1.579587
-9.472786 47.603081 -1.572112
-9.456822 47.578205 -1.561194
-9.481915 47.595741 -1.574938
-9.472818 47.581299 -1.566077
-9.456698 47.588013 -1.566178
-9.448325 47.582378 -1.563032
-9.439345 47.562965 -1.555281
