# .PCD v0.7 - Point Cloud Data file format
VERSION 0.7
FIELDS x y z
SIZE 4 4 4
TYPE F F F
COUNT 1 1 1
WIDTH 22
HEIGHT 1
VIEWPOINT 0 0 0 1
POINTS 22
DATA ascii
-10.277612 35.988026 -1.699537
-10.306362 36.051189 -1.650700
-10.328259 35.942837 -1.722031
-10.294347 36.135113 -1.681140
-10.289726 36.168171 -1.638479
-10.285363 36.012066 -1.729923
-10.484975 36.146599 -1.696933
-10.300449 36.275074 -1.665337
-10.281039 36.135174 -1.722202
-10.478177 36.273994 -1.693497
-10.291494 36.402985 -1.653581
-10.296144 36.291634 -1.706486
-10.445225 36.373894 -1.699440
-10.310267 36.455921 -1.688853
-10.347859 36.388779 -1.725124
-10.313277 36.615776 -1.674575
-10.312813 36.489616 -1.729130
-10.541943 36.680817 -1.719578
-10.297715 36.752998 -1.665221
-10.310848 36.646648 -1.718986
-10.540592 36.850029 -1.714111
-10.324057 36.835831 -1.702371
