# .PCD v0.7 - Point Cloud Data file format
VERSION 0.7
FIELDS x y z
SIZE 4 4 4
TYPE F F F
COUNT 1 1 1
WIDTH 14
HEIGHT 1
VIEWPOINT 0 0 0 1
POINTS 14
DATA ascii
-10.998617 45.201946 -1.994903
-11.019200 45.136639 -1.999630
-10.996863 45.169853 -1.994121
-11.050105 45.117081 -2.050470
-11.011900 45.247501 -1.984508
-10.978896 45.133415 -1.983385
-11.019167 45.106281 -1.998709
-11.048719 45.230003 -2.033378
-11.006037 45.085197 -2.002733
-10.961274 45.103996 -1.978467
-11.052747 45.092354 -2.052233
-10.988085 45.046745 -1.988425
-11.037078 45.048462 -2.034013
-11.016287 44.989262 -1.998237
