# .PCD v0.7 - Point Cloud Data file format
VERSION 0.7
FIELDS x y z
SIZE 4 4 4
TYPE F F F
COUNT 1 1 1
WIDTH 48
HEIGHT 1
VIEWPOINT 0 0 0 1
POINTS 48
DATA ascii
-12.926736 44.987675 -4.835261
-12.841865 45.133789 -4.797215
-12.948548 45.056244 -4.853467
-12.935801 45.093929 -4.856246
-12.778975 45.064346 -5.147698
-12.843831 44.971474 -5.109958
-12.868118 45.172348 -4.788130
-12.826871 45.034126 -5.201113
-12.980682 45.109905 -4.876693
-12.858622 45.014839 -5.024598
-12.827577 45.052467 -5.143829
-12.854952 45.059078 -5.113297
-12.775565 45.085571 -5.078880
-12.983198 45.106640 -4.855793
-12.865501 45.085697 -5.227178
-13.020705 45.152103 -4.903837
-13.408680 43.953197 -6.086639
-12.951909 45.127201 -4.820423
-12.905431 45.002136 -4.961814
-12.898307 45.055061 -5.051751
-12.891356 45.106953 -5.138098
-12.832259 44.945496 -5.239643
-12.935944 45.090359 -5.279558
-12.804288 45.024208 -5.317340
-12.820610 45.077312 -5.083270
-13.118367 45.124821 -4.964081
-12.813738 45.044952 -5.429815
-12.933719 45.057442 -4.980494
-12.925417 45.113613 -5.067772
-13.132011 45.129803 -4.881660
-12.953565 45.120087 -5.181544
-12.834311 45.047798 -5.229990
-12.837718 45.079689 -5.336197
-13.438490 43.960918 -6.107171
-13.436293 43.969410 -6.106851
-12.879045 45.057579 -5.482178
-12.965909 45.103981 -5.002145
-12.983918 45.128368 -5.108081
-12.875224 45.087795 -5.255574
-12.912943 45.074390 -5.394977
-12.845742 45.031929 -5.451209
-12.837770 45.047470 -5.446660
-13.019672 45.124569 -5.036646
-12.943758 45.090706 -5.306664
-12.903447 45.055923 -5.489621
-12.901812 45.060261 -5.494146
-14.037976 44.360146 -5.424900
-14.068564 44.426308 -5.399995
