# .PCD v0.7 - Point Cloud Data file format
VERSION 0.7
FIELDS x y z
SIZE 4 4 4
TYPE F F F
COUNT 1 1 1
WIDTH 63
HEIGHT 1
VIEWPOINT 0 0 0 1
POINTS 63
DATA ascii
-6.381828 32.708031 -0.100580
-6.486994 32.727013 -0.132910
-6.411441 32.675182 -0.109164
-6.299640 32.663185 -0.059433
-6.425426 32.716431 -0.109367
-6.523358 32.697384 -0.155355
-6.441404 32.644440 -0.118395
-6.326175 32.698887 -0.071234
-6.341629 32.631756 -0.078533
-6.460497 32.686726 -0.123367
-6.552912 32.667145 -0.167843
-6.478408 32.615852 -0.140148
-6.371652 32.669624 -0.095350
-6.385483 32.603626 -0.102895
-6.496088 32.657513 -0.138587
-6.583042 32.637680 -0.180595
-6.505334 32.585613 -0.143097
-6.411706 32.639965 -0.109646
-6.424726 32.574528 -0.117315
-6.493834 32.522465 -0.233398
-6.536158 32.631168 -0.162221
-6.613749 32.608986 -0.193610
-6.551110 32.561504 -0.178155
-6.452052 32.612133 -0.125547
-6.468392 32.548023 -0.141106
-6.471361 32.529713 -0.223579
-6.560390 32.600658 -0.156585
-6.584370 32.534554 -0.191833
-6.636471 32.577717 -0.189753
-6.492162 32.585636 -0.141834
-6.516589 32.524670 -0.172350
-6.517112 32.505173 -0.252247
-6.461588 32.526917 -0.222991
-6.593464 32.572441 -0.166745
-6.618206 32.508373 -0.205775
-6.674562 32.553291 -0.215935
-6.416308 32.565689 -0.124113
-6.540467 32.562847 -0.171164
-6.580781 32.509216 -0.232936
-6.641260 32.552479 -0.204192
-6.676364 32.494785 -0.266571
-6.712699 32.529148 -0.241160
-6.464831 32.541130 -0.146670
-6.579920 32.537766 -0.184701
-6.642640 32.496029 -0.291973
-6.680149 32.529945 -0.226807
-6.736135 32.482956 -0.330064
-6.744899 32.504108 -0.255349
-6.520267 32.520626 -0.180216
-6.622516 32.515633 -0.205556
-6.712860 32.504971 -0.235823
-6.792222 32.487263 -0.299957
-6.595889 32.511951 -0.252858
-6.684191 32.504066 -0.264023
-6.765119 32.490772 -0.284627
-6.839304 32.471760 -0.344948
-6.656029 32.498764 -0.300320
-6.737426 32.490143 -0.309833
-6.819699 32.480095 -0.340867
-6.892138 32.461662 -0.403345
-6.705404 32.482594 -0.330632
-6.793437 32.479519 -0.358862
-6.871767 32.470413 -0.392040
