# .PCD v0.7 - Point Cloud Data file format
VERSION 0.7
FIELDS x y z
SIZE 4 4 4
TYPE F F F
COUNT 1 1 1
WIDTH 23
HEIGHT 1
VIEWPOINT 0 0 0 1
POINTS 23
DATA ascii
-1.889938 37.202518 1.480253
-1.886305 37.121639 1.478752
-1.890688 37.169662 1.488796
-1.883035 37.229267 1.479095
-1.878973 37.150139 1.533978
-1.880204 37.115383 1.539844
-1.886389 37.060562 1.515987
-1.891094 37.174397 1.512989
-1.854872 37.101486 1.606206
-1.856880 37.062244 1.608296
-1.922545 36.917290 1.489670
-1.962391 36.979645 1.523299
-1.773224 36.909256 1.602175
-1.969607 36.855629 1.477490
-2.004070 36.854923 1.496266
-1.904629 36.832466 1.497936
-2.020652 36.795166 1.459955
-1.960480 36.770309 1.482101
-2.013605 36.710590 1.467022
-1.936280 36.690281 1.489853
-2.003453 36.630695 1.465648
-1.920287 36.598278 1.504636
-1.995965 36.537754 1.475911
