# .PCD v0.7 - Point Cloud Data file format
VERSION 0.7
FIELDS x y z
SIZE 4 4 4
TYPE F F F
COUNT 1 1 1
WIDTH 241
HEIGHT 1
VIEWPOINT 0 0 0 1
POINTS 241
DATA ascii
2.715506 -1.438740 1.678408
2.656612 -1.433909 1.763493
2.765244 -1.441568 1.491336
2.697573 -1.439800 1.726433
2.688377 -1.454777 1.564442
2.600460 -1.451011 1.630568
2.711386 -1.446730 1.586411
2.599131 -1.440158 2.122573
2.684040 -1.439730 1.355452
2.675802 -1.438906 1.893464
2.519407 -1.429414 2.336689
2.562597 -1.457130 1.718620
2.643455 -1.448909 1.632507
2.591542 -1.459049 1.677578
2.652232 -1.462836 1.452490
2.516258 -1.427395 2.236694
2.494245 -1.441439 2.203722
2.568163 -1.431248 2.163620
2.581928 -1.442161 1.979597
2.564322 -1.464069 1.515615
2.491412 -1.461267 1.584719
2.487062 -1.451418 2.060729
2.588340 -1.460020 1.537582
2.422345 -1.445637 2.270822
2.434489 -1.456427 1.649801
2.549740 -1.452201 1.833639
2.521391 -1.458195 1.577677
2.471605 -1.429580 2.481757
2.451421 -1.453374 1.607778
2.518162 -1.467152 1.401679
2.400195 -1.455657 2.149850
2.426226 -1.448604 2.183816
2.512000 -1.448350 2.024694
2.456087 -1.442507 2.096775
2.371948 -1.424898 2.733900
2.401835 -1.442793 2.623852
2.447263 -1.470345 1.468779
2.466863 -1.453430 1.920756
2.392377 -1.473501 1.544856
2.310002 -1.437057 2.753984
2.390019 -1.466645 2.010861
2.439365 -1.446607 2.288797
2.465275 -1.466309 1.486754
2.334302 -1.464841 2.213941
2.344467 -1.474638 1.608923
2.417355 -1.472440 1.533820
2.374552 -1.446805 2.421889
2.270066 -1.435171 2.804041
2.437696 -1.467464 1.782793
2.361403 -1.472586 1.567899
2.398582 -1.448753 2.439855
2.307142 -1.467874 2.097979
2.413139 -1.482402 1.365823
2.333176 -1.464820 2.126942
2.415970 -1.467575 1.976824
2.363050 -1.459724 2.046901
2.289904 -1.445087 2.675010
2.293727 -1.448039 2.545003
2.353246 -1.486568 1.434907
2.335732 -1.445940 2.551944
2.355950 -1.442938 2.710917
2.364822 -1.468669 1.871896
2.296336 -1.482728 1.505988
2.208883 -1.439285 2.672126
2.318894 -1.444019 2.671969
2.295977 -1.480865 1.961990
2.337313 -1.462845 2.230937
2.357234 -1.477564 1.444903
2.233209 -1.471072 2.144082
2.249420 -1.485861 1.562054
2.171944 -1.440390 2.715178
2.309300 -1.480694 1.486970
2.269468 -1.456047 2.353035
2.260352 -1.481823 1.522039
2.218083 -1.477081 2.046101
2.226057 -1.431288 2.811104
2.330652 -1.480716 1.735940
2.293496 -1.457994 2.370000
2.240113 -1.476035 2.069070
2.212039 -1.430320 2.801124
2.311114 -1.495645 1.330963
2.315919 -1.479809 1.925961
2.182767 -1.445327 2.584161
2.269000 -1.473943 1.994030
2.199650 -1.458255 2.479133
2.230623 -1.450179 2.474092
2.252205 -1.494808 1.398047
2.243828 -1.446192 2.626074
2.264775 -1.480904 1.824033
2.125807 -1.448474 2.608241
2.198916 -1.489092 1.911124
2.206774 -1.447274 2.588126
2.142137 -1.480281 2.083208
2.267223 -1.494779 1.413025
2.236252 -1.475080 2.173075
2.172413 -1.506043 1.528156
2.084847 -1.448586 2.639298
2.136043 -1.489273 2.002213
2.203235 -1.483943 1.441119
2.176327 -1.496022 1.486154
2.172394 -1.465271 2.291169
2.128950 -1.437507 2.731239
2.193417 -1.466225 2.306139
2.144036 -1.482257 2.010204
2.216580 -1.485983 1.682100
2.119955 -1.440530 2.730251
2.090670 -1.451536 2.511289
2.214855 -1.488045 1.873101
2.107561 -1.463466 2.413261
2.201056 -1.498905 1.291117
2.172934 -1.482166 1.939163
2.134531 -1.456398 2.405225
2.163182 -1.507019 1.366169
2.139717 -1.449429 2.548220
2.168726 -1.491130 1.778166
2.043731 -1.456662 2.546354
2.102842 -1.492315 1.859259
2.110690 -1.455494 2.521259
2.056072 -1.489479 2.027326
2.041247 -1.483345 1.456348
2.166174 -1.501018 1.374166
2.132168 -1.480321 2.111221
2.014808 -1.466747 2.586392
2.047973 -1.493477 1.951336
2.089138 -1.477210 1.390282
2.062219 -1.487287 1.430317
2.043874 -1.447702 2.666356
2.080323 -1.473484 2.233296
2.101346 -1.474438 2.248266
2.056975 -1.491458 1.957324
2.034880 -1.450725 2.666368
2.009600 -1.461721 2.450400
2.021486 -1.470664 2.354380
2.126813 -1.499251 1.830222
2.121541 -1.497208 1.641230
2.102013 -1.504140 1.257255
2.082876 -1.490376 1.890287
2.047459 -1.465598 2.344345
2.015179 -1.494391 1.391381
2.057104 -1.503269 1.323319
1.966658 -1.463838 2.488460
2.053654 -1.460628 2.491338
2.065646 -1.492370 1.725311
2.014783 -1.498521 1.813381
1.970998 -1.495675 1.970444
2.024629 -1.466694 2.465377
1.971241 -1.501511 1.426441
2.067119 -1.504251 1.335304
1.957888 -1.492685 1.898463
1.923683 -1.466951 2.504520
2.041116 -1.491534 2.062346
1.990209 -1.503458 1.401413
2.022153 -1.499371 1.368369
1.968822 -1.460875 2.613457
1.988245 -1.478696 2.175424
1.970906 -1.496657 1.905443
2.011273 -1.480646 2.192391
1.955814 -1.460906 2.608476
1.936404 -1.474859 2.295499
1.932537 -1.471898 2.394505
1.948177 -1.509552 1.369471
2.031748 -1.504473 1.781354
1.959373 -1.469800 2.282468
1.990801 -1.493590 1.837416
1.980091 -1.515453 1.298424
1.895600 -1.473001 2.437557
2.014990 -1.514348 1.229375
2.017468 -1.498452 1.594376
1.968585 -1.468825 2.434455
1.980605 -1.501570 1.686427
1.927719 -1.501724 1.768502
1.892944 -1.504856 1.922551
1.884845 -1.500857 1.859563
1.935548 -1.472898 2.404500
1.840575 -1.468137 2.431636
1.989109 -1.518438 1.309409
1.892759 -1.471050 2.557561
1.948143 -1.514547 1.341469
1.952058 -1.499742 2.013468
1.908192 -1.487883 2.128534
1.882820 -1.496860 1.850567
1.935233 -1.492824 2.149494
1.857472 -1.480071 2.340608
1.861352 -1.484033 2.248601
1.875743 -1.469090 2.550586
1.824537 -1.480165 2.386655
1.883318 -1.478976 2.233572
1.898713 -1.491803 1.784546
1.934659 -1.501699 1.729492
1.917391 -1.497686 1.547517
1.820919 -1.467264 2.679664
1.887521 -1.477012 2.381566
1.878505 -1.494807 1.633573
1.829609 -1.491951 1.712643
1.805774 -1.501040 1.814674
1.800831 -1.499066 1.858682
1.781552 -1.486275 2.390713
1.858500 -1.484078 2.357605
1.808656 -1.471241 2.490680
1.797733 -1.495056 1.797687
1.857970 -1.498960 1.958601
1.831140 -1.496063 2.083639
1.860190 -1.503000 2.107596
1.797327 -1.498184 2.212687
1.783405 -1.487241 2.286710
1.755471 -1.485324 2.336750
1.793650 -1.471277 2.487700
1.818294 -1.494129 2.196658
1.813638 -1.492000 1.736665
1.849592 -1.502897 1.685611
1.746832 -1.471431 2.616766
1.744872 -1.471445 2.645769
1.815481 -1.489181 2.338664
1.715497 -1.496426 2.339803
1.779432 -1.489262 2.306714
1.737598 -1.479405 2.441777
1.696440 -1.497462 2.299829
1.726270 -1.504349 2.167784
1.720368 -1.499388 2.245794
1.749063 -1.497253 2.033754
1.777110 -1.503192 2.056713
1.776917 -1.505150 1.916712
1.727608 -1.482431 2.444789
1.744234 -1.500301 2.149760
1.678760 -1.477587 2.561860
1.677804 -1.477599 2.592861
1.742424 -1.496351 2.292764
1.651442 -1.505573 2.291889
1.710399 -1.501424 2.268807
1.673556 -1.489554 2.400863
1.630374 -1.500614 2.252920
1.645277 -1.498558 2.188900
1.663570 -1.493581 2.404876
1.617713 -1.487728 2.516942
1.613744 -1.484746 2.543949
1.671370 -1.502517 2.249861
1.607498 -1.495707 2.354953
1.593500 -1.496743 2.355972
1.554648 -1.492872 2.468029
1.557712 -1.496877 2.507023
1.518772 -1.481993 2.575083
