# .PCD v0.7 - Point Cloud Data file format
VERSION 0.7
FIELDS x y z
SIZE 4 4 4
TYPE F F F
COUNT 1 1 1
WIDTH 19
HEIGHT 1
VIEWPOINT 0 0 0 1
POINTS 19
DATA ascii
-2.067129 42.346157 1.381405
-2.091611 42.241665 1.382445
-2.047799 42.243774 1.393048
-2.074923 42.110977 1.375456
-2.029717 42.144478 1.406081
-2.057474 41.990276 1.372173
-2.015370 42.039471 1.412594
-1.888621 42.060627 1.546697
-2.028661 41.905663 1.391838
-1.799277 41.936214 1.578874
-1.999802 41.945072 1.423995
-1.872435 41.958145 1.557941
-1.984690 41.864594 1.440008
-1.986064 41.849430 1.435082
-1.866191 41.836922 1.555093
-1.969683 41.766960 1.451671
-1.930240 41.845928 1.506900
-1.969441 41.652504 1.444149
-1.895847 41.784100 1.543604
