# .PCD v0.7 - Point Cloud Data file format
VERSION 0.7
FIELDS x y z
SIZE 4 4 4
TYPE F F F
COUNT 1 1 1
WIDTH 15
HEIGHT 1
VIEWPOINT 0 0 0 1
POINTS 15
DATA ascii
-2.289397 42.626541 1.288868
-2.178982 42.744850 1.367410
-2.286256 42.473656 1.316319
-2.190549 42.639668 1.362575
-2.248940 42.461761 1.282738
-2.266844 42.357246 1.268919
-2.263479 42.293335 1.294871
-2.147179 42.464951 1.377482
-2.264397 42.223675 1.312688
-2.160585 42.371773 1.381182
-2.269733 42.152798 1.325239
-2.219803 42.214859 1.309896
-2.251369 42.106815 1.284024
-2.246572 42.051022 1.318923
-2.255982 41.979988 1.332704
