# .PCD v0.7 - Point Cloud Data file format
VERSION 0.7
FIELDS x y z
SIZE 4 4 4
TYPE F F F
COUNT 1 1 1
WIDTH 22
HEIGHT 1
VIEWPOINT 0 0 0 1
POINTS 22
DATA ascii
-8.478915 41.472836 -1.078355
-8.532717 41.530956 -1.097803
-8.560008 41.591625 -1.117697
-8.471240 42.004665 -1.078244
-8.509776 41.873539 -1.068123
-8.504354 42.063610 -1.087836
-8.551792 41.937675 -1.082723
-8.525384 42.124001 -1.098024
-8.575382 42.002747 -1.096308
-8.548953 42.185432 -1.106619
-8.560178 42.245956 -1.116325
-8.582703 42.068081 -1.110563
-8.585411 42.132736 -1.123316
-8.437040 41.284897 -1.079983
-8.434059 41.347569 -1.106820
-8.476799 41.415672 -1.072452
-8.467126 41.480530 -1.099147
-8.461097 41.545979 -1.125139
-8.494799 41.708714 -1.076544
-8.505223 41.770710 -1.096131
-8.492912 41.833778 -1.117265
-8.502510 41.897152 -1.135000
