# .PCD v0.7 - Point Cloud Data file format
VERSION 0.7
FIELDS x y z
SIZE 4 4 4
TYPE F F F
COUNT 1 1 1
WIDTH 193
HEIGHT 1
VIEWPOINT 0 0 0 1
POINTS 193
DATA ascii
2.398420 -1.479247 1.477256
2.294418 -1.489602 1.437369
2.430363 -1.478272 1.410229
2.276731 -1.498186 1.752399
2.244846 -1.489049 1.904415
2.355493 -1.486315 1.524311
2.182062 -1.478833 2.168459
2.206439 -1.505901 1.405476
2.325363 -1.488625 1.373342
2.158680 -1.496606 1.694507
2.126154 -1.475833 2.275507
2.150835 -1.498387 1.857517
2.261501 -1.499640 1.486419
2.376470 -1.488329 1.485298
2.087047 -1.489185 2.114563
2.113439 -1.515219 1.370577
2.227372 -1.500955 1.339453
2.199898 -1.482092 1.971451
2.039270 -1.467862 2.421576
2.211811 -1.494256 1.839458
2.040141 -1.486156 2.223603
2.059658 -1.501957 1.648608
2.300528 -1.484437 1.556363
2.058817 -1.505720 1.810615
2.077318 -1.525569 1.204627
2.127166 -1.471820 2.292503
2.131411 -1.485098 1.424518
2.265441 -1.490710 1.440405
1.975324 -1.468967 2.473638
2.000038 -1.499505 2.067661
2.017417 -1.517547 1.333671
2.242940 -1.492976 1.978430
2.107878 -1.490433 1.918549
2.116335 -1.499332 1.297554
2.067219 -1.464876 2.368549
2.112786 -1.499612 1.789558
1.952244 -1.475196 2.364669
1.953111 -1.491486 2.169693
2.212534 -1.497746 1.517465
2.326557 -1.490368 1.563351
1.961770 -1.504074 1.757703
1.961634 -1.505302 1.604705
2.177992 -1.487053 2.049482
2.035135 -1.478170 2.233599
2.287581 -1.487427 1.597383
2.050424 -1.498376 1.393614
2.181462 -1.505993 1.411506
1.889291 -1.474301 2.414727
2.143907 -1.497339 1.923529
1.946450 -1.534785 1.311763
1.912019 -1.506830 2.018754
2.020860 -1.497753 1.870642
1.988208 -1.476181 2.316640
2.038368 -1.516590 1.274653
2.014753 -1.501964 1.740654
1.873234 -1.485495 2.316759
1.958406 -1.467908 2.556656
1.886133 -1.508731 2.135782
2.094461 -1.488166 1.459561
2.065281 -1.468827 2.415560
1.877749 -1.508377 1.715788
1.863590 -1.502651 1.557793
2.084958 -1.492406 1.990577
1.875257 -1.521246 1.136809
1.946101 -1.482509 2.176689
2.031323 -1.462830 2.478583
2.212618 -1.509692 1.564487
2.168041 -1.479993 2.117484
1.982464 -1.518608 1.370709
2.080432 -1.506339 1.371601
1.819295 -1.487565 2.373812
2.162003 -1.485097 2.059497
2.053884 -1.502667 1.875621
1.840378 -1.521152 1.266842
1.929822 -1.499090 1.818729
1.905176 -1.481503 2.259726
1.817967 -1.504181 1.962838
1.951370 -1.524883 1.245747
1.922720 -1.503296 1.693742
1.803244 -1.499754 2.278846
1.874367 -1.472241 2.494741
2.013465 -1.499450 1.424654
1.802096 -1.510047 2.084862
1.984260 -1.477140 2.361649
1.793717 -1.508682 1.672868
1.998937 -1.499728 1.939668
1.948289 -1.469161 2.415670
1.873106 -1.495780 2.136778
2.100551 -1.503097 1.505581
2.079013 -1.487335 2.058578
1.813319 -1.545445 1.124904
1.905472 -1.528872 1.341796
1.996436 -1.515625 1.341694
2.080992 -1.494397 2.013587
1.746282 -1.495843 2.328894
2.030451 -1.463653 2.608588
1.966863 -1.507982 1.830711
1.837762 -1.493433 1.763806
1.837181 -1.494759 2.219810
1.769394 -1.532392 1.243926
2.012410 -1.464779 2.558606
1.728918 -1.501513 1.910918
1.851321 -1.517223 1.207829
1.830679 -1.501629 1.646825
2.037483 -1.498372 1.440633
1.727229 -1.507040 2.233928
1.794327 -1.475560 2.434821
1.904232 -1.483451 2.306733
1.941487 -1.514699 1.396744
1.716034 -1.504377 2.027935
1.908889 -1.499069 1.882752
1.875277 -1.480448 2.363755
1.798095 -1.504060 2.093860
2.004018 -1.502621 2.011671
2.004517 -1.504441 1.457673
1.999975 -1.501697 1.967674
1.922453 -1.527875 1.316782
1.804404 -1.517227 1.295873
1.949414 -1.470987 2.540675
1.681286 -1.507085 2.292972
1.869796 -1.500343 1.773790
1.936383 -1.472082 2.501689
1.774786 -1.509658 1.735890
1.766169 -1.503031 2.174889
1.727376 -1.478695 2.473889
1.960487 -1.507636 1.411719
1.797389 -1.543397 1.197919
1.647185 -1.506347 2.182002
1.729333 -1.488806 2.395902
1.833229 -1.494720 2.263817
1.844429 -1.507045 1.349823
1.649701 -1.520194 1.608020
1.823847 -1.499391 1.829832
1.806270 -1.491719 2.315837
1.915936 -1.502011 1.917753
1.916487 -1.505756 1.414757
1.913967 -1.502970 1.949756
1.710032 -1.498399 2.034934
1.825396 -1.518210 1.276858
1.742433 -1.532437 1.275955
1.867367 -1.475327 2.469758
1.603238 -1.505389 2.239043
1.854322 -1.470415 2.434763
1.792776 -1.504623 1.733869
1.684111 -1.499352 2.116960
1.890500 -1.518876 1.385801
1.669392 -1.493913 2.440966
1.764217 -1.502984 2.219894
1.666338 -1.501045 2.358980
1.766414 -1.510318 1.316902
1.757854 -1.511634 1.794912
1.739255 -1.499983 2.268913
1.834899 -1.502313 1.870829
1.827918 -1.502301 1.891835
1.842491 -1.516018 1.381842
1.762426 -1.533419 1.258940
1.797347 -1.484612 2.413838
1.793327 -1.483652 2.394840
1.629750 -1.517188 1.661038
1.803459 -1.514179 1.348876
1.603374 -1.500171 2.396038
1.692192 -1.507260 2.173968
1.592292 -1.500338 2.305048
1.628719 -1.536332 1.568068
1.715472 -1.534490 1.301986
1.509977 -1.515143 1.914145
1.763883 -1.507575 1.831903
1.671235 -1.506249 2.221986
1.747877 -1.502609 1.838911
1.759459 -1.515315 1.341919
1.731323 -1.493892 2.353914
1.732337 -1.495875 2.363916
1.751507 -1.534350 1.335955
1.621157 -1.508536 2.126037
1.447142 -1.521093 2.071213
1.609794 -1.514188 1.709055
1.693917 -1.523805 1.813994
1.670316 -1.503130 2.312985
1.513014 -1.520125 1.931153
1.669328 -1.506127 2.316991
1.604817 -1.539285 1.656098
1.489060 -1.514094 1.998166
1.538414 -1.497315 2.435098
1.604283 -1.505392 2.265051
1.605832 -1.511150 1.751057
1.417202 -1.490971 2.219199
1.403257 -1.499967 2.250226
1.409260 -1.519034 2.195249
1.573859 -1.525268 1.735109
1.464112 -1.506072 2.070180
1.382335 -1.496915 2.335244
1.370385 -1.517970 2.324287
1.430229 -1.519072 2.147235
