# .PCD v0.7 - Point Cloud Data file format
VERSION 0.7
FIELDS x y z
SIZE 4 4 4
TYPE F F F
COUNT 1 1 1
WIDTH 28
HEIGHT 1
VIEWPOINT 0 0 0 1
POINTS 28
DATA ascii
-8.744179 40.870766 -1.042501
-8.454269 41.257805 -1.072324
-9.205142 40.726810 -0.964351
-8.470922 41.367729 -1.069575
-8.742849 41.148766 -1.063532
-8.727942 41.284588 -1.060570
-8.511199 41.779839 -1.063121
-8.506083 41.679188 -1.074267
-8.509311 41.684887 -1.078328
-8.510608 41.861256 -1.078660
-8.508120 41.765785 -1.082298
-8.511134 41.834995 -1.095909
-8.505553 41.731178 -1.114180
-8.593250 41.703323 -1.106211
-8.514287 41.915958 -1.106570
-8.526643 41.810310 -1.114793
-8.515258 41.846218 -1.087108
-8.551300 41.873196 -1.120831
-8.540562 41.937496 -1.057133
-8.706882 41.900764 -1.102016
-8.647922 41.846592 -1.099602
-8.529799 41.992241 -1.089704
-8.549492 42.034893 -1.116078
-8.545428 42.019722 -1.053846
-8.539713 42.040592 -1.069211
-8.535576 42.071041 -1.089287
-8.532160 42.092312 -1.106819
-8.538076 42.118649 -1.122907
