# .PCD v0.7 - Point Cloud Data file format
VERSION 0.7
FIELDS x y z
SIZE 4 4 4
TYPE F F F
COUNT 1 1 1
WIDTH 449
HEIGHT 1
VIEWPOINT 0 0 0 1
POINTS 449
DATA ascii
-13.930580 48.573395 -5.467704
-13.778323 48.585693 -5.527508
-14.021103 48.572548 -5.226058
-13.875063 48.586361 -5.285525
-13.996194 48.582043 -5.194165
-13.743781 48.591114 -5.348506
-13.914658 48.586800 -5.182862
-13.852321 48.586765 -5.199111
-13.598543 48.605827 -5.405842
-13.804272 48.600388 -5.222190
-13.856130 48.594254 -5.129718
-13.809268 48.598030 -5.097594
-13.695431 48.599796 -5.178407
-14.032516 48.593693 -4.900755
-13.558640 48.600071 -5.232314
-13.740255 48.605751 -5.087025
-13.675184 48.602478 -5.097620
-13.419098 48.615543 -5.285059
-13.628704 48.614792 -5.116984
-13.688280 48.607403 -5.033859
-13.212194 48.616287 -5.338043
-13.633014 48.611118 -5.006558
-13.546278 48.619427 -5.085176
-13.959000 48.602818 -4.725273
-13.841647 48.608662 -4.803699
-14.056224 48.603416 -4.639310
-13.393373 48.611851 -5.127006
-14.062769 48.606178 -4.629788
-13.570604 48.619251 -4.994863
-14.117095 48.603142 -4.549364
-13.508811 48.615219 -5.003074
-13.256772 48.625668 -5.175931
-13.467727 48.629330 -5.020042
-13.531693 48.619514 -4.945007
-13.058198 48.635960 -5.313260
-14.081628 48.611549 -4.507488
-13.992819 48.606136 -4.548660
-13.096046 48.625000 -5.225741
-13.056039 48.630878 -5.264914
-13.079087 48.631699 -5.248507
-13.470500 48.621510 -4.922278
-13.391176 48.630299 -4.991204
-14.016861 48.615337 -4.489342
-13.789387 48.619080 -4.643180
-13.886473 48.617466 -4.562785
-13.249432 48.626030 -5.033877
-13.890064 48.623062 -4.552898
-13.667370 48.623276 -4.714038
-13.412351 48.629642 -4.908882
-12.945821 48.637875 -5.252850
-13.937024 48.617546 -4.479935
-13.364558 48.631260 -4.918571
-12.909323 48.649300 -5.253065
-13.387892 48.631279 -4.861674
-13.111973 48.638199 -5.077110
-13.317510 48.640892 -4.930041
-12.913344 48.638340 -5.209675
-13.896055 48.621124 -4.439608
-13.820375 48.619709 -4.476556
-12.979588 48.641163 -5.140809
-12.947179 48.642628 -5.160803
-12.934420 48.647392 -5.178222
-13.322730 48.633064 -4.844882
-13.250910 48.642269 -4.905524
-13.846075 48.623249 -4.419676
-13.728778 48.631378 -4.491130
-13.620220 48.627964 -4.562824
-13.124151 48.644417 -4.950361
-13.721038 48.633808 -4.477590
-13.268204 48.641338 -4.830545
-13.513003 48.638710 -4.633026
-12.830437 48.650799 -5.164142
-13.764591 48.626839 -4.412584
-13.200057 48.629997 -4.828177
-13.247471 48.637932 -4.782120
-12.786137 48.659267 -5.158353
-13.179599 48.653278 -4.844942
-12.974768 48.647625 -4.982599
-12.795332 48.651890 -5.122600
-13.725864 48.631729 -4.377852
-12.868876 48.655743 -5.059675
-12.686825 48.650764 -5.187319
-13.665657 48.634724 -4.411149
-12.826777 48.653484 -5.080133
-12.812512 48.656731 -5.092612
-13.188973 48.645996 -4.773718
-13.695765 48.635014 -4.355934
-13.122788 48.654030 -4.826121
-13.578585 48.642250 -4.422376
-13.469757 48.639046 -4.489846
-12.992324 48.652180 -4.864627
-13.128235 48.648823 -4.753852
-13.570714 48.646755 -4.409661
-12.720893 48.662067 -5.080642
-13.617188 48.642883 -4.353128
-13.362180 48.650078 -4.554419
-13.088729 48.652584 -4.759552
-13.121405 48.646854 -4.710239
-13.036055 48.654697 -4.761093
-12.662914 48.663025 -5.064756
-13.568021 48.641155 -4.318766
-12.686390 48.665024 -5.040578
-12.849892 48.656696 -4.897183
-12.751231 48.660801 -4.977113
-13.503596 48.638218 -4.345662
-12.710893 48.661026 -5.002546
-12.562896 48.649620 -5.091394
-12.704826 48.670414 -5.015499
-13.056664 48.655411 -4.704417
-13.551339 48.643120 -4.295167
-13.000893 48.663025 -4.751133
-13.438737 48.652428 -4.357157
-13.329004 48.649574 -4.421165
-13.013725 48.663887 -4.687900
-12.867793 48.657867 -4.785399
-13.421084 48.653282 -4.343499
-13.461715 48.647617 -4.292941
-12.616872 48.673889 -5.000356
-12.966640 48.662548 -4.688179
-13.219930 48.659092 -4.480803
-13.014563 48.663021 -4.645247
-13.420271 48.648918 -4.263182
-12.927833 48.672390 -4.692022
-12.569372 48.680294 -4.988303
-12.586952 48.678566 -4.966458
-12.660100 48.679237 -4.909064
-12.419732 48.678963 -5.097646
-12.606539 48.671600 -4.931442
-13.370682 48.650536 -4.287186
-12.722295 48.658253 -4.810868
-12.596464 48.678024 -4.940258
-12.488393 48.678196 -5.024881
-13.432731 48.658875 -4.240156
-12.941211 48.668545 -4.641984
-12.876616 48.665401 -4.676688
-13.303498 48.659222 -4.296431
-13.196729 48.657825 -4.356063
-12.898066 48.674057 -4.623205
-13.294772 48.666012 -4.283895
-12.753472 48.664932 -4.710531
-13.323643 48.656002 -4.237454
-12.518184 48.682114 -4.925209
-12.908407 48.672768 -4.582016
-12.859313 48.676788 -4.623133
-12.345243 48.684464 -5.042000
-13.094919 48.670723 -4.413263
-13.296088 48.663853 -4.214190
-12.550119 48.678013 -4.832775
-12.821439 48.685455 -4.624020
-12.331660 48.690571 -5.025512
-12.477615 48.694942 -4.915152
-12.481123 48.682526 -4.888742
-12.521073 48.692448 -4.871658
-13.254051 48.667816 -4.233552
-13.292400 48.658562 -4.184379
-12.493756 48.684120 -4.867404
-12.614925 48.666630 -4.736316
-12.391374 48.685047 -4.947432
-12.828815 48.678783 -4.581335
-12.783607 48.683083 -4.615114
-13.194579 48.675602 -4.241524
-12.788059 48.682705 -4.560898
-13.088270 48.674206 -4.297585
-13.168674 48.673496 -4.225440
-13.212617 48.673763 -4.188436
-12.417022 48.683792 -4.849193
-12.658807 48.680065 -4.645399
-12.789652 48.671410 -4.515529
-12.745526 48.680332 -4.557276
-12.978887 48.682007 -4.349367
-12.259757 48.698631 -4.966288
-13.169685 48.673203 -4.164364
-12.462598 48.689201 -4.769093
-12.239881 48.693897 -4.951792
-12.714369 48.692451 -4.557889
-13.190288 48.674034 -4.135354
-12.406330 48.686195 -4.797573
-12.383976 48.687168 -4.816867
-12.377347 48.697449 -4.838415
-13.130579 48.675507 -4.179898
-12.400324 48.692760 -4.801867
-12.712555 48.679703 -4.520477
-12.305406 48.696106 -4.875845
-12.538050 48.692524 -4.676219
-12.185166 48.695042 -4.967622
-12.683820 48.692280 -4.550735
-13.076474 48.681980 -4.186026
-12.680727 48.689564 -4.501166
-12.980274 48.686310 -4.240286
-13.087216 48.678761 -4.137617
-13.055378 48.683739 -4.171946
-12.327001 48.689606 -4.780448
-12.567199 48.692299 -4.582049
-12.693558 48.681503 -4.458040
-12.115545 48.696709 -4.958970
-12.649464 48.693535 -4.499239
-12.162157 48.695412 -4.886252
-13.048432 48.679096 -4.116861
-12.866166 48.691360 -4.287289
-12.371237 48.694187 -4.704651
-13.083952 48.684406 -4.086361
-12.164640 48.707085 -4.888819
-12.105886 48.706203 -4.934598
-12.324633 48.700836 -4.740779
-12.610610 48.697517 -4.493575
-13.019562 48.685055 -4.129765
-12.300684 48.700363 -4.753726
-12.289705 48.706787 -4.769697
-12.621707 48.694489 -4.467846
-12.326822 48.713543 -4.745546
-12.215185 48.698956 -4.804842
-12.111597 48.710785 -4.908217
-12.576210 48.691132 -4.485652
-12.437774 48.695866 -4.605915
-12.969460 48.690563 -4.134158
-12.591632 48.702896 -4.447636
-12.980600 48.690174 -4.090833
-12.953807 48.696049 -4.121321
-12.862206 48.687588 -4.183121
-12.610509 48.695316 -4.405542
-12.251561 48.703762 -4.721085
-12.037644 48.703484 -4.892308
-12.469410 48.697918 -4.517369
-12.017472 48.704185 -4.902934
-12.553267 48.700596 -4.440905
-12.290923 48.703377 -4.646069
-12.944849 48.692715 -4.073535
-12.976302 48.688843 -4.039998
-12.088112 48.708405 -4.820362
-12.089222 48.716133 -4.827779
-12.761531 48.699535 -4.229578
-12.232464 48.701817 -4.679034
-12.025395 48.711605 -4.867335
-12.522835 48.708576 -4.436298
-12.913721 48.694260 -4.081402
-12.206671 48.698936 -4.685602
-12.526476 48.703133 -4.416623
-12.200788 48.708187 -4.701374
-12.226570 48.707489 -4.678313
-12.035548 48.719971 -4.847940
-12.497038 48.706051 -4.432248
-12.118322 48.691250 -4.730207
-11.952490 48.718552 -4.911655
-11.935143 48.713734 -4.911168
-12.355814 48.710728 -4.544905
-12.871578 48.699833 -4.084553
-12.488797 48.703335 -4.391543
-11.946661 48.722111 -4.881047
-12.879884 48.701035 -4.046468
-12.517292 48.698368 -4.351768
-12.853838 48.705875 -4.071180
-12.764877 48.696793 -4.131353
-12.174873 48.713093 -4.661565
-11.966490 48.712532 -4.829571
-12.383618 48.705391 -4.459782
-11.943383 48.710960 -4.838152
-12.459742 48.705864 -4.385143
-12.878195 48.695972 -3.994556
-12.222409 48.719669 -4.593446
-12.841727 48.702057 -4.031386
-12.004131 48.712425 -4.759653
-12.160564 48.715836 -4.627944
-12.011841 48.715805 -4.753633
-11.956253 48.724106 -4.809607
-12.661183 48.706539 -4.174363
-12.812550 48.701187 -4.034743
-12.435389 48.717434 -4.381022
-12.440372 48.712467 -4.367662
-11.868023 48.723858 -4.877994
-12.133270 48.711441 -4.629574
-12.141695 48.710682 -4.618326
-12.133623 48.725315 -4.644454
-11.962168 48.727367 -4.790234
-12.409565 48.711800 -4.377523
-11.881658 48.725391 -4.850915
-12.057422 48.711826 -4.676590
-11.867956 48.723820 -4.848932
-12.765993 48.701794 -4.035103
-12.277159 48.723656 -4.485708
-12.404950 48.713154 -4.341750
-12.448751 48.715492 -4.305566
-12.765522 48.698925 -4.000951
-11.874964 48.727303 -4.814610
-12.751576 48.709007 -4.022986
-12.103224 48.724148 -4.604638
-12.672973 48.706619 -4.081389
-11.899233 48.721516 -4.770119
-12.300910 48.713070 -4.403424
-12.377896 48.715199 -4.334482
-11.876381 48.720913 -4.778736
-11.798152 48.739906 -4.874388
-12.793292 48.707859 -3.952728
-12.146613 48.725548 -4.537950
-12.736130 48.704845 -3.988368
-11.789932 48.731369 -4.853236
-11.932596 48.718300 -4.702457
-12.088515 48.728825 -4.578238
-12.720375 48.710873 -3.991172
-11.940195 48.722935 -4.690840
-12.358330 48.722767 -4.320613
-12.350016 48.722633 -4.326844
-11.797515 48.728493 -4.819252
-12.069205 48.727600 -4.578074
-12.570469 48.716164 -4.121479
-12.073514 48.724773 -4.567707
-12.054374 48.728168 -4.582660
-12.331814 48.720097 -4.326534
-11.813743 48.731407 -4.792778
-11.986300 48.719707 -4.618054
-12.683006 48.713268 -3.991004
-12.194250 48.728374 -4.427092
-12.365744 48.719925 -4.256152
-12.323428 48.720280 -4.293086
-12.680974 48.711712 -3.960572
-12.666251 48.720074 -3.978318
-12.025745 48.724369 -4.546135
-11.806691 48.733601 -4.750845
-12.583395 48.713757 -4.032555
-11.830475 48.724701 -4.710476
-12.225328 48.721924 -4.350197
-12.299132 48.724743 -4.285050
-12.701067 48.711330 -3.910261
-11.720764 48.732193 -4.805553
-11.811822 48.731209 -4.721307
-12.069911 48.727497 -4.483737
-12.651545 48.719639 -3.950227
-11.711316 48.721931 -4.783688
-11.871879 48.730522 -4.650537
-12.011435 48.731876 -4.524821
-12.631414 48.718697 -3.948004
-12.282939 48.735413 -4.276078
-11.872790 48.730888 -4.632773
-11.731318 48.735065 -4.762454
-12.004082 48.734035 -4.516931
-11.992329 48.729691 -4.521050
-12.277238 48.735836 -4.276489
-12.486793 48.727032 -4.070318
-12.255184 48.727085 -4.275411
-11.985055 48.736538 -4.526867
-11.746698 48.735146 -4.734472
-11.923403 48.732563 -4.564188
-12.597662 48.721230 -3.946892
-12.289388 48.726704 -4.209252
-12.123775 48.740063 -4.373674
-12.246560 48.730240 -4.247807
-12.594068 48.720985 -3.920182
-12.572719 48.721897 -3.933738
-11.959207 48.733978 -4.493766
-12.496486 48.719097 -3.986293
-11.776437 48.742382 -4.660521
-12.617835 48.717556 -3.870880
-12.150708 48.728436 -4.298211
-12.219847 48.729248 -4.236110
-12.000455 48.733650 -4.433513
-12.557517 48.723465 -3.911455
-11.804720 48.735165 -4.597246
-11.941686 48.739071 -4.476798
-12.539931 48.721973 -3.906200
-12.193301 48.733234 -4.228915
-12.198719 48.738136 -4.225967
-11.931439 48.736958 -4.464632
-11.928725 48.741581 -4.470731
-11.807480 48.738297 -4.575253
-12.179350 48.730698 -4.226902
-11.921109 48.747532 -4.475110
-12.398477 48.730797 -4.020536
-12.510905 48.723324 -3.904003
-11.856789 48.737137 -4.508738
-12.221292 48.736450 -4.164796
-12.164111 48.730331 -4.200994
-12.505366 48.725498 -3.881814
-12.045127 48.740505 -4.318119
-12.492795 48.730480 -3.891441
-11.892864 48.738342 -4.442545
-12.543026 48.727787 -3.832575
-12.414016 48.724300 -3.941163
-12.147550 48.736996 -4.191139
-12.078022 48.733356 -4.248159
-11.929744 48.734978 -4.383143
-12.467687 48.726177 -3.873796
-12.458718 48.727718 -3.865985
-12.115758 48.737114 -4.185528
-12.120056 48.739399 -4.176849
-12.110675 48.738579 -4.180993
-12.436404 48.732517 -3.863512
-12.322003 48.739655 -3.974496
-12.148470 48.739155 -4.120317
-12.094511 48.739388 -4.158047
-12.422001 48.730694 -3.843848
-11.977803 48.749222 -4.267916
-12.418045 48.738708 -3.850919
-12.459126 48.727940 -3.795090
-12.328782 48.723980 -3.897371
-12.080202 48.746540 -4.147357
-12.018273 48.747173 -4.203375
-12.388401 48.735447 -3.837186
-12.377106 48.731464 -3.827120
-12.052670 48.750587 -4.145916
-12.057302 48.749836 -4.132802
-12.041981 48.743355 -4.135639
-12.361249 48.738750 -3.824337
-12.243305 48.742928 -3.927616
-12.074995 48.738892 -4.077151
-12.028462 48.747475 -4.116941
-12.355723 48.744858 -3.808027
-12.392727 48.739063 -3.758408
-12.344759 48.746529 -3.811702
-12.265851 48.738495 -3.856382
-12.315512 48.746098 -3.803055
-12.307235 48.740387 -3.790565
-11.987356 48.758831 -4.094851
-12.290191 48.743942 -3.784835
-12.170873 48.749653 -3.884042
-12.273049 48.743641 -3.771822
-12.322920 48.744808 -3.723811
-12.269085 48.747723 -3.773017
-12.199420 48.747696 -3.816070
-12.234799 48.746395 -3.768216
-12.239461 48.748760 -3.754555
-12.220687 48.748657 -3.748044
-12.104745 48.757828 -3.841537
-12.256098 48.750828 -3.689030
-12.202871 48.750496 -3.738026
-12.210525 48.760994 -3.735927
-12.137679 48.757729 -3.776906
-12.178529 48.767197 -3.735619
-12.178494 48.760513 -3.719679
-12.156033 48.755238 -3.711025
-12.181794 48.747398 -3.654983
-11.410404 48.772923 -4.381918
-11.406008 48.763203 -4.366829
-11.414565 48.778824 -4.359273
-11.407651 48.772411 -4.357286
-11.412127 48.770866 -4.278260
-11.506503 48.765476 -4.176521
-11.514620 48.776340 -4.160241
-11.508368 48.768970 -4.151073
-11.502177 48.767822 -4.140814
-11.447922 48.756939 -4.173744
-11.454020 48.771019 -4.139357
-11.474580 48.764706 -4.048342
-11.606705 48.771313 -3.885112
-11.608703 48.782146 -3.855793
-11.601030 48.783787 -3.835868
-11.747026 48.776535 -3.491708
-11.730278 48.791313 -3.518445
-11.741954 48.793266 -3.464607
-11.716591 48.787746 -3.485202
-11.737352 48.784054 -3.407072
