# .PCD v0.7 - Point Cloud Data file format
VERSION 0.7
FIELDS x y z
SIZE 4 4 4
TYPE F F F
COUNT 1 1 1
WIDTH 27
HEIGHT 1
VIEWPOINT 0 0 0 1
POINTS 27
DATA ascii
-0.111016 4.414648 2.848848
0.179579 4.616174 2.963980
0.215994 4.585638 2.971604
0.252767 4.574451 2.992691
0.287623 4.547414 3.004109
0.321079 4.511901 3.009037
0.436914 4.621119 3.052627
0.499905 4.652528 3.075052
0.476217 4.608439 3.081983
0.538093 4.630107 3.097352
0.510763 4.562002 3.089004
0.580298 4.625423 3.135079
0.663486 4.642295 3.117353
-0.003480 4.612518 2.899620
0.036223 4.586817 2.909092
0.073641 4.576091 2.928133
0.110970 4.561521 2.945132
0.132753 4.621212 2.943246
0.147852 4.540513 2.958646
0.171120 4.613491 2.964957
0.184191 4.506295 2.964297
0.210075 4.608137 2.990561
0.247956 4.593032 3.009116
0.285293 4.564719 3.019810
0.534910 4.671329 3.088217
0.571330 4.642886 3.107677
0.606103 4.607220 3.121225
