# .PCD v0.7 - Point Cloud Data file format
VERSION 0.7
FIELDS x y z
SIZE 4 4 4
TYPE F F F
COUNT 1 1 1
WIDTH 33
HEIGHT 1
VIEWPOINT 0 0 0 1
POINTS 33
DATA ascii
-12.827112 44.404797 -2.784359
-12.861512 44.495880 -2.739425
-12.831947 44.469868 -2.769494
-12.864970 44.424522 -2.825506
-12.960221 44.476650 -2.683894
-12.864779 44.563839 -2.805043
-12.844160 44.486553 -2.750826
-12.834856 44.542042 -2.830309
-12.869565 44.355354 -2.795943
-12.866578 44.674835 -2.811151
-12.877428 44.617889 -2.860865
-12.875881 44.487312 -2.725747
-12.843016 44.566635 -2.813678
-12.898299 44.418343 -2.746344
-12.952393 44.445065 -2.814545
-12.892644 44.403374 -2.844288
-12.900030 44.695499 -2.849854
-12.884129 44.724766 -2.831041
-12.850289 44.605614 -2.803341
-12.874309 44.798409 -2.817467
-13.445821 44.020508 -2.377572
-12.920898 44.533184 -2.821215
-12.891440 44.506683 -2.808525
-12.880373 44.851818 -2.866688
-12.890856 44.629101 -2.834459
-12.878755 44.831650 -2.819967
-12.882339 44.896320 -2.827790
-12.871049 44.903976 -2.875968
-12.875181 44.965530 -2.880791
-12.902097 44.968567 -2.831963
-12.892979 45.001995 -2.833932
-12.888247 45.041130 -2.884201
-12.888928 45.064594 -2.880037
