# .PCD v0.7 - Point Cloud Data file format
VERSION 0.7
FIELDS x y z
SIZE 4 4 4
TYPE F F F
COUNT 1 1 1
WIDTH 14
HEIGHT 1
VIEWPOINT 0 0 0 1
POINTS 14
DATA ascii
-10.810210 45.392502 -2.067161
-10.745470 45.368160 -2.081625
-10.760009 45.269829 -2.041331
-10.694072 45.269833 -2.069928
-10.783248 45.210052 -2.043936
-10.813683 45.363941 -2.063436
-10.721117 45.218391 -2.083823
-10.811440 45.166447 -2.064324
-10.737425 45.100563 -2.035833
-10.653360 44.986168 -1.968599
-10.763843 45.028114 -2.033639
-10.710207 45.037891 -2.085767
-10.795285 44.972858 -2.047819
-10.727439 44.890656 -2.022785
