# .PCD v0.7 - Point Cloud Data file format
VERSION 0.7
FIELDS x y z
SIZE 4 4 4
TYPE F F F
COUNT 1 1 1
WIDTH 1118
HEIGHT 1
VIEWPOINT 0 0 0 1
POINTS 1118
DATA ascii
-1.431536 5.487630 1.051164
-1.531243 5.576187 1.222098
-1.428356 5.493592 0.988083
-1.427657 5.524553 1.036981
-1.530558 5.609261 1.206849
-1.529704 5.543293 1.218533
-1.497403 5.521309 0.966489
-1.469630 5.556811 1.019346
-1.435966 5.508609 1.068989
-1.530276 5.642702 1.192428
-1.527523 5.509959 1.219023
-1.352542 5.475952 0.800979
-1.527717 5.577096 1.202399
-1.419308 5.562612 0.958835
-1.417750 5.494973 0.966824
-1.344660 5.484426 0.760533
-1.438318 5.594203 1.007471
-1.437938 5.542967 1.054276
-1.526405 5.674101 1.178240
-1.447833 5.499270 1.101150
-1.529208 5.543958 1.201027
-1.349032 5.511365 0.788445
-1.525728 5.610899 1.186258
-1.529452 5.724494 1.240727
-1.436591 5.594776 0.942424
-1.430197 5.528606 0.948542
-1.348461 5.518373 0.745092
-1.445176 5.629855 0.993390
-1.277317 5.457319 0.602066
-1.522058 5.707898 1.164422
-1.464147 5.482514 1.134366
-1.518387 5.506846 1.195383
-1.614084 5.567862 1.031017
-1.444932 5.533245 1.085377
-1.517898 5.578280 1.183198
-1.523331 5.644331 1.169274
-1.348703 5.548444 0.774829
-1.356835 5.495954 0.821658
-1.283538 5.471519 0.574959
-1.429100 5.628719 0.928864
-1.416939 5.563267 0.933884
-1.411223 5.496850 0.944531
-1.349536 5.553786 0.730321
-1.519520 5.740406 1.150283
-1.442996 5.666403 0.980896
-1.287042 5.492363 0.584460
-1.450993 5.516266 1.117677
-1.435987 5.612396 1.026168
-1.510751 5.541361 1.175693
-1.337867 5.486861 0.734557
-1.481485 5.563833 1.068695
-1.517241 5.676641 1.154557
-1.517347 5.612268 1.165078
-1.356071 5.583508 0.759548
-1.358789 5.529352 0.807347
-1.364693 5.483259 0.853636
-1.310628 5.503085 0.550453
-1.432368 5.662315 0.915012
-1.434239 5.596346 0.917054
-1.416055 5.530638 0.926274
-1.357394 5.587364 0.714249
-1.277080 5.443310 0.562175
-1.512936 5.774196 1.136342
-1.451710 5.547669 1.101267
-1.440409 5.702584 0.967563
-1.299931 5.528147 0.566188
-1.452775 5.646048 1.010537
-1.507578 5.575895 1.156221
-1.335371 5.521161 0.719617
-1.457869 5.599218 1.055154
-1.302176 5.476406 0.614368
-1.233334 5.479797 0.439286
-1.329002 5.455853 0.725334
-1.512505 5.710990 1.139487
-1.502885 5.646773 1.147489
-1.378456 5.464269 0.884287
-1.360712 5.620043 0.744937
-1.363008 5.564604 0.792317
-1.232801 5.487347 0.431468
-1.367171 5.517038 0.837710
-1.426192 5.696451 0.901909
-1.278866 5.542290 0.547526
-1.400468 5.492199 0.917545
-1.428572 5.629927 0.902753
-1.413132 5.563673 0.910890
-1.360290 5.622413 0.698729
-1.513438 5.807454 1.123963
-1.270926 5.478324 0.548674
-1.650522 5.569359 1.081573
-1.435972 5.738210 0.955339
-1.278625 5.565720 0.560089
-1.455161 5.681691 0.996202
-1.455332 5.631715 1.041002
-1.337863 5.555842 0.703260
-1.504810 5.610800 1.137555
-1.286899 5.514171 0.604074
-1.515363 5.744249 1.124770
-1.328839 5.489236 0.708448
-1.261891 5.513371 0.411961
-1.507167 5.679299 1.131216
-1.324690 5.462637 0.639705
-1.373724 5.498581 0.869215
-1.207532 5.489061 0.353402
-1.365348 5.656574 0.730302
-1.206671 5.492007 0.352531
-1.358187 5.600756 0.778857
-1.366886 5.550437 0.823264
-1.367790 5.508884 0.353038
-1.420012 5.730585 0.888787
-1.236591 5.468595 0.464487
-1.294997 5.576965 0.526933
-1.394045 5.527802 0.900338
-1.515762 5.866777 1.191241
-1.432380 5.664814 0.886856
-1.424659 5.597476 0.892932
-1.508152 5.840511 1.110878
-1.355449 5.657628 0.685674
-1.464728 5.611808 1.069376
-1.321840 5.508825 0.513063
-1.224391 5.465947 0.421404
-1.447154 5.716202 0.983805
-1.295583 5.602057 0.540752
-1.434189 5.775132 0.943641
-1.319807 5.451346 0.693913
-1.458208 5.665886 1.025878
-1.281356 5.448996 0.529350
-1.349406 5.590535 0.684890
-1.492580 5.645306 1.120052
-1.510604 5.777672 1.110079
-1.315722 5.547224 0.580437
-1.310888 5.449653 0.675094
-1.320466 5.525180 0.694411
-1.230409 5.552943 0.412297
-1.504256 5.713280 1.115394
-1.372120 5.531796 0.854295
-1.303523 5.501122 0.630749
-1.433105 5.501781 0.218166
-1.423492 5.506004 0.222171
-1.359100 5.693454 0.718391
-1.372367 5.635835 0.761428
-1.372911 5.584403 0.807894
-1.418297 5.764725 0.875878
-1.223054 5.560481 0.406592
-1.291492 5.613266 0.513941
-1.233615 5.505259 0.449896
-1.398855 5.560666 0.882462
-1.517510 5.903001 1.180523
-1.514437 5.873952 1.099173
-1.414524 5.699474 0.874381
-1.246300 5.458829 0.485911
-1.471631 5.643776 1.054459
-1.417705 5.632706 0.877320
-1.353769 5.693583 0.671948
-1.202333 5.475219 0.350414
-1.204760 5.481508 0.364400
-1.269526 5.549835 0.518085
-1.253558 5.498039 0.390842
-1.445456 5.751278 0.970484
-1.294310 5.638363 0.527866
-1.457004 5.699490 1.011776
-1.319660 5.485644 0.676611
-1.438310 5.812241 0.930183
-1.265146 5.486006 0.519826
-1.350997 5.626308 0.668470
-1.502696 5.811274 1.095635
-1.294024 5.585345 0.573080
-1.494273 5.680220 1.101592
-1.308404 5.484867 0.659716
-1.372341 5.564642 0.838643
-1.328456 5.559681 0.675458
-1.245641 5.588695 0.391648
-1.496876 5.747249 1.099345
-1.303270 5.536336 0.615475
-1.194024 5.563830 0.332006
-1.356910 5.729968 0.705858
-1.195904 5.566226 0.330045
-1.367664 5.619261 0.794002
-1.372922 5.671805 0.747811
-1.418425 5.799417 0.861826
-1.246123 5.595129 0.381428
-1.354772 5.529535 0.379347
-1.290744 5.649934 0.499442
-1.411819 5.594651 0.862526
-1.507318 5.907371 1.086802
-1.517040 5.940141 1.169276
-1.418344 5.735278 0.858058
-1.464640 5.677182 1.039663
-1.343930 5.728419 0.660270
-1.239668 5.496225 0.472768
-1.413896 5.667757 0.861448
-1.244837 5.506015 0.312745
-1.248466 5.446419 0.506154
-1.259705 5.512132 0.319580
-1.239999 5.536333 0.381845
-1.283963 5.585786 0.495351
-1.444162 5.786721 0.957992
-1.447268 5.733444 0.998062
-1.291224 5.675955 0.515286
-1.313638 5.521585 0.660232
-1.256305 5.451780 0.501207
-1.431123 5.848411 0.919026
-1.495173 5.844321 1.082433
-1.320747 5.515575 0.479946
-1.344850 5.662250 0.654522
-1.304667 5.621116 0.554651
-1.376639 5.598049 0.821958
-1.311401 5.518982 0.642154
-1.496352 5.714575 1.084373
-1.339591 5.593996 0.656245
-1.493045 5.781408 1.083872
-1.244401 5.626820 0.377936
-1.295281 5.571717 0.602673
-1.218508 5.480967 0.394157
-1.202009 5.461703 0.348479
-1.211026 5.472999 0.373801
-1.216297 5.598642 0.304755
-1.368989 5.706841 0.734380
-1.216754 5.601774 0.304356
-1.371468 5.654135 0.778097
-1.351975 5.767031 0.694406
-1.416214 5.835026 0.849690
-1.243545 5.632144 0.367653
-1.285000 5.686225 0.486326
-1.244022 5.577123 0.415783
-1.497033 5.940048 1.075090
-1.523112 5.913712 1.192594
-1.457629 5.709663 1.025273
-1.404492 5.631349 0.845248
-1.515229 5.976167 1.157960
-1.420299 5.769597 0.843278
-1.346307 5.764002 0.645914
-1.284792 5.526499 0.436452
-1.408256 5.703171 0.846295
-1.208255 5.546124 0.316497
-1.250549 5.480696 0.488956
-1.213458 5.553708 0.328570
-1.280050 5.621708 0.481515
-1.237932 5.572794 0.366875
-1.451863 5.768162 0.984227
-1.442864 5.822161 0.945493
-1.294550 5.713175 0.499748
-1.499781 5.879968 1.068174
-1.251197 5.487514 0.484465
-1.434730 5.886065 0.906751
-1.320324 5.556811 0.640388
-1.344081 5.698013 0.640425
-1.261644 5.558415 0.486252
-1.302071 5.657234 0.541283
-1.387246 5.632016 0.804348
-1.300264 5.554542 0.629604
-1.333952 5.629381 0.641098
-1.480966 5.749257 1.067102
-1.242227 5.664204 0.364990
-1.496844 5.816317 1.067948
-1.261924 5.511586 0.356121
-1.310492 5.606578 0.582428
-1.222790 5.506712 0.350948
-1.199538 5.497793 0.332681
-1.215546 5.635277 0.290251
-1.417639 5.868972 0.836510
-1.214581 5.639148 0.291412
-1.364563 5.743351 0.721728
-1.373442 5.689368 0.762911
-1.355179 5.804280 0.681303
-1.243724 5.669524 0.352370
-1.280574 5.722699 0.473676
-1.249281 5.613041 0.397493
-1.501094 5.974395 1.062844
-1.524044 5.949189 1.180190
-1.459162 5.742715 1.010069
-1.415448 5.804826 0.830196
-1.515547 6.013116 1.148782
-1.405672 5.666770 0.827979
-1.346854 5.799946 0.632277
-1.247010 5.566426 0.437279
-1.396301 5.738020 0.832054
-1.211704 5.583315 0.298522
-1.218718 5.589613 0.310280
-1.255001 5.515891 0.469004
-1.279806 5.657813 0.465808
-1.234948 5.609435 0.352262
-1.448823 5.802123 0.970831
-1.437503 5.857963 0.933603
-1.285940 5.750021 0.490155
-1.499885 5.913756 1.054513
-1.434256 5.923156 0.895497
-1.340671 5.733398 0.625374
-1.347199 5.512698 0.424521
-1.323334 5.591839 0.622400
-1.270153 5.593242 0.465675
-1.309146 5.587922 0.610687
-1.380674 5.666682 0.789969
-1.296731 5.693899 0.528996
-1.237291 5.701215 0.353538
-1.328733 5.666056 0.626368
-1.493414 5.850839 1.053298
-1.487929 5.784908 1.050513
-1.219959 5.551871 0.360009
-1.311568 5.642886 0.567194
-1.216660 5.543530 0.336593
-1.392272 5.514299 0.209286
-1.413172 5.903648 0.824664
-1.212473 5.673751 0.277252
-1.360117 5.778936 0.709482
-1.369506 5.724405 0.749471
-1.213844 5.676698 0.276488
-1.211258 5.488904 0.358690
-1.353404 5.842074 0.669171
-1.242056 5.706345 0.338218
-1.207345 5.495173 0.365008
-1.278886 5.758617 0.459930
-1.497927 6.008365 1.051872
-1.194108 5.479784 0.325607
-1.249442 5.649504 0.382620
-1.450319 5.775560 0.996392
-1.521809 5.983919 1.168444
-1.409258 5.838943 0.817046
-1.343319 5.835331 0.619661
-1.514560 6.050798 1.138710
-1.397408 5.702723 0.811462
-1.401012 5.772706 0.815766
-1.256855 5.602350 0.416759
-1.219315 5.619209 0.277890
-1.277715 5.693360 0.451231
-1.218491 5.626613 0.294161
-1.280911 5.549078 0.440710
-1.446186 5.836452 0.958263
-1.234703 5.645519 0.336552
-1.439365 5.894135 0.920425
-1.495012 5.948090 1.041825
-1.284165 5.787786 0.478026
-1.337664 5.769149 0.611153
-1.431037 5.960797 0.885324
-1.330014 5.627048 0.602542
-1.254595 5.558070 0.447139
-1.269892 5.628423 0.450379
-1.382222 5.700620 0.774353
-1.318973 5.622953 0.590576
-1.296889 5.730378 0.514113
-1.235111 5.738590 0.340578
-1.328996 5.701626 0.609454
-1.486835 5.885538 1.038894
-1.303571 5.678257 0.554371
-1.413696 5.938689 0.811420
-1.477005 5.819596 1.033448
-1.219685 5.579431 0.318190
-1.229011 5.587961 0.337406
-1.208975 5.710928 0.263821
-1.199174 5.569962 0.298837
-1.370966 5.760183 0.735470
-1.361998 5.815998 0.695898
-1.208009 5.714799 0.264981
-1.346616 5.878573 0.658835
-1.396524 5.505062 0.241467
-1.236728 5.743898 0.325509
-1.499242 6.043255 1.040702
-1.277619 5.795821 0.446600
-1.360855 5.515356 0.265001
-1.250695 5.508721 0.274734
-1.247790 5.687250 0.368053
-1.444621 5.808225 0.982457
-1.523952 6.020498 1.158533
-1.409800 5.874909 0.803395
-1.338480 5.871446 0.606153
-1.512639 6.087737 1.129408
-1.393082 5.738314 0.796769
-1.394856 5.808665 0.801790
-1.252548 5.638807 0.401663
-1.212670 5.656567 0.264716
-1.219175 5.663422 0.277671
-1.278398 5.730190 0.434735
-1.444478 5.871517 0.944914
-1.242297 5.587346 0.440269
-1.231731 5.683071 0.321512
-1.493300 5.983160 1.028464
-1.438483 5.930856 0.908327
-1.287906 5.826280 0.462888
-1.335974 5.805083 0.597397
-1.379198 5.735471 0.760543
-1.430575 5.998800 0.873642
-1.326215 5.662975 0.586244
-1.263628 5.593252 0.424944
-1.267024 5.665066 0.433306
-1.312821 5.658879 0.576614
-1.292474 5.767773 0.501037
-1.412389 5.974094 0.798896
-1.236620 5.777062 0.325335
-1.333740 5.738116 0.592339
-1.304643 5.714556 0.539123
-1.483417 5.920976 1.023817
-1.226531 5.624039 0.321584
-1.223638 5.616061 0.299004
-1.208732 5.605483 0.275029
-1.477668 5.855593 1.017350
-1.207741 5.749943 0.249669
-1.361119 5.795023 0.723770
-1.359797 5.852498 0.683335
-1.211854 5.752336 0.247815
-1.496071 6.077215 1.029719
-1.345750 5.916173 0.646325
-1.234141 5.780894 0.311705
-1.202753 5.560882 0.326484
-1.274099 5.832097 0.433567
-1.201581 5.566604 0.331712
-1.529269 5.996046 1.178945
-1.197622 5.550284 0.285827
-1.443826 5.843111 0.968746
-1.246135 5.724990 0.353479
-1.518564 6.055402 1.147027
-1.405873 5.910864 0.789516
-1.341270 5.908296 0.592192
-1.510716 6.124672 1.120098
-1.388365 5.774453 0.780820
-1.394586 5.843887 0.786467
-1.251386 5.675080 0.386307
-1.438689 5.906021 0.932586
-1.254984 5.621789 0.416618
-1.212019 5.701334 0.265687
-1.204617 5.695582 0.252683
-1.275422 5.767751 0.419682
-1.491992 6.018596 1.015933
-1.231515 5.720984 0.304963
-1.437598 5.967571 0.896223
-1.279305 5.864037 0.452861
-1.331133 5.841193 0.583888
-1.373938 5.770315 0.746617
-1.431412 6.036061 0.862839
-1.260868 5.700970 0.419337
-1.256578 5.630258 0.410933
-1.313995 5.694254 0.559331
-1.288445 5.804614 0.489202
-1.324681 5.700743 0.569223
-1.415582 6.011338 0.785759
-1.477220 5.955117 1.010648
-1.327582 5.774040 0.578363
-1.236297 5.815897 0.310809
-1.294829 5.751211 0.526600
-1.219479 5.661032 0.307569
-1.216586 5.653049 0.284990
-1.365333 5.831161 0.708254
-1.491069 6.111542 1.019454
-1.209368 5.788390 0.231973
-1.207198 5.643206 0.258015
-1.476094 5.891582 1.001134
-1.357611 5.889915 0.670351
-1.208773 5.790792 0.234792
-1.349382 5.955610 0.633202
-1.230653 5.818988 0.297844
-1.219233 5.595487 0.298523
-1.273369 5.870574 0.418199
-1.526623 6.030399 1.166350
-1.447989 5.876519 0.954462
-1.221734 5.601395 0.301886
-1.244072 5.762353 0.338061
-1.206790 5.586350 0.260770
-1.518469 6.091970 1.136992
-1.406410 5.946818 0.775851
-1.337745 5.944586 0.579143
-1.506047 6.162158 1.111868
-1.386793 5.810406 0.764611
-1.393823 5.880581 0.771922
-1.250238 5.712266 0.370531
-1.438700 5.941635 0.920532
-1.270986 5.804205 0.407009
-1.206688 5.738874 0.252971
-1.205314 5.733298 0.235767
-1.486602 6.053474 1.004423
-1.254769 5.659720 0.400072
-1.225778 5.758157 0.291409
-1.431701 6.002990 0.885916
-1.280282 5.902151 0.439209
-1.325376 5.877484 0.570734
-1.375496 5.805161 0.730568
-1.428608 6.074980 0.853066
-1.410597 6.046550 0.775085
-1.262073 5.738157 0.401221
-1.310596 5.730542 0.543855
-1.254620 5.666708 0.393490
-1.286785 5.842366 0.474609
-1.314056 5.736656 0.555028
-1.234127 5.854173 0.297414
-1.477756 5.991105 0.996976
-1.320102 5.809773 0.563907
-1.296809 5.787314 0.510975
-1.490549 6.146787 1.008991
-1.221193 5.697648 0.288259
-1.204439 5.826291 0.220082
-1.357732 5.866920 0.696238
-1.209023 5.690590 0.272167
-1.204326 5.679815 0.240932
-1.354491 5.926590 0.658137
-1.210802 5.829602 0.217924
-1.470440 5.927007 0.985940
-1.348002 5.993752 0.621876
-1.230327 5.857812 0.283309
-1.518966 6.063455 1.155554
-1.270775 5.907573 0.404375
-1.214128 5.632100 0.281336
-1.447190 5.911394 0.940737
-1.210602 5.637826 0.288898
-1.241497 5.800266 0.323835
-1.517457 6.128717 1.127312
-1.330544 5.980690 0.567951
-1.201686 5.622958 0.243582
-1.400650 5.983132 0.762685
-1.512596 6.202404 1.102942
-1.440555 5.977795 0.907332
-1.245009 5.748893 0.355776
-1.388572 5.916343 0.757563
-1.493343 6.090930 0.991854
-1.386166 5.848012 0.747206
-1.210666 5.777314 0.232934
-1.263943 5.842123 0.392557
-1.202859 5.771188 0.219096
-1.247292 5.695429 0.385625
-1.229739 5.795681 0.271783
-1.433467 6.040988 0.874330
-1.327369 5.914503 0.554680
-1.282204 5.941912 0.424361
-1.370637 5.840367 0.717464
-1.529489 6.031000 1.170962
-1.405627 6.082679 0.763992
-1.428035 6.113892 0.843396
-1.305350 5.766273 0.529510
-1.288269 5.879928 0.459757
-1.256859 5.775708 0.386050
-1.252677 5.704072 0.375627
-1.490449 6.183318 0.998942
-1.238404 5.893906 0.280233
-1.480134 6.027638 0.982158
-1.310671 5.773862 0.539131
-1.290138 5.823780 0.498185
-1.318035 5.847164 0.548475
-1.356439 5.903231 0.683297
-1.206483 5.866012 0.202794
-1.209820 5.727380 0.253212
-1.217826 5.735733 0.271953
-1.198182 5.716607 0.226541
-1.208647 5.868779 0.204111
-1.356801 5.965839 0.644533
-1.232879 5.896984 0.264820
-1.465205 5.963722 0.971160
-1.520291 6.099280 1.143951
-1.345739 6.033916 0.610079
-1.262676 5.944758 0.393133
-1.443224 5.945523 0.927672
-1.207598 5.669448 0.265701
-1.515513 6.164722 1.118402
-1.237989 5.837438 0.310377
-1.212841 5.674803 0.267974
-1.330196 6.018624 0.553809
-1.395275 6.018892 0.750760
-1.195155 5.660303 0.227952
-1.517735 6.244310 1.095157
-1.439242 6.013214 0.894793
-1.486629 6.125615 0.979860
-1.242940 5.786258 0.340349
-1.387820 5.953949 0.742591
-1.255438 5.878943 0.380485
-1.201720 5.809265 0.202890
-1.381845 5.884511 0.732070
-1.213216 5.816492 0.214450
-1.427580 6.077326 0.863596
-1.249406 5.732431 0.367139
-1.224028 5.834689 0.257387
-1.524572 6.063503 1.159072
-1.277265 5.979839 0.412447
-1.319776 5.951159 0.542237
-1.407896 6.120093 0.751197
-1.366704 5.876314 0.703576
-1.428404 6.154461 0.832527
-1.299184 5.802192 0.515518
-1.490346 6.219848 0.988886
-1.287022 5.918966 0.445570
-1.251623 5.812341 0.371281
-1.235327 5.933282 0.266770
-1.246140 5.741440 0.359978
-1.309106 5.882717 0.535975
-1.469884 6.063063 0.969167
-1.308195 5.810886 0.522859
-1.291229 5.861905 0.482078
-1.359237 5.941017 0.668903
-1.203913 5.904823 0.188134
-1.213114 5.772716 0.255574
-1.207008 5.908324 0.188674
-1.209204 5.765834 0.235393
-1.198480 5.754873 0.208360
-1.352775 6.003618 0.632248
-1.522018 6.135476 1.133172
-1.227024 5.935077 0.253268
-1.343435 6.072240 0.599096
-1.443738 5.980581 0.914401
-1.270617 5.984686 0.374071
-1.468528 6.001919 0.955145
-1.208000 5.706799 0.245489
-1.334341 6.058402 0.539048
-1.520332 6.204417 1.108155
-1.392654 6.055021 0.737321
-1.238178 5.876637 0.294214
-1.209060 5.712527 0.250822
-1.194625 5.696910 0.208511
-1.515713 6.283075 1.087429
-1.436518 6.050293 0.883381
-1.481652 6.161775 0.968742
-1.382052 5.990264 0.729405
-1.239966 5.824727 0.324852
-1.255610 5.917228 0.364727
-1.196899 5.847160 0.188530
-1.210240 5.854937 0.198951
-1.426596 6.115874 0.853074
-1.518755 6.097110 1.147115
-1.379769 5.921930 0.716613
-1.249280 5.769425 0.348525
-1.220120 5.872405 0.242662
-1.405168 6.157137 0.739778
-1.322180 5.989463 0.526581
-1.274588 6.019603 0.399801
-1.362767 5.912256 0.689672
-1.496060 6.258396 0.978683
-1.425994 6.193738 0.823558
-1.297108 5.839582 0.500068
-1.280760 5.956713 0.433172
-1.248242 5.850442 0.354945
-1.231329 5.972839 0.253655
-1.289540 5.898736 0.467872
-1.473082 6.101251 0.955582
-1.247858 5.778984 0.340224
-1.308873 5.920656 0.519379
-1.303479 5.847902 0.506463
-1.351624 5.976770 0.656856
-1.200441 5.944732 0.173410
-1.214320 5.810795 0.237015
-1.203010 5.947871 0.175562
-1.350979 6.041389 0.620062
-1.206737 5.803730 0.218699
-1.517025 6.170741 1.122465
-1.192340 5.792585 0.193531
-1.436618 6.014890 0.901565
-1.268956 6.023327 0.359027
-1.224991 5.975171 0.236567
-1.348421 6.114600 0.585166
-1.464605 6.038814 0.940812
-1.326213 6.094684 0.528190
-1.204724 5.743957 0.227129
-1.387692 6.092070 0.725795
-1.516569 6.241708 1.099533
-1.234691 5.915646 0.279905
-1.203008 5.748400 0.234376
-1.188590 5.733698 0.191653
-1.434706 6.087181 0.871602
-1.482088 6.199585 0.956649
-1.515447 6.324233 1.080173
-1.383524 6.027861 0.714518
-1.233825 5.862453 0.310014
-1.259063 5.956230 0.345850
-1.520584 6.132375 1.134293
-1.191177 5.886154 0.174113
-1.434188 6.156806 0.840909
-1.199405 5.893575 0.188371
-1.402454 6.195095 0.727939
-1.213467 5.910671 0.229018
-1.243140 5.807157 0.333692
-1.317760 6.027765 0.513036
-1.370464 5.958974 0.702430
-1.274158 6.060278 0.386844
-1.494139 6.296205 0.968918
-1.360671 5.948745 0.674622
-1.560219 6.165376 1.181820
-1.420432 6.233197 0.814834
-1.292779 5.876044 0.484916
-1.282669 5.996474 0.418297
-1.245247 5.887987 0.339851
-1.227329 6.012389 0.240534
-1.469949 6.137959 0.943323
-1.285630 5.936481 0.453136
-1.244054 5.815786 0.323466
-1.309042 5.958957 0.503612
-1.351672 6.015099 0.643530
-1.301926 5.885650 0.489394
-1.196983 5.985552 0.158266
-1.520895 6.208772 1.113398
-1.217895 5.849778 0.215700
-1.350533 6.081181 0.607514
-1.441627 6.051779 0.887670
-1.196792 5.988329 0.161918
-1.206638 5.842531 0.199248
-1.264955 6.062889 0.345900
-1.220990 6.014717 0.223445
-1.192241 5.831384 0.174081
-1.339290 6.152919 0.576281
-1.322178 6.132428 0.515883
-1.519944 6.281205 1.091244
-1.389583 6.130945 0.711319
-1.202765 5.781295 0.209235
-1.457125 6.075515 0.925890
-1.227528 5.954470 0.267453
-1.208023 5.787569 0.211091
-1.188087 5.772130 0.171372
-1.434211 6.124248 0.860289
-1.479762 6.237025 0.946051
-1.515584 6.365755 1.073746
-1.525455 6.168375 1.123247
-1.381846 6.065633 0.699877
-1.253321 5.994319 0.331833
-1.236363 5.901636 0.291501
-1.401987 6.233964 0.715790
-1.491269 6.332350 0.960340
-1.430050 6.195525 0.830625
-1.205243 5.934376 0.166329
-1.197031 5.927873 0.151658
-1.212856 5.950018 0.210754
-1.314252 6.065875 0.499121
-1.240265 5.844692 0.316153
-1.272405 6.100760 0.373408
-1.359892 5.985413 0.660039
-1.376556 5.998405 0.684487
-1.556696 6.202664 1.168301
-1.420283 6.274301 0.805134
-1.288447 5.912499 0.469757
-1.280496 6.035676 0.404444
-1.221903 6.052675 0.228966
-1.245551 5.927171 0.321225
-1.474495 6.178158 0.929370
-1.286219 5.976059 0.437786
-1.305146 5.997621 0.488453
-1.353563 6.053968 0.629058
-1.239367 5.854608 0.306237
-1.520802 6.246240 1.102906
-1.192591 6.025631 0.143892
-1.298557 5.924680 0.472630
-1.199255 6.030235 0.144599
-1.351930 6.121512 0.593821
-1.434009 6.087557 0.875606
-1.258700 6.101525 0.333070
-1.213822 6.053524 0.210982
-1.209006 5.888037 0.201943
-1.200509 5.881152 0.183991
-1.339260 6.193980 0.564142
-1.190311 5.870543 0.155350
-1.325943 6.173644 0.499436
-1.390962 6.170367 0.698034
-1.517528 6.320513 1.082254
-1.202785 5.820086 0.187335
-1.463517 6.116271 0.910802
-1.227335 5.995109 0.249603
-1.204758 5.825631 0.192303
-1.484168 6.276297 0.934951
-1.183907 5.810372 0.152948
-1.423830 6.159653 0.849719
-1.519137 6.203446 1.112056
-1.398759 6.272465 0.705137
-1.488429 6.370332 0.950926
-1.383752 6.105425 0.684985
-1.242988 6.032411 0.320035
-1.232466 5.940268 0.276347
-1.427228 6.234423 0.820809
-1.202291 5.974635 0.149982
-1.192759 5.967945 0.134839
-1.213593 5.991380 0.192127
-1.307997 6.104536 0.486287
-1.360447 6.023180 0.645509
-1.268821 6.141606 0.360690
-1.238318 5.882953 0.297831
-1.371745 6.037279 0.669683
-1.421468 6.316501 0.795486
-1.291389 5.952075 0.452069
-1.274663 6.075615 0.392035
-1.557161 6.242348 1.155365
-1.213325 6.093141 0.217643
-1.244937 5.966530 0.302954
-1.469527 6.215223 0.917824
-1.283640 6.014895 0.423096
-1.301231 6.035356 0.473702
-1.354537 6.093014 0.614943
-1.524683 6.285177 1.093413
-1.190972 6.066981 0.127595
-1.235590 5.893236 0.288638
-1.433106 6.124251 0.863453
-1.345554 6.160192 0.583428
-1.192117 6.070863 0.131305
-1.297419 5.963703 0.455969
-1.260262 6.144550 0.315685
-1.214572 6.095790 0.191932
-1.207073 5.927193 0.183203
-1.198050 5.919944 0.166863
-1.344660 6.237601 0.550612
-1.321005 6.212477 0.487066
-1.184704 5.909515 0.138476
-1.388259 6.209234 0.685772
-1.520405 6.361474 1.074734
-1.191661 5.858339 0.173468
-1.224787 6.035748 0.234084
-1.459092 6.154624 0.897233
-1.567617 6.338030 1.172432
-1.478689 6.313910 0.924593
-1.194548 5.863699 0.178072
-1.429183 6.200576 0.837431
-1.176982 5.849163 0.135606
-1.524036 6.241275 1.100170
-1.393278 6.310040 0.694782
-1.373926 6.143006 0.671974
-1.233695 5.980165 0.256934
-1.427991 6.275339 0.810740
-1.244128 6.074153 0.302233
-1.192564 6.008555 0.116985
-1.310424 6.144644 0.469779
-1.197507 6.015258 0.134354
-1.207862 6.030356 0.177688
-1.268416 6.184094 0.346885
-1.351012 6.060212 0.633755
-1.234945 5.921948 0.281063
-1.369164 6.076146 0.654983
-1.419906 6.359253 0.786918
-1.275261 6.116083 0.376253
-1.290232 5.990171 0.435817
-1.217644 6.136505 0.198756
-1.554054 6.280915 1.142254
-1.462323 6.252283 0.906161
-1.242492 6.006251 0.285401
-1.514686 6.320056 1.084073
-1.349584 6.130955 0.602989
-1.281074 6.054642 0.407984
-1.186590 6.107962 0.112793
-1.302354 6.076206 0.456310
-1.433131 6.161674 0.850517
-1.232725 5.931671 0.270671
-1.189580 6.112390 0.115364
-1.259553 6.185727 0.299012
-1.347383 6.202717 0.569728
-1.321496 6.253871 0.473305
-1.212966 6.138056 0.175212
-1.339123 6.278842 0.541048
-1.299054 6.004000 0.437386
-1.200040 5.966906 0.167881
-1.199820 5.961103 0.145425
-1.181869 5.949761 0.119679
-1.384250 6.248828 0.672616
-1.222235 6.076378 0.218558
-1.190235 5.896935 0.153529
-1.451500 6.192234 0.884324
-1.475473 6.353355 0.913511
-1.427782 6.238729 0.826048
-1.194052 5.903028 0.157356
-1.514532 6.274678 1.090050
-1.396423 6.352746 0.681542
-1.176080 5.888114 0.114056
-1.373997 6.183153 0.657794
-1.424266 6.315329 0.800858
-1.244860 6.115511 0.283589
-1.226135 6.019523 0.243216
-1.190876 6.055325 0.119858
-1.185018 6.048806 0.102852
-1.311966 6.186767 0.452797
-1.204531 6.072070 0.159663
-1.261152 6.224749 0.336018
-1.352492 6.098699 0.618435
-1.227489 5.960386 0.265317
-1.270353 6.156739 0.363054
-1.365294 6.116661 0.638974
-1.212242 6.178604 0.186340
-1.281336 6.028452 0.422038
-1.517664 6.360086 1.074516
-1.550434 6.320033 1.130334
-1.461884 6.293015 0.893165
-1.236370 6.045787 0.269706
-1.277575 6.093647 0.393644
-1.347826 6.171463 0.589533
-1.432239 6.199275 0.837938
-1.294776 6.114669 0.442996
-1.178548 6.149678 0.099434
-1.314724 6.293061 0.461647
-1.251884 6.226000 0.287309
-1.183773 6.154105 0.102115
-1.345114 6.243767 0.557464
-1.203977 6.178129 0.163040
-1.223457 5.971397 0.255234
-1.337695 6.322459 0.529620
-1.192582 6.005321 0.152131
-1.190938 6.000257 0.131236
-1.292002 6.042828 0.422466
-1.389225 6.291166 0.658653
-1.179032 5.989997 0.100876
-1.222472 6.119196 0.200695
-1.190667 5.936987 0.132030
-1.429050 6.279085 0.814775
-1.397704 6.393976 0.669849
-1.454751 6.234067 0.869053
-1.517614 6.313786 1.078461
-1.188966 5.942356 0.138860
-1.178882 5.929070 0.089807
-1.421874 6.356417 0.791028
-1.374996 6.224023 0.642830
-1.244166 6.157603 0.266498
-1.220416 6.059422 0.228353
-1.302029 6.225229 0.441809
-1.186102 6.096849 0.103802
-1.176149 6.088864 0.088240
-1.263008 6.269054 0.321481
-1.200672 6.113412 0.143242
-1.350312 6.137920 0.604559
-1.218203 5.999189 0.250290
-1.271399 6.200315 0.346851
-1.209207 6.221600 0.171166
-1.364974 6.157351 0.623542
-1.280207 6.068371 0.404945
-1.347893 6.211589 0.575347
-1.468598 6.336867 0.880086
-1.429532 6.238161 0.825662
-1.229736 6.085873 0.255201
-1.277795 6.135575 0.376189
-1.546828 6.360064 1.117992
-1.312992 6.335356 0.447348
-1.180254 6.194472 0.078762
-1.248832 6.268089 0.272544
-1.301851 6.158430 0.422595
-1.179418 6.196904 0.086470
-1.346428 6.286830 0.544948
-1.202382 6.221294 0.145892
-1.335349 6.366252 0.518548
-1.384701 6.331300 0.646682
-1.183899 6.039952 0.115901
-1.190688 6.047205 0.132129
-1.223393 6.012934 0.234509
-1.175277 6.030409 0.082429
-1.284980 6.083487 0.406710
-1.219017 6.160911 0.185103
-1.508527 6.348471 1.068750
-1.426237 6.318887 0.804525
-1.187963 5.978132 0.110363
-1.190325 5.983131 0.116577
-1.449841 6.274795 0.855833
-1.168274 5.967657 0.074309
-1.237528 6.197675 0.251982
-1.427584 6.402273 0.779923
-1.367834 6.263792 0.629917
-1.299892 6.267158 0.426678
-1.214306 6.099859 0.212234
-1.264488 6.314812 0.305274
-1.180412 6.138550 0.088101
-1.172303 6.131109 0.071401
-1.194982 6.155118 0.127540
-1.349059 6.177867 0.589900
-1.217596 6.039441 0.231586
-1.265977 6.241511 0.334835
-1.209892 6.267510 0.152878
-1.274470 6.107371 0.390487
-1.361908 6.198589 0.609190
-1.431307 6.277957 0.813187
-1.177742 6.237804 0.061972
-1.466324 6.377952 0.867801
-1.342472 6.252824 0.563327
-1.319481 6.382400 0.429328
-1.251346 6.313637 0.253527
-1.268788 6.174761 0.364424
-1.228229 6.127218 0.236438
-1.184319 6.244250 0.064295
-1.296144 6.199260 0.407299
-1.342340 6.329154 0.532982
-1.199901 6.266469 0.128271
-1.385623 6.374911 0.632905
-1.188266 6.088718 0.113731
-1.217776 6.051899 0.217608
-1.183864 6.083288 0.094339
-1.170621 6.071916 0.063923
-1.278344 6.123590 0.392197
-1.208210 6.202271 0.173232
-1.418021 6.357952 0.794824
-1.180533 6.018369 0.093776
-1.453913 6.318270 0.841803
-1.180660 6.023368 0.099880
-1.164637 6.008053 0.053412
-1.236844 6.240664 0.234464
-1.299088 6.310181 0.411599
-1.372851 6.308876 0.614699
-1.262697 6.360758 0.291757
-1.181200 6.183526 0.067785
-1.216924 6.144493 0.191195
-1.171772 6.175898 0.050613
-1.344639 6.217072 0.575900
-1.193520 6.199182 0.107527
-1.214768 6.080600 0.212351
-1.205954 6.311589 0.137639
-1.266135 6.287089 0.318152
-1.278376 6.150388 0.370746
-1.247391 6.356808 0.238698
-1.423601 6.316468 0.802290
-1.345222 6.296059 0.548829
-1.354355 6.238901 0.595025
-1.174361 6.284063 0.044294
-1.271269 6.218506 0.346238
-1.215665 6.166195 0.224088
-1.176706 6.288145 0.050921
-1.200178 6.311990 0.109141
-1.337741 6.372027 0.522205
-1.287150 6.239361 0.395110
-1.183624 6.131139 0.094802
-1.214963 6.093972 0.197957
-1.177376 6.125160 0.076550
-1.162288 6.113238 0.047274
-1.278171 6.166058 0.373482
-1.211263 6.249087 0.152189
-1.429652 6.404897 0.781544
-1.174556 6.059690 0.074794
-1.176528 6.065236 0.079758
-1.450349 6.361004 0.828212
-1.160504 6.049914 0.033291
-1.232500 6.284387 0.218387
-1.302934 6.356849 0.392628
-1.367036 6.350650 0.601416
-1.173691 6.226497 0.052381
-1.209385 6.185655 0.176622
-1.187839 6.241785 0.091396
-1.342888 6.258478 0.562011
-1.170865 6.222136 0.028154
-1.202959 6.357304 0.121201
-1.269050 6.333012 0.299960
-1.214729 6.123945 0.190778
-1.431223 6.360107 0.788837
-1.270821 6.190661 0.356584
-1.339795 6.337276 0.536797
-1.169657 6.330125 0.026137
-1.266384 6.260975 0.332187
-1.196778 6.357327 0.091868
-1.221055 6.212096 0.201123
-1.175183 6.335853 0.031682
-1.355411 6.283424 0.578385
-1.282789 6.282196 0.379445
-1.176202 6.172272 0.077783
-1.174997 6.169402 0.056895
-1.208880 6.136232 0.180997
-1.160450 6.158754 0.025595
-1.278026 6.210350 0.353931
-1.204141 6.291517 0.138026
-1.169101 6.101360 0.054194
-1.167788 6.106187 0.062270
-1.227764 6.328645 0.201054
-1.447187 6.404100 0.815448
-1.152321 6.093054 0.013364
-1.370744 6.396442 0.585297
-1.186404 6.287659 0.070540
-1.176893 6.275103 0.028056
-1.206073 6.229175 0.157737
-1.342996 6.301338 0.546560
-1.168514 6.268188 0.007662
-1.263684 6.377850 0.286265
-1.207713 6.165467 0.174590
-1.427098 6.400623 0.777681
-1.338898 6.382155 0.523319
-1.261943 6.230741 0.341943
-1.169977 6.378364 0.005752
-1.175503 6.384091 0.011297
-1.264271 6.304711 0.316213
-1.213138 6.254713 0.184875
-1.288072 6.329034 0.358496
-1.353704 6.327576 0.563240
-1.178051 6.218872 0.053816
-1.172210 6.213260 0.036399
-1.207008 6.179932 0.160139
-1.160033 6.203511 0.002348
-1.199824 6.337049 0.121111
-1.270499 6.252448 0.338930
-1.164063 6.144310 0.034006
-1.166035 6.149855 0.038968
-1.226237 6.376373 0.181803
-1.166618 6.317694 0.014140
-1.151093 6.137074 -0.011549
-1.342186 6.344374 0.531465
-1.179446 6.332806 0.052679
-1.207801 6.275793 0.136209
-1.154566 6.310606 -0.004391
-1.207684 6.209705 0.152589
-1.262199 6.275386 0.323216
-1.269989 6.353738 0.295265
-1.215811 6.302979 0.162152
-1.285988 6.374598 0.341683
-1.356122 6.375015 0.545814
-1.174888 6.264182 0.031648
-1.167606 6.258395 0.016206
-1.159645 6.250088 -0.021735
-1.203845 6.225269 0.137972
-1.197381 6.384945 0.102219
-1.268941 6.298379 0.320509
-1.160495 6.189254 0.011008
-1.166156 6.195889 0.013690
-1.178442 6.380860 0.031813
-1.164311 6.366475 -0.007612
-1.346837 6.391801 0.514147
-1.154071 6.358095 -0.026451
-1.149369 6.182556 -0.035686
-1.203076 6.320951 0.118455
-1.204909 6.254489 0.131667
-1.270269 6.324405 0.299929
-1.211610 6.348495 0.142782
-1.163525 6.303876 -0.005606
-1.174934 6.312958 0.007561
-1.150943 6.293745 -0.040490
-1.200575 6.271523 0.117829
-1.272000 6.346117 0.299025
-1.161560 6.236922 -0.015469
-1.164429 6.241364 -0.010456
-1.144462 6.226376 -0.058749
-1.201665 6.368645 0.096750
-1.197542 6.299275 0.112964
-1.265017 6.369225 0.283775
-1.166651 6.357899 -0.010783
-1.162670 6.353739 -0.029753
-1.146907 6.341957 -0.063554
-1.197812 6.317204 0.096483
-1.266778 6.392768 0.282037
-1.149691 6.279849 -0.033562
-1.153912 6.286311 -0.028907
-1.136298 6.271300 -0.079534
-1.196652 6.347336 0.089650
-1.191383 6.363631 0.076582
-1.148015 6.328978 -0.059378
-1.154590 6.335423 -0.057060
-1.147805 6.380088 -0.088014
-1.149234 6.384360 -0.081028
