# .PCD v0.7 - Point Cloud Data file format
VERSION 0.7
FIELDS x y z
SIZE 4 4 4
TYPE F F F
COUNT 1 1 1
WIDTH 1948
HEIGHT 1
VIEWPOINT 0 0 0 1
POINTS 1948
DATA ascii
-14.012809 48.541100 -5.602937
-14.064182 48.542236 -5.561167
-14.030921 48.541695 -5.582335
-14.073818 48.543812 -5.521463
-14.031714 48.542404 -5.552568
-14.064200 48.546169 -5.531415
-14.106687 48.544823 -5.484109
-14.078477 48.545425 -5.482835
-14.084150 48.547092 -5.476683
-14.045102 48.544853 -5.502600
-14.138629 48.546494 -5.432649
-14.082273 48.543449 -5.452167
-14.104904 48.548241 -5.431829
-14.141554 48.540916 -5.409898
-14.060039 48.547405 -5.463155
-13.968281 48.542248 -5.556515
-14.020492 48.546391 -5.517461
-14.138922 48.537395 -5.384677
-13.989553 48.546413 -5.539126
-14.143401 48.539059 -5.372253
-14.029531 48.547211 -5.481356
-14.022125 48.550102 -5.490406
-13.993624 48.550724 -5.513973
-14.036953 48.550438 -5.446006
-14.065541 48.552711 -5.444380
-14.041682 48.551250 -5.439242
-14.007049 48.552258 -5.466848
-14.040238 48.548649 -5.417500
-14.093735 48.550056 -5.393312
-14.086713 48.542133 -5.389113
-14.063508 48.553288 -5.396410
-14.019583 48.553299 -5.428340
-14.098128 48.547325 -5.372515
-14.101295 48.548950 -5.352377
-14.125930 48.561115 -5.347996
-13.937971 48.558361 -5.522782
-13.979064 48.550159 -5.475689
-14.099283 48.543762 -5.339902
-13.954747 48.556149 -5.501640
-14.149697 48.559578 -5.302240
-13.992125 48.554459 -5.444845
-13.953057 48.554398 -5.474247
-13.981333 48.555897 -5.451375
-13.996196 48.555317 -5.409820
-14.007441 48.562065 -5.405944
-14.025276 48.560497 -5.406695
-13.967234 48.557987 -5.431269
-14.214043 48.550957 -5.208765
-14.000115 48.555553 -5.384055
-14.168243 48.561802 -5.272552
-14.053394 48.556900 -5.357069
-14.024770 48.559906 -5.362857
-14.050996 48.553204 -5.354533
-14.204782 48.549969 -5.213178
-13.981784 48.560764 -5.395393
-14.056326 48.553505 -5.337820
-14.058460 48.553333 -5.318507
-14.081836 48.563633 -5.312145
-14.059605 48.551716 -5.309241
-13.940208 48.554558 -5.437221
-13.897221 48.558865 -5.479583
-14.191257 48.549805 -5.216467
-14.197692 48.564114 -5.224143
-13.913881 48.558804 -5.460538
-14.104149 48.561440 -5.267941
-13.948458 48.553646 -5.404750
-14.212142 48.561230 -5.173495
-13.914951 48.558662 -5.436421
-13.938299 48.554924 -5.410523
-14.170807 48.547508 -5.181402
-13.959354 48.563633 -5.377482
-14.241179 48.565952 -5.132154
-13.964410 48.563278 -5.368594
-13.928618 48.562447 -5.395607
-13.985808 48.565056 -5.368992
-14.166618 48.553299 -5.176750
-13.962246 48.562073 -5.352542
-14.017201 48.565063 -5.323984
-14.124581 48.566284 -5.236644
-13.985647 48.564560 -5.329365
-14.161033 48.555691 -5.182208
-14.008183 48.555401 -5.317158
-13.937322 48.558216 -5.358929
-14.016466 48.558292 -5.303687
-14.018083 48.558311 -5.286535
-14.040200 48.566750 -5.278193
-14.020487 48.558556 -5.279253
-14.153426 48.567841 -5.191832
-13.866690 48.569946 -5.446651
-13.905904 48.562233 -5.401847
-14.146142 48.553627 -5.182112
-13.880951 48.566193 -5.425047
-14.065473 48.567146 -5.237235
-14.169583 48.565685 -5.142449
-13.912694 48.560661 -5.370925
-14.131709 48.556541 -5.154930
-13.904226 48.562664 -5.377954
-13.876777 48.561981 -5.400026
-14.294643 48.568062 -5.045944
-14.311862 48.550915 -4.984684
-14.196012 48.567917 -5.102078
-13.923508 48.569702 -5.345095
-13.930457 48.571053 -5.337433
-14.122392 48.556110 -5.147277
-13.885868 48.558437 -5.356899
-13.950459 48.574036 -5.335106
-13.917915 48.559555 -5.317479
-13.948778 48.568832 -5.297806
-13.975060 48.566181 -5.288684
-14.320694 48.575134 -4.996362
-14.086616 48.575878 -5.204408
-14.109243 48.551682 -5.147831
-13.900650 48.563465 -5.327330
-13.974851 48.566116 -5.285907
-14.280230 48.548782 -4.973268
-14.005637 48.574688 -5.247802
-13.977542 48.557938 -5.247586
-13.980359 48.564861 -5.256430
-13.975280 48.560261 -5.269002
-14.297131 48.557877 -4.980279
-14.104687 48.565186 -5.155763
-13.869125 48.565262 -5.365342
-14.106319 48.560604 -5.151494
-13.825929 48.566402 -5.404224
-14.025266 48.569057 -5.206009
-13.841020 48.565651 -5.385329
-14.338059 48.581963 -4.947460
-14.137023 48.578468 -5.115368
-13.877293 48.565586 -5.337808
-14.083624 48.554989 -5.124438
-13.844840 48.569302 -5.367984
-13.866822 48.565853 -5.342207
-14.157807 48.574673 -5.074161
-14.266297 48.556206 -4.958846
-14.254082 48.578278 -5.015365
-14.268401 48.554287 -4.972921
-14.354194 48.577953 -4.902427
-13.881203 48.566738 -5.309158
-13.886899 48.566219 -5.299516
-13.856256 48.568512 -5.328858
-14.081859 48.562298 -5.118849
-13.882860 48.564575 -5.288572
-13.903954 48.566616 -5.293948
-13.909945 48.570450 -5.266451
-14.274708 48.579380 -4.967748
-13.938506 48.572376 -5.255656
-13.865283 48.567474 -5.297050
-14.075342 48.561649 -5.120194
-14.045973 48.579842 -5.171071
-14.233838 48.553249 -4.948215
-13.941134 48.564522 -5.225148
-13.940289 48.562431 -5.219589
-13.929930 48.561577 -5.248107
-13.957906 48.566677 -5.211009
-13.938005 48.565670 -5.238167
-14.247496 48.557827 -4.953451
-14.068151 48.573578 -5.126253
-14.068639 48.567162 -5.121404
-13.797670 48.577099 -5.373221
-13.991895 48.577911 -5.179036
-13.837095 48.572552 -5.331896
-14.285393 48.578377 -4.918831
-13.815371 48.581024 -5.356858
-14.095584 48.580704 -5.085668
-14.049518 48.566158 -5.100326
-13.844747 48.573067 -5.306523
-13.809684 48.572105 -5.334165
-13.833564 48.570362 -5.309618
-14.308991 48.581158 -4.877301
-14.119418 48.580444 -5.046272
-14.224963 48.563763 -4.934727
-14.228225 48.561493 -4.945887
-13.850030 48.576115 -5.281260
-14.206845 48.580654 -4.984759
-13.857107 48.575314 -5.271509
-13.820587 48.571507 -5.297202
-14.037607 48.561054 -5.090142
-13.846475 48.566788 -5.259113
-13.874458 48.577637 -5.264474
-13.875546 48.575310 -5.236787
-13.903799 48.576229 -5.224625
-14.226246 48.578979 -4.938001
-13.828587 48.568672 -5.266219
-14.034859 48.564732 -5.091100
-14.195348 48.563362 -4.925930
-13.905889 48.569481 -5.193426
-13.905679 48.570686 -5.196969
-13.999187 48.575787 -5.135553
-13.927906 48.577892 -5.183705
-13.899611 48.571777 -5.219429
-13.911468 48.579285 -5.211940
-14.204510 48.561558 -4.927411
-14.414186 48.553326 -4.712407
-14.028302 48.576500 -5.096399
-14.025555 48.565567 -5.089778
-13.952066 48.577728 -5.148512
-14.240631 48.580437 -4.892972
-13.761499 48.575916 -5.336722
-13.800501 48.572510 -5.296128
-13.777003 48.577122 -5.317767
-14.056892 48.585461 -5.056399
-14.401978 48.558723 -4.707703
-14.006536 48.566776 -5.073596
-13.808579 48.574070 -5.273528
-14.264984 48.583092 -4.852090
-13.810685 48.587345 -5.284421
-14.077080 48.580910 -5.018795
-14.181354 48.567654 -4.909442
-14.403623 48.561962 -4.720354
-14.187028 48.566898 -4.919668
-13.821506 48.587067 -5.255228
-13.832968 48.592617 -5.247828
-14.005333 48.570793 -5.065188
-14.166261 48.586811 -4.954942
-13.789660 48.578762 -5.268604
-13.816177 48.576065 -5.233259
-13.838983 48.576538 -5.207360
-13.836415 48.576935 -5.230258
-14.391870 48.562771 -4.705101
-13.800179 48.579655 -5.241587
-14.189358 48.587601 -4.912071
-13.876529 48.589966 -5.197745
-13.997230 48.570366 -5.063838
-13.868702 48.570869 -5.164762
-14.150707 48.565449 -4.901462
-13.878835 48.585464 -5.172863
-13.894590 48.583641 -5.156058
-13.862636 48.571964 -5.187234
-13.867895 48.572590 -5.178294
-14.159559 48.562634 -4.901575
-13.964800 48.583752 -5.106560
-14.376267 48.565445 -4.691490
-13.915631 48.578995 -5.120501
-14.204498 48.588936 -4.867692
-13.992232 48.574421 -5.062807
-13.994869 48.585323 -5.068024
-13.733419 48.583538 -5.306456
-13.769906 48.578590 -5.265400
-14.015633 48.584621 -5.027433
-13.753928 48.593121 -5.292592
-13.968215 48.568523 -5.047864
-14.351998 48.561085 -4.687951
-14.223421 48.585621 -4.828775
-14.038769 48.582661 -4.993072
-13.786026 48.592064 -5.249695
-14.139785 48.570175 -4.886117
-13.771532 48.581711 -5.248958
-13.744297 48.578899 -5.270322
-14.361321 48.567730 -4.697079
-14.149345 48.571598 -4.893865
-13.782979 48.583458 -5.222507
-13.791843 48.584328 -5.212582
-13.969000 48.575195 -5.039246
-14.126344 48.591892 -4.927197
-13.792164 48.593395 -5.210973
-13.816353 48.593586 -5.184969
-14.344541 48.564529 -4.683721
-13.809077 48.587540 -5.201309
-14.142963 48.585827 -4.884287
-13.960188 48.571793 -5.036597
-13.837276 48.586483 -5.164393
-14.109658 48.569954 -4.879476
-13.843234 48.587540 -5.144038
-13.834788 48.575855 -5.140722
-13.871864 48.600658 -5.132280
-14.411578 48.560020 -4.603466
-14.125124 48.571846 -4.877547
-14.326325 48.564701 -4.671080
-13.840352 48.584393 -5.152884
-13.833327 48.579914 -5.158506
-13.930460 48.588615 -5.076909
-13.881304 48.582939 -5.093680
-14.165252 48.592937 -4.842039
-13.953849 48.582355 -5.038361
-13.952360 48.573288 -5.033724
-13.981631 48.589588 -5.001996
-13.749883 48.598125 -5.242032
-13.931799 48.571972 -5.023354
-13.717741 48.587887 -5.256869
-14.308754 48.568176 -4.667554
-14.183453 48.588840 -4.805314
-14.003940 48.586807 -4.968426
-13.746087 48.582504 -5.214365
-14.311503 48.564838 -4.674567
-14.103882 48.578728 -4.863626
-13.745043 48.592213 -5.222046
-14.417903 48.559803 -4.550719
-14.111042 48.576454 -4.868813
-14.345180 48.557339 -4.631689
-13.755969 48.594151 -5.197754
-13.930496 48.575958 -5.013540
-13.766181 48.597836 -5.188376
-13.726339 48.586372 -5.210223
-13.747947 48.579708 -5.178189
-14.085296 48.595139 -4.898864
-13.777666 48.588081 -5.155117
-14.306667 48.573544 -4.662127
-13.733960 48.582851 -5.185644
-14.434531 48.557774 -4.505660
-13.787180 48.605373 -5.176714
-14.073153 48.575573 -4.857068
-14.108225 48.594036 -4.858868
-13.926394 48.577740 -5.011105
-13.801198 48.579674 -5.114504
-13.814350 48.602524 -5.140620
-13.814468 48.596573 -5.119479
-13.826691 48.589226 -5.099542
-14.363136 48.559956 -4.581501
-14.288564 48.573753 -4.650877
-14.085790 48.574905 -4.853302
-13.803859 48.582523 -5.122784
-13.808517 48.594250 -5.133508
-13.859848 48.601830 -5.071865
-13.892064 48.588150 -5.046255
-14.128645 48.598530 -4.818234
-13.937513 48.608391 -5.016717
-13.918897 48.578068 -5.006107
-13.944410 48.590042 -4.974768
-13.669724 48.584824 -5.241127
-13.711736 48.590244 -5.206507
-14.153045 48.599354 -4.783030
-13.907310 48.589512 -5.003237
-14.264815 48.571381 -4.648666
-13.969557 48.589821 -4.943041
-13.694181 48.601894 -5.230337
-13.720664 48.593895 -5.189452
-14.276796 48.575241 -4.652672
-14.374625 48.562859 -4.531094
-14.059648 48.575626 -4.839186
-13.684487 48.585812 -5.212343
-13.708263 48.586227 -5.189906
-14.069222 48.574867 -4.843440
-13.720448 48.590031 -5.167599
-14.299997 48.559605 -4.607995
-13.729210 48.590874 -5.156274
-13.894532 48.578274 -4.988287
-13.725440 48.596786 -5.157172
-14.043461 48.594467 -4.870647
-13.753912 48.603298 -5.132123
-14.259704 48.573212 -4.641432
-14.383410 48.553349 -4.488931
-13.744350 48.592316 -5.140970
-13.777562 48.594925 -5.092918
-14.033104 48.577839 -4.835006
-13.774667 48.593040 -5.108088
-13.896081 48.586086 -4.986688
-14.069027 48.594944 -4.832526
-13.771541 48.584755 -5.088672
-13.806617 48.607826 -5.077605
-14.245070 48.575817 -4.631261
-14.317034 48.560452 -4.560032
-14.047955 48.577709 -4.830342
-13.778769 48.594933 -5.099250
-13.817979 48.590897 -5.043080
-13.769041 48.585747 -5.100943
-14.091449 48.601173 -4.794521
-13.868632 48.605305 -5.021812
-13.899248 48.598633 -4.984120
-13.890908 48.596298 -4.985534
-13.921640 48.606125 -4.952416
-14.108737 48.595310 -4.760028
-13.866043 48.583702 -4.977853
-13.936239 48.593716 -4.919663
-14.225830 48.577648 -4.629306
-13.687593 48.601315 -5.180075
-13.657972 48.592617 -5.195374
-14.328341 48.561459 -4.512493
-14.236155 48.577682 -4.631397
-14.024650 48.580986 -4.818059
-13.689023 48.594131 -5.160304
-14.038516 48.584362 -4.819770
-13.681404 48.594772 -5.163038
-13.696094 48.602303 -5.144695
-13.877285 48.602531 -4.968856
-13.705060 48.604126 -5.133338
-14.260511 48.564800 -4.584476
-13.665352 48.589592 -5.155924
-13.688809 48.589916 -5.129272
-14.346579 48.559204 -4.470129
-14.224311 48.579723 -4.621059
-13.711968 48.589226 -5.101265
-14.008777 48.599567 -4.844554
-13.673572 48.591190 -5.134739
-13.991426 48.575363 -4.813859
-13.737589 48.585693 -5.065346
-13.862454 48.588963 -4.961929
-13.750221 48.605286 -5.083791
-13.721879 48.607212 -5.116457
-14.032678 48.598408 -4.808015
-13.750004 48.602688 -5.068270
-13.766232 48.597549 -5.047266
-14.024585 48.593956 -4.808764
-14.206731 48.581921 -4.611142
-14.278407 48.565552 -4.538560
-13.798231 48.610508 -5.022508
-13.740872 48.589298 -5.070030
-14.047382 48.595005 -4.770821
-13.744802 48.598969 -5.076612
-13.830953 48.600658 -4.992572
-13.868576 48.611240 -4.962448
-13.858960 48.591496 -4.955853
-14.075769 48.600224 -4.738040
-13.881665 48.599998 -4.925521
-13.842752 48.599972 -4.957644
-13.914633 48.611629 -4.897887
-14.186022 48.583084 -4.610728
-13.652764 48.593933 -5.148496
-13.616355 48.597633 -5.184593
-14.289427 48.564629 -4.492490
-14.199628 48.582359 -4.610441
-13.633641 48.602703 -5.168965
-13.992082 48.587852 -4.795993
-13.658853 48.597210 -5.133097
-13.998955 48.582390 -4.796321
-13.654697 48.600246 -5.136912
-13.660715 48.598209 -5.115930
-13.831571 48.589424 -4.942552
-13.668774 48.596085 -5.103309
-13.663636 48.601364 -5.107151
-14.311441 48.565784 -4.452575
-14.221785 48.569862 -4.561594
-14.187154 48.584557 -4.600856
-13.688179 48.600391 -5.079041
-13.971928 48.601032 -4.818697
-13.712738 48.598156 -5.044603
-13.972644 48.598938 -4.794587
-13.835232 48.597740 -4.938647
-13.747230 48.617027 -5.027329
-13.709341 48.590477 -5.039392
-13.685495 48.599136 -5.085026
-14.166759 48.583279 -4.591936
-13.713918 48.600342 -5.054422
-13.993220 48.597378 -4.783129
-13.979490 48.585979 -4.785874
-13.756740 48.597485 -4.994427
-14.243892 48.572884 -4.517406
-13.715206 48.598759 -5.046584
-14.017244 48.603390 -4.747824
-13.708534 48.590927 -5.046589
-14.040200 48.602642 -4.717011
-13.828104 48.603119 -4.934207
-13.830999 48.600399 -4.931923
-13.855998 48.612568 -4.902752
-13.807146 48.615845 -4.968181
-13.797590 48.585751 -4.932015
-13.875326 48.604427 -4.873072
-14.148442 48.589054 -4.591242
-13.628251 48.603035 -5.122120
-14.255666 48.571835 -4.471984
-14.166473 48.589401 -4.589159
-13.953382 48.585777 -4.774584
-13.602496 48.598694 -5.138426
-13.632162 48.602680 -5.106966
-13.966837 48.588116 -4.773527
-13.628006 48.605717 -5.110781
-13.634134 48.603714 -5.091203
-13.645225 48.605125 -5.080388
-13.805808 48.601044 -4.921211
-14.274971 48.569550 -4.434470
-13.631012 48.598877 -5.081655
-13.608204 48.596210 -5.104053
-14.150751 48.589260 -4.581292
-14.186028 48.575329 -4.538452
-13.654619 48.597054 -5.052937
-13.612782 48.593517 -5.084661
-13.676370 48.591347 -5.019504
-13.927670 48.590984 -4.773091
-13.939598 48.606697 -4.793093
-13.797708 48.592205 -4.913642
-13.685880 48.602654 -5.018532
-13.707964 48.604534 -4.998340
-13.688496 48.607685 -5.030281
-13.955945 48.601246 -4.764316
-14.129930 48.589119 -4.573091
-13.963523 48.604622 -4.759399
-13.735267 48.612316 -4.973364
-13.662852 48.613049 -5.060532
-14.204692 48.575035 -4.496020
-13.987657 48.610664 -4.725499
-13.682293 48.595264 -5.019728
-14.005820 48.603790 -4.695899
-13.689436 48.610371 -5.025239
-13.818080 48.605076 -4.877818
-13.852300 48.618576 -4.852171
-13.799955 48.611038 -4.910304
-13.797241 48.599190 -4.906530
-13.780674 48.611015 -4.913928
-13.768064 48.607430 -4.939819
-14.104834 48.586109 -4.573812
-14.220039 48.576416 -4.453080
-14.130109 48.591003 -4.568933
-13.600429 48.606674 -5.095403
-13.934415 48.608368 -4.755334
-13.579243 48.609657 -5.114018
-13.602903 48.602558 -5.081143
-13.945511 48.603912 -4.751067
-13.607471 48.608269 -5.067905
-13.598441 48.604584 -5.083589
-14.239456 48.574165 -4.416968
-13.768836 48.594398 -4.896883
-13.615738 48.607124 -5.055254
-13.606002 48.607254 -5.060269
-14.116577 48.594494 -4.560821
-13.628675 48.604580 -5.030942
-14.149451 48.579967 -4.516089
-13.649798 48.599033 -4.998270
-13.906322 48.608963 -4.754112
-13.776662 48.609001 -4.892518
-13.906784 48.609447 -4.768983
-13.655373 48.602852 -4.994230
-14.095662 48.593403 -4.554051
-13.683908 48.614685 -4.974741
-13.917501 48.597046 -4.742208
-13.940623 48.619724 -4.737077
-13.700705 48.607182 -4.948090
-13.657576 48.606838 -5.003208
-13.630816 48.607273 -5.032222
-13.952143 48.609974 -4.703798
-14.167825 48.577747 -4.475127
-13.977298 48.611946 -4.675584
-13.653969 48.599098 -4.995180
-13.652204 48.597424 -4.995376
-13.811185 48.605648 -4.828303
-13.793615 48.616375 -4.854960
-13.771225 48.606697 -4.883158
-13.741096 48.601871 -4.890559
-13.766647 48.608688 -4.884181
-14.189995 48.583897 -4.432950
-13.743483 48.618694 -4.915549
-14.070540 48.593491 -4.555423
-14.099936 48.598446 -4.547382
-13.575882 48.611729 -5.069798
-13.892423 48.600822 -4.733577
-14.205862 48.577381 -4.400027
-13.553986 48.611740 -5.087110
-13.906875 48.598736 -4.728990
-13.575005 48.605244 -5.055858
-13.573061 48.608818 -5.058773
-13.577597 48.608303 -5.042832
-13.746759 48.609390 -4.876575
-13.588587 48.609684 -5.030618
-13.576434 48.608299 -5.036562
-14.078357 48.593472 -4.542196
-13.600893 48.607300 -5.007064
-14.116480 48.584854 -4.492711
-13.626663 48.612213 -4.978762
-13.863297 48.599609 -4.733173
-13.743572 48.606709 -4.869194
-13.629249 48.609398 -4.972268
-14.055236 48.591843 -4.536324
-13.655300 48.616589 -4.951661
-13.673751 48.612907 -4.926924
-13.885768 48.627167 -4.745036
-13.893142 48.611485 -4.721421
-13.630438 48.609402 -4.978578
-13.901892 48.614513 -4.713596
-13.931779 48.626621 -4.681941
-13.940362 48.607494 -4.654772
-13.604912 48.612614 -5.006729
-14.131511 48.579353 -4.454906
-13.628282 48.604504 -4.972496
-13.791842 48.623169 -4.808435
-13.630981 48.610130 -4.973603
-13.760134 48.612129 -4.831708
-13.713721 48.608742 -4.870121
-13.738980 48.605228 -4.859044
-13.738867 48.614517 -4.860978
-14.153588 48.584553 -4.414165
-14.059543 48.593784 -4.528998
-14.030120 48.591927 -4.537691
-13.711763 48.617031 -4.889271
-13.870584 48.616802 -4.713253
-14.178355 48.586407 -4.380361
-13.547724 48.610302 -5.042485
-13.887251 48.615253 -4.707772
-13.549440 48.608494 -5.031070
-13.528510 48.615936 -5.060880
-13.716906 48.611614 -4.855014
-13.551903 48.613701 -5.020133
-13.546756 48.612194 -5.033337
-13.562191 48.612114 -5.006623
-14.043709 48.595791 -4.523211
-13.548965 48.612026 -5.014040
-13.575513 48.613716 -4.985737
-13.594543 48.607666 -4.955372
-14.082050 48.589077 -4.470868
-13.842604 48.617420 -4.713421
-13.713421 48.607922 -4.846265
-14.023514 48.597664 -4.517736
-13.600252 48.609337 -4.949245
-13.647246 48.617496 -4.905031
-13.623720 48.611855 -4.926119
-13.924814 48.629356 -4.634535
-13.855269 48.606171 -4.699980
-13.892772 48.619480 -4.659928
-13.875494 48.623165 -4.690959
-13.604659 48.614777 -4.954485
-13.847685 48.621788 -4.720788
-14.107656 48.592667 -4.433438
-13.579562 48.616844 -4.981911
-13.753384 48.611813 -4.786427
-13.601668 48.609055 -4.949193
-13.738313 48.625000 -4.810705
-13.602520 48.609879 -4.948422
-13.684180 48.611977 -4.849921
-13.714873 48.614433 -4.836882
-14.119915 48.587730 -4.395807
-13.709154 48.614594 -4.837327
-14.027957 48.597458 -4.508323
-13.999743 48.600559 -4.519643
-14.144587 48.588634 -4.363440
-13.827320 48.602421 -4.693122
-13.685265 48.622540 -4.864544
-13.525995 48.621006 -5.019355
-13.847106 48.606274 -4.685173
-13.523993 48.611774 -5.007679
-13.505235 48.622849 -5.037237
-13.685725 48.611027 -4.832904
-13.527163 48.619953 -4.998038
-13.521509 48.616451 -5.009909
-13.537655 48.619347 -4.984496
-14.014408 48.603127 -4.503688
-13.520506 48.610851 -4.991684
-13.546757 48.611534 -4.962018
-13.565865 48.608612 -4.933710
-13.796933 48.601521 -4.694217
-13.987443 48.596218 -4.499632
-13.686942 48.612514 -4.824378
-14.044215 48.586876 -4.450118
-13.574693 48.614773 -4.927949
-13.601083 48.620796 -4.905228
-13.619212 48.618290 -4.882622
-13.886467 48.621136 -4.614601
-13.829323 48.612762 -4.679450
-13.871827 48.633186 -4.638156
-13.842972 48.622871 -4.668981
-13.577654 48.617367 -4.931243
-14.076098 48.596344 -4.412771
-13.824949 48.634731 -4.696348
-13.731780 48.625664 -4.765386
-13.574265 48.609688 -4.926021
-13.555368 48.622906 -4.957663
-13.710900 48.628738 -4.788207
-13.577497 48.615120 -4.924969
-13.654887 48.613087 -4.829028
-14.087629 48.590618 -4.377332
-13.687458 48.618172 -4.814380
-13.996081 48.599201 -4.489108
-13.683517 48.620003 -4.814647
-14.115958 48.594906 -4.346013
-13.963243 48.600250 -4.502254
-13.805102 48.616436 -4.672851
-13.656402 48.623428 -4.840090
-13.828241 48.622662 -4.664583
-13.498913 48.620461 -4.994044
-13.657579 48.613972 -4.812588
-13.501443 48.621655 -4.985330
-13.499352 48.618618 -4.974921
-13.480127 48.624954 -5.011710
-13.512328 48.622658 -4.962501
-13.497852 48.621403 -4.986331
-13.976167 48.598045 -4.485824
-13.496588 48.620102 -4.972281
-13.525963 48.625271 -4.942986
-13.541558 48.615910 -4.914385
-13.774921 48.616512 -4.673903
-13.865839 48.635849 -4.594192
-13.593272 48.621765 -4.861396
-13.959302 48.605385 -4.480674
-13.548945 48.619225 -4.906681
-13.658699 48.615425 -4.802659
-13.576177 48.626072 -4.883174
-13.796079 48.611675 -4.659654
-13.831313 48.621326 -4.618456
-14.022594 48.601639 -4.424898
-13.552979 48.620522 -4.908500
-13.818178 48.632210 -4.646184
-13.701907 48.623840 -4.744602
-14.048213 48.604317 -4.390309
-13.550698 48.617771 -4.904505
-13.789018 48.628937 -4.672624
-13.529210 48.626312 -4.933618
-13.682464 48.630672 -4.766524
-14.059548 48.596695 -4.357740
-13.626748 48.616028 -4.808705
-13.551887 48.617424 -4.901613
-13.970591 48.607761 -4.468533
-14.084428 48.597664 -4.328180
-13.656136 48.613499 -4.791643
-13.659033 48.627243 -4.792537
-13.930310 48.603283 -4.484501
-13.769889 48.612694 -4.653261
-13.788167 48.609661 -4.644156
-13.631611 48.629654 -4.816607
-13.475067 48.624428 -4.970495
-13.631625 48.620544 -4.792017
-13.478057 48.630360 -4.954544
-13.476962 48.625782 -4.962535
-13.455575 48.625950 -4.986859
-13.948267 48.605091 -4.466176
-13.487653 48.625805 -4.939744
-13.474913 48.629322 -4.964044
-13.473116 48.628208 -4.952150
-13.499817 48.627758 -4.921775
-13.515421 48.618397 -4.893178
-13.826619 48.622757 -4.575817
-13.739210 48.609859 -4.655813
-13.926613 48.606297 -4.462234
-13.564229 48.620750 -4.839796
-13.773911 48.622589 -4.638719
-13.524349 48.625504 -4.885981
-13.629869 48.615395 -4.781036
-13.551483 48.632320 -4.861076
-13.816525 48.643967 -4.595998
-13.987105 48.600002 -4.404634
-13.675165 48.626499 -4.724176
-13.782705 48.624359 -4.624575
-13.529120 48.627590 -4.885609
-14.014605 48.604385 -4.371271
-13.526742 48.623894 -4.883051
-13.654077 48.629509 -4.744185
-14.028461 48.598312 -4.339175
-14.052605 48.598492 -4.311807
-13.505582 48.631264 -4.910037
-13.761116 48.633785 -4.649447
-13.937502 48.606716 -4.450160
-13.599764 48.620796 -4.788953
-13.529810 48.626163 -4.878547
-13.634986 48.626198 -4.769859
-13.628968 48.625343 -4.768933
-13.913544 48.626373 -4.462924
-13.744274 48.620285 -4.634074
-13.766644 48.620415 -4.622462
-13.601140 48.625797 -4.793064
-13.453714 48.633038 -4.948056
-13.602702 48.619564 -4.771821
-13.452152 48.630722 -4.932633
-13.450354 48.623177 -4.939328
-13.932472 48.625935 -4.444556
-13.427959 48.619358 -4.960983
-13.463693 48.631920 -4.918271
-13.449343 48.628513 -4.940009
-13.445436 48.626896 -4.930414
-13.472381 48.624332 -4.899360
-13.489596 48.621891 -4.873322
-13.810798 48.643597 -4.554166
-13.898619 48.612389 -4.443991
-13.714198 48.620392 -4.636503
-13.608017 48.624210 -4.760774
-13.542567 48.630539 -4.819487
-13.743003 48.622066 -4.619398
-13.778886 48.631565 -4.577456
-13.527137 48.636482 -4.839678
-13.499262 48.629791 -4.863931
-13.650608 48.632790 -4.703482
-13.761582 48.637074 -4.602792
-13.507148 48.636364 -4.863922
-13.961643 48.609482 -4.381197
-13.982574 48.605148 -4.352060
-13.502593 48.629032 -4.861610
-14.023798 48.603775 -4.294367
-13.625598 48.627392 -4.723259
-14.000191 48.603401 -4.319578
-13.908606 48.608860 -4.430649
-13.480225 48.631439 -4.885962
-13.572180 48.622631 -4.769276
-13.728665 48.630383 -4.626770
-13.609315 48.627560 -4.747924
-13.506498 48.632130 -4.856312
-13.605239 48.632458 -4.747434
-13.869395 48.612404 -4.448480
-13.718457 48.626904 -4.614892
-13.734199 48.616100 -4.602622
-13.580623 48.638340 -4.770487
-13.427249 48.628284 -4.922742
-13.575962 48.622219 -4.751355
-13.424316 48.625336 -4.910267
-13.891579 48.614307 -4.428392
-13.428173 48.630966 -4.917656
-13.420780 48.629128 -4.910463
-13.438236 48.631149 -4.895623
-13.423482 48.625782 -4.917430
-13.407250 48.627808 -4.937765
-13.446993 48.626690 -4.878765
-13.771497 48.629551 -4.537191
-13.462440 48.622578 -4.852905
-13.879272 48.629890 -4.422692
-13.518933 48.637672 -4.799374
-13.686810 48.626308 -4.617456
-13.716692 48.626690 -4.598882
-13.500659 48.633915 -4.817865
-13.755595 48.640648 -4.555909
-13.583858 48.632458 -4.739988
-13.467492 48.619099 -4.841995
-13.624818 48.636303 -4.683633
-14.001395 48.612782 -4.274911
-13.478827 48.628994 -4.840230
-13.731221 48.636360 -4.581299
-13.970583 48.604763 -4.302263
-13.928917 48.607269 -4.360673
-13.476315 48.627445 -4.839757
-13.887420 48.620644 -4.410315
-13.601046 48.633682 -4.702546
-13.954207 48.610207 -4.331047
-13.545745 48.626293 -4.750169
-13.454479 48.629658 -4.861947
-13.705806 48.638325 -4.604494
-13.586534 48.635525 -4.727032
-13.482396 48.634174 -4.834212
-13.579782 48.634796 -4.725455
-13.686761 48.622459 -4.595690
-13.845662 48.625729 -4.428317
-13.715398 48.629383 -4.581328
-13.873610 48.631519 -4.406983
-13.554662 48.638683 -4.747172
-13.552346 48.629356 -4.731246
-13.401300 48.625515 -4.898753
-13.398235 48.624722 -4.888365
-13.402526 48.629211 -4.895036
-13.411357 48.626614 -4.873866
-13.383377 48.627728 -4.914964
-13.392723 48.625854 -4.888771
-13.400413 48.629620 -4.894490
-13.421418 48.628063 -4.858198
-13.752906 48.643818 -4.515864
-13.437370 48.625946 -4.833673
-13.840473 48.620937 -4.407707
-13.493171 48.638077 -4.778852
-13.555930 48.629230 -4.719725
-13.688952 48.627552 -4.579254
-13.724549 48.636047 -4.535956
-13.658833 48.629284 -4.598506
-13.448113 48.632549 -4.822810
-13.476933 48.641014 -4.796337
-13.597502 48.636017 -4.663270
-13.968350 48.610825 -4.259347
-13.946317 48.612061 -4.281573
-13.704226 48.638012 -4.559480
-13.456674 48.636784 -4.818559
-13.857303 48.620003 -4.391645
-13.576542 48.636871 -4.681178
-13.451587 48.629642 -4.818404
-13.929637 48.616493 -4.308987
-13.899423 48.610493 -4.339071
-13.521496 48.633583 -4.730806
-13.559649 48.634098 -4.705943
-13.431423 48.633495 -4.839010
-13.454595 48.628788 -4.811845
-13.675694 48.635487 -4.582305
-13.554338 48.637127 -4.703469
-13.663141 48.632702 -4.576244
-13.807710 48.617596 -4.412538
-13.683316 48.622974 -4.562192
-13.837870 48.623924 -4.390310
-13.528839 48.636520 -4.712531
-13.380317 48.632038 -4.876998
-13.530252 48.642815 -4.724355
-13.376876 48.635506 -4.869376
-13.377630 48.627327 -4.873057
-13.389501 48.635410 -4.853548
-13.369028 48.628929 -4.869419
-13.374020 48.620846 -4.871359
-13.358817 48.624672 -4.890861
-13.396991 48.631268 -4.838201
-13.718961 48.634789 -4.498347
-13.412512 48.630287 -4.814395
-13.468757 48.641285 -4.758865
-13.818766 48.633816 -4.386672
-13.662362 48.630241 -4.560195
-13.702215 48.645977 -4.515005
-13.533166 48.637188 -4.698817
-13.573407 48.640247 -4.644668
-13.630666 48.631279 -4.579584
-13.447308 48.629910 -4.774937
-13.422158 48.631962 -4.802310
-13.941381 48.614677 -4.241055
-13.842196 48.637589 -4.368574
-13.915398 48.610603 -4.263702
-13.680351 48.644150 -4.538019
-13.551947 48.639111 -4.661241
-13.432594 48.638821 -4.796444
-13.897977 48.615158 -4.290465
-13.426671 48.630856 -4.797079
-13.875899 48.618572 -4.316175
-13.492947 48.630508 -4.711283
-13.534952 48.636303 -4.684600
-13.406743 48.632595 -4.816998
-13.431855 48.633636 -4.790273
-13.657108 48.650658 -4.558116
-13.531816 48.642967 -4.681877
-13.634181 48.630775 -4.557463
-13.662558 48.633595 -4.541094
-13.788579 48.636066 -4.391177
-13.812756 48.630390 -4.370379
-13.498759 48.629654 -4.692502
-13.352491 48.635609 -4.848722
-13.357606 48.633781 -4.854765
-13.355420 48.631062 -4.852156
-13.505456 48.644985 -4.701601
-13.365957 48.636337 -4.832106
-13.345743 48.633961 -4.849987
-13.355043 48.636242 -4.852079
-13.699347 48.647243 -4.477829
-13.338979 48.633018 -4.869673
-13.373950 48.634186 -4.818091
-13.387503 48.630550 -4.794500
-13.441182 48.635963 -4.739298
-13.672668 48.641113 -4.496334
-13.782943 48.625267 -4.371425
-13.912344 48.614922 -4.224403
-13.634849 48.632076 -4.540516
-13.548824 48.642487 -4.624727
-13.605420 48.636776 -4.561053
-13.509573 48.644318 -4.678690
-13.427451 48.641361 -4.754408
-13.397351 48.633205 -4.782380
-13.806813 48.627903 -4.352610
-13.890314 48.617073 -4.243784
-13.653277 48.644844 -4.517622
-13.407329 48.634979 -4.774538
-13.527465 48.642292 -4.639857
-13.402105 48.629986 -4.776467
-13.864694 48.609081 -4.272865
-13.467481 48.635014 -4.692763
-13.843354 48.613285 -4.296381
-13.510268 48.638504 -4.663249
-13.384448 48.636299 -4.794696
-13.406794 48.630775 -4.768330
-13.627361 48.645729 -4.536631
-13.632813 48.627750 -4.522452
-13.509105 48.647823 -4.660312
-13.611017 48.639874 -4.537282
-13.750351 48.625996 -4.376853
-13.782364 48.627811 -4.353161
-13.476110 48.637634 -4.672982
-14.002204 48.635757 -4.120990
-13.329654 48.639500 -4.828565
-13.337338 48.643269 -4.834289
-13.335512 48.645603 -4.832253
-13.342923 48.639248 -4.811987
-13.668138 48.640739 -4.460733
-13.481807 48.648983 -4.679417
-13.323761 48.644897 -4.831732
-13.351815 48.641048 -4.799233
-13.317814 48.638554 -4.847934
-13.333143 48.641903 -4.829693
-13.886662 48.617535 -4.207426
-13.363201 48.633781 -4.775892
-13.763025 48.639816 -4.350194
-13.417231 48.638027 -4.718579
-13.653163 48.654514 -4.474364
-13.610692 48.636276 -4.520511
-13.481820 48.638016 -4.659162
-13.523518 48.644844 -4.604129
-13.401860 48.638687 -4.734619
-13.374089 48.638237 -4.762947
-13.965682 48.620026 -4.129185
-13.577475 48.639740 -4.542077
-13.790147 48.644791 -4.329662
-13.862564 48.616997 -4.225615
-13.384947 48.637737 -4.753671
-13.502693 48.643543 -4.619940
-13.629865 48.649837 -4.495426
-13.377751 48.630089 -4.755812
-13.842133 48.618011 -4.250569
-13.489637 48.646042 -4.642869
-13.438696 48.626904 -4.674055
-13.816008 48.616081 -4.275294
-13.385013 48.636471 -4.747355
-13.362364 48.640984 -4.772349
-13.614883 48.641842 -4.500335
-13.585188 48.642426 -4.518848
-13.483194 48.647240 -4.639812
-13.602573 48.651001 -4.514534
-13.764861 48.643871 -4.330997
-13.729702 48.640667 -4.354965
-13.971421 48.634331 -4.104515
-13.450100 48.636101 -4.653916
-13.648540 48.653187 -4.440197
-13.316382 48.649776 -4.812510
-13.307821 48.648285 -4.808218
-13.321631 48.646931 -4.792329
-13.312185 48.647499 -4.810756
-13.454403 48.641510 -4.657761
-13.300492 48.649925 -4.812282
-13.328155 48.644119 -4.779861
-13.311152 48.646614 -4.808738
-13.297654 48.648979 -4.826006
-13.729735 48.632805 -4.335401
-13.343808 48.650311 -4.757315
-13.393188 48.639141 -4.699290
-13.626649 48.654099 -4.454639
-13.584471 48.636871 -4.502148
-13.500290 48.649887 -4.584713
-13.457252 48.640240 -4.639198
-13.952411 48.640213 -4.103103
-13.379690 48.642422 -4.713712
-13.756899 48.634686 -4.314227
-13.352567 48.648037 -4.743974
-13.549279 48.637676 -4.523920
-13.837634 48.620392 -4.206435
-13.480501 48.650387 -4.599694
-13.602615 48.649548 -4.475048
-13.364168 48.648327 -4.732507
-13.359242 48.644344 -4.735803
-13.823866 48.631077 -4.225718
-13.460970 48.638882 -4.622719
-13.418190 48.641609 -4.654912
-13.361310 48.636414 -4.725939
-13.589505 48.643257 -4.481181
-13.343156 48.652267 -4.751040
-13.560803 48.648739 -4.499508
-13.790989 48.620358 -4.251867
-13.459708 48.648167 -4.618375
-13.731179 48.634903 -4.316274
-13.939748 48.628029 -4.089612
-13.579074 48.655952 -4.490921
-13.694846 48.632957 -4.340306
-13.425537 48.638321 -4.633945
-13.619965 48.649170 -4.422120
-13.285497 48.654160 -4.789374
-13.293704 48.651516 -4.790252
-13.296885 48.645065 -4.771725
-13.291295 48.657135 -4.791015
-13.276038 48.649067 -4.793040
-13.305299 48.651100 -4.760334
-13.430182 48.642563 -4.635669
-13.288774 48.649361 -4.787847
-13.276307 48.653526 -4.804286
-13.371085 48.646004 -4.680426
-13.708301 48.643551 -4.313646
-13.599949 48.652702 -4.434943
-13.562304 48.643719 -4.481914
-13.317593 48.647785 -4.738256
-13.476672 48.652966 -4.565360
-13.920606 48.636978 -4.087440
-13.431698 48.637566 -4.619407
-13.737477 48.644993 -4.291618
-13.811678 48.621986 -4.188072
-13.357686 48.650230 -4.693405
-13.329364 48.649967 -4.723879
-13.525298 48.645939 -4.504499
-13.456190 48.650494 -4.579043
-13.580158 48.655384 -4.453447
-13.342202 48.653038 -4.711551
-13.335843 48.645294 -4.715745
-13.794698 48.627232 -4.208424
-13.437989 48.641800 -4.602606
-13.391160 48.638264 -4.636656
-13.342653 48.646591 -4.705313
-13.569219 48.652725 -4.459330
-13.883893 48.628315 -4.092636
-13.319301 48.648129 -4.729003
-13.535830 48.652107 -4.480268
-13.437029 48.653011 -4.596786
-13.769523 48.627983 -4.228076
-13.707478 48.641068 -4.296202
-13.671938 48.643036 -4.320084
-13.552276 48.654518 -4.469810
-13.403648 48.646168 -4.615047
-13.597416 48.654060 -4.401959
-13.262287 48.656082 -4.769264
-13.277936 48.660450 -4.752409
-13.271773 48.653122 -4.768637
-13.268327 48.656940 -4.770224
-13.253878 48.659016 -4.774793
-13.282393 48.654037 -4.741595
-13.268133 48.656876 -4.767416
-13.406907 48.644463 -4.614182
-13.255948 48.655827 -4.782530
-13.579870 48.663155 -4.413054
-13.678682 48.640831 -4.297046
-13.450835 48.648365 -4.547043
-13.348694 48.651852 -4.660185
-13.540545 48.652523 -4.461597
-13.890584 48.635414 -4.071591
-13.292721 48.648064 -4.719730
-13.705191 48.635735 -4.276781
-13.407488 48.637699 -4.600149
-13.333902 48.649223 -4.673416
-13.791357 48.631443 -4.164857
-13.501462 48.651138 -4.485827
-13.306723 48.657928 -4.704309
-13.429420 48.645035 -4.560109
-13.554108 48.653824 -4.432985
-13.319451 48.653828 -4.690732
-13.313250 48.650158 -4.695533
-13.774677 48.638615 -4.183732
-13.416056 48.646515 -4.581660
-13.367702 48.645409 -4.617887
-13.545431 48.654831 -4.440019
-13.868026 48.645992 -4.067492
-13.321098 48.653255 -4.684276
-13.300307 48.660385 -4.707640
-13.509434 48.651711 -4.461916
-13.679039 48.637081 -4.279532
-13.412529 48.652134 -4.576158
-13.742148 48.626724 -4.207754
-13.530068 48.658234 -4.447515
-13.639519 48.636837 -4.304477
-13.378804 48.646454 -4.596533
-13.575670 48.662865 -4.381644
-13.239582 48.659992 -4.750475
-13.246502 48.658577 -4.750004
-13.250942 48.659657 -4.748235
-13.255577 48.663193 -4.731502
-13.229642 48.659130 -4.755497
-13.259398 48.656937 -4.721442
-13.246905 48.661449 -4.747086
-13.385415 48.648041 -4.592511
-13.234819 48.661346 -4.760756
-13.553726 48.660645 -4.394026
-13.325613 48.653812 -4.641485
-13.691796 48.654949 -4.252077
-13.655190 48.647968 -4.276921
-13.427635 48.653397 -4.527601
-13.516227 48.655727 -4.441593
-13.271814 48.660793 -4.700617
-13.753285 48.613338 -4.154910
-13.384723 48.641590 -4.579984
-13.312055 48.653961 -4.653850
-13.283633 48.659882 -4.685600
-13.473498 48.650040 -4.467606
-13.407594 48.649780 -4.540560
-13.528803 48.652134 -4.413164
-13.291994 48.657833 -4.675853
-13.297704 48.659512 -4.669722
-13.743900 48.630024 -4.167356
-13.393432 48.647343 -4.562254
-13.520221 48.653172 -4.421598
-13.342863 48.645691 -4.599363
-13.840091 48.648026 -4.049977
-13.299889 48.657837 -4.663953
-13.487882 48.661488 -4.441546
-13.659197 48.648518 -4.257614
-13.278798 48.663948 -4.685945
-13.390604 48.656845 -4.555200
-13.718537 48.630707 -4.184194
-13.544799 48.650211 -4.366026
-13.353374 48.643799 -4.578121
-13.620572 48.653133 -4.280967
-13.506103 48.660271 -4.425386
-13.212927 48.645222 -4.729566
-13.227049 48.651459 -4.726970
-13.219846 48.643806 -4.729095
-13.232390 48.665108 -4.711376
-13.202839 48.646507 -4.736670
-13.232603 48.644318 -4.702621
-13.223959 48.661247 -4.726279
-13.210132 48.649235 -4.739634
-13.363595 48.653698 -4.570107
-13.662977 48.649002 -4.235469
-13.531496 48.667454 -4.372367
-13.492651 48.658806 -4.422229
-13.404047 48.656464 -4.508223
-13.302203 48.657848 -4.622051
-13.626431 48.646065 -4.259513
-13.243195 48.642456 -4.682769
-13.361466 48.642570 -4.561323
-13.721985 48.604931 -4.140687
-13.290715 48.661602 -4.632761
-13.261647 48.667679 -4.665258
-13.449982 48.657158 -4.447438
-13.385483 48.653511 -4.519635
-13.275906 48.661148 -4.649500
-13.507015 48.657803 -4.390784
-13.270011 48.665627 -4.655511
-13.723501 48.639442 -4.142716
-13.371318 48.651073 -4.541327
-13.498129 48.656914 -4.400692
-13.321051 48.657570 -4.579638
-13.277359 48.659595 -4.643080
-13.631618 48.645348 -4.240138
-13.462143 48.660923 -4.422423
-13.368293 48.659595 -4.534307
-13.255970 48.664696 -4.663700
-13.527108 48.665268 -4.343828
-13.695668 48.634560 -4.161273
-13.587278 48.642059 -4.266926
-13.331811 48.653561 -4.557717
-13.483580 48.666061 -4.402348
-13.191571 48.651939 -4.711302
-13.208166 48.658077 -4.692223
-13.198442 48.647396 -4.708786
-13.205152 48.653057 -4.705330
-13.208736 48.642342 -4.684039
-13.180155 48.650410 -4.717862
-13.644423 48.660118 -4.212035
-13.202014 48.665943 -4.705279
-13.507981 48.667435 -4.352357
-13.189958 48.655602 -4.718459
-13.341923 48.656284 -4.548455
-13.470319 48.664661 -4.401994
-13.279978 48.660625 -4.602543
-13.606794 48.658474 -4.237540
-13.379478 48.654633 -4.489018
-13.220674 48.650436 -4.664573
-13.703903 48.614918 -4.116553
-13.340047 48.649269 -4.541681
-13.267893 48.661434 -4.613361
-13.235861 48.659954 -4.646246
-13.425575 48.659405 -4.428846
-13.362346 48.655437 -4.499527
-13.775946 48.662556 -4.032250
-13.253185 48.661926 -4.628655
-13.485632 48.665428 -4.368320
-13.348516 48.650913 -4.521941
-13.681561 48.612000 -4.135372
-13.245659 48.661667 -4.635601
-13.475208 48.659828 -4.380566
-13.611789 48.656776 -4.218200
-13.296031 48.656864 -4.561132
-13.255235 48.663315 -4.622124
-13.436509 48.660393 -4.404694
-13.236007 48.672050 -4.642491
-13.344954 48.660542 -4.514230
-13.498032 48.654278 -4.328019
-13.308368 48.653553 -4.539075
-13.671042 48.636738 -4.138518
-13.567611 48.658474 -4.242743
-13.458843 48.664173 -4.380347
-13.168207 48.652866 -4.691192
-13.176604 48.652119 -4.689183
-13.183222 48.651173 -4.672410
-13.183952 48.657623 -4.684975
-13.158024 48.660343 -4.699575
-13.187057 48.651142 -4.665043
-13.615963 48.652077 -4.196133
-13.177846 48.655811 -4.685474
-13.482604 48.664787 -4.333954
-13.357177 48.656464 -4.470960
-13.576857 48.649765 -4.223175
-13.318830 48.655109 -4.527694
-13.444934 48.662010 -4.383584
-13.257516 48.665512 -4.583705
-13.690896 48.632961 -4.089717
-13.168510 48.656055 -4.696091
-13.196820 48.648460 -4.645983
-13.317703 48.655106 -4.521414
-13.245081 48.661263 -4.593952
-13.215906 48.673527 -4.627720
-13.341916 48.659893 -4.479850
-13.399109 48.658047 -4.411897
-13.743693 48.656387 -4.018043
-13.454995 48.665272 -4.360870
-13.327444 48.655521 -4.503014
-13.461535 48.662464 -4.348408
-13.225404 48.667088 -4.615865
-13.231605 48.664536 -4.608380
-13.672404 48.636238 -4.103863
-13.586137 48.652210 -4.201290
-13.272290 48.654930 -4.543957
-13.235180 48.669716 -4.602353
-13.411327 48.658718 -4.386240
-13.478329 48.662632 -4.306812
-13.322604 48.659241 -4.494117
-13.214469 48.671558 -4.621569
-13.284098 48.652721 -4.521213
-13.650403 48.641121 -4.114685
-13.537040 48.649921 -4.229119
-13.147797 48.660431 -4.673524
-13.436573 48.666927 -4.359454
-13.163060 48.656620 -4.654068
-13.600225 48.666668 -4.171678
-13.164728 48.664841 -4.664401
-13.156496 48.661610 -4.670038
-13.135249 48.663288 -4.682189
-13.163746 48.648056 -4.647132
-13.156844 48.654213 -4.665230
-13.460935 48.670483 -4.312954
-13.333362 48.654499 -4.452390
-13.421525 48.662010 -4.364955
-13.298505 48.660507 -4.506565
-13.556499 48.662292 -4.200531
-13.662033 48.626060 -4.074539
-13.148297 48.658375 -4.675697
-13.232100 48.655701 -4.565411
-13.296240 48.657753 -4.502551
-13.174059 48.651409 -4.628604
-13.221885 48.659130 -4.574608
-13.191073 48.666653 -4.609306
-13.318401 48.659855 -4.459798
-13.375418 48.664173 -4.391733
-13.304266 48.653397 -4.483684
-13.428394 48.659836 -4.343314
-13.715503 48.657391 -3.999119
-13.202203 48.664955 -4.596516
-13.208848 48.661266 -4.588316
-13.438936 48.667301 -4.326787
-13.635904 48.614765 -4.094536
-13.565390 48.662781 -4.178719
-13.212029 48.664486 -4.582363
-13.247685 48.656178 -4.525358
-13.389212 48.665543 -4.365939
-13.453565 48.662918 -4.288286
-13.303771 48.672440 -4.471285
-13.191363 48.663231 -4.600933
-13.262103 48.656471 -4.501652
-13.571484 48.656693 -4.157236
-13.515756 48.661591 -4.205850
-13.125577 48.663185 -4.653974
-13.617861 48.626789 -4.099244
-13.416682 48.675205 -4.335422
-13.141634 48.663296 -4.634372
-13.142162 48.662540 -4.644286
-13.134325 48.661270 -4.649848
-13.144049 48.666645 -4.627746
-13.110805 48.651226 -4.663843
-13.437646 48.671432 -4.292881
-13.315523 48.672600 -4.429373
-13.135023 48.658928 -4.645608
-13.397591 48.663116 -4.345627
-13.127501 48.657753 -4.655406
-13.634858 48.620800 -4.057775
-13.209656 48.660580 -4.546554
-13.526493 48.653545 -4.184744
-13.277557 48.666973 -4.483333
-13.273516 48.661629 -4.482338
-13.150526 48.651352 -4.608517
-13.198502 48.656017 -4.555292
-13.166451 48.660751 -4.590847
-13.297113 48.667488 -4.438687
-13.409138 48.667042 -4.321371
-13.350305 48.666534 -4.372459
-13.282329 48.654049 -4.463483
-13.417126 48.668915 -4.305167
-13.178618 48.660858 -4.577232
-13.187736 48.669868 -4.567148
-13.605040 48.601158 -4.080358
-13.539222 48.659313 -4.161103
-13.189285 48.661213 -4.562291
-13.223428 48.655334 -4.507475
-13.364639 48.666798 -4.347354
-13.433979 48.672211 -4.265619
-13.277456 48.661777 -4.452377
-13.169510 48.664822 -4.579267
-13.238743 48.660496 -4.482181
-13.554827 48.670422 -4.132148
-13.487380 48.657578 -4.189114
-13.596210 48.629364 -4.076219
-13.101347 48.659237 -4.635426
-13.391480 48.670399 -4.314906
-13.120588 48.657997 -4.624137
-13.111863 48.659000 -4.631128
-13.118692 48.666172 -4.614162
-13.120020 48.663677 -4.609163
-13.415007 48.672218 -4.272046
-13.088894 48.669266 -4.645328
-13.290296 48.666866 -4.411684
-13.376126 48.669781 -4.324564
-13.619312 48.633240 -4.031234
-13.114636 48.667400 -4.625075
-13.506787 48.665909 -4.161326
-13.106376 48.659210 -4.634380
-13.185249 48.655659 -4.528058
-13.256119 48.670528 -4.461607
-13.251138 48.663414 -4.462842
-13.127834 48.658340 -4.590317
-13.177295 48.663673 -4.535560
-13.145040 48.667427 -4.571144
-13.272922 48.663559 -4.420168
-13.387481 48.672726 -4.300344
-13.260795 48.656658 -4.443199
-13.327661 48.674454 -4.351447
-13.156173 48.658588 -4.558517
-13.164748 48.661568 -4.547905
-13.517593 48.665009 -4.140099
-13.392526 48.667046 -4.284539
-13.589605 48.614544 -4.052373
-13.167491 48.658783 -4.542829
-13.409380 48.669418 -4.247838
-13.200275 48.660332 -4.487957
-13.341615 48.672752 -4.326419
-13.258051 48.672028 -4.429636
-13.148602 48.667255 -4.558208
-13.527785 48.662079 -4.116110
-13.217554 48.668152 -4.462451
-13.079542 48.663937 -4.615781
-13.097033 48.667812 -4.595284
-13.570238 48.623745 -4.056522
-13.465178 48.668377 -4.165202
-13.090699 48.663544 -4.610734
-13.100266 48.670506 -4.602794
-13.392573 48.673977 -4.251160
-13.369054 48.673069 -4.291173
-13.096790 48.664619 -4.590420
-13.602199 48.644978 -4.004814
-13.064228 48.659302 -4.627641
-13.353437 48.673649 -4.304349
-13.269074 48.678535 -4.389752
-13.092290 48.666069 -4.604902
-13.164445 48.665264 -4.508240
-13.478368 48.657845 -4.145375
-13.086047 48.664574 -4.613194
-13.228964 48.666168 -4.443294
-13.234491 48.673096 -4.439903
-13.156340 48.669201 -4.515135
-13.105394 48.663200 -4.571424
-13.119848 48.658573 -4.552773
-13.254103 48.676743 -4.397304
-13.362081 48.666012 -4.282690
-13.238231 48.657455 -4.423724
-13.301076 48.668995 -4.333843
-13.143395 48.665138 -4.527549
-13.134429 48.667339 -4.538073
-13.492468 48.663330 -4.121625
-13.574161 48.627922 -4.024363
-13.372847 48.676292 -4.260435
-13.598690 48.648926 -3.981003
-13.145988 48.665424 -4.521704
-13.387185 48.676208 -4.226099
-13.176713 48.663368 -4.468490
-13.317287 48.671886 -4.307122
-13.235579 48.673775 -4.408711
-13.126110 48.661854 -4.537426
-13.511024 48.675770 -4.089581
-13.193012 48.666290 -4.443171
-13.056498 48.665859 -4.596982
-13.078108 48.663017 -4.582730
-13.330880 48.674461 -4.284879
-13.555828 48.639847 -4.024831
-13.074093 48.670685 -4.575045
-13.367474 48.669197 -4.232018
-13.436604 48.663380 -4.148464
-13.576896 48.642334 -3.986387
-13.346315 48.673820 -4.268896
-13.246504 48.679340 -4.370268
-13.067562 48.665432 -4.590530
-13.073750 48.666542 -4.571623
-13.041183 48.661224 -4.608839
-13.070921 48.669636 -4.584527
-13.064676 48.668144 -4.592817
-13.141912 48.670101 -4.487937
-13.459252 48.674057 -4.118960
-13.206245 48.670033 -4.423039
-13.212071 48.671745 -4.418331
-13.132132 48.658115 -4.496732
-13.081325 48.663322 -4.553454
-13.097797 48.665398 -4.533793
-13.342289 48.674316 -4.260014
-13.231833 48.679474 -4.376336
-13.219206 48.669666 -4.400880
-13.473641 48.673416 -4.096739
-13.111790 48.664085 -4.519369
-13.569781 48.637051 -3.969410
-13.349617 48.674133 -4.239672
-13.276465 48.674252 -4.313005
-13.555074 48.637005 -3.998128
-13.120914 48.666878 -4.506601
-13.361295 48.666592 -4.209949
-13.124240 48.667038 -4.501410
-13.294589 48.675758 -4.286878
-13.152123 48.664600 -4.449838
-13.482643 48.663696 -4.075815
-13.213310 48.676502 -4.387739
-13.105147 48.660244 -4.517142
-13.169656 48.670307 -4.423657
-13.347991 48.679428 -4.207860
-13.033903 48.666641 -4.577458
-13.052482 48.676365 -4.555338
-13.056303 48.660580 -4.563226
-13.556281 48.646702 -3.962489
-13.305532 48.671791 -4.266399
-13.045507 48.665112 -4.571701
-13.326879 48.680950 -4.244095
-13.223207 48.680264 -4.350121
-13.528127 48.628536 -4.007480
-13.050323 48.666504 -4.552891
-13.413998 48.672222 -4.124590
-13.018338 48.671261 -4.589827
-13.048773 48.669285 -4.564291
-13.118694 48.671051 -4.469179
-13.043757 48.670570 -4.571717
-13.431866 48.667793 -4.102153
-13.183481 48.669849 -4.403577
-13.190889 48.673176 -4.395886
-13.110246 48.669930 -4.475504
-13.058737 48.671246 -4.533771
-13.319743 48.675125 -4.240536
-13.075998 48.670101 -4.514127
-13.209178 48.680237 -4.355434
-13.197675 48.672264 -4.380557
-13.448323 48.670753 -4.078279
-13.089653 48.670876 -4.498975
-13.326788 48.673931 -4.218827
-13.099318 48.665421 -4.487063
-13.252736 48.676315 -4.293575
-13.538605 48.649498 -3.968075
-13.342899 48.682667 -4.184157
-13.103087 48.671585 -4.480995
-13.270131 48.677948 -4.266797
-13.464662 48.674603 -4.050131
-13.130048 48.675438 -4.428647
-13.190163 48.667221 -4.368512
-13.084294 48.666718 -4.495244
-13.146058 48.669296 -4.404974
-13.325859 48.683109 -4.185456
-13.011704 48.676517 -4.557688
-13.283290 48.674522 -4.245431
-13.029699 48.676167 -4.535845
-13.024787 48.675655 -4.550393
-13.034802 48.667206 -4.542069
-13.198690 48.678402 -4.330828
-13.027492 48.669399 -4.534039
-13.301503 48.675148 -4.223564
-12.994471 48.665211 -4.571958
-13.386276 48.668034 -4.107043
-13.507535 48.633820 -3.980727
-13.027024 48.670883 -4.543972
-13.413199 48.682858 -4.075002
-13.094895 48.669052 -4.450523
-13.162053 48.680531 -4.381637
-13.022257 48.670055 -4.550720
-13.170938 48.684525 -4.372406
-13.297845 48.675774 -4.220297
-13.088561 48.675579 -4.454391
-13.034142 48.672462 -4.515089
-13.052243 48.672142 -4.494659
-13.174726 48.671101 -4.361124
-13.186189 48.683083 -4.333794
-13.427938 48.680134 -4.053510
-13.066541 48.672760 -4.478758
-13.078129 48.673977 -4.464430
-13.304373 48.676598 -4.195050
-13.228580 48.680428 -4.272002
-13.316490 48.674149 -4.167299
-13.081206 48.676254 -4.459916
-13.438900 48.665020 -4.035388
-13.247548 48.682758 -4.245090
-13.105420 48.672619 -4.410778
-13.170617 48.688580 -4.341942
-13.063200 48.668167 -4.474176
-13.124630 48.679974 -4.383022
-13.301516 48.678192 -4.166941
-13.259526 48.672539 -4.226798
-13.013654 48.664604 -4.521795
-13.006925 48.675961 -4.516343
-12.987894 48.674511 -4.539009
-13.001619 48.673492 -4.530964
-13.175604 48.680298 -4.310625
-13.280657 48.678513 -4.199645
-13.003784 48.675476 -4.513754
-12.971046 48.672298 -4.553037
-13.005527 48.677505 -4.522802
-13.487679 48.638969 -3.954615
-13.386168 48.674503 -4.058904
-13.139300 48.680340 -4.362156
-13.364816 48.679615 -4.080877
-13.001644 48.681541 -4.527958
-13.072282 48.680984 -4.428620
-13.148840 48.685089 -4.349327
-13.276553 48.680271 -4.197090
-13.065458 48.677464 -4.434168
-13.010481 48.674534 -4.497015
-13.163248 48.681915 -4.314353
-13.029080 48.677120 -4.475070
-13.153311 48.674637 -4.339339
-13.404501 48.680092 -4.033416
-13.284701 48.685837 -4.170903
-13.044858 48.678406 -4.457630
-13.055813 48.672642 -4.444220
-13.296288 48.684494 -4.142462
-13.060509 48.679661 -4.438768
-13.413255 48.656384 -4.019195
-13.203399 48.682732 -4.251244
-13.222023 48.679092 -4.226618
-13.148811 48.690159 -4.320227
-13.080953 48.674786 -4.390652
-13.043290 48.683544 -4.449862
-13.101092 48.682999 -4.363516
-13.238480 48.682056 -4.202739
-13.279696 48.683796 -4.143038
-12.964725 48.679482 -4.519403
-13.153359 48.683014 -4.289623
-12.984057 48.682861 -4.495261
-12.979094 48.678307 -4.510611
-12.983196 48.683300 -4.502412
-13.258005 48.676147 -4.176692
-12.980181 48.674446 -4.495030
-13.116360 48.679165 -4.342704
-12.946893 48.679508 -4.533450
-13.049722 48.681763 -4.409081
-13.365850 48.688831 -4.030461
-13.337451 48.673336 -4.064037
-12.980303 48.677956 -4.507710
-13.252947 48.675220 -4.179214
-13.126645 48.684708 -4.327681
-13.043149 48.676125 -4.413951
-13.141692 48.688515 -4.291792
-13.132339 48.684177 -4.316666
-12.986391 48.678650 -4.476793
-13.005288 48.675110 -4.456386
-13.378020 48.670628 -4.018001
-13.022538 48.684204 -4.437244
-13.034632 48.681190 -4.421567
-13.261907 48.686539 -4.147181
-13.392537 48.659786 -3.996691
-13.272946 48.685383 -4.120898
-13.038053 48.681385 -4.417782
-13.178370 48.681965 -4.231241
-13.199256 48.682919 -4.204929
-13.126084 48.690880 -4.297885
-13.021035 48.679104 -4.428999
-13.056732 48.681973 -4.369673
-13.077273 48.685005 -4.342630
-13.216358 48.685722 -4.180299
-13.257193 48.685505 -4.120679
-12.970240 48.671833 -4.480313
-12.942107 48.676201 -4.500647
-13.129895 48.682945 -4.269475
-12.960765 48.668560 -4.478228
-12.956525 48.679073 -4.491052
-12.960832 48.677910 -4.482981
-13.239043 48.690182 -4.148124
-13.094460 48.687843 -4.319401
-13.338836 48.680466 -4.014343
-12.956242 48.675495 -4.475566
-12.929416 48.666920 -4.511703
-13.232744 48.685558 -4.154357
-12.958870 48.681473 -4.485881
-12.922806 48.668423 -4.516394
-13.025599 48.681839 -4.389667
-13.317089 48.691673 -4.033369
-13.104757 48.686245 -4.304545
-13.020253 48.678982 -4.393672
-13.110439 48.684803 -4.296380
-13.118868 48.688286 -4.270889
-13.358693 48.682713 -3.989527
-12.982238 48.681026 -4.435333
-12.961711 48.686962 -4.456508
-13.372166 48.661098 -3.974907
-13.251671 48.689877 -4.097672
-12.998812 48.679096 -4.417913
-13.012375 48.683891 -4.400534
-13.237638 48.678513 -4.128003
-13.015704 48.675995 -4.398359
-13.154037 48.685085 -4.209671
-13.175956 48.687840 -4.182537
-13.103901 48.690491 -4.276227
-12.999569 48.678581 -4.407979
-13.032662 48.686089 -4.349451
-13.054193 48.694939 -4.319374
-13.193299 48.687614 -4.160081
-13.237009 48.696758 -4.092968
-13.107169 48.690800 -4.246957
-12.918559 48.679207 -4.481097
-12.937060 48.689819 -4.454731
-12.933870 48.679802 -4.470077
-13.209599 48.679367 -4.135751
-13.071038 48.691807 -4.298432
-12.938374 48.679619 -4.461969
-13.216405 48.687813 -4.125151
-13.314983 48.682465 -3.992084
-12.937395 48.680943 -4.464848
-12.898409 48.677738 -4.497462
-12.932308 48.676537 -4.456092
-13.001585 48.682858 -4.368797
-13.287827 48.678715 -4.018927
-13.083608 48.695713 -4.279038
-12.997705 48.687805 -4.371097
-13.088158 48.691517 -4.273143
-13.331243 48.667427 -3.977130
-13.096004 48.692062 -4.247766
-12.958938 48.689056 -4.414945
-12.938029 48.677834 -4.439373
-13.351756 48.666424 -3.950905
-13.228340 48.690758 -4.076087
-12.976156 48.686970 -4.396777
-13.217951 48.692669 -4.098767
-12.989197 48.685730 -4.378872
-12.993455 48.678692 -4.377317
-13.129170 48.689301 -4.187398
-13.151779 48.687893 -4.161727
-12.977766 48.680138 -4.386220
-13.080501 48.687313 -4.255421
-13.007819 48.694340 -4.326349
-13.029352 48.695137 -4.299292
-13.170261 48.690418 -4.137004
-13.213141 48.690689 -4.073701
-12.926020 48.679142 -4.436728
-13.082745 48.685822 -4.226976
-12.894476 48.683308 -4.460842
-12.910820 48.685711 -4.449000
-12.913725 48.686661 -4.435301
-13.190193 48.694530 -4.107874
-13.047919 48.697693 -4.275971
-12.915728 48.680347 -4.440985
-13.194462 48.689323 -4.100613
-13.290748 48.682495 -3.969890
-12.914943 48.682652 -4.443826
-12.908126 48.679695 -4.437284
-12.873877 48.682976 -4.477917
-12.978160 48.686810 -4.347806
-13.066222 48.688091 -4.253644
-13.061149 48.686249 -4.259011
-12.974726 48.690624 -4.349390
-13.266154 48.694225 -3.987691
-13.310893 48.677704 -3.949462
-13.072461 48.691952 -4.226187
-13.327323 48.656509 -3.934620
-12.934921 48.690067 -4.394056
-12.912624 48.686260 -4.418409
-13.206790 48.702286 -4.048455
-12.953324 48.686722 -4.375834
-13.195415 48.690327 -4.077188
-12.967098 48.693413 -4.355569
-12.971299 48.689472 -4.354654
-13.127563 48.691952 -4.138695
-13.102743 48.684761 -4.168263
-13.059018 48.690807 -4.232187
-12.956116 48.686684 -4.362201
-12.982981 48.694530 -4.306253
-13.005892 48.695049 -4.279105
-13.191443 48.697224 -4.048313
-13.146735 48.690311 -4.115435
-13.059978 48.697678 -4.202224
-13.166224 48.687508 -4.090038
-12.887878 48.684505 -4.429487
-12.890485 48.691586 -4.414251
-12.870008 48.685444 -4.440651
-13.025104 48.697453 -4.255035
-12.893129 48.685112 -4.419185
-12.892942 48.683216 -4.422081
-13.265490 48.680721 -3.948511
-13.173613 48.697594 -4.071583
-12.883363 48.687962 -4.415559
-12.953856 48.693947 -4.325378
-12.848226 48.686371 -4.457778
-13.042875 48.688953 -4.232018
-13.039128 48.690842 -4.235078
-13.287206 48.676628 -3.927953
-12.951449 48.699562 -4.326136
-13.306045 48.656956 -3.912193
-13.049801 48.696701 -4.203005
-13.238535 48.686916 -3.969439
-12.910269 48.691227 -4.373907
-12.888163 48.688400 -4.398220
-13.180578 48.690678 -4.032307
-12.929598 48.696796 -4.353289
-12.949311 48.690044 -4.332916
-13.173241 48.694866 -4.050463
-12.944032 48.696190 -4.332442
-13.103740 48.689911 -4.118595
-13.079406 48.693680 -4.143622
-13.035972 48.693592 -4.209075
-12.933396 48.687374 -4.339802
-12.957651 48.699863 -4.284647
-13.123707 48.693108 -4.092337
-13.167157 48.693195 -4.026891
-12.980670 48.701332 -4.256059
-13.146239 48.699726 -4.062253
-12.881628 48.677399 -4.396161
-13.035566 48.692692 -4.182222
-12.864404 48.684402 -4.409269
-12.845781 48.692604 -4.419607
-12.866084 48.690624 -4.393414
-13.000726 48.696507 -4.234222
-12.869162 48.690159 -4.397468
-12.870796 48.686844 -4.399557
-13.240775 48.677837 -3.927814
-13.153105 48.711834 -4.040255
-13.020708 48.696606 -4.207307
-12.858666 48.685074 -4.396202
-12.928868 48.697193 -4.304496
-12.823118 48.688660 -4.438322
-13.263033 48.672642 -3.907952
-13.285561 48.662239 -3.886757
-13.017022 48.695396 -4.209727
-12.927322 48.688438 -4.307651
-13.025881 48.694618 -4.181481
-13.213530 48.691074 -3.944349
-12.885124 48.697533 -4.352248
-13.161145 48.710762 -3.999345
-12.862373 48.694862 -4.377306
-12.905401 48.696819 -4.332418
-12.925501 48.700085 -4.308957
-12.921254 48.699978 -4.310675
-13.151072 48.699402 -4.023726
-13.079974 48.700882 -4.091809
-12.911449 48.700039 -4.314225
-13.012840 48.696342 -4.184546
-13.052901 48.689098 -4.123057
-13.100577 48.694954 -4.070673
-13.146165 48.704525 -3.997074
-12.956831 48.699276 -4.235926
-12.932241 48.697105 -4.264641
-13.122878 48.696548 -4.041435
-12.858543 48.687309 -4.372844
-13.011686 48.702705 -4.156866
-12.839596 48.696674 -4.385310
-12.841822 48.693737 -4.373168
-12.820933 48.692776 -4.399469
-12.976692 48.701527 -4.211110
-12.846487 48.686829 -4.377260
-12.848461 48.689487 -4.377061
-13.216661 48.678806 -3.904144
-13.274765 48.705471 -3.836365
-12.997562 48.698441 -4.185623
-13.128545 48.698734 -4.020467
-12.833611 48.691406 -4.375936
-13.237292 48.658985 -3.893944
-12.904487 48.696236 -4.283659
-12.995265 48.697865 -4.185098
-12.797779 48.685921 -4.419698
-12.903514 48.698475 -4.283682
-13.003139 48.699329 -4.156871
-12.859982 48.703835 -4.330576
-13.186521 48.687607 -3.923111
-13.134370 48.696205 -3.983290
-12.835701 48.704502 -4.354955
-12.881242 48.708935 -4.307712
-13.129741 48.704758 -3.996191
-12.901945 48.708004 -4.284309
-12.897698 48.707897 -4.286027
-13.055044 48.696999 -4.071106
-12.990099 48.701054 -4.159931
-12.888696 48.704735 -4.289593
-13.028255 48.703243 -4.094828
-13.078056 48.709614 -4.040162
-13.122536 48.700329 -3.974879
-12.931772 48.702480 -4.213624
-13.101243 48.708023 -4.012352
-12.907179 48.700306 -4.242335
-12.835034 48.691204 -4.350396
-12.987142 48.692715 -4.139092
-12.813073 48.684391 -4.378323
-12.952813 48.703472 -4.188753
-12.815896 48.691532 -4.365914
-12.796286 48.693916 -4.379282
-12.816587 48.699993 -4.350076
-12.821978 48.701019 -4.351806
-12.825744 48.690163 -4.354628
-12.974818 48.703140 -4.160999
-13.192058 48.676853 -3.881975
-13.219476 48.681595 -3.855141
-13.108733 48.717758 -3.984702
-12.784514 48.693531 -4.387923
-12.807345 48.695854 -4.353664
-12.971796 48.694633 -4.162835
-12.878732 48.695549 -4.262900
-12.772139 48.689297 -4.399524
-12.979366 48.702225 -4.133070
-12.878543 48.702621 -4.259921
-12.835283 48.708988 -4.308177
-13.112729 48.716648 -3.948326
-13.160440 48.685898 -3.899618
-12.856850 48.707962 -4.286854
-12.878586 48.708836 -4.262629
-12.810775 48.696575 -4.336415
-13.107177 48.707317 -3.969497
-12.873872 48.698681 -4.266033
-13.030825 48.709999 -4.042146
-12.966917 48.699741 -4.136177
-12.865042 48.704556 -4.266537
-13.053643 48.704620 -4.020133
-13.002028 48.700577 -4.072747
-13.077565 48.702908 -3.992984
-13.100837 48.716728 -3.940711
-12.905955 48.705807 -4.190647
-12.809314 48.714706 -4.321966
-12.879946 48.699867 -4.220253
-12.962957 48.701706 -4.112334
-12.928772 48.700428 -4.168632
-12.790991 48.695702 -4.343540
-12.769552 48.699501 -4.357710
-12.791334 48.706249 -4.326969
-12.951219 48.707016 -4.137147
-12.774953 48.692471 -4.362462
-12.800483 48.704472 -4.328503
-13.201036 48.709320 -3.813408
-13.168319 48.680683 -3.855340
-12.795838 48.710461 -4.327273
-13.084697 48.703545 -3.965576
-12.949575 48.707195 -4.133017
-12.781655 48.695190 -4.334290
-12.853105 48.699848 -4.239876
-12.955191 48.703159 -4.109329
-12.853454 48.705818 -4.237591
-13.087645 48.707767 -3.929855
-12.808465 48.714546 -4.285201
-13.135670 48.687920 -3.873801
-12.853790 48.713963 -4.238816
-12.831409 48.713242 -4.263788
-13.084602 48.718849 -3.936918
-12.850068 48.701565 -4.242201
-13.004166 48.700413 -4.023793
-12.943027 48.710659 -4.107929
-12.842380 48.702133 -4.243454
-13.055655 48.717407 -3.961694
-13.029328 48.717594 -3.989757
-12.975600 48.704979 -4.047671
-13.075473 48.706837 -3.920866
-12.880487 48.707047 -4.168391
-12.853782 48.705269 -4.196529
-12.937321 48.693913 -4.093145
-12.904041 48.710514 -4.141163
-12.927633 48.702831 -4.116307
-13.145416 48.694302 -3.822034
-13.062278 48.712006 -3.933759
-12.926750 48.695747 -4.113002
-12.826938 48.705246 -4.216147
-12.931122 48.705036 -4.084134
-12.828430 48.705914 -4.214613
-13.063453 48.713638 -3.901055
-12.830887 48.705601 -4.219425
-13.060075 48.709774 -3.916280
-12.825727 48.705547 -4.217666
-12.979257 48.718494 -3.990494
-12.919163 48.705456 -4.085713
-13.031754 48.707260 -3.943153
-13.004346 48.709652 -3.969822
-13.052170 48.709515 -3.893489
-12.854777 48.711311 -4.143949
-12.948265 48.700462 -4.024987
-12.912005 48.709114 -4.062761
-12.903934 48.714722 -4.088008
-12.879029 48.710613 -4.118189
-13.121498 48.707024 -3.786689
-13.038449 48.707733 -3.908705
-12.903554 48.711456 -4.080329
-12.905975 48.709114 -4.057539
-13.037615 48.691856 -3.888592
-13.036441 48.706478 -3.891187
-12.895252 48.704266 -4.061275
-13.007943 48.724049 -3.908387
-12.953544 48.710667 -3.969889
-12.980288 48.720497 -3.938750
-13.026873 48.695599 -3.875842
-12.921381 48.723930 -3.988851
-12.879814 48.711632 -4.066456
-12.886582 48.703205 -4.040664
-13.098117 48.718643 -3.752028
-13.015319 48.708252 -3.879233
-12.879067 48.707317 -4.055997
-12.881285 48.703083 -4.036097
-13.013185 48.700748 -3.857596
-13.012728 48.694176 -3.870553
-13.056254 48.685852 -3.797562
-12.984400 48.711811 -3.890563
-12.955211 48.711601 -3.920243
-12.926432 48.729111 -3.934592
-13.002948 48.699337 -3.846344
-12.993096 48.736538 -3.832743
-12.988716 48.697880 -3.839642
-12.959428 48.712826 -3.864731
-12.928949 48.731777 -3.881299
-12.978237 48.707211 -3.813962
-12.968836 48.694378 -3.829835
