# .PCD v0.7 - Point Cloud Data file format
VERSION 0.7
FIELDS x y z
SIZE 4 4 4
TYPE F F F
COUNT 1 1 1
WIDTH 481
HEIGHT 1
VIEWPOINT 0 0 0 1
POINTS 481
DATA ascii
2.128039 12.338866 1.601317
2.094429 12.366908 1.677849
2.112189 12.347174 1.632861
2.108733 12.354927 1.653015
2.134117 12.334178 1.606355
2.105713 12.354052 1.661405
2.099324 12.356347 1.670356
2.127946 12.324094 1.609765
2.065194 12.370876 1.772539
2.088781 12.330713 1.722217
2.124737 12.290448 1.623224
2.096462 12.319117 1.699826
2.107885 12.299387 1.653996
2.110771 12.307136 1.674994
2.126746 12.284119 1.625667
2.104107 12.304283 1.679950
2.100085 12.306804 1.691211
2.133641 12.275519 1.631542
2.040658 12.355013 1.844327
2.051514 12.342031 1.820540
2.063334 12.322418 1.796395
2.042372 12.326942 1.835267
2.029912 12.338077 1.867373
2.020960 12.348845 1.905008
2.089583 12.282104 1.745102
2.134221 12.243893 1.650885
2.095326 12.269945 1.719562
2.112245 12.253653 1.679901
2.107790 12.259274 1.695641
2.130593 12.236852 1.648355
2.103402 12.254776 1.698848
2.102548 12.258676 1.712352
2.132422 12.227244 1.650865
2.036375 12.305393 1.863839
2.053104 12.294573 1.843350
1.939998 12.374695 2.067142
2.064076 12.275636 1.820887
1.956960 12.369009 2.064985
1.923183 12.382265 2.104479
2.038375 12.276946 1.851493
2.031353 12.290577 1.887733
2.009707 12.298591 1.920031
2.081103 12.233572 1.763220
2.126230 12.195960 1.670201
2.095565 12.221634 1.740841
2.113533 12.205644 1.703982
2.109503 12.210927 1.718882
2.128522 12.189252 1.669358
1.969321 12.338035 2.042222
2.102602 12.206164 1.717329
2.097723 12.209358 1.730267
2.127136 12.177332 1.667595
2.043881 12.258265 1.888335
2.050199 12.245813 1.864407
1.939258 12.339927 2.106248
1.935965 12.324694 2.083350
2.057152 12.226172 1.841380
1.955013 12.319609 2.086794
1.917818 12.332339 2.121173
2.042146 12.228738 1.872138
2.028298 12.241775 1.906338
1.898012 12.339506 2.160740
2.007593 12.250984 1.941014
2.079016 12.185970 1.784215
2.121508 12.148515 1.692181
2.090739 12.172318 1.758755
2.106910 12.158570 1.724838
2.107950 12.162095 1.739462
2.126078 12.140162 1.689590
1.964158 12.289085 2.063401
2.099204 12.155879 1.735177
2.099292 12.160971 1.751060
2.127016 12.127532 1.688110
2.035338 12.208797 1.904417
2.046300 12.197687 1.884694
1.935742 12.291456 2.125677
1.934206 12.275811 2.101454
2.055199 12.178609 1.864820
1.946579 12.270175 2.105309
1.915057 12.284090 2.138504
2.023448 12.192454 1.924242
2.040051 12.178370 1.889488
1.894391 12.291931 2.179746
2.004108 12.202520 1.960456
2.120909 12.100880 1.715145
2.075230 12.136955 1.804929
2.089183 12.123487 1.779334
2.110000 12.111081 1.749624
2.100478 12.112934 1.758355
2.123637 12.091072 1.709824
1.958098 12.239878 2.084229
2.098507 12.106375 1.754079
2.094472 12.111655 1.768977
2.124433 12.078403 1.705896
2.029690 12.158322 1.922390
2.041600 12.148408 1.905050
1.929958 12.241869 2.143214
1.928903 12.224062 2.116541
2.050879 12.130821 1.885949
1.912868 12.235545 2.157444
1.939472 12.220666 2.123335
2.021396 12.143021 1.943619
2.030241 12.127155 1.904448
1.890300 12.243758 2.197562
2.000102 12.155288 1.980320
2.072721 12.089690 1.826765
2.115816 12.051945 1.736354
2.086162 12.074691 1.797953
2.099783 12.062969 1.769075
2.097933 12.064735 1.778166
1.951516 12.191900 2.105478
2.120201 12.042616 1.729287
2.097716 12.057763 1.772564
2.091550 12.061967 1.788016
2.120625 12.028456 1.724589
2.029440 12.109408 1.942471
2.038604 12.100541 1.925689
1.923749 12.192619 2.161590
1.926251 12.174920 2.134295
2.045234 12.083110 1.907565
1.907415 12.186516 2.173723
1.934640 12.172274 2.143255
2.009589 12.093073 1.957037
1.885785 12.195923 2.216218
2.031323 12.078165 1.924043
1.994823 12.106304 1.999061
2.071067 12.041750 1.846924
2.112425 12.004421 1.757847
2.080917 12.025713 1.816709
2.098283 12.015070 1.791687
2.097758 12.016759 1.800290
2.119563 11.994044 1.750225
1.944559 12.142432 2.125955
2.094755 12.007140 1.789575
2.094552 12.012606 1.808744
2.118048 11.979325 1.742376
2.022374 12.059905 1.960513
2.033010 12.051002 1.945694
1.921237 12.143515 2.181790
2.037321 12.034283 1.927289
1.922328 12.124028 2.150926
1.906700 12.137932 2.194624
1.933647 12.124065 2.167447
1.885343 12.149721 2.237470
2.012609 12.044639 1.979781
2.030040 12.028951 1.941328
1.992718 12.058695 2.020046
2.064493 11.992847 1.866165
2.110461 11.955925 1.779271
2.094888 11.967545 1.813177
2.080696 11.976801 1.836802
2.090294 11.967598 1.819184
2.111636 11.944288 1.767932
1.941345 12.094043 2.150284
2.091273 11.957747 1.807007
2.086945 11.963404 1.825189
2.117469 11.928926 1.761704
2.020331 12.010468 1.979893
2.027321 12.002355 1.965279
1.917401 12.094485 2.202478
2.028884 11.986686 1.947432
1.920252 12.074587 2.170290
1.904520 12.089382 2.213566
1.927020 12.075151 2.186663
1.879934 12.101624 2.255775
2.010566 11.995202 1.999159
1.990143 12.010488 2.039841
2.025734 11.978399 1.958816
2.060619 11.944722 1.886460
2.104378 11.907620 1.799709
2.073089 11.927599 1.853245
2.090268 11.919200 1.835573
2.089750 11.918127 1.840536
2.111005 11.895713 1.788870
1.936664 12.045688 2.172653
2.087892 11.907460 1.824858
2.083231 11.912558 1.844296
2.114000 11.879531 1.779140
2.015070 11.961482 1.998638
2.022631 11.953072 1.985635
1.913000 12.045753 2.221557
1.919506 12.025065 2.189166
2.029834 11.938106 1.972764
1.898746 12.039794 2.231102
1.923664 12.026717 2.208543
1.881962 12.054745 2.279758
2.011793 11.946242 2.021201
1.987143 11.962614 2.060475
2.026925 11.928508 1.978832
2.055849 11.896335 1.906403
2.097299 11.859947 1.819377
2.080486 11.870749 1.854183
2.071646 11.877866 1.874244
2.080395 11.869338 1.858307
1.930091 11.997705 2.193901
2.106779 11.846097 1.808401
2.084515 11.857170 1.842709
2.078427 11.863238 1.862215
2.108737 11.829618 1.795873
2.014601 11.911109 2.020396
2.018844 11.904045 2.006341
1.913863 11.996226 2.244839
2.021500 11.889610 1.993324
1.915168 11.974504 2.206636
1.899938 11.990826 2.253126
1.874760 12.006124 2.297358
1.919081 11.977463 2.231328
2.007862 11.897174 2.039457
1.987040 11.913728 2.083000
2.026321 11.878095 1.998145
2.051082 11.847945 1.926345
2.096812 11.811405 1.842760
2.079993 11.822205 1.877564
2.064946 11.828920 1.891039
2.078060 11.819343 1.878956
2.101559 11.797113 1.827162
1.927452 11.949008 2.219837
2.075979 11.806774 1.856774
2.078844 11.812193 1.882307
2.106371 11.778690 1.814498
2.008875 11.861521 2.037951
2.018327 11.855494 2.029710
1.905442 11.946788 2.263350
2.017763 11.841514 2.016059
1.897439 11.941710 2.273324
1.908037 11.924058 2.222632
1.882527 11.959041 2.326735
1.920092 11.927971 2.257059
1.978982 11.864850 2.100266
2.002233 11.846691 2.057429
2.020228 11.827017 2.014929
2.049211 11.798541 1.948179
2.092963 11.763272 1.863060
2.070688 11.774344 1.897362
2.060243 11.778702 1.909373
2.074731 11.769979 1.898834
2.102461 11.746661 1.848449
1.920081 11.899867 2.241149
2.078202 11.756244 1.877571
2.074145 11.761972 1.900643
2.104009 11.727759 1.833123
2.006517 11.811515 2.058586
2.010950 11.805425 2.049009
1.914840 11.896939 2.293499
2.015026 11.792778 2.039564
1.895941 11.891956 2.294293
1.881963 11.910475 2.350080
1.904276 11.873193 2.241710
1.915515 11.878708 2.279842
1.974194 11.816449 2.120195
1.996510 11.797098 2.074981
2.012672 11.775975 2.029752
2.059524 11.748027 1.976677
2.079599 11.713779 1.880263
2.068402 11.725274 1.920037
2.056444 11.728738 1.928058
2.072874 11.720570 1.920671
2.092753 11.696376 1.865450
1.925505 11.850249 2.272761
2.069450 11.711749 1.918978
2.097958 11.676683 1.849921
1.998670 11.760846 2.076692
2.006372 11.755233 2.069779
1.915052 11.846282 2.319294
1.890751 11.842055 2.313435
2.011490 11.742884 2.063134
1.918003 11.821355 2.273685
1.910470 11.828844 2.301433
1.965715 11.767902 2.138297
2.007431 11.744449 2.103468
2.009482 11.723879 2.048428
2.076522 11.663553 1.903008
2.059727 11.675282 1.939831
2.055542 11.677757 1.948635
2.061362 11.669763 1.936963
1.922074 11.800382 2.298761
2.086843 11.645334 1.884694
2.061820 11.654245 1.907724
2.063488 11.659772 1.936189
2.091012 11.625344 1.866367
1.993152 11.709459 2.095080
1.906741 11.795935 2.338220
2.001467 11.704479 2.091806
1.885567 11.792150 2.332576
2.003266 11.693480 2.084107
1.912978 11.768729 2.291638
1.913626 11.778101 2.331149
1.952076 11.719253 2.152611
2.019788 11.651287 1.999923
2.079287 11.663701 2.111219
2.051429 11.626776 1.960394
2.047727 11.627088 1.966749
2.070422 11.617485 1.964340
1.917649 11.751143 2.323990
2.084961 11.594985 1.904504
2.055866 11.602267 1.924935
2.067484 11.606501 1.960199
2.092085 11.572155 1.886461
1.999060 11.656735 2.122228
1.898960 11.744352 2.356723
1.995997 11.654019 2.112221
1.991252 11.644825 2.102833
1.909427 11.716057 2.311550
1.984843 11.664558 2.197846
1.909353 11.726136 2.355183
1.976065 11.644581 2.127477
2.030309 11.598963 2.029255
2.003118 11.619670 2.085774
2.044657 11.576397 1.981306
2.045036 11.575578 1.986619
1.917687 11.699949 2.353487
2.069643 11.546728 1.951271
2.090938 11.518778 1.906690
1.987061 11.605316 2.137313
1.990630 11.602658 2.133054
1.993985 11.593481 2.131373
1.954768 11.617170 2.202055
1.944078 11.658654 2.362438
1.979610 11.591629 2.152310
2.022065 11.548617 2.048201
1.999142 11.566403 2.104511
2.054093 11.513654 1.961764
2.045379 11.525394 2.006286
2.033964 11.524422 2.002065
2.038406 11.518332 1.992492
2.060981 11.493989 1.936315
2.047668 11.503472 1.991380
2.062000 11.493324 1.968194
2.081211 11.467542 1.921656
2.021666 11.546045 2.184160
2.034761 11.542428 2.187541
2.038687 11.532949 2.187470
1.953188 11.565043 2.225124
1.896749 11.610931 2.348421
1.976573 11.539545 2.173423
2.022410 11.496117 2.072404
2.056252 11.461673 1.986677
1.994273 11.512871 2.122895
2.041608 11.473092 2.029505
2.040064 11.468960 2.028029
2.041186 11.464222 2.017402
2.067094 11.438529 1.962284
2.057588 11.439458 1.985750
2.048611 11.447913 2.013559
2.075909 11.413418 1.938864
1.979858 11.499433 2.180863
1.982142 11.497786 2.179119
1.980322 11.491268 2.177289
1.946921 11.513408 2.245595
1.972836 11.485404 2.195018
2.018497 11.443769 2.093170
2.054389 11.408986 2.011019
1.990977 11.458395 2.143657
2.035946 11.421161 2.051599
2.039013 11.414665 2.048664
2.040374 11.409070 2.040903
1.973662 11.445966 2.199726
1.971864 11.445450 2.199022
1.977673 11.438348 2.203711
1.946917 11.460327 2.271039
1.889415 11.500842 2.392418
1.968538 11.431556 2.215003
1.944649 11.406126 2.294586
2.100180 12.345856 1.671906
2.075304 12.361346 1.718585
2.111548 12.319041 1.642017
2.037809 12.370584 1.811791
2.093361 12.293557 1.686299
2.076952 12.312067 1.737445
2.013225 12.373487 1.900022
2.122227 12.271558 1.664945
2.045785 12.322289 1.833614
2.095912 12.244549 1.705529
2.074495 12.262941 1.755262
2.013515 12.324267 1.919340
2.113094 12.219953 1.679025
1.935607 12.371154 2.058665
2.036271 12.269184 1.846907
2.067653 12.190883 1.710275
1.902185 12.366866 2.157226
2.077140 12.213039 1.774912
2.012023 12.274511 1.937932
2.113422 12.169806 1.696336
1.932299 12.319921 2.074488
2.037462 12.219299 1.864568
2.096558 12.144254 1.740146
1.899764 12.316835 2.175436
2.082463 12.163940 1.795655
2.009643 12.224488 1.956160
2.114202 12.120261 1.714845
1.929092 12.267797 2.090733
2.032864 12.168142 1.880879
1.890360 12.267004 2.188637
2.090103 12.093457 1.755318
2.073323 12.112337 1.809731
1.998692 12.172344 1.969495
2.107853 12.068574 1.730442
1.925791 12.216566 2.106558
2.029505 12.117810 1.896301
1.887406 12.218202 2.207259
2.090435 12.043309 1.772629
2.073205 12.062521 1.827871
2.001768 12.123035 1.990332
2.112750 12.018871 1.749999
1.922149 12.164778 2.123637
2.035912 12.067187 1.918249
1.893325 12.168840 2.232041
2.086214 11.992713 1.787699
2.067640 12.011990 1.843404
1.989734 12.072409 2.002459
2.105860 11.967472 1.763979
1.921188 12.113791 2.141810
2.028102 12.015515 1.931851
1.891817 12.120010 2.252646
2.086653 11.941669 1.805434
2.065844 11.960742 1.861238
1.994356 12.022182 2.025701
2.103981 11.917120 1.781399
1.918447 12.062266 2.159254
2.023962 11.964020 1.947332
1.886738 12.069172 2.269765
2.086206 11.890354 1.822806
2.061179 11.910476 1.877136
1.990112 11.972510 2.042781
2.098983 11.865361 1.796529
1.916603 12.011007 2.177063
2.020375 11.912232 1.964431
1.882659 12.018642 2.289698
2.083980 11.838502 1.839448
2.064148 11.857882 1.898057
1.982747 11.921433 2.057573
2.102213 11.814219 1.815782
1.912635 11.958652 2.195396
2.021351 11.860884 1.983773
1.878930 11.968668 2.308377
2.082651 11.786913 1.856455
2.059592 11.806716 1.914377
1.979257 11.869682 2.077113
2.096432 11.761295 1.830970
1.915113 11.906378 2.217123
2.027630 11.806960 2.005793
1.873968 11.917864 2.327944
2.084743 11.733108 1.874989
2.050483 11.755106 1.928451
1.981664 11.818299 2.098430
2.086792 11.709979 1.843434
1.911353 11.852228 2.236298
2.069209 11.681415 1.885672
2.047470 11.702080 1.945145
1.978725 11.765310 2.117559
1.924251 11.798452 2.266592
2.002506 11.703043 2.029336
2.062447 11.629106 1.900068
1.971036 11.713660 2.133600
2.044019 11.649384 1.962669
2.001918 11.649355 2.048790
2.117910 11.583323 2.023257
2.059556 11.575179 1.917186
1.971529 11.659381 2.156281
2.067616 11.551535 1.887836
1.903674 11.690812 2.295276
1.993013 11.595942 2.063695
1.996061 11.600741 2.194756
2.049239 11.521796 1.930120
2.026137 11.543457 1.992073
2.061964 11.497696 1.903438
1.897262 11.635839 2.313352
2.003485 11.537689 2.089700
1.958557 11.551228 2.191612
2.069942 11.461964 1.959808
2.035635 11.485829 2.017298
2.073360 11.438774 1.927794
1.894277 11.579577 2.334980
2.002323 11.481031 2.110051
1.957384 11.495498 2.213981
2.065931 11.405358 1.976205
2.031169 11.429559 2.034520
1.893380 11.521158 2.358600
1.998394 11.424459 2.128883
1.952103 11.438987 2.233270
1.887733 11.464079 2.379129
