# .PCD v0.7 - Point Cloud Data file format
VERSION 0.7
FIELDS x y z
SIZE 4 4 4
TYPE F F F
COUNT 1 1 1
WIDTH 1545
HEIGHT 1
VIEWPOINT 0 0 0 1
POINTS 1545
DATA ascii
-19.180069 48.115509 -7.618613
-18.988136 48.121204 -7.604546
-19.187988 48.137600 -7.336595
-18.931786 48.124802 -7.473759
-19.105196 48.138008 -7.497913
-19.144812 48.126034 -7.339553
-18.818123 48.124603 -7.590575
-18.813837 48.145756 -7.495648
-18.995691 48.155975 -7.246411
-18.683775 48.149151 -7.551416
-19.564116 48.108372 -6.410723
-18.780565 48.148670 -7.382653
-18.651152 48.137897 -7.579588
-19.192463 48.124546 -6.882634
-19.009844 48.140114 -7.007246
-19.187822 48.125019 -6.730645
-18.892399 48.157253 -7.379977
-18.936590 48.145943 -7.234249
-19.298513 48.145744 -6.678748
-18.656620 48.148945 -7.484182
-18.632925 48.158493 -7.383123
-18.534414 48.162907 -7.510277
-19.158863 48.142075 -6.831529
-19.082134 48.130447 -6.769555
-18.798277 48.165482 -7.154044
-18.522205 48.163452 -7.447633
-18.609081 48.159069 -7.280448
-18.736563 48.167835 -7.172661
-18.849895 48.156628 -6.938133
-18.698586 48.161446 -7.210988
-19.353939 48.137886 -6.280203
-19.035660 48.148891 -6.685550
-18.486578 48.157448 -7.466097
-19.011477 48.145214 -6.818394
-18.716135 48.175648 -7.280198
-18.747684 48.162399 -7.138994
-18.489258 48.163445 -7.374895
-18.400078 48.166222 -7.480547
-18.764137 48.162716 -6.982215
-19.033077 48.151733 -6.692752
-18.377724 48.173180 -7.405575
-18.474991 48.170650 -7.284154
-18.967155 48.157928 -6.765336
-19.293140 48.150146 -6.301134
-18.390867 48.179951 -7.362941
-18.647455 48.180935 -7.082558
-18.671734 48.164074 -7.017163
-18.473579 48.173531 -7.200060
-18.597851 48.186092 -7.103053
-18.708529 48.171738 -6.877008
-18.574165 48.185459 -7.143975
-18.339216 48.173553 -7.363415
-18.209415 48.179382 -7.401555
-18.550589 48.187763 -7.187793
-18.352837 48.179123 -7.285365
-18.621977 48.177914 -6.917579
-18.255472 48.177303 -7.377683
-18.582384 48.176323 -7.055112
-18.338619 48.182240 -7.198776
-18.254183 48.189575 -7.321395
-18.492939 48.188503 -7.008872
-18.260925 48.192417 -7.279544
-18.343042 48.184898 -7.121603
-18.531607 48.179333 -6.948942
-18.435295 48.188942 -7.021685
-18.569956 48.181797 -6.817119
-19.022785 48.164127 -6.230550
-19.052765 48.160301 -6.161060
-18.438835 48.198772 -7.070639
-18.090584 48.187851 -7.312125
-18.145508 48.189137 -7.356023
-18.213505 48.190025 -7.277174
-18.387104 48.193855 -7.095913
-18.487591 48.188988 -6.854778
-18.222813 48.190659 -7.199121
-18.132481 48.188786 -7.289844
-20.484314 48.917278 -7.907585
-18.148651 48.205463 -7.250190
-18.227419 48.197201 -7.127693
-19.030048 48.177853 -6.147888
-18.367107 48.199413 -6.948682
-18.136679 48.199738 -7.200133
-18.235506 48.197678 -7.056745
-18.402891 48.191338 -6.886020
-18.317301 48.202736 -6.962069
-18.457172 48.195297 -6.767972
-18.904451 48.183041 -6.210667
-18.945185 48.180973 -6.145893
-18.557928 48.174007 -6.544846
-18.294844 48.204273 -6.994522
-17.987617 48.197880 -7.233649
-18.527388 48.177086 -6.646879
-17.937210 48.197464 -7.280928
-18.032499 48.201439 -7.270783
-18.562492 48.178955 -6.499559
-18.278250 48.210613 -7.032595
-18.367558 48.199707 -6.800097
-18.097805 48.204266 -7.196291
-18.105009 48.199856 -7.121714
-18.027542 48.202755 -7.215047
-18.301111 48.198051 -6.910730
-18.032185 48.211678 -7.171268
-18.113260 48.205246 -7.055118
-18.901014 48.190926 -6.127441
-18.240456 48.203365 -6.887652
-18.039803 48.212345 -7.137126
-18.488134 48.182186 -6.575130
-18.139408 48.209202 -6.997227
-18.510265 48.195251 -6.603162
-18.332834 48.199051 -6.714658
-18.208542 48.213352 -6.905686
-18.277725 48.200268 -6.825066
-18.779245 48.180485 -6.127504
-18.715574 48.175034 -6.184206
-18.584671 48.196095 -6.389711
-18.449780 48.187111 -6.511138
-18.176645 48.211185 -6.930516
-17.895472 48.206581 -7.164067
-18.529079 48.200386 -6.452797
-18.416214 48.191414 -6.604789
-17.844975 48.207260 -7.207130
-18.452988 48.191013 -6.468693
-18.250284 48.205406 -6.745235
-17.741922 48.207573 -7.296822
-17.932467 48.213375 -7.195111
-18.162163 48.220543 -6.966483
-17.976915 48.207672 -7.111761
-17.808840 48.207558 -7.258306
-17.932665 48.215454 -7.147043
-17.997972 48.208786 -7.050397
-18.459038 48.199070 -6.506222
-18.639925 48.193111 -6.311095
-18.012764 48.212925 -6.991386
-17.931547 48.219486 -7.101884
-18.769775 48.199055 -6.106237
-18.180140 48.205967 -6.848235
-17.932026 48.215248 -7.067813
-18.139685 48.214714 -6.838867
-17.744648 48.202572 -7.293811
-18.369846 48.190582 -6.534504
-18.033939 48.213932 -6.934263
-18.686998 48.194252 -6.188918
-18.620951 48.190067 -6.235098
-18.234276 48.208267 -6.670717
-18.375504 48.202023 -6.555141
-18.096167 48.219040 -6.848582
-18.161108 48.206009 -6.768070
-18.627035 48.193504 -6.167804
-18.675140 48.195118 -6.112828
-17.734848 48.215611 -7.208759
-18.475849 48.205139 -6.359468
-18.341579 48.196228 -6.477346
-18.605648 48.200542 -6.266157
-17.814138 48.215984 -7.102009
-18.415161 48.207607 -6.417694
-18.073532 48.220741 -6.873971
-18.779800 48.193600 -6.030140
-17.765724 48.217682 -7.142921
-18.339851 48.197147 -6.437083
-18.299980 48.198833 -6.561969
-18.145926 48.211796 -6.697137
-17.843231 48.225010 -7.126943
-18.058979 48.230164 -6.907112
-17.718616 48.213390 -7.182248
-17.843510 48.224998 -7.083069
-17.886391 48.220230 -7.047891
-17.902445 48.216396 -6.987248
-18.347889 48.207317 -6.468242
-18.520544 48.201244 -6.283226
-18.657000 48.207897 -6.087409
-17.920170 48.220409 -6.932404
-17.848976 48.230778 -7.045564
-18.032324 48.216244 -6.786492
-17.854540 48.227367 -7.016333
-17.669748 48.222576 -7.202120
-17.600424 48.217194 -7.258973
-17.945002 48.221260 -6.880135
-18.069899 48.213650 -6.790416
-18.261547 48.197769 -6.497844
-18.578400 48.206135 -6.165809
-18.134253 48.213516 -6.626728
-18.512339 48.200951 -6.211969
-18.008162 48.228184 -6.802253
-18.558895 48.201931 -6.097584
-18.376982 48.213009 -6.331777
-18.517090 48.202316 -6.148907
-18.059544 48.212399 -6.718489
-17.662123 48.225819 -7.150749
-18.269279 48.212257 -6.514961
-18.248337 48.207085 -6.446755
-17.742184 48.227131 -7.046125
-18.494827 48.211533 -6.239554
-18.306215 48.212727 -6.384543
-17.976135 48.227142 -6.821458
-18.675631 48.206272 -6.014013
-18.238094 48.203087 -6.408014
-17.695148 48.228840 -7.085589
-18.200893 48.208920 -6.524437
-18.055887 48.220882 -6.654400
-17.596821 48.227276 -7.167338
-17.533981 48.228786 -7.224893
-17.754650 48.231636 -7.059358
-17.954985 48.233822 -6.846927
-17.647985 48.225613 -7.122115
-18.615545 48.212719 -5.984582
-17.760788 48.233391 -7.022449
-18.246744 48.215355 -6.434255
-17.955881 48.228050 -6.748424
-18.549175 48.215672 -6.069146
-17.766333 48.237076 -6.989138
-18.412508 48.209209 -6.256485
-17.769815 48.232647 -6.962059
-17.846306 48.232403 -6.884372
-17.823475 48.228596 -6.932986
-17.800150 48.230679 -6.986702
-17.601276 48.233727 -7.144030
-17.863947 48.227386 -6.830736
-18.176126 48.210514 -6.467807
-18.048515 48.219463 -6.588055
-17.971090 48.220070 -6.737944
-18.472622 48.214962 -6.143983
-18.402954 48.205845 -6.189439
-17.594538 48.226444 -7.159606
-17.922302 48.235256 -6.757954
-18.274477 48.214947 -6.303346
-18.461102 48.211487 -6.083353
-18.417059 48.209980 -6.131154
-17.595881 48.235832 -7.097529
-18.624647 48.215717 -5.978048
-17.969410 48.219555 -6.672886
-18.157230 48.214874 -6.418165
-18.168030 48.220394 -6.476739
-17.669472 48.233280 -6.990856
-18.215073 48.220551 -6.354540
-18.386795 48.219501 -6.212816
-18.154205 48.213692 -6.383548
-17.891636 48.235264 -6.774318
-18.565742 48.214027 -5.997927
-17.628201 48.239883 -7.031703
-17.537529 48.232643 -7.138594
-17.970072 48.225899 -6.612880
-17.534737 48.236309 -7.111157
-18.101742 48.214024 -6.486798
-18.529108 48.223106 -5.971490
-18.452698 48.223278 -6.052006
-17.870756 48.233074 -6.706182
-17.871878 48.242958 -6.798361
-17.679827 48.241856 -7.002118
-17.414961 48.229164 -7.186263
-17.693699 48.238731 -6.911830
-17.687469 48.242500 -6.969389
-17.578766 48.234798 -7.063293
-17.687269 48.242294 -6.934721
-18.314405 48.217026 -6.230905
-17.768049 48.238529 -6.833490
-18.159126 48.226181 -6.402110
-17.742271 48.233856 -6.877915
-17.791500 48.234314 -6.785382
-17.532738 48.239891 -7.085829
-17.475483 48.239372 -7.141778
-17.710951 48.234211 -6.924017
-17.968510 48.225281 -6.552063
-18.085627 48.217381 -6.435647
-18.306410 48.213516 -6.169476
-18.371786 48.221718 -6.122694
-18.197674 48.224438 -6.280087
-17.886644 48.229156 -6.692242
-17.421345 48.243233 -7.178651
-17.524525 48.235718 -7.097272
-17.839245 48.240303 -6.713538
-18.368988 48.219948 -6.070368
-17.528122 48.240913 -7.042820
-18.321983 48.216572 -6.113957
-18.075380 48.223507 -6.391483
-18.521154 48.224380 -5.962528
-17.484734 48.242241 -7.140908
-17.417463 48.236515 -7.167987
-17.604691 48.241226 -6.940381
-18.076048 48.227345 -6.441791
-18.128229 48.227268 -6.327234
-18.073116 48.222271 -6.358968
-17.813574 48.242233 -6.730527
-18.470745 48.223587 -5.982210
-18.283016 48.225395 -6.187341
-17.560459 48.245964 -6.977017
-17.470459 48.241394 -7.054238
-17.475449 48.241680 -7.082418
-17.888588 48.231800 -6.574103
-18.021902 48.223743 -6.455139
-18.438362 48.228558 -5.958399
-17.410463 48.243874 -7.111746
-18.355494 48.227890 -6.035527
-17.797852 48.240807 -6.670057
-17.611750 48.244431 -6.882266
-17.692650 48.241570 -6.785296
-17.718323 48.238247 -6.740688
-17.787979 48.247131 -6.748997
-18.220589 48.222736 -6.207999
-17.510939 48.239944 -7.005759
-18.470646 48.217464 -5.899289
-17.610481 48.245716 -6.914168
-17.605658 48.247063 -6.945456
-18.071476 48.231987 -6.371269
-17.470028 48.247864 -7.033183
-17.904266 48.235779 -6.521437
-17.414738 48.245434 -7.084085
-17.631824 48.237473 -6.868145
-18.002954 48.224110 -6.405407
-18.117264 48.230000 -6.256127
-18.211912 48.217194 -6.148664
-18.275202 48.226402 -6.102666
-18.268263 48.221558 -6.056036
-17.767719 48.248051 -6.675966
-17.817982 48.241898 -6.653296
-18.236855 48.224018 -6.097943
-17.466932 48.248772 -6.994378
-17.460985 48.243809 -7.039699
-17.994904 48.229134 -6.364699
-17.544983 48.249004 -6.894726
-18.421877 48.230999 -5.946857
-17.416702 48.245556 -7.076266
-17.820673 48.238182 -6.595125
-18.060627 48.238663 -6.303081
-17.996275 48.228771 -6.335649
-17.994061 48.236111 -6.409461
-17.736919 48.246162 -6.688047
-18.381409 48.231052 -5.967718
-18.348299 48.230991 -5.945932
-17.414923 48.249187 -7.005649
-17.496292 48.250961 -6.924340
-17.826448 48.242290 -6.542718
-18.187740 48.230160 -6.163039
-17.414776 48.247681 -7.027553
-17.953472 48.235260 -6.426060
-17.351950 48.248798 -7.058924
-17.312874 48.248611 -7.133515
-18.276014 48.235268 -6.019366
-17.732809 48.248371 -6.637267
-17.664608 48.249695 -6.706281
-18.389923 48.226727 -5.888861
-17.633837 48.251194 -6.746028
-17.711239 48.250130 -6.703670
-17.544283 48.250660 -6.865079
-18.133152 48.228355 -6.185639
-17.839983 48.243286 -6.490746
-17.324326 48.247189 -7.057486
-17.992393 48.238632 -6.343060
-17.537252 48.252113 -6.892890
-17.453295 48.249779 -6.956566
-17.301836 48.250542 -7.142344
-17.410875 48.253750 -6.982522
-17.356878 48.250401 -7.029125
-18.048262 48.237362 -6.234747
-17.930300 48.231625 -6.379176
-18.134502 48.224594 -6.130331
-18.192089 48.232906 -6.083044
-18.190323 48.229824 -6.044103
-17.303350 48.251308 -7.063793
-17.700441 48.253723 -6.639654
-18.152409 48.228447 -6.082553
-17.404911 48.251701 -6.943722
-17.735598 48.242935 -6.609484
-17.919430 48.234657 -6.339910
-17.483030 48.251873 -6.846895
-17.401808 48.252758 -6.986283
-17.987253 48.244179 -6.277528
-18.317589 48.231682 -5.931890
-17.360323 48.252472 -7.022730
-17.752735 48.245846 -6.559584
-17.303820 48.249500 -7.054549
-17.922989 48.235222 -6.312947
-18.268900 48.236282 -5.933967
-18.295597 48.236465 -5.953798
-17.672499 48.253799 -6.651709
-17.919903 48.244740 -6.379052
-17.360756 48.253971 -6.956957
-17.438646 48.255741 -6.877859
-17.758503 48.246929 -6.508521
-18.106697 48.236687 -6.141245
-17.872835 48.236996 -6.394951
-17.304342 48.258385 -7.015129
-17.358469 48.254536 -6.976844
-18.192982 48.239681 -6.003940
-17.669186 48.255920 -6.604444
-17.601456 48.252388 -6.666965
-17.496254 48.253155 -6.782208
-17.260254 48.253506 -7.035265
-18.317713 48.237888 -5.878262
-17.774244 48.247818 -6.460026
-17.574261 48.257854 -6.706007
-17.490366 48.258881 -6.797355
-18.068485 48.239628 -6.165655
-17.278856 48.256733 -7.014342
-17.487528 48.259312 -6.823619
-17.650364 48.259735 -6.666580
-17.918262 48.244202 -6.315410
-17.988495 48.246593 -6.213882
-17.480425 48.260834 -6.848604
-17.359015 48.262390 -6.938815
-17.396334 48.256596 -6.907996
-17.308496 48.259045 -6.983206
-17.864021 48.239052 -6.353488
-18.072060 48.236759 -6.113848
-18.114458 48.236084 -6.031366
-18.119661 48.241234 -6.065314
-18.082878 48.236675 -6.067576
-17.633862 48.257381 -6.603988
-17.256399 48.260937 -7.017863
-17.354568 48.260231 -6.904218
-17.856066 48.242985 -6.316999
-17.431969 48.258396 -6.808067
-17.224310 48.258953 -7.035633
-17.671934 48.252548 -6.573883
-17.915318 48.248650 -6.253334
-17.850370 48.237656 -6.290845
-17.344765 48.258644 -6.934865
-17.683315 48.248539 -6.523968
-18.198721 48.242443 -5.922495
-18.237463 48.239025 -5.917872
-17.253151 48.255291 -7.003673
-17.308321 48.261246 -6.973373
-18.204769 48.237968 -5.939215
-17.308765 48.258686 -6.910333
-17.612356 48.261356 -6.616676
-17.698448 48.253395 -6.477702
-17.386051 48.261383 -6.834808
-17.850008 48.252293 -6.349926
-18.271866 48.233597 -5.829120
-17.247950 48.259254 -6.964285
-17.811518 48.246376 -6.368476
-18.113474 48.242046 -5.989085
-17.604061 48.257500 -6.571522
-17.304358 48.260292 -6.929594
-18.039898 48.248009 -6.120613
-17.544781 48.256924 -6.631065
-17.448944 48.263485 -6.749741
-17.210016 48.260303 -7.027560
-17.213280 48.259109 -6.990656
-17.720701 48.256088 -6.434032
-18.231955 48.239220 -5.868495
-17.518291 48.263397 -6.669405
-17.440132 48.267315 -6.762090
-17.992367 48.243092 -6.144374
-17.227455 48.259525 -6.964123
-17.917324 48.248981 -6.193157
-17.433622 48.266907 -6.783478
-17.588020 48.265373 -6.629438
-17.309263 48.268997 -6.895715
-17.850561 48.250652 -6.289740
-17.254944 48.260880 -6.932312
-17.800610 48.246414 -6.329144
-17.343721 48.263268 -6.863557
-17.422834 48.266582 -6.803564
-17.490967 48.263924 -6.705509
-17.193745 48.258514 -7.027242
-17.995308 48.239155 -6.096096
-18.042131 48.241295 -6.019225
-18.016886 48.243851 -6.053194
-18.038656 48.242683 -6.047649
-17.301193 48.261906 -6.860388
-17.583847 48.268654 -6.575856
-17.202833 48.261772 -6.966948
-17.161266 48.258526 -7.001913
-17.383030 48.263885 -6.769871
-17.794123 48.249268 -6.295422
-17.452942 48.263668 -6.738335
-17.173565 48.261784 -6.983278
-18.131353 48.247574 -5.910928
-17.853373 48.254932 -6.231755
-17.791321 48.245869 -6.270654
-17.102869 48.251720 -7.070491
-17.609627 48.258156 -6.538155
-17.635468 48.261768 -6.496533
-17.289162 48.261456 -6.886171
-18.175781 48.251144 -5.903491
-17.204660 48.261013 -6.954864
-17.262569 48.263206 -6.869215
-18.140253 48.247093 -5.926253
-17.251120 48.261211 -6.918994
-17.645599 48.261673 -6.450987
-17.551468 48.264919 -6.582280
-17.332691 48.264057 -6.791003
-18.210978 48.245625 -5.818253
-17.200996 48.263832 -6.921069
-18.046728 48.247250 -5.973969
-17.774376 48.253929 -6.320816
-17.554052 48.266743 -6.544758
-17.498941 48.266182 -6.601365
-17.745892 48.250824 -6.342002
-17.664965 48.260414 -6.407299
-17.395826 48.267967 -6.714460
-17.255970 48.265919 -6.885024
-18.156134 48.243427 -5.858541
-17.166241 48.262753 -6.944591
-17.964521 48.252449 -6.100047
-17.159258 48.262142 -6.975183
-17.857523 48.253197 -6.173596
-17.468079 48.270805 -6.635532
-17.379683 48.266052 -6.719791
-17.128462 48.266701 -7.012177
-17.184858 48.266979 -6.923692
-18.181309 48.241570 -5.794167
-17.921265 48.247448 -6.125111
-17.376043 48.268604 -6.741175
-17.528509 48.268951 -6.593593
-17.257318 48.271656 -6.851876
-17.214548 48.270260 -6.893991
-17.787121 48.256023 -6.265352
-17.741461 48.252701 -6.306082
-17.288094 48.262058 -6.816184
-17.439257 48.270416 -6.668824
-17.370314 48.272167 -6.763343
-17.927101 48.243412 -6.079584
-17.971931 48.245464 -6.007714
-17.146618 48.263256 -6.976963
-17.946598 48.247086 -6.038835
-17.250767 48.264450 -6.820751
-17.527321 48.273064 -6.545613
-17.984695 48.254753 -6.030951
-17.727837 48.250648 -6.272430
-17.334082 48.268379 -6.731655
-17.163143 48.272160 -6.927927
-18.071793 48.253597 -5.899890
-17.394655 48.266392 -6.695367
-17.790649 48.257252 -6.209400
-17.139679 48.275002 -6.948418
-17.735859 48.253994 -6.252492
-17.117929 48.267429 -6.985600
-17.569593 48.261383 -6.462882
-17.552387 48.265625 -6.505881
-17.219305 48.269627 -6.830900
-17.160500 48.265591 -6.910163
-17.242241 48.268036 -6.843003
-18.065023 48.249378 -5.912706
-18.097017 48.254486 -5.889354
-17.593426 48.268970 -6.423528
-17.493427 48.267418 -6.549202
-17.286619 48.269485 -6.754151
-17.207779 48.269726 -6.876487
-18.139397 48.249783 -5.808191
-17.987114 48.254337 -5.960131
-17.495380 48.268173 -6.515210
-17.159885 48.271210 -6.883430
-17.442234 48.265701 -6.566768
-17.614258 48.266628 -6.382605
-17.341202 48.268505 -6.677714
-17.689548 48.258106 -6.317478
-17.713745 48.260300 -6.294968
-18.079582 48.244637 -5.849248
-17.797022 48.256409 -6.154742
-17.217815 48.277191 -6.850229
-17.128315 48.278255 -6.943147
-17.340303 48.278183 -6.692120
-17.414194 48.272320 -6.599496
-17.895523 48.256798 -6.080024
-18.115480 48.247593 -5.786829
-17.141478 48.270473 -6.882482
-17.859364 48.251678 -6.106315
-17.090826 48.276115 -6.970960
-17.219219 48.281868 -6.819884
-17.340948 48.283676 -6.713462
-17.166040 48.269936 -6.847873
-17.686602 48.259903 -6.284348
-17.727959 48.261314 -6.242270
-17.475458 48.275402 -6.559774
-17.873137 48.252457 -6.064233
-17.252880 48.276230 -6.784210
-17.908812 48.250549 -5.996045
-17.884857 48.252190 -6.025716
-17.318457 48.275768 -6.722355
-17.219997 48.280403 -6.795779
-17.464970 48.270630 -6.512533
-17.104628 48.269791 -6.932962
-17.290890 48.272709 -6.697531
-17.917906 48.258999 -6.014405
-18.005802 48.255722 -5.888224
-17.678747 48.260715 -6.253445
-17.119715 48.274689 -6.885283
-17.083141 48.273361 -6.920872
-17.738667 48.265388 -6.189028
-17.678217 48.259174 -6.233614
-17.343609 48.270901 -6.657917
-17.092550 48.274689 -6.900853
-17.187696 48.282677 -6.802344
-17.075890 48.272999 -6.940165
-17.516634 48.266743 -6.433279
-17.529701 48.264492 -6.393264
-18.001883 48.255501 -5.899646
-17.491459 48.266201 -6.471421
-18.023928 48.256737 -5.876461
-17.128130 48.280727 -6.878142
-17.195328 48.272591 -6.801205
-17.252874 48.282578 -6.724944
-17.931038 48.260368 -5.946886
-17.442572 48.272766 -6.518839
-17.404997 48.275764 -6.541113
-17.129002 48.284237 -6.855563
-17.553461 48.264046 -6.355138
-18.077015 48.255844 -5.797230
-18.113607 48.253109 -5.764375
-17.165911 48.277164 -6.836750
-17.464108 48.286991 -6.496681
-17.308352 48.283440 -6.654893
-17.742174 48.259556 -6.135742
-17.635315 48.263355 -6.293562
-18.020765 48.251640 -5.838925
-17.087505 48.275490 -6.868470
-17.170134 48.278774 -6.807673
-17.361729 48.271793 -6.564792
-17.655241 48.265633 -6.269751
-17.291384 48.279625 -6.656664
-18.048923 48.250614 -5.780151
-17.041277 48.276482 -6.939037
-17.112764 48.285454 -6.855314
-17.081875 48.277954 -6.894857
-17.803200 48.258804 -6.088858
-17.836498 48.263992 -6.061227
-17.166399 48.276604 -6.773763
-17.047279 48.277744 -6.924057
-17.286228 48.282291 -6.673847
-17.628122 48.262177 -6.261889
-17.138821 48.287861 -6.822152
-17.849934 48.255589 -5.984267
-17.812723 48.256611 -6.048231
-17.673779 48.267529 -6.219790
-17.436871 48.289474 -6.534251
-17.825205 48.256283 -6.011815
-17.203083 48.276825 -6.742394
-17.333607 48.274441 -6.596019
-17.165787 48.274132 -6.751084
-17.283316 48.289875 -6.693210
-17.951208 48.261673 -5.877769
-17.424219 48.280720 -6.487679
-17.262999 48.289600 -6.673922
-17.855328 48.261196 -5.997705
-17.628185 48.266808 -6.234406
-17.074362 48.284920 -6.900182
-17.090279 48.289696 -6.857429
-17.690256 48.272438 -6.170662
-17.624098 48.262299 -6.215306
-17.064476 48.288712 -6.871525
-17.307779 48.285007 -6.629497
-17.138493 48.279324 -6.758298
-17.939423 48.258602 -5.887207
-17.488972 48.273552 -6.369799
-17.465820 48.270035 -6.405696
-17.047827 48.290051 -6.909497
-17.369209 48.285778 -6.516836
-17.507002 48.268185 -6.331705
-17.083160 48.279346 -6.832619
-17.000069 48.286736 -6.950993
-17.204531 48.281097 -6.685871
-17.411182 48.288654 -6.497416
-17.874226 48.265430 -5.932934
-17.964302 48.262833 -5.862604
-17.079733 48.278915 -6.810058
-17.695919 48.265533 -6.119416
-17.400309 48.279552 -6.464939
-17.439917 48.271545 -6.441786
-18.013916 48.259907 -5.786952
-18.053349 48.258133 -5.754045
-17.161516 48.285751 -6.769177
-17.256599 48.281895 -6.620858
-17.130606 48.287380 -6.803276
-17.961216 48.255642 -5.829262
-17.578199 48.264648 -6.269631
-17.995844 48.258484 -5.772532
-17.331705 48.286697 -6.541898
-17.128242 48.282196 -6.769258
-17.251966 48.288765 -6.628929
-17.064184 48.280144 -6.809085
-17.596693 48.267975 -6.244468
-17.744825 48.260986 -6.070636
-17.046473 48.286236 -6.858513
-17.129723 48.284779 -6.743106
-17.011774 48.284096 -6.884840
-17.089485 48.280579 -6.775187
-17.773163 48.266254 -6.042430
-17.574623 48.265373 -6.240031
-17.759428 48.261646 -6.033482
-17.240942 48.286640 -6.640492
-17.794622 48.261566 -5.973130
-17.769089 48.259323 -5.998506
-17.899412 48.265598 -5.867195
-17.621706 48.271709 -6.197918
-17.375805 48.283100 -6.498220
-18.035391 48.260662 -5.741134
-17.134289 48.287090 -6.726773
-17.160538 48.280209 -6.706116
-17.296305 48.284573 -6.567544
-17.207399 48.280289 -6.632022
-17.387812 48.292694 -6.465590
-17.228516 48.285534 -6.652116
-17.568272 48.265076 -6.213307
-17.798483 48.266293 -5.982343
-17.043114 48.284367 -6.811163
-17.637501 48.274582 -6.150882
-17.027122 48.281689 -6.849726
-17.006386 48.282173 -6.841080
-17.567816 48.263474 -6.196303
-17.018740 48.284367 -6.825247
-17.107567 48.289356 -6.730366
-16.956593 48.281219 -6.910993
-17.887587 48.264587 -5.873855
-17.451118 48.283550 -6.347699
-17.477066 48.281998 -6.313025
-17.253786 48.283604 -6.590575
-17.827368 48.272335 -5.920183
-17.313143 48.279293 -6.482796
-17.651081 48.271496 -6.103056
-17.426537 48.281078 -6.382245
-16.999716 48.281918 -6.855410
-17.048086 48.288979 -6.781440
-17.165636 48.286354 -6.653080
-17.354509 48.285126 -6.465585
-17.366089 48.292450 -6.444938
-17.049255 48.288551 -6.799089
-16.956329 48.282478 -6.899715
-17.956486 48.264904 -5.776551
-17.997345 48.264107 -5.743629
-17.901812 48.265972 -5.848756
-17.221508 48.291920 -6.595862
-17.910896 48.263542 -5.818746
-17.406345 48.286514 -6.418280
-17.087860 48.286900 -6.761254
-17.111578 48.281429 -6.724423
-17.979033 48.261890 -5.720706
-17.013098 48.284069 -6.797807
-17.942753 48.265358 -5.764894
-17.533978 48.272713 -6.248357
-17.090761 48.287434 -6.736432
-17.276344 48.281223 -6.507158
-17.206673 48.290089 -6.596920
-17.033176 48.289246 -6.778306
-17.697176 48.267982 -6.054374
-17.008806 48.288609 -6.819966
-17.553915 48.278019 -6.223204
-17.846191 48.268539 -5.856639
-17.092981 48.290989 -6.710992
-17.708220 48.265675 -6.017950
-17.739269 48.264553 -5.961925
-17.526138 48.269466 -6.220189
-17.057066 48.289700 -6.744446
-16.974024 48.285534 -6.843445
-17.725090 48.268196 -5.985730
-17.200655 48.290882 -6.609129
-17.719799 48.271358 -6.024858
-17.568213 48.272884 -6.177429
-17.340036 48.294117 -6.473972
-17.978685 48.265633 -5.731421
-17.094679 48.290340 -6.694664
-17.177299 48.292233 -6.607651
-17.334051 48.290066 -6.436534
-17.249599 48.285915 -6.535572
-17.125980 48.289371 -6.674724
-17.537025 48.280842 -6.197537
-17.194042 48.295631 -6.623571
-17.750130 48.272285 -5.966783
-17.584028 48.274723 -6.131783
-17.015099 48.297333 -6.784644
-17.545914 48.284035 -6.183940
-16.996836 48.292797 -6.818272
-16.989885 48.294430 -6.795144
-17.067841 48.289680 -6.695360
-17.422691 48.277271 -6.288884
-17.280930 48.288223 -6.460527
-17.604786 48.274483 -6.086667
-17.830769 48.266628 -5.861250
-17.403173 48.284752 -6.322826
-17.774078 48.275349 -5.906803
-17.217197 48.292713 -6.562770
-17.376390 48.280357 -6.355262
-17.134008 48.295387 -6.625852
-17.306538 48.282940 -6.414456
-17.011269 48.292229 -6.747845
-17.316595 48.293163 -6.442030
-17.179146 48.293114 -6.568018
-17.940611 48.267082 -5.733871
-17.901869 48.268867 -5.766056
-16.970860 48.294010 -6.823943
-17.011627 48.290894 -6.761957
-17.857691 48.267490 -5.808213
-17.925964 48.267735 -5.714458
-17.851408 48.272942 -5.835393
-16.922916 48.287830 -6.859718
-17.887505 48.268250 -5.757927
-17.353289 48.284897 -6.388524
-17.484001 48.273861 -6.227071
-17.051052 48.293179 -6.726318
-17.079189 48.292549 -6.693730
-16.997755 48.291481 -6.744650
-17.247707 48.294121 -6.484186
-17.167856 48.293255 -6.568323
-17.050293 48.288811 -6.699351
-17.656622 48.276894 -6.037975
-17.800804 48.274372 -5.846656
-16.974825 48.294853 -6.784956
-17.657036 48.268677 -6.003810
-17.687483 48.268482 -5.951360
-17.052568 48.291306 -6.676714
-17.671825 48.270176 -5.973743
-17.490545 48.280327 -6.203003
-17.021660 48.292934 -6.710814
-17.521137 48.292904 -6.203212
-16.942919 48.292709 -6.809797
-17.159668 48.294125 -6.578471
-17.138401 48.292435 -6.577571
-17.055763 48.291573 -6.663197
-17.525425 48.279903 -6.157511
-17.672104 48.277393 -6.007164
-17.287590 48.289543 -6.442008
-17.921917 48.268646 -5.720253
-17.298326 48.299026 -6.415068
-17.479933 48.276054 -6.177712
-17.084087 48.287743 -6.639022
-17.207907 48.288151 -6.505614
-17.151543 48.296959 -6.590077
-17.546267 48.283630 -6.113899
-16.977476 48.297649 -6.748880
-17.689671 48.270428 -5.952063
-17.481714 48.276340 -6.164232
-16.961275 48.295162 -6.778967
-16.956648 48.299622 -6.762213
-17.397770 48.291981 -6.272221
-17.560629 48.277428 -6.070931
-17.033192 48.292858 -6.663831
-17.239275 48.288399 -6.433350
-17.783897 48.272541 -5.848482
-17.368155 48.292690 -6.302024
-17.725769 48.279282 -5.894027
-17.275871 48.293755 -6.396440
-16.976604 48.294407 -6.716294
-17.093615 48.294674 -6.592965
-17.139626 48.295277 -6.540129
-17.854345 48.274742 -5.755426
-17.272871 48.295345 -6.415663
-17.804493 48.269409 -5.799053
-17.171101 48.291107 -6.528596
-17.896645 48.275928 -5.722511
-17.345701 48.294235 -6.334492
-17.872213 48.271549 -5.710309
-16.976120 48.292198 -6.725457
-16.935265 48.294380 -6.784594
-17.832930 48.270157 -5.750217
-16.892483 48.294018 -6.825326
-17.803829 48.279884 -5.821963
-17.460552 48.292545 -6.210468
-17.203148 48.291367 -6.455602
-17.012703 48.293522 -6.689869
-17.751810 48.276272 -5.835972
-17.316080 48.293941 -6.364274
-16.963797 48.294666 -6.712400
-17.128353 48.296417 -6.540459
-17.038706 48.292934 -6.656632
-17.596771 48.272079 -6.021053
-17.014906 48.291019 -6.667114
-17.020897 48.297348 -6.649423
-17.605822 48.269688 -5.989630
-17.639210 48.272388 -5.940002
-17.627785 48.276058 -5.960907
-17.443430 48.281410 -6.183063
-16.938580 48.295185 -6.747747
-17.101654 48.293598 -6.548172
-16.985498 48.294201 -6.676455
-17.021923 48.295662 -6.635209
-16.908100 48.294022 -6.772575
-17.121540 48.297298 -6.549157
-17.453924 48.282387 -6.177863
-17.489092 48.289795 -6.139621
-17.255407 48.300476 -6.419796
-17.258974 48.303059 -6.392878
-17.876509 48.275513 -5.708886
-17.612284 48.274582 -5.990290
-17.451532 48.290760 -6.163268
-17.050966 48.293839 -6.610356
-17.170551 48.292271 -6.478424
-17.501337 48.285641 -6.096046
-16.944206 48.300846 -6.715908
-17.649137 48.278313 -5.937062
-17.451199 48.290062 -6.150528
-17.112640 48.299194 -6.558641
-17.520037 48.281319 -6.055837
-17.343336 48.283264 -6.247997
-16.997070 48.292065 -6.632249
-17.205605 48.294357 -6.411057
-16.920372 48.297955 -6.724959
-16.926456 48.296478 -6.741747
-17.678154 48.281200 -5.881897
-17.323765 48.291809 -6.279140
-17.742712 48.280388 -5.835617
-17.234373 48.296833 -6.373578
-17.852324 48.274601 -5.676251
-17.101538 48.296391 -6.513594
-16.942684 48.297565 -6.685460
-17.060514 48.299740 -6.565689
-17.757683 48.274265 -5.789093
-17.841282 48.275898 -5.712656
-17.809664 48.281586 -5.744750
-17.814873 48.272430 -5.705481
-17.299814 48.292439 -6.308795
-17.229118 48.295536 -6.389254
-17.785465 48.274975 -5.742395
-17.135881 48.297215 -6.500692
-16.942852 48.295395 -6.692484
-17.703510 48.276150 -5.825933
-16.903391 48.298592 -6.750195
-17.401917 48.283855 -6.187768
-17.749826 48.280903 -5.809271
-17.167965 48.295414 -6.430475
-16.864204 48.301163 -6.791613
-16.932011 48.297783 -6.682215
-17.091694 48.298515 -6.513911
-17.556934 48.277946 -6.006694
-16.978764 48.297710 -6.657646
-17.270931 48.295151 -6.337925
-17.004799 48.297092 -6.625821
-16.983217 48.298096 -6.638437
-17.563869 48.274563 -5.976011
-17.586678 48.272324 -5.930079
-17.577318 48.276016 -5.948808
-16.983366 48.296574 -6.617880
-17.402786 48.286366 -6.165171
-16.906708 48.297367 -6.714714
-16.985874 48.294804 -6.606453
-16.954437 48.297291 -6.646956
-17.071482 48.300560 -6.523694
-17.083405 48.297451 -6.521187
-16.878399 48.298157 -6.740241
-17.395861 48.283936 -6.144780
-17.440538 48.288906 -6.119674
-17.215244 48.302219 -6.367859
-17.424734 48.297188 -6.159907
-17.827545 48.279419 -5.698252
-17.214527 48.303631 -6.393384
-17.471430 48.296406 -6.080132
-17.570982 48.281528 -5.973168
-17.014879 48.295044 -6.578824
-17.134615 48.296375 -6.451200
-17.392672 48.281273 -6.132069
-16.910204 48.301041 -6.683590
-17.599340 48.279312 -5.922849
-17.493004 48.293015 -6.041284
-17.076651 48.302334 -6.529981
-17.316959 48.295002 -6.231310
-16.965305 48.294151 -6.603453
-17.170427 48.296375 -6.387296
-16.889950 48.300091 -6.693302
-17.631954 48.283104 -5.869732
-17.692966 48.280323 -5.824204
-17.284386 48.293850 -6.256903
-16.891663 48.296764 -6.705917
-17.817612 48.284286 -5.666797
-17.196442 48.298820 -6.352718
-17.066380 48.299408 -6.489860
-16.910231 48.299644 -6.657391
-17.025909 48.300865 -6.536944
-17.768892 48.277168 -5.700450
-17.715815 48.280079 -5.778322
-17.743668 48.280724 -5.734449
-17.795143 48.279770 -5.701949
-17.672312 48.285809 -5.815681
-17.759985 48.283489 -5.734797
-17.194748 48.300491 -6.367665
-17.259697 48.293507 -6.285849
-16.912497 48.299496 -6.662288
-17.095575 48.297447 -6.470662
-17.130589 48.295509 -6.404606
-16.874393 48.303738 -6.717161
-17.367661 48.291744 -6.169074
-16.902414 48.301826 -6.654119
-17.701506 48.283848 -5.796480
-17.059391 48.303493 -6.490150
-17.515623 48.281868 -5.990916
-16.834417 48.304367 -6.756432
-17.536886 48.287228 -5.962895
-16.946943 48.300861 -6.626050
-16.947773 48.296318 -6.606110
-17.546808 48.287712 -5.936469
-17.544798 48.277138 -5.919288
-16.952375 48.299603 -6.591210
-17.234390 48.300186 -6.314275
-16.970863 48.299259 -6.594964
-17.364956 48.290291 -6.147182
-17.036207 48.300648 -6.497064
-16.957102 48.300755 -6.581918
-16.877781 48.302448 -6.684505
-16.924856 48.302334 -6.618885
-17.180153 48.305172 -6.346949
-17.052511 48.304443 -6.496025
-17.361660 48.290764 -6.128888
-16.851639 48.305195 -6.710731
-17.401999 48.293858 -6.101022
-17.782837 48.284271 -5.687532
-17.420061 48.291496 -6.062994
-17.180122 48.308620 -6.370385
-17.373964 48.293381 -6.137830
-17.438784 48.284115 -6.025537
-17.363543 48.292984 -6.118284
-16.983130 48.298134 -6.550054
-17.102312 48.301357 -6.427438
-17.526108 48.284515 -5.956755
-16.878391 48.302166 -6.653361
-17.562330 48.285145 -5.908417
-17.281904 48.297924 -6.211811
-17.141033 48.302254 -6.366308
-17.042786 48.304436 -6.501949
-16.937962 48.301083 -6.578905
-16.863983 48.307034 -6.667304
-17.597834 48.290867 -5.856686
-17.646078 48.282223 -5.812766
-17.249348 48.297771 -6.237430
-17.770103 48.286114 -5.658908
-17.167921 48.309605 -6.335364
-16.880655 48.302658 -6.630685
-17.631124 48.288601 -5.805529
-16.867138 48.307724 -6.678567
-17.033377 48.303383 -6.466803
-17.668259 48.280941 -5.768998
-17.728577 48.284866 -5.693929
-16.997137 48.306816 -6.512409
-17.694735 48.281570 -5.726576
-17.754688 48.285568 -5.691141
-17.713820 48.285366 -5.724045
-17.158213 48.303501 -6.345383
-17.221748 48.296532 -6.263603
-17.104807 48.305325 -6.384328
-17.329815 48.294674 -6.151064
-16.882868 48.303574 -6.632782
-16.873528 48.304848 -6.626689
-17.491447 48.295528 -5.976338
-17.028503 48.308460 -6.466355
-16.845419 48.307854 -6.685518
-17.061039 48.300541 -6.443380
-17.665264 48.292656 -5.782807
-17.489199 48.286190 -5.949289
-17.494169 48.282692 -5.925019
-16.806131 48.308495 -6.724064
-17.505745 48.281921 -5.908424
-16.916609 48.303936 -6.597245
-16.920431 48.303249 -6.581563
-17.323551 48.290253 -6.129902
-17.008883 48.306549 -6.473904
-16.925789 48.308510 -6.567399
-16.927645 48.306702 -6.558111
-16.939083 48.302383 -6.564785
-16.895231 48.304382 -6.590744
-17.189924 48.298382 -6.288550
-16.847399 48.304554 -6.654265
-17.149401 48.312038 -6.327437
-17.018702 48.305485 -6.470796
-17.327444 48.296597 -6.112975
-17.421751 48.300652 -6.012257
-16.823374 48.308289 -6.679752
-17.389389 48.299301 -6.046327
-17.364153 48.296787 -6.083012
-17.738102 48.287128 -5.676768
-17.145687 48.311619 -6.347341
-17.244701 48.297863 -6.193006
-17.325785 48.296848 -6.103124
-17.106588 48.302223 -6.344604
-16.854681 48.312000 -6.630913
-17.338972 48.300304 -6.118429
-16.956528 48.306042 -6.526218
-17.071423 48.306324 -6.403642
-17.486210 48.288422 -5.940943
-17.529621 48.294926 -5.893971
-16.909834 48.304047 -6.553575
-17.551628 48.289749 -5.845868
-17.012619 48.311405 -6.477477
-17.606974 48.286041 -5.800464
-17.212112 48.297745 -6.217213
-16.835064 48.310093 -6.638464
-17.730394 48.290859 -5.650179
-17.592075 48.291355 -5.796030
-17.127060 48.306675 -6.313053
-17.632042 48.286690 -5.758081
-16.853285 48.307594 -6.606093
-17.003971 48.308270 -6.445796
-17.685375 48.288609 -5.687391
-17.655766 48.287289 -5.718560
-16.966135 48.308853 -6.485719
-16.833010 48.303997 -6.643334
-17.705706 48.285454 -5.681833
-17.671238 48.289181 -5.713957
-17.128149 48.310375 -6.325147
-17.188089 48.300476 -6.242682
-16.774281 48.302563 -6.696495
-17.296238 48.299549 -6.132990
-17.071033 48.306335 -6.360512
-16.847586 48.310764 -6.602084
-16.853949 48.306633 -6.603942
-16.995455 48.309441 -6.443228
-17.437984 48.288609 -5.961330
-17.463617 48.297848 -5.936117
-16.811964 48.303139 -6.649537
-17.468603 48.295345 -5.911871
-17.032335 48.308464 -6.420309
-17.487368 48.300446 -5.896643
-17.616199 48.291611 -5.770652
-17.289324 48.295086 -6.113967
-16.977949 48.308521 -6.450038
-16.773315 48.302822 -6.685922
-16.895981 48.312115 -6.558403
-16.898451 48.313416 -6.544219
-16.898880 48.310627 -6.534945
-16.892897 48.315804 -6.573434
-16.869287 48.310303 -6.566138
-16.786821 48.305237 -6.660159
-16.913170 48.310303 -6.540226
-17.156954 48.302334 -6.266905
-17.112133 48.312046 -6.305812
-17.372511 48.292675 -5.997113
-17.287506 48.297508 -6.097097
-17.349419 48.298214 -6.030399
-16.990723 48.313381 -6.448413
-17.211805 48.299717 -6.175550
-17.328463 48.300678 -6.065679
-17.698322 48.291943 -5.665215
-17.116329 48.319500 -6.326406
-17.080072 48.309036 -6.324982
-17.282978 48.294800 -6.087250
-17.486172 48.293839 -5.880255
-17.298225 48.300312 -6.099014
-17.036188 48.306389 -6.378430
-16.884665 48.310909 -6.531093
-16.926970 48.310062 -6.499541
-17.517466 48.294521 -5.832755
-17.552996 48.292114 -5.786484
-17.462723 48.304131 -5.924279
-17.567150 48.287857 -5.788842
-17.686409 48.290634 -5.642859
-16.983095 48.315392 -6.452211
-17.181330 48.302620 -6.197655
-17.094147 48.309563 -6.294212
-17.608238 48.285095 -5.711995
-17.590155 48.288483 -5.748635
-16.973125 48.311176 -6.424781
-17.631533 48.285450 -5.683093
-16.938782 48.312767 -6.462515
-17.669476 48.290207 -5.670893
-17.627197 48.290020 -5.703837
-17.095150 48.312328 -6.303457
-17.155157 48.304394 -6.222453
-17.263388 48.304401 -6.115607
-17.043797 48.313179 -6.340205
-17.410927 48.298317 -5.946737
-16.966002 48.313366 -6.420788
-17.410162 48.288898 -5.922476
-17.422371 48.292233 -5.901010
-17.429768 48.290451 -5.887331
-16.952076 48.314381 -6.428258
-17.254343 48.297955 -6.097300
-17.569960 48.290531 -5.758424
-17.000713 48.312466 -6.395807
-16.867132 48.315113 -6.532391
-16.870394 48.318352 -6.520355
-16.869379 48.313583 -6.511070
-16.861765 48.313915 -6.543826
-17.346163 48.301361 -5.983185
-17.694075 48.290291 -5.610120
-17.253973 48.300323 -6.081804
-17.082815 48.317867 -6.287656
-17.183176 48.303516 -6.158030
-17.320921 48.305946 -6.015799
-16.961958 48.317310 -6.425248
-16.882877 48.313351 -6.512840
-17.126858 48.309246 -6.245261
-17.055021 48.316803 -6.306760
-17.655695 48.292767 -5.655058
-17.250235 48.299557 -6.074106
-17.082575 48.319485 -6.303981
-17.289902 48.301609 -6.048352
-17.492592 48.305157 -5.820247
-17.456997 48.302563 -5.866402
-17.517462 48.294846 -5.776188
-17.011068 48.314220 -6.357385
-16.899586 48.314007 -6.474927
-17.654497 48.298298 -5.633292
-17.533728 48.293610 -5.776442
-17.261765 48.303265 -6.079560
-17.152718 48.307419 -6.180161
-16.953592 48.318352 -6.428335
-17.412088 48.297180 -5.909199
-17.547535 48.287277 -5.739845
-17.572083 48.289783 -5.703885
-17.069901 48.320267 -6.278164
-17.600395 48.294056 -5.675651
-16.942955 48.313095 -6.403020
-16.912172 48.317654 -6.440025
-17.635363 48.295952 -5.659216
-17.594498 48.295746 -5.692123
-17.066504 48.317162 -6.284553
-17.012180 48.313118 -6.318432
-17.224060 48.302364 -6.097523
-17.125788 48.309254 -6.202860
-17.372421 48.298187 -5.932210
-16.940165 48.319195 -6.400422
-17.386734 48.301514 -5.909982
-17.397516 48.303871 -5.888530
-17.408506 48.305023 -5.875534
-16.924728 48.316265 -6.406421
-17.222925 48.301762 -6.081269
-17.314798 48.304104 -5.969954
-17.540785 48.299259 -5.744570
-16.971210 48.315426 -6.371932
-17.651518 48.291054 -5.602790
-17.152433 48.306332 -6.141253
-17.046919 48.314869 -6.265925
-17.283089 48.304825 -6.000525
-17.220457 48.304142 -6.066539
-16.927338 48.312393 -6.399195
-17.023392 48.315750 -6.284964
-17.218870 48.304333 -6.059514
-17.096767 48.314137 -6.224983
-17.616613 48.295567 -5.644150
-17.477667 48.293602 -5.767324
-17.257763 48.305443 -6.031635
-17.050253 48.320454 -6.281545
-17.449873 48.302021 -5.808587
-17.616882 48.300014 -5.625148
-17.409979 48.297520 -5.853396
-16.980175 48.316170 -6.334938
-17.502407 48.299351 -5.763280
-17.124796 48.312229 -6.161944
-17.534046 48.305794 -5.725814
-16.919676 48.314442 -6.401582
-17.229607 48.308132 -6.061456
-17.386427 48.307911 -5.893184
-17.535189 48.293503 -5.695065
-17.034779 48.318211 -6.258558
-17.555763 48.293797 -5.670476
-16.917170 48.319893 -6.384093
-17.588461 48.291809 -5.650469
-17.549042 48.293583 -5.683387
-17.035696 48.320045 -6.264954
-17.198339 48.309097 -6.081414
-16.987806 48.319901 -6.299466
-17.341776 48.302940 -5.918303
-17.097145 48.314095 -6.183958
-17.343264 48.296406 -5.897590
-17.351244 48.297768 -5.877603
-17.284847 48.306831 -5.956687
-17.357313 48.296936 -5.866810
-17.192938 48.306553 -6.065228
-17.126682 48.311069 -6.125097
-17.615332 48.293751 -5.594633
-17.502344 48.301102 -5.731504
-17.194084 48.310837 -6.052569
-17.253809 48.308594 -5.985146
-17.021906 48.322609 -6.249121
-16.936625 48.312511 -6.345930
-16.995392 48.317596 -6.265265
-17.462755 48.309113 -5.754674
-17.183210 48.305168 -6.044942
-17.429958 48.314613 -5.795293
-17.020857 48.323318 -6.261909
-17.578930 48.297348 -5.633183
-17.227037 48.309265 -6.014882
-17.573595 48.297771 -5.618475
-17.068108 48.320007 -6.204694
-17.466122 48.300117 -5.752253
-17.390045 48.311142 -5.838715
-17.096157 48.315041 -6.144407
-16.952124 48.319084 -6.312440
-17.482885 48.297680 -5.718502
-17.495447 48.293232 -5.687640
-17.008339 48.324970 -6.241769
-17.513233 48.293530 -5.664540
-17.343626 48.303844 -5.878679
-17.197418 48.311005 -6.043306
-17.562130 48.299473 -5.637929
-17.513494 48.295322 -5.673071
-17.009893 48.325848 -6.246002
-17.311842 48.306667 -5.905062
-16.961201 48.322765 -6.278343
-17.166170 48.310936 -6.064653
-17.316200 48.303097 -5.884344
-17.323526 48.304417 -5.866495
-17.254900 48.309563 -5.943423
-17.070654 48.319889 -6.165731
-17.326757 48.302624 -5.855756
-17.162956 48.309315 -6.050553
-17.105282 48.320713 -6.110364
-17.584805 48.299408 -5.584985
-17.463911 48.300915 -5.719805
-17.160524 48.311665 -6.037236
-17.224529 48.312363 -5.969769
-16.994713 48.327400 -6.231597
-17.422230 48.304871 -5.746468
-16.970282 48.321377 -6.246954
-17.156134 48.310860 -6.031677
-17.385132 48.308464 -5.785742
-17.541626 48.301449 -5.608819
-17.199186 48.314014 -5.999492
-17.546204 48.301086 -5.621426
-16.989967 48.323242 -6.240829
-17.447584 48.312725 -5.737509
-17.040140 48.323860 -6.185046
-17.463678 48.309250 -5.705872
-17.350121 48.308010 -5.825572
-17.066780 48.316879 -6.126160
-17.464220 48.297882 -5.678697
-16.978245 48.324802 -6.224201
-17.480629 48.298164 -5.657047
-17.525158 48.300236 -5.627628
-17.167383 48.314838 -6.025832
-17.315821 48.311596 -5.863360
-17.496399 48.309914 -5.658337
-16.981209 48.327694 -6.227033
-17.278299 48.306465 -5.891114
-17.141176 48.317650 -6.049237
-17.223494 48.309315 -5.930126
-17.283432 48.303833 -5.872521
-17.292906 48.308144 -5.853981
-17.043409 48.323719 -6.146771
-17.292629 48.304348 -5.845408
-17.075909 48.320522 -6.093482
-17.137962 48.316032 -6.035138
-17.547163 48.299129 -5.576798
-17.393776 48.308521 -5.736013
-17.195272 48.315105 -5.955782
-17.131285 48.315407 -6.023275
-17.443928 48.313580 -5.703689
-17.360203 48.315113 -5.773147
-17.511810 48.306087 -5.599837
-17.124779 48.313610 -6.018456
-16.964121 48.326054 -6.221807
-17.167728 48.314838 -5.983397
-17.554401 48.300552 -5.554718
-17.399908 48.302589 -5.729351
-17.513462 48.303829 -5.609648
-17.046055 48.325535 -6.110681
-17.420315 48.304050 -5.697720
-17.318745 48.309765 -5.812323
-17.447884 48.312416 -5.666065
-17.010008 48.325760 -6.164704
-17.450846 48.304802 -5.648117
-17.490305 48.299957 -5.617954
-17.455839 48.305714 -5.648720
-17.137335 48.317673 -6.008337
-17.284393 48.314423 -5.847312
-17.538628 48.304035 -5.543908
-17.200666 48.315956 -5.916771
-17.253338 48.313152 -5.877110
-17.109688 48.316475 -6.033094
-17.251354 48.304585 -5.859975
-17.262289 48.309841 -5.842834
-17.050165 48.323238 -6.078697
-17.014759 48.325535 -6.129215
-17.263489 48.310024 -5.834320
-17.360357 48.307190 -5.727692
-17.112267 48.321743 -6.020425
-17.515903 48.301788 -5.567807
-17.168854 48.318813 -5.941745
-17.098406 48.313217 -6.008561
-17.478422 48.306755 -5.591563
-17.401907 48.308434 -5.692675
-17.325306 48.313869 -5.762041
-17.100561 48.321270 -6.005168
-17.523142 48.303211 -5.545727
-16.661184 48.302582 -6.463456
-17.388474 48.320141 -5.713129
-17.479315 48.304558 -5.599274
-17.141996 48.320583 -5.967272
-16.662819 48.300980 -6.445689
-17.396124 48.311680 -5.685837
-17.016685 48.325352 -6.093802
-17.405281 48.307163 -5.660015
-17.285240 48.309540 -5.799791
-17.418953 48.308418 -5.641292
-17.463261 48.305626 -5.606098
-17.503881 48.303661 -5.538473
-17.441568 48.320274 -5.633914
-17.174269 48.318630 -5.904122
-17.226919 48.316860 -5.863072
-17.252970 48.315216 -5.832630
-17.085352 48.321205 -6.016909
-17.108700 48.320496 -5.990805
-17.231676 48.311539 -5.831688
-17.225002 48.310261 -5.847399
-17.021502 48.322025 -6.062481
-17.340435 48.316761 -5.715745
-17.482517 48.302460 -5.559534
-17.232187 48.311718 -5.823900
-17.079372 48.318558 -6.005687
-17.144554 48.323509 -5.926971
-17.075600 48.320862 -5.995235
-17.442904 48.305443 -5.584006
-17.303923 48.322498 -5.748697
-17.386177 48.322048 -5.676473
-17.066978 48.318081 -5.991157
-17.496820 48.308857 -5.534559
-17.347166 48.311939 -5.704144
-17.361984 48.310383 -5.676831
-17.447975 48.306290 -5.587438
-17.114843 48.323322 -5.952528
-17.385374 48.317738 -5.648092
-17.259562 48.314224 -5.786466
-17.381353 48.308117 -5.634525
-17.434742 48.307320 -5.594185
-17.470549 48.303268 -5.533001
-17.150726 48.323269 -5.891448
-17.396048 48.311100 -5.626433
-17.196224 48.315598 -5.850443
-17.197901 48.311932 -5.835453
-17.057446 48.321972 -6.001429
-17.203917 48.315205 -5.820517
-17.222975 48.316994 -5.817936
-17.306265 48.313465 -5.706692
-17.082956 48.325249 -5.974660
-17.452656 48.304108 -5.550484
-17.197330 48.310448 -5.814212
-17.118107 48.325226 -5.912889
-17.420111 48.312061 -5.572062
-17.261898 48.312294 -5.740392
-17.465534 48.309525 -5.525524
-17.346294 48.316864 -5.666112
-17.327898 48.321556 -5.690062
-17.343456 48.320972 -5.663459
-17.420885 48.308964 -5.575512
-17.348433 48.315449 -5.640553
-17.089066 48.326080 -5.936334
-17.236702 48.320908 -5.771702
-17.447824 48.309818 -5.523882
-17.349432 48.309742 -5.627656
-17.117855 48.317024 -5.879463
-17.406963 48.309986 -5.582986
-17.378206 48.321701 -5.612336
-17.170532 48.319286 -5.837097
-17.176506 48.319561 -5.822089
-17.279936 48.316082 -5.696869
-17.173292 48.315910 -5.809351
-17.439798 48.318657 -5.535643
-17.195822 48.319736 -5.803192
-17.174559 48.318066 -5.802300
-17.088072 48.321976 -5.899489
-17.401600 48.321621 -5.560079
-17.241209 48.318897 -5.727689
-17.295107 48.318279 -5.679560
-17.301483 48.311737 -5.656592
-17.327103 48.323013 -5.630012
-17.322008 48.322575 -5.651363
-17.407957 48.323586 -5.557847
-17.416609 48.310421 -5.517675
-17.203878 48.317665 -5.759791
-17.317497 48.310368 -5.620764
-17.105743 48.332546 -5.865340
-17.390499 48.320602 -5.567438
-17.252890 48.316692 -5.687725
-17.344038 48.318409 -5.603285
-17.146940 48.322968 -5.822989
-17.150110 48.322247 -5.809446
-17.150490 48.321533 -5.797391
-17.401434 48.313358 -5.529482
-17.168669 48.322487 -5.788450
-17.141100 48.315781 -5.792553
-17.364647 48.316303 -5.553881
-17.213406 48.319572 -5.716447
-17.418793 48.312038 -5.490791
-17.268728 48.319935 -5.668302
-17.406492 48.311836 -5.506682
-17.281532 48.319321 -5.644602
-17.290840 48.317703 -5.623091
-17.292742 48.322304 -5.638721
-17.372362 48.319317 -5.548811
-17.179598 48.321342 -5.746408
-17.291956 48.316963 -5.611729
-17.356314 48.316319 -5.558363
-17.227974 48.319294 -5.677867
-17.116941 48.319691 -5.811003
-17.319082 48.323082 -5.590651
-17.106571 48.305077 -5.801014
-17.106968 48.305359 -5.788985
-17.094055 48.296608 -5.786289
-17.348238 48.325855 -5.541136
-17.134338 48.315304 -5.775071
-17.194834 48.327171 -5.703009
-17.390383 48.313641 -5.483122
-17.244450 48.321579 -5.656282
-17.367580 48.316532 -5.501489
-17.258713 48.323948 -5.632617
-17.262400 48.319340 -5.614012
-17.355867 48.327942 -5.533217
-17.267735 48.326008 -5.624652
-17.160990 48.328976 -5.731560
-17.206581 48.322865 -5.667233
-17.262825 48.318592 -5.603377
-17.338425 48.323929 -5.544198
-17.084763 48.311432 -5.799660
-17.285622 48.318771 -5.582267
-17.350857 48.317596 -5.509053
-17.312696 48.320526 -5.534906
-17.096251 48.329006 -5.769379
-17.176243 48.333775 -5.689550
-17.106451 48.315056 -5.760988
-17.220171 48.323231 -5.644267
-17.358749 48.319073 -5.484840
-17.228796 48.321606 -5.623484
-17.233236 48.318974 -5.605615
-17.232080 48.317753 -5.615527
-17.319536 48.320679 -5.524841
-17.188046 48.330437 -5.655212
-17.304232 48.316616 -5.536469
-17.232288 48.318211 -5.596432
-17.113209 48.308838 -5.724590
-17.269852 48.327374 -5.567368
-17.299089 48.331085 -5.520704
-17.339893 48.318821 -5.465551
-17.134169 48.317558 -5.682524
-17.313589 48.317673 -5.487449
-17.090666 48.324692 -5.744705
-17.205105 48.332840 -5.628669
-17.211634 48.329197 -5.610013
-17.333712 48.307255 -5.451289
-17.214699 48.326550 -5.593595
-17.304453 48.329288 -5.509217
-17.289164 48.326229 -5.520869
-17.215555 48.326420 -5.598532
-17.088181 48.308521 -5.711845
-17.237068 48.322083 -5.558241
-17.296749 48.317848 -5.490755
-17.264246 48.323738 -5.515116
-17.102079 48.310242 -5.674037
-17.312393 48.324303 -5.462921
-17.157585 48.301964 -5.610813
-17.320875 48.320789 -5.437849
-17.261333 48.322887 -5.510949
-17.272358 48.324009 -5.499364
-17.245676 48.329315 -5.503047
-17.270208 48.325768 -5.469765
-17.290821 48.323994 -5.447949
-17.095573 48.327770 -5.656994
-17.130480 48.298599 -5.601582
-17.154915 48.319820 -5.578113
-17.249794 48.333473 -5.494573
-17.248053 48.323673 -5.487304
-17.253923 48.324059 -5.468062
-17.248840 48.328320 -5.460526
-17.267338 48.325562 -5.439449
-17.062048 48.316444 -5.649861
-17.268126 48.328537 -5.440219
-17.104116 48.296207 -5.593064
-17.096153 48.310764 -5.575988
-17.110704 48.325024 -5.556857
-17.080036 48.320053 -5.574560
