# .PCD v0.7 - Point Cloud Data file format
VERSION 0.7
FIELDS x y z
SIZE 4 4 4
TYPE F F F
COUNT 1 1 1
WIDTH 642
HEIGHT 1
VIEWPOINT 0 0 0 1
POINTS 642
DATA ascii
2.100510 12.860021 1.397164
2.098230 12.787454 1.441552
2.099009 12.874194 1.413615
2.100500 12.741088 1.458008
2.019796 12.760123 1.650249
2.064550 12.721750 1.556197
1.815337 12.994100 2.219911
1.789591 13.093710 2.218948
2.052528 12.851377 1.528275
1.897210 13.021389 1.932620
2.035707 12.871367 1.580568
1.953017 12.934058 1.844920
2.063163 12.799086 1.532248
1.838760 13.049124 2.129533
1.990765 12.916921 1.699925
2.092768 12.766101 1.460656
1.923899 12.838096 1.876119
2.091289 12.808508 1.445010
2.095662 12.722283 1.470469
2.090851 12.673548 1.480983
2.066514 12.742553 1.526223
2.070659 12.683893 1.522624
2.027259 12.830132 1.634680
1.998820 12.851034 1.694054
1.805499 13.018471 2.207648
1.911198 12.948807 1.927584
1.931093 12.881780 1.890046
2.017608 12.789097 1.679878
1.777722 13.120503 2.243677
1.829263 12.996511 2.183068
2.002729 12.783150 1.679946
1.953653 12.925018 1.795805
2.001477 12.745789 1.726460
1.854290 13.048302 2.087691
1.914468 12.872447 1.909549
2.085099 12.787204 1.472004
1.926566 12.837408 1.950845
2.075666 12.749033 1.511416
2.063518 12.711122 1.539987
1.811341 12.930284 2.194482
2.016917 12.712019 1.673234
2.056703 12.670908 1.576757
1.815923 12.945110 2.240181
1.786029 13.041292 2.235102
1.895050 12.969811 1.950280
2.056312 12.801883 1.549096
2.039390 12.820932 1.599363
1.947708 12.880238 1.860817
2.057536 12.746552 1.551012
1.841152 12.996948 2.147241
1.988591 12.865340 1.717581
2.088774 12.626591 1.503883
1.926082 12.789989 1.900334
2.088118 12.671994 1.489766
2.090919 12.757423 1.463324
2.082182 12.712668 1.478608
2.064339 12.694656 1.547099
2.072819 12.635783 1.546831
2.024673 12.778898 1.653180
1.804869 12.968679 2.228848
1.997655 12.800645 1.714066
1.905392 12.896236 1.943916
1.930147 12.832848 1.908386
2.012195 12.738021 1.696969
1.774563 13.067740 2.258984
1.831563 12.947078 2.201974
2.008848 12.736588 1.704223
1.958352 12.873933 1.815349
2.004050 12.697333 1.749823
1.912506 12.822753 1.931258
1.925819 12.788515 1.971624
1.855358 12.994382 2.104301
2.087458 12.736865 1.491312
2.069745 12.699202 1.528938
2.064665 12.661822 1.561836
1.815560 12.882714 2.221805
2.013622 12.662420 1.695453
2.055530 12.622360 1.598376
1.809426 12.893751 2.254509
1.783781 12.990621 2.252352
1.886411 12.915556 1.963592
2.054123 12.750302 1.566747
1.950899 12.831051 1.880049
2.035883 12.767609 1.615918
2.055250 12.697720 1.569865
1.838886 12.944436 2.162882
1.983676 12.813021 1.734246
2.083532 12.664828 1.498788
2.081475 12.621957 1.509401
1.924614 12.740891 1.923227
2.088815 12.704942 1.481394
2.057795 12.643717 1.567149
2.023295 12.728465 1.670760
2.064458 12.586185 1.567832
1.903224 12.846495 1.963197
1.798664 12.916451 2.246042
1.995473 12.750901 1.733343
1.930801 12.782947 1.929075
1.773020 13.017262 2.274143
2.013649 12.689263 1.717575
1.831218 12.895982 2.220316
1.999580 12.684888 1.723291
1.998633 12.648077 1.768545
1.960213 12.822979 1.833504
1.918586 12.736920 1.988076
2.075149 12.683432 1.504921
1.908205 12.771943 1.951146
1.854902 12.940495 2.119009
2.071690 12.649183 1.549115
2.065199 12.612801 1.582117
1.810965 12.831341 2.242962
1.808175 12.844232 2.274140
1.782031 12.940508 2.270807
2.006579 12.612699 1.715956
1.886773 12.866491 1.981446
2.045055 12.698196 1.582539
1.938503 12.776665 1.891646
2.036725 12.717290 1.633334
2.051748 12.648035 1.589669
1.983627 12.764291 1.752941
1.839954 12.892308 2.181131
2.082345 12.614392 1.518820
2.079650 12.653729 1.496767
2.054699 12.595530 1.587716
1.920511 12.690096 1.945557
2.023334 12.678832 1.689866
1.890941 12.793044 1.976819
1.799440 12.867453 2.268778
1.984191 12.698638 1.749318
1.930850 12.733315 1.948185
1.775730 12.969278 2.293842
2.011462 12.639481 1.736863
1.831283 12.846348 2.239430
1.995074 12.635858 1.742350
1.905191 12.685026 2.000533
1.982695 12.595477 1.782444
1.951049 12.768084 1.845659
2.084272 12.634439 1.525727
1.907543 12.722103 1.972363
1.855048 12.886276 2.135314
2.044824 12.593605 1.559032
1.809154 12.796689 2.295197
1.808695 12.781042 2.265961
1.780882 12.890074 2.290854
1.882681 12.815275 1.998052
2.047310 12.648715 1.601458
1.940868 12.726282 1.910984
2.029374 12.664734 1.647758
2.045912 12.597261 1.607628
1.981848 12.714163 1.771384
1.837680 12.839745 2.196790
2.081995 12.603346 1.516097
1.917723 12.641046 1.968983
2.016488 12.626870 1.705468
1.887855 12.743017 1.995780
1.797881 12.817364 2.289668
1.985643 12.649849 1.769932
1.919771 12.680670 1.960871
1.772150 12.916815 2.310020
1.981168 12.584373 1.743779
1.825775 12.794287 2.254526
1.992984 12.587017 1.763662
1.922932 12.642020 2.032434
1.951082 12.716611 1.863153
1.902132 12.672827 1.991092
1.849629 12.831472 2.149212
1.805472 12.746967 2.312568
1.781958 12.841631 2.312325
1.806015 12.731088 2.289805
1.884453 12.767043 2.017411
2.040964 12.597347 1.618237
1.938072 12.674966 1.927068
2.025656 12.613171 1.663507
1.834900 12.788428 2.212880
1.973184 12.661706 1.786324
1.911900 12.592114 1.988556
1.889219 12.695131 2.015983
1.979711 12.599978 1.787478
1.789945 12.765539 2.308235
1.919403 12.631384 1.980823
1.765947 12.865968 2.323110
1.824916 12.744406 2.273304
1.904195 12.625570 2.014912
1.949691 12.664296 1.879134
1.851588 12.779593 2.167786
1.778880 12.791602 2.331289
1.881161 12.716977 2.033929
1.801912 12.680292 2.312136
1.934866 12.623997 1.943997
1.978672 12.613563 1.807415
1.832611 12.735865 2.228534
1.888448 12.646193 2.036782
1.889617 12.576459 1.983190
1.788880 12.716043 2.330300
1.773082 12.818703 2.348163
1.819299 12.693248 2.287981
1.897956 12.575145 2.033719
1.952948 12.614160 1.898796
1.852122 12.726870 2.184847
1.773467 12.740485 2.348408
1.882614 12.668187 2.054544
1.797302 12.630743 2.334898
1.834569 12.685824 2.248717
1.885754 12.597659 2.056502
1.776896 12.664998 2.344267
1.823685 12.645234 2.312032
1.850828 12.673652 2.201242
1.879911 12.617813 2.072651
1.836518 12.635782 2.268898
1.838307 12.618329 2.210801
1.555295 13.196536 1.208113
1.587057 13.119139 1.066548
1.533886 13.131132 1.128851
1.707552 13.164165 1.086362
1.694161 13.174364 1.121953
1.495639 13.159251 1.276879
1.628599 13.193761 1.248899
1.630565 13.098827 1.096054
1.579388 13.120747 1.089597
1.542133 13.133850 1.137570
1.590768 13.118746 1.161266
1.687069 13.110540 1.107096
1.689398 13.164104 1.112287
1.579676 13.192515 1.159647
1.676008 13.186776 1.160297
1.652950 13.193371 1.114385
1.688434 13.127617 1.145517
1.507536 13.165093 1.270511
1.586892 13.202193 1.282548
1.567550 13.157520 1.317752
1.730751 13.203636 1.297887
1.699143 13.089312 1.130402
1.545162 13.131588 1.145973
1.637065 13.107614 1.120338
1.607367 13.126737 1.170471
1.573632 13.119144 1.112573
1.662068 13.112679 1.197786
1.520105 13.132637 1.100333
1.413821 13.182899 1.469220
1.491896 13.191880 1.438162
1.560581 13.195003 1.186396
1.724038 13.085384 1.136804
1.656598 13.191051 1.195635
1.700067 13.124627 1.136917
1.684847 13.146850 1.184252
1.674138 13.160165 1.138898
1.649177 13.192699 1.134320
1.724557 13.101336 1.175312
1.505413 13.159185 1.262593
1.556597 13.207477 1.317041
1.574893 13.159465 1.308541
1.422209 13.190584 1.453247
1.670110 13.203704 1.326187
1.455492 13.203927 1.466821
1.550664 13.128515 1.145201
1.775245 13.222998 1.402200
2.071452 13.328666 1.414818
1.701685 13.048750 1.154041
1.612689 13.123662 1.179134
1.671038 13.115555 1.204408
1.693109 13.091313 1.151690
1.639729 13.110389 1.144225
1.809819 13.140236 1.253611
1.573937 13.118546 1.127289
1.443956 13.159353 1.498570
1.982288 13.427876 1.656413
1.641090 13.195349 1.223305
1.511563 13.157117 1.247417
2.147402 13.227922 1.240176
1.788882 13.213858 1.246170
1.832649 13.143332 1.183435
1.424467 13.193059 1.436624
1.818060 13.167111 1.233961
1.699375 13.127503 1.163922
1.661749 13.155060 1.155490
2.133695 13.239935 1.284346
1.535088 13.217207 1.345448
1.574014 13.154314 1.299697
1.626298 13.202884 1.356921
1.423388 13.208308 1.494911
1.439180 13.158708 1.476404
1.745545 13.204706 1.379440
2.052512 13.356561 1.462701
1.858328 13.537844 1.982672
1.925443 13.439484 1.687436
1.618986 13.119852 1.176685
2.051867 13.313341 1.514492
2.067646 13.161909 1.248882
2.074363 13.275773 1.442798
1.683420 13.115132 1.212895
1.798978 13.096060 1.193984
1.834483 13.147434 1.262236
1.726601 13.107680 1.180739
2.121287 13.232635 1.353011
1.639583 13.108295 1.158194
1.945180 13.402702 1.744918
1.977055 13.369321 1.680613
1.758613 13.211283 1.271012
1.576009 13.147983 1.280837
1.898201 13.219926 1.293082
2.141349 13.172792 1.267259
1.445426 13.162623 1.459861
2.142308 13.232451 1.269124
2.055359 13.249697 1.256028
2.112958 13.254470 1.325301
1.684633 13.121354 1.178671
2.127571 13.185712 1.311003
1.619710 13.222301 1.391770
1.836966 13.523378 2.053776
1.829539 13.562890 2.023552
1.733265 13.192572 1.364653
2.035198 13.375198 1.509434
1.464521 13.192102 1.531054
1.945546 13.405567 1.715325
2.057041 13.311929 1.498564
2.053074 13.302630 1.488833
1.844642 13.472627 1.998633
1.457339 13.167895 1.435900
1.956784 13.402424 1.725603
1.704027 13.116692 1.212530
2.055028 13.261899 1.540789
1.844997 13.538257 2.024970
1.865215 13.155667 1.274478
2.158902 13.147847 1.295990
2.070013 13.220173 1.468529
2.139338 13.195507 1.287379
2.128335 13.231302 1.355787
1.896215 13.139204 1.236892
1.745132 13.114787 1.197198
2.120457 13.179727 1.379244
1.954088 13.354092 1.771524
1.971669 13.312575 1.703977
2.061801 13.314958 1.367501
1.713934 13.174960 1.337006
2.137820 13.121053 1.294086
2.099126 13.263808 1.365849
1.938156 13.400070 1.685685
2.132403 13.176364 1.292427
2.127955 13.228712 1.296086
2.116119 13.203001 1.351610
2.119183 13.279029 1.289059
1.852900 13.549880 1.998704
2.126269 13.134068 1.337659
1.430809 13.197895 1.550634
2.016300 13.392494 1.546484
1.836111 13.468235 2.072648
2.062999 13.307489 1.485513
1.832269 13.507281 2.047891
2.035568 13.321218 1.533127
1.931825 13.421024 1.766350
1.966205 13.361703 1.745449
2.059166 13.259300 1.522514
2.050295 13.248335 1.512371
1.863097 13.560627 1.960820
1.845980 13.418056 2.023066
1.765927 13.299372 1.576392
1.952126 13.345854 1.746861
1.889763 13.156791 1.272604
1.847353 13.482527 2.044434
2.048650 13.205804 1.563414
2.121806 13.219718 1.357768
2.145440 13.091819 1.319982
2.139747 13.143353 1.312692
2.066026 13.166975 1.494600
2.139459 13.194860 1.311549
2.122945 13.174504 1.379180
1.908033 13.141414 1.251104
2.118698 13.126599 1.405152
1.955686 13.300916 1.794289
1.972535 13.259224 1.728854
2.086406 13.270626 1.396129
2.070666 13.302483 1.459244
2.098174 13.209949 1.390067
1.972842 13.362899 1.720750
2.133830 13.067830 1.320173
2.126989 13.122320 1.316996
1.809086 13.524522 2.087701
2.104371 13.146480 1.374249
2.121982 13.172215 1.317881
2.119948 13.224652 1.311932
1.851947 13.491014 2.014395
1.920392 13.448019 1.806297
1.833929 13.413239 2.092037
2.017463 13.337790 1.568498
2.121877 13.081217 1.364586
2.064088 13.253675 1.507115
1.820071 13.444275 2.061248
2.035925 13.267245 1.556833
1.936685 13.369123 1.791293
1.964609 13.306351 1.766459
2.052267 13.202614 1.543967
2.048931 13.194867 1.537432
1.863525 13.500718 1.976432
1.984381 13.365696 1.684592
1.841436 13.359744 2.045170
1.954233 13.293270 1.770807
1.845968 13.426793 2.062144
2.125545 13.210145 1.348287
2.043951 13.151972 1.585872
2.118967 13.163546 1.379733
2.136536 13.036934 1.345664
2.135237 13.089540 1.337605
1.791648 13.549602 2.124442
2.114262 13.119202 1.401569
2.137830 13.190047 1.322433
2.062424 13.113420 1.519841
2.134391 13.138594 1.333688
1.951783 13.246387 1.815051
2.107449 13.070683 1.428982
2.081671 13.214909 1.416992
1.968414 13.205114 1.752905
2.073132 13.247627 1.480771
1.970213 13.306359 1.739411
2.093033 13.154598 1.411778
1.807370 13.468267 2.106671
2.131119 13.017235 1.346934
2.129140 13.071531 1.342572
2.124537 13.121060 1.342610
2.115212 13.168923 1.332802
1.849599 13.433193 2.030178
1.917699 13.392391 1.824522
2.102084 13.092768 1.398993
1.828807 13.357511 2.107989
2.019459 13.284220 1.590435
2.113746 13.028370 1.389756
2.059344 13.197975 1.527980
1.819892 13.389800 2.083757
2.029351 13.211102 1.577024
1.931822 13.312510 1.810123
1.959673 13.250633 1.784872
2.049724 13.149767 1.565836
2.043379 13.139910 1.559985
1.861711 13.440729 1.992226
1.984045 13.308340 1.703512
1.839949 13.368078 2.076594
1.954099 13.240607 1.794935
1.836741 13.303239 2.066438
2.121268 13.153155 1.368747
2.038323 13.097921 1.608006
2.112835 13.108868 1.400694
1.791505 13.494643 2.141220
2.135062 12.987104 1.371502
2.136464 13.038529 1.362853
2.130602 13.084955 1.356500
2.058673 13.061673 1.544245
1.951904 13.195162 1.837495
2.096554 13.059845 1.421462
2.132306 13.132293 1.343827
2.101021 13.017342 1.452811
2.083588 13.162219 1.438526
2.070495 13.191053 1.499456
1.965525 13.151772 1.776038
1.804075 13.412996 2.123292
1.972007 13.252758 1.758913
2.089241 13.100975 1.434588
2.128794 12.966282 1.372866
2.118210 13.016147 1.365149
2.119315 13.066607 1.363913
1.917852 13.338411 1.845782
1.832913 13.307769 2.130493
2.118110 13.115548 1.355105
1.851410 13.376881 2.048493
2.087428 13.037386 1.419798
2.015954 13.229297 1.610370
2.091103 12.970112 1.410416
2.056747 13.143270 1.548263
1.822240 13.338706 2.106012
1.695029 13.549426 2.352334
2.026800 13.158265 1.598896
1.927325 13.258297 1.829291
1.958896 13.196423 1.805817
2.050376 13.096342 1.588309
2.028600 13.083596 1.578768
1.861129 13.381507 2.007104
1.983560 13.252789 1.721595
1.843091 13.316249 2.097173
1.944756 13.183830 1.814125
1.833326 13.249357 2.088380
2.116909 13.097074 1.388794
2.037635 13.047402 1.632156
1.787691 13.438786 2.156666
2.106689 13.054199 1.421666
2.109202 12.929434 1.391578
1.945095 13.141767 1.856423
2.089868 13.007349 1.442429
2.114617 12.979535 1.381834
2.034009 13.002932 1.561787
2.125038 13.029973 1.379078
2.130222 13.078154 1.365300
2.093529 12.965582 1.475464
2.076996 13.106065 1.458742
1.802712 13.359147 2.142613
2.069274 13.135306 1.519665
1.965691 13.195327 1.776255
2.087529 13.049246 1.456390
1.963136 13.099032 1.800360
1.828726 13.254139 2.148396
1.915979 13.283924 1.863942
2.108960 12.963024 1.387559
2.116355 13.014108 1.386651
2.106918 12.910053 1.393023
1.852225 13.321247 2.066060
2.116421 13.061047 1.375741
2.087653 12.987070 1.444296
2.014197 13.175734 1.630564
2.091371 12.921656 1.436514
2.052306 13.088120 1.567886
1.813171 13.280657 2.122330
2.021493 13.104756 1.619772
1.697062 13.489990 2.366185
1.931094 13.207987 1.853084
1.953797 13.142519 1.823403
2.029067 13.037494 1.602735
2.021971 13.030230 1.600159
1.980717 13.196199 1.737842
1.865668 13.325876 2.026442
1.841199 13.261804 2.115334
1.781851 13.382421 2.169010
2.110572 13.042346 1.407332
1.943096 13.131263 1.836340
2.024596 12.992458 1.651202
1.829897 13.195486 2.110335
2.105366 13.002103 1.442638
1.941016 13.089059 1.876370
2.113853 12.929887 1.405583
2.108099 12.879256 1.416599
2.090484 12.956671 1.466094
2.124230 12.978463 1.401231
2.109054 13.017470 1.380585
2.032905 12.952782 1.586795
2.072374 12.909541 1.493517
2.063921 13.049235 1.476193
1.794817 13.302760 2.157579
2.046556 13.072869 1.531412
1.961056 13.140156 1.793431
2.082727 12.996312 1.478463
1.914540 13.230936 1.882864
1.826356 13.200970 2.166980
1.957075 13.045396 1.823350
2.105345 12.861144 1.418462
1.844280 13.262989 2.079441
2.108656 12.912113 1.410896
2.097970 12.955972 1.404543
2.096611 13.002088 1.392115
2.010596 13.121726 1.650097
2.086951 12.936535 1.468471
2.088880 12.872527 1.461616
2.049613 13.034329 1.587768
1.815608 13.230537 2.146625
2.017933 13.052608 1.640906
1.698147 13.433087 2.380882
1.923827 13.153111 1.871267
1.951944 13.089894 1.843185
2.029158 12.986250 1.625221
2.022110 12.980845 1.624237
1.840140 13.208488 2.133417
1.862295 13.268744 2.041505
1.980719 13.141255 1.757126
1.785940 13.332699 2.191524
2.095144 12.984466 1.422948
1.924912 13.072776 1.850930
2.008217 12.937155 1.667650
2.081884 12.942255 1.457679
1.826969 13.142215 2.133477
1.941030 13.038754 1.898422
2.098452 12.919423 1.416018
2.104687 12.829901 1.441374
2.086513 12.904869 1.488092
2.103664 12.876554 1.427677
2.107206 12.964780 1.400391
2.030407 12.903680 1.611894
2.073019 12.860735 1.518790
1.794722 13.251541 2.177585
2.063900 12.997015 1.496666
1.968277 13.090688 1.816150
2.049678 13.020968 1.552049
1.908000 13.176230 1.898942
1.823438 13.149969 2.185566
2.069165 12.940759 1.496348
1.946693 12.992068 1.842982
1.991835 13.063514 1.663092
1.847793 13.210803 2.099206
2.099244 12.860808 1.432478
2.098350 12.951206 1.412842
2.095247 12.904922 1.425613
2.097872 12.811253 1.442738
2.077538 12.885238 1.490048
2.084548 12.822954 1.486057
2.043182 12.980540 1.605893
1.814256 13.178560 2.167571
2.014360 13.000467 1.662052
1.920585 13.101537 1.891131
1.945504 13.036146 1.861300
2.027339 12.935460 1.646622
2.015385 12.928395 1.645225
1.838602 13.156446 2.151927
1.782467 13.279253 2.207330
1.975552 13.085492 1.773142
1.859373 13.210356 2.056165
1.924453 13.023740 1.873403
2.095114 12.932239 1.443434
2.007353 12.888458 1.690982
2.082744 12.893019 1.479670
1.936391 12.988225 1.918380
1.824806 13.090974 2.156117
2.079319 12.853662 1.509508
2.025550 12.853540 1.635155
2.069010 12.811706 1.541969
1.793367 13.199572 2.198531
1.823302 13.101510 2.206762
2.064314 12.946292 1.517901
1.908812 13.125200 1.919309
2.048146 12.968841 1.570593
1.961319 13.036344 1.833092
2.063287 12.889416 1.517256
1.848481 13.158841 2.117550
1.928066 12.936719 1.859601
2.098846 12.856359 1.448619
1.990883 13.011100 1.683231
2.098247 12.899879 1.432910
2.094774 12.762440 1.466261
2.100277 12.811629 1.456924
2.076741 12.835616 1.513819
2.078306 12.773837 1.509411
2.034907 12.926308 1.623357
1.807470 13.124338 2.186939
2.000198 12.945256 1.678338
1.917396 13.049072 1.911432
1.936639 12.982261 1.877152
2.016761 12.882051 1.663835
2.009028 12.878344 1.666549
1.785947 13.229847 2.228265
1.836535 13.103816 2.169272
1.858181 13.156079 2.072251
1.961691 13.026214 1.785396
2.093174 12.880465 1.462834
1.919475 12.972684 1.894633
2.006875 12.839401 1.713486
1.927566 12.936208 1.935830
2.079550 12.840493 1.500005
1.820468 13.038758 2.179363
2.073359 12.803224 1.530005
