# .PCD v0.7 - Point Cloud Data file format
VERSION 0.7
FIELDS x y z
SIZE 4 4 4
TYPE F F F
COUNT 1 1 1
WIDTH 50
HEIGHT 1
VIEWPOINT 0 0 0 1
POINTS 50
DATA ascii
-2.244632 16.717850 0.702177
-2.218503 16.731159 0.598794
-2.149502 16.764910 0.367860
-2.093290 16.710442 0.254093
-2.071819 16.718807 0.185243
-2.117162 16.792803 0.259484
-2.302836 16.969746 0.729316
-2.291612 16.972996 0.713913
-2.044033 16.745029 0.118268
-2.224254 16.943581 0.474048
-2.266695 17.000185 0.602521
-2.075066 16.821381 0.144506
-1.972967 16.746166 -0.123079
-1.900292 16.714457 -0.321571
-2.024775 16.814159 0.028056
-1.930633 16.737783 -0.222418
-1.857260 16.681042 -0.419949
-1.865934 16.703133 -0.393516
-2.187935 17.020369 0.358388
-2.140083 16.983315 0.242475
-2.102541 16.971308 0.171084
-1.816577 16.721659 -0.535077
-2.161901 17.077061 0.241267
-2.323063 17.202702 0.742943
-2.263968 17.199699 0.470814
-1.913654 16.872528 -0.361122
-2.086987 17.030090 0.094560
-1.863867 16.861916 -0.489310
-1.999087 17.003607 -0.162311
-2.296921 17.257961 0.611103
-2.113205 17.115252 0.120162
-1.955484 17.003696 -0.267284
-1.919163 16.978882 -0.370194
-2.078119 17.144508 -0.008946
-1.874774 16.959894 -0.478045
-1.885679 16.966450 -0.442031
-2.210201 17.263273 0.353553
-2.163268 17.230595 0.237620
-2.130515 17.238113 0.158804
-1.844164 17.033489 -0.609059
-2.183918 17.339197 0.230215
-2.283941 17.437626 0.471632
-1.933336 17.139999 -0.403187
-2.112434 17.306087 0.075700
-1.879954 17.142426 -0.546331
-2.027750 17.285635 -0.203136
-2.136401 17.399511 0.102133
-1.974976 17.283550 -0.311306
-1.937172 17.270445 -0.422405
-1.910364 17.270285 -0.498047
