# .PCD v0.7 - Point Cloud Data file format
VERSION 0.7
FIELDS x y z
SIZE 4 4 4
TYPE F F F
COUNT 1 1 1
WIDTH 75
HEIGHT 1
VIEWPOINT 0 0 0 1
POINTS 75
DATA ascii
-1.994973 16.501482 0.165219
-2.003937 16.592165 0.112640
-1.994832 16.632586 0.155339
-2.157892 16.576691 0.588185
-1.833787 16.571539 -0.379311
-1.826553 16.546326 -0.311734
-2.026173 16.771139 0.100140
-2.137679 16.593786 0.582093
-2.026548 16.825901 0.135775
-1.679698 16.547470 -0.723218
-2.199513 16.766285 0.592865
-1.864423 16.784384 -0.426904
-1.832821 16.711868 -0.345341
-1.987037 16.597431 0.068217
-2.056452 16.977360 0.085199
-1.963809 16.617722 0.066916
-2.135961 16.555716 0.531228
-2.049729 17.018465 0.116988
-2.226806 16.948399 0.600378
-2.107686 16.586998 0.487296
-1.846094 16.904514 -0.386770
-1.871509 16.972057 -0.459729
-2.010342 16.781794 0.050560
-1.823882 16.652126 -0.441493
-2.076744 17.180756 0.073791
-2.190963 16.943483 0.586182
-1.795866 16.637316 -0.423127
-1.986860 16.802662 0.045571
-2.162471 16.728584 0.532438
-2.063316 17.208572 0.102578
-1.964116 16.607864 0.025589
-1.933037 16.573462 -0.013790
-1.856510 17.108618 -0.429398
-1.886409 17.193069 -0.501053
-2.146986 16.785437 0.482203
-2.044341 17.000242 0.028667
-1.840741 16.854235 -0.486246
-2.118037 16.556274 0.458469
-1.805349 16.562471 -0.465793
-1.806684 16.832361 -0.469120
-2.003900 16.995499 0.024864
-1.768777 16.555374 -0.497681
-2.193480 16.917408 0.535369
-2.071704 16.584236 0.386547
-1.994967 16.816071 0.000129
-2.159330 16.952681 0.483009
-2.059018 17.204292 0.013738
-1.852897 17.068121 -0.531477
-2.150369 16.743221 0.454502
-1.826972 16.773939 -0.519135
-1.895343 16.530626 -0.098919
-1.806982 17.019590 -0.508007
-2.023328 17.207043 0.002109
-2.219761 17.113417 0.539804
-1.962613 16.675640 -0.045698
-2.021625 17.030010 -0.024641
-1.969508 16.958986 -0.065687
-2.179188 17.146776 0.482985
-2.166662 16.916603 0.454403
-1.831764 16.973230 -0.562901
-1.903189 16.703428 -0.123242
-1.796131 16.680008 -0.553536
-1.734273 16.649206 -0.620265
-1.988231 16.886711 -0.074632
-2.116431 16.959581 0.374320
-2.040411 17.249413 -0.046871
-1.990808 17.182177 -0.094280
-2.182178 17.102379 0.455279
-1.837252 17.193422 -0.611223
-1.925024 16.918512 -0.158047
-1.808063 16.893333 -0.610194
-2.005711 17.097387 -0.101950
-2.146318 17.181580 0.368319
-1.947812 17.155745 -0.194504
-1.733572 17.056984 -0.726988
