# .PCD v0.7 - Point Cloud Data file format
VERSION 0.7
FIELDS x y z
SIZE 4 4 4
TYPE F F F
COUNT 1 1 1
WIDTH 600
HEIGHT 1
VIEWPOINT 0 0 0 1
POINTS 600
DATA ascii
-18.349936 48.188114 -6.150066
-18.328205 48.184143 -6.182240
-18.306133 48.182983 -6.208254
-18.335632 48.188282 -6.055863
-18.399595 48.198765 -5.839828
-18.328020 48.192791 -5.988908
-18.310183 48.182697 -6.222043
-18.295370 48.183105 -6.246098
-18.275227 48.180336 -6.280517
-18.293238 48.179298 -6.296412
-18.265553 48.176407 -6.313511
-18.254042 48.176613 -6.356273
-18.325359 48.193539 -6.060332
-18.377108 48.192390 -5.932644
-18.404060 48.200165 -5.876932
-18.312906 48.186306 -6.127342
-18.287443 48.188572 -6.106258
-18.264988 48.178120 -6.377138
-18.212465 48.193859 -6.129228
-18.363344 48.203007 -5.815103
-18.198530 48.191589 -6.162555
-18.250151 48.178162 -6.388045
-18.230631 48.176872 -6.437709
-18.305706 48.186760 -6.202121
-18.177828 48.189491 -6.186767
-18.207951 48.195103 -6.043569
-18.252316 48.187023 -6.158639
-18.313915 48.201637 -5.881492
-18.266031 48.205433 -5.839796
-18.214775 48.204922 -5.978721
-18.186846 48.192600 -6.199235
-18.306051 48.196602 -5.977499
-18.169165 48.191750 -6.222874
-18.156044 48.191559 -6.256296
-18.217617 48.188576 -6.213067
-18.164589 48.188614 -6.268765
-18.148703 48.188755 -6.286593
-18.196072 48.201138 -6.044751
-18.126074 48.184872 -6.324698
-18.240713 48.199581 -5.924085
-18.158390 48.195156 -6.089715
-18.267282 48.208385 -5.870325
-18.191608 48.198544 -6.109868
-18.286911 48.207863 -5.936019
-18.098637 48.201717 -6.111934
-18.089691 48.200871 -6.144983
-18.231363 48.209705 -5.811265
-18.129290 48.185658 -6.343393
-18.067169 48.198582 -6.167912
-18.131845 48.191265 -6.356850
-18.106049 48.187321 -6.402569
-18.167528 48.194363 -6.178115
-18.100937 48.205753 -6.033334
-18.141136 48.208778 -5.838088
-18.187010 48.208759 -5.877404
-18.133455 48.197414 -6.139537
-18.089491 48.206944 -5.966859
-18.067791 48.198875 -6.177128
-18.181908 48.206779 -5.966705
-18.059704 48.201893 -6.202162
-18.047953 48.200764 -6.233781
-18.051636 48.198357 -6.244496
-18.087704 48.195854 -6.188293
-18.106825 48.218456 -5.749839
-18.076956 48.207607 -6.029712
-18.043463 48.201195 -6.263452
-18.026958 48.198807 -6.300438
-18.122202 48.208344 -5.917197
-18.059771 48.207443 -6.076680
-18.132902 48.211800 -5.864148
-18.063259 48.202095 -6.090440
-18.001556 48.211079 -6.097150
-17.990641 48.210052 -6.129905
-18.147732 48.212799 -5.927073
-18.120371 48.218224 -5.808550
-17.966616 48.205563 -6.150614
-18.024412 48.199047 -6.317259
-17.999338 48.212845 -6.022957
-18.013964 48.199394 -6.325791
-18.045818 48.219700 -5.837709
-17.997097 48.197224 -6.371823
-18.079121 48.217525 -5.874144
-18.047169 48.202557 -6.156796
-18.031343 48.209305 -6.122946
-17.991749 48.215385 -5.957046
-17.971973 48.210270 -6.159472
-17.968811 48.213726 -6.185245
-17.947828 48.209675 -6.212475
-18.063095 48.214397 -5.955742
-18.009794 48.226219 -5.749247
-17.954296 48.209526 -6.223580
-17.994738 48.210484 -6.170012
-17.978527 48.215931 -6.017774
-17.940531 48.209827 -6.240715
-18.017866 48.217312 -5.910426
-17.928181 48.208755 -6.276288
-17.963140 48.217934 -6.064984
-18.027283 48.220711 -5.859207
-17.967979 48.213623 -6.075899
-17.900873 48.216103 -6.081885
-17.893814 48.216423 -6.115203
-18.015757 48.225250 -5.804800
-18.030760 48.218628 -5.918437
-17.874928 48.213341 -6.134646
-17.900715 48.218224 -6.014067
-17.922979 48.208702 -6.290689
-17.947886 48.226376 -5.836997
-17.979496 48.225971 -5.870116
-17.913517 48.209137 -6.299368
-17.893179 48.204594 -6.342886
-17.922031 48.212524 -6.105390
-17.937815 48.209728 -6.137156
-17.904926 48.223801 -5.948884
-17.883221 48.220287 -6.142905
-17.867743 48.218597 -6.165878
-17.854620 48.217232 -6.193247
-17.958307 48.222237 -5.945886
-17.922012 48.233749 -5.748034
-17.853592 48.215351 -6.201221
-17.890013 48.226116 -6.006299
-17.892513 48.217262 -6.150443
-17.839010 48.213573 -6.218261
-17.868071 48.223515 -6.052582
-17.922482 48.226078 -5.905013
-17.824089 48.211212 -6.251441
-17.817839 48.223709 -6.069251
-17.817354 48.226654 -6.104537
-17.928877 48.228233 -5.854366
-17.927954 48.234753 -5.802544
-17.870018 48.219925 -6.062039
-17.801640 48.224800 -6.122418
-17.987782 48.231533 -5.683194
-17.814297 48.223637 -6.004998
-17.936403 48.230442 -5.911114
-17.854382 48.229404 -5.835994
-17.884151 48.230785 -5.866786
-17.822573 48.214497 -6.266352
-17.821379 48.230476 -5.940232
-17.810625 48.212646 -6.272665
-17.834887 48.221767 -6.092112
-17.802816 48.214207 -6.316979
-17.851700 48.222019 -6.121967
-17.789070 48.223804 -6.125615
-17.779415 48.223637 -6.149446
-17.767427 48.222343 -6.175973
-17.836454 48.238468 -5.747196
-17.862555 48.228878 -5.937412
-17.796034 48.228817 -5.995114
-17.767365 48.222527 -6.183053
-17.758759 48.222260 -6.199963
-17.799242 48.223839 -6.132231
-17.778997 48.228634 -6.041094
-17.737930 48.229591 -6.057113
-17.894238 48.240749 -5.651743
-17.825699 48.229675 -5.898449
-17.743986 48.219879 -6.232154
-17.729734 48.229836 -6.091273
-17.843578 48.236874 -5.849468
-17.839571 48.241169 -5.799234
-17.784029 48.227268 -6.048963
-17.715303 48.228043 -6.107325
-17.736509 48.230850 -5.998220
-17.901266 48.242271 -5.685162
-17.779703 48.238049 -5.834723
-17.831676 48.232353 -5.904386
-17.794050 48.234032 -5.863261
-17.739973 48.235336 -5.931930
-17.739664 48.222885 -6.245635
-17.894993 48.247589 -5.642676
-17.729601 48.222206 -6.252216
-17.746262 48.226841 -6.077658
-17.810854 48.245338 -5.602655
-17.714615 48.220032 -6.292464
-17.759283 48.226723 -6.105934
-17.712479 48.230900 -6.110928
-17.707430 48.233177 -6.136432
-17.689100 48.228249 -6.160029
-17.761862 48.246117 -5.745953
-17.771814 48.234962 -5.929706
-17.722553 48.237335 -5.985935
-17.687216 48.228241 -6.165825
-17.802855 48.247349 -5.627740
-17.658361 48.231487 -6.045084
-17.703629 48.235977 -6.031646
-17.647293 48.230469 -6.078827
-17.677542 48.228882 -6.182562
-17.716656 48.231400 -6.116633
-17.744659 48.236660 -5.893207
-17.801807 48.244049 -5.656969
-17.662169 48.225388 -6.212655
-17.760286 48.247364 -5.796291
-17.636868 48.230011 -6.094454
-17.747824 48.236607 -5.845138
-17.667738 48.238846 -5.991783
-17.697504 48.240025 -5.833422
-17.692490 48.228123 -6.036151
-17.815092 48.249027 -5.687239
-17.721643 48.242821 -5.860309
-17.665398 48.239830 -5.925676
-17.751667 48.242382 -5.897235
-17.739992 48.253548 -5.610060
-17.656025 48.228203 -6.224852
-17.661680 48.229290 -6.064864
-17.800743 48.250698 -5.646618
-17.651787 48.229046 -6.232292
-17.634315 48.224586 -6.270173
-17.681475 48.234737 -6.092063
-17.780609 48.252636 -5.597016
-17.637877 48.236195 -6.097579
-17.688507 48.250870 -5.744938
-17.632742 48.239471 -6.123057
-17.614798 48.233517 -6.144703
-17.648338 48.242786 -5.976688
-17.694176 48.242172 -5.921940
-17.724363 48.251873 -5.634044
-17.593225 48.238693 -6.035162
-17.615698 48.235764 -6.150889
-17.631384 48.241600 -6.022694
-17.585928 48.240021 -6.069442
-17.726549 48.250782 -5.660696
-17.663958 48.239662 -5.888072
-17.603386 48.234131 -6.166247
-17.568111 48.234856 -6.083007
-17.683142 48.251751 -5.793697
-17.589148 48.230713 -6.195499
-17.600353 48.243927 -5.984585
-17.641047 48.238586 -6.102095
-17.630123 48.246288 -5.832277
-17.673592 48.245209 -5.840903
-17.624228 48.237057 -6.025733
-17.725248 48.250469 -5.689848
-17.652355 48.249886 -5.857854
-17.598013 48.244915 -5.918478
-17.665611 48.256432 -5.617008
-17.669958 48.247276 -5.890911
-17.576578 48.230888 -6.204739
-17.594639 48.237301 -6.053631
-17.567734 48.229286 -6.210506
-17.711651 48.253239 -5.650338
-17.558037 48.228500 -6.248499
-17.703403 48.257217 -5.601491
-17.603016 48.238689 -6.078151
-17.572056 48.243282 -6.085533
-17.622200 48.256226 -5.743968
-17.558632 48.240768 -6.108827
-17.686211 48.262566 -5.557348
-17.575365 48.245335 -5.967671
-17.659174 48.260452 -5.637245
-17.544329 48.253372 -6.027591
-17.517279 48.241890 -6.059065
-17.560530 48.244308 -6.012983
-17.607218 48.240543 -5.913902
-17.546556 48.240459 -6.135340
-17.646645 48.252110 -5.664808
-17.506250 48.240318 -6.072594
-17.607237 48.253235 -5.791332
-17.528236 48.244602 -5.977746
-17.550161 48.248306 -6.153984
-17.593086 48.245525 -5.883372
-17.563900 48.250641 -5.831335
-17.523026 48.236652 -6.179378
-17.563896 48.240616 -6.087396
-17.600687 48.249912 -5.836924
-17.558109 48.244171 -6.015666
-17.527866 48.245770 -5.911935
-17.655432 48.258579 -5.690334
-17.577585 48.251442 -5.854648
-17.598425 48.259899 -5.623013
-17.593348 48.250614 -5.885379
-17.543688 48.252800 -6.045740
-17.525303 48.247211 -6.191730
-17.502661 48.236294 -6.193518
-17.555162 48.258503 -5.742932
-17.642435 48.262463 -5.652923
-17.604460 48.265575 -5.518662
-17.501736 48.244946 -6.072884
-17.631189 48.263218 -5.605691
-17.531456 48.243252 -6.065275
-17.495935 48.246124 -6.097278
-17.615171 48.264687 -5.562789
-17.512222 48.250740 -5.959089
-17.583227 48.260155 -5.642990
-17.470194 48.249737 -6.016462
-17.481833 48.261784 -6.053454
-17.511568 48.258007 -6.006428
-17.544508 48.249054 -5.907365
-17.490482 48.251400 -6.123703
-17.522888 48.267200 -5.830998
-17.579739 48.257523 -5.667795
-17.549089 48.261242 -5.788525
-17.490606 48.263355 -5.973845
-17.539822 48.257923 -5.879220
-17.472748 48.245239 -6.137294
-17.544638 48.260056 -5.832382
-17.514143 48.257164 -6.077649
-17.488588 48.262341 -5.906803
-17.506493 48.257576 -6.006691
-17.523207 48.261787 -5.852378
-17.551163 48.273010 -5.625826
-17.579914 48.260212 -5.692072
-17.518042 48.252037 -5.879061
-17.470518 48.251228 -6.033716
-17.495169 48.261383 -5.741940
-17.545456 48.269722 -5.523871
-17.451059 48.245373 -6.173479
-17.461002 48.254513 -6.182948
-17.458065 48.260033 -6.064075
-17.556379 48.262993 -5.610596
-17.435837 48.244202 -6.214689
-17.564798 48.263935 -5.655355
-17.447359 48.258793 -6.088773
-17.483673 48.259979 -6.055823
-17.552057 48.270473 -5.567356
-17.522318 48.265099 -5.646889
-17.431149 48.265297 -6.010368
-17.469088 48.265961 -5.953393
-17.403196 48.252731 -6.041721
-17.441891 48.256832 -5.997962
-17.441706 48.257229 -5.830018
-17.417112 48.256882 -5.966898
-17.495031 48.269585 -5.785321
-17.500069 48.266197 -5.902459
-17.420715 48.250046 -6.109157
-17.529734 48.271336 -5.668162
-17.468561 48.256721 -5.874560
-17.424471 48.257877 -6.126812
-17.399687 48.245373 -6.150550
-17.420752 48.259388 -5.900661
-17.471258 48.258698 -5.828416
-17.450916 48.257545 -5.849628
-17.437502 48.253220 -6.063112
-17.436964 48.256390 -5.997236
-17.477312 48.267937 -5.633977
-17.513393 48.264599 -5.693109
-17.463369 48.281670 -5.738900
-17.502434 48.283157 -5.525298
-17.414335 48.258228 -6.025153
-17.470669 48.266941 -5.874754
-17.390139 48.256897 -6.051854
-17.401945 48.257908 -6.161861
-17.386179 48.249584 -6.163641
-17.508495 48.276966 -5.610271
-17.380419 48.255745 -6.076700
-17.495193 48.266098 -5.657981
-17.488298 48.272186 -5.571881
-17.413609 48.258659 -6.043255
-17.364979 48.261372 -6.000447
-17.475288 48.277199 -5.648741
-17.401550 48.262978 -5.945275
-17.361385 48.264053 -6.036280
-17.390484 48.264290 -5.991125
-17.402235 48.270863 -5.827933
-17.368362 48.264633 -5.962481
-17.430367 48.269035 -5.783672
-17.366051 48.256092 -6.097802
-17.460466 48.269512 -5.670893
-17.423386 48.260471 -5.896031
-17.416622 48.265224 -5.870663
-17.356844 48.254707 -6.112615
-17.374121 48.267303 -5.895552
-17.441162 48.283962 -5.635396
-17.419254 48.266220 -5.825534
-17.399899 48.265152 -5.846893
-17.380953 48.261398 -5.988726
-17.390144 48.264969 -6.053794
-17.501205 48.271210 -5.459577
-17.469599 48.278908 -5.692385
-17.431944 48.275349 -5.532983
-17.387135 48.270164 -5.739700
-17.357508 48.261162 -6.016548
-17.397842 48.262562 -5.868892
-17.344772 48.266846 -6.043873
-17.331516 48.262337 -6.067219
-17.439014 48.274181 -5.615006
-17.338453 48.258038 -6.145210
-17.464699 48.271549 -5.438887
-17.445595 48.283615 -5.572372
-17.324684 48.254929 -6.184642
-17.336485 48.259029 -6.150968
-17.448528 48.279148 -5.656842
-17.313911 48.264847 -5.993717
-17.359545 48.265823 -6.033999
-17.413816 48.277077 -5.652626
-17.306698 48.265171 -6.028024
-17.352200 48.269615 -5.938761
-17.342665 48.268757 -5.827075
-17.336462 48.267502 -5.983952
-17.314211 48.265881 -5.957339
-17.377483 48.273495 -5.781711
-17.408937 48.276188 -5.672141
-17.310806 48.259052 -6.085392
-17.374617 48.270203 -5.890574
-17.359282 48.267223 -5.866040
-17.321856 48.269726 -5.890677
-17.428730 48.272018 -5.421312
-17.307106 48.261196 -6.101998
-17.365850 48.272736 -5.643412
-17.346264 48.268513 -5.843823
-17.366501 48.272640 -5.821544
-17.327980 48.265678 -5.980686
-17.447044 48.276794 -5.465498
-17.326225 48.263165 -6.041150
-17.395746 48.272659 -5.694485
-17.393997 48.289211 -5.534161
-17.340227 48.276134 -5.737609
-17.305519 48.265526 -6.008656
-17.294004 48.270290 -6.035166
-17.345238 48.268970 -5.863913
-17.275091 48.262264 -6.057706
-17.386436 48.279789 -5.617122
-17.427420 48.287506 -5.441148
-17.386095 48.283672 -5.576553
-17.285994 48.263248 -6.133189
-17.282524 48.262043 -6.136727
-17.265951 48.268570 -5.986441
-17.367128 48.285191 -5.654585
-17.378447 48.275246 -5.659480
-17.298347 48.270836 -5.931642
-17.253080 48.265377 -6.019942
-17.295692 48.273746 -5.826000
-17.302116 48.267639 -6.023298
-17.264151 48.267467 -5.951798
-17.282459 48.268734 -5.977821
-17.325821 48.277035 -5.778936
-17.350719 48.276302 -5.674491
-17.273680 48.272488 -5.885406
-17.365791 48.281559 -5.415728
-17.262224 48.263638 -6.074976
-17.405396 48.296108 -5.420512
-17.323101 48.281200 -5.645962
-17.302862 48.268326 -5.862581
-17.321346 48.274517 -5.884512
-17.257536 48.265694 -6.091436
-17.296570 48.272228 -5.841343
-17.313103 48.274994 -5.817513
-17.409828 48.293736 -5.466746
-17.333721 48.283234 -5.540330
-17.276144 48.270031 -5.971806
-17.274538 48.267502 -6.031281
-17.289505 48.276806 -5.737039
-17.350321 48.282810 -5.693574
-17.251818 48.266731 -6.000548
-17.240686 48.270466 -6.025107
-17.229315 48.267132 -6.048722
-17.335505 48.287479 -5.580007
-17.364172 48.284416 -5.451887
-17.340046 48.287876 -5.617105
-17.290834 48.273209 -5.858693
-17.235825 48.266632 -6.120528
-17.221844 48.273643 -5.979730
-17.233105 48.266525 -6.125176
-17.308867 48.282345 -5.658993
-17.208008 48.268383 -6.014124
-17.246853 48.275585 -5.825698
-17.251139 48.275661 -5.925477
-17.334007 48.285484 -5.658717
-17.221479 48.273758 -5.948321
-17.236319 48.272652 -5.971829
-17.249464 48.269909 -6.014323
-17.277264 48.280823 -5.775617
-17.326450 48.291424 -5.421808
-17.227476 48.275425 -5.880430
-17.301331 48.281162 -5.676088
-17.340967 48.289986 -5.434148
-17.273666 48.283100 -5.649615
-17.212675 48.266159 -6.065455
-17.257238 48.274353 -5.858662
-17.206488 48.266018 -6.079695
-17.266212 48.275677 -5.879224
-17.251631 48.278374 -5.839549
-17.295214 48.292027 -5.541493
-17.361849 48.293610 -5.428167
-17.256853 48.274105 -5.814106
-17.249643 48.283382 -5.734993
-17.225483 48.270504 -5.964168
-17.342896 48.287304 -5.476974
-17.226791 48.272194 -6.022002
-17.294374 48.283070 -5.694244
-17.194029 48.272274 -6.017044
-17.203106 48.269356 -5.992164
-17.288256 48.290527 -5.581951
-17.320160 48.290852 -5.457308
-17.189878 48.275627 -6.042670
-17.281935 48.285015 -5.620525
-17.175207 48.273472 -5.972708
-17.264551 48.287632 -5.660339
-17.168743 48.274891 -6.008125
-17.242340 48.277977 -5.854359
-17.189362 48.271378 -6.109420
-17.202169 48.278744 -5.823984
-17.181370 48.266731 -6.111312
-17.204182 48.277500 -5.919391
-17.178230 48.276955 -5.943788
-17.191248 48.275658 -5.966012
-17.279861 48.287910 -5.659630
-17.229710 48.282722 -5.773486
-17.201653 48.273621 -6.006061
-17.274254 48.290268 -5.432167
-17.185127 48.279709 -5.876018
-17.231255 48.287582 -5.652271
-17.293955 48.293198 -5.441184
-17.252258 48.284016 -5.676750
-17.208099 48.275047 -5.854285
-17.169018 48.271183 -6.055779
-17.203262 48.278191 -5.837323
-17.163666 48.271145 -6.071155
-17.219923 48.279610 -5.874222
-17.240913 48.287560 -5.547534
-17.203995 48.284477 -5.734172
-17.209364 48.276985 -5.810961
-17.297148 48.292549 -5.481139
-17.309828 48.297379 -5.434440
-17.178591 48.273323 -5.957067
-17.301113 48.296474 -5.391661
-17.179214 48.274891 -6.012777
-17.246437 48.285995 -5.694064
-17.150242 48.275337 -6.009398
-17.160969 48.274605 -5.985749
-17.237171 48.290249 -5.584374
-17.145340 48.277596 -6.033914
-17.265306 48.289402 -5.465247
-17.136929 48.280071 -5.966857
-17.235651 48.290127 -5.621578
-17.128662 48.279320 -6.002031
-17.214449 48.287437 -5.662910
-17.160442 48.282166 -5.822712
-17.136049 48.279247 -5.939429
-17.140516 48.270866 -6.097013
-17.194016 48.280750 -5.850078
-17.160997 48.281681 -5.913844
-17.143368 48.275272 -6.102442
-17.148962 48.280922 -5.960587
-17.185112 48.284889 -5.771798
-17.140997 48.279850 -5.872405
-17.238167 48.300369 -5.436714
-17.230791 48.290764 -5.660293
-17.152275 48.274151 -5.996593
-17.179224 48.283257 -5.656630
-17.249964 48.297657 -5.447648
-17.212999 48.291706 -5.676805
-17.168386 48.281605 -5.851252
-17.128166 48.276489 -6.047534
-17.163549 48.284748 -5.834291
-17.162354 48.286907 -5.732927
-17.124699 48.277622 -6.063179
-17.172733 48.282459 -5.869101
-17.171537 48.284718 -5.808197
-17.245464 48.292332 -5.487517
-17.137442 48.278660 -5.950800
-17.254076 48.294846 -5.442258
-17.231005 48.281898 -5.407589
-17.140013 48.282379 -6.005764
-17.205357 48.293495 -5.692836
-17.110226 48.280746 -6.002290
-17.184090 48.284859 -5.589600
-17.106394 48.282097 -6.026979
-17.129311 48.286781 -5.979811
-17.204624 48.279514 -5.476466
-17.095882 48.282433 -5.961658
-17.092285 48.285110 -5.997490
-17.185869 48.287930 -5.623212
-17.164454 48.284271 -5.666548
-17.098539 48.284966 -5.935730
-17.122738 48.286301 -5.909034
-17.151583 48.286034 -5.845641
-17.102514 48.279408 -6.088144
-17.108818 48.284370 -5.955508
-17.141735 48.286129 -5.769295
-17.099945 48.279285 -6.091805
-17.207041 48.301205 -5.454286
-17.169399 48.281563 -5.662293
-17.114962 48.282810 -5.989850
-17.166153 48.291748 -5.677841
-17.088385 48.280888 -6.039464
-17.087616 48.285271 -6.055472
-17.132420 48.287903 -5.863970
-17.122503 48.282440 -5.804889
-17.187031 48.284569 -5.496012
-17.187334 48.284351 -5.413118
-17.099247 48.286694 -5.997547
-17.164446 48.299000 -5.691660
-17.153891 48.296288 -5.587938
-17.156000 48.276585 -5.484354
-17.105484 48.285995 -5.841735
-17.064682 48.285957 -6.079329
-17.062347 48.284824 -6.082026
-17.161354 48.300518 -5.461576
-17.129276 48.303246 -5.551759
-17.126453 48.285912 -5.661839
-17.092125 48.291367 -5.859881
-17.145628 48.287163 -5.499858
-17.137810 48.280342 -5.420885
-17.157230 48.302784 -5.372939
-17.099264 48.285740 -5.593000
-17.118517 48.281513 -5.487749
-17.021683 48.284996 -6.068823
-17.117634 48.300011 -5.469161
-17.105358 48.289837 -5.502864
-17.115782 48.302425 -5.378841
-17.072285 48.295341 -5.476556
