# .PCD v0.7 - Point Cloud Data file format
VERSION 0.7
FIELDS x y z
SIZE 4 4 4
TYPE F F F
COUNT 1 1 1
WIDTH 12
HEIGHT 1
VIEWPOINT 0 0 0 1
POINTS 12
DATA ascii
-0.633660 18.154518 2.269919
-0.637029 18.147398 2.284214
-0.596814 18.110790 2.281433
-0.590712 17.999552 2.274119
-0.573659 18.124565 2.294032
-0.576658 18.110878 2.300379
-0.535751 18.071068 2.302827
-0.513476 18.081926 2.313732
-0.517217 18.076862 2.317436
-0.475591 18.031137 2.323818
-0.453668 18.034199 2.331671
-0.458584 18.038090 2.333569
