# .PCD v0.7 - Point Cloud Data file format
VERSION 0.7
FIELDS x y z
SIZE 4 4 4
TYPE F F F
COUNT 1 1 1
WIDTH 29
HEIGHT 1
VIEWPOINT 0 0 0 1
POINTS 29
DATA ascii
-17.186380 44.698402 -4.432232
-17.195229 44.670193 -4.431828
-17.188431 44.716206 -4.427978
-17.179924 44.721443 -4.430260
-17.203440 44.766338 -4.443448
-17.190462 44.871185 -4.428242
-17.203674 44.831097 -4.500361
-17.210064 44.816036 -4.503118
-17.201065 44.832882 -4.492709
-17.208540 44.834682 -4.491012
-17.216993 44.903389 -4.520897
-17.219736 44.953053 -4.477965
-17.286312 44.781509 -4.474077
-17.223858 45.006126 -4.449437
-17.322989 44.698715 -4.441117
-17.207600 45.101192 -4.440064
-17.277752 44.794746 -4.477125
-17.275270 44.823109 -4.486884
-17.254051 45.017448 -4.515999
-17.334442 44.776028 -4.461123
-17.222795 45.145546 -4.529096
-17.360155 44.765610 -4.464327
-17.238129 45.155437 -4.470581
-17.352699 44.765778 -4.465989
-17.359848 44.772488 -4.461006
-17.352190 44.982914 -4.436121
-17.360479 44.914505 -4.462454
-17.244759 45.257023 -4.528538
-17.352203 45.143543 -4.458220
