# .PCD v0.7 - Point Cloud Data file format
VERSION 0.7
FIELDS x y z
SIZE 4 4 4
TYPE F F F
COUNT 1 1 1
WIDTH 87
HEIGHT 1
VIEWPOINT 0 0 0 1
POINTS 87
DATA ascii
-2.208692 17.742863 0.388690
-2.039071 17.731600 -0.068294
-2.083230 17.783957 0.025650
-2.237632 17.776100 0.478073
-2.218003 17.995008 0.384094
-2.079709 17.906807 0.014938
-1.899330 17.831587 -0.423110
-2.095346 17.763987 0.071442
-2.067040 17.792768 0.010188
-2.041903 18.003681 -0.102729
-2.226157 18.139351 0.382185
-2.090207 18.054682 -0.000923
-1.744837 17.859081 -0.839809
-2.093268 17.881367 0.063205
-1.914617 18.000778 -0.462862
-1.926292 17.783644 -0.372780
-1.869954 17.993305 -0.574107
-2.256015 18.029436 0.479287
-2.107393 17.753126 0.101211
-2.095895 17.747017 0.093641
-1.896301 17.794542 -0.430233
-2.238243 18.296661 0.380656
-1.744618 17.756041 -0.802138
-2.114437 18.040604 0.048719
-1.925698 18.175745 -0.504003
-1.909960 17.897058 -0.388153
-1.868425 18.156935 -0.613461
-2.263829 18.165716 0.481599
-2.099646 17.860500 0.098040
-2.075432 18.063866 -0.018403
-2.112366 18.388479 -0.033284
-2.256137 18.477211 0.378370
-1.931465 17.777931 -0.342930
-2.117616 17.753941 0.131038
-1.770765 17.902460 -0.795721
-1.903410 18.308666 -0.523849
-1.902630 18.029238 -0.411056
-1.931240 17.850321 -0.351872
-2.281500 18.326038 0.482174
-1.864794 18.327168 -0.651998
-2.131637 18.029406 0.083161
-1.787564 17.767052 -0.712270
-2.104712 17.999260 0.071723
-1.902244 18.096201 -0.497910
-1.792162 17.801098 -0.724488
-2.056865 18.505110 -0.162940
-1.967372 17.750492 -0.253158
-2.116690 17.868298 0.129128
-1.761139 18.045540 -0.835489
-1.922504 18.530073 -0.575287
-1.942585 18.004152 -0.380806
-1.922999 18.218180 -0.452337
-1.952099 17.816591 -0.317813
-2.299119 18.495699 0.485112
-1.774703 17.891741 -0.743830
-1.868480 18.527077 -0.700138
-2.100377 18.400322 -0.055419
-1.899721 18.252930 -0.529717
-1.833277 17.770916 -0.618728
-1.962221 17.867371 -0.271469
-2.144826 18.027910 0.118221
-2.319806 18.357719 0.581646
-2.134660 18.045774 0.156894
-1.957859 18.175861 -0.413475
-1.773030 18.042078 -0.787599
-1.816582 17.880461 -0.641860
-2.083925 18.538965 -0.062708
-1.784255 18.091583 -0.801562
-1.928372 18.195555 -0.422274
-2.334152 18.514832 0.588316
-2.145566 18.187147 0.146577
-1.818779 18.001131 -0.733334
-1.932539 18.585613 -0.520444
-2.117649 18.439981 0.037940
-2.151841 18.485565 0.062424
-1.765800 18.194965 -0.829802
-1.825790 18.042559 -0.689126
-1.911052 18.641640 -0.615724
-1.774930 18.246185 -0.838812
-2.156880 18.340261 0.136379
-1.953769 18.233736 -0.374930
-1.822073 18.191771 -0.726974
-1.935909 18.545055 -0.489918
-2.170939 18.480398 0.107634
-2.165781 18.495905 0.127480
-1.987692 18.622702 -0.437863
-1.802699 18.474382 -0.840195
