# .PCD v0.7 - Point Cloud Data file format
VERSION 0.7
FIELDS x y z
SIZE 4 4 4
TYPE F F F
COUNT 1 1 1
WIDTH 230
HEIGHT 1
VIEWPOINT 0 0 0 1
POINTS 230
DATA ascii
-23.864521 47.779934 -8.411188
-23.790932 47.779186 -8.719168
-23.631964 47.759678 -8.853772
-23.672007 47.765877 -8.804292
-23.920992 47.776699 -8.216345
-23.560747 47.764790 -8.981584
-23.606327 47.769775 -8.917068
-23.621731 47.781944 -8.535868
-23.538071 47.796009 -8.327167
-23.759352 47.793575 -8.263188
-23.442747 47.795200 -8.644192
-23.450125 47.794487 -8.599396
-23.657091 47.776417 -8.094003
-23.427755 47.781597 -8.643936
-23.458536 47.782532 -8.249647
-23.526930 47.790638 -8.608369
-23.381521 47.790096 -8.691483
-23.332575 47.782978 -8.731976
-23.441040 47.780838 -8.354191
-23.610218 47.801872 -8.149616
-23.342836 47.784454 -8.753973
-23.257549 47.785820 -8.843987
-23.307747 47.793137 -8.789238
-23.286343 47.798260 -8.350687
-23.497107 47.819233 -8.055336
-23.277702 47.811249 -8.434790
-23.233624 47.805237 -8.449582
-23.321978 47.800652 -8.441155
-23.205841 47.799099 -8.442205
-23.281977 47.814754 -8.261477
-23.406591 47.822910 -7.978509
-23.273249 47.804352 -8.094692
-23.441284 47.811661 -8.186931
-23.187138 47.811501 -8.507556
-23.158657 47.807545 -8.540695
-23.219704 47.804516 -8.187123
-23.151218 47.799187 -8.541677
-23.355536 47.796532 -8.033235
-23.245619 47.810646 -8.508823
-23.089859 47.804161 -8.633758
-23.114517 47.807755 -8.588997
-23.169394 47.796383 -8.276434
-23.340179 47.821808 -8.092201
-23.189056 47.824711 -8.314672
-23.079031 47.803947 -8.645136
-23.040298 47.811169 -8.277626
-23.147842 47.808140 -8.381739
-23.030979 47.810505 -8.742320
-23.067749 47.817162 -8.686609
-23.253971 47.838261 -8.009279
-23.026819 47.821754 -8.356076
-22.988474 47.816208 -8.369481
-23.086094 47.820656 -8.364891
-22.967941 47.812340 -8.363263
-23.182648 47.840836 -7.941453
-23.053770 47.830578 -8.203260
-23.055098 47.819996 -8.044775
-22.971827 47.830452 -8.432353
-22.942617 47.826668 -8.461088
-23.197506 47.834080 -8.127064
-23.022461 47.826141 -8.136249
-22.929567 47.816925 -8.459310
-23.125048 47.819481 -7.892691
-23.124548 47.819389 -7.986684
-23.017401 47.831997 -8.428617
-22.959757 47.837811 -8.248809
-22.904501 47.827347 -8.507038
-22.862352 47.819675 -8.542290
-22.963459 47.819077 -8.216622
-23.109766 47.841667 -8.042699
-22.836042 47.816181 -8.544765
-22.876419 47.835480 -8.228564
-22.909090 47.821404 -8.305660
-23.031105 47.852184 -7.967333
-22.833803 47.837158 -8.296057
-22.811354 47.827435 -8.642795
-22.845905 47.833229 -8.590591
-22.798340 47.832382 -8.307202
-22.863642 47.846439 -8.154576
-22.979464 47.855640 -7.907605
-22.870264 47.835487 -8.296855
-22.794014 47.833847 -8.304867
-22.880470 47.839138 -8.004994
-22.757151 47.839287 -8.358419
-22.739573 47.837353 -8.387563
-22.977610 47.851994 -8.073456
-22.822838 47.840023 -8.083623
-22.929390 47.844479 -7.776331
-22.716562 47.827709 -8.380647
-22.929258 47.838619 -7.856898
-22.902979 47.834278 -7.940938
-22.792206 47.842014 -8.348322
-22.766344 47.851154 -8.192852
-22.662706 47.831200 -8.461429
-22.698833 47.838406 -8.428522
-22.901712 47.855221 -7.996904
-22.766247 47.832821 -8.159501
-22.695950 47.847504 -8.174475
-22.650116 47.833252 -8.469118
-22.839493 47.865932 -7.929698
-22.672878 47.856194 -8.245819
-22.641598 47.849014 -8.256158
-22.732597 47.842136 -8.248565
-22.647432 47.844723 -8.505902
-22.614254 47.840885 -8.554337
-22.785492 47.863480 -7.875544
-22.685987 47.859005 -8.108662
-22.609303 47.843456 -8.243214
-22.703558 47.851524 -7.963490
-22.698324 47.853733 -8.241159
-22.565075 47.848007 -8.323796
-22.598736 47.856194 -8.302679
-22.653000 47.853767 -8.040089
-22.790838 47.868462 -8.027871
-22.744104 47.855389 -7.747956
-22.560080 47.845486 -8.322352
-22.733244 47.848728 -7.822107
-22.607769 47.866837 -8.147521
-22.620689 47.859329 -8.287527
-22.725225 47.852657 -7.904376
-22.510242 47.848652 -8.400180
-22.707638 47.864292 -7.955389
-22.536276 47.853889 -8.365243
-22.608931 47.851383 -8.114541
-22.538511 47.859100 -8.127414
-22.515627 47.866791 -8.197773
-22.675291 47.878845 -7.898340
-22.483780 47.847229 -8.400506
-22.484278 47.859692 -8.204955
-22.548376 47.852650 -8.189140
-22.639666 47.880444 -7.850830
-22.435959 47.849270 -8.474771
-22.452093 47.848866 -8.422192
-22.542505 47.874001 -8.072123
-22.550812 47.862389 -7.928319
-22.468292 47.860458 -8.195920
-22.530266 47.865524 -8.187713
-22.448303 47.869225 -8.250430
-22.427891 47.865681 -8.274531
-22.615580 47.869255 -7.652175
-22.500872 47.865685 -7.999873
-22.603151 47.872837 -7.724725
-22.615192 47.880745 -7.985695
-22.395866 47.853050 -8.261727
-22.577633 47.863720 -7.794406
-22.458416 47.878536 -8.105015
-22.469912 47.875435 -8.234111
-22.372713 47.864502 -8.344539
-22.564135 47.868320 -7.870814
-22.559019 47.880718 -7.922498
-22.392263 47.868374 -8.309718
-22.457127 47.864368 -8.070234
-22.367043 47.874493 -8.151335
-22.520809 47.889748 -7.868907
-22.487904 47.888981 -7.825375
-22.392435 47.880665 -8.033598
-22.411886 47.873821 -7.896317
-22.300848 47.864986 -8.414638
-22.335531 47.872532 -8.372924
-22.344210 47.876656 -8.154841
-22.390289 47.879364 -8.142830
-22.449257 47.888035 -7.944406
-22.559797 47.897366 -7.581818
-22.273062 47.870213 -8.216849
-22.310568 47.883080 -8.061945
-22.568020 47.902649 -7.621987
-22.415613 47.891575 -7.891215
-22.325010 47.885880 -8.183550
-22.397671 47.904461 -7.844847
-22.119724 47.874172 -8.003673
-22.082512 47.878246 -8.074895
-22.151108 47.881866 -7.836524
-22.287844 47.898006 -7.500765
-22.062767 47.877499 -8.060530
-22.203501 47.882065 -7.598446
-22.099693 47.872158 -8.044730
-22.044033 47.884251 -8.110200
-22.024328 47.879768 -8.128247
-22.263544 47.899899 -7.522641
-22.097448 47.882816 -7.895443
-22.175728 47.884430 -7.658991
-22.234735 47.890026 -7.551579
-22.060190 47.893402 -7.989630
-21.996168 47.870796 -8.114510
-22.145851 47.879025 -7.716862
-22.018816 47.883812 -7.973868
-22.249714 47.900806 -7.585421
-22.136087 47.896500 -7.829877
-21.959850 47.872936 -8.178693
-21.984406 47.880127 -8.152707
-21.994160 47.888874 -8.035328
-22.045429 47.878654 -7.950728
-22.040407 47.888187 -8.083026
-21.971325 47.882023 -8.038836
-22.107098 47.899323 -7.788541
-22.116837 47.881500 -7.778076
-22.097345 47.900955 -7.759391
-22.019709 47.894577 -7.937504
-22.051304 47.891247 -7.813331
-22.184130 47.908398 -7.494147
-21.961590 47.885235 -8.027511
-21.941553 47.876747 -8.178347
-22.098684 47.889729 -7.584183
-21.930178 47.881397 -8.199949
-21.906492 47.876865 -8.237693
-21.997013 47.891968 -8.017448
-21.994081 47.883373 -8.010341
-21.938492 47.890488 -8.073762
-21.925375 47.888367 -8.091722
-22.162819 47.912052 -7.513790
-21.998529 47.892174 -7.869380
-22.066549 47.890598 -7.641308
-22.144342 47.907200 -7.541680
-21.955751 47.899380 -7.959801
-22.044039 47.901237 -7.844643
-21.909981 47.885048 -8.082904
-21.927523 47.893440 -7.946995
-22.046347 47.890312 -7.696884
-22.138832 47.911076 -7.571380
-21.905052 47.898296 -8.008078
-22.028864 47.904613 -7.806507
-21.889355 47.889317 -8.117366
-21.872541 47.886375 -8.143610
-21.950445 47.889679 -7.922721
-21.878513 47.889854 -8.009415
-22.012331 47.910107 -7.770012
-21.941376 47.898781 -8.047509
-21.997686 47.907196 -7.741477
-21.953009 47.896454 -7.790609
-22.007435 47.889820 -7.755084
