# .PCD v0.7 - Point Cloud Data file format
VERSION 0.7
FIELDS x y z
SIZE 4 4 4
TYPE F F F
COUNT 1 1 1
WIDTH 41
HEIGHT 1
VIEWPOINT 0 0 0 1
POINTS 41
DATA ascii
-21.230021 44.067699 -5.971545
-21.291822 44.093121 -5.992509
-21.269268 44.466602 -6.024191
-21.309052 44.236088 -6.074043
-21.320801 44.478443 -6.037979
-21.334284 44.574955 -6.100267
-21.239187 44.216473 -6.003077
-21.287127 44.115459 -5.990440
-21.298985 44.229034 -6.024662
-21.306627 44.238113 -6.065653
-21.251463 44.084236 -6.010650
-21.319527 44.340485 -6.098295
-21.281380 44.098846 -5.989347
-21.319613 44.087612 -6.031845
-21.299191 44.222687 -6.067134
-21.293488 44.907341 -6.032229
-21.339222 44.219170 -6.114250
-21.409290 44.097988 -6.017722
-21.246109 44.865250 -6.026873
-21.337862 44.918140 -6.044832
-21.272352 44.825138 -6.036800
-21.336231 44.953304 -6.059433
-21.294441 44.863529 -6.034642
-21.345524 44.997349 -6.104523
-21.318016 44.841614 -6.058086
-21.338879 44.874252 -6.050404
-21.362574 44.859234 -6.080047
-21.338730 44.969376 -6.122039
-21.548277 43.160206 -5.402773
-21.208599 44.124866 -6.051477
-21.630009 43.168240 -5.427128
-21.290270 44.072941 -6.036544
-21.269705 44.399391 -6.113618
-21.354868 44.085373 -6.053313
-21.770254 43.578423 -5.149804
-21.683769 43.925835 -5.286383
-21.354948 44.328030 -6.085646
-21.256754 44.912991 -6.084321
-21.300804 44.923180 -6.094738
-21.359968 44.905430 -6.085485
-21.338341 45.017044 -6.098797
