# .PCD v0.7 - Point Cloud Data file format
VERSION 0.7
FIELDS x y z
SIZE 4 4 4
TYPE F F F
COUNT 1 1 1
WIDTH 17
HEIGHT 1
VIEWPOINT 0 0 0 1
POINTS 17
DATA ascii
1.226324 25.129927 0.910419
1.235686 25.114513 0.886839
1.231108 24.946980 0.937673
1.238825 24.922886 0.916648
1.205489 24.988117 0.969588
1.189780 24.959642 1.012731
1.190985 25.044867 1.005131
1.308759 24.975143 0.692331
1.175604 25.123150 1.021702
1.160873 25.008291 1.113178
1.215983 24.829769 0.993532
1.195004 24.864246 1.021951
1.114089 25.052404 1.208610
1.304075 24.798216 0.724749
1.184016 24.945295 1.037100
1.164121 24.836596 1.130911
1.124581 24.895828 1.226124
