# .PCD v0.7 - Point Cloud Data file format
VERSION 0.7
FIELDS x y z
SIZE 4 4 4
TYPE F F F
COUNT 1 1 1
WIDTH 80
HEIGHT 1
VIEWPOINT 0 0 0 1
POINTS 80
DATA ascii
-1.999363 16.311304 0.301917
-2.105599 16.433498 0.467465
-2.082603 16.398811 0.416110
-2.127586 16.375395 0.608880
-2.009659 16.445623 0.295036
-2.116626 16.572357 0.473786
-2.059205 16.385174 0.368008
-1.923940 16.456860 -0.034404
-2.083485 16.363873 0.509292
-2.095499 16.544714 0.418552
-1.971741 16.431175 0.209127
-2.134706 16.507292 0.614107
-2.044297 16.397701 0.302330
-1.822752 16.421719 -0.174823
-2.016708 16.580954 0.290503
-1.905804 16.474504 -0.078042
-1.936525 16.392309 0.129826
-1.782215 16.357225 -0.247879
-2.125254 16.718472 0.481790
-2.072728 16.534283 0.365225
-1.666926 16.360273 -0.573840
-1.926180 16.603788 -0.045048
-2.095925 16.678377 0.422728
-2.090657 16.504992 0.510611
-1.760616 16.541315 -0.510297
-1.979250 16.576086 0.201525
-1.902313 16.368015 0.043878
-1.737655 16.459944 -0.538404
-1.820600 16.563848 -0.196772
-2.049034 16.538525 0.297819
-1.868973 16.410360 -0.165968
-2.027625 16.735180 0.284441
-1.887042 16.509230 -0.122596
-1.916195 16.642872 -0.096948
-1.945505 16.545752 0.116723
-2.179261 16.944838 0.484939
-1.781937 16.507326 -0.274099
-1.659549 16.511614 -0.612595
-2.071853 16.671448 0.367375
-1.959168 16.813053 -0.069645
-1.756753 16.444511 -0.350589
-2.139499 16.893200 0.421570
-1.754060 16.694460 -0.537123
-1.988467 16.735302 0.191814
-1.718610 16.371834 -0.424932
-2.112234 16.677519 0.511877
-1.906943 16.525160 0.026587
-1.741696 16.635563 -0.578694
-1.820574 16.722485 -0.220773
-2.057067 16.929699 0.273748
-2.050461 16.687693 0.294977
-1.873842 16.573112 -0.190507
-1.722751 16.564938 -0.609697
-1.888123 16.667068 -0.140837
-1.942554 16.848433 -0.122688
-1.958777 16.721207 0.101760
-1.662591 16.688990 -0.661479
-1.790156 16.685608 -0.308031
-1.700207 16.503073 -0.653366
-2.117811 16.894627 0.360344
-1.984340 17.024162 -0.090013
-1.751140 16.603958 -0.380518
-2.174017 17.106033 0.423294
-1.782241 16.931456 -0.593692
-2.010392 16.930902 0.178395
-2.144246 16.879959 0.512088
-1.715372 16.537806 -0.459957
-1.764738 16.862692 -0.638102
-1.915414 16.696581 0.009725
-2.108063 16.938923 0.279953
-1.890722 16.774347 -0.224055
-1.918656 16.891661 -0.175446
-1.977250 16.917572 0.084952
-2.149801 17.109892 0.357524
-1.694189 16.679440 -0.699754
-1.760792 16.801767 -0.422192
-1.715729 16.727875 -0.502144
-1.934873 16.905687 -0.012930
-2.125540 17.140192 0.274662
-1.907891 16.990568 -0.258118
