# .PCD v0.7 - Point Cloud Data file format
VERSION 0.7
FIELDS x y z
SIZE 4 4 4
TYPE F F F
COUNT 1 1 1
WIDTH 272
HEIGHT 1
VIEWPOINT 0 0 0 1
POINTS 272
DATA ascii
1.458447 22.447769 0.888715
1.460287 22.435947 0.878250
1.455495 22.405542 0.908783
1.423303 22.426693 0.966823
1.451160 22.441317 0.887582
1.459213 22.393944 0.898967
1.451581 22.439306 0.893216
1.413942 22.432308 1.001177
1.416482 22.441378 0.993943
1.437530 22.362440 0.923271
1.423178 22.385698 0.987493
1.451704 22.398684 0.906898
1.368349 22.447134 1.143198
1.456294 22.353537 0.918282
1.454153 22.434193 0.890785
1.447087 22.396479 0.911771
1.415119 22.391979 1.020926
1.424812 22.426657 0.987268
1.451558 22.438652 0.912136
1.332909 22.459768 1.219704
1.406581 22.449080 1.016976
1.412352 22.399118 1.011241
1.438328 22.320654 0.944632
1.417996 22.343603 1.007769
1.441963 22.356680 0.921865
1.364423 22.403864 1.163310
1.421882 22.416199 0.968728
1.447532 22.390324 0.906619
1.447337 22.310080 0.937635
1.433615 22.447788 0.930246
1.444836 22.354445 0.929719
1.417268 22.383593 1.002396
1.444018 22.395588 0.927266
1.406865 22.348719 1.038166
1.453073 22.422621 0.882711
1.351801 22.456671 1.194031
1.439968 22.433577 0.916798
1.332182 22.418304 1.239167
1.274811 22.471407 1.392750
1.346452 22.427610 1.185657
1.403751 22.407488 1.033352
1.393468 22.454544 1.031615
1.408197 22.355938 1.028913
1.434769 22.277948 0.963495
1.414092 22.301256 1.027498
1.357505 22.450150 1.164551
1.442505 22.314058 0.941163
1.447845 22.347788 0.923481
1.353022 22.361544 1.180058
1.440639 22.268324 0.956009
1.423110 22.372854 0.986294
1.437088 22.405226 0.947220
1.442218 22.311850 0.948909
1.406560 22.340557 1.017411
1.404242 22.306120 1.057353
1.434575 22.351385 0.942119
1.449036 22.379171 0.897080
1.347064 22.413931 1.210131
1.437464 22.390709 0.932685
1.325564 22.375343 1.254614
1.337812 22.444798 1.210972
1.267114 22.427683 1.411554
1.395675 22.413145 1.048749
1.349457 22.385670 1.206796
1.400533 22.364418 1.051348
1.361648 22.441700 1.124890
1.407815 22.314119 1.047505
1.429007 22.236301 0.982191
1.406449 22.259386 1.045544
1.351577 22.406467 1.178265
1.436492 22.271580 0.957802
1.430182 22.226124 0.973078
1.442498 22.303669 0.938765
1.414623 22.329679 1.001090
1.350966 22.318493 1.200812
1.432429 22.360382 0.960771
1.436204 22.269369 0.965546
1.396941 22.263887 1.074531
1.416808 22.297756 1.039471
1.437335 22.308622 0.961199
1.444994 22.335722 0.911445
1.335155 22.369947 1.222757
1.434360 22.347370 0.947375
1.329718 22.460192 1.229195
1.322951 22.333654 1.273418
1.338342 22.402164 1.230267
1.243010 22.383179 1.419567
1.342150 22.343431 1.223973
1.395957 22.369686 1.065985
1.397654 22.320986 1.068472
1.362292 22.398798 1.140881
1.400493 22.270967 1.065060
1.431075 22.194254 1.002998
1.343423 22.362926 1.192190
1.401599 22.216927 1.064939
1.434189 22.227703 0.976494
1.440583 22.261271 0.955836
1.436923 22.183710 0.995889
1.345192 22.276834 1.219504
1.415844 22.286331 1.018648
1.431179 22.316343 0.976487
1.392454 22.221983 1.092680
1.429227 22.225861 0.982233
1.409254 22.254690 1.054586
1.428846 22.265451 0.975990
1.445967 22.291544 0.926945
1.253562 22.415661 1.451844
1.332289 22.327427 1.239499
1.429354 22.302889 0.961789
1.327197 22.417313 1.245074
1.264470 22.436634 1.416328
1.315983 22.291054 1.289724
1.332316 22.359673 1.246901
1.330489 22.300280 1.238652
1.392915 22.278252 1.084563
1.394702 22.325642 1.081698
1.361356 22.353470 1.156105
1.395066 22.228954 1.082883
1.431262 22.151983 1.023149
1.406113 22.174644 1.087963
1.340879 22.319128 1.208442
1.431925 22.185663 0.994426
1.433010 22.141357 1.015606
1.442720 22.217112 0.974093
1.340333 22.234365 1.238895
1.408611 22.241987 1.033272
1.424313 22.272558 0.989868
1.429758 22.183231 1.001518
1.399475 22.211765 1.069914
1.393554 22.178900 1.113535
1.429126 22.221991 0.993218
1.282118 22.430290 1.379975
1.440020 22.246954 0.941029
1.324725 22.284357 1.254610
1.428101 22.258848 0.977500
1.324330 22.374792 1.261817
1.261939 22.393745 1.432201
1.314302 22.249472 1.308845
1.326630 22.316820 1.262664
1.335935 22.258102 1.262000
1.391243 22.282654 1.097245
1.387212 22.234486 1.100702
1.354482 22.309679 1.169483
1.392774 22.185989 1.101189
1.424528 22.109301 1.041885
1.397499 22.131739 1.106048
1.345822 22.275290 1.227672
1.433714 22.141861 1.013544
1.441119 22.173429 0.990666
1.408312 22.198973 1.048926
1.430950 22.098305 1.036346
1.337921 22.191666 1.260503
1.419644 22.227715 1.003406
1.391855 22.136402 1.133030
1.434020 22.140118 1.022480
1.397527 22.168440 1.087352
1.433732 22.178520 1.013315
1.278374 22.385542 1.393839
1.329000 22.242155 1.275194
1.437826 22.202805 0.956410
1.425562 22.215057 0.993748
1.319903 22.330769 1.277414
1.312617 22.207886 1.327961
1.255031 22.349026 1.445952
1.322453 22.273628 1.280318
1.329535 22.215050 1.279868
1.379330 22.238676 1.109858
1.382466 22.191750 1.116785
1.348843 22.263800 1.183070
1.398543 22.142532 1.124043
1.419990 22.065554 1.060778
1.396372 22.088789 1.127110
1.341393 22.231266 1.243265
1.428604 22.098566 1.030868
1.422356 22.056318 1.054048
1.437637 22.129524 1.006583
1.339262 22.149401 1.283409
1.412296 22.154106 1.068203
1.389557 22.093430 1.151328
1.432644 22.096342 1.041484
1.419301 22.182861 1.019813
1.403638 22.124620 1.109338
1.428371 22.134394 1.028580
1.275200 22.340342 1.409270
1.325163 22.198599 1.291976
1.447217 22.158691 0.975205
1.421484 22.170683 1.008474
1.311738 22.287224 1.291327
1.308434 22.164686 1.345608
1.314539 22.230915 1.296288
1.329340 22.172203 1.301255
1.385781 22.148520 1.137416
1.377720 22.194988 1.126426
1.389349 22.100071 1.140551
1.356578 22.219370 1.203649
1.416410 22.022833 1.079615
1.392102 22.046787 1.147680
1.339777 22.187571 1.259829
1.427225 22.054787 1.049868
1.423448 22.013226 1.074889
1.335904 22.106583 1.304682
1.406952 22.110897 1.083087
1.431334 22.085287 1.021519
1.381278 22.050156 1.168536
1.398865 22.080957 1.125790
1.423992 22.138193 1.036976
1.423774 22.052603 1.057501
1.424540 22.090845 1.045360
1.326591 22.155140 1.311952
1.264877 22.294821 1.420846
1.443459 22.113035 0.989437
1.311051 22.122162 1.367967
1.427115 22.126127 1.025962
1.308265 22.244228 1.306864
1.313172 22.188047 1.314910
1.329140 22.129353 1.322637
1.379842 22.150816 1.144669
1.386596 22.103676 1.156576
1.388881 22.055475 1.160250
1.352489 22.174984 1.218368
1.386272 22.003283 1.167105
1.343405 22.143049 1.279966
1.426186 22.010643 1.067996
1.383302 22.007164 1.189698
1.406256 22.066395 1.100350
1.429701 22.040676 1.038456
1.327847 22.063213 1.324323
1.397823 22.036812 1.143918
1.422391 22.008820 1.076496
1.425864 22.093191 1.053158
1.423846 22.046343 1.062623
1.325543 22.110987 1.330080
1.440315 22.068768 1.004480
1.261696 22.249619 1.436266
1.302187 22.079330 1.383599
1.304423 22.200672 1.323641
1.424887 22.081047 1.041708
1.318927 22.144575 1.337756
1.326464 22.085808 1.342171
1.379940 22.059792 1.172371
1.376669 22.105621 1.160087
1.384332 22.011719 1.179132
1.353047 22.129305 1.235465
1.336149 22.098690 1.294568
1.409290 22.021404 1.119288
1.317335 22.020073 1.341737
1.426187 21.995844 1.054737
1.395839 21.992550 1.161716
1.420815 22.047779 1.067923
1.416252 22.002352 1.078090
1.322269 22.066971 1.348419
1.439368 22.023434 1.019680
1.309426 22.034580 1.408710
1.312054 22.157417 1.347136
1.423594 22.036074 1.057774
1.313775 22.100342 1.355445
1.319684 22.042181 1.361265
1.376905 22.061224 1.177670
1.380405 22.015299 1.192390
1.351746 22.084324 1.251530
1.324238 22.055622 1.306781
1.418924 22.002333 1.082793
1.446709 22.009449 1.439107
1.310061 22.113152 1.364933
1.418542 21.990660 1.072534
1.304908 22.057508 1.371071
1.376174 22.015783 1.195306
1.845905 21.991936 1.519339
1.832546 21.953365 1.601595
1.302772 22.067858 1.379909
1.304054 22.012329 1.392005
1.294244 22.024666 1.394661
