# .PCD v0.7 - Point Cloud Data file format
VERSION 0.7
FIELDS x y z
SIZE 4 4 4
TYPE F F F
COUNT 1 1 1
WIDTH 50
HEIGHT 1
VIEWPOINT 0 0 0 1
POINTS 50
DATA ascii
1.398377 21.852995 1.178778
1.395369 21.856047 1.201721
1.380128 21.871469 1.243481
1.422107 21.862642 1.132149
1.409636 21.876060 1.166609
1.406449 21.836287 1.161326
1.398871 21.849222 1.200239
1.397125 21.850613 1.213983
1.352847 21.863562 1.321525
1.397309 21.805300 1.200810
1.388746 21.810474 1.220654
1.374418 21.825077 1.263121
1.405637 21.873764 1.172958
1.351844 21.872822 1.327640
1.423358 21.850220 1.129833
1.425622 21.841209 1.107957
1.395428 21.841066 1.197716
1.412787 21.816490 1.146794
1.406808 21.827879 1.184683
1.325308 21.884529 1.409246
1.391657 21.803177 1.217975
1.407923 21.787151 1.182654
1.347891 21.877138 1.334668
1.344972 21.819141 1.340618
1.387440 21.803890 1.229869
1.385492 21.763836 1.242511
1.368742 21.779591 1.282377
1.405033 21.825422 1.190818
1.341731 21.863577 1.369149
1.347078 21.826513 1.347604
1.420309 21.802124 1.145463
1.430349 21.790834 1.126475
1.387966 21.794188 1.213388
1.345457 21.875832 1.333123
1.412758 21.767698 1.166218
1.398754 21.780535 1.199160
1.320862 21.836924 1.428722
1.391858 21.754286 1.239835
1.341594 21.830257 1.353109
1.386157 21.756252 1.249450
1.359951 21.838753 1.322154
1.369855 21.729858 1.304939
1.400085 21.776175 1.206164
1.417558 21.751808 1.160974
1.428535 21.740622 1.142313
1.340781 21.828308 1.350159
1.392554 21.743130 1.235581
1.403709 21.730026 1.220109
1.355572 21.789024 1.339079
1.403141 21.724539 1.226834
