# .PCD v0.7 - Point Cloud Data file format
VERSION 0.7
FIELDS x y z
SIZE 4 4 4
TYPE F F F
COUNT 1 1 1
WIDTH 260
HEIGHT 1
VIEWPOINT 0 0 0 1
POINTS 260
DATA ascii
0.646508 23.827425 0.693657
0.801888 23.791670 0.554746
0.702457 23.863073 0.747670
0.697351 23.761557 0.605611
0.753858 23.794186 0.631755
0.685296 23.817652 0.720067
0.806717 23.762661 0.572577
0.628280 23.901928 0.924534
0.647529 23.878447 0.876106
0.715120 23.837582 0.766417
0.752398 23.813354 0.664169
0.689560 23.820673 0.713652
0.781891 23.737556 0.570612
0.707691 23.766079 0.610736
0.649352 23.885323 0.863444
0.771947 23.765516 0.637845
0.780405 23.775330 0.654038
0.683404 23.893017 0.809851
0.739420 23.813313 0.752339
0.718650 23.863724 0.802882
0.769669 23.798223 0.606614
0.793618 23.769382 0.597851
1.392218 23.963425 0.707589
0.650211 23.889305 0.851555
0.647761 23.881870 0.948811
0.682661 23.815619 0.705545
0.653204 23.850592 0.891496
1.263775 24.071548 0.988319
0.738136 23.820225 0.692382
0.713354 23.765326 0.615940
0.770075 23.790016 0.683119
0.738900 23.812963 0.742804
0.776182 23.765968 0.640712
0.649316 23.853958 0.875358
0.708296 23.875666 0.833099
0.791077 23.742809 0.658369
1.360730 23.983267 0.827128
0.669641 23.807220 0.686658
0.738870 23.791153 0.621397
0.791131 23.805437 0.783806
1.175211 24.219603 1.287996
0.783101 23.772919 0.623284
1.280760 24.113569 1.045331
1.375409 23.973637 0.743732
0.715666 23.823780 0.712382
1.402422 23.923206 0.732468
0.647232 23.854845 0.861078
0.735182 23.809797 0.734173
0.671074 23.829042 0.912141
1.194175 24.149786 1.265886
0.718983 23.763475 0.613362
1.294153 24.041088 1.021805
0.763237 23.800739 0.713092
0.676989 23.876574 0.849017
0.783157 23.764992 0.645421
0.815237 23.722767 0.607167
0.763620 23.793833 0.764368
1.349651 24.005474 0.869095
0.670057 23.869570 0.849971
0.987560 23.752411 0.646025
0.802184 23.745699 0.662160
0.662399 23.829041 0.892887
1.165589 24.238798 1.333052
0.823146 23.902227 0.895272
1.374458 23.934879 0.832348
0.736988 23.808193 0.719173
1.362611 23.939075 0.849889
0.776794 23.777327 0.643214
1.306265 23.995163 0.988871
1.176857 24.173746 1.306644
1.372118 23.982368 0.781929
1.267948 24.061468 1.058852
1.385084 23.932930 0.767403
0.750036 23.808428 0.735571
1.403916 23.880280 0.755704
0.658319 23.828798 0.875823
0.750490 23.785694 0.751193
0.804914 23.865606 0.994036
0.785472 23.761314 0.640918
1.191717 24.101908 1.284693
1.293132 23.994736 1.041804
1.324848 24.015238 0.906507
1.166765 24.268242 1.379911
0.696166 23.854801 0.869167
0.804001 23.742620 0.664229
0.817379 23.722477 0.621145
1.404842 23.904152 0.755458
1.316989 23.999002 0.976745
1.349158 23.960518 0.889928
0.680594 23.842110 0.863880
1.420383 23.865114 0.763609
1.379877 23.934250 0.832592
0.719220 23.826248 0.931594
1.152902 24.184662 1.341610
1.261496 24.083450 1.103016
1.382300 23.893906 0.855303
1.358477 23.985823 0.807068
0.749352 23.780994 0.733801
1.366366 23.896997 0.872627
1.312283 23.953932 1.011108
1.135658 24.238749 1.395702
1.177583 24.127758 1.324936
1.377961 23.940264 0.802099
1.270660 24.018419 1.079172
1.396086 23.892925 0.790213
1.312982 24.029510 0.939689
0.692087 23.815018 0.902785
1.404878 23.836868 0.777734
1.315639 23.995539 0.962193
1.225185 24.028393 1.227136
0.808935 23.738506 0.658746
1.190734 24.055588 1.304703
1.333475 23.973558 0.927763
1.164968 24.220629 1.394211
1.286179 23.947012 1.060868
1.237281 24.097221 1.131986
0.834288 23.726046 0.631983
1.380604 23.927420 0.833298
1.400396 23.900351 0.773694
1.410830 23.862900 0.777692
1.319154 23.955452 0.995854
1.353306 23.918085 0.911818
0.692591 23.815283 0.879363
1.402459 23.815653 0.780774
1.382559 23.891182 0.852910
1.236121 24.038422 1.206658
1.253342 24.034800 1.117225
1.170217 24.147793 1.369495
1.387902 23.852102 0.878768
1.320966 23.992573 0.938721
1.368414 23.944832 0.827457
1.364565 23.852270 0.893956
1.313144 23.910608 1.030710
1.174611 24.080315 1.342165
1.381013 23.895920 0.821941
1.267816 23.972721 1.098082
1.392814 23.847557 0.809968
1.314981 23.984190 0.957112
1.394911 23.791754 0.797876
1.240906 24.041618 1.185069
1.225539 23.984596 1.245532
1.324124 23.953014 0.981392
1.381167 23.920485 0.823411
1.186836 24.008013 1.321573
1.332469 23.929035 0.947018
1.241713 24.054520 1.150595
1.401177 23.896420 0.781441
1.285727 23.903002 1.081339
1.376280 23.881983 0.850258
1.410327 23.859358 0.794087
1.320400 23.911772 1.014606
1.396462 23.814056 0.793869
1.348593 23.872101 0.930006
1.233724 24.038963 1.146410
1.397263 23.851730 0.877172
1.393801 23.770323 0.800429
1.177610 24.107290 1.390880
1.224130 23.987476 1.217743
1.248509 23.987980 1.133356
1.331694 23.950882 0.957416
1.364309 23.800989 0.891714
1.373715 23.901325 0.846799
1.361858 23.808329 0.914553
1.309382 23.865692 1.048887
1.380928 23.852446 0.841182
1.165955 24.031206 1.355172
1.270536 23.929686 1.118412
1.387715 23.802839 0.828631
1.316610 23.940147 0.975015
1.233935 23.992830 1.196358
1.213191 23.935852 1.256718
1.394971 23.749134 0.819180
1.323897 23.907785 0.998950
1.384086 23.876209 0.840822
1.235437 24.007988 1.164783
1.327238 23.883478 0.963623
1.184563 23.962843 1.341708
1.410561 23.854017 0.801000
1.285277 23.858999 1.101815
1.391770 23.842737 0.872445
1.390800 23.808422 0.807631
1.310016 23.864128 1.028574
1.389515 23.769068 0.811813
1.343511 23.827396 0.948674
1.243159 23.996599 1.165978
1.361102 23.795597 0.885349
1.228573 23.944792 1.236362
1.250710 23.945372 1.152102
1.333160 23.905073 0.973637
1.369780 23.855537 0.862914
1.355145 23.756100 0.909790
1.364702 23.766132 0.936947
1.313018 23.822792 1.069583
1.374761 23.806746 0.857427
1.189509 23.997423 1.388134
1.265329 23.884151 1.135024
1.384464 23.758404 0.848021
1.314551 23.895565 0.991480
1.230808 23.945450 1.211158
1.215945 23.893753 1.276683
1.316678 23.861113 1.012778
1.385536 23.830393 0.857042
1.237481 23.963615 1.181845
1.325701 23.838476 0.981677
1.390499 23.802591 0.813340
1.163740 23.909292 1.348720
1.282064 23.814594 1.121214
1.359698 23.787712 0.880847
1.390176 23.764460 0.825668
1.315881 23.821144 1.049142
1.353617 23.787277 0.971144
1.245052 23.951374 1.180980
1.358258 23.751730 0.903517
1.233020 23.902111 1.254987
1.251991 23.902630 1.170492
1.364389 23.809128 0.877463
1.327234 23.857262 0.987352
1.287880 23.772982 1.077783
1.385241 23.766262 0.879045
1.269526 23.842672 1.156561
1.315263 23.851398 1.009033
1.230883 23.857029 1.302281
1.235650 23.903328 1.228557
1.314998 23.815268 1.028775
1.364035 23.779266 0.867439
1.236771 23.919752 1.197455
1.321412 23.793987 0.998278
1.378243 23.754665 0.826592
1.194055 23.878168 1.388346
1.287719 23.773746 1.144328
1.358562 23.744184 0.897303
1.296663 23.771795 1.058662
1.253033 23.908386 1.198987
1.239863 23.861116 1.275176
1.254187 23.859116 1.189625
1.315774 23.808636 0.998909
1.378028 23.768702 0.899315
1.281646 23.802784 1.182204
1.309904 23.805925 1.023215
1.213941 23.808542 1.311304
1.241020 23.860786 1.247550
1.305951 23.769253 1.041516
1.362348 23.734331 0.883063
1.240840 23.878345 1.216559
1.316203 23.749369 1.014525
1.253073 23.861982 1.213655
1.223303 23.812269 1.283351
1.247544 23.813885 1.204305
1.313581 23.764135 1.012951
1.252681 23.751600 1.186914
1.315259 23.764286 1.041831
1.206414 23.765024 1.324878
1.230379 23.812397 1.257043
1.241607 23.836039 1.233376
1.241493 23.812538 1.223165
1.218916 23.767883 1.297535
1.247537 23.772297 1.222826
1.224529 23.767380 1.269655
1.250308 23.796236 1.253919
1.240638 23.767841 1.236732
