# .PCD v0.7 - Point Cloud Data file format
VERSION 0.7
FIELDS x y z
SIZE 4 4 4
TYPE F F F
COUNT 1 1 1
WIDTH 313
HEIGHT 1
VIEWPOINT 0 0 0 1
POINTS 313
DATA ascii
1.375279 24.161463 0.769247
1.367985 24.160631 0.785127
1.358644 24.155928 0.801738
1.366086 24.137335 0.790614
1.355702 24.148149 0.824825
1.339132 24.151230 0.854877
1.364843 24.116295 0.788403
1.357926 24.115107 0.803428
1.330544 24.141014 0.876494
1.302213 24.168762 0.946017
1.337173 24.139629 0.876495
1.324235 24.151871 0.911318
1.357163 24.111055 0.820042
1.330512 24.130419 0.873923
1.363526 24.094450 0.811116
1.349819 24.104506 0.843005
1.333626 24.107231 0.872201
1.365110 24.074629 0.809640
1.365517 24.075264 0.824790
1.269078 24.147903 1.010504
1.327060 24.098026 0.896628
1.266980 24.150885 1.025899
1.297252 24.125214 0.964563
1.328845 24.094412 0.893084
1.283011 24.137709 0.999874
1.312657 24.104872 0.928393
1.354813 24.067005 0.837610
1.257834 24.149853 1.041045
1.327612 24.085909 0.890269
1.351251 24.049089 0.829535
1.344867 24.060966 0.861549
1.244091 24.162977 1.118507
1.329427 24.062979 0.889034
1.361635 24.031649 0.829772
1.353074 24.029095 0.841130
1.272748 24.105923 1.028685
1.270321 24.110176 1.044570
1.322109 24.054485 0.915172
1.292675 24.081314 0.982251
1.328020 24.051832 0.911873
1.277934 24.094269 1.015974
1.310152 24.062902 0.948526
1.258901 24.108381 1.060203
1.350620 24.022757 0.854442
1.328138 24.043993 0.908203
1.185490 24.181591 1.239451
1.206773 24.160574 1.204993
1.216852 24.141365 1.168332
1.348376 24.007484 0.850522
1.340299 24.017075 0.879236
1.176891 24.176207 1.262536
1.239084 24.118505 1.137416
1.327134 24.019850 0.906233
1.355941 23.988827 0.850023
1.353183 23.986622 0.860283
1.182920 24.137634 1.227573
1.267455 24.060755 1.043072
1.263350 24.065620 1.060300
1.319989 24.012165 0.934447
1.288702 24.038790 1.000793
1.275637 24.051130 1.033172
1.321604 24.007742 0.928825
1.255350 24.066416 1.077524
1.345558 23.979332 0.870538
1.304831 24.019718 0.967922
1.322525 24.000109 0.923078
1.180238 24.137329 1.253472
1.195926 24.114799 1.217178
1.214173 24.098574 1.186386
1.345886 23.965527 0.870651
1.172784 24.133772 1.278635
1.338184 23.974758 0.898509
1.223364 24.072489 1.151064
1.322621 23.976877 0.923551
1.351555 23.945753 0.869784
1.350148 23.944208 0.879189
1.185121 24.095089 1.244161
1.267767 24.017107 1.059291
1.261107 24.023399 1.077130
1.318472 23.971218 0.954576
1.285160 23.996830 1.018111
1.273396 24.008913 1.050002
1.321218 23.965729 0.946388
1.253278 24.025005 1.096431
1.347026 23.937523 0.888835
1.297716 23.977257 0.986215
1.322517 23.957743 0.939785
1.178363 24.094740 1.269448
1.192752 24.072472 1.233641
1.210200 24.056040 1.204926
1.343402 23.923569 0.890778
1.169609 24.091438 1.295098
1.336125 23.933361 0.917415
1.324138 23.935984 0.941480
1.220319 24.030058 1.169970
1.351897 23.905012 0.890645
1.352170 23.902855 0.898706
1.183630 24.052149 1.259279
1.264984 23.974436 1.074897
1.258822 23.980265 1.094324
1.314516 23.928703 0.973113
1.279351 23.954113 1.035915
1.319538 23.923973 0.964437
1.269264 23.965580 1.066462
1.251591 23.983240 1.114481
1.348926 23.896275 0.905908
1.176496 24.052155 1.285421
1.322140 23.915731 0.957346
1.293382 23.935097 1.005607
1.190511 24.030243 1.250469
1.206111 24.013615 1.221019
1.168887 24.050678 1.313150
1.341473 23.882067 0.912124
1.333099 23.890947 0.936318
1.319091 23.892561 0.957571
1.218754 23.988182 1.190462
1.347574 23.862856 0.910034
1.346799 23.860708 0.915286
1.179371 24.008913 1.273294
1.263181 23.932781 1.090501
1.258444 23.938244 1.111883
1.313390 23.887402 0.992382
1.280448 23.912651 1.055063
1.323791 23.882456 0.983831
1.264810 23.923523 1.083408
1.346708 23.854069 0.922732
1.244312 23.939964 1.130693
1.171312 24.008818 1.299069
1.320248 23.872250 0.973681
1.289055 23.892937 1.024997
1.187400 23.988834 1.266562
1.208298 23.973047 1.242612
1.160553 24.007399 1.326552
1.338127 23.840929 0.931514
1.326805 23.848701 0.952529
1.316874 23.850355 0.974394
1.215723 23.945751 1.209363
1.354831 23.823366 0.932238
1.261385 23.891129 1.106103
1.184041 23.967939 1.291466
1.364985 23.821590 0.939815
1.257147 23.896126 1.129073
1.310421 23.845903 1.010916
1.262638 23.882227 1.099866
1.278401 23.871248 1.073963
1.317452 23.839289 1.000406
1.246934 23.899967 1.151063
1.362497 23.814301 0.945305
1.172830 23.967901 1.316995
1.316562 23.829489 0.988914
1.290333 23.852285 1.046219
1.185769 23.947979 1.284242
1.200523 23.930229 1.257234
1.161695 23.966835 1.345332
1.334787 23.799791 0.950901
1.322869 23.806190 0.971059
1.316514 23.808346 0.991949
1.216022 23.904072 1.230585
1.333494 23.779793 0.945873
1.265098 23.849148 1.124271
1.184044 23.925552 1.308167
1.326403 23.774872 0.945988
1.255906 23.854923 1.145895
1.335257 23.808275 1.040089
1.257651 23.839716 1.115585
1.275436 23.829744 1.092494
1.335643 23.800163 1.024934
1.168806 23.926392 1.332717
1.246192 23.858301 1.169472
1.326520 23.767069 0.950501
1.315706 23.787943 1.004879
1.285520 23.810589 1.064016
1.181698 23.905556 1.300329
1.159192 23.926796 1.362277
1.200874 23.889463 1.278088
1.335154 23.759047 0.971754
1.323112 23.765553 0.989469
1.315285 23.767155 1.008769
1.210827 23.862717 1.249236
1.327438 23.739279 0.963791
1.181705 23.883432 1.322543
1.278994 23.808247 1.146472
1.328453 23.733517 0.965496
1.268170 23.815550 1.169075
1.296727 23.762474 1.045895
1.260666 23.799364 1.135095
1.271930 23.787788 1.109800
1.303041 23.754599 1.032085
1.168488 23.885277 1.349904
1.247904 23.818201 1.189471
1.321597 23.725489 0.965851
1.307081 23.745964 1.018762
1.285558 23.771109 1.085357
1.181980 23.865814 1.318373
1.165192 23.888447 1.384601
1.195607 23.849133 1.293929
1.321701 23.717743 0.986734
1.313735 23.724287 1.005061
1.300735 23.724943 1.021304
1.209388 23.822672 1.268988
1.324540 23.698702 0.981951
1.178996 23.841665 1.337772
1.244673 23.762346 1.147146
1.321308 23.692095 0.980966
1.240871 23.770790 1.173540
1.257591 23.757967 1.151178
1.293827 23.721891 1.064055
1.270877 23.747396 1.128695
1.295393 23.713636 1.045967
1.170075 23.845272 1.367458
1.231547 23.776699 1.200906
1.306191 23.703499 1.035089
1.277608 23.729469 1.102903
1.178519 23.824759 1.335312
1.153233 23.845695 1.396160
1.196850 23.807541 1.315512
1.204207 23.781315 1.287635
1.194542 23.802103 1.363638
1.243830 23.720791 1.163105
1.236876 23.729292 1.189254
1.270749 23.717768 1.175086
1.281809 23.707357 1.152724
1.181544 23.805670 1.392711
1.227174 23.735554 1.217476
1.177793 23.783079 1.353715
1.190624 23.766191 1.331347
1.207859 23.740370 1.311171
1.163254 23.756248 1.362109
1.159677 23.761599 1.396929
1.224281 23.694960 1.235632
1.175821 23.742569 1.372239
1.196130 23.725437 1.355616
1.207819 23.699028 1.333236
1.166570 23.713680 1.381484
1.178432 23.701622 1.392961
1.354007 24.160975 0.810360
1.329354 24.166817 0.879020
1.334285 24.134232 0.864453
1.346840 24.113741 0.824731
1.321857 24.120853 0.893880
1.279586 24.155725 0.988214
1.262488 24.159248 1.024863
1.325368 24.088634 0.877356
1.348737 24.071552 0.842164
1.312565 24.075611 0.907636
1.273818 24.110071 1.001362
1.265304 24.117147 1.042663
1.329495 24.046293 0.894665
1.349121 24.027891 0.858370
1.195651 24.150719 1.198071
1.322835 24.035250 0.928005
1.280170 24.067570 1.018550
1.262532 24.073524 1.058621
1.178979 24.142282 1.242283
1.327110 24.002329 0.909767
1.344890 23.983727 0.872737
1.195857 24.106226 1.212197
1.315452 23.991133 0.942125
1.275009 24.023296 1.032549
1.258343 24.030268 1.072621
1.181516 24.102364 1.260199
1.327931 23.959230 0.924745
1.342183 23.941038 0.888324
1.195362 24.063353 1.227669
1.311226 23.946960 0.956491
1.274902 23.980082 1.047165
1.258951 23.988312 1.090540
1.177370 24.059996 1.273842
1.330229 23.916676 0.941321
1.342635 23.898285 0.904165
1.195250 24.020117 1.242289
1.309450 23.904356 0.972452
1.275396 23.938234 1.062639
1.255698 23.945141 1.104910
1.169484 24.016312 1.286378
1.329759 23.873817 0.956792
1.336620 23.854830 0.917431
1.191777 23.975210 1.254946
1.308651 23.862772 0.988410
1.274377 23.894915 1.076886
1.251195 23.903145 1.119400
1.169218 23.975157 1.303561
1.330599 23.830706 0.971771
1.355956 23.813723 0.939756
1.194075 23.932629 1.271516
1.307265 23.819813 1.003508
1.272016 23.850929 1.091983
1.245727 23.860132 1.133884
1.169882 23.934099 1.321108
1.311224 23.785288 0.981107
1.331960 23.767807 0.947255
1.192681 23.889647 1.286613
1.308282 23.777508 1.020560
1.293750 23.810453 1.116261
1.250106 23.819487 1.152895
1.173327 23.893339 1.339753
1.310867 23.744268 0.995836
1.323783 23.725428 0.960265
1.188943 23.846930 1.299382
1.304182 23.735167 1.034182
1.260432 23.764565 1.117273
1.248443 23.778706 1.168110
1.167955 23.852144 1.353500
1.310802 23.701056 1.010436
1.198782 23.805025 1.321324
1.307986 23.693153 1.052328
1.258562 23.722061 1.130771
1.242069 23.735590 1.182215
1.164392 23.810230 1.368344
1.181017 23.760010 1.326496
1.245875 23.693562 1.200358
1.168403 23.769913 1.388201
1.178679 23.716003 1.341575
