# .PCD v0.7 - Point Cloud Data file format
VERSION 0.7
FIELDS x y z
SIZE 4 4 4
TYPE F F F
COUNT 1 1 1
WIDTH 305
HEIGHT 1
VIEWPOINT 0 0 0 1
POINTS 305
DATA ascii
1.334423 24.743095 0.695594
1.329687 24.737797 0.703747
1.335852 24.695686 0.713805
1.333034 24.692459 0.721978
1.297852 24.714594 0.789558
1.337990 24.748955 0.684900
1.342887 24.741655 0.677158
1.279727 24.723124 0.842104
1.290826 24.759771 0.786549
1.332970 24.646500 0.729700
1.215854 24.759111 1.023976
1.321371 24.640806 0.736186
1.292187 24.665087 0.804368
1.339421 24.753002 0.663538
1.335845 24.700977 0.704115
1.359918 24.744928 0.640854
1.337893 24.691507 0.695992
1.233958 24.720074 0.957972
1.270872 24.672703 0.857046
1.299664 24.721869 0.799597
1.296563 24.715076 0.806736
1.315496 24.755121 0.743942
1.230325 24.765862 0.965478
1.327860 24.597443 0.745729
1.198776 24.704763 1.033409
1.328478 24.597754 0.755155
1.291809 24.619333 0.821149
1.348531 24.710001 0.685683
1.324702 24.648834 0.719897
1.355107 24.695555 0.661775
1.331079 24.642082 0.713742
1.235585 24.672472 0.972874
1.350303 24.757032 0.642863
1.951152 25.009163 0.687792
1.277046 24.629532 0.875654
1.229301 24.742670 0.985808
1.290777 24.670521 0.814885
1.116071 24.774754 1.267871
1.145993 24.743126 1.197116
1.303838 24.728003 0.798322
1.289777 24.666569 0.824133
1.309233 24.706123 0.762919
1.235907 24.721302 0.983214
1.330943 24.737957 0.695345
1.326004 24.551153 0.760912
1.208715 24.663849 1.052756
1.321512 24.548489 0.770451
1.300583 24.575706 0.838742
1.335308 24.657825 0.704044
1.328587 24.603943 0.739346
1.234741 24.768742 0.978353
1.339625 24.642580 0.680629
1.333110 24.596983 0.732466
1.229763 24.623108 0.985227
1.346971 24.708200 0.665367
1.272922 24.582426 0.891331
1.347715 24.682985 0.623453
1.220472 24.693163 1.000387
1.284735 24.621347 0.830545
1.117966 24.730680 1.283804
1.240506 24.727398 0.939207
1.148977 24.697128 1.210804
1.293243 24.676287 0.815324
1.287102 24.619078 0.841752
1.301080 24.655991 0.781518
1.228751 24.671232 0.996421
1.298160 24.727884 0.796429
1.263560 24.756054 0.874634
1.134836 24.759085 1.235179
1.325788 24.689842 0.716769
1.319070 24.502823 0.775849
1.206879 24.618458 1.067586
1.320579 24.502306 0.785988
1.298721 24.529408 0.853918
1.221551 24.715584 0.991311
1.333431 24.560085 0.758795
1.335045 24.610991 0.723610
1.347839 24.600407 0.702042
1.337989 24.554054 0.751563
1.233896 24.578943 1.001006
1.139972 24.735283 1.225944
1.346517 24.662472 0.687892
1.270131 24.536020 0.906145
1.357004 24.640764 0.647676
1.222898 24.648628 1.017890
1.292796 24.579315 0.849510
1.121747 24.687744 1.300101
1.144850 24.648104 1.221431
1.240232 24.680536 0.958776
1.285420 24.573549 0.859021
1.289642 24.628687 0.832576
1.225279 24.760452 0.988479
1.304248 24.612688 0.802337
1.222589 24.623127 1.009278
1.135222 24.773449 1.230146
1.132404 24.712299 1.249135
1.300300 24.681681 0.817946
1.256667 24.704746 0.893077
1.325653 24.460258 0.793215
1.203152 24.571928 1.082037
1.328518 24.645018 0.739159
1.321159 24.457594 0.802752
1.148991 24.744875 1.191753
1.297231 24.482779 0.868221
1.219649 24.668331 1.006843
1.329865 24.513430 0.775686
1.336329 24.566559 0.744053
1.332196 24.507526 0.768594
1.345935 24.555069 0.722615
1.237100 24.534674 1.016415
1.140693 24.688477 1.240117
1.268852 24.491089 0.922187
1.335733 24.611877 0.707837
1.220281 24.602978 1.034795
1.354696 24.594833 0.669468
1.292447 24.534487 0.865916
1.110169 24.636955 1.308181
1.171589 24.773882 1.133802
1.240951 24.635639 0.977993
1.149310 24.602650 1.236691
1.277768 24.526806 0.875328
1.296921 24.586391 0.853619
1.225964 24.714615 1.008053
1.301752 24.565973 0.822034
1.229126 24.579603 1.026999
1.139898 24.729687 1.247153
1.129631 24.666780 1.263596
1.297804 24.634954 0.837645
1.201899 24.527906 1.097725
1.259422 24.660833 0.915111
1.315970 24.412550 0.806698
1.321504 24.596697 0.759842
1.322699 24.413914 0.819518
1.142411 24.696152 1.205824
1.290733 24.435965 0.881572
1.322624 24.467291 0.790769
1.223552 24.624336 1.025925
1.335169 24.520550 0.762888
1.338810 24.507845 0.740496
1.236563 24.489059 1.030721
1.325441 24.459969 0.785608
1.133785 24.639139 1.249647
1.269493 24.448221 0.938240
1.336643 24.567780 0.729139
1.217143 24.557817 1.050112
1.356161 24.551178 0.691995
1.290243 24.489452 0.881590
1.168864 24.725418 1.151764
1.133518 24.763617 1.251199
1.295272 24.541790 0.870522
1.149136 24.556675 1.250134
1.237927 24.589396 0.996108
1.283564 24.483969 0.894769
1.212804 24.662390 1.020640
1.299322 24.521118 0.841018
1.231583 24.535997 1.044131
1.129803 24.679436 1.256814
1.125894 24.620228 1.278039
1.296267 24.589264 0.857346
1.204386 24.485226 1.114500
1.323884 24.370682 0.823191
1.257812 24.613276 0.935518
1.313595 24.549204 0.779804
1.314009 24.368168 0.832650
1.146484 24.652906 1.226995
1.403122 24.424246 0.931517
1.320015 24.421673 0.807653
1.223160 24.578556 1.042676
1.332742 24.475700 0.781867
1.232691 24.442698 1.042707
1.341051 24.464447 0.760931
1.824807 24.566158 0.930455
1.136977 24.594839 1.265049
1.269172 24.404322 0.954275
1.215482 24.513203 1.067010
1.340364 24.524920 0.751167
1.353917 24.507105 0.713067
1.295451 24.445246 0.900149
1.130123 24.715790 1.265131
1.160917 24.675068 1.167033
1.154589 24.513180 1.265033
1.233456 24.543539 1.012273
1.293213 24.496593 0.888635
1.279131 24.439060 0.910576
1.215440 24.619551 1.039866
1.294484 24.475616 0.858044
1.225414 24.487898 1.056963
1.132587 24.634537 1.273433
1.127073 24.577755 1.295319
1.196982 24.439217 1.127127
1.294728 24.543573 0.877039
1.317046 24.325144 0.837038
1.257229 24.568609 0.955222
1.318240 24.506445 0.802188
1.313139 24.323843 0.847448
1.289396 24.347897 0.909964
1.145189 24.607931 1.243029
1.323994 24.379564 0.826003
1.221874 24.533602 1.058706
1.327533 24.430540 0.799753
1.309162 24.420864 1.087987
1.324957 24.372038 0.820117
1.800107 24.557987 0.890992
1.138868 24.550770 1.280946
1.261401 24.358665 0.967761
1.218114 24.470366 1.086220
1.331527 24.477327 0.770754
1.348822 24.460861 0.733749
1.390307 24.429537 0.946376
1.132195 24.672485 1.283128
1.239458 24.502384 1.033445
1.275283 24.395519 0.927250
1.147337 24.465117 1.275053
1.158221 24.627537 1.184626
1.285005 24.449409 0.903694
1.219893 24.575987 1.060159
1.293938 24.431896 0.877383
1.221755 24.443235 1.070681
1.133551 24.590359 1.288969
1.126735 24.533810 1.311354
1.199500 24.397465 1.143533
1.291402 24.499533 0.895296
1.250056 24.520430 0.973440
1.315435 24.461924 0.822022
1.285741 24.303255 0.923671
1.144446 24.563393 1.260282
1.223027 24.490223 1.076326
1.319936 24.334333 0.840929
1.857412 24.538189 0.957268
1.229824 24.353125 1.069849
1.319260 24.328302 0.836059
1.337187 24.376715 0.798520
1.136872 24.505514 1.293296
1.306356 24.326645 0.999892
1.211265 24.424795 1.100066
1.331538 24.434052 0.791318
1.283621 24.354349 0.928563
1.347535 24.417820 0.754815
1.119869 24.622362 1.292912
1.229942 24.455418 1.049003
1.273626 24.350922 0.944124
1.376849 24.433565 0.952148
1.141937 24.417261 1.285787
1.163219 24.584394 1.206141
1.217858 24.531698 1.077911
1.290610 24.387865 0.895629
1.296549 24.421953 1.117329
1.135441 24.546284 1.304857
1.195869 24.353725 1.156886
1.286152 24.453428 0.913525
1.250091 24.478060 0.993651
1.314143 24.418873 0.843084
1.218992 24.445887 1.090902
1.140886 24.517614 1.276793
1.324445 24.343063 0.835244
1.137868 24.462269 1.308463
1.232095 24.308748 1.084852
1.329195 24.331247 0.815302
1.211522 24.382240 1.116957
1.870775 24.545517 0.951444
1.284260 24.311481 0.944584
1.341578 24.373331 0.774415
1.121419 24.579550 1.309313
1.329431 24.323256 0.980402
1.231647 24.412477 1.067836
1.148529 24.375565 1.302761
1.284134 24.361782 0.939041
1.160768 24.539494 1.225105
1.215303 24.487900 1.094075
1.220024 24.355453 1.099909
1.284500 24.343525 0.912781
1.133622 24.501795 1.319291
1.686253 24.440704 1.410520
1.304307 24.416410 0.938328
1.301107 24.372286 0.859272
1.246723 24.433083 1.012244
1.141689 24.475475 1.294914
1.317074 24.432762 1.150234
1.322079 24.300070 0.853486
1.204364 24.338863 1.130949
1.324107 24.345739 0.829876
1.332839 24.328533 0.792921
1.281210 24.318340 0.956054
1.226828 24.367884 1.084480
1.215153 24.444744 1.112182
1.161504 24.495497 1.243928
1.218248 24.311924 1.113973
1.338417 24.314724 0.948685
1.282271 24.365658 0.951083
1.243387 24.389032 1.030476
1.302072 24.330036 0.879824
1.212771 24.357424 1.120751
1.139640 24.431164 1.312644
1.318213 24.303104 0.848758
1.310288 24.348103 1.138902
1.311149 24.431574 1.174102
1.154789 24.449743 1.260200
1.278972 24.322546 0.968954
1.213953 24.314968 1.137985
1.235416 24.344469 1.046892
1.206881 24.357170 1.144250
1.154221 24.405973 1.279509
1.327733 24.325111 1.106145
1.202127 24.314426 1.160171
1.147537 24.361149 1.295411
