# .PCD v0.7 - Point Cloud Data file format
VERSION 0.7
FIELDS x y z
SIZE 4 4 4
TYPE F F F
COUNT 1 1 1
WIDTH 140
HEIGHT 1
VIEWPOINT 0 0 0 1
POINTS 140
DATA ascii
1.159508 24.073563 1.270745
1.184308 24.014341 1.229070
1.191630 23.967691 1.239251
1.190345 23.918272 1.249907
1.226575 23.842394 1.206937
1.231835 23.882336 1.177221
1.180516 23.874374 1.304107
1.171141 24.017834 1.286537
1.230956 23.879169 1.182791
1.152821 23.988529 1.345858
1.240108 23.911226 1.143922
1.197748 23.903400 1.255033
1.231383 23.914562 1.163167
1.212790 23.931419 1.208820
1.224879 23.958555 1.154451
1.244012 23.938660 1.100835
1.235090 23.947268 1.136756
1.180465 23.997860 1.299054
1.178914 23.951454 1.311936
1.186120 23.901087 1.323539
1.181412 23.847277 1.330754
1.217286 23.807379 1.234218
1.237759 23.793930 1.234128
1.225799 23.837318 1.192386
1.178155 23.828754 1.323635
1.227248 23.834841 1.199979
1.170440 23.971815 1.302323
1.237220 23.866236 1.159416
1.149884 23.942598 1.361704
1.193500 23.857689 1.271336
1.230288 23.868881 1.179801
1.211660 23.884811 1.225810
1.230014 23.911076 1.172455
1.250064 23.891302 1.119231
1.236229 23.901497 1.153327
1.178915 23.951582 1.316892
1.182371 23.904367 1.333684
1.176957 23.856958 1.338014
1.166491 23.804483 1.345456
1.202282 23.763802 1.246825
1.207046 23.755152 1.238425
1.241835 23.787397 1.218945
1.190217 23.779463 1.351558
1.242843 23.784327 1.227742
1.169684 23.923939 1.318807
1.233804 23.819857 1.174011
1.191083 23.812204 1.288407
1.223785 23.824331 1.193354
1.206445 23.839115 1.239262
1.249294 23.844498 1.132915
1.223386 23.864813 1.184277
1.230515 23.855354 1.165541
1.178696 23.905077 1.334255
1.168209 23.861040 1.344231
1.166448 23.812113 1.353285
1.211504 23.747358 1.222749
1.167168 23.877666 1.333792
1.193139 23.764526 1.308506
1.238480 23.770834 1.193558
1.225342 23.776213 1.212217
1.226066 23.787809 1.268102
1.253499 23.795954 1.150868
1.227586 23.816269 1.202229
1.248661 23.803627 1.190307
1.168532 23.860039 1.346238
1.166889 23.829302 1.351867
1.234728 23.752180 1.157013
1.231758 23.766788 1.220534
1.220444 23.761776 1.192310
1.219721 24.172779 1.088663
1.198851 24.190138 1.143511
1.233286 24.161089 1.080728
1.185178 24.191450 1.180910
1.198037 24.165207 1.202546
1.212432 24.130789 1.103250
1.194785 24.147064 1.161175
1.224679 24.119305 1.095784
1.230002 24.161753 1.075297
1.231436 24.158409 1.080711
1.181540 24.148983 1.197380
1.232722 24.191740 1.046600
1.197645 24.180855 1.154418
1.227762 24.194492 1.065395
1.193360 24.177616 1.217714
1.191748 24.122213 1.220296
1.219171 24.085552 1.124438
1.194253 24.154045 1.173317
1.194387 24.104450 1.180375
1.224674 24.076374 1.114120
1.225818 24.117924 1.090850
1.229484 24.114489 1.096177
1.186081 24.104753 1.218325
1.235723 24.147152 1.063471
1.199343 24.136457 1.171768
1.229851 24.149786 1.081882
1.200902 24.167210 1.124768
1.241667 24.175493 1.027581
1.228086 24.184427 1.059847
1.182450 24.183435 1.228941
1.188771 24.133158 1.234470
1.189506 24.078421 1.239062
1.212785 24.042734 1.139737
1.188160 24.157499 1.184185
1.194238 24.110170 1.191994
1.193972 24.060894 1.199907
1.223737 24.032387 1.132403
1.225679 24.073299 1.107418
1.226221 24.070768 1.112109
1.180107 24.061602 1.232773
1.228701 24.103148 1.075426
1.150690 24.175770 1.281029
1.195574 24.092291 1.186464
1.226093 24.106564 1.096236
1.205747 24.122839 1.142408
1.222765 24.150335 1.093373
1.238190 24.131197 1.038976
1.229169 24.139774 1.073506
1.182029 24.185736 1.237067
1.181012 24.139000 1.245993
1.187334 24.088717 1.251519
1.189592 24.034357 1.260174
1.212747 23.997923 1.158739
1.217825 23.988136 1.149613
1.224630 24.028549 1.123596
1.168714 24.162664 1.239437
1.181911 24.017010 1.252553
1.223834 24.025293 1.129097
1.156048 24.130882 1.300256
1.231690 24.057613 1.092622
1.193640 24.048349 1.201926
1.224527 24.061380 1.111171
1.205102 24.077766 1.157733
1.220684 24.104717 1.107068
1.237419 24.085379 1.052193
1.230727 24.093689 1.089075
1.174114 24.141590 1.248646
1.180895 24.094351 1.262567
1.187804 24.043396 1.272108
1.181867 23.989857 1.276619
1.211798 23.952988 1.177352
