# .PCD v0.7 - Point Cloud Data file format
VERSION 0.7
FIELDS x y z
SIZE 4 4 4
TYPE F F F
COUNT 1 1 1
WIDTH 34
HEIGHT 1
VIEWPOINT 0 0 0 1
POINTS 34
DATA ascii
-33.839573 42.715469 -10.948171
-33.850433 42.725628 -10.885511
-33.844170 42.692616 -10.966378
-33.896774 42.748585 -10.972849
-33.926090 42.733276 -10.903430
-33.852276 43.012085 -11.039809
-33.864464 43.150272 -11.034731
-33.882961 43.254642 -11.004012
-34.493790 42.491768 -10.282645
-34.511581 42.525696 -10.264667
-34.507858 42.434132 -10.283597
-33.890640 43.343853 -11.053865
-33.815472 43.531136 -10.933800
-34.572113 42.516434 -10.297386
-34.589043 42.555614 -10.278119
-34.579124 42.467350 -10.307668
-34.600517 42.498554 -10.329877
-33.844311 43.661640 -10.987939
-33.851997 43.691586 -10.976044
-33.853371 43.620674 -10.992658
-33.845932 43.586895 -11.018306
-34.652859 42.576488 -10.235304
-33.854065 43.731853 -11.028800
-33.901409 43.599182 -10.986314
-33.866856 43.757305 -11.012235
-33.848961 43.712284 -11.047994
-33.922211 43.570503 -11.012976
-34.748020 42.578159 -10.239594
-34.573067 42.936722 -10.342031
-33.921532 43.727802 -11.023821
-33.886997 43.707668 -11.054298
-33.886890 43.814594 -11.041627
-33.894989 43.782166 -11.005010
-34.659481 42.937935 -10.340240
