# .PCD v0.7 - Point Cloud Data file format
VERSION 0.7
FIELDS x y z
SIZE 4 4 4
TYPE F F F
COUNT 1 1 1
WIDTH 32
HEIGHT 1
VIEWPOINT 0 0 0 1
POINTS 32
DATA ascii
-31.687241 44.011143 -10.143167
-31.654734 43.949730 -10.147510
-31.667490 43.978359 -10.145773
-31.668644 44.004337 -10.148549
-31.764748 44.089275 -10.279633
-31.678076 43.884544 -10.149424
-31.694593 43.923851 -10.163800
-31.713522 43.970356 -10.187513
-31.709759 43.984474 -10.180088
-31.784208 43.996284 -10.212485
-31.754128 43.966141 -10.282269
-31.766722 43.998177 -10.292094
-31.778391 44.025600 -10.296309
-31.775923 44.043953 -10.299906
-31.785755 43.916965 -10.267090
-31.791485 43.925995 -10.254348
-31.797470 43.940735 -10.247042
-31.794277 43.956104 -10.251422
-31.707748 43.795925 -10.241940
-31.709223 43.680084 -10.246552
-31.742554 43.757397 -10.244803
-31.706192 43.560104 -10.246436
-31.742754 43.612892 -10.223391
-31.764994 43.666992 -10.195546
-31.739117 43.468838 -10.203845
-31.718258 43.432926 -10.246054
-31.776632 43.543751 -10.198214
-31.749865 43.305927 -10.177348
-31.687052 43.142288 -10.204245
-31.681385 43.122326 -10.195838
-31.665686 43.067966 -10.159492
-31.637218 42.998112 -10.125035
