# .PCD v0.7 - Point Cloud Data file format
VERSION 0.7
FIELDS x y z
SIZE 4 4 4
TYPE F F F
COUNT 1 1 1
WIDTH 2839
HEIGHT 1
VIEWPOINT 0 0 0 1
POINTS 2839
DATA ascii
-35.250034 46.772568 -13.527956
-35.233513 46.772781 -13.555120
-35.267204 46.777378 -13.447157
-35.348877 46.778034 -13.229805
-35.597431 46.777161 -12.550502
-35.522167 46.790680 -12.728662
-35.432407 46.785404 -12.918073
-35.256935 46.780533 -13.343505
-35.327454 46.785583 -13.066475
-35.304649 46.756413 -13.440021
-35.301117 46.768002 -13.482956
-35.327717 46.769001 -13.391657
-35.121342 46.784454 -13.467905
-35.110901 46.788002 -13.497051
-35.220352 46.791599 -13.185602
-35.133266 46.787762 -13.389593
-35.480679 46.799919 -12.537514
-35.327671 46.772491 -13.267162
-35.302383 46.799854 -12.888119
-35.367607 46.798603 -12.703259
-35.114388 46.784771 -13.287373
-35.522640 46.784184 -12.647798
-35.373505 46.778137 -12.991364
-35.306171 46.782978 -13.158594
-35.204895 46.801369 -13.030560
-35.414799 46.785187 -12.871142
-35.197517 46.779774 -13.395438
-35.678043 46.778793 -12.591272
-35.160461 46.775146 -13.422137
-35.200352 46.781574 -13.340471
-34.995682 46.791954 -13.409987
-35.519886 46.770359 -12.850662
-34.988804 46.796146 -13.438207
-35.393398 46.773922 -13.196383
-35.494995 46.790092 -12.499282
-35.345051 46.809643 -12.522628
-35.105347 46.806660 -13.145896
-35.009590 46.795982 -13.335491
-35.204704 46.787483 -13.222684
-35.386150 46.779064 -13.128507
-35.172981 46.808228 -12.857409
-35.249516 46.814625 -12.682542
-35.013748 46.803337 -13.247143
-35.263016 46.779221 -13.324609
-35.385345 46.796173 -12.629155
-35.426815 46.784893 -12.921627
-35.244961 46.791523 -12.956645
-35.268600 46.783264 -13.293726
-35.241238 46.783737 -13.365769
-35.164013 46.787952 -13.114177
-35.293766 46.800594 -12.846284
-35.073635 46.807079 -12.991887
-35.066711 46.786774 -13.340021
-35.537064 46.792141 -12.574537
-35.067055 46.798992 -13.381081
-35.065239 46.786968 -13.287858
-35.402512 46.790340 -12.829066
-35.270092 46.788872 -13.156007
-34.871269 46.793289 -13.352578
-34.877285 46.805054 -13.386048
-35.363220 46.800331 -12.488837
-35.212658 46.813980 -12.508904
-34.914394 46.811989 -13.293955
-34.984570 46.812317 -13.104399
-35.086754 46.798878 -13.180990
-35.257065 46.790543 -13.091523
-35.527710 46.773186 -12.817467
-35.061394 46.819637 -12.831553
-35.340702 46.776276 -13.257903
-35.115376 46.817295 -12.660877
-35.340725 46.776398 -13.251582
-34.908600 46.815380 -13.205504
-35.139309 46.790321 -13.277829
-35.277691 46.787392 -12.887569
-35.254963 46.804409 -12.610769
-35.308102 46.777805 -13.304981
-35.134632 46.805870 -12.927999
-35.143829 46.793419 -13.249769
-35.115013 46.792149 -13.316079
-35.470623 46.779671 -12.847850
-35.062496 46.804447 -13.082118
-35.157421 46.803616 -12.818603
-35.401737 46.801861 -12.558692
-34.975071 46.806362 -13.301727
-34.970871 46.820637 -12.962620
-34.943462 46.802162 -13.328134
-35.348969 46.782127 -13.071828
-34.968880 46.804028 -13.250133
-35.275280 46.801361 -12.805363
-35.334801 46.783356 -13.086055
-35.150246 46.800419 -13.116838
-34.796619 46.817009 -13.318848
-35.236271 46.808033 -12.478989
-34.789753 46.821266 -13.343906
-35.111515 46.828026 -12.497043
-34.802853 46.814785 -13.246099
-34.876572 46.818569 -13.066111
-34.974567 46.807632 -13.140207
-35.133427 46.799400 -13.056398
-35.396271 46.786591 -12.797590
-35.219807 46.789997 -13.216239
-35.216156 46.788483 -13.210823
-34.937317 46.818344 -12.803819
-35.024918 46.799370 -13.234193
-35.003464 46.825603 -12.641285
-35.180462 46.808304 -12.863202
-34.791714 46.815681 -13.160115
-35.182495 46.789062 -13.260725
-35.145760 46.817398 -12.594120
-35.354706 46.795532 -12.823636
-35.030796 46.803276 -13.208684
-35.005974 46.803627 -13.273141
-35.014771 46.811245 -12.896300
-35.053261 46.816181 -12.796262
-34.956585 46.815407 -13.048673
-35.268814 46.807285 -12.543715
-34.853249 46.805271 -13.251544
-34.856472 46.823448 -12.929625
-34.833073 46.806839 -13.280629
-35.212322 46.788353 -13.036610
-34.870319 46.815331 -13.210702
-35.210205 46.792320 -13.050606
-35.139538 46.801239 -12.781089
-35.041813 46.811687 -13.081487
-35.270256 46.810032 -12.449253
-35.409866 46.795383 -12.486715
-35.128716 46.818703 -12.469250
-34.696400 46.821587 -13.272639
-34.685970 46.822266 -13.294451
-34.996529 46.831493 -12.484929
-35.027489 46.810299 -13.026106
-35.297428 46.807522 -12.781116
-34.774857 46.824093 -13.030988
-34.715630 46.827866 -13.208323
-34.872757 46.818214 -13.103920
-35.097958 46.797771 -13.175399
-35.100807 46.800510 -13.174201
-34.850151 46.832115 -12.781870
-35.070187 46.799824 -13.220920
-35.064133 46.814205 -12.836891
-34.923832 46.810917 -13.196022
-35.027218 46.820343 -12.576606
-34.705315 46.827602 -13.125796
-34.898472 46.833160 -12.622962
-34.927711 46.813980 -13.173020
-34.906147 46.815052 -13.234338
-34.912601 46.818661 -12.869430
-34.940804 46.819588 -12.773395
-35.159588 46.817223 -12.529208
-34.842796 46.815193 -13.012759
-34.766857 46.820248 -13.215071
-35.112659 46.804516 -13.011497
-34.756836 46.827629 -12.900488
-35.104904 46.806190 -13.019424
-34.748558 46.821606 -13.244788
-35.316151 46.804531 -12.428895
-35.040607 46.815186 -12.762583
-34.766823 46.819130 -13.170789
-35.293392 46.806038 -12.475045
-35.156395 46.818314 -12.441659
-34.933903 46.818874 -13.046372
-35.025036 46.826946 -12.459788
-34.612316 46.831341 -13.233854
-34.596951 46.827568 -13.253029
-34.900829 46.839924 -12.473917
-35.155388 46.805016 -12.758986
-34.920818 46.817245 -12.996681
-34.767048 46.819187 -13.066471
-34.695873 46.837105 -13.003349
-34.622623 46.831547 -13.168756
-34.991932 46.807808 -13.138761
-34.991726 46.808815 -13.139731
-34.948536 46.815014 -12.809846
-34.966152 46.810638 -13.184935
-35.107670 46.806820 -12.772537
-34.758045 46.838379 -12.759436
-34.823158 46.817390 -13.158064
-34.821583 46.817032 -13.134344
-34.937401 46.833244 -12.562218
-34.788811 46.811390 -13.188852
-34.629280 46.841351 -13.095969
-34.940300 46.848755 -12.275031
-34.803528 46.839619 -12.605904
-34.821663 46.829865 -12.845202
-35.056019 46.826523 -12.516603
-34.854881 46.833179 -12.753971
-34.753956 46.825237 -12.985032
-35.003460 46.811707 -12.983329
-34.683590 46.831841 -13.180748
-35.202267 46.812756 -12.424455
-34.996033 46.813427 -12.987148
-34.668537 46.833855 -13.210485
-34.937786 46.822517 -12.743930
-35.188335 46.816467 -12.464031
-34.685852 46.831425 -13.139332
-34.682056 46.844128 -12.877366
-35.053638 46.826389 -12.435669
-34.835411 46.825001 -13.014421
-34.923038 46.832993 -12.450921
-35.056644 46.817898 -12.742667
-34.524548 46.833469 -13.193952
-34.809322 46.845913 -12.462232
-34.825359 46.824978 -12.968884
-34.520622 46.838459 -13.216819
-34.680317 46.828068 -13.035248
-34.602219 46.837700 -12.970991
-34.541466 46.838921 -13.133093
-34.892082 46.816120 -13.105265
-34.884541 46.813915 -13.104886
-35.009872 46.816662 -12.752359
-34.870914 46.820480 -13.150850
-34.865116 46.828365 -12.789153
-34.731071 46.823906 -13.122976
-34.672642 46.844894 -12.739239
-34.734737 46.827915 -13.104106
-34.715694 46.828808 -13.160997
-34.835110 46.836433 -12.546968
-34.538666 46.840683 -13.060429
-34.723572 46.830795 -12.819791
-34.950871 46.829971 -12.503555
-34.719074 46.848965 -12.590199
-34.755096 46.833191 -12.733279
-34.838940 46.851654 -12.269588
-34.661545 46.828648 -12.956209
-34.898869 46.817371 -12.956724
-34.894272 46.818836 -12.958331
-35.101826 46.824596 -12.419181
-34.587845 46.830788 -13.141388
-35.077309 46.821503 -12.453212
-34.844185 46.829853 -12.726249
-34.572998 46.831795 -13.170155
-34.952255 46.832348 -12.428061
-34.746555 46.832050 -12.985676
-34.595665 46.834728 -13.103872
-34.598137 46.849575 -12.852407
-34.835072 46.839565 -12.441463
-34.939857 46.816647 -12.724742
-34.736607 46.832958 -12.943323
-34.718014 46.847843 -12.451728
-34.449356 46.840191 -13.159237
-34.442600 46.842506 -13.180142
-34.601734 46.836014 -13.007817
-34.524494 46.844543 -12.943864
-34.795788 46.822021 -13.072994
-34.464478 46.843792 -13.099916
-34.788868 46.819725 -13.073879
-34.915012 46.824184 -12.732143
-34.763721 46.819592 -13.113983
-34.768375 46.830109 -12.766287
-34.645378 46.830685 -13.091074
-34.595310 46.852531 -12.720666
-34.645576 46.832050 -13.072139
-34.622459 46.830448 -13.124541
-34.750301 46.842735 -12.534352
-34.875298 46.845329 -12.491781
-34.646568 46.841476 -12.798119
-34.463776 46.847267 -13.031089
-34.682896 46.847263 -12.717381
-34.810200 46.826286 -12.934339
-34.753815 46.857849 -12.264252
-34.634087 46.853344 -12.574389
-34.594490 46.843288 -12.934641
-34.984577 46.822124 -12.414827
-34.815052 46.832802 -12.934811
-34.988701 46.831169 -12.443490
-34.509590 46.835781 -13.108837
-34.754456 46.834763 -12.708843
-34.867741 46.841507 -12.421825
-34.836002 46.840111 -12.209785
-34.490356 46.834312 -13.134065
-34.662529 46.839565 -12.958538
-34.514057 46.838070 -13.071280
-34.515900 46.852825 -12.828043
-34.738514 46.839996 -12.433443
-34.852016 46.827335 -12.709989
-34.646164 46.834099 -12.917298
-34.636028 46.850769 -12.442215
-34.376461 46.844624 -13.126378
-34.521172 46.840179 -12.978725
-34.370132 46.847919 -13.146358
-34.711548 46.830605 -13.043658
-34.450317 46.848976 -12.917958
-34.707767 46.830910 -13.048717
-34.829048 46.831726 -12.713847
-34.395039 46.850811 -13.070281
-34.682526 46.829845 -13.085639
-34.687263 46.838173 -12.746442
-34.567211 46.836613 -13.061701
-34.523003 46.859623 -12.702727
-34.563850 46.837334 -13.043695
-34.536549 46.832245 -13.091587
-34.785767 46.849110 -12.479731
-34.671497 46.851444 -12.520542
-34.562317 46.843887 -12.776256
-34.719547 46.831429 -12.910293
-34.594227 46.847073 -12.698298
-34.399891 46.858643 -13.005356
-34.512653 46.844524 -12.908329
-34.714649 46.830036 -12.905512
-34.898590 46.832420 -12.410191
-34.893074 46.834549 -12.433623
-34.668812 46.862049 -12.257929
-34.555290 46.859055 -12.559574
-34.679302 46.845108 -12.694119
-34.444130 46.847355 -13.081518
-34.774212 46.843605 -12.414791
-34.760948 46.851265 -12.204574
-34.580891 46.842789 -12.932263
-34.426884 46.846668 -13.107399
-34.441669 46.844357 -13.043834
-34.671211 46.852409 -12.424478
-34.772453 46.838139 -12.695891
-34.436703 46.854752 -12.803660
-34.565681 46.839138 -12.894546
-34.570213 46.862053 -12.431655
-34.312157 46.852089 -13.097400
-34.626453 46.834240 -13.015165
-34.617218 46.831116 -13.019506
-34.303936 46.852600 -13.115734
-34.452560 46.849033 -12.953557
-34.745308 46.839043 -12.695240
-34.384224 46.857525 -12.894692
-34.607918 46.839352 -13.059508
-34.325283 46.854851 -13.040586
-34.614220 46.847363 -12.728222
-34.487797 46.839664 -13.031973
-34.481907 46.837631 -13.014219
-34.468235 46.841080 -13.065485
-34.699894 46.851471 -12.468946
-34.452797 46.865490 -12.684476
-34.639462 46.837383 -12.889788
-34.591515 46.855217 -12.508544
-34.811489 46.841454 -12.424202
-34.497036 46.854267 -12.757473
-34.819000 46.843037 -12.405600
-34.518757 46.851440 -12.682526
-34.636677 46.837830 -12.882524
-34.444969 46.853207 -12.886660
-34.327408 46.860935 -12.976908
-34.597008 46.848175 -12.679249
-34.593235 46.868237 -12.252642
-34.488335 46.868523 -12.545520
-34.694519 46.850235 -12.409174
-34.380016 46.856743 -13.055761
-34.685871 46.859367 -12.201534
-34.506176 46.848244 -12.908292
-34.363205 46.857033 -13.080718
-34.376396 46.851864 -13.017718
-34.683331 46.839905 -12.681920
-34.592781 46.855923 -12.417221
-34.379711 46.868240 -12.786551
-34.502483 46.851295 -12.876434
-34.494091 46.863342 -12.423099
-34.550159 46.839897 -12.989608
-34.543644 46.838455 -12.995888
-34.661640 46.841305 -12.677814
-34.247849 46.856560 -13.067437
-34.392525 46.860920 -12.932293
-34.242886 46.860725 -13.086806
-34.529633 46.844231 -13.033299
-34.327023 46.869091 -12.874382
-34.542835 46.854355 -12.710618
-34.259182 46.857471 -13.012162
-34.431324 46.855194 -13.010769
-34.431194 46.856514 -12.995944
-34.622833 46.855930 -12.457895
-34.407887 46.853046 -13.041984
-34.569332 46.847256 -12.872536
-34.735977 46.848709 -12.415735
-34.382893 46.868301 -12.667410
-34.528206 46.866272 -12.496722
-34.565403 46.845882 -12.861753
-34.725559 46.843086 -12.400738
-34.456291 46.861454 -12.667837
-34.427032 46.859138 -12.738233
-34.374550 46.857162 -12.865186
-34.528545 46.855789 -12.665753
-34.264874 46.867142 -12.951711
-34.621532 46.857193 -12.402613
-34.306782 46.855148 -13.024992
-34.417595 46.872375 -12.531323
-34.520069 46.873207 -12.246055
-34.437649 46.855042 -12.885297
-34.612164 46.865364 -12.196856
-34.293003 46.857105 -13.050940
-34.609413 46.847088 -12.668715
-34.316788 46.861736 -12.994497
-34.522217 46.861641 -12.409381
-34.433830 46.857040 -12.856578
-34.315483 46.873531 -12.766075
-34.472500 46.841694 -12.963634
-34.432972 46.871113 -12.413114
-34.594753 46.851780 -12.663748
-34.473953 46.846371 -12.973540
-34.321068 46.861053 -12.906310
-34.450195 46.844238 -13.005702
-34.189819 46.863300 -13.041629
-34.185062 46.866459 -13.060027
-34.478691 46.863571 -12.694324
-34.257969 46.867928 -12.850279
-34.359337 46.856415 -12.983538
-34.205765 46.868679 -12.989938
-34.358463 46.856770 -12.970587
-34.558773 46.866024 -12.447945
-34.659210 46.853096 -12.406893
-34.343132 46.859482 -13.017093
-34.491032 46.849022 -12.851620
-34.316643 46.869694 -12.651587
-34.492764 46.850067 -12.840584
-34.655396 46.852718 -12.396133
-34.455662 46.868275 -12.484057
-34.392136 46.867619 -12.653697
-34.362896 46.865364 -12.720934
-34.456734 46.858753 -12.651208
-34.314400 46.865005 -12.846032
-34.546864 46.860294 -12.396601
-34.201595 46.869389 -12.927379
-34.248219 46.862915 -13.001098
-34.375607 46.863102 -12.865506
-34.542000 46.868946 -12.193399
-34.538216 46.852955 -12.656439
-34.354084 46.878448 -12.518457
-34.447098 46.874115 -12.240646
-34.229519 46.860424 -13.024410
-34.249519 46.862427 -12.968852
-34.460140 46.869457 -12.402237
-34.626812 46.866943 -12.142734
-34.368011 46.862469 -12.837672
-34.258904 46.881958 -12.749161
-34.523666 46.855709 -12.647320
-34.413082 46.853497 -12.943607
-34.404774 46.850204 -12.951424
-34.373745 46.878674 -12.403763
-34.388885 46.853260 -12.984031
-34.257984 46.865231 -12.885177
-34.134621 46.869724 -13.016771
-34.410763 46.867168 -12.677905
-34.126923 46.869213 -13.033186
-34.292789 46.858002 -12.959172
-34.212719 46.884186 -12.833871
-34.145832 46.869583 -12.964634
-34.579285 46.851765 -12.399187
-34.485050 46.866085 -12.438076
-34.294857 46.862030 -12.948206
-34.420479 46.851925 -12.833277
-34.275852 46.860168 -12.991443
-34.443275 46.855118 -12.057236
-34.580086 46.855854 -12.392013
-34.428089 46.857376 -12.822032
-34.260262 46.877056 -12.636865
-34.398331 46.878677 -12.473188
-34.329033 46.871674 -12.638884
-34.300537 46.870384 -12.704248
-34.395298 46.866600 -12.639005
-34.254139 46.868862 -12.825845
-34.475235 46.862068 -12.390570
-34.146278 46.874760 -12.905660
-34.190392 46.868591 -12.977479
-34.315662 46.869938 -12.845380
-34.468910 46.858612 -12.644800
-34.475525 46.874165 -12.189042
-34.175659 46.867657 -13.002096
-34.387981 46.882610 -12.234483
-34.292358 46.883316 -12.506203
-34.393661 46.871742 -12.393704
-34.195457 46.870670 -12.947509
-34.551071 46.866043 -12.141696
-34.302814 46.864807 -12.819019
-34.456032 46.859226 -12.633107
-34.354393 46.863209 -12.923858
-34.351746 46.865265 -12.935596
-34.190472 46.877651 -12.728477
-34.310303 46.879627 -12.395212
-34.329037 46.861088 -12.963921
-34.349953 46.871986 -12.662791
-34.200039 46.869850 -12.864697
-34.081200 46.874947 -12.992525
-34.074551 46.875317 -13.009278
-34.521294 46.862202 -12.390203
-34.236526 46.866478 -12.938145
-34.147846 46.880520 -12.812258
-34.423820 46.872868 -12.428066
-34.235954 46.866756 -12.927405
-34.359051 46.859833 -12.817910
-34.090111 46.874039 -12.940686
-34.219479 46.867649 -12.970392
-34.412376 46.880768 -12.048647
-34.365402 46.862473 -12.803123
-34.507191 46.857750 -12.386611
-34.208069 46.884968 -12.622479
-34.327873 46.876404 -12.462340
-34.267391 46.874538 -12.625632
-34.331448 46.869690 -12.626064
-34.245728 46.877605 -12.687943
-34.197433 46.873302 -12.807894
-34.413563 46.867809 -12.384646
-34.404629 46.863724 -12.633793
-34.253922 46.871929 -12.825780
-34.138214 46.876625 -12.956770
-34.094009 46.881802 -12.884936
-34.415974 46.881687 -12.183803
-34.124851 46.876564 -12.980777
-34.334408 46.876247 -12.386499
-34.494652 46.876225 -12.137461
-34.322666 46.883720 -12.228469
-34.140759 46.875950 -12.927052
-34.229263 46.884319 -12.493551
-34.247990 46.872032 -12.802709
-34.389244 46.861649 -12.619193
-34.283737 46.859192 -12.900310
-34.278786 46.860481 -12.912344
-34.254627 46.884777 -12.387086
-34.260910 46.859821 -12.940124
-34.137989 46.885643 -12.711884
-34.294498 46.879242 -12.648378
-34.144184 46.873253 -12.843883
-34.457832 46.866154 -12.382651
-34.030174 46.878868 -12.970154
-34.180767 46.870872 -12.917345
-34.368767 46.880981 -12.419046
-34.025116 46.882099 -12.986341
-34.090313 46.880070 -12.791994
-34.299606 46.865524 -12.802185
-34.305229 46.867264 -12.786113
-34.359089 46.887558 -12.046566
-34.179058 46.872269 -12.907264
-34.444054 46.864624 -12.382288
-34.045170 46.884293 -12.921309
-34.162056 46.871250 -12.947993
-34.152096 46.887257 -12.607969
-34.273251 46.882504 -12.451386
-34.215931 46.883354 -12.612532
-34.273888 46.875111 -12.614139
-34.355469 46.874195 -12.377799
-34.190388 46.882862 -12.672545
-34.140636 46.876751 -12.789926
-34.342445 46.867611 -12.622451
-34.200680 46.879017 -12.807892
-34.082779 46.878010 -12.934016
-34.045502 46.888416 -12.865475
-34.353260 46.883488 -12.179699
-34.433811 46.880806 -12.134995
-34.275997 46.879650 -12.379592
-34.069530 46.878941 -12.958046
-34.383087 46.869194 -12.032763
-34.086170 46.879230 -12.905607
-34.329891 46.865280 -12.605638
-34.177284 46.891167 -12.481362
-34.188446 46.873737 -12.785956
-34.270264 46.892529 -12.221381
-34.237728 46.874489 -12.885770
-34.224274 46.867691 -12.895082
-34.515877 46.871002 -12.086698
-34.209866 46.869675 -12.922927
-34.204937 46.892330 -12.377760
-34.080452 46.885132 -12.694785
-34.400978 46.872417 -12.375165
-34.235802 46.882847 -12.632936
-34.100494 46.886322 -12.828045
-34.130157 46.878708 -12.898215
-34.309105 46.884571 -12.409609
-33.983356 46.886341 -12.949137
-34.246136 46.873558 -12.788422
-33.978390 46.887569 -12.964330
-34.251343 46.874382 -12.770116
-34.306637 46.893246 -12.044782
-34.128635 46.879032 -12.890322
-34.389828 46.874569 -12.377734
-34.041069 46.885723 -12.774410
-34.108189 46.875431 -12.927830
-34.002956 46.896229 -12.903872
-34.163715 46.888214 -12.600293
-34.105885 46.897514 -12.595549
-34.302612 46.882019 -12.371626
-34.214756 46.884975 -12.441302
-34.220314 46.882095 -12.603521
-34.090744 46.882435 -12.774232
-34.140404 46.890549 -12.657845
-34.280052 46.869518 -12.611070
-34.151424 46.887669 -12.791311
-34.035316 46.885509 -12.914890
-34.376431 46.885040 -12.131582
-34.295166 46.886818 -12.175008
-33.998878 46.894821 -12.846647
-34.222206 46.884586 -12.372096
-34.279034 46.874004 -12.593792
-34.021225 46.884548 -12.937613
-34.342304 46.885761 -12.028389
-34.034088 46.882210 -12.886059
-34.460690 46.878002 -12.083975
-34.136353 46.879646 -12.770577
-34.180180 46.877033 -12.866508
-34.177944 46.880009 -12.880480
-34.128353 46.899685 -12.470167
-34.212711 46.894840 -12.214780
-34.154419 46.873997 -12.904341
-34.152081 46.894161 -12.369569
-34.342979 46.876804 -12.367324
-34.182854 46.886803 -12.619409
-34.035091 46.894352 -12.679502
-34.045895 46.886547 -12.808750
-34.070614 46.874485 -12.876280
-34.188148 46.875069 -12.773246
-34.255936 46.889477 -12.400212
-34.364491 46.868546 -12.017122
-34.189911 46.873306 -12.751718
-33.938313 46.892605 -12.928729
-34.322586 46.872837 -12.373222
-34.248722 46.892452 -12.044431
-34.075180 46.881138 -12.871380
-33.931252 46.892063 -12.943249
-33.992550 46.889286 -12.757099
-34.058193 46.880180 -12.908952
-33.949310 46.893414 -12.880725
-34.108768 46.888332 -12.588265
-34.167782 46.886971 -12.592230
-34.240936 46.881710 -12.366846
-34.050320 46.894733 -12.581250
-34.166321 46.892406 -12.431342
-34.228146 46.877296 -12.602050
-34.040024 46.886223 -12.757236
-34.084427 46.889843 -12.642323
-34.093033 46.885265 -12.772897
-34.326080 46.892567 -12.127307
-33.987534 46.890034 -12.895701
-34.242310 46.891590 -12.170991
-34.228397 46.881725 -12.580981
-34.173759 46.891960 -12.365297
-34.404541 46.882053 -12.083084
-34.286274 46.887749 -12.029679
-33.976696 46.892727 -12.919457
-33.950066 46.898460 -12.827128
-33.993320 46.892956 -12.870177
-34.124413 46.878376 -12.847857
-34.086143 46.885349 -12.755833
-34.118824 46.879696 -12.861789
-34.071953 46.897942 -12.458738
-34.159462 46.898697 -12.208538
-34.104004 46.880764 -12.887401
-34.295982 46.886040 -12.359924
-34.102699 46.898643 -12.361447
-34.134426 46.894295 -12.606287
-34.204655 46.894173 -12.391449
-34.001671 46.894650 -12.792807
-34.132164 46.877357 -12.758728
-33.984905 46.897060 -12.663755
-34.029747 46.887234 -12.861388
-34.324333 46.885021 -12.014011
-34.140739 46.879894 -12.737305
-34.268879 46.878704 -12.368902
-34.202042 46.898560 -12.041404
-33.893993 46.896782 -12.908595
-34.025501 46.885815 -12.854718
-33.886932 46.896236 -12.923115
-34.013023 46.888390 -12.892690
-33.950214 46.897179 -12.741792
-33.905724 46.898491 -12.861876
-34.120487 46.893284 -12.581612
-34.190075 46.887321 -12.360319
-34.001877 46.896172 -12.569268
-34.056252 46.890213 -12.575970
-34.177277 46.882965 -12.592356
-34.113171 46.894321 -12.420943
-34.033367 46.890594 -12.628422
-33.990646 46.887829 -12.741776
-34.045341 46.890720 -12.756887
-34.271423 46.895489 -12.124825
-34.347137 46.883232 -12.081817
-34.176800 46.886494 -12.570003
-33.934509 46.887131 -12.873816
-34.117958 46.890064 -12.358287
-34.236965 46.893108 -12.027894
-34.188194 46.893490 -12.166596
-33.927864 46.893368 -12.898920
-34.041901 46.893391 -12.743046
-34.071579 46.880390 -12.830179
-34.062420 46.878075 -12.844025
-33.947216 46.898277 -12.852592
-33.896519 46.893581 -12.806155
-34.243328 46.889862 -12.351768
-34.046867 46.878239 -12.868351
-34.018810 46.896858 -12.447332
-34.110825 46.904087 -12.201706
-34.051517 46.898281 -12.353849
-34.084202 46.896942 -12.593689
-34.154320 46.898762 -12.383005
-34.086769 46.886513 -12.746593
-34.276909 46.893162 -12.013867
-33.951778 46.894348 -12.775094
-34.089264 46.882721 -12.722177
-34.216324 46.883461 -12.363931
-33.981224 46.890797 -12.844074
-33.937424 46.898453 -12.648932
-34.157990 46.905418 -12.037135
-33.978962 46.890156 -12.838056
-33.963547 46.889061 -12.874045
-33.856922 46.909168 -12.891815
-33.916378 46.913158 -12.729203
-33.854374 46.893387 -12.840585
-34.142029 46.892616 -12.354738
-34.067333 46.895195 -12.571210
-34.007809 46.891655 -12.563987
-33.958382 46.902122 -12.556766
-34.130936 46.892170 -12.583068
-34.061905 46.896023 -12.411178
-33.986832 46.894878 -12.614925
-33.944427 46.892097 -12.727332
-34.000473 46.895863 -12.741825
-34.296444 46.887718 -12.080633
-34.217922 46.897297 -12.121690
-34.129597 46.890808 -12.558390
-34.309788 46.880684 -12.010329
-34.189655 46.899246 -12.026765
-34.071503 46.895222 -12.351131
-33.896797 46.899548 -12.858931
-34.140171 46.898788 -12.161024
-34.026917 46.887516 -12.815157
-33.986858 46.889584 -12.726826
-34.018604 46.887093 -12.830311
-33.880711 46.894806 -12.879988
-33.896381 46.895081 -12.833552
-33.866257 46.913204 -12.793653
-34.191082 46.891609 -12.344835
-34.002098 46.884369 -12.853307
-34.001492 46.896805 -12.345601
-34.027988 46.891193 -12.580270
-34.063343 46.908360 -12.194221
-33.974915 46.904835 -12.436774
-34.105030 46.901245 -12.373886
-34.037590 46.890045 -12.734331
-34.043861 46.888885 -12.709029
-34.226971 46.898552 -12.013980
-34.166088 46.888985 -12.358667
-33.937725 46.896809 -12.828403
-33.908298 46.900360 -12.759429
-34.108269 46.906803 -12.035273
-33.905804 46.917206 -12.637044
-33.936192 46.897068 -12.823669
-33.917229 46.892399 -12.856417
-33.863754 46.905121 -12.710693
-33.804634 46.901176 -12.869199
-33.802074 46.904163 -12.884116
-34.091362 46.894165 -12.349391
-34.014996 46.893009 -12.560088
-33.827255 46.915668 -12.829094
-34.079647 46.893867 -12.573292
-33.975117 46.909458 -12.554916
-33.924747 46.917038 -12.546369
-34.015873 46.899162 -12.402083
-34.244606 46.890320 -12.079096
-33.912144 46.907879 -12.716320
-33.953617 46.910770 -12.603600
-34.172924 46.904263 -12.117103
-33.954250 46.900131 -12.727380
-34.081043 46.894253 -12.547392
-34.263958 46.891685 -12.009622
-34.143066 46.903290 -12.025908
-34.022316 46.895641 -12.344187
-33.860233 46.910851 -12.843391
-34.094776 46.904839 -12.154211
-33.984047 46.896431 -12.801762
-33.948589 46.899967 -12.716001
-33.973415 46.892246 -12.816195
-34.144608 46.896767 -12.337671
-33.859390 46.905407 -12.818938
-33.814053 46.903149 -12.773204
-33.960918 46.903374 -12.337227
-33.985214 46.898048 -12.569047
-33.943806 46.922504 -12.426126
-34.100979 46.902847 -11.924294
-34.017853 46.913418 -12.187391
-33.989563 46.892464 -12.721417
-34.172073 46.896370 -12.016766
-34.004963 46.899361 -12.696937
-34.060261 46.907261 -12.365171
-34.117619 46.893299 -12.354013
-34.063046 46.908726 -12.032794
-33.899475 46.907253 -12.814421
-33.874451 46.913345 -12.745826
-33.887138 46.895668 -12.806252
-33.854542 46.909981 -12.621085
-34.046783 46.899109 -12.342865
-33.772163 46.915031 -12.854989
-33.827511 46.916351 -12.697371
-33.970211 46.896027 -12.550359
-34.026672 46.891716 -12.564064
-33.921524 46.901405 -12.542408
-34.198746 46.895329 -12.076357
-33.776424 46.906487 -12.808036
-33.872421 46.908867 -12.533233
-33.984760 46.916836 -12.391435
-34.032166 46.894718 -12.536331
-34.125301 46.907482 -12.112748
-33.862457 46.903515 -12.699789
-33.906754 46.898529 -12.711539
-33.902248 46.905548 -12.588630
-34.208958 46.891506 -12.013396
-34.096581 46.905334 -12.024060
-33.996006 46.916767 -12.336145
-33.935600 46.894939 -12.785601
-33.812321 46.905334 -12.824307
-34.098969 46.900826 -12.330803
-33.901619 46.900280 -12.702417
-33.924763 46.891762 -12.801006
-34.049789 46.908810 -12.148617
-33.796238 46.900597 -12.845366
-33.818001 46.910198 -12.802937
-33.787563 46.925343 -12.762978
-33.931145 46.918861 -12.328112
-33.953873 46.913731 -12.558350
-33.946560 46.897327 -12.710156
-34.009686 46.903809 -12.357831
-33.954948 46.898003 -12.682370
-34.061054 46.912331 -11.918214
-34.127079 46.903275 -12.015353
-33.889603 46.914482 -12.415536
-33.969631 46.913734 -12.180783
-34.069481 46.897598 -12.348427
-34.025913 46.917881 -12.027653
-33.850300 46.901859 -12.795978
-33.823498 46.906101 -12.728928
-33.855907 46.912334 -12.795589
-33.835880 46.903778 -12.826983
-33.822598 46.925755 -12.609145
-33.996853 46.898567 -12.337808
-33.777065 46.905029 -12.680704
-33.726776 46.909275 -12.834659
-33.939503 46.914616 -12.541953
-33.993225 46.908554 -12.556877
-33.720238 46.907707 -12.847260
-34.160870 46.906582 -12.070936
-33.892075 46.919872 -12.533371
-33.741421 46.914597 -12.793079
-33.842030 46.924442 -12.522870
-33.990940 46.901375 -12.526696
-34.083328 46.913124 -12.108150
-33.930954 46.909737 -12.383074
-33.875523 46.915203 -12.700879
-33.827553 46.915554 -12.689026
-33.866184 46.915710 -12.577507
-34.166153 46.901184 -12.012679
-34.052193 46.909157 -12.022903
-33.942387 46.908600 -12.329973
-33.904354 46.911610 -12.774937
-34.047020 46.896511 -12.324074
-33.896133 46.912117 -12.793272
-33.776054 46.913570 -12.809983
-33.870998 46.916862 -12.693020
-34.000374 46.907192 -12.144809
-33.868946 46.895603 -12.808684
-33.768402 46.900833 -12.784418
-33.733780 46.909435 -12.742106
-33.880775 46.911354 -12.321964
-33.901321 46.906570 -12.546194
-33.923164 46.912712 -12.672602
-33.910385 46.909496 -12.700013
-33.979073 46.920406 -12.348427
-34.082474 46.908115 -12.015156
-34.019104 46.896088 -12.344283
-33.979935 46.915859 -12.026045
-33.858593 46.930164 -12.403907
-33.817070 46.914761 -12.783646
-33.924213 46.913746 -12.175117
-34.016380 46.916248 -11.914848
-33.785648 46.911484 -12.715163
-33.808292 46.906750 -12.778723
-34.114254 46.907646 -12.069065
-33.965492 46.914200 -12.330278
-33.770592 46.914581 -12.594062
-33.886101 46.905502 -12.531640
-33.936573 46.898785 -12.546540
-33.745838 46.918713 -12.669032
-33.690937 46.915497 -12.818393
-33.844551 46.915165 -12.522851
-34.038406 46.915047 -12.104728
-33.948883 46.906151 -12.515751
-33.791988 46.913986 -12.511594
-33.698658 46.912533 -12.775678
-33.827480 46.908642 -12.684939
-33.895515 46.919819 -12.373210
-33.780354 46.907894 -12.673385
-34.004955 46.907257 -12.021927
-34.117672 46.905399 -12.014359
-33.816166 46.908314 -12.564084
-33.912403 46.925106 -12.321836
-34.004627 46.901241 -12.317236
-33.852131 46.904499 -12.758661
-33.839710 46.898460 -12.774633
-33.731079 46.908737 -12.791881
-33.820347 46.909554 -12.678329
-33.973228 46.926445 -12.135471
-33.717407 46.905754 -12.812665
-33.738213 46.915405 -12.773079
-33.854889 46.930477 -12.311996
-33.868603 46.918396 -12.535104
-33.700878 46.919331 -12.727821
-33.859085 46.902214 -12.687211
-33.869041 46.902756 -12.657843
-33.928181 46.913990 -12.341023
-34.041855 46.914581 -12.013104
-33.977131 46.901733 -12.339681
-33.932381 46.910976 -12.025009
-33.772495 46.910847 -12.767771
-33.806992 46.919849 -12.394217
-33.975697 46.921791 -11.909627
-33.773373 46.915802 -12.766938
-33.887112 46.922981 -12.166821
-33.746967 46.914970 -12.700097
-33.751781 46.904446 -12.795743
-34.071419 46.911343 -12.066312
-33.915020 46.908703 -12.325110
-33.907413 46.917183 -12.539706
-33.854954 46.920124 -12.523144
-33.734856 46.921741 -12.580980
-33.808784 46.922264 -12.512922
-33.652573 46.915970 -12.801369
-33.702118 46.913700 -12.653462
-33.919090 46.921642 -12.506638
-33.647083 46.915287 -12.814306
-33.992229 46.914097 -12.100927
-33.761383 46.927586 -12.501185
-33.665539 46.920437 -12.761350
-33.798241 46.926105 -12.674929
-33.850937 46.918789 -12.364676
-34.072639 46.909264 -12.015086
-33.746494 46.917835 -12.661942
-33.966969 46.914474 -12.018636
-33.965370 46.905636 -12.310394
-33.783352 46.919144 -12.552978
-33.858978 46.912880 -12.316837
-33.818363 46.915428 -12.747232
-33.810760 46.915840 -12.766829
-33.786163 46.919506 -12.667830
-33.694386 46.913002 -12.777466
-33.918968 46.915260 -12.133340
-33.787357 46.901958 -12.781359
-33.694916 46.911366 -12.756580
-33.805145 46.919888 -12.306094
-33.821293 46.912682 -12.523615
-33.897972 46.928513 -12.332842
-33.658527 46.915188 -12.711643
-33.840729 46.920113 -12.648143
-33.829201 46.919704 -12.679094
-33.994923 46.912605 -12.014338
-33.942940 46.914635 -12.333354
-33.898277 46.918823 -12.019842
-33.734543 46.915234 -12.753987
-34.029308 46.912945 -12.063831
-33.726067 46.907146 -12.751277
-33.775028 46.932583 -12.384424
-33.706604 46.914608 -12.685579
-33.929745 46.919777 -11.908031
-33.852631 46.932968 -12.157281
-33.886700 46.926006 -12.318573
-33.808994 46.915218 -12.514202
-33.854527 46.906982 -12.530636
-33.865253 46.908558 -12.496237
-33.949409 46.914795 -12.097170
-33.697430 46.925049 -12.568446
-33.764633 46.919209 -12.502450
-33.618195 46.921001 -12.786662
-33.670570 46.924408 -12.641728
-33.722057 46.928051 -12.490167
-33.748306 46.913708 -12.659498
-33.626534 46.917946 -12.745210
-34.033184 46.917614 -12.013395
-33.928772 46.919704 -12.015303
-33.940311 46.926659 -12.301729
-33.812553 46.922146 -12.354981
-33.704227 46.914623 -12.648940
-33.744125 46.920601 -12.541978
-33.827198 46.924541 -12.309228
-33.773472 46.911530 -12.732306
-33.761463 46.906406 -12.750512
-33.741367 46.913544 -12.655076
-33.655388 46.913506 -12.762339
-33.892467 46.934486 -12.122112
-33.642860 46.909409 -12.782467
-33.661049 46.918308 -12.744126
-33.790253 46.925301 -12.514129
-33.773899 46.930527 -12.296571
-33.963802 46.920090 -11.864624
-33.789104 46.906857 -12.634267
-33.777691 46.907444 -12.665241
-33.949680 46.911488 -12.014018
-33.846664 46.918121 -12.325358
-33.625923 46.922009 -12.698559
-33.865746 46.926533 -12.013095
-33.892044 46.908154 -12.329113
-33.981739 46.908062 -12.062785
-33.695107 46.914761 -12.739781
-33.696617 46.922619 -12.741226
-33.672310 46.920574 -12.674051
-33.676491 46.910133 -12.768428
-33.739605 46.939674 -12.373558
-33.892628 46.925961 -11.901883
-33.834221 46.913670 -12.313890
-33.824322 46.921497 -12.522454
-33.806694 46.928013 -12.151514
-33.774075 46.924213 -12.505584
-33.832729 46.919312 -12.487337
-33.913204 46.920868 -12.091327
-33.666393 46.934673 -12.557953
-33.727077 46.921463 -12.493051
-33.634075 46.924610 -12.628495
-33.581718 46.921265 -12.770272
-33.888134 46.914310 -12.296090
-33.689751 46.934803 -12.479292
-33.888565 46.921097 -12.013466
-33.713074 46.919781 -12.647655
-33.978279 46.909397 -12.017330
-33.589539 46.919235 -12.730740
-33.773746 46.924526 -12.346217
-33.669941 46.920593 -12.637414
-33.783321 46.918358 -12.303112
-33.739071 46.919495 -12.721765
-33.707638 46.923805 -12.529757
-33.732307 46.921803 -12.742669
-33.708130 46.923393 -12.644898
-33.712368 46.910564 -12.757263
-33.623936 46.922211 -12.749611
-33.842396 46.923855 -12.120319
-33.629280 46.927025 -12.732347
-33.753010 46.927540 -12.503778
-33.732445 46.926105 -12.290185
-33.755863 46.916710 -12.624085
-33.818970 46.932400 -12.315912
-33.919720 46.917862 -11.863655
-33.828056 46.927681 -12.009994
-33.743813 46.917320 -12.656957
-33.912212 46.917618 -12.011971
-33.862141 46.922600 -12.323144
-33.589973 46.924187 -12.684425
-33.946369 46.916027 -12.058248
-33.660088 46.919823 -12.726969
-33.653503 46.914516 -12.725903
-33.633724 46.919003 -12.660146
-33.802017 46.924355 -12.307208
-33.776897 46.914730 -12.514106
-33.790440 46.916046 -12.477489
-33.701023 46.941048 -12.363830
-33.733887 46.922722 -12.496412
-33.852146 46.927437 -11.897845
-33.774525 46.938770 -12.141682
-33.882790 46.933411 -12.083107
-33.695831 46.932098 -12.483527
-33.597046 46.922844 -12.616169
-33.862747 46.932350 -12.287360
-33.630238 46.937862 -12.544791
-33.548065 46.924202 -12.755841
-33.863083 46.938152 -12.004719
-33.654507 46.937824 -12.469601
-33.670692 46.912582 -12.633616
-33.938190 46.914780 -12.016528
-33.742393 46.934174 -12.336672
-33.556931 46.923061 -12.716644
-33.635437 46.924572 -12.625846
-33.751335 46.928032 -12.295464
-33.695850 46.913399 -12.707429
-33.676601 46.933430 -12.519263
-33.688042 46.914818 -12.727998
-33.666271 46.918106 -12.633117
-33.585449 46.918636 -12.734715
-33.812313 46.936386 -12.111156
-33.590794 46.923454 -12.717450
-33.700020 46.931805 -12.282450
-33.716927 46.931660 -12.493789
-33.717777 46.917049 -12.612427
-33.698154 46.906406 -12.645041
-33.775208 46.927212 -12.309819
-33.875893 46.922634 -12.009269
-33.801743 46.942844 -11.999943
-33.886059 46.926693 -11.857570
-33.906361 46.916409 -12.055435
-33.810398 46.911167 -12.319747
-33.554634 46.923275 -12.670542
-33.625580 46.923801 -12.715398
-33.617954 46.917610 -12.713997
-33.604866 46.914402 -12.742359
-33.598278 46.920094 -12.647251
-33.757721 46.917191 -12.302020
-33.758755 46.925701 -12.468886
-33.742378 46.921646 -12.506705
-33.698540 46.927742 -12.487710
-33.841957 46.931896 -12.078994
-33.664856 46.944183 -12.353828
-33.814281 46.929665 -11.892564
-33.731297 46.932499 -12.136841
-33.809296 46.914070 -12.283491
-33.660160 46.934139 -12.474760
-33.564968 46.928585 -12.604331
-33.816353 46.929115 -12.006127
-33.641747 46.923981 -12.623796
-33.594486 46.938972 -12.532849
-33.516621 46.929909 -12.742107
-33.616856 46.936092 -12.459174
-33.895988 46.915325 -12.017198
-33.708305 46.939079 -12.327338
-33.599136 46.923706 -12.614802
-33.713448 46.927250 -12.289161
-33.661129 46.918385 -12.696827
-33.528744 46.935421 -12.704955
-33.655205 46.922585 -12.719038
-33.640633 46.935551 -12.508288
-33.879589 46.884583 -11.838145
-33.633541 46.923878 -12.623167
-33.636528 46.911224 -12.733000
-33.552528 46.922478 -12.721567
-33.767715 46.929245 -12.106924
-33.685669 46.939301 -12.483250
-33.688618 46.929455 -12.603573
-33.557552 46.927311 -12.705251
-33.668034 46.938488 -12.273792
-33.760254 46.935303 -11.998863
-33.743313 46.934883 -12.301177
-33.670376 46.922680 -12.636592
-33.867188 46.915688 -12.052917
-33.844425 46.934231 -12.003875
-33.849739 46.928722 -11.853858
-33.780285 46.923626 -12.313738
-33.522762 46.928005 -12.657735
-33.592331 46.927658 -12.703196
-33.585434 46.922367 -12.703079
-33.728977 46.930523 -12.295403
-33.724766 46.931599 -12.459569
-33.703968 46.921944 -12.499157
-33.566196 46.925835 -12.635411
-33.806057 46.934895 -12.074354
-33.665176 46.933544 -12.479659
-33.783382 46.930138 -12.275669
-33.630989 46.948082 -12.343530
-33.777363 46.931786 -11.887598
-33.623230 46.933308 -12.465616
-33.701431 46.944023 -12.126714
-33.789299 46.943314 -11.997952
-33.536243 46.938976 -12.593546
-33.607140 46.926968 -12.612206
-33.580967 46.933147 -12.449354
-33.555786 46.933357 -12.521075
-33.857990 46.919487 -12.016057
-33.481609 46.928986 -12.727281
-33.683765 46.937695 -12.281218
-33.626625 46.922363 -12.685257
-33.671280 46.940258 -12.319187
-33.563278 46.923820 -12.602839
-33.616917 46.920937 -12.707340
-33.493080 46.931526 -12.691008
-33.856735 46.902397 -11.828157
-33.603077 46.931812 -12.496867
-33.599442 46.925777 -12.612818
-33.523075 46.931961 -12.709497
-33.736561 46.937828 -12.099571
-33.646534 46.935703 -12.473408
-33.846836 46.936249 -12.042669
-33.633709 46.938347 -12.266562
-33.646431 46.921188 -12.591725
-33.736351 46.952229 -11.988539
-33.708260 46.936840 -12.293672
-33.632385 46.920956 -12.627105
-33.523052 46.928295 -12.692675
-33.801689 46.929810 -12.004441
-33.815010 46.933609 -11.849583
-33.733051 46.912731 -12.309731
-33.554474 46.923996 -12.689564
-33.490902 46.932739 -12.644931
-33.551880 46.926243 -12.691830
-33.694878 46.935368 -12.289228
-33.698238 46.947758 -12.450487
-33.670605 46.927746 -12.491105
-33.533791 46.928596 -12.623507
-33.631489 46.936367 -12.471542
-33.767429 46.933151 -12.069926
-33.741276 46.922749 -12.270161
-33.589649 46.934128 -12.456511
-33.595547 46.949123 -12.333802
-33.746132 46.934917 -11.998434
-33.740879 46.934891 -11.881710
-33.577980 46.936378 -12.602345
-33.665470 46.946095 -12.118906
-33.498901 46.931232 -12.580148
-33.548866 46.935837 -12.439663
-33.830948 46.936684 -12.008896
-33.649342 46.939556 -12.274980
-33.592522 46.924263 -12.674906
-33.453102 46.938362 -12.715528
-33.522346 46.935234 -12.508841
-33.636768 46.941189 -12.309770
-33.832726 46.918335 -11.817811
-33.536434 46.936993 -12.593696
-33.585342 46.928585 -12.697752
-33.462360 46.935143 -12.677547
-33.575298 46.945099 -12.487411
-33.565346 46.927681 -12.602472
-33.801563 46.926075 -12.042470
-33.702568 46.940678 -12.092409
-33.491825 46.936600 -12.697952
-33.594967 46.929615 -12.260092
-33.618423 46.932480 -12.582218
-33.692333 46.938877 -11.989863
-33.613705 46.940483 -12.463443
-33.676270 46.943523 -12.285012
-33.594505 46.917229 -12.616628
-33.491581 46.930946 -12.681085
-33.774319 46.944027 -11.997214
-33.775764 46.931908 -11.847059
-33.702953 46.925194 -12.303728
-33.523216 46.928635 -12.678017
-33.458717 46.934490 -12.632062
-33.520084 46.928905 -12.681185
-33.652977 46.931709 -12.441941
-33.635666 46.930691 -12.483623
-33.663727 46.943947 -12.281877
-33.713886 46.933956 -12.261916
-33.738792 46.944492 -12.062320
-33.595612 46.936424 -12.462735
-33.500126 46.928482 -12.611226
-33.717896 46.944176 -11.992045
-33.553673 46.933193 -12.447686
-33.562519 46.951923 -12.323800
-33.544212 46.938271 -12.591052
-33.468594 46.935768 -12.568921
-33.715111 46.949039 -11.869749
-33.518242 46.940392 -12.429383
-33.784843 46.927551 -12.011568
-33.622654 46.934750 -12.114279
-33.610924 46.933804 -12.268574
-33.804600 46.928593 -11.811444
-33.560120 46.930019 -12.664014
-33.423317 46.941872 -12.702381
-33.503384 46.936787 -12.582675
-33.490570 46.937908 -12.498204
-33.552402 46.932365 -12.687762
-33.600361 46.939278 -12.301871
-33.431332 46.938778 -12.665037
-33.538692 46.941257 -12.476311
-33.533684 46.934341 -12.592868
-33.779743 46.944771 -12.032815
-33.668106 46.952820 -11.979474
-33.577278 46.935570 -12.454524
-33.460674 46.939240 -12.685416
-33.668583 46.943527 -12.085249
-33.566444 46.938946 -12.251499
-33.585705 46.938255 -12.572275
-33.640900 46.942497 -12.277445
-33.565758 46.927559 -12.608998
-33.729259 46.932785 -11.999213
-33.459282 46.931702 -12.668192
-33.752617 46.949802 -11.834864
-33.671261 46.931797 -12.297278
-33.494068 46.938046 -12.668159
-33.620766 46.936401 -12.433237
-33.428623 46.938019 -12.619866
-33.487476 46.932674 -12.670254
-33.627613 46.941956 -12.276184
-33.682510 46.940548 -12.254518
-33.697411 46.934948 -12.060249
-33.603249 46.936386 -12.475889
-33.560562 46.935379 -12.454223
-33.471081 46.935894 -12.600378
-33.678833 46.938400 -11.990696
-33.523659 46.937653 -12.438666
-33.509895 46.935192 -12.579650
-33.523384 46.942276 -12.315104
-33.438072 46.938320 -12.557651
-33.773426 46.934124 -11.806237
-33.484241 46.937241 -12.420198
-33.580391 46.939297 -12.261474
-33.528008 46.932701 -12.654317
-33.757805 46.944752 -12.004411
-33.677879 46.948181 -11.864725
-33.520512 46.937035 -12.678111
-33.391018 46.939636 -12.688478
-33.597111 46.950882 -12.102364
-33.467720 46.932838 -12.571891
-33.567947 46.941986 -12.293130
-33.460381 46.943443 -12.487002
-33.506302 46.945541 -12.584629
-33.399979 46.939430 -12.652462
-33.506805 46.942936 -12.465651
-33.733414 46.930656 -12.034430
-33.629658 46.943954 -11.978375
-33.535477 46.940460 -12.244312
-33.554749 46.942818 -12.562936
-33.546757 46.941120 -12.444264
-33.609520 46.946095 -12.269035
-33.633640 46.943428 -12.079921
-33.430477 46.944767 -12.674211
-33.702290 46.944920 -11.993206
-33.532619 46.932350 -12.599984
-33.426674 46.932476 -12.656251
-33.710190 46.939320 -11.835624
-33.636635 46.934669 -12.292011
-33.459965 46.933956 -12.655788
-33.589603 46.941978 -12.424870
-33.653545 46.948898 -12.246843
-33.398422 46.940556 -12.607650
-33.455475 46.933357 -12.659570
-33.671936 46.949013 -12.050496
-33.586876 46.932381 -12.272222
-33.566521 46.934486 -12.468936
-33.526138 46.934242 -12.446974
-33.439297 46.935566 -12.588727
-33.653976 46.952374 -11.982203
-33.491032 46.938370 -12.429883
-33.739929 46.935833 -11.803474
-33.480534 46.942616 -12.569750
-33.454136 46.940712 -12.411162
-33.410084 46.946621 -12.547142
-33.548599 46.941914 -12.253995
-33.496441 46.937359 -12.643721
-33.712006 46.932545 -12.008284
-33.491840 46.946945 -12.304518
-33.481487 46.928436 -12.666269
-33.439297 46.940159 -12.562305
-33.649067 46.957607 -11.853926
-33.709370 46.943523 -12.026224
-33.564281 46.952621 -12.094554
-33.361248 46.943146 -12.675338
-33.535435 46.943703 -12.284369
-33.428604 46.943123 -12.475356
-33.471363 46.942493 -12.575127
-33.372303 46.947712 -12.641006
-33.473343 46.941761 -12.455562
-33.603432 46.954060 -11.969483
-33.512863 46.938961 -12.435098
-33.517601 46.937004 -12.552736
-33.505161 46.944946 -12.236247
-33.570896 46.938354 -12.262589
-33.398903 46.943432 -12.661591
-33.600807 46.945164 -12.072108
-33.502396 46.937817 -12.591932
-33.663452 46.941132 -11.991903
-33.398460 46.938786 -12.645696
-33.597366 46.926960 -12.287457
-33.683998 46.952492 -11.824590
-33.552647 46.935093 -12.416858
-33.618576 46.945797 -12.240495
-33.429344 46.938507 -12.645510
-33.557278 46.937767 -12.265435
-33.636341 46.945946 -12.046048
-33.426006 46.939785 -12.649649
-33.369381 46.944969 -12.595793
-33.533562 46.935215 -12.461095
-33.719902 46.912022 -11.748640
-33.494663 46.936840 -12.438546
-33.617535 46.947346 -11.979611
-33.408890 46.939114 -12.577481
-33.457863 46.934120 -12.420990
-33.708656 46.940376 -11.798249
-33.450954 46.948059 -12.559806
-33.425282 46.944061 -12.401492
-33.517426 46.944439 -12.247780
-33.464012 46.937061 -12.633962
-33.380295 46.950073 -12.537159
-33.682747 46.943916 -12.002579
-33.460369 46.946552 -12.295082
-33.451363 46.931896 -12.657227
-33.670086 46.935757 -12.024828
-33.412128 46.947357 -12.552086
-33.335880 46.955193 -12.664596
-33.504395 46.947289 -12.275020
-33.610134 46.949837 -11.851596
-33.439983 46.943085 -12.565706
-33.397560 46.943703 -12.464994
-33.528305 46.948639 -12.087885
-33.566753 46.943985 -11.968994
-33.671574 46.919350 -11.743962
-33.341675 46.946270 -12.628703
-33.446503 46.951946 -12.445410
-33.478500 46.951069 -12.227267
-33.487587 46.941463 -12.543716
-33.540466 46.941845 -12.254498
-33.482971 46.944420 -12.426104
-33.469650 46.937534 -12.583122
-33.633331 46.947548 -11.987036
-33.368706 46.945969 -12.649375
-33.570713 46.951645 -12.064087
-33.370152 46.947098 -12.636136
-33.566307 46.933475 -12.282275
-33.646820 46.946507 -11.823874
-33.526524 46.946178 -12.407986
-33.584766 46.944572 -12.234507
-33.399757 46.940948 -12.634552
-33.606747 46.951340 -12.039262
-33.525284 46.941391 -12.258929
-33.395058 46.941357 -12.639305
-33.687038 46.913639 -11.747145
-33.340126 46.947399 -12.583893
-33.496414 46.929340 -12.454059
-33.462658 46.937466 -12.431026
-33.587631 46.952755 -11.973777
-33.380680 46.945427 -12.566929
-33.429131 46.941460 -12.412356
-33.680214 46.947655 -11.791822
-33.423901 46.959248 -12.550623
-33.484779 46.942101 -12.241142
-33.646046 46.948627 -12.016626
-33.396652 46.949402 -12.391868
-33.431908 46.936752 -12.623258
-33.350285 46.948544 -12.526119
-33.643375 46.938156 -12.002180
-33.419167 46.933590 -12.647517
-33.432384 46.954865 -12.284576
-33.376869 46.938332 -12.541512
-33.475220 46.950657 -12.266296
-33.302944 46.946995 -12.650567
-33.409874 46.946552 -12.556669
-33.542431 46.956940 -11.958588
-33.585117 46.964958 -11.837766
-33.371265 46.955864 -12.453942
-33.500751 46.957939 -12.076453
-33.412506 46.945797 -12.435215
-33.311161 46.945827 -12.616426
-33.450592 46.957314 -12.218925
-33.454948 46.939182 -12.533916
-33.452641 46.945904 -12.417022
-33.509502 46.943363 -12.247313
-33.599628 46.947266 -11.984234
-33.537640 46.948334 -12.058376
-33.439438 46.943005 -12.575075
-33.339020 46.947414 -12.638399
-33.698296 46.915855 -11.778337
-33.617126 46.950912 -11.817070
-33.341946 46.953411 -12.625584
-33.534313 46.937103 -12.275768
-33.493248 46.943932 -12.400082
-33.554016 46.948078 -12.227363
-33.369751 46.942410 -12.624523
-33.571774 46.945183 -12.035066
-33.493786 46.940937 -12.252647
-33.658905 46.920845 -11.742929
-33.365162 46.943813 -12.629298
-33.471241 46.943314 -12.446517
-33.554539 46.949383 -11.971223
-33.312241 46.953701 -12.572396
-33.435074 46.946686 -12.422748
-33.351929 46.946770 -12.556267
-33.645870 46.944408 -11.789903
-33.399853 46.943832 -12.403613
-33.608959 46.940636 -12.014914
-33.388847 46.949215 -12.539076
-33.401688 46.939224 -12.614197
-33.457092 46.950336 -12.232845
-33.369068 46.955627 -12.382579
-33.323345 46.957733 -12.515948
-33.613369 46.945568 -11.997336
-33.391357 46.940815 -12.639194
-33.511341 46.954411 -11.953527
-33.349503 46.946545 -12.532268
-33.401035 46.955467 -12.275167
-33.277470 46.958046 -12.639805
-33.378399 46.946152 -12.547232
-33.442287 46.948399 -12.257454
-33.383770 46.950142 -12.425569
-33.416988 46.949028 -12.213109
-33.282734 46.947155 -12.604819
-33.546486 46.954113 -11.836636
-33.340439 46.955441 -12.442615
-33.465076 46.950882 -12.070984
-33.424950 46.943645 -12.524900
-33.482021 46.950588 -12.238043
-33.421169 46.945511 -12.407585
-33.681744 46.939125 -11.764051
-33.571083 46.953548 -11.977786
-33.406380 46.939743 -12.566204
-33.507118 46.950840 -12.050269
-33.309654 46.948853 -12.626478
-33.309307 46.945137 -12.613764
-33.519135 46.939915 -12.222171
-33.502934 46.940636 -12.270523
-33.584927 46.952572 -11.810526
-33.561134 46.919567 -11.731323
-33.462601 46.945431 -12.391947
-33.543655 46.952442 -12.027693
-33.338913 46.941982 -12.613192
-33.629623 46.926167 -11.738358
-33.465782 46.949184 -12.245297
-33.437439 46.939091 -12.439520
-33.336102 46.948166 -12.620598
-33.527893 46.958511 -11.963261
-33.402531 46.942345 -12.415119
-33.285294 46.959896 -12.561212
-33.323620 46.952091 -12.545695
-33.623440 46.960217 -11.777979
-33.371731 46.948078 -12.395243
-33.584927 46.953503 -12.006728
-33.358406 46.946701 -12.528975
-33.337456 46.948177 -12.374270
-33.427181 46.952736 -12.226015
-33.372730 46.944565 -12.605533
-33.295746 46.960957 -12.505662
-33.363441 46.947041 -12.630864
-33.483406 46.957600 -11.947346
-33.577877 46.943428 -11.996090
-33.576183 46.915806 -11.739630
-33.321693 46.950771 -12.522950
-33.346489 46.941769 -12.537724
-33.412582 46.949795 -12.249655
-33.249039 46.959370 -12.628216
-33.370930 46.955948 -12.265141
-33.357754 46.959225 -12.415727
-33.388645 46.951298 -12.204700
-33.651482 46.941494 -11.761323
-33.256721 46.956234 -12.594980
-33.398716 46.953732 -12.516026
-33.450733 46.949123 -12.230811
-33.313168 46.961647 -12.432397
-33.438232 46.958084 -12.059840
-33.525570 46.974915 -11.818839
-33.391884 46.947876 -12.398859
-33.532726 46.942616 -11.978876
-33.477520 46.953236 -12.042495
-33.376060 46.944218 -12.558157
-33.280903 46.950191 -12.615837
-33.493629 46.950912 -12.214581
-33.549545 46.950546 -11.708059
-33.280334 46.944489 -12.603081
-33.558483 46.960697 -11.801612
-33.475025 46.949875 -12.263214
-33.431843 46.945934 -12.383811
-33.514160 46.955837 -12.019939
-33.312576 46.951073 -12.604300
-33.604122 46.937187 -11.730774
-33.434502 46.950718 -12.239085
-33.494473 46.952160 -11.960665
-33.304825 46.943756 -12.609200
-33.409531 46.948326 -12.432212
-33.375763 46.950462 -12.407156
-33.587482 46.951054 -11.778793
-33.255928 46.961330 -12.549317
-33.547085 46.941555 -12.005886
-33.295300 46.957409 -12.535148
-33.342453 46.950459 -12.386511
-33.332176 46.956795 -12.520095
-33.396183 46.948208 -12.219972
-33.311440 46.957272 -12.364422
-33.340199 46.940285 -12.594755
-33.451672 46.952114 -11.943180
-33.565353 46.950760 -11.715497
-33.265957 46.961422 -12.494680
-33.331963 46.946644 -12.621436
-33.548183 46.950840 -11.990309
-33.294098 46.957001 -12.513671
-33.624252 46.945602 -11.756410
-33.384663 46.953049 -12.240309
-33.321739 46.956730 -12.529268
-33.217979 46.950962 -12.614829
-33.359879 46.952595 -12.197208
-33.366371 46.948383 -12.507434
-33.327423 46.957722 -12.405646
-33.342834 46.963276 -12.254625
-33.422600 46.953388 -12.222434
-33.229549 46.960442 -12.583762
-33.367233 46.960838 -12.389409
-33.284416 46.963001 -12.421749
-33.508076 46.955593 -11.969427
-33.486691 46.959030 -11.819820
-33.410137 46.965424 -12.049324
-33.346127 46.943619 -12.550302
-33.448353 46.956627 -12.033785
-33.523174 46.953621 -11.700286
-33.253628 46.956398 -12.605611
-33.460758 46.946598 -12.207909
-33.619488 46.944492 -11.739026
-33.403378 46.947212 -12.375364
-33.254757 46.957550 -12.593321
-33.441742 46.947578 -12.258482
-33.525208 46.958420 -11.796886
-33.485172 46.958149 -12.013412
-33.283398 46.951439 -12.594576
-33.405296 46.951035 -12.232515
-33.577686 46.948330 -11.722865
-33.465706 46.956467 -11.954185
-33.378239 46.946865 -12.424972
-33.276806 46.949001 -12.600847
-33.344910 46.949982 -12.398993
-33.567249 46.969707 -11.764412
-33.522610 46.950462 -11.997606
-33.228550 46.966549 -12.539070
-33.267590 46.959648 -12.524833
-33.316120 46.959564 -12.377611
-33.365841 46.946644 -12.213050
-33.301846 46.955288 -12.510014
-33.313217 46.946415 -12.586734
-33.428585 46.964962 -11.932147
-33.283634 46.961517 -12.355102
-33.543121 46.965576 -11.702611
-33.238144 46.962666 -12.484345
-33.301311 46.945145 -12.612301
-33.515099 46.950474 -11.988778
-33.601383 46.960442 -11.745419
-33.266617 46.964222 -12.504416
-33.293499 46.959988 -12.520870
-33.355705 46.955421 -12.230631
-33.334686 46.960598 -12.187651
-33.193867 46.965893 -12.604478
-33.336868 46.948769 -12.498655
-33.299614 46.961967 -12.396324
-33.392357 46.952820 -12.215531
-33.313663 46.963657 -12.244905
-33.199219 46.952938 -12.571660
-33.337734 46.961231 -12.380632
-33.473202 46.950382 -11.968427
-33.504505 46.972141 -11.684319
-33.256317 46.967327 -12.410221
-33.458805 46.965374 -11.808335
-33.317177 46.948975 -12.541636
-33.379074 46.962971 -12.041123
-33.418652 46.958042 -12.025981
-33.432087 46.948891 -12.200434
-33.224773 46.956753 -12.594941
-33.378189 46.958199 -12.366818
-33.588200 46.948990 -11.736973
-33.226406 46.956814 -12.583889
-33.498970 46.965553 -11.786993
-33.410137 46.946136 -12.252192
-33.454613 46.957607 -12.007459
-33.256954 46.959545 -12.585653
-33.554394 46.962193 -11.712801
-33.439552 46.961521 -11.946457
-33.375385 46.953449 -12.225681
-33.348106 46.947281 -12.418090
-33.251511 46.958988 -12.592281
-33.318039 46.957115 -12.390997
-33.494881 46.955654 -11.991458
-33.529305 46.956715 -11.766714
-33.199158 46.961937 -12.528294
-33.240211 46.964867 -12.514585
-33.287666 46.960842 -12.369171
-33.399574 46.961220 -11.926755
-33.340443 46.955654 -12.204463
-33.275513 46.964390 -12.501114
-33.508728 46.956223 -11.704994
-33.257080 46.965645 -12.345146
-33.285305 46.952656 -12.578403
-33.567623 46.954056 -11.746913
-33.211803 46.968773 -12.474434
-33.272972 46.950401 -12.604897
-33.483078 46.951061 -11.984430
-33.237011 46.960621 -12.494607
-33.305492 46.957920 -12.180075
-33.264336 46.963356 -12.512162
-33.365372 46.955975 -12.206498
-33.166267 46.966125 -12.593176
-33.326435 46.957809 -12.221904
-33.309277 46.954998 -12.489376
-33.272018 46.965206 -12.386034
-33.309925 46.965477 -12.371310
-33.447800 46.959400 -11.959838
-33.283855 46.961075 -12.236070
-33.470226 46.960785 -11.685714
-33.174789 46.967880 -12.562258
-33.228508 46.968578 -12.399888
-33.404037 46.951092 -12.194221
-33.290096 46.957111 -12.534609
-33.389774 46.958355 -12.018469
-33.198654 46.964844 -12.585073
-33.427536 46.963940 -11.801105
-33.348125 46.961514 -12.032947
-33.347115 46.955730 -12.358611
-33.562302 46.962105 -11.728161
-33.197342 46.955181 -12.573178
-33.465351 46.957230 -11.784348
-33.427418 46.961773 -11.999395
-33.379910 46.948563 -12.246305
-33.519287 46.954937 -11.714915
-33.409725 46.961884 -11.941789
-33.228424 46.962883 -12.575050
-33.345764 46.952789 -12.220041
-33.464825 46.954021 -11.986741
-33.220539 46.951511 -12.582072
-33.319878 46.953541 -12.410707
-33.289272 46.958408 -12.383505
-33.507069 46.971527 -11.753829
-33.213760 46.969982 -12.504651
-33.172100 46.967144 -12.517101
-33.373207 46.964291 -11.918985
-33.261227 46.968960 -12.360251
-33.310928 46.952991 -12.197834
-33.485962 46.969063 -11.693013
-33.248745 46.969521 -12.492126
-33.259586 46.961662 -12.570763
-33.225876 46.953129 -12.337042
-33.546429 46.969757 -11.734362
-33.248837 46.965267 -12.597701
-33.183998 46.970020 -12.464102
-33.210030 46.963760 -12.485578
-33.279552 46.961960 -12.171380
-33.454750 46.959347 -11.978040
-33.235451 46.960651 -12.503635
-33.338070 46.959141 -12.198416
-33.448174 46.971531 -11.674001
-33.302422 46.970753 -12.210560
-33.282516 46.963123 -12.481402
-33.137196 46.958500 -12.580441
-33.281574 46.964756 -12.361879
-33.240627 46.956757 -12.376755
-33.418724 46.963722 -11.954309
-33.145184 46.958282 -12.550428
-33.378525 46.959106 -12.185611
-33.255337 46.964432 -12.225471
-33.261215 46.957401 -12.527094
-33.199554 46.967949 -12.389202
-33.319386 46.957912 -12.351452
-33.364079 46.967453 -12.007674
-33.171059 46.968075 -12.574784
-33.403862 46.976955 -11.785658
-33.320427 46.963772 -12.022637
-33.399582 46.962975 -11.992216
-33.172268 46.967159 -12.564659
-33.438694 46.963383 -11.775384
-33.524052 46.952126 -11.732428
-33.350613 46.950886 -12.240731
-33.494953 46.967915 -11.704519
-33.382217 46.966068 -11.934677
-33.318367 46.957958 -12.212952
-33.200294 46.964138 -12.565664
-33.438778 46.960072 -11.979034
-33.472786 46.960171 -11.755220
-33.292694 46.960690 -12.403661
-33.195473 46.966484 -12.574567
-33.260834 46.962685 -12.376081
-33.346310 46.965385 -11.912122
-33.145760 46.970257 -12.506178
-33.184589 46.967358 -12.493919
-33.229919 46.958447 -12.353138
-33.284779 46.958038 -12.190109
-33.511074 46.957447 -11.738571
-33.453793 46.962543 -11.692934
-33.220505 46.969784 -12.482718
-33.200050 46.958157 -12.328371
-33.230305 46.961037 -12.561019
-33.219021 46.962666 -12.588861
-33.155445 46.967308 -12.454634
-33.253616 46.966000 -12.162685
-33.184017 46.972851 -12.475732
-33.425674 46.963665 -11.972510
-33.418320 46.965843 -11.670465
-33.207329 46.964909 -12.495264
-33.310268 46.963394 -12.189096
-33.255749 46.968250 -12.472415
-33.271332 46.962234 -12.203490
-33.112762 46.973442 -12.571039
-33.251122 46.959198 -12.353925
-33.388680 46.962093 -11.949598
-33.214294 46.962872 -12.366844
-33.349003 46.956444 -12.178979
-33.119705 46.969345 -12.539680
-33.234241 46.963539 -12.519077
-33.227425 46.964695 -12.215120
-33.290718 46.957203 -12.342969
-33.334568 46.964802 -12.001047
-33.171856 46.970192 -12.378894
-33.144501 46.969196 -12.563816
-33.370174 46.961315 -11.985609
-33.371319 46.969589 -11.780198
-33.294121 46.972969 -12.010584
-33.502361 46.971912 -11.719654
-33.410679 46.965672 -11.766022
-33.142559 46.959564 -12.553821
-33.321640 46.953194 -12.234211
-33.460148 46.957584 -11.707832
-33.353001 46.963337 -11.930259
-33.410625 46.961285 -11.972803
-33.173531 46.969265 -12.556680
-33.450333 46.973000 -11.742292
-33.289715 46.960251 -12.205485
-33.233101 46.961868 -12.367913
-33.167240 46.966747 -12.565161
-33.262569 46.961113 -12.396785
-33.319305 46.965488 -11.905237
-33.486919 46.966351 -11.729347
-33.431873 46.977348 -11.679101
-33.202305 46.958626 -12.344994
-33.256844 46.958237 -12.182913
-33.118168 46.970493 -12.494880
-33.158577 46.976452 -12.484075
-33.174866 46.966152 -12.318816
-33.193130 46.975010 -12.472473
-33.202290 46.966286 -12.552670
-33.127823 46.961491 -12.444465
-33.189102 46.959076 -12.580002
-33.398499 46.982487 -11.654141
-33.225254 46.962227 -12.155404
-33.155254 46.971146 -12.467233
-33.282864 46.965569 -12.180994
-33.180676 46.971031 -12.486301
-33.226974 46.966545 -12.463910
-33.392597 46.960308 -11.969975
-33.242035 46.958569 -12.195896
-33.223606 46.957375 -12.344788
-33.084736 46.966705 -12.558641
-33.321171 46.957638 -12.171802
-33.361389 46.968269 -11.942531
-33.188602 46.971958 -12.356052
-33.091763 46.960541 -12.529447
-33.205585 46.965820 -12.511611
-33.261631 46.955517 -12.335414
-33.199623 46.965958 -12.204792
-33.145840 46.976295 -12.368036
-33.118065 46.977306 -12.554898
-33.307621 46.971027 -11.989878
-33.342346 46.962521 -11.978434
-33.385193 46.973774 -11.754258
-33.326530 46.965412 -11.922469
-33.380760 46.955585 -11.969263
-33.345753 46.979759 -11.766270
-33.263790 46.968422 -12.002659
-33.116657 46.969646 -12.543999
-33.462524 46.956013 -11.726639
-33.291096 46.952641 -12.228264
-33.437408 46.973492 -11.693710
-33.418377 46.965469 -11.741244
-33.261776 46.960453 -12.198289
-33.145409 46.970524 -12.547297
-33.139938 46.966904 -12.556067
-33.203381 46.957211 -12.361244
-33.233810 46.962406 -12.389297
-33.293369 46.969540 -11.896544
-33.455994 46.959705 -11.728629
-33.399071 46.967865 -11.679908
-33.176693 46.965641 -12.336366
-33.091721 46.972614 -12.483936
-33.229980 46.962387 -12.173909
-33.130344 46.973724 -12.473659
-33.149994 46.974136 -12.308314
-33.164574 46.972294 -12.463002
-33.175102 46.970432 -12.544611
-33.366707 46.967827 -11.656416
-33.198788 46.964294 -12.147617
-33.161598 46.963234 -12.572892
-33.101921 46.971577 -12.434643
-33.126060 46.962467 -12.457635
-33.255245 46.965755 -12.172849
-33.153164 46.972198 -12.478179
-33.198746 46.969810 -12.455519
-33.363308 46.962643 -11.964406
-33.217590 46.967537 -12.184467
-33.295555 46.964664 -12.163172
-33.196632 46.960522 -12.335761
-33.333351 46.970482 -11.936325
-33.161411 46.973118 -12.346982
-33.057579 46.970921 -12.547431
-33.065964 46.968624 -12.518634
-33.236019 46.962532 -12.326785
-33.175571 46.964233 -12.503746
-33.172970 46.969097 -12.194818
-33.278835 46.966282 -11.983522
-33.317047 46.969536 -11.968857
-33.089397 46.967602 -12.543384
-33.118252 46.976540 -12.356739
-33.300808 46.971455 -11.913818
-33.355148 46.962616 -11.960634
-33.088821 46.961838 -12.533787
-33.354305 46.967197 -11.750392
-33.267811 46.969482 -12.219218
-33.404396 46.965012 -11.695487
-33.397842 46.984207 -11.724654
-33.440643 46.976879 -11.711679
-33.312557 46.966362 -11.763841
-33.236523 46.971668 -11.991426
-33.118431 46.973663 -12.538270
-33.232597 46.960773 -12.191730
-33.268684 46.973473 -11.887215
-33.433842 46.972454 -11.717910
-33.206089 46.964584 -12.382143
-33.111393 46.967182 -12.547613
-33.177052 46.966324 -12.352349
-33.375980 46.977726 -11.667863
-33.151829 46.976620 -12.326877
-33.203621 46.965450 -12.166142
-33.102833 46.971897 -12.464524
-33.064030 46.971863 -12.472619
-33.123020 46.977287 -12.299289
-33.345314 46.981609 -11.640663
-33.137165 46.971462 -12.453889
-33.146336 46.968723 -12.536110
-33.173172 46.968323 -12.137978
-33.076088 46.973606 -12.424960
-33.132725 46.960529 -12.564370
-33.098125 46.956665 -12.448417
-33.228271 46.968914 -12.163822
-33.124081 46.967514 -12.469615
-33.171558 46.973961 -12.447460
-33.266979 46.961895 -12.156857
-33.334133 46.965973 -11.958858
-33.171875 46.972496 -12.326294
-33.304676 46.969727 -11.931004
-33.189583 46.969807 -12.175110
-33.133690 46.969307 -12.337806
-33.032818 46.982883 -12.537962
-33.210297 46.968555 -12.318135
-33.039631 46.974735 -12.508726
-33.149639 46.971256 -12.496066
-33.290047 46.969639 -11.961972
-33.252285 46.970425 -11.973570
-33.091599 46.979675 -12.346766
-33.146984 46.978271 -12.181819
-33.328251 46.963711 -11.953770
-33.061386 46.966862 -12.533013
-33.271496 46.967731 -11.909383
-33.379208 46.973038 -11.685931
-33.329563 46.976269 -11.736754
-33.062069 46.966969 -12.524806
-33.364613 46.970745 -11.725375
-33.211357 46.979748 -11.978715
-33.234413 46.957138 -12.214596
-33.403641 46.963715 -11.717463
-33.090702 46.966850 -12.528079
-33.242935 46.973454 -11.879696
-33.290070 46.984394 -11.743447
-33.206451 46.965824 -12.184008
-33.402287 46.962845 -11.718078
-33.151123 46.973354 -12.344669
-33.083565 46.962368 -12.538414
-33.346748 46.971943 -11.665590
-33.177334 46.965881 -12.374658
-33.177689 46.969490 -12.157451
-33.124214 46.976803 -12.318734
-33.315845 46.970776 -11.640493
-33.075645 46.970055 -12.454444
-33.095383 46.968414 -12.291267
-33.038303 46.971886 -12.461946
-33.109444 46.967648 -12.444712
-33.119038 46.968884 -12.527019
-33.147026 46.970379 -12.129243
-33.106911 46.971542 -12.557727
-33.050606 46.984676 -12.414210
-33.202652 46.972942 -12.154181
-33.073051 46.968647 -12.439898
-33.143513 46.970161 -12.439229
-33.096043 46.963711 -12.461388
-33.241150 46.966934 -12.148186
-33.165775 46.981747 -12.162796
-33.306629 46.970161 -11.951750
-33.144794 46.974651 -12.317246
-33.276001 46.968975 -11.925684
-33.006874 46.977924 -12.526234
-33.014732 46.976654 -12.499354
-33.107567 46.974419 -12.326928
-33.182789 46.969734 -12.310013
-33.263496 46.973785 -11.952020
-33.120670 46.970562 -12.488537
-33.301464 46.965805 -11.946929
-33.066723 46.984665 -12.335251
-33.119663 46.972385 -12.173862
-33.225525 46.972584 -11.963575
-33.036304 46.975845 -12.523481
-33.247051 46.976715 -11.897953
-33.341015 46.981697 -11.712092
-33.300892 46.972527 -11.730423
-33.346947 46.965527 -11.685838
-33.034992 46.969116 -12.515760
-33.216763 46.972458 -11.873104
-33.208485 46.964176 -12.206917
-33.379940 46.976669 -11.705173
-33.183109 46.973980 -11.970447
-33.379120 46.977772 -11.704883
-33.260227 46.975708 -11.738907
-33.177887 46.963058 -12.177697
-33.063839 46.970985 -12.519076
-33.322723 46.981918 -11.653234
-33.124470 46.979485 -12.335709
-33.056702 46.966503 -12.529411
-33.296120 46.985420 -11.623177
-33.150578 46.974014 -12.366689
-33.094795 46.963081 -12.311242
-33.150932 46.974640 -12.148469
-33.070484 46.970345 -12.281897
-33.013859 46.983841 -12.451528
-33.049843 46.978142 -12.443631
-33.121891 46.967262 -12.121973
-33.082367 46.969799 -12.435666
-33.089424 46.959225 -12.518348
-33.025520 46.993668 -12.404675
-33.077183 46.957890 -12.548021
-33.175442 46.971046 -12.147256
-33.214577 46.968010 -12.140376
-33.046082 46.971794 -12.430874
-33.115578 46.967358 -12.431022
-33.069397 46.972836 -12.453441
-33.118111 46.971729 -12.308404
-33.136780 46.972012 -12.155390
-33.248714 46.972157 -11.917606
-33.276283 46.968548 -11.947992
-32.980434 46.980045 -12.515292
-33.156853 46.973770 -12.301320
-33.079956 46.971603 -12.317776
-32.987125 46.967842 -12.488180
-33.237453 46.976845 -11.943305
-33.277100 46.972713 -11.937664
-33.092415 46.964771 -12.480265
-33.200226 46.976608 -11.952987
-33.220451 46.974739 -11.892287
-33.039856 46.985813 -12.325235
-33.010689 46.979858 -12.513841
-33.093330 46.975517 -12.162942
-33.311039 46.971951 -11.710682
-33.277607 46.983467 -11.716191
-33.191967 46.975395 -11.863754
-33.011372 46.982964 -12.506646
-33.324627 46.982418 -11.670788
-33.350388 46.970901 -11.703847
-33.151745 46.968109 -12.169975
-33.179417 46.965492 -12.200381
-33.345688 46.968315 -11.707588
-33.156269 46.978210 -11.958288
-33.295277 46.977989 -11.649421
-33.037403 46.979099 -12.510159
-33.238049 46.993729 -11.717563
-33.267403 46.975555 -11.621135
-33.095264 46.970749 -12.329270
-33.030376 46.978607 -12.521529
-33.122864 46.976196 -12.359537
-33.124760 46.973629 -12.141878
-33.070114 46.969994 -12.302926
-33.044258 46.977459 -12.272010
-33.024441 46.984150 -12.434033
-32.986675 46.982006 -12.441450
-33.095428 46.966335 -12.113176
-33.056145 46.979904 -12.426792
-33.063389 46.965256 -12.510648
-32.999264 46.991722 -12.394908
-33.049580 46.961060 -12.540894
-33.022354 46.984650 -12.421737
-33.149319 46.976170 -12.136378
-33.188217 46.971073 -12.132610
-33.090824 46.982323 -12.422567
-33.043251 46.974876 -12.444706
-33.110950 46.974052 -12.145707
-33.091034 46.973888 -12.299357
-33.221745 46.978321 -11.909594
-33.054977 46.978596 -12.307252
-32.953781 46.983173 -12.505321
-33.129669 46.977932 -12.293264
-33.248276 46.973827 -11.939647
-32.962067 46.985882 -12.478526
-33.210136 46.973965 -11.936359
-33.249462 46.969852 -11.931664
-33.195049 46.980766 -11.882689
-33.064919 46.968937 -12.473159
-33.172722 46.974808 -11.943856
-33.291233 46.991657 -11.692214
-33.013096 46.984959 -12.314230
-33.167068 46.977341 -11.854383
-32.982655 46.970066 -12.503592
-33.326870 46.979782 -11.692728
-33.249229 46.976650 -11.711057
-33.065960 46.977764 -12.151690
-33.294125 46.973698 -11.671297
-32.981426 46.955276 -12.496016
-33.125069 46.968189 -12.162147
-33.271034 46.985977 -11.637021
-33.011147 46.980141 -12.501411
-33.244511 46.984413 -11.608126
-33.152447 46.971645 -12.192378
-33.321163 46.982372 -11.695016
-33.129826 46.980354 -11.947354
-33.207470 46.981083 -11.713897
-33.070393 46.981728 -12.319789
-33.004944 46.978546 -12.513072
-33.097126 46.967758 -12.134879
-33.095360 46.980362 -12.352439
-33.043247 46.974136 -12.293933
-33.018723 46.976418 -12.263533
-33.071480 46.974220 -12.102994
-32.997570 46.985291 -12.424028
-32.960442 46.986115 -12.430560
-33.031452 46.983810 -12.417473
-33.036522 46.972385 -12.502669
-32.971439 46.986916 -12.385725
-33.123566 46.976139 -12.128870
-33.163101 46.974014 -12.124218
-33.024609 46.980022 -12.534432
-32.995270 46.986801 -12.412703
-33.017101 46.979916 -12.436996
-33.065704 46.974834 -12.290925
-33.063736 46.984474 -12.413531
-33.194714 46.975361 -11.904866
-33.084927 46.980167 -12.134862
-33.186398 46.980850 -11.925209
-32.927944 46.982204 -12.494639
-33.223385 46.969849 -11.925105
-33.103405 46.978985 -12.284520
-33.029270 46.987682 -12.296470
-33.167702 46.974831 -11.877901
-32.935085 46.983032 -12.467491
-33.219303 46.976154 -11.933146
-33.142265 46.980282 -11.845044
-33.259659 46.975994 -11.693535
-33.037727 46.973087 -12.465117
-33.298878 46.973881 -11.689832
-33.146591 46.979939 -11.932990
-32.957161 46.987125 -12.494879
-32.986874 46.995136 -12.302210
-33.270111 46.986740 -11.656809
-33.039932 46.980881 -12.139833
-33.225658 46.990738 -11.692485
-32.957207 46.987259 -12.488568
-33.219788 46.982304 -11.599934
-33.241669 46.976143 -11.636889
-33.124275 46.966797 -12.187291
-33.097767 46.971363 -12.154085
-32.983501 46.968266 -12.492385
-33.287914 46.968849 -11.698903
-33.102757 46.982601 -11.935159
-33.042984 46.983902 -12.311696
-33.179768 46.980373 -11.702585
-32.976265 46.965786 -12.503714
-33.072029 46.976765 -12.125351
-33.068882 46.982430 -12.344658
-33.017834 46.980152 -12.284342
-32.992905 46.984516 -12.252724
-33.045750 46.977261 -12.093338
-32.970245 46.976402 -12.415068
-33.004574 46.987957 -12.408475
-32.933460 46.983273 -12.419519
-33.011009 46.983387 -12.495082
-32.945473 46.978901 -12.376150
-33.097725 46.978188 -12.119193
-33.136410 46.974102 -12.116394
-32.997707 46.978104 -12.526567
-32.967968 46.986969 -12.403621
-33.037472 46.988522 -12.405793
-33.039467 46.981953 -12.281043
-32.989799 46.983078 -12.428926
-33.167839 46.979534 -11.895868
-33.199535 46.978741 -11.914941
-33.058029 46.975269 -12.125985
-33.077568 46.984020 -12.275854
-33.158562 46.979069 -11.917031
-33.001419 46.976830 -12.288415
-32.901176 46.981346 -12.483642
-33.277763 46.987591 -11.676291
-33.192509 46.978252 -11.926311
-33.143364 46.987877 -11.864352
-33.118198 46.984196 -11.833823
-32.908928 46.982082 -12.457752
-33.237316 46.989895 -11.677475
-33.011894 46.984104 -12.458477
-33.120560 46.983070 -11.921126
-32.930794 46.984184 -12.485097
-33.240452 46.979988 -11.655472
-32.959572 46.992313 -12.292116
-33.196587 46.991253 -11.584713
-33.195686 46.978008 -11.690075
-33.217308 46.983143 -11.624471
-32.930542 46.990391 -12.478601
-33.013180 46.986099 -12.127701
-33.071507 46.975426 -12.146347
-33.096127 46.965015 -12.180062
-32.957500 46.989414 -12.483438
-33.015873 46.982998 -12.304800
-33.260849 46.977104 -11.688731
-32.950874 46.989834 -12.497038
-33.045025 46.973869 -12.117465
-33.075584 46.983856 -11.922942
-32.991570 46.981213 -12.275592
-33.040947 46.982624 -12.337471
-33.153439 46.983601 -11.688514
-32.965691 46.979626 -12.244797
-33.019276 46.976341 -12.084547
-32.943691 46.980534 -12.405123
-32.907410 46.980320 -12.408791
-32.976322 46.979176 -12.399202
-33.110546 46.973083 -12.108860
-32.982834 46.969540 -12.486959
-33.071461 46.979256 -12.110443
-32.918808 46.982040 -12.366183
-32.970516 46.985249 -12.519530
-32.941158 46.973995 -12.394888
-33.010487 46.991673 -12.396773
-33.011826 46.973087 -12.273030
-33.174015 46.983780 -11.905327
-32.962818 46.986225 -12.419907
-33.140217 46.979740 -11.887733
-33.050770 46.983105 -12.268009
-33.031807 46.985458 -12.113958
-33.132721 46.981129 -11.907354
-33.248291 46.976765 -11.676127
-33.093182 46.985153 -11.824435
-33.116440 46.982925 -11.858630
-32.875446 46.981373 -12.472976
-32.975937 46.993969 -12.276535
-32.882458 46.978146 -12.447951
-33.208080 46.981129 -11.674200
-33.163960 46.981564 -11.918878
-32.984592 46.987267 -12.450407
-33.170151 46.982159 -11.582375
-33.094631 46.987198 -11.909284
-33.215794 46.990067 -11.641859
-32.903812 46.984333 -12.475068
-33.191147 46.985229 -11.615741
-32.932781 46.985409 -12.282251
-33.172104 46.992100 -11.671493
-32.903664 46.994530 -12.469604
-32.986603 46.981190 -12.117878
-33.043995 46.976612 -12.138234
-32.930603 46.984497 -12.474562
-33.069065 46.976242 -12.170904
-32.988892 46.986153 -12.295782
-33.231853 46.976383 -11.684367
-33.019505 46.978901 -12.107852
-32.923786 46.991985 -12.487998
-33.049675 46.991047 -11.908954
-32.964462 46.977314 -12.267686
-32.940586 46.985630 -12.234255
-32.994171 46.982353 -12.074005
-33.012905 46.981831 -12.330263
-33.127003 46.985836 -11.674420
-32.917957 46.980564 -12.394456
-32.949955 46.979237 -12.390432
-32.880867 46.990509 -12.397710
-33.085133 46.979111 -12.099269
-33.045219 46.983387 -12.099549
-32.956303 46.988712 -12.478919
-32.891945 46.992245 -12.356050
-32.943111 46.987411 -12.511438
-32.914387 46.979134 -12.385912
-33.147087 46.978828 -11.899603
-32.982338 46.986885 -12.388533
-32.986221 46.983173 -12.262263
-33.114376 46.984795 -11.879067
-32.935200 46.986408 -12.411774
-33.108044 46.988129 -11.895885
-33.223083 46.981804 -11.665565
-33.067760 46.988197 -11.813829
-33.023998 46.988251 -12.259033
-33.005985 46.990574 -12.102137
-33.090195 46.987072 -11.847734
-32.849098 46.984493 -12.462061
-32.949268 46.994114 -12.265556
-33.185009 46.994133 -11.656857
-33.148659 46.998093 -11.561296
-32.856007 46.980274 -12.437016
-33.135494 46.979809 -11.912596
-32.956444 46.985470 -12.443178
-33.167625 46.994194 -11.601467
-33.067646 46.987377 -11.899252
-33.185505 46.980347 -11.641408
-32.877853 46.973320 -12.464483
-32.906765 46.994583 -12.269253
-33.144783 46.986248 -11.663543
-32.877174 46.981541 -12.459925
-32.960377 46.988384 -12.104837
-33.017647 46.982746 -12.128331
-32.903412 46.985657 -12.465502
-32.993240 46.979969 -12.099102
-32.962116 46.991299 -12.286804
-33.040813 46.973465 -12.163655
-32.969383 46.988354 -12.062513
-33.203091 46.977718 -11.676890
-32.895432 46.985203 -12.479717
-32.913902 46.982716 -12.225422
-32.937603 46.987526 -12.257554
-33.022694 46.988232 -11.897912
-32.984463 46.983120 -12.321840
-33.100567 46.988071 -11.660326
-32.890587 46.994854 -12.384096
-33.059399 46.982155 -12.089613
-32.854305 46.991646 -12.386753
-32.923096 46.989441 -12.380301
-32.928768 46.980831 -12.470927
-33.018551 46.986542 -12.089582
-32.865067 46.993393 -12.346041
-33.121754 46.979797 -11.891164
-32.915577 46.979527 -12.503447
-32.887825 46.986259 -12.376977
-32.955101 46.975929 -12.381737
-32.959850 46.983242 -12.253493
-33.197430 46.982800 -11.658072
-33.042107 46.986187 -11.805327
-33.087708 46.987961 -11.869100
-33.080933 46.984253 -11.887978
-32.997204 46.987339 -12.251188
-32.907776 46.979523 -12.403805
-33.063927 46.988152 -11.838984
-32.978352 46.981716 -12.094126
-33.121170 46.985054 -11.560773
-32.822853 46.988605 -12.451165
-33.156605 46.984261 -11.653874
-32.922146 46.981163 -12.257774
-32.829548 46.985397 -12.427090
-33.140301 46.991337 -11.594528
-32.929146 46.988632 -12.435108
-33.106625 46.980141 -11.905099
-33.042137 46.992489 -11.886480
-33.160336 46.991516 -11.626555
-33.121090 46.999348 -11.644938
-32.849953 46.985630 -12.455030
-32.879467 46.991760 -12.259160
-32.849365 46.985790 -12.450616
-32.932972 46.984581 -12.094724
-32.990749 46.980846 -12.120466
-32.876728 46.982731 -12.456669
-32.943504 46.981281 -12.056116
-33.013920 46.974560 -12.156802
-32.967010 46.990162 -12.087072
-32.933762 46.987522 -12.279535
-32.869255 46.978191 -12.471112
-32.887852 46.982769 -12.215703
-32.911125 46.986599 -12.248762
-33.174328 46.979057 -11.669414
-32.996040 46.991463 -11.884787
-32.956738 46.985306 -12.314696
-33.076607 47.007385 -11.635219
-32.864532 46.994900 -12.374377
-32.828362 46.989689 -12.376044
-33.032413 46.985321 -12.080594
-32.896427 46.995575 -12.371346
-32.839630 46.990353 -12.336570
-32.992603 46.987595 -12.079884
-32.901363 46.982994 -12.462837
-33.095722 46.985928 -11.880311
-33.171566 46.981804 -11.650538
-33.018177 46.997223 -11.789832
-32.860542 46.992489 -12.366760
-32.887543 46.975731 -12.495231
-32.927925 46.986149 -12.372556
-32.933098 46.991451 -12.242371
-32.881725 46.982563 -12.395097
-33.055107 46.989376 -11.876155
-32.970306 46.985432 -12.243323
-33.096783 46.986000 -11.549487
-33.039154 46.997227 -11.825346
-33.060314 46.993221 -11.858861
-32.953262 46.990791 -12.081437
-33.133842 46.997253 -11.635581
-32.896111 46.987278 -12.246921
-32.795250 46.991848 -12.440886
-32.803185 46.982460 -12.417309
-33.115211 46.997444 -11.580827
-33.015770 46.989578 -11.876698
-32.901402 46.981762 -12.428086
-33.132675 46.985607 -11.622709
-33.078922 46.985413 -11.895810
-32.824112 46.987659 -12.445353
-33.092289 46.988567 -11.639729
-32.853207 46.986832 -12.248388
-32.821865 46.993023 -12.441367
-32.964081 46.986992 -12.111509
-32.906219 46.986809 -12.081578
-32.917885 46.988384 -12.044333
-32.849636 46.984886 -12.447629
-32.940216 46.989254 -12.079227
-32.861809 46.988884 -12.204846
-32.906670 46.989685 -12.270494
-32.986004 46.977833 -12.147472
-32.841957 46.981354 -12.463041
-32.884533 46.978619 -12.241085
-33.147343 46.982243 -11.660394
-32.969196 46.995773 -11.869473
-32.929455 46.994534 -12.305492
-33.047901 46.991539 -11.631167
-33.005814 46.980347 -12.073925
-32.837643 46.986996 -12.364492
-32.869843 46.993649 -12.362532
-32.801075 46.992920 -12.364815
-32.966640 46.982594 -12.071319
-32.812851 46.992496 -12.326580
-33.069752 46.983932 -11.872757
-32.874260 46.979092 -12.454931
-33.147305 46.989799 -11.638142
-32.991875 46.989185 -11.784361
-33.073662 46.989883 -11.535418
-32.833961 46.990562 -12.357947
-32.860241 46.981884 -12.488172
-32.901257 46.992283 -12.363599
-32.906532 46.995590 -12.232423
-33.029369 46.989437 -11.865486
-33.012779 46.997314 -11.816572
-32.854015 46.990807 -12.386819
-33.032463 46.988380 -11.852829
-32.943111 46.986603 -12.234262
-33.106308 46.992409 -11.628599
-32.926491 46.989956 -12.070437
-32.769096 46.987900 -12.430136
-32.868721 46.989521 -12.235671
-32.776104 46.990673 -12.407131
-33.088692 46.990421 -11.576323
-32.874088 46.975868 -12.420139
-32.988590 46.990837 -11.864479
-33.107430 47.001911 -11.603542
-32.796505 46.993896 -12.436083
-33.050686 46.988712 -11.887427
-33.068394 47.002747 -11.618932
-32.826458 46.998104 -12.235115
-32.794666 46.994183 -12.432305
-32.892132 46.985371 -12.035809
-32.880180 46.989933 -12.069712
-32.936867 46.982109 -12.103582
-32.913830 46.983273 -12.071591
-32.836056 46.985863 -12.196323
-32.821716 46.991135 -12.439309
-32.879772 46.987778 -12.262630
-32.857452 46.986839 -12.230907
-32.814869 46.983505 -12.454001
-32.957771 46.981117 -12.139091
-32.942753 46.997997 -11.855376
-32.901695 46.981609 -12.299605
-33.118176 46.985664 -11.651699
-32.980076 46.983391 -12.064268
-33.023087 47.005898 -11.606900
-32.810760 46.988148 -12.354482
-32.774715 46.996044 -12.353896
-32.842754 46.992809 -12.352480
-32.968369 47.004265 -11.765789
-33.044434 46.987965 -11.862172
-32.939564 46.987831 -12.060132
-32.786381 46.988571 -12.316777
-33.121880 46.992855 -11.627535
-33.049183 46.992901 -11.521963
-32.846554 46.987331 -12.446654
-32.807686 46.982563 -12.349321
-33.003418 46.990501 -11.855785
-32.880058 46.991669 -12.222620
-32.985893 46.998493 -11.806560
-32.832111 46.989140 -12.480822
-32.873940 46.986393 -12.355651
-33.083027 47.006493 -11.609064
-32.916740 46.986671 -12.225492
-33.005386 46.993626 -11.841641
-32.826290 46.989994 -12.378663
-32.899727 46.995178 -12.058300
-33.065338 47.009640 -11.552472
-32.742531 46.989037 -12.419175
-32.842354 46.986595 -12.225889
-32.749630 46.986740 -12.397328
-33.079136 46.993038 -11.600582
-32.846573 46.980038 -12.413038
-32.962460 46.996044 -11.850445
-33.041054 46.993832 -11.613128
-32.770554 46.982887 -12.425500
-33.022430 46.985954 -11.880177
-32.799576 46.996265 -12.224092
-32.768196 46.990253 -12.422503
-32.865665 46.987518 -12.024869
-32.853119 46.995239 -12.055365
-32.887260 46.987419 -12.061641
-32.908844 46.984390 -12.094230
-32.795242 46.990200 -12.430516
-32.809593 46.988003 -12.185384
-32.831490 46.981831 -12.222344
-32.852047 46.986973 -12.254474
-32.786945 46.989758 -12.445681
-32.930050 46.980320 -12.130936
-32.953197 46.984558 -12.054258
-32.915241 46.993210 -11.845240
-33.091537 46.994972 -11.637439
-32.873371 46.989952 -12.290067
-32.995872 46.998043 -11.597960
-32.942402 46.999275 -11.757222
-32.783260 46.992386 -12.344220
-32.748154 46.994190 -12.341926
-33.018482 46.989033 -11.852472
-32.815758 46.986908 -12.343584
-33.024250 46.988808 -11.513728
-32.760220 46.987625 -12.307034
-32.913315 46.991966 -12.049234
-33.094959 46.987911 -11.621813
-32.818829 46.986515 -12.438499
-32.977798 46.994621 -11.842991
-32.960251 46.999546 -11.795908
-32.779972 46.987812 -12.340030
-33.055351 46.994526 -11.606352
-32.852543 46.989857 -12.213494
-32.846230 46.991642 -12.346361
-32.803558 46.992420 -12.473387
-32.889648 46.988834 -12.216450
-32.978603 46.995800 -11.831649
-32.798779 46.988174 -12.369539
-33.038189 46.999649 -11.548854
-32.872849 46.993347 -12.047277
-32.715965 46.990170 -12.408215
-32.815075 46.995895 -12.213522
-32.722961 46.986881 -12.386348
-33.052704 47.001339 -11.585349
-32.936001 46.995205 -11.838493
-33.016342 47.009186 -11.588881
-32.818146 46.987381 -12.403480
-32.742115 46.990227 -12.415936
-32.839947 46.996689 -12.010913
-32.772800 46.995422 -12.213090
-32.994633 46.993298 -11.868720
-32.742130 46.984238 -12.413918
-32.826553 46.993397 -12.043393
-32.860271 46.987591 -12.051608
-32.881325 46.985580 -12.086114
-32.782505 46.993233 -12.174191
-32.767624 46.987385 -12.421371
-32.804195 46.988068 -12.212123
-32.825054 46.990128 -12.245452
-32.759113 46.987949 -12.437504
-32.902431 46.980515 -12.122802
-32.917309 47.008434 -11.741368
-32.926720 46.983639 -12.045465
-32.999996 46.993881 -11.497156
-32.845856 46.991135 -12.281953
-33.071358 47.002010 -11.603226
-33.062542 46.991257 -11.632063
-32.888111 47.006725 -11.824430
-32.992126 46.992188 -11.841554
-32.887272 46.995094 -12.037367
-32.756065 46.990559 -12.334146
-32.720654 46.995434 -12.330651
-32.731785 46.998035 -12.295321
-32.969490 47.009544 -11.574265
-32.787422 46.995247 -12.334043
-32.791420 46.988682 -12.430406
-32.951229 46.995785 -11.832029
-32.932850 47.001816 -11.784655
-33.030937 47.009796 -11.584314
-32.751839 46.989086 -12.330654
-32.825569 46.996082 -12.202326
-32.818817 46.993816 -12.338267
-32.862873 46.990990 -12.206460
-32.777588 46.978344 -12.464948
-32.951416 47.000053 -11.820437
-32.772091 46.988251 -12.361714
-33.012939 47.016026 -11.526521
-32.846294 46.997566 -12.034169
-32.690224 46.981148 -12.397673
-32.788193 46.994057 -12.202499
-32.695141 46.988140 -12.376022
-32.910183 47.000401 -11.823508
-33.024849 46.996510 -11.579315
-32.989319 47.000256 -11.582128
-32.813980 46.991692 -12.002346
-32.790722 46.983494 -12.396521
-32.715851 46.988285 -12.406174
-32.744686 47.002827 -12.199417
-32.965851 46.988564 -11.862376
-32.713997 46.985508 -12.404542
-32.833607 46.993809 -12.039488
-32.854347 46.991810 -12.074944
-32.754890 46.996487 -12.163904
-32.798958 46.996727 -12.029950
-32.739700 46.990643 -12.412037
-32.776070 46.995403 -12.201609
-32.797844 46.985241 -12.237524
-32.892151 46.999283 -11.735238
-32.975887 46.988686 -11.489211
-32.731499 46.985134 -12.428358
-32.900570 46.988770 -12.034588
-33.044857 46.998051 -11.596575
-32.873486 46.988964 -12.112001
-32.965843 46.987209 -11.833936
-32.861523 46.995773 -11.815741
-32.818016 46.983276 -12.274911
-32.859676 47.001423 -12.024937
-32.693768 46.993591 -12.319627
-32.704582 46.996208 -12.285244
-32.728668 46.992798 -12.322894
-32.760330 46.994411 -12.323989
-33.034897 47.005806 -11.613177
-32.941544 46.997734 -11.566191
-32.907104 47.001881 -11.773981
-32.924465 46.998028 -11.818880
-33.003582 46.997818 -11.580654
-32.763592 46.986874 -12.422230
-32.725151 46.986168 -12.321818
-32.798782 46.998234 -12.192332
-32.985657 46.998917 -11.527175
-32.835670 46.992161 -12.197396
-32.791409 46.992992 -12.329163
-32.923611 47.004406 -11.807965
-32.748928 46.980633 -12.457492
-32.744156 46.985451 -12.353517
-32.819107 46.998817 -12.021946
-32.660744 46.993664 -12.386634
-32.667629 46.992378 -12.365755
-32.760075 47.004463 -12.189837
-32.998337 47.009941 -11.559767
-32.787609 46.994831 -11.991421
-32.882904 47.003731 -11.809117
-32.963139 47.013748 -11.558471
-32.687927 46.988548 -12.395828
-32.762379 46.985771 -12.388116
-32.716873 47.007160 -12.186940
-32.728416 46.998627 -12.152959
-32.684929 46.995941 -12.394725
-32.806087 46.992008 -12.030359
-32.937328 46.995014 -11.849636
-32.826107 46.992107 -12.065547
-32.770950 47.002144 -12.015286
-32.712498 46.991802 -12.402972
-32.867184 46.982994 -11.732434
-32.950756 46.985672 -11.478786
-32.748142 46.995678 -12.191261
-32.769192 46.990604 -12.227918
-32.702946 46.994476 -12.419782
-32.873791 46.990932 -12.024596
-33.019024 47.000195 -11.583736
-32.940311 46.989258 -11.823306
-32.845657 46.987171 -12.103824
-32.833199 46.997513 -12.015131
-32.701672 46.992958 -12.312858
-32.677685 46.991302 -12.276366
-32.665638 46.997929 -12.308099
-32.834347 46.997105 -11.800358
-32.789566 46.984566 -12.266484
-32.732399 46.997673 -12.314651
-33.005131 46.992004 -11.612957
-32.915016 47.002117 -11.546764
-32.879593 47.003155 -11.762703
-32.898312 47.000172 -11.806988
-32.978123 47.012207 -11.558280
-32.735970 46.987057 -12.414093
-32.697216 46.989429 -12.312480
-32.958828 46.988914 -11.522610
-32.770859 46.998508 -12.181986
-32.808060 46.995419 -12.187113
-32.763680 46.992184 -12.321005
-32.895664 47.001637 -11.799763
-32.719959 46.988995 -12.449845
-32.791611 47.003143 -12.008522
-32.714779 46.992905 -12.343638
-32.631989 47.001087 -12.374854
-32.639801 46.993637 -12.355426
-32.732361 47.003727 -12.178519
-32.760517 46.997078 -11.979215
-32.970139 46.996006 -11.557962
-32.855518 47.006069 -11.794703
-32.935818 47.004906 -11.549509
-32.659374 46.994896 -12.386239
-32.733929 46.987057 -12.379688
-32.689159 47.003429 -12.174613
-32.700901 46.999882 -12.141680
-32.778481 46.998333 -12.017924
-32.657822 46.989040 -12.385806
-32.798492 46.995369 -12.055261
-32.926048 46.983639 -11.467433
-32.908966 46.991261 -11.842363
-32.840652 46.996414 -11.712876
-32.742935 47.001503 -12.001759
-32.720829 46.995857 -12.182172
-32.683109 46.993195 -12.394231
-32.740852 46.995953 -12.217361
-32.993366 46.998199 -11.575230
-32.674385 46.994762 -12.411331
-32.846394 46.993191 -12.013343
-32.913555 46.997559 -11.809020
-32.650379 46.994541 -12.265127
-32.816700 46.995621 -12.093019
-32.637196 47.005344 -12.295369
-32.673328 46.998302 -12.302299
-32.805691 46.998775 -12.003855
-32.704983 46.996853 -12.305544
-32.806355 47.002602 -11.782535
-32.760700 46.990936 -12.257848
-32.854252 46.968563 -11.770575
-32.888889 46.977833 -11.547904
-32.977367 47.005558 -11.594046
-32.871323 46.997364 -11.795941
-32.951069 46.997154 -11.555819
-32.932529 46.980888 -11.517136
-32.707302 46.989346 -12.406633
-32.668667 46.992786 -12.301881
-32.742931 46.998783 -12.171638
-32.780949 46.991524 -12.179203
-32.736366 46.986298 -12.313055
-32.867645 47.004002 -11.787247
-32.763588 47.005497 -11.996004
-32.686424 46.995186 -12.335228
-32.691086 46.989296 -12.442345
-32.611870 46.993904 -12.345075
-32.602497 47.004551 -12.363939
-32.704124 47.007080 -12.166969
-32.733421 46.999321 -11.967006
-32.942921 46.991150 -11.550030
-32.828724 46.999191 -11.784834
-32.909866 46.999996 -11.537783
-32.631443 46.995159 -12.375889
-32.672241 47.002254 -12.131056
-32.662685 46.996517 -12.163795
-32.704536 46.991444 -12.371957
-32.749935 47.004772 -12.005175
-32.628536 46.997486 -12.375943
-32.815506 46.990326 -11.704597
-32.769531 47.000824 -12.043442
-32.719646 46.977009 -11.997523
-32.691547 47.001316 -12.171299
-32.879517 47.000881 -11.827162
-32.654449 46.998550 -12.384621
-32.967556 47.006474 -11.558095
-32.711155 47.000431 -12.207418
-32.820026 46.996334 -12.002419
-32.886860 46.994667 -11.800180
-32.645821 46.995052 -12.402880
-32.621193 47.000992 -12.254272
-32.778194 47.003105 -11.990430
-32.644989 47.000652 -12.290729
-32.612274 46.989166 -12.286254
-32.827419 46.985065 -11.749819
-32.787624 46.990959 -12.084466
-32.780796 46.986477 -11.775315
-32.675602 47.001312 -12.294653
-32.732555 46.986153 -12.249606
-32.844967 47.000587 -11.781859
-32.924946 47.002445 -11.538620
-32.861664 46.987446 -11.522899
-32.906754 46.995361 -11.492545
-32.947937 46.994808 -11.590731
-32.639793 46.996159 -12.292227
-32.714901 47.004124 -12.160130
-32.677399 46.994823 -12.397662
-32.752201 46.998962 -12.167428
-32.840702 46.989929 -11.784806
-32.706467 46.997837 -12.302947
-32.737415 46.995514 -11.986385
-32.573315 46.990467 -12.371294
-32.579247 46.989227 -12.353260
-32.657654 46.993488 -12.326735
-32.660862 46.994781 -12.434321
-32.678783 46.995987 -12.157642
-32.580399 47.005642 -12.333383
-32.705593 47.003662 -11.954522
-32.802338 46.990227 -11.776183
-32.914425 46.980289 -11.547029
-32.883469 46.987984 -11.531279
-32.644718 47.003510 -12.119773
-32.601635 46.998634 -12.365923
-32.788746 46.998699 -11.687141
-32.638699 46.980240 -12.154992
-32.722305 47.001976 -11.996021
-32.677116 46.984562 -12.363987
-32.597378 47.006149 -12.365454
-32.741802 46.997032 -12.034269
-32.692154 46.978340 -11.983086
-32.940830 46.997463 -11.553548
-32.662884 47.003689 -12.160675
-32.625259 47.001930 -12.375916
-32.851643 46.986919 -11.824409
-32.860298 46.998898 -11.787068
-32.683529 46.997627 -12.198267
-32.792400 46.993542 -11.993269
-32.615906 47.000526 -12.393904
-32.591698 47.004459 -12.243352
-32.750473 47.002380 -11.979110
-32.799412 46.993557 -11.733003
-32.647251 47.000603 -12.285230
-32.818089 47.001835 -11.768682
-32.751873 46.995148 -11.755028
-32.880779 46.990387 -11.483974
-32.898331 46.991436 -11.533084
-32.758854 46.989277 -12.075973
-32.702965 46.991627 -12.239685
-32.834499 46.988861 -11.504354
-32.610813 46.998535 -12.282551
-32.919075 46.995224 -11.580070
-32.686253 47.009560 -12.147359
-32.648937 46.996105 -12.389231
-32.724575 46.996162 -12.158277
-32.812283 46.997440 -11.768920
-32.678215 46.992062 -12.294683
-32.629505 46.994762 -12.317352
-32.682198 46.981171 -11.951274
-32.633228 46.988903 -12.427319
-32.852921 46.989830 -11.418771
-32.887489 46.992817 -11.525242
-32.776978 46.973026 -11.771152
-32.857105 46.985161 -11.518331
-32.622993 46.975811 -12.116101
-32.577652 46.982346 -12.357120
-32.610256 46.984669 -12.141249
-32.693645 47.007420 -11.983247
-32.573288 46.988865 -12.356629
-32.645020 46.999321 -12.355209
-32.914371 46.999706 -11.539444
-32.712006 47.003590 -12.022155
-32.637531 46.989532 -12.153495
-32.664028 46.976707 -11.969534
-32.833927 46.999054 -11.775132
-32.595142 47.002426 -12.365889
-32.653515 47.005184 -12.187120
-32.764481 46.996891 -11.980772
-32.821251 46.996651 -11.808892
-32.585052 47.006111 -12.384613
-32.728298 46.967579 -11.980657
-32.772926 46.989662 -11.723190
-32.872093 46.995739 -11.515862
-32.854588 46.980362 -11.477509
-32.620457 46.993698 -12.275359
-32.790565 46.997051 -11.758539
-32.729366 46.992756 -12.065061
-32.671913 46.995232 -12.230358
-32.660896 46.989346 -12.141317
-32.889198 47.000885 -11.564779
-32.619122 46.996517 -12.381413
-32.696224 46.995457 -12.148854
-32.783012 47.002995 -11.754888
-32.685276 46.974480 -11.969336
-32.648098 47.001614 -12.284529
-32.597401 47.006531 -12.307558
-32.602894 46.993397 -12.419271
-32.859497 47.001389 -11.505284
-32.747459 46.993977 -11.744184
-32.592564 46.988514 -12.101595
-32.830830 46.974205 -11.508707
-32.580143 46.991295 -12.126935
-32.616863 46.994530 -12.346982
-32.682293 47.005081 -12.011214
-32.805893 47.001419 -11.762630
-32.738590 46.983757 -11.975525
-32.570728 46.985149 -12.358029
-32.627533 46.988052 -12.180845
-32.791878 47.001202 -11.794859
-32.699959 46.973007 -11.966955
-32.559387 46.988956 -12.377391
-32.743370 47.004486 -11.700519
-32.845219 46.997066 -11.499544
-32.763771 46.993233 -11.746537
-32.699345 46.994255 -12.055073
-32.643444 46.993523 -12.220933
-32.666412 47.002003 -12.136759
-32.589504 46.995914 -12.372645
-32.754349 47.005451 -11.741122
-32.620350 46.991745 -12.276514
-32.596218 46.984638 -12.125084
-32.572983 46.983200 -12.300840
-32.572334 46.995895 -12.411201
-32.831131 46.997726 -11.494850
-32.564926 46.982716 -12.091432
-32.586201 46.996044 -12.338874
-32.658367 46.980610 -12.008876
-32.778065 47.002777 -11.749142
-32.712303 46.975780 -11.966898
-32.762264 46.997646 -11.785064
-32.671303 46.975460 -11.953176
-32.734627 47.005981 -11.725071
-32.667358 47.004108 -12.041137
-32.613098 46.995029 -12.211875
-32.751060 47.003036 -11.735944
-32.558456 46.986179 -12.330842
-32.681271 46.991653 -11.948977
-32.576538 46.982204 -12.109166
-32.641361 46.983925 -12.036993
-32.611019 46.989346 -12.119573
-32.578190 47.000294 -12.105338
