# .PCD v0.7 - Point Cloud Data file format
VERSION 0.7
FIELDS x y z
SIZE 4 4 4
TYPE F F F
COUNT 1 1 1
WIDTH 35
HEIGHT 1
VIEWPOINT 0 0 0 1
POINTS 35
DATA ascii
-1.411629 31.328028 1.626864
-1.397536 31.507212 1.726346
-1.395532 31.517725 1.732710
-1.386155 31.332678 1.666862
-1.247357 31.522408 1.711039
-1.362151 31.357204 1.637601
-1.364206 31.350136 1.635003
-1.360964 31.338383 1.708801
-1.334218 31.530203 1.706996
-1.220599 31.529539 1.758588
-1.340501 31.327545 1.654683
-1.336834 31.333986 1.657356
-1.313859 31.525782 1.712517
-1.335352 31.333178 1.742375
-1.193655 31.523388 1.795951
-1.309344 31.537687 1.758202
-1.318247 31.332325 1.698739
-1.313479 31.336584 1.699172
-1.289220 31.530888 1.761900
-1.147098 31.527399 1.733970
-1.173872 31.359470 1.696538
-1.282628 31.373034 1.663837
-1.295370 31.330414 1.739352
-1.264364 31.364744 1.668077
-1.120296 31.531799 1.785036
-1.259341 31.342731 1.680953
-1.246384 31.529428 1.720995
-1.241943 31.339243 1.691687
-1.204439 31.528391 1.746442
-1.237059 31.346392 1.729208
-1.222835 31.537197 1.777482
-1.180317 31.532906 1.803247
-1.203266 31.385950 1.697307
-1.163643 31.357994 1.703208
-1.182789 31.344902 1.710129
