# .PCD v0.7 - Point Cloud Data file format
VERSION 0.7
FIELDS x y z
SIZE 4 4 4
TYPE F F F
COUNT 1 1 1
WIDTH 23
HEIGHT 1
VIEWPOINT 0 0 0 1
POINTS 23
DATA ascii
-39.625668 42.689255 -15.847614
-39.628815 42.694763 -15.833848
-38.829124 43.500816 -15.356626
-38.835007 43.501865 -15.348307
-38.839855 43.601173 -15.359508
-38.842937 43.603573 -15.347816
-39.257954 43.506840 -15.335663
-39.148277 43.609409 -15.326398
-38.938419 43.642033 -15.277272
-38.956238 43.641842 -15.258856
-39.293915 43.594818 -15.353663
-39.324474 43.600502 -15.420667
-39.132416 43.617924 -15.352734
-39.490711 43.579258 -15.454597
-39.617794 43.410305 -15.443887
-39.479492 43.483479 -15.434708
-39.587963 43.430195 -15.441468
-39.614548 43.528801 -15.442288
-39.529587 43.564346 -15.456557
-39.591145 43.542194 -15.441424
-40.235016 43.416225 -15.903667
-40.211929 43.401325 -15.964593
-40.222473 43.410206 -15.934504
