# .PCD v0.7 - Point Cloud Data file format
VERSION 0.7
FIELDS x y z
SIZE 4 4 4
TYPE F F F
COUNT 1 1 1
WIDTH 104
HEIGHT 1
VIEWPOINT 0 0 0 1
POINTS 104
DATA ascii
-44.148907 46.110779 -16.722584
-43.791447 46.101715 -17.139832
-43.792515 46.098831 -16.523930
-43.689808 46.133347 -16.896086
-43.501793 46.108196 -16.983622
-43.594479 46.110741 -16.826218
-44.015621 46.091518 -16.061893
-43.883171 46.146969 -16.615068
-43.498188 46.121742 -16.988014
-43.545513 46.127899 -16.434916
-43.436489 46.158546 -16.773932
-43.283257 46.139862 -16.871769
-43.324562 46.127968 -16.703955
-43.758617 46.120224 -16.001440
-43.624290 46.171448 -16.512522
-43.287025 46.152710 -16.877609
-43.902161 46.179195 -16.125099
-43.774532 46.119347 -17.088432
-43.611111 46.099232 -17.153345
-43.981529 46.128990 -16.800930
-43.586349 46.108425 -17.174217
-43.641369 46.095715 -16.922764
-43.804821 46.098415 -16.573719
-43.283169 46.139389 -16.342319
-43.209778 46.177715 -16.665207
-43.052711 46.154068 -16.754631
-43.110882 46.148468 -16.606108
-43.489281 46.134369 -15.938781
-43.392746 46.192055 -16.421450
-43.644703 46.197956 -16.052517
-43.050220 46.165607 -16.755182
-43.943325 46.101906 -16.074884
-44.039558 46.162685 -16.292290
-43.505367 46.146435 -16.947168
-43.355091 46.125919 -17.011913
-43.705261 46.158943 -16.680605
-43.347523 46.137741 -17.038979
-43.415627 46.129700 -16.812824
-43.553944 46.127617 -16.478302
-43.092838 46.162476 -16.273825
-43.303051 46.162285 -15.894474
-43.690102 46.130692 -16.011829
-44.209362 46.131012 -16.477268
-43.834839 46.085281 -16.646187
-43.754665 46.183990 -16.202644
-43.269749 46.170673 -16.824888
-43.129120 46.148026 -16.887796
-43.454098 46.181358 -16.573025
-43.118065 46.159657 -16.909790
-43.577221 46.122997 -17.140196
-43.444427 46.103485 -17.183413
-43.788689 46.128727 -16.861767
-43.162746 46.144104 -16.690176
-43.407055 46.109745 -17.219362
-43.294785 46.142990 -16.380426
-43.467216 46.106010 -16.920969
-43.885632 46.099068 -16.106794
-43.431534 46.144543 -15.946694
-43.930214 46.166176 -16.380997
-43.502434 46.201759 -16.123751
-43.575100 46.116756 -16.541813
-43.184120 46.186008 -16.456789
-43.331741 46.149788 -17.001747
-43.193794 46.126957 -17.035835
-43.540001 46.161331 -16.743843
-43.180611 46.139309 -17.081316
-43.088703 46.162373 -16.302023
-43.235821 46.132591 -16.801802
-43.616379 46.121964 -16.034889
-43.235600 46.168163 -15.896617
-43.642502 46.185318 -16.283325
-43.331379 46.139519 -16.443485
-43.893509 46.183468 -15.764553
-43.546535 46.094425 -17.055830
-43.089756 46.167549 -16.865379
-43.268936 46.174152 -16.617811
-44.083897 46.144344 -16.575493
-42.993046 46.144836 -16.676420
-43.273151 46.112041 -17.209930
-43.609592 46.144897 -16.931032
-43.390633 46.138519 -17.202415
-43.399220 46.149151 -15.975256
-43.598930 46.112770 -16.610874
-43.400494 46.205334 -16.200472
-43.838375 46.103630 -16.143612
-43.094799 46.152760 -16.349064
-43.627693 46.201645 -15.710172
-43.308231 46.126297 -16.924089
-44.162426 46.173237 -15.940929
-43.802662 46.179497 -16.469242
-43.159843 46.158169 -15.910885
-43.049107 46.139210 -17.067572
-43.364971 46.175934 -16.806242
-43.142242 46.161823 -17.050360
-42.995190 46.142376 -17.114420
-43.355606 46.138298 -16.507046
-43.584785 46.131981 -16.069208
-43.061424 46.142437 -16.788731
-43.852314 46.194565 -15.870028
-43.521404 46.198509 -16.363596
-43.111115 46.152485 -16.403069
-43.359528 46.155418 -16.003462
-43.266808 46.211784 -16.269165
-43.098576 46.156307 -15.929804
