# .PCD v0.7 - Point Cloud Data file format
VERSION 0.7
FIELDS x y z
SIZE 4 4 4
TYPE F F F
COUNT 1 1 1
WIDTH 97
HEIGHT 1
VIEWPOINT 0 0 0 1
POINTS 97
DATA ascii
-42.848026 45.972427 -15.283331
-42.945499 46.033897 -15.277518
-42.771420 45.959064 -15.238128
-42.733932 46.001049 -15.226888
-42.680019 45.989391 -15.187269
-43.579185 46.140636 -15.156402
-42.664249 46.040291 -15.172534
-42.643917 45.981613 -15.190655
-42.773811 46.091362 -15.174283
-42.457314 45.953545 -15.115001
-42.573372 45.958637 -15.170588
-42.457012 46.002064 -15.100645
-42.574444 46.011665 -15.160201
-42.399021 46.025799 -15.090466
-42.775040 46.215687 -14.343791
-42.627495 46.186790 -15.052205
-42.791321 46.203545 -14.372958
-42.273865 45.999722 -15.027863
-41.860802 45.972301 -14.892455
-42.235237 46.024269 -15.018891
-41.850037 45.975960 -14.901326
-42.189178 46.044209 -15.010661
-41.855465 46.009941 -14.873533
-41.859509 46.020672 -14.882108
-42.611061 46.223167 -14.285330
-42.402645 46.205090 -14.963251
-41.828358 46.034359 -14.860486
-41.830605 46.041256 -14.870506
-41.797352 45.980526 -14.872843
-41.802082 46.061646 -14.860250
-41.806324 46.060913 -14.845532
-41.801998 46.022095 -14.854561
-41.772282 46.080303 -14.849374
-41.765388 46.074715 -14.835699
-41.715683 45.974110 -14.829563
-41.774334 46.042255 -14.844770
-41.738979 46.095570 -14.839021
-41.735035 46.094734 -14.822213
-41.707436 46.005005 -14.812730
-41.748222 45.989105 -14.848390
-41.743767 46.059799 -14.836929
-41.860794 46.225918 -14.780261
-41.839230 46.215553 -14.763472
-41.692829 46.032036 -14.797180
-41.744671 46.024952 -14.833879
-41.712818 46.077538 -14.827744
-41.811108 46.239376 -14.747643
-41.732319 45.980747 -14.842241
-41.665894 46.051151 -14.785549
-41.714325 46.043465 -14.826121
-41.684513 46.094765 -14.817718
-41.634678 46.000881 -14.568010
-41.590366 46.001049 -14.620347
-41.714222 46.007008 -14.832795
-41.625530 46.059456 -14.778483
-41.692337 46.066528 -14.815851
-41.770947 46.202251 -14.768111
-41.664402 46.000843 -14.452346
-41.680649 46.005760 -14.424550
-41.600540 46.006603 -14.563218
-41.546364 46.001125 -14.635441
-41.707809 46.042377 -14.819044
-41.602768 46.078785 -14.765669
-41.664631 46.084534 -14.807252
-41.649490 46.004837 -14.530195
-41.562328 45.983612 -14.768838
-41.521568 46.013489 -14.625188
-41.614269 46.008423 -14.554381
-41.676998 46.060913 -14.812173
-41.694271 45.996445 -14.388844
-41.635860 46.101788 -14.798112
-41.574512 46.094028 -14.754605
-41.546787 46.006573 -14.755203
-41.684643 46.002872 -14.373281
-41.560474 46.008736 -14.605062
-41.656292 46.085697 -14.802525
-41.777348 46.257893 -14.435392
-41.756233 46.239971 -14.734869
-41.613365 46.164803 -14.714972
-41.646488 45.999409 -14.503633
-41.529449 46.025696 -14.743017
-41.799099 46.263680 -14.369691
-41.627266 46.103951 -14.794349
-41.677959 46.262058 -14.659777
-41.829914 46.245121 -14.351371
-41.556816 46.004986 -14.584895
-41.516586 46.050289 -14.727350
-41.539154 45.997227 -14.713841
-41.801353 46.261459 -14.365051
-41.744766 46.241661 -14.731841
-41.657059 46.008205 -14.480390
-41.680504 46.223850 -14.630503
-41.963341 46.348354 -14.240546
-41.550331 46.005997 -14.576654
-41.683216 46.266533 -14.603226
-41.725975 46.254482 -14.561561
-41.939663 46.338284 -14.237098
