# .PCD v0.7 - Point Cloud Data file format
VERSION 0.7
FIELDS x y z
SIZE 4 4 4
TYPE F F F
COUNT 1 1 1
WIDTH 526
HEIGHT 1
VIEWPOINT 0 0 0 1
POINTS 526
DATA ascii
-43.814316 46.071209 -16.581648
-43.940460 46.082256 -16.287743
-43.629715 46.071808 -16.974850
-43.618553 46.070450 -16.990709
-43.675022 46.067150 -16.800446
-43.589558 46.068550 -17.030474
-43.743530 46.084454 -16.621292
-43.845051 46.095036 -16.349472
-43.627251 46.077782 -16.821594
-43.904346 46.061134 -16.331644
-43.684494 46.067032 -16.911192
-43.715153 46.077499 -16.548021
-43.671139 46.069271 -16.942522
-43.843826 46.092213 -16.266172
-43.646461 46.066616 -16.972147
-43.727085 46.065212 -16.743311
-43.938538 46.081753 -16.222748
-43.533401 46.074604 -16.921680
-43.529617 46.077118 -16.940796
-43.498638 46.073311 -16.977488
-43.589008 46.077507 -16.761671
-43.682770 46.073063 -16.794161
-43.662514 46.096558 -16.591228
-43.751003 46.101025 -16.326733
-43.855354 46.092590 -16.319046
-43.543449 46.086140 -16.782625
-43.694473 46.067715 -16.914436
-43.938255 46.075443 -16.305216
-43.745770 46.075676 -16.490402
-43.774494 46.070190 -16.689791
-43.865120 46.072674 -16.463160
-43.724434 46.083519 -16.576128
-43.587528 46.070732 -16.862114
-43.579689 46.074879 -16.895857
-43.637447 46.091522 -16.520510
-43.747540 46.078178 -16.770937
-43.753620 46.101078 -16.247326
-43.556744 46.074249 -16.924097
-43.641731 46.076477 -16.708101
-43.851109 46.094566 -16.205187
-43.450935 46.085571 -16.897493
-43.805084 46.084232 -16.566130
-43.453426 46.084045 -16.878937
-43.410057 46.074032 -16.926485
-43.508495 46.085793 -16.725195
-43.599094 46.082371 -16.757446
-43.941032 46.091087 -16.163147
-43.578323 46.103706 -16.560768
-43.636173 46.070747 -16.807909
-43.626766 46.076599 -16.852995
-43.762352 46.098518 -16.298923
-43.676044 46.113815 -16.307981
-43.604076 46.074253 -16.870419
-43.868965 46.096066 -16.291267
-44.004597 46.093273 -16.289520
-43.473869 46.099300 -16.748777
-43.778561 46.082687 -16.438282
-43.680016 46.074577 -16.652676
-43.664097 46.086693 -16.464378
-43.647228 46.096516 -16.549892
-43.507267 46.079105 -16.822483
-43.497059 46.082317 -16.854099
-43.649780 46.081650 -16.731304
-43.549309 46.095661 -16.491545
-43.469349 46.076839 -16.878000
-43.571495 46.091530 -16.678371
-43.671051 46.110912 -16.228504
-43.761013 46.101395 -16.188507
-43.710621 46.089420 -16.536655
-43.375004 46.091995 -16.855316
-43.380398 46.092361 -16.840223
-43.351265 46.091122 -16.893002
-43.438114 46.096916 -16.693129
-43.515419 46.088692 -16.720652
-43.689835 46.068680 -16.754726
-43.680023 46.075108 -16.815975
-43.786484 46.080063 -16.529808
-43.704250 46.074791 -16.708818
-43.649715 46.069214 -16.818075
-43.505054 46.113739 -16.532877
-43.556973 46.081047 -16.770956
-43.541096 46.082016 -16.813147
-43.735188 46.077442 -16.601349
-43.891048 46.092285 -16.271301
-43.775166 46.100964 -16.272951
-43.691601 46.113216 -16.283110
-43.518803 46.079697 -16.829651
-43.603310 46.124611 -16.289043
-43.697929 46.093643 -16.414879
-43.606220 46.087643 -16.623545
-43.400181 46.106518 -16.714108
-43.592010 46.098591 -16.441393
-43.807533 46.081814 -16.382162
-43.562222 46.100643 -16.521177
-43.436745 46.090294 -16.788179
-43.575039 46.092735 -16.701721
-43.426003 46.092548 -16.818455
-43.480267 46.107597 -16.466599
-43.404221 46.089993 -16.843880
-43.488838 46.094795 -16.644114
-43.588047 46.115753 -16.210457
-43.634441 46.100361 -16.512981
-43.681290 46.109146 -16.173027
-43.311028 46.098633 -16.803026
-43.311192 46.103161 -16.820620
-43.449230 46.100727 -16.691490
-43.282700 46.098434 -16.853998
-43.367725 46.105057 -16.660980
-43.758293 46.101692 -16.132969
-43.610886 46.078869 -16.722225
-43.590401 46.079517 -16.777670
-43.706360 46.090988 -16.507706
-43.627792 46.085857 -16.680674
-43.562309 46.072620 -16.779606
-43.484718 46.090218 -16.738033
-43.431370 46.119770 -16.505793
-43.468849 46.092186 -16.780254
-43.655182 46.086517 -16.573807
-43.800140 46.099083 -16.256445
-43.700840 46.112679 -16.257706
-43.609890 46.118069 -16.264528
-43.443649 46.086979 -16.793264
-43.521980 46.126495 -16.269463
-43.531059 46.094727 -16.594769
-43.614491 46.097668 -16.390093
-43.727005 46.090725 -16.360924
-43.332405 46.113682 -16.680876
-43.496433 46.112507 -16.498711
-43.518085 46.107536 -16.417542
-43.502144 46.102802 -16.672899
-43.370815 46.100418 -16.755812
-43.359535 46.101715 -16.784746
-43.414871 46.099953 -16.612532
-43.337234 46.099194 -16.808863
-43.407654 46.114555 -16.442171
-43.510433 46.120571 -16.192541
-43.556019 46.107330 -16.489330
-43.603806 46.115902 -16.157391
-43.251049 46.113285 -16.787466
-43.256962 46.113613 -16.773684
-43.385406 46.111710 -16.664400
-43.223850 46.107567 -16.820286
-43.537846 46.089005 -16.691168
-43.517361 46.089649 -16.746611
-43.294544 46.107269 -16.627485
-43.636227 46.103809 -16.487753
-43.543556 46.090046 -16.650108
-43.491512 46.083744 -16.748444
-43.417080 46.100319 -16.707109
-43.582394 46.095535 -16.547180
-43.722771 46.108776 -16.243107
-43.398834 46.100361 -16.747173
-43.357658 46.121822 -16.478594
-43.629257 46.122360 -16.243582
-43.379150 46.097061 -16.762596
-43.535942 46.124828 -16.248230
-43.553856 46.113415 -16.371017
-43.460926 46.103760 -16.567101
-43.651470 46.099590 -16.340733
-43.451061 46.132290 -16.251171
-43.444633 46.111465 -16.394855
-43.424709 46.118462 -16.474638
-43.261440 46.114891 -16.647217
-43.428688 46.107929 -16.642622
-43.305782 46.107548 -16.723755
-43.291748 46.107887 -16.751484
-43.273922 46.107349 -16.775389
-43.343266 46.104053 -16.583023
-43.335392 46.116558 -16.416679
-43.489803 46.116188 -16.467690
-43.441498 46.127277 -16.177298
-43.529457 46.120647 -16.141956
-43.187191 46.117489 -16.752573
-43.464390 46.095135 -16.660913
-43.191265 46.116852 -16.737978
-43.310883 46.111927 -16.631365
-43.447079 46.098747 -16.716703
-43.556061 46.107769 -16.465452
-43.158031 46.110863 -16.782352
-43.231091 46.112293 -16.599312
-43.478546 46.101967 -16.625795
-43.422531 46.091850 -16.717981
-43.509197 46.101551 -16.521389
-43.643154 46.114494 -16.229792
-43.348484 46.105461 -16.675650
-43.333935 46.108433 -16.717371
-43.549503 46.125149 -16.227957
-43.289852 46.123814 -16.452835
-43.312271 46.103226 -16.729721
-43.580914 46.107414 -16.321558
-43.468296 46.131550 -16.232450
-43.479603 46.116314 -16.350134
-43.389442 46.107811 -16.539816
-43.386955 46.138016 -16.234709
-43.356121 46.122406 -16.450768
-43.355755 46.111034 -16.613605
-43.376602 46.117371 -16.372358
-43.203930 46.123844 -16.620598
-43.245361 46.115604 -16.693691
-43.230793 46.114986 -16.720079
-43.214809 46.115417 -16.744799
-43.276653 46.108109 -16.554560
-43.417286 46.121113 -16.445425
-43.272354 46.122410 -16.395233
-43.465118 46.129284 -16.128727
-43.376514 46.134018 -16.160479
-43.396839 46.101204 -16.632099
-43.497650 46.149368 -15.893915
-43.378613 46.104832 -16.687496
-43.130684 46.119984 -16.705545
-43.484055 46.113655 -16.444519
-43.127022 46.121639 -16.719252
-43.246513 46.116974 -16.602798
-43.405735 46.106014 -16.599030
-43.101940 46.116974 -16.749741
-43.173584 46.120251 -16.572668
-43.462067 46.134670 -15.890268
-43.439167 46.107548 -16.495863
-43.565754 46.118221 -16.216286
-43.287788 46.113441 -16.648731
-43.273632 46.116436 -16.689533
-43.478817 46.129848 -16.214088
-43.511272 46.113239 -16.302723
-43.231277 46.130650 -16.431149
-43.249599 46.109306 -16.699730
-43.399311 46.134285 -16.217083
-43.416683 46.124104 -16.330963
-43.323860 46.111797 -16.513969
-43.319687 46.139782 -16.217875
-43.291496 46.116028 -16.587261
-43.294914 46.129230 -16.430128
-43.309986 46.120235 -16.351480
-43.183998 46.119698 -16.663122
-43.146793 46.129833 -16.592976
-43.172184 46.120029 -16.690716
-43.354733 46.126934 -16.425274
-43.147774 46.114674 -16.709501
-43.221104 46.116982 -16.530954
-43.206913 46.122349 -16.371517
-43.397064 46.132008 -16.113758
-43.331665 46.107212 -16.605387
-43.311634 46.137714 -16.145803
-43.471241 46.125404 -16.080128
-43.438545 46.155849 -15.886139
-43.312904 46.109882 -16.659443
-43.419418 46.121422 -16.426785
-43.192272 46.125854 -16.578665
-43.337528 46.109993 -16.574230
-43.068672 46.123775 -16.686661
-43.074333 46.125023 -16.676058
-43.050041 46.122997 -16.720009
-43.501911 46.126831 -16.204355
-43.374649 46.113464 -16.472692
-43.116970 46.125210 -16.546331
-43.224701 46.116512 -16.619574
-43.397987 46.139210 -15.881398
-43.416676 46.136494 -16.200661
-43.208702 46.118542 -16.659563
-43.444759 46.117050 -16.284088
-43.346489 46.123989 -16.310652
-43.191521 46.115314 -16.671703
-43.335720 46.137989 -16.201872
-43.175865 46.137474 -16.409723
-43.267910 46.120651 -16.491278
-43.470699 46.135902 -15.836337
-43.265060 46.147446 -16.202250
-43.471184 46.147095 -15.866205
-43.233688 46.122917 -16.563725
-43.231831 46.131107 -16.408560
-43.254284 46.126980 -16.333197
-43.093319 46.134773 -16.566895
-43.124474 46.122768 -16.633314
-43.112659 46.123104 -16.660906
-43.292728 46.132725 -16.406441
-43.094166 46.120670 -16.681213
-43.165531 46.122868 -16.507261
-43.153873 46.130108 -16.352221
-43.338100 46.138634 -16.100601
-43.269638 46.112209 -16.578907
-43.252319 46.115826 -16.634693
-43.415970 46.135960 -16.068653
-43.373234 46.156338 -15.879904
-43.350147 46.123291 -16.406918
-43.249901 46.140396 -16.131361
-43.515415 46.147305 -15.844931
-43.278004 46.116859 -16.552134
-43.135761 46.129765 -16.554522
-43.488186 46.123436 -16.031866
-43.311935 46.116364 -16.450220
-43.434898 46.131481 -16.192055
-43.017429 46.126118 -16.645145
-43.017853 46.130730 -16.659588
-42.992607 46.123131 -16.687756
-43.169918 46.123444 -16.594069
-43.387875 46.125725 -16.268610
-43.350971 46.139156 -16.187782
-43.154831 46.125458 -16.634447
-43.061798 46.129128 -16.521671
-43.338905 46.144703 -15.873602
-43.289463 46.129730 -16.292862
-43.278053 46.143631 -16.188158
-43.204685 46.121597 -16.467445
-43.120945 46.141273 -16.389523
-43.414364 46.143345 -15.829767
-43.412205 46.152527 -15.860628
-43.205002 46.148167 -16.186300
-43.177715 46.128788 -16.540947
-43.167816 46.130013 -16.386515
-43.194901 46.129799 -16.313232
-43.066376 46.123802 -16.605152
-43.057724 46.126106 -16.633060
-43.033913 46.133801 -16.539209
-43.229240 46.133591 -16.385759
-43.041058 46.123642 -16.654148
-43.480316 46.144119 -15.782996
-43.107174 46.123821 -16.482250
-43.209969 46.116146 -16.554497
-43.200436 46.125645 -16.612679
-43.353939 46.138569 -16.057344
-43.276867 46.140289 -16.087433
-43.289959 46.128063 -16.388836
-43.088928 46.125042 -16.329678
-43.320847 46.163807 -15.871759
-43.452488 46.151726 -15.840901
-43.219387 46.121719 -16.530375
-43.428917 46.128994 -16.021816
-43.193569 46.145050 -16.117102
-43.085190 46.136604 -16.531904
-43.249237 46.118275 -16.427725
-43.378284 46.140045 -16.181040
-42.955746 46.121967 -16.625113
-42.959583 46.123245 -16.613728
-43.325966 46.128479 -16.251915
-43.123035 46.134212 -16.573132
-43.292892 46.143784 -16.174952
-42.937389 46.121273 -16.655313
-43.104256 46.133293 -16.611853
-43.004223 46.127136 -16.494743
-43.291420 46.156166 -15.864391
-43.230194 46.132496 -16.275124
-43.221275 46.146271 -16.174747
-43.155155 46.129360 -16.447475
-43.058605 46.135227 -16.365894
-43.501644 46.146671 -15.828146
-43.352234 46.145817 -15.823852
-43.355461 46.157963 -15.854920
-43.124504 46.134621 -16.519350
-43.150864 46.150822 -16.171844
-43.115654 46.134773 -16.367517
-43.130070 46.124680 -16.292912
-43.021198 46.132607 -16.582718
-42.981327 46.133755 -16.513380
-43.174053 46.138317 -16.368729
-43.422260 46.149544 -15.777812
-43.064514 46.135494 -16.464230
-43.156208 46.121021 -16.531551
-43.300869 46.145142 -16.045620
-43.229351 46.129829 -16.371586
-43.139309 46.126652 -16.586479
-43.219715 46.142910 -16.074949
-43.165359 46.126514 -16.510578
-43.264484 46.166271 -15.865051
-43.367393 46.130577 -16.011786
-43.391392 46.155121 -15.837629
-43.041409 46.132721 -16.312738
-43.189270 46.118149 -16.406349
-43.316250 46.142662 -16.169727
-43.036053 46.142399 -16.510962
-43.134972 46.144733 -16.102835
-43.271286 46.133167 -16.236191
-42.914139 46.131775 -16.602053
-42.929188 46.142788 -16.597893
-43.235718 46.146408 -16.162458
-43.065048 46.133202 -16.547140
-43.046661 46.132305 -16.584942
-43.171833 46.133259 -16.257721
-42.970810 46.145645 -16.480856
-43.099670 46.130219 -16.425869
-43.163582 46.146935 -16.160892
-43.231003 46.156677 -15.856981
-43.441101 46.153027 -15.826270
-43.012383 46.141918 -16.348396
-43.303192 46.164383 -15.848974
-43.303932 46.155251 -15.816417
-43.070873 46.137444 -16.498585
-43.107166 46.161377 -16.158791
-43.078667 46.150288 -16.354198
-43.081203 46.130360 -16.276436
-42.963062 46.127670 -16.554386
-42.952961 46.129032 -16.580561
-43.110119 46.132191 -16.348764
-43.366013 46.152954 -15.773353
-42.951488 46.155254 -16.498919
-42.936176 46.126629 -16.599422
-43.005733 46.131451 -16.439999
-43.107597 46.128780 -16.511972
-43.244217 46.146736 -16.034412
-43.086983 46.130482 -16.565210
-43.174683 46.134525 -16.355864
-43.320770 46.141037 -16.002920
-43.338326 46.161499 -15.833516
-43.113194 46.132278 -16.491602
-43.158062 46.139572 -16.062559
-43.212593 46.169727 -15.858104
-43.138935 46.123886 -16.388157
-43.259224 46.147224 -16.159519
-43.429306 46.146709 -15.727451
-43.007092 46.150249 -16.298435
-43.216610 46.136868 -16.220440
-42.976219 46.136440 -16.484043
-43.082687 46.146370 -16.089132
-43.179470 46.148026 -16.150324
-43.021851 46.142925 -16.527739
-42.869473 46.132980 -16.565483
-42.852287 46.134941 -16.608223
-43.111607 46.129078 -16.239378
-43.044189 46.129093 -16.404194
-42.911346 46.135719 -16.452902
-43.120407 46.157463 -16.149136
-43.378677 46.154438 -15.823450
-43.176365 46.158188 -15.848791
-43.248272 46.166809 -15.843951
-42.977116 46.156479 -16.333595
-43.013004 46.133392 -16.474724
-43.247574 46.156734 -15.809665
-43.043480 46.150154 -16.143141
-43.019230 46.145157 -16.333990
-43.045551 46.145897 -16.262579
-43.314240 46.157356 -15.768637
-42.929493 46.143257 -16.538158
-43.076832 46.150650 -16.337084
-42.892014 46.144341 -16.470928
-43.049721 46.125736 -16.488127
-42.971790 46.148014 -16.424721
-43.267780 46.143581 -15.993280
-43.028591 46.127476 -16.540054
-43.116302 46.133312 -16.338375
-43.192986 46.151302 -16.023396
-43.284317 46.164913 -15.828900
-43.054531 46.129192 -16.469593
-43.165165 46.174175 -15.850891
-43.374477 46.149082 -15.724634
-43.091755 46.129616 -16.370199
-43.122143 46.155029 -16.051847
-43.198463 46.144882 -16.147512
-43.150154 46.127697 -16.203642
-42.956757 46.150021 -16.280062
-42.934845 46.144154 -16.465364
-43.124115 46.147648 -16.138512
-43.046249 46.160873 -16.077089
-42.962372 46.135014 -16.499825
-42.946766 46.137062 -16.538891
-43.081467 46.148518 -16.227985
-43.009823 46.144642 -16.389803
-43.324802 46.159790 -15.821122
-43.059086 46.149174 -16.135660
-43.196865 46.168243 -15.838231
-42.979168 46.149906 -16.461672
-43.198830 46.161175 -15.802982
-43.095814 46.135796 -15.844132
-42.978500 46.152775 -16.318851
-43.003857 46.160694 -16.130722
-43.262856 46.160786 -15.762974
-42.993484 46.144642 -16.245625
-43.016964 46.143513 -16.317728
-42.875034 46.137287 -16.511354
-42.864399 46.137688 -16.536188
-43.015358 46.142284 -16.473763
-43.218891 46.149082 -15.984387
-43.082184 46.149742 -16.328468
-42.850773 46.137257 -16.555365
-43.138145 46.149891 -16.012869
-42.912041 46.137028 -16.399876
-43.229897 46.166317 -15.825151
-43.022144 46.147648 -16.458300
-43.320042 46.150486 -15.720879
-43.102524 46.163685 -15.845502
-43.054756 46.144154 -16.356831
-43.138226 46.141514 -16.136797
-43.064926 46.149700 -16.039114
-43.103222 46.132313 -16.190125
-42.892132 46.148876 -16.447126
-43.070602 46.147243 -16.127487
-42.921909 46.142715 -16.481537
-43.027664 46.145241 -16.212414
-43.273560 46.165161 -15.817745
-42.953373 46.137566 -16.367559
-43.018108 46.156715 -16.123674
-43.127625 46.153736 -15.835353
-42.918476 46.137939 -16.436403
-43.219521 46.169193 -15.756532
-42.914936 46.113731 -16.223114
-42.971745 46.147167 -16.302742
-43.156895 46.140697 -15.974971
-42.957840 46.134289 -16.448862
-43.017822 46.138638 -16.309261
-43.089630 46.151432 -16.002947
-42.936310 46.136005 -16.501707
-43.276814 46.158829 -15.716660
-43.185772 46.174683 -15.820545
-42.958828 46.135674 -16.434078
-42.993797 46.133110 -16.334732
-43.092892 46.148018 -16.127275
-43.072655 46.148746 -16.179562
-43.030151 46.155746 -16.116842
-42.990231 46.154781 -16.199823
-43.219677 46.167530 -15.815336
-43.094578 46.168102 -15.828026
-43.085342 46.152103 -15.793193
-43.112049 46.144173 -15.966672
-42.922123 46.145851 -16.434881
-42.980534 46.150112 -16.298956
-43.239780 46.170185 -15.710816
-43.034363 46.145020 -15.993197
-42.929188 46.153091 -16.423935
-43.118362 46.160149 -15.818449
-42.965485 46.151531 -16.324095
-43.018024 46.142441 -16.165735
-43.061153 46.164387 -16.119471
-43.144341 46.147976 -15.816247
-43.103050 46.154045 -15.750757
-43.051872 46.132778 -15.957959
-42.961533 46.132183 -16.151012
-43.003113 46.156036 -16.108482
-43.114998 46.166275 -15.810603
-43.022728 46.146175 -15.949017
