# .PCD v0.7 - Point Cloud Data file format
VERSION 0.7
FIELDS x y z
SIZE 4 4 4
TYPE F F F
COUNT 1 1 1
WIDTH 376
HEIGHT 1
VIEWPOINT 0 0 0 1
POINTS 376
DATA ascii
-45.311825 45.962395 -17.054840
-45.285950 45.960537 -17.011002
-45.090111 45.943722 -17.256905
-45.018913 45.942223 -17.336052
-45.170528 45.955425 -17.072371
-45.281376 45.964012 -16.878597
-45.306782 45.963230 -16.810135
-45.017540 45.946430 -17.335423
-45.022362 45.947491 -17.315781
-45.045643 45.944267 -17.235720
-45.114174 45.957817 -17.134789
-44.948814 45.944714 -17.378904
-44.945431 45.947838 -17.388268
-45.167393 45.972607 -17.015799
-44.964924 45.946507 -17.259193
-45.156422 45.973923 -16.978996
-44.972591 45.957176 -17.211411
-44.892536 45.949802 -17.283855
-45.181526 45.974987 -16.783121
-45.039761 45.964172 -17.031321
-45.154228 45.977074 -16.848642
-44.887630 45.952461 -17.280750
-44.918861 45.951706 -17.189833
-44.897392 45.955936 -17.263058
-45.228767 45.985443 -16.696306
-44.983990 45.966621 -17.089664
-44.831524 45.953320 -17.326044
-44.823803 45.956001 -17.332590
-45.034531 45.979435 -16.979336
-44.852535 45.957375 -17.213665
-45.026119 45.980339 -16.946808
-44.853371 45.963776 -17.165359
-45.147675 45.996616 -16.659086
-44.790981 45.962387 -17.241592
-45.049664 45.979385 -16.756815
-44.925606 45.972950 -16.994827
-45.018787 45.980999 -16.817665
-44.785416 45.964149 -17.237160
-44.815205 45.962376 -17.152147
-44.792419 45.967972 -17.218349
-45.092564 45.991161 -16.675776
-44.868641 45.974602 -17.050547
-44.729523 45.965080 -17.279305
-44.718159 45.965218 -17.283346
-44.920464 45.989048 -16.948257
-44.753113 45.970646 -17.174412
-44.914062 45.989643 -16.918705
-44.753487 45.973064 -17.125992
-45.005405 45.994881 -16.640560
-44.945236 45.988693 -16.733948
-44.822491 45.980366 -16.962818
-44.682903 45.966698 -17.196850
-44.907158 45.989212 -16.790836
-44.691113 45.974834 -17.197863
-44.712025 45.968945 -17.114737
-44.979519 46.000267 -16.658064
-44.688732 45.974796 -17.174257
-44.761837 45.980549 -17.013842
-44.631413 45.973301 -17.235283
-44.627197 45.975613 -17.241091
-44.815170 45.998623 -16.919649
-44.810665 45.997906 -16.893042
-44.649918 45.975296 -17.133795
-44.665527 45.983875 -17.092493
-44.911144 46.006775 -16.628225
-44.846451 45.998310 -16.713360
-44.729298 45.989613 -16.933706
-44.593636 45.975716 -17.160700
-44.808468 45.997906 -16.767067
-44.591316 45.978119 -17.156488
-44.618279 45.976368 -17.081121
-44.870857 46.006813 -16.642176
-44.594357 45.981483 -17.133934
-44.674160 45.992271 -16.982609
-44.546635 45.983906 -17.196609
-44.542305 45.985226 -17.202389
-44.715439 46.004509 -16.892281
-44.713974 46.004360 -16.869047
-44.564075 45.984863 -17.100103
-44.573601 45.989151 -17.056421
-44.813690 46.015022 -16.614676
-44.752682 46.004341 -16.692705
-44.637989 45.995625 -16.904341
-44.512226 45.984798 -17.126646
-44.510162 45.986191 -17.121477
-44.716713 46.006775 -16.745020
-44.539268 45.987045 -17.052322
-44.780754 46.017307 -16.627237
-44.514782 45.990337 -17.100622
-44.588428 45.999676 -16.953304
-44.459236 45.987770 -17.156992
-44.455395 45.990067 -17.161875
-44.628868 46.012867 -16.868015
-44.628380 46.011524 -16.847353
-44.481033 45.991089 -17.066515
-44.496464 45.996597 -17.027351
-44.712326 46.016651 -16.600742
-44.673473 46.013714 -16.674631
-44.560005 46.004028 -16.880308
-44.435848 45.992214 -17.095728
-44.434933 45.995487 -17.090990
-44.458786 45.992855 -17.023012
-44.634098 46.015591 -16.724504
-44.694599 46.026333 -16.612839
-44.436398 45.998070 -17.066734
-44.507793 46.007492 -16.924978
-44.386971 45.996796 -17.124474
-44.390015 46.002277 -17.132076
-44.543922 46.019005 -16.844452
-44.543488 46.016582 -16.825989
-44.411289 46.002701 -17.039284
-44.426483 46.006222 -17.000059
-44.591125 46.018364 -16.657534
-44.634560 46.025650 -16.589731
-44.484135 46.011192 -16.856073
-44.366138 46.000828 -17.067486
-44.365482 46.003090 -17.061790
-44.391968 46.004044 -16.999126
-44.554024 46.022076 -16.705061
-44.609467 46.031166 -16.600012
-44.367977 46.006557 -17.037937
-44.436951 46.016151 -16.899515
-44.650524 46.029430 -16.438671
-44.321918 46.006916 -17.095928
-44.323383 46.011616 -17.101830
-44.474075 46.028389 -16.824772
-44.475220 46.026749 -16.808008
-44.339947 46.008453 -17.011515
-44.355141 46.011978 -16.972290
-44.552078 46.029144 -16.577999
-44.518631 46.025928 -16.641132
-44.417137 46.019314 -16.834332
-44.299995 46.007992 -17.040712
-44.300629 46.010124 -17.034462
-44.479187 46.026966 -16.685604
-44.324043 46.010353 -16.973806
-44.526703 46.033749 -16.586027
-44.308289 46.017998 -17.012615
-44.363338 46.020073 -16.874104
-44.576324 46.036983 -16.429134
-44.260429 46.015583 -17.068851
-44.401947 46.034016 -16.804243
-44.257336 46.017853 -17.071880
-44.397846 46.028889 -16.788658
-44.278629 46.017040 -16.986666
-44.291382 46.018814 -16.947567
-44.450077 46.032028 -16.625273
-44.482544 46.038200 -16.568163
-44.351871 46.026207 -16.813314
-44.240635 46.017342 -17.016642
-44.265278 46.018524 -16.953230
-44.239574 46.017700 -17.008661
-44.404678 46.029766 -16.667402
-44.458836 46.042664 -16.574713
-44.236340 46.019855 -16.982525
-44.299866 46.027821 -16.851639
-44.508877 46.044807 -16.419086
-44.193020 46.017952 -17.038425
-44.339378 46.039894 -16.773550
-44.334538 46.040070 -16.785614
-44.192909 46.021873 -17.042627
-44.217751 46.024529 -16.963100
-44.388443 46.038315 -16.611126
-44.236347 46.028610 -16.926315
-44.412937 46.043262 -16.557295
-44.289143 46.030769 -16.793364
-44.181854 46.023594 -16.992865
-44.204716 46.023926 -16.930906
-44.174721 46.019657 -16.982510
-44.350594 46.043289 -16.652943
-44.391930 46.048462 -16.562765
-44.182980 46.029507 -16.959797
-44.454018 46.041500 -16.363626
-44.245255 46.036522 -16.831659
-44.439323 46.048786 -16.410418
-44.277367 46.044270 -16.757132
-44.141071 46.028469 -17.015177
-44.272469 46.045525 -16.766998
-44.158745 46.028790 -16.939270
-44.176849 46.031891 -16.903383
-44.327858 46.045479 -16.597391
-44.355125 46.052006 -16.547888
-44.231613 46.036739 -16.774414
-44.288208 46.047680 -16.637455
-44.327675 46.052925 -16.551914
-44.401009 46.051674 -16.356133
-44.371876 46.051529 -16.401546
-45.007679 45.935242 -17.507034
-45.015320 45.932434 -17.336605
-45.260193 45.959450 -16.944126
-45.199387 45.966595 -17.065075
-45.010048 45.936295 -17.499243
-45.353008 45.974140 -16.750507
-44.954792 45.935997 -17.544941
-45.229149 45.964760 -17.120087
-44.959675 45.946545 -17.374350
-45.056068 45.953472 -17.190929
-44.932777 45.937668 -17.570555
-45.236362 45.962055 -17.015242
-44.890018 45.942646 -17.425100
-44.878098 45.944473 -17.441835
-45.353729 45.980988 -16.791536
-44.963600 45.945065 -17.378012
-44.905582 45.949036 -17.288961
-45.117989 45.968231 -16.907280
-45.061008 45.976074 -17.024366
-44.990364 45.954929 -17.252783
-45.219700 45.987564 -16.727938
-44.881065 45.947502 -17.433180
-44.835476 45.953945 -17.316744
-44.822800 45.943630 -17.474501
-45.094551 45.977936 -17.076525
-44.926956 45.962135 -17.143183
-44.805325 45.945816 -17.499775
-44.777145 45.952759 -17.369846
-45.099899 45.975304 -16.976320
-44.765053 45.954670 -17.384356
-45.207241 45.990002 -16.762672
-44.835178 45.953014 -17.317629
-44.795300 45.960655 -17.241192
-44.990459 45.976284 -16.874199
-44.939144 45.984600 -16.988165
-45.083298 45.993263 -16.705343
-44.868980 45.965828 -17.202724
-44.766842 45.958817 -17.376291
-44.732868 45.965729 -17.268827
-44.714783 45.955322 -17.415791
-44.959179 45.984142 -17.032784
-44.816040 45.971622 -17.101671
-44.695618 45.955730 -17.439339
-44.672562 45.961853 -17.317953
-44.958275 45.979057 -16.936579
-44.663345 45.964420 -17.333605
-45.063519 45.993599 -16.736103
-44.729694 45.964138 -17.268574
-44.692703 45.969284 -17.197653
-44.878857 45.986481 -16.845337
-44.967068 46.000713 -16.684372
-44.833202 45.995274 -16.956181
-44.763580 45.977795 -17.159082
-44.657810 45.966469 -17.321564
-44.635303 45.975853 -17.224056
-45.029228 45.998150 -16.610147
-44.718727 45.982502 -17.064529
-44.614571 45.965015 -17.361340
-44.846512 45.994694 -16.995947
-44.593830 45.964638 -17.383192
-44.585514 45.975796 -17.275187
-44.849201 45.990082 -16.904413
-44.577473 45.977242 -17.290255
-44.952656 46.005531 -16.713982
-44.630550 45.973476 -17.222107
-44.596928 45.977104 -17.155800
-44.782032 45.996948 -16.820261
-44.855347 46.006603 -16.665245
-44.729584 46.001621 -16.925213
-44.665184 45.988865 -17.119356
-44.573082 45.981163 -17.278648
-44.551506 45.987282 -17.185881
-44.624390 45.989956 -17.029732
-44.917572 46.008034 -16.592062
-44.519836 45.971954 -17.311302
-44.739956 46.001465 -16.961641
-44.504776 45.973969 -17.333242
-44.500290 45.984432 -17.234331
-44.494026 45.986736 -17.247944
-44.743221 45.998672 -16.874620
-44.847839 46.014763 -16.692192
-44.512051 45.985573 -17.119400
-44.545288 45.985115 -17.182266
-44.689526 46.005939 -16.794800
-44.825588 46.016396 -16.516243
-44.763756 46.017242 -16.648746
-44.641994 46.011112 -16.898487
-44.572346 45.996262 -17.080856
-44.485737 45.989117 -17.234802
-44.465462 45.991955 -17.145845
-44.538940 45.998367 -16.997417
-44.646450 46.009727 -16.930407
-44.813000 46.016102 -16.574707
-44.443111 45.984722 -17.269487
-44.426910 45.984859 -17.291000
-44.418900 45.990616 -17.193989
-44.409657 45.991264 -17.206430
-44.650551 46.007744 -16.846943
-44.747299 46.020447 -16.672190
-44.436604 45.994904 -17.086782
-44.456860 45.990108 -17.140198
-44.602440 46.013256 -16.771551
-44.722916 46.018082 -16.502995
-44.681675 46.027821 -16.632845
-44.553967 46.016624 -16.871660
-44.485580 46.002876 -17.045898
-44.401852 45.994625 -17.192396
-44.393265 46.001926 -17.113449
-44.464867 46.008408 -16.969656
-44.560310 46.017082 -16.902153
-44.364426 45.991642 -17.228071
-44.707626 46.020199 -16.558184
-44.347939 45.990871 -17.247330
-44.347710 45.999550 -17.158794
-44.339870 46.001064 -17.170710
-44.565727 46.016891 -16.821360
-44.659370 46.028709 -16.653996
-44.361374 46.001144 -17.055403
-44.388016 46.001713 -17.108059
-44.523201 46.020645 -16.750397
-44.642742 46.027351 -16.490057
-44.591965 46.030151 -16.617270
-44.482735 46.027161 -16.850435
-44.410683 46.012100 -17.014605
-44.332069 46.004421 -17.156681
-44.315403 46.004578 -17.076761
-44.390839 46.015446 -16.940903
-44.479149 46.023853 -16.874853
-44.298267 46.002068 -17.191645
-44.624958 46.028790 -16.543179
-44.275711 46.004509 -17.124413
-44.282444 46.002190 -17.212233
-44.272263 46.008549 -17.136971
-44.573330 46.033741 -16.635529
-44.485405 46.024475 -16.797604
-44.296169 46.010220 -17.026917
-44.452297 46.029095 -16.730410
-44.312881 46.007027 -17.073492
-44.519852 46.039566 -16.603247
-44.565228 46.035282 -16.478201
-44.405102 46.030411 -16.826756
-44.259041 46.017612 -17.051764
-44.333027 46.016582 -16.983353
-44.261478 46.010250 -17.121777
-44.316002 46.018513 -16.912962
-44.411804 46.034008 -16.851959
-44.232323 46.009407 -17.156427
-44.212330 46.011440 -17.093464
-44.540680 46.034523 -16.528648
-44.219856 46.011166 -17.177259
-44.207733 46.013599 -17.105595
-44.499527 46.041374 -16.619783
-44.412014 46.032249 -16.775555
-44.234165 46.017864 -17.000822
-44.381725 46.035454 -16.711676
-44.248314 46.015076 -17.043133
-44.444859 46.043247 -16.589249
-44.492577 46.041637 -16.467253
-44.333595 46.034958 -16.804441
-44.196095 46.023449 -17.022091
-44.199501 46.018047 -17.090307
-44.261162 46.030258 -16.891834
-44.265278 46.022911 -16.954979
-44.339748 46.038654 -16.828348
-44.170727 46.017189 -17.124033
-44.158226 46.021236 -17.067278
-44.466942 46.041073 -16.515110
-44.146347 46.018303 -17.074413
-44.159554 46.018822 -17.144308
-44.430809 46.049423 -16.605005
-44.336231 46.035275 -16.752636
-44.175182 46.024158 -16.974894
-44.315098 46.040348 -16.693480
-44.377392 46.049091 -16.576088
-44.190414 46.024330 -17.015434
-44.419601 46.045006 -16.456232
-44.279469 46.046520 -16.786844
-44.197849 46.032951 -16.867464
-44.206146 46.031208 -16.930038
-44.144966 46.028934 -17.062859
-44.277164 46.046242 -16.806345
-44.112698 46.023525 -17.093103
-44.098431 46.022511 -17.112181
-44.393909 46.045521 -16.501898
-44.360622 46.052608 -16.589724
-44.277836 46.045307 -16.734430
-44.315384 46.055344 -16.562962
-44.355553 46.051411 -16.445520
-44.329433 46.053017 -16.489923
