# .PCD v0.7 - Point Cloud Data file format
VERSION 0.7
FIELDS x y z
SIZE 4 4 4
TYPE F F F
COUNT 1 1 1
WIDTH 17
HEIGHT 1
VIEWPOINT 0 0 0 1
POINTS 17
DATA ascii
-6.051303 36.443203 -0.092733
-6.071558 36.394413 -0.087851
-6.008585 36.155396 -0.124136
-5.981491 36.346359 -0.089781
-6.033999 36.365971 -0.089865
-6.029235 36.398823 -0.131583
-6.068926 36.356575 -0.094996
-5.990416 36.262669 -0.113552
-6.406240 37.872742 0.942285
-5.961459 36.252308 -0.101064
-6.010602 36.308697 -0.072662
-6.200591 37.333668 0.422977
-6.042357 36.308727 -0.090048
-5.941525 36.212730 0.002104
-5.931258 36.164604 -0.106621
-5.975031 36.223640 -0.091964
-5.909594 36.134270 -0.098671
