# .PCD v0.7 - Point Cloud Data file format
VERSION 0.7
FIELDS x y z
SIZE 4 4 4
TYPE F F F
COUNT 1 1 1
WIDTH 40
HEIGHT 1
VIEWPOINT 0 0 0 1
POINTS 40
DATA ascii
-8.105045 35.029465 -0.846292
-8.086415 35.034584 -0.843005
-8.050237 35.000992 -0.853738
-8.021863 34.991543 -0.864239
-8.004835 34.981644 -0.854113
-8.110367 35.027004 -0.842702
-8.100393 34.996609 -0.834858
-8.004902 35.006310 -0.832526
-8.114446 35.159897 -0.667477
-8.066027 35.006668 -0.840095
-8.030168 34.945950 -0.862309
-8.100817 35.166416 -0.661811
-8.114216 34.976395 -0.850572
-7.998644 34.956684 -0.865985
-8.084837 35.162991 -0.642864
-8.097252 35.026554 -0.836250
-8.009579 34.952835 -0.835952
-8.082331 34.969120 -0.835304
-8.045925 35.098930 -0.875414
-8.025470 34.970032 -0.864091
-8.005423 34.906651 -0.873697
-8.023459 35.104252 -0.846228
-8.114564 35.038868 -0.842054
-8.114225 35.125404 -0.836958
-8.105215 34.964809 -0.833865
-8.096110 35.127380 -0.620238
-8.014939 34.945515 -0.812867
-8.073030 35.015312 -0.835479
-8.030381 35.048607 -0.878318
-8.049820 34.924934 -0.846903
-8.844783 35.991310 0.257676
-8.000590 34.953758 -0.864424
-8.025827 35.072540 -0.831536
-7.999835 34.889519 -0.856357
-8.807063 35.992756 0.301035
-8.909902 36.275059 0.285223
-8.884841 35.967129 0.258754
-8.848413 36.244225 0.304488
-8.844674 35.958439 0.295576
-8.786200 35.925800 0.309484
