# .PCD v0.7 - Point Cloud Data file format
VERSION 0.7
FIELDS x y z
SIZE 4 4 4
TYPE F F F
COUNT 1 1 1
WIDTH 13
HEIGHT 1
VIEWPOINT 0 0 0 1
POINTS 13
DATA ascii
-12.187063 33.583107 -2.399822
-12.125958 33.631226 -2.302010
-12.150020 33.662811 -2.387898
-12.111022 33.721230 -2.397892
-12.122660 33.740620 -2.375258
-12.114664 33.800220 -2.381331
-12.133332 33.821106 -2.361925
-12.132080 33.879532 -2.364670
-12.148463 33.902832 -2.346997
-12.145712 33.958679 -2.346104
-12.164424 34.324539 -2.422202
-12.181403 34.391853 -2.382756
-12.175289 34.410755 -2.396512
