# .PCD v0.7 - Point Cloud Data file format
VERSION 0.7
FIELDS x y z
SIZE 4 4 4
TYPE F F F
COUNT 1 1 1
WIDTH 14
HEIGHT 1
VIEWPOINT 0 0 0 1
POINTS 14
DATA ascii
1.399418 21.588703 1.111650
1.438022 21.588610 1.057149
1.155963 21.048042 0.939080
1.444057 21.535809 1.019727
1.395162 21.414324 1.137917
1.187484 21.048710 0.913461
1.439586 21.493044 1.038884
1.475304 21.485291 0.925240
1.449780 21.436684 1.006056
1.224680 21.048189 0.887615
1.318274 21.034267 0.802943
1.243558 21.539566 1.487140
1.264756 21.641575 1.502504
1.292481 21.534672 1.385643
