# .PCD v0.7 - Point Cloud Data file format
VERSION 0.7
FIELDS x y z
SIZE 4 4 4
TYPE F F F
COUNT 1 1 1
WIDTH 54
HEIGHT 1
VIEWPOINT 0 0 0 1
POINTS 54
DATA ascii
-10.124576 34.853760 -1.584192
-10.114734 34.898918 -1.568123
-10.101228 34.691338 -1.614787
-10.135509 34.920357 -1.579100
-10.095853 34.837723 -1.573582
-10.118437 34.908527 -1.585031
-10.044695 34.821106 -1.613932
-10.097244 34.719173 -1.635561
-10.095931 34.701859 -1.573378
-10.062137 34.813950 -1.569839
-10.080689 34.869011 -1.600274
-10.086926 34.894104 -1.571889
-10.099078 34.754036 -1.642293
-10.111259 34.958664 -1.581369
-10.051285 34.856846 -1.543776
-10.099169 34.745594 -1.580648
-10.119819 34.925461 -1.571439
-10.068698 34.685513 -1.564101
-10.040461 34.806564 -1.548784
-10.042275 34.841846 -1.598033
-10.056170 34.879532 -1.559396
-10.105749 34.792500 -1.577284
-10.130792 34.955330 -1.586484
-10.073940 34.735348 -1.565988
-10.071256 34.935913 -1.577391
-10.099981 34.808819 -1.641296
-10.091935 34.946751 -1.411445
-10.049006 34.851814 -1.617592
-10.044256 34.669922 -1.551859
-9.996847 34.764862 -1.565693
-10.103398 34.965656 -1.438426
-10.024382 34.861961 -1.548887
-10.073586 34.906292 -1.609394
-10.075397 34.779800 -1.566319
-10.043065 34.717422 -1.558948
-10.102488 34.846745 -1.579345
-10.045223 34.934563 -1.552055
-10.043105 34.877308 -1.565220
-10.022315 34.658203 -1.536185
-10.080395 34.963127 -1.407853
-10.040365 34.894123 -1.597224
-10.046434 34.768070 -1.552501
-10.017613 34.705109 -1.545578
-9.977360 34.861473 -1.598069
-10.069586 34.836548 -1.567295
-9.972596 34.606316 -1.569793
-10.075676 34.964661 -1.445979
-11.856307 37.732750 1.922359
-11.356260 37.074230 0.626546
-10.016011 34.754288 -1.542883
-9.959541 34.645870 -1.588413
-10.038650 34.826180 -1.552985
-10.841229 35.864780 0.141087
-9.988418 34.787521 -1.570524
