# .PCD v0.7 - Point Cloud Data file format
VERSION 0.7
FIELDS x y z
SIZE 4 4 4
TYPE F F F
COUNT 1 1 1
WIDTH 25
HEIGHT 1
VIEWPOINT 0 0 0 1
POINTS 25
DATA ascii
-12.483897 36.443974 -2.529671
-12.438119 36.465755 -2.501142
-12.430653 36.453705 -2.474580
-12.391234 36.490406 -2.446677
-12.337653 35.559536 -2.416208
-12.342545 35.612213 -2.410686
-12.341064 36.370979 -2.456447
-12.436021 36.332188 -2.512038
-12.291403 35.590611 -2.389896
-12.387231 36.347988 -2.458466
-12.406349 36.618168 -2.458092
-12.436329 36.236454 -2.534170
-12.347421 35.687180 -2.416625
-12.375555 35.714226 -2.476441
-12.280951 36.222355 -2.466028
-12.413584 36.308041 -2.460804
-12.291834 35.665653 -2.394784
-12.355221 35.769203 -2.413658
-12.321556 36.217793 -2.457155
-12.433184 36.258194 -2.483593
-12.378922 35.811783 -2.473045
-12.290175 35.735062 -2.398702
-12.368509 36.236279 -2.451795
-12.348207 35.857613 -2.414668
-12.273415 36.134861 -2.457445
