# .PCD v0.7 - Point Cloud Data file format
VERSION 0.7
FIELDS x y z
SIZE 4 4 4
TYPE F F F
COUNT 1 1 1
WIDTH 195
HEIGHT 1
VIEWPOINT 0 0 0 1
POINTS 195
DATA ascii
-10.670794 31.290834 -2.793899
-10.632136 31.281298 -2.819948
-10.675513 31.263535 -2.864217
-10.708747 31.267435 -2.839027
-10.515693 31.277559 -3.103897
-10.724661 31.257387 -2.913011
-10.604749 31.269138 -2.880471
-10.533250 31.274176 -3.126844
-10.748673 31.247566 -2.884918
-10.405986 31.275562 -3.312410
-10.719935 31.261547 -2.821920
-10.559082 31.259781 -3.148166
-10.512413 31.270439 -3.076050
-10.770665 31.249172 -2.959835
-10.436852 31.271469 -3.323977
-10.655963 31.260235 -2.928858
-10.582828 31.263830 -3.171733
-10.459310 31.274500 -3.143047
-10.798153 31.245337 -2.938237
-10.372476 31.273668 -3.424791
-10.369328 31.273430 -3.430085
-10.452240 31.260035 -3.355840
-10.767406 31.251654 -2.872752
-10.612737 31.255253 -3.198765
-10.578222 31.271383 -2.941220
-10.722871 31.271698 -2.811783
-10.814720 31.238565 -3.003119
-10.562585 31.260841 -3.123782
-10.487343 31.261902 -3.368119
-10.705713 31.253914 -2.976864
-10.629260 31.251417 -3.214651
-10.511275 31.264412 -3.188425
-10.837960 31.227615 -2.983579
-10.424469 31.264721 -3.467398
-10.421469 31.264381 -3.474096
-10.504399 31.253050 -3.400704
-10.810525 31.237045 -2.918686
-10.436522 31.265293 -3.328702
-10.654960 31.238934 -3.241820
-10.631095 31.262993 -2.989464
-10.765973 31.255030 -2.856852
-10.858045 31.228214 -3.045770
-10.417620 31.264294 -3.376899
-10.612319 31.250383 -3.170056
-10.534984 31.249151 -3.409452
-10.754705 31.243723 -3.022517
-10.679650 31.246069 -3.259089
-10.548943 31.266325 -3.100714
-10.562366 31.254677 -3.231761
-10.878558 31.212837 -3.027610
-10.362998 31.268152 -3.461866
-10.377649 31.267931 -3.453948
-10.475447 31.257141 -3.510190
-10.468519 31.251791 -3.516212
-10.401849 31.273407 -3.304387
-10.549802 31.239933 -3.442948
-10.856716 31.230778 -2.967754
-10.488673 31.256241 -3.372693
-10.701447 31.230635 -3.286437
-10.557100 31.271683 -3.007689
-10.688976 31.262356 -3.039893
-10.490926 31.268785 -3.250820
-10.900331 31.217169 -3.087760
-10.813015 31.244274 -2.906223
-10.470966 31.254911 -3.419319
-10.798308 31.230192 -3.063481
-10.658299 31.235958 -3.214282
-10.722518 31.232794 -3.299436
-10.584914 31.240881 -3.451586
-10.603044 31.259661 -3.148241
-10.611805 31.242350 -3.274362
-10.416039 31.257816 -3.504249
-10.534123 31.270084 -3.078362
-10.427669 31.253372 -3.494907
-10.521742 31.242744 -3.550826
-10.515428 31.239294 -3.556922
-10.455014 31.260912 -3.347312
-10.600059 31.234673 -3.485979
-10.896849 31.213081 -3.009481
-10.535398 31.240633 -3.413908
-10.398793 31.269524 -3.431359
-10.747633 31.221376 -3.331016
-10.732982 31.243483 -3.079718
-10.611004 31.259842 -3.054861
-10.352277 31.275431 -3.504245
-10.410311 31.272160 -3.271476
-10.545321 31.260090 -3.293894
-10.858283 31.234240 -2.951547
-10.519194 31.239927 -3.459001
-10.382607 31.271791 -3.480943
-10.764935 31.218662 -3.338341
-10.846459 31.224476 -3.108826
-10.633669 31.234083 -3.492519
-10.708082 31.228701 -3.258640
-10.662346 31.235979 -3.316568
-10.650218 31.244907 -3.190895
-10.467583 31.245939 -3.544533
-10.479228 31.243559 -3.536051
-10.587446 31.259554 -3.123548
-10.570481 31.233877 -3.590900
-10.811604 31.245590 -2.889461
-10.560692 31.226265 -3.597760
-10.424100 31.268871 -3.323329
-10.511384 31.255749 -3.391155
-10.643983 31.222071 -3.526982
-10.584260 31.229607 -3.454523
-10.455747 31.262131 -3.473557
-10.800227 31.226786 -3.377432
-10.782763 31.236225 -3.124074
-10.404704 31.262276 -3.542921
-10.666302 31.252844 -3.100814
-10.595213 31.247690 -3.334305
-10.472507 31.268204 -3.316952
-10.898705 31.215427 -2.992450
-10.579859 31.245993 -3.502507
-10.435052 31.260700 -3.520479
-10.888874 31.210346 -3.147727
-10.676834 31.219677 -3.532043
-10.758826 31.228411 -3.304829
-10.713201 31.230553 -3.358811
-10.700597 31.237484 -3.234466
-10.521894 31.242605 -3.585154
-10.641259 31.253080 -3.168264
-10.530049 31.233999 -3.576576
-10.616833 31.224745 -3.630482
-10.858520 31.236074 -2.934654
-10.609015 31.220667 -3.638111
-10.558562 31.240070 -3.430178
-10.479223 31.257839 -3.366160
-10.690789 31.213785 -3.568005
-10.381763 31.271959 -3.489015
-10.639677 31.233147 -3.498379
-10.340633 31.275732 -3.544800
-10.504120 31.246124 -3.511010
-10.846782 31.223740 -3.420998
-10.384251 31.268415 -3.505624
-10.830737 31.226473 -3.166293
-10.457750 31.251015 -3.581670
-10.644672 31.236498 -3.374133
-10.720881 31.248165 -3.147009
-10.527794 31.258221 -3.358417
-10.626320 31.232634 -3.541772
-10.484478 31.245377 -3.558589
-10.794258 31.200911 -3.339907
-10.754841 31.212549 -3.395374
-10.749770 31.228313 -3.278747
-10.567595 31.227444 -3.622940
-10.585597 31.234459 -3.617345
-10.689034 31.238153 -3.210130
-10.899537 31.217094 -2.974768
-10.609383 31.230507 -3.470700
-10.535741 31.251652 -3.407773
-10.435226 31.257420 -3.527484
-10.677827 31.208912 -3.534845
-10.388049 31.252747 -3.580420
-10.559161 31.240456 -3.551387
-10.440591 31.258198 -3.544114
-10.510058 31.240009 -3.619800
-10.695496 31.226934 -3.414654
-10.578576 31.244535 -3.397217
-10.767898 31.231434 -3.187394
-10.666588 31.210920 -3.576780
-10.536496 31.235483 -3.597540
-10.857796 31.226740 -3.391684
-10.790812 31.210470 -3.316092
-10.618764 31.222036 -3.661589
-10.628294 31.217127 -3.654564
-10.740628 31.232454 -3.252989
-11.028964 31.234781 -2.958657
-10.584422 31.236589 -3.445260
-10.659772 31.222151 -3.510639
-10.490230 31.247623 -3.566139
-10.606362 31.225914 -3.587637
-10.446527 31.247110 -3.618311
-10.491520 31.243492 -3.580687
-10.560900 31.231586 -3.657551
-10.741067 31.213932 -3.451891
-10.814336 31.216011 -3.225792
-10.634069 31.239712 -3.439033
-10.584152 31.221786 -3.635232
-10.784351 31.213755 -3.289999
-10.703678 31.206556 -3.547144
-10.639772 31.231863 -3.485672
-10.542989 31.236549 -3.602077
-10.655849 31.215849 -3.624692
-10.501389 31.237406 -3.655561
-10.543375 31.231628 -3.617372
-10.606133 31.213497 -3.693030
-10.685961 31.231976 -3.477438
-10.683334 31.211189 -3.520417
-10.595156 31.225630 -3.638798
-10.554768 31.228224 -3.691573
-10.596772 31.224506 -3.654244
-10.731500 31.214836 -3.512952
-10.642216 31.211170 -3.673639
