# .PCD v0.7 - Point Cloud Data file format
VERSION 0.7
FIELDS x y z
SIZE 4 4 4
TYPE F F F
COUNT 1 1 1
WIDTH 23
HEIGHT 1
VIEWPOINT 0 0 0 1
POINTS 23
DATA ascii
-22.300756 30.567112 -5.414845
-21.525736 30.233795 -5.725395
-22.260372 30.561737 -5.433326
-21.561943 30.248125 -5.795879
-22.209711 30.574661 -5.393968
-21.436468 30.231367 -5.713369
-21.504477 30.199953 -5.680671
-22.171354 30.573008 -5.406761
-21.451273 30.237684 -5.789819
-21.485750 30.181238 -5.734879
-22.116879 30.580557 -5.374564
-21.404352 30.256844 -5.683289
-21.416603 30.199150 -5.672169
-22.229698 30.540085 -5.379283
-22.071718 30.575514 -5.386222
-21.461473 30.288612 -5.748139
-22.156057 30.568794 -5.480796
-22.000576 30.554131 -5.422822
-21.474627 30.416435 -5.750680
-21.485975 30.348339 -5.700930
-22.042475 30.564264 -5.475070
-21.805149 30.580860 -5.549678
-21.948034 30.567261 -5.464212
