# .PCD v0.7 - Point Cloud Data file format
VERSION 0.7
FIELDS x y z
SIZE 4 4 4
TYPE F F F
COUNT 1 1 1
WIDTH 18
HEIGHT 1
VIEWPOINT 0 0 0 1
POINTS 18
DATA ascii
-20.804428 32.118793 -5.476290
-20.730427 31.784624 -5.718608
-20.711704 31.734232 -5.666862
-20.664726 31.888876 -5.657840
-20.740780 31.762056 -5.728468
-20.652372 31.875221 -5.589193
-20.713581 31.880154 -5.676035
-20.677134 31.887026 -5.661058
-20.741724 31.759834 -5.727870
-20.647358 32.044640 -5.592961
-20.721249 32.052757 -5.674552
-20.823448 32.479424 -5.584295
-20.678322 31.889244 -5.660289
-20.749466 31.780235 -5.731925
-20.650429 32.240582 -5.585234
-20.728107 32.347969 -5.639281
-20.685959 31.921200 -5.661875
-20.612732 31.854382 -5.690046
