# .PCD v0.7 - Point Cloud Data file format
VERSION 0.7
FIELDS x y z
SIZE 4 4 4
TYPE F F F
COUNT 1 1 1
WIDTH 43
HEIGHT 1
VIEWPOINT 0 0 0 1
POINTS 43
DATA ascii
-19.176888 31.744350 -7.286496
-19.231024 31.782764 -7.317689
-19.207338 31.785440 -7.326092
-19.217745 31.815678 -7.308253
-19.179800 31.834293 -7.291525
-19.033043 31.778843 -7.203182
-19.132820 31.841639 -7.283988
-19.082293 31.846424 -7.268092
-19.063084 31.832458 -7.225609
-18.934420 31.780069 -7.093723
-19.015327 31.843098 -7.199811
-18.887123 31.792120 -7.119330
-18.973421 31.849665 -7.191433
-18.936876 31.859844 -7.180033
-18.927631 31.851301 -7.153435
-18.880527 31.857679 -7.124713
-18.840450 31.863363 -7.113913
-18.819441 31.879299 -7.108871
-18.816622 31.875469 -7.095330
-18.619547 31.812206 -6.893538
-18.721169 31.879194 -6.931733
-18.579264 31.827698 -6.901357
-18.681282 31.889540 -6.875294
-18.535391 31.834726 -6.916511
-18.703060 31.905474 -6.874462
-18.610550 31.884239 -6.893174
-18.488560 31.843224 -6.926849
-18.682390 31.918486 -6.856296
-18.615444 31.896423 -6.879721
-18.586983 31.908857 -6.907854
-18.533060 31.899635 -6.934029
-18.546494 31.918184 -6.923499
-18.504225 31.905121 -6.919830
-18.616573 31.968475 -6.901005
-18.501789 31.929218 -6.933712
-18.472088 31.912180 -6.912890
-18.599733 31.966841 -6.876119
-18.481644 31.916025 -6.906345
-18.583273 31.987139 -6.908834
-18.479319 31.945229 -6.905704
-18.555521 32.004910 -6.929410
-18.483637 31.970222 -6.909510
-18.511992 32.013676 -6.938021
