# .PCD v0.7 - Point Cloud Data file format
VERSION 0.7
FIELDS x y z
SIZE 4 4 4
TYPE F F F
COUNT 1 1 1
WIDTH 15
HEIGHT 1
VIEWPOINT 0 0 0 1
POINTS 15
DATA ascii
-19.203566 31.593042 -5.514916
-19.187572 31.595436 -5.544899
-19.220018 31.561491 -5.282069
-19.168571 31.599752 -5.419752
-19.121260 31.605839 -5.475542
-19.114220 31.614670 -5.493064
-19.115566 31.625813 -5.509068
-19.114950 31.636526 -5.538595
-19.191931 31.633728 -5.362536
-19.181963 31.672195 -5.400260
-19.137823 31.675381 -5.459889
-19.133211 31.687351 -5.478531
-19.125214 31.697021 -5.496681
-19.196493 31.701052 -5.344409
-19.194023 31.745668 -5.378986
