# .PCD v0.7 - Point Cloud Data file format
VERSION 0.7
FIELDS x y z
SIZE 4 4 4
TYPE F F F
COUNT 1 1 1
WIDTH 55
HEIGHT 1
VIEWPOINT 0 0 0 1
POINTS 55
DATA ascii
-14.554665 33.640903 -3.238620
-14.558780 33.666885 -3.297474
-14.548197 33.601654 -3.287932
-14.533466 33.693989 -3.215069
-14.548471 33.615234 -3.219715
-14.559431 33.781174 -3.234040
-14.542703 33.556477 -3.285925
-14.551142 33.711914 -3.220968
-14.500857 33.725063 -3.205335
-14.519654 33.650402 -3.204073
-14.590536 34.010857 -3.243790
-14.524853 33.818565 -3.223193
-14.612304 33.949162 -3.254650
-14.543214 33.655216 -3.222616
-14.518805 33.743355 -3.209280
-14.514765 33.621761 -3.206304
-14.484766 33.672153 -3.198416
-14.556757 34.055061 -3.228190
-14.587848 34.173550 -3.306145
-14.493729 33.867050 -3.203620
-14.616850 33.945511 -3.258810
-14.578201 33.988991 -3.238173
-14.583333 34.039833 -3.304974
-14.511700 33.684135 -3.209532
-14.486173 33.778072 -3.195114
-14.480535 33.644440 -3.195790
-14.578403 33.942047 -3.309503
-14.491851 34.017464 -3.260685
-14.582047 34.326683 -3.233881
-14.579873 33.982544 -3.241435
-14.542531 34.030064 -3.220717
-14.479046 33.711212 -3.196991
-14.581311 34.183792 -3.231474
-14.576686 34.069370 -3.239046
-14.446477 34.029831 -3.260104
-14.535996 34.377590 -3.216938
-14.541254 34.016907 -3.224370
-14.475314 33.981133 -3.255882
-14.537153 34.218834 -3.219973
-14.540094 34.112698 -3.219856
-14.460395 34.332088 -3.249616
-14.470178 33.959881 -3.262612
-14.492969 34.257523 -3.204039
-14.497957 34.143345 -3.206767
-14.535481 33.630703 -3.220576
-14.507203 33.621067 -3.205694
-14.500258 33.646141 -3.213828
-14.572324 33.870144 -3.316800
-14.581297 34.002625 -3.247489
-14.570656 33.985584 -3.249923
-14.540072 34.030781 -3.226031
-14.539594 34.032009 -3.231349
-14.499142 34.052048 -3.215589
-14.463428 33.963657 -3.273618
-14.436693 34.009247 -3.244149
