# .PCD v0.7 - Point Cloud Data file format
VERSION 0.7
FIELDS x y z
SIZE 4 4 4
TYPE F F F
COUNT 1 1 1
WIDTH 14
HEIGHT 1
VIEWPOINT 0 0 0 1
POINTS 14
DATA ascii
-12.364951 32.461052 -2.400306
-12.355496 32.427433 -2.393239
-12.349909 32.392815 -2.390638
-12.344312 32.358204 -2.388029
-12.339782 32.323593 -2.387615
-12.335520 32.289318 -2.385239
-12.330034 32.254879 -2.381632
-12.332279 32.218441 -2.386965
-12.328968 32.183861 -2.383642
-12.332841 32.146610 -2.393162
-12.332800 32.111866 -2.392308
-12.336345 32.075790 -2.397870
-12.339020 32.040211 -2.403388
-12.345832 32.003975 -2.411418
