# .PCD v0.7 - Point Cloud Data file format
VERSION 0.7
FIELDS x y z
SIZE 4 4 4
TYPE F F F
COUNT 1 1 1
WIDTH 52
HEIGHT 1
VIEWPOINT 0 0 0 1
POINTS 52
DATA ascii
-4.009427 35.473427 0.696355
-4.007567 35.415855 0.682049
-3.490471 35.415062 2.168777
-3.814553 35.407841 1.420816
-4.003111 35.380596 0.753985
-3.480652 35.403389 2.165253
-3.154848 35.279945 2.980430
-3.845998 35.429749 1.402919
-3.813340 35.401100 1.409577
-3.130726 35.149166 3.001579
-3.806289 35.339119 1.419071
-3.793093 35.250435 1.432917
-3.987563 35.226486 0.712013
-3.964849 35.126122 0.703058
-3.999821 35.122231 0.724535
-3.986715 35.162460 0.712057
-3.999954 35.142502 0.719008
-3.967246 35.038319 0.713017
-3.974149 35.086273 0.755994
-4.035422 35.098072 0.711528
-4.016092 35.129288 0.718550
-4.034688 35.118999 0.712698
-4.005391 35.136639 0.712728
-3.760509 35.058598 1.431475
-3.564265 34.818047 1.839869
-3.760555 34.966877 1.434766
-4.070119 35.074898 0.702793
-4.053996 35.106888 0.709857
-4.074659 35.157566 0.719993
-4.070224 35.096210 0.703587
-4.042922 35.114075 0.711024
-3.741348 34.787365 1.441427
-4.061534 35.043221 0.699899
-4.079429 35.087101 0.712881
-4.087239 35.095284 0.691165
-3.951533 34.769497 0.730086
-3.996521 34.666172 0.737170
-3.977163 34.699139 0.735355
-3.993047 34.688290 0.736077
-3.019125 33.903442 3.034065
-3.943043 34.615330 0.741176
-3.938091 34.545769 0.723251
-3.450523 34.239197 1.939619
-4.037092 34.641491 0.734713
-4.033253 34.729046 0.711533
-3.523708 34.180229 1.895679
-4.020448 34.676044 0.732648
-4.036445 34.666286 0.729396
-3.479561 34.061691 1.944789
-4.009377 34.677376 0.741255
-4.027008 34.557560 0.742073
-4.019955 34.476315 0.739496
