# .PCD v0.7 - Point Cloud Data file format
VERSION 0.7
FIELDS x y z
SIZE 4 4 4
TYPE F F F
COUNT 1 1 1
WIDTH 28
HEIGHT 1
VIEWPOINT 0 0 0 1
POINTS 28
DATA ascii
-15.260241 44.439442 -3.751232
-15.284536 44.636448 -3.720229
-15.267390 44.458752 -3.715242
-15.275974 44.595089 -3.712622
-15.291148 44.738308 -3.703911
-15.281114 44.711647 -3.761374
-15.276484 44.529972 -3.761440
-15.271617 44.676582 -3.757291
-15.272191 44.536972 -3.724058
-15.285348 44.820965 -3.744388
-15.223114 44.670311 -3.711051
-15.287654 44.893105 -3.780310
-15.277839 44.782051 -3.719708
-15.279431 44.687981 -3.743295
-15.294857 44.837688 -3.759265
-15.300958 44.871292 -3.714674
-15.171254 45.094673 -3.744621
-15.173297 45.161022 -3.738122
-15.301391 44.938797 -3.756391
-15.292503 45.054516 -3.744278
-15.282717 45.131908 -3.737571
-15.296670 45.010166 -3.796921
-15.323681 45.091366 -3.769819
-15.325830 45.159637 -3.759031
-15.209692 45.372929 -3.748718
-15.321183 45.224781 -3.792534
-15.280497 45.373524 -3.753417
-15.337811 45.386543 -3.762937
