# .PCD v0.7 - Point Cloud Data file format
VERSION 0.7
FIELDS x y z
SIZE 4 4 4
TYPE F F F
COUNT 1 1 1
WIDTH 17
HEIGHT 1
VIEWPOINT 0 0 0 1
POINTS 17
DATA ascii
1.443832 24.449224 0.585375
1.266353 24.621048 1.099533
1.415936 24.505222 0.701584
1.448531 24.453489 0.570604
1.315611 24.485382 1.019321
1.281335 24.542402 1.072709
1.367658 24.544096 0.815902
1.261288 24.621815 1.128008
1.448342 24.214422 0.633829
1.278359 24.369057 1.125528
1.418889 24.270641 0.742413
1.485472 24.301638 0.611053
1.251625 24.491705 1.178540
1.291927 24.304556 1.093839
1.373113 24.320295 0.851334
1.243470 24.388382 1.249494
1.265976 24.357109 1.140908
