# .PCD v0.7 - Point Cloud Data file format
VERSION 0.7
FIELDS x y z
SIZE 4 4 4
TYPE F F F
COUNT 1 1 1
WIDTH 105
HEIGHT 1
VIEWPOINT 0 0 0 1
POINTS 105
DATA ascii
-15.764931 44.051815 -3.775810
-15.765085 44.147305 -3.767180
-15.735572 44.563633 -3.827312
-15.802780 44.141159 -3.741511
-15.807377 44.123032 -3.742182
-16.517044 43.502361 -3.230342
-15.843952 44.084557 -3.707315
-15.626856 43.996307 -4.154343
-16.529202 43.550190 -3.298851
-16.528862 43.574688 -3.309455
-16.488604 43.592846 -3.227389
-15.472849 44.393265 -4.302619
-15.621748 44.914429 -3.970533
-16.506886 43.642437 -3.255426
-15.613748 44.940338 -3.980536
-16.558420 43.585186 -3.263311
-15.605204 44.993969 -4.033777
-16.661186 43.516308 -3.232967
-15.598715 45.016541 -4.041640
-15.494743 44.997154 -4.294349
-15.560519 45.112698 -4.192759
-15.640842 44.940216 -3.945018
-15.548504 45.126228 -4.226228
-15.603848 45.051350 -4.086220
-15.508888 44.972855 -4.227160
-16.555330 43.657722 -3.248731
-15.583280 45.090775 -4.099922
-15.480824 45.076176 -4.347646
-15.532174 44.930965 -4.229024
-16.533037 43.769642 -3.264482
-15.541048 45.188679 -4.248268
-15.495017 45.020855 -4.383658
-15.539687 45.190067 -4.277358
-15.584101 45.129433 -4.145269
-15.626372 45.060108 -4.026643
-15.505434 45.038750 -4.276075
-15.474892 45.140484 -4.394479
-15.572950 45.157948 -4.153190
-15.518344 45.014050 -4.285855
-16.800377 43.502380 -3.160622
-15.526710 45.257603 -4.300180
-15.538853 44.955994 -4.202962
-15.529144 45.256252 -4.327806
-15.571147 45.198101 -4.197156
-15.505715 45.097843 -4.321409
-15.566120 45.217335 -4.200045
-15.510606 45.083790 -4.336955
-15.598307 45.164234 -4.114851
-15.554483 45.271919 -4.329614
-15.511973 45.057766 -4.263489
-15.550590 45.278862 -4.360861
-15.598582 45.198814 -4.132555
-15.561217 45.260094 -4.244762
-15.488978 45.177372 -4.371916
-15.564235 45.268681 -4.243303
-15.506257 45.148827 -4.383768
-15.584122 45.234142 -4.165337
-15.596302 45.269382 -4.351789
-15.503025 45.132805 -4.312476
-15.632931 45.020218 -4.474771
-15.533825 45.129101 -4.297913
-15.578897 45.273811 -4.185239
-15.608611 45.259094 -4.379292
-15.590362 45.274147 -4.272763
-15.513014 45.202549 -4.402802
-15.597994 45.276787 -4.268414
-15.526887 45.178707 -4.417529
-15.582582 45.287449 -4.207173
-15.646255 45.260258 -4.373152
-15.495708 45.201427 -4.357201
-15.518922 45.203197 -4.345566
-15.618432 45.274727 -4.204611
-15.649812 45.260746 -4.404305
-15.634765 45.270107 -4.293491
-15.597346 45.267097 -4.137083
-15.646481 45.267914 -4.285548
-15.619319 45.271080 -4.114118
-15.597092 45.143463 -4.432261
-15.633948 45.274982 -4.220732
-15.493836 45.260895 -4.397615
-15.511363 45.266773 -4.388178
-15.665868 45.268074 -4.220343
-15.626757 45.283104 -4.159412
-15.677631 45.269402 -4.314945
-15.665997 45.264549 -4.126318
-15.637821 45.150291 -4.458687
-15.507440 45.228634 -4.345280
-15.539287 45.253059 -4.298784
-15.675213 45.277603 -4.238664
-15.544077 45.253735 -4.414722
-15.543056 45.279331 -4.413309
-15.713982 45.261288 -4.235356
-15.680017 45.273319 -4.170114
-15.703629 45.270889 -4.144297
-15.552244 45.288406 -4.329812
-15.509845 45.284248 -4.382100
-15.724404 45.272655 -4.254371
-15.592599 45.248928 -4.432557
-15.588289 45.276146 -4.431895
-15.751166 45.265205 -4.155775
-15.729343 45.269348 -4.182988
-15.613716 45.264900 -4.338283
-15.552893 45.288586 -4.401423
-15.657001 45.263081 -4.354769
-15.606053 45.281883 -4.415661
