# .PCD v0.7 - Point Cloud Data file format
VERSION 0.7
FIELDS x y z
SIZE 4 4 4
TYPE F F F
COUNT 1 1 1
WIDTH 48
HEIGHT 1
VIEWPOINT 0 0 0 1
POINTS 48
DATA ascii
-15.122515 44.965321 -3.617046
-15.089421 44.716274 -3.632850
-15.110226 45.021561 -3.642627
-15.095834 44.637806 -3.626533
-15.153724 44.958714 -3.652107
-15.181462 44.584370 -3.600673
-15.181263 44.938309 -3.627675
-15.170690 44.546795 -3.624986
-15.091086 44.707756 -3.630319
-15.119266 45.029972 -3.635708
-15.228562 44.555492 -3.627029
-15.226723 44.874096 -3.640670
-15.236300 44.887562 -3.634848
-15.236375 44.482944 -3.639102
-15.119910 44.716801 -3.656147
-15.129210 45.052696 -3.673122
-15.182534 44.584099 -3.601683
-15.178332 44.974388 -3.635048
-15.117770 45.016941 -3.626791
-15.211607 44.594128 -3.631758
-15.220078 44.938255 -3.636699
-15.107291 44.768848 -3.648679
-15.235095 44.550129 -3.623016
-15.238276 44.919655 -3.635078
-15.124845 45.074772 -3.667720
-15.165617 44.568840 -3.600785
-15.166703 44.983589 -3.637568
-15.695735 43.946941 -2.888483
-15.268248 44.908115 -3.653147
-15.118552 45.000431 -3.617874
-15.190335 44.669132 -3.630043
-15.208076 44.977005 -3.637755
-15.112401 44.793171 -3.625451
-15.225174 44.526440 -3.616370
-15.233002 44.924622 -3.633273
-15.132280 45.079384 -3.653000
-15.152366 44.549850 -3.599866
-15.245755 44.631561 -3.646390
-15.157121 44.995483 -3.644332
-15.258457 44.947456 -3.650631
-15.164324 44.760296 -3.639010
-15.270513 44.917828 -3.660455
-15.205239 45.006931 -3.635181
-15.220816 44.497654 -3.608973
-15.229680 44.928207 -3.632175
-15.233687 44.694660 -3.634673
-15.254032 44.980717 -3.645950
-15.270497 44.923851 -3.657893
