# .PCD v0.7 - Point Cloud Data file format
VERSION 0.7
FIELDS x y z
SIZE 4 4 4
TYPE F F F
COUNT 1 1 1
WIDTH 1492
HEIGHT 1
VIEWPOINT 0 0 0 1
POINTS 1492
DATA ascii
-13.946499 48.497375 -4.777867
-14.341099 48.489719 -4.415918
-14.143149 48.486076 -4.425036
-14.197352 48.491566 -4.360252
-14.240593 48.497215 -4.387639
-14.274950 48.489201 -4.414494
-14.169362 48.500015 -4.526356
-13.974022 48.506458 -4.676171
-14.309515 48.486229 -4.442061
-13.869387 48.503063 -4.848123
-13.878755 48.500366 -4.838022
-14.048633 48.496471 -4.719160
-14.043636 48.508961 -4.514174
-14.325678 48.499359 -4.346975
-13.954788 48.498070 -4.817330
-14.006334 48.503860 -4.693189
-13.884343 48.512375 -4.762247
-14.021352 48.505047 -4.611543
-14.085494 48.506729 -4.540176
-13.947936 48.491169 -4.820307
-13.921880 48.514763 -4.715496
-14.119623 48.497730 -4.562801
-13.831965 48.510586 -4.808630
-14.169306 48.493053 -4.571664
-13.852540 48.511967 -4.784861
-14.036827 48.498547 -4.713080
-14.154128 48.494759 -4.586134
-14.145770 48.502991 -4.461839
-13.999785 48.516781 -4.540599
-13.836803 48.515583 -4.722254
-13.917954 48.514214 -4.631433
-13.899068 48.514557 -4.652341
-14.302182 48.490143 -4.288805
-13.910279 48.505833 -4.779407
-14.025136 48.508564 -4.651813
-13.794375 48.518116 -4.764882
-13.827874 48.517174 -4.725987
-13.880631 48.497120 -4.874802
-14.128184 48.508942 -4.391507
-13.925029 48.502159 -4.757886
-13.883649 48.502663 -4.868382
-14.321311 48.496197 -4.391690
-14.179236 48.495708 -4.332440
-14.251003 48.475117 -4.399523
-14.215647 48.477219 -4.374098
-13.953912 48.506927 -4.654038
-14.147726 48.499729 -4.505683
-14.283706 48.469433 -4.429957
-13.848801 48.500587 -4.828818
-13.857453 48.506138 -4.818033
-14.025990 48.494350 -4.700621
-14.303381 48.495121 -4.327737
-14.024379 48.506222 -4.490610
-13.986398 48.505314 -4.671055
-13.932809 48.499897 -4.797360
-13.863529 48.517036 -4.740126
-14.000562 48.505630 -4.590134
-14.065369 48.507191 -4.516638
-13.926796 48.501984 -4.799616
-13.900593 48.512402 -4.695502
-14.100353 48.503117 -4.539248
-13.810470 48.515373 -4.787227
-13.830873 48.515766 -4.763462
-14.126157 48.506401 -4.438293
-14.133517 48.496326 -4.564732
-14.147144 48.493877 -4.550300
-13.979479 48.520321 -4.517763
-14.014541 48.490273 -4.694529
-14.282272 48.487507 -4.267392
-13.878039 48.522293 -4.628105
-13.816285 48.522217 -4.697295
-13.897652 48.513695 -4.607885
-13.889829 48.508400 -4.757985
-14.003836 48.510262 -4.631123
-13.773556 48.518719 -4.742043
-14.107413 48.505455 -4.370806
-13.806735 48.515804 -4.704571
-13.858993 48.500919 -4.854820
-13.903352 48.510017 -4.735789
-13.862024 48.502403 -4.849103
-14.296086 48.491463 -4.372519
-14.237273 48.496746 -4.365975
-14.163742 48.511555 -4.296800
-14.200375 48.494045 -4.341285
-14.270363 48.488972 -4.398523
-14.127265 48.502277 -4.482863
-13.933063 48.515644 -4.629803
-13.835657 48.504890 -4.798754
-13.825892 48.513744 -4.806039
-14.004739 48.509636 -4.465642
-14.275881 48.476593 -4.317082
-14.004627 48.508232 -4.676409
-13.842902 48.518620 -4.718700
-13.965232 48.512058 -4.648242
-13.910999 48.502708 -4.777383
-13.978920 48.505356 -4.569447
-14.044921 48.505680 -4.494515
-13.904799 48.507874 -4.778938
-13.879418 48.519154 -4.672681
-14.081440 48.506405 -4.516389
-13.959851 48.523743 -4.494202
-13.788800 48.519173 -4.765822
-14.105520 48.507961 -4.415472
-13.810077 48.516365 -4.742037
-14.113400 48.500847 -4.541905
-14.265331 48.498539 -4.238146
-13.995087 48.502804 -4.670977
-14.124660 48.492733 -4.530349
-13.856410 48.517960 -4.608111
-13.795656 48.519737 -4.675158
-13.877196 48.512196 -4.585750
-13.981703 48.507030 -4.611858
-13.867807 48.514290 -4.735889
-14.089925 48.517609 -4.340850
-13.785212 48.520588 -4.681748
-13.836329 48.502876 -4.835562
-13.881670 48.517876 -4.713687
-13.839514 48.509403 -4.829137
-14.218177 48.499039 -4.341715
-14.276279 48.497940 -4.346871
-14.142809 48.503010 -4.275396
-14.181579 48.498310 -4.314191
-14.251425 48.496311 -4.373559
-13.913330 48.509956 -4.609065
-14.106121 48.504948 -4.460761
-13.813123 48.511894 -4.777372
-13.804605 48.511391 -4.786038
-13.985271 48.509972 -4.439959
-14.260747 48.498463 -4.282150
-13.982988 48.507961 -4.655722
-13.944799 48.510559 -4.627523
-13.890022 48.510448 -4.755972
-13.958558 48.517025 -4.543787
-13.821045 48.521431 -4.695887
-14.024135 48.502197 -4.472396
-13.857219 48.524055 -4.650584
-14.060958 48.508957 -4.492150
-13.881248 48.513023 -4.758290
-14.085052 48.510509 -4.392643
-13.938247 48.515335 -4.474916
-14.093450 48.506351 -4.519070
-14.238089 48.472870 -4.231717
-13.766941 48.521992 -4.743005
-13.787537 48.519302 -4.719943
-13.835928 48.520523 -4.585266
-13.973260 48.505611 -4.649588
-13.857910 48.513527 -4.561466
-14.103486 48.499466 -4.506132
-14.068663 48.511166 -4.321565
-13.846162 48.514023 -4.715191
-13.959664 48.512909 -4.588353
-13.813817 48.509876 -4.815592
-13.859003 48.515762 -4.693718
-13.816832 48.511360 -4.808463
-14.199232 48.502319 -4.316036
-14.163293 48.501469 -4.286375
-14.125136 48.510109 -4.243324
-14.229320 48.488998 -4.355013
-14.254920 48.503674 -4.321254
-13.892348 48.509563 -4.586235
-14.084788 48.506634 -4.437247
-13.782787 48.514206 -4.766046
-13.790416 48.517910 -4.755989
-13.965269 48.511417 -4.413579
-14.240574 48.502968 -4.255090
-13.923970 48.515209 -4.603988
-13.937385 48.519703 -4.520257
-13.959800 48.506947 -4.635067
-13.800097 48.516979 -4.675167
-13.867170 48.511410 -4.735304
-14.004988 48.508564 -4.446002
-13.835759 48.520710 -4.630584
-14.039868 48.503506 -4.472861
-13.859282 48.510788 -4.739011
-13.917024 48.522076 -4.449265
-14.064354 48.516132 -4.366286
-14.072325 48.504959 -4.497667
-13.764780 48.529381 -4.696438
-13.952150 48.504230 -4.629591
-14.049613 48.522575 -4.291635
-13.836583 48.511162 -4.538637
-14.081286 48.504353 -4.482638
-13.824477 48.517822 -4.692373
-13.938174 48.513618 -4.566243
-13.790621 48.512939 -4.795631
-13.836446 48.522758 -4.670919
-14.179624 48.501656 -4.291780
-13.793427 48.521561 -4.787096
-14.213048 48.503975 -4.324334
-14.144001 48.502777 -4.260696
-14.104993 48.506489 -4.217660
-13.871196 48.508183 -4.563405
-14.063093 48.510410 -4.413031
-14.232366 48.506577 -4.296364
-13.758995 48.526501 -4.742564
-13.767747 48.515797 -4.736012
-13.944734 48.513969 -4.386499
-14.220568 48.508457 -4.228021
-13.915525 48.522503 -4.497444
-13.902329 48.510872 -4.582583
-13.937119 48.508888 -4.614397
-13.984840 48.509022 -4.421037
-13.844979 48.516315 -4.713204
-14.019705 48.508022 -4.447195
-13.813392 48.520561 -4.607775
-13.896032 48.521675 -4.426429
-13.835711 48.515938 -4.716942
-14.043203 48.514736 -4.343464
-14.029987 48.521919 -4.267363
-14.051201 48.503571 -4.476262
-13.930285 48.511097 -4.606077
-14.058576 48.506279 -4.459151
-13.801579 48.522846 -4.669577
-13.915110 48.517651 -4.543458
-13.813737 48.524704 -4.648825
-14.161276 48.512936 -4.261137
-13.766725 48.516125 -4.774976
-13.772408 48.503941 -4.771317
-14.191587 48.500603 -4.302943
-14.124201 48.501129 -4.235025
-14.084086 48.493881 -4.196954
-13.849488 48.511971 -4.539171
-14.040905 48.511230 -4.390233
-14.206841 48.495808 -4.279303
-13.924514 48.518490 -4.357996
-14.196424 48.497440 -4.210926
-13.893030 48.517300 -4.476760
-13.880644 48.514664 -4.559763
-13.964437 48.516621 -4.391836
-13.822124 48.517281 -4.692527
-13.913721 48.510952 -4.591619
-13.998558 48.506634 -4.424371
-14.022666 48.521343 -4.317093
-13.813045 48.513824 -4.696966
-14.008872 48.529633 -4.237470
-14.030567 48.505135 -4.453430
-13.908096 48.511929 -4.583272
-13.893084 48.519470 -4.520646
-14.035501 48.510303 -4.434962
-14.138703 48.498604 -4.244708
-14.171147 48.499077 -4.280820
-13.742994 48.520294 -4.754312
-13.747366 48.525593 -4.746447
-14.103760 48.495537 -4.212190
-14.063457 48.487305 -4.172708
-14.019145 48.519070 -4.362478
-14.185779 48.503513 -4.250840
-13.870618 48.521210 -4.451832
-14.176505 48.507977 -4.178903
-13.858642 48.512417 -4.537654
-13.942777 48.512272 -4.369016
-13.799626 48.516151 -4.672544
-13.977689 48.511272 -4.398006
-13.890129 48.516094 -4.568136
-14.000431 48.522163 -4.291463
-13.987903 48.525158 -4.215340
-13.789084 48.525127 -4.673483
-14.009553 48.508789 -4.428484
-13.886114 48.509686 -4.562576
-13.869336 48.519562 -4.497867
-14.013427 48.516171 -4.408626
-14.118114 48.492031 -4.223289
-14.153124 48.512325 -4.248754
-14.082664 48.486008 -4.190780
-13.996275 48.515949 -4.339688
-14.165335 48.515156 -4.218122
-14.155342 48.506569 -4.154671
-13.922028 48.517899 -4.339814
-13.956858 48.511852 -4.373755
-13.866894 48.519142 -4.545346
-13.979636 48.531849 -4.260144
-13.988087 48.505424 -4.407075
-13.863730 48.513596 -4.539061
-13.989879 48.513176 -4.386556
-14.098743 48.497398 -4.192657
-14.130511 48.502056 -4.230204
-14.062037 48.479431 -4.166533
-13.974570 48.532898 -4.306269
-14.137779 48.531879 -4.109869
-13.935263 48.516613 -4.345277
-13.842449 48.519356 -4.521872
-13.966327 48.513268 -4.379312
-14.078410 48.496853 -4.166281
-13.966397 48.519287 -4.358829
-13.951400 48.523743 -4.285597
-13.944308 48.511009 -4.355789
-13.942145 48.516415 -4.336061
-14.677681 48.377552 -5.694572
-14.669508 48.376015 -5.694001
-14.699398 48.378189 -5.622948
-14.649851 48.379490 -5.661855
-14.652042 48.394405 -5.670967
-14.697276 48.375420 -5.603230
-14.682714 48.365303 -5.659433
-14.679981 48.393879 -5.598540
-14.682787 48.362198 -5.653086
-14.625382 48.383869 -5.631905
-14.621134 48.387737 -5.635496
-14.722269 48.360729 -5.612932
-14.672696 48.382885 -5.575394
-14.761807 48.381050 -5.485038
-14.713244 48.356110 -5.579923
-14.757071 48.390068 -5.484394
-14.663123 48.380013 -5.636441
-14.651434 48.391884 -5.567258
-14.663198 48.376907 -5.630095
-14.607368 48.399303 -5.608888
-14.598827 48.395802 -5.608328
-14.706079 48.381943 -5.591990
-14.651286 48.391811 -5.550327
-14.738328 48.390362 -5.460711
-14.711890 48.396538 -5.649199
-14.726139 48.404022 -5.641899
-14.686725 48.360882 -5.552125
-14.746675 48.392891 -5.610537
-14.732696 48.398521 -5.457965
-14.640512 48.390182 -5.611389
-14.627563 48.399220 -5.540119
-14.639318 48.384247 -5.602952
-14.582541 48.401714 -5.578952
-14.680254 48.386589 -5.564885
-14.763616 48.376709 -5.483107
-14.575072 48.400055 -5.579078
-14.629371 48.401848 -5.524563
-14.759256 48.393330 -5.563759
-14.710391 48.391331 -5.433652
-14.783937 48.387001 -5.453122
-14.675195 48.385845 -5.613121
-14.695495 48.402409 -5.609938
-14.677987 48.390919 -5.536691
-14.715362 48.391415 -5.580705
-14.706699 48.402180 -5.430870
-14.613551 48.388916 -5.581493
-14.836626 48.401730 -5.310914
-14.604906 48.405323 -5.514376
-14.618979 48.395016 -5.578571
-14.551448 48.390007 -5.545623
-14.831892 48.392357 -5.298312
-14.733032 48.375107 -5.455389
-14.650345 48.384853 -5.535038
-14.546304 48.393005 -5.547113
-14.603508 48.402424 -5.496768
-14.725621 48.387188 -5.532565
-14.690073 48.402100 -5.410684
-14.757436 48.391773 -5.426735
-14.773384 48.388199 -5.484510
-14.652969 48.397987 -5.589470
-14.663618 48.397976 -5.578712
-14.646070 48.382416 -5.504777
-14.683187 48.389088 -5.551599
-14.677889 48.402283 -5.403124
-14.807150 48.401974 -5.286706
-14.528919 48.393017 -5.517772
-14.622352 48.381756 -5.507285
-14.710458 48.385284 -5.433163
-14.809993 48.402386 -5.273960
-14.810346 48.393177 -5.423924
-14.526298 48.401672 -5.522030
-14.832444 48.384293 -5.316870
-14.572824 48.392689 -5.466256
-14.705165 48.401039 -5.510293
-14.725698 48.405846 -5.579285
-14.658017 48.392624 -5.381605
-14.741927 48.385746 -5.457512
-14.733592 48.399117 -5.402419
-14.623571 48.395142 -5.560322
-14.638499 48.402496 -5.552302
-14.663618 48.403797 -5.530017
-14.851943 48.383430 -5.268578
-14.643701 48.389126 -5.372680
-14.783327 48.409321 -5.263803
-14.679337 48.380730 -5.405467
-14.779459 48.400791 -5.249072
-14.598136 48.387127 -5.481572
-14.783670 48.396969 -5.398952
-14.804597 48.389328 -5.293332
-14.549629 48.395836 -5.440534
-14.674900 48.397339 -5.481870
-14.691381 48.399834 -5.548808
-14.846813 48.397015 -5.328071
-14.668049 48.411472 -5.577388
-14.683594 48.407444 -5.558092
-14.723629 48.403282 -5.438022
-14.634519 48.397869 -5.358000
-14.695186 48.382668 -5.371340
-14.908725 48.394180 -5.101628
-14.929160 48.393314 -5.082245
-14.615341 48.409710 -5.527268
-14.624803 48.385372 -5.496121
-14.828304 48.391754 -5.245669
-14.623027 48.397923 -5.349726
-14.738650 48.385914 -5.236381
-14.758095 48.411396 -5.472200
-14.536675 48.390526 -5.498806
-14.538324 48.388145 -5.492435
-14.726878 48.400990 -5.484725
-14.527437 48.399902 -5.429609
-14.754864 48.397079 -5.372615
-14.761460 48.416210 -5.226057
-14.768942 48.379528 -5.269251
-14.665092 48.405602 -5.525236
-14.650875 48.403702 -5.457559
-14.819658 48.401924 -5.305224
-14.655277 48.406445 -5.531039
-14.639606 48.413551 -5.551036
-14.886323 48.401356 -5.242046
-14.695396 48.406349 -5.413081
-14.672753 48.389755 -5.348418
-14.878608 48.394562 -5.080966
-14.900773 48.395393 -5.058728
-14.580941 48.395565 -5.495412
-14.604503 48.396145 -5.474565
-14.813485 48.405598 -5.375351
-14.573895 48.393364 -5.429054
-14.916198 48.388863 -5.115128
-14.792828 48.382931 -5.220176
-14.713548 48.386372 -5.213521
-14.720621 48.399876 -5.443909
-14.702346 48.408466 -5.461123
-14.735116 48.410797 -5.351041
-14.723310 48.400753 -5.199218
-14.637169 48.406574 -5.499587
-14.620956 48.397907 -5.429847
-14.612181 48.413406 -5.524675
-14.785995 48.398880 -5.281799
-14.854028 48.398048 -5.217187
-14.952271 48.392963 -5.052445
-14.835944 48.420456 -5.325564
-14.860253 48.408016 -5.059373
-14.543900 48.393204 -5.479805
-14.554549 48.393196 -5.469048
-14.783817 48.404861 -5.351146
-14.876965 48.402729 -5.035830
-14.888018 48.391937 -5.094427
-14.772349 48.392712 -5.198627
-14.692023 48.394321 -5.192703
-14.691704 48.403072 -5.419684
-14.674426 48.409435 -5.435474
-14.695121 48.389565 -5.322121
-14.495132 48.431103 -5.387047
-14.605668 48.390961 -5.335423
-14.528976 48.398556 -5.410039
-14.699824 48.405994 -5.175616
-14.592628 48.392841 -5.403522
-14.599263 48.389008 -5.467797
-14.495033 48.431046 -5.374353
-14.749278 48.387238 -5.257038
-14.575844 48.396568 -5.492857
-14.830219 48.405396 -5.195695
-14.924779 48.395905 -5.031027
-14.559521 48.397144 -5.285900
-14.787590 48.396706 -5.297485
-14.832042 48.407028 -5.039391
-14.759991 48.412205 -5.328239
-14.853160 48.410061 -5.012933
-14.864230 48.399288 -5.074348
-14.895082 48.388718 -5.107190
-14.743231 48.390858 -5.175134
-14.572922 48.445530 -5.285552
-14.981855 48.385223 -4.865548
-14.880843 48.402138 -5.194351
-14.471912 48.430187 -5.362046
-14.694321 48.391994 -5.204867
-14.724425 48.392750 -5.236276
-14.554679 48.406490 -5.472023
-14.471815 48.430126 -5.349352
-14.564630 48.388203 -5.447210
-14.807286 48.413589 -5.173482
-14.607550 48.394764 -5.339082
-14.558945 48.443970 -5.270977
-14.604005 48.403145 -5.279701
-14.896596 48.398968 -5.008918
-14.761530 48.403461 -5.276736
-14.806643 48.409584 -5.018650
-14.737563 48.419296 -5.306723
-14.525757 48.391014 -5.399702
-14.861289 48.384705 -5.088010
-14.909124 48.395451 -5.127588
-14.522563 48.438164 -5.367023
-14.823199 48.383385 -5.054618
-14.822313 48.406498 -4.990889
-14.542448 48.432716 -5.258588
-14.955601 48.386929 -4.846941
-14.852459 48.404224 -5.172240
-14.453332 48.438599 -5.339766
-14.495316 48.430023 -5.370320
-14.985604 48.371449 -4.881248
-14.944036 48.398289 -5.001252
-14.452682 48.435589 -5.327089
-14.696573 48.393726 -5.214872
-14.767234 48.395458 -5.150915
-14.774902 48.401119 -4.999458
-14.869628 48.400795 -4.988204
-14.528118 48.429195 -5.245438
-14.723949 48.390965 -5.252699
-14.878506 48.396946 -5.107635
-14.844387 48.401970 -5.068499
-14.796935 48.385090 -5.034601
-14.496839 48.431595 -5.340667
-14.623676 48.405621 -5.128937
-14.602117 48.389782 -5.347129
-14.806391 48.421516 -4.967135
-14.586513 48.393776 -5.359370
-14.830050 48.411316 -5.152137
-14.925667 48.384232 -4.828411
-14.519802 48.434750 -5.234983
-14.622695 48.398556 -5.254887
-14.562559 48.452576 -5.279560
-14.966398 48.384048 -4.861789
-14.473731 48.433899 -5.347395
-14.429755 48.435711 -5.314780
-14.919000 48.402809 -4.980496
-14.525072 48.396301 -5.400591
-14.536682 48.428318 -5.341590
-14.637300 48.429413 -5.108189
-14.429487 48.434673 -5.303503
-14.742802 48.390686 -4.980282
-14.505803 48.429138 -5.222540
-14.841415 48.399799 -4.966815
-14.569952 48.432625 -5.237171
-14.494311 48.430237 -5.364863
-14.800185 48.380558 -5.049544
-14.771372 48.386669 -5.015280
-14.848080 48.399422 -5.087677
-14.472570 48.428841 -5.316396
-14.969273 48.401638 -4.977032
-14.616640 48.437328 -5.109220
-14.673665 48.403389 -5.109971
-14.776070 48.416843 -4.945795
-14.905358 48.390930 -4.808989
-14.795310 48.402374 -5.130164
-14.982717 48.388256 -4.873672
-14.497673 48.435673 -5.212080
-14.623501 48.445122 -5.239939
-14.945072 48.392971 -4.842376
-14.525858 48.425655 -5.252035
-14.451226 48.432861 -5.324501
-14.408316 48.436504 -5.291161
-14.893097 48.406479 -4.960464
-14.619666 48.396332 -5.141930
-14.514029 48.430351 -5.317982
-14.616971 48.436104 -5.085944
-14.409297 48.438290 -5.280560
-14.938695 48.402737 -4.760436
-14.555813 48.444748 -5.282684
-14.725489 48.401917 -4.960092
-14.487057 48.436565 -5.201677
-14.823581 48.412136 -4.945922
-14.645523 48.400356 -5.235644
-14.546066 48.431839 -5.214299
-14.471857 48.433262 -5.342660
-14.750566 48.394485 -4.996568
-14.780104 48.392303 -5.029397
-14.944245 48.406162 -4.957686
-14.825550 48.409592 -5.068276
-14.452755 48.434429 -5.294850
-14.593468 48.436420 -5.088455
-14.663945 48.428467 -5.088906
-14.764978 48.397713 -5.110227
-14.889278 48.404972 -4.788063
-14.756109 48.425495 -4.923538
-14.996354 48.393002 -4.891256
-14.961942 48.400127 -4.854239
-14.594853 48.438095 -5.216455
-14.910780 48.386009 -4.826047
-14.478221 48.443218 -5.189113
-14.505727 48.433342 -5.231194
-14.872268 48.414288 -4.940337
-14.427348 48.432076 -5.301631
-14.390441 48.444786 -5.269576
-14.490252 48.429024 -5.365117
-14.492273 48.433250 -5.296474
-14.622489 48.401028 -5.154736
-14.692565 48.399788 -5.087973
-14.592779 48.437412 -5.063780
-14.387874 48.439087 -5.258353
-14.524116 48.429123 -5.257867
-14.910327 48.400757 -4.740470
-14.646382 48.398907 -5.191905
-14.465314 48.439461 -5.180174
-14.783426 48.393028 -4.927611
-14.522882 48.430923 -5.192124
-14.449920 48.435177 -5.321159
-14.924478 48.415813 -4.938240
-14.729936 48.403278 -4.976439
-14.759664 48.402088 -5.010672
-14.794593 48.409122 -5.049751
-14.430815 48.436337 -5.271941
-14.567490 48.431961 -5.067045
-14.554899 48.452183 -5.295558
-14.852672 48.389297 -4.773921
-14.742032 48.401852 -5.090146
-14.646114 48.440807 -5.068011
-14.532222 48.434048 -5.300924
-14.929949 48.397827 -4.837856
-14.985431 48.419312 -4.870207
-14.570280 48.437439 -5.194299
-14.892081 48.397491 -4.805878
-14.459977 48.449532 -5.167539
-14.482047 48.433544 -5.209730
-14.848995 48.420513 -4.919550
-14.407354 48.436684 -5.280093
-14.592512 48.435730 -5.102781
-14.371321 48.450241 -5.247315
-14.466744 48.430214 -5.343642
-14.469642 48.435287 -5.274280
-14.610348 48.424534 -5.135832
-14.574389 48.446793 -5.041494
-14.372866 48.454983 -5.238107
-14.500995 48.432281 -5.237794
-14.447308 48.450817 -5.159286
-14.504689 48.441299 -5.171242
-14.890161 48.408848 -4.920494
-14.428041 48.441154 -5.300352
-14.755662 48.392834 -5.030701
-14.843578 48.410172 -4.751444
-14.549809 48.441223 -5.046865
-14.413503 48.447575 -5.251747
-14.516643 48.424541 -5.269474
-14.719275 48.406971 -5.070061
-14.507094 48.430443 -5.278785
-14.621367 48.439163 -5.045865
-14.907245 48.407001 -4.818464
-14.939434 48.403343 -4.855504
-14.546411 48.436657 -5.172839
-14.869526 48.403595 -4.787199
-14.713199 48.438263 -4.878383
-14.819206 48.414742 -4.901731
-14.439107 48.453274 -5.145313
-14.462986 48.443066 -5.189571
-14.387180 48.440304 -5.258562
-14.565663 48.430416 -5.082094
-14.355063 48.463310 -5.226392
-14.918791 48.382820 -4.720847
-14.444307 48.433243 -5.322852
-14.449144 48.441010 -5.253451
-14.590780 48.435169 -5.116383
-14.663777 48.434383 -5.046747
-14.675651 48.439262 -4.898057
-14.354492 48.464378 -5.217231
-14.478564 48.435307 -5.217005
-14.550340 48.445015 -5.018635
-14.588877 48.431892 -5.176556
-14.428565 48.458244 -5.138423
-14.870215 48.417515 -4.901055
-14.482762 48.443211 -5.149745
-14.405743 48.441101 -5.278865
-14.816073 48.404991 -4.734299
-14.525966 48.440441 -5.026820
-14.730159 48.398472 -5.012073
-14.493523 48.427700 -5.249401
-14.393563 48.456242 -5.230900
-14.971287 48.390327 -4.709535
-14.486963 48.438129 -5.257943
-14.599806 48.443031 -5.024354
-14.849039 48.409306 -4.767783
-14.886793 48.416775 -4.798326
-14.523242 48.435745 -5.152075
-14.919717 48.417046 -4.835341
-14.689342 48.437469 -4.856928
-14.791348 48.411652 -4.882463
-14.444988 48.454433 -5.170093
-14.420539 48.461674 -5.123034
-14.367571 48.446880 -5.238421
-14.543249 48.433445 -5.062717
-14.330189 48.449474 -5.202178
-14.895864 48.386944 -4.700774
-14.420126 48.434563 -5.302097
-14.565362 48.433666 -5.096364
-14.428651 48.446724 -5.232622
-14.643645 48.442062 -5.025905
-14.653737 48.441170 -4.877970
-14.330681 48.452381 -5.193698
-14.457201 48.440174 -5.196899
-14.565387 48.433079 -5.156495
-14.527870 48.443970 -4.997159
-14.586363 48.435150 -5.135684
-14.409639 48.464684 -5.117566
-14.840796 48.413708 -4.883224
-14.735673 48.434025 -4.861298
-14.463836 48.449650 -5.128888
-14.677672 48.439056 -4.916563
-14.385067 48.445835 -5.258042
-14.679666 48.400318 -4.954907
-14.805034 48.423161 -4.710450
-14.505623 48.443081 -5.006707
-14.707421 48.403595 -4.993400
-14.471473 48.432697 -5.230010
-14.958325 48.405807 -4.687140
-14.375005 48.464649 -5.210030
-14.463978 48.438206 -5.237172
-14.576829 48.443100 -5.003586
-14.854960 48.411392 -4.782660
-14.823503 48.410877 -4.749876
-14.501316 48.437653 -5.130578
-14.772283 48.421165 -4.862304
-14.889838 48.418407 -4.817502
-14.423579 48.455231 -5.149296
-14.668144 48.443295 -4.833997
-14.524701 48.441856 -5.043259
-14.401788 48.469090 -5.100759
-14.350496 48.463161 -5.218912
-14.866982 48.382019 -4.683653
-14.312506 48.458733 -5.180587
-14.398579 48.438446 -5.281997
-14.409539 48.452187 -5.211770
-14.617861 48.438587 -5.005899
-14.631472 48.441116 -4.859309
-14.542251 48.436817 -5.076293
-14.438653 48.448589 -5.177440
-14.543651 48.435978 -5.136399
-14.309967 48.453049 -5.172188
-14.508068 48.449547 -4.975615
-14.816119 48.416134 -4.864590
-14.561128 48.434628 -5.115658
-14.388738 48.464367 -5.096061
-14.712000 48.434216 -4.839836
-14.444215 48.456215 -5.107337
-14.656493 48.444897 -4.896451
-14.779467 48.420673 -4.693264
-14.834961 48.436489 -4.644312
-14.685798 48.452946 -4.931362
-14.364773 48.452545 -5.238618
-14.663831 48.437244 -5.010956
-14.485466 48.446697 -4.986587
-14.918973 48.390648 -4.674456
-14.451543 48.441368 -5.210573
-14.354099 48.464333 -5.188523
-14.442430 48.442089 -5.217071
-14.797432 48.409508 -4.733399
-14.829607 48.413948 -4.764746
-14.555459 48.447952 -4.982070
-14.482073 48.446190 -5.110425
-14.767764 48.451344 -4.836893
-14.859609 48.417812 -4.801087
-14.401990 48.455044 -5.128507
-14.646226 48.445190 -4.812501
-14.500679 48.440090 -5.023222
-14.325451 48.448345 -5.196115
-14.381436 48.471722 -5.079234
-14.292442 48.455208 -5.159081
-14.375419 48.437538 -5.261235
-14.613791 48.450375 -4.839126
-14.596130 48.441479 -4.985806
-14.390297 48.460724 -5.191616
-14.519839 48.439842 -5.056917
-14.418541 48.456276 -5.158009
-14.520856 48.437031 -5.115624
-14.291370 48.457390 -5.150630
-14.368032 48.465034 -5.075960
-14.485057 48.445545 -4.954161
-14.534150 48.432396 -5.095669
-14.689219 48.435268 -4.820474
-14.783989 48.461330 -4.662012
-14.422994 48.457993 -5.086535
-14.630045 48.441555 -4.878575
-14.348392 48.468700 -5.219800
-14.641595 48.441254 -4.991571
-14.648263 48.432343 -4.914434
-14.816376 48.444866 -4.620621
-14.901108 48.398918 -4.654283
-14.466545 48.453133 -4.965731
-14.429497 48.446365 -5.191183
-14.329608 48.452469 -5.165709
-14.424619 48.454433 -5.197586
-14.809857 48.423588 -4.745303
-14.536166 48.452419 -4.961226
-14.736208 48.439796 -4.819834
-14.461401 48.450920 -5.089602
-14.831306 48.419895 -4.783222
-14.383300 48.466530 -5.108333
-14.480889 48.445675 -5.003089
-14.624127 48.446102 -4.791013
-14.305617 48.449871 -5.175293
-14.359807 48.467464 -5.057756
-14.355321 48.445232 -5.243215
-14.593631 48.453987 -4.819005
-14.275310 48.467415 -5.137469
-14.577387 48.448895 -4.964942
-14.370687 48.467297 -5.171474
-14.498308 48.443726 -5.038229
-14.398614 48.464943 -5.138570
-14.500743 48.444717 -5.096193
-14.273149 48.463703 -5.130468
-14.512617 48.436279 -5.076980
-14.341965 48.448387 -5.055311
-14.751925 48.446842 -4.647801
-14.466310 48.452953 -4.931888
-14.670833 48.444637 -4.798186
-14.610618 48.449100 -4.858428
-14.620558 48.444019 -4.972170
-14.402827 48.461605 -5.065003
-14.630264 48.443699 -4.894955
-14.321232 48.450207 -5.197053
-14.443377 48.448162 -4.947105
-14.881679 48.406456 -4.634137
-14.783792 48.431480 -4.604301
-14.650019 48.442371 -4.935008
-14.408885 48.455166 -5.172462
-14.309409 48.452023 -5.144900
-14.403955 48.459171 -5.178173
-14.711506 48.438164 -4.801923
-14.510721 48.446842 -4.940524
-14.441242 48.454536 -5.069481
-14.806138 48.423435 -4.765300
-14.362082 48.468307 -5.087531
-14.460050 48.449421 -4.983685
-14.285468 48.453491 -5.155174
-14.603265 48.449829 -4.768789
-14.342476 48.478680 -5.034738
-14.552824 48.444183 -4.946334
-14.575756 48.462250 -4.797417
-14.340055 48.467293 -5.225768
-14.833269 48.433533 -4.606480
-14.256713 48.471752 -5.115909
-14.350200 48.473011 -5.150644
-14.477138 48.449566 -5.018117
-14.758889 48.440620 -4.806236
-14.479529 48.446499 -5.076800
-14.376891 48.467838 -5.118477
-14.253504 48.466206 -5.109639
-14.727927 48.445080 -4.630587
-14.323197 48.451748 -5.035171
-14.492189 48.446060 -5.058253
-14.445600 48.453609 -4.910379
-14.588712 48.451004 -4.838343
-14.646631 48.441879 -4.778158
-14.596029 48.443363 -4.952842
-14.385140 48.470856 -5.043408
-14.612804 48.457993 -4.874044
-14.862569 48.411896 -4.613288
-14.298600 48.448189 -5.176996
-14.424093 48.452625 -4.926263
-14.772527 48.448635 -4.576220
-14.390204 48.466660 -5.153697
-14.746664 48.441902 -4.669976
-14.623240 48.441120 -4.916424
-14.382231 48.462067 -5.158079
-14.289946 48.455513 -5.124064
-14.689597 48.440063 -4.781838
-14.491617 48.452290 -4.919673
-14.423199 48.461830 -5.049311
-14.339231 48.461243 -5.068202
-14.780789 48.425987 -4.747386
-14.440957 48.454880 -4.964246
-14.267843 48.466820 -5.135681
-14.318856 48.463612 -5.014749
-14.583601 48.452312 -4.746549
-14.553498 48.462189 -4.778756
-14.818177 48.445328 -4.582716
-14.533023 48.449757 -4.924790
-14.238446 48.473999 -5.095057
-14.315852 48.464546 -5.205737
-14.331973 48.479321 -5.130479
-14.731570 48.436424 -4.789083
-14.456297 48.453316 -4.998713
-14.458686 48.450249 -5.057395
-14.350496 48.453289 -5.098529
-14.712481 48.454914 -4.608245
-14.234909 48.470543 -5.088080
-14.304284 48.458183 -5.014315
-14.469599 48.448101 -5.038884
-14.569798 48.457439 -4.818895
-14.575183 48.447109 -4.933436
-14.624181 48.440830 -4.758095
-14.426489 48.459049 -4.888119
-14.365853 48.475327 -5.022563
-14.584762 48.449867 -4.856920
-14.858333 48.439949 -4.584345
-14.279880 48.455616 -5.157544
-14.407285 48.462734 -4.905355
-14.742568 48.437805 -4.559144
-14.721972 48.440262 -4.652068
-14.367430 48.467720 -5.134333
-14.361572 48.466805 -5.138667
-14.600329 48.445255 -4.897758
-14.273188 48.469688 -5.103847
-14.743219 48.439644 -4.687846
-14.667691 48.441963 -4.761753
-14.470916 48.452953 -4.899574
-14.402531 48.466557 -5.028489
-14.316926 48.457119 -5.047443
-14.756495 48.430370 -4.728743
-14.421352 48.461441 -4.944105
-14.534904 48.466526 -4.758605
-14.247832 48.467354 -5.114865
-14.297060 48.458370 -4.993284
-14.511999 48.452518 -4.905393
-14.290643 48.448753 -5.184362
-14.787709 48.435612 -4.566348
-14.561146 48.451256 -4.725077
-14.710722 48.440166 -4.769678
-14.218246 48.473545 -5.072839
-14.304293 48.457882 -5.109170
-14.434772 48.457191 -4.980025
-14.438896 48.455833 -5.037261
-14.688991 48.452030 -4.590322
-14.329113 48.454090 -5.079146
-14.215415 48.469971 -5.067966
-14.287842 48.470257 -4.993392
-14.448989 48.456898 -5.020162
-14.547394 48.460457 -4.799519
-14.550991 48.444363 -4.914817
-14.604198 48.445412 -4.736557
-14.345335 48.476974 -5.002456
-14.406113 48.457611 -4.867318
-14.827869 48.430241 -4.569386
-14.387465 48.464252 -4.885943
-14.562722 48.454849 -4.837531
-14.261021 48.466125 -5.138786
-14.704461 48.450485 -4.630466
-14.731107 48.453968 -4.529656
-14.337495 48.445686 -5.113768
-14.336595 48.456055 -5.117975
-14.578471 48.451221 -4.878362
-14.253542 48.472191 -5.083017
-14.646848 48.445702 -4.742349
-14.723460 48.449272 -4.666989
-14.385036 48.476795 -5.008296
-14.449340 48.452755 -4.878788
-14.883812 48.444305 -4.569982
-14.296059 48.456810 -5.028762
-14.400333 48.464203 -4.924707
-14.514213 48.467190 -4.739914
-14.737288 48.442951 -4.707867
-14.229839 48.478714 -5.095382
-14.493773 48.458824 -4.885228
-14.686906 48.439384 -4.752456
-14.280252 48.468479 -4.972375
-14.541999 48.452629 -4.703538
-14.270735 48.457428 -5.166335
-14.200496 48.474682 -5.052688
-14.772425 48.446411 -4.541178
-14.672139 48.458069 -4.570134
-14.413752 48.459953 -4.960628
-14.284328 48.462482 -5.089044
-14.420168 48.463257 -5.017806
-14.308280 48.457836 -5.059743
-14.197889 48.476154 -5.048495
-14.269405 48.471523 -4.973958
-14.529164 48.466755 -4.779354
-14.533314 48.453617 -4.894633
-14.426037 48.456966 -5.000806
-14.818360 48.449112 -4.542676
-14.584729 48.448887 -4.715721
-14.388928 48.465744 -4.845013
-14.368695 48.467606 -4.865800
-14.326222 48.482414 -4.980193
-14.543114 48.461407 -4.817388
-14.240873 48.469742 -5.118666
-14.680287 48.447735 -4.613259
-14.317722 48.451279 -5.095045
-14.314480 48.452923 -5.098619
-14.704100 48.443604 -4.512531
-14.552217 48.448860 -4.860482
-14.233533 48.472725 -5.062201
-14.696852 48.444946 -4.650535
-14.625631 48.447468 -4.721548
-14.861225 48.446339 -4.552022
-14.363604 48.473530 -4.988223
-14.429875 48.456234 -4.857952
-14.494208 48.467724 -4.720508
-14.278568 48.467049 -5.008570
-14.380000 48.466831 -4.904594
-14.708600 48.439007 -4.690740
-14.664829 48.440308 -4.733788
-14.208781 48.477413 -5.075297
-14.261263 48.466785 -4.951552
-14.472377 48.459610 -4.864435
-14.652131 48.458599 -4.550727
-14.747190 48.441814 -4.523293
-14.182084 48.479996 -5.031120
-14.250633 48.465111 -5.146904
-14.523924 48.459888 -4.679135
-14.391500 48.459900 -4.941967
-14.265378 48.464859 -5.068908
-14.400928 48.471786 -4.997649
-14.288646 48.460342 -5.040324
-14.249408 48.472061 -4.954553
-14.178751 48.477539 -5.026957
-14.505316 48.461910 -4.761446
-14.512985 48.456253 -4.875928
-14.788601 48.439278 -4.528413
-14.566129 48.453209 -4.694160
-14.403637 48.459988 -4.981431
-14.348877 48.469124 -4.846387
-14.302805 48.468334 -4.961612
-14.367326 48.461483 -4.824951
-14.518246 48.458786 -4.799487
-14.662924 48.454884 -4.592370
-14.220553 48.472382 -5.099963
-14.296718 48.454048 -5.077059
-14.215280 48.474972 -5.042759
-14.607221 48.452782 -4.701390
-14.295063 48.460468 -5.078472
-14.688621 48.453411 -4.485956
-14.528582 48.449055 -4.841844
-14.824325 48.428707 -4.542140
-14.677596 48.453457 -4.628967
-14.411106 48.459587 -4.837810
-14.344181 48.481075 -4.968072
-14.853292 48.448631 -4.386063
-14.474204 48.468254 -4.701102
-14.361058 48.469208 -4.885868
-14.259117 48.470535 -4.989144
-14.647834 48.449425 -4.712886
-14.190891 48.481628 -5.055840
-14.451688 48.460274 -4.845745
-14.686925 48.445950 -4.671336
-14.630743 48.459381 -4.531343
-14.733285 48.452358 -4.498099
-14.240714 48.464363 -4.930760
-14.162955 48.481388 -5.010991
-14.230906 48.474766 -5.128867
-14.246655 48.472282 -5.049453
-14.371031 48.465607 -4.922549
-14.379359 48.471600 -4.978271
-14.502169 48.458698 -4.658357
-14.486220 48.467358 -4.742003
-14.267997 48.465073 -5.020914
-14.229553 48.469513 -4.934454
-14.159261 48.476959 -5.006843
-14.490548 48.455208 -4.857275
-14.776292 48.454605 -4.502467
-14.330108 48.472477 -4.826243
-14.545248 48.452881 -4.674069
-14.382845 48.467796 -4.962714
-14.285664 48.480534 -4.939991
-14.645046 48.463135 -4.570778
-14.348186 48.462860 -4.803412
-14.498457 48.464359 -4.779351
-14.200408 48.475998 -5.079842
-14.814824 48.447582 -4.516839
-14.587934 48.457237 -4.680545
-14.275108 48.465076 -5.059755
-14.277529 48.466644 -5.057592
-14.195456 48.476486 -5.021937
-14.653092 48.452797 -4.611053
-14.506547 48.454037 -4.822455
-14.662842 48.445854 -4.466685
-14.323483 48.481735 -4.947971
-14.392509 48.463913 -4.816248
-14.453688 48.469891 -4.680994
-14.239847 48.475006 -4.969709
-14.341272 48.474785 -4.865731
-14.623660 48.446674 -4.695680
-14.431868 48.461792 -4.826332
-14.612471 48.461609 -4.510489
-14.170018 48.481308 -5.035748
-14.705606 48.442131 -4.483102
-14.664372 48.452030 -4.651245
-14.226088 48.490311 -4.906212
-14.351576 48.469093 -4.903121
-14.227204 48.475769 -5.030025
-14.143999 48.483749 -4.989444
-14.209527 48.475567 -5.109484
-14.358157 48.473377 -4.958880
-14.483014 48.460064 -4.635407
-14.249102 48.471519 -5.002875
-14.464656 48.467163 -4.722627
-14.209197 48.468082 -4.915065
-14.468983 48.455017 -4.837899
-14.140707 48.485355 -4.985967
-14.749665 48.446220 -4.488148
-14.308156 48.466259 -4.807607
-14.360596 48.467735 -4.944054
-14.526819 48.458176 -4.651090
-14.473572 48.457684 -4.763586
-14.623658 48.463917 -4.551394
-14.266018 48.483025 -4.919160
-14.331350 48.472946 -4.779678
-14.180604 48.477528 -5.061840
-14.783847 48.434937 -4.504726
-14.567243 48.457897 -4.661855
-14.255155 48.469677 -5.041037
-14.632947 48.456406 -4.592341
-14.177053 48.481812 -5.001778
-14.255830 48.469540 -5.038911
-14.302937 48.479321 -4.928586
-14.373549 48.466270 -4.794702
-14.653956 48.464558 -4.433607
-14.486975 48.464649 -4.801589
-14.434552 48.471268 -4.660864
-14.319892 48.475574 -4.846347
-14.218794 48.473701 -4.949625
-14.603152 48.448318 -4.676983
-14.594740 48.466785 -4.489611
-14.125689 48.484516 -5.042837
-14.412040 48.463299 -4.805510
-14.150023 48.481846 -5.016343
-14.693089 48.456455 -4.454339
-14.640052 48.452354 -4.633323
-14.206945 48.491688 -4.884670
-14.125556 48.485008 -4.968598
-14.330924 48.473816 -4.883708
-14.206331 48.475449 -5.009934
-14.188011 48.479443 -5.090795
-14.336594 48.473186 -4.939503
-14.466316 48.467060 -4.610978
-14.084234 48.491932 -5.007351
-14.227726 48.472309 -4.983492
-14.443274 48.467949 -4.703243
-14.450438 48.463413 -4.818435
-14.733510 48.456165 -4.463698
-14.189556 48.470577 -4.894235
-14.121036 48.483795 -4.965860
-14.290112 48.473541 -4.787431
-14.508037 48.461514 -4.629535
-14.339761 48.471478 -4.924648
-14.601224 48.462864 -4.532740
-14.247602 48.488338 -4.897589
-14.455731 48.469997 -4.741270
-14.772414 48.451118 -4.479465
-14.147943 48.482536 -5.054618
-14.159593 48.480289 -5.042442
-14.310971 48.471493 -4.757467
-14.546363 48.457565 -4.641763
-14.235521 48.472183 -5.021617
-14.235297 48.467133 -5.020938
-14.611229 48.459278 -4.572248
-14.156475 48.475330 -4.981709
-14.283109 48.480831 -4.907763
-14.415236 48.471664 -4.640741
-14.354265 48.470726 -4.773856
-14.461213 48.457115 -4.785137
-14.584389 48.451672 -4.658249
-14.626963 48.454185 -4.416486
-14.299532 48.474140 -4.826957
-14.573326 48.463505 -4.470951
-14.199705 48.479153 -4.930182
-14.391859 48.462845 -4.786112
-14.107648 48.491802 -5.022661
-14.786121 48.434601 -4.376867
-14.130172 48.479301 -4.996244
-14.668015 48.448780 -4.437172
-14.613272 48.447037 -4.616879
-14.317834 48.476543 -4.920769
-14.187803 48.493065 -4.863129
-14.167115 48.475075 -5.072836
-14.309363 48.473621 -4.864333
-14.185611 48.472050 -4.990559
-14.105553 48.485535 -4.947782
-14.168550 48.482925 -5.069957
-14.065430 48.491219 -4.986520
-14.422406 48.467625 -4.684561
-14.430617 48.464928 -4.799022
-14.446465 48.468544 -4.587333
-14.208306 48.479855 -4.963340
-14.706882 48.447769 -4.447970
-14.173870 48.494686 -4.870410
-14.100796 48.475224 -4.946503
-14.270465 48.476028 -4.766599
-14.579838 48.463646 -4.513356
-14.320018 48.481117 -4.905198
-14.487330 48.462154 -4.608025
-14.228498 48.493778 -4.876733
-14.434531 48.471767 -4.721878
-14.744239 48.442017 -4.466587
-14.140686 48.486725 -5.022991
-14.128131 48.484055 -5.035205
-14.293769 48.479610 -4.733745
-14.525665 48.458218 -4.621663
-14.215022 48.473835 -5.002921
-14.587063 48.456524 -4.555043
-14.212693 48.465111 -5.002295
-14.138855 48.492699 -4.960068
-14.396812 48.476967 -4.619168
-14.262748 48.479397 -4.888371
-14.563369 48.454422 -4.638851
-14.333533 48.467316 -4.753071
-14.443919 48.472378 -4.762799
-14.558893 48.475151 -4.445047
-14.603771 48.445129 -4.397181
-14.279020 48.475777 -4.806849
-14.180816 48.489635 -4.908594
-14.371347 48.464485 -4.766005
-14.086921 48.488396 -5.001875
-14.110751 48.486843 -4.976090
-14.643813 48.441952 -4.419284
-14.594380 48.457512 -4.595294
-14.168814 48.491364 -4.842304
-14.297000 48.480286 -4.901362
-14.165770 48.469513 -4.971871
-14.287271 48.470486 -4.846390
-14.087470 48.488754 -4.926919
-14.145783 48.479935 -5.054140
-14.409751 48.464607 -4.780340
-14.404167 48.473911 -4.662981
-14.147498 48.481621 -5.049872
-14.046058 48.483498 -4.966438
-14.684780 48.444622 -4.430027
-14.187988 48.482487 -4.944635
-14.427309 48.469902 -4.564381
-14.154376 48.494102 -4.850294
-14.082292 48.491730 -4.924172
-14.251333 48.477409 -4.746468
-14.562460 48.470779 -4.491051
-14.719718 48.437298 -4.450808
-14.468367 48.464508 -4.586476
-14.413330 48.473534 -4.702486
-14.207557 48.485329 -4.856680
-14.297257 48.482166 -4.885836
-14.120217 48.492435 -5.003568
-14.108349 48.489632 -5.015067
-14.507245 48.463516 -4.600092
-14.273219 48.477180 -4.712951
-14.193073 48.467617 -4.984285
-14.377144 48.475403 -4.600470
-14.566394 48.461227 -4.534218
-14.192410 48.471802 -4.982867
-14.117709 48.479210 -4.940750
-14.244370 48.488773 -4.867485
-14.535731 48.466118 -4.429971
-14.543549 48.455929 -4.619438
-14.317056 48.479362 -4.729317
-14.420976 48.472439 -4.743444
-14.257795 48.473488 -4.788182
-14.160847 48.494225 -4.888461
-14.574861 48.428017 -4.383658
-14.353292 48.471756 -4.744418
-14.067584 48.484741 -4.982479
-14.090034 48.483444 -4.956715
-14.622393 48.438663 -4.399216
-14.276820 48.479832 -4.881963
-14.149841 48.493713 -4.819343
-14.125831 48.484535 -5.035420
-14.266076 48.472256 -4.826999
-14.146673 48.474953 -4.951018
-14.570921 48.458672 -4.575239
-14.067764 48.483120 -4.906128
-14.390649 48.470043 -4.759486
-14.127403 48.489304 -5.031845
-14.383318 48.477634 -4.642162
-14.662853 48.442448 -4.410667
-14.027137 48.489925 -4.945573
-14.166403 48.478237 -4.925984
-14.135088 48.498558 -4.829443
-14.407791 48.469296 -4.541445
-14.062595 48.486107 -4.904790
-14.232551 48.480747 -4.724910
-14.538268 48.463963 -4.474571
-14.699211 48.438934 -4.432111
-14.448860 48.463905 -4.564951
-14.188633 48.491753 -4.835814
-14.391436 48.475426 -4.682399
-14.274650 48.480137 -4.867190
-14.099319 48.488052 -4.984200
-14.087993 48.488201 -4.995676
-14.487233 48.464035 -4.579275
-14.254425 48.480507 -4.689982
-14.356960 48.474941 -4.581069
-14.173293 48.473194 -4.964149
-14.547276 48.466652 -4.511951
-14.519202 48.474094 -4.405528
-14.098789 48.485634 -4.919885
-14.171439 48.478622 -4.964154
-14.524262 48.460381 -4.598591
-14.222774 48.484509 -4.847423
-14.297578 48.482822 -4.707065
-14.397861 48.471519 -4.725507
-14.237980 48.474998 -4.768768
-14.141741 48.499668 -4.867603
-14.561250 48.436436 -4.354935
-14.333646 48.474239 -4.723586
-14.047050 48.482327 -4.963096
-14.070727 48.483845 -4.936593
-14.257215 48.486389 -4.861816
-14.604454 48.442825 -4.374115
-14.129988 48.491161 -4.799242
-14.129296 48.501427 -4.929324
-14.246109 48.476841 -4.806867
-14.548520 48.461674 -4.555861
-14.104819 48.487293 -5.016021
-14.048626 48.484497 -4.884586
-14.368374 48.465919 -4.741550
-14.363135 48.477177 -4.622762
-14.643022 48.443943 -4.389843
-14.105819 48.485054 -5.013194
-14.007928 48.506557 -4.922541
-14.115053 48.495022 -4.809350
-14.147217 48.494873 -4.904369
-14.213261 48.485199 -4.704059
-14.043131 48.489578 -4.883948
-14.520877 48.471085 -4.450854
-14.390379 48.476402 -4.514905
-14.679561 48.441410 -4.411280
-14.429550 48.468338 -4.541281
-14.371100 48.478043 -4.662282
-14.167903 48.488338 -4.815028
-14.252044 48.478104 -4.848546
-14.468268 48.466381 -4.557726
-14.067638 48.486767 -4.976285
-14.339038 48.479126 -4.558784
-14.077375 48.481834 -4.965566
-14.237385 48.489597 -4.664836
-14.493939 48.457340 -4.394056
-14.521354 48.458130 -4.496921
-14.154664 48.492790 -4.943922
-14.503214 48.459068 -4.579916
-14.150761 48.479286 -4.945465
-14.078580 48.481117 -4.899803
-14.202054 48.481106 -4.828048
-14.278613 48.485176 -4.685514
-14.218360 48.481544 -4.747208
-14.121562 48.499214 -4.848202
-14.375102 48.472557 -4.706145
-14.315044 48.478561 -4.702020
-14.536854 48.424564 -4.337786
-14.027976 48.491825 -4.941512
-14.050426 48.490524 -4.915749
-14.584082 48.441364 -4.353315
-14.235265 48.480167 -4.843180
-14.111169 48.490433 -4.776999
-14.106897 48.481060 -4.911472
-14.350861 48.476139 -4.719939
-14.224913 48.478611 -4.787474
-14.622658 48.442493 -4.370453
-14.083095 48.486126 -4.998063
-14.029666 48.486851 -4.863035
-14.342257 48.476841 -4.602667
-14.526794 48.464535 -4.534356
-14.095738 48.495419 -4.789224
-13.989373 48.491566 -4.903189
-14.194810 48.486443 -4.683208
-14.084656 48.490887 -4.993076
-14.127039 48.494423 -4.884969
-14.656427 48.436432 -4.395481
-14.502617 48.477356 -4.427859
-14.023484 48.492069 -4.863112
-14.371208 48.477753 -4.490540
-14.414061 48.478142 -4.514695
-14.349178 48.475872 -4.642920
-14.148761 48.489712 -4.793485
-14.231210 48.481838 -4.829137
-14.448256 48.466896 -4.536908
-14.320417 48.483433 -4.535804
-14.057564 48.483349 -4.946152
-14.474789 48.458698 -4.372512
-14.047312 48.489391 -4.956168
-14.216822 48.487152 -4.642630
-14.482166 48.457756 -4.561242
-14.134335 48.495415 -4.923805
-14.504342 48.471272 -4.471051
-14.059477 48.486557 -4.878944
-14.182769 48.485561 -4.807198
-14.131070 48.497044 -4.924557
-14.258772 48.486668 -4.663276
-14.199601 48.488937 -4.724921
-14.100737 48.507000 -4.826652
-14.296261 48.481895 -4.680461
-14.353921 48.478374 -4.684616
-14.530702 48.450821 -4.296141
-14.008032 48.500473 -4.920650
-14.556217 48.422047 -4.342610
-14.030095 48.493149 -4.895630
-14.214250 48.482918 -4.823779
-14.329272 48.471882 -4.701288
-14.604728 48.446659 -4.346761
-14.092216 48.496838 -4.753306
-14.205473 48.486137 -4.765905
-14.086750 48.484665 -4.891347
-14.322246 48.477356 -4.581848
-14.010727 48.493267 -4.840755
-14.061695 48.482857 -4.979404
-14.503165 48.464718 -4.515718
-14.175529 48.494946 -4.660215
-14.063950 48.487492 -4.975111
-14.642362 48.450039 -4.369561
-14.075212 48.497044 -4.767700
-13.969367 48.492088 -4.882370
-14.485739 48.487411 -4.401292
-14.106255 48.506275 -4.864105
-14.003812 48.490498 -4.843003
-14.348013 48.464642 -4.473373
-14.387026 48.455608 -4.502580
-14.328147 48.478611 -4.622108
-14.301444 48.485779 -4.514249
-14.128367 48.484203 -4.773409
-14.433308 48.479649 -4.510298
-14.460838 48.469215 -4.344481
-14.209680 48.485699 -4.809034
-14.026274 48.488087 -4.937493
-14.036398 48.489178 -4.926032
-14.463744 48.463051 -4.539669
-14.196932 48.480526 -4.621846
-14.111794 48.478127 -4.906646
-14.484162 48.474846 -4.448102
-14.039472 48.487076 -4.858125
-14.107663 48.478905 -4.908123
-14.161716 48.484245 -4.787111
-14.178711 48.484554 -4.706963
-14.239974 48.489994 -4.640304
-14.078540 48.487617 -4.810206
-14.275916 48.484501 -4.658931
-14.331845 48.479279 -4.664536
-13.987773 48.487839 -4.902020
-14.009332 48.481628 -4.877709
-14.193351 48.478531 -4.804412
-14.585399 48.447033 -4.325228
-14.303480 48.484745 -4.559558
-14.310879 48.481239 -4.678987
-14.183203 48.482010 -4.747970
-14.067286 48.488136 -4.870504
-14.072371 48.498329 -4.731065
-13.991446 48.501770 -4.817760
-14.156578 48.501354 -4.637931
-14.055557 48.499531 -4.746861
-14.039819 48.484760 -4.960728
-13.950583 48.495430 -4.860807
-14.460839 48.476665 -4.386255
-14.481969 48.470520 -4.492776
-14.042036 48.485329 -4.955751
-14.085559 48.506927 -4.844000
-13.983826 48.495079 -4.821454
-14.335646 48.488029 -4.437483
-14.442198 48.469467 -4.323637
-14.374514 48.478031 -4.469525
-14.280719 48.482365 -4.494871
-14.308340 48.484165 -4.600552
-14.412247 48.478325 -4.490210
-14.109294 48.497749 -4.749681
-14.188122 48.485500 -4.789656
-14.015538 48.488857 -4.907348
-14.005790 48.493786 -4.916656
-14.445670 48.470306 -4.516667
-14.179377 48.494770 -4.593852
-14.462415 48.473652 -4.428731
-14.090241 48.477928 -4.887270
-14.141889 48.485744 -4.766284
-14.019511 48.495712 -4.835849
-14.086472 48.480675 -4.888730
-14.221173 48.493317 -4.617330
-14.158387 48.491219 -4.684703
-14.057869 48.492329 -4.789374
-14.257479 48.489792 -4.635943
-14.310300 48.483124 -4.643020
-13.967970 48.493401 -4.880465
-13.989226 48.493347 -4.856124
-14.172155 48.480297 -4.785018
-14.290518 48.479794 -4.659594
-14.282768 48.485382 -4.538043
-14.053053 48.502766 -4.707386
-14.136887 48.499767 -4.616408
-14.163063 48.489662 -4.725704
-13.971602 48.503265 -4.795518
-14.046236 48.486820 -4.850418
-14.035026 48.501156 -4.725334
-14.018756 48.479397 -4.942781
-14.437675 48.467617 -4.369771
-13.929719 48.499149 -4.838570
-14.021384 48.490051 -4.936333
-13.963676 48.502731 -4.799182
-14.462502 48.478020 -4.468384
-14.063051 48.493694 -4.826117
-14.265052 48.495243 -4.467555
-14.421975 48.464931 -4.303551
-14.315055 48.481522 -4.416003
-14.351498 48.465904 -4.452351
-14.287305 48.486904 -4.579736
-14.386970 48.461552 -4.475920
-14.089607 48.496166 -4.728160
-14.421289 48.458454 -4.502335
-13.985614 48.493328 -4.897254
-13.994546 48.495667 -4.887216
-14.166049 48.486404 -4.769575
-14.160379 48.497101 -4.569473
-14.442581 48.479187 -4.404353
-14.069769 48.483631 -4.867843
-14.000388 48.501141 -4.813575
-14.122972 48.496216 -4.743275
-14.065893 48.497566 -4.867129
-14.138766 48.501812 -4.660997
-14.201316 48.494797 -4.593678
-14.037925 48.505020 -4.766367
-14.237634 48.491283 -4.613703
-14.287513 48.480099 -4.624382
-13.947478 48.499092 -4.859622
-13.968912 48.500023 -4.835273
-14.264322 48.490669 -4.515050
-14.152713 48.487820 -4.763447
-14.270882 48.486324 -4.636620
-14.117233 48.506298 -4.593425
-13.952630 48.505619 -4.773960
-14.033361 48.501183 -4.685863
-14.026262 48.491405 -4.830280
-14.421124 48.475578 -4.343911
-14.015376 48.507690 -4.702352
-14.141143 48.487492 -4.706341
-13.997012 48.501598 -4.921875
-13.910252 48.506668 -4.815580
-13.943481 48.502266 -4.778366
-14.000370 48.492805 -4.916930
