# .PCD v0.7 - Point Cloud Data file format
VERSION 0.7
FIELDS x y z
SIZE 4 4 4
TYPE F F F
COUNT 1 1 1
WIDTH 38
HEIGHT 1
VIEWPOINT 0 0 0 1
POINTS 38
DATA ascii
-17.423025 44.866985 -4.450758
-17.452942 45.033646 -4.455897
-17.386698 44.263908 -4.416269
-17.455210 45.096863 -4.535856
-17.441677 44.907230 -4.522323
-17.434414 44.991989 -4.446708
-17.420990 44.915115 -4.445627
-17.416105 44.313011 -4.489639
-17.393700 44.007160 -4.488084
-17.573969 44.903603 -4.449282
-17.553881 44.723503 -4.459656
-17.457821 45.017536 -4.502134
-17.443449 44.946480 -4.509731
-17.534428 44.087166 -4.429261
-17.394484 44.247379 -4.480068
-17.386742 44.116219 -4.488825
-17.447432 44.915688 -4.452231
-17.504496 44.988651 -4.521209
-17.535227 44.813450 -4.469735
-17.449440 44.947872 -4.488285
-17.520082 44.003616 -4.412560
-17.393974 44.132725 -4.461997
-17.458858 44.980839 -4.531087
-17.484562 44.947670 -4.526981
-17.452051 44.019650 -4.438941
-17.450985 44.963123 -4.475172
-17.501078 43.944424 -4.427090
-17.572296 44.809212 -4.462965
-17.453453 44.874897 -4.482990
-17.589638 44.793808 -4.473120
-17.384714 44.210758 -4.464282
-17.380047 44.064384 -4.481050
-17.466600 45.009506 -4.541360
-17.543083 44.764648 -4.453528
-17.499226 43.997768 -4.411460
-17.582453 44.832012 -4.465903
-17.588678 43.556152 -4.304396
-17.562281 43.967331 -4.448114
