# .PCD v0.7 - Point Cloud Data file format
VERSION 0.7
FIELDS x y z
SIZE 4 4 4
TYPE F F F
COUNT 1 1 1
WIDTH 168
HEIGHT 1
VIEWPOINT 0 0 0 1
POINTS 168
DATA ascii
1.534417 22.466515 0.826669
1.535916 22.465370 0.828995
1.488643 22.482761 0.958598
1.465759 22.496128 1.017738
1.556612 22.359545 0.760774
1.535626 22.400547 0.847055
1.444444 22.514240 1.093253
1.537266 22.400274 0.851441
1.555381 22.388128 0.821288
1.488665 22.418762 0.981172
1.440614 22.456221 1.091693
1.466542 22.432352 1.038225
1.376557 22.514956 1.256589
2.113225 22.745495 0.874748
1.530964 22.332067 0.866972
1.436317 22.439314 1.108345
1.533666 22.332829 0.873763
1.549523 22.321602 0.843374
1.354900 22.525444 1.313946
1.486867 22.353498 1.003429
1.442036 22.390884 1.108415
1.461335 22.364269 1.056552
1.378639 22.451923 1.276193
1.522615 22.262903 0.885476
1.434634 22.371975 1.125636
1.357693 22.464472 1.330689
1.532200 22.269060 0.894391
1.534571 22.248770 0.863868
1.566871 22.164923 0.754490
1.482646 22.289215 1.023004
1.430562 22.316771 1.120468
1.446456 22.291201 1.071312
1.259234 22.497330 1.544334
1.377791 22.388432 1.292296
1.553481 22.177641 0.834661
1.526944 22.204420 0.905430
1.354864 22.399773 1.344033
1.429654 22.303608 1.140664
1.538627 22.192419 0.886346
1.523046 22.201515 0.914212
1.267755 22.469223 1.538578
1.568878 22.111713 0.766542
1.568178 22.107141 0.776295
1.569548 22.100351 0.770307
1.473476 22.222591 1.042442
1.425922 22.249901 1.133870
1.451788 22.236513 1.092523
1.375629 22.325125 1.308897
1.550353 22.118948 0.857152
1.353968 22.338125 1.359364
1.521212 22.141296 0.922670
1.423313 22.237263 1.155420
1.517432 22.140175 0.933125
1.530826 22.129246 0.906179
1.581211 22.063293 0.791921
1.470608 22.162689 1.062026
1.450187 22.178270 1.110836
1.430582 22.193834 1.151817
1.369249 22.260616 1.322885
1.556822 22.068007 0.882047
1.336256 22.263453 1.365275
1.520519 22.083231 0.941329
1.423392 22.179419 1.171995
1.530226 22.073881 0.926124
1.520009 22.084063 0.953657
1.476027 22.110712 1.084516
1.448537 22.121870 1.128376
1.429088 22.133520 1.165161
1.365169 22.199734 1.337622
1.346064 22.215139 1.385932
1.560917 22.016207 0.905031
1.520674 22.028095 0.959180
1.424366 22.122671 1.188532
1.531950 22.021221 0.947202
1.510683 22.022968 0.970773
1.471751 22.054667 1.103055
1.449187 22.069092 1.146666
1.429528 22.076258 1.180491
1.368620 22.146551 1.357355
1.344653 22.158451 1.400181
1.424417 22.065756 1.204714
2.059599 22.320738 1.139088
1.468393 21.998800 1.121943
1.439680 22.008978 1.160956
1.434111 22.022959 1.197272
1.367346 22.090731 1.373657
1.349321 22.108767 1.417871
1.423497 22.010511 1.219772
1.363282 22.035320 1.388517
1.349287 22.055531 1.432514
1.823606 22.347725 1.716598
1.543677 22.441187 0.841933
1.515709 22.450434 0.916924
1.542071 22.375622 0.865882
1.441894 22.469772 1.113580
1.498987 22.373402 0.937543
1.542041 22.433508 0.832868
1.400890 22.486992 1.213387
1.546466 22.436022 0.851454
1.565355 22.258862 0.748579
1.530378 22.305462 0.887143
1.426010 22.390894 1.127138
1.503306 22.315807 0.962097
1.542939 22.370584 0.860396
1.399837 22.422644 1.232410
1.619012 22.239664 0.782133
1.539162 22.366995 0.877762
1.429351 22.481056 1.152768
1.440208 22.450747 1.118570
1.524650 22.241430 0.909782
1.428162 22.332161 1.146490
1.497556 22.252701 0.984349
1.536863 22.305058 0.884660
1.381159 22.344202 1.244535
1.534006 22.301640 0.902377
1.423433 22.409792 1.173604
1.437865 22.385660 1.138489
1.521976 22.182154 0.930691
1.573053 22.099518 0.769731
1.264838 22.540108 1.546448
1.422882 22.266638 1.162920
1.284412 22.519835 1.507389
1.489054 22.188185 1.005942
1.528017 22.239038 0.907878
1.386675 22.291044 1.266656
1.570119 22.092985 0.826275
1.523371 22.232536 0.926055
1.418356 22.342379 1.193248
1.418394 22.308828 1.151940
1.516163 22.121815 0.951793
1.419496 22.206913 1.180180
1.282696 22.452299 1.523927
1.490518 22.133783 1.027913
1.522760 22.178289 0.930569
1.384224 22.230579 1.284651
1.577724 22.044640 0.852070
1.516840 22.170139 0.950023
1.405422 22.270363 1.210052
1.417404 22.249039 1.171490
1.517608 22.068331 0.973383
1.571925 22.060476 0.765660
1.427182 22.156504 1.201000
1.308381 22.413147 1.557683
1.571664 22.043718 0.777165
1.488843 22.078318 1.050078
1.520740 22.121328 0.954360
1.384994 22.174814 1.303360
1.512073 22.111759 0.973150
1.409643 22.216471 1.233089
1.421074 22.195543 1.192938
2.056242 22.357038 1.140726
1.422828 22.098455 1.217166
1.477451 22.018824 1.068337
1.516836 22.065863 0.976708
1.384447 22.119232 1.322603
1.524256 22.065176 1.000345
1.421432 22.141041 1.212134
1.406404 22.156715 1.252817
1.414776 22.039753 1.231930
2.051978 22.352009 1.145885
1.383853 22.065500 1.341066
1.506128 21.999361 1.019325
1.415370 22.083538 1.229655
1.409664 22.103598 1.275126
1.414534 21.987505 1.248773
1.373946 22.006481 1.355132
1.418040 22.032656 1.249606
1.889156 22.383184 1.516709
