# .PCD v0.7 - Point Cloud Data file format
VERSION 0.7
FIELDS x y z
SIZE 4 4 4
TYPE F F F
COUNT 1 1 1
WIDTH 313
HEIGHT 1
VIEWPOINT 0 0 0 1
POINTS 313
DATA ascii
-2.138979 16.612455 0.458150
-2.140403 16.680553 0.451327
-2.163603 16.608606 0.521588
-2.033203 16.626148 0.175936
-2.004040 16.637646 0.105174
-2.130836 16.743397 0.445774
-2.158563 16.669781 0.516841
-2.038157 16.699654 0.163093
-1.909143 16.621813 -0.149355
-2.003221 16.710726 0.091716
-2.160917 16.842592 0.433785
-2.039005 16.627291 0.191705
-2.175621 16.747211 0.510836
-2.029299 16.642195 0.165239
-2.035103 16.770521 0.152663
-2.186134 16.672710 0.575222
-1.877221 16.666342 -0.237875
-1.910618 16.698195 -0.168613
-2.026656 16.806265 0.070206
-2.256759 16.990616 0.600004
-2.044807 16.700472 0.180908
-2.167957 16.924425 0.426205
-2.189353 16.829382 0.503485
-1.902052 16.608566 -0.154857
-2.063222 16.869205 0.133597
-2.033345 16.715792 0.152782
-2.201058 16.747208 0.570126
-2.040754 16.625185 0.198906
-1.795673 16.677618 -0.458561
-1.880724 16.750586 -0.262160
-1.898772 16.767847 -0.181469
-2.049196 16.649847 0.219699
-2.015047 16.877954 0.059982
-2.041715 16.770180 0.173232
-2.067940 16.588377 0.287091
-1.763829 16.692377 -0.546764
-1.911962 16.675453 -0.144362
-1.704616 16.651054 -0.688897
-2.171266 17.008570 0.419513
-2.199091 16.909750 0.497488
-1.903156 16.683681 -0.174659
-2.059813 16.812071 0.133049
-2.054609 16.942575 0.124823
-2.208878 16.818966 0.567037
-2.048276 16.698889 0.189420
-1.786120 16.752674 -0.480330
-1.803782 16.634077 -0.418262
-1.882361 16.835966 -0.286011
-2.051547 16.719873 0.209336
-1.921785 16.870247 -0.213503
-1.796403 16.641762 -0.450204
-1.923230 16.627855 -0.100605
-1.678589 16.693966 -0.776183
-2.072659 16.654732 0.278130
-2.044787 16.632956 0.203739
-2.023697 16.970322 0.043065
-2.072801 16.871496 0.155278
-1.916436 16.753498 -0.162192
-1.750735 16.767101 -0.569083
-1.695224 16.728584 -0.718657
-2.177470 17.097216 0.413268
-2.199157 16.985067 0.493223
-1.913703 16.651787 -0.131637
-1.900604 16.759205 -0.192910
-2.219153 16.895868 0.563212
-2.041041 16.871254 0.127280
-2.066289 17.035673 0.109687
-2.047412 16.768698 0.181804
-1.800548 16.854488 -0.522105
-1.711235 16.640518 -0.663466
-1.801358 16.710922 -0.441729
-2.077672 16.811842 0.192493
-1.882432 16.925640 -0.309565
-1.915801 16.951214 -0.231005
-1.924326 16.700871 -0.117322
-1.791346 16.718180 -0.474606
-2.072032 16.720032 0.269728
-2.050918 16.706240 0.196213
-1.721857 16.675547 -0.655677
-2.059455 16.938456 0.149905
-2.032571 17.067717 0.025330
-1.933297 16.850023 -0.189178
-1.757195 16.865326 -0.608125
-1.697550 16.822264 -0.761072
-2.190311 17.196671 0.406882
-1.947932 16.645340 -0.042715
-2.205933 17.069309 0.489482
-1.915471 16.729212 -0.147967
-2.222832 16.969610 0.560140
-1.907063 16.846058 -0.216105
-1.674409 16.670885 -0.785341
-2.049348 16.959318 0.113254
-2.075522 17.132229 0.095573
-1.817165 16.664898 -0.387870
-2.076263 16.867807 0.166863
-1.651878 16.660608 -0.779082
-1.918133 16.640409 -0.123517
-1.809719 16.670261 -0.414275
-1.791588 16.937912 -0.547287
-2.068048 16.876492 0.186212
-1.709342 16.723190 -0.697505
-1.800920 16.794476 -0.467457
-1.918725 17.046343 -0.254446
-1.887157 17.023592 -0.337221
-1.907881 16.760323 -0.125469
-2.101260 16.810848 0.255326
-1.807163 16.818312 -0.515264
-2.046536 16.772686 0.191474
-1.841547 16.616325 -0.305678
-1.709348 16.747927 -0.678609
-2.074169 17.032288 0.136542
-1.923056 16.923006 -0.201754
-2.037715 17.167410 0.008478
-1.947367 16.713835 -0.057008
-1.754357 16.957649 -0.641811
-1.686523 16.908052 -0.794321
-2.190510 17.288450 0.401094
-1.735434 16.665606 -0.598827
-2.213845 17.158478 0.484533
-1.928515 16.817118 -0.168838
-2.220250 17.042410 0.558017
-1.909865 16.933317 -0.237752
-2.059671 17.053146 0.097296
-2.079776 17.228985 0.082538
-2.073317 16.942327 0.160780
-1.810342 16.737537 -0.407743
-1.818338 16.635786 -0.390373
-1.918650 16.713627 -0.136562
-1.806342 16.746046 -0.434603
-2.071285 16.955944 0.175395
-1.729268 16.693369 -0.628221
-1.790727 17.034861 -0.580127
-1.812163 16.893023 -0.503071
-1.933591 16.861248 -0.155944
-2.089572 16.870667 0.250616
-1.923665 17.147228 -0.279821
-1.883357 17.119326 -0.361240
-1.797429 16.898058 -0.538741
-1.690703 16.684900 -0.736227
-2.072781 16.868328 0.179016
-1.841041 16.688028 -0.325855
-2.079073 17.122757 0.126686
-1.689209 16.694794 -0.732156
-1.923885 17.012154 -0.220856
-1.977165 16.811621 -0.084756
-2.042168 17.272236 -0.008804
-1.744305 16.636164 -0.575724
-1.758670 17.064547 -0.683095
-1.738329 16.750692 -0.632541
-2.218165 17.246164 0.481793
-2.234411 17.130423 0.555196
-1.929994 16.899979 -0.184753
-2.198961 17.394402 0.395494
-1.910326 17.023293 -0.260488
-2.055052 17.136885 0.087403
-1.815536 16.707159 -0.408193
-2.082532 17.328142 0.070460
-1.829191 16.838406 -0.446630
-2.074953 17.024929 0.153037
-1.709949 16.626579 -0.632874
-1.923416 16.792715 -0.151463
-1.821134 16.844917 -0.469681
-2.078260 17.041687 0.163972
-1.729863 16.778131 -0.659578
-1.694959 16.891003 -0.760418
-1.766767 16.693630 -0.538650
-1.807045 16.979902 -0.527876
-2.101183 16.951902 0.241006
-1.787017 17.134941 -0.612809
-1.932061 16.942421 -0.173330
-1.931799 17.257860 -0.307990
-1.850023 16.771585 -0.352557
-1.686546 16.766281 -0.767603
-1.891027 17.233620 -0.394033
-1.794951 16.989548 -0.568820
-2.074962 16.947472 0.173458
-2.083831 17.216991 0.115484
-1.685929 16.777014 -0.764258
-1.956245 16.868759 -0.089981
-1.928891 17.109055 -0.242480
-2.045192 17.377567 -0.024469
-2.242713 17.217804 0.554180
-1.745305 16.719160 -0.603119
-2.221829 17.338047 0.478958
-1.741489 16.841955 -0.669844
-1.929203 16.983664 -0.201095
-1.713489 16.703953 -0.688543
-1.916549 17.125330 -0.285746
-1.821241 16.792385 -0.432808
-2.093295 17.125790 0.141159
-2.064469 17.239408 0.072111
-1.819481 16.915110 -0.466692
-1.714202 16.710922 -0.665802
-1.939794 16.886597 -0.173809
-2.087126 17.435692 0.057891
-2.088939 17.134665 0.151610
-1.813079 16.924034 -0.489084
-1.732951 16.869177 -0.694449
-2.103933 17.030825 0.231743
-1.758600 16.766966 -0.559352
-1.691289 16.985689 -0.799295
-1.807865 17.078310 -0.559752
-1.938628 17.035025 -0.195270
-1.788666 17.248857 -0.651978
-1.850515 16.851982 -0.375283
-1.924519 17.357880 -0.328518
-2.085713 17.036474 0.164868
-1.676467 16.846813 -0.794736
-1.781821 17.073780 -0.591242
-1.892403 17.345795 -0.423118
-2.090902 17.318043 0.105313
-1.676357 16.857121 -0.792644
-1.694554 17.016203 -0.779425
-1.959573 16.950459 -0.106373
-1.930203 17.207308 -0.262891
-2.248778 17.305067 0.553071
-1.937721 17.081827 -0.222520
-2.229017 17.439800 0.476626
-1.918338 17.226192 -0.310847
-1.824535 16.880121 -0.456073
-1.936363 16.965666 -0.184890
-2.091493 17.213837 0.134144
-2.069820 17.342020 0.057504
-1.816114 17.003666 -0.492966
-2.083831 17.217875 0.143267
-1.820521 17.024656 -0.521403
-2.113021 17.117403 0.222475
-1.773136 16.865892 -0.600199
-1.931572 17.117748 -0.210679
-1.797153 17.168625 -0.583248
-1.848667 16.932995 -0.395995
-1.778889 17.353935 -0.684879
-2.094420 17.129257 0.158155
-1.923437 17.471422 -0.353487
-1.786384 17.182653 -0.629939
-1.969680 17.043381 -0.127785
-1.880524 17.449352 -0.445153
-2.099408 17.427170 0.093793
-2.254589 17.396843 0.552724
-1.932547 17.313314 -0.285512
-1.752791 16.897272 -0.666210
-1.942579 17.180395 -0.242400
-1.721888 17.365082 -0.777481
-1.820322 16.962698 -0.475094
-1.939746 17.055012 -0.200661
-1.917716 17.329559 -0.334602
-2.094745 17.308380 0.126984
-1.817400 17.100494 -0.523345
-2.078328 17.453230 0.042871
-2.091950 17.317133 0.130909
-2.111595 17.197147 0.215993
-1.808223 17.106476 -0.538695
-1.762118 16.942347 -0.620760
-1.945512 17.227854 -0.237935
-1.795315 17.276133 -0.616123
-1.847082 17.020191 -0.420297
-1.780918 17.481865 -0.729467
-2.096566 17.217930 0.152523
-1.970521 17.129465 -0.143508
-1.780734 17.285738 -0.662893
-1.753463 16.988716 -0.696650
-1.940246 17.431061 -0.311518
-1.717531 17.104944 -0.757544
-1.944146 17.280634 -0.260210
-1.698163 16.953524 -0.772980
-1.826843 17.061316 -0.503945
-1.951155 17.157677 -0.221653
-1.697586 16.959345 -0.750380
-1.807699 17.187862 -0.546260
-2.107163 17.419085 0.116516
-1.914577 17.438269 -0.358009
-2.119004 17.290850 0.206008
-2.098903 17.421005 0.119702
-1.819156 17.222071 -0.577072
-1.763963 17.039888 -0.655175
-1.706448 17.136353 -0.779031
-1.944914 17.328192 -0.258273
-1.843999 17.109793 -0.443642
-1.794544 17.390446 -0.650878
-2.106190 17.319201 0.145693
-1.969868 17.220058 -0.161371
-1.773419 17.395950 -0.696549
-1.946787 17.387684 -0.279887
-1.709041 17.202549 -0.790636
-1.697429 17.049664 -0.807998
-1.827447 17.159090 -0.528543
-1.957558 17.259390 -0.238782
-1.699049 17.058634 -0.788757
-1.807181 17.295582 -0.578677
-2.127080 17.388954 0.196412
-1.809449 17.318981 -0.600016
-1.769161 17.145483 -0.694141
-1.944185 17.432285 -0.279936
-1.853793 17.218365 -0.477716
-2.110917 17.418774 0.140625
-1.974176 17.319979 -0.180356
-1.948375 17.498596 -0.300513
-1.827947 17.259674 -0.554150
-1.951662 17.353531 -0.252010
-2.127283 17.480637 0.190537
-1.805681 17.405268 -0.611384
-1.806386 17.430876 -0.629311
-1.762829 17.242983 -0.724724
-1.849927 17.315907 -0.502488
-1.976582 17.421982 -0.199243
-1.722718 17.261841 -0.769868
-1.823807 17.362661 -0.578488
-1.958482 17.466234 -0.271109
-1.738954 17.322748 -0.740539
-1.845005 17.417315 -0.528219
-1.715631 17.366344 -0.801562
-1.825462 17.478851 -0.608128
-1.732197 17.431547 -0.775154
