# .PCD v0.7 - Point Cloud Data file format
VERSION 0.7
FIELDS x y z
SIZE 4 4 4
TYPE F F F
COUNT 1 1 1
WIDTH 87
HEIGHT 1
VIEWPOINT 0 0 0 1
POINTS 87
DATA ascii
-2.222646 17.743059 0.381909
-2.047053 17.731075 -0.072779
-2.091990 17.783665 0.020668
-2.252535 17.776394 0.470970
-2.229649 17.995285 0.377692
-2.087233 17.906492 0.010249
-1.901708 17.830421 -0.425488
-2.104950 17.763720 0.066262
-2.075576 17.792351 0.005450
-2.046996 18.003231 -0.106707
-2.236487 18.139698 0.375960
-2.096194 18.054485 -0.005457
-2.101717 17.881088 0.058288
-1.914941 17.999817 -0.465105
-1.929817 17.782635 -0.375611
-1.868867 17.992138 -0.575756
-2.268674 18.029884 0.472442
-2.117535 17.752913 0.095852
-2.105995 17.746712 0.088424
-1.898968 17.793360 -0.432635
-2.247142 18.297113 0.374582
-1.742688 17.754147 -0.802547
-2.121261 18.040539 0.043835
-1.923898 18.174952 -0.506044
-1.912273 17.895920 -0.390538
-1.946230 17.736546 -0.340650
-1.865344 18.155813 -0.614762
-2.275301 18.166224 0.474920
-2.108794 17.860216 0.092999
-2.081162 18.063560 -0.022711
-2.114922 18.388527 -0.037451
-2.263383 18.477823 0.372413
-1.935487 17.776913 -0.345838
-2.128192 17.753765 0.125547
-1.767601 17.900787 -0.796191
-2.302324 18.065485 0.564683
-1.900161 18.307695 -0.525326
-1.903457 18.028065 -0.413079
-1.934497 17.849312 -0.354632
-2.291540 18.326698 0.475575
-1.859669 18.326077 -0.652909
-2.139065 18.029434 0.078028
-1.786774 17.765385 -0.713234
-2.112267 17.999062 0.066893
-1.901303 18.095181 -0.499786
-1.790901 17.799494 -0.725446
-2.056653 18.504879 -0.166120
-1.972876 17.749638 -0.256604
-2.126224 17.868111 0.123878
-2.311641 18.200363 0.568735
-1.916567 18.529358 -0.576578
-1.944073 18.003290 -0.383410
-1.921570 18.217260 -0.454255
-1.956149 17.815710 -0.320916
-2.307674 18.496508 0.478612
-1.772379 17.890005 -0.744371
-1.860909 18.526094 -0.700699
-2.102588 18.400297 -0.059392
-1.896948 18.251936 -0.531247
-1.833736 17.769493 -0.620300
-1.966439 17.866495 -0.274611
-2.152778 18.027992 0.112910
-2.330934 18.358547 0.574594
-2.142979 18.045691 0.151752
-1.957365 18.175190 -0.415942
-1.768772 18.040398 -0.787815
-1.815758 17.878920 -0.642988
-2.084801 18.538795 -0.066186
-1.779361 18.090029 -0.801830
-1.927595 18.194626 -0.424305
-2.343958 18.515772 0.581381
-2.152479 18.187174 0.141570
-1.815643 17.999771 -0.734244
-1.926891 18.584885 -0.521759
-2.120803 18.439939 0.033812
-2.154901 18.485790 0.057924
-1.759606 18.193285 -0.829615
-1.822876 18.041182 -0.690052
-1.903626 18.640884 -0.616631
-1.768152 18.244604 -0.838646
-2.162281 18.340405 0.131524
-1.953322 18.232950 -0.377224
-1.817314 18.190418 -0.727552
-1.931083 18.544300 -0.491354
-2.174691 18.480715 0.102869
-2.169664 18.496138 0.122813
-1.982893 18.622320 -0.439840
