# .PCD v0.7 - Point Cloud Data file format
VERSION 0.7
FIELDS x y z
SIZE 4 4 4
TYPE F F F
COUNT 1 1 1
WIDTH 18
HEIGHT 1
VIEWPOINT 0 0 0 1
POINTS 18
DATA ascii
1.301718 25.069174 0.844523
1.325850 25.051949 0.798062
1.302104 25.104063 0.839583
1.251370 25.096609 0.951303
1.284112 25.153181 0.881499
1.388889 25.060957 0.611555
1.213338 25.114542 1.058335
1.326792 24.849911 0.834960
1.314455 24.886909 0.884442
1.306433 24.903669 0.872634
1.170067 25.155483 1.166233
1.255564 24.893513 0.983071
1.254839 24.988180 0.924377
1.288550 24.950687 0.909586
1.395358 24.886923 0.655728
1.210025 24.899916 1.080879
1.179565 24.975447 1.188404
1.275479 24.834112 0.951384
