# .PCD v0.7 - Point Cloud Data file format
VERSION 0.7
FIELDS x y z
SIZE 4 4 4
TYPE F F F
COUNT 1 1 1
WIDTH 205
HEIGHT 1
VIEWPOINT 0 0 0 1
POINTS 205
DATA ascii
-2.280299 17.675882 0.503982
-2.266094 17.709419 0.435520
-2.297238 17.699217 0.512134
-2.291173 17.696135 0.535213
-2.287372 17.759556 0.496585
-2.291197 17.773258 0.530884
-2.289467 17.841490 0.490662
-2.158636 17.718048 0.108837
-2.126244 17.718714 0.037653
-2.160001 17.712597 0.135677
-2.276936 17.838945 0.528670
-2.315305 17.876041 0.496562
-2.280131 17.891106 0.416152
-2.151107 17.714224 0.109879
-2.322531 17.955364 0.481624
-2.144268 17.790180 0.098360
-2.028388 17.706774 -0.261740
-2.117864 17.801228 0.022981
-2.153458 17.789156 0.124949
-2.322515 17.964651 0.521464
-2.019199 17.659718 -0.249711
-2.306429 17.952549 0.491350
-2.034465 17.678556 -0.229977
-2.142879 17.792061 0.097011
-2.274828 17.976772 0.409325
-2.306167 18.027781 0.477533
-2.137881 17.872692 0.086337
-1.986537 17.731339 -0.345615
-1.913239 17.672913 -0.585732
-2.019140 17.790215 -0.282184
-2.155179 17.878315 0.112824
-2.132761 17.910246 0.000066
-2.315285 18.044758 0.519890
-1.878296 17.657225 -0.665450
-2.018602 17.747282 -0.274040
-2.310544 18.044165 0.485325
-2.030882 17.764412 -0.250166
-2.160772 17.899120 0.077139
-2.277445 18.074686 0.400228
-2.306487 18.120728 0.472459
-2.167051 17.997068 0.063155
-1.903321 17.681505 -0.582982
-1.979861 17.821947 -0.369932
-1.924570 17.714684 -0.565582
-1.914392 17.774336 -0.624306
-2.171273 17.986708 0.096551
-2.318539 18.137608 0.517136
-2.126028 18.003023 -0.015934
-1.997777 17.819063 -0.287601
-2.315495 18.142427 0.479748
-1.867030 17.744284 -0.695725
-2.015601 17.842348 -0.264916
-2.154596 17.985703 0.064538
-2.290261 18.187067 0.391664
-2.314190 18.224493 0.467038
-2.153666 18.081778 0.051826
-1.891918 17.765623 -0.609743
-1.985784 17.931913 -0.403482
-1.888535 17.848967 -0.643919
-2.146664 18.056168 0.091116
-2.328517 18.243603 0.514513
-2.322253 18.246294 0.474651
-2.007577 17.928844 -0.319160
-2.022477 17.948549 -0.291612
-1.850115 17.831932 -0.724035
-2.291167 18.294127 0.384145
-2.318437 18.329931 0.463438
-1.877626 17.851900 -0.636245
-1.924868 17.917765 -0.636343
-1.899934 17.973318 -0.693390
-2.332566 18.347969 0.513704
-2.024182 18.104748 -0.366006
-2.329816 18.357737 0.469641
-2.129742 18.222055 -0.054309
-1.840823 17.933271 -0.761951
-2.296321 18.411020 0.376752
-2.329033 18.449097 0.458734
-2.172676 18.317200 0.015799
-1.894508 17.980318 -0.689495
-1.914956 18.016815 -0.666238
-1.977391 18.146656 -0.462921
-2.180099 18.302290 0.056623
-2.339923 18.462276 0.513348
-2.339498 18.476063 0.465622
-2.006967 18.142279 -0.374254
-2.034549 18.175816 -0.348030
-2.157144 18.299032 0.016505
-2.133043 18.344572 -0.074690
-2.163872 18.422693 0.002361
-1.873559 18.069128 -0.714428
-1.907582 18.123959 -0.700371
-1.976995 18.270111 -0.497134
-2.177896 18.414049 0.044973
-2.162435 18.421551 -0.001231
-2.132200 18.468056 -0.094996
-1.963957 18.385744 -0.525582
-1.864922 18.304726 -0.805054
-1.993858 18.364418 -0.427986
-2.013775 18.389137 -0.390658
-1.859908 18.302576 -0.794248
-2.307744 17.682631 0.563652
-2.294393 17.704252 0.534764
-2.295563 17.725655 0.553150
-2.307434 17.753817 0.557658
-2.294140 17.777529 0.531350
-2.290727 17.796616 0.552497
-2.192653 17.702692 0.231630
-2.166701 17.699181 0.165088
-2.158237 17.690151 0.137615
-2.162849 17.699816 0.147944
-2.304978 17.864315 0.528373
-2.291132 17.874552 0.552657
-2.198551 17.782478 0.219658
-2.064628 17.670330 -0.122164
-2.165633 17.777193 0.151990
-2.162419 17.775154 0.125334
-2.166542 17.782471 0.137967
-2.036875 17.652411 -0.186701
-2.291324 17.932739 0.527617
-2.328563 17.989632 0.550599
-2.039637 17.697084 -0.218732
-2.326686 18.001278 0.541971
-2.034513 17.713219 -0.234819
-2.058722 17.745543 -0.139116
-2.155532 17.852686 0.117023
-2.157886 17.857399 0.131421
-2.033604 17.731993 -0.206483
-2.321480 18.044744 0.523931
-2.322952 18.068707 0.551504
-2.204563 17.946335 0.196226
-2.038600 17.779852 -0.236103
-1.933751 17.672203 -0.511870
-2.324036 18.082043 0.538712
-1.953712 17.702698 -0.436750
-1.925694 17.675547 -0.505456
-2.033061 17.797493 -0.253794
-2.176513 17.954329 0.123496
-2.158099 17.940079 0.105537
-2.171243 17.957027 0.119869
-2.025708 17.810186 -0.223876
-1.922541 17.714249 -0.546520
-2.315757 18.126608 0.523732
-1.857969 17.658495 -0.716783
-2.197672 18.023846 0.187915
-2.324407 18.159464 0.554032
-2.021080 17.850142 -0.245314
-1.932623 17.759501 -0.536819
-2.332101 18.176895 0.534652
-1.867561 17.696846 -0.667248
-1.951593 17.787994 -0.463940
-1.919135 17.760521 -0.533063
-2.022958 17.878546 -0.269194
-2.167889 18.034016 0.112673
-2.175494 18.050276 0.090356
-2.178351 18.054649 0.109296
-2.007342 17.880455 -0.238501
-1.917531 17.801695 -0.573453
-2.323238 18.224941 0.523074
-2.188559 18.101183 0.179395
-2.337821 18.265497 0.555929
-1.918098 17.836248 -0.554468
-2.339420 18.275919 0.530321
-1.864718 17.788059 -0.701186
-1.938531 17.866056 -0.483855
-2.053417 17.998423 -0.195713
-2.037865 17.990770 -0.298037
-2.149142 18.116295 0.087522
-2.032483 18.003151 -0.274523
-2.335856 18.333046 0.522131
-1.901541 17.882837 -0.593479
-2.198298 18.203154 0.165992
-2.342533 18.366207 0.558832
-2.346714 18.378893 0.527824
-1.942121 17.962400 -0.600676
-1.942143 17.966370 -0.517173
-1.917050 17.953272 -0.599696
-2.341323 18.438309 0.522864
-1.920779 18.008297 -0.640973
-2.201789 18.303114 0.153570
-2.352019 18.484846 0.524884
-1.923958 18.045462 -0.618340
-1.942302 18.068344 -0.548668
-1.906776 18.046404 -0.628052
-2.185639 18.359732 0.082666
-2.206085 18.409725 0.141548
-1.910140 18.105026 -0.668364
-1.926654 18.157614 -0.651565
-1.932601 18.164974 -0.576390
-1.903735 18.154942 -0.664435
-2.167734 18.434977 0.058892
-2.192867 18.478985 0.072354
-2.181585 18.470243 0.045873
-1.911515 18.223553 -0.707137
-2.035411 18.380615 -0.352140
-1.921638 18.266443 -0.681543
-1.932695 18.277523 -0.611060
-2.044349 18.401451 -0.281368
-1.897799 18.265615 -0.700561
-2.028618 18.419893 -0.388575
-2.011550 18.412210 -0.368335
-1.906350 18.341808 -0.743230
-1.919340 18.386501 -0.716057
-1.922892 18.385658 -0.642324
-1.894583 18.387516 -0.741221
-1.920066 18.519072 -0.754603
