# .PCD v0.7 - Point Cloud Data file format
VERSION 0.7
FIELDS x y z
SIZE 4 4 4
TYPE F F F
COUNT 1 1 1
WIDTH 57
HEIGHT 1
VIEWPOINT 0 0 0 1
POINTS 57
DATA ascii
1.489546 22.422646 0.883804
1.496218 22.346401 0.853236
1.491999 22.322384 0.912135
1.342877 22.429836 1.239828
1.337287 22.439907 1.276373
1.498661 22.242332 0.877274
1.512657 22.432999 0.785808
1.492031 22.220490 0.938902
1.343626 22.316729 1.251626
1.335269 22.330233 1.291399
1.499491 22.142551 0.901226
2.051630 23.098127 0.894873
1.370889 22.492075 1.187192
1.497244 22.320518 0.842564
1.352040 22.495947 1.223886
1.490858 22.124393 0.963995
1.348594 22.215046 1.265368
1.342030 22.241194 1.310177
1.520870 22.234364 0.850127
1.371379 22.379282 1.208037
1.501961 22.222038 0.870012
1.348022 22.373838 1.237174
1.505498 22.427773 0.786579
1.356287 22.123262 1.279844
1.347897 22.153898 1.327872
1.522269 22.138866 0.879586
1.374074 22.277781 1.227673
1.349211 22.266998 1.251308
1.502990 22.123997 0.895675
1.398271 22.439291 1.113969
1.358812 22.452541 1.204150
1.378518 22.183270 1.248780
1.364975 22.186073 1.271952
1.498739 22.201719 0.845966
1.396104 22.323221 1.137276
1.513286 22.410940 0.757911
1.354260 22.333788 1.220508
1.530765 22.138620 0.784059
1.438252 22.506657 1.016979
1.376287 22.086151 1.265684
1.366662 22.089239 1.286973
1.513880 22.121464 0.876522
1.398559 22.220095 1.160940
1.357708 22.231611 1.238415
1.515774 22.302202 0.791940
1.526695 22.037621 0.815641
1.433109 22.378124 1.043938
1.373232 22.415697 1.187535
1.387944 22.105829 1.177516
1.366315 22.141914 1.258259
1.263012 22.471224 1.496049
1.435071 22.267902 1.071366
1.368280 22.295437 1.205476
1.526710 22.112564 0.857341
1.435828 22.163485 1.097119
1.377588 22.205149 1.229339
1.377147 22.104561 1.248417
