# .PCD v0.7 - Point Cloud Data file format
VERSION 0.7
FIELDS x y z
SIZE 4 4 4
TYPE F F F
COUNT 1 1 1
WIDTH 311
HEIGHT 1
VIEWPOINT 0 0 0 1
POINTS 311
DATA ascii
1.295247 25.839111 0.713900
1.290695 25.797539 0.726865
1.263211 25.830879 0.808615
1.258807 25.829075 0.811976
1.290409 25.788271 0.730347
1.290936 25.749735 0.743280
1.258819 25.781569 0.823506
1.264121 25.784298 0.828355
1.195545 25.836021 0.976331
1.191714 25.842920 0.991717
1.295869 25.744274 0.748821
1.296391 25.805567 0.718484
1.280918 25.826796 0.774283
1.300914 25.791370 0.706258
1.255751 25.833231 0.820940
1.282451 25.699381 0.757887
1.250331 25.731213 0.838112
1.251724 25.729923 0.840416
1.194889 25.789038 0.992022
1.195546 25.796661 1.006837
1.285515 25.692762 0.763029
1.304765 25.813210 0.700950
1.291728 25.756439 0.736680
1.272543 25.776278 0.791330
1.295869 25.820557 0.731344
1.313178 25.793964 0.672642
1.299990 25.744560 0.725254
1.256522 25.785873 0.838588
1.213127 25.822639 0.939739
1.255403 25.837927 0.820402
1.184973 25.840643 1.014339
1.279045 25.652061 0.772461
1.254872 25.687113 0.856214
1.252946 25.684105 0.856511
1.187765 25.740328 1.005446
1.183063 25.743374 1.016108
1.298795 25.764296 0.719632
1.278902 25.643576 0.778038
1.283776 25.706530 0.752521
1.273489 25.730631 0.810725
1.283370 25.768051 0.748452
1.310650 25.816507 0.682827
1.309969 25.745399 0.692446
1.293490 25.695211 0.742703
1.245247 25.734245 0.852422
1.319938 25.787382 0.636615
1.211724 25.777245 0.956803
1.088418 25.815699 1.251448
1.303725 25.803797 0.682295
1.092994 25.830809 1.283780
1.257656 25.792059 0.839311
1.230440 25.811485 0.895128
1.184680 25.792402 1.029520
1.256274 25.839668 0.820423
1.255890 25.841736 0.828770
1.285851 25.608793 0.790107
1.111644 25.861145 1.234121
1.255707 25.641632 0.873171
1.256429 25.639118 0.872149
1.189543 25.695889 1.022426
1.183729 25.840176 1.028232
1.185591 25.697346 1.031717
1.286268 25.601683 0.796569
1.298405 25.717937 0.739863
1.285144 25.661489 0.770712
1.081211 25.855534 1.267925
1.261827 25.679344 0.825420
1.288558 25.724241 0.770231
1.304562 25.697870 0.712016
1.301056 25.765125 0.703152
1.293938 25.650057 0.760521
1.251660 25.691303 0.870925
1.316902 25.740520 0.658166
1.204157 25.727013 0.971784
1.094117 25.770613 1.266968
1.086141 25.781925 1.293901
1.306209 25.757629 0.706089
1.249674 25.741222 0.855501
1.223015 25.762022 0.912202
1.176970 25.741396 1.042408
1.255852 25.792377 0.841001
1.251340 25.792459 0.849407
1.287110 25.563915 0.805860
1.250102 25.595354 0.887511
1.107276 25.812782 1.248665
1.250265 25.591469 0.885604
1.191324 25.651455 1.039408
1.170440 25.786615 1.039572
1.188540 25.651920 1.046121
1.123845 25.846041 1.189891
1.282507 25.555635 0.811660
1.279095 25.613682 0.786609
1.294309 25.670198 0.758949
1.082252 25.808016 1.282272
1.264676 25.635798 0.844872
1.279832 25.675001 0.787795
1.308835 25.653952 0.733424
1.294390 25.604908 0.778340
1.304909 25.720602 0.725766
1.249707 25.644552 0.887110
1.205550 25.682905 0.989626
1.088331 25.738087 1.309672
1.322236 25.697489 0.682041
1.082858 25.718208 1.272965
1.305964 25.712049 0.728416
1.254360 25.697899 0.875699
1.170119 25.829132 1.038304
1.225830 25.717543 0.932000
1.180088 25.697668 1.058555
1.075713 25.845528 1.287102
1.252672 25.744749 0.860459
1.105729 25.766624 1.263637
1.831224 25.691158 0.971161
1.771785 25.728039 1.074293
1.249972 25.744137 0.869962
1.238023 25.541769 0.895932
1.183735 25.604177 1.050906
1.185022 25.604771 1.058256
1.174952 25.741592 1.058023
1.124641 25.799627 1.207192
1.280980 25.509497 0.826640
1.280496 25.569582 0.804456
1.289323 25.623281 0.777314
1.077633 25.759039 1.292284
1.256816 25.588694 0.859674
1.281344 25.630743 0.808081
1.302010 25.606804 0.751042
1.276465 25.554541 0.792166
1.300065 25.674452 0.746223
1.084443 25.692192 1.322315
1.244437 25.596090 0.901289
1.203235 25.637417 1.006321
1.313266 25.649357 0.702559
1.082483 25.671076 1.285360
1.294592 25.662313 0.747300
1.148113 25.826736 1.149313
1.247390 25.649975 0.891222
1.175719 25.785923 1.058874
1.226808 25.672838 0.951051
1.182261 25.652905 1.074680
1.071625 25.796991 1.298347
1.243945 25.695511 0.878023
1.103824 25.721731 1.279122
1.244480 25.505360 0.917746
1.278146 25.471283 0.834438
1.243645 25.696503 0.889159
1.179079 25.558956 1.065274
1.244474 25.499775 0.914094
1.176733 25.697155 1.075006
1.183906 25.559229 1.072027
1.276362 25.465200 0.840664
1.124131 25.753435 1.224981
1.836844 25.703777 0.974982
1.289389 25.578468 0.795995
1.076868 25.712233 1.305538
1.779401 25.719809 1.039353
1.276418 25.585686 0.825751
1.289249 25.558382 0.767625
1.289389 25.514273 0.812600
1.294274 25.627270 0.766657
1.077266 25.645517 1.332604
1.235128 25.548437 0.914484
1.197242 25.591478 1.021523
1.310295 25.604374 0.723419
1.088779 25.628304 1.301424
1.069593 25.832336 1.306091
1.293461 25.617561 0.768908
1.141076 25.776953 1.165529
1.242292 25.603216 0.907147
1.167264 25.736507 1.073135
1.218529 25.625139 0.967061
1.175594 25.605743 1.086554
1.070469 25.750511 1.312461
1.244566 25.652065 0.897588
1.091042 25.671585 1.288212
1.238913 25.460030 0.931743
1.274840 25.426777 0.847977
1.183687 25.516733 1.082688
1.241166 25.455269 0.927632
1.239579 25.649704 0.907899
1.175758 25.652380 1.090869
1.187424 25.515190 1.087322
1.267088 25.418491 0.853515
1.117571 25.706116 1.239294
1.280017 25.480608 0.837799
1.833759 25.711233 0.961668
1.073373 25.666014 1.317324
1.261132 25.502920 0.896282
1.285355 25.544210 0.848339
1.279336 25.468214 0.827170
1.742610 25.656883 0.902905
1.290773 25.581846 0.786285
1.331951 25.536509 0.963202
1.253565 25.566805 1.061448
1.067157 25.786993 1.320342
1.310505 25.560339 0.744196
1.084730 25.580723 1.312327
1.285889 25.572012 0.787899
1.239596 25.558067 0.924707
1.165869 25.691132 1.090206
1.136832 25.728451 1.182521
1.211201 25.578491 0.983098
1.171692 25.558933 1.099553
1.065106 25.703133 1.323847
1.093801 25.629129 1.304874
1.243710 25.607140 0.915896
1.239819 25.416431 0.948014
1.272989 25.382835 0.863126
1.180014 25.473488 1.096736
1.240091 25.410666 0.941061
1.234234 25.604053 0.926777
1.171995 25.606339 1.105960
1.180263 25.468529 1.097619
1.270257 25.375717 0.869327
1.112854 25.659035 1.254357
1.274065 25.435608 0.852659
1.072671 25.621071 1.329886
1.278094 25.487818 0.829734
1.250158 25.456753 0.910478
1.270254 25.496054 0.862594
1.281724 25.426096 0.844700
1.293688 25.472464 0.806680
1.816221 25.708990 0.946739
1.234175 25.460884 0.945899
1.199183 25.505039 1.056149
1.066146 25.741293 1.336550
1.078340 25.533403 1.320902
1.724950 25.645725 0.866908
1.169666 25.648636 1.109686
1.320242 25.539900 0.969669
1.298150 25.532255 0.812496
1.250846 25.548058 1.017685
1.130751 25.679728 1.198766
1.622550 25.665213 1.321488
1.093384 25.585741 1.321624
1.231367 25.559320 0.931272
1.237465 25.372974 0.961581
1.175785 25.428877 1.109902
1.238629 25.366398 0.955352
1.169574 25.561016 1.120219
1.272959 25.573513 0.960992
1.177344 25.423702 1.110300
1.114781 25.615391 1.273437
1.269985 25.391769 0.867920
1.280986 25.445219 0.848847
1.247888 25.412216 0.926835
1.266284 25.452059 0.880296
1.275386 25.381435 0.860422
1.289721 25.428469 0.824383
1.232351 25.417870 0.960699
1.187705 25.459360 1.068763
1.282915 25.492760 0.824475
1.303717 25.472139 0.784836
1.166442 25.603037 1.125991
1.235975 25.469088 0.957771
1.284118 25.484983 0.829199
1.211956 25.492115 1.020633
1.167838 25.470263 1.127730
1.133215 25.636520 1.219058
1.309901 25.541105 0.978762
1.173047 25.385748 1.124301
1.643308 25.676704 1.360532
1.230449 25.515097 0.965573
1.177731 25.379660 1.125309
1.110669 25.570614 1.289010
1.247528 25.369759 0.943214
1.275188 25.400993 0.865770
1.260486 25.407835 0.897216
1.287662 25.386553 0.842104
1.232380 25.375080 0.976215
1.187313 25.415977 1.085485
1.279488 25.449203 0.843376
1.298951 25.427881 0.804588
1.159571 25.557920 1.140456
1.233351 25.425808 0.974622
1.276979 25.440052 0.846969
1.206542 25.447569 1.036709
1.167301 25.426111 1.142376
1.127736 25.590113 1.235826
1.231721 25.472355 0.969996
1.164538 25.472416 1.151301
1.225148 25.470396 0.984091
1.104718 25.525621 1.303850
1.267940 25.356224 0.881102
1.255637 25.364664 0.914181
1.185137 25.374228 1.100782
1.274220 25.405432 0.861548
1.293322 25.385366 0.823272
1.629950 25.672724 1.386612
1.225570 25.380594 0.988719
1.200769 25.404284 1.053299
1.162194 25.382320 1.154805
1.274083 25.396955 0.867123
1.125580 25.545424 1.254604
1.225418 25.428621 0.985352
1.158510 25.428505 1.163356
1.220827 25.427668 1.002288
1.102480 25.482018 1.319840
1.274506 25.363277 0.881618
1.155629 25.471148 1.173671
1.268847 25.354115 0.884949
1.198150 25.361015 1.070153
1.123456 25.501667 1.273036
1.223330 25.385794 1.003440
1.158120 25.385134 1.180099
1.215030 25.383459 1.019228
1.150664 25.428129 1.188195
1.117123 25.457012 1.288741
1.148994 25.385900 1.205076
1.121589 25.414835 1.311889
1.106839 25.368393 1.322138
