# .PCD v0.7 - Point Cloud Data file format
VERSION 0.7
FIELDS x y z
SIZE 4 4 4
TYPE F F F
COUNT 1 1 1
WIDTH 257
HEIGHT 1
VIEWPOINT 0 0 0 1
POINTS 257
DATA ascii
1.244233 25.243164 0.946024
1.233925 25.252916 0.973677
1.241635 25.255157 0.956547
1.220033 25.222870 1.013093
1.247944 25.200691 0.962177
1.237636 25.210443 0.989831
1.191714 25.226564 1.095669
1.240896 25.213764 0.972577
1.238146 25.217009 0.986395
1.211995 25.234838 1.039835
1.168127 25.242104 1.157028
1.211070 25.260191 1.046990
1.220461 25.179546 1.026913
1.247075 25.158497 0.976125
1.241816 25.222624 0.975411
1.225336 25.167078 1.000186
1.244423 25.221285 0.974796
1.129130 25.265177 1.270293
1.205157 25.245729 1.055847
1.197608 25.222900 1.082379
1.192287 25.184036 1.111576
1.217909 25.248259 1.023370
1.238240 25.229858 0.979180
1.155028 25.250990 1.192022
1.238702 25.170860 0.987368
1.229136 25.174480 0.999091
1.246954 25.221420 0.963130
1.209820 25.192856 1.054271
1.166742 25.199448 1.169754
1.209935 25.218212 1.064237
1.201545 25.253826 1.075616
1.219587 25.136435 1.041221
1.228361 25.181185 0.987982
1.244751 25.114798 0.988835
1.229982 25.124720 1.016720
1.231871 25.179050 0.988094
1.135801 25.251551 1.253118
1.124193 25.221893 1.283979
1.206786 25.204128 1.074208
1.150205 25.259102 1.222906
1.199242 25.181297 1.100742
1.188676 25.141466 1.124419
1.218755 25.207329 1.043444
1.230820 25.188715 0.995560
1.151009 25.207834 1.206079
1.237438 25.128084 1.002534
1.237694 25.180027 0.978768
1.233002 25.132793 1.017339
1.209478 25.150204 1.069809
1.159483 25.257233 1.187075
1.168623 25.155788 1.185537
1.147080 25.237564 1.229992
1.208419 25.176567 1.082344
1.196362 25.212599 1.091883
1.222793 25.093485 1.056160
1.238652 25.139460 1.009181
1.240204 25.071182 1.001663
1.128668 25.210192 1.266208
1.229117 25.081606 1.031032
1.239027 25.138203 1.008681
1.138912 25.264536 1.251900
1.119281 25.179531 1.297312
1.209737 25.162313 1.092086
1.143446 25.216486 1.235495
1.199451 25.140026 1.117153
1.187428 25.098686 1.139591
1.217771 25.166147 1.062779
1.151616 25.166225 1.221636
1.234827 25.147829 1.015892
1.238023 25.085558 1.018445
1.238548 25.139099 0.998845
1.230827 25.089890 1.032137
1.206401 25.108095 1.083881
1.154824 25.215548 1.204930
1.145593 25.196838 1.247748
1.167753 25.111750 1.200210
1.204168 25.135466 1.098986
1.198533 25.171457 1.111476
1.218257 25.049868 1.068993
1.233871 25.097897 1.024595
1.241187 25.028316 1.016720
1.227356 25.039286 1.044621
1.136896 25.223347 1.268429
1.132677 25.168377 1.286904
1.234231 25.095722 1.024451
1.118572 25.137209 1.313717
1.204431 25.120289 1.106275
1.145099 25.174881 1.253865
1.188629 25.097250 1.129119
1.216812 25.125885 1.081762
1.231497 25.106853 1.032905
1.182508 25.055405 1.153284
1.155491 25.123611 1.240250
1.229961 25.043158 1.031522
1.231951 25.047823 1.049280
1.237963 25.097582 1.017327
1.205158 25.065315 1.099056
1.156224 25.175076 1.226241
1.139499 25.154564 1.264011
1.163229 25.068130 1.213048
1.202141 25.093359 1.115873
1.193369 25.130230 1.127750
1.202720 25.006594 1.076667
1.231844 25.055792 1.041482
1.130818 25.181992 1.284335
1.246235 24.984694 1.032764
1.125547 25.126099 1.300358
1.235150 24.995115 1.062134
1.227619 25.053909 1.039128
1.112773 25.095640 1.326330
1.201488 25.078054 1.122792
1.141647 25.133102 1.268801
1.188826 25.054134 1.146251
1.190448 25.012028 1.172885
1.206645 25.083447 1.097398
1.225930 25.065042 1.050394
1.146386 25.080286 1.250879
1.229644 25.000504 1.047070
1.231491 25.056566 1.034088
1.229795 25.004915 1.064086
1.201164 25.022160 1.113121
1.152504 25.133512 1.244474
1.138015 25.112913 1.282131
1.159618 25.023716 1.226617
1.196053 25.051085 1.132138
1.191350 25.088123 1.144640
1.221576 25.014399 1.054323
1.127885 25.139757 1.300857
1.123540 25.083986 1.317254
1.235681 24.960848 1.105122
1.242107 24.940737 1.044747
1.223761 25.011551 1.055277
1.237042 24.950527 1.078283
1.107873 25.052357 1.340031
1.198946 25.035482 1.138457
1.135445 25.090950 1.282629
1.198233 25.012264 1.167093
1.199264 25.042305 1.113794
1.196557 24.968395 1.191748
1.219858 25.023691 1.066303
1.145149 25.036581 1.266419
1.248989 24.956448 1.070976
1.218603 25.015594 1.047902
1.243244 24.961367 1.086268
1.147874 25.091824 1.262341
1.219591 24.977978 1.136658
1.131940 25.070637 1.298402
1.176741 24.979736 1.250644
1.211496 25.009506 1.156790
1.190789 25.046598 1.163131
1.122760 25.099445 1.316785
1.244196 24.970261 1.080925
1.210992 24.918167 1.108383
1.122447 25.041075 1.334881
1.230252 24.897039 1.054268
1.244166 24.968420 1.081639
1.227029 24.907076 1.088546
1.130768 25.008873 1.371168
1.203758 24.992987 1.157448
1.135270 25.048166 1.300626
1.203549 24.968384 1.188028
1.214834 25.000605 1.140886
1.238954 24.980774 1.093150
1.175541 24.925291 1.196852
1.155462 24.992987 1.288353
1.224438 24.914560 1.076323
1.245965 24.972881 1.078442
1.218694 24.919479 1.091615
1.208271 24.934736 1.147410
1.139572 25.049633 1.278729
1.141593 25.027594 1.324490
1.179560 24.934340 1.267531
1.209078 24.965883 1.175259
1.179211 25.004494 1.176823
1.120765 25.057331 1.333686
1.137627 24.998772 1.363196
1.219784 24.929169 1.088357
1.211063 24.873323 1.123799
1.218835 24.927204 1.088700
1.229808 24.852657 1.068099
1.218849 24.862955 1.099912
1.128226 24.964443 1.387561
1.211839 24.949480 1.179496
1.132751 25.005589 1.316301
1.181753 24.925951 1.194847
1.212057 24.959160 1.159500
1.227910 24.939127 1.108070
1.175228 24.880781 1.213129
1.164458 24.948673 1.311134
1.223214 24.870852 1.091868
1.217092 24.931963 1.086106
1.217999 24.876230 1.108388
1.155795 25.007339 1.309854
1.196039 24.891373 1.157794
1.148917 24.985672 1.347899
1.147937 24.891251 1.266622
1.185457 24.924120 1.180981
1.198836 24.961105 1.205260
1.112898 25.016642 1.348509
1.220011 24.886045 1.105501
1.117153 24.956125 1.369535
1.222336 24.883993 1.108540
1.206030 24.828316 1.135782
1.227127 24.807440 1.082407
1.220769 24.818356 1.116073
1.188222 24.907717 1.185220
1.151980 24.961601 1.345958
1.176482 24.882996 1.209414
1.211775 24.898237 1.119200
1.190917 24.917061 1.169991
1.139279 24.906450 1.312823
1.175317 24.835930 1.228553
1.224216 24.826128 1.107659
1.218894 24.889301 1.107290
1.216771 24.831594 1.124295
1.151178 24.964718 1.328090
1.197572 24.847109 1.174814
1.121644 24.944330 1.351788
1.174846 24.920597 1.211487
1.184912 24.881662 1.199843
1.150760 24.844929 1.283874
1.133581 24.973244 1.379765
1.213821 24.842966 1.119697
1.216675 24.841373 1.123964
1.209256 24.782578 1.151819
1.189367 24.863789 1.203098
1.134273 24.919325 1.353412
1.174870 24.838692 1.226182
1.188687 24.876074 1.189840
1.210296 24.854736 1.138049
1.134400 24.862232 1.326897
1.175009 24.790485 1.245196
1.218350 24.846846 1.126153
1.217490 24.781664 1.120990
1.217377 24.786280 1.141305
1.131908 24.923786 1.338973
1.192703 24.803812 1.188530
1.122532 24.900610 1.372969
1.173387 24.878014 1.229981
1.186577 24.837271 1.219308
1.149927 24.799023 1.299291
1.127001 24.929581 1.395182
1.210901 24.798885 1.136953
1.213756 24.797293 1.141220
1.122068 24.875963 1.363811
1.183707 24.820253 1.218887
1.174190 24.794518 1.243327
1.203351 24.813259 1.153610
1.182244 24.833216 1.207344
1.131885 24.817808 1.343305
1.210094 24.805580 1.142200
1.124564 24.881721 1.355752
1.172844 24.834644 1.249210
1.182371 24.794321 1.236700
1.178568 24.790720 1.225963
1.124683 24.838673 1.378655
1.170469 24.791012 1.267702
