# .PCD v0.7 - Point Cloud Data file format
VERSION 0.7
FIELDS x y z
SIZE 4 4 4
TYPE F F F
COUNT 1 1 1
WIDTH 16
HEIGHT 1
VIEWPOINT 0 0 0 1
POINTS 16
DATA ascii
1.245475 25.411745 0.774073
1.279580 25.395369 0.750073
1.056738 25.570103 1.325703
1.272270 25.526634 0.677564
1.264126 25.359125 0.754783
1.326121 25.322073 0.653582
1.037749 25.585407 1.334671
1.105074 25.555016 1.217949
1.052976 25.345959 1.331539
1.273252 25.310410 0.714746
1.141930 25.543684 1.107252
1.049831 25.452188 1.281474
1.192688 25.532890 0.996512
1.086194 25.606260 1.228813
1.296911 25.279165 0.676202
1.090899 25.388493 1.243883
