# .PCD v0.7 - Point Cloud Data file format
VERSION 0.7
FIELDS x y z
SIZE 4 4 4
TYPE F F F
COUNT 1 1 1
WIDTH 30
HEIGHT 1
VIEWPOINT 0 0 0 1
POINTS 30
DATA ascii
1.251814 25.033020 0.826185
1.283433 25.039690 0.818493
1.326980 25.136280 0.693482
1.071650 25.197432 1.350050
1.260884 24.875422 0.852396
1.276860 25.123056 0.750671
1.270294 24.989212 0.814931
1.283399 24.877844 0.848327
1.321744 24.953497 0.730741
1.057390 25.190878 1.347891
1.118627 25.170303 1.252455
1.083135 25.044464 1.363808
1.269514 24.819592 0.841810
1.276548 24.940548 0.782975
1.152344 25.144735 1.152020
1.303642 25.101393 0.716564
1.323449 24.797779 0.764660
1.062604 25.006910 1.352976
1.123462 24.998177 1.267670
1.073849 25.091360 1.307333
1.098879 25.198273 1.259655
1.190222 25.096436 1.048687
1.273240 24.769444 0.811709
1.157171 24.969236 1.172098
1.303308 24.921904 0.753458
1.128402 24.841558 1.283624
1.085798 24.935303 1.321418
1.106929 25.024485 1.275782
1.198004 24.925350 1.076391
1.111716 24.859688 1.290362
