# .PCD v0.7 - Point Cloud Data file format
VERSION 0.7
FIELDS x y z
SIZE 4 4 4
TYPE F F F
COUNT 1 1 1
WIDTH 100
HEIGHT 1
VIEWPOINT 0 0 0 1
POINTS 100
DATA ascii
-3.756590 35.066734 0.836760
-3.718271 34.981117 0.820716
-3.716875 35.031288 0.854651
-3.729609 34.942257 0.842375
-3.710576 34.961216 0.829020
-3.746552 34.702950 0.813701
-3.685195 34.958126 0.841586
-3.740869 34.718517 0.833084
-3.745393 34.671082 0.823704
-3.673394 34.933266 0.843608
-3.671710 34.976135 0.859223
-3.689215 34.901802 0.851132
-3.722913 34.693935 0.841555
-3.734334 34.653271 0.841092
-3.641874 34.896446 0.833832
-3.711649 34.694611 0.850899
-3.718287 34.657230 0.846038
-3.619421 34.844761 0.813570
-3.654991 34.873451 0.868570
-3.626131 34.908611 0.852978
-3.690295 34.657444 0.848452
-3.593547 34.814789 0.809810
-3.703180 34.626408 0.853120
-3.684078 34.624935 0.850975
-3.677278 34.655239 0.857100
-3.582926 34.806599 0.820023
-3.599152 34.773945 0.828722
-3.574176 34.815044 0.824698
-3.663895 34.635975 0.866151
-3.784889 35.556763 1.427545
-3.672921 34.601299 0.864121
-3.655319 34.601082 0.864462
-3.647964 34.625511 0.870673
-3.562095 34.727627 0.830386
-3.627272 34.587105 0.859990
-3.643466 34.574104 0.876100
-3.609662 34.530811 0.835119
-3.606842 34.561607 0.852284
-3.579164 34.497646 0.816052
-3.593738 34.488220 0.832954
-3.571269 34.474785 0.817140
-3.566295 34.492622 0.827664
-3.554630 34.471653 0.827669
-3.559981 34.442421 0.823922
-4.050021 35.957108 2.251828
-4.040829 35.979374 2.269099
-4.025194 35.959728 2.285295
-4.027177 35.886990 2.258450
-3.735550 35.384712 0.836253
-3.680423 35.308075 0.826586
-3.744992 34.994076 0.808808
-3.724187 35.480549 0.846256
-3.626790 35.230701 0.813170
-3.704243 34.971092 0.824469
-3.655559 35.349125 0.808129
-3.724043 34.802486 0.837911
-3.732239 34.972164 0.816767
-3.641808 34.873909 0.786179
-3.663219 35.522343 0.959190
-3.743198 34.874573 0.835300
-3.691620 34.780632 0.850365
-3.747243 34.591576 0.831716
-3.689488 34.934589 0.823331
-3.722911 34.640884 0.832315
-3.817664 35.593243 1.365305
-3.708819 34.851128 0.850971
-3.646311 34.719498 0.831342
-3.713256 34.563549 0.833348
-3.743507 34.654186 0.830169
-3.632188 34.839607 0.785647
-3.691533 34.626663 0.847940
-3.596477 34.934967 0.900082
-3.671579 34.812263 0.854451
-3.602079 34.658222 0.810134
-3.728394 34.599064 0.836127
-3.688245 34.559258 0.857815
-3.712643 34.633942 0.843710
-3.824150 35.597683 1.405451
-3.641003 34.556118 0.815122
-3.618209 34.719585 0.814434
-4.077637 36.296902 2.252679
-3.701052 34.583992 0.853772
-3.649518 34.515453 0.844953
-3.680866 34.609634 0.853422
-3.600462 34.506504 0.799472
-4.103350 36.394741 2.253536
-3.670507 34.557320 0.861527
-3.601962 34.443115 0.805998
-3.626094 34.517857 0.801304
-4.077867 36.022564 2.243222
-4.085186 35.898899 2.250672
-3.618152 34.468864 0.809480
-3.596670 34.493652 0.810363
-3.573074 34.568005 0.918056
-4.081753 36.007080 2.415031
-3.591706 34.444870 0.818640
-4.069667 35.975567 2.247520
-4.064199 35.888973 2.268915
-3.573119 34.545517 0.924668
-3.571069 34.493721 0.932315
