# .PCD v0.7 - Point Cloud Data file format
VERSION 0.7
FIELDS x y z
SIZE 4 4 4
TYPE F F F
COUNT 1 1 1
WIDTH 288
HEIGHT 1
VIEWPOINT 0 0 0 1
POINTS 288
DATA ascii
1.279019 25.842365 0.679240
1.289877 25.827347 0.652843
1.252866 25.846401 0.774644
1.226996 25.869663 0.834242
1.298034 25.813368 0.594723
1.273237 25.786642 0.697329
1.309238 25.768375 0.643610
1.283721 25.771976 0.671789
1.284380 25.848366 0.672342
1.253383 25.795420 0.794692
1.274287 25.839314 0.727651
1.227614 25.815681 0.852070
1.308248 25.817806 0.556751
1.315376 25.820787 0.559813
1.300956 25.763035 0.616723
1.271629 25.732828 0.715279
1.219403 25.863579 0.844133
1.289412 25.705534 0.660799
1.289937 25.724363 0.692945
1.288170 25.854931 0.652850
1.279704 25.793547 0.692860
1.135440 25.870020 1.055348
1.130528 25.853249 1.077600
1.248575 25.740736 0.812763
1.287722 25.828144 0.671846
1.223003 25.759846 0.867201
1.266737 25.782352 0.747791
1.304937 25.860058 0.587135
1.302401 25.763119 0.580202
1.307581 25.764051 0.583253
1.265017 25.678885 0.732256
1.282280 25.702017 0.635996
1.218721 25.809849 0.862449
1.298991 25.719210 0.654903
1.276877 25.667765 0.710526
1.286176 25.653259 0.679735
1.283623 25.799982 0.675808
1.277347 25.740431 0.712525
1.132401 25.816574 1.071350
1.224458 25.865982 0.844405
1.156526 25.856438 1.010875
1.129537 25.798851 1.091390
1.242561 25.688164 0.830603
1.214312 25.703981 0.881724
1.283173 25.773199 0.694801
1.264557 25.730034 0.769536
1.310017 25.810581 0.614388
1.265075 25.629328 0.750346
1.215259 25.755835 0.879665
1.287194 25.654667 0.657636
1.288934 25.664623 0.675299
1.287760 25.605175 0.699053
1.026329 25.874119 1.341887
1.281238 25.619968 0.730941
1.132507 25.767925 1.089085
1.272763 25.687477 0.732312
1.275697 25.743378 0.696801
1.125389 25.840925 1.099292
1.289024 25.802116 0.658845
1.216777 25.809145 0.862099
1.153064 25.802418 1.028091
1.175515 25.845840 0.957262
1.132991 25.748995 1.106421
1.221124 25.858833 0.843770
1.123242 25.884073 1.093636
1.243170 25.639050 0.849916
1.215118 25.653719 0.898096
1.276820 25.718992 0.716660
1.257194 25.676788 0.788225
1.302821 25.755219 0.638686
1.312402 25.712410 0.570665
1.320472 25.703871 0.557880
1.267032 25.580893 0.768802
1.208093 25.701441 0.895413
1.294980 25.609461 0.679649
1.126232 25.715607 1.102037
1.284991 25.554409 0.716401
1.292547 25.617529 0.697429
1.277169 25.569454 0.748782
1.265823 25.634813 0.749780
1.124670 25.789175 1.114439
1.269765 25.689751 0.717439
1.047265 25.862598 1.299993
1.285952 25.747717 0.683385
1.151822 25.753098 1.046677
1.216318 25.757145 0.882130
1.172734 25.792141 0.978142
1.194595 25.824495 0.903448
1.127367 25.694124 1.118373
1.217970 25.805481 0.865508
1.123027 25.831841 1.110368
1.236650 25.586966 0.866162
1.212171 25.602150 0.913362
1.249830 25.623552 0.806910
1.273338 25.666935 0.738890
1.293771 25.699669 0.662247
1.307750 25.660480 0.595830
1.304507 25.615490 0.651212
1.301763 25.613220 0.653277
1.261484 25.529840 0.785050
1.312620 25.651075 0.583167
1.206251 25.650759 0.913128
1.127309 25.667990 1.119769
1.281943 25.505850 0.733882
1.294840 25.561058 0.700671
1.290507 25.568005 0.718081
1.274999 25.520063 0.766990
1.267957 25.587175 0.770316
1.123950 25.737432 1.129582
1.271478 25.641531 0.739196
1.121762 25.869310 1.103940
1.060453 25.851633 1.247487
1.042193 25.808161 1.313173
1.145676 25.700651 1.062067
1.281675 25.695431 0.707692
1.211181 25.703739 0.900688
1.089093 25.895031 1.182881
1.164171 25.736143 0.995101
1.195239 25.773386 0.925924
1.127667 25.644339 1.133156
1.219036 25.754948 0.886765
1.119434 25.777950 1.125135
1.228923 25.536995 0.882176
1.209319 25.552435 0.927903
1.248812 25.575974 0.827206
1.268052 25.615614 0.760025
1.286667 25.646172 0.685814
1.296394 25.562962 0.671607
1.256358 25.479368 0.800074
1.299901 25.564495 0.676009
1.127507 25.621204 1.136771
1.208254 25.603245 0.931220
1.287244 25.510962 0.719126
1.279820 25.457392 0.751724
1.259722 25.466555 0.781156
1.286662 25.519218 0.737637
1.117999 25.683840 1.142028
1.260087 25.534428 0.787409
1.118898 25.816660 1.122014
1.039293 25.757498 1.328081
1.267490 25.589960 0.759834
1.062313 25.801317 1.266667
1.142953 25.650799 1.079054
1.202712 25.649605 0.916921
1.270315 25.641100 0.728572
1.085533 25.839153 1.200811
1.167782 25.689035 1.017228
1.193982 25.721161 0.948024
1.124636 25.593821 1.145613
1.117412 25.726461 1.140766
1.209724 25.699654 0.905436
1.232450 25.490957 0.901491
1.207017 25.503174 0.943663
1.241589 25.525524 0.844801
1.271288 25.568869 0.783004
1.286282 25.597986 0.710134
1.300652 25.518169 0.694229
1.120950 25.571100 1.149848
1.813107 25.657230 0.955196
1.203079 25.551836 0.946605
1.297486 25.515326 0.697512
1.283772 25.461830 0.737819
1.264270 25.422472 0.800113
1.274917 25.408649 0.768466
1.282265 25.469988 0.755965
1.255737 25.486122 0.805377
1.120749 25.635618 1.158401
1.031537 25.704636 1.339435
1.118954 25.767080 1.140099
1.271196 25.544718 0.781233
1.051588 25.744459 1.278366
1.140829 25.602322 1.096899
1.204892 25.602886 0.937092
1.276378 25.595568 0.752287
1.164685 25.639532 1.035069
1.083545 25.785675 1.219605
1.120678 25.543213 1.157701
1.115989 25.676348 1.157257
1.184669 25.665873 0.966691
1.754436 25.661701 1.078139
1.204858 25.648903 0.925348
1.189578 25.448807 0.952568
1.236313 25.477123 0.862402
1.260443 25.516979 0.801936
1.284970 25.549706 0.734085
1.117816 25.523588 1.164521
1.288507 25.466541 0.713651
1.252074 25.384438 0.832585
1.198551 25.502731 0.962489
1.301544 25.514877 0.668178
1.294791 25.468363 0.719150
1.282847 25.416119 0.757382
1.272336 25.361603 0.784355
1.263166 25.375967 0.817592
1.279440 25.423157 0.775158
1.311139 25.507809 0.656620
1.115492 25.585258 1.170982
1.814237 25.667168 0.963464
1.110307 25.712139 1.154247
1.258547 25.493565 0.799073
1.137826 25.554676 1.114015
1.052241 25.696259 1.297309
1.199943 25.553200 0.954197
1.272614 25.545721 0.774641
1.154084 25.587414 1.050702
1.081652 25.734055 1.237675
1.115793 25.492514 1.169418
1.221310 25.395697 0.932300
1.114613 25.627165 1.173383
1.205690 25.601511 0.946369
1.181653 25.615318 0.987330
1.191121 25.402714 0.968701
1.745311 25.638807 1.027778
1.256269 25.469471 0.821982
1.116255 25.478472 1.180059
1.272450 25.498423 0.754364
1.176985 25.447407 0.971147
1.289936 25.420542 0.735527
1.300374 25.469383 0.691043
1.284592 25.418783 0.738578
1.272891 25.366323 0.773508
1.266284 25.372499 0.791406
1.108333 25.533787 1.183187
1.313673 25.462700 0.680946
1.245979 25.389559 0.838492
1.114386 25.666529 1.174787
1.811020 25.672535 0.956557
1.135796 25.508057 1.131132
1.048038 25.645861 1.312698
1.185963 25.499432 0.967862
1.255838 25.493608 0.792234
1.155335 25.540600 1.070500
1.072581 25.678541 1.253035
1.121135 25.448645 1.186292
1.108006 25.576136 1.186812
1.200317 25.551249 0.964688
1.183082 25.569300 1.009211
1.233907 25.385246 0.900298
1.252143 25.422892 0.841664
1.111316 25.431700 1.193632
1.821998 25.677303 0.900134
1.182457 25.403418 0.990461
1.285810 25.373970 0.755206
1.308933 25.426352 0.715979
1.285143 25.373615 0.759725
1.108997 25.488510 1.198595
1.300452 25.413052 0.702576
1.108284 25.615013 1.189801
1.254146 25.398720 0.837316
1.122331 25.456720 1.142855
1.046333 25.597956 1.329317
1.176429 25.450203 0.982770
1.819839 25.679148 0.954401
1.145753 25.490440 1.085769
1.071332 25.629229 1.271599
1.109214 25.396839 1.194217
1.109175 25.530375 1.203805
1.192214 25.501627 0.981546
1.173031 25.517633 1.026058
1.249914 25.377426 0.861721
1.106974 25.386297 1.208075
1.272707 25.406919 0.799106
1.288580 25.373734 0.734552
1.607807 25.662172 1.460635
1.291775 25.364941 0.723236
1.104726 25.566914 1.205695
1.124145 25.413261 1.160355
1.184351 25.407768 1.003686
1.242013 25.396965 0.832930
1.146723 25.445827 1.105706
1.063926 25.577967 1.287109
1.095531 25.478233 1.213452
1.169475 25.446423 0.993141
1.161676 25.466223 1.043402
1.102593 25.393623 1.225480
1.099364 25.519558 1.220485
1.598183 25.558868 1.402066
1.138663 25.397144 1.122195
1.099245 25.435892 1.231312
1.064800 25.531500 1.307757
1.183226 25.407213 1.017602
1.164124 25.422161 1.064916
1.097330 25.472937 1.237590
1.099532 25.390970 1.247566
1.059939 25.483665 1.324125
1.187359 25.385620 1.094750
1.595846 25.647701 1.516522
1.089149 25.381655 1.268025
