# .PCD v0.7 - Point Cloud Data file format
VERSION 0.7
FIELDS x y z
SIZE 4 4 4
TYPE F F F
COUNT 1 1 1
WIDTH 200
HEIGHT 1
VIEWPOINT 0 0 0 1
POINTS 200
DATA ascii
1.232404 24.700806 1.007987
1.207727 24.677355 1.062778
1.208398 24.672873 1.056750
1.227596 24.656843 1.020414
1.171111 24.696898 1.175148
1.160589 24.696077 1.196533
1.204771 24.633575 1.075932
1.218757 24.613783 1.031875
1.223973 24.671213 1.034059
1.205945 24.628611 1.071486
1.209563 24.678911 1.054921
1.201400 24.692270 1.091334
1.164627 24.653532 1.188923
1.170967 24.693556 1.162608
1.159110 24.652824 1.211277
1.146849 24.707285 1.233864
1.205097 24.589590 1.091761
1.201737 24.586012 1.084772
1.217490 24.627855 1.047832
1.219083 24.569799 1.047703
1.210114 24.636646 1.072477
1.223540 24.681654 1.037891
1.198622 24.649281 1.106570
1.221552 24.683485 1.047927
1.196961 24.703503 1.110588
1.162724 24.609694 1.204898
1.170541 24.650255 1.180175
1.152023 24.608080 1.224200
1.181972 24.687464 1.144422
1.141337 24.664925 1.247664
1.193849 24.545891 1.101279
1.209751 24.585670 1.061757
1.219131 24.640188 1.054139
1.202749 24.594109 1.085544
1.196502 24.541462 1.098424
1.217927 24.525270 1.061958
1.190282 24.605726 1.119630
1.214317 24.640818 1.063437
1.220730 24.689480 1.042945
1.191628 24.661953 1.126455
1.223531 24.682985 1.037505
1.155360 24.567160 1.217946
1.169238 24.607796 1.197000
1.152298 24.563160 1.240386
1.178019 24.644596 1.162592
1.137629 24.621836 1.262533
1.200008 24.500256 1.119155
1.201456 24.497932 1.116077
1.211927 24.541870 1.078315
1.213750 24.597715 1.070360
1.203251 24.550915 1.103455
1.218625 24.480932 1.076924
1.190231 24.562088 1.136316
1.206205 24.598991 1.078202
1.188104 24.676302 1.126180
1.216501 24.648817 1.061258
1.132162 24.675730 1.279000
1.188472 24.619312 1.142548
1.213744 24.641766 1.053624
1.057211 24.714025 1.387956
1.185416 24.671957 1.147763
1.154333 24.522495 1.234622
1.160525 24.564594 1.210896
1.151646 24.518143 1.256204
1.171385 24.603298 1.178946
1.134798 24.577911 1.278122
1.197552 24.455986 1.133880
1.207441 24.555149 1.086210
1.212754 24.497396 1.095721
1.198400 24.452295 1.129935
1.203151 24.506348 1.120495
1.213391 24.436388 1.090551
1.186523 24.519001 1.151179
1.206331 24.556145 1.096970
1.185629 24.633970 1.145938
1.133588 24.632616 1.297278
1.208892 24.606508 1.077604
1.186194 24.575836 1.159361
1.205810 24.600733 1.070471
1.176377 24.630033 1.162161
1.120614 24.683924 1.311538
1.156086 24.478102 1.252392
1.161577 24.521830 1.230028
1.148263 24.473772 1.270562
1.167854 24.561003 1.195893
1.134323 24.533684 1.296021
1.089622 24.689590 1.383099
1.196348 24.410528 1.148466
1.207942 24.511950 1.104116
1.206267 24.454033 1.109482
1.197216 24.463425 1.135481
1.194092 24.407839 1.143924
1.213114 24.391024 1.105501
1.184067 24.474728 1.165902
1.206458 24.513294 1.115734
1.179497 24.592188 1.163871
1.126726 24.589594 1.311903
1.200957 24.565472 1.094448
1.180811 24.533354 1.175574
1.203757 24.558977 1.089006
1.170619 24.587902 1.179235
1.118886 24.640881 1.329575
1.154508 24.432985 1.267836
1.158324 24.477324 1.246826
1.150293 24.427170 1.288184
1.165704 24.517384 1.215141
1.126909 24.490215 1.309415
1.198802 24.364508 1.164868
1.192582 24.420240 1.149970
1.210246 24.468006 1.123107
1.205241 24.409367 1.126149
1.198901 24.361517 1.162640
1.203670 24.346590 1.116074
1.202927 24.470997 1.132675
1.185771 24.429409 1.184025
1.177997 24.550867 1.183630
1.123146 24.546360 1.329204
1.205291 24.522507 1.116255
1.177606 24.489777 1.192014
1.204987 24.517010 1.110218
1.170370 24.545397 1.198857
1.110446 24.600313 1.344835
1.150653 24.387106 1.283762
1.158775 24.433182 1.265083
1.144083 24.381588 1.301795
1.166333 24.474037 1.235483
1.133195 24.444420 1.329723
1.206067 24.364880 1.143543
1.200231 24.425060 1.137483
1.718807 24.214605 1.417607
1.195164 24.374084 1.168811
1.186598 24.384918 1.201420
1.699744 24.215242 1.405552
1.195643 24.427401 1.148506
1.191072 24.302229 1.126405
1.173668 24.508337 1.202645
1.120867 24.502867 1.346008
1.197681 24.480190 1.132590
1.175327 24.446289 1.208815
1.201033 24.474136 1.128372
1.166465 24.503443 1.216655
1.113853 24.557238 1.366276
1.172024 24.337650 1.313289
1.152368 24.388741 1.281635
1.135093 24.335730 1.314304
1.159974 24.430527 1.251678
1.127162 24.399626 1.345416
1.197904 24.380646 1.154638
1.695399 24.222765 1.376248
1.190739 24.271166 1.192540
1.191358 24.329132 1.184374
1.194794 24.383520 1.167251
1.185929 24.269920 1.188626
1.167189 24.341185 1.209691
1.175223 24.465082 1.223349
1.120017 24.458975 1.364756
1.196506 24.437588 1.151838
1.171196 24.402613 1.224882
1.193975 24.432257 1.145927
1.172554 24.458794 1.239903
1.106241 24.514904 1.382609
1.142018 24.295238 1.315235
1.149114 24.344221 1.298422
1.139756 24.286606 1.334085
1.158702 24.386061 1.271639
1.123356 24.354662 1.360978
1.187888 24.337696 1.169006
1.201513 24.273046 1.175617
1.187130 24.283598 1.201149
1.198853 24.337889 1.187678
1.181116 24.292986 1.233130
1.114909 24.414268 1.380813
1.164036 24.422251 1.240656
1.193429 24.393869 1.170709
1.170298 24.357796 1.243982
1.197334 24.388256 1.167716
1.162212 24.417112 1.254776
1.137238 24.249252 1.330784
1.141228 24.299240 1.313375
1.130766 24.240738 1.346586
1.548808 24.267941 1.497900
1.129123 24.306416 1.383207
1.192826 24.291225 1.190153
1.186010 24.293732 1.201303
1.159707 24.379709 1.259660
1.185770 24.350616 1.187390
1.680511 24.208178 1.521413
1.181986 24.346470 1.181614
1.159510 24.373037 1.272785
1.139307 24.252464 1.332817
1.150096 24.297045 1.307772
1.665112 24.238482 1.544382
1.284538 24.285919 1.254500
1.165496 24.266155 1.279347
1.179461 24.303185 1.201702
1.491478 24.263496 1.469050
1.147848 24.251543 1.327714
1.148172 24.292484 1.297275
1.145993 24.285763 1.307225
1.145174 24.247675 1.318943
