# .PCD v0.7 - Point Cloud Data file format
VERSION 0.7
FIELDS x y z
SIZE 4 4 4
TYPE F F F
COUNT 1 1 1
WIDTH 30
HEIGHT 1
VIEWPOINT 0 0 0 1
POINTS 30
DATA ascii
-10.154383 36.882092 -1.658254
-10.108420 36.909901 -1.596740
-10.029089 36.826546 -1.580576
-10.108404 37.041119 -1.605827
-10.056608 36.042969 -1.558338
-10.165472 37.038845 -1.604231
-10.009464 36.909042 -1.606574
-10.021669 35.902924 -1.549447
-10.186846 36.968002 -1.636130
-9.973998 35.932858 -1.574605
-10.063915 36.017017 -1.569183
-10.066823 36.909920 -1.602336
-10.011214 35.931824 -1.584769
-10.120310 36.943996 -1.594916
-10.012149 35.988758 -1.545343
-10.483204 37.371494 -0.653775
-10.056058 36.100712 -1.562706
-10.061913 35.980713 -1.556453
-9.967327 35.918274 -1.549451
-10.096617 36.222122 -1.583067
-9.922826 35.863220 -1.582195
-10.030404 36.838432 -1.587039
-9.994821 36.058239 -1.546217
-9.981483 35.879147 -1.576715
-10.033852 36.192570 -1.557606
-10.014642 35.901329 -1.581592
-10.500530 37.301041 -0.657817
-9.936178 36.061611 -1.587451
-9.974319 35.897305 -1.547441
-10.481109 37.316387 -0.621958
