# .PCD v0.7 - Point Cloud Data file format
VERSION 0.7
FIELDS x y z
SIZE 4 4 4
TYPE F F F
COUNT 1 1 1
WIDTH 56
HEIGHT 1
VIEWPOINT 0 0 0 1
POINTS 56
DATA ascii
-12.164079 34.674122 -2.374163
-12.166779 34.694252 -2.372038
-12.159326 34.856922 -2.367392
-12.121865 34.654213 -2.372338
-12.115349 34.665722 -2.380884
-12.184685 34.681992 -2.380506
-12.181325 34.716873 -2.382895
-12.076385 34.792568 -2.401340
-12.063871 34.635986 -2.392466
-12.064252 34.618519 -2.388891
-12.178371 34.849609 -2.374733
-12.151391 34.674801 -2.369758
-12.148423 34.711727 -2.370859
-12.083616 34.828674 -2.340495
-12.080023 34.672920 -2.331005
-12.064571 34.638939 -2.342957
-12.108266 34.803425 -2.395643
-12.078183 34.626686 -2.401425
-12.074958 34.662647 -2.402463
-12.170085 34.685520 -2.371479
-12.166122 34.742535 -2.370025
-13.796205 36.493755 -0.285322
-12.500435 35.350082 -1.801821
-13.793803 36.445522 -0.272363
-12.076409 34.798267 -2.379252
-12.071164 34.643200 -2.365690
-12.078808 34.692730 -2.352770
-12.152008 34.831093 -2.369787
-12.122819 34.666523 -2.375778
-12.090186 34.695107 -2.401952
-12.183360 34.705250 -2.384310
-13.200191 36.135086 -1.054486
-13.828051 36.482254 -0.307704
-13.723308 36.477737 -0.417768
-12.072662 34.775078 -2.404118
-12.064056 34.634068 -2.394800
-12.173892 34.782646 -2.377836
-12.175142 34.846699 -2.374406
-12.077426 34.710835 -2.369435
-12.155269 34.709530 -2.366979
-12.475113 35.117489 -1.790846
-12.079480 34.814190 -2.346387
-12.068064 34.665222 -2.343762
-12.106442 34.747192 -2.397991
-12.104630 34.803516 -2.398430
-13.684688 36.494690 -0.492648
-12.080037 34.663795 -2.401831
-12.505138 35.347157 -1.801549
-12.504188 35.153736 -1.788139
-12.075214 34.746975 -2.382664
-12.077276 34.805622 -2.379431
-12.465687 35.206787 -1.811038
-12.068809 34.683380 -2.367377
-13.198869 36.158188 -1.061033
-13.723116 36.494507 -0.422317
-12.471915 35.190063 -1.790920
