# .PCD v0.7 - Point Cloud Data file format
VERSION 0.7
FIELDS x y z
SIZE 4 4 4
TYPE F F F
COUNT 1 1 1
WIDTH 15
HEIGHT 1
VIEWPOINT 0 0 0 1
POINTS 15
DATA ascii
-16.239420 33.770905 -3.940098
-16.250965 33.837269 -3.919664
-16.249170 33.613018 -3.918841
-16.300282 33.821182 -3.943283
-16.264034 33.904308 -3.897741
-16.262926 33.687283 -3.896203
-16.359760 33.900883 -3.922263
-16.404177 33.980087 -3.901046
-16.270643 34.177998 -3.946547
-16.342072 34.125397 -3.956688
-16.282227 34.252277 -3.918349
-16.411682 34.213943 -3.929272
-16.337566 34.360664 -3.973936
-16.285555 34.486191 -3.962528
-16.437061 34.462471 -3.938213
