# .PCD v0.7 - Point Cloud Data file format
VERSION 0.7
FIELDS x y z
SIZE 4 4 4
TYPE F F F
COUNT 1 1 1
WIDTH 12
HEIGHT 1
VIEWPOINT 0 0 0 1
POINTS 12
DATA ascii
-7.226240 32.405670 -0.506551
-7.313966 32.404469 -0.528306
-7.271828 32.436394 -0.510529
-7.372159 32.435009 -0.528779
-7.388645 32.445976 -0.499140
-8.537938 32.143337 -0.314887
-8.334785 32.221279 -0.320668
-7.561646 32.479290 -0.515984
-7.505095 32.507179 -0.501491
-7.597155 32.520206 -0.520263
-7.525761 32.549026 -0.508616
-7.603041 32.569923 -0.528874
