# .PCD v0.7 - Point Cloud Data file format
VERSION 0.7
FIELDS x y z
SIZE 4 4 4
TYPE F F F
COUNT 1 1 1
WIDTH 18
HEIGHT 1
VIEWPOINT 0 0 0 1
POINTS 18
DATA ascii
-7.892762 34.517864 -0.703950
-7.895456 34.511551 -0.678144
-7.879840 34.534657 -0.754055
-7.859914 34.589230 -0.733665
-7.879023 34.657135 -0.707965
-7.896769 34.698048 -0.799005
-7.938046 34.771591 -0.798754
-7.901463 34.762985 -0.777851
-7.899906 34.763702 -0.776425
-7.889291 34.821064 -0.775277
-7.906405 34.831738 -0.754166
-7.886765 34.826405 -0.749935
-7.916407 34.899212 -0.743187
-7.921389 34.907166 -0.716510
-7.929690 34.939030 -0.776188
-8.000534 35.002235 -0.703028
-7.894486 34.993477 -0.748725
-7.931105 35.136868 -0.786363
