# .PCD v0.7 - Point Cloud Data file format
VERSION 0.7
FIELDS x y z
SIZE 4 4 4
TYPE F F F
COUNT 1 1 1
WIDTH 36
HEIGHT 1
VIEWPOINT 0 0 0 1
POINTS 36
DATA ascii
-7.870062 34.141357 -0.777680
-7.883093 34.184872 -0.762762
-7.887628 34.228043 -0.748336
-7.884532 34.367374 -0.798921
-7.924244 34.511444 -0.811557
-7.885305 34.423183 -0.812202
-7.880362 34.410194 -0.780694
-7.883934 34.542191 -0.799694
-7.903476 34.473202 -0.789109
-7.900527 34.460022 -0.755366
-7.891203 34.589073 -0.776520
-7.902975 34.518707 -0.768522
-7.907829 34.639191 -0.750660
-8.004803 34.597893 -0.724888
-7.925111 34.629536 -0.822371
-7.950291 34.873005 -0.823100
-7.908160 34.674686 -0.826050
-7.907888 34.671333 -0.799203
-7.923659 34.786686 -0.823804
-7.934324 34.919750 -0.801933
-7.921474 34.729000 -0.796810
-7.918891 34.723816 -0.769397
-7.907125 34.829414 -0.798451
-7.919629 34.883781 -0.767111
-7.943326 35.013538 -0.835946
-7.921169 34.862415 -0.840469
-7.945454 35.069752 -0.805878
-7.979279 35.015129 -0.840455
-7.924825 34.897926 -0.835166
-7.932179 34.918812 -0.803535
-7.926359 35.045757 -0.815817
-7.933022 34.953571 -0.799807
-7.942297 35.153797 -0.854018
-7.933921 35.103436 -0.778342
-7.960362 35.218651 -0.815882
-7.921075 35.225437 -0.845201
