# .PCD v0.7 - Point Cloud Data file format
VERSION 0.7
FIELDS x y z
SIZE 4 4 4
TYPE F F F
COUNT 1 1 1
WIDTH 131
HEIGHT 1
VIEWPOINT 0 0 0 1
POINTS 131
DATA ascii
-8.744312 31.533163 -2.408687
-8.657191 31.574350 -2.527007
-8.773059 31.546576 -2.315192
-8.788392 31.583006 -2.436620
-8.575278 31.552546 -2.865430
-8.683500 31.574671 -2.469940
-8.762285 31.575190 -2.568018
-8.506454 31.576199 -2.975170
-8.806079 31.560968 -2.227827
-8.832290 31.581234 -2.343406
-8.518684 31.558657 -2.921714
-8.664165 31.572725 -2.909991
-8.708959 31.575624 -2.427867
-8.616541 31.568169 -2.786101
-8.771695 31.588207 -2.504265
-8.931973 31.533422 -2.624295
-8.638251 31.519449 -2.694826
-8.620059 31.572746 -3.033109
-8.869136 31.589830 -2.254758
-9.101136 31.528624 -2.534784
-8.606787 31.574909 -2.966125
-8.805144 31.582579 -2.460575
-8.829955 31.536110 -2.985972
-8.733545 31.594067 -2.386748
-8.964676 31.528704 -2.560116
-8.721333 31.571880 -2.834369
-8.666238 31.538628 -2.614446
-9.082534 31.513849 -2.677357
-8.651205 31.591961 -2.713323
-8.808225 31.517965 -3.125041
-8.489519 31.573814 -3.257666
-8.603299 31.570328 -2.920109
-9.127844 31.533752 -2.427497
-8.483388 31.565676 -3.153413
-9.259389 31.512804 -2.584642
-8.778266 31.528913 -3.045480
-8.501416 31.531996 -3.061039
-8.989717 31.531082 -2.509611
-8.715277 31.577330 -2.641442
-8.840103 31.591948 -2.417543
-9.095260 31.522564 -2.602487
-8.986937 31.515652 -3.057701
-8.889003 31.532015 -2.905779
-8.788493 31.566729 -2.767748
-9.244760 31.494009 -2.732404
-8.596652 31.579632 -2.873601
-8.962375 31.499956 -3.200642
-9.159471 31.538637 -2.328360
-8.768371 31.527878 -2.992284
-9.287840 31.510649 -2.471881
-8.586961 31.569189 -3.213820
-8.557903 31.569029 -3.094527
-9.445346 31.484264 -2.641102
-8.925624 31.512482 -3.113829
-9.126355 31.519775 -2.549863
-9.032014 31.535095 -2.462937
-9.241846 31.511131 -2.649831
-9.053032 31.504166 -2.975201
-9.173707 31.483971 -3.140222
-8.956495 31.526993 -2.834160
-9.415622 31.476490 -2.790490
-8.743032 31.550417 -2.933567
-9.135794 31.476898 -3.285254
-8.902017 31.519558 -3.050653
-9.473453 31.479357 -2.521830
-8.732751 31.543449 -3.293875
-8.993873 31.527302 -2.745738
-9.093054 31.487789 -3.190969
-9.656301 31.451736 -2.703380
-9.173800 31.521906 -2.499881
-9.275960 31.506887 -2.593363
-9.427607 31.481623 -2.706246
-9.097664 31.513174 -2.891701
-9.213525 31.488264 -3.044044
-9.370893 31.455193 -3.228522
-8.895725 31.522972 -2.996000
-9.638894 31.436117 -2.862852
-9.342625 31.440731 -3.385271
-9.060715 31.497856 -3.120041
-9.666598 31.452686 -2.573599
-8.882765 31.522873 -3.378148
-8.844125 31.515818 -3.246404
-9.139513 31.507589 -2.801243
-9.339325 31.498892 -2.541025
-9.283909 31.457254 -3.276790
-9.464440 31.475008 -2.644492
-9.874778 31.423824 -2.767472
-9.625216 31.452822 -2.764683
-9.269627 31.485895 -2.959857
-9.407480 31.457321 -3.124646
-9.060482 31.496090 -3.063276
-9.582251 31.426548 -3.322194
-9.849182 31.412682 -2.931295
-9.567443 31.404915 -3.492530
-9.243192 31.468168 -3.198680
-9.884147 31.419067 -2.631057
-9.047123 31.499317 -3.468316
-8.987599 31.498850 -3.322060
-9.305218 31.480736 -2.862741
-9.521130 31.472618 -2.585787
-9.651667 31.451523 -2.696103
-9.489239 31.427771 -3.369412
-9.453542 31.459259 -3.031425
-10.115207 31.394505 -2.838417
-9.850495 31.418451 -2.830070
-9.630408 31.418364 -3.216241
-9.234120 31.469463 -3.132743
-9.816604 31.397245 -3.424815
-10.098796 31.378176 -3.011971
-9.808410 31.370810 -3.607922
-9.439110 31.438797 -3.282033
-9.474938 31.459194 -2.925630
-9.389166 31.308172 -3.524628
-9.716725 31.445648 -2.633068
-9.859077 31.426058 -2.751843
-9.718083 31.392382 -3.472111
-9.650256 31.433033 -3.108478
-10.075458 31.393299 -2.896634
-9.855342 31.389179 -3.309587
-9.421308 31.443083 -3.208345
-9.646370 31.414268 -3.369068
-9.677670 31.424829 -2.998286
-9.384686 31.413170 -3.528199
-10.086665 31.398615 -2.811709
-9.883981 31.395187 -3.197202
-9.622578 31.416922 -3.287909
-9.893873 31.374271 -3.472315
-9.868722 31.406090 -3.068287
-9.527586 31.422838 -3.605203
-9.865679 31.376013 -3.383610
-9.746614 31.392040 -3.718741
