# .PCD v0.7 - Point Cloud Data file format
VERSION 0.7
FIELDS x y z
SIZE 4 4 4
TYPE F F F
COUNT 1 1 1
WIDTH 15
HEIGHT 1
VIEWPOINT 0 0 0 1
POINTS 15
DATA ascii
-19.036224 32.816425 -7.240691
-18.993536 32.827419 -7.214675
-18.947388 32.813969 -7.165320
-18.895807 32.814495 -7.136581
-18.872257 32.831417 -7.163980
-18.858519 32.826027 -7.116526
-18.843760 32.837757 -7.140273
-18.771030 32.851681 -7.129187
-18.771152 32.848896 -7.118925
-18.746084 32.831047 -7.068964
-18.766087 32.844482 -7.044567
-18.420856 32.869358 -6.925830
-18.385561 32.908073 -6.882250
-18.436604 33.013306 -6.887188
-19.013519 33.548664 -7.182546
