# .PCD v0.7 - Point Cloud Data file format
VERSION 0.7
FIELDS x y z
SIZE 4 4 4
TYPE F F F
COUNT 1 1 1
WIDTH 17
HEIGHT 1
VIEWPOINT 0 0 0 1
POINTS 17
DATA ascii
-24.863047 30.621681 -6.598110
-24.882860 30.614260 -6.530479
-24.870420 30.724827 -6.562576
-24.920101 30.725489 -6.493134
-24.848339 30.819723 -6.525282
-24.906652 30.821123 -6.458054
-24.706139 30.842665 -6.438848
-23.643335 30.449955 -6.588588
-24.844009 30.614189 -6.634121
-24.859726 30.716299 -6.605905
-24.856646 30.813063 -6.578585
-24.648956 30.773172 -6.636309
-24.904535 30.631798 -6.466634
-24.644854 30.827810 -6.564166
-24.913818 30.688557 -6.433942
-24.394402 30.766466 -6.619044
-24.916101 30.726273 -6.433496
