# .PCD v0.7 - Point Cloud Data file format
VERSION 0.7
FIELDS x y z
SIZE 4 4 4
TYPE F F F
COUNT 1 1 1
WIDTH 242
HEIGHT 1
VIEWPOINT 0 0 0 1
POINTS 242
DATA ascii
2.436068 -1.487782 1.647279
2.320904 -1.455763 1.435618
2.458775 -1.478944 1.227696
2.265051 -1.501304 1.244166
2.343760 -1.457616 1.358335
2.164020 -1.467198 1.124141
2.302338 -1.438719 1.839155
2.338403 -1.505950 1.636228
2.344481 -1.441953 1.769429
2.384721 -1.491755 1.643824
2.381787 -1.441435 1.185596
2.244536 -1.470023 1.357791
2.148524 -1.500835 1.239424
2.437576 -1.474630 1.208323
2.244110 -1.500419 1.243384
2.208197 -1.451544 1.828089
2.107205 -1.463378 1.424519
2.255746 -1.457214 1.276480
2.207176 -1.499291 1.614762
2.317651 -1.499164 2.113236
2.240187 -1.452879 1.758000
2.277220 -1.502753 1.631677
2.350869 -1.495298 1.630550
2.282007 -1.444130 1.683590
2.230634 -1.495247 1.230140
2.060029 -1.514070 1.238031
2.131926 -1.471271 1.354935
2.141764 -1.509690 1.242697
2.362733 -1.501577 2.127197
2.108674 -1.456096 1.812348
2.418352 -1.487210 1.622944
2.014817 -1.471703 1.421808
2.130889 -1.522600 1.609551
2.152691 -1.466419 1.278875
2.318700 -1.440568 1.604387
2.214673 -1.510051 2.087493
2.143224 -1.463534 1.746873
2.204850 -1.418140 2.225481
2.172640 -1.509669 1.619721
1.990942 -1.488427 1.062012
2.231952 -1.497563 1.617225
2.166627 -1.447263 1.671081
2.137673 -1.509624 1.232308
1.903790 -1.517953 0.991322
1.969968 -1.522639 1.236147
2.029797 -1.475407 1.352523
1.897800 -1.495097 1.135677
2.051867 -1.521130 1.243194
2.257635 -1.512007 2.102583
2.018322 -1.464684 1.800362
2.324837 -1.508575 1.619999
1.927160 -1.478576 1.418469
2.020955 -1.521212 1.592933
2.058766 -1.421274 2.264932
2.062959 -1.480731 1.281760
2.218496 -1.457903 1.600497
2.292381 -1.501110 2.094360
2.108394 -1.514923 2.059221
2.046900 -1.469854 1.735111
2.111172 -1.429695 2.205061
2.169699 -1.424273 2.137682
2.072252 -1.516234 1.608354
1.909446 -1.517642 0.983101
2.148842 -1.518798 1.613340
1.824343 -1.527827 0.994734
2.065763 -1.454820 1.661909
2.047643 -1.523006 1.235092
1.947528 -1.487485 1.353434
2.233804 -1.426517 2.068929
1.823148 -1.509600 1.140285
2.125659 -1.511102 1.220927
1.935700 -1.473788 1.789773
1.959381 -1.528309 1.242343
2.342971 -1.504449 2.090793
2.141654 -1.510884 2.071333
2.081017 -1.487419 1.203544
1.858512 -1.496678 1.419975
1.972870 -1.428419 2.242222
2.216743 -1.516338 1.611482
1.917217 -1.496766 0.995183
1.919778 -1.519920 1.578579
1.969145 -1.489072 1.284215
2.192125 -1.511638 2.074377
2.017283 -1.524661 2.038331
2.098900 -1.457012 1.589839
2.012445 -1.433900 2.180065
1.948071 -1.471788 1.722991
1.976678 -1.521212 1.597356
2.077953 -1.436931 2.121277
1.823879 -1.524061 0.988619
2.037983 -1.516306 1.600683
1.953752 -1.528369 1.236140
1.980447 -1.469494 1.657351
1.833836 -1.465836 1.770547
1.756134 -1.524743 1.145300
2.039042 -1.527298 1.226804
2.229702 -1.509185 2.066128
2.128683 -1.437349 2.051443
2.053318 -1.524664 2.053758
1.989274 -1.498053 1.208131
1.902945 -1.445172 2.229476
1.758966 -1.487870 1.412582
2.105026 -1.517148 1.600339
1.831590 -1.504994 1.003978
1.830518 -1.525008 1.567038
1.833410 -1.520367 0.970413
1.858620 -1.480216 1.281831
2.091801 -1.519194 2.052991
1.924758 -1.530908 2.015077
1.994138 -1.461482 1.582618
1.935123 -1.447988 2.165597
1.849475 -1.468570 1.709151
1.885609 -1.526777 1.587041
1.987172 -1.449310 2.104745
1.760365 -1.528173 1.082995
1.938949 -1.517200 1.589442
1.723709 -1.546908 1.231175
1.829846 -1.508338 1.231444
1.885668 -1.473009 1.648105
1.771435 -1.485512 1.767640
1.676060 -1.529653 1.148104
2.129310 -1.515443 2.047600
1.961274 -1.531614 2.032569
1.934134 -1.524718 1.227770
1.824342 -1.453831 2.210358
2.029725 -1.447114 2.035285
1.706327 -1.512123 1.416495
1.876902 -1.491486 1.210252
2.007282 -1.523488 1.593743
1.734161 -1.519027 1.552639
1.780729 -1.491716 1.285299
1.997635 -1.525680 2.032934
1.829011 -1.531010 1.990284
1.900345 -1.469507 1.577923
1.857586 -1.461026 2.152019
1.789545 -1.491345 1.709465
1.798409 -1.531049 1.577219
1.902231 -1.459680 2.089446
1.850659 -1.523699 1.582031
1.700780 -1.508237 1.354089
1.682917 -1.481229 1.752762
1.758265 -1.523067 1.234771
1.805491 -1.483937 1.643595
1.746771 -1.458965 2.191689
2.041324 -1.528763 2.033961
1.873586 -1.537961 2.013944
1.700159 -1.540829 1.239981
1.830259 -1.518617 1.229188
1.628942 -1.514611 1.413667
1.943398 -1.461892 2.022712
1.796049 -1.502700 1.215962
1.915289 -1.527943 1.587392
1.679225 -1.544518 1.551850
1.906082 -1.530229 2.013397
1.709235 -1.506327 1.289616
1.748350 -1.539219 1.972296
1.771275 -1.462981 2.130667
1.684408 -1.475965 1.691560
1.823592 -1.486355 1.576922
1.706086 -1.526653 1.565693
1.953514 -1.417042 2.494869
1.807119 -1.460250 2.068692
1.782405 -1.541000 1.580328
1.620929 -1.495516 1.750109
1.624523 -1.513310 1.353520
1.699150 -1.546177 1.240113
1.715930 -1.483577 1.635389
1.667698 -1.460729 2.169669
1.949311 -1.534313 2.016610
1.785423 -1.540517 1.992832
1.762643 -1.538162 1.234814
1.601023 -1.546836 1.542990
1.853931 -1.470405 2.009584
1.823538 -1.530364 1.579735
1.718037 -1.513043 1.221299
1.826380 -1.539836 1.999541
1.635447 -1.514498 1.292267
1.659082 -1.536091 1.948514
1.684030 -1.462129 2.109026
1.625442 -1.495358 1.691331
1.633088 -1.534423 1.559105
1.734300 -1.488753 1.572084
1.868440 -1.429014 2.474715
1.717451 -1.461110 2.048501
1.685275 -1.532000 1.567599
1.547644 -1.497426 1.739740
1.615032 -1.481546 2.166022
1.640580 -1.492931 1.631245
1.866549 -1.543757 2.004009
1.690395 -1.533070 1.967971
1.686124 -1.547113 1.238813
1.718846 -1.517518 1.567161
1.748507 -1.463119 1.985660
1.728204 -1.532350 1.974948
1.571163 -1.530378 1.925280
1.629256 -1.482481 2.106515
1.553451 -1.499600 1.685198
1.660162 -1.500565 1.571185
1.480597 -1.501252 1.732100
1.657341 -1.481067 2.046413
1.781633 -1.436554 2.452099
1.619244 -1.546565 1.565328
1.523866 -1.466196 2.133707
1.776750 -1.543454 1.985679
1.572011 -1.503092 1.628620
1.624999 -1.549160 1.958754
1.669562 -1.547862 1.573575
1.656330 -1.542358 1.963476
1.678718 -1.480193 1.981014
1.512248 -1.549447 1.917902
1.536240 -1.469417 2.078707
1.483993 -1.505146 1.679006
1.555264 -1.463884 2.015826
1.584686 -1.508760 1.568910
1.474939 -1.487659 2.132838
1.707482 -1.450781 2.437334
1.681659 -1.534734 1.963670
1.536759 -1.539418 1.935003
1.491452 -1.500802 1.621369
1.596513 -1.554359 1.569839
1.571264 -1.537470 1.944125
1.596912 -1.483144 1.967467
1.440766 -1.552374 1.902428
1.483061 -1.488267 2.075845
1.414450 -1.493998 2.120879
1.506075 -1.489212 2.019537
1.635810 -1.566096 1.969896
1.478327 -1.556080 1.929278
1.502315 -1.543375 1.932854
1.416605 -1.492339 2.064116
1.523812 -1.491102 1.959875
1.351998 -1.497951 2.107766
1.429844 -1.487407 2.003852
1.546562 -1.555374 1.949119
1.405581 -1.555268 1.913412
1.437323 -1.550976 1.923474
1.350385 -1.494373 2.051081
1.448888 -1.494751 1.948835
1.368870 -1.496568 1.997358
1.476752 -1.558358 1.938539
1.381546 -1.500834 1.941484
1.411535 -1.564919 1.930041
