# .PCD v0.7 - Point Cloud Data file format
VERSION 0.7
FIELDS x y z
SIZE 4 4 4
TYPE F F F
COUNT 1 1 1
WIDTH 32
HEIGHT 1
VIEWPOINT 0 0 0 1
POINTS 32
DATA ascii
-14.342304 34.473816 -3.218279
-14.344223 34.446251 -3.211444
-14.336266 34.453995 -3.213719
-14.272428 34.476105 -3.266706
-14.266781 34.397243 -3.262236
-14.308390 34.430046 -3.193450
-14.295618 34.432110 -3.203509
-14.312712 34.593605 -3.136374
-14.433285 34.706837 -2.946927
-14.239088 34.361240 -3.226362
-14.226757 34.363972 -3.237948
-14.342025 34.700905 -3.011097
-14.432495 34.756390 -2.867281
-14.218787 34.365356 -3.189106
-14.424920 34.733181 -2.846461
-14.222887 34.448822 -3.133598
-14.423059 34.746094 -2.769993
-14.395363 34.736526 -2.805759
-14.281074 34.424080 -3.260986
-14.280789 34.276627 -3.228692
-14.360171 34.609108 -3.064729
-14.310852 34.420750 -3.241511
-14.385849 34.782135 -3.042692
-15.075037 35.928513 -1.796726
-15.089683 35.568390 -1.856275
-14.261610 34.383369 -3.247933
-14.289825 34.206615 -3.220539
-14.256138 34.603828 -3.163628
-14.217875 34.463612 -3.143111
-14.238168 34.299671 -3.153875
-14.445307 34.740074 -2.879579
-14.229656 34.418613 -3.157019
