# .PCD v0.7 - Point Cloud Data file format
VERSION 0.7
FIELDS x y z
SIZE 4 4 4
TYPE F F F
COUNT 1 1 1
WIDTH 38
HEIGHT 1
VIEWPOINT 0 0 0 1
POINTS 38
DATA ascii
-16.274723 33.516781 -4.010201
-16.396376 33.586040 -3.998269
-16.296059 33.564304 -3.979023
-16.281046 33.607182 -3.992576
-16.290749 33.606583 -3.953498
-16.289598 33.653904 -3.961651
-16.280939 33.721268 -4.020740
-16.330082 33.780010 -3.984874
-16.369043 33.838219 -4.003659
-16.292744 33.831646 -4.022816
-16.329313 33.826111 -3.956995
-16.305670 33.867374 -3.984860
-16.329260 33.888771 -3.984927
-16.300987 33.912411 -3.954062
-16.315821 33.985394 -4.014078
-16.318113 34.037083 -3.977031
-16.390974 34.406784 -4.058005
-16.358810 34.443810 -4.052443
-16.375393 34.456207 -4.023964
-16.300753 33.493076 -4.008731
-16.309254 33.535973 -3.988154
-16.339949 33.568024 -4.006520
-16.316051 33.578533 -3.967564
-16.325300 33.611874 -3.990335
-16.390339 33.637646 -3.929381
-16.466858 33.694435 -3.940777
-16.348921 33.677795 -4.007544
-16.322178 33.678539 -4.023447
-16.343912 33.723705 -3.985727
-16.330669 33.724823 -3.995595
-16.334513 33.770744 -3.969268
-16.327019 34.259838 -4.047663
-16.359941 34.325718 -4.008231
-16.397449 34.435219 -4.057771
-16.403160 34.501766 -4.022074
-16.335285 34.389843 -4.047974
-16.407980 34.476120 -4.031696
-16.367794 34.461018 -4.004470
