# .PCD v0.7 - Point Cloud Data file format
VERSION 0.7
FIELDS x y z
SIZE 4 4 4
TYPE F F F
COUNT 1 1 1
WIDTH 22
HEIGHT 1
VIEWPOINT 0 0 0 1
POINTS 22
DATA ascii
-24.853098 30.257919 -6.645224
-24.859522 30.335154 -6.639470
-24.905544 30.280073 -6.516677
-24.860273 30.410263 -6.634038
-24.849058 30.276535 -6.605210
-24.901266 30.351347 -6.516642
-24.859171 30.486170 -6.627484
-24.853195 30.350952 -6.604681
-24.909245 30.428249 -6.513312
-24.861153 30.427311 -6.603755
-24.858267 30.501066 -6.602988
-24.756960 30.214102 -6.555504
-24.713860 30.194950 -6.643901
-24.693073 30.217493 -6.738937
-24.756430 30.287651 -6.562224
-24.710287 30.269091 -6.652456
-24.687428 30.293194 -6.749049
-24.744062 30.358141 -6.569899
-24.707203 30.343466 -6.660194
-24.726969 30.428436 -6.578036
-24.694376 30.416256 -6.667020
-24.683743 30.489582 -6.673044
