# .PCD v0.7 - Point Cloud Data file format
VERSION 0.7
FIELDS x y z
SIZE 4 4 4
TYPE F F F
COUNT 1 1 1
WIDTH 56
HEIGHT 1
VIEWPOINT 0 0 0 1
POINTS 56
DATA ascii
-17.569208 32.786533 -7.332831
-17.526886 32.853504 -7.364514
-17.446695 32.901943 -7.567320
-17.439344 32.832119 -7.407598
-17.543577 32.813599 -7.137832
-18.189192 32.783882 -6.919705
-18.443483 32.800938 -7.450573
-17.700607 32.815918 -6.952810
-17.583611 32.809925 -7.260406
-17.548824 32.947128 -7.697132
-17.504421 32.822884 -7.467417
-17.541901 32.868889 -7.290597
-17.499231 32.884174 -7.549275
-17.443151 32.827293 -7.429117
-17.536606 32.940708 -7.347099
-17.498709 32.999451 -7.585833
-17.450321 32.918434 -7.391463
-17.722834 32.810047 -6.911613
-17.486219 32.869186 -7.283247
-17.566055 32.847565 -7.005589
-17.524012 32.813282 -7.180980
-17.567030 32.817989 -7.184226
-18.371717 32.896965 -6.984849
-17.628063 32.816212 -6.931043
-17.688393 32.896294 -6.922487
-17.555321 32.943474 -7.632586
-17.494509 32.999508 -7.706003
-17.751007 32.810238 -6.876589
-17.515629 32.909855 -7.459291
-18.204306 32.820904 -7.148292
-17.687292 33.063431 -7.792171
-17.445482 32.909363 -7.410685
-17.555210 32.954510 -7.277915
-17.623779 33.006813 -7.702956
-17.502382 32.972569 -7.531310
-17.763809 32.797226 -6.850527
-17.458521 33.004074 -7.374442
-17.740095 32.892239 -6.900449
-17.536173 32.980137 -7.084836
-17.494947 32.951134 -7.266257
-17.560854 32.926857 -6.980126
-17.631109 32.893543 -6.911721
-17.576756 32.974228 -7.217760
-17.809587 33.076088 -7.828290
-17.709810 32.982059 -6.911300
-17.688457 32.850185 -6.834898
-17.750710 32.890068 -6.859152
-17.519112 32.995106 -7.445051
-17.454458 32.992729 -7.397561
-17.772034 32.877029 -6.840315
-17.735767 32.972782 -6.878097
-17.598305 32.981468 -7.175397
-17.647472 32.974236 -6.898849
-17.710287 32.928486 -6.825915
-17.770109 32.972878 -6.850998
-17.785202 32.958393 -6.832580
