# .PCD v0.7 - Point Cloud Data file format
VERSION 0.7
FIELDS x y z
SIZE 4 4 4
TYPE F F F
COUNT 1 1 1
WIDTH 98
HEIGHT 1
VIEWPOINT 0 0 0 1
POINTS 98
DATA ascii
-19.355875 32.814175 -7.819443
-19.264547 32.789619 -7.809299
-19.429277 32.200123 -7.546629
-19.238245 32.757843 -7.494393
-19.419437 32.082165 -7.686881
-19.148237 32.762432 -7.754482
-19.385859 32.090107 -7.527754
-19.336937 32.083939 -7.681932
-19.275511 32.158230 -7.429538
-19.400839 32.102047 -7.420909
-19.246988 32.019066 -7.411314
-19.169788 32.026997 -7.625783
-19.270107 32.094044 -7.307296
-19.112410 32.133083 -7.513769
-19.068871 32.108963 -7.672304
-19.264257 32.015835 -7.311703
-19.185114 32.108650 -7.294005
-19.024204 32.114994 -7.203629
-19.520695 31.205786 -7.255714
-18.974985 32.047462 -7.388484
-18.925186 32.129101 -7.192708
-18.894886 32.048691 -7.612232
-18.537094 33.042877 -7.414918
-18.443436 32.858158 -7.565801
-19.020847 32.026566 -7.280922
-18.520592 32.862900 -7.390128
-18.438986 32.660305 -7.538085
-19.001337 31.908731 -7.267579
-18.518200 32.671661 -7.366220
-18.415518 32.506943 -7.516547
-18.259604 32.759079 -7.400769
-18.542105 32.498276 -7.228685
-18.506144 32.510178 -7.345456
-18.433416 32.300667 -7.489946
-18.309223 32.800858 -7.260969
-18.265045 32.558228 -7.379152
-18.522242 32.315552 -7.323580
-18.291317 32.648811 -7.245312
-18.274263 32.369507 -7.357933
-17.998178 33.028561 -7.195426
-18.306967 32.452301 -7.229344
-18.295702 32.175606 -7.338830
-18.291197 32.317047 -7.215276
-18.301451 32.156136 -7.201404
-19.128603 33.496277 -7.704649
-19.417780 32.241638 -7.464480
-19.425606 32.158089 -7.508835
-19.423868 32.108742 -7.582799
-19.197882 32.740288 -7.482383
-19.165392 32.760841 -7.602162
-19.409702 32.067368 -7.383228
-19.389963 32.091763 -7.443217
-19.374926 32.083736 -7.492334
-19.355385 32.079109 -7.572460
-19.321987 32.093868 -7.374675
-19.246611 32.149399 -7.419183
-19.242157 32.099934 -7.515033
-19.267994 32.014160 -7.293835
-19.226660 32.003670 -7.399225
-19.194246 32.017349 -7.499342
-19.176510 32.099342 -7.190181
-19.132463 32.118851 -7.420584
-19.126240 32.100368 -7.465965
-19.092354 32.109283 -7.555471
-19.132172 32.017044 -7.180020
-19.521923 31.126287 -7.340734
-18.525007 33.026855 -7.372676
-19.047810 32.020348 -7.170299
-19.005760 32.037495 -7.267520
-18.959419 32.046139 -7.375741
-18.932287 32.034698 -7.479739
-18.500162 32.860100 -7.350737
-18.467876 32.862755 -7.442018
-18.462715 32.846798 -7.498815
-18.989643 31.906361 -7.255225
-18.952713 31.901833 -7.358570
-18.913477 31.907766 -7.460376
-18.500593 32.659687 -7.329396
-18.464102 32.666691 -7.419490
-18.454737 32.665272 -7.472797
-18.491550 32.492741 -7.309369
-18.446165 32.498619 -7.448815
-18.459961 32.485641 -7.397019
-18.306854 32.756855 -7.248048
-18.419817 32.461128 -7.559140
-18.509502 32.294598 -7.290308
-18.468311 32.298077 -7.376589
-18.315329 32.556076 -7.232755
-18.229403 32.616856 -7.366339
-17.933525 33.016109 -7.295625
-18.348604 32.417896 -7.102699
-17.892818 33.001381 -7.402884
-18.239122 32.433022 -7.347391
-18.350222 32.256516 -7.094506
-17.794880 32.883629 -7.057274
-17.726097 32.871769 -7.193805
-17.502365 32.978729 -7.420715
-17.506651 32.962128 -7.362530
