# .PCD v0.7 - Point Cloud Data file format
VERSION 0.7
FIELDS x y z
SIZE 4 4 4
TYPE F F F
COUNT 1 1 1
WIDTH 21
HEIGHT 1
VIEWPOINT 0 0 0 1
POINTS 21
DATA ascii
-13.559860 30.934277 -3.495292
-13.522911 31.061466 -3.657536
-13.628586 31.121561 -3.684956
-13.653020 30.997990 -3.630784
-13.636601 31.070675 -3.696115
-13.513985 30.986834 -3.654346
-13.699024 31.001698 -3.698080
-13.648494 31.023586 -3.712411
-13.723871 30.975895 -3.733937
-13.647662 30.957119 -3.710230
-13.723930 30.911165 -3.732101
-13.652198 30.895473 -3.715579
-13.537227 31.089685 -3.680103
-13.558185 31.081413 -3.694704
-13.536537 31.025372 -3.682019
-13.531741 31.017162 -3.683964
-13.561185 31.019205 -3.699254
-13.522370 30.940950 -3.665349
-13.509312 30.922201 -3.661500
-13.552065 30.939226 -3.687138
-13.549300 30.865479 -3.684274
