# .PCD v0.7 - Point Cloud Data file format
VERSION 0.7
FIELDS x y z
SIZE 4 4 4
TYPE F F F
COUNT 1 1 1
WIDTH 51
HEIGHT 1
VIEWPOINT 0 0 0 1
POINTS 51
DATA ascii
-19.011047 31.908377 -5.418287
-18.986000 31.859083 -5.369411
-19.156744 32.248230 -5.694643
-19.023800 31.982784 -5.379649
-18.990536 32.203915 -5.670104
-19.013239 31.941381 -5.323771
-18.991032 31.868013 -5.377502
-19.003336 31.960403 -5.469786
-18.968180 32.192520 -5.630870
-18.985767 31.928133 -5.558905
-19.057600 32.077057 -5.335640
-19.005447 32.293945 -5.634296
-18.965990 31.897572 -5.649852
-19.007423 31.945299 -5.335061
-19.035814 32.055550 -5.428336
-18.974785 32.272495 -5.589533
-19.153711 32.280392 -5.689632
-19.000376 31.890690 -5.379646
-19.002321 32.012264 -5.521272
-19.087879 32.173702 -5.289016
-19.027336 32.395214 -5.594715
-18.958223 32.214397 -5.629277
-18.973902 31.975685 -5.615716
-19.030493 32.122097 -5.390153
-19.027550 32.029255 -5.287564
-18.988787 32.362209 -5.546317
-18.938049 32.156082 -5.664914
-19.012259 31.966187 -5.337852
-19.013933 32.095150 -5.482698
-18.971806 32.305107 -5.589038
-18.999914 31.914129 -5.392967
-18.987846 32.063015 -5.578012
-19.059065 32.222057 -5.343879
-19.160645 32.335701 -5.694800
-18.951649 32.247494 -5.626802
-19.017818 32.038708 -5.296172
-19.022902 32.179577 -5.442238
-18.988224 32.402115 -5.545754
-19.004570 31.986284 -5.353304
-19.071756 32.312202 -5.298670
-19.010109 32.161156 -5.538541
-18.967144 32.343189 -5.585849
-19.049788 32.283802 -5.396004
-18.993759 32.492710 -5.501416
-19.025721 32.074612 -5.309545
-19.009586 32.241596 -5.498099
-18.958235 32.306904 -5.631546
-18.983723 32.446606 -5.542820
-19.066711 32.382675 -5.348823
-18.980797 32.417137 -5.590447
-18.994755 32.522797 -5.547660
