# .PCD v0.7 - Point Cloud Data file format
VERSION 0.7
FIELDS x y z
SIZE 4 4 4
TYPE F F F
COUNT 1 1 1
WIDTH 26
HEIGHT 1
VIEWPOINT 0 0 0 1
POINTS 26
DATA ascii
-16.142082 32.259098 -3.921018
-16.130838 32.394978 -3.939554
-16.130686 32.545570 -3.958825
-16.113459 32.751770 -3.953839
-16.160534 32.152214 -3.958853
-16.118780 32.168350 -3.959988
-16.091471 32.325493 -3.952362
-16.023624 32.642818 -3.830268
-16.085020 32.181557 -3.888606
-15.988856 32.884228 -3.803026
-16.050512 32.182209 -3.897599
-16.120668 32.199738 -3.939840
-16.140577 32.290058 -3.950067
-15.978011 32.435097 -3.803303
-16.157951 32.387829 -3.963522
-15.995203 32.230492 -3.793664
-16.011431 32.298290 -3.799085
-16.030542 32.393250 -3.807331
-16.044147 32.502483 -3.813758
-15.971969 32.362831 -3.783890
-15.982416 32.471306 -3.787770
-16.142757 31.775311 -3.899965
-16.129110 31.904955 -3.899409
-16.112663 31.718403 -3.913235
-16.105160 31.824286 -3.936915
-16.070610 31.768948 -3.945008
