# .PCD v0.7 - Point Cloud Data file format
VERSION 0.7
FIELDS x y z
SIZE 4 4 4
TYPE F F F
COUNT 1 1 1
WIDTH 21
HEIGHT 1
VIEWPOINT 0 0 0 1
POINTS 21
DATA ascii
-18.469431 31.887878 -4.861377
-18.492517 31.951859 -4.855459
-18.439413 32.142464 -4.738574
-18.411665 32.253880 -4.692948
-18.454765 31.770712 -4.850133
-18.475977 31.830330 -4.846088
-18.475763 31.901815 -4.817712
-18.467474 31.961641 -4.806348
-18.471296 31.753967 -4.832188
-18.474230 31.787041 -4.841177
-18.514891 32.622066 -4.761182
-18.407721 32.744835 -4.702446
-18.493082 32.478394 -4.745679
-18.386850 32.591427 -4.698876
-18.487957 32.308605 -4.754445
-18.370337 32.436584 -4.700373
-18.478529 32.157429 -4.754559
-18.356108 32.287479 -4.701800
-18.347410 32.138432 -4.709499
-18.462578 31.876446 -4.754174
-18.340574 31.994085 -4.717988
