# .PCD v0.7 - Point Cloud Data file format
VERSION 0.7
FIELDS x y z
SIZE 4 4 4
TYPE F F F
COUNT 1 1 1
WIDTH 118
HEIGHT 1
VIEWPOINT 0 0 0 1
POINTS 118
DATA ascii
-20.259037 30.045227 -7.643778
-20.261553 30.045715 -7.635581
-20.236910 30.049334 -7.627122
-20.240366 30.044945 -7.618320
-20.216080 30.061968 -7.604803
-19.642397 32.748398 -7.777655
-19.654385 32.739182 -7.743346
-19.488333 32.744370 -7.900470
-19.460283 32.744961 -7.918036
-19.582603 32.733219 -7.686071
-19.524967 32.717407 -7.711717
-19.559738 32.116474 -7.779301
-19.570740 32.790981 -7.613832
-19.505171 32.756420 -7.632426
-19.499037 32.032043 -7.791979
-19.515942 32.007832 -7.768759
-19.526293 32.103279 -7.715384
-19.454046 32.709301 -7.650699
-19.530239 32.004295 -7.718590
-19.514986 32.717640 -7.551703
-19.486975 32.003071 -7.766398
-19.598547 32.093880 -7.560218
-19.604490 32.099464 -7.539388
-19.447119 32.002850 -7.738105
-19.458748 31.994297 -7.717708
-19.493961 32.005672 -7.656471
-19.368980 32.743057 -7.591663
-19.472502 31.997158 -7.671396
-19.435333 32.740982 -7.492626
-19.432770 31.980125 -7.716327
-19.557013 32.024754 -7.507201
-19.566971 32.014191 -7.488848
-19.438847 31.986629 -7.608058
-19.506012 32.042210 -7.500844
-19.361088 32.745766 -7.433895
-19.497372 32.020267 -7.456795
-19.503040 32.019547 -7.441714
-19.453211 32.015923 -7.449689
-19.282843 32.757622 -7.374123
-19.432627 32.029556 -7.407586
-19.419512 32.086201 -7.395200
-19.196039 32.791534 -7.312663
-19.354118 32.076637 -7.355767
-19.319765 32.184116 -7.345065
-19.257025 31.972174 -7.462159
-19.636301 31.140932 -7.324843
-19.636673 31.145857 -7.318802
-19.604742 31.133310 -7.317293
-19.572002 31.101833 -7.280898
-19.034912 32.031685 -7.311494
-18.627455 32.486530 -7.381135
-18.954359 32.058754 -7.259274
-18.707989 32.386860 -7.321231
-18.933287 32.279995 -7.073921
-18.936569 32.275475 -7.072596
-18.880365 32.068642 -7.204792
-18.646734 32.300217 -7.320334
-18.887009 32.220432 -7.022668
-18.887421 32.224415 -7.017678
-18.807905 32.065727 -7.149317
-18.846823 32.149178 -6.974066
-18.512623 32.101151 -7.032493
-18.511023 32.120651 -7.014907
-18.447598 32.139179 -7.041689
-18.371103 32.129776 -6.982808
-19.423443 32.710495 -7.834155
-19.524555 32.732361 -7.674119
-19.437094 32.717163 -7.687721
-19.407471 32.727577 -7.885844
-19.519094 32.727882 -7.687976
-19.457376 32.114315 -7.676596
-19.438189 32.116917 -7.681235
-19.398359 32.701202 -7.774298
-19.435253 31.984600 -7.622311
-19.419249 31.979795 -7.625863
-19.491440 32.083427 -7.497503
-19.454041 32.097836 -7.711152
-19.426704 32.086094 -7.738711
-19.420216 32.082561 -7.502931
-19.373747 31.976217 -7.580735
-19.360683 31.966316 -7.582422
-19.453566 31.999327 -7.452551
-19.429575 31.979635 -7.655925
-19.397976 31.980150 -7.681401
-19.395166 31.967899 -7.454696
-19.488071 32.086761 -7.502310
-19.367071 32.062763 -7.411044
-19.404186 32.022991 -7.566636
-19.367180 31.979509 -7.612306
-19.342363 31.961538 -7.636106
-19.308662 32.031765 -7.410800
-19.456539 31.988762 -7.454148
-19.360867 31.967869 -7.518494
-19.374147 32.041267 -7.411263
-19.197685 31.922785 -7.451674
-19.177137 31.938257 -7.452716
-19.296301 31.971600 -7.471953
-19.558552 31.114689 -7.308251
-19.227539 31.981300 -7.425405
-19.185604 31.944925 -7.475898
-19.513975 31.108709 -7.303632
-19.158627 31.992315 -7.379157
-19.560947 31.116203 -7.303763
-19.499741 31.085211 -7.344514
-19.022928 31.995762 -7.281714
-18.809055 32.192574 -7.078434
-18.921001 32.061340 -7.228690
-18.739056 32.194641 -7.060474
-18.780584 32.098061 -7.037469
-18.806105 32.143353 -7.172356
-18.798861 32.231647 -7.057286
-18.762028 32.084965 -7.122931
-18.766802 32.143837 -7.013137
-18.719872 32.025341 -7.073291
-18.449522 32.063705 -7.020621
-18.442230 32.055965 -7.014475
-18.453619 32.072510 -7.023905
-18.353346 32.048115 -6.989535
