# .PCD v0.7 - Point Cloud Data file format
VERSION 0.7
FIELDS x y z
SIZE 4 4 4
TYPE F F F
COUNT 1 1 1
WIDTH 18
HEIGHT 1
VIEWPOINT 0 0 0 1
POINTS 18
DATA ascii
-22.201839 30.956591 -6.323256
-22.296783 31.122686 -6.324052
-22.242437 31.160824 -6.297778
-22.297092 31.088491 -6.319736
-22.216494 31.054873 -6.347050
-22.236839 31.116770 -6.294936
-22.155325 31.075930 -6.323532
-22.049513 31.235283 -6.427175
-22.243292 31.082764 -6.306812
-22.262884 31.180511 -6.368570
-22.265261 31.065931 -6.313246
-22.196247 31.200968 -6.341727
-21.869902 31.099020 -6.516737
-22.277519 31.640665 -6.344564
-22.088108 31.345839 -6.447268
-22.234474 31.339781 -6.360126
-22.046326 31.218437 -6.379958
-21.894169 31.148495 -6.496934
