# .PCD v0.7 - Point Cloud Data file format
VERSION 0.7
FIELDS x y z
SIZE 4 4 4
TYPE F F F
COUNT 1 1 1
WIDTH 31
HEIGHT 1
VIEWPOINT 0 0 0 1
POINTS 31
DATA ascii
-20.448820 31.642799 -5.695016
-20.446690 31.777945 -5.618071
-20.459646 31.635014 -5.723586
-20.385201 31.668457 -5.660426
-20.368380 31.675629 -5.656289
-20.401392 31.085402 -5.640688
-20.411167 31.116241 -5.579469
-20.400383 31.695393 -5.668938
-20.419167 31.651142 -5.600074
-20.456335 31.524569 -5.622185
-20.418926 31.748972 -5.677740
-20.348402 31.086111 -5.623133
-20.404312 31.101662 -5.645299
-20.348392 31.038225 -5.621964
-20.331102 31.621496 -5.689118
-20.347288 31.561659 -5.633351
-20.431379 31.802769 -5.688033
-20.393881 31.525936 -5.601273
-20.350067 31.694256 -5.683614
-20.410200 31.131533 -5.653726
-20.292028 31.028658 -5.648047
-20.351507 31.106415 -5.623673
-20.432396 31.422066 -5.613565
-20.363272 31.780535 -5.673689
-20.333105 31.545666 -5.567986
-20.410946 31.171532 -5.654843
-20.356256 31.131367 -5.632815
-20.294313 31.020626 -5.668020
-20.371834 31.369566 -5.626817
-20.357071 31.167189 -5.634698
-20.322365 31.522738 -5.504681
