# .PCD v0.7 - Point Cloud Data file format
VERSION 0.7
FIELDS x y z
SIZE 4 4 4
TYPE F F F
COUNT 1 1 1
WIDTH 97
HEIGHT 1
VIEWPOINT 0 0 0 1
POINTS 97
DATA ascii
-12.749670 31.323174 -3.120226
-12.828779 31.391130 -3.265204
-12.733529 31.325222 -3.119843
-12.745949 31.264193 -3.172576
-12.789743 31.301939 -3.143697
-12.846411 31.432562 -3.345546
-12.734846 31.282145 -3.150951
-12.764019 31.247076 -3.171329
-12.775638 31.305180 -3.139780
-12.758997 31.274063 -3.168743
-12.775082 31.219521 -3.146336
-12.749656 31.299650 -3.133697
-12.747463 31.286167 -3.160222
-12.765236 31.242857 -3.128386
-12.800349 31.213097 -3.167861
-12.768324 31.140015 -3.184549
-12.781165 31.302496 -3.173314
-12.834454 31.372145 -3.225331
-12.748481 31.247208 -3.099203
-12.794662 31.244377 -3.165203
-12.821360 31.200323 -3.173428
-12.834345 31.419025 -3.323900
-12.739008 31.294237 -3.153274
-12.829019 31.202145 -3.327917
-12.887842 31.291082 -3.181769
-12.808790 31.303102 -3.202262
-12.740129 31.274776 -3.118163
-12.784097 31.259653 -3.156609
-12.813175 31.229656 -3.163569
-12.810266 31.355146 -3.171629
-12.758114 31.282131 -3.150327
-12.840037 31.182289 -3.166786
-12.922054 31.326899 -3.352574
-12.848475 31.192318 -3.331860
-12.828379 31.293526 -3.205256
-12.898718 31.340160 -3.247158
-12.813050 31.200787 -3.319363
-12.774618 31.280226 -3.158946
-12.804990 31.248474 -3.161513
-12.831935 31.213526 -3.158470
-12.769555 31.260395 -3.122678
-12.839684 31.360235 -3.212479
-12.865642 31.176367 -3.186369
-12.941545 31.324352 -3.370905
-12.867640 31.180286 -3.332046
-12.847766 31.283648 -3.206037
-12.834764 31.192532 -3.325137
-12.807768 31.289005 -3.203471
-12.825412 31.238340 -3.164503
-12.852471 31.201805 -3.162113
-12.791089 31.251905 -3.129424
-12.961126 31.323708 -3.390774
-12.894899 31.187407 -3.364629
-12.809561 31.184513 -3.317514
-12.869576 31.277388 -3.216529
-12.854918 31.180191 -3.324379
-12.841658 31.220205 -3.149056
-12.825061 31.272455 -3.188608
-12.873919 31.191437 -3.167311
-12.825775 31.266516 -3.186167
-12.978573 31.318115 -3.400662
-12.830588 31.173437 -3.315145
-12.918799 31.328012 -3.353925
-12.879385 31.179590 -3.341974
-12.861907 31.209837 -3.152994
-12.853470 31.276005 -3.218415
-12.852841 31.269833 -3.215684
-12.895153 31.180756 -3.170281
-12.994053 31.307802 -3.399578
-12.962811 31.233438 -3.374272
-12.856488 31.171410 -3.330531
-12.937726 31.322817 -3.359975
-12.904339 31.181513 -3.365513
-12.890001 31.216473 -3.188744
-12.878881 31.275103 -3.235052
-12.857666 31.232943 -3.155821
-13.010561 31.300804 -3.404734
-12.983541 31.229164 -3.388165
-12.883798 31.176802 -3.357450
-12.881381 31.231260 -3.170919
-12.924060 31.317890 -3.349869
-12.972813 31.261749 -3.377686
-13.028991 31.298460 -3.417669
-12.964612 31.287525 -3.377424
-12.908953 31.240667 -3.210412
-12.948068 31.322054 -3.375894
-12.993640 31.262938 -3.397164
-12.980157 31.275494 -3.370674
-12.949240 31.286812 -3.325228
-12.968924 31.321520 -3.389713
-13.014002 31.261684 -3.413836
-13.003318 31.285509 -3.406387
-12.975485 31.303181 -3.375652
-13.021366 31.282551 -3.414908
-12.995167 31.302660 -3.388217
-13.014087 31.306322 -3.407990
-13.033237 31.308578 -3.424294
