# .PCD v0.7 - Point Cloud Data file format
VERSION 0.7
FIELDS x y z
SIZE 4 4 4
TYPE F F F
COUNT 1 1 1
WIDTH 39
HEIGHT 1
VIEWPOINT 0 0 0 1
POINTS 39
DATA ascii
-18.710794 31.497557 -4.837702
-18.694731 31.536743 -4.834698
-18.748674 31.587973 -4.855625
-18.675686 31.576260 -4.831378
-18.726959 31.628618 -4.849918
-18.662317 31.616714 -4.826375
-18.707943 31.670536 -4.842208
-18.644697 31.655451 -4.821539
-18.684807 31.709930 -4.835831
-18.502827 31.645609 -4.861803
-18.735804 31.759222 -4.857554
-18.670185 31.752958 -4.825837
-18.706877 31.798662 -4.848401
-18.779768 31.867409 -4.854223
-18.638105 31.788906 -4.820692
-18.684757 31.841894 -4.835920
-18.752565 31.911308 -4.839305
-18.657379 31.881973 -4.825331
-18.714855 31.948906 -4.828157
-18.803312 32.023857 -4.869306
-18.684383 31.990305 -4.812783
-18.768583 32.061104 -4.858499
-18.768230 32.078236 -4.871823
-18.804489 32.113777 -4.873000
-18.730165 32.095844 -4.848125
-18.748373 32.124905 -4.857193
-18.795666 32.172394 -4.854930
-18.801931 32.205196 -4.881598
-18.716278 32.144268 -4.829741
-18.736595 32.177406 -4.838760
-18.736479 32.201584 -4.853391
-18.770802 32.255600 -4.871595
-18.657709 32.166431 -4.825104
-18.678564 32.202999 -4.835534
-18.705805 32.245560 -4.842442
-18.743940 32.305698 -4.859223
-18.706570 32.351711 -4.849539
-18.834358 32.633801 -4.886427
-18.809969 32.612476 -4.878906
