# .PCD v0.7 - Point Cloud Data file format
VERSION 0.7
FIELDS x y z
SIZE 4 4 4
TYPE F F F
COUNT 1 1 1
WIDTH 15
HEIGHT 1
VIEWPOINT 0 0 0 1
POINTS 15
DATA ascii
-9.406563 35.043961 -3.214399
-9.130613 34.340168 -3.179945
-9.374924 35.030472 -3.255291
-9.356834 35.076588 -3.218935
-9.324021 35.056583 -3.260180
-9.863154 36.657112 -3.430683
-9.825811 36.626152 -3.375016
-9.320771 35.150391 -3.230324
-9.792631 36.637081 -3.330197
-9.768331 36.679131 -3.428925
-9.739540 36.673637 -3.379023
-9.304412 35.296322 -3.256693
-9.699492 36.659077 -3.333642
-9.674162 36.662136 -3.305664
-9.648835 36.680897 -3.306482
