# .PCD v0.7 - Point Cloud Data file format
VERSION 0.7
FIELDS x y z
SIZE 4 4 4
TYPE F F F
COUNT 1 1 1
WIDTH 75
HEIGHT 1
VIEWPOINT 0 0 0 1
POINTS 75
DATA ascii
-12.843542 31.276018 -3.340830
-12.855517 31.249817 -3.333584
-12.824604 31.217625 -3.348865
-12.856096 31.220678 -3.308527
-12.842281 31.192593 -3.346413
-12.813960 31.174133 -3.218692
-12.861147 31.167946 -3.345151
-12.827700 31.146736 -3.208374
-12.880651 31.144962 -3.345238
-12.867969 31.132257 -3.240257
-12.907495 31.124897 -3.354617
-12.897665 31.114319 -3.255336
-12.936440 31.107637 -3.367699
-12.988731 31.128025 -3.369738
-12.846089 31.314602 -3.320033
-12.832060 31.321178 -3.305271
-12.771769 31.275631 -3.114353
-12.810740 31.275373 -3.243681
-12.841716 31.295300 -3.299986
-12.817909 31.298441 -3.147245
-12.884274 31.323414 -3.187819
-12.764360 31.276550 -3.114561
-12.812296 31.257816 -3.153354
-13.011162 31.354698 -3.346725
-12.771935 31.232403 -3.160255
-12.770436 31.243277 -3.175003
-12.860604 31.283838 -3.193109
-12.892145 31.298004 -3.178352
-12.817494 31.231535 -3.306464
-12.796345 31.255852 -3.147108
-13.008574 31.331573 -3.325325
-12.827632 31.233013 -3.152927
-12.793650 31.207994 -3.166675
-12.777006 31.214554 -3.162835
-12.867008 31.257307 -3.181275
-12.910625 31.276474 -3.187950
-12.837733 31.208799 -3.312999
-12.816612 31.231058 -3.158405
-13.021301 31.311302 -3.329426
-12.856542 31.214035 -3.172189
-12.818383 31.185972 -3.176858
-12.796668 31.190598 -3.171154
-12.904693 31.242977 -3.219529
-12.935649 31.258718 -3.209038
-12.858341 31.186962 -3.319722
-12.834868 31.206427 -3.167484
-12.869526 31.188200 -3.165242
-12.911567 31.217495 -3.206903
-12.849110 31.166227 -3.196190
-12.824809 31.169807 -3.190048
-12.961574 31.240582 -3.230158
-12.880886 31.167297 -3.328022
-12.855658 31.183125 -3.181122
-13.074346 31.284491 -3.387581
-12.918869 31.180025 -3.219980
-12.860840 31.153759 -3.223782
-12.925356 31.193909 -3.203462
-12.877013 31.147184 -3.212287
-12.904228 31.147095 -3.337339
-12.884280 31.164120 -3.206469
-12.936215 31.157536 -3.220150
-12.945960 31.174845 -3.212680
-12.953115 31.166737 -3.347572
-12.944666 31.149101 -3.294009
-13.088450 31.244169 -3.412023
-12.924375 31.126688 -3.343236
-12.948539 31.163465 -3.291497
-13.060665 31.191456 -3.408751
-13.053165 31.198875 -3.376487
-12.978778 31.150339 -3.365901
-13.014562 31.154392 -3.381599
-12.953919 31.111853 -3.362228
-13.013153 31.166508 -3.379195
-12.997074 31.130693 -3.371729
-13.032857 31.148268 -3.391509
