# .PCD v0.7 - Point Cloud Data file format
VERSION 0.7
FIELDS x y z
SIZE 4 4 4
TYPE F F F
COUNT 1 1 1
WIDTH 19
HEIGHT 1
VIEWPOINT 0 0 0 1
POINTS 19
DATA ascii
-12.415619 34.900467 -2.377368
-12.381799 34.943394 -2.424206
-12.385256 34.764042 -2.445956
-12.436412 34.291412 -2.452014
-12.341644 34.732834 -2.043141
-12.396461 34.277866 -2.434444
-12.386415 34.271942 -2.398251
-12.356686 34.256535 -2.422313
-12.356836 34.213989 -2.420405
-12.317798 34.236721 -2.407577
-12.331154 34.146717 -2.450260
-12.406521 34.898636 -2.406872
-12.412798 34.886520 -2.277922
-12.424476 34.669983 -2.409528
-12.346606 34.919662 -2.231443
-12.434892 34.473587 -2.420313
-12.369874 34.670715 -2.388536
-12.386139 34.468346 -2.400899
-12.339225 34.454044 -2.384926
