# .PCD v0.7 - Point Cloud Data file format
VERSION 0.7
FIELDS x y z
SIZE 4 4 4
TYPE F F F
COUNT 1 1 1
WIDTH 47
HEIGHT 1
VIEWPOINT 0 0 0 1
POINTS 47
DATA ascii
-11.799143 31.511597 -2.964030
-11.811558 31.516893 -2.906778
-11.803374 31.516218 -2.841710
-11.797465 31.478550 -2.935546
-11.694846 31.429195 -2.874875
-11.746761 31.465155 -2.785598
-11.668614 31.397709 -2.915000
-11.802217 31.482056 -2.811987
-11.869049 31.500973 -2.862543
-11.786493 31.441177 -2.893070
-11.657613 31.377701 -2.794532
-11.783505 31.441395 -2.806087
-11.585830 31.326328 -2.775663
-11.838609 31.459732 -2.835913
-11.815888 31.416559 -2.903866
-11.724683 31.363050 -2.850177
-11.824586 31.421267 -2.833385
-11.862218 31.435003 -2.842662
-11.599892 31.286610 -2.754215
-11.883142 31.408392 -2.968475
-11.736897 31.328196 -2.831758
-11.834100 31.389738 -2.813301
-11.890735 31.410875 -2.853455
-11.645529 31.260279 -2.774410
-11.945075 31.400972 -3.029324
-11.747115 31.291822 -2.810573
-11.849868 31.361174 -2.802241
-11.979873 31.383944 -3.051227
-11.977215 31.384712 -2.965489
-11.899589 31.325308 -2.990646
-12.006663 31.364862 -3.060951
-11.809620 31.499508 -3.020266
-11.856613 31.526047 -2.982935
-11.827071 31.475769 -3.022609
-11.869613 31.498360 -2.982769
-11.851703 31.454908 -3.033801
-11.890139 31.474192 -2.992674
-11.874262 31.434391 -3.043756
-11.910792 31.450243 -3.001617
-11.892653 31.412365 -3.046620
-11.927624 31.425426 -3.004690
-11.917011 31.393068 -3.057098
-11.968015 31.411091 -3.044261
-11.942389 31.375694 -3.071236
-11.988871 31.389566 -3.052744
-11.961717 31.355383 -3.074616
-12.010196 31.368900 -3.061483
