# .PCD v0.7 - Point Cloud Data file format
VERSION 0.7
FIELDS x y z
SIZE 4 4 4
TYPE F F F
COUNT 1 1 1
WIDTH 32
HEIGHT 1
VIEWPOINT 0 0 0 1
POINTS 32
DATA ascii
-3.899386 35.331783 0.796479
-3.934546 35.270630 0.799290
-3.918269 35.259483 0.794906
-3.782492 35.012497 0.840508
-3.771720 34.997856 0.843500
-3.779879 34.989056 0.834545
-3.844067 34.929169 0.807241
-3.798579 34.926781 0.835611
-3.789443 34.907169 0.843666
-3.791771 34.925751 0.848216
-3.888785 34.854401 0.790002
-3.878059 34.837002 0.773683
-3.841089 34.828304 0.822192
-3.820922 34.856857 0.843647
-3.881595 34.777737 0.791710
-3.868648 34.783756 0.820235
-3.901996 34.750031 0.792425
-3.881250 34.720417 0.815670
-3.810101 34.594566 0.807949
-3.866710 34.523148 0.781222
-3.767539 34.519379 0.864907
-3.862317 34.468258 0.818449
-3.828507 34.447193 0.839278
-3.899382 35.434399 0.760838
-3.908875 35.364567 0.757938
-3.915469 35.340103 0.795806
-3.905480 35.302071 0.766962
-3.929149 35.275837 0.794822
-3.898909 35.242569 0.782540
-3.900404 35.178898 0.789614
-3.898632 35.117489 0.801394
-3.896310 35.056103 0.815343
