# .PCD v0.7 - Point Cloud Data file format
VERSION 0.7
FIELDS x y z
SIZE 4 4 4
TYPE F F F
COUNT 1 1 1
WIDTH 58
HEIGHT 1
VIEWPOINT 0 0 0 1
POINTS 58
DATA ascii
-3.889881 35.425514 0.708314
-3.758496 35.332718 0.829510
-3.793876 35.471725 0.816229
-3.838162 35.440842 0.775170
-3.805819 35.298111 0.786127
-3.766147 35.387035 0.828960
-3.889262 35.409592 0.720146
-3.859486 35.266384 0.728449
-3.769514 35.453053 0.828224
-3.817642 35.354191 0.775749
-3.764276 35.423073 0.828189
-3.864017 35.228935 0.775246
-3.811818 35.421688 0.800398
-3.864082 35.323299 0.734191
-3.818800 35.391705 0.770113
-3.881768 35.391129 0.712060
-3.868664 35.289417 0.776966
-3.761786 35.452805 0.835197
-3.867434 35.361900 0.724081
-3.755622 35.429111 0.826618
-3.809408 35.423473 0.792577
-3.869371 35.331486 0.774908
-3.793577 35.398178 0.815561
-3.768368 34.957649 0.764315
-3.869354 35.395123 0.726048
-3.869031 35.369148 0.725157
-3.784417 34.920918 0.795450
-3.872777 35.367500 0.775158
-3.808870 34.886261 0.813322
-3.729707 34.794834 0.844936
-3.785714 34.941284 0.762944
-3.809262 34.782204 0.759253
-3.722170 34.881550 0.849355
-3.370501 34.546082 1.924519
-3.795604 34.900974 0.813224
-3.789042 34.862965 0.784390
-3.833608 34.740402 0.785173
-3.714707 34.947449 0.853605
-3.831883 34.834721 0.768578
-3.774523 34.926369 0.801788
-3.781424 34.917625 0.777094
-3.717223 35.009083 0.851864
-3.358975 34.572575 1.919462
-3.832184 34.906647 0.754398
-3.800888 34.880993 0.813069
-3.767715 34.986073 0.819155
-3.726520 34.418404 0.791217
-3.730531 34.912346 0.817344
-3.845624 34.868153 0.796133
-3.836224 34.972191 0.746976
-3.785759 34.889019 0.789354
-3.848568 34.936989 0.789651
-3.371330 34.541443 1.930996
-3.814767 34.854923 0.814982
-3.760710 34.409019 0.779059
-3.724881 34.409889 0.791091
-3.702799 34.440090 0.861778
-3.786342 34.445816 0.779888
