# .PCD v0.7 - Point Cloud Data file format
VERSION 0.7
FIELDS x y z
SIZE 4 4 4
TYPE F F F
COUNT 1 1 1
WIDTH 41
HEIGHT 1
VIEWPOINT 0 0 0 1
POINTS 41
DATA ascii
-12.370833 34.081974 -2.490151
-12.356661 33.982426 -2.504354
-12.366672 34.158443 -2.469563
-12.374764 34.079472 -2.474958
-12.353517 33.970852 -2.492049
-12.340144 34.211147 -2.463331
-12.359539 34.144657 -2.463702
-12.365253 34.061287 -2.468104
-12.319707 34.272812 -2.451020
-12.373959 34.109943 -2.498733
-12.327957 34.191582 -2.462148
-12.347899 34.123272 -2.460185
-12.224484 34.238907 -2.487068
-12.400142 34.222095 -2.461461
-12.298441 34.241554 -2.458240
-12.407541 34.514477 -2.513834
-12.321052 34.175308 -2.457881
-12.412339 34.410034 -2.475835
-12.383499 34.289143 -2.448389
-12.424277 34.649574 -2.471630
-12.296927 34.232418 -2.452613
-12.398256 34.491421 -2.456284
-12.353430 34.340500 -2.443640
-12.393249 34.723690 -2.455499
-12.361981 34.546108 -2.449559
-12.324475 34.395199 -2.436509
-12.308485 34.718208 -2.471882
-12.262362 34.511078 -2.481934
-12.358608 33.863491 -2.491693
-12.329161 33.835014 -2.519461
-12.376766 33.947376 -2.466590
-12.355843 33.934860 -2.491912
-12.383981 34.024147 -2.446299
-12.362770 34.017498 -2.474679
-12.369684 34.081806 -2.437850
-12.354968 34.088284 -2.465124
-12.342244 34.126057 -2.436950
-12.333777 34.148014 -2.462494
-12.321995 34.178688 -2.431102
-12.317585 34.215813 -2.454649
-12.235671 34.204369 -2.486437
