# .PCD v0.7 - Point Cloud Data file format
VERSION 0.7
FIELDS x y z
SIZE 4 4 4
TYPE F F F
COUNT 1 1 1
WIDTH 14
HEIGHT 1
VIEWPOINT 0 0 0 1
POINTS 14
DATA ascii
-9.505785 35.006851 -3.274065
-9.222876 34.305737 -3.241304
-9.473983 34.993774 -3.314970
-9.456376 35.039959 -3.278477
-9.423334 35.020382 -3.319753
-9.978231 36.615929 -3.486339
-9.940621 36.585186 -3.430728
-9.421036 35.114124 -3.289642
-9.907581 36.596313 -3.385856
-9.854819 36.633514 -3.434544
-9.406105 35.260262 -3.315607
-9.814659 36.619225 -3.389174
-9.789380 36.622456 -3.361169
-9.764238 36.641457 -3.361918
