# .PCD v0.7 - Point Cloud Data file format
VERSION 0.7
FIELDS x y z
SIZE 4 4 4
TYPE F F F
COUNT 1 1 1
WIDTH 16
HEIGHT 1
VIEWPOINT 0 0 0 1
POINTS 16
DATA ascii
-10.647734 42.897629 -1.895602
-10.572870 42.944653 -1.883170
-10.588315 42.864685 -1.911453
-10.599471 43.001915 -1.905593
-10.579269 43.226170 -1.864747
-10.654863 43.248688 -1.875287
-10.650817 43.318848 -1.897270
-10.601768 43.466713 -1.868697
-10.650821 43.384983 -1.916960
-10.710954 43.473293 -1.865482
-10.643173 43.455906 -1.936878
-10.699425 43.543911 -1.880591
-10.689470 43.612099 -1.894967
-10.672574 43.681797 -1.909561
-10.652837 43.752087 -1.922834
-10.649166 43.813637 -1.933539
