# .PCD v0.7 - Point Cloud Data file format
VERSION 0.7
FIELDS x y z
SIZE 4 4 4
TYPE F F F
COUNT 1 1 1
WIDTH 141
HEIGHT 1
VIEWPOINT 0 0 0 1
POINTS 141
DATA ascii
-1.378097 5.268847 0.871335
-1.410734 5.338483 0.927921
-1.385657 5.374043 0.873803
-1.479670 5.295892 1.169215
-1.425146 5.450989 0.927500
-1.379532 5.336648 0.858736
-1.496156 5.340041 1.169156
-1.277074 5.399167 0.540601
-1.253887 5.385335 0.482834
-1.373740 5.366657 0.834015
-1.397321 5.491596 0.877526
-1.460806 5.289351 1.105158
-1.357156 5.327318 0.790438
-1.500631 5.415422 1.178129
-1.455131 5.597797 0.924309
-1.242135 5.358872 0.480559
-1.391391 5.454391 0.855117
-1.466358 5.350267 1.084798
-1.513557 5.459435 1.177561
-1.135945 5.410081 0.197586
-1.355070 5.363815 0.797028
-1.283659 5.550280 0.458061
-1.010312 5.224648 0.222476
-1.371410 5.465711 0.836884
-1.039413 5.404749 -0.096009
-1.236281 5.407973 0.446938
-1.420897 5.635051 0.878982
-1.222399 5.331637 0.424138
-1.326755 5.315220 0.720213
-1.479170 5.408629 1.110730
-1.360884 5.436722 0.787203
-1.018704 5.223637 0.175667
-1.451454 5.698448 0.928415
-1.538811 5.566912 1.189158
-1.253197 5.492426 0.460189
-1.419234 5.605848 0.849950
-1.012036 5.304110 0.267054
-1.547283 5.608254 1.187177
-1.346895 5.391301 0.744765
-1.477990 5.467765 1.090961
-1.304517 5.675928 0.505159
-1.363337 5.483212 0.794586
-1.287283 5.680519 0.447624
-1.152007 5.618061 0.077579
-1.413822 5.643401 0.830342
-0.915284 5.293084 -0.003809
-1.259741 5.567843 0.422687
-1.227202 5.450195 0.398721
-1.436798 5.777757 0.883486
-1.221538 5.448338 0.409548
-1.009028 5.292251 0.191063
-1.522927 5.573697 1.118178
-1.342981 5.452868 0.709880
-1.213165 5.391065 0.370228
-1.466105 5.838336 0.928730
-1.393482 5.602929 0.776013
-1.095582 5.426136 0.037529
-1.131407 5.566472 0.045833
-1.271713 5.649218 0.436138
-1.422982 5.725197 0.849847
-1.197773 5.411618 0.332760
-1.161248 5.727149 0.118234
-1.313845 5.822558 0.487547
-1.372221 5.543505 0.733425
-1.387637 5.635456 0.788534
-1.283666 5.807641 0.439780
-1.504208 5.615118 1.096665
-1.156390 5.772643 0.044940
-1.103615 5.499927 0.027401
-1.412531 5.761409 0.834564
-1.266810 5.713594 0.405399
-1.245458 5.612267 0.369083
-1.447284 5.917900 0.889422
-1.253090 5.632910 0.374724
-1.130293 5.665586 0.051639
-1.517795 5.675862 1.128406
-1.475767 5.976002 0.931313
-1.237443 5.561640 0.335252
-1.397838 5.731868 0.772911
-1.137354 5.726893 0.006445
-0.959318 5.301100 0.128245
-0.960642 5.227893 0.105932
-1.272928 5.788438 0.418529
-1.433223 5.867907 0.848898
-1.165426 5.892468 0.080158
-1.310874 5.957458 0.475030
-1.287058 5.956734 0.427805
-1.156799 5.934004 0.012791
-1.369758 5.663346 0.731537
-1.401563 5.784786 0.785404
-1.523635 5.760610 1.105414
-1.119976 5.683316 -0.026633
-1.432730 5.922996 0.835194
-1.270756 5.863167 0.389364
-1.464673 6.080812 0.895735
-1.253264 5.767723 0.343906
-1.253881 5.775433 0.357193
-1.128089 5.819438 0.014322
-1.492778 6.137702 0.934727
-1.531742 5.812391 1.138822
-1.136066 5.887828 -0.029434
-1.406873 5.880894 0.768832
-1.240243 5.711270 0.311423
-1.103770 5.748629 -0.053144
-1.103169 5.656655 -0.076413
-1.270080 5.929817 0.403330
-1.446703 6.024993 0.848829
-1.317190 6.119786 0.458584
-1.159546 6.049667 0.048150
-1.223249 5.739642 0.269221
-1.154138 6.101960 -0.019256
-1.413262 5.940465 0.784433
-1.381570 5.815533 0.724755
-1.538615 5.909766 1.114966
-1.118374 5.846756 -0.066946
-1.443424 6.079637 0.839128
-1.272491 6.020016 0.375105
-1.251477 5.917246 0.324866
-1.256660 5.933162 0.337264
-1.127021 5.991453 -0.026155
-1.543931 5.957463 1.151465
-1.377116 5.902096 0.684805
-1.130805 6.055541 -0.064820
-1.419166 6.045219 0.765249
-1.237597 5.860125 0.290708
-1.101510 5.921549 -0.099347
-1.274762 6.098125 0.382918
-1.098537 5.819510 -0.120903
-1.222148 5.899742 0.244338
-1.422290 6.101226 0.785153
-1.398018 5.988658 0.719048
-1.054169 5.813181 -0.154124
-1.113793 6.021410 -0.109090
-1.248083 6.079990 0.303674
-1.257788 6.104972 0.317246
-1.570676 6.136868 1.166610
-1.384610 6.070749 0.678339
-1.238369 6.028956 0.266108
-1.214335 6.061680 0.220982
-1.571462 6.246584 1.140882
-1.117718 6.607840 -0.169574
