# .PCD v0.7 - Point Cloud Data file format
VERSION 0.7
FIELDS x y z
SIZE 4 4 4
TYPE F F F
COUNT 1 1 1
WIDTH 320
HEIGHT 1
VIEWPOINT 0 0 0 1
POINTS 320
DATA ascii
-8.746369 49.091457 -2.873764
-8.672849 49.117146 -2.947866
-8.329088 48.642067 -2.982410
-8.265783 48.686050 -3.055308
-8.301587 48.664516 -3.006061
-8.671592 49.097740 -2.811400
-8.598781 49.120148 -2.882700
-8.431086 48.628502 -2.926206
-8.771343 49.097202 -2.830572
-8.416759 49.086056 -2.991289
-8.348321 48.644314 -2.968938
-8.208457 48.709286 -3.002844
-8.381578 49.095764 -3.014589
-8.600548 49.111446 -2.750953
-8.530636 49.134209 -2.819350
-8.539618 49.080315 -2.925354
-8.697731 49.102196 -2.766781
-8.214252 48.703445 -3.013067
-8.787805 49.102005 -2.805979
-8.246939 48.738239 -2.992064
-8.447912 49.108307 -2.976594
-8.353002 49.117641 -2.932518
-8.358887 48.641510 -2.971999
-8.267290 49.119209 -3.005811
-8.318377 49.123119 -2.954447
-8.526491 49.117569 -2.689262
-8.458916 49.137756 -2.756218
-8.486930 49.131039 -2.863245
-8.349005 48.693943 -2.928561
-8.625831 49.111946 -2.703582
-8.206738 48.684261 -3.037220
-8.210491 48.699749 -3.031991
-8.277697 49.118561 -3.016592
-8.714048 49.102901 -2.740123
-8.305714 49.127628 -2.988290
-8.281103 49.120190 -2.870800
-8.377256 49.113636 -2.912697
-8.455381 49.087677 -2.975076
-8.360641 48.628132 -2.967643
-8.196772 49.121452 -2.944056
-8.248426 49.128296 -2.891232
-8.797400 49.101997 -2.775962
-8.700436 49.144989 -2.442123
-8.715818 49.151100 -2.548594
-8.724408 49.146725 -2.675858
-8.449771 49.114021 -2.628462
-8.391094 49.149693 -2.693576
-8.418551 49.136921 -2.798580
-8.436060 49.123451 -2.920797
-8.708154 49.134171 -2.802411
-8.552344 49.113838 -2.640517
-8.297174 48.709972 -2.982942
-8.193381 48.665176 -3.057263
-8.252058 49.029392 -3.031574
-8.164315 48.652943 -3.067297
-8.275838 49.110386 -3.035566
-8.208901 49.122437 -2.951947
-8.640812 49.102669 -2.674967
-8.234584 49.123787 -2.921691
-8.306488 49.114883 -2.848143
-8.209209 49.122726 -2.809073
-8.392082 49.107830 -2.910798
-8.444808 49.032764 -2.962440
-8.131066 49.140079 -2.883365
-8.181732 49.142033 -2.830635
-8.726282 49.105373 -2.707887
-8.643106 49.149765 -2.484148
-8.652381 49.149250 -2.607109
-8.379535 49.124458 -2.568011
-8.317197 49.142437 -2.630625
-8.352762 49.148388 -2.733769
-8.372414 49.138527 -2.854475
-8.484776 49.126785 -2.579267
-8.641330 49.144764 -2.731307
-8.376774 49.134933 -2.978977
-8.131974 48.655293 -2.992623
-8.211394 49.120625 -2.977774
-8.109844 48.666203 -3.005708
-8.214561 49.130043 -2.969112
-8.143127 49.133873 -2.888529
-8.573576 49.117558 -2.610867
-8.143670 49.138298 -2.750532
-8.168814 49.135227 -2.858275
-8.238344 49.121727 -2.784853
-8.324745 49.115479 -2.843955
-8.407140 49.121319 -2.905098
-8.059963 49.139355 -2.821646
-8.113219 49.146912 -2.768782
-8.657787 49.114353 -2.641077
-8.574971 49.156666 -2.419471
-8.580497 49.148682 -2.539096
-8.309957 49.137829 -2.508906
-8.251035 49.155048 -2.569326
-8.283826 49.151295 -2.669141
-8.303802 49.136208 -2.787084
-8.413951 49.134251 -2.517450
-8.311356 49.138012 -2.907903
-8.765041 49.162594 -2.177898
-8.572564 49.152679 -2.660270
-8.207051 49.121128 -2.998072
-8.146989 49.131721 -2.911497
-8.181864 49.127560 -3.011990
-8.148141 49.131317 -2.901602
-8.075821 49.137440 -2.825239
-8.504801 49.124569 -2.546885
-8.071161 49.133797 -2.689595
-8.101993 49.137669 -2.794285
-8.171999 49.133327 -2.723553
-8.258018 49.121998 -2.779208
-7.991857 49.142117 -2.761908
-8.336391 49.112225 -2.834308
-8.043578 49.145885 -2.707019
-8.591860 49.124836 -2.574856
-8.896120 49.109119 -2.258903
-8.504042 49.152897 -2.355672
-8.516952 49.163773 -2.472739
-8.237916 49.135338 -2.449332
-8.184005 49.166790 -2.507320
-8.216640 49.151798 -2.605175
-8.238814 49.144360 -2.719434
-8.340691 49.125877 -2.456576
-8.245818 49.140102 -2.838228
-8.703657 49.198776 -2.113327
-8.506646 49.160015 -2.590543
-8.143014 49.126987 -2.929013
-8.080635 49.132996 -2.845376
-8.119213 49.133129 -2.942900
-8.010761 49.144646 -2.763239
-8.081158 49.129635 -2.834126
-8.435648 49.129608 -2.482910
-8.106865 49.143646 -2.662221
-8.004308 49.149609 -2.631049
-8.036620 49.146976 -2.731559
-8.192620 49.131310 -2.715077
-7.923174 49.149075 -2.702113
-8.274220 49.126968 -2.767912
-7.976687 49.154526 -2.647160
-8.701567 48.977421 -2.142916
-8.522163 49.123829 -2.508858
-8.748657 48.941479 -2.201935
-8.534627 49.236435 -2.057928
-8.445946 49.159954 -2.406105
-8.170367 49.151325 -2.390101
-8.817308 49.054115 -2.143090
-8.115735 49.168602 -2.447591
-8.150767 49.162243 -2.541744
-8.174376 49.151405 -2.653898
-8.277281 49.148148 -2.395752
-8.543879 48.982929 -2.075681
-8.182664 49.146805 -2.768433
-8.441326 49.170284 -2.520761
-8.081475 49.134377 -2.860576
-8.017612 49.139740 -2.781215
-7.944511 49.145958 -2.701344
-8.057359 49.142609 -2.873737
-8.020120 49.146183 -2.769786
-8.369227 49.137169 -2.420948
-8.039150 49.148357 -2.601024
-7.935152 49.150555 -2.572052
-7.972640 49.155983 -2.668801
-8.130118 49.144112 -2.651531
-7.856514 49.158688 -2.643639
-8.211337 49.134693 -2.700918
-7.909400 49.161198 -2.587332
-8.686231 49.109222 -2.071023
-8.458854 49.139904 -2.443888
-8.773877 49.156704 -2.118806
-8.409601 49.088921 -2.015009
-8.098565 49.149807 -2.331911
-8.048741 49.173195 -2.387084
-8.086203 49.168339 -2.479043
-8.110535 49.161385 -2.588305
-8.207600 49.150246 -2.334642
-8.523669 49.115685 -2.003165
-8.120258 49.153378 -2.700733
-8.019974 49.141777 -2.793546
-8.374619 49.173683 -2.451100
-7.953679 49.145630 -2.716379
-7.995739 49.145931 -2.806058
-7.956106 49.148018 -2.705711
-8.303884 49.146530 -2.358227
-7.877271 49.149509 -2.639439
-7.971637 49.146893 -2.539901
-7.906196 49.156311 -2.606921
-7.867191 49.157372 -2.512940
-8.061944 49.139683 -2.587644
-7.786840 49.153576 -2.584024
-8.149086 49.145367 -2.635277
-7.841320 49.163937 -2.527573
-8.390982 49.140568 -2.379229
-8.707200 49.167332 -2.049061
-8.339702 49.100342 -1.955900
-8.029828 49.159885 -2.272778
-7.980162 49.177078 -2.326619
-8.021955 49.179474 -2.416966
-8.044630 49.157494 -2.523649
-8.141130 49.160881 -2.274746
-8.057226 49.156986 -2.631675
-7.958390 49.152260 -2.727179
-8.308264 49.174992 -2.383572
-7.889981 49.152508 -2.652930
-7.935347 49.155140 -2.739678
-8.234489 49.146515 -2.296431
-7.812451 49.157677 -2.578818
-7.891978 49.152920 -2.640889
-7.799382 49.161114 -2.455978
-7.904442 49.150467 -2.479404
-7.841145 49.163490 -2.544910
-7.999282 49.151501 -2.525519
-7.721889 49.167931 -2.526139
-7.775263 49.169331 -2.469135
-8.084934 49.150280 -2.569050
-8.326403 49.146687 -2.315120
-7.916071 49.192287 -2.266592
-7.961523 49.164783 -2.215111
-7.955493 49.179802 -2.353674
-7.984995 49.173759 -2.459273
-8.070778 49.155960 -2.214444
-7.997553 49.173229 -2.565890
-7.896217 49.152645 -2.660957
-8.243896 49.178947 -2.315956
-7.826799 49.158257 -2.590185
-8.169663 49.154739 -2.234410
-7.748543 49.166679 -2.518865
-7.830070 49.161461 -2.577371
-7.872823 49.157600 -2.671320
-7.840261 49.161602 -2.420137
-7.732933 49.171688 -2.397474
-7.777719 49.171368 -2.484257
-7.934323 49.155602 -2.462842
-7.654243 49.172607 -2.467742
-8.023912 49.159683 -2.504799
-7.709093 49.177792 -2.409947
-8.153077 49.190712 -1.952793
-8.254408 49.126762 -2.252240
-7.847020 49.182987 -2.207015
-7.893188 49.169651 -2.156030
-7.890096 49.177906 -2.293203
-7.918618 49.170979 -2.395311
-8.004151 49.158466 -2.156062
-7.934564 49.169689 -2.498329
-7.833850 49.152042 -2.594750
-7.762992 49.161041 -2.526081
-7.683928 49.168659 -2.458315
-7.768167 49.162846 -2.513945
-7.811563 49.158817 -2.605766
-7.774065 49.162907 -2.359637
-7.712709 49.171394 -2.423743
-7.663510 49.167553 -2.339238
-7.870476 49.161518 -2.400816
-7.586998 49.172089 -2.409400
-8.007304 48.873344 -1.939494
-7.957903 49.151707 -2.439487
-7.641736 49.180355 -2.350862
-7.779677 49.185585 -2.147933
-7.822989 49.168774 -2.097771
-7.826537 49.188854 -2.230392
-7.856329 49.177570 -2.331825
-7.874187 49.178898 -2.431942
-7.773898 49.163208 -2.529732
-7.702629 49.173363 -2.464581
-7.618837 49.171757 -2.398460
-7.706183 49.174458 -2.451082
-7.752485 49.170807 -2.540010
-7.709178 49.174149 -2.299669
-7.648777 49.180363 -2.362370
-7.596902 49.177135 -2.282149
-7.806435 49.166443 -2.338802
-7.520586 49.175491 -2.352389
-7.896921 49.161106 -2.376638
-8.016334 49.182156 -1.834182
-7.575094 49.189915 -2.292362
-8.125822 49.535194 -1.868050
-7.715083 49.201870 -2.087180
-7.762618 49.197849 -2.169021
-7.793928 49.187225 -2.267590
-7.812745 49.179142 -2.366400
-7.714150 49.168198 -2.464789
-7.638152 49.176273 -2.401185
-7.554940 49.180721 -2.338490
-7.643413 49.174992 -2.388384
-7.691945 49.171875 -2.475137
-7.644214 49.181324 -2.240458
-7.584369 49.190445 -2.301693
-7.743982 49.179192 -2.276639
-7.527884 49.182072 -2.223765
-7.834999 49.169632 -2.311702
-7.907176 48.874241 -1.903478
-7.696045 49.190041 -2.108642
-7.731962 49.191704 -2.204819
-7.751388 49.183434 -2.300092
-7.653414 49.175423 -2.399833
-7.576013 49.179752 -2.339837
-7.581439 49.179436 -2.325608
-7.631805 49.174889 -2.410223
-7.577353 49.182743 -2.180659
-7.519256 49.193508 -2.240417
-7.679472 49.178082 -2.215412
-7.771729 49.171307 -2.248296
-7.911553 49.185928 -1.793306
-7.943191 49.260735 -1.877308
-7.631986 49.202065 -2.045104
-7.669569 49.201332 -2.140572
-7.691737 49.192478 -2.234379
-7.592799 49.179562 -2.335617
-7.511975 49.184616 -2.277802
-7.518595 49.183037 -2.263563
-7.571671 49.177895 -2.345304
-7.616434 49.187866 -2.153291
-7.711437 49.180523 -2.184712
-7.805797 48.882614 -1.874450
-7.605913 49.201019 -2.077189
-7.532897 49.190701 -2.271987
-7.631101 49.196613 -2.168750
-7.511734 49.189011 -2.280264
-7.649370 49.180908 -2.121283
-7.570551 49.204788 -2.102352
-7.720540 49.220207 -1.799887
-7.831383 49.247955 -1.800149
-7.705304 48.961819 -1.824648
