# .PCD v0.7 - Point Cloud Data file format
VERSION 0.7
FIELDS x y z
SIZE 4 4 4
TYPE F F F
COUNT 1 1 1
WIDTH 13
HEIGHT 1
VIEWPOINT 0 0 0 1
POINTS 13
DATA ascii
-2.088936 42.589817 1.311904
-2.083266 42.459717 1.308657
-2.073922 42.349117 1.316672
-2.067188 42.239773 1.322551
-2.064206 42.126766 1.323378
-2.060792 42.022198 1.327269
-2.060926 41.917828 1.329113
-2.197625 41.926807 1.252522
-2.061820 41.815933 1.329120
-2.198073 41.825165 1.248813
-2.055418 41.734386 1.344409
-2.049825 41.654427 1.358347
-1.832114 41.958904 1.509548
