# .PCD v0.7 - Point Cloud Data file format
VERSION 0.7
FIELDS x y z
SIZE 4 4 4
TYPE F F F
COUNT 1 1 1
WIDTH 29
HEIGHT 1
VIEWPOINT 0 0 0 1
POINTS 29
DATA ascii
-15.018093 44.562199 -3.627635
-15.037595 44.771847 -3.617151
-15.011394 45.068615 -3.617810
-15.025952 44.634857 -3.673370
-15.011520 44.396946 -3.687235
-15.037223 44.844746 -3.657037
-15.009871 44.533787 -3.596757
-15.030222 44.743820 -3.598969
-15.026037 44.950565 -3.610022
-15.056490 45.090591 -3.636385
-14.921437 45.248497 -3.634862
-15.007051 44.616791 -3.648557
-15.027719 44.819324 -3.643178
-15.042603 45.004753 -3.641574
-15.054596 45.154240 -3.667440
-15.051962 45.200676 -3.623703
-15.028095 44.689342 -3.628115
-15.030052 44.890762 -3.684366
-15.048520 44.928532 -3.623179
-15.063014 45.208714 -3.694554
-15.031034 45.083698 -3.679908
-15.059457 45.258305 -3.649376
-14.996058 45.200996 -3.632700
-15.011089 44.784210 -3.682636
-15.034907 45.010132 -3.667242
-15.054988 45.324341 -3.677715
-15.063449 45.205372 -3.644699
-15.054521 45.385479 -3.703814
-15.054807 45.274426 -3.678184
