# .PCD v0.7 - Point Cloud Data file format
VERSION 0.7
FIELDS x y z
SIZE 4 4 4
TYPE F F F
COUNT 1 1 1
WIDTH 18
HEIGHT 1
VIEWPOINT 0 0 0 1
POINTS 18
DATA ascii
-8.988407 40.784241 -1.129439
-8.942880 40.928303 -1.135935
-8.849810 41.690948 -1.129840
-8.837072 41.610928 -1.118919
-8.818347 41.911415 -1.097319
-8.935527 41.679325 -1.164951
-8.932629 41.588078 -1.156221
-8.907669 41.904640 -1.128351
-9.035128 41.657974 -1.196558
-8.910555 41.519810 -1.145182
-9.015178 41.583096 -1.199441
-8.990438 41.907986 -1.163230
-8.891644 41.431488 -1.142284
-8.900204 41.946697 -1.125624
-9.013114 41.493771 -1.187609
-8.985090 41.944019 -1.158637
-8.980186 41.982986 -1.157931
-8.970705 41.994461 -1.156046
