# .PCD v0.7 - Point Cloud Data file format
VERSION 0.7
FIELDS x y z
SIZE 4 4 4
TYPE F F F
COUNT 1 1 1
WIDTH 17
HEIGHT 1
VIEWPOINT 0 0 0 1
POINTS 17
DATA ascii
-13.861605 44.099464 -5.909842
-13.272438 44.392586 -6.218283
-13.318722 44.501942 -6.240186
-13.438082 44.310555 -6.344879
-13.762508 44.136803 -6.395878
-13.859487 44.504498 -5.750827
-13.489136 44.417862 -6.368570
-13.798729 44.262569 -6.410153
-13.756566 44.130970 -6.476762
-13.812578 44.400299 -6.408281
-13.821330 44.236343 -6.505947
-13.839756 44.602840 -5.769242
-13.928085 44.616726 -5.632406
-13.892554 44.340317 -6.538250
-13.740548 44.520641 -6.183057
-13.891747 44.641842 -5.701511
-13.783904 44.546677 -6.046198
