# .PCD v0.7 - Point Cloud Data file format
VERSION 0.7
FIELDS x y z
SIZE 4 4 4
TYPE F F F
COUNT 1 1 1
WIDTH 48
HEIGHT 1
VIEWPOINT 0 0 0 1
POINTS 48
DATA ascii
-13.748857 44.581383 -5.860560
-13.842453 44.173084 -6.472188
-13.987794 44.552467 -5.553803
-13.848458 44.252773 -6.520195
-13.821952 44.617714 -5.902085
-13.937091 44.457737 -5.645746
-13.812298 44.371765 -6.413158
-14.007662 44.644897 -5.567799
-13.742668 44.506599 -5.907070
-14.138237 44.602116 -5.534899
-13.762229 44.475182 -6.082645
-13.812378 44.461346 -6.446707
-13.940475 44.579422 -5.647517
-13.766035 44.580204 -6.339183
-13.771743 44.604309 -5.915905
-14.033104 44.613327 -5.513708
-13.689440 44.419655 -6.453114
-13.866123 44.501904 -5.722224
-13.652184 44.518566 -6.423120
-13.983362 44.649570 -5.675210
-13.963617 44.596790 -5.505763
-13.738438 44.573662 -5.937500
-13.718594 44.458298 -6.199002
-13.718020 44.535496 -6.450464
-13.872220 44.626156 -5.724434
-13.937819 44.521191 -5.537682
-13.733631 44.583744 -6.193967
-13.719382 44.515739 -5.990037
-14.765520 44.326206 -6.016778
-13.797565 44.252529 -6.470586
-13.959328 44.621502 -5.552883
-14.128487 44.570480 -6.159070
-13.756894 44.607067 -6.009517
-14.545820 44.413948 -6.029053
-13.766233 44.460564 -6.410130
-14.907333 44.213371 -5.990438
-13.809324 44.553955 -6.431199
-14.614446 44.398006 -5.877080
-14.048451 45.152584 -5.514008
-14.207335 45.191761 -5.549268
-14.522677 44.386318 -5.891829
-14.763720 44.389515 -5.960298
-14.062749 45.238701 -5.519289
-14.724788 44.421207 -5.694747
-14.024023 45.202892 -5.539905
-14.786633 44.258411 -6.048652
-14.728206 44.551178 -5.702801
-13.989176 45.160702 -5.576598
