# .PCD v0.7 - Point Cloud Data file format
VERSION 0.7
FIELDS x y z
SIZE 4 4 4
TYPE F F F
COUNT 1 1 1
WIDTH 141
HEIGHT 1
VIEWPOINT 0 0 0 1
POINTS 141
DATA ascii
-16.362545 43.533298 -3.379298
-15.601499 44.144405 -3.808985
-15.463320 44.661633 -3.980843
-16.410202 43.581810 -3.350117
-15.429036 44.507191 -3.975217
-15.603763 43.934616 -3.816617
-15.784538 43.709198 -3.895487
-15.584872 44.532059 -3.823436
-15.368807 44.761570 -4.184715
-15.614154 44.144054 -3.798062
-16.384016 43.605515 -3.333398
-15.418174 44.602154 -4.041245
-15.473158 44.964256 -4.010696
-15.701979 43.868248 -3.836186
-15.382215 44.477940 -4.160666
-15.320351 44.653542 -4.353544
-15.560985 44.637394 -3.899011
-15.341337 44.868664 -4.248270
-15.416447 45.022636 -4.091824
-16.538010 43.491722 -3.327621
-15.387584 44.722946 -4.113488
-15.400053 44.950943 -4.183788
-15.431567 44.410744 -4.049464
-15.362182 44.593845 -4.229867
-15.463963 44.836811 -4.009223
-15.661390 44.531731 -3.767560
-15.326046 44.956390 -4.302923
-15.635246 44.142181 -3.789851
-15.764218 44.492504 -3.686944
-15.417604 45.077995 -4.140962
-15.471585 44.962479 -3.984944
-15.379476 44.806328 -4.170112
-15.624905 44.120327 -3.851726
-15.423793 45.136814 -4.135922
-15.379503 45.040585 -4.244240
-15.438999 44.933281 -4.075467
-15.355702 44.686077 -4.289402
-16.503332 43.463997 -3.348584
-15.318826 45.029514 -4.352335
-16.533401 43.561409 -3.301602
-15.398294 45.155258 -4.194858
-15.470585 45.082344 -4.002058
-15.448251 45.048531 -4.046079
-15.353876 44.912102 -4.231462
-15.410030 45.204975 -4.188234
-15.373026 45.109505 -4.295039
-16.408983 43.916210 -3.364584
-15.490749 44.893993 -3.975807
-15.425674 45.011494 -4.132122
-15.333219 44.797413 -4.350050
-15.558358 44.783169 -3.813881
-15.308248 45.104275 -4.399671
-15.489468 44.981628 -3.956147
-15.385860 45.223209 -4.244300
-15.382934 44.831032 -4.161503
-15.452389 45.157356 -4.058751
-15.432270 45.124180 -4.100610
-15.351674 44.981297 -4.279327
-15.371890 44.742218 -4.246127
-15.411079 45.256336 -4.232353
-16.567270 43.807800 -3.346796
-15.366135 45.176491 -4.342972
-15.470841 44.979458 -4.034729
-15.401407 45.100800 -4.190451
-16.441185 43.703163 -3.354148
-15.319646 44.890961 -4.403996
-15.465055 45.069920 -4.015872
-15.379080 45.283077 -4.289313
-15.375957 44.913239 -4.213818
-15.450313 45.211288 -4.103634
-15.414655 45.199131 -4.152305
-15.329903 45.073250 -4.332657
-15.358130 44.834778 -4.300038
-15.429700 45.286350 -4.267480
-15.584889 45.043839 -3.940990
-15.452787 45.059544 -4.090729
-15.346758 45.257885 -4.393356
-15.391897 45.169262 -4.238414
-15.453174 45.140804 -4.066728
-15.420645 45.285713 -4.314597
-16.419140 44.064301 -3.364776
-15.353871 45.011333 -4.268614
-15.434916 45.278751 -4.153092
-15.414446 45.251743 -4.195013
-15.326877 45.138580 -4.374799
-15.347448 44.920723 -4.351001
-15.481974 45.216000 -4.037408
-15.483364 45.276699 -4.288217
-15.432063 45.141148 -4.143915
-15.362950 45.294453 -4.429273
-15.383231 45.234554 -4.284899
-15.464576 45.088341 -4.476212
-15.461261 45.187897 -4.105703
-16.641026 43.889931 -3.304349
-15.473083 45.277306 -4.335347
-15.465230 45.294537 -4.180803
-15.418671 45.297512 -4.233314
-15.339003 45.098034 -4.318222
-15.318983 45.208847 -4.417048
-15.333237 45.007317 -4.399874
-15.467771 45.282246 -4.085400
-15.528401 45.278725 -4.312746
-15.429754 45.198204 -4.186687
-15.383842 45.288071 -4.325476
-15.426193 45.278038 -4.450531
-15.428391 45.277744 -4.161287
-15.473466 45.286655 -4.249781
-15.335440 45.164478 -4.359667
-15.517803 45.287109 -4.198767
-15.351988 45.046482 -4.435060
-15.509413 45.285885 -4.105045
-15.423075 45.259090 -4.228839
-15.432794 45.284340 -4.346351
-15.459672 45.295399 -4.185467
-15.521352 45.285145 -4.269279
-15.375524 45.095600 -4.298211
-15.566736 45.283371 -4.218235
-15.319392 45.245331 -4.403551
-15.414338 45.029213 -4.457038
-15.433290 45.298744 -4.262741
-15.482124 45.282570 -4.368670
-15.515479 45.286396 -4.199828
-15.570300 45.285473 -4.289504
-15.349144 45.194515 -4.347367
-15.352417 45.264736 -4.429129
-15.461068 45.294113 -4.166482
-15.495504 45.281509 -4.276219
-15.516361 45.288445 -4.135273
-15.347649 45.173183 -4.416254
-15.569550 45.279736 -4.214947
-15.394951 45.273327 -4.451635
-15.329796 45.281036 -4.391334
-15.523709 45.275795 -4.174982
-15.534547 45.290707 -4.298078
-15.574546 45.281059 -4.146089
-15.371465 45.201332 -4.444152
-15.561627 45.283165 -4.193279
-15.357083 45.308575 -4.417069
-15.618390 45.289406 -4.162927
-15.615122 45.277634 -4.206291
-15.416536 45.299969 -4.432100
