# .PCD v0.7 - Point Cloud Data file format
VERSION 0.7
FIELDS x y z
SIZE 4 4 4
TYPE F F F
COUNT 1 1 1
WIDTH 25
HEIGHT 1
VIEWPOINT 0 0 0 1
POINTS 25
DATA ascii
-21.345673 43.243114 -5.287090
-21.116570 43.771938 -5.976310
-21.116024 44.687458 -6.030850
-21.442833 43.937366 -5.193291
-21.138823 44.430244 -6.044319
-21.191074 43.736568 -5.983833
-21.175978 44.639961 -6.016077
-21.220306 44.325542 -6.003715
-21.233555 44.609623 -6.012853
-21.147707 44.541096 -6.028394
-21.154270 44.606773 -6.028279
-21.202473 44.522995 -6.033465
-21.223764 44.553345 -6.006591
-21.260950 44.495564 -6.031609
-21.274542 44.565556 -6.028716
-21.151518 44.837902 -5.980536
-21.117533 43.878578 -6.044090
-21.167320 44.341694 -5.973639
-21.214050 44.774345 -5.957800
-21.176281 44.635254 -6.069664
-21.200329 43.772762 -6.018831
-21.185381 44.687473 -6.080347
-21.636005 43.593014 -5.104763
-21.233757 44.609180 -6.069656
-21.248783 44.623837 -6.057980
