# .PCD v0.7 - Point Cloud Data file format
VERSION 0.7
FIELDS x y z
SIZE 4 4 4
TYPE F F F
COUNT 1 1 1
WIDTH 21
HEIGHT 1
VIEWPOINT 0 0 0 1
POINTS 21
DATA ascii
-17.203514 44.298325 -4.358220
-17.176016 44.404930 -4.433642
-17.218779 44.523930 -4.400490
-17.171982 44.590027 -4.470095
-17.111364 44.369164 -4.490227
-17.161236 44.342316 -4.460279
-17.176462 44.524128 -4.477991
-17.117945 44.541336 -4.489388
-17.167353 44.485558 -4.497284
-17.106600 44.723602 -4.394991
-17.120554 44.696327 -4.495743
-17.166168 44.804668 -4.464883
-17.278708 44.599113 -4.382682
-17.144747 44.884621 -4.519526
-17.130634 44.779781 -4.484519
-17.182449 44.760021 -4.479352
-17.148027 44.936283 -4.484513
-17.210791 44.869614 -4.463657
-17.262854 44.938663 -4.446688
-17.155865 45.081551 -4.489777
-17.324108 45.015972 -4.424277
