# .PCD v0.7 - Point Cloud Data file format
VERSION 0.7
FIELDS x y z
SIZE 4 4 4
TYPE F F F
COUNT 1 1 1
WIDTH 23
HEIGHT 1
VIEWPOINT 0 0 0 1
POINTS 23
DATA ascii
-21.139908 44.752327 -6.009871
-21.180033 44.697971 -6.018294
-21.122137 44.387661 -5.899078
-21.150883 44.749664 -6.000641
-21.222115 44.637478 -6.024568
-21.165138 44.348591 -5.920090
-21.191065 44.706059 -6.016154
-21.151241 44.755341 -6.008176
-21.107662 44.275658 -5.893080
-21.152046 44.745472 -6.001755
-21.265305 43.248600 -5.194047
-21.231997 44.664417 -6.030921
-21.192196 44.709927 -6.016964
-21.157335 44.230080 -5.910353
-21.192678 44.712822 -6.018537
-21.232794 44.674206 -6.035012
-21.253523 43.197598 -5.261571
-21.234598 44.679050 -6.035020
-21.134460 44.114021 -5.899833
-21.118641 43.987240 -5.889578
-21.180050 43.901100 -5.887997
-21.126686 43.650707 -5.985866
-21.134350 43.707092 -5.989986
