# .PCD v0.7 - Point Cloud Data file format
VERSION 0.7
FIELDS x y z
SIZE 4 4 4
TYPE F F F
COUNT 1 1 1
WIDTH 2507
HEIGHT 1
VIEWPOINT 0 0 0 1
POINTS 2507
DATA ascii
-24.456985 47.667412 -9.768567
-24.604780 47.684601 -9.531360
-24.489128 47.686443 -9.568713
-24.693092 47.700951 -9.157542
-24.730978 47.699242 -9.005607
-24.516932 47.702499 -9.352945
-24.212549 47.679550 -9.768621
-24.210049 47.679264 -9.736759
-24.632275 47.676823 -9.655283
-24.283237 47.692944 -9.658019
-24.550425 47.691742 -9.490245
-24.419445 47.708157 -9.433887
-24.641434 47.667690 -9.666707
-24.326529 47.710373 -9.477595
-24.492073 47.692921 -9.392722
-24.308903 47.685081 -9.705280
-24.312723 47.684601 -9.669966
-24.367868 47.693619 -9.605370
-24.679277 47.719868 -8.709474
-24.539436 47.698708 -9.260623
-24.591455 47.684845 -9.398621
-24.775085 47.692757 -9.063686
-24.643415 47.705765 -9.077012
-24.498083 47.719978 -9.082025
-24.697733 47.682438 -9.342690
-24.695892 47.702171 -8.905606
-24.538946 47.719521 -8.941861
-24.588566 47.691711 -9.364413
-24.696306 47.721363 -8.537529
-24.344156 47.723614 -9.269976
-24.410362 47.821499 -9.909448
-24.389370 47.693733 -9.638142
-24.408936 47.696102 -9.607799
-24.438845 47.697277 -9.548967
-24.360134 47.805637 -9.843063
-24.798771 47.710587 -8.472616
-24.503159 47.689323 -9.492272
-24.162148 47.725861 -9.579926
-24.375959 47.712334 -9.399594
-24.736252 47.693119 -9.000167
-24.412901 47.685738 -9.650390
-24.455172 47.689552 -9.564202
-24.467720 47.690842 -9.523349
-24.246174 47.725697 -9.342675
-24.682465 47.713299 -8.655539
-24.565140 47.707226 -9.179266
-24.792969 47.695190 -8.770024
-24.159349 47.724625 -9.385020
-24.331400 47.716084 -9.315050
-24.160261 47.708462 -9.609085
-24.168974 47.709408 -9.579772
-24.446577 47.712746 -9.328246
-24.588789 47.712616 -9.001839
-24.521660 47.704334 -9.268185
-24.496403 47.734711 -8.664038
-24.197493 47.711479 -9.504387
-24.379137 47.722565 -9.188815
-24.454355 47.722073 -9.009114
-24.653427 47.712124 -8.814289
-24.583405 47.704414 -9.092689
-24.331472 47.737854 -9.016953
-24.519323 47.722107 -8.851152
-24.426950 47.715733 -9.290789
-24.365435 47.736477 -8.883308
-24.707134 47.717117 -8.609749
-24.509129 47.734955 -8.502237
-24.748697 47.710400 -8.574993
-24.212971 47.707150 -9.532775
-24.361740 47.803482 -9.276102
-24.266478 47.713970 -9.453703
-24.225374 47.709011 -9.500903
-23.927134 47.719921 -9.569933
-24.578579 47.716698 -8.951236
-24.351446 47.712959 -9.414824
-24.610649 47.725040 -8.441371
-23.934069 47.723572 -9.548775
-24.241194 47.736664 -9.328836
-24.300386 47.711723 -9.479449
-23.984520 47.730705 -9.466964
-24.325052 47.715946 -9.446176
-24.251408 47.710922 -9.553099
-24.624620 47.714157 -8.725556
-24.203770 47.781448 -9.318967
-24.506243 47.729424 -8.617033
-24.390089 47.723976 -9.106336
-24.261288 47.761974 -9.279936
-24.020706 47.741497 -9.307555
-24.281826 47.727245 -9.248274
-24.004803 47.721409 -9.509105
-24.352825 47.720676 -9.196269
-24.417898 47.729355 -8.944675
-24.001287 47.718315 -9.474395
-24.048178 47.726467 -9.416734
-24.487728 47.729095 -8.766656
-24.344385 47.751369 -8.627007
-24.414478 47.721436 -9.027521
-24.217842 47.737442 -9.117455
-24.294218 47.738243 -8.950829
-24.192492 47.756645 -8.961963
-24.356398 47.739067 -8.800455
-24.256758 47.729465 -9.212452
-24.212320 47.751949 -8.830975
-24.527571 47.731243 -8.575103
-24.352911 47.750576 -8.470886
-24.571247 47.724182 -8.544853
-24.074594 47.727230 -9.450990
-24.182705 47.753109 -9.408998
-24.202776 47.770103 -9.487750
-24.401056 47.728653 -8.897275
-24.184395 47.724819 -9.330198
-24.197330 47.815895 -9.197394
-23.802977 47.736362 -9.484273
-24.270998 47.814392 -9.343641
-24.458487 47.743156 -8.415602
-24.165075 47.733269 -9.404965
-23.817091 47.742302 -9.469209
-23.945465 47.782280 -9.442689
-24.471388 47.732086 -8.684523
-24.157640 47.751179 -9.497480
-24.361807 47.747395 -8.585163
-24.419430 47.759010 -8.242629
-24.241262 47.740704 -9.043855
-23.978277 47.763275 -9.200685
-24.534643 47.736652 -8.356117
-24.259457 47.785263 -9.236319
-24.204815 47.736336 -9.134202
-24.065470 47.824928 -9.331491
-24.140673 47.786903 -9.221182
-24.270990 47.745308 -8.895635
-23.970749 47.775513 -9.488647
-24.272238 47.738445 -8.971918
-24.338902 47.744877 -8.723385
-23.983059 47.778046 -9.463523
-24.007240 47.777088 -9.393712
-24.197420 47.762711 -8.590287
-24.155832 47.753765 -8.900620
-24.219656 47.805614 -9.115051
-24.211098 47.752773 -8.754481
-24.161308 47.761185 -9.169368
-24.036297 47.762699 -8.901050
-24.374321 47.744671 -8.544157
-24.083309 47.768631 -8.786863
-24.428871 47.741703 -8.519722
-24.213139 47.765095 -8.442550
-24.256668 47.743282 -8.851812
-23.979450 47.742367 -9.296949
-23.945738 47.743507 -9.374170
-23.954376 47.742569 -9.342525
-24.106148 47.761326 -9.291766
-24.007643 47.740654 -9.318563
-23.913126 47.769829 -9.063463
-24.020903 47.786160 -9.214471
-23.686508 47.748154 -9.402600
-24.313656 47.756821 -8.390243
-24.323608 47.744610 -8.645153
-23.694750 47.752529 -9.385540
-23.829142 47.798733 -9.367966
-24.221529 47.760124 -8.553147
-24.109652 47.756046 -8.989322
-23.947601 47.741562 -9.370568
-24.291136 47.775238 -8.227177
-24.392448 47.750988 -8.334433
-23.832941 47.766418 -9.125113
-24.143921 47.806763 -9.180211
-24.173090 47.787903 -9.121740
-24.134594 47.758492 -8.849853
-23.912296 47.760578 -9.109175
-24.146858 47.755154 -8.922971
-24.211105 47.762180 -8.685611
-23.759556 47.751366 -9.352954
-23.966106 47.837608 -9.454479
-24.344843 47.765217 -8.184051
-24.030657 47.767284 -8.855114
-23.899923 47.798458 -9.330631
-24.077475 47.778244 -8.558883
-23.956575 47.767406 -9.000348
-24.002047 47.764996 -9.096652
-24.081366 47.766346 -8.713357
-23.914646 47.774147 -8.852842
-24.236227 47.758053 -8.516715
-24.283026 47.753452 -8.493816
-23.943005 47.775135 -8.738900
-24.115587 47.753635 -8.808037
-23.982262 47.775631 -9.228866
-23.862858 47.758289 -9.233401
-23.821480 47.755348 -9.300848
-23.950369 47.803997 -9.341481
-24.077959 47.774288 -8.415430
-23.984859 47.792587 -9.308571
-24.190413 47.755081 -8.610065
-23.978302 47.786362 -9.259761
-24.167078 47.763577 -8.364983
-23.786116 47.777172 -9.003303
-23.587889 47.763241 -9.334948
-24.339455 47.754951 -8.255596
-23.582890 47.760773 -9.309644
-23.982695 47.767052 -8.936048
-24.096428 47.772808 -8.524629
-24.259493 47.762718 -8.314194
-23.630451 47.769371 -9.242167
-24.142773 47.777637 -8.211072
-24.032394 47.844322 -9.422791
-23.717667 47.775112 -9.064384
-23.944405 47.760944 -9.023138
-24.018785 47.764030 -8.873593
-24.016140 47.773403 -8.809052
-23.789858 47.769653 -9.049199
-24.072453 47.769215 -8.645315
-24.217501 47.776199 -8.172414
-23.668591 47.770535 -9.295071
-23.650846 47.759571 -9.253839
-23.888340 47.769070 -8.803741
-23.827740 47.829788 -9.288537
-23.828032 47.772709 -8.942738
-23.860909 47.767349 -9.032343
-23.939804 47.780918 -8.524676
-23.950830 47.773930 -8.672829
-24.124165 47.773705 -8.494002
-23.808657 47.787350 -8.811799
-24.151751 47.762264 -8.469890
-23.597254 47.775352 -9.160269
-23.999130 47.766209 -8.771642
-23.811214 47.764812 -9.141749
-23.824228 47.784069 -8.697814
-23.748558 47.768013 -9.170950
-23.710869 47.765987 -9.235838
-23.913715 47.852261 -9.320708
-24.080257 47.770020 -8.579301
-23.769438 47.762909 -9.188645
-23.792233 47.767071 -9.158909
-23.966286 47.787968 -8.391749
-24.219833 47.766682 -8.240134
-24.051697 47.776340 -8.343855
-23.676918 47.785133 -8.950293
-23.492088 47.773140 -9.267556
-23.857214 47.772934 -8.883458
-23.664215 47.774014 -9.108463
-24.136356 47.773853 -8.294600
-23.969629 47.779579 -8.496236
-23.487104 47.771564 -9.244537
-24.024372 47.787205 -8.197337
-23.526438 47.776737 -9.174919
-23.714117 47.771049 -9.230827
-23.621685 47.787254 -9.012772
-23.837082 47.773422 -8.977992
-23.903246 47.773972 -8.828588
-23.877645 47.773701 -8.763063
-23.949844 47.776134 -8.608962
-23.681053 47.776638 -8.995251
-24.083883 47.779537 -8.160716
-23.560915 47.776207 -9.225861
-23.722433 47.777084 -9.058913
-23.790340 47.782604 -8.766922
-23.562710 47.774448 -9.198503
-23.582125 47.773113 -9.142002
-23.758110 47.779675 -8.985056
-23.774752 47.771751 -9.003859
-23.721954 47.782246 -8.894798
-23.839201 47.792053 -8.498878
-23.998188 47.780296 -8.468305
-24.042635 47.775616 -8.449822
-23.837280 47.782314 -8.636756
-24.157282 47.780048 -8.124795
-23.703791 47.796509 -8.770143
-23.881506 47.773880 -8.734541
-23.506197 47.786362 -9.105579
-23.701979 47.771889 -9.086448
-23.966110 47.778179 -8.548568
-23.609907 47.774822 -9.175885
-23.644913 47.777851 -9.114122
-23.664774 47.770828 -9.131249
-23.620382 47.775620 -9.147501
-23.681631 47.772427 -9.099463
-23.725199 47.795578 -8.662673
-24.099985 47.774426 -8.224479
-23.855139 47.795597 -8.368237
-23.939194 47.784920 -8.323040
-23.755957 47.782902 -8.841465
-24.021973 47.782364 -8.277317
-23.407358 47.783951 -9.209417
-23.582550 47.795921 -8.904028
-23.872669 47.792416 -8.472393
-23.574514 47.786743 -9.057915
-23.922987 47.796799 -8.183538
-23.411438 47.786507 -9.193519
-23.969650 47.790749 -8.048602
-23.447550 47.790783 -9.125576
-23.728992 47.780018 -8.931202
-23.796873 47.781200 -8.787239
-24.127331 47.780518 -8.089730
-23.524883 47.793407 -8.961746
-23.781294 47.785984 -8.729355
-23.859385 47.791763 -8.581817
-23.970648 47.786674 -8.149667
-23.582087 47.784809 -8.946513
-23.618912 47.782742 -9.005467
-23.460657 47.780201 -9.161666
-23.471516 47.782578 -9.141429
-23.661371 47.789490 -8.940921
-23.673532 47.780056 -8.955070
-23.693533 47.793983 -8.731823
-23.927769 47.782333 -8.428860
-23.891068 47.788643 -8.445806
-23.503714 47.788956 -9.096338
-23.626528 47.791897 -8.852481
-23.743895 47.801861 -8.473589
-24.038532 47.786312 -8.117606
-23.745827 47.795135 -8.606771
-23.782280 47.784180 -8.703805
-23.610439 47.804821 -8.732287
-23.609461 47.783634 -9.038920
-23.856730 47.783993 -8.519176
-23.427204 47.799309 -9.058423
-23.997631 47.783096 -8.210157
-23.571239 47.779766 -9.080873
-23.518312 47.784821 -9.122027
-23.560089 47.791119 -9.067291
-23.525492 47.782833 -9.092984
-23.593630 47.784904 -9.052072
-23.637278 47.807217 -8.632267
-23.829636 47.790306 -8.302588
-23.747879 47.800961 -8.345604
-23.919275 47.791233 -8.259422
-23.668697 47.795876 -8.803520
-23.766256 47.796814 -8.447932
-23.491344 47.797874 -9.011916
-23.331993 47.795929 -9.157371
-23.813509 47.798782 -8.170984
-23.497068 47.806965 -8.862458
-23.643021 47.792824 -8.895066
-23.697968 47.786861 -8.748672
-24.012043 47.785492 -8.084347
-23.328718 47.794098 -9.137512
-23.867661 47.799114 -8.040112
-23.373020 47.803471 -9.078508
-23.695236 47.799469 -8.699970
-23.442564 47.804352 -8.918452
-23.758583 47.798141 -8.551307
-23.872679 47.794868 -8.139908
-23.496466 47.793861 -8.904837
-23.539392 47.796459 -8.963705
-23.588894 47.791027 -8.913951
-23.575808 47.800426 -8.901572
-23.841915 47.796185 -8.412031
-23.383415 47.792114 -9.113154
-23.597715 47.799332 -8.696006
-23.402042 47.798786 -9.098226
-23.789244 47.795662 -8.423814
-23.422705 47.798069 -9.048051
-23.932880 47.793873 -8.109436
-23.661156 47.812843 -8.450431
-23.534107 47.799355 -8.810577
-23.682283 47.788597 -8.671424
-23.658255 47.805687 -8.577662
-23.766674 47.792469 -8.494379
-23.522463 47.791855 -8.995376
-23.517271 47.809055 -8.695585
-23.899691 47.790512 -8.195878
-23.493946 47.793350 -9.039154
-23.444120 47.797310 -9.078531
-23.507158 47.793251 -9.005412
-23.472681 47.798542 -9.020120
-23.458189 47.799694 -9.054335
-23.348450 47.808289 -9.010187
-23.551481 47.816730 -8.601811
-23.743629 47.801174 -8.285621
-23.823162 47.798611 -8.243844
-23.578388 47.802986 -8.766121
-23.682116 47.807743 -8.427426
-23.661003 47.811012 -8.325896
-23.549461 47.797260 -8.854774
-23.417122 47.810257 -8.970660
-23.735092 47.810959 -8.159176
-23.612656 47.796501 -8.715088
-23.913561 47.794456 -8.079988
-23.263216 47.807301 -9.109923
-23.418646 47.817421 -8.824602
-23.258535 47.804527 -9.090435
-23.602005 47.804489 -8.667776
-23.769075 47.804310 -8.031101
-23.295959 47.810417 -9.028869
-23.673595 47.808365 -8.525820
-23.367174 47.812717 -8.878768
-23.781475 47.803669 -8.130337
-23.428955 47.808517 -8.870559
-23.513138 47.802258 -8.877523
-23.466928 47.809582 -8.925656
-23.740337 47.801014 -8.393523
-23.483601 47.803917 -8.858582
-23.708212 47.807281 -8.406095
-23.519466 47.808380 -8.666137
-23.315996 47.805206 -9.069849
-23.841608 47.802567 -8.102092
-23.325922 47.807549 -9.051380
-23.344711 47.805874 -9.002460
-23.606867 47.802193 -8.647658
-23.575495 47.819954 -8.427920
-23.462435 47.812191 -8.777462
-23.572273 47.813107 -8.549336
-23.684738 47.802383 -8.471629
-23.439825 47.798714 -8.954105
-23.814383 47.800095 -8.183783
-23.444090 47.819851 -8.665027
-23.405821 47.795887 -8.990386
-23.434566 47.804386 -8.967261
-23.393276 47.806301 -8.977179
-23.363003 47.804432 -9.030149
-23.382072 47.809345 -9.009769
-23.273054 47.814877 -8.965943
-23.733747 47.805592 -8.228401
-23.658333 47.808979 -8.268970
-23.502068 47.813099 -8.732766
-23.464512 47.821342 -8.570647
-23.598684 47.815617 -8.407240
-23.538033 47.806358 -8.684889
-23.817070 47.799301 -8.075474
-23.467203 47.804813 -8.819370
-23.565556 47.812550 -8.306034
-23.651930 47.818420 -8.147038
-23.330315 47.811741 -8.921432
-23.186855 47.810299 -9.058319
-23.338982 47.821976 -8.785986
-23.518717 47.811790 -8.638609
-23.200533 47.818890 -9.050990
-23.589254 47.814533 -8.500600
-23.220966 47.815140 -8.981410
-23.693336 47.817158 -8.022977
-23.703766 47.813675 -8.121126
-23.434444 47.808731 -8.839458
-23.294912 47.820881 -8.839599
-23.660482 47.810478 -8.377518
-23.385534 47.814392 -8.883872
-23.351166 47.814919 -8.832967
-23.620079 47.812321 -8.387900
-23.756655 47.807281 -7.965716
-23.750980 47.807201 -8.095014
-23.406752 47.812130 -8.823783
-23.242811 47.810776 -9.023363
-23.436539 47.813709 -8.635991
-23.523394 47.807396 -8.620619
-23.248085 47.809505 -9.002374
-23.608967 47.810890 -8.449846
-23.271072 47.812317 -8.959142
-23.730183 47.805637 -8.171068
-23.495056 47.824741 -8.405863
-23.381830 47.816715 -8.740611
-23.370306 47.809536 -8.918699
-23.488827 47.818314 -8.522306
-23.343182 47.810192 -8.957543
-23.356806 47.810005 -8.925149
-23.372028 47.827496 -8.636133
-23.320450 47.812561 -8.936551
-23.290709 47.811707 -8.988690
-23.300125 47.810478 -8.961972
-23.204363 47.821960 -8.924116
-23.650499 47.811169 -8.213924
-23.424103 47.818291 -8.699585
-23.577444 47.815529 -8.252362
-23.507082 47.813995 -8.385961
-23.463717 47.814137 -8.655943
-23.738838 47.809185 -8.069378
-23.391933 47.810776 -8.787628
-23.390648 47.829029 -8.543063
-23.571232 47.822674 -8.136142
-23.493362 47.821655 -8.288405
-23.259682 47.817764 -8.883087
-23.446590 47.820217 -8.614223
-23.129148 47.821693 -9.017843
-23.268724 47.827805 -8.751225
-23.508442 47.819519 -8.474959
-23.129948 47.822353 -9.003572
-23.621244 47.817970 -8.111532
-23.367456 47.818230 -8.807627
-23.578102 47.815090 -8.361222
-23.158154 47.823792 -8.941584
-23.614130 47.824234 -8.014049
-23.222763 47.823975 -8.801529
-23.311726 47.819626 -8.844968
-23.540052 47.817905 -8.369470
-23.281839 47.821667 -8.798717
-23.336544 47.819839 -8.791348
-23.678274 47.818851 -8.087341
-23.680611 47.816040 -7.959621
-23.451746 47.816730 -8.597632
-23.370756 47.822830 -8.610440
-23.177221 47.817654 -8.982039
-23.529856 47.815620 -8.427361
-23.645346 47.808178 -8.159093
-23.185804 47.820057 -8.963993
-23.205904 47.819996 -8.921449
-23.295019 47.812836 -8.880113
-23.316095 47.825054 -8.710547
-23.413982 47.826523 -8.384544
-23.409256 47.821251 -8.496150
-23.273418 47.816143 -8.919658
-23.289408 47.818703 -8.889691
-23.221411 47.816784 -8.947641
-23.296968 47.829388 -8.605552
-23.253525 47.821278 -8.900212
-23.234070 47.818233 -8.923814
-23.579062 47.819984 -8.201217
-23.144142 47.830284 -8.887914
-23.395094 47.820492 -8.628846
-23.357494 47.827595 -8.671340
-23.664606 47.818790 -8.064258
-23.504601 47.822517 -8.237747
-23.327143 47.820927 -8.760359
-23.436108 47.821053 -8.367808
-23.313730 47.830856 -8.516023
-23.500986 47.829334 -8.125153
-23.197638 47.826126 -8.848186
-23.375702 47.826599 -8.589321
-23.427458 47.831345 -8.271845
-23.436090 47.824856 -8.452659
-23.068914 47.828236 -8.977077
-23.540373 47.820122 -8.102770
-23.493265 47.815853 -8.344688
-23.203892 47.835178 -8.719355
-23.292068 47.820427 -8.771227
-23.064590 47.824379 -8.958889
-23.096458 47.829288 -8.903419
-23.541613 47.830921 -8.005252
-23.246386 47.826099 -8.811687
-23.599752 47.823753 -8.081002
-23.468138 47.824928 -8.353086
-23.270748 47.827183 -8.761235
-23.583344 47.818371 -8.148002
-23.220158 47.829834 -8.767396
-23.165207 47.833855 -8.771283
-23.377096 47.820309 -8.572956
-23.457382 47.819851 -8.407241
-23.608156 47.824612 -7.953155
-23.301702 47.829166 -8.584242
-23.119286 47.826843 -8.945929
-23.126925 47.828323 -8.927368
-23.230623 47.820229 -8.847347
-23.148855 47.830002 -8.888083
-23.673353 47.824539 -7.898201
-23.251131 47.831326 -8.680853
-23.348824 47.833260 -8.366063
-23.345137 47.829121 -8.473715
-23.207191 47.821796 -8.883633
-23.224468 47.824196 -8.855475
-23.187243 47.825939 -8.864139
-23.161657 47.826015 -8.912834
-23.171963 47.825603 -8.888863
-23.234667 47.836327 -8.579535
-23.507915 47.825832 -8.187478
-23.326365 47.824856 -8.601655
-23.285995 47.829300 -8.640377
-23.579042 47.819004 -8.059772
-23.251932 47.819939 -8.727388
-23.081928 47.834774 -8.850588
-23.370010 47.827755 -8.351094
-23.433064 47.828453 -8.222669
-23.429155 47.832066 -8.114387
-23.249096 47.836826 -8.492147
-23.303699 47.829067 -8.563760
-23.135422 47.831505 -8.813140
-23.365387 47.828049 -8.431190
-23.237070 47.829979 -8.744595
-23.355398 47.835381 -8.255323
-23.013027 47.833420 -8.938581
-23.428108 47.824368 -8.330767
-23.469954 47.824684 -8.093913
-23.140640 47.839424 -8.688262
-23.523811 47.826553 -8.073725
-23.386705 47.822514 -8.336029
-23.513903 47.823963 -8.137421
-23.016193 47.836830 -8.926739
-23.207003 47.831409 -8.731017
-23.388910 47.823807 -8.388094
-23.186934 47.834137 -8.780412
-23.047527 47.840729 -8.872102
-23.307802 47.824444 -8.551117
-23.157837 47.834999 -8.736813
-23.529823 47.825443 -7.947970
-23.466236 47.834736 -7.997154
-23.107941 47.840763 -8.740006
-23.233223 47.830452 -8.558255
-23.173401 47.829025 -8.818394
-23.061243 47.834042 -8.909723
-23.592733 47.825397 -7.895203
-23.068750 47.833530 -8.891059
-23.088871 47.835247 -8.853081
-23.533491 47.838211 -7.848372
-23.286718 47.838795 -8.348041
-23.180944 47.831978 -8.649428
-23.147196 47.827934 -8.850905
-23.163597 47.830406 -8.822287
-23.280909 47.835003 -8.451185
-23.128613 47.832909 -8.833277
-23.104425 47.833031 -8.879319
-23.116619 47.834465 -8.856377
-23.174011 47.841129 -8.554347
-23.434719 47.827732 -8.174848
-23.266685 47.831577 -8.577023
-23.223560 47.834248 -8.614256
-23.507694 47.824421 -8.054966
-23.201546 47.833000 -8.705513
-23.028772 47.842510 -8.818102
-23.309320 47.835117 -8.334983
-23.366802 47.833061 -8.208090
-23.366428 47.837265 -8.103946
-23.247684 47.838375 -8.543367
-23.308971 47.838337 -8.411735
-23.076674 47.835594 -8.779900
-23.194515 47.847073 -8.471395
-23.176500 47.834995 -8.714936
-23.366945 47.832603 -8.317819
-23.406349 47.830845 -8.085290
-23.441868 47.823708 -8.126496
-23.286331 47.837219 -8.239210
-22.952385 47.832996 -8.897471
-23.334591 47.832859 -8.370857
-23.449585 47.828209 -8.067329
-23.332947 47.834358 -8.322528
-23.253073 47.833584 -8.532534
-23.127241 47.838192 -8.748937
-23.147331 47.837242 -8.704108
-22.955486 47.835411 -8.885577
-23.078161 47.841599 -8.657538
-22.985952 47.840271 -8.832761
-23.093456 47.835331 -8.705055
-23.472281 47.836159 -7.941497
-23.047140 47.840908 -8.707872
-23.401241 47.839958 -7.988907
-23.173391 47.835075 -8.535762
-23.115059 47.833912 -8.788778
-23.533236 47.834160 -7.889927
-23.000530 47.833511 -8.870840
-23.006697 47.833057 -8.852598
-23.465033 47.840328 -7.846160
-23.092087 47.834606 -8.821898
-23.028713 47.837509 -8.817931
-23.234188 47.847698 -8.331741
-23.106602 47.835236 -8.792250
-23.125334 47.838531 -8.623543
-23.214565 47.835945 -8.429711
-23.073034 47.838676 -8.802874
-23.047897 47.836990 -8.846119
-23.059622 47.838406 -8.824060
-23.374323 47.833904 -8.162265
-23.113659 47.843853 -8.530412
-23.212421 47.839848 -8.555275
-23.442154 47.829521 -8.049826
-23.144043 47.838593 -8.680878
-23.162428 47.838150 -8.587670
-23.253965 47.842144 -8.319423
-23.306822 47.838253 -8.194577
-22.983324 47.853546 -8.790876
-23.310446 47.843067 -8.093684
-23.250370 47.842690 -8.393281
-23.188328 47.843903 -8.522274
-23.304190 47.836910 -8.305092
-23.115282 47.837009 -8.686015
-23.022867 47.841213 -8.750430
-23.383165 47.829624 -8.117071
-23.344847 47.834885 -8.076612
-23.129528 47.847069 -8.447229
-23.278273 47.838963 -8.354778
-23.387205 47.833210 -8.060470
-23.276648 47.841351 -8.308737
-23.184832 47.832684 -8.510034
-23.220312 47.837860 -8.223560
-23.084173 47.836414 -8.674113
-23.062254 47.835625 -8.715682
-23.051111 47.847939 -8.682899
-22.906727 47.841888 -8.853136
-23.025194 47.847038 -8.630774
-23.467983 47.837177 -7.886042
-23.412266 47.843021 -7.934789
-23.057953 47.837635 -8.760934
-22.935318 47.845795 -8.801575
-23.119898 47.841278 -8.514391
-22.991814 47.843597 -8.678682
-23.339357 47.844978 -7.981178
-23.461561 47.839321 -7.810328
-22.952711 47.841797 -8.841193
-23.403849 47.844063 -7.843303
-23.032677 47.835690 -8.789397
-23.048544 47.837147 -8.761610
-22.965818 47.846710 -8.827845
-22.985882 47.848320 -8.792097
-23.169439 47.846394 -8.313339
-23.078419 47.849411 -8.601209
-23.157858 47.841251 -8.410022
-23.016331 47.840530 -8.771817
-22.993135 47.840794 -8.813861
-23.003918 47.841290 -8.791288
-23.317913 47.839794 -8.150664
-23.151913 47.840572 -8.531241
-23.377373 47.832550 -8.045065
-23.060587 47.849075 -8.508117
-23.082718 47.839500 -8.654153
-23.112623 47.846153 -8.566026
-23.193392 47.844437 -8.304428
-23.242157 47.839718 -8.180800
-23.256231 47.848717 -8.084371
-22.924694 47.851673 -8.756474
-23.120314 47.839031 -8.498702
-23.468790 47.835865 -7.831001
-23.186136 47.842392 -8.374049
-23.245903 47.840954 -8.292470
-23.329462 47.836288 -8.106916
-23.063589 47.842281 -8.661063
-23.214388 47.837582 -8.336841
-22.982824 47.854687 -8.728383
-23.292580 47.843376 -8.068377
-23.336748 47.842552 -8.053206
-23.074064 47.850327 -8.427031
-23.215609 47.843624 -8.294628
-23.129414 47.837822 -8.492159
-23.026852 47.852711 -8.696151
-23.042725 47.849838 -8.654717
-22.864923 47.851109 -8.837998
-23.165817 47.843815 -8.208445
-23.403574 47.839123 -7.882588
-23.004847 47.841076 -8.734071
-23.346916 47.843155 -7.928542
-22.992035 47.847828 -8.653948
-22.875980 47.861702 -8.833848
-23.076056 47.852734 -8.497086
-22.987528 47.863262 -8.611159
-22.900803 47.861919 -8.780230
-23.406372 47.845722 -7.807297
-22.957310 47.860611 -8.659621
-23.346722 47.847622 -7.839196
-22.998735 47.843376 -8.735406
-23.280127 47.848885 -7.972571
-22.913647 47.848412 -8.794655
-22.928675 47.848274 -8.759609
-23.118040 47.852142 -8.298724
-23.022518 47.850979 -8.575094
-23.115839 47.853558 -8.393695
-22.975821 47.853985 -8.750653
-22.954985 47.846554 -8.763267
-23.094942 47.841003 -8.509068
-23.258650 47.842812 -8.139767
-23.324169 47.841011 -8.038597
-23.028500 47.840813 -8.631187
-23.020323 47.860344 -8.490435
-23.064121 47.853107 -8.543918
-23.145277 47.852970 -8.290468
-23.412119 47.840332 -7.828285
-23.187006 47.843559 -8.168694
-23.277931 47.841824 -8.096754
-23.194927 47.847790 -8.074582
-23.074123 47.848625 -8.481254
-23.140356 47.851898 -8.357947
-23.012659 47.845490 -8.636475
-23.180586 47.839420 -8.279424
-22.886421 47.864109 -8.733078
-23.165720 47.844212 -8.321424
-23.235909 47.846066 -8.061102
-23.281139 47.848152 -8.046547
-22.927317 47.853497 -8.696771
-23.099840 47.858147 -8.481419
-23.157686 47.845695 -8.281028
-22.986227 47.849396 -8.629383
-22.968990 47.850552 -8.666674
-23.033941 47.863586 -8.409457
-23.405106 47.846359 -7.776066
-23.352951 47.846363 -7.877459
-22.972029 47.857838 -8.718159
-22.817287 47.853542 -8.804951
-23.113903 47.848557 -8.194669
-22.948999 47.856438 -8.632492
-23.295959 47.851486 -7.922123
-22.820810 47.856758 -8.796688
-23.018110 47.851250 -8.474359
-23.352951 47.851978 -7.805196
-22.842340 47.854191 -8.742413
-22.929102 47.859093 -8.582474
-23.295589 47.853855 -7.834908
-22.964565 47.859303 -8.717635
-22.937525 47.848770 -8.739358
-22.897936 47.854630 -8.628139
-22.858900 47.851269 -8.781613
-22.873421 47.858009 -8.770176
-23.229109 47.855331 -7.963823
-23.077200 47.862293 -8.284109
-22.885626 47.855106 -8.733589
-22.973845 47.854942 -8.552839
-23.063017 47.856590 -8.374886
-22.919777 47.851784 -8.719872
-23.049490 47.847645 -8.489696
-22.898857 47.852024 -8.759725
-23.206659 47.847446 -8.128213
-22.921289 47.862499 -8.744615
-23.271261 47.847389 -8.033377
-22.994822 47.858536 -8.617100
-23.011614 47.853275 -8.521832
-22.962734 47.856884 -8.466727
-23.355675 47.841721 -7.826764
-23.083416 47.848366 -8.274664
-23.225285 47.844341 -8.088210
-23.035620 47.860638 -8.466777
-23.147116 47.855526 -8.156876
-23.085524 47.851990 -8.340287
-23.161032 47.863312 -8.064861
-23.128996 47.843071 -8.266933
-22.978434 47.860420 -8.618654
-23.114586 47.846992 -8.305766
-22.831617 47.858971 -8.699500
-23.184290 47.850502 -8.053132
-23.216492 47.845226 -8.040613
-23.031956 47.848206 -8.458947
-22.883278 47.859299 -8.672470
-23.115440 47.855797 -8.269063
-22.942667 47.856995 -8.608762
-22.936180 47.866425 -8.648486
-23.347410 47.849693 -7.777308
-23.300869 47.851673 -7.872653
-22.909342 47.849075 -8.686012
-22.979132 47.862789 -8.389526
-23.238714 47.852169 -7.915637
-23.298883 47.855228 -7.803828
-22.900267 47.858521 -8.607907
-22.975857 47.859573 -8.457833
-23.246557 47.857964 -7.830558
-23.075506 47.862457 -8.182539
-22.902283 47.849560 -8.684552
-22.778114 47.860725 -8.767406
-22.886843 47.865639 -8.561386
-22.808537 47.867260 -8.721385
-22.861317 47.865818 -8.607853
-22.825138 47.858330 -8.740142
-23.297255 47.858650 -7.717095
-22.841053 47.859009 -8.707841
-23.017584 47.857559 -8.268354
-23.009508 47.856834 -8.473255
-23.171473 47.856106 -7.955999
-22.926468 47.857857 -8.530115
-23.358383 47.851181 -7.754836
-22.876614 47.857513 -8.696033
-23.155430 47.850014 -8.117023
-23.010960 47.857563 -8.356441
-22.863718 47.856480 -8.711823
-23.213070 47.848038 -8.028655
-22.932907 47.849483 -8.589879
-22.973646 47.865414 -8.504246
-23.316957 47.853306 -7.821214
-22.920357 47.862328 -8.447820
-23.174465 47.846817 -8.078365
-23.037767 47.853691 -8.261945
-23.093151 47.856640 -8.258412
-23.052078 47.866634 -8.327396
-22.975555 47.854214 -8.445103
-23.080673 47.861626 -8.293759
-23.091671 47.854389 -8.144520
-22.916517 47.850483 -8.589153
-23.103601 47.860115 -8.055943
-23.146112 47.862209 -8.044473
-23.170391 47.852318 -8.033342
-23.000460 47.865692 -8.447137
-23.058102 47.852814 -8.255676
-22.787945 47.862801 -8.674223
-22.836769 47.860363 -8.645647
-23.302670 47.858505 -7.774181
-22.896099 47.858837 -8.586447
-23.253769 47.857735 -7.867100
-22.876152 47.857441 -8.617735
-22.874537 47.862000 -8.668980
-22.929852 47.864643 -8.370298
-23.250864 47.861256 -7.800047
-23.200291 47.862953 -7.825422
-23.186996 47.855507 -7.909854
-22.869762 47.863354 -8.667611
-22.845015 47.853683 -8.689428
-22.854179 47.860382 -8.584714
-22.926498 47.860432 -8.438548
-23.018669 47.859493 -8.168282
-22.737663 47.865456 -8.740454
-22.760963 47.864517 -8.691667
-22.838888 47.865658 -8.537170
-22.961475 47.857632 -8.453541
-22.812822 47.863937 -8.582187
-22.783743 47.863022 -8.714952
-23.303799 47.854309 -7.756585
-22.972759 47.860928 -8.253770
-23.246437 47.862804 -7.714062
-22.797310 47.861843 -8.682509
-23.123823 47.866402 -8.107395
-22.834751 47.863079 -8.674007
-22.880394 47.860611 -8.509207
-22.809582 47.857838 -8.708123
-23.163624 47.852238 -8.022959
-23.134312 47.868851 -7.945631
-22.961548 47.858315 -8.339389
-22.825548 47.863850 -8.689519
-22.897045 47.860386 -8.574512
-23.264572 47.854527 -7.818436
-22.919098 47.860756 -8.480990
-23.147423 47.864937 -8.068919
-22.880821 47.870537 -8.430461
-22.985424 47.851460 -8.247813
-23.015144 47.848259 -8.276991
-23.028778 47.848076 -8.244599
-22.989033 47.856239 -8.308597
-22.933596 47.860455 -8.429824
-22.884417 47.864185 -8.573562
-23.070940 47.873592 -8.045705
-23.044104 47.857765 -8.133011
-23.089033 47.857929 -8.036851
-23.135853 47.865723 -8.026636
-22.940157 47.856174 -8.427542
-23.019920 47.863636 -8.244737
-23.249842 47.860596 -7.774575
-22.748323 47.867348 -8.649965
-22.795261 47.863956 -8.622640
-22.853657 47.863285 -8.567488
-23.205214 47.861862 -7.861870
-22.838810 47.864632 -8.598125
-22.824617 47.859177 -8.643677
-23.196032 47.859512 -7.799314
-22.824011 47.863239 -8.643428
-23.147812 47.862183 -7.822554
-22.810671 47.861027 -8.562858
-22.886438 47.868065 -8.353065
-23.137039 47.857807 -7.902719
-22.880251 47.861084 -8.419770
-22.925558 47.867538 -8.438127
-22.700260 47.869869 -8.716235
-22.979033 47.867496 -8.155388
-22.719868 47.866241 -8.665447
-23.257610 47.862076 -7.756064
-22.796400 47.868221 -8.515887
-23.068140 47.862171 -8.097118
-22.928293 47.863213 -8.240484
-22.771742 47.867439 -8.560533
-22.740353 47.863884 -8.688639
-22.754328 47.862610 -8.657540
-22.788534 47.862064 -8.648430
-23.126339 47.864765 -8.017048
-22.838839 47.864098 -8.488433
-23.195572 47.865963 -7.710984
-23.213013 47.854675 -7.816072
-22.851315 47.862049 -8.554897
-22.781681 47.864693 -8.664085
-22.914373 47.858936 -8.322381
-23.076859 47.865551 -7.938957
-23.089264 47.857738 -8.060676
-22.884529 47.870605 -8.465156
-22.980928 47.857914 -8.264731
-22.834927 47.869217 -8.410700
-22.947533 47.859310 -8.235840
-22.990881 47.856815 -8.234903
-22.839491 47.863892 -8.552073
-22.886347 47.860081 -8.412761
-22.946959 47.860489 -8.293220
-23.013693 47.866322 -8.037936
-23.004871 47.865677 -8.121462
-23.050152 47.865639 -8.028877
-23.080597 47.862293 -8.019992
-22.900902 47.863194 -8.413703
-22.968870 47.861244 -8.232416
-23.201118 47.863514 -7.773758
-23.155066 47.862064 -7.856859
-22.753574 47.864559 -8.599482
-22.809685 47.863914 -8.546518
-22.712349 47.873596 -8.627664
-22.793488 47.864429 -8.575296
-22.783930 47.862591 -8.623363
-23.145374 47.859589 -7.797422
-23.106474 47.866932 -7.816620
-22.782915 47.866741 -8.621768
-23.105207 47.871105 -7.895175
-22.770004 47.864437 -8.542551
-22.839466 47.864281 -8.403922
-22.840565 47.867634 -8.335592
-22.879179 47.866199 -8.419243
-23.028307 47.868073 -8.086347
-22.658035 47.866798 -8.687068
-23.200045 47.860340 -7.758410
-23.168783 47.857437 -7.813102
-22.940216 47.874428 -8.142907
-22.890753 47.869087 -8.227529
-22.735584 47.871586 -8.540358
-22.681011 47.868729 -8.641554
-23.068682 47.859364 -8.012492
-22.751081 47.867260 -8.628723
-22.717815 47.867844 -8.636068
-22.808628 47.862514 -8.535734
-22.697250 47.861774 -8.661289
-22.758568 47.874405 -8.497127
-22.740931 47.866219 -8.641439
-23.143991 47.865120 -7.708586
-23.060637 47.871933 -8.051450
-22.872189 47.861195 -8.306907
-22.799591 47.869339 -8.470039
-22.840034 47.870224 -8.445021
-23.042749 47.877094 -7.929046
-22.937799 47.860142 -8.251020
-22.792614 47.868595 -8.392842
-22.909121 47.866150 -8.224704
-22.943539 47.857117 -8.224588
-22.802511 47.869995 -8.533765
-22.906181 47.864578 -8.279655
-22.851740 47.869823 -8.399164
-22.977980 47.873936 -8.028238
-22.854010 47.861729 -8.397939
-22.964115 47.870655 -8.110184
-23.039846 47.869049 -8.013275
-23.005116 47.867695 -8.020941
-22.931328 47.868008 -8.221738
-23.149532 47.863560 -7.773637
-23.121761 47.873428 -7.849634
-22.770302 47.867165 -8.528018
-22.756853 47.868561 -8.556002
-22.742121 47.862091 -8.602383
-22.714661 47.866940 -8.577819
-22.673910 47.875988 -8.605120
-23.117649 47.874599 -7.790947
-23.081093 47.882915 -7.808008
-22.739693 47.864418 -8.598877
-23.051672 47.866531 -7.889415
-22.734795 47.870396 -8.525173
-23.167742 47.864510 -7.653214
-22.800041 47.867424 -8.387657
-22.836449 47.866562 -8.402316
-23.128719 47.862019 -7.808972
-22.985540 47.870102 -8.076218
-23.146996 47.859341 -7.760890
-22.796051 47.867146 -8.317703
-22.767775 47.863831 -8.517553
-22.625710 47.874741 -8.666723
-22.849342 47.870174 -8.214702
-23.035446 47.871723 -8.005322
-22.713577 47.871468 -8.608971
-23.003191 47.861675 -8.043523
-22.648621 47.875675 -8.621157
-22.677902 47.868305 -8.613842
-22.662504 47.866859 -8.640746
-22.898539 47.878487 -8.131123
-22.699507 47.876732 -8.520242
-22.703894 47.870441 -8.620803
-22.718199 47.874847 -8.475788
-22.836529 47.868031 -8.292698
-22.761099 47.872517 -8.452006
-22.795832 47.867760 -8.426133
-23.106960 47.873688 -7.701600
-22.897240 47.861153 -8.238646
-22.991104 47.873482 -7.922037
-22.760113 47.867493 -8.513568
-22.871998 47.871937 -8.213096
-22.909359 47.867661 -8.214623
-22.753139 47.870743 -8.376532
-22.863409 47.864834 -8.264963
-22.806610 47.867329 -8.382047
-22.940741 47.878624 -8.018811
-22.989931 47.865284 -8.007180
-22.815460 47.865688 -8.384416
-22.964123 47.870468 -8.014022
-22.921900 47.873703 -8.099230
-23.117056 47.874741 -7.769108
-22.889105 47.871052 -8.210780
-23.067636 47.867733 -7.846935
-22.736511 47.874950 -8.512552
-22.707853 47.868973 -8.585518
-22.680330 47.871933 -8.558623
-22.722181 47.875534 -8.537794
-23.067698 47.871616 -7.789370
-22.641935 47.882847 -8.586070
-23.030079 47.877018 -7.805815
-22.707771 47.873158 -8.582155
-22.797764 47.867638 -8.386406
-23.085791 47.863731 -7.805536
-23.014505 47.873104 -7.882323
-22.761370 47.868504 -8.371754
-23.125834 47.868141 -7.650350
-22.698595 47.874439 -8.507235
-22.943665 47.872063 -8.066555
-23.120281 47.876274 -7.754984
-22.969227 47.869144 -8.034748
-22.762627 47.873852 -8.303539
-22.814850 47.874851 -8.202201
-22.733452 47.870602 -8.502920
-22.979910 47.864201 -8.000712
-22.679243 47.876465 -8.589774
-22.670900 47.875381 -8.601182
-22.593733 47.880711 -8.645393
-22.630053 47.872810 -8.620297
-22.647869 47.878002 -8.595871
-22.667477 47.883484 -8.503424
-22.614300 47.879784 -8.599686
-22.866083 47.869606 -8.226847
-22.723896 47.874641 -8.433503
-22.857210 47.880569 -8.118355
-22.801756 47.874790 -8.278955
-22.761042 47.873631 -8.410105
-22.677250 47.873283 -8.455236
-23.072752 47.884136 -7.693877
-22.957764 47.882961 -7.912492
-22.832342 47.872875 -8.201193
-22.870705 47.871407 -8.205564
-22.724846 47.872456 -8.496140
-22.831318 47.872368 -8.252652
-22.765060 47.865532 -8.366832
-22.718239 47.874622 -8.360406
-22.898697 47.878483 -8.011283
-22.774912 47.865810 -8.369765
-22.956053 47.874638 -8.000745
-22.925892 47.874126 -8.006314
-22.885532 47.877426 -8.087983
-22.850384 47.872913 -8.199389
-23.068987 47.873604 -7.768559
-23.042128 47.881725 -7.838220
-22.673464 47.873863 -8.568552
-22.700314 47.878994 -8.494615
-22.687256 47.878521 -8.519380
-23.034166 47.879887 -7.784229
-22.647827 47.877781 -8.540408
-22.993139 47.880508 -7.799917
-22.671904 47.875225 -8.563227
-23.064909 47.880447 -7.797052
-22.607555 47.885963 -8.564549
-22.760906 47.869564 -8.371477
-23.081936 47.868824 -7.648641
-22.723591 47.869507 -8.356318
-22.666502 47.880196 -8.490364
-22.972597 47.874958 -7.874899
-22.908710 47.877613 -8.057219
-22.932262 47.871746 -8.026561
-23.064184 47.869411 -7.758008
-22.941750 47.869743 -7.995338
-22.700016 47.877304 -8.488753
-22.641504 47.876686 -8.569821
-22.787605 47.888103 -8.190289
-22.638393 47.881226 -8.582965
-22.726397 47.877789 -8.287842
-22.614298 47.880936 -8.577038
-22.598896 47.878601 -8.601660
-22.830179 47.873344 -8.214715
-22.584023 47.885498 -8.581511
-22.556875 47.879082 -8.621346
-22.632038 47.884571 -8.483568
-22.724661 47.875572 -8.394294
-22.687050 47.875679 -8.416298
-22.764919 47.876720 -8.264033
-22.642223 47.874283 -8.436728
-22.819050 47.883450 -8.106143
-23.022705 47.879162 -7.692208
-22.689869 47.875336 -8.479958
-22.831524 47.873249 -8.195060
-22.797459 47.878536 -8.189633
-22.795013 47.876198 -8.239179
-22.909643 47.878166 -7.905057
-22.731104 47.871223 -8.353500
-22.683624 47.876419 -8.345525
-22.863632 47.882042 -8.001849
-22.737135 47.867706 -8.356609
-22.916420 47.877357 -7.993410
-22.886667 47.875866 -7.998045
-22.988178 47.871960 -7.836668
-23.034994 47.881859 -7.764304
-22.812151 47.875679 -8.189401
-22.847841 47.881210 -8.077167
-22.640835 47.878605 -8.552513
-22.664337 47.879959 -8.477869
-22.654158 47.882362 -8.501944
-22.987799 47.876717 -7.782277
-23.009892 47.868656 -7.797163
-22.949993 47.878239 -7.796288
-22.614332 47.881710 -8.521632
-22.640682 47.880909 -8.546817
-22.722994 47.868576 -8.355934
-22.574402 47.887917 -8.544786
-22.894779 47.873333 -8.019210
-22.695210 47.878849 -8.343735
-23.056450 47.882824 -7.639935
-22.875172 47.884102 -8.047517
-22.935259 47.878544 -7.867660
-22.631071 47.882175 -8.472793
-23.035418 47.882401 -7.753206
-22.661631 47.875412 -8.471813
-22.904873 47.874233 -7.989492
-22.609285 47.880451 -8.552849
-22.745308 47.882198 -8.177994
-22.799318 47.879719 -8.204164
-22.604828 47.884159 -8.564135
-22.584091 47.887650 -8.558918
-22.695210 47.884365 -8.273726
-22.685278 47.871761 -8.376791
-22.571573 47.889076 -8.585133
-22.531904 47.891422 -8.604963
-22.597021 47.885571 -8.465064
-22.552412 47.890385 -8.561484
-22.651560 47.876663 -8.398676
-22.730913 47.881416 -8.250656
-22.784992 47.888039 -8.094998
-22.655237 47.876244 -8.462790
-22.609627 47.879032 -8.420702
-22.798927 47.880665 -8.185872
-22.996820 47.893253 -7.682160
-22.766678 47.885906 -8.179140
-22.764219 47.882683 -8.226401
-22.695621 47.873981 -8.340440
-22.834736 47.891262 -7.992385
-22.650433 47.879158 -8.330277
-22.702522 47.870392 -8.344007
-22.882763 47.882744 -7.985887
-22.854359 47.881195 -7.990100
-22.880476 47.889469 -7.894355
-22.959745 47.882084 -7.828598
-22.986225 47.876720 -7.764440
-22.783243 47.884895 -8.179932
-22.812374 47.884861 -8.066392
-22.607214 47.881432 -8.535913
-22.987020 47.882427 -7.789836
-22.955498 47.882938 -7.776615
-22.631193 47.883690 -8.462668
-22.620001 47.883286 -8.483895
-22.923853 47.889229 -7.788312
-22.694481 47.875923 -8.343246
-22.582130 47.885479 -8.504666
-22.607595 47.884747 -8.529386
-22.861990 47.877758 -8.009866
-22.541265 47.889874 -8.525030
-22.836758 47.883884 -8.037377
-22.661079 47.881550 -8.330256
-23.015722 47.883415 -7.636503
-22.897335 47.880123 -7.861204
-22.592575 47.877403 -8.453476
-22.984314 47.876293 -7.755483
-22.628489 47.879147 -8.456614
-22.865601 47.875866 -7.983456
-22.769001 47.887108 -8.192785
-22.711063 47.883801 -8.166695
-22.577147 47.885212 -8.535934
-22.572083 47.886024 -8.545716
-22.546530 47.882908 -8.537833
-22.538296 47.889042 -8.565268
-22.652079 47.874500 -8.361542
-22.663967 47.889946 -8.259560
-22.558874 47.878826 -8.444763
-22.495686 47.885735 -8.581177
-22.518610 47.888447 -8.540174
-22.617363 47.877483 -8.382863
-22.695316 47.882187 -8.237496
-22.619083 47.874222 -8.445893
-22.762394 47.882286 -8.176759
-22.731432 47.886219 -8.214778
-22.578316 47.882725 -8.404203
-22.733429 47.889427 -8.168404
-22.745258 47.886993 -8.083011
-22.661360 47.874695 -8.326855
-22.950823 47.888115 -7.679231
-22.797623 47.890877 -7.984060
-22.674023 47.878628 -8.333605
-22.844303 47.883308 -7.980261
-22.819715 47.884666 -7.982019
-22.618124 47.881821 -8.315495
-22.922693 47.883587 -7.822601
-22.951590 47.881969 -7.760921
-22.746176 47.884621 -8.169372
-22.976711 47.871078 -7.588530
-22.837816 47.886333 -7.887570
-22.939938 47.875256 -7.788562
-22.783012 47.893177 -8.055532
-22.919798 47.885273 -7.772480
-22.575418 47.885105 -8.520292
-22.592167 47.877907 -8.444184
-22.887157 47.889645 -7.783615
-22.587738 47.886059 -8.466878
-22.660685 47.876652 -8.328776
-22.574728 47.885509 -8.513145
-22.831024 47.883034 -8.001499
-22.549271 47.885353 -8.486150
-22.803452 47.887299 -8.028871
-22.979628 47.886730 -7.633307
-22.622946 47.876583 -8.314519
-22.510824 47.892605 -8.506711
-22.865044 47.885460 -7.853267
-22.559662 47.877167 -8.437190
-22.959715 47.891106 -7.749523
-22.741776 47.894291 -8.181906
-22.589403 47.873253 -8.440358
-22.836248 47.885960 -7.977160
-22.546160 47.886932 -8.518442
-22.680645 47.889202 -8.155223
-22.543173 47.892574 -8.529408
-22.624989 47.882790 -8.348491
-22.505907 47.888931 -8.545868
-22.516623 47.887543 -8.520964
-22.530788 47.884308 -8.428870
-22.485163 47.885426 -8.520161
-22.632137 47.893520 -8.246178
-22.588171 47.877827 -8.430737
-22.589809 47.884865 -8.368417
-22.467659 47.891327 -8.563054
-22.666828 47.889538 -8.224819
-22.723862 47.880077 -8.166520
-22.700060 47.890694 -8.202787
-22.700062 47.890957 -8.157567
-22.755516 47.882679 -7.977476
-22.627983 47.875332 -8.313735
-22.550297 47.889206 -8.388363
-22.716379 47.895329 -8.071274
-22.637426 47.877480 -8.319882
-22.810137 47.887684 -7.973579
-22.787361 47.889004 -7.974031
-22.950800 47.878994 -7.581748
-22.885120 47.884079 -7.817441
-22.586636 47.883419 -8.301126
-22.915335 47.892555 -7.672980
-23.009237 47.889572 -7.582234
-22.916899 47.886227 -7.757353
-22.712471 47.888126 -8.159523
-22.918354 47.887978 -7.780764
-22.806005 47.891685 -7.878754
-22.882641 47.885674 -7.768668
-22.742960 47.888035 -8.045567
-22.542631 47.886868 -8.504110
-22.857088 47.894852 -7.775718
-22.553347 47.882999 -8.448629
-22.560259 47.879593 -8.428466
-22.800873 47.887238 -7.993543
-22.634535 47.885864 -8.316238
-22.543346 47.888206 -8.496593
-22.519239 47.887993 -8.469176
-22.772028 47.891670 -8.019113
-22.940605 47.886181 -7.630754
-22.909315 47.881935 -7.752113
-22.596344 47.885780 -8.302871
-22.477322 47.888588 -8.486650
-22.699299 47.885406 -8.169460
-22.528166 47.877876 -8.420539
-22.561789 47.880527 -8.428141
-22.832764 47.890797 -7.845334
-22.801485 47.888329 -7.971258
-22.649035 47.889694 -8.143031
-22.515724 47.890553 -8.502405
-22.511127 47.891380 -8.511303
-22.595900 47.887241 -8.334311
-22.487934 47.890125 -8.503568
-22.558010 47.879364 -8.415938
-22.473934 47.887844 -8.525537
-22.559723 47.887402 -8.353676
-22.638216 47.894897 -8.212040
-22.501179 47.886860 -8.413247
-22.694384 47.887287 -8.157841
-22.438908 47.892025 -8.543327
-22.598316 47.893257 -8.231671
-22.668568 47.893181 -8.190697
-22.458086 47.891937 -8.502556
-22.669048 47.894348 -8.146875
-22.730133 47.890717 -7.967582
-22.599842 47.881596 -8.302352
-22.608749 47.882729 -8.309329
-22.778658 47.891949 -7.966052
-22.936846 47.897537 -7.569037
-22.856924 47.891129 -7.810569
-22.521690 47.893677 -8.373305
-22.751545 47.888458 -7.967516
-22.970085 47.887913 -7.581855
-22.883492 47.889427 -7.753311
-22.682032 47.894943 -8.059881
-22.882532 47.888321 -7.776527
-22.560377 47.890640 -8.288491
-22.875725 47.889107 -7.668931
-22.678579 47.888641 -8.149521
-22.849176 47.887878 -7.764577
-22.771732 47.893188 -7.869697
-22.513409 47.889324 -8.489825
-22.824562 47.897091 -7.769861
-22.713022 47.894344 -8.035495
-22.772202 47.893379 -7.985272
-22.528704 47.880192 -8.414042
-22.605320 47.889214 -8.304236
-22.521851 47.883709 -8.431978
-22.513655 47.889759 -8.480911
-22.493036 47.895321 -8.454311
-22.736137 47.889240 -8.010262
-22.672501 47.892502 -8.159934
-22.568546 47.890068 -8.290501
-22.876913 47.887058 -7.748639
-22.908209 47.890415 -7.625001
-22.527287 47.876369 -8.412075
-22.765266 47.888763 -7.965679
-22.797422 47.890270 -7.837938
-22.448650 47.891174 -8.469260
-22.503376 47.887032 -8.407585
-22.617842 47.890099 -8.132189
-22.484165 47.890263 -8.485702
-22.480101 47.892105 -8.493768
-22.568630 47.892544 -8.321109
-22.530806 47.885662 -8.402788
-22.457788 47.890778 -8.486496
-22.445728 47.891335 -8.509544
-22.661436 47.888729 -8.148354
-22.638830 47.895519 -8.179529
-22.532993 47.893719 -8.339644
-22.604736 47.893551 -8.198825
-22.470911 47.885517 -8.396074
-22.700417 47.893948 -7.958702
-22.409704 47.892712 -8.524490
-22.428284 47.890614 -8.484498
-22.633167 47.891029 -8.135750
-22.574051 47.889725 -8.291113
-22.849804 47.888458 -7.772789
-22.571192 47.900555 -8.218579
-22.897524 47.892891 -7.568511
-22.824858 47.893387 -7.803825
-22.579144 47.887058 -8.298267
-22.721357 47.891670 -7.959519
-22.741444 47.890469 -7.959911
-22.937626 47.892040 -7.578331
-22.848158 47.890678 -7.750478
-22.531590 47.893013 -8.275561
-22.489151 47.891472 -8.356046
-22.647041 47.891022 -8.139665
-22.848551 47.897190 -7.660351
-22.646296 47.893620 -8.048865
-22.822399 47.895870 -7.757339
-22.795654 47.900139 -7.763669
-22.740534 47.894653 -7.977591
-22.482323 47.889942 -8.474520
-22.681427 47.895729 -8.025589
-22.741213 47.897491 -7.860412
-22.504320 47.889256 -8.402433
-22.575645 47.891659 -8.290841
-22.493048 47.885189 -8.416763
-22.483974 47.891315 -8.465235
-22.711758 47.899197 -8.000935
-22.459888 47.890217 -8.435547
-22.642700 47.893845 -8.148715
-22.874693 47.891628 -7.620864
-22.537416 47.890579 -8.277431
-22.839781 47.888351 -7.747116
-22.502438 47.885418 -8.401350
-22.471109 47.882744 -8.391563
-22.731867 47.891079 -7.959362
-22.765369 47.892529 -7.831200
-22.418859 47.889851 -8.451206
-22.588129 47.892441 -8.121032
-22.456367 47.893665 -8.471053
-22.449892 47.891762 -8.476645
-22.534618 47.889294 -8.306446
-22.500536 47.885208 -8.387894
-22.428526 47.891357 -8.469889
-22.416866 47.890934 -8.492000
-22.629372 47.890095 -8.139331
-22.606226 47.894096 -8.166777
-22.819088 47.891548 -7.767905
-22.603853 47.893280 -8.125934
-22.442066 47.886005 -8.380816
-22.503801 47.896183 -8.325372
-22.570740 47.891190 -8.186448
-22.669243 47.895241 -7.950146
-22.878771 47.906609 -7.557700
-22.546799 47.895916 -8.280196
-22.400368 47.891136 -8.467469
-22.795143 47.897507 -7.797225
-22.901108 47.889275 -7.577060
-22.383322 47.896164 -8.507195
-22.549417 47.889400 -8.287105
-22.709257 47.890732 -7.953066
-22.692581 47.895824 -7.951153
-22.815643 47.893810 -7.746905
-22.535730 47.895370 -8.204245
-22.616320 47.892334 -8.130219
-22.503279 47.895401 -8.261752
-22.788822 47.896088 -7.753150
-22.459435 47.892036 -8.340328
-22.705872 47.891064 -7.970499
-22.764420 47.901329 -7.757342
-22.619524 47.899834 -8.037070
-22.813707 47.897575 -7.654363
-22.453997 47.892330 -8.460704
-22.550650 47.898712 -8.280009
-22.651163 47.897057 -8.015260
-22.472572 47.886868 -8.387859
-22.464174 47.885677 -8.401498
-22.453691 47.890862 -8.450340
-22.711157 47.901810 -7.850246
-22.680958 47.899509 -7.991437
-22.610023 47.892311 -8.138192
-22.431490 47.890720 -8.419402
-22.808659 47.892418 -7.743175
-22.513968 47.900570 -8.266340
-22.843576 47.894810 -7.614645
-22.473633 47.887787 -8.388422
-22.702141 47.895195 -7.952766
-22.443184 47.884151 -8.376818
-22.736588 47.896683 -7.822840
-22.559217 47.893707 -8.110288
-22.426493 47.892231 -8.455228
-22.393005 47.895203 -8.435366
-22.419954 47.889328 -8.460768
-22.509096 47.894447 -8.294174
-22.472136 47.886600 -8.374031
-22.863386 47.887081 -7.545783
-22.789707 47.894577 -7.762606
-22.598175 47.891388 -8.130777
-22.400064 47.890862 -8.453696
-22.388937 47.891453 -8.474976
-22.582777 47.904083 -8.155689
-22.839668 47.898884 -7.558375
-22.644609 47.901215 -7.940622
-22.480755 47.905190 -8.313348
-22.763426 47.898674 -7.791788
-22.572132 47.892670 -8.115935
-22.883348 47.904911 -7.566822
-22.416555 47.890270 -8.366270
-22.664139 47.898884 -7.944088
-22.680944 47.895786 -7.946106
-22.520622 47.892658 -8.276464
-22.541952 47.893562 -8.173530
-22.515131 47.895412 -8.267966
-22.782930 47.893948 -7.743185
-22.372383 47.890656 -8.450397
-22.356802 47.897621 -8.489801
-22.584063 47.890709 -8.121052
-22.507887 47.898666 -8.191842
-22.675421 47.890289 -7.962303
-22.758451 47.897198 -7.747293
-22.736858 47.904316 -7.750742
-22.476303 47.898621 -8.249809
-22.431458 47.892448 -8.325540
-22.422657 47.888962 -8.445204
-22.521736 47.899094 -8.266986
-22.588282 47.899242 -8.026196
-22.781675 47.899837 -7.647647
-22.445135 47.889183 -8.374519
-22.437202 47.888008 -8.387274
-22.622467 47.901318 -8.004683
-22.425777 47.892269 -8.435601
-22.680004 47.903107 -7.841709
-22.649723 47.899807 -7.982841
-22.588335 47.902153 -8.128030
-22.403990 47.891151 -8.403731
-22.779905 47.898350 -7.739387
-22.444128 47.886154 -8.376179
-22.481064 47.894161 -8.253345
-22.810898 47.894955 -7.610937
-22.669575 47.896439 -7.946877
-22.707769 47.899837 -7.814441
-22.420164 47.893158 -8.364803
-22.535074 47.899696 -8.099886
-22.396584 47.889801 -8.439363
-22.366915 47.896572 -8.419325
-22.482597 47.897686 -8.281347
-22.761623 47.896553 -7.756838
-22.392515 47.890755 -8.445148
-22.445570 47.888840 -8.361151
-22.845058 47.900707 -7.536333
-22.813072 47.902798 -7.552294
-22.548939 47.897644 -8.144461
-22.570816 47.896477 -8.122054
-22.374504 47.894131 -8.439102
-22.842394 47.896229 -7.568759
-22.613733 47.900425 -7.933323
-22.363909 47.895737 -8.459550
-22.734072 47.900818 -7.784219
-22.542648 47.891930 -8.105981
-22.652525 47.898849 -7.939048
-22.497534 47.901558 -8.266674
-22.450386 47.902748 -8.298369
-22.755051 47.898918 -7.737578
-22.489105 47.899555 -8.256537
-22.632387 47.898170 -7.936329
-22.392475 47.896366 -8.353640
-22.516935 47.899624 -8.162668
-22.348299 47.895863 -8.435487
-22.329245 47.896168 -8.471801
-22.558577 47.896755 -8.111073
-22.651806 47.898178 -7.953349
-22.731447 47.902092 -7.742147
-22.448624 47.896954 -8.236265
-22.705055 47.903496 -7.745215
-22.480536 47.901981 -8.178563
-22.493172 47.898384 -8.255258
-22.397028 47.892120 -8.432836
-22.408978 47.902473 -8.312696
-22.419512 47.892345 -8.362153
-22.558004 47.899578 -8.015839
-22.415117 47.897938 -8.375771
-22.395676 47.886852 -8.419578
-22.752342 47.901985 -7.640085
-22.591583 47.899643 -7.995102
-22.552435 47.891766 -8.117902
-22.621237 47.900990 -7.973450
-22.653133 47.908222 -7.832109
-22.378971 47.896324 -8.390589
-22.415167 47.885540 -8.363110
-22.742487 47.894661 -7.737627
-22.787298 47.902851 -7.601988
-22.455517 47.898323 -8.241035
-22.639822 47.899563 -7.940245
-22.680363 47.903938 -7.805672
-22.394615 47.897320 -8.352492
-22.734486 47.899452 -7.751585
-22.510004 47.904766 -8.088975
-22.369495 47.890141 -8.425036
-22.456980 47.900848 -8.268983
-22.843866 47.894230 -7.527622
-22.422352 47.894859 -8.348977
-22.341705 47.897869 -8.403747
-22.367828 47.893951 -8.431014
-22.812262 47.899750 -7.534804
-22.818729 47.904018 -7.562037
-22.783148 47.903828 -7.547794
-22.521389 47.898857 -8.133302
-22.539461 47.894783 -8.113356
-22.585541 47.899521 -7.925177
-22.706001 47.902798 -7.778455
-22.521847 47.901699 -8.096284
-22.346888 47.892570 -8.423330
-22.618246 47.894176 -7.933272
-22.605253 47.900185 -7.928797
-22.336760 47.894192 -8.442893
-22.466173 47.898975 -8.255693
-22.725246 47.901936 -7.733178
-22.458151 47.895992 -8.244621
-22.425371 47.907925 -8.285228
-22.367802 47.899567 -8.339511
-22.627598 47.904060 -7.945174
-22.490391 47.901871 -8.149796
-22.528629 47.896000 -8.102004
-22.705381 47.907021 -7.735234
-22.683664 47.911259 -7.736300
-22.302504 47.893642 -8.454210
-22.320625 47.892418 -8.417385
-22.425087 47.904953 -8.225088
-22.465151 47.898693 -8.242702
-22.452534 47.902294 -8.166014
-22.367603 47.890602 -8.418372
-22.391897 47.891670 -8.348661
-22.383839 47.905659 -8.299453
-22.373062 47.895771 -8.408908
-22.531696 47.902534 -8.108256
-22.387098 47.897358 -8.360934
-22.566048 47.904697 -7.985077
-22.595165 47.905029 -7.964254
-22.721087 47.902184 -7.633732
-22.532137 47.905724 -8.004525
-22.619873 47.904579 -7.824626
-22.392427 47.892467 -8.352335
-22.355297 47.901443 -8.377023
-22.715553 47.900555 -7.732535
-22.754509 47.901005 -7.598181
-22.429445 47.901474 -8.229559
-22.607950 47.897747 -7.934663
-22.808601 47.895710 -7.520318
-22.818012 47.896965 -7.524175
-22.711222 47.906258 -7.743925
-22.655235 47.908901 -7.796991
-22.368475 47.898586 -8.338684
-22.481346 47.902958 -8.079434
-22.428837 47.899166 -8.256324
-22.343752 47.890427 -8.410290
-22.789944 47.907482 -7.527660
-22.396740 47.898026 -8.336615
-22.756773 47.904663 -7.542903
-22.340620 47.892300 -8.416586
-22.317039 47.901070 -8.389620
-22.497187 47.903854 -8.122849
-22.781071 47.897236 -7.562354
-22.558823 47.900558 -7.916714
-22.510458 47.894951 -8.104800
-22.679470 47.906822 -7.770147
-22.497248 47.907673 -8.086770
-22.322218 47.895771 -8.409203
-22.698185 47.905838 -7.727983
-22.600399 47.905075 -7.937589
-22.312023 47.896393 -8.428712
-22.577259 47.902275 -7.920811
-22.432482 47.899052 -8.234488
-22.588848 47.895329 -7.925658
-22.437162 47.898254 -8.244857
-22.398701 47.908176 -8.272251
-22.462791 47.902088 -8.138590
-22.347136 47.910442 -8.327641
-22.674395 47.905132 -7.730117
-22.652618 47.908375 -7.731133
-22.501629 47.899117 -8.092299
-22.298830 47.899380 -8.404846
-22.281305 47.902615 -8.440892
-22.438881 47.898853 -8.231067
-22.399298 47.905132 -8.212574
-22.342800 47.892696 -8.406417
-22.431870 47.913170 -8.154145
-22.360109 47.909782 -8.285838
-22.368294 47.898674 -8.337430
-22.504961 47.902679 -8.097507
-22.363764 47.901386 -8.348660
-22.347857 47.897957 -8.395609
-22.564569 47.901268 -7.955916
-22.535992 47.901951 -7.975910
-22.698372 47.909122 -7.622968
-22.509077 47.913746 -7.992467
-22.369291 47.900375 -8.342499
-22.330500 47.902649 -8.362791
-22.683966 47.907169 -7.738571
-22.598284 47.914543 -7.812250
-22.685230 47.902565 -7.728971
-22.795229 47.904682 -7.517916
-22.403187 47.901638 -8.217929
-22.730858 47.907909 -7.589185
-22.788351 47.907391 -7.512077
-22.581020 47.902752 -7.927293
-22.349211 47.911285 -8.328720
-22.458494 47.907898 -8.068562
-22.630711 47.915882 -7.787534
-22.758436 47.905472 -7.525658
-22.318956 47.892521 -8.398336
-22.405638 47.905190 -8.244157
-22.373007 47.903034 -8.325277
-22.730070 47.906590 -7.536725
-22.317886 47.898342 -8.403534
-22.759222 47.904987 -7.554327
-22.652752 47.908749 -7.763963
-22.471991 47.906933 -8.111835
-22.293781 47.905212 -8.375122
-22.533579 47.903530 -7.907933
-22.485395 47.900909 -8.096172
-22.469061 47.905884 -8.076346
-22.573208 47.906094 -7.930007
-22.565596 47.902134 -7.918002
-22.667736 47.905853 -7.724314
-22.550079 47.903294 -7.913233
-22.298426 47.898895 -8.395535
-22.411499 47.901314 -8.234726
-22.409819 47.906979 -8.223771
-22.288296 47.900517 -8.415098
-22.630642 47.914131 -7.723001
-22.647749 47.908054 -7.723989
-22.322815 47.912556 -8.314807
-22.441599 47.911957 -8.127553
-22.372572 47.909443 -8.258447
-22.477373 47.904007 -8.084078
-22.276508 47.904446 -8.390861
-22.257917 47.904762 -8.426290
-22.415152 47.903866 -8.219731
-22.373518 47.905312 -8.200063
-22.317604 47.894882 -8.393122
-22.480171 47.905663 -8.087836
-22.347565 47.909443 -8.327787
-22.403820 47.912491 -8.141549
-22.340502 47.906418 -8.336441
-22.321127 47.897213 -8.382582
-22.539385 47.905239 -7.947185
-22.339514 47.921658 -8.274023
-22.508877 47.903080 -7.966105
-22.479374 47.909027 -7.982316
-22.667006 47.907333 -7.616516
-22.758665 47.895634 -7.522161
-22.656719 47.908081 -7.733219
-22.343033 47.900536 -8.330868
-22.378872 47.904640 -8.207376
-22.306776 47.906776 -8.349178
-22.757380 47.907284 -7.511524
-22.654848 47.903576 -7.725358
-22.696960 47.903042 -7.586996
-22.567781 47.911789 -7.803975
-22.549974 47.899868 -7.922123
-22.435120 47.911823 -8.058523
-22.731670 47.907291 -7.521707
-22.317305 47.897961 -8.312720
-22.705641 47.909386 -7.530633
-22.599205 47.912094 -7.780973
-22.349213 47.907051 -8.313890
-22.378319 47.902439 -8.231911
-22.297764 47.902382 -8.387300
-22.728188 47.902992 -7.551442
-22.294628 47.903370 -8.391316
-22.627039 47.911705 -7.756065
-22.509146 47.905430 -7.899559
-22.550226 47.909931 -7.921309
-22.447803 47.911930 -8.101387
-22.270403 47.907360 -8.360522
-22.459276 47.903957 -8.086929
-22.442883 47.907936 -8.067053
-22.639095 47.905827 -7.719339
-22.524240 47.904255 -7.905231
-22.380440 47.900284 -8.212626
-22.541479 47.909019 -7.909889
-22.384781 47.901459 -8.223981
-22.598890 47.907246 -7.718513
-22.274576 47.901028 -8.381819
-22.623844 47.911861 -7.717062
-22.264847 47.901669 -8.400444
-22.349190 47.912483 -8.246125
-22.415289 47.911125 -8.115874
-22.452723 47.908989 -8.074515
-22.295912 47.907940 -8.299350
-22.389236 47.902939 -8.209393
-22.254725 47.911411 -8.378325
-22.235603 47.909828 -8.412306
-22.351206 47.911266 -8.188361
-22.296347 47.904636 -8.384312
-22.455257 47.906658 -8.078063
-22.743303 47.900101 -7.511847
-22.299740 47.904087 -8.371387
-22.514011 47.906219 -7.938298
-22.316723 47.899036 -8.312404
-22.318245 47.913368 -8.324787
-22.380510 47.916527 -8.129284
-22.484573 47.906090 -7.955557
-22.738628 47.904232 -7.515106
-22.311211 47.916103 -8.258939
-22.631748 47.909859 -7.727956
-22.641312 47.910297 -7.608626
-22.454269 47.913109 -7.971364
-22.323372 47.914223 -8.321843
-22.726818 47.906197 -7.510037
-22.352438 47.901817 -8.195595
-22.283930 47.910828 -8.336026
-22.629274 47.909416 -7.719848
-22.670202 47.903976 -7.580768
-22.683550 47.913151 -7.522401
-22.702915 47.906162 -7.518912
-22.409224 47.910904 -8.048192
-22.524397 47.904819 -7.914333
-22.545076 47.918728 -7.793214
-22.356873 47.908318 -8.220666
-22.570509 47.910187 -7.773669
-22.326893 47.913006 -8.302184
-22.294060 47.902996 -8.300507
-22.703823 47.906784 -7.545403
-22.273449 47.904499 -8.374468
-22.602201 47.914589 -7.748629
-22.270651 47.903511 -8.377495
-22.522856 47.907963 -7.913575
-22.421831 47.910011 -8.091000
-22.486778 47.911282 -7.890089
-22.421907 47.914722 -8.057205
-22.432503 47.903999 -8.078416
-22.497881 47.904209 -7.898065
-22.248623 47.914330 -8.347988
-22.608004 47.902836 -7.716404
-22.572874 47.906109 -7.712640
-22.513649 47.907036 -7.903041
-22.358595 47.907143 -8.202318
-22.596087 47.911762 -7.712550
-22.252666 47.906002 -8.369179
-22.360067 47.905445 -8.214367
-22.243999 47.909557 -8.388420
-22.425821 47.907036 -8.065898
-22.391384 47.913151 -8.104389
-22.319765 47.903904 -8.232655
-22.368788 47.910736 -8.198711
-22.275066 47.915829 -8.287327
-22.229103 47.905739 -8.362392
-22.328175 47.913219 -8.177335
-22.430353 47.907658 -8.068292
-22.270905 47.902843 -8.370811
-22.213228 47.913898 -8.398273
-22.716208 47.903900 -7.508888
-22.276892 47.909027 -8.360514
-22.490175 47.910133 -7.929146
-22.292740 47.910576 -8.311235
-22.295940 47.908810 -8.302712
-22.708811 47.901077 -7.513974
-22.602392 47.905830 -7.723657
-22.355745 47.918633 -8.117342
-22.462736 47.912956 -7.945253
-22.286846 47.917225 -8.246059
-22.294872 47.906563 -8.308880
-22.617025 47.913311 -7.598085
-22.697601 47.905052 -7.508128
-22.430441 47.916138 -7.959935
-22.678497 47.908958 -7.512824
-22.333189 47.914524 -8.185637
-22.603575 47.913265 -7.714234
-22.657671 47.914013 -7.516636
-22.645382 47.906864 -7.573337
-22.261023 47.913887 -8.322824
-22.389784 47.920624 -8.038077
-22.496170 47.903816 -7.908423
-22.679401 47.909580 -7.539314
-22.300859 47.909199 -8.289464
-22.549608 47.917976 -7.763877
-22.515400 47.914906 -7.785351
-22.271561 47.905960 -8.288649
-22.496365 47.905918 -7.906302
-22.332037 47.909424 -8.208669
-22.572384 47.909660 -7.742937
-22.249947 47.905548 -8.362044
-22.462231 47.911194 -7.881615
-22.249403 47.912380 -8.366407
-22.397530 47.913021 -8.080451
-22.551321 47.910892 -7.703578
-22.411192 47.912762 -8.069558
-22.474987 47.909046 -7.889426
-22.394087 47.911850 -8.048080
-22.488819 47.909920 -7.895607
-22.584707 47.908657 -7.708703
-22.578579 47.923439 -7.701231
-22.227314 47.921318 -8.334571
-22.334291 47.910152 -8.191770
-22.336632 47.908379 -8.204276
-22.230230 47.909966 -8.357373
-22.221031 47.911621 -8.375166
-22.341827 47.906902 -8.187762
-22.303507 47.921482 -8.222106
-22.404112 47.915894 -8.055698
-22.368614 47.919094 -8.093574
-22.250643 47.915958 -8.274397
-22.410313 47.915363 -8.058955
-22.305681 47.916187 -8.165480
-22.247999 47.906788 -8.359888
-22.208796 47.914646 -8.349540
-22.688589 47.906689 -7.506764
-22.191856 47.919891 -8.384803
-22.689184 47.908699 -7.505985
-22.463224 47.907188 -7.920481
-22.253454 47.911072 -8.348143
-22.271910 47.908844 -8.291122
-22.579899 47.910576 -7.716361
-22.270432 47.916534 -8.299534
-22.437317 47.912941 -7.936321
-22.333975 47.925610 -8.104812
-22.264883 47.921207 -8.233371
-22.674713 47.910786 -7.501771
-22.270441 47.907578 -8.298226
-22.633068 47.913822 -7.510394
-22.651688 47.909790 -7.508828
-22.623831 47.911652 -7.564276
-22.309166 47.914562 -8.174049
-22.591812 47.916298 -7.589314
-22.237402 47.912941 -8.310299
-22.403696 47.915298 -7.949152
-22.580471 47.922077 -7.706690
-22.470814 47.905689 -7.901822
-22.656914 47.914330 -7.532020
-22.363775 47.917717 -8.027646
-22.278889 47.914070 -8.279053
-22.548367 47.911476 -7.735910
-22.311533 47.916229 -8.197938
-22.469948 47.904877 -7.899085
-22.250063 47.910847 -8.277355
-22.522264 47.916012 -7.756152
-22.441080 47.914997 -7.871616
-22.227449 47.908512 -8.350186
-22.375500 47.916893 -8.069990
-22.493639 47.921886 -7.772825
-22.225904 47.913429 -8.353986
-22.529177 47.913666 -7.695297
-22.449976 47.908943 -7.881838
-22.373058 47.917645 -8.038184
-22.385302 47.912731 -8.061507
-22.559824 47.911438 -7.703499
-22.463467 47.911797 -7.889006
-22.545256 47.913517 -7.699247
-22.309273 47.909157 -8.181898
-22.312735 47.911297 -8.195072
-22.206814 47.927235 -8.321561
-22.208267 47.913948 -8.344685
-22.378033 47.912872 -8.047491
-22.199066 47.915604 -8.362477
-22.321388 47.914703 -8.177084
-22.278360 47.917606 -8.209850
-22.343134 47.917198 -8.082310
-22.230610 47.922779 -8.262783
-22.383829 47.912437 -8.049405
-22.664705 47.911388 -7.502125
-22.227751 47.918468 -8.351645
-22.284319 47.923073 -8.154293
-22.558809 47.916264 -7.708693
-22.186836 47.918629 -8.336852
-22.442198 47.912983 -7.910585
-22.660511 47.908573 -7.503247
-22.247890 47.908882 -8.279534
-22.229492 47.912106 -8.336606
-22.246939 47.917583 -8.287113
-22.412903 47.913963 -7.925674
-22.609869 47.914570 -7.503779
-22.308037 47.922810 -8.092155
-22.646912 47.910583 -7.499493
-22.245825 47.905602 -8.287418
-22.243052 47.927185 -8.220789
-22.630543 47.914482 -7.501111
-22.288267 47.922348 -8.164257
-22.629913 47.912170 -7.527867
-22.597031 47.911594 -7.558003
-22.567875 47.918228 -7.580068
-22.217560 47.922756 -8.298841
-22.450787 47.912514 -7.890211
-22.344807 47.927456 -8.016649
-22.546873 47.915134 -7.705747
-22.380751 47.918259 -7.938186
-22.256393 47.917038 -8.267196
-22.445065 47.907654 -7.893881
-22.417412 47.914837 -7.863605
-22.525415 47.915321 -7.727223
-22.289104 47.920197 -8.186134
-22.498257 47.916946 -7.746850
-22.228634 47.916733 -8.266116
-22.350889 47.914925 -8.059184
-22.206081 47.915394 -8.338998
-22.509092 47.920383 -7.685915
-22.468237 47.921879 -7.763898
-22.205002 47.920330 -8.341913
-22.350508 47.920509 -8.028558
-22.426964 47.911789 -7.873099
-22.533419 47.911285 -7.698566
-22.524704 47.920223 -7.690749
-22.358488 47.911785 -8.052950
-22.433540 47.904873 -7.883216
-22.291769 47.918087 -8.185227
-22.289900 47.919876 -8.171837
-22.181553 47.920483 -8.306927
-22.301886 47.923428 -8.166917
-22.185843 47.917915 -8.332882
-22.355673 47.918728 -8.038022
-22.176516 47.916687 -8.348290
-22.641436 47.912025 -7.497735
-22.364265 47.920166 -8.039187
-22.257526 47.925503 -8.197832
-22.206940 47.920845 -8.250211
-22.322239 47.924103 -8.070239
-22.537594 47.919960 -7.700921
-22.201950 47.910698 -8.337838
-22.262829 47.927963 -8.143003
-22.417593 47.911903 -7.902061
-22.636698 47.914272 -7.498662
-22.165220 47.920639 -8.323178
-22.206810 47.912083 -8.324594
-22.227394 47.915688 -8.268806
-22.224384 47.919556 -8.275206
-22.588602 47.917271 -7.495960
-22.622908 47.913292 -7.494751
-22.389959 47.916924 -7.914709
-22.607475 47.917225 -7.494602
-22.227047 47.919220 -8.278856
-22.285494 47.924786 -8.080252
-22.215153 47.913589 -8.205761
-22.428577 47.914291 -7.881876
-22.607372 47.915928 -7.520525
-22.319954 47.922390 -8.007919
-22.576487 47.917416 -7.547229
-22.264257 47.922390 -8.152674
-22.520472 47.914982 -7.700815
-22.505329 47.922043 -7.717840
-22.546402 47.923126 -7.568784
-22.392227 47.911747 -7.855865
-22.235493 47.924824 -8.257403
-22.421185 47.911469 -7.886962
-22.488291 47.923103 -7.677210
-22.208141 47.923542 -8.255387
-22.266151 47.923153 -8.175165
-22.476311 47.921825 -7.736448
-22.183531 47.917370 -8.327091
-22.328936 47.919800 -8.048779
-22.405418 47.916576 -7.864038
-22.498116 47.917084 -7.685663
-22.180332 47.916473 -8.328776
-22.326500 47.921436 -8.019255
-22.413456 47.911594 -7.873834
-22.510012 47.915119 -7.690766
-22.443310 47.921894 -7.754090
-22.338591 47.921494 -8.043721
-22.266760 47.917095 -8.175359
-22.265423 47.919903 -8.161138
-22.277214 47.920464 -8.156059
-22.164631 47.919830 -8.320550
-22.342583 47.922955 -8.030019
-22.331070 47.917648 -8.029498
-22.617434 47.914734 -7.492994
-22.515047 47.923714 -7.693576
-22.232801 47.920654 -8.184646
-22.295988 47.917206 -8.059604
-22.182688 47.916012 -8.236143
-22.239569 47.925938 -8.131776
-22.395983 47.915691 -7.892949
-22.609499 47.916088 -7.495606
-22.183138 47.910149 -8.312020
-22.205376 47.919567 -8.258348
-22.567341 47.919975 -7.488142
-22.585808 47.920910 -7.487719
-22.600435 47.918049 -7.487463
-22.583181 47.915646 -7.515628
-22.202570 47.919247 -8.268157
-22.258198 47.914978 -8.069006
-22.405441 47.915146 -7.873033
-22.188730 47.902821 -8.192695
-22.551899 47.917229 -7.540991
-22.242117 47.924278 -8.142113
-22.297947 47.926270 -7.997465
-22.374010 47.919422 -7.845226
-22.482262 47.923897 -7.709051
-22.494671 47.916847 -7.695105
-22.242758 47.919132 -8.163832
-22.397713 47.914303 -7.879109
-22.464106 47.921936 -7.670036
-22.521017 47.923126 -7.559863
-22.306137 47.918678 -8.038946
-22.152016 47.888050 -8.309855
-22.176357 47.897198 -8.239195
-22.451786 47.921745 -7.727982
-22.386194 47.923222 -7.855113
-22.478495 47.923824 -7.675397
-22.160763 47.924202 -8.318557
-22.487465 47.918873 -7.683424
-22.307592 47.932178 -8.008311
-22.392033 47.918373 -7.864879
-22.312521 47.918476 -8.035521
-22.243864 47.924683 -8.152076
-22.422953 47.929817 -7.741194
-22.592241 47.913422 -7.489815
-22.245392 47.924870 -8.166453
-22.256186 47.926258 -8.146165
-22.306404 47.915569 -8.020926
-22.492773 47.925385 -7.687473
-22.139187 47.910088 -8.305765
-22.129271 47.905964 -8.319676
-22.202009 47.897114 -8.171299
-22.269089 47.907307 -8.049702
-22.206207 47.897438 -8.120369
-22.583042 47.915833 -7.492912
-22.176226 47.900951 -8.244832
-22.546549 47.922695 -7.479447
-22.560228 47.919693 -7.483208
-22.575911 47.919746 -7.483565
-22.561117 47.919422 -7.507414
-22.176001 47.906479 -8.254988
-22.275093 47.924152 -7.987591
-22.461523 47.927612 -7.700408
-22.351755 47.920208 -7.836854
-22.170296 47.913578 -8.180875
-22.528782 47.918091 -7.532165
-22.240545 47.930740 -8.056561
-22.206047 47.887936 -8.130260
-22.443842 47.925671 -7.660511
-22.473722 47.924534 -7.687557
-22.214273 47.904415 -8.151875
-22.372847 47.916199 -7.871642
-22.456713 47.925514 -7.668423
-22.490881 47.913116 -7.556170
-22.136875 47.910431 -8.302260
-22.428728 47.923603 -7.719207
-22.155746 47.902016 -8.228375
-22.361618 47.922146 -7.846609
-22.464413 47.921619 -7.676929
-22.570925 47.916019 -7.484238
-22.367918 47.918201 -7.857768
-22.291109 47.925255 -8.026576
-22.220207 47.923637 -8.141796
-22.469526 47.925137 -7.680820
-22.220274 47.921890 -8.156496
-22.283876 47.918438 -8.011316
-22.114445 47.897282 -8.291294
-22.105774 47.899063 -8.305975
-22.181286 47.899940 -8.160378
-22.244390 47.903351 -8.038815
-22.189522 47.908051 -8.109468
-22.525181 47.923412 -7.471541
-22.555212 47.914646 -7.490604
-22.079821 47.907345 -8.311657
-22.536001 47.918423 -7.478278
-22.553396 47.923512 -7.476242
-22.539871 47.922131 -7.499611
-22.436291 47.924419 -7.694911
-22.423927 47.928318 -7.652279
-22.332029 47.924957 -7.826498
-22.507669 47.921906 -7.522189
-22.189150 47.902519 -8.120454
-22.193357 47.904251 -8.140797
-22.262741 47.922379 -8.018308
-22.443775 47.917515 -7.684018
-22.436584 47.931244 -7.659005
-22.351381 47.921986 -7.862648
-22.113503 47.906410 -8.290940
-22.550144 47.919632 -7.477829
-22.446337 47.931297 -7.666408
-22.111769 47.906563 -8.290026
-22.346390 47.922993 -7.848722
-22.448275 47.927845 -7.673013
-22.264816 47.918259 -8.018183
-22.192019 47.906837 -8.131083
-22.255350 47.904503 -8.003873
-22.094900 47.905018 -8.281089
-22.086571 47.904819 -8.294782
-22.162273 47.908691 -8.149343
-22.226778 47.913040 -8.027406
-22.504684 47.924049 -7.464093
-22.116550 47.909855 -8.199875
-22.167158 47.905952 -8.098718
-22.519140 47.926048 -7.467229
-22.532299 47.919392 -7.484218
-22.078121 47.918613 -8.270226
-22.138281 47.929176 -8.228665
-22.060091 47.911205 -8.299017
-22.528238 47.922207 -7.473081
-22.507099 47.907940 -7.502360
-22.468159 47.894753 -7.531311
-22.167061 47.898335 -8.110940
-22.126032 47.908512 -8.156206
-22.528244 47.920219 -7.473032
-22.173880 47.912983 -8.130646
-22.242081 47.926205 -8.007439
-22.101326 47.902115 -8.232377
-22.423903 47.927235 -7.674809
-22.326744 47.920803 -7.856370
-22.090883 47.899437 -8.277699
-22.114176 47.905678 -8.206429
-22.419252 47.927155 -7.662172
-22.096287 47.930927 -8.283417
-22.320049 47.915890 -7.842560
-22.169249 47.905720 -8.121266
-22.174307 47.920631 -8.137792
-22.072351 47.899040 -8.267902
-22.485716 47.926739 -7.454097
-22.074039 47.925381 -8.241030
-22.062906 47.894932 -8.280930
-22.140379 47.906612 -8.137706
-22.203951 47.910931 -8.017539
-22.094656 47.907776 -8.188238
-22.149078 47.915627 -8.088191
-22.494923 47.924782 -7.462300
-22.506680 47.918072 -7.481942
-22.092928 47.903919 -8.266402
-22.111067 47.905453 -8.214938
-22.113304 47.912388 -8.213990
-22.057865 47.921459 -8.258419
-22.040241 47.913071 -8.286275
-22.490307 47.916565 -7.491364
-22.504610 47.922951 -7.467371
-22.451969 47.904507 -7.517258
-22.510918 47.927834 -7.462867
-22.149233 47.911999 -8.100621
-22.154089 47.916737 -8.120234
-22.104734 47.908447 -8.143790
-22.080765 47.899975 -8.220313
-22.215431 47.913231 -7.998739
-22.398872 47.927040 -7.669470
-22.073294 47.917973 -8.269863
-22.090454 47.895683 -8.194806
-22.396086 47.927914 -7.655576
-22.069143 47.907310 -8.267464
-22.164749 47.915913 -8.104346
-22.150702 47.915379 -8.111624
-22.149830 47.913593 -8.128090
-22.451012 47.904415 -7.461321
-22.053093 47.903809 -8.256658
-22.044701 47.902615 -8.270298
-22.119354 47.904461 -8.126528
-22.183054 47.910774 -8.006466
-22.128181 47.915470 -8.077117
-22.075460 47.913540 -8.177046
-22.467354 47.914440 -7.462213
-22.090506 47.903316 -8.202874
-22.482653 47.919796 -7.477170
-22.470936 47.920235 -7.482304
-22.481853 47.923618 -7.462120
-22.038849 47.930214 -8.247378
-22.019159 47.909035 -8.272765
-22.482937 47.918468 -7.463714
-22.086952 47.905952 -8.214607
-22.129263 47.912762 -8.090055
-22.128010 47.897812 -8.109456
-22.201044 47.931782 -7.986939
-22.086193 47.917221 -8.131868
-22.059992 47.901814 -8.209342
-22.154819 47.937428 -8.009021
-22.053158 47.923702 -8.260437
-22.071909 47.905342 -8.185163
-22.051769 47.921879 -8.258534
-22.146324 47.927570 -8.094807
-22.129459 47.917202 -8.101536
-22.131653 47.929237 -8.118756
-22.440186 47.920120 -7.442299
-22.032072 47.901657 -8.245479
-22.025568 47.909374 -8.259156
-22.031286 47.915298 -8.214793
-22.101990 47.918144 -8.115322
-22.111801 47.931072 -8.066470
-22.439795 47.904102 -7.462129
-22.054726 47.908417 -8.164829
-22.163866 47.916542 -7.995276
-22.446014 47.914967 -7.478054
-22.463135 47.927551 -7.466975
-22.071032 47.912056 -8.192721
-22.072454 47.920952 -8.193643
-22.449978 47.909359 -7.465334
-22.016289 47.916286 -8.232898
-22.000149 47.917793 -8.261725
-22.471302 47.936134 -7.446564
-22.107903 47.912590 -8.079866
-22.412914 47.912052 -7.495574
-22.112413 47.918419 -8.098186
-22.066877 47.920998 -8.120573
-22.041851 47.910496 -8.198761
-22.129934 47.923416 -7.998965
-22.055065 47.920925 -8.175400
-22.031204 47.920631 -8.248746
-22.121180 47.909569 -8.084539
-22.031113 47.925709 -8.247663
-22.417473 47.914719 -7.438082
-22.105558 47.905106 -8.092038
-22.106104 47.912216 -8.109425
-22.011831 47.904507 -8.233675
-22.418791 47.903736 -7.455518
-22.015045 47.940853 -8.205540
-22.005262 47.911232 -8.247299
-22.090786 47.928928 -8.055292
-22.144615 47.921314 -7.984034
-22.079926 47.913082 -8.103534
-22.035597 47.915184 -8.153688
-22.423021 47.911652 -7.472598
-22.033707 47.926022 -8.238841
-22.430151 47.913017 -7.457160
-22.049547 47.909889 -8.182426
-22.051027 47.919781 -8.183399
-22.424313 47.904301 -7.477655
-22.002775 47.965599 -8.226673
-22.468845 47.968842 -7.418717
-21.978651 47.906780 -8.247859
-22.085592 47.904427 -8.070150
-22.060316 47.926868 -8.171462
-22.160608 47.939373 -7.965659
-22.091520 47.918266 -8.087111
-22.045223 47.914959 -8.107849
-22.026447 47.942047 -8.188933
-22.033865 47.915787 -8.164067
-22.111057 47.933289 -7.985753
-22.009010 47.913574 -8.236852
-22.104988 47.928165 -8.074047
-22.008797 47.916656 -8.235664
-22.089024 47.925678 -8.082533
-22.088577 47.930870 -8.099359
-22.182961 47.930611 -7.835910
-22.400492 47.909439 -7.444794
-21.996197 47.940922 -8.227212
-21.985643 47.910023 -8.235745
-22.070944 47.931690 -8.044829
-21.991728 47.921928 -8.191690
-22.131302 47.948971 -7.969580
-22.064682 47.939671 -8.092565
-22.004845 47.918503 -8.243777
-22.401957 47.910290 -7.465934
-22.022486 47.962631 -8.144248
-22.011698 47.921955 -8.227100
-22.403784 47.906704 -7.455515
-22.035131 47.943363 -8.173160
-22.029362 47.914627 -8.172951
-22.399401 47.899921 -7.475687
-21.976791 47.923912 -8.209845
-21.959503 47.905590 -8.235422
-22.192444 47.917595 -7.824807
-22.024809 47.916233 -8.186399
-22.067699 47.917103 -8.059775
-22.042719 47.944527 -8.161341
-22.079491 47.953709 -8.075750
-22.133904 47.918339 -7.957898
-22.002115 47.914135 -8.175506
-22.026926 47.927727 -8.096129
-22.018229 47.951317 -8.155325
-21.993494 47.951981 -8.230491
-22.090111 47.932144 -7.974628
-22.089621 47.952759 -8.062975
-21.987944 47.909546 -8.223345
-22.069242 47.929440 -8.072121
-22.206732 47.929733 -7.806550
-22.061167 47.904945 -8.089997
-22.154234 47.906521 -7.831542
-21.972033 47.908039 -8.212646
-22.050863 47.930470 -8.034161
-21.965040 47.906895 -8.223633
-22.383005 47.912987 -7.455939
-22.040535 47.915638 -8.081571
-21.981585 47.901463 -8.232255
-21.997154 47.925732 -8.131248
-21.972076 47.926800 -8.179101
-22.102079 47.916019 -7.962518
-21.989729 47.911816 -8.216394
-22.012112 47.930309 -8.161841
-22.016674 47.969940 -8.166148
-22.119797 47.965271 -7.900440
-21.957294 47.924702 -8.198393
-22.380888 47.908714 -7.463776
-21.940599 47.908390 -8.223190
-22.178244 47.937374 -7.808601
-22.010641 47.962540 -8.180904
-22.051279 47.938786 -8.048089
-22.015879 47.912651 -8.149902
-22.111881 47.908096 -7.949423
-22.055174 47.934643 -8.065894
-22.129141 47.928860 -7.935182
-22.110903 47.927486 -7.924399
-21.982805 47.917915 -8.164208
-22.008141 47.932522 -8.083999
-22.061356 47.913761 -8.055174
-21.993261 47.920399 -8.142632
-21.967855 47.909206 -8.214952
-22.070463 47.937019 -7.962041
-21.966997 47.908398 -8.212218
-22.050129 47.944172 -8.062270
-22.202206 47.980488 -7.781348
-22.109425 47.920815 -7.939308
-22.053238 47.978233 -8.079269
-22.208067 47.957283 -7.777205
-22.030079 47.925247 -8.024173
-22.136518 47.913349 -7.817750
-21.952663 47.910824 -8.201297
-21.945326 47.911655 -8.213270
-22.021168 47.918423 -8.070224
-21.951982 47.917618 -8.167140
-21.977015 47.923512 -8.120528
-22.081419 47.912788 -7.952635
-21.961403 47.906204 -8.222778
-21.968904 47.912663 -8.205370
-21.989580 47.926121 -8.153214
-21.991102 47.928169 -8.150662
-22.090282 47.929108 -7.897684
-21.936983 47.918606 -8.185243
-21.922010 47.924133 -8.212503
-22.150787 47.913116 -7.806032
-21.983124 47.911739 -8.167611
-22.026554 47.913631 -8.040159
-22.098680 47.937748 -7.935068
-21.996103 47.916416 -8.139489
-22.034468 47.937489 -8.054972
-22.104492 47.912659 -7.928596
-22.086790 47.912304 -7.916983
-21.964336 47.935654 -8.153625
-21.972883 47.914192 -8.131707
-22.041523 47.916531 -8.044711
-21.987904 47.935387 -8.072191
-21.949324 47.926834 -8.206595
-22.176613 47.943150 -7.777254
-22.050108 47.937889 -7.950133
-21.948933 47.926041 -8.202977
-22.026936 47.929020 -8.053081
-22.168125 47.937305 -7.783962
-22.021677 47.914356 -8.071504
-22.095352 47.950546 -7.924491
-22.097603 47.970646 -7.940771
-22.010832 47.930027 -8.012927
-21.933489 47.924557 -8.191392
-22.155523 47.942421 -7.737822
-22.115007 47.910202 -7.807414
-21.925957 47.914440 -8.201921
-22.001740 47.920212 -8.058825
-21.933617 47.929394 -8.155363
-21.958063 47.933277 -8.109534
-22.063292 47.920597 -7.939775
-21.941282 47.911942 -8.213351
-21.949888 47.922318 -8.196604
-22.071724 47.930824 -7.886744
-21.969801 47.929886 -8.142798
-21.971262 47.930935 -8.140197
-22.155508 47.944649 -7.753670
-21.963545 47.926456 -8.158644
-22.129803 47.910984 -7.794861
-22.006725 47.916405 -8.029696
-21.975620 47.916176 -8.129756
-22.077154 47.934601 -7.924725
-22.010864 47.915359 -8.045427
-22.085470 47.914356 -7.918541
-22.068535 47.919003 -7.906299
-21.944664 47.933456 -8.142018
-21.968998 47.938190 -8.059957
-21.953110 47.917961 -8.121293
-22.021225 47.919285 -8.035132
-22.162359 47.969009 -7.760005
-22.029135 47.922607 -7.940981
-21.928438 47.926689 -8.195518
-21.928913 47.925819 -8.192357
-22.174000 48.020401 -7.761489
-22.006575 47.930775 -8.043448
-22.150272 47.943027 -7.772342
-22.151505 47.905613 -7.776788
-22.070929 47.931263 -7.919095
-22.064215 47.915550 -7.940122
-22.000048 47.917168 -8.062351
-22.127176 47.905872 -7.741328
-22.098097 47.915962 -7.794026
-21.981789 47.920990 -8.048259
-22.053564 47.932446 -7.877143
-22.043871 47.922390 -7.928378
-21.920862 47.912701 -8.203668
-21.952068 47.936714 -8.128998
-21.949795 47.937626 -8.133470
-21.928419 47.920162 -8.186310
-22.126041 47.905071 -7.758789
-22.119383 47.940746 -7.775192
-21.943241 47.929211 -8.149060
-22.055124 47.917290 -7.917237
-21.956593 47.917873 -8.119697
-21.992544 47.921062 -8.034689
-22.049793 47.918617 -7.897483
-22.066509 47.917053 -7.908537
-22.002258 47.921982 -8.025126
-22.125170 47.907482 -7.771929
-21.987543 47.932476 -8.033389
-22.122221 47.910576 -7.773821
-22.133137 47.910324 -7.766004
-22.128155 47.936005 -7.779706
-22.050510 47.932026 -7.909414
-22.109613 47.909512 -7.730949
-21.979572 47.916935 -8.052619
-22.043982 47.919308 -7.930594
-22.107031 47.906776 -7.748736
-22.102724 47.956680 -7.758739
-22.048353 47.918678 -7.898938
-22.184153 47.942326 -7.591076
-22.105633 47.908173 -7.762710
-22.115734 47.909882 -7.756763
-22.108253 47.933464 -7.755532
-22.107859 47.938766 -7.770127
-22.193794 47.940258 -7.581403
-22.189472 47.940849 -7.555377
-22.182892 47.932220 -7.575463
-22.187426 47.941563 -7.564447
